0, 0, Header, 1, 4, 96
1, 0, Start_track
1, 0, Time_signature, 4, 2, 24, 8
1, 0, Title_t, "untitled"
1, 0, Title_t, "Track1"
1, 0, Tempo, 869565
1, 5952, Tempo, 1764705
1, 5952, End_track
2, 0, Start_track
2, 0, Title_t, "Track2"
2, 0, Program_c, 0, 40
2, 0, Control_c, 0, 7, 100
2, 0, Control_c, 0, 10, 96
2, 72, Note_on_c, 0, 80, 93
2, 96, Note_off_c, 0, 80, 0
2, 96, Note_on_c, 0, 79, 93
2, 168, Note_off_c, 0, 79, 0
2, 168, Note_on_c, 0, 77, 93
2, 192, Note_off_c, 0, 77, 0
2, 192, Note_on_c, 0, 75, 93
2, 264, Note_off_c, 0, 75, 0
2, 264, Note_on_c, 0, 74, 93
2, 288, Note_off_c, 0, 74, 0
2, 288, Note_on_c, 0, 74, 93
2, 300, Note_off_c, 0, 74, 0
2, 300, Note_on_c, 0, 72, 93
2, 312, Note_off_c, 0, 72, 0
2, 312, Note_on_c, 0, 74, 93
2, 324, Note_off_c, 0, 74, 0
2, 324, Note_on_c, 0, 72, 93
2, 336, Note_off_c, 0, 72, 0
2, 336, Note_on_c, 0, 74, 93
2, 348, Note_off_c, 0, 74, 0
2, 348, Note_on_c, 0, 72, 93
2, 360, Note_off_c, 0, 72, 0
2, 360, Note_on_c, 0, 71, 93
2, 372, Note_off_c, 0, 71, 0
2, 372, Note_on_c, 0, 72, 93
2, 384, Note_off_c, 0, 72, 0
2, 384, Note_on_c, 0, 74, 93
2, 408, Note_off_c, 0, 74, 0
2, 408, Note_on_c, 0, 75, 93
2, 432, Note_off_c, 0, 75, 0
2, 432, Note_on_c, 0, 74, 93
2, 456, Note_off_c, 0, 74, 0
2, 456, Note_on_c, 0, 72, 93
2, 480, Note_off_c, 0, 72, 0
2, 480, Note_on_c, 0, 71, 93
2, 504, Note_off_c, 0, 71, 0
2, 504, Note_on_c, 0, 67, 93
2, 528, Note_off_c, 0, 67, 0
2, 528, Note_on_c, 0, 69, 93
2, 552, Note_off_c, 0, 69, 0
2, 552, Note_on_c, 0, 71, 93
2, 576, Note_off_c, 0, 71, 0
2, 576, Note_on_c, 0, 72, 93
2, 600, Note_off_c, 0, 72, 0
2, 600, Note_on_c, 0, 71, 93
2, 624, Note_off_c, 0, 71, 0
2, 624, Note_on_c, 0, 72, 93
2, 648, Note_off_c, 0, 72, 0
2, 648, Note_on_c, 0, 74, 93
2, 672, Note_off_c, 0, 74, 0
2, 672, Note_on_c, 0, 75, 93
2, 696, Note_off_c, 0, 75, 0
2, 696, Note_on_c, 0, 72, 93
2, 720, Note_off_c, 0, 72, 0
2, 720, Note_on_c, 0, 74, 93
2, 744, Note_off_c, 0, 74, 0
2, 744, Note_on_c, 0, 75, 93
2, 768, Note_off_c, 0, 75, 0
2, 768, Note_on_c, 0, 69, 93
2, 864, Note_off_c, 0, 69, 0
2, 912, Note_on_c, 0, 74, 93
2, 960, Note_off_c, 0, 74, 0
2, 960, Note_on_c, 0, 67, 93
2, 1008, Note_off_c, 0, 67, 0
2, 1008, Note_on_c, 0, 69, 93
2, 1032, Note_off_c, 0, 69, 0
2, 1032, Note_on_c, 0, 71, 93
2, 1056, Note_off_c, 0, 71, 0
2, 1056, Note_on_c, 0, 72, 93
2, 1200, Note_off_c, 0, 72, 0
2, 1200, Note_on_c, 0, 74, 93
2, 1224, Note_off_c, 0, 74, 0
2, 1224, Note_on_c, 0, 76, 93
2, 1248, Note_off_c, 0, 76, 0
2, 1248, Note_on_c, 0, 77, 93
2, 1296, Note_off_c, 0, 77, 0
2, 1296, Note_on_c, 0, 78, 93
2, 1344, Note_off_c, 0, 78, 0
2, 1344, Note_on_c, 0, 79, 93
2, 1488, Note_off_c, 0, 79, 0
2, 1488, Note_on_c, 0, 81, 93
2, 1512, Note_off_c, 0, 81, 0
2, 1512, Note_on_c, 0, 83, 93
2, 1536, Note_off_c, 0, 83, 0
2, 1536, Note_on_c, 0, 84, 93
2, 1776, Note_off_c, 0, 84, 0
2, 1776, Note_on_c, 0, 83, 93
2, 1824, Note_off_c, 0, 83, 0
2, 1872, Note_on_c, 0, 77, 93
2, 1992, Note_off_c, 0, 77, 0
2, 1992, Note_on_c, 0, 80, 93
2, 2016, Note_off_c, 0, 80, 0
2, 2016, Note_on_c, 0, 79, 93
2, 2088, Note_off_c, 0, 79, 0
2, 2088, Note_on_c, 0, 77, 93
2, 2112, Note_off_c, 0, 77, 0
2, 2112, Note_on_c, 0, 75, 93
2, 2184, Note_off_c, 0, 75, 0
2, 2184, Note_on_c, 0, 74, 93
2, 2208, Note_off_c, 0, 74, 0
2, 2208, Note_on_c, 0, 74, 93
2, 2220, Note_off_c, 0, 74, 0
2, 2220, Note_on_c, 0, 72, 93
2, 2232, Note_off_c, 0, 72, 0
2, 2232, Note_on_c, 0, 74, 93
2, 2244, Note_off_c, 0, 74, 0
2, 2244, Note_on_c, 0, 72, 93
2, 2256, Note_off_c, 0, 72, 0
2, 2256, Note_on_c, 0, 74, 93
2, 2268, Note_off_c, 0, 74, 0
2, 2268, Note_on_c, 0, 72, 93
2, 2280, Note_off_c, 0, 72, 0
2, 2280, Note_on_c, 0, 71, 93
2, 2292, Note_off_c, 0, 71, 0
2, 2292, Note_on_c, 0, 72, 93
2, 2304, Note_off_c, 0, 72, 0
2, 2304, Note_on_c, 0, 74, 93
2, 2328, Note_off_c, 0, 74, 0
2, 2328, Note_on_c, 0, 75, 93
2, 2352, Note_off_c, 0, 75, 0
2, 2352, Note_on_c, 0, 74, 93
2, 2376, Note_off_c, 0, 74, 0
2, 2376, Note_on_c, 0, 72, 93
2, 2400, Note_off_c, 0, 72, 0
2, 2400, Note_on_c, 0, 71, 93
2, 2424, Note_off_c, 0, 71, 0
2, 2424, Note_on_c, 0, 67, 93
2, 2448, Note_off_c, 0, 67, 0
2, 2448, Note_on_c, 0, 69, 93
2, 2472, Note_off_c, 0, 69, 0
2, 2472, Note_on_c, 0, 71, 93
2, 2496, Note_off_c, 0, 71, 0
2, 2496, Note_on_c, 0, 72, 93
2, 2520, Note_off_c, 0, 72, 0
2, 2520, Note_on_c, 0, 71, 93
2, 2544, Note_off_c, 0, 71, 0
2, 2544, Note_on_c, 0, 72, 93
2, 2568, Note_off_c, 0, 72, 0
2, 2568, Note_on_c, 0, 74, 93
2, 2592, Note_off_c, 0, 74, 0
2, 2592, Note_on_c, 0, 75, 93
2, 2616, Note_off_c, 0, 75, 0
2, 2616, Note_on_c, 0, 72, 93
2, 2640, Note_off_c, 0, 72, 0
2, 2640, Note_on_c, 0, 74, 93
2, 2664, Note_off_c, 0, 74, 0
2, 2664, Note_on_c, 0, 75, 93
2, 2688, Note_off_c, 0, 75, 0
2, 2688, Note_on_c, 0, 69, 93
2, 2784, Note_off_c, 0, 69, 0
2, 2832, Note_on_c, 0, 74, 93
2, 2880, Note_off_c, 0, 74, 0
2, 2880, Note_on_c, 0, 67, 93
2, 2928, Note_off_c, 0, 67, 0
2, 2928, Note_on_c, 0, 69, 93
2, 2952, Note_off_c, 0, 69, 0
2, 2952, Note_on_c, 0, 71, 93
2, 2976, Note_off_c, 0, 71, 0
2, 2976, Note_on_c, 0, 72, 93
2, 3120, Note_off_c, 0, 72, 0
2, 3120, Note_on_c, 0, 74, 93
2, 3144, Note_off_c, 0, 74, 0
2, 3144, Note_on_c, 0, 76, 93
2, 3168, Note_off_c, 0, 76, 0
2, 3168, Note_on_c, 0, 77, 93
2, 3216, Note_off_c, 0, 77, 0
2, 3216, Note_on_c, 0, 78, 93
2, 3264, Note_off_c, 0, 78, 0
2, 3264, Note_on_c, 0, 79, 93
2, 3408, Note_off_c, 0, 79, 0
2, 3408, Note_on_c, 0, 81, 93
2, 3432, Note_off_c, 0, 81, 0
2, 3432, Note_on_c, 0, 83, 93
2, 3456, Note_off_c, 0, 83, 0
2, 3456, Note_on_c, 0, 84, 93
2, 3696, Note_off_c, 0, 84, 0
2, 3696, Note_on_c, 0, 83, 93
2, 3744, Note_off_c, 0, 83, 0
2, 3792, Note_on_c, 0, 77, 93
2, 3912, Note_off_c, 0, 77, 0
2, 3912, Note_on_c, 0, 80, 93
2, 3936, Note_off_c, 0, 80, 0
2, 3936, Note_on_c, 0, 79, 93
2, 4008, Note_off_c, 0, 79, 0
2, 4008, Note_on_c, 0, 77, 93
2, 4032, Note_off_c, 0, 77, 0
2, 4032, Note_on_c, 0, 75, 93
2, 4104, Note_off_c, 0, 75, 0
2, 4104, Note_on_c, 0, 74, 93
2, 4128, Note_off_c, 0, 74, 0
2, 4128, Note_on_c, 0, 74, 93
2, 4140, Note_off_c, 0, 74, 0
2, 4140, Note_on_c, 0, 72, 93
2, 4152, Note_off_c, 0, 72, 0
2, 4152, Note_on_c, 0, 74, 93
2, 4164, Note_off_c, 0, 74, 0
2, 4164, Note_on_c, 0, 72, 93
2, 4176, Note_off_c, 0, 72, 0
2, 4176, Note_on_c, 0, 74, 93
2, 4188, Note_off_c, 0, 74, 0
2, 4188, Note_on_c, 0, 72, 93
2, 4200, Note_off_c, 0, 72, 0
2, 4200, Note_on_c, 0, 71, 93
2, 4212, Note_off_c, 0, 71, 0
2, 4212, Note_on_c, 0, 72, 93
2, 4224, Note_off_c, 0, 72, 0
2, 4224, Note_on_c, 0, 74, 93
2, 4248, Note_off_c, 0, 74, 0
2, 4248, Note_on_c, 0, 75, 93
2, 4272, Note_off_c, 0, 75, 0
2, 4272, Note_on_c, 0, 74, 93
2, 4296, Note_off_c, 0, 74, 0
2, 4296, Note_on_c, 0, 72, 93
2, 4320, Note_off_c, 0, 72, 0
2, 4320, Note_on_c, 0, 71, 93
2, 4344, Note_off_c, 0, 71, 0
2, 4344, Note_on_c, 0, 67, 93
2, 4368, Note_off_c, 0, 67, 0
2, 4368, Note_on_c, 0, 69, 93
2, 4392, Note_off_c, 0, 69, 0
2, 4392, Note_on_c, 0, 71, 93
2, 4416, Note_off_c, 0, 71, 0
2, 4416, Note_on_c, 0, 72, 93
2, 4440, Note_off_c, 0, 72, 0
2, 4440, Note_on_c, 0, 71, 93
2, 4464, Note_off_c, 0, 71, 0
2, 4464, Note_on_c, 0, 72, 93
2, 4488, Note_off_c, 0, 72, 0
2, 4488, Note_on_c, 0, 74, 93
2, 4512, Note_off_c, 0, 74, 0
2, 4512, Note_on_c, 0, 75, 93
2, 4536, Note_off_c, 0, 75, 0
2, 4536, Note_on_c, 0, 72, 93
2, 4560, Note_off_c, 0, 72, 0
2, 4560, Note_on_c, 0, 74, 93
2, 4584, Note_off_c, 0, 74, 0
2, 4584, Note_on_c, 0, 75, 93
2, 4608, Note_off_c, 0, 75, 0
2, 4608, Note_on_c, 0, 69, 93
2, 4704, Note_off_c, 0, 69, 0
2, 4752, Note_on_c, 0, 74, 93
2, 4800, Note_off_c, 0, 74, 0
2, 4800, Note_on_c, 0, 67, 93
2, 4848, Note_off_c, 0, 67, 0
2, 4848, Note_on_c, 0, 69, 93
2, 4872, Note_off_c, 0, 69, 0
2, 4872, Note_on_c, 0, 71, 93
2, 4896, Note_off_c, 0, 71, 0
2, 4896, Note_on_c, 0, 72, 93
2, 5040, Note_off_c, 0, 72, 0
2, 5040, Note_on_c, 0, 74, 93
2, 5064, Note_off_c, 0, 74, 0
2, 5064, Note_on_c, 0, 76, 93
2, 5088, Note_off_c, 0, 76, 0
2, 5088, Note_on_c, 0, 77, 93
2, 5136, Note_off_c, 0, 77, 0
2, 5136, Note_on_c, 0, 78, 93
2, 5184, Note_off_c, 0, 78, 0
2, 5184, Note_on_c, 0, 79, 93
2, 5328, Note_off_c, 0, 79, 0
2, 5328, Note_on_c, 0, 81, 93
2, 5352, Note_off_c, 0, 81, 0
2, 5352, Note_on_c, 0, 83, 93
2, 5376, Note_off_c, 0, 83, 0
2, 5376, Note_on_c, 0, 84, 93
2, 5616, Note_off_c, 0, 84, 0
2, 5616, Note_on_c, 0, 83, 93
2, 5664, Note_off_c, 0, 83, 0
2, 5712, Note_on_c, 0, 77, 93
2, 5832, Note_off_c, 0, 77, 0
2, 5832, Note_on_c, 0, 80, 93
2, 5856, Note_off_c, 0, 80, 0
2, 5856, Note_on_c, 0, 79, 93
2, 5928, Note_off_c, 0, 79, 0
2, 5928, Note_on_c, 0, 77, 93
2, 5952, Note_off_c, 0, 77, 0
2, 5952, Note_on_c, 0, 75, 93
2, 6144, Note_off_c, 0, 75, 0
2, 6144, End_track
3, 0, Start_track
3, 0, Title_t, "Track3"
3, 0, Program_c, 1, 41
3, 0, Control_c, 1, 7, 95
3, 0, Control_c, 1, 10, 64
3, 0, Note_on_c, 1, 60, 93
3, 96, Note_off_c, 1, 60, 0
3, 96, Note_on_c, 1, 63, 93
3, 192, Note_off_c, 1, 63, 0
3, 192, Note_on_c, 1, 67, 93
3, 288, Note_off_c, 1, 67, 0
3, 288, Note_on_c, 1, 68, 93
3, 384, Note_off_c, 1, 68, 0
3, 384, Note_on_c, 1, 59, 93
3, 480, Note_off_c, 1, 59, 0
3, 672, Note_on_c, 1, 67, 93
3, 768, Note_off_c, 1, 67, 0
3, 768, Note_on_c, 1, 66, 93
3, 864, Note_off_c, 1, 66, 0
3, 864, Note_on_c, 1, 65, 93
3, 960, Note_off_c, 1, 65, 0
3, 960, Note_on_c, 1, 64, 93
3, 1056, Note_off_c, 1, 64, 0
3, 1056, Note_on_c, 1, 63, 93
3, 1200, Note_off_c, 1, 63, 0
3, 1200, Note_on_c, 1, 62, 93
3, 1248, Note_off_c, 1, 62, 0
3, 1248, Note_on_c, 1, 61, 93
3, 1296, Note_off_c, 1, 61, 0
3, 1296, Note_on_c, 1, 60, 93
3, 1344, Note_off_c, 1, 60, 0
3, 1344, Note_on_c, 1, 59, 93
3, 1356, Note_off_c, 1, 59, 0
3, 1356, Note_on_c, 1, 57, 93
3, 1368, Note_off_c, 1, 57, 0
3, 1368, Note_on_c, 1, 55, 93
3, 1464, Note_off_c, 1, 55, 0
3, 1464, Note_on_c, 1, 59, 93
3, 1488, Note_off_c, 1, 59, 0
3, 1488, Note_on_c, 1, 60, 93
3, 1512, Note_off_c, 1, 60, 0
3, 1512, Note_on_c, 1, 65, 93
3, 1536, Note_off_c, 1, 65, 0
3, 1536, Note_on_c, 1, 64, 93
3, 1632, Note_off_c, 1, 64, 0
3, 1632, Note_on_c, 1, 63, 93
3, 1788, Note_off_c, 1, 63, 0
3, 1788, Note_on_c, 1, 62, 93
3, 1800, Note_off_c, 1, 62, 0
3, 1800, Note_on_c, 1, 60, 93
3, 1812, Note_off_c, 1, 60, 0
3, 1812, Note_on_c, 1, 62, 93
3, 1824, Note_off_c, 1, 62, 0
3, 1824, Note_on_c, 1, 63, 93
3, 1836, Note_off_c, 1, 63, 0
3, 1836, Note_on_c, 1, 62, 93
3, 1848, Note_off_c, 1, 62, 0
3, 1848, Note_on_c, 1, 63, 93
3, 1860, Note_off_c, 1, 63, 0
3, 1860, Note_on_c, 1, 62, 93
3, 1872, Note_off_c, 1, 62, 0
3, 1872, Note_on_c, 1, 63, 93
3, 1884, Note_off_c, 1, 63, 0
3, 1884, Note_on_c, 1, 62, 93
3, 1896, Note_off_c, 1, 62, 0
3, 1896, Note_on_c, 1, 63, 93
3, 1908, Note_off_c, 1, 63, 0
3, 1908, Note_on_c, 1, 62, 93
3, 1920, Note_off_c, 1, 62, 0
3, 1920, Note_on_c, 1, 60, 93
3, 2016, Note_off_c, 1, 60, 0
3, 2016, Note_on_c, 1, 63, 93
3, 2112, Note_off_c, 1, 63, 0
3, 2112, Note_on_c, 1, 67, 93
3, 2208, Note_off_c, 1, 67, 0
3, 2208, Note_on_c, 1, 68, 93
3, 2304, Note_off_c, 1, 68, 0
3, 2304, Note_on_c, 1, 59, 93
3, 2400, Note_off_c, 1, 59, 0
3, 2592, Note_on_c, 1, 67, 93
3, 2688, Note_off_c, 1, 67, 0
3, 2688, Note_on_c, 1, 66, 93
3, 2784, Note_off_c, 1, 66, 0
3, 2784, Note_on_c, 1, 65, 93
3, 2880, Note_off_c, 1, 65, 0
3, 2880, Note_on_c, 1, 64, 93
3, 2976, Note_off_c, 1, 64, 0
3, 2976, Note_on_c, 1, 63, 93
3, 3120, Note_off_c, 1, 63, 0
3, 3120, Note_on_c, 1, 62, 93
3, 3168, Note_off_c, 1, 62, 0
3, 3168, Note_on_c, 1, 61, 93
3, 3216, Note_off_c, 1, 61, 0
3, 3216, Note_on_c, 1, 60, 93
3, 3264, Note_off_c, 1, 60, 0
3, 3264, Note_on_c, 1, 59, 93
3, 3276, Note_off_c, 1, 59, 0
3, 3276, Note_on_c, 1, 57, 93
3, 3288, Note_off_c, 1, 57, 0
3, 3288, Note_on_c, 1, 55, 93
3, 3384, Note_off_c, 1, 55, 0
3, 3384, Note_on_c, 1, 59, 93
3, 3408, Note_off_c, 1, 59, 0
3, 3408, Note_on_c, 1, 60, 93
3, 3432, Note_off_c, 1, 60, 0
3, 3432, Note_on_c, 1, 65, 93
3, 3456, Note_off_c, 1, 65, 0
3, 3456, Note_on_c, 1, 64, 93
3, 3552, Note_off_c, 1, 64, 0
3, 3552, Note_on_c, 1, 63, 93
3, 3708, Note_off_c, 1, 63, 0
3, 3708, Note_on_c, 1, 62, 93
3, 3720, Note_off_c, 1, 62, 0
3, 3720, Note_on_c, 1, 60, 93
3, 3732, Note_off_c, 1, 60, 0
3, 3732, Note_on_c, 1, 62, 93
3, 3744, Note_off_c, 1, 62, 0
3, 3744, Note_on_c, 1, 63, 93
3, 3756, Note_off_c, 1, 63, 0
3, 3756, Note_on_c, 1, 62, 93
3, 3768, Note_off_c, 1, 62, 0
3, 3768, Note_on_c, 1, 63, 93
3, 3780, Note_off_c, 1, 63, 0
3, 3780, Note_on_c, 1, 62, 93
3, 3792, Note_off_c, 1, 62, 0
3, 3792, Note_on_c, 1, 63, 93
3, 3804, Note_off_c, 1, 63, 0
3, 3804, Note_on_c, 1, 62, 93
3, 3816, Note_off_c, 1, 62, 0
3, 3816, Note_on_c, 1, 63, 93
3, 3828, Note_off_c, 1, 63, 0
3, 3828, Note_on_c, 1, 62, 93
3, 3840, Note_off_c, 1, 62, 0
3, 3840, Note_on_c, 1, 60, 93
3, 3936, Note_off_c, 1, 60, 0
3, 3936, Note_on_c, 1, 63, 93
3, 4032, Note_off_c, 1, 63, 0
3, 4032, Note_on_c, 1, 67, 93
3, 4128, Note_off_c, 1, 67, 0
3, 4128, Note_on_c, 1, 68, 93
3, 4224, Note_off_c, 1, 68, 0
3, 4224, Note_on_c, 1, 59, 93
3, 4320, Note_off_c, 1, 59, 0
3, 4512, Note_on_c, 1, 67, 93
3, 4608, Note_off_c, 1, 67, 0
3, 4608, Note_on_c, 1, 66, 93
3, 4704, Note_off_c, 1, 66, 0
3, 4704, Note_on_c, 1, 65, 93
3, 4800, Note_off_c, 1, 65, 0
3, 4800, Note_on_c, 1, 64, 93
3, 4896, Note_off_c, 1, 64, 0
3, 4896, Note_on_c, 1, 63, 93
3, 5040, Note_off_c, 1, 63, 0
3, 5040, Note_on_c, 1, 62, 93
3, 5088, Note_off_c, 1, 62, 0
3, 5088, Note_on_c, 1, 61, 93
3, 5136, Note_off_c, 1, 61, 0
3, 5136, Note_on_c, 1, 60, 93
3, 5184, Note_off_c, 1, 60, 0
3, 5184, Note_on_c, 1, 59, 93
3, 5196, Note_off_c, 1, 59, 0
3, 5196, Note_on_c, 1, 57, 93
3, 5208, Note_off_c, 1, 57, 0
3, 5208, Note_on_c, 1, 55, 93
3, 5304, Note_off_c, 1, 55, 0
3, 5304, Note_on_c, 1, 59, 93
3, 5328, Note_off_c, 1, 59, 0
3, 5328, Note_on_c, 1, 60, 93
3, 5352, Note_off_c, 1, 60, 0
3, 5352, Note_on_c, 1, 65, 93
3, 5376, Note_off_c, 1, 65, 0
3, 5376, Note_on_c, 1, 64, 93
3, 5472, Note_off_c, 1, 64, 0
3, 5472, Note_on_c, 1, 63, 93
3, 5628, Note_off_c, 1, 63, 0
3, 5628, Note_on_c, 1, 62, 93
3, 5640, Note_off_c, 1, 62, 0
3, 5640, Note_on_c, 1, 60, 93
3, 5652, Note_off_c, 1, 60, 0
3, 5652, Note_on_c, 1, 62, 93
3, 5664, Note_off_c, 1, 62, 0
3, 5664, Note_on_c, 1, 63, 93
3, 5676, Note_off_c, 1, 63, 0
3, 5676, Note_on_c, 1, 62, 93
3, 5688, Note_off_c, 1, 62, 0
3, 5688, Note_on_c, 1, 63, 93
3, 5700, Note_off_c, 1, 63, 0
3, 5700, Note_on_c, 1, 62, 93
3, 5712, Note_off_c, 1, 62, 0
3, 5712, Note_on_c, 1, 63, 93
3, 5724, Note_off_c, 1, 63, 0
3, 5724, Note_on_c, 1, 62, 93
3, 5736, Note_off_c, 1, 62, 0
3, 5736, Note_on_c, 1, 63, 93
3, 5748, Note_off_c, 1, 63, 0
3, 5748, Note_on_c, 1, 62, 93
3, 5760, Note_off_c, 1, 62, 0
3, 5760, Note_on_c, 1, 60, 93
3, 6144, Note_off_c, 1, 60, 0
3, 6144, End_track
4, 0, Start_track
4, 0, Title_t, "Track4"
4, 0, Program_c, 2, 42
4, 0, Control_c, 2, 7, 90
4, 0, Control_c, 2, 10, 32
4, 456, Note_on_c, 2, 56, 93
4, 480, Note_off_c, 2, 56, 0
4, 480, Note_on_c, 2, 55, 93
4, 552, Note_off_c, 2, 55, 0
4, 552, Note_on_c, 2, 53, 93
4, 576, Note_off_c, 2, 53, 0
4, 576, Note_on_c, 2, 51, 93
4, 648, Note_off_c, 2, 51, 0
4, 648, Note_on_c, 2, 50, 93
4, 672, Note_off_c, 2, 50, 0
4, 672, Note_on_c, 2, 50, 93
4, 684, Note_off_c, 2, 50, 0
4, 684, Note_on_c, 2, 48, 93
4, 696, Note_off_c, 2, 48, 0
4, 696, Note_on_c, 2, 50, 93
4, 708, Note_off_c, 2, 50, 0
4, 708, Note_on_c, 2, 48, 93
4, 720, Note_off_c, 2, 48, 0
4, 720, Note_on_c, 2, 50, 93
4, 732, Note_off_c, 2, 50, 0
4, 732, Note_on_c, 2, 48, 93
4, 744, Note_off_c, 2, 48, 0
4, 744, Note_on_c, 2, 47, 93
4, 756, Note_off_c, 2, 47, 0
4, 756, Note_on_c, 2, 48, 93
4, 768, Note_off_c, 2, 48, 0
4, 768, Note_on_c, 2, 50, 93
4, 792, Note_off_c, 2, 50, 0
4, 792, Note_on_c, 2, 51, 93
4, 816, Note_off_c, 2, 51, 0
4, 816, Note_on_c, 2, 50, 93
4, 840, Note_off_c, 2, 50, 0
4, 840, Note_on_c, 2, 48, 93
4, 864, Note_off_c, 2, 48, 0
4, 864, Note_on_c, 2, 47, 93
4, 888, Note_off_c, 2, 47, 0
4, 888, Note_on_c, 2, 43, 93
4, 912, Note_off_c, 2, 43, 0
4, 912, Note_on_c, 2, 45, 93
4, 936, Note_off_c, 2, 45, 0
4, 936, Note_on_c, 2, 47, 93
4, 960, Note_off_c, 2, 47, 0
4, 960, Note_on_c, 2, 48, 93
4, 984, Note_off_c, 2, 48, 0
4, 984, Note_on_c, 2, 47, 93
4, 1008, Note_off_c, 2, 47, 0
4, 1008, Note_on_c, 2, 48, 93
4, 1032, Note_off_c, 2, 48, 0
4, 1032, Note_on_c, 2, 50, 93
4, 1056, Note_off_c, 2, 50, 0
4, 1056, Note_on_c, 2, 51, 93
4, 1080, Note_off_c, 2, 51, 0
4, 1080, Note_on_c, 2, 48, 93
4, 1104, Note_off_c, 2, 48, 0
4, 1104, Note_on_c, 2, 50, 93
4, 1128, Note_off_c, 2, 50, 0
4, 1128, Note_on_c, 2, 51, 93
4, 1152, Note_off_c, 2, 51, 0
4, 1152, Note_on_c, 2, 45, 93
4, 1248, Note_off_c, 2, 45, 0
4, 1296, Note_on_c, 2, 50, 93
4, 1344, Note_off_c, 2, 50, 0
4, 1344, Note_on_c, 2, 43, 93
4, 1392, Note_off_c, 2, 43, 0
4, 1392, Note_on_c, 2, 45, 93
4, 1416, Note_off_c, 2, 45, 0
4, 1416, Note_on_c, 2, 47, 93
4, 1440, Note_off_c, 2, 47, 0
4, 1440, Note_on_c, 2, 48, 93
4, 1584, Note_off_c, 2, 48, 0
4, 1584, Note_on_c, 2, 50, 93
4, 1608, Note_off_c, 2, 50, 0
4, 1608, Note_on_c, 2, 52, 93
4, 1632, Note_off_c, 2, 52, 0
4, 1632, Note_on_c, 2, 53, 93
4, 1680, Note_off_c, 2, 53, 0
4, 1680, Note_on_c, 2, 54, 93
4, 1728, Note_off_c, 2, 54, 0
4, 1728, Note_on_c, 2, 55, 93
4, 1872, Note_off_c, 2, 55, 0
4, 1872, Note_on_c, 2, 57, 93
4, 1896, Note_off_c, 2, 57, 0
4, 1896, Note_on_c, 2, 59, 93
4, 1920, Note_off_c, 2, 59, 0
4, 1920, Note_on_c, 2, 60, 93
4, 2160, Note_off_c, 2, 60, 0
4, 2160, Note_on_c, 2, 59, 93
4, 2208, Note_off_c, 2, 59, 0
4, 2256, Note_on_c, 2, 53, 93
4, 2376, Note_off_c, 2, 53, 0
4, 2376, Note_on_c, 2, 56, 93
4, 2400, Note_off_c, 2, 56, 0
4, 2400, Note_on_c, 2, 55, 93
4, 2472, Note_off_c, 2, 55, 0
4, 2472, Note_on_c, 2, 53, 93
4, 2496, Note_off_c, 2, 53, 0
4, 2496, Note_on_c, 2, 51, 93
4, 2568, Note_off_c, 2, 51, 0
4, 2568, Note_on_c, 2, 50, 93
4, 2592, Note_off_c, 2, 50, 0
4, 2592, Note_on_c, 2, 50, 93
4, 2604, Note_off_c, 2, 50, 0
4, 2604, Note_on_c, 2, 48, 93
4, 2616, Note_off_c, 2, 48, 0
4, 2616, Note_on_c, 2, 50, 93
4, 2628, Note_off_c, 2, 50, 0
4, 2628, Note_on_c, 2, 48, 93
4, 2640, Note_off_c, 2, 48, 0
4, 2640, Note_on_c, 2, 50, 93
4, 2652, Note_off_c, 2, 50, 0
4, 2652, Note_on_c, 2, 48, 93
4, 2664, Note_off_c, 2, 48, 0
4, 2664, Note_on_c, 2, 47, 93
4, 2676, Note_off_c, 2, 47, 0
4, 2676, Note_on_c, 2, 48, 93
4, 2688, Note_off_c, 2, 48, 0
4, 2688, Note_on_c, 2, 50, 93
4, 2712, Note_off_c, 2, 50, 0
4, 2712, Note_on_c, 2, 51, 93
4, 2736, Note_off_c, 2, 51, 0
4, 2736, Note_on_c, 2, 50, 93
4, 2760, Note_off_c, 2, 50, 0
4, 2760, Note_on_c, 2, 48, 93
4, 2784, Note_off_c, 2, 48, 0
4, 2784, Note_on_c, 2, 47, 93
4, 2808, Note_off_c, 2, 47, 0
4, 2808, Note_on_c, 2, 43, 93
4, 2832, Note_off_c, 2, 43, 0
4, 2832, Note_on_c, 2, 45, 93
4, 2856, Note_off_c, 2, 45, 0
4, 2856, Note_on_c, 2, 47, 93
4, 2880, Note_off_c, 2, 47, 0
4, 2880, Note_on_c, 2, 48, 93
4, 2904, Note_off_c, 2, 48, 0
4, 2904, Note_on_c, 2, 47, 93
4, 2928, Note_off_c, 2, 47, 0
4, 2928, Note_on_c, 2, 48, 93
4, 2952, Note_off_c, 2, 48, 0
4, 2952, Note_on_c, 2, 50, 93
4, 2976, Note_off_c, 2, 50, 0
4, 2976, Note_on_c, 2, 51, 93
4, 3000, Note_off_c, 2, 51, 0
4, 3000, Note_on_c, 2, 48, 93
4, 3024, Note_off_c, 2, 48, 0
4, 3024, Note_on_c, 2, 50, 93
4, 3048, Note_off_c, 2, 50, 0
4, 3048, Note_on_c, 2, 51, 93
4, 3072, Note_off_c, 2, 51, 0
4, 3072, Note_on_c, 2, 45, 93
4, 3168, Note_off_c, 2, 45, 0
4, 3216, Note_on_c, 2, 50, 93
4, 3264, Note_off_c, 2, 50, 0
4, 3264, Note_on_c, 2, 43, 93
4, 3312, Note_off_c, 2, 43, 0
4, 3312, Note_on_c, 2, 45, 93
4, 3336, Note_off_c, 2, 45, 0
4, 3336, Note_on_c, 2, 47, 93
4, 3360, Note_off_c, 2, 47, 0
4, 3360, Note_on_c, 2, 48, 93
4, 3504, Note_off_c, 2, 48, 0
4, 3504, Note_on_c, 2, 50, 93
4, 3528, Note_off_c, 2, 50, 0
4, 3528, Note_on_c, 2, 52, 93
4, 3552, Note_off_c, 2, 52, 0
4, 3552, Note_on_c, 2, 53, 93
4, 3600, Note_off_c, 2, 53, 0
4, 3600, Note_on_c, 2, 54, 93
4, 3648, Note_off_c, 2, 54, 0
4, 3648, Note_on_c, 2, 55, 93
4, 3792, Note_off_c, 2, 55, 0
4, 3792, Note_on_c, 2, 57, 93
4, 3816, Note_off_c, 2, 57, 0
4, 3816, Note_on_c, 2, 59, 93
4, 3840, Note_off_c, 2, 59, 0
4, 3840, Note_on_c, 2, 60, 93
4, 4080, Note_off_c, 2, 60, 0
4, 4080, Note_on_c, 2, 59, 93
4, 4128, Note_off_c, 2, 59, 0
4, 4176, Note_on_c, 2, 53, 93
4, 4296, Note_off_c, 2, 53, 0
4, 4296, Note_on_c, 2, 56, 93
4, 4320, Note_off_c, 2, 56, 0
4, 4320, Note_on_c, 2, 55, 93
4, 4392, Note_off_c, 2, 55, 0
4, 4392, Note_on_c, 2, 53, 93
4, 4416, Note_off_c, 2, 53, 0
4, 4416, Note_on_c, 2, 51, 93
4, 4488, Note_off_c, 2, 51, 0
4, 4488, Note_on_c, 2, 50, 93
4, 4512, Note_off_c, 2, 50, 0
4, 4512, Note_on_c, 2, 50, 93
4, 4524, Note_off_c, 2, 50, 0
4, 4524, Note_on_c, 2, 48, 93
4, 4536, Note_off_c, 2, 48, 0
4, 4536, Note_on_c, 2, 50, 93
4, 4548, Note_off_c, 2, 50, 0
4, 4548, Note_on_c, 2, 48, 93
4, 4560, Note_off_c, 2, 48, 0
4, 4560, Note_on_c, 2, 50, 93
4, 4572, Note_off_c, 2, 50, 0
4, 4572, Note_on_c, 2, 48, 93
4, 4584, Note_off_c, 2, 48, 0
4, 4584, Note_on_c, 2, 47, 93
4, 4596, Note_off_c, 2, 47, 0
4, 4596, Note_on_c, 2, 48, 93
4, 4608, Note_off_c, 2, 48, 0
4, 4608, Note_on_c, 2, 50, 93
4, 4632, Note_off_c, 2, 50, 0
4, 4632, Note_on_c, 2, 51, 93
4, 4656, Note_off_c, 2, 51, 0
4, 4656, Note_on_c, 2, 50, 93
4, 4680, Note_off_c, 2, 50, 0
4, 4680, Note_on_c, 2, 48, 93
4, 4704, Note_off_c, 2, 48, 0
4, 4704, Note_on_c, 2, 47, 93
4, 4728, Note_off_c, 2, 47, 0
4, 4728, Note_on_c, 2, 43, 93
4, 4752, Note_off_c, 2, 43, 0
4, 4752, Note_on_c, 2, 45, 93
4, 4776, Note_off_c, 2, 45, 0
4, 4776, Note_on_c, 2, 47, 93
4, 4800, Note_off_c, 2, 47, 0
4, 4800, Note_on_c, 2, 48, 93
4, 4824, Note_off_c, 2, 48, 0
4, 4824, Note_on_c, 2, 47, 93
4, 4848, Note_off_c, 2, 47, 0
4, 4848, Note_on_c, 2, 48, 93
4, 4872, Note_off_c, 2, 48, 0
4, 4872, Note_on_c, 2, 50, 93
4, 4896, Note_off_c, 2, 50, 0
4, 4896, Note_on_c, 2, 51, 93
4, 4920, Note_off_c, 2, 51, 0
4, 4920, Note_on_c, 2, 48, 93
4, 4944, Note_off_c, 2, 48, 0
4, 4944, Note_on_c, 2, 50, 93
4, 4968, Note_off_c, 2, 50, 0
4, 4968, Note_on_c, 2, 51, 93
4, 4992, Note_off_c, 2, 51, 0
4, 4992, Note_on_c, 2, 45, 93
4, 5088, Note_off_c, 2, 45, 0
4, 5136, Note_on_c, 2, 50, 93
4, 5184, Note_off_c, 2, 50, 0
4, 5184, Note_on_c, 2, 43, 93
4, 5232, Note_off_c, 2, 43, 0
4, 5232, Note_on_c, 2, 45, 93
4, 5256, Note_off_c, 2, 45, 0
4, 5256, Note_on_c, 2, 47, 93
4, 5280, Note_off_c, 2, 47, 0
4, 5280, Note_on_c, 2, 48, 93
4, 5424, Note_off_c, 2, 48, 0
4, 5424, Note_on_c, 2, 50, 93
4, 5448, Note_off_c, 2, 50, 0
4, 5448, Note_on_c, 2, 52, 93
4, 5472, Note_off_c, 2, 52, 0
4, 5472, Note_on_c, 2, 53, 93
4, 5520, Note_off_c, 2, 53, 0
4, 5520, Note_on_c, 2, 54, 93
4, 5568, Note_off_c, 2, 54, 0
4, 5568, Note_on_c, 2, 55, 93
4, 5712, Note_off_c, 2, 55, 0
4, 5712, Note_on_c, 2, 57, 93
4, 5736, Note_off_c, 2, 57, 0
4, 5736, Note_on_c, 2, 59, 93
4, 5760, Note_off_c, 2, 59, 0
4, 5760, Note_on_c, 2, 60, 93
4, 6144, Note_off_c, 2, 60, 0
4, 6144, End_track
0, 0, End_of_file
