0, 0, Header, 1, 4, 96
1, 0, Start_track
1, 0, Time_signature, 4, 2, 24, 8
1, 0, Title_t, "untitled"
1, 0, Title_t, "Track1"
1, 0, Tempo, 705882
1, 0, End_track
2, 0, Start_track
2, 0, Title_t, "Track2"
2, 0, Program_c, 0, 6
2, 0, Control_c, 0, 7, 100
2, 0, Control_c, 0, 10, 96
2, 0, Note_on_c, 0, 72, 93
2, 96, Note_off_c, 0, 72, 0
2, 96, Note_on_c, 0, 75, 93
2, 192, Note_off_c, 0, 75, 0
2, 192, Note_on_c, 0, 79, 93
2, 288, Note_off_c, 0, 79, 0
2, 288, Note_on_c, 0, 80, 93
2, 384, Note_off_c, 0, 80, 0
2, 384, Note_on_c, 0, 71, 93
2, 480, Note_off_c, 0, 71, 0
2, 528, Note_on_c, 0, 79, 93
2, 576, Note_off_c, 0, 79, 0
2, 576, Note_on_c, 0, 78, 93
2, 672, Note_off_c, 0, 78, 0
2, 672, Note_on_c, 0, 77, 93
2, 768, Note_off_c, 0, 77, 0
2, 768, Note_on_c, 0, 76, 93
2, 864, Note_off_c, 0, 76, 0
2, 864, Note_on_c, 0, 75, 93
2, 1008, Note_off_c, 0, 75, 0
2, 1008, Note_on_c, 0, 74, 93
2, 1056, Note_off_c, 0, 74, 0
2, 1056, Note_on_c, 0, 73, 93
2, 1104, Note_off_c, 0, 73, 0
2, 1104, Note_on_c, 0, 72, 93
2, 1152, Note_off_c, 0, 72, 0
2, 1152, Note_on_c, 0, 71, 93
2, 1200, Note_off_c, 0, 71, 0
2, 1200, Note_on_c, 0, 69, 93
2, 1224, Note_off_c, 0, 69, 0
2, 1224, Note_on_c, 0, 67, 93
2, 1248, Note_off_c, 0, 67, 0
2, 1248, Note_on_c, 0, 72, 93
2, 1296, Note_off_c, 0, 72, 0
2, 1296, Note_on_c, 0, 77, 93
2, 1344, Note_off_c, 0, 77, 0
2, 1344, Note_on_c, 0, 76, 93
2, 1392, Note_off_c, 0, 76, 0
2, 1392, Note_on_c, 0, 75, 93
2, 1440, Note_off_c, 0, 75, 0
2, 1440, Note_on_c, 0, 74, 93
2, 1536, Note_off_c, 0, 74, 0
2, 1536, Note_on_c, 0, 72, 93
2, 1632, Note_off_c, 0, 72, 0
2, 1632, Note_on_c, 0, 75, 93
2, 1728, Note_off_c, 0, 75, 0
2, 1728, Note_on_c, 0, 79, 93
2, 1824, Note_off_c, 0, 79, 0
2, 1824, Note_on_c, 0, 80, 93
2, 1920, Note_off_c, 0, 80, 0
2, 1920, Note_on_c, 0, 71, 93
2, 2016, Note_off_c, 0, 71, 0
2, 2064, Note_on_c, 0, 79, 93
2, 2112, Note_off_c, 0, 79, 0
2, 2112, Note_on_c, 0, 78, 93
2, 2208, Note_off_c, 0, 78, 0
2, 2208, Note_on_c, 0, 77, 93
2, 2304, Note_off_c, 0, 77, 0
2, 2304, Note_on_c, 0, 76, 93
2, 2400, Note_off_c, 0, 76, 0
2, 2400, Note_on_c, 0, 75, 93
2, 2544, Note_off_c, 0, 75, 0
2, 2544, Note_on_c, 0, 74, 93
2, 2592, Note_off_c, 0, 74, 0
2, 2592, Note_on_c, 0, 73, 93
2, 2640, Note_off_c, 0, 73, 0
2, 2640, Note_on_c, 0, 72, 93
2, 2688, Note_off_c, 0, 72, 0
2, 2688, Note_on_c, 0, 71, 93
2, 2736, Note_off_c, 0, 71, 0
2, 2736, Note_on_c, 0, 69, 93
2, 2760, Note_off_c, 0, 69, 0
2, 2760, Note_on_c, 0, 67, 93
2, 2784, Note_off_c, 0, 67, 0
2, 2784, Note_on_c, 0, 72, 93
2, 2832, Note_off_c, 0, 72, 0
2, 2832, Note_on_c, 0, 77, 93
2, 2880, Note_off_c, 0, 77, 0
2, 2880, Note_on_c, 0, 76, 93
2, 2928, Note_off_c, 0, 76, 0
2, 2928, Note_on_c, 0, 75, 93
2, 2976, Note_off_c, 0, 75, 0
2, 2976, Note_on_c, 0, 74, 93
2, 3072, Note_off_c, 0, 74, 0
2, 3072, Note_on_c, 0, 72, 93
2, 3168, Note_off_c, 0, 72, 0
2, 3168, Note_on_c, 0, 75, 93
2, 3264, Note_off_c, 0, 75, 0
2, 3264, Note_on_c, 0, 79, 93
2, 3360, Note_off_c, 0, 79, 0
2, 3360, Note_on_c, 0, 80, 93
2, 3456, Note_off_c, 0, 80, 0
2, 3456, Note_on_c, 0, 71, 93
2, 3552, Note_off_c, 0, 71, 0
2, 3600, Note_on_c, 0, 79, 93
2, 3648, Note_off_c, 0, 79, 0
2, 3648, Note_on_c, 0, 78, 93
2, 3744, Note_off_c, 0, 78, 0
2, 3744, Note_on_c, 0, 77, 93
2, 3840, Note_off_c, 0, 77, 0
2, 3840, Note_on_c, 0, 76, 93
2, 3936, Note_off_c, 0, 76, 0
2, 3936, Note_on_c, 0, 75, 93
2, 4080, Note_off_c, 0, 75, 0
2, 4080, Note_on_c, 0, 74, 93
2, 4128, Note_off_c, 0, 74, 0
2, 4128, Note_on_c, 0, 73, 93
2, 4176, Note_off_c, 0, 73, 0
2, 4176, Note_on_c, 0, 72, 93
2, 4224, Note_off_c, 0, 72, 0
2, 4224, Note_on_c, 0, 71, 93
2, 4272, Note_off_c, 0, 71, 0
2, 4272, Note_on_c, 0, 69, 93
2, 4296, Note_off_c, 0, 69, 0
2, 4296, Note_on_c, 0, 67, 93
2, 4320, Note_off_c, 0, 67, 0
2, 4320, Note_on_c, 0, 72, 93
2, 4368, Note_off_c, 0, 72, 0
2, 4368, Note_on_c, 0, 77, 93
2, 4416, Note_off_c, 0, 77, 0
2, 4416, Note_on_c, 0, 76, 93
2, 4464, Note_off_c, 0, 76, 0
2, 4464, Note_on_c, 0, 75, 93
2, 4512, Note_off_c, 0, 75, 0
2, 4512, Note_on_c, 0, 74, 93
2, 4608, Note_off_c, 0, 74, 0
2, 4608, Note_on_c, 0, 72, 93
2, 4992, Note_off_c, 0, 72, 0
2, 4992, End_track
3, 0, Start_track
3, 0, Title_t, "Track3"
3, 0, Program_c, 1, 6
3, 0, Control_c, 1, 7, 100
3, 0, Control_c, 1, 10, 64
3, 24, Note_on_c, 1, 72, 93
3, 48, Note_off_c, 1, 72, 0
3, 48, Note_on_c, 1, 70, 93
3, 72, Note_off_c, 1, 70, 0
3, 72, Note_on_c, 1, 68, 93
3, 96, Note_off_c, 1, 68, 0
3, 96, Note_on_c, 1, 67, 93
3, 120, Note_off_c, 1, 67, 0
3, 120, Note_on_c, 1, 65, 93
3, 144, Note_off_c, 1, 65, 0
3, 144, Note_on_c, 1, 63, 93
3, 168, Note_off_c, 1, 63, 0
3, 168, Note_on_c, 1, 62, 93
3, 192, Note_off_c, 1, 62, 0
3, 192, Note_on_c, 1, 60, 93
3, 216, Note_off_c, 1, 60, 0
3, 216, Note_on_c, 1, 59, 93
3, 240, Note_off_c, 1, 59, 0
3, 240, Note_on_c, 1, 60, 93
3, 264, Note_off_c, 1, 60, 0
3, 264, Note_on_c, 1, 62, 93
3, 288, Note_off_c, 1, 62, 0
3, 288, Note_on_c, 1, 63, 93
3, 336, Note_off_c, 1, 63, 0
3, 336, Note_on_c, 1, 60, 93
3, 384, Note_off_c, 1, 60, 0
3, 432, Note_on_c, 1, 67, 93
3, 480, Note_off_c, 1, 67, 0
3, 480, Note_on_c, 1, 72, 93
3, 504, Note_off_c, 1, 72, 0
3, 504, Note_on_c, 1, 74, 93
3, 528, Note_off_c, 1, 74, 0
3, 528, Note_on_c, 1, 72, 93
3, 552, Note_off_c, 1, 72, 0
3, 552, Note_on_c, 1, 70, 93
3, 576, Note_off_c, 1, 70, 0
3, 576, Note_on_c, 1, 69, 93
3, 600, Note_off_c, 1, 69, 0
3, 600, Note_on_c, 1, 57, 93
3, 624, Note_off_c, 1, 57, 0
3, 624, Note_on_c, 1, 55, 93
3, 648, Note_off_c, 1, 55, 0
3, 648, Note_on_c, 1, 57, 93
3, 672, Note_off_c, 1, 57, 0
3, 672, Note_on_c, 1, 59, 93
3, 720, Note_off_c, 1, 59, 0
3, 720, Note_on_c, 1, 67, 93
3, 792, Note_off_c, 1, 67, 0
3, 792, Note_on_c, 1, 55, 93
3, 816, Note_off_c, 1, 55, 0
3, 816, Note_on_c, 1, 57, 93
3, 840, Note_off_c, 1, 57, 0
3, 840, Note_on_c, 1, 59, 93
3, 864, Note_off_c, 1, 59, 0
3, 864, Note_on_c, 1, 60, 93
3, 888, Note_off_c, 1, 60, 0
3, 888, Note_on_c, 1, 62, 93
3, 912, Note_off_c, 1, 62, 0
3, 912, Note_on_c, 1, 63, 93
3, 936, Note_off_c, 1, 63, 0
3, 936, Note_on_c, 1, 62, 93
3, 960, Note_off_c, 1, 62, 0
3, 960, Note_on_c, 1, 60, 93
3, 1008, Note_off_c, 1, 60, 0
3, 1008, Note_on_c, 1, 62, 93
3, 1056, Note_off_c, 1, 62, 0
3, 1056, Note_on_c, 1, 63, 93
3, 1104, Note_off_c, 1, 63, 0
3, 1104, Note_on_c, 1, 56, 93
3, 1152, Note_off_c, 1, 56, 0
3, 1152, Note_on_c, 1, 55, 93
3, 1176, Note_off_c, 1, 55, 0
3, 1176, Note_on_c, 1, 62, 93
3, 1200, Note_off_c, 1, 62, 0
3, 1200, Note_on_c, 1, 60, 93
3, 1224, Note_off_c, 1, 60, 0
3, 1224, Note_on_c, 1, 59, 93
3, 1248, Note_off_c, 1, 59, 0
3, 1272, Note_on_c, 1, 65, 93
3, 1296, Note_off_c, 1, 65, 0
3, 1296, Note_on_c, 1, 64, 93
3, 1320, Note_off_c, 1, 64, 0
3, 1320, Note_on_c, 1, 62, 93
3, 1344, Note_off_c, 1, 62, 0
3, 1344, Note_on_c, 1, 60, 93
3, 1488, Note_off_c, 1, 60, 0
3, 1488, Note_on_c, 1, 59, 93
3, 1536, Note_off_c, 1, 59, 0
3, 1536, Note_on_c, 1, 63, 93
3, 1560, Note_off_c, 1, 63, 0
3, 1560, Note_on_c, 1, 72, 93
3, 1584, Note_off_c, 1, 72, 0
3, 1584, Note_on_c, 1, 70, 93
3, 1608, Note_off_c, 1, 70, 0
3, 1608, Note_on_c, 1, 68, 93
3, 1632, Note_off_c, 1, 68, 0
3, 1632, Note_on_c, 1, 67, 93
3, 1656, Note_off_c, 1, 67, 0
3, 1656, Note_on_c, 1, 65, 93
3, 1680, Note_off_c, 1, 65, 0
3, 1680, Note_on_c, 1, 63, 93
3, 1704, Note_off_c, 1, 63, 0
3, 1704, Note_on_c, 1, 62, 93
3, 1728, Note_off_c, 1, 62, 0
3, 1728, Note_on_c, 1, 60, 93
3, 1752, Note_off_c, 1, 60, 0
3, 1752, Note_on_c, 1, 59, 93
3, 1776, Note_off_c, 1, 59, 0
3, 1776, Note_on_c, 1, 60, 93
3, 1800, Note_off_c, 1, 60, 0
3, 1800, Note_on_c, 1, 62, 93
3, 1824, Note_off_c, 1, 62, 0
3, 1824, Note_on_c, 1, 63, 93
3, 1872, Note_off_c, 1, 63, 0
3, 1872, Note_on_c, 1, 60, 93
3, 1920, Note_off_c, 1, 60, 0
3, 1968, Note_on_c, 1, 67, 93
3, 2016, Note_off_c, 1, 67, 0
3, 2016, Note_on_c, 1, 72, 93
3, 2040, Note_off_c, 1, 72, 0
3, 2040, Note_on_c, 1, 74, 93
3, 2064, Note_off_c, 1, 74, 0
3, 2064, Note_on_c, 1, 72, 93
3, 2088, Note_off_c, 1, 72, 0
3, 2088, Note_on_c, 1, 70, 93
3, 2112, Note_off_c, 1, 70, 0
3, 2112, Note_on_c, 1, 69, 93
3, 2136, Note_off_c, 1, 69, 0
3, 2136, Note_on_c, 1, 57, 93
3, 2160, Note_off_c, 1, 57, 0
3, 2160, Note_on_c, 1, 55, 93
3, 2184, Note_off_c, 1, 55, 0
3, 2184, Note_on_c, 1, 57, 93
3, 2208, Note_off_c, 1, 57, 0
3, 2208, Note_on_c, 1, 59, 93
3, 2256, Note_off_c, 1, 59, 0
3, 2256, Note_on_c, 1, 67, 93
3, 2328, Note_off_c, 1, 67, 0
3, 2328, Note_on_c, 1, 55, 93
3, 2352, Note_off_c, 1, 55, 0
3, 2352, Note_on_c, 1, 57, 93
3, 2376, Note_off_c, 1, 57, 0
3, 2376, Note_on_c, 1, 59, 93
3, 2400, Note_off_c, 1, 59, 0
3, 2400, Note_on_c, 1, 60, 93
3, 2424, Note_off_c, 1, 60, 0
3, 2424, Note_on_c, 1, 62, 93
3, 2448, Note_off_c, 1, 62, 0
3, 2448, Note_on_c, 1, 63, 93
3, 2472, Note_off_c, 1, 63, 0
3, 2472, Note_on_c, 1, 62, 93
3, 2496, Note_off_c, 1, 62, 0
3, 2496, Note_on_c, 1, 60, 93
3, 2544, Note_off_c, 1, 60, 0
3, 2544, Note_on_c, 1, 62, 93
3, 2592, Note_off_c, 1, 62, 0
3, 2592, Note_on_c, 1, 63, 93
3, 2640, Note_off_c, 1, 63, 0
3, 2640, Note_on_c, 1, 56, 93
3, 2688, Note_off_c, 1, 56, 0
3, 2688, Note_on_c, 1, 55, 93
3, 2712, Note_off_c, 1, 55, 0
3, 2712, Note_on_c, 1, 62, 93
3, 2736, Note_off_c, 1, 62, 0
3, 2736, Note_on_c, 1, 60, 93
3, 2760, Note_off_c, 1, 60, 0
3, 2760, Note_on_c, 1, 59, 93
3, 2784, Note_off_c, 1, 59, 0
3, 2808, Note_on_c, 1, 65, 93
3, 2832, Note_off_c, 1, 65, 0
3, 2832, Note_on_c, 1, 64, 93
3, 2856, Note_off_c, 1, 64, 0
3, 2856, Note_on_c, 1, 62, 93
3, 2880, Note_off_c, 1, 62, 0
3, 2880, Note_on_c, 1, 60, 93
3, 3024, Note_off_c, 1, 60, 0
3, 3024, Note_on_c, 1, 59, 93
3, 3072, Note_off_c, 1, 59, 0
3, 3072, Note_on_c, 1, 63, 93
3, 3096, Note_off_c, 1, 63, 0
3, 3096, Note_on_c, 1, 72, 93
3, 3120, Note_off_c, 1, 72, 0
3, 3120, Note_on_c, 1, 70, 93
3, 3144, Note_off_c, 1, 70, 0
3, 3144, Note_on_c, 1, 68, 93
3, 3168, Note_off_c, 1, 68, 0
3, 3168, Note_on_c, 1, 67, 93
3, 3192, Note_off_c, 1, 67, 0
3, 3192, Note_on_c, 1, 65, 93
3, 3216, Note_off_c, 1, 65, 0
3, 3216, Note_on_c, 1, 63, 93
3, 3240, Note_off_c, 1, 63, 0
3, 3240, Note_on_c, 1, 62, 93
3, 3264, Note_off_c, 1, 62, 0
3, 3264, Note_on_c, 1, 60, 93
3, 3288, Note_off_c, 1, 60, 0
3, 3288, Note_on_c, 1, 59, 93
3, 3312, Note_off_c, 1, 59, 0
3, 3312, Note_on_c, 1, 60, 93
3, 3336, Note_off_c, 1, 60, 0
3, 3336, Note_on_c, 1, 62, 93
3, 3360, Note_off_c, 1, 62, 0
3, 3360, Note_on_c, 1, 63, 93
3, 3408, Note_off_c, 1, 63, 0
3, 3408, Note_on_c, 1, 60, 93
3, 3456, Note_off_c, 1, 60, 0
3, 3504, Note_on_c, 1, 67, 93
3, 3552, Note_off_c, 1, 67, 0
3, 3552, Note_on_c, 1, 72, 93
3, 3576, Note_off_c, 1, 72, 0
3, 3576, Note_on_c, 1, 74, 93
3, 3600, Note_off_c, 1, 74, 0
3, 3600, Note_on_c, 1, 72, 93
3, 3624, Note_off_c, 1, 72, 0
3, 3624, Note_on_c, 1, 70, 93
3, 3648, Note_off_c, 1, 70, 0
3, 3648, Note_on_c, 1, 69, 93
3, 3672, Note_off_c, 1, 69, 0
3, 3672, Note_on_c, 1, 57, 93
3, 3696, Note_off_c, 1, 57, 0
3, 3696, Note_on_c, 1, 55, 93
3, 3720, Note_off_c, 1, 55, 0
3, 3720, Note_on_c, 1, 57, 93
3, 3744, Note_off_c, 1, 57, 0
3, 3744, Note_on_c, 1, 59, 93
3, 3792, Note_off_c, 1, 59, 0
3, 3792, Note_on_c, 1, 67, 93
3, 3864, Note_off_c, 1, 67, 0
3, 3864, Note_on_c, 1, 55, 93
3, 3888, Note_off_c, 1, 55, 0
3, 3888, Note_on_c, 1, 57, 93
3, 3912, Note_off_c, 1, 57, 0
3, 3912, Note_on_c, 1, 59, 93
3, 3936, Note_off_c, 1, 59, 0
3, 3936, Note_on_c, 1, 60, 93
3, 3960, Note_off_c, 1, 60, 0
3, 3960, Note_on_c, 1, 62, 93
3, 3984, Note_off_c, 1, 62, 0
3, 3984, Note_on_c, 1, 63, 93
3, 4008, Note_off_c, 1, 63, 0
3, 4008, Note_on_c, 1, 62, 93
3, 4032, Note_off_c, 1, 62, 0
3, 4032, Note_on_c, 1, 60, 93
3, 4080, Note_off_c, 1, 60, 0
3, 4080, Note_on_c, 1, 62, 93
3, 4128, Note_off_c, 1, 62, 0
3, 4128, Note_on_c, 1, 63, 93
3, 4176, Note_off_c, 1, 63, 0
3, 4176, Note_on_c, 1, 56, 93
3, 4224, Note_off_c, 1, 56, 0
3, 4224, Note_on_c, 1, 55, 93
3, 4248, Note_off_c, 1, 55, 0
3, 4248, Note_on_c, 1, 62, 93
3, 4272, Note_off_c, 1, 62, 0
3, 4272, Note_on_c, 1, 60, 93
3, 4296, Note_off_c, 1, 60, 0
3, 4296, Note_on_c, 1, 59, 93
3, 4320, Note_off_c, 1, 59, 0
3, 4344, Note_on_c, 1, 65, 93
3, 4368, Note_off_c, 1, 65, 0
3, 4368, Note_on_c, 1, 64, 93
3, 4392, Note_off_c, 1, 64, 0
3, 4392, Note_on_c, 1, 62, 93
3, 4416, Note_off_c, 1, 62, 0
3, 4416, Note_on_c, 1, 60, 93
3, 4560, Note_off_c, 1, 60, 0
3, 4560, Note_on_c, 1, 59, 93
3, 4608, Note_off_c, 1, 59, 0
3, 4608, Note_on_c, 1, 63, 93
3, 4992, Note_off_c, 1, 63, 0
3, 4992, End_track
4, 0, Start_track
4, 0, Title_t, "Track4"
4, 0, Program_c, 2, 6
4, 0, Control_c, 2, 7, 100
4, 0, Control_c, 2, 10, 32
4, 216, Note_on_c, 2, 55, 93
4, 240, Note_off_c, 2, 55, 0
4, 240, Note_on_c, 2, 57, 93
4, 264, Note_off_c, 2, 57, 0
4, 264, Note_on_c, 2, 59, 93
4, 288, Note_off_c, 2, 59, 0
4, 288, Note_on_c, 2, 60, 93
4, 312, Note_off_c, 2, 60, 0
4, 312, Note_on_c, 2, 62, 93
4, 336, Note_off_c, 2, 62, 0
4, 336, Note_on_c, 2, 63, 93
4, 360, Note_off_c, 2, 63, 0
4, 360, Note_on_c, 2, 65, 93
4, 384, Note_off_c, 2, 65, 0
4, 384, Note_on_c, 2, 67, 93
4, 408, Note_off_c, 2, 67, 0
4, 408, Note_on_c, 2, 68, 93
4, 432, Note_off_c, 2, 68, 0
4, 432, Note_on_c, 2, 67, 93
4, 456, Note_off_c, 2, 67, 0
4, 456, Note_on_c, 2, 65, 93
4, 480, Note_off_c, 2, 65, 0
4, 480, Note_on_c, 2, 63, 93
4, 528, Note_off_c, 2, 63, 0
4, 528, Note_on_c, 2, 67, 93
4, 576, Note_off_c, 2, 67, 0
4, 624, Note_on_c, 2, 60, 93
4, 672, Note_off_c, 2, 60, 0
4, 672, Note_on_c, 2, 55, 93
4, 696, Note_off_c, 2, 55, 0
4, 696, Note_on_c, 2, 53, 93
4, 720, Note_off_c, 2, 53, 0
4, 720, Note_on_c, 2, 55, 93
4, 744, Note_off_c, 2, 55, 0
4, 744, Note_on_c, 2, 56, 93
4, 768, Note_off_c, 2, 56, 0
4, 768, Note_on_c, 2, 58, 93
4, 792, Note_off_c, 2, 58, 0
4, 792, Note_on_c, 2, 70, 93
4, 816, Note_off_c, 2, 70, 0
4, 816, Note_on_c, 2, 72, 93
4, 840, Note_off_c, 2, 72, 0
4, 840, Note_on_c, 2, 70, 93
4, 864, Note_off_c, 2, 70, 0
4, 864, Note_on_c, 2, 68, 93
4, 912, Note_off_c, 2, 68, 0
4, 912, Note_on_c, 2, 60, 93
4, 984, Note_off_c, 2, 60, 0
4, 984, Note_on_c, 2, 72, 93
4, 1008, Note_off_c, 2, 72, 0
4, 1008, Note_on_c, 2, 70, 93
4, 1032, Note_off_c, 2, 70, 0
4, 1032, Note_on_c, 2, 68, 93
4, 1056, Note_off_c, 2, 68, 0
4, 1056, Note_on_c, 2, 67, 93
4, 1080, Note_off_c, 2, 67, 0
4, 1080, Note_on_c, 2, 65, 93
4, 1104, Note_off_c, 2, 65, 0
4, 1104, Note_on_c, 2, 63, 93
4, 1128, Note_off_c, 2, 63, 0
4, 1128, Note_on_c, 2, 65, 93
4, 1152, Note_off_c, 2, 65, 0
4, 1152, Note_on_c, 2, 67, 93
4, 1200, Note_off_c, 2, 67, 0
4, 1200, Note_on_c, 2, 65, 93
4, 1248, Note_off_c, 2, 65, 0
4, 1248, Note_on_c, 2, 63, 93
4, 1296, Note_off_c, 2, 63, 0
4, 1296, Note_on_c, 2, 70, 93
4, 1344, Note_off_c, 2, 70, 0
4, 1344, Note_on_c, 2, 72, 93
4, 1368, Note_off_c, 2, 72, 0
4, 1368, Note_on_c, 2, 65, 93
4, 1392, Note_off_c, 2, 65, 0
4, 1392, Note_on_c, 2, 67, 93
4, 1416, Note_off_c, 2, 67, 0
4, 1416, Note_on_c, 2, 68, 93
4, 1440, Note_off_c, 2, 68, 0
4, 1464, Note_on_c, 2, 62, 93
4, 1488, Note_off_c, 2, 62, 0
4, 1488, Note_on_c, 2, 63, 93
4, 1512, Note_off_c, 2, 63, 0
4, 1512, Note_on_c, 2, 65, 93
4, 1536, Note_off_c, 2, 65, 0
4, 1536, Note_on_c, 2, 67, 93
4, 1680, Note_off_c, 2, 67, 0
4, 1680, Note_on_c, 2, 68, 93
4, 1728, Note_off_c, 2, 68, 0
4, 1728, Note_on_c, 2, 63, 93
4, 1752, Note_off_c, 2, 63, 0
4, 1752, Note_on_c, 2, 55, 93
4, 1776, Note_off_c, 2, 55, 0
4, 1776, Note_on_c, 2, 57, 93
4, 1800, Note_off_c, 2, 57, 0
4, 1800, Note_on_c, 2, 59, 93
4, 1824, Note_off_c, 2, 59, 0
4, 1824, Note_on_c, 2, 60, 93
4, 1848, Note_off_c, 2, 60, 0
4, 1848, Note_on_c, 2, 62, 93
4, 1872, Note_off_c, 2, 62, 0
4, 1872, Note_on_c, 2, 63, 93
4, 1896, Note_off_c, 2, 63, 0
4, 1896, Note_on_c, 2, 65, 93
4, 1920, Note_off_c, 2, 65, 0
4, 1920, Note_on_c, 2, 67, 93
4, 1944, Note_off_c, 2, 67, 0
4, 1944, Note_on_c, 2, 68, 93
4, 1968, Note_off_c, 2, 68, 0
4, 1968, Note_on_c, 2, 67, 93
4, 1992, Note_off_c, 2, 67, 0
4, 1992, Note_on_c, 2, 65, 93
4, 2016, Note_off_c, 2, 65, 0
4, 2016, Note_on_c, 2, 63, 93
4, 2064, Note_off_c, 2, 63, 0
4, 2064, Note_on_c, 2, 67, 93
4, 2112, Note_off_c, 2, 67, 0
4, 2160, Note_on_c, 2, 60, 93
4, 2208, Note_off_c, 2, 60, 0
4, 2208, Note_on_c, 2, 55, 93
4, 2232, Note_off_c, 2, 55, 0
4, 2232, Note_on_c, 2, 53, 93
4, 2256, Note_off_c, 2, 53, 0
4, 2256, Note_on_c, 2, 55, 93
4, 2280, Note_off_c, 2, 55, 0
4, 2280, Note_on_c, 2, 56, 93
4, 2304, Note_off_c, 2, 56, 0
4, 2304, Note_on_c, 2, 58, 93
4, 2328, Note_off_c, 2, 58, 0
4, 2328, Note_on_c, 2, 70, 93
4, 2352, Note_off_c, 2, 70, 0
4, 2352, Note_on_c, 2, 72, 93
4, 2376, Note_off_c, 2, 72, 0
4, 2376, Note_on_c, 2, 70, 93
4, 2400, Note_off_c, 2, 70, 0
4, 2400, Note_on_c, 2, 68, 93
4, 2448, Note_off_c, 2, 68, 0
4, 2448, Note_on_c, 2, 60, 93
4, 2520, Note_off_c, 2, 60, 0
4, 2520, Note_on_c, 2, 72, 93
4, 2544, Note_off_c, 2, 72, 0
4, 2544, Note_on_c, 2, 70, 93
4, 2568, Note_off_c, 2, 70, 0
4, 2568, Note_on_c, 2, 68, 93
4, 2592, Note_off_c, 2, 68, 0
4, 2592, Note_on_c, 2, 67, 93
4, 2616, Note_off_c, 2, 67, 0
4, 2616, Note_on_c, 2, 65, 93
4, 2640, Note_off_c, 2, 65, 0
4, 2640, Note_on_c, 2, 63, 93
4, 2664, Note_off_c, 2, 63, 0
4, 2664, Note_on_c, 2, 65, 93
4, 2688, Note_off_c, 2, 65, 0
4, 2688, Note_on_c, 2, 67, 93
4, 2736, Note_off_c, 2, 67, 0
4, 2736, Note_on_c, 2, 65, 93
4, 2784, Note_off_c, 2, 65, 0
4, 2784, Note_on_c, 2, 63, 93
4, 2832, Note_off_c, 2, 63, 0
4, 2832, Note_on_c, 2, 70, 93
4, 2880, Note_off_c, 2, 70, 0
4, 2880, Note_on_c, 2, 72, 93
4, 2904, Note_off_c, 2, 72, 0
4, 2904, Note_on_c, 2, 65, 93
4, 2928, Note_off_c, 2, 65, 0
4, 2928, Note_on_c, 2, 67, 93
4, 2952, Note_off_c, 2, 67, 0
4, 2952, Note_on_c, 2, 68, 93
4, 2976, Note_off_c, 2, 68, 0
4, 3000, Note_on_c, 2, 62, 93
4, 3024, Note_off_c, 2, 62, 0
4, 3024, Note_on_c, 2, 63, 93
4, 3048, Note_off_c, 2, 63, 0
4, 3048, Note_on_c, 2, 65, 93
4, 3072, Note_off_c, 2, 65, 0
4, 3072, Note_on_c, 2, 67, 93
4, 3216, Note_off_c, 2, 67, 0
4, 3216, Note_on_c, 2, 68, 93
4, 3264, Note_off_c, 2, 68, 0
4, 3264, Note_on_c, 2, 63, 93
4, 3288, Note_off_c, 2, 63, 0
4, 3288, Note_on_c, 2, 55, 93
4, 3312, Note_off_c, 2, 55, 0
4, 3312, Note_on_c, 2, 57, 93
4, 3336, Note_off_c, 2, 57, 0
4, 3336, Note_on_c, 2, 59, 93
4, 3360, Note_off_c, 2, 59, 0
4, 3360, Note_on_c, 2, 60, 93
4, 3384, Note_off_c, 2, 60, 0
4, 3384, Note_on_c, 2, 62, 93
4, 3408, Note_off_c, 2, 62, 0
4, 3408, Note_on_c, 2, 63, 93
4, 3432, Note_off_c, 2, 63, 0
4, 3432, Note_on_c, 2, 65, 93
4, 3456, Note_off_c, 2, 65, 0
4, 3456, Note_on_c, 2, 67, 93
4, 3480, Note_off_c, 2, 67, 0
4, 3480, Note_on_c, 2, 68, 93
4, 3504, Note_off_c, 2, 68, 0
4, 3504, Note_on_c, 2, 67, 93
4, 3528, Note_off_c, 2, 67, 0
4, 3528, Note_on_c, 2, 65, 93
4, 3552, Note_off_c, 2, 65, 0
4, 3552, Note_on_c, 2, 63, 93
4, 3600, Note_off_c, 2, 63, 0
4, 3600, Note_on_c, 2, 67, 93
4, 3648, Note_off_c, 2, 67, 0
4, 3696, Note_on_c, 2, 60, 93
4, 3744, Note_off_c, 2, 60, 0
4, 3744, Note_on_c, 2, 55, 93
4, 3768, Note_off_c, 2, 55, 0
4, 3768, Note_on_c, 2, 53, 93
4, 3792, Note_off_c, 2, 53, 0
4, 3792, Note_on_c, 2, 55, 93
4, 3816, Note_off_c, 2, 55, 0
4, 3816, Note_on_c, 2, 56, 93
4, 3840, Note_off_c, 2, 56, 0
4, 3840, Note_on_c, 2, 58, 93
4, 3864, Note_off_c, 2, 58, 0
4, 3864, Note_on_c, 2, 70, 93
4, 3888, Note_off_c, 2, 70, 0
4, 3888, Note_on_c, 2, 72, 93
4, 3912, Note_off_c, 2, 72, 0
4, 3912, Note_on_c, 2, 70, 93
4, 3936, Note_off_c, 2, 70, 0
4, 3936, Note_on_c, 2, 68, 93
4, 3984, Note_off_c, 2, 68, 0
4, 3984, Note_on_c, 2, 60, 93
4, 4056, Note_off_c, 2, 60, 0
4, 4056, Note_on_c, 2, 72, 93
4, 4080, Note_off_c, 2, 72, 0
4, 4080, Note_on_c, 2, 70, 93
4, 4104, Note_off_c, 2, 70, 0
4, 4104, Note_on_c, 2, 68, 93
4, 4128, Note_off_c, 2, 68, 0
4, 4128, Note_on_c, 2, 67, 93
4, 4152, Note_off_c, 2, 67, 0
4, 4152, Note_on_c, 2, 65, 93
4, 4176, Note_off_c, 2, 65, 0
4, 4176, Note_on_c, 2, 63, 93
4, 4200, Note_off_c, 2, 63, 0
4, 4200, Note_on_c, 2, 65, 93
4, 4224, Note_off_c, 2, 65, 0
4, 4224, Note_on_c, 2, 67, 93
4, 4272, Note_off_c, 2, 67, 0
4, 4272, Note_on_c, 2, 65, 93
4, 4320, Note_off_c, 2, 65, 0
4, 4320, Note_on_c, 2, 63, 93
4, 4368, Note_off_c, 2, 63, 0
4, 4368, Note_on_c, 2, 70, 93
4, 4416, Note_off_c, 2, 70, 0
4, 4416, Note_on_c, 2, 72, 93
4, 4440, Note_off_c, 2, 72, 0
4, 4440, Note_on_c, 2, 65, 93
4, 4464, Note_off_c, 2, 65, 0
4, 4464, Note_on_c, 2, 67, 93
4, 4488, Note_off_c, 2, 67, 0
4, 4488, Note_on_c, 2, 68, 93
4, 4512, Note_off_c, 2, 68, 0
4, 4536, Note_on_c, 2, 62, 93
4, 4560, Note_off_c, 2, 62, 0
4, 4560, Note_on_c, 2, 63, 93
4, 4584, Note_off_c, 2, 63, 0
4, 4584, Note_on_c, 2, 65, 93
4, 4608, Note_off_c, 2, 65, 0
4, 4608, Note_on_c, 2, 67, 93
4, 4992, Note_off_c, 2, 67, 0
4, 4992, End_track
0, 0, End_of_file
