0, 0, Header, 1, 3, 96
1, 0, Start_track
1, 0, Time_signature, 4, 2, 24, 8
1, 0, Title_t, "untitled"
1, 0, Title_t, "Track1"
1, 0, Tempo, 363636
1, 13440, Tempo, 363636
1, 13446, Tempo, 365853
1, 13446, Tempo, 368098
1, 13452, Tempo, 368098
1, 13452, Tempo, 368098
1, 13458, Tempo, 370370
1, 13458, Tempo, 370370
1, 13464, Tempo, 372670
1, 13464, Tempo, 375000
1, 13470, Tempo, 375000
1, 13470, Tempo, 375000
1, 13476, Tempo, 377358
1, 13476, Tempo, 377358
1, 13482, Tempo, 379746
1, 13488, Tempo, 382165
1, 13488, Tempo, 382165
1, 13494, Tempo, 384615
1, 13494, Tempo, 384615
1, 13500, Tempo, 384615
1, 13500, Tempo, 387096
1, 13506, Tempo, 389610
1, 13506, Tempo, 389610
1, 13512, Tempo, 389610
1, 13512, Tempo, 392156
1, 13518, Tempo, 394736
1, 13518, Tempo, 394736
1, 13524, Tempo, 397350
1, 13524, Tempo, 397350
1, 13530, Tempo, 400000
1, 13536, Tempo, 400000
1, 13536, Tempo, 400000
1, 13542, Tempo, 402684
1, 13542, Tempo, 405405
1, 13548, Tempo, 405405
1, 13548, Tempo, 405405
1, 13554, Tempo, 408163
1, 13554, Tempo, 408163
1, 13560, Tempo, 410958
1, 13560, Tempo, 413793
1, 13566, Tempo, 413793
1, 13566, Tempo, 413793
1, 13572, Tempo, 416666
1, 13572, Tempo, 419580
1, 13578, Tempo, 419580
1, 13584, Tempo, 419580
1, 13584, Tempo, 422535
1, 13590, Tempo, 422535
1, 13590, Tempo, 425531
1, 13596, Tempo, 428571
1, 13596, Tempo, 428571
1, 13602, Tempo, 428571
1, 13602, Tempo, 431654
1, 13608, Tempo, 434782
1, 13608, Tempo, 434782
1, 13614, Tempo, 437956
1, 13614, Tempo, 437956
1, 13620, Tempo, 437956
1, 13620, Tempo, 441176
1, 13626, Tempo, 441176
1, 13632, Tempo, 444444
1, 13632, Tempo, 444444
1, 13638, Tempo, 447761
1, 13638, Tempo, 447761
1, 13644, Tempo, 451127
1, 13644, Tempo, 454545
1, 13650, Tempo, 454545
1, 13650, Tempo, 454545
1, 13656, Tempo, 458015
1, 13656, Tempo, 458015
1, 13662, Tempo, 461538
1, 13662, Tempo, 461538
1, 13668, Tempo, 465116
1, 13668, Tempo, 465116
1, 13674, Tempo, 468750
1, 13680, Tempo, 468750
1, 13680, Tempo, 472440
1, 13686, Tempo, 476190
1, 13686, Tempo, 476190
1, 13692, Tempo, 476190
1, 13692, Tempo, 480000
1, 13698, Tempo, 480000
1, 13698, Tempo, 483870
1, 13704, Tempo, 487804
1, 13704, Tempo, 487804
1, 13710, Tempo, 491803
1, 13710, Tempo, 491803
1, 13716, Tempo, 491803
1, 13716, Tempo, 495867
1, 13722, Tempo, 500000
1, 13728, Tempo, 500000
1, 13728, End_track
2, 0, Start_track
2, 0, Title_t, "Track2"
2, 0, Program_c, 0, 6
2, 0, Control_c, 0, 7, 100
2, 0, Control_c, 0, 10, 96
2, 0, Note_on_c, 0, 60, 93
2, 192, Note_off_c, 0, 60, 0
2, 192, Note_on_c, 0, 63, 93
2, 384, Note_off_c, 0, 63, 0
2, 384, Note_on_c, 0, 67, 93
2, 576, Note_off_c, 0, 67, 0
2, 576, Note_on_c, 0, 68, 93
2, 768, Note_off_c, 0, 68, 0
2, 768, Note_on_c, 0, 59, 93
2, 960, Note_off_c, 0, 59, 0
2, 1056, Note_on_c, 0, 67, 93
2, 1248, Note_off_c, 0, 67, 0
2, 1248, Note_on_c, 0, 66, 93
2, 1440, Note_off_c, 0, 66, 0
2, 1440, Note_on_c, 0, 65, 93
2, 1632, Note_off_c, 0, 65, 0
2, 1632, Note_on_c, 0, 64, 93
2, 1824, Note_off_c, 0, 64, 0
2, 1824, Note_on_c, 0, 63, 93
2, 2016, Note_off_c, 0, 63, 0
2, 2016, Note_on_c, 0, 62, 93
2, 2112, Note_off_c, 0, 62, 0
2, 2112, Note_on_c, 0, 61, 93
2, 2208, Note_off_c, 0, 61, 0
2, 2208, Note_on_c, 0, 60, 93
2, 2304, Note_off_c, 0, 60, 0
2, 2304, Note_on_c, 0, 59, 93
2, 2400, Note_off_c, 0, 59, 0
2, 2400, Note_on_c, 0, 55, 93
2, 2496, Note_off_c, 0, 55, 0
2, 2496, Note_on_c, 0, 60, 93
2, 2592, Note_off_c, 0, 60, 0
2, 2592, Note_on_c, 0, 65, 93
2, 2688, Note_off_c, 0, 65, 0
2, 2688, Note_on_c, 0, 63, 93
2, 2880, Note_off_c, 0, 63, 0
2, 2880, Note_on_c, 0, 62, 93
2, 3072, Note_off_c, 0, 62, 0
2, 3072, Note_on_c, 0, 60, 93
2, 3264, Note_off_c, 0, 60, 0
2, 3264, Note_on_c, 0, 63, 93
2, 3456, Note_off_c, 0, 63, 0
2, 3456, Note_on_c, 0, 67, 93
2, 3504, Note_off_c, 0, 67, 0
2, 3504, Note_on_c, 0, 65, 93
2, 3552, Note_off_c, 0, 65, 0
2, 3552, Note_on_c, 0, 67, 93
2, 3600, Note_off_c, 0, 67, 0
2, 3600, Note_on_c, 0, 72, 93
2, 3648, Note_off_c, 0, 72, 0
2, 3648, Note_on_c, 0, 67, 93
2, 3696, Note_off_c, 0, 67, 0
2, 3696, Note_on_c, 0, 63, 93
2, 3744, Note_off_c, 0, 63, 0
2, 3744, Note_on_c, 0, 62, 93
2, 3792, Note_off_c, 0, 62, 0
2, 3792, Note_on_c, 0, 63, 93
2, 3840, Note_off_c, 0, 63, 0
2, 3840, Note_on_c, 0, 65, 93
2, 3888, Note_off_c, 0, 65, 0
2, 3888, Note_on_c, 0, 67, 93
2, 3936, Note_off_c, 0, 67, 0
2, 3936, Note_on_c, 0, 69, 93
2, 3984, Note_off_c, 0, 69, 0
2, 3984, Note_on_c, 0, 71, 93
2, 4032, Note_off_c, 0, 71, 0
2, 4032, Note_on_c, 0, 72, 93
2, 4080, Note_off_c, 0, 72, 0
2, 4080, Note_on_c, 0, 63, 93
2, 4128, Note_off_c, 0, 63, 0
2, 4128, Note_on_c, 0, 65, 93
2, 4176, Note_off_c, 0, 65, 0
2, 4176, Note_on_c, 0, 67, 93
2, 4224, Note_off_c, 0, 67, 0
2, 4224, Note_on_c, 0, 68, 93
2, 4272, Note_off_c, 0, 68, 0
2, 4272, Note_on_c, 0, 62, 93
2, 4320, Note_off_c, 0, 62, 0
2, 4320, Note_on_c, 0, 63, 93
2, 4368, Note_off_c, 0, 63, 0
2, 4368, Note_on_c, 0, 65, 93
2, 4416, Note_off_c, 0, 65, 0
2, 4416, Note_on_c, 0, 67, 93
2, 4464, Note_off_c, 0, 67, 0
2, 4464, Note_on_c, 0, 65, 93
2, 4512, Note_off_c, 0, 65, 0
2, 4512, Note_on_c, 0, 63, 93
2, 4560, Note_off_c, 0, 63, 0
2, 4560, Note_on_c, 0, 62, 93
2, 4608, Note_off_c, 0, 62, 0
2, 4608, Note_on_c, 0, 63, 93
2, 4656, Note_off_c, 0, 63, 0
2, 4656, Note_on_c, 0, 65, 93
2, 4704, Note_off_c, 0, 65, 0
2, 4704, Note_on_c, 0, 67, 93
2, 4752, Note_off_c, 0, 67, 0
2, 4752, Note_on_c, 0, 68, 93
2, 4800, Note_off_c, 0, 68, 0
2, 4800, Note_on_c, 0, 70, 93
2, 4848, Note_off_c, 0, 70, 0
2, 4848, Note_on_c, 0, 68, 93
2, 4896, Note_off_c, 0, 68, 0
2, 4896, Note_on_c, 0, 67, 93
2, 4944, Note_off_c, 0, 67, 0
2, 4944, Note_on_c, 0, 65, 93
2, 4992, Note_off_c, 0, 65, 0
2, 4992, Note_on_c, 0, 67, 93
2, 5040, Note_off_c, 0, 67, 0
2, 5040, Note_on_c, 0, 68, 93
2, 5088, Note_off_c, 0, 68, 0
2, 5088, Note_on_c, 0, 70, 93
2, 5136, Note_off_c, 0, 70, 0
2, 5136, Note_on_c, 0, 72, 93
2, 5184, Note_off_c, 0, 72, 0
2, 5184, Note_on_c, 0, 73, 93
2, 5232, Note_off_c, 0, 73, 0
2, 5232, Note_on_c, 0, 70, 93
2, 5280, Note_off_c, 0, 70, 0
2, 5280, Note_on_c, 0, 68, 93
2, 5328, Note_off_c, 0, 68, 0
2, 5328, Note_on_c, 0, 67, 93
2, 5376, Note_off_c, 0, 67, 0
2, 5376, Note_on_c, 0, 69, 93
2, 5424, Note_off_c, 0, 69, 0
2, 5424, Note_on_c, 0, 71, 93
2, 5472, Note_off_c, 0, 71, 0
2, 5472, Note_on_c, 0, 72, 93
2, 5520, Note_off_c, 0, 72, 0
2, 5520, Note_on_c, 0, 74, 93
2, 5568, Note_off_c, 0, 74, 0
2, 5568, Note_on_c, 0, 75, 93
2, 5616, Note_off_c, 0, 75, 0
2, 5616, Note_on_c, 0, 72, 93
2, 5664, Note_off_c, 0, 72, 0
2, 5664, Note_on_c, 0, 71, 93
2, 5712, Note_off_c, 0, 71, 0
2, 5712, Note_on_c, 0, 69, 93
2, 5760, Note_off_c, 0, 69, 0
2, 5760, Note_on_c, 0, 71, 93
2, 5808, Note_off_c, 0, 71, 0
2, 5808, Note_on_c, 0, 72, 93
2, 5856, Note_off_c, 0, 72, 0
2, 5856, Note_on_c, 0, 74, 93
2, 5904, Note_off_c, 0, 74, 0
2, 5904, Note_on_c, 0, 75, 93
2, 5952, Note_off_c, 0, 75, 0
2, 5952, Note_on_c, 0, 77, 93
2, 6000, Note_off_c, 0, 77, 0
2, 6000, Note_on_c, 0, 74, 93
2, 6048, Note_off_c, 0, 74, 0
2, 6048, Note_on_c, 0, 67, 93
2, 6096, Note_off_c, 0, 67, 0
2, 6096, Note_on_c, 0, 74, 93
2, 6144, Note_off_c, 0, 74, 0
2, 6144, Note_on_c, 0, 72, 93
2, 6192, Note_off_c, 0, 72, 0
2, 6192, Note_on_c, 0, 74, 93
2, 6240, Note_off_c, 0, 74, 0
2, 6240, Note_on_c, 0, 75, 93
2, 6288, Note_off_c, 0, 75, 0
2, 6288, Note_on_c, 0, 77, 93
2, 6336, Note_off_c, 0, 77, 0
2, 6336, Note_on_c, 0, 75, 93
2, 6384, Note_off_c, 0, 75, 0
2, 6384, Note_on_c, 0, 74, 93
2, 6432, Note_off_c, 0, 74, 0
2, 6432, Note_on_c, 0, 72, 93
2, 6480, Note_off_c, 0, 72, 0
2, 6480, Note_on_c, 0, 71, 93
2, 6528, Note_off_c, 0, 71, 0
2, 6528, Note_on_c, 0, 72, 93
2, 6624, Note_off_c, 0, 72, 0
2, 6624, Note_on_c, 0, 67, 93
2, 6720, Note_off_c, 0, 67, 0
2, 6720, Note_on_c, 0, 63, 93
2, 6816, Note_off_c, 0, 63, 0
2, 6816, Note_on_c, 0, 60, 93
2, 6912, Note_off_c, 0, 60, 0
2, 6912, Note_on_c, 0, 60, 93
2, 7104, Note_off_c, 0, 60, 0
2, 7104, Note_on_c, 0, 63, 93
2, 7296, Note_off_c, 0, 63, 0
2, 7296, Note_on_c, 0, 67, 93
2, 7488, Note_off_c, 0, 67, 0
2, 7488, Note_on_c, 0, 68, 93
2, 7680, Note_off_c, 0, 68, 0
2, 7680, Note_on_c, 0, 59, 93
2, 7872, Note_off_c, 0, 59, 0
2, 7968, Note_on_c, 0, 67, 93
2, 8160, Note_off_c, 0, 67, 0
2, 8160, Note_on_c, 0, 66, 93
2, 8352, Note_off_c, 0, 66, 0
2, 8352, Note_on_c, 0, 65, 93
2, 8544, Note_off_c, 0, 65, 0
2, 8544, Note_on_c, 0, 64, 93
2, 8736, Note_off_c, 0, 64, 0
2, 8736, Note_on_c, 0, 63, 93
2, 8928, Note_off_c, 0, 63, 0
2, 8928, Note_on_c, 0, 62, 93
2, 9024, Note_off_c, 0, 62, 0
2, 9024, Note_on_c, 0, 61, 93
2, 9120, Note_off_c, 0, 61, 0
2, 9120, Note_on_c, 0, 60, 93
2, 9216, Note_off_c, 0, 60, 0
2, 9216, Note_on_c, 0, 59, 93
2, 9312, Note_off_c, 0, 59, 0
2, 9312, Note_on_c, 0, 55, 93
2, 9408, Note_off_c, 0, 55, 0
2, 9408, Note_on_c, 0, 60, 93
2, 9504, Note_off_c, 0, 60, 0
2, 9504, Note_on_c, 0, 65, 93
2, 9600, Note_off_c, 0, 65, 0
2, 9600, Note_on_c, 0, 63, 93
2, 9792, Note_off_c, 0, 63, 0
2, 9792, Note_on_c, 0, 62, 93
2, 9984, Note_off_c, 0, 62, 0
2, 9984, Note_on_c, 0, 60, 93
2, 10176, Note_off_c, 0, 60, 0
2, 10176, Note_on_c, 0, 63, 93
2, 10368, Note_off_c, 0, 63, 0
2, 10368, Note_on_c, 0, 67, 93
2, 10416, Note_off_c, 0, 67, 0
2, 10416, Note_on_c, 0, 65, 93
2, 10464, Note_off_c, 0, 65, 0
2, 10464, Note_on_c, 0, 67, 93
2, 10512, Note_off_c, 0, 67, 0
2, 10512, Note_on_c, 0, 72, 93
2, 10560, Note_off_c, 0, 72, 0
2, 10560, Note_on_c, 0, 67, 93
2, 10608, Note_off_c, 0, 67, 0
2, 10608, Note_on_c, 0, 63, 93
2, 10656, Note_off_c, 0, 63, 0
2, 10656, Note_on_c, 0, 62, 93
2, 10704, Note_off_c, 0, 62, 0
2, 10704, Note_on_c, 0, 63, 93
2, 10752, Note_off_c, 0, 63, 0
2, 10752, Note_on_c, 0, 65, 93
2, 10800, Note_off_c, 0, 65, 0
2, 10800, Note_on_c, 0, 67, 93
2, 10848, Note_off_c, 0, 67, 0
2, 10848, Note_on_c, 0, 69, 93
2, 10896, Note_off_c, 0, 69, 0
2, 10896, Note_on_c, 0, 71, 93
2, 10944, Note_off_c, 0, 71, 0
2, 10944, Note_on_c, 0, 72, 93
2, 10992, Note_off_c, 0, 72, 0
2, 10992, Note_on_c, 0, 63, 93
2, 11040, Note_off_c, 0, 63, 0
2, 11040, Note_on_c, 0, 65, 93
2, 11088, Note_off_c, 0, 65, 0
2, 11088, Note_on_c, 0, 67, 93
2, 11136, Note_off_c, 0, 67, 0
2, 11136, Note_on_c, 0, 68, 93
2, 11184, Note_off_c, 0, 68, 0
2, 11184, Note_on_c, 0, 62, 93
2, 11232, Note_off_c, 0, 62, 0
2, 11232, Note_on_c, 0, 63, 93
2, 11280, Note_off_c, 0, 63, 0
2, 11280, Note_on_c, 0, 65, 93
2, 11328, Note_off_c, 0, 65, 0
2, 11328, Note_on_c, 0, 67, 93
2, 11376, Note_off_c, 0, 67, 0
2, 11376, Note_on_c, 0, 65, 93
2, 11424, Note_off_c, 0, 65, 0
2, 11424, Note_on_c, 0, 63, 93
2, 11472, Note_off_c, 0, 63, 0
2, 11472, Note_on_c, 0, 62, 93
2, 11520, Note_off_c, 0, 62, 0
2, 11520, Note_on_c, 0, 63, 93
2, 11568, Note_off_c, 0, 63, 0
2, 11568, Note_on_c, 0, 65, 93
2, 11616, Note_off_c, 0, 65, 0
2, 11616, Note_on_c, 0, 67, 93
2, 11664, Note_off_c, 0, 67, 0
2, 11664, Note_on_c, 0, 68, 93
2, 11712, Note_off_c, 0, 68, 0
2, 11712, Note_on_c, 0, 70, 93
2, 11760, Note_off_c, 0, 70, 0
2, 11760, Note_on_c, 0, 68, 93
2, 11808, Note_off_c, 0, 68, 0
2, 11808, Note_on_c, 0, 67, 93
2, 11856, Note_off_c, 0, 67, 0
2, 11856, Note_on_c, 0, 65, 93
2, 11904, Note_off_c, 0, 65, 0
2, 11904, Note_on_c, 0, 67, 93
2, 11952, Note_off_c, 0, 67, 0
2, 11952, Note_on_c, 0, 68, 93
2, 12000, Note_off_c, 0, 68, 0
2, 12000, Note_on_c, 0, 70, 93
2, 12048, Note_off_c, 0, 70, 0
2, 12048, Note_on_c, 0, 72, 93
2, 12096, Note_off_c, 0, 72, 0
2, 12096, Note_on_c, 0, 73, 93
2, 12144, Note_off_c, 0, 73, 0
2, 12144, Note_on_c, 0, 70, 93
2, 12192, Note_off_c, 0, 70, 0
2, 12192, Note_on_c, 0, 68, 93
2, 12240, Note_off_c, 0, 68, 0
2, 12240, Note_on_c, 0, 67, 93
2, 12288, Note_off_c, 0, 67, 0
2, 12288, Note_on_c, 0, 69, 93
2, 12336, Note_off_c, 0, 69, 0
2, 12336, Note_on_c, 0, 71, 93
2, 12384, Note_off_c, 0, 71, 0
2, 12384, Note_on_c, 0, 72, 93
2, 12432, Note_off_c, 0, 72, 0
2, 12432, Note_on_c, 0, 74, 93
2, 12480, Note_off_c, 0, 74, 0
2, 12480, Note_on_c, 0, 75, 93
2, 12528, Note_off_c, 0, 75, 0
2, 12528, Note_on_c, 0, 72, 93
2, 12576, Note_off_c, 0, 72, 0
2, 12576, Note_on_c, 0, 71, 93
2, 12624, Note_off_c, 0, 71, 0
2, 12624, Note_on_c, 0, 69, 93
2, 12672, Note_off_c, 0, 69, 0
2, 12672, Note_on_c, 0, 71, 93
2, 12720, Note_off_c, 0, 71, 0
2, 12720, Note_on_c, 0, 72, 93
2, 12768, Note_off_c, 0, 72, 0
2, 12768, Note_on_c, 0, 74, 93
2, 12816, Note_off_c, 0, 74, 0
2, 12816, Note_on_c, 0, 75, 93
2, 12864, Note_off_c, 0, 75, 0
2, 12864, Note_on_c, 0, 77, 93
2, 12912, Note_off_c, 0, 77, 0
2, 12912, Note_on_c, 0, 74, 93
2, 12960, Note_off_c, 0, 74, 0
2, 12960, Note_on_c, 0, 67, 93
2, 13008, Note_off_c, 0, 67, 0
2, 13008, Note_on_c, 0, 74, 93
2, 13056, Note_off_c, 0, 74, 0
2, 13056, Note_on_c, 0, 72, 93
2, 13104, Note_off_c, 0, 72, 0
2, 13104, Note_on_c, 0, 74, 93
2, 13152, Note_off_c, 0, 74, 0
2, 13152, Note_on_c, 0, 75, 93
2, 13200, Note_off_c, 0, 75, 0
2, 13200, Note_on_c, 0, 77, 93
2, 13248, Note_off_c, 0, 77, 0
2, 13248, Note_on_c, 0, 75, 93
2, 13296, Note_off_c, 0, 75, 0
2, 13296, Note_on_c, 0, 74, 93
2, 13344, Note_off_c, 0, 74, 0
2, 13344, Note_on_c, 0, 72, 93
2, 13392, Note_off_c, 0, 72, 0
2, 13392, Note_on_c, 0, 71, 93
2, 13440, Note_off_c, 0, 71, 0
2, 13440, Note_on_c, 0, 72, 93
2, 13536, Note_off_c, 0, 72, 0
2, 13536, Note_on_c, 0, 67, 93
2, 13632, Note_off_c, 0, 67, 0
2, 13632, Note_on_c, 0, 63, 93
2, 13728, Note_off_c, 0, 63, 0
2, 13728, Note_on_c, 0, 60, 93
2, 13824, Note_off_c, 0, 60, 0
2, 13824, End_track
3, 0, Start_track
3, 0, Title_t, "Track3"
3, 0, Program_c, 1, 6
3, 0, Control_c, 1, 7, 100
3, 0, Control_c, 1, 10, 32
3, 0, Note_on_c, 1, 60, 93
3, 96, Note_off_c, 1, 60, 0
3, 96, Note_on_c, 1, 63, 93
3, 192, Note_off_c, 1, 63, 0
3, 192, Note_on_c, 1, 67, 93
3, 288, Note_off_c, 1, 67, 0
3, 288, Note_on_c, 1, 72, 93
3, 384, Note_off_c, 1, 72, 0
3, 384, Note_on_c, 1, 71, 93
3, 432, Note_off_c, 1, 71, 0
3, 432, Note_on_c, 1, 72, 93
3, 480, Note_off_c, 1, 72, 0
3, 480, Note_on_c, 1, 74, 93
3, 528, Note_off_c, 1, 74, 0
3, 528, Note_on_c, 1, 75, 93
3, 576, Note_off_c, 1, 75, 0
3, 576, Note_on_c, 1, 77, 93
3, 624, Note_off_c, 1, 77, 0
3, 624, Note_on_c, 1, 75, 93
3, 672, Note_off_c, 1, 75, 0
3, 672, Note_on_c, 1, 74, 93
3, 720, Note_off_c, 1, 74, 0
3, 720, Note_on_c, 1, 72, 93
3, 768, Note_off_c, 1, 72, 0
3, 768, Note_on_c, 1, 74, 93
3, 816, Note_off_c, 1, 74, 0
3, 816, Note_on_c, 1, 67, 93
3, 864, Note_off_c, 1, 67, 0
3, 864, Note_on_c, 1, 74, 93
3, 912, Note_off_c, 1, 74, 0
3, 912, Note_on_c, 1, 77, 93
3, 960, Note_off_c, 1, 77, 0
3, 960, Note_on_c, 1, 75, 93
3, 1008, Note_off_c, 1, 75, 0
3, 1008, Note_on_c, 1, 74, 93
3, 1056, Note_off_c, 1, 74, 0
3, 1056, Note_on_c, 1, 72, 93
3, 1104, Note_off_c, 1, 72, 0
3, 1104, Note_on_c, 1, 71, 93
3, 1152, Note_off_c, 1, 71, 0
3, 1152, Note_on_c, 1, 69, 93
3, 1200, Note_off_c, 1, 69, 0
3, 1200, Note_on_c, 1, 71, 93
3, 1248, Note_off_c, 1, 71, 0
3, 1248, Note_on_c, 1, 72, 93
3, 1296, Note_off_c, 1, 72, 0
3, 1296, Note_on_c, 1, 75, 93
3, 1344, Note_off_c, 1, 75, 0
3, 1344, Note_on_c, 1, 74, 93
3, 1392, Note_off_c, 1, 74, 0
3, 1392, Note_on_c, 1, 72, 93
3, 1440, Note_off_c, 1, 72, 0
3, 1440, Note_on_c, 1, 71, 93
3, 1488, Note_off_c, 1, 71, 0
3, 1488, Note_on_c, 1, 69, 93
3, 1536, Note_off_c, 1, 69, 0
3, 1536, Note_on_c, 1, 67, 93
3, 1584, Note_off_c, 1, 67, 0
3, 1584, Note_on_c, 1, 68, 93
3, 1632, Note_off_c, 1, 68, 0
3, 1632, Note_on_c, 1, 70, 93
3, 1680, Note_off_c, 1, 70, 0
3, 1680, Note_on_c, 1, 73, 93
3, 1728, Note_off_c, 1, 73, 0
3, 1728, Note_on_c, 1, 72, 93
3, 1776, Note_off_c, 1, 72, 0
3, 1776, Note_on_c, 1, 70, 93
3, 1824, Note_off_c, 1, 70, 0
3, 1824, Note_on_c, 1, 68, 93
3, 1872, Note_off_c, 1, 68, 0
3, 1872, Note_on_c, 1, 67, 93
3, 1920, Note_off_c, 1, 67, 0
3, 1920, Note_on_c, 1, 65, 93
3, 1968, Note_off_c, 1, 65, 0
3, 1968, Note_on_c, 1, 67, 93
3, 2016, Note_off_c, 1, 67, 0
3, 2016, Note_on_c, 1, 68, 93
3, 2064, Note_off_c, 1, 68, 0
3, 2064, Note_on_c, 1, 70, 93
3, 2112, Note_off_c, 1, 70, 0
3, 2112, Note_on_c, 1, 68, 93
3, 2160, Note_off_c, 1, 68, 0
3, 2160, Note_on_c, 1, 67, 93
3, 2208, Note_off_c, 1, 67, 0
3, 2208, Note_on_c, 1, 65, 93
3, 2256, Note_off_c, 1, 65, 0
3, 2256, Note_on_c, 1, 63, 93
3, 2304, Note_off_c, 1, 63, 0
3, 2304, Note_on_c, 1, 62, 93
3, 2352, Note_off_c, 1, 62, 0
3, 2352, Note_on_c, 1, 63, 93
3, 2400, Note_off_c, 1, 63, 0
3, 2400, Note_on_c, 1, 65, 93
3, 2448, Note_off_c, 1, 65, 0
3, 2448, Note_on_c, 1, 67, 93
3, 2496, Note_off_c, 1, 67, 0
3, 2496, Note_on_c, 1, 65, 93
3, 2544, Note_off_c, 1, 65, 0
3, 2544, Note_on_c, 1, 63, 93
3, 2592, Note_off_c, 1, 63, 0
3, 2592, Note_on_c, 1, 62, 93
3, 2640, Note_off_c, 1, 62, 0
3, 2640, Note_on_c, 1, 68, 93
3, 2688, Note_off_c, 1, 68, 0
3, 2688, Note_on_c, 1, 67, 93
3, 2736, Note_off_c, 1, 67, 0
3, 2736, Note_on_c, 1, 65, 93
3, 2784, Note_off_c, 1, 65, 0
3, 2784, Note_on_c, 1, 63, 93
3, 2832, Note_off_c, 1, 63, 0
3, 2832, Note_on_c, 1, 72, 93
3, 2880, Note_off_c, 1, 72, 0
3, 2880, Note_on_c, 1, 71, 93
3, 2928, Note_off_c, 1, 71, 0
3, 2928, Note_on_c, 1, 69, 93
3, 2976, Note_off_c, 1, 69, 0
3, 2976, Note_on_c, 1, 67, 93
3, 3024, Note_off_c, 1, 67, 0
3, 3024, Note_on_c, 1, 65, 93
3, 3072, Note_off_c, 1, 65, 0
3, 3072, Note_on_c, 1, 63, 93
3, 3120, Note_off_c, 1, 63, 0
3, 3120, Note_on_c, 1, 62, 93
3, 3168, Note_off_c, 1, 62, 0
3, 3168, Note_on_c, 1, 63, 93
3, 3216, Note_off_c, 1, 63, 0
3, 3216, Note_on_c, 1, 67, 93
3, 3264, Note_off_c, 1, 67, 0
3, 3264, Note_on_c, 1, 72, 93
3, 3312, Note_off_c, 1, 72, 0
3, 3312, Note_on_c, 1, 67, 93
3, 3360, Note_off_c, 1, 67, 0
3, 3360, Note_on_c, 1, 65, 93
3, 3408, Note_off_c, 1, 65, 0
3, 3408, Note_on_c, 1, 67, 93
3, 3456, Note_off_c, 1, 67, 0
3, 3456, Note_on_c, 1, 63, 93
3, 3648, Note_off_c, 1, 63, 0
3, 3648, Note_on_c, 1, 60, 93
3, 3840, Note_off_c, 1, 60, 0
3, 3840, Note_on_c, 1, 62, 93
3, 4032, Note_off_c, 1, 62, 0
3, 4032, Note_on_c, 1, 63, 93
3, 4224, Note_off_c, 1, 63, 0
3, 4224, Note_on_c, 1, 65, 93
3, 4320, Note_off_c, 1, 65, 0
3, 4320, Note_on_c, 1, 60, 93
3, 4416, Note_off_c, 1, 60, 0
3, 4416, Note_on_c, 1, 55, 93
3, 4512, Note_off_c, 1, 55, 0
3, 4512, Note_on_c, 1, 59, 93
3, 4608, Note_off_c, 1, 59, 0
3, 4608, Note_on_c, 1, 60, 93
3, 4704, Note_off_c, 1, 60, 0
3, 4704, Note_on_c, 1, 61, 93
3, 4800, Note_off_c, 1, 61, 0
3, 4800, Note_on_c, 1, 62, 93
3, 4896, Note_off_c, 1, 62, 0
3, 4896, Note_on_c, 1, 63, 93
3, 5088, Note_off_c, 1, 63, 0
3, 5088, Note_on_c, 1, 64, 93
3, 5280, Note_off_c, 1, 64, 0
3, 5280, Note_on_c, 1, 65, 93
3, 5472, Note_off_c, 1, 65, 0
3, 5472, Note_on_c, 1, 66, 93
3, 5664, Note_off_c, 1, 66, 0
3, 5664, Note_on_c, 1, 67, 93
3, 5856, Note_off_c, 1, 67, 0
3, 5952, Note_on_c, 1, 59, 93
3, 6144, Note_off_c, 1, 59, 0
3, 6144, Note_on_c, 1, 68, 93
3, 6336, Note_off_c, 1, 68, 0
3, 6336, Note_on_c, 1, 67, 93
3, 6528, Note_off_c, 1, 67, 0
3, 6528, Note_on_c, 1, 63, 93
3, 6720, Note_off_c, 1, 63, 0
3, 6720, Note_on_c, 1, 60, 93
3, 6912, Note_off_c, 1, 60, 0
3, 6912, Note_on_c, 1, 60, 93
3, 7008, Note_off_c, 1, 60, 0
3, 7008, Note_on_c, 1, 63, 93
3, 7104, Note_off_c, 1, 63, 0
3, 7104, Note_on_c, 1, 67, 93
3, 7200, Note_off_c, 1, 67, 0
3, 7200, Note_on_c, 1, 72, 93
3, 7296, Note_off_c, 1, 72, 0
3, 7296, Note_on_c, 1, 71, 93
3, 7344, Note_off_c, 1, 71, 0
3, 7344, Note_on_c, 1, 72, 93
3, 7392, Note_off_c, 1, 72, 0
3, 7392, Note_on_c, 1, 74, 93
3, 7440, Note_off_c, 1, 74, 0
3, 7440, Note_on_c, 1, 75, 93
3, 7488, Note_off_c, 1, 75, 0
3, 7488, Note_on_c, 1, 77, 93
3, 7536, Note_off_c, 1, 77, 0
3, 7536, Note_on_c, 1, 75, 93
3, 7584, Note_off_c, 1, 75, 0
3, 7584, Note_on_c, 1, 74, 93
3, 7632, Note_off_c, 1, 74, 0
3, 7632, Note_on_c, 1, 72, 93
3, 7680, Note_off_c, 1, 72, 0
3, 7680, Note_on_c, 1, 74, 93
3, 7728, Note_off_c, 1, 74, 0
3, 7728, Note_on_c, 1, 67, 93
3, 7776, Note_off_c, 1, 67, 0
3, 7776, Note_on_c, 1, 74, 93
3, 7824, Note_off_c, 1, 74, 0
3, 7824, Note_on_c, 1, 77, 93
3, 7872, Note_off_c, 1, 77, 0
3, 7872, Note_on_c, 1, 75, 93
3, 7920, Note_off_c, 1, 75, 0
3, 7920, Note_on_c, 1, 74, 93
3, 7968, Note_off_c, 1, 74, 0
3, 7968, Note_on_c, 1, 72, 93
3, 8016, Note_off_c, 1, 72, 0
3, 8016, Note_on_c, 1, 71, 93
3, 8064, Note_off_c, 1, 71, 0
3, 8064, Note_on_c, 1, 69, 93
3, 8112, Note_off_c, 1, 69, 0
3, 8112, Note_on_c, 1, 71, 93
3, 8160, Note_off_c, 1, 71, 0
3, 8160, Note_on_c, 1, 72, 93
3, 8208, Note_off_c, 1, 72, 0
3, 8208, Note_on_c, 1, 75, 93
3, 8256, Note_off_c, 1, 75, 0
3, 8256, Note_on_c, 1, 74, 93
3, 8304, Note_off_c, 1, 74, 0
3, 8304, Note_on_c, 1, 72, 93
3, 8352, Note_off_c, 1, 72, 0
3, 8352, Note_on_c, 1, 71, 93
3, 8400, Note_off_c, 1, 71, 0
3, 8400, Note_on_c, 1, 69, 93
3, 8448, Note_off_c, 1, 69, 0
3, 8448, Note_on_c, 1, 67, 93
3, 8496, Note_off_c, 1, 67, 0
3, 8496, Note_on_c, 1, 68, 93
3, 8544, Note_off_c, 1, 68, 0
3, 8544, Note_on_c, 1, 70, 93
3, 8592, Note_off_c, 1, 70, 0
3, 8592, Note_on_c, 1, 73, 93
3, 8640, Note_off_c, 1, 73, 0
3, 8640, Note_on_c, 1, 72, 93
3, 8688, Note_off_c, 1, 72, 0
3, 8688, Note_on_c, 1, 70, 93
3, 8736, Note_off_c, 1, 70, 0
3, 8736, Note_on_c, 1, 68, 93
3, 8784, Note_off_c, 1, 68, 0
3, 8784, Note_on_c, 1, 67, 93
3, 8832, Note_off_c, 1, 67, 0
3, 8832, Note_on_c, 1, 65, 93
3, 8880, Note_off_c, 1, 65, 0
3, 8880, Note_on_c, 1, 67, 93
3, 8928, Note_off_c, 1, 67, 0
3, 8928, Note_on_c, 1, 68, 93
3, 8976, Note_off_c, 1, 68, 0
3, 8976, Note_on_c, 1, 70, 93
3, 9024, Note_off_c, 1, 70, 0
3, 9024, Note_on_c, 1, 68, 93
3, 9072, Note_off_c, 1, 68, 0
3, 9072, Note_on_c, 1, 67, 93
3, 9120, Note_off_c, 1, 67, 0
3, 9120, Note_on_c, 1, 65, 93
3, 9168, Note_off_c, 1, 65, 0
3, 9168, Note_on_c, 1, 63, 93
3, 9216, Note_off_c, 1, 63, 0
3, 9216, Note_on_c, 1, 62, 93
3, 9264, Note_off_c, 1, 62, 0
3, 9264, Note_on_c, 1, 63, 93
3, 9312, Note_off_c, 1, 63, 0
3, 9312, Note_on_c, 1, 65, 93
3, 9360, Note_off_c, 1, 65, 0
3, 9360, Note_on_c, 1, 67, 93
3, 9408, Note_off_c, 1, 67, 0
3, 9408, Note_on_c, 1, 65, 93
3, 9456, Note_off_c, 1, 65, 0
3, 9456, Note_on_c, 1, 63, 93
3, 9504, Note_off_c, 1, 63, 0
3, 9504, Note_on_c, 1, 62, 93
3, 9552, Note_off_c, 1, 62, 0
3, 9552, Note_on_c, 1, 68, 93
3, 9600, Note_off_c, 1, 68, 0
3, 9600, Note_on_c, 1, 67, 93
3, 9648, Note_off_c, 1, 67, 0
3, 9648, Note_on_c, 1, 65, 93
3, 9696, Note_off_c, 1, 65, 0
3, 9696, Note_on_c, 1, 63, 93
3, 9744, Note_off_c, 1, 63, 0
3, 9744, Note_on_c, 1, 72, 93
3, 9792, Note_off_c, 1, 72, 0
3, 9792, Note_on_c, 1, 71, 93
3, 9840, Note_off_c, 1, 71, 0
3, 9840, Note_on_c, 1, 69, 93
3, 9888, Note_off_c, 1, 69, 0
3, 9888, Note_on_c, 1, 67, 93
3, 9936, Note_off_c, 1, 67, 0
3, 9936, Note_on_c, 1, 65, 93
3, 9984, Note_off_c, 1, 65, 0
3, 9984, Note_on_c, 1, 63, 93
3, 10032, Note_off_c, 1, 63, 0
3, 10032, Note_on_c, 1, 62, 93
3, 10080, Note_off_c, 1, 62, 0
3, 10080, Note_on_c, 1, 63, 93
3, 10128, Note_off_c, 1, 63, 0
3, 10128, Note_on_c, 1, 67, 93
3, 10176, Note_off_c, 1, 67, 0
3, 10176, Note_on_c, 1, 72, 93
3, 10224, Note_off_c, 1, 72, 0
3, 10224, Note_on_c, 1, 67, 93
3, 10272, Note_off_c, 1, 67, 0
3, 10272, Note_on_c, 1, 65, 93
3, 10320, Note_off_c, 1, 65, 0
3, 10320, Note_on_c, 1, 67, 93
3, 10368, Note_off_c, 1, 67, 0
3, 10368, Note_on_c, 1, 63, 93
3, 10560, Note_off_c, 1, 63, 0
3, 10560, Note_on_c, 1, 60, 93
3, 10752, Note_off_c, 1, 60, 0
3, 10752, Note_on_c, 1, 62, 93
3, 10944, Note_off_c, 1, 62, 0
3, 10944, Note_on_c, 1, 63, 93
3, 11136, Note_off_c, 1, 63, 0
3, 11136, Note_on_c, 1, 65, 93
3, 11232, Note_off_c, 1, 65, 0
3, 11232, Note_on_c, 1, 60, 93
3, 11328, Note_off_c, 1, 60, 0
3, 11328, Note_on_c, 1, 55, 93
3, 11424, Note_off_c, 1, 55, 0
3, 11424, Note_on_c, 1, 59, 93
3, 11520, Note_off_c, 1, 59, 0
3, 11520, Note_on_c, 1, 60, 93
3, 11616, Note_off_c, 1, 60, 0
3, 11616, Note_on_c, 1, 61, 93
3, 11712, Note_off_c, 1, 61, 0
3, 11712, Note_on_c, 1, 62, 93
3, 11808, Note_off_c, 1, 62, 0
3, 11808, Note_on_c, 1, 63, 93
3, 12000, Note_off_c, 1, 63, 0
3, 12000, Note_on_c, 1, 64, 93
3, 12192, Note_off_c, 1, 64, 0
3, 12192, Note_on_c, 1, 65, 93
3, 12384, Note_off_c, 1, 65, 0
3, 12384, Note_on_c, 1, 66, 93
3, 12576, Note_off_c, 1, 66, 0
3, 12576, Note_on_c, 1, 67, 93
3, 12768, Note_off_c, 1, 67, 0
3, 12864, Note_on_c, 1, 59, 93
3, 13056, Note_off_c, 1, 59, 0
3, 13056, Note_on_c, 1, 68, 93
3, 13248, Note_off_c, 1, 68, 0
3, 13248, Note_on_c, 1, 67, 93
3, 13440, Note_off_c, 1, 67, 0
3, 13440, Note_on_c, 1, 63, 93
3, 13632, Note_off_c, 1, 63, 0
3, 13632, Note_on_c, 1, 60, 93
3, 13824, Note_off_c, 1, 60, 0
3, 13824, End_track
0, 0, End_of_file
