0, 0, Header, 1, 5, 96
1, 0, Start_track
1, 0, Time_signature, 4, 2, 24, 8
1, 0, Title_t, "untitled"
1, 0, Title_t, "Track1"
1, 0, Tempo, 600000
1, 31488, Tempo, 600000
1, 31494, Tempo, 606060
1, 31500, Tempo, 612244
1, 31506, Tempo, 612244
1, 31512, Tempo, 618556
1, 31518, Tempo, 618556
1, 31530, Tempo, 625000
1, 31536, Tempo, 625000
1, 31542, Tempo, 625000
1, 31548, Tempo, 631578
1, 31554, Tempo, 638297
1, 31560, Tempo, 638297
1, 31566, Tempo, 645161
1, 31572, Tempo, 645161
1, 31578, Tempo, 645161
1, 31584, Tempo, 652173
1, 31590, Tempo, 659340
1, 31596, Tempo, 659340
1, 31602, Tempo, 666666
1, 31608, Tempo, 666666
1, 31614, Tempo, 674157
1, 31626, Tempo, 674157
1, 31632, Tempo, 674157
1, 31638, Tempo, 681818
1, 31644, Tempo, 681818
1, 31650, Tempo, 689655
1, 31656, Tempo, 689655
1, 31662, Tempo, 697674
1, 31668, Tempo, 697674
1, 31674, Tempo, 705882
1, 31680, Tempo, 705882
1, 31686, Tempo, 714285
1, 31692, Tempo, 722891
1, 31698, Tempo, 722891
1, 31704, Tempo, 731707
1, 31710, Tempo, 731707
1, 31722, Tempo, 731707
1, 31728, Tempo, 740740
1, 31734, Tempo, 750000
1, 31740, Tempo, 750000
1, 31746, Tempo, 750000
1, 31752, Tempo, 759493
1, 31758, Tempo, 769230
1, 31764, Tempo, 769230
1, 31770, Tempo, 779220
1, 31776, Tempo, 779220
1, 31782, Tempo, 789473
1, 31788, Tempo, 789473
1, 31794, Tempo, 800000
1, 31800, Tempo, 800000
1, 31806, Tempo, 800000
1, 31818, Tempo, 810810
1, 31824, Tempo, 821917
1, 31830, Tempo, 821917
1, 31836, Tempo, 833333
1, 31842, Tempo, 833333
1, 31848, Tempo, 833333
1, 31854, Tempo, 845070
1, 31860, Tempo, 845070
1, 31866, Tempo, 857142
1, 31872, Tempo, 869565
1, 31878, Tempo, 869565
1, 31878, Tempo, 869565
1, 31884, Tempo, 882352
1, 31884, Tempo, 895522
1, 31890, Tempo, 895522
1, 31890, Tempo, 895522
1, 31896, Tempo, 909090
1, 31896, Tempo, 923076
1, 31902, Tempo, 923076
1, 31902, Tempo, 937500
1, 31908, Tempo, 937500
1, 31914, Tempo, 937500
1, 31914, Tempo, 952380
1, 31920, Tempo, 967741
1, 31920, Tempo, 967741
1, 31926, Tempo, 983606
1, 31926, Tempo, 983606
1, 31932, Tempo, 1000000
1, 31932, Tempo, 1000000
1, 31938, Tempo, 1000000
1, 31938, Tempo, 1016949
1, 31944, Tempo, 1016949
1, 31944, Tempo, 1034482
1, 31950, Tempo, 1052631
1, 31950, Tempo, 1052631
1, 31956, Tempo, 1071428
1, 31962, Tempo, 1071428
1, 31962, Tempo, 1090909
1, 31968, Tempo, 1090909
1, 31968, Tempo, 1090909
1, 31974, Tempo, 1111111
1, 31974, Tempo, 1111111
1, 31980, Tempo, 1132075
1, 31980, Tempo, 1132075
1, 31986, Tempo, 1153846
1, 31986, Tempo, 1153846
1, 31992, Tempo, 1176470
1, 31992, Tempo, 1200000
1, 31998, Tempo, 1200000
1, 31998, Tempo, 1200000
1, 32004, Tempo, 1224489
1, 32010, Tempo, 1250000
1, 32010, Tempo, 1250000
1, 32016, Tempo, 1250000
1, 32016, Tempo, 1276595
1, 32022, Tempo, 1304347
1, 32022, Tempo, 1304347
1, 32028, Tempo, 1333333
1, 32028, Tempo, 1333333
1, 32034, Tempo, 1333333
1, 32034, Tempo, 1363636
1, 32040, Tempo, 1363636
1, 32040, Tempo, 1395348
1, 32046, Tempo, 1428571
1, 32046, Tempo, 1428571
1, 32052, Tempo, 1428571
1, 32058, Tempo, 1463414
1, 32058, Tempo, 1500000
1, 32064, Tempo, 1500000
1, 32064, Tempo, 1500000
1, 32064, End_track
2, 0, Start_track
2, 0, Title_t, "Track2"
2, 0, Program_c, 0, 40
2, 0, Control_c, 0, 7, 100
2, 0, Control_c, 0, 10, 94
2, 4608, Note_on_c, 0, 69, 93
2, 4800, Note_off_c, 0, 69, 0
2, 4800, Note_on_c, 0, 74, 93
2, 4992, Note_off_c, 0, 74, 0
2, 4992, Note_on_c, 0, 72, 93
2, 5184, Note_off_c, 0, 72, 0
2, 5184, Note_on_c, 0, 69, 93
2, 5376, Note_off_c, 0, 69, 0
2, 5376, Note_on_c, 0, 68, 93
2, 5568, Note_off_c, 0, 68, 0
2, 5568, Note_on_c, 0, 69, 93
2, 5664, Note_off_c, 0, 69, 0
2, 5664, Note_on_c, 0, 71, 93
2, 5760, Note_off_c, 0, 71, 0
2, 5760, Note_on_c, 0, 72, 93
2, 6024, Note_off_c, 0, 72, 0
2, 6024, Note_on_c, 0, 74, 93
2, 6048, Note_off_c, 0, 74, 0
2, 6048, Note_on_c, 0, 72, 93
2, 6120, Note_off_c, 0, 72, 0
2, 6120, Note_on_c, 0, 71, 93
2, 6144, Note_off_c, 0, 71, 0
2, 6144, Note_on_c, 0, 69, 93
2, 6912, Note_off_c, 0, 69, 0
2, 6912, Note_on_c, 0, 62, 93
2, 7752, Note_off_c, 0, 62, 0
2, 7752, Note_on_c, 0, 61, 93
2, 7776, Note_off_c, 0, 61, 0
2, 7776, Note_on_c, 0, 62, 93
2, 7848, Note_off_c, 0, 62, 0
2, 7848, Note_on_c, 0, 65, 93
2, 7872, Note_off_c, 0, 65, 0
2, 7872, Note_on_c, 0, 64, 93
2, 7944, Note_off_c, 0, 64, 0
2, 7944, Note_on_c, 0, 62, 93
2, 7968, Note_off_c, 0, 62, 0
2, 7968, Note_on_c, 0, 68, 93
2, 8040, Note_off_c, 0, 68, 0
2, 8040, Note_on_c, 0, 69, 93
2, 8064, Note_off_c, 0, 69, 0
2, 8064, Note_on_c, 0, 71, 93
2, 8136, Note_off_c, 0, 71, 0
2, 8136, Note_on_c, 0, 72, 93
2, 8160, Note_off_c, 0, 72, 0
2, 8160, Note_on_c, 0, 74, 93
2, 8232, Note_off_c, 0, 74, 0
2, 8232, Note_on_c, 0, 65, 93
2, 8328, Note_off_c, 0, 65, 0
2, 8328, Note_on_c, 0, 64, 93
2, 8340, Note_off_c, 0, 64, 0
2, 8340, Note_on_c, 0, 62, 93
2, 8352, Note_off_c, 0, 62, 0
2, 8352, Note_on_c, 0, 61, 93
2, 8424, Note_off_c, 0, 61, 0
2, 8424, Note_on_c, 0, 62, 93
2, 8448, Note_off_c, 0, 62, 0
2, 8448, Note_on_c, 0, 61, 93
2, 8544, Note_off_c, 0, 61, 0
2, 9600, Note_on_c, 0, 69, 93
2, 9792, Note_off_c, 0, 69, 0
2, 9792, Note_on_c, 0, 74, 93
2, 9984, Note_off_c, 0, 74, 0
2, 9984, Note_on_c, 0, 72, 93
2, 10176, Note_off_c, 0, 72, 0
2, 10176, Note_on_c, 0, 69, 93
2, 10368, Note_off_c, 0, 69, 0
2, 10368, Note_on_c, 0, 68, 93
2, 10560, Note_off_c, 0, 68, 0
2, 10560, Note_on_c, 0, 69, 93
2, 10656, Note_off_c, 0, 69, 0
2, 10656, Note_on_c, 0, 71, 93
2, 10752, Note_off_c, 0, 71, 0
2, 10752, Note_on_c, 0, 72, 93
2, 11016, Note_off_c, 0, 72, 0
2, 11016, Note_on_c, 0, 74, 93
2, 11040, Note_off_c, 0, 74, 0
2, 11040, Note_on_c, 0, 72, 93
2, 11112, Note_off_c, 0, 72, 0
2, 11112, Note_on_c, 0, 71, 93
2, 11136, Note_off_c, 0, 71, 0
2, 11136, Note_on_c, 0, 72, 93
2, 11232, Note_off_c, 0, 72, 0
2, 11232, Note_on_c, 0, 81, 93
2, 11400, Note_off_c, 0, 81, 0
2, 11400, Note_on_c, 0, 79, 93
2, 11424, Note_off_c, 0, 79, 0
2, 11424, Note_on_c, 0, 77, 93
2, 11496, Note_off_c, 0, 77, 0
2, 11496, Note_on_c, 0, 76, 93
2, 11592, Note_off_c, 0, 76, 0
2, 11592, Note_on_c, 0, 77, 93
2, 11616, Note_off_c, 0, 77, 0
2, 11616, Note_on_c, 0, 76, 93
2, 11688, Note_off_c, 0, 76, 0
2, 11688, Note_on_c, 0, 74, 93
2, 11784, Note_off_c, 0, 74, 0
2, 11784, Note_on_c, 0, 76, 93
2, 11808, Note_off_c, 0, 76, 0
2, 11808, Note_on_c, 0, 74, 93
2, 11880, Note_off_c, 0, 74, 0
2, 11880, Note_on_c, 0, 73, 93
2, 11904, Note_off_c, 0, 73, 0
2, 11904, Note_on_c, 0, 74, 93
2, 12096, Note_off_c, 0, 74, 0
2, 12744, Note_on_c, 0, 81, 93
2, 12768, Note_off_c, 0, 81, 0
2, 12768, Note_on_c, 0, 80, 93
2, 12840, Note_off_c, 0, 80, 0
2, 12840, Note_on_c, 0, 81, 93
2, 12864, Note_off_c, 0, 81, 0
2, 12864, Note_on_c, 0, 74, 93
2, 12960, Note_off_c, 0, 74, 0
2, 12960, Note_on_c, 0, 79, 93
2, 13056, Note_off_c, 0, 79, 0
2, 13056, Note_on_c, 0, 79, 93
2, 13128, Note_off_c, 0, 79, 0
2, 13128, Note_on_c, 0, 77, 93
2, 13152, Note_off_c, 0, 77, 0
2, 13152, Note_on_c, 0, 76, 93
2, 13224, Note_off_c, 0, 76, 0
2, 13224, Note_on_c, 0, 74, 93
2, 13248, Note_off_c, 0, 74, 0
2, 13248, Note_on_c, 0, 76, 93
2, 13344, Note_off_c, 0, 76, 0
2, 13344, Note_on_c, 0, 81, 93
2, 13440, Note_off_c, 0, 81, 0
2, 13440, Note_on_c, 0, 74, 93
2, 13536, Note_off_c, 0, 74, 0
2, 13536, Note_on_c, 0, 76, 93
2, 13632, Note_off_c, 0, 76, 0
2, 13632, Note_on_c, 0, 64, 93
2, 13728, Note_off_c, 0, 64, 0
2, 13728, Note_on_c, 0, 65, 93
2, 13824, Note_off_c, 0, 65, 0
2, 13824, Note_on_c, 0, 64, 93
2, 13920, Note_off_c, 0, 64, 0
2, 13920, Note_on_c, 0, 76, 93
2, 14088, Note_off_c, 0, 76, 0
2, 14088, Note_on_c, 0, 74, 93
2, 14112, Note_off_c, 0, 74, 0
2, 14112, Note_on_c, 0, 72, 93
2, 14184, Note_off_c, 0, 72, 0
2, 14184, Note_on_c, 0, 71, 93
2, 14208, Note_off_c, 0, 71, 0
2, 14208, Note_on_c, 0, 72, 93
2, 14280, Note_off_c, 0, 72, 0
2, 14280, Note_on_c, 0, 74, 93
2, 14304, Note_off_c, 0, 74, 0
2, 14304, Note_on_c, 0, 76, 93
2, 14472, Note_off_c, 0, 76, 0
2, 14472, Note_on_c, 0, 77, 93
2, 14496, Note_off_c, 0, 77, 0
2, 14496, Note_on_c, 0, 76, 93
2, 14568, Note_off_c, 0, 76, 0
2, 14568, Note_on_c, 0, 74, 93
2, 14592, Note_off_c, 0, 74, 0
2, 14592, Note_on_c, 0, 81, 93
2, 14688, Note_off_c, 0, 81, 0
2, 15432, Note_on_c, 0, 76, 93
2, 15456, Note_off_c, 0, 76, 0
2, 15456, Note_on_c, 0, 75, 93
2, 15528, Note_off_c, 0, 75, 0
2, 15528, Note_on_c, 0, 76, 93
2, 15552, Note_off_c, 0, 76, 0
2, 15552, Note_on_c, 0, 69, 93
2, 15648, Note_off_c, 0, 69, 0
2, 15648, Note_on_c, 0, 74, 93
2, 15816, Note_off_c, 0, 74, 0
2, 15816, Note_on_c, 0, 72, 93
2, 15840, Note_off_c, 0, 72, 0
2, 15840, Note_on_c, 0, 70, 93
2, 15912, Note_off_c, 0, 70, 0
2, 15912, Note_on_c, 0, 69, 93
2, 15936, Note_off_c, 0, 69, 0
2, 15936, Note_on_c, 0, 70, 93
2, 16200, Note_off_c, 0, 70, 0
2, 16200, Note_on_c, 0, 69, 93
2, 16224, Note_off_c, 0, 69, 0
2, 16224, Note_on_c, 0, 67, 93
2, 16296, Note_off_c, 0, 67, 0
2, 16296, Note_on_c, 0, 65, 93
2, 16320, Note_off_c, 0, 65, 0
2, 16320, Note_on_c, 0, 67, 93
2, 16584, Note_off_c, 0, 67, 0
2, 16584, Note_on_c, 0, 65, 93
2, 16608, Note_off_c, 0, 65, 0
2, 16608, Note_on_c, 0, 67, 93
2, 16680, Note_off_c, 0, 67, 0
2, 16680, Note_on_c, 0, 69, 93
2, 16704, Note_off_c, 0, 69, 0
2, 16704, Note_on_c, 0, 70, 93
2, 16776, Note_off_c, 0, 70, 0
2, 16776, Note_on_c, 0, 72, 93
2, 16800, Note_off_c, 0, 72, 0
2, 16800, Note_on_c, 0, 74, 93
2, 16872, Note_off_c, 0, 74, 0
2, 16872, Note_on_c, 0, 76, 93
2, 16896, Note_off_c, 0, 76, 0
2, 16896, Note_on_c, 0, 77, 93
2, 17088, Note_off_c, 0, 77, 0
2, 17088, Note_on_c, 0, 84, 93
2, 17280, Note_off_c, 0, 84, 0
2, 17280, Note_on_c, 0, 81, 93
2, 17472, Note_off_c, 0, 81, 0
2, 17472, Note_on_c, 0, 77, 93
2, 17664, Note_off_c, 0, 77, 0
2, 17664, Note_on_c, 0, 76, 93
2, 17856, Note_off_c, 0, 76, 0
2, 17856, Note_on_c, 0, 77, 93
2, 17952, Note_off_c, 0, 77, 0
2, 17952, Note_on_c, 0, 79, 93
2, 18048, Note_off_c, 0, 79, 0
2, 18048, Note_on_c, 0, 81, 93
2, 18312, Note_off_c, 0, 81, 0
2, 18312, Note_on_c, 0, 82, 93
2, 18336, Note_off_c, 0, 82, 0
2, 18336, Note_on_c, 0, 81, 93
2, 18408, Note_off_c, 0, 81, 0
2, 18408, Note_on_c, 0, 79, 93
2, 18432, Note_off_c, 0, 79, 0
2, 18432, Note_on_c, 0, 78, 93
2, 18624, Note_off_c, 0, 78, 0
2, 18624, Note_on_c, 0, 79, 93
2, 18720, Note_off_c, 0, 79, 0
2, 18720, Note_on_c, 0, 81, 93
2, 18888, Note_off_c, 0, 81, 0
2, 18888, Note_on_c, 0, 74, 93
2, 18912, Note_off_c, 0, 74, 0
2, 18912, Note_on_c, 0, 79, 93
2, 18984, Note_off_c, 0, 79, 0
2, 18984, Note_on_c, 0, 77, 93
2, 19008, Note_off_c, 0, 77, 0
2, 19008, Note_on_c, 0, 75, 93
2, 19080, Note_off_c, 0, 75, 0
2, 19080, Note_on_c, 0, 74, 93
2, 19104, Note_off_c, 0, 74, 0
2, 19104, Note_on_c, 0, 72, 93
2, 19176, Note_off_c, 0, 72, 0
2, 19176, Note_on_c, 0, 70, 93
2, 19200, Note_off_c, 0, 70, 0
2, 19200, Note_on_c, 0, 69, 93
2, 19392, Note_off_c, 0, 69, 0
2, 20808, Note_on_c, 0, 79, 93
2, 20832, Note_off_c, 0, 79, 0
2, 20832, Note_on_c, 0, 77, 93
2, 20904, Note_off_c, 0, 77, 0
2, 20904, Note_on_c, 0, 75, 93
2, 20928, Note_off_c, 0, 75, 0
2, 20928, Note_on_c, 0, 74, 93
2, 21000, Note_off_c, 0, 74, 0
2, 21000, Note_on_c, 0, 72, 93
2, 21024, Note_off_c, 0, 72, 0
2, 21024, Note_on_c, 0, 70, 93
2, 21096, Note_off_c, 0, 70, 0
2, 21096, Note_on_c, 0, 69, 93
2, 21120, Note_off_c, 0, 69, 0
2, 21120, Note_on_c, 0, 70, 93
2, 21312, Note_off_c, 0, 70, 0
2, 21312, Note_on_c, 0, 75, 93
2, 21576, Note_off_c, 0, 75, 0
2, 21576, Note_on_c, 0, 74, 93
2, 21600, Note_off_c, 0, 74, 0
2, 21600, Note_on_c, 0, 73, 93
2, 21672, Note_off_c, 0, 73, 0
2, 21672, Note_on_c, 0, 74, 93
2, 21696, Note_off_c, 0, 74, 0
2, 21696, Note_on_c, 0, 67, 93
2, 21792, Note_off_c, 0, 67, 0
2, 21792, Note_on_c, 0, 72, 93
2, 21984, Note_off_c, 0, 72, 0
2, 21984, Note_on_c, 0, 70, 93
2, 22080, Note_off_c, 0, 70, 0
2, 22080, Note_on_c, 0, 69, 93
2, 22344, Note_off_c, 0, 69, 0
2, 22344, Note_on_c, 0, 77, 93
2, 22368, Note_off_c, 0, 77, 0
2, 22368, Note_on_c, 0, 79, 93
2, 22440, Note_off_c, 0, 79, 0
2, 22440, Note_on_c, 0, 77, 93
2, 22464, Note_off_c, 0, 77, 0
2, 22464, Note_on_c, 0, 76, 93
2, 22536, Note_off_c, 0, 76, 0
2, 22536, Note_on_c, 0, 74, 93
2, 22560, Note_off_c, 0, 74, 0
2, 22560, Note_on_c, 0, 73, 93
2, 22632, Note_off_c, 0, 73, 0
2, 22632, Note_on_c, 0, 74, 93
2, 22656, Note_off_c, 0, 74, 0
2, 22656, Note_on_c, 0, 73, 93
2, 22728, Note_off_c, 0, 73, 0
2, 22728, Note_on_c, 0, 81, 93
2, 22752, Note_off_c, 0, 81, 0
2, 22752, Note_on_c, 0, 82, 93
2, 22824, Note_off_c, 0, 82, 0
2, 22824, Note_on_c, 0, 81, 93
2, 22848, Note_off_c, 0, 81, 0
2, 22848, Note_on_c, 0, 79, 93
2, 22920, Note_off_c, 0, 79, 0
2, 22920, Note_on_c, 0, 77, 93
2, 22944, Note_off_c, 0, 77, 0
2, 22944, Note_on_c, 0, 76, 93
2, 23016, Note_off_c, 0, 76, 0
2, 23016, Note_on_c, 0, 77, 93
2, 23040, Note_off_c, 0, 77, 0
2, 23040, Note_on_c, 0, 79, 93
2, 23112, Note_off_c, 0, 79, 0
2, 23112, Note_on_c, 0, 77, 93
2, 23136, Note_off_c, 0, 77, 0
2, 23136, Note_on_c, 0, 76, 93
2, 23208, Note_off_c, 0, 76, 0
2, 23208, Note_on_c, 0, 74, 93
2, 23304, Note_off_c, 0, 74, 0
2, 23304, Note_on_c, 0, 76, 93
2, 23328, Note_off_c, 0, 76, 0
2, 23328, Note_on_c, 0, 74, 93
2, 23400, Note_off_c, 0, 74, 0
2, 23400, Note_on_c, 0, 73, 93
2, 23424, Note_off_c, 0, 73, 0
2, 23424, Note_on_c, 0, 74, 93
2, 23520, Note_off_c, 0, 74, 0
2, 23712, Note_on_c, 0, 70, 93
2, 23880, Note_off_c, 0, 70, 0
2, 23880, Note_on_c, 0, 70, 93
2, 23904, Note_off_c, 0, 70, 0
2, 23904, Note_on_c, 0, 69, 93
2, 23976, Note_off_c, 0, 69, 0
2, 23976, Note_on_c, 0, 67, 93
2, 24000, Note_off_c, 0, 67, 0
2, 24000, Note_on_c, 0, 65, 93
2, 24072, Note_off_c, 0, 65, 0
2, 24072, Note_on_c, 0, 64, 93
2, 24096, Note_off_c, 0, 64, 0
2, 24096, Note_on_c, 0, 62, 93
2, 24168, Note_off_c, 0, 62, 0
2, 24168, Note_on_c, 0, 61, 93
2, 24192, Note_off_c, 0, 61, 0
2, 24192, Note_on_c, 0, 62, 93
2, 24264, Note_off_c, 0, 62, 0
2, 24264, Note_on_c, 0, 74, 93
2, 24288, Note_off_c, 0, 74, 0
2, 24288, Note_on_c, 0, 76, 93
2, 24360, Note_off_c, 0, 76, 0
2, 24360, Note_on_c, 0, 77, 93
2, 24384, Note_off_c, 0, 77, 0
2, 24384, Note_on_c, 0, 79, 93
2, 24672, Note_off_c, 0, 79, 0
2, 24672, Note_on_c, 0, 77, 93
2, 24744, Note_off_c, 0, 77, 0
2, 24744, Note_on_c, 0, 76, 93
2, 24768, Note_off_c, 0, 76, 0
2, 24768, Note_on_c, 0, 77, 93
2, 24864, Note_off_c, 0, 77, 0
2, 24864, Note_on_c, 0, 81, 93
2, 24960, Note_off_c, 0, 81, 0
2, 24960, Note_on_c, 0, 74, 93
2, 25152, Note_off_c, 0, 74, 0
2, 25152, Note_on_c, 0, 76, 93
2, 25248, Note_off_c, 0, 76, 0
2, 25248, Note_on_c, 0, 78, 93
2, 25344, Note_off_c, 0, 78, 0
2, 25344, Note_on_c, 0, 79, 93
2, 25632, Note_off_c, 0, 79, 0
2, 25632, Note_on_c, 0, 74, 93
2, 25800, Note_off_c, 0, 74, 0
2, 25800, Note_on_c, 0, 76, 93
2, 25824, Note_off_c, 0, 76, 0
2, 25824, Note_on_c, 0, 74, 93
2, 25896, Note_off_c, 0, 74, 0
2, 25896, Note_on_c, 0, 72, 93
2, 25992, Note_off_c, 0, 72, 0
2, 25992, Note_on_c, 0, 74, 93
2, 26016, Note_off_c, 0, 74, 0
2, 26016, Note_on_c, 0, 72, 93
2, 26088, Note_off_c, 0, 72, 0
2, 26088, Note_on_c, 0, 70, 93
2, 26184, Note_off_c, 0, 70, 0
2, 26184, Note_on_c, 0, 70, 93
2, 26208, Note_off_c, 0, 70, 0
2, 26208, Note_on_c, 0, 69, 93
2, 26280, Note_off_c, 0, 69, 0
2, 26280, Note_on_c, 0, 67, 93
2, 26304, Note_off_c, 0, 67, 0
2, 26304, Note_on_c, 0, 65, 93
2, 26376, Note_off_c, 0, 65, 0
2, 26376, Note_on_c, 0, 72, 93
2, 26400, Note_off_c, 0, 72, 0
2, 26400, Note_on_c, 0, 70, 93
2, 26472, Note_off_c, 0, 70, 0
2, 26472, Note_on_c, 0, 69, 93
2, 26496, Note_off_c, 0, 69, 0
2, 26496, Note_on_c, 0, 68, 93
2, 26640, Note_off_c, 0, 68, 0
2, 26664, Note_on_c, 0, 68, 93
2, 26688, Note_off_c, 0, 68, 0
2, 26688, Note_on_c, 0, 69, 93
2, 26832, Note_off_c, 0, 69, 0
2, 26856, Note_on_c, 0, 69, 93
2, 26880, Note_off_c, 0, 69, 0
2, 26880, Note_on_c, 0, 74, 93
2, 26952, Note_off_c, 0, 74, 0
2, 26952, Note_on_c, 0, 76, 93
2, 26976, Note_off_c, 0, 76, 0
2, 26976, Note_on_c, 0, 77, 93
2, 27072, Note_off_c, 0, 77, 0
2, 27072, Note_on_c, 0, 76, 93
2, 27336, Note_off_c, 0, 76, 0
2, 27336, Note_on_c, 0, 81, 93
2, 27360, Note_off_c, 0, 81, 0
2, 27360, Note_on_c, 0, 80, 93
2, 27432, Note_off_c, 0, 80, 0
2, 27432, Note_on_c, 0, 81, 93
2, 27456, Note_off_c, 0, 81, 0
2, 27456, Note_on_c, 0, 76, 93
2, 27528, Note_off_c, 0, 76, 0
2, 27528, Note_on_c, 0, 78, 93
2, 27552, Note_off_c, 0, 78, 0
2, 27552, Note_on_c, 0, 79, 93
2, 27744, Note_off_c, 0, 79, 0
2, 27744, Note_on_c, 0, 77, 93
2, 27936, Note_off_c, 0, 77, 0
2, 27936, Note_on_c, 0, 76, 93
2, 28008, Note_off_c, 0, 76, 0
2, 28008, Note_on_c, 0, 74, 93
2, 28032, Note_off_c, 0, 74, 0
2, 28032, Note_on_c, 0, 73, 93
2, 28128, Note_off_c, 0, 73, 0
2, 28128, Note_on_c, 0, 76, 93
2, 28224, Note_off_c, 0, 76, 0
2, 28224, Note_on_c, 0, 69, 93
2, 28512, Note_off_c, 0, 69, 0
2, 28512, Note_on_c, 0, 62, 93
2, 28704, Note_off_c, 0, 62, 0
2, 28704, Note_on_c, 0, 67, 93
2, 28872, Note_off_c, 0, 67, 0
2, 28872, Note_on_c, 0, 70, 93
2, 28896, Note_off_c, 0, 70, 0
2, 28896, Note_on_c, 0, 69, 93
2, 28968, Note_off_c, 0, 69, 0
2, 28968, Note_on_c, 0, 67, 93
2, 29064, Note_off_c, 0, 67, 0
2, 29064, Note_on_c, 0, 69, 93
2, 29088, Note_off_c, 0, 69, 0
2, 29088, Note_on_c, 0, 67, 93
2, 29160, Note_off_c, 0, 67, 0
2, 29160, Note_on_c, 0, 65, 93
2, 29256, Note_off_c, 0, 65, 0
2, 29256, Note_on_c, 0, 67, 93
2, 29280, Note_off_c, 0, 67, 0
2, 29280, Note_on_c, 0, 65, 93
2, 29352, Note_off_c, 0, 65, 0
2, 29352, Note_on_c, 0, 64, 93
2, 29448, Note_off_c, 0, 64, 0
2, 29448, Note_on_c, 0, 65, 93
2, 29472, Note_off_c, 0, 65, 0
2, 29472, Note_on_c, 0, 64, 93
2, 29544, Note_off_c, 0, 64, 0
2, 29544, Note_on_c, 0, 62, 93
2, 29640, Note_off_c, 0, 62, 0
2, 29640, Note_on_c, 0, 59, 93
2, 29664, Note_off_c, 0, 59, 0
2, 29664, Note_on_c, 0, 61, 93
2, 29736, Note_off_c, 0, 61, 0
2, 29736, Note_on_c, 0, 64, 93
2, 29760, Note_off_c, 0, 64, 0
2, 29760, Note_on_c, 0, 57, 93
2, 29832, Note_off_c, 0, 57, 0
2, 29832, Note_on_c, 0, 67, 93
2, 29856, Note_off_c, 0, 67, 0
2, 29856, Note_on_c, 0, 65, 93
2, 29928, Note_off_c, 0, 65, 0
2, 29928, Note_on_c, 0, 64, 93
2, 29952, Note_off_c, 0, 64, 0
2, 29952, Note_on_c, 0, 62, 93
2, 30144, Note_off_c, 0, 62, 0
2, 30144, Note_on_c, 0, 69, 93
2, 30336, Note_off_c, 0, 69, 0
2, 30336, Note_on_c, 0, 65, 93
2, 30528, Note_off_c, 0, 65, 0
2, 30528, Note_on_c, 0, 62, 93
2, 30720, Note_off_c, 0, 62, 0
2, 30720, Note_on_c, 0, 61, 93
2, 30912, Note_off_c, 0, 61, 0
2, 30912, Note_on_c, 0, 62, 93
2, 31008, Note_off_c, 0, 62, 0
2, 31008, Note_on_c, 0, 64, 93
2, 31104, Note_off_c, 0, 64, 0
2, 31104, Note_on_c, 0, 65, 93
2, 31368, Note_off_c, 0, 65, 0
2, 31368, Note_on_c, 0, 67, 93
2, 31392, Note_off_c, 0, 67, 0
2, 31392, Note_on_c, 0, 65, 93
2, 31464, Note_off_c, 0, 65, 0
2, 31464, Note_on_c, 0, 64, 93
2, 31488, Note_off_c, 0, 64, 0
2, 31488, Note_on_c, 0, 62, 93
2, 32256, Note_off_c, 0, 62, 0
2, 32256, End_track
3, 0, Start_track
3, 0, Title_t, "Track3"
3, 0, Program_c, 1, 40
3, 0, Control_c, 1, 7, 100
3, 0, Control_c, 1, 10, 74
3, 3072, Note_on_c, 1, 62, 93
3, 3264, Note_off_c, 1, 62, 0
3, 3264, Note_on_c, 1, 69, 93
3, 3456, Note_off_c, 1, 69, 0
3, 3456, Note_on_c, 1, 65, 93
3, 3648, Note_off_c, 1, 65, 0
3, 3648, Note_on_c, 1, 62, 93
3, 3840, Note_off_c, 1, 62, 0
3, 3840, Note_on_c, 1, 61, 93
3, 4032, Note_off_c, 1, 61, 0
3, 4032, Note_on_c, 1, 62, 93
3, 4128, Note_off_c, 1, 62, 0
3, 4128, Note_on_c, 1, 64, 93
3, 4224, Note_off_c, 1, 64, 0
3, 4224, Note_on_c, 1, 65, 93
3, 4488, Note_off_c, 1, 65, 0
3, 4488, Note_on_c, 1, 67, 93
3, 4512, Note_off_c, 1, 67, 0
3, 4512, Note_on_c, 1, 65, 93
3, 4584, Note_off_c, 1, 65, 0
3, 4584, Note_on_c, 1, 64, 93
3, 4608, Note_off_c, 1, 64, 0
3, 4608, Note_on_c, 1, 62, 93
3, 4680, Note_off_c, 1, 62, 0
3, 4680, Note_on_c, 1, 64, 93
3, 4704, Note_off_c, 1, 64, 0
3, 4704, Note_on_c, 1, 65, 93
3, 4776, Note_off_c, 1, 65, 0
3, 4776, Note_on_c, 1, 67, 93
3, 4800, Note_off_c, 1, 67, 0
3, 4800, Note_on_c, 1, 69, 93
3, 5064, Note_off_c, 1, 69, 0
3, 5064, Note_on_c, 1, 67, 93
3, 5088, Note_off_c, 1, 67, 0
3, 5088, Note_on_c, 1, 65, 93
3, 5160, Note_off_c, 1, 65, 0
3, 5160, Note_on_c, 1, 64, 93
3, 5256, Note_off_c, 1, 64, 0
3, 5256, Note_on_c, 1, 65, 93
3, 5280, Note_off_c, 1, 65, 0
3, 5280, Note_on_c, 1, 64, 93
3, 5352, Note_off_c, 1, 64, 0
3, 5352, Note_on_c, 1, 62, 93
3, 5448, Note_off_c, 1, 62, 0
3, 5448, Note_on_c, 1, 62, 93
3, 5472, Note_off_c, 1, 62, 0
3, 5472, Note_on_c, 1, 64, 93
3, 5544, Note_off_c, 1, 64, 0
3, 5544, Note_on_c, 1, 65, 93
3, 5568, Note_off_c, 1, 65, 0
3, 5568, Note_on_c, 1, 64, 93
3, 5664, Note_off_c, 1, 64, 0
3, 5664, Note_on_c, 1, 62, 93
3, 5760, Note_off_c, 1, 62, 0
3, 5760, Note_on_c, 1, 60, 93
3, 5856, Note_off_c, 1, 60, 0
3, 5856, Note_on_c, 1, 64, 93
3, 5952, Note_off_c, 1, 64, 0
3, 5952, Note_on_c, 1, 65, 93
3, 6048, Note_off_c, 1, 65, 0
3, 6048, Note_on_c, 1, 64, 93
3, 6216, Note_off_c, 1, 64, 0
3, 6216, Note_on_c, 1, 61, 93
3, 6240, Note_off_c, 1, 61, 0
3, 6240, Note_on_c, 1, 62, 93
3, 6312, Note_off_c, 1, 62, 0
3, 6312, Note_on_c, 1, 64, 93
3, 6336, Note_off_c, 1, 64, 0
3, 6336, Note_on_c, 1, 65, 93
3, 6432, Note_off_c, 1, 65, 0
3, 6432, Note_on_c, 1, 64, 93
3, 6600, Note_off_c, 1, 64, 0
3, 6600, Note_on_c, 1, 64, 93
3, 6624, Note_off_c, 1, 64, 0
3, 6624, Note_on_c, 1, 62, 93
3, 6696, Note_off_c, 1, 62, 0
3, 6696, Note_on_c, 1, 61, 93
3, 6720, Note_off_c, 1, 61, 0
3, 6720, Note_on_c, 1, 62, 93
3, 6816, Note_off_c, 1, 62, 0
3, 6816, Note_on_c, 1, 60, 93
3, 7008, Note_off_c, 1, 60, 0
3, 7008, Note_on_c, 1, 58, 93
3, 7080, Note_off_c, 1, 58, 0
3, 7080, Note_on_c, 1, 57, 93
3, 7104, Note_off_c, 1, 57, 0
3, 7104, Note_on_c, 1, 58, 93
3, 7200, Note_off_c, 1, 58, 0
3, 7200, Note_on_c, 1, 57, 93
3, 7368, Note_off_c, 1, 57, 0
3, 7368, Note_on_c, 1, 54, 93
3, 7392, Note_off_c, 1, 54, 0
3, 7392, Note_on_c, 1, 55, 93
3, 7464, Note_off_c, 1, 55, 0
3, 7464, Note_on_c, 1, 57, 93
3, 7488, Note_off_c, 1, 57, 0
3, 7488, Note_on_c, 1, 58, 93
3, 7584, Note_off_c, 1, 58, 0
3, 7584, Note_on_c, 1, 57, 93
3, 7680, Note_off_c, 1, 57, 0
3, 7680, Note_on_c, 1, 56, 93
3, 7776, Note_off_c, 1, 56, 0
3, 8256, Note_on_c, 1, 59, 93
3, 8448, Note_off_c, 1, 59, 0
3, 8448, Note_on_c, 1, 57, 93
3, 8520, Note_off_c, 1, 57, 0
3, 8520, Note_on_c, 1, 64, 93
3, 8544, Note_off_c, 1, 64, 0
3, 8544, Note_on_c, 1, 65, 93
3, 8616, Note_off_c, 1, 65, 0
3, 8616, Note_on_c, 1, 67, 93
3, 8640, Note_off_c, 1, 67, 0
3, 8640, Note_on_c, 1, 69, 93
3, 8832, Note_off_c, 1, 69, 0
3, 8832, Note_on_c, 1, 65, 93
3, 9024, Note_off_c, 1, 65, 0
3, 9024, Note_on_c, 1, 62, 93
3, 9216, Note_off_c, 1, 62, 0
3, 9216, Note_on_c, 1, 61, 93
3, 9408, Note_off_c, 1, 61, 0
3, 9408, Note_on_c, 1, 62, 93
3, 9504, Note_off_c, 1, 62, 0
3, 9504, Note_on_c, 1, 64, 93
3, 9600, Note_off_c, 1, 64, 0
3, 9600, Note_on_c, 1, 65, 93
3, 9864, Note_off_c, 1, 65, 0
3, 9864, Note_on_c, 1, 69, 93
3, 9888, Note_off_c, 1, 69, 0
3, 9888, Note_on_c, 1, 68, 93
3, 9960, Note_off_c, 1, 68, 0
3, 9960, Note_on_c, 1, 66, 93
3, 9984, Note_off_c, 1, 66, 0
3, 9984, Note_on_c, 1, 64, 93
3, 10248, Note_off_c, 1, 64, 0
3, 10248, Note_on_c, 1, 57, 93
3, 10272, Note_off_c, 1, 57, 0
3, 10272, Note_on_c, 1, 62, 93
3, 10344, Note_off_c, 1, 62, 0
3, 10344, Note_on_c, 1, 60, 93
3, 10368, Note_off_c, 1, 60, 0
3, 10368, Note_on_c, 1, 59, 93
3, 10560, Note_off_c, 1, 59, 0
3, 10632, Note_on_c, 1, 64, 93
3, 10656, Note_off_c, 1, 64, 0
3, 10656, Note_on_c, 1, 66, 93
3, 10728, Note_off_c, 1, 66, 0
3, 10728, Note_on_c, 1, 68, 93
3, 10752, Note_off_c, 1, 68, 0
3, 10752, Note_on_c, 1, 69, 93
3, 11040, Note_off_c, 1, 69, 0
3, 11040, Note_on_c, 1, 68, 93
3, 11136, Note_off_c, 1, 68, 0
3, 11136, Note_on_c, 1, 69, 93
3, 11208, Note_off_c, 1, 69, 0
3, 11208, Note_on_c, 1, 67, 93
3, 11232, Note_off_c, 1, 67, 0
3, 11232, Note_on_c, 1, 65, 93
3, 11304, Note_off_c, 1, 65, 0
3, 11304, Note_on_c, 1, 64, 93
3, 11328, Note_off_c, 1, 64, 0
3, 11328, Note_on_c, 1, 62, 93
3, 11424, Note_off_c, 1, 62, 0
3, 11424, Note_on_c, 1, 67, 93
3, 11520, Note_off_c, 1, 67, 0
3, 11520, Note_on_c, 1, 65, 93
3, 11712, Note_off_c, 1, 65, 0
3, 11712, Note_on_c, 1, 64, 93
3, 11904, Note_off_c, 1, 64, 0
3, 11904, Note_on_c, 1, 62, 93
3, 12096, Note_off_c, 1, 62, 0
3, 12360, Note_on_c, 1, 70, 93
3, 12384, Note_off_c, 1, 70, 0
3, 12384, Note_on_c, 1, 69, 93
3, 12456, Note_off_c, 1, 69, 0
3, 12456, Note_on_c, 1, 67, 93
3, 12480, Note_off_c, 1, 67, 0
3, 12480, Note_on_c, 1, 65, 93
3, 12552, Note_off_c, 1, 65, 0
3, 12552, Note_on_c, 1, 64, 93
3, 12576, Note_off_c, 1, 64, 0
3, 12576, Note_on_c, 1, 62, 93
3, 12648, Note_off_c, 1, 62, 0
3, 12648, Note_on_c, 1, 61, 93
3, 12672, Note_off_c, 1, 61, 0
3, 12672, Note_on_c, 1, 62, 93
3, 12768, Note_off_c, 1, 62, 0
3, 12768, Note_on_c, 1, 74, 93
3, 12864, Note_off_c, 1, 74, 0
3, 12864, Note_on_c, 1, 71, 93
3, 12960, Note_off_c, 1, 71, 0
3, 12960, Note_on_c, 1, 73, 93
3, 13056, Note_off_c, 1, 73, 0
3, 13056, Note_on_c, 1, 74, 93
3, 13152, Note_off_c, 1, 74, 0
3, 13344, Note_on_c, 1, 72, 93
3, 13512, Note_off_c, 1, 72, 0
3, 13512, Note_on_c, 1, 70, 93
3, 13536, Note_off_c, 1, 70, 0
3, 13536, Note_on_c, 1, 69, 93
3, 13608, Note_off_c, 1, 69, 0
3, 13608, Note_on_c, 1, 67, 93
3, 13632, Note_off_c, 1, 67, 0
3, 13632, Note_on_c, 1, 69, 93
3, 13824, Note_off_c, 1, 69, 0
3, 13824, Note_on_c, 1, 68, 93
3, 13920, Note_off_c, 1, 68, 0
3, 13920, Note_on_c, 1, 72, 93
3, 14016, Note_off_c, 1, 72, 0
3, 14016, Note_on_c, 1, 66, 93
3, 14112, Note_off_c, 1, 66, 0
3, 14112, Note_on_c, 1, 68, 93
3, 14208, Note_off_c, 1, 68, 0
3, 14208, Note_on_c, 1, 69, 93
3, 14280, Note_off_c, 1, 69, 0
3, 14280, Note_on_c, 1, 70, 93
3, 14304, Note_off_c, 1, 70, 0
3, 14304, Note_on_c, 1, 69, 93
3, 14376, Note_off_c, 1, 69, 0
3, 14376, Note_on_c, 1, 67, 93
3, 14400, Note_off_c, 1, 67, 0
3, 14400, Note_on_c, 1, 65, 93
3, 14472, Note_off_c, 1, 65, 0
3, 14472, Note_on_c, 1, 69, 93
3, 14496, Note_off_c, 1, 69, 0
3, 14496, Note_on_c, 1, 67, 93
3, 14568, Note_off_c, 1, 67, 0
3, 14568, Note_on_c, 1, 65, 93
3, 14664, Note_off_c, 1, 65, 0
3, 14664, Note_on_c, 1, 64, 93
3, 14688, Note_off_c, 1, 64, 0
3, 14688, Note_on_c, 1, 66, 93
3, 14760, Note_off_c, 1, 66, 0
3, 14760, Note_on_c, 1, 68, 93
3, 14784, Note_off_c, 1, 68, 0
3, 14784, Note_on_c, 1, 69, 93
3, 14856, Note_off_c, 1, 69, 0
3, 14856, Note_on_c, 1, 71, 93
3, 14880, Note_off_c, 1, 71, 0
3, 14880, Note_on_c, 1, 72, 93
3, 14952, Note_off_c, 1, 72, 0
3, 14952, Note_on_c, 1, 69, 93
3, 14976, Note_off_c, 1, 69, 0
3, 14976, Note_on_c, 1, 71, 93
3, 15240, Note_off_c, 1, 71, 0
3, 15240, Note_on_c, 1, 69, 93
3, 15264, Note_off_c, 1, 69, 0
3, 15264, Note_on_c, 1, 68, 93
3, 15336, Note_off_c, 1, 68, 0
3, 15336, Note_on_c, 1, 69, 93
3, 15360, Note_off_c, 1, 69, 0
3, 15360, Note_on_c, 1, 63, 93
3, 15432, Note_off_c, 1, 63, 0
3, 15432, Note_on_c, 1, 57, 93
3, 15456, Note_off_c, 1, 57, 0
3, 15456, Note_on_c, 1, 69, 93
3, 15648, Note_off_c, 1, 69, 0
3, 15648, Note_on_c, 1, 64, 93
3, 15840, Note_off_c, 1, 64, 0
3, 15840, Note_on_c, 1, 65, 93
3, 15936, Note_off_c, 1, 65, 0
3, 15936, Note_on_c, 1, 62, 93
3, 16032, Note_off_c, 1, 62, 0
3, 16032, Note_on_c, 1, 67, 93
3, 16128, Note_off_c, 1, 67, 0
3, 16128, Note_on_c, 1, 60, 93
3, 16200, Note_off_c, 1, 60, 0
3, 16200, Note_on_c, 1, 65, 93
3, 16224, Note_off_c, 1, 65, 0
3, 16224, Note_on_c, 1, 64, 93
3, 16296, Note_off_c, 1, 64, 0
3, 16296, Note_on_c, 1, 62, 93
3, 16392, Note_off_c, 1, 62, 0
3, 16392, Note_on_c, 1, 64, 93
3, 16416, Note_off_c, 1, 64, 0
3, 16416, Note_on_c, 1, 62, 93
3, 16488, Note_off_c, 1, 62, 0
3, 16488, Note_on_c, 1, 61, 93
3, 16512, Note_off_c, 1, 61, 0
3, 16512, Note_on_c, 1, 62, 93
3, 16800, Note_off_c, 1, 62, 0
3, 16800, Note_on_c, 1, 67, 93
3, 16896, Note_off_c, 1, 67, 0
3, 16896, Note_on_c, 1, 60, 93
3, 17160, Note_off_c, 1, 60, 0
3, 17160, Note_on_c, 1, 58, 93
3, 17184, Note_off_c, 1, 58, 0
3, 17184, Note_on_c, 1, 57, 93
3, 17256, Note_off_c, 1, 57, 0
3, 17256, Note_on_c, 1, 55, 93
3, 17280, Note_off_c, 1, 55, 0
3, 17280, Note_on_c, 1, 53, 93
3, 17352, Note_off_c, 1, 53, 0
3, 17352, Note_on_c, 1, 65, 93
3, 17376, Note_off_c, 1, 65, 0
3, 17376, Note_on_c, 1, 67, 93
3, 17448, Note_off_c, 1, 67, 0
3, 17448, Note_on_c, 1, 69, 93
3, 17472, Note_off_c, 1, 69, 0
3, 17472, Note_on_c, 1, 70, 93
3, 17544, Note_off_c, 1, 70, 0
3, 17544, Note_on_c, 1, 72, 93
3, 17568, Note_off_c, 1, 72, 0
3, 17568, Note_on_c, 1, 74, 93
3, 17640, Note_off_c, 1, 74, 0
3, 17640, Note_on_c, 1, 70, 93
3, 17664, Note_off_c, 1, 70, 0
3, 17664, Note_on_c, 1, 72, 93
3, 17760, Note_off_c, 1, 72, 0
3, 17760, Note_on_c, 1, 67, 93
3, 17856, Note_off_c, 1, 67, 0
3, 17856, Note_on_c, 1, 72, 93
3, 18240, Note_off_c, 1, 72, 0
3, 18240, Note_on_c, 1, 74, 93
3, 18336, Note_off_c, 1, 74, 0
3, 18336, Note_on_c, 1, 72, 93
3, 18408, Note_off_c, 1, 72, 0
3, 18408, Note_on_c, 1, 70, 93
3, 18432, Note_off_c, 1, 70, 0
3, 18432, Note_on_c, 1, 69, 93
3, 18624, Note_off_c, 1, 69, 0
3, 18624, Note_on_c, 1, 74, 93
3, 18816, Note_off_c, 1, 74, 0
3, 18816, Note_on_c, 1, 70, 93
3, 19008, Note_off_c, 1, 70, 0
3, 19008, Note_on_c, 1, 67, 93
3, 19200, Note_off_c, 1, 67, 0
3, 19200, Note_on_c, 1, 66, 93
3, 19392, Note_off_c, 1, 66, 0
3, 19392, Note_on_c, 1, 67, 93
3, 19488, Note_off_c, 1, 67, 0
3, 19488, Note_on_c, 1, 69, 93
3, 19584, Note_off_c, 1, 69, 0
3, 19584, Note_on_c, 1, 70, 93
3, 19848, Note_off_c, 1, 70, 0
3, 19848, Note_on_c, 1, 72, 93
3, 19872, Note_off_c, 1, 72, 0
3, 19872, Note_on_c, 1, 70, 93
3, 19944, Note_off_c, 1, 70, 0
3, 19944, Note_on_c, 1, 69, 93
3, 19968, Note_off_c, 1, 69, 0
3, 19968, Note_on_c, 1, 67, 93
3, 20064, Note_off_c, 1, 67, 0
3, 20064, Note_on_c, 1, 70, 93
3, 20160, Note_off_c, 1, 70, 0
3, 20160, Note_on_c, 1, 69, 93
3, 20256, Note_off_c, 1, 69, 0
3, 20256, Note_on_c, 1, 72, 93
3, 20424, Note_off_c, 1, 72, 0
3, 20424, Note_on_c, 1, 65, 93
3, 20448, Note_off_c, 1, 65, 0
3, 20448, Note_on_c, 1, 67, 93
3, 20520, Note_off_c, 1, 67, 0
3, 20520, Note_on_c, 1, 69, 93
3, 20544, Note_off_c, 1, 69, 0
3, 20544, Note_on_c, 1, 70, 93
3, 20616, Note_off_c, 1, 70, 0
3, 20616, Note_on_c, 1, 72, 93
3, 20640, Note_off_c, 1, 72, 0
3, 20640, Note_on_c, 1, 74, 93
3, 20712, Note_off_c, 1, 74, 0
3, 20712, Note_on_c, 1, 70, 93
3, 20736, Note_off_c, 1, 70, 0
3, 20736, Note_on_c, 1, 72, 93
3, 20928, Note_off_c, 1, 72, 0
3, 20928, Note_on_c, 1, 65, 93
3, 21192, Note_off_c, 1, 65, 0
3, 21192, Note_on_c, 1, 68, 93
3, 21216, Note_off_c, 1, 68, 0
3, 21216, Note_on_c, 1, 67, 93
3, 21288, Note_off_c, 1, 67, 0
3, 21288, Note_on_c, 1, 65, 93
3, 21312, Note_off_c, 1, 65, 0
3, 21312, Note_on_c, 1, 67, 93
3, 21408, Note_off_c, 1, 67, 0
3, 21408, Note_on_c, 1, 69, 93
3, 21504, Note_off_c, 1, 69, 0
3, 21504, Note_on_c, 1, 70, 93
3, 21696, Note_off_c, 1, 70, 0
3, 21960, Note_on_c, 1, 67, 93
3, 21984, Note_off_c, 1, 67, 0
3, 21984, Note_on_c, 1, 66, 93
3, 22056, Note_off_c, 1, 66, 0
3, 22056, Note_on_c, 1, 67, 93
3, 22080, Note_off_c, 1, 67, 0
3, 22080, Note_on_c, 1, 64, 93
3, 22176, Note_off_c, 1, 64, 0
3, 22176, Note_on_c, 1, 65, 93
3, 22344, Note_off_c, 1, 65, 0
3, 22344, Note_on_c, 1, 62, 93
3, 22368, Note_off_c, 1, 62, 0
3, 22368, Note_on_c, 1, 61, 93
3, 22440, Note_off_c, 1, 61, 0
3, 22440, Note_on_c, 1, 62, 93
3, 22464, Note_off_c, 1, 62, 0
3, 22464, Note_on_c, 1, 67, 93
3, 22752, Note_off_c, 1, 67, 0
3, 22752, Note_on_c, 1, 65, 93
3, 22848, Note_off_c, 1, 65, 0
3, 22848, Note_on_c, 1, 64, 93
3, 22944, Note_off_c, 1, 64, 0
3, 22944, Note_on_c, 1, 69, 93
3, 23136, Note_off_c, 1, 69, 0
3, 23496, Note_on_c, 1, 70, 93
3, 23520, Note_off_c, 1, 70, 0
3, 23520, Note_on_c, 1, 69, 93
3, 23592, Note_off_c, 1, 69, 0
3, 23592, Note_on_c, 1, 67, 93
3, 23688, Note_off_c, 1, 67, 0
3, 23688, Note_on_c, 1, 69, 93
3, 23712, Note_off_c, 1, 69, 0
3, 23712, Note_on_c, 1, 67, 93
3, 23784, Note_off_c, 1, 67, 0
3, 23784, Note_on_c, 1, 65, 93
3, 23808, Note_off_c, 1, 65, 0
3, 23808, Note_on_c, 1, 64, 93
3, 23904, Note_off_c, 1, 64, 0
3, 23904, Note_on_c, 1, 57, 93
3, 24000, Note_off_c, 1, 57, 0
3, 24000, Note_on_c, 1, 58, 93
3, 24192, Note_off_c, 1, 58, 0
3, 24192, Note_on_c, 1, 57, 93
3, 24288, Note_off_c, 1, 57, 0
3, 24288, Note_on_c, 1, 69, 93
3, 24384, Note_off_c, 1, 69, 0
3, 24384, Note_on_c, 1, 71, 93
3, 24480, Note_off_c, 1, 71, 0
3, 24480, Note_on_c, 1, 73, 93
3, 24576, Note_off_c, 1, 73, 0
3, 24576, Note_on_c, 1, 74, 93
3, 24672, Note_off_c, 1, 74, 0
3, 25032, Note_on_c, 1, 67, 93
3, 25056, Note_off_c, 1, 67, 0
3, 25056, Note_on_c, 1, 69, 93
3, 25128, Note_off_c, 1, 69, 0
3, 25128, Note_on_c, 1, 70, 93
3, 25152, Note_off_c, 1, 70, 0
3, 25152, Note_on_c, 1, 72, 93
3, 25440, Note_off_c, 1, 72, 0
3, 25440, Note_on_c, 1, 70, 93
3, 25512, Note_off_c, 1, 70, 0
3, 25512, Note_on_c, 1, 69, 93
3, 25536, Note_off_c, 1, 69, 0
3, 25536, Note_on_c, 1, 70, 93
3, 25632, Note_off_c, 1, 70, 0
3, 25632, Note_on_c, 1, 69, 93
3, 25728, Note_off_c, 1, 69, 0
3, 25728, Note_on_c, 1, 67, 93
3, 25920, Note_off_c, 1, 67, 0
3, 25920, Note_on_c, 1, 65, 93
3, 26112, Note_off_c, 1, 65, 0
3, 26112, Note_on_c, 1, 64, 93
3, 26304, Note_off_c, 1, 64, 0
3, 26304, Note_on_c, 1, 62, 93
3, 26400, Note_off_c, 1, 62, 0
3, 26400, Note_on_c, 1, 65, 93
3, 26568, Note_off_c, 1, 65, 0
3, 26568, Note_on_c, 1, 65, 93
3, 26592, Note_off_c, 1, 65, 0
3, 26592, Note_on_c, 1, 64, 93
3, 26760, Note_off_c, 1, 64, 0
3, 26760, Note_on_c, 1, 64, 93
3, 26784, Note_off_c, 1, 64, 0
3, 26784, Note_on_c, 1, 62, 93
3, 26880, Note_off_c, 1, 62, 0
3, 27048, Note_on_c, 1, 74, 93
3, 27072, Note_off_c, 1, 74, 0
3, 27072, Note_on_c, 1, 72, 93
3, 27144, Note_off_c, 1, 72, 0
3, 27144, Note_on_c, 1, 71, 93
3, 27168, Note_off_c, 1, 71, 0
3, 27168, Note_on_c, 1, 69, 93
3, 27240, Note_off_c, 1, 69, 0
3, 27240, Note_on_c, 1, 68, 93
3, 27264, Note_off_c, 1, 68, 0
3, 27264, Note_on_c, 1, 69, 93
3, 27456, Note_off_c, 1, 69, 0
3, 27552, Note_on_c, 1, 76, 93
3, 27720, Note_off_c, 1, 76, 0
3, 27720, Note_on_c, 1, 69, 93
3, 27744, Note_off_c, 1, 69, 0
3, 27744, Note_on_c, 1, 74, 93
3, 27816, Note_off_c, 1, 74, 0
3, 27816, Note_on_c, 1, 72, 93
3, 27840, Note_off_c, 1, 72, 0
3, 27840, Note_on_c, 1, 70, 93
3, 27912, Note_off_c, 1, 70, 0
3, 27912, Note_on_c, 1, 69, 93
3, 27936, Note_off_c, 1, 69, 0
3, 27936, Note_on_c, 1, 67, 93
3, 28008, Note_off_c, 1, 67, 0
3, 28008, Note_on_c, 1, 65, 93
3, 28032, Note_off_c, 1, 65, 0
3, 28032, Note_on_c, 1, 64, 93
3, 28296, Note_off_c, 1, 64, 0
3, 28296, Note_on_c, 1, 67, 93
3, 28320, Note_off_c, 1, 67, 0
3, 28320, Note_on_c, 1, 65, 93
3, 28392, Note_off_c, 1, 65, 0
3, 28392, Note_on_c, 1, 64, 93
3, 28416, Note_off_c, 1, 64, 0
3, 28416, Note_on_c, 1, 62, 93
3, 28488, Note_off_c, 1, 62, 0
3, 28488, Note_on_c, 1, 60, 93
3, 28512, Note_off_c, 1, 60, 0
3, 28512, Note_on_c, 1, 58, 93
3, 28584, Note_off_c, 1, 58, 0
3, 28584, Note_on_c, 1, 57, 93
3, 28608, Note_off_c, 1, 57, 0
3, 28608, Note_on_c, 1, 58, 93
3, 28800, Note_off_c, 1, 58, 0
3, 28800, Note_on_c, 1, 57, 93
3, 29088, Note_off_c, 1, 57, 0
3, 29088, Note_on_c, 1, 59, 93
3, 29184, Note_off_c, 1, 59, 0
3, 29184, Note_on_c, 1, 61, 93
3, 29376, Note_off_c, 1, 61, 0
3, 29376, Note_on_c, 1, 56, 93
3, 29568, Note_off_c, 1, 56, 0
3, 29568, Note_on_c, 1, 57, 93
3, 29760, Note_off_c, 1, 57, 0
3, 29856, Note_on_c, 1, 61, 93
3, 29952, Note_off_c, 1, 61, 0
3, 29952, Note_on_c, 1, 62, 93
3, 30024, Note_off_c, 1, 62, 0
3, 30024, Note_on_c, 1, 65, 93
3, 30048, Note_off_c, 1, 65, 0
3, 30048, Note_on_c, 1, 64, 93
3, 30120, Note_off_c, 1, 64, 0
3, 30120, Note_on_c, 1, 62, 93
3, 30144, Note_off_c, 1, 62, 0
3, 30144, Note_on_c, 1, 61, 93
3, 30216, Note_off_c, 1, 61, 0
3, 30216, Note_on_c, 1, 57, 93
3, 30240, Note_off_c, 1, 57, 0
3, 30240, Note_on_c, 1, 59, 93
3, 30312, Note_off_c, 1, 59, 0
3, 30312, Note_on_c, 1, 61, 93
3, 30336, Note_off_c, 1, 61, 0
3, 30336, Note_on_c, 1, 62, 93
3, 30432, Note_off_c, 1, 62, 0
3, 30432, Note_on_c, 1, 60, 93
3, 30624, Note_off_c, 1, 60, 0
3, 30624, Note_on_c, 1, 58, 93
3, 30792, Note_off_c, 1, 58, 0
3, 30792, Note_on_c, 1, 58, 93
3, 30816, Note_off_c, 1, 58, 0
3, 30816, Note_on_c, 1, 57, 93
3, 30888, Note_off_c, 1, 57, 0
3, 30888, Note_on_c, 1, 55, 93
3, 30912, Note_off_c, 1, 55, 0
3, 30912, Note_on_c, 1, 53, 93
3, 31008, Note_off_c, 1, 53, 0
3, 31008, Note_on_c, 1, 58, 93
3, 31104, Note_off_c, 1, 58, 0
3, 31104, Note_on_c, 1, 57, 93
3, 31296, Note_off_c, 1, 57, 0
3, 31296, Note_on_c, 1, 58, 93
3, 31392, Note_off_c, 1, 58, 0
3, 31392, Note_on_c, 1, 57, 93
3, 31560, Note_off_c, 1, 57, 0
3, 31560, Note_on_c, 1, 54, 93
3, 31584, Note_off_c, 1, 54, 0
3, 31584, Note_on_c, 1, 55, 93
3, 31656, Note_off_c, 1, 55, 0
3, 31656, Note_on_c, 1, 57, 93
3, 31680, Note_off_c, 1, 57, 0
3, 31680, Note_on_c, 1, 58, 93
3, 31944, Note_off_c, 1, 58, 0
3, 31944, Note_on_c, 1, 57, 93
3, 31968, Note_off_c, 1, 57, 0
3, 31968, Note_on_c, 1, 58, 93
3, 32040, Note_off_c, 1, 58, 0
3, 32040, Note_on_c, 1, 55, 93
3, 32064, Note_off_c, 1, 55, 0
3, 32064, Note_on_c, 1, 57, 93
3, 32256, Note_off_c, 1, 57, 0
3, 32256, End_track
4, 0, Start_track
4, 0, Title_t, "Track4"
4, 0, Program_c, 2, 41
4, 0, Control_c, 2, 7, 100
4, 0, Control_c, 2, 10, 54
4, 1536, Note_on_c, 2, 57, 93
4, 1728, Note_off_c, 2, 57, 0
4, 1728, Note_on_c, 2, 62, 93
4, 1920, Note_off_c, 2, 62, 0
4, 1920, Note_on_c, 2, 60, 93
4, 2112, Note_off_c, 2, 60, 0
4, 2112, Note_on_c, 2, 57, 93
4, 2304, Note_off_c, 2, 57, 0
4, 2304, Note_on_c, 2, 56, 93
4, 2496, Note_off_c, 2, 56, 0
4, 2496, Note_on_c, 2, 57, 93
4, 2592, Note_off_c, 2, 57, 0
4, 2592, Note_on_c, 2, 59, 93
4, 2688, Note_off_c, 2, 59, 0
4, 2688, Note_on_c, 2, 60, 93
4, 2952, Note_off_c, 2, 60, 0
4, 2952, Note_on_c, 2, 62, 93
4, 2976, Note_off_c, 2, 62, 0
4, 2976, Note_on_c, 2, 60, 93
4, 3048, Note_off_c, 2, 60, 0
4, 3048, Note_on_c, 2, 58, 93
4, 3072, Note_off_c, 2, 58, 0
4, 3072, Note_on_c, 2, 57, 93
4, 3336, Note_off_c, 2, 57, 0
4, 3336, Note_on_c, 2, 67, 93
4, 3360, Note_off_c, 2, 67, 0
4, 3360, Note_on_c, 2, 65, 93
4, 3432, Note_off_c, 2, 65, 0
4, 3432, Note_on_c, 2, 64, 93
4, 3456, Note_off_c, 2, 64, 0
4, 3456, Note_on_c, 2, 62, 93
4, 3528, Note_off_c, 2, 62, 0
4, 3528, Note_on_c, 2, 60, 93
4, 3552, Note_off_c, 2, 60, 0
4, 3552, Note_on_c, 2, 58, 93
4, 3624, Note_off_c, 2, 58, 0
4, 3624, Note_on_c, 2, 57, 93
4, 3648, Note_off_c, 2, 57, 0
4, 3648, Note_on_c, 2, 58, 93
4, 3720, Note_off_c, 2, 58, 0
4, 3720, Note_on_c, 2, 57, 93
4, 3744, Note_off_c, 2, 57, 0
4, 3744, Note_on_c, 2, 55, 93
4, 3816, Note_off_c, 2, 55, 0
4, 3816, Note_on_c, 2, 53, 93
4, 3840, Note_off_c, 2, 53, 0
4, 3840, Note_on_c, 2, 52, 93
4, 4032, Note_off_c, 2, 52, 0
4, 4104, Note_on_c, 2, 57, 93
4, 4128, Note_off_c, 2, 57, 0
4, 4128, Note_on_c, 2, 59, 93
4, 4200, Note_off_c, 2, 59, 0
4, 4200, Note_on_c, 2, 61, 93
4, 4224, Note_off_c, 2, 61, 0
4, 4224, Note_on_c, 2, 62, 93
4, 4512, Note_off_c, 2, 62, 0
4, 4512, Note_on_c, 2, 61, 93
4, 4608, Note_off_c, 2, 61, 0
4, 4608, Note_on_c, 2, 62, 93
4, 4752, Note_off_c, 2, 62, 0
4, 4776, Note_on_c, 2, 64, 93
4, 4800, Note_off_c, 2, 64, 0
4, 4800, Note_on_c, 2, 65, 93
4, 4992, Note_off_c, 2, 65, 0
4, 4992, Note_on_c, 2, 64, 93
4, 5088, Note_off_c, 2, 64, 0
4, 5088, Note_on_c, 2, 60, 93
4, 5280, Note_off_c, 2, 60, 0
4, 5280, Note_on_c, 2, 57, 93
4, 5376, Note_off_c, 2, 57, 0
4, 5376, Note_on_c, 2, 59, 93
4, 5568, Note_off_c, 2, 59, 0
4, 5640, Note_on_c, 2, 52, 93
4, 5664, Note_off_c, 2, 52, 0
4, 5664, Note_on_c, 2, 54, 93
4, 5736, Note_off_c, 2, 54, 0
4, 5736, Note_on_c, 2, 56, 93
4, 5760, Note_off_c, 2, 56, 0
4, 5760, Note_on_c, 2, 57, 93
4, 6048, Note_off_c, 2, 57, 0
4, 6048, Note_on_c, 2, 56, 93
4, 6144, Note_off_c, 2, 56, 0
4, 6144, Note_on_c, 2, 57, 93
4, 6240, Note_off_c, 2, 57, 0
4, 6240, Note_on_c, 2, 59, 93
4, 6312, Note_off_c, 2, 59, 0
4, 6312, Note_on_c, 2, 61, 93
4, 6336, Note_off_c, 2, 61, 0
4, 6336, Note_on_c, 2, 62, 93
4, 6432, Note_off_c, 2, 62, 0
4, 6432, Note_on_c, 2, 55, 93
4, 6600, Note_off_c, 2, 55, 0
4, 6600, Note_on_c, 2, 55, 93
4, 6624, Note_off_c, 2, 55, 0
4, 6624, Note_on_c, 2, 53, 93
4, 6696, Note_off_c, 2, 53, 0
4, 6696, Note_on_c, 2, 52, 93
4, 6720, Note_off_c, 2, 52, 0
4, 6720, Note_on_c, 2, 53, 93
4, 6816, Note_off_c, 2, 53, 0
4, 6816, Note_on_c, 2, 54, 93
4, 6984, Note_off_c, 2, 54, 0
4, 6984, Note_on_c, 2, 50, 93
4, 7008, Note_off_c, 2, 50, 0
4, 7008, Note_on_c, 2, 52, 93
4, 7080, Note_off_c, 2, 52, 0
4, 7080, Note_on_c, 2, 54, 93
4, 7104, Note_off_c, 2, 54, 0
4, 7104, Note_on_c, 2, 55, 93
4, 7200, Note_off_c, 2, 55, 0
4, 7200, Note_on_c, 2, 48, 93
4, 7368, Note_off_c, 2, 48, 0
4, 7368, Note_on_c, 2, 45, 93
4, 7392, Note_off_c, 2, 45, 0
4, 7392, Note_on_c, 2, 46, 93
4, 7464, Note_off_c, 2, 46, 0
4, 7464, Note_on_c, 2, 48, 93
4, 7488, Note_off_c, 2, 48, 0
4, 7488, Note_on_c, 2, 50, 93
4, 7560, Note_off_c, 2, 50, 0
4, 7560, Note_on_c, 2, 49, 93
4, 7584, Note_off_c, 2, 49, 0
4, 7584, Note_on_c, 2, 50, 93
4, 7680, Note_off_c, 2, 50, 0
4, 7680, Note_on_c, 2, 52, 93
4, 7776, Note_off_c, 2, 52, 0
4, 8256, Note_on_c, 2, 56, 93
4, 8448, Note_off_c, 2, 56, 0
4, 8448, Note_on_c, 2, 52, 93
4, 8544, Note_off_c, 2, 52, 0
4, 8712, Note_on_c, 2, 57, 93
4, 8736, Note_off_c, 2, 57, 0
4, 8736, Note_on_c, 2, 59, 93
4, 8808, Note_off_c, 2, 59, 0
4, 8808, Note_on_c, 2, 61, 93
4, 8832, Note_off_c, 2, 61, 0
4, 8832, Note_on_c, 2, 62, 93
4, 8928, Note_off_c, 2, 62, 0
4, 8928, Note_on_c, 2, 60, 93
4, 9120, Note_off_c, 2, 60, 0
4, 9120, Note_on_c, 2, 58, 93
4, 9288, Note_off_c, 2, 58, 0
4, 9288, Note_on_c, 2, 55, 93
4, 9312, Note_off_c, 2, 55, 0
4, 9312, Note_on_c, 2, 53, 93
4, 9384, Note_off_c, 2, 53, 0
4, 9384, Note_on_c, 2, 52, 93
4, 9408, Note_off_c, 2, 52, 0
4, 9408, Note_on_c, 2, 57, 93
4, 9672, Note_off_c, 2, 57, 0
4, 9672, Note_on_c, 2, 62, 93
4, 9696, Note_off_c, 2, 62, 0
4, 9696, Note_on_c, 2, 61, 93
4, 9768, Note_off_c, 2, 61, 0
4, 9768, Note_on_c, 2, 62, 93
4, 9792, Note_off_c, 2, 62, 0
4, 9792, Note_on_c, 2, 56, 93
4, 9888, Note_off_c, 2, 56, 0
4, 9888, Note_on_c, 2, 59, 93
4, 10056, Note_off_c, 2, 59, 0
4, 10056, Note_on_c, 2, 52, 93
4, 10080, Note_off_c, 2, 52, 0
4, 10080, Note_on_c, 2, 57, 93
4, 10152, Note_off_c, 2, 57, 0
4, 10152, Note_on_c, 2, 55, 93
4, 10176, Note_off_c, 2, 55, 0
4, 10176, Note_on_c, 2, 53, 93
4, 10464, Note_off_c, 2, 53, 0
4, 10464, Note_on_c, 2, 52, 93
4, 10560, Note_off_c, 2, 52, 0
4, 10824, Note_on_c, 2, 67, 93
4, 10848, Note_off_c, 2, 67, 0
4, 10848, Note_on_c, 2, 65, 93
4, 10920, Note_off_c, 2, 65, 0
4, 10920, Note_on_c, 2, 64, 93
4, 10944, Note_off_c, 2, 64, 0
4, 10944, Note_on_c, 2, 63, 93
4, 11040, Note_off_c, 2, 63, 0
4, 11040, Note_on_c, 2, 64, 93
4, 11136, Note_off_c, 2, 64, 0
4, 11136, Note_on_c, 2, 57, 93
4, 11328, Note_off_c, 2, 57, 0
4, 11328, Note_on_c, 2, 59, 93
4, 11424, Note_off_c, 2, 59, 0
4, 11424, Note_on_c, 2, 61, 93
4, 11520, Note_off_c, 2, 61, 0
4, 11520, Note_on_c, 2, 62, 93
4, 11712, Note_off_c, 2, 62, 0
4, 11976, Note_on_c, 2, 57, 93
4, 12000, Note_off_c, 2, 57, 0
4, 12000, Note_on_c, 2, 59, 93
4, 12072, Note_off_c, 2, 59, 0
4, 12072, Note_on_c, 2, 61, 93
4, 12096, Note_off_c, 2, 61, 0
4, 12096, Note_on_c, 2, 62, 93
4, 12168, Note_off_c, 2, 62, 0
4, 12168, Note_on_c, 2, 64, 93
4, 12192, Note_off_c, 2, 64, 0
4, 12192, Note_on_c, 2, 65, 93
4, 12264, Note_off_c, 2, 65, 0
4, 12264, Note_on_c, 2, 62, 93
4, 12288, Note_off_c, 2, 62, 0
4, 12288, Note_on_c, 2, 64, 93
4, 12384, Note_off_c, 2, 64, 0
4, 12384, Note_on_c, 2, 52, 93
4, 12480, Note_off_c, 2, 52, 0
4, 12480, Note_on_c, 2, 53, 93
4, 12576, Note_off_c, 2, 53, 0
4, 12576, Note_on_c, 2, 55, 93
4, 12672, Note_off_c, 2, 55, 0
4, 12672, Note_on_c, 2, 57, 93
4, 12768, Note_off_c, 2, 57, 0
4, 13152, Note_on_c, 2, 62, 93
4, 13320, Note_off_c, 2, 62, 0
4, 13320, Note_on_c, 2, 60, 93
4, 13344, Note_off_c, 2, 60, 0
4, 13344, Note_on_c, 2, 58, 93
4, 13416, Note_off_c, 2, 58, 0
4, 13416, Note_on_c, 2, 57, 93
4, 13440, Note_off_c, 2, 57, 0
4, 13440, Note_on_c, 2, 58, 93
4, 13536, Note_off_c, 2, 58, 0
4, 13536, Note_on_c, 2, 59, 93
4, 13632, Note_off_c, 2, 59, 0
4, 13632, Note_on_c, 2, 61, 93
4, 13728, Note_off_c, 2, 61, 0
4, 13728, Note_on_c, 2, 62, 93
4, 13896, Note_off_c, 2, 62, 0
4, 13896, Note_on_c, 2, 60, 93
4, 13920, Note_off_c, 2, 60, 0
4, 13920, Note_on_c, 2, 59, 93
4, 13992, Note_off_c, 2, 59, 0
4, 13992, Note_on_c, 2, 57, 93
4, 14016, Note_off_c, 2, 57, 0
4, 14016, Note_on_c, 2, 59, 93
4, 14112, Note_off_c, 2, 59, 0
4, 14112, Note_on_c, 2, 64, 93
4, 14208, Note_off_c, 2, 64, 0
4, 14208, Note_on_c, 2, 57, 93
4, 14400, Note_off_c, 2, 57, 0
4, 14400, Note_on_c, 2, 62, 93
4, 14592, Note_off_c, 2, 62, 0
4, 14592, Note_on_c, 2, 60, 93
4, 14784, Note_off_c, 2, 60, 0
4, 14784, Note_on_c, 2, 57, 93
4, 14976, Note_off_c, 2, 57, 0
4, 14976, Note_on_c, 2, 56, 93
4, 15168, Note_off_c, 2, 56, 0
4, 15168, Note_on_c, 2, 57, 93
4, 15264, Note_off_c, 2, 57, 0
4, 15264, Note_on_c, 2, 59, 93
4, 15360, Note_off_c, 2, 59, 0
4, 15360, Note_on_c, 2, 60, 93
4, 15624, Note_off_c, 2, 60, 0
4, 15624, Note_on_c, 2, 62, 93
4, 15648, Note_off_c, 2, 62, 0
4, 15648, Note_on_c, 2, 60, 93
4, 15720, Note_off_c, 2, 60, 0
4, 15720, Note_on_c, 2, 59, 93
4, 15744, Note_off_c, 2, 59, 0
4, 15744, Note_on_c, 2, 57, 93
4, 16008, Note_off_c, 2, 57, 0
4, 16008, Note_on_c, 2, 55, 93
4, 16032, Note_off_c, 2, 55, 0
4, 16032, Note_on_c, 2, 53, 93
4, 16104, Note_off_c, 2, 53, 0
4, 16104, Note_on_c, 2, 52, 93
4, 16128, Note_off_c, 2, 52, 0
4, 16128, Note_on_c, 2, 53, 93
4, 16224, Note_off_c, 2, 53, 0
4, 16224, Note_on_c, 2, 58, 93
4, 16320, Note_off_c, 2, 58, 0
4, 16320, Note_on_c, 2, 52, 93
4, 16416, Note_off_c, 2, 52, 0
4, 16416, Note_on_c, 2, 57, 93
4, 16512, Note_off_c, 2, 57, 0
4, 16512, Note_on_c, 2, 50, 93
4, 16608, Note_off_c, 2, 50, 0
4, 16608, Note_on_c, 2, 52, 93
4, 16680, Note_off_c, 2, 52, 0
4, 16680, Note_on_c, 2, 53, 93
4, 16704, Note_off_c, 2, 53, 0
4, 16704, Note_on_c, 2, 55, 93
4, 16776, Note_off_c, 2, 55, 0
4, 16776, Note_on_c, 2, 57, 93
4, 16800, Note_off_c, 2, 57, 0
4, 16800, Note_on_c, 2, 58, 93
4, 16968, Note_off_c, 2, 58, 0
4, 16968, Note_on_c, 2, 57, 93
4, 16992, Note_off_c, 2, 57, 0
4, 16992, Note_on_c, 2, 55, 93
4, 17064, Note_off_c, 2, 55, 0
4, 17064, Note_on_c, 2, 53, 93
4, 17088, Note_off_c, 2, 53, 0
4, 17088, Note_on_c, 2, 52, 93
4, 17280, Note_off_c, 2, 52, 0
4, 17280, Note_on_c, 2, 53, 93
4, 17376, Note_off_c, 2, 53, 0
4, 17568, Note_on_c, 2, 58, 93
4, 17736, Note_off_c, 2, 58, 0
4, 17736, Note_on_c, 2, 62, 93
4, 17760, Note_off_c, 2, 62, 0
4, 17760, Note_on_c, 2, 60, 93
4, 17832, Note_off_c, 2, 60, 0
4, 17832, Note_on_c, 2, 58, 93
4, 17856, Note_off_c, 2, 58, 0
4, 17856, Note_on_c, 2, 57, 93
4, 17928, Note_off_c, 2, 57, 0
4, 17928, Note_on_c, 2, 55, 93
4, 17952, Note_off_c, 2, 55, 0
4, 17952, Note_on_c, 2, 53, 93
4, 18024, Note_off_c, 2, 53, 0
4, 18024, Note_on_c, 2, 52, 93
4, 18048, Note_off_c, 2, 52, 0
4, 18048, Note_on_c, 2, 53, 93
4, 18120, Note_off_c, 2, 53, 0
4, 18120, Note_on_c, 2, 65, 93
4, 18144, Note_off_c, 2, 65, 0
4, 18144, Note_on_c, 2, 64, 93
4, 18216, Note_off_c, 2, 64, 0
4, 18216, Note_on_c, 2, 65, 93
4, 18240, Note_off_c, 2, 65, 0
4, 18240, Note_on_c, 2, 58, 93
4, 18336, Note_off_c, 2, 58, 0
4, 18336, Note_on_c, 2, 63, 93
4, 18504, Note_off_c, 2, 63, 0
4, 18504, Note_on_c, 2, 63, 93
4, 18528, Note_off_c, 2, 63, 0
4, 18528, Note_on_c, 2, 62, 93
4, 18600, Note_off_c, 2, 62, 0
4, 18600, Note_on_c, 2, 60, 93
4, 18624, Note_off_c, 2, 60, 0
4, 18624, Note_on_c, 2, 58, 93
4, 18696, Note_off_c, 2, 58, 0
4, 18696, Note_on_c, 2, 57, 93
4, 18720, Note_off_c, 2, 57, 0
4, 18720, Note_on_c, 2, 55, 93
4, 18792, Note_off_c, 2, 55, 0
4, 18792, Note_on_c, 2, 54, 93
4, 18816, Note_off_c, 2, 54, 0
4, 18816, Note_on_c, 2, 55, 93
4, 18888, Note_off_c, 2, 55, 0
4, 18888, Note_on_c, 2, 57, 93
4, 18912, Note_off_c, 2, 57, 0
4, 18912, Note_on_c, 2, 58, 93
4, 19104, Note_off_c, 2, 58, 0
4, 19104, Note_on_c, 2, 57, 93
4, 19176, Note_off_c, 2, 57, 0
4, 19176, Note_on_c, 2, 58, 93
4, 19200, Note_off_c, 2, 58, 0
4, 19200, Note_on_c, 2, 60, 93
4, 19296, Note_off_c, 2, 60, 0
4, 19296, Note_on_c, 2, 63, 93
4, 19392, Note_off_c, 2, 63, 0
4, 19392, Note_on_c, 2, 62, 93
4, 19680, Note_off_c, 2, 62, 0
4, 19680, Note_on_c, 2, 62, 93
4, 19776, Note_off_c, 2, 62, 0
4, 19776, Note_on_c, 2, 64, 93
4, 19872, Note_off_c, 2, 64, 0
4, 19872, Note_on_c, 2, 65, 93
4, 20040, Note_off_c, 2, 65, 0
4, 20040, Note_on_c, 2, 65, 93
4, 20064, Note_off_c, 2, 65, 0
4, 20064, Note_on_c, 2, 63, 93
4, 20136, Note_off_c, 2, 63, 0
4, 20136, Note_on_c, 2, 62, 93
4, 20160, Note_off_c, 2, 62, 0
4, 20160, Note_on_c, 2, 60, 93
4, 20232, Note_off_c, 2, 60, 0
4, 20232, Note_on_c, 2, 58, 93
4, 20256, Note_off_c, 2, 58, 0
4, 20256, Note_on_c, 2, 57, 93
4, 20328, Note_off_c, 2, 57, 0
4, 20328, Note_on_c, 2, 55, 93
4, 20352, Note_off_c, 2, 55, 0
4, 20352, Note_on_c, 2, 53, 93
4, 20448, Note_off_c, 2, 53, 0
4, 20832, Note_on_c, 2, 48, 93
4, 20928, Note_off_c, 2, 48, 0
4, 20928, Note_on_c, 2, 50, 93
4, 21024, Note_off_c, 2, 50, 0
4, 21024, Note_on_c, 2, 51, 93
4, 21120, Note_off_c, 2, 51, 0
4, 21120, Note_on_c, 2, 53, 93
4, 21216, Note_off_c, 2, 53, 0
4, 21216, Note_on_c, 2, 58, 93
4, 21408, Note_off_c, 2, 58, 0
4, 21408, Note_on_c, 2, 63, 93
4, 21504, Note_off_c, 2, 63, 0
4, 21504, Note_on_c, 2, 65, 93
4, 21696, Note_off_c, 2, 65, 0
4, 21768, Note_on_c, 2, 60, 93
4, 21792, Note_off_c, 2, 60, 0
4, 21792, Note_on_c, 2, 58, 93
4, 21864, Note_off_c, 2, 58, 0
4, 21864, Note_on_c, 2, 57, 93
4, 21888, Note_off_c, 2, 57, 0
4, 21888, Note_on_c, 2, 55, 93
4, 21984, Note_off_c, 2, 55, 0
4, 21984, Note_on_c, 2, 63, 93
4, 22080, Note_off_c, 2, 63, 0
4, 22080, Note_on_c, 2, 61, 93
4, 22176, Note_off_c, 2, 61, 0
4, 22176, Note_on_c, 2, 62, 93
4, 22320, Note_off_c, 2, 62, 0
4, 22752, Note_on_c, 2, 62, 93
4, 22944, Note_off_c, 2, 62, 0
4, 22944, Note_on_c, 2, 61, 93
4, 23040, Note_off_c, 2, 61, 0
4, 23040, Note_on_c, 2, 62, 93
4, 23232, Note_off_c, 2, 62, 0
4, 23232, Note_on_c, 2, 64, 93
4, 23424, Note_off_c, 2, 64, 0
4, 23424, Note_on_c, 2, 57, 93
4, 23520, Note_off_c, 2, 57, 0
4, 23520, Note_on_c, 2, 59, 93
4, 23592, Note_off_c, 2, 59, 0
4, 23592, Note_on_c, 2, 61, 93
4, 23616, Note_off_c, 2, 61, 0
4, 23616, Note_on_c, 2, 62, 93
4, 23712, Note_off_c, 2, 62, 0
4, 23904, Note_on_c, 2, 52, 93
4, 24000, Note_off_c, 2, 52, 0
4, 24000, Note_on_c, 2, 53, 93
4, 24096, Note_off_c, 2, 53, 0
4, 24096, Note_on_c, 2, 55, 93
4, 24192, Note_off_c, 2, 55, 0
4, 24192, Note_on_c, 2, 57, 93
4, 24384, Note_off_c, 2, 57, 0
4, 24648, Note_on_c, 2, 57, 93
4, 24672, Note_off_c, 2, 57, 0
4, 24672, Note_on_c, 2, 59, 93
4, 24744, Note_off_c, 2, 59, 0
4, 24744, Note_on_c, 2, 61, 93
4, 24768, Note_off_c, 2, 61, 0
4, 24768, Note_on_c, 2, 62, 93
4, 24864, Note_off_c, 2, 62, 0
4, 24864, Note_on_c, 2, 54, 93
4, 24960, Note_off_c, 2, 54, 0
4, 24960, Note_on_c, 2, 55, 93
4, 25056, Note_off_c, 2, 55, 0
4, 26208, Note_on_c, 2, 57, 93
4, 26400, Note_off_c, 2, 57, 0
4, 26400, Note_on_c, 2, 62, 93
4, 26592, Note_off_c, 2, 62, 0
4, 26592, Note_on_c, 2, 60, 93
4, 26784, Note_off_c, 2, 60, 0
4, 26784, Note_on_c, 2, 57, 93
4, 26976, Note_off_c, 2, 57, 0
4, 26976, Note_on_c, 2, 56, 93
4, 27072, Note_off_c, 2, 56, 0
4, 27072, Note_on_c, 2, 57, 93
4, 27168, Note_off_c, 2, 57, 0
4, 27168, Note_on_c, 2, 59, 93
4, 27264, Note_off_c, 2, 59, 0
4, 27264, Note_on_c, 2, 60, 93
4, 27528, Note_off_c, 2, 60, 0
4, 27528, Note_on_c, 2, 62, 93
4, 27552, Note_off_c, 2, 62, 0
4, 27552, Note_on_c, 2, 61, 93
4, 27624, Note_off_c, 2, 61, 0
4, 27624, Note_on_c, 2, 59, 93
4, 27648, Note_off_c, 2, 59, 0
4, 27648, Note_on_c, 2, 57, 93
4, 27840, Note_off_c, 2, 57, 0
4, 27840, Note_on_c, 2, 58, 93
4, 28104, Note_off_c, 2, 58, 0
4, 28104, Note_on_c, 2, 58, 93
4, 28128, Note_off_c, 2, 58, 0
4, 28128, Note_on_c, 2, 57, 93
4, 28200, Note_off_c, 2, 57, 0
4, 28200, Note_on_c, 2, 55, 93
4, 28224, Note_off_c, 2, 55, 0
4, 28224, Note_on_c, 2, 53, 93
4, 28296, Note_off_c, 2, 53, 0
4, 28296, Note_on_c, 2, 52, 93
4, 28320, Note_off_c, 2, 52, 0
4, 28320, Note_on_c, 2, 50, 93
4, 28392, Note_off_c, 2, 50, 0
4, 28392, Note_on_c, 2, 49, 93
4, 28416, Note_off_c, 2, 49, 0
4, 28416, Note_on_c, 2, 50, 93
4, 28512, Note_off_c, 2, 50, 0
4, 28512, Note_on_c, 2, 52, 93
4, 28584, Note_off_c, 2, 52, 0
4, 28584, Note_on_c, 2, 54, 93
4, 28608, Note_off_c, 2, 54, 0
4, 28608, Note_on_c, 2, 55, 93
4, 28680, Note_off_c, 2, 55, 0
4, 28680, Note_on_c, 2, 53, 93
4, 28704, Note_off_c, 2, 53, 0
4, 28704, Note_on_c, 2, 52, 93
4, 28776, Note_off_c, 2, 52, 0
4, 28776, Note_on_c, 2, 50, 93
4, 28800, Note_off_c, 2, 50, 0
4, 28800, Note_on_c, 2, 49, 93
4, 28992, Note_off_c, 2, 49, 0
4, 28992, Note_on_c, 2, 50, 93
4, 29184, Note_off_c, 2, 50, 0
4, 29184, Note_on_c, 2, 52, 93
4, 29376, Note_off_c, 2, 52, 0
4, 29376, Note_on_c, 2, 53, 93
4, 29568, Note_off_c, 2, 53, 0
4, 29568, Note_on_c, 2, 52, 93
4, 29760, Note_off_c, 2, 52, 0
4, 29856, Note_on_c, 2, 57, 93
4, 29952, Note_off_c, 2, 57, 0
4, 29952, Note_on_c, 2, 57, 93
4, 30144, Note_off_c, 2, 57, 0
4, 30408, Note_on_c, 2, 50, 93
4, 30432, Note_off_c, 2, 50, 0
4, 30432, Note_on_c, 2, 52, 93
4, 30504, Note_off_c, 2, 52, 0
4, 30504, Note_on_c, 2, 53, 93
4, 30528, Note_off_c, 2, 53, 0
4, 30528, Note_on_c, 2, 55, 93
4, 30600, Note_off_c, 2, 55, 0
4, 30600, Note_on_c, 2, 57, 93
4, 30624, Note_off_c, 2, 57, 0
4, 30624, Note_on_c, 2, 55, 93
4, 30696, Note_off_c, 2, 55, 0
4, 30696, Note_on_c, 2, 53, 93
4, 30720, Note_off_c, 2, 53, 0
4, 30720, Note_on_c, 2, 52, 93
4, 30792, Note_off_c, 2, 52, 0
4, 30792, Note_on_c, 2, 55, 93
4, 30816, Note_off_c, 2, 55, 0
4, 30816, Note_on_c, 2, 53, 93
4, 30888, Note_off_c, 2, 53, 0
4, 30888, Note_on_c, 2, 52, 93
4, 30912, Note_off_c, 2, 52, 0
4, 30912, Note_on_c, 2, 50, 93
4, 31104, Note_off_c, 2, 50, 0
4, 31104, Note_on_c, 2, 49, 93
4, 31200, Note_off_c, 2, 49, 0
4, 31200, Note_on_c, 2, 50, 93
4, 31392, Note_off_c, 2, 50, 0
4, 31392, Note_on_c, 2, 49, 93
4, 31488, Note_off_c, 2, 49, 0
4, 31488, Note_on_c, 2, 50, 93
4, 31584, Note_off_c, 2, 50, 0
4, 31584, Note_on_c, 2, 52, 93
4, 31656, Note_off_c, 2, 52, 0
4, 31656, Note_on_c, 2, 54, 93
4, 31680, Note_off_c, 2, 54, 0
4, 31680, Note_on_c, 2, 55, 93
4, 31944, Note_off_c, 2, 55, 0
4, 31944, Note_on_c, 2, 54, 93
4, 31968, Note_off_c, 2, 54, 0
4, 31968, Note_on_c, 2, 55, 93
4, 32040, Note_off_c, 2, 55, 0
4, 32040, Note_on_c, 2, 52, 93
4, 32064, Note_off_c, 2, 52, 0
4, 32064, Note_on_c, 2, 54, 93
4, 32256, Note_off_c, 2, 54, 0
4, 32256, End_track
5, 0, Start_track
5, 0, Title_t, "Track5"
5, 0, Program_c, 3, 42
5, 0, Control_c, 3, 7, 100
5, 0, Control_c, 3, 10, 34
5, 0, Note_on_c, 3, 50, 93
5, 192, Note_off_c, 3, 50, 0
5, 192, Note_on_c, 3, 57, 93
5, 384, Note_off_c, 3, 57, 0
5, 384, Note_on_c, 3, 53, 93
5, 576, Note_off_c, 3, 53, 0
5, 576, Note_on_c, 3, 50, 93
5, 768, Note_off_c, 3, 50, 0
5, 768, Note_on_c, 3, 49, 93
5, 960, Note_off_c, 3, 49, 0
5, 960, Note_on_c, 3, 50, 93
5, 1056, Note_off_c, 3, 50, 0
5, 1056, Note_on_c, 3, 52, 93
5, 1152, Note_off_c, 3, 52, 0
5, 1152, Note_on_c, 3, 53, 93
5, 1416, Note_off_c, 3, 53, 0
5, 1416, Note_on_c, 3, 55, 93
5, 1440, Note_off_c, 3, 55, 0
5, 1440, Note_on_c, 3, 53, 93
5, 1512, Note_off_c, 3, 53, 0
5, 1512, Note_on_c, 3, 52, 93
5, 1536, Note_off_c, 3, 52, 0
5, 1536, Note_on_c, 3, 50, 93
5, 1608, Note_off_c, 3, 50, 0
5, 1608, Note_on_c, 3, 52, 93
5, 1632, Note_off_c, 3, 52, 0
5, 1632, Note_on_c, 3, 50, 93
5, 1704, Note_off_c, 3, 50, 0
5, 1704, Note_on_c, 3, 48, 93
5, 1800, Note_off_c, 3, 48, 0
5, 1800, Note_on_c, 3, 50, 93
5, 1824, Note_off_c, 3, 50, 0
5, 1824, Note_on_c, 3, 48, 93
5, 1896, Note_off_c, 3, 48, 0
5, 1896, Note_on_c, 3, 47, 93
5, 1992, Note_off_c, 3, 47, 0
5, 1992, Note_on_c, 3, 45, 93
5, 2016, Note_off_c, 3, 45, 0
5, 2016, Note_on_c, 3, 47, 93
5, 2088, Note_off_c, 3, 47, 0
5, 2088, Note_on_c, 3, 48, 93
5, 2112, Note_off_c, 3, 48, 0
5, 2112, Note_on_c, 3, 50, 93
5, 2184, Note_off_c, 3, 50, 0
5, 2184, Note_on_c, 3, 52, 93
5, 2208, Note_off_c, 3, 52, 0
5, 2208, Note_on_c, 3, 53, 93
5, 2280, Note_off_c, 3, 53, 0
5, 2280, Note_on_c, 3, 50, 93
5, 2304, Note_off_c, 3, 50, 0
5, 2304, Note_on_c, 3, 52, 93
5, 2376, Note_off_c, 3, 52, 0
5, 2376, Note_on_c, 3, 53, 93
5, 2400, Note_off_c, 3, 53, 0
5, 2400, Note_on_c, 3, 52, 93
5, 2472, Note_off_c, 3, 52, 0
5, 2472, Note_on_c, 3, 50, 93
5, 2496, Note_off_c, 3, 50, 0
5, 2496, Note_on_c, 3, 48, 93
5, 2568, Note_off_c, 3, 48, 0
5, 2568, Note_on_c, 3, 47, 93
5, 2592, Note_off_c, 3, 47, 0
5, 2592, Note_on_c, 3, 45, 93
5, 2664, Note_off_c, 3, 45, 0
5, 2664, Note_on_c, 3, 44, 93
5, 2688, Note_off_c, 3, 44, 0
5, 2688, Note_on_c, 3, 45, 93
5, 2760, Note_off_c, 3, 45, 0
5, 2760, Note_on_c, 3, 57, 93
5, 2784, Note_off_c, 3, 57, 0
5, 2784, Note_on_c, 3, 56, 93
5, 2856, Note_off_c, 3, 56, 0
5, 2856, Note_on_c, 3, 57, 93
5, 2880, Note_off_c, 3, 57, 0
5, 2880, Note_on_c, 3, 50, 93
5, 2976, Note_off_c, 3, 50, 0
5, 2976, Note_on_c, 3, 55, 93
5, 3144, Note_off_c, 3, 55, 0
5, 3144, Note_on_c, 3, 53, 93
5, 3168, Note_off_c, 3, 53, 0
5, 3168, Note_on_c, 3, 52, 93
5, 3240, Note_off_c, 3, 52, 0
5, 3240, Note_on_c, 3, 50, 93
5, 3264, Note_off_c, 3, 50, 0
5, 3264, Note_on_c, 3, 49, 93
5, 3456, Note_off_c, 3, 49, 0
5, 3456, Note_on_c, 3, 50, 93
5, 3552, Note_off_c, 3, 50, 0
5, 3552, Note_on_c, 3, 38, 93
5, 3648, Note_off_c, 3, 38, 0
5, 3648, Note_on_c, 3, 43, 93
5, 3720, Note_off_c, 3, 43, 0
5, 3720, Note_on_c, 3, 45, 93
5, 3744, Note_off_c, 3, 45, 0
5, 3744, Note_on_c, 3, 46, 93
5, 3912, Note_off_c, 3, 46, 0
5, 3912, Note_on_c, 3, 46, 93
5, 3936, Note_off_c, 3, 46, 0
5, 3936, Note_on_c, 3, 45, 93
5, 4008, Note_off_c, 3, 45, 0
5, 4008, Note_on_c, 3, 43, 93
5, 4032, Note_off_c, 3, 43, 0
5, 4032, Note_on_c, 3, 41, 93
5, 4128, Note_off_c, 3, 41, 0
5, 4128, Note_on_c, 3, 40, 93
5, 4224, Note_off_c, 3, 40, 0
5, 4224, Note_on_c, 3, 38, 93
5, 4296, Note_off_c, 3, 38, 0
5, 4296, Note_on_c, 3, 50, 93
5, 4320, Note_off_c, 3, 50, 0
5, 4320, Note_on_c, 3, 52, 93
5, 4392, Note_off_c, 3, 52, 0
5, 4392, Note_on_c, 3, 53, 93
5, 4416, Note_off_c, 3, 53, 0
5, 4416, Note_on_c, 3, 55, 93
5, 4488, Note_off_c, 3, 55, 0
5, 4488, Note_on_c, 3, 58, 93
5, 4512, Note_off_c, 3, 58, 0
5, 4512, Note_on_c, 3, 57, 93
5, 4584, Note_off_c, 3, 57, 0
5, 4584, Note_on_c, 3, 55, 93
5, 4608, Note_off_c, 3, 55, 0
5, 4608, Note_on_c, 3, 53, 93
5, 4680, Note_off_c, 3, 53, 0
5, 4680, Note_on_c, 3, 55, 93
5, 4704, Note_off_c, 3, 55, 0
5, 4704, Note_on_c, 3, 53, 93
5, 4776, Note_off_c, 3, 53, 0
5, 4776, Note_on_c, 3, 52, 93
5, 4800, Note_off_c, 3, 52, 0
5, 4800, Note_on_c, 3, 50, 93
5, 4872, Note_off_c, 3, 50, 0
5, 4872, Note_on_c, 3, 52, 93
5, 4896, Note_off_c, 3, 52, 0
5, 4896, Note_on_c, 3, 53, 93
5, 4968, Note_off_c, 3, 53, 0
5, 4968, Note_on_c, 3, 55, 93
5, 4992, Note_off_c, 3, 55, 0
5, 4992, Note_on_c, 3, 57, 93
5, 5184, Note_off_c, 3, 57, 0
5, 5184, Note_on_c, 3, 53, 93
5, 5448, Note_off_c, 3, 53, 0
5, 5448, Note_on_c, 3, 53, 93
5, 5472, Note_off_c, 3, 53, 0
5, 5472, Note_on_c, 3, 52, 93
5, 5544, Note_off_c, 3, 52, 0
5, 5544, Note_on_c, 3, 50, 93
5, 5568, Note_off_c, 3, 50, 0
5, 5568, Note_on_c, 3, 48, 93
5, 5664, Note_off_c, 3, 48, 0
5, 5664, Note_on_c, 3, 47, 93
5, 5760, Note_off_c, 3, 47, 0
5, 5832, Note_on_c, 3, 45, 93
5, 5856, Note_off_c, 3, 45, 0
5, 5856, Note_on_c, 3, 47, 93
5, 5928, Note_off_c, 3, 47, 0
5, 5928, Note_on_c, 3, 48, 93
5, 5952, Note_off_c, 3, 48, 0
5, 5952, Note_on_c, 3, 50, 93
5, 6048, Note_off_c, 3, 50, 0
5, 6048, Note_on_c, 3, 52, 93
5, 6144, Note_off_c, 3, 52, 0
5, 6144, Note_on_c, 3, 53, 93
5, 6408, Note_off_c, 3, 53, 0
5, 6408, Note_on_c, 3, 52, 93
5, 6432, Note_off_c, 3, 52, 0
5, 6432, Note_on_c, 3, 50, 93
5, 6504, Note_off_c, 3, 50, 0
5, 6504, Note_on_c, 3, 49, 93
5, 6528, Note_off_c, 3, 49, 0
5, 6528, Note_on_c, 3, 50, 93
5, 6720, Note_off_c, 3, 50, 0
5, 6720, Note_on_c, 3, 50, 93
5, 6792, Note_off_c, 3, 50, 0
5, 6792, Note_on_c, 3, 48, 93
5, 6816, Note_off_c, 3, 48, 0
5, 6816, Note_on_c, 3, 46, 93
5, 6888, Note_off_c, 3, 46, 0
5, 6888, Note_on_c, 3, 45, 93
5, 6912, Note_off_c, 3, 45, 0
5, 6912, Note_on_c, 3, 46, 93
5, 7176, Note_off_c, 3, 46, 0
5, 7176, Note_on_c, 3, 45, 93
5, 7200, Note_off_c, 3, 45, 0
5, 7200, Note_on_c, 3, 43, 93
5, 7272, Note_off_c, 3, 43, 0
5, 7272, Note_on_c, 3, 42, 93
5, 7296, Note_off_c, 3, 42, 0
5, 7296, Note_on_c, 3, 43, 93
5, 7656, Note_off_c, 3, 43, 0
5, 7656, Note_on_c, 3, 41, 93
5, 7680, Note_off_c, 3, 41, 0
5, 7680, Note_on_c, 3, 40, 93
5, 8256, Note_off_c, 3, 40, 0
5, 8256, Note_on_c, 3, 52, 93
5, 8448, Note_off_c, 3, 52, 0
5, 8448, Note_on_c, 3, 45, 93
5, 8544, Note_off_c, 3, 45, 0
5, 8904, Note_on_c, 3, 50, 93
5, 8928, Note_off_c, 3, 50, 0
5, 8928, Note_on_c, 3, 52, 93
5, 9000, Note_off_c, 3, 52, 0
5, 9000, Note_on_c, 3, 53, 93
5, 9024, Note_off_c, 3, 53, 0
5, 9024, Note_on_c, 3, 55, 93
5, 9096, Note_off_c, 3, 55, 0
5, 9096, Note_on_c, 3, 57, 93
5, 9120, Note_off_c, 3, 57, 0
5, 9120, Note_on_c, 3, 55, 93
5, 9192, Note_off_c, 3, 55, 0
5, 9192, Note_on_c, 3, 53, 93
5, 9216, Note_off_c, 3, 53, 0
5, 9216, Note_on_c, 3, 52, 93
5, 9288, Note_off_c, 3, 52, 0
5, 9288, Note_on_c, 3, 58, 93
5, 9312, Note_off_c, 3, 58, 0
5, 9312, Note_on_c, 3, 57, 93
5, 9384, Note_off_c, 3, 57, 0
5, 9384, Note_on_c, 3, 55, 93
5, 9408, Note_off_c, 3, 55, 0
5, 9408, Note_on_c, 3, 53, 93
5, 9480, Note_off_c, 3, 53, 0
5, 9480, Note_on_c, 3, 52, 93
5, 9504, Note_off_c, 3, 52, 0
5, 9504, Note_on_c, 3, 50, 93
5, 9576, Note_off_c, 3, 50, 0
5, 9576, Note_on_c, 3, 49, 93
5, 9600, Note_off_c, 3, 49, 0
5, 9600, Note_on_c, 3, 50, 93
5, 9696, Note_off_c, 3, 50, 0
5, 9696, Note_on_c, 3, 53, 93
5, 9792, Note_off_c, 3, 53, 0
5, 9792, Note_on_c, 3, 47, 93
5, 9888, Note_off_c, 3, 47, 0
5, 9888, Note_on_c, 3, 52, 93
5, 9984, Note_off_c, 3, 52, 0
5, 9984, Note_on_c, 3, 45, 93
5, 10176, Note_off_c, 3, 45, 0
5, 10176, Note_on_c, 3, 50, 93
5, 10440, Note_off_c, 3, 50, 0
5, 10440, Note_on_c, 3, 47, 93
5, 10464, Note_off_c, 3, 47, 0
5, 10464, Note_on_c, 3, 52, 93
5, 10536, Note_off_c, 3, 52, 0
5, 10536, Note_on_c, 3, 50, 93
5, 10560, Note_off_c, 3, 50, 0
5, 10560, Note_on_c, 3, 48, 93
5, 10656, Note_off_c, 3, 48, 0
5, 10656, Note_on_c, 3, 47, 93
5, 10752, Note_off_c, 3, 47, 0
5, 10752, Note_on_c, 3, 45, 93
5, 10848, Note_off_c, 3, 45, 0
5, 11520, Note_on_c, 3, 50, 93
5, 11712, Note_off_c, 3, 50, 0
5, 11712, Note_on_c, 3, 57, 93
5, 11904, Note_off_c, 3, 57, 0
5, 11904, Note_on_c, 3, 53, 93
5, 12096, Note_off_c, 3, 53, 0
5, 12096, Note_on_c, 3, 50, 93
5, 12288, Note_off_c, 3, 50, 0
5, 12288, Note_on_c, 3, 49, 93
5, 12480, Note_off_c, 3, 49, 0
5, 12480, Note_on_c, 3, 50, 93
5, 12576, Note_off_c, 3, 50, 0
5, 12576, Note_on_c, 3, 52, 93
5, 12672, Note_off_c, 3, 52, 0
5, 12672, Note_on_c, 3, 53, 93
5, 12936, Note_off_c, 3, 53, 0
5, 12936, Note_on_c, 3, 55, 93
5, 12960, Note_off_c, 3, 55, 0
5, 12960, Note_on_c, 3, 53, 93
5, 13032, Note_off_c, 3, 53, 0
5, 13032, Note_on_c, 3, 52, 93
5, 13056, Note_off_c, 3, 52, 0
5, 13056, Note_on_c, 3, 50, 93
5, 13152, Note_off_c, 3, 50, 0
5, 13536, Note_on_c, 3, 55, 93
5, 13704, Note_off_c, 3, 55, 0
5, 13704, Note_on_c, 3, 53, 93
5, 13728, Note_off_c, 3, 53, 0
5, 13728, Note_on_c, 3, 52, 93
5, 13800, Note_off_c, 3, 52, 0
5, 13800, Note_on_c, 3, 50, 93
5, 13824, Note_off_c, 3, 50, 0
5, 13824, Note_on_c, 3, 52, 93
5, 14016, Note_off_c, 3, 52, 0
5, 15048, Note_on_c, 3, 53, 93
5, 15072, Note_off_c, 3, 53, 0
5, 15072, Note_on_c, 3, 52, 93
5, 15144, Note_off_c, 3, 52, 0
5, 15144, Note_on_c, 3, 50, 93
5, 15168, Note_off_c, 3, 50, 0
5, 15168, Note_on_c, 3, 48, 93
5, 15264, Note_off_c, 3, 48, 0
5, 15264, Note_on_c, 3, 53, 93
5, 15456, Note_off_c, 3, 53, 0
5, 15456, Note_on_c, 3, 54, 93
5, 15648, Note_off_c, 3, 54, 0
5, 15648, Note_on_c, 3, 56, 93
5, 15744, Note_off_c, 3, 56, 0
5, 15744, Note_on_c, 3, 57, 93
5, 15936, Note_off_c, 3, 57, 0
5, 19272, Note_on_c, 3, 51, 93
5, 19296, Note_off_c, 3, 51, 0
5, 19296, Note_on_c, 3, 50, 93
5, 19368, Note_off_c, 3, 50, 0
5, 19368, Note_on_c, 3, 48, 93
5, 19392, Note_off_c, 3, 48, 0
5, 19392, Note_on_c, 3, 46, 93
5, 19464, Note_off_c, 3, 46, 0
5, 19464, Note_on_c, 3, 45, 93
5, 19488, Note_off_c, 3, 45, 0
5, 19488, Note_on_c, 3, 43, 93
5, 19560, Note_off_c, 3, 43, 0
5, 19560, Note_on_c, 3, 42, 93
5, 19584, Note_off_c, 3, 42, 0
5, 19584, Note_on_c, 3, 43, 93
5, 19656, Note_off_c, 3, 43, 0
5, 19656, Note_on_c, 3, 55, 93
5, 19680, Note_off_c, 3, 55, 0
5, 19680, Note_on_c, 3, 54, 93
5, 19752, Note_off_c, 3, 54, 0
5, 19752, Note_on_c, 3, 55, 93
5, 19776, Note_off_c, 3, 55, 0
5, 19776, Note_on_c, 3, 48, 93
5, 20160, Note_off_c, 3, 48, 0
5, 20160, Note_on_c, 3, 53, 93
5, 20352, Note_off_c, 3, 53, 0
5, 20352, Note_on_c, 3, 50, 93
5, 20544, Note_off_c, 3, 50, 0
5, 20544, Note_on_c, 3, 46, 93
5, 20736, Note_off_c, 3, 46, 0
5, 20736, Note_on_c, 3, 45, 93
5, 20928, Note_off_c, 3, 45, 0
5, 20928, Note_on_c, 3, 46, 93
5, 21024, Note_off_c, 3, 46, 0
5, 21024, Note_on_c, 3, 48, 93
5, 21120, Note_off_c, 3, 48, 0
5, 21120, Note_on_c, 3, 50, 93
5, 21384, Note_off_c, 3, 50, 0
5, 21384, Note_on_c, 3, 51, 93
5, 21408, Note_off_c, 3, 51, 0
5, 21408, Note_on_c, 3, 50, 93
5, 21480, Note_off_c, 3, 50, 0
5, 21480, Note_on_c, 3, 48, 93
5, 21504, Note_off_c, 3, 48, 0
5, 21504, Note_on_c, 3, 46, 93
5, 21576, Note_off_c, 3, 46, 0
5, 21576, Note_on_c, 3, 58, 93
5, 21600, Note_off_c, 3, 58, 0
5, 21600, Note_on_c, 3, 57, 93
5, 21672, Note_off_c, 3, 57, 0
5, 21672, Note_on_c, 3, 58, 93
5, 21696, Note_off_c, 3, 58, 0
5, 21696, Note_on_c, 3, 52, 93
5, 21792, Note_off_c, 3, 52, 0
5, 21792, Note_on_c, 3, 54, 93
5, 21888, Note_off_c, 3, 54, 0
5, 21888, Note_on_c, 3, 55, 93
5, 22152, Note_off_c, 3, 55, 0
5, 22152, Note_on_c, 3, 53, 93
5, 22176, Note_off_c, 3, 53, 0
5, 22176, Note_on_c, 3, 52, 93
5, 22248, Note_off_c, 3, 52, 0
5, 22248, Note_on_c, 3, 50, 93
5, 22272, Note_off_c, 3, 50, 0
5, 22272, Note_on_c, 3, 58, 93
5, 22656, Note_off_c, 3, 58, 0
5, 22656, Note_on_c, 3, 57, 93
5, 22752, Note_off_c, 3, 57, 0
5, 23040, Note_on_c, 3, 50, 93
5, 23232, Note_off_c, 3, 50, 0
5, 23232, Note_on_c, 3, 57, 93
5, 23424, Note_off_c, 3, 57, 0
5, 23424, Note_on_c, 3, 53, 93
5, 23616, Note_off_c, 3, 53, 0
5, 23616, Note_on_c, 3, 50, 93
5, 23808, Note_off_c, 3, 50, 0
5, 23808, Note_on_c, 3, 49, 93
5, 24000, Note_off_c, 3, 49, 0
5, 24000, Note_on_c, 3, 50, 93
5, 24096, Note_off_c, 3, 50, 0
5, 24096, Note_on_c, 3, 52, 93
5, 24192, Note_off_c, 3, 52, 0
5, 24192, Note_on_c, 3, 53, 93
5, 24456, Note_off_c, 3, 53, 0
5, 24456, Note_on_c, 3, 55, 93
5, 24480, Note_off_c, 3, 55, 0
5, 24480, Note_on_c, 3, 53, 93
5, 24552, Note_off_c, 3, 53, 0
5, 24552, Note_on_c, 3, 52, 93
5, 24576, Note_off_c, 3, 52, 0
5, 24576, Note_on_c, 3, 50, 93
5, 24840, Note_off_c, 3, 50, 0
5, 24840, Note_on_c, 3, 51, 93
5, 24864, Note_off_c, 3, 51, 0
5, 24864, Note_on_c, 3, 50, 93
5, 24936, Note_off_c, 3, 50, 0
5, 24936, Note_on_c, 3, 48, 93
5, 24960, Note_off_c, 3, 48, 0
5, 24960, Note_on_c, 3, 46, 93
5, 25224, Note_off_c, 3, 46, 0
5, 25224, Note_on_c, 3, 48, 93
5, 25248, Note_off_c, 3, 48, 0
5, 25248, Note_on_c, 3, 46, 93
5, 25320, Note_off_c, 3, 46, 0
5, 25320, Note_on_c, 3, 45, 93
5, 25344, Note_off_c, 3, 45, 0
5, 25344, Note_on_c, 3, 43, 93
5, 25416, Note_off_c, 3, 43, 0
5, 25416, Note_on_c, 3, 50, 93
5, 25440, Note_off_c, 3, 50, 0
5, 25440, Note_on_c, 3, 52, 93
5, 25512, Note_off_c, 3, 52, 0
5, 25512, Note_on_c, 3, 54, 93
5, 25536, Note_off_c, 3, 54, 0
5, 25536, Note_on_c, 3, 55, 93
5, 25608, Note_off_c, 3, 55, 0
5, 25608, Note_on_c, 3, 57, 93
5, 25632, Note_off_c, 3, 57, 0
5, 25632, Note_on_c, 3, 55, 93
5, 25704, Note_off_c, 3, 55, 0
5, 25704, Note_on_c, 3, 53, 93
5, 25728, Note_off_c, 3, 53, 0
5, 25728, Note_on_c, 3, 52, 93
5, 25824, Note_off_c, 3, 52, 0
5, 25824, Note_on_c, 3, 57, 93
5, 25920, Note_off_c, 3, 57, 0
5, 25920, Note_on_c, 3, 50, 93
5, 26016, Note_off_c, 3, 50, 0
5, 26016, Note_on_c, 3, 55, 93
5, 26112, Note_off_c, 3, 55, 0
5, 26112, Note_on_c, 3, 49, 93
5, 26304, Note_off_c, 3, 49, 0
5, 26304, Note_on_c, 3, 50, 93
5, 26496, Note_off_c, 3, 50, 0
5, 26496, Note_on_c, 3, 52, 93
5, 26688, Note_off_c, 3, 52, 0
5, 26688, Note_on_c, 3, 53, 93
5, 26880, Note_off_c, 3, 53, 0
5, 26880, Note_on_c, 3, 47, 93
5, 27072, Note_off_c, 3, 47, 0
5, 27072, Note_on_c, 3, 48, 93
5, 27360, Note_off_c, 3, 48, 0
5, 27360, Note_on_c, 3, 50, 93
5, 27456, Note_off_c, 3, 50, 0
5, 27456, Note_on_c, 3, 52, 93
5, 27648, Note_off_c, 3, 52, 0
5, 27648, Note_on_c, 3, 53, 93
5, 27744, Note_off_c, 3, 53, 0
5, 27744, Note_on_c, 3, 50, 93
5, 27840, Note_off_c, 3, 50, 0
5, 27840, Note_on_c, 3, 55, 93
5, 28128, Note_off_c, 3, 55, 0
5, 28128, Note_on_c, 3, 49, 93
5, 28224, Note_off_c, 3, 49, 0
5, 28224, Note_on_c, 3, 50, 93
5, 28320, Note_off_c, 3, 50, 0
5, 28320, Note_on_c, 3, 45, 93
5, 28416, Note_off_c, 3, 45, 0
5, 28416, Note_on_c, 3, 46, 93
5, 28704, Note_off_c, 3, 46, 0
5, 28704, Note_on_c, 3, 43, 93
5, 28800, Note_off_c, 3, 43, 0
5, 28800, Note_on_c, 3, 45, 93
5, 29832, Note_off_c, 3, 45, 0
5, 29832, Note_on_c, 3, 46, 93
5, 29856, Note_off_c, 3, 46, 0
5, 29856, Note_on_c, 3, 45, 93
5, 29928, Note_off_c, 3, 45, 0
5, 29928, Note_on_c, 3, 43, 93
5, 30024, Note_off_c, 3, 43, 0
5, 30024, Note_on_c, 3, 45, 93
5, 30048, Note_off_c, 3, 45, 0
5, 30048, Note_on_c, 3, 43, 93
5, 30120, Note_off_c, 3, 43, 0
5, 30120, Note_on_c, 3, 41, 93
5, 30216, Note_off_c, 3, 41, 0
5, 30216, Note_on_c, 3, 43, 93
5, 30240, Note_off_c, 3, 43, 0
5, 30240, Note_on_c, 3, 41, 93
5, 30312, Note_off_c, 3, 41, 0
5, 30312, Note_on_c, 3, 40, 93
5, 30336, Note_off_c, 3, 40, 0
5, 30336, Note_on_c, 3, 38, 93
5, 30432, Note_off_c, 3, 38, 0
5, 30600, Note_on_c, 3, 40, 93
5, 30624, Note_off_c, 3, 40, 0
5, 30624, Note_on_c, 3, 41, 93
5, 30696, Note_off_c, 3, 41, 0
5, 30696, Note_on_c, 3, 43, 93
5, 30720, Note_off_c, 3, 43, 0
5, 30720, Note_on_c, 3, 45, 93
5, 30912, Note_off_c, 3, 45, 0
5, 30984, Note_on_c, 3, 46, 93
5, 31008, Note_off_c, 3, 46, 0
5, 31008, Note_on_c, 3, 45, 93
5, 31080, Note_off_c, 3, 45, 0
5, 31080, Note_on_c, 3, 43, 93
5, 31104, Note_off_c, 3, 43, 0
5, 31104, Note_on_c, 3, 45, 93
5, 31176, Note_off_c, 3, 45, 0
5, 31176, Note_on_c, 3, 41, 93
5, 31200, Note_off_c, 3, 41, 0
5, 31200, Note_on_c, 3, 40, 93
5, 31272, Note_off_c, 3, 40, 0
5, 31272, Note_on_c, 3, 38, 93
5, 31296, Note_off_c, 3, 38, 0
5, 31296, Note_on_c, 3, 43, 93
5, 31392, Note_off_c, 3, 43, 0
5, 31392, Note_on_c, 3, 45, 93
5, 31488, Note_off_c, 3, 45, 0
5, 31488, Note_on_c, 3, 46, 93
5, 31560, Note_off_c, 3, 46, 0
5, 31560, Note_on_c, 3, 48, 93
5, 31584, Note_off_c, 3, 48, 0
5, 31584, Note_on_c, 3, 46, 93
5, 31656, Note_off_c, 3, 46, 0
5, 31656, Note_on_c, 3, 45, 93
5, 31680, Note_off_c, 3, 45, 0
5, 31680, Note_on_c, 3, 43, 93
5, 31752, Note_off_c, 3, 43, 0
5, 31752, Note_on_c, 3, 45, 93
5, 31776, Note_off_c, 3, 45, 0
5, 31776, Note_on_c, 3, 46, 93
5, 31848, Note_off_c, 3, 46, 0
5, 31848, Note_on_c, 3, 43, 93
5, 31872, Note_off_c, 3, 43, 0
5, 31872, Note_on_c, 3, 50, 93
5, 32064, Note_off_c, 3, 50, 0
5, 32064, Note_on_c, 3, 38, 93
5, 32256, Note_off_c, 3, 38, 0
5, 32256, End_track
0, 0, End_of_file
