0, 0, Header, 1, 4, 96
1, 0, Start_track
1, 0, Time_signature, 4, 2, 24, 8
1, 0, Title_t, "untitled"
1, 0, Title_t, "Track1"
1, 0, Tempo, 600000
1, 18336, Tempo, 1250000
1, 18336, End_track
2, 0, Start_track
2, 0, Title_t, "Track2"
2, 0, Program_c, 0, 6
2, 0, Control_c, 0, 7, 100
2, 0, Control_c, 0, 10, 74
2, 0, Note_on_c, 0, 71, 93
2, 168, Note_off_c, 0, 71, 0
2, 168, Note_on_c, 0, 72, 93
2, 192, Note_off_c, 0, 72, 0
2, 192, Note_on_c, 0, 74, 93
2, 216, Note_off_c, 0, 74, 0
2, 216, Note_on_c, 0, 72, 93
2, 240, Note_off_c, 0, 72, 0
2, 240, Note_on_c, 0, 74, 93
2, 264, Note_off_c, 0, 74, 0
2, 264, Note_on_c, 0, 76, 93
2, 288, Note_off_c, 0, 76, 0
2, 288, Note_on_c, 0, 69, 93
2, 456, Note_off_c, 0, 69, 0
2, 456, Note_on_c, 0, 71, 93
2, 480, Note_off_c, 0, 71, 0
2, 480, Note_on_c, 0, 72, 93
2, 504, Note_off_c, 0, 72, 0
2, 504, Note_on_c, 0, 71, 93
2, 528, Note_off_c, 0, 71, 0
2, 528, Note_on_c, 0, 72, 93
2, 552, Note_off_c, 0, 72, 0
2, 552, Note_on_c, 0, 74, 93
2, 576, Note_off_c, 0, 74, 0
2, 576, Note_on_c, 0, 67, 93
2, 720, Note_off_c, 0, 67, 0
2, 720, Note_on_c, 0, 79, 93
2, 912, Note_off_c, 0, 79, 0
2, 912, Note_on_c, 0, 81, 93
2, 936, Note_off_c, 0, 81, 0
2, 936, Note_on_c, 0, 79, 93
2, 960, Note_off_c, 0, 79, 0
2, 960, Note_on_c, 0, 78, 93
2, 984, Note_off_c, 0, 78, 0
2, 984, Note_on_c, 0, 79, 93
2, 1008, Note_off_c, 0, 79, 0
2, 1008, Note_on_c, 0, 81, 93
2, 1056, Note_off_c, 0, 81, 0
2, 1200, Note_on_c, 0, 74, 93
2, 1224, Note_off_c, 0, 74, 0
2, 1224, Note_on_c, 0, 72, 93
2, 1248, Note_off_c, 0, 72, 0
2, 1248, Note_on_c, 0, 71, 93
2, 1272, Note_off_c, 0, 71, 0
2, 1272, Note_on_c, 0, 69, 93
2, 1296, Note_off_c, 0, 69, 0
2, 1296, Note_on_c, 0, 71, 93
2, 1344, Note_off_c, 0, 71, 0
2, 1344, Note_on_c, 0, 72, 93
2, 1368, Note_off_c, 0, 72, 0
2, 1368, Note_on_c, 0, 71, 93
2, 1392, Note_off_c, 0, 71, 0
2, 1392, Note_on_c, 0, 69, 93
2, 1416, Note_off_c, 0, 69, 0
2, 1416, Note_on_c, 0, 71, 93
2, 1440, Note_off_c, 0, 71, 0
2, 1440, Note_on_c, 0, 67, 93
2, 1488, Note_off_c, 0, 67, 0
2, 1488, Note_on_c, 0, 76, 93
2, 1536, Note_off_c, 0, 76, 0
2, 1536, Note_on_c, 0, 74, 93
2, 1584, Note_off_c, 0, 74, 0
2, 1584, Note_on_c, 0, 72, 93
2, 1632, Note_off_c, 0, 72, 0
2, 1632, Note_on_c, 0, 78, 93
2, 1680, Note_off_c, 0, 78, 0
2, 1680, Note_on_c, 0, 81, 93
2, 1728, Note_off_c, 0, 81, 0
2, 1728, Note_on_c, 0, 71, 93
2, 1824, Note_off_c, 0, 71, 0
2, 1824, Note_on_c, 0, 79, 93
2, 1872, Note_off_c, 0, 79, 0
2, 1872, Note_on_c, 0, 79, 93
2, 1968, Note_off_c, 0, 79, 0
2, 1968, Note_on_c, 0, 78, 93
2, 2016, Note_off_c, 0, 78, 0
2, 2112, Note_on_c, 0, 83, 93
2, 2160, Note_off_c, 0, 83, 0
2, 2160, Note_on_c, 0, 81, 93
2, 2256, Note_off_c, 0, 81, 0
2, 2256, Note_on_c, 0, 74, 93
2, 2328, Note_off_c, 0, 74, 0
2, 2328, Note_on_c, 0, 76, 93
2, 2352, Note_off_c, 0, 76, 0
2, 2352, Note_on_c, 0, 74, 93
2, 2376, Note_off_c, 0, 74, 0
2, 2376, Note_on_c, 0, 72, 93
2, 2400, Note_off_c, 0, 72, 0
2, 2400, Note_on_c, 0, 71, 93
2, 2448, Note_off_c, 0, 71, 0
2, 2448, Note_on_c, 0, 76, 93
2, 2496, Note_off_c, 0, 76, 0
2, 2496, Note_on_c, 0, 71, 93
2, 2544, Note_off_c, 0, 71, 0
2, 2544, Note_on_c, 0, 74, 93
2, 2592, Note_off_c, 0, 74, 0
2, 2592, Note_on_c, 0, 73, 93
2, 2640, Note_off_c, 0, 73, 0
2, 2640, Note_on_c, 0, 74, 93
2, 2688, Note_off_c, 0, 74, 0
2, 2688, Note_on_c, 0, 76, 93
2, 2784, Note_off_c, 0, 76, 0
2, 2784, Note_on_c, 0, 73, 93
2, 2832, Note_off_c, 0, 73, 0
2, 2832, Note_on_c, 0, 69, 93
2, 2880, Note_off_c, 0, 69, 0
2, 2976, Note_on_c, 0, 74, 93
2, 3024, Note_off_c, 0, 74, 0
2, 3024, Note_on_c, 0, 67, 93
2, 3216, Note_off_c, 0, 67, 0
2, 3216, Note_on_c, 0, 66, 93
2, 3264, Note_off_c, 0, 66, 0
2, 3264, Note_on_c, 0, 67, 93
2, 3312, Note_off_c, 0, 67, 0
2, 3312, Note_on_c, 0, 64, 93
2, 3360, Note_off_c, 0, 64, 0
2, 3360, Note_on_c, 0, 69, 93
2, 3384, Note_off_c, 0, 69, 0
2, 3384, Note_on_c, 0, 67, 93
2, 3408, Note_off_c, 0, 67, 0
2, 3408, Note_on_c, 0, 66, 93
2, 3432, Note_off_c, 0, 66, 0
2, 3432, Note_on_c, 0, 64, 93
2, 3456, Note_off_c, 0, 64, 0
2, 3456, Note_on_c, 0, 62, 93
2, 3504, Note_off_c, 0, 62, 0
2, 3504, Note_on_c, 0, 64, 93
2, 3528, Note_off_c, 0, 64, 0
2, 3528, Note_on_c, 0, 66, 93
2, 3552, Note_off_c, 0, 66, 0
2, 3552, Note_on_c, 0, 67, 93
2, 3576, Note_off_c, 0, 67, 0
2, 3576, Note_on_c, 0, 69, 93
2, 3600, Note_off_c, 0, 69, 0
2, 3600, Note_on_c, 0, 71, 93
2, 3648, Note_off_c, 0, 71, 0
2, 3648, Note_on_c, 0, 74, 93
2, 3696, Note_off_c, 0, 74, 0
2, 3696, Note_on_c, 0, 73, 93
2, 3744, Note_off_c, 0, 73, 0
2, 3744, Note_on_c, 0, 74, 93
2, 3936, Note_off_c, 0, 74, 0
2, 3936, Note_on_c, 0, 73, 93
2, 3984, Note_off_c, 0, 73, 0
2, 4032, Note_on_c, 0, 74, 93
2, 4200, Note_off_c, 0, 74, 0
2, 4200, Note_on_c, 0, 69, 93
2, 4224, Note_off_c, 0, 69, 0
2, 4224, Note_on_c, 0, 67, 93
2, 4248, Note_off_c, 0, 67, 0
2, 4248, Note_on_c, 0, 66, 93
2, 4272, Note_off_c, 0, 66, 0
2, 4272, Note_on_c, 0, 67, 93
2, 4296, Note_off_c, 0, 67, 0
2, 4296, Note_on_c, 0, 64, 93
2, 4320, Note_off_c, 0, 64, 0
2, 4320, Note_on_c, 0, 66, 93
2, 4608, Note_off_c, 0, 66, 0
2, 4608, Note_on_c, 0, 71, 93
2, 4776, Note_off_c, 0, 71, 0
2, 4776, Note_on_c, 0, 72, 93
2, 4800, Note_off_c, 0, 72, 0
2, 4800, Note_on_c, 0, 74, 93
2, 4824, Note_off_c, 0, 74, 0
2, 4824, Note_on_c, 0, 72, 93
2, 4848, Note_off_c, 0, 72, 0
2, 4848, Note_on_c, 0, 74, 93
2, 4872, Note_off_c, 0, 74, 0
2, 4872, Note_on_c, 0, 76, 93
2, 4896, Note_off_c, 0, 76, 0
2, 4896, Note_on_c, 0, 69, 93
2, 5064, Note_off_c, 0, 69, 0
2, 5064, Note_on_c, 0, 71, 93
2, 5088, Note_off_c, 0, 71, 0
2, 5088, Note_on_c, 0, 72, 93
2, 5112, Note_off_c, 0, 72, 0
2, 5112, Note_on_c, 0, 71, 93
2, 5136, Note_off_c, 0, 71, 0
2, 5136, Note_on_c, 0, 72, 93
2, 5160, Note_off_c, 0, 72, 0
2, 5160, Note_on_c, 0, 74, 93
2, 5184, Note_off_c, 0, 74, 0
2, 5184, Note_on_c, 0, 67, 93
2, 5328, Note_off_c, 0, 67, 0
2, 5328, Note_on_c, 0, 79, 93
2, 5520, Note_off_c, 0, 79, 0
2, 5520, Note_on_c, 0, 81, 93
2, 5544, Note_off_c, 0, 81, 0
2, 5544, Note_on_c, 0, 79, 93
2, 5568, Note_off_c, 0, 79, 0
2, 5568, Note_on_c, 0, 78, 93
2, 5592, Note_off_c, 0, 78, 0
2, 5592, Note_on_c, 0, 79, 93
2, 5616, Note_off_c, 0, 79, 0
2, 5616, Note_on_c, 0, 81, 93
2, 5664, Note_off_c, 0, 81, 0
2, 5808, Note_on_c, 0, 74, 93
2, 5832, Note_off_c, 0, 74, 0
2, 5832, Note_on_c, 0, 72, 93
2, 5856, Note_off_c, 0, 72, 0
2, 5856, Note_on_c, 0, 71, 93
2, 5880, Note_off_c, 0, 71, 0
2, 5880, Note_on_c, 0, 69, 93
2, 5904, Note_off_c, 0, 69, 0
2, 5904, Note_on_c, 0, 71, 93
2, 5952, Note_off_c, 0, 71, 0
2, 5952, Note_on_c, 0, 72, 93
2, 5976, Note_off_c, 0, 72, 0
2, 5976, Note_on_c, 0, 71, 93
2, 6000, Note_off_c, 0, 71, 0
2, 6000, Note_on_c, 0, 69, 93
2, 6024, Note_off_c, 0, 69, 0
2, 6024, Note_on_c, 0, 71, 93
2, 6048, Note_off_c, 0, 71, 0
2, 6048, Note_on_c, 0, 67, 93
2, 6096, Note_off_c, 0, 67, 0
2, 6096, Note_on_c, 0, 76, 93
2, 6144, Note_off_c, 0, 76, 0
2, 6144, Note_on_c, 0, 74, 93
2, 6192, Note_off_c, 0, 74, 0
2, 6192, Note_on_c, 0, 72, 93
2, 6240, Note_off_c, 0, 72, 0
2, 6240, Note_on_c, 0, 78, 93
2, 6288, Note_off_c, 0, 78, 0
2, 6288, Note_on_c, 0, 81, 93
2, 6336, Note_off_c, 0, 81, 0
2, 6336, Note_on_c, 0, 71, 93
2, 6432, Note_off_c, 0, 71, 0
2, 6432, Note_on_c, 0, 79, 93
2, 6480, Note_off_c, 0, 79, 0
2, 6480, Note_on_c, 0, 79, 93
2, 6576, Note_off_c, 0, 79, 0
2, 6576, Note_on_c, 0, 78, 93
2, 6624, Note_off_c, 0, 78, 0
2, 6720, Note_on_c, 0, 83, 93
2, 6768, Note_off_c, 0, 83, 0
2, 6768, Note_on_c, 0, 81, 93
2, 6864, Note_off_c, 0, 81, 0
2, 6864, Note_on_c, 0, 74, 93
2, 6936, Note_off_c, 0, 74, 0
2, 6936, Note_on_c, 0, 76, 93
2, 6960, Note_off_c, 0, 76, 0
2, 6960, Note_on_c, 0, 74, 93
2, 6984, Note_off_c, 0, 74, 0
2, 6984, Note_on_c, 0, 72, 93
2, 7008, Note_off_c, 0, 72, 0
2, 7008, Note_on_c, 0, 71, 93
2, 7056, Note_off_c, 0, 71, 0
2, 7056, Note_on_c, 0, 76, 93
2, 7104, Note_off_c, 0, 76, 0
2, 7104, Note_on_c, 0, 71, 93
2, 7152, Note_off_c, 0, 71, 0
2, 7152, Note_on_c, 0, 74, 93
2, 7200, Note_off_c, 0, 74, 0
2, 7200, Note_on_c, 0, 73, 93
2, 7248, Note_off_c, 0, 73, 0
2, 7248, Note_on_c, 0, 74, 93
2, 7296, Note_off_c, 0, 74, 0
2, 7296, Note_on_c, 0, 76, 93
2, 7392, Note_off_c, 0, 76, 0
2, 7392, Note_on_c, 0, 73, 93
2, 7440, Note_off_c, 0, 73, 0
2, 7440, Note_on_c, 0, 69, 93
2, 7488, Note_off_c, 0, 69, 0
2, 7584, Note_on_c, 0, 74, 93
2, 7632, Note_off_c, 0, 74, 0
2, 7632, Note_on_c, 0, 67, 93
2, 7824, Note_off_c, 0, 67, 0
2, 7824, Note_on_c, 0, 66, 93
2, 7872, Note_off_c, 0, 66, 0
2, 7872, Note_on_c, 0, 67, 93
2, 7920, Note_off_c, 0, 67, 0
2, 7920, Note_on_c, 0, 64, 93
2, 7968, Note_off_c, 0, 64, 0
2, 7968, Note_on_c, 0, 69, 93
2, 7992, Note_off_c, 0, 69, 0
2, 7992, Note_on_c, 0, 67, 93
2, 8016, Note_off_c, 0, 67, 0
2, 8016, Note_on_c, 0, 66, 93
2, 8040, Note_off_c, 0, 66, 0
2, 8040, Note_on_c, 0, 64, 93
2, 8064, Note_off_c, 0, 64, 0
2, 8064, Note_on_c, 0, 62, 93
2, 8112, Note_off_c, 0, 62, 0
2, 8112, Note_on_c, 0, 64, 93
2, 8136, Note_off_c, 0, 64, 0
2, 8136, Note_on_c, 0, 66, 93
2, 8160, Note_off_c, 0, 66, 0
2, 8160, Note_on_c, 0, 67, 93
2, 8184, Note_off_c, 0, 67, 0
2, 8184, Note_on_c, 0, 69, 93
2, 8208, Note_off_c, 0, 69, 0
2, 8208, Note_on_c, 0, 71, 93
2, 8256, Note_off_c, 0, 71, 0
2, 8256, Note_on_c, 0, 74, 93
2, 8304, Note_off_c, 0, 74, 0
2, 8304, Note_on_c, 0, 73, 93
2, 8352, Note_off_c, 0, 73, 0
2, 8352, Note_on_c, 0, 74, 93
2, 8544, Note_off_c, 0, 74, 0
2, 8544, Note_on_c, 0, 73, 93
2, 8592, Note_off_c, 0, 73, 0
2, 8640, Note_on_c, 0, 74, 93
2, 8808, Note_off_c, 0, 74, 0
2, 8808, Note_on_c, 0, 69, 93
2, 8832, Note_off_c, 0, 69, 0
2, 8832, Note_on_c, 0, 67, 93
2, 8856, Note_off_c, 0, 67, 0
2, 8856, Note_on_c, 0, 66, 93
2, 8880, Note_off_c, 0, 66, 0
2, 8880, Note_on_c, 0, 67, 93
2, 8904, Note_off_c, 0, 67, 0
2, 8904, Note_on_c, 0, 64, 93
2, 8928, Note_off_c, 0, 64, 0
2, 8928, Note_on_c, 0, 66, 93
2, 9216, Note_off_c, 0, 66, 0
2, 9360, Note_on_c, 0, 81, 93
2, 9528, Note_off_c, 0, 81, 0
2, 9528, Note_on_c, 0, 83, 93
2, 9552, Note_off_c, 0, 83, 0
2, 9552, Note_on_c, 0, 84, 93
2, 9576, Note_off_c, 0, 84, 0
2, 9576, Note_on_c, 0, 81, 93
2, 9600, Note_off_c, 0, 81, 0
2, 9600, Note_on_c, 0, 83, 93
2, 9624, Note_off_c, 0, 83, 0
2, 9624, Note_on_c, 0, 84, 93
2, 9648, Note_off_c, 0, 84, 0
2, 9648, Note_on_c, 0, 83, 93
2, 9672, Note_off_c, 0, 83, 0
2, 9672, Note_on_c, 0, 81, 93
2, 9696, Note_off_c, 0, 81, 0
2, 9696, Note_on_c, 0, 79, 93
2, 9720, Note_off_c, 0, 79, 0
2, 9720, Note_on_c, 0, 78, 93
2, 9744, Note_off_c, 0, 78, 0
2, 9744, Note_on_c, 0, 76, 93
2, 9768, Note_off_c, 0, 76, 0
2, 9768, Note_on_c, 0, 75, 93
2, 9792, Note_off_c, 0, 75, 0
2, 9792, Note_on_c, 0, 76, 93
2, 9840, Note_off_c, 0, 76, 0
2, 9840, Note_on_c, 0, 78, 93
2, 9888, Note_off_c, 0, 78, 0
2, 9888, Note_on_c, 0, 79, 93
2, 9984, Note_off_c, 0, 79, 0
2, 9984, Note_on_c, 0, 78, 93
2, 10032, Note_off_c, 0, 78, 0
2, 10032, Note_on_c, 0, 76, 93
2, 10080, Note_off_c, 0, 76, 0
2, 10080, Note_on_c, 0, 75, 93
2, 10320, Note_off_c, 0, 75, 0
2, 10512, Note_on_c, 0, 69, 93
2, 10704, Note_off_c, 0, 69, 0
2, 10704, Note_on_c, 0, 71, 93
2, 10728, Note_off_c, 0, 71, 0
2, 10728, Note_on_c, 0, 69, 93
2, 10752, Note_off_c, 0, 69, 0
2, 10752, Note_on_c, 0, 67, 93
2, 10776, Note_off_c, 0, 67, 0
2, 10776, Note_on_c, 0, 66, 93
2, 10800, Note_off_c, 0, 66, 0
2, 10800, Note_on_c, 0, 67, 93
2, 10824, Note_off_c, 0, 67, 0
2, 10824, Note_on_c, 0, 69, 93
2, 10848, Note_off_c, 0, 69, 0
2, 10848, Note_on_c, 0, 71, 93
2, 10872, Note_off_c, 0, 71, 0
2, 10872, Note_on_c, 0, 67, 93
2, 10896, Note_off_c, 0, 67, 0
2, 10896, Note_on_c, 0, 69, 93
2, 10920, Note_off_c, 0, 69, 0
2, 10920, Note_on_c, 0, 71, 93
2, 10944, Note_off_c, 0, 71, 0
2, 10944, Note_on_c, 0, 64, 93
2, 10992, Note_off_c, 0, 64, 0
2, 10992, Note_on_c, 0, 66, 93
2, 11016, Note_off_c, 0, 66, 0
2, 11016, Note_on_c, 0, 67, 93
2, 11040, Note_off_c, 0, 67, 0
2, 11040, Note_on_c, 0, 69, 93
2, 11064, Note_off_c, 0, 69, 0
2, 11064, Note_on_c, 0, 71, 93
2, 11088, Note_off_c, 0, 71, 0
2, 11088, Note_on_c, 0, 72, 93
2, 11136, Note_off_c, 0, 72, 0
2, 11136, Note_on_c, 0, 64, 93
2, 11184, Note_off_c, 0, 64, 0
2, 11184, Note_on_c, 0, 63, 93
2, 11232, Note_off_c, 0, 63, 0
2, 11232, Note_on_c, 0, 64, 93
2, 11376, Note_off_c, 0, 64, 0
2, 11520, Note_on_c, 0, 76, 93
2, 11688, Note_off_c, 0, 76, 0
2, 11688, Note_on_c, 0, 78, 93
2, 11712, Note_off_c, 0, 78, 0
2, 11712, Note_on_c, 0, 79, 93
2, 11736, Note_off_c, 0, 79, 0
2, 11736, Note_on_c, 0, 76, 93
2, 11760, Note_off_c, 0, 76, 0
2, 11760, Note_on_c, 0, 78, 93
2, 11784, Note_off_c, 0, 78, 0
2, 11784, Note_on_c, 0, 79, 93
2, 11808, Note_off_c, 0, 79, 0
2, 11808, Note_on_c, 0, 72, 93
2, 11832, Note_off_c, 0, 72, 0
2, 11832, Note_on_c, 0, 74, 93
2, 11856, Note_off_c, 0, 74, 0
2, 11856, Note_on_c, 0, 76, 93
2, 11880, Note_off_c, 0, 76, 0
2, 11880, Note_on_c, 0, 72, 93
2, 11904, Note_off_c, 0, 72, 0
2, 11904, Note_on_c, 0, 74, 93
2, 11928, Note_off_c, 0, 74, 0
2, 11928, Note_on_c, 0, 76, 93
2, 11952, Note_off_c, 0, 76, 0
2, 11952, Note_on_c, 0, 69, 93
2, 11976, Note_off_c, 0, 69, 0
2, 11976, Note_on_c, 0, 71, 93
2, 12000, Note_off_c, 0, 71, 0
2, 12000, Note_on_c, 0, 72, 93
2, 12024, Note_off_c, 0, 72, 0
2, 12024, Note_on_c, 0, 69, 93
2, 12048, Note_off_c, 0, 69, 0
2, 12048, Note_on_c, 0, 71, 93
2, 12072, Note_off_c, 0, 71, 0
2, 12072, Note_on_c, 0, 72, 93
2, 12096, Note_off_c, 0, 72, 0
2, 12096, Note_on_c, 0, 71, 93
2, 12120, Note_off_c, 0, 71, 0
2, 12120, Note_on_c, 0, 72, 93
2, 12144, Note_off_c, 0, 72, 0
2, 12144, Note_on_c, 0, 74, 93
2, 12168, Note_off_c, 0, 74, 0
2, 12168, Note_on_c, 0, 71, 93
2, 12192, Note_off_c, 0, 71, 0
2, 12192, Note_on_c, 0, 72, 93
2, 12216, Note_off_c, 0, 72, 0
2, 12216, Note_on_c, 0, 74, 93
2, 12240, Note_off_c, 0, 74, 0
2, 12240, Note_on_c, 0, 67, 93
2, 12432, Note_off_c, 0, 67, 0
2, 12432, Note_on_c, 0, 79, 93
2, 12576, Note_off_c, 0, 79, 0
2, 12576, Note_on_c, 0, 78, 93
2, 12624, Note_off_c, 0, 78, 0
2, 12624, Note_on_c, 0, 81, 93
2, 12720, Note_off_c, 0, 81, 0
2, 12720, Note_on_c, 0, 79, 93
2, 12768, Note_off_c, 0, 79, 0
2, 12768, Note_on_c, 0, 77, 93
2, 12816, Note_off_c, 0, 77, 0
2, 12816, Note_on_c, 0, 76, 93
2, 12840, Note_off_c, 0, 76, 0
2, 12840, Note_on_c, 0, 74, 93
2, 12864, Note_off_c, 0, 74, 0
2, 12864, Note_on_c, 0, 72, 93
2, 12888, Note_off_c, 0, 72, 0
2, 12888, Note_on_c, 0, 76, 93
2, 12912, Note_off_c, 0, 76, 0
2, 12912, Note_on_c, 0, 74, 93
2, 12936, Note_off_c, 0, 74, 0
2, 12936, Note_on_c, 0, 72, 93
2, 12960, Note_off_c, 0, 72, 0
2, 12960, Note_on_c, 0, 71, 93
2, 13056, Note_off_c, 0, 71, 0
2, 13056, Note_on_c, 0, 83, 93
2, 13104, Note_off_c, 0, 83, 0
2, 13104, Note_on_c, 0, 81, 93
2, 13200, Note_off_c, 0, 81, 0
2, 13200, Note_on_c, 0, 84, 93
2, 13248, Note_off_c, 0, 84, 0
2, 13248, Note_on_c, 0, 83, 93
2, 13344, Note_off_c, 0, 83, 0
2, 13344, Note_on_c, 0, 86, 93
2, 13392, Note_off_c, 0, 86, 0
2, 13392, Note_on_c, 0, 79, 93
2, 13440, Note_off_c, 0, 79, 0
2, 13440, Note_on_c, 0, 81, 93
2, 13488, Note_off_c, 0, 81, 0
2, 13488, Note_on_c, 0, 78, 93
2, 13536, Note_off_c, 0, 78, 0
2, 13536, Note_on_c, 0, 79, 93
2, 13824, Note_off_c, 0, 79, 0
2, 13968, Note_on_c, 0, 81, 93
2, 14136, Note_off_c, 0, 81, 0
2, 14136, Note_on_c, 0, 83, 93
2, 14160, Note_off_c, 0, 83, 0
2, 14160, Note_on_c, 0, 84, 93
2, 14184, Note_off_c, 0, 84, 0
2, 14184, Note_on_c, 0, 81, 93
2, 14208, Note_off_c, 0, 81, 0
2, 14208, Note_on_c, 0, 83, 93
2, 14232, Note_off_c, 0, 83, 0
2, 14232, Note_on_c, 0, 84, 93
2, 14256, Note_off_c, 0, 84, 0
2, 14256, Note_on_c, 0, 83, 93
2, 14280, Note_off_c, 0, 83, 0
2, 14280, Note_on_c, 0, 81, 93
2, 14304, Note_off_c, 0, 81, 0
2, 14304, Note_on_c, 0, 79, 93
2, 14328, Note_off_c, 0, 79, 0
2, 14328, Note_on_c, 0, 78, 93
2, 14352, Note_off_c, 0, 78, 0
2, 14352, Note_on_c, 0, 76, 93
2, 14376, Note_off_c, 0, 76, 0
2, 14376, Note_on_c, 0, 75, 93
2, 14400, Note_off_c, 0, 75, 0
2, 14400, Note_on_c, 0, 76, 93
2, 14448, Note_off_c, 0, 76, 0
2, 14448, Note_on_c, 0, 78, 93
2, 14496, Note_off_c, 0, 78, 0
2, 14496, Note_on_c, 0, 79, 93
2, 14592, Note_off_c, 0, 79, 0
2, 14592, Note_on_c, 0, 78, 93
2, 14640, Note_off_c, 0, 78, 0
2, 14640, Note_on_c, 0, 76, 93
2, 14688, Note_off_c, 0, 76, 0
2, 14688, Note_on_c, 0, 75, 93
2, 14928, Note_off_c, 0, 75, 0
2, 15120, Note_on_c, 0, 69, 93
2, 15312, Note_off_c, 0, 69, 0
2, 15312, Note_on_c, 0, 71, 93
2, 15336, Note_off_c, 0, 71, 0
2, 15336, Note_on_c, 0, 69, 93
2, 15360, Note_off_c, 0, 69, 0
2, 15360, Note_on_c, 0, 67, 93
2, 15384, Note_off_c, 0, 67, 0
2, 15384, Note_on_c, 0, 66, 93
2, 15408, Note_off_c, 0, 66, 0
2, 15408, Note_on_c, 0, 67, 93
2, 15432, Note_off_c, 0, 67, 0
2, 15432, Note_on_c, 0, 69, 93
2, 15456, Note_off_c, 0, 69, 0
2, 15456, Note_on_c, 0, 71, 93
2, 15480, Note_off_c, 0, 71, 0
2, 15480, Note_on_c, 0, 67, 93
2, 15504, Note_off_c, 0, 67, 0
2, 15504, Note_on_c, 0, 69, 93
2, 15528, Note_off_c, 0, 69, 0
2, 15528, Note_on_c, 0, 71, 93
2, 15552, Note_off_c, 0, 71, 0
2, 15552, Note_on_c, 0, 64, 93
2, 15600, Note_off_c, 0, 64, 0
2, 15600, Note_on_c, 0, 66, 93
2, 15624, Note_off_c, 0, 66, 0
2, 15624, Note_on_c, 0, 67, 93
2, 15648, Note_off_c, 0, 67, 0
2, 15648, Note_on_c, 0, 69, 93
2, 15672, Note_off_c, 0, 69, 0
2, 15672, Note_on_c, 0, 71, 93
2, 15696, Note_off_c, 0, 71, 0
2, 15696, Note_on_c, 0, 72, 93
2, 15744, Note_off_c, 0, 72, 0
2, 15744, Note_on_c, 0, 64, 93
2, 15792, Note_off_c, 0, 64, 0
2, 15792, Note_on_c, 0, 63, 93
2, 15840, Note_off_c, 0, 63, 0
2, 15840, Note_on_c, 0, 64, 93
2, 15984, Note_off_c, 0, 64, 0
2, 16128, Note_on_c, 0, 76, 93
2, 16296, Note_off_c, 0, 76, 0
2, 16296, Note_on_c, 0, 78, 93
2, 16320, Note_off_c, 0, 78, 0
2, 16320, Note_on_c, 0, 79, 93
2, 16344, Note_off_c, 0, 79, 0
2, 16344, Note_on_c, 0, 76, 93
2, 16368, Note_off_c, 0, 76, 0
2, 16368, Note_on_c, 0, 78, 93
2, 16392, Note_off_c, 0, 78, 0
2, 16392, Note_on_c, 0, 79, 93
2, 16416, Note_off_c, 0, 79, 0
2, 16416, Note_on_c, 0, 72, 93
2, 16440, Note_off_c, 0, 72, 0
2, 16440, Note_on_c, 0, 74, 93
2, 16464, Note_off_c, 0, 74, 0
2, 16464, Note_on_c, 0, 76, 93
2, 16488, Note_off_c, 0, 76, 0
2, 16488, Note_on_c, 0, 72, 93
2, 16512, Note_off_c, 0, 72, 0
2, 16512, Note_on_c, 0, 74, 93
2, 16536, Note_off_c, 0, 74, 0
2, 16536, Note_on_c, 0, 76, 93
2, 16560, Note_off_c, 0, 76, 0
2, 16560, Note_on_c, 0, 69, 93
2, 16584, Note_off_c, 0, 69, 0
2, 16584, Note_on_c, 0, 71, 93
2, 16608, Note_off_c, 0, 71, 0
2, 16608, Note_on_c, 0, 72, 93
2, 16632, Note_off_c, 0, 72, 0
2, 16632, Note_on_c, 0, 69, 93
2, 16656, Note_off_c, 0, 69, 0
2, 16656, Note_on_c, 0, 71, 93
2, 16680, Note_off_c, 0, 71, 0
2, 16680, Note_on_c, 0, 72, 93
2, 16704, Note_off_c, 0, 72, 0
2, 16704, Note_on_c, 0, 71, 93
2, 16728, Note_off_c, 0, 71, 0
2, 16728, Note_on_c, 0, 72, 93
2, 16752, Note_off_c, 0, 72, 0
2, 16752, Note_on_c, 0, 74, 93
2, 16776, Note_off_c, 0, 74, 0
2, 16776, Note_on_c, 0, 71, 93
2, 16800, Note_off_c, 0, 71, 0
2, 16800, Note_on_c, 0, 72, 93
2, 16824, Note_off_c, 0, 72, 0
2, 16824, Note_on_c, 0, 74, 93
2, 16848, Note_off_c, 0, 74, 0
2, 16848, Note_on_c, 0, 67, 93
2, 17040, Note_off_c, 0, 67, 0
2, 17040, Note_on_c, 0, 79, 93
2, 17184, Note_off_c, 0, 79, 0
2, 17184, Note_on_c, 0, 78, 93
2, 17232, Note_off_c, 0, 78, 0
2, 17232, Note_on_c, 0, 81, 93
2, 17328, Note_off_c, 0, 81, 0
2, 17328, Note_on_c, 0, 79, 93
2, 17376, Note_off_c, 0, 79, 0
2, 17376, Note_on_c, 0, 77, 93
2, 17424, Note_off_c, 0, 77, 0
2, 17424, Note_on_c, 0, 76, 93
2, 17448, Note_off_c, 0, 76, 0
2, 17448, Note_on_c, 0, 74, 93
2, 17472, Note_off_c, 0, 74, 0
2, 17472, Note_on_c, 0, 72, 93
2, 17496, Note_off_c, 0, 72, 0
2, 17496, Note_on_c, 0, 76, 93
2, 17520, Note_off_c, 0, 76, 0
2, 17520, Note_on_c, 0, 74, 93
2, 17544, Note_off_c, 0, 74, 0
2, 17544, Note_on_c, 0, 72, 93
2, 17568, Note_off_c, 0, 72, 0
2, 17568, Note_on_c, 0, 71, 93
2, 17664, Note_off_c, 0, 71, 0
2, 17664, Note_on_c, 0, 83, 93
2, 17712, Note_off_c, 0, 83, 0
2, 17712, Note_on_c, 0, 81, 93
2, 17808, Note_off_c, 0, 81, 0
2, 17808, Note_on_c, 0, 84, 93
2, 17856, Note_off_c, 0, 84, 0
2, 17856, Note_on_c, 0, 83, 93
2, 17952, Note_off_c, 0, 83, 0
2, 17952, Note_on_c, 0, 86, 93
2, 18000, Note_off_c, 0, 86, 0
2, 18000, Note_on_c, 0, 79, 93
2, 18048, Note_off_c, 0, 79, 0
2, 18048, Note_on_c, 0, 81, 93
2, 18096, Note_off_c, 0, 81, 0
2, 18096, Note_on_c, 0, 78, 93
2, 18144, Note_off_c, 0, 78, 0
2, 18144, Note_on_c, 0, 79, 93
2, 18432, Note_off_c, 0, 79, 0
2, 18432, End_track
3, 0, Start_track
3, 0, Title_t, "Track3"
3, 0, Program_c, 1, 6
3, 0, Control_c, 1, 7, 100
3, 0, Control_c, 1, 10, 64
3, 576, Note_on_c, 1, 71, 93
3, 744, Note_off_c, 1, 71, 0
3, 744, Note_on_c, 1, 72, 93
3, 768, Note_off_c, 1, 72, 0
3, 768, Note_on_c, 1, 74, 93
3, 792, Note_off_c, 1, 74, 0
3, 792, Note_on_c, 1, 72, 93
3, 816, Note_off_c, 1, 72, 0
3, 816, Note_on_c, 1, 74, 93
3, 840, Note_off_c, 1, 74, 0
3, 840, Note_on_c, 1, 76, 93
3, 864, Note_off_c, 1, 76, 0
3, 864, Note_on_c, 1, 69, 93
3, 1032, Note_off_c, 1, 69, 0
3, 1032, Note_on_c, 1, 71, 93
3, 1056, Note_off_c, 1, 71, 0
3, 1056, Note_on_c, 1, 72, 93
3, 1080, Note_off_c, 1, 72, 0
3, 1080, Note_on_c, 1, 71, 93
3, 1104, Note_off_c, 1, 71, 0
3, 1104, Note_on_c, 1, 72, 93
3, 1128, Note_off_c, 1, 72, 0
3, 1128, Note_on_c, 1, 74, 93
3, 1152, Note_off_c, 1, 74, 0
3, 1152, Note_on_c, 1, 67, 93
3, 1296, Note_off_c, 1, 67, 0
3, 1296, Note_on_c, 1, 79, 93
3, 1488, Note_off_c, 1, 79, 0
3, 1488, Note_on_c, 1, 81, 93
3, 1512, Note_off_c, 1, 81, 0
3, 1512, Note_on_c, 1, 79, 93
3, 1536, Note_off_c, 1, 79, 0
3, 1536, Note_on_c, 1, 78, 93
3, 1560, Note_off_c, 1, 78, 0
3, 1560, Note_on_c, 1, 79, 93
3, 1584, Note_off_c, 1, 79, 0
3, 1584, Note_on_c, 1, 81, 93
3, 1632, Note_off_c, 1, 81, 0
3, 1776, Note_on_c, 1, 74, 93
3, 1800, Note_off_c, 1, 74, 0
3, 1800, Note_on_c, 1, 72, 93
3, 1824, Note_off_c, 1, 72, 0
3, 1824, Note_on_c, 1, 71, 93
3, 1848, Note_off_c, 1, 71, 0
3, 1848, Note_on_c, 1, 69, 93
3, 1872, Note_off_c, 1, 69, 0
3, 1872, Note_on_c, 1, 71, 93
3, 1920, Note_off_c, 1, 71, 0
3, 1920, Note_on_c, 1, 72, 93
3, 1944, Note_off_c, 1, 72, 0
3, 1944, Note_on_c, 1, 71, 93
3, 1968, Note_off_c, 1, 71, 0
3, 1968, Note_on_c, 1, 69, 93
3, 1992, Note_off_c, 1, 69, 0
3, 1992, Note_on_c, 1, 71, 93
3, 2016, Note_off_c, 1, 71, 0
3, 2016, Note_on_c, 1, 67, 93
3, 2064, Note_off_c, 1, 67, 0
3, 2064, Note_on_c, 1, 76, 93
3, 2112, Note_off_c, 1, 76, 0
3, 2112, Note_on_c, 1, 74, 93
3, 2160, Note_off_c, 1, 74, 0
3, 2160, Note_on_c, 1, 72, 93
3, 2208, Note_off_c, 1, 72, 0
3, 2208, Note_on_c, 1, 78, 93
3, 2256, Note_off_c, 1, 78, 0
3, 2256, Note_on_c, 1, 81, 93
3, 2304, Note_off_c, 1, 81, 0
3, 2304, Note_on_c, 1, 71, 93
3, 2400, Note_off_c, 1, 71, 0
3, 2400, Note_on_c, 1, 79, 93
3, 2448, Note_off_c, 1, 79, 0
3, 2448, Note_on_c, 1, 79, 93
3, 2544, Note_off_c, 1, 79, 0
3, 2544, Note_on_c, 1, 78, 93
3, 2592, Note_off_c, 1, 78, 0
3, 2688, Note_on_c, 1, 83, 93
3, 2736, Note_off_c, 1, 83, 0
3, 2736, Note_on_c, 1, 81, 93
3, 2784, Note_off_c, 1, 81, 0
3, 2832, Note_on_c, 1, 74, 93
3, 2904, Note_off_c, 1, 74, 0
3, 2904, Note_on_c, 1, 76, 93
3, 2928, Note_off_c, 1, 76, 0
3, 2928, Note_on_c, 1, 74, 93
3, 2952, Note_off_c, 1, 74, 0
3, 2952, Note_on_c, 1, 72, 93
3, 2976, Note_off_c, 1, 72, 0
3, 2976, Note_on_c, 1, 71, 93
3, 3024, Note_off_c, 1, 71, 0
3, 3024, Note_on_c, 1, 76, 93
3, 3072, Note_off_c, 1, 76, 0
3, 3072, Note_on_c, 1, 71, 93
3, 3120, Note_off_c, 1, 71, 0
3, 3120, Note_on_c, 1, 74, 93
3, 3168, Note_off_c, 1, 74, 0
3, 3168, Note_on_c, 1, 73, 93
3, 3216, Note_off_c, 1, 73, 0
3, 3216, Note_on_c, 1, 74, 93
3, 3264, Note_off_c, 1, 74, 0
3, 3264, Note_on_c, 1, 76, 93
3, 3360, Note_off_c, 1, 76, 0
3, 3360, Note_on_c, 1, 73, 93
3, 3408, Note_off_c, 1, 73, 0
3, 3408, Note_on_c, 1, 69, 93
3, 3456, Note_off_c, 1, 69, 0
3, 3552, Note_on_c, 1, 74, 93
3, 3600, Note_off_c, 1, 74, 0
3, 3600, Note_on_c, 1, 67, 93
3, 3792, Note_off_c, 1, 67, 0
3, 3792, Note_on_c, 1, 66, 93
3, 3840, Note_off_c, 1, 66, 0
3, 3840, Note_on_c, 1, 67, 93
3, 3888, Note_off_c, 1, 67, 0
3, 3888, Note_on_c, 1, 64, 93
3, 3936, Note_off_c, 1, 64, 0
3, 3936, Note_on_c, 1, 69, 93
3, 3960, Note_off_c, 1, 69, 0
3, 3960, Note_on_c, 1, 67, 93
3, 3984, Note_off_c, 1, 67, 0
3, 3984, Note_on_c, 1, 66, 93
3, 4008, Note_off_c, 1, 66, 0
3, 4008, Note_on_c, 1, 64, 93
3, 4032, Note_off_c, 1, 64, 0
3, 4032, Note_on_c, 1, 62, 93
3, 4080, Note_off_c, 1, 62, 0
3, 4080, Note_on_c, 1, 64, 93
3, 4104, Note_off_c, 1, 64, 0
3, 4104, Note_on_c, 1, 66, 93
3, 4128, Note_off_c, 1, 66, 0
3, 4128, Note_on_c, 1, 67, 93
3, 4152, Note_off_c, 1, 67, 0
3, 4152, Note_on_c, 1, 69, 93
3, 4176, Note_off_c, 1, 69, 0
3, 4176, Note_on_c, 1, 71, 93
3, 4224, Note_off_c, 1, 71, 0
3, 4224, Note_on_c, 1, 74, 93
3, 4272, Note_off_c, 1, 74, 0
3, 4272, Note_on_c, 1, 73, 93
3, 4320, Note_off_c, 1, 73, 0
3, 4320, Note_on_c, 1, 74, 93
3, 4608, Note_off_c, 1, 74, 0
3, 5184, Note_on_c, 1, 71, 93
3, 5352, Note_off_c, 1, 71, 0
3, 5352, Note_on_c, 1, 72, 93
3, 5376, Note_off_c, 1, 72, 0
3, 5376, Note_on_c, 1, 74, 93
3, 5400, Note_off_c, 1, 74, 0
3, 5400, Note_on_c, 1, 72, 93
3, 5424, Note_off_c, 1, 72, 0
3, 5424, Note_on_c, 1, 74, 93
3, 5448, Note_off_c, 1, 74, 0
3, 5448, Note_on_c, 1, 76, 93
3, 5472, Note_off_c, 1, 76, 0
3, 5472, Note_on_c, 1, 69, 93
3, 5640, Note_off_c, 1, 69, 0
3, 5640, Note_on_c, 1, 71, 93
3, 5664, Note_off_c, 1, 71, 0
3, 5664, Note_on_c, 1, 72, 93
3, 5688, Note_off_c, 1, 72, 0
3, 5688, Note_on_c, 1, 71, 93
3, 5712, Note_off_c, 1, 71, 0
3, 5712, Note_on_c, 1, 72, 93
3, 5736, Note_off_c, 1, 72, 0
3, 5736, Note_on_c, 1, 74, 93
3, 5760, Note_off_c, 1, 74, 0
3, 5760, Note_on_c, 1, 67, 93
3, 5904, Note_off_c, 1, 67, 0
3, 5904, Note_on_c, 1, 79, 93
3, 6096, Note_off_c, 1, 79, 0
3, 6096, Note_on_c, 1, 81, 93
3, 6120, Note_off_c, 1, 81, 0
3, 6120, Note_on_c, 1, 79, 93
3, 6144, Note_off_c, 1, 79, 0
3, 6144, Note_on_c, 1, 78, 93
3, 6168, Note_off_c, 1, 78, 0
3, 6168, Note_on_c, 1, 79, 93
3, 6192, Note_off_c, 1, 79, 0
3, 6192, Note_on_c, 1, 81, 93
3, 6240, Note_off_c, 1, 81, 0
3, 6384, Note_on_c, 1, 74, 93
3, 6408, Note_off_c, 1, 74, 0
3, 6408, Note_on_c, 1, 72, 93
3, 6432, Note_off_c, 1, 72, 0
3, 6432, Note_on_c, 1, 71, 93
3, 6456, Note_off_c, 1, 71, 0
3, 6456, Note_on_c, 1, 69, 93
3, 6480, Note_off_c, 1, 69, 0
3, 6480, Note_on_c, 1, 71, 93
3, 6528, Note_off_c, 1, 71, 0
3, 6528, Note_on_c, 1, 72, 93
3, 6552, Note_off_c, 1, 72, 0
3, 6552, Note_on_c, 1, 71, 93
3, 6576, Note_off_c, 1, 71, 0
3, 6576, Note_on_c, 1, 69, 93
3, 6600, Note_off_c, 1, 69, 0
3, 6600, Note_on_c, 1, 71, 93
3, 6624, Note_off_c, 1, 71, 0
3, 6624, Note_on_c, 1, 67, 93
3, 6672, Note_off_c, 1, 67, 0
3, 6672, Note_on_c, 1, 76, 93
3, 6720, Note_off_c, 1, 76, 0
3, 6720, Note_on_c, 1, 74, 93
3, 6768, Note_off_c, 1, 74, 0
3, 6768, Note_on_c, 1, 72, 93
3, 6816, Note_off_c, 1, 72, 0
3, 6816, Note_on_c, 1, 78, 93
3, 6864, Note_off_c, 1, 78, 0
3, 6864, Note_on_c, 1, 81, 93
3, 6912, Note_off_c, 1, 81, 0
3, 6912, Note_on_c, 1, 71, 93
3, 7008, Note_off_c, 1, 71, 0
3, 7008, Note_on_c, 1, 79, 93
3, 7056, Note_off_c, 1, 79, 0
3, 7056, Note_on_c, 1, 79, 93
3, 7152, Note_off_c, 1, 79, 0
3, 7152, Note_on_c, 1, 78, 93
3, 7200, Note_off_c, 1, 78, 0
3, 7296, Note_on_c, 1, 83, 93
3, 7344, Note_off_c, 1, 83, 0
3, 7344, Note_on_c, 1, 81, 93
3, 7392, Note_off_c, 1, 81, 0
3, 7440, Note_on_c, 1, 74, 93
3, 7512, Note_off_c, 1, 74, 0
3, 7512, Note_on_c, 1, 76, 93
3, 7536, Note_off_c, 1, 76, 0
3, 7536, Note_on_c, 1, 74, 93
3, 7560, Note_off_c, 1, 74, 0
3, 7560, Note_on_c, 1, 72, 93
3, 7584, Note_off_c, 1, 72, 0
3, 7584, Note_on_c, 1, 71, 93
3, 7632, Note_off_c, 1, 71, 0
3, 7632, Note_on_c, 1, 76, 93
3, 7680, Note_off_c, 1, 76, 0
3, 7680, Note_on_c, 1, 71, 93
3, 7728, Note_off_c, 1, 71, 0
3, 7728, Note_on_c, 1, 74, 93
3, 7776, Note_off_c, 1, 74, 0
3, 7776, Note_on_c, 1, 73, 93
3, 7824, Note_off_c, 1, 73, 0
3, 7824, Note_on_c, 1, 74, 93
3, 7872, Note_off_c, 1, 74, 0
3, 7872, Note_on_c, 1, 76, 93
3, 7968, Note_off_c, 1, 76, 0
3, 7968, Note_on_c, 1, 73, 93
3, 8016, Note_off_c, 1, 73, 0
3, 8016, Note_on_c, 1, 69, 93
3, 8064, Note_off_c, 1, 69, 0
3, 8160, Note_on_c, 1, 74, 93
3, 8208, Note_off_c, 1, 74, 0
3, 8208, Note_on_c, 1, 67, 93
3, 8400, Note_off_c, 1, 67, 0
3, 8400, Note_on_c, 1, 66, 93
3, 8448, Note_off_c, 1, 66, 0
3, 8448, Note_on_c, 1, 67, 93
3, 8496, Note_off_c, 1, 67, 0
3, 8496, Note_on_c, 1, 64, 93
3, 8544, Note_off_c, 1, 64, 0
3, 8544, Note_on_c, 1, 69, 93
3, 8568, Note_off_c, 1, 69, 0
3, 8568, Note_on_c, 1, 67, 93
3, 8592, Note_off_c, 1, 67, 0
3, 8592, Note_on_c, 1, 66, 93
3, 8616, Note_off_c, 1, 66, 0
3, 8616, Note_on_c, 1, 64, 93
3, 8640, Note_off_c, 1, 64, 0
3, 8640, Note_on_c, 1, 62, 93
3, 8688, Note_off_c, 1, 62, 0
3, 8688, Note_on_c, 1, 64, 93
3, 8712, Note_off_c, 1, 64, 0
3, 8712, Note_on_c, 1, 66, 93
3, 8736, Note_off_c, 1, 66, 0
3, 8736, Note_on_c, 1, 67, 93
3, 8760, Note_off_c, 1, 67, 0
3, 8760, Note_on_c, 1, 69, 93
3, 8784, Note_off_c, 1, 69, 0
3, 8784, Note_on_c, 1, 71, 93
3, 8832, Note_off_c, 1, 71, 0
3, 8832, Note_on_c, 1, 74, 93
3, 8880, Note_off_c, 1, 74, 0
3, 8880, Note_on_c, 1, 73, 93
3, 8928, Note_off_c, 1, 73, 0
3, 8928, Note_on_c, 1, 74, 93
3, 9216, Note_off_c, 1, 74, 0
3, 9936, Note_on_c, 1, 81, 93
3, 10104, Note_off_c, 1, 81, 0
3, 10104, Note_on_c, 1, 83, 93
3, 10128, Note_off_c, 1, 83, 0
3, 10128, Note_on_c, 1, 84, 93
3, 10152, Note_off_c, 1, 84, 0
3, 10152, Note_on_c, 1, 81, 93
3, 10176, Note_off_c, 1, 81, 0
3, 10176, Note_on_c, 1, 83, 93
3, 10200, Note_off_c, 1, 83, 0
3, 10200, Note_on_c, 1, 84, 93
3, 10224, Note_off_c, 1, 84, 0
3, 10224, Note_on_c, 1, 83, 93
3, 10248, Note_off_c, 1, 83, 0
3, 10248, Note_on_c, 1, 81, 93
3, 10272, Note_off_c, 1, 81, 0
3, 10272, Note_on_c, 1, 79, 93
3, 10296, Note_off_c, 1, 79, 0
3, 10296, Note_on_c, 1, 78, 93
3, 10320, Note_off_c, 1, 78, 0
3, 10320, Note_on_c, 1, 76, 93
3, 10344, Note_off_c, 1, 76, 0
3, 10344, Note_on_c, 1, 75, 93
3, 10368, Note_off_c, 1, 75, 0
3, 10368, Note_on_c, 1, 76, 93
3, 10416, Note_off_c, 1, 76, 0
3, 10416, Note_on_c, 1, 78, 93
3, 10464, Note_off_c, 1, 78, 0
3, 10464, Note_on_c, 1, 79, 93
3, 10560, Note_off_c, 1, 79, 0
3, 10560, Note_on_c, 1, 78, 93
3, 10608, Note_off_c, 1, 78, 0
3, 10608, Note_on_c, 1, 76, 93
3, 10656, Note_off_c, 1, 76, 0
3, 10656, Note_on_c, 1, 75, 93
3, 10896, Note_off_c, 1, 75, 0
3, 11088, Note_on_c, 1, 69, 93
3, 11280, Note_off_c, 1, 69, 0
3, 11280, Note_on_c, 1, 71, 93
3, 11304, Note_off_c, 1, 71, 0
3, 11304, Note_on_c, 1, 69, 93
3, 11328, Note_off_c, 1, 69, 0
3, 11328, Note_on_c, 1, 67, 93
3, 11352, Note_off_c, 1, 67, 0
3, 11352, Note_on_c, 1, 66, 93
3, 11376, Note_off_c, 1, 66, 0
3, 11376, Note_on_c, 1, 67, 93
3, 11400, Note_off_c, 1, 67, 0
3, 11400, Note_on_c, 1, 69, 93
3, 11424, Note_off_c, 1, 69, 0
3, 11424, Note_on_c, 1, 71, 93
3, 11448, Note_off_c, 1, 71, 0
3, 11448, Note_on_c, 1, 67, 93
3, 11472, Note_off_c, 1, 67, 0
3, 11472, Note_on_c, 1, 69, 93
3, 11496, Note_off_c, 1, 69, 0
3, 11496, Note_on_c, 1, 71, 93
3, 11520, Note_off_c, 1, 71, 0
3, 11520, Note_on_c, 1, 64, 93
3, 11568, Note_off_c, 1, 64, 0
3, 11568, Note_on_c, 1, 66, 93
3, 11592, Note_off_c, 1, 66, 0
3, 11592, Note_on_c, 1, 67, 93
3, 11616, Note_off_c, 1, 67, 0
3, 11616, Note_on_c, 1, 69, 93
3, 11640, Note_off_c, 1, 69, 0
3, 11640, Note_on_c, 1, 71, 93
3, 11664, Note_off_c, 1, 71, 0
3, 11664, Note_on_c, 1, 72, 93
3, 11712, Note_off_c, 1, 72, 0
3, 11712, Note_on_c, 1, 64, 93
3, 11760, Note_off_c, 1, 64, 0
3, 11760, Note_on_c, 1, 63, 93
3, 11808, Note_off_c, 1, 63, 0
3, 11808, Note_on_c, 1, 64, 93
3, 11952, Note_off_c, 1, 64, 0
3, 12096, Note_on_c, 1, 76, 93
3, 12264, Note_off_c, 1, 76, 0
3, 12264, Note_on_c, 1, 78, 93
3, 12288, Note_off_c, 1, 78, 0
3, 12288, Note_on_c, 1, 79, 93
3, 12312, Note_off_c, 1, 79, 0
3, 12312, Note_on_c, 1, 76, 93
3, 12336, Note_off_c, 1, 76, 0
3, 12336, Note_on_c, 1, 78, 93
3, 12360, Note_off_c, 1, 78, 0
3, 12360, Note_on_c, 1, 79, 93
3, 12384, Note_off_c, 1, 79, 0
3, 12384, Note_on_c, 1, 72, 93
3, 12408, Note_off_c, 1, 72, 0
3, 12408, Note_on_c, 1, 74, 93
3, 12432, Note_off_c, 1, 74, 0
3, 12432, Note_on_c, 1, 76, 93
3, 12456, Note_off_c, 1, 76, 0
3, 12456, Note_on_c, 1, 72, 93
3, 12480, Note_off_c, 1, 72, 0
3, 12480, Note_on_c, 1, 74, 93
3, 12504, Note_off_c, 1, 74, 0
3, 12504, Note_on_c, 1, 76, 93
3, 12528, Note_off_c, 1, 76, 0
3, 12528, Note_on_c, 1, 69, 93
3, 12552, Note_off_c, 1, 69, 0
3, 12552, Note_on_c, 1, 71, 93
3, 12576, Note_off_c, 1, 71, 0
3, 12576, Note_on_c, 1, 72, 93
3, 12600, Note_off_c, 1, 72, 0
3, 12600, Note_on_c, 1, 69, 93
3, 12624, Note_off_c, 1, 69, 0
3, 12624, Note_on_c, 1, 71, 93
3, 12648, Note_off_c, 1, 71, 0
3, 12648, Note_on_c, 1, 72, 93
3, 12672, Note_off_c, 1, 72, 0
3, 12672, Note_on_c, 1, 71, 93
3, 12696, Note_off_c, 1, 71, 0
3, 12696, Note_on_c, 1, 72, 93
3, 12720, Note_off_c, 1, 72, 0
3, 12720, Note_on_c, 1, 74, 93
3, 12744, Note_off_c, 1, 74, 0
3, 12744, Note_on_c, 1, 71, 93
3, 12768, Note_off_c, 1, 71, 0
3, 12768, Note_on_c, 1, 72, 93
3, 12792, Note_off_c, 1, 72, 0
3, 12792, Note_on_c, 1, 74, 93
3, 12816, Note_off_c, 1, 74, 0
3, 12816, Note_on_c, 1, 67, 93
3, 13008, Note_off_c, 1, 67, 0
3, 13008, Note_on_c, 1, 79, 93
3, 13152, Note_off_c, 1, 79, 0
3, 13152, Note_on_c, 1, 78, 93
3, 13200, Note_off_c, 1, 78, 0
3, 13200, Note_on_c, 1, 81, 93
3, 13296, Note_off_c, 1, 81, 0
3, 13296, Note_on_c, 1, 79, 93
3, 13344, Note_off_c, 1, 79, 0
3, 13344, Note_on_c, 1, 77, 93
3, 13392, Note_off_c, 1, 77, 0
3, 13392, Note_on_c, 1, 76, 93
3, 13416, Note_off_c, 1, 76, 0
3, 13416, Note_on_c, 1, 74, 93
3, 13440, Note_off_c, 1, 74, 0
3, 13440, Note_on_c, 1, 72, 93
3, 13464, Note_off_c, 1, 72, 0
3, 13464, Note_on_c, 1, 76, 93
3, 13488, Note_off_c, 1, 76, 0
3, 13488, Note_on_c, 1, 74, 93
3, 13512, Note_off_c, 1, 74, 0
3, 13512, Note_on_c, 1, 72, 93
3, 13536, Note_off_c, 1, 72, 0
3, 13536, Note_on_c, 1, 71, 93
3, 13824, Note_off_c, 1, 71, 0
3, 14544, Note_on_c, 1, 81, 93
3, 14712, Note_off_c, 1, 81, 0
3, 14712, Note_on_c, 1, 83, 93
3, 14736, Note_off_c, 1, 83, 0
3, 14736, Note_on_c, 1, 84, 93
3, 14760, Note_off_c, 1, 84, 0
3, 14760, Note_on_c, 1, 81, 93
3, 14784, Note_off_c, 1, 81, 0
3, 14784, Note_on_c, 1, 83, 93
3, 14808, Note_off_c, 1, 83, 0
3, 14808, Note_on_c, 1, 84, 93
3, 14832, Note_off_c, 1, 84, 0
3, 14832, Note_on_c, 1, 83, 93
3, 14856, Note_off_c, 1, 83, 0
3, 14856, Note_on_c, 1, 81, 93
3, 14880, Note_off_c, 1, 81, 0
3, 14880, Note_on_c, 1, 79, 93
3, 14904, Note_off_c, 1, 79, 0
3, 14904, Note_on_c, 1, 78, 93
3, 14928, Note_off_c, 1, 78, 0
3, 14928, Note_on_c, 1, 76, 93
3, 14952, Note_off_c, 1, 76, 0
3, 14952, Note_on_c, 1, 75, 93
3, 14976, Note_off_c, 1, 75, 0
3, 14976, Note_on_c, 1, 76, 93
3, 15024, Note_off_c, 1, 76, 0
3, 15024, Note_on_c, 1, 78, 93
3, 15072, Note_off_c, 1, 78, 0
3, 15072, Note_on_c, 1, 79, 93
3, 15168, Note_off_c, 1, 79, 0
3, 15168, Note_on_c, 1, 78, 93
3, 15216, Note_off_c, 1, 78, 0
3, 15216, Note_on_c, 1, 76, 93
3, 15264, Note_off_c, 1, 76, 0
3, 15264, Note_on_c, 1, 75, 93
3, 15504, Note_off_c, 1, 75, 0
3, 15696, Note_on_c, 1, 69, 93
3, 15888, Note_off_c, 1, 69, 0
3, 15888, Note_on_c, 1, 71, 93
3, 15912, Note_off_c, 1, 71, 0
3, 15912, Note_on_c, 1, 69, 93
3, 15936, Note_off_c, 1, 69, 0
3, 15936, Note_on_c, 1, 67, 93
3, 15960, Note_off_c, 1, 67, 0
3, 15960, Note_on_c, 1, 66, 93
3, 15984, Note_off_c, 1, 66, 0
3, 15984, Note_on_c, 1, 67, 93
3, 16008, Note_off_c, 1, 67, 0
3, 16008, Note_on_c, 1, 69, 93
3, 16032, Note_off_c, 1, 69, 0
3, 16032, Note_on_c, 1, 71, 93
3, 16056, Note_off_c, 1, 71, 0
3, 16056, Note_on_c, 1, 67, 93
3, 16080, Note_off_c, 1, 67, 0
3, 16080, Note_on_c, 1, 69, 93
3, 16104, Note_off_c, 1, 69, 0
3, 16104, Note_on_c, 1, 71, 93
3, 16128, Note_off_c, 1, 71, 0
3, 16128, Note_on_c, 1, 64, 93
3, 16176, Note_off_c, 1, 64, 0
3, 16176, Note_on_c, 1, 66, 93
3, 16200, Note_off_c, 1, 66, 0
3, 16200, Note_on_c, 1, 67, 93
3, 16224, Note_off_c, 1, 67, 0
3, 16224, Note_on_c, 1, 69, 93
3, 16248, Note_off_c, 1, 69, 0
3, 16248, Note_on_c, 1, 71, 93
3, 16272, Note_off_c, 1, 71, 0
3, 16272, Note_on_c, 1, 72, 93
3, 16320, Note_off_c, 1, 72, 0
3, 16320, Note_on_c, 1, 64, 93
3, 16368, Note_off_c, 1, 64, 0
3, 16368, Note_on_c, 1, 63, 93
3, 16416, Note_off_c, 1, 63, 0
3, 16416, Note_on_c, 1, 64, 93
3, 16560, Note_off_c, 1, 64, 0
3, 16704, Note_on_c, 1, 76, 93
3, 16872, Note_off_c, 1, 76, 0
3, 16872, Note_on_c, 1, 78, 93
3, 16896, Note_off_c, 1, 78, 0
3, 16896, Note_on_c, 1, 79, 93
3, 16920, Note_off_c, 1, 79, 0
3, 16920, Note_on_c, 1, 76, 93
3, 16944, Note_off_c, 1, 76, 0
3, 16944, Note_on_c, 1, 78, 93
3, 16968, Note_off_c, 1, 78, 0
3, 16968, Note_on_c, 1, 79, 93
3, 16992, Note_off_c, 1, 79, 0
3, 16992, Note_on_c, 1, 72, 93
3, 17016, Note_off_c, 1, 72, 0
3, 17016, Note_on_c, 1, 74, 93
3, 17040, Note_off_c, 1, 74, 0
3, 17040, Note_on_c, 1, 76, 93
3, 17064, Note_off_c, 1, 76, 0
3, 17064, Note_on_c, 1, 72, 93
3, 17088, Note_off_c, 1, 72, 0
3, 17088, Note_on_c, 1, 74, 93
3, 17112, Note_off_c, 1, 74, 0
3, 17112, Note_on_c, 1, 76, 93
3, 17136, Note_off_c, 1, 76, 0
3, 17136, Note_on_c, 1, 69, 93
3, 17160, Note_off_c, 1, 69, 0
3, 17160, Note_on_c, 1, 71, 93
3, 17184, Note_off_c, 1, 71, 0
3, 17184, Note_on_c, 1, 72, 93
3, 17208, Note_off_c, 1, 72, 0
3, 17208, Note_on_c, 1, 69, 93
3, 17232, Note_off_c, 1, 69, 0
3, 17232, Note_on_c, 1, 71, 93
3, 17256, Note_off_c, 1, 71, 0
3, 17256, Note_on_c, 1, 72, 93
3, 17280, Note_off_c, 1, 72, 0
3, 17280, Note_on_c, 1, 71, 93
3, 17304, Note_off_c, 1, 71, 0
3, 17304, Note_on_c, 1, 72, 93
3, 17328, Note_off_c, 1, 72, 0
3, 17328, Note_on_c, 1, 74, 93
3, 17352, Note_off_c, 1, 74, 0
3, 17352, Note_on_c, 1, 71, 93
3, 17376, Note_off_c, 1, 71, 0
3, 17376, Note_on_c, 1, 72, 93
3, 17400, Note_off_c, 1, 72, 0
3, 17400, Note_on_c, 1, 74, 93
3, 17424, Note_off_c, 1, 74, 0
3, 17424, Note_on_c, 1, 67, 93
3, 17616, Note_off_c, 1, 67, 0
3, 17616, Note_on_c, 1, 79, 93
3, 17760, Note_off_c, 1, 79, 0
3, 17760, Note_on_c, 1, 78, 93
3, 17808, Note_off_c, 1, 78, 0
3, 17808, Note_on_c, 1, 81, 93
3, 17904, Note_off_c, 1, 81, 0
3, 17904, Note_on_c, 1, 79, 93
3, 17952, Note_off_c, 1, 79, 0
3, 17952, Note_on_c, 1, 77, 93
3, 18000, Note_off_c, 1, 77, 0
3, 18000, Note_on_c, 1, 76, 93
3, 18024, Note_off_c, 1, 76, 0
3, 18024, Note_on_c, 1, 74, 93
3, 18048, Note_off_c, 1, 74, 0
3, 18048, Note_on_c, 1, 72, 93
3, 18072, Note_off_c, 1, 72, 0
3, 18072, Note_on_c, 1, 76, 93
3, 18096, Note_off_c, 1, 76, 0
3, 18096, Note_on_c, 1, 74, 93
3, 18120, Note_off_c, 1, 74, 0
3, 18120, Note_on_c, 1, 72, 93
3, 18144, Note_off_c, 1, 72, 0
3, 18144, Note_on_c, 1, 71, 93
3, 18432, Note_off_c, 1, 71, 0
3, 18432, End_track
4, 0, Start_track
4, 0, Title_t, "Track4"
4, 0, Program_c, 2, 6
4, 0, Control_c, 2, 7, 100
4, 0, Control_c, 2, 10, 54
4, 0, Note_on_c, 2, 43, 93
4, 48, Note_off_c, 2, 43, 0
4, 48, Note_on_c, 2, 47, 93
4, 96, Note_off_c, 2, 47, 0
4, 96, Note_on_c, 2, 50, 93
4, 144, Note_off_c, 2, 50, 0
4, 144, Note_on_c, 2, 55, 93
4, 192, Note_off_c, 2, 55, 0
4, 192, Note_on_c, 2, 59, 93
4, 240, Note_off_c, 2, 59, 0
4, 240, Note_on_c, 2, 52, 93
4, 288, Note_off_c, 2, 52, 0
4, 288, Note_on_c, 2, 42, 93
4, 336, Note_off_c, 2, 42, 0
4, 336, Note_on_c, 2, 45, 93
4, 384, Note_off_c, 2, 45, 0
4, 384, Note_on_c, 2, 50, 93
4, 432, Note_off_c, 2, 50, 0
4, 432, Note_on_c, 2, 54, 93
4, 480, Note_off_c, 2, 54, 0
4, 480, Note_on_c, 2, 57, 93
4, 528, Note_off_c, 2, 57, 0
4, 528, Note_on_c, 2, 50, 93
4, 576, Note_off_c, 2, 50, 0
4, 576, Note_on_c, 2, 40, 93
4, 624, Note_off_c, 2, 40, 0
4, 624, Note_on_c, 2, 43, 93
4, 672, Note_off_c, 2, 43, 0
4, 672, Note_on_c, 2, 47, 93
4, 720, Note_off_c, 2, 47, 0
4, 720, Note_on_c, 2, 52, 93
4, 768, Note_off_c, 2, 52, 0
4, 768, Note_on_c, 2, 47, 93
4, 816, Note_off_c, 2, 47, 0
4, 816, Note_on_c, 2, 49, 93
4, 864, Note_off_c, 2, 49, 0
4, 864, Note_on_c, 2, 38, 93
4, 912, Note_off_c, 2, 38, 0
4, 912, Note_on_c, 2, 42, 93
4, 960, Note_off_c, 2, 42, 0
4, 960, Note_on_c, 2, 45, 93
4, 1008, Note_off_c, 2, 45, 0
4, 1008, Note_on_c, 2, 50, 93
4, 1056, Note_off_c, 2, 50, 0
4, 1056, Note_on_c, 2, 54, 93
4, 1104, Note_off_c, 2, 54, 0
4, 1104, Note_on_c, 2, 45, 93
4, 1152, Note_off_c, 2, 45, 0
4, 1152, Note_on_c, 2, 47, 93
4, 1176, Note_off_c, 2, 47, 0
4, 1176, Note_on_c, 2, 45, 93
4, 1200, Note_off_c, 2, 45, 0
4, 1200, Note_on_c, 2, 47, 93
4, 1224, Note_off_c, 2, 47, 0
4, 1224, Note_on_c, 2, 48, 93
4, 1248, Note_off_c, 2, 48, 0
4, 1248, Note_on_c, 2, 50, 93
4, 1320, Note_off_c, 2, 50, 0
4, 1320, Note_on_c, 2, 43, 93
4, 1344, Note_off_c, 2, 43, 0
4, 1344, Note_on_c, 2, 45, 93
4, 1368, Note_off_c, 2, 45, 0
4, 1368, Note_on_c, 2, 47, 93
4, 1392, Note_off_c, 2, 47, 0
4, 1392, Note_on_c, 2, 48, 93
4, 1416, Note_off_c, 2, 48, 0
4, 1416, Note_on_c, 2, 50, 93
4, 1440, Note_off_c, 2, 50, 0
4, 1440, Note_on_c, 2, 52, 93
4, 1464, Note_off_c, 2, 52, 0
4, 1464, Note_on_c, 2, 50, 93
4, 1488, Note_off_c, 2, 50, 0
4, 1488, Note_on_c, 2, 48, 93
4, 1512, Note_off_c, 2, 48, 0
4, 1512, Note_on_c, 2, 47, 93
4, 1536, Note_off_c, 2, 47, 0
4, 1536, Note_on_c, 2, 48, 93
4, 1560, Note_off_c, 2, 48, 0
4, 1560, Note_on_c, 2, 52, 93
4, 1584, Note_off_c, 2, 52, 0
4, 1584, Note_on_c, 2, 42, 93
4, 1608, Note_off_c, 2, 42, 0
4, 1608, Note_on_c, 2, 45, 93
4, 1632, Note_off_c, 2, 45, 0
4, 1632, Note_on_c, 2, 43, 93
4, 1656, Note_off_c, 2, 43, 0
4, 1656, Note_on_c, 2, 42, 93
4, 1680, Note_off_c, 2, 42, 0
4, 1680, Note_on_c, 2, 40, 93
4, 1704, Note_off_c, 2, 40, 0
4, 1704, Note_on_c, 2, 38, 93
4, 1728, Note_off_c, 2, 38, 0
4, 1728, Note_on_c, 2, 43, 93
4, 1752, Note_off_c, 2, 43, 0
4, 1752, Note_on_c, 2, 42, 93
4, 1776, Note_off_c, 2, 42, 0
4, 1776, Note_on_c, 2, 43, 93
4, 1800, Note_off_c, 2, 43, 0
4, 1800, Note_on_c, 2, 45, 93
4, 1824, Note_off_c, 2, 45, 0
4, 1824, Note_on_c, 2, 47, 93
4, 1848, Note_off_c, 2, 47, 0
4, 1848, Note_on_c, 2, 48, 93
4, 1872, Note_off_c, 2, 48, 0
4, 1872, Note_on_c, 2, 50, 93
4, 1896, Note_off_c, 2, 50, 0
4, 1896, Note_on_c, 2, 52, 93
4, 1920, Note_off_c, 2, 52, 0
4, 1920, Note_on_c, 2, 45, 93
4, 1944, Note_off_c, 2, 45, 0
4, 1944, Note_on_c, 2, 47, 93
4, 1968, Note_off_c, 2, 47, 0
4, 1968, Note_on_c, 2, 48, 93
4, 1992, Note_off_c, 2, 48, 0
4, 1992, Note_on_c, 2, 45, 93
4, 2016, Note_off_c, 2, 45, 0
4, 2016, Note_on_c, 2, 47, 93
4, 2040, Note_off_c, 2, 47, 0
4, 2040, Note_on_c, 2, 45, 93
4, 2064, Note_off_c, 2, 45, 0
4, 2064, Note_on_c, 2, 43, 93
4, 2088, Note_off_c, 2, 43, 0
4, 2088, Note_on_c, 2, 42, 93
4, 2112, Note_off_c, 2, 42, 0
4, 2112, Note_on_c, 2, 43, 93
4, 2184, Note_off_c, 2, 43, 0
4, 2184, Note_on_c, 2, 42, 93
4, 2208, Note_off_c, 2, 42, 0
4, 2208, Note_on_c, 2, 40, 93
4, 2232, Note_off_c, 2, 40, 0
4, 2232, Note_on_c, 2, 38, 93
4, 2256, Note_off_c, 2, 38, 0
4, 2256, Note_on_c, 2, 40, 93
4, 2280, Note_off_c, 2, 40, 0
4, 2280, Note_on_c, 2, 42, 93
4, 2304, Note_off_c, 2, 42, 0
4, 2304, Note_on_c, 2, 43, 93
4, 2328, Note_off_c, 2, 43, 0
4, 2328, Note_on_c, 2, 42, 93
4, 2352, Note_off_c, 2, 42, 0
4, 2352, Note_on_c, 2, 43, 93
4, 2376, Note_off_c, 2, 43, 0
4, 2376, Note_on_c, 2, 45, 93
4, 2400, Note_off_c, 2, 45, 0
4, 2400, Note_on_c, 2, 43, 93
4, 2424, Note_off_c, 2, 43, 0
4, 2424, Note_on_c, 2, 42, 93
4, 2448, Note_off_c, 2, 42, 0
4, 2448, Note_on_c, 2, 40, 93
4, 2472, Note_off_c, 2, 40, 0
4, 2472, Note_on_c, 2, 42, 93
4, 2496, Note_off_c, 2, 42, 0
4, 2496, Note_on_c, 2, 43, 93
4, 2520, Note_off_c, 2, 43, 0
4, 2520, Note_on_c, 2, 40, 93
4, 2544, Note_off_c, 2, 40, 0
4, 2544, Note_on_c, 2, 42, 93
4, 2568, Note_off_c, 2, 42, 0
4, 2568, Note_on_c, 2, 43, 93
4, 2592, Note_off_c, 2, 43, 0
4, 2592, Note_on_c, 2, 45, 93
4, 2616, Note_off_c, 2, 45, 0
4, 2616, Note_on_c, 2, 43, 93
4, 2640, Note_off_c, 2, 43, 0
4, 2640, Note_on_c, 2, 45, 93
4, 2664, Note_off_c, 2, 45, 0
4, 2664, Note_on_c, 2, 47, 93
4, 2688, Note_off_c, 2, 47, 0
4, 2688, Note_on_c, 2, 45, 93
4, 2712, Note_off_c, 2, 45, 0
4, 2712, Note_on_c, 2, 43, 93
4, 2736, Note_off_c, 2, 43, 0
4, 2736, Note_on_c, 2, 42, 93
4, 2760, Note_off_c, 2, 42, 0
4, 2760, Note_on_c, 2, 54, 93
4, 2784, Note_off_c, 2, 54, 0
4, 2784, Note_on_c, 2, 55, 93
4, 2808, Note_off_c, 2, 55, 0
4, 2808, Note_on_c, 2, 54, 93
4, 2832, Note_off_c, 2, 54, 0
4, 2832, Note_on_c, 2, 52, 93
4, 2856, Note_off_c, 2, 52, 0
4, 2856, Note_on_c, 2, 54, 93
4, 2880, Note_off_c, 2, 54, 0
4, 2880, Note_on_c, 2, 47, 93
4, 2904, Note_off_c, 2, 47, 0
4, 2904, Note_on_c, 2, 45, 93
4, 2928, Note_off_c, 2, 45, 0
4, 2928, Note_on_c, 2, 47, 93
4, 2952, Note_off_c, 2, 47, 0
4, 2952, Note_on_c, 2, 48, 93
4, 2976, Note_off_c, 2, 48, 0
4, 2976, Note_on_c, 2, 50, 93
4, 3000, Note_off_c, 2, 50, 0
4, 3000, Note_on_c, 2, 47, 93
4, 3024, Note_off_c, 2, 47, 0
4, 3024, Note_on_c, 2, 49, 93
4, 3048, Note_off_c, 2, 49, 0
4, 3048, Note_on_c, 2, 50, 93
4, 3072, Note_off_c, 2, 50, 0
4, 3072, Note_on_c, 2, 52, 93
4, 3096, Note_off_c, 2, 52, 0
4, 3096, Note_on_c, 2, 50, 93
4, 3120, Note_off_c, 2, 50, 0
4, 3120, Note_on_c, 2, 49, 93
4, 3144, Note_off_c, 2, 49, 0
4, 3144, Note_on_c, 2, 47, 93
4, 3168, Note_off_c, 2, 47, 0
4, 3168, Note_on_c, 2, 45, 93
4, 3192, Note_off_c, 2, 45, 0
4, 3192, Note_on_c, 2, 52, 93
4, 3216, Note_off_c, 2, 52, 0
4, 3216, Note_on_c, 2, 50, 93
4, 3240, Note_off_c, 2, 50, 0
4, 3240, Note_on_c, 2, 49, 93
4, 3264, Note_off_c, 2, 49, 0
4, 3264, Note_on_c, 2, 50, 93
4, 3288, Note_off_c, 2, 50, 0
4, 3288, Note_on_c, 2, 47, 93
4, 3312, Note_off_c, 2, 47, 0
4, 3312, Note_on_c, 2, 49, 93
4, 3336, Note_off_c, 2, 49, 0
4, 3336, Note_on_c, 2, 45, 93
4, 3360, Note_off_c, 2, 45, 0
4, 3360, Note_on_c, 2, 47, 93
4, 3384, Note_off_c, 2, 47, 0
4, 3384, Note_on_c, 2, 49, 93
4, 3408, Note_off_c, 2, 49, 0
4, 3408, Note_on_c, 2, 50, 93
4, 3432, Note_off_c, 2, 50, 0
4, 3432, Note_on_c, 2, 52, 93
4, 3456, Note_off_c, 2, 52, 0
4, 3456, Note_on_c, 2, 54, 93
4, 3480, Note_off_c, 2, 54, 0
4, 3480, Note_on_c, 2, 47, 93
4, 3504, Note_off_c, 2, 47, 0
4, 3504, Note_on_c, 2, 49, 93
4, 3528, Note_off_c, 2, 49, 0
4, 3528, Note_on_c, 2, 50, 93
4, 3552, Note_off_c, 2, 50, 0
4, 3552, Note_on_c, 2, 52, 93
4, 3576, Note_off_c, 2, 52, 0
4, 3576, Note_on_c, 2, 54, 93
4, 3600, Note_off_c, 2, 54, 0
4, 3600, Note_on_c, 2, 55, 93
4, 3624, Note_off_c, 2, 55, 0
4, 3624, Note_on_c, 2, 54, 93
4, 3648, Note_off_c, 2, 54, 0
4, 3648, Note_on_c, 2, 52, 93
4, 3672, Note_off_c, 2, 52, 0
4, 3672, Note_on_c, 2, 50, 93
4, 3696, Note_off_c, 2, 50, 0
4, 3696, Note_on_c, 2, 52, 93
4, 3720, Note_off_c, 2, 52, 0
4, 3720, Note_on_c, 2, 46, 93
4, 3744, Note_off_c, 2, 46, 0
4, 3744, Note_on_c, 2, 47, 93
4, 3768, Note_off_c, 2, 47, 0
4, 3768, Note_on_c, 2, 49, 93
4, 3792, Note_off_c, 2, 49, 0
4, 3792, Note_on_c, 2, 50, 93
4, 3816, Note_off_c, 2, 50, 0
4, 3816, Note_on_c, 2, 49, 93
4, 3840, Note_off_c, 2, 49, 0
4, 3840, Note_on_c, 2, 47, 93
4, 3864, Note_off_c, 2, 47, 0
4, 3864, Note_on_c, 2, 45, 93
4, 3888, Note_off_c, 2, 45, 0
4, 3888, Note_on_c, 2, 43, 93
4, 3912, Note_off_c, 2, 43, 0
4, 3912, Note_on_c, 2, 42, 93
4, 3936, Note_off_c, 2, 42, 0
4, 3936, Note_on_c, 2, 43, 93
4, 3960, Note_off_c, 2, 43, 0
4, 3960, Note_on_c, 2, 47, 93
4, 3984, Note_off_c, 2, 47, 0
4, 3984, Note_on_c, 2, 45, 93
4, 4008, Note_off_c, 2, 45, 0
4, 4008, Note_on_c, 2, 43, 93
4, 4032, Note_off_c, 2, 43, 0
4, 4032, Note_on_c, 2, 42, 93
4, 4056, Note_off_c, 2, 42, 0
4, 4056, Note_on_c, 2, 45, 93
4, 4080, Note_off_c, 2, 45, 0
4, 4080, Note_on_c, 2, 43, 93
4, 4104, Note_off_c, 2, 43, 0
4, 4104, Note_on_c, 2, 42, 93
4, 4128, Note_off_c, 2, 42, 0
4, 4128, Note_on_c, 2, 40, 93
4, 4152, Note_off_c, 2, 40, 0
4, 4152, Note_on_c, 2, 38, 93
4, 4176, Note_off_c, 2, 38, 0
4, 4176, Note_on_c, 2, 43, 93
4, 4224, Note_off_c, 2, 43, 0
4, 4224, Note_on_c, 2, 40, 93
4, 4272, Note_off_c, 2, 40, 0
4, 4272, Note_on_c, 2, 45, 93
4, 4320, Note_off_c, 2, 45, 0
4, 4320, Note_on_c, 2, 38, 93
4, 4344, Note_off_c, 2, 38, 0
4, 4344, Note_on_c, 2, 42, 93
4, 4368, Note_off_c, 2, 42, 0
4, 4368, Note_on_c, 2, 45, 93
4, 4392, Note_off_c, 2, 45, 0
4, 4392, Note_on_c, 2, 50, 93
4, 4416, Note_off_c, 2, 50, 0
4, 4416, Note_on_c, 2, 45, 93
4, 4440, Note_off_c, 2, 45, 0
4, 4440, Note_on_c, 2, 42, 93
4, 4464, Note_off_c, 2, 42, 0
4, 4464, Note_on_c, 2, 38, 93
4, 4608, Note_off_c, 2, 38, 0
4, 4608, Note_on_c, 2, 43, 93
4, 4656, Note_off_c, 2, 43, 0
4, 4656, Note_on_c, 2, 47, 93
4, 4704, Note_off_c, 2, 47, 0
4, 4704, Note_on_c, 2, 50, 93
4, 4752, Note_off_c, 2, 50, 0
4, 4752, Note_on_c, 2, 55, 93
4, 4800, Note_off_c, 2, 55, 0
4, 4800, Note_on_c, 2, 59, 93
4, 4848, Note_off_c, 2, 59, 0
4, 4848, Note_on_c, 2, 52, 93
4, 4896, Note_off_c, 2, 52, 0
4, 4896, Note_on_c, 2, 42, 93
4, 4944, Note_off_c, 2, 42, 0
4, 4944, Note_on_c, 2, 45, 93
4, 4992, Note_off_c, 2, 45, 0
4, 4992, Note_on_c, 2, 50, 93
4, 5040, Note_off_c, 2, 50, 0
4, 5040, Note_on_c, 2, 54, 93
4, 5088, Note_off_c, 2, 54, 0
4, 5088, Note_on_c, 2, 57, 93
4, 5136, Note_off_c, 2, 57, 0
4, 5136, Note_on_c, 2, 50, 93
4, 5184, Note_off_c, 2, 50, 0
4, 5184, Note_on_c, 2, 40, 93
4, 5232, Note_off_c, 2, 40, 0
4, 5232, Note_on_c, 2, 43, 93
4, 5280, Note_off_c, 2, 43, 0
4, 5280, Note_on_c, 2, 47, 93
4, 5328, Note_off_c, 2, 47, 0
4, 5328, Note_on_c, 2, 52, 93
4, 5376, Note_off_c, 2, 52, 0
4, 5376, Note_on_c, 2, 47, 93
4, 5424, Note_off_c, 2, 47, 0
4, 5424, Note_on_c, 2, 49, 93
4, 5472, Note_off_c, 2, 49, 0
4, 5472, Note_on_c, 2, 38, 93
4, 5520, Note_off_c, 2, 38, 0
4, 5520, Note_on_c, 2, 42, 93
4, 5568, Note_off_c, 2, 42, 0
4, 5568, Note_on_c, 2, 45, 93
4, 5616, Note_off_c, 2, 45, 0
4, 5616, Note_on_c, 2, 50, 93
4, 5664, Note_off_c, 2, 50, 0
4, 5664, Note_on_c, 2, 54, 93
4, 5712, Note_off_c, 2, 54, 0
4, 5712, Note_on_c, 2, 45, 93
4, 5760, Note_off_c, 2, 45, 0
4, 5760, Note_on_c, 2, 47, 93
4, 5784, Note_off_c, 2, 47, 0
4, 5784, Note_on_c, 2, 45, 93
4, 5808, Note_off_c, 2, 45, 0
4, 5808, Note_on_c, 2, 47, 93
4, 5832, Note_off_c, 2, 47, 0
4, 5832, Note_on_c, 2, 48, 93
4, 5856, Note_off_c, 2, 48, 0
4, 5856, Note_on_c, 2, 50, 93
4, 5928, Note_off_c, 2, 50, 0
4, 5928, Note_on_c, 2, 43, 93
4, 5952, Note_off_c, 2, 43, 0
4, 5952, Note_on_c, 2, 45, 93
4, 5976, Note_off_c, 2, 45, 0
4, 5976, Note_on_c, 2, 47, 93
4, 6000, Note_off_c, 2, 47, 0
4, 6000, Note_on_c, 2, 48, 93
4, 6024, Note_off_c, 2, 48, 0
4, 6024, Note_on_c, 2, 50, 93
4, 6048, Note_off_c, 2, 50, 0
4, 6048, Note_on_c, 2, 52, 93
4, 6072, Note_off_c, 2, 52, 0
4, 6072, Note_on_c, 2, 50, 93
4, 6096, Note_off_c, 2, 50, 0
4, 6096, Note_on_c, 2, 48, 93
4, 6120, Note_off_c, 2, 48, 0
4, 6120, Note_on_c, 2, 47, 93
4, 6144, Note_off_c, 2, 47, 0
4, 6144, Note_on_c, 2, 48, 93
4, 6168, Note_off_c, 2, 48, 0
4, 6168, Note_on_c, 2, 52, 93
4, 6192, Note_off_c, 2, 52, 0
4, 6192, Note_on_c, 2, 42, 93
4, 6216, Note_off_c, 2, 42, 0
4, 6216, Note_on_c, 2, 45, 93
4, 6240, Note_off_c, 2, 45, 0
4, 6240, Note_on_c, 2, 43, 93
4, 6264, Note_off_c, 2, 43, 0
4, 6264, Note_on_c, 2, 42, 93
4, 6288, Note_off_c, 2, 42, 0
4, 6288, Note_on_c, 2, 40, 93
4, 6312, Note_off_c, 2, 40, 0
4, 6312, Note_on_c, 2, 38, 93
4, 6336, Note_off_c, 2, 38, 0
4, 6336, Note_on_c, 2, 43, 93
4, 6360, Note_off_c, 2, 43, 0
4, 6360, Note_on_c, 2, 42, 93
4, 6384, Note_off_c, 2, 42, 0
4, 6384, Note_on_c, 2, 43, 93
4, 6408, Note_off_c, 2, 43, 0
4, 6408, Note_on_c, 2, 45, 93
4, 6432, Note_off_c, 2, 45, 0
4, 6432, Note_on_c, 2, 47, 93
4, 6456, Note_off_c, 2, 47, 0
4, 6456, Note_on_c, 2, 48, 93
4, 6480, Note_off_c, 2, 48, 0
4, 6480, Note_on_c, 2, 50, 93
4, 6504, Note_off_c, 2, 50, 0
4, 6504, Note_on_c, 2, 52, 93
4, 6528, Note_off_c, 2, 52, 0
4, 6528, Note_on_c, 2, 45, 93
4, 6552, Note_off_c, 2, 45, 0
4, 6552, Note_on_c, 2, 47, 93
4, 6576, Note_off_c, 2, 47, 0
4, 6576, Note_on_c, 2, 48, 93
4, 6600, Note_off_c, 2, 48, 0
4, 6600, Note_on_c, 2, 45, 93
4, 6624, Note_off_c, 2, 45, 0
4, 6624, Note_on_c, 2, 47, 93
4, 6648, Note_off_c, 2, 47, 0
4, 6648, Note_on_c, 2, 45, 93
4, 6672, Note_off_c, 2, 45, 0
4, 6672, Note_on_c, 2, 43, 93
4, 6696, Note_off_c, 2, 43, 0
4, 6696, Note_on_c, 2, 42, 93
4, 6720, Note_off_c, 2, 42, 0
4, 6720, Note_on_c, 2, 43, 93
4, 6792, Note_off_c, 2, 43, 0
4, 6792, Note_on_c, 2, 42, 93
4, 6816, Note_off_c, 2, 42, 0
4, 6816, Note_on_c, 2, 40, 93
4, 6840, Note_off_c, 2, 40, 0
4, 6840, Note_on_c, 2, 38, 93
4, 6864, Note_off_c, 2, 38, 0
4, 6864, Note_on_c, 2, 40, 93
4, 6888, Note_off_c, 2, 40, 0
4, 6888, Note_on_c, 2, 42, 93
4, 6912, Note_off_c, 2, 42, 0
4, 6912, Note_on_c, 2, 43, 93
4, 6936, Note_off_c, 2, 43, 0
4, 6936, Note_on_c, 2, 42, 93
4, 6960, Note_off_c, 2, 42, 0
4, 6960, Note_on_c, 2, 43, 93
4, 6984, Note_off_c, 2, 43, 0
4, 6984, Note_on_c, 2, 45, 93
4, 7008, Note_off_c, 2, 45, 0
4, 7008, Note_on_c, 2, 43, 93
4, 7032, Note_off_c, 2, 43, 0
4, 7032, Note_on_c, 2, 42, 93
4, 7056, Note_off_c, 2, 42, 0
4, 7056, Note_on_c, 2, 40, 93
4, 7080, Note_off_c, 2, 40, 0
4, 7080, Note_on_c, 2, 42, 93
4, 7104, Note_off_c, 2, 42, 0
4, 7104, Note_on_c, 2, 43, 93
4, 7128, Note_off_c, 2, 43, 0
4, 7128, Note_on_c, 2, 40, 93
4, 7152, Note_off_c, 2, 40, 0
4, 7152, Note_on_c, 2, 42, 93
4, 7176, Note_off_c, 2, 42, 0
4, 7176, Note_on_c, 2, 43, 93
4, 7200, Note_off_c, 2, 43, 0
4, 7200, Note_on_c, 2, 45, 93
4, 7224, Note_off_c, 2, 45, 0
4, 7224, Note_on_c, 2, 43, 93
4, 7248, Note_off_c, 2, 43, 0
4, 7248, Note_on_c, 2, 45, 93
4, 7272, Note_off_c, 2, 45, 0
4, 7272, Note_on_c, 2, 47, 93
4, 7296, Note_off_c, 2, 47, 0
4, 7296, Note_on_c, 2, 45, 93
4, 7320, Note_off_c, 2, 45, 0
4, 7320, Note_on_c, 2, 43, 93
4, 7344, Note_off_c, 2, 43, 0
4, 7344, Note_on_c, 2, 42, 93
4, 7368, Note_off_c, 2, 42, 0
4, 7368, Note_on_c, 2, 54, 93
4, 7392, Note_off_c, 2, 54, 0
4, 7392, Note_on_c, 2, 55, 93
4, 7416, Note_off_c, 2, 55, 0
4, 7416, Note_on_c, 2, 54, 93
4, 7440, Note_off_c, 2, 54, 0
4, 7440, Note_on_c, 2, 52, 93
4, 7464, Note_off_c, 2, 52, 0
4, 7464, Note_on_c, 2, 54, 93
4, 7488, Note_off_c, 2, 54, 0
4, 7488, Note_on_c, 2, 47, 93
4, 7512, Note_off_c, 2, 47, 0
4, 7512, Note_on_c, 2, 45, 93
4, 7536, Note_off_c, 2, 45, 0
4, 7536, Note_on_c, 2, 47, 93
4, 7560, Note_off_c, 2, 47, 0
4, 7560, Note_on_c, 2, 48, 93
4, 7584, Note_off_c, 2, 48, 0
4, 7584, Note_on_c, 2, 50, 93
4, 7608, Note_off_c, 2, 50, 0
4, 7608, Note_on_c, 2, 47, 93
4, 7632, Note_off_c, 2, 47, 0
4, 7632, Note_on_c, 2, 49, 93
4, 7656, Note_off_c, 2, 49, 0
4, 7656, Note_on_c, 2, 50, 93
4, 7680, Note_off_c, 2, 50, 0
4, 7680, Note_on_c, 2, 52, 93
4, 7704, Note_off_c, 2, 52, 0
4, 7704, Note_on_c, 2, 50, 93
4, 7728, Note_off_c, 2, 50, 0
4, 7728, Note_on_c, 2, 49, 93
4, 7752, Note_off_c, 2, 49, 0
4, 7752, Note_on_c, 2, 47, 93
4, 7776, Note_off_c, 2, 47, 0
4, 7776, Note_on_c, 2, 45, 93
4, 7800, Note_off_c, 2, 45, 0
4, 7800, Note_on_c, 2, 52, 93
4, 7824, Note_off_c, 2, 52, 0
4, 7824, Note_on_c, 2, 50, 93
4, 7848, Note_off_c, 2, 50, 0
4, 7848, Note_on_c, 2, 49, 93
4, 7872, Note_off_c, 2, 49, 0
4, 7872, Note_on_c, 2, 50, 93
4, 7896, Note_off_c, 2, 50, 0
4, 7896, Note_on_c, 2, 47, 93
4, 7920, Note_off_c, 2, 47, 0
4, 7920, Note_on_c, 2, 49, 93
4, 7944, Note_off_c, 2, 49, 0
4, 7944, Note_on_c, 2, 45, 93
4, 7968, Note_off_c, 2, 45, 0
4, 7968, Note_on_c, 2, 47, 93
4, 7992, Note_off_c, 2, 47, 0
4, 7992, Note_on_c, 2, 49, 93
4, 8016, Note_off_c, 2, 49, 0
4, 8016, Note_on_c, 2, 50, 93
4, 8040, Note_off_c, 2, 50, 0
4, 8040, Note_on_c, 2, 52, 93
4, 8064, Note_off_c, 2, 52, 0
4, 8064, Note_on_c, 2, 54, 93
4, 8088, Note_off_c, 2, 54, 0
4, 8088, Note_on_c, 2, 47, 93
4, 8112, Note_off_c, 2, 47, 0
4, 8112, Note_on_c, 2, 49, 93
4, 8136, Note_off_c, 2, 49, 0
4, 8136, Note_on_c, 2, 50, 93
4, 8160, Note_off_c, 2, 50, 0
4, 8160, Note_on_c, 2, 52, 93
4, 8184, Note_off_c, 2, 52, 0
4, 8184, Note_on_c, 2, 54, 93
4, 8208, Note_off_c, 2, 54, 0
4, 8208, Note_on_c, 2, 55, 93
4, 8232, Note_off_c, 2, 55, 0
4, 8232, Note_on_c, 2, 54, 93
4, 8256, Note_off_c, 2, 54, 0
4, 8256, Note_on_c, 2, 52, 93
4, 8280, Note_off_c, 2, 52, 0
4, 8280, Note_on_c, 2, 50, 93
4, 8304, Note_off_c, 2, 50, 0
4, 8304, Note_on_c, 2, 52, 93
4, 8328, Note_off_c, 2, 52, 0
4, 8328, Note_on_c, 2, 46, 93
4, 8352, Note_off_c, 2, 46, 0
4, 8352, Note_on_c, 2, 47, 93
4, 8376, Note_off_c, 2, 47, 0
4, 8376, Note_on_c, 2, 49, 93
4, 8400, Note_off_c, 2, 49, 0
4, 8400, Note_on_c, 2, 50, 93
4, 8424, Note_off_c, 2, 50, 0
4, 8424, Note_on_c, 2, 49, 93
4, 8448, Note_off_c, 2, 49, 0
4, 8448, Note_on_c, 2, 47, 93
4, 8472, Note_off_c, 2, 47, 0
4, 8472, Note_on_c, 2, 45, 93
4, 8496, Note_off_c, 2, 45, 0
4, 8496, Note_on_c, 2, 43, 93
4, 8520, Note_off_c, 2, 43, 0
4, 8520, Note_on_c, 2, 42, 93
4, 8544, Note_off_c, 2, 42, 0
4, 8544, Note_on_c, 2, 43, 93
4, 8568, Note_off_c, 2, 43, 0
4, 8568, Note_on_c, 2, 47, 93
4, 8592, Note_off_c, 2, 47, 0
4, 8592, Note_on_c, 2, 45, 93
4, 8616, Note_off_c, 2, 45, 0
4, 8616, Note_on_c, 2, 43, 93
4, 8640, Note_off_c, 2, 43, 0
4, 8640, Note_on_c, 2, 42, 93
4, 8664, Note_off_c, 2, 42, 0
4, 8664, Note_on_c, 2, 45, 93
4, 8688, Note_off_c, 2, 45, 0
4, 8688, Note_on_c, 2, 43, 93
4, 8712, Note_off_c, 2, 43, 0
4, 8712, Note_on_c, 2, 42, 93
4, 8736, Note_off_c, 2, 42, 0
4, 8736, Note_on_c, 2, 40, 93
4, 8760, Note_off_c, 2, 40, 0
4, 8760, Note_on_c, 2, 38, 93
4, 8784, Note_off_c, 2, 38, 0
4, 8784, Note_on_c, 2, 43, 93
4, 8832, Note_off_c, 2, 43, 0
4, 8832, Note_on_c, 2, 40, 93
4, 8880, Note_off_c, 2, 40, 0
4, 8880, Note_on_c, 2, 45, 93
4, 8928, Note_off_c, 2, 45, 0
4, 8928, Note_on_c, 2, 38, 93
4, 8952, Note_off_c, 2, 38, 0
4, 8952, Note_on_c, 2, 42, 93
4, 8976, Note_off_c, 2, 42, 0
4, 8976, Note_on_c, 2, 45, 93
4, 9000, Note_off_c, 2, 45, 0
4, 9000, Note_on_c, 2, 50, 93
4, 9024, Note_off_c, 2, 50, 0
4, 9024, Note_on_c, 2, 45, 93
4, 9048, Note_off_c, 2, 45, 0
4, 9048, Note_on_c, 2, 42, 93
4, 9072, Note_off_c, 2, 42, 0
4, 9072, Note_on_c, 2, 38, 93
4, 9216, Note_off_c, 2, 38, 0
4, 9216, Note_on_c, 2, 50, 93
4, 9264, Note_off_c, 2, 50, 0
4, 9264, Note_on_c, 2, 54, 93
4, 9312, Note_off_c, 2, 54, 0
4, 9312, Note_on_c, 2, 57, 93
4, 9360, Note_off_c, 2, 57, 0
4, 9360, Note_on_c, 2, 62, 93
4, 9408, Note_off_c, 2, 62, 0
4, 9408, Note_on_c, 2, 60, 93
4, 9432, Note_off_c, 2, 60, 0
4, 9432, Note_on_c, 2, 59, 93
4, 9456, Note_off_c, 2, 59, 0
4, 9456, Note_on_c, 2, 57, 93
4, 9480, Note_off_c, 2, 57, 0
4, 9480, Note_on_c, 2, 55, 93
4, 9504, Note_off_c, 2, 55, 0
4, 9504, Note_on_c, 2, 54, 93
4, 9552, Note_off_c, 2, 54, 0
4, 9552, Note_on_c, 2, 57, 93
4, 9600, Note_off_c, 2, 57, 0
4, 9600, Note_on_c, 2, 50, 93
4, 9648, Note_off_c, 2, 50, 0
4, 9648, Note_on_c, 2, 55, 93
4, 9696, Note_off_c, 2, 55, 0
4, 9696, Note_on_c, 2, 57, 93
4, 9744, Note_off_c, 2, 57, 0
4, 9744, Note_on_c, 2, 59, 93
4, 9792, Note_off_c, 2, 59, 0
4, 9792, Note_on_c, 2, 60, 93
4, 9816, Note_off_c, 2, 60, 0
4, 9816, Note_on_c, 2, 62, 93
4, 9840, Note_off_c, 2, 62, 0
4, 9840, Note_on_c, 2, 60, 93
4, 9864, Note_off_c, 2, 60, 0
4, 9864, Note_on_c, 2, 59, 93
4, 9888, Note_off_c, 2, 59, 0
4, 9888, Note_on_c, 2, 57, 93
4, 9912, Note_off_c, 2, 57, 0
4, 9912, Note_on_c, 2, 55, 93
4, 9936, Note_off_c, 2, 55, 0
4, 9936, Note_on_c, 2, 54, 93
4, 9960, Note_off_c, 2, 54, 0
4, 9960, Note_on_c, 2, 52, 93
4, 9984, Note_off_c, 2, 52, 0
4, 9984, Note_on_c, 2, 54, 93
4, 10008, Note_off_c, 2, 54, 0
4, 10008, Note_on_c, 2, 55, 93
4, 10032, Note_off_c, 2, 55, 0
4, 10032, Note_on_c, 2, 57, 93
4, 10056, Note_off_c, 2, 57, 0
4, 10056, Note_on_c, 2, 54, 93
4, 10080, Note_off_c, 2, 54, 0
4, 10080, Note_on_c, 2, 59, 93
4, 10128, Note_off_c, 2, 59, 0
4, 10128, Note_on_c, 2, 54, 93
4, 10176, Note_off_c, 2, 54, 0
4, 10176, Note_on_c, 2, 55, 93
4, 10224, Note_off_c, 2, 55, 0
4, 10224, Note_on_c, 2, 57, 93
4, 10248, Note_off_c, 2, 57, 0
4, 10248, Note_on_c, 2, 60, 93
4, 10272, Note_off_c, 2, 60, 0
4, 10272, Note_on_c, 2, 59, 93
4, 10296, Note_off_c, 2, 59, 0
4, 10296, Note_on_c, 2, 57, 93
4, 10320, Note_off_c, 2, 57, 0
4, 10320, Note_on_c, 2, 55, 93
4, 10344, Note_off_c, 2, 55, 0
4, 10344, Note_on_c, 2, 54, 93
4, 10368, Note_off_c, 2, 54, 0
4, 10368, Note_on_c, 2, 55, 93
4, 10392, Note_off_c, 2, 55, 0
4, 10392, Note_on_c, 2, 57, 93
4, 10416, Note_off_c, 2, 57, 0
4, 10416, Note_on_c, 2, 55, 93
4, 10440, Note_off_c, 2, 55, 0
4, 10440, Note_on_c, 2, 54, 93
4, 10464, Note_off_c, 2, 54, 0
4, 10464, Note_on_c, 2, 52, 93
4, 10488, Note_off_c, 2, 52, 0
4, 10488, Note_on_c, 2, 50, 93
4, 10512, Note_off_c, 2, 50, 0
4, 10512, Note_on_c, 2, 48, 93
4, 10536, Note_off_c, 2, 48, 0
4, 10536, Note_on_c, 2, 47, 93
4, 10560, Note_off_c, 2, 47, 0
4, 10560, Note_on_c, 2, 45, 93
4, 10584, Note_off_c, 2, 45, 0
4, 10584, Note_on_c, 2, 47, 93
4, 10608, Note_off_c, 2, 47, 0
4, 10608, Note_on_c, 2, 48, 93
4, 10632, Note_off_c, 2, 48, 0
4, 10632, Note_on_c, 2, 45, 93
4, 10656, Note_off_c, 2, 45, 0
4, 10656, Note_on_c, 2, 47, 93
4, 10704, Note_off_c, 2, 47, 0
4, 10704, Note_on_c, 2, 54, 93
4, 10752, Note_off_c, 2, 54, 0
4, 10752, Note_on_c, 2, 59, 93
4, 10848, Note_off_c, 2, 59, 0
4, 10848, Note_on_c, 2, 55, 93
4, 10896, Note_off_c, 2, 55, 0
4, 10896, Note_on_c, 2, 52, 93
4, 10944, Note_off_c, 2, 52, 0
4, 10944, Note_on_c, 2, 60, 93
4, 10968, Note_off_c, 2, 60, 0
4, 10968, Note_on_c, 2, 62, 93
4, 10992, Note_off_c, 2, 62, 0
4, 10992, Note_on_c, 2, 60, 93
4, 11016, Note_off_c, 2, 60, 0
4, 11016, Note_on_c, 2, 59, 93
4, 11040, Note_off_c, 2, 59, 0
4, 11040, Note_on_c, 2, 57, 93
4, 11064, Note_off_c, 2, 57, 0
4, 11064, Note_on_c, 2, 55, 93
4, 11088, Note_off_c, 2, 55, 0
4, 11088, Note_on_c, 2, 54, 93
4, 11112, Note_off_c, 2, 54, 0
4, 11112, Note_on_c, 2, 52, 93
4, 11136, Note_off_c, 2, 52, 0
4, 11136, Note_on_c, 2, 54, 93
4, 11160, Note_off_c, 2, 54, 0
4, 11160, Note_on_c, 2, 59, 93
4, 11184, Note_off_c, 2, 59, 0
4, 11184, Note_on_c, 2, 57, 93
4, 11208, Note_off_c, 2, 57, 0
4, 11208, Note_on_c, 2, 59, 93
4, 11232, Note_off_c, 2, 59, 0
4, 11232, Note_on_c, 2, 52, 93
4, 11280, Note_off_c, 2, 52, 0
4, 11280, Note_on_c, 2, 55, 93
4, 11328, Note_off_c, 2, 55, 0
4, 11328, Note_on_c, 2, 59, 93
4, 11376, Note_off_c, 2, 59, 0
4, 11376, Note_on_c, 2, 64, 93
4, 11424, Note_off_c, 2, 64, 0
4, 11424, Note_on_c, 2, 52, 93
4, 11472, Note_off_c, 2, 52, 0
4, 11472, Note_on_c, 2, 50, 93
4, 11520, Note_off_c, 2, 50, 0
4, 11520, Note_on_c, 2, 48, 93
4, 11568, Note_off_c, 2, 48, 0
4, 11568, Note_on_c, 2, 60, 93
4, 11616, Note_off_c, 2, 60, 0
4, 11616, Note_on_c, 2, 59, 93
4, 11664, Note_off_c, 2, 59, 0
4, 11664, Note_on_c, 2, 57, 93
4, 11856, Note_off_c, 2, 57, 0
4, 11856, Note_on_c, 2, 60, 93
4, 11904, Note_off_c, 2, 60, 0
4, 11904, Note_on_c, 2, 57, 93
4, 11952, Note_off_c, 2, 57, 0
4, 11952, Note_on_c, 2, 54, 93
4, 12000, Note_off_c, 2, 54, 0
4, 12000, Note_on_c, 2, 50, 93
4, 12048, Note_off_c, 2, 50, 0
4, 12048, Note_on_c, 2, 62, 93
4, 12096, Note_off_c, 2, 62, 0
4, 12096, Note_on_c, 2, 55, 93
4, 12120, Note_off_c, 2, 55, 0
4, 12120, Note_on_c, 2, 57, 93
4, 12144, Note_off_c, 2, 57, 0
4, 12144, Note_on_c, 2, 55, 93
4, 12168, Note_off_c, 2, 55, 0
4, 12168, Note_on_c, 2, 53, 93
4, 12192, Note_off_c, 2, 53, 0
4, 12192, Note_on_c, 2, 52, 93
4, 12216, Note_off_c, 2, 52, 0
4, 12216, Note_on_c, 2, 50, 93
4, 12240, Note_off_c, 2, 50, 0
4, 12240, Note_on_c, 2, 48, 93
4, 12288, Note_off_c, 2, 48, 0
4, 12288, Note_on_c, 2, 52, 93
4, 12336, Note_off_c, 2, 52, 0
4, 12336, Note_on_c, 2, 48, 93
4, 12384, Note_off_c, 2, 48, 0
4, 12384, Note_on_c, 2, 45, 93
4, 12408, Note_off_c, 2, 45, 0
4, 12408, Note_on_c, 2, 47, 93
4, 12432, Note_off_c, 2, 47, 0
4, 12432, Note_on_c, 2, 48, 93
4, 12456, Note_off_c, 2, 48, 0
4, 12456, Note_on_c, 2, 45, 93
4, 12480, Note_off_c, 2, 45, 0
4, 12480, Note_on_c, 2, 47, 93
4, 12504, Note_off_c, 2, 47, 0
4, 12504, Note_on_c, 2, 48, 93
4, 12528, Note_off_c, 2, 48, 0
4, 12528, Note_on_c, 2, 50, 93
4, 12576, Note_off_c, 2, 50, 0
4, 12576, Note_on_c, 2, 38, 93
4, 12624, Note_off_c, 2, 38, 0
4, 12624, Note_on_c, 2, 54, 93
4, 12672, Note_off_c, 2, 54, 0
4, 12672, Note_on_c, 2, 55, 93
4, 12696, Note_off_c, 2, 55, 0
4, 12696, Note_on_c, 2, 57, 93
4, 12720, Note_off_c, 2, 57, 0
4, 12720, Note_on_c, 2, 59, 93
4, 12744, Note_off_c, 2, 59, 0
4, 12744, Note_on_c, 2, 55, 93
4, 12768, Note_off_c, 2, 55, 0
4, 12768, Note_on_c, 2, 57, 93
4, 12792, Note_off_c, 2, 57, 0
4, 12792, Note_on_c, 2, 59, 93
4, 12816, Note_off_c, 2, 59, 0
4, 12816, Note_on_c, 2, 60, 93
4, 12864, Note_off_c, 2, 60, 0
4, 12864, Note_on_c, 2, 64, 93
4, 12912, Note_off_c, 2, 64, 0
4, 12912, Note_on_c, 2, 57, 93
4, 12960, Note_off_c, 2, 57, 0
4, 12960, Note_on_c, 2, 62, 93
4, 12984, Note_off_c, 2, 62, 0
4, 12984, Note_on_c, 2, 60, 93
4, 13008, Note_off_c, 2, 60, 0
4, 13008, Note_on_c, 2, 59, 93
4, 13032, Note_off_c, 2, 59, 0
4, 13032, Note_on_c, 2, 62, 93
4, 13056, Note_off_c, 2, 62, 0
4, 13056, Note_on_c, 2, 60, 93
4, 13080, Note_off_c, 2, 60, 0
4, 13080, Note_on_c, 2, 59, 93
4, 13104, Note_off_c, 2, 59, 0
4, 13104, Note_on_c, 2, 60, 93
4, 13128, Note_off_c, 2, 60, 0
4, 13128, Note_on_c, 2, 59, 93
4, 13152, Note_off_c, 2, 59, 0
4, 13152, Note_on_c, 2, 57, 93
4, 13176, Note_off_c, 2, 57, 0
4, 13176, Note_on_c, 2, 55, 93
4, 13200, Note_off_c, 2, 55, 0
4, 13200, Note_on_c, 2, 54, 93
4, 13224, Note_off_c, 2, 54, 0
4, 13224, Note_on_c, 2, 57, 93
4, 13248, Note_off_c, 2, 57, 0
4, 13248, Note_on_c, 2, 55, 93
4, 13272, Note_off_c, 2, 55, 0
4, 13272, Note_on_c, 2, 54, 93
4, 13296, Note_off_c, 2, 54, 0
4, 13296, Note_on_c, 2, 52, 93
4, 13320, Note_off_c, 2, 52, 0
4, 13320, Note_on_c, 2, 50, 93
4, 13344, Note_off_c, 2, 50, 0
4, 13344, Note_on_c, 2, 48, 93
4, 13368, Note_off_c, 2, 48, 0
4, 13368, Note_on_c, 2, 47, 93
4, 13392, Note_off_c, 2, 47, 0
4, 13392, Note_on_c, 2, 48, 93
4, 13440, Note_off_c, 2, 48, 0
4, 13440, Note_on_c, 2, 45, 93
4, 13488, Note_off_c, 2, 45, 0
4, 13488, Note_on_c, 2, 50, 93
4, 13536, Note_off_c, 2, 50, 0
4, 13536, Note_on_c, 2, 43, 93
4, 13560, Note_off_c, 2, 43, 0
4, 13560, Note_on_c, 2, 47, 93
4, 13584, Note_off_c, 2, 47, 0
4, 13584, Note_on_c, 2, 50, 93
4, 13608, Note_off_c, 2, 50, 0
4, 13608, Note_on_c, 2, 55, 93
4, 13632, Note_off_c, 2, 55, 0
4, 13632, Note_on_c, 2, 50, 93
4, 13656, Note_off_c, 2, 50, 0
4, 13656, Note_on_c, 2, 47, 93
4, 13680, Note_off_c, 2, 47, 0
4, 13680, Note_on_c, 2, 43, 93
4, 13824, Note_off_c, 2, 43, 0
4, 13824, Note_on_c, 2, 50, 93
4, 13872, Note_off_c, 2, 50, 0
4, 13872, Note_on_c, 2, 54, 93
4, 13920, Note_off_c, 2, 54, 0
4, 13920, Note_on_c, 2, 57, 93
4, 13968, Note_off_c, 2, 57, 0
4, 13968, Note_on_c, 2, 62, 93
4, 14016, Note_off_c, 2, 62, 0
4, 14016, Note_on_c, 2, 60, 93
4, 14040, Note_off_c, 2, 60, 0
4, 14040, Note_on_c, 2, 59, 93
4, 14064, Note_off_c, 2, 59, 0
4, 14064, Note_on_c, 2, 57, 93
4, 14088, Note_off_c, 2, 57, 0
4, 14088, Note_on_c, 2, 55, 93
4, 14112, Note_off_c, 2, 55, 0
4, 14112, Note_on_c, 2, 54, 93
4, 14160, Note_off_c, 2, 54, 0
4, 14160, Note_on_c, 2, 57, 93
4, 14208, Note_off_c, 2, 57, 0
4, 14208, Note_on_c, 2, 50, 93
4, 14256, Note_off_c, 2, 50, 0
4, 14256, Note_on_c, 2, 55, 93
4, 14304, Note_off_c, 2, 55, 0
4, 14304, Note_on_c, 2, 57, 93
4, 14352, Note_off_c, 2, 57, 0
4, 14352, Note_on_c, 2, 59, 93
4, 14400, Note_off_c, 2, 59, 0
4, 14400, Note_on_c, 2, 60, 93
4, 14424, Note_off_c, 2, 60, 0
4, 14424, Note_on_c, 2, 62, 93
4, 14448, Note_off_c, 2, 62, 0
4, 14448, Note_on_c, 2, 60, 93
4, 14472, Note_off_c, 2, 60, 0
4, 14472, Note_on_c, 2, 59, 93
4, 14496, Note_off_c, 2, 59, 0
4, 14496, Note_on_c, 2, 57, 93
4, 14520, Note_off_c, 2, 57, 0
4, 14520, Note_on_c, 2, 55, 93
4, 14544, Note_off_c, 2, 55, 0
4, 14544, Note_on_c, 2, 54, 93
4, 14568, Note_off_c, 2, 54, 0
4, 14568, Note_on_c, 2, 52, 93
4, 14592, Note_off_c, 2, 52, 0
4, 14592, Note_on_c, 2, 54, 93
4, 14616, Note_off_c, 2, 54, 0
4, 14616, Note_on_c, 2, 55, 93
4, 14640, Note_off_c, 2, 55, 0
4, 14640, Note_on_c, 2, 57, 93
4, 14664, Note_off_c, 2, 57, 0
4, 14664, Note_on_c, 2, 54, 93
4, 14688, Note_off_c, 2, 54, 0
4, 14688, Note_on_c, 2, 59, 93
4, 14736, Note_off_c, 2, 59, 0
4, 14736, Note_on_c, 2, 54, 93
4, 14784, Note_off_c, 2, 54, 0
4, 14784, Note_on_c, 2, 55, 93
4, 14832, Note_off_c, 2, 55, 0
4, 14832, Note_on_c, 2, 57, 93
4, 14856, Note_off_c, 2, 57, 0
4, 14856, Note_on_c, 2, 60, 93
4, 14880, Note_off_c, 2, 60, 0
4, 14880, Note_on_c, 2, 59, 93
4, 14904, Note_off_c, 2, 59, 0
4, 14904, Note_on_c, 2, 57, 93
4, 14928, Note_off_c, 2, 57, 0
4, 14928, Note_on_c, 2, 55, 93
4, 14952, Note_off_c, 2, 55, 0
4, 14952, Note_on_c, 2, 54, 93
4, 14976, Note_off_c, 2, 54, 0
4, 14976, Note_on_c, 2, 55, 93
4, 15000, Note_off_c, 2, 55, 0
4, 15000, Note_on_c, 2, 57, 93
4, 15024, Note_off_c, 2, 57, 0
4, 15024, Note_on_c, 2, 55, 93
4, 15048, Note_off_c, 2, 55, 0
4, 15048, Note_on_c, 2, 54, 93
4, 15072, Note_off_c, 2, 54, 0
4, 15072, Note_on_c, 2, 52, 93
4, 15096, Note_off_c, 2, 52, 0
4, 15096, Note_on_c, 2, 50, 93
4, 15120, Note_off_c, 2, 50, 0
4, 15120, Note_on_c, 2, 48, 93
4, 15144, Note_off_c, 2, 48, 0
4, 15144, Note_on_c, 2, 47, 93
4, 15168, Note_off_c, 2, 47, 0
4, 15168, Note_on_c, 2, 45, 93
4, 15192, Note_off_c, 2, 45, 0
4, 15192, Note_on_c, 2, 47, 93
4, 15216, Note_off_c, 2, 47, 0
4, 15216, Note_on_c, 2, 48, 93
4, 15240, Note_off_c, 2, 48, 0
4, 15240, Note_on_c, 2, 45, 93
4, 15264, Note_off_c, 2, 45, 0
4, 15264, Note_on_c, 2, 47, 93
4, 15312, Note_off_c, 2, 47, 0
4, 15312, Note_on_c, 2, 54, 93
4, 15360, Note_off_c, 2, 54, 0
4, 15360, Note_on_c, 2, 59, 93
4, 15456, Note_off_c, 2, 59, 0
4, 15456, Note_on_c, 2, 55, 93
4, 15504, Note_off_c, 2, 55, 0
4, 15504, Note_on_c, 2, 52, 93
4, 15552, Note_off_c, 2, 52, 0
4, 15552, Note_on_c, 2, 60, 93
4, 15576, Note_off_c, 2, 60, 0
4, 15576, Note_on_c, 2, 62, 93
4, 15600, Note_off_c, 2, 62, 0
4, 15600, Note_on_c, 2, 60, 93
4, 15624, Note_off_c, 2, 60, 0
4, 15624, Note_on_c, 2, 59, 93
4, 15648, Note_off_c, 2, 59, 0
4, 15648, Note_on_c, 2, 57, 93
4, 15672, Note_off_c, 2, 57, 0
4, 15672, Note_on_c, 2, 55, 93
4, 15696, Note_off_c, 2, 55, 0
4, 15696, Note_on_c, 2, 54, 93
4, 15720, Note_off_c, 2, 54, 0
4, 15720, Note_on_c, 2, 52, 93
4, 15744, Note_off_c, 2, 52, 0
4, 15744, Note_on_c, 2, 54, 93
4, 15768, Note_off_c, 2, 54, 0
4, 15768, Note_on_c, 2, 59, 93
4, 15792, Note_off_c, 2, 59, 0
4, 15792, Note_on_c, 2, 57, 93
4, 15816, Note_off_c, 2, 57, 0
4, 15816, Note_on_c, 2, 59, 93
4, 15840, Note_off_c, 2, 59, 0
4, 15840, Note_on_c, 2, 52, 93
4, 15888, Note_off_c, 2, 52, 0
4, 15888, Note_on_c, 2, 55, 93
4, 15936, Note_off_c, 2, 55, 0
4, 15936, Note_on_c, 2, 59, 93
4, 15984, Note_off_c, 2, 59, 0
4, 15984, Note_on_c, 2, 64, 93
4, 16032, Note_off_c, 2, 64, 0
4, 16032, Note_on_c, 2, 52, 93
4, 16080, Note_off_c, 2, 52, 0
4, 16080, Note_on_c, 2, 50, 93
4, 16128, Note_off_c, 2, 50, 0
4, 16128, Note_on_c, 2, 48, 93
4, 16176, Note_off_c, 2, 48, 0
4, 16176, Note_on_c, 2, 60, 93
4, 16224, Note_off_c, 2, 60, 0
4, 16224, Note_on_c, 2, 59, 93
4, 16272, Note_off_c, 2, 59, 0
4, 16272, Note_on_c, 2, 57, 93
4, 16464, Note_off_c, 2, 57, 0
4, 16464, Note_on_c, 2, 60, 93
4, 16512, Note_off_c, 2, 60, 0
4, 16512, Note_on_c, 2, 57, 93
4, 16560, Note_off_c, 2, 57, 0
4, 16560, Note_on_c, 2, 54, 93
4, 16608, Note_off_c, 2, 54, 0
4, 16608, Note_on_c, 2, 50, 93
4, 16656, Note_off_c, 2, 50, 0
4, 16656, Note_on_c, 2, 62, 93
4, 16704, Note_off_c, 2, 62, 0
4, 16704, Note_on_c, 2, 55, 93
4, 16728, Note_off_c, 2, 55, 0
4, 16728, Note_on_c, 2, 57, 93
4, 16752, Note_off_c, 2, 57, 0
4, 16752, Note_on_c, 2, 55, 93
4, 16776, Note_off_c, 2, 55, 0
4, 16776, Note_on_c, 2, 53, 93
4, 16800, Note_off_c, 2, 53, 0
4, 16800, Note_on_c, 2, 52, 93
4, 16824, Note_off_c, 2, 52, 0
4, 16824, Note_on_c, 2, 50, 93
4, 16848, Note_off_c, 2, 50, 0
4, 16848, Note_on_c, 2, 48, 93
4, 16896, Note_off_c, 2, 48, 0
4, 16896, Note_on_c, 2, 52, 93
4, 16944, Note_off_c, 2, 52, 0
4, 16944, Note_on_c, 2, 48, 93
4, 16992, Note_off_c, 2, 48, 0
4, 16992, Note_on_c, 2, 45, 93
4, 17016, Note_off_c, 2, 45, 0
4, 17016, Note_on_c, 2, 47, 93
4, 17040, Note_off_c, 2, 47, 0
4, 17040, Note_on_c, 2, 48, 93
4, 17064, Note_off_c, 2, 48, 0
4, 17064, Note_on_c, 2, 45, 93
4, 17088, Note_off_c, 2, 45, 0
4, 17088, Note_on_c, 2, 47, 93
4, 17112, Note_off_c, 2, 47, 0
4, 17112, Note_on_c, 2, 48, 93
4, 17136, Note_off_c, 2, 48, 0
4, 17136, Note_on_c, 2, 50, 93
4, 17184, Note_off_c, 2, 50, 0
4, 17184, Note_on_c, 2, 38, 93
4, 17232, Note_off_c, 2, 38, 0
4, 17232, Note_on_c, 2, 54, 93
4, 17280, Note_off_c, 2, 54, 0
4, 17280, Note_on_c, 2, 55, 93
4, 17304, Note_off_c, 2, 55, 0
4, 17304, Note_on_c, 2, 57, 93
4, 17328, Note_off_c, 2, 57, 0
4, 17328, Note_on_c, 2, 59, 93
4, 17352, Note_off_c, 2, 59, 0
4, 17352, Note_on_c, 2, 55, 93
4, 17376, Note_off_c, 2, 55, 0
4, 17376, Note_on_c, 2, 57, 93
4, 17400, Note_off_c, 2, 57, 0
4, 17400, Note_on_c, 2, 59, 93
4, 17424, Note_off_c, 2, 59, 0
4, 17424, Note_on_c, 2, 60, 93
4, 17472, Note_off_c, 2, 60, 0
4, 17472, Note_on_c, 2, 64, 93
4, 17520, Note_off_c, 2, 64, 0
4, 17520, Note_on_c, 2, 57, 93
4, 17568, Note_off_c, 2, 57, 0
4, 17568, Note_on_c, 2, 62, 93
4, 17592, Note_off_c, 2, 62, 0
4, 17592, Note_on_c, 2, 60, 93
4, 17616, Note_off_c, 2, 60, 0
4, 17616, Note_on_c, 2, 59, 93
4, 17640, Note_off_c, 2, 59, 0
4, 17640, Note_on_c, 2, 62, 93
4, 17664, Note_off_c, 2, 62, 0
4, 17664, Note_on_c, 2, 60, 93
4, 17688, Note_off_c, 2, 60, 0
4, 17688, Note_on_c, 2, 59, 93
4, 17712, Note_off_c, 2, 59, 0
4, 17712, Note_on_c, 2, 60, 93
4, 17736, Note_off_c, 2, 60, 0
4, 17736, Note_on_c, 2, 59, 93
4, 17760, Note_off_c, 2, 59, 0
4, 17760, Note_on_c, 2, 57, 93
4, 17784, Note_off_c, 2, 57, 0
4, 17784, Note_on_c, 2, 55, 93
4, 17808, Note_off_c, 2, 55, 0
4, 17808, Note_on_c, 2, 54, 93
4, 17832, Note_off_c, 2, 54, 0
4, 17832, Note_on_c, 2, 57, 93
4, 17856, Note_off_c, 2, 57, 0
4, 17856, Note_on_c, 2, 55, 93
4, 17880, Note_off_c, 2, 55, 0
4, 17880, Note_on_c, 2, 54, 93
4, 17904, Note_off_c, 2, 54, 0
4, 17904, Note_on_c, 2, 52, 93
4, 17928, Note_off_c, 2, 52, 0
4, 17928, Note_on_c, 2, 50, 93
4, 17952, Note_off_c, 2, 50, 0
4, 17952, Note_on_c, 2, 48, 93
4, 17976, Note_off_c, 2, 48, 0
4, 17976, Note_on_c, 2, 47, 93
4, 18000, Note_off_c, 2, 47, 0
4, 18000, Note_on_c, 2, 48, 93
4, 18048, Note_off_c, 2, 48, 0
4, 18048, Note_on_c, 2, 45, 93
4, 18096, Note_off_c, 2, 45, 0
4, 18096, Note_on_c, 2, 50, 93
4, 18144, Note_off_c, 2, 50, 0
4, 18144, Note_on_c, 2, 43, 93
4, 18168, Note_off_c, 2, 43, 0
4, 18168, Note_on_c, 2, 47, 93
4, 18192, Note_off_c, 2, 47, 0
4, 18192, Note_on_c, 2, 50, 93
4, 18216, Note_off_c, 2, 50, 0
4, 18216, Note_on_c, 2, 55, 93
4, 18240, Note_off_c, 2, 55, 0
4, 18240, Note_on_c, 2, 50, 93
4, 18264, Note_off_c, 2, 50, 0
4, 18264, Note_on_c, 2, 47, 93
4, 18288, Note_off_c, 2, 47, 0
4, 18288, Note_on_c, 2, 43, 93
4, 18432, Note_off_c, 2, 43, 0
4, 18432, End_track
0, 0, End_of_file
