0, 0, Header, 1, 5, 96
1, 0, Start_track
1, 0, Time_signature, 4, 2, 24, 8
1, 0, Title_t, "untitled"
1, 0, Title_t, "Track1"
1, 0, Tempo, 1200000
1, 18144, Tempo, 1250000
1, 18150, Tempo, 1276595
1, 18162, Tempo, 1304347
1, 18168, Tempo, 1304347
1, 18180, Tempo, 1333333
1, 18186, Tempo, 1333333
1, 18198, Tempo, 1333333
1, 18204, Tempo, 1363636
1, 18210, Tempo, 1363636
1, 18222, Tempo, 1395348
1, 18228, Tempo, 1428571
1, 18240, Tempo, 1428571
1, 18246, Tempo, 1428571
1, 18258, Tempo, 1463414
1, 18264, Tempo, 1500000
1, 18270, Tempo, 1500000
1, 18282, Tempo, 1500000
1, 18288, Tempo, 1538461
1, 18300, Tempo, 1578947
1, 18306, Tempo, 1578947
1, 18318, Tempo, 1578947
1, 18324, Tempo, 1621621
1, 18330, Tempo, 1666666
1, 18432, Tempo, 625000
1, 18432, End_track
2, 0, Start_track
2, 0, Title_t, "Track2"
2, 0, Program_c, 0, 6
2, 0, Control_c, 0, 7, 100
2, 0, Control_c, 0, 10, 79
2, 0, Note_on_c, 0, 79, 93
2, 96, Note_off_c, 0, 79, 0
2, 96, Note_on_c, 0, 79, 93
2, 192, Note_off_c, 0, 79, 0
2, 192, Note_on_c, 0, 81, 93
2, 204, Note_off_c, 0, 81, 0
2, 204, Note_on_c, 0, 79, 93
2, 216, Note_off_c, 0, 79, 0
2, 216, Note_on_c, 0, 81, 93
2, 264, Note_off_c, 0, 81, 0
2, 264, Note_on_c, 0, 83, 93
2, 288, Note_off_c, 0, 83, 0
2, 288, Note_on_c, 0, 81, 93
2, 336, Note_off_c, 0, 81, 0
2, 336, Note_on_c, 0, 79, 93
2, 360, Note_off_c, 0, 79, 0
2, 360, Note_on_c, 0, 78, 93
2, 384, Note_off_c, 0, 78, 0
2, 384, Note_on_c, 0, 76, 93
2, 432, Note_off_c, 0, 76, 0
2, 432, Note_on_c, 0, 74, 93
2, 576, Note_off_c, 0, 74, 0
2, 576, Note_on_c, 0, 67, 93
2, 588, Note_off_c, 0, 67, 0
2, 588, Note_on_c, 0, 66, 93
2, 600, Note_off_c, 0, 66, 0
2, 600, Note_on_c, 0, 67, 93
2, 672, Note_off_c, 0, 67, 0
2, 672, Note_on_c, 0, 69, 93
2, 684, Note_off_c, 0, 69, 0
2, 684, Note_on_c, 0, 67, 93
2, 696, Note_off_c, 0, 67, 0
2, 696, Note_on_c, 0, 66, 93
2, 708, Note_off_c, 0, 66, 0
2, 708, Note_on_c, 0, 67, 93
2, 720, Note_off_c, 0, 67, 0
2, 720, Note_on_c, 0, 69, 93
2, 732, Note_off_c, 0, 69, 0
2, 732, Note_on_c, 0, 67, 93
2, 744, Note_off_c, 0, 67, 0
2, 744, Note_on_c, 0, 69, 93
2, 756, Note_off_c, 0, 69, 0
2, 756, Note_on_c, 0, 67, 93
2, 768, Note_off_c, 0, 67, 0
2, 768, Note_on_c, 0, 69, 93
2, 774, Note_off_c, 0, 69, 0
2, 774, Note_on_c, 0, 67, 93
2, 786, Note_off_c, 0, 67, 0
2, 786, Note_on_c, 0, 69, 93
2, 792, Note_off_c, 0, 69, 0
2, 792, Note_on_c, 0, 67, 93
2, 798, Note_off_c, 0, 67, 0
2, 798, Note_on_c, 0, 69, 93
2, 810, Note_off_c, 0, 69, 0
2, 810, Note_on_c, 0, 67, 93
2, 816, Note_off_c, 0, 67, 0
2, 816, Note_on_c, 0, 66, 93
2, 840, Note_off_c, 0, 66, 0
2, 840, Note_on_c, 0, 67, 93
2, 864, Note_off_c, 0, 67, 0
2, 864, Note_on_c, 0, 69, 93
2, 876, Note_off_c, 0, 69, 0
2, 876, Note_on_c, 0, 67, 93
2, 888, Note_off_c, 0, 67, 0
2, 888, Note_on_c, 0, 66, 93
2, 912, Note_off_c, 0, 66, 0
2, 912, Note_on_c, 0, 67, 93
2, 924, Note_off_c, 0, 67, 0
2, 924, Note_on_c, 0, 66, 93
2, 936, Note_off_c, 0, 66, 0
2, 936, Note_on_c, 0, 64, 93
2, 960, Note_off_c, 0, 64, 0
2, 960, Note_on_c, 0, 64, 93
2, 1008, Note_off_c, 0, 64, 0
2, 1008, Note_on_c, 0, 62, 93
2, 1152, Note_off_c, 0, 62, 0
2, 1152, Note_on_c, 0, 74, 93
2, 1248, Note_off_c, 0, 74, 0
2, 1248, Note_on_c, 0, 74, 93
2, 1344, Note_off_c, 0, 74, 0
2, 1344, Note_on_c, 0, 76, 93
2, 1356, Note_off_c, 0, 76, 0
2, 1356, Note_on_c, 0, 74, 93
2, 1368, Note_off_c, 0, 74, 0
2, 1368, Note_on_c, 0, 76, 93
2, 1416, Note_off_c, 0, 76, 0
2, 1416, Note_on_c, 0, 77, 93
2, 1440, Note_off_c, 0, 77, 0
2, 1440, Note_on_c, 0, 76, 93
2, 1488, Note_off_c, 0, 76, 0
2, 1488, Note_on_c, 0, 74, 93
2, 1512, Note_off_c, 0, 74, 0
2, 1512, Note_on_c, 0, 72, 93
2, 1536, Note_off_c, 0, 72, 0
2, 1536, Note_on_c, 0, 71, 93
2, 1584, Note_off_c, 0, 71, 0
2, 1584, Note_on_c, 0, 69, 93
2, 1680, Note_off_c, 0, 69, 0
2, 1680, Note_on_c, 0, 79, 93
2, 1692, Note_off_c, 0, 79, 0
2, 1692, Note_on_c, 0, 78, 93
2, 1704, Note_off_c, 0, 78, 0
2, 1704, Note_on_c, 0, 76, 93
2, 1716, Note_off_c, 0, 76, 0
2, 1716, Note_on_c, 0, 78, 93
2, 1728, Note_off_c, 0, 78, 0
2, 1728, Note_on_c, 0, 79, 93
2, 1740, Note_off_c, 0, 79, 0
2, 1740, Note_on_c, 0, 78, 93
2, 1776, Note_off_c, 0, 78, 0
2, 1776, Note_on_c, 0, 81, 93
2, 1788, Note_off_c, 0, 81, 0
2, 1788, Note_on_c, 0, 79, 93
2, 1824, Note_off_c, 0, 79, 0
2, 1824, Note_on_c, 0, 78, 93
2, 1836, Note_off_c, 0, 78, 0
2, 1836, Note_on_c, 0, 76, 93
2, 1872, Note_off_c, 0, 76, 0
2, 1872, Note_on_c, 0, 74, 93
2, 1884, Note_off_c, 0, 74, 0
2, 1884, Note_on_c, 0, 72, 93
2, 1920, Note_off_c, 0, 72, 0
2, 1920, Note_on_c, 0, 72, 93
2, 1944, Note_off_c, 0, 72, 0
2, 1944, Note_on_c, 0, 81, 93
2, 1992, Note_off_c, 0, 81, 0
2, 1992, Note_on_c, 0, 72, 93
2, 2016, Note_off_c, 0, 72, 0
2, 2016, Note_on_c, 0, 71, 93
2, 2028, Note_off_c, 0, 71, 0
2, 2028, Note_on_c, 0, 67, 93
2, 2088, Note_off_c, 0, 67, 0
2, 2088, Note_on_c, 0, 66, 93
2, 2112, Note_off_c, 0, 66, 0
2, 2112, Note_on_c, 0, 66, 93
2, 2160, Note_off_c, 0, 66, 0
2, 2160, Note_on_c, 0, 67, 93
2, 2172, Note_off_c, 0, 67, 0
2, 2172, Note_on_c, 0, 66, 93
2, 2184, Note_off_c, 0, 66, 0
2, 2184, Note_on_c, 0, 67, 93
2, 2304, Note_off_c, 0, 67, 0
2, 2304, Note_on_c, 0, 71, 93
2, 2400, Note_off_c, 0, 71, 0
2, 2400, Note_on_c, 0, 71, 93
2, 2496, Note_off_c, 0, 71, 0
2, 2496, Note_on_c, 0, 73, 93
2, 2508, Note_off_c, 0, 73, 0
2, 2508, Note_on_c, 0, 71, 93
2, 2520, Note_off_c, 0, 71, 0
2, 2520, Note_on_c, 0, 73, 93
2, 2568, Note_off_c, 0, 73, 0
2, 2568, Note_on_c, 0, 74, 93
2, 2592, Note_off_c, 0, 74, 0
2, 2592, Note_on_c, 0, 74, 93
2, 2616, Note_off_c, 0, 74, 0
2, 2616, Note_on_c, 0, 73, 93
2, 2640, Note_off_c, 0, 73, 0
2, 2640, Note_on_c, 0, 71, 93
2, 2664, Note_off_c, 0, 71, 0
2, 2664, Note_on_c, 0, 69, 93
2, 2862, Note_off_c, 0, 69, 0
2, 2862, Note_on_c, 0, 67, 93
2, 2958, Note_off_c, 0, 67, 0
2, 2976, Note_on_c, 0, 81, 93
2, 2988, Note_off_c, 0, 81, 0
2, 2988, Note_on_c, 0, 79, 93
2, 3000, Note_off_c, 0, 79, 0
2, 3000, Note_on_c, 0, 78, 93
2, 3012, Note_off_c, 0, 78, 0
2, 3012, Note_on_c, 0, 79, 93
2, 3024, Note_off_c, 0, 79, 0
2, 3024, Note_on_c, 0, 81, 93
2, 3036, Note_off_c, 0, 81, 0
2, 3036, Note_on_c, 0, 79, 93
2, 3048, Note_off_c, 0, 79, 0
2, 3048, Note_on_c, 0, 81, 93
2, 3060, Note_off_c, 0, 81, 0
2, 3060, Note_on_c, 0, 79, 93
2, 3072, Note_off_c, 0, 79, 0
2, 3072, Note_on_c, 0, 81, 93
2, 3078, Note_off_c, 0, 81, 0
2, 3078, Note_on_c, 0, 79, 93
2, 3090, Note_off_c, 0, 79, 0
2, 3090, Note_on_c, 0, 81, 93
2, 3096, Note_off_c, 0, 81, 0
2, 3096, Note_on_c, 0, 79, 93
2, 3102, Note_off_c, 0, 79, 0
2, 3102, Note_on_c, 0, 81, 93
2, 3114, Note_off_c, 0, 81, 0
2, 3114, Note_on_c, 0, 79, 93
2, 3120, Note_off_c, 0, 79, 0
2, 3120, Note_on_c, 0, 78, 93
2, 3144, Note_off_c, 0, 78, 0
2, 3144, Note_on_c, 0, 79, 93
2, 3168, Note_off_c, 0, 79, 0
2, 3168, Note_on_c, 0, 79, 93
2, 3216, Note_off_c, 0, 79, 0
2, 3216, Note_on_c, 0, 78, 93
2, 3240, Note_off_c, 0, 78, 0
2, 3240, Note_on_c, 0, 76, 93
2, 3264, Note_off_c, 0, 76, 0
2, 3264, Note_on_c, 0, 74, 93
2, 3276, Note_off_c, 0, 74, 0
2, 3276, Note_on_c, 0, 73, 93
2, 3288, Note_off_c, 0, 73, 0
2, 3288, Note_on_c, 0, 71, 93
2, 3300, Note_off_c, 0, 71, 0
2, 3300, Note_on_c, 0, 73, 93
2, 3312, Note_off_c, 0, 73, 0
2, 3312, Note_on_c, 0, 74, 93
2, 3324, Note_off_c, 0, 74, 0
2, 3324, Note_on_c, 0, 73, 93
2, 3336, Note_off_c, 0, 73, 0
2, 3336, Note_on_c, 0, 74, 93
2, 3342, Note_off_c, 0, 74, 0
2, 3342, Note_on_c, 0, 73, 93
2, 3354, Note_off_c, 0, 73, 0
2, 3354, Note_on_c, 0, 74, 93
2, 3360, Note_off_c, 0, 74, 0
2, 3360, Note_on_c, 0, 73, 93
2, 3408, Note_off_c, 0, 73, 0
2, 3408, Note_on_c, 0, 76, 93
2, 3456, Note_off_c, 0, 76, 0
2, 3456, Note_on_c, 0, 81, 93
2, 3480, Note_off_c, 0, 81, 0
2, 3480, Note_on_c, 0, 79, 93
2, 3504, Note_off_c, 0, 79, 0
2, 3504, Note_on_c, 0, 78, 93
2, 3528, Note_off_c, 0, 78, 0
2, 3528, Note_on_c, 0, 76, 93
2, 3552, Note_off_c, 0, 76, 0
2, 3552, Note_on_c, 0, 74, 93
2, 3600, Note_off_c, 0, 74, 0
2, 3600, Note_on_c, 0, 69, 93
2, 3708, Note_off_c, 0, 69, 0
2, 3708, Note_on_c, 0, 71, 93
2, 3720, Note_off_c, 0, 71, 0
2, 3720, Note_on_c, 0, 72, 93
2, 3744, Note_off_c, 0, 72, 0
2, 3744, Note_on_c, 0, 71, 93
2, 3768, Note_off_c, 0, 71, 0
2, 3768, Note_on_c, 0, 69, 93
2, 3792, Note_off_c, 0, 69, 0
2, 3792, Note_on_c, 0, 67, 93
2, 3816, Note_off_c, 0, 67, 0
2, 3816, Note_on_c, 0, 66, 93
2, 3840, Note_off_c, 0, 66, 0
2, 3840, Note_on_c, 0, 64, 93
2, 3888, Note_off_c, 0, 64, 0
2, 3888, Note_on_c, 0, 74, 93
2, 3912, Note_off_c, 0, 74, 0
2, 3912, Note_on_c, 0, 73, 93
2, 3996, Note_off_c, 0, 73, 0
2, 3996, Note_on_c, 0, 74, 93
2, 4008, Note_off_c, 0, 74, 0
2, 4008, Note_on_c, 0, 76, 93
2, 4032, Note_off_c, 0, 76, 0
2, 4032, Note_on_c, 0, 74, 93
2, 4056, Note_off_c, 0, 74, 0
2, 4056, Note_on_c, 0, 73, 93
2, 4080, Note_off_c, 0, 73, 0
2, 4080, Note_on_c, 0, 71, 93
2, 4104, Note_off_c, 0, 71, 0
2, 4104, Note_on_c, 0, 69, 93
2, 4128, Note_off_c, 0, 69, 0
2, 4128, Note_on_c, 0, 79, 93
2, 4176, Note_off_c, 0, 79, 0
2, 4176, Note_on_c, 0, 71, 93
2, 4272, Note_off_c, 0, 71, 0
2, 4272, Note_on_c, 0, 73, 93
2, 4320, Note_off_c, 0, 73, 0
2, 4320, Note_on_c, 0, 73, 93
2, 4344, Note_off_c, 0, 73, 0
2, 4344, Note_on_c, 0, 74, 93
2, 4380, Note_off_c, 0, 74, 0
2, 4380, Note_on_c, 0, 76, 93
2, 4392, Note_off_c, 0, 76, 0
2, 4392, Note_on_c, 0, 74, 93
2, 4404, Note_off_c, 0, 74, 0
2, 4404, Note_on_c, 0, 73, 93
2, 4416, Note_off_c, 0, 73, 0
2, 4416, Note_on_c, 0, 73, 93
2, 4464, Note_off_c, 0, 73, 0
2, 4464, Note_on_c, 0, 74, 93
2, 4608, Note_off_c, 0, 74, 0
2, 4608, Note_on_c, 0, 79, 93
2, 4704, Note_off_c, 0, 79, 0
2, 4704, Note_on_c, 0, 79, 93
2, 4800, Note_off_c, 0, 79, 0
2, 4800, Note_on_c, 0, 81, 93
2, 4812, Note_off_c, 0, 81, 0
2, 4812, Note_on_c, 0, 79, 93
2, 4824, Note_off_c, 0, 79, 0
2, 4824, Note_on_c, 0, 81, 93
2, 4872, Note_off_c, 0, 81, 0
2, 4872, Note_on_c, 0, 83, 93
2, 4896, Note_off_c, 0, 83, 0
2, 4896, Note_on_c, 0, 81, 93
2, 4944, Note_off_c, 0, 81, 0
2, 4944, Note_on_c, 0, 79, 93
2, 4968, Note_off_c, 0, 79, 0
2, 4968, Note_on_c, 0, 78, 93
2, 4992, Note_off_c, 0, 78, 0
2, 4992, Note_on_c, 0, 76, 93
2, 5040, Note_off_c, 0, 76, 0
2, 5040, Note_on_c, 0, 74, 93
2, 5184, Note_off_c, 0, 74, 0
2, 5184, Note_on_c, 0, 67, 93
2, 5196, Note_off_c, 0, 67, 0
2, 5196, Note_on_c, 0, 66, 93
2, 5208, Note_off_c, 0, 66, 0
2, 5208, Note_on_c, 0, 67, 93
2, 5280, Note_off_c, 0, 67, 0
2, 5280, Note_on_c, 0, 69, 93
2, 5292, Note_off_c, 0, 69, 0
2, 5292, Note_on_c, 0, 67, 93
2, 5304, Note_off_c, 0, 67, 0
2, 5304, Note_on_c, 0, 66, 93
2, 5316, Note_off_c, 0, 66, 0
2, 5316, Note_on_c, 0, 67, 93
2, 5328, Note_off_c, 0, 67, 0
2, 5328, Note_on_c, 0, 69, 93
2, 5340, Note_off_c, 0, 69, 0
2, 5340, Note_on_c, 0, 67, 93
2, 5352, Note_off_c, 0, 67, 0
2, 5352, Note_on_c, 0, 69, 93
2, 5364, Note_off_c, 0, 69, 0
2, 5364, Note_on_c, 0, 67, 93
2, 5376, Note_off_c, 0, 67, 0
2, 5376, Note_on_c, 0, 69, 93
2, 5382, Note_off_c, 0, 69, 0
2, 5382, Note_on_c, 0, 67, 93
2, 5394, Note_off_c, 0, 67, 0
2, 5394, Note_on_c, 0, 69, 93
2, 5400, Note_off_c, 0, 69, 0
2, 5400, Note_on_c, 0, 67, 93
2, 5406, Note_off_c, 0, 67, 0
2, 5406, Note_on_c, 0, 69, 93
2, 5418, Note_off_c, 0, 69, 0
2, 5418, Note_on_c, 0, 67, 93
2, 5424, Note_off_c, 0, 67, 0
2, 5424, Note_on_c, 0, 66, 93
2, 5448, Note_off_c, 0, 66, 0
2, 5448, Note_on_c, 0, 67, 93
2, 5472, Note_off_c, 0, 67, 0
2, 5472, Note_on_c, 0, 69, 93
2, 5484, Note_off_c, 0, 69, 0
2, 5484, Note_on_c, 0, 67, 93
2, 5496, Note_off_c, 0, 67, 0
2, 5496, Note_on_c, 0, 66, 93
2, 5520, Note_off_c, 0, 66, 0
2, 5520, Note_on_c, 0, 67, 93
2, 5532, Note_off_c, 0, 67, 0
2, 5532, Note_on_c, 0, 66, 93
2, 5544, Note_off_c, 0, 66, 0
2, 5544, Note_on_c, 0, 64, 93
2, 5568, Note_off_c, 0, 64, 0
2, 5568, Note_on_c, 0, 64, 93
2, 5616, Note_off_c, 0, 64, 0
2, 5616, Note_on_c, 0, 62, 93
2, 5760, Note_off_c, 0, 62, 0
2, 5760, Note_on_c, 0, 74, 93
2, 5856, Note_off_c, 0, 74, 0
2, 5856, Note_on_c, 0, 74, 93
2, 5952, Note_off_c, 0, 74, 0
2, 5952, Note_on_c, 0, 76, 93
2, 5964, Note_off_c, 0, 76, 0
2, 5964, Note_on_c, 0, 74, 93
2, 5976, Note_off_c, 0, 74, 0
2, 5976, Note_on_c, 0, 76, 93
2, 6024, Note_off_c, 0, 76, 0
2, 6024, Note_on_c, 0, 77, 93
2, 6048, Note_off_c, 0, 77, 0
2, 6048, Note_on_c, 0, 76, 93
2, 6096, Note_off_c, 0, 76, 0
2, 6096, Note_on_c, 0, 74, 93
2, 6120, Note_off_c, 0, 74, 0
2, 6120, Note_on_c, 0, 72, 93
2, 6144, Note_off_c, 0, 72, 0
2, 6144, Note_on_c, 0, 71, 93
2, 6192, Note_off_c, 0, 71, 0
2, 6192, Note_on_c, 0, 69, 93
2, 6288, Note_off_c, 0, 69, 0
2, 6288, Note_on_c, 0, 79, 93
2, 6300, Note_off_c, 0, 79, 0
2, 6300, Note_on_c, 0, 78, 93
2, 6312, Note_off_c, 0, 78, 0
2, 6312, Note_on_c, 0, 76, 93
2, 6324, Note_off_c, 0, 76, 0
2, 6324, Note_on_c, 0, 78, 93
2, 6336, Note_off_c, 0, 78, 0
2, 6336, Note_on_c, 0, 79, 93
2, 6348, Note_off_c, 0, 79, 0
2, 6348, Note_on_c, 0, 78, 93
2, 6384, Note_off_c, 0, 78, 0
2, 6384, Note_on_c, 0, 81, 93
2, 6396, Note_off_c, 0, 81, 0
2, 6396, Note_on_c, 0, 79, 93
2, 6432, Note_off_c, 0, 79, 0
2, 6432, Note_on_c, 0, 78, 93
2, 6444, Note_off_c, 0, 78, 0
2, 6444, Note_on_c, 0, 76, 93
2, 6480, Note_off_c, 0, 76, 0
2, 6480, Note_on_c, 0, 74, 93
2, 6492, Note_off_c, 0, 74, 0
2, 6492, Note_on_c, 0, 72, 93
2, 6528, Note_off_c, 0, 72, 0
2, 6528, Note_on_c, 0, 72, 93
2, 6552, Note_off_c, 0, 72, 0
2, 6552, Note_on_c, 0, 81, 93
2, 6600, Note_off_c, 0, 81, 0
2, 6600, Note_on_c, 0, 72, 93
2, 6624, Note_off_c, 0, 72, 0
2, 6624, Note_on_c, 0, 71, 93
2, 6636, Note_off_c, 0, 71, 0
2, 6636, Note_on_c, 0, 67, 93
2, 6696, Note_off_c, 0, 67, 0
2, 6696, Note_on_c, 0, 66, 93
2, 6720, Note_off_c, 0, 66, 0
2, 6720, Note_on_c, 0, 66, 93
2, 6768, Note_off_c, 0, 66, 0
2, 6768, Note_on_c, 0, 67, 93
2, 6780, Note_off_c, 0, 67, 0
2, 6780, Note_on_c, 0, 66, 93
2, 6792, Note_off_c, 0, 66, 0
2, 6792, Note_on_c, 0, 67, 93
2, 6912, Note_off_c, 0, 67, 0
2, 6912, Note_on_c, 0, 71, 93
2, 7008, Note_off_c, 0, 71, 0
2, 7008, Note_on_c, 0, 71, 93
2, 7104, Note_off_c, 0, 71, 0
2, 7104, Note_on_c, 0, 73, 93
2, 7116, Note_off_c, 0, 73, 0
2, 7116, Note_on_c, 0, 71, 93
2, 7128, Note_off_c, 0, 71, 0
2, 7128, Note_on_c, 0, 73, 93
2, 7176, Note_off_c, 0, 73, 0
2, 7176, Note_on_c, 0, 74, 93
2, 7200, Note_off_c, 0, 74, 0
2, 7200, Note_on_c, 0, 74, 93
2, 7224, Note_off_c, 0, 74, 0
2, 7224, Note_on_c, 0, 73, 93
2, 7248, Note_off_c, 0, 73, 0
2, 7248, Note_on_c, 0, 71, 93
2, 7272, Note_off_c, 0, 71, 0
2, 7272, Note_on_c, 0, 69, 93
2, 7470, Note_off_c, 0, 69, 0
2, 7470, Note_on_c, 0, 67, 93
2, 7566, Note_off_c, 0, 67, 0
2, 7584, Note_on_c, 0, 81, 93
2, 7596, Note_off_c, 0, 81, 0
2, 7596, Note_on_c, 0, 79, 93
2, 7608, Note_off_c, 0, 79, 0
2, 7608, Note_on_c, 0, 78, 93
2, 7620, Note_off_c, 0, 78, 0
2, 7620, Note_on_c, 0, 79, 93
2, 7632, Note_off_c, 0, 79, 0
2, 7632, Note_on_c, 0, 81, 93
2, 7644, Note_off_c, 0, 81, 0
2, 7644, Note_on_c, 0, 79, 93
2, 7656, Note_off_c, 0, 79, 0
2, 7656, Note_on_c, 0, 81, 93
2, 7668, Note_off_c, 0, 81, 0
2, 7668, Note_on_c, 0, 79, 93
2, 7680, Note_off_c, 0, 79, 0
2, 7680, Note_on_c, 0, 81, 93
2, 7686, Note_off_c, 0, 81, 0
2, 7686, Note_on_c, 0, 79, 93
2, 7698, Note_off_c, 0, 79, 0
2, 7698, Note_on_c, 0, 81, 93
2, 7704, Note_off_c, 0, 81, 0
2, 7704, Note_on_c, 0, 79, 93
2, 7710, Note_off_c, 0, 79, 0
2, 7710, Note_on_c, 0, 81, 93
2, 7722, Note_off_c, 0, 81, 0
2, 7722, Note_on_c, 0, 79, 93
2, 7728, Note_off_c, 0, 79, 0
2, 7728, Note_on_c, 0, 78, 93
2, 7752, Note_off_c, 0, 78, 0
2, 7752, Note_on_c, 0, 79, 93
2, 7776, Note_off_c, 0, 79, 0
2, 7776, Note_on_c, 0, 79, 93
2, 7824, Note_off_c, 0, 79, 0
2, 7824, Note_on_c, 0, 78, 93
2, 7848, Note_off_c, 0, 78, 0
2, 7848, Note_on_c, 0, 76, 93
2, 7872, Note_off_c, 0, 76, 0
2, 7872, Note_on_c, 0, 74, 93
2, 7884, Note_off_c, 0, 74, 0
2, 7884, Note_on_c, 0, 73, 93
2, 7896, Note_off_c, 0, 73, 0
2, 7896, Note_on_c, 0, 71, 93
2, 7908, Note_off_c, 0, 71, 0
2, 7908, Note_on_c, 0, 73, 93
2, 7920, Note_off_c, 0, 73, 0
2, 7920, Note_on_c, 0, 74, 93
2, 7932, Note_off_c, 0, 74, 0
2, 7932, Note_on_c, 0, 73, 93
2, 7944, Note_off_c, 0, 73, 0
2, 7944, Note_on_c, 0, 74, 93
2, 7950, Note_off_c, 0, 74, 0
2, 7950, Note_on_c, 0, 73, 93
2, 7962, Note_off_c, 0, 73, 0
2, 7962, Note_on_c, 0, 74, 93
2, 7968, Note_off_c, 0, 74, 0
2, 7968, Note_on_c, 0, 73, 93
2, 8016, Note_off_c, 0, 73, 0
2, 8016, Note_on_c, 0, 76, 93
2, 8064, Note_off_c, 0, 76, 0
2, 8064, Note_on_c, 0, 81, 93
2, 8088, Note_off_c, 0, 81, 0
2, 8088, Note_on_c, 0, 79, 93
2, 8112, Note_off_c, 0, 79, 0
2, 8112, Note_on_c, 0, 78, 93
2, 8136, Note_off_c, 0, 78, 0
2, 8136, Note_on_c, 0, 76, 93
2, 8160, Note_off_c, 0, 76, 0
2, 8160, Note_on_c, 0, 74, 93
2, 8208, Note_off_c, 0, 74, 0
2, 8208, Note_on_c, 0, 69, 93
2, 8316, Note_off_c, 0, 69, 0
2, 8316, Note_on_c, 0, 71, 93
2, 8328, Note_off_c, 0, 71, 0
2, 8328, Note_on_c, 0, 72, 93
2, 8352, Note_off_c, 0, 72, 0
2, 8352, Note_on_c, 0, 71, 93
2, 8376, Note_off_c, 0, 71, 0
2, 8376, Note_on_c, 0, 69, 93
2, 8400, Note_off_c, 0, 69, 0
2, 8400, Note_on_c, 0, 67, 93
2, 8424, Note_off_c, 0, 67, 0
2, 8424, Note_on_c, 0, 66, 93
2, 8448, Note_off_c, 0, 66, 0
2, 8448, Note_on_c, 0, 64, 93
2, 8496, Note_off_c, 0, 64, 0
2, 8496, Note_on_c, 0, 74, 93
2, 8520, Note_off_c, 0, 74, 0
2, 8520, Note_on_c, 0, 73, 93
2, 8604, Note_off_c, 0, 73, 0
2, 8604, Note_on_c, 0, 74, 93
2, 8616, Note_off_c, 0, 74, 0
2, 8616, Note_on_c, 0, 76, 93
2, 8640, Note_off_c, 0, 76, 0
2, 8640, Note_on_c, 0, 74, 93
2, 8664, Note_off_c, 0, 74, 0
2, 8664, Note_on_c, 0, 73, 93
2, 8688, Note_off_c, 0, 73, 0
2, 8688, Note_on_c, 0, 71, 93
2, 8712, Note_off_c, 0, 71, 0
2, 8712, Note_on_c, 0, 69, 93
2, 8736, Note_off_c, 0, 69, 0
2, 8736, Note_on_c, 0, 79, 93
2, 8784, Note_off_c, 0, 79, 0
2, 8784, Note_on_c, 0, 71, 93
2, 8880, Note_off_c, 0, 71, 0
2, 8880, Note_on_c, 0, 73, 93
2, 8928, Note_off_c, 0, 73, 0
2, 8928, Note_on_c, 0, 73, 93
2, 8952, Note_off_c, 0, 73, 0
2, 8952, Note_on_c, 0, 74, 93
2, 8988, Note_off_c, 0, 74, 0
2, 8988, Note_on_c, 0, 76, 93
2, 9000, Note_off_c, 0, 76, 0
2, 9000, Note_on_c, 0, 74, 93
2, 9012, Note_off_c, 0, 74, 0
2, 9012, Note_on_c, 0, 73, 93
2, 9024, Note_off_c, 0, 73, 0
2, 9024, Note_on_c, 0, 73, 93
2, 9072, Note_off_c, 0, 73, 0
2, 9072, Note_on_c, 0, 74, 93
2, 9216, Note_off_c, 0, 74, 0
2, 9216, Note_on_c, 0, 69, 93
2, 9228, Note_off_c, 0, 69, 0
2, 9228, Note_on_c, 0, 67, 93
2, 9240, Note_off_c, 0, 67, 0
2, 9240, Note_on_c, 0, 69, 93
2, 9312, Note_off_c, 0, 69, 0
2, 9312, Note_on_c, 0, 71, 93
2, 9324, Note_off_c, 0, 71, 0
2, 9324, Note_on_c, 0, 69, 93
2, 9336, Note_off_c, 0, 69, 0
2, 9336, Note_on_c, 0, 67, 93
2, 9348, Note_off_c, 0, 67, 0
2, 9348, Note_on_c, 0, 69, 93
2, 9360, Note_off_c, 0, 69, 0
2, 9360, Note_on_c, 0, 71, 93
2, 9366, Note_off_c, 0, 71, 0
2, 9366, Note_on_c, 0, 69, 93
2, 9378, Note_off_c, 0, 69, 0
2, 9378, Note_on_c, 0, 71, 93
2, 9384, Note_off_c, 0, 71, 0
2, 9384, Note_on_c, 0, 69, 93
2, 9390, Note_off_c, 0, 69, 0
2, 9390, Note_on_c, 0, 71, 93
2, 9402, Note_off_c, 0, 71, 0
2, 9402, Note_on_c, 0, 69, 93
2, 9408, Note_off_c, 0, 69, 0
2, 9408, Note_on_c, 0, 71, 93
2, 9414, Note_off_c, 0, 71, 0
2, 9414, Note_on_c, 0, 69, 93
2, 9426, Note_off_c, 0, 69, 0
2, 9426, Note_on_c, 0, 71, 93
2, 9432, Note_off_c, 0, 71, 0
2, 9432, Note_on_c, 0, 69, 93
2, 9444, Note_off_c, 0, 69, 0
2, 9444, Note_on_c, 0, 71, 93
2, 9456, Note_off_c, 0, 71, 0
2, 9456, Note_on_c, 0, 72, 93
2, 9468, Note_off_c, 0, 72, 0
2, 9468, Note_on_c, 0, 74, 93
2, 9480, Note_off_c, 0, 74, 0
2, 9480, Note_on_c, 0, 76, 93
2, 9504, Note_off_c, 0, 76, 0
2, 9504, Note_on_c, 0, 76, 93
2, 9528, Note_off_c, 0, 76, 0
2, 9528, Note_on_c, 0, 74, 93
2, 9552, Note_off_c, 0, 74, 0
2, 9552, Note_on_c, 0, 72, 93
2, 9576, Note_off_c, 0, 72, 0
2, 9576, Note_on_c, 0, 71, 93
2, 9600, Note_off_c, 0, 71, 0
2, 9600, Note_on_c, 0, 69, 93
2, 9648, Note_off_c, 0, 69, 0
2, 9648, Note_on_c, 0, 67, 93
2, 9744, Note_off_c, 0, 67, 0
2, 9744, Note_on_c, 0, 79, 93
2, 9792, Note_off_c, 0, 79, 0
2, 9792, Note_on_c, 0, 78, 93
2, 9816, Note_off_c, 0, 78, 0
2, 9816, Note_on_c, 0, 76, 93
2, 9864, Note_off_c, 0, 76, 0
2, 9864, Note_on_c, 0, 78, 93
2, 9876, Note_off_c, 0, 78, 0
2, 9876, Note_on_c, 0, 75, 93
2, 9888, Note_off_c, 0, 75, 0
2, 9888, Note_on_c, 0, 75, 93
2, 9936, Note_off_c, 0, 75, 0
2, 9936, Note_on_c, 0, 76, 93
2, 9942, Note_off_c, 0, 76, 0
2, 9942, Note_on_c, 0, 75, 93
2, 9948, Note_off_c, 0, 75, 0
2, 9948, Note_on_c, 0, 76, 93
2, 10032, Note_off_c, 0, 76, 0
2, 10032, Note_on_c, 0, 81, 93
2, 10044, Note_off_c, 0, 81, 0
2, 10044, Note_on_c, 0, 83, 93
2, 10056, Note_off_c, 0, 83, 0
2, 10056, Note_on_c, 0, 81, 93
2, 10068, Note_off_c, 0, 81, 0
2, 10068, Note_on_c, 0, 79, 93
2, 10080, Note_off_c, 0, 79, 0
2, 10080, Note_on_c, 0, 81, 93
2, 10152, Note_off_c, 0, 81, 0
2, 10152, Note_on_c, 0, 78, 93
2, 10176, Note_off_c, 0, 78, 0
2, 10176, Note_on_c, 0, 76, 93
2, 10224, Note_off_c, 0, 76, 0
2, 10224, Note_on_c, 0, 75, 93
2, 10320, Note_off_c, 0, 75, 0
2, 10320, Note_on_c, 0, 71, 93
2, 10368, Note_off_c, 0, 71, 0
2, 10368, Note_on_c, 0, 76, 93
2, 10380, Note_off_c, 0, 76, 0
2, 10380, Note_on_c, 0, 78, 93
2, 10392, Note_off_c, 0, 78, 0
2, 10392, Note_on_c, 0, 79, 93
2, 10440, Note_off_c, 0, 79, 0
2, 10440, Note_on_c, 0, 78, 93
2, 10464, Note_off_c, 0, 78, 0
2, 10464, Note_on_c, 0, 78, 93
2, 10512, Note_off_c, 0, 78, 0
2, 10512, Note_on_c, 0, 76, 93
2, 10584, Note_off_c, 0, 76, 0
2, 10584, Note_on_c, 0, 71, 93
2, 10608, Note_off_c, 0, 71, 0
2, 10608, Note_on_c, 0, 72, 93
2, 10620, Note_off_c, 0, 72, 0
2, 10620, Note_on_c, 0, 71, 93
2, 10632, Note_off_c, 0, 71, 0
2, 10632, Note_on_c, 0, 69, 93
2, 10644, Note_off_c, 0, 69, 0
2, 10644, Note_on_c, 0, 71, 93
2, 10656, Note_off_c, 0, 71, 0
2, 10656, Note_on_c, 0, 79, 93
2, 10668, Note_off_c, 0, 79, 0
2, 10668, Note_on_c, 0, 76, 93
2, 10704, Note_off_c, 0, 76, 0
2, 10704, Note_on_c, 0, 78, 93
2, 10716, Note_off_c, 0, 78, 0
2, 10716, Note_on_c, 0, 75, 93
2, 10752, Note_off_c, 0, 75, 0
2, 10752, Note_on_c, 0, 75, 93
2, 10776, Note_off_c, 0, 75, 0
2, 10776, Note_on_c, 0, 76, 93
2, 10872, Note_off_c, 0, 76, 0
2, 10872, Note_on_c, 0, 67, 93
2, 10896, Note_off_c, 0, 67, 0
2, 10896, Note_on_c, 0, 66, 93
2, 10920, Note_off_c, 0, 66, 0
2, 10920, Note_on_c, 0, 64, 93
2, 10944, Note_off_c, 0, 64, 0
2, 10944, Note_on_c, 0, 66, 93
2, 11016, Note_off_c, 0, 66, 0
2, 11016, Note_on_c, 0, 76, 93
2, 11040, Note_off_c, 0, 76, 0
2, 11040, Note_on_c, 0, 76, 93
2, 11064, Note_off_c, 0, 76, 0
2, 11064, Note_on_c, 0, 75, 93
2, 11088, Note_off_c, 0, 75, 0
2, 11088, Note_on_c, 0, 78, 93
2, 11100, Note_off_c, 0, 78, 0
2, 11100, Note_on_c, 0, 79, 93
2, 11112, Note_off_c, 0, 79, 0
2, 11112, Note_on_c, 0, 81, 93
2, 11136, Note_off_c, 0, 81, 0
2, 11136, Note_on_c, 0, 79, 93
2, 11184, Note_off_c, 0, 79, 0
2, 11184, Note_on_c, 0, 78, 93
2, 11232, Note_off_c, 0, 78, 0
2, 11232, Note_on_c, 0, 78, 93
2, 11256, Note_off_c, 0, 78, 0
2, 11256, Note_on_c, 0, 76, 93
2, 11304, Note_off_c, 0, 76, 0
2, 11304, Note_on_c, 0, 78, 93
2, 11316, Note_off_c, 0, 78, 0
2, 11316, Note_on_c, 0, 75, 93
2, 11328, Note_off_c, 0, 75, 0
2, 11328, Note_on_c, 0, 75, 93
2, 11376, Note_off_c, 0, 75, 0
2, 11376, Note_on_c, 0, 76, 93
2, 11520, Note_off_c, 0, 76, 0
2, 11520, Note_on_c, 0, 76, 93
2, 11568, Note_off_c, 0, 76, 0
2, 11568, Note_on_c, 0, 74, 93
2, 11592, Note_off_c, 0, 74, 0
2, 11592, Note_on_c, 0, 72, 93
2, 11616, Note_off_c, 0, 72, 0
2, 11616, Note_on_c, 0, 71, 93
2, 11664, Note_off_c, 0, 71, 0
2, 11664, Note_on_c, 0, 69, 93
2, 11760, Note_off_c, 0, 69, 0
2, 11760, Note_on_c, 0, 71, 93
2, 11784, Note_off_c, 0, 71, 0
2, 11784, Note_on_c, 0, 72, 93
2, 11808, Note_off_c, 0, 72, 0
2, 11808, Note_on_c, 0, 74, 93
2, 11820, Note_off_c, 0, 74, 0
2, 11820, Note_on_c, 0, 72, 93
2, 11832, Note_off_c, 0, 72, 0
2, 11832, Note_on_c, 0, 71, 93
2, 11856, Note_off_c, 0, 71, 0
2, 11856, Note_on_c, 0, 72, 93
2, 11868, Note_off_c, 0, 72, 0
2, 11868, Note_on_c, 0, 71, 93
2, 11880, Note_off_c, 0, 71, 0
2, 11880, Note_on_c, 0, 69, 93
2, 11904, Note_off_c, 0, 69, 0
2, 11904, Note_on_c, 0, 69, 93
2, 11952, Note_off_c, 0, 69, 0
2, 11952, Note_on_c, 0, 67, 93
2, 12048, Note_off_c, 0, 67, 0
2, 12048, Note_on_c, 0, 69, 93
2, 12072, Note_off_c, 0, 69, 0
2, 12072, Note_on_c, 0, 71, 93
2, 12096, Note_off_c, 0, 71, 0
2, 12096, Note_on_c, 0, 72, 93
2, 12120, Note_off_c, 0, 72, 0
2, 12120, Note_on_c, 0, 74, 93
2, 12144, Note_off_c, 0, 74, 0
2, 12144, Note_on_c, 0, 72, 93
2, 12168, Note_off_c, 0, 72, 0
2, 12168, Note_on_c, 0, 71, 93
2, 12192, Note_off_c, 0, 71, 0
2, 12192, Note_on_c, 0, 72, 93
2, 12216, Note_off_c, 0, 72, 0
2, 12216, Note_on_c, 0, 69, 93
2, 12240, Note_off_c, 0, 69, 0
2, 12240, Note_on_c, 0, 64, 93
2, 12264, Note_off_c, 0, 64, 0
2, 12264, Note_on_c, 0, 69, 93
2, 12288, Note_off_c, 0, 69, 0
2, 12288, Note_on_c, 0, 72, 93
2, 12408, Note_off_c, 0, 72, 0
2, 12408, Note_on_c, 0, 74, 93
2, 12432, Note_off_c, 0, 74, 0
2, 12432, Note_on_c, 0, 72, 93
2, 12456, Note_off_c, 0, 72, 0
2, 12456, Note_on_c, 0, 71, 93
2, 12480, Note_off_c, 0, 71, 0
2, 12480, Note_on_c, 0, 72, 93
2, 12504, Note_off_c, 0, 72, 0
2, 12504, Note_on_c, 0, 69, 93
2, 12528, Note_off_c, 0, 69, 0
2, 12528, Note_on_c, 0, 66, 93
2, 12552, Note_off_c, 0, 66, 0
2, 12552, Note_on_c, 0, 69, 93
2, 12576, Note_off_c, 0, 69, 0
2, 12576, Note_on_c, 0, 72, 93
2, 12600, Note_off_c, 0, 72, 0
2, 12600, Note_on_c, 0, 76, 93
2, 12624, Note_off_c, 0, 76, 0
2, 12624, Note_on_c, 0, 74, 93
2, 12648, Note_off_c, 0, 74, 0
2, 12648, Note_on_c, 0, 72, 93
2, 12672, Note_off_c, 0, 72, 0
2, 12672, Note_on_c, 0, 71, 93
2, 12696, Note_off_c, 0, 71, 0
2, 12696, Note_on_c, 0, 72, 93
2, 12720, Note_off_c, 0, 72, 0
2, 12720, Note_on_c, 0, 71, 93
2, 12744, Note_off_c, 0, 71, 0
2, 12744, Note_on_c, 0, 69, 93
2, 12768, Note_off_c, 0, 69, 0
2, 12768, Note_on_c, 0, 71, 93
2, 12792, Note_off_c, 0, 71, 0
2, 12792, Note_on_c, 0, 67, 93
2, 12816, Note_off_c, 0, 67, 0
2, 12816, Note_on_c, 0, 62, 93
2, 12840, Note_off_c, 0, 62, 0
2, 12840, Note_on_c, 0, 67, 93
2, 12864, Note_off_c, 0, 67, 0
2, 12864, Note_on_c, 0, 71, 93
2, 12888, Note_off_c, 0, 71, 0
2, 12888, Note_on_c, 0, 67, 93
2, 12912, Note_off_c, 0, 67, 0
2, 12912, Note_on_c, 0, 72, 93
2, 12936, Note_off_c, 0, 72, 0
2, 12936, Note_on_c, 0, 74, 93
2, 12960, Note_off_c, 0, 74, 0
2, 12960, Note_on_c, 0, 76, 93
2, 12984, Note_off_c, 0, 76, 0
2, 12984, Note_on_c, 0, 77, 93
2, 13008, Note_off_c, 0, 77, 0
2, 13008, Note_on_c, 0, 76, 93
2, 13032, Note_off_c, 0, 76, 0
2, 13032, Note_on_c, 0, 74, 93
2, 13056, Note_off_c, 0, 74, 0
2, 13056, Note_on_c, 0, 76, 93
2, 13080, Note_off_c, 0, 76, 0
2, 13080, Note_on_c, 0, 72, 93
2, 13104, Note_off_c, 0, 72, 0
2, 13104, Note_on_c, 0, 67, 93
2, 13128, Note_off_c, 0, 67, 0
2, 13128, Note_on_c, 0, 72, 93
2, 13152, Note_off_c, 0, 72, 0
2, 13152, Note_on_c, 0, 76, 93
2, 13176, Note_off_c, 0, 76, 0
2, 13176, Note_on_c, 0, 72, 93
2, 13200, Note_off_c, 0, 72, 0
2, 13200, Note_on_c, 0, 78, 93
2, 13224, Note_off_c, 0, 78, 0
2, 13224, Note_on_c, 0, 79, 93
2, 13248, Note_off_c, 0, 79, 0
2, 13248, Note_on_c, 0, 81, 93
2, 13272, Note_off_c, 0, 81, 0
2, 13272, Note_on_c, 0, 72, 93
2, 13296, Note_off_c, 0, 72, 0
2, 13296, Note_on_c, 0, 71, 93
2, 13320, Note_off_c, 0, 71, 0
2, 13320, Note_on_c, 0, 69, 93
2, 13344, Note_off_c, 0, 69, 0
2, 13344, Note_on_c, 0, 71, 93
2, 13368, Note_off_c, 0, 71, 0
2, 13368, Note_on_c, 0, 72, 93
2, 13392, Note_off_c, 0, 72, 0
2, 13392, Note_on_c, 0, 74, 93
2, 13416, Note_off_c, 0, 74, 0
2, 13416, Note_on_c, 0, 67, 93
2, 13440, Note_off_c, 0, 67, 0
2, 13440, Note_on_c, 0, 71, 93
2, 13464, Note_off_c, 0, 71, 0
2, 13464, Note_on_c, 0, 69, 93
2, 13488, Note_off_c, 0, 69, 0
2, 13488, Note_on_c, 0, 67, 93
2, 13512, Note_off_c, 0, 67, 0
2, 13512, Note_on_c, 0, 66, 93
2, 13536, Note_off_c, 0, 66, 0
2, 13536, Note_on_c, 0, 67, 93
2, 13656, Note_off_c, 0, 67, 0
2, 13656, Note_on_c, 0, 62, 93
2, 13680, Note_off_c, 0, 62, 0
2, 13680, Note_on_c, 0, 67, 93
2, 13704, Note_off_c, 0, 67, 0
2, 13704, Note_on_c, 0, 66, 93
2, 13728, Note_off_c, 0, 66, 0
2, 13728, Note_on_c, 0, 66, 93
2, 13752, Note_off_c, 0, 66, 0
2, 13752, Note_on_c, 0, 67, 93
2, 13824, Note_off_c, 0, 67, 0
2, 13824, Note_on_c, 0, 69, 93
2, 13836, Note_off_c, 0, 69, 0
2, 13836, Note_on_c, 0, 67, 93
2, 13848, Note_off_c, 0, 67, 0
2, 13848, Note_on_c, 0, 69, 93
2, 13920, Note_off_c, 0, 69, 0
2, 13920, Note_on_c, 0, 71, 93
2, 13932, Note_off_c, 0, 71, 0
2, 13932, Note_on_c, 0, 69, 93
2, 13944, Note_off_c, 0, 69, 0
2, 13944, Note_on_c, 0, 67, 93
2, 13956, Note_off_c, 0, 67, 0
2, 13956, Note_on_c, 0, 69, 93
2, 13968, Note_off_c, 0, 69, 0
2, 13968, Note_on_c, 0, 71, 93
2, 13974, Note_off_c, 0, 71, 0
2, 13974, Note_on_c, 0, 69, 93
2, 13986, Note_off_c, 0, 69, 0
2, 13986, Note_on_c, 0, 71, 93
2, 13992, Note_off_c, 0, 71, 0
2, 13992, Note_on_c, 0, 69, 93
2, 13998, Note_off_c, 0, 69, 0
2, 13998, Note_on_c, 0, 71, 93
2, 14010, Note_off_c, 0, 71, 0
2, 14010, Note_on_c, 0, 69, 93
2, 14016, Note_off_c, 0, 69, 0
2, 14016, Note_on_c, 0, 71, 93
2, 14022, Note_off_c, 0, 71, 0
2, 14022, Note_on_c, 0, 69, 93
2, 14034, Note_off_c, 0, 69, 0
2, 14034, Note_on_c, 0, 71, 93
2, 14040, Note_off_c, 0, 71, 0
2, 14040, Note_on_c, 0, 69, 93
2, 14052, Note_off_c, 0, 69, 0
2, 14052, Note_on_c, 0, 71, 93
2, 14064, Note_off_c, 0, 71, 0
2, 14064, Note_on_c, 0, 72, 93
2, 14076, Note_off_c, 0, 72, 0
2, 14076, Note_on_c, 0, 74, 93
2, 14088, Note_off_c, 0, 74, 0
2, 14088, Note_on_c, 0, 76, 93
2, 14112, Note_off_c, 0, 76, 0
2, 14112, Note_on_c, 0, 76, 93
2, 14136, Note_off_c, 0, 76, 0
2, 14136, Note_on_c, 0, 74, 93
2, 14160, Note_off_c, 0, 74, 0
2, 14160, Note_on_c, 0, 72, 93
2, 14184, Note_off_c, 0, 72, 0
2, 14184, Note_on_c, 0, 71, 93
2, 14208, Note_off_c, 0, 71, 0
2, 14208, Note_on_c, 0, 69, 93
2, 14256, Note_off_c, 0, 69, 0
2, 14256, Note_on_c, 0, 67, 93
2, 14352, Note_off_c, 0, 67, 0
2, 14352, Note_on_c, 0, 79, 93
2, 14400, Note_off_c, 0, 79, 0
2, 14400, Note_on_c, 0, 78, 93
2, 14424, Note_off_c, 0, 78, 0
2, 14424, Note_on_c, 0, 76, 93
2, 14472, Note_off_c, 0, 76, 0
2, 14472, Note_on_c, 0, 78, 93
2, 14484, Note_off_c, 0, 78, 0
2, 14484, Note_on_c, 0, 75, 93
2, 14496, Note_off_c, 0, 75, 0
2, 14496, Note_on_c, 0, 75, 93
2, 14544, Note_off_c, 0, 75, 0
2, 14544, Note_on_c, 0, 76, 93
2, 14550, Note_off_c, 0, 76, 0
2, 14550, Note_on_c, 0, 75, 93
2, 14556, Note_off_c, 0, 75, 0
2, 14556, Note_on_c, 0, 76, 93
2, 14640, Note_off_c, 0, 76, 0
2, 14640, Note_on_c, 0, 81, 93
2, 14652, Note_off_c, 0, 81, 0
2, 14652, Note_on_c, 0, 83, 93
2, 14664, Note_off_c, 0, 83, 0
2, 14664, Note_on_c, 0, 81, 93
2, 14676, Note_off_c, 0, 81, 0
2, 14676, Note_on_c, 0, 79, 93
2, 14688, Note_off_c, 0, 79, 0
2, 14688, Note_on_c, 0, 81, 93
2, 14760, Note_off_c, 0, 81, 0
2, 14760, Note_on_c, 0, 78, 93
2, 14784, Note_off_c, 0, 78, 0
2, 14784, Note_on_c, 0, 76, 93
2, 14832, Note_off_c, 0, 76, 0
2, 14832, Note_on_c, 0, 75, 93
2, 14928, Note_off_c, 0, 75, 0
2, 14928, Note_on_c, 0, 71, 93
2, 14976, Note_off_c, 0, 71, 0
2, 14976, Note_on_c, 0, 76, 93
2, 14988, Note_off_c, 0, 76, 0
2, 14988, Note_on_c, 0, 78, 93
2, 15000, Note_off_c, 0, 78, 0
2, 15000, Note_on_c, 0, 79, 93
2, 15048, Note_off_c, 0, 79, 0
2, 15048, Note_on_c, 0, 78, 93
2, 15072, Note_off_c, 0, 78, 0
2, 15072, Note_on_c, 0, 78, 93
2, 15120, Note_off_c, 0, 78, 0
2, 15120, Note_on_c, 0, 76, 93
2, 15192, Note_off_c, 0, 76, 0
2, 15192, Note_on_c, 0, 71, 93
2, 15216, Note_off_c, 0, 71, 0
2, 15216, Note_on_c, 0, 72, 93
2, 15228, Note_off_c, 0, 72, 0
2, 15228, Note_on_c, 0, 71, 93
2, 15240, Note_off_c, 0, 71, 0
2, 15240, Note_on_c, 0, 69, 93
2, 15252, Note_off_c, 0, 69, 0
2, 15252, Note_on_c, 0, 71, 93
2, 15264, Note_off_c, 0, 71, 0
2, 15264, Note_on_c, 0, 79, 93
2, 15276, Note_off_c, 0, 79, 0
2, 15276, Note_on_c, 0, 76, 93
2, 15312, Note_off_c, 0, 76, 0
2, 15312, Note_on_c, 0, 78, 93
2, 15324, Note_off_c, 0, 78, 0
2, 15324, Note_on_c, 0, 75, 93
2, 15360, Note_off_c, 0, 75, 0
2, 15360, Note_on_c, 0, 75, 93
2, 15384, Note_off_c, 0, 75, 0
2, 15384, Note_on_c, 0, 76, 93
2, 15480, Note_off_c, 0, 76, 0
2, 15480, Note_on_c, 0, 67, 93
2, 15504, Note_off_c, 0, 67, 0
2, 15504, Note_on_c, 0, 66, 93
2, 15528, Note_off_c, 0, 66, 0
2, 15528, Note_on_c, 0, 64, 93
2, 15552, Note_off_c, 0, 64, 0
2, 15552, Note_on_c, 0, 66, 93
2, 15624, Note_off_c, 0, 66, 0
2, 15624, Note_on_c, 0, 76, 93
2, 15648, Note_off_c, 0, 76, 0
2, 15648, Note_on_c, 0, 76, 93
2, 15672, Note_off_c, 0, 76, 0
2, 15672, Note_on_c, 0, 75, 93
2, 15696, Note_off_c, 0, 75, 0
2, 15696, Note_on_c, 0, 78, 93
2, 15708, Note_off_c, 0, 78, 0
2, 15708, Note_on_c, 0, 79, 93
2, 15720, Note_off_c, 0, 79, 0
2, 15720, Note_on_c, 0, 81, 93
2, 15744, Note_off_c, 0, 81, 0
2, 15744, Note_on_c, 0, 79, 93
2, 15792, Note_off_c, 0, 79, 0
2, 15792, Note_on_c, 0, 78, 93
2, 15840, Note_off_c, 0, 78, 0
2, 15840, Note_on_c, 0, 78, 93
2, 15864, Note_off_c, 0, 78, 0
2, 15864, Note_on_c, 0, 76, 93
2, 15912, Note_off_c, 0, 76, 0
2, 15912, Note_on_c, 0, 78, 93
2, 15924, Note_off_c, 0, 78, 0
2, 15924, Note_on_c, 0, 75, 93
2, 15936, Note_off_c, 0, 75, 0
2, 15936, Note_on_c, 0, 75, 93
2, 15984, Note_off_c, 0, 75, 0
2, 15984, Note_on_c, 0, 76, 93
2, 16128, Note_off_c, 0, 76, 0
2, 16128, Note_on_c, 0, 76, 93
2, 16176, Note_off_c, 0, 76, 0
2, 16176, Note_on_c, 0, 74, 93
2, 16200, Note_off_c, 0, 74, 0
2, 16200, Note_on_c, 0, 72, 93
2, 16224, Note_off_c, 0, 72, 0
2, 16224, Note_on_c, 0, 71, 93
2, 16272, Note_off_c, 0, 71, 0
2, 16272, Note_on_c, 0, 69, 93
2, 16368, Note_off_c, 0, 69, 0
2, 16368, Note_on_c, 0, 71, 93
2, 16392, Note_off_c, 0, 71, 0
2, 16392, Note_on_c, 0, 72, 93
2, 16416, Note_off_c, 0, 72, 0
2, 16416, Note_on_c, 0, 74, 93
2, 16428, Note_off_c, 0, 74, 0
2, 16428, Note_on_c, 0, 72, 93
2, 16440, Note_off_c, 0, 72, 0
2, 16440, Note_on_c, 0, 71, 93
2, 16464, Note_off_c, 0, 71, 0
2, 16464, Note_on_c, 0, 72, 93
2, 16476, Note_off_c, 0, 72, 0
2, 16476, Note_on_c, 0, 71, 93
2, 16488, Note_off_c, 0, 71, 0
2, 16488, Note_on_c, 0, 69, 93
2, 16512, Note_off_c, 0, 69, 0
2, 16512, Note_on_c, 0, 69, 93
2, 16560, Note_off_c, 0, 69, 0
2, 16560, Note_on_c, 0, 67, 93
2, 16656, Note_off_c, 0, 67, 0
2, 16656, Note_on_c, 0, 69, 93
2, 16680, Note_off_c, 0, 69, 0
2, 16680, Note_on_c, 0, 71, 93
2, 16704, Note_off_c, 0, 71, 0
2, 16704, Note_on_c, 0, 72, 93
2, 16728, Note_off_c, 0, 72, 0
2, 16728, Note_on_c, 0, 74, 93
2, 16752, Note_off_c, 0, 74, 0
2, 16752, Note_on_c, 0, 72, 93
2, 16776, Note_off_c, 0, 72, 0
2, 16776, Note_on_c, 0, 71, 93
2, 16800, Note_off_c, 0, 71, 0
2, 16800, Note_on_c, 0, 72, 93
2, 16824, Note_off_c, 0, 72, 0
2, 16824, Note_on_c, 0, 69, 93
2, 16848, Note_off_c, 0, 69, 0
2, 16848, Note_on_c, 0, 64, 93
2, 16872, Note_off_c, 0, 64, 0
2, 16872, Note_on_c, 0, 69, 93
2, 16896, Note_off_c, 0, 69, 0
2, 16896, Note_on_c, 0, 72, 93
2, 17016, Note_off_c, 0, 72, 0
2, 17016, Note_on_c, 0, 74, 93
2, 17040, Note_off_c, 0, 74, 0
2, 17040, Note_on_c, 0, 72, 93
2, 17064, Note_off_c, 0, 72, 0
2, 17064, Note_on_c, 0, 71, 93
2, 17088, Note_off_c, 0, 71, 0
2, 17088, Note_on_c, 0, 72, 93
2, 17112, Note_off_c, 0, 72, 0
2, 17112, Note_on_c, 0, 69, 93
2, 17136, Note_off_c, 0, 69, 0
2, 17136, Note_on_c, 0, 66, 93
2, 17160, Note_off_c, 0, 66, 0
2, 17160, Note_on_c, 0, 69, 93
2, 17184, Note_off_c, 0, 69, 0
2, 17184, Note_on_c, 0, 72, 93
2, 17208, Note_off_c, 0, 72, 0
2, 17208, Note_on_c, 0, 76, 93
2, 17232, Note_off_c, 0, 76, 0
2, 17232, Note_on_c, 0, 74, 93
2, 17256, Note_off_c, 0, 74, 0
2, 17256, Note_on_c, 0, 72, 93
2, 17280, Note_off_c, 0, 72, 0
2, 17280, Note_on_c, 0, 71, 93
2, 17304, Note_off_c, 0, 71, 0
2, 17304, Note_on_c, 0, 72, 93
2, 17328, Note_off_c, 0, 72, 0
2, 17328, Note_on_c, 0, 71, 93
2, 17352, Note_off_c, 0, 71, 0
2, 17352, Note_on_c, 0, 69, 93
2, 17376, Note_off_c, 0, 69, 0
2, 17376, Note_on_c, 0, 71, 93
2, 17400, Note_off_c, 0, 71, 0
2, 17400, Note_on_c, 0, 67, 93
2, 17424, Note_off_c, 0, 67, 0
2, 17424, Note_on_c, 0, 62, 93
2, 17448, Note_off_c, 0, 62, 0
2, 17448, Note_on_c, 0, 67, 93
2, 17472, Note_off_c, 0, 67, 0
2, 17472, Note_on_c, 0, 71, 93
2, 17496, Note_off_c, 0, 71, 0
2, 17496, Note_on_c, 0, 67, 93
2, 17520, Note_off_c, 0, 67, 0
2, 17520, Note_on_c, 0, 72, 93
2, 17544, Note_off_c, 0, 72, 0
2, 17544, Note_on_c, 0, 74, 93
2, 17568, Note_off_c, 0, 74, 0
2, 17568, Note_on_c, 0, 76, 93
2, 17592, Note_off_c, 0, 76, 0
2, 17592, Note_on_c, 0, 77, 93
2, 17616, Note_off_c, 0, 77, 0
2, 17616, Note_on_c, 0, 76, 93
2, 17640, Note_off_c, 0, 76, 0
2, 17640, Note_on_c, 0, 74, 93
2, 17664, Note_off_c, 0, 74, 0
2, 17664, Note_on_c, 0, 76, 93
2, 17688, Note_off_c, 0, 76, 0
2, 17688, Note_on_c, 0, 72, 93
2, 17712, Note_off_c, 0, 72, 0
2, 17712, Note_on_c, 0, 67, 93
2, 17736, Note_off_c, 0, 67, 0
2, 17736, Note_on_c, 0, 72, 93
2, 17760, Note_off_c, 0, 72, 0
2, 17760, Note_on_c, 0, 76, 93
2, 17784, Note_off_c, 0, 76, 0
2, 17784, Note_on_c, 0, 72, 93
2, 17808, Note_off_c, 0, 72, 0
2, 17808, Note_on_c, 0, 78, 93
2, 17832, Note_off_c, 0, 78, 0
2, 17832, Note_on_c, 0, 79, 93
2, 17856, Note_off_c, 0, 79, 0
2, 17856, Note_on_c, 0, 81, 93
2, 17880, Note_off_c, 0, 81, 0
2, 17880, Note_on_c, 0, 72, 93
2, 17904, Note_off_c, 0, 72, 0
2, 17904, Note_on_c, 0, 71, 93
2, 17928, Note_off_c, 0, 71, 0
2, 17928, Note_on_c, 0, 69, 93
2, 17952, Note_off_c, 0, 69, 0
2, 17952, Note_on_c, 0, 71, 93
2, 17976, Note_off_c, 0, 71, 0
2, 17976, Note_on_c, 0, 72, 93
2, 18000, Note_off_c, 0, 72, 0
2, 18000, Note_on_c, 0, 74, 93
2, 18024, Note_off_c, 0, 74, 0
2, 18024, Note_on_c, 0, 67, 93
2, 18048, Note_off_c, 0, 67, 0
2, 18048, Note_on_c, 0, 71, 93
2, 18072, Note_off_c, 0, 71, 0
2, 18072, Note_on_c, 0, 69, 93
2, 18096, Note_off_c, 0, 69, 0
2, 18096, Note_on_c, 0, 67, 93
2, 18120, Note_off_c, 0, 67, 0
2, 18120, Note_on_c, 0, 66, 93
2, 18144, Note_off_c, 0, 66, 0
2, 18144, Note_on_c, 0, 67, 93
2, 18264, Note_off_c, 0, 67, 0
2, 18264, Note_on_c, 0, 62, 93
2, 18288, Note_off_c, 0, 62, 0
2, 18288, Note_on_c, 0, 67, 93
2, 18312, Note_off_c, 0, 67, 0
2, 18312, Note_on_c, 0, 66, 93
2, 18336, Note_off_c, 0, 66, 0
2, 18336, Note_on_c, 0, 66, 93
2, 18360, Note_off_c, 0, 66, 0
2, 18360, Note_on_c, 0, 67, 93
2, 18432, Note_off_c, 0, 67, 0
2, 18432, End_track
3, 0, Start_track
3, 0, Title_t, "Track3"
3, 0, Program_c, 1, 6
3, 0, Control_c, 1, 7, 100
3, 0, Control_c, 1, 10, 69
3, 192, Note_on_c, 1, 62, 93
3, 288, Note_off_c, 1, 62, 0
3, 480, Note_on_c, 1, 62, 93
3, 576, Note_off_c, 1, 62, 0
3, 768, Note_on_c, 1, 61, 93
3, 864, Note_off_c, 1, 61, 0
3, 1056, Note_on_c, 1, 57, 93
3, 1152, Note_off_c, 1, 57, 0
3, 1344, Note_on_c, 1, 55, 93
3, 1440, Note_off_c, 1, 55, 0
3, 1632, Note_on_c, 1, 57, 93
3, 1728, Note_off_c, 1, 57, 0
3, 1776, Note_on_c, 1, 60, 93
3, 1872, Note_off_c, 1, 60, 0
3, 1872, Note_on_c, 1, 59, 93
3, 1896, Note_off_c, 1, 59, 0
3, 1896, Note_on_c, 1, 57, 93
3, 1920, Note_off_c, 1, 57, 0
3, 1920, Note_on_c, 1, 55, 93
3, 1944, Note_off_c, 1, 55, 0
3, 1944, Note_on_c, 1, 54, 93
3, 1968, Note_off_c, 1, 54, 0
3, 1968, Note_on_c, 1, 52, 93
3, 1992, Note_off_c, 1, 52, 0
3, 1992, Note_on_c, 1, 54, 93
3, 2016, Note_off_c, 1, 54, 0
3, 2016, Note_on_c, 1, 55, 93
3, 2064, Note_off_c, 1, 55, 0
3, 2064, Note_on_c, 1, 57, 93
3, 2112, Note_off_c, 1, 57, 0
3, 2112, Note_on_c, 1, 59, 93
3, 2304, Note_off_c, 1, 59, 0
3, 2400, Note_on_c, 1, 59, 93
3, 2592, Note_off_c, 1, 59, 0
3, 2592, Note_on_c, 1, 57, 93
3, 2688, Note_off_c, 1, 57, 0
3, 2928, Note_on_c, 1, 59, 93
3, 2976, Note_off_c, 1, 59, 0
3, 3552, Note_on_c, 1, 57, 93
3, 3744, Note_off_c, 1, 57, 0
3, 3840, Note_on_c, 1, 59, 93
3, 3936, Note_off_c, 1, 59, 0
3, 4464, Note_on_c, 1, 57, 93
3, 4512, Note_off_c, 1, 57, 0
3, 4512, Note_on_c, 1, 62, 93
3, 4608, Note_off_c, 1, 62, 0
3, 4800, Note_on_c, 1, 62, 93
3, 4896, Note_off_c, 1, 62, 0
3, 5088, Note_on_c, 1, 62, 93
3, 5184, Note_off_c, 1, 62, 0
3, 5376, Note_on_c, 1, 61, 93
3, 5472, Note_off_c, 1, 61, 0
3, 5664, Note_on_c, 1, 57, 93
3, 5760, Note_off_c, 1, 57, 0
3, 5952, Note_on_c, 1, 55, 93
3, 6048, Note_off_c, 1, 55, 0
3, 6240, Note_on_c, 1, 57, 93
3, 6336, Note_off_c, 1, 57, 0
3, 6384, Note_on_c, 1, 60, 93
3, 6480, Note_off_c, 1, 60, 0
3, 6480, Note_on_c, 1, 59, 93
3, 6504, Note_off_c, 1, 59, 0
3, 6504, Note_on_c, 1, 57, 93
3, 6528, Note_off_c, 1, 57, 0
3, 6528, Note_on_c, 1, 55, 93
3, 6552, Note_off_c, 1, 55, 0
3, 6552, Note_on_c, 1, 54, 93
3, 6576, Note_off_c, 1, 54, 0
3, 6576, Note_on_c, 1, 52, 93
3, 6600, Note_off_c, 1, 52, 0
3, 6600, Note_on_c, 1, 54, 93
3, 6624, Note_off_c, 1, 54, 0
3, 6624, Note_on_c, 1, 55, 93
3, 6672, Note_off_c, 1, 55, 0
3, 6672, Note_on_c, 1, 57, 93
3, 6720, Note_off_c, 1, 57, 0
3, 6720, Note_on_c, 1, 59, 93
3, 6912, Note_off_c, 1, 59, 0
3, 7008, Note_on_c, 1, 59, 93
3, 7200, Note_off_c, 1, 59, 0
3, 7200, Note_on_c, 1, 57, 93
3, 7296, Note_off_c, 1, 57, 0
3, 7536, Note_on_c, 1, 59, 93
3, 7584, Note_off_c, 1, 59, 0
3, 8160, Note_on_c, 1, 57, 93
3, 8352, Note_off_c, 1, 57, 0
3, 8448, Note_on_c, 1, 59, 93
3, 8544, Note_off_c, 1, 59, 0
3, 9072, Note_on_c, 1, 57, 93
3, 9120, Note_off_c, 1, 57, 0
3, 9120, Note_on_c, 1, 62, 93
3, 9216, Note_off_c, 1, 62, 0
3, 9216, Note_on_c, 1, 62, 93
3, 9408, Note_off_c, 1, 62, 0
3, 9408, Note_on_c, 1, 60, 93
3, 9504, Note_off_c, 1, 60, 0
3, 9504, Note_on_c, 1, 59, 93
3, 9648, Note_off_c, 1, 59, 0
3, 9648, Note_on_c, 1, 57, 93
3, 9696, Note_off_c, 1, 57, 0
3, 9696, Note_on_c, 1, 59, 93
3, 9792, Note_off_c, 1, 59, 0
3, 9792, Note_on_c, 1, 60, 93
3, 9936, Note_off_c, 1, 60, 0
3, 9936, Note_on_c, 1, 59, 93
3, 9984, Note_off_c, 1, 59, 0
3, 9984, Note_on_c, 1, 57, 93
3, 10080, Note_off_c, 1, 57, 0
3, 10080, Note_on_c, 1, 59, 93
3, 10224, Note_off_c, 1, 59, 0
3, 10224, Note_on_c, 1, 57, 93
3, 10272, Note_off_c, 1, 57, 0
3, 10272, Note_on_c, 1, 55, 93
3, 10320, Note_off_c, 1, 55, 0
3, 10320, Note_on_c, 1, 54, 93
3, 10368, Note_off_c, 1, 54, 0
3, 10368, Note_on_c, 1, 52, 93
3, 10560, Note_off_c, 1, 52, 0
3, 10560, Note_on_c, 1, 50, 93
3, 10656, Note_off_c, 1, 50, 0
3, 10656, Note_on_c, 1, 48, 93
3, 10800, Note_off_c, 1, 48, 0
3, 10848, Note_on_c, 1, 47, 93
3, 10944, Note_off_c, 1, 47, 0
3, 10944, Note_on_c, 1, 45, 93
3, 10992, Note_off_c, 1, 45, 0
3, 10992, Note_on_c, 1, 48, 93
3, 11040, Note_off_c, 1, 48, 0
3, 11040, Note_on_c, 1, 47, 93
3, 11088, Note_off_c, 1, 47, 0
3, 11088, Note_on_c, 1, 45, 93
3, 11136, Note_off_c, 1, 45, 0
3, 11136, Note_on_c, 1, 47, 93
3, 11232, Note_off_c, 1, 47, 0
3, 11232, Note_on_c, 1, 52, 93
3, 11280, Note_off_c, 1, 52, 0
3, 11280, Note_on_c, 1, 47, 93
3, 11328, Note_off_c, 1, 47, 0
3, 11328, Note_on_c, 1, 40, 93
3, 11376, Note_off_c, 1, 40, 0
3, 11376, Note_on_c, 1, 47, 93
3, 11424, Note_off_c, 1, 47, 0
3, 11424, Note_on_c, 1, 52, 93
3, 11472, Note_off_c, 1, 52, 0
3, 11472, Note_on_c, 1, 50, 93
3, 11520, Note_off_c, 1, 50, 0
3, 11520, Note_on_c, 1, 48, 93
3, 11808, Note_off_c, 1, 48, 0
3, 11808, Note_on_c, 1, 47, 93
3, 12096, Note_off_c, 1, 47, 0
3, 12096, Note_on_c, 1, 45, 93
3, 12240, Note_off_c, 1, 45, 0
3, 12240, Note_on_c, 1, 43, 93
3, 12288, Note_off_c, 1, 43, 0
3, 12288, Note_on_c, 1, 42, 93
3, 12336, Note_off_c, 1, 42, 0
3, 12336, Note_on_c, 1, 40, 93
3, 12384, Note_off_c, 1, 40, 0
3, 12384, Note_on_c, 1, 38, 93
3, 12432, Note_off_c, 1, 38, 0
3, 12432, Note_on_c, 1, 45, 93
3, 12480, Note_off_c, 1, 45, 0
3, 12480, Note_on_c, 1, 50, 93
3, 12528, Note_off_c, 1, 50, 0
3, 12528, Note_on_c, 1, 48, 93
3, 12576, Note_off_c, 1, 48, 0
3, 12576, Note_on_c, 1, 47, 93
3, 12624, Note_off_c, 1, 47, 0
3, 12624, Note_on_c, 1, 45, 93
3, 12672, Note_off_c, 1, 45, 0
3, 12672, Note_on_c, 1, 43, 93
3, 12720, Note_off_c, 1, 43, 0
3, 12720, Note_on_c, 1, 50, 93
3, 12768, Note_off_c, 1, 50, 0
3, 12768, Note_on_c, 1, 55, 93
3, 12816, Note_off_c, 1, 55, 0
3, 12816, Note_on_c, 1, 53, 93
3, 12864, Note_off_c, 1, 53, 0
3, 12864, Note_on_c, 1, 52, 93
3, 12912, Note_off_c, 1, 52, 0
3, 12912, Note_on_c, 1, 50, 93
3, 12960, Note_off_c, 1, 50, 0
3, 12960, Note_on_c, 1, 48, 93
3, 13008, Note_off_c, 1, 48, 0
3, 13008, Note_on_c, 1, 55, 93
3, 13056, Note_off_c, 1, 55, 0
3, 13056, Note_on_c, 1, 60, 93
3, 13104, Note_off_c, 1, 60, 0
3, 13104, Note_on_c, 1, 59, 93
3, 13152, Note_off_c, 1, 59, 0
3, 13152, Note_on_c, 1, 57, 93
3, 13200, Note_off_c, 1, 57, 0
3, 13200, Note_on_c, 1, 55, 93
3, 13248, Note_off_c, 1, 55, 0
3, 13248, Note_on_c, 1, 54, 93
3, 13296, Note_off_c, 1, 54, 0
3, 13296, Note_on_c, 1, 50, 93
3, 13344, Note_off_c, 1, 50, 0
3, 13344, Note_on_c, 1, 55, 93
3, 13392, Note_off_c, 1, 55, 0
3, 13392, Note_on_c, 1, 59, 93
3, 13440, Note_off_c, 1, 59, 0
3, 13440, Note_on_c, 1, 62, 93
3, 13488, Note_off_c, 1, 62, 0
3, 13488, Note_on_c, 1, 50, 93
3, 13536, Note_off_c, 1, 50, 0
3, 13536, Note_on_c, 1, 55, 93
3, 13680, Note_off_c, 1, 55, 0
3, 13680, Note_on_c, 1, 50, 93
3, 13728, Note_off_c, 1, 50, 0
3, 13728, Note_on_c, 1, 43, 93
3, 13824, Note_off_c, 1, 43, 0
3, 13824, Note_on_c, 1, 62, 93
3, 14016, Note_off_c, 1, 62, 0
3, 14016, Note_on_c, 1, 60, 93
3, 14112, Note_off_c, 1, 60, 0
3, 14112, Note_on_c, 1, 59, 93
3, 14256, Note_off_c, 1, 59, 0
3, 14256, Note_on_c, 1, 57, 93
3, 14304, Note_off_c, 1, 57, 0
3, 14304, Note_on_c, 1, 59, 93
3, 14400, Note_off_c, 1, 59, 0
3, 14400, Note_on_c, 1, 60, 93
3, 14544, Note_off_c, 1, 60, 0
3, 14544, Note_on_c, 1, 59, 93
3, 14592, Note_off_c, 1, 59, 0
3, 14592, Note_on_c, 1, 57, 93
3, 14688, Note_off_c, 1, 57, 0
3, 14688, Note_on_c, 1, 59, 93
3, 14832, Note_off_c, 1, 59, 0
3, 14832, Note_on_c, 1, 57, 93
3, 14880, Note_off_c, 1, 57, 0
3, 14880, Note_on_c, 1, 55, 93
3, 14928, Note_off_c, 1, 55, 0
3, 14928, Note_on_c, 1, 54, 93
3, 14976, Note_off_c, 1, 54, 0
3, 14976, Note_on_c, 1, 52, 93
3, 15168, Note_off_c, 1, 52, 0
3, 15168, Note_on_c, 1, 50, 93
3, 15264, Note_off_c, 1, 50, 0
3, 15264, Note_on_c, 1, 48, 93
3, 15408, Note_off_c, 1, 48, 0
3, 15456, Note_on_c, 1, 47, 93
3, 15552, Note_off_c, 1, 47, 0
3, 15552, Note_on_c, 1, 45, 93
3, 15600, Note_off_c, 1, 45, 0
3, 15600, Note_on_c, 1, 48, 93
3, 15648, Note_off_c, 1, 48, 0
3, 15648, Note_on_c, 1, 47, 93
3, 15696, Note_off_c, 1, 47, 0
3, 15696, Note_on_c, 1, 45, 93
3, 15744, Note_off_c, 1, 45, 0
3, 15744, Note_on_c, 1, 47, 93
3, 15840, Note_off_c, 1, 47, 0
3, 15840, Note_on_c, 1, 52, 93
3, 15888, Note_off_c, 1, 52, 0
3, 15888, Note_on_c, 1, 47, 93
3, 15936, Note_off_c, 1, 47, 0
3, 15936, Note_on_c, 1, 40, 93
3, 15984, Note_off_c, 1, 40, 0
3, 15984, Note_on_c, 1, 47, 93
3, 16032, Note_off_c, 1, 47, 0
3, 16032, Note_on_c, 1, 52, 93
3, 16080, Note_off_c, 1, 52, 0
3, 16080, Note_on_c, 1, 50, 93
3, 16128, Note_off_c, 1, 50, 0
3, 16128, Note_on_c, 1, 48, 93
3, 16416, Note_off_c, 1, 48, 0
3, 16416, Note_on_c, 1, 47, 93
3, 16704, Note_off_c, 1, 47, 0
3, 16704, Note_on_c, 1, 45, 93
3, 16848, Note_off_c, 1, 45, 0
3, 16848, Note_on_c, 1, 43, 93
3, 16896, Note_off_c, 1, 43, 0
3, 16896, Note_on_c, 1, 42, 93
3, 16944, Note_off_c, 1, 42, 0
3, 16944, Note_on_c, 1, 40, 93
3, 16992, Note_off_c, 1, 40, 0
3, 16992, Note_on_c, 1, 38, 93
3, 17040, Note_off_c, 1, 38, 0
3, 17040, Note_on_c, 1, 45, 93
3, 17088, Note_off_c, 1, 45, 0
3, 17088, Note_on_c, 1, 50, 93
3, 17136, Note_off_c, 1, 50, 0
3, 17136, Note_on_c, 1, 48, 93
3, 17184, Note_off_c, 1, 48, 0
3, 17184, Note_on_c, 1, 47, 93
3, 17232, Note_off_c, 1, 47, 0
3, 17232, Note_on_c, 1, 45, 93
3, 17280, Note_off_c, 1, 45, 0
3, 17280, Note_on_c, 1, 43, 93
3, 17328, Note_off_c, 1, 43, 0
3, 17328, Note_on_c, 1, 50, 93
3, 17376, Note_off_c, 1, 50, 0
3, 17376, Note_on_c, 1, 55, 93
3, 17424, Note_off_c, 1, 55, 0
3, 17424, Note_on_c, 1, 53, 93
3, 17472, Note_off_c, 1, 53, 0
3, 17472, Note_on_c, 1, 52, 93
3, 17520, Note_off_c, 1, 52, 0
3, 17520, Note_on_c, 1, 50, 93
3, 17568, Note_off_c, 1, 50, 0
3, 17568, Note_on_c, 1, 48, 93
3, 17616, Note_off_c, 1, 48, 0
3, 17616, Note_on_c, 1, 55, 93
3, 17664, Note_off_c, 1, 55, 0
3, 17664, Note_on_c, 1, 60, 93
3, 17712, Note_off_c, 1, 60, 0
3, 17712, Note_on_c, 1, 59, 93
3, 17760, Note_off_c, 1, 59, 0
3, 17760, Note_on_c, 1, 57, 93
3, 17808, Note_off_c, 1, 57, 0
3, 17808, Note_on_c, 1, 55, 93
3, 17856, Note_off_c, 1, 55, 0
3, 17856, Note_on_c, 1, 54, 93
3, 17904, Note_off_c, 1, 54, 0
3, 17904, Note_on_c, 1, 50, 93
3, 17952, Note_off_c, 1, 50, 0
3, 17952, Note_on_c, 1, 55, 93
3, 18000, Note_off_c, 1, 55, 0
3, 18000, Note_on_c, 1, 59, 93
3, 18048, Note_off_c, 1, 59, 0
3, 18048, Note_on_c, 1, 62, 93
3, 18096, Note_off_c, 1, 62, 0
3, 18096, Note_on_c, 1, 50, 93
3, 18144, Note_off_c, 1, 50, 0
3, 18144, Note_on_c, 1, 55, 93
3, 18288, Note_off_c, 1, 55, 0
3, 18288, Note_on_c, 1, 50, 93
3, 18336, Note_off_c, 1, 50, 0
3, 18336, Note_on_c, 1, 43, 93
3, 18432, Note_off_c, 1, 43, 0
3, 18432, End_track
4, 0, Start_track
4, 0, Title_t, "Track4"
4, 0, Program_c, 2, 6
4, 0, Control_c, 2, 7, 100
4, 0, Control_c, 2, 10, 59
4, 96, Note_on_c, 2, 59, 93
4, 288, Note_off_c, 2, 59, 0
4, 384, Note_on_c, 2, 57, 93
4, 576, Note_off_c, 2, 57, 0
4, 672, Note_on_c, 2, 55, 93
4, 864, Note_off_c, 2, 55, 0
4, 960, Note_on_c, 2, 54, 93
4, 1152, Note_off_c, 2, 54, 0
4, 1248, Note_on_c, 2, 50, 93
4, 1440, Note_off_c, 2, 50, 0
4, 1536, Note_on_c, 2, 52, 93
4, 1680, Note_off_c, 2, 52, 0
4, 2496, Note_on_c, 2, 64, 93
4, 2592, Note_off_c, 2, 64, 0
4, 2688, Note_on_c, 2, 74, 93
4, 2880, Note_off_c, 2, 74, 0
4, 2976, Note_on_c, 2, 64, 93
4, 3120, Note_off_c, 2, 64, 0
4, 3120, Note_on_c, 2, 62, 93
4, 3168, Note_off_c, 2, 62, 0
4, 3168, Note_on_c, 2, 61, 93
4, 3216, Note_off_c, 2, 61, 0
4, 3216, Note_on_c, 2, 62, 93
4, 3264, Note_off_c, 2, 62, 0
4, 3264, Note_on_c, 2, 64, 93
4, 3456, Note_off_c, 2, 64, 0
4, 3648, Note_on_c, 2, 62, 93
4, 3744, Note_off_c, 2, 62, 0
4, 3936, Note_on_c, 2, 64, 93
4, 4032, Note_off_c, 2, 64, 0
4, 4032, Note_on_c, 2, 66, 93
4, 4128, Note_off_c, 2, 66, 0
4, 4128, Note_on_c, 2, 64, 93
4, 4200, Note_off_c, 2, 64, 0
4, 4200, Note_on_c, 2, 66, 93
4, 4224, Note_off_c, 2, 66, 0
4, 4224, Note_on_c, 2, 67, 93
4, 4416, Note_off_c, 2, 67, 0
4, 4416, Note_on_c, 2, 66, 93
4, 4608, Note_off_c, 2, 66, 0
4, 4704, Note_on_c, 2, 59, 93
4, 4896, Note_off_c, 2, 59, 0
4, 4992, Note_on_c, 2, 57, 93
4, 5184, Note_off_c, 2, 57, 0
4, 5280, Note_on_c, 2, 55, 93
4, 5472, Note_off_c, 2, 55, 0
4, 5568, Note_on_c, 2, 54, 93
4, 5760, Note_off_c, 2, 54, 0
4, 5856, Note_on_c, 2, 50, 93
4, 6048, Note_off_c, 2, 50, 0
4, 6144, Note_on_c, 2, 52, 93
4, 6288, Note_off_c, 2, 52, 0
4, 7104, Note_on_c, 2, 64, 93
4, 7200, Note_off_c, 2, 64, 0
4, 7296, Note_on_c, 2, 74, 93
4, 7488, Note_off_c, 2, 74, 0
4, 7584, Note_on_c, 2, 64, 93
4, 7728, Note_off_c, 2, 64, 0
4, 7728, Note_on_c, 2, 62, 93
4, 7776, Note_off_c, 2, 62, 0
4, 7776, Note_on_c, 2, 61, 93
4, 7824, Note_off_c, 2, 61, 0
4, 7824, Note_on_c, 2, 62, 93
4, 7872, Note_off_c, 2, 62, 0
4, 7872, Note_on_c, 2, 64, 93
4, 8064, Note_off_c, 2, 64, 0
4, 8256, Note_on_c, 2, 62, 93
4, 8352, Note_off_c, 2, 62, 0
4, 8544, Note_on_c, 2, 64, 93
4, 8640, Note_off_c, 2, 64, 0
4, 8640, Note_on_c, 2, 66, 93
4, 8736, Note_off_c, 2, 66, 0
4, 8736, Note_on_c, 2, 64, 93
4, 8808, Note_off_c, 2, 64, 0
4, 8808, Note_on_c, 2, 66, 93
4, 8832, Note_off_c, 2, 66, 0
4, 8832, Note_on_c, 2, 67, 93
4, 9024, Note_off_c, 2, 67, 0
4, 9024, Note_on_c, 2, 66, 93
4, 9216, Note_off_c, 2, 66, 0
4, 9264, Note_on_c, 2, 64, 93
4, 9312, Note_off_c, 2, 64, 0
4, 9312, Note_on_c, 2, 66, 93
4, 9318, Note_off_c, 2, 66, 0
4, 9318, Note_on_c, 2, 64, 93
4, 9324, Note_off_c, 2, 64, 0
4, 9324, Note_on_c, 2, 66, 93
4, 9504, Note_off_c, 2, 66, 0
4, 9552, Note_on_c, 2, 60, 93
4, 9600, Note_off_c, 2, 60, 0
4, 9600, Note_on_c, 2, 62, 93
4, 9792, Note_off_c, 2, 62, 0
4, 9840, Note_on_c, 2, 64, 93
4, 9888, Note_off_c, 2, 64, 0
4, 9888, Note_on_c, 2, 67, 93
4, 9984, Note_off_c, 2, 67, 0
4, 9984, Note_on_c, 2, 67, 93
4, 9990, Note_off_c, 2, 67, 0
4, 9990, Note_on_c, 2, 66, 93
4, 10002, Note_off_c, 2, 66, 0
4, 10002, Note_on_c, 2, 67, 93
4, 10008, Note_off_c, 2, 67, 0
4, 10008, Note_on_c, 2, 66, 93
4, 10032, Note_off_c, 2, 66, 0
4, 10032, Note_on_c, 2, 64, 93
4, 10080, Note_off_c, 2, 64, 0
4, 10080, Note_on_c, 2, 63, 93
4, 10128, Note_off_c, 2, 63, 0
4, 10128, Note_on_c, 2, 64, 93
4, 10176, Note_off_c, 2, 64, 0
4, 10176, Note_on_c, 2, 66, 93
4, 10368, Note_off_c, 2, 66, 0
4, 10416, Note_on_c, 2, 57, 93
4, 10464, Note_off_c, 2, 57, 0
4, 10464, Note_on_c, 2, 57, 93
4, 10470, Note_off_c, 2, 57, 0
4, 10470, Note_on_c, 2, 55, 93
4, 10482, Note_off_c, 2, 55, 0
4, 10482, Note_on_c, 2, 57, 93
4, 10488, Note_off_c, 2, 57, 0
4, 10488, Note_on_c, 2, 55, 93
4, 10512, Note_off_c, 2, 55, 0
4, 10512, Note_on_c, 2, 54, 93
4, 10560, Note_off_c, 2, 54, 0
4, 10560, Note_on_c, 2, 55, 93
4, 10656, Note_off_c, 2, 55, 0
4, 10704, Note_on_c, 2, 57, 93
4, 10752, Note_off_c, 2, 57, 0
4, 10752, Note_on_c, 2, 57, 93
4, 10758, Note_off_c, 2, 57, 0
4, 10758, Note_on_c, 2, 55, 93
4, 10770, Note_off_c, 2, 55, 0
4, 10770, Note_on_c, 2, 57, 93
4, 10776, Note_off_c, 2, 57, 0
4, 10776, Note_on_c, 2, 55, 93
4, 10800, Note_off_c, 2, 55, 0
4, 10800, Note_on_c, 2, 54, 93
4, 10848, Note_off_c, 2, 54, 0
4, 10848, Note_on_c, 2, 55, 93
4, 10896, Note_off_c, 2, 55, 0
4, 10896, Note_on_c, 2, 59, 93
4, 10944, Note_off_c, 2, 59, 0
4, 11184, Note_on_c, 2, 51, 93
4, 11232, Note_off_c, 2, 51, 0
4, 11232, Note_on_c, 2, 52, 93
4, 11328, Note_off_c, 2, 52, 0
4, 11616, Note_on_c, 2, 52, 93
4, 11808, Note_off_c, 2, 52, 0
4, 13872, Note_on_c, 2, 64, 93
4, 13920, Note_off_c, 2, 64, 0
4, 13920, Note_on_c, 2, 66, 93
4, 13926, Note_off_c, 2, 66, 0
4, 13926, Note_on_c, 2, 64, 93
4, 13932, Note_off_c, 2, 64, 0
4, 13932, Note_on_c, 2, 66, 93
4, 14112, Note_off_c, 2, 66, 0
4, 14160, Note_on_c, 2, 60, 93
4, 14208, Note_off_c, 2, 60, 0
4, 14208, Note_on_c, 2, 62, 93
4, 14400, Note_off_c, 2, 62, 0
4, 14448, Note_on_c, 2, 64, 93
4, 14496, Note_off_c, 2, 64, 0
4, 14496, Note_on_c, 2, 67, 93
4, 14592, Note_off_c, 2, 67, 0
4, 14592, Note_on_c, 2, 67, 93
4, 14598, Note_off_c, 2, 67, 0
4, 14598, Note_on_c, 2, 66, 93
4, 14610, Note_off_c, 2, 66, 0
4, 14610, Note_on_c, 2, 67, 93
4, 14616, Note_off_c, 2, 67, 0
4, 14616, Note_on_c, 2, 66, 93
4, 14640, Note_off_c, 2, 66, 0
4, 14640, Note_on_c, 2, 64, 93
4, 14688, Note_off_c, 2, 64, 0
4, 14688, Note_on_c, 2, 63, 93
4, 14736, Note_off_c, 2, 63, 0
4, 14736, Note_on_c, 2, 64, 93
4, 14784, Note_off_c, 2, 64, 0
4, 14784, Note_on_c, 2, 66, 93
4, 14976, Note_off_c, 2, 66, 0
4, 15024, Note_on_c, 2, 57, 93
4, 15072, Note_off_c, 2, 57, 0
4, 15072, Note_on_c, 2, 57, 93
4, 15078, Note_off_c, 2, 57, 0
4, 15078, Note_on_c, 2, 55, 93
4, 15090, Note_off_c, 2, 55, 0
4, 15090, Note_on_c, 2, 57, 93
4, 15096, Note_off_c, 2, 57, 0
4, 15096, Note_on_c, 2, 55, 93
4, 15120, Note_off_c, 2, 55, 0
4, 15120, Note_on_c, 2, 54, 93
4, 15168, Note_off_c, 2, 54, 0
4, 15168, Note_on_c, 2, 55, 93
4, 15264, Note_off_c, 2, 55, 0
4, 15312, Note_on_c, 2, 57, 93
4, 15360, Note_off_c, 2, 57, 0
4, 15360, Note_on_c, 2, 57, 93
4, 15366, Note_off_c, 2, 57, 0
4, 15366, Note_on_c, 2, 55, 93
4, 15378, Note_off_c, 2, 55, 0
4, 15378, Note_on_c, 2, 57, 93
4, 15384, Note_off_c, 2, 57, 0
4, 15384, Note_on_c, 2, 55, 93
4, 15408, Note_off_c, 2, 55, 0
4, 15408, Note_on_c, 2, 54, 93
4, 15456, Note_off_c, 2, 54, 0
4, 15456, Note_on_c, 2, 55, 93
4, 15504, Note_off_c, 2, 55, 0
4, 15504, Note_on_c, 2, 59, 93
4, 15552, Note_off_c, 2, 59, 0
4, 15792, Note_on_c, 2, 51, 93
4, 15840, Note_off_c, 2, 51, 0
4, 15840, Note_on_c, 2, 52, 93
4, 15936, Note_off_c, 2, 52, 0
4, 16224, Note_on_c, 2, 52, 93
4, 16416, Note_off_c, 2, 52, 0
4, 16416, End_track
5, 0, Start_track
5, 0, Title_t, "Track5"
5, 0, Program_c, 3, 6
5, 0, Control_c, 3, 7, 100
5, 0, Control_c, 3, 10, 49
5, 0, Note_on_c, 3, 55, 93
5, 288, Note_off_c, 3, 55, 0
5, 288, Note_on_c, 3, 54, 93
5, 576, Note_off_c, 3, 54, 0
5, 576, Note_on_c, 3, 52, 93
5, 864, Note_off_c, 3, 52, 0
5, 864, Note_on_c, 3, 50, 93
5, 1104, Note_off_c, 3, 50, 0
5, 1104, Note_on_c, 3, 48, 93
5, 1152, Note_off_c, 3, 48, 0
5, 1152, Note_on_c, 3, 47, 93
5, 1440, Note_off_c, 3, 47, 0
5, 1440, Note_on_c, 3, 48, 93
5, 1680, Note_off_c, 3, 48, 0
5, 1680, Note_on_c, 3, 50, 93
5, 1728, Note_off_c, 3, 50, 0
5, 1728, Note_on_c, 3, 52, 93
5, 1776, Note_off_c, 3, 52, 0
5, 1776, Note_on_c, 3, 48, 93
5, 1824, Note_off_c, 3, 48, 0
5, 1824, Note_on_c, 3, 50, 93
5, 2016, Note_off_c, 3, 50, 0
5, 2016, Note_on_c, 3, 43, 93
5, 2160, Note_off_c, 3, 43, 0
5, 2160, Note_on_c, 3, 50, 93
5, 2208, Note_off_c, 3, 50, 0
5, 2208, Note_on_c, 3, 52, 93
5, 2214, Note_off_c, 3, 52, 0
5, 2214, Note_on_c, 3, 50, 93
5, 2220, Note_off_c, 3, 50, 0
5, 2220, Note_on_c, 3, 52, 93
5, 2280, Note_off_c, 3, 52, 0
5, 2280, Note_on_c, 3, 54, 93
5, 2304, Note_off_c, 3, 54, 0
5, 2304, Note_on_c, 3, 55, 93
5, 2688, Note_off_c, 3, 55, 0
5, 2688, Note_on_c, 3, 55, 93
5, 2694, Note_off_c, 3, 55, 0
5, 2694, Note_on_c, 3, 54, 93
5, 2706, Note_off_c, 3, 54, 0
5, 2706, Note_on_c, 3, 55, 93
5, 2712, Note_off_c, 3, 55, 0
5, 2712, Note_on_c, 3, 54, 93
5, 2736, Note_off_c, 3, 54, 0
5, 2736, Note_on_c, 3, 52, 93
5, 2784, Note_off_c, 3, 52, 0
5, 2784, Note_on_c, 3, 54, 93
5, 2832, Note_off_c, 3, 54, 0
5, 2832, Note_on_c, 3, 59, 93
5, 2880, Note_off_c, 3, 59, 0
5, 2880, Note_on_c, 3, 52, 93
5, 3024, Note_off_c, 3, 52, 0
5, 3024, Note_on_c, 3, 52, 93
5, 3072, Note_off_c, 3, 52, 0
5, 3072, Note_on_c, 3, 54, 93
5, 3120, Note_off_c, 3, 54, 0
5, 3120, Note_on_c, 3, 55, 93
5, 3168, Note_off_c, 3, 55, 0
5, 3168, Note_on_c, 3, 57, 93
5, 3312, Note_off_c, 3, 57, 0
5, 3312, Note_on_c, 3, 59, 93
5, 3360, Note_off_c, 3, 59, 0
5, 3360, Note_on_c, 3, 57, 93
5, 3408, Note_off_c, 3, 57, 0
5, 3408, Note_on_c, 3, 55, 93
5, 3456, Note_off_c, 3, 55, 0
5, 3456, Note_on_c, 3, 54, 93
5, 3744, Note_off_c, 3, 54, 0
5, 3744, Note_on_c, 3, 55, 93
5, 4032, Note_off_c, 3, 55, 0
5, 4032, Note_on_c, 3, 57, 93
5, 4320, Note_off_c, 3, 57, 0
5, 4320, Note_on_c, 3, 50, 93
5, 4608, Note_off_c, 3, 50, 0
5, 4608, Note_on_c, 3, 55, 93
5, 4896, Note_off_c, 3, 55, 0
5, 4896, Note_on_c, 3, 54, 93
5, 5184, Note_off_c, 3, 54, 0
5, 5184, Note_on_c, 3, 52, 93
5, 5472, Note_off_c, 3, 52, 0
5, 5472, Note_on_c, 3, 50, 93
5, 5712, Note_off_c, 3, 50, 0
5, 5712, Note_on_c, 3, 48, 93
5, 5760, Note_off_c, 3, 48, 0
5, 5760, Note_on_c, 3, 47, 93
5, 6048, Note_off_c, 3, 47, 0
5, 6048, Note_on_c, 3, 48, 93
5, 6288, Note_off_c, 3, 48, 0
5, 6288, Note_on_c, 3, 50, 93
5, 6336, Note_off_c, 3, 50, 0
5, 6336, Note_on_c, 3, 52, 93
5, 6384, Note_off_c, 3, 52, 0
5, 6384, Note_on_c, 3, 48, 93
5, 6432, Note_off_c, 3, 48, 0
5, 6432, Note_on_c, 3, 50, 93
5, 6624, Note_off_c, 3, 50, 0
5, 6624, Note_on_c, 3, 43, 93
5, 6768, Note_off_c, 3, 43, 0
5, 6768, Note_on_c, 3, 50, 93
5, 6816, Note_off_c, 3, 50, 0
5, 6816, Note_on_c, 3, 52, 93
5, 6822, Note_off_c, 3, 52, 0
5, 6822, Note_on_c, 3, 50, 93
5, 6828, Note_off_c, 3, 50, 0
5, 6828, Note_on_c, 3, 52, 93
5, 6888, Note_off_c, 3, 52, 0
5, 6888, Note_on_c, 3, 54, 93
5, 6912, Note_off_c, 3, 54, 0
5, 6912, Note_on_c, 3, 55, 93
5, 7296, Note_off_c, 3, 55, 0
5, 7296, Note_on_c, 3, 55, 93
5, 7302, Note_off_c, 3, 55, 0
5, 7302, Note_on_c, 3, 54, 93
5, 7314, Note_off_c, 3, 54, 0
5, 7314, Note_on_c, 3, 55, 93
5, 7320, Note_off_c, 3, 55, 0
5, 7320, Note_on_c, 3, 54, 93
5, 7344, Note_off_c, 3, 54, 0
5, 7344, Note_on_c, 3, 52, 93
5, 7392, Note_off_c, 3, 52, 0
5, 7392, Note_on_c, 3, 54, 93
5, 7440, Note_off_c, 3, 54, 0
5, 7440, Note_on_c, 3, 59, 93
5, 7488, Note_off_c, 3, 59, 0
5, 7488, Note_on_c, 3, 52, 93
5, 7632, Note_off_c, 3, 52, 0
5, 7632, Note_on_c, 3, 52, 93
5, 7680, Note_off_c, 3, 52, 0
5, 7680, Note_on_c, 3, 54, 93
5, 7728, Note_off_c, 3, 54, 0
5, 7728, Note_on_c, 3, 55, 93
5, 7776, Note_off_c, 3, 55, 0
5, 7776, Note_on_c, 3, 57, 93
5, 7920, Note_off_c, 3, 57, 0
5, 7920, Note_on_c, 3, 59, 93
5, 7968, Note_off_c, 3, 59, 0
5, 7968, Note_on_c, 3, 57, 93
5, 8016, Note_off_c, 3, 57, 0
5, 8016, Note_on_c, 3, 55, 93
5, 8064, Note_off_c, 3, 55, 0
5, 8064, Note_on_c, 3, 54, 93
5, 8352, Note_off_c, 3, 54, 0
5, 8352, Note_on_c, 3, 55, 93
5, 8640, Note_off_c, 3, 55, 0
5, 8640, Note_on_c, 3, 57, 93
5, 8928, Note_off_c, 3, 57, 0
5, 8928, Note_on_c, 3, 50, 93
5, 9216, Note_off_c, 3, 50, 0
5, 10944, Note_on_c, 3, 66, 93
5, 11088, Note_off_c, 3, 66, 0
5, 11088, Note_on_c, 3, 72, 93
5, 11136, Note_off_c, 3, 72, 0
5, 11136, Note_on_c, 3, 71, 93
5, 11184, Note_off_c, 3, 71, 0
5, 11184, Note_on_c, 3, 69, 93
5, 11328, Note_off_c, 3, 69, 0
5, 11328, Note_on_c, 3, 67, 93
5, 11520, Note_off_c, 3, 67, 0
5, 11712, Note_on_c, 3, 57, 93
5, 11856, Note_off_c, 3, 57, 0
5, 11856, Note_on_c, 3, 54, 93
5, 11904, Note_off_c, 3, 54, 0
5, 11904, Note_on_c, 3, 52, 93
5, 11928, Note_off_c, 3, 52, 0
5, 11928, Note_on_c, 3, 50, 93
5, 11952, Note_off_c, 3, 50, 0
5, 11952, Note_on_c, 3, 52, 93
5, 11976, Note_off_c, 3, 52, 0
5, 11976, Note_on_c, 3, 54, 93
5, 12000, Note_off_c, 3, 54, 0
5, 12000, Note_on_c, 3, 55, 93
5, 12024, Note_off_c, 3, 55, 0
5, 12024, Note_on_c, 3, 54, 93
5, 12048, Note_off_c, 3, 54, 0
5, 12048, Note_on_c, 3, 55, 93
5, 12144, Note_off_c, 3, 55, 0
5, 12144, Note_on_c, 3, 52, 93
5, 12192, Note_off_c, 3, 52, 0
5, 12192, Note_on_c, 3, 57, 93
5, 12240, Note_off_c, 3, 57, 0
5, 12240, Note_on_c, 3, 64, 93
5, 12312, Note_off_c, 3, 64, 0
5, 12312, Note_on_c, 3, 71, 93
5, 12336, Note_off_c, 3, 71, 0
5, 12336, Note_on_c, 3, 69, 93
5, 12360, Note_off_c, 3, 69, 0
5, 12360, Note_on_c, 3, 67, 93
5, 12384, Note_off_c, 3, 67, 0
5, 12384, Note_on_c, 3, 66, 93
5, 12480, Note_off_c, 3, 66, 0
5, 12528, Note_on_c, 3, 66, 93
5, 12672, Note_off_c, 3, 66, 0
5, 12672, Note_on_c, 3, 67, 93
5, 12720, Note_off_c, 3, 67, 0
5, 12816, Note_on_c, 3, 62, 93
5, 12888, Note_off_c, 3, 62, 0
5, 12888, Note_on_c, 3, 67, 93
5, 13056, Note_off_c, 3, 67, 0
5, 13104, Note_on_c, 3, 67, 93
5, 13176, Note_off_c, 3, 67, 0
5, 13176, Note_on_c, 3, 72, 93
5, 13248, Note_off_c, 3, 72, 0
5, 13560, Note_on_c, 3, 60, 93
5, 13584, Note_off_c, 3, 60, 0
5, 13584, Note_on_c, 3, 59, 93
5, 13608, Note_off_c, 3, 59, 0
5, 13608, Note_on_c, 3, 57, 93
5, 13632, Note_off_c, 3, 57, 0
5, 13632, Note_on_c, 3, 59, 93
5, 13824, Note_off_c, 3, 59, 0
5, 15552, Note_on_c, 3, 66, 93
5, 15696, Note_off_c, 3, 66, 0
5, 15696, Note_on_c, 3, 72, 93
5, 15744, Note_off_c, 3, 72, 0
5, 15744, Note_on_c, 3, 71, 93
5, 15792, Note_off_c, 3, 71, 0
5, 15792, Note_on_c, 3, 69, 93
5, 15936, Note_off_c, 3, 69, 0
5, 15936, Note_on_c, 3, 67, 93
5, 16128, Note_off_c, 3, 67, 0
5, 16320, Note_on_c, 3, 57, 93
5, 16464, Note_off_c, 3, 57, 0
5, 16464, Note_on_c, 3, 54, 93
5, 16512, Note_off_c, 3, 54, 0
5, 16512, Note_on_c, 3, 52, 93
5, 16536, Note_off_c, 3, 52, 0
5, 16536, Note_on_c, 3, 50, 93
5, 16560, Note_off_c, 3, 50, 0
5, 16560, Note_on_c, 3, 52, 93
5, 16584, Note_off_c, 3, 52, 0
5, 16584, Note_on_c, 3, 54, 93
5, 16608, Note_off_c, 3, 54, 0
5, 16608, Note_on_c, 3, 55, 93
5, 16632, Note_off_c, 3, 55, 0
5, 16632, Note_on_c, 3, 54, 93
5, 16656, Note_off_c, 3, 54, 0
5, 16656, Note_on_c, 3, 55, 93
5, 16752, Note_off_c, 3, 55, 0
5, 16752, Note_on_c, 3, 52, 93
5, 16800, Note_off_c, 3, 52, 0
5, 16800, Note_on_c, 3, 57, 93
5, 16848, Note_off_c, 3, 57, 0
5, 16848, Note_on_c, 3, 64, 93
5, 16920, Note_off_c, 3, 64, 0
5, 16920, Note_on_c, 3, 71, 93
5, 16944, Note_off_c, 3, 71, 0
5, 16944, Note_on_c, 3, 69, 93
5, 16968, Note_off_c, 3, 69, 0
5, 16968, Note_on_c, 3, 67, 93
5, 16992, Note_off_c, 3, 67, 0
5, 16992, Note_on_c, 3, 66, 93
5, 17088, Note_off_c, 3, 66, 0
5, 17136, Note_on_c, 3, 66, 93
5, 17280, Note_off_c, 3, 66, 0
5, 17280, Note_on_c, 3, 67, 93
5, 17328, Note_off_c, 3, 67, 0
5, 17424, Note_on_c, 3, 62, 93
5, 17496, Note_off_c, 3, 62, 0
5, 17496, Note_on_c, 3, 67, 93
5, 17664, Note_off_c, 3, 67, 0
5, 17712, Note_on_c, 3, 67, 93
5, 17784, Note_off_c, 3, 67, 0
5, 17784, Note_on_c, 3, 72, 93
5, 17856, Note_off_c, 3, 72, 0
5, 18168, Note_on_c, 3, 60, 93
5, 18192, Note_off_c, 3, 60, 0
5, 18192, Note_on_c, 3, 59, 93
5, 18216, Note_off_c, 3, 59, 0
5, 18216, Note_on_c, 3, 57, 93
5, 18240, Note_off_c, 3, 57, 0
5, 18240, Note_on_c, 3, 59, 93
5, 18432, Note_off_c, 3, 59, 0
5, 18432, End_track
0, 0, End_of_file
