0, 0, Header, 1, 4, 96
1, 0, Start_track
1, 0, Time_signature, 4, 2, 24, 8
1, 0, Title_t, "untitled"
1, 0, Title_t, "Track1"
1, 0, Tempo, 600000
1, 27504, Tempo, 1200000
1, 27504, End_track
2, 0, Start_track
2, 0, Title_t, "Track2"
2, 0, Program_c, 0, 6
2, 0, Control_c, 0, 7, 100
2, 0, Control_c, 0, 10, 74
2, 0, Note_on_c, 0, 67, 93
2, 96, Note_off_c, 0, 67, 0
2, 96, Note_on_c, 0, 66, 93
2, 144, Note_off_c, 0, 66, 0
2, 144, Note_on_c, 0, 67, 93
2, 240, Note_off_c, 0, 67, 0
2, 240, Note_on_c, 0, 69, 93
2, 288, Note_off_c, 0, 69, 0
2, 288, Note_on_c, 0, 71, 93
2, 336, Note_off_c, 0, 71, 0
2, 336, Note_on_c, 0, 74, 93
2, 384, Note_off_c, 0, 74, 0
2, 384, Note_on_c, 0, 73, 93
2, 432, Note_off_c, 0, 73, 0
2, 432, Note_on_c, 0, 74, 93
2, 528, Note_off_c, 0, 74, 0
2, 528, Note_on_c, 0, 69, 93
2, 576, Note_off_c, 0, 69, 0
2, 576, Note_on_c, 0, 74, 93
2, 672, Note_off_c, 0, 74, 0
2, 672, Note_on_c, 0, 76, 93
2, 720, Note_off_c, 0, 76, 0
2, 720, Note_on_c, 0, 76, 93
2, 726, Note_off_c, 0, 76, 0
2, 726, Note_on_c, 0, 78, 93
2, 744, Note_off_c, 0, 78, 0
2, 744, Note_on_c, 0, 79, 93
2, 768, Note_off_c, 0, 79, 0
2, 768, Note_on_c, 0, 78, 93
2, 792, Note_off_c, 0, 78, 0
2, 792, Note_on_c, 0, 76, 93
2, 816, Note_off_c, 0, 76, 0
2, 816, Note_on_c, 0, 74, 93
2, 864, Note_off_c, 0, 74, 0
2, 864, Note_on_c, 0, 79, 93
2, 912, Note_off_c, 0, 79, 0
2, 912, Note_on_c, 0, 83, 93
2, 960, Note_off_c, 0, 83, 0
2, 960, Note_on_c, 0, 81, 93
2, 1008, Note_off_c, 0, 81, 0
2, 1008, Note_on_c, 0, 83, 93
2, 1056, Note_off_c, 0, 83, 0
2, 1056, Note_on_c, 0, 79, 93
2, 1104, Note_off_c, 0, 79, 0
2, 1104, Note_on_c, 0, 78, 93
2, 1152, Note_off_c, 0, 78, 0
2, 1152, Note_on_c, 0, 79, 93
2, 1344, Note_off_c, 0, 79, 0
2, 1344, Note_on_c, 0, 78, 93
2, 1392, Note_off_c, 0, 78, 0
2, 1392, Note_on_c, 0, 76, 93
2, 1440, Note_off_c, 0, 76, 0
2, 1440, Note_on_c, 0, 78, 93
2, 1488, Note_off_c, 0, 78, 0
2, 1488, Note_on_c, 0, 79, 93
2, 1536, Note_off_c, 0, 79, 0
2, 1536, Note_on_c, 0, 81, 93
2, 1584, Note_off_c, 0, 81, 0
2, 1584, Note_on_c, 0, 74, 93
2, 1776, Note_off_c, 0, 74, 0
2, 1776, Note_on_c, 0, 79, 93
2, 1824, Note_off_c, 0, 79, 0
2, 1824, Note_on_c, 0, 78, 93
2, 1872, Note_off_c, 0, 78, 0
2, 1872, Note_on_c, 0, 79, 93
2, 1920, Note_off_c, 0, 79, 0
2, 1920, Note_on_c, 0, 83, 93
2, 1968, Note_off_c, 0, 83, 0
2, 1968, Note_on_c, 0, 81, 93
2, 2016, Note_off_c, 0, 81, 0
2, 2016, Note_on_c, 0, 83, 93
2, 2064, Note_off_c, 0, 83, 0
2, 2064, Note_on_c, 0, 86, 93
2, 2088, Note_off_c, 0, 86, 0
2, 2088, Note_on_c, 0, 84, 93
2, 2112, Note_off_c, 0, 84, 0
2, 2112, Note_on_c, 0, 83, 93
2, 2136, Note_off_c, 0, 83, 0
2, 2136, Note_on_c, 0, 81, 93
2, 2160, Note_off_c, 0, 81, 0
2, 2160, Note_on_c, 0, 83, 93
2, 2208, Note_off_c, 0, 83, 0
2, 2208, Note_on_c, 0, 84, 93
2, 2232, Note_off_c, 0, 84, 0
2, 2232, Note_on_c, 0, 83, 93
2, 2256, Note_off_c, 0, 83, 0
2, 2256, Note_on_c, 0, 81, 93
2, 2280, Note_off_c, 0, 81, 0
2, 2280, Note_on_c, 0, 79, 93
2, 2304, Note_off_c, 0, 79, 0
2, 2304, Note_on_c, 0, 81, 93
2, 2352, Note_off_c, 0, 81, 0
2, 2352, Note_on_c, 0, 83, 93
2, 2376, Note_off_c, 0, 83, 0
2, 2376, Note_on_c, 0, 81, 93
2, 2400, Note_off_c, 0, 81, 0
2, 2400, Note_on_c, 0, 79, 93
2, 2424, Note_off_c, 0, 79, 0
2, 2424, Note_on_c, 0, 78, 93
2, 2448, Note_off_c, 0, 78, 0
2, 2448, Note_on_c, 0, 79, 93
2, 2496, Note_off_c, 0, 79, 0
2, 2496, Note_on_c, 0, 81, 93
2, 2520, Note_off_c, 0, 81, 0
2, 2520, Note_on_c, 0, 79, 93
2, 2544, Note_off_c, 0, 79, 0
2, 2544, Note_on_c, 0, 78, 93
2, 2568, Note_off_c, 0, 78, 0
2, 2568, Note_on_c, 0, 76, 93
2, 2592, Note_off_c, 0, 76, 0
2, 2592, Note_on_c, 0, 74, 93
2, 2640, Note_off_c, 0, 74, 0
2, 2736, Note_on_c, 0, 79, 93
2, 2784, Note_off_c, 0, 79, 0
2, 2880, Note_on_c, 0, 78, 93
2, 2928, Note_off_c, 0, 78, 0
2, 3024, Note_on_c, 0, 79, 93
2, 3072, Note_off_c, 0, 79, 0
2, 3168, Note_on_c, 0, 72, 93
2, 3216, Note_off_c, 0, 72, 0
2, 3312, Note_on_c, 0, 71, 93
2, 3360, Note_off_c, 0, 71, 0
2, 4368, Note_on_c, 0, 83, 93
2, 4416, Note_off_c, 0, 83, 0
2, 4416, Note_on_c, 0, 81, 93
2, 4464, Note_off_c, 0, 81, 0
2, 4464, Note_on_c, 0, 79, 93
2, 4512, Note_off_c, 0, 79, 0
2, 4512, Note_on_c, 0, 81, 93
2, 4560, Note_off_c, 0, 81, 0
2, 4560, Note_on_c, 0, 78, 93
2, 4608, Note_off_c, 0, 78, 0
2, 4608, Note_on_c, 0, 76, 93
2, 4632, Note_off_c, 0, 76, 0
2, 4632, Note_on_c, 0, 74, 93
2, 4656, Note_off_c, 0, 74, 0
2, 4656, Note_on_c, 0, 73, 93
2, 4704, Note_off_c, 0, 73, 0
2, 4704, Note_on_c, 0, 74, 93
2, 4752, Note_off_c, 0, 74, 0
2, 4752, Note_on_c, 0, 74, 93
2, 4776, Note_off_c, 0, 74, 0
2, 4776, Note_on_c, 0, 73, 93
2, 4944, Note_off_c, 0, 73, 0
2, 4944, Note_on_c, 0, 74, 93
2, 4992, Note_off_c, 0, 74, 0
2, 4992, Note_on_c, 0, 76, 93
2, 5040, Note_off_c, 0, 76, 0
2, 5040, Note_on_c, 0, 69, 93
2, 5088, Note_off_c, 0, 69, 0
2, 5088, Note_on_c, 0, 71, 93
2, 5136, Note_off_c, 0, 71, 0
2, 5136, Note_on_c, 0, 73, 93
2, 5184, Note_off_c, 0, 73, 0
2, 5184, Note_on_c, 0, 74, 93
2, 5280, Note_off_c, 0, 74, 0
2, 5280, Note_on_c, 0, 78, 93
2, 5328, Note_off_c, 0, 78, 0
2, 5328, Note_on_c, 0, 79, 93
2, 5424, Note_off_c, 0, 79, 0
2, 5424, Note_on_c, 0, 81, 93
2, 5472, Note_off_c, 0, 81, 0
2, 5472, Note_on_c, 0, 71, 93
2, 5664, Note_off_c, 0, 71, 0
2, 5664, Note_on_c, 0, 69, 93
2, 5712, Note_off_c, 0, 69, 0
2, 5712, Note_on_c, 0, 67, 93
2, 5760, Note_off_c, 0, 67, 0
2, 5760, Note_on_c, 0, 69, 93
2, 6096, Note_off_c, 0, 69, 0
2, 6096, Note_on_c, 0, 74, 93
2, 6144, Note_off_c, 0, 74, 0
2, 6144, Note_on_c, 0, 73, 93
2, 6192, Note_off_c, 0, 73, 0
2, 6192, Note_on_c, 0, 74, 93
2, 6216, Note_off_c, 0, 74, 0
2, 6216, Note_on_c, 0, 76, 93
2, 6240, Note_off_c, 0, 76, 0
2, 6240, Note_on_c, 0, 78, 93
2, 6288, Note_off_c, 0, 78, 0
2, 6288, Note_on_c, 0, 76, 93
2, 6336, Note_off_c, 0, 76, 0
2, 6336, Note_on_c, 0, 78, 93
2, 6384, Note_off_c, 0, 78, 0
2, 6384, Note_on_c, 0, 81, 93
2, 6408, Note_off_c, 0, 81, 0
2, 6408, Note_on_c, 0, 79, 93
2, 6432, Note_off_c, 0, 79, 0
2, 6432, Note_on_c, 0, 78, 93
2, 6456, Note_off_c, 0, 78, 0
2, 6456, Note_on_c, 0, 76, 93
2, 6480, Note_off_c, 0, 76, 0
2, 6480, Note_on_c, 0, 78, 93
2, 6528, Note_off_c, 0, 78, 0
2, 6528, Note_on_c, 0, 79, 93
2, 6552, Note_off_c, 0, 79, 0
2, 6552, Note_on_c, 0, 78, 93
2, 6576, Note_off_c, 0, 78, 0
2, 6576, Note_on_c, 0, 76, 93
2, 6600, Note_off_c, 0, 76, 0
2, 6600, Note_on_c, 0, 74, 93
2, 6624, Note_off_c, 0, 74, 0
2, 6624, Note_on_c, 0, 76, 93
2, 6672, Note_off_c, 0, 76, 0
2, 6672, Note_on_c, 0, 78, 93
2, 6696, Note_off_c, 0, 78, 0
2, 6696, Note_on_c, 0, 76, 93
2, 6720, Note_off_c, 0, 76, 0
2, 6720, Note_on_c, 0, 74, 93
2, 6744, Note_off_c, 0, 74, 0
2, 6744, Note_on_c, 0, 73, 93
2, 6768, Note_off_c, 0, 73, 0
2, 6768, Note_on_c, 0, 74, 93
2, 6912, Note_off_c, 0, 74, 0
2, 6912, Note_on_c, 0, 67, 93
2, 7008, Note_off_c, 0, 67, 0
2, 7008, Note_on_c, 0, 66, 93
2, 7056, Note_off_c, 0, 66, 0
2, 7056, Note_on_c, 0, 67, 93
2, 7152, Note_off_c, 0, 67, 0
2, 7152, Note_on_c, 0, 69, 93
2, 7200, Note_off_c, 0, 69, 0
2, 7200, Note_on_c, 0, 71, 93
2, 7248, Note_off_c, 0, 71, 0
2, 7248, Note_on_c, 0, 74, 93
2, 7296, Note_off_c, 0, 74, 0
2, 7296, Note_on_c, 0, 73, 93
2, 7344, Note_off_c, 0, 73, 0
2, 7344, Note_on_c, 0, 74, 93
2, 7440, Note_off_c, 0, 74, 0
2, 7440, Note_on_c, 0, 69, 93
2, 7488, Note_off_c, 0, 69, 0
2, 7488, Note_on_c, 0, 74, 93
2, 7584, Note_off_c, 0, 74, 0
2, 7584, Note_on_c, 0, 76, 93
2, 7632, Note_off_c, 0, 76, 0
2, 7632, Note_on_c, 0, 76, 93
2, 7638, Note_off_c, 0, 76, 0
2, 7638, Note_on_c, 0, 78, 93
2, 7656, Note_off_c, 0, 78, 0
2, 7656, Note_on_c, 0, 79, 93
2, 7680, Note_off_c, 0, 79, 0
2, 7680, Note_on_c, 0, 78, 93
2, 7704, Note_off_c, 0, 78, 0
2, 7704, Note_on_c, 0, 76, 93
2, 7728, Note_off_c, 0, 76, 0
2, 7728, Note_on_c, 0, 74, 93
2, 7776, Note_off_c, 0, 74, 0
2, 7776, Note_on_c, 0, 79, 93
2, 7824, Note_off_c, 0, 79, 0
2, 7824, Note_on_c, 0, 83, 93
2, 7872, Note_off_c, 0, 83, 0
2, 7872, Note_on_c, 0, 81, 93
2, 7920, Note_off_c, 0, 81, 0
2, 7920, Note_on_c, 0, 83, 93
2, 7968, Note_off_c, 0, 83, 0
2, 7968, Note_on_c, 0, 79, 93
2, 8016, Note_off_c, 0, 79, 0
2, 8016, Note_on_c, 0, 78, 93
2, 8064, Note_off_c, 0, 78, 0
2, 8064, Note_on_c, 0, 79, 93
2, 8256, Note_off_c, 0, 79, 0
2, 8256, Note_on_c, 0, 78, 93
2, 8304, Note_off_c, 0, 78, 0
2, 8304, Note_on_c, 0, 76, 93
2, 8352, Note_off_c, 0, 76, 0
2, 8352, Note_on_c, 0, 78, 93
2, 8400, Note_off_c, 0, 78, 0
2, 8400, Note_on_c, 0, 79, 93
2, 8448, Note_off_c, 0, 79, 0
2, 8448, Note_on_c, 0, 81, 93
2, 8496, Note_off_c, 0, 81, 0
2, 8496, Note_on_c, 0, 74, 93
2, 8688, Note_off_c, 0, 74, 0
2, 8688, Note_on_c, 0, 79, 93
2, 8736, Note_off_c, 0, 79, 0
2, 8736, Note_on_c, 0, 78, 93
2, 8784, Note_off_c, 0, 78, 0
2, 8784, Note_on_c, 0, 79, 93
2, 8832, Note_off_c, 0, 79, 0
2, 8832, Note_on_c, 0, 83, 93
2, 8880, Note_off_c, 0, 83, 0
2, 8880, Note_on_c, 0, 81, 93
2, 8928, Note_off_c, 0, 81, 0
2, 8928, Note_on_c, 0, 83, 93
2, 8976, Note_off_c, 0, 83, 0
2, 8976, Note_on_c, 0, 86, 93
2, 9000, Note_off_c, 0, 86, 0
2, 9000, Note_on_c, 0, 84, 93
2, 9024, Note_off_c, 0, 84, 0
2, 9024, Note_on_c, 0, 83, 93
2, 9048, Note_off_c, 0, 83, 0
2, 9048, Note_on_c, 0, 81, 93
2, 9072, Note_off_c, 0, 81, 0
2, 9072, Note_on_c, 0, 83, 93
2, 9120, Note_off_c, 0, 83, 0
2, 9120, Note_on_c, 0, 84, 93
2, 9144, Note_off_c, 0, 84, 0
2, 9144, Note_on_c, 0, 83, 93
2, 9168, Note_off_c, 0, 83, 0
2, 9168, Note_on_c, 0, 81, 93
2, 9192, Note_off_c, 0, 81, 0
2, 9192, Note_on_c, 0, 79, 93
2, 9216, Note_off_c, 0, 79, 0
2, 9216, Note_on_c, 0, 81, 93
2, 9264, Note_off_c, 0, 81, 0
2, 9264, Note_on_c, 0, 83, 93
2, 9288, Note_off_c, 0, 83, 0
2, 9288, Note_on_c, 0, 81, 93
2, 9312, Note_off_c, 0, 81, 0
2, 9312, Note_on_c, 0, 79, 93
2, 9336, Note_off_c, 0, 79, 0
2, 9336, Note_on_c, 0, 78, 93
2, 9360, Note_off_c, 0, 78, 0
2, 9360, Note_on_c, 0, 79, 93
2, 9408, Note_off_c, 0, 79, 0
2, 9408, Note_on_c, 0, 81, 93
2, 9432, Note_off_c, 0, 81, 0
2, 9432, Note_on_c, 0, 79, 93
2, 9456, Note_off_c, 0, 79, 0
2, 9456, Note_on_c, 0, 78, 93
2, 9480, Note_off_c, 0, 78, 0
2, 9480, Note_on_c, 0, 76, 93
2, 9504, Note_off_c, 0, 76, 0
2, 9504, Note_on_c, 0, 74, 93
2, 9552, Note_off_c, 0, 74, 0
2, 9648, Note_on_c, 0, 79, 93
2, 9696, Note_off_c, 0, 79, 0
2, 9792, Note_on_c, 0, 78, 93
2, 9840, Note_off_c, 0, 78, 0
2, 9936, Note_on_c, 0, 79, 93
2, 9984, Note_off_c, 0, 79, 0
2, 10080, Note_on_c, 0, 72, 93
2, 10128, Note_off_c, 0, 72, 0
2, 10224, Note_on_c, 0, 71, 93
2, 10272, Note_off_c, 0, 71, 0
2, 11280, Note_on_c, 0, 83, 93
2, 11328, Note_off_c, 0, 83, 0
2, 11328, Note_on_c, 0, 81, 93
2, 11376, Note_off_c, 0, 81, 0
2, 11376, Note_on_c, 0, 79, 93
2, 11424, Note_off_c, 0, 79, 0
2, 11424, Note_on_c, 0, 81, 93
2, 11472, Note_off_c, 0, 81, 0
2, 11472, Note_on_c, 0, 78, 93
2, 11520, Note_off_c, 0, 78, 0
2, 11520, Note_on_c, 0, 76, 93
2, 11544, Note_off_c, 0, 76, 0
2, 11544, Note_on_c, 0, 74, 93
2, 11568, Note_off_c, 0, 74, 0
2, 11568, Note_on_c, 0, 73, 93
2, 11616, Note_off_c, 0, 73, 0
2, 11616, Note_on_c, 0, 74, 93
2, 11664, Note_off_c, 0, 74, 0
2, 11664, Note_on_c, 0, 74, 93
2, 11688, Note_off_c, 0, 74, 0
2, 11688, Note_on_c, 0, 73, 93
2, 11856, Note_off_c, 0, 73, 0
2, 11856, Note_on_c, 0, 74, 93
2, 11904, Note_off_c, 0, 74, 0
2, 11904, Note_on_c, 0, 76, 93
2, 11952, Note_off_c, 0, 76, 0
2, 11952, Note_on_c, 0, 69, 93
2, 12000, Note_off_c, 0, 69, 0
2, 12000, Note_on_c, 0, 71, 93
2, 12048, Note_off_c, 0, 71, 0
2, 12048, Note_on_c, 0, 73, 93
2, 12096, Note_off_c, 0, 73, 0
2, 12096, Note_on_c, 0, 74, 93
2, 12192, Note_off_c, 0, 74, 0
2, 12192, Note_on_c, 0, 78, 93
2, 12240, Note_off_c, 0, 78, 0
2, 12240, Note_on_c, 0, 79, 93
2, 12336, Note_off_c, 0, 79, 0
2, 12336, Note_on_c, 0, 81, 93
2, 12384, Note_off_c, 0, 81, 0
2, 12384, Note_on_c, 0, 71, 93
2, 12576, Note_off_c, 0, 71, 0
2, 12576, Note_on_c, 0, 69, 93
2, 12624, Note_off_c, 0, 69, 0
2, 12624, Note_on_c, 0, 67, 93
2, 12672, Note_off_c, 0, 67, 0
2, 12672, Note_on_c, 0, 69, 93
2, 13008, Note_off_c, 0, 69, 0
2, 13008, Note_on_c, 0, 74, 93
2, 13056, Note_off_c, 0, 74, 0
2, 13056, Note_on_c, 0, 73, 93
2, 13104, Note_off_c, 0, 73, 0
2, 13104, Note_on_c, 0, 74, 93
2, 13128, Note_off_c, 0, 74, 0
2, 13128, Note_on_c, 0, 76, 93
2, 13152, Note_off_c, 0, 76, 0
2, 13152, Note_on_c, 0, 78, 93
2, 13200, Note_off_c, 0, 78, 0
2, 13200, Note_on_c, 0, 76, 93
2, 13248, Note_off_c, 0, 76, 0
2, 13248, Note_on_c, 0, 78, 93
2, 13296, Note_off_c, 0, 78, 0
2, 13296, Note_on_c, 0, 81, 93
2, 13320, Note_off_c, 0, 81, 0
2, 13320, Note_on_c, 0, 79, 93
2, 13344, Note_off_c, 0, 79, 0
2, 13344, Note_on_c, 0, 78, 93
2, 13368, Note_off_c, 0, 78, 0
2, 13368, Note_on_c, 0, 76, 93
2, 13392, Note_off_c, 0, 76, 0
2, 13392, Note_on_c, 0, 78, 93
2, 13440, Note_off_c, 0, 78, 0
2, 13440, Note_on_c, 0, 79, 93
2, 13464, Note_off_c, 0, 79, 0
2, 13464, Note_on_c, 0, 78, 93
2, 13488, Note_off_c, 0, 78, 0
2, 13488, Note_on_c, 0, 76, 93
2, 13512, Note_off_c, 0, 76, 0
2, 13512, Note_on_c, 0, 74, 93
2, 13536, Note_off_c, 0, 74, 0
2, 13536, Note_on_c, 0, 76, 93
2, 13584, Note_off_c, 0, 76, 0
2, 13584, Note_on_c, 0, 78, 93
2, 13608, Note_off_c, 0, 78, 0
2, 13608, Note_on_c, 0, 76, 93
2, 13632, Note_off_c, 0, 76, 0
2, 13632, Note_on_c, 0, 74, 93
2, 13656, Note_off_c, 0, 74, 0
2, 13656, Note_on_c, 0, 73, 93
2, 13680, Note_off_c, 0, 73, 0
2, 13680, Note_on_c, 0, 74, 93
2, 13824, Note_off_c, 0, 74, 0
2, 14688, Note_on_c, 0, 83, 93
2, 14712, Note_off_c, 0, 83, 0
2, 14712, Note_on_c, 0, 81, 93
2, 14736, Note_off_c, 0, 81, 0
2, 14736, Note_on_c, 0, 79, 93
2, 14760, Note_off_c, 0, 79, 0
2, 14760, Note_on_c, 0, 81, 93
2, 14784, Note_off_c, 0, 81, 0
2, 14784, Note_on_c, 0, 83, 93
2, 14796, Note_off_c, 0, 83, 0
2, 14796, Note_on_c, 0, 81, 93
2, 14808, Note_off_c, 0, 81, 0
2, 14808, Note_on_c, 0, 83, 93
2, 14820, Note_off_c, 0, 83, 0
2, 14820, Note_on_c, 0, 81, 93
2, 14832, Note_off_c, 0, 81, 0
2, 14832, Note_on_c, 0, 83, 93
2, 14844, Note_off_c, 0, 83, 0
2, 14844, Note_on_c, 0, 81, 93
2, 14856, Note_off_c, 0, 81, 0
2, 14856, Note_on_c, 0, 83, 93
2, 14868, Note_off_c, 0, 83, 0
2, 14868, Note_on_c, 0, 81, 93
2, 14880, Note_off_c, 0, 81, 0
2, 14880, Note_on_c, 0, 83, 93
2, 14892, Note_off_c, 0, 83, 0
2, 14892, Note_on_c, 0, 81, 93
2, 14904, Note_off_c, 0, 81, 0
2, 14904, Note_on_c, 0, 83, 93
2, 14916, Note_off_c, 0, 83, 0
2, 14916, Note_on_c, 0, 81, 93
2, 14928, Note_off_c, 0, 81, 0
2, 14928, Note_on_c, 0, 83, 93
2, 14940, Note_off_c, 0, 83, 0
2, 14940, Note_on_c, 0, 81, 93
2, 14952, Note_off_c, 0, 81, 0
2, 14952, Note_on_c, 0, 83, 93
2, 14964, Note_off_c, 0, 83, 0
2, 14964, Note_on_c, 0, 81, 93
2, 14976, Note_off_c, 0, 81, 0
2, 14976, Note_on_c, 0, 83, 93
2, 14988, Note_off_c, 0, 83, 0
2, 14988, Note_on_c, 0, 81, 93
2, 15000, Note_off_c, 0, 81, 0
2, 15000, Note_on_c, 0, 83, 93
2, 15012, Note_off_c, 0, 83, 0
2, 15012, Note_on_c, 0, 81, 93
2, 15024, Note_off_c, 0, 81, 0
2, 15024, Note_on_c, 0, 83, 93
2, 15036, Note_off_c, 0, 83, 0
2, 15036, Note_on_c, 0, 81, 93
2, 15048, Note_off_c, 0, 81, 0
2, 15048, Note_on_c, 0, 83, 93
2, 15060, Note_off_c, 0, 83, 0
2, 15060, Note_on_c, 0, 81, 93
2, 15072, Note_off_c, 0, 81, 0
2, 15072, Note_on_c, 0, 83, 93
2, 15084, Note_off_c, 0, 83, 0
2, 15084, Note_on_c, 0, 81, 93
2, 15096, Note_off_c, 0, 81, 0
2, 15096, Note_on_c, 0, 83, 93
2, 15108, Note_off_c, 0, 83, 0
2, 15108, Note_on_c, 0, 81, 93
2, 15120, Note_off_c, 0, 81, 0
2, 15120, Note_on_c, 0, 83, 93
2, 15144, Note_off_c, 0, 83, 0
2, 15144, Note_on_c, 0, 81, 93
2, 15168, Note_off_c, 0, 81, 0
2, 15168, Note_on_c, 0, 79, 93
2, 15216, Note_off_c, 0, 79, 0
2, 15216, Note_on_c, 0, 78, 93
2, 15264, Note_off_c, 0, 78, 0
2, 15264, Note_on_c, 0, 79, 93
2, 15312, Note_off_c, 0, 79, 0
2, 15312, Note_on_c, 0, 83, 93
2, 15360, Note_off_c, 0, 83, 0
2, 15360, Note_on_c, 0, 81, 93
2, 15408, Note_off_c, 0, 81, 0
2, 15408, Note_on_c, 0, 83, 93
2, 15504, Note_off_c, 0, 83, 0
2, 15504, Note_on_c, 0, 75, 93
2, 15552, Note_off_c, 0, 75, 0
2, 15552, Note_on_c, 0, 76, 93
2, 15600, Note_off_c, 0, 76, 0
2, 15600, Note_on_c, 0, 79, 93
2, 15624, Note_off_c, 0, 79, 0
2, 15624, Note_on_c, 0, 78, 93
2, 15648, Note_off_c, 0, 78, 0
2, 15648, Note_on_c, 0, 76, 93
2, 15672, Note_off_c, 0, 76, 0
2, 15672, Note_on_c, 0, 74, 93
2, 15696, Note_off_c, 0, 74, 0
2, 15696, Note_on_c, 0, 72, 93
2, 15744, Note_off_c, 0, 72, 0
2, 15744, Note_on_c, 0, 76, 93
2, 15768, Note_off_c, 0, 76, 0
2, 15768, Note_on_c, 0, 74, 93
2, 15792, Note_off_c, 0, 74, 0
2, 15792, Note_on_c, 0, 72, 93
2, 15816, Note_off_c, 0, 72, 0
2, 15816, Note_on_c, 0, 71, 93
2, 15840, Note_off_c, 0, 71, 0
2, 15840, Note_on_c, 0, 69, 93
2, 15888, Note_off_c, 0, 69, 0
2, 15888, Note_on_c, 0, 72, 93
2, 15912, Note_off_c, 0, 72, 0
2, 15912, Note_on_c, 0, 71, 93
2, 15936, Note_off_c, 0, 71, 0
2, 15936, Note_on_c, 0, 69, 93
2, 15960, Note_off_c, 0, 69, 0
2, 15960, Note_on_c, 0, 67, 93
2, 15984, Note_off_c, 0, 67, 0
2, 15984, Note_on_c, 0, 66, 93
2, 16080, Note_off_c, 0, 66, 0
2, 16080, Note_on_c, 0, 76, 93
2, 16128, Note_off_c, 0, 76, 0
2, 16128, Note_on_c, 0, 75, 93
2, 16176, Note_off_c, 0, 75, 0
2, 16176, Note_on_c, 0, 78, 93
2, 16188, Note_off_c, 0, 78, 0
2, 16188, Note_on_c, 0, 76, 93
2, 16200, Note_off_c, 0, 76, 0
2, 16200, Note_on_c, 0, 75, 93
2, 16212, Note_off_c, 0, 75, 0
2, 16212, Note_on_c, 0, 76, 93
2, 16224, Note_off_c, 0, 76, 0
2, 16224, Note_on_c, 0, 78, 93
2, 16272, Note_off_c, 0, 78, 0
2, 16272, Note_on_c, 0, 71, 93
2, 16464, Note_off_c, 0, 71, 0
2, 16464, Note_on_c, 0, 75, 93
2, 16512, Note_off_c, 0, 75, 0
2, 16512, Note_on_c, 0, 76, 93
2, 16584, Note_off_c, 0, 76, 0
2, 16584, Note_on_c, 0, 74, 93
2, 16608, Note_off_c, 0, 74, 0
2, 16608, Note_on_c, 0, 72, 93
2, 16632, Note_off_c, 0, 72, 0
2, 16632, Note_on_c, 0, 71, 93
2, 16656, Note_off_c, 0, 71, 0
2, 16656, Note_on_c, 0, 72, 93
2, 16728, Note_off_c, 0, 72, 0
2, 16728, Note_on_c, 0, 71, 93
2, 16752, Note_off_c, 0, 71, 0
2, 16752, Note_on_c, 0, 69, 93
2, 16776, Note_off_c, 0, 69, 0
2, 16776, Note_on_c, 0, 67, 93
2, 16800, Note_off_c, 0, 67, 0
2, 16800, Note_on_c, 0, 69, 93
2, 16896, Note_off_c, 0, 69, 0
2, 16896, Note_on_c, 0, 66, 93
2, 16944, Note_off_c, 0, 66, 0
2, 16944, Note_on_c, 0, 67, 93
2, 16992, Note_off_c, 0, 67, 0
2, 16992, Note_on_c, 0, 71, 93
2, 17004, Note_off_c, 0, 71, 0
2, 17004, Note_on_c, 0, 69, 93
2, 17016, Note_off_c, 0, 69, 0
2, 17016, Note_on_c, 0, 71, 93
2, 17184, Note_off_c, 0, 71, 0
2, 17184, Note_on_c, 0, 72, 93
2, 17232, Note_off_c, 0, 72, 0
2, 17232, Note_on_c, 0, 74, 93
2, 17280, Note_off_c, 0, 74, 0
2, 17280, Note_on_c, 0, 76, 93
2, 17328, Note_off_c, 0, 76, 0
2, 17328, Note_on_c, 0, 68, 93
2, 17376, Note_off_c, 0, 68, 0
2, 17376, Note_on_c, 0, 71, 93
2, 17424, Note_off_c, 0, 71, 0
2, 17424, Note_on_c, 0, 69, 93
2, 17616, Note_off_c, 0, 69, 0
2, 17616, Note_on_c, 0, 71, 93
2, 17664, Note_off_c, 0, 71, 0
2, 17664, Note_on_c, 0, 72, 93
2, 17712, Note_off_c, 0, 72, 0
2, 17712, Note_on_c, 0, 74, 93
2, 17760, Note_off_c, 0, 74, 0
2, 17760, Note_on_c, 0, 66, 93
2, 17808, Note_off_c, 0, 66, 0
2, 17808, Note_on_c, 0, 69, 93
2, 17856, Note_off_c, 0, 69, 0
2, 17856, Note_on_c, 0, 62, 93
2, 17952, Note_off_c, 0, 62, 0
2, 17952, Note_on_c, 0, 66, 93
2, 18000, Note_off_c, 0, 66, 0
2, 18000, Note_on_c, 0, 71, 93
2, 18240, Note_off_c, 0, 71, 0
2, 18240, Note_on_c, 0, 63, 93
2, 18288, Note_off_c, 0, 63, 0
2, 18288, Note_on_c, 0, 64, 93
2, 18336, Note_off_c, 0, 64, 0
2, 18336, Note_on_c, 0, 66, 93
2, 18384, Note_off_c, 0, 66, 0
2, 18384, Note_on_c, 0, 67, 93
2, 18432, Note_off_c, 0, 67, 0
2, 18432, Note_on_c, 0, 66, 93
2, 18480, Note_off_c, 0, 66, 0
2, 18480, Note_on_c, 0, 67, 93
2, 18528, Note_off_c, 0, 67, 0
2, 18528, Note_on_c, 0, 69, 93
2, 18576, Note_off_c, 0, 69, 0
2, 18576, Note_on_c, 0, 62, 93
2, 18720, Note_off_c, 0, 62, 0
2, 18720, Note_on_c, 0, 62, 93
2, 18864, Note_off_c, 0, 62, 0
2, 18864, Note_on_c, 0, 62, 93
2, 19056, Note_off_c, 0, 62, 0
2, 19056, Note_on_c, 0, 67, 93
2, 19104, Note_off_c, 0, 67, 0
2, 19104, Note_on_c, 0, 66, 93
2, 19152, Note_off_c, 0, 66, 0
2, 19152, Note_on_c, 0, 67, 93
2, 19200, Note_off_c, 0, 67, 0
2, 19200, Note_on_c, 0, 69, 93
2, 19248, Note_off_c, 0, 69, 0
2, 19248, Note_on_c, 0, 71, 93
2, 19296, Note_off_c, 0, 71, 0
2, 19296, Note_on_c, 0, 72, 93
2, 19344, Note_off_c, 0, 72, 0
2, 19344, Note_on_c, 0, 74, 93
2, 19368, Note_off_c, 0, 74, 0
2, 19368, Note_on_c, 0, 72, 93
2, 19392, Note_off_c, 0, 72, 0
2, 19392, Note_on_c, 0, 71, 93
2, 19416, Note_off_c, 0, 71, 0
2, 19416, Note_on_c, 0, 69, 93
2, 19440, Note_off_c, 0, 69, 0
2, 19440, Note_on_c, 0, 71, 93
2, 19488, Note_off_c, 0, 71, 0
2, 19488, Note_on_c, 0, 72, 93
2, 19512, Note_off_c, 0, 72, 0
2, 19512, Note_on_c, 0, 71, 93
2, 19536, Note_off_c, 0, 71, 0
2, 19536, Note_on_c, 0, 69, 93
2, 19560, Note_off_c, 0, 69, 0
2, 19560, Note_on_c, 0, 67, 93
2, 19584, Note_off_c, 0, 67, 0
2, 19584, Note_on_c, 0, 69, 93
2, 19632, Note_off_c, 0, 69, 0
2, 19632, Note_on_c, 0, 71, 93
2, 19656, Note_off_c, 0, 71, 0
2, 19656, Note_on_c, 0, 69, 93
2, 19680, Note_off_c, 0, 69, 0
2, 19680, Note_on_c, 0, 67, 93
2, 19704, Note_off_c, 0, 67, 0
2, 19704, Note_on_c, 0, 66, 93
2, 19728, Note_off_c, 0, 66, 0
2, 19728, Note_on_c, 0, 67, 93
2, 19776, Note_off_c, 0, 67, 0
2, 19776, Note_on_c, 0, 71, 93
2, 19800, Note_off_c, 0, 71, 0
2, 19800, Note_on_c, 0, 69, 93
2, 19824, Note_off_c, 0, 69, 0
2, 19824, Note_on_c, 0, 67, 93
2, 19848, Note_off_c, 0, 67, 0
2, 19848, Note_on_c, 0, 66, 93
2, 19872, Note_off_c, 0, 66, 0
2, 19872, Note_on_c, 0, 67, 93
2, 19920, Note_off_c, 0, 67, 0
2, 20016, Note_on_c, 0, 62, 93
2, 20064, Note_off_c, 0, 62, 0
2, 20160, Note_on_c, 0, 66, 93
2, 20208, Note_off_c, 0, 66, 0
2, 20304, Note_on_c, 0, 67, 93
2, 20352, Note_off_c, 0, 67, 0
2, 20448, Note_on_c, 0, 60, 93
2, 20496, Note_off_c, 0, 60, 0
2, 20592, Note_on_c, 0, 59, 93
2, 20736, Note_off_c, 0, 59, 0
2, 21600, Note_on_c, 0, 83, 93
2, 21624, Note_off_c, 0, 83, 0
2, 21624, Note_on_c, 0, 81, 93
2, 21648, Note_off_c, 0, 81, 0
2, 21648, Note_on_c, 0, 79, 93
2, 21672, Note_off_c, 0, 79, 0
2, 21672, Note_on_c, 0, 81, 93
2, 21696, Note_off_c, 0, 81, 0
2, 21696, Note_on_c, 0, 83, 93
2, 21708, Note_off_c, 0, 83, 0
2, 21708, Note_on_c, 0, 81, 93
2, 21720, Note_off_c, 0, 81, 0
2, 21720, Note_on_c, 0, 83, 93
2, 21732, Note_off_c, 0, 83, 0
2, 21732, Note_on_c, 0, 81, 93
2, 21744, Note_off_c, 0, 81, 0
2, 21744, Note_on_c, 0, 83, 93
2, 21756, Note_off_c, 0, 83, 0
2, 21756, Note_on_c, 0, 81, 93
2, 21768, Note_off_c, 0, 81, 0
2, 21768, Note_on_c, 0, 83, 93
2, 21780, Note_off_c, 0, 83, 0
2, 21780, Note_on_c, 0, 81, 93
2, 21792, Note_off_c, 0, 81, 0
2, 21792, Note_on_c, 0, 83, 93
2, 21804, Note_off_c, 0, 83, 0
2, 21804, Note_on_c, 0, 81, 93
2, 21816, Note_off_c, 0, 81, 0
2, 21816, Note_on_c, 0, 83, 93
2, 21828, Note_off_c, 0, 83, 0
2, 21828, Note_on_c, 0, 81, 93
2, 21840, Note_off_c, 0, 81, 0
2, 21840, Note_on_c, 0, 83, 93
2, 21852, Note_off_c, 0, 83, 0
2, 21852, Note_on_c, 0, 81, 93
2, 21864, Note_off_c, 0, 81, 0
2, 21864, Note_on_c, 0, 83, 93
2, 21876, Note_off_c, 0, 83, 0
2, 21876, Note_on_c, 0, 81, 93
2, 21888, Note_off_c, 0, 81, 0
2, 21888, Note_on_c, 0, 83, 93
2, 21900, Note_off_c, 0, 83, 0
2, 21900, Note_on_c, 0, 81, 93
2, 21912, Note_off_c, 0, 81, 0
2, 21912, Note_on_c, 0, 83, 93
2, 21924, Note_off_c, 0, 83, 0
2, 21924, Note_on_c, 0, 81, 93
2, 21936, Note_off_c, 0, 81, 0
2, 21936, Note_on_c, 0, 83, 93
2, 21948, Note_off_c, 0, 83, 0
2, 21948, Note_on_c, 0, 81, 93
2, 21960, Note_off_c, 0, 81, 0
2, 21960, Note_on_c, 0, 83, 93
2, 21972, Note_off_c, 0, 83, 0
2, 21972, Note_on_c, 0, 81, 93
2, 21984, Note_off_c, 0, 81, 0
2, 21984, Note_on_c, 0, 83, 93
2, 21996, Note_off_c, 0, 83, 0
2, 21996, Note_on_c, 0, 81, 93
2, 22008, Note_off_c, 0, 81, 0
2, 22008, Note_on_c, 0, 83, 93
2, 22020, Note_off_c, 0, 83, 0
2, 22020, Note_on_c, 0, 81, 93
2, 22032, Note_off_c, 0, 81, 0
2, 22032, Note_on_c, 0, 83, 93
2, 22056, Note_off_c, 0, 83, 0
2, 22056, Note_on_c, 0, 81, 93
2, 22080, Note_off_c, 0, 81, 0
2, 22080, Note_on_c, 0, 79, 93
2, 22128, Note_off_c, 0, 79, 0
2, 22128, Note_on_c, 0, 78, 93
2, 22176, Note_off_c, 0, 78, 0
2, 22176, Note_on_c, 0, 79, 93
2, 22224, Note_off_c, 0, 79, 0
2, 22224, Note_on_c, 0, 83, 93
2, 22272, Note_off_c, 0, 83, 0
2, 22272, Note_on_c, 0, 81, 93
2, 22320, Note_off_c, 0, 81, 0
2, 22320, Note_on_c, 0, 83, 93
2, 22416, Note_off_c, 0, 83, 0
2, 22416, Note_on_c, 0, 75, 93
2, 22464, Note_off_c, 0, 75, 0
2, 22464, Note_on_c, 0, 76, 93
2, 22512, Note_off_c, 0, 76, 0
2, 22512, Note_on_c, 0, 79, 93
2, 22536, Note_off_c, 0, 79, 0
2, 22536, Note_on_c, 0, 78, 93
2, 22560, Note_off_c, 0, 78, 0
2, 22560, Note_on_c, 0, 76, 93
2, 22584, Note_off_c, 0, 76, 0
2, 22584, Note_on_c, 0, 74, 93
2, 22608, Note_off_c, 0, 74, 0
2, 22608, Note_on_c, 0, 72, 93
2, 22656, Note_off_c, 0, 72, 0
2, 22656, Note_on_c, 0, 76, 93
2, 22680, Note_off_c, 0, 76, 0
2, 22680, Note_on_c, 0, 74, 93
2, 22704, Note_off_c, 0, 74, 0
2, 22704, Note_on_c, 0, 72, 93
2, 22728, Note_off_c, 0, 72, 0
2, 22728, Note_on_c, 0, 71, 93
2, 22752, Note_off_c, 0, 71, 0
2, 22752, Note_on_c, 0, 69, 93
2, 22800, Note_off_c, 0, 69, 0
2, 22800, Note_on_c, 0, 72, 93
2, 22824, Note_off_c, 0, 72, 0
2, 22824, Note_on_c, 0, 71, 93
2, 22848, Note_off_c, 0, 71, 0
2, 22848, Note_on_c, 0, 69, 93
2, 22872, Note_off_c, 0, 69, 0
2, 22872, Note_on_c, 0, 67, 93
2, 22896, Note_off_c, 0, 67, 0
2, 22896, Note_on_c, 0, 66, 93
2, 22992, Note_off_c, 0, 66, 0
2, 22992, Note_on_c, 0, 76, 93
2, 23040, Note_off_c, 0, 76, 0
2, 23040, Note_on_c, 0, 75, 93
2, 23088, Note_off_c, 0, 75, 0
2, 23088, Note_on_c, 0, 78, 93
2, 23100, Note_off_c, 0, 78, 0
2, 23100, Note_on_c, 0, 76, 93
2, 23112, Note_off_c, 0, 76, 0
2, 23112, Note_on_c, 0, 75, 93
2, 23124, Note_off_c, 0, 75, 0
2, 23124, Note_on_c, 0, 76, 93
2, 23136, Note_off_c, 0, 76, 0
2, 23136, Note_on_c, 0, 78, 93
2, 23184, Note_off_c, 0, 78, 0
2, 23184, Note_on_c, 0, 71, 93
2, 23376, Note_off_c, 0, 71, 0
2, 23376, Note_on_c, 0, 75, 93
2, 23424, Note_off_c, 0, 75, 0
2, 23424, Note_on_c, 0, 76, 93
2, 23496, Note_off_c, 0, 76, 0
2, 23496, Note_on_c, 0, 74, 93
2, 23520, Note_off_c, 0, 74, 0
2, 23520, Note_on_c, 0, 72, 93
2, 23544, Note_off_c, 0, 72, 0
2, 23544, Note_on_c, 0, 71, 93
2, 23568, Note_off_c, 0, 71, 0
2, 23568, Note_on_c, 0, 72, 93
2, 23640, Note_off_c, 0, 72, 0
2, 23640, Note_on_c, 0, 71, 93
2, 23664, Note_off_c, 0, 71, 0
2, 23664, Note_on_c, 0, 69, 93
2, 23688, Note_off_c, 0, 69, 0
2, 23688, Note_on_c, 0, 67, 93
2, 23712, Note_off_c, 0, 67, 0
2, 23712, Note_on_c, 0, 69, 93
2, 23808, Note_off_c, 0, 69, 0
2, 23808, Note_on_c, 0, 66, 93
2, 23856, Note_off_c, 0, 66, 0
2, 23856, Note_on_c, 0, 67, 93
2, 23904, Note_off_c, 0, 67, 0
2, 23904, Note_on_c, 0, 71, 93
2, 23916, Note_off_c, 0, 71, 0
2, 23916, Note_on_c, 0, 69, 93
2, 23928, Note_off_c, 0, 69, 0
2, 23928, Note_on_c, 0, 71, 93
2, 24096, Note_off_c, 0, 71, 0
2, 24096, Note_on_c, 0, 72, 93
2, 24144, Note_off_c, 0, 72, 0
2, 24144, Note_on_c, 0, 74, 93
2, 24192, Note_off_c, 0, 74, 0
2, 24192, Note_on_c, 0, 76, 93
2, 24240, Note_off_c, 0, 76, 0
2, 24240, Note_on_c, 0, 68, 93
2, 24288, Note_off_c, 0, 68, 0
2, 24288, Note_on_c, 0, 71, 93
2, 24336, Note_off_c, 0, 71, 0
2, 24336, Note_on_c, 0, 69, 93
2, 24528, Note_off_c, 0, 69, 0
2, 24528, Note_on_c, 0, 71, 93
2, 24576, Note_off_c, 0, 71, 0
2, 24576, Note_on_c, 0, 72, 93
2, 24624, Note_off_c, 0, 72, 0
2, 24624, Note_on_c, 0, 74, 93
2, 24672, Note_off_c, 0, 74, 0
2, 24672, Note_on_c, 0, 66, 93
2, 24720, Note_off_c, 0, 66, 0
2, 24720, Note_on_c, 0, 69, 93
2, 24768, Note_off_c, 0, 69, 0
2, 24768, Note_on_c, 0, 62, 93
2, 24864, Note_off_c, 0, 62, 0
2, 24864, Note_on_c, 0, 66, 93
2, 24912, Note_off_c, 0, 66, 0
2, 24912, Note_on_c, 0, 71, 93
2, 25152, Note_off_c, 0, 71, 0
2, 25152, Note_on_c, 0, 63, 93
2, 25200, Note_off_c, 0, 63, 0
2, 25200, Note_on_c, 0, 64, 93
2, 25248, Note_off_c, 0, 64, 0
2, 25248, Note_on_c, 0, 66, 93
2, 25296, Note_off_c, 0, 66, 0
2, 25296, Note_on_c, 0, 67, 93
2, 25344, Note_off_c, 0, 67, 0
2, 25344, Note_on_c, 0, 66, 93
2, 25392, Note_off_c, 0, 66, 0
2, 25392, Note_on_c, 0, 67, 93
2, 25440, Note_off_c, 0, 67, 0
2, 25440, Note_on_c, 0, 69, 93
2, 25488, Note_off_c, 0, 69, 0
2, 25488, Note_on_c, 0, 62, 93
2, 25632, Note_off_c, 0, 62, 0
2, 25632, Note_on_c, 0, 62, 93
2, 25776, Note_off_c, 0, 62, 0
2, 25776, Note_on_c, 0, 62, 93
2, 25968, Note_off_c, 0, 62, 0
2, 25968, Note_on_c, 0, 67, 93
2, 26016, Note_off_c, 0, 67, 0
2, 26016, Note_on_c, 0, 66, 93
2, 26064, Note_off_c, 0, 66, 0
2, 26064, Note_on_c, 0, 67, 93
2, 26112, Note_off_c, 0, 67, 0
2, 26112, Note_on_c, 0, 69, 93
2, 26160, Note_off_c, 0, 69, 0
2, 26160, Note_on_c, 0, 71, 93
2, 26208, Note_off_c, 0, 71, 0
2, 26208, Note_on_c, 0, 72, 93
2, 26256, Note_off_c, 0, 72, 0
2, 26256, Note_on_c, 0, 74, 93
2, 26280, Note_off_c, 0, 74, 0
2, 26280, Note_on_c, 0, 72, 93
2, 26304, Note_off_c, 0, 72, 0
2, 26304, Note_on_c, 0, 71, 93
2, 26328, Note_off_c, 0, 71, 0
2, 26328, Note_on_c, 0, 69, 93
2, 26352, Note_off_c, 0, 69, 0
2, 26352, Note_on_c, 0, 71, 93
2, 26400, Note_off_c, 0, 71, 0
2, 26400, Note_on_c, 0, 72, 93
2, 26424, Note_off_c, 0, 72, 0
2, 26424, Note_on_c, 0, 71, 93
2, 26448, Note_off_c, 0, 71, 0
2, 26448, Note_on_c, 0, 69, 93
2, 26472, Note_off_c, 0, 69, 0
2, 26472, Note_on_c, 0, 67, 93
2, 26496, Note_off_c, 0, 67, 0
2, 26496, Note_on_c, 0, 69, 93
2, 26544, Note_off_c, 0, 69, 0
2, 26544, Note_on_c, 0, 71, 93
2, 26568, Note_off_c, 0, 71, 0
2, 26568, Note_on_c, 0, 69, 93
2, 26592, Note_off_c, 0, 69, 0
2, 26592, Note_on_c, 0, 67, 93
2, 26616, Note_off_c, 0, 67, 0
2, 26616, Note_on_c, 0, 66, 93
2, 26640, Note_off_c, 0, 66, 0
2, 26640, Note_on_c, 0, 67, 93
2, 26688, Note_off_c, 0, 67, 0
2, 26688, Note_on_c, 0, 71, 93
2, 26712, Note_off_c, 0, 71, 0
2, 26712, Note_on_c, 0, 69, 93
2, 26736, Note_off_c, 0, 69, 0
2, 26736, Note_on_c, 0, 67, 93
2, 26760, Note_off_c, 0, 67, 0
2, 26760, Note_on_c, 0, 66, 93
2, 26784, Note_off_c, 0, 66, 0
2, 26784, Note_on_c, 0, 67, 93
2, 26832, Note_off_c, 0, 67, 0
2, 26928, Note_on_c, 0, 62, 93
2, 26976, Note_off_c, 0, 62, 0
2, 27072, Note_on_c, 0, 66, 93
2, 27120, Note_off_c, 0, 66, 0
2, 27216, Note_on_c, 0, 67, 93
2, 27264, Note_off_c, 0, 67, 0
2, 27360, Note_on_c, 0, 60, 93
2, 27408, Note_off_c, 0, 60, 0
2, 27504, Note_on_c, 0, 59, 93
2, 27648, Note_off_c, 0, 59, 0
2, 27648, End_track
3, 0, Start_track
3, 0, Title_t, "Track3"
3, 0, Program_c, 1, 6
3, 0, Control_c, 1, 7, 100
3, 0, Control_c, 1, 10, 64
3, 864, Note_on_c, 1, 55, 93
3, 960, Note_off_c, 1, 55, 0
3, 960, Note_on_c, 1, 54, 93
3, 1008, Note_off_c, 1, 54, 0
3, 1008, Note_on_c, 1, 55, 93
3, 1104, Note_off_c, 1, 55, 0
3, 1104, Note_on_c, 1, 57, 93
3, 1152, Note_off_c, 1, 57, 0
3, 1152, Note_on_c, 1, 59, 93
3, 1200, Note_off_c, 1, 59, 0
3, 1200, Note_on_c, 1, 62, 93
3, 1248, Note_off_c, 1, 62, 0
3, 1248, Note_on_c, 1, 61, 93
3, 1296, Note_off_c, 1, 61, 0
3, 1296, Note_on_c, 1, 62, 93
3, 1392, Note_off_c, 1, 62, 0
3, 1392, Note_on_c, 1, 57, 93
3, 1440, Note_off_c, 1, 57, 0
3, 1440, Note_on_c, 1, 62, 93
3, 1536, Note_off_c, 1, 62, 0
3, 1536, Note_on_c, 1, 64, 93
3, 1584, Note_off_c, 1, 64, 0
3, 1584, Note_on_c, 1, 64, 93
3, 1590, Note_off_c, 1, 64, 0
3, 1590, Note_on_c, 1, 66, 93
3, 1608, Note_off_c, 1, 66, 0
3, 1608, Note_on_c, 1, 67, 93
3, 1632, Note_off_c, 1, 67, 0
3, 1632, Note_on_c, 1, 66, 93
3, 1656, Note_off_c, 1, 66, 0
3, 1656, Note_on_c, 1, 64, 93
3, 1680, Note_off_c, 1, 64, 0
3, 1680, Note_on_c, 1, 62, 93
3, 1728, Note_off_c, 1, 62, 0
3, 1728, Note_on_c, 1, 67, 93
3, 1776, Note_off_c, 1, 67, 0
3, 1776, Note_on_c, 1, 71, 93
3, 1824, Note_off_c, 1, 71, 0
3, 1824, Note_on_c, 1, 69, 93
3, 1872, Note_off_c, 1, 69, 0
3, 1872, Note_on_c, 1, 71, 93
3, 1920, Note_off_c, 1, 71, 0
3, 1920, Note_on_c, 1, 67, 93
3, 1968, Note_off_c, 1, 67, 0
3, 1968, Note_on_c, 1, 66, 93
3, 2016, Note_off_c, 1, 66, 0
3, 2016, Note_on_c, 1, 67, 93
3, 2208, Note_off_c, 1, 67, 0
3, 2208, Note_on_c, 1, 66, 93
3, 2256, Note_off_c, 1, 66, 0
3, 2256, Note_on_c, 1, 64, 93
3, 2304, Note_off_c, 1, 64, 0
3, 2304, Note_on_c, 1, 66, 93
3, 2352, Note_off_c, 1, 66, 0
3, 2352, Note_on_c, 1, 67, 93
3, 2400, Note_off_c, 1, 67, 0
3, 2400, Note_on_c, 1, 69, 93
3, 2448, Note_off_c, 1, 69, 0
3, 2448, Note_on_c, 1, 62, 93
3, 2640, Note_off_c, 1, 62, 0
3, 2640, Note_on_c, 1, 67, 93
3, 2688, Note_off_c, 1, 67, 0
3, 2688, Note_on_c, 1, 66, 93
3, 2736, Note_off_c, 1, 66, 0
3, 2736, Note_on_c, 1, 67, 93
3, 2784, Note_off_c, 1, 67, 0
3, 2784, Note_on_c, 1, 71, 93
3, 2832, Note_off_c, 1, 71, 0
3, 2832, Note_on_c, 1, 69, 93
3, 2880, Note_off_c, 1, 69, 0
3, 2880, Note_on_c, 1, 71, 93
3, 2928, Note_off_c, 1, 71, 0
3, 2928, Note_on_c, 1, 74, 93
3, 2952, Note_off_c, 1, 74, 0
3, 2952, Note_on_c, 1, 72, 93
3, 2976, Note_off_c, 1, 72, 0
3, 2976, Note_on_c, 1, 71, 93
3, 3000, Note_off_c, 1, 71, 0
3, 3000, Note_on_c, 1, 69, 93
3, 3024, Note_off_c, 1, 69, 0
3, 3024, Note_on_c, 1, 71, 93
3, 3072, Note_off_c, 1, 71, 0
3, 3072, Note_on_c, 1, 72, 93
3, 3096, Note_off_c, 1, 72, 0
3, 3096, Note_on_c, 1, 71, 93
3, 3120, Note_off_c, 1, 71, 0
3, 3120, Note_on_c, 1, 69, 93
3, 3144, Note_off_c, 1, 69, 0
3, 3144, Note_on_c, 1, 67, 93
3, 3168, Note_off_c, 1, 67, 0
3, 3168, Note_on_c, 1, 69, 93
3, 3216, Note_off_c, 1, 69, 0
3, 3216, Note_on_c, 1, 71, 93
3, 3240, Note_off_c, 1, 71, 0
3, 3240, Note_on_c, 1, 69, 93
3, 3264, Note_off_c, 1, 69, 0
3, 3264, Note_on_c, 1, 67, 93
3, 3288, Note_off_c, 1, 67, 0
3, 3288, Note_on_c, 1, 66, 93
3, 3312, Note_off_c, 1, 66, 0
3, 3312, Note_on_c, 1, 67, 93
3, 3360, Note_off_c, 1, 67, 0
3, 3360, Note_on_c, 1, 69, 93
3, 3384, Note_off_c, 1, 69, 0
3, 3384, Note_on_c, 1, 67, 93
3, 3408, Note_off_c, 1, 67, 0
3, 3408, Note_on_c, 1, 66, 93
3, 3432, Note_off_c, 1, 66, 0
3, 3432, Note_on_c, 1, 64, 93
3, 3456, Note_off_c, 1, 64, 0
3, 3456, Note_on_c, 1, 62, 93
3, 3504, Note_off_c, 1, 62, 0
3, 3504, Note_on_c, 1, 71, 93
3, 3552, Note_off_c, 1, 71, 0
3, 3552, Note_on_c, 1, 69, 93
3, 3600, Note_off_c, 1, 69, 0
3, 3600, Note_on_c, 1, 67, 93
3, 3648, Note_off_c, 1, 67, 0
3, 3648, Note_on_c, 1, 69, 93
3, 3696, Note_off_c, 1, 69, 0
3, 3696, Note_on_c, 1, 66, 93
3, 3744, Note_off_c, 1, 66, 0
3, 3744, Note_on_c, 1, 64, 93
3, 3768, Note_off_c, 1, 64, 0
3, 3768, Note_on_c, 1, 62, 93
3, 3792, Note_off_c, 1, 62, 0
3, 3792, Note_on_c, 1, 61, 93
3, 3840, Note_off_c, 1, 61, 0
3, 3840, Note_on_c, 1, 62, 93
3, 3888, Note_off_c, 1, 62, 0
3, 3888, Note_on_c, 1, 62, 93
3, 3912, Note_off_c, 1, 62, 0
3, 3912, Note_on_c, 1, 61, 93
3, 4080, Note_off_c, 1, 61, 0
3, 4080, Note_on_c, 1, 62, 93
3, 4128, Note_off_c, 1, 62, 0
3, 4128, Note_on_c, 1, 64, 93
3, 4176, Note_off_c, 1, 64, 0
3, 4176, Note_on_c, 1, 57, 93
3, 4224, Note_off_c, 1, 57, 0
3, 4224, Note_on_c, 1, 59, 93
3, 4272, Note_off_c, 1, 59, 0
3, 4272, Note_on_c, 1, 61, 93
3, 4320, Note_off_c, 1, 61, 0
3, 4320, Note_on_c, 1, 62, 93
3, 4416, Note_off_c, 1, 62, 0
3, 4416, Note_on_c, 1, 66, 93
3, 4464, Note_off_c, 1, 66, 0
3, 4464, Note_on_c, 1, 67, 93
3, 4560, Note_off_c, 1, 67, 0
3, 4560, Note_on_c, 1, 69, 93
3, 4608, Note_off_c, 1, 69, 0
3, 4608, Note_on_c, 1, 59, 93
3, 4800, Note_off_c, 1, 59, 0
3, 4800, Note_on_c, 1, 57, 93
3, 4848, Note_off_c, 1, 57, 0
3, 4848, Note_on_c, 1, 56, 93
3, 4896, Note_off_c, 1, 56, 0
3, 4896, Note_on_c, 1, 57, 93
3, 5232, Note_off_c, 1, 57, 0
3, 5232, Note_on_c, 1, 62, 93
3, 5280, Note_off_c, 1, 62, 0
3, 5280, Note_on_c, 1, 61, 93
3, 5328, Note_off_c, 1, 61, 0
3, 5328, Note_on_c, 1, 62, 93
3, 5352, Note_off_c, 1, 62, 0
3, 5352, Note_on_c, 1, 64, 93
3, 5376, Note_off_c, 1, 64, 0
3, 5376, Note_on_c, 1, 66, 93
3, 5424, Note_off_c, 1, 66, 0
3, 5424, Note_on_c, 1, 64, 93
3, 5472, Note_off_c, 1, 64, 0
3, 5472, Note_on_c, 1, 66, 93
3, 5520, Note_off_c, 1, 66, 0
3, 5520, Note_on_c, 1, 69, 93
3, 5544, Note_off_c, 1, 69, 0
3, 5544, Note_on_c, 1, 67, 93
3, 5568, Note_off_c, 1, 67, 0
3, 5568, Note_on_c, 1, 66, 93
3, 5592, Note_off_c, 1, 66, 0
3, 5592, Note_on_c, 1, 64, 93
3, 5616, Note_off_c, 1, 64, 0
3, 5616, Note_on_c, 1, 66, 93
3, 5664, Note_off_c, 1, 66, 0
3, 5664, Note_on_c, 1, 67, 93
3, 5688, Note_off_c, 1, 67, 0
3, 5688, Note_on_c, 1, 66, 93
3, 5712, Note_off_c, 1, 66, 0
3, 5712, Note_on_c, 1, 64, 93
3, 5736, Note_off_c, 1, 64, 0
3, 5736, Note_on_c, 1, 62, 93
3, 5760, Note_off_c, 1, 62, 0
3, 5760, Note_on_c, 1, 64, 93
3, 5808, Note_off_c, 1, 64, 0
3, 5808, Note_on_c, 1, 66, 93
3, 5832, Note_off_c, 1, 66, 0
3, 5832, Note_on_c, 1, 64, 93
3, 5856, Note_off_c, 1, 64, 0
3, 5856, Note_on_c, 1, 62, 93
3, 5880, Note_off_c, 1, 62, 0
3, 5880, Note_on_c, 1, 61, 93
3, 5904, Note_off_c, 1, 61, 0
3, 5904, Note_on_c, 1, 62, 93
3, 5952, Note_off_c, 1, 62, 0
3, 5952, Note_on_c, 1, 64, 93
3, 5976, Note_off_c, 1, 64, 0
3, 5976, Note_on_c, 1, 62, 93
3, 6000, Note_off_c, 1, 62, 0
3, 6000, Note_on_c, 1, 61, 93
3, 6024, Note_off_c, 1, 61, 0
3, 6024, Note_on_c, 1, 59, 93
3, 6048, Note_off_c, 1, 59, 0
3, 6048, Note_on_c, 1, 57, 93
3, 6096, Note_off_c, 1, 57, 0
3, 6192, Note_on_c, 1, 62, 93
3, 6240, Note_off_c, 1, 62, 0
3, 6336, Note_on_c, 1, 61, 93
3, 6384, Note_off_c, 1, 61, 0
3, 6480, Note_on_c, 1, 62, 93
3, 6528, Note_off_c, 1, 62, 0
3, 6624, Note_on_c, 1, 67, 93
3, 6672, Note_off_c, 1, 67, 0
3, 6768, Note_on_c, 1, 66, 93
3, 6912, Note_off_c, 1, 66, 0
3, 7776, Note_on_c, 1, 55, 93
3, 7872, Note_off_c, 1, 55, 0
3, 7872, Note_on_c, 1, 54, 93
3, 7920, Note_off_c, 1, 54, 0
3, 7920, Note_on_c, 1, 55, 93
3, 8016, Note_off_c, 1, 55, 0
3, 8016, Note_on_c, 1, 57, 93
3, 8064, Note_off_c, 1, 57, 0
3, 8064, Note_on_c, 1, 59, 93
3, 8112, Note_off_c, 1, 59, 0
3, 8112, Note_on_c, 1, 62, 93
3, 8160, Note_off_c, 1, 62, 0
3, 8160, Note_on_c, 1, 61, 93
3, 8208, Note_off_c, 1, 61, 0
3, 8208, Note_on_c, 1, 62, 93
3, 8304, Note_off_c, 1, 62, 0
3, 8304, Note_on_c, 1, 57, 93
3, 8352, Note_off_c, 1, 57, 0
3, 8352, Note_on_c, 1, 62, 93
3, 8448, Note_off_c, 1, 62, 0
3, 8448, Note_on_c, 1, 64, 93
3, 8496, Note_off_c, 1, 64, 0
3, 8496, Note_on_c, 1, 64, 93
3, 8502, Note_off_c, 1, 64, 0
3, 8502, Note_on_c, 1, 66, 93
3, 8520, Note_off_c, 1, 66, 0
3, 8520, Note_on_c, 1, 67, 93
3, 8544, Note_off_c, 1, 67, 0
3, 8544, Note_on_c, 1, 66, 93
3, 8568, Note_off_c, 1, 66, 0
3, 8568, Note_on_c, 1, 64, 93
3, 8592, Note_off_c, 1, 64, 0
3, 8592, Note_on_c, 1, 62, 93
3, 8640, Note_off_c, 1, 62, 0
3, 8640, Note_on_c, 1, 67, 93
3, 8688, Note_off_c, 1, 67, 0
3, 8688, Note_on_c, 1, 71, 93
3, 8736, Note_off_c, 1, 71, 0
3, 8736, Note_on_c, 1, 69, 93
3, 8784, Note_off_c, 1, 69, 0
3, 8784, Note_on_c, 1, 71, 93
3, 8832, Note_off_c, 1, 71, 0
3, 8832, Note_on_c, 1, 67, 93
3, 8880, Note_off_c, 1, 67, 0
3, 8880, Note_on_c, 1, 66, 93
3, 8928, Note_off_c, 1, 66, 0
3, 8928, Note_on_c, 1, 67, 93
3, 9120, Note_off_c, 1, 67, 0
3, 9120, Note_on_c, 1, 66, 93
3, 9168, Note_off_c, 1, 66, 0
3, 9168, Note_on_c, 1, 64, 93
3, 9216, Note_off_c, 1, 64, 0
3, 9216, Note_on_c, 1, 66, 93
3, 9264, Note_off_c, 1, 66, 0
3, 9264, Note_on_c, 1, 67, 93
3, 9312, Note_off_c, 1, 67, 0
3, 9312, Note_on_c, 1, 69, 93
3, 9360, Note_off_c, 1, 69, 0
3, 9360, Note_on_c, 1, 62, 93
3, 9552, Note_off_c, 1, 62, 0
3, 9552, Note_on_c, 1, 67, 93
3, 9600, Note_off_c, 1, 67, 0
3, 9600, Note_on_c, 1, 66, 93
3, 9648, Note_off_c, 1, 66, 0
3, 9648, Note_on_c, 1, 67, 93
3, 9696, Note_off_c, 1, 67, 0
3, 9696, Note_on_c, 1, 71, 93
3, 9744, Note_off_c, 1, 71, 0
3, 9744, Note_on_c, 1, 69, 93
3, 9792, Note_off_c, 1, 69, 0
3, 9792, Note_on_c, 1, 71, 93
3, 9840, Note_off_c, 1, 71, 0
3, 9840, Note_on_c, 1, 74, 93
3, 9864, Note_off_c, 1, 74, 0
3, 9864, Note_on_c, 1, 72, 93
3, 9888, Note_off_c, 1, 72, 0
3, 9888, Note_on_c, 1, 71, 93
3, 9912, Note_off_c, 1, 71, 0
3, 9912, Note_on_c, 1, 69, 93
3, 9936, Note_off_c, 1, 69, 0
3, 9936, Note_on_c, 1, 71, 93
3, 9984, Note_off_c, 1, 71, 0
3, 9984, Note_on_c, 1, 72, 93
3, 10008, Note_off_c, 1, 72, 0
3, 10008, Note_on_c, 1, 71, 93
3, 10032, Note_off_c, 1, 71, 0
3, 10032, Note_on_c, 1, 69, 93
3, 10056, Note_off_c, 1, 69, 0
3, 10056, Note_on_c, 1, 67, 93
3, 10080, Note_off_c, 1, 67, 0
3, 10080, Note_on_c, 1, 69, 93
3, 10128, Note_off_c, 1, 69, 0
3, 10128, Note_on_c, 1, 71, 93
3, 10152, Note_off_c, 1, 71, 0
3, 10152, Note_on_c, 1, 69, 93
3, 10176, Note_off_c, 1, 69, 0
3, 10176, Note_on_c, 1, 67, 93
3, 10200, Note_off_c, 1, 67, 0
3, 10200, Note_on_c, 1, 66, 93
3, 10224, Note_off_c, 1, 66, 0
3, 10224, Note_on_c, 1, 67, 93
3, 10272, Note_off_c, 1, 67, 0
3, 10272, Note_on_c, 1, 69, 93
3, 10296, Note_off_c, 1, 69, 0
3, 10296, Note_on_c, 1, 67, 93
3, 10320, Note_off_c, 1, 67, 0
3, 10320, Note_on_c, 1, 66, 93
3, 10344, Note_off_c, 1, 66, 0
3, 10344, Note_on_c, 1, 64, 93
3, 10368, Note_off_c, 1, 64, 0
3, 10368, Note_on_c, 1, 62, 93
3, 10416, Note_off_c, 1, 62, 0
3, 10416, Note_on_c, 1, 71, 93
3, 10464, Note_off_c, 1, 71, 0
3, 10464, Note_on_c, 1, 69, 93
3, 10512, Note_off_c, 1, 69, 0
3, 10512, Note_on_c, 1, 67, 93
3, 10560, Note_off_c, 1, 67, 0
3, 10560, Note_on_c, 1, 69, 93
3, 10608, Note_off_c, 1, 69, 0
3, 10608, Note_on_c, 1, 66, 93
3, 10656, Note_off_c, 1, 66, 0
3, 10656, Note_on_c, 1, 64, 93
3, 10680, Note_off_c, 1, 64, 0
3, 10680, Note_on_c, 1, 62, 93
3, 10704, Note_off_c, 1, 62, 0
3, 10704, Note_on_c, 1, 61, 93
3, 10752, Note_off_c, 1, 61, 0
3, 10752, Note_on_c, 1, 62, 93
3, 10800, Note_off_c, 1, 62, 0
3, 10800, Note_on_c, 1, 62, 93
3, 10824, Note_off_c, 1, 62, 0
3, 10824, Note_on_c, 1, 61, 93
3, 10992, Note_off_c, 1, 61, 0
3, 10992, Note_on_c, 1, 62, 93
3, 11040, Note_off_c, 1, 62, 0
3, 11040, Note_on_c, 1, 64, 93
3, 11088, Note_off_c, 1, 64, 0
3, 11088, Note_on_c, 1, 57, 93
3, 11136, Note_off_c, 1, 57, 0
3, 11136, Note_on_c, 1, 59, 93
3, 11184, Note_off_c, 1, 59, 0
3, 11184, Note_on_c, 1, 61, 93
3, 11232, Note_off_c, 1, 61, 0
3, 11232, Note_on_c, 1, 62, 93
3, 11328, Note_off_c, 1, 62, 0
3, 11328, Note_on_c, 1, 66, 93
3, 11376, Note_off_c, 1, 66, 0
3, 11376, Note_on_c, 1, 67, 93
3, 11472, Note_off_c, 1, 67, 0
3, 11472, Note_on_c, 1, 69, 93
3, 11520, Note_off_c, 1, 69, 0
3, 11520, Note_on_c, 1, 59, 93
3, 11712, Note_off_c, 1, 59, 0
3, 11712, Note_on_c, 1, 57, 93
3, 11760, Note_off_c, 1, 57, 0
3, 11760, Note_on_c, 1, 56, 93
3, 11808, Note_off_c, 1, 56, 0
3, 11808, Note_on_c, 1, 57, 93
3, 12144, Note_off_c, 1, 57, 0
3, 12144, Note_on_c, 1, 62, 93
3, 12192, Note_off_c, 1, 62, 0
3, 12192, Note_on_c, 1, 61, 93
3, 12240, Note_off_c, 1, 61, 0
3, 12240, Note_on_c, 1, 62, 93
3, 12264, Note_off_c, 1, 62, 0
3, 12264, Note_on_c, 1, 64, 93
3, 12288, Note_off_c, 1, 64, 0
3, 12288, Note_on_c, 1, 66, 93
3, 12336, Note_off_c, 1, 66, 0
3, 12336, Note_on_c, 1, 64, 93
3, 12384, Note_off_c, 1, 64, 0
3, 12384, Note_on_c, 1, 66, 93
3, 12432, Note_off_c, 1, 66, 0
3, 12432, Note_on_c, 1, 69, 93
3, 12456, Note_off_c, 1, 69, 0
3, 12456, Note_on_c, 1, 67, 93
3, 12480, Note_off_c, 1, 67, 0
3, 12480, Note_on_c, 1, 66, 93
3, 12504, Note_off_c, 1, 66, 0
3, 12504, Note_on_c, 1, 64, 93
3, 12528, Note_off_c, 1, 64, 0
3, 12528, Note_on_c, 1, 66, 93
3, 12576, Note_off_c, 1, 66, 0
3, 12576, Note_on_c, 1, 67, 93
3, 12600, Note_off_c, 1, 67, 0
3, 12600, Note_on_c, 1, 66, 93
3, 12624, Note_off_c, 1, 66, 0
3, 12624, Note_on_c, 1, 64, 93
3, 12648, Note_off_c, 1, 64, 0
3, 12648, Note_on_c, 1, 62, 93
3, 12672, Note_off_c, 1, 62, 0
3, 12672, Note_on_c, 1, 64, 93
3, 12720, Note_off_c, 1, 64, 0
3, 12720, Note_on_c, 1, 66, 93
3, 12744, Note_off_c, 1, 66, 0
3, 12744, Note_on_c, 1, 64, 93
3, 12768, Note_off_c, 1, 64, 0
3, 12768, Note_on_c, 1, 62, 93
3, 12792, Note_off_c, 1, 62, 0
3, 12792, Note_on_c, 1, 61, 93
3, 12816, Note_off_c, 1, 61, 0
3, 12816, Note_on_c, 1, 62, 93
3, 12864, Note_off_c, 1, 62, 0
3, 12864, Note_on_c, 1, 64, 93
3, 12888, Note_off_c, 1, 64, 0
3, 12888, Note_on_c, 1, 62, 93
3, 12912, Note_off_c, 1, 62, 0
3, 12912, Note_on_c, 1, 61, 93
3, 12936, Note_off_c, 1, 61, 0
3, 12936, Note_on_c, 1, 59, 93
3, 12960, Note_off_c, 1, 59, 0
3, 12960, Note_on_c, 1, 57, 93
3, 13008, Note_off_c, 1, 57, 0
3, 13104, Note_on_c, 1, 62, 93
3, 13152, Note_off_c, 1, 62, 0
3, 13248, Note_on_c, 1, 61, 93
3, 13296, Note_off_c, 1, 61, 0
3, 13392, Note_on_c, 1, 62, 93
3, 13440, Note_off_c, 1, 62, 0
3, 13536, Note_on_c, 1, 67, 93
3, 13584, Note_off_c, 1, 67, 0
3, 13680, Note_on_c, 1, 66, 93
3, 13824, Note_off_c, 1, 66, 0
3, 13824, Note_on_c, 1, 71, 93
3, 13848, Note_off_c, 1, 71, 0
3, 13848, Note_on_c, 1, 69, 93
3, 13872, Note_off_c, 1, 69, 0
3, 13872, Note_on_c, 1, 67, 93
3, 13896, Note_off_c, 1, 67, 0
3, 13896, Note_on_c, 1, 69, 93
3, 13920, Note_off_c, 1, 69, 0
3, 13920, Note_on_c, 1, 71, 93
3, 13932, Note_off_c, 1, 71, 0
3, 13932, Note_on_c, 1, 69, 93
3, 13944, Note_off_c, 1, 69, 0
3, 13944, Note_on_c, 1, 71, 93
3, 13956, Note_off_c, 1, 71, 0
3, 13956, Note_on_c, 1, 69, 93
3, 13968, Note_off_c, 1, 69, 0
3, 13968, Note_on_c, 1, 71, 93
3, 13980, Note_off_c, 1, 71, 0
3, 13980, Note_on_c, 1, 69, 93
3, 13992, Note_off_c, 1, 69, 0
3, 13992, Note_on_c, 1, 71, 93
3, 14004, Note_off_c, 1, 71, 0
3, 14004, Note_on_c, 1, 69, 93
3, 14016, Note_off_c, 1, 69, 0
3, 14016, Note_on_c, 1, 71, 93
3, 14028, Note_off_c, 1, 71, 0
3, 14028, Note_on_c, 1, 69, 93
3, 14040, Note_off_c, 1, 69, 0
3, 14040, Note_on_c, 1, 71, 93
3, 14052, Note_off_c, 1, 71, 0
3, 14052, Note_on_c, 1, 69, 93
3, 14064, Note_off_c, 1, 69, 0
3, 14064, Note_on_c, 1, 71, 93
3, 14076, Note_off_c, 1, 71, 0
3, 14076, Note_on_c, 1, 69, 93
3, 14088, Note_off_c, 1, 69, 0
3, 14088, Note_on_c, 1, 71, 93
3, 14100, Note_off_c, 1, 71, 0
3, 14100, Note_on_c, 1, 69, 93
3, 14112, Note_off_c, 1, 69, 0
3, 14112, Note_on_c, 1, 71, 93
3, 14124, Note_off_c, 1, 71, 0
3, 14124, Note_on_c, 1, 69, 93
3, 14136, Note_off_c, 1, 69, 0
3, 14136, Note_on_c, 1, 71, 93
3, 14148, Note_off_c, 1, 71, 0
3, 14148, Note_on_c, 1, 69, 93
3, 14160, Note_off_c, 1, 69, 0
3, 14160, Note_on_c, 1, 71, 93
3, 14172, Note_off_c, 1, 71, 0
3, 14172, Note_on_c, 1, 69, 93
3, 14184, Note_off_c, 1, 69, 0
3, 14184, Note_on_c, 1, 71, 93
3, 14196, Note_off_c, 1, 71, 0
3, 14196, Note_on_c, 1, 69, 93
3, 14208, Note_off_c, 1, 69, 0
3, 14208, Note_on_c, 1, 71, 93
3, 14220, Note_off_c, 1, 71, 0
3, 14220, Note_on_c, 1, 69, 93
3, 14232, Note_off_c, 1, 69, 0
3, 14232, Note_on_c, 1, 71, 93
3, 14244, Note_off_c, 1, 71, 0
3, 14244, Note_on_c, 1, 69, 93
3, 14256, Note_off_c, 1, 69, 0
3, 14256, Note_on_c, 1, 71, 93
3, 14280, Note_off_c, 1, 71, 0
3, 14280, Note_on_c, 1, 69, 93
3, 14304, Note_off_c, 1, 69, 0
3, 14304, Note_on_c, 1, 67, 93
3, 14352, Note_off_c, 1, 67, 0
3, 14352, Note_on_c, 1, 66, 93
3, 14400, Note_off_c, 1, 66, 0
3, 14400, Note_on_c, 1, 67, 93
3, 14448, Note_off_c, 1, 67, 0
3, 14448, Note_on_c, 1, 71, 93
3, 14496, Note_off_c, 1, 71, 0
3, 14496, Note_on_c, 1, 69, 93
3, 14544, Note_off_c, 1, 69, 0
3, 14544, Note_on_c, 1, 71, 93
3, 14640, Note_off_c, 1, 71, 0
3, 14640, Note_on_c, 1, 63, 93
3, 14688, Note_off_c, 1, 63, 0
3, 14688, Note_on_c, 1, 64, 93
3, 14736, Note_off_c, 1, 64, 0
3, 14736, Note_on_c, 1, 67, 93
3, 14760, Note_off_c, 1, 67, 0
3, 14760, Note_on_c, 1, 66, 93
3, 14784, Note_off_c, 1, 66, 0
3, 14784, Note_on_c, 1, 64, 93
3, 14808, Note_off_c, 1, 64, 0
3, 14808, Note_on_c, 1, 62, 93
3, 14832, Note_off_c, 1, 62, 0
3, 14832, Note_on_c, 1, 60, 93
3, 14880, Note_off_c, 1, 60, 0
3, 14880, Note_on_c, 1, 64, 93
3, 14904, Note_off_c, 1, 64, 0
3, 14904, Note_on_c, 1, 62, 93
3, 14928, Note_off_c, 1, 62, 0
3, 14928, Note_on_c, 1, 60, 93
3, 14952, Note_off_c, 1, 60, 0
3, 14952, Note_on_c, 1, 59, 93
3, 14976, Note_off_c, 1, 59, 0
3, 14976, Note_on_c, 1, 57, 93
3, 15024, Note_off_c, 1, 57, 0
3, 15024, Note_on_c, 1, 60, 93
3, 15048, Note_off_c, 1, 60, 0
3, 15048, Note_on_c, 1, 59, 93
3, 15072, Note_off_c, 1, 59, 0
3, 15072, Note_on_c, 1, 57, 93
3, 15096, Note_off_c, 1, 57, 0
3, 15096, Note_on_c, 1, 55, 93
3, 15120, Note_off_c, 1, 55, 0
3, 15120, Note_on_c, 1, 54, 93
3, 15216, Note_off_c, 1, 54, 0
3, 15216, Note_on_c, 1, 64, 93
3, 15264, Note_off_c, 1, 64, 0
3, 15264, Note_on_c, 1, 63, 93
3, 15312, Note_off_c, 1, 63, 0
3, 15312, Note_on_c, 1, 66, 93
3, 15324, Note_off_c, 1, 66, 0
3, 15324, Note_on_c, 1, 64, 93
3, 15336, Note_off_c, 1, 64, 0
3, 15336, Note_on_c, 1, 63, 93
3, 15348, Note_off_c, 1, 63, 0
3, 15348, Note_on_c, 1, 64, 93
3, 15360, Note_off_c, 1, 64, 0
3, 15360, Note_on_c, 1, 66, 93
3, 15408, Note_off_c, 1, 66, 0
3, 15408, Note_on_c, 1, 59, 93
3, 15600, Note_off_c, 1, 59, 0
3, 15600, Note_on_c, 1, 63, 93
3, 15648, Note_off_c, 1, 63, 0
3, 15648, Note_on_c, 1, 64, 93
3, 15720, Note_off_c, 1, 64, 0
3, 15720, Note_on_c, 1, 62, 93
3, 15744, Note_off_c, 1, 62, 0
3, 15744, Note_on_c, 1, 60, 93
3, 15768, Note_off_c, 1, 60, 0
3, 15768, Note_on_c, 1, 59, 93
3, 15792, Note_off_c, 1, 59, 0
3, 15792, Note_on_c, 1, 60, 93
3, 15864, Note_off_c, 1, 60, 0
3, 15864, Note_on_c, 1, 59, 93
3, 15888, Note_off_c, 1, 59, 0
3, 15888, Note_on_c, 1, 57, 93
3, 15912, Note_off_c, 1, 57, 0
3, 15912, Note_on_c, 1, 55, 93
3, 15936, Note_off_c, 1, 55, 0
3, 15936, Note_on_c, 1, 57, 93
3, 16032, Note_off_c, 1, 57, 0
3, 16032, Note_on_c, 1, 54, 93
3, 16080, Note_off_c, 1, 54, 0
3, 16080, Note_on_c, 1, 55, 93
3, 16128, Note_off_c, 1, 55, 0
3, 17856, Note_on_c, 1, 59, 93
3, 18048, Note_off_c, 1, 59, 0
3, 18048, Note_on_c, 1, 60, 93
3, 18096, Note_off_c, 1, 60, 0
3, 18096, Note_on_c, 1, 62, 93
3, 18144, Note_off_c, 1, 62, 0
3, 18144, Note_on_c, 1, 64, 93
3, 18192, Note_off_c, 1, 64, 0
3, 18192, Note_on_c, 1, 56, 93
3, 18240, Note_off_c, 1, 56, 0
3, 18240, Note_on_c, 1, 59, 93
3, 18288, Note_off_c, 1, 59, 0
3, 18288, Note_on_c, 1, 57, 93
3, 18480, Note_off_c, 1, 57, 0
3, 18480, Note_on_c, 1, 59, 93
3, 18528, Note_off_c, 1, 59, 0
3, 18528, Note_on_c, 1, 60, 93
3, 18576, Note_off_c, 1, 60, 0
3, 18576, Note_on_c, 1, 62, 93
3, 18624, Note_off_c, 1, 62, 0
3, 18624, Note_on_c, 1, 54, 93
3, 18672, Note_off_c, 1, 54, 0
3, 18672, Note_on_c, 1, 57, 93
3, 18720, Note_off_c, 1, 57, 0
3, 18720, Note_on_c, 1, 50, 93
3, 18816, Note_off_c, 1, 50, 0
3, 18816, Note_on_c, 1, 54, 93
3, 18864, Note_off_c, 1, 54, 0
3, 18864, Note_on_c, 1, 59, 93
3, 19104, Note_off_c, 1, 59, 0
3, 19104, Note_on_c, 1, 51, 93
3, 19152, Note_off_c, 1, 51, 0
3, 19152, Note_on_c, 1, 52, 93
3, 19200, Note_off_c, 1, 52, 0
3, 19200, Note_on_c, 1, 54, 93
3, 19248, Note_off_c, 1, 54, 0
3, 19248, Note_on_c, 1, 55, 93
3, 19296, Note_off_c, 1, 55, 0
3, 19296, Note_on_c, 1, 54, 93
3, 19344, Note_off_c, 1, 54, 0
3, 19344, Note_on_c, 1, 55, 93
3, 19392, Note_off_c, 1, 55, 0
3, 19392, Note_on_c, 1, 57, 93
3, 19440, Note_off_c, 1, 57, 0
3, 19440, Note_on_c, 1, 50, 93
3, 19584, Note_off_c, 1, 50, 0
3, 19584, Note_on_c, 1, 50, 93
3, 19728, Note_off_c, 1, 50, 0
3, 19728, Note_on_c, 1, 50, 93
3, 19920, Note_off_c, 1, 50, 0
3, 19920, Note_on_c, 1, 55, 93
3, 19968, Note_off_c, 1, 55, 0
3, 19968, Note_on_c, 1, 54, 93
3, 20016, Note_off_c, 1, 54, 0
3, 20016, Note_on_c, 1, 55, 93
3, 20064, Note_off_c, 1, 55, 0
3, 20064, Note_on_c, 1, 57, 93
3, 20112, Note_off_c, 1, 57, 0
3, 20112, Note_on_c, 1, 59, 93
3, 20160, Note_off_c, 1, 59, 0
3, 20160, Note_on_c, 1, 60, 93
3, 20208, Note_off_c, 1, 60, 0
3, 20208, Note_on_c, 1, 62, 93
3, 20232, Note_off_c, 1, 62, 0
3, 20232, Note_on_c, 1, 60, 93
3, 20256, Note_off_c, 1, 60, 0
3, 20256, Note_on_c, 1, 59, 93
3, 20280, Note_off_c, 1, 59, 0
3, 20280, Note_on_c, 1, 57, 93
3, 20304, Note_off_c, 1, 57, 0
3, 20304, Note_on_c, 1, 59, 93
3, 20352, Note_off_c, 1, 59, 0
3, 20352, Note_on_c, 1, 60, 93
3, 20376, Note_off_c, 1, 60, 0
3, 20376, Note_on_c, 1, 59, 93
3, 20400, Note_off_c, 1, 59, 0
3, 20400, Note_on_c, 1, 57, 93
3, 20424, Note_off_c, 1, 57, 0
3, 20424, Note_on_c, 1, 55, 93
3, 20448, Note_off_c, 1, 55, 0
3, 20448, Note_on_c, 1, 57, 93
3, 20496, Note_off_c, 1, 57, 0
3, 20496, Note_on_c, 1, 59, 93
3, 20520, Note_off_c, 1, 59, 0
3, 20520, Note_on_c, 1, 57, 93
3, 20544, Note_off_c, 1, 57, 0
3, 20544, Note_on_c, 1, 55, 93
3, 20568, Note_off_c, 1, 55, 0
3, 20568, Note_on_c, 1, 54, 93
3, 20592, Note_off_c, 1, 54, 0
3, 20592, Note_on_c, 1, 55, 93
3, 20736, Note_off_c, 1, 55, 0
3, 20736, Note_on_c, 1, 71, 93
3, 20760, Note_off_c, 1, 71, 0
3, 20760, Note_on_c, 1, 69, 93
3, 20784, Note_off_c, 1, 69, 0
3, 20784, Note_on_c, 1, 67, 93
3, 20808, Note_off_c, 1, 67, 0
3, 20808, Note_on_c, 1, 69, 93
3, 20832, Note_off_c, 1, 69, 0
3, 20832, Note_on_c, 1, 71, 93
3, 20844, Note_off_c, 1, 71, 0
3, 20844, Note_on_c, 1, 69, 93
3, 20856, Note_off_c, 1, 69, 0
3, 20856, Note_on_c, 1, 71, 93
3, 20868, Note_off_c, 1, 71, 0
3, 20868, Note_on_c, 1, 69, 93
3, 20880, Note_off_c, 1, 69, 0
3, 20880, Note_on_c, 1, 71, 93
3, 20892, Note_off_c, 1, 71, 0
3, 20892, Note_on_c, 1, 69, 93
3, 20904, Note_off_c, 1, 69, 0
3, 20904, Note_on_c, 1, 71, 93
3, 20916, Note_off_c, 1, 71, 0
3, 20916, Note_on_c, 1, 69, 93
3, 20928, Note_off_c, 1, 69, 0
3, 20928, Note_on_c, 1, 71, 93
3, 20940, Note_off_c, 1, 71, 0
3, 20940, Note_on_c, 1, 69, 93
3, 20952, Note_off_c, 1, 69, 0
3, 20952, Note_on_c, 1, 71, 93
3, 20964, Note_off_c, 1, 71, 0
3, 20964, Note_on_c, 1, 69, 93
3, 20976, Note_off_c, 1, 69, 0
3, 20976, Note_on_c, 1, 71, 93
3, 20988, Note_off_c, 1, 71, 0
3, 20988, Note_on_c, 1, 69, 93
3, 21000, Note_off_c, 1, 69, 0
3, 21000, Note_on_c, 1, 71, 93
3, 21012, Note_off_c, 1, 71, 0
3, 21012, Note_on_c, 1, 69, 93
3, 21024, Note_off_c, 1, 69, 0
3, 21024, Note_on_c, 1, 71, 93
3, 21036, Note_off_c, 1, 71, 0
3, 21036, Note_on_c, 1, 69, 93
3, 21048, Note_off_c, 1, 69, 0
3, 21048, Note_on_c, 1, 71, 93
3, 21060, Note_off_c, 1, 71, 0
3, 21060, Note_on_c, 1, 69, 93
3, 21072, Note_off_c, 1, 69, 0
3, 21072, Note_on_c, 1, 71, 93
3, 21084, Note_off_c, 1, 71, 0
3, 21084, Note_on_c, 1, 69, 93
3, 21096, Note_off_c, 1, 69, 0
3, 21096, Note_on_c, 1, 71, 93
3, 21108, Note_off_c, 1, 71, 0
3, 21108, Note_on_c, 1, 69, 93
3, 21120, Note_off_c, 1, 69, 0
3, 21120, Note_on_c, 1, 71, 93
3, 21132, Note_off_c, 1, 71, 0
3, 21132, Note_on_c, 1, 69, 93
3, 21144, Note_off_c, 1, 69, 0
3, 21144, Note_on_c, 1, 71, 93
3, 21156, Note_off_c, 1, 71, 0
3, 21156, Note_on_c, 1, 69, 93
3, 21168, Note_off_c, 1, 69, 0
3, 21168, Note_on_c, 1, 71, 93
3, 21192, Note_off_c, 1, 71, 0
3, 21192, Note_on_c, 1, 69, 93
3, 21216, Note_off_c, 1, 69, 0
3, 21216, Note_on_c, 1, 67, 93
3, 21264, Note_off_c, 1, 67, 0
3, 21264, Note_on_c, 1, 66, 93
3, 21312, Note_off_c, 1, 66, 0
3, 21312, Note_on_c, 1, 67, 93
3, 21360, Note_off_c, 1, 67, 0
3, 21360, Note_on_c, 1, 71, 93
3, 21408, Note_off_c, 1, 71, 0
3, 21408, Note_on_c, 1, 69, 93
3, 21456, Note_off_c, 1, 69, 0
3, 21456, Note_on_c, 1, 71, 93
3, 21552, Note_off_c, 1, 71, 0
3, 21552, Note_on_c, 1, 63, 93
3, 21600, Note_off_c, 1, 63, 0
3, 21600, Note_on_c, 1, 64, 93
3, 21648, Note_off_c, 1, 64, 0
3, 21648, Note_on_c, 1, 67, 93
3, 21672, Note_off_c, 1, 67, 0
3, 21672, Note_on_c, 1, 66, 93
3, 21696, Note_off_c, 1, 66, 0
3, 21696, Note_on_c, 1, 64, 93
3, 21720, Note_off_c, 1, 64, 0
3, 21720, Note_on_c, 1, 62, 93
3, 21744, Note_off_c, 1, 62, 0
3, 21744, Note_on_c, 1, 60, 93
3, 21792, Note_off_c, 1, 60, 0
3, 21792, Note_on_c, 1, 64, 93
3, 21816, Note_off_c, 1, 64, 0
3, 21816, Note_on_c, 1, 62, 93
3, 21840, Note_off_c, 1, 62, 0
3, 21840, Note_on_c, 1, 60, 93
3, 21864, Note_off_c, 1, 60, 0
3, 21864, Note_on_c, 1, 59, 93
3, 21888, Note_off_c, 1, 59, 0
3, 21888, Note_on_c, 1, 57, 93
3, 21936, Note_off_c, 1, 57, 0
3, 21936, Note_on_c, 1, 60, 93
3, 21960, Note_off_c, 1, 60, 0
3, 21960, Note_on_c, 1, 59, 93
3, 21984, Note_off_c, 1, 59, 0
3, 21984, Note_on_c, 1, 57, 93
3, 22008, Note_off_c, 1, 57, 0
3, 22008, Note_on_c, 1, 55, 93
3, 22032, Note_off_c, 1, 55, 0
3, 22032, Note_on_c, 1, 54, 93
3, 22128, Note_off_c, 1, 54, 0
3, 22128, Note_on_c, 1, 64, 93
3, 22176, Note_off_c, 1, 64, 0
3, 22176, Note_on_c, 1, 63, 93
3, 22224, Note_off_c, 1, 63, 0
3, 22224, Note_on_c, 1, 66, 93
3, 22236, Note_off_c, 1, 66, 0
3, 22236, Note_on_c, 1, 64, 93
3, 22248, Note_off_c, 1, 64, 0
3, 22248, Note_on_c, 1, 63, 93
3, 22260, Note_off_c, 1, 63, 0
3, 22260, Note_on_c, 1, 64, 93
3, 22272, Note_off_c, 1, 64, 0
3, 22272, Note_on_c, 1, 66, 93
3, 22320, Note_off_c, 1, 66, 0
3, 22320, Note_on_c, 1, 59, 93
3, 22512, Note_off_c, 1, 59, 0
3, 22512, Note_on_c, 1, 63, 93
3, 22560, Note_off_c, 1, 63, 0
3, 22560, Note_on_c, 1, 64, 93
3, 22632, Note_off_c, 1, 64, 0
3, 22632, Note_on_c, 1, 62, 93
3, 22656, Note_off_c, 1, 62, 0
3, 22656, Note_on_c, 1, 60, 93
3, 22680, Note_off_c, 1, 60, 0
3, 22680, Note_on_c, 1, 59, 93
3, 22704, Note_off_c, 1, 59, 0
3, 22704, Note_on_c, 1, 60, 93
3, 22776, Note_off_c, 1, 60, 0
3, 22776, Note_on_c, 1, 59, 93
3, 22800, Note_off_c, 1, 59, 0
3, 22800, Note_on_c, 1, 57, 93
3, 22824, Note_off_c, 1, 57, 0
3, 22824, Note_on_c, 1, 55, 93
3, 22848, Note_off_c, 1, 55, 0
3, 22848, Note_on_c, 1, 57, 93
3, 22944, Note_off_c, 1, 57, 0
3, 22944, Note_on_c, 1, 54, 93
3, 22992, Note_off_c, 1, 54, 0
3, 22992, Note_on_c, 1, 55, 93
3, 23040, Note_off_c, 1, 55, 0
3, 24768, Note_on_c, 1, 59, 93
3, 24960, Note_off_c, 1, 59, 0
3, 24960, Note_on_c, 1, 60, 93
3, 25008, Note_off_c, 1, 60, 0
3, 25008, Note_on_c, 1, 62, 93
3, 25056, Note_off_c, 1, 62, 0
3, 25056, Note_on_c, 1, 64, 93
3, 25104, Note_off_c, 1, 64, 0
3, 25104, Note_on_c, 1, 56, 93
3, 25152, Note_off_c, 1, 56, 0
3, 25152, Note_on_c, 1, 59, 93
3, 25200, Note_off_c, 1, 59, 0
3, 25200, Note_on_c, 1, 57, 93
3, 25392, Note_off_c, 1, 57, 0
3, 25392, Note_on_c, 1, 59, 93
3, 25440, Note_off_c, 1, 59, 0
3, 25440, Note_on_c, 1, 60, 93
3, 25488, Note_off_c, 1, 60, 0
3, 25488, Note_on_c, 1, 62, 93
3, 25536, Note_off_c, 1, 62, 0
3, 25536, Note_on_c, 1, 54, 93
3, 25584, Note_off_c, 1, 54, 0
3, 25584, Note_on_c, 1, 57, 93
3, 25632, Note_off_c, 1, 57, 0
3, 25632, Note_on_c, 1, 50, 93
3, 25728, Note_off_c, 1, 50, 0
3, 25728, Note_on_c, 1, 54, 93
3, 25776, Note_off_c, 1, 54, 0
3, 25776, Note_on_c, 1, 59, 93
3, 26016, Note_off_c, 1, 59, 0
3, 26016, Note_on_c, 1, 51, 93
3, 26064, Note_off_c, 1, 51, 0
3, 26064, Note_on_c, 1, 52, 93
3, 26112, Note_off_c, 1, 52, 0
3, 26112, Note_on_c, 1, 54, 93
3, 26160, Note_off_c, 1, 54, 0
3, 26160, Note_on_c, 1, 55, 93
3, 26208, Note_off_c, 1, 55, 0
3, 26208, Note_on_c, 1, 54, 93
3, 26256, Note_off_c, 1, 54, 0
3, 26256, Note_on_c, 1, 55, 93
3, 26304, Note_off_c, 1, 55, 0
3, 26304, Note_on_c, 1, 57, 93
3, 26352, Note_off_c, 1, 57, 0
3, 26352, Note_on_c, 1, 50, 93
3, 26496, Note_off_c, 1, 50, 0
3, 26496, Note_on_c, 1, 50, 93
3, 26640, Note_off_c, 1, 50, 0
3, 26640, Note_on_c, 1, 50, 93
3, 26832, Note_off_c, 1, 50, 0
3, 26832, Note_on_c, 1, 55, 93
3, 26880, Note_off_c, 1, 55, 0
3, 26880, Note_on_c, 1, 54, 93
3, 26928, Note_off_c, 1, 54, 0
3, 26928, Note_on_c, 1, 55, 93
3, 26976, Note_off_c, 1, 55, 0
3, 26976, Note_on_c, 1, 57, 93
3, 27024, Note_off_c, 1, 57, 0
3, 27024, Note_on_c, 1, 59, 93
3, 27072, Note_off_c, 1, 59, 0
3, 27072, Note_on_c, 1, 60, 93
3, 27120, Note_off_c, 1, 60, 0
3, 27120, Note_on_c, 1, 62, 93
3, 27144, Note_off_c, 1, 62, 0
3, 27144, Note_on_c, 1, 60, 93
3, 27168, Note_off_c, 1, 60, 0
3, 27168, Note_on_c, 1, 59, 93
3, 27192, Note_off_c, 1, 59, 0
3, 27192, Note_on_c, 1, 57, 93
3, 27216, Note_off_c, 1, 57, 0
3, 27216, Note_on_c, 1, 59, 93
3, 27264, Note_off_c, 1, 59, 0
3, 27264, Note_on_c, 1, 60, 93
3, 27288, Note_off_c, 1, 60, 0
3, 27288, Note_on_c, 1, 59, 93
3, 27312, Note_off_c, 1, 59, 0
3, 27312, Note_on_c, 1, 57, 93
3, 27336, Note_off_c, 1, 57, 0
3, 27336, Note_on_c, 1, 55, 93
3, 27360, Note_off_c, 1, 55, 0
3, 27360, Note_on_c, 1, 57, 93
3, 27408, Note_off_c, 1, 57, 0
3, 27408, Note_on_c, 1, 59, 93
3, 27432, Note_off_c, 1, 59, 0
3, 27432, Note_on_c, 1, 57, 93
3, 27456, Note_off_c, 1, 57, 0
3, 27456, Note_on_c, 1, 55, 93
3, 27480, Note_off_c, 1, 55, 0
3, 27480, Note_on_c, 1, 54, 93
3, 27504, Note_off_c, 1, 54, 0
3, 27504, Note_on_c, 1, 55, 93
3, 27648, Note_off_c, 1, 55, 0
3, 27648, End_track
4, 0, Start_track
4, 0, Title_t, "Track4"
4, 0, Program_c, 2, 6
4, 0, Control_c, 2, 7, 100
4, 0, Control_c, 2, 10, 54
4, 0, Note_on_c, 2, 55, 93
4, 144, Note_off_c, 2, 55, 0
4, 240, Note_on_c, 2, 54, 93
4, 288, Note_off_c, 2, 54, 0
4, 288, Note_on_c, 2, 55, 93
4, 384, Note_off_c, 2, 55, 0
4, 384, Note_on_c, 2, 52, 93
4, 432, Note_off_c, 2, 52, 0
4, 432, Note_on_c, 2, 54, 93
4, 576, Note_off_c, 2, 54, 0
4, 672, Note_on_c, 2, 57, 93
4, 720, Note_off_c, 2, 57, 0
4, 720, Note_on_c, 2, 50, 93
4, 816, Note_off_c, 2, 50, 0
4, 816, Note_on_c, 2, 54, 93
4, 864, Note_off_c, 2, 54, 0
4, 864, Note_on_c, 2, 52, 93
4, 1248, Note_off_c, 2, 52, 0
4, 1248, Note_on_c, 2, 57, 93
4, 1296, Note_off_c, 2, 57, 0
4, 1296, Note_on_c, 2, 50, 93
4, 1440, Note_off_c, 2, 50, 0
4, 1680, Note_on_c, 2, 60, 93
4, 1728, Note_off_c, 2, 60, 0
4, 1728, Note_on_c, 2, 59, 93
4, 1872, Note_off_c, 2, 59, 0
4, 1968, Note_on_c, 2, 62, 93
4, 2016, Note_off_c, 2, 62, 0
4, 2016, Note_on_c, 2, 55, 93
4, 2112, Note_off_c, 2, 55, 0
4, 2112, Note_on_c, 2, 59, 93
4, 2160, Note_off_c, 2, 59, 0
4, 2160, Note_on_c, 2, 64, 93
4, 2304, Note_off_c, 2, 64, 0
4, 2400, Note_on_c, 2, 57, 93
4, 2448, Note_off_c, 2, 57, 0
4, 2448, Note_on_c, 2, 59, 93
4, 2496, Note_off_c, 2, 59, 0
4, 2496, Note_on_c, 2, 57, 93
4, 2544, Note_off_c, 2, 57, 0
4, 2544, Note_on_c, 2, 59, 93
4, 2592, Note_off_c, 2, 59, 0
4, 2592, Note_on_c, 2, 60, 93
4, 2640, Note_off_c, 2, 60, 0
4, 2640, Note_on_c, 2, 59, 93
4, 2688, Note_off_c, 2, 59, 0
4, 2688, Note_on_c, 2, 57, 93
4, 2736, Note_off_c, 2, 57, 0
4, 2736, Note_on_c, 2, 59, 93
4, 2784, Note_off_c, 2, 59, 0
4, 2784, Note_on_c, 2, 62, 93
4, 2832, Note_off_c, 2, 62, 0
4, 2832, Note_on_c, 2, 60, 93
4, 2880, Note_off_c, 2, 60, 0
4, 2880, Note_on_c, 2, 62, 93
4, 2976, Note_off_c, 2, 62, 0
4, 2976, Note_on_c, 2, 50, 93
4, 3024, Note_off_c, 2, 50, 0
4, 3024, Note_on_c, 2, 55, 93
4, 3120, Note_off_c, 2, 55, 0
4, 3120, Note_on_c, 2, 43, 93
4, 3168, Note_off_c, 2, 43, 0
4, 3168, Note_on_c, 2, 43, 93
4, 3264, Note_off_c, 2, 43, 0
4, 3264, Note_on_c, 2, 55, 93
4, 3312, Note_off_c, 2, 55, 0
4, 3312, Note_on_c, 2, 55, 93
4, 3360, Note_off_c, 2, 55, 0
4, 3360, Note_on_c, 2, 54, 93
4, 3384, Note_off_c, 2, 54, 0
4, 3384, Note_on_c, 2, 52, 93
4, 3408, Note_off_c, 2, 52, 0
4, 3408, Note_on_c, 2, 50, 93
4, 3432, Note_off_c, 2, 50, 0
4, 3432, Note_on_c, 2, 48, 93
4, 3456, Note_off_c, 2, 48, 0
4, 3456, Note_on_c, 2, 47, 93
4, 3504, Note_off_c, 2, 47, 0
4, 3504, Note_on_c, 2, 43, 93
4, 3552, Note_off_c, 2, 43, 0
4, 3552, Note_on_c, 2, 45, 93
4, 3600, Note_off_c, 2, 45, 0
4, 3600, Note_on_c, 2, 47, 93
4, 3648, Note_off_c, 2, 47, 0
4, 3648, Note_on_c, 2, 48, 93
4, 3696, Note_off_c, 2, 48, 0
4, 3696, Note_on_c, 2, 50, 93
4, 3744, Note_off_c, 2, 50, 0
4, 3744, Note_on_c, 2, 43, 93
4, 3840, Note_off_c, 2, 43, 0
4, 3840, Note_on_c, 2, 55, 93
4, 3936, Note_off_c, 2, 55, 0
4, 3936, Note_on_c, 2, 54, 93
4, 3984, Note_off_c, 2, 54, 0
4, 3984, Note_on_c, 2, 52, 93
4, 4032, Note_off_c, 2, 52, 0
4, 4032, Note_on_c, 2, 57, 93
4, 4128, Note_off_c, 2, 57, 0
4, 4128, Note_on_c, 2, 55, 93
4, 4176, Note_off_c, 2, 55, 0
4, 4176, Note_on_c, 2, 54, 93
4, 4224, Note_off_c, 2, 54, 0
4, 4224, Note_on_c, 2, 55, 93
4, 4272, Note_off_c, 2, 55, 0
4, 4272, Note_on_c, 2, 57, 93
4, 4320, Note_off_c, 2, 57, 0
4, 4320, Note_on_c, 2, 59, 93
4, 4560, Note_off_c, 2, 59, 0
4, 4560, Note_on_c, 2, 57, 93
4, 4608, Note_off_c, 2, 57, 0
4, 4608, Note_on_c, 2, 55, 93
4, 4704, Note_off_c, 2, 55, 0
4, 4704, Note_on_c, 2, 52, 93
4, 4752, Note_off_c, 2, 52, 0
4, 4752, Note_on_c, 2, 45, 93
4, 4848, Note_off_c, 2, 45, 0
4, 4992, Note_on_c, 2, 55, 93
4, 5040, Note_off_c, 2, 55, 0
4, 5040, Note_on_c, 2, 54, 93
4, 5136, Note_off_c, 2, 54, 0
4, 5136, Note_on_c, 2, 52, 93
4, 5184, Note_off_c, 2, 52, 0
4, 5184, Note_on_c, 2, 54, 93
4, 5280, Note_off_c, 2, 54, 0
4, 5280, Note_on_c, 2, 57, 93
4, 5328, Note_off_c, 2, 57, 0
4, 5328, Note_on_c, 2, 59, 93
4, 5424, Note_off_c, 2, 59, 0
4, 5424, Note_on_c, 2, 61, 93
4, 5472, Note_off_c, 2, 61, 0
4, 5472, Note_on_c, 2, 62, 93
4, 5568, Note_off_c, 2, 62, 0
4, 5568, Note_on_c, 2, 50, 93
4, 5616, Note_off_c, 2, 50, 0
4, 5616, Note_on_c, 2, 55, 93
4, 5712, Note_off_c, 2, 55, 0
4, 5712, Note_on_c, 2, 47, 93
4, 5760, Note_off_c, 2, 47, 0
4, 5760, Note_on_c, 2, 49, 93
4, 5808, Note_off_c, 2, 49, 0
4, 5808, Note_on_c, 2, 50, 93
4, 5856, Note_off_c, 2, 50, 0
4, 5856, Note_on_c, 2, 52, 93
4, 5904, Note_off_c, 2, 52, 0
4, 5904, Note_on_c, 2, 54, 93
4, 5952, Note_off_c, 2, 54, 0
4, 5952, Note_on_c, 2, 52, 93
4, 6000, Note_off_c, 2, 52, 0
4, 6000, Note_on_c, 2, 54, 93
4, 6048, Note_off_c, 2, 54, 0
4, 6048, Note_on_c, 2, 55, 93
4, 6096, Note_off_c, 2, 55, 0
4, 6096, Note_on_c, 2, 54, 93
4, 6144, Note_off_c, 2, 54, 0
4, 6144, Note_on_c, 2, 52, 93
4, 6192, Note_off_c, 2, 52, 0
4, 6192, Note_on_c, 2, 54, 93
4, 6240, Note_off_c, 2, 54, 0
4, 6240, Note_on_c, 2, 57, 93
4, 6288, Note_off_c, 2, 57, 0
4, 6288, Note_on_c, 2, 55, 93
4, 6336, Note_off_c, 2, 55, 0
4, 6336, Note_on_c, 2, 57, 93
4, 6432, Note_off_c, 2, 57, 0
4, 6432, Note_on_c, 2, 45, 93
4, 6480, Note_off_c, 2, 45, 0
4, 6480, Note_on_c, 2, 50, 93
4, 6576, Note_off_c, 2, 50, 0
4, 6576, Note_on_c, 2, 38, 93
4, 6624, Note_off_c, 2, 38, 0
4, 6624, Note_on_c, 2, 38, 93
4, 6720, Note_off_c, 2, 38, 0
4, 6720, Note_on_c, 2, 50, 93
4, 6768, Note_off_c, 2, 50, 0
4, 6768, Note_on_c, 2, 50, 93
4, 6912, Note_off_c, 2, 50, 0
4, 6912, Note_on_c, 2, 55, 93
4, 7056, Note_off_c, 2, 55, 0
4, 7152, Note_on_c, 2, 54, 93
4, 7200, Note_off_c, 2, 54, 0
4, 7200, Note_on_c, 2, 55, 93
4, 7296, Note_off_c, 2, 55, 0
4, 7296, Note_on_c, 2, 52, 93
4, 7344, Note_off_c, 2, 52, 0
4, 7344, Note_on_c, 2, 54, 93
4, 7488, Note_off_c, 2, 54, 0
4, 7584, Note_on_c, 2, 57, 93
4, 7632, Note_off_c, 2, 57, 0
4, 7632, Note_on_c, 2, 50, 93
4, 7728, Note_off_c, 2, 50, 0
4, 7728, Note_on_c, 2, 54, 93
4, 7776, Note_off_c, 2, 54, 0
4, 7776, Note_on_c, 2, 52, 93
4, 8160, Note_off_c, 2, 52, 0
4, 8160, Note_on_c, 2, 57, 93
4, 8208, Note_off_c, 2, 57, 0
4, 8208, Note_on_c, 2, 50, 93
4, 8352, Note_off_c, 2, 50, 0
4, 8592, Note_on_c, 2, 60, 93
4, 8640, Note_off_c, 2, 60, 0
4, 8640, Note_on_c, 2, 59, 93
4, 8784, Note_off_c, 2, 59, 0
4, 8880, Note_on_c, 2, 62, 93
4, 8928, Note_off_c, 2, 62, 0
4, 8928, Note_on_c, 2, 55, 93
4, 9024, Note_off_c, 2, 55, 0
4, 9024, Note_on_c, 2, 59, 93
4, 9072, Note_off_c, 2, 59, 0
4, 9072, Note_on_c, 2, 64, 93
4, 9216, Note_off_c, 2, 64, 0
4, 9312, Note_on_c, 2, 57, 93
4, 9360, Note_off_c, 2, 57, 0
4, 9360, Note_on_c, 2, 59, 93
4, 9408, Note_off_c, 2, 59, 0
4, 9408, Note_on_c, 2, 57, 93
4, 9456, Note_off_c, 2, 57, 0
4, 9456, Note_on_c, 2, 59, 93
4, 9504, Note_off_c, 2, 59, 0
4, 9504, Note_on_c, 2, 60, 93
4, 9552, Note_off_c, 2, 60, 0
4, 9552, Note_on_c, 2, 59, 93
4, 9600, Note_off_c, 2, 59, 0
4, 9600, Note_on_c, 2, 57, 93
4, 9648, Note_off_c, 2, 57, 0
4, 9648, Note_on_c, 2, 59, 93
4, 9696, Note_off_c, 2, 59, 0
4, 9696, Note_on_c, 2, 62, 93
4, 9744, Note_off_c, 2, 62, 0
4, 9744, Note_on_c, 2, 60, 93
4, 9792, Note_off_c, 2, 60, 0
4, 9792, Note_on_c, 2, 62, 93
4, 9888, Note_off_c, 2, 62, 0
4, 9888, Note_on_c, 2, 50, 93
4, 9936, Note_off_c, 2, 50, 0
4, 9936, Note_on_c, 2, 55, 93
4, 10032, Note_off_c, 2, 55, 0
4, 10032, Note_on_c, 2, 43, 93
4, 10080, Note_off_c, 2, 43, 0
4, 10080, Note_on_c, 2, 43, 93
4, 10176, Note_off_c, 2, 43, 0
4, 10176, Note_on_c, 2, 55, 93
4, 10224, Note_off_c, 2, 55, 0
4, 10224, Note_on_c, 2, 55, 93
4, 10272, Note_off_c, 2, 55, 0
4, 10272, Note_on_c, 2, 54, 93
4, 10296, Note_off_c, 2, 54, 0
4, 10296, Note_on_c, 2, 52, 93
4, 10320, Note_off_c, 2, 52, 0
4, 10320, Note_on_c, 2, 50, 93
4, 10344, Note_off_c, 2, 50, 0
4, 10344, Note_on_c, 2, 48, 93
4, 10368, Note_off_c, 2, 48, 0
4, 10368, Note_on_c, 2, 47, 93
4, 10416, Note_off_c, 2, 47, 0
4, 10416, Note_on_c, 2, 43, 93
4, 10464, Note_off_c, 2, 43, 0
4, 10464, Note_on_c, 2, 45, 93
4, 10512, Note_off_c, 2, 45, 0
4, 10512, Note_on_c, 2, 47, 93
4, 10560, Note_off_c, 2, 47, 0
4, 10560, Note_on_c, 2, 48, 93
4, 10608, Note_off_c, 2, 48, 0
4, 10608, Note_on_c, 2, 50, 93
4, 10656, Note_off_c, 2, 50, 0
4, 10656, Note_on_c, 2, 43, 93
4, 10752, Note_off_c, 2, 43, 0
4, 10752, Note_on_c, 2, 55, 93
4, 10848, Note_off_c, 2, 55, 0
4, 10848, Note_on_c, 2, 54, 93
4, 10896, Note_off_c, 2, 54, 0
4, 10896, Note_on_c, 2, 52, 93
4, 10944, Note_off_c, 2, 52, 0
4, 10944, Note_on_c, 2, 57, 93
4, 11040, Note_off_c, 2, 57, 0
4, 11040, Note_on_c, 2, 55, 93
4, 11088, Note_off_c, 2, 55, 0
4, 11088, Note_on_c, 2, 54, 93
4, 11136, Note_off_c, 2, 54, 0
4, 11136, Note_on_c, 2, 55, 93
4, 11184, Note_off_c, 2, 55, 0
4, 11184, Note_on_c, 2, 57, 93
4, 11232, Note_off_c, 2, 57, 0
4, 11232, Note_on_c, 2, 59, 93
4, 11472, Note_off_c, 2, 59, 0
4, 11472, Note_on_c, 2, 57, 93
4, 11520, Note_off_c, 2, 57, 0
4, 11520, Note_on_c, 2, 55, 93
4, 11616, Note_off_c, 2, 55, 0
4, 11616, Note_on_c, 2, 52, 93
4, 11664, Note_off_c, 2, 52, 0
4, 11664, Note_on_c, 2, 45, 93
4, 11760, Note_off_c, 2, 45, 0
4, 11904, Note_on_c, 2, 55, 93
4, 11952, Note_off_c, 2, 55, 0
4, 11952, Note_on_c, 2, 54, 93
4, 12048, Note_off_c, 2, 54, 0
4, 12048, Note_on_c, 2, 52, 93
4, 12096, Note_off_c, 2, 52, 0
4, 12096, Note_on_c, 2, 54, 93
4, 12192, Note_off_c, 2, 54, 0
4, 12192, Note_on_c, 2, 57, 93
4, 12240, Note_off_c, 2, 57, 0
4, 12240, Note_on_c, 2, 59, 93
4, 12336, Note_off_c, 2, 59, 0
4, 12336, Note_on_c, 2, 61, 93
4, 12384, Note_off_c, 2, 61, 0
4, 12384, Note_on_c, 2, 62, 93
4, 12480, Note_off_c, 2, 62, 0
4, 12480, Note_on_c, 2, 50, 93
4, 12528, Note_off_c, 2, 50, 0
4, 12528, Note_on_c, 2, 55, 93
4, 12624, Note_off_c, 2, 55, 0
4, 12624, Note_on_c, 2, 47, 93
4, 12672, Note_off_c, 2, 47, 0
4, 12672, Note_on_c, 2, 49, 93
4, 12720, Note_off_c, 2, 49, 0
4, 12720, Note_on_c, 2, 50, 93
4, 12768, Note_off_c, 2, 50, 0
4, 12768, Note_on_c, 2, 52, 93
4, 12816, Note_off_c, 2, 52, 0
4, 12816, Note_on_c, 2, 54, 93
4, 12864, Note_off_c, 2, 54, 0
4, 12864, Note_on_c, 2, 52, 93
4, 12912, Note_off_c, 2, 52, 0
4, 12912, Note_on_c, 2, 54, 93
4, 12960, Note_off_c, 2, 54, 0
4, 12960, Note_on_c, 2, 55, 93
4, 13008, Note_off_c, 2, 55, 0
4, 13008, Note_on_c, 2, 54, 93
4, 13056, Note_off_c, 2, 54, 0
4, 13056, Note_on_c, 2, 52, 93
4, 13104, Note_off_c, 2, 52, 0
4, 13104, Note_on_c, 2, 54, 93
4, 13152, Note_off_c, 2, 54, 0
4, 13152, Note_on_c, 2, 57, 93
4, 13200, Note_off_c, 2, 57, 0
4, 13200, Note_on_c, 2, 55, 93
4, 13248, Note_off_c, 2, 55, 0
4, 13248, Note_on_c, 2, 57, 93
4, 13344, Note_off_c, 2, 57, 0
4, 13344, Note_on_c, 2, 45, 93
4, 13392, Note_off_c, 2, 45, 0
4, 13392, Note_on_c, 2, 50, 93
4, 13488, Note_off_c, 2, 50, 0
4, 13488, Note_on_c, 2, 38, 93
4, 13536, Note_off_c, 2, 38, 0
4, 13536, Note_on_c, 2, 38, 93
4, 13632, Note_off_c, 2, 38, 0
4, 13632, Note_on_c, 2, 50, 93
4, 13680, Note_off_c, 2, 50, 0
4, 13680, Note_on_c, 2, 50, 93
4, 13824, Note_off_c, 2, 50, 0
4, 13824, Note_on_c, 2, 50, 93
4, 13872, Note_off_c, 2, 50, 0
4, 13872, Note_on_c, 2, 54, 93
4, 13920, Note_off_c, 2, 54, 0
4, 13920, Note_on_c, 2, 57, 93
4, 13968, Note_off_c, 2, 57, 0
4, 13968, Note_on_c, 2, 62, 93
4, 14016, Note_off_c, 2, 62, 0
4, 14016, Note_on_c, 2, 64, 93
4, 14040, Note_off_c, 2, 64, 0
4, 14040, Note_on_c, 2, 62, 93
4, 14064, Note_off_c, 2, 62, 0
4, 14064, Note_on_c, 2, 60, 93
4, 14088, Note_off_c, 2, 60, 0
4, 14088, Note_on_c, 2, 59, 93
4, 14112, Note_off_c, 2, 59, 0
4, 14112, Note_on_c, 2, 60, 93
4, 14160, Note_off_c, 2, 60, 0
4, 14160, Note_on_c, 2, 62, 93
4, 14184, Note_off_c, 2, 62, 0
4, 14184, Note_on_c, 2, 60, 93
4, 14208, Note_off_c, 2, 60, 0
4, 14208, Note_on_c, 2, 59, 93
4, 14232, Note_off_c, 2, 59, 0
4, 14232, Note_on_c, 2, 57, 93
4, 14256, Note_off_c, 2, 57, 0
4, 14256, Note_on_c, 2, 59, 93
4, 14448, Note_off_c, 2, 59, 0
4, 14448, Note_on_c, 2, 60, 93
4, 14496, Note_off_c, 2, 60, 0
4, 14496, Note_on_c, 2, 62, 93
4, 14544, Note_off_c, 2, 62, 0
4, 14544, Note_on_c, 2, 55, 93
4, 14592, Note_off_c, 2, 55, 0
4, 14592, Note_on_c, 2, 57, 93
4, 14640, Note_off_c, 2, 57, 0
4, 14640, Note_on_c, 2, 59, 93
4, 14688, Note_off_c, 2, 59, 0
4, 14688, Note_on_c, 2, 60, 93
4, 14736, Note_off_c, 2, 60, 0
4, 14832, Note_on_c, 2, 57, 93
4, 14880, Note_off_c, 2, 57, 0
4, 14976, Note_on_c, 2, 54, 93
4, 15024, Note_off_c, 2, 54, 0
4, 15120, Note_on_c, 2, 51, 93
4, 15216, Note_off_c, 2, 51, 0
4, 15216, Note_on_c, 2, 54, 93
4, 15264, Note_off_c, 2, 54, 0
4, 15264, Note_on_c, 2, 59, 93
4, 15456, Note_off_c, 2, 59, 0
4, 15456, Note_on_c, 2, 55, 93
4, 15504, Note_off_c, 2, 55, 0
4, 15504, Note_on_c, 2, 57, 93
4, 15552, Note_off_c, 2, 57, 0
4, 15552, Note_on_c, 2, 55, 93
4, 15600, Note_off_c, 2, 55, 0
4, 15696, Note_on_c, 2, 52, 93
4, 15744, Note_off_c, 2, 52, 0
4, 15840, Note_on_c, 2, 48, 93
4, 15888, Note_off_c, 2, 48, 0
4, 15984, Note_on_c, 2, 45, 93
4, 16080, Note_off_c, 2, 45, 0
4, 16080, Note_on_c, 2, 46, 93
4, 16128, Note_off_c, 2, 46, 0
4, 16128, Note_on_c, 2, 47, 93
4, 16176, Note_off_c, 2, 47, 0
4, 16176, Note_on_c, 2, 60, 93
4, 16200, Note_off_c, 2, 60, 0
4, 16200, Note_on_c, 2, 59, 93
4, 16224, Note_off_c, 2, 59, 0
4, 16224, Note_on_c, 2, 57, 93
4, 16248, Note_off_c, 2, 57, 0
4, 16248, Note_on_c, 2, 55, 93
4, 16272, Note_off_c, 2, 55, 0
4, 16272, Note_on_c, 2, 57, 93
4, 16320, Note_off_c, 2, 57, 0
4, 16320, Note_on_c, 2, 59, 93
4, 16344, Note_off_c, 2, 59, 0
4, 16344, Note_on_c, 2, 57, 93
4, 16368, Note_off_c, 2, 57, 0
4, 16368, Note_on_c, 2, 55, 93
4, 16392, Note_off_c, 2, 55, 0
4, 16392, Note_on_c, 2, 54, 93
4, 16416, Note_off_c, 2, 54, 0
4, 16416, Note_on_c, 2, 55, 93
4, 16464, Note_off_c, 2, 55, 0
4, 16464, Note_on_c, 2, 57, 93
4, 16488, Note_off_c, 2, 57, 0
4, 16488, Note_on_c, 2, 55, 93
4, 16512, Note_off_c, 2, 55, 0
4, 16512, Note_on_c, 2, 54, 93
4, 16536, Note_off_c, 2, 54, 0
4, 16536, Note_on_c, 2, 52, 93
4, 16560, Note_off_c, 2, 52, 0
4, 16560, Note_on_c, 2, 60, 93
4, 16608, Note_off_c, 2, 60, 0
4, 16608, Note_on_c, 2, 51, 93
4, 16656, Note_off_c, 2, 51, 0
4, 16656, Note_on_c, 2, 52, 93
4, 16704, Note_off_c, 2, 52, 0
4, 16704, Note_on_c, 2, 47, 93
4, 16752, Note_off_c, 2, 47, 0
4, 16752, Note_on_c, 2, 52, 93
4, 16800, Note_off_c, 2, 52, 0
4, 16800, Note_on_c, 2, 51, 93
4, 16848, Note_off_c, 2, 51, 0
4, 16848, Note_on_c, 2, 52, 93
4, 16860, Note_off_c, 2, 52, 0
4, 16860, Note_on_c, 2, 50, 93
4, 16872, Note_off_c, 2, 50, 0
4, 16872, Note_on_c, 2, 52, 93
4, 17040, Note_off_c, 2, 52, 0
4, 17040, Note_on_c, 2, 55, 93
4, 17088, Note_off_c, 2, 55, 0
4, 17088, Note_on_c, 2, 59, 93
4, 17136, Note_off_c, 2, 59, 0
4, 17136, Note_on_c, 2, 64, 93
4, 17232, Note_off_c, 2, 64, 0
4, 17232, Note_on_c, 2, 62, 93
4, 17280, Note_off_c, 2, 62, 0
4, 17280, Note_on_c, 2, 60, 93
4, 17472, Note_off_c, 2, 60, 0
4, 17472, Note_on_c, 2, 59, 93
4, 17520, Note_off_c, 2, 59, 0
4, 17520, Note_on_c, 2, 60, 93
4, 17568, Note_off_c, 2, 60, 0
4, 17568, Note_on_c, 2, 54, 93
4, 17616, Note_off_c, 2, 54, 0
4, 17616, Note_on_c, 2, 55, 93
4, 17664, Note_off_c, 2, 55, 0
4, 17664, Note_on_c, 2, 57, 93
4, 17712, Note_off_c, 2, 57, 0
4, 17712, Note_on_c, 2, 59, 93
4, 17760, Note_off_c, 2, 59, 0
4, 17760, Note_on_c, 2, 50, 93
4, 17808, Note_off_c, 2, 50, 0
4, 17808, Note_on_c, 2, 54, 93
4, 17856, Note_off_c, 2, 54, 0
4, 17856, Note_on_c, 2, 47, 93
4, 17904, Note_off_c, 2, 47, 0
4, 17904, Note_on_c, 2, 48, 93
4, 17952, Note_off_c, 2, 48, 0
4, 17952, Note_on_c, 2, 50, 93
4, 18000, Note_off_c, 2, 50, 0
4, 18000, Note_on_c, 2, 43, 93
4, 18048, Note_off_c, 2, 43, 0
4, 18048, Note_on_c, 2, 45, 93
4, 18096, Note_off_c, 2, 45, 0
4, 18096, Note_on_c, 2, 47, 93
4, 18144, Note_off_c, 2, 47, 0
4, 18144, Note_on_c, 2, 48, 93
4, 18288, Note_off_c, 2, 48, 0
4, 18288, Note_on_c, 2, 48, 93
4, 18432, Note_off_c, 2, 48, 0
4, 18432, Note_on_c, 2, 48, 93
4, 18624, Note_off_c, 2, 48, 0
4, 18624, Note_on_c, 2, 50, 93
4, 18648, Note_off_c, 2, 50, 0
4, 18648, Note_on_c, 2, 48, 93
4, 18672, Note_off_c, 2, 48, 0
4, 18672, Note_on_c, 2, 47, 93
4, 18696, Note_off_c, 2, 47, 0
4, 18696, Note_on_c, 2, 45, 93
4, 18720, Note_off_c, 2, 45, 0
4, 18720, Note_on_c, 2, 47, 93
4, 18768, Note_off_c, 2, 47, 0
4, 18768, Note_on_c, 2, 48, 93
4, 18816, Note_off_c, 2, 48, 0
4, 18816, Note_on_c, 2, 50, 93
4, 18864, Note_off_c, 2, 50, 0
4, 18864, Note_on_c, 2, 43, 93
4, 18912, Note_off_c, 2, 43, 0
4, 18912, Note_on_c, 2, 45, 93
4, 18960, Note_off_c, 2, 45, 0
4, 18960, Note_on_c, 2, 47, 93
4, 19008, Note_off_c, 2, 47, 0
4, 19008, Note_on_c, 2, 40, 93
4, 19056, Note_off_c, 2, 40, 0
4, 19152, Note_on_c, 2, 52, 93
4, 19200, Note_off_c, 2, 52, 0
4, 19296, Note_on_c, 2, 45, 93
4, 19344, Note_off_c, 2, 45, 0
4, 19440, Note_on_c, 2, 43, 93
4, 19488, Note_off_c, 2, 43, 0
4, 19488, Note_on_c, 2, 45, 93
4, 19536, Note_off_c, 2, 45, 0
4, 19536, Note_on_c, 2, 47, 93
4, 19584, Note_off_c, 2, 47, 0
4, 19584, Note_on_c, 2, 48, 93
4, 19632, Note_off_c, 2, 48, 0
4, 19632, Note_on_c, 2, 47, 93
4, 19680, Note_off_c, 2, 47, 0
4, 19680, Note_on_c, 2, 45, 93
4, 19728, Note_off_c, 2, 45, 0
4, 19728, Note_on_c, 2, 47, 93
4, 19776, Note_off_c, 2, 47, 0
4, 19776, Note_on_c, 2, 43, 93
4, 19824, Note_off_c, 2, 43, 0
4, 19824, Note_on_c, 2, 45, 93
4, 19872, Note_off_c, 2, 45, 0
4, 19872, Note_on_c, 2, 47, 93
4, 20064, Note_off_c, 2, 47, 0
4, 20064, Note_on_c, 2, 45, 93
4, 20112, Note_off_c, 2, 45, 0
4, 20112, Note_on_c, 2, 43, 93
4, 20160, Note_off_c, 2, 43, 0
4, 20160, Note_on_c, 2, 50, 93
4, 20256, Note_off_c, 2, 50, 0
4, 20256, Note_on_c, 2, 38, 93
4, 20304, Note_off_c, 2, 38, 0
4, 20304, Note_on_c, 2, 43, 93
4, 20400, Note_off_c, 2, 43, 0
4, 20400, Note_on_c, 2, 31, 93
4, 20448, Note_off_c, 2, 31, 0
4, 20448, Note_on_c, 2, 31, 93
4, 20544, Note_off_c, 2, 31, 0
4, 20544, Note_on_c, 2, 43, 93
4, 20592, Note_off_c, 2, 43, 0
4, 20592, Note_on_c, 2, 43, 93
4, 20736, Note_off_c, 2, 43, 0
4, 20736, Note_on_c, 2, 50, 93
4, 20784, Note_off_c, 2, 50, 0
4, 20784, Note_on_c, 2, 54, 93
4, 20832, Note_off_c, 2, 54, 0
4, 20832, Note_on_c, 2, 57, 93
4, 20880, Note_off_c, 2, 57, 0
4, 20880, Note_on_c, 2, 62, 93
4, 20928, Note_off_c, 2, 62, 0
4, 20928, Note_on_c, 2, 64, 93
4, 20952, Note_off_c, 2, 64, 0
4, 20952, Note_on_c, 2, 62, 93
4, 20976, Note_off_c, 2, 62, 0
4, 20976, Note_on_c, 2, 60, 93
4, 21000, Note_off_c, 2, 60, 0
4, 21000, Note_on_c, 2, 59, 93
4, 21024, Note_off_c, 2, 59, 0
4, 21024, Note_on_c, 2, 60, 93
4, 21072, Note_off_c, 2, 60, 0
4, 21072, Note_on_c, 2, 62, 93
4, 21096, Note_off_c, 2, 62, 0
4, 21096, Note_on_c, 2, 60, 93
4, 21120, Note_off_c, 2, 60, 0
4, 21120, Note_on_c, 2, 59, 93
4, 21144, Note_off_c, 2, 59, 0
4, 21144, Note_on_c, 2, 57, 93
4, 21168, Note_off_c, 2, 57, 0
4, 21168, Note_on_c, 2, 59, 93
4, 21360, Note_off_c, 2, 59, 0
4, 21360, Note_on_c, 2, 60, 93
4, 21408, Note_off_c, 2, 60, 0
4, 21408, Note_on_c, 2, 62, 93
4, 21456, Note_off_c, 2, 62, 0
4, 21456, Note_on_c, 2, 55, 93
4, 21504, Note_off_c, 2, 55, 0
4, 21504, Note_on_c, 2, 57, 93
4, 21552, Note_off_c, 2, 57, 0
4, 21552, Note_on_c, 2, 59, 93
4, 21600, Note_off_c, 2, 59, 0
4, 21600, Note_on_c, 2, 60, 93
4, 21648, Note_off_c, 2, 60, 0
4, 21744, Note_on_c, 2, 57, 93
4, 21792, Note_off_c, 2, 57, 0
4, 21888, Note_on_c, 2, 54, 93
4, 21936, Note_off_c, 2, 54, 0
4, 22032, Note_on_c, 2, 51, 93
4, 22128, Note_off_c, 2, 51, 0
4, 22128, Note_on_c, 2, 54, 93
4, 22176, Note_off_c, 2, 54, 0
4, 22176, Note_on_c, 2, 59, 93
4, 22368, Note_off_c, 2, 59, 0
4, 22368, Note_on_c, 2, 55, 93
4, 22416, Note_off_c, 2, 55, 0
4, 22416, Note_on_c, 2, 57, 93
4, 22464, Note_off_c, 2, 57, 0
4, 22464, Note_on_c, 2, 55, 93
4, 22512, Note_off_c, 2, 55, 0
4, 22608, Note_on_c, 2, 52, 93
4, 22656, Note_off_c, 2, 52, 0
4, 22752, Note_on_c, 2, 48, 93
4, 22800, Note_off_c, 2, 48, 0
4, 22896, Note_on_c, 2, 45, 93
4, 22992, Note_off_c, 2, 45, 0
4, 22992, Note_on_c, 2, 46, 93
4, 23040, Note_off_c, 2, 46, 0
4, 23040, Note_on_c, 2, 47, 93
4, 23088, Note_off_c, 2, 47, 0
4, 23088, Note_on_c, 2, 60, 93
4, 23112, Note_off_c, 2, 60, 0
4, 23112, Note_on_c, 2, 59, 93
4, 23136, Note_off_c, 2, 59, 0
4, 23136, Note_on_c, 2, 57, 93
4, 23160, Note_off_c, 2, 57, 0
4, 23160, Note_on_c, 2, 55, 93
4, 23184, Note_off_c, 2, 55, 0
4, 23184, Note_on_c, 2, 57, 93
4, 23232, Note_off_c, 2, 57, 0
4, 23232, Note_on_c, 2, 59, 93
4, 23256, Note_off_c, 2, 59, 0
4, 23256, Note_on_c, 2, 57, 93
4, 23280, Note_off_c, 2, 57, 0
4, 23280, Note_on_c, 2, 55, 93
4, 23304, Note_off_c, 2, 55, 0
4, 23304, Note_on_c, 2, 54, 93
4, 23328, Note_off_c, 2, 54, 0
4, 23328, Note_on_c, 2, 55, 93
4, 23376, Note_off_c, 2, 55, 0
4, 23376, Note_on_c, 2, 57, 93
4, 23400, Note_off_c, 2, 57, 0
4, 23400, Note_on_c, 2, 55, 93
4, 23424, Note_off_c, 2, 55, 0
4, 23424, Note_on_c, 2, 54, 93
4, 23448, Note_off_c, 2, 54, 0
4, 23448, Note_on_c, 2, 52, 93
4, 23472, Note_off_c, 2, 52, 0
4, 23472, Note_on_c, 2, 60, 93
4, 23520, Note_off_c, 2, 60, 0
4, 23520, Note_on_c, 2, 51, 93
4, 23568, Note_off_c, 2, 51, 0
4, 23568, Note_on_c, 2, 52, 93
4, 23616, Note_off_c, 2, 52, 0
4, 23616, Note_on_c, 2, 47, 93
4, 23664, Note_off_c, 2, 47, 0
4, 23664, Note_on_c, 2, 52, 93
4, 23712, Note_off_c, 2, 52, 0
4, 23712, Note_on_c, 2, 51, 93
4, 23760, Note_off_c, 2, 51, 0
4, 23760, Note_on_c, 2, 52, 93
4, 23772, Note_off_c, 2, 52, 0
4, 23772, Note_on_c, 2, 50, 93
4, 23784, Note_off_c, 2, 50, 0
4, 23784, Note_on_c, 2, 52, 93
4, 23952, Note_off_c, 2, 52, 0
4, 23952, Note_on_c, 2, 55, 93
4, 24000, Note_off_c, 2, 55, 0
4, 24000, Note_on_c, 2, 59, 93
4, 24048, Note_off_c, 2, 59, 0
4, 24048, Note_on_c, 2, 64, 93
4, 24144, Note_off_c, 2, 64, 0
4, 24144, Note_on_c, 2, 62, 93
4, 24192, Note_off_c, 2, 62, 0
4, 24192, Note_on_c, 2, 60, 93
4, 24384, Note_off_c, 2, 60, 0
4, 24384, Note_on_c, 2, 59, 93
4, 24432, Note_off_c, 2, 59, 0
4, 24432, Note_on_c, 2, 60, 93
4, 24480, Note_off_c, 2, 60, 0
4, 24480, Note_on_c, 2, 54, 93
4, 24528, Note_off_c, 2, 54, 0
4, 24528, Note_on_c, 2, 55, 93
4, 24576, Note_off_c, 2, 55, 0
4, 24576, Note_on_c, 2, 57, 93
4, 24624, Note_off_c, 2, 57, 0
4, 24624, Note_on_c, 2, 59, 93
4, 24672, Note_off_c, 2, 59, 0
4, 24672, Note_on_c, 2, 50, 93
4, 24720, Note_off_c, 2, 50, 0
4, 24720, Note_on_c, 2, 54, 93
4, 24768, Note_off_c, 2, 54, 0
4, 24768, Note_on_c, 2, 47, 93
4, 24816, Note_off_c, 2, 47, 0
4, 24816, Note_on_c, 2, 48, 93
4, 24864, Note_off_c, 2, 48, 0
4, 24864, Note_on_c, 2, 50, 93
4, 24912, Note_off_c, 2, 50, 0
4, 24912, Note_on_c, 2, 43, 93
4, 24960, Note_off_c, 2, 43, 0
4, 24960, Note_on_c, 2, 45, 93
4, 25008, Note_off_c, 2, 45, 0
4, 25008, Note_on_c, 2, 47, 93
4, 25056, Note_off_c, 2, 47, 0
4, 25056, Note_on_c, 2, 48, 93
4, 25200, Note_off_c, 2, 48, 0
4, 25200, Note_on_c, 2, 48, 93
4, 25344, Note_off_c, 2, 48, 0
4, 25344, Note_on_c, 2, 48, 93
4, 25536, Note_off_c, 2, 48, 0
4, 25536, Note_on_c, 2, 50, 93
4, 25560, Note_off_c, 2, 50, 0
4, 25560, Note_on_c, 2, 48, 93
4, 25584, Note_off_c, 2, 48, 0
4, 25584, Note_on_c, 2, 47, 93
4, 25608, Note_off_c, 2, 47, 0
4, 25608, Note_on_c, 2, 45, 93
4, 25632, Note_off_c, 2, 45, 0
4, 25632, Note_on_c, 2, 47, 93
4, 25680, Note_off_c, 2, 47, 0
4, 25680, Note_on_c, 2, 48, 93
4, 25728, Note_off_c, 2, 48, 0
4, 25728, Note_on_c, 2, 50, 93
4, 25776, Note_off_c, 2, 50, 0
4, 25776, Note_on_c, 2, 43, 93
4, 25824, Note_off_c, 2, 43, 0
4, 25824, Note_on_c, 2, 45, 93
4, 25872, Note_off_c, 2, 45, 0
4, 25872, Note_on_c, 2, 47, 93
4, 25920, Note_off_c, 2, 47, 0
4, 25920, Note_on_c, 2, 40, 93
4, 25968, Note_off_c, 2, 40, 0
4, 26064, Note_on_c, 2, 52, 93
4, 26112, Note_off_c, 2, 52, 0
4, 26208, Note_on_c, 2, 45, 93
4, 26256, Note_off_c, 2, 45, 0
4, 26352, Note_on_c, 2, 43, 93
4, 26400, Note_off_c, 2, 43, 0
4, 26400, Note_on_c, 2, 45, 93
4, 26448, Note_off_c, 2, 45, 0
4, 26448, Note_on_c, 2, 47, 93
4, 26496, Note_off_c, 2, 47, 0
4, 26496, Note_on_c, 2, 48, 93
4, 26544, Note_off_c, 2, 48, 0
4, 26544, Note_on_c, 2, 47, 93
4, 26592, Note_off_c, 2, 47, 0
4, 26592, Note_on_c, 2, 45, 93
4, 26640, Note_off_c, 2, 45, 0
4, 26640, Note_on_c, 2, 47, 93
4, 26688, Note_off_c, 2, 47, 0
4, 26688, Note_on_c, 2, 43, 93
4, 26736, Note_off_c, 2, 43, 0
4, 26736, Note_on_c, 2, 45, 93
4, 26784, Note_off_c, 2, 45, 0
4, 26784, Note_on_c, 2, 47, 93
4, 26976, Note_off_c, 2, 47, 0
4, 26976, Note_on_c, 2, 45, 93
4, 27024, Note_off_c, 2, 45, 0
4, 27024, Note_on_c, 2, 43, 93
4, 27072, Note_off_c, 2, 43, 0
4, 27072, Note_on_c, 2, 50, 93
4, 27168, Note_off_c, 2, 50, 0
4, 27168, Note_on_c, 2, 38, 93
4, 27216, Note_off_c, 2, 38, 0
4, 27216, Note_on_c, 2, 43, 93
4, 27312, Note_off_c, 2, 43, 0
4, 27312, Note_on_c, 2, 31, 93
4, 27360, Note_off_c, 2, 31, 0
4, 27360, Note_on_c, 2, 31, 93
4, 27456, Note_off_c, 2, 31, 0
4, 27456, Note_on_c, 2, 43, 93
4, 27504, Note_off_c, 2, 43, 0
4, 27504, Note_on_c, 2, 43, 93
4, 27648, Note_off_c, 2, 43, 0
4, 27648, End_track
0, 0, End_of_file
