0, 0, Header, 1, 4, 96
1, 0, Start_track
1, 0, Time_signature, 4, 2, 24, 8
1, 0, Title_t, "untitled"
1, 0, Title_t, "Track1"
1, 0, End_track
2, 0, Start_track
2, 0, Title_t, "Track2"
2, 0, Program_c, 0, 6
2, 0, Control_c, 0, 7, 100
2, 0, Control_c, 0, 10, 74
2, 24, Note_on_c, 0, 67, 93
2, 48, Note_off_c, 0, 67, 0
2, 48, Note_on_c, 0, 67, 93
2, 72, Note_off_c, 0, 67, 0
2, 72, Note_on_c, 0, 65, 93
2, 96, Note_off_c, 0, 65, 0
2, 96, Note_on_c, 0, 65, 93
2, 120, Note_off_c, 0, 65, 0
2, 120, Note_on_c, 0, 63, 93
2, 144, Note_off_c, 0, 63, 0
2, 144, Note_on_c, 0, 63, 93
2, 168, Note_off_c, 0, 63, 0
2, 168, Note_on_c, 0, 62, 93
2, 192, Note_off_c, 0, 62, 0
2, 192, Note_on_c, 0, 62, 93
2, 312, Note_off_c, 0, 62, 0
2, 312, Note_on_c, 0, 60, 93
2, 336, Note_off_c, 0, 60, 0
2, 336, Note_on_c, 0, 58, 93
2, 360, Note_off_c, 0, 58, 0
2, 360, Note_on_c, 0, 57, 93
2, 384, Note_off_c, 0, 57, 0
2, 384, Note_on_c, 0, 55, 93
2, 408, Note_off_c, 0, 55, 0
2, 408, Note_on_c, 0, 61, 93
2, 432, Note_off_c, 0, 61, 0
2, 432, Note_on_c, 0, 61, 93
2, 444, Note_off_c, 0, 61, 0
2, 444, Note_on_c, 0, 62, 93
2, 456, Note_off_c, 0, 62, 0
2, 456, Note_on_c, 0, 61, 93
2, 480, Note_off_c, 0, 61, 0
2, 480, Note_on_c, 0, 67, 93
2, 624, Note_off_c, 0, 67, 0
2, 624, Note_on_c, 0, 66, 93
2, 648, Note_off_c, 0, 66, 0
2, 648, Note_on_c, 0, 64, 93
2, 672, Note_off_c, 0, 64, 0
2, 672, Note_on_c, 0, 66, 93
2, 696, Note_off_c, 0, 66, 0
2, 696, Note_on_c, 0, 67, 93
2, 720, Note_off_c, 0, 67, 0
2, 720, Note_on_c, 0, 67, 93
2, 744, Note_off_c, 0, 67, 0
2, 744, Note_on_c, 0, 69, 93
2, 768, Note_off_c, 0, 69, 0
2, 768, Note_on_c, 0, 70, 93
2, 816, Note_off_c, 0, 70, 0
2, 912, Note_on_c, 0, 69, 93
2, 960, Note_off_c, 0, 69, 0
2, 960, Note_on_c, 0, 62, 93
2, 972, Note_off_c, 0, 62, 0
2, 972, Note_on_c, 0, 60, 93
2, 984, Note_off_c, 0, 60, 0
2, 984, Note_on_c, 0, 63, 93
2, 1008, Note_off_c, 0, 63, 0
2, 1008, Note_on_c, 0, 62, 93
2, 1032, Note_off_c, 0, 62, 0
2, 1032, Note_on_c, 0, 60, 93
2, 1056, Note_off_c, 0, 60, 0
2, 1056, Note_on_c, 0, 58, 93
2, 1080, Note_off_c, 0, 58, 0
2, 1080, Note_on_c, 0, 57, 93
2, 1104, Note_off_c, 0, 57, 0
2, 1104, Note_on_c, 0, 55, 93
2, 1128, Note_off_c, 0, 55, 0
2, 1128, Note_on_c, 0, 57, 93
2, 1152, Note_off_c, 0, 57, 0
2, 1152, Note_on_c, 0, 58, 93
2, 1176, Note_off_c, 0, 58, 0
2, 1176, Note_on_c, 0, 62, 93
2, 1200, Note_off_c, 0, 62, 0
2, 1200, Note_on_c, 0, 67, 93
2, 1296, Note_off_c, 0, 67, 0
2, 1296, Note_on_c, 0, 66, 93
2, 1344, Note_off_c, 0, 66, 0
2, 1344, Note_on_c, 0, 67, 93
2, 1392, Note_off_c, 0, 67, 0
2, 1464, Note_on_c, 0, 66, 93
2, 1488, Note_off_c, 0, 66, 0
2, 1488, Note_on_c, 0, 67, 93
2, 1512, Note_off_c, 0, 67, 0
2, 1512, Note_on_c, 0, 69, 93
2, 1536, Note_off_c, 0, 69, 0
2, 1536, Note_on_c, 0, 70, 93
2, 1560, Note_off_c, 0, 70, 0
2, 1560, Note_on_c, 0, 69, 93
2, 1584, Note_off_c, 0, 69, 0
2, 1584, Note_on_c, 0, 69, 93
2, 1608, Note_off_c, 0, 69, 0
2, 1608, Note_on_c, 0, 67, 93
2, 1632, Note_off_c, 0, 67, 0
2, 1632, Note_on_c, 0, 67, 93
2, 1656, Note_off_c, 0, 67, 0
2, 1656, Note_on_c, 0, 66, 93
2, 1680, Note_off_c, 0, 66, 0
2, 1680, Note_on_c, 0, 66, 93
2, 1704, Note_off_c, 0, 66, 0
2, 1704, Note_on_c, 0, 67, 93
2, 1728, Note_off_c, 0, 67, 0
2, 1728, Note_on_c, 0, 67, 93
2, 1776, Note_off_c, 0, 67, 0
2, 1872, Note_on_c, 0, 60, 93
2, 1920, Note_off_c, 0, 60, 0
2, 1920, Note_on_c, 0, 58, 93
2, 1968, Note_off_c, 0, 58, 0
2, 1968, Note_on_c, 0, 67, 93
2, 1992, Note_off_c, 0, 67, 0
2, 1992, Note_on_c, 0, 65, 93
2, 2040, Note_off_c, 0, 65, 0
2, 2040, Note_on_c, 0, 64, 93
2, 2088, Note_off_c, 0, 64, 0
2, 2088, Note_on_c, 0, 62, 93
2, 2112, Note_off_c, 0, 62, 0
2, 2112, Note_on_c, 0, 61, 93
2, 2160, Note_off_c, 0, 61, 0
2, 2160, Note_on_c, 0, 70, 93
2, 2208, Note_off_c, 0, 70, 0
2, 2208, Note_on_c, 0, 69, 93
2, 2256, Note_off_c, 0, 69, 0
2, 2256, Note_on_c, 0, 61, 93
2, 2304, Note_off_c, 0, 61, 0
2, 2352, Note_on_c, 0, 62, 93
2, 2364, Note_off_c, 0, 62, 0
2, 2364, Note_on_c, 0, 61, 93
2, 2376, Note_off_c, 0, 61, 0
2, 2376, Note_on_c, 0, 62, 93
2, 2424, Note_off_c, 0, 62, 0
2, 2424, Note_on_c, 0, 62, 93
2, 2472, Note_off_c, 0, 62, 0
2, 2472, Note_on_c, 0, 62, 93
2, 2520, Note_off_c, 0, 62, 0
2, 2520, Note_on_c, 0, 64, 93
2, 2532, Note_off_c, 0, 64, 0
2, 2532, Note_on_c, 0, 62, 93
2, 2544, Note_off_c, 0, 62, 0
2, 2544, Note_on_c, 0, 61, 93
2, 2568, Note_off_c, 0, 61, 0
2, 2568, Note_on_c, 0, 59, 93
2, 2592, Note_off_c, 0, 59, 0
2, 2592, Note_on_c, 0, 61, 93
2, 2616, Note_off_c, 0, 61, 0
2, 2616, Note_on_c, 0, 64, 93
2, 2640, Note_off_c, 0, 64, 0
2, 2640, Note_on_c, 0, 69, 93
2, 2688, Note_off_c, 0, 69, 0
2, 2736, Note_on_c, 0, 62, 93
2, 2808, Note_off_c, 0, 62, 0
2, 2808, Note_on_c, 0, 64, 93
2, 2820, Note_off_c, 0, 64, 0
2, 2820, Note_on_c, 0, 65, 93
2, 2832, Note_off_c, 0, 65, 0
2, 2832, Note_on_c, 0, 64, 93
2, 2844, Note_off_c, 0, 64, 0
2, 2844, Note_on_c, 0, 62, 93
2, 2856, Note_off_c, 0, 62, 0
2, 2856, Note_on_c, 0, 64, 93
2, 2880, Note_off_c, 0, 64, 0
2, 2880, Note_on_c, 0, 62, 93
2, 2976, Note_off_c, 0, 62, 0
2, 3096, Note_on_c, 0, 67, 93
2, 3120, Note_off_c, 0, 67, 0
2, 3120, Note_on_c, 0, 67, 93
2, 3144, Note_off_c, 0, 67, 0
2, 3144, Note_on_c, 0, 65, 93
2, 3168, Note_off_c, 0, 65, 0
2, 3168, Note_on_c, 0, 65, 93
2, 3192, Note_off_c, 0, 65, 0
2, 3192, Note_on_c, 0, 63, 93
2, 3216, Note_off_c, 0, 63, 0
2, 3216, Note_on_c, 0, 63, 93
2, 3240, Note_off_c, 0, 63, 0
2, 3240, Note_on_c, 0, 62, 93
2, 3264, Note_off_c, 0, 62, 0
2, 3264, Note_on_c, 0, 62, 93
2, 3384, Note_off_c, 0, 62, 0
2, 3384, Note_on_c, 0, 60, 93
2, 3408, Note_off_c, 0, 60, 0
2, 3408, Note_on_c, 0, 58, 93
2, 3432, Note_off_c, 0, 58, 0
2, 3432, Note_on_c, 0, 57, 93
2, 3456, Note_off_c, 0, 57, 0
2, 3456, Note_on_c, 0, 55, 93
2, 3480, Note_off_c, 0, 55, 0
2, 3480, Note_on_c, 0, 61, 93
2, 3504, Note_off_c, 0, 61, 0
2, 3504, Note_on_c, 0, 61, 93
2, 3516, Note_off_c, 0, 61, 0
2, 3516, Note_on_c, 0, 62, 93
2, 3528, Note_off_c, 0, 62, 0
2, 3528, Note_on_c, 0, 61, 93
2, 3552, Note_off_c, 0, 61, 0
2, 3552, Note_on_c, 0, 67, 93
2, 3696, Note_off_c, 0, 67, 0
2, 3696, Note_on_c, 0, 66, 93
2, 3720, Note_off_c, 0, 66, 0
2, 3720, Note_on_c, 0, 64, 93
2, 3744, Note_off_c, 0, 64, 0
2, 3744, Note_on_c, 0, 66, 93
2, 3768, Note_off_c, 0, 66, 0
2, 3768, Note_on_c, 0, 67, 93
2, 3792, Note_off_c, 0, 67, 0
2, 3792, Note_on_c, 0, 67, 93
2, 3816, Note_off_c, 0, 67, 0
2, 3816, Note_on_c, 0, 69, 93
2, 3840, Note_off_c, 0, 69, 0
2, 3840, Note_on_c, 0, 70, 93
2, 3888, Note_off_c, 0, 70, 0
2, 3984, Note_on_c, 0, 69, 93
2, 4032, Note_off_c, 0, 69, 0
2, 4032, Note_on_c, 0, 62, 93
2, 4044, Note_off_c, 0, 62, 0
2, 4044, Note_on_c, 0, 60, 93
2, 4056, Note_off_c, 0, 60, 0
2, 4056, Note_on_c, 0, 63, 93
2, 4080, Note_off_c, 0, 63, 0
2, 4080, Note_on_c, 0, 62, 93
2, 4104, Note_off_c, 0, 62, 0
2, 4104, Note_on_c, 0, 60, 93
2, 4128, Note_off_c, 0, 60, 0
2, 4128, Note_on_c, 0, 58, 93
2, 4152, Note_off_c, 0, 58, 0
2, 4152, Note_on_c, 0, 57, 93
2, 4176, Note_off_c, 0, 57, 0
2, 4176, Note_on_c, 0, 55, 93
2, 4200, Note_off_c, 0, 55, 0
2, 4200, Note_on_c, 0, 57, 93
2, 4224, Note_off_c, 0, 57, 0
2, 4224, Note_on_c, 0, 58, 93
2, 4248, Note_off_c, 0, 58, 0
2, 4248, Note_on_c, 0, 62, 93
2, 4272, Note_off_c, 0, 62, 0
2, 4272, Note_on_c, 0, 67, 93
2, 4368, Note_off_c, 0, 67, 0
2, 4368, Note_on_c, 0, 66, 93
2, 4416, Note_off_c, 0, 66, 0
2, 4416, Note_on_c, 0, 67, 93
2, 4464, Note_off_c, 0, 67, 0
2, 4536, Note_on_c, 0, 66, 93
2, 4560, Note_off_c, 0, 66, 0
2, 4560, Note_on_c, 0, 67, 93
2, 4584, Note_off_c, 0, 67, 0
2, 4584, Note_on_c, 0, 69, 93
2, 4608, Note_off_c, 0, 69, 0
2, 4608, Note_on_c, 0, 70, 93
2, 4632, Note_off_c, 0, 70, 0
2, 4632, Note_on_c, 0, 69, 93
2, 4656, Note_off_c, 0, 69, 0
2, 4656, Note_on_c, 0, 69, 93
2, 4680, Note_off_c, 0, 69, 0
2, 4680, Note_on_c, 0, 67, 93
2, 4704, Note_off_c, 0, 67, 0
2, 4704, Note_on_c, 0, 67, 93
2, 4728, Note_off_c, 0, 67, 0
2, 4728, Note_on_c, 0, 66, 93
2, 4752, Note_off_c, 0, 66, 0
2, 4752, Note_on_c, 0, 66, 93
2, 4776, Note_off_c, 0, 66, 0
2, 4776, Note_on_c, 0, 67, 93
2, 4800, Note_off_c, 0, 67, 0
2, 4800, Note_on_c, 0, 67, 93
2, 4848, Note_off_c, 0, 67, 0
2, 4944, Note_on_c, 0, 60, 93
2, 4992, Note_off_c, 0, 60, 0
2, 4992, Note_on_c, 0, 58, 93
2, 5040, Note_off_c, 0, 58, 0
2, 5040, Note_on_c, 0, 67, 93
2, 5064, Note_off_c, 0, 67, 0
2, 5064, Note_on_c, 0, 65, 93
2, 5112, Note_off_c, 0, 65, 0
2, 5112, Note_on_c, 0, 64, 93
2, 5160, Note_off_c, 0, 64, 0
2, 5160, Note_on_c, 0, 62, 93
2, 5184, Note_off_c, 0, 62, 0
2, 5184, Note_on_c, 0, 61, 93
2, 5232, Note_off_c, 0, 61, 0
2, 5232, Note_on_c, 0, 70, 93
2, 5280, Note_off_c, 0, 70, 0
2, 5280, Note_on_c, 0, 69, 93
2, 5328, Note_off_c, 0, 69, 0
2, 5328, Note_on_c, 0, 61, 93
2, 5376, Note_off_c, 0, 61, 0
2, 5424, Note_on_c, 0, 62, 93
2, 5436, Note_off_c, 0, 62, 0
2, 5436, Note_on_c, 0, 61, 93
2, 5448, Note_off_c, 0, 61, 0
2, 5448, Note_on_c, 0, 62, 93
2, 5496, Note_off_c, 0, 62, 0
2, 5496, Note_on_c, 0, 62, 93
2, 5544, Note_off_c, 0, 62, 0
2, 5544, Note_on_c, 0, 62, 93
2, 5592, Note_off_c, 0, 62, 0
2, 5592, Note_on_c, 0, 64, 93
2, 5604, Note_off_c, 0, 64, 0
2, 5604, Note_on_c, 0, 62, 93
2, 5616, Note_off_c, 0, 62, 0
2, 5616, Note_on_c, 0, 61, 93
2, 5640, Note_off_c, 0, 61, 0
2, 5640, Note_on_c, 0, 59, 93
2, 5664, Note_off_c, 0, 59, 0
2, 5664, Note_on_c, 0, 61, 93
2, 5688, Note_off_c, 0, 61, 0
2, 5688, Note_on_c, 0, 64, 93
2, 5712, Note_off_c, 0, 64, 0
2, 5712, Note_on_c, 0, 69, 93
2, 5760, Note_off_c, 0, 69, 0
2, 5808, Note_on_c, 0, 62, 93
2, 5880, Note_off_c, 0, 62, 0
2, 5880, Note_on_c, 0, 64, 93
2, 5892, Note_off_c, 0, 64, 0
2, 5892, Note_on_c, 0, 65, 93
2, 5904, Note_off_c, 0, 65, 0
2, 5904, Note_on_c, 0, 64, 93
2, 5916, Note_off_c, 0, 64, 0
2, 5916, Note_on_c, 0, 62, 93
2, 5928, Note_off_c, 0, 62, 0
2, 5928, Note_on_c, 0, 64, 93
2, 5952, Note_off_c, 0, 64, 0
2, 5952, Note_on_c, 0, 62, 93
2, 6048, Note_off_c, 0, 62, 0
2, 6192, Note_on_c, 0, 66, 93
2, 6240, Note_off_c, 0, 66, 0
2, 6240, Note_on_c, 0, 67, 93
2, 6288, Note_off_c, 0, 67, 0
2, 6288, Note_on_c, 0, 69, 93
2, 6336, Note_off_c, 0, 69, 0
2, 6336, Note_on_c, 0, 62, 93
2, 6360, Note_off_c, 0, 62, 0
2, 6360, Note_on_c, 0, 74, 93
2, 6408, Note_off_c, 0, 74, 0
2, 6408, Note_on_c, 0, 72, 93
2, 6456, Note_off_c, 0, 72, 0
2, 6456, Note_on_c, 0, 70, 93
2, 6504, Note_off_c, 0, 70, 0
2, 6504, Note_on_c, 0, 69, 93
2, 6528, Note_off_c, 0, 69, 0
2, 6528, Note_on_c, 0, 70, 93
2, 6576, Note_off_c, 0, 70, 0
2, 6576, Note_on_c, 0, 63, 93
2, 6624, Note_off_c, 0, 63, 0
2, 6624, Note_on_c, 0, 62, 93
2, 6672, Note_off_c, 0, 62, 0
2, 6672, Note_on_c, 0, 67, 93
2, 6720, Note_off_c, 0, 67, 0
2, 6720, Note_on_c, 0, 65, 93
2, 6744, Note_off_c, 0, 65, 0
2, 6744, Note_on_c, 0, 67, 93
2, 6768, Note_off_c, 0, 67, 0
2, 6768, Note_on_c, 0, 68, 93
2, 6816, Note_off_c, 0, 68, 0
2, 6840, Note_on_c, 0, 70, 93
2, 6888, Note_off_c, 0, 70, 0
2, 6888, Note_on_c, 0, 68, 93
2, 6912, Note_off_c, 0, 68, 0
2, 6912, Note_on_c, 0, 67, 93
2, 6936, Note_off_c, 0, 67, 0
2, 6936, Note_on_c, 0, 70, 93
2, 6960, Note_off_c, 0, 70, 0
2, 6960, Note_on_c, 0, 75, 93
2, 6984, Note_off_c, 0, 75, 0
2, 6984, Note_on_c, 0, 79, 93
2, 7008, Note_off_c, 0, 79, 0
2, 7008, Note_on_c, 0, 77, 93
2, 7032, Note_off_c, 0, 77, 0
2, 7032, Note_on_c, 0, 75, 93
2, 7056, Note_off_c, 0, 75, 0
2, 7056, Note_on_c, 0, 74, 93
2, 7080, Note_off_c, 0, 74, 0
2, 7080, Note_on_c, 0, 72, 93
2, 7104, Note_off_c, 0, 72, 0
2, 7104, Note_on_c, 0, 70, 93
2, 7320, Note_off_c, 0, 70, 0
2, 7320, Note_on_c, 0, 68, 93
2, 7332, Note_off_c, 0, 68, 0
2, 7332, Note_on_c, 0, 67, 93
2, 7344, Note_off_c, 0, 67, 0
2, 7344, Note_on_c, 0, 65, 93
2, 7356, Note_off_c, 0, 65, 0
2, 7356, Note_on_c, 0, 67, 93
2, 7368, Note_off_c, 0, 67, 0
2, 7368, Note_on_c, 0, 68, 93
2, 7392, Note_off_c, 0, 68, 0
2, 7392, Note_on_c, 0, 67, 93
2, 7416, Note_off_c, 0, 67, 0
2, 7416, Note_on_c, 0, 65, 93
2, 7428, Note_off_c, 0, 65, 0
2, 7428, Note_on_c, 0, 63, 93
2, 7440, Note_off_c, 0, 63, 0
2, 7440, Note_on_c, 0, 65, 93
2, 7452, Note_off_c, 0, 65, 0
2, 7452, Note_on_c, 0, 63, 93
2, 7464, Note_off_c, 0, 63, 0
2, 7464, Note_on_c, 0, 62, 93
2, 7488, Note_off_c, 0, 62, 0
2, 7488, Note_on_c, 0, 63, 93
2, 7536, Note_off_c, 0, 63, 0
2, 7704, Note_on_c, 0, 68, 93
2, 7728, Note_off_c, 0, 68, 0
2, 7728, Note_on_c, 0, 68, 93
2, 7752, Note_off_c, 0, 68, 0
2, 7752, Note_on_c, 0, 67, 93
2, 7776, Note_off_c, 0, 67, 0
2, 7776, Note_on_c, 0, 66, 93
2, 7800, Note_off_c, 0, 66, 0
2, 7800, Note_on_c, 0, 65, 93
2, 7824, Note_off_c, 0, 65, 0
2, 7824, Note_on_c, 0, 74, 93
2, 7848, Note_off_c, 0, 74, 0
2, 7848, Note_on_c, 0, 65, 93
2, 7872, Note_off_c, 0, 65, 0
2, 7872, Note_on_c, 0, 63, 93
2, 7992, Note_off_c, 0, 63, 0
2, 7992, Note_on_c, 0, 62, 93
2, 8016, Note_off_c, 0, 62, 0
2, 8016, Note_on_c, 0, 60, 93
2, 8040, Note_off_c, 0, 60, 0
2, 8040, Note_on_c, 0, 58, 93
2, 8064, Note_off_c, 0, 58, 0
2, 8064, Note_on_c, 0, 57, 93
2, 8088, Note_off_c, 0, 57, 0
2, 8088, Note_on_c, 0, 58, 93
2, 8112, Note_off_c, 0, 58, 0
2, 8112, Note_on_c, 0, 60, 93
2, 8136, Note_off_c, 0, 60, 0
2, 8136, Note_on_c, 0, 62, 93
2, 8160, Note_off_c, 0, 62, 0
2, 8160, Note_on_c, 0, 63, 93
2, 8184, Note_off_c, 0, 63, 0
2, 8184, Note_on_c, 0, 62, 93
2, 8208, Note_off_c, 0, 62, 0
2, 8208, Note_on_c, 0, 63, 93
2, 8280, Note_off_c, 0, 63, 0
2, 8280, Note_on_c, 0, 60, 93
2, 8304, Note_off_c, 0, 60, 0
2, 8304, Note_on_c, 0, 62, 93
2, 8352, Note_off_c, 0, 62, 0
2, 8400, Note_on_c, 0, 69, 93
2, 8448, Note_off_c, 0, 69, 0
2, 8448, Note_on_c, 0, 74, 93
2, 8520, Note_off_c, 0, 74, 0
2, 8520, Note_on_c, 0, 72, 93
2, 8544, Note_off_c, 0, 72, 0
2, 8544, Note_on_c, 0, 70, 93
2, 8568, Note_off_c, 0, 70, 0
2, 8568, Note_on_c, 0, 69, 93
2, 8592, Note_off_c, 0, 69, 0
2, 8592, Note_on_c, 0, 67, 93
2, 8616, Note_off_c, 0, 67, 0
2, 8616, Note_on_c, 0, 65, 93
2, 8640, Note_off_c, 0, 65, 0
2, 8640, Note_on_c, 0, 63, 93
2, 8664, Note_off_c, 0, 63, 0
2, 8664, Note_on_c, 0, 62, 93
2, 8688, Note_off_c, 0, 62, 0
2, 8688, Note_on_c, 0, 60, 93
2, 8712, Note_off_c, 0, 60, 0
2, 8712, Note_on_c, 0, 63, 93
2, 8736, Note_off_c, 0, 63, 0
2, 8736, Note_on_c, 0, 62, 93
2, 8760, Note_off_c, 0, 62, 0
2, 8760, Note_on_c, 0, 64, 93
2, 8784, Note_off_c, 0, 64, 0
2, 8784, Note_on_c, 0, 66, 93
2, 8796, Note_off_c, 0, 66, 0
2, 8796, Note_on_c, 0, 67, 93
2, 8808, Note_off_c, 0, 67, 0
2, 8808, Note_on_c, 0, 57, 93
2, 8856, Note_off_c, 0, 57, 0
2, 8856, Note_on_c, 0, 63, 93
2, 8880, Note_off_c, 0, 63, 0
2, 8880, Note_on_c, 0, 62, 93
2, 8904, Note_off_c, 0, 62, 0
2, 8904, Note_on_c, 0, 60, 93
2, 8928, Note_off_c, 0, 60, 0
2, 8928, Note_on_c, 0, 58, 93
2, 8952, Note_off_c, 0, 58, 0
2, 8952, Note_on_c, 0, 57, 93
2, 8976, Note_off_c, 0, 57, 0
2, 8976, Note_on_c, 0, 55, 93
2, 9000, Note_off_c, 0, 55, 0
2, 9000, Note_on_c, 0, 54, 93
2, 9024, Note_off_c, 0, 54, 0
2, 9024, Note_on_c, 0, 55, 93
2, 9120, Note_off_c, 0, 55, 0
2, 9264, Note_on_c, 0, 66, 93
2, 9312, Note_off_c, 0, 66, 0
2, 9312, Note_on_c, 0, 67, 93
2, 9360, Note_off_c, 0, 67, 0
2, 9360, Note_on_c, 0, 69, 93
2, 9408, Note_off_c, 0, 69, 0
2, 9408, Note_on_c, 0, 62, 93
2, 9432, Note_off_c, 0, 62, 0
2, 9432, Note_on_c, 0, 74, 93
2, 9480, Note_off_c, 0, 74, 0
2, 9480, Note_on_c, 0, 72, 93
2, 9528, Note_off_c, 0, 72, 0
2, 9528, Note_on_c, 0, 70, 93
2, 9576, Note_off_c, 0, 70, 0
2, 9576, Note_on_c, 0, 69, 93
2, 9600, Note_off_c, 0, 69, 0
2, 9600, Note_on_c, 0, 70, 93
2, 9648, Note_off_c, 0, 70, 0
2, 9648, Note_on_c, 0, 63, 93
2, 9696, Note_off_c, 0, 63, 0
2, 9696, Note_on_c, 0, 62, 93
2, 9744, Note_off_c, 0, 62, 0
2, 9744, Note_on_c, 0, 67, 93
2, 9792, Note_off_c, 0, 67, 0
2, 9792, Note_on_c, 0, 65, 93
2, 9816, Note_off_c, 0, 65, 0
2, 9816, Note_on_c, 0, 67, 93
2, 9840, Note_off_c, 0, 67, 0
2, 9840, Note_on_c, 0, 68, 93
2, 9888, Note_off_c, 0, 68, 0
2, 9912, Note_on_c, 0, 70, 93
2, 9960, Note_off_c, 0, 70, 0
2, 9960, Note_on_c, 0, 68, 93
2, 9984, Note_off_c, 0, 68, 0
2, 9984, Note_on_c, 0, 67, 93
2, 10008, Note_off_c, 0, 67, 0
2, 10008, Note_on_c, 0, 70, 93
2, 10032, Note_off_c, 0, 70, 0
2, 10032, Note_on_c, 0, 75, 93
2, 10056, Note_off_c, 0, 75, 0
2, 10056, Note_on_c, 0, 79, 93
2, 10080, Note_off_c, 0, 79, 0
2, 10080, Note_on_c, 0, 77, 93
2, 10104, Note_off_c, 0, 77, 0
2, 10104, Note_on_c, 0, 75, 93
2, 10128, Note_off_c, 0, 75, 0
2, 10128, Note_on_c, 0, 74, 93
2, 10152, Note_off_c, 0, 74, 0
2, 10152, Note_on_c, 0, 72, 93
2, 10176, Note_off_c, 0, 72, 0
2, 10176, Note_on_c, 0, 70, 93
2, 10392, Note_off_c, 0, 70, 0
2, 10392, Note_on_c, 0, 68, 93
2, 10404, Note_off_c, 0, 68, 0
2, 10404, Note_on_c, 0, 67, 93
2, 10416, Note_off_c, 0, 67, 0
2, 10416, Note_on_c, 0, 65, 93
2, 10428, Note_off_c, 0, 65, 0
2, 10428, Note_on_c, 0, 67, 93
2, 10440, Note_off_c, 0, 67, 0
2, 10440, Note_on_c, 0, 68, 93
2, 10464, Note_off_c, 0, 68, 0
2, 10464, Note_on_c, 0, 67, 93
2, 10488, Note_off_c, 0, 67, 0
2, 10488, Note_on_c, 0, 65, 93
2, 10500, Note_off_c, 0, 65, 0
2, 10500, Note_on_c, 0, 63, 93
2, 10512, Note_off_c, 0, 63, 0
2, 10512, Note_on_c, 0, 65, 93
2, 10524, Note_off_c, 0, 65, 0
2, 10524, Note_on_c, 0, 63, 93
2, 10536, Note_off_c, 0, 63, 0
2, 10536, Note_on_c, 0, 62, 93
2, 10560, Note_off_c, 0, 62, 0
2, 10560, Note_on_c, 0, 63, 93
2, 10608, Note_off_c, 0, 63, 0
2, 10776, Note_on_c, 0, 68, 93
2, 10800, Note_off_c, 0, 68, 0
2, 10800, Note_on_c, 0, 68, 93
2, 10824, Note_off_c, 0, 68, 0
2, 10824, Note_on_c, 0, 67, 93
2, 10848, Note_off_c, 0, 67, 0
2, 10848, Note_on_c, 0, 66, 93
2, 10872, Note_off_c, 0, 66, 0
2, 10872, Note_on_c, 0, 65, 93
2, 10896, Note_off_c, 0, 65, 0
2, 10896, Note_on_c, 0, 74, 93
2, 10920, Note_off_c, 0, 74, 0
2, 10920, Note_on_c, 0, 65, 93
2, 10944, Note_off_c, 0, 65, 0
2, 10944, Note_on_c, 0, 63, 93
2, 11064, Note_off_c, 0, 63, 0
2, 11064, Note_on_c, 0, 62, 93
2, 11088, Note_off_c, 0, 62, 0
2, 11088, Note_on_c, 0, 60, 93
2, 11112, Note_off_c, 0, 60, 0
2, 11112, Note_on_c, 0, 58, 93
2, 11136, Note_off_c, 0, 58, 0
2, 11136, Note_on_c, 0, 57, 93
2, 11160, Note_off_c, 0, 57, 0
2, 11160, Note_on_c, 0, 58, 93
2, 11184, Note_off_c, 0, 58, 0
2, 11184, Note_on_c, 0, 60, 93
2, 11208, Note_off_c, 0, 60, 0
2, 11208, Note_on_c, 0, 62, 93
2, 11232, Note_off_c, 0, 62, 0
2, 11232, Note_on_c, 0, 63, 93
2, 11256, Note_off_c, 0, 63, 0
2, 11256, Note_on_c, 0, 62, 93
2, 11280, Note_off_c, 0, 62, 0
2, 11280, Note_on_c, 0, 63, 93
2, 11352, Note_off_c, 0, 63, 0
2, 11352, Note_on_c, 0, 60, 93
2, 11376, Note_off_c, 0, 60, 0
2, 11376, Note_on_c, 0, 62, 93
2, 11424, Note_off_c, 0, 62, 0
2, 11472, Note_on_c, 0, 69, 93
2, 11520, Note_off_c, 0, 69, 0
2, 11520, Note_on_c, 0, 74, 93
2, 11592, Note_off_c, 0, 74, 0
2, 11592, Note_on_c, 0, 72, 93
2, 11616, Note_off_c, 0, 72, 0
2, 11616, Note_on_c, 0, 70, 93
2, 11640, Note_off_c, 0, 70, 0
2, 11640, Note_on_c, 0, 69, 93
2, 11664, Note_off_c, 0, 69, 0
2, 11664, Note_on_c, 0, 67, 93
2, 11688, Note_off_c, 0, 67, 0
2, 11688, Note_on_c, 0, 65, 93
2, 11712, Note_off_c, 0, 65, 0
2, 11712, Note_on_c, 0, 63, 93
2, 11736, Note_off_c, 0, 63, 0
2, 11736, Note_on_c, 0, 62, 93
2, 11760, Note_off_c, 0, 62, 0
2, 11760, Note_on_c, 0, 60, 93
2, 11784, Note_off_c, 0, 60, 0
2, 11784, Note_on_c, 0, 63, 93
2, 11808, Note_off_c, 0, 63, 0
2, 11808, Note_on_c, 0, 62, 93
2, 11832, Note_off_c, 0, 62, 0
2, 11832, Note_on_c, 0, 64, 93
2, 11856, Note_off_c, 0, 64, 0
2, 11856, Note_on_c, 0, 66, 93
2, 11868, Note_off_c, 0, 66, 0
2, 11868, Note_on_c, 0, 67, 93
2, 11880, Note_off_c, 0, 67, 0
2, 11880, Note_on_c, 0, 57, 93
2, 11928, Note_off_c, 0, 57, 0
2, 11928, Note_on_c, 0, 63, 93
2, 11952, Note_off_c, 0, 63, 0
2, 11952, Note_on_c, 0, 62, 93
2, 11976, Note_off_c, 0, 62, 0
2, 11976, Note_on_c, 0, 60, 93
2, 12000, Note_off_c, 0, 60, 0
2, 12000, Note_on_c, 0, 58, 93
2, 12024, Note_off_c, 0, 58, 0
2, 12024, Note_on_c, 0, 57, 93
2, 12048, Note_off_c, 0, 57, 0
2, 12048, Note_on_c, 0, 55, 93
2, 12072, Note_off_c, 0, 55, 0
2, 12072, Note_on_c, 0, 54, 93
2, 12096, Note_off_c, 0, 54, 0
2, 12096, Note_on_c, 0, 55, 93
2, 12192, Note_off_c, 0, 55, 0
2, 12192, End_track
3, 0, Start_track
3, 0, Title_t, "Track3"
3, 0, Program_c, 1, 6
3, 0, Control_c, 1, 7, 100
3, 0, Control_c, 1, 10, 64
3, 216, Note_on_c, 1, 74, 93
3, 240, Note_off_c, 1, 74, 0
3, 240, Note_on_c, 1, 74, 93
3, 264, Note_off_c, 1, 74, 0
3, 264, Note_on_c, 1, 76, 93
3, 288, Note_off_c, 1, 76, 0
3, 288, Note_on_c, 1, 76, 93
3, 312, Note_off_c, 1, 76, 0
3, 312, Note_on_c, 1, 78, 93
3, 336, Note_off_c, 1, 78, 0
3, 336, Note_on_c, 1, 78, 93
3, 360, Note_off_c, 1, 78, 0
3, 360, Note_on_c, 1, 79, 93
3, 384, Note_off_c, 1, 79, 0
3, 384, Note_on_c, 1, 79, 93
3, 504, Note_off_c, 1, 79, 0
3, 504, Note_on_c, 1, 81, 93
3, 528, Note_off_c, 1, 81, 0
3, 528, Note_on_c, 1, 82, 93
3, 552, Note_off_c, 1, 82, 0
3, 552, Note_on_c, 1, 84, 93
3, 576, Note_off_c, 1, 84, 0
3, 576, Note_on_c, 1, 86, 93
3, 600, Note_off_c, 1, 86, 0
3, 600, Note_on_c, 1, 81, 93
3, 624, Note_off_c, 1, 81, 0
3, 624, Note_on_c, 1, 81, 93
3, 636, Note_off_c, 1, 81, 0
3, 636, Note_on_c, 1, 80, 93
3, 648, Note_off_c, 1, 80, 0
3, 648, Note_on_c, 1, 81, 93
3, 672, Note_off_c, 1, 81, 0
3, 672, Note_on_c, 1, 74, 93
3, 816, Note_off_c, 1, 74, 0
3, 816, Note_on_c, 1, 75, 93
3, 840, Note_off_c, 1, 75, 0
3, 840, Note_on_c, 1, 77, 93
3, 864, Note_off_c, 1, 77, 0
3, 864, Note_on_c, 1, 75, 93
3, 888, Note_off_c, 1, 75, 0
3, 888, Note_on_c, 1, 74, 93
3, 912, Note_off_c, 1, 74, 0
3, 912, Note_on_c, 1, 74, 93
3, 936, Note_off_c, 1, 74, 0
3, 936, Note_on_c, 1, 72, 93
3, 960, Note_off_c, 1, 72, 0
3, 960, Note_on_c, 1, 70, 93
3, 1008, Note_off_c, 1, 70, 0
3, 1104, Note_on_c, 1, 72, 93
3, 1152, Note_off_c, 1, 72, 0
3, 1152, Note_on_c, 1, 79, 93
3, 1164, Note_off_c, 1, 79, 0
3, 1164, Note_on_c, 1, 81, 93
3, 1176, Note_off_c, 1, 81, 0
3, 1176, Note_on_c, 1, 78, 93
3, 1200, Note_off_c, 1, 78, 0
3, 1200, Note_on_c, 1, 79, 93
3, 1224, Note_off_c, 1, 79, 0
3, 1224, Note_on_c, 1, 81, 93
3, 1248, Note_off_c, 1, 81, 0
3, 1248, Note_on_c, 1, 82, 93
3, 1272, Note_off_c, 1, 82, 0
3, 1272, Note_on_c, 1, 84, 93
3, 1296, Note_off_c, 1, 84, 0
3, 1296, Note_on_c, 1, 86, 93
3, 1320, Note_off_c, 1, 86, 0
3, 1320, Note_on_c, 1, 84, 93
3, 1344, Note_off_c, 1, 84, 0
3, 1344, Note_on_c, 1, 82, 93
3, 1368, Note_off_c, 1, 82, 0
3, 1368, Note_on_c, 1, 79, 93
3, 1392, Note_off_c, 1, 79, 0
3, 1392, Note_on_c, 1, 74, 93
3, 1488, Note_off_c, 1, 74, 0
3, 1488, Note_on_c, 1, 75, 93
3, 1536, Note_off_c, 1, 75, 0
3, 1536, Note_on_c, 1, 74, 93
3, 1584, Note_off_c, 1, 74, 0
3, 1656, Note_on_c, 1, 75, 93
3, 1680, Note_off_c, 1, 75, 0
3, 1680, Note_on_c, 1, 74, 93
3, 1704, Note_off_c, 1, 74, 0
3, 1704, Note_on_c, 1, 72, 93
3, 1728, Note_off_c, 1, 72, 0
3, 1728, Note_on_c, 1, 70, 93
3, 1752, Note_off_c, 1, 70, 0
3, 1752, Note_on_c, 1, 72, 93
3, 1776, Note_off_c, 1, 72, 0
3, 1776, Note_on_c, 1, 72, 93
3, 1800, Note_off_c, 1, 72, 0
3, 1800, Note_on_c, 1, 74, 93
3, 1824, Note_off_c, 1, 74, 0
3, 1824, Note_on_c, 1, 74, 93
3, 1848, Note_off_c, 1, 74, 0
3, 1848, Note_on_c, 1, 75, 93
3, 1872, Note_off_c, 1, 75, 0
3, 1872, Note_on_c, 1, 75, 93
3, 1896, Note_off_c, 1, 75, 0
3, 1896, Note_on_c, 1, 74, 93
3, 1920, Note_off_c, 1, 74, 0
3, 1920, Note_on_c, 1, 74, 93
3, 1968, Note_off_c, 1, 74, 0
3, 2064, Note_on_c, 1, 81, 93
3, 2112, Note_off_c, 1, 81, 0
3, 2112, Note_on_c, 1, 82, 93
3, 2160, Note_off_c, 1, 82, 0
3, 2160, Note_on_c, 1, 74, 93
3, 2184, Note_off_c, 1, 74, 0
3, 2184, Note_on_c, 1, 76, 93
3, 2232, Note_off_c, 1, 76, 0
3, 2232, Note_on_c, 1, 77, 93
3, 2280, Note_off_c, 1, 77, 0
3, 2280, Note_on_c, 1, 79, 93
3, 2304, Note_off_c, 1, 79, 0
3, 2304, Note_on_c, 1, 81, 93
3, 2352, Note_off_c, 1, 81, 0
3, 2352, Note_on_c, 1, 70, 93
3, 2400, Note_off_c, 1, 70, 0
3, 2400, Note_on_c, 1, 72, 93
3, 2448, Note_off_c, 1, 72, 0
3, 2448, Note_on_c, 1, 81, 93
3, 2496, Note_off_c, 1, 81, 0
3, 2544, Note_on_c, 1, 79, 93
3, 2556, Note_off_c, 1, 79, 0
3, 2556, Note_on_c, 1, 81, 93
3, 2568, Note_off_c, 1, 81, 0
3, 2568, Note_on_c, 1, 79, 93
3, 2616, Note_off_c, 1, 79, 0
3, 2616, Note_on_c, 1, 79, 93
3, 2664, Note_off_c, 1, 79, 0
3, 2664, Note_on_c, 1, 79, 93
3, 2712, Note_off_c, 1, 79, 0
3, 2712, Note_on_c, 1, 77, 93
3, 2724, Note_off_c, 1, 77, 0
3, 2724, Note_on_c, 1, 79, 93
3, 2736, Note_off_c, 1, 79, 0
3, 2736, Note_on_c, 1, 81, 93
3, 2760, Note_off_c, 1, 81, 0
3, 2760, Note_on_c, 1, 82, 93
3, 2784, Note_off_c, 1, 82, 0
3, 2784, Note_on_c, 1, 81, 93
3, 2808, Note_off_c, 1, 81, 0
3, 2808, Note_on_c, 1, 77, 93
3, 2832, Note_off_c, 1, 77, 0
3, 2832, Note_on_c, 1, 73, 93
3, 2880, Note_off_c, 1, 73, 0
3, 2928, Note_on_c, 1, 79, 93
3, 3000, Note_off_c, 1, 79, 0
3, 3000, Note_on_c, 1, 78, 93
3, 3012, Note_off_c, 1, 78, 0
3, 3012, Note_on_c, 1, 76, 93
3, 3024, Note_off_c, 1, 76, 0
3, 3024, Note_on_c, 1, 78, 93
3, 3072, Note_off_c, 1, 78, 0
3, 3288, Note_on_c, 1, 74, 93
3, 3312, Note_off_c, 1, 74, 0
3, 3312, Note_on_c, 1, 74, 93
3, 3336, Note_off_c, 1, 74, 0
3, 3336, Note_on_c, 1, 76, 93
3, 3360, Note_off_c, 1, 76, 0
3, 3360, Note_on_c, 1, 76, 93
3, 3384, Note_off_c, 1, 76, 0
3, 3384, Note_on_c, 1, 78, 93
3, 3408, Note_off_c, 1, 78, 0
3, 3408, Note_on_c, 1, 78, 93
3, 3432, Note_off_c, 1, 78, 0
3, 3432, Note_on_c, 1, 79, 93
3, 3456, Note_off_c, 1, 79, 0
3, 3456, Note_on_c, 1, 79, 93
3, 3576, Note_off_c, 1, 79, 0
3, 3576, Note_on_c, 1, 81, 93
3, 3600, Note_off_c, 1, 81, 0
3, 3600, Note_on_c, 1, 82, 93
3, 3624, Note_off_c, 1, 82, 0
3, 3624, Note_on_c, 1, 84, 93
3, 3648, Note_off_c, 1, 84, 0
3, 3648, Note_on_c, 1, 86, 93
3, 3672, Note_off_c, 1, 86, 0
3, 3672, Note_on_c, 1, 81, 93
3, 3696, Note_off_c, 1, 81, 0
3, 3696, Note_on_c, 1, 81, 93
3, 3708, Note_off_c, 1, 81, 0
3, 3708, Note_on_c, 1, 80, 93
3, 3720, Note_off_c, 1, 80, 0
3, 3720, Note_on_c, 1, 81, 93
3, 3744, Note_off_c, 1, 81, 0
3, 3744, Note_on_c, 1, 74, 93
3, 3888, Note_off_c, 1, 74, 0
3, 3888, Note_on_c, 1, 75, 93
3, 3912, Note_off_c, 1, 75, 0
3, 3912, Note_on_c, 1, 77, 93
3, 3936, Note_off_c, 1, 77, 0
3, 3936, Note_on_c, 1, 75, 93
3, 3960, Note_off_c, 1, 75, 0
3, 3960, Note_on_c, 1, 74, 93
3, 3984, Note_off_c, 1, 74, 0
3, 3984, Note_on_c, 1, 74, 93
3, 4008, Note_off_c, 1, 74, 0
3, 4008, Note_on_c, 1, 72, 93
3, 4032, Note_off_c, 1, 72, 0
3, 4032, Note_on_c, 1, 70, 93
3, 4080, Note_off_c, 1, 70, 0
3, 4176, Note_on_c, 1, 72, 93
3, 4224, Note_off_c, 1, 72, 0
3, 4224, Note_on_c, 1, 79, 93
3, 4236, Note_off_c, 1, 79, 0
3, 4236, Note_on_c, 1, 81, 93
3, 4248, Note_off_c, 1, 81, 0
3, 4248, Note_on_c, 1, 78, 93
3, 4272, Note_off_c, 1, 78, 0
3, 4272, Note_on_c, 1, 79, 93
3, 4296, Note_off_c, 1, 79, 0
3, 4296, Note_on_c, 1, 81, 93
3, 4320, Note_off_c, 1, 81, 0
3, 4320, Note_on_c, 1, 82, 93
3, 4344, Note_off_c, 1, 82, 0
3, 4344, Note_on_c, 1, 84, 93
3, 4368, Note_off_c, 1, 84, 0
3, 4368, Note_on_c, 1, 86, 93
3, 4392, Note_off_c, 1, 86, 0
3, 4392, Note_on_c, 1, 84, 93
3, 4416, Note_off_c, 1, 84, 0
3, 4416, Note_on_c, 1, 82, 93
3, 4440, Note_off_c, 1, 82, 0
3, 4440, Note_on_c, 1, 79, 93
3, 4464, Note_off_c, 1, 79, 0
3, 4464, Note_on_c, 1, 74, 93
3, 4560, Note_off_c, 1, 74, 0
3, 4560, Note_on_c, 1, 75, 93
3, 4608, Note_off_c, 1, 75, 0
3, 4608, Note_on_c, 1, 74, 93
3, 4656, Note_off_c, 1, 74, 0
3, 4728, Note_on_c, 1, 75, 93
3, 4752, Note_off_c, 1, 75, 0
3, 4752, Note_on_c, 1, 74, 93
3, 4776, Note_off_c, 1, 74, 0
3, 4776, Note_on_c, 1, 72, 93
3, 4800, Note_off_c, 1, 72, 0
3, 4800, Note_on_c, 1, 70, 93
3, 4824, Note_off_c, 1, 70, 0
3, 4824, Note_on_c, 1, 72, 93
3, 4848, Note_off_c, 1, 72, 0
3, 4848, Note_on_c, 1, 72, 93
3, 4872, Note_off_c, 1, 72, 0
3, 4872, Note_on_c, 1, 74, 93
3, 4896, Note_off_c, 1, 74, 0
3, 4896, Note_on_c, 1, 74, 93
3, 4920, Note_off_c, 1, 74, 0
3, 4920, Note_on_c, 1, 75, 93
3, 4944, Note_off_c, 1, 75, 0
3, 4944, Note_on_c, 1, 75, 93
3, 4968, Note_off_c, 1, 75, 0
3, 4968, Note_on_c, 1, 74, 93
3, 4992, Note_off_c, 1, 74, 0
3, 4992, Note_on_c, 1, 74, 93
3, 5040, Note_off_c, 1, 74, 0
3, 5136, Note_on_c, 1, 81, 93
3, 5184, Note_off_c, 1, 81, 0
3, 5184, Note_on_c, 1, 82, 93
3, 5232, Note_off_c, 1, 82, 0
3, 5232, Note_on_c, 1, 74, 93
3, 5256, Note_off_c, 1, 74, 0
3, 5256, Note_on_c, 1, 76, 93
3, 5304, Note_off_c, 1, 76, 0
3, 5304, Note_on_c, 1, 77, 93
3, 5352, Note_off_c, 1, 77, 0
3, 5352, Note_on_c, 1, 79, 93
3, 5376, Note_off_c, 1, 79, 0
3, 5376, Note_on_c, 1, 81, 93
3, 5424, Note_off_c, 1, 81, 0
3, 5424, Note_on_c, 1, 70, 93
3, 5472, Note_off_c, 1, 70, 0
3, 5472, Note_on_c, 1, 72, 93
3, 5520, Note_off_c, 1, 72, 0
3, 5520, Note_on_c, 1, 81, 93
3, 5568, Note_off_c, 1, 81, 0
3, 5616, Note_on_c, 1, 79, 93
3, 5628, Note_off_c, 1, 79, 0
3, 5628, Note_on_c, 1, 81, 93
3, 5640, Note_off_c, 1, 81, 0
3, 5640, Note_on_c, 1, 79, 93
3, 5688, Note_off_c, 1, 79, 0
3, 5688, Note_on_c, 1, 79, 93
3, 5736, Note_off_c, 1, 79, 0
3, 5736, Note_on_c, 1, 79, 93
3, 5784, Note_off_c, 1, 79, 0
3, 5784, Note_on_c, 1, 77, 93
3, 5796, Note_off_c, 1, 77, 0
3, 5796, Note_on_c, 1, 79, 93
3, 5808, Note_off_c, 1, 79, 0
3, 5808, Note_on_c, 1, 81, 93
3, 5832, Note_off_c, 1, 81, 0
3, 5832, Note_on_c, 1, 82, 93
3, 5856, Note_off_c, 1, 82, 0
3, 5856, Note_on_c, 1, 81, 93
3, 5880, Note_off_c, 1, 81, 0
3, 5880, Note_on_c, 1, 77, 93
3, 5904, Note_off_c, 1, 77, 0
3, 5904, Note_on_c, 1, 73, 93
3, 5952, Note_off_c, 1, 73, 0
3, 6000, Note_on_c, 1, 79, 93
3, 6072, Note_off_c, 1, 79, 0
3, 6072, Note_on_c, 1, 78, 93
3, 6084, Note_off_c, 1, 78, 0
3, 6084, Note_on_c, 1, 76, 93
3, 6096, Note_off_c, 1, 76, 0
3, 6096, Note_on_c, 1, 78, 93
3, 6144, Note_off_c, 1, 78, 0
3, 6384, Note_on_c, 1, 75, 93
3, 6432, Note_off_c, 1, 75, 0
3, 6432, Note_on_c, 1, 74, 93
3, 6480, Note_off_c, 1, 74, 0
3, 6480, Note_on_c, 1, 72, 93
3, 6528, Note_off_c, 1, 72, 0
3, 6528, Note_on_c, 1, 79, 93
3, 6552, Note_off_c, 1, 79, 0
3, 6552, Note_on_c, 1, 67, 93
3, 6600, Note_off_c, 1, 67, 0
3, 6600, Note_on_c, 1, 68, 93
3, 6648, Note_off_c, 1, 68, 0
3, 6648, Note_on_c, 1, 70, 93
3, 6696, Note_off_c, 1, 70, 0
3, 6696, Note_on_c, 1, 72, 93
3, 6720, Note_off_c, 1, 72, 0
3, 6720, Note_on_c, 1, 70, 93
3, 6768, Note_off_c, 1, 70, 0
3, 6768, Note_on_c, 1, 77, 93
3, 6816, Note_off_c, 1, 77, 0
3, 6816, Note_on_c, 1, 79, 93
3, 6864, Note_off_c, 1, 79, 0
3, 6864, Note_on_c, 1, 74, 93
3, 6912, Note_off_c, 1, 74, 0
3, 6912, Note_on_c, 1, 75, 93
3, 6936, Note_off_c, 1, 75, 0
3, 6936, Note_on_c, 1, 74, 93
3, 6960, Note_off_c, 1, 74, 0
3, 6960, Note_on_c, 1, 72, 93
3, 7008, Note_off_c, 1, 72, 0
3, 7032, Note_on_c, 1, 70, 93
3, 7080, Note_off_c, 1, 70, 0
3, 7080, Note_on_c, 1, 72, 93
3, 7104, Note_off_c, 1, 72, 0
3, 7104, Note_on_c, 1, 74, 93
3, 7128, Note_off_c, 1, 74, 0
3, 7128, Note_on_c, 1, 70, 93
3, 7152, Note_off_c, 1, 70, 0
3, 7152, Note_on_c, 1, 65, 93
3, 7176, Note_off_c, 1, 65, 0
3, 7176, Note_on_c, 1, 62, 93
3, 7200, Note_off_c, 1, 62, 0
3, 7200, Note_on_c, 1, 63, 93
3, 7224, Note_off_c, 1, 63, 0
3, 7224, Note_on_c, 1, 65, 93
3, 7248, Note_off_c, 1, 65, 0
3, 7248, Note_on_c, 1, 67, 93
3, 7272, Note_off_c, 1, 67, 0
3, 7272, Note_on_c, 1, 68, 93
3, 7296, Note_off_c, 1, 68, 0
3, 7296, Note_on_c, 1, 70, 93
3, 7512, Note_off_c, 1, 70, 0
3, 7512, Note_on_c, 1, 72, 93
3, 7524, Note_off_c, 1, 72, 0
3, 7524, Note_on_c, 1, 74, 93
3, 7536, Note_off_c, 1, 74, 0
3, 7536, Note_on_c, 1, 75, 93
3, 7548, Note_off_c, 1, 75, 0
3, 7548, Note_on_c, 1, 74, 93
3, 7560, Note_off_c, 1, 74, 0
3, 7560, Note_on_c, 1, 72, 93
3, 7584, Note_off_c, 1, 72, 0
3, 7584, Note_on_c, 1, 74, 93
3, 7608, Note_off_c, 1, 74, 0
3, 7608, Note_on_c, 1, 75, 93
3, 7620, Note_off_c, 1, 75, 0
3, 7620, Note_on_c, 1, 77, 93
3, 7632, Note_off_c, 1, 77, 0
3, 7632, Note_on_c, 1, 75, 93
3, 7644, Note_off_c, 1, 75, 0
3, 7644, Note_on_c, 1, 77, 93
3, 7656, Note_off_c, 1, 77, 0
3, 7656, Note_on_c, 1, 79, 93
3, 7680, Note_off_c, 1, 79, 0
3, 7680, Note_on_c, 1, 77, 93
3, 7728, Note_off_c, 1, 77, 0
3, 7896, Note_on_c, 1, 72, 93
3, 7920, Note_off_c, 1, 72, 0
3, 7920, Note_on_c, 1, 72, 93
3, 7944, Note_off_c, 1, 72, 0
3, 7944, Note_on_c, 1, 74, 93
3, 7968, Note_off_c, 1, 74, 0
3, 7968, Note_on_c, 1, 75, 93
3, 7992, Note_off_c, 1, 75, 0
3, 7992, Note_on_c, 1, 76, 93
3, 8016, Note_off_c, 1, 76, 0
3, 8016, Note_on_c, 1, 67, 93
3, 8040, Note_off_c, 1, 67, 0
3, 8040, Note_on_c, 1, 76, 93
3, 8064, Note_off_c, 1, 76, 0
3, 8064, Note_on_c, 1, 78, 93
3, 8184, Note_off_c, 1, 78, 0
3, 8184, Note_on_c, 1, 79, 93
3, 8208, Note_off_c, 1, 79, 0
3, 8208, Note_on_c, 1, 81, 93
3, 8232, Note_off_c, 1, 81, 0
3, 8232, Note_on_c, 1, 82, 93
3, 8256, Note_off_c, 1, 82, 0
3, 8256, Note_on_c, 1, 84, 93
3, 8280, Note_off_c, 1, 84, 0
3, 8280, Note_on_c, 1, 82, 93
3, 8304, Note_off_c, 1, 82, 0
3, 8304, Note_on_c, 1, 81, 93
3, 8328, Note_off_c, 1, 81, 0
3, 8328, Note_on_c, 1, 79, 93
3, 8352, Note_off_c, 1, 79, 0
3, 8352, Note_on_c, 1, 78, 93
3, 8376, Note_off_c, 1, 78, 0
3, 8376, Note_on_c, 1, 79, 93
3, 8400, Note_off_c, 1, 79, 0
3, 8400, Note_on_c, 1, 78, 93
3, 8472, Note_off_c, 1, 78, 0
3, 8472, Note_on_c, 1, 81, 93
3, 8496, Note_off_c, 1, 81, 0
3, 8496, Note_on_c, 1, 79, 93
3, 8544, Note_off_c, 1, 79, 0
3, 8592, Note_on_c, 1, 72, 93
3, 8640, Note_off_c, 1, 72, 0
3, 8640, Note_on_c, 1, 67, 93
3, 8712, Note_off_c, 1, 67, 0
3, 8712, Note_on_c, 1, 69, 93
3, 8736, Note_off_c, 1, 69, 0
3, 8736, Note_on_c, 1, 70, 93
3, 8760, Note_off_c, 1, 70, 0
3, 8760, Note_on_c, 1, 72, 93
3, 8784, Note_off_c, 1, 72, 0
3, 8784, Note_on_c, 1, 74, 93
3, 8808, Note_off_c, 1, 74, 0
3, 8808, Note_on_c, 1, 76, 93
3, 8832, Note_off_c, 1, 76, 0
3, 8832, Note_on_c, 1, 78, 93
3, 8856, Note_off_c, 1, 78, 0
3, 8856, Note_on_c, 1, 79, 93
3, 8880, Note_off_c, 1, 79, 0
3, 8880, Note_on_c, 1, 81, 93
3, 8904, Note_off_c, 1, 81, 0
3, 8904, Note_on_c, 1, 78, 93
3, 8928, Note_off_c, 1, 78, 0
3, 8928, Note_on_c, 1, 79, 93
3, 8952, Note_off_c, 1, 79, 0
3, 8952, Note_on_c, 1, 78, 93
3, 8976, Note_off_c, 1, 78, 0
3, 8976, Note_on_c, 1, 76, 93
3, 8988, Note_off_c, 1, 76, 0
3, 8988, Note_on_c, 1, 74, 93
3, 9000, Note_off_c, 1, 74, 0
3, 9000, Note_on_c, 1, 84, 93
3, 9048, Note_off_c, 1, 84, 0
3, 9048, Note_on_c, 1, 78, 93
3, 9072, Note_off_c, 1, 78, 0
3, 9072, Note_on_c, 1, 79, 93
3, 9096, Note_off_c, 1, 79, 0
3, 9096, Note_on_c, 1, 81, 93
3, 9120, Note_off_c, 1, 81, 0
3, 9120, Note_on_c, 1, 82, 93
3, 9144, Note_off_c, 1, 82, 0
3, 9144, Note_on_c, 1, 84, 93
3, 9168, Note_off_c, 1, 84, 0
3, 9168, Note_on_c, 1, 86, 93
3, 9216, Note_off_c, 1, 86, 0
3, 9456, Note_on_c, 1, 75, 93
3, 9504, Note_off_c, 1, 75, 0
3, 9504, Note_on_c, 1, 74, 93
3, 9552, Note_off_c, 1, 74, 0
3, 9552, Note_on_c, 1, 72, 93
3, 9600, Note_off_c, 1, 72, 0
3, 9600, Note_on_c, 1, 79, 93
3, 9624, Note_off_c, 1, 79, 0
3, 9624, Note_on_c, 1, 67, 93
3, 9672, Note_off_c, 1, 67, 0
3, 9672, Note_on_c, 1, 68, 93
3, 9720, Note_off_c, 1, 68, 0
3, 9720, Note_on_c, 1, 70, 93
3, 9768, Note_off_c, 1, 70, 0
3, 9768, Note_on_c, 1, 72, 93
3, 9792, Note_off_c, 1, 72, 0
3, 9792, Note_on_c, 1, 70, 93
3, 9840, Note_off_c, 1, 70, 0
3, 9840, Note_on_c, 1, 77, 93
3, 9888, Note_off_c, 1, 77, 0
3, 9888, Note_on_c, 1, 79, 93
3, 9936, Note_off_c, 1, 79, 0
3, 9936, Note_on_c, 1, 74, 93
3, 9984, Note_off_c, 1, 74, 0
3, 9984, Note_on_c, 1, 75, 93
3, 10008, Note_off_c, 1, 75, 0
3, 10008, Note_on_c, 1, 74, 93
3, 10032, Note_off_c, 1, 74, 0
3, 10032, Note_on_c, 1, 72, 93
3, 10080, Note_off_c, 1, 72, 0
3, 10104, Note_on_c, 1, 70, 93
3, 10152, Note_off_c, 1, 70, 0
3, 10152, Note_on_c, 1, 72, 93
3, 10176, Note_off_c, 1, 72, 0
3, 10176, Note_on_c, 1, 74, 93
3, 10200, Note_off_c, 1, 74, 0
3, 10200, Note_on_c, 1, 70, 93
3, 10224, Note_off_c, 1, 70, 0
3, 10224, Note_on_c, 1, 65, 93
3, 10248, Note_off_c, 1, 65, 0
3, 10248, Note_on_c, 1, 62, 93
3, 10272, Note_off_c, 1, 62, 0
3, 10272, Note_on_c, 1, 63, 93
3, 10296, Note_off_c, 1, 63, 0
3, 10296, Note_on_c, 1, 65, 93
3, 10320, Note_off_c, 1, 65, 0
3, 10320, Note_on_c, 1, 67, 93
3, 10344, Note_off_c, 1, 67, 0
3, 10344, Note_on_c, 1, 68, 93
3, 10368, Note_off_c, 1, 68, 0
3, 10368, Note_on_c, 1, 70, 93
3, 10584, Note_off_c, 1, 70, 0
3, 10584, Note_on_c, 1, 72, 93
3, 10596, Note_off_c, 1, 72, 0
3, 10596, Note_on_c, 1, 74, 93
3, 10608, Note_off_c, 1, 74, 0
3, 10608, Note_on_c, 1, 75, 93
3, 10620, Note_off_c, 1, 75, 0
3, 10620, Note_on_c, 1, 74, 93
3, 10632, Note_off_c, 1, 74, 0
3, 10632, Note_on_c, 1, 72, 93
3, 10656, Note_off_c, 1, 72, 0
3, 10656, Note_on_c, 1, 74, 93
3, 10680, Note_off_c, 1, 74, 0
3, 10680, Note_on_c, 1, 75, 93
3, 10692, Note_off_c, 1, 75, 0
3, 10692, Note_on_c, 1, 77, 93
3, 10704, Note_off_c, 1, 77, 0
3, 10704, Note_on_c, 1, 75, 93
3, 10716, Note_off_c, 1, 75, 0
3, 10716, Note_on_c, 1, 77, 93
3, 10728, Note_off_c, 1, 77, 0
3, 10728, Note_on_c, 1, 79, 93
3, 10752, Note_off_c, 1, 79, 0
3, 10752, Note_on_c, 1, 77, 93
3, 10800, Note_off_c, 1, 77, 0
3, 10968, Note_on_c, 1, 72, 93
3, 10992, Note_off_c, 1, 72, 0
3, 10992, Note_on_c, 1, 72, 93
3, 11016, Note_off_c, 1, 72, 0
3, 11016, Note_on_c, 1, 74, 93
3, 11040, Note_off_c, 1, 74, 0
3, 11040, Note_on_c, 1, 75, 93
3, 11064, Note_off_c, 1, 75, 0
3, 11064, Note_on_c, 1, 76, 93
3, 11088, Note_off_c, 1, 76, 0
3, 11088, Note_on_c, 1, 67, 93
3, 11112, Note_off_c, 1, 67, 0
3, 11112, Note_on_c, 1, 76, 93
3, 11136, Note_off_c, 1, 76, 0
3, 11136, Note_on_c, 1, 78, 93
3, 11256, Note_off_c, 1, 78, 0
3, 11256, Note_on_c, 1, 79, 93
3, 11280, Note_off_c, 1, 79, 0
3, 11280, Note_on_c, 1, 81, 93
3, 11304, Note_off_c, 1, 81, 0
3, 11304, Note_on_c, 1, 82, 93
3, 11328, Note_off_c, 1, 82, 0
3, 11328, Note_on_c, 1, 84, 93
3, 11352, Note_off_c, 1, 84, 0
3, 11352, Note_on_c, 1, 82, 93
3, 11376, Note_off_c, 1, 82, 0
3, 11376, Note_on_c, 1, 81, 93
3, 11400, Note_off_c, 1, 81, 0
3, 11400, Note_on_c, 1, 79, 93
3, 11424, Note_off_c, 1, 79, 0
3, 11424, Note_on_c, 1, 78, 93
3, 11448, Note_off_c, 1, 78, 0
3, 11448, Note_on_c, 1, 79, 93
3, 11472, Note_off_c, 1, 79, 0
3, 11472, Note_on_c, 1, 78, 93
3, 11544, Note_off_c, 1, 78, 0
3, 11544, Note_on_c, 1, 81, 93
3, 11568, Note_off_c, 1, 81, 0
3, 11568, Note_on_c, 1, 79, 93
3, 11616, Note_off_c, 1, 79, 0
3, 11664, Note_on_c, 1, 72, 93
3, 11712, Note_off_c, 1, 72, 0
3, 11712, Note_on_c, 1, 67, 93
3, 11784, Note_off_c, 1, 67, 0
3, 11784, Note_on_c, 1, 69, 93
3, 11808, Note_off_c, 1, 69, 0
3, 11808, Note_on_c, 1, 70, 93
3, 11832, Note_off_c, 1, 70, 0
3, 11832, Note_on_c, 1, 72, 93
3, 11856, Note_off_c, 1, 72, 0
3, 11856, Note_on_c, 1, 74, 93
3, 11880, Note_off_c, 1, 74, 0
3, 11880, Note_on_c, 1, 76, 93
3, 11904, Note_off_c, 1, 76, 0
3, 11904, Note_on_c, 1, 78, 93
3, 11928, Note_off_c, 1, 78, 0
3, 11928, Note_on_c, 1, 79, 93
3, 11952, Note_off_c, 1, 79, 0
3, 11952, Note_on_c, 1, 81, 93
3, 11976, Note_off_c, 1, 81, 0
3, 11976, Note_on_c, 1, 78, 93
3, 12000, Note_off_c, 1, 78, 0
3, 12000, Note_on_c, 1, 79, 93
3, 12024, Note_off_c, 1, 79, 0
3, 12024, Note_on_c, 1, 78, 93
3, 12048, Note_off_c, 1, 78, 0
3, 12048, Note_on_c, 1, 76, 93
3, 12060, Note_off_c, 1, 76, 0
3, 12060, Note_on_c, 1, 74, 93
3, 12072, Note_off_c, 1, 74, 0
3, 12072, Note_on_c, 1, 84, 93
3, 12120, Note_off_c, 1, 84, 0
3, 12120, Note_on_c, 1, 78, 93
3, 12144, Note_off_c, 1, 78, 0
3, 12144, Note_on_c, 1, 79, 93
3, 12168, Note_off_c, 1, 79, 0
3, 12168, Note_on_c, 1, 81, 93
3, 12192, Note_off_c, 1, 81, 0
3, 12192, Note_on_c, 1, 82, 93
3, 12216, Note_off_c, 1, 82, 0
3, 12216, Note_on_c, 1, 84, 93
3, 12240, Note_off_c, 1, 84, 0
3, 12240, Note_on_c, 1, 86, 93
3, 12288, Note_off_c, 1, 86, 0
3, 12288, End_track
4, 0, Start_track
4, 0, Title_t, "Track4"
4, 0, Program_c, 2, 6
4, 0, Control_c, 2, 7, 100
4, 0, Control_c, 2, 10, 54
4, 0, Note_on_c, 2, 55, 93
4, 48, Note_off_c, 2, 55, 0
4, 48, Note_on_c, 2, 43, 93
4, 96, Note_off_c, 2, 43, 0
4, 144, Note_on_c, 2, 55, 93
4, 216, Note_off_c, 2, 55, 0
4, 216, Note_on_c, 2, 54, 93
4, 228, Note_off_c, 2, 54, 0
4, 228, Note_on_c, 2, 52, 93
4, 240, Note_off_c, 2, 52, 0
4, 240, Note_on_c, 2, 54, 93
4, 288, Note_off_c, 2, 54, 0
4, 336, Note_on_c, 2, 50, 93
4, 384, Note_off_c, 2, 50, 0
4, 384, Note_on_c, 2, 51, 93
4, 432, Note_off_c, 2, 51, 0
4, 432, Note_on_c, 2, 52, 93
4, 480, Note_off_c, 2, 52, 0
4, 528, Note_on_c, 2, 63, 93
4, 576, Note_off_c, 2, 63, 0
4, 576, Note_on_c, 2, 62, 93
4, 600, Note_off_c, 2, 62, 0
4, 600, Note_on_c, 2, 61, 93
4, 624, Note_off_c, 2, 61, 0
4, 624, Note_on_c, 2, 62, 93
4, 672, Note_off_c, 2, 62, 0
4, 696, Note_on_c, 2, 60, 93
4, 720, Note_off_c, 2, 60, 0
4, 720, Note_on_c, 2, 58, 93
4, 744, Note_off_c, 2, 58, 0
4, 744, Note_on_c, 2, 57, 93
4, 768, Note_off_c, 2, 57, 0
4, 768, Note_on_c, 2, 55, 93
4, 780, Note_off_c, 2, 55, 0
4, 780, Note_on_c, 2, 54, 93
4, 792, Note_off_c, 2, 54, 0
4, 792, Note_on_c, 2, 55, 93
4, 816, Note_off_c, 2, 55, 0
4, 816, Note_on_c, 2, 48, 93
4, 840, Note_off_c, 2, 48, 0
4, 840, Note_on_c, 2, 55, 93
4, 864, Note_off_c, 2, 55, 0
4, 864, Note_on_c, 2, 60, 93
4, 888, Note_off_c, 2, 60, 0
4, 888, Note_on_c, 2, 54, 93
4, 912, Note_off_c, 2, 54, 0
4, 912, Note_on_c, 2, 54, 93
4, 936, Note_off_c, 2, 54, 0
4, 936, Note_on_c, 2, 55, 93
4, 960, Note_off_c, 2, 55, 0
4, 960, Note_on_c, 2, 55, 93
4, 984, Note_off_c, 2, 55, 0
4, 984, Note_on_c, 2, 54, 93
4, 1008, Note_off_c, 2, 54, 0
4, 1008, Note_on_c, 2, 55, 93
4, 1032, Note_off_c, 2, 55, 0
4, 1032, Note_on_c, 2, 57, 93
4, 1056, Note_off_c, 2, 57, 0
4, 1056, Note_on_c, 2, 50, 93
4, 1104, Note_off_c, 2, 50, 0
4, 1104, Note_on_c, 2, 51, 93
4, 1152, Note_off_c, 2, 51, 0
4, 1152, Note_on_c, 2, 46, 93
4, 1200, Note_off_c, 2, 46, 0
4, 1200, Note_on_c, 2, 58, 93
4, 1224, Note_off_c, 2, 58, 0
4, 1224, Note_on_c, 2, 60, 93
4, 1248, Note_off_c, 2, 60, 0
4, 1248, Note_on_c, 2, 62, 93
4, 1296, Note_off_c, 2, 62, 0
4, 1296, Note_on_c, 2, 62, 93
4, 1344, Note_off_c, 2, 62, 0
4, 1344, Note_on_c, 2, 55, 93
4, 1392, Note_off_c, 2, 55, 0
4, 1392, Note_on_c, 2, 46, 93
4, 1404, Note_off_c, 2, 46, 0
4, 1404, Note_on_c, 2, 48, 93
4, 1416, Note_off_c, 2, 48, 0
4, 1416, Note_on_c, 2, 50, 93
4, 1428, Note_off_c, 2, 50, 0
4, 1428, Note_on_c, 2, 46, 93
4, 1440, Note_off_c, 2, 46, 0
4, 1440, Note_on_c, 2, 43, 93
4, 1488, Note_off_c, 2, 43, 0
4, 1560, Note_on_c, 2, 54, 93
4, 1584, Note_off_c, 2, 54, 0
4, 1584, Note_on_c, 2, 55, 93
4, 1608, Note_off_c, 2, 55, 0
4, 1608, Note_on_c, 2, 57, 93
4, 1632, Note_off_c, 2, 57, 0
4, 1632, Note_on_c, 2, 58, 93
4, 1680, Note_off_c, 2, 58, 0
4, 1680, Note_on_c, 2, 57, 93
4, 1728, Note_off_c, 2, 57, 0
4, 1728, Note_on_c, 2, 55, 93
4, 1752, Note_off_c, 2, 55, 0
4, 1752, Note_on_c, 2, 54, 93
4, 1800, Note_off_c, 2, 54, 0
4, 1800, Note_on_c, 2, 52, 93
4, 1824, Note_off_c, 2, 52, 0
4, 1824, Note_on_c, 2, 54, 93
4, 1836, Note_off_c, 2, 54, 0
4, 1836, Note_on_c, 2, 57, 93
4, 1848, Note_off_c, 2, 57, 0
4, 1848, Note_on_c, 2, 55, 93
4, 1896, Note_off_c, 2, 55, 0
4, 1896, Note_on_c, 2, 54, 93
4, 1920, Note_off_c, 2, 54, 0
4, 1920, Note_on_c, 2, 55, 93
4, 1944, Note_off_c, 2, 55, 0
4, 1944, Note_on_c, 2, 57, 93
4, 1968, Note_off_c, 2, 57, 0
4, 1968, Note_on_c, 2, 58, 93
4, 1992, Note_off_c, 2, 58, 0
4, 1992, Note_on_c, 2, 57, 93
4, 2016, Note_off_c, 2, 57, 0
4, 2016, Note_on_c, 2, 55, 93
4, 2028, Note_off_c, 2, 55, 0
4, 2028, Note_on_c, 2, 57, 93
4, 2040, Note_off_c, 2, 57, 0
4, 2040, Note_on_c, 2, 55, 93
4, 2064, Note_off_c, 2, 55, 0
4, 2064, Note_on_c, 2, 53, 93
4, 2076, Note_off_c, 2, 53, 0
4, 2076, Note_on_c, 2, 55, 93
4, 2088, Note_off_c, 2, 55, 0
4, 2088, Note_on_c, 2, 53, 93
4, 2112, Note_off_c, 2, 53, 0
4, 2112, Note_on_c, 2, 52, 93
4, 2136, Note_off_c, 2, 52, 0
4, 2136, Note_on_c, 2, 53, 93
4, 2160, Note_off_c, 2, 53, 0
4, 2160, Note_on_c, 2, 55, 93
4, 2184, Note_off_c, 2, 55, 0
4, 2184, Note_on_c, 2, 52, 93
4, 2208, Note_off_c, 2, 52, 0
4, 2208, Note_on_c, 2, 49, 93
4, 2232, Note_off_c, 2, 49, 0
4, 2232, Note_on_c, 2, 50, 93
4, 2256, Note_off_c, 2, 50, 0
4, 2256, Note_on_c, 2, 52, 93
4, 2280, Note_off_c, 2, 52, 0
4, 2280, Note_on_c, 2, 49, 93
4, 2304, Note_off_c, 2, 49, 0
4, 2304, Note_on_c, 2, 53, 93
4, 2316, Note_off_c, 2, 53, 0
4, 2316, Note_on_c, 2, 52, 93
4, 2328, Note_off_c, 2, 52, 0
4, 2328, Note_on_c, 2, 50, 93
4, 2352, Note_off_c, 2, 50, 0
4, 2352, Note_on_c, 2, 55, 93
4, 2448, Note_off_c, 2, 55, 0
4, 2448, Note_on_c, 2, 54, 93
4, 2496, Note_off_c, 2, 54, 0
4, 2496, Note_on_c, 2, 58, 93
4, 2544, Note_off_c, 2, 58, 0
4, 2544, Note_on_c, 2, 52, 93
4, 2592, Note_off_c, 2, 52, 0
4, 2592, Note_on_c, 2, 57, 93
4, 2640, Note_off_c, 2, 57, 0
4, 2640, Note_on_c, 2, 49, 93
4, 2688, Note_off_c, 2, 49, 0
4, 2688, Note_on_c, 2, 50, 93
4, 2736, Note_off_c, 2, 50, 0
4, 2736, Note_on_c, 2, 53, 93
4, 2760, Note_off_c, 2, 53, 0
4, 2760, Note_on_c, 2, 52, 93
4, 2784, Note_off_c, 2, 52, 0
4, 2784, Note_on_c, 2, 53, 93
4, 2832, Note_off_c, 2, 53, 0
4, 2832, Note_on_c, 2, 57, 93
4, 2880, Note_off_c, 2, 57, 0
4, 2880, Note_on_c, 2, 62, 93
4, 2904, Note_off_c, 2, 62, 0
4, 2904, Note_on_c, 2, 60, 93
4, 2916, Note_off_c, 2, 60, 0
4, 2916, Note_on_c, 2, 58, 93
4, 2928, Note_off_c, 2, 58, 0
4, 2928, Note_on_c, 2, 57, 93
4, 2940, Note_off_c, 2, 57, 0
4, 2940, Note_on_c, 2, 55, 93
4, 2952, Note_off_c, 2, 55, 0
4, 2952, Note_on_c, 2, 57, 93
4, 2976, Note_off_c, 2, 57, 0
4, 2976, Note_on_c, 2, 50, 93
4, 3072, Note_off_c, 2, 50, 0
4, 3072, Note_on_c, 2, 55, 93
4, 3120, Note_off_c, 2, 55, 0
4, 3120, Note_on_c, 2, 43, 93
4, 3168, Note_off_c, 2, 43, 0
4, 3216, Note_on_c, 2, 55, 93
4, 3288, Note_off_c, 2, 55, 0
4, 3288, Note_on_c, 2, 54, 93
4, 3300, Note_off_c, 2, 54, 0
4, 3300, Note_on_c, 2, 52, 93
4, 3312, Note_off_c, 2, 52, 0
4, 3312, Note_on_c, 2, 54, 93
4, 3360, Note_off_c, 2, 54, 0
4, 3408, Note_on_c, 2, 50, 93
4, 3456, Note_off_c, 2, 50, 0
4, 3456, Note_on_c, 2, 51, 93
4, 3504, Note_off_c, 2, 51, 0
4, 3504, Note_on_c, 2, 52, 93
4, 3552, Note_off_c, 2, 52, 0
4, 3600, Note_on_c, 2, 63, 93
4, 3648, Note_off_c, 2, 63, 0
4, 3648, Note_on_c, 2, 62, 93
4, 3672, Note_off_c, 2, 62, 0
4, 3672, Note_on_c, 2, 61, 93
4, 3696, Note_off_c, 2, 61, 0
4, 3696, Note_on_c, 2, 62, 93
4, 3744, Note_off_c, 2, 62, 0
4, 3768, Note_on_c, 2, 60, 93
4, 3792, Note_off_c, 2, 60, 0
4, 3792, Note_on_c, 2, 58, 93
4, 3816, Note_off_c, 2, 58, 0
4, 3816, Note_on_c, 2, 57, 93
4, 3840, Note_off_c, 2, 57, 0
4, 3840, Note_on_c, 2, 55, 93
4, 3852, Note_off_c, 2, 55, 0
4, 3852, Note_on_c, 2, 54, 93
4, 3864, Note_off_c, 2, 54, 0
4, 3864, Note_on_c, 2, 55, 93
4, 3888, Note_off_c, 2, 55, 0
4, 3888, Note_on_c, 2, 48, 93
4, 3912, Note_off_c, 2, 48, 0
4, 3912, Note_on_c, 2, 55, 93
4, 3936, Note_off_c, 2, 55, 0
4, 3936, Note_on_c, 2, 60, 93
4, 3960, Note_off_c, 2, 60, 0
4, 3960, Note_on_c, 2, 54, 93
4, 3984, Note_off_c, 2, 54, 0
4, 3984, Note_on_c, 2, 54, 93
4, 4008, Note_off_c, 2, 54, 0
4, 4008, Note_on_c, 2, 55, 93
4, 4032, Note_off_c, 2, 55, 0
4, 4032, Note_on_c, 2, 55, 93
4, 4056, Note_off_c, 2, 55, 0
4, 4056, Note_on_c, 2, 54, 93
4, 4080, Note_off_c, 2, 54, 0
4, 4080, Note_on_c, 2, 55, 93
4, 4104, Note_off_c, 2, 55, 0
4, 4104, Note_on_c, 2, 57, 93
4, 4128, Note_off_c, 2, 57, 0
4, 4128, Note_on_c, 2, 50, 93
4, 4176, Note_off_c, 2, 50, 0
4, 4176, Note_on_c, 2, 51, 93
4, 4224, Note_off_c, 2, 51, 0
4, 4224, Note_on_c, 2, 46, 93
4, 4272, Note_off_c, 2, 46, 0
4, 4272, Note_on_c, 2, 58, 93
4, 4296, Note_off_c, 2, 58, 0
4, 4296, Note_on_c, 2, 60, 93
4, 4320, Note_off_c, 2, 60, 0
4, 4320, Note_on_c, 2, 62, 93
4, 4368, Note_off_c, 2, 62, 0
4, 4368, Note_on_c, 2, 62, 93
4, 4416, Note_off_c, 2, 62, 0
4, 4416, Note_on_c, 2, 55, 93
4, 4464, Note_off_c, 2, 55, 0
4, 4464, Note_on_c, 2, 46, 93
4, 4476, Note_off_c, 2, 46, 0
4, 4476, Note_on_c, 2, 48, 93
4, 4488, Note_off_c, 2, 48, 0
4, 4488, Note_on_c, 2, 50, 93
4, 4500, Note_off_c, 2, 50, 0
4, 4500, Note_on_c, 2, 46, 93
4, 4512, Note_off_c, 2, 46, 0
4, 4512, Note_on_c, 2, 43, 93
4, 4560, Note_off_c, 2, 43, 0
4, 4632, Note_on_c, 2, 54, 93
4, 4656, Note_off_c, 2, 54, 0
4, 4656, Note_on_c, 2, 55, 93
4, 4680, Note_off_c, 2, 55, 0
4, 4680, Note_on_c, 2, 57, 93
4, 4704, Note_off_c, 2, 57, 0
4, 4704, Note_on_c, 2, 58, 93
4, 4752, Note_off_c, 2, 58, 0
4, 4752, Note_on_c, 2, 57, 93
4, 4800, Note_off_c, 2, 57, 0
4, 4800, Note_on_c, 2, 55, 93
4, 4824, Note_off_c, 2, 55, 0
4, 4824, Note_on_c, 2, 54, 93
4, 4872, Note_off_c, 2, 54, 0
4, 4872, Note_on_c, 2, 52, 93
4, 4896, Note_off_c, 2, 52, 0
4, 4896, Note_on_c, 2, 54, 93
4, 4908, Note_off_c, 2, 54, 0
4, 4908, Note_on_c, 2, 57, 93
4, 4920, Note_off_c, 2, 57, 0
4, 4920, Note_on_c, 2, 55, 93
4, 4968, Note_off_c, 2, 55, 0
4, 4968, Note_on_c, 2, 54, 93
4, 4992, Note_off_c, 2, 54, 0
4, 4992, Note_on_c, 2, 55, 93
4, 5016, Note_off_c, 2, 55, 0
4, 5016, Note_on_c, 2, 57, 93
4, 5040, Note_off_c, 2, 57, 0
4, 5040, Note_on_c, 2, 58, 93
4, 5064, Note_off_c, 2, 58, 0
4, 5064, Note_on_c, 2, 57, 93
4, 5088, Note_off_c, 2, 57, 0
4, 5088, Note_on_c, 2, 55, 93
4, 5100, Note_off_c, 2, 55, 0
4, 5100, Note_on_c, 2, 57, 93
4, 5112, Note_off_c, 2, 57, 0
4, 5112, Note_on_c, 2, 55, 93
4, 5136, Note_off_c, 2, 55, 0
4, 5136, Note_on_c, 2, 53, 93
4, 5148, Note_off_c, 2, 53, 0
4, 5148, Note_on_c, 2, 55, 93
4, 5160, Note_off_c, 2, 55, 0
4, 5160, Note_on_c, 2, 53, 93
4, 5184, Note_off_c, 2, 53, 0
4, 5184, Note_on_c, 2, 52, 93
4, 5208, Note_off_c, 2, 52, 0
4, 5208, Note_on_c, 2, 53, 93
4, 5232, Note_off_c, 2, 53, 0
4, 5232, Note_on_c, 2, 55, 93
4, 5256, Note_off_c, 2, 55, 0
4, 5256, Note_on_c, 2, 52, 93
4, 5280, Note_off_c, 2, 52, 0
4, 5280, Note_on_c, 2, 49, 93
4, 5304, Note_off_c, 2, 49, 0
4, 5304, Note_on_c, 2, 50, 93
4, 5328, Note_off_c, 2, 50, 0
4, 5328, Note_on_c, 2, 52, 93
4, 5352, Note_off_c, 2, 52, 0
4, 5352, Note_on_c, 2, 49, 93
4, 5376, Note_off_c, 2, 49, 0
4, 5376, Note_on_c, 2, 53, 93
4, 5388, Note_off_c, 2, 53, 0
4, 5388, Note_on_c, 2, 52, 93
4, 5400, Note_off_c, 2, 52, 0
4, 5400, Note_on_c, 2, 50, 93
4, 5424, Note_off_c, 2, 50, 0
4, 5424, Note_on_c, 2, 55, 93
4, 5520, Note_off_c, 2, 55, 0
4, 5520, Note_on_c, 2, 54, 93
4, 5568, Note_off_c, 2, 54, 0
4, 5568, Note_on_c, 2, 58, 93
4, 5616, Note_off_c, 2, 58, 0
4, 5616, Note_on_c, 2, 52, 93
4, 5664, Note_off_c, 2, 52, 0
4, 5664, Note_on_c, 2, 57, 93
4, 5712, Note_off_c, 2, 57, 0
4, 5712, Note_on_c, 2, 49, 93
4, 5760, Note_off_c, 2, 49, 0
4, 5760, Note_on_c, 2, 50, 93
4, 5808, Note_off_c, 2, 50, 0
4, 5808, Note_on_c, 2, 53, 93
4, 5832, Note_off_c, 2, 53, 0
4, 5832, Note_on_c, 2, 52, 93
4, 5856, Note_off_c, 2, 52, 0
4, 5856, Note_on_c, 2, 53, 93
4, 5904, Note_off_c, 2, 53, 0
4, 5904, Note_on_c, 2, 57, 93
4, 5952, Note_off_c, 2, 57, 0
4, 5952, Note_on_c, 2, 62, 93
4, 5976, Note_off_c, 2, 62, 0
4, 5976, Note_on_c, 2, 60, 93
4, 5988, Note_off_c, 2, 60, 0
4, 5988, Note_on_c, 2, 58, 93
4, 6000, Note_off_c, 2, 58, 0
4, 6000, Note_on_c, 2, 57, 93
4, 6012, Note_off_c, 2, 57, 0
4, 6012, Note_on_c, 2, 55, 93
4, 6024, Note_off_c, 2, 55, 0
4, 6024, Note_on_c, 2, 57, 93
4, 6048, Note_off_c, 2, 57, 0
4, 6048, Note_on_c, 2, 50, 93
4, 6144, Note_off_c, 2, 50, 0
4, 6144, Note_on_c, 2, 50, 93
4, 6168, Note_off_c, 2, 50, 0
4, 6168, Note_on_c, 2, 63, 93
4, 6192, Note_off_c, 2, 63, 0
4, 6192, Note_on_c, 2, 63, 93
4, 6216, Note_off_c, 2, 63, 0
4, 6216, Note_on_c, 2, 62, 93
4, 6240, Note_off_c, 2, 62, 0
4, 6240, Note_on_c, 2, 62, 93
4, 6264, Note_off_c, 2, 62, 0
4, 6264, Note_on_c, 2, 60, 93
4, 6288, Note_off_c, 2, 60, 0
4, 6288, Note_on_c, 2, 60, 93
4, 6312, Note_off_c, 2, 60, 0
4, 6312, Note_on_c, 2, 58, 93
4, 6336, Note_off_c, 2, 58, 0
4, 6336, Note_on_c, 2, 58, 93
4, 6360, Note_off_c, 2, 58, 0
4, 6360, Note_on_c, 2, 54, 93
4, 6384, Note_off_c, 2, 54, 0
4, 6384, Note_on_c, 2, 54, 93
4, 6408, Note_off_c, 2, 54, 0
4, 6408, Note_on_c, 2, 55, 93
4, 6432, Note_off_c, 2, 55, 0
4, 6432, Note_on_c, 2, 55, 93
4, 6456, Note_off_c, 2, 55, 0
4, 6456, Note_on_c, 2, 50, 93
4, 6480, Note_off_c, 2, 50, 0
4, 6480, Note_on_c, 2, 50, 93
4, 6552, Note_off_c, 2, 50, 0
4, 6552, Note_on_c, 2, 48, 93
4, 6564, Note_off_c, 2, 48, 0
4, 6564, Note_on_c, 2, 46, 93
4, 6576, Note_off_c, 2, 46, 0
4, 6576, Note_on_c, 2, 48, 93
4, 6600, Note_off_c, 2, 48, 0
4, 6600, Note_on_c, 2, 41, 93
4, 6624, Note_off_c, 2, 41, 0
4, 6624, Note_on_c, 2, 53, 93
4, 6648, Note_off_c, 2, 53, 0
4, 6648, Note_on_c, 2, 46, 93
4, 6672, Note_off_c, 2, 46, 0
4, 6672, Note_on_c, 2, 51, 93
4, 6744, Note_off_c, 2, 51, 0
4, 6744, Note_on_c, 2, 50, 93
4, 6756, Note_off_c, 2, 50, 0
4, 6756, Note_on_c, 2, 48, 93
4, 6768, Note_off_c, 2, 48, 0
4, 6768, Note_on_c, 2, 50, 93
4, 6780, Note_off_c, 2, 50, 0
4, 6780, Note_on_c, 2, 48, 93
4, 6792, Note_off_c, 2, 48, 0
4, 6792, Note_on_c, 2, 46, 93
4, 6816, Note_off_c, 2, 46, 0
4, 6816, Note_on_c, 2, 51, 93
4, 6840, Note_off_c, 2, 51, 0
4, 6840, Note_on_c, 2, 43, 93
4, 6864, Note_off_c, 2, 43, 0
4, 6864, Note_on_c, 2, 44, 93
4, 6888, Note_off_c, 2, 44, 0
4, 6888, Note_on_c, 2, 46, 93
4, 6912, Note_off_c, 2, 46, 0
4, 6912, Note_on_c, 2, 36, 93
4, 6936, Note_off_c, 2, 36, 0
4, 6936, Note_on_c, 2, 43, 93
4, 6960, Note_off_c, 2, 43, 0
4, 6960, Note_on_c, 2, 48, 93
4, 6984, Note_off_c, 2, 48, 0
4, 6984, Note_on_c, 2, 46, 93
4, 7008, Note_off_c, 2, 46, 0
4, 7008, Note_on_c, 2, 44, 93
4, 7032, Note_off_c, 2, 44, 0
4, 7032, Note_on_c, 2, 43, 93
4, 7056, Note_off_c, 2, 43, 0
4, 7056, Note_on_c, 2, 44, 93
4, 7128, Note_off_c, 2, 44, 0
4, 7128, Note_on_c, 2, 56, 93
4, 7152, Note_off_c, 2, 56, 0
4, 7152, Note_on_c, 2, 58, 93
4, 7176, Note_off_c, 2, 58, 0
4, 7176, Note_on_c, 2, 56, 93
4, 7200, Note_off_c, 2, 56, 0
4, 7200, Note_on_c, 2, 55, 93
4, 7224, Note_off_c, 2, 55, 0
4, 7224, Note_on_c, 2, 53, 93
4, 7248, Note_off_c, 2, 53, 0
4, 7248, Note_on_c, 2, 51, 93
4, 7272, Note_off_c, 2, 51, 0
4, 7272, Note_on_c, 2, 53, 93
4, 7296, Note_off_c, 2, 53, 0
4, 7296, Note_on_c, 2, 55, 93
4, 7320, Note_off_c, 2, 55, 0
4, 7320, Note_on_c, 2, 56, 93
4, 7344, Note_off_c, 2, 56, 0
4, 7344, Note_on_c, 2, 58, 93
4, 7392, Note_off_c, 2, 58, 0
4, 7392, Note_on_c, 2, 46, 93
4, 7464, Note_off_c, 2, 46, 0
4, 7464, Note_on_c, 2, 56, 93
4, 7488, Note_off_c, 2, 56, 0
4, 7488, Note_on_c, 2, 55, 93
4, 7512, Note_off_c, 2, 55, 0
4, 7512, Note_on_c, 2, 53, 93
4, 7536, Note_off_c, 2, 53, 0
4, 7536, Note_on_c, 2, 53, 93
4, 7560, Note_off_c, 2, 53, 0
4, 7560, Note_on_c, 2, 51, 93
4, 7584, Note_off_c, 2, 51, 0
4, 7584, Note_on_c, 2, 53, 93
4, 7608, Note_off_c, 2, 53, 0
4, 7608, Note_on_c, 2, 55, 93
4, 7632, Note_off_c, 2, 55, 0
4, 7632, Note_on_c, 2, 55, 93
4, 7656, Note_off_c, 2, 55, 0
4, 7656, Note_on_c, 2, 56, 93
4, 7680, Note_off_c, 2, 56, 0
4, 7680, Note_on_c, 2, 48, 93
4, 7728, Note_off_c, 2, 48, 0
4, 7728, Note_on_c, 2, 47, 93
4, 7776, Note_off_c, 2, 47, 0
4, 7800, Note_on_c, 2, 45, 93
4, 7824, Note_off_c, 2, 45, 0
4, 7824, Note_on_c, 2, 47, 93
4, 7848, Note_off_c, 2, 47, 0
4, 7848, Note_on_c, 2, 43, 93
4, 7872, Note_off_c, 2, 43, 0
4, 7872, Note_on_c, 2, 48, 93
4, 7920, Note_off_c, 2, 48, 0
4, 7920, Note_on_c, 2, 60, 93
4, 7968, Note_off_c, 2, 60, 0
4, 8016, Note_on_c, 2, 48, 93
4, 8088, Note_off_c, 2, 48, 0
4, 8088, Note_on_c, 2, 62, 93
4, 8112, Note_off_c, 2, 62, 0
4, 8112, Note_on_c, 2, 63, 93
4, 8136, Note_off_c, 2, 63, 0
4, 8136, Note_on_c, 2, 58, 93
4, 8160, Note_off_c, 2, 58, 0
4, 8160, Note_on_c, 2, 57, 93
4, 8184, Note_off_c, 2, 57, 0
4, 8184, Note_on_c, 2, 58, 93
4, 8208, Note_off_c, 2, 58, 0
4, 8208, Note_on_c, 2, 60, 93
4, 8232, Note_off_c, 2, 60, 0
4, 8232, Note_on_c, 2, 55, 93
4, 8256, Note_off_c, 2, 55, 0
4, 8256, Note_on_c, 2, 55, 93
4, 8304, Note_off_c, 2, 55, 0
4, 8304, Note_on_c, 2, 54, 93
4, 8328, Note_off_c, 2, 54, 0
4, 8328, Note_on_c, 2, 55, 93
4, 8352, Note_off_c, 2, 55, 0
4, 8352, Note_on_c, 2, 57, 93
4, 8376, Note_off_c, 2, 57, 0
4, 8376, Note_on_c, 2, 58, 93
4, 8388, Note_off_c, 2, 58, 0
4, 8388, Note_on_c, 2, 60, 93
4, 8400, Note_off_c, 2, 60, 0
4, 8400, Note_on_c, 2, 62, 93
4, 8412, Note_off_c, 2, 62, 0
4, 8412, Note_on_c, 2, 63, 93
4, 8424, Note_off_c, 2, 63, 0
4, 8424, Note_on_c, 2, 60, 93
4, 8448, Note_off_c, 2, 60, 0
4, 8448, Note_on_c, 2, 58, 93
4, 8460, Note_off_c, 2, 58, 0
4, 8460, Note_on_c, 2, 62, 93
4, 8472, Note_off_c, 2, 62, 0
4, 8472, Note_on_c, 2, 60, 93
4, 8496, Note_off_c, 2, 60, 0
4, 8496, Note_on_c, 2, 58, 93
4, 8508, Note_off_c, 2, 58, 0
4, 8508, Note_on_c, 2, 60, 93
4, 8520, Note_off_c, 2, 60, 0
4, 8520, Note_on_c, 2, 57, 93
4, 8544, Note_off_c, 2, 57, 0
4, 8544, Note_on_c, 2, 55, 93
4, 8556, Note_off_c, 2, 55, 0
4, 8556, Note_on_c, 2, 57, 93
4, 8568, Note_off_c, 2, 57, 0
4, 8568, Note_on_c, 2, 53, 93
4, 8592, Note_off_c, 2, 53, 0
4, 8592, Note_on_c, 2, 51, 93
4, 8604, Note_off_c, 2, 51, 0
4, 8604, Note_on_c, 2, 53, 93
4, 8616, Note_off_c, 2, 53, 0
4, 8616, Note_on_c, 2, 50, 93
4, 8640, Note_off_c, 2, 50, 0
4, 8640, Note_on_c, 2, 48, 93
4, 8664, Note_off_c, 2, 48, 0
4, 8664, Note_on_c, 2, 51, 93
4, 8676, Note_off_c, 2, 51, 0
4, 8676, Note_on_c, 2, 50, 93
4, 8688, Note_off_c, 2, 50, 0
4, 8688, Note_on_c, 2, 51, 93
4, 8712, Note_off_c, 2, 51, 0
4, 8712, Note_on_c, 2, 42, 93
4, 8736, Note_off_c, 2, 42, 0
4, 8736, Note_on_c, 2, 43, 93
4, 8784, Note_off_c, 2, 43, 0
4, 8808, Note_on_c, 2, 48, 93
4, 8832, Note_off_c, 2, 48, 0
4, 8832, Note_on_c, 2, 50, 93
4, 8880, Note_off_c, 2, 50, 0
4, 8904, Note_on_c, 2, 51, 93
4, 8928, Note_off_c, 2, 51, 0
4, 8928, Note_on_c, 2, 48, 93
4, 8976, Note_off_c, 2, 48, 0
4, 8976, Note_on_c, 2, 50, 93
4, 9024, Note_off_c, 2, 50, 0
4, 9024, Note_on_c, 2, 55, 93
4, 9048, Note_off_c, 2, 55, 0
4, 9048, Note_on_c, 2, 50, 93
4, 9060, Note_off_c, 2, 50, 0
4, 9060, Note_on_c, 2, 48, 93
4, 9072, Note_off_c, 2, 48, 0
4, 9072, Note_on_c, 2, 46, 93
4, 9084, Note_off_c, 2, 46, 0
4, 9084, Note_on_c, 2, 48, 93
4, 9096, Note_off_c, 2, 48, 0
4, 9096, Note_on_c, 2, 45, 93
4, 9120, Note_off_c, 2, 45, 0
4, 9120, Note_on_c, 2, 43, 93
4, 9216, Note_off_c, 2, 43, 0
4, 9216, Note_on_c, 2, 50, 93
4, 9240, Note_off_c, 2, 50, 0
4, 9240, Note_on_c, 2, 63, 93
4, 9264, Note_off_c, 2, 63, 0
4, 9264, Note_on_c, 2, 63, 93
4, 9288, Note_off_c, 2, 63, 0
4, 9288, Note_on_c, 2, 62, 93
4, 9312, Note_off_c, 2, 62, 0
4, 9312, Note_on_c, 2, 62, 93
4, 9336, Note_off_c, 2, 62, 0
4, 9336, Note_on_c, 2, 60, 93
4, 9360, Note_off_c, 2, 60, 0
4, 9360, Note_on_c, 2, 60, 93
4, 9384, Note_off_c, 2, 60, 0
4, 9384, Note_on_c, 2, 58, 93
4, 9408, Note_off_c, 2, 58, 0
4, 9408, Note_on_c, 2, 58, 93
4, 9432, Note_off_c, 2, 58, 0
4, 9432, Note_on_c, 2, 54, 93
4, 9456, Note_off_c, 2, 54, 0
4, 9456, Note_on_c, 2, 54, 93
4, 9480, Note_off_c, 2, 54, 0
4, 9480, Note_on_c, 2, 55, 93
4, 9504, Note_off_c, 2, 55, 0
4, 9504, Note_on_c, 2, 55, 93
4, 9528, Note_off_c, 2, 55, 0
4, 9528, Note_on_c, 2, 50, 93
4, 9552, Note_off_c, 2, 50, 0
4, 9552, Note_on_c, 2, 50, 93
4, 9624, Note_off_c, 2, 50, 0
4, 9624, Note_on_c, 2, 48, 93
4, 9636, Note_off_c, 2, 48, 0
4, 9636, Note_on_c, 2, 46, 93
4, 9648, Note_off_c, 2, 46, 0
4, 9648, Note_on_c, 2, 48, 93
4, 9672, Note_off_c, 2, 48, 0
4, 9672, Note_on_c, 2, 41, 93
4, 9696, Note_off_c, 2, 41, 0
4, 9696, Note_on_c, 2, 53, 93
4, 9720, Note_off_c, 2, 53, 0
4, 9720, Note_on_c, 2, 46, 93
4, 9744, Note_off_c, 2, 46, 0
4, 9744, Note_on_c, 2, 51, 93
4, 9816, Note_off_c, 2, 51, 0
4, 9816, Note_on_c, 2, 50, 93
4, 9828, Note_off_c, 2, 50, 0
4, 9828, Note_on_c, 2, 48, 93
4, 9840, Note_off_c, 2, 48, 0
4, 9840, Note_on_c, 2, 50, 93
4, 9852, Note_off_c, 2, 50, 0
4, 9852, Note_on_c, 2, 48, 93
4, 9864, Note_off_c, 2, 48, 0
4, 9864, Note_on_c, 2, 46, 93
4, 9888, Note_off_c, 2, 46, 0
4, 9888, Note_on_c, 2, 51, 93
4, 9912, Note_off_c, 2, 51, 0
4, 9912, Note_on_c, 2, 43, 93
4, 9936, Note_off_c, 2, 43, 0
4, 9936, Note_on_c, 2, 44, 93
4, 9960, Note_off_c, 2, 44, 0
4, 9960, Note_on_c, 2, 46, 93
4, 9984, Note_off_c, 2, 46, 0
4, 9984, Note_on_c, 2, 36, 93
4, 10008, Note_off_c, 2, 36, 0
4, 10008, Note_on_c, 2, 43, 93
4, 10032, Note_off_c, 2, 43, 0
4, 10032, Note_on_c, 2, 48, 93
4, 10056, Note_off_c, 2, 48, 0
4, 10056, Note_on_c, 2, 46, 93
4, 10080, Note_off_c, 2, 46, 0
4, 10080, Note_on_c, 2, 44, 93
4, 10104, Note_off_c, 2, 44, 0
4, 10104, Note_on_c, 2, 43, 93
4, 10128, Note_off_c, 2, 43, 0
4, 10128, Note_on_c, 2, 44, 93
4, 10200, Note_off_c, 2, 44, 0
4, 10200, Note_on_c, 2, 56, 93
4, 10224, Note_off_c, 2, 56, 0
4, 10224, Note_on_c, 2, 58, 93
4, 10248, Note_off_c, 2, 58, 0
4, 10248, Note_on_c, 2, 56, 93
4, 10272, Note_off_c, 2, 56, 0
4, 10272, Note_on_c, 2, 55, 93
4, 10296, Note_off_c, 2, 55, 0
4, 10296, Note_on_c, 2, 53, 93
4, 10320, Note_off_c, 2, 53, 0
4, 10320, Note_on_c, 2, 51, 93
4, 10344, Note_off_c, 2, 51, 0
4, 10344, Note_on_c, 2, 53, 93
4, 10368, Note_off_c, 2, 53, 0
4, 10368, Note_on_c, 2, 55, 93
4, 10392, Note_off_c, 2, 55, 0
4, 10392, Note_on_c, 2, 56, 93
4, 10416, Note_off_c, 2, 56, 0
4, 10416, Note_on_c, 2, 58, 93
4, 10464, Note_off_c, 2, 58, 0
4, 10464, Note_on_c, 2, 46, 93
4, 10536, Note_off_c, 2, 46, 0
4, 10536, Note_on_c, 2, 56, 93
4, 10560, Note_off_c, 2, 56, 0
4, 10560, Note_on_c, 2, 55, 93
4, 10584, Note_off_c, 2, 55, 0
4, 10584, Note_on_c, 2, 53, 93
4, 10608, Note_off_c, 2, 53, 0
4, 10608, Note_on_c, 2, 53, 93
4, 10632, Note_off_c, 2, 53, 0
4, 10632, Note_on_c, 2, 51, 93
4, 10656, Note_off_c, 2, 51, 0
4, 10656, Note_on_c, 2, 53, 93
4, 10680, Note_off_c, 2, 53, 0
4, 10680, Note_on_c, 2, 55, 93
4, 10704, Note_off_c, 2, 55, 0
4, 10704, Note_on_c, 2, 55, 93
4, 10728, Note_off_c, 2, 55, 0
4, 10728, Note_on_c, 2, 56, 93
4, 10752, Note_off_c, 2, 56, 0
4, 10752, Note_on_c, 2, 48, 93
4, 10800, Note_off_c, 2, 48, 0
4, 10800, Note_on_c, 2, 47, 93
4, 10848, Note_off_c, 2, 47, 0
4, 10872, Note_on_c, 2, 45, 93
4, 10896, Note_off_c, 2, 45, 0
4, 10896, Note_on_c, 2, 47, 93
4, 10920, Note_off_c, 2, 47, 0
4, 10920, Note_on_c, 2, 43, 93
4, 10944, Note_off_c, 2, 43, 0
4, 10944, Note_on_c, 2, 48, 93
4, 10992, Note_off_c, 2, 48, 0
4, 10992, Note_on_c, 2, 60, 93
4, 11040, Note_off_c, 2, 60, 0
4, 11088, Note_on_c, 2, 48, 93
4, 11160, Note_off_c, 2, 48, 0
4, 11160, Note_on_c, 2, 62, 93
4, 11184, Note_off_c, 2, 62, 0
4, 11184, Note_on_c, 2, 63, 93
4, 11208, Note_off_c, 2, 63, 0
4, 11208, Note_on_c, 2, 58, 93
4, 11232, Note_off_c, 2, 58, 0
4, 11232, Note_on_c, 2, 57, 93
4, 11256, Note_off_c, 2, 57, 0
4, 11256, Note_on_c, 2, 58, 93
4, 11280, Note_off_c, 2, 58, 0
4, 11280, Note_on_c, 2, 60, 93
4, 11304, Note_off_c, 2, 60, 0
4, 11304, Note_on_c, 2, 55, 93
4, 11328, Note_off_c, 2, 55, 0
4, 11328, Note_on_c, 2, 55, 93
4, 11376, Note_off_c, 2, 55, 0
4, 11376, Note_on_c, 2, 54, 93
4, 11400, Note_off_c, 2, 54, 0
4, 11400, Note_on_c, 2, 55, 93
4, 11424, Note_off_c, 2, 55, 0
4, 11424, Note_on_c, 2, 57, 93
4, 11448, Note_off_c, 2, 57, 0
4, 11448, Note_on_c, 2, 58, 93
4, 11460, Note_off_c, 2, 58, 0
4, 11460, Note_on_c, 2, 60, 93
4, 11472, Note_off_c, 2, 60, 0
4, 11472, Note_on_c, 2, 62, 93
4, 11484, Note_off_c, 2, 62, 0
4, 11484, Note_on_c, 2, 63, 93
4, 11496, Note_off_c, 2, 63, 0
4, 11496, Note_on_c, 2, 60, 93
4, 11520, Note_off_c, 2, 60, 0
4, 11520, Note_on_c, 2, 58, 93
4, 11532, Note_off_c, 2, 58, 0
4, 11532, Note_on_c, 2, 62, 93
4, 11544, Note_off_c, 2, 62, 0
4, 11544, Note_on_c, 2, 60, 93
4, 11568, Note_off_c, 2, 60, 0
4, 11568, Note_on_c, 2, 58, 93
4, 11580, Note_off_c, 2, 58, 0
4, 11580, Note_on_c, 2, 60, 93
4, 11592, Note_off_c, 2, 60, 0
4, 11592, Note_on_c, 2, 57, 93
4, 11616, Note_off_c, 2, 57, 0
4, 11616, Note_on_c, 2, 55, 93
4, 11628, Note_off_c, 2, 55, 0
4, 11628, Note_on_c, 2, 57, 93
4, 11640, Note_off_c, 2, 57, 0
4, 11640, Note_on_c, 2, 53, 93
4, 11664, Note_off_c, 2, 53, 0
4, 11664, Note_on_c, 2, 51, 93
4, 11676, Note_off_c, 2, 51, 0
4, 11676, Note_on_c, 2, 53, 93
4, 11688, Note_off_c, 2, 53, 0
4, 11688, Note_on_c, 2, 50, 93
4, 11712, Note_off_c, 2, 50, 0
4, 11712, Note_on_c, 2, 48, 93
4, 11736, Note_off_c, 2, 48, 0
4, 11736, Note_on_c, 2, 51, 93
4, 11748, Note_off_c, 2, 51, 0
4, 11748, Note_on_c, 2, 50, 93
4, 11760, Note_off_c, 2, 50, 0
4, 11760, Note_on_c, 2, 51, 93
4, 11784, Note_off_c, 2, 51, 0
4, 11784, Note_on_c, 2, 42, 93
4, 11808, Note_off_c, 2, 42, 0
4, 11808, Note_on_c, 2, 43, 93
4, 11856, Note_off_c, 2, 43, 0
4, 11880, Note_on_c, 2, 48, 93
4, 11904, Note_off_c, 2, 48, 0
4, 11904, Note_on_c, 2, 50, 93
4, 11952, Note_off_c, 2, 50, 0
4, 11976, Note_on_c, 2, 51, 93
4, 12000, Note_off_c, 2, 51, 0
4, 12000, Note_on_c, 2, 48, 93
4, 12048, Note_off_c, 2, 48, 0
4, 12048, Note_on_c, 2, 50, 93
4, 12096, Note_off_c, 2, 50, 0
4, 12096, Note_on_c, 2, 55, 93
4, 12120, Note_off_c, 2, 55, 0
4, 12120, Note_on_c, 2, 50, 93
4, 12132, Note_off_c, 2, 50, 0
4, 12132, Note_on_c, 2, 48, 93
4, 12144, Note_off_c, 2, 48, 0
4, 12144, Note_on_c, 2, 46, 93
4, 12156, Note_off_c, 2, 46, 0
4, 12156, Note_on_c, 2, 48, 93
4, 12168, Note_off_c, 2, 48, 0
4, 12168, Note_on_c, 2, 45, 93
4, 12192, Note_off_c, 2, 45, 0
4, 12192, Note_on_c, 2, 43, 93
4, 12288, Note_off_c, 2, 43, 0
4, 12288, End_track
0, 0, End_of_file
