0, 0, Header, 1, 5, 96
1, 0, Start_track
1, 0, Time_signature, 4, 2, 24, 8
1, 0, Title_t, "untitled"
1, 0, Title_t, "Track1"
1, 0, Tempo, 600000
1, 0, End_track
2, 0, Start_track
2, 0, Title_t, "Track2"
2, 0, Program_c, 0, 6
2, 0, Control_c, 0, 7, 100
2, 0, Control_c, 0, 10, 79
2, 0, Note_on_c, 0, 83, 93
2, 24, Note_off_c, 0, 83, 0
2, 96, Note_on_c, 0, 86, 93
2, 120, Note_off_c, 0, 86, 0
2, 192, Note_on_c, 0, 79, 93
2, 216, Note_off_c, 0, 79, 0
2, 288, Note_on_c, 0, 81, 93
2, 312, Note_off_c, 0, 81, 0
2, 384, Note_on_c, 0, 86, 93
2, 408, Note_off_c, 0, 86, 0
2, 480, Note_on_c, 0, 78, 93
2, 504, Note_off_c, 0, 78, 0
2, 576, Note_on_c, 0, 79, 93
2, 600, Note_off_c, 0, 79, 0
2, 672, Note_on_c, 0, 83, 93
2, 696, Note_off_c, 0, 83, 0
2, 768, Note_on_c, 0, 81, 93
2, 792, Note_off_c, 0, 81, 0
2, 864, Note_on_c, 0, 78, 93
2, 888, Note_off_c, 0, 78, 0
2, 960, Note_on_c, 0, 85, 93
2, 984, Note_off_c, 0, 85, 0
2, 1056, Note_on_c, 0, 86, 93
2, 1080, Note_off_c, 0, 86, 0
2, 1152, Note_on_c, 0, 79, 93
2, 1200, Note_off_c, 0, 79, 0
2, 1200, Note_on_c, 0, 55, 93
2, 1248, Note_off_c, 0, 55, 0
2, 1248, Note_on_c, 0, 57, 93
2, 1296, Note_off_c, 0, 57, 0
2, 1296, Note_on_c, 0, 76, 93
2, 1344, Note_off_c, 0, 76, 0
2, 1344, Note_on_c, 0, 77, 93
2, 1392, Note_off_c, 0, 77, 0
2, 1392, Note_on_c, 0, 74, 93
2, 1440, Note_off_c, 0, 74, 0
2, 1440, Note_on_c, 0, 76, 93
2, 1488, Note_off_c, 0, 76, 0
2, 1488, Note_on_c, 0, 57, 93
2, 1536, Note_off_c, 0, 57, 0
2, 1536, Note_on_c, 0, 59, 93
2, 1584, Note_off_c, 0, 59, 0
2, 1584, Note_on_c, 0, 78, 93
2, 1632, Note_off_c, 0, 78, 0
2, 1632, Note_on_c, 0, 79, 93
2, 1680, Note_off_c, 0, 79, 0
2, 1680, Note_on_c, 0, 73, 93
2, 1728, Note_off_c, 0, 73, 0
2, 1728, Note_on_c, 0, 74, 93
2, 1776, Note_off_c, 0, 74, 0
2, 1776, Note_on_c, 0, 54, 93
2, 1824, Note_off_c, 0, 54, 0
2, 1824, Note_on_c, 0, 55, 93
2, 1872, Note_off_c, 0, 55, 0
2, 1872, Note_on_c, 0, 49, 93
2, 1920, Note_off_c, 0, 49, 0
2, 1920, Note_on_c, 0, 50, 93
2, 1968, Note_off_c, 0, 50, 0
2, 1968, Note_on_c, 0, 38, 93
2, 2016, Note_off_c, 0, 38, 0
2, 2016, Note_on_c, 0, 43, 93
2, 2064, Note_off_c, 0, 43, 0
2, 2064, Note_on_c, 0, 76, 93
2, 2112, Note_off_c, 0, 76, 0
2, 2112, Note_on_c, 0, 74, 93
2, 2160, Note_off_c, 0, 74, 0
2, 2160, Note_on_c, 0, 72, 93
2, 2208, Note_off_c, 0, 72, 0
2, 2208, Note_on_c, 0, 71, 93
2, 2256, Note_off_c, 0, 71, 0
2, 2256, Note_on_c, 0, 72, 93
2, 2304, Note_off_c, 0, 72, 0
2, 2304, Note_on_c, 0, 79, 93
2, 2328, Note_off_c, 0, 79, 0
2, 3456, Note_on_c, 0, 66, 93
2, 3480, Note_off_c, 0, 66, 0
2, 3552, Note_on_c, 0, 67, 93
2, 3576, Note_off_c, 0, 67, 0
2, 3648, Note_on_c, 0, 69, 93
2, 3672, Note_off_c, 0, 69, 0
2, 3744, Note_on_c, 0, 71, 93
2, 3768, Note_off_c, 0, 71, 0
2, 3840, Note_on_c, 0, 69, 93
2, 3864, Note_off_c, 0, 69, 0
2, 3936, Note_on_c, 0, 67, 93
2, 3960, Note_off_c, 0, 67, 0
2, 4032, Note_on_c, 0, 69, 93
2, 4056, Note_off_c, 0, 69, 0
2, 4128, Note_on_c, 0, 71, 93
2, 4152, Note_off_c, 0, 71, 0
2, 4224, Note_on_c, 0, 69, 93
2, 4248, Note_off_c, 0, 69, 0
2, 4608, Note_on_c, 0, 83, 93
2, 4632, Note_off_c, 0, 83, 0
2, 4704, Note_on_c, 0, 86, 93
2, 4728, Note_off_c, 0, 86, 0
2, 4800, Note_on_c, 0, 79, 93
2, 4824, Note_off_c, 0, 79, 0
2, 4896, Note_on_c, 0, 81, 93
2, 4920, Note_off_c, 0, 81, 0
2, 4992, Note_on_c, 0, 86, 93
2, 5016, Note_off_c, 0, 86, 0
2, 5088, Note_on_c, 0, 78, 93
2, 5112, Note_off_c, 0, 78, 0
2, 5184, Note_on_c, 0, 79, 93
2, 5208, Note_off_c, 0, 79, 0
2, 5280, Note_on_c, 0, 83, 93
2, 5304, Note_off_c, 0, 83, 0
2, 5376, Note_on_c, 0, 81, 93
2, 5400, Note_off_c, 0, 81, 0
2, 5472, Note_on_c, 0, 78, 93
2, 5496, Note_off_c, 0, 78, 0
2, 5568, Note_on_c, 0, 85, 93
2, 5592, Note_off_c, 0, 85, 0
2, 5664, Note_on_c, 0, 86, 93
2, 5688, Note_off_c, 0, 86, 0
2, 5760, Note_on_c, 0, 79, 93
2, 5808, Note_off_c, 0, 79, 0
2, 5808, Note_on_c, 0, 55, 93
2, 5856, Note_off_c, 0, 55, 0
2, 5856, Note_on_c, 0, 57, 93
2, 5904, Note_off_c, 0, 57, 0
2, 5904, Note_on_c, 0, 76, 93
2, 5952, Note_off_c, 0, 76, 0
2, 5952, Note_on_c, 0, 77, 93
2, 6000, Note_off_c, 0, 77, 0
2, 6000, Note_on_c, 0, 74, 93
2, 6048, Note_off_c, 0, 74, 0
2, 6048, Note_on_c, 0, 76, 93
2, 6096, Note_off_c, 0, 76, 0
2, 6096, Note_on_c, 0, 57, 93
2, 6144, Note_off_c, 0, 57, 0
2, 6144, Note_on_c, 0, 59, 93
2, 6192, Note_off_c, 0, 59, 0
2, 6192, Note_on_c, 0, 78, 93
2, 6240, Note_off_c, 0, 78, 0
2, 6240, Note_on_c, 0, 79, 93
2, 6288, Note_off_c, 0, 79, 0
2, 6288, Note_on_c, 0, 73, 93
2, 6336, Note_off_c, 0, 73, 0
2, 6336, Note_on_c, 0, 74, 93
2, 6384, Note_off_c, 0, 74, 0
2, 6384, Note_on_c, 0, 54, 93
2, 6432, Note_off_c, 0, 54, 0
2, 6432, Note_on_c, 0, 55, 93
2, 6480, Note_off_c, 0, 55, 0
2, 6480, Note_on_c, 0, 49, 93
2, 6528, Note_off_c, 0, 49, 0
2, 6528, Note_on_c, 0, 50, 93
2, 6576, Note_off_c, 0, 50, 0
2, 6576, Note_on_c, 0, 38, 93
2, 6624, Note_off_c, 0, 38, 0
2, 6624, Note_on_c, 0, 43, 93
2, 6672, Note_off_c, 0, 43, 0
2, 6672, Note_on_c, 0, 76, 93
2, 6720, Note_off_c, 0, 76, 0
2, 6720, Note_on_c, 0, 74, 93
2, 6768, Note_off_c, 0, 74, 0
2, 6768, Note_on_c, 0, 72, 93
2, 6816, Note_off_c, 0, 72, 0
2, 6816, Note_on_c, 0, 71, 93
2, 6864, Note_off_c, 0, 71, 0
2, 6864, Note_on_c, 0, 72, 93
2, 6912, Note_off_c, 0, 72, 0
2, 6912, Note_on_c, 0, 79, 93
2, 6936, Note_off_c, 0, 79, 0
2, 8064, Note_on_c, 0, 66, 93
2, 8088, Note_off_c, 0, 66, 0
2, 8160, Note_on_c, 0, 67, 93
2, 8184, Note_off_c, 0, 67, 0
2, 8256, Note_on_c, 0, 69, 93
2, 8280, Note_off_c, 0, 69, 0
2, 8352, Note_on_c, 0, 71, 93
2, 8376, Note_off_c, 0, 71, 0
2, 8448, Note_on_c, 0, 69, 93
2, 8472, Note_off_c, 0, 69, 0
2, 8544, Note_on_c, 0, 67, 93
2, 8568, Note_off_c, 0, 67, 0
2, 8640, Note_on_c, 0, 69, 93
2, 8664, Note_off_c, 0, 69, 0
2, 8736, Note_on_c, 0, 71, 93
2, 8760, Note_off_c, 0, 71, 0
2, 8832, Note_on_c, 0, 69, 93
2, 8856, Note_off_c, 0, 69, 0
2, 10380, Note_on_c, 0, 79, 93
2, 10392, Note_off_c, 0, 79, 0
2, 10392, Note_on_c, 0, 81, 93
2, 10404, Note_off_c, 0, 81, 0
2, 10404, Note_on_c, 0, 79, 93
2, 10416, Note_off_c, 0, 79, 0
2, 10416, Note_on_c, 0, 81, 93
2, 10428, Note_off_c, 0, 81, 0
2, 10428, Note_on_c, 0, 79, 93
2, 10440, Note_off_c, 0, 79, 0
2, 10440, Note_on_c, 0, 81, 93
2, 10452, Note_off_c, 0, 81, 0
2, 10452, Note_on_c, 0, 79, 93
2, 10464, Note_off_c, 0, 79, 0
2, 10476, Note_on_c, 0, 79, 93
2, 10488, Note_off_c, 0, 79, 0
2, 10488, Note_on_c, 0, 81, 93
2, 10500, Note_off_c, 0, 81, 0
2, 10500, Note_on_c, 0, 79, 93
2, 10512, Note_off_c, 0, 79, 0
2, 10512, Note_on_c, 0, 81, 93
2, 10524, Note_off_c, 0, 81, 0
2, 10524, Note_on_c, 0, 79, 93
2, 10536, Note_off_c, 0, 79, 0
2, 10536, Note_on_c, 0, 81, 93
2, 10548, Note_off_c, 0, 81, 0
2, 10548, Note_on_c, 0, 79, 93
2, 10560, Note_off_c, 0, 79, 0
2, 10572, Note_on_c, 0, 79, 93
2, 10584, Note_off_c, 0, 79, 0
2, 10584, Note_on_c, 0, 81, 93
2, 10596, Note_off_c, 0, 81, 0
2, 10596, Note_on_c, 0, 79, 93
2, 10608, Note_off_c, 0, 79, 0
2, 10608, Note_on_c, 0, 81, 93
2, 10620, Note_off_c, 0, 81, 0
2, 10620, Note_on_c, 0, 79, 93
2, 10632, Note_off_c, 0, 79, 0
2, 10632, Note_on_c, 0, 81, 93
2, 10644, Note_off_c, 0, 81, 0
2, 10644, Note_on_c, 0, 79, 93
2, 10656, Note_off_c, 0, 79, 0
2, 10668, Note_on_c, 0, 79, 93
2, 10680, Note_off_c, 0, 79, 0
2, 10680, Note_on_c, 0, 81, 93
2, 10692, Note_off_c, 0, 81, 0
2, 10692, Note_on_c, 0, 79, 93
2, 10704, Note_off_c, 0, 79, 0
2, 10704, Note_on_c, 0, 81, 93
2, 10716, Note_off_c, 0, 81, 0
2, 10716, Note_on_c, 0, 79, 93
2, 10728, Note_off_c, 0, 79, 0
2, 10728, Note_on_c, 0, 81, 93
2, 10740, Note_off_c, 0, 81, 0
2, 10740, Note_on_c, 0, 79, 93
2, 10752, Note_off_c, 0, 79, 0
2, 10764, Note_on_c, 0, 79, 93
2, 10776, Note_off_c, 0, 79, 0
2, 10776, Note_on_c, 0, 81, 93
2, 10788, Note_off_c, 0, 81, 0
2, 10788, Note_on_c, 0, 79, 93
2, 10800, Note_off_c, 0, 79, 0
2, 10800, Note_on_c, 0, 81, 93
2, 10812, Note_off_c, 0, 81, 0
2, 10812, Note_on_c, 0, 79, 93
2, 10824, Note_off_c, 0, 79, 0
2, 10824, Note_on_c, 0, 81, 93
2, 10836, Note_off_c, 0, 81, 0
2, 10836, Note_on_c, 0, 79, 93
2, 10848, Note_off_c, 0, 79, 0
2, 10860, Note_on_c, 0, 79, 93
2, 10872, Note_off_c, 0, 79, 0
2, 10872, Note_on_c, 0, 81, 93
2, 10884, Note_off_c, 0, 81, 0
2, 10884, Note_on_c, 0, 79, 93
2, 10896, Note_off_c, 0, 79, 0
2, 10896, Note_on_c, 0, 81, 93
2, 10908, Note_off_c, 0, 81, 0
2, 10908, Note_on_c, 0, 79, 93
2, 10920, Note_off_c, 0, 79, 0
2, 10920, Note_on_c, 0, 81, 93
2, 10932, Note_off_c, 0, 81, 0
2, 10932, Note_on_c, 0, 79, 93
2, 10944, Note_off_c, 0, 79, 0
2, 10956, Note_on_c, 0, 79, 93
2, 10968, Note_off_c, 0, 79, 0
2, 10968, Note_on_c, 0, 81, 93
2, 10980, Note_off_c, 0, 81, 0
2, 10980, Note_on_c, 0, 79, 93
2, 10992, Note_off_c, 0, 79, 0
2, 10992, Note_on_c, 0, 81, 93
2, 11004, Note_off_c, 0, 81, 0
2, 11004, Note_on_c, 0, 79, 93
2, 11016, Note_off_c, 0, 79, 0
2, 11016, Note_on_c, 0, 81, 93
2, 11028, Note_off_c, 0, 81, 0
2, 11028, Note_on_c, 0, 79, 93
2, 11040, Note_off_c, 0, 79, 0
2, 11052, Note_on_c, 0, 79, 93
2, 11064, Note_off_c, 0, 79, 0
2, 11064, Note_on_c, 0, 81, 93
2, 11076, Note_off_c, 0, 81, 0
2, 11076, Note_on_c, 0, 79, 93
2, 11088, Note_off_c, 0, 79, 0
2, 11088, Note_on_c, 0, 81, 93
2, 11100, Note_off_c, 0, 81, 0
2, 11100, Note_on_c, 0, 79, 93
2, 11112, Note_off_c, 0, 79, 0
2, 11112, Note_on_c, 0, 81, 93
2, 11124, Note_off_c, 0, 81, 0
2, 11124, Note_on_c, 0, 79, 93
2, 11136, Note_off_c, 0, 79, 0
2, 11148, Note_on_c, 0, 78, 93
2, 11160, Note_off_c, 0, 78, 0
2, 11160, Note_on_c, 0, 79, 93
2, 11172, Note_off_c, 0, 79, 0
2, 11172, Note_on_c, 0, 78, 93
2, 11184, Note_off_c, 0, 78, 0
2, 11184, Note_on_c, 0, 79, 93
2, 11196, Note_off_c, 0, 79, 0
2, 11196, Note_on_c, 0, 78, 93
2, 11208, Note_off_c, 0, 78, 0
2, 11208, Note_on_c, 0, 79, 93
2, 11220, Note_off_c, 0, 79, 0
2, 11220, Note_on_c, 0, 78, 93
2, 11232, Note_off_c, 0, 78, 0
2, 11232, Note_on_c, 0, 76, 93
2, 11256, Note_off_c, 0, 76, 0
2, 11256, Note_on_c, 0, 67, 93
2, 11280, Note_off_c, 0, 67, 0
2, 11280, Note_on_c, 0, 66, 93
2, 11304, Note_off_c, 0, 66, 0
2, 11304, Note_on_c, 0, 67, 93
2, 11328, Note_off_c, 0, 67, 0
2, 11328, Note_on_c, 0, 71, 93
2, 11352, Note_off_c, 0, 71, 0
2, 11352, Note_on_c, 0, 76, 93
2, 11376, Note_off_c, 0, 76, 0
2, 11376, Note_on_c, 0, 75, 93
2, 11400, Note_off_c, 0, 75, 0
2, 11400, Note_on_c, 0, 76, 93
2, 11424, Note_off_c, 0, 76, 0
2, 11424, Note_on_c, 0, 79, 93
2, 11436, Note_off_c, 0, 79, 0
2, 11436, Note_on_c, 0, 77, 93
2, 11448, Note_off_c, 0, 77, 0
2, 11448, Note_on_c, 0, 76, 93
2, 11472, Note_off_c, 0, 76, 0
2, 11472, Note_on_c, 0, 77, 93
2, 11484, Note_off_c, 0, 77, 0
2, 11484, Note_on_c, 0, 76, 93
2, 11496, Note_off_c, 0, 76, 0
2, 11496, Note_on_c, 0, 74, 93
2, 11520, Note_off_c, 0, 74, 0
2, 11520, Note_on_c, 0, 76, 93
2, 11568, Note_off_c, 0, 76, 0
2, 11568, Note_on_c, 0, 64, 93
2, 11616, Note_off_c, 0, 64, 0
2, 11616, Note_on_c, 0, 63, 93
2, 11664, Note_off_c, 0, 63, 0
2, 11664, Note_on_c, 0, 62, 93
2, 11712, Note_off_c, 0, 62, 0
2, 11712, Note_on_c, 0, 61, 93
2, 11760, Note_off_c, 0, 61, 0
2, 11760, Note_on_c, 0, 76, 93
2, 11808, Note_off_c, 0, 76, 0
2, 11808, Note_on_c, 0, 74, 93
2, 11856, Note_off_c, 0, 74, 0
2, 11856, Note_on_c, 0, 62, 93
2, 11904, Note_off_c, 0, 62, 0
2, 11904, Note_on_c, 0, 61, 93
2, 11952, Note_off_c, 0, 61, 0
2, 11952, Note_on_c, 0, 60, 93
2, 12000, Note_off_c, 0, 60, 0
2, 12000, Note_on_c, 0, 59, 93
2, 12048, Note_off_c, 0, 59, 0
2, 12048, Note_on_c, 0, 74, 93
2, 12096, Note_off_c, 0, 74, 0
2, 12108, Note_on_c, 0, 72, 93
2, 12120, Note_off_c, 0, 72, 0
2, 12120, Note_on_c, 0, 74, 93
2, 12132, Note_off_c, 0, 74, 0
2, 12132, Note_on_c, 0, 72, 93
2, 12144, Note_off_c, 0, 72, 0
2, 12144, Note_on_c, 0, 74, 93
2, 12156, Note_off_c, 0, 74, 0
2, 12156, Note_on_c, 0, 72, 93
2, 12168, Note_off_c, 0, 72, 0
2, 12168, Note_on_c, 0, 74, 93
2, 12180, Note_off_c, 0, 74, 0
2, 12180, Note_on_c, 0, 72, 93
2, 12192, Note_off_c, 0, 72, 0
2, 12204, Note_on_c, 0, 72, 93
2, 12216, Note_off_c, 0, 72, 0
2, 12216, Note_on_c, 0, 74, 93
2, 12228, Note_off_c, 0, 74, 0
2, 12228, Note_on_c, 0, 72, 93
2, 12240, Note_off_c, 0, 72, 0
2, 12240, Note_on_c, 0, 74, 93
2, 12252, Note_off_c, 0, 74, 0
2, 12252, Note_on_c, 0, 72, 93
2, 12264, Note_off_c, 0, 72, 0
2, 12264, Note_on_c, 0, 74, 93
2, 12276, Note_off_c, 0, 74, 0
2, 12276, Note_on_c, 0, 72, 93
2, 12288, Note_off_c, 0, 72, 0
2, 12300, Note_on_c, 0, 72, 93
2, 12312, Note_off_c, 0, 72, 0
2, 12312, Note_on_c, 0, 74, 93
2, 12324, Note_off_c, 0, 74, 0
2, 12324, Note_on_c, 0, 72, 93
2, 12336, Note_off_c, 0, 72, 0
2, 12336, Note_on_c, 0, 74, 93
2, 12348, Note_off_c, 0, 74, 0
2, 12348, Note_on_c, 0, 72, 93
2, 12360, Note_off_c, 0, 72, 0
2, 12360, Note_on_c, 0, 74, 93
2, 12372, Note_off_c, 0, 74, 0
2, 12372, Note_on_c, 0, 72, 93
2, 12384, Note_off_c, 0, 72, 0
2, 12396, Note_on_c, 0, 72, 93
2, 12408, Note_off_c, 0, 72, 0
2, 12408, Note_on_c, 0, 74, 93
2, 12420, Note_off_c, 0, 74, 0
2, 12420, Note_on_c, 0, 72, 93
2, 12432, Note_off_c, 0, 72, 0
2, 12432, Note_on_c, 0, 74, 93
2, 12444, Note_off_c, 0, 74, 0
2, 12444, Note_on_c, 0, 72, 93
2, 12456, Note_off_c, 0, 72, 0
2, 12456, Note_on_c, 0, 74, 93
2, 12468, Note_off_c, 0, 74, 0
2, 12468, Note_on_c, 0, 72, 93
2, 12480, Note_off_c, 0, 72, 0
2, 12492, Note_on_c, 0, 72, 93
2, 12504, Note_off_c, 0, 72, 0
2, 12504, Note_on_c, 0, 74, 93
2, 12516, Note_off_c, 0, 74, 0
2, 12516, Note_on_c, 0, 72, 93
2, 12528, Note_off_c, 0, 72, 0
2, 12528, Note_on_c, 0, 74, 93
2, 12540, Note_off_c, 0, 74, 0
2, 12540, Note_on_c, 0, 72, 93
2, 12552, Note_off_c, 0, 72, 0
2, 12552, Note_on_c, 0, 74, 93
2, 12564, Note_off_c, 0, 74, 0
2, 12564, Note_on_c, 0, 72, 93
2, 12576, Note_off_c, 0, 72, 0
2, 12588, Note_on_c, 0, 72, 93
2, 12600, Note_off_c, 0, 72, 0
2, 12600, Note_on_c, 0, 74, 93
2, 12612, Note_off_c, 0, 74, 0
2, 12612, Note_on_c, 0, 72, 93
2, 12624, Note_off_c, 0, 72, 0
2, 12624, Note_on_c, 0, 74, 93
2, 12636, Note_off_c, 0, 74, 0
2, 12636, Note_on_c, 0, 72, 93
2, 12648, Note_off_c, 0, 72, 0
2, 12648, Note_on_c, 0, 74, 93
2, 12660, Note_off_c, 0, 74, 0
2, 12660, Note_on_c, 0, 72, 93
2, 12672, Note_off_c, 0, 72, 0
2, 12672, Note_on_c, 0, 71, 93
2, 12696, Note_off_c, 0, 71, 0
2, 12768, Note_on_c, 0, 72, 93
2, 12792, Note_off_c, 0, 72, 0
2, 12864, Note_on_c, 0, 74, 93
2, 12888, Note_off_c, 0, 74, 0
2, 12960, Note_on_c, 0, 64, 93
2, 13008, Note_off_c, 0, 64, 0
2, 13008, Note_on_c, 0, 76, 93
2, 13056, Note_off_c, 0, 76, 0
2, 13056, Note_on_c, 0, 77, 93
2, 13104, Note_off_c, 0, 77, 0
2, 13104, Note_on_c, 0, 78, 93
2, 13152, Note_off_c, 0, 78, 0
2, 13152, Note_on_c, 0, 79, 93
2, 13200, Note_off_c, 0, 79, 0
2, 13200, Note_on_c, 0, 80, 93
2, 13248, Note_off_c, 0, 80, 0
2, 13248, Note_on_c, 0, 81, 93
2, 13272, Note_off_c, 0, 81, 0
2, 13272, Note_on_c, 0, 66, 93
2, 13296, Note_off_c, 0, 66, 0
2, 13296, Note_on_c, 0, 64, 93
2, 13320, Note_off_c, 0, 64, 0
2, 13320, Note_on_c, 0, 66, 93
2, 13344, Note_off_c, 0, 66, 0
2, 13344, Note_on_c, 0, 67, 93
2, 13368, Note_off_c, 0, 67, 0
2, 13368, Note_on_c, 0, 71, 93
2, 13392, Note_off_c, 0, 71, 0
2, 13392, Note_on_c, 0, 69, 93
2, 13416, Note_off_c, 0, 69, 0
2, 13416, Note_on_c, 0, 71, 93
2, 13440, Note_off_c, 0, 71, 0
2, 13440, Note_on_c, 0, 72, 93
2, 13464, Note_off_c, 0, 72, 0
2, 13464, Note_on_c, 0, 69, 93
2, 13488, Note_off_c, 0, 69, 0
2, 13488, Note_on_c, 0, 66, 93
2, 13512, Note_off_c, 0, 66, 0
2, 13512, Note_on_c, 0, 62, 93
2, 13536, Note_off_c, 0, 62, 0
2, 13536, Note_on_c, 0, 67, 93
2, 13560, Note_off_c, 0, 67, 0
2, 13560, Note_on_c, 0, 71, 93
2, 13584, Note_off_c, 0, 71, 0
2, 13584, Note_on_c, 0, 69, 93
2, 13608, Note_off_c, 0, 69, 0
2, 13608, Note_on_c, 0, 71, 93
2, 13632, Note_off_c, 0, 71, 0
2, 13632, Note_on_c, 0, 74, 93
2, 13656, Note_off_c, 0, 74, 0
2, 13656, Note_on_c, 0, 79, 93
2, 13680, Note_off_c, 0, 79, 0
2, 13680, Note_on_c, 0, 78, 93
2, 13704, Note_off_c, 0, 78, 0
2, 13704, Note_on_c, 0, 79, 93
2, 13728, Note_off_c, 0, 79, 0
2, 13728, Note_on_c, 0, 83, 93
2, 13824, Note_off_c, 0, 83, 0
2, 14988, Note_on_c, 0, 79, 93
2, 15000, Note_off_c, 0, 79, 0
2, 15000, Note_on_c, 0, 81, 93
2, 15012, Note_off_c, 0, 81, 0
2, 15012, Note_on_c, 0, 79, 93
2, 15024, Note_off_c, 0, 79, 0
2, 15024, Note_on_c, 0, 81, 93
2, 15036, Note_off_c, 0, 81, 0
2, 15036, Note_on_c, 0, 79, 93
2, 15048, Note_off_c, 0, 79, 0
2, 15048, Note_on_c, 0, 81, 93
2, 15060, Note_off_c, 0, 81, 0
2, 15060, Note_on_c, 0, 79, 93
2, 15072, Note_off_c, 0, 79, 0
2, 15084, Note_on_c, 0, 79, 93
2, 15096, Note_off_c, 0, 79, 0
2, 15096, Note_on_c, 0, 81, 93
2, 15108, Note_off_c, 0, 81, 0
2, 15108, Note_on_c, 0, 79, 93
2, 15120, Note_off_c, 0, 79, 0
2, 15120, Note_on_c, 0, 81, 93
2, 15132, Note_off_c, 0, 81, 0
2, 15132, Note_on_c, 0, 79, 93
2, 15144, Note_off_c, 0, 79, 0
2, 15144, Note_on_c, 0, 81, 93
2, 15156, Note_off_c, 0, 81, 0
2, 15156, Note_on_c, 0, 79, 93
2, 15168, Note_off_c, 0, 79, 0
2, 15180, Note_on_c, 0, 79, 93
2, 15192, Note_off_c, 0, 79, 0
2, 15192, Note_on_c, 0, 81, 93
2, 15204, Note_off_c, 0, 81, 0
2, 15204, Note_on_c, 0, 79, 93
2, 15216, Note_off_c, 0, 79, 0
2, 15216, Note_on_c, 0, 81, 93
2, 15228, Note_off_c, 0, 81, 0
2, 15228, Note_on_c, 0, 79, 93
2, 15240, Note_off_c, 0, 79, 0
2, 15240, Note_on_c, 0, 81, 93
2, 15252, Note_off_c, 0, 81, 0
2, 15252, Note_on_c, 0, 79, 93
2, 15264, Note_off_c, 0, 79, 0
2, 15276, Note_on_c, 0, 79, 93
2, 15288, Note_off_c, 0, 79, 0
2, 15288, Note_on_c, 0, 81, 93
2, 15300, Note_off_c, 0, 81, 0
2, 15300, Note_on_c, 0, 79, 93
2, 15312, Note_off_c, 0, 79, 0
2, 15312, Note_on_c, 0, 81, 93
2, 15324, Note_off_c, 0, 81, 0
2, 15324, Note_on_c, 0, 79, 93
2, 15336, Note_off_c, 0, 79, 0
2, 15336, Note_on_c, 0, 81, 93
2, 15348, Note_off_c, 0, 81, 0
2, 15348, Note_on_c, 0, 79, 93
2, 15360, Note_off_c, 0, 79, 0
2, 15372, Note_on_c, 0, 79, 93
2, 15384, Note_off_c, 0, 79, 0
2, 15384, Note_on_c, 0, 81, 93
2, 15396, Note_off_c, 0, 81, 0
2, 15396, Note_on_c, 0, 79, 93
2, 15408, Note_off_c, 0, 79, 0
2, 15408, Note_on_c, 0, 81, 93
2, 15420, Note_off_c, 0, 81, 0
2, 15420, Note_on_c, 0, 79, 93
2, 15432, Note_off_c, 0, 79, 0
2, 15432, Note_on_c, 0, 81, 93
2, 15444, Note_off_c, 0, 81, 0
2, 15444, Note_on_c, 0, 79, 93
2, 15456, Note_off_c, 0, 79, 0
2, 15468, Note_on_c, 0, 79, 93
2, 15480, Note_off_c, 0, 79, 0
2, 15480, Note_on_c, 0, 81, 93
2, 15492, Note_off_c, 0, 81, 0
2, 15492, Note_on_c, 0, 79, 93
2, 15504, Note_off_c, 0, 79, 0
2, 15504, Note_on_c, 0, 81, 93
2, 15516, Note_off_c, 0, 81, 0
2, 15516, Note_on_c, 0, 79, 93
2, 15528, Note_off_c, 0, 79, 0
2, 15528, Note_on_c, 0, 81, 93
2, 15540, Note_off_c, 0, 81, 0
2, 15540, Note_on_c, 0, 79, 93
2, 15552, Note_off_c, 0, 79, 0
2, 15564, Note_on_c, 0, 79, 93
2, 15576, Note_off_c, 0, 79, 0
2, 15576, Note_on_c, 0, 81, 93
2, 15588, Note_off_c, 0, 81, 0
2, 15588, Note_on_c, 0, 79, 93
2, 15600, Note_off_c, 0, 79, 0
2, 15600, Note_on_c, 0, 81, 93
2, 15612, Note_off_c, 0, 81, 0
2, 15612, Note_on_c, 0, 79, 93
2, 15624, Note_off_c, 0, 79, 0
2, 15624, Note_on_c, 0, 81, 93
2, 15636, Note_off_c, 0, 81, 0
2, 15636, Note_on_c, 0, 79, 93
2, 15648, Note_off_c, 0, 79, 0
2, 15660, Note_on_c, 0, 79, 93
2, 15672, Note_off_c, 0, 79, 0
2, 15672, Note_on_c, 0, 81, 93
2, 15684, Note_off_c, 0, 81, 0
2, 15684, Note_on_c, 0, 79, 93
2, 15696, Note_off_c, 0, 79, 0
2, 15696, Note_on_c, 0, 81, 93
2, 15708, Note_off_c, 0, 81, 0
2, 15708, Note_on_c, 0, 79, 93
2, 15720, Note_off_c, 0, 79, 0
2, 15720, Note_on_c, 0, 81, 93
2, 15732, Note_off_c, 0, 81, 0
2, 15732, Note_on_c, 0, 79, 93
2, 15744, Note_off_c, 0, 79, 0
2, 15756, Note_on_c, 0, 78, 93
2, 15768, Note_off_c, 0, 78, 0
2, 15768, Note_on_c, 0, 79, 93
2, 15780, Note_off_c, 0, 79, 0
2, 15780, Note_on_c, 0, 78, 93
2, 15792, Note_off_c, 0, 78, 0
2, 15792, Note_on_c, 0, 79, 93
2, 15804, Note_off_c, 0, 79, 0
2, 15804, Note_on_c, 0, 78, 93
2, 15816, Note_off_c, 0, 78, 0
2, 15816, Note_on_c, 0, 79, 93
2, 15828, Note_off_c, 0, 79, 0
2, 15828, Note_on_c, 0, 78, 93
2, 15840, Note_off_c, 0, 78, 0
2, 15840, Note_on_c, 0, 76, 93
2, 15864, Note_off_c, 0, 76, 0
2, 15864, Note_on_c, 0, 67, 93
2, 15888, Note_off_c, 0, 67, 0
2, 15888, Note_on_c, 0, 66, 93
2, 15912, Note_off_c, 0, 66, 0
2, 15912, Note_on_c, 0, 67, 93
2, 15936, Note_off_c, 0, 67, 0
2, 15936, Note_on_c, 0, 71, 93
2, 15960, Note_off_c, 0, 71, 0
2, 15960, Note_on_c, 0, 76, 93
2, 15984, Note_off_c, 0, 76, 0
2, 15984, Note_on_c, 0, 75, 93
2, 16008, Note_off_c, 0, 75, 0
2, 16008, Note_on_c, 0, 76, 93
2, 16032, Note_off_c, 0, 76, 0
2, 16032, Note_on_c, 0, 79, 93
2, 16044, Note_off_c, 0, 79, 0
2, 16044, Note_on_c, 0, 77, 93
2, 16056, Note_off_c, 0, 77, 0
2, 16056, Note_on_c, 0, 76, 93
2, 16080, Note_off_c, 0, 76, 0
2, 16080, Note_on_c, 0, 77, 93
2, 16092, Note_off_c, 0, 77, 0
2, 16092, Note_on_c, 0, 76, 93
2, 16104, Note_off_c, 0, 76, 0
2, 16104, Note_on_c, 0, 74, 93
2, 16128, Note_off_c, 0, 74, 0
2, 16128, Note_on_c, 0, 76, 93
2, 16176, Note_off_c, 0, 76, 0
2, 16176, Note_on_c, 0, 64, 93
2, 16224, Note_off_c, 0, 64, 0
2, 16224, Note_on_c, 0, 63, 93
2, 16272, Note_off_c, 0, 63, 0
2, 16272, Note_on_c, 0, 62, 93
2, 16320, Note_off_c, 0, 62, 0
2, 16320, Note_on_c, 0, 61, 93
2, 16368, Note_off_c, 0, 61, 0
2, 16368, Note_on_c, 0, 76, 93
2, 16416, Note_off_c, 0, 76, 0
2, 16416, Note_on_c, 0, 74, 93
2, 16464, Note_off_c, 0, 74, 0
2, 16464, Note_on_c, 0, 62, 93
2, 16512, Note_off_c, 0, 62, 0
2, 16512, Note_on_c, 0, 61, 93
2, 16560, Note_off_c, 0, 61, 0
2, 16560, Note_on_c, 0, 60, 93
2, 16608, Note_off_c, 0, 60, 0
2, 16608, Note_on_c, 0, 59, 93
2, 16656, Note_off_c, 0, 59, 0
2, 16656, Note_on_c, 0, 74, 93
2, 16704, Note_off_c, 0, 74, 0
2, 16716, Note_on_c, 0, 72, 93
2, 16728, Note_off_c, 0, 72, 0
2, 16728, Note_on_c, 0, 74, 93
2, 16740, Note_off_c, 0, 74, 0
2, 16740, Note_on_c, 0, 72, 93
2, 16752, Note_off_c, 0, 72, 0
2, 16752, Note_on_c, 0, 74, 93
2, 16764, Note_off_c, 0, 74, 0
2, 16764, Note_on_c, 0, 72, 93
2, 16776, Note_off_c, 0, 72, 0
2, 16776, Note_on_c, 0, 74, 93
2, 16788, Note_off_c, 0, 74, 0
2, 16788, Note_on_c, 0, 72, 93
2, 16800, Note_off_c, 0, 72, 0
2, 16812, Note_on_c, 0, 72, 93
2, 16824, Note_off_c, 0, 72, 0
2, 16824, Note_on_c, 0, 74, 93
2, 16836, Note_off_c, 0, 74, 0
2, 16836, Note_on_c, 0, 72, 93
2, 16848, Note_off_c, 0, 72, 0
2, 16848, Note_on_c, 0, 74, 93
2, 16860, Note_off_c, 0, 74, 0
2, 16860, Note_on_c, 0, 72, 93
2, 16872, Note_off_c, 0, 72, 0
2, 16872, Note_on_c, 0, 74, 93
2, 16884, Note_off_c, 0, 74, 0
2, 16884, Note_on_c, 0, 72, 93
2, 16896, Note_off_c, 0, 72, 0
2, 16908, Note_on_c, 0, 72, 93
2, 16920, Note_off_c, 0, 72, 0
2, 16920, Note_on_c, 0, 74, 93
2, 16932, Note_off_c, 0, 74, 0
2, 16932, Note_on_c, 0, 72, 93
2, 16944, Note_off_c, 0, 72, 0
2, 16944, Note_on_c, 0, 74, 93
2, 16956, Note_off_c, 0, 74, 0
2, 16956, Note_on_c, 0, 72, 93
2, 16968, Note_off_c, 0, 72, 0
2, 16968, Note_on_c, 0, 74, 93
2, 16980, Note_off_c, 0, 74, 0
2, 16980, Note_on_c, 0, 72, 93
2, 16992, Note_off_c, 0, 72, 0
2, 17004, Note_on_c, 0, 72, 93
2, 17016, Note_off_c, 0, 72, 0
2, 17016, Note_on_c, 0, 74, 93
2, 17028, Note_off_c, 0, 74, 0
2, 17028, Note_on_c, 0, 72, 93
2, 17040, Note_off_c, 0, 72, 0
2, 17040, Note_on_c, 0, 74, 93
2, 17052, Note_off_c, 0, 74, 0
2, 17052, Note_on_c, 0, 72, 93
2, 17064, Note_off_c, 0, 72, 0
2, 17064, Note_on_c, 0, 74, 93
2, 17076, Note_off_c, 0, 74, 0
2, 17076, Note_on_c, 0, 72, 93
2, 17088, Note_off_c, 0, 72, 0
2, 17100, Note_on_c, 0, 72, 93
2, 17112, Note_off_c, 0, 72, 0
2, 17112, Note_on_c, 0, 74, 93
2, 17124, Note_off_c, 0, 74, 0
2, 17124, Note_on_c, 0, 72, 93
2, 17136, Note_off_c, 0, 72, 0
2, 17136, Note_on_c, 0, 74, 93
2, 17148, Note_off_c, 0, 74, 0
2, 17148, Note_on_c, 0, 72, 93
2, 17160, Note_off_c, 0, 72, 0
2, 17160, Note_on_c, 0, 74, 93
2, 17172, Note_off_c, 0, 74, 0
2, 17172, Note_on_c, 0, 72, 93
2, 17184, Note_off_c, 0, 72, 0
2, 17196, Note_on_c, 0, 72, 93
2, 17208, Note_off_c, 0, 72, 0
2, 17208, Note_on_c, 0, 74, 93
2, 17220, Note_off_c, 0, 74, 0
2, 17220, Note_on_c, 0, 72, 93
2, 17232, Note_off_c, 0, 72, 0
2, 17232, Note_on_c, 0, 74, 93
2, 17244, Note_off_c, 0, 74, 0
2, 17244, Note_on_c, 0, 72, 93
2, 17256, Note_off_c, 0, 72, 0
2, 17256, Note_on_c, 0, 74, 93
2, 17268, Note_off_c, 0, 74, 0
2, 17268, Note_on_c, 0, 72, 93
2, 17280, Note_off_c, 0, 72, 0
2, 17280, Note_on_c, 0, 71, 93
2, 17304, Note_off_c, 0, 71, 0
2, 17376, Note_on_c, 0, 72, 93
2, 17400, Note_off_c, 0, 72, 0
2, 17472, Note_on_c, 0, 74, 93
2, 17496, Note_off_c, 0, 74, 0
2, 17568, Note_on_c, 0, 64, 93
2, 17616, Note_off_c, 0, 64, 0
2, 17616, Note_on_c, 0, 76, 93
2, 17664, Note_off_c, 0, 76, 0
2, 17664, Note_on_c, 0, 77, 93
2, 17712, Note_off_c, 0, 77, 0
2, 17712, Note_on_c, 0, 78, 93
2, 17760, Note_off_c, 0, 78, 0
2, 17760, Note_on_c, 0, 79, 93
2, 17808, Note_off_c, 0, 79, 0
2, 17808, Note_on_c, 0, 80, 93
2, 17856, Note_off_c, 0, 80, 0
2, 17856, Note_on_c, 0, 81, 93
2, 17880, Note_off_c, 0, 81, 0
2, 17880, Note_on_c, 0, 66, 93
2, 17904, Note_off_c, 0, 66, 0
2, 17904, Note_on_c, 0, 64, 93
2, 17928, Note_off_c, 0, 64, 0
2, 17928, Note_on_c, 0, 66, 93
2, 17952, Note_off_c, 0, 66, 0
2, 17952, Note_on_c, 0, 67, 93
2, 17976, Note_off_c, 0, 67, 0
2, 17976, Note_on_c, 0, 71, 93
2, 18000, Note_off_c, 0, 71, 0
2, 18000, Note_on_c, 0, 69, 93
2, 18024, Note_off_c, 0, 69, 0
2, 18024, Note_on_c, 0, 71, 93
2, 18048, Note_off_c, 0, 71, 0
2, 18048, Note_on_c, 0, 72, 93
2, 18072, Note_off_c, 0, 72, 0
2, 18072, Note_on_c, 0, 69, 93
2, 18096, Note_off_c, 0, 69, 0
2, 18096, Note_on_c, 0, 66, 93
2, 18120, Note_off_c, 0, 66, 0
2, 18120, Note_on_c, 0, 62, 93
2, 18144, Note_off_c, 0, 62, 0
2, 18144, Note_on_c, 0, 67, 93
2, 18168, Note_off_c, 0, 67, 0
2, 18168, Note_on_c, 0, 71, 93
2, 18192, Note_off_c, 0, 71, 0
2, 18192, Note_on_c, 0, 69, 93
2, 18216, Note_off_c, 0, 69, 0
2, 18216, Note_on_c, 0, 71, 93
2, 18240, Note_off_c, 0, 71, 0
2, 18240, Note_on_c, 0, 74, 93
2, 18264, Note_off_c, 0, 74, 0
2, 18264, Note_on_c, 0, 79, 93
2, 18288, Note_off_c, 0, 79, 0
2, 18288, Note_on_c, 0, 78, 93
2, 18312, Note_off_c, 0, 78, 0
2, 18312, Note_on_c, 0, 79, 93
2, 18336, Note_off_c, 0, 79, 0
2, 18336, Note_on_c, 0, 83, 93
2, 18432, Note_off_c, 0, 83, 0
2, 18432, End_track
3, 0, Start_track
3, 0, Title_t, "Track3"
3, 0, Program_c, 1, 6
3, 0, Control_c, 1, 7, 100
3, 0, Control_c, 1, 10, 69
3, 12, Note_on_c, 1, 74, 93
3, 24, Note_off_c, 1, 74, 0
3, 24, Note_on_c, 1, 76, 93
3, 36, Note_off_c, 1, 76, 0
3, 36, Note_on_c, 1, 74, 93
3, 48, Note_off_c, 1, 74, 0
3, 48, Note_on_c, 1, 76, 93
3, 60, Note_off_c, 1, 76, 0
3, 60, Note_on_c, 1, 74, 93
3, 72, Note_off_c, 1, 74, 0
3, 72, Note_on_c, 1, 76, 93
3, 84, Note_off_c, 1, 76, 0
3, 84, Note_on_c, 1, 74, 93
3, 96, Note_off_c, 1, 74, 0
3, 108, Note_on_c, 1, 74, 93
3, 120, Note_off_c, 1, 74, 0
3, 120, Note_on_c, 1, 76, 93
3, 132, Note_off_c, 1, 76, 0
3, 132, Note_on_c, 1, 74, 93
3, 144, Note_off_c, 1, 74, 0
3, 144, Note_on_c, 1, 76, 93
3, 156, Note_off_c, 1, 76, 0
3, 156, Note_on_c, 1, 74, 93
3, 168, Note_off_c, 1, 74, 0
3, 168, Note_on_c, 1, 76, 93
3, 180, Note_off_c, 1, 76, 0
3, 180, Note_on_c, 1, 74, 93
3, 192, Note_off_c, 1, 74, 0
3, 204, Note_on_c, 1, 74, 93
3, 216, Note_off_c, 1, 74, 0
3, 216, Note_on_c, 1, 76, 93
3, 228, Note_off_c, 1, 76, 0
3, 228, Note_on_c, 1, 74, 93
3, 240, Note_off_c, 1, 74, 0
3, 240, Note_on_c, 1, 76, 93
3, 252, Note_off_c, 1, 76, 0
3, 252, Note_on_c, 1, 74, 93
3, 264, Note_off_c, 1, 74, 0
3, 264, Note_on_c, 1, 76, 93
3, 276, Note_off_c, 1, 76, 0
3, 276, Note_on_c, 1, 74, 93
3, 288, Note_off_c, 1, 74, 0
3, 300, Note_on_c, 1, 74, 93
3, 312, Note_off_c, 1, 74, 0
3, 312, Note_on_c, 1, 76, 93
3, 324, Note_off_c, 1, 76, 0
3, 324, Note_on_c, 1, 74, 93
3, 336, Note_off_c, 1, 74, 0
3, 336, Note_on_c, 1, 76, 93
3, 348, Note_off_c, 1, 76, 0
3, 348, Note_on_c, 1, 74, 93
3, 360, Note_off_c, 1, 74, 0
3, 360, Note_on_c, 1, 76, 93
3, 372, Note_off_c, 1, 76, 0
3, 372, Note_on_c, 1, 74, 93
3, 384, Note_off_c, 1, 74, 0
3, 396, Note_on_c, 1, 74, 93
3, 408, Note_off_c, 1, 74, 0
3, 408, Note_on_c, 1, 76, 93
3, 420, Note_off_c, 1, 76, 0
3, 420, Note_on_c, 1, 74, 93
3, 432, Note_off_c, 1, 74, 0
3, 432, Note_on_c, 1, 76, 93
3, 444, Note_off_c, 1, 76, 0
3, 444, Note_on_c, 1, 74, 93
3, 456, Note_off_c, 1, 74, 0
3, 456, Note_on_c, 1, 76, 93
3, 468, Note_off_c, 1, 76, 0
3, 468, Note_on_c, 1, 74, 93
3, 480, Note_off_c, 1, 74, 0
3, 492, Note_on_c, 1, 74, 93
3, 504, Note_off_c, 1, 74, 0
3, 504, Note_on_c, 1, 76, 93
3, 516, Note_off_c, 1, 76, 0
3, 516, Note_on_c, 1, 74, 93
3, 528, Note_off_c, 1, 74, 0
3, 528, Note_on_c, 1, 76, 93
3, 540, Note_off_c, 1, 76, 0
3, 540, Note_on_c, 1, 74, 93
3, 552, Note_off_c, 1, 74, 0
3, 552, Note_on_c, 1, 76, 93
3, 564, Note_off_c, 1, 76, 0
3, 564, Note_on_c, 1, 74, 93
3, 576, Note_off_c, 1, 74, 0
3, 588, Note_on_c, 1, 74, 93
3, 600, Note_off_c, 1, 74, 0
3, 600, Note_on_c, 1, 76, 93
3, 612, Note_off_c, 1, 76, 0
3, 612, Note_on_c, 1, 74, 93
3, 624, Note_off_c, 1, 74, 0
3, 624, Note_on_c, 1, 76, 93
3, 636, Note_off_c, 1, 76, 0
3, 636, Note_on_c, 1, 74, 93
3, 648, Note_off_c, 1, 74, 0
3, 648, Note_on_c, 1, 76, 93
3, 660, Note_off_c, 1, 76, 0
3, 660, Note_on_c, 1, 74, 93
3, 672, Note_off_c, 1, 74, 0
3, 684, Note_on_c, 1, 74, 93
3, 696, Note_off_c, 1, 74, 0
3, 696, Note_on_c, 1, 76, 93
3, 708, Note_off_c, 1, 76, 0
3, 708, Note_on_c, 1, 74, 93
3, 720, Note_off_c, 1, 74, 0
3, 720, Note_on_c, 1, 76, 93
3, 732, Note_off_c, 1, 76, 0
3, 732, Note_on_c, 1, 74, 93
3, 744, Note_off_c, 1, 74, 0
3, 744, Note_on_c, 1, 76, 93
3, 756, Note_off_c, 1, 76, 0
3, 756, Note_on_c, 1, 74, 93
3, 768, Note_off_c, 1, 74, 0
3, 780, Note_on_c, 1, 73, 93
3, 792, Note_off_c, 1, 73, 0
3, 792, Note_on_c, 1, 74, 93
3, 804, Note_off_c, 1, 74, 0
3, 804, Note_on_c, 1, 73, 93
3, 816, Note_off_c, 1, 73, 0
3, 816, Note_on_c, 1, 74, 93
3, 828, Note_off_c, 1, 74, 0
3, 828, Note_on_c, 1, 73, 93
3, 840, Note_off_c, 1, 73, 0
3, 840, Note_on_c, 1, 74, 93
3, 852, Note_off_c, 1, 74, 0
3, 852, Note_on_c, 1, 73, 93
3, 864, Note_off_c, 1, 73, 0
3, 876, Note_on_c, 1, 74, 93
3, 888, Note_off_c, 1, 74, 0
3, 888, Note_on_c, 1, 76, 93
3, 900, Note_off_c, 1, 76, 0
3, 900, Note_on_c, 1, 74, 93
3, 912, Note_off_c, 1, 74, 0
3, 912, Note_on_c, 1, 76, 93
3, 924, Note_off_c, 1, 76, 0
3, 924, Note_on_c, 1, 74, 93
3, 936, Note_off_c, 1, 74, 0
3, 936, Note_on_c, 1, 76, 93
3, 948, Note_off_c, 1, 76, 0
3, 948, Note_on_c, 1, 74, 93
3, 960, Note_off_c, 1, 74, 0
3, 972, Note_on_c, 1, 74, 93
3, 984, Note_off_c, 1, 74, 0
3, 984, Note_on_c, 1, 76, 93
3, 996, Note_off_c, 1, 76, 0
3, 996, Note_on_c, 1, 74, 93
3, 1008, Note_off_c, 1, 74, 0
3, 1008, Note_on_c, 1, 76, 93
3, 1020, Note_off_c, 1, 76, 0
3, 1020, Note_on_c, 1, 74, 93
3, 1032, Note_off_c, 1, 74, 0
3, 1032, Note_on_c, 1, 76, 93
3, 1044, Note_off_c, 1, 76, 0
3, 1044, Note_on_c, 1, 74, 93
3, 1056, Note_off_c, 1, 74, 0
3, 1068, Note_on_c, 1, 74, 93
3, 1080, Note_off_c, 1, 74, 0
3, 1080, Note_on_c, 1, 76, 93
3, 1092, Note_off_c, 1, 76, 0
3, 1092, Note_on_c, 1, 74, 93
3, 1104, Note_off_c, 1, 74, 0
3, 1104, Note_on_c, 1, 76, 93
3, 1116, Note_off_c, 1, 76, 0
3, 1116, Note_on_c, 1, 74, 93
3, 1128, Note_off_c, 1, 74, 0
3, 1128, Note_on_c, 1, 76, 93
3, 1140, Note_off_c, 1, 76, 0
3, 1140, Note_on_c, 1, 74, 93
3, 1152, Note_off_c, 1, 74, 0
3, 1392, Note_on_c, 1, 71, 93
3, 1440, Note_off_c, 1, 71, 0
3, 1440, Note_on_c, 1, 72, 93
3, 1488, Note_off_c, 1, 72, 0
3, 1680, Note_on_c, 1, 81, 93
3, 1728, Note_off_c, 1, 81, 0
3, 1728, Note_on_c, 1, 83, 93
3, 1776, Note_off_c, 1, 83, 0
3, 1776, Note_on_c, 1, 57, 93
3, 1824, Note_off_c, 1, 57, 0
3, 1824, Note_on_c, 1, 59, 93
3, 1872, Note_off_c, 1, 59, 0
3, 1872, Note_on_c, 1, 52, 93
3, 1920, Note_off_c, 1, 52, 0
3, 1920, Note_on_c, 1, 54, 93
3, 1968, Note_off_c, 1, 54, 0
3, 2064, Note_on_c, 1, 84, 93
3, 2112, Note_off_c, 1, 84, 0
3, 2112, Note_on_c, 1, 83, 93
3, 2160, Note_off_c, 1, 83, 0
3, 2160, Note_on_c, 1, 81, 93
3, 2208, Note_off_c, 1, 81, 0
3, 2208, Note_on_c, 1, 79, 93
3, 2256, Note_off_c, 1, 79, 0
3, 2256, Note_on_c, 1, 69, 93
3, 2304, Note_off_c, 1, 69, 0
3, 2304, Note_on_c, 1, 71, 93
3, 2328, Note_off_c, 1, 71, 0
3, 2328, Note_on_c, 1, 79, 93
3, 2352, Note_off_c, 1, 79, 0
3, 2352, Note_on_c, 1, 78, 93
3, 2376, Note_off_c, 1, 78, 0
3, 2376, Note_on_c, 1, 79, 93
3, 2400, Note_off_c, 1, 79, 0
3, 2400, Note_on_c, 1, 76, 93
3, 2424, Note_off_c, 1, 76, 0
3, 2424, Note_on_c, 1, 71, 93
3, 2448, Note_off_c, 1, 71, 0
3, 2448, Note_on_c, 1, 69, 93
3, 2472, Note_off_c, 1, 69, 0
3, 2472, Note_on_c, 1, 71, 93
3, 2496, Note_off_c, 1, 71, 0
3, 2496, Note_on_c, 1, 67, 93
3, 2520, Note_off_c, 1, 67, 0
3, 2520, Note_on_c, 1, 71, 93
3, 2544, Note_off_c, 1, 71, 0
3, 2544, Note_on_c, 1, 76, 93
3, 2568, Note_off_c, 1, 76, 0
3, 2568, Note_on_c, 1, 79, 93
3, 2592, Note_off_c, 1, 79, 0
3, 2592, Note_on_c, 1, 81, 93
3, 2616, Note_off_c, 1, 81, 0
3, 2616, Note_on_c, 1, 78, 93
3, 2640, Note_off_c, 1, 78, 0
3, 2640, Note_on_c, 1, 76, 93
3, 2664, Note_off_c, 1, 76, 0
3, 2664, Note_on_c, 1, 78, 93
3, 2688, Note_off_c, 1, 78, 0
3, 2688, Note_on_c, 1, 74, 93
3, 2712, Note_off_c, 1, 74, 0
3, 2712, Note_on_c, 1, 69, 93
3, 2736, Note_off_c, 1, 69, 0
3, 2736, Note_on_c, 1, 67, 93
3, 2760, Note_off_c, 1, 67, 0
3, 2760, Note_on_c, 1, 69, 93
3, 2784, Note_off_c, 1, 69, 0
3, 2784, Note_on_c, 1, 66, 93
3, 2808, Note_off_c, 1, 66, 0
3, 2808, Note_on_c, 1, 69, 93
3, 2832, Note_off_c, 1, 69, 0
3, 2832, Note_on_c, 1, 74, 93
3, 2856, Note_off_c, 1, 74, 0
3, 2856, Note_on_c, 1, 78, 93
3, 2880, Note_off_c, 1, 78, 0
3, 2880, Note_on_c, 1, 79, 93
3, 2904, Note_off_c, 1, 79, 0
3, 2904, Note_on_c, 1, 76, 93
3, 2928, Note_off_c, 1, 76, 0
3, 2928, Note_on_c, 1, 75, 93
3, 2952, Note_off_c, 1, 75, 0
3, 2952, Note_on_c, 1, 76, 93
3, 2976, Note_off_c, 1, 76, 0
3, 2976, Note_on_c, 1, 71, 93
3, 3000, Note_off_c, 1, 71, 0
3, 3000, Note_on_c, 1, 67, 93
3, 3024, Note_off_c, 1, 67, 0
3, 3024, Note_on_c, 1, 66, 93
3, 3048, Note_off_c, 1, 66, 0
3, 3048, Note_on_c, 1, 67, 93
3, 3072, Note_off_c, 1, 67, 0
3, 3072, Note_on_c, 1, 64, 93
3, 3096, Note_off_c, 1, 64, 0
3, 3096, Note_on_c, 1, 67, 93
3, 3120, Note_off_c, 1, 67, 0
3, 3120, Note_on_c, 1, 71, 93
3, 3144, Note_off_c, 1, 71, 0
3, 3144, Note_on_c, 1, 74, 93
3, 3168, Note_off_c, 1, 74, 0
3, 3168, Note_on_c, 1, 73, 93
3, 3192, Note_off_c, 1, 73, 0
3, 3192, Note_on_c, 1, 67, 93
3, 3216, Note_off_c, 1, 67, 0
3, 3216, Note_on_c, 1, 66, 93
3, 3240, Note_off_c, 1, 66, 0
3, 3240, Note_on_c, 1, 67, 93
3, 3264, Note_off_c, 1, 67, 0
3, 3264, Note_on_c, 1, 64, 93
3, 3288, Note_off_c, 1, 64, 0
3, 3288, Note_on_c, 1, 61, 93
3, 3312, Note_off_c, 1, 61, 0
3, 3312, Note_on_c, 1, 59, 93
3, 3336, Note_off_c, 1, 59, 0
3, 3336, Note_on_c, 1, 61, 93
3, 3360, Note_off_c, 1, 61, 0
3, 3360, Note_on_c, 1, 57, 93
3, 3384, Note_off_c, 1, 57, 0
3, 3384, Note_on_c, 1, 61, 93
3, 3408, Note_off_c, 1, 61, 0
3, 3408, Note_on_c, 1, 64, 93
3, 3432, Note_off_c, 1, 64, 0
3, 3432, Note_on_c, 1, 67, 93
3, 3456, Note_off_c, 1, 67, 0
3, 3468, Note_on_c, 1, 62, 93
3, 3480, Note_off_c, 1, 62, 0
3, 3480, Note_on_c, 1, 64, 93
3, 3492, Note_off_c, 1, 64, 0
3, 3492, Note_on_c, 1, 62, 93
3, 3504, Note_off_c, 1, 62, 0
3, 3504, Note_on_c, 1, 64, 93
3, 3516, Note_off_c, 1, 64, 0
3, 3516, Note_on_c, 1, 62, 93
3, 3528, Note_off_c, 1, 62, 0
3, 3528, Note_on_c, 1, 64, 93
3, 3540, Note_off_c, 1, 64, 0
3, 3540, Note_on_c, 1, 62, 93
3, 3552, Note_off_c, 1, 62, 0
3, 3564, Note_on_c, 1, 62, 93
3, 3576, Note_off_c, 1, 62, 0
3, 3576, Note_on_c, 1, 64, 93
3, 3588, Note_off_c, 1, 64, 0
3, 3588, Note_on_c, 1, 62, 93
3, 3600, Note_off_c, 1, 62, 0
3, 3600, Note_on_c, 1, 64, 93
3, 3612, Note_off_c, 1, 64, 0
3, 3612, Note_on_c, 1, 62, 93
3, 3624, Note_off_c, 1, 62, 0
3, 3624, Note_on_c, 1, 64, 93
3, 3636, Note_off_c, 1, 64, 0
3, 3636, Note_on_c, 1, 62, 93
3, 3648, Note_off_c, 1, 62, 0
3, 3660, Note_on_c, 1, 62, 93
3, 3672, Note_off_c, 1, 62, 0
3, 3672, Note_on_c, 1, 64, 93
3, 3684, Note_off_c, 1, 64, 0
3, 3684, Note_on_c, 1, 62, 93
3, 3696, Note_off_c, 1, 62, 0
3, 3696, Note_on_c, 1, 64, 93
3, 3708, Note_off_c, 1, 64, 0
3, 3708, Note_on_c, 1, 62, 93
3, 3720, Note_off_c, 1, 62, 0
3, 3720, Note_on_c, 1, 64, 93
3, 3732, Note_off_c, 1, 64, 0
3, 3732, Note_on_c, 1, 62, 93
3, 3744, Note_off_c, 1, 62, 0
3, 3756, Note_on_c, 1, 62, 93
3, 3768, Note_off_c, 1, 62, 0
3, 3768, Note_on_c, 1, 64, 93
3, 3780, Note_off_c, 1, 64, 0
3, 3780, Note_on_c, 1, 62, 93
3, 3792, Note_off_c, 1, 62, 0
3, 3792, Note_on_c, 1, 64, 93
3, 3804, Note_off_c, 1, 64, 0
3, 3804, Note_on_c, 1, 62, 93
3, 3816, Note_off_c, 1, 62, 0
3, 3816, Note_on_c, 1, 64, 93
3, 3828, Note_off_c, 1, 64, 0
3, 3828, Note_on_c, 1, 62, 93
3, 3840, Note_off_c, 1, 62, 0
3, 3852, Note_on_c, 1, 62, 93
3, 3864, Note_off_c, 1, 62, 0
3, 3864, Note_on_c, 1, 64, 93
3, 3876, Note_off_c, 1, 64, 0
3, 3876, Note_on_c, 1, 62, 93
3, 3888, Note_off_c, 1, 62, 0
3, 3888, Note_on_c, 1, 64, 93
3, 3900, Note_off_c, 1, 64, 0
3, 3900, Note_on_c, 1, 62, 93
3, 3912, Note_off_c, 1, 62, 0
3, 3912, Note_on_c, 1, 64, 93
3, 3924, Note_off_c, 1, 64, 0
3, 3924, Note_on_c, 1, 62, 93
3, 3936, Note_off_c, 1, 62, 0
3, 3948, Note_on_c, 1, 62, 93
3, 3960, Note_off_c, 1, 62, 0
3, 3960, Note_on_c, 1, 64, 93
3, 3972, Note_off_c, 1, 64, 0
3, 3972, Note_on_c, 1, 62, 93
3, 3984, Note_off_c, 1, 62, 0
3, 3984, Note_on_c, 1, 64, 93
3, 3996, Note_off_c, 1, 64, 0
3, 3996, Note_on_c, 1, 62, 93
3, 4008, Note_off_c, 1, 62, 0
3, 4008, Note_on_c, 1, 64, 93
3, 4020, Note_off_c, 1, 64, 0
3, 4020, Note_on_c, 1, 62, 93
3, 4032, Note_off_c, 1, 62, 0
3, 4044, Note_on_c, 1, 62, 93
3, 4056, Note_off_c, 1, 62, 0
3, 4056, Note_on_c, 1, 64, 93
3, 4068, Note_off_c, 1, 64, 0
3, 4068, Note_on_c, 1, 62, 93
3, 4080, Note_off_c, 1, 62, 0
3, 4080, Note_on_c, 1, 64, 93
3, 4092, Note_off_c, 1, 64, 0
3, 4092, Note_on_c, 1, 62, 93
3, 4104, Note_off_c, 1, 62, 0
3, 4104, Note_on_c, 1, 64, 93
3, 4116, Note_off_c, 1, 64, 0
3, 4116, Note_on_c, 1, 62, 93
3, 4128, Note_off_c, 1, 62, 0
3, 4140, Note_on_c, 1, 62, 93
3, 4152, Note_off_c, 1, 62, 0
3, 4152, Note_on_c, 1, 64, 93
3, 4164, Note_off_c, 1, 64, 0
3, 4164, Note_on_c, 1, 62, 93
3, 4176, Note_off_c, 1, 62, 0
3, 4176, Note_on_c, 1, 64, 93
3, 4188, Note_off_c, 1, 64, 0
3, 4188, Note_on_c, 1, 62, 93
3, 4200, Note_off_c, 1, 62, 0
3, 4200, Note_on_c, 1, 64, 93
3, 4212, Note_off_c, 1, 64, 0
3, 4212, Note_on_c, 1, 62, 93
3, 4224, Note_off_c, 1, 62, 0
3, 4236, Note_on_c, 1, 61, 93
3, 4248, Note_off_c, 1, 61, 0
3, 4248, Note_on_c, 1, 62, 93
3, 4260, Note_off_c, 1, 62, 0
3, 4260, Note_on_c, 1, 61, 93
3, 4272, Note_off_c, 1, 61, 0
3, 4272, Note_on_c, 1, 62, 93
3, 4284, Note_off_c, 1, 62, 0
3, 4284, Note_on_c, 1, 61, 93
3, 4296, Note_off_c, 1, 61, 0
3, 4296, Note_on_c, 1, 62, 93
3, 4308, Note_off_c, 1, 62, 0
3, 4308, Note_on_c, 1, 61, 93
3, 4320, Note_off_c, 1, 61, 0
3, 4320, Note_on_c, 1, 66, 93
3, 4344, Note_off_c, 1, 66, 0
3, 4344, Note_on_c, 1, 62, 93
3, 4368, Note_off_c, 1, 62, 0
3, 4368, Note_on_c, 1, 61, 93
3, 4392, Note_off_c, 1, 61, 0
3, 4392, Note_on_c, 1, 62, 93
3, 4416, Note_off_c, 1, 62, 0
3, 4416, Note_on_c, 1, 57, 93
3, 4440, Note_off_c, 1, 57, 0
3, 4440, Note_on_c, 1, 54, 93
3, 4464, Note_off_c, 1, 54, 0
3, 4464, Note_on_c, 1, 52, 93
3, 4488, Note_off_c, 1, 52, 0
3, 4488, Note_on_c, 1, 54, 93
3, 4512, Note_off_c, 1, 54, 0
3, 4512, Note_on_c, 1, 50, 93
3, 4608, Note_off_c, 1, 50, 0
3, 4620, Note_on_c, 1, 74, 93
3, 4632, Note_off_c, 1, 74, 0
3, 4632, Note_on_c, 1, 76, 93
3, 4644, Note_off_c, 1, 76, 0
3, 4644, Note_on_c, 1, 74, 93
3, 4656, Note_off_c, 1, 74, 0
3, 4656, Note_on_c, 1, 76, 93
3, 4668, Note_off_c, 1, 76, 0
3, 4668, Note_on_c, 1, 74, 93
3, 4680, Note_off_c, 1, 74, 0
3, 4680, Note_on_c, 1, 76, 93
3, 4692, Note_off_c, 1, 76, 0
3, 4692, Note_on_c, 1, 74, 93
3, 4704, Note_off_c, 1, 74, 0
3, 4716, Note_on_c, 1, 74, 93
3, 4728, Note_off_c, 1, 74, 0
3, 4728, Note_on_c, 1, 76, 93
3, 4740, Note_off_c, 1, 76, 0
3, 4740, Note_on_c, 1, 74, 93
3, 4752, Note_off_c, 1, 74, 0
3, 4752, Note_on_c, 1, 76, 93
3, 4764, Note_off_c, 1, 76, 0
3, 4764, Note_on_c, 1, 74, 93
3, 4776, Note_off_c, 1, 74, 0
3, 4776, Note_on_c, 1, 76, 93
3, 4788, Note_off_c, 1, 76, 0
3, 4788, Note_on_c, 1, 74, 93
3, 4800, Note_off_c, 1, 74, 0
3, 4812, Note_on_c, 1, 74, 93
3, 4824, Note_off_c, 1, 74, 0
3, 4824, Note_on_c, 1, 76, 93
3, 4836, Note_off_c, 1, 76, 0
3, 4836, Note_on_c, 1, 74, 93
3, 4848, Note_off_c, 1, 74, 0
3, 4848, Note_on_c, 1, 76, 93
3, 4860, Note_off_c, 1, 76, 0
3, 4860, Note_on_c, 1, 74, 93
3, 4872, Note_off_c, 1, 74, 0
3, 4872, Note_on_c, 1, 76, 93
3, 4884, Note_off_c, 1, 76, 0
3, 4884, Note_on_c, 1, 74, 93
3, 4896, Note_off_c, 1, 74, 0
3, 4908, Note_on_c, 1, 74, 93
3, 4920, Note_off_c, 1, 74, 0
3, 4920, Note_on_c, 1, 76, 93
3, 4932, Note_off_c, 1, 76, 0
3, 4932, Note_on_c, 1, 74, 93
3, 4944, Note_off_c, 1, 74, 0
3, 4944, Note_on_c, 1, 76, 93
3, 4956, Note_off_c, 1, 76, 0
3, 4956, Note_on_c, 1, 74, 93
3, 4968, Note_off_c, 1, 74, 0
3, 4968, Note_on_c, 1, 76, 93
3, 4980, Note_off_c, 1, 76, 0
3, 4980, Note_on_c, 1, 74, 93
3, 4992, Note_off_c, 1, 74, 0
3, 5004, Note_on_c, 1, 74, 93
3, 5016, Note_off_c, 1, 74, 0
3, 5016, Note_on_c, 1, 76, 93
3, 5028, Note_off_c, 1, 76, 0
3, 5028, Note_on_c, 1, 74, 93
3, 5040, Note_off_c, 1, 74, 0
3, 5040, Note_on_c, 1, 76, 93
3, 5052, Note_off_c, 1, 76, 0
3, 5052, Note_on_c, 1, 74, 93
3, 5064, Note_off_c, 1, 74, 0
3, 5064, Note_on_c, 1, 76, 93
3, 5076, Note_off_c, 1, 76, 0
3, 5076, Note_on_c, 1, 74, 93
3, 5088, Note_off_c, 1, 74, 0
3, 5100, Note_on_c, 1, 74, 93
3, 5112, Note_off_c, 1, 74, 0
3, 5112, Note_on_c, 1, 76, 93
3, 5124, Note_off_c, 1, 76, 0
3, 5124, Note_on_c, 1, 74, 93
3, 5136, Note_off_c, 1, 74, 0
3, 5136, Note_on_c, 1, 76, 93
3, 5148, Note_off_c, 1, 76, 0
3, 5148, Note_on_c, 1, 74, 93
3, 5160, Note_off_c, 1, 74, 0
3, 5160, Note_on_c, 1, 76, 93
3, 5172, Note_off_c, 1, 76, 0
3, 5172, Note_on_c, 1, 74, 93
3, 5184, Note_off_c, 1, 74, 0
3, 5196, Note_on_c, 1, 74, 93
3, 5208, Note_off_c, 1, 74, 0
3, 5208, Note_on_c, 1, 76, 93
3, 5220, Note_off_c, 1, 76, 0
3, 5220, Note_on_c, 1, 74, 93
3, 5232, Note_off_c, 1, 74, 0
3, 5232, Note_on_c, 1, 76, 93
3, 5244, Note_off_c, 1, 76, 0
3, 5244, Note_on_c, 1, 74, 93
3, 5256, Note_off_c, 1, 74, 0
3, 5256, Note_on_c, 1, 76, 93
3, 5268, Note_off_c, 1, 76, 0
3, 5268, Note_on_c, 1, 74, 93
3, 5280, Note_off_c, 1, 74, 0
3, 5292, Note_on_c, 1, 74, 93
3, 5304, Note_off_c, 1, 74, 0
3, 5304, Note_on_c, 1, 76, 93
3, 5316, Note_off_c, 1, 76, 0
3, 5316, Note_on_c, 1, 74, 93
3, 5328, Note_off_c, 1, 74, 0
3, 5328, Note_on_c, 1, 76, 93
3, 5340, Note_off_c, 1, 76, 0
3, 5340, Note_on_c, 1, 74, 93
3, 5352, Note_off_c, 1, 74, 0
3, 5352, Note_on_c, 1, 76, 93
3, 5364, Note_off_c, 1, 76, 0
3, 5364, Note_on_c, 1, 74, 93
3, 5376, Note_off_c, 1, 74, 0
3, 5388, Note_on_c, 1, 73, 93
3, 5400, Note_off_c, 1, 73, 0
3, 5400, Note_on_c, 1, 74, 93
3, 5412, Note_off_c, 1, 74, 0
3, 5412, Note_on_c, 1, 73, 93
3, 5424, Note_off_c, 1, 73, 0
3, 5424, Note_on_c, 1, 74, 93
3, 5436, Note_off_c, 1, 74, 0
3, 5436, Note_on_c, 1, 73, 93
3, 5448, Note_off_c, 1, 73, 0
3, 5448, Note_on_c, 1, 74, 93
3, 5460, Note_off_c, 1, 74, 0
3, 5460, Note_on_c, 1, 73, 93
3, 5472, Note_off_c, 1, 73, 0
3, 5484, Note_on_c, 1, 74, 93
3, 5496, Note_off_c, 1, 74, 0
3, 5496, Note_on_c, 1, 76, 93
3, 5508, Note_off_c, 1, 76, 0
3, 5508, Note_on_c, 1, 74, 93
3, 5520, Note_off_c, 1, 74, 0
3, 5520, Note_on_c, 1, 76, 93
3, 5532, Note_off_c, 1, 76, 0
3, 5532, Note_on_c, 1, 74, 93
3, 5544, Note_off_c, 1, 74, 0
3, 5544, Note_on_c, 1, 76, 93
3, 5556, Note_off_c, 1, 76, 0
3, 5556, Note_on_c, 1, 74, 93
3, 5568, Note_off_c, 1, 74, 0
3, 5580, Note_on_c, 1, 74, 93
3, 5592, Note_off_c, 1, 74, 0
3, 5592, Note_on_c, 1, 76, 93
3, 5604, Note_off_c, 1, 76, 0
3, 5604, Note_on_c, 1, 74, 93
3, 5616, Note_off_c, 1, 74, 0
3, 5616, Note_on_c, 1, 76, 93
3, 5628, Note_off_c, 1, 76, 0
3, 5628, Note_on_c, 1, 74, 93
3, 5640, Note_off_c, 1, 74, 0
3, 5640, Note_on_c, 1, 76, 93
3, 5652, Note_off_c, 1, 76, 0
3, 5652, Note_on_c, 1, 74, 93
3, 5664, Note_off_c, 1, 74, 0
3, 5676, Note_on_c, 1, 74, 93
3, 5688, Note_off_c, 1, 74, 0
3, 5688, Note_on_c, 1, 76, 93
3, 5700, Note_off_c, 1, 76, 0
3, 5700, Note_on_c, 1, 74, 93
3, 5712, Note_off_c, 1, 74, 0
3, 5712, Note_on_c, 1, 76, 93
3, 5724, Note_off_c, 1, 76, 0
3, 5724, Note_on_c, 1, 74, 93
3, 5736, Note_off_c, 1, 74, 0
3, 5736, Note_on_c, 1, 76, 93
3, 5748, Note_off_c, 1, 76, 0
3, 5748, Note_on_c, 1, 74, 93
3, 5760, Note_off_c, 1, 74, 0
3, 6000, Note_on_c, 1, 71, 93
3, 6048, Note_off_c, 1, 71, 0
3, 6048, Note_on_c, 1, 72, 93
3, 6096, Note_off_c, 1, 72, 0
3, 6288, Note_on_c, 1, 81, 93
3, 6336, Note_off_c, 1, 81, 0
3, 6336, Note_on_c, 1, 83, 93
3, 6384, Note_off_c, 1, 83, 0
3, 6384, Note_on_c, 1, 57, 93
3, 6432, Note_off_c, 1, 57, 0
3, 6432, Note_on_c, 1, 59, 93
3, 6480, Note_off_c, 1, 59, 0
3, 6480, Note_on_c, 1, 52, 93
3, 6528, Note_off_c, 1, 52, 0
3, 6528, Note_on_c, 1, 54, 93
3, 6576, Note_off_c, 1, 54, 0
3, 6672, Note_on_c, 1, 84, 93
3, 6720, Note_off_c, 1, 84, 0
3, 6720, Note_on_c, 1, 83, 93
3, 6768, Note_off_c, 1, 83, 0
3, 6768, Note_on_c, 1, 81, 93
3, 6816, Note_off_c, 1, 81, 0
3, 6816, Note_on_c, 1, 79, 93
3, 6864, Note_off_c, 1, 79, 0
3, 6864, Note_on_c, 1, 69, 93
3, 6912, Note_off_c, 1, 69, 0
3, 6912, Note_on_c, 1, 71, 93
3, 6936, Note_off_c, 1, 71, 0
3, 6936, Note_on_c, 1, 79, 93
3, 6960, Note_off_c, 1, 79, 0
3, 6960, Note_on_c, 1, 78, 93
3, 6984, Note_off_c, 1, 78, 0
3, 6984, Note_on_c, 1, 79, 93
3, 7008, Note_off_c, 1, 79, 0
3, 7008, Note_on_c, 1, 76, 93
3, 7032, Note_off_c, 1, 76, 0
3, 7032, Note_on_c, 1, 71, 93
3, 7056, Note_off_c, 1, 71, 0
3, 7056, Note_on_c, 1, 69, 93
3, 7080, Note_off_c, 1, 69, 0
3, 7080, Note_on_c, 1, 71, 93
3, 7104, Note_off_c, 1, 71, 0
3, 7104, Note_on_c, 1, 67, 93
3, 7128, Note_off_c, 1, 67, 0
3, 7128, Note_on_c, 1, 71, 93
3, 7152, Note_off_c, 1, 71, 0
3, 7152, Note_on_c, 1, 76, 93
3, 7176, Note_off_c, 1, 76, 0
3, 7176, Note_on_c, 1, 79, 93
3, 7200, Note_off_c, 1, 79, 0
3, 7200, Note_on_c, 1, 81, 93
3, 7224, Note_off_c, 1, 81, 0
3, 7224, Note_on_c, 1, 78, 93
3, 7248, Note_off_c, 1, 78, 0
3, 7248, Note_on_c, 1, 76, 93
3, 7272, Note_off_c, 1, 76, 0
3, 7272, Note_on_c, 1, 78, 93
3, 7296, Note_off_c, 1, 78, 0
3, 7296, Note_on_c, 1, 74, 93
3, 7320, Note_off_c, 1, 74, 0
3, 7320, Note_on_c, 1, 69, 93
3, 7344, Note_off_c, 1, 69, 0
3, 7344, Note_on_c, 1, 67, 93
3, 7368, Note_off_c, 1, 67, 0
3, 7368, Note_on_c, 1, 69, 93
3, 7392, Note_off_c, 1, 69, 0
3, 7392, Note_on_c, 1, 66, 93
3, 7416, Note_off_c, 1, 66, 0
3, 7416, Note_on_c, 1, 69, 93
3, 7440, Note_off_c, 1, 69, 0
3, 7440, Note_on_c, 1, 74, 93
3, 7464, Note_off_c, 1, 74, 0
3, 7464, Note_on_c, 1, 78, 93
3, 7488, Note_off_c, 1, 78, 0
3, 7488, Note_on_c, 1, 79, 93
3, 7512, Note_off_c, 1, 79, 0
3, 7512, Note_on_c, 1, 76, 93
3, 7536, Note_off_c, 1, 76, 0
3, 7536, Note_on_c, 1, 75, 93
3, 7560, Note_off_c, 1, 75, 0
3, 7560, Note_on_c, 1, 76, 93
3, 7584, Note_off_c, 1, 76, 0
3, 7584, Note_on_c, 1, 71, 93
3, 7608, Note_off_c, 1, 71, 0
3, 7608, Note_on_c, 1, 67, 93
3, 7632, Note_off_c, 1, 67, 0
3, 7632, Note_on_c, 1, 66, 93
3, 7656, Note_off_c, 1, 66, 0
3, 7656, Note_on_c, 1, 67, 93
3, 7680, Note_off_c, 1, 67, 0
3, 7680, Note_on_c, 1, 64, 93
3, 7704, Note_off_c, 1, 64, 0
3, 7704, Note_on_c, 1, 67, 93
3, 7728, Note_off_c, 1, 67, 0
3, 7728, Note_on_c, 1, 71, 93
3, 7752, Note_off_c, 1, 71, 0
3, 7752, Note_on_c, 1, 74, 93
3, 7776, Note_off_c, 1, 74, 0
3, 7776, Note_on_c, 1, 73, 93
3, 7800, Note_off_c, 1, 73, 0
3, 7800, Note_on_c, 1, 67, 93
3, 7824, Note_off_c, 1, 67, 0
3, 7824, Note_on_c, 1, 66, 93
3, 7848, Note_off_c, 1, 66, 0
3, 7848, Note_on_c, 1, 67, 93
3, 7872, Note_off_c, 1, 67, 0
3, 7872, Note_on_c, 1, 64, 93
3, 7896, Note_off_c, 1, 64, 0
3, 7896, Note_on_c, 1, 61, 93
3, 7920, Note_off_c, 1, 61, 0
3, 7920, Note_on_c, 1, 59, 93
3, 7944, Note_off_c, 1, 59, 0
3, 7944, Note_on_c, 1, 61, 93
3, 7968, Note_off_c, 1, 61, 0
3, 7968, Note_on_c, 1, 57, 93
3, 7992, Note_off_c, 1, 57, 0
3, 7992, Note_on_c, 1, 61, 93
3, 8016, Note_off_c, 1, 61, 0
3, 8016, Note_on_c, 1, 64, 93
3, 8040, Note_off_c, 1, 64, 0
3, 8040, Note_on_c, 1, 67, 93
3, 8064, Note_off_c, 1, 67, 0
3, 8076, Note_on_c, 1, 62, 93
3, 8088, Note_off_c, 1, 62, 0
3, 8088, Note_on_c, 1, 64, 93
3, 8100, Note_off_c, 1, 64, 0
3, 8100, Note_on_c, 1, 62, 93
3, 8112, Note_off_c, 1, 62, 0
3, 8112, Note_on_c, 1, 64, 93
3, 8124, Note_off_c, 1, 64, 0
3, 8124, Note_on_c, 1, 62, 93
3, 8136, Note_off_c, 1, 62, 0
3, 8136, Note_on_c, 1, 64, 93
3, 8148, Note_off_c, 1, 64, 0
3, 8148, Note_on_c, 1, 62, 93
3, 8160, Note_off_c, 1, 62, 0
3, 8172, Note_on_c, 1, 62, 93
3, 8184, Note_off_c, 1, 62, 0
3, 8184, Note_on_c, 1, 64, 93
3, 8196, Note_off_c, 1, 64, 0
3, 8196, Note_on_c, 1, 62, 93
3, 8208, Note_off_c, 1, 62, 0
3, 8208, Note_on_c, 1, 64, 93
3, 8220, Note_off_c, 1, 64, 0
3, 8220, Note_on_c, 1, 62, 93
3, 8232, Note_off_c, 1, 62, 0
3, 8232, Note_on_c, 1, 64, 93
3, 8244, Note_off_c, 1, 64, 0
3, 8244, Note_on_c, 1, 62, 93
3, 8256, Note_off_c, 1, 62, 0
3, 8268, Note_on_c, 1, 62, 93
3, 8280, Note_off_c, 1, 62, 0
3, 8280, Note_on_c, 1, 64, 93
3, 8292, Note_off_c, 1, 64, 0
3, 8292, Note_on_c, 1, 62, 93
3, 8304, Note_off_c, 1, 62, 0
3, 8304, Note_on_c, 1, 64, 93
3, 8316, Note_off_c, 1, 64, 0
3, 8316, Note_on_c, 1, 62, 93
3, 8328, Note_off_c, 1, 62, 0
3, 8328, Note_on_c, 1, 64, 93
3, 8340, Note_off_c, 1, 64, 0
3, 8340, Note_on_c, 1, 62, 93
3, 8352, Note_off_c, 1, 62, 0
3, 8364, Note_on_c, 1, 62, 93
3, 8376, Note_off_c, 1, 62, 0
3, 8376, Note_on_c, 1, 64, 93
3, 8388, Note_off_c, 1, 64, 0
3, 8388, Note_on_c, 1, 62, 93
3, 8400, Note_off_c, 1, 62, 0
3, 8400, Note_on_c, 1, 64, 93
3, 8412, Note_off_c, 1, 64, 0
3, 8412, Note_on_c, 1, 62, 93
3, 8424, Note_off_c, 1, 62, 0
3, 8424, Note_on_c, 1, 64, 93
3, 8436, Note_off_c, 1, 64, 0
3, 8436, Note_on_c, 1, 62, 93
3, 8448, Note_off_c, 1, 62, 0
3, 8460, Note_on_c, 1, 62, 93
3, 8472, Note_off_c, 1, 62, 0
3, 8472, Note_on_c, 1, 64, 93
3, 8484, Note_off_c, 1, 64, 0
3, 8484, Note_on_c, 1, 62, 93
3, 8496, Note_off_c, 1, 62, 0
3, 8496, Note_on_c, 1, 64, 93
3, 8508, Note_off_c, 1, 64, 0
3, 8508, Note_on_c, 1, 62, 93
3, 8520, Note_off_c, 1, 62, 0
3, 8520, Note_on_c, 1, 64, 93
3, 8532, Note_off_c, 1, 64, 0
3, 8532, Note_on_c, 1, 62, 93
3, 8544, Note_off_c, 1, 62, 0
3, 8556, Note_on_c, 1, 62, 93
3, 8568, Note_off_c, 1, 62, 0
3, 8568, Note_on_c, 1, 64, 93
3, 8580, Note_off_c, 1, 64, 0
3, 8580, Note_on_c, 1, 62, 93
3, 8592, Note_off_c, 1, 62, 0
3, 8592, Note_on_c, 1, 64, 93
3, 8604, Note_off_c, 1, 64, 0
3, 8604, Note_on_c, 1, 62, 93
3, 8616, Note_off_c, 1, 62, 0
3, 8616, Note_on_c, 1, 64, 93
3, 8628, Note_off_c, 1, 64, 0
3, 8628, Note_on_c, 1, 62, 93
3, 8640, Note_off_c, 1, 62, 0
3, 8652, Note_on_c, 1, 62, 93
3, 8664, Note_off_c, 1, 62, 0
3, 8664, Note_on_c, 1, 64, 93
3, 8676, Note_off_c, 1, 64, 0
3, 8676, Note_on_c, 1, 62, 93
3, 8688, Note_off_c, 1, 62, 0
3, 8688, Note_on_c, 1, 64, 93
3, 8700, Note_off_c, 1, 64, 0
3, 8700, Note_on_c, 1, 62, 93
3, 8712, Note_off_c, 1, 62, 0
3, 8712, Note_on_c, 1, 64, 93
3, 8724, Note_off_c, 1, 64, 0
3, 8724, Note_on_c, 1, 62, 93
3, 8736, Note_off_c, 1, 62, 0
3, 8748, Note_on_c, 1, 62, 93
3, 8760, Note_off_c, 1, 62, 0
3, 8760, Note_on_c, 1, 64, 93
3, 8772, Note_off_c, 1, 64, 0
3, 8772, Note_on_c, 1, 62, 93
3, 8784, Note_off_c, 1, 62, 0
3, 8784, Note_on_c, 1, 64, 93
3, 8796, Note_off_c, 1, 64, 0
3, 8796, Note_on_c, 1, 62, 93
3, 8808, Note_off_c, 1, 62, 0
3, 8808, Note_on_c, 1, 64, 93
3, 8820, Note_off_c, 1, 64, 0
3, 8820, Note_on_c, 1, 62, 93
3, 8832, Note_off_c, 1, 62, 0
3, 8844, Note_on_c, 1, 61, 93
3, 8856, Note_off_c, 1, 61, 0
3, 8856, Note_on_c, 1, 62, 93
3, 8868, Note_off_c, 1, 62, 0
3, 8868, Note_on_c, 1, 61, 93
3, 8880, Note_off_c, 1, 61, 0
3, 8880, Note_on_c, 1, 62, 93
3, 8892, Note_off_c, 1, 62, 0
3, 8892, Note_on_c, 1, 61, 93
3, 8904, Note_off_c, 1, 61, 0
3, 8904, Note_on_c, 1, 62, 93
3, 8916, Note_off_c, 1, 62, 0
3, 8916, Note_on_c, 1, 61, 93
3, 8928, Note_off_c, 1, 61, 0
3, 8928, Note_on_c, 1, 66, 93
3, 8952, Note_off_c, 1, 66, 0
3, 8952, Note_on_c, 1, 62, 93
3, 8976, Note_off_c, 1, 62, 0
3, 8976, Note_on_c, 1, 61, 93
3, 9000, Note_off_c, 1, 61, 0
3, 9000, Note_on_c, 1, 62, 93
3, 9024, Note_off_c, 1, 62, 0
3, 9024, Note_on_c, 1, 57, 93
3, 9048, Note_off_c, 1, 57, 0
3, 9048, Note_on_c, 1, 54, 93
3, 9072, Note_off_c, 1, 54, 0
3, 9072, Note_on_c, 1, 52, 93
3, 9096, Note_off_c, 1, 52, 0
3, 9096, Note_on_c, 1, 54, 93
3, 9120, Note_off_c, 1, 54, 0
3, 9120, Note_on_c, 1, 50, 93
3, 9216, Note_off_c, 1, 50, 0
3, 9216, Note_on_c, 1, 66, 93
3, 9240, Note_off_c, 1, 66, 0
3, 9240, Note_on_c, 1, 69, 93
3, 9264, Note_off_c, 1, 69, 0
3, 9264, Note_on_c, 1, 67, 93
3, 9288, Note_off_c, 1, 67, 0
3, 9288, Note_on_c, 1, 69, 93
3, 9312, Note_off_c, 1, 69, 0
3, 9312, Note_on_c, 1, 74, 93
3, 9336, Note_off_c, 1, 74, 0
3, 9336, Note_on_c, 1, 78, 93
3, 9360, Note_off_c, 1, 78, 0
3, 9360, Note_on_c, 1, 76, 93
3, 9384, Note_off_c, 1, 76, 0
3, 9384, Note_on_c, 1, 78, 93
3, 9408, Note_off_c, 1, 78, 0
3, 9408, Note_on_c, 1, 81, 93
3, 9432, Note_off_c, 1, 81, 0
3, 9432, Note_on_c, 1, 78, 93
3, 9456, Note_off_c, 1, 78, 0
3, 9456, Note_on_c, 1, 72, 93
3, 9480, Note_off_c, 1, 72, 0
3, 9480, Note_on_c, 1, 69, 93
3, 9504, Note_off_c, 1, 69, 0
3, 9504, Note_on_c, 1, 71, 93
3, 9528, Note_off_c, 1, 71, 0
3, 9528, Note_on_c, 1, 74, 93
3, 9552, Note_off_c, 1, 74, 0
3, 9552, Note_on_c, 1, 72, 93
3, 9576, Note_off_c, 1, 72, 0
3, 9576, Note_on_c, 1, 74, 93
3, 9600, Note_off_c, 1, 74, 0
3, 9600, Note_on_c, 1, 79, 93
3, 9624, Note_off_c, 1, 79, 0
3, 9624, Note_on_c, 1, 83, 93
3, 9648, Note_off_c, 1, 83, 0
3, 9648, Note_on_c, 1, 81, 93
3, 9672, Note_off_c, 1, 81, 0
3, 9672, Note_on_c, 1, 83, 93
3, 9696, Note_off_c, 1, 83, 0
3, 9696, Note_on_c, 1, 86, 93
3, 9720, Note_off_c, 1, 86, 0
3, 9720, Note_on_c, 1, 83, 93
3, 9744, Note_off_c, 1, 83, 0
3, 9744, Note_on_c, 1, 77, 93
3, 9768, Note_off_c, 1, 77, 0
3, 9768, Note_on_c, 1, 74, 93
3, 9792, Note_off_c, 1, 74, 0
3, 9792, Note_on_c, 1, 76, 93
3, 9840, Note_off_c, 1, 76, 0
3, 9840, Note_on_c, 1, 71, 93
3, 9888, Note_off_c, 1, 71, 0
3, 9888, Note_on_c, 1, 72, 93
3, 9936, Note_off_c, 1, 72, 0
3, 9936, Note_on_c, 1, 63, 93
3, 9984, Note_off_c, 1, 63, 0
3, 9984, Note_on_c, 1, 64, 93
3, 10032, Note_off_c, 1, 64, 0
3, 10032, Note_on_c, 1, 55, 93
3, 10080, Note_off_c, 1, 55, 0
3, 10080, Note_on_c, 1, 54, 93
3, 10128, Note_off_c, 1, 54, 0
3, 10128, Note_on_c, 1, 76, 93
3, 10176, Note_off_c, 1, 76, 0
3, 10176, Note_on_c, 1, 75, 93
3, 10200, Note_off_c, 1, 75, 0
3, 10200, Note_on_c, 1, 78, 93
3, 10224, Note_off_c, 1, 78, 0
3, 10224, Note_on_c, 1, 76, 93
3, 10248, Note_off_c, 1, 76, 0
3, 10248, Note_on_c, 1, 78, 93
3, 10272, Note_off_c, 1, 78, 0
3, 10272, Note_on_c, 1, 81, 93
3, 10296, Note_off_c, 1, 81, 0
3, 10296, Note_on_c, 1, 78, 93
3, 10320, Note_off_c, 1, 78, 0
3, 10320, Note_on_c, 1, 75, 93
3, 10344, Note_off_c, 1, 75, 0
3, 10344, Note_on_c, 1, 78, 93
3, 10368, Note_off_c, 1, 78, 0
3, 10368, Note_on_c, 1, 71, 93
3, 10392, Note_off_c, 1, 71, 0
3, 10464, Note_on_c, 1, 73, 93
3, 10488, Note_off_c, 1, 73, 0
3, 10560, Note_on_c, 1, 75, 93
3, 10584, Note_off_c, 1, 75, 0
3, 10656, Note_on_c, 1, 76, 93
3, 10680, Note_off_c, 1, 76, 0
3, 10752, Note_on_c, 1, 75, 93
3, 10776, Note_off_c, 1, 75, 0
3, 10848, Note_on_c, 1, 76, 93
3, 10872, Note_off_c, 1, 76, 0
3, 10944, Note_on_c, 1, 73, 93
3, 10968, Note_off_c, 1, 73, 0
3, 11040, Note_on_c, 1, 71, 93
3, 11064, Note_off_c, 1, 71, 0
3, 11136, Note_on_c, 1, 69, 93
3, 11160, Note_off_c, 1, 69, 0
3, 11532, Note_on_c, 1, 67, 93
3, 11544, Note_off_c, 1, 67, 0
3, 11544, Note_on_c, 1, 69, 93
3, 11556, Note_off_c, 1, 69, 0
3, 11556, Note_on_c, 1, 67, 93
3, 11568, Note_off_c, 1, 67, 0
3, 11568, Note_on_c, 1, 69, 93
3, 11580, Note_off_c, 1, 69, 0
3, 11580, Note_on_c, 1, 67, 93
3, 11592, Note_off_c, 1, 67, 0
3, 11592, Note_on_c, 1, 69, 93
3, 11604, Note_off_c, 1, 69, 0
3, 11604, Note_on_c, 1, 67, 93
3, 11616, Note_off_c, 1, 67, 0
3, 11628, Note_on_c, 1, 67, 93
3, 11640, Note_off_c, 1, 67, 0
3, 11640, Note_on_c, 1, 69, 93
3, 11652, Note_off_c, 1, 69, 0
3, 11652, Note_on_c, 1, 67, 93
3, 11664, Note_off_c, 1, 67, 0
3, 11664, Note_on_c, 1, 69, 93
3, 11676, Note_off_c, 1, 69, 0
3, 11676, Note_on_c, 1, 67, 93
3, 11688, Note_off_c, 1, 67, 0
3, 11688, Note_on_c, 1, 69, 93
3, 11700, Note_off_c, 1, 69, 0
3, 11700, Note_on_c, 1, 67, 93
3, 11712, Note_off_c, 1, 67, 0
3, 11724, Note_on_c, 1, 67, 93
3, 11736, Note_off_c, 1, 67, 0
3, 11736, Note_on_c, 1, 69, 93
3, 11748, Note_off_c, 1, 69, 0
3, 11748, Note_on_c, 1, 67, 93
3, 11760, Note_off_c, 1, 67, 0
3, 11760, Note_on_c, 1, 69, 93
3, 11772, Note_off_c, 1, 69, 0
3, 11772, Note_on_c, 1, 67, 93
3, 11784, Note_off_c, 1, 67, 0
3, 11784, Note_on_c, 1, 69, 93
3, 11796, Note_off_c, 1, 69, 0
3, 11796, Note_on_c, 1, 67, 93
3, 11808, Note_off_c, 1, 67, 0
3, 11820, Note_on_c, 1, 67, 93
3, 11832, Note_off_c, 1, 67, 0
3, 11832, Note_on_c, 1, 69, 93
3, 11844, Note_off_c, 1, 69, 0
3, 11844, Note_on_c, 1, 67, 93
3, 11856, Note_off_c, 1, 67, 0
3, 11856, Note_on_c, 1, 69, 93
3, 11868, Note_off_c, 1, 69, 0
3, 11868, Note_on_c, 1, 67, 93
3, 11880, Note_off_c, 1, 67, 0
3, 11880, Note_on_c, 1, 69, 93
3, 11892, Note_off_c, 1, 69, 0
3, 11892, Note_on_c, 1, 67, 93
3, 11904, Note_off_c, 1, 67, 0
3, 11916, Note_on_c, 1, 67, 93
3, 11928, Note_off_c, 1, 67, 0
3, 11928, Note_on_c, 1, 69, 93
3, 11940, Note_off_c, 1, 69, 0
3, 11940, Note_on_c, 1, 67, 93
3, 11952, Note_off_c, 1, 67, 0
3, 11952, Note_on_c, 1, 69, 93
3, 11964, Note_off_c, 1, 69, 0
3, 11964, Note_on_c, 1, 67, 93
3, 11976, Note_off_c, 1, 67, 0
3, 11976, Note_on_c, 1, 69, 93
3, 11988, Note_off_c, 1, 69, 0
3, 11988, Note_on_c, 1, 67, 93
3, 12000, Note_off_c, 1, 67, 0
3, 12012, Note_on_c, 1, 67, 93
3, 12024, Note_off_c, 1, 67, 0
3, 12024, Note_on_c, 1, 69, 93
3, 12036, Note_off_c, 1, 69, 0
3, 12036, Note_on_c, 1, 67, 93
3, 12048, Note_off_c, 1, 67, 0
3, 12048, Note_on_c, 1, 69, 93
3, 12060, Note_off_c, 1, 69, 0
3, 12060, Note_on_c, 1, 67, 93
3, 12072, Note_off_c, 1, 67, 0
3, 12072, Note_on_c, 1, 69, 93
3, 12084, Note_off_c, 1, 69, 0
3, 12084, Note_on_c, 1, 67, 93
3, 12096, Note_off_c, 1, 67, 0
3, 12096, Note_on_c, 1, 64, 93
3, 12120, Note_off_c, 1, 64, 0
3, 12192, Note_on_c, 1, 62, 93
3, 12216, Note_off_c, 1, 62, 0
3, 12288, Note_on_c, 1, 64, 93
3, 12312, Note_off_c, 1, 64, 0
3, 12384, Note_on_c, 1, 66, 93
3, 12408, Note_off_c, 1, 66, 0
3, 12480, Note_on_c, 1, 64, 93
3, 12504, Note_off_c, 1, 64, 0
3, 12576, Note_on_c, 1, 66, 93
3, 12600, Note_off_c, 1, 66, 0
3, 12684, Note_on_c, 1, 67, 93
3, 12696, Note_off_c, 1, 67, 0
3, 12696, Note_on_c, 1, 69, 93
3, 12708, Note_off_c, 1, 69, 0
3, 12708, Note_on_c, 1, 67, 93
3, 12720, Note_off_c, 1, 67, 0
3, 12720, Note_on_c, 1, 69, 93
3, 12732, Note_off_c, 1, 69, 0
3, 12732, Note_on_c, 1, 67, 93
3, 12744, Note_off_c, 1, 67, 0
3, 12744, Note_on_c, 1, 69, 93
3, 12756, Note_off_c, 1, 69, 0
3, 12756, Note_on_c, 1, 67, 93
3, 12768, Note_off_c, 1, 67, 0
3, 12780, Note_on_c, 1, 66, 93
3, 12792, Note_off_c, 1, 66, 0
3, 12792, Note_on_c, 1, 67, 93
3, 12804, Note_off_c, 1, 67, 0
3, 12804, Note_on_c, 1, 66, 93
3, 12816, Note_off_c, 1, 66, 0
3, 12816, Note_on_c, 1, 67, 93
3, 12828, Note_off_c, 1, 67, 0
3, 12828, Note_on_c, 1, 66, 93
3, 12840, Note_off_c, 1, 66, 0
3, 12840, Note_on_c, 1, 67, 93
3, 12852, Note_off_c, 1, 67, 0
3, 12852, Note_on_c, 1, 66, 93
3, 12864, Note_off_c, 1, 66, 0
3, 12876, Note_on_c, 1, 65, 93
3, 12888, Note_off_c, 1, 65, 0
3, 12888, Note_on_c, 1, 67, 93
3, 12900, Note_off_c, 1, 67, 0
3, 12900, Note_on_c, 1, 65, 93
3, 12912, Note_off_c, 1, 65, 0
3, 12912, Note_on_c, 1, 67, 93
3, 12924, Note_off_c, 1, 67, 0
3, 12924, Note_on_c, 1, 65, 93
3, 12936, Note_off_c, 1, 65, 0
3, 12936, Note_on_c, 1, 67, 93
3, 12948, Note_off_c, 1, 67, 0
3, 12948, Note_on_c, 1, 65, 93
3, 12960, Note_off_c, 1, 65, 0
3, 12972, Note_on_c, 1, 60, 93
3, 12984, Note_off_c, 1, 60, 0
3, 12984, Note_on_c, 1, 62, 93
3, 12996, Note_off_c, 1, 62, 0
3, 12996, Note_on_c, 1, 60, 93
3, 13008, Note_off_c, 1, 60, 0
3, 13008, Note_on_c, 1, 62, 93
3, 13020, Note_off_c, 1, 62, 0
3, 13020, Note_on_c, 1, 60, 93
3, 13032, Note_off_c, 1, 60, 0
3, 13032, Note_on_c, 1, 62, 93
3, 13044, Note_off_c, 1, 62, 0
3, 13044, Note_on_c, 1, 60, 93
3, 13056, Note_off_c, 1, 60, 0
3, 13068, Note_on_c, 1, 59, 93
3, 13080, Note_off_c, 1, 59, 0
3, 13080, Note_on_c, 1, 60, 93
3, 13092, Note_off_c, 1, 60, 0
3, 13092, Note_on_c, 1, 59, 93
3, 13104, Note_off_c, 1, 59, 0
3, 13104, Note_on_c, 1, 60, 93
3, 13116, Note_off_c, 1, 60, 0
3, 13116, Note_on_c, 1, 59, 93
3, 13128, Note_off_c, 1, 59, 0
3, 13128, Note_on_c, 1, 60, 93
3, 13140, Note_off_c, 1, 60, 0
3, 13140, Note_on_c, 1, 59, 93
3, 13152, Note_off_c, 1, 59, 0
3, 13164, Note_on_c, 1, 58, 93
3, 13176, Note_off_c, 1, 58, 0
3, 13176, Note_on_c, 1, 60, 93
3, 13188, Note_off_c, 1, 60, 0
3, 13188, Note_on_c, 1, 58, 93
3, 13200, Note_off_c, 1, 58, 0
3, 13200, Note_on_c, 1, 60, 93
3, 13212, Note_off_c, 1, 60, 0
3, 13212, Note_on_c, 1, 58, 93
3, 13224, Note_off_c, 1, 58, 0
3, 13224, Note_on_c, 1, 60, 93
3, 13236, Note_off_c, 1, 60, 0
3, 13236, Note_on_c, 1, 58, 93
3, 13248, Note_off_c, 1, 58, 0
3, 13824, Note_on_c, 1, 66, 93
3, 13848, Note_off_c, 1, 66, 0
3, 13848, Note_on_c, 1, 69, 93
3, 13872, Note_off_c, 1, 69, 0
3, 13872, Note_on_c, 1, 67, 93
3, 13896, Note_off_c, 1, 67, 0
3, 13896, Note_on_c, 1, 69, 93
3, 13920, Note_off_c, 1, 69, 0
3, 13920, Note_on_c, 1, 74, 93
3, 13944, Note_off_c, 1, 74, 0
3, 13944, Note_on_c, 1, 78, 93
3, 13968, Note_off_c, 1, 78, 0
3, 13968, Note_on_c, 1, 76, 93
3, 13992, Note_off_c, 1, 76, 0
3, 13992, Note_on_c, 1, 78, 93
3, 14016, Note_off_c, 1, 78, 0
3, 14016, Note_on_c, 1, 81, 93
3, 14040, Note_off_c, 1, 81, 0
3, 14040, Note_on_c, 1, 78, 93
3, 14064, Note_off_c, 1, 78, 0
3, 14064, Note_on_c, 1, 72, 93
3, 14088, Note_off_c, 1, 72, 0
3, 14088, Note_on_c, 1, 69, 93
3, 14112, Note_off_c, 1, 69, 0
3, 14112, Note_on_c, 1, 71, 93
3, 14136, Note_off_c, 1, 71, 0
3, 14136, Note_on_c, 1, 74, 93
3, 14160, Note_off_c, 1, 74, 0
3, 14160, Note_on_c, 1, 72, 93
3, 14184, Note_off_c, 1, 72, 0
3, 14184, Note_on_c, 1, 74, 93
3, 14208, Note_off_c, 1, 74, 0
3, 14208, Note_on_c, 1, 79, 93
3, 14232, Note_off_c, 1, 79, 0
3, 14232, Note_on_c, 1, 83, 93
3, 14256, Note_off_c, 1, 83, 0
3, 14256, Note_on_c, 1, 81, 93
3, 14280, Note_off_c, 1, 81, 0
3, 14280, Note_on_c, 1, 83, 93
3, 14304, Note_off_c, 1, 83, 0
3, 14304, Note_on_c, 1, 86, 93
3, 14328, Note_off_c, 1, 86, 0
3, 14328, Note_on_c, 1, 83, 93
3, 14352, Note_off_c, 1, 83, 0
3, 14352, Note_on_c, 1, 77, 93
3, 14376, Note_off_c, 1, 77, 0
3, 14376, Note_on_c, 1, 74, 93
3, 14400, Note_off_c, 1, 74, 0
3, 14400, Note_on_c, 1, 76, 93
3, 14448, Note_off_c, 1, 76, 0
3, 14448, Note_on_c, 1, 71, 93
3, 14496, Note_off_c, 1, 71, 0
3, 14496, Note_on_c, 1, 72, 93
3, 14544, Note_off_c, 1, 72, 0
3, 14544, Note_on_c, 1, 63, 93
3, 14592, Note_off_c, 1, 63, 0
3, 14592, Note_on_c, 1, 64, 93
3, 14640, Note_off_c, 1, 64, 0
3, 14640, Note_on_c, 1, 55, 93
3, 14688, Note_off_c, 1, 55, 0
3, 14688, Note_on_c, 1, 54, 93
3, 14736, Note_off_c, 1, 54, 0
3, 14736, Note_on_c, 1, 76, 93
3, 14784, Note_off_c, 1, 76, 0
3, 14784, Note_on_c, 1, 75, 93
3, 14808, Note_off_c, 1, 75, 0
3, 14808, Note_on_c, 1, 78, 93
3, 14832, Note_off_c, 1, 78, 0
3, 14832, Note_on_c, 1, 76, 93
3, 14856, Note_off_c, 1, 76, 0
3, 14856, Note_on_c, 1, 78, 93
3, 14880, Note_off_c, 1, 78, 0
3, 14880, Note_on_c, 1, 81, 93
3, 14904, Note_off_c, 1, 81, 0
3, 14904, Note_on_c, 1, 78, 93
3, 14928, Note_off_c, 1, 78, 0
3, 14928, Note_on_c, 1, 75, 93
3, 14952, Note_off_c, 1, 75, 0
3, 14952, Note_on_c, 1, 78, 93
3, 14976, Note_off_c, 1, 78, 0
3, 14976, Note_on_c, 1, 71, 93
3, 15000, Note_off_c, 1, 71, 0
3, 15072, Note_on_c, 1, 73, 93
3, 15096, Note_off_c, 1, 73, 0
3, 15168, Note_on_c, 1, 75, 93
3, 15192, Note_off_c, 1, 75, 0
3, 15264, Note_on_c, 1, 76, 93
3, 15288, Note_off_c, 1, 76, 0
3, 15360, Note_on_c, 1, 75, 93
3, 15384, Note_off_c, 1, 75, 0
3, 15456, Note_on_c, 1, 76, 93
3, 15480, Note_off_c, 1, 76, 0
3, 15552, Note_on_c, 1, 73, 93
3, 15576, Note_off_c, 1, 73, 0
3, 15648, Note_on_c, 1, 71, 93
3, 15672, Note_off_c, 1, 71, 0
3, 15744, Note_on_c, 1, 69, 93
3, 15768, Note_off_c, 1, 69, 0
3, 16140, Note_on_c, 1, 67, 93
3, 16152, Note_off_c, 1, 67, 0
3, 16152, Note_on_c, 1, 69, 93
3, 16164, Note_off_c, 1, 69, 0
3, 16164, Note_on_c, 1, 67, 93
3, 16176, Note_off_c, 1, 67, 0
3, 16176, Note_on_c, 1, 69, 93
3, 16188, Note_off_c, 1, 69, 0
3, 16188, Note_on_c, 1, 67, 93
3, 16200, Note_off_c, 1, 67, 0
3, 16200, Note_on_c, 1, 69, 93
3, 16212, Note_off_c, 1, 69, 0
3, 16212, Note_on_c, 1, 67, 93
3, 16224, Note_off_c, 1, 67, 0
3, 16236, Note_on_c, 1, 67, 93
3, 16248, Note_off_c, 1, 67, 0
3, 16248, Note_on_c, 1, 69, 93
3, 16260, Note_off_c, 1, 69, 0
3, 16260, Note_on_c, 1, 67, 93
3, 16272, Note_off_c, 1, 67, 0
3, 16272, Note_on_c, 1, 69, 93
3, 16284, Note_off_c, 1, 69, 0
3, 16284, Note_on_c, 1, 67, 93
3, 16296, Note_off_c, 1, 67, 0
3, 16296, Note_on_c, 1, 69, 93
3, 16308, Note_off_c, 1, 69, 0
3, 16308, Note_on_c, 1, 67, 93
3, 16320, Note_off_c, 1, 67, 0
3, 16332, Note_on_c, 1, 67, 93
3, 16344, Note_off_c, 1, 67, 0
3, 16344, Note_on_c, 1, 69, 93
3, 16356, Note_off_c, 1, 69, 0
3, 16356, Note_on_c, 1, 67, 93
3, 16368, Note_off_c, 1, 67, 0
3, 16368, Note_on_c, 1, 69, 93
3, 16380, Note_off_c, 1, 69, 0
3, 16380, Note_on_c, 1, 67, 93
3, 16392, Note_off_c, 1, 67, 0
3, 16392, Note_on_c, 1, 69, 93
3, 16404, Note_off_c, 1, 69, 0
3, 16404, Note_on_c, 1, 67, 93
3, 16416, Note_off_c, 1, 67, 0
3, 16428, Note_on_c, 1, 67, 93
3, 16440, Note_off_c, 1, 67, 0
3, 16440, Note_on_c, 1, 69, 93
3, 16452, Note_off_c, 1, 69, 0
3, 16452, Note_on_c, 1, 67, 93
3, 16464, Note_off_c, 1, 67, 0
3, 16464, Note_on_c, 1, 69, 93
3, 16476, Note_off_c, 1, 69, 0
3, 16476, Note_on_c, 1, 67, 93
3, 16488, Note_off_c, 1, 67, 0
3, 16488, Note_on_c, 1, 69, 93
3, 16500, Note_off_c, 1, 69, 0
3, 16500, Note_on_c, 1, 67, 93
3, 16512, Note_off_c, 1, 67, 0
3, 16524, Note_on_c, 1, 67, 93
3, 16536, Note_off_c, 1, 67, 0
3, 16536, Note_on_c, 1, 69, 93
3, 16548, Note_off_c, 1, 69, 0
3, 16548, Note_on_c, 1, 67, 93
3, 16560, Note_off_c, 1, 67, 0
3, 16560, Note_on_c, 1, 69, 93
3, 16572, Note_off_c, 1, 69, 0
3, 16572, Note_on_c, 1, 67, 93
3, 16584, Note_off_c, 1, 67, 0
3, 16584, Note_on_c, 1, 69, 93
3, 16596, Note_off_c, 1, 69, 0
3, 16596, Note_on_c, 1, 67, 93
3, 16608, Note_off_c, 1, 67, 0
3, 16620, Note_on_c, 1, 67, 93
3, 16632, Note_off_c, 1, 67, 0
3, 16632, Note_on_c, 1, 69, 93
3, 16644, Note_off_c, 1, 69, 0
3, 16644, Note_on_c, 1, 67, 93
3, 16656, Note_off_c, 1, 67, 0
3, 16656, Note_on_c, 1, 69, 93
3, 16668, Note_off_c, 1, 69, 0
3, 16668, Note_on_c, 1, 67, 93
3, 16680, Note_off_c, 1, 67, 0
3, 16680, Note_on_c, 1, 69, 93
3, 16692, Note_off_c, 1, 69, 0
3, 16692, Note_on_c, 1, 67, 93
3, 16704, Note_off_c, 1, 67, 0
3, 16704, Note_on_c, 1, 64, 93
3, 16728, Note_off_c, 1, 64, 0
3, 16800, Note_on_c, 1, 62, 93
3, 16824, Note_off_c, 1, 62, 0
3, 16896, Note_on_c, 1, 64, 93
3, 16920, Note_off_c, 1, 64, 0
3, 16992, Note_on_c, 1, 66, 93
3, 17016, Note_off_c, 1, 66, 0
3, 17088, Note_on_c, 1, 64, 93
3, 17112, Note_off_c, 1, 64, 0
3, 17184, Note_on_c, 1, 66, 93
3, 17208, Note_off_c, 1, 66, 0
3, 17292, Note_on_c, 1, 67, 93
3, 17304, Note_off_c, 1, 67, 0
3, 17304, Note_on_c, 1, 69, 93
3, 17316, Note_off_c, 1, 69, 0
3, 17316, Note_on_c, 1, 67, 93
3, 17328, Note_off_c, 1, 67, 0
3, 17328, Note_on_c, 1, 69, 93
3, 17340, Note_off_c, 1, 69, 0
3, 17340, Note_on_c, 1, 67, 93
3, 17352, Note_off_c, 1, 67, 0
3, 17352, Note_on_c, 1, 69, 93
3, 17364, Note_off_c, 1, 69, 0
3, 17364, Note_on_c, 1, 67, 93
3, 17376, Note_off_c, 1, 67, 0
3, 17388, Note_on_c, 1, 66, 93
3, 17400, Note_off_c, 1, 66, 0
3, 17400, Note_on_c, 1, 67, 93
3, 17412, Note_off_c, 1, 67, 0
3, 17412, Note_on_c, 1, 66, 93
3, 17424, Note_off_c, 1, 66, 0
3, 17424, Note_on_c, 1, 67, 93
3, 17436, Note_off_c, 1, 67, 0
3, 17436, Note_on_c, 1, 66, 93
3, 17448, Note_off_c, 1, 66, 0
3, 17448, Note_on_c, 1, 67, 93
3, 17460, Note_off_c, 1, 67, 0
3, 17460, Note_on_c, 1, 66, 93
3, 17472, Note_off_c, 1, 66, 0
3, 17484, Note_on_c, 1, 65, 93
3, 17496, Note_off_c, 1, 65, 0
3, 17496, Note_on_c, 1, 67, 93
3, 17508, Note_off_c, 1, 67, 0
3, 17508, Note_on_c, 1, 65, 93
3, 17520, Note_off_c, 1, 65, 0
3, 17520, Note_on_c, 1, 67, 93
3, 17532, Note_off_c, 1, 67, 0
3, 17532, Note_on_c, 1, 65, 93
3, 17544, Note_off_c, 1, 65, 0
3, 17544, Note_on_c, 1, 67, 93
3, 17556, Note_off_c, 1, 67, 0
3, 17556, Note_on_c, 1, 65, 93
3, 17568, Note_off_c, 1, 65, 0
3, 17580, Note_on_c, 1, 60, 93
3, 17592, Note_off_c, 1, 60, 0
3, 17592, Note_on_c, 1, 62, 93
3, 17604, Note_off_c, 1, 62, 0
3, 17604, Note_on_c, 1, 60, 93
3, 17616, Note_off_c, 1, 60, 0
3, 17616, Note_on_c, 1, 62, 93
3, 17628, Note_off_c, 1, 62, 0
3, 17628, Note_on_c, 1, 60, 93
3, 17640, Note_off_c, 1, 60, 0
3, 17640, Note_on_c, 1, 62, 93
3, 17652, Note_off_c, 1, 62, 0
3, 17652, Note_on_c, 1, 60, 93
3, 17664, Note_off_c, 1, 60, 0
3, 17676, Note_on_c, 1, 59, 93
3, 17688, Note_off_c, 1, 59, 0
3, 17688, Note_on_c, 1, 60, 93
3, 17700, Note_off_c, 1, 60, 0
3, 17700, Note_on_c, 1, 59, 93
3, 17712, Note_off_c, 1, 59, 0
3, 17712, Note_on_c, 1, 60, 93
3, 17724, Note_off_c, 1, 60, 0
3, 17724, Note_on_c, 1, 59, 93
3, 17736, Note_off_c, 1, 59, 0
3, 17736, Note_on_c, 1, 60, 93
3, 17748, Note_off_c, 1, 60, 0
3, 17748, Note_on_c, 1, 59, 93
3, 17760, Note_off_c, 1, 59, 0
3, 17772, Note_on_c, 1, 58, 93
3, 17784, Note_off_c, 1, 58, 0
3, 17784, Note_on_c, 1, 60, 93
3, 17796, Note_off_c, 1, 60, 0
3, 17796, Note_on_c, 1, 58, 93
3, 17808, Note_off_c, 1, 58, 0
3, 17808, Note_on_c, 1, 60, 93
3, 17820, Note_off_c, 1, 60, 0
3, 17820, Note_on_c, 1, 58, 93
3, 17832, Note_off_c, 1, 58, 0
3, 17832, Note_on_c, 1, 60, 93
3, 17844, Note_off_c, 1, 60, 0
3, 17844, Note_on_c, 1, 58, 93
3, 17856, Note_off_c, 1, 58, 0
3, 17856, End_track
4, 0, Start_track
4, 0, Title_t, "Track4"
4, 0, Program_c, 2, 6
4, 0, Control_c, 2, 7, 100
4, 0, Control_c, 2, 10, 59
4, 1164, Note_on_c, 2, 67, 93
4, 1176, Note_off_c, 2, 67, 0
4, 1176, Note_on_c, 2, 69, 93
4, 1188, Note_off_c, 2, 69, 0
4, 1188, Note_on_c, 2, 67, 93
4, 1200, Note_off_c, 2, 67, 0
4, 1200, Note_on_c, 2, 69, 93
4, 1212, Note_off_c, 2, 69, 0
4, 1212, Note_on_c, 2, 67, 93
4, 1224, Note_off_c, 2, 67, 0
4, 1224, Note_on_c, 2, 69, 93
4, 1236, Note_off_c, 2, 69, 0
4, 1236, Note_on_c, 2, 67, 93
4, 1248, Note_off_c, 2, 67, 0
4, 1260, Note_on_c, 2, 67, 93
4, 1272, Note_off_c, 2, 67, 0
4, 1272, Note_on_c, 2, 69, 93
4, 1284, Note_off_c, 2, 69, 0
4, 1284, Note_on_c, 2, 67, 93
4, 1296, Note_off_c, 2, 67, 0
4, 1296, Note_on_c, 2, 69, 93
4, 1308, Note_off_c, 2, 69, 0
4, 1308, Note_on_c, 2, 67, 93
4, 1320, Note_off_c, 2, 67, 0
4, 1320, Note_on_c, 2, 69, 93
4, 1332, Note_off_c, 2, 69, 0
4, 1332, Note_on_c, 2, 67, 93
4, 1344, Note_off_c, 2, 67, 0
4, 1356, Note_on_c, 2, 67, 93
4, 1368, Note_off_c, 2, 67, 0
4, 1368, Note_on_c, 2, 69, 93
4, 1380, Note_off_c, 2, 69, 0
4, 1380, Note_on_c, 2, 67, 93
4, 1392, Note_off_c, 2, 67, 0
4, 1392, Note_on_c, 2, 69, 93
4, 1404, Note_off_c, 2, 69, 0
4, 1404, Note_on_c, 2, 67, 93
4, 1416, Note_off_c, 2, 67, 0
4, 1416, Note_on_c, 2, 69, 93
4, 1428, Note_off_c, 2, 69, 0
4, 1428, Note_on_c, 2, 67, 93
4, 1440, Note_off_c, 2, 67, 0
4, 1452, Note_on_c, 2, 67, 93
4, 1464, Note_off_c, 2, 67, 0
4, 1464, Note_on_c, 2, 69, 93
4, 1476, Note_off_c, 2, 69, 0
4, 1476, Note_on_c, 2, 67, 93
4, 1488, Note_off_c, 2, 67, 0
4, 1488, Note_on_c, 2, 69, 93
4, 1500, Note_off_c, 2, 69, 0
4, 1500, Note_on_c, 2, 67, 93
4, 1512, Note_off_c, 2, 67, 0
4, 1512, Note_on_c, 2, 69, 93
4, 1524, Note_off_c, 2, 69, 0
4, 1524, Note_on_c, 2, 67, 93
4, 1536, Note_off_c, 2, 67, 0
4, 1548, Note_on_c, 2, 67, 93
4, 1560, Note_off_c, 2, 67, 0
4, 1560, Note_on_c, 2, 69, 93
4, 1572, Note_off_c, 2, 69, 0
4, 1572, Note_on_c, 2, 67, 93
4, 1584, Note_off_c, 2, 67, 0
4, 1584, Note_on_c, 2, 69, 93
4, 1596, Note_off_c, 2, 69, 0
4, 1596, Note_on_c, 2, 67, 93
4, 1608, Note_off_c, 2, 67, 0
4, 1608, Note_on_c, 2, 69, 93
4, 1620, Note_off_c, 2, 69, 0
4, 1620, Note_on_c, 2, 67, 93
4, 1632, Note_off_c, 2, 67, 0
4, 1644, Note_on_c, 2, 67, 93
4, 1656, Note_off_c, 2, 67, 0
4, 1656, Note_on_c, 2, 69, 93
4, 1668, Note_off_c, 2, 69, 0
4, 1668, Note_on_c, 2, 67, 93
4, 1680, Note_off_c, 2, 67, 0
4, 1680, Note_on_c, 2, 69, 93
4, 1692, Note_off_c, 2, 69, 0
4, 1692, Note_on_c, 2, 67, 93
4, 1704, Note_off_c, 2, 67, 0
4, 1704, Note_on_c, 2, 69, 93
4, 1716, Note_off_c, 2, 69, 0
4, 1716, Note_on_c, 2, 67, 93
4, 1728, Note_off_c, 2, 67, 0
4, 1740, Note_on_c, 2, 67, 93
4, 1752, Note_off_c, 2, 67, 0
4, 1752, Note_on_c, 2, 69, 93
4, 1764, Note_off_c, 2, 69, 0
4, 1764, Note_on_c, 2, 67, 93
4, 1776, Note_off_c, 2, 67, 0
4, 1776, Note_on_c, 2, 69, 93
4, 1788, Note_off_c, 2, 69, 0
4, 1788, Note_on_c, 2, 67, 93
4, 1800, Note_off_c, 2, 67, 0
4, 1800, Note_on_c, 2, 69, 93
4, 1812, Note_off_c, 2, 69, 0
4, 1812, Note_on_c, 2, 67, 93
4, 1824, Note_off_c, 2, 67, 0
4, 1836, Note_on_c, 2, 67, 93
4, 1848, Note_off_c, 2, 67, 0
4, 1848, Note_on_c, 2, 69, 93
4, 1860, Note_off_c, 2, 69, 0
4, 1860, Note_on_c, 2, 67, 93
4, 1872, Note_off_c, 2, 67, 0
4, 1872, Note_on_c, 2, 69, 93
4, 1884, Note_off_c, 2, 69, 0
4, 1884, Note_on_c, 2, 67, 93
4, 1896, Note_off_c, 2, 67, 0
4, 1896, Note_on_c, 2, 69, 93
4, 1908, Note_off_c, 2, 69, 0
4, 1908, Note_on_c, 2, 67, 93
4, 1920, Note_off_c, 2, 67, 0
4, 1932, Note_on_c, 2, 67, 93
4, 1944, Note_off_c, 2, 67, 0
4, 1944, Note_on_c, 2, 69, 93
4, 1956, Note_off_c, 2, 69, 0
4, 1956, Note_on_c, 2, 67, 93
4, 1968, Note_off_c, 2, 67, 0
4, 1968, Note_on_c, 2, 69, 93
4, 1980, Note_off_c, 2, 69, 0
4, 1980, Note_on_c, 2, 67, 93
4, 1992, Note_off_c, 2, 67, 0
4, 1992, Note_on_c, 2, 69, 93
4, 2004, Note_off_c, 2, 69, 0
4, 2004, Note_on_c, 2, 67, 93
4, 2016, Note_off_c, 2, 67, 0
4, 2028, Note_on_c, 2, 67, 93
4, 2040, Note_off_c, 2, 67, 0
4, 2040, Note_on_c, 2, 69, 93
4, 2052, Note_off_c, 2, 69, 0
4, 2052, Note_on_c, 2, 67, 93
4, 2064, Note_off_c, 2, 67, 0
4, 2064, Note_on_c, 2, 69, 93
4, 2076, Note_off_c, 2, 69, 0
4, 2076, Note_on_c, 2, 67, 93
4, 2088, Note_off_c, 2, 67, 0
4, 2088, Note_on_c, 2, 69, 93
4, 2100, Note_off_c, 2, 69, 0
4, 2100, Note_on_c, 2, 67, 93
4, 2112, Note_off_c, 2, 67, 0
4, 2124, Note_on_c, 2, 67, 93
4, 2136, Note_off_c, 2, 67, 0
4, 2136, Note_on_c, 2, 69, 93
4, 2148, Note_off_c, 2, 69, 0
4, 2148, Note_on_c, 2, 67, 93
4, 2160, Note_off_c, 2, 67, 0
4, 2160, Note_on_c, 2, 69, 93
4, 2172, Note_off_c, 2, 69, 0
4, 2172, Note_on_c, 2, 67, 93
4, 2184, Note_off_c, 2, 67, 0
4, 2184, Note_on_c, 2, 69, 93
4, 2196, Note_off_c, 2, 69, 0
4, 2196, Note_on_c, 2, 67, 93
4, 2208, Note_off_c, 2, 67, 0
4, 2220, Note_on_c, 2, 67, 93
4, 2232, Note_off_c, 2, 67, 0
4, 2232, Note_on_c, 2, 69, 93
4, 2244, Note_off_c, 2, 69, 0
4, 2244, Note_on_c, 2, 67, 93
4, 2256, Note_off_c, 2, 67, 0
4, 2256, Note_on_c, 2, 69, 93
4, 2268, Note_off_c, 2, 69, 0
4, 2268, Note_on_c, 2, 67, 93
4, 2280, Note_off_c, 2, 67, 0
4, 2280, Note_on_c, 2, 69, 93
4, 2292, Note_off_c, 2, 69, 0
4, 2292, Note_on_c, 2, 67, 93
4, 2304, Note_off_c, 2, 67, 0
4, 2304, Note_on_c, 2, 55, 93
4, 2328, Note_off_c, 2, 55, 0
4, 2328, Note_on_c, 2, 59, 93
4, 2352, Note_off_c, 2, 59, 0
4, 2352, Note_on_c, 2, 57, 93
4, 2376, Note_off_c, 2, 57, 0
4, 2376, Note_on_c, 2, 59, 93
4, 2400, Note_off_c, 2, 59, 0
4, 2400, Note_on_c, 2, 64, 93
4, 2424, Note_off_c, 2, 64, 0
4, 2424, Note_on_c, 2, 67, 93
4, 2448, Note_off_c, 2, 67, 0
4, 2448, Note_on_c, 2, 66, 93
4, 2472, Note_off_c, 2, 66, 0
4, 2472, Note_on_c, 2, 67, 93
4, 2496, Note_off_c, 2, 67, 0
4, 2496, Note_on_c, 2, 71, 93
4, 2520, Note_off_c, 2, 71, 0
4, 2520, Note_on_c, 2, 67, 93
4, 2544, Note_off_c, 2, 67, 0
4, 2544, Note_on_c, 2, 64, 93
4, 2568, Note_off_c, 2, 64, 0
4, 2568, Note_on_c, 2, 61, 93
4, 2592, Note_off_c, 2, 61, 0
4, 2592, Note_on_c, 2, 54, 93
4, 2616, Note_off_c, 2, 54, 0
4, 2616, Note_on_c, 2, 57, 93
4, 2640, Note_off_c, 2, 57, 0
4, 2640, Note_on_c, 2, 55, 93
4, 2664, Note_off_c, 2, 55, 0
4, 2664, Note_on_c, 2, 57, 93
4, 2688, Note_off_c, 2, 57, 0
4, 2688, Note_on_c, 2, 62, 93
4, 2712, Note_off_c, 2, 62, 0
4, 2712, Note_on_c, 2, 66, 93
4, 2736, Note_off_c, 2, 66, 0
4, 2736, Note_on_c, 2, 64, 93
4, 2760, Note_off_c, 2, 64, 0
4, 2760, Note_on_c, 2, 66, 93
4, 2784, Note_off_c, 2, 66, 0
4, 2784, Note_on_c, 2, 69, 93
4, 2808, Note_off_c, 2, 69, 0
4, 2808, Note_on_c, 2, 66, 93
4, 2832, Note_off_c, 2, 66, 0
4, 2832, Note_on_c, 2, 62, 93
4, 2856, Note_off_c, 2, 62, 0
4, 2856, Note_on_c, 2, 59, 93
4, 2880, Note_off_c, 2, 59, 0
4, 2880, Note_on_c, 2, 52, 93
4, 2904, Note_off_c, 2, 52, 0
4, 2904, Note_on_c, 2, 55, 93
4, 2928, Note_off_c, 2, 55, 0
4, 2928, Note_on_c, 2, 54, 93
4, 2952, Note_off_c, 2, 54, 0
4, 2952, Note_on_c, 2, 55, 93
4, 2976, Note_off_c, 2, 55, 0
4, 2976, Note_on_c, 2, 59, 93
4, 3000, Note_off_c, 2, 59, 0
4, 3000, Note_on_c, 2, 64, 93
4, 3024, Note_off_c, 2, 64, 0
4, 3024, Note_on_c, 2, 63, 93
4, 3048, Note_off_c, 2, 63, 0
4, 3048, Note_on_c, 2, 64, 93
4, 3072, Note_off_c, 2, 64, 0
4, 3072, Note_on_c, 2, 67, 93
4, 3096, Note_off_c, 2, 67, 0
4, 3096, Note_on_c, 2, 64, 93
4, 3120, Note_off_c, 2, 64, 0
4, 3120, Note_on_c, 2, 59, 93
4, 3144, Note_off_c, 2, 59, 0
4, 3144, Note_on_c, 2, 55, 93
4, 3168, Note_off_c, 2, 55, 0
4, 3168, Note_on_c, 2, 57, 93
4, 3192, Note_off_c, 2, 57, 0
4, 3192, Note_on_c, 2, 64, 93
4, 3216, Note_off_c, 2, 64, 0
4, 3216, Note_on_c, 2, 62, 93
4, 3240, Note_off_c, 2, 62, 0
4, 3240, Note_on_c, 2, 64, 93
4, 3264, Note_off_c, 2, 64, 0
4, 3264, Note_on_c, 2, 67, 93
4, 3288, Note_off_c, 2, 67, 0
4, 3288, Note_on_c, 2, 69, 93
4, 3312, Note_off_c, 2, 69, 0
4, 3312, Note_on_c, 2, 67, 93
4, 3336, Note_off_c, 2, 67, 0
4, 3336, Note_on_c, 2, 69, 93
4, 3360, Note_off_c, 2, 69, 0
4, 3360, Note_on_c, 2, 67, 93
4, 3384, Note_off_c, 2, 67, 0
4, 3384, Note_on_c, 2, 64, 93
4, 3408, Note_off_c, 2, 64, 0
4, 3408, Note_on_c, 2, 61, 93
4, 3432, Note_off_c, 2, 61, 0
4, 3432, Note_on_c, 2, 57, 93
4, 3456, Note_off_c, 2, 57, 0
4, 3468, Note_on_c, 2, 54, 93
4, 3480, Note_off_c, 2, 54, 0
4, 3480, Note_on_c, 2, 55, 93
4, 3492, Note_off_c, 2, 55, 0
4, 3492, Note_on_c, 2, 54, 93
4, 3504, Note_off_c, 2, 54, 0
4, 3504, Note_on_c, 2, 55, 93
4, 3516, Note_off_c, 2, 55, 0
4, 3516, Note_on_c, 2, 54, 93
4, 3528, Note_off_c, 2, 54, 0
4, 3528, Note_on_c, 2, 55, 93
4, 3540, Note_off_c, 2, 55, 0
4, 3540, Note_on_c, 2, 54, 93
4, 3552, Note_off_c, 2, 54, 0
4, 3564, Note_on_c, 2, 54, 93
4, 3576, Note_off_c, 2, 54, 0
4, 3576, Note_on_c, 2, 55, 93
4, 3588, Note_off_c, 2, 55, 0
4, 3588, Note_on_c, 2, 54, 93
4, 3600, Note_off_c, 2, 54, 0
4, 3600, Note_on_c, 2, 55, 93
4, 3612, Note_off_c, 2, 55, 0
4, 3612, Note_on_c, 2, 54, 93
4, 3624, Note_off_c, 2, 54, 0
4, 3624, Note_on_c, 2, 55, 93
4, 3636, Note_off_c, 2, 55, 0
4, 3636, Note_on_c, 2, 54, 93
4, 3648, Note_off_c, 2, 54, 0
4, 3660, Note_on_c, 2, 54, 93
4, 3672, Note_off_c, 2, 54, 0
4, 3672, Note_on_c, 2, 55, 93
4, 3684, Note_off_c, 2, 55, 0
4, 3684, Note_on_c, 2, 54, 93
4, 3696, Note_off_c, 2, 54, 0
4, 3696, Note_on_c, 2, 55, 93
4, 3708, Note_off_c, 2, 55, 0
4, 3708, Note_on_c, 2, 54, 93
4, 3720, Note_off_c, 2, 54, 0
4, 3720, Note_on_c, 2, 55, 93
4, 3732, Note_off_c, 2, 55, 0
4, 3732, Note_on_c, 2, 54, 93
4, 3744, Note_off_c, 2, 54, 0
4, 3756, Note_on_c, 2, 54, 93
4, 3768, Note_off_c, 2, 54, 0
4, 3768, Note_on_c, 2, 55, 93
4, 3780, Note_off_c, 2, 55, 0
4, 3780, Note_on_c, 2, 54, 93
4, 3792, Note_off_c, 2, 54, 0
4, 3792, Note_on_c, 2, 55, 93
4, 3804, Note_off_c, 2, 55, 0
4, 3804, Note_on_c, 2, 54, 93
4, 3816, Note_off_c, 2, 54, 0
4, 3816, Note_on_c, 2, 55, 93
4, 3828, Note_off_c, 2, 55, 0
4, 3828, Note_on_c, 2, 54, 93
4, 3840, Note_off_c, 2, 54, 0
4, 3852, Note_on_c, 2, 54, 93
4, 3864, Note_off_c, 2, 54, 0
4, 3864, Note_on_c, 2, 55, 93
4, 3876, Note_off_c, 2, 55, 0
4, 3876, Note_on_c, 2, 54, 93
4, 3888, Note_off_c, 2, 54, 0
4, 3888, Note_on_c, 2, 55, 93
4, 3900, Note_off_c, 2, 55, 0
4, 3900, Note_on_c, 2, 54, 93
4, 3912, Note_off_c, 2, 54, 0
4, 3912, Note_on_c, 2, 55, 93
4, 3924, Note_off_c, 2, 55, 0
4, 3924, Note_on_c, 2, 54, 93
4, 3936, Note_off_c, 2, 54, 0
4, 3948, Note_on_c, 2, 54, 93
4, 3960, Note_off_c, 2, 54, 0
4, 3960, Note_on_c, 2, 55, 93
4, 3972, Note_off_c, 2, 55, 0
4, 3972, Note_on_c, 2, 54, 93
4, 3984, Note_off_c, 2, 54, 0
4, 3984, Note_on_c, 2, 55, 93
4, 3996, Note_off_c, 2, 55, 0
4, 3996, Note_on_c, 2, 54, 93
4, 4008, Note_off_c, 2, 54, 0
4, 4008, Note_on_c, 2, 55, 93
4, 4020, Note_off_c, 2, 55, 0
4, 4020, Note_on_c, 2, 54, 93
4, 4032, Note_off_c, 2, 54, 0
4, 4044, Note_on_c, 2, 54, 93
4, 4056, Note_off_c, 2, 54, 0
4, 4056, Note_on_c, 2, 55, 93
4, 4068, Note_off_c, 2, 55, 0
4, 4068, Note_on_c, 2, 54, 93
4, 4080, Note_off_c, 2, 54, 0
4, 4080, Note_on_c, 2, 55, 93
4, 4092, Note_off_c, 2, 55, 0
4, 4092, Note_on_c, 2, 54, 93
4, 4104, Note_off_c, 2, 54, 0
4, 4104, Note_on_c, 2, 55, 93
4, 4116, Note_off_c, 2, 55, 0
4, 4116, Note_on_c, 2, 54, 93
4, 4128, Note_off_c, 2, 54, 0
4, 4140, Note_on_c, 2, 54, 93
4, 4152, Note_off_c, 2, 54, 0
4, 4152, Note_on_c, 2, 55, 93
4, 4164, Note_off_c, 2, 55, 0
4, 4164, Note_on_c, 2, 54, 93
4, 4176, Note_off_c, 2, 54, 0
4, 4176, Note_on_c, 2, 55, 93
4, 4188, Note_off_c, 2, 55, 0
4, 4188, Note_on_c, 2, 54, 93
4, 4200, Note_off_c, 2, 54, 0
4, 4200, Note_on_c, 2, 55, 93
4, 4212, Note_off_c, 2, 55, 0
4, 4212, Note_on_c, 2, 54, 93
4, 4224, Note_off_c, 2, 54, 0
4, 4236, Note_on_c, 2, 52, 93
4, 4248, Note_off_c, 2, 52, 0
4, 4248, Note_on_c, 2, 54, 93
4, 4260, Note_off_c, 2, 54, 0
4, 4260, Note_on_c, 2, 52, 93
4, 4272, Note_off_c, 2, 52, 0
4, 4272, Note_on_c, 2, 54, 93
4, 4284, Note_off_c, 2, 54, 0
4, 4284, Note_on_c, 2, 52, 93
4, 4296, Note_off_c, 2, 52, 0
4, 4296, Note_on_c, 2, 54, 93
4, 4308, Note_off_c, 2, 54, 0
4, 4308, Note_on_c, 2, 52, 93
4, 4320, Note_off_c, 2, 52, 0
4, 4320, Note_on_c, 2, 38, 93
4, 4344, Note_off_c, 2, 38, 0
4, 4344, Note_on_c, 2, 42, 93
4, 4368, Note_off_c, 2, 42, 0
4, 4368, Note_on_c, 2, 40, 93
4, 4392, Note_off_c, 2, 40, 0
4, 4392, Note_on_c, 2, 42, 93
4, 4416, Note_off_c, 2, 42, 0
4, 4416, Note_on_c, 2, 45, 93
4, 4440, Note_off_c, 2, 45, 0
4, 4440, Note_on_c, 2, 50, 93
4, 4464, Note_off_c, 2, 50, 0
4, 4464, Note_on_c, 2, 49, 93
4, 4488, Note_off_c, 2, 49, 0
4, 4488, Note_on_c, 2, 50, 93
4, 4512, Note_off_c, 2, 50, 0
4, 4512, Note_on_c, 2, 54, 93
4, 4608, Note_off_c, 2, 54, 0
4, 5772, Note_on_c, 2, 67, 93
4, 5784, Note_off_c, 2, 67, 0
4, 5784, Note_on_c, 2, 69, 93
4, 5796, Note_off_c, 2, 69, 0
4, 5796, Note_on_c, 2, 67, 93
4, 5808, Note_off_c, 2, 67, 0
4, 5808, Note_on_c, 2, 69, 93
4, 5820, Note_off_c, 2, 69, 0
4, 5820, Note_on_c, 2, 67, 93
4, 5832, Note_off_c, 2, 67, 0
4, 5832, Note_on_c, 2, 69, 93
4, 5844, Note_off_c, 2, 69, 0
4, 5844, Note_on_c, 2, 67, 93
4, 5856, Note_off_c, 2, 67, 0
4, 5868, Note_on_c, 2, 67, 93
4, 5880, Note_off_c, 2, 67, 0
4, 5880, Note_on_c, 2, 69, 93
4, 5892, Note_off_c, 2, 69, 0
4, 5892, Note_on_c, 2, 67, 93
4, 5904, Note_off_c, 2, 67, 0
4, 5904, Note_on_c, 2, 69, 93
4, 5916, Note_off_c, 2, 69, 0
4, 5916, Note_on_c, 2, 67, 93
4, 5928, Note_off_c, 2, 67, 0
4, 5928, Note_on_c, 2, 69, 93
4, 5940, Note_off_c, 2, 69, 0
4, 5940, Note_on_c, 2, 67, 93
4, 5952, Note_off_c, 2, 67, 0
4, 5964, Note_on_c, 2, 67, 93
4, 5976, Note_off_c, 2, 67, 0
4, 5976, Note_on_c, 2, 69, 93
4, 5988, Note_off_c, 2, 69, 0
4, 5988, Note_on_c, 2, 67, 93
4, 6000, Note_off_c, 2, 67, 0
4, 6000, Note_on_c, 2, 69, 93
4, 6012, Note_off_c, 2, 69, 0
4, 6012, Note_on_c, 2, 67, 93
4, 6024, Note_off_c, 2, 67, 0
4, 6024, Note_on_c, 2, 69, 93
4, 6036, Note_off_c, 2, 69, 0
4, 6036, Note_on_c, 2, 67, 93
4, 6048, Note_off_c, 2, 67, 0
4, 6060, Note_on_c, 2, 67, 93
4, 6072, Note_off_c, 2, 67, 0
4, 6072, Note_on_c, 2, 69, 93
4, 6084, Note_off_c, 2, 69, 0
4, 6084, Note_on_c, 2, 67, 93
4, 6096, Note_off_c, 2, 67, 0
4, 6096, Note_on_c, 2, 69, 93
4, 6108, Note_off_c, 2, 69, 0
4, 6108, Note_on_c, 2, 67, 93
4, 6120, Note_off_c, 2, 67, 0
4, 6120, Note_on_c, 2, 69, 93
4, 6132, Note_off_c, 2, 69, 0
4, 6132, Note_on_c, 2, 67, 93
4, 6144, Note_off_c, 2, 67, 0
4, 6156, Note_on_c, 2, 67, 93
4, 6168, Note_off_c, 2, 67, 0
4, 6168, Note_on_c, 2, 69, 93
4, 6180, Note_off_c, 2, 69, 0
4, 6180, Note_on_c, 2, 67, 93
4, 6192, Note_off_c, 2, 67, 0
4, 6192, Note_on_c, 2, 69, 93
4, 6204, Note_off_c, 2, 69, 0
4, 6204, Note_on_c, 2, 67, 93
4, 6216, Note_off_c, 2, 67, 0
4, 6216, Note_on_c, 2, 69, 93
4, 6228, Note_off_c, 2, 69, 0
4, 6228, Note_on_c, 2, 67, 93
4, 6240, Note_off_c, 2, 67, 0
4, 6252, Note_on_c, 2, 67, 93
4, 6264, Note_off_c, 2, 67, 0
4, 6264, Note_on_c, 2, 69, 93
4, 6276, Note_off_c, 2, 69, 0
4, 6276, Note_on_c, 2, 67, 93
4, 6288, Note_off_c, 2, 67, 0
4, 6288, Note_on_c, 2, 69, 93
4, 6300, Note_off_c, 2, 69, 0
4, 6300, Note_on_c, 2, 67, 93
4, 6312, Note_off_c, 2, 67, 0
4, 6312, Note_on_c, 2, 69, 93
4, 6324, Note_off_c, 2, 69, 0
4, 6324, Note_on_c, 2, 67, 93
4, 6336, Note_off_c, 2, 67, 0
4, 6348, Note_on_c, 2, 67, 93
4, 6360, Note_off_c, 2, 67, 0
4, 6360, Note_on_c, 2, 69, 93
4, 6372, Note_off_c, 2, 69, 0
4, 6372, Note_on_c, 2, 67, 93
4, 6384, Note_off_c, 2, 67, 0
4, 6384, Note_on_c, 2, 69, 93
4, 6396, Note_off_c, 2, 69, 0
4, 6396, Note_on_c, 2, 67, 93
4, 6408, Note_off_c, 2, 67, 0
4, 6408, Note_on_c, 2, 69, 93
4, 6420, Note_off_c, 2, 69, 0
4, 6420, Note_on_c, 2, 67, 93
4, 6432, Note_off_c, 2, 67, 0
4, 6444, Note_on_c, 2, 67, 93
4, 6456, Note_off_c, 2, 67, 0
4, 6456, Note_on_c, 2, 69, 93
4, 6468, Note_off_c, 2, 69, 0
4, 6468, Note_on_c, 2, 67, 93
4, 6480, Note_off_c, 2, 67, 0
4, 6480, Note_on_c, 2, 69, 93
4, 6492, Note_off_c, 2, 69, 0
4, 6492, Note_on_c, 2, 67, 93
4, 6504, Note_off_c, 2, 67, 0
4, 6504, Note_on_c, 2, 69, 93
4, 6516, Note_off_c, 2, 69, 0
4, 6516, Note_on_c, 2, 67, 93
4, 6528, Note_off_c, 2, 67, 0
4, 6540, Note_on_c, 2, 67, 93
4, 6552, Note_off_c, 2, 67, 0
4, 6552, Note_on_c, 2, 69, 93
4, 6564, Note_off_c, 2, 69, 0
4, 6564, Note_on_c, 2, 67, 93
4, 6576, Note_off_c, 2, 67, 0
4, 6576, Note_on_c, 2, 69, 93
4, 6588, Note_off_c, 2, 69, 0
4, 6588, Note_on_c, 2, 67, 93
4, 6600, Note_off_c, 2, 67, 0
4, 6600, Note_on_c, 2, 69, 93
4, 6612, Note_off_c, 2, 69, 0
4, 6612, Note_on_c, 2, 67, 93
4, 6624, Note_off_c, 2, 67, 0
4, 6636, Note_on_c, 2, 67, 93
4, 6648, Note_off_c, 2, 67, 0
4, 6648, Note_on_c, 2, 69, 93
4, 6660, Note_off_c, 2, 69, 0
4, 6660, Note_on_c, 2, 67, 93
4, 6672, Note_off_c, 2, 67, 0
4, 6672, Note_on_c, 2, 69, 93
4, 6684, Note_off_c, 2, 69, 0
4, 6684, Note_on_c, 2, 67, 93
4, 6696, Note_off_c, 2, 67, 0
4, 6696, Note_on_c, 2, 69, 93
4, 6708, Note_off_c, 2, 69, 0
4, 6708, Note_on_c, 2, 67, 93
4, 6720, Note_off_c, 2, 67, 0
4, 6732, Note_on_c, 2, 67, 93
4, 6744, Note_off_c, 2, 67, 0
4, 6744, Note_on_c, 2, 69, 93
4, 6756, Note_off_c, 2, 69, 0
4, 6756, Note_on_c, 2, 67, 93
4, 6768, Note_off_c, 2, 67, 0
4, 6768, Note_on_c, 2, 69, 93
4, 6780, Note_off_c, 2, 69, 0
4, 6780, Note_on_c, 2, 67, 93
4, 6792, Note_off_c, 2, 67, 0
4, 6792, Note_on_c, 2, 69, 93
4, 6804, Note_off_c, 2, 69, 0
4, 6804, Note_on_c, 2, 67, 93
4, 6816, Note_off_c, 2, 67, 0
4, 6828, Note_on_c, 2, 67, 93
4, 6840, Note_off_c, 2, 67, 0
4, 6840, Note_on_c, 2, 69, 93
4, 6852, Note_off_c, 2, 69, 0
4, 6852, Note_on_c, 2, 67, 93
4, 6864, Note_off_c, 2, 67, 0
4, 6864, Note_on_c, 2, 69, 93
4, 6876, Note_off_c, 2, 69, 0
4, 6876, Note_on_c, 2, 67, 93
4, 6888, Note_off_c, 2, 67, 0
4, 6888, Note_on_c, 2, 69, 93
4, 6900, Note_off_c, 2, 69, 0
4, 6900, Note_on_c, 2, 67, 93
4, 6912, Note_off_c, 2, 67, 0
4, 6912, Note_on_c, 2, 55, 93
4, 6936, Note_off_c, 2, 55, 0
4, 6936, Note_on_c, 2, 59, 93
4, 6960, Note_off_c, 2, 59, 0
4, 6960, Note_on_c, 2, 57, 93
4, 6984, Note_off_c, 2, 57, 0
4, 6984, Note_on_c, 2, 59, 93
4, 7008, Note_off_c, 2, 59, 0
4, 7008, Note_on_c, 2, 64, 93
4, 7032, Note_off_c, 2, 64, 0
4, 7032, Note_on_c, 2, 67, 93
4, 7056, Note_off_c, 2, 67, 0
4, 7056, Note_on_c, 2, 66, 93
4, 7080, Note_off_c, 2, 66, 0
4, 7080, Note_on_c, 2, 67, 93
4, 7104, Note_off_c, 2, 67, 0
4, 7104, Note_on_c, 2, 71, 93
4, 7128, Note_off_c, 2, 71, 0
4, 7128, Note_on_c, 2, 67, 93
4, 7152, Note_off_c, 2, 67, 0
4, 7152, Note_on_c, 2, 64, 93
4, 7176, Note_off_c, 2, 64, 0
4, 7176, Note_on_c, 2, 61, 93
4, 7200, Note_off_c, 2, 61, 0
4, 7200, Note_on_c, 2, 54, 93
4, 7224, Note_off_c, 2, 54, 0
4, 7224, Note_on_c, 2, 57, 93
4, 7248, Note_off_c, 2, 57, 0
4, 7248, Note_on_c, 2, 55, 93
4, 7272, Note_off_c, 2, 55, 0
4, 7272, Note_on_c, 2, 57, 93
4, 7296, Note_off_c, 2, 57, 0
4, 7296, Note_on_c, 2, 62, 93
4, 7320, Note_off_c, 2, 62, 0
4, 7320, Note_on_c, 2, 66, 93
4, 7344, Note_off_c, 2, 66, 0
4, 7344, Note_on_c, 2, 64, 93
4, 7368, Note_off_c, 2, 64, 0
4, 7368, Note_on_c, 2, 66, 93
4, 7392, Note_off_c, 2, 66, 0
4, 7392, Note_on_c, 2, 69, 93
4, 7416, Note_off_c, 2, 69, 0
4, 7416, Note_on_c, 2, 66, 93
4, 7440, Note_off_c, 2, 66, 0
4, 7440, Note_on_c, 2, 62, 93
4, 7464, Note_off_c, 2, 62, 0
4, 7464, Note_on_c, 2, 59, 93
4, 7488, Note_off_c, 2, 59, 0
4, 7488, Note_on_c, 2, 52, 93
4, 7512, Note_off_c, 2, 52, 0
4, 7512, Note_on_c, 2, 55, 93
4, 7536, Note_off_c, 2, 55, 0
4, 7536, Note_on_c, 2, 54, 93
4, 7560, Note_off_c, 2, 54, 0
4, 7560, Note_on_c, 2, 55, 93
4, 7584, Note_off_c, 2, 55, 0
4, 7584, Note_on_c, 2, 59, 93
4, 7608, Note_off_c, 2, 59, 0
4, 7608, Note_on_c, 2, 64, 93
4, 7632, Note_off_c, 2, 64, 0
4, 7632, Note_on_c, 2, 63, 93
4, 7656, Note_off_c, 2, 63, 0
4, 7656, Note_on_c, 2, 64, 93
4, 7680, Note_off_c, 2, 64, 0
4, 7680, Note_on_c, 2, 67, 93
4, 7704, Note_off_c, 2, 67, 0
4, 7704, Note_on_c, 2, 64, 93
4, 7728, Note_off_c, 2, 64, 0
4, 7728, Note_on_c, 2, 59, 93
4, 7752, Note_off_c, 2, 59, 0
4, 7752, Note_on_c, 2, 55, 93
4, 7776, Note_off_c, 2, 55, 0
4, 7776, Note_on_c, 2, 57, 93
4, 7800, Note_off_c, 2, 57, 0
4, 7800, Note_on_c, 2, 64, 93
4, 7824, Note_off_c, 2, 64, 0
4, 7824, Note_on_c, 2, 62, 93
4, 7848, Note_off_c, 2, 62, 0
4, 7848, Note_on_c, 2, 64, 93
4, 7872, Note_off_c, 2, 64, 0
4, 7872, Note_on_c, 2, 67, 93
4, 7896, Note_off_c, 2, 67, 0
4, 7896, Note_on_c, 2, 69, 93
4, 7920, Note_off_c, 2, 69, 0
4, 7920, Note_on_c, 2, 67, 93
4, 7944, Note_off_c, 2, 67, 0
4, 7944, Note_on_c, 2, 69, 93
4, 7968, Note_off_c, 2, 69, 0
4, 7968, Note_on_c, 2, 67, 93
4, 7992, Note_off_c, 2, 67, 0
4, 7992, Note_on_c, 2, 64, 93
4, 8016, Note_off_c, 2, 64, 0
4, 8016, Note_on_c, 2, 61, 93
4, 8040, Note_off_c, 2, 61, 0
4, 8040, Note_on_c, 2, 57, 93
4, 8064, Note_off_c, 2, 57, 0
4, 8076, Note_on_c, 2, 54, 93
4, 8088, Note_off_c, 2, 54, 0
4, 8088, Note_on_c, 2, 55, 93
4, 8100, Note_off_c, 2, 55, 0
4, 8100, Note_on_c, 2, 54, 93
4, 8112, Note_off_c, 2, 54, 0
4, 8112, Note_on_c, 2, 55, 93
4, 8124, Note_off_c, 2, 55, 0
4, 8124, Note_on_c, 2, 54, 93
4, 8136, Note_off_c, 2, 54, 0
4, 8136, Note_on_c, 2, 55, 93
4, 8148, Note_off_c, 2, 55, 0
4, 8148, Note_on_c, 2, 54, 93
4, 8160, Note_off_c, 2, 54, 0
4, 8172, Note_on_c, 2, 54, 93
4, 8184, Note_off_c, 2, 54, 0
4, 8184, Note_on_c, 2, 55, 93
4, 8196, Note_off_c, 2, 55, 0
4, 8196, Note_on_c, 2, 54, 93
4, 8208, Note_off_c, 2, 54, 0
4, 8208, Note_on_c, 2, 55, 93
4, 8220, Note_off_c, 2, 55, 0
4, 8220, Note_on_c, 2, 54, 93
4, 8232, Note_off_c, 2, 54, 0
4, 8232, Note_on_c, 2, 55, 93
4, 8244, Note_off_c, 2, 55, 0
4, 8244, Note_on_c, 2, 54, 93
4, 8256, Note_off_c, 2, 54, 0
4, 8268, Note_on_c, 2, 54, 93
4, 8280, Note_off_c, 2, 54, 0
4, 8280, Note_on_c, 2, 55, 93
4, 8292, Note_off_c, 2, 55, 0
4, 8292, Note_on_c, 2, 54, 93
4, 8304, Note_off_c, 2, 54, 0
4, 8304, Note_on_c, 2, 55, 93
4, 8316, Note_off_c, 2, 55, 0
4, 8316, Note_on_c, 2, 54, 93
4, 8328, Note_off_c, 2, 54, 0
4, 8328, Note_on_c, 2, 55, 93
4, 8340, Note_off_c, 2, 55, 0
4, 8340, Note_on_c, 2, 54, 93
4, 8352, Note_off_c, 2, 54, 0
4, 8364, Note_on_c, 2, 54, 93
4, 8376, Note_off_c, 2, 54, 0
4, 8376, Note_on_c, 2, 55, 93
4, 8388, Note_off_c, 2, 55, 0
4, 8388, Note_on_c, 2, 54, 93
4, 8400, Note_off_c, 2, 54, 0
4, 8400, Note_on_c, 2, 55, 93
4, 8412, Note_off_c, 2, 55, 0
4, 8412, Note_on_c, 2, 54, 93
4, 8424, Note_off_c, 2, 54, 0
4, 8424, Note_on_c, 2, 55, 93
4, 8436, Note_off_c, 2, 55, 0
4, 8436, Note_on_c, 2, 54, 93
4, 8448, Note_off_c, 2, 54, 0
4, 8460, Note_on_c, 2, 54, 93
4, 8472, Note_off_c, 2, 54, 0
4, 8472, Note_on_c, 2, 55, 93
4, 8484, Note_off_c, 2, 55, 0
4, 8484, Note_on_c, 2, 54, 93
4, 8496, Note_off_c, 2, 54, 0
4, 8496, Note_on_c, 2, 55, 93
4, 8508, Note_off_c, 2, 55, 0
4, 8508, Note_on_c, 2, 54, 93
4, 8520, Note_off_c, 2, 54, 0
4, 8520, Note_on_c, 2, 55, 93
4, 8532, Note_off_c, 2, 55, 0
4, 8532, Note_on_c, 2, 54, 93
4, 8544, Note_off_c, 2, 54, 0
4, 8556, Note_on_c, 2, 54, 93
4, 8568, Note_off_c, 2, 54, 0
4, 8568, Note_on_c, 2, 55, 93
4, 8580, Note_off_c, 2, 55, 0
4, 8580, Note_on_c, 2, 54, 93
4, 8592, Note_off_c, 2, 54, 0
4, 8592, Note_on_c, 2, 55, 93
4, 8604, Note_off_c, 2, 55, 0
4, 8604, Note_on_c, 2, 54, 93
4, 8616, Note_off_c, 2, 54, 0
4, 8616, Note_on_c, 2, 55, 93
4, 8628, Note_off_c, 2, 55, 0
4, 8628, Note_on_c, 2, 54, 93
4, 8640, Note_off_c, 2, 54, 0
4, 8652, Note_on_c, 2, 54, 93
4, 8664, Note_off_c, 2, 54, 0
4, 8664, Note_on_c, 2, 55, 93
4, 8676, Note_off_c, 2, 55, 0
4, 8676, Note_on_c, 2, 54, 93
4, 8688, Note_off_c, 2, 54, 0
4, 8688, Note_on_c, 2, 55, 93
4, 8700, Note_off_c, 2, 55, 0
4, 8700, Note_on_c, 2, 54, 93
4, 8712, Note_off_c, 2, 54, 0
4, 8712, Note_on_c, 2, 55, 93
4, 8724, Note_off_c, 2, 55, 0
4, 8724, Note_on_c, 2, 54, 93
4, 8736, Note_off_c, 2, 54, 0
4, 8748, Note_on_c, 2, 54, 93
4, 8760, Note_off_c, 2, 54, 0
4, 8760, Note_on_c, 2, 55, 93
4, 8772, Note_off_c, 2, 55, 0
4, 8772, Note_on_c, 2, 54, 93
4, 8784, Note_off_c, 2, 54, 0
4, 8784, Note_on_c, 2, 55, 93
4, 8796, Note_off_c, 2, 55, 0
4, 8796, Note_on_c, 2, 54, 93
4, 8808, Note_off_c, 2, 54, 0
4, 8808, Note_on_c, 2, 55, 93
4, 8820, Note_off_c, 2, 55, 0
4, 8820, Note_on_c, 2, 54, 93
4, 8832, Note_off_c, 2, 54, 0
4, 8844, Note_on_c, 2, 52, 93
4, 8856, Note_off_c, 2, 52, 0
4, 8856, Note_on_c, 2, 54, 93
4, 8868, Note_off_c, 2, 54, 0
4, 8868, Note_on_c, 2, 52, 93
4, 8880, Note_off_c, 2, 52, 0
4, 8880, Note_on_c, 2, 54, 93
4, 8892, Note_off_c, 2, 54, 0
4, 8892, Note_on_c, 2, 52, 93
4, 8904, Note_off_c, 2, 52, 0
4, 8904, Note_on_c, 2, 54, 93
4, 8916, Note_off_c, 2, 54, 0
4, 8916, Note_on_c, 2, 52, 93
4, 8928, Note_off_c, 2, 52, 0
4, 8928, Note_on_c, 2, 38, 93
4, 8952, Note_off_c, 2, 38, 0
4, 8952, Note_on_c, 2, 42, 93
4, 8976, Note_off_c, 2, 42, 0
4, 8976, Note_on_c, 2, 40, 93
4, 9000, Note_off_c, 2, 40, 0
4, 9000, Note_on_c, 2, 42, 93
4, 9024, Note_off_c, 2, 42, 0
4, 9024, Note_on_c, 2, 45, 93
4, 9048, Note_off_c, 2, 45, 0
4, 9048, Note_on_c, 2, 50, 93
4, 9072, Note_off_c, 2, 50, 0
4, 9072, Note_on_c, 2, 49, 93
4, 9096, Note_off_c, 2, 49, 0
4, 9096, Note_on_c, 2, 50, 93
4, 9120, Note_off_c, 2, 50, 0
4, 9120, Note_on_c, 2, 54, 93
4, 9216, Note_off_c, 2, 54, 0
4, 9216, Note_on_c, 2, 62, 93
4, 9264, Note_off_c, 2, 62, 0
4, 9264, Note_on_c, 2, 52, 93
4, 9312, Note_off_c, 2, 52, 0
4, 9312, Note_on_c, 2, 54, 93
4, 9360, Note_off_c, 2, 54, 0
4, 9360, Note_on_c, 2, 60, 93
4, 9408, Note_off_c, 2, 60, 0
4, 9408, Note_on_c, 2, 50, 93
4, 9456, Note_off_c, 2, 50, 0
4, 9456, Note_on_c, 2, 66, 93
4, 9504, Note_off_c, 2, 66, 0
4, 9504, Note_on_c, 2, 67, 93
4, 9552, Note_off_c, 2, 67, 0
4, 9552, Note_on_c, 2, 57, 93
4, 9600, Note_off_c, 2, 57, 0
4, 9600, Note_on_c, 2, 59, 93
4, 9648, Note_off_c, 2, 59, 0
4, 9648, Note_on_c, 2, 65, 93
4, 9696, Note_off_c, 2, 65, 0
4, 9696, Note_on_c, 2, 55, 93
4, 9744, Note_off_c, 2, 55, 0
4, 9744, Note_on_c, 2, 71, 93
4, 9792, Note_off_c, 2, 71, 0
4, 9792, Note_on_c, 2, 72, 93
4, 9816, Note_off_c, 2, 72, 0
4, 9816, Note_on_c, 2, 67, 93
4, 9840, Note_off_c, 2, 67, 0
4, 9840, Note_on_c, 2, 65, 93
4, 9864, Note_off_c, 2, 65, 0
4, 9864, Note_on_c, 2, 67, 93
4, 9888, Note_off_c, 2, 67, 0
4, 9888, Note_on_c, 2, 64, 93
4, 9912, Note_off_c, 2, 64, 0
4, 9912, Note_on_c, 2, 60, 93
4, 9936, Note_off_c, 2, 60, 0
4, 9936, Note_on_c, 2, 59, 93
4, 9960, Note_off_c, 2, 59, 0
4, 9960, Note_on_c, 2, 60, 93
4, 9984, Note_off_c, 2, 60, 0
4, 9984, Note_on_c, 2, 57, 93
4, 10008, Note_off_c, 2, 57, 0
4, 10008, Note_on_c, 2, 60, 93
4, 10032, Note_off_c, 2, 60, 0
4, 10032, Note_on_c, 2, 64, 93
4, 10056, Note_off_c, 2, 64, 0
4, 10056, Note_on_c, 2, 69, 93
4, 10080, Note_off_c, 2, 69, 0
4, 10080, Note_on_c, 2, 63, 93
4, 10104, Note_off_c, 2, 63, 0
4, 10104, Note_on_c, 2, 59, 93
4, 10128, Note_off_c, 2, 59, 0
4, 10128, Note_on_c, 2, 58, 93
4, 10152, Note_off_c, 2, 58, 0
4, 10152, Note_on_c, 2, 59, 93
4, 10176, Note_off_c, 2, 59, 0
4, 10176, Note_on_c, 2, 54, 93
4, 10200, Note_off_c, 2, 54, 0
4, 10200, Note_on_c, 2, 51, 93
4, 10224, Note_off_c, 2, 51, 0
4, 10224, Note_on_c, 2, 49, 93
4, 10248, Note_off_c, 2, 49, 0
4, 10248, Note_on_c, 2, 51, 93
4, 10272, Note_off_c, 2, 51, 0
4, 10272, Note_on_c, 2, 47, 93
4, 10296, Note_off_c, 2, 47, 0
4, 10296, Note_on_c, 2, 51, 93
4, 10320, Note_off_c, 2, 51, 0
4, 10320, Note_on_c, 2, 54, 93
4, 10344, Note_off_c, 2, 54, 0
4, 10344, Note_on_c, 2, 57, 93
4, 10368, Note_off_c, 2, 57, 0
4, 10380, Note_on_c, 2, 64, 93
4, 10392, Note_off_c, 2, 64, 0
4, 10392, Note_on_c, 2, 66, 93
4, 10404, Note_off_c, 2, 66, 0
4, 10404, Note_on_c, 2, 64, 93
4, 10416, Note_off_c, 2, 64, 0
4, 10416, Note_on_c, 2, 66, 93
4, 10428, Note_off_c, 2, 66, 0
4, 10428, Note_on_c, 2, 64, 93
4, 10440, Note_off_c, 2, 64, 0
4, 10440, Note_on_c, 2, 66, 93
4, 10452, Note_off_c, 2, 66, 0
4, 10452, Note_on_c, 2, 64, 93
4, 10464, Note_off_c, 2, 64, 0
4, 10476, Note_on_c, 2, 64, 93
4, 10488, Note_off_c, 2, 64, 0
4, 10488, Note_on_c, 2, 66, 93
4, 10500, Note_off_c, 2, 66, 0
4, 10500, Note_on_c, 2, 64, 93
4, 10512, Note_off_c, 2, 64, 0
4, 10512, Note_on_c, 2, 66, 93
4, 10524, Note_off_c, 2, 66, 0
4, 10524, Note_on_c, 2, 64, 93
4, 10536, Note_off_c, 2, 64, 0
4, 10536, Note_on_c, 2, 66, 93
4, 10548, Note_off_c, 2, 66, 0
4, 10548, Note_on_c, 2, 64, 93
4, 10560, Note_off_c, 2, 64, 0
4, 10572, Note_on_c, 2, 64, 93
4, 10584, Note_off_c, 2, 64, 0
4, 10584, Note_on_c, 2, 66, 93
4, 10596, Note_off_c, 2, 66, 0
4, 10596, Note_on_c, 2, 64, 93
4, 10608, Note_off_c, 2, 64, 0
4, 10608, Note_on_c, 2, 66, 93
4, 10620, Note_off_c, 2, 66, 0
4, 10620, Note_on_c, 2, 64, 93
4, 10632, Note_off_c, 2, 64, 0
4, 10632, Note_on_c, 2, 66, 93
4, 10644, Note_off_c, 2, 66, 0
4, 10644, Note_on_c, 2, 64, 93
4, 10656, Note_off_c, 2, 64, 0
4, 10668, Note_on_c, 2, 64, 93
4, 10680, Note_off_c, 2, 64, 0
4, 10680, Note_on_c, 2, 66, 93
4, 10692, Note_off_c, 2, 66, 0
4, 10692, Note_on_c, 2, 64, 93
4, 10704, Note_off_c, 2, 64, 0
4, 10704, Note_on_c, 2, 66, 93
4, 10716, Note_off_c, 2, 66, 0
4, 10716, Note_on_c, 2, 64, 93
4, 10728, Note_off_c, 2, 64, 0
4, 10728, Note_on_c, 2, 66, 93
4, 10740, Note_off_c, 2, 66, 0
4, 10740, Note_on_c, 2, 64, 93
4, 10752, Note_off_c, 2, 64, 0
4, 10764, Note_on_c, 2, 64, 93
4, 10776, Note_off_c, 2, 64, 0
4, 10776, Note_on_c, 2, 66, 93
4, 10788, Note_off_c, 2, 66, 0
4, 10788, Note_on_c, 2, 64, 93
4, 10800, Note_off_c, 2, 64, 0
4, 10800, Note_on_c, 2, 66, 93
4, 10812, Note_off_c, 2, 66, 0
4, 10812, Note_on_c, 2, 64, 93
4, 10824, Note_off_c, 2, 64, 0
4, 10824, Note_on_c, 2, 66, 93
4, 10836, Note_off_c, 2, 66, 0
4, 10836, Note_on_c, 2, 64, 93
4, 10848, Note_off_c, 2, 64, 0
4, 10860, Note_on_c, 2, 64, 93
4, 10872, Note_off_c, 2, 64, 0
4, 10872, Note_on_c, 2, 66, 93
4, 10884, Note_off_c, 2, 66, 0
4, 10884, Note_on_c, 2, 64, 93
4, 10896, Note_off_c, 2, 64, 0
4, 10896, Note_on_c, 2, 66, 93
4, 10908, Note_off_c, 2, 66, 0
4, 10908, Note_on_c, 2, 64, 93
4, 10920, Note_off_c, 2, 64, 0
4, 10920, Note_on_c, 2, 66, 93
4, 10932, Note_off_c, 2, 66, 0
4, 10932, Note_on_c, 2, 64, 93
4, 10944, Note_off_c, 2, 64, 0
4, 10956, Note_on_c, 2, 64, 93
4, 10968, Note_off_c, 2, 64, 0
4, 10968, Note_on_c, 2, 66, 93
4, 10980, Note_off_c, 2, 66, 0
4, 10980, Note_on_c, 2, 64, 93
4, 10992, Note_off_c, 2, 64, 0
4, 10992, Note_on_c, 2, 66, 93
4, 11004, Note_off_c, 2, 66, 0
4, 11004, Note_on_c, 2, 64, 93
4, 11016, Note_off_c, 2, 64, 0
4, 11016, Note_on_c, 2, 66, 93
4, 11028, Note_off_c, 2, 66, 0
4, 11028, Note_on_c, 2, 64, 93
4, 11040, Note_off_c, 2, 64, 0
4, 11052, Note_on_c, 2, 64, 93
4, 11064, Note_off_c, 2, 64, 0
4, 11064, Note_on_c, 2, 66, 93
4, 11076, Note_off_c, 2, 66, 0
4, 11076, Note_on_c, 2, 64, 93
4, 11088, Note_off_c, 2, 64, 0
4, 11088, Note_on_c, 2, 66, 93
4, 11100, Note_off_c, 2, 66, 0
4, 11100, Note_on_c, 2, 64, 93
4, 11112, Note_off_c, 2, 64, 0
4, 11112, Note_on_c, 2, 66, 93
4, 11124, Note_off_c, 2, 66, 0
4, 11124, Note_on_c, 2, 64, 93
4, 11136, Note_off_c, 2, 64, 0
4, 11148, Note_on_c, 2, 63, 93
4, 11160, Note_off_c, 2, 63, 0
4, 11160, Note_on_c, 2, 64, 93
4, 11172, Note_off_c, 2, 64, 0
4, 11172, Note_on_c, 2, 63, 93
4, 11184, Note_off_c, 2, 63, 0
4, 11184, Note_on_c, 2, 64, 93
4, 11196, Note_off_c, 2, 64, 0
4, 11196, Note_on_c, 2, 63, 93
4, 11208, Note_off_c, 2, 63, 0
4, 11208, Note_on_c, 2, 64, 93
4, 11220, Note_off_c, 2, 64, 0
4, 11220, Note_on_c, 2, 63, 93
4, 11232, Note_off_c, 2, 63, 0
4, 13824, Note_on_c, 2, 62, 93
4, 13872, Note_off_c, 2, 62, 0
4, 13872, Note_on_c, 2, 52, 93
4, 13920, Note_off_c, 2, 52, 0
4, 13920, Note_on_c, 2, 54, 93
4, 13968, Note_off_c, 2, 54, 0
4, 13968, Note_on_c, 2, 60, 93
4, 14016, Note_off_c, 2, 60, 0
4, 14016, Note_on_c, 2, 50, 93
4, 14064, Note_off_c, 2, 50, 0
4, 14064, Note_on_c, 2, 66, 93
4, 14112, Note_off_c, 2, 66, 0
4, 14112, Note_on_c, 2, 67, 93
4, 14160, Note_off_c, 2, 67, 0
4, 14160, Note_on_c, 2, 57, 93
4, 14208, Note_off_c, 2, 57, 0
4, 14208, Note_on_c, 2, 59, 93
4, 14256, Note_off_c, 2, 59, 0
4, 14256, Note_on_c, 2, 65, 93
4, 14304, Note_off_c, 2, 65, 0
4, 14304, Note_on_c, 2, 55, 93
4, 14352, Note_off_c, 2, 55, 0
4, 14352, Note_on_c, 2, 71, 93
4, 14400, Note_off_c, 2, 71, 0
4, 14400, Note_on_c, 2, 72, 93
4, 14424, Note_off_c, 2, 72, 0
4, 14424, Note_on_c, 2, 67, 93
4, 14448, Note_off_c, 2, 67, 0
4, 14448, Note_on_c, 2, 65, 93
4, 14472, Note_off_c, 2, 65, 0
4, 14472, Note_on_c, 2, 67, 93
4, 14496, Note_off_c, 2, 67, 0
4, 14496, Note_on_c, 2, 64, 93
4, 14520, Note_off_c, 2, 64, 0
4, 14520, Note_on_c, 2, 60, 93
4, 14544, Note_off_c, 2, 60, 0
4, 14544, Note_on_c, 2, 59, 93
4, 14568, Note_off_c, 2, 59, 0
4, 14568, Note_on_c, 2, 60, 93
4, 14592, Note_off_c, 2, 60, 0
4, 14592, Note_on_c, 2, 57, 93
4, 14616, Note_off_c, 2, 57, 0
4, 14616, Note_on_c, 2, 60, 93
4, 14640, Note_off_c, 2, 60, 0
4, 14640, Note_on_c, 2, 64, 93
4, 14664, Note_off_c, 2, 64, 0
4, 14664, Note_on_c, 2, 69, 93
4, 14688, Note_off_c, 2, 69, 0
4, 14688, Note_on_c, 2, 63, 93
4, 14712, Note_off_c, 2, 63, 0
4, 14712, Note_on_c, 2, 59, 93
4, 14736, Note_off_c, 2, 59, 0
4, 14736, Note_on_c, 2, 58, 93
4, 14760, Note_off_c, 2, 58, 0
4, 14760, Note_on_c, 2, 59, 93
4, 14784, Note_off_c, 2, 59, 0
4, 14784, Note_on_c, 2, 54, 93
4, 14808, Note_off_c, 2, 54, 0
4, 14808, Note_on_c, 2, 51, 93
4, 14832, Note_off_c, 2, 51, 0
4, 14832, Note_on_c, 2, 49, 93
4, 14856, Note_off_c, 2, 49, 0
4, 14856, Note_on_c, 2, 51, 93
4, 14880, Note_off_c, 2, 51, 0
4, 14880, Note_on_c, 2, 47, 93
4, 14904, Note_off_c, 2, 47, 0
4, 14904, Note_on_c, 2, 51, 93
4, 14928, Note_off_c, 2, 51, 0
4, 14928, Note_on_c, 2, 54, 93
4, 14952, Note_off_c, 2, 54, 0
4, 14952, Note_on_c, 2, 57, 93
4, 14976, Note_off_c, 2, 57, 0
4, 14988, Note_on_c, 2, 64, 93
4, 15000, Note_off_c, 2, 64, 0
4, 15000, Note_on_c, 2, 66, 93
4, 15012, Note_off_c, 2, 66, 0
4, 15012, Note_on_c, 2, 64, 93
4, 15024, Note_off_c, 2, 64, 0
4, 15024, Note_on_c, 2, 66, 93
4, 15036, Note_off_c, 2, 66, 0
4, 15036, Note_on_c, 2, 64, 93
4, 15048, Note_off_c, 2, 64, 0
4, 15048, Note_on_c, 2, 66, 93
4, 15060, Note_off_c, 2, 66, 0
4, 15060, Note_on_c, 2, 64, 93
4, 15072, Note_off_c, 2, 64, 0
4, 15084, Note_on_c, 2, 64, 93
4, 15096, Note_off_c, 2, 64, 0
4, 15096, Note_on_c, 2, 66, 93
4, 15108, Note_off_c, 2, 66, 0
4, 15108, Note_on_c, 2, 64, 93
4, 15120, Note_off_c, 2, 64, 0
4, 15120, Note_on_c, 2, 66, 93
4, 15132, Note_off_c, 2, 66, 0
4, 15132, Note_on_c, 2, 64, 93
4, 15144, Note_off_c, 2, 64, 0
4, 15144, Note_on_c, 2, 66, 93
4, 15156, Note_off_c, 2, 66, 0
4, 15156, Note_on_c, 2, 64, 93
4, 15168, Note_off_c, 2, 64, 0
4, 15180, Note_on_c, 2, 64, 93
4, 15192, Note_off_c, 2, 64, 0
4, 15192, Note_on_c, 2, 66, 93
4, 15204, Note_off_c, 2, 66, 0
4, 15204, Note_on_c, 2, 64, 93
4, 15216, Note_off_c, 2, 64, 0
4, 15216, Note_on_c, 2, 66, 93
4, 15228, Note_off_c, 2, 66, 0
4, 15228, Note_on_c, 2, 64, 93
4, 15240, Note_off_c, 2, 64, 0
4, 15240, Note_on_c, 2, 66, 93
4, 15252, Note_off_c, 2, 66, 0
4, 15252, Note_on_c, 2, 64, 93
4, 15264, Note_off_c, 2, 64, 0
4, 15276, Note_on_c, 2, 64, 93
4, 15288, Note_off_c, 2, 64, 0
4, 15288, Note_on_c, 2, 66, 93
4, 15300, Note_off_c, 2, 66, 0
4, 15300, Note_on_c, 2, 64, 93
4, 15312, Note_off_c, 2, 64, 0
4, 15312, Note_on_c, 2, 66, 93
4, 15324, Note_off_c, 2, 66, 0
4, 15324, Note_on_c, 2, 64, 93
4, 15336, Note_off_c, 2, 64, 0
4, 15336, Note_on_c, 2, 66, 93
4, 15348, Note_off_c, 2, 66, 0
4, 15348, Note_on_c, 2, 64, 93
4, 15360, Note_off_c, 2, 64, 0
4, 15372, Note_on_c, 2, 64, 93
4, 15384, Note_off_c, 2, 64, 0
4, 15384, Note_on_c, 2, 66, 93
4, 15396, Note_off_c, 2, 66, 0
4, 15396, Note_on_c, 2, 64, 93
4, 15408, Note_off_c, 2, 64, 0
4, 15408, Note_on_c, 2, 66, 93
4, 15420, Note_off_c, 2, 66, 0
4, 15420, Note_on_c, 2, 64, 93
4, 15432, Note_off_c, 2, 64, 0
4, 15432, Note_on_c, 2, 66, 93
4, 15444, Note_off_c, 2, 66, 0
4, 15444, Note_on_c, 2, 64, 93
4, 15456, Note_off_c, 2, 64, 0
4, 15468, Note_on_c, 2, 64, 93
4, 15480, Note_off_c, 2, 64, 0
4, 15480, Note_on_c, 2, 66, 93
4, 15492, Note_off_c, 2, 66, 0
4, 15492, Note_on_c, 2, 64, 93
4, 15504, Note_off_c, 2, 64, 0
4, 15504, Note_on_c, 2, 66, 93
4, 15516, Note_off_c, 2, 66, 0
4, 15516, Note_on_c, 2, 64, 93
4, 15528, Note_off_c, 2, 64, 0
4, 15528, Note_on_c, 2, 66, 93
4, 15540, Note_off_c, 2, 66, 0
4, 15540, Note_on_c, 2, 64, 93
4, 15552, Note_off_c, 2, 64, 0
4, 15564, Note_on_c, 2, 64, 93
4, 15576, Note_off_c, 2, 64, 0
4, 15576, Note_on_c, 2, 66, 93
4, 15588, Note_off_c, 2, 66, 0
4, 15588, Note_on_c, 2, 64, 93
4, 15600, Note_off_c, 2, 64, 0
4, 15600, Note_on_c, 2, 66, 93
4, 15612, Note_off_c, 2, 66, 0
4, 15612, Note_on_c, 2, 64, 93
4, 15624, Note_off_c, 2, 64, 0
4, 15624, Note_on_c, 2, 66, 93
4, 15636, Note_off_c, 2, 66, 0
4, 15636, Note_on_c, 2, 64, 93
4, 15648, Note_off_c, 2, 64, 0
4, 15660, Note_on_c, 2, 64, 93
4, 15672, Note_off_c, 2, 64, 0
4, 15672, Note_on_c, 2, 66, 93
4, 15684, Note_off_c, 2, 66, 0
4, 15684, Note_on_c, 2, 64, 93
4, 15696, Note_off_c, 2, 64, 0
4, 15696, Note_on_c, 2, 66, 93
4, 15708, Note_off_c, 2, 66, 0
4, 15708, Note_on_c, 2, 64, 93
4, 15720, Note_off_c, 2, 64, 0
4, 15720, Note_on_c, 2, 66, 93
4, 15732, Note_off_c, 2, 66, 0
4, 15732, Note_on_c, 2, 64, 93
4, 15744, Note_off_c, 2, 64, 0
4, 15756, Note_on_c, 2, 63, 93
4, 15768, Note_off_c, 2, 63, 0
4, 15768, Note_on_c, 2, 64, 93
4, 15780, Note_off_c, 2, 64, 0
4, 15780, Note_on_c, 2, 63, 93
4, 15792, Note_off_c, 2, 63, 0
4, 15792, Note_on_c, 2, 64, 93
4, 15804, Note_off_c, 2, 64, 0
4, 15804, Note_on_c, 2, 63, 93
4, 15816, Note_off_c, 2, 63, 0
4, 15816, Note_on_c, 2, 64, 93
4, 15828, Note_off_c, 2, 64, 0
4, 15828, Note_on_c, 2, 63, 93
4, 15840, Note_off_c, 2, 63, 0
4, 15840, End_track
5, 0, Start_track
5, 0, Title_t, "Track5"
5, 0, Program_c, 3, 6
5, 0, Control_c, 3, 7, 100
5, 0, Control_c, 3, 10, 49
5, 0, Note_on_c, 3, 55, 93
5, 48, Note_off_c, 3, 55, 0
5, 48, Note_on_c, 3, 71, 93
5, 96, Note_off_c, 3, 71, 0
5, 96, Note_on_c, 3, 69, 93
5, 144, Note_off_c, 3, 69, 0
5, 144, Note_on_c, 3, 54, 93
5, 192, Note_off_c, 3, 54, 0
5, 192, Note_on_c, 3, 52, 93
5, 240, Note_off_c, 3, 52, 0
5, 240, Note_on_c, 3, 67, 93
5, 288, Note_off_c, 3, 67, 0
5, 288, Note_on_c, 3, 54, 93
5, 336, Note_off_c, 3, 54, 0
5, 336, Note_on_c, 3, 69, 93
5, 384, Note_off_c, 3, 69, 0
5, 384, Note_on_c, 3, 67, 93
5, 432, Note_off_c, 3, 67, 0
5, 432, Note_on_c, 3, 52, 93
5, 480, Note_off_c, 3, 52, 0
5, 480, Note_on_c, 3, 50, 93
5, 528, Note_off_c, 3, 50, 0
5, 528, Note_on_c, 3, 66, 93
5, 576, Note_off_c, 3, 66, 0
5, 576, Note_on_c, 3, 52, 93
5, 624, Note_off_c, 3, 52, 0
5, 624, Note_on_c, 3, 67, 93
5, 672, Note_off_c, 3, 67, 0
5, 672, Note_on_c, 3, 66, 93
5, 720, Note_off_c, 3, 66, 0
5, 720, Note_on_c, 3, 55, 93
5, 768, Note_off_c, 3, 55, 0
5, 768, Note_on_c, 3, 57, 93
5, 816, Note_off_c, 3, 57, 0
5, 816, Note_on_c, 3, 64, 93
5, 864, Note_off_c, 3, 64, 0
5, 864, Note_on_c, 3, 50, 93
5, 912, Note_off_c, 3, 50, 0
5, 912, Note_on_c, 3, 66, 93
5, 960, Note_off_c, 3, 66, 0
5, 960, Note_on_c, 3, 64, 93
5, 1008, Note_off_c, 3, 64, 0
5, 1008, Note_on_c, 3, 55, 93
5, 1056, Note_off_c, 3, 55, 0
5, 1056, Note_on_c, 3, 54, 93
5, 1104, Note_off_c, 3, 54, 0
5, 1104, Note_on_c, 3, 60, 93
5, 1152, Note_off_c, 3, 60, 0
5, 1152, Note_on_c, 3, 59, 93
5, 1176, Note_off_c, 3, 59, 0
5, 1248, Note_on_c, 3, 60, 93
5, 1272, Note_off_c, 3, 60, 0
5, 1344, Note_on_c, 3, 62, 93
5, 1368, Note_off_c, 3, 62, 0
5, 1440, Note_on_c, 3, 60, 93
5, 1464, Note_off_c, 3, 60, 0
5, 1536, Note_on_c, 3, 62, 93
5, 1560, Note_off_c, 3, 62, 0
5, 1632, Note_on_c, 3, 64, 93
5, 1656, Note_off_c, 3, 64, 0
5, 1728, Note_on_c, 3, 62, 93
5, 1752, Note_off_c, 3, 62, 0
5, 1824, Note_on_c, 3, 64, 93
5, 1848, Note_off_c, 3, 64, 0
5, 1920, Note_on_c, 3, 57, 93
5, 1944, Note_off_c, 3, 57, 0
5, 2016, Note_on_c, 3, 59, 93
5, 2040, Note_off_c, 3, 59, 0
5, 2112, Note_on_c, 3, 60, 93
5, 2136, Note_off_c, 3, 60, 0
5, 2208, Note_on_c, 3, 62, 93
5, 2232, Note_off_c, 3, 62, 0
5, 2304, Note_on_c, 3, 74, 93
5, 2328, Note_off_c, 3, 74, 0
5, 3456, Note_on_c, 3, 50, 93
5, 3480, Note_off_c, 3, 50, 0
5, 3552, Note_on_c, 3, 47, 93
5, 3576, Note_off_c, 3, 47, 0
5, 3648, Note_on_c, 3, 45, 93
5, 3672, Note_off_c, 3, 45, 0
5, 3744, Note_on_c, 3, 43, 93
5, 3768, Note_off_c, 3, 43, 0
5, 3840, Note_on_c, 3, 45, 93
5, 3864, Note_off_c, 3, 45, 0
5, 3936, Note_on_c, 3, 47, 93
5, 3960, Note_off_c, 3, 47, 0
5, 4032, Note_on_c, 3, 45, 93
5, 4056, Note_off_c, 3, 45, 0
5, 4128, Note_on_c, 3, 43, 93
5, 4152, Note_off_c, 3, 43, 0
5, 4224, Note_on_c, 3, 45, 93
5, 4248, Note_off_c, 3, 45, 0
5, 4608, Note_on_c, 3, 55, 93
5, 4656, Note_off_c, 3, 55, 0
5, 4656, Note_on_c, 3, 71, 93
5, 4704, Note_off_c, 3, 71, 0
5, 4704, Note_on_c, 3, 69, 93
5, 4752, Note_off_c, 3, 69, 0
5, 4752, Note_on_c, 3, 54, 93
5, 4800, Note_off_c, 3, 54, 0
5, 4800, Note_on_c, 3, 52, 93
5, 4848, Note_off_c, 3, 52, 0
5, 4848, Note_on_c, 3, 67, 93
5, 4896, Note_off_c, 3, 67, 0
5, 4896, Note_on_c, 3, 54, 93
5, 4944, Note_off_c, 3, 54, 0
5, 4944, Note_on_c, 3, 69, 93
5, 4992, Note_off_c, 3, 69, 0
5, 4992, Note_on_c, 3, 67, 93
5, 5040, Note_off_c, 3, 67, 0
5, 5040, Note_on_c, 3, 52, 93
5, 5088, Note_off_c, 3, 52, 0
5, 5088, Note_on_c, 3, 50, 93
5, 5136, Note_off_c, 3, 50, 0
5, 5136, Note_on_c, 3, 66, 93
5, 5184, Note_off_c, 3, 66, 0
5, 5184, Note_on_c, 3, 52, 93
5, 5232, Note_off_c, 3, 52, 0
5, 5232, Note_on_c, 3, 67, 93
5, 5280, Note_off_c, 3, 67, 0
5, 5280, Note_on_c, 3, 66, 93
5, 5328, Note_off_c, 3, 66, 0
5, 5328, Note_on_c, 3, 55, 93
5, 5376, Note_off_c, 3, 55, 0
5, 5376, Note_on_c, 3, 57, 93
5, 5424, Note_off_c, 3, 57, 0
5, 5424, Note_on_c, 3, 64, 93
5, 5472, Note_off_c, 3, 64, 0
5, 5472, Note_on_c, 3, 50, 93
5, 5520, Note_off_c, 3, 50, 0
5, 5520, Note_on_c, 3, 66, 93
5, 5568, Note_off_c, 3, 66, 0
5, 5568, Note_on_c, 3, 64, 93
5, 5616, Note_off_c, 3, 64, 0
5, 5616, Note_on_c, 3, 55, 93
5, 5664, Note_off_c, 3, 55, 0
5, 5664, Note_on_c, 3, 54, 93
5, 5712, Note_off_c, 3, 54, 0
5, 5712, Note_on_c, 3, 60, 93
5, 5760, Note_off_c, 3, 60, 0
5, 5760, Note_on_c, 3, 59, 93
5, 5784, Note_off_c, 3, 59, 0
5, 5856, Note_on_c, 3, 60, 93
5, 5880, Note_off_c, 3, 60, 0
5, 5952, Note_on_c, 3, 62, 93
5, 5976, Note_off_c, 3, 62, 0
5, 6048, Note_on_c, 3, 60, 93
5, 6072, Note_off_c, 3, 60, 0
5, 6144, Note_on_c, 3, 62, 93
5, 6168, Note_off_c, 3, 62, 0
5, 6240, Note_on_c, 3, 64, 93
5, 6264, Note_off_c, 3, 64, 0
5, 6336, Note_on_c, 3, 62, 93
5, 6360, Note_off_c, 3, 62, 0
5, 6432, Note_on_c, 3, 64, 93
5, 6456, Note_off_c, 3, 64, 0
5, 6528, Note_on_c, 3, 57, 93
5, 6552, Note_off_c, 3, 57, 0
5, 6624, Note_on_c, 3, 59, 93
5, 6648, Note_off_c, 3, 59, 0
5, 6720, Note_on_c, 3, 60, 93
5, 6744, Note_off_c, 3, 60, 0
5, 6816, Note_on_c, 3, 62, 93
5, 6840, Note_off_c, 3, 62, 0
5, 6912, Note_on_c, 3, 74, 93
5, 6936, Note_off_c, 3, 74, 0
5, 8064, Note_on_c, 3, 50, 93
5, 8088, Note_off_c, 3, 50, 0
5, 8160, Note_on_c, 3, 47, 93
5, 8184, Note_off_c, 3, 47, 0
5, 8256, Note_on_c, 3, 45, 93
5, 8280, Note_off_c, 3, 45, 0
5, 8352, Note_on_c, 3, 43, 93
5, 8376, Note_off_c, 3, 43, 0
5, 8448, Note_on_c, 3, 45, 93
5, 8472, Note_off_c, 3, 45, 0
5, 8544, Note_on_c, 3, 47, 93
5, 8568, Note_off_c, 3, 47, 0
5, 8640, Note_on_c, 3, 45, 93
5, 8664, Note_off_c, 3, 45, 0
5, 8736, Note_on_c, 3, 43, 93
5, 8760, Note_off_c, 3, 43, 0
5, 8832, Note_on_c, 3, 45, 93
5, 8856, Note_off_c, 3, 45, 0
5, 10368, Note_on_c, 3, 55, 93
5, 10392, Note_off_c, 3, 55, 0
5, 10464, Note_on_c, 3, 57, 93
5, 10488, Note_off_c, 3, 57, 0
5, 10560, Note_on_c, 3, 59, 93
5, 10584, Note_off_c, 3, 59, 0
5, 10656, Note_on_c, 3, 60, 93
5, 10680, Note_off_c, 3, 60, 0
5, 10752, Note_on_c, 3, 59, 93
5, 10776, Note_off_c, 3, 59, 0
5, 10848, Note_on_c, 3, 60, 93
5, 10872, Note_off_c, 3, 60, 0
5, 10944, Note_on_c, 3, 58, 93
5, 10968, Note_off_c, 3, 58, 0
5, 11040, Note_on_c, 3, 59, 93
5, 11064, Note_off_c, 3, 59, 0
5, 11136, Note_on_c, 3, 59, 93
5, 11160, Note_off_c, 3, 59, 0
5, 11232, Note_on_c, 3, 52, 93
5, 11256, Note_off_c, 3, 52, 0
5, 11256, Note_on_c, 3, 64, 93
5, 11280, Note_off_c, 3, 64, 0
5, 11280, Note_on_c, 3, 63, 93
5, 11304, Note_off_c, 3, 63, 0
5, 11304, Note_on_c, 3, 64, 93
5, 11328, Note_off_c, 3, 64, 0
5, 11328, Note_on_c, 3, 59, 93
5, 11352, Note_off_c, 3, 59, 0
5, 11352, Note_on_c, 3, 55, 93
5, 11376, Note_off_c, 3, 55, 0
5, 11376, Note_on_c, 3, 54, 93
5, 11400, Note_off_c, 3, 54, 0
5, 11400, Note_on_c, 3, 55, 93
5, 11424, Note_off_c, 3, 55, 0
5, 11424, Note_on_c, 3, 52, 93
5, 11448, Note_off_c, 3, 52, 0
5, 11448, Note_on_c, 3, 55, 93
5, 11472, Note_off_c, 3, 55, 0
5, 11472, Note_on_c, 3, 59, 93
5, 11496, Note_off_c, 3, 59, 0
5, 11496, Note_on_c, 3, 62, 93
5, 11520, Note_off_c, 3, 62, 0
5, 11520, Note_on_c, 3, 60, 93
5, 11544, Note_off_c, 3, 60, 0
5, 11616, Note_on_c, 3, 59, 93
5, 11640, Note_off_c, 3, 59, 0
5, 11712, Note_on_c, 3, 57, 93
5, 11736, Note_off_c, 3, 57, 0
5, 11808, Note_on_c, 3, 59, 93
5, 11832, Note_off_c, 3, 59, 0
5, 11904, Note_on_c, 3, 57, 93
5, 11928, Note_off_c, 3, 57, 0
5, 12000, Note_on_c, 3, 55, 93
5, 12024, Note_off_c, 3, 55, 0
5, 12096, Note_on_c, 3, 57, 93
5, 12144, Note_off_c, 3, 57, 0
5, 12144, Note_on_c, 3, 76, 93
5, 12192, Note_off_c, 3, 76, 0
5, 12192, Note_on_c, 3, 77, 93
5, 12240, Note_off_c, 3, 77, 0
5, 12240, Note_on_c, 3, 78, 93
5, 12288, Note_off_c, 3, 78, 0
5, 12288, Note_on_c, 3, 79, 93
5, 12336, Note_off_c, 3, 79, 0
5, 12336, Note_on_c, 3, 57, 93
5, 12384, Note_off_c, 3, 57, 0
5, 12384, Note_on_c, 3, 50, 93
5, 12432, Note_off_c, 3, 50, 0
5, 12432, Note_on_c, 3, 78, 93
5, 12480, Note_off_c, 3, 78, 0
5, 12480, Note_on_c, 3, 79, 93
5, 12528, Note_off_c, 3, 79, 0
5, 12528, Note_on_c, 3, 80, 93
5, 12576, Note_off_c, 3, 80, 0
5, 12576, Note_on_c, 3, 81, 93
5, 12624, Note_off_c, 3, 81, 0
5, 12624, Note_on_c, 3, 62, 93
5, 12672, Note_off_c, 3, 62, 0
5, 12672, Note_on_c, 3, 59, 93
5, 12720, Note_off_c, 3, 59, 0
5, 12720, Note_on_c, 3, 43, 93
5, 12768, Note_off_c, 3, 43, 0
5, 12768, Note_on_c, 3, 44, 93
5, 12816, Note_off_c, 3, 44, 0
5, 12816, Note_on_c, 3, 45, 93
5, 12864, Note_off_c, 3, 45, 0
5, 12864, Note_on_c, 3, 46, 93
5, 12912, Note_off_c, 3, 46, 0
5, 12912, Note_on_c, 3, 47, 93
5, 12960, Note_off_c, 3, 47, 0
5, 12960, Note_on_c, 3, 48, 93
5, 12984, Note_off_c, 3, 48, 0
5, 13056, Note_on_c, 3, 50, 93
5, 13080, Note_off_c, 3, 50, 0
5, 13152, Note_on_c, 3, 52, 93
5, 13176, Note_off_c, 3, 52, 0
5, 13248, Note_on_c, 3, 54, 93
5, 13272, Note_off_c, 3, 54, 0
5, 13272, Note_on_c, 3, 62, 93
5, 13296, Note_off_c, 3, 62, 0
5, 13296, Note_on_c, 3, 60, 93
5, 13320, Note_off_c, 3, 60, 0
5, 13320, Note_on_c, 3, 62, 93
5, 13344, Note_off_c, 3, 62, 0
5, 13344, Note_on_c, 3, 59, 93
5, 13368, Note_off_c, 3, 59, 0
5, 13368, Note_on_c, 3, 55, 93
5, 13392, Note_off_c, 3, 55, 0
5, 13392, Note_on_c, 3, 54, 93
5, 13416, Note_off_c, 3, 54, 0
5, 13416, Note_on_c, 3, 55, 93
5, 13440, Note_off_c, 3, 55, 0
5, 13440, Note_on_c, 3, 50, 93
5, 13464, Note_off_c, 3, 50, 0
5, 13464, Note_on_c, 3, 54, 93
5, 13488, Note_off_c, 3, 54, 0
5, 13488, Note_on_c, 3, 57, 93
5, 13512, Note_off_c, 3, 57, 0
5, 13512, Note_on_c, 3, 60, 93
5, 13536, Note_off_c, 3, 60, 0
5, 13536, Note_on_c, 3, 59, 93
5, 13560, Note_off_c, 3, 59, 0
5, 13560, Note_on_c, 3, 55, 93
5, 13584, Note_off_c, 3, 55, 0
5, 13584, Note_on_c, 3, 54, 93
5, 13608, Note_off_c, 3, 54, 0
5, 13608, Note_on_c, 3, 55, 93
5, 13632, Note_off_c, 3, 55, 0
5, 13632, Note_on_c, 3, 50, 93
5, 13656, Note_off_c, 3, 50, 0
5, 13656, Note_on_c, 3, 47, 93
5, 13680, Note_off_c, 3, 47, 0
5, 13680, Note_on_c, 3, 45, 93
5, 13704, Note_off_c, 3, 45, 0
5, 13704, Note_on_c, 3, 47, 93
5, 13728, Note_off_c, 3, 47, 0
5, 13728, Note_on_c, 3, 43, 93
5, 13824, Note_off_c, 3, 43, 0
5, 14976, Note_on_c, 3, 55, 93
5, 15000, Note_off_c, 3, 55, 0
5, 15072, Note_on_c, 3, 57, 93
5, 15096, Note_off_c, 3, 57, 0
5, 15168, Note_on_c, 3, 59, 93
5, 15192, Note_off_c, 3, 59, 0
5, 15264, Note_on_c, 3, 60, 93
5, 15288, Note_off_c, 3, 60, 0
5, 15360, Note_on_c, 3, 59, 93
5, 15384, Note_off_c, 3, 59, 0
5, 15456, Note_on_c, 3, 60, 93
5, 15480, Note_off_c, 3, 60, 0
5, 15552, Note_on_c, 3, 58, 93
5, 15576, Note_off_c, 3, 58, 0
5, 15648, Note_on_c, 3, 59, 93
5, 15672, Note_off_c, 3, 59, 0
5, 15744, Note_on_c, 3, 59, 93
5, 15768, Note_off_c, 3, 59, 0
5, 15840, Note_on_c, 3, 52, 93
5, 15864, Note_off_c, 3, 52, 0
5, 15864, Note_on_c, 3, 64, 93
5, 15888, Note_off_c, 3, 64, 0
5, 15888, Note_on_c, 3, 63, 93
5, 15912, Note_off_c, 3, 63, 0
5, 15912, Note_on_c, 3, 64, 93
5, 15936, Note_off_c, 3, 64, 0
5, 15936, Note_on_c, 3, 59, 93
5, 15960, Note_off_c, 3, 59, 0
5, 15960, Note_on_c, 3, 55, 93
5, 15984, Note_off_c, 3, 55, 0
5, 15984, Note_on_c, 3, 54, 93
5, 16008, Note_off_c, 3, 54, 0
5, 16008, Note_on_c, 3, 55, 93
5, 16032, Note_off_c, 3, 55, 0
5, 16032, Note_on_c, 3, 52, 93
5, 16056, Note_off_c, 3, 52, 0
5, 16056, Note_on_c, 3, 55, 93
5, 16080, Note_off_c, 3, 55, 0
5, 16080, Note_on_c, 3, 59, 93
5, 16104, Note_off_c, 3, 59, 0
5, 16104, Note_on_c, 3, 62, 93
5, 16128, Note_off_c, 3, 62, 0
5, 16128, Note_on_c, 3, 60, 93
5, 16152, Note_off_c, 3, 60, 0
5, 16224, Note_on_c, 3, 59, 93
5, 16248, Note_off_c, 3, 59, 0
5, 16320, Note_on_c, 3, 57, 93
5, 16344, Note_off_c, 3, 57, 0
5, 16416, Note_on_c, 3, 59, 93
5, 16440, Note_off_c, 3, 59, 0
5, 16512, Note_on_c, 3, 57, 93
5, 16536, Note_off_c, 3, 57, 0
5, 16608, Note_on_c, 3, 55, 93
5, 16632, Note_off_c, 3, 55, 0
5, 16704, Note_on_c, 3, 57, 93
5, 16752, Note_off_c, 3, 57, 0
5, 16752, Note_on_c, 3, 76, 93
5, 16800, Note_off_c, 3, 76, 0
5, 16800, Note_on_c, 3, 77, 93
5, 16848, Note_off_c, 3, 77, 0
5, 16848, Note_on_c, 3, 78, 93
5, 16896, Note_off_c, 3, 78, 0
5, 16896, Note_on_c, 3, 79, 93
5, 16944, Note_off_c, 3, 79, 0
5, 16944, Note_on_c, 3, 57, 93
5, 16992, Note_off_c, 3, 57, 0
5, 16992, Note_on_c, 3, 50, 93
5, 17040, Note_off_c, 3, 50, 0
5, 17040, Note_on_c, 3, 78, 93
5, 17088, Note_off_c, 3, 78, 0
5, 17088, Note_on_c, 3, 79, 93
5, 17136, Note_off_c, 3, 79, 0
5, 17136, Note_on_c, 3, 80, 93
5, 17184, Note_off_c, 3, 80, 0
5, 17184, Note_on_c, 3, 81, 93
5, 17232, Note_off_c, 3, 81, 0
5, 17232, Note_on_c, 3, 62, 93
5, 17280, Note_off_c, 3, 62, 0
5, 17280, Note_on_c, 3, 59, 93
5, 17328, Note_off_c, 3, 59, 0
5, 17328, Note_on_c, 3, 43, 93
5, 17376, Note_off_c, 3, 43, 0
5, 17376, Note_on_c, 3, 44, 93
5, 17424, Note_off_c, 3, 44, 0
5, 17424, Note_on_c, 3, 45, 93
5, 17472, Note_off_c, 3, 45, 0
5, 17472, Note_on_c, 3, 46, 93
5, 17520, Note_off_c, 3, 46, 0
5, 17520, Note_on_c, 3, 47, 93
5, 17568, Note_off_c, 3, 47, 0
5, 17568, Note_on_c, 3, 48, 93
5, 17592, Note_off_c, 3, 48, 0
5, 17664, Note_on_c, 3, 50, 93
5, 17688, Note_off_c, 3, 50, 0
5, 17760, Note_on_c, 3, 52, 93
5, 17784, Note_off_c, 3, 52, 0
5, 17856, Note_on_c, 3, 54, 93
5, 17880, Note_off_c, 3, 54, 0
5, 17880, Note_on_c, 3, 62, 93
5, 17904, Note_off_c, 3, 62, 0
5, 17904, Note_on_c, 3, 60, 93
5, 17928, Note_off_c, 3, 60, 0
5, 17928, Note_on_c, 3, 62, 93
5, 17952, Note_off_c, 3, 62, 0
5, 17952, Note_on_c, 3, 59, 93
5, 17976, Note_off_c, 3, 59, 0
5, 17976, Note_on_c, 3, 55, 93
5, 18000, Note_off_c, 3, 55, 0
5, 18000, Note_on_c, 3, 54, 93
5, 18024, Note_off_c, 3, 54, 0
5, 18024, Note_on_c, 3, 55, 93
5, 18048, Note_off_c, 3, 55, 0
5, 18048, Note_on_c, 3, 50, 93
5, 18072, Note_off_c, 3, 50, 0
5, 18072, Note_on_c, 3, 54, 93
5, 18096, Note_off_c, 3, 54, 0
5, 18096, Note_on_c, 3, 57, 93
5, 18120, Note_off_c, 3, 57, 0
5, 18120, Note_on_c, 3, 60, 93
5, 18144, Note_off_c, 3, 60, 0
5, 18144, Note_on_c, 3, 59, 93
5, 18168, Note_off_c, 3, 59, 0
5, 18168, Note_on_c, 3, 55, 93
5, 18192, Note_off_c, 3, 55, 0
5, 18192, Note_on_c, 3, 54, 93
5, 18216, Note_off_c, 3, 54, 0
5, 18216, Note_on_c, 3, 55, 93
5, 18240, Note_off_c, 3, 55, 0
5, 18240, Note_on_c, 3, 50, 93
5, 18264, Note_off_c, 3, 50, 0
5, 18264, Note_on_c, 3, 47, 93
5, 18288, Note_off_c, 3, 47, 0
5, 18288, Note_on_c, 3, 45, 93
5, 18312, Note_off_c, 3, 45, 0
5, 18312, Note_on_c, 3, 47, 93
5, 18336, Note_off_c, 3, 47, 0
5, 18336, Note_on_c, 3, 43, 93
5, 18432, Note_off_c, 3, 43, 0
5, 18432, End_track
0, 0, End_of_file
