0, 0, Header, 1, 5, 96
1, 0, Start_track
1, 0, Time_signature, 4, 2, 24, 8
1, 0, Title_t, "untitled"
1, 0, Title_t, "Track1"
1, 0, Tempo, 1200000
1, 6, Tempo, 1200000
1, 6, Tempo, 1200000
1, 12, Tempo, 1176470
1, 18, Tempo, 1153846
1, 18, Tempo, 1153846
1, 24, Tempo, 1132075
1, 30, Tempo, 1132075
1, 30, Tempo, 1111111
1, 36, Tempo, 1111111
1, 36, Tempo, 1090909
1, 42, Tempo, 1090909
1, 48, Tempo, 1090909
1, 48, Tempo, 1071428
1, 54, Tempo, 1071428
1, 60, Tempo, 1052631
1, 60, Tempo, 1052631
1, 66, Tempo, 1034482
1, 72, Tempo, 1016949
1, 72, Tempo, 1016949
1, 78, Tempo, 1000000
1, 78, Tempo, 1000000
1, 84, Tempo, 1000000
1, 90, Tempo, 983606
1, 90, Tempo, 983606
1, 96, Tempo, 967741
1, 102, Tempo, 967741
1, 102, Tempo, 952380
1, 108, Tempo, 937500
1, 114, Tempo, 937500
1, 114, Tempo, 937500
1, 120, Tempo, 923076
1, 126, Tempo, 923076
1, 126, Tempo, 909090
1, 132, Tempo, 895522
1, 132, Tempo, 895522
1, 138, Tempo, 895522
1, 144, Tempo, 882352
1, 144, Tempo, 869565
1, 150, Tempo, 869565
1, 156, Tempo, 869565
1, 156, Tempo, 857142
1, 162, Tempo, 845070
1, 168, Tempo, 845070
1, 168, Tempo, 833333
1, 174, Tempo, 833333
1, 174, Tempo, 833333
1, 180, Tempo, 821917
1, 186, Tempo, 821917
1, 186, Tempo, 810810
1, 192, Tempo, 800000
1, 6144, Tempo, 1200000
1, 6144, Tempo, 1200000
1, 6144, Tempo, 1200000
1, 6144, Tempo, 1200000
1, 6150, Tempo, 1200000
1, 6150, Tempo, 1200000
1, 6150, Tempo, 1200000
1, 6150, Tempo, 1200000
1, 6150, Tempo, 1200000
1, 6150, Tempo, 1200000
1, 6150, Tempo, 1200000
1, 6156, Tempo, 1176470
1, 6156, Tempo, 1176470
1, 6156, Tempo, 1176470
1, 6156, Tempo, 1176470
1, 6156, Tempo, 1176470
1, 6156, Tempo, 1176470
1, 6156, Tempo, 1176470
1, 6156, Tempo, 1176470
1, 6162, Tempo, 1176470
1, 6162, Tempo, 1153846
1, 6162, Tempo, 1153846
1, 6162, Tempo, 1153846
1, 6162, Tempo, 1153846
1, 6162, Tempo, 1153846
1, 6162, Tempo, 1153846
1, 6168, Tempo, 1153846
1, 6168, Tempo, 1153846
1, 6168, Tempo, 1153846
1, 6168, Tempo, 1132075
1, 6168, Tempo, 1132075
1, 6168, Tempo, 1132075
1, 6168, Tempo, 1132075
1, 6168, Tempo, 1132075
1, 6174, Tempo, 1132075
1, 6174, Tempo, 1132075
1, 6174, Tempo, 1132075
1, 6174, Tempo, 1132075
1, 6174, Tempo, 1132075
1, 6174, Tempo, 1111111
1, 6174, Tempo, 1111111
1, 6180, Tempo, 1111111
1, 6180, Tempo, 1111111
1, 6180, Tempo, 1111111
1, 6180, Tempo, 1111111
1, 6180, Tempo, 1111111
1, 6180, Tempo, 1111111
1, 6180, Tempo, 1111111
1, 6180, Tempo, 1090909
1, 6186, Tempo, 1090909
1, 6186, Tempo, 1090909
1, 6186, Tempo, 1090909
1, 6186, Tempo, 1090909
1, 6186, Tempo, 1090909
1, 6186, Tempo, 1090909
1, 6186, Tempo, 1090909
1, 6192, Tempo, 1090909
1, 6192, Tempo, 1090909
1, 6192, Tempo, 1090909
1, 6192, Tempo, 1071428
1, 6192, Tempo, 1071428
1, 6192, Tempo, 1071428
1, 6192, Tempo, 1071428
1, 6192, Tempo, 1071428
1, 6198, Tempo, 1071428
1, 6198, Tempo, 1071428
1, 6198, Tempo, 1071428
1, 6198, Tempo, 1071428
1, 6198, Tempo, 1071428
1, 6198, Tempo, 1052631
1, 6198, Tempo, 1052631
1, 6204, Tempo, 1052631
1, 6204, Tempo, 1052631
1, 6204, Tempo, 1052631
1, 6204, Tempo, 1052631
1, 6204, Tempo, 1052631
1, 6204, Tempo, 1052631
1, 6204, Tempo, 1052631
1, 6204, Tempo, 1034482
1, 6210, Tempo, 1034482
1, 6210, Tempo, 1034482
1, 6210, Tempo, 1034482
1, 6210, Tempo, 1034482
1, 6210, Tempo, 1034482
1, 6210, Tempo, 1034482
1, 6210, Tempo, 1034482
1, 6216, Tempo, 1034482
1, 6216, Tempo, 1016949
1, 6216, Tempo, 1016949
1, 6216, Tempo, 1016949
1, 6216, Tempo, 1016949
1, 6216, Tempo, 1016949
1, 6216, Tempo, 1016949
1, 6216, Tempo, 1016949
1, 6222, Tempo, 1016949
1, 6222, Tempo, 1016949
1, 6222, Tempo, 1000000
1, 6222, Tempo, 1000000
1, 6222, Tempo, 1000000
1, 6222, Tempo, 1000000
1, 6222, Tempo, 1000000
1, 6228, Tempo, 1000000
1, 6228, Tempo, 1000000
1, 6228, Tempo, 1000000
1, 6228, Tempo, 1000000
1, 6228, Tempo, 1000000
1, 6228, Tempo, 1000000
1, 6228, Tempo, 983606
1, 6228, Tempo, 983606
1, 6234, Tempo, 983606
1, 6234, Tempo, 983606
1, 6234, Tempo, 983606
1, 6234, Tempo, 983606
1, 6234, Tempo, 983606
1, 6234, Tempo, 983606
1, 6234, Tempo, 983606
1, 6240, Tempo, 983606
1, 6240, Tempo, 967741
1, 6240, Tempo, 967741
1, 6240, Tempo, 967741
1, 6240, Tempo, 967741
1, 6240, Tempo, 967741
1, 6240, Tempo, 967741
1, 6240, Tempo, 967741
1, 6246, Tempo, 967741
1, 6246, Tempo, 967741
1, 6246, Tempo, 952380
1, 6246, Tempo, 952380
1, 6246, Tempo, 952380
1, 6246, Tempo, 952380
1, 6246, Tempo, 952380
1, 6252, Tempo, 952380
1, 6252, Tempo, 952380
1, 6252, Tempo, 952380
1, 6252, Tempo, 952380
1, 6252, Tempo, 937500
1, 6252, Tempo, 937500
1, 6252, Tempo, 937500
1, 6252, Tempo, 937500
1, 6258, Tempo, 937500
1, 6258, Tempo, 937500
1, 6258, Tempo, 937500
1, 6258, Tempo, 937500
1, 6258, Tempo, 937500
1, 6258, Tempo, 937500
1, 6258, Tempo, 923076
1, 6264, Tempo, 923076
1, 6264, Tempo, 923076
1, 6264, Tempo, 923076
1, 6264, Tempo, 923076
1, 6264, Tempo, 923076
1, 6264, Tempo, 923076
1, 6264, Tempo, 923076
1, 6264, Tempo, 923076
1, 6270, Tempo, 923076
1, 6270, Tempo, 909090
1, 6270, Tempo, 909090
1, 6270, Tempo, 909090
1, 6270, Tempo, 909090
1, 6270, Tempo, 909090
1, 6270, Tempo, 909090
1, 6276, Tempo, 909090
1, 6276, Tempo, 909090
1, 6276, Tempo, 909090
1, 6276, Tempo, 895522
1, 6276, Tempo, 895522
1, 6276, Tempo, 895522
1, 6276, Tempo, 895522
1, 6276, Tempo, 895522
1, 6282, Tempo, 895522
1, 6282, Tempo, 895522
1, 6282, Tempo, 895522
1, 6282, Tempo, 895522
1, 6282, Tempo, 895522
1, 6282, Tempo, 882352
1, 6282, Tempo, 882352
1, 6288, Tempo, 882352
1, 6288, Tempo, 882352
1, 6288, Tempo, 882352
1, 6288, Tempo, 882352
1, 6288, Tempo, 882352
1, 6288, Tempo, 882352
1, 6288, Tempo, 882352
1, 6288, Tempo, 869565
1, 6294, Tempo, 869565
1, 6294, Tempo, 869565
1, 6294, Tempo, 869565
1, 6294, Tempo, 869565
1, 6294, Tempo, 869565
1, 6294, Tempo, 869565
1, 6294, Tempo, 869565
1, 6300, Tempo, 869565
1, 6300, Tempo, 869565
1, 6300, Tempo, 857142
1, 6300, Tempo, 857142
1, 6300, Tempo, 857142
1, 6300, Tempo, 857142
1, 6300, Tempo, 857142
1, 6300, Tempo, 857142
1, 6306, Tempo, 857142
1, 6306, Tempo, 857142
1, 6306, Tempo, 857142
1, 6306, Tempo, 845070
1, 6306, Tempo, 845070
1, 6306, Tempo, 845070
1, 6306, Tempo, 845070
1, 6312, Tempo, 845070
1, 6312, Tempo, 845070
1, 6312, Tempo, 845070
1, 6312, Tempo, 845070
1, 6312, Tempo, 845070
1, 6312, Tempo, 845070
1, 6312, Tempo, 833333
1, 6312, Tempo, 833333
1, 6318, Tempo, 833333
1, 6318, Tempo, 833333
1, 6318, Tempo, 833333
1, 6318, Tempo, 833333
1, 6318, Tempo, 833333
1, 6318, Tempo, 833333
1, 6318, Tempo, 833333
1, 6324, Tempo, 833333
1, 6324, Tempo, 821917
1, 6324, Tempo, 821917
1, 6324, Tempo, 821917
1, 6324, Tempo, 821917
1, 6324, Tempo, 821917
1, 6324, Tempo, 821917
1, 6324, Tempo, 821917
1, 6330, Tempo, 821917
1, 6330, Tempo, 821917
1, 6330, Tempo, 821917
1, 6330, Tempo, 810810
1, 6330, Tempo, 810810
1, 6330, Tempo, 810810
1, 6330, Tempo, 810810
1, 6336, Tempo, 810810
1, 6336, Tempo, 810810
1, 6336, Tempo, 810810
1, 6336, Tempo, 810810
1, 6336, Tempo, 800000
1, 11904, Tempo, 600000
1, 11904, End_track
2, 0, Start_track
2, 0, Title_t, "Track2"
2, 0, Program_c, 0, 6
2, 0, Control_c, 0, 7, 100
2, 0, Control_c, 0, 10, 79
2, 108, Note_on_c, 0, 67, 93
2, 120, Note_off_c, 0, 67, 0
2, 120, Note_on_c, 0, 69, 93
2, 132, Note_off_c, 0, 69, 0
2, 132, Note_on_c, 0, 71, 93
2, 144, Note_off_c, 0, 71, 0
2, 144, Note_on_c, 0, 72, 93
2, 156, Note_off_c, 0, 72, 0
2, 156, Note_on_c, 0, 74, 93
2, 168, Note_off_c, 0, 74, 0
2, 168, Note_on_c, 0, 76, 93
2, 180, Note_off_c, 0, 76, 0
2, 180, Note_on_c, 0, 78, 93
2, 192, Note_off_c, 0, 78, 0
2, 192, Note_on_c, 0, 79, 93
2, 264, Note_off_c, 0, 79, 0
2, 264, Note_on_c, 0, 74, 93
2, 288, Note_off_c, 0, 74, 0
2, 288, Note_on_c, 0, 71, 93
2, 360, Note_off_c, 0, 71, 0
2, 360, Note_on_c, 0, 67, 93
2, 384, Note_off_c, 0, 67, 0
2, 384, Note_on_c, 0, 74, 93
2, 396, Note_off_c, 0, 74, 0
2, 396, Note_on_c, 0, 72, 93
2, 408, Note_off_c, 0, 72, 0
2, 408, Note_on_c, 0, 74, 93
2, 528, Note_off_c, 0, 74, 0
2, 528, Note_on_c, 0, 76, 93
2, 576, Note_off_c, 0, 76, 0
2, 576, Note_on_c, 0, 74, 93
2, 600, Note_off_c, 0, 74, 0
2, 600, Note_on_c, 0, 72, 93
2, 612, Note_off_c, 0, 72, 0
2, 612, Note_on_c, 0, 71, 93
2, 624, Note_off_c, 0, 71, 0
2, 624, Note_on_c, 0, 72, 93
2, 636, Note_off_c, 0, 72, 0
2, 636, Note_on_c, 0, 74, 93
2, 642, Note_off_c, 0, 74, 0
2, 642, Note_on_c, 0, 72, 93
2, 654, Note_off_c, 0, 72, 0
2, 654, Note_on_c, 0, 74, 93
2, 660, Note_off_c, 0, 74, 0
2, 660, Note_on_c, 0, 72, 93
2, 666, Note_off_c, 0, 72, 0
2, 666, Note_on_c, 0, 74, 93
2, 678, Note_off_c, 0, 74, 0
2, 678, Note_on_c, 0, 72, 93
2, 684, Note_off_c, 0, 72, 0
2, 684, Note_on_c, 0, 74, 93
2, 690, Note_off_c, 0, 74, 0
2, 690, Note_on_c, 0, 72, 93
2, 702, Note_off_c, 0, 72, 0
2, 702, Note_on_c, 0, 74, 93
2, 708, Note_off_c, 0, 74, 0
2, 708, Note_on_c, 0, 72, 93
2, 714, Note_off_c, 0, 72, 0
2, 714, Note_on_c, 0, 74, 93
2, 726, Note_off_c, 0, 74, 0
2, 726, Note_on_c, 0, 72, 93
2, 732, Note_off_c, 0, 72, 0
2, 732, Note_on_c, 0, 71, 93
2, 744, Note_off_c, 0, 71, 0
2, 744, Note_on_c, 0, 72, 93
2, 756, Note_off_c, 0, 72, 0
2, 756, Note_on_c, 0, 74, 93
2, 768, Note_off_c, 0, 74, 0
2, 768, Note_on_c, 0, 67, 93
2, 840, Note_off_c, 0, 67, 0
2, 840, Note_on_c, 0, 79, 93
2, 852, Note_off_c, 0, 79, 0
2, 852, Note_on_c, 0, 78, 93
2, 864, Note_off_c, 0, 78, 0
2, 864, Note_on_c, 0, 79, 93
2, 936, Note_off_c, 0, 79, 0
2, 936, Note_on_c, 0, 76, 93
2, 960, Note_off_c, 0, 76, 0
2, 960, Note_on_c, 0, 74, 93
2, 984, Note_off_c, 0, 74, 0
2, 984, Note_on_c, 0, 73, 93
2, 1032, Note_off_c, 0, 73, 0
2, 1032, Note_on_c, 0, 83, 93
2, 1056, Note_off_c, 0, 83, 0
2, 1056, Note_on_c, 0, 81, 93
2, 1128, Note_off_c, 0, 81, 0
2, 1128, Note_on_c, 0, 79, 93
2, 1152, Note_off_c, 0, 79, 0
2, 1152, Note_on_c, 0, 79, 93
2, 1164, Note_off_c, 0, 79, 0
2, 1164, Note_on_c, 0, 78, 93
2, 1176, Note_off_c, 0, 78, 0
2, 1176, Note_on_c, 0, 76, 93
2, 1188, Note_off_c, 0, 76, 0
2, 1188, Note_on_c, 0, 78, 93
2, 1200, Note_off_c, 0, 78, 0
2, 1200, Note_on_c, 0, 79, 93
2, 1206, Note_off_c, 0, 79, 0
2, 1206, Note_on_c, 0, 78, 93
2, 1218, Note_off_c, 0, 78, 0
2, 1218, Note_on_c, 0, 79, 93
2, 1224, Note_off_c, 0, 79, 0
2, 1224, Note_on_c, 0, 78, 93
2, 1230, Note_off_c, 0, 78, 0
2, 1230, Note_on_c, 0, 79, 93
2, 1242, Note_off_c, 0, 79, 0
2, 1242, Note_on_c, 0, 78, 93
2, 1296, Note_off_c, 0, 78, 0
2, 1296, Note_on_c, 0, 79, 93
2, 1344, Note_off_c, 0, 79, 0
2, 1344, Note_on_c, 0, 79, 93
2, 1368, Note_off_c, 0, 79, 0
2, 1368, Note_on_c, 0, 81, 93
2, 1596, Note_off_c, 0, 81, 0
2, 1596, Note_on_c, 0, 81, 93
2, 1608, Note_off_c, 0, 81, 0
2, 1608, Note_on_c, 0, 79, 93
2, 1620, Note_off_c, 0, 79, 0
2, 1620, Note_on_c, 0, 78, 93
2, 1632, Note_off_c, 0, 78, 0
2, 1632, Note_on_c, 0, 79, 93
2, 1704, Note_off_c, 0, 79, 0
2, 1704, Note_on_c, 0, 74, 93
2, 1920, Note_off_c, 0, 74, 0
2, 1920, Note_on_c, 0, 72, 93
2, 1968, Note_off_c, 0, 72, 0
2, 2208, Note_on_c, 0, 79, 93
2, 2220, Note_off_c, 0, 79, 0
2, 2220, Note_on_c, 0, 78, 93
2, 2232, Note_off_c, 0, 78, 0
2, 2232, Note_on_c, 0, 79, 93
2, 2280, Note_off_c, 0, 79, 0
2, 2280, Note_on_c, 0, 79, 93
2, 2304, Note_off_c, 0, 79, 0
2, 2304, Note_on_c, 0, 79, 93
2, 2412, Note_off_c, 0, 79, 0
2, 2412, Note_on_c, 0, 83, 93
2, 2424, Note_off_c, 0, 83, 0
2, 2424, Note_on_c, 0, 81, 93
2, 2436, Note_off_c, 0, 81, 0
2, 2436, Note_on_c, 0, 79, 93
2, 2448, Note_off_c, 0, 79, 0
2, 2448, Note_on_c, 0, 78, 93
2, 2460, Note_off_c, 0, 78, 0
2, 2460, Note_on_c, 0, 76, 93
2, 2472, Note_off_c, 0, 76, 0
2, 2472, Note_on_c, 0, 74, 93
2, 2484, Note_off_c, 0, 74, 0
2, 2484, Note_on_c, 0, 72, 93
2, 2496, Note_off_c, 0, 72, 0
2, 2496, Note_on_c, 0, 81, 93
2, 2568, Note_off_c, 0, 81, 0
2, 2568, Note_on_c, 0, 72, 93
2, 2592, Note_off_c, 0, 72, 0
2, 2592, Note_on_c, 0, 81, 93
2, 2664, Note_off_c, 0, 81, 0
2, 2664, Note_on_c, 0, 72, 93
2, 2688, Note_off_c, 0, 72, 0
2, 2688, Note_on_c, 0, 72, 93
2, 2700, Note_off_c, 0, 72, 0
2, 2700, Note_on_c, 0, 71, 93
2, 2712, Note_off_c, 0, 71, 0
2, 2712, Note_on_c, 0, 69, 93
2, 2724, Note_off_c, 0, 69, 0
2, 2724, Note_on_c, 0, 71, 93
2, 2736, Note_off_c, 0, 71, 0
2, 2736, Note_on_c, 0, 72, 93
2, 2742, Note_off_c, 0, 72, 0
2, 2742, Note_on_c, 0, 71, 93
2, 2754, Note_off_c, 0, 71, 0
2, 2754, Note_on_c, 0, 72, 93
2, 2760, Note_off_c, 0, 72, 0
2, 2760, Note_on_c, 0, 71, 93
2, 2766, Note_off_c, 0, 71, 0
2, 2766, Note_on_c, 0, 72, 93
2, 2778, Note_off_c, 0, 72, 0
2, 2778, Note_on_c, 0, 71, 93
2, 2844, Note_off_c, 0, 71, 0
2, 2844, Note_on_c, 0, 69, 93
2, 2856, Note_off_c, 0, 69, 0
2, 2856, Note_on_c, 0, 67, 93
2, 2868, Note_off_c, 0, 67, 0
2, 2868, Note_on_c, 0, 66, 93
2, 2880, Note_off_c, 0, 66, 0
2, 2880, Note_on_c, 0, 67, 93
2, 2904, Note_off_c, 0, 67, 0
2, 2904, Note_on_c, 0, 74, 93
2, 2928, Note_off_c, 0, 74, 0
2, 2928, Note_on_c, 0, 76, 93
2, 2952, Note_off_c, 0, 76, 0
2, 2952, Note_on_c, 0, 78, 93
2, 2976, Note_off_c, 0, 78, 0
2, 2976, Note_on_c, 0, 79, 93
2, 3000, Note_off_c, 0, 79, 0
2, 3000, Note_on_c, 0, 78, 93
2, 3024, Note_off_c, 0, 78, 0
2, 3024, Note_on_c, 0, 79, 93
2, 3048, Note_off_c, 0, 79, 0
2, 3048, Note_on_c, 0, 81, 93
2, 3072, Note_off_c, 0, 81, 0
2, 3072, Note_on_c, 0, 83, 93
2, 3132, Note_off_c, 0, 83, 0
2, 3132, Note_on_c, 0, 81, 93
2, 3144, Note_off_c, 0, 81, 0
2, 3144, Note_on_c, 0, 79, 93
2, 3156, Note_off_c, 0, 79, 0
2, 3156, Note_on_c, 0, 78, 93
2, 3168, Note_off_c, 0, 78, 0
2, 3168, Note_on_c, 0, 79, 93
2, 3228, Note_off_c, 0, 79, 0
2, 3228, Note_on_c, 0, 78, 93
2, 3240, Note_off_c, 0, 78, 0
2, 3240, Note_on_c, 0, 76, 93
2, 3252, Note_off_c, 0, 76, 0
2, 3252, Note_on_c, 0, 75, 93
2, 3264, Note_off_c, 0, 75, 0
2, 3264, Note_on_c, 0, 76, 93
2, 3336, Note_off_c, 0, 76, 0
2, 3336, Note_on_c, 0, 71, 93
2, 3360, Note_off_c, 0, 71, 0
2, 3360, Note_on_c, 0, 73, 93
2, 3366, Note_off_c, 0, 73, 0
2, 3366, Note_on_c, 0, 71, 93
2, 3378, Note_off_c, 0, 71, 0
2, 3378, Note_on_c, 0, 73, 93
2, 3432, Note_off_c, 0, 73, 0
2, 3432, Note_on_c, 0, 74, 93
2, 3456, Note_off_c, 0, 74, 0
2, 3456, Note_on_c, 0, 74, 93
2, 3480, Note_off_c, 0, 74, 0
2, 3480, Note_on_c, 0, 73, 93
2, 3516, Note_off_c, 0, 73, 0
2, 3516, Note_on_c, 0, 76, 93
2, 3528, Note_off_c, 0, 76, 0
2, 3528, Note_on_c, 0, 78, 93
2, 3540, Note_off_c, 0, 78, 0
2, 3540, Note_on_c, 0, 79, 93
2, 3552, Note_off_c, 0, 79, 0
2, 3552, Note_on_c, 0, 81, 93
2, 3624, Note_off_c, 0, 81, 0
2, 3624, Note_on_c, 0, 81, 93
2, 3648, Note_off_c, 0, 81, 0
2, 3648, Note_on_c, 0, 81, 93
2, 3804, Note_off_c, 0, 81, 0
2, 3804, Note_on_c, 0, 81, 93
2, 3816, Note_off_c, 0, 81, 0
2, 3816, Note_on_c, 0, 79, 93
2, 3828, Note_off_c, 0, 79, 0
2, 3828, Note_on_c, 0, 78, 93
2, 3840, Note_off_c, 0, 78, 0
2, 3840, Note_on_c, 0, 79, 93
2, 3900, Note_off_c, 0, 79, 0
2, 3900, Note_on_c, 0, 78, 93
2, 3912, Note_off_c, 0, 78, 0
2, 3912, Note_on_c, 0, 76, 93
2, 3924, Note_off_c, 0, 76, 0
2, 3924, Note_on_c, 0, 75, 93
2, 3936, Note_off_c, 0, 75, 0
2, 3936, Note_on_c, 0, 76, 93
2, 4008, Note_off_c, 0, 76, 0
2, 4008, Note_on_c, 0, 83, 93
2, 4032, Note_off_c, 0, 83, 0
2, 4032, Note_on_c, 0, 76, 93
2, 4044, Note_off_c, 0, 76, 0
2, 4044, Note_on_c, 0, 74, 93
2, 4056, Note_off_c, 0, 74, 0
2, 4056, Note_on_c, 0, 72, 93
2, 4068, Note_off_c, 0, 72, 0
2, 4068, Note_on_c, 0, 74, 93
2, 4080, Note_off_c, 0, 74, 0
2, 4080, Note_on_c, 0, 76, 93
2, 4086, Note_off_c, 0, 76, 0
2, 4086, Note_on_c, 0, 74, 93
2, 4098, Note_off_c, 0, 74, 0
2, 4098, Note_on_c, 0, 76, 93
2, 4104, Note_off_c, 0, 76, 0
2, 4104, Note_on_c, 0, 74, 93
2, 4110, Note_off_c, 0, 74, 0
2, 4110, Note_on_c, 0, 76, 93
2, 4122, Note_off_c, 0, 76, 0
2, 4122, Note_on_c, 0, 74, 93
2, 4128, Note_off_c, 0, 74, 0
2, 4128, Note_on_c, 0, 76, 93
2, 4134, Note_off_c, 0, 76, 0
2, 4134, Note_on_c, 0, 74, 93
2, 4176, Note_off_c, 0, 74, 0
2, 4176, Note_on_c, 0, 73, 93
2, 4200, Note_off_c, 0, 73, 0
2, 4200, Note_on_c, 0, 71, 93
2, 4224, Note_off_c, 0, 71, 0
2, 4224, Note_on_c, 0, 73, 93
2, 4284, Note_off_c, 0, 73, 0
2, 4284, Note_on_c, 0, 74, 93
2, 4296, Note_off_c, 0, 74, 0
2, 4296, Note_on_c, 0, 73, 93
2, 4308, Note_off_c, 0, 73, 0
2, 4308, Note_on_c, 0, 74, 93
2, 4320, Note_off_c, 0, 74, 0
2, 4320, Note_on_c, 0, 76, 93
2, 4326, Note_off_c, 0, 76, 0
2, 4326, Note_on_c, 0, 74, 93
2, 4338, Note_off_c, 0, 74, 0
2, 4338, Note_on_c, 0, 76, 93
2, 4344, Note_off_c, 0, 76, 0
2, 4344, Note_on_c, 0, 74, 93
2, 4350, Note_off_c, 0, 74, 0
2, 4350, Note_on_c, 0, 76, 93
2, 4362, Note_off_c, 0, 76, 0
2, 4362, Note_on_c, 0, 74, 93
2, 4368, Note_off_c, 0, 74, 0
2, 4368, Note_on_c, 0, 76, 93
2, 4380, Note_off_c, 0, 76, 0
2, 4380, Note_on_c, 0, 74, 93
2, 4392, Note_off_c, 0, 74, 0
2, 4392, Note_on_c, 0, 73, 93
2, 4404, Note_off_c, 0, 73, 0
2, 4404, Note_on_c, 0, 74, 93
2, 4416, Note_off_c, 0, 74, 0
2, 4416, Note_on_c, 0, 76, 93
2, 4524, Note_off_c, 0, 76, 0
2, 4524, Note_on_c, 0, 74, 93
2, 4536, Note_off_c, 0, 74, 0
2, 4536, Note_on_c, 0, 73, 93
2, 4548, Note_off_c, 0, 73, 0
2, 4548, Note_on_c, 0, 71, 93
2, 4560, Note_off_c, 0, 71, 0
2, 4560, Note_on_c, 0, 69, 93
2, 4572, Note_off_c, 0, 69, 0
2, 4572, Note_on_c, 0, 67, 93
2, 4584, Note_off_c, 0, 67, 0
2, 4584, Note_on_c, 0, 66, 93
2, 4596, Note_off_c, 0, 66, 0
2, 4596, Note_on_c, 0, 64, 93
2, 4608, Note_off_c, 0, 64, 0
2, 4608, Note_on_c, 0, 62, 93
2, 4680, Note_off_c, 0, 62, 0
2, 4680, Note_on_c, 0, 66, 93
2, 4704, Note_off_c, 0, 66, 0
2, 4704, Note_on_c, 0, 69, 93
2, 4716, Note_off_c, 0, 69, 0
2, 4716, Note_on_c, 0, 67, 93
2, 4728, Note_off_c, 0, 67, 0
2, 4728, Note_on_c, 0, 69, 93
2, 4776, Note_off_c, 0, 69, 0
2, 4776, Note_on_c, 0, 71, 93
2, 4800, Note_off_c, 0, 71, 0
2, 4800, Note_on_c, 0, 72, 93
2, 4956, Note_off_c, 0, 72, 0
2, 4956, Note_on_c, 0, 72, 93
2, 4968, Note_off_c, 0, 72, 0
2, 4968, Note_on_c, 0, 71, 93
2, 4980, Note_off_c, 0, 71, 0
2, 4980, Note_on_c, 0, 69, 93
2, 4992, Note_off_c, 0, 69, 0
2, 4992, Note_on_c, 0, 71, 93
2, 5052, Note_off_c, 0, 71, 0
2, 5052, Note_on_c, 0, 73, 93
2, 5064, Note_off_c, 0, 73, 0
2, 5064, Note_on_c, 0, 74, 93
2, 5076, Note_off_c, 0, 74, 0
2, 5076, Note_on_c, 0, 76, 93
2, 5088, Note_off_c, 0, 76, 0
2, 5088, Note_on_c, 0, 76, 93
2, 5100, Note_off_c, 0, 76, 0
2, 5100, Note_on_c, 0, 74, 93
2, 5112, Note_off_c, 0, 74, 0
2, 5112, Note_on_c, 0, 76, 93
2, 5124, Note_off_c, 0, 76, 0
2, 5124, Note_on_c, 0, 74, 93
2, 5148, Note_off_c, 0, 74, 0
2, 5148, Note_on_c, 0, 73, 93
2, 5160, Note_off_c, 0, 73, 0
2, 5160, Note_on_c, 0, 74, 93
2, 5172, Note_off_c, 0, 74, 0
2, 5172, Note_on_c, 0, 76, 93
2, 5184, Note_off_c, 0, 76, 0
2, 5184, Note_on_c, 0, 69, 93
2, 5244, Note_off_c, 0, 69, 0
2, 5244, Note_on_c, 0, 76, 93
2, 5256, Note_off_c, 0, 76, 0
2, 5256, Note_on_c, 0, 78, 93
2, 5268, Note_off_c, 0, 78, 0
2, 5268, Note_on_c, 0, 79, 93
2, 5280, Note_off_c, 0, 79, 0
2, 5280, Note_on_c, 0, 81, 93
2, 5352, Note_off_c, 0, 81, 0
2, 5352, Note_on_c, 0, 73, 93
2, 5376, Note_off_c, 0, 73, 0
2, 5376, Note_on_c, 0, 74, 93
2, 5472, Note_off_c, 0, 74, 0
2, 5472, Note_on_c, 0, 76, 93
2, 5484, Note_off_c, 0, 76, 0
2, 5484, Note_on_c, 0, 74, 93
2, 5496, Note_off_c, 0, 74, 0
2, 5496, Note_on_c, 0, 73, 93
2, 5508, Note_off_c, 0, 73, 0
2, 5508, Note_on_c, 0, 74, 93
2, 5520, Note_off_c, 0, 74, 0
2, 5520, Note_on_c, 0, 76, 93
2, 5568, Note_off_c, 0, 76, 0
2, 5568, Note_on_c, 0, 78, 93
2, 5580, Note_off_c, 0, 78, 0
2, 5580, Note_on_c, 0, 76, 93
2, 5592, Note_off_c, 0, 76, 0
2, 5592, Note_on_c, 0, 74, 93
2, 5604, Note_off_c, 0, 74, 0
2, 5604, Note_on_c, 0, 76, 93
2, 5616, Note_off_c, 0, 76, 0
2, 5616, Note_on_c, 0, 78, 93
2, 5622, Note_off_c, 0, 78, 0
2, 5622, Note_on_c, 0, 76, 93
2, 5634, Note_off_c, 0, 76, 0
2, 5634, Note_on_c, 0, 78, 93
2, 5640, Note_off_c, 0, 78, 0
2, 5640, Note_on_c, 0, 76, 93
2, 5646, Note_off_c, 0, 76, 0
2, 5646, Note_on_c, 0, 78, 93
2, 5658, Note_off_c, 0, 78, 0
2, 5658, Note_on_c, 0, 76, 93
2, 5712, Note_off_c, 0, 76, 0
2, 5712, Note_on_c, 0, 74, 93
2, 5760, Note_off_c, 0, 74, 0
2, 5760, Note_on_c, 0, 74, 93
2, 6144, Note_off_c, 0, 74, 0
2, 6252, Note_on_c, 0, 67, 93
2, 6264, Note_off_c, 0, 67, 0
2, 6264, Note_on_c, 0, 69, 93
2, 6276, Note_off_c, 0, 69, 0
2, 6276, Note_on_c, 0, 71, 93
2, 6288, Note_off_c, 0, 71, 0
2, 6288, Note_on_c, 0, 72, 93
2, 6300, Note_off_c, 0, 72, 0
2, 6300, Note_on_c, 0, 74, 93
2, 6312, Note_off_c, 0, 74, 0
2, 6312, Note_on_c, 0, 76, 93
2, 6324, Note_off_c, 0, 76, 0
2, 6324, Note_on_c, 0, 78, 93
2, 6336, Note_off_c, 0, 78, 0
2, 6336, Note_on_c, 0, 79, 93
2, 6408, Note_off_c, 0, 79, 0
2, 6408, Note_on_c, 0, 74, 93
2, 6432, Note_off_c, 0, 74, 0
2, 6432, Note_on_c, 0, 71, 93
2, 6504, Note_off_c, 0, 71, 0
2, 6504, Note_on_c, 0, 67, 93
2, 6528, Note_off_c, 0, 67, 0
2, 6528, Note_on_c, 0, 74, 93
2, 6540, Note_off_c, 0, 74, 0
2, 6540, Note_on_c, 0, 72, 93
2, 6552, Note_off_c, 0, 72, 0
2, 6552, Note_on_c, 0, 74, 93
2, 6672, Note_off_c, 0, 74, 0
2, 6672, Note_on_c, 0, 76, 93
2, 6720, Note_off_c, 0, 76, 0
2, 6720, Note_on_c, 0, 74, 93
2, 6744, Note_off_c, 0, 74, 0
2, 6744, Note_on_c, 0, 72, 93
2, 6756, Note_off_c, 0, 72, 0
2, 6756, Note_on_c, 0, 71, 93
2, 6768, Note_off_c, 0, 71, 0
2, 6768, Note_on_c, 0, 72, 93
2, 6780, Note_off_c, 0, 72, 0
2, 6780, Note_on_c, 0, 74, 93
2, 6786, Note_off_c, 0, 74, 0
2, 6786, Note_on_c, 0, 72, 93
2, 6798, Note_off_c, 0, 72, 0
2, 6798, Note_on_c, 0, 74, 93
2, 6804, Note_off_c, 0, 74, 0
2, 6804, Note_on_c, 0, 72, 93
2, 6810, Note_off_c, 0, 72, 0
2, 6810, Note_on_c, 0, 74, 93
2, 6822, Note_off_c, 0, 74, 0
2, 6822, Note_on_c, 0, 72, 93
2, 6828, Note_off_c, 0, 72, 0
2, 6828, Note_on_c, 0, 74, 93
2, 6834, Note_off_c, 0, 74, 0
2, 6834, Note_on_c, 0, 72, 93
2, 6846, Note_off_c, 0, 72, 0
2, 6846, Note_on_c, 0, 74, 93
2, 6852, Note_off_c, 0, 74, 0
2, 6852, Note_on_c, 0, 72, 93
2, 6858, Note_off_c, 0, 72, 0
2, 6858, Note_on_c, 0, 74, 93
2, 6870, Note_off_c, 0, 74, 0
2, 6870, Note_on_c, 0, 72, 93
2, 6876, Note_off_c, 0, 72, 0
2, 6876, Note_on_c, 0, 71, 93
2, 6888, Note_off_c, 0, 71, 0
2, 6888, Note_on_c, 0, 72, 93
2, 6900, Note_off_c, 0, 72, 0
2, 6900, Note_on_c, 0, 74, 93
2, 6912, Note_off_c, 0, 74, 0
2, 6912, Note_on_c, 0, 67, 93
2, 6984, Note_off_c, 0, 67, 0
2, 6984, Note_on_c, 0, 79, 93
2, 6996, Note_off_c, 0, 79, 0
2, 6996, Note_on_c, 0, 78, 93
2, 7008, Note_off_c, 0, 78, 0
2, 7008, Note_on_c, 0, 79, 93
2, 7080, Note_off_c, 0, 79, 0
2, 7080, Note_on_c, 0, 76, 93
2, 7104, Note_off_c, 0, 76, 0
2, 7104, Note_on_c, 0, 74, 93
2, 7128, Note_off_c, 0, 74, 0
2, 7128, Note_on_c, 0, 73, 93
2, 7176, Note_off_c, 0, 73, 0
2, 7176, Note_on_c, 0, 83, 93
2, 7200, Note_off_c, 0, 83, 0
2, 7200, Note_on_c, 0, 81, 93
2, 7272, Note_off_c, 0, 81, 0
2, 7272, Note_on_c, 0, 79, 93
2, 7296, Note_off_c, 0, 79, 0
2, 7296, Note_on_c, 0, 79, 93
2, 7308, Note_off_c, 0, 79, 0
2, 7308, Note_on_c, 0, 78, 93
2, 7320, Note_off_c, 0, 78, 0
2, 7320, Note_on_c, 0, 76, 93
2, 7332, Note_off_c, 0, 76, 0
2, 7332, Note_on_c, 0, 78, 93
2, 7344, Note_off_c, 0, 78, 0
2, 7344, Note_on_c, 0, 79, 93
2, 7350, Note_off_c, 0, 79, 0
2, 7350, Note_on_c, 0, 78, 93
2, 7362, Note_off_c, 0, 78, 0
2, 7362, Note_on_c, 0, 79, 93
2, 7368, Note_off_c, 0, 79, 0
2, 7368, Note_on_c, 0, 78, 93
2, 7374, Note_off_c, 0, 78, 0
2, 7374, Note_on_c, 0, 79, 93
2, 7386, Note_off_c, 0, 79, 0
2, 7386, Note_on_c, 0, 78, 93
2, 7440, Note_off_c, 0, 78, 0
2, 7440, Note_on_c, 0, 79, 93
2, 7488, Note_off_c, 0, 79, 0
2, 7488, Note_on_c, 0, 79, 93
2, 7512, Note_off_c, 0, 79, 0
2, 7512, Note_on_c, 0, 81, 93
2, 7740, Note_off_c, 0, 81, 0
2, 7740, Note_on_c, 0, 81, 93
2, 7752, Note_off_c, 0, 81, 0
2, 7752, Note_on_c, 0, 79, 93
2, 7764, Note_off_c, 0, 79, 0
2, 7764, Note_on_c, 0, 78, 93
2, 7776, Note_off_c, 0, 78, 0
2, 7776, Note_on_c, 0, 79, 93
2, 7848, Note_off_c, 0, 79, 0
2, 7848, Note_on_c, 0, 74, 93
2, 8064, Note_off_c, 0, 74, 0
2, 8064, Note_on_c, 0, 72, 93
2, 8112, Note_off_c, 0, 72, 0
2, 8352, Note_on_c, 0, 79, 93
2, 8364, Note_off_c, 0, 79, 0
2, 8364, Note_on_c, 0, 78, 93
2, 8376, Note_off_c, 0, 78, 0
2, 8376, Note_on_c, 0, 79, 93
2, 8424, Note_off_c, 0, 79, 0
2, 8424, Note_on_c, 0, 79, 93
2, 8448, Note_off_c, 0, 79, 0
2, 8448, Note_on_c, 0, 79, 93
2, 8556, Note_off_c, 0, 79, 0
2, 8556, Note_on_c, 0, 83, 93
2, 8568, Note_off_c, 0, 83, 0
2, 8568, Note_on_c, 0, 81, 93
2, 8580, Note_off_c, 0, 81, 0
2, 8580, Note_on_c, 0, 79, 93
2, 8592, Note_off_c, 0, 79, 0
2, 8592, Note_on_c, 0, 78, 93
2, 8604, Note_off_c, 0, 78, 0
2, 8604, Note_on_c, 0, 76, 93
2, 8616, Note_off_c, 0, 76, 0
2, 8616, Note_on_c, 0, 74, 93
2, 8628, Note_off_c, 0, 74, 0
2, 8628, Note_on_c, 0, 72, 93
2, 8640, Note_off_c, 0, 72, 0
2, 8640, Note_on_c, 0, 81, 93
2, 8712, Note_off_c, 0, 81, 0
2, 8712, Note_on_c, 0, 72, 93
2, 8736, Note_off_c, 0, 72, 0
2, 8736, Note_on_c, 0, 81, 93
2, 8808, Note_off_c, 0, 81, 0
2, 8808, Note_on_c, 0, 72, 93
2, 8832, Note_off_c, 0, 72, 0
2, 8832, Note_on_c, 0, 72, 93
2, 8844, Note_off_c, 0, 72, 0
2, 8844, Note_on_c, 0, 71, 93
2, 8856, Note_off_c, 0, 71, 0
2, 8856, Note_on_c, 0, 69, 93
2, 8868, Note_off_c, 0, 69, 0
2, 8868, Note_on_c, 0, 71, 93
2, 8880, Note_off_c, 0, 71, 0
2, 8880, Note_on_c, 0, 72, 93
2, 8886, Note_off_c, 0, 72, 0
2, 8886, Note_on_c, 0, 71, 93
2, 8898, Note_off_c, 0, 71, 0
2, 8898, Note_on_c, 0, 72, 93
2, 8904, Note_off_c, 0, 72, 0
2, 8904, Note_on_c, 0, 71, 93
2, 8910, Note_off_c, 0, 71, 0
2, 8910, Note_on_c, 0, 72, 93
2, 8922, Note_off_c, 0, 72, 0
2, 8922, Note_on_c, 0, 71, 93
2, 8988, Note_off_c, 0, 71, 0
2, 8988, Note_on_c, 0, 69, 93
2, 9000, Note_off_c, 0, 69, 0
2, 9000, Note_on_c, 0, 67, 93
2, 9012, Note_off_c, 0, 67, 0
2, 9012, Note_on_c, 0, 66, 93
2, 9024, Note_off_c, 0, 66, 0
2, 9024, Note_on_c, 0, 67, 93
2, 9048, Note_off_c, 0, 67, 0
2, 9048, Note_on_c, 0, 74, 93
2, 9072, Note_off_c, 0, 74, 0
2, 9072, Note_on_c, 0, 76, 93
2, 9096, Note_off_c, 0, 76, 0
2, 9096, Note_on_c, 0, 78, 93
2, 9120, Note_off_c, 0, 78, 0
2, 9120, Note_on_c, 0, 79, 93
2, 9144, Note_off_c, 0, 79, 0
2, 9144, Note_on_c, 0, 78, 93
2, 9168, Note_off_c, 0, 78, 0
2, 9168, Note_on_c, 0, 79, 93
2, 9192, Note_off_c, 0, 79, 0
2, 9192, Note_on_c, 0, 81, 93
2, 9216, Note_off_c, 0, 81, 0
2, 9216, Note_on_c, 0, 83, 93
2, 9276, Note_off_c, 0, 83, 0
2, 9276, Note_on_c, 0, 81, 93
2, 9288, Note_off_c, 0, 81, 0
2, 9288, Note_on_c, 0, 79, 93
2, 9300, Note_off_c, 0, 79, 0
2, 9300, Note_on_c, 0, 78, 93
2, 9312, Note_off_c, 0, 78, 0
2, 9312, Note_on_c, 0, 79, 93
2, 9372, Note_off_c, 0, 79, 0
2, 9372, Note_on_c, 0, 78, 93
2, 9384, Note_off_c, 0, 78, 0
2, 9384, Note_on_c, 0, 76, 93
2, 9396, Note_off_c, 0, 76, 0
2, 9396, Note_on_c, 0, 75, 93
2, 9408, Note_off_c, 0, 75, 0
2, 9408, Note_on_c, 0, 76, 93
2, 9480, Note_off_c, 0, 76, 0
2, 9480, Note_on_c, 0, 71, 93
2, 9504, Note_off_c, 0, 71, 0
2, 9504, Note_on_c, 0, 73, 93
2, 9510, Note_off_c, 0, 73, 0
2, 9510, Note_on_c, 0, 71, 93
2, 9522, Note_off_c, 0, 71, 0
2, 9522, Note_on_c, 0, 73, 93
2, 9576, Note_off_c, 0, 73, 0
2, 9576, Note_on_c, 0, 74, 93
2, 9600, Note_off_c, 0, 74, 0
2, 9600, Note_on_c, 0, 74, 93
2, 9624, Note_off_c, 0, 74, 0
2, 9624, Note_on_c, 0, 73, 93
2, 9660, Note_off_c, 0, 73, 0
2, 9660, Note_on_c, 0, 76, 93
2, 9672, Note_off_c, 0, 76, 0
2, 9672, Note_on_c, 0, 78, 93
2, 9684, Note_off_c, 0, 78, 0
2, 9684, Note_on_c, 0, 79, 93
2, 9696, Note_off_c, 0, 79, 0
2, 9696, Note_on_c, 0, 81, 93
2, 9768, Note_off_c, 0, 81, 0
2, 9768, Note_on_c, 0, 81, 93
2, 9792, Note_off_c, 0, 81, 0
2, 9792, Note_on_c, 0, 81, 93
2, 9948, Note_off_c, 0, 81, 0
2, 9948, Note_on_c, 0, 81, 93
2, 9960, Note_off_c, 0, 81, 0
2, 9960, Note_on_c, 0, 79, 93
2, 9972, Note_off_c, 0, 79, 0
2, 9972, Note_on_c, 0, 78, 93
2, 9984, Note_off_c, 0, 78, 0
2, 9984, Note_on_c, 0, 79, 93
2, 10044, Note_off_c, 0, 79, 0
2, 10044, Note_on_c, 0, 78, 93
2, 10056, Note_off_c, 0, 78, 0
2, 10056, Note_on_c, 0, 76, 93
2, 10068, Note_off_c, 0, 76, 0
2, 10068, Note_on_c, 0, 75, 93
2, 10080, Note_off_c, 0, 75, 0
2, 10080, Note_on_c, 0, 76, 93
2, 10152, Note_off_c, 0, 76, 0
2, 10152, Note_on_c, 0, 83, 93
2, 10176, Note_off_c, 0, 83, 0
2, 10176, Note_on_c, 0, 76, 93
2, 10188, Note_off_c, 0, 76, 0
2, 10188, Note_on_c, 0, 74, 93
2, 10200, Note_off_c, 0, 74, 0
2, 10200, Note_on_c, 0, 72, 93
2, 10212, Note_off_c, 0, 72, 0
2, 10212, Note_on_c, 0, 74, 93
2, 10224, Note_off_c, 0, 74, 0
2, 10224, Note_on_c, 0, 76, 93
2, 10230, Note_off_c, 0, 76, 0
2, 10230, Note_on_c, 0, 74, 93
2, 10242, Note_off_c, 0, 74, 0
2, 10242, Note_on_c, 0, 76, 93
2, 10248, Note_off_c, 0, 76, 0
2, 10248, Note_on_c, 0, 74, 93
2, 10254, Note_off_c, 0, 74, 0
2, 10254, Note_on_c, 0, 76, 93
2, 10266, Note_off_c, 0, 76, 0
2, 10266, Note_on_c, 0, 74, 93
2, 10272, Note_off_c, 0, 74, 0
2, 10272, Note_on_c, 0, 76, 93
2, 10278, Note_off_c, 0, 76, 0
2, 10278, Note_on_c, 0, 74, 93
2, 10320, Note_off_c, 0, 74, 0
2, 10320, Note_on_c, 0, 73, 93
2, 10344, Note_off_c, 0, 73, 0
2, 10344, Note_on_c, 0, 71, 93
2, 10368, Note_off_c, 0, 71, 0
2, 10368, Note_on_c, 0, 73, 93
2, 10428, Note_off_c, 0, 73, 0
2, 10428, Note_on_c, 0, 74, 93
2, 10440, Note_off_c, 0, 74, 0
2, 10440, Note_on_c, 0, 73, 93
2, 10452, Note_off_c, 0, 73, 0
2, 10452, Note_on_c, 0, 74, 93
2, 10464, Note_off_c, 0, 74, 0
2, 10464, Note_on_c, 0, 76, 93
2, 10470, Note_off_c, 0, 76, 0
2, 10470, Note_on_c, 0, 74, 93
2, 10482, Note_off_c, 0, 74, 0
2, 10482, Note_on_c, 0, 76, 93
2, 10488, Note_off_c, 0, 76, 0
2, 10488, Note_on_c, 0, 74, 93
2, 10494, Note_off_c, 0, 74, 0
2, 10494, Note_on_c, 0, 76, 93
2, 10506, Note_off_c, 0, 76, 0
2, 10506, Note_on_c, 0, 74, 93
2, 10512, Note_off_c, 0, 74, 0
2, 10512, Note_on_c, 0, 76, 93
2, 10524, Note_off_c, 0, 76, 0
2, 10524, Note_on_c, 0, 74, 93
2, 10536, Note_off_c, 0, 74, 0
2, 10536, Note_on_c, 0, 73, 93
2, 10548, Note_off_c, 0, 73, 0
2, 10548, Note_on_c, 0, 74, 93
2, 10560, Note_off_c, 0, 74, 0
2, 10560, Note_on_c, 0, 76, 93
2, 10668, Note_off_c, 0, 76, 0
2, 10668, Note_on_c, 0, 74, 93
2, 10680, Note_off_c, 0, 74, 0
2, 10680, Note_on_c, 0, 73, 93
2, 10692, Note_off_c, 0, 73, 0
2, 10692, Note_on_c, 0, 71, 93
2, 10704, Note_off_c, 0, 71, 0
2, 10704, Note_on_c, 0, 69, 93
2, 10716, Note_off_c, 0, 69, 0
2, 10716, Note_on_c, 0, 67, 93
2, 10728, Note_off_c, 0, 67, 0
2, 10728, Note_on_c, 0, 66, 93
2, 10740, Note_off_c, 0, 66, 0
2, 10740, Note_on_c, 0, 64, 93
2, 10752, Note_off_c, 0, 64, 0
2, 10752, Note_on_c, 0, 62, 93
2, 10824, Note_off_c, 0, 62, 0
2, 10824, Note_on_c, 0, 66, 93
2, 10848, Note_off_c, 0, 66, 0
2, 10848, Note_on_c, 0, 69, 93
2, 10860, Note_off_c, 0, 69, 0
2, 10860, Note_on_c, 0, 67, 93
2, 10872, Note_off_c, 0, 67, 0
2, 10872, Note_on_c, 0, 69, 93
2, 10920, Note_off_c, 0, 69, 0
2, 10920, Note_on_c, 0, 71, 93
2, 10944, Note_off_c, 0, 71, 0
2, 10944, Note_on_c, 0, 72, 93
2, 11100, Note_off_c, 0, 72, 0
2, 11100, Note_on_c, 0, 72, 93
2, 11112, Note_off_c, 0, 72, 0
2, 11112, Note_on_c, 0, 71, 93
2, 11124, Note_off_c, 0, 71, 0
2, 11124, Note_on_c, 0, 69, 93
2, 11136, Note_off_c, 0, 69, 0
2, 11136, Note_on_c, 0, 71, 93
2, 11196, Note_off_c, 0, 71, 0
2, 11196, Note_on_c, 0, 73, 93
2, 11208, Note_off_c, 0, 73, 0
2, 11208, Note_on_c, 0, 74, 93
2, 11220, Note_off_c, 0, 74, 0
2, 11220, Note_on_c, 0, 76, 93
2, 11232, Note_off_c, 0, 76, 0
2, 11232, Note_on_c, 0, 76, 93
2, 11244, Note_off_c, 0, 76, 0
2, 11244, Note_on_c, 0, 74, 93
2, 11256, Note_off_c, 0, 74, 0
2, 11256, Note_on_c, 0, 76, 93
2, 11268, Note_off_c, 0, 76, 0
2, 11268, Note_on_c, 0, 74, 93
2, 11292, Note_off_c, 0, 74, 0
2, 11292, Note_on_c, 0, 73, 93
2, 11304, Note_off_c, 0, 73, 0
2, 11304, Note_on_c, 0, 74, 93
2, 11316, Note_off_c, 0, 74, 0
2, 11316, Note_on_c, 0, 76, 93
2, 11328, Note_off_c, 0, 76, 0
2, 11328, Note_on_c, 0, 69, 93
2, 11388, Note_off_c, 0, 69, 0
2, 11388, Note_on_c, 0, 76, 93
2, 11400, Note_off_c, 0, 76, 0
2, 11400, Note_on_c, 0, 78, 93
2, 11412, Note_off_c, 0, 78, 0
2, 11412, Note_on_c, 0, 79, 93
2, 11424, Note_off_c, 0, 79, 0
2, 11424, Note_on_c, 0, 81, 93
2, 11496, Note_off_c, 0, 81, 0
2, 11496, Note_on_c, 0, 73, 93
2, 11520, Note_off_c, 0, 73, 0
2, 11520, Note_on_c, 0, 74, 93
2, 11616, Note_off_c, 0, 74, 0
2, 11616, Note_on_c, 0, 76, 93
2, 11628, Note_off_c, 0, 76, 0
2, 11628, Note_on_c, 0, 74, 93
2, 11640, Note_off_c, 0, 74, 0
2, 11640, Note_on_c, 0, 73, 93
2, 11652, Note_off_c, 0, 73, 0
2, 11652, Note_on_c, 0, 74, 93
2, 11664, Note_off_c, 0, 74, 0
2, 11664, Note_on_c, 0, 76, 93
2, 11712, Note_off_c, 0, 76, 0
2, 11712, Note_on_c, 0, 78, 93
2, 11724, Note_off_c, 0, 78, 0
2, 11724, Note_on_c, 0, 76, 93
2, 11736, Note_off_c, 0, 76, 0
2, 11736, Note_on_c, 0, 74, 93
2, 11748, Note_off_c, 0, 74, 0
2, 11748, Note_on_c, 0, 76, 93
2, 11760, Note_off_c, 0, 76, 0
2, 11760, Note_on_c, 0, 78, 93
2, 11766, Note_off_c, 0, 78, 0
2, 11766, Note_on_c, 0, 76, 93
2, 11778, Note_off_c, 0, 76, 0
2, 11778, Note_on_c, 0, 78, 93
2, 11784, Note_off_c, 0, 78, 0
2, 11784, Note_on_c, 0, 76, 93
2, 11790, Note_off_c, 0, 76, 0
2, 11790, Note_on_c, 0, 78, 93
2, 11802, Note_off_c, 0, 78, 0
2, 11802, Note_on_c, 0, 76, 93
2, 11856, Note_off_c, 0, 76, 0
2, 11856, Note_on_c, 0, 74, 93
2, 11904, Note_off_c, 0, 74, 0
2, 11904, Note_on_c, 0, 74, 93
2, 11952, Note_off_c, 0, 74, 0
2, 11952, Note_on_c, 0, 81, 93
2, 11976, Note_off_c, 0, 81, 0
2, 11976, Note_on_c, 0, 79, 93
2, 12000, Note_off_c, 0, 79, 0
2, 12000, Note_on_c, 0, 78, 93
2, 12024, Note_off_c, 0, 78, 0
2, 12024, Note_on_c, 0, 76, 93
2, 12048, Note_off_c, 0, 76, 0
2, 12048, Note_on_c, 0, 78, 93
2, 12096, Note_off_c, 0, 78, 0
2, 12096, Note_on_c, 0, 81, 93
2, 12108, Note_off_c, 0, 81, 0
2, 12108, Note_on_c, 0, 79, 93
2, 12120, Note_off_c, 0, 79, 0
2, 12120, Note_on_c, 0, 78, 93
2, 12132, Note_off_c, 0, 78, 0
2, 12132, Note_on_c, 0, 79, 93
2, 12144, Note_off_c, 0, 79, 0
2, 12144, Note_on_c, 0, 81, 93
2, 12192, Note_off_c, 0, 81, 0
2, 12192, Note_on_c, 0, 74, 93
2, 12216, Note_off_c, 0, 74, 0
2, 12216, Note_on_c, 0, 78, 93
2, 12240, Note_off_c, 0, 78, 0
2, 12240, Note_on_c, 0, 76, 93
2, 12264, Note_off_c, 0, 76, 0
2, 12264, Note_on_c, 0, 79, 93
2, 12288, Note_off_c, 0, 79, 0
2, 12288, Note_on_c, 0, 78, 93
2, 12312, Note_off_c, 0, 78, 0
2, 12312, Note_on_c, 0, 81, 93
2, 12336, Note_off_c, 0, 81, 0
2, 12336, Note_on_c, 0, 79, 93
2, 12384, Note_off_c, 0, 79, 0
2, 12384, Note_on_c, 0, 78, 93
2, 12432, Note_off_c, 0, 78, 0
2, 12432, Note_on_c, 0, 79, 93
2, 12480, Note_off_c, 0, 79, 0
2, 12480, Note_on_c, 0, 76, 93
2, 12528, Note_off_c, 0, 76, 0
2, 12528, Note_on_c, 0, 75, 93
2, 12576, Note_off_c, 0, 75, 0
2, 12576, Note_on_c, 0, 76, 93
2, 12624, Note_off_c, 0, 76, 0
2, 12624, Note_on_c, 0, 81, 93
2, 12816, Note_off_c, 0, 81, 0
2, 12816, Note_on_c, 0, 79, 93
2, 12840, Note_off_c, 0, 79, 0
2, 12840, Note_on_c, 0, 76, 93
2, 12864, Note_off_c, 0, 76, 0
2, 12864, Note_on_c, 0, 78, 93
2, 12888, Note_off_c, 0, 78, 0
2, 12888, Note_on_c, 0, 75, 93
2, 12912, Note_off_c, 0, 75, 0
2, 12912, Note_on_c, 0, 83, 93
2, 13080, Note_off_c, 0, 83, 0
2, 13080, Note_on_c, 0, 84, 93
2, 13104, Note_off_c, 0, 84, 0
2, 13104, Note_on_c, 0, 83, 93
2, 13128, Note_off_c, 0, 83, 0
2, 13128, Note_on_c, 0, 81, 93
2, 13152, Note_off_c, 0, 81, 0
2, 13152, Note_on_c, 0, 79, 93
2, 13176, Note_off_c, 0, 79, 0
2, 13176, Note_on_c, 0, 78, 93
2, 13200, Note_off_c, 0, 78, 0
2, 13200, Note_on_c, 0, 79, 93
2, 13224, Note_off_c, 0, 79, 0
2, 13224, Note_on_c, 0, 76, 93
2, 13248, Note_off_c, 0, 76, 0
2, 13248, Note_on_c, 0, 81, 93
2, 13272, Note_off_c, 0, 81, 0
2, 13272, Note_on_c, 0, 76, 93
2, 13296, Note_off_c, 0, 76, 0
2, 13296, Note_on_c, 0, 83, 93
2, 13320, Note_off_c, 0, 83, 0
2, 13320, Note_on_c, 0, 76, 93
2, 13344, Note_off_c, 0, 76, 0
2, 13344, Note_on_c, 0, 84, 93
2, 13368, Note_off_c, 0, 84, 0
2, 13368, Note_on_c, 0, 83, 93
2, 13392, Note_off_c, 0, 83, 0
2, 13392, Note_on_c, 0, 81, 93
2, 13416, Note_off_c, 0, 81, 0
2, 13416, Note_on_c, 0, 79, 93
2, 13440, Note_off_c, 0, 79, 0
2, 13440, Note_on_c, 0, 78, 93
2, 13464, Note_off_c, 0, 78, 0
2, 13464, Note_on_c, 0, 76, 93
2, 13488, Note_off_c, 0, 76, 0
2, 13488, Note_on_c, 0, 74, 93
2, 13512, Note_off_c, 0, 74, 0
2, 13512, Note_on_c, 0, 78, 93
2, 13536, Note_off_c, 0, 78, 0
2, 13536, Note_on_c, 0, 76, 93
2, 13560, Note_off_c, 0, 76, 0
2, 13560, Note_on_c, 0, 79, 93
2, 13584, Note_off_c, 0, 79, 0
2, 13584, Note_on_c, 0, 78, 93
2, 13608, Note_off_c, 0, 78, 0
2, 13608, Note_on_c, 0, 81, 93
2, 13632, Note_off_c, 0, 81, 0
2, 13632, Note_on_c, 0, 79, 93
2, 13656, Note_off_c, 0, 79, 0
2, 13656, Note_on_c, 0, 81, 93
2, 13680, Note_off_c, 0, 81, 0
2, 13680, Note_on_c, 0, 83, 93
2, 13692, Note_off_c, 0, 83, 0
2, 13692, Note_on_c, 0, 81, 93
2, 13704, Note_off_c, 0, 81, 0
2, 13704, Note_on_c, 0, 83, 93
2, 13716, Note_off_c, 0, 83, 0
2, 13716, Note_on_c, 0, 81, 93
2, 13728, Note_off_c, 0, 81, 0
2, 13728, Note_on_c, 0, 83, 93
2, 13740, Note_off_c, 0, 83, 0
2, 13740, Note_on_c, 0, 81, 93
2, 13752, Note_off_c, 0, 81, 0
2, 13752, Note_on_c, 0, 79, 93
2, 13764, Note_off_c, 0, 79, 0
2, 13764, Note_on_c, 0, 81, 93
2, 13776, Note_off_c, 0, 81, 0
2, 13776, Note_on_c, 0, 83, 93
2, 13872, Note_off_c, 0, 83, 0
2, 13872, Note_on_c, 0, 79, 93
2, 13920, Note_off_c, 0, 79, 0
2, 13920, Note_on_c, 0, 76, 93
2, 13968, Note_off_c, 0, 76, 0
2, 13968, Note_on_c, 0, 78, 93
2, 14016, Note_off_c, 0, 78, 0
2, 14016, Note_on_c, 0, 75, 93
2, 14064, Note_off_c, 0, 75, 0
2, 14064, Note_on_c, 0, 76, 93
2, 14160, Note_off_c, 0, 76, 0
2, 14256, Note_on_c, 0, 76, 93
2, 14280, Note_off_c, 0, 76, 0
2, 14280, Note_on_c, 0, 74, 93
2, 14304, Note_off_c, 0, 74, 0
2, 14304, Note_on_c, 0, 72, 93
2, 14328, Note_off_c, 0, 72, 0
2, 14328, Note_on_c, 0, 71, 93
2, 14352, Note_off_c, 0, 71, 0
2, 14352, Note_on_c, 0, 72, 93
2, 14400, Note_off_c, 0, 72, 0
2, 14400, Note_on_c, 0, 74, 93
2, 14448, Note_off_c, 0, 74, 0
2, 14448, Note_on_c, 0, 76, 93
2, 14496, Note_off_c, 0, 76, 0
2, 14496, Note_on_c, 0, 69, 93
2, 14520, Note_off_c, 0, 69, 0
2, 14520, Note_on_c, 0, 72, 93
2, 14544, Note_off_c, 0, 72, 0
2, 14544, Note_on_c, 0, 71, 93
2, 14568, Note_off_c, 0, 71, 0
2, 14568, Note_on_c, 0, 74, 93
2, 14592, Note_off_c, 0, 74, 0
2, 14592, Note_on_c, 0, 73, 93
2, 14616, Note_off_c, 0, 73, 0
2, 14616, Note_on_c, 0, 76, 93
2, 14640, Note_off_c, 0, 76, 0
2, 14640, Note_on_c, 0, 74, 93
2, 14652, Note_off_c, 0, 74, 0
2, 14652, Note_on_c, 0, 76, 93
2, 14664, Note_off_c, 0, 76, 0
2, 14664, Note_on_c, 0, 78, 93
2, 14688, Note_off_c, 0, 78, 0
2, 14688, Note_on_c, 0, 79, 93
2, 14700, Note_off_c, 0, 79, 0
2, 14700, Note_on_c, 0, 78, 93
2, 14712, Note_off_c, 0, 78, 0
2, 14712, Note_on_c, 0, 76, 93
2, 14724, Note_off_c, 0, 76, 0
2, 14724, Note_on_c, 0, 78, 93
2, 14736, Note_off_c, 0, 78, 0
2, 14736, Note_on_c, 0, 79, 93
2, 14742, Note_off_c, 0, 79, 0
2, 14742, Note_on_c, 0, 78, 93
2, 14748, Note_off_c, 0, 78, 0
2, 14748, Note_on_c, 0, 79, 93
2, 14754, Note_off_c, 0, 79, 0
2, 14754, Note_on_c, 0, 78, 93
2, 14760, Note_off_c, 0, 78, 0
2, 14760, Note_on_c, 0, 76, 93
2, 14772, Note_off_c, 0, 76, 0
2, 14772, Note_on_c, 0, 78, 93
2, 14784, Note_off_c, 0, 78, 0
2, 14784, Note_on_c, 0, 79, 93
2, 14832, Note_off_c, 0, 79, 0
2, 14832, Note_on_c, 0, 78, 93
2, 14856, Note_off_c, 0, 78, 0
2, 14856, Note_on_c, 0, 76, 93
2, 14880, Note_off_c, 0, 76, 0
2, 14880, Note_on_c, 0, 74, 93
2, 14904, Note_off_c, 0, 74, 0
2, 14904, Note_on_c, 0, 72, 93
2, 14928, Note_off_c, 0, 72, 0
2, 14928, Note_on_c, 0, 71, 93
2, 14952, Note_off_c, 0, 71, 0
2, 14952, Note_on_c, 0, 74, 93
2, 14976, Note_off_c, 0, 74, 0
2, 14976, Note_on_c, 0, 72, 93
2, 15000, Note_off_c, 0, 72, 0
2, 15000, Note_on_c, 0, 76, 93
2, 15024, Note_off_c, 0, 76, 0
2, 15024, Note_on_c, 0, 74, 93
2, 15048, Note_off_c, 0, 74, 0
2, 15048, Note_on_c, 0, 77, 93
2, 15072, Note_off_c, 0, 77, 0
2, 15072, Note_on_c, 0, 76, 93
2, 15240, Note_off_c, 0, 76, 0
2, 15240, Note_on_c, 0, 74, 93
2, 15264, Note_off_c, 0, 74, 0
2, 15264, Note_on_c, 0, 72, 93
2, 15288, Note_off_c, 0, 72, 0
2, 15288, Note_on_c, 0, 71, 93
2, 15312, Note_off_c, 0, 71, 0
2, 15312, Note_on_c, 0, 72, 93
2, 15336, Note_off_c, 0, 72, 0
2, 15336, Note_on_c, 0, 78, 93
2, 15360, Note_off_c, 0, 78, 0
2, 15360, Note_on_c, 0, 81, 93
2, 15384, Note_off_c, 0, 81, 0
2, 15384, Note_on_c, 0, 74, 93
2, 15408, Note_off_c, 0, 74, 0
2, 15408, Note_on_c, 0, 72, 93
2, 15432, Note_off_c, 0, 72, 0
2, 15432, Note_on_c, 0, 71, 93
2, 15456, Note_off_c, 0, 71, 0
2, 15456, Note_on_c, 0, 72, 93
2, 15480, Note_off_c, 0, 72, 0
2, 15480, Note_on_c, 0, 69, 93
2, 15504, Note_off_c, 0, 69, 0
2, 15504, Note_on_c, 0, 71, 93
2, 15528, Note_off_c, 0, 71, 0
2, 15528, Note_on_c, 0, 76, 93
2, 15552, Note_off_c, 0, 76, 0
2, 15552, Note_on_c, 0, 74, 93
2, 15576, Note_off_c, 0, 74, 0
2, 15576, Note_on_c, 0, 72, 93
2, 15600, Note_off_c, 0, 72, 0
2, 15600, Note_on_c, 0, 74, 93
2, 15624, Note_off_c, 0, 74, 0
2, 15624, Note_on_c, 0, 80, 93
2, 15648, Note_off_c, 0, 80, 0
2, 15648, Note_on_c, 0, 83, 93
2, 15672, Note_off_c, 0, 83, 0
2, 15672, Note_on_c, 0, 76, 93
2, 15696, Note_off_c, 0, 76, 0
2, 15696, Note_on_c, 0, 74, 93
2, 15720, Note_off_c, 0, 74, 0
2, 15720, Note_on_c, 0, 72, 93
2, 15744, Note_off_c, 0, 72, 0
2, 15744, Note_on_c, 0, 74, 93
2, 15768, Note_off_c, 0, 74, 0
2, 15768, Note_on_c, 0, 71, 93
2, 15792, Note_off_c, 0, 71, 0
2, 15792, Note_on_c, 0, 72, 93
2, 15960, Note_off_c, 0, 72, 0
2, 15960, Note_on_c, 0, 71, 93
2, 15984, Note_off_c, 0, 71, 0
2, 15984, Note_on_c, 0, 69, 93
2, 16008, Note_off_c, 0, 69, 0
2, 16008, Note_on_c, 0, 71, 93
2, 16032, Note_off_c, 0, 71, 0
2, 16032, Note_on_c, 0, 72, 93
2, 16056, Note_off_c, 0, 72, 0
2, 16056, Note_on_c, 0, 69, 93
2, 16080, Note_off_c, 0, 69, 0
2, 16080, Note_on_c, 0, 74, 93
2, 16176, Note_off_c, 0, 74, 0
2, 16176, Note_on_c, 0, 71, 93
2, 16224, Note_off_c, 0, 71, 0
2, 16224, Note_on_c, 0, 67, 93
2, 16272, Note_off_c, 0, 67, 0
2, 16272, Note_on_c, 0, 69, 93
2, 16320, Note_off_c, 0, 69, 0
2, 16320, Note_on_c, 0, 66, 93
2, 16368, Note_off_c, 0, 66, 0
2, 16368, Note_on_c, 0, 67, 93
2, 16464, Note_off_c, 0, 67, 0
2, 16560, Note_on_c, 0, 81, 93
2, 16584, Note_off_c, 0, 81, 0
2, 16584, Note_on_c, 0, 79, 93
2, 16608, Note_off_c, 0, 79, 0
2, 16608, Note_on_c, 0, 78, 93
2, 16632, Note_off_c, 0, 78, 0
2, 16632, Note_on_c, 0, 76, 93
2, 16656, Note_off_c, 0, 76, 0
2, 16656, Note_on_c, 0, 78, 93
2, 16704, Note_off_c, 0, 78, 0
2, 16704, Note_on_c, 0, 81, 93
2, 16716, Note_off_c, 0, 81, 0
2, 16716, Note_on_c, 0, 79, 93
2, 16728, Note_off_c, 0, 79, 0
2, 16728, Note_on_c, 0, 78, 93
2, 16740, Note_off_c, 0, 78, 0
2, 16740, Note_on_c, 0, 79, 93
2, 16752, Note_off_c, 0, 79, 0
2, 16752, Note_on_c, 0, 81, 93
2, 16800, Note_off_c, 0, 81, 0
2, 16800, Note_on_c, 0, 74, 93
2, 16824, Note_off_c, 0, 74, 0
2, 16824, Note_on_c, 0, 78, 93
2, 16848, Note_off_c, 0, 78, 0
2, 16848, Note_on_c, 0, 76, 93
2, 16872, Note_off_c, 0, 76, 0
2, 16872, Note_on_c, 0, 79, 93
2, 16896, Note_off_c, 0, 79, 0
2, 16896, Note_on_c, 0, 78, 93
2, 16920, Note_off_c, 0, 78, 0
2, 16920, Note_on_c, 0, 81, 93
2, 16944, Note_off_c, 0, 81, 0
2, 16944, Note_on_c, 0, 79, 93
2, 16992, Note_off_c, 0, 79, 0
2, 16992, Note_on_c, 0, 78, 93
2, 17040, Note_off_c, 0, 78, 0
2, 17040, Note_on_c, 0, 79, 93
2, 17088, Note_off_c, 0, 79, 0
2, 17088, Note_on_c, 0, 76, 93
2, 17136, Note_off_c, 0, 76, 0
2, 17136, Note_on_c, 0, 75, 93
2, 17184, Note_off_c, 0, 75, 0
2, 17184, Note_on_c, 0, 76, 93
2, 17232, Note_off_c, 0, 76, 0
2, 17232, Note_on_c, 0, 81, 93
2, 17424, Note_off_c, 0, 81, 0
2, 17424, Note_on_c, 0, 79, 93
2, 17448, Note_off_c, 0, 79, 0
2, 17448, Note_on_c, 0, 76, 93
2, 17472, Note_off_c, 0, 76, 0
2, 17472, Note_on_c, 0, 78, 93
2, 17496, Note_off_c, 0, 78, 0
2, 17496, Note_on_c, 0, 75, 93
2, 17520, Note_off_c, 0, 75, 0
2, 17520, Note_on_c, 0, 83, 93
2, 17688, Note_off_c, 0, 83, 0
2, 17688, Note_on_c, 0, 84, 93
2, 17712, Note_off_c, 0, 84, 0
2, 17712, Note_on_c, 0, 83, 93
2, 17736, Note_off_c, 0, 83, 0
2, 17736, Note_on_c, 0, 81, 93
2, 17760, Note_off_c, 0, 81, 0
2, 17760, Note_on_c, 0, 79, 93
2, 17784, Note_off_c, 0, 79, 0
2, 17784, Note_on_c, 0, 78, 93
2, 17808, Note_off_c, 0, 78, 0
2, 17808, Note_on_c, 0, 79, 93
2, 17832, Note_off_c, 0, 79, 0
2, 17832, Note_on_c, 0, 76, 93
2, 17856, Note_off_c, 0, 76, 0
2, 17856, Note_on_c, 0, 81, 93
2, 17880, Note_off_c, 0, 81, 0
2, 17880, Note_on_c, 0, 76, 93
2, 17904, Note_off_c, 0, 76, 0
2, 17904, Note_on_c, 0, 83, 93
2, 17928, Note_off_c, 0, 83, 0
2, 17928, Note_on_c, 0, 76, 93
2, 17952, Note_off_c, 0, 76, 0
2, 17952, Note_on_c, 0, 84, 93
2, 17976, Note_off_c, 0, 84, 0
2, 17976, Note_on_c, 0, 83, 93
2, 18000, Note_off_c, 0, 83, 0
2, 18000, Note_on_c, 0, 81, 93
2, 18024, Note_off_c, 0, 81, 0
2, 18024, Note_on_c, 0, 79, 93
2, 18048, Note_off_c, 0, 79, 0
2, 18048, Note_on_c, 0, 78, 93
2, 18072, Note_off_c, 0, 78, 0
2, 18072, Note_on_c, 0, 76, 93
2, 18096, Note_off_c, 0, 76, 0
2, 18096, Note_on_c, 0, 74, 93
2, 18120, Note_off_c, 0, 74, 0
2, 18120, Note_on_c, 0, 78, 93
2, 18144, Note_off_c, 0, 78, 0
2, 18144, Note_on_c, 0, 76, 93
2, 18168, Note_off_c, 0, 76, 0
2, 18168, Note_on_c, 0, 79, 93
2, 18192, Note_off_c, 0, 79, 0
2, 18192, Note_on_c, 0, 78, 93
2, 18216, Note_off_c, 0, 78, 0
2, 18216, Note_on_c, 0, 81, 93
2, 18240, Note_off_c, 0, 81, 0
2, 18240, Note_on_c, 0, 79, 93
2, 18264, Note_off_c, 0, 79, 0
2, 18264, Note_on_c, 0, 81, 93
2, 18288, Note_off_c, 0, 81, 0
2, 18288, Note_on_c, 0, 83, 93
2, 18300, Note_off_c, 0, 83, 0
2, 18300, Note_on_c, 0, 81, 93
2, 18312, Note_off_c, 0, 81, 0
2, 18312, Note_on_c, 0, 83, 93
2, 18324, Note_off_c, 0, 83, 0
2, 18324, Note_on_c, 0, 81, 93
2, 18336, Note_off_c, 0, 81, 0
2, 18336, Note_on_c, 0, 83, 93
2, 18348, Note_off_c, 0, 83, 0
2, 18348, Note_on_c, 0, 81, 93
2, 18360, Note_off_c, 0, 81, 0
2, 18360, Note_on_c, 0, 79, 93
2, 18372, Note_off_c, 0, 79, 0
2, 18372, Note_on_c, 0, 81, 93
2, 18384, Note_off_c, 0, 81, 0
2, 18384, Note_on_c, 0, 83, 93
2, 18480, Note_off_c, 0, 83, 0
2, 18480, Note_on_c, 0, 79, 93
2, 18528, Note_off_c, 0, 79, 0
2, 18528, Note_on_c, 0, 76, 93
2, 18576, Note_off_c, 0, 76, 0
2, 18576, Note_on_c, 0, 78, 93
2, 18624, Note_off_c, 0, 78, 0
2, 18624, Note_on_c, 0, 75, 93
2, 18672, Note_off_c, 0, 75, 0
2, 18672, Note_on_c, 0, 76, 93
2, 18768, Note_off_c, 0, 76, 0
2, 18864, Note_on_c, 0, 76, 93
2, 18888, Note_off_c, 0, 76, 0
2, 18888, Note_on_c, 0, 74, 93
2, 18912, Note_off_c, 0, 74, 0
2, 18912, Note_on_c, 0, 72, 93
2, 18936, Note_off_c, 0, 72, 0
2, 18936, Note_on_c, 0, 71, 93
2, 18960, Note_off_c, 0, 71, 0
2, 18960, Note_on_c, 0, 72, 93
2, 19008, Note_off_c, 0, 72, 0
2, 19008, Note_on_c, 0, 74, 93
2, 19056, Note_off_c, 0, 74, 0
2, 19056, Note_on_c, 0, 76, 93
2, 19104, Note_off_c, 0, 76, 0
2, 19104, Note_on_c, 0, 69, 93
2, 19128, Note_off_c, 0, 69, 0
2, 19128, Note_on_c, 0, 72, 93
2, 19152, Note_off_c, 0, 72, 0
2, 19152, Note_on_c, 0, 71, 93
2, 19176, Note_off_c, 0, 71, 0
2, 19176, Note_on_c, 0, 74, 93
2, 19200, Note_off_c, 0, 74, 0
2, 19200, Note_on_c, 0, 73, 93
2, 19224, Note_off_c, 0, 73, 0
2, 19224, Note_on_c, 0, 76, 93
2, 19248, Note_off_c, 0, 76, 0
2, 19248, Note_on_c, 0, 74, 93
2, 19260, Note_off_c, 0, 74, 0
2, 19260, Note_on_c, 0, 76, 93
2, 19272, Note_off_c, 0, 76, 0
2, 19272, Note_on_c, 0, 78, 93
2, 19296, Note_off_c, 0, 78, 0
2, 19296, Note_on_c, 0, 79, 93
2, 19308, Note_off_c, 0, 79, 0
2, 19308, Note_on_c, 0, 78, 93
2, 19320, Note_off_c, 0, 78, 0
2, 19320, Note_on_c, 0, 76, 93
2, 19332, Note_off_c, 0, 76, 0
2, 19332, Note_on_c, 0, 78, 93
2, 19344, Note_off_c, 0, 78, 0
2, 19344, Note_on_c, 0, 79, 93
2, 19350, Note_off_c, 0, 79, 0
2, 19350, Note_on_c, 0, 78, 93
2, 19356, Note_off_c, 0, 78, 0
2, 19356, Note_on_c, 0, 79, 93
2, 19362, Note_off_c, 0, 79, 0
2, 19362, Note_on_c, 0, 78, 93
2, 19368, Note_off_c, 0, 78, 0
2, 19368, Note_on_c, 0, 76, 93
2, 19380, Note_off_c, 0, 76, 0
2, 19380, Note_on_c, 0, 78, 93
2, 19392, Note_off_c, 0, 78, 0
2, 19392, Note_on_c, 0, 79, 93
2, 19440, Note_off_c, 0, 79, 0
2, 19440, Note_on_c, 0, 78, 93
2, 19464, Note_off_c, 0, 78, 0
2, 19464, Note_on_c, 0, 76, 93
2, 19488, Note_off_c, 0, 76, 0
2, 19488, Note_on_c, 0, 74, 93
2, 19512, Note_off_c, 0, 74, 0
2, 19512, Note_on_c, 0, 72, 93
2, 19536, Note_off_c, 0, 72, 0
2, 19536, Note_on_c, 0, 71, 93
2, 19560, Note_off_c, 0, 71, 0
2, 19560, Note_on_c, 0, 74, 93
2, 19584, Note_off_c, 0, 74, 0
2, 19584, Note_on_c, 0, 72, 93
2, 19608, Note_off_c, 0, 72, 0
2, 19608, Note_on_c, 0, 76, 93
2, 19632, Note_off_c, 0, 76, 0
2, 19632, Note_on_c, 0, 74, 93
2, 19656, Note_off_c, 0, 74, 0
2, 19656, Note_on_c, 0, 77, 93
2, 19680, Note_off_c, 0, 77, 0
2, 19680, Note_on_c, 0, 76, 93
2, 19848, Note_off_c, 0, 76, 0
2, 19848, Note_on_c, 0, 74, 93
2, 19872, Note_off_c, 0, 74, 0
2, 19872, Note_on_c, 0, 72, 93
2, 19896, Note_off_c, 0, 72, 0
2, 19896, Note_on_c, 0, 71, 93
2, 19920, Note_off_c, 0, 71, 0
2, 19920, Note_on_c, 0, 72, 93
2, 19944, Note_off_c, 0, 72, 0
2, 19944, Note_on_c, 0, 78, 93
2, 19968, Note_off_c, 0, 78, 0
2, 19968, Note_on_c, 0, 81, 93
2, 19992, Note_off_c, 0, 81, 0
2, 19992, Note_on_c, 0, 74, 93
2, 20016, Note_off_c, 0, 74, 0
2, 20016, Note_on_c, 0, 72, 93
2, 20040, Note_off_c, 0, 72, 0
2, 20040, Note_on_c, 0, 71, 93
2, 20064, Note_off_c, 0, 71, 0
2, 20064, Note_on_c, 0, 72, 93
2, 20088, Note_off_c, 0, 72, 0
2, 20088, Note_on_c, 0, 69, 93
2, 20112, Note_off_c, 0, 69, 0
2, 20112, Note_on_c, 0, 71, 93
2, 20136, Note_off_c, 0, 71, 0
2, 20136, Note_on_c, 0, 76, 93
2, 20160, Note_off_c, 0, 76, 0
2, 20160, Note_on_c, 0, 74, 93
2, 20184, Note_off_c, 0, 74, 0
2, 20184, Note_on_c, 0, 72, 93
2, 20208, Note_off_c, 0, 72, 0
2, 20208, Note_on_c, 0, 74, 93
2, 20232, Note_off_c, 0, 74, 0
2, 20232, Note_on_c, 0, 80, 93
2, 20256, Note_off_c, 0, 80, 0
2, 20256, Note_on_c, 0, 83, 93
2, 20280, Note_off_c, 0, 83, 0
2, 20280, Note_on_c, 0, 76, 93
2, 20304, Note_off_c, 0, 76, 0
2, 20304, Note_on_c, 0, 74, 93
2, 20328, Note_off_c, 0, 74, 0
2, 20328, Note_on_c, 0, 72, 93
2, 20352, Note_off_c, 0, 72, 0
2, 20352, Note_on_c, 0, 74, 93
2, 20376, Note_off_c, 0, 74, 0
2, 20376, Note_on_c, 0, 71, 93
2, 20400, Note_off_c, 0, 71, 0
2, 20400, Note_on_c, 0, 72, 93
2, 20568, Note_off_c, 0, 72, 0
2, 20568, Note_on_c, 0, 71, 93
2, 20592, Note_off_c, 0, 71, 0
2, 20592, Note_on_c, 0, 69, 93
2, 20616, Note_off_c, 0, 69, 0
2, 20616, Note_on_c, 0, 71, 93
2, 20640, Note_off_c, 0, 71, 0
2, 20640, Note_on_c, 0, 72, 93
2, 20664, Note_off_c, 0, 72, 0
2, 20664, Note_on_c, 0, 69, 93
2, 20688, Note_off_c, 0, 69, 0
2, 20688, Note_on_c, 0, 74, 93
2, 20784, Note_off_c, 0, 74, 0
2, 20784, Note_on_c, 0, 71, 93
2, 20832, Note_off_c, 0, 71, 0
2, 20832, Note_on_c, 0, 67, 93
2, 20880, Note_off_c, 0, 67, 0
2, 20880, Note_on_c, 0, 69, 93
2, 20928, Note_off_c, 0, 69, 0
2, 20928, Note_on_c, 0, 66, 93
2, 20976, Note_off_c, 0, 66, 0
2, 20976, Note_on_c, 0, 67, 93
2, 21360, Note_off_c, 0, 67, 0
2, 21360, End_track
3, 0, Start_track
3, 0, Title_t, "Track3"
3, 0, Program_c, 1, 6
3, 0, Control_c, 1, 7, 100
3, 0, Control_c, 1, 10, 69
3, 1152, Note_on_c, 1, 74, 93
3, 1248, Note_off_c, 1, 74, 0
3, 1728, Note_on_c, 1, 76, 93
3, 1752, Note_off_c, 1, 76, 0
3, 1752, Note_on_c, 1, 77, 93
3, 1764, Note_off_c, 1, 77, 0
3, 1764, Note_on_c, 1, 76, 93
3, 1776, Note_off_c, 1, 76, 0
3, 1776, Note_on_c, 1, 77, 93
3, 1872, Note_off_c, 1, 77, 0
3, 1872, Note_on_c, 1, 79, 93
3, 1920, Note_off_c, 1, 79, 0
3, 1920, Note_on_c, 1, 77, 93
3, 1944, Note_off_c, 1, 77, 0
3, 1944, Note_on_c, 1, 76, 93
3, 1980, Note_off_c, 1, 76, 0
3, 1980, Note_on_c, 1, 74, 93
3, 1992, Note_off_c, 1, 74, 0
3, 1992, Note_on_c, 1, 72, 93
3, 2004, Note_off_c, 1, 72, 0
3, 2004, Note_on_c, 1, 71, 93
3, 2016, Note_off_c, 1, 71, 0
3, 2016, Note_on_c, 1, 72, 93
3, 2076, Note_off_c, 1, 72, 0
3, 2076, Note_on_c, 1, 71, 93
3, 2088, Note_off_c, 1, 71, 0
3, 2088, Note_on_c, 1, 69, 93
3, 2100, Note_off_c, 1, 69, 0
3, 2100, Note_on_c, 1, 67, 93
3, 2112, Note_off_c, 1, 67, 0
3, 2112, Note_on_c, 1, 69, 93
3, 2184, Note_off_c, 1, 69, 0
3, 2184, Note_on_c, 1, 69, 93
3, 2208, Note_off_c, 1, 69, 0
3, 2298, Note_on_c, 1, 74, 93
3, 2400, Note_off_c, 1, 74, 0
3, 3432, Note_on_c, 1, 71, 93
3, 3456, Note_off_c, 1, 71, 0
3, 3456, Note_on_c, 1, 69, 93
3, 3552, Note_off_c, 1, 69, 0
3, 3624, Note_on_c, 1, 81, 93
3, 3648, Note_off_c, 1, 81, 0
3, 3648, Note_on_c, 1, 75, 93
3, 3720, Note_off_c, 1, 75, 0
3, 3720, Note_on_c, 1, 78, 93
3, 3744, Note_off_c, 1, 78, 0
3, 3744, Note_on_c, 1, 71, 93
3, 3936, Note_off_c, 1, 71, 0
3, 4032, Note_on_c, 1, 71, 93
3, 4224, Note_off_c, 1, 71, 0
3, 4224, Note_on_c, 1, 69, 93
3, 4320, Note_off_c, 1, 69, 0
3, 4320, Note_on_c, 1, 71, 93
3, 4416, Note_off_c, 1, 71, 0
3, 4416, Note_on_c, 1, 73, 93
3, 4512, Note_off_c, 1, 73, 0
3, 4800, Note_on_c, 1, 69, 93
3, 4896, Note_off_c, 1, 69, 0
3, 5568, Note_on_c, 1, 73, 93
3, 5760, Note_off_c, 1, 73, 0
3, 5760, Note_on_c, 1, 66, 93
3, 6144, Note_off_c, 1, 66, 0
3, 7296, Note_on_c, 1, 74, 93
3, 7392, Note_off_c, 1, 74, 0
3, 7872, Note_on_c, 1, 76, 93
3, 7896, Note_off_c, 1, 76, 0
3, 7896, Note_on_c, 1, 77, 93
3, 7908, Note_off_c, 1, 77, 0
3, 7908, Note_on_c, 1, 76, 93
3, 7920, Note_off_c, 1, 76, 0
3, 7920, Note_on_c, 1, 77, 93
3, 8016, Note_off_c, 1, 77, 0
3, 8016, Note_on_c, 1, 79, 93
3, 8064, Note_off_c, 1, 79, 0
3, 8064, Note_on_c, 1, 77, 93
3, 8088, Note_off_c, 1, 77, 0
3, 8088, Note_on_c, 1, 76, 93
3, 8124, Note_off_c, 1, 76, 0
3, 8124, Note_on_c, 1, 74, 93
3, 8136, Note_off_c, 1, 74, 0
3, 8136, Note_on_c, 1, 72, 93
3, 8148, Note_off_c, 1, 72, 0
3, 8148, Note_on_c, 1, 71, 93
3, 8160, Note_off_c, 1, 71, 0
3, 8160, Note_on_c, 1, 72, 93
3, 8220, Note_off_c, 1, 72, 0
3, 8220, Note_on_c, 1, 71, 93
3, 8232, Note_off_c, 1, 71, 0
3, 8232, Note_on_c, 1, 69, 93
3, 8244, Note_off_c, 1, 69, 0
3, 8244, Note_on_c, 1, 67, 93
3, 8256, Note_off_c, 1, 67, 0
3, 8256, Note_on_c, 1, 69, 93
3, 8328, Note_off_c, 1, 69, 0
3, 8328, Note_on_c, 1, 69, 93
3, 8352, Note_off_c, 1, 69, 0
3, 8442, Note_on_c, 1, 74, 93
3, 8544, Note_off_c, 1, 74, 0
3, 9576, Note_on_c, 1, 71, 93
3, 9600, Note_off_c, 1, 71, 0
3, 9600, Note_on_c, 1, 69, 93
3, 9696, Note_off_c, 1, 69, 0
3, 9768, Note_on_c, 1, 81, 93
3, 9792, Note_off_c, 1, 81, 0
3, 9792, Note_on_c, 1, 75, 93
3, 9864, Note_off_c, 1, 75, 0
3, 9864, Note_on_c, 1, 78, 93
3, 9888, Note_off_c, 1, 78, 0
3, 9888, Note_on_c, 1, 71, 93
3, 10080, Note_off_c, 1, 71, 0
3, 10176, Note_on_c, 1, 71, 93
3, 10368, Note_off_c, 1, 71, 0
3, 10368, Note_on_c, 1, 69, 93
3, 10464, Note_off_c, 1, 69, 0
3, 10464, Note_on_c, 1, 71, 93
3, 10560, Note_off_c, 1, 71, 0
3, 10560, Note_on_c, 1, 73, 93
3, 10656, Note_off_c, 1, 73, 0
3, 10944, Note_on_c, 1, 69, 93
3, 11040, Note_off_c, 1, 69, 0
3, 11712, Note_on_c, 1, 73, 93
3, 11904, Note_off_c, 1, 73, 0
3, 12096, Note_on_c, 1, 74, 93
3, 12120, Note_off_c, 1, 74, 0
3, 12120, Note_on_c, 1, 72, 93
3, 12144, Note_off_c, 1, 72, 0
3, 12144, Note_on_c, 1, 71, 93
3, 12168, Note_off_c, 1, 71, 0
3, 12168, Note_on_c, 1, 69, 93
3, 12192, Note_off_c, 1, 69, 0
3, 12192, Note_on_c, 1, 71, 93
3, 12240, Note_off_c, 1, 71, 0
3, 12240, Note_on_c, 1, 72, 93
3, 12288, Note_off_c, 1, 72, 0
3, 12288, Note_on_c, 1, 74, 93
3, 12336, Note_off_c, 1, 74, 0
3, 12336, Note_on_c, 1, 67, 93
3, 12360, Note_off_c, 1, 67, 0
3, 12360, Note_on_c, 1, 71, 93
3, 12384, Note_off_c, 1, 71, 0
3, 12384, Note_on_c, 1, 69, 93
3, 12408, Note_off_c, 1, 69, 0
3, 12408, Note_on_c, 1, 72, 93
3, 12432, Note_off_c, 1, 72, 0
3, 12432, Note_on_c, 1, 71, 93
3, 12456, Note_off_c, 1, 71, 0
3, 12456, Note_on_c, 1, 74, 93
3, 12480, Note_off_c, 1, 74, 0
3, 12480, Note_on_c, 1, 72, 93
3, 12648, Note_off_c, 1, 72, 0
3, 12648, Note_on_c, 1, 79, 93
3, 12672, Note_off_c, 1, 79, 0
3, 12672, Note_on_c, 1, 78, 93
3, 12696, Note_off_c, 1, 78, 0
3, 12696, Note_on_c, 1, 76, 93
3, 12720, Note_off_c, 1, 76, 0
3, 12720, Note_on_c, 1, 75, 93
3, 12744, Note_off_c, 1, 75, 0
3, 12744, Note_on_c, 1, 76, 93
3, 12768, Note_off_c, 1, 76, 0
3, 12768, Note_on_c, 1, 71, 93
3, 12936, Note_off_c, 1, 71, 0
3, 12936, Note_on_c, 1, 73, 93
3, 12960, Note_off_c, 1, 73, 0
3, 12960, Note_on_c, 1, 75, 93
3, 12984, Note_off_c, 1, 75, 0
3, 12984, Note_on_c, 1, 76, 93
3, 13008, Note_off_c, 1, 76, 0
3, 13008, Note_on_c, 1, 78, 93
3, 13032, Note_off_c, 1, 78, 0
3, 13032, Note_on_c, 1, 75, 93
3, 13056, Note_off_c, 1, 75, 0
3, 13056, Note_on_c, 1, 76, 93
3, 13104, Note_off_c, 1, 76, 0
3, 13488, Note_on_c, 1, 69, 93
3, 13536, Note_off_c, 1, 69, 0
3, 13536, Note_on_c, 1, 71, 93
3, 13584, Note_off_c, 1, 71, 0
3, 13584, Note_on_c, 1, 72, 93
3, 13632, Note_off_c, 1, 72, 0
3, 13632, Note_on_c, 1, 74, 93
3, 13680, Note_off_c, 1, 74, 0
3, 13680, Note_on_c, 1, 76, 93
3, 13728, Note_off_c, 1, 76, 0
3, 13728, Note_on_c, 1, 78, 93
3, 13776, Note_off_c, 1, 78, 0
3, 13776, Note_on_c, 1, 79, 93
3, 13872, Note_off_c, 1, 79, 0
3, 13872, Note_on_c, 1, 74, 93
3, 13920, Note_off_c, 1, 74, 0
3, 13920, Note_on_c, 1, 67, 93
3, 13968, Note_off_c, 1, 67, 0
3, 13968, Note_on_c, 1, 69, 93
3, 14016, Note_off_c, 1, 69, 0
3, 14016, Note_on_c, 1, 66, 93
3, 14064, Note_off_c, 1, 66, 0
3, 14064, Note_on_c, 1, 67, 93
3, 14112, Note_off_c, 1, 67, 0
3, 14112, Note_on_c, 1, 69, 93
3, 14124, Note_off_c, 1, 69, 0
3, 14124, Note_on_c, 1, 68, 93
3, 14136, Note_off_c, 1, 68, 0
3, 14136, Note_on_c, 1, 69, 93
3, 14148, Note_off_c, 1, 69, 0
3, 14148, Note_on_c, 1, 68, 93
3, 14160, Note_off_c, 1, 68, 0
3, 14160, Note_on_c, 1, 69, 93
3, 14172, Note_off_c, 1, 69, 0
3, 14172, Note_on_c, 1, 68, 93
3, 14184, Note_off_c, 1, 68, 0
3, 14184, Note_on_c, 1, 66, 93
3, 14196, Note_off_c, 1, 66, 0
3, 14196, Note_on_c, 1, 68, 93
3, 14208, Note_off_c, 1, 68, 0
3, 14208, Note_on_c, 1, 69, 93
3, 14304, Note_off_c, 1, 69, 0
3, 14304, Note_on_c, 1, 68, 93
3, 14352, Note_off_c, 1, 68, 0
3, 14352, Note_on_c, 1, 69, 93
3, 14400, Note_off_c, 1, 69, 0
3, 14400, Note_on_c, 1, 67, 93
3, 14496, Note_off_c, 1, 67, 0
3, 14496, Note_on_c, 1, 66, 93
3, 14544, Note_off_c, 1, 66, 0
3, 14544, Note_on_c, 1, 67, 93
3, 14592, Note_off_c, 1, 67, 0
3, 14592, Note_on_c, 1, 64, 93
3, 14640, Note_off_c, 1, 64, 0
3, 14640, Note_on_c, 1, 66, 93
3, 14664, Note_off_c, 1, 66, 0
3, 15120, Note_on_c, 1, 66, 93
3, 15168, Note_off_c, 1, 66, 0
3, 15168, Note_on_c, 1, 69, 93
3, 15180, Note_off_c, 1, 69, 0
3, 15180, Note_on_c, 1, 67, 93
3, 15192, Note_off_c, 1, 67, 0
3, 15192, Note_on_c, 1, 66, 93
3, 15204, Note_off_c, 1, 66, 0
3, 15204, Note_on_c, 1, 67, 93
3, 15216, Note_off_c, 1, 67, 0
3, 15216, Note_on_c, 1, 69, 93
3, 15264, Note_off_c, 1, 69, 0
3, 15816, Note_on_c, 1, 67, 93
3, 15840, Note_off_c, 1, 67, 0
3, 15840, Note_on_c, 1, 66, 93
3, 15864, Note_off_c, 1, 66, 0
3, 15864, Note_on_c, 1, 67, 93
3, 15888, Note_off_c, 1, 67, 0
3, 15888, Note_on_c, 1, 69, 93
3, 15912, Note_off_c, 1, 69, 0
3, 15912, Note_on_c, 1, 66, 93
3, 15936, Note_off_c, 1, 66, 0
3, 15936, Note_on_c, 1, 62, 93
3, 16104, Note_off_c, 1, 62, 0
3, 16104, Note_on_c, 1, 66, 93
3, 16128, Note_off_c, 1, 66, 0
3, 16128, Note_on_c, 1, 64, 93
3, 16152, Note_off_c, 1, 64, 0
3, 16152, Note_on_c, 1, 67, 93
3, 16176, Note_off_c, 1, 67, 0
3, 16176, Note_on_c, 1, 66, 93
3, 16224, Note_off_c, 1, 66, 0
3, 16224, Note_on_c, 1, 59, 93
3, 16272, Note_off_c, 1, 59, 0
3, 16272, Note_on_c, 1, 60, 93
3, 16320, Note_off_c, 1, 60, 0
3, 16320, Note_on_c, 1, 57, 93
3, 16368, Note_off_c, 1, 57, 0
3, 16368, Note_on_c, 1, 59, 93
3, 16464, Note_off_c, 1, 59, 0
3, 16704, Note_on_c, 1, 74, 93
3, 16728, Note_off_c, 1, 74, 0
3, 16728, Note_on_c, 1, 72, 93
3, 16752, Note_off_c, 1, 72, 0
3, 16752, Note_on_c, 1, 71, 93
3, 16776, Note_off_c, 1, 71, 0
3, 16776, Note_on_c, 1, 69, 93
3, 16800, Note_off_c, 1, 69, 0
3, 16800, Note_on_c, 1, 71, 93
3, 16848, Note_off_c, 1, 71, 0
3, 16848, Note_on_c, 1, 72, 93
3, 16896, Note_off_c, 1, 72, 0
3, 16896, Note_on_c, 1, 74, 93
3, 16944, Note_off_c, 1, 74, 0
3, 16944, Note_on_c, 1, 67, 93
3, 16968, Note_off_c, 1, 67, 0
3, 16968, Note_on_c, 1, 71, 93
3, 16992, Note_off_c, 1, 71, 0
3, 16992, Note_on_c, 1, 69, 93
3, 17016, Note_off_c, 1, 69, 0
3, 17016, Note_on_c, 1, 72, 93
3, 17040, Note_off_c, 1, 72, 0
3, 17040, Note_on_c, 1, 71, 93
3, 17064, Note_off_c, 1, 71, 0
3, 17064, Note_on_c, 1, 74, 93
3, 17088, Note_off_c, 1, 74, 0
3, 17088, Note_on_c, 1, 72, 93
3, 17256, Note_off_c, 1, 72, 0
3, 17256, Note_on_c, 1, 79, 93
3, 17280, Note_off_c, 1, 79, 0
3, 17280, Note_on_c, 1, 78, 93
3, 17304, Note_off_c, 1, 78, 0
3, 17304, Note_on_c, 1, 76, 93
3, 17328, Note_off_c, 1, 76, 0
3, 17328, Note_on_c, 1, 75, 93
3, 17352, Note_off_c, 1, 75, 0
3, 17352, Note_on_c, 1, 76, 93
3, 17376, Note_off_c, 1, 76, 0
3, 17376, Note_on_c, 1, 71, 93
3, 17544, Note_off_c, 1, 71, 0
3, 17544, Note_on_c, 1, 73, 93
3, 17568, Note_off_c, 1, 73, 0
3, 17568, Note_on_c, 1, 75, 93
3, 17592, Note_off_c, 1, 75, 0
3, 17592, Note_on_c, 1, 76, 93
3, 17616, Note_off_c, 1, 76, 0
3, 17616, Note_on_c, 1, 78, 93
3, 17640, Note_off_c, 1, 78, 0
3, 17640, Note_on_c, 1, 75, 93
3, 17664, Note_off_c, 1, 75, 0
3, 17664, Note_on_c, 1, 76, 93
3, 17712, Note_off_c, 1, 76, 0
3, 18096, Note_on_c, 1, 69, 93
3, 18144, Note_off_c, 1, 69, 0
3, 18144, Note_on_c, 1, 71, 93
3, 18192, Note_off_c, 1, 71, 0
3, 18192, Note_on_c, 1, 72, 93
3, 18240, Note_off_c, 1, 72, 0
3, 18240, Note_on_c, 1, 74, 93
3, 18288, Note_off_c, 1, 74, 0
3, 18288, Note_on_c, 1, 76, 93
3, 18336, Note_off_c, 1, 76, 0
3, 18336, Note_on_c, 1, 78, 93
3, 18384, Note_off_c, 1, 78, 0
3, 18384, Note_on_c, 1, 79, 93
3, 18480, Note_off_c, 1, 79, 0
3, 18480, Note_on_c, 1, 74, 93
3, 18528, Note_off_c, 1, 74, 0
3, 18528, Note_on_c, 1, 67, 93
3, 18576, Note_off_c, 1, 67, 0
3, 18576, Note_on_c, 1, 69, 93
3, 18624, Note_off_c, 1, 69, 0
3, 18624, Note_on_c, 1, 66, 93
3, 18672, Note_off_c, 1, 66, 0
3, 18672, Note_on_c, 1, 67, 93
3, 18720, Note_off_c, 1, 67, 0
3, 18720, Note_on_c, 1, 69, 93
3, 18732, Note_off_c, 1, 69, 0
3, 18732, Note_on_c, 1, 68, 93
3, 18744, Note_off_c, 1, 68, 0
3, 18744, Note_on_c, 1, 69, 93
3, 18756, Note_off_c, 1, 69, 0
3, 18756, Note_on_c, 1, 68, 93
3, 18768, Note_off_c, 1, 68, 0
3, 18768, Note_on_c, 1, 69, 93
3, 18780, Note_off_c, 1, 69, 0
3, 18780, Note_on_c, 1, 68, 93
3, 18792, Note_off_c, 1, 68, 0
3, 18792, Note_on_c, 1, 66, 93
3, 18804, Note_off_c, 1, 66, 0
3, 18804, Note_on_c, 1, 68, 93
3, 18816, Note_off_c, 1, 68, 0
3, 18816, Note_on_c, 1, 69, 93
3, 18912, Note_off_c, 1, 69, 0
3, 18912, Note_on_c, 1, 68, 93
3, 18960, Note_off_c, 1, 68, 0
3, 18960, Note_on_c, 1, 69, 93
3, 19008, Note_off_c, 1, 69, 0
3, 19008, Note_on_c, 1, 67, 93
3, 19104, Note_off_c, 1, 67, 0
3, 19104, Note_on_c, 1, 66, 93
3, 19152, Note_off_c, 1, 66, 0
3, 19152, Note_on_c, 1, 67, 93
3, 19200, Note_off_c, 1, 67, 0
3, 19200, Note_on_c, 1, 64, 93
3, 19248, Note_off_c, 1, 64, 0
3, 19248, Note_on_c, 1, 66, 93
3, 19272, Note_off_c, 1, 66, 0
3, 19728, Note_on_c, 1, 66, 93
3, 19776, Note_off_c, 1, 66, 0
3, 19776, Note_on_c, 1, 69, 93
3, 19788, Note_off_c, 1, 69, 0
3, 19788, Note_on_c, 1, 67, 93
3, 19800, Note_off_c, 1, 67, 0
3, 19800, Note_on_c, 1, 66, 93
3, 19812, Note_off_c, 1, 66, 0
3, 19812, Note_on_c, 1, 67, 93
3, 19824, Note_off_c, 1, 67, 0
3, 19824, Note_on_c, 1, 69, 93
3, 19872, Note_off_c, 1, 69, 0
3, 20424, Note_on_c, 1, 67, 93
3, 20448, Note_off_c, 1, 67, 0
3, 20448, Note_on_c, 1, 66, 93
3, 20472, Note_off_c, 1, 66, 0
3, 20472, Note_on_c, 1, 67, 93
3, 20496, Note_off_c, 1, 67, 0
3, 20496, Note_on_c, 1, 69, 93
3, 20520, Note_off_c, 1, 69, 0
3, 20520, Note_on_c, 1, 66, 93
3, 20544, Note_off_c, 1, 66, 0
3, 20544, Note_on_c, 1, 62, 93
3, 20712, Note_off_c, 1, 62, 0
3, 20712, Note_on_c, 1, 66, 93
3, 20736, Note_off_c, 1, 66, 0
3, 20736, Note_on_c, 1, 64, 93
3, 20760, Note_off_c, 1, 64, 0
3, 20760, Note_on_c, 1, 67, 93
3, 20784, Note_off_c, 1, 67, 0
3, 20784, Note_on_c, 1, 66, 93
3, 20832, Note_off_c, 1, 66, 0
3, 20832, Note_on_c, 1, 59, 93
3, 20880, Note_off_c, 1, 59, 0
3, 20880, Note_on_c, 1, 60, 93
3, 20928, Note_off_c, 1, 60, 0
3, 20928, Note_on_c, 1, 57, 93
3, 20976, Note_off_c, 1, 57, 0
3, 20976, Note_on_c, 1, 62, 93
3, 21360, Note_off_c, 1, 62, 0
3, 21360, End_track
4, 0, Start_track
4, 0, Title_t, "Track4"
4, 0, Program_c, 2, 6
4, 0, Control_c, 2, 7, 100
4, 0, Control_c, 2, 10, 59
4, 0, Note_on_c, 2, 55, 93
4, 96, Note_off_c, 2, 55, 0
4, 360, Note_on_c, 2, 59, 93
4, 384, Note_off_c, 2, 59, 0
4, 384, Note_on_c, 2, 57, 93
4, 480, Note_off_c, 2, 57, 0
4, 2298, Note_on_c, 2, 71, 93
4, 2400, Note_off_c, 2, 71, 0
4, 4800, Note_on_c, 2, 66, 93
4, 4896, Note_off_c, 2, 66, 0
4, 5160, Note_on_c, 2, 59, 93
4, 5184, Note_off_c, 2, 59, 0
4, 5184, Note_on_c, 2, 61, 93
4, 5280, Note_off_c, 2, 61, 0
4, 5760, Note_on_c, 2, 69, 93
4, 6144, Note_off_c, 2, 69, 0
4, 6144, Note_on_c, 2, 55, 93
4, 6240, Note_off_c, 2, 55, 0
4, 6504, Note_on_c, 2, 59, 93
4, 6528, Note_off_c, 2, 59, 0
4, 6528, Note_on_c, 2, 57, 93
4, 6624, Note_off_c, 2, 57, 0
4, 8442, Note_on_c, 2, 71, 93
4, 8544, Note_off_c, 2, 71, 0
4, 10944, Note_on_c, 2, 66, 93
4, 11040, Note_off_c, 2, 66, 0
4, 11304, Note_on_c, 2, 59, 93
4, 11328, Note_off_c, 2, 59, 0
4, 11328, Note_on_c, 2, 61, 93
4, 11424, Note_off_c, 2, 61, 0
4, 12528, Note_on_c, 2, 69, 93
4, 12552, Note_off_c, 2, 69, 0
4, 12552, Note_on_c, 2, 67, 93
4, 12576, Note_off_c, 2, 67, 0
4, 12576, Note_on_c, 2, 66, 93
4, 12600, Note_off_c, 2, 66, 0
4, 12600, Note_on_c, 2, 64, 93
4, 12624, Note_off_c, 2, 64, 0
4, 12624, Note_on_c, 2, 66, 93
4, 12672, Note_off_c, 2, 66, 0
4, 12672, Note_on_c, 2, 67, 93
4, 12720, Note_off_c, 2, 67, 0
4, 12720, Note_on_c, 2, 69, 93
4, 12768, Note_off_c, 2, 69, 0
4, 12768, Note_on_c, 2, 63, 93
4, 12792, Note_off_c, 2, 63, 0
4, 12792, Note_on_c, 2, 66, 93
4, 12816, Note_off_c, 2, 66, 0
4, 12816, Note_on_c, 2, 64, 93
4, 12840, Note_off_c, 2, 64, 0
4, 12840, Note_on_c, 2, 67, 93
4, 12864, Note_off_c, 2, 67, 0
4, 12864, Note_on_c, 2, 66, 93
4, 12888, Note_off_c, 2, 66, 0
4, 12888, Note_on_c, 2, 69, 93
4, 12912, Note_off_c, 2, 69, 0
4, 12912, Note_on_c, 2, 67, 93
4, 12960, Note_off_c, 2, 67, 0
4, 12960, Note_on_c, 2, 66, 93
4, 13008, Note_off_c, 2, 66, 0
4, 13104, Note_on_c, 2, 64, 93
4, 13152, Note_off_c, 2, 64, 0
4, 13152, Note_on_c, 2, 63, 93
4, 13200, Note_off_c, 2, 63, 0
4, 13200, Note_on_c, 2, 64, 93
4, 13440, Note_off_c, 2, 64, 0
4, 14112, Note_on_c, 2, 64, 93
4, 14136, Note_off_c, 2, 64, 0
4, 14136, Note_on_c, 2, 62, 93
4, 14160, Note_off_c, 2, 62, 0
4, 14160, Note_on_c, 2, 60, 93
4, 14184, Note_off_c, 2, 60, 0
4, 14184, Note_on_c, 2, 59, 93
4, 14208, Note_off_c, 2, 59, 0
4, 14208, Note_on_c, 2, 60, 93
4, 14256, Note_off_c, 2, 60, 0
4, 14256, Note_on_c, 2, 62, 93
4, 14304, Note_off_c, 2, 62, 0
4, 14304, Note_on_c, 2, 64, 93
4, 14352, Note_off_c, 2, 64, 0
4, 14352, Note_on_c, 2, 57, 93
4, 14376, Note_off_c, 2, 57, 0
4, 14376, Note_on_c, 2, 60, 93
4, 14400, Note_off_c, 2, 60, 0
4, 14400, Note_on_c, 2, 59, 93
4, 14424, Note_off_c, 2, 59, 0
4, 14424, Note_on_c, 2, 62, 93
4, 14448, Note_off_c, 2, 62, 0
4, 14448, Note_on_c, 2, 61, 93
4, 14472, Note_off_c, 2, 61, 0
4, 14472, Note_on_c, 2, 64, 93
4, 14496, Note_off_c, 2, 64, 0
4, 14496, Note_on_c, 2, 62, 93
4, 14688, Note_off_c, 2, 62, 0
4, 14832, Note_on_c, 2, 55, 93
4, 14880, Note_off_c, 2, 55, 0
4, 14880, Note_on_c, 2, 54, 93
4, 14928, Note_off_c, 2, 54, 0
4, 14928, Note_on_c, 2, 55, 93
4, 15120, Note_off_c, 2, 55, 0
4, 17136, Note_on_c, 2, 69, 93
4, 17160, Note_off_c, 2, 69, 0
4, 17160, Note_on_c, 2, 67, 93
4, 17184, Note_off_c, 2, 67, 0
4, 17184, Note_on_c, 2, 66, 93
4, 17208, Note_off_c, 2, 66, 0
4, 17208, Note_on_c, 2, 64, 93
4, 17232, Note_off_c, 2, 64, 0
4, 17232, Note_on_c, 2, 66, 93
4, 17280, Note_off_c, 2, 66, 0
4, 17280, Note_on_c, 2, 67, 93
4, 17328, Note_off_c, 2, 67, 0
4, 17328, Note_on_c, 2, 69, 93
4, 17376, Note_off_c, 2, 69, 0
4, 17376, Note_on_c, 2, 63, 93
4, 17400, Note_off_c, 2, 63, 0
4, 17400, Note_on_c, 2, 66, 93
4, 17424, Note_off_c, 2, 66, 0
4, 17424, Note_on_c, 2, 64, 93
4, 17448, Note_off_c, 2, 64, 0
4, 17448, Note_on_c, 2, 67, 93
4, 17472, Note_off_c, 2, 67, 0
4, 17472, Note_on_c, 2, 66, 93
4, 17496, Note_off_c, 2, 66, 0
4, 17496, Note_on_c, 2, 69, 93
4, 17520, Note_off_c, 2, 69, 0
4, 17520, Note_on_c, 2, 67, 93
4, 17568, Note_off_c, 2, 67, 0
4, 17568, Note_on_c, 2, 66, 93
4, 17616, Note_off_c, 2, 66, 0
4, 17712, Note_on_c, 2, 64, 93
4, 17760, Note_off_c, 2, 64, 0
4, 17760, Note_on_c, 2, 63, 93
4, 17808, Note_off_c, 2, 63, 0
4, 17808, Note_on_c, 2, 64, 93
4, 18048, Note_off_c, 2, 64, 0
4, 18720, Note_on_c, 2, 64, 93
4, 18744, Note_off_c, 2, 64, 0
4, 18744, Note_on_c, 2, 62, 93
4, 18768, Note_off_c, 2, 62, 0
4, 18768, Note_on_c, 2, 60, 93
4, 18792, Note_off_c, 2, 60, 0
4, 18792, Note_on_c, 2, 59, 93
4, 18816, Note_off_c, 2, 59, 0
4, 18816, Note_on_c, 2, 60, 93
4, 18864, Note_off_c, 2, 60, 0
4, 18864, Note_on_c, 2, 62, 93
4, 18912, Note_off_c, 2, 62, 0
4, 18912, Note_on_c, 2, 64, 93
4, 18960, Note_off_c, 2, 64, 0
4, 18960, Note_on_c, 2, 57, 93
4, 18984, Note_off_c, 2, 57, 0
4, 18984, Note_on_c, 2, 60, 93
4, 19008, Note_off_c, 2, 60, 0
4, 19008, Note_on_c, 2, 59, 93
4, 19032, Note_off_c, 2, 59, 0
4, 19032, Note_on_c, 2, 62, 93
4, 19056, Note_off_c, 2, 62, 0
4, 19056, Note_on_c, 2, 61, 93
4, 19080, Note_off_c, 2, 61, 0
4, 19080, Note_on_c, 2, 64, 93
4, 19104, Note_off_c, 2, 64, 0
4, 19104, Note_on_c, 2, 62, 93
4, 19296, Note_off_c, 2, 62, 0
4, 19440, Note_on_c, 2, 55, 93
4, 19488, Note_off_c, 2, 55, 0
4, 19488, Note_on_c, 2, 54, 93
4, 19536, Note_off_c, 2, 54, 0
4, 19536, Note_on_c, 2, 55, 93
4, 19728, Note_off_c, 2, 55, 0
4, 20976, Note_on_c, 2, 59, 93
4, 21360, Note_off_c, 2, 59, 0
4, 21360, End_track
5, 0, Start_track
5, 0, Title_t, "Track5"
5, 0, Program_c, 3, 6
5, 0, Control_c, 3, 7, 100
5, 0, Control_c, 3, 10, 49
5, 0, Note_on_c, 3, 47, 93
5, 96, Note_off_c, 3, 47, 0
5, 360, Note_on_c, 3, 55, 93
5, 384, Note_off_c, 3, 55, 0
5, 384, Note_on_c, 3, 54, 93
5, 492, Note_off_c, 3, 54, 0
5, 492, Note_on_c, 3, 50, 93
5, 504, Note_off_c, 3, 50, 0
5, 504, Note_on_c, 3, 52, 93
5, 516, Note_off_c, 3, 52, 0
5, 516, Note_on_c, 3, 54, 93
5, 528, Note_off_c, 3, 54, 0
5, 528, Note_on_c, 3, 55, 93
5, 540, Note_off_c, 3, 55, 0
5, 540, Note_on_c, 3, 57, 93
5, 552, Note_off_c, 3, 57, 0
5, 552, Note_on_c, 3, 59, 93
5, 564, Note_off_c, 3, 59, 0
5, 564, Note_on_c, 3, 60, 93
5, 576, Note_off_c, 3, 60, 0
5, 576, Note_on_c, 3, 62, 93
5, 648, Note_off_c, 3, 62, 0
5, 648, Note_on_c, 3, 57, 93
5, 672, Note_off_c, 3, 57, 0
5, 672, Note_on_c, 3, 54, 93
5, 744, Note_off_c, 3, 54, 0
5, 744, Note_on_c, 3, 50, 93
5, 768, Note_off_c, 3, 50, 0
5, 768, Note_on_c, 3, 52, 93
5, 912, Note_off_c, 3, 52, 0
5, 912, Note_on_c, 3, 55, 93
5, 960, Note_off_c, 3, 55, 0
5, 960, Note_on_c, 3, 54, 93
5, 972, Note_off_c, 3, 54, 0
5, 972, Note_on_c, 3, 52, 93
5, 984, Note_off_c, 3, 52, 0
5, 984, Note_on_c, 3, 50, 93
5, 996, Note_off_c, 3, 50, 0
5, 996, Note_on_c, 3, 52, 93
5, 1008, Note_off_c, 3, 52, 0
5, 1008, Note_on_c, 3, 54, 93
5, 1014, Note_off_c, 3, 54, 0
5, 1014, Note_on_c, 3, 52, 93
5, 1026, Note_off_c, 3, 52, 0
5, 1026, Note_on_c, 3, 54, 93
5, 1032, Note_off_c, 3, 54, 0
5, 1032, Note_on_c, 3, 52, 93
5, 1038, Note_off_c, 3, 52, 0
5, 1038, Note_on_c, 3, 54, 93
5, 1050, Note_off_c, 3, 54, 0
5, 1050, Note_on_c, 3, 52, 93
5, 1056, Note_off_c, 3, 52, 0
5, 1056, Note_on_c, 3, 54, 93
5, 1062, Note_off_c, 3, 54, 0
5, 1062, Note_on_c, 3, 52, 93
5, 1074, Note_off_c, 3, 52, 0
5, 1074, Note_on_c, 3, 54, 93
5, 1080, Note_off_c, 3, 54, 0
5, 1080, Note_on_c, 3, 52, 93
5, 1086, Note_off_c, 3, 52, 0
5, 1086, Note_on_c, 3, 54, 93
5, 1098, Note_off_c, 3, 54, 0
5, 1098, Note_on_c, 3, 52, 93
5, 1116, Note_off_c, 3, 52, 0
5, 1116, Note_on_c, 3, 50, 93
5, 1128, Note_off_c, 3, 50, 0
5, 1128, Note_on_c, 3, 52, 93
5, 1140, Note_off_c, 3, 52, 0
5, 1140, Note_on_c, 3, 54, 93
5, 1152, Note_off_c, 3, 54, 0
5, 1152, Note_on_c, 3, 50, 93
5, 1224, Note_off_c, 3, 50, 0
5, 1224, Note_on_c, 3, 60, 93
5, 1236, Note_off_c, 3, 60, 0
5, 1236, Note_on_c, 3, 59, 93
5, 1248, Note_off_c, 3, 59, 0
5, 1248, Note_on_c, 3, 60, 93
5, 1320, Note_off_c, 3, 60, 0
5, 1320, Note_on_c, 3, 57, 93
5, 1344, Note_off_c, 3, 57, 0
5, 1344, Note_on_c, 3, 54, 93
5, 1416, Note_off_c, 3, 54, 0
5, 1416, Note_on_c, 3, 64, 93
5, 1440, Note_off_c, 3, 64, 0
5, 1440, Note_on_c, 3, 62, 93
5, 1512, Note_off_c, 3, 62, 0
5, 1512, Note_on_c, 3, 60, 93
5, 1536, Note_off_c, 3, 60, 0
5, 1536, Note_on_c, 3, 60, 93
5, 1548, Note_off_c, 3, 60, 0
5, 1548, Note_on_c, 3, 59, 93
5, 1560, Note_off_c, 3, 59, 0
5, 1560, Note_on_c, 3, 57, 93
5, 1572, Note_off_c, 3, 57, 0
5, 1572, Note_on_c, 3, 59, 93
5, 1584, Note_off_c, 3, 59, 0
5, 1584, Note_on_c, 3, 60, 93
5, 1590, Note_off_c, 3, 60, 0
5, 1590, Note_on_c, 3, 59, 93
5, 1602, Note_off_c, 3, 59, 0
5, 1602, Note_on_c, 3, 60, 93
5, 1608, Note_off_c, 3, 60, 0
5, 1608, Note_on_c, 3, 59, 93
5, 1614, Note_off_c, 3, 59, 0
5, 1614, Note_on_c, 3, 60, 93
5, 1626, Note_off_c, 3, 60, 0
5, 1626, Note_on_c, 3, 59, 93
5, 1680, Note_off_c, 3, 59, 0
5, 1680, Note_on_c, 3, 59, 93
5, 1728, Note_off_c, 3, 59, 0
5, 1728, Note_on_c, 3, 59, 93
5, 1788, Note_off_c, 3, 59, 0
5, 1788, Note_on_c, 3, 60, 93
5, 1800, Note_off_c, 3, 60, 0
5, 1800, Note_on_c, 3, 59, 93
5, 1812, Note_off_c, 3, 59, 0
5, 1812, Note_on_c, 3, 57, 93
5, 1824, Note_off_c, 3, 57, 0
5, 1824, Note_on_c, 3, 59, 93
5, 1896, Note_off_c, 3, 59, 0
5, 1896, Note_on_c, 3, 55, 93
5, 1920, Note_off_c, 3, 55, 0
5, 1920, Note_on_c, 3, 60, 93
5, 1932, Note_off_c, 3, 60, 0
5, 1932, Note_on_c, 3, 59, 93
5, 1944, Note_off_c, 3, 59, 0
5, 1944, Note_on_c, 3, 60, 93
5, 2076, Note_off_c, 3, 60, 0
5, 2076, Note_on_c, 3, 62, 93
5, 2088, Note_off_c, 3, 62, 0
5, 2088, Note_on_c, 3, 60, 93
5, 2100, Note_off_c, 3, 60, 0
5, 2100, Note_on_c, 3, 59, 93
5, 2112, Note_off_c, 3, 59, 0
5, 2112, Note_on_c, 3, 60, 93
5, 2172, Note_off_c, 3, 60, 0
5, 2172, Note_on_c, 3, 59, 93
5, 2184, Note_off_c, 3, 59, 0
5, 2184, Note_on_c, 3, 57, 93
5, 2196, Note_off_c, 3, 57, 0
5, 2196, Note_on_c, 3, 55, 93
5, 2208, Note_off_c, 3, 55, 0
5, 2208, Note_on_c, 3, 57, 93
5, 2268, Note_off_c, 3, 57, 0
5, 2268, Note_on_c, 3, 55, 93
5, 2280, Note_off_c, 3, 55, 0
5, 2280, Note_on_c, 3, 54, 93
5, 2292, Note_off_c, 3, 54, 0
5, 2292, Note_on_c, 3, 52, 93
5, 2304, Note_off_c, 3, 52, 0
5, 2304, Note_on_c, 3, 50, 93
5, 2520, Note_off_c, 3, 50, 0
5, 2520, Note_on_c, 3, 48, 93
5, 2532, Note_off_c, 3, 48, 0
5, 2532, Note_on_c, 3, 47, 93
5, 2544, Note_off_c, 3, 47, 0
5, 2544, Note_on_c, 3, 45, 93
5, 2556, Note_off_c, 3, 45, 0
5, 2556, Note_on_c, 3, 43, 93
5, 2568, Note_off_c, 3, 43, 0
5, 2568, Note_on_c, 3, 42, 93
5, 2580, Note_off_c, 3, 42, 0
5, 2580, Note_on_c, 3, 40, 93
5, 2592, Note_off_c, 3, 40, 0
5, 2592, Note_on_c, 3, 38, 93
5, 2616, Note_off_c, 3, 38, 0
5, 2616, Note_on_c, 3, 42, 93
5, 2640, Note_off_c, 3, 42, 0
5, 2640, Note_on_c, 3, 45, 93
5, 2664, Note_off_c, 3, 45, 0
5, 2664, Note_on_c, 3, 50, 93
5, 2688, Note_off_c, 3, 50, 0
5, 2688, Note_on_c, 3, 43, 93
5, 2712, Note_off_c, 3, 43, 0
5, 2712, Note_on_c, 3, 50, 93
5, 2736, Note_off_c, 3, 50, 0
5, 2736, Note_on_c, 3, 52, 93
5, 2760, Note_off_c, 3, 52, 0
5, 2760, Note_on_c, 3, 54, 93
5, 2784, Note_off_c, 3, 54, 0
5, 2784, Note_on_c, 3, 55, 93
5, 2808, Note_off_c, 3, 55, 0
5, 2808, Note_on_c, 3, 54, 93
5, 2832, Note_off_c, 3, 54, 0
5, 2832, Note_on_c, 3, 55, 93
5, 2856, Note_off_c, 3, 55, 0
5, 2856, Note_on_c, 3, 57, 93
5, 2880, Note_off_c, 3, 57, 0
5, 2880, Note_on_c, 3, 60, 93
5, 2892, Note_off_c, 3, 60, 0
5, 2892, Note_on_c, 3, 59, 93
5, 2904, Note_off_c, 3, 59, 0
5, 2904, Note_on_c, 3, 60, 93
5, 2916, Note_off_c, 3, 60, 0
5, 2916, Note_on_c, 3, 59, 93
5, 2928, Note_off_c, 3, 59, 0
5, 2928, Note_on_c, 3, 60, 93
5, 2934, Note_off_c, 3, 60, 0
5, 2934, Note_on_c, 3, 59, 93
5, 2946, Note_off_c, 3, 59, 0
5, 2946, Note_on_c, 3, 60, 93
5, 2952, Note_off_c, 3, 60, 0
5, 2952, Note_on_c, 3, 59, 93
5, 2958, Note_off_c, 3, 59, 0
5, 2958, Note_on_c, 3, 60, 93
5, 2970, Note_off_c, 3, 60, 0
5, 2970, Note_on_c, 3, 59, 93
5, 3036, Note_off_c, 3, 59, 0
5, 3036, Note_on_c, 3, 57, 93
5, 3048, Note_off_c, 3, 57, 0
5, 3048, Note_on_c, 3, 55, 93
5, 3060, Note_off_c, 3, 55, 0
5, 3060, Note_on_c, 3, 54, 93
5, 3072, Note_off_c, 3, 54, 0
5, 3072, Note_on_c, 3, 55, 93
5, 3096, Note_off_c, 3, 55, 0
5, 3096, Note_on_c, 3, 59, 93
5, 3120, Note_off_c, 3, 59, 0
5, 3120, Note_on_c, 3, 61, 93
5, 3144, Note_off_c, 3, 61, 0
5, 3144, Note_on_c, 3, 63, 93
5, 3168, Note_off_c, 3, 63, 0
5, 3168, Note_on_c, 3, 64, 93
5, 3192, Note_off_c, 3, 64, 0
5, 3192, Note_on_c, 3, 63, 93
5, 3216, Note_off_c, 3, 63, 0
5, 3216, Note_on_c, 3, 64, 93
5, 3240, Note_off_c, 3, 64, 0
5, 3240, Note_on_c, 3, 66, 93
5, 3264, Note_off_c, 3, 66, 0
5, 3264, Note_on_c, 3, 67, 93
5, 3336, Note_off_c, 3, 67, 0
5, 3336, Note_on_c, 3, 55, 93
5, 3360, Note_off_c, 3, 55, 0
5, 3360, Note_on_c, 3, 67, 93
5, 3432, Note_off_c, 3, 67, 0
5, 3432, Note_on_c, 3, 67, 93
5, 3456, Note_off_c, 3, 67, 0
5, 3456, Note_on_c, 3, 67, 93
5, 3612, Note_off_c, 3, 67, 0
5, 3612, Note_on_c, 3, 67, 93
5, 3624, Note_off_c, 3, 67, 0
5, 3624, Note_on_c, 3, 66, 93
5, 3636, Note_off_c, 3, 66, 0
5, 3636, Note_on_c, 3, 64, 93
5, 3648, Note_off_c, 3, 64, 0
5, 3648, Note_on_c, 3, 66, 93
5, 3708, Note_off_c, 3, 66, 0
5, 3708, Note_on_c, 3, 59, 93
5, 3720, Note_off_c, 3, 59, 0
5, 3720, Note_on_c, 3, 61, 93
5, 3732, Note_off_c, 3, 61, 0
5, 3732, Note_on_c, 3, 63, 93
5, 3744, Note_off_c, 3, 63, 0
5, 3744, Note_on_c, 3, 64, 93
5, 3816, Note_off_c, 3, 64, 0
5, 3816, Note_on_c, 3, 64, 93
5, 3840, Note_off_c, 3, 64, 0
5, 3840, Note_on_c, 3, 64, 93
5, 3996, Note_off_c, 3, 64, 0
5, 3996, Note_on_c, 3, 60, 93
5, 4008, Note_off_c, 3, 60, 0
5, 4008, Note_on_c, 3, 59, 93
5, 4020, Note_off_c, 3, 59, 0
5, 4020, Note_on_c, 3, 57, 93
5, 4032, Note_off_c, 3, 57, 0
5, 4032, Note_on_c, 3, 56, 93
5, 4104, Note_off_c, 3, 56, 0
5, 4104, Note_on_c, 3, 59, 93
5, 4128, Note_off_c, 3, 59, 0
5, 4128, Note_on_c, 3, 52, 93
5, 4200, Note_off_c, 3, 52, 0
5, 4200, Note_on_c, 3, 56, 93
5, 4224, Note_off_c, 3, 56, 0
5, 4224, Note_on_c, 3, 57, 93
5, 4344, Note_off_c, 3, 57, 0
5, 4344, Note_on_c, 3, 45, 93
5, 4356, Note_off_c, 3, 45, 0
5, 4356, Note_on_c, 3, 47, 93
5, 4368, Note_off_c, 3, 47, 0
5, 4368, Note_on_c, 3, 49, 93
5, 4380, Note_off_c, 3, 49, 0
5, 4380, Note_on_c, 3, 50, 93
5, 4392, Note_off_c, 3, 50, 0
5, 4392, Note_on_c, 3, 52, 93
5, 4404, Note_off_c, 3, 52, 0
5, 4404, Note_on_c, 3, 54, 93
5, 4416, Note_off_c, 3, 54, 0
5, 4416, Note_on_c, 3, 55, 93
5, 4488, Note_off_c, 3, 55, 0
5, 4488, Note_on_c, 3, 52, 93
5, 4512, Note_off_c, 3, 52, 0
5, 4512, Note_on_c, 3, 49, 93
5, 4584, Note_off_c, 3, 49, 0
5, 4584, Note_on_c, 3, 45, 93
5, 4608, Note_off_c, 3, 45, 0
5, 4608, Note_on_c, 3, 54, 93
5, 4764, Note_off_c, 3, 54, 0
5, 4764, Note_on_c, 3, 55, 93
5, 4776, Note_off_c, 3, 55, 0
5, 4776, Note_on_c, 3, 54, 93
5, 4788, Note_off_c, 3, 54, 0
5, 4788, Note_on_c, 3, 52, 93
5, 4800, Note_off_c, 3, 52, 0
5, 4800, Note_on_c, 3, 50, 93
5, 4860, Note_off_c, 3, 50, 0
5, 4860, Note_on_c, 3, 48, 93
5, 4872, Note_off_c, 3, 48, 0
5, 4872, Note_on_c, 3, 47, 93
5, 4884, Note_off_c, 3, 47, 0
5, 4884, Note_on_c, 3, 45, 93
5, 4896, Note_off_c, 3, 45, 0
5, 4896, Note_on_c, 3, 43, 93
5, 4956, Note_off_c, 3, 43, 0
5, 4956, Note_on_c, 3, 50, 93
5, 4968, Note_off_c, 3, 50, 0
5, 4968, Note_on_c, 3, 52, 93
5, 4980, Note_off_c, 3, 52, 0
5, 4980, Note_on_c, 3, 54, 93
5, 4992, Note_off_c, 3, 54, 0
5, 4992, Note_on_c, 3, 55, 93
5, 5004, Note_off_c, 3, 55, 0
5, 5004, Note_on_c, 3, 54, 93
5, 5016, Note_off_c, 3, 54, 0
5, 5016, Note_on_c, 3, 55, 93
5, 5064, Note_off_c, 3, 55, 0
5, 5064, Note_on_c, 3, 43, 93
5, 5088, Note_off_c, 3, 43, 0
5, 5088, Note_on_c, 3, 55, 93
5, 5160, Note_off_c, 3, 55, 0
5, 5160, Note_on_c, 3, 55, 93
5, 5184, Note_off_c, 3, 55, 0
5, 5184, Note_on_c, 3, 55, 93
5, 5340, Note_off_c, 3, 55, 0
5, 5340, Note_on_c, 3, 55, 93
5, 5352, Note_off_c, 3, 55, 0
5, 5352, Note_on_c, 3, 54, 93
5, 5364, Note_off_c, 3, 54, 0
5, 5364, Note_on_c, 3, 52, 93
5, 5376, Note_off_c, 3, 52, 0
5, 5376, Note_on_c, 3, 54, 93
5, 5412, Note_off_c, 3, 54, 0
5, 5412, Note_on_c, 3, 50, 93
5, 5424, Note_off_c, 3, 50, 0
5, 5424, Note_on_c, 3, 52, 93
5, 5436, Note_off_c, 3, 52, 0
5, 5436, Note_on_c, 3, 54, 93
5, 5448, Note_off_c, 3, 54, 0
5, 5448, Note_on_c, 3, 55, 93
5, 5460, Note_off_c, 3, 55, 0
5, 5460, Note_on_c, 3, 57, 93
5, 5472, Note_off_c, 3, 57, 0
5, 5472, Note_on_c, 3, 59, 93
5, 5544, Note_off_c, 3, 59, 0
5, 5544, Note_on_c, 3, 55, 93
5, 5568, Note_off_c, 3, 55, 0
5, 5568, Note_on_c, 3, 57, 93
5, 5664, Note_off_c, 3, 57, 0
5, 5664, Note_on_c, 3, 45, 93
5, 5760, Note_off_c, 3, 45, 0
5, 5760, Note_on_c, 3, 38, 93
5, 5880, Note_off_c, 3, 38, 0
5, 5880, Note_on_c, 3, 50, 93
5, 5892, Note_off_c, 3, 50, 0
5, 5892, Note_on_c, 3, 52, 93
5, 5904, Note_off_c, 3, 52, 0
5, 5904, Note_on_c, 3, 54, 93
5, 5916, Note_off_c, 3, 54, 0
5, 5916, Note_on_c, 3, 55, 93
5, 5928, Note_off_c, 3, 55, 0
5, 5928, Note_on_c, 3, 57, 93
5, 5940, Note_off_c, 3, 57, 0
5, 5940, Note_on_c, 3, 59, 93
5, 5952, Note_off_c, 3, 59, 0
5, 5952, Note_on_c, 3, 60, 93
5, 6024, Note_off_c, 3, 60, 0
5, 6024, Note_on_c, 3, 57, 93
5, 6048, Note_off_c, 3, 57, 0
5, 6048, Note_on_c, 3, 54, 93
5, 6120, Note_off_c, 3, 54, 0
5, 6120, Note_on_c, 3, 50, 93
5, 6144, Note_off_c, 3, 50, 0
5, 6144, Note_on_c, 3, 47, 93
5, 6240, Note_off_c, 3, 47, 0
5, 6504, Note_on_c, 3, 55, 93
5, 6528, Note_off_c, 3, 55, 0
5, 6528, Note_on_c, 3, 54, 93
5, 6636, Note_off_c, 3, 54, 0
5, 6636, Note_on_c, 3, 50, 93
5, 6648, Note_off_c, 3, 50, 0
5, 6648, Note_on_c, 3, 52, 93
5, 6660, Note_off_c, 3, 52, 0
5, 6660, Note_on_c, 3, 54, 93
5, 6672, Note_off_c, 3, 54, 0
5, 6672, Note_on_c, 3, 55, 93
5, 6684, Note_off_c, 3, 55, 0
5, 6684, Note_on_c, 3, 57, 93
5, 6696, Note_off_c, 3, 57, 0
5, 6696, Note_on_c, 3, 59, 93
5, 6708, Note_off_c, 3, 59, 0
5, 6708, Note_on_c, 3, 60, 93
5, 6720, Note_off_c, 3, 60, 0
5, 6720, Note_on_c, 3, 62, 93
5, 6792, Note_off_c, 3, 62, 0
5, 6792, Note_on_c, 3, 57, 93
5, 6816, Note_off_c, 3, 57, 0
5, 6816, Note_on_c, 3, 54, 93
5, 6888, Note_off_c, 3, 54, 0
5, 6888, Note_on_c, 3, 50, 93
5, 6912, Note_off_c, 3, 50, 0
5, 6912, Note_on_c, 3, 52, 93
5, 7056, Note_off_c, 3, 52, 0
5, 7056, Note_on_c, 3, 55, 93
5, 7104, Note_off_c, 3, 55, 0
5, 7104, Note_on_c, 3, 54, 93
5, 7116, Note_off_c, 3, 54, 0
5, 7116, Note_on_c, 3, 52, 93
5, 7128, Note_off_c, 3, 52, 0
5, 7128, Note_on_c, 3, 50, 93
5, 7140, Note_off_c, 3, 50, 0
5, 7140, Note_on_c, 3, 52, 93
5, 7152, Note_off_c, 3, 52, 0
5, 7152, Note_on_c, 3, 54, 93
5, 7158, Note_off_c, 3, 54, 0
5, 7158, Note_on_c, 3, 52, 93
5, 7170, Note_off_c, 3, 52, 0
5, 7170, Note_on_c, 3, 54, 93
5, 7176, Note_off_c, 3, 54, 0
5, 7176, Note_on_c, 3, 52, 93
5, 7182, Note_off_c, 3, 52, 0
5, 7182, Note_on_c, 3, 54, 93
5, 7194, Note_off_c, 3, 54, 0
5, 7194, Note_on_c, 3, 52, 93
5, 7200, Note_off_c, 3, 52, 0
5, 7200, Note_on_c, 3, 54, 93
5, 7206, Note_off_c, 3, 54, 0
5, 7206, Note_on_c, 3, 52, 93
5, 7218, Note_off_c, 3, 52, 0
5, 7218, Note_on_c, 3, 54, 93
5, 7224, Note_off_c, 3, 54, 0
5, 7224, Note_on_c, 3, 52, 93
5, 7230, Note_off_c, 3, 52, 0
5, 7230, Note_on_c, 3, 54, 93
5, 7242, Note_off_c, 3, 54, 0
5, 7242, Note_on_c, 3, 52, 93
5, 7260, Note_off_c, 3, 52, 0
5, 7260, Note_on_c, 3, 50, 93
5, 7272, Note_off_c, 3, 50, 0
5, 7272, Note_on_c, 3, 52, 93
5, 7284, Note_off_c, 3, 52, 0
5, 7284, Note_on_c, 3, 54, 93
5, 7296, Note_off_c, 3, 54, 0
5, 7296, Note_on_c, 3, 50, 93
5, 7368, Note_off_c, 3, 50, 0
5, 7368, Note_on_c, 3, 60, 93
5, 7380, Note_off_c, 3, 60, 0
5, 7380, Note_on_c, 3, 59, 93
5, 7392, Note_off_c, 3, 59, 0
5, 7392, Note_on_c, 3, 60, 93
5, 7464, Note_off_c, 3, 60, 0
5, 7464, Note_on_c, 3, 57, 93
5, 7488, Note_off_c, 3, 57, 0
5, 7488, Note_on_c, 3, 54, 93
5, 7560, Note_off_c, 3, 54, 0
5, 7560, Note_on_c, 3, 64, 93
5, 7584, Note_off_c, 3, 64, 0
5, 7584, Note_on_c, 3, 62, 93
5, 7656, Note_off_c, 3, 62, 0
5, 7656, Note_on_c, 3, 60, 93
5, 7680, Note_off_c, 3, 60, 0
5, 7680, Note_on_c, 3, 60, 93
5, 7692, Note_off_c, 3, 60, 0
5, 7692, Note_on_c, 3, 59, 93
5, 7704, Note_off_c, 3, 59, 0
5, 7704, Note_on_c, 3, 57, 93
5, 7716, Note_off_c, 3, 57, 0
5, 7716, Note_on_c, 3, 59, 93
5, 7728, Note_off_c, 3, 59, 0
5, 7728, Note_on_c, 3, 60, 93
5, 7734, Note_off_c, 3, 60, 0
5, 7734, Note_on_c, 3, 59, 93
5, 7746, Note_off_c, 3, 59, 0
5, 7746, Note_on_c, 3, 60, 93
5, 7752, Note_off_c, 3, 60, 0
5, 7752, Note_on_c, 3, 59, 93
5, 7758, Note_off_c, 3, 59, 0
5, 7758, Note_on_c, 3, 60, 93
5, 7770, Note_off_c, 3, 60, 0
5, 7770, Note_on_c, 3, 59, 93
5, 7824, Note_off_c, 3, 59, 0
5, 7824, Note_on_c, 3, 59, 93
5, 7872, Note_off_c, 3, 59, 0
5, 7872, Note_on_c, 3, 59, 93
5, 7932, Note_off_c, 3, 59, 0
5, 7932, Note_on_c, 3, 60, 93
5, 7944, Note_off_c, 3, 60, 0
5, 7944, Note_on_c, 3, 59, 93
5, 7956, Note_off_c, 3, 59, 0
5, 7956, Note_on_c, 3, 57, 93
5, 7968, Note_off_c, 3, 57, 0
5, 7968, Note_on_c, 3, 59, 93
5, 8040, Note_off_c, 3, 59, 0
5, 8040, Note_on_c, 3, 55, 93
5, 8064, Note_off_c, 3, 55, 0
5, 8064, Note_on_c, 3, 60, 93
5, 8076, Note_off_c, 3, 60, 0
5, 8076, Note_on_c, 3, 59, 93
5, 8088, Note_off_c, 3, 59, 0
5, 8088, Note_on_c, 3, 60, 93
5, 8220, Note_off_c, 3, 60, 0
5, 8220, Note_on_c, 3, 62, 93
5, 8232, Note_off_c, 3, 62, 0
5, 8232, Note_on_c, 3, 60, 93
5, 8244, Note_off_c, 3, 60, 0
5, 8244, Note_on_c, 3, 59, 93
5, 8256, Note_off_c, 3, 59, 0
5, 8256, Note_on_c, 3, 60, 93
5, 8316, Note_off_c, 3, 60, 0
5, 8316, Note_on_c, 3, 59, 93
5, 8328, Note_off_c, 3, 59, 0
5, 8328, Note_on_c, 3, 57, 93
5, 8340, Note_off_c, 3, 57, 0
5, 8340, Note_on_c, 3, 55, 93
5, 8352, Note_off_c, 3, 55, 0
5, 8352, Note_on_c, 3, 57, 93
5, 8412, Note_off_c, 3, 57, 0
5, 8412, Note_on_c, 3, 55, 93
5, 8424, Note_off_c, 3, 55, 0
5, 8424, Note_on_c, 3, 54, 93
5, 8436, Note_off_c, 3, 54, 0
5, 8436, Note_on_c, 3, 52, 93
5, 8448, Note_off_c, 3, 52, 0
5, 8448, Note_on_c, 3, 50, 93
5, 8664, Note_off_c, 3, 50, 0
5, 8664, Note_on_c, 3, 48, 93
5, 8676, Note_off_c, 3, 48, 0
5, 8676, Note_on_c, 3, 47, 93
5, 8688, Note_off_c, 3, 47, 0
5, 8688, Note_on_c, 3, 45, 93
5, 8700, Note_off_c, 3, 45, 0
5, 8700, Note_on_c, 3, 43, 93
5, 8712, Note_off_c, 3, 43, 0
5, 8712, Note_on_c, 3, 42, 93
5, 8724, Note_off_c, 3, 42, 0
5, 8724, Note_on_c, 3, 40, 93
5, 8736, Note_off_c, 3, 40, 0
5, 8736, Note_on_c, 3, 38, 93
5, 8760, Note_off_c, 3, 38, 0
5, 8760, Note_on_c, 3, 42, 93
5, 8784, Note_off_c, 3, 42, 0
5, 8784, Note_on_c, 3, 45, 93
5, 8808, Note_off_c, 3, 45, 0
5, 8808, Note_on_c, 3, 50, 93
5, 8832, Note_off_c, 3, 50, 0
5, 8832, Note_on_c, 3, 43, 93
5, 8856, Note_off_c, 3, 43, 0
5, 8856, Note_on_c, 3, 50, 93
5, 8880, Note_off_c, 3, 50, 0
5, 8880, Note_on_c, 3, 52, 93
5, 8904, Note_off_c, 3, 52, 0
5, 8904, Note_on_c, 3, 54, 93
5, 8928, Note_off_c, 3, 54, 0
5, 8928, Note_on_c, 3, 55, 93
5, 8952, Note_off_c, 3, 55, 0
5, 8952, Note_on_c, 3, 54, 93
5, 8976, Note_off_c, 3, 54, 0
5, 8976, Note_on_c, 3, 55, 93
5, 9000, Note_off_c, 3, 55, 0
5, 9000, Note_on_c, 3, 57, 93
5, 9024, Note_off_c, 3, 57, 0
5, 9024, Note_on_c, 3, 60, 93
5, 9036, Note_off_c, 3, 60, 0
5, 9036, Note_on_c, 3, 59, 93
5, 9048, Note_off_c, 3, 59, 0
5, 9048, Note_on_c, 3, 60, 93
5, 9060, Note_off_c, 3, 60, 0
5, 9060, Note_on_c, 3, 59, 93
5, 9072, Note_off_c, 3, 59, 0
5, 9072, Note_on_c, 3, 60, 93
5, 9078, Note_off_c, 3, 60, 0
5, 9078, Note_on_c, 3, 59, 93
5, 9090, Note_off_c, 3, 59, 0
5, 9090, Note_on_c, 3, 60, 93
5, 9096, Note_off_c, 3, 60, 0
5, 9096, Note_on_c, 3, 59, 93
5, 9102, Note_off_c, 3, 59, 0
5, 9102, Note_on_c, 3, 60, 93
5, 9114, Note_off_c, 3, 60, 0
5, 9114, Note_on_c, 3, 59, 93
5, 9180, Note_off_c, 3, 59, 0
5, 9180, Note_on_c, 3, 57, 93
5, 9192, Note_off_c, 3, 57, 0
5, 9192, Note_on_c, 3, 55, 93
5, 9204, Note_off_c, 3, 55, 0
5, 9204, Note_on_c, 3, 54, 93
5, 9216, Note_off_c, 3, 54, 0
5, 9216, Note_on_c, 3, 55, 93
5, 9240, Note_off_c, 3, 55, 0
5, 9240, Note_on_c, 3, 59, 93
5, 9264, Note_off_c, 3, 59, 0
5, 9264, Note_on_c, 3, 61, 93
5, 9288, Note_off_c, 3, 61, 0
5, 9288, Note_on_c, 3, 63, 93
5, 9312, Note_off_c, 3, 63, 0
5, 9312, Note_on_c, 3, 64, 93
5, 9336, Note_off_c, 3, 64, 0
5, 9336, Note_on_c, 3, 63, 93
5, 9360, Note_off_c, 3, 63, 0
5, 9360, Note_on_c, 3, 64, 93
5, 9384, Note_off_c, 3, 64, 0
5, 9384, Note_on_c, 3, 66, 93
5, 9408, Note_off_c, 3, 66, 0
5, 9408, Note_on_c, 3, 67, 93
5, 9480, Note_off_c, 3, 67, 0
5, 9480, Note_on_c, 3, 55, 93
5, 9504, Note_off_c, 3, 55, 0
5, 9504, Note_on_c, 3, 67, 93
5, 9576, Note_off_c, 3, 67, 0
5, 9576, Note_on_c, 3, 67, 93
5, 9600, Note_off_c, 3, 67, 0
5, 9600, Note_on_c, 3, 67, 93
5, 9756, Note_off_c, 3, 67, 0
5, 9756, Note_on_c, 3, 67, 93
5, 9768, Note_off_c, 3, 67, 0
5, 9768, Note_on_c, 3, 66, 93
5, 9780, Note_off_c, 3, 66, 0
5, 9780, Note_on_c, 3, 64, 93
5, 9792, Note_off_c, 3, 64, 0
5, 9792, Note_on_c, 3, 66, 93
5, 9852, Note_off_c, 3, 66, 0
5, 9852, Note_on_c, 3, 59, 93
5, 9864, Note_off_c, 3, 59, 0
5, 9864, Note_on_c, 3, 61, 93
5, 9876, Note_off_c, 3, 61, 0
5, 9876, Note_on_c, 3, 63, 93
5, 9888, Note_off_c, 3, 63, 0
5, 9888, Note_on_c, 3, 64, 93
5, 9960, Note_off_c, 3, 64, 0
5, 9960, Note_on_c, 3, 64, 93
5, 9984, Note_off_c, 3, 64, 0
5, 9984, Note_on_c, 3, 64, 93
5, 10140, Note_off_c, 3, 64, 0
5, 10140, Note_on_c, 3, 60, 93
5, 10152, Note_off_c, 3, 60, 0
5, 10152, Note_on_c, 3, 59, 93
5, 10164, Note_off_c, 3, 59, 0
5, 10164, Note_on_c, 3, 57, 93
5, 10176, Note_off_c, 3, 57, 0
5, 10176, Note_on_c, 3, 56, 93
5, 10248, Note_off_c, 3, 56, 0
5, 10248, Note_on_c, 3, 59, 93
5, 10272, Note_off_c, 3, 59, 0
5, 10272, Note_on_c, 3, 52, 93
5, 10344, Note_off_c, 3, 52, 0
5, 10344, Note_on_c, 3, 56, 93
5, 10368, Note_off_c, 3, 56, 0
5, 10368, Note_on_c, 3, 57, 93
5, 10488, Note_off_c, 3, 57, 0
5, 10488, Note_on_c, 3, 45, 93
5, 10500, Note_off_c, 3, 45, 0
5, 10500, Note_on_c, 3, 47, 93
5, 10512, Note_off_c, 3, 47, 0
5, 10512, Note_on_c, 3, 49, 93
5, 10524, Note_off_c, 3, 49, 0
5, 10524, Note_on_c, 3, 50, 93
5, 10536, Note_off_c, 3, 50, 0
5, 10536, Note_on_c, 3, 52, 93
5, 10548, Note_off_c, 3, 52, 0
5, 10548, Note_on_c, 3, 54, 93
5, 10560, Note_off_c, 3, 54, 0
5, 10560, Note_on_c, 3, 55, 93
5, 10632, Note_off_c, 3, 55, 0
5, 10632, Note_on_c, 3, 52, 93
5, 10656, Note_off_c, 3, 52, 0
5, 10656, Note_on_c, 3, 49, 93
5, 10728, Note_off_c, 3, 49, 0
5, 10728, Note_on_c, 3, 45, 93
5, 10752, Note_off_c, 3, 45, 0
5, 10752, Note_on_c, 3, 54, 93
5, 10908, Note_off_c, 3, 54, 0
5, 10908, Note_on_c, 3, 55, 93
5, 10920, Note_off_c, 3, 55, 0
5, 10920, Note_on_c, 3, 54, 93
5, 10932, Note_off_c, 3, 54, 0
5, 10932, Note_on_c, 3, 52, 93
5, 10944, Note_off_c, 3, 52, 0
5, 10944, Note_on_c, 3, 50, 93
5, 11004, Note_off_c, 3, 50, 0
5, 11004, Note_on_c, 3, 48, 93
5, 11016, Note_off_c, 3, 48, 0
5, 11016, Note_on_c, 3, 47, 93
5, 11028, Note_off_c, 3, 47, 0
5, 11028, Note_on_c, 3, 45, 93
5, 11040, Note_off_c, 3, 45, 0
5, 11040, Note_on_c, 3, 43, 93
5, 11100, Note_off_c, 3, 43, 0
5, 11100, Note_on_c, 3, 50, 93
5, 11112, Note_off_c, 3, 50, 0
5, 11112, Note_on_c, 3, 52, 93
5, 11124, Note_off_c, 3, 52, 0
5, 11124, Note_on_c, 3, 54, 93
5, 11136, Note_off_c, 3, 54, 0
5, 11136, Note_on_c, 3, 55, 93
5, 11148, Note_off_c, 3, 55, 0
5, 11148, Note_on_c, 3, 54, 93
5, 11160, Note_off_c, 3, 54, 0
5, 11160, Note_on_c, 3, 55, 93
5, 11208, Note_off_c, 3, 55, 0
5, 11208, Note_on_c, 3, 43, 93
5, 11232, Note_off_c, 3, 43, 0
5, 11232, Note_on_c, 3, 55, 93
5, 11304, Note_off_c, 3, 55, 0
5, 11304, Note_on_c, 3, 55, 93
5, 11328, Note_off_c, 3, 55, 0
5, 11328, Note_on_c, 3, 55, 93
5, 11484, Note_off_c, 3, 55, 0
5, 11484, Note_on_c, 3, 55, 93
5, 11496, Note_off_c, 3, 55, 0
5, 11496, Note_on_c, 3, 54, 93
5, 11508, Note_off_c, 3, 54, 0
5, 11508, Note_on_c, 3, 52, 93
5, 11520, Note_off_c, 3, 52, 0
5, 11520, Note_on_c, 3, 54, 93
5, 11556, Note_off_c, 3, 54, 0
5, 11556, Note_on_c, 3, 50, 93
5, 11568, Note_off_c, 3, 50, 0
5, 11568, Note_on_c, 3, 52, 93
5, 11580, Note_off_c, 3, 52, 0
5, 11580, Note_on_c, 3, 54, 93
5, 11592, Note_off_c, 3, 54, 0
5, 11592, Note_on_c, 3, 55, 93
5, 11604, Note_off_c, 3, 55, 0
5, 11604, Note_on_c, 3, 57, 93
5, 11616, Note_off_c, 3, 57, 0
5, 11616, Note_on_c, 3, 59, 93
5, 11688, Note_off_c, 3, 59, 0
5, 11688, Note_on_c, 3, 55, 93
5, 11712, Note_off_c, 3, 55, 0
5, 11712, Note_on_c, 3, 57, 93
5, 11808, Note_off_c, 3, 57, 0
5, 11808, Note_on_c, 3, 45, 93
5, 11904, Note_off_c, 3, 45, 0
5, 11904, Note_on_c, 3, 38, 93
5, 12000, Note_off_c, 3, 38, 0
5, 12960, Note_on_c, 3, 59, 93
5, 12984, Note_off_c, 3, 59, 0
5, 12984, Note_on_c, 3, 57, 93
5, 13008, Note_off_c, 3, 57, 0
5, 13008, Note_on_c, 3, 55, 93
5, 13032, Note_off_c, 3, 55, 0
5, 13032, Note_on_c, 3, 54, 93
5, 13056, Note_off_c, 3, 54, 0
5, 13056, Note_on_c, 3, 55, 93
5, 13104, Note_off_c, 3, 55, 0
5, 13104, Note_on_c, 3, 57, 93
5, 13152, Note_off_c, 3, 57, 0
5, 13152, Note_on_c, 3, 59, 93
5, 13200, Note_off_c, 3, 59, 0
5, 13200, Note_on_c, 3, 52, 93
5, 13224, Note_off_c, 3, 52, 0
5, 13224, Note_on_c, 3, 55, 93
5, 13248, Note_off_c, 3, 55, 0
5, 13248, Note_on_c, 3, 54, 93
5, 13272, Note_off_c, 3, 54, 0
5, 13272, Note_on_c, 3, 57, 93
5, 13296, Note_off_c, 3, 57, 0
5, 13296, Note_on_c, 3, 55, 93
5, 13320, Note_off_c, 3, 55, 0
5, 13320, Note_on_c, 3, 59, 93
5, 13344, Note_off_c, 3, 59, 0
5, 13344, Note_on_c, 3, 57, 93
5, 13392, Note_off_c, 3, 57, 0
5, 13392, Note_on_c, 3, 59, 93
5, 13440, Note_off_c, 3, 59, 0
5, 13440, Note_on_c, 3, 60, 93
5, 13488, Note_off_c, 3, 60, 0
5, 13488, Note_on_c, 3, 54, 93
5, 13512, Note_off_c, 3, 54, 0
5, 13512, Note_on_c, 3, 57, 93
5, 13536, Note_off_c, 3, 57, 0
5, 13536, Note_on_c, 3, 55, 93
5, 13560, Note_off_c, 3, 55, 0
5, 13560, Note_on_c, 3, 59, 93
5, 13584, Note_off_c, 3, 59, 0
5, 13584, Note_on_c, 3, 57, 93
5, 13608, Note_off_c, 3, 57, 0
5, 13608, Note_on_c, 3, 60, 93
5, 13632, Note_off_c, 3, 60, 0
5, 13632, Note_on_c, 3, 59, 93
5, 13680, Note_off_c, 3, 59, 0
5, 13680, Note_on_c, 3, 60, 93
5, 13728, Note_off_c, 3, 60, 0
5, 13728, Note_on_c, 3, 62, 93
5, 13776, Note_off_c, 3, 62, 0
5, 13776, Note_on_c, 3, 55, 93
5, 13800, Note_off_c, 3, 55, 0
5, 13800, Note_on_c, 3, 59, 93
5, 13824, Note_off_c, 3, 59, 0
5, 13824, Note_on_c, 3, 57, 93
5, 13848, Note_off_c, 3, 57, 0
5, 13848, Note_on_c, 3, 60, 93
5, 13872, Note_off_c, 3, 60, 0
5, 13872, Note_on_c, 3, 59, 93
5, 13896, Note_off_c, 3, 59, 0
5, 13896, Note_on_c, 3, 62, 93
5, 13920, Note_off_c, 3, 62, 0
5, 13920, Note_on_c, 3, 60, 93
5, 13968, Note_off_c, 3, 60, 0
5, 13968, Note_on_c, 3, 57, 93
5, 14016, Note_off_c, 3, 57, 0
5, 14016, Note_on_c, 3, 59, 93
5, 14064, Note_off_c, 3, 59, 0
5, 14064, Note_on_c, 3, 52, 93
5, 14112, Note_off_c, 3, 52, 0
5, 14688, Note_on_c, 3, 50, 93
5, 14712, Note_off_c, 3, 50, 0
5, 14712, Note_on_c, 3, 48, 93
5, 14736, Note_off_c, 3, 48, 0
5, 14736, Note_on_c, 3, 47, 93
5, 14760, Note_off_c, 3, 47, 0
5, 14760, Note_on_c, 3, 45, 93
5, 14784, Note_off_c, 3, 45, 0
5, 14784, Note_on_c, 3, 47, 93
5, 14832, Note_off_c, 3, 47, 0
5, 14832, Note_on_c, 3, 48, 93
5, 14880, Note_off_c, 3, 48, 0
5, 14880, Note_on_c, 3, 50, 93
5, 14928, Note_off_c, 3, 50, 0
5, 14928, Note_on_c, 3, 43, 93
5, 14952, Note_off_c, 3, 43, 0
5, 14952, Note_on_c, 3, 47, 93
5, 14976, Note_off_c, 3, 47, 0
5, 14976, Note_on_c, 3, 45, 93
5, 15000, Note_off_c, 3, 45, 0
5, 15000, Note_on_c, 3, 48, 93
5, 15024, Note_off_c, 3, 48, 0
5, 15024, Note_on_c, 3, 47, 93
5, 15048, Note_off_c, 3, 47, 0
5, 15048, Note_on_c, 3, 50, 93
5, 15072, Note_off_c, 3, 50, 0
5, 15072, Note_on_c, 3, 48, 93
5, 15096, Note_off_c, 3, 48, 0
5, 15096, Note_on_c, 3, 47, 93
5, 15120, Note_off_c, 3, 47, 0
5, 15120, Note_on_c, 3, 45, 93
5, 15144, Note_off_c, 3, 45, 0
5, 15144, Note_on_c, 3, 43, 93
5, 15168, Note_off_c, 3, 43, 0
5, 15168, Note_on_c, 3, 42, 93
5, 15192, Note_off_c, 3, 42, 0
5, 15192, Note_on_c, 3, 40, 93
5, 15216, Note_off_c, 3, 40, 0
5, 15216, Note_on_c, 3, 42, 93
5, 15264, Note_off_c, 3, 42, 0
5, 15264, Note_on_c, 3, 45, 93
5, 15276, Note_off_c, 3, 45, 0
5, 15276, Note_on_c, 3, 43, 93
5, 15288, Note_off_c, 3, 43, 0
5, 15288, Note_on_c, 3, 42, 93
5, 15300, Note_off_c, 3, 42, 0
5, 15300, Note_on_c, 3, 43, 93
5, 15312, Note_off_c, 3, 43, 0
5, 15312, Note_on_c, 3, 45, 93
5, 15360, Note_off_c, 3, 45, 0
5, 15360, Note_on_c, 3, 38, 93
5, 15384, Note_off_c, 3, 38, 0
5, 15384, Note_on_c, 3, 42, 93
5, 15408, Note_off_c, 3, 42, 0
5, 15408, Note_on_c, 3, 40, 93
5, 15432, Note_off_c, 3, 40, 0
5, 15432, Note_on_c, 3, 43, 93
5, 15456, Note_off_c, 3, 43, 0
5, 15456, Note_on_c, 3, 42, 93
5, 15480, Note_off_c, 3, 42, 0
5, 15480, Note_on_c, 3, 45, 93
5, 15504, Note_off_c, 3, 45, 0
5, 15504, Note_on_c, 3, 43, 93
5, 15552, Note_off_c, 3, 43, 0
5, 15552, Note_on_c, 3, 47, 93
5, 15564, Note_off_c, 3, 47, 0
5, 15564, Note_on_c, 3, 45, 93
5, 15576, Note_off_c, 3, 45, 0
5, 15576, Note_on_c, 3, 43, 93
5, 15588, Note_off_c, 3, 43, 0
5, 15588, Note_on_c, 3, 45, 93
5, 15600, Note_off_c, 3, 45, 0
5, 15600, Note_on_c, 3, 47, 93
5, 15648, Note_off_c, 3, 47, 0
5, 15648, Note_on_c, 3, 40, 93
5, 15672, Note_off_c, 3, 40, 0
5, 15672, Note_on_c, 3, 44, 93
5, 15696, Note_off_c, 3, 44, 0
5, 15696, Note_on_c, 3, 42, 93
5, 15720, Note_off_c, 3, 42, 0
5, 15720, Note_on_c, 3, 45, 93
5, 15744, Note_off_c, 3, 45, 0
5, 15744, Note_on_c, 3, 44, 93
5, 15768, Note_off_c, 3, 44, 0
5, 15768, Note_on_c, 3, 47, 93
5, 15792, Note_off_c, 3, 47, 0
5, 15792, Note_on_c, 3, 45, 93
5, 15816, Note_off_c, 3, 45, 0
5, 15816, Note_on_c, 3, 52, 93
5, 15840, Note_off_c, 3, 52, 0
5, 15840, Note_on_c, 3, 57, 93
5, 15864, Note_off_c, 3, 57, 0
5, 15864, Note_on_c, 3, 55, 93
5, 15888, Note_off_c, 3, 55, 0
5, 15888, Note_on_c, 3, 54, 93
5, 15912, Note_off_c, 3, 54, 0
5, 15912, Note_on_c, 3, 52, 93
5, 15936, Note_off_c, 3, 52, 0
5, 15936, Note_on_c, 3, 54, 93
5, 15960, Note_off_c, 3, 54, 0
5, 15960, Note_on_c, 3, 55, 93
5, 15984, Note_off_c, 3, 55, 0
5, 15984, Note_on_c, 3, 54, 93
5, 16008, Note_off_c, 3, 54, 0
5, 16008, Note_on_c, 3, 52, 93
5, 16032, Note_off_c, 3, 52, 0
5, 16032, Note_on_c, 3, 50, 93
5, 16056, Note_off_c, 3, 50, 0
5, 16056, Note_on_c, 3, 48, 93
5, 16080, Note_off_c, 3, 48, 0
5, 16080, Note_on_c, 3, 47, 93
5, 16104, Note_off_c, 3, 47, 0
5, 16104, Note_on_c, 3, 50, 93
5, 16128, Note_off_c, 3, 50, 0
5, 16128, Note_on_c, 3, 48, 93
5, 16152, Note_off_c, 3, 48, 0
5, 16152, Note_on_c, 3, 52, 93
5, 16176, Note_off_c, 3, 52, 0
5, 16176, Note_on_c, 3, 50, 93
5, 16200, Note_off_c, 3, 50, 0
5, 16200, Note_on_c, 3, 54, 93
5, 16224, Note_off_c, 3, 54, 0
5, 16224, Note_on_c, 3, 52, 93
5, 16272, Note_off_c, 3, 52, 0
5, 16272, Note_on_c, 3, 48, 93
5, 16320, Note_off_c, 3, 48, 0
5, 16320, Note_on_c, 3, 50, 93
5, 16368, Note_off_c, 3, 50, 0
5, 16368, Note_on_c, 3, 43, 93
5, 16392, Note_off_c, 3, 43, 0
5, 16392, Note_on_c, 3, 42, 93
5, 16416, Note_off_c, 3, 42, 0
5, 16416, Note_on_c, 3, 43, 93
5, 16440, Note_off_c, 3, 43, 0
5, 16440, Note_on_c, 3, 45, 93
5, 16464, Note_off_c, 3, 45, 0
5, 16464, Note_on_c, 3, 47, 93
5, 16488, Note_off_c, 3, 47, 0
5, 16488, Note_on_c, 3, 48, 93
5, 16512, Note_off_c, 3, 48, 0
5, 16512, Note_on_c, 3, 50, 93
5, 16560, Note_off_c, 3, 50, 0
5, 16560, Note_on_c, 3, 38, 93
5, 16608, Note_off_c, 3, 38, 0
5, 17568, Note_on_c, 3, 59, 93
5, 17592, Note_off_c, 3, 59, 0
5, 17592, Note_on_c, 3, 57, 93
5, 17616, Note_off_c, 3, 57, 0
5, 17616, Note_on_c, 3, 55, 93
5, 17640, Note_off_c, 3, 55, 0
5, 17640, Note_on_c, 3, 54, 93
5, 17664, Note_off_c, 3, 54, 0
5, 17664, Note_on_c, 3, 55, 93
5, 17712, Note_off_c, 3, 55, 0
5, 17712, Note_on_c, 3, 57, 93
5, 17760, Note_off_c, 3, 57, 0
5, 17760, Note_on_c, 3, 59, 93
5, 17808, Note_off_c, 3, 59, 0
5, 17808, Note_on_c, 3, 52, 93
5, 17832, Note_off_c, 3, 52, 0
5, 17832, Note_on_c, 3, 55, 93
5, 17856, Note_off_c, 3, 55, 0
5, 17856, Note_on_c, 3, 54, 93
5, 17880, Note_off_c, 3, 54, 0
5, 17880, Note_on_c, 3, 57, 93
5, 17904, Note_off_c, 3, 57, 0
5, 17904, Note_on_c, 3, 55, 93
5, 17928, Note_off_c, 3, 55, 0
5, 17928, Note_on_c, 3, 59, 93
5, 17952, Note_off_c, 3, 59, 0
5, 17952, Note_on_c, 3, 57, 93
5, 18000, Note_off_c, 3, 57, 0
5, 18000, Note_on_c, 3, 59, 93
5, 18048, Note_off_c, 3, 59, 0
5, 18048, Note_on_c, 3, 60, 93
5, 18096, Note_off_c, 3, 60, 0
5, 18096, Note_on_c, 3, 54, 93
5, 18120, Note_off_c, 3, 54, 0
5, 18120, Note_on_c, 3, 57, 93
5, 18144, Note_off_c, 3, 57, 0
5, 18144, Note_on_c, 3, 55, 93
5, 18168, Note_off_c, 3, 55, 0
5, 18168, Note_on_c, 3, 59, 93
5, 18192, Note_off_c, 3, 59, 0
5, 18192, Note_on_c, 3, 57, 93
5, 18216, Note_off_c, 3, 57, 0
5, 18216, Note_on_c, 3, 60, 93
5, 18240, Note_off_c, 3, 60, 0
5, 18240, Note_on_c, 3, 59, 93
5, 18288, Note_off_c, 3, 59, 0
5, 18288, Note_on_c, 3, 60, 93
5, 18336, Note_off_c, 3, 60, 0
5, 18336, Note_on_c, 3, 62, 93
5, 18384, Note_off_c, 3, 62, 0
5, 18384, Note_on_c, 3, 55, 93
5, 18408, Note_off_c, 3, 55, 0
5, 18408, Note_on_c, 3, 59, 93
5, 18432, Note_off_c, 3, 59, 0
5, 18432, Note_on_c, 3, 57, 93
5, 18456, Note_off_c, 3, 57, 0
5, 18456, Note_on_c, 3, 60, 93
5, 18480, Note_off_c, 3, 60, 0
5, 18480, Note_on_c, 3, 59, 93
5, 18504, Note_off_c, 3, 59, 0
5, 18504, Note_on_c, 3, 62, 93
5, 18528, Note_off_c, 3, 62, 0
5, 18528, Note_on_c, 3, 60, 93
5, 18576, Note_off_c, 3, 60, 0
5, 18576, Note_on_c, 3, 57, 93
5, 18624, Note_off_c, 3, 57, 0
5, 18624, Note_on_c, 3, 59, 93
5, 18672, Note_off_c, 3, 59, 0
5, 18672, Note_on_c, 3, 52, 93
5, 18720, Note_off_c, 3, 52, 0
5, 19296, Note_on_c, 3, 50, 93
5, 19320, Note_off_c, 3, 50, 0
5, 19320, Note_on_c, 3, 48, 93
5, 19344, Note_off_c, 3, 48, 0
5, 19344, Note_on_c, 3, 47, 93
5, 19368, Note_off_c, 3, 47, 0
5, 19368, Note_on_c, 3, 45, 93
5, 19392, Note_off_c, 3, 45, 0
5, 19392, Note_on_c, 3, 47, 93
5, 19440, Note_off_c, 3, 47, 0
5, 19440, Note_on_c, 3, 48, 93
5, 19488, Note_off_c, 3, 48, 0
5, 19488, Note_on_c, 3, 50, 93
5, 19536, Note_off_c, 3, 50, 0
5, 19536, Note_on_c, 3, 43, 93
5, 19560, Note_off_c, 3, 43, 0
5, 19560, Note_on_c, 3, 47, 93
5, 19584, Note_off_c, 3, 47, 0
5, 19584, Note_on_c, 3, 45, 93
5, 19608, Note_off_c, 3, 45, 0
5, 19608, Note_on_c, 3, 48, 93
5, 19632, Note_off_c, 3, 48, 0
5, 19632, Note_on_c, 3, 47, 93
5, 19656, Note_off_c, 3, 47, 0
5, 19656, Note_on_c, 3, 50, 93
5, 19680, Note_off_c, 3, 50, 0
5, 19680, Note_on_c, 3, 48, 93
5, 19704, Note_off_c, 3, 48, 0
5, 19704, Note_on_c, 3, 47, 93
5, 19728, Note_off_c, 3, 47, 0
5, 19728, Note_on_c, 3, 45, 93
5, 19752, Note_off_c, 3, 45, 0
5, 19752, Note_on_c, 3, 43, 93
5, 19776, Note_off_c, 3, 43, 0
5, 19776, Note_on_c, 3, 42, 93
5, 19800, Note_off_c, 3, 42, 0
5, 19800, Note_on_c, 3, 40, 93
5, 19824, Note_off_c, 3, 40, 0
5, 19824, Note_on_c, 3, 42, 93
5, 19872, Note_off_c, 3, 42, 0
5, 19872, Note_on_c, 3, 45, 93
5, 19884, Note_off_c, 3, 45, 0
5, 19884, Note_on_c, 3, 43, 93
5, 19896, Note_off_c, 3, 43, 0
5, 19896, Note_on_c, 3, 42, 93
5, 19908, Note_off_c, 3, 42, 0
5, 19908, Note_on_c, 3, 43, 93
5, 19920, Note_off_c, 3, 43, 0
5, 19920, Note_on_c, 3, 45, 93
5, 19968, Note_off_c, 3, 45, 0
5, 19968, Note_on_c, 3, 38, 93
5, 19992, Note_off_c, 3, 38, 0
5, 19992, Note_on_c, 3, 42, 93
5, 20016, Note_off_c, 3, 42, 0
5, 20016, Note_on_c, 3, 40, 93
5, 20040, Note_off_c, 3, 40, 0
5, 20040, Note_on_c, 3, 43, 93
5, 20064, Note_off_c, 3, 43, 0
5, 20064, Note_on_c, 3, 42, 93
5, 20088, Note_off_c, 3, 42, 0
5, 20088, Note_on_c, 3, 45, 93
5, 20112, Note_off_c, 3, 45, 0
5, 20112, Note_on_c, 3, 43, 93
5, 20160, Note_off_c, 3, 43, 0
5, 20160, Note_on_c, 3, 47, 93
5, 20172, Note_off_c, 3, 47, 0
5, 20172, Note_on_c, 3, 45, 93
5, 20184, Note_off_c, 3, 45, 0
5, 20184, Note_on_c, 3, 43, 93
5, 20196, Note_off_c, 3, 43, 0
5, 20196, Note_on_c, 3, 45, 93
5, 20208, Note_off_c, 3, 45, 0
5, 20208, Note_on_c, 3, 47, 93
5, 20256, Note_off_c, 3, 47, 0
5, 20256, Note_on_c, 3, 40, 93
5, 20280, Note_off_c, 3, 40, 0
5, 20280, Note_on_c, 3, 44, 93
5, 20304, Note_off_c, 3, 44, 0
5, 20304, Note_on_c, 3, 42, 93
5, 20328, Note_off_c, 3, 42, 0
5, 20328, Note_on_c, 3, 45, 93
5, 20352, Note_off_c, 3, 45, 0
5, 20352, Note_on_c, 3, 44, 93
5, 20376, Note_off_c, 3, 44, 0
5, 20376, Note_on_c, 3, 47, 93
5, 20400, Note_off_c, 3, 47, 0
5, 20400, Note_on_c, 3, 45, 93
5, 20424, Note_off_c, 3, 45, 0
5, 20424, Note_on_c, 3, 52, 93
5, 20448, Note_off_c, 3, 52, 0
5, 20448, Note_on_c, 3, 57, 93
5, 20472, Note_off_c, 3, 57, 0
5, 20472, Note_on_c, 3, 55, 93
5, 20496, Note_off_c, 3, 55, 0
5, 20496, Note_on_c, 3, 54, 93
5, 20520, Note_off_c, 3, 54, 0
5, 20520, Note_on_c, 3, 52, 93
5, 20544, Note_off_c, 3, 52, 0
5, 20544, Note_on_c, 3, 54, 93
5, 20568, Note_off_c, 3, 54, 0
5, 20568, Note_on_c, 3, 55, 93
5, 20592, Note_off_c, 3, 55, 0
5, 20592, Note_on_c, 3, 54, 93
5, 20616, Note_off_c, 3, 54, 0
5, 20616, Note_on_c, 3, 52, 93
5, 20640, Note_off_c, 3, 52, 0
5, 20640, Note_on_c, 3, 50, 93
5, 20664, Note_off_c, 3, 50, 0
5, 20664, Note_on_c, 3, 48, 93
5, 20688, Note_off_c, 3, 48, 0
5, 20688, Note_on_c, 3, 47, 93
5, 20712, Note_off_c, 3, 47, 0
5, 20712, Note_on_c, 3, 50, 93
5, 20736, Note_off_c, 3, 50, 0
5, 20736, Note_on_c, 3, 48, 93
5, 20760, Note_off_c, 3, 48, 0
5, 20760, Note_on_c, 3, 52, 93
5, 20784, Note_off_c, 3, 52, 0
5, 20784, Note_on_c, 3, 50, 93
5, 20808, Note_off_c, 3, 50, 0
5, 20808, Note_on_c, 3, 54, 93
5, 20832, Note_off_c, 3, 54, 0
5, 20832, Note_on_c, 3, 52, 93
5, 20880, Note_off_c, 3, 52, 0
5, 20880, Note_on_c, 3, 48, 93
5, 20928, Note_off_c, 3, 48, 0
5, 20928, Note_on_c, 3, 50, 93
5, 20976, Note_off_c, 3, 50, 0
5, 20976, Note_on_c, 3, 43, 93
5, 21360, Note_off_c, 3, 43, 0
5, 21360, End_track
0, 0, End_of_file
