0, 0, Header, 1, 3, 96
1, 0, Start_track
1, 0, Time_signature, 4, 2, 24, 8
1, 0, Title_t, "untitled"
1, 0, Title_t, "Track1"
1, 0, Tempo, 600000
1, 18336, Tempo, 1250000
1, 18336, End_track
2, 0, Start_track
2, 0, Title_t, "Track2"
2, 0, Program_c, 0, 6
2, 0, Control_c, 0, 7, 100
2, 0, Control_c, 0, 10, 69
2, 24, Note_on_c, 0, 62, 93
2, 48, Note_off_c, 0, 62, 0
2, 48, Note_on_c, 0, 64, 93
2, 72, Note_off_c, 0, 64, 0
2, 72, Note_on_c, 0, 66, 93
2, 96, Note_off_c, 0, 66, 0
2, 96, Note_on_c, 0, 67, 93
2, 120, Note_off_c, 0, 67, 0
2, 120, Note_on_c, 0, 66, 93
2, 144, Note_off_c, 0, 66, 0
2, 144, Note_on_c, 0, 67, 93
2, 168, Note_off_c, 0, 67, 0
2, 168, Note_on_c, 0, 69, 93
2, 192, Note_off_c, 0, 69, 0
2, 192, Note_on_c, 0, 71, 93
2, 216, Note_off_c, 0, 71, 0
2, 216, Note_on_c, 0, 69, 93
2, 240, Note_off_c, 0, 69, 0
2, 240, Note_on_c, 0, 67, 93
2, 264, Note_off_c, 0, 67, 0
2, 264, Note_on_c, 0, 71, 93
2, 288, Note_off_c, 0, 71, 0
2, 288, Note_on_c, 0, 69, 93
2, 312, Note_off_c, 0, 69, 0
2, 312, Note_on_c, 0, 67, 93
2, 336, Note_off_c, 0, 67, 0
2, 336, Note_on_c, 0, 66, 93
2, 360, Note_off_c, 0, 66, 0
2, 360, Note_on_c, 0, 64, 93
2, 384, Note_off_c, 0, 64, 0
2, 384, Note_on_c, 0, 62, 93
2, 408, Note_off_c, 0, 62, 0
2, 408, Note_on_c, 0, 64, 93
2, 432, Note_off_c, 0, 64, 0
2, 432, Note_on_c, 0, 66, 93
2, 456, Note_off_c, 0, 66, 0
2, 456, Note_on_c, 0, 67, 93
2, 480, Note_off_c, 0, 67, 0
2, 480, Note_on_c, 0, 69, 93
2, 504, Note_off_c, 0, 69, 0
2, 504, Note_on_c, 0, 66, 93
2, 528, Note_off_c, 0, 66, 0
2, 528, Note_on_c, 0, 64, 93
2, 552, Note_off_c, 0, 64, 0
2, 552, Note_on_c, 0, 62, 93
2, 576, Note_off_c, 0, 62, 0
2, 576, Note_on_c, 0, 67, 93
2, 600, Note_off_c, 0, 67, 0
2, 600, Note_on_c, 0, 66, 93
2, 624, Note_off_c, 0, 66, 0
2, 624, Note_on_c, 0, 64, 93
2, 648, Note_off_c, 0, 64, 0
2, 648, Note_on_c, 0, 62, 93
2, 672, Note_off_c, 0, 62, 0
2, 672, Note_on_c, 0, 61, 93
2, 696, Note_off_c, 0, 61, 0
2, 696, Note_on_c, 0, 62, 93
2, 720, Note_off_c, 0, 62, 0
2, 720, Note_on_c, 0, 64, 93
2, 744, Note_off_c, 0, 64, 0
2, 744, Note_on_c, 0, 66, 93
2, 768, Note_off_c, 0, 66, 0
2, 768, Note_on_c, 0, 67, 93
2, 792, Note_off_c, 0, 67, 0
2, 792, Note_on_c, 0, 71, 93
2, 816, Note_off_c, 0, 71, 0
2, 816, Note_on_c, 0, 69, 93
2, 840, Note_off_c, 0, 69, 0
2, 840, Note_on_c, 0, 67, 93
2, 864, Note_off_c, 0, 67, 0
2, 864, Note_on_c, 0, 66, 93
2, 888, Note_off_c, 0, 66, 0
2, 888, Note_on_c, 0, 64, 93
2, 912, Note_off_c, 0, 64, 0
2, 912, Note_on_c, 0, 62, 93
2, 936, Note_off_c, 0, 62, 0
2, 936, Note_on_c, 0, 61, 93
2, 960, Note_off_c, 0, 61, 0
2, 960, Note_on_c, 0, 62, 93
2, 984, Note_off_c, 0, 62, 0
2, 984, Note_on_c, 0, 57, 93
2, 1008, Note_off_c, 0, 57, 0
2, 1008, Note_on_c, 0, 62, 93
2, 1032, Note_off_c, 0, 62, 0
2, 1032, Note_on_c, 0, 64, 93
2, 1056, Note_off_c, 0, 64, 0
2, 1056, Note_on_c, 0, 66, 93
2, 1080, Note_off_c, 0, 66, 0
2, 1080, Note_on_c, 0, 62, 93
2, 1104, Note_off_c, 0, 62, 0
2, 1104, Note_on_c, 0, 66, 93
2, 1128, Note_off_c, 0, 66, 0
2, 1128, Note_on_c, 0, 69, 93
2, 1152, Note_off_c, 0, 69, 0
2, 1152, Note_on_c, 0, 74, 93
2, 1176, Note_off_c, 0, 74, 0
2, 1176, Note_on_c, 0, 71, 93
2, 1200, Note_off_c, 0, 71, 0
2, 1200, Note_on_c, 0, 69, 93
2, 1224, Note_off_c, 0, 69, 0
2, 1224, Note_on_c, 0, 71, 93
2, 1248, Note_off_c, 0, 71, 0
2, 1248, Note_on_c, 0, 67, 93
2, 1272, Note_off_c, 0, 67, 0
2, 1272, Note_on_c, 0, 71, 93
2, 1296, Note_off_c, 0, 71, 0
2, 1296, Note_on_c, 0, 69, 93
2, 1320, Note_off_c, 0, 69, 0
2, 1320, Note_on_c, 0, 71, 93
2, 1344, Note_off_c, 0, 71, 0
2, 1344, Note_on_c, 0, 62, 93
2, 1368, Note_off_c, 0, 62, 0
2, 1368, Note_on_c, 0, 67, 93
2, 1392, Note_off_c, 0, 67, 0
2, 1392, Note_on_c, 0, 66, 93
2, 1416, Note_off_c, 0, 66, 0
2, 1416, Note_on_c, 0, 67, 93
2, 1440, Note_off_c, 0, 67, 0
2, 1440, Note_on_c, 0, 64, 93
2, 1464, Note_off_c, 0, 64, 0
2, 1464, Note_on_c, 0, 67, 93
2, 1488, Note_off_c, 0, 67, 0
2, 1488, Note_on_c, 0, 62, 93
2, 1512, Note_off_c, 0, 62, 0
2, 1512, Note_on_c, 0, 67, 93
2, 1536, Note_off_c, 0, 67, 0
2, 1536, Note_on_c, 0, 60, 93
2, 1560, Note_off_c, 0, 60, 0
2, 1560, Note_on_c, 0, 67, 93
2, 1584, Note_off_c, 0, 67, 0
2, 1584, Note_on_c, 0, 59, 93
2, 1608, Note_off_c, 0, 59, 0
2, 1608, Note_on_c, 0, 67, 93
2, 1632, Note_off_c, 0, 67, 0
2, 1632, Note_on_c, 0, 57, 93
2, 1656, Note_off_c, 0, 57, 0
2, 1656, Note_on_c, 0, 67, 93
2, 1680, Note_off_c, 0, 67, 0
2, 1680, Note_on_c, 0, 59, 93
2, 1704, Note_off_c, 0, 59, 0
2, 1704, Note_on_c, 0, 67, 93
2, 1728, Note_off_c, 0, 67, 0
2, 1728, Note_on_c, 0, 60, 93
2, 1752, Note_off_c, 0, 60, 0
2, 1752, Note_on_c, 0, 67, 93
2, 1776, Note_off_c, 0, 67, 0
2, 1776, Note_on_c, 0, 59, 93
2, 1800, Note_off_c, 0, 59, 0
2, 1800, Note_on_c, 0, 67, 93
2, 1824, Note_off_c, 0, 67, 0
2, 1824, Note_on_c, 0, 60, 93
2, 1848, Note_off_c, 0, 60, 0
2, 1848, Note_on_c, 0, 66, 93
2, 1872, Note_off_c, 0, 66, 0
2, 1872, Note_on_c, 0, 64, 93
2, 1896, Note_off_c, 0, 64, 0
2, 1896, Note_on_c, 0, 66, 93
2, 1920, Note_off_c, 0, 66, 0
2, 1920, Note_on_c, 0, 62, 93
2, 1944, Note_off_c, 0, 62, 0
2, 1944, Note_on_c, 0, 66, 93
2, 1968, Note_off_c, 0, 66, 0
2, 1968, Note_on_c, 0, 60, 93
2, 1992, Note_off_c, 0, 60, 0
2, 1992, Note_on_c, 0, 66, 93
2, 2016, Note_off_c, 0, 66, 0
2, 2016, Note_on_c, 0, 59, 93
2, 2040, Note_off_c, 0, 59, 0
2, 2040, Note_on_c, 0, 67, 93
2, 2064, Note_off_c, 0, 67, 0
2, 2064, Note_on_c, 0, 66, 93
2, 2088, Note_off_c, 0, 66, 0
2, 2088, Note_on_c, 0, 64, 93
2, 2112, Note_off_c, 0, 64, 0
2, 2112, Note_on_c, 0, 62, 93
2, 2136, Note_off_c, 0, 62, 0
2, 2136, Note_on_c, 0, 60, 93
2, 2160, Note_off_c, 0, 60, 0
2, 2160, Note_on_c, 0, 59, 93
2, 2184, Note_off_c, 0, 59, 0
2, 2184, Note_on_c, 0, 57, 93
2, 2208, Note_off_c, 0, 57, 0
2, 2208, Note_on_c, 0, 55, 93
2, 2256, Note_off_c, 0, 55, 0
2, 2304, Note_on_c, 0, 83, 93
2, 2352, Note_off_c, 0, 83, 0
2, 2400, Note_on_c, 0, 67, 93
2, 2448, Note_off_c, 0, 67, 0
2, 2496, Note_on_c, 0, 83, 93
2, 2592, Note_off_c, 0, 83, 0
2, 2592, Note_on_c, 0, 81, 93
2, 2640, Note_off_c, 0, 81, 0
2, 2688, Note_on_c, 0, 66, 93
2, 2736, Note_off_c, 0, 66, 0
2, 2784, Note_on_c, 0, 81, 93
2, 2880, Note_off_c, 0, 81, 0
2, 2880, Note_on_c, 0, 79, 93
2, 2904, Note_off_c, 0, 79, 0
2, 2904, Note_on_c, 0, 78, 93
2, 2928, Note_off_c, 0, 78, 0
2, 2928, Note_on_c, 0, 76, 93
2, 2952, Note_off_c, 0, 76, 0
2, 2952, Note_on_c, 0, 75, 93
2, 2976, Note_off_c, 0, 75, 0
2, 2976, Note_on_c, 0, 76, 93
2, 3000, Note_off_c, 0, 76, 0
2, 3000, Note_on_c, 0, 79, 93
2, 3024, Note_off_c, 0, 79, 0
2, 3024, Note_on_c, 0, 74, 93
2, 3048, Note_off_c, 0, 74, 0
2, 3048, Note_on_c, 0, 79, 93
2, 3072, Note_off_c, 0, 79, 0
2, 3072, Note_on_c, 0, 73, 93
2, 3096, Note_off_c, 0, 73, 0
2, 3096, Note_on_c, 0, 79, 93
2, 3120, Note_off_c, 0, 79, 0
2, 3120, Note_on_c, 0, 71, 93
2, 3144, Note_off_c, 0, 71, 0
2, 3144, Note_on_c, 0, 79, 93
2, 3168, Note_off_c, 0, 79, 0
2, 3168, Note_on_c, 0, 73, 93
2, 3192, Note_off_c, 0, 73, 0
2, 3192, Note_on_c, 0, 79, 93
2, 3216, Note_off_c, 0, 79, 0
2, 3216, Note_on_c, 0, 76, 93
2, 3240, Note_off_c, 0, 76, 0
2, 3240, Note_on_c, 0, 79, 93
2, 3264, Note_off_c, 0, 79, 0
2, 3264, Note_on_c, 0, 69, 93
2, 3312, Note_off_c, 0, 69, 0
2, 3312, Note_on_c, 0, 79, 93
2, 3360, Note_off_c, 0, 79, 0
2, 3360, Note_on_c, 0, 78, 93
2, 3408, Note_off_c, 0, 78, 0
2, 3408, Note_on_c, 0, 81, 93
2, 3420, Note_off_c, 0, 81, 0
2, 3420, Note_on_c, 0, 79, 93
2, 3432, Note_off_c, 0, 79, 0
2, 3432, Note_on_c, 0, 78, 93
2, 3444, Note_off_c, 0, 78, 0
2, 3444, Note_on_c, 0, 79, 93
2, 3456, Note_off_c, 0, 79, 0
2, 3456, Note_on_c, 0, 81, 93
2, 3504, Note_off_c, 0, 81, 0
2, 3504, Note_on_c, 0, 64, 93
2, 3552, Note_off_c, 0, 64, 0
2, 3552, Note_on_c, 0, 66, 93
2, 3600, Note_off_c, 0, 66, 0
2, 3600, Note_on_c, 0, 78, 93
2, 3648, Note_off_c, 0, 78, 0
2, 3648, Note_on_c, 0, 79, 93
2, 3696, Note_off_c, 0, 79, 0
2, 3696, Note_on_c, 0, 81, 93
2, 3744, Note_off_c, 0, 81, 0
2, 3744, Note_on_c, 0, 83, 93
2, 3792, Note_off_c, 0, 83, 0
2, 3792, Note_on_c, 0, 66, 93
2, 3840, Note_off_c, 0, 66, 0
2, 3840, Note_on_c, 0, 64, 93
2, 3888, Note_off_c, 0, 64, 0
2, 3888, Note_on_c, 0, 79, 93
2, 3936, Note_off_c, 0, 79, 0
2, 3936, Note_on_c, 0, 81, 93
2, 3984, Note_off_c, 0, 81, 0
2, 3984, Note_on_c, 0, 83, 93
2, 4032, Note_off_c, 0, 83, 0
2, 4032, Note_on_c, 0, 76, 93
2, 4080, Note_off_c, 0, 76, 0
2, 4080, Note_on_c, 0, 67, 93
2, 4128, Note_off_c, 0, 67, 0
2, 4128, Note_on_c, 0, 57, 93
2, 4176, Note_off_c, 0, 57, 0
2, 4176, Note_on_c, 0, 64, 93
2, 4224, Note_off_c, 0, 64, 0
2, 4224, Note_on_c, 0, 61, 93
2, 4272, Note_off_c, 0, 61, 0
2, 4272, Note_on_c, 0, 57, 93
2, 4320, Note_off_c, 0, 57, 0
2, 4320, Note_on_c, 0, 50, 93
2, 4368, Note_off_c, 0, 50, 0
2, 4368, Note_on_c, 0, 62, 93
2, 4416, Note_off_c, 0, 62, 0
2, 4416, Note_on_c, 0, 66, 93
2, 4464, Note_off_c, 0, 66, 0
2, 4464, Note_on_c, 0, 69, 93
2, 4512, Note_off_c, 0, 69, 0
2, 4512, Note_on_c, 0, 74, 93
2, 4608, Note_off_c, 0, 74, 0
2, 4632, Note_on_c, 0, 62, 93
2, 4656, Note_off_c, 0, 62, 0
2, 4656, Note_on_c, 0, 64, 93
2, 4680, Note_off_c, 0, 64, 0
2, 4680, Note_on_c, 0, 66, 93
2, 4704, Note_off_c, 0, 66, 0
2, 4704, Note_on_c, 0, 67, 93
2, 4728, Note_off_c, 0, 67, 0
2, 4728, Note_on_c, 0, 66, 93
2, 4752, Note_off_c, 0, 66, 0
2, 4752, Note_on_c, 0, 67, 93
2, 4776, Note_off_c, 0, 67, 0
2, 4776, Note_on_c, 0, 69, 93
2, 4800, Note_off_c, 0, 69, 0
2, 4800, Note_on_c, 0, 71, 93
2, 4824, Note_off_c, 0, 71, 0
2, 4824, Note_on_c, 0, 69, 93
2, 4848, Note_off_c, 0, 69, 0
2, 4848, Note_on_c, 0, 67, 93
2, 4872, Note_off_c, 0, 67, 0
2, 4872, Note_on_c, 0, 71, 93
2, 4896, Note_off_c, 0, 71, 0
2, 4896, Note_on_c, 0, 69, 93
2, 4920, Note_off_c, 0, 69, 0
2, 4920, Note_on_c, 0, 67, 93
2, 4944, Note_off_c, 0, 67, 0
2, 4944, Note_on_c, 0, 66, 93
2, 4968, Note_off_c, 0, 66, 0
2, 4968, Note_on_c, 0, 64, 93
2, 4992, Note_off_c, 0, 64, 0
2, 4992, Note_on_c, 0, 62, 93
2, 5016, Note_off_c, 0, 62, 0
2, 5016, Note_on_c, 0, 64, 93
2, 5040, Note_off_c, 0, 64, 0
2, 5040, Note_on_c, 0, 66, 93
2, 5064, Note_off_c, 0, 66, 0
2, 5064, Note_on_c, 0, 67, 93
2, 5088, Note_off_c, 0, 67, 0
2, 5088, Note_on_c, 0, 69, 93
2, 5112, Note_off_c, 0, 69, 0
2, 5112, Note_on_c, 0, 66, 93
2, 5136, Note_off_c, 0, 66, 0
2, 5136, Note_on_c, 0, 64, 93
2, 5160, Note_off_c, 0, 64, 0
2, 5160, Note_on_c, 0, 62, 93
2, 5184, Note_off_c, 0, 62, 0
2, 5184, Note_on_c, 0, 67, 93
2, 5208, Note_off_c, 0, 67, 0
2, 5208, Note_on_c, 0, 66, 93
2, 5232, Note_off_c, 0, 66, 0
2, 5232, Note_on_c, 0, 64, 93
2, 5256, Note_off_c, 0, 64, 0
2, 5256, Note_on_c, 0, 62, 93
2, 5280, Note_off_c, 0, 62, 0
2, 5280, Note_on_c, 0, 61, 93
2, 5304, Note_off_c, 0, 61, 0
2, 5304, Note_on_c, 0, 62, 93
2, 5328, Note_off_c, 0, 62, 0
2, 5328, Note_on_c, 0, 64, 93
2, 5352, Note_off_c, 0, 64, 0
2, 5352, Note_on_c, 0, 66, 93
2, 5376, Note_off_c, 0, 66, 0
2, 5376, Note_on_c, 0, 67, 93
2, 5400, Note_off_c, 0, 67, 0
2, 5400, Note_on_c, 0, 71, 93
2, 5424, Note_off_c, 0, 71, 0
2, 5424, Note_on_c, 0, 69, 93
2, 5448, Note_off_c, 0, 69, 0
2, 5448, Note_on_c, 0, 67, 93
2, 5472, Note_off_c, 0, 67, 0
2, 5472, Note_on_c, 0, 66, 93
2, 5496, Note_off_c, 0, 66, 0
2, 5496, Note_on_c, 0, 64, 93
2, 5520, Note_off_c, 0, 64, 0
2, 5520, Note_on_c, 0, 62, 93
2, 5544, Note_off_c, 0, 62, 0
2, 5544, Note_on_c, 0, 61, 93
2, 5568, Note_off_c, 0, 61, 0
2, 5568, Note_on_c, 0, 62, 93
2, 5592, Note_off_c, 0, 62, 0
2, 5592, Note_on_c, 0, 57, 93
2, 5616, Note_off_c, 0, 57, 0
2, 5616, Note_on_c, 0, 62, 93
2, 5640, Note_off_c, 0, 62, 0
2, 5640, Note_on_c, 0, 64, 93
2, 5664, Note_off_c, 0, 64, 0
2, 5664, Note_on_c, 0, 66, 93
2, 5688, Note_off_c, 0, 66, 0
2, 5688, Note_on_c, 0, 62, 93
2, 5712, Note_off_c, 0, 62, 0
2, 5712, Note_on_c, 0, 66, 93
2, 5736, Note_off_c, 0, 66, 0
2, 5736, Note_on_c, 0, 69, 93
2, 5760, Note_off_c, 0, 69, 0
2, 5760, Note_on_c, 0, 74, 93
2, 5784, Note_off_c, 0, 74, 0
2, 5784, Note_on_c, 0, 71, 93
2, 5808, Note_off_c, 0, 71, 0
2, 5808, Note_on_c, 0, 69, 93
2, 5832, Note_off_c, 0, 69, 0
2, 5832, Note_on_c, 0, 71, 93
2, 5856, Note_off_c, 0, 71, 0
2, 5856, Note_on_c, 0, 67, 93
2, 5880, Note_off_c, 0, 67, 0
2, 5880, Note_on_c, 0, 71, 93
2, 5904, Note_off_c, 0, 71, 0
2, 5904, Note_on_c, 0, 69, 93
2, 5928, Note_off_c, 0, 69, 0
2, 5928, Note_on_c, 0, 71, 93
2, 5952, Note_off_c, 0, 71, 0
2, 5952, Note_on_c, 0, 62, 93
2, 5976, Note_off_c, 0, 62, 0
2, 5976, Note_on_c, 0, 67, 93
2, 6000, Note_off_c, 0, 67, 0
2, 6000, Note_on_c, 0, 66, 93
2, 6024, Note_off_c, 0, 66, 0
2, 6024, Note_on_c, 0, 67, 93
2, 6048, Note_off_c, 0, 67, 0
2, 6048, Note_on_c, 0, 64, 93
2, 6072, Note_off_c, 0, 64, 0
2, 6072, Note_on_c, 0, 67, 93
2, 6096, Note_off_c, 0, 67, 0
2, 6096, Note_on_c, 0, 62, 93
2, 6120, Note_off_c, 0, 62, 0
2, 6120, Note_on_c, 0, 67, 93
2, 6144, Note_off_c, 0, 67, 0
2, 6144, Note_on_c, 0, 60, 93
2, 6168, Note_off_c, 0, 60, 0
2, 6168, Note_on_c, 0, 67, 93
2, 6192, Note_off_c, 0, 67, 0
2, 6192, Note_on_c, 0, 59, 93
2, 6216, Note_off_c, 0, 59, 0
2, 6216, Note_on_c, 0, 67, 93
2, 6240, Note_off_c, 0, 67, 0
2, 6240, Note_on_c, 0, 57, 93
2, 6264, Note_off_c, 0, 57, 0
2, 6264, Note_on_c, 0, 67, 93
2, 6288, Note_off_c, 0, 67, 0
2, 6288, Note_on_c, 0, 59, 93
2, 6312, Note_off_c, 0, 59, 0
2, 6312, Note_on_c, 0, 67, 93
2, 6336, Note_off_c, 0, 67, 0
2, 6336, Note_on_c, 0, 60, 93
2, 6360, Note_off_c, 0, 60, 0
2, 6360, Note_on_c, 0, 67, 93
2, 6384, Note_off_c, 0, 67, 0
2, 6384, Note_on_c, 0, 59, 93
2, 6408, Note_off_c, 0, 59, 0
2, 6408, Note_on_c, 0, 67, 93
2, 6432, Note_off_c, 0, 67, 0
2, 6432, Note_on_c, 0, 60, 93
2, 6456, Note_off_c, 0, 60, 0
2, 6456, Note_on_c, 0, 66, 93
2, 6480, Note_off_c, 0, 66, 0
2, 6480, Note_on_c, 0, 64, 93
2, 6504, Note_off_c, 0, 64, 0
2, 6504, Note_on_c, 0, 66, 93
2, 6528, Note_off_c, 0, 66, 0
2, 6528, Note_on_c, 0, 62, 93
2, 6552, Note_off_c, 0, 62, 0
2, 6552, Note_on_c, 0, 66, 93
2, 6576, Note_off_c, 0, 66, 0
2, 6576, Note_on_c, 0, 60, 93
2, 6600, Note_off_c, 0, 60, 0
2, 6600, Note_on_c, 0, 66, 93
2, 6624, Note_off_c, 0, 66, 0
2, 6624, Note_on_c, 0, 59, 93
2, 6648, Note_off_c, 0, 59, 0
2, 6648, Note_on_c, 0, 67, 93
2, 6672, Note_off_c, 0, 67, 0
2, 6672, Note_on_c, 0, 66, 93
2, 6696, Note_off_c, 0, 66, 0
2, 6696, Note_on_c, 0, 64, 93
2, 6720, Note_off_c, 0, 64, 0
2, 6720, Note_on_c, 0, 62, 93
2, 6744, Note_off_c, 0, 62, 0
2, 6744, Note_on_c, 0, 60, 93
2, 6768, Note_off_c, 0, 60, 0
2, 6768, Note_on_c, 0, 59, 93
2, 6792, Note_off_c, 0, 59, 0
2, 6792, Note_on_c, 0, 57, 93
2, 6816, Note_off_c, 0, 57, 0
2, 6816, Note_on_c, 0, 55, 93
2, 6864, Note_off_c, 0, 55, 0
2, 6912, Note_on_c, 0, 83, 93
2, 6960, Note_off_c, 0, 83, 0
2, 7008, Note_on_c, 0, 67, 93
2, 7056, Note_off_c, 0, 67, 0
2, 7104, Note_on_c, 0, 83, 93
2, 7200, Note_off_c, 0, 83, 0
2, 7200, Note_on_c, 0, 81, 93
2, 7248, Note_off_c, 0, 81, 0
2, 7296, Note_on_c, 0, 66, 93
2, 7344, Note_off_c, 0, 66, 0
2, 7392, Note_on_c, 0, 81, 93
2, 7488, Note_off_c, 0, 81, 0
2, 7488, Note_on_c, 0, 79, 93
2, 7512, Note_off_c, 0, 79, 0
2, 7512, Note_on_c, 0, 78, 93
2, 7536, Note_off_c, 0, 78, 0
2, 7536, Note_on_c, 0, 76, 93
2, 7560, Note_off_c, 0, 76, 0
2, 7560, Note_on_c, 0, 75, 93
2, 7584, Note_off_c, 0, 75, 0
2, 7584, Note_on_c, 0, 76, 93
2, 7608, Note_off_c, 0, 76, 0
2, 7608, Note_on_c, 0, 79, 93
2, 7632, Note_off_c, 0, 79, 0
2, 7632, Note_on_c, 0, 74, 93
2, 7656, Note_off_c, 0, 74, 0
2, 7656, Note_on_c, 0, 79, 93
2, 7680, Note_off_c, 0, 79, 0
2, 7680, Note_on_c, 0, 73, 93
2, 7704, Note_off_c, 0, 73, 0
2, 7704, Note_on_c, 0, 79, 93
2, 7728, Note_off_c, 0, 79, 0
2, 7728, Note_on_c, 0, 71, 93
2, 7752, Note_off_c, 0, 71, 0
2, 7752, Note_on_c, 0, 79, 93
2, 7776, Note_off_c, 0, 79, 0
2, 7776, Note_on_c, 0, 73, 93
2, 7800, Note_off_c, 0, 73, 0
2, 7800, Note_on_c, 0, 79, 93
2, 7824, Note_off_c, 0, 79, 0
2, 7824, Note_on_c, 0, 76, 93
2, 7848, Note_off_c, 0, 76, 0
2, 7848, Note_on_c, 0, 79, 93
2, 7872, Note_off_c, 0, 79, 0
2, 7872, Note_on_c, 0, 69, 93
2, 7920, Note_off_c, 0, 69, 0
2, 7920, Note_on_c, 0, 79, 93
2, 7968, Note_off_c, 0, 79, 0
2, 7968, Note_on_c, 0, 78, 93
2, 8016, Note_off_c, 0, 78, 0
2, 8016, Note_on_c, 0, 81, 93
2, 8028, Note_off_c, 0, 81, 0
2, 8028, Note_on_c, 0, 79, 93
2, 8040, Note_off_c, 0, 79, 0
2, 8040, Note_on_c, 0, 78, 93
2, 8052, Note_off_c, 0, 78, 0
2, 8052, Note_on_c, 0, 79, 93
2, 8064, Note_off_c, 0, 79, 0
2, 8064, Note_on_c, 0, 81, 93
2, 8112, Note_off_c, 0, 81, 0
2, 8112, Note_on_c, 0, 64, 93
2, 8160, Note_off_c, 0, 64, 0
2, 8160, Note_on_c, 0, 66, 93
2, 8208, Note_off_c, 0, 66, 0
2, 8208, Note_on_c, 0, 78, 93
2, 8256, Note_off_c, 0, 78, 0
2, 8256, Note_on_c, 0, 79, 93
2, 8304, Note_off_c, 0, 79, 0
2, 8304, Note_on_c, 0, 81, 93
2, 8352, Note_off_c, 0, 81, 0
2, 8352, Note_on_c, 0, 83, 93
2, 8400, Note_off_c, 0, 83, 0
2, 8400, Note_on_c, 0, 66, 93
2, 8448, Note_off_c, 0, 66, 0
2, 8448, Note_on_c, 0, 64, 93
2, 8496, Note_off_c, 0, 64, 0
2, 8496, Note_on_c, 0, 79, 93
2, 8544, Note_off_c, 0, 79, 0
2, 8544, Note_on_c, 0, 81, 93
2, 8592, Note_off_c, 0, 81, 0
2, 8592, Note_on_c, 0, 83, 93
2, 8640, Note_off_c, 0, 83, 0
2, 8640, Note_on_c, 0, 76, 93
2, 8688, Note_off_c, 0, 76, 0
2, 8688, Note_on_c, 0, 67, 93
2, 8736, Note_off_c, 0, 67, 0
2, 8736, Note_on_c, 0, 57, 93
2, 8784, Note_off_c, 0, 57, 0
2, 8784, Note_on_c, 0, 64, 93
2, 8832, Note_off_c, 0, 64, 0
2, 8832, Note_on_c, 0, 61, 93
2, 8880, Note_off_c, 0, 61, 0
2, 8880, Note_on_c, 0, 57, 93
2, 8928, Note_off_c, 0, 57, 0
2, 8928, Note_on_c, 0, 50, 93
2, 8976, Note_off_c, 0, 50, 0
2, 8976, Note_on_c, 0, 62, 93
2, 9024, Note_off_c, 0, 62, 0
2, 9024, Note_on_c, 0, 66, 93
2, 9072, Note_off_c, 0, 66, 0
2, 9072, Note_on_c, 0, 69, 93
2, 9120, Note_off_c, 0, 69, 0
2, 9120, Note_on_c, 0, 74, 93
2, 9216, Note_off_c, 0, 74, 0
2, 9216, Note_on_c, 0, 78, 93
2, 9264, Note_off_c, 0, 78, 0
2, 9312, Note_on_c, 0, 62, 93
2, 9360, Note_off_c, 0, 62, 0
2, 9408, Note_on_c, 0, 79, 93
2, 9420, Note_off_c, 0, 79, 0
2, 9420, Note_on_c, 0, 78, 93
2, 9432, Note_off_c, 0, 78, 0
2, 9432, Note_on_c, 0, 76, 93
2, 9444, Note_off_c, 0, 76, 0
2, 9444, Note_on_c, 0, 78, 93
2, 9456, Note_off_c, 0, 78, 0
2, 9456, Note_on_c, 0, 76, 93
2, 9468, Note_off_c, 0, 76, 0
2, 9468, Note_on_c, 0, 78, 93
2, 9480, Note_off_c, 0, 78, 0
2, 9480, Note_on_c, 0, 76, 93
2, 9492, Note_off_c, 0, 76, 0
2, 9492, Note_on_c, 0, 78, 93
2, 9504, Note_off_c, 0, 78, 0
2, 9504, Note_on_c, 0, 79, 93
2, 9552, Note_off_c, 0, 79, 0
2, 9552, Note_on_c, 0, 74, 93
2, 9576, Note_off_c, 0, 74, 0
2, 9576, Note_on_c, 0, 79, 93
2, 9600, Note_off_c, 0, 79, 0
2, 9600, Note_on_c, 0, 81, 93
2, 9648, Note_off_c, 0, 81, 0
2, 9648, Note_on_c, 0, 74, 93
2, 9672, Note_off_c, 0, 74, 0
2, 9672, Note_on_c, 0, 81, 93
2, 9696, Note_off_c, 0, 81, 0
2, 9696, Note_on_c, 0, 83, 93
2, 9744, Note_off_c, 0, 83, 0
2, 9744, Note_on_c, 0, 79, 93
2, 9792, Note_off_c, 0, 79, 0
2, 9792, Note_on_c, 0, 76, 93
2, 9840, Note_off_c, 0, 76, 0
2, 9840, Note_on_c, 0, 72, 93
2, 9888, Note_off_c, 0, 72, 0
2, 9888, Note_on_c, 0, 69, 93
2, 9936, Note_off_c, 0, 69, 0
2, 9936, Note_on_c, 0, 79, 93
2, 9984, Note_off_c, 0, 79, 0
2, 9984, Note_on_c, 0, 78, 93
2, 9996, Note_off_c, 0, 78, 0
2, 9996, Note_on_c, 0, 76, 93
2, 10008, Note_off_c, 0, 76, 0
2, 10008, Note_on_c, 0, 75, 93
2, 10032, Note_off_c, 0, 75, 0
2, 10032, Note_on_c, 0, 76, 93
2, 10128, Note_off_c, 0, 76, 0
2, 10128, Note_on_c, 0, 76, 93
2, 10134, Note_off_c, 0, 76, 0
2, 10134, Note_on_c, 0, 75, 93
2, 10146, Note_off_c, 0, 75, 0
2, 10146, Note_on_c, 0, 76, 93
2, 10152, Note_off_c, 0, 76, 0
2, 10152, Note_on_c, 0, 75, 93
2, 10176, Note_off_c, 0, 75, 0
2, 10224, Note_on_c, 0, 57, 93
2, 10272, Note_off_c, 0, 57, 0
2, 10272, Note_on_c, 0, 57, 93
2, 10278, Note_off_c, 0, 57, 0
2, 10278, Note_on_c, 0, 55, 93
2, 10290, Note_off_c, 0, 55, 0
2, 10290, Note_on_c, 0, 57, 93
2, 10296, Note_off_c, 0, 57, 0
2, 10296, Note_on_c, 0, 55, 93
2, 10320, Note_off_c, 0, 55, 0
2, 10320, Note_on_c, 0, 54, 93
2, 10368, Note_off_c, 0, 54, 0
2, 10368, Note_on_c, 0, 52, 93
2, 10416, Note_off_c, 0, 52, 0
2, 10464, Note_on_c, 0, 76, 93
2, 10512, Note_off_c, 0, 76, 0
2, 10560, Note_on_c, 0, 50, 93
2, 10566, Note_off_c, 0, 50, 0
2, 10572, Note_on_c, 0, 48, 93
2, 10578, Note_off_c, 0, 48, 0
2, 10584, Note_on_c, 0, 50, 93
2, 10656, Note_off_c, 0, 50, 0
2, 10656, Note_on_c, 0, 48, 93
2, 10704, Note_off_c, 0, 48, 0
2, 10752, Note_on_c, 0, 76, 93
2, 10800, Note_off_c, 0, 76, 0
2, 10848, Note_on_c, 0, 45, 93
2, 10854, Note_off_c, 0, 45, 0
2, 10860, Note_on_c, 0, 43, 93
2, 10866, Note_off_c, 0, 43, 0
2, 10872, Note_on_c, 0, 45, 93
2, 10944, Note_off_c, 0, 45, 0
2, 10944, Note_on_c, 0, 47, 93
2, 10992, Note_off_c, 0, 47, 0
2, 11040, Note_on_c, 0, 79, 93
2, 11088, Note_off_c, 0, 79, 0
2, 11088, Note_on_c, 0, 78, 93
2, 11136, Note_off_c, 0, 78, 0
2, 11136, Note_on_c, 0, 76, 93
2, 11184, Note_off_c, 0, 76, 0
2, 11184, Note_on_c, 0, 75, 93
2, 11232, Note_off_c, 0, 75, 0
2, 11232, Note_on_c, 0, 76, 93
2, 11280, Note_off_c, 0, 76, 0
2, 11328, Note_on_c, 0, 52, 93
2, 11448, Note_off_c, 0, 52, 0
2, 11448, Note_on_c, 0, 50, 93
2, 11472, Note_off_c, 0, 50, 0
2, 11472, Note_on_c, 0, 48, 93
2, 11496, Note_off_c, 0, 48, 0
2, 11496, Note_on_c, 0, 47, 93
2, 11520, Note_off_c, 0, 47, 0
2, 11520, Note_on_c, 0, 48, 93
2, 11544, Note_off_c, 0, 48, 0
2, 11544, Note_on_c, 0, 52, 93
2, 11568, Note_off_c, 0, 52, 0
2, 11568, Note_on_c, 0, 50, 93
2, 11592, Note_off_c, 0, 50, 0
2, 11592, Note_on_c, 0, 52, 93
2, 11616, Note_off_c, 0, 52, 0
2, 11616, Note_on_c, 0, 57, 93
2, 11640, Note_off_c, 0, 57, 0
2, 11640, Note_on_c, 0, 52, 93
2, 11664, Note_off_c, 0, 52, 0
2, 11664, Note_on_c, 0, 50, 93
2, 11688, Note_off_c, 0, 50, 0
2, 11688, Note_on_c, 0, 52, 93
2, 11712, Note_off_c, 0, 52, 0
2, 11712, Note_on_c, 0, 60, 93
2, 11736, Note_off_c, 0, 60, 0
2, 11736, Note_on_c, 0, 57, 93
2, 11760, Note_off_c, 0, 57, 0
2, 11760, Note_on_c, 0, 55, 93
2, 11784, Note_off_c, 0, 55, 0
2, 11784, Note_on_c, 0, 57, 93
2, 11808, Note_off_c, 0, 57, 0
2, 11808, Note_on_c, 0, 66, 93
2, 11832, Note_off_c, 0, 66, 0
2, 11832, Note_on_c, 0, 57, 93
2, 11856, Note_off_c, 0, 57, 0
2, 11856, Note_on_c, 0, 55, 93
2, 11880, Note_off_c, 0, 55, 0
2, 11880, Note_on_c, 0, 57, 93
2, 11904, Note_off_c, 0, 57, 0
2, 11904, Note_on_c, 0, 67, 93
2, 11928, Note_off_c, 0, 67, 0
2, 11928, Note_on_c, 0, 62, 93
2, 11952, Note_off_c, 0, 62, 0
2, 11952, Note_on_c, 0, 60, 93
2, 11976, Note_off_c, 0, 60, 0
2, 11976, Note_on_c, 0, 62, 93
2, 12000, Note_off_c, 0, 62, 0
2, 12000, Note_on_c, 0, 71, 93
2, 12024, Note_off_c, 0, 71, 0
2, 12024, Note_on_c, 0, 67, 93
2, 12048, Note_off_c, 0, 67, 0
2, 12048, Note_on_c, 0, 66, 93
2, 12072, Note_off_c, 0, 66, 0
2, 12072, Note_on_c, 0, 67, 93
2, 12096, Note_off_c, 0, 67, 0
2, 12096, Note_on_c, 0, 76, 93
2, 12120, Note_off_c, 0, 76, 0
2, 12120, Note_on_c, 0, 74, 93
2, 12144, Note_off_c, 0, 74, 0
2, 12144, Note_on_c, 0, 72, 93
2, 12168, Note_off_c, 0, 72, 0
2, 12168, Note_on_c, 0, 74, 93
2, 12192, Note_off_c, 0, 74, 0
2, 12192, Note_on_c, 0, 78, 93
2, 12216, Note_off_c, 0, 78, 0
2, 12216, Note_on_c, 0, 74, 93
2, 12240, Note_off_c, 0, 74, 0
2, 12240, Note_on_c, 0, 72, 93
2, 12264, Note_off_c, 0, 72, 0
2, 12264, Note_on_c, 0, 74, 93
2, 12288, Note_off_c, 0, 74, 0
2, 12288, Note_on_c, 0, 79, 93
2, 12312, Note_off_c, 0, 79, 0
2, 12312, Note_on_c, 0, 74, 93
2, 12336, Note_off_c, 0, 74, 0
2, 12336, Note_on_c, 0, 72, 93
2, 12360, Note_off_c, 0, 72, 0
2, 12360, Note_on_c, 0, 74, 93
2, 12384, Note_off_c, 0, 74, 0
2, 12384, Note_on_c, 0, 81, 93
2, 12408, Note_off_c, 0, 81, 0
2, 12408, Note_on_c, 0, 74, 93
2, 12432, Note_off_c, 0, 74, 0
2, 12432, Note_on_c, 0, 72, 93
2, 12456, Note_off_c, 0, 72, 0
2, 12456, Note_on_c, 0, 71, 93
2, 12480, Note_off_c, 0, 71, 0
2, 12480, Note_on_c, 0, 72, 93
2, 12504, Note_off_c, 0, 72, 0
2, 12504, Note_on_c, 0, 71, 93
2, 12528, Note_off_c, 0, 71, 0
2, 12528, Note_on_c, 0, 69, 93
2, 12552, Note_off_c, 0, 69, 0
2, 12552, Note_on_c, 0, 67, 93
2, 12576, Note_off_c, 0, 67, 0
2, 12576, Note_on_c, 0, 66, 93
2, 12600, Note_off_c, 0, 66, 0
2, 12600, Note_on_c, 0, 81, 93
2, 12624, Note_off_c, 0, 81, 0
2, 12624, Note_on_c, 0, 79, 93
2, 12648, Note_off_c, 0, 79, 0
2, 12648, Note_on_c, 0, 78, 93
2, 12672, Note_off_c, 0, 78, 0
2, 12672, Note_on_c, 0, 79, 93
2, 12720, Note_off_c, 0, 79, 0
2, 12720, Note_on_c, 0, 71, 93
2, 12768, Note_off_c, 0, 71, 0
2, 12816, Note_on_c, 0, 53, 93
2, 12864, Note_off_c, 0, 53, 0
2, 12864, Note_on_c, 0, 52, 93
2, 12912, Note_off_c, 0, 52, 0
2, 12912, Note_on_c, 0, 50, 93
2, 12960, Note_off_c, 0, 50, 0
2, 12960, Note_on_c, 0, 48, 93
2, 12984, Note_off_c, 0, 48, 0
2, 12984, Note_on_c, 0, 60, 93
2, 13008, Note_off_c, 0, 60, 0
2, 13008, Note_on_c, 0, 59, 93
2, 13032, Note_off_c, 0, 59, 0
2, 13032, Note_on_c, 0, 60, 93
2, 13056, Note_off_c, 0, 60, 0
2, 13056, Note_on_c, 0, 62, 93
2, 13080, Note_off_c, 0, 62, 0
2, 13080, Note_on_c, 0, 60, 93
2, 13104, Note_off_c, 0, 60, 0
2, 13104, Note_on_c, 0, 64, 93
2, 13128, Note_off_c, 0, 64, 0
2, 13128, Note_on_c, 0, 60, 93
2, 13152, Note_off_c, 0, 60, 0
2, 13152, Note_on_c, 0, 66, 93
2, 13176, Note_off_c, 0, 66, 0
2, 13176, Note_on_c, 0, 60, 93
2, 13200, Note_off_c, 0, 60, 0
2, 13200, Note_on_c, 0, 67, 93
2, 13224, Note_off_c, 0, 67, 0
2, 13224, Note_on_c, 0, 60, 93
2, 13248, Note_off_c, 0, 60, 0
2, 13248, Note_on_c, 0, 69, 93
2, 13272, Note_off_c, 0, 69, 0
2, 13272, Note_on_c, 0, 60, 93
2, 13296, Note_off_c, 0, 60, 0
2, 13296, Note_on_c, 0, 59, 93
2, 13320, Note_off_c, 0, 59, 0
2, 13320, Note_on_c, 0, 57, 93
2, 13344, Note_off_c, 0, 57, 0
2, 13344, Note_on_c, 0, 59, 93
2, 13392, Note_off_c, 0, 59, 0
2, 13392, Note_on_c, 0, 74, 93
2, 13440, Note_off_c, 0, 74, 0
2, 13440, Note_on_c, 0, 50, 93
2, 13488, Note_off_c, 0, 50, 0
2, 13488, Note_on_c, 0, 72, 93
2, 13536, Note_off_c, 0, 72, 0
2, 13536, Note_on_c, 0, 71, 93
2, 13560, Note_off_c, 0, 71, 0
2, 13560, Note_on_c, 0, 67, 93
2, 13584, Note_off_c, 0, 67, 0
2, 13584, Note_on_c, 0, 62, 93
2, 13608, Note_off_c, 0, 62, 0
2, 13608, Note_on_c, 0, 67, 93
2, 13632, Note_off_c, 0, 67, 0
2, 13632, Note_on_c, 0, 71, 93
2, 13656, Note_off_c, 0, 71, 0
2, 13656, Note_on_c, 0, 67, 93
2, 13680, Note_off_c, 0, 67, 0
2, 13680, Note_on_c, 0, 74, 93
2, 13704, Note_off_c, 0, 74, 0
2, 13704, Note_on_c, 0, 71, 93
2, 13728, Note_off_c, 0, 71, 0
2, 13728, Note_on_c, 0, 79, 93
2, 13824, Note_off_c, 0, 79, 0
2, 13824, Note_on_c, 0, 78, 93
2, 13872, Note_off_c, 0, 78, 0
2, 13920, Note_on_c, 0, 62, 93
2, 13968, Note_off_c, 0, 62, 0
2, 14016, Note_on_c, 0, 79, 93
2, 14028, Note_off_c, 0, 79, 0
2, 14028, Note_on_c, 0, 78, 93
2, 14040, Note_off_c, 0, 78, 0
2, 14040, Note_on_c, 0, 76, 93
2, 14052, Note_off_c, 0, 76, 0
2, 14052, Note_on_c, 0, 78, 93
2, 14064, Note_off_c, 0, 78, 0
2, 14064, Note_on_c, 0, 76, 93
2, 14076, Note_off_c, 0, 76, 0
2, 14076, Note_on_c, 0, 78, 93
2, 14088, Note_off_c, 0, 78, 0
2, 14088, Note_on_c, 0, 76, 93
2, 14100, Note_off_c, 0, 76, 0
2, 14100, Note_on_c, 0, 78, 93
2, 14112, Note_off_c, 0, 78, 0
2, 14112, Note_on_c, 0, 79, 93
2, 14160, Note_off_c, 0, 79, 0
2, 14160, Note_on_c, 0, 74, 93
2, 14184, Note_off_c, 0, 74, 0
2, 14184, Note_on_c, 0, 79, 93
2, 14208, Note_off_c, 0, 79, 0
2, 14208, Note_on_c, 0, 81, 93
2, 14256, Note_off_c, 0, 81, 0
2, 14256, Note_on_c, 0, 74, 93
2, 14280, Note_off_c, 0, 74, 0
2, 14280, Note_on_c, 0, 81, 93
2, 14304, Note_off_c, 0, 81, 0
2, 14304, Note_on_c, 0, 83, 93
2, 14352, Note_off_c, 0, 83, 0
2, 14352, Note_on_c, 0, 79, 93
2, 14400, Note_off_c, 0, 79, 0
2, 14400, Note_on_c, 0, 76, 93
2, 14448, Note_off_c, 0, 76, 0
2, 14448, Note_on_c, 0, 72, 93
2, 14496, Note_off_c, 0, 72, 0
2, 14496, Note_on_c, 0, 69, 93
2, 14544, Note_off_c, 0, 69, 0
2, 14544, Note_on_c, 0, 79, 93
2, 14592, Note_off_c, 0, 79, 0
2, 14592, Note_on_c, 0, 78, 93
2, 14604, Note_off_c, 0, 78, 0
2, 14604, Note_on_c, 0, 76, 93
2, 14616, Note_off_c, 0, 76, 0
2, 14616, Note_on_c, 0, 75, 93
2, 14640, Note_off_c, 0, 75, 0
2, 14640, Note_on_c, 0, 76, 93
2, 14736, Note_off_c, 0, 76, 0
2, 14736, Note_on_c, 0, 76, 93
2, 14742, Note_off_c, 0, 76, 0
2, 14742, Note_on_c, 0, 75, 93
2, 14754, Note_off_c, 0, 75, 0
2, 14754, Note_on_c, 0, 76, 93
2, 14760, Note_off_c, 0, 76, 0
2, 14760, Note_on_c, 0, 75, 93
2, 14784, Note_off_c, 0, 75, 0
2, 14832, Note_on_c, 0, 57, 93
2, 14880, Note_off_c, 0, 57, 0
2, 14880, Note_on_c, 0, 57, 93
2, 14886, Note_off_c, 0, 57, 0
2, 14886, Note_on_c, 0, 55, 93
2, 14898, Note_off_c, 0, 55, 0
2, 14898, Note_on_c, 0, 57, 93
2, 14904, Note_off_c, 0, 57, 0
2, 14904, Note_on_c, 0, 55, 93
2, 14928, Note_off_c, 0, 55, 0
2, 14928, Note_on_c, 0, 54, 93
2, 14976, Note_off_c, 0, 54, 0
2, 14976, Note_on_c, 0, 52, 93
2, 15024, Note_off_c, 0, 52, 0
2, 15072, Note_on_c, 0, 76, 93
2, 15120, Note_off_c, 0, 76, 0
2, 15168, Note_on_c, 0, 50, 93
2, 15174, Note_off_c, 0, 50, 0
2, 15180, Note_on_c, 0, 48, 93
2, 15186, Note_off_c, 0, 48, 0
2, 15192, Note_on_c, 0, 50, 93
2, 15264, Note_off_c, 0, 50, 0
2, 15264, Note_on_c, 0, 48, 93
2, 15312, Note_off_c, 0, 48, 0
2, 15360, Note_on_c, 0, 76, 93
2, 15408, Note_off_c, 0, 76, 0
2, 15456, Note_on_c, 0, 45, 93
2, 15462, Note_off_c, 0, 45, 0
2, 15468, Note_on_c, 0, 43, 93
2, 15474, Note_off_c, 0, 43, 0
2, 15480, Note_on_c, 0, 45, 93
2, 15552, Note_off_c, 0, 45, 0
2, 15552, Note_on_c, 0, 47, 93
2, 15600, Note_off_c, 0, 47, 0
2, 15648, Note_on_c, 0, 79, 93
2, 15696, Note_off_c, 0, 79, 0
2, 15696, Note_on_c, 0, 78, 93
2, 15744, Note_off_c, 0, 78, 0
2, 15744, Note_on_c, 0, 76, 93
2, 15792, Note_off_c, 0, 76, 0
2, 15792, Note_on_c, 0, 75, 93
2, 15840, Note_off_c, 0, 75, 0
2, 15840, Note_on_c, 0, 76, 93
2, 15888, Note_off_c, 0, 76, 0
2, 15936, Note_on_c, 0, 52, 93
2, 16056, Note_off_c, 0, 52, 0
2, 16056, Note_on_c, 0, 50, 93
2, 16080, Note_off_c, 0, 50, 0
2, 16080, Note_on_c, 0, 48, 93
2, 16104, Note_off_c, 0, 48, 0
2, 16104, Note_on_c, 0, 47, 93
2, 16128, Note_off_c, 0, 47, 0
2, 16128, Note_on_c, 0, 48, 93
2, 16152, Note_off_c, 0, 48, 0
2, 16152, Note_on_c, 0, 52, 93
2, 16176, Note_off_c, 0, 52, 0
2, 16176, Note_on_c, 0, 50, 93
2, 16200, Note_off_c, 0, 50, 0
2, 16200, Note_on_c, 0, 52, 93
2, 16224, Note_off_c, 0, 52, 0
2, 16224, Note_on_c, 0, 57, 93
2, 16248, Note_off_c, 0, 57, 0
2, 16248, Note_on_c, 0, 52, 93
2, 16272, Note_off_c, 0, 52, 0
2, 16272, Note_on_c, 0, 50, 93
2, 16296, Note_off_c, 0, 50, 0
2, 16296, Note_on_c, 0, 52, 93
2, 16320, Note_off_c, 0, 52, 0
2, 16320, Note_on_c, 0, 60, 93
2, 16344, Note_off_c, 0, 60, 0
2, 16344, Note_on_c, 0, 57, 93
2, 16368, Note_off_c, 0, 57, 0
2, 16368, Note_on_c, 0, 55, 93
2, 16392, Note_off_c, 0, 55, 0
2, 16392, Note_on_c, 0, 57, 93
2, 16416, Note_off_c, 0, 57, 0
2, 16416, Note_on_c, 0, 66, 93
2, 16440, Note_off_c, 0, 66, 0
2, 16440, Note_on_c, 0, 57, 93
2, 16464, Note_off_c, 0, 57, 0
2, 16464, Note_on_c, 0, 55, 93
2, 16488, Note_off_c, 0, 55, 0
2, 16488, Note_on_c, 0, 57, 93
2, 16512, Note_off_c, 0, 57, 0
2, 16512, Note_on_c, 0, 67, 93
2, 16536, Note_off_c, 0, 67, 0
2, 16536, Note_on_c, 0, 62, 93
2, 16560, Note_off_c, 0, 62, 0
2, 16560, Note_on_c, 0, 60, 93
2, 16584, Note_off_c, 0, 60, 0
2, 16584, Note_on_c, 0, 62, 93
2, 16608, Note_off_c, 0, 62, 0
2, 16608, Note_on_c, 0, 71, 93
2, 16632, Note_off_c, 0, 71, 0
2, 16632, Note_on_c, 0, 67, 93
2, 16656, Note_off_c, 0, 67, 0
2, 16656, Note_on_c, 0, 66, 93
2, 16680, Note_off_c, 0, 66, 0
2, 16680, Note_on_c, 0, 67, 93
2, 16704, Note_off_c, 0, 67, 0
2, 16704, Note_on_c, 0, 76, 93
2, 16728, Note_off_c, 0, 76, 0
2, 16728, Note_on_c, 0, 74, 93
2, 16752, Note_off_c, 0, 74, 0
2, 16752, Note_on_c, 0, 72, 93
2, 16776, Note_off_c, 0, 72, 0
2, 16776, Note_on_c, 0, 74, 93
2, 16800, Note_off_c, 0, 74, 0
2, 16800, Note_on_c, 0, 78, 93
2, 16824, Note_off_c, 0, 78, 0
2, 16824, Note_on_c, 0, 74, 93
2, 16848, Note_off_c, 0, 74, 0
2, 16848, Note_on_c, 0, 72, 93
2, 16872, Note_off_c, 0, 72, 0
2, 16872, Note_on_c, 0, 74, 93
2, 16896, Note_off_c, 0, 74, 0
2, 16896, Note_on_c, 0, 79, 93
2, 16920, Note_off_c, 0, 79, 0
2, 16920, Note_on_c, 0, 74, 93
2, 16944, Note_off_c, 0, 74, 0
2, 16944, Note_on_c, 0, 72, 93
2, 16968, Note_off_c, 0, 72, 0
2, 16968, Note_on_c, 0, 74, 93
2, 16992, Note_off_c, 0, 74, 0
2, 16992, Note_on_c, 0, 81, 93
2, 17016, Note_off_c, 0, 81, 0
2, 17016, Note_on_c, 0, 74, 93
2, 17040, Note_off_c, 0, 74, 0
2, 17040, Note_on_c, 0, 72, 93
2, 17064, Note_off_c, 0, 72, 0
2, 17064, Note_on_c, 0, 71, 93
2, 17088, Note_off_c, 0, 71, 0
2, 17088, Note_on_c, 0, 72, 93
2, 17112, Note_off_c, 0, 72, 0
2, 17112, Note_on_c, 0, 71, 93
2, 17136, Note_off_c, 0, 71, 0
2, 17136, Note_on_c, 0, 69, 93
2, 17160, Note_off_c, 0, 69, 0
2, 17160, Note_on_c, 0, 67, 93
2, 17184, Note_off_c, 0, 67, 0
2, 17184, Note_on_c, 0, 66, 93
2, 17208, Note_off_c, 0, 66, 0
2, 17208, Note_on_c, 0, 81, 93
2, 17232, Note_off_c, 0, 81, 0
2, 17232, Note_on_c, 0, 79, 93
2, 17256, Note_off_c, 0, 79, 0
2, 17256, Note_on_c, 0, 78, 93
2, 17280, Note_off_c, 0, 78, 0
2, 17280, Note_on_c, 0, 79, 93
2, 17328, Note_off_c, 0, 79, 0
2, 17328, Note_on_c, 0, 71, 93
2, 17376, Note_off_c, 0, 71, 0
2, 17424, Note_on_c, 0, 53, 93
2, 17472, Note_off_c, 0, 53, 0
2, 17472, Note_on_c, 0, 52, 93
2, 17520, Note_off_c, 0, 52, 0
2, 17520, Note_on_c, 0, 50, 93
2, 17568, Note_off_c, 0, 50, 0
2, 17568, Note_on_c, 0, 48, 93
2, 17592, Note_off_c, 0, 48, 0
2, 17592, Note_on_c, 0, 60, 93
2, 17616, Note_off_c, 0, 60, 0
2, 17616, Note_on_c, 0, 59, 93
2, 17640, Note_off_c, 0, 59, 0
2, 17640, Note_on_c, 0, 60, 93
2, 17664, Note_off_c, 0, 60, 0
2, 17664, Note_on_c, 0, 62, 93
2, 17688, Note_off_c, 0, 62, 0
2, 17688, Note_on_c, 0, 60, 93
2, 17712, Note_off_c, 0, 60, 0
2, 17712, Note_on_c, 0, 64, 93
2, 17736, Note_off_c, 0, 64, 0
2, 17736, Note_on_c, 0, 60, 93
2, 17760, Note_off_c, 0, 60, 0
2, 17760, Note_on_c, 0, 66, 93
2, 17784, Note_off_c, 0, 66, 0
2, 17784, Note_on_c, 0, 60, 93
2, 17808, Note_off_c, 0, 60, 0
2, 17808, Note_on_c, 0, 67, 93
2, 17832, Note_off_c, 0, 67, 0
2, 17832, Note_on_c, 0, 60, 93
2, 17856, Note_off_c, 0, 60, 0
2, 17856, Note_on_c, 0, 69, 93
2, 17880, Note_off_c, 0, 69, 0
2, 17880, Note_on_c, 0, 60, 93
2, 17904, Note_off_c, 0, 60, 0
2, 17904, Note_on_c, 0, 59, 93
2, 17928, Note_off_c, 0, 59, 0
2, 17928, Note_on_c, 0, 57, 93
2, 17952, Note_off_c, 0, 57, 0
2, 17952, Note_on_c, 0, 59, 93
2, 18000, Note_off_c, 0, 59, 0
2, 18000, Note_on_c, 0, 74, 93
2, 18048, Note_off_c, 0, 74, 0
2, 18048, Note_on_c, 0, 50, 93
2, 18096, Note_off_c, 0, 50, 0
2, 18096, Note_on_c, 0, 72, 93
2, 18144, Note_off_c, 0, 72, 0
2, 18144, Note_on_c, 0, 71, 93
2, 18168, Note_off_c, 0, 71, 0
2, 18168, Note_on_c, 0, 67, 93
2, 18192, Note_off_c, 0, 67, 0
2, 18192, Note_on_c, 0, 62, 93
2, 18216, Note_off_c, 0, 62, 0
2, 18216, Note_on_c, 0, 67, 93
2, 18240, Note_off_c, 0, 67, 0
2, 18240, Note_on_c, 0, 71, 93
2, 18264, Note_off_c, 0, 71, 0
2, 18264, Note_on_c, 0, 67, 93
2, 18288, Note_off_c, 0, 67, 0
2, 18288, Note_on_c, 0, 74, 93
2, 18312, Note_off_c, 0, 74, 0
2, 18312, Note_on_c, 0, 71, 93
2, 18336, Note_off_c, 0, 71, 0
2, 18336, Note_on_c, 0, 79, 93
2, 18432, Note_off_c, 0, 79, 0
2, 18432, End_track
3, 0, Start_track
3, 0, Title_t, "Track3"
3, 0, Program_c, 1, 6
3, 0, Control_c, 1, 7, 100
3, 0, Control_c, 1, 10, 59
3, 0, Note_on_c, 1, 55, 93
3, 48, Note_off_c, 1, 55, 0
3, 96, Note_on_c, 1, 71, 93
3, 144, Note_off_c, 1, 71, 0
3, 192, Note_on_c, 1, 55, 93
3, 288, Note_off_c, 1, 55, 0
3, 288, Note_on_c, 1, 54, 93
3, 336, Note_off_c, 1, 54, 0
3, 384, Note_on_c, 1, 69, 93
3, 432, Note_off_c, 1, 69, 0
3, 480, Note_on_c, 1, 54, 93
3, 576, Note_off_c, 1, 54, 0
3, 576, Note_on_c, 1, 52, 93
3, 624, Note_off_c, 1, 52, 0
3, 672, Note_on_c, 1, 67, 93
3, 720, Note_off_c, 1, 67, 0
3, 768, Note_on_c, 1, 52, 93
3, 864, Note_off_c, 1, 52, 0
3, 864, Note_on_c, 1, 50, 93
3, 912, Note_off_c, 1, 50, 0
3, 960, Note_on_c, 1, 66, 93
3, 1008, Note_off_c, 1, 66, 0
3, 1056, Note_on_c, 1, 50, 93
3, 1104, Note_off_c, 1, 50, 0
3, 1104, Note_on_c, 1, 48, 93
3, 1152, Note_off_c, 1, 48, 0
3, 1152, Note_on_c, 1, 47, 93
3, 1200, Note_off_c, 1, 47, 0
3, 1248, Note_on_c, 1, 74, 93
3, 1296, Note_off_c, 1, 74, 0
3, 1344, Note_on_c, 1, 47, 93
3, 1440, Note_off_c, 1, 47, 0
3, 1440, Note_on_c, 1, 48, 93
3, 1488, Note_off_c, 1, 48, 0
3, 1536, Note_on_c, 1, 76, 93
3, 1584, Note_off_c, 1, 76, 0
3, 1632, Note_on_c, 1, 48, 93
3, 1728, Note_off_c, 1, 48, 0
3, 1728, Note_on_c, 1, 50, 93
3, 1776, Note_off_c, 1, 50, 0
3, 1824, Note_on_c, 1, 69, 93
3, 1872, Note_off_c, 1, 69, 0
3, 1920, Note_on_c, 1, 50, 93
3, 2016, Note_off_c, 1, 50, 0
3, 2016, Note_on_c, 1, 43, 93
3, 2064, Note_off_c, 1, 43, 0
3, 2112, Note_on_c, 1, 71, 93
3, 2232, Note_off_c, 1, 71, 0
3, 2232, Note_on_c, 1, 69, 93
3, 2256, Note_off_c, 1, 69, 0
3, 2256, Note_on_c, 1, 67, 93
3, 2280, Note_off_c, 1, 67, 0
3, 2280, Note_on_c, 1, 66, 93
3, 2304, Note_off_c, 1, 66, 0
3, 2304, Note_on_c, 1, 67, 93
3, 2328, Note_off_c, 1, 67, 0
3, 2328, Note_on_c, 1, 71, 93
3, 2352, Note_off_c, 1, 71, 0
3, 2352, Note_on_c, 1, 73, 93
3, 2376, Note_off_c, 1, 73, 0
3, 2376, Note_on_c, 1, 74, 93
3, 2400, Note_off_c, 1, 74, 0
3, 2400, Note_on_c, 1, 76, 93
3, 2424, Note_off_c, 1, 76, 0
3, 2424, Note_on_c, 1, 78, 93
3, 2448, Note_off_c, 1, 78, 0
3, 2448, Note_on_c, 1, 76, 93
3, 2472, Note_off_c, 1, 76, 0
3, 2472, Note_on_c, 1, 74, 93
3, 2496, Note_off_c, 1, 74, 0
3, 2496, Note_on_c, 1, 73, 93
3, 2520, Note_off_c, 1, 73, 0
3, 2520, Note_on_c, 1, 71, 93
3, 2544, Note_off_c, 1, 71, 0
3, 2544, Note_on_c, 1, 69, 93
3, 2568, Note_off_c, 1, 69, 0
3, 2568, Note_on_c, 1, 67, 93
3, 2592, Note_off_c, 1, 67, 0
3, 2592, Note_on_c, 1, 66, 93
3, 2616, Note_off_c, 1, 66, 0
3, 2616, Note_on_c, 1, 69, 93
3, 2640, Note_off_c, 1, 69, 0
3, 2640, Note_on_c, 1, 71, 93
3, 2664, Note_off_c, 1, 71, 0
3, 2664, Note_on_c, 1, 73, 93
3, 2688, Note_off_c, 1, 73, 0
3, 2688, Note_on_c, 1, 74, 93
3, 2712, Note_off_c, 1, 74, 0
3, 2712, Note_on_c, 1, 76, 93
3, 2736, Note_off_c, 1, 76, 0
3, 2736, Note_on_c, 1, 74, 93
3, 2760, Note_off_c, 1, 74, 0
3, 2760, Note_on_c, 1, 73, 93
3, 2784, Note_off_c, 1, 73, 0
3, 2784, Note_on_c, 1, 71, 93
3, 2808, Note_off_c, 1, 71, 0
3, 2808, Note_on_c, 1, 69, 93
3, 2832, Note_off_c, 1, 69, 0
3, 2832, Note_on_c, 1, 67, 93
3, 2856, Note_off_c, 1, 67, 0
3, 2856, Note_on_c, 1, 66, 93
3, 2880, Note_off_c, 1, 66, 0
3, 2880, Note_on_c, 1, 64, 93
3, 2928, Note_off_c, 1, 64, 0
3, 2928, Note_on_c, 1, 66, 93
3, 2976, Note_off_c, 1, 66, 0
3, 2976, Note_on_c, 1, 67, 93
3, 3024, Note_off_c, 1, 67, 0
3, 3024, Note_on_c, 1, 71, 93
3, 3072, Note_off_c, 1, 71, 0
3, 3072, Note_on_c, 1, 76, 93
3, 3078, Note_off_c, 1, 76, 0
3, 3078, Note_on_c, 1, 74, 93
3, 3090, Note_off_c, 1, 74, 0
3, 3090, Note_on_c, 1, 76, 93
3, 3216, Note_off_c, 1, 76, 0
3, 3216, Note_on_c, 1, 74, 93
3, 3264, Note_off_c, 1, 74, 0
3, 3264, Note_on_c, 1, 73, 93
3, 3288, Note_off_c, 1, 73, 0
3, 3288, Note_on_c, 1, 76, 93
3, 3312, Note_off_c, 1, 76, 0
3, 3312, Note_on_c, 1, 71, 93
3, 3336, Note_off_c, 1, 71, 0
3, 3336, Note_on_c, 1, 76, 93
3, 3360, Note_off_c, 1, 76, 0
3, 3360, Note_on_c, 1, 69, 93
3, 3384, Note_off_c, 1, 69, 0
3, 3384, Note_on_c, 1, 76, 93
3, 3408, Note_off_c, 1, 76, 0
3, 3408, Note_on_c, 1, 67, 93
3, 3432, Note_off_c, 1, 67, 0
3, 3432, Note_on_c, 1, 76, 93
3, 3456, Note_off_c, 1, 76, 0
3, 3456, Note_on_c, 1, 66, 93
3, 3480, Note_off_c, 1, 66, 0
3, 3480, Note_on_c, 1, 76, 93
3, 3504, Note_off_c, 1, 76, 0
3, 3504, Note_on_c, 1, 74, 93
3, 3528, Note_off_c, 1, 74, 0
3, 3528, Note_on_c, 1, 73, 93
3, 3552, Note_off_c, 1, 73, 0
3, 3552, Note_on_c, 1, 74, 93
3, 3576, Note_off_c, 1, 74, 0
3, 3576, Note_on_c, 1, 69, 93
3, 3600, Note_off_c, 1, 69, 0
3, 3600, Note_on_c, 1, 62, 93
3, 3624, Note_off_c, 1, 62, 0
3, 3624, Note_on_c, 1, 74, 93
3, 3648, Note_off_c, 1, 74, 0
3, 3648, Note_on_c, 1, 64, 93
3, 3672, Note_off_c, 1, 64, 0
3, 3672, Note_on_c, 1, 74, 93
3, 3696, Note_off_c, 1, 74, 0
3, 3696, Note_on_c, 1, 66, 93
3, 3720, Note_off_c, 1, 66, 0
3, 3720, Note_on_c, 1, 76, 93
3, 3744, Note_off_c, 1, 76, 0
3, 3744, Note_on_c, 1, 67, 93
3, 3768, Note_off_c, 1, 67, 0
3, 3768, Note_on_c, 1, 76, 93
3, 3792, Note_off_c, 1, 76, 0
3, 3792, Note_on_c, 1, 74, 93
3, 3816, Note_off_c, 1, 74, 0
3, 3816, Note_on_c, 1, 73, 93
3, 3840, Note_off_c, 1, 73, 0
3, 3840, Note_on_c, 1, 74, 93
3, 3864, Note_off_c, 1, 74, 0
3, 3864, Note_on_c, 1, 71, 93
3, 3888, Note_off_c, 1, 71, 0
3, 3888, Note_on_c, 1, 64, 93
3, 3912, Note_off_c, 1, 64, 0
3, 3912, Note_on_c, 1, 74, 93
3, 3936, Note_off_c, 1, 74, 0
3, 3936, Note_on_c, 1, 66, 93
3, 3960, Note_off_c, 1, 66, 0
3, 3960, Note_on_c, 1, 74, 93
3, 3984, Note_off_c, 1, 74, 0
3, 3984, Note_on_c, 1, 67, 93
3, 4008, Note_off_c, 1, 67, 0
3, 4008, Note_on_c, 1, 74, 93
3, 4032, Note_off_c, 1, 74, 0
3, 4032, Note_on_c, 1, 69, 93
3, 4056, Note_off_c, 1, 69, 0
3, 4056, Note_on_c, 1, 74, 93
3, 4080, Note_off_c, 1, 74, 0
3, 4080, Note_on_c, 1, 73, 93
3, 4104, Note_off_c, 1, 73, 0
3, 4104, Note_on_c, 1, 71, 93
3, 4128, Note_off_c, 1, 71, 0
3, 4128, Note_on_c, 1, 73, 93
3, 4152, Note_off_c, 1, 73, 0
3, 4152, Note_on_c, 1, 76, 93
3, 4176, Note_off_c, 1, 76, 0
3, 4176, Note_on_c, 1, 69, 93
3, 4200, Note_off_c, 1, 69, 0
3, 4200, Note_on_c, 1, 73, 93
3, 4224, Note_off_c, 1, 73, 0
3, 4224, Note_on_c, 1, 64, 93
3, 4248, Note_off_c, 1, 64, 0
3, 4248, Note_on_c, 1, 67, 93
3, 4272, Note_off_c, 1, 67, 0
3, 4272, Note_on_c, 1, 66, 93
3, 4296, Note_off_c, 1, 66, 0
3, 4296, Note_on_c, 1, 64, 93
3, 4320, Note_off_c, 1, 64, 0
3, 4320, Note_on_c, 1, 66, 93
3, 4344, Note_off_c, 1, 66, 0
3, 4344, Note_on_c, 1, 69, 93
3, 4368, Note_off_c, 1, 69, 0
3, 4368, Note_on_c, 1, 62, 93
3, 4392, Note_off_c, 1, 62, 0
3, 4392, Note_on_c, 1, 66, 93
3, 4416, Note_off_c, 1, 66, 0
3, 4416, Note_on_c, 1, 57, 93
3, 4440, Note_off_c, 1, 57, 0
3, 4440, Note_on_c, 1, 62, 93
3, 4464, Note_off_c, 1, 62, 0
3, 4464, Note_on_c, 1, 54, 93
3, 4488, Note_off_c, 1, 54, 0
3, 4488, Note_on_c, 1, 57, 93
3, 4512, Note_off_c, 1, 57, 0
3, 4512, Note_on_c, 1, 50, 93
3, 4608, Note_off_c, 1, 50, 0
3, 4608, Note_on_c, 1, 55, 93
3, 4656, Note_off_c, 1, 55, 0
3, 4704, Note_on_c, 1, 71, 93
3, 4752, Note_off_c, 1, 71, 0
3, 4800, Note_on_c, 1, 55, 93
3, 4896, Note_off_c, 1, 55, 0
3, 4896, Note_on_c, 1, 54, 93
3, 4944, Note_off_c, 1, 54, 0
3, 4992, Note_on_c, 1, 69, 93
3, 5040, Note_off_c, 1, 69, 0
3, 5088, Note_on_c, 1, 54, 93
3, 5184, Note_off_c, 1, 54, 0
3, 5184, Note_on_c, 1, 52, 93
3, 5232, Note_off_c, 1, 52, 0
3, 5280, Note_on_c, 1, 67, 93
3, 5328, Note_off_c, 1, 67, 0
3, 5376, Note_on_c, 1, 52, 93
3, 5472, Note_off_c, 1, 52, 0
3, 5472, Note_on_c, 1, 50, 93
3, 5520, Note_off_c, 1, 50, 0
3, 5568, Note_on_c, 1, 66, 93
3, 5616, Note_off_c, 1, 66, 0
3, 5664, Note_on_c, 1, 50, 93
3, 5712, Note_off_c, 1, 50, 0
3, 5712, Note_on_c, 1, 48, 93
3, 5760, Note_off_c, 1, 48, 0
3, 5760, Note_on_c, 1, 47, 93
3, 5808, Note_off_c, 1, 47, 0
3, 5856, Note_on_c, 1, 74, 93
3, 5904, Note_off_c, 1, 74, 0
3, 5952, Note_on_c, 1, 47, 93
3, 6048, Note_off_c, 1, 47, 0
3, 6048, Note_on_c, 1, 48, 93
3, 6096, Note_off_c, 1, 48, 0
3, 6144, Note_on_c, 1, 76, 93
3, 6192, Note_off_c, 1, 76, 0
3, 6240, Note_on_c, 1, 48, 93
3, 6336, Note_off_c, 1, 48, 0
3, 6336, Note_on_c, 1, 50, 93
3, 6384, Note_off_c, 1, 50, 0
3, 6432, Note_on_c, 1, 69, 93
3, 6480, Note_off_c, 1, 69, 0
3, 6528, Note_on_c, 1, 50, 93
3, 6624, Note_off_c, 1, 50, 0
3, 6624, Note_on_c, 1, 43, 93
3, 6672, Note_off_c, 1, 43, 0
3, 6720, Note_on_c, 1, 71, 93
3, 6840, Note_off_c, 1, 71, 0
3, 6840, Note_on_c, 1, 69, 93
3, 6864, Note_off_c, 1, 69, 0
3, 6864, Note_on_c, 1, 67, 93
3, 6888, Note_off_c, 1, 67, 0
3, 6888, Note_on_c, 1, 66, 93
3, 6912, Note_off_c, 1, 66, 0
3, 6912, Note_on_c, 1, 67, 93
3, 6936, Note_off_c, 1, 67, 0
3, 6936, Note_on_c, 1, 71, 93
3, 6960, Note_off_c, 1, 71, 0
3, 6960, Note_on_c, 1, 73, 93
3, 6984, Note_off_c, 1, 73, 0
3, 6984, Note_on_c, 1, 74, 93
3, 7008, Note_off_c, 1, 74, 0
3, 7008, Note_on_c, 1, 76, 93
3, 7032, Note_off_c, 1, 76, 0
3, 7032, Note_on_c, 1, 78, 93
3, 7056, Note_off_c, 1, 78, 0
3, 7056, Note_on_c, 1, 76, 93
3, 7080, Note_off_c, 1, 76, 0
3, 7080, Note_on_c, 1, 74, 93
3, 7104, Note_off_c, 1, 74, 0
3, 7104, Note_on_c, 1, 73, 93
3, 7128, Note_off_c, 1, 73, 0
3, 7128, Note_on_c, 1, 71, 93
3, 7152, Note_off_c, 1, 71, 0
3, 7152, Note_on_c, 1, 69, 93
3, 7176, Note_off_c, 1, 69, 0
3, 7176, Note_on_c, 1, 67, 93
3, 7200, Note_off_c, 1, 67, 0
3, 7200, Note_on_c, 1, 66, 93
3, 7224, Note_off_c, 1, 66, 0
3, 7224, Note_on_c, 1, 69, 93
3, 7248, Note_off_c, 1, 69, 0
3, 7248, Note_on_c, 1, 71, 93
3, 7272, Note_off_c, 1, 71, 0
3, 7272, Note_on_c, 1, 73, 93
3, 7296, Note_off_c, 1, 73, 0
3, 7296, Note_on_c, 1, 74, 93
3, 7320, Note_off_c, 1, 74, 0
3, 7320, Note_on_c, 1, 76, 93
3, 7344, Note_off_c, 1, 76, 0
3, 7344, Note_on_c, 1, 74, 93
3, 7368, Note_off_c, 1, 74, 0
3, 7368, Note_on_c, 1, 73, 93
3, 7392, Note_off_c, 1, 73, 0
3, 7392, Note_on_c, 1, 71, 93
3, 7416, Note_off_c, 1, 71, 0
3, 7416, Note_on_c, 1, 69, 93
3, 7440, Note_off_c, 1, 69, 0
3, 7440, Note_on_c, 1, 67, 93
3, 7464, Note_off_c, 1, 67, 0
3, 7464, Note_on_c, 1, 66, 93
3, 7488, Note_off_c, 1, 66, 0
3, 7488, Note_on_c, 1, 64, 93
3, 7536, Note_off_c, 1, 64, 0
3, 7536, Note_on_c, 1, 66, 93
3, 7584, Note_off_c, 1, 66, 0
3, 7584, Note_on_c, 1, 67, 93
3, 7632, Note_off_c, 1, 67, 0
3, 7632, Note_on_c, 1, 71, 93
3, 7680, Note_off_c, 1, 71, 0
3, 7680, Note_on_c, 1, 76, 93
3, 7686, Note_off_c, 1, 76, 0
3, 7686, Note_on_c, 1, 74, 93
3, 7698, Note_off_c, 1, 74, 0
3, 7698, Note_on_c, 1, 76, 93
3, 7824, Note_off_c, 1, 76, 0
3, 7824, Note_on_c, 1, 74, 93
3, 7872, Note_off_c, 1, 74, 0
3, 7872, Note_on_c, 1, 73, 93
3, 7896, Note_off_c, 1, 73, 0
3, 7896, Note_on_c, 1, 76, 93
3, 7920, Note_off_c, 1, 76, 0
3, 7920, Note_on_c, 1, 71, 93
3, 7944, Note_off_c, 1, 71, 0
3, 7944, Note_on_c, 1, 76, 93
3, 7968, Note_off_c, 1, 76, 0
3, 7968, Note_on_c, 1, 69, 93
3, 7992, Note_off_c, 1, 69, 0
3, 7992, Note_on_c, 1, 76, 93
3, 8016, Note_off_c, 1, 76, 0
3, 8016, Note_on_c, 1, 67, 93
3, 8040, Note_off_c, 1, 67, 0
3, 8040, Note_on_c, 1, 76, 93
3, 8064, Note_off_c, 1, 76, 0
3, 8064, Note_on_c, 1, 66, 93
3, 8088, Note_off_c, 1, 66, 0
3, 8088, Note_on_c, 1, 76, 93
3, 8112, Note_off_c, 1, 76, 0
3, 8112, Note_on_c, 1, 74, 93
3, 8136, Note_off_c, 1, 74, 0
3, 8136, Note_on_c, 1, 73, 93
3, 8160, Note_off_c, 1, 73, 0
3, 8160, Note_on_c, 1, 74, 93
3, 8184, Note_off_c, 1, 74, 0
3, 8184, Note_on_c, 1, 69, 93
3, 8208, Note_off_c, 1, 69, 0
3, 8208, Note_on_c, 1, 62, 93
3, 8232, Note_off_c, 1, 62, 0
3, 8232, Note_on_c, 1, 74, 93
3, 8256, Note_off_c, 1, 74, 0
3, 8256, Note_on_c, 1, 64, 93
3, 8280, Note_off_c, 1, 64, 0
3, 8280, Note_on_c, 1, 74, 93
3, 8304, Note_off_c, 1, 74, 0
3, 8304, Note_on_c, 1, 66, 93
3, 8328, Note_off_c, 1, 66, 0
3, 8328, Note_on_c, 1, 76, 93
3, 8352, Note_off_c, 1, 76, 0
3, 8352, Note_on_c, 1, 67, 93
3, 8376, Note_off_c, 1, 67, 0
3, 8376, Note_on_c, 1, 76, 93
3, 8400, Note_off_c, 1, 76, 0
3, 8400, Note_on_c, 1, 74, 93
3, 8424, Note_off_c, 1, 74, 0
3, 8424, Note_on_c, 1, 73, 93
3, 8448, Note_off_c, 1, 73, 0
3, 8448, Note_on_c, 1, 74, 93
3, 8472, Note_off_c, 1, 74, 0
3, 8472, Note_on_c, 1, 71, 93
3, 8496, Note_off_c, 1, 71, 0
3, 8496, Note_on_c, 1, 64, 93
3, 8520, Note_off_c, 1, 64, 0
3, 8520, Note_on_c, 1, 74, 93
3, 8544, Note_off_c, 1, 74, 0
3, 8544, Note_on_c, 1, 66, 93
3, 8568, Note_off_c, 1, 66, 0
3, 8568, Note_on_c, 1, 74, 93
3, 8592, Note_off_c, 1, 74, 0
3, 8592, Note_on_c, 1, 67, 93
3, 8616, Note_off_c, 1, 67, 0
3, 8616, Note_on_c, 1, 74, 93
3, 8640, Note_off_c, 1, 74, 0
3, 8640, Note_on_c, 1, 69, 93
3, 8664, Note_off_c, 1, 69, 0
3, 8664, Note_on_c, 1, 74, 93
3, 8688, Note_off_c, 1, 74, 0
3, 8688, Note_on_c, 1, 73, 93
3, 8712, Note_off_c, 1, 73, 0
3, 8712, Note_on_c, 1, 71, 93
3, 8736, Note_off_c, 1, 71, 0
3, 8736, Note_on_c, 1, 73, 93
3, 8760, Note_off_c, 1, 73, 0
3, 8760, Note_on_c, 1, 76, 93
3, 8784, Note_off_c, 1, 76, 0
3, 8784, Note_on_c, 1, 69, 93
3, 8808, Note_off_c, 1, 69, 0
3, 8808, Note_on_c, 1, 73, 93
3, 8832, Note_off_c, 1, 73, 0
3, 8832, Note_on_c, 1, 64, 93
3, 8856, Note_off_c, 1, 64, 0
3, 8856, Note_on_c, 1, 67, 93
3, 8880, Note_off_c, 1, 67, 0
3, 8880, Note_on_c, 1, 66, 93
3, 8904, Note_off_c, 1, 66, 0
3, 8904, Note_on_c, 1, 64, 93
3, 8928, Note_off_c, 1, 64, 0
3, 8928, Note_on_c, 1, 66, 93
3, 8952, Note_off_c, 1, 66, 0
3, 8952, Note_on_c, 1, 69, 93
3, 8976, Note_off_c, 1, 69, 0
3, 8976, Note_on_c, 1, 62, 93
3, 9000, Note_off_c, 1, 62, 0
3, 9000, Note_on_c, 1, 66, 93
3, 9024, Note_off_c, 1, 66, 0
3, 9024, Note_on_c, 1, 57, 93
3, 9048, Note_off_c, 1, 57, 0
3, 9048, Note_on_c, 1, 62, 93
3, 9072, Note_off_c, 1, 62, 0
3, 9072, Note_on_c, 1, 54, 93
3, 9096, Note_off_c, 1, 54, 0
3, 9096, Note_on_c, 1, 57, 93
3, 9120, Note_off_c, 1, 57, 0
3, 9120, Note_on_c, 1, 50, 93
3, 9216, Note_off_c, 1, 50, 0
3, 9240, Note_on_c, 1, 74, 93
3, 9264, Note_off_c, 1, 74, 0
3, 9264, Note_on_c, 1, 72, 93
3, 9288, Note_off_c, 1, 72, 0
3, 9288, Note_on_c, 1, 71, 93
3, 9312, Note_off_c, 1, 71, 0
3, 9312, Note_on_c, 1, 69, 93
3, 9336, Note_off_c, 1, 69, 0
3, 9336, Note_on_c, 1, 67, 93
3, 9360, Note_off_c, 1, 67, 0
3, 9360, Note_on_c, 1, 66, 93
3, 9384, Note_off_c, 1, 66, 0
3, 9384, Note_on_c, 1, 64, 93
3, 9408, Note_off_c, 1, 64, 0
3, 9408, Note_on_c, 1, 62, 93
3, 9432, Note_off_c, 1, 62, 0
3, 9432, Note_on_c, 1, 72, 93
3, 9456, Note_off_c, 1, 72, 0
3, 9456, Note_on_c, 1, 71, 93
3, 9480, Note_off_c, 1, 71, 0
3, 9480, Note_on_c, 1, 69, 93
3, 9504, Note_off_c, 1, 69, 0
3, 9504, Note_on_c, 1, 71, 93
3, 9528, Note_off_c, 1, 71, 0
3, 9528, Note_on_c, 1, 67, 93
3, 9552, Note_off_c, 1, 67, 0
3, 9552, Note_on_c, 1, 66, 93
3, 9576, Note_off_c, 1, 66, 0
3, 9576, Note_on_c, 1, 64, 93
3, 9600, Note_off_c, 1, 64, 0
3, 9600, Note_on_c, 1, 62, 93
3, 9624, Note_off_c, 1, 62, 0
3, 9624, Note_on_c, 1, 60, 93
3, 9648, Note_off_c, 1, 60, 0
3, 9648, Note_on_c, 1, 59, 93
3, 9672, Note_off_c, 1, 59, 0
3, 9672, Note_on_c, 1, 57, 93
3, 9696, Note_off_c, 1, 57, 0
3, 9696, Note_on_c, 1, 55, 93
3, 9720, Note_off_c, 1, 55, 0
3, 9720, Note_on_c, 1, 67, 93
3, 9744, Note_off_c, 1, 67, 0
3, 9744, Note_on_c, 1, 69, 93
3, 9768, Note_off_c, 1, 69, 0
3, 9768, Note_on_c, 1, 71, 93
3, 9792, Note_off_c, 1, 71, 0
3, 9792, Note_on_c, 1, 72, 93
3, 9816, Note_off_c, 1, 72, 0
3, 9816, Note_on_c, 1, 74, 93
3, 9840, Note_off_c, 1, 74, 0
3, 9840, Note_on_c, 1, 76, 93
3, 9864, Note_off_c, 1, 76, 0
3, 9864, Note_on_c, 1, 74, 93
3, 9888, Note_off_c, 1, 74, 0
3, 9888, Note_on_c, 1, 72, 93
3, 9912, Note_off_c, 1, 72, 0
3, 9912, Note_on_c, 1, 71, 93
3, 9936, Note_off_c, 1, 71, 0
3, 9936, Note_on_c, 1, 69, 93
3, 9960, Note_off_c, 1, 69, 0
3, 9960, Note_on_c, 1, 67, 93
3, 9984, Note_off_c, 1, 67, 0
3, 9984, Note_on_c, 1, 69, 93
3, 10008, Note_off_c, 1, 69, 0
3, 10008, Note_on_c, 1, 71, 93
3, 10032, Note_off_c, 1, 71, 0
3, 10032, Note_on_c, 1, 72, 93
3, 10056, Note_off_c, 1, 72, 0
3, 10056, Note_on_c, 1, 69, 93
3, 10080, Note_off_c, 1, 69, 0
3, 10080, Note_on_c, 1, 71, 93
3, 10104, Note_off_c, 1, 71, 0
3, 10104, Note_on_c, 1, 69, 93
3, 10128, Note_off_c, 1, 69, 0
3, 10128, Note_on_c, 1, 71, 93
3, 10152, Note_off_c, 1, 71, 0
3, 10152, Note_on_c, 1, 66, 93
3, 10176, Note_off_c, 1, 66, 0
3, 10176, Note_on_c, 1, 59, 93
3, 10200, Note_off_c, 1, 59, 0
3, 10200, Note_on_c, 1, 61, 93
3, 10224, Note_off_c, 1, 61, 0
3, 10224, Note_on_c, 1, 63, 93
3, 10248, Note_off_c, 1, 63, 0
3, 10248, Note_on_c, 1, 64, 93
3, 10272, Note_off_c, 1, 64, 0
3, 10272, Note_on_c, 1, 66, 93
3, 10296, Note_off_c, 1, 66, 0
3, 10296, Note_on_c, 1, 67, 93
3, 10320, Note_off_c, 1, 67, 0
3, 10320, Note_on_c, 1, 69, 93
3, 10344, Note_off_c, 1, 69, 0
3, 10344, Note_on_c, 1, 66, 93
3, 10368, Note_off_c, 1, 66, 0
3, 10368, Note_on_c, 1, 67, 93
3, 10392, Note_off_c, 1, 67, 0
3, 10392, Note_on_c, 1, 71, 93
3, 10416, Note_off_c, 1, 71, 0
3, 10416, Note_on_c, 1, 67, 93
3, 10440, Note_off_c, 1, 67, 0
3, 10440, Note_on_c, 1, 64, 93
3, 10464, Note_off_c, 1, 64, 0
3, 10464, Note_on_c, 1, 67, 93
3, 10488, Note_off_c, 1, 67, 0
3, 10488, Note_on_c, 1, 71, 93
3, 10512, Note_off_c, 1, 71, 0
3, 10512, Note_on_c, 1, 67, 93
3, 10536, Note_off_c, 1, 67, 0
3, 10536, Note_on_c, 1, 64, 93
3, 10560, Note_off_c, 1, 64, 0
3, 10560, Note_on_c, 1, 67, 93
3, 10584, Note_off_c, 1, 67, 0
3, 10584, Note_on_c, 1, 71, 93
3, 10608, Note_off_c, 1, 71, 0
3, 10608, Note_on_c, 1, 67, 93
3, 10632, Note_off_c, 1, 67, 0
3, 10632, Note_on_c, 1, 64, 93
3, 10656, Note_off_c, 1, 64, 0
3, 10656, Note_on_c, 1, 69, 93
3, 10680, Note_off_c, 1, 69, 0
3, 10680, Note_on_c, 1, 72, 93
3, 10704, Note_off_c, 1, 72, 0
3, 10704, Note_on_c, 1, 69, 93
3, 10728, Note_off_c, 1, 69, 0
3, 10728, Note_on_c, 1, 64, 93
3, 10752, Note_off_c, 1, 64, 0
3, 10752, Note_on_c, 1, 67, 93
3, 10776, Note_off_c, 1, 67, 0
3, 10776, Note_on_c, 1, 72, 93
3, 10800, Note_off_c, 1, 72, 0
3, 10800, Note_on_c, 1, 67, 93
3, 10824, Note_off_c, 1, 67, 0
3, 10824, Note_on_c, 1, 64, 93
3, 10848, Note_off_c, 1, 64, 0
3, 10848, Note_on_c, 1, 66, 93
3, 10872, Note_off_c, 1, 66, 0
3, 10872, Note_on_c, 1, 72, 93
3, 10896, Note_off_c, 1, 72, 0
3, 10896, Note_on_c, 1, 66, 93
3, 10920, Note_off_c, 1, 66, 0
3, 10920, Note_on_c, 1, 64, 93
3, 10944, Note_off_c, 1, 64, 0
3, 10944, Note_on_c, 1, 67, 93
3, 10968, Note_off_c, 1, 67, 0
3, 10968, Note_on_c, 1, 71, 93
3, 10992, Note_off_c, 1, 71, 0
3, 10992, Note_on_c, 1, 67, 93
3, 11016, Note_off_c, 1, 67, 0
3, 11016, Note_on_c, 1, 64, 93
3, 11040, Note_off_c, 1, 64, 0
3, 11040, Note_on_c, 1, 59, 93
3, 11064, Note_off_c, 1, 59, 0
3, 11064, Note_on_c, 1, 71, 93
3, 11088, Note_off_c, 1, 71, 0
3, 11088, Note_on_c, 1, 69, 93
3, 11112, Note_off_c, 1, 69, 0
3, 11112, Note_on_c, 1, 71, 93
3, 11136, Note_off_c, 1, 71, 0
3, 11136, Note_on_c, 1, 67, 93
3, 11160, Note_off_c, 1, 67, 0
3, 11160, Note_on_c, 1, 71, 93
3, 11184, Note_off_c, 1, 71, 0
3, 11184, Note_on_c, 1, 66, 93
3, 11208, Note_off_c, 1, 66, 0
3, 11208, Note_on_c, 1, 71, 93
3, 11232, Note_off_c, 1, 71, 0
3, 11232, Note_on_c, 1, 67, 93
3, 11256, Note_off_c, 1, 67, 0
3, 11256, Note_on_c, 1, 64, 93
3, 11280, Note_off_c, 1, 64, 0
3, 11280, Note_on_c, 1, 67, 93
3, 11304, Note_off_c, 1, 67, 0
3, 11304, Note_on_c, 1, 71, 93
3, 11328, Note_off_c, 1, 71, 0
3, 11328, Note_on_c, 1, 76, 93
3, 11352, Note_off_c, 1, 76, 0
3, 11352, Note_on_c, 1, 71, 93
3, 11376, Note_off_c, 1, 71, 0
3, 11376, Note_on_c, 1, 67, 93
3, 11400, Note_off_c, 1, 67, 0
3, 11400, Note_on_c, 1, 71, 93
3, 11424, Note_off_c, 1, 71, 0
3, 11424, Note_on_c, 1, 64, 93
3, 11472, Note_off_c, 1, 64, 0
3, 11520, Note_on_c, 1, 64, 93
3, 11568, Note_off_c, 1, 64, 0
3, 11616, Note_on_c, 1, 48, 93
3, 11664, Note_off_c, 1, 48, 0
3, 11712, Note_on_c, 1, 64, 93
3, 11808, Note_off_c, 1, 64, 0
3, 11808, Note_on_c, 1, 62, 93
3, 11856, Note_off_c, 1, 62, 0
3, 11904, Note_on_c, 1, 47, 93
3, 11952, Note_off_c, 1, 47, 0
3, 12000, Note_on_c, 1, 62, 93
3, 12096, Note_off_c, 1, 62, 0
3, 12096, Note_on_c, 1, 60, 93
3, 12144, Note_off_c, 1, 60, 0
3, 12144, Note_on_c, 1, 59, 93
3, 12192, Note_off_c, 1, 59, 0
3, 12192, Note_on_c, 1, 57, 93
3, 12240, Note_off_c, 1, 57, 0
3, 12240, Note_on_c, 1, 55, 93
3, 12288, Note_off_c, 1, 55, 0
3, 12288, Note_on_c, 1, 54, 93
3, 12336, Note_off_c, 1, 54, 0
3, 12336, Note_on_c, 1, 52, 93
3, 12384, Note_off_c, 1, 52, 0
3, 12384, Note_on_c, 1, 54, 93
3, 12432, Note_off_c, 1, 54, 0
3, 12432, Note_on_c, 1, 55, 93
3, 12456, Note_off_c, 1, 55, 0
3, 12456, Note_on_c, 1, 57, 93
3, 12480, Note_off_c, 1, 57, 0
3, 12480, Note_on_c, 1, 50, 93
3, 12600, Note_off_c, 1, 50, 0
3, 12600, Note_on_c, 1, 60, 93
3, 12624, Note_off_c, 1, 60, 0
3, 12624, Note_on_c, 1, 59, 93
3, 12648, Note_off_c, 1, 59, 0
3, 12648, Note_on_c, 1, 57, 93
3, 12672, Note_off_c, 1, 57, 0
3, 12672, Note_on_c, 1, 59, 93
3, 12696, Note_off_c, 1, 59, 0
3, 12696, Note_on_c, 1, 55, 93
3, 12720, Note_off_c, 1, 55, 0
3, 12720, Note_on_c, 1, 54, 93
3, 12744, Note_off_c, 1, 54, 0
3, 12744, Note_on_c, 1, 55, 93
3, 12768, Note_off_c, 1, 55, 0
3, 12768, Note_on_c, 1, 57, 93
3, 12792, Note_off_c, 1, 57, 0
3, 12792, Note_on_c, 1, 55, 93
3, 12816, Note_off_c, 1, 55, 0
3, 12816, Note_on_c, 1, 59, 93
3, 12840, Note_off_c, 1, 59, 0
3, 12840, Note_on_c, 1, 55, 93
3, 12864, Note_off_c, 1, 55, 0
3, 12864, Note_on_c, 1, 60, 93
3, 12888, Note_off_c, 1, 60, 0
3, 12888, Note_on_c, 1, 55, 93
3, 12912, Note_off_c, 1, 55, 0
3, 12912, Note_on_c, 1, 62, 93
3, 12936, Note_off_c, 1, 62, 0
3, 12936, Note_on_c, 1, 55, 93
3, 12960, Note_off_c, 1, 55, 0
3, 12960, Note_on_c, 1, 64, 93
3, 13008, Note_off_c, 1, 64, 0
3, 13008, Note_on_c, 1, 55, 93
3, 13056, Note_off_c, 1, 55, 0
3, 13104, Note_on_c, 1, 59, 93
3, 13152, Note_off_c, 1, 59, 0
3, 13152, Note_on_c, 1, 57, 93
3, 13200, Note_off_c, 1, 57, 0
3, 13200, Note_on_c, 1, 55, 93
3, 13248, Note_off_c, 1, 55, 0
3, 13248, Note_on_c, 1, 54, 93
3, 13272, Note_off_c, 1, 54, 0
3, 13272, Note_on_c, 1, 62, 93
3, 13296, Note_off_c, 1, 62, 0
3, 13296, Note_on_c, 1, 64, 93
3, 13320, Note_off_c, 1, 64, 0
3, 13320, Note_on_c, 1, 66, 93
3, 13344, Note_off_c, 1, 66, 0
3, 13344, Note_on_c, 1, 67, 93
3, 13368, Note_off_c, 1, 67, 0
3, 13368, Note_on_c, 1, 62, 93
3, 13392, Note_off_c, 1, 62, 0
3, 13392, Note_on_c, 1, 59, 93
3, 13416, Note_off_c, 1, 59, 0
3, 13416, Note_on_c, 1, 55, 93
3, 13440, Note_off_c, 1, 55, 0
3, 13440, Note_on_c, 1, 57, 93
3, 13464, Note_off_c, 1, 57, 0
3, 13464, Note_on_c, 1, 60, 93
3, 13488, Note_off_c, 1, 60, 0
3, 13488, Note_on_c, 1, 67, 93
3, 13512, Note_off_c, 1, 67, 0
3, 13512, Note_on_c, 1, 66, 93
3, 13536, Note_off_c, 1, 66, 0
3, 13536, Note_on_c, 1, 67, 93
3, 13584, Note_off_c, 1, 67, 0
3, 13584, Note_on_c, 1, 55, 93
3, 13632, Note_off_c, 1, 55, 0
3, 13632, Note_on_c, 1, 50, 93
3, 13680, Note_off_c, 1, 50, 0
3, 13680, Note_on_c, 1, 47, 93
3, 13728, Note_off_c, 1, 47, 0
3, 13728, Note_on_c, 1, 43, 93
3, 13824, Note_off_c, 1, 43, 0
3, 13848, Note_on_c, 1, 74, 93
3, 13872, Note_off_c, 1, 74, 0
3, 13872, Note_on_c, 1, 72, 93
3, 13896, Note_off_c, 1, 72, 0
3, 13896, Note_on_c, 1, 71, 93
3, 13920, Note_off_c, 1, 71, 0
3, 13920, Note_on_c, 1, 69, 93
3, 13944, Note_off_c, 1, 69, 0
3, 13944, Note_on_c, 1, 67, 93
3, 13968, Note_off_c, 1, 67, 0
3, 13968, Note_on_c, 1, 66, 93
3, 13992, Note_off_c, 1, 66, 0
3, 13992, Note_on_c, 1, 64, 93
3, 14016, Note_off_c, 1, 64, 0
3, 14016, Note_on_c, 1, 62, 93
3, 14040, Note_off_c, 1, 62, 0
3, 14040, Note_on_c, 1, 72, 93
3, 14064, Note_off_c, 1, 72, 0
3, 14064, Note_on_c, 1, 71, 93
3, 14088, Note_off_c, 1, 71, 0
3, 14088, Note_on_c, 1, 69, 93
3, 14112, Note_off_c, 1, 69, 0
3, 14112, Note_on_c, 1, 71, 93
3, 14136, Note_off_c, 1, 71, 0
3, 14136, Note_on_c, 1, 67, 93
3, 14160, Note_off_c, 1, 67, 0
3, 14160, Note_on_c, 1, 66, 93
3, 14184, Note_off_c, 1, 66, 0
3, 14184, Note_on_c, 1, 64, 93
3, 14208, Note_off_c, 1, 64, 0
3, 14208, Note_on_c, 1, 62, 93
3, 14232, Note_off_c, 1, 62, 0
3, 14232, Note_on_c, 1, 60, 93
3, 14256, Note_off_c, 1, 60, 0
3, 14256, Note_on_c, 1, 59, 93
3, 14280, Note_off_c, 1, 59, 0
3, 14280, Note_on_c, 1, 57, 93
3, 14304, Note_off_c, 1, 57, 0
3, 14304, Note_on_c, 1, 55, 93
3, 14328, Note_off_c, 1, 55, 0
3, 14328, Note_on_c, 1, 67, 93
3, 14352, Note_off_c, 1, 67, 0
3, 14352, Note_on_c, 1, 69, 93
3, 14376, Note_off_c, 1, 69, 0
3, 14376, Note_on_c, 1, 71, 93
3, 14400, Note_off_c, 1, 71, 0
3, 14400, Note_on_c, 1, 72, 93
3, 14424, Note_off_c, 1, 72, 0
3, 14424, Note_on_c, 1, 74, 93
3, 14448, Note_off_c, 1, 74, 0
3, 14448, Note_on_c, 1, 76, 93
3, 14472, Note_off_c, 1, 76, 0
3, 14472, Note_on_c, 1, 74, 93
3, 14496, Note_off_c, 1, 74, 0
3, 14496, Note_on_c, 1, 72, 93
3, 14520, Note_off_c, 1, 72, 0
3, 14520, Note_on_c, 1, 71, 93
3, 14544, Note_off_c, 1, 71, 0
3, 14544, Note_on_c, 1, 69, 93
3, 14568, Note_off_c, 1, 69, 0
3, 14568, Note_on_c, 1, 67, 93
3, 14592, Note_off_c, 1, 67, 0
3, 14592, Note_on_c, 1, 69, 93
3, 14616, Note_off_c, 1, 69, 0
3, 14616, Note_on_c, 1, 71, 93
3, 14640, Note_off_c, 1, 71, 0
3, 14640, Note_on_c, 1, 72, 93
3, 14664, Note_off_c, 1, 72, 0
3, 14664, Note_on_c, 1, 69, 93
3, 14688, Note_off_c, 1, 69, 0
3, 14688, Note_on_c, 1, 71, 93
3, 14712, Note_off_c, 1, 71, 0
3, 14712, Note_on_c, 1, 69, 93
3, 14736, Note_off_c, 1, 69, 0
3, 14736, Note_on_c, 1, 71, 93
3, 14760, Note_off_c, 1, 71, 0
3, 14760, Note_on_c, 1, 66, 93
3, 14784, Note_off_c, 1, 66, 0
3, 14784, Note_on_c, 1, 59, 93
3, 14808, Note_off_c, 1, 59, 0
3, 14808, Note_on_c, 1, 61, 93
3, 14832, Note_off_c, 1, 61, 0
3, 14832, Note_on_c, 1, 63, 93
3, 14856, Note_off_c, 1, 63, 0
3, 14856, Note_on_c, 1, 64, 93
3, 14880, Note_off_c, 1, 64, 0
3, 14880, Note_on_c, 1, 66, 93
3, 14904, Note_off_c, 1, 66, 0
3, 14904, Note_on_c, 1, 67, 93
3, 14928, Note_off_c, 1, 67, 0
3, 14928, Note_on_c, 1, 69, 93
3, 14952, Note_off_c, 1, 69, 0
3, 14952, Note_on_c, 1, 66, 93
3, 14976, Note_off_c, 1, 66, 0
3, 14976, Note_on_c, 1, 67, 93
3, 15000, Note_off_c, 1, 67, 0
3, 15000, Note_on_c, 1, 71, 93
3, 15024, Note_off_c, 1, 71, 0
3, 15024, Note_on_c, 1, 67, 93
3, 15048, Note_off_c, 1, 67, 0
3, 15048, Note_on_c, 1, 64, 93
3, 15072, Note_off_c, 1, 64, 0
3, 15072, Note_on_c, 1, 67, 93
3, 15096, Note_off_c, 1, 67, 0
3, 15096, Note_on_c, 1, 71, 93
3, 15120, Note_off_c, 1, 71, 0
3, 15120, Note_on_c, 1, 67, 93
3, 15144, Note_off_c, 1, 67, 0
3, 15144, Note_on_c, 1, 64, 93
3, 15168, Note_off_c, 1, 64, 0
3, 15168, Note_on_c, 1, 67, 93
3, 15192, Note_off_c, 1, 67, 0
3, 15192, Note_on_c, 1, 71, 93
3, 15216, Note_off_c, 1, 71, 0
3, 15216, Note_on_c, 1, 67, 93
3, 15240, Note_off_c, 1, 67, 0
3, 15240, Note_on_c, 1, 64, 93
3, 15264, Note_off_c, 1, 64, 0
3, 15264, Note_on_c, 1, 69, 93
3, 15288, Note_off_c, 1, 69, 0
3, 15288, Note_on_c, 1, 72, 93
3, 15312, Note_off_c, 1, 72, 0
3, 15312, Note_on_c, 1, 69, 93
3, 15336, Note_off_c, 1, 69, 0
3, 15336, Note_on_c, 1, 64, 93
3, 15360, Note_off_c, 1, 64, 0
3, 15360, Note_on_c, 1, 67, 93
3, 15384, Note_off_c, 1, 67, 0
3, 15384, Note_on_c, 1, 72, 93
3, 15408, Note_off_c, 1, 72, 0
3, 15408, Note_on_c, 1, 67, 93
3, 15432, Note_off_c, 1, 67, 0
3, 15432, Note_on_c, 1, 64, 93
3, 15456, Note_off_c, 1, 64, 0
3, 15456, Note_on_c, 1, 66, 93
3, 15480, Note_off_c, 1, 66, 0
3, 15480, Note_on_c, 1, 72, 93
3, 15504, Note_off_c, 1, 72, 0
3, 15504, Note_on_c, 1, 66, 93
3, 15528, Note_off_c, 1, 66, 0
3, 15528, Note_on_c, 1, 64, 93
3, 15552, Note_off_c, 1, 64, 0
3, 15552, Note_on_c, 1, 67, 93
3, 15576, Note_off_c, 1, 67, 0
3, 15576, Note_on_c, 1, 71, 93
3, 15600, Note_off_c, 1, 71, 0
3, 15600, Note_on_c, 1, 67, 93
3, 15624, Note_off_c, 1, 67, 0
3, 15624, Note_on_c, 1, 64, 93
3, 15648, Note_off_c, 1, 64, 0
3, 15648, Note_on_c, 1, 59, 93
3, 15672, Note_off_c, 1, 59, 0
3, 15672, Note_on_c, 1, 71, 93
3, 15696, Note_off_c, 1, 71, 0
3, 15696, Note_on_c, 1, 69, 93
3, 15720, Note_off_c, 1, 69, 0
3, 15720, Note_on_c, 1, 71, 93
3, 15744, Note_off_c, 1, 71, 0
3, 15744, Note_on_c, 1, 67, 93
3, 15768, Note_off_c, 1, 67, 0
3, 15768, Note_on_c, 1, 71, 93
3, 15792, Note_off_c, 1, 71, 0
3, 15792, Note_on_c, 1, 66, 93
3, 15816, Note_off_c, 1, 66, 0
3, 15816, Note_on_c, 1, 71, 93
3, 15840, Note_off_c, 1, 71, 0
3, 15840, Note_on_c, 1, 67, 93
3, 15864, Note_off_c, 1, 67, 0
3, 15864, Note_on_c, 1, 64, 93
3, 15888, Note_off_c, 1, 64, 0
3, 15888, Note_on_c, 1, 67, 93
3, 15912, Note_off_c, 1, 67, 0
3, 15912, Note_on_c, 1, 71, 93
3, 15936, Note_off_c, 1, 71, 0
3, 15936, Note_on_c, 1, 76, 93
3, 15960, Note_off_c, 1, 76, 0
3, 15960, Note_on_c, 1, 71, 93
3, 15984, Note_off_c, 1, 71, 0
3, 15984, Note_on_c, 1, 67, 93
3, 16008, Note_off_c, 1, 67, 0
3, 16008, Note_on_c, 1, 71, 93
3, 16032, Note_off_c, 1, 71, 0
3, 16032, Note_on_c, 1, 64, 93
3, 16080, Note_off_c, 1, 64, 0
3, 16128, Note_on_c, 1, 64, 93
3, 16176, Note_off_c, 1, 64, 0
3, 16224, Note_on_c, 1, 48, 93
3, 16272, Note_off_c, 1, 48, 0
3, 16320, Note_on_c, 1, 64, 93
3, 16416, Note_off_c, 1, 64, 0
3, 16416, Note_on_c, 1, 62, 93
3, 16464, Note_off_c, 1, 62, 0
3, 16512, Note_on_c, 1, 47, 93
3, 16560, Note_off_c, 1, 47, 0
3, 16608, Note_on_c, 1, 62, 93
3, 16704, Note_off_c, 1, 62, 0
3, 16704, Note_on_c, 1, 60, 93
3, 16752, Note_off_c, 1, 60, 0
3, 16752, Note_on_c, 1, 59, 93
3, 16800, Note_off_c, 1, 59, 0
3, 16800, Note_on_c, 1, 57, 93
3, 16848, Note_off_c, 1, 57, 0
3, 16848, Note_on_c, 1, 55, 93
3, 16896, Note_off_c, 1, 55, 0
3, 16896, Note_on_c, 1, 54, 93
3, 16944, Note_off_c, 1, 54, 0
3, 16944, Note_on_c, 1, 52, 93
3, 16992, Note_off_c, 1, 52, 0
3, 16992, Note_on_c, 1, 54, 93
3, 17040, Note_off_c, 1, 54, 0
3, 17040, Note_on_c, 1, 55, 93
3, 17064, Note_off_c, 1, 55, 0
3, 17064, Note_on_c, 1, 57, 93
3, 17088, Note_off_c, 1, 57, 0
3, 17088, Note_on_c, 1, 50, 93
3, 17208, Note_off_c, 1, 50, 0
3, 17208, Note_on_c, 1, 60, 93
3, 17232, Note_off_c, 1, 60, 0
3, 17232, Note_on_c, 1, 59, 93
3, 17256, Note_off_c, 1, 59, 0
3, 17256, Note_on_c, 1, 57, 93
3, 17280, Note_off_c, 1, 57, 0
3, 17280, Note_on_c, 1, 59, 93
3, 17304, Note_off_c, 1, 59, 0
3, 17304, Note_on_c, 1, 55, 93
3, 17328, Note_off_c, 1, 55, 0
3, 17328, Note_on_c, 1, 54, 93
3, 17352, Note_off_c, 1, 54, 0
3, 17352, Note_on_c, 1, 55, 93
3, 17376, Note_off_c, 1, 55, 0
3, 17376, Note_on_c, 1, 57, 93
3, 17400, Note_off_c, 1, 57, 0
3, 17400, Note_on_c, 1, 55, 93
3, 17424, Note_off_c, 1, 55, 0
3, 17424, Note_on_c, 1, 59, 93
3, 17448, Note_off_c, 1, 59, 0
3, 17448, Note_on_c, 1, 55, 93
3, 17472, Note_off_c, 1, 55, 0
3, 17472, Note_on_c, 1, 60, 93
3, 17496, Note_off_c, 1, 60, 0
3, 17496, Note_on_c, 1, 55, 93
3, 17520, Note_off_c, 1, 55, 0
3, 17520, Note_on_c, 1, 62, 93
3, 17544, Note_off_c, 1, 62, 0
3, 17544, Note_on_c, 1, 55, 93
3, 17568, Note_off_c, 1, 55, 0
3, 17568, Note_on_c, 1, 64, 93
3, 17616, Note_off_c, 1, 64, 0
3, 17616, Note_on_c, 1, 55, 93
3, 17664, Note_off_c, 1, 55, 0
3, 17712, Note_on_c, 1, 59, 93
3, 17760, Note_off_c, 1, 59, 0
3, 17760, Note_on_c, 1, 57, 93
3, 17808, Note_off_c, 1, 57, 0
3, 17808, Note_on_c, 1, 55, 93
3, 17856, Note_off_c, 1, 55, 0
3, 17856, Note_on_c, 1, 54, 93
3, 17880, Note_off_c, 1, 54, 0
3, 17880, Note_on_c, 1, 62, 93
3, 17904, Note_off_c, 1, 62, 0
3, 17904, Note_on_c, 1, 64, 93
3, 17928, Note_off_c, 1, 64, 0
3, 17928, Note_on_c, 1, 66, 93
3, 17952, Note_off_c, 1, 66, 0
3, 17952, Note_on_c, 1, 67, 93
3, 17976, Note_off_c, 1, 67, 0
3, 17976, Note_on_c, 1, 62, 93
3, 18000, Note_off_c, 1, 62, 0
3, 18000, Note_on_c, 1, 59, 93
3, 18024, Note_off_c, 1, 59, 0
3, 18024, Note_on_c, 1, 55, 93
3, 18048, Note_off_c, 1, 55, 0
3, 18048, Note_on_c, 1, 57, 93
3, 18072, Note_off_c, 1, 57, 0
3, 18072, Note_on_c, 1, 60, 93
3, 18096, Note_off_c, 1, 60, 0
3, 18096, Note_on_c, 1, 67, 93
3, 18120, Note_off_c, 1, 67, 0
3, 18120, Note_on_c, 1, 66, 93
3, 18144, Note_off_c, 1, 66, 0
3, 18144, Note_on_c, 1, 67, 93
3, 18192, Note_off_c, 1, 67, 0
3, 18192, Note_on_c, 1, 55, 93
3, 18240, Note_off_c, 1, 55, 0
3, 18240, Note_on_c, 1, 50, 93
3, 18288, Note_off_c, 1, 50, 0
3, 18288, Note_on_c, 1, 47, 93
3, 18336, Note_off_c, 1, 47, 0
3, 18336, Note_on_c, 1, 43, 93
3, 18432, Note_off_c, 1, 43, 0
3, 18432, End_track
0, 0, End_of_file
