0, 0, Header, 1, 5, 96
1, 0, Start_track
1, 0, Time_signature, 4, 2, 24, 8
1, 0, Title_t, "untitled"
1, 0, Title_t, "Track1"
1, 0, Tempo, 300000
1, 0, End_track
2, 0, Start_track
2, 0, Title_t, "Track2"
2, 0, Program_c, 0, 6
2, 0, Control_c, 0, 7, 100
2, 0, Control_c, 0, 10, 79
2, 4608, Note_on_c, 0, 69, 93
2, 4800, Note_off_c, 0, 69, 0
2, 4800, Note_on_c, 0, 71, 93
2, 4824, Note_off_c, 0, 71, 0
2, 4824, Note_on_c, 0, 69, 93
2, 4848, Note_off_c, 0, 69, 0
2, 4848, Note_on_c, 0, 71, 93
2, 4872, Note_off_c, 0, 71, 0
2, 4872, Note_on_c, 0, 69, 93
2, 4896, Note_off_c, 0, 69, 0
2, 4896, Note_on_c, 0, 71, 93
2, 4920, Note_off_c, 0, 71, 0
2, 4920, Note_on_c, 0, 69, 93
2, 4944, Note_off_c, 0, 69, 0
2, 4944, Note_on_c, 0, 67, 93
2, 4968, Note_off_c, 0, 67, 0
2, 4968, Note_on_c, 0, 69, 93
2, 4992, Note_off_c, 0, 69, 0
2, 4992, Note_on_c, 0, 71, 93
2, 5088, Note_off_c, 0, 71, 0
2, 5088, Note_on_c, 0, 67, 93
2, 5184, Note_off_c, 0, 67, 0
2, 5184, Note_on_c, 0, 64, 93
2, 5280, Note_off_c, 0, 64, 0
2, 5280, Note_on_c, 0, 67, 93
2, 5376, Note_off_c, 0, 67, 0
2, 5376, Note_on_c, 0, 64, 93
2, 5472, Note_off_c, 0, 64, 0
2, 5472, Note_on_c, 0, 69, 93
2, 5568, Note_off_c, 0, 69, 0
2, 5568, Note_on_c, 0, 57, 93
2, 5664, Note_off_c, 0, 57, 0
2, 5664, Note_on_c, 0, 67, 93
2, 5760, Note_off_c, 0, 67, 0
2, 5760, Note_on_c, 0, 67, 93
2, 5778, Note_off_c, 0, 67, 0
2, 5778, Note_on_c, 0, 66, 93
2, 5790, Note_off_c, 0, 66, 0
2, 5790, Note_on_c, 0, 67, 93
2, 5808, Note_off_c, 0, 67, 0
2, 5808, Note_on_c, 0, 66, 93
2, 5856, Note_off_c, 0, 66, 0
2, 5856, Note_on_c, 0, 64, 93
2, 5904, Note_off_c, 0, 64, 0
2, 5904, Note_on_c, 0, 66, 93
2, 5952, Note_off_c, 0, 66, 0
2, 5952, Note_on_c, 0, 62, 93
2, 6144, Note_off_c, 0, 62, 0
2, 10752, Note_on_c, 0, 69, 93
2, 10944, Note_off_c, 0, 69, 0
2, 10944, Note_on_c, 0, 71, 93
2, 10968, Note_off_c, 0, 71, 0
2, 10968, Note_on_c, 0, 69, 93
2, 10992, Note_off_c, 0, 69, 0
2, 10992, Note_on_c, 0, 71, 93
2, 11016, Note_off_c, 0, 71, 0
2, 11016, Note_on_c, 0, 69, 93
2, 11040, Note_off_c, 0, 69, 0
2, 11040, Note_on_c, 0, 71, 93
2, 11064, Note_off_c, 0, 71, 0
2, 11064, Note_on_c, 0, 69, 93
2, 11088, Note_off_c, 0, 69, 0
2, 11088, Note_on_c, 0, 67, 93
2, 11112, Note_off_c, 0, 67, 0
2, 11112, Note_on_c, 0, 69, 93
2, 11136, Note_off_c, 0, 69, 0
2, 11136, Note_on_c, 0, 71, 93
2, 11232, Note_off_c, 0, 71, 0
2, 11232, Note_on_c, 0, 67, 93
2, 11328, Note_off_c, 0, 67, 0
2, 11328, Note_on_c, 0, 64, 93
2, 11424, Note_off_c, 0, 64, 0
2, 11424, Note_on_c, 0, 67, 93
2, 11520, Note_off_c, 0, 67, 0
2, 11520, Note_on_c, 0, 64, 93
2, 11616, Note_off_c, 0, 64, 0
2, 11616, Note_on_c, 0, 69, 93
2, 11712, Note_off_c, 0, 69, 0
2, 11712, Note_on_c, 0, 57, 93
2, 11808, Note_off_c, 0, 57, 0
2, 11808, Note_on_c, 0, 67, 93
2, 11904, Note_off_c, 0, 67, 0
2, 11904, Note_on_c, 0, 67, 93
2, 11922, Note_off_c, 0, 67, 0
2, 11922, Note_on_c, 0, 66, 93
2, 11934, Note_off_c, 0, 66, 0
2, 11934, Note_on_c, 0, 67, 93
2, 11952, Note_off_c, 0, 67, 0
2, 11952, Note_on_c, 0, 66, 93
2, 12000, Note_off_c, 0, 66, 0
2, 12000, Note_on_c, 0, 64, 93
2, 12048, Note_off_c, 0, 64, 0
2, 12048, Note_on_c, 0, 66, 93
2, 12096, Note_off_c, 0, 66, 0
2, 12096, Note_on_c, 0, 62, 93
2, 12288, Note_off_c, 0, 62, 0
2, 12288, Note_on_c, 0, 78, 93
2, 12312, Note_off_c, 0, 78, 0
2, 12312, Note_on_c, 0, 76, 93
2, 12336, Note_off_c, 0, 76, 0
2, 12336, Note_on_c, 0, 78, 93
2, 12480, Note_off_c, 0, 78, 0
2, 12480, Note_on_c, 0, 79, 93
2, 12504, Note_off_c, 0, 79, 0
2, 12504, Note_on_c, 0, 78, 93
2, 12528, Note_off_c, 0, 78, 0
2, 12528, Note_on_c, 0, 79, 93
2, 12552, Note_off_c, 0, 79, 0
2, 12552, Note_on_c, 0, 78, 93
2, 12576, Note_off_c, 0, 78, 0
2, 12576, Note_on_c, 0, 79, 93
2, 12600, Note_off_c, 0, 79, 0
2, 12600, Note_on_c, 0, 78, 93
2, 12624, Note_off_c, 0, 78, 0
2, 12624, Note_on_c, 0, 76, 93
2, 12648, Note_off_c, 0, 76, 0
2, 12648, Note_on_c, 0, 78, 93
2, 12672, Note_off_c, 0, 78, 0
2, 12672, Note_on_c, 0, 79, 93
2, 12768, Note_off_c, 0, 79, 0
2, 12768, Note_on_c, 0, 74, 93
2, 12864, Note_off_c, 0, 74, 0
2, 12864, Note_on_c, 0, 71, 93
2, 12960, Note_off_c, 0, 71, 0
2, 12960, Note_on_c, 0, 74, 93
2, 13056, Note_off_c, 0, 74, 0
2, 13056, Note_on_c, 0, 72, 93
2, 13152, Note_off_c, 0, 72, 0
2, 13152, Note_on_c, 0, 77, 93
2, 13248, Note_off_c, 0, 77, 0
2, 13248, Note_on_c, 0, 65, 93
2, 13344, Note_off_c, 0, 65, 0
2, 13344, Note_on_c, 0, 76, 93
2, 13440, Note_off_c, 0, 76, 0
2, 13440, Note_on_c, 0, 76, 93
2, 13458, Note_off_c, 0, 76, 0
2, 13458, Note_on_c, 0, 75, 93
2, 13470, Note_off_c, 0, 75, 0
2, 13470, Note_on_c, 0, 76, 93
2, 13488, Note_off_c, 0, 76, 0
2, 13488, Note_on_c, 0, 75, 93
2, 13536, Note_off_c, 0, 75, 0
2, 13536, Note_on_c, 0, 73, 93
2, 13584, Note_off_c, 0, 73, 0
2, 13584, Note_on_c, 0, 75, 93
2, 13632, Note_off_c, 0, 75, 0
2, 13632, Note_on_c, 0, 71, 93
2, 13680, Note_off_c, 0, 71, 0
2, 13680, Note_on_c, 0, 73, 93
2, 13728, Note_off_c, 0, 73, 0
2, 13728, Note_on_c, 0, 75, 93
2, 13776, Note_off_c, 0, 75, 0
2, 13776, Note_on_c, 0, 71, 93
2, 13824, Note_off_c, 0, 71, 0
2, 13824, Note_on_c, 0, 76, 93
2, 13920, Note_off_c, 0, 76, 0
2, 13920, Note_on_c, 0, 64, 93
2, 14016, Note_off_c, 0, 64, 0
2, 14016, Note_on_c, 0, 76, 93
2, 14304, Note_off_c, 0, 76, 0
2, 14304, Note_on_c, 0, 64, 93
2, 14400, Note_off_c, 0, 64, 0
2, 14400, Note_on_c, 0, 76, 93
2, 14784, Note_off_c, 0, 76, 0
2, 14784, Note_on_c, 0, 75, 93
2, 14976, Note_off_c, 0, 75, 0
2, 14976, Note_on_c, 0, 76, 93
2, 15216, Note_off_c, 0, 76, 0
2, 15216, Note_on_c, 0, 74, 93
2, 15264, Note_off_c, 0, 74, 0
2, 15264, Note_on_c, 0, 73, 93
2, 15312, Note_off_c, 0, 73, 0
2, 15312, Note_on_c, 0, 71, 93
2, 15360, Note_off_c, 0, 71, 0
2, 15360, Note_on_c, 0, 69, 93
2, 15456, Note_off_c, 0, 69, 0
2, 15456, Note_on_c, 0, 79, 93
2, 15648, Note_off_c, 0, 79, 0
2, 15648, Note_on_c, 0, 77, 93
2, 15696, Note_off_c, 0, 77, 0
2, 15696, Note_on_c, 0, 76, 93
2, 15744, Note_off_c, 0, 76, 0
2, 15744, Note_on_c, 0, 77, 93
2, 16032, Note_off_c, 0, 77, 0
2, 16032, Note_on_c, 0, 76, 93
2, 16080, Note_off_c, 0, 76, 0
2, 16080, Note_on_c, 0, 74, 93
2, 16128, Note_off_c, 0, 74, 0
2, 16128, Note_on_c, 0, 76, 93
2, 16416, Note_off_c, 0, 76, 0
2, 16416, Note_on_c, 0, 78, 93
2, 16464, Note_off_c, 0, 78, 0
2, 16464, Note_on_c, 0, 79, 93
2, 16512, Note_off_c, 0, 79, 0
2, 16512, Note_on_c, 0, 81, 93
2, 16560, Note_off_c, 0, 81, 0
2, 16560, Note_on_c, 0, 83, 93
2, 16608, Note_off_c, 0, 83, 0
2, 16608, Note_on_c, 0, 79, 93
2, 16656, Note_off_c, 0, 79, 0
2, 16656, Note_on_c, 0, 81, 93
2, 16704, Note_off_c, 0, 81, 0
2, 16704, Note_on_c, 0, 78, 93
2, 16800, Note_off_c, 0, 78, 0
2, 16800, Note_on_c, 0, 81, 93
2, 16992, Note_off_c, 0, 81, 0
2, 16992, Note_on_c, 0, 79, 93
2, 17040, Note_off_c, 0, 79, 0
2, 17040, Note_on_c, 0, 78, 93
2, 17088, Note_off_c, 0, 78, 0
2, 17088, Note_on_c, 0, 79, 93
2, 17184, Note_off_c, 0, 79, 0
2, 17184, Note_on_c, 0, 71, 93
2, 17376, Note_off_c, 0, 71, 0
2, 17376, Note_on_c, 0, 69, 93
2, 17424, Note_off_c, 0, 69, 0
2, 17424, Note_on_c, 0, 71, 93
2, 17472, Note_off_c, 0, 71, 0
2, 17472, Note_on_c, 0, 72, 93
2, 17760, Note_off_c, 0, 72, 0
2, 17760, Note_on_c, 0, 71, 93
2, 17856, Note_off_c, 0, 71, 0
2, 17856, Note_on_c, 0, 69, 93
2, 18048, Note_off_c, 0, 69, 0
2, 18048, Note_on_c, 0, 67, 93
2, 18432, Note_off_c, 0, 67, 0
2, 18432, Note_on_c, 0, 78, 93
2, 18456, Note_off_c, 0, 78, 0
2, 18456, Note_on_c, 0, 76, 93
2, 18480, Note_off_c, 0, 76, 0
2, 18480, Note_on_c, 0, 78, 93
2, 18624, Note_off_c, 0, 78, 0
2, 18624, Note_on_c, 0, 79, 93
2, 18648, Note_off_c, 0, 79, 0
2, 18648, Note_on_c, 0, 78, 93
2, 18672, Note_off_c, 0, 78, 0
2, 18672, Note_on_c, 0, 79, 93
2, 18696, Note_off_c, 0, 79, 0
2, 18696, Note_on_c, 0, 78, 93
2, 18720, Note_off_c, 0, 78, 0
2, 18720, Note_on_c, 0, 79, 93
2, 18744, Note_off_c, 0, 79, 0
2, 18744, Note_on_c, 0, 78, 93
2, 18768, Note_off_c, 0, 78, 0
2, 18768, Note_on_c, 0, 76, 93
2, 18792, Note_off_c, 0, 76, 0
2, 18792, Note_on_c, 0, 78, 93
2, 18816, Note_off_c, 0, 78, 0
2, 18816, Note_on_c, 0, 79, 93
2, 18912, Note_off_c, 0, 79, 0
2, 18912, Note_on_c, 0, 74, 93
2, 19008, Note_off_c, 0, 74, 0
2, 19008, Note_on_c, 0, 71, 93
2, 19104, Note_off_c, 0, 71, 0
2, 19104, Note_on_c, 0, 74, 93
2, 19200, Note_off_c, 0, 74, 0
2, 19200, Note_on_c, 0, 72, 93
2, 19296, Note_off_c, 0, 72, 0
2, 19296, Note_on_c, 0, 77, 93
2, 19392, Note_off_c, 0, 77, 0
2, 19392, Note_on_c, 0, 65, 93
2, 19488, Note_off_c, 0, 65, 0
2, 19488, Note_on_c, 0, 76, 93
2, 19584, Note_off_c, 0, 76, 0
2, 19584, Note_on_c, 0, 76, 93
2, 19602, Note_off_c, 0, 76, 0
2, 19602, Note_on_c, 0, 75, 93
2, 19614, Note_off_c, 0, 75, 0
2, 19614, Note_on_c, 0, 76, 93
2, 19632, Note_off_c, 0, 76, 0
2, 19632, Note_on_c, 0, 75, 93
2, 19680, Note_off_c, 0, 75, 0
2, 19680, Note_on_c, 0, 73, 93
2, 19728, Note_off_c, 0, 73, 0
2, 19728, Note_on_c, 0, 75, 93
2, 19776, Note_off_c, 0, 75, 0
2, 19776, Note_on_c, 0, 71, 93
2, 19824, Note_off_c, 0, 71, 0
2, 19824, Note_on_c, 0, 73, 93
2, 19872, Note_off_c, 0, 73, 0
2, 19872, Note_on_c, 0, 75, 93
2, 19920, Note_off_c, 0, 75, 0
2, 19920, Note_on_c, 0, 71, 93
2, 19968, Note_off_c, 0, 71, 0
2, 19968, Note_on_c, 0, 76, 93
2, 20064, Note_off_c, 0, 76, 0
2, 20064, Note_on_c, 0, 64, 93
2, 20160, Note_off_c, 0, 64, 0
2, 20160, Note_on_c, 0, 76, 93
2, 20448, Note_off_c, 0, 76, 0
2, 20448, Note_on_c, 0, 64, 93
2, 20544, Note_off_c, 0, 64, 0
2, 20544, Note_on_c, 0, 76, 93
2, 20928, Note_off_c, 0, 76, 0
2, 20928, Note_on_c, 0, 75, 93
2, 21120, Note_off_c, 0, 75, 0
2, 21120, Note_on_c, 0, 76, 93
2, 21360, Note_off_c, 0, 76, 0
2, 21360, Note_on_c, 0, 74, 93
2, 21408, Note_off_c, 0, 74, 0
2, 21408, Note_on_c, 0, 73, 93
2, 21456, Note_off_c, 0, 73, 0
2, 21456, Note_on_c, 0, 71, 93
2, 21504, Note_off_c, 0, 71, 0
2, 21504, Note_on_c, 0, 69, 93
2, 21600, Note_off_c, 0, 69, 0
2, 21600, Note_on_c, 0, 79, 93
2, 21792, Note_off_c, 0, 79, 0
2, 21792, Note_on_c, 0, 77, 93
2, 21840, Note_off_c, 0, 77, 0
2, 21840, Note_on_c, 0, 76, 93
2, 21888, Note_off_c, 0, 76, 0
2, 21888, Note_on_c, 0, 77, 93
2, 22176, Note_off_c, 0, 77, 0
2, 22176, Note_on_c, 0, 76, 93
2, 22224, Note_off_c, 0, 76, 0
2, 22224, Note_on_c, 0, 74, 93
2, 22272, Note_off_c, 0, 74, 0
2, 22272, Note_on_c, 0, 76, 93
2, 22560, Note_off_c, 0, 76, 0
2, 22560, Note_on_c, 0, 78, 93
2, 22608, Note_off_c, 0, 78, 0
2, 22608, Note_on_c, 0, 79, 93
2, 22656, Note_off_c, 0, 79, 0
2, 22656, Note_on_c, 0, 81, 93
2, 22704, Note_off_c, 0, 81, 0
2, 22704, Note_on_c, 0, 83, 93
2, 22752, Note_off_c, 0, 83, 0
2, 22752, Note_on_c, 0, 79, 93
2, 22800, Note_off_c, 0, 79, 0
2, 22800, Note_on_c, 0, 81, 93
2, 22848, Note_off_c, 0, 81, 0
2, 22848, Note_on_c, 0, 78, 93
2, 22944, Note_off_c, 0, 78, 0
2, 22944, Note_on_c, 0, 81, 93
2, 23136, Note_off_c, 0, 81, 0
2, 23136, Note_on_c, 0, 79, 93
2, 23184, Note_off_c, 0, 79, 0
2, 23184, Note_on_c, 0, 78, 93
2, 23232, Note_off_c, 0, 78, 0
2, 23232, Note_on_c, 0, 79, 93
2, 23328, Note_off_c, 0, 79, 0
2, 23328, Note_on_c, 0, 71, 93
2, 23520, Note_off_c, 0, 71, 0
2, 23520, Note_on_c, 0, 69, 93
2, 23568, Note_off_c, 0, 69, 0
2, 23568, Note_on_c, 0, 71, 93
2, 23616, Note_off_c, 0, 71, 0
2, 23616, Note_on_c, 0, 72, 93
2, 23904, Note_off_c, 0, 72, 0
2, 23904, Note_on_c, 0, 71, 93
2, 24000, Note_off_c, 0, 71, 0
2, 24000, Note_on_c, 0, 69, 93
2, 24192, Note_off_c, 0, 69, 0
2, 24192, Note_on_c, 0, 67, 93
2, 24576, Note_off_c, 0, 67, 0
2, 24576, End_track
3, 0, Start_track
3, 0, Title_t, "Track3"
3, 0, Program_c, 1, 6
3, 0, Control_c, 1, 7, 100
3, 0, Control_c, 1, 10, 69
3, 3072, Note_on_c, 1, 79, 93
3, 3096, Note_off_c, 1, 79, 0
3, 3096, Note_on_c, 1, 78, 93
3, 3120, Note_off_c, 1, 78, 0
3, 3120, Note_on_c, 1, 79, 93
3, 3264, Note_off_c, 1, 79, 0
3, 3264, Note_on_c, 1, 81, 93
3, 3288, Note_off_c, 1, 81, 0
3, 3288, Note_on_c, 1, 79, 93
3, 3312, Note_off_c, 1, 79, 0
3, 3312, Note_on_c, 1, 81, 93
3, 3336, Note_off_c, 1, 81, 0
3, 3336, Note_on_c, 1, 79, 93
3, 3360, Note_off_c, 1, 79, 0
3, 3360, Note_on_c, 1, 81, 93
3, 3384, Note_off_c, 1, 81, 0
3, 3384, Note_on_c, 1, 79, 93
3, 3408, Note_off_c, 1, 79, 0
3, 3408, Note_on_c, 1, 78, 93
3, 3432, Note_off_c, 1, 78, 0
3, 3432, Note_on_c, 1, 79, 93
3, 3456, Note_off_c, 1, 79, 0
3, 3456, Note_on_c, 1, 81, 93
3, 3552, Note_off_c, 1, 81, 0
3, 3552, Note_on_c, 1, 78, 93
3, 3648, Note_off_c, 1, 78, 0
3, 3648, Note_on_c, 1, 74, 93
3, 3744, Note_off_c, 1, 74, 0
3, 3744, Note_on_c, 1, 78, 93
3, 3840, Note_off_c, 1, 78, 0
3, 3840, Note_on_c, 1, 71, 93
3, 3936, Note_off_c, 1, 71, 0
3, 3936, Note_on_c, 1, 76, 93
3, 4032, Note_off_c, 1, 76, 0
3, 4032, Note_on_c, 1, 64, 93
3, 4128, Note_off_c, 1, 64, 0
3, 4128, Note_on_c, 1, 74, 93
3, 4224, Note_off_c, 1, 74, 0
3, 4224, Note_on_c, 1, 74, 93
3, 4242, Note_off_c, 1, 74, 0
3, 4242, Note_on_c, 1, 73, 93
3, 4254, Note_off_c, 1, 73, 0
3, 4254, Note_on_c, 1, 74, 93
3, 4272, Note_off_c, 1, 74, 0
3, 4272, Note_on_c, 1, 73, 93
3, 4320, Note_off_c, 1, 73, 0
3, 4320, Note_on_c, 1, 71, 93
3, 4368, Note_off_c, 1, 71, 0
3, 4368, Note_on_c, 1, 73, 93
3, 4416, Note_off_c, 1, 73, 0
3, 4416, Note_on_c, 1, 69, 93
3, 4464, Note_off_c, 1, 69, 0
3, 4464, Note_on_c, 1, 71, 93
3, 4512, Note_off_c, 1, 71, 0
3, 4512, Note_on_c, 1, 73, 93
3, 4560, Note_off_c, 1, 73, 0
3, 4560, Note_on_c, 1, 69, 93
3, 4608, Note_off_c, 1, 69, 0
3, 4608, Note_on_c, 1, 74, 93
3, 4704, Note_off_c, 1, 74, 0
3, 4800, Note_on_c, 1, 74, 93
3, 5088, Note_off_c, 1, 74, 0
3, 5184, Note_on_c, 1, 74, 93
3, 5568, Note_off_c, 1, 74, 0
3, 5568, Note_on_c, 1, 73, 93
3, 5760, Note_off_c, 1, 73, 0
3, 5760, Note_on_c, 1, 74, 93
3, 6144, Note_off_c, 1, 74, 0
3, 9216, Note_on_c, 1, 79, 93
3, 9240, Note_off_c, 1, 79, 0
3, 9240, Note_on_c, 1, 78, 93
3, 9264, Note_off_c, 1, 78, 0
3, 9264, Note_on_c, 1, 79, 93
3, 9408, Note_off_c, 1, 79, 0
3, 9408, Note_on_c, 1, 81, 93
3, 9432, Note_off_c, 1, 81, 0
3, 9432, Note_on_c, 1, 79, 93
3, 9456, Note_off_c, 1, 79, 0
3, 9456, Note_on_c, 1, 81, 93
3, 9480, Note_off_c, 1, 81, 0
3, 9480, Note_on_c, 1, 79, 93
3, 9504, Note_off_c, 1, 79, 0
3, 9504, Note_on_c, 1, 81, 93
3, 9528, Note_off_c, 1, 81, 0
3, 9528, Note_on_c, 1, 79, 93
3, 9552, Note_off_c, 1, 79, 0
3, 9552, Note_on_c, 1, 78, 93
3, 9576, Note_off_c, 1, 78, 0
3, 9576, Note_on_c, 1, 79, 93
3, 9600, Note_off_c, 1, 79, 0
3, 9600, Note_on_c, 1, 81, 93
3, 9696, Note_off_c, 1, 81, 0
3, 9696, Note_on_c, 1, 78, 93
3, 9792, Note_off_c, 1, 78, 0
3, 9792, Note_on_c, 1, 74, 93
3, 9888, Note_off_c, 1, 74, 0
3, 9888, Note_on_c, 1, 78, 93
3, 9984, Note_off_c, 1, 78, 0
3, 9984, Note_on_c, 1, 71, 93
3, 10080, Note_off_c, 1, 71, 0
3, 10080, Note_on_c, 1, 76, 93
3, 10176, Note_off_c, 1, 76, 0
3, 10176, Note_on_c, 1, 64, 93
3, 10272, Note_off_c, 1, 64, 0
3, 10272, Note_on_c, 1, 74, 93
3, 10368, Note_off_c, 1, 74, 0
3, 10368, Note_on_c, 1, 74, 93
3, 10386, Note_off_c, 1, 74, 0
3, 10386, Note_on_c, 1, 73, 93
3, 10398, Note_off_c, 1, 73, 0
3, 10398, Note_on_c, 1, 74, 93
3, 10416, Note_off_c, 1, 74, 0
3, 10416, Note_on_c, 1, 73, 93
3, 10464, Note_off_c, 1, 73, 0
3, 10464, Note_on_c, 1, 71, 93
3, 10512, Note_off_c, 1, 71, 0
3, 10512, Note_on_c, 1, 73, 93
3, 10560, Note_off_c, 1, 73, 0
3, 10560, Note_on_c, 1, 69, 93
3, 10608, Note_off_c, 1, 69, 0
3, 10608, Note_on_c, 1, 71, 93
3, 10656, Note_off_c, 1, 71, 0
3, 10656, Note_on_c, 1, 73, 93
3, 10704, Note_off_c, 1, 73, 0
3, 10704, Note_on_c, 1, 69, 93
3, 10752, Note_off_c, 1, 69, 0
3, 10752, Note_on_c, 1, 74, 93
3, 10848, Note_off_c, 1, 74, 0
3, 10944, Note_on_c, 1, 74, 93
3, 11232, Note_off_c, 1, 74, 0
3, 11328, Note_on_c, 1, 74, 93
3, 11712, Note_off_c, 1, 74, 0
3, 11712, Note_on_c, 1, 73, 93
3, 11904, Note_off_c, 1, 73, 0
3, 11904, Note_on_c, 1, 74, 93
3, 12288, Note_off_c, 1, 74, 0
3, 13824, Note_on_c, 1, 71, 93
3, 14016, Note_off_c, 1, 71, 0
3, 14016, Note_on_c, 1, 72, 93
3, 14040, Note_off_c, 1, 72, 0
3, 14040, Note_on_c, 1, 71, 93
3, 14064, Note_off_c, 1, 71, 0
3, 14064, Note_on_c, 1, 72, 93
3, 14088, Note_off_c, 1, 72, 0
3, 14088, Note_on_c, 1, 71, 93
3, 14112, Note_off_c, 1, 71, 0
3, 14112, Note_on_c, 1, 72, 93
3, 14136, Note_off_c, 1, 72, 0
3, 14136, Note_on_c, 1, 71, 93
3, 14160, Note_off_c, 1, 71, 0
3, 14160, Note_on_c, 1, 69, 93
3, 14184, Note_off_c, 1, 69, 0
3, 14184, Note_on_c, 1, 71, 93
3, 14208, Note_off_c, 1, 71, 0
3, 14208, Note_on_c, 1, 72, 93
3, 14304, Note_off_c, 1, 72, 0
3, 14304, Note_on_c, 1, 69, 93
3, 14400, Note_off_c, 1, 69, 0
3, 14400, Note_on_c, 1, 66, 93
3, 14496, Note_off_c, 1, 66, 0
3, 14496, Note_on_c, 1, 69, 93
3, 14592, Note_off_c, 1, 69, 0
3, 14592, Note_on_c, 1, 66, 93
3, 14688, Note_off_c, 1, 66, 0
3, 14688, Note_on_c, 1, 71, 93
3, 14784, Note_off_c, 1, 71, 0
3, 14784, Note_on_c, 1, 59, 93
3, 14880, Note_off_c, 1, 59, 0
3, 14880, Note_on_c, 1, 69, 93
3, 14976, Note_off_c, 1, 69, 0
3, 14976, Note_on_c, 1, 69, 93
3, 14994, Note_off_c, 1, 69, 0
3, 14994, Note_on_c, 1, 67, 93
3, 15006, Note_off_c, 1, 67, 0
3, 15006, Note_on_c, 1, 69, 93
3, 15024, Note_off_c, 1, 69, 0
3, 15024, Note_on_c, 1, 67, 93
3, 15072, Note_off_c, 1, 67, 0
3, 15072, Note_on_c, 1, 66, 93
3, 15120, Note_off_c, 1, 66, 0
3, 15120, Note_on_c, 1, 67, 93
3, 15168, Note_off_c, 1, 67, 0
3, 15168, Note_on_c, 1, 64, 93
3, 15456, Note_off_c, 1, 64, 0
3, 15552, Note_on_c, 1, 69, 93
3, 15840, Note_off_c, 1, 69, 0
3, 15840, Note_on_c, 1, 74, 93
3, 15936, Note_off_c, 1, 74, 0
3, 15936, Note_on_c, 1, 71, 93
3, 16032, Note_off_c, 1, 71, 0
3, 16032, Note_on_c, 1, 67, 93
3, 16224, Note_off_c, 1, 67, 0
3, 16224, Note_on_c, 1, 72, 93
3, 16272, Note_off_c, 1, 72, 0
3, 16272, Note_on_c, 1, 71, 93
3, 16320, Note_off_c, 1, 71, 0
3, 16320, Note_on_c, 1, 72, 93
3, 16800, Note_off_c, 1, 72, 0
3, 16800, Note_on_c, 1, 72, 93
3, 16896, Note_off_c, 1, 72, 0
3, 16896, Note_on_c, 1, 71, 93
3, 17088, Note_off_c, 1, 71, 0
3, 17184, Note_on_c, 1, 67, 93
3, 17280, Note_off_c, 1, 67, 0
3, 17280, Note_on_c, 1, 64, 93
3, 17568, Note_off_c, 1, 64, 0
3, 17568, Note_on_c, 1, 69, 93
3, 17616, Note_off_c, 1, 69, 0
3, 17616, Note_on_c, 1, 67, 93
3, 17664, Note_off_c, 1, 67, 0
3, 17664, Note_on_c, 1, 66, 93
3, 17760, Note_off_c, 1, 66, 0
3, 17760, Note_on_c, 1, 67, 93
3, 17952, Note_off_c, 1, 67, 0
3, 17952, Note_on_c, 1, 66, 93
3, 18048, Note_off_c, 1, 66, 0
3, 18048, Note_on_c, 1, 67, 93
3, 18096, Note_off_c, 1, 67, 0
3, 18096, Note_on_c, 1, 62, 93
3, 18144, Note_off_c, 1, 62, 0
3, 18144, Note_on_c, 1, 60, 93
3, 18192, Note_off_c, 1, 60, 0
3, 18192, Note_on_c, 1, 62, 93
3, 18240, Note_off_c, 1, 62, 0
3, 18240, Note_on_c, 1, 59, 93
3, 18432, Note_off_c, 1, 59, 0
3, 19968, Note_on_c, 1, 71, 93
3, 20160, Note_off_c, 1, 71, 0
3, 20160, Note_on_c, 1, 72, 93
3, 20184, Note_off_c, 1, 72, 0
3, 20184, Note_on_c, 1, 71, 93
3, 20208, Note_off_c, 1, 71, 0
3, 20208, Note_on_c, 1, 72, 93
3, 20232, Note_off_c, 1, 72, 0
3, 20232, Note_on_c, 1, 71, 93
3, 20256, Note_off_c, 1, 71, 0
3, 20256, Note_on_c, 1, 72, 93
3, 20280, Note_off_c, 1, 72, 0
3, 20280, Note_on_c, 1, 71, 93
3, 20304, Note_off_c, 1, 71, 0
3, 20304, Note_on_c, 1, 69, 93
3, 20328, Note_off_c, 1, 69, 0
3, 20328, Note_on_c, 1, 71, 93
3, 20352, Note_off_c, 1, 71, 0
3, 20352, Note_on_c, 1, 72, 93
3, 20448, Note_off_c, 1, 72, 0
3, 20448, Note_on_c, 1, 69, 93
3, 20544, Note_off_c, 1, 69, 0
3, 20544, Note_on_c, 1, 66, 93
3, 20640, Note_off_c, 1, 66, 0
3, 20640, Note_on_c, 1, 69, 93
3, 20736, Note_off_c, 1, 69, 0
3, 20736, Note_on_c, 1, 66, 93
3, 20832, Note_off_c, 1, 66, 0
3, 20832, Note_on_c, 1, 71, 93
3, 20928, Note_off_c, 1, 71, 0
3, 20928, Note_on_c, 1, 59, 93
3, 21024, Note_off_c, 1, 59, 0
3, 21024, Note_on_c, 1, 69, 93
3, 21120, Note_off_c, 1, 69, 0
3, 21120, Note_on_c, 1, 69, 93
3, 21138, Note_off_c, 1, 69, 0
3, 21138, Note_on_c, 1, 67, 93
3, 21150, Note_off_c, 1, 67, 0
3, 21150, Note_on_c, 1, 69, 93
3, 21168, Note_off_c, 1, 69, 0
3, 21168, Note_on_c, 1, 67, 93
3, 21216, Note_off_c, 1, 67, 0
3, 21216, Note_on_c, 1, 66, 93
3, 21264, Note_off_c, 1, 66, 0
3, 21264, Note_on_c, 1, 67, 93
3, 21312, Note_off_c, 1, 67, 0
3, 21312, Note_on_c, 1, 64, 93
3, 21600, Note_off_c, 1, 64, 0
3, 21696, Note_on_c, 1, 69, 93
3, 21984, Note_off_c, 1, 69, 0
3, 21984, Note_on_c, 1, 74, 93
3, 22080, Note_off_c, 1, 74, 0
3, 22080, Note_on_c, 1, 71, 93
3, 22176, Note_off_c, 1, 71, 0
3, 22176, Note_on_c, 1, 67, 93
3, 22368, Note_off_c, 1, 67, 0
3, 22368, Note_on_c, 1, 72, 93
3, 22416, Note_off_c, 1, 72, 0
3, 22416, Note_on_c, 1, 71, 93
3, 22464, Note_off_c, 1, 71, 0
3, 22464, Note_on_c, 1, 72, 93
3, 22944, Note_off_c, 1, 72, 0
3, 22944, Note_on_c, 1, 72, 93
3, 23040, Note_off_c, 1, 72, 0
3, 23040, Note_on_c, 1, 71, 93
3, 23232, Note_off_c, 1, 71, 0
3, 23328, Note_on_c, 1, 67, 93
3, 23424, Note_off_c, 1, 67, 0
3, 23424, Note_on_c, 1, 64, 93
3, 23712, Note_off_c, 1, 64, 0
3, 23712, Note_on_c, 1, 69, 93
3, 23760, Note_off_c, 1, 69, 0
3, 23760, Note_on_c, 1, 67, 93
3, 23808, Note_off_c, 1, 67, 0
3, 23808, Note_on_c, 1, 66, 93
3, 23904, Note_off_c, 1, 66, 0
3, 23904, Note_on_c, 1, 67, 93
3, 24096, Note_off_c, 1, 67, 0
3, 24096, Note_on_c, 1, 66, 93
3, 24192, Note_off_c, 1, 66, 0
3, 24192, Note_on_c, 1, 67, 93
3, 24240, Note_off_c, 1, 67, 0
3, 24240, Note_on_c, 1, 62, 93
3, 24288, Note_off_c, 1, 62, 0
3, 24288, Note_on_c, 1, 60, 93
3, 24336, Note_off_c, 1, 60, 0
3, 24336, Note_on_c, 1, 62, 93
3, 24384, Note_off_c, 1, 62, 0
3, 24384, Note_on_c, 1, 59, 93
3, 24576, Note_off_c, 1, 59, 0
3, 24576, End_track
4, 0, Start_track
4, 0, Title_t, "Track4"
4, 0, Program_c, 2, 6
4, 0, Control_c, 2, 7, 100
4, 0, Control_c, 2, 10, 59
4, 1536, Note_on_c, 2, 62, 93
4, 1560, Note_off_c, 2, 62, 0
4, 1560, Note_on_c, 2, 60, 93
4, 1584, Note_off_c, 2, 60, 0
4, 1584, Note_on_c, 2, 62, 93
4, 1728, Note_off_c, 2, 62, 0
4, 1728, Note_on_c, 2, 64, 93
4, 1752, Note_off_c, 2, 64, 0
4, 1752, Note_on_c, 2, 62, 93
4, 1776, Note_off_c, 2, 62, 0
4, 1776, Note_on_c, 2, 64, 93
4, 1800, Note_off_c, 2, 64, 0
4, 1800, Note_on_c, 2, 62, 93
4, 1824, Note_off_c, 2, 62, 0
4, 1824, Note_on_c, 2, 64, 93
4, 1848, Note_off_c, 2, 64, 0
4, 1848, Note_on_c, 2, 62, 93
4, 1872, Note_off_c, 2, 62, 0
4, 1872, Note_on_c, 2, 60, 93
4, 1896, Note_off_c, 2, 60, 0
4, 1896, Note_on_c, 2, 62, 93
4, 1920, Note_off_c, 2, 62, 0
4, 1920, Note_on_c, 2, 64, 93
4, 2016, Note_off_c, 2, 64, 0
4, 2016, Note_on_c, 2, 60, 93
4, 2112, Note_off_c, 2, 60, 0
4, 2112, Note_on_c, 2, 57, 93
4, 2208, Note_off_c, 2, 57, 0
4, 2208, Note_on_c, 2, 60, 93
4, 2304, Note_off_c, 2, 60, 0
4, 2304, Note_on_c, 2, 57, 93
4, 2400, Note_off_c, 2, 57, 0
4, 2400, Note_on_c, 2, 62, 93
4, 2496, Note_off_c, 2, 62, 0
4, 2496, Note_on_c, 2, 50, 93
4, 2592, Note_off_c, 2, 50, 0
4, 2592, Note_on_c, 2, 60, 93
4, 2688, Note_off_c, 2, 60, 0
4, 2688, Note_on_c, 2, 60, 93
4, 2706, Note_off_c, 2, 60, 0
4, 2706, Note_on_c, 2, 59, 93
4, 2718, Note_off_c, 2, 59, 0
4, 2718, Note_on_c, 2, 60, 93
4, 2736, Note_off_c, 2, 60, 0
4, 2736, Note_on_c, 2, 59, 93
4, 2784, Note_off_c, 2, 59, 0
4, 2784, Note_on_c, 2, 57, 93
4, 2832, Note_off_c, 2, 57, 0
4, 2832, Note_on_c, 2, 59, 93
4, 2880, Note_off_c, 2, 59, 0
4, 2880, Note_on_c, 2, 55, 93
4, 2928, Note_off_c, 2, 55, 0
4, 2928, Note_on_c, 2, 59, 93
4, 2976, Note_off_c, 2, 59, 0
4, 2976, Note_on_c, 2, 57, 93
4, 3024, Note_off_c, 2, 57, 0
4, 3024, Note_on_c, 2, 60, 93
4, 3072, Note_off_c, 2, 60, 0
4, 3072, Note_on_c, 2, 59, 93
4, 3120, Note_off_c, 2, 59, 0
4, 3120, Note_on_c, 2, 57, 93
4, 3168, Note_off_c, 2, 57, 0
4, 3168, Note_on_c, 2, 59, 93
4, 3264, Note_off_c, 2, 59, 0
4, 3264, Note_on_c, 2, 64, 93
4, 3552, Note_off_c, 2, 64, 0
4, 3552, Note_on_c, 2, 57, 93
4, 3648, Note_off_c, 2, 57, 0
4, 3648, Note_on_c, 2, 62, 93
4, 3936, Note_off_c, 2, 62, 0
4, 3936, Note_on_c, 2, 59, 93
4, 4032, Note_off_c, 2, 59, 0
4, 4032, Note_on_c, 2, 64, 93
4, 4320, Note_off_c, 2, 64, 0
4, 4320, Note_on_c, 2, 62, 93
4, 4416, Note_off_c, 2, 62, 0
4, 4416, Note_on_c, 2, 61, 93
4, 4512, Note_off_c, 2, 61, 0
4, 4512, Note_on_c, 2, 64, 93
4, 4608, Note_off_c, 2, 64, 0
4, 4608, Note_on_c, 2, 57, 93
4, 4656, Note_off_c, 2, 57, 0
4, 4656, Note_on_c, 2, 59, 93
4, 4704, Note_off_c, 2, 59, 0
4, 4704, Note_on_c, 2, 57, 93
4, 4752, Note_off_c, 2, 57, 0
4, 4752, Note_on_c, 2, 55, 93
4, 4800, Note_off_c, 2, 55, 0
4, 4800, Note_on_c, 2, 54, 93
4, 4992, Note_off_c, 2, 54, 0
4, 4992, Note_on_c, 2, 55, 93
4, 5184, Note_off_c, 2, 55, 0
4, 5472, Note_on_c, 2, 52, 93
4, 5568, Note_off_c, 2, 52, 0
4, 5568, Note_on_c, 2, 57, 93
4, 5808, Note_off_c, 2, 57, 0
4, 5808, Note_on_c, 2, 57, 93
4, 5856, Note_off_c, 2, 57, 0
4, 5856, Note_on_c, 2, 55, 93
4, 5904, Note_off_c, 2, 55, 0
4, 5904, Note_on_c, 2, 57, 93
4, 5952, Note_off_c, 2, 57, 0
4, 5952, Note_on_c, 2, 54, 93
4, 6144, Note_off_c, 2, 54, 0
4, 7680, Note_on_c, 2, 62, 93
4, 7704, Note_off_c, 2, 62, 0
4, 7704, Note_on_c, 2, 60, 93
4, 7728, Note_off_c, 2, 60, 0
4, 7728, Note_on_c, 2, 62, 93
4, 7872, Note_off_c, 2, 62, 0
4, 7872, Note_on_c, 2, 64, 93
4, 7896, Note_off_c, 2, 64, 0
4, 7896, Note_on_c, 2, 62, 93
4, 7920, Note_off_c, 2, 62, 0
4, 7920, Note_on_c, 2, 64, 93
4, 7944, Note_off_c, 2, 64, 0
4, 7944, Note_on_c, 2, 62, 93
4, 7968, Note_off_c, 2, 62, 0
4, 7968, Note_on_c, 2, 64, 93
4, 7992, Note_off_c, 2, 64, 0
4, 7992, Note_on_c, 2, 62, 93
4, 8016, Note_off_c, 2, 62, 0
4, 8016, Note_on_c, 2, 60, 93
4, 8040, Note_off_c, 2, 60, 0
4, 8040, Note_on_c, 2, 62, 93
4, 8064, Note_off_c, 2, 62, 0
4, 8064, Note_on_c, 2, 64, 93
4, 8160, Note_off_c, 2, 64, 0
4, 8160, Note_on_c, 2, 60, 93
4, 8256, Note_off_c, 2, 60, 0
4, 8256, Note_on_c, 2, 57, 93
4, 8352, Note_off_c, 2, 57, 0
4, 8352, Note_on_c, 2, 60, 93
4, 8448, Note_off_c, 2, 60, 0
4, 8448, Note_on_c, 2, 57, 93
4, 8544, Note_off_c, 2, 57, 0
4, 8544, Note_on_c, 2, 62, 93
4, 8640, Note_off_c, 2, 62, 0
4, 8640, Note_on_c, 2, 50, 93
4, 8736, Note_off_c, 2, 50, 0
4, 8736, Note_on_c, 2, 60, 93
4, 8832, Note_off_c, 2, 60, 0
4, 8832, Note_on_c, 2, 60, 93
4, 8850, Note_off_c, 2, 60, 0
4, 8850, Note_on_c, 2, 59, 93
4, 8862, Note_off_c, 2, 59, 0
4, 8862, Note_on_c, 2, 60, 93
4, 8880, Note_off_c, 2, 60, 0
4, 8880, Note_on_c, 2, 59, 93
4, 8928, Note_off_c, 2, 59, 0
4, 8928, Note_on_c, 2, 57, 93
4, 8976, Note_off_c, 2, 57, 0
4, 8976, Note_on_c, 2, 59, 93
4, 9024, Note_off_c, 2, 59, 0
4, 9024, Note_on_c, 2, 55, 93
4, 9072, Note_off_c, 2, 55, 0
4, 9072, Note_on_c, 2, 59, 93
4, 9120, Note_off_c, 2, 59, 0
4, 9120, Note_on_c, 2, 57, 93
4, 9168, Note_off_c, 2, 57, 0
4, 9168, Note_on_c, 2, 60, 93
4, 9216, Note_off_c, 2, 60, 0
4, 9216, Note_on_c, 2, 59, 93
4, 9264, Note_off_c, 2, 59, 0
4, 9264, Note_on_c, 2, 57, 93
4, 9312, Note_off_c, 2, 57, 0
4, 9312, Note_on_c, 2, 59, 93
4, 9408, Note_off_c, 2, 59, 0
4, 9408, Note_on_c, 2, 64, 93
4, 9696, Note_off_c, 2, 64, 0
4, 9696, Note_on_c, 2, 57, 93
4, 9792, Note_off_c, 2, 57, 0
4, 9792, Note_on_c, 2, 62, 93
4, 10080, Note_off_c, 2, 62, 0
4, 10080, Note_on_c, 2, 59, 93
4, 10176, Note_off_c, 2, 59, 0
4, 10176, Note_on_c, 2, 64, 93
4, 10464, Note_off_c, 2, 64, 0
4, 10464, Note_on_c, 2, 62, 93
4, 10560, Note_off_c, 2, 62, 0
4, 10560, Note_on_c, 2, 61, 93
4, 10656, Note_off_c, 2, 61, 0
4, 10656, Note_on_c, 2, 64, 93
4, 10752, Note_off_c, 2, 64, 0
4, 10752, Note_on_c, 2, 57, 93
4, 10800, Note_off_c, 2, 57, 0
4, 10800, Note_on_c, 2, 59, 93
4, 10848, Note_off_c, 2, 59, 0
4, 10848, Note_on_c, 2, 57, 93
4, 10896, Note_off_c, 2, 57, 0
4, 10896, Note_on_c, 2, 55, 93
4, 10944, Note_off_c, 2, 55, 0
4, 10944, Note_on_c, 2, 54, 93
4, 11136, Note_off_c, 2, 54, 0
4, 11136, Note_on_c, 2, 55, 93
4, 11328, Note_off_c, 2, 55, 0
4, 11616, Note_on_c, 2, 52, 93
4, 11712, Note_off_c, 2, 52, 0
4, 11712, Note_on_c, 2, 57, 93
4, 11952, Note_off_c, 2, 57, 0
4, 11952, Note_on_c, 2, 57, 93
4, 12000, Note_off_c, 2, 57, 0
4, 12000, Note_on_c, 2, 55, 93
4, 12048, Note_off_c, 2, 55, 0
4, 12048, Note_on_c, 2, 57, 93
4, 12096, Note_off_c, 2, 57, 0
4, 12096, Note_on_c, 2, 54, 93
4, 12288, Note_off_c, 2, 54, 0
4, 16896, Note_on_c, 2, 62, 93
4, 17088, Note_off_c, 2, 62, 0
4, 17088, Note_on_c, 2, 64, 93
4, 17112, Note_off_c, 2, 64, 0
4, 17112, Note_on_c, 2, 62, 93
4, 17136, Note_off_c, 2, 62, 0
4, 17136, Note_on_c, 2, 64, 93
4, 17160, Note_off_c, 2, 64, 0
4, 17160, Note_on_c, 2, 62, 93
4, 17184, Note_off_c, 2, 62, 0
4, 17184, Note_on_c, 2, 64, 93
4, 17208, Note_off_c, 2, 64, 0
4, 17208, Note_on_c, 2, 62, 93
4, 17232, Note_off_c, 2, 62, 0
4, 17232, Note_on_c, 2, 60, 93
4, 17256, Note_off_c, 2, 60, 0
4, 17256, Note_on_c, 2, 62, 93
4, 17280, Note_off_c, 2, 62, 0
4, 17280, Note_on_c, 2, 64, 93
4, 17376, Note_off_c, 2, 64, 0
4, 17376, Note_on_c, 2, 60, 93
4, 17472, Note_off_c, 2, 60, 0
4, 17472, Note_on_c, 2, 57, 93
4, 17568, Note_off_c, 2, 57, 0
4, 17568, Note_on_c, 2, 60, 93
4, 17664, Note_off_c, 2, 60, 0
4, 17664, Note_on_c, 2, 57, 93
4, 17760, Note_off_c, 2, 57, 0
4, 17760, Note_on_c, 2, 62, 93
4, 17856, Note_off_c, 2, 62, 0
4, 17856, Note_on_c, 2, 50, 93
4, 17952, Note_off_c, 2, 50, 0
4, 17952, Note_on_c, 2, 60, 93
4, 18048, Note_off_c, 2, 60, 0
4, 18048, Note_on_c, 2, 60, 93
4, 18066, Note_off_c, 2, 60, 0
4, 18066, Note_on_c, 2, 59, 93
4, 18078, Note_off_c, 2, 59, 0
4, 18078, Note_on_c, 2, 60, 93
4, 18096, Note_off_c, 2, 60, 0
4, 18096, Note_on_c, 2, 59, 93
4, 18144, Note_off_c, 2, 59, 0
4, 18144, Note_on_c, 2, 57, 93
4, 18192, Note_off_c, 2, 57, 0
4, 18192, Note_on_c, 2, 59, 93
4, 18240, Note_off_c, 2, 59, 0
4, 18240, Note_on_c, 2, 55, 93
4, 18432, Note_off_c, 2, 55, 0
4, 23040, Note_on_c, 2, 62, 93
4, 23232, Note_off_c, 2, 62, 0
4, 23232, Note_on_c, 2, 64, 93
4, 23256, Note_off_c, 2, 64, 0
4, 23256, Note_on_c, 2, 62, 93
4, 23280, Note_off_c, 2, 62, 0
4, 23280, Note_on_c, 2, 64, 93
4, 23304, Note_off_c, 2, 64, 0
4, 23304, Note_on_c, 2, 62, 93
4, 23328, Note_off_c, 2, 62, 0
4, 23328, Note_on_c, 2, 64, 93
4, 23352, Note_off_c, 2, 64, 0
4, 23352, Note_on_c, 2, 62, 93
4, 23376, Note_off_c, 2, 62, 0
4, 23376, Note_on_c, 2, 60, 93
4, 23400, Note_off_c, 2, 60, 0
4, 23400, Note_on_c, 2, 62, 93
4, 23424, Note_off_c, 2, 62, 0
4, 23424, Note_on_c, 2, 64, 93
4, 23520, Note_off_c, 2, 64, 0
4, 23520, Note_on_c, 2, 60, 93
4, 23616, Note_off_c, 2, 60, 0
4, 23616, Note_on_c, 2, 57, 93
4, 23712, Note_off_c, 2, 57, 0
4, 23712, Note_on_c, 2, 60, 93
4, 23808, Note_off_c, 2, 60, 0
4, 23808, Note_on_c, 2, 57, 93
4, 23904, Note_off_c, 2, 57, 0
4, 23904, Note_on_c, 2, 62, 93
4, 24000, Note_off_c, 2, 62, 0
4, 24000, Note_on_c, 2, 50, 93
4, 24096, Note_off_c, 2, 50, 0
4, 24096, Note_on_c, 2, 60, 93
4, 24192, Note_off_c, 2, 60, 0
4, 24192, Note_on_c, 2, 60, 93
4, 24210, Note_off_c, 2, 60, 0
4, 24210, Note_on_c, 2, 59, 93
4, 24222, Note_off_c, 2, 59, 0
4, 24222, Note_on_c, 2, 60, 93
4, 24240, Note_off_c, 2, 60, 0
4, 24240, Note_on_c, 2, 59, 93
4, 24288, Note_off_c, 2, 59, 0
4, 24288, Note_on_c, 2, 57, 93
4, 24336, Note_off_c, 2, 57, 0
4, 24336, Note_on_c, 2, 59, 93
4, 24384, Note_off_c, 2, 59, 0
4, 24384, Note_on_c, 2, 55, 93
4, 24576, Note_off_c, 2, 55, 0
4, 24576, End_track
5, 0, Start_track
5, 0, Title_t, "Track5"
5, 0, Program_c, 3, 6
5, 0, Control_c, 3, 7, 100
5, 0, Control_c, 3, 10, 49
5, 0, Note_on_c, 3, 55, 93
5, 24, Note_off_c, 3, 55, 0
5, 24, Note_on_c, 3, 54, 93
5, 48, Note_off_c, 3, 54, 0
5, 48, Note_on_c, 3, 55, 93
5, 192, Note_off_c, 3, 55, 0
5, 192, Note_on_c, 3, 57, 93
5, 216, Note_off_c, 3, 57, 0
5, 216, Note_on_c, 3, 55, 93
5, 240, Note_off_c, 3, 55, 0
5, 240, Note_on_c, 3, 57, 93
5, 264, Note_off_c, 3, 57, 0
5, 264, Note_on_c, 3, 55, 93
5, 288, Note_off_c, 3, 55, 0
5, 288, Note_on_c, 3, 57, 93
5, 312, Note_off_c, 3, 57, 0
5, 312, Note_on_c, 3, 55, 93
5, 336, Note_off_c, 3, 55, 0
5, 336, Note_on_c, 3, 54, 93
5, 360, Note_off_c, 3, 54, 0
5, 360, Note_on_c, 3, 55, 93
5, 384, Note_off_c, 3, 55, 0
5, 384, Note_on_c, 3, 57, 93
5, 480, Note_off_c, 3, 57, 0
5, 480, Note_on_c, 3, 54, 93
5, 576, Note_off_c, 3, 54, 0
5, 576, Note_on_c, 3, 50, 93
5, 672, Note_off_c, 3, 50, 0
5, 672, Note_on_c, 3, 54, 93
5, 768, Note_off_c, 3, 54, 0
5, 768, Note_on_c, 3, 52, 93
5, 864, Note_off_c, 3, 52, 0
5, 864, Note_on_c, 3, 57, 93
5, 960, Note_off_c, 3, 57, 0
5, 960, Note_on_c, 3, 45, 93
5, 1056, Note_off_c, 3, 45, 0
5, 1056, Note_on_c, 3, 55, 93
5, 1152, Note_off_c, 3, 55, 0
5, 1152, Note_on_c, 3, 55, 93
5, 1170, Note_off_c, 3, 55, 0
5, 1170, Note_on_c, 3, 54, 93
5, 1182, Note_off_c, 3, 54, 0
5, 1182, Note_on_c, 3, 55, 93
5, 1200, Note_off_c, 3, 55, 0
5, 1200, Note_on_c, 3, 54, 93
5, 1248, Note_off_c, 3, 54, 0
5, 1248, Note_on_c, 3, 52, 93
5, 1296, Note_off_c, 3, 52, 0
5, 1296, Note_on_c, 3, 54, 93
5, 1344, Note_off_c, 3, 54, 0
5, 1344, Note_on_c, 3, 50, 93
5, 1392, Note_off_c, 3, 50, 0
5, 1392, Note_on_c, 3, 52, 93
5, 1440, Note_off_c, 3, 52, 0
5, 1440, Note_on_c, 3, 48, 93
5, 1488, Note_off_c, 3, 48, 0
5, 1488, Note_on_c, 3, 50, 93
5, 1536, Note_off_c, 3, 50, 0
5, 1536, Note_on_c, 3, 47, 93
5, 1584, Note_off_c, 3, 47, 0
5, 1584, Note_on_c, 3, 50, 93
5, 1632, Note_off_c, 3, 50, 0
5, 1632, Note_on_c, 3, 52, 93
5, 1680, Note_off_c, 3, 52, 0
5, 1680, Note_on_c, 3, 54, 93
5, 1728, Note_off_c, 3, 54, 0
5, 1728, Note_on_c, 3, 55, 93
5, 1824, Note_off_c, 3, 55, 0
5, 1824, Note_on_c, 3, 47, 93
5, 1920, Note_off_c, 3, 47, 0
5, 1920, Note_on_c, 3, 48, 93
5, 2112, Note_off_c, 3, 48, 0
5, 2208, Note_on_c, 3, 45, 93
5, 2304, Note_off_c, 3, 45, 0
5, 2304, Note_on_c, 3, 42, 93
5, 2496, Note_off_c, 3, 42, 0
5, 2592, Note_on_c, 3, 38, 93
5, 2688, Note_off_c, 3, 38, 0
5, 2688, Note_on_c, 3, 43, 93
5, 2784, Note_off_c, 3, 43, 0
5, 2784, Note_on_c, 3, 50, 93
5, 2880, Note_off_c, 3, 50, 0
5, 2880, Note_on_c, 3, 47, 93
5, 2976, Note_off_c, 3, 47, 0
5, 2976, Note_on_c, 3, 50, 93
5, 3072, Note_off_c, 3, 50, 0
5, 3072, Note_on_c, 3, 55, 93
5, 3264, Note_off_c, 3, 55, 0
5, 3360, Note_on_c, 3, 52, 93
5, 3456, Note_off_c, 3, 52, 0
5, 3456, Note_on_c, 3, 54, 93
5, 3648, Note_off_c, 3, 54, 0
5, 3744, Note_on_c, 3, 50, 93
5, 3840, Note_off_c, 3, 50, 0
5, 3840, Note_on_c, 3, 55, 93
5, 4032, Note_off_c, 3, 55, 0
5, 4128, Note_on_c, 3, 52, 93
5, 4224, Note_off_c, 3, 52, 0
5, 4224, Note_on_c, 3, 57, 93
5, 4416, Note_off_c, 3, 57, 0
5, 4512, Note_on_c, 3, 55, 93
5, 4608, Note_off_c, 3, 55, 0
5, 4608, Note_on_c, 3, 54, 93
5, 4800, Note_off_c, 3, 54, 0
5, 4896, Note_on_c, 3, 50, 93
5, 4992, Note_off_c, 3, 50, 0
5, 4992, Note_on_c, 3, 43, 93
5, 5088, Note_off_c, 3, 43, 0
5, 5088, Note_on_c, 3, 47, 93
5, 5184, Note_off_c, 3, 47, 0
5, 5184, Note_on_c, 3, 43, 93
5, 5280, Note_off_c, 3, 43, 0
5, 5280, Note_on_c, 3, 40, 93
5, 5376, Note_off_c, 3, 40, 0
5, 5376, Note_on_c, 3, 45, 93
5, 5568, Note_off_c, 3, 45, 0
5, 5664, Note_on_c, 3, 45, 93
5, 5760, Note_off_c, 3, 45, 0
5, 5760, Note_on_c, 3, 50, 93
5, 6144, Note_off_c, 3, 50, 0
5, 6144, Note_on_c, 3, 55, 93
5, 6168, Note_off_c, 3, 55, 0
5, 6168, Note_on_c, 3, 54, 93
5, 6192, Note_off_c, 3, 54, 0
5, 6192, Note_on_c, 3, 55, 93
5, 6336, Note_off_c, 3, 55, 0
5, 6336, Note_on_c, 3, 57, 93
5, 6360, Note_off_c, 3, 57, 0
5, 6360, Note_on_c, 3, 55, 93
5, 6384, Note_off_c, 3, 55, 0
5, 6384, Note_on_c, 3, 57, 93
5, 6408, Note_off_c, 3, 57, 0
5, 6408, Note_on_c, 3, 55, 93
5, 6432, Note_off_c, 3, 55, 0
5, 6432, Note_on_c, 3, 57, 93
5, 6456, Note_off_c, 3, 57, 0
5, 6456, Note_on_c, 3, 55, 93
5, 6480, Note_off_c, 3, 55, 0
5, 6480, Note_on_c, 3, 54, 93
5, 6504, Note_off_c, 3, 54, 0
5, 6504, Note_on_c, 3, 55, 93
5, 6528, Note_off_c, 3, 55, 0
5, 6528, Note_on_c, 3, 57, 93
5, 6624, Note_off_c, 3, 57, 0
5, 6624, Note_on_c, 3, 54, 93
5, 6720, Note_off_c, 3, 54, 0
5, 6720, Note_on_c, 3, 50, 93
5, 6816, Note_off_c, 3, 50, 0
5, 6816, Note_on_c, 3, 54, 93
5, 6912, Note_off_c, 3, 54, 0
5, 6912, Note_on_c, 3, 52, 93
5, 7008, Note_off_c, 3, 52, 0
5, 7008, Note_on_c, 3, 57, 93
5, 7104, Note_off_c, 3, 57, 0
5, 7104, Note_on_c, 3, 45, 93
5, 7200, Note_off_c, 3, 45, 0
5, 7200, Note_on_c, 3, 55, 93
5, 7296, Note_off_c, 3, 55, 0
5, 7296, Note_on_c, 3, 55, 93
5, 7314, Note_off_c, 3, 55, 0
5, 7314, Note_on_c, 3, 54, 93
5, 7326, Note_off_c, 3, 54, 0
5, 7326, Note_on_c, 3, 55, 93
5, 7344, Note_off_c, 3, 55, 0
5, 7344, Note_on_c, 3, 54, 93
5, 7392, Note_off_c, 3, 54, 0
5, 7392, Note_on_c, 3, 52, 93
5, 7440, Note_off_c, 3, 52, 0
5, 7440, Note_on_c, 3, 54, 93
5, 7488, Note_off_c, 3, 54, 0
5, 7488, Note_on_c, 3, 50, 93
5, 7536, Note_off_c, 3, 50, 0
5, 7536, Note_on_c, 3, 52, 93
5, 7584, Note_off_c, 3, 52, 0
5, 7584, Note_on_c, 3, 48, 93
5, 7632, Note_off_c, 3, 48, 0
5, 7632, Note_on_c, 3, 50, 93
5, 7680, Note_off_c, 3, 50, 0
5, 7680, Note_on_c, 3, 47, 93
5, 7728, Note_off_c, 3, 47, 0
5, 7728, Note_on_c, 3, 50, 93
5, 7776, Note_off_c, 3, 50, 0
5, 7776, Note_on_c, 3, 52, 93
5, 7824, Note_off_c, 3, 52, 0
5, 7824, Note_on_c, 3, 54, 93
5, 7872, Note_off_c, 3, 54, 0
5, 7872, Note_on_c, 3, 55, 93
5, 7968, Note_off_c, 3, 55, 0
5, 7968, Note_on_c, 3, 47, 93
5, 8064, Note_off_c, 3, 47, 0
5, 8064, Note_on_c, 3, 48, 93
5, 8256, Note_off_c, 3, 48, 0
5, 8352, Note_on_c, 3, 45, 93
5, 8448, Note_off_c, 3, 45, 0
5, 8448, Note_on_c, 3, 42, 93
5, 8640, Note_off_c, 3, 42, 0
5, 8736, Note_on_c, 3, 38, 93
5, 8832, Note_off_c, 3, 38, 0
5, 8832, Note_on_c, 3, 43, 93
5, 8928, Note_off_c, 3, 43, 0
5, 8928, Note_on_c, 3, 50, 93
5, 9024, Note_off_c, 3, 50, 0
5, 9024, Note_on_c, 3, 47, 93
5, 9120, Note_off_c, 3, 47, 0
5, 9120, Note_on_c, 3, 50, 93
5, 9216, Note_off_c, 3, 50, 0
5, 9216, Note_on_c, 3, 55, 93
5, 9408, Note_off_c, 3, 55, 0
5, 9504, Note_on_c, 3, 52, 93
5, 9600, Note_off_c, 3, 52, 0
5, 9600, Note_on_c, 3, 54, 93
5, 9792, Note_off_c, 3, 54, 0
5, 9888, Note_on_c, 3, 50, 93
5, 9984, Note_off_c, 3, 50, 0
5, 9984, Note_on_c, 3, 55, 93
5, 10176, Note_off_c, 3, 55, 0
5, 10272, Note_on_c, 3, 52, 93
5, 10368, Note_off_c, 3, 52, 0
5, 10368, Note_on_c, 3, 57, 93
5, 10560, Note_off_c, 3, 57, 0
5, 10656, Note_on_c, 3, 55, 93
5, 10752, Note_off_c, 3, 55, 0
5, 10752, Note_on_c, 3, 54, 93
5, 10944, Note_off_c, 3, 54, 0
5, 11040, Note_on_c, 3, 50, 93
5, 11136, Note_off_c, 3, 50, 0
5, 11136, Note_on_c, 3, 43, 93
5, 11232, Note_off_c, 3, 43, 0
5, 11232, Note_on_c, 3, 47, 93
5, 11328, Note_off_c, 3, 47, 0
5, 11328, Note_on_c, 3, 43, 93
5, 11424, Note_off_c, 3, 43, 0
5, 11424, Note_on_c, 3, 40, 93
5, 11520, Note_off_c, 3, 40, 0
5, 11520, Note_on_c, 3, 45, 93
5, 11712, Note_off_c, 3, 45, 0
5, 11808, Note_on_c, 3, 45, 93
5, 11904, Note_off_c, 3, 45, 0
5, 11904, Note_on_c, 3, 50, 93
5, 12288, Note_off_c, 3, 50, 0
5, 12288, Note_on_c, 3, 50, 93
5, 12336, Note_off_c, 3, 50, 0
5, 12336, Note_on_c, 3, 52, 93
5, 12384, Note_off_c, 3, 52, 0
5, 12384, Note_on_c, 3, 54, 93
5, 12432, Note_off_c, 3, 54, 0
5, 12432, Note_on_c, 3, 55, 93
5, 12480, Note_off_c, 3, 55, 0
5, 12480, Note_on_c, 3, 57, 93
5, 12576, Note_off_c, 3, 57, 0
5, 12576, Note_on_c, 3, 48, 93
5, 12672, Note_off_c, 3, 48, 0
5, 12672, Note_on_c, 3, 47, 93
5, 12720, Note_off_c, 3, 47, 0
5, 12720, Note_on_c, 3, 50, 93
5, 12768, Note_off_c, 3, 50, 0
5, 12768, Note_on_c, 3, 52, 93
5, 12816, Note_off_c, 3, 52, 0
5, 12816, Note_on_c, 3, 54, 93
5, 12864, Note_off_c, 3, 54, 0
5, 12864, Note_on_c, 3, 55, 93
5, 12912, Note_off_c, 3, 55, 0
5, 12912, Note_on_c, 3, 57, 93
5, 12960, Note_off_c, 3, 57, 0
5, 12960, Note_on_c, 3, 59, 93
5, 13152, Note_off_c, 3, 59, 0
5, 13152, Note_on_c, 3, 57, 93
5, 13200, Note_off_c, 3, 57, 0
5, 13200, Note_on_c, 3, 56, 93
5, 13248, Note_off_c, 3, 56, 0
5, 13248, Note_on_c, 3, 57, 93
5, 13536, Note_off_c, 3, 57, 0
5, 13536, Note_on_c, 3, 54, 93
5, 13632, Note_off_c, 3, 54, 0
5, 13632, Note_on_c, 3, 59, 93
5, 13728, Note_off_c, 3, 59, 0
5, 13728, Note_on_c, 3, 57, 93
5, 13824, Note_off_c, 3, 57, 0
5, 13824, Note_on_c, 3, 55, 93
5, 13872, Note_off_c, 3, 55, 0
5, 13872, Note_on_c, 3, 57, 93
5, 13920, Note_off_c, 3, 57, 0
5, 13920, Note_on_c, 3, 59, 93
5, 13968, Note_off_c, 3, 59, 0
5, 13968, Note_on_c, 3, 57, 93
5, 14016, Note_off_c, 3, 57, 0
5, 14016, Note_on_c, 3, 55, 93
5, 14064, Note_off_c, 3, 55, 0
5, 14064, Note_on_c, 3, 54, 93
5, 14112, Note_off_c, 3, 54, 0
5, 14112, Note_on_c, 3, 55, 93
5, 14160, Note_off_c, 3, 55, 0
5, 14160, Note_on_c, 3, 52, 93
5, 14208, Note_off_c, 3, 52, 0
5, 14208, Note_on_c, 3, 57, 93
5, 14256, Note_off_c, 3, 57, 0
5, 14256, Note_on_c, 3, 59, 93
5, 14304, Note_off_c, 3, 59, 0
5, 14304, Note_on_c, 3, 60, 93
5, 14352, Note_off_c, 3, 60, 0
5, 14352, Note_on_c, 3, 59, 93
5, 14400, Note_off_c, 3, 59, 0
5, 14400, Note_on_c, 3, 57, 93
5, 14448, Note_off_c, 3, 57, 0
5, 14448, Note_on_c, 3, 55, 93
5, 14496, Note_off_c, 3, 55, 0
5, 14496, Note_on_c, 3, 57, 93
5, 14544, Note_off_c, 3, 57, 0
5, 14544, Note_on_c, 3, 54, 93
5, 14592, Note_off_c, 3, 54, 0
5, 14592, Note_on_c, 3, 59, 93
5, 14640, Note_off_c, 3, 59, 0
5, 14640, Note_on_c, 3, 57, 93
5, 14688, Note_off_c, 3, 57, 0
5, 14688, Note_on_c, 3, 55, 93
5, 14736, Note_off_c, 3, 55, 0
5, 14736, Note_on_c, 3, 57, 93
5, 14784, Note_off_c, 3, 57, 0
5, 14784, Note_on_c, 3, 59, 93
5, 14832, Note_off_c, 3, 59, 0
5, 14832, Note_on_c, 3, 57, 93
5, 14880, Note_off_c, 3, 57, 0
5, 14880, Note_on_c, 3, 59, 93
5, 14928, Note_off_c, 3, 59, 0
5, 14928, Note_on_c, 3, 47, 93
5, 14976, Note_off_c, 3, 47, 0
5, 14976, Note_on_c, 3, 52, 93
5, 15024, Note_off_c, 3, 52, 0
5, 15024, Note_on_c, 3, 47, 93
5, 15072, Note_off_c, 3, 47, 0
5, 15072, Note_on_c, 3, 45, 93
5, 15120, Note_off_c, 3, 45, 0
5, 15120, Note_on_c, 3, 47, 93
5, 15168, Note_off_c, 3, 47, 0
5, 15168, Note_on_c, 3, 43, 93
5, 15216, Note_off_c, 3, 43, 0
5, 15216, Note_on_c, 3, 42, 93
5, 15264, Note_off_c, 3, 42, 0
5, 15264, Note_on_c, 3, 43, 93
5, 15312, Note_off_c, 3, 43, 0
5, 15312, Note_on_c, 3, 40, 93
5, 15360, Note_off_c, 3, 40, 0
5, 15360, Note_on_c, 3, 49, 93
5, 15552, Note_off_c, 3, 49, 0
5, 15552, Note_on_c, 3, 50, 93
5, 15576, Note_off_c, 3, 50, 0
5, 15576, Note_on_c, 3, 49, 93
5, 15600, Note_off_c, 3, 49, 0
5, 15600, Note_on_c, 3, 50, 93
5, 15624, Note_off_c, 3, 50, 0
5, 15624, Note_on_c, 3, 49, 93
5, 15648, Note_off_c, 3, 49, 0
5, 15648, Note_on_c, 3, 50, 93
5, 15672, Note_off_c, 3, 50, 0
5, 15672, Note_on_c, 3, 49, 93
5, 15696, Note_off_c, 3, 49, 0
5, 15696, Note_on_c, 3, 47, 93
5, 15720, Note_off_c, 3, 47, 0
5, 15720, Note_on_c, 3, 49, 93
5, 15744, Note_off_c, 3, 49, 0
5, 15744, Note_on_c, 3, 50, 93
5, 15840, Note_off_c, 3, 50, 0
5, 15840, Note_on_c, 3, 47, 93
5, 15936, Note_off_c, 3, 47, 0
5, 15936, Note_on_c, 3, 43, 93
5, 16032, Note_off_c, 3, 43, 0
5, 16032, Note_on_c, 3, 47, 93
5, 16128, Note_off_c, 3, 47, 0
5, 16128, Note_on_c, 3, 48, 93
5, 16224, Note_off_c, 3, 48, 0
5, 16224, Note_on_c, 3, 52, 93
5, 16320, Note_off_c, 3, 52, 0
5, 16320, Note_on_c, 3, 45, 93
5, 16416, Note_off_c, 3, 45, 0
5, 16416, Note_on_c, 3, 55, 93
5, 16512, Note_off_c, 3, 55, 0
5, 16512, Note_on_c, 3, 55, 93
5, 16530, Note_off_c, 3, 55, 0
5, 16530, Note_on_c, 3, 54, 93
5, 16542, Note_off_c, 3, 54, 0
5, 16542, Note_on_c, 3, 55, 93
5, 16560, Note_off_c, 3, 55, 0
5, 16560, Note_on_c, 3, 54, 93
5, 16608, Note_off_c, 3, 54, 0
5, 16608, Note_on_c, 3, 52, 93
5, 16656, Note_off_c, 3, 52, 0
5, 16656, Note_on_c, 3, 54, 93
5, 16704, Note_off_c, 3, 54, 0
5, 16704, Note_on_c, 3, 50, 93
5, 16752, Note_off_c, 3, 50, 0
5, 16752, Note_on_c, 3, 52, 93
5, 16800, Note_off_c, 3, 52, 0
5, 16800, Note_on_c, 3, 54, 93
5, 16848, Note_off_c, 3, 54, 0
5, 16848, Note_on_c, 3, 50, 93
5, 16896, Note_off_c, 3, 50, 0
5, 16896, Note_on_c, 3, 55, 93
5, 16992, Note_off_c, 3, 55, 0
5, 16992, Note_on_c, 3, 57, 93
5, 17088, Note_off_c, 3, 57, 0
5, 17088, Note_on_c, 3, 59, 93
5, 17184, Note_off_c, 3, 59, 0
5, 17184, Note_on_c, 3, 55, 93
5, 17280, Note_off_c, 3, 55, 0
5, 17280, Note_on_c, 3, 48, 93
5, 17472, Note_off_c, 3, 48, 0
5, 17568, Note_on_c, 3, 57, 93
5, 17664, Note_off_c, 3, 57, 0
5, 17664, Note_on_c, 3, 50, 93
5, 17856, Note_off_c, 3, 50, 0
5, 17952, Note_on_c, 3, 50, 93
5, 18048, Note_off_c, 3, 50, 0
5, 18048, Note_on_c, 3, 55, 93
5, 18240, Note_off_c, 3, 55, 0
5, 18240, Note_on_c, 3, 43, 93
5, 18432, Note_off_c, 3, 43, 0
5, 18432, Note_on_c, 3, 50, 93
5, 18480, Note_off_c, 3, 50, 0
5, 18480, Note_on_c, 3, 52, 93
5, 18528, Note_off_c, 3, 52, 0
5, 18528, Note_on_c, 3, 54, 93
5, 18576, Note_off_c, 3, 54, 0
5, 18576, Note_on_c, 3, 55, 93
5, 18624, Note_off_c, 3, 55, 0
5, 18624, Note_on_c, 3, 57, 93
5, 18720, Note_off_c, 3, 57, 0
5, 18720, Note_on_c, 3, 48, 93
5, 18816, Note_off_c, 3, 48, 0
5, 18816, Note_on_c, 3, 47, 93
5, 18864, Note_off_c, 3, 47, 0
5, 18864, Note_on_c, 3, 50, 93
5, 18912, Note_off_c, 3, 50, 0
5, 18912, Note_on_c, 3, 52, 93
5, 18960, Note_off_c, 3, 52, 0
5, 18960, Note_on_c, 3, 54, 93
5, 19008, Note_off_c, 3, 54, 0
5, 19008, Note_on_c, 3, 55, 93
5, 19056, Note_off_c, 3, 55, 0
5, 19056, Note_on_c, 3, 57, 93
5, 19104, Note_off_c, 3, 57, 0
5, 19104, Note_on_c, 3, 59, 93
5, 19296, Note_off_c, 3, 59, 0
5, 19296, Note_on_c, 3, 57, 93
5, 19344, Note_off_c, 3, 57, 0
5, 19344, Note_on_c, 3, 56, 93
5, 19392, Note_off_c, 3, 56, 0
5, 19392, Note_on_c, 3, 57, 93
5, 19680, Note_off_c, 3, 57, 0
5, 19680, Note_on_c, 3, 54, 93
5, 19776, Note_off_c, 3, 54, 0
5, 19776, Note_on_c, 3, 59, 93
5, 19872, Note_off_c, 3, 59, 0
5, 19872, Note_on_c, 3, 57, 93
5, 19968, Note_off_c, 3, 57, 0
5, 19968, Note_on_c, 3, 55, 93
5, 20016, Note_off_c, 3, 55, 0
5, 20016, Note_on_c, 3, 57, 93
5, 20064, Note_off_c, 3, 57, 0
5, 20064, Note_on_c, 3, 59, 93
5, 20112, Note_off_c, 3, 59, 0
5, 20112, Note_on_c, 3, 57, 93
5, 20160, Note_off_c, 3, 57, 0
5, 20160, Note_on_c, 3, 55, 93
5, 20208, Note_off_c, 3, 55, 0
5, 20208, Note_on_c, 3, 54, 93
5, 20256, Note_off_c, 3, 54, 0
5, 20256, Note_on_c, 3, 55, 93
5, 20304, Note_off_c, 3, 55, 0
5, 20304, Note_on_c, 3, 52, 93
5, 20352, Note_off_c, 3, 52, 0
5, 20352, Note_on_c, 3, 57, 93
5, 20400, Note_off_c, 3, 57, 0
5, 20400, Note_on_c, 3, 59, 93
5, 20448, Note_off_c, 3, 59, 0
5, 20448, Note_on_c, 3, 60, 93
5, 20496, Note_off_c, 3, 60, 0
5, 20496, Note_on_c, 3, 59, 93
5, 20544, Note_off_c, 3, 59, 0
5, 20544, Note_on_c, 3, 57, 93
5, 20592, Note_off_c, 3, 57, 0
5, 20592, Note_on_c, 3, 55, 93
5, 20640, Note_off_c, 3, 55, 0
5, 20640, Note_on_c, 3, 57, 93
5, 20688, Note_off_c, 3, 57, 0
5, 20688, Note_on_c, 3, 54, 93
5, 20736, Note_off_c, 3, 54, 0
5, 20736, Note_on_c, 3, 59, 93
5, 20784, Note_off_c, 3, 59, 0
5, 20784, Note_on_c, 3, 57, 93
5, 20832, Note_off_c, 3, 57, 0
5, 20832, Note_on_c, 3, 55, 93
5, 20880, Note_off_c, 3, 55, 0
5, 20880, Note_on_c, 3, 57, 93
5, 20928, Note_off_c, 3, 57, 0
5, 20928, Note_on_c, 3, 59, 93
5, 20976, Note_off_c, 3, 59, 0
5, 20976, Note_on_c, 3, 57, 93
5, 21024, Note_off_c, 3, 57, 0
5, 21024, Note_on_c, 3, 59, 93
5, 21072, Note_off_c, 3, 59, 0
5, 21072, Note_on_c, 3, 47, 93
5, 21120, Note_off_c, 3, 47, 0
5, 21120, Note_on_c, 3, 52, 93
5, 21168, Note_off_c, 3, 52, 0
5, 21168, Note_on_c, 3, 47, 93
5, 21216, Note_off_c, 3, 47, 0
5, 21216, Note_on_c, 3, 45, 93
5, 21264, Note_off_c, 3, 45, 0
5, 21264, Note_on_c, 3, 47, 93
5, 21312, Note_off_c, 3, 47, 0
5, 21312, Note_on_c, 3, 43, 93
5, 21360, Note_off_c, 3, 43, 0
5, 21360, Note_on_c, 3, 42, 93
5, 21408, Note_off_c, 3, 42, 0
5, 21408, Note_on_c, 3, 43, 93
5, 21456, Note_off_c, 3, 43, 0
5, 21456, Note_on_c, 3, 40, 93
5, 21504, Note_off_c, 3, 40, 0
5, 21504, Note_on_c, 3, 49, 93
5, 21696, Note_off_c, 3, 49, 0
5, 21696, Note_on_c, 3, 50, 93
5, 21720, Note_off_c, 3, 50, 0
5, 21720, Note_on_c, 3, 49, 93
5, 21744, Note_off_c, 3, 49, 0
5, 21744, Note_on_c, 3, 50, 93
5, 21768, Note_off_c, 3, 50, 0
5, 21768, Note_on_c, 3, 49, 93
5, 21792, Note_off_c, 3, 49, 0
5, 21792, Note_on_c, 3, 50, 93
5, 21816, Note_off_c, 3, 50, 0
5, 21816, Note_on_c, 3, 49, 93
5, 21840, Note_off_c, 3, 49, 0
5, 21840, Note_on_c, 3, 47, 93
5, 21864, Note_off_c, 3, 47, 0
5, 21864, Note_on_c, 3, 49, 93
5, 21888, Note_off_c, 3, 49, 0
5, 21888, Note_on_c, 3, 50, 93
5, 21984, Note_off_c, 3, 50, 0
5, 21984, Note_on_c, 3, 47, 93
5, 22080, Note_off_c, 3, 47, 0
5, 22080, Note_on_c, 3, 43, 93
5, 22176, Note_off_c, 3, 43, 0
5, 22176, Note_on_c, 3, 47, 93
5, 22272, Note_off_c, 3, 47, 0
5, 22272, Note_on_c, 3, 48, 93
5, 22368, Note_off_c, 3, 48, 0
5, 22368, Note_on_c, 3, 52, 93
5, 22464, Note_off_c, 3, 52, 0
5, 22464, Note_on_c, 3, 45, 93
5, 22560, Note_off_c, 3, 45, 0
5, 22560, Note_on_c, 3, 55, 93
5, 22656, Note_off_c, 3, 55, 0
5, 22656, Note_on_c, 3, 55, 93
5, 22674, Note_off_c, 3, 55, 0
5, 22674, Note_on_c, 3, 54, 93
5, 22686, Note_off_c, 3, 54, 0
5, 22686, Note_on_c, 3, 55, 93
5, 22704, Note_off_c, 3, 55, 0
5, 22704, Note_on_c, 3, 54, 93
5, 22752, Note_off_c, 3, 54, 0
5, 22752, Note_on_c, 3, 52, 93
5, 22800, Note_off_c, 3, 52, 0
5, 22800, Note_on_c, 3, 54, 93
5, 22848, Note_off_c, 3, 54, 0
5, 22848, Note_on_c, 3, 50, 93
5, 22896, Note_off_c, 3, 50, 0
5, 22896, Note_on_c, 3, 52, 93
5, 22944, Note_off_c, 3, 52, 0
5, 22944, Note_on_c, 3, 54, 93
5, 22992, Note_off_c, 3, 54, 0
5, 22992, Note_on_c, 3, 50, 93
5, 23040, Note_off_c, 3, 50, 0
5, 23040, Note_on_c, 3, 55, 93
5, 23136, Note_off_c, 3, 55, 0
5, 23136, Note_on_c, 3, 57, 93
5, 23232, Note_off_c, 3, 57, 0
5, 23232, Note_on_c, 3, 59, 93
5, 23328, Note_off_c, 3, 59, 0
5, 23328, Note_on_c, 3, 55, 93
5, 23424, Note_off_c, 3, 55, 0
5, 23424, Note_on_c, 3, 48, 93
5, 23616, Note_off_c, 3, 48, 0
5, 23712, Note_on_c, 3, 57, 93
5, 23808, Note_off_c, 3, 57, 0
5, 23808, Note_on_c, 3, 50, 93
5, 24000, Note_off_c, 3, 50, 0
5, 24096, Note_on_c, 3, 50, 93
5, 24192, Note_off_c, 3, 50, 0
5, 24192, Note_on_c, 3, 55, 93
5, 24384, Note_off_c, 3, 55, 0
5, 24384, Note_on_c, 3, 43, 93
5, 24576, Note_off_c, 3, 43, 0
5, 24576, End_track
0, 0, End_of_file
