0, 0, Header, 1, 4, 96
1, 0, Start_track
1, 0, Time_signature, 4, 2, 24, 8
1, 0, Title_t, "untitled"
1, 0, Title_t, "Track1"
1, 0, Tempo, 600000
1, 18336, Tempo, 1250000
1, 18336, End_track
2, 0, Start_track
2, 0, Title_t, "Track2"
2, 0, Program_c, 0, 6
2, 0, Control_c, 0, 7, 100
2, 0, Control_c, 0, 10, 74
2, 384, Note_on_c, 0, 79, 93
2, 480, Note_off_c, 0, 79, 0
2, 480, Note_on_c, 0, 84, 93
2, 492, Note_off_c, 0, 84, 0
2, 492, Note_on_c, 0, 83, 93
2, 504, Note_off_c, 0, 83, 0
2, 504, Note_on_c, 0, 84, 93
2, 624, Note_off_c, 0, 84, 0
2, 624, Note_on_c, 0, 83, 93
2, 648, Note_off_c, 0, 83, 0
2, 648, Note_on_c, 0, 81, 93
2, 672, Note_off_c, 0, 81, 0
2, 672, Note_on_c, 0, 83, 93
2, 696, Note_off_c, 0, 83, 0
2, 696, Note_on_c, 0, 81, 93
2, 720, Note_off_c, 0, 81, 0
2, 720, Note_on_c, 0, 79, 93
2, 744, Note_off_c, 0, 79, 0
2, 744, Note_on_c, 0, 78, 93
2, 768, Note_off_c, 0, 78, 0
2, 768, Note_on_c, 0, 79, 93
2, 888, Note_off_c, 0, 79, 0
2, 888, Note_on_c, 0, 77, 93
2, 912, Note_off_c, 0, 77, 0
2, 912, Note_on_c, 0, 76, 93
2, 936, Note_off_c, 0, 76, 0
2, 936, Note_on_c, 0, 74, 93
2, 960, Note_off_c, 0, 74, 0
2, 960, Note_on_c, 0, 76, 93
2, 1080, Note_off_c, 0, 76, 0
2, 1080, Note_on_c, 0, 74, 93
2, 1104, Note_off_c, 0, 74, 0
2, 1104, Note_on_c, 0, 72, 93
2, 1128, Note_off_c, 0, 72, 0
2, 1128, Note_on_c, 0, 71, 93
2, 1152, Note_off_c, 0, 71, 0
2, 1152, Note_on_c, 0, 69, 93
2, 1272, Note_off_c, 0, 69, 0
2, 1272, Note_on_c, 0, 72, 93
2, 1296, Note_off_c, 0, 72, 0
2, 1296, Note_on_c, 0, 71, 93
2, 1320, Note_off_c, 0, 71, 0
2, 1320, Note_on_c, 0, 69, 93
2, 1344, Note_off_c, 0, 69, 0
2, 1344, Note_on_c, 0, 71, 93
2, 1368, Note_off_c, 0, 71, 0
2, 1368, Note_on_c, 0, 79, 93
2, 1392, Note_off_c, 0, 79, 0
2, 1392, Note_on_c, 0, 78, 93
2, 1416, Note_off_c, 0, 78, 0
2, 1416, Note_on_c, 0, 81, 93
2, 1440, Note_off_c, 0, 81, 0
2, 1440, Note_on_c, 0, 79, 93
2, 1464, Note_off_c, 0, 79, 0
2, 1464, Note_on_c, 0, 78, 93
2, 1488, Note_off_c, 0, 78, 0
2, 1488, Note_on_c, 0, 76, 93
2, 1512, Note_off_c, 0, 76, 0
2, 1512, Note_on_c, 0, 74, 93
2, 1536, Note_off_c, 0, 74, 0
2, 1536, Note_on_c, 0, 84, 93
2, 1584, Note_off_c, 0, 84, 0
2, 1584, Note_on_c, 0, 83, 93
2, 1632, Note_off_c, 0, 83, 0
2, 1920, Note_on_c, 0, 71, 93
2, 1944, Note_off_c, 0, 71, 0
2, 1944, Note_on_c, 0, 75, 93
2, 1968, Note_off_c, 0, 75, 0
2, 1968, Note_on_c, 0, 76, 93
2, 1992, Note_off_c, 0, 76, 0
2, 1992, Note_on_c, 0, 79, 93
2, 2016, Note_off_c, 0, 79, 0
2, 2016, Note_on_c, 0, 83, 93
2, 2136, Note_off_c, 0, 83, 0
2, 2136, Note_on_c, 0, 81, 93
2, 2160, Note_off_c, 0, 81, 0
2, 2160, Note_on_c, 0, 79, 93
2, 2184, Note_off_c, 0, 79, 0
2, 2184, Note_on_c, 0, 83, 93
2, 2208, Note_off_c, 0, 83, 0
2, 2208, Note_on_c, 0, 81, 93
2, 2232, Note_off_c, 0, 81, 0
2, 2232, Note_on_c, 0, 79, 93
2, 2256, Note_off_c, 0, 79, 0
2, 2256, Note_on_c, 0, 78, 93
2, 2280, Note_off_c, 0, 78, 0
2, 2280, Note_on_c, 0, 76, 93
2, 2304, Note_off_c, 0, 76, 0
2, 2304, Note_on_c, 0, 74, 93
2, 2424, Note_off_c, 0, 74, 0
2, 2424, Note_on_c, 0, 72, 93
2, 2448, Note_off_c, 0, 72, 0
2, 2448, Note_on_c, 0, 71, 93
2, 2472, Note_off_c, 0, 71, 0
2, 2472, Note_on_c, 0, 69, 93
2, 2496, Note_off_c, 0, 69, 0
2, 2496, Note_on_c, 0, 71, 93
2, 2616, Note_off_c, 0, 71, 0
2, 2616, Note_on_c, 0, 69, 93
2, 2640, Note_off_c, 0, 69, 0
2, 2640, Note_on_c, 0, 67, 93
2, 2664, Note_off_c, 0, 67, 0
2, 2664, Note_on_c, 0, 66, 93
2, 2688, Note_off_c, 0, 66, 0
2, 2688, Note_on_c, 0, 64, 93
2, 2808, Note_off_c, 0, 64, 0
2, 2808, Note_on_c, 0, 67, 93
2, 2832, Note_off_c, 0, 67, 0
2, 2832, Note_on_c, 0, 66, 93
2, 2856, Note_off_c, 0, 66, 0
2, 2856, Note_on_c, 0, 64, 93
2, 2880, Note_off_c, 0, 64, 0
2, 2880, Note_on_c, 0, 62, 93
2, 2928, Note_off_c, 0, 62, 0
2, 3456, Note_on_c, 0, 79, 93
2, 3552, Note_off_c, 0, 79, 0
2, 3552, Note_on_c, 0, 84, 93
2, 3564, Note_off_c, 0, 84, 0
2, 3564, Note_on_c, 0, 83, 93
2, 3576, Note_off_c, 0, 83, 0
2, 3576, Note_on_c, 0, 84, 93
2, 3696, Note_off_c, 0, 84, 0
2, 3696, Note_on_c, 0, 83, 93
2, 3720, Note_off_c, 0, 83, 0
2, 3720, Note_on_c, 0, 81, 93
2, 3744, Note_off_c, 0, 81, 0
2, 3744, Note_on_c, 0, 83, 93
2, 3768, Note_off_c, 0, 83, 0
2, 3768, Note_on_c, 0, 81, 93
2, 3792, Note_off_c, 0, 81, 0
2, 3792, Note_on_c, 0, 79, 93
2, 3816, Note_off_c, 0, 79, 0
2, 3816, Note_on_c, 0, 78, 93
2, 3840, Note_off_c, 0, 78, 0
2, 3840, Note_on_c, 0, 79, 93
2, 3960, Note_off_c, 0, 79, 0
2, 3960, Note_on_c, 0, 77, 93
2, 3984, Note_off_c, 0, 77, 0
2, 3984, Note_on_c, 0, 76, 93
2, 4008, Note_off_c, 0, 76, 0
2, 4008, Note_on_c, 0, 74, 93
2, 4032, Note_off_c, 0, 74, 0
2, 4032, Note_on_c, 0, 76, 93
2, 4152, Note_off_c, 0, 76, 0
2, 4152, Note_on_c, 0, 74, 93
2, 4176, Note_off_c, 0, 74, 0
2, 4176, Note_on_c, 0, 72, 93
2, 4200, Note_off_c, 0, 72, 0
2, 4200, Note_on_c, 0, 71, 93
2, 4224, Note_off_c, 0, 71, 0
2, 4224, Note_on_c, 0, 69, 93
2, 4344, Note_off_c, 0, 69, 0
2, 4344, Note_on_c, 0, 72, 93
2, 4368, Note_off_c, 0, 72, 0
2, 4368, Note_on_c, 0, 71, 93
2, 4392, Note_off_c, 0, 71, 0
2, 4392, Note_on_c, 0, 69, 93
2, 4416, Note_off_c, 0, 69, 0
2, 4416, Note_on_c, 0, 71, 93
2, 4440, Note_off_c, 0, 71, 0
2, 4440, Note_on_c, 0, 79, 93
2, 4464, Note_off_c, 0, 79, 0
2, 4464, Note_on_c, 0, 78, 93
2, 4488, Note_off_c, 0, 78, 0
2, 4488, Note_on_c, 0, 81, 93
2, 4512, Note_off_c, 0, 81, 0
2, 4512, Note_on_c, 0, 79, 93
2, 4536, Note_off_c, 0, 79, 0
2, 4536, Note_on_c, 0, 78, 93
2, 4560, Note_off_c, 0, 78, 0
2, 4560, Note_on_c, 0, 76, 93
2, 4584, Note_off_c, 0, 76, 0
2, 4584, Note_on_c, 0, 74, 93
2, 4608, Note_off_c, 0, 74, 0
2, 4608, Note_on_c, 0, 84, 93
2, 4656, Note_off_c, 0, 84, 0
2, 4656, Note_on_c, 0, 83, 93
2, 4704, Note_off_c, 0, 83, 0
2, 4992, Note_on_c, 0, 71, 93
2, 5016, Note_off_c, 0, 71, 0
2, 5016, Note_on_c, 0, 75, 93
2, 5040, Note_off_c, 0, 75, 0
2, 5040, Note_on_c, 0, 76, 93
2, 5064, Note_off_c, 0, 76, 0
2, 5064, Note_on_c, 0, 79, 93
2, 5088, Note_off_c, 0, 79, 0
2, 5088, Note_on_c, 0, 83, 93
2, 5208, Note_off_c, 0, 83, 0
2, 5208, Note_on_c, 0, 81, 93
2, 5232, Note_off_c, 0, 81, 0
2, 5232, Note_on_c, 0, 79, 93
2, 5256, Note_off_c, 0, 79, 0
2, 5256, Note_on_c, 0, 83, 93
2, 5280, Note_off_c, 0, 83, 0
2, 5280, Note_on_c, 0, 81, 93
2, 5304, Note_off_c, 0, 81, 0
2, 5304, Note_on_c, 0, 79, 93
2, 5328, Note_off_c, 0, 79, 0
2, 5328, Note_on_c, 0, 78, 93
2, 5352, Note_off_c, 0, 78, 0
2, 5352, Note_on_c, 0, 76, 93
2, 5376, Note_off_c, 0, 76, 0
2, 5376, Note_on_c, 0, 74, 93
2, 5496, Note_off_c, 0, 74, 0
2, 5496, Note_on_c, 0, 72, 93
2, 5520, Note_off_c, 0, 72, 0
2, 5520, Note_on_c, 0, 71, 93
2, 5544, Note_off_c, 0, 71, 0
2, 5544, Note_on_c, 0, 69, 93
2, 5568, Note_off_c, 0, 69, 0
2, 5568, Note_on_c, 0, 71, 93
2, 5688, Note_off_c, 0, 71, 0
2, 5688, Note_on_c, 0, 69, 93
2, 5712, Note_off_c, 0, 69, 0
2, 5712, Note_on_c, 0, 67, 93
2, 5736, Note_off_c, 0, 67, 0
2, 5736, Note_on_c, 0, 66, 93
2, 5760, Note_off_c, 0, 66, 0
2, 5760, Note_on_c, 0, 64, 93
2, 5880, Note_off_c, 0, 64, 0
2, 5880, Note_on_c, 0, 67, 93
2, 5904, Note_off_c, 0, 67, 0
2, 5904, Note_on_c, 0, 66, 93
2, 5928, Note_off_c, 0, 66, 0
2, 5928, Note_on_c, 0, 64, 93
2, 5952, Note_off_c, 0, 64, 0
2, 5952, Note_on_c, 0, 62, 93
2, 6048, Note_off_c, 0, 62, 0
2, 6144, Note_on_c, 0, 69, 93
2, 6240, Note_off_c, 0, 69, 0
2, 6240, Note_on_c, 0, 81, 93
2, 6360, Note_off_c, 0, 81, 0
2, 6360, Note_on_c, 0, 79, 93
2, 6384, Note_off_c, 0, 79, 0
2, 6384, Note_on_c, 0, 78, 93
2, 6408, Note_off_c, 0, 78, 0
2, 6408, Note_on_c, 0, 81, 93
2, 6432, Note_off_c, 0, 81, 0
2, 6432, Note_on_c, 0, 79, 93
2, 6456, Note_off_c, 0, 79, 0
2, 6456, Note_on_c, 0, 78, 93
2, 6480, Note_off_c, 0, 78, 0
2, 6480, Note_on_c, 0, 76, 93
2, 6504, Note_off_c, 0, 76, 0
2, 6504, Note_on_c, 0, 75, 93
2, 6528, Note_off_c, 0, 75, 0
2, 6528, Note_on_c, 0, 76, 93
2, 6624, Note_off_c, 0, 76, 0
2, 6672, Note_on_c, 0, 78, 93
2, 6720, Note_off_c, 0, 78, 0
2, 6720, Note_on_c, 0, 75, 93
2, 6768, Note_off_c, 0, 75, 0
2, 6768, Note_on_c, 0, 71, 93
2, 6816, Note_off_c, 0, 71, 0
2, 6912, Note_on_c, 0, 76, 93
2, 7032, Note_off_c, 0, 76, 0
2, 7032, Note_on_c, 0, 74, 93
2, 7056, Note_off_c, 0, 74, 0
2, 7056, Note_on_c, 0, 72, 93
2, 7080, Note_off_c, 0, 72, 0
2, 7080, Note_on_c, 0, 71, 93
2, 7104, Note_off_c, 0, 71, 0
2, 7104, Note_on_c, 0, 72, 93
2, 7224, Note_off_c, 0, 72, 0
2, 7224, Note_on_c, 0, 71, 93
2, 7248, Note_off_c, 0, 71, 0
2, 7248, Note_on_c, 0, 69, 93
2, 7272, Note_off_c, 0, 69, 0
2, 7272, Note_on_c, 0, 67, 93
2, 7296, Note_off_c, 0, 67, 0
2, 7296, Note_on_c, 0, 66, 93
2, 7416, Note_off_c, 0, 66, 0
2, 7416, Note_on_c, 0, 69, 93
2, 7440, Note_off_c, 0, 69, 0
2, 7440, Note_on_c, 0, 67, 93
2, 7464, Note_off_c, 0, 67, 0
2, 7464, Note_on_c, 0, 66, 93
2, 7488, Note_off_c, 0, 66, 0
2, 7488, Note_on_c, 0, 67, 93
2, 7584, Note_off_c, 0, 67, 0
2, 7680, Note_on_c, 0, 64, 93
2, 7776, Note_off_c, 0, 64, 0
2, 7776, Note_on_c, 0, 69, 93
2, 7896, Note_off_c, 0, 69, 0
2, 7896, Note_on_c, 0, 67, 93
2, 7920, Note_off_c, 0, 67, 0
2, 7920, Note_on_c, 0, 66, 93
2, 7944, Note_off_c, 0, 66, 0
2, 7944, Note_on_c, 0, 69, 93
2, 7968, Note_off_c, 0, 69, 0
2, 7968, Note_on_c, 0, 67, 93
2, 7992, Note_off_c, 0, 67, 0
2, 7992, Note_on_c, 0, 66, 93
2, 8016, Note_off_c, 0, 66, 0
2, 8016, Note_on_c, 0, 64, 93
2, 8040, Note_off_c, 0, 64, 0
2, 8040, Note_on_c, 0, 62, 93
2, 8064, Note_off_c, 0, 62, 0
2, 8064, Note_on_c, 0, 60, 93
2, 8160, Note_off_c, 0, 60, 0
2, 8160, Note_on_c, 0, 72, 93
2, 8280, Note_off_c, 0, 72, 0
2, 8280, Note_on_c, 0, 71, 93
2, 8304, Note_off_c, 0, 71, 0
2, 8304, Note_on_c, 0, 69, 93
2, 8328, Note_off_c, 0, 69, 0
2, 8328, Note_on_c, 0, 72, 93
2, 8352, Note_off_c, 0, 72, 0
2, 8352, Note_on_c, 0, 71, 93
2, 8376, Note_off_c, 0, 71, 0
2, 8376, Note_on_c, 0, 69, 93
2, 8400, Note_off_c, 0, 69, 0
2, 8400, Note_on_c, 0, 67, 93
2, 8424, Note_off_c, 0, 67, 0
2, 8424, Note_on_c, 0, 66, 93
2, 8448, Note_off_c, 0, 66, 0
2, 8448, Note_on_c, 0, 71, 93
2, 8496, Note_off_c, 0, 71, 0
2, 8496, Note_on_c, 0, 67, 93
2, 8544, Note_off_c, 0, 67, 0
2, 8544, Note_on_c, 0, 71, 93
2, 8592, Note_off_c, 0, 71, 0
2, 8592, Note_on_c, 0, 74, 93
2, 8640, Note_off_c, 0, 74, 0
2, 8640, Note_on_c, 0, 79, 93
2, 8736, Note_off_c, 0, 79, 0
2, 8736, Note_on_c, 0, 84, 93
2, 8856, Note_off_c, 0, 84, 0
2, 8856, Note_on_c, 0, 83, 93
2, 8880, Note_off_c, 0, 83, 0
2, 8880, Note_on_c, 0, 81, 93
2, 8904, Note_off_c, 0, 81, 0
2, 8904, Note_on_c, 0, 84, 93
2, 8928, Note_off_c, 0, 84, 0
2, 8928, Note_on_c, 0, 83, 93
2, 8952, Note_off_c, 0, 83, 0
2, 8952, Note_on_c, 0, 81, 93
2, 8976, Note_off_c, 0, 81, 0
2, 8976, Note_on_c, 0, 79, 93
2, 9000, Note_off_c, 0, 79, 0
2, 9000, Note_on_c, 0, 78, 93
2, 9024, Note_off_c, 0, 78, 0
2, 9024, Note_on_c, 0, 79, 93
2, 9120, Note_off_c, 0, 79, 0
2, 9216, Note_on_c, 0, 69, 93
2, 9312, Note_off_c, 0, 69, 0
2, 9312, Note_on_c, 0, 81, 93
2, 9432, Note_off_c, 0, 81, 0
2, 9432, Note_on_c, 0, 79, 93
2, 9456, Note_off_c, 0, 79, 0
2, 9456, Note_on_c, 0, 78, 93
2, 9480, Note_off_c, 0, 78, 0
2, 9480, Note_on_c, 0, 81, 93
2, 9504, Note_off_c, 0, 81, 0
2, 9504, Note_on_c, 0, 79, 93
2, 9528, Note_off_c, 0, 79, 0
2, 9528, Note_on_c, 0, 78, 93
2, 9552, Note_off_c, 0, 78, 0
2, 9552, Note_on_c, 0, 76, 93
2, 9576, Note_off_c, 0, 76, 0
2, 9576, Note_on_c, 0, 75, 93
2, 9600, Note_off_c, 0, 75, 0
2, 9600, Note_on_c, 0, 76, 93
2, 9696, Note_off_c, 0, 76, 0
2, 9744, Note_on_c, 0, 78, 93
2, 9792, Note_off_c, 0, 78, 0
2, 9792, Note_on_c, 0, 75, 93
2, 9840, Note_off_c, 0, 75, 0
2, 9840, Note_on_c, 0, 71, 93
2, 9888, Note_off_c, 0, 71, 0
2, 9984, Note_on_c, 0, 76, 93
2, 10104, Note_off_c, 0, 76, 0
2, 10104, Note_on_c, 0, 74, 93
2, 10128, Note_off_c, 0, 74, 0
2, 10128, Note_on_c, 0, 72, 93
2, 10152, Note_off_c, 0, 72, 0
2, 10152, Note_on_c, 0, 71, 93
2, 10176, Note_off_c, 0, 71, 0
2, 10176, Note_on_c, 0, 72, 93
2, 10296, Note_off_c, 0, 72, 0
2, 10296, Note_on_c, 0, 71, 93
2, 10320, Note_off_c, 0, 71, 0
2, 10320, Note_on_c, 0, 69, 93
2, 10344, Note_off_c, 0, 69, 0
2, 10344, Note_on_c, 0, 67, 93
2, 10368, Note_off_c, 0, 67, 0
2, 10368, Note_on_c, 0, 66, 93
2, 10488, Note_off_c, 0, 66, 0
2, 10488, Note_on_c, 0, 69, 93
2, 10512, Note_off_c, 0, 69, 0
2, 10512, Note_on_c, 0, 67, 93
2, 10536, Note_off_c, 0, 67, 0
2, 10536, Note_on_c, 0, 66, 93
2, 10560, Note_off_c, 0, 66, 0
2, 10560, Note_on_c, 0, 67, 93
2, 10656, Note_off_c, 0, 67, 0
2, 10752, Note_on_c, 0, 64, 93
2, 10848, Note_off_c, 0, 64, 0
2, 10848, Note_on_c, 0, 69, 93
2, 10968, Note_off_c, 0, 69, 0
2, 10968, Note_on_c, 0, 67, 93
2, 10992, Note_off_c, 0, 67, 0
2, 10992, Note_on_c, 0, 66, 93
2, 11016, Note_off_c, 0, 66, 0
2, 11016, Note_on_c, 0, 69, 93
2, 11040, Note_off_c, 0, 69, 0
2, 11040, Note_on_c, 0, 67, 93
2, 11064, Note_off_c, 0, 67, 0
2, 11064, Note_on_c, 0, 66, 93
2, 11088, Note_off_c, 0, 66, 0
2, 11088, Note_on_c, 0, 64, 93
2, 11112, Note_off_c, 0, 64, 0
2, 11112, Note_on_c, 0, 62, 93
2, 11136, Note_off_c, 0, 62, 0
2, 11136, Note_on_c, 0, 60, 93
2, 11232, Note_off_c, 0, 60, 0
2, 11232, Note_on_c, 0, 72, 93
2, 11352, Note_off_c, 0, 72, 0
2, 11352, Note_on_c, 0, 71, 93
2, 11376, Note_off_c, 0, 71, 0
2, 11376, Note_on_c, 0, 69, 93
2, 11400, Note_off_c, 0, 69, 0
2, 11400, Note_on_c, 0, 72, 93
2, 11424, Note_off_c, 0, 72, 0
2, 11424, Note_on_c, 0, 71, 93
2, 11448, Note_off_c, 0, 71, 0
2, 11448, Note_on_c, 0, 69, 93
2, 11472, Note_off_c, 0, 69, 0
2, 11472, Note_on_c, 0, 67, 93
2, 11496, Note_off_c, 0, 67, 0
2, 11496, Note_on_c, 0, 66, 93
2, 11520, Note_off_c, 0, 66, 0
2, 11520, Note_on_c, 0, 71, 93
2, 11568, Note_off_c, 0, 71, 0
2, 11568, Note_on_c, 0, 67, 93
2, 11616, Note_off_c, 0, 67, 0
2, 11616, Note_on_c, 0, 71, 93
2, 11664, Note_off_c, 0, 71, 0
2, 11664, Note_on_c, 0, 74, 93
2, 11712, Note_off_c, 0, 74, 0
2, 11712, Note_on_c, 0, 79, 93
2, 11808, Note_off_c, 0, 79, 0
2, 11808, Note_on_c, 0, 84, 93
2, 11928, Note_off_c, 0, 84, 0
2, 11928, Note_on_c, 0, 83, 93
2, 11952, Note_off_c, 0, 83, 0
2, 11952, Note_on_c, 0, 81, 93
2, 11976, Note_off_c, 0, 81, 0
2, 11976, Note_on_c, 0, 84, 93
2, 12000, Note_off_c, 0, 84, 0
2, 12000, Note_on_c, 0, 83, 93
2, 12024, Note_off_c, 0, 83, 0
2, 12024, Note_on_c, 0, 81, 93
2, 12048, Note_off_c, 0, 81, 0
2, 12048, Note_on_c, 0, 79, 93
2, 12072, Note_off_c, 0, 79, 0
2, 12072, Note_on_c, 0, 78, 93
2, 12096, Note_off_c, 0, 78, 0
2, 12096, Note_on_c, 0, 79, 93
2, 12192, Note_off_c, 0, 79, 0
2, 12192, End_track
3, 0, Start_track
3, 0, Title_t, "Track3"
3, 0, Program_c, 1, 6
3, 0, Control_c, 1, 7, 100
3, 0, Control_c, 1, 10, 64
3, 0, Note_on_c, 1, 71, 93
3, 96, Note_off_c, 1, 71, 0
3, 96, Note_on_c, 1, 76, 93
3, 108, Note_off_c, 1, 76, 0
3, 108, Note_on_c, 1, 74, 93
3, 120, Note_off_c, 1, 74, 0
3, 120, Note_on_c, 1, 76, 93
3, 240, Note_off_c, 1, 76, 0
3, 240, Note_on_c, 1, 74, 93
3, 264, Note_off_c, 1, 74, 0
3, 264, Note_on_c, 1, 72, 93
3, 288, Note_off_c, 1, 72, 0
3, 288, Note_on_c, 1, 74, 93
3, 312, Note_off_c, 1, 74, 0
3, 312, Note_on_c, 1, 72, 93
3, 336, Note_off_c, 1, 72, 0
3, 336, Note_on_c, 1, 71, 93
3, 360, Note_off_c, 1, 71, 0
3, 360, Note_on_c, 1, 69, 93
3, 384, Note_off_c, 1, 69, 0
3, 384, Note_on_c, 1, 67, 93
3, 480, Note_off_c, 1, 67, 0
3, 528, Note_on_c, 1, 81, 93
3, 576, Note_off_c, 1, 81, 0
3, 576, Note_on_c, 1, 78, 93
3, 624, Note_off_c, 1, 78, 0
3, 624, Note_on_c, 1, 74, 93
3, 672, Note_off_c, 1, 74, 0
3, 792, Note_on_c, 1, 74, 93
3, 816, Note_off_c, 1, 74, 0
3, 816, Note_on_c, 1, 72, 93
3, 840, Note_off_c, 1, 72, 0
3, 840, Note_on_c, 1, 76, 93
3, 864, Note_off_c, 1, 76, 0
3, 864, Note_on_c, 1, 74, 93
3, 912, Note_off_c, 1, 74, 0
3, 912, Note_on_c, 1, 71, 93
3, 984, Note_off_c, 1, 71, 0
3, 984, Note_on_c, 1, 69, 93
3, 1008, Note_off_c, 1, 69, 0
3, 1008, Note_on_c, 1, 67, 93
3, 1032, Note_off_c, 1, 67, 0
3, 1032, Note_on_c, 1, 71, 93
3, 1056, Note_off_c, 1, 71, 0
3, 1056, Note_on_c, 1, 69, 93
3, 1104, Note_off_c, 1, 69, 0
3, 1104, Note_on_c, 1, 67, 93
3, 1176, Note_off_c, 1, 67, 0
3, 1176, Note_on_c, 1, 66, 93
3, 1200, Note_off_c, 1, 66, 0
3, 1200, Note_on_c, 1, 64, 93
3, 1224, Note_off_c, 1, 64, 0
3, 1224, Note_on_c, 1, 67, 93
3, 1248, Note_off_c, 1, 67, 0
3, 1248, Note_on_c, 1, 66, 93
3, 1344, Note_off_c, 1, 66, 0
3, 1344, Note_on_c, 1, 67, 93
3, 1392, Note_off_c, 1, 67, 0
3, 1536, Note_on_c, 1, 67, 93
3, 1560, Note_off_c, 1, 67, 0
3, 1560, Note_on_c, 1, 69, 93
3, 1584, Note_off_c, 1, 69, 0
3, 1584, Note_on_c, 1, 71, 93
3, 1608, Note_off_c, 1, 71, 0
3, 1608, Note_on_c, 1, 74, 93
3, 1632, Note_off_c, 1, 74, 0
3, 1632, Note_on_c, 1, 76, 93
3, 1752, Note_off_c, 1, 76, 0
3, 1752, Note_on_c, 1, 74, 93
3, 1776, Note_off_c, 1, 74, 0
3, 1776, Note_on_c, 1, 73, 93
3, 1800, Note_off_c, 1, 73, 0
3, 1800, Note_on_c, 1, 76, 93
3, 1824, Note_off_c, 1, 76, 0
3, 1824, Note_on_c, 1, 74, 93
3, 1848, Note_off_c, 1, 74, 0
3, 1848, Note_on_c, 1, 73, 93
3, 1872, Note_off_c, 1, 73, 0
3, 1872, Note_on_c, 1, 71, 93
3, 1896, Note_off_c, 1, 71, 0
3, 1896, Note_on_c, 1, 69, 93
3, 1920, Note_off_c, 1, 69, 0
3, 1920, Note_on_c, 1, 67, 93
3, 2016, Note_off_c, 1, 67, 0
3, 2064, Note_on_c, 1, 79, 93
3, 2112, Note_off_c, 1, 79, 0
3, 2112, Note_on_c, 1, 76, 93
3, 2160, Note_off_c, 1, 76, 0
3, 2160, Note_on_c, 1, 73, 93
3, 2208, Note_off_c, 1, 73, 0
3, 2328, Note_on_c, 1, 69, 93
3, 2352, Note_off_c, 1, 69, 0
3, 2352, Note_on_c, 1, 67, 93
3, 2376, Note_off_c, 1, 67, 0
3, 2376, Note_on_c, 1, 71, 93
3, 2400, Note_off_c, 1, 71, 0
3, 2400, Note_on_c, 1, 69, 93
3, 2448, Note_off_c, 1, 69, 0
3, 2448, Note_on_c, 1, 66, 93
3, 2520, Note_off_c, 1, 66, 0
3, 2520, Note_on_c, 1, 64, 93
3, 2544, Note_off_c, 1, 64, 0
3, 2544, Note_on_c, 1, 62, 93
3, 2568, Note_off_c, 1, 62, 0
3, 2568, Note_on_c, 1, 66, 93
3, 2592, Note_off_c, 1, 66, 0
3, 2592, Note_on_c, 1, 64, 93
3, 2640, Note_off_c, 1, 64, 0
3, 2640, Note_on_c, 1, 62, 93
3, 2712, Note_off_c, 1, 62, 0
3, 2712, Note_on_c, 1, 61, 93
3, 2736, Note_off_c, 1, 61, 0
3, 2736, Note_on_c, 1, 59, 93
3, 2760, Note_off_c, 1, 59, 0
3, 2760, Note_on_c, 1, 62, 93
3, 2784, Note_off_c, 1, 62, 0
3, 2784, Note_on_c, 1, 61, 93
3, 2880, Note_off_c, 1, 61, 0
3, 2880, Note_on_c, 1, 62, 93
3, 2928, Note_off_c, 1, 62, 0
3, 3072, Note_on_c, 1, 71, 93
3, 3168, Note_off_c, 1, 71, 0
3, 3168, Note_on_c, 1, 76, 93
3, 3180, Note_off_c, 1, 76, 0
3, 3180, Note_on_c, 1, 74, 93
3, 3192, Note_off_c, 1, 74, 0
3, 3192, Note_on_c, 1, 76, 93
3, 3312, Note_off_c, 1, 76, 0
3, 3312, Note_on_c, 1, 74, 93
3, 3336, Note_off_c, 1, 74, 0
3, 3336, Note_on_c, 1, 72, 93
3, 3360, Note_off_c, 1, 72, 0
3, 3360, Note_on_c, 1, 74, 93
3, 3384, Note_off_c, 1, 74, 0
3, 3384, Note_on_c, 1, 72, 93
3, 3408, Note_off_c, 1, 72, 0
3, 3408, Note_on_c, 1, 71, 93
3, 3432, Note_off_c, 1, 71, 0
3, 3432, Note_on_c, 1, 69, 93
3, 3456, Note_off_c, 1, 69, 0
3, 3456, Note_on_c, 1, 67, 93
3, 3552, Note_off_c, 1, 67, 0
3, 3600, Note_on_c, 1, 81, 93
3, 3648, Note_off_c, 1, 81, 0
3, 3648, Note_on_c, 1, 78, 93
3, 3696, Note_off_c, 1, 78, 0
3, 3696, Note_on_c, 1, 74, 93
3, 3744, Note_off_c, 1, 74, 0
3, 3864, Note_on_c, 1, 74, 93
3, 3888, Note_off_c, 1, 74, 0
3, 3888, Note_on_c, 1, 72, 93
3, 3912, Note_off_c, 1, 72, 0
3, 3912, Note_on_c, 1, 76, 93
3, 3936, Note_off_c, 1, 76, 0
3, 3936, Note_on_c, 1, 74, 93
3, 3984, Note_off_c, 1, 74, 0
3, 3984, Note_on_c, 1, 71, 93
3, 4056, Note_off_c, 1, 71, 0
3, 4056, Note_on_c, 1, 69, 93
3, 4080, Note_off_c, 1, 69, 0
3, 4080, Note_on_c, 1, 67, 93
3, 4104, Note_off_c, 1, 67, 0
3, 4104, Note_on_c, 1, 71, 93
3, 4128, Note_off_c, 1, 71, 0
3, 4128, Note_on_c, 1, 69, 93
3, 4176, Note_off_c, 1, 69, 0
3, 4176, Note_on_c, 1, 67, 93
3, 4248, Note_off_c, 1, 67, 0
3, 4248, Note_on_c, 1, 66, 93
3, 4272, Note_off_c, 1, 66, 0
3, 4272, Note_on_c, 1, 64, 93
3, 4296, Note_off_c, 1, 64, 0
3, 4296, Note_on_c, 1, 67, 93
3, 4320, Note_off_c, 1, 67, 0
3, 4320, Note_on_c, 1, 66, 93
3, 4416, Note_off_c, 1, 66, 0
3, 4416, Note_on_c, 1, 67, 93
3, 4464, Note_off_c, 1, 67, 0
3, 4608, Note_on_c, 1, 67, 93
3, 4632, Note_off_c, 1, 67, 0
3, 4632, Note_on_c, 1, 69, 93
3, 4656, Note_off_c, 1, 69, 0
3, 4656, Note_on_c, 1, 71, 93
3, 4680, Note_off_c, 1, 71, 0
3, 4680, Note_on_c, 1, 74, 93
3, 4704, Note_off_c, 1, 74, 0
3, 4704, Note_on_c, 1, 76, 93
3, 4824, Note_off_c, 1, 76, 0
3, 4824, Note_on_c, 1, 74, 93
3, 4848, Note_off_c, 1, 74, 0
3, 4848, Note_on_c, 1, 73, 93
3, 4872, Note_off_c, 1, 73, 0
3, 4872, Note_on_c, 1, 76, 93
3, 4896, Note_off_c, 1, 76, 0
3, 4896, Note_on_c, 1, 74, 93
3, 4920, Note_off_c, 1, 74, 0
3, 4920, Note_on_c, 1, 73, 93
3, 4944, Note_off_c, 1, 73, 0
3, 4944, Note_on_c, 1, 71, 93
3, 4968, Note_off_c, 1, 71, 0
3, 4968, Note_on_c, 1, 69, 93
3, 4992, Note_off_c, 1, 69, 0
3, 4992, Note_on_c, 1, 67, 93
3, 5088, Note_off_c, 1, 67, 0
3, 5136, Note_on_c, 1, 79, 93
3, 5184, Note_off_c, 1, 79, 0
3, 5184, Note_on_c, 1, 76, 93
3, 5232, Note_off_c, 1, 76, 0
3, 5232, Note_on_c, 1, 73, 93
3, 5280, Note_off_c, 1, 73, 0
3, 5400, Note_on_c, 1, 69, 93
3, 5424, Note_off_c, 1, 69, 0
3, 5424, Note_on_c, 1, 67, 93
3, 5448, Note_off_c, 1, 67, 0
3, 5448, Note_on_c, 1, 71, 93
3, 5472, Note_off_c, 1, 71, 0
3, 5472, Note_on_c, 1, 69, 93
3, 5520, Note_off_c, 1, 69, 0
3, 5520, Note_on_c, 1, 66, 93
3, 5592, Note_off_c, 1, 66, 0
3, 5592, Note_on_c, 1, 64, 93
3, 5616, Note_off_c, 1, 64, 0
3, 5616, Note_on_c, 1, 62, 93
3, 5640, Note_off_c, 1, 62, 0
3, 5640, Note_on_c, 1, 66, 93
3, 5664, Note_off_c, 1, 66, 0
3, 5664, Note_on_c, 1, 64, 93
3, 5712, Note_off_c, 1, 64, 0
3, 5712, Note_on_c, 1, 62, 93
3, 5784, Note_off_c, 1, 62, 0
3, 5784, Note_on_c, 1, 61, 93
3, 5808, Note_off_c, 1, 61, 0
3, 5808, Note_on_c, 1, 59, 93
3, 5832, Note_off_c, 1, 59, 0
3, 5832, Note_on_c, 1, 62, 93
3, 5856, Note_off_c, 1, 62, 0
3, 5856, Note_on_c, 1, 61, 93
3, 5952, Note_off_c, 1, 61, 0
3, 5952, Note_on_c, 1, 62, 93
3, 6048, Note_off_c, 1, 62, 0
3, 6168, Note_on_c, 1, 78, 93
3, 6192, Note_off_c, 1, 78, 0
3, 6192, Note_on_c, 1, 76, 93
3, 6216, Note_off_c, 1, 76, 0
3, 6216, Note_on_c, 1, 79, 93
3, 6240, Note_off_c, 1, 79, 0
3, 6240, Note_on_c, 1, 78, 93
3, 6264, Note_off_c, 1, 78, 0
3, 6264, Note_on_c, 1, 76, 93
3, 6288, Note_off_c, 1, 76, 0
3, 6288, Note_on_c, 1, 74, 93
3, 6312, Note_off_c, 1, 74, 0
3, 6312, Note_on_c, 1, 73, 93
3, 6336, Note_off_c, 1, 73, 0
3, 6336, Note_on_c, 1, 74, 93
3, 6432, Note_off_c, 1, 74, 0
3, 6480, Note_on_c, 1, 71, 93
3, 6528, Note_off_c, 1, 71, 0
3, 6528, Note_on_c, 1, 67, 93
3, 6576, Note_off_c, 1, 67, 0
3, 6576, Note_on_c, 1, 64, 93
3, 6624, Note_off_c, 1, 64, 0
3, 6624, Note_on_c, 1, 69, 93
3, 6744, Note_off_c, 1, 69, 0
3, 6744, Note_on_c, 1, 67, 93
3, 6768, Note_off_c, 1, 67, 0
3, 6768, Note_on_c, 1, 66, 93
3, 6792, Note_off_c, 1, 66, 0
3, 6792, Note_on_c, 1, 69, 93
3, 6816, Note_off_c, 1, 69, 0
3, 6816, Note_on_c, 1, 67, 93
3, 6840, Note_off_c, 1, 67, 0
3, 6840, Note_on_c, 1, 66, 93
3, 6864, Note_off_c, 1, 66, 0
3, 6864, Note_on_c, 1, 64, 93
3, 6888, Note_off_c, 1, 64, 0
3, 6888, Note_on_c, 1, 63, 93
3, 6912, Note_off_c, 1, 63, 0
3, 6912, Note_on_c, 1, 64, 93
3, 6936, Note_off_c, 1, 64, 0
3, 6936, Note_on_c, 1, 71, 93
3, 6960, Note_off_c, 1, 71, 0
3, 6960, Note_on_c, 1, 69, 93
3, 6984, Note_off_c, 1, 69, 0
3, 6984, Note_on_c, 1, 72, 93
3, 7008, Note_off_c, 1, 72, 0
3, 7008, Note_on_c, 1, 71, 93
3, 7056, Note_off_c, 1, 71, 0
3, 7056, Note_on_c, 1, 67, 93
3, 7128, Note_off_c, 1, 67, 0
3, 7128, Note_on_c, 1, 66, 93
3, 7152, Note_off_c, 1, 66, 0
3, 7152, Note_on_c, 1, 64, 93
3, 7176, Note_off_c, 1, 64, 0
3, 7176, Note_on_c, 1, 67, 93
3, 7200, Note_off_c, 1, 67, 0
3, 7200, Note_on_c, 1, 66, 93
3, 7248, Note_off_c, 1, 66, 0
3, 7248, Note_on_c, 1, 64, 93
3, 7320, Note_off_c, 1, 64, 0
3, 7320, Note_on_c, 1, 63, 93
3, 7344, Note_off_c, 1, 63, 0
3, 7344, Note_on_c, 1, 61, 93
3, 7368, Note_off_c, 1, 61, 0
3, 7368, Note_on_c, 1, 64, 93
3, 7392, Note_off_c, 1, 64, 0
3, 7392, Note_on_c, 1, 63, 93
3, 7488, Note_off_c, 1, 63, 0
3, 7488, Note_on_c, 1, 64, 93
3, 7584, Note_off_c, 1, 64, 0
3, 7584, Note_on_c, 1, 71, 93
3, 7704, Note_off_c, 1, 71, 0
3, 7704, Note_on_c, 1, 69, 93
3, 7728, Note_off_c, 1, 69, 0
3, 7728, Note_on_c, 1, 67, 93
3, 7752, Note_off_c, 1, 67, 0
3, 7752, Note_on_c, 1, 71, 93
3, 7776, Note_off_c, 1, 71, 0
3, 7776, Note_on_c, 1, 69, 93
3, 7800, Note_off_c, 1, 69, 0
3, 7800, Note_on_c, 1, 67, 93
3, 7824, Note_off_c, 1, 67, 0
3, 7824, Note_on_c, 1, 66, 93
3, 7848, Note_off_c, 1, 66, 0
3, 7848, Note_on_c, 1, 64, 93
3, 7872, Note_off_c, 1, 64, 0
3, 7872, Note_on_c, 1, 62, 93
3, 7968, Note_off_c, 1, 62, 0
3, 7968, Note_on_c, 1, 67, 93
3, 8088, Note_off_c, 1, 67, 0
3, 8088, Note_on_c, 1, 66, 93
3, 8112, Note_off_c, 1, 66, 0
3, 8112, Note_on_c, 1, 64, 93
3, 8136, Note_off_c, 1, 64, 0
3, 8136, Note_on_c, 1, 67, 93
3, 8160, Note_off_c, 1, 67, 0
3, 8160, Note_on_c, 1, 66, 93
3, 8184, Note_off_c, 1, 66, 0
3, 8184, Note_on_c, 1, 64, 93
3, 8208, Note_off_c, 1, 64, 0
3, 8208, Note_on_c, 1, 62, 93
3, 8232, Note_off_c, 1, 62, 0
3, 8232, Note_on_c, 1, 60, 93
3, 8256, Note_off_c, 1, 60, 0
3, 8256, Note_on_c, 1, 62, 93
3, 8352, Note_off_c, 1, 62, 0
3, 8448, Note_on_c, 1, 74, 93
3, 8544, Note_off_c, 1, 74, 0
3, 8544, Note_on_c, 1, 77, 93
3, 8664, Note_off_c, 1, 77, 0
3, 8664, Note_on_c, 1, 76, 93
3, 8688, Note_off_c, 1, 76, 0
3, 8688, Note_on_c, 1, 74, 93
3, 8712, Note_off_c, 1, 74, 0
3, 8712, Note_on_c, 1, 77, 93
3, 8736, Note_off_c, 1, 77, 0
3, 8736, Note_on_c, 1, 76, 93
3, 8760, Note_off_c, 1, 76, 0
3, 8760, Note_on_c, 1, 79, 93
3, 8784, Note_off_c, 1, 79, 0
3, 8784, Note_on_c, 1, 78, 93
3, 8808, Note_off_c, 1, 78, 0
3, 8808, Note_on_c, 1, 79, 93
3, 8832, Note_off_c, 1, 79, 0
3, 8832, Note_on_c, 1, 81, 93
3, 8880, Note_off_c, 1, 81, 0
3, 8880, Note_on_c, 1, 74, 93
3, 8952, Note_off_c, 1, 74, 0
3, 8952, Note_on_c, 1, 72, 93
3, 8976, Note_off_c, 1, 72, 0
3, 8976, Note_on_c, 1, 71, 93
3, 9000, Note_off_c, 1, 71, 0
3, 9000, Note_on_c, 1, 69, 93
3, 9024, Note_off_c, 1, 69, 0
3, 9024, Note_on_c, 1, 71, 93
3, 9120, Note_off_c, 1, 71, 0
3, 9240, Note_on_c, 1, 78, 93
3, 9264, Note_off_c, 1, 78, 0
3, 9264, Note_on_c, 1, 76, 93
3, 9288, Note_off_c, 1, 76, 0
3, 9288, Note_on_c, 1, 79, 93
3, 9312, Note_off_c, 1, 79, 0
3, 9312, Note_on_c, 1, 78, 93
3, 9336, Note_off_c, 1, 78, 0
3, 9336, Note_on_c, 1, 76, 93
3, 9360, Note_off_c, 1, 76, 0
3, 9360, Note_on_c, 1, 74, 93
3, 9384, Note_off_c, 1, 74, 0
3, 9384, Note_on_c, 1, 73, 93
3, 9408, Note_off_c, 1, 73, 0
3, 9408, Note_on_c, 1, 74, 93
3, 9504, Note_off_c, 1, 74, 0
3, 9552, Note_on_c, 1, 71, 93
3, 9600, Note_off_c, 1, 71, 0
3, 9600, Note_on_c, 1, 67, 93
3, 9648, Note_off_c, 1, 67, 0
3, 9648, Note_on_c, 1, 64, 93
3, 9696, Note_off_c, 1, 64, 0
3, 9696, Note_on_c, 1, 69, 93
3, 9816, Note_off_c, 1, 69, 0
3, 9816, Note_on_c, 1, 67, 93
3, 9840, Note_off_c, 1, 67, 0
3, 9840, Note_on_c, 1, 66, 93
3, 9864, Note_off_c, 1, 66, 0
3, 9864, Note_on_c, 1, 69, 93
3, 9888, Note_off_c, 1, 69, 0
3, 9888, Note_on_c, 1, 67, 93
3, 9912, Note_off_c, 1, 67, 0
3, 9912, Note_on_c, 1, 66, 93
3, 9936, Note_off_c, 1, 66, 0
3, 9936, Note_on_c, 1, 64, 93
3, 9960, Note_off_c, 1, 64, 0
3, 9960, Note_on_c, 1, 63, 93
3, 9984, Note_off_c, 1, 63, 0
3, 9984, Note_on_c, 1, 64, 93
3, 10008, Note_off_c, 1, 64, 0
3, 10008, Note_on_c, 1, 71, 93
3, 10032, Note_off_c, 1, 71, 0
3, 10032, Note_on_c, 1, 69, 93
3, 10056, Note_off_c, 1, 69, 0
3, 10056, Note_on_c, 1, 72, 93
3, 10080, Note_off_c, 1, 72, 0
3, 10080, Note_on_c, 1, 71, 93
3, 10128, Note_off_c, 1, 71, 0
3, 10128, Note_on_c, 1, 67, 93
3, 10200, Note_off_c, 1, 67, 0
3, 10200, Note_on_c, 1, 66, 93
3, 10224, Note_off_c, 1, 66, 0
3, 10224, Note_on_c, 1, 64, 93
3, 10248, Note_off_c, 1, 64, 0
3, 10248, Note_on_c, 1, 67, 93
3, 10272, Note_off_c, 1, 67, 0
3, 10272, Note_on_c, 1, 66, 93
3, 10320, Note_off_c, 1, 66, 0
3, 10320, Note_on_c, 1, 64, 93
3, 10392, Note_off_c, 1, 64, 0
3, 10392, Note_on_c, 1, 63, 93
3, 10416, Note_off_c, 1, 63, 0
3, 10416, Note_on_c, 1, 61, 93
3, 10440, Note_off_c, 1, 61, 0
3, 10440, Note_on_c, 1, 64, 93
3, 10464, Note_off_c, 1, 64, 0
3, 10464, Note_on_c, 1, 63, 93
3, 10560, Note_off_c, 1, 63, 0
3, 10560, Note_on_c, 1, 64, 93
3, 10656, Note_off_c, 1, 64, 0
3, 10656, Note_on_c, 1, 71, 93
3, 10776, Note_off_c, 1, 71, 0
3, 10776, Note_on_c, 1, 69, 93
3, 10800, Note_off_c, 1, 69, 0
3, 10800, Note_on_c, 1, 67, 93
3, 10824, Note_off_c, 1, 67, 0
3, 10824, Note_on_c, 1, 71, 93
3, 10848, Note_off_c, 1, 71, 0
3, 10848, Note_on_c, 1, 69, 93
3, 10872, Note_off_c, 1, 69, 0
3, 10872, Note_on_c, 1, 67, 93
3, 10896, Note_off_c, 1, 67, 0
3, 10896, Note_on_c, 1, 66, 93
3, 10920, Note_off_c, 1, 66, 0
3, 10920, Note_on_c, 1, 64, 93
3, 10944, Note_off_c, 1, 64, 0
3, 10944, Note_on_c, 1, 62, 93
3, 11040, Note_off_c, 1, 62, 0
3, 11040, Note_on_c, 1, 67, 93
3, 11160, Note_off_c, 1, 67, 0
3, 11160, Note_on_c, 1, 66, 93
3, 11184, Note_off_c, 1, 66, 0
3, 11184, Note_on_c, 1, 64, 93
3, 11208, Note_off_c, 1, 64, 0
3, 11208, Note_on_c, 1, 67, 93
3, 11232, Note_off_c, 1, 67, 0
3, 11232, Note_on_c, 1, 66, 93
3, 11256, Note_off_c, 1, 66, 0
3, 11256, Note_on_c, 1, 64, 93
3, 11280, Note_off_c, 1, 64, 0
3, 11280, Note_on_c, 1, 62, 93
3, 11304, Note_off_c, 1, 62, 0
3, 11304, Note_on_c, 1, 60, 93
3, 11328, Note_off_c, 1, 60, 0
3, 11328, Note_on_c, 1, 62, 93
3, 11424, Note_off_c, 1, 62, 0
3, 11520, Note_on_c, 1, 74, 93
3, 11616, Note_off_c, 1, 74, 0
3, 11616, Note_on_c, 1, 77, 93
3, 11736, Note_off_c, 1, 77, 0
3, 11736, Note_on_c, 1, 76, 93
3, 11760, Note_off_c, 1, 76, 0
3, 11760, Note_on_c, 1, 74, 93
3, 11784, Note_off_c, 1, 74, 0
3, 11784, Note_on_c, 1, 77, 93
3, 11808, Note_off_c, 1, 77, 0
3, 11808, Note_on_c, 1, 76, 93
3, 11832, Note_off_c, 1, 76, 0
3, 11832, Note_on_c, 1, 79, 93
3, 11856, Note_off_c, 1, 79, 0
3, 11856, Note_on_c, 1, 78, 93
3, 11880, Note_off_c, 1, 78, 0
3, 11880, Note_on_c, 1, 79, 93
3, 11904, Note_off_c, 1, 79, 0
3, 11904, Note_on_c, 1, 81, 93
3, 11952, Note_off_c, 1, 81, 0
3, 11952, Note_on_c, 1, 74, 93
3, 12024, Note_off_c, 1, 74, 0
3, 12024, Note_on_c, 1, 72, 93
3, 12048, Note_off_c, 1, 72, 0
3, 12048, Note_on_c, 1, 71, 93
3, 12072, Note_off_c, 1, 71, 0
3, 12072, Note_on_c, 1, 69, 93
3, 12096, Note_off_c, 1, 69, 0
3, 12096, Note_on_c, 1, 71, 93
3, 12192, Note_off_c, 1, 71, 0
3, 12192, End_track
4, 0, Start_track
4, 0, Title_t, "Track4"
4, 0, Program_c, 2, 6
4, 0, Control_c, 2, 7, 100
4, 0, Control_c, 2, 10, 54
4, 0, Note_on_c, 2, 55, 93
4, 48, Note_off_c, 2, 55, 0
4, 48, Note_on_c, 2, 54, 93
4, 96, Note_off_c, 2, 54, 0
4, 96, Note_on_c, 2, 55, 93
4, 144, Note_off_c, 2, 55, 0
4, 144, Note_on_c, 2, 52, 93
4, 192, Note_off_c, 2, 52, 0
4, 192, Note_on_c, 2, 54, 93
4, 240, Note_off_c, 2, 54, 0
4, 240, Note_on_c, 2, 52, 93
4, 288, Note_off_c, 2, 52, 0
4, 288, Note_on_c, 2, 54, 93
4, 336, Note_off_c, 2, 54, 0
4, 336, Note_on_c, 2, 50, 93
4, 384, Note_off_c, 2, 50, 0
4, 384, Note_on_c, 2, 52, 93
4, 432, Note_off_c, 2, 52, 0
4, 432, Note_on_c, 2, 50, 93
4, 480, Note_off_c, 2, 50, 0
4, 480, Note_on_c, 2, 52, 93
4, 528, Note_off_c, 2, 52, 0
4, 528, Note_on_c, 2, 48, 93
4, 576, Note_off_c, 2, 48, 0
4, 576, Note_on_c, 2, 50, 93
4, 624, Note_off_c, 2, 50, 0
4, 624, Note_on_c, 2, 38, 93
4, 672, Note_off_c, 2, 38, 0
4, 672, Note_on_c, 2, 50, 93
4, 696, Note_off_c, 2, 50, 0
4, 696, Note_on_c, 2, 48, 93
4, 720, Note_off_c, 2, 48, 0
4, 720, Note_on_c, 2, 47, 93
4, 744, Note_off_c, 2, 47, 0
4, 744, Note_on_c, 2, 45, 93
4, 768, Note_off_c, 2, 45, 0
4, 768, Note_on_c, 2, 47, 93
4, 816, Note_off_c, 2, 47, 0
4, 816, Note_on_c, 2, 45, 93
4, 864, Note_off_c, 2, 45, 0
4, 864, Note_on_c, 2, 47, 93
4, 912, Note_off_c, 2, 47, 0
4, 912, Note_on_c, 2, 43, 93
4, 960, Note_off_c, 2, 43, 0
4, 960, Note_on_c, 2, 48, 93
4, 1008, Note_off_c, 2, 48, 0
4, 1008, Note_on_c, 2, 47, 93
4, 1056, Note_off_c, 2, 47, 0
4, 1056, Note_on_c, 2, 48, 93
4, 1104, Note_off_c, 2, 48, 0
4, 1104, Note_on_c, 2, 45, 93
4, 1152, Note_off_c, 2, 45, 0
4, 1152, Note_on_c, 2, 50, 93
4, 1200, Note_off_c, 2, 50, 0
4, 1200, Note_on_c, 2, 48, 93
4, 1248, Note_off_c, 2, 48, 0
4, 1248, Note_on_c, 2, 50, 93
4, 1296, Note_off_c, 2, 50, 0
4, 1296, Note_on_c, 2, 38, 93
4, 1344, Note_off_c, 2, 38, 0
4, 1344, Note_on_c, 2, 43, 93
4, 1392, Note_off_c, 2, 43, 0
4, 1392, Note_on_c, 2, 55, 93
4, 1440, Note_off_c, 2, 55, 0
4, 1440, Note_on_c, 2, 59, 93
4, 1488, Note_off_c, 2, 59, 0
4, 1488, Note_on_c, 2, 62, 93
4, 1536, Note_off_c, 2, 62, 0
4, 1536, Note_on_c, 2, 67, 93
4, 1584, Note_off_c, 2, 67, 0
4, 1584, Note_on_c, 2, 66, 93
4, 1632, Note_off_c, 2, 66, 0
4, 1632, Note_on_c, 2, 67, 93
4, 1680, Note_off_c, 2, 67, 0
4, 1680, Note_on_c, 2, 64, 93
4, 1728, Note_off_c, 2, 64, 0
4, 1728, Note_on_c, 2, 66, 93
4, 1776, Note_off_c, 2, 66, 0
4, 1776, Note_on_c, 2, 64, 93
4, 1824, Note_off_c, 2, 64, 0
4, 1824, Note_on_c, 2, 66, 93
4, 1872, Note_off_c, 2, 66, 0
4, 1872, Note_on_c, 2, 62, 93
4, 1920, Note_off_c, 2, 62, 0
4, 1920, Note_on_c, 2, 64, 93
4, 1968, Note_off_c, 2, 64, 0
4, 1968, Note_on_c, 2, 62, 93
4, 2016, Note_off_c, 2, 62, 0
4, 2016, Note_on_c, 2, 64, 93
4, 2064, Note_off_c, 2, 64, 0
4, 2064, Note_on_c, 2, 59, 93
4, 2112, Note_off_c, 2, 59, 0
4, 2112, Note_on_c, 2, 61, 93
4, 2160, Note_off_c, 2, 61, 0
4, 2160, Note_on_c, 2, 64, 93
4, 2184, Note_off_c, 2, 64, 0
4, 2184, Note_on_c, 2, 62, 93
4, 2208, Note_off_c, 2, 62, 0
4, 2208, Note_on_c, 2, 61, 93
4, 2232, Note_off_c, 2, 61, 0
4, 2232, Note_on_c, 2, 59, 93
4, 2256, Note_off_c, 2, 59, 0
4, 2256, Note_on_c, 2, 57, 93
4, 2280, Note_off_c, 2, 57, 0
4, 2280, Note_on_c, 2, 55, 93
4, 2304, Note_off_c, 2, 55, 0
4, 2304, Note_on_c, 2, 54, 93
4, 2352, Note_off_c, 2, 54, 0
4, 2352, Note_on_c, 2, 52, 93
4, 2400, Note_off_c, 2, 52, 0
4, 2400, Note_on_c, 2, 54, 93
4, 2448, Note_off_c, 2, 54, 0
4, 2448, Note_on_c, 2, 50, 93
4, 2496, Note_off_c, 2, 50, 0
4, 2496, Note_on_c, 2, 55, 93
4, 2544, Note_off_c, 2, 55, 0
4, 2544, Note_on_c, 2, 54, 93
4, 2592, Note_off_c, 2, 54, 0
4, 2592, Note_on_c, 2, 55, 93
4, 2640, Note_off_c, 2, 55, 0
4, 2640, Note_on_c, 2, 52, 93
4, 2688, Note_off_c, 2, 52, 0
4, 2688, Note_on_c, 2, 57, 93
4, 2736, Note_off_c, 2, 57, 0
4, 2736, Note_on_c, 2, 55, 93
4, 2784, Note_off_c, 2, 55, 0
4, 2784, Note_on_c, 2, 57, 93
4, 2832, Note_off_c, 2, 57, 0
4, 2832, Note_on_c, 2, 45, 93
4, 2880, Note_off_c, 2, 45, 0
4, 2880, Note_on_c, 2, 50, 93
4, 2928, Note_off_c, 2, 50, 0
4, 2928, Note_on_c, 2, 62, 93
4, 2952, Note_off_c, 2, 62, 0
4, 2952, Note_on_c, 2, 60, 93
4, 2976, Note_off_c, 2, 60, 0
4, 2976, Note_on_c, 2, 62, 93
4, 3000, Note_off_c, 2, 62, 0
4, 3000, Note_on_c, 2, 60, 93
4, 3024, Note_off_c, 2, 60, 0
4, 3024, Note_on_c, 2, 59, 93
4, 3048, Note_off_c, 2, 59, 0
4, 3048, Note_on_c, 2, 57, 93
4, 3072, Note_off_c, 2, 57, 0
4, 3072, Note_on_c, 2, 55, 93
4, 3120, Note_off_c, 2, 55, 0
4, 3120, Note_on_c, 2, 54, 93
4, 3168, Note_off_c, 2, 54, 0
4, 3168, Note_on_c, 2, 55, 93
4, 3216, Note_off_c, 2, 55, 0
4, 3216, Note_on_c, 2, 52, 93
4, 3264, Note_off_c, 2, 52, 0
4, 3264, Note_on_c, 2, 54, 93
4, 3312, Note_off_c, 2, 54, 0
4, 3312, Note_on_c, 2, 52, 93
4, 3360, Note_off_c, 2, 52, 0
4, 3360, Note_on_c, 2, 54, 93
4, 3408, Note_off_c, 2, 54, 0
4, 3408, Note_on_c, 2, 50, 93
4, 3456, Note_off_c, 2, 50, 0
4, 3456, Note_on_c, 2, 52, 93
4, 3504, Note_off_c, 2, 52, 0
4, 3504, Note_on_c, 2, 50, 93
4, 3552, Note_off_c, 2, 50, 0
4, 3552, Note_on_c, 2, 52, 93
4, 3600, Note_off_c, 2, 52, 0
4, 3600, Note_on_c, 2, 48, 93
4, 3648, Note_off_c, 2, 48, 0
4, 3648, Note_on_c, 2, 50, 93
4, 3696, Note_off_c, 2, 50, 0
4, 3696, Note_on_c, 2, 38, 93
4, 3744, Note_off_c, 2, 38, 0
4, 3744, Note_on_c, 2, 50, 93
4, 3768, Note_off_c, 2, 50, 0
4, 3768, Note_on_c, 2, 48, 93
4, 3792, Note_off_c, 2, 48, 0
4, 3792, Note_on_c, 2, 47, 93
4, 3816, Note_off_c, 2, 47, 0
4, 3816, Note_on_c, 2, 45, 93
4, 3840, Note_off_c, 2, 45, 0
4, 3840, Note_on_c, 2, 47, 93
4, 3888, Note_off_c, 2, 47, 0
4, 3888, Note_on_c, 2, 45, 93
4, 3936, Note_off_c, 2, 45, 0
4, 3936, Note_on_c, 2, 47, 93
4, 3984, Note_off_c, 2, 47, 0
4, 3984, Note_on_c, 2, 43, 93
4, 4032, Note_off_c, 2, 43, 0
4, 4032, Note_on_c, 2, 48, 93
4, 4080, Note_off_c, 2, 48, 0
4, 4080, Note_on_c, 2, 47, 93
4, 4128, Note_off_c, 2, 47, 0
4, 4128, Note_on_c, 2, 48, 93
4, 4176, Note_off_c, 2, 48, 0
4, 4176, Note_on_c, 2, 45, 93
4, 4224, Note_off_c, 2, 45, 0
4, 4224, Note_on_c, 2, 50, 93
4, 4272, Note_off_c, 2, 50, 0
4, 4272, Note_on_c, 2, 48, 93
4, 4320, Note_off_c, 2, 48, 0
4, 4320, Note_on_c, 2, 50, 93
4, 4368, Note_off_c, 2, 50, 0
4, 4368, Note_on_c, 2, 38, 93
4, 4416, Note_off_c, 2, 38, 0
4, 4416, Note_on_c, 2, 43, 93
4, 4464, Note_off_c, 2, 43, 0
4, 4464, Note_on_c, 2, 55, 93
4, 4512, Note_off_c, 2, 55, 0
4, 4512, Note_on_c, 2, 59, 93
4, 4560, Note_off_c, 2, 59, 0
4, 4560, Note_on_c, 2, 62, 93
4, 4608, Note_off_c, 2, 62, 0
4, 4608, Note_on_c, 2, 67, 93
4, 4656, Note_off_c, 2, 67, 0
4, 4656, Note_on_c, 2, 66, 93
4, 4704, Note_off_c, 2, 66, 0
4, 4704, Note_on_c, 2, 67, 93
4, 4752, Note_off_c, 2, 67, 0
4, 4752, Note_on_c, 2, 64, 93
4, 4800, Note_off_c, 2, 64, 0
4, 4800, Note_on_c, 2, 66, 93
4, 4848, Note_off_c, 2, 66, 0
4, 4848, Note_on_c, 2, 64, 93
4, 4896, Note_off_c, 2, 64, 0
4, 4896, Note_on_c, 2, 66, 93
4, 4944, Note_off_c, 2, 66, 0
4, 4944, Note_on_c, 2, 62, 93
4, 4992, Note_off_c, 2, 62, 0
4, 4992, Note_on_c, 2, 64, 93
4, 5040, Note_off_c, 2, 64, 0
4, 5040, Note_on_c, 2, 62, 93
4, 5088, Note_off_c, 2, 62, 0
4, 5088, Note_on_c, 2, 64, 93
4, 5136, Note_off_c, 2, 64, 0
4, 5136, Note_on_c, 2, 59, 93
4, 5184, Note_off_c, 2, 59, 0
4, 5184, Note_on_c, 2, 61, 93
4, 5232, Note_off_c, 2, 61, 0
4, 5232, Note_on_c, 2, 64, 93
4, 5256, Note_off_c, 2, 64, 0
4, 5256, Note_on_c, 2, 62, 93
4, 5280, Note_off_c, 2, 62, 0
4, 5280, Note_on_c, 2, 61, 93
4, 5304, Note_off_c, 2, 61, 0
4, 5304, Note_on_c, 2, 59, 93
4, 5328, Note_off_c, 2, 59, 0
4, 5328, Note_on_c, 2, 57, 93
4, 5352, Note_off_c, 2, 57, 0
4, 5352, Note_on_c, 2, 55, 93
4, 5376, Note_off_c, 2, 55, 0
4, 5376, Note_on_c, 2, 54, 93
4, 5424, Note_off_c, 2, 54, 0
4, 5424, Note_on_c, 2, 52, 93
4, 5472, Note_off_c, 2, 52, 0
4, 5472, Note_on_c, 2, 54, 93
4, 5520, Note_off_c, 2, 54, 0
4, 5520, Note_on_c, 2, 50, 93
4, 5568, Note_off_c, 2, 50, 0
4, 5568, Note_on_c, 2, 55, 93
4, 5616, Note_off_c, 2, 55, 0
4, 5616, Note_on_c, 2, 54, 93
4, 5664, Note_off_c, 2, 54, 0
4, 5664, Note_on_c, 2, 55, 93
4, 5712, Note_off_c, 2, 55, 0
4, 5712, Note_on_c, 2, 52, 93
4, 5760, Note_off_c, 2, 52, 0
4, 5760, Note_on_c, 2, 57, 93
4, 5808, Note_off_c, 2, 57, 0
4, 5808, Note_on_c, 2, 55, 93
4, 5856, Note_off_c, 2, 55, 0
4, 5856, Note_on_c, 2, 57, 93
4, 5904, Note_off_c, 2, 57, 0
4, 5904, Note_on_c, 2, 45, 93
4, 5952, Note_off_c, 2, 45, 0
4, 5952, Note_on_c, 2, 50, 93
4, 6000, Note_off_c, 2, 50, 0
4, 6000, Note_on_c, 2, 45, 93
4, 6048, Note_off_c, 2, 45, 0
4, 6048, Note_on_c, 2, 38, 93
4, 6144, Note_off_c, 2, 38, 0
4, 6144, Note_on_c, 2, 62, 93
4, 6192, Note_off_c, 2, 62, 0
4, 6192, Note_on_c, 2, 61, 93
4, 6240, Note_off_c, 2, 61, 0
4, 6240, Note_on_c, 2, 62, 93
4, 6288, Note_off_c, 2, 62, 0
4, 6288, Note_on_c, 2, 57, 93
4, 6336, Note_off_c, 2, 57, 0
4, 6336, Note_on_c, 2, 59, 93
4, 6384, Note_off_c, 2, 59, 0
4, 6384, Note_on_c, 2, 57, 93
4, 6432, Note_off_c, 2, 57, 0
4, 6432, Note_on_c, 2, 59, 93
4, 6480, Note_off_c, 2, 59, 0
4, 6480, Note_on_c, 2, 55, 93
4, 6528, Note_off_c, 2, 55, 0
4, 6528, Note_on_c, 2, 60, 93
4, 6552, Note_off_c, 2, 60, 0
4, 6552, Note_on_c, 2, 48, 93
4, 6576, Note_off_c, 2, 48, 0
4, 6576, Note_on_c, 2, 47, 93
4, 6600, Note_off_c, 2, 47, 0
4, 6600, Note_on_c, 2, 50, 93
4, 6624, Note_off_c, 2, 50, 0
4, 6624, Note_on_c, 2, 48, 93
4, 6648, Note_off_c, 2, 48, 0
4, 6648, Note_on_c, 2, 47, 93
4, 6672, Note_off_c, 2, 47, 0
4, 6672, Note_on_c, 2, 45, 93
4, 6696, Note_off_c, 2, 45, 0
4, 6696, Note_on_c, 2, 48, 93
4, 6720, Note_off_c, 2, 48, 0
4, 6720, Note_on_c, 2, 47, 93
4, 6744, Note_off_c, 2, 47, 0
4, 6744, Note_on_c, 2, 59, 93
4, 6768, Note_off_c, 2, 59, 0
4, 6768, Note_on_c, 2, 57, 93
4, 6792, Note_off_c, 2, 57, 0
4, 6792, Note_on_c, 2, 60, 93
4, 6816, Note_off_c, 2, 60, 0
4, 6816, Note_on_c, 2, 59, 93
4, 6840, Note_off_c, 2, 59, 0
4, 6840, Note_on_c, 2, 57, 93
4, 6864, Note_off_c, 2, 57, 0
4, 6864, Note_on_c, 2, 55, 93
4, 6888, Note_off_c, 2, 55, 0
4, 6888, Note_on_c, 2, 54, 93
4, 6912, Note_off_c, 2, 54, 0
4, 6912, Note_on_c, 2, 55, 93
4, 6960, Note_off_c, 2, 55, 0
4, 6960, Note_on_c, 2, 54, 93
4, 7008, Note_off_c, 2, 54, 0
4, 7008, Note_on_c, 2, 55, 93
4, 7056, Note_off_c, 2, 55, 0
4, 7056, Note_on_c, 2, 52, 93
4, 7104, Note_off_c, 2, 52, 0
4, 7104, Note_on_c, 2, 57, 93
4, 7152, Note_off_c, 2, 57, 0
4, 7152, Note_on_c, 2, 55, 93
4, 7200, Note_off_c, 2, 55, 0
4, 7200, Note_on_c, 2, 57, 93
4, 7248, Note_off_c, 2, 57, 0
4, 7248, Note_on_c, 2, 54, 93
4, 7296, Note_off_c, 2, 54, 0
4, 7296, Note_on_c, 2, 59, 93
4, 7344, Note_off_c, 2, 59, 0
4, 7344, Note_on_c, 2, 58, 93
4, 7392, Note_off_c, 2, 58, 0
4, 7392, Note_on_c, 2, 59, 93
4, 7440, Note_off_c, 2, 59, 0
4, 7440, Note_on_c, 2, 47, 93
4, 7488, Note_off_c, 2, 47, 0
4, 7488, Note_on_c, 2, 40, 93
4, 7512, Note_off_c, 2, 40, 0
4, 7512, Note_on_c, 2, 52, 93
4, 7536, Note_off_c, 2, 52, 0
4, 7536, Note_on_c, 2, 51, 93
4, 7560, Note_off_c, 2, 51, 0
4, 7560, Note_on_c, 2, 54, 93
4, 7584, Note_off_c, 2, 54, 0
4, 7584, Note_on_c, 2, 52, 93
4, 7608, Note_off_c, 2, 52, 0
4, 7608, Note_on_c, 2, 50, 93
4, 7632, Note_off_c, 2, 50, 0
4, 7632, Note_on_c, 2, 48, 93
4, 7656, Note_off_c, 2, 48, 0
4, 7656, Note_on_c, 2, 47, 93
4, 7680, Note_off_c, 2, 47, 0
4, 7680, Note_on_c, 2, 48, 93
4, 7728, Note_off_c, 2, 48, 0
4, 7728, Note_on_c, 2, 47, 93
4, 7776, Note_off_c, 2, 47, 0
4, 7776, Note_on_c, 2, 48, 93
4, 7824, Note_off_c, 2, 48, 0
4, 7824, Note_on_c, 2, 57, 93
4, 7872, Note_off_c, 2, 57, 0
4, 7872, Note_on_c, 2, 47, 93
4, 7920, Note_off_c, 2, 47, 0
4, 7920, Note_on_c, 2, 45, 93
4, 7968, Note_off_c, 2, 45, 0
4, 7968, Note_on_c, 2, 47, 93
4, 8016, Note_off_c, 2, 47, 0
4, 8016, Note_on_c, 2, 55, 93
4, 8064, Note_off_c, 2, 55, 0
4, 8064, Note_on_c, 2, 45, 93
4, 8112, Note_off_c, 2, 45, 0
4, 8112, Note_on_c, 2, 43, 93
4, 8160, Note_off_c, 2, 43, 0
4, 8160, Note_on_c, 2, 45, 93
4, 8208, Note_off_c, 2, 45, 0
4, 8208, Note_on_c, 2, 55, 93
4, 8256, Note_off_c, 2, 55, 0
4, 8256, Note_on_c, 2, 54, 93
4, 8280, Note_off_c, 2, 54, 0
4, 8280, Note_on_c, 2, 50, 93
4, 8304, Note_off_c, 2, 50, 0
4, 8304, Note_on_c, 2, 48, 93
4, 8328, Note_off_c, 2, 48, 0
4, 8328, Note_on_c, 2, 52, 93
4, 8352, Note_off_c, 2, 52, 0
4, 8352, Note_on_c, 2, 50, 93
4, 8376, Note_off_c, 2, 50, 0
4, 8376, Note_on_c, 2, 48, 93
4, 8400, Note_off_c, 2, 48, 0
4, 8400, Note_on_c, 2, 47, 93
4, 8424, Note_off_c, 2, 47, 0
4, 8424, Note_on_c, 2, 45, 93
4, 8448, Note_off_c, 2, 45, 0
4, 8448, Note_on_c, 2, 43, 93
4, 8472, Note_off_c, 2, 43, 0
4, 8472, Note_on_c, 2, 55, 93
4, 8496, Note_off_c, 2, 55, 0
4, 8496, Note_on_c, 2, 53, 93
4, 8520, Note_off_c, 2, 53, 0
4, 8520, Note_on_c, 2, 57, 93
4, 8544, Note_off_c, 2, 57, 0
4, 8544, Note_on_c, 2, 55, 93
4, 8568, Note_off_c, 2, 55, 0
4, 8568, Note_on_c, 2, 53, 93
4, 8592, Note_off_c, 2, 53, 0
4, 8592, Note_on_c, 2, 52, 93
4, 8616, Note_off_c, 2, 52, 0
4, 8616, Note_on_c, 2, 50, 93
4, 8640, Note_off_c, 2, 50, 0
4, 8640, Note_on_c, 2, 48, 93
4, 8664, Note_off_c, 2, 48, 0
4, 8664, Note_on_c, 2, 60, 93
4, 8688, Note_off_c, 2, 60, 0
4, 8688, Note_on_c, 2, 59, 93
4, 8712, Note_off_c, 2, 59, 0
4, 8712, Note_on_c, 2, 62, 93
4, 8736, Note_off_c, 2, 62, 0
4, 8736, Note_on_c, 2, 60, 93
4, 8760, Note_off_c, 2, 60, 0
4, 8760, Note_on_c, 2, 59, 93
4, 8784, Note_off_c, 2, 59, 0
4, 8784, Note_on_c, 2, 57, 93
4, 8808, Note_off_c, 2, 57, 0
4, 8808, Note_on_c, 2, 55, 93
4, 8832, Note_off_c, 2, 55, 0
4, 8832, Note_on_c, 2, 54, 93
4, 8856, Note_off_c, 2, 54, 0
4, 8856, Note_on_c, 2, 55, 93
4, 8880, Note_off_c, 2, 55, 0
4, 8880, Note_on_c, 2, 54, 93
4, 8904, Note_off_c, 2, 54, 0
4, 8904, Note_on_c, 2, 57, 93
4, 8928, Note_off_c, 2, 57, 0
4, 8928, Note_on_c, 2, 47, 93
4, 8976, Note_off_c, 2, 47, 0
4, 8976, Note_on_c, 2, 50, 93
4, 9024, Note_off_c, 2, 50, 0
4, 9024, Note_on_c, 2, 43, 93
4, 9072, Note_off_c, 2, 43, 0
4, 9072, Note_on_c, 2, 55, 93
4, 9096, Note_off_c, 2, 55, 0
4, 9096, Note_on_c, 2, 54, 93
4, 9120, Note_off_c, 2, 54, 0
4, 9120, Note_on_c, 2, 55, 93
4, 9144, Note_off_c, 2, 55, 0
4, 9144, Note_on_c, 2, 57, 93
4, 9168, Note_off_c, 2, 57, 0
4, 9168, Note_on_c, 2, 59, 93
4, 9192, Note_off_c, 2, 59, 0
4, 9192, Note_on_c, 2, 60, 93
4, 9216, Note_off_c, 2, 60, 0
4, 9216, Note_on_c, 2, 62, 93
4, 9264, Note_off_c, 2, 62, 0
4, 9264, Note_on_c, 2, 61, 93
4, 9312, Note_off_c, 2, 61, 0
4, 9312, Note_on_c, 2, 62, 93
4, 9360, Note_off_c, 2, 62, 0
4, 9360, Note_on_c, 2, 57, 93
4, 9408, Note_off_c, 2, 57, 0
4, 9408, Note_on_c, 2, 59, 93
4, 9456, Note_off_c, 2, 59, 0
4, 9456, Note_on_c, 2, 57, 93
4, 9504, Note_off_c, 2, 57, 0
4, 9504, Note_on_c, 2, 59, 93
4, 9552, Note_off_c, 2, 59, 0
4, 9552, Note_on_c, 2, 55, 93
4, 9600, Note_off_c, 2, 55, 0
4, 9600, Note_on_c, 2, 60, 93
4, 9624, Note_off_c, 2, 60, 0
4, 9624, Note_on_c, 2, 48, 93
4, 9648, Note_off_c, 2, 48, 0
4, 9648, Note_on_c, 2, 47, 93
4, 9672, Note_off_c, 2, 47, 0
4, 9672, Note_on_c, 2, 50, 93
4, 9696, Note_off_c, 2, 50, 0
4, 9696, Note_on_c, 2, 48, 93
4, 9720, Note_off_c, 2, 48, 0
4, 9720, Note_on_c, 2, 47, 93
4, 9744, Note_off_c, 2, 47, 0
4, 9744, Note_on_c, 2, 45, 93
4, 9768, Note_off_c, 2, 45, 0
4, 9768, Note_on_c, 2, 48, 93
4, 9792, Note_off_c, 2, 48, 0
4, 9792, Note_on_c, 2, 47, 93
4, 9816, Note_off_c, 2, 47, 0
4, 9816, Note_on_c, 2, 59, 93
4, 9840, Note_off_c, 2, 59, 0
4, 9840, Note_on_c, 2, 57, 93
4, 9864, Note_off_c, 2, 57, 0
4, 9864, Note_on_c, 2, 60, 93
4, 9888, Note_off_c, 2, 60, 0
4, 9888, Note_on_c, 2, 59, 93
4, 9912, Note_off_c, 2, 59, 0
4, 9912, Note_on_c, 2, 57, 93
4, 9936, Note_off_c, 2, 57, 0
4, 9936, Note_on_c, 2, 55, 93
4, 9960, Note_off_c, 2, 55, 0
4, 9960, Note_on_c, 2, 54, 93
4, 9984, Note_off_c, 2, 54, 0
4, 9984, Note_on_c, 2, 55, 93
4, 10032, Note_off_c, 2, 55, 0
4, 10032, Note_on_c, 2, 54, 93
4, 10080, Note_off_c, 2, 54, 0
4, 10080, Note_on_c, 2, 55, 93
4, 10128, Note_off_c, 2, 55, 0
4, 10128, Note_on_c, 2, 52, 93
4, 10176, Note_off_c, 2, 52, 0
4, 10176, Note_on_c, 2, 57, 93
4, 10224, Note_off_c, 2, 57, 0
4, 10224, Note_on_c, 2, 55, 93
4, 10272, Note_off_c, 2, 55, 0
4, 10272, Note_on_c, 2, 57, 93
4, 10320, Note_off_c, 2, 57, 0
4, 10320, Note_on_c, 2, 54, 93
4, 10368, Note_off_c, 2, 54, 0
4, 10368, Note_on_c, 2, 59, 93
4, 10416, Note_off_c, 2, 59, 0
4, 10416, Note_on_c, 2, 58, 93
4, 10464, Note_off_c, 2, 58, 0
4, 10464, Note_on_c, 2, 59, 93
4, 10512, Note_off_c, 2, 59, 0
4, 10512, Note_on_c, 2, 47, 93
4, 10560, Note_off_c, 2, 47, 0
4, 10560, Note_on_c, 2, 40, 93
4, 10584, Note_off_c, 2, 40, 0
4, 10584, Note_on_c, 2, 52, 93
4, 10608, Note_off_c, 2, 52, 0
4, 10608, Note_on_c, 2, 51, 93
4, 10632, Note_off_c, 2, 51, 0
4, 10632, Note_on_c, 2, 54, 93
4, 10656, Note_off_c, 2, 54, 0
4, 10656, Note_on_c, 2, 52, 93
4, 10680, Note_off_c, 2, 52, 0
4, 10680, Note_on_c, 2, 50, 93
4, 10704, Note_off_c, 2, 50, 0
4, 10704, Note_on_c, 2, 48, 93
4, 10728, Note_off_c, 2, 48, 0
4, 10728, Note_on_c, 2, 47, 93
4, 10752, Note_off_c, 2, 47, 0
4, 10752, Note_on_c, 2, 48, 93
4, 10800, Note_off_c, 2, 48, 0
4, 10800, Note_on_c, 2, 47, 93
4, 10848, Note_off_c, 2, 47, 0
4, 10848, Note_on_c, 2, 48, 93
4, 10896, Note_off_c, 2, 48, 0
4, 10896, Note_on_c, 2, 57, 93
4, 10944, Note_off_c, 2, 57, 0
4, 10944, Note_on_c, 2, 47, 93
4, 10992, Note_off_c, 2, 47, 0
4, 10992, Note_on_c, 2, 45, 93
4, 11040, Note_off_c, 2, 45, 0
4, 11040, Note_on_c, 2, 47, 93
4, 11088, Note_off_c, 2, 47, 0
4, 11088, Note_on_c, 2, 55, 93
4, 11136, Note_off_c, 2, 55, 0
4, 11136, Note_on_c, 2, 45, 93
4, 11184, Note_off_c, 2, 45, 0
4, 11184, Note_on_c, 2, 43, 93
4, 11232, Note_off_c, 2, 43, 0
4, 11232, Note_on_c, 2, 45, 93
4, 11280, Note_off_c, 2, 45, 0
4, 11280, Note_on_c, 2, 55, 93
4, 11328, Note_off_c, 2, 55, 0
4, 11328, Note_on_c, 2, 54, 93
4, 11352, Note_off_c, 2, 54, 0
4, 11352, Note_on_c, 2, 50, 93
4, 11376, Note_off_c, 2, 50, 0
4, 11376, Note_on_c, 2, 48, 93
4, 11400, Note_off_c, 2, 48, 0
4, 11400, Note_on_c, 2, 52, 93
4, 11424, Note_off_c, 2, 52, 0
4, 11424, Note_on_c, 2, 50, 93
4, 11448, Note_off_c, 2, 50, 0
4, 11448, Note_on_c, 2, 48, 93
4, 11472, Note_off_c, 2, 48, 0
4, 11472, Note_on_c, 2, 47, 93
4, 11496, Note_off_c, 2, 47, 0
4, 11496, Note_on_c, 2, 45, 93
4, 11520, Note_off_c, 2, 45, 0
4, 11520, Note_on_c, 2, 43, 93
4, 11544, Note_off_c, 2, 43, 0
4, 11544, Note_on_c, 2, 55, 93
4, 11568, Note_off_c, 2, 55, 0
4, 11568, Note_on_c, 2, 53, 93
4, 11592, Note_off_c, 2, 53, 0
4, 11592, Note_on_c, 2, 57, 93
4, 11616, Note_off_c, 2, 57, 0
4, 11616, Note_on_c, 2, 55, 93
4, 11640, Note_off_c, 2, 55, 0
4, 11640, Note_on_c, 2, 53, 93
4, 11664, Note_off_c, 2, 53, 0
4, 11664, Note_on_c, 2, 52, 93
4, 11688, Note_off_c, 2, 52, 0
4, 11688, Note_on_c, 2, 50, 93
4, 11712, Note_off_c, 2, 50, 0
4, 11712, Note_on_c, 2, 48, 93
4, 11736, Note_off_c, 2, 48, 0
4, 11736, Note_on_c, 2, 60, 93
4, 11760, Note_off_c, 2, 60, 0
4, 11760, Note_on_c, 2, 59, 93
4, 11784, Note_off_c, 2, 59, 0
4, 11784, Note_on_c, 2, 62, 93
4, 11808, Note_off_c, 2, 62, 0
4, 11808, Note_on_c, 2, 60, 93
4, 11832, Note_off_c, 2, 60, 0
4, 11832, Note_on_c, 2, 59, 93
4, 11856, Note_off_c, 2, 59, 0
4, 11856, Note_on_c, 2, 57, 93
4, 11880, Note_off_c, 2, 57, 0
4, 11880, Note_on_c, 2, 55, 93
4, 11904, Note_off_c, 2, 55, 0
4, 11904, Note_on_c, 2, 54, 93
4, 11928, Note_off_c, 2, 54, 0
4, 11928, Note_on_c, 2, 55, 93
4, 11952, Note_off_c, 2, 55, 0
4, 11952, Note_on_c, 2, 54, 93
4, 11976, Note_off_c, 2, 54, 0
4, 11976, Note_on_c, 2, 57, 93
4, 12000, Note_off_c, 2, 57, 0
4, 12000, Note_on_c, 2, 47, 93
4, 12048, Note_off_c, 2, 47, 0
4, 12048, Note_on_c, 2, 50, 93
4, 12096, Note_off_c, 2, 50, 0
4, 12096, Note_on_c, 2, 55, 93
4, 12144, Note_off_c, 2, 55, 0
4, 12144, Note_on_c, 2, 50, 93
4, 12192, Note_off_c, 2, 50, 0
4, 12192, Note_on_c, 2, 43, 93
4, 12288, Note_off_c, 2, 43, 0
4, 12288, End_track
0, 0, End_of_file
