0, 0, Header, 1, 3, 96
1, 0, Start_track
1, 0, Time_signature, 4, 2, 24, 8
1, 0, Title_t, "untitled"
1, 0, Title_t, "Track1"
1, 0, Tempo, 600000
1, 18336, Tempo, 1200000
1, 18336, End_track
2, 0, Start_track
2, 0, Title_t, "Track2"
2, 0, Program_c, 0, 6
2, 0, Control_c, 0, 7, 100
2, 0, Control_c, 0, 10, 69
2, 72, Note_on_c, 0, 59, 93
2, 96, Note_off_c, 0, 59, 0
2, 120, Note_on_c, 0, 59, 93
2, 144, Note_off_c, 0, 59, 0
2, 168, Note_on_c, 0, 59, 93
2, 192, Note_off_c, 0, 59, 0
2, 216, Note_on_c, 0, 59, 93
2, 240, Note_off_c, 0, 59, 0
2, 264, Note_on_c, 0, 59, 93
2, 288, Note_off_c, 0, 59, 0
2, 360, Note_on_c, 0, 66, 93
2, 384, Note_off_c, 0, 66, 0
2, 408, Note_on_c, 0, 66, 93
2, 432, Note_off_c, 0, 66, 0
2, 456, Note_on_c, 0, 66, 93
2, 480, Note_off_c, 0, 66, 0
2, 504, Note_on_c, 0, 66, 93
2, 528, Note_off_c, 0, 66, 0
2, 552, Note_on_c, 0, 66, 93
2, 576, Note_off_c, 0, 66, 0
2, 648, Note_on_c, 0, 71, 93
2, 672, Note_off_c, 0, 71, 0
2, 696, Note_on_c, 0, 76, 93
2, 720, Note_off_c, 0, 76, 0
2, 744, Note_on_c, 0, 76, 93
2, 768, Note_off_c, 0, 76, 0
2, 792, Note_on_c, 0, 76, 93
2, 816, Note_off_c, 0, 76, 0
2, 840, Note_on_c, 0, 76, 93
2, 864, Note_off_c, 0, 76, 0
2, 864, Note_on_c, 0, 74, 93
2, 888, Note_off_c, 0, 74, 0
2, 978, Note_on_c, 0, 84, 93
2, 990, Note_off_c, 0, 84, 0
2, 990, Note_on_c, 0, 83, 93
2, 1008, Note_off_c, 0, 83, 0
2, 1008, Note_on_c, 0, 72, 93
2, 1026, Note_off_c, 0, 72, 0
2, 1026, Note_on_c, 0, 83, 93
2, 1038, Note_off_c, 0, 83, 0
2, 1038, Note_on_c, 0, 81, 93
2, 1056, Note_off_c, 0, 81, 0
2, 1056, Note_on_c, 0, 71, 93
2, 1074, Note_off_c, 0, 71, 0
2, 1074, Note_on_c, 0, 81, 93
2, 1086, Note_off_c, 0, 81, 0
2, 1086, Note_on_c, 0, 79, 93
2, 1104, Note_off_c, 0, 79, 0
2, 1104, Note_on_c, 0, 69, 93
2, 1122, Note_off_c, 0, 69, 0
2, 1122, Note_on_c, 0, 79, 93
2, 1134, Note_off_c, 0, 79, 0
2, 1134, Note_on_c, 0, 78, 93
2, 1152, Note_off_c, 0, 78, 0
2, 1152, Note_on_c, 0, 74, 93
2, 1200, Note_off_c, 0, 74, 0
2, 1224, Note_on_c, 0, 79, 93
2, 1248, Note_off_c, 0, 79, 0
2, 1272, Note_on_c, 0, 74, 93
2, 1296, Note_off_c, 0, 74, 0
2, 1320, Note_on_c, 0, 71, 93
2, 1344, Note_off_c, 0, 71, 0
2, 1368, Note_on_c, 0, 74, 93
2, 1392, Note_off_c, 0, 74, 0
2, 1416, Note_on_c, 0, 71, 93
2, 1440, Note_off_c, 0, 71, 0
2, 1512, Note_on_c, 0, 67, 93
2, 1536, Note_off_c, 0, 67, 0
2, 1560, Note_on_c, 0, 67, 93
2, 1584, Note_off_c, 0, 67, 0
2, 1608, Note_on_c, 0, 72, 93
2, 1632, Note_off_c, 0, 72, 0
2, 1656, Note_on_c, 0, 72, 93
2, 1680, Note_off_c, 0, 72, 0
2, 1704, Note_on_c, 0, 67, 93
2, 1728, Note_off_c, 0, 67, 0
2, 1800, Note_on_c, 0, 74, 93
2, 1824, Note_off_c, 0, 74, 0
2, 1848, Note_on_c, 0, 74, 93
2, 1872, Note_off_c, 0, 74, 0
2, 1896, Note_on_c, 0, 69, 93
2, 1920, Note_off_c, 0, 69, 0
2, 1944, Note_on_c, 0, 66, 93
2, 1968, Note_off_c, 0, 66, 0
2, 1992, Note_on_c, 0, 66, 93
2, 2016, Note_off_c, 0, 66, 0
2, 2016, Note_on_c, 0, 71, 93
2, 2040, Note_off_c, 0, 71, 0
2, 2130, Note_on_c, 0, 69, 93
2, 2142, Note_off_c, 0, 69, 0
2, 2142, Note_on_c, 0, 71, 93
2, 2160, Note_off_c, 0, 71, 0
2, 2160, Note_on_c, 0, 72, 93
2, 2178, Note_off_c, 0, 72, 0
2, 2178, Note_on_c, 0, 71, 93
2, 2190, Note_off_c, 0, 71, 0
2, 2190, Note_on_c, 0, 69, 93
2, 2208, Note_off_c, 0, 69, 0
2, 2208, Note_on_c, 0, 71, 93
2, 2226, Note_off_c, 0, 71, 0
2, 2226, Note_on_c, 0, 69, 93
2, 2238, Note_off_c, 0, 69, 0
2, 2238, Note_on_c, 0, 67, 93
2, 2256, Note_off_c, 0, 67, 0
2, 2256, Note_on_c, 0, 76, 93
2, 2274, Note_off_c, 0, 76, 0
2, 2274, Note_on_c, 0, 74, 93
2, 2286, Note_off_c, 0, 74, 0
2, 2286, Note_on_c, 0, 72, 93
2, 2304, Note_off_c, 0, 72, 0
2, 2304, Note_on_c, 0, 74, 93
2, 2322, Note_off_c, 0, 74, 0
2, 2334, Note_on_c, 0, 67, 93
2, 2352, Note_off_c, 0, 67, 0
2, 2352, Note_on_c, 0, 66, 93
2, 2370, Note_off_c, 0, 66, 0
2, 2370, Note_on_c, 0, 60, 93
2, 2382, Note_off_c, 0, 60, 0
2, 2430, Note_on_c, 0, 67, 93
2, 2448, Note_off_c, 0, 67, 0
2, 2448, Note_on_c, 0, 69, 93
2, 2466, Note_off_c, 0, 69, 0
2, 2466, Note_on_c, 0, 66, 93
2, 2478, Note_off_c, 0, 66, 0
2, 2526, Note_on_c, 0, 71, 93
2, 2544, Note_off_c, 0, 71, 0
2, 2544, Note_on_c, 0, 73, 93
2, 2562, Note_off_c, 0, 73, 0
2, 2562, Note_on_c, 0, 69, 93
2, 2574, Note_off_c, 0, 69, 0
2, 2622, Note_on_c, 0, 74, 93
2, 2640, Note_off_c, 0, 74, 0
2, 2640, Note_on_c, 0, 73, 93
2, 2658, Note_off_c, 0, 73, 0
2, 2658, Note_on_c, 0, 67, 93
2, 2670, Note_off_c, 0, 67, 0
2, 2718, Note_on_c, 0, 74, 93
2, 2736, Note_off_c, 0, 74, 0
2, 2736, Note_on_c, 0, 76, 93
2, 2754, Note_off_c, 0, 76, 0
2, 2754, Note_on_c, 0, 73, 93
2, 2766, Note_off_c, 0, 73, 0
2, 2814, Note_on_c, 0, 78, 93
2, 2832, Note_off_c, 0, 78, 0
2, 2832, Note_on_c, 0, 74, 93
2, 2850, Note_off_c, 0, 74, 0
2, 2850, Note_on_c, 0, 71, 93
2, 2862, Note_off_c, 0, 71, 0
2, 2910, Note_on_c, 0, 72, 93
2, 2928, Note_off_c, 0, 72, 0
2, 2928, Note_on_c, 0, 71, 93
2, 2946, Note_off_c, 0, 71, 0
2, 2946, Note_on_c, 0, 67, 93
2, 2958, Note_off_c, 0, 67, 0
2, 3006, Note_on_c, 0, 69, 93
2, 3024, Note_off_c, 0, 69, 0
2, 3024, Note_on_c, 0, 67, 93
2, 3042, Note_off_c, 0, 67, 0
2, 3042, Note_on_c, 0, 64, 93
2, 3054, Note_off_c, 0, 64, 0
2, 3102, Note_on_c, 0, 66, 93
2, 3120, Note_off_c, 0, 66, 0
2, 3120, Note_on_c, 0, 64, 93
2, 3138, Note_off_c, 0, 64, 0
2, 3138, Note_on_c, 0, 61, 93
2, 3150, Note_off_c, 0, 61, 0
2, 3198, Note_on_c, 0, 66, 93
2, 3216, Note_off_c, 0, 66, 0
2, 3216, Note_on_c, 0, 64, 93
2, 3234, Note_off_c, 0, 64, 0
2, 3234, Note_on_c, 0, 61, 93
2, 3246, Note_off_c, 0, 61, 0
2, 3294, Note_on_c, 0, 62, 93
2, 3312, Note_off_c, 0, 62, 0
2, 3312, Note_on_c, 0, 61, 93
2, 3330, Note_off_c, 0, 61, 0
2, 3330, Note_on_c, 0, 57, 93
2, 3342, Note_off_c, 0, 57, 0
2, 3390, Note_on_c, 0, 59, 93
2, 3408, Note_off_c, 0, 59, 0
2, 3408, Note_on_c, 0, 57, 93
2, 3426, Note_off_c, 0, 57, 0
2, 3426, Note_on_c, 0, 54, 93
2, 3438, Note_off_c, 0, 54, 0
2, 3486, Note_on_c, 0, 59, 93
2, 3504, Note_off_c, 0, 59, 0
2, 3504, Note_on_c, 0, 57, 93
2, 3522, Note_off_c, 0, 57, 0
2, 3522, Note_on_c, 0, 54, 93
2, 3534, Note_off_c, 0, 54, 0
2, 3582, Note_on_c, 0, 55, 93
2, 3600, Note_off_c, 0, 55, 0
2, 3600, Note_on_c, 0, 54, 93
2, 3618, Note_off_c, 0, 54, 0
2, 3618, Note_on_c, 0, 50, 93
2, 3630, Note_off_c, 0, 50, 0
2, 3678, Note_on_c, 0, 52, 93
2, 3696, Note_off_c, 0, 52, 0
2, 3696, Note_on_c, 0, 50, 93
2, 3714, Note_off_c, 0, 50, 0
2, 3714, Note_on_c, 0, 47, 93
2, 3726, Note_off_c, 0, 47, 0
2, 3774, Note_on_c, 0, 52, 93
2, 3792, Note_off_c, 0, 52, 0
2, 3792, Note_on_c, 0, 50, 93
2, 3810, Note_off_c, 0, 50, 0
2, 3810, Note_on_c, 0, 47, 93
2, 3822, Note_off_c, 0, 47, 0
2, 3870, Note_on_c, 0, 48, 93
2, 3888, Note_off_c, 0, 48, 0
2, 3888, Note_on_c, 0, 47, 93
2, 3906, Note_off_c, 0, 47, 0
2, 3906, Note_on_c, 0, 43, 93
2, 3918, Note_off_c, 0, 43, 0
2, 3966, Note_on_c, 0, 45, 93
2, 3984, Note_off_c, 0, 45, 0
2, 3984, Note_on_c, 0, 43, 93
2, 4002, Note_off_c, 0, 43, 0
2, 4002, Note_on_c, 0, 40, 93
2, 4014, Note_off_c, 0, 40, 0
2, 4050, Note_on_c, 0, 55, 93
2, 4062, Note_off_c, 0, 55, 0
2, 4062, Note_on_c, 0, 57, 93
2, 4080, Note_off_c, 0, 57, 0
2, 4080, Note_on_c, 0, 64, 93
2, 4098, Note_off_c, 0, 64, 0
2, 4098, Note_on_c, 0, 57, 93
2, 4110, Note_off_c, 0, 57, 0
2, 4110, Note_on_c, 0, 55, 93
2, 4128, Note_off_c, 0, 55, 0
2, 4146, Note_on_c, 0, 54, 93
2, 4158, Note_off_c, 0, 54, 0
2, 4158, Note_on_c, 0, 57, 93
2, 4176, Note_off_c, 0, 57, 0
2, 4176, Note_on_c, 0, 62, 93
2, 4194, Note_off_c, 0, 62, 0
2, 4194, Note_on_c, 0, 57, 93
2, 4206, Note_off_c, 0, 57, 0
2, 4206, Note_on_c, 0, 54, 93
2, 4224, Note_off_c, 0, 54, 0
2, 4242, Note_on_c, 0, 52, 93
2, 4254, Note_off_c, 0, 52, 0
2, 4254, Note_on_c, 0, 55, 93
2, 4272, Note_off_c, 0, 55, 0
2, 4272, Note_on_c, 0, 61, 93
2, 4290, Note_off_c, 0, 61, 0
2, 4290, Note_on_c, 0, 55, 93
2, 4302, Note_off_c, 0, 55, 0
2, 4302, Note_on_c, 0, 52, 93
2, 4320, Note_off_c, 0, 52, 0
2, 4392, Note_on_c, 0, 57, 93
2, 4416, Note_off_c, 0, 57, 0
2, 4440, Note_on_c, 0, 57, 93
2, 4464, Note_off_c, 0, 57, 0
2, 4488, Note_on_c, 0, 57, 93
2, 4512, Note_off_c, 0, 57, 0
2, 4680, Note_on_c, 0, 59, 93
2, 4704, Note_off_c, 0, 59, 0
2, 4728, Note_on_c, 0, 59, 93
2, 4752, Note_off_c, 0, 59, 0
2, 4776, Note_on_c, 0, 59, 93
2, 4800, Note_off_c, 0, 59, 0
2, 4824, Note_on_c, 0, 59, 93
2, 4848, Note_off_c, 0, 59, 0
2, 4872, Note_on_c, 0, 59, 93
2, 4896, Note_off_c, 0, 59, 0
2, 4968, Note_on_c, 0, 66, 93
2, 4992, Note_off_c, 0, 66, 0
2, 5016, Note_on_c, 0, 66, 93
2, 5040, Note_off_c, 0, 66, 0
2, 5064, Note_on_c, 0, 66, 93
2, 5088, Note_off_c, 0, 66, 0
2, 5112, Note_on_c, 0, 66, 93
2, 5136, Note_off_c, 0, 66, 0
2, 5160, Note_on_c, 0, 66, 93
2, 5184, Note_off_c, 0, 66, 0
2, 5256, Note_on_c, 0, 71, 93
2, 5280, Note_off_c, 0, 71, 0
2, 5304, Note_on_c, 0, 76, 93
2, 5328, Note_off_c, 0, 76, 0
2, 5352, Note_on_c, 0, 76, 93
2, 5376, Note_off_c, 0, 76, 0
2, 5400, Note_on_c, 0, 76, 93
2, 5424, Note_off_c, 0, 76, 0
2, 5448, Note_on_c, 0, 76, 93
2, 5472, Note_off_c, 0, 76, 0
2, 5472, Note_on_c, 0, 74, 93
2, 5496, Note_off_c, 0, 74, 0
2, 5586, Note_on_c, 0, 84, 93
2, 5598, Note_off_c, 0, 84, 0
2, 5598, Note_on_c, 0, 83, 93
2, 5616, Note_off_c, 0, 83, 0
2, 5616, Note_on_c, 0, 72, 93
2, 5634, Note_off_c, 0, 72, 0
2, 5634, Note_on_c, 0, 83, 93
2, 5646, Note_off_c, 0, 83, 0
2, 5646, Note_on_c, 0, 81, 93
2, 5664, Note_off_c, 0, 81, 0
2, 5664, Note_on_c, 0, 71, 93
2, 5682, Note_off_c, 0, 71, 0
2, 5682, Note_on_c, 0, 81, 93
2, 5694, Note_off_c, 0, 81, 0
2, 5694, Note_on_c, 0, 79, 93
2, 5712, Note_off_c, 0, 79, 0
2, 5712, Note_on_c, 0, 69, 93
2, 5730, Note_off_c, 0, 69, 0
2, 5730, Note_on_c, 0, 79, 93
2, 5742, Note_off_c, 0, 79, 0
2, 5742, Note_on_c, 0, 78, 93
2, 5760, Note_off_c, 0, 78, 0
2, 5760, Note_on_c, 0, 74, 93
2, 5808, Note_off_c, 0, 74, 0
2, 5832, Note_on_c, 0, 79, 93
2, 5856, Note_off_c, 0, 79, 0
2, 5880, Note_on_c, 0, 74, 93
2, 5904, Note_off_c, 0, 74, 0
2, 5928, Note_on_c, 0, 71, 93
2, 5952, Note_off_c, 0, 71, 0
2, 5976, Note_on_c, 0, 74, 93
2, 6000, Note_off_c, 0, 74, 0
2, 6024, Note_on_c, 0, 71, 93
2, 6048, Note_off_c, 0, 71, 0
2, 6120, Note_on_c, 0, 67, 93
2, 6144, Note_off_c, 0, 67, 0
2, 6168, Note_on_c, 0, 67, 93
2, 6192, Note_off_c, 0, 67, 0
2, 6216, Note_on_c, 0, 72, 93
2, 6240, Note_off_c, 0, 72, 0
2, 6264, Note_on_c, 0, 72, 93
2, 6288, Note_off_c, 0, 72, 0
2, 6312, Note_on_c, 0, 67, 93
2, 6336, Note_off_c, 0, 67, 0
2, 6408, Note_on_c, 0, 74, 93
2, 6432, Note_off_c, 0, 74, 0
2, 6456, Note_on_c, 0, 74, 93
2, 6480, Note_off_c, 0, 74, 0
2, 6504, Note_on_c, 0, 69, 93
2, 6528, Note_off_c, 0, 69, 0
2, 6552, Note_on_c, 0, 66, 93
2, 6576, Note_off_c, 0, 66, 0
2, 6600, Note_on_c, 0, 66, 93
2, 6624, Note_off_c, 0, 66, 0
2, 6624, Note_on_c, 0, 71, 93
2, 6648, Note_off_c, 0, 71, 0
2, 6738, Note_on_c, 0, 69, 93
2, 6750, Note_off_c, 0, 69, 0
2, 6750, Note_on_c, 0, 71, 93
2, 6768, Note_off_c, 0, 71, 0
2, 6768, Note_on_c, 0, 72, 93
2, 6786, Note_off_c, 0, 72, 0
2, 6786, Note_on_c, 0, 71, 93
2, 6798, Note_off_c, 0, 71, 0
2, 6798, Note_on_c, 0, 69, 93
2, 6816, Note_off_c, 0, 69, 0
2, 6816, Note_on_c, 0, 71, 93
2, 6834, Note_off_c, 0, 71, 0
2, 6834, Note_on_c, 0, 69, 93
2, 6846, Note_off_c, 0, 69, 0
2, 6846, Note_on_c, 0, 67, 93
2, 6864, Note_off_c, 0, 67, 0
2, 6864, Note_on_c, 0, 76, 93
2, 6882, Note_off_c, 0, 76, 0
2, 6882, Note_on_c, 0, 74, 93
2, 6894, Note_off_c, 0, 74, 0
2, 6894, Note_on_c, 0, 72, 93
2, 6912, Note_off_c, 0, 72, 0
2, 6912, Note_on_c, 0, 74, 93
2, 6930, Note_off_c, 0, 74, 0
2, 6942, Note_on_c, 0, 67, 93
2, 6960, Note_off_c, 0, 67, 0
2, 6960, Note_on_c, 0, 66, 93
2, 6978, Note_off_c, 0, 66, 0
2, 6978, Note_on_c, 0, 60, 93
2, 6990, Note_off_c, 0, 60, 0
2, 7038, Note_on_c, 0, 67, 93
2, 7056, Note_off_c, 0, 67, 0
2, 7056, Note_on_c, 0, 69, 93
2, 7074, Note_off_c, 0, 69, 0
2, 7074, Note_on_c, 0, 66, 93
2, 7086, Note_off_c, 0, 66, 0
2, 7134, Note_on_c, 0, 71, 93
2, 7152, Note_off_c, 0, 71, 0
2, 7152, Note_on_c, 0, 73, 93
2, 7170, Note_off_c, 0, 73, 0
2, 7170, Note_on_c, 0, 69, 93
2, 7182, Note_off_c, 0, 69, 0
2, 7230, Note_on_c, 0, 74, 93
2, 7248, Note_off_c, 0, 74, 0
2, 7248, Note_on_c, 0, 73, 93
2, 7266, Note_off_c, 0, 73, 0
2, 7266, Note_on_c, 0, 67, 93
2, 7278, Note_off_c, 0, 67, 0
2, 7326, Note_on_c, 0, 74, 93
2, 7344, Note_off_c, 0, 74, 0
2, 7344, Note_on_c, 0, 76, 93
2, 7362, Note_off_c, 0, 76, 0
2, 7362, Note_on_c, 0, 73, 93
2, 7374, Note_off_c, 0, 73, 0
2, 7422, Note_on_c, 0, 78, 93
2, 7440, Note_off_c, 0, 78, 0
2, 7440, Note_on_c, 0, 74, 93
2, 7458, Note_off_c, 0, 74, 0
2, 7458, Note_on_c, 0, 71, 93
2, 7470, Note_off_c, 0, 71, 0
2, 7518, Note_on_c, 0, 72, 93
2, 7536, Note_off_c, 0, 72, 0
2, 7536, Note_on_c, 0, 71, 93
2, 7554, Note_off_c, 0, 71, 0
2, 7554, Note_on_c, 0, 67, 93
2, 7566, Note_off_c, 0, 67, 0
2, 7614, Note_on_c, 0, 69, 93
2, 7632, Note_off_c, 0, 69, 0
2, 7632, Note_on_c, 0, 67, 93
2, 7650, Note_off_c, 0, 67, 0
2, 7650, Note_on_c, 0, 64, 93
2, 7662, Note_off_c, 0, 64, 0
2, 7710, Note_on_c, 0, 66, 93
2, 7728, Note_off_c, 0, 66, 0
2, 7728, Note_on_c, 0, 64, 93
2, 7746, Note_off_c, 0, 64, 0
2, 7746, Note_on_c, 0, 61, 93
2, 7758, Note_off_c, 0, 61, 0
2, 7806, Note_on_c, 0, 66, 93
2, 7824, Note_off_c, 0, 66, 0
2, 7824, Note_on_c, 0, 64, 93
2, 7842, Note_off_c, 0, 64, 0
2, 7842, Note_on_c, 0, 61, 93
2, 7854, Note_off_c, 0, 61, 0
2, 7902, Note_on_c, 0, 62, 93
2, 7920, Note_off_c, 0, 62, 0
2, 7920, Note_on_c, 0, 61, 93
2, 7938, Note_off_c, 0, 61, 0
2, 7938, Note_on_c, 0, 57, 93
2, 7950, Note_off_c, 0, 57, 0
2, 7998, Note_on_c, 0, 59, 93
2, 8016, Note_off_c, 0, 59, 0
2, 8016, Note_on_c, 0, 57, 93
2, 8034, Note_off_c, 0, 57, 0
2, 8034, Note_on_c, 0, 54, 93
2, 8046, Note_off_c, 0, 54, 0
2, 8094, Note_on_c, 0, 59, 93
2, 8112, Note_off_c, 0, 59, 0
2, 8112, Note_on_c, 0, 57, 93
2, 8130, Note_off_c, 0, 57, 0
2, 8130, Note_on_c, 0, 54, 93
2, 8142, Note_off_c, 0, 54, 0
2, 8190, Note_on_c, 0, 55, 93
2, 8208, Note_off_c, 0, 55, 0
2, 8208, Note_on_c, 0, 54, 93
2, 8226, Note_off_c, 0, 54, 0
2, 8226, Note_on_c, 0, 50, 93
2, 8238, Note_off_c, 0, 50, 0
2, 8286, Note_on_c, 0, 52, 93
2, 8304, Note_off_c, 0, 52, 0
2, 8304, Note_on_c, 0, 50, 93
2, 8322, Note_off_c, 0, 50, 0
2, 8322, Note_on_c, 0, 47, 93
2, 8334, Note_off_c, 0, 47, 0
2, 8382, Note_on_c, 0, 52, 93
2, 8400, Note_off_c, 0, 52, 0
2, 8400, Note_on_c, 0, 50, 93
2, 8418, Note_off_c, 0, 50, 0
2, 8418, Note_on_c, 0, 47, 93
2, 8430, Note_off_c, 0, 47, 0
2, 8478, Note_on_c, 0, 48, 93
2, 8496, Note_off_c, 0, 48, 0
2, 8496, Note_on_c, 0, 47, 93
2, 8514, Note_off_c, 0, 47, 0
2, 8514, Note_on_c, 0, 43, 93
2, 8526, Note_off_c, 0, 43, 0
2, 8574, Note_on_c, 0, 45, 93
2, 8592, Note_off_c, 0, 45, 0
2, 8592, Note_on_c, 0, 43, 93
2, 8610, Note_off_c, 0, 43, 0
2, 8610, Note_on_c, 0, 40, 93
2, 8622, Note_off_c, 0, 40, 0
2, 8658, Note_on_c, 0, 55, 93
2, 8670, Note_off_c, 0, 55, 0
2, 8670, Note_on_c, 0, 57, 93
2, 8688, Note_off_c, 0, 57, 0
2, 8688, Note_on_c, 0, 64, 93
2, 8706, Note_off_c, 0, 64, 0
2, 8706, Note_on_c, 0, 57, 93
2, 8718, Note_off_c, 0, 57, 0
2, 8718, Note_on_c, 0, 55, 93
2, 8736, Note_off_c, 0, 55, 0
2, 8754, Note_on_c, 0, 54, 93
2, 8766, Note_off_c, 0, 54, 0
2, 8766, Note_on_c, 0, 57, 93
2, 8784, Note_off_c, 0, 57, 0
2, 8784, Note_on_c, 0, 62, 93
2, 8802, Note_off_c, 0, 62, 0
2, 8802, Note_on_c, 0, 57, 93
2, 8814, Note_off_c, 0, 57, 0
2, 8814, Note_on_c, 0, 54, 93
2, 8832, Note_off_c, 0, 54, 0
2, 8850, Note_on_c, 0, 52, 93
2, 8862, Note_off_c, 0, 52, 0
2, 8862, Note_on_c, 0, 55, 93
2, 8880, Note_off_c, 0, 55, 0
2, 8880, Note_on_c, 0, 61, 93
2, 8898, Note_off_c, 0, 61, 0
2, 8898, Note_on_c, 0, 55, 93
2, 8910, Note_off_c, 0, 55, 0
2, 8910, Note_on_c, 0, 52, 93
2, 8928, Note_off_c, 0, 52, 0
2, 9000, Note_on_c, 0, 57, 93
2, 9024, Note_off_c, 0, 57, 0
2, 9048, Note_on_c, 0, 57, 93
2, 9072, Note_off_c, 0, 57, 0
2, 9096, Note_on_c, 0, 57, 93
2, 9120, Note_off_c, 0, 57, 0
2, 9246, Note_on_c, 0, 83, 93
2, 9264, Note_off_c, 0, 83, 0
2, 9264, Note_on_c, 0, 81, 93
2, 9282, Note_off_c, 0, 81, 0
2, 9282, Note_on_c, 0, 78, 93
2, 9294, Note_off_c, 0, 78, 0
2, 9342, Note_on_c, 0, 79, 93
2, 9360, Note_off_c, 0, 79, 0
2, 9360, Note_on_c, 0, 78, 93
2, 9378, Note_off_c, 0, 78, 0
2, 9378, Note_on_c, 0, 74, 93
2, 9390, Note_off_c, 0, 74, 0
2, 9438, Note_on_c, 0, 76, 93
2, 9456, Note_off_c, 0, 76, 0
2, 9456, Note_on_c, 0, 74, 93
2, 9474, Note_off_c, 0, 74, 0
2, 9474, Note_on_c, 0, 71, 93
2, 9486, Note_off_c, 0, 71, 0
2, 9534, Note_on_c, 0, 76, 93
2, 9552, Note_off_c, 0, 76, 0
2, 9552, Note_on_c, 0, 74, 93
2, 9570, Note_off_c, 0, 74, 0
2, 9570, Note_on_c, 0, 71, 93
2, 9582, Note_off_c, 0, 71, 0
2, 9630, Note_on_c, 0, 72, 93
2, 9648, Note_off_c, 0, 72, 0
2, 9648, Note_on_c, 0, 71, 93
2, 9666, Note_off_c, 0, 71, 0
2, 9666, Note_on_c, 0, 67, 93
2, 9678, Note_off_c, 0, 67, 0
2, 9726, Note_on_c, 0, 69, 93
2, 9744, Note_off_c, 0, 69, 0
2, 9744, Note_on_c, 0, 67, 93
2, 9762, Note_off_c, 0, 67, 0
2, 9762, Note_on_c, 0, 64, 93
2, 9774, Note_off_c, 0, 64, 0
2, 9822, Note_on_c, 0, 65, 93
2, 9840, Note_off_c, 0, 65, 0
2, 9840, Note_on_c, 0, 64, 93
2, 9858, Note_off_c, 0, 64, 0
2, 9858, Note_on_c, 0, 60, 93
2, 9870, Note_off_c, 0, 60, 0
2, 9918, Note_on_c, 0, 62, 93
2, 9936, Note_off_c, 0, 62, 0
2, 9936, Note_on_c, 0, 60, 93
2, 9954, Note_off_c, 0, 60, 0
2, 9954, Note_on_c, 0, 57, 93
2, 9966, Note_off_c, 0, 57, 0
2, 10014, Note_on_c, 0, 59, 93
2, 10032, Note_off_c, 0, 59, 0
2, 10032, Note_on_c, 0, 57, 93
2, 10050, Note_off_c, 0, 57, 0
2, 10050, Note_on_c, 0, 54, 93
2, 10062, Note_off_c, 0, 54, 0
2, 10110, Note_on_c, 0, 55, 93
2, 10128, Note_off_c, 0, 55, 0
2, 10128, Note_on_c, 0, 54, 93
2, 10146, Note_off_c, 0, 54, 0
2, 10146, Note_on_c, 0, 51, 93
2, 10158, Note_off_c, 0, 51, 0
2, 10206, Note_on_c, 0, 52, 93
2, 10224, Note_off_c, 0, 52, 0
2, 10224, Note_on_c, 0, 51, 93
2, 10242, Note_off_c, 0, 51, 0
2, 10242, Note_on_c, 0, 47, 93
2, 10254, Note_off_c, 0, 47, 0
2, 10302, Note_on_c, 0, 48, 93
2, 10320, Note_off_c, 0, 48, 0
2, 10320, Note_on_c, 0, 47, 93
2, 10338, Note_off_c, 0, 47, 0
2, 10338, Note_on_c, 0, 43, 93
2, 10350, Note_off_c, 0, 43, 0
2, 10440, Note_on_c, 0, 67, 93
2, 10464, Note_off_c, 0, 67, 0
2, 10488, Note_on_c, 0, 67, 93
2, 10512, Note_off_c, 0, 67, 0
2, 10536, Note_on_c, 0, 67, 93
2, 10560, Note_off_c, 0, 67, 0
2, 10584, Note_on_c, 0, 67, 93
2, 10608, Note_off_c, 0, 67, 0
2, 10632, Note_on_c, 0, 67, 93
2, 10656, Note_off_c, 0, 67, 0
2, 10728, Note_on_c, 0, 67, 93
2, 10752, Note_off_c, 0, 67, 0
2, 10776, Note_on_c, 0, 67, 93
2, 10800, Note_off_c, 0, 67, 0
2, 10824, Note_on_c, 0, 67, 93
2, 10848, Note_off_c, 0, 67, 0
2, 10872, Note_on_c, 0, 67, 93
2, 10896, Note_off_c, 0, 67, 0
2, 10920, Note_on_c, 0, 67, 93
2, 10944, Note_off_c, 0, 67, 0
2, 10962, Note_on_c, 0, 78, 93
2, 10974, Note_off_c, 0, 78, 0
2, 10974, Note_on_c, 0, 79, 93
2, 10992, Note_off_c, 0, 79, 0
2, 10992, Note_on_c, 0, 81, 93
2, 11010, Note_off_c, 0, 81, 0
2, 11010, Note_on_c, 0, 83, 93
2, 11022, Note_off_c, 0, 83, 0
2, 11022, Note_on_c, 0, 84, 93
2, 11058, Note_off_c, 0, 84, 0
2, 11058, Note_on_c, 0, 83, 93
2, 11070, Note_off_c, 0, 83, 0
2, 11070, Note_on_c, 0, 81, 93
2, 11088, Note_off_c, 0, 81, 0
2, 11088, Note_on_c, 0, 79, 93
2, 11106, Note_off_c, 0, 79, 0
2, 11106, Note_on_c, 0, 78, 93
2, 11118, Note_off_c, 0, 78, 0
2, 11118, Note_on_c, 0, 76, 93
2, 11136, Note_off_c, 0, 76, 0
2, 11136, Note_on_c, 0, 75, 93
2, 11154, Note_off_c, 0, 75, 0
2, 11154, Note_on_c, 0, 72, 93
2, 11166, Note_off_c, 0, 72, 0
2, 11166, Note_on_c, 0, 71, 93
2, 11184, Note_off_c, 0, 71, 0
2, 11184, Note_on_c, 0, 69, 93
2, 11202, Note_off_c, 0, 69, 0
2, 11202, Note_on_c, 0, 67, 93
2, 11214, Note_off_c, 0, 67, 0
2, 11214, Note_on_c, 0, 66, 93
2, 11232, Note_off_c, 0, 66, 0
2, 11232, Note_on_c, 0, 64, 93
2, 11256, Note_off_c, 0, 64, 0
2, 11256, Note_on_c, 0, 67, 93
2, 11280, Note_off_c, 0, 67, 0
2, 11304, Note_on_c, 0, 67, 93
2, 11328, Note_off_c, 0, 67, 0
2, 11352, Note_on_c, 0, 64, 93
2, 11376, Note_off_c, 0, 64, 0
2, 11400, Note_on_c, 0, 64, 93
2, 11424, Note_off_c, 0, 64, 0
2, 11448, Note_on_c, 0, 59, 93
2, 11472, Note_off_c, 0, 59, 0
2, 11496, Note_on_c, 0, 59, 93
2, 11520, Note_off_c, 0, 59, 0
2, 11538, Note_on_c, 0, 52, 93
2, 11550, Note_off_c, 0, 52, 0
2, 11550, Note_on_c, 0, 53, 93
2, 11568, Note_off_c, 0, 53, 0
2, 11568, Note_on_c, 0, 54, 93
2, 11586, Note_off_c, 0, 54, 0
2, 11586, Note_on_c, 0, 55, 93
2, 11598, Note_off_c, 0, 55, 0
2, 11598, Note_on_c, 0, 56, 93
2, 11616, Note_off_c, 0, 56, 0
2, 11634, Note_on_c, 0, 59, 93
2, 11646, Note_off_c, 0, 59, 0
2, 11646, Note_on_c, 0, 60, 93
2, 11664, Note_off_c, 0, 60, 0
2, 11664, Note_on_c, 0, 62, 93
2, 11682, Note_off_c, 0, 62, 0
2, 11682, Note_on_c, 0, 60, 93
2, 11694, Note_off_c, 0, 60, 0
2, 11694, Note_on_c, 0, 59, 93
2, 11712, Note_off_c, 0, 59, 0
2, 11712, Note_on_c, 0, 60, 93
2, 11730, Note_off_c, 0, 60, 0
2, 11730, Note_on_c, 0, 62, 93
2, 11742, Note_off_c, 0, 62, 0
2, 11742, Note_on_c, 0, 64, 93
2, 11760, Note_off_c, 0, 64, 0
2, 11760, Note_on_c, 0, 66, 93
2, 11778, Note_off_c, 0, 66, 0
2, 11778, Note_on_c, 0, 67, 93
2, 11790, Note_off_c, 0, 67, 0
2, 11790, Note_on_c, 0, 69, 93
2, 11808, Note_off_c, 0, 69, 0
2, 11826, Note_on_c, 0, 50, 93
2, 11838, Note_off_c, 0, 50, 0
2, 11838, Note_on_c, 0, 51, 93
2, 11856, Note_off_c, 0, 51, 0
2, 11856, Note_on_c, 0, 52, 93
2, 11874, Note_off_c, 0, 52, 0
2, 11874, Note_on_c, 0, 53, 93
2, 11886, Note_off_c, 0, 53, 0
2, 11886, Note_on_c, 0, 54, 93
2, 11904, Note_off_c, 0, 54, 0
2, 11922, Note_on_c, 0, 57, 93
2, 11934, Note_off_c, 0, 57, 0
2, 11934, Note_on_c, 0, 59, 93
2, 11952, Note_off_c, 0, 59, 0
2, 11952, Note_on_c, 0, 60, 93
2, 11970, Note_off_c, 0, 60, 0
2, 11970, Note_on_c, 0, 59, 93
2, 11982, Note_off_c, 0, 59, 0
2, 11982, Note_on_c, 0, 57, 93
2, 12000, Note_off_c, 0, 57, 0
2, 12000, Note_on_c, 0, 59, 93
2, 12018, Note_off_c, 0, 59, 0
2, 12018, Note_on_c, 0, 60, 93
2, 12030, Note_off_c, 0, 60, 0
2, 12030, Note_on_c, 0, 62, 93
2, 12048, Note_off_c, 0, 62, 0
2, 12048, Note_on_c, 0, 64, 93
2, 12066, Note_off_c, 0, 64, 0
2, 12066, Note_on_c, 0, 66, 93
2, 12078, Note_off_c, 0, 66, 0
2, 12078, Note_on_c, 0, 67, 93
2, 12096, Note_off_c, 0, 67, 0
2, 12096, Note_on_c, 0, 60, 93
2, 12114, Note_off_c, 0, 60, 0
2, 12126, Note_on_c, 0, 65, 93
2, 12144, Note_off_c, 0, 65, 0
2, 12144, Note_on_c, 0, 64, 93
2, 12162, Note_off_c, 0, 64, 0
2, 12162, Note_on_c, 0, 60, 93
2, 12174, Note_off_c, 0, 60, 0
2, 12222, Note_on_c, 0, 62, 93
2, 12240, Note_off_c, 0, 62, 0
2, 12240, Note_on_c, 0, 60, 93
2, 12258, Note_off_c, 0, 60, 0
2, 12258, Note_on_c, 0, 57, 93
2, 12270, Note_off_c, 0, 57, 0
2, 12318, Note_on_c, 0, 59, 93
2, 12336, Note_off_c, 0, 59, 0
2, 12336, Note_on_c, 0, 57, 93
2, 12354, Note_off_c, 0, 57, 0
2, 12354, Note_on_c, 0, 54, 93
2, 12366, Note_off_c, 0, 54, 0
2, 12414, Note_on_c, 0, 71, 93
2, 12432, Note_off_c, 0, 71, 0
2, 12432, Note_on_c, 0, 69, 93
2, 12450, Note_off_c, 0, 69, 0
2, 12450, Note_on_c, 0, 66, 93
2, 12462, Note_off_c, 0, 66, 0
2, 12510, Note_on_c, 0, 67, 93
2, 12528, Note_off_c, 0, 67, 0
2, 12528, Note_on_c, 0, 66, 93
2, 12546, Note_off_c, 0, 66, 0
2, 12546, Note_on_c, 0, 62, 93
2, 12558, Note_off_c, 0, 62, 0
2, 12606, Note_on_c, 0, 64, 93
2, 12624, Note_off_c, 0, 64, 0
2, 12624, Note_on_c, 0, 62, 93
2, 12642, Note_off_c, 0, 62, 0
2, 12642, Note_on_c, 0, 59, 93
2, 12654, Note_off_c, 0, 59, 0
2, 12702, Note_on_c, 0, 76, 93
2, 12720, Note_off_c, 0, 76, 0
2, 12720, Note_on_c, 0, 74, 93
2, 12738, Note_off_c, 0, 74, 0
2, 12738, Note_on_c, 0, 71, 93
2, 12750, Note_off_c, 0, 71, 0
2, 12798, Note_on_c, 0, 72, 93
2, 12816, Note_off_c, 0, 72, 0
2, 12816, Note_on_c, 0, 71, 93
2, 12834, Note_off_c, 0, 71, 0
2, 12834, Note_on_c, 0, 67, 93
2, 12846, Note_off_c, 0, 67, 0
2, 12894, Note_on_c, 0, 69, 93
2, 12912, Note_off_c, 0, 69, 0
2, 12912, Note_on_c, 0, 67, 93
2, 12930, Note_off_c, 0, 67, 0
2, 12930, Note_on_c, 0, 64, 93
2, 12942, Note_off_c, 0, 64, 0
2, 12990, Note_on_c, 0, 81, 93
2, 13008, Note_off_c, 0, 81, 0
2, 13008, Note_on_c, 0, 79, 93
2, 13026, Note_off_c, 0, 79, 0
2, 13026, Note_on_c, 0, 76, 93
2, 13038, Note_off_c, 0, 76, 0
2, 13086, Note_on_c, 0, 77, 93
2, 13104, Note_off_c, 0, 77, 0
2, 13104, Note_on_c, 0, 76, 93
2, 13122, Note_off_c, 0, 76, 0
2, 13122, Note_on_c, 0, 72, 93
2, 13134, Note_off_c, 0, 72, 0
2, 13182, Note_on_c, 0, 74, 93
2, 13200, Note_off_c, 0, 74, 0
2, 13200, Note_on_c, 0, 72, 93
2, 13218, Note_off_c, 0, 72, 0
2, 13218, Note_on_c, 0, 69, 93
2, 13230, Note_off_c, 0, 69, 0
2, 13266, Note_on_c, 0, 69, 93
2, 13278, Note_off_c, 0, 69, 0
2, 13278, Note_on_c, 0, 71, 93
2, 13296, Note_off_c, 0, 71, 0
2, 13296, Note_on_c, 0, 72, 93
2, 13314, Note_off_c, 0, 72, 0
2, 13314, Note_on_c, 0, 74, 93
2, 13326, Note_off_c, 0, 74, 0
2, 13326, Note_on_c, 0, 76, 93
2, 13362, Note_off_c, 0, 76, 0
2, 13362, Note_on_c, 0, 74, 93
2, 13374, Note_off_c, 0, 74, 0
2, 13374, Note_on_c, 0, 72, 93
2, 13392, Note_off_c, 0, 72, 0
2, 13392, Note_on_c, 0, 71, 93
2, 13410, Note_off_c, 0, 71, 0
2, 13410, Note_on_c, 0, 69, 93
2, 13422, Note_off_c, 0, 69, 0
2, 13422, Note_on_c, 0, 67, 93
2, 13458, Note_off_c, 0, 67, 0
2, 13458, Note_on_c, 0, 66, 93
2, 13470, Note_off_c, 0, 66, 0
2, 13470, Note_on_c, 0, 67, 93
2, 13488, Note_off_c, 0, 67, 0
2, 13488, Note_on_c, 0, 69, 93
2, 13506, Note_off_c, 0, 69, 0
2, 13506, Note_on_c, 0, 71, 93
2, 13518, Note_off_c, 0, 71, 0
2, 13518, Note_on_c, 0, 72, 93
2, 13536, Note_off_c, 0, 72, 0
2, 13536, Note_on_c, 0, 72, 93
2, 13548, Note_off_c, 0, 72, 0
2, 13548, Note_on_c, 0, 71, 93
2, 13584, Note_off_c, 0, 71, 0
2, 13608, Note_on_c, 0, 74, 93
2, 13632, Note_off_c, 0, 74, 0
2, 13656, Note_on_c, 0, 74, 93
2, 13680, Note_off_c, 0, 74, 0
2, 13704, Note_on_c, 0, 74, 93
2, 13728, Note_off_c, 0, 74, 0
2, 13854, Note_on_c, 0, 83, 93
2, 13872, Note_off_c, 0, 83, 0
2, 13872, Note_on_c, 0, 81, 93
2, 13890, Note_off_c, 0, 81, 0
2, 13890, Note_on_c, 0, 78, 93
2, 13902, Note_off_c, 0, 78, 0
2, 13950, Note_on_c, 0, 79, 93
2, 13968, Note_off_c, 0, 79, 0
2, 13968, Note_on_c, 0, 78, 93
2, 13986, Note_off_c, 0, 78, 0
2, 13986, Note_on_c, 0, 74, 93
2, 13998, Note_off_c, 0, 74, 0
2, 14046, Note_on_c, 0, 76, 93
2, 14064, Note_off_c, 0, 76, 0
2, 14064, Note_on_c, 0, 74, 93
2, 14082, Note_off_c, 0, 74, 0
2, 14082, Note_on_c, 0, 71, 93
2, 14094, Note_off_c, 0, 71, 0
2, 14142, Note_on_c, 0, 76, 93
2, 14160, Note_off_c, 0, 76, 0
2, 14160, Note_on_c, 0, 74, 93
2, 14178, Note_off_c, 0, 74, 0
2, 14178, Note_on_c, 0, 71, 93
2, 14190, Note_off_c, 0, 71, 0
2, 14238, Note_on_c, 0, 72, 93
2, 14256, Note_off_c, 0, 72, 0
2, 14256, Note_on_c, 0, 71, 93
2, 14274, Note_off_c, 0, 71, 0
2, 14274, Note_on_c, 0, 67, 93
2, 14286, Note_off_c, 0, 67, 0
2, 14334, Note_on_c, 0, 69, 93
2, 14352, Note_off_c, 0, 69, 0
2, 14352, Note_on_c, 0, 67, 93
2, 14370, Note_off_c, 0, 67, 0
2, 14370, Note_on_c, 0, 64, 93
2, 14382, Note_off_c, 0, 64, 0
2, 14430, Note_on_c, 0, 65, 93
2, 14448, Note_off_c, 0, 65, 0
2, 14448, Note_on_c, 0, 64, 93
2, 14466, Note_off_c, 0, 64, 0
2, 14466, Note_on_c, 0, 60, 93
2, 14478, Note_off_c, 0, 60, 0
2, 14526, Note_on_c, 0, 62, 93
2, 14544, Note_off_c, 0, 62, 0
2, 14544, Note_on_c, 0, 60, 93
2, 14562, Note_off_c, 0, 60, 0
2, 14562, Note_on_c, 0, 57, 93
2, 14574, Note_off_c, 0, 57, 0
2, 14622, Note_on_c, 0, 59, 93
2, 14640, Note_off_c, 0, 59, 0
2, 14640, Note_on_c, 0, 57, 93
2, 14658, Note_off_c, 0, 57, 0
2, 14658, Note_on_c, 0, 54, 93
2, 14670, Note_off_c, 0, 54, 0
2, 14718, Note_on_c, 0, 55, 93
2, 14736, Note_off_c, 0, 55, 0
2, 14736, Note_on_c, 0, 54, 93
2, 14754, Note_off_c, 0, 54, 0
2, 14754, Note_on_c, 0, 51, 93
2, 14766, Note_off_c, 0, 51, 0
2, 14814, Note_on_c, 0, 52, 93
2, 14832, Note_off_c, 0, 52, 0
2, 14832, Note_on_c, 0, 51, 93
2, 14850, Note_off_c, 0, 51, 0
2, 14850, Note_on_c, 0, 47, 93
2, 14862, Note_off_c, 0, 47, 0
2, 14910, Note_on_c, 0, 48, 93
2, 14928, Note_off_c, 0, 48, 0
2, 14928, Note_on_c, 0, 47, 93
2, 14946, Note_off_c, 0, 47, 0
2, 14946, Note_on_c, 0, 43, 93
2, 14958, Note_off_c, 0, 43, 0
2, 15048, Note_on_c, 0, 67, 93
2, 15072, Note_off_c, 0, 67, 0
2, 15096, Note_on_c, 0, 67, 93
2, 15120, Note_off_c, 0, 67, 0
2, 15144, Note_on_c, 0, 67, 93
2, 15168, Note_off_c, 0, 67, 0
2, 15192, Note_on_c, 0, 67, 93
2, 15216, Note_off_c, 0, 67, 0
2, 15240, Note_on_c, 0, 67, 93
2, 15264, Note_off_c, 0, 67, 0
2, 15336, Note_on_c, 0, 67, 93
2, 15360, Note_off_c, 0, 67, 0
2, 15384, Note_on_c, 0, 67, 93
2, 15408, Note_off_c, 0, 67, 0
2, 15432, Note_on_c, 0, 67, 93
2, 15456, Note_off_c, 0, 67, 0
2, 15480, Note_on_c, 0, 67, 93
2, 15504, Note_off_c, 0, 67, 0
2, 15528, Note_on_c, 0, 67, 93
2, 15552, Note_off_c, 0, 67, 0
2, 15570, Note_on_c, 0, 78, 93
2, 15582, Note_off_c, 0, 78, 0
2, 15582, Note_on_c, 0, 79, 93
2, 15600, Note_off_c, 0, 79, 0
2, 15600, Note_on_c, 0, 81, 93
2, 15618, Note_off_c, 0, 81, 0
2, 15618, Note_on_c, 0, 83, 93
2, 15630, Note_off_c, 0, 83, 0
2, 15630, Note_on_c, 0, 84, 93
2, 15666, Note_off_c, 0, 84, 0
2, 15666, Note_on_c, 0, 83, 93
2, 15678, Note_off_c, 0, 83, 0
2, 15678, Note_on_c, 0, 81, 93
2, 15696, Note_off_c, 0, 81, 0
2, 15696, Note_on_c, 0, 79, 93
2, 15714, Note_off_c, 0, 79, 0
2, 15714, Note_on_c, 0, 78, 93
2, 15726, Note_off_c, 0, 78, 0
2, 15726, Note_on_c, 0, 76, 93
2, 15744, Note_off_c, 0, 76, 0
2, 15744, Note_on_c, 0, 75, 93
2, 15762, Note_off_c, 0, 75, 0
2, 15762, Note_on_c, 0, 72, 93
2, 15774, Note_off_c, 0, 72, 0
2, 15774, Note_on_c, 0, 71, 93
2, 15792, Note_off_c, 0, 71, 0
2, 15792, Note_on_c, 0, 69, 93
2, 15810, Note_off_c, 0, 69, 0
2, 15810, Note_on_c, 0, 67, 93
2, 15822, Note_off_c, 0, 67, 0
2, 15822, Note_on_c, 0, 66, 93
2, 15840, Note_off_c, 0, 66, 0
2, 15840, Note_on_c, 0, 64, 93
2, 15864, Note_off_c, 0, 64, 0
2, 15864, Note_on_c, 0, 67, 93
2, 15888, Note_off_c, 0, 67, 0
2, 15912, Note_on_c, 0, 67, 93
2, 15936, Note_off_c, 0, 67, 0
2, 15960, Note_on_c, 0, 64, 93
2, 15984, Note_off_c, 0, 64, 0
2, 16008, Note_on_c, 0, 64, 93
2, 16032, Note_off_c, 0, 64, 0
2, 16056, Note_on_c, 0, 59, 93
2, 16080, Note_off_c, 0, 59, 0
2, 16104, Note_on_c, 0, 59, 93
2, 16128, Note_off_c, 0, 59, 0
2, 16146, Note_on_c, 0, 52, 93
2, 16158, Note_off_c, 0, 52, 0
2, 16158, Note_on_c, 0, 53, 93
2, 16176, Note_off_c, 0, 53, 0
2, 16176, Note_on_c, 0, 54, 93
2, 16194, Note_off_c, 0, 54, 0
2, 16194, Note_on_c, 0, 55, 93
2, 16206, Note_off_c, 0, 55, 0
2, 16206, Note_on_c, 0, 56, 93
2, 16224, Note_off_c, 0, 56, 0
2, 16242, Note_on_c, 0, 59, 93
2, 16254, Note_off_c, 0, 59, 0
2, 16254, Note_on_c, 0, 60, 93
2, 16272, Note_off_c, 0, 60, 0
2, 16272, Note_on_c, 0, 62, 93
2, 16290, Note_off_c, 0, 62, 0
2, 16290, Note_on_c, 0, 60, 93
2, 16302, Note_off_c, 0, 60, 0
2, 16302, Note_on_c, 0, 59, 93
2, 16320, Note_off_c, 0, 59, 0
2, 16320, Note_on_c, 0, 60, 93
2, 16338, Note_off_c, 0, 60, 0
2, 16338, Note_on_c, 0, 62, 93
2, 16350, Note_off_c, 0, 62, 0
2, 16350, Note_on_c, 0, 64, 93
2, 16368, Note_off_c, 0, 64, 0
2, 16368, Note_on_c, 0, 66, 93
2, 16386, Note_off_c, 0, 66, 0
2, 16386, Note_on_c, 0, 67, 93
2, 16398, Note_off_c, 0, 67, 0
2, 16398, Note_on_c, 0, 69, 93
2, 16416, Note_off_c, 0, 69, 0
2, 16434, Note_on_c, 0, 50, 93
2, 16446, Note_off_c, 0, 50, 0
2, 16446, Note_on_c, 0, 51, 93
2, 16464, Note_off_c, 0, 51, 0
2, 16464, Note_on_c, 0, 52, 93
2, 16482, Note_off_c, 0, 52, 0
2, 16482, Note_on_c, 0, 53, 93
2, 16494, Note_off_c, 0, 53, 0
2, 16494, Note_on_c, 0, 54, 93
2, 16512, Note_off_c, 0, 54, 0
2, 16530, Note_on_c, 0, 57, 93
2, 16542, Note_off_c, 0, 57, 0
2, 16542, Note_on_c, 0, 59, 93
2, 16560, Note_off_c, 0, 59, 0
2, 16560, Note_on_c, 0, 60, 93
2, 16578, Note_off_c, 0, 60, 0
2, 16578, Note_on_c, 0, 59, 93
2, 16590, Note_off_c, 0, 59, 0
2, 16590, Note_on_c, 0, 57, 93
2, 16608, Note_off_c, 0, 57, 0
2, 16608, Note_on_c, 0, 59, 93
2, 16626, Note_off_c, 0, 59, 0
2, 16626, Note_on_c, 0, 60, 93
2, 16638, Note_off_c, 0, 60, 0
2, 16638, Note_on_c, 0, 62, 93
2, 16656, Note_off_c, 0, 62, 0
2, 16656, Note_on_c, 0, 64, 93
2, 16674, Note_off_c, 0, 64, 0
2, 16674, Note_on_c, 0, 66, 93
2, 16686, Note_off_c, 0, 66, 0
2, 16686, Note_on_c, 0, 67, 93
2, 16704, Note_off_c, 0, 67, 0
2, 16704, Note_on_c, 0, 60, 93
2, 16722, Note_off_c, 0, 60, 0
2, 16734, Note_on_c, 0, 65, 93
2, 16752, Note_off_c, 0, 65, 0
2, 16752, Note_on_c, 0, 64, 93
2, 16770, Note_off_c, 0, 64, 0
2, 16770, Note_on_c, 0, 60, 93
2, 16782, Note_off_c, 0, 60, 0
2, 16830, Note_on_c, 0, 62, 93
2, 16848, Note_off_c, 0, 62, 0
2, 16848, Note_on_c, 0, 60, 93
2, 16866, Note_off_c, 0, 60, 0
2, 16866, Note_on_c, 0, 57, 93
2, 16878, Note_off_c, 0, 57, 0
2, 16926, Note_on_c, 0, 59, 93
2, 16944, Note_off_c, 0, 59, 0
2, 16944, Note_on_c, 0, 57, 93
2, 16962, Note_off_c, 0, 57, 0
2, 16962, Note_on_c, 0, 54, 93
2, 16974, Note_off_c, 0, 54, 0
2, 17022, Note_on_c, 0, 71, 93
2, 17040, Note_off_c, 0, 71, 0
2, 17040, Note_on_c, 0, 69, 93
2, 17058, Note_off_c, 0, 69, 0
2, 17058, Note_on_c, 0, 66, 93
2, 17070, Note_off_c, 0, 66, 0
2, 17118, Note_on_c, 0, 67, 93
2, 17136, Note_off_c, 0, 67, 0
2, 17136, Note_on_c, 0, 66, 93
2, 17154, Note_off_c, 0, 66, 0
2, 17154, Note_on_c, 0, 62, 93
2, 17166, Note_off_c, 0, 62, 0
2, 17214, Note_on_c, 0, 64, 93
2, 17232, Note_off_c, 0, 64, 0
2, 17232, Note_on_c, 0, 62, 93
2, 17250, Note_off_c, 0, 62, 0
2, 17250, Note_on_c, 0, 59, 93
2, 17262, Note_off_c, 0, 59, 0
2, 17310, Note_on_c, 0, 76, 93
2, 17328, Note_off_c, 0, 76, 0
2, 17328, Note_on_c, 0, 74, 93
2, 17346, Note_off_c, 0, 74, 0
2, 17346, Note_on_c, 0, 71, 93
2, 17358, Note_off_c, 0, 71, 0
2, 17406, Note_on_c, 0, 72, 93
2, 17424, Note_off_c, 0, 72, 0
2, 17424, Note_on_c, 0, 71, 93
2, 17442, Note_off_c, 0, 71, 0
2, 17442, Note_on_c, 0, 67, 93
2, 17454, Note_off_c, 0, 67, 0
2, 17502, Note_on_c, 0, 69, 93
2, 17520, Note_off_c, 0, 69, 0
2, 17520, Note_on_c, 0, 67, 93
2, 17538, Note_off_c, 0, 67, 0
2, 17538, Note_on_c, 0, 64, 93
2, 17550, Note_off_c, 0, 64, 0
2, 17598, Note_on_c, 0, 81, 93
2, 17616, Note_off_c, 0, 81, 0
2, 17616, Note_on_c, 0, 79, 93
2, 17634, Note_off_c, 0, 79, 0
2, 17634, Note_on_c, 0, 76, 93
2, 17646, Note_off_c, 0, 76, 0
2, 17694, Note_on_c, 0, 77, 93
2, 17712, Note_off_c, 0, 77, 0
2, 17712, Note_on_c, 0, 76, 93
2, 17730, Note_off_c, 0, 76, 0
2, 17730, Note_on_c, 0, 72, 93
2, 17742, Note_off_c, 0, 72, 0
2, 17790, Note_on_c, 0, 74, 93
2, 17808, Note_off_c, 0, 74, 0
2, 17808, Note_on_c, 0, 72, 93
2, 17826, Note_off_c, 0, 72, 0
2, 17826, Note_on_c, 0, 69, 93
2, 17838, Note_off_c, 0, 69, 0
2, 17874, Note_on_c, 0, 69, 93
2, 17886, Note_off_c, 0, 69, 0
2, 17886, Note_on_c, 0, 71, 93
2, 17904, Note_off_c, 0, 71, 0
2, 17904, Note_on_c, 0, 72, 93
2, 17922, Note_off_c, 0, 72, 0
2, 17922, Note_on_c, 0, 74, 93
2, 17934, Note_off_c, 0, 74, 0
2, 17934, Note_on_c, 0, 76, 93
2, 17970, Note_off_c, 0, 76, 0
2, 17970, Note_on_c, 0, 74, 93
2, 17982, Note_off_c, 0, 74, 0
2, 17982, Note_on_c, 0, 72, 93
2, 18000, Note_off_c, 0, 72, 0
2, 18000, Note_on_c, 0, 71, 93
2, 18018, Note_off_c, 0, 71, 0
2, 18018, Note_on_c, 0, 69, 93
2, 18030, Note_off_c, 0, 69, 0
2, 18030, Note_on_c, 0, 67, 93
2, 18066, Note_off_c, 0, 67, 0
2, 18066, Note_on_c, 0, 66, 93
2, 18078, Note_off_c, 0, 66, 0
2, 18078, Note_on_c, 0, 67, 93
2, 18096, Note_off_c, 0, 67, 0
2, 18096, Note_on_c, 0, 69, 93
2, 18114, Note_off_c, 0, 69, 0
2, 18114, Note_on_c, 0, 71, 93
2, 18126, Note_off_c, 0, 71, 0
2, 18126, Note_on_c, 0, 72, 93
2, 18144, Note_off_c, 0, 72, 0
2, 18144, Note_on_c, 0, 72, 93
2, 18156, Note_off_c, 0, 72, 0
2, 18156, Note_on_c, 0, 71, 93
2, 18192, Note_off_c, 0, 71, 0
2, 18216, Note_on_c, 0, 74, 93
2, 18240, Note_off_c, 0, 74, 0
2, 18264, Note_on_c, 0, 74, 93
2, 18288, Note_off_c, 0, 74, 0
2, 18312, Note_on_c, 0, 74, 93
2, 18336, Note_off_c, 0, 74, 0
2, 18336, End_track
3, 0, Start_track
3, 0, Title_t, "Track3"
3, 0, Program_c, 1, 6
3, 0, Control_c, 1, 7, 100
3, 0, Control_c, 1, 10, 59
3, 0, Note_on_c, 1, 55, 93
3, 48, Note_off_c, 1, 55, 0
3, 48, Note_on_c, 1, 43, 93
3, 96, Note_off_c, 1, 43, 0
3, 96, Note_on_c, 1, 57, 93
3, 120, Note_off_c, 1, 57, 0
3, 144, Note_on_c, 1, 57, 93
3, 168, Note_off_c, 1, 57, 0
3, 192, Note_on_c, 1, 57, 93
3, 216, Note_off_c, 1, 57, 0
3, 240, Note_on_c, 1, 57, 93
3, 264, Note_off_c, 1, 57, 0
3, 288, Note_on_c, 1, 54, 93
3, 336, Note_off_c, 1, 54, 0
3, 336, Note_on_c, 1, 42, 93
3, 384, Note_off_c, 1, 42, 0
3, 384, Note_on_c, 1, 64, 93
3, 408, Note_off_c, 1, 64, 0
3, 432, Note_on_c, 1, 64, 93
3, 456, Note_off_c, 1, 64, 0
3, 480, Note_on_c, 1, 64, 93
3, 504, Note_off_c, 1, 64, 0
3, 528, Note_on_c, 1, 64, 93
3, 552, Note_off_c, 1, 64, 0
3, 576, Note_on_c, 1, 52, 93
3, 624, Note_off_c, 1, 52, 0
3, 624, Note_on_c, 1, 40, 93
3, 672, Note_off_c, 1, 40, 0
3, 672, Note_on_c, 1, 69, 93
3, 696, Note_off_c, 1, 69, 0
3, 720, Note_on_c, 1, 67, 93
3, 744, Note_off_c, 1, 67, 0
3, 768, Note_on_c, 1, 74, 93
3, 792, Note_off_c, 1, 74, 0
3, 816, Note_on_c, 1, 73, 93
3, 840, Note_off_c, 1, 73, 0
3, 888, Note_on_c, 1, 62, 93
3, 912, Note_off_c, 1, 62, 0
3, 912, Note_on_c, 1, 57, 93
3, 936, Note_off_c, 1, 57, 0
3, 936, Note_on_c, 1, 54, 93
3, 960, Note_off_c, 1, 54, 0
3, 960, Note_on_c, 1, 50, 93
3, 990, Note_off_c, 1, 50, 0
3, 990, Note_on_c, 1, 62, 93
3, 1008, Note_off_c, 1, 62, 0
3, 1008, Note_on_c, 1, 52, 93
3, 1038, Note_off_c, 1, 52, 0
3, 1038, Note_on_c, 1, 60, 93
3, 1056, Note_off_c, 1, 60, 0
3, 1056, Note_on_c, 1, 50, 93
3, 1086, Note_off_c, 1, 50, 0
3, 1086, Note_on_c, 1, 59, 93
3, 1104, Note_off_c, 1, 59, 0
3, 1104, Note_on_c, 1, 48, 93
3, 1134, Note_off_c, 1, 48, 0
3, 1134, Note_on_c, 1, 57, 93
3, 1152, Note_off_c, 1, 57, 0
3, 1152, Note_on_c, 1, 47, 93
3, 1200, Note_off_c, 1, 47, 0
3, 1200, Note_on_c, 1, 59, 93
3, 1248, Note_off_c, 1, 59, 0
3, 1248, Note_on_c, 1, 78, 93
3, 1272, Note_off_c, 1, 78, 0
3, 1296, Note_on_c, 1, 72, 93
3, 1320, Note_off_c, 1, 72, 0
3, 1344, Note_on_c, 1, 78, 93
3, 1368, Note_off_c, 1, 78, 0
3, 1392, Note_on_c, 1, 74, 93
3, 1416, Note_off_c, 1, 74, 0
3, 1440, Note_on_c, 1, 48, 93
3, 1488, Note_off_c, 1, 48, 0
3, 1488, Note_on_c, 1, 60, 93
3, 1536, Note_off_c, 1, 60, 0
3, 1536, Note_on_c, 1, 71, 93
3, 1560, Note_off_c, 1, 71, 0
3, 1584, Note_on_c, 1, 74, 93
3, 1608, Note_off_c, 1, 74, 0
3, 1632, Note_on_c, 1, 65, 93
3, 1656, Note_off_c, 1, 65, 0
3, 1680, Note_on_c, 1, 69, 93
3, 1704, Note_off_c, 1, 69, 0
3, 1728, Note_on_c, 1, 50, 93
3, 1776, Note_off_c, 1, 50, 0
3, 1776, Note_on_c, 1, 62, 93
3, 1824, Note_off_c, 1, 62, 0
3, 1824, Note_on_c, 1, 73, 93
3, 1848, Note_off_c, 1, 73, 0
3, 1872, Note_on_c, 1, 64, 93
3, 1896, Note_off_c, 1, 64, 0
3, 1920, Note_on_c, 1, 73, 93
3, 1944, Note_off_c, 1, 73, 0
3, 1968, Note_on_c, 1, 62, 93
3, 1992, Note_off_c, 1, 62, 0
3, 2040, Note_on_c, 1, 55, 93
3, 2064, Note_off_c, 1, 55, 0
3, 2064, Note_on_c, 1, 50, 93
3, 2088, Note_off_c, 1, 50, 0
3, 2088, Note_on_c, 1, 47, 93
3, 2112, Note_off_c, 1, 47, 0
3, 2112, Note_on_c, 1, 43, 93
3, 2142, Note_off_c, 1, 43, 0
3, 2142, Note_on_c, 1, 55, 93
3, 2160, Note_off_c, 1, 55, 0
3, 2160, Note_on_c, 1, 54, 93
3, 2190, Note_off_c, 1, 54, 0
3, 2190, Note_on_c, 1, 62, 93
3, 2208, Note_off_c, 1, 62, 0
3, 2208, Note_on_c, 1, 55, 93
3, 2238, Note_off_c, 1, 55, 0
3, 2238, Note_on_c, 1, 64, 93
3, 2256, Note_off_c, 1, 64, 0
3, 2256, Note_on_c, 1, 57, 93
3, 2286, Note_off_c, 1, 57, 0
3, 2286, Note_on_c, 1, 66, 93
3, 2304, Note_off_c, 1, 66, 0
3, 2304, Note_on_c, 1, 59, 93
3, 2322, Note_off_c, 1, 59, 0
3, 2322, Note_on_c, 1, 62, 93
3, 2334, Note_off_c, 1, 62, 0
3, 2382, Note_on_c, 1, 57, 93
3, 2400, Note_off_c, 1, 57, 0
3, 2400, Note_on_c, 1, 59, 93
3, 2418, Note_off_c, 1, 59, 0
3, 2418, Note_on_c, 1, 62, 93
3, 2430, Note_off_c, 1, 62, 0
3, 2478, Note_on_c, 1, 60, 93
3, 2496, Note_off_c, 1, 60, 0
3, 2496, Note_on_c, 1, 62, 93
3, 2514, Note_off_c, 1, 62, 0
3, 2514, Note_on_c, 1, 67, 93
3, 2526, Note_off_c, 1, 67, 0
3, 2574, Note_on_c, 1, 64, 93
3, 2592, Note_off_c, 1, 64, 0
3, 2592, Note_on_c, 1, 66, 93
3, 2610, Note_off_c, 1, 66, 0
3, 2610, Note_on_c, 1, 69, 93
3, 2622, Note_off_c, 1, 69, 0
3, 2670, Note_on_c, 1, 64, 93
3, 2688, Note_off_c, 1, 64, 0
3, 2688, Note_on_c, 1, 66, 93
3, 2706, Note_off_c, 1, 66, 0
3, 2706, Note_on_c, 1, 69, 93
3, 2718, Note_off_c, 1, 69, 0
3, 2766, Note_on_c, 1, 67, 93
3, 2784, Note_off_c, 1, 67, 0
3, 2784, Note_on_c, 1, 69, 93
3, 2802, Note_off_c, 1, 69, 0
3, 2802, Note_on_c, 1, 74, 93
3, 2814, Note_off_c, 1, 74, 0
3, 2862, Note_on_c, 1, 69, 93
3, 2880, Note_off_c, 1, 69, 0
3, 2880, Note_on_c, 1, 67, 93
3, 2898, Note_off_c, 1, 67, 0
3, 2898, Note_on_c, 1, 71, 93
3, 2910, Note_off_c, 1, 71, 0
3, 2958, Note_on_c, 1, 66, 93
3, 2976, Note_off_c, 1, 66, 0
3, 2976, Note_on_c, 1, 64, 93
3, 2994, Note_off_c, 1, 64, 0
3, 2994, Note_on_c, 1, 67, 93
3, 3006, Note_off_c, 1, 67, 0
3, 3054, Note_on_c, 1, 62, 93
3, 3072, Note_off_c, 1, 62, 0
3, 3072, Note_on_c, 1, 61, 93
3, 3090, Note_off_c, 1, 61, 0
3, 3090, Note_on_c, 1, 64, 93
3, 3102, Note_off_c, 1, 64, 0
3, 3150, Note_on_c, 1, 59, 93
3, 3168, Note_off_c, 1, 59, 0
3, 3168, Note_on_c, 1, 57, 93
3, 3186, Note_off_c, 1, 57, 0
3, 3186, Note_on_c, 1, 61, 93
3, 3198, Note_off_c, 1, 61, 0
3, 3246, Note_on_c, 1, 59, 93
3, 3264, Note_off_c, 1, 59, 0
3, 3264, Note_on_c, 1, 57, 93
3, 3282, Note_off_c, 1, 57, 0
3, 3282, Note_on_c, 1, 61, 93
3, 3294, Note_off_c, 1, 61, 0
3, 3342, Note_on_c, 1, 55, 93
3, 3360, Note_off_c, 1, 55, 0
3, 3360, Note_on_c, 1, 54, 93
3, 3378, Note_off_c, 1, 54, 0
3, 3378, Note_on_c, 1, 57, 93
3, 3390, Note_off_c, 1, 57, 0
3, 3438, Note_on_c, 1, 52, 93
3, 3456, Note_off_c, 1, 52, 0
3, 3456, Note_on_c, 1, 50, 93
3, 3474, Note_off_c, 1, 50, 0
3, 3474, Note_on_c, 1, 54, 93
3, 3486, Note_off_c, 1, 54, 0
3, 3534, Note_on_c, 1, 52, 93
3, 3552, Note_off_c, 1, 52, 0
3, 3552, Note_on_c, 1, 50, 93
3, 3570, Note_off_c, 1, 50, 0
3, 3570, Note_on_c, 1, 54, 93
3, 3582, Note_off_c, 1, 54, 0
3, 3630, Note_on_c, 1, 48, 93
3, 3648, Note_off_c, 1, 48, 0
3, 3648, Note_on_c, 1, 47, 93
3, 3666, Note_off_c, 1, 47, 0
3, 3666, Note_on_c, 1, 50, 93
3, 3678, Note_off_c, 1, 50, 0
3, 3726, Note_on_c, 1, 45, 93
3, 3744, Note_off_c, 1, 45, 0
3, 3744, Note_on_c, 1, 43, 93
3, 3762, Note_off_c, 1, 43, 0
3, 3762, Note_on_c, 1, 47, 93
3, 3774, Note_off_c, 1, 47, 0
3, 3822, Note_on_c, 1, 45, 93
3, 3840, Note_off_c, 1, 45, 0
3, 3840, Note_on_c, 1, 43, 93
3, 3858, Note_off_c, 1, 43, 0
3, 3858, Note_on_c, 1, 47, 93
3, 3870, Note_off_c, 1, 47, 0
3, 3918, Note_on_c, 1, 42, 93
3, 3936, Note_off_c, 1, 42, 0
3, 3936, Note_on_c, 1, 40, 93
3, 3954, Note_off_c, 1, 40, 0
3, 3954, Note_on_c, 1, 43, 93
3, 3966, Note_off_c, 1, 43, 0
3, 4014, Note_on_c, 1, 38, 93
3, 4032, Note_off_c, 1, 38, 0
3, 4032, Note_on_c, 1, 37, 93
3, 4080, Note_off_c, 1, 37, 0
3, 4080, Note_on_c, 1, 49, 93
3, 4128, Note_off_c, 1, 49, 0
3, 4128, Note_on_c, 1, 50, 93
3, 4176, Note_off_c, 1, 50, 0
3, 4176, Note_on_c, 1, 42, 93
3, 4224, Note_off_c, 1, 42, 0
3, 4224, Note_on_c, 1, 43, 93
3, 4272, Note_off_c, 1, 43, 0
3, 4272, Note_on_c, 1, 45, 93
3, 4320, Note_off_c, 1, 45, 0
3, 4320, Note_on_c, 1, 38, 93
3, 4368, Note_off_c, 1, 38, 0
3, 4368, Note_on_c, 1, 50, 93
3, 4416, Note_off_c, 1, 50, 0
3, 4416, Note_on_c, 1, 52, 93
3, 4440, Note_off_c, 1, 52, 0
3, 4464, Note_on_c, 1, 52, 93
3, 4488, Note_off_c, 1, 52, 0
3, 4512, Note_on_c, 1, 38, 93
3, 4608, Note_off_c, 1, 38, 0
3, 4608, Note_on_c, 1, 55, 93
3, 4656, Note_off_c, 1, 55, 0
3, 4656, Note_on_c, 1, 43, 93
3, 4704, Note_off_c, 1, 43, 0
3, 4704, Note_on_c, 1, 57, 93
3, 4728, Note_off_c, 1, 57, 0
3, 4752, Note_on_c, 1, 57, 93
3, 4776, Note_off_c, 1, 57, 0
3, 4800, Note_on_c, 1, 57, 93
3, 4824, Note_off_c, 1, 57, 0
3, 4848, Note_on_c, 1, 57, 93
3, 4872, Note_off_c, 1, 57, 0
3, 4896, Note_on_c, 1, 54, 93
3, 4944, Note_off_c, 1, 54, 0
3, 4944, Note_on_c, 1, 42, 93
3, 4992, Note_off_c, 1, 42, 0
3, 4992, Note_on_c, 1, 64, 93
3, 5016, Note_off_c, 1, 64, 0
3, 5040, Note_on_c, 1, 64, 93
3, 5064, Note_off_c, 1, 64, 0
3, 5088, Note_on_c, 1, 64, 93
3, 5112, Note_off_c, 1, 64, 0
3, 5136, Note_on_c, 1, 64, 93
3, 5160, Note_off_c, 1, 64, 0
3, 5184, Note_on_c, 1, 52, 93
3, 5232, Note_off_c, 1, 52, 0
3, 5232, Note_on_c, 1, 40, 93
3, 5280, Note_off_c, 1, 40, 0
3, 5280, Note_on_c, 1, 69, 93
3, 5304, Note_off_c, 1, 69, 0
3, 5328, Note_on_c, 1, 67, 93
3, 5352, Note_off_c, 1, 67, 0
3, 5376, Note_on_c, 1, 74, 93
3, 5400, Note_off_c, 1, 74, 0
3, 5424, Note_on_c, 1, 73, 93
3, 5448, Note_off_c, 1, 73, 0
3, 5496, Note_on_c, 1, 62, 93
3, 5520, Note_off_c, 1, 62, 0
3, 5520, Note_on_c, 1, 57, 93
3, 5544, Note_off_c, 1, 57, 0
3, 5544, Note_on_c, 1, 54, 93
3, 5568, Note_off_c, 1, 54, 0
3, 5568, Note_on_c, 1, 50, 93
3, 5598, Note_off_c, 1, 50, 0
3, 5598, Note_on_c, 1, 62, 93
3, 5616, Note_off_c, 1, 62, 0
3, 5616, Note_on_c, 1, 52, 93
3, 5646, Note_off_c, 1, 52, 0
3, 5646, Note_on_c, 1, 60, 93
3, 5664, Note_off_c, 1, 60, 0
3, 5664, Note_on_c, 1, 50, 93
3, 5694, Note_off_c, 1, 50, 0
3, 5694, Note_on_c, 1, 59, 93
3, 5712, Note_off_c, 1, 59, 0
3, 5712, Note_on_c, 1, 48, 93
3, 5742, Note_off_c, 1, 48, 0
3, 5742, Note_on_c, 1, 57, 93
3, 5760, Note_off_c, 1, 57, 0
3, 5760, Note_on_c, 1, 47, 93
3, 5808, Note_off_c, 1, 47, 0
3, 5808, Note_on_c, 1, 59, 93
3, 5856, Note_off_c, 1, 59, 0
3, 5856, Note_on_c, 1, 78, 93
3, 5880, Note_off_c, 1, 78, 0
3, 5904, Note_on_c, 1, 72, 93
3, 5928, Note_off_c, 1, 72, 0
3, 5952, Note_on_c, 1, 78, 93
3, 5976, Note_off_c, 1, 78, 0
3, 6000, Note_on_c, 1, 74, 93
3, 6024, Note_off_c, 1, 74, 0
3, 6048, Note_on_c, 1, 48, 93
3, 6096, Note_off_c, 1, 48, 0
3, 6096, Note_on_c, 1, 60, 93
3, 6144, Note_off_c, 1, 60, 0
3, 6144, Note_on_c, 1, 71, 93
3, 6168, Note_off_c, 1, 71, 0
3, 6192, Note_on_c, 1, 74, 93
3, 6216, Note_off_c, 1, 74, 0
3, 6240, Note_on_c, 1, 65, 93
3, 6264, Note_off_c, 1, 65, 0
3, 6288, Note_on_c, 1, 69, 93
3, 6312, Note_off_c, 1, 69, 0
3, 6336, Note_on_c, 1, 50, 93
3, 6384, Note_off_c, 1, 50, 0
3, 6384, Note_on_c, 1, 62, 93
3, 6432, Note_off_c, 1, 62, 0
3, 6432, Note_on_c, 1, 73, 93
3, 6456, Note_off_c, 1, 73, 0
3, 6480, Note_on_c, 1, 64, 93
3, 6504, Note_off_c, 1, 64, 0
3, 6528, Note_on_c, 1, 73, 93
3, 6552, Note_off_c, 1, 73, 0
3, 6576, Note_on_c, 1, 62, 93
3, 6600, Note_off_c, 1, 62, 0
3, 6648, Note_on_c, 1, 55, 93
3, 6672, Note_off_c, 1, 55, 0
3, 6672, Note_on_c, 1, 50, 93
3, 6696, Note_off_c, 1, 50, 0
3, 6696, Note_on_c, 1, 47, 93
3, 6720, Note_off_c, 1, 47, 0
3, 6720, Note_on_c, 1, 43, 93
3, 6750, Note_off_c, 1, 43, 0
3, 6750, Note_on_c, 1, 55, 93
3, 6768, Note_off_c, 1, 55, 0
3, 6768, Note_on_c, 1, 54, 93
3, 6798, Note_off_c, 1, 54, 0
3, 6798, Note_on_c, 1, 62, 93
3, 6816, Note_off_c, 1, 62, 0
3, 6816, Note_on_c, 1, 55, 93
3, 6846, Note_off_c, 1, 55, 0
3, 6846, Note_on_c, 1, 64, 93
3, 6864, Note_off_c, 1, 64, 0
3, 6864, Note_on_c, 1, 57, 93
3, 6894, Note_off_c, 1, 57, 0
3, 6894, Note_on_c, 1, 66, 93
3, 6912, Note_off_c, 1, 66, 0
3, 6912, Note_on_c, 1, 59, 93
3, 6930, Note_off_c, 1, 59, 0
3, 6930, Note_on_c, 1, 62, 93
3, 6942, Note_off_c, 1, 62, 0
3, 6990, Note_on_c, 1, 57, 93
3, 7008, Note_off_c, 1, 57, 0
3, 7008, Note_on_c, 1, 59, 93
3, 7026, Note_off_c, 1, 59, 0
3, 7026, Note_on_c, 1, 62, 93
3, 7038, Note_off_c, 1, 62, 0
3, 7086, Note_on_c, 1, 60, 93
3, 7104, Note_off_c, 1, 60, 0
3, 7104, Note_on_c, 1, 62, 93
3, 7122, Note_off_c, 1, 62, 0
3, 7122, Note_on_c, 1, 67, 93
3, 7134, Note_off_c, 1, 67, 0
3, 7182, Note_on_c, 1, 64, 93
3, 7200, Note_off_c, 1, 64, 0
3, 7200, Note_on_c, 1, 66, 93
3, 7218, Note_off_c, 1, 66, 0
3, 7218, Note_on_c, 1, 69, 93
3, 7230, Note_off_c, 1, 69, 0
3, 7278, Note_on_c, 1, 64, 93
3, 7296, Note_off_c, 1, 64, 0
3, 7296, Note_on_c, 1, 66, 93
3, 7314, Note_off_c, 1, 66, 0
3, 7314, Note_on_c, 1, 69, 93
3, 7326, Note_off_c, 1, 69, 0
3, 7374, Note_on_c, 1, 67, 93
3, 7392, Note_off_c, 1, 67, 0
3, 7392, Note_on_c, 1, 69, 93
3, 7410, Note_off_c, 1, 69, 0
3, 7410, Note_on_c, 1, 74, 93
3, 7422, Note_off_c, 1, 74, 0
3, 7470, Note_on_c, 1, 69, 93
3, 7488, Note_off_c, 1, 69, 0
3, 7488, Note_on_c, 1, 67, 93
3, 7506, Note_off_c, 1, 67, 0
3, 7506, Note_on_c, 1, 71, 93
3, 7518, Note_off_c, 1, 71, 0
3, 7566, Note_on_c, 1, 66, 93
3, 7584, Note_off_c, 1, 66, 0
3, 7584, Note_on_c, 1, 64, 93
3, 7602, Note_off_c, 1, 64, 0
3, 7602, Note_on_c, 1, 67, 93
3, 7614, Note_off_c, 1, 67, 0
3, 7662, Note_on_c, 1, 62, 93
3, 7680, Note_off_c, 1, 62, 0
3, 7680, Note_on_c, 1, 61, 93
3, 7698, Note_off_c, 1, 61, 0
3, 7698, Note_on_c, 1, 64, 93
3, 7710, Note_off_c, 1, 64, 0
3, 7758, Note_on_c, 1, 59, 93
3, 7776, Note_off_c, 1, 59, 0
3, 7776, Note_on_c, 1, 57, 93
3, 7794, Note_off_c, 1, 57, 0
3, 7794, Note_on_c, 1, 61, 93
3, 7806, Note_off_c, 1, 61, 0
3, 7854, Note_on_c, 1, 59, 93
3, 7872, Note_off_c, 1, 59, 0
3, 7872, Note_on_c, 1, 57, 93
3, 7890, Note_off_c, 1, 57, 0
3, 7890, Note_on_c, 1, 61, 93
3, 7902, Note_off_c, 1, 61, 0
3, 7950, Note_on_c, 1, 55, 93
3, 7968, Note_off_c, 1, 55, 0
3, 7968, Note_on_c, 1, 54, 93
3, 7986, Note_off_c, 1, 54, 0
3, 7986, Note_on_c, 1, 57, 93
3, 7998, Note_off_c, 1, 57, 0
3, 8046, Note_on_c, 1, 52, 93
3, 8064, Note_off_c, 1, 52, 0
3, 8064, Note_on_c, 1, 50, 93
3, 8082, Note_off_c, 1, 50, 0
3, 8082, Note_on_c, 1, 54, 93
3, 8094, Note_off_c, 1, 54, 0
3, 8142, Note_on_c, 1, 52, 93
3, 8160, Note_off_c, 1, 52, 0
3, 8160, Note_on_c, 1, 50, 93
3, 8178, Note_off_c, 1, 50, 0
3, 8178, Note_on_c, 1, 54, 93
3, 8190, Note_off_c, 1, 54, 0
3, 8238, Note_on_c, 1, 48, 93
3, 8256, Note_off_c, 1, 48, 0
3, 8256, Note_on_c, 1, 47, 93
3, 8274, Note_off_c, 1, 47, 0
3, 8274, Note_on_c, 1, 50, 93
3, 8286, Note_off_c, 1, 50, 0
3, 8334, Note_on_c, 1, 45, 93
3, 8352, Note_off_c, 1, 45, 0
3, 8352, Note_on_c, 1, 43, 93
3, 8370, Note_off_c, 1, 43, 0
3, 8370, Note_on_c, 1, 47, 93
3, 8382, Note_off_c, 1, 47, 0
3, 8430, Note_on_c, 1, 45, 93
3, 8448, Note_off_c, 1, 45, 0
3, 8448, Note_on_c, 1, 43, 93
3, 8466, Note_off_c, 1, 43, 0
3, 8466, Note_on_c, 1, 47, 93
3, 8478, Note_off_c, 1, 47, 0
3, 8526, Note_on_c, 1, 42, 93
3, 8544, Note_off_c, 1, 42, 0
3, 8544, Note_on_c, 1, 40, 93
3, 8562, Note_off_c, 1, 40, 0
3, 8562, Note_on_c, 1, 43, 93
3, 8574, Note_off_c, 1, 43, 0
3, 8622, Note_on_c, 1, 38, 93
3, 8640, Note_off_c, 1, 38, 0
3, 8640, Note_on_c, 1, 37, 93
3, 8688, Note_off_c, 1, 37, 0
3, 8688, Note_on_c, 1, 49, 93
3, 8736, Note_off_c, 1, 49, 0
3, 8736, Note_on_c, 1, 50, 93
3, 8784, Note_off_c, 1, 50, 0
3, 8784, Note_on_c, 1, 42, 93
3, 8832, Note_off_c, 1, 42, 0
3, 8832, Note_on_c, 1, 43, 93
3, 8880, Note_off_c, 1, 43, 0
3, 8880, Note_on_c, 1, 45, 93
3, 8928, Note_off_c, 1, 45, 0
3, 8928, Note_on_c, 1, 38, 93
3, 8976, Note_off_c, 1, 38, 0
3, 8976, Note_on_c, 1, 50, 93
3, 9024, Note_off_c, 1, 50, 0
3, 9024, Note_on_c, 1, 52, 93
3, 9048, Note_off_c, 1, 52, 0
3, 9072, Note_on_c, 1, 52, 93
3, 9096, Note_off_c, 1, 52, 0
3, 9120, Note_on_c, 1, 38, 93
3, 9216, Note_off_c, 1, 38, 0
3, 9216, Note_on_c, 1, 74, 93
3, 9234, Note_off_c, 1, 74, 0
3, 9234, Note_on_c, 1, 78, 93
3, 9246, Note_off_c, 1, 78, 0
3, 9294, Note_on_c, 1, 76, 93
3, 9312, Note_off_c, 1, 76, 0
3, 9312, Note_on_c, 1, 74, 93
3, 9330, Note_off_c, 1, 74, 0
3, 9330, Note_on_c, 1, 78, 93
3, 9342, Note_off_c, 1, 78, 0
3, 9390, Note_on_c, 1, 72, 93
3, 9408, Note_off_c, 1, 72, 0
3, 9408, Note_on_c, 1, 71, 93
3, 9426, Note_off_c, 1, 71, 0
3, 9426, Note_on_c, 1, 74, 93
3, 9438, Note_off_c, 1, 74, 0
3, 9486, Note_on_c, 1, 69, 93
3, 9504, Note_off_c, 1, 69, 0
3, 9504, Note_on_c, 1, 67, 93
3, 9522, Note_off_c, 1, 67, 0
3, 9522, Note_on_c, 1, 71, 93
3, 9534, Note_off_c, 1, 71, 0
3, 9582, Note_on_c, 1, 69, 93
3, 9600, Note_off_c, 1, 69, 0
3, 9600, Note_on_c, 1, 67, 93
3, 9618, Note_off_c, 1, 67, 0
3, 9618, Note_on_c, 1, 71, 93
3, 9630, Note_off_c, 1, 71, 0
3, 9678, Note_on_c, 1, 66, 93
3, 9696, Note_off_c, 1, 66, 0
3, 9696, Note_on_c, 1, 64, 93
3, 9714, Note_off_c, 1, 64, 0
3, 9714, Note_on_c, 1, 67, 93
3, 9726, Note_off_c, 1, 67, 0
3, 9774, Note_on_c, 1, 62, 93
3, 9792, Note_off_c, 1, 62, 0
3, 9792, Note_on_c, 1, 60, 93
3, 9810, Note_off_c, 1, 60, 0
3, 9810, Note_on_c, 1, 64, 93
3, 9822, Note_off_c, 1, 64, 0
3, 9870, Note_on_c, 1, 59, 93
3, 9888, Note_off_c, 1, 59, 0
3, 9888, Note_on_c, 1, 57, 93
3, 9906, Note_off_c, 1, 57, 0
3, 9906, Note_on_c, 1, 60, 93
3, 9918, Note_off_c, 1, 60, 0
3, 9966, Note_on_c, 1, 55, 93
3, 9984, Note_off_c, 1, 55, 0
3, 9984, Note_on_c, 1, 54, 93
3, 10002, Note_off_c, 1, 54, 0
3, 10002, Note_on_c, 1, 57, 93
3, 10014, Note_off_c, 1, 57, 0
3, 10062, Note_on_c, 1, 52, 93
3, 10080, Note_off_c, 1, 52, 0
3, 10080, Note_on_c, 1, 51, 93
3, 10098, Note_off_c, 1, 51, 0
3, 10098, Note_on_c, 1, 54, 93
3, 10110, Note_off_c, 1, 54, 0
3, 10158, Note_on_c, 1, 49, 93
3, 10176, Note_off_c, 1, 49, 0
3, 10176, Note_on_c, 1, 47, 93
3, 10194, Note_off_c, 1, 47, 0
3, 10194, Note_on_c, 1, 51, 93
3, 10206, Note_off_c, 1, 51, 0
3, 10254, Note_on_c, 1, 45, 93
3, 10272, Note_off_c, 1, 45, 0
3, 10272, Note_on_c, 1, 43, 93
3, 10290, Note_off_c, 1, 43, 0
3, 10290, Note_on_c, 1, 47, 93
3, 10302, Note_off_c, 1, 47, 0
3, 10350, Note_on_c, 1, 42, 93
3, 10368, Note_off_c, 1, 42, 0
3, 10368, Note_on_c, 1, 40, 93
3, 10416, Note_off_c, 1, 40, 0
3, 10416, Note_on_c, 1, 52, 93
3, 10464, Note_off_c, 1, 52, 0
3, 10464, Note_on_c, 1, 66, 93
3, 10488, Note_off_c, 1, 66, 0
3, 10512, Note_on_c, 1, 75, 93
3, 10536, Note_off_c, 1, 75, 0
3, 10560, Note_on_c, 1, 67, 93
3, 10584, Note_off_c, 1, 67, 0
3, 10608, Note_on_c, 1, 75, 93
3, 10632, Note_off_c, 1, 75, 0
3, 10656, Note_on_c, 1, 48, 93
3, 10704, Note_off_c, 1, 48, 0
3, 10704, Note_on_c, 1, 60, 93
3, 10752, Note_off_c, 1, 60, 0
3, 10752, Note_on_c, 1, 66, 93
3, 10776, Note_off_c, 1, 66, 0
3, 10800, Note_on_c, 1, 75, 93
3, 10824, Note_off_c, 1, 75, 0
3, 10848, Note_on_c, 1, 59, 93
3, 10872, Note_off_c, 1, 59, 0
3, 10896, Note_on_c, 1, 75, 93
3, 10920, Note_off_c, 1, 75, 0
3, 10944, Note_on_c, 1, 57, 93
3, 10992, Note_off_c, 1, 57, 0
3, 10992, Note_on_c, 1, 51, 93
3, 11040, Note_off_c, 1, 51, 0
3, 11040, Note_on_c, 1, 52, 93
3, 11088, Note_off_c, 1, 52, 0
3, 11088, Note_on_c, 1, 57, 93
3, 11136, Note_off_c, 1, 57, 0
3, 11136, Note_on_c, 1, 59, 93
3, 11184, Note_off_c, 1, 59, 0
3, 11184, Note_on_c, 1, 47, 93
3, 11232, Note_off_c, 1, 47, 0
3, 11232, Note_on_c, 1, 52, 93
3, 11280, Note_off_c, 1, 52, 0
3, 11280, Note_on_c, 1, 66, 93
3, 11304, Note_off_c, 1, 66, 0
3, 11328, Note_on_c, 1, 63, 93
3, 11352, Note_off_c, 1, 63, 0
3, 11376, Note_on_c, 1, 71, 93
3, 11400, Note_off_c, 1, 71, 0
3, 11424, Note_on_c, 1, 66, 93
3, 11448, Note_off_c, 1, 66, 0
3, 11472, Note_on_c, 1, 63, 93
3, 11496, Note_off_c, 1, 63, 0
3, 11520, Note_on_c, 1, 48, 93
3, 11568, Note_off_c, 1, 48, 0
3, 11568, Note_on_c, 1, 59, 93
3, 11616, Note_off_c, 1, 59, 0
3, 11616, Note_on_c, 1, 57, 93
3, 11664, Note_off_c, 1, 57, 0
3, 11664, Note_on_c, 1, 56, 93
3, 11712, Note_off_c, 1, 56, 0
3, 11712, Note_on_c, 1, 57, 93
3, 11760, Note_off_c, 1, 57, 0
3, 11760, Note_on_c, 1, 48, 93
3, 11808, Note_off_c, 1, 48, 0
3, 11808, Note_on_c, 1, 47, 93
3, 11856, Note_off_c, 1, 47, 0
3, 11856, Note_on_c, 1, 57, 93
3, 11904, Note_off_c, 1, 57, 0
3, 11904, Note_on_c, 1, 55, 93
3, 11952, Note_off_c, 1, 55, 0
3, 11952, Note_on_c, 1, 54, 93
3, 12000, Note_off_c, 1, 54, 0
3, 12000, Note_on_c, 1, 55, 93
3, 12048, Note_off_c, 1, 55, 0
3, 12048, Note_on_c, 1, 47, 93
3, 12096, Note_off_c, 1, 47, 0
3, 12096, Note_on_c, 1, 45, 93
3, 12114, Note_off_c, 1, 45, 0
3, 12114, Note_on_c, 1, 57, 93
3, 12126, Note_off_c, 1, 57, 0
3, 12174, Note_on_c, 1, 59, 93
3, 12192, Note_off_c, 1, 59, 0
3, 12192, Note_on_c, 1, 57, 93
3, 12210, Note_off_c, 1, 57, 0
3, 12210, Note_on_c, 1, 60, 93
3, 12222, Note_off_c, 1, 60, 0
3, 12270, Note_on_c, 1, 55, 93
3, 12288, Note_off_c, 1, 55, 0
3, 12288, Note_on_c, 1, 54, 93
3, 12306, Note_off_c, 1, 54, 0
3, 12306, Note_on_c, 1, 57, 93
3, 12318, Note_off_c, 1, 57, 0
3, 12366, Note_on_c, 1, 52, 93
3, 12384, Note_off_c, 1, 52, 0
3, 12384, Note_on_c, 1, 50, 93
3, 12402, Note_off_c, 1, 50, 0
3, 12402, Note_on_c, 1, 62, 93
3, 12414, Note_off_c, 1, 62, 0
3, 12462, Note_on_c, 1, 64, 93
3, 12480, Note_off_c, 1, 64, 0
3, 12480, Note_on_c, 1, 62, 93
3, 12498, Note_off_c, 1, 62, 0
3, 12498, Note_on_c, 1, 66, 93
3, 12510, Note_off_c, 1, 66, 0
3, 12558, Note_on_c, 1, 60, 93
3, 12576, Note_off_c, 1, 60, 0
3, 12576, Note_on_c, 1, 59, 93
3, 12594, Note_off_c, 1, 59, 0
3, 12594, Note_on_c, 1, 62, 93
3, 12606, Note_off_c, 1, 62, 0
3, 12654, Note_on_c, 1, 57, 93
3, 12672, Note_off_c, 1, 57, 0
3, 12672, Note_on_c, 1, 55, 93
3, 12690, Note_off_c, 1, 55, 0
3, 12690, Note_on_c, 1, 67, 93
3, 12702, Note_off_c, 1, 67, 0
3, 12750, Note_on_c, 1, 69, 93
3, 12768, Note_off_c, 1, 69, 0
3, 12768, Note_on_c, 1, 67, 93
3, 12786, Note_off_c, 1, 67, 0
3, 12786, Note_on_c, 1, 71, 93
3, 12798, Note_off_c, 1, 71, 0
3, 12846, Note_on_c, 1, 65, 93
3, 12864, Note_off_c, 1, 65, 0
3, 12864, Note_on_c, 1, 64, 93
3, 12882, Note_off_c, 1, 64, 0
3, 12882, Note_on_c, 1, 67, 93
3, 12894, Note_off_c, 1, 67, 0
3, 12942, Note_on_c, 1, 62, 93
3, 12960, Note_off_c, 1, 62, 0
3, 12960, Note_on_c, 1, 60, 93
3, 12978, Note_off_c, 1, 60, 0
3, 12978, Note_on_c, 1, 72, 93
3, 12990, Note_off_c, 1, 72, 0
3, 13038, Note_on_c, 1, 74, 93
3, 13056, Note_off_c, 1, 74, 0
3, 13056, Note_on_c, 1, 72, 93
3, 13074, Note_off_c, 1, 72, 0
3, 13074, Note_on_c, 1, 76, 93
3, 13086, Note_off_c, 1, 76, 0
3, 13134, Note_on_c, 1, 71, 93
3, 13152, Note_off_c, 1, 71, 0
3, 13152, Note_on_c, 1, 69, 93
3, 13170, Note_off_c, 1, 69, 0
3, 13170, Note_on_c, 1, 72, 93
3, 13182, Note_off_c, 1, 72, 0
3, 13230, Note_on_c, 1, 67, 93
3, 13248, Note_off_c, 1, 67, 0
3, 13248, Note_on_c, 1, 66, 93
3, 13296, Note_off_c, 1, 66, 0
3, 13296, Note_on_c, 1, 57, 93
3, 13344, Note_off_c, 1, 57, 0
3, 13344, Note_on_c, 1, 59, 93
3, 13392, Note_off_c, 1, 59, 0
3, 13392, Note_on_c, 1, 60, 93
3, 13440, Note_off_c, 1, 60, 0
3, 13440, Note_on_c, 1, 62, 93
3, 13488, Note_off_c, 1, 62, 0
3, 13488, Note_on_c, 1, 50, 93
3, 13536, Note_off_c, 1, 50, 0
3, 13536, Note_on_c, 1, 55, 93
3, 13584, Note_off_c, 1, 55, 0
3, 13584, Note_on_c, 1, 43, 93
3, 13632, Note_off_c, 1, 43, 0
3, 13632, Note_on_c, 1, 78, 93
3, 13656, Note_off_c, 1, 78, 0
3, 13680, Note_on_c, 1, 72, 93
3, 13704, Note_off_c, 1, 72, 0
3, 13728, Note_on_c, 1, 55, 93
3, 13824, Note_off_c, 1, 55, 0
3, 13824, Note_on_c, 1, 74, 93
3, 13842, Note_off_c, 1, 74, 0
3, 13842, Note_on_c, 1, 78, 93
3, 13854, Note_off_c, 1, 78, 0
3, 13902, Note_on_c, 1, 76, 93
3, 13920, Note_off_c, 1, 76, 0
3, 13920, Note_on_c, 1, 74, 93
3, 13938, Note_off_c, 1, 74, 0
3, 13938, Note_on_c, 1, 78, 93
3, 13950, Note_off_c, 1, 78, 0
3, 13998, Note_on_c, 1, 72, 93
3, 14016, Note_off_c, 1, 72, 0
3, 14016, Note_on_c, 1, 71, 93
3, 14034, Note_off_c, 1, 71, 0
3, 14034, Note_on_c, 1, 74, 93
3, 14046, Note_off_c, 1, 74, 0
3, 14094, Note_on_c, 1, 69, 93
3, 14112, Note_off_c, 1, 69, 0
3, 14112, Note_on_c, 1, 67, 93
3, 14130, Note_off_c, 1, 67, 0
3, 14130, Note_on_c, 1, 71, 93
3, 14142, Note_off_c, 1, 71, 0
3, 14190, Note_on_c, 1, 69, 93
3, 14208, Note_off_c, 1, 69, 0
3, 14208, Note_on_c, 1, 67, 93
3, 14226, Note_off_c, 1, 67, 0
3, 14226, Note_on_c, 1, 71, 93
3, 14238, Note_off_c, 1, 71, 0
3, 14286, Note_on_c, 1, 66, 93
3, 14304, Note_off_c, 1, 66, 0
3, 14304, Note_on_c, 1, 64, 93
3, 14322, Note_off_c, 1, 64, 0
3, 14322, Note_on_c, 1, 67, 93
3, 14334, Note_off_c, 1, 67, 0
3, 14382, Note_on_c, 1, 62, 93
3, 14400, Note_off_c, 1, 62, 0
3, 14400, Note_on_c, 1, 60, 93
3, 14418, Note_off_c, 1, 60, 0
3, 14418, Note_on_c, 1, 64, 93
3, 14430, Note_off_c, 1, 64, 0
3, 14478, Note_on_c, 1, 59, 93
3, 14496, Note_off_c, 1, 59, 0
3, 14496, Note_on_c, 1, 57, 93
3, 14514, Note_off_c, 1, 57, 0
3, 14514, Note_on_c, 1, 60, 93
3, 14526, Note_off_c, 1, 60, 0
3, 14574, Note_on_c, 1, 55, 93
3, 14592, Note_off_c, 1, 55, 0
3, 14592, Note_on_c, 1, 54, 93
3, 14610, Note_off_c, 1, 54, 0
3, 14610, Note_on_c, 1, 57, 93
3, 14622, Note_off_c, 1, 57, 0
3, 14670, Note_on_c, 1, 52, 93
3, 14688, Note_off_c, 1, 52, 0
3, 14688, Note_on_c, 1, 51, 93
3, 14706, Note_off_c, 1, 51, 0
3, 14706, Note_on_c, 1, 54, 93
3, 14718, Note_off_c, 1, 54, 0
3, 14766, Note_on_c, 1, 49, 93
3, 14784, Note_off_c, 1, 49, 0
3, 14784, Note_on_c, 1, 47, 93
3, 14802, Note_off_c, 1, 47, 0
3, 14802, Note_on_c, 1, 51, 93
3, 14814, Note_off_c, 1, 51, 0
3, 14862, Note_on_c, 1, 45, 93
3, 14880, Note_off_c, 1, 45, 0
3, 14880, Note_on_c, 1, 43, 93
3, 14898, Note_off_c, 1, 43, 0
3, 14898, Note_on_c, 1, 47, 93
3, 14910, Note_off_c, 1, 47, 0
3, 14958, Note_on_c, 1, 42, 93
3, 14976, Note_off_c, 1, 42, 0
3, 14976, Note_on_c, 1, 40, 93
3, 15024, Note_off_c, 1, 40, 0
3, 15024, Note_on_c, 1, 52, 93
3, 15072, Note_off_c, 1, 52, 0
3, 15072, Note_on_c, 1, 66, 93
3, 15096, Note_off_c, 1, 66, 0
3, 15120, Note_on_c, 1, 75, 93
3, 15144, Note_off_c, 1, 75, 0
3, 15168, Note_on_c, 1, 67, 93
3, 15192, Note_off_c, 1, 67, 0
3, 15216, Note_on_c, 1, 75, 93
3, 15240, Note_off_c, 1, 75, 0
3, 15264, Note_on_c, 1, 48, 93
3, 15312, Note_off_c, 1, 48, 0
3, 15312, Note_on_c, 1, 60, 93
3, 15360, Note_off_c, 1, 60, 0
3, 15360, Note_on_c, 1, 66, 93
3, 15384, Note_off_c, 1, 66, 0
3, 15408, Note_on_c, 1, 75, 93
3, 15432, Note_off_c, 1, 75, 0
3, 15456, Note_on_c, 1, 59, 93
3, 15480, Note_off_c, 1, 59, 0
3, 15504, Note_on_c, 1, 75, 93
3, 15528, Note_off_c, 1, 75, 0
3, 15552, Note_on_c, 1, 57, 93
3, 15600, Note_off_c, 1, 57, 0
3, 15600, Note_on_c, 1, 51, 93
3, 15648, Note_off_c, 1, 51, 0
3, 15648, Note_on_c, 1, 52, 93
3, 15696, Note_off_c, 1, 52, 0
3, 15696, Note_on_c, 1, 57, 93
3, 15744, Note_off_c, 1, 57, 0
3, 15744, Note_on_c, 1, 59, 93
3, 15792, Note_off_c, 1, 59, 0
3, 15792, Note_on_c, 1, 47, 93
3, 15840, Note_off_c, 1, 47, 0
3, 15840, Note_on_c, 1, 52, 93
3, 15888, Note_off_c, 1, 52, 0
3, 15888, Note_on_c, 1, 66, 93
3, 15912, Note_off_c, 1, 66, 0
3, 15936, Note_on_c, 1, 63, 93
3, 15960, Note_off_c, 1, 63, 0
3, 15984, Note_on_c, 1, 71, 93
3, 16008, Note_off_c, 1, 71, 0
3, 16032, Note_on_c, 1, 66, 93
3, 16056, Note_off_c, 1, 66, 0
3, 16080, Note_on_c, 1, 63, 93
3, 16104, Note_off_c, 1, 63, 0
3, 16128, Note_on_c, 1, 48, 93
3, 16176, Note_off_c, 1, 48, 0
3, 16176, Note_on_c, 1, 59, 93
3, 16224, Note_off_c, 1, 59, 0
3, 16224, Note_on_c, 1, 57, 93
3, 16272, Note_off_c, 1, 57, 0
3, 16272, Note_on_c, 1, 56, 93
3, 16320, Note_off_c, 1, 56, 0
3, 16320, Note_on_c, 1, 57, 93
3, 16368, Note_off_c, 1, 57, 0
3, 16368, Note_on_c, 1, 48, 93
3, 16416, Note_off_c, 1, 48, 0
3, 16416, Note_on_c, 1, 47, 93
3, 16464, Note_off_c, 1, 47, 0
3, 16464, Note_on_c, 1, 57, 93
3, 16512, Note_off_c, 1, 57, 0
3, 16512, Note_on_c, 1, 55, 93
3, 16560, Note_off_c, 1, 55, 0
3, 16560, Note_on_c, 1, 54, 93
3, 16608, Note_off_c, 1, 54, 0
3, 16608, Note_on_c, 1, 55, 93
3, 16656, Note_off_c, 1, 55, 0
3, 16656, Note_on_c, 1, 47, 93
3, 16704, Note_off_c, 1, 47, 0
3, 16704, Note_on_c, 1, 45, 93
3, 16722, Note_off_c, 1, 45, 0
3, 16722, Note_on_c, 1, 57, 93
3, 16734, Note_off_c, 1, 57, 0
3, 16782, Note_on_c, 1, 59, 93
3, 16800, Note_off_c, 1, 59, 0
3, 16800, Note_on_c, 1, 57, 93
3, 16818, Note_off_c, 1, 57, 0
3, 16818, Note_on_c, 1, 60, 93
3, 16830, Note_off_c, 1, 60, 0
3, 16878, Note_on_c, 1, 55, 93
3, 16896, Note_off_c, 1, 55, 0
3, 16896, Note_on_c, 1, 54, 93
3, 16914, Note_off_c, 1, 54, 0
3, 16914, Note_on_c, 1, 57, 93
3, 16926, Note_off_c, 1, 57, 0
3, 16974, Note_on_c, 1, 52, 93
3, 16992, Note_off_c, 1, 52, 0
3, 16992, Note_on_c, 1, 50, 93
3, 17010, Note_off_c, 1, 50, 0
3, 17010, Note_on_c, 1, 62, 93
3, 17022, Note_off_c, 1, 62, 0
3, 17070, Note_on_c, 1, 64, 93
3, 17088, Note_off_c, 1, 64, 0
3, 17088, Note_on_c, 1, 62, 93
3, 17106, Note_off_c, 1, 62, 0
3, 17106, Note_on_c, 1, 66, 93
3, 17118, Note_off_c, 1, 66, 0
3, 17166, Note_on_c, 1, 60, 93
3, 17184, Note_off_c, 1, 60, 0
3, 17184, Note_on_c, 1, 59, 93
3, 17202, Note_off_c, 1, 59, 0
3, 17202, Note_on_c, 1, 62, 93
3, 17214, Note_off_c, 1, 62, 0
3, 17262, Note_on_c, 1, 57, 93
3, 17280, Note_off_c, 1, 57, 0
3, 17280, Note_on_c, 1, 55, 93
3, 17298, Note_off_c, 1, 55, 0
3, 17298, Note_on_c, 1, 67, 93
3, 17310, Note_off_c, 1, 67, 0
3, 17358, Note_on_c, 1, 69, 93
3, 17376, Note_off_c, 1, 69, 0
3, 17376, Note_on_c, 1, 67, 93
3, 17394, Note_off_c, 1, 67, 0
3, 17394, Note_on_c, 1, 71, 93
3, 17406, Note_off_c, 1, 71, 0
3, 17454, Note_on_c, 1, 65, 93
3, 17472, Note_off_c, 1, 65, 0
3, 17472, Note_on_c, 1, 64, 93
3, 17490, Note_off_c, 1, 64, 0
3, 17490, Note_on_c, 1, 67, 93
3, 17502, Note_off_c, 1, 67, 0
3, 17550, Note_on_c, 1, 62, 93
3, 17568, Note_off_c, 1, 62, 0
3, 17568, Note_on_c, 1, 60, 93
3, 17586, Note_off_c, 1, 60, 0
3, 17586, Note_on_c, 1, 72, 93
3, 17598, Note_off_c, 1, 72, 0
3, 17646, Note_on_c, 1, 74, 93
3, 17664, Note_off_c, 1, 74, 0
3, 17664, Note_on_c, 1, 72, 93
3, 17682, Note_off_c, 1, 72, 0
3, 17682, Note_on_c, 1, 76, 93
3, 17694, Note_off_c, 1, 76, 0
3, 17742, Note_on_c, 1, 71, 93
3, 17760, Note_off_c, 1, 71, 0
3, 17760, Note_on_c, 1, 69, 93
3, 17778, Note_off_c, 1, 69, 0
3, 17778, Note_on_c, 1, 72, 93
3, 17790, Note_off_c, 1, 72, 0
3, 17838, Note_on_c, 1, 67, 93
3, 17856, Note_off_c, 1, 67, 0
3, 17856, Note_on_c, 1, 66, 93
3, 17904, Note_off_c, 1, 66, 0
3, 17904, Note_on_c, 1, 57, 93
3, 17952, Note_off_c, 1, 57, 0
3, 17952, Note_on_c, 1, 59, 93
3, 18000, Note_off_c, 1, 59, 0
3, 18000, Note_on_c, 1, 60, 93
3, 18048, Note_off_c, 1, 60, 0
3, 18048, Note_on_c, 1, 62, 93
3, 18096, Note_off_c, 1, 62, 0
3, 18096, Note_on_c, 1, 50, 93
3, 18144, Note_off_c, 1, 50, 0
3, 18144, Note_on_c, 1, 55, 93
3, 18192, Note_off_c, 1, 55, 0
3, 18192, Note_on_c, 1, 43, 93
3, 18240, Note_off_c, 1, 43, 0
3, 18240, Note_on_c, 1, 78, 93
3, 18264, Note_off_c, 1, 78, 0
3, 18288, Note_on_c, 1, 72, 93
3, 18312, Note_off_c, 1, 72, 0
3, 18336, Note_on_c, 1, 55, 93
3, 18432, Note_off_c, 1, 55, 0
3, 18432, End_track
0, 0, End_of_file
