0, 0, Header, 1, 4, 96
1, 0, Start_track
1, 0, Time_signature, 4, 2, 24, 8
1, 0, Title_t, "untitled"
1, 0, Title_t, "Track1"
1, 0, Tempo, 600000
1, 27504, Tempo, 1200000
1, 27504, End_track
2, 0, Start_track
2, 0, Title_t, "Track2"
2, 0, Program_c, 0, 6
2, 0, Control_c, 0, 7, 100
2, 0, Control_c, 0, 10, 74
2, 0, Note_on_c, 0, 55, 93
2, 18, Note_off_c, 0, 55, 0
2, 18, Note_on_c, 0, 57, 93
2, 30, Note_off_c, 0, 57, 0
2, 30, Note_on_c, 0, 55, 93
2, 48, Note_off_c, 0, 55, 0
2, 48, Note_on_c, 0, 50, 93
2, 66, Note_off_c, 0, 50, 0
2, 66, Note_on_c, 0, 52, 93
2, 78, Note_off_c, 0, 52, 0
2, 78, Note_on_c, 0, 54, 93
2, 96, Note_off_c, 0, 54, 0
2, 96, Note_on_c, 0, 55, 93
2, 114, Note_off_c, 0, 55, 0
2, 114, Note_on_c, 0, 54, 93
2, 126, Note_off_c, 0, 54, 0
2, 126, Note_on_c, 0, 55, 93
2, 144, Note_off_c, 0, 55, 0
2, 144, Note_on_c, 0, 57, 93
2, 162, Note_off_c, 0, 57, 0
2, 162, Note_on_c, 0, 55, 93
2, 174, Note_off_c, 0, 55, 0
2, 174, Note_on_c, 0, 57, 93
2, 192, Note_off_c, 0, 57, 0
2, 192, Note_on_c, 0, 59, 93
2, 210, Note_off_c, 0, 59, 0
2, 210, Note_on_c, 0, 57, 93
2, 222, Note_off_c, 0, 57, 0
2, 222, Note_on_c, 0, 59, 93
2, 240, Note_off_c, 0, 59, 0
2, 240, Note_on_c, 0, 60, 93
2, 258, Note_off_c, 0, 60, 0
2, 258, Note_on_c, 0, 59, 93
2, 270, Note_off_c, 0, 59, 0
2, 270, Note_on_c, 0, 61, 93
2, 288, Note_off_c, 0, 61, 0
2, 288, Note_on_c, 0, 62, 93
2, 306, Note_off_c, 0, 62, 0
2, 306, Note_on_c, 0, 64, 93
2, 318, Note_off_c, 0, 64, 0
2, 318, Note_on_c, 0, 62, 93
2, 336, Note_off_c, 0, 62, 0
2, 336, Note_on_c, 0, 57, 93
2, 354, Note_off_c, 0, 57, 0
2, 354, Note_on_c, 0, 59, 93
2, 366, Note_off_c, 0, 59, 0
2, 366, Note_on_c, 0, 61, 93
2, 384, Note_off_c, 0, 61, 0
2, 384, Note_on_c, 0, 62, 93
2, 402, Note_off_c, 0, 62, 0
2, 402, Note_on_c, 0, 61, 93
2, 414, Note_off_c, 0, 61, 0
2, 414, Note_on_c, 0, 62, 93
2, 432, Note_off_c, 0, 62, 0
2, 432, Note_on_c, 0, 64, 93
2, 450, Note_off_c, 0, 64, 0
2, 450, Note_on_c, 0, 62, 93
2, 462, Note_off_c, 0, 62, 0
2, 462, Note_on_c, 0, 64, 93
2, 480, Note_off_c, 0, 64, 0
2, 480, Note_on_c, 0, 66, 93
2, 498, Note_off_c, 0, 66, 0
2, 498, Note_on_c, 0, 64, 93
2, 510, Note_off_c, 0, 64, 0
2, 510, Note_on_c, 0, 66, 93
2, 528, Note_off_c, 0, 66, 0
2, 528, Note_on_c, 0, 67, 93
2, 546, Note_off_c, 0, 67, 0
2, 546, Note_on_c, 0, 64, 93
2, 558, Note_off_c, 0, 64, 0
2, 558, Note_on_c, 0, 66, 93
2, 576, Note_off_c, 0, 66, 0
2, 576, Note_on_c, 0, 67, 93
2, 594, Note_off_c, 0, 67, 0
2, 594, Note_on_c, 0, 69, 93
2, 606, Note_off_c, 0, 69, 0
2, 606, Note_on_c, 0, 67, 93
2, 624, Note_off_c, 0, 67, 0
2, 624, Note_on_c, 0, 59, 93
2, 642, Note_off_c, 0, 59, 0
2, 642, Note_on_c, 0, 64, 93
2, 654, Note_off_c, 0, 64, 0
2, 654, Note_on_c, 0, 66, 93
2, 672, Note_off_c, 0, 66, 0
2, 672, Note_on_c, 0, 67, 93
2, 690, Note_off_c, 0, 67, 0
2, 690, Note_on_c, 0, 66, 93
2, 702, Note_off_c, 0, 66, 0
2, 702, Note_on_c, 0, 67, 93
2, 720, Note_off_c, 0, 67, 0
2, 720, Note_on_c, 0, 69, 93
2, 738, Note_off_c, 0, 69, 0
2, 738, Note_on_c, 0, 67, 93
2, 750, Note_off_c, 0, 67, 0
2, 750, Note_on_c, 0, 69, 93
2, 768, Note_off_c, 0, 69, 0
2, 768, Note_on_c, 0, 71, 93
2, 786, Note_off_c, 0, 71, 0
2, 786, Note_on_c, 0, 69, 93
2, 798, Note_off_c, 0, 69, 0
2, 798, Note_on_c, 0, 71, 93
2, 816, Note_off_c, 0, 71, 0
2, 816, Note_on_c, 0, 73, 93
2, 834, Note_off_c, 0, 73, 0
2, 834, Note_on_c, 0, 71, 93
2, 846, Note_off_c, 0, 71, 0
2, 846, Note_on_c, 0, 73, 93
2, 864, Note_off_c, 0, 73, 0
2, 864, Note_on_c, 0, 74, 93
2, 882, Note_off_c, 0, 74, 0
2, 882, Note_on_c, 0, 76, 93
2, 894, Note_off_c, 0, 76, 0
2, 894, Note_on_c, 0, 74, 93
2, 912, Note_off_c, 0, 74, 0
2, 912, Note_on_c, 0, 69, 93
2, 930, Note_off_c, 0, 69, 0
2, 930, Note_on_c, 0, 71, 93
2, 942, Note_off_c, 0, 71, 0
2, 942, Note_on_c, 0, 73, 93
2, 960, Note_off_c, 0, 73, 0
2, 960, Note_on_c, 0, 74, 93
2, 978, Note_off_c, 0, 74, 0
2, 978, Note_on_c, 0, 73, 93
2, 990, Note_off_c, 0, 73, 0
2, 990, Note_on_c, 0, 74, 93
2, 1008, Note_off_c, 0, 74, 0
2, 1008, Note_on_c, 0, 76, 93
2, 1026, Note_off_c, 0, 76, 0
2, 1026, Note_on_c, 0, 74, 93
2, 1038, Note_off_c, 0, 74, 0
2, 1038, Note_on_c, 0, 76, 93
2, 1056, Note_off_c, 0, 76, 0
2, 1056, Note_on_c, 0, 78, 93
2, 1074, Note_off_c, 0, 78, 0
2, 1074, Note_on_c, 0, 76, 93
2, 1086, Note_off_c, 0, 76, 0
2, 1086, Note_on_c, 0, 78, 93
2, 1104, Note_off_c, 0, 78, 0
2, 1104, Note_on_c, 0, 79, 93
2, 1122, Note_off_c, 0, 79, 0
2, 1122, Note_on_c, 0, 76, 93
2, 1134, Note_off_c, 0, 76, 0
2, 1134, Note_on_c, 0, 78, 93
2, 1152, Note_off_c, 0, 78, 0
2, 1152, Note_on_c, 0, 79, 93
2, 1170, Note_off_c, 0, 79, 0
2, 1170, Note_on_c, 0, 78, 93
2, 1182, Note_off_c, 0, 78, 0
2, 1182, Note_on_c, 0, 79, 93
2, 1200, Note_off_c, 0, 79, 0
2, 1200, Note_on_c, 0, 74, 93
2, 1218, Note_off_c, 0, 74, 0
2, 1218, Note_on_c, 0, 72, 93
2, 1230, Note_off_c, 0, 72, 0
2, 1230, Note_on_c, 0, 74, 93
2, 1248, Note_off_c, 0, 74, 0
2, 1248, Note_on_c, 0, 71, 93
2, 1266, Note_off_c, 0, 71, 0
2, 1266, Note_on_c, 0, 67, 93
2, 1278, Note_off_c, 0, 67, 0
2, 1278, Note_on_c, 0, 66, 93
2, 1296, Note_off_c, 0, 66, 0
2, 1296, Note_on_c, 0, 67, 93
2, 1314, Note_off_c, 0, 67, 0
2, 1314, Note_on_c, 0, 71, 93
2, 1326, Note_off_c, 0, 71, 0
2, 1326, Note_on_c, 0, 74, 93
2, 1344, Note_off_c, 0, 74, 0
2, 1344, Note_on_c, 0, 77, 93
2, 1362, Note_off_c, 0, 77, 0
2, 1362, Note_on_c, 0, 76, 93
2, 1374, Note_off_c, 0, 76, 0
2, 1374, Note_on_c, 0, 77, 93
2, 1392, Note_off_c, 0, 77, 0
2, 1392, Note_on_c, 0, 74, 93
2, 1410, Note_off_c, 0, 74, 0
2, 1410, Note_on_c, 0, 71, 93
2, 1422, Note_off_c, 0, 71, 0
2, 1422, Note_on_c, 0, 74, 93
2, 1440, Note_off_c, 0, 74, 0
2, 1440, Note_on_c, 0, 76, 93
2, 1458, Note_off_c, 0, 76, 0
2, 1458, Note_on_c, 0, 74, 93
2, 1470, Note_off_c, 0, 74, 0
2, 1470, Note_on_c, 0, 76, 93
2, 1488, Note_off_c, 0, 76, 0
2, 1488, Note_on_c, 0, 72, 93
2, 1506, Note_off_c, 0, 72, 0
2, 1506, Note_on_c, 0, 71, 93
2, 1518, Note_off_c, 0, 71, 0
2, 1518, Note_on_c, 0, 72, 93
2, 1536, Note_off_c, 0, 72, 0
2, 1536, Note_on_c, 0, 67, 93
2, 1554, Note_off_c, 0, 67, 0
2, 1554, Note_on_c, 0, 64, 93
2, 1566, Note_off_c, 0, 64, 0
2, 1566, Note_on_c, 0, 62, 93
2, 1584, Note_off_c, 0, 62, 0
2, 1584, Note_on_c, 0, 64, 93
2, 1602, Note_off_c, 0, 64, 0
2, 1602, Note_on_c, 0, 67, 93
2, 1614, Note_off_c, 0, 67, 0
2, 1614, Note_on_c, 0, 72, 93
2, 1632, Note_off_c, 0, 72, 0
2, 1632, Note_on_c, 0, 76, 93
2, 1650, Note_off_c, 0, 76, 0
2, 1650, Note_on_c, 0, 74, 93
2, 1662, Note_off_c, 0, 74, 0
2, 1662, Note_on_c, 0, 76, 93
2, 1680, Note_off_c, 0, 76, 0
2, 1680, Note_on_c, 0, 72, 93
2, 1698, Note_off_c, 0, 72, 0
2, 1698, Note_on_c, 0, 69, 93
2, 1710, Note_off_c, 0, 69, 0
2, 1710, Note_on_c, 0, 72, 93
2, 1728, Note_off_c, 0, 72, 0
2, 1728, Note_on_c, 0, 74, 93
2, 1746, Note_off_c, 0, 74, 0
2, 1746, Note_on_c, 0, 72, 93
2, 1758, Note_off_c, 0, 72, 0
2, 1758, Note_on_c, 0, 74, 93
2, 1776, Note_off_c, 0, 74, 0
2, 1776, Note_on_c, 0, 69, 93
2, 1794, Note_off_c, 0, 69, 0
2, 1794, Note_on_c, 0, 67, 93
2, 1806, Note_off_c, 0, 67, 0
2, 1806, Note_on_c, 0, 69, 93
2, 1824, Note_off_c, 0, 69, 0
2, 1824, Note_on_c, 0, 66, 93
2, 1842, Note_off_c, 0, 66, 0
2, 1842, Note_on_c, 0, 62, 93
2, 1854, Note_off_c, 0, 62, 0
2, 1854, Note_on_c, 0, 61, 93
2, 1872, Note_off_c, 0, 61, 0
2, 1872, Note_on_c, 0, 62, 93
2, 1890, Note_off_c, 0, 62, 0
2, 1890, Note_on_c, 0, 66, 93
2, 1902, Note_off_c, 0, 66, 0
2, 1902, Note_on_c, 0, 69, 93
2, 1920, Note_off_c, 0, 69, 0
2, 1920, Note_on_c, 0, 72, 93
2, 1938, Note_off_c, 0, 72, 0
2, 1938, Note_on_c, 0, 71, 93
2, 1950, Note_off_c, 0, 71, 0
2, 1950, Note_on_c, 0, 72, 93
2, 1968, Note_off_c, 0, 72, 0
2, 1968, Note_on_c, 0, 69, 93
2, 1986, Note_off_c, 0, 69, 0
2, 1986, Note_on_c, 0, 66, 93
2, 1998, Note_off_c, 0, 66, 0
2, 1998, Note_on_c, 0, 69, 93
2, 2016, Note_off_c, 0, 69, 0
2, 2016, Note_on_c, 0, 71, 93
2, 2034, Note_off_c, 0, 71, 0
2, 2034, Note_on_c, 0, 69, 93
2, 2046, Note_off_c, 0, 69, 0
2, 2046, Note_on_c, 0, 71, 93
2, 2064, Note_off_c, 0, 71, 0
2, 2064, Note_on_c, 0, 67, 93
2, 2082, Note_off_c, 0, 67, 0
2, 2082, Note_on_c, 0, 66, 93
2, 2094, Note_off_c, 0, 66, 0
2, 2094, Note_on_c, 0, 67, 93
2, 2112, Note_off_c, 0, 67, 0
2, 2112, Note_on_c, 0, 62, 93
2, 2130, Note_off_c, 0, 62, 0
2, 2130, Note_on_c, 0, 59, 93
2, 2142, Note_off_c, 0, 59, 0
2, 2142, Note_on_c, 0, 57, 93
2, 2160, Note_off_c, 0, 57, 0
2, 2160, Note_on_c, 0, 59, 93
2, 2178, Note_off_c, 0, 59, 0
2, 2178, Note_on_c, 0, 62, 93
2, 2190, Note_off_c, 0, 62, 0
2, 2190, Note_on_c, 0, 67, 93
2, 2208, Note_off_c, 0, 67, 0
2, 2208, Note_on_c, 0, 71, 93
2, 2226, Note_off_c, 0, 71, 0
2, 2226, Note_on_c, 0, 67, 93
2, 2238, Note_off_c, 0, 67, 0
2, 2238, Note_on_c, 0, 66, 93
2, 2256, Note_off_c, 0, 66, 0
2, 2256, Note_on_c, 0, 67, 93
2, 2274, Note_off_c, 0, 67, 0
2, 2274, Note_on_c, 0, 71, 93
2, 2286, Note_off_c, 0, 71, 0
2, 2286, Note_on_c, 0, 74, 93
2, 2304, Note_off_c, 0, 74, 0
2, 2304, Note_on_c, 0, 79, 93
2, 2376, Note_off_c, 0, 79, 0
2, 2376, Note_on_c, 0, 78, 93
2, 2388, Note_off_c, 0, 78, 0
2, 2388, Note_on_c, 0, 76, 93
2, 2400, Note_off_c, 0, 76, 0
2, 2400, Note_on_c, 0, 74, 93
2, 2496, Note_off_c, 0, 74, 0
2, 2544, Note_on_c, 0, 83, 93
2, 2592, Note_off_c, 0, 83, 0
2, 2592, Note_on_c, 0, 81, 93
2, 2688, Note_off_c, 0, 81, 0
2, 2688, Note_on_c, 0, 81, 93
2, 2784, Note_off_c, 0, 81, 0
2, 2832, Note_on_c, 0, 81, 93
2, 2880, Note_off_c, 0, 81, 0
2, 2880, Note_on_c, 0, 81, 93
2, 2976, Note_off_c, 0, 81, 0
2, 2976, Note_on_c, 0, 79, 93
2, 3072, Note_off_c, 0, 79, 0
2, 3120, Note_on_c, 0, 79, 93
2, 3168, Note_off_c, 0, 79, 0
2, 3168, Note_on_c, 0, 79, 93
2, 3240, Note_off_c, 0, 79, 0
2, 3240, Note_on_c, 0, 76, 93
2, 3264, Note_off_c, 0, 76, 0
2, 3264, Note_on_c, 0, 64, 93
2, 3360, Note_off_c, 0, 64, 0
2, 3408, Note_on_c, 0, 79, 93
2, 3456, Note_off_c, 0, 79, 0
2, 3456, Note_on_c, 0, 79, 93
2, 3528, Note_off_c, 0, 79, 0
2, 3528, Note_on_c, 0, 76, 93
2, 3552, Note_off_c, 0, 76, 0
2, 3552, Note_on_c, 0, 76, 93
2, 3564, Note_off_c, 0, 76, 0
2, 3564, Note_on_c, 0, 78, 93
2, 3648, Note_off_c, 0, 78, 0
2, 3696, Note_on_c, 0, 81, 93
2, 3744, Note_off_c, 0, 81, 0
2, 3744, Note_on_c, 0, 83, 93
2, 3816, Note_off_c, 0, 83, 0
2, 3816, Note_on_c, 0, 78, 93
2, 3840, Note_off_c, 0, 78, 0
2, 3840, Note_on_c, 0, 78, 93
2, 3852, Note_off_c, 0, 78, 0
2, 3852, Note_on_c, 0, 79, 93
2, 3936, Note_off_c, 0, 79, 0
2, 3984, Note_on_c, 0, 79, 93
2, 4032, Note_off_c, 0, 79, 0
2, 4032, Note_on_c, 0, 79, 93
2, 4128, Note_off_c, 0, 79, 0
2, 4128, Note_on_c, 0, 73, 93
2, 4224, Note_off_c, 0, 73, 0
2, 4272, Note_on_c, 0, 69, 93
2, 4320, Note_off_c, 0, 69, 0
2, 4320, Note_on_c, 0, 69, 93
2, 4392, Note_off_c, 0, 69, 0
2, 4392, Note_on_c, 0, 64, 93
2, 4416, Note_off_c, 0, 64, 0
2, 4416, Note_on_c, 0, 64, 93
2, 4428, Note_off_c, 0, 64, 0
2, 4428, Note_on_c, 0, 66, 93
2, 4512, Note_off_c, 0, 66, 0
2, 4608, Note_on_c, 0, 55, 93
2, 4626, Note_off_c, 0, 55, 0
2, 4626, Note_on_c, 0, 57, 93
2, 4638, Note_off_c, 0, 57, 0
2, 4638, Note_on_c, 0, 55, 93
2, 4656, Note_off_c, 0, 55, 0
2, 4656, Note_on_c, 0, 50, 93
2, 4674, Note_off_c, 0, 50, 0
2, 4674, Note_on_c, 0, 52, 93
2, 4686, Note_off_c, 0, 52, 0
2, 4686, Note_on_c, 0, 54, 93
2, 4704, Note_off_c, 0, 54, 0
2, 4704, Note_on_c, 0, 55, 93
2, 4722, Note_off_c, 0, 55, 0
2, 4722, Note_on_c, 0, 54, 93
2, 4734, Note_off_c, 0, 54, 0
2, 4734, Note_on_c, 0, 55, 93
2, 4752, Note_off_c, 0, 55, 0
2, 4752, Note_on_c, 0, 57, 93
2, 4770, Note_off_c, 0, 57, 0
2, 4770, Note_on_c, 0, 55, 93
2, 4782, Note_off_c, 0, 55, 0
2, 4782, Note_on_c, 0, 57, 93
2, 4800, Note_off_c, 0, 57, 0
2, 4800, Note_on_c, 0, 59, 93
2, 4818, Note_off_c, 0, 59, 0
2, 4818, Note_on_c, 0, 57, 93
2, 4830, Note_off_c, 0, 57, 0
2, 4830, Note_on_c, 0, 59, 93
2, 4848, Note_off_c, 0, 59, 0
2, 4848, Note_on_c, 0, 60, 93
2, 4866, Note_off_c, 0, 60, 0
2, 4866, Note_on_c, 0, 59, 93
2, 4878, Note_off_c, 0, 59, 0
2, 4878, Note_on_c, 0, 61, 93
2, 4896, Note_off_c, 0, 61, 0
2, 4896, Note_on_c, 0, 62, 93
2, 4914, Note_off_c, 0, 62, 0
2, 4914, Note_on_c, 0, 64, 93
2, 4926, Note_off_c, 0, 64, 0
2, 4926, Note_on_c, 0, 62, 93
2, 4944, Note_off_c, 0, 62, 0
2, 4944, Note_on_c, 0, 57, 93
2, 4962, Note_off_c, 0, 57, 0
2, 4962, Note_on_c, 0, 59, 93
2, 4974, Note_off_c, 0, 59, 0
2, 4974, Note_on_c, 0, 61, 93
2, 4992, Note_off_c, 0, 61, 0
2, 4992, Note_on_c, 0, 62, 93
2, 5010, Note_off_c, 0, 62, 0
2, 5010, Note_on_c, 0, 61, 93
2, 5022, Note_off_c, 0, 61, 0
2, 5022, Note_on_c, 0, 62, 93
2, 5040, Note_off_c, 0, 62, 0
2, 5040, Note_on_c, 0, 64, 93
2, 5058, Note_off_c, 0, 64, 0
2, 5058, Note_on_c, 0, 62, 93
2, 5070, Note_off_c, 0, 62, 0
2, 5070, Note_on_c, 0, 64, 93
2, 5088, Note_off_c, 0, 64, 0
2, 5088, Note_on_c, 0, 66, 93
2, 5106, Note_off_c, 0, 66, 0
2, 5106, Note_on_c, 0, 64, 93
2, 5118, Note_off_c, 0, 64, 0
2, 5118, Note_on_c, 0, 66, 93
2, 5136, Note_off_c, 0, 66, 0
2, 5136, Note_on_c, 0, 67, 93
2, 5154, Note_off_c, 0, 67, 0
2, 5154, Note_on_c, 0, 64, 93
2, 5166, Note_off_c, 0, 64, 0
2, 5166, Note_on_c, 0, 66, 93
2, 5184, Note_off_c, 0, 66, 0
2, 5184, Note_on_c, 0, 67, 93
2, 5202, Note_off_c, 0, 67, 0
2, 5202, Note_on_c, 0, 69, 93
2, 5214, Note_off_c, 0, 69, 0
2, 5214, Note_on_c, 0, 67, 93
2, 5232, Note_off_c, 0, 67, 0
2, 5232, Note_on_c, 0, 59, 93
2, 5250, Note_off_c, 0, 59, 0
2, 5250, Note_on_c, 0, 64, 93
2, 5262, Note_off_c, 0, 64, 0
2, 5262, Note_on_c, 0, 66, 93
2, 5280, Note_off_c, 0, 66, 0
2, 5280, Note_on_c, 0, 67, 93
2, 5298, Note_off_c, 0, 67, 0
2, 5298, Note_on_c, 0, 66, 93
2, 5310, Note_off_c, 0, 66, 0
2, 5310, Note_on_c, 0, 67, 93
2, 5328, Note_off_c, 0, 67, 0
2, 5328, Note_on_c, 0, 69, 93
2, 5346, Note_off_c, 0, 69, 0
2, 5346, Note_on_c, 0, 67, 93
2, 5358, Note_off_c, 0, 67, 0
2, 5358, Note_on_c, 0, 69, 93
2, 5376, Note_off_c, 0, 69, 0
2, 5376, Note_on_c, 0, 71, 93
2, 5394, Note_off_c, 0, 71, 0
2, 5394, Note_on_c, 0, 69, 93
2, 5406, Note_off_c, 0, 69, 0
2, 5406, Note_on_c, 0, 71, 93
2, 5424, Note_off_c, 0, 71, 0
2, 5424, Note_on_c, 0, 73, 93
2, 5442, Note_off_c, 0, 73, 0
2, 5442, Note_on_c, 0, 71, 93
2, 5454, Note_off_c, 0, 71, 0
2, 5454, Note_on_c, 0, 73, 93
2, 5472, Note_off_c, 0, 73, 0
2, 5472, Note_on_c, 0, 74, 93
2, 5490, Note_off_c, 0, 74, 0
2, 5490, Note_on_c, 0, 76, 93
2, 5502, Note_off_c, 0, 76, 0
2, 5502, Note_on_c, 0, 74, 93
2, 5520, Note_off_c, 0, 74, 0
2, 5520, Note_on_c, 0, 69, 93
2, 5538, Note_off_c, 0, 69, 0
2, 5538, Note_on_c, 0, 71, 93
2, 5550, Note_off_c, 0, 71, 0
2, 5550, Note_on_c, 0, 73, 93
2, 5568, Note_off_c, 0, 73, 0
2, 5568, Note_on_c, 0, 74, 93
2, 5586, Note_off_c, 0, 74, 0
2, 5586, Note_on_c, 0, 73, 93
2, 5598, Note_off_c, 0, 73, 0
2, 5598, Note_on_c, 0, 74, 93
2, 5616, Note_off_c, 0, 74, 0
2, 5616, Note_on_c, 0, 76, 93
2, 5634, Note_off_c, 0, 76, 0
2, 5634, Note_on_c, 0, 74, 93
2, 5646, Note_off_c, 0, 74, 0
2, 5646, Note_on_c, 0, 76, 93
2, 5664, Note_off_c, 0, 76, 0
2, 5664, Note_on_c, 0, 78, 93
2, 5682, Note_off_c, 0, 78, 0
2, 5682, Note_on_c, 0, 76, 93
2, 5694, Note_off_c, 0, 76, 0
2, 5694, Note_on_c, 0, 78, 93
2, 5712, Note_off_c, 0, 78, 0
2, 5712, Note_on_c, 0, 79, 93
2, 5730, Note_off_c, 0, 79, 0
2, 5730, Note_on_c, 0, 76, 93
2, 5742, Note_off_c, 0, 76, 0
2, 5742, Note_on_c, 0, 78, 93
2, 5760, Note_off_c, 0, 78, 0
2, 5760, Note_on_c, 0, 79, 93
2, 5778, Note_off_c, 0, 79, 0
2, 5778, Note_on_c, 0, 78, 93
2, 5790, Note_off_c, 0, 78, 0
2, 5790, Note_on_c, 0, 79, 93
2, 5808, Note_off_c, 0, 79, 0
2, 5808, Note_on_c, 0, 74, 93
2, 5826, Note_off_c, 0, 74, 0
2, 5826, Note_on_c, 0, 72, 93
2, 5838, Note_off_c, 0, 72, 0
2, 5838, Note_on_c, 0, 74, 93
2, 5856, Note_off_c, 0, 74, 0
2, 5856, Note_on_c, 0, 71, 93
2, 5874, Note_off_c, 0, 71, 0
2, 5874, Note_on_c, 0, 67, 93
2, 5886, Note_off_c, 0, 67, 0
2, 5886, Note_on_c, 0, 66, 93
2, 5904, Note_off_c, 0, 66, 0
2, 5904, Note_on_c, 0, 67, 93
2, 5922, Note_off_c, 0, 67, 0
2, 5922, Note_on_c, 0, 71, 93
2, 5934, Note_off_c, 0, 71, 0
2, 5934, Note_on_c, 0, 74, 93
2, 5952, Note_off_c, 0, 74, 0
2, 5952, Note_on_c, 0, 77, 93
2, 5970, Note_off_c, 0, 77, 0
2, 5970, Note_on_c, 0, 76, 93
2, 5982, Note_off_c, 0, 76, 0
2, 5982, Note_on_c, 0, 77, 93
2, 6000, Note_off_c, 0, 77, 0
2, 6000, Note_on_c, 0, 74, 93
2, 6018, Note_off_c, 0, 74, 0
2, 6018, Note_on_c, 0, 71, 93
2, 6030, Note_off_c, 0, 71, 0
2, 6030, Note_on_c, 0, 74, 93
2, 6048, Note_off_c, 0, 74, 0
2, 6048, Note_on_c, 0, 76, 93
2, 6066, Note_off_c, 0, 76, 0
2, 6066, Note_on_c, 0, 74, 93
2, 6078, Note_off_c, 0, 74, 0
2, 6078, Note_on_c, 0, 76, 93
2, 6096, Note_off_c, 0, 76, 0
2, 6096, Note_on_c, 0, 72, 93
2, 6114, Note_off_c, 0, 72, 0
2, 6114, Note_on_c, 0, 71, 93
2, 6126, Note_off_c, 0, 71, 0
2, 6126, Note_on_c, 0, 72, 93
2, 6144, Note_off_c, 0, 72, 0
2, 6144, Note_on_c, 0, 67, 93
2, 6162, Note_off_c, 0, 67, 0
2, 6162, Note_on_c, 0, 64, 93
2, 6174, Note_off_c, 0, 64, 0
2, 6174, Note_on_c, 0, 62, 93
2, 6192, Note_off_c, 0, 62, 0
2, 6192, Note_on_c, 0, 64, 93
2, 6210, Note_off_c, 0, 64, 0
2, 6210, Note_on_c, 0, 67, 93
2, 6222, Note_off_c, 0, 67, 0
2, 6222, Note_on_c, 0, 72, 93
2, 6240, Note_off_c, 0, 72, 0
2, 6240, Note_on_c, 0, 76, 93
2, 6258, Note_off_c, 0, 76, 0
2, 6258, Note_on_c, 0, 74, 93
2, 6270, Note_off_c, 0, 74, 0
2, 6270, Note_on_c, 0, 76, 93
2, 6288, Note_off_c, 0, 76, 0
2, 6288, Note_on_c, 0, 72, 93
2, 6306, Note_off_c, 0, 72, 0
2, 6306, Note_on_c, 0, 69, 93
2, 6318, Note_off_c, 0, 69, 0
2, 6318, Note_on_c, 0, 72, 93
2, 6336, Note_off_c, 0, 72, 0
2, 6336, Note_on_c, 0, 74, 93
2, 6354, Note_off_c, 0, 74, 0
2, 6354, Note_on_c, 0, 72, 93
2, 6366, Note_off_c, 0, 72, 0
2, 6366, Note_on_c, 0, 74, 93
2, 6384, Note_off_c, 0, 74, 0
2, 6384, Note_on_c, 0, 69, 93
2, 6402, Note_off_c, 0, 69, 0
2, 6402, Note_on_c, 0, 67, 93
2, 6414, Note_off_c, 0, 67, 0
2, 6414, Note_on_c, 0, 69, 93
2, 6432, Note_off_c, 0, 69, 0
2, 6432, Note_on_c, 0, 66, 93
2, 6450, Note_off_c, 0, 66, 0
2, 6450, Note_on_c, 0, 62, 93
2, 6462, Note_off_c, 0, 62, 0
2, 6462, Note_on_c, 0, 61, 93
2, 6480, Note_off_c, 0, 61, 0
2, 6480, Note_on_c, 0, 62, 93
2, 6498, Note_off_c, 0, 62, 0
2, 6498, Note_on_c, 0, 66, 93
2, 6510, Note_off_c, 0, 66, 0
2, 6510, Note_on_c, 0, 69, 93
2, 6528, Note_off_c, 0, 69, 0
2, 6528, Note_on_c, 0, 72, 93
2, 6546, Note_off_c, 0, 72, 0
2, 6546, Note_on_c, 0, 71, 93
2, 6558, Note_off_c, 0, 71, 0
2, 6558, Note_on_c, 0, 72, 93
2, 6576, Note_off_c, 0, 72, 0
2, 6576, Note_on_c, 0, 69, 93
2, 6594, Note_off_c, 0, 69, 0
2, 6594, Note_on_c, 0, 66, 93
2, 6606, Note_off_c, 0, 66, 0
2, 6606, Note_on_c, 0, 69, 93
2, 6624, Note_off_c, 0, 69, 0
2, 6624, Note_on_c, 0, 71, 93
2, 6642, Note_off_c, 0, 71, 0
2, 6642, Note_on_c, 0, 69, 93
2, 6654, Note_off_c, 0, 69, 0
2, 6654, Note_on_c, 0, 71, 93
2, 6672, Note_off_c, 0, 71, 0
2, 6672, Note_on_c, 0, 67, 93
2, 6690, Note_off_c, 0, 67, 0
2, 6690, Note_on_c, 0, 66, 93
2, 6702, Note_off_c, 0, 66, 0
2, 6702, Note_on_c, 0, 67, 93
2, 6720, Note_off_c, 0, 67, 0
2, 6720, Note_on_c, 0, 62, 93
2, 6738, Note_off_c, 0, 62, 0
2, 6738, Note_on_c, 0, 59, 93
2, 6750, Note_off_c, 0, 59, 0
2, 6750, Note_on_c, 0, 57, 93
2, 6768, Note_off_c, 0, 57, 0
2, 6768, Note_on_c, 0, 59, 93
2, 6786, Note_off_c, 0, 59, 0
2, 6786, Note_on_c, 0, 62, 93
2, 6798, Note_off_c, 0, 62, 0
2, 6798, Note_on_c, 0, 67, 93
2, 6816, Note_off_c, 0, 67, 0
2, 6816, Note_on_c, 0, 71, 93
2, 6834, Note_off_c, 0, 71, 0
2, 6834, Note_on_c, 0, 67, 93
2, 6846, Note_off_c, 0, 67, 0
2, 6846, Note_on_c, 0, 66, 93
2, 6864, Note_off_c, 0, 66, 0
2, 6864, Note_on_c, 0, 67, 93
2, 6882, Note_off_c, 0, 67, 0
2, 6882, Note_on_c, 0, 71, 93
2, 6894, Note_off_c, 0, 71, 0
2, 6894, Note_on_c, 0, 74, 93
2, 6912, Note_off_c, 0, 74, 0
2, 6912, Note_on_c, 0, 79, 93
2, 6984, Note_off_c, 0, 79, 0
2, 6984, Note_on_c, 0, 78, 93
2, 6996, Note_off_c, 0, 78, 0
2, 6996, Note_on_c, 0, 76, 93
2, 7008, Note_off_c, 0, 76, 0
2, 7008, Note_on_c, 0, 74, 93
2, 7104, Note_off_c, 0, 74, 0
2, 7152, Note_on_c, 0, 83, 93
2, 7200, Note_off_c, 0, 83, 0
2, 7200, Note_on_c, 0, 81, 93
2, 7296, Note_off_c, 0, 81, 0
2, 7296, Note_on_c, 0, 81, 93
2, 7392, Note_off_c, 0, 81, 0
2, 7440, Note_on_c, 0, 81, 93
2, 7488, Note_off_c, 0, 81, 0
2, 7488, Note_on_c, 0, 81, 93
2, 7584, Note_off_c, 0, 81, 0
2, 7584, Note_on_c, 0, 79, 93
2, 7680, Note_off_c, 0, 79, 0
2, 7728, Note_on_c, 0, 79, 93
2, 7776, Note_off_c, 0, 79, 0
2, 7776, Note_on_c, 0, 79, 93
2, 7848, Note_off_c, 0, 79, 0
2, 7848, Note_on_c, 0, 76, 93
2, 7872, Note_off_c, 0, 76, 0
2, 7872, Note_on_c, 0, 64, 93
2, 7968, Note_off_c, 0, 64, 0
2, 8016, Note_on_c, 0, 79, 93
2, 8064, Note_off_c, 0, 79, 0
2, 8064, Note_on_c, 0, 79, 93
2, 8136, Note_off_c, 0, 79, 0
2, 8136, Note_on_c, 0, 76, 93
2, 8160, Note_off_c, 0, 76, 0
2, 8160, Note_on_c, 0, 76, 93
2, 8172, Note_off_c, 0, 76, 0
2, 8172, Note_on_c, 0, 78, 93
2, 8256, Note_off_c, 0, 78, 0
2, 8304, Note_on_c, 0, 81, 93
2, 8352, Note_off_c, 0, 81, 0
2, 8352, Note_on_c, 0, 83, 93
2, 8424, Note_off_c, 0, 83, 0
2, 8424, Note_on_c, 0, 78, 93
2, 8448, Note_off_c, 0, 78, 0
2, 8448, Note_on_c, 0, 78, 93
2, 8460, Note_off_c, 0, 78, 0
2, 8460, Note_on_c, 0, 79, 93
2, 8544, Note_off_c, 0, 79, 0
2, 8592, Note_on_c, 0, 79, 93
2, 8640, Note_off_c, 0, 79, 0
2, 8640, Note_on_c, 0, 79, 93
2, 8736, Note_off_c, 0, 79, 0
2, 8736, Note_on_c, 0, 73, 93
2, 8832, Note_off_c, 0, 73, 0
2, 8880, Note_on_c, 0, 69, 93
2, 8928, Note_off_c, 0, 69, 0
2, 8928, Note_on_c, 0, 69, 93
2, 9000, Note_off_c, 0, 69, 0
2, 9000, Note_on_c, 0, 64, 93
2, 9024, Note_off_c, 0, 64, 0
2, 9024, Note_on_c, 0, 64, 93
2, 9036, Note_off_c, 0, 64, 0
2, 9036, Note_on_c, 0, 66, 93
2, 9120, Note_off_c, 0, 66, 0
2, 9216, Note_on_c, 0, 81, 93
2, 9234, Note_off_c, 0, 81, 0
2, 9234, Note_on_c, 0, 79, 93
2, 9246, Note_off_c, 0, 79, 0
2, 9246, Note_on_c, 0, 81, 93
2, 9264, Note_off_c, 0, 81, 0
2, 9264, Note_on_c, 0, 86, 93
2, 9282, Note_off_c, 0, 86, 0
2, 9282, Note_on_c, 0, 84, 93
2, 9294, Note_off_c, 0, 84, 0
2, 9294, Note_on_c, 0, 83, 93
2, 9312, Note_off_c, 0, 83, 0
2, 9312, Note_on_c, 0, 81, 93
2, 9330, Note_off_c, 0, 81, 0
2, 9330, Note_on_c, 0, 83, 93
2, 9342, Note_off_c, 0, 83, 0
2, 9342, Note_on_c, 0, 81, 93
2, 9360, Note_off_c, 0, 81, 0
2, 9360, Note_on_c, 0, 79, 93
2, 9378, Note_off_c, 0, 79, 0
2, 9378, Note_on_c, 0, 81, 93
2, 9390, Note_off_c, 0, 81, 0
2, 9390, Note_on_c, 0, 79, 93
2, 9408, Note_off_c, 0, 79, 0
2, 9408, Note_on_c, 0, 78, 93
2, 9426, Note_off_c, 0, 78, 0
2, 9426, Note_on_c, 0, 79, 93
2, 9438, Note_off_c, 0, 79, 0
2, 9438, Note_on_c, 0, 78, 93
2, 9456, Note_off_c, 0, 78, 0
2, 9456, Note_on_c, 0, 76, 93
2, 9474, Note_off_c, 0, 76, 0
2, 9474, Note_on_c, 0, 78, 93
2, 9486, Note_off_c, 0, 78, 0
2, 9486, Note_on_c, 0, 76, 93
2, 9504, Note_off_c, 0, 76, 0
2, 9504, Note_on_c, 0, 74, 93
2, 9522, Note_off_c, 0, 74, 0
2, 9522, Note_on_c, 0, 72, 93
2, 9534, Note_off_c, 0, 72, 0
2, 9534, Note_on_c, 0, 74, 93
2, 9552, Note_off_c, 0, 74, 0
2, 9552, Note_on_c, 0, 79, 93
2, 9570, Note_off_c, 0, 79, 0
2, 9570, Note_on_c, 0, 78, 93
2, 9582, Note_off_c, 0, 78, 0
2, 9582, Note_on_c, 0, 76, 93
2, 9600, Note_off_c, 0, 76, 0
2, 9600, Note_on_c, 0, 74, 93
2, 9618, Note_off_c, 0, 74, 0
2, 9618, Note_on_c, 0, 76, 93
2, 9630, Note_off_c, 0, 76, 0
2, 9630, Note_on_c, 0, 74, 93
2, 9648, Note_off_c, 0, 74, 0
2, 9648, Note_on_c, 0, 72, 93
2, 9666, Note_off_c, 0, 72, 0
2, 9666, Note_on_c, 0, 74, 93
2, 9678, Note_off_c, 0, 74, 0
2, 9678, Note_on_c, 0, 72, 93
2, 9696, Note_off_c, 0, 72, 0
2, 9696, Note_on_c, 0, 71, 93
2, 9714, Note_off_c, 0, 71, 0
2, 9714, Note_on_c, 0, 72, 93
2, 9726, Note_off_c, 0, 72, 0
2, 9726, Note_on_c, 0, 71, 93
2, 9744, Note_off_c, 0, 71, 0
2, 9744, Note_on_c, 0, 69, 93
2, 9762, Note_off_c, 0, 69, 0
2, 9762, Note_on_c, 0, 71, 93
2, 9774, Note_off_c, 0, 71, 0
2, 9774, Note_on_c, 0, 69, 93
2, 9792, Note_off_c, 0, 69, 0
2, 9792, Note_on_c, 0, 67, 93
2, 9810, Note_off_c, 0, 67, 0
2, 9810, Note_on_c, 0, 66, 93
2, 9822, Note_off_c, 0, 66, 0
2, 9822, Note_on_c, 0, 67, 93
2, 9840, Note_off_c, 0, 67, 0
2, 9840, Note_on_c, 0, 71, 93
2, 9858, Note_off_c, 0, 71, 0
2, 9858, Note_on_c, 0, 69, 93
2, 9870, Note_off_c, 0, 69, 0
2, 9870, Note_on_c, 0, 67, 93
2, 9888, Note_off_c, 0, 67, 0
2, 9888, Note_on_c, 0, 66, 93
2, 9906, Note_off_c, 0, 66, 0
2, 9906, Note_on_c, 0, 67, 93
2, 9918, Note_off_c, 0, 67, 0
2, 9918, Note_on_c, 0, 66, 93
2, 9936, Note_off_c, 0, 66, 0
2, 9936, Note_on_c, 0, 64, 93
2, 9954, Note_off_c, 0, 64, 0
2, 9954, Note_on_c, 0, 66, 93
2, 9966, Note_off_c, 0, 66, 0
2, 9966, Note_on_c, 0, 64, 93
2, 9984, Note_off_c, 0, 64, 0
2, 9984, Note_on_c, 0, 63, 93
2, 10002, Note_off_c, 0, 63, 0
2, 10002, Note_on_c, 0, 64, 93
2, 10014, Note_off_c, 0, 64, 0
2, 10014, Note_on_c, 0, 63, 93
2, 10032, Note_off_c, 0, 63, 0
2, 10032, Note_on_c, 0, 61, 93
2, 10050, Note_off_c, 0, 61, 0
2, 10050, Note_on_c, 0, 63, 93
2, 10062, Note_off_c, 0, 63, 0
2, 10062, Note_on_c, 0, 61, 93
2, 10080, Note_off_c, 0, 61, 0
2, 10080, Note_on_c, 0, 59, 93
2, 10098, Note_off_c, 0, 59, 0
2, 10098, Note_on_c, 0, 58, 93
2, 10110, Note_off_c, 0, 58, 0
2, 10110, Note_on_c, 0, 59, 93
2, 10128, Note_off_c, 0, 59, 0
2, 10128, Note_on_c, 0, 64, 93
2, 10146, Note_off_c, 0, 64, 0
2, 10146, Note_on_c, 0, 63, 93
2, 10158, Note_off_c, 0, 63, 0
2, 10158, Note_on_c, 0, 61, 93
2, 10176, Note_off_c, 0, 61, 0
2, 10176, Note_on_c, 0, 59, 93
2, 10194, Note_off_c, 0, 59, 0
2, 10194, Note_on_c, 0, 60, 93
2, 10206, Note_off_c, 0, 60, 0
2, 10206, Note_on_c, 0, 59, 93
2, 10224, Note_off_c, 0, 59, 0
2, 10224, Note_on_c, 0, 57, 93
2, 10242, Note_off_c, 0, 57, 0
2, 10242, Note_on_c, 0, 59, 93
2, 10254, Note_off_c, 0, 59, 0
2, 10254, Note_on_c, 0, 57, 93
2, 10272, Note_off_c, 0, 57, 0
2, 10272, Note_on_c, 0, 55, 93
2, 10290, Note_off_c, 0, 55, 0
2, 10290, Note_on_c, 0, 57, 93
2, 10302, Note_off_c, 0, 57, 0
2, 10302, Note_on_c, 0, 55, 93
2, 10320, Note_off_c, 0, 55, 0
2, 10320, Note_on_c, 0, 54, 93
2, 10338, Note_off_c, 0, 54, 0
2, 10338, Note_on_c, 0, 55, 93
2, 10350, Note_off_c, 0, 55, 0
2, 10350, Note_on_c, 0, 54, 93
2, 10368, Note_off_c, 0, 54, 0
2, 10368, Note_on_c, 0, 52, 93
2, 10386, Note_off_c, 0, 52, 0
2, 10386, Note_on_c, 0, 51, 93
2, 10398, Note_off_c, 0, 51, 0
2, 10398, Note_on_c, 0, 52, 93
2, 10416, Note_off_c, 0, 52, 0
2, 10416, Note_on_c, 0, 59, 93
2, 10434, Note_off_c, 0, 59, 0
2, 10434, Note_on_c, 0, 57, 93
2, 10446, Note_off_c, 0, 57, 0
2, 10446, Note_on_c, 0, 59, 93
2, 10464, Note_off_c, 0, 59, 0
2, 10464, Note_on_c, 0, 55, 93
2, 10482, Note_off_c, 0, 55, 0
2, 10482, Note_on_c, 0, 54, 93
2, 10494, Note_off_c, 0, 54, 0
2, 10494, Note_on_c, 0, 55, 93
2, 10512, Note_off_c, 0, 55, 0
2, 10512, Note_on_c, 0, 59, 93
2, 10530, Note_off_c, 0, 59, 0
2, 10530, Note_on_c, 0, 64, 93
2, 10542, Note_off_c, 0, 64, 0
2, 10542, Note_on_c, 0, 66, 93
2, 10560, Note_off_c, 0, 66, 0
2, 10560, Note_on_c, 0, 67, 93
2, 10578, Note_off_c, 0, 67, 0
2, 10578, Note_on_c, 0, 66, 93
2, 10590, Note_off_c, 0, 66, 0
2, 10590, Note_on_c, 0, 67, 93
2, 10608, Note_off_c, 0, 67, 0
2, 10608, Note_on_c, 0, 64, 93
2, 10626, Note_off_c, 0, 64, 0
2, 10626, Note_on_c, 0, 63, 93
2, 10638, Note_off_c, 0, 63, 0
2, 10638, Note_on_c, 0, 64, 93
2, 10656, Note_off_c, 0, 64, 0
2, 10656, Note_on_c, 0, 60, 93
2, 10674, Note_off_c, 0, 60, 0
2, 10674, Note_on_c, 0, 59, 93
2, 10686, Note_off_c, 0, 59, 0
2, 10686, Note_on_c, 0, 60, 93
2, 10704, Note_off_c, 0, 60, 0
2, 10704, Note_on_c, 0, 64, 93
2, 10722, Note_off_c, 0, 64, 0
2, 10722, Note_on_c, 0, 62, 93
2, 10734, Note_off_c, 0, 62, 0
2, 10734, Note_on_c, 0, 64, 93
2, 10752, Note_off_c, 0, 64, 0
2, 10752, Note_on_c, 0, 57, 93
2, 10770, Note_off_c, 0, 57, 0
2, 10770, Note_on_c, 0, 56, 93
2, 10782, Note_off_c, 0, 56, 0
2, 10782, Note_on_c, 0, 57, 93
2, 10800, Note_off_c, 0, 57, 0
2, 10800, Note_on_c, 0, 60, 93
2, 10818, Note_off_c, 0, 60, 0
2, 10818, Note_on_c, 0, 65, 93
2, 10830, Note_off_c, 0, 65, 0
2, 10830, Note_on_c, 0, 69, 93
2, 10848, Note_off_c, 0, 69, 0
2, 10848, Note_on_c, 0, 72, 93
2, 10866, Note_off_c, 0, 72, 0
2, 10866, Note_on_c, 0, 71, 93
2, 10878, Note_off_c, 0, 71, 0
2, 10878, Note_on_c, 0, 72, 93
2, 10896, Note_off_c, 0, 72, 0
2, 10896, Note_on_c, 0, 69, 93
2, 10914, Note_off_c, 0, 69, 0
2, 10914, Note_on_c, 0, 66, 93
2, 10926, Note_off_c, 0, 66, 0
2, 10926, Note_on_c, 0, 69, 93
2, 10944, Note_off_c, 0, 69, 0
2, 10944, Note_on_c, 0, 63, 93
2, 10962, Note_off_c, 0, 63, 0
2, 10962, Note_on_c, 0, 61, 93
2, 10974, Note_off_c, 0, 61, 0
2, 10974, Note_on_c, 0, 63, 93
2, 10992, Note_off_c, 0, 63, 0
2, 10992, Note_on_c, 0, 66, 93
2, 11010, Note_off_c, 0, 66, 0
2, 11010, Note_on_c, 0, 64, 93
2, 11022, Note_off_c, 0, 64, 0
2, 11022, Note_on_c, 0, 66, 93
2, 11040, Note_off_c, 0, 66, 0
2, 11040, Note_on_c, 0, 59, 93
2, 11058, Note_off_c, 0, 59, 0
2, 11058, Note_on_c, 0, 58, 93
2, 11070, Note_off_c, 0, 58, 0
2, 11070, Note_on_c, 0, 59, 93
2, 11088, Note_off_c, 0, 59, 0
2, 11088, Note_on_c, 0, 63, 93
2, 11106, Note_off_c, 0, 63, 0
2, 11106, Note_on_c, 0, 66, 93
2, 11118, Note_off_c, 0, 66, 0
2, 11118, Note_on_c, 0, 67, 93
2, 11136, Note_off_c, 0, 67, 0
2, 11136, Note_on_c, 0, 69, 93
2, 11154, Note_off_c, 0, 69, 0
2, 11154, Note_on_c, 0, 67, 93
2, 11166, Note_off_c, 0, 67, 0
2, 11166, Note_on_c, 0, 69, 93
2, 11184, Note_off_c, 0, 69, 0
2, 11184, Note_on_c, 0, 66, 93
2, 11202, Note_off_c, 0, 66, 0
2, 11202, Note_on_c, 0, 63, 93
2, 11214, Note_off_c, 0, 63, 0
2, 11214, Note_on_c, 0, 66, 93
2, 11232, Note_off_c, 0, 66, 0
2, 11232, Note_on_c, 0, 67, 93
2, 11250, Note_off_c, 0, 67, 0
2, 11250, Note_on_c, 0, 66, 93
2, 11262, Note_off_c, 0, 66, 0
2, 11262, Note_on_c, 0, 67, 93
2, 11280, Note_off_c, 0, 67, 0
2, 11280, Note_on_c, 0, 71, 93
2, 11298, Note_off_c, 0, 71, 0
2, 11298, Note_on_c, 0, 69, 93
2, 11310, Note_off_c, 0, 69, 0
2, 11310, Note_on_c, 0, 71, 93
2, 11328, Note_off_c, 0, 71, 0
2, 11328, Note_on_c, 0, 64, 93
2, 11346, Note_off_c, 0, 64, 0
2, 11346, Note_on_c, 0, 63, 93
2, 11358, Note_off_c, 0, 63, 0
2, 11358, Note_on_c, 0, 64, 93
2, 11376, Note_off_c, 0, 64, 0
2, 11376, Note_on_c, 0, 67, 93
2, 11394, Note_off_c, 0, 67, 0
2, 11394, Note_on_c, 0, 71, 93
2, 11406, Note_off_c, 0, 71, 0
2, 11406, Note_on_c, 0, 75, 93
2, 11424, Note_off_c, 0, 75, 0
2, 11424, Note_on_c, 0, 76, 93
2, 11442, Note_off_c, 0, 76, 0
2, 11442, Note_on_c, 0, 72, 93
2, 11454, Note_off_c, 0, 72, 0
2, 11454, Note_on_c, 0, 71, 93
2, 11472, Note_off_c, 0, 71, 0
2, 11472, Note_on_c, 0, 69, 93
2, 11490, Note_off_c, 0, 69, 0
2, 11490, Note_on_c, 0, 67, 93
2, 11502, Note_off_c, 0, 67, 0
2, 11502, Note_on_c, 0, 66, 93
2, 11520, Note_off_c, 0, 66, 0
2, 11520, Note_on_c, 0, 64, 93
2, 11568, Note_off_c, 0, 64, 0
2, 11688, Note_on_c, 0, 79, 93
2, 11712, Note_off_c, 0, 79, 0
2, 11712, Note_on_c, 0, 79, 93
2, 11724, Note_off_c, 0, 79, 0
2, 11724, Note_on_c, 0, 78, 93
2, 11784, Note_off_c, 0, 78, 0
2, 11784, Note_on_c, 0, 76, 93
2, 11808, Note_off_c, 0, 76, 0
2, 11808, Note_on_c, 0, 76, 93
2, 11820, Note_off_c, 0, 76, 0
2, 11820, Note_on_c, 0, 74, 93
2, 11976, Note_off_c, 0, 74, 0
2, 11976, Note_on_c, 0, 77, 93
2, 12000, Note_off_c, 0, 77, 0
2, 12000, Note_on_c, 0, 77, 93
2, 12012, Note_off_c, 0, 77, 0
2, 12012, Note_on_c, 0, 76, 93
2, 12072, Note_off_c, 0, 76, 0
2, 12072, Note_on_c, 0, 74, 93
2, 12096, Note_off_c, 0, 74, 0
2, 12096, Note_on_c, 0, 74, 93
2, 12108, Note_off_c, 0, 74, 0
2, 12108, Note_on_c, 0, 72, 93
2, 12360, Note_off_c, 0, 72, 0
2, 12360, Note_on_c, 0, 72, 93
2, 12384, Note_off_c, 0, 72, 0
2, 12384, Note_on_c, 0, 72, 93
2, 12432, Note_off_c, 0, 72, 0
2, 12576, Note_on_c, 0, 66, 93
2, 12624, Note_off_c, 0, 66, 0
2, 12672, Note_on_c, 0, 67, 93
2, 12720, Note_off_c, 0, 67, 0
2, 12864, Note_on_c, 0, 71, 93
2, 12912, Note_off_c, 0, 71, 0
2, 12960, Note_on_c, 0, 72, 93
2, 13008, Note_off_c, 0, 72, 0
2, 13824, Note_on_c, 0, 81, 93
2, 13842, Note_off_c, 0, 81, 0
2, 13842, Note_on_c, 0, 79, 93
2, 13854, Note_off_c, 0, 79, 0
2, 13854, Note_on_c, 0, 81, 93
2, 13872, Note_off_c, 0, 81, 0
2, 13872, Note_on_c, 0, 86, 93
2, 13890, Note_off_c, 0, 86, 0
2, 13890, Note_on_c, 0, 84, 93
2, 13902, Note_off_c, 0, 84, 0
2, 13902, Note_on_c, 0, 83, 93
2, 13920, Note_off_c, 0, 83, 0
2, 13920, Note_on_c, 0, 81, 93
2, 13938, Note_off_c, 0, 81, 0
2, 13938, Note_on_c, 0, 83, 93
2, 13950, Note_off_c, 0, 83, 0
2, 13950, Note_on_c, 0, 81, 93
2, 13968, Note_off_c, 0, 81, 0
2, 13968, Note_on_c, 0, 79, 93
2, 13986, Note_off_c, 0, 79, 0
2, 13986, Note_on_c, 0, 81, 93
2, 13998, Note_off_c, 0, 81, 0
2, 13998, Note_on_c, 0, 79, 93
2, 14016, Note_off_c, 0, 79, 0
2, 14016, Note_on_c, 0, 78, 93
2, 14034, Note_off_c, 0, 78, 0
2, 14034, Note_on_c, 0, 79, 93
2, 14046, Note_off_c, 0, 79, 0
2, 14046, Note_on_c, 0, 78, 93
2, 14064, Note_off_c, 0, 78, 0
2, 14064, Note_on_c, 0, 76, 93
2, 14082, Note_off_c, 0, 76, 0
2, 14082, Note_on_c, 0, 78, 93
2, 14094, Note_off_c, 0, 78, 0
2, 14094, Note_on_c, 0, 76, 93
2, 14112, Note_off_c, 0, 76, 0
2, 14112, Note_on_c, 0, 74, 93
2, 14130, Note_off_c, 0, 74, 0
2, 14130, Note_on_c, 0, 72, 93
2, 14142, Note_off_c, 0, 72, 0
2, 14142, Note_on_c, 0, 74, 93
2, 14160, Note_off_c, 0, 74, 0
2, 14160, Note_on_c, 0, 79, 93
2, 14178, Note_off_c, 0, 79, 0
2, 14178, Note_on_c, 0, 78, 93
2, 14190, Note_off_c, 0, 78, 0
2, 14190, Note_on_c, 0, 76, 93
2, 14208, Note_off_c, 0, 76, 0
2, 14208, Note_on_c, 0, 74, 93
2, 14226, Note_off_c, 0, 74, 0
2, 14226, Note_on_c, 0, 76, 93
2, 14238, Note_off_c, 0, 76, 0
2, 14238, Note_on_c, 0, 74, 93
2, 14256, Note_off_c, 0, 74, 0
2, 14256, Note_on_c, 0, 72, 93
2, 14274, Note_off_c, 0, 72, 0
2, 14274, Note_on_c, 0, 74, 93
2, 14286, Note_off_c, 0, 74, 0
2, 14286, Note_on_c, 0, 72, 93
2, 14304, Note_off_c, 0, 72, 0
2, 14304, Note_on_c, 0, 71, 93
2, 14322, Note_off_c, 0, 71, 0
2, 14322, Note_on_c, 0, 72, 93
2, 14334, Note_off_c, 0, 72, 0
2, 14334, Note_on_c, 0, 71, 93
2, 14352, Note_off_c, 0, 71, 0
2, 14352, Note_on_c, 0, 69, 93
2, 14370, Note_off_c, 0, 69, 0
2, 14370, Note_on_c, 0, 71, 93
2, 14382, Note_off_c, 0, 71, 0
2, 14382, Note_on_c, 0, 69, 93
2, 14400, Note_off_c, 0, 69, 0
2, 14400, Note_on_c, 0, 67, 93
2, 14418, Note_off_c, 0, 67, 0
2, 14418, Note_on_c, 0, 66, 93
2, 14430, Note_off_c, 0, 66, 0
2, 14430, Note_on_c, 0, 67, 93
2, 14448, Note_off_c, 0, 67, 0
2, 14448, Note_on_c, 0, 71, 93
2, 14466, Note_off_c, 0, 71, 0
2, 14466, Note_on_c, 0, 69, 93
2, 14478, Note_off_c, 0, 69, 0
2, 14478, Note_on_c, 0, 67, 93
2, 14496, Note_off_c, 0, 67, 0
2, 14496, Note_on_c, 0, 66, 93
2, 14514, Note_off_c, 0, 66, 0
2, 14514, Note_on_c, 0, 67, 93
2, 14526, Note_off_c, 0, 67, 0
2, 14526, Note_on_c, 0, 66, 93
2, 14544, Note_off_c, 0, 66, 0
2, 14544, Note_on_c, 0, 64, 93
2, 14562, Note_off_c, 0, 64, 0
2, 14562, Note_on_c, 0, 66, 93
2, 14574, Note_off_c, 0, 66, 0
2, 14574, Note_on_c, 0, 64, 93
2, 14592, Note_off_c, 0, 64, 0
2, 14592, Note_on_c, 0, 63, 93
2, 14610, Note_off_c, 0, 63, 0
2, 14610, Note_on_c, 0, 64, 93
2, 14622, Note_off_c, 0, 64, 0
2, 14622, Note_on_c, 0, 63, 93
2, 14640, Note_off_c, 0, 63, 0
2, 14640, Note_on_c, 0, 61, 93
2, 14658, Note_off_c, 0, 61, 0
2, 14658, Note_on_c, 0, 63, 93
2, 14670, Note_off_c, 0, 63, 0
2, 14670, Note_on_c, 0, 61, 93
2, 14688, Note_off_c, 0, 61, 0
2, 14688, Note_on_c, 0, 59, 93
2, 14706, Note_off_c, 0, 59, 0
2, 14706, Note_on_c, 0, 58, 93
2, 14718, Note_off_c, 0, 58, 0
2, 14718, Note_on_c, 0, 59, 93
2, 14736, Note_off_c, 0, 59, 0
2, 14736, Note_on_c, 0, 64, 93
2, 14754, Note_off_c, 0, 64, 0
2, 14754, Note_on_c, 0, 63, 93
2, 14766, Note_off_c, 0, 63, 0
2, 14766, Note_on_c, 0, 61, 93
2, 14784, Note_off_c, 0, 61, 0
2, 14784, Note_on_c, 0, 59, 93
2, 14802, Note_off_c, 0, 59, 0
2, 14802, Note_on_c, 0, 60, 93
2, 14814, Note_off_c, 0, 60, 0
2, 14814, Note_on_c, 0, 59, 93
2, 14832, Note_off_c, 0, 59, 0
2, 14832, Note_on_c, 0, 57, 93
2, 14850, Note_off_c, 0, 57, 0
2, 14850, Note_on_c, 0, 59, 93
2, 14862, Note_off_c, 0, 59, 0
2, 14862, Note_on_c, 0, 57, 93
2, 14880, Note_off_c, 0, 57, 0
2, 14880, Note_on_c, 0, 55, 93
2, 14898, Note_off_c, 0, 55, 0
2, 14898, Note_on_c, 0, 57, 93
2, 14910, Note_off_c, 0, 57, 0
2, 14910, Note_on_c, 0, 55, 93
2, 14928, Note_off_c, 0, 55, 0
2, 14928, Note_on_c, 0, 54, 93
2, 14946, Note_off_c, 0, 54, 0
2, 14946, Note_on_c, 0, 55, 93
2, 14958, Note_off_c, 0, 55, 0
2, 14958, Note_on_c, 0, 54, 93
2, 14976, Note_off_c, 0, 54, 0
2, 14976, Note_on_c, 0, 52, 93
2, 14994, Note_off_c, 0, 52, 0
2, 14994, Note_on_c, 0, 51, 93
2, 15006, Note_off_c, 0, 51, 0
2, 15006, Note_on_c, 0, 52, 93
2, 15024, Note_off_c, 0, 52, 0
2, 15024, Note_on_c, 0, 59, 93
2, 15042, Note_off_c, 0, 59, 0
2, 15042, Note_on_c, 0, 57, 93
2, 15054, Note_off_c, 0, 57, 0
2, 15054, Note_on_c, 0, 59, 93
2, 15072, Note_off_c, 0, 59, 0
2, 15072, Note_on_c, 0, 55, 93
2, 15090, Note_off_c, 0, 55, 0
2, 15090, Note_on_c, 0, 54, 93
2, 15102, Note_off_c, 0, 54, 0
2, 15102, Note_on_c, 0, 55, 93
2, 15120, Note_off_c, 0, 55, 0
2, 15120, Note_on_c, 0, 59, 93
2, 15138, Note_off_c, 0, 59, 0
2, 15138, Note_on_c, 0, 64, 93
2, 15150, Note_off_c, 0, 64, 0
2, 15150, Note_on_c, 0, 66, 93
2, 15168, Note_off_c, 0, 66, 0
2, 15168, Note_on_c, 0, 67, 93
2, 15186, Note_off_c, 0, 67, 0
2, 15186, Note_on_c, 0, 66, 93
2, 15198, Note_off_c, 0, 66, 0
2, 15198, Note_on_c, 0, 67, 93
2, 15216, Note_off_c, 0, 67, 0
2, 15216, Note_on_c, 0, 64, 93
2, 15234, Note_off_c, 0, 64, 0
2, 15234, Note_on_c, 0, 63, 93
2, 15246, Note_off_c, 0, 63, 0
2, 15246, Note_on_c, 0, 64, 93
2, 15264, Note_off_c, 0, 64, 0
2, 15264, Note_on_c, 0, 60, 93
2, 15282, Note_off_c, 0, 60, 0
2, 15282, Note_on_c, 0, 59, 93
2, 15294, Note_off_c, 0, 59, 0
2, 15294, Note_on_c, 0, 60, 93
2, 15312, Note_off_c, 0, 60, 0
2, 15312, Note_on_c, 0, 64, 93
2, 15330, Note_off_c, 0, 64, 0
2, 15330, Note_on_c, 0, 62, 93
2, 15342, Note_off_c, 0, 62, 0
2, 15342, Note_on_c, 0, 64, 93
2, 15360, Note_off_c, 0, 64, 0
2, 15360, Note_on_c, 0, 57, 93
2, 15378, Note_off_c, 0, 57, 0
2, 15378, Note_on_c, 0, 56, 93
2, 15390, Note_off_c, 0, 56, 0
2, 15390, Note_on_c, 0, 57, 93
2, 15408, Note_off_c, 0, 57, 0
2, 15408, Note_on_c, 0, 60, 93
2, 15426, Note_off_c, 0, 60, 0
2, 15426, Note_on_c, 0, 65, 93
2, 15438, Note_off_c, 0, 65, 0
2, 15438, Note_on_c, 0, 69, 93
2, 15456, Note_off_c, 0, 69, 0
2, 15456, Note_on_c, 0, 72, 93
2, 15474, Note_off_c, 0, 72, 0
2, 15474, Note_on_c, 0, 71, 93
2, 15486, Note_off_c, 0, 71, 0
2, 15486, Note_on_c, 0, 72, 93
2, 15504, Note_off_c, 0, 72, 0
2, 15504, Note_on_c, 0, 69, 93
2, 15522, Note_off_c, 0, 69, 0
2, 15522, Note_on_c, 0, 66, 93
2, 15534, Note_off_c, 0, 66, 0
2, 15534, Note_on_c, 0, 69, 93
2, 15552, Note_off_c, 0, 69, 0
2, 15552, Note_on_c, 0, 63, 93
2, 15570, Note_off_c, 0, 63, 0
2, 15570, Note_on_c, 0, 61, 93
2, 15582, Note_off_c, 0, 61, 0
2, 15582, Note_on_c, 0, 63, 93
2, 15600, Note_off_c, 0, 63, 0
2, 15600, Note_on_c, 0, 66, 93
2, 15618, Note_off_c, 0, 66, 0
2, 15618, Note_on_c, 0, 64, 93
2, 15630, Note_off_c, 0, 64, 0
2, 15630, Note_on_c, 0, 66, 93
2, 15648, Note_off_c, 0, 66, 0
2, 15648, Note_on_c, 0, 59, 93
2, 15666, Note_off_c, 0, 59, 0
2, 15666, Note_on_c, 0, 58, 93
2, 15678, Note_off_c, 0, 58, 0
2, 15678, Note_on_c, 0, 59, 93
2, 15696, Note_off_c, 0, 59, 0
2, 15696, Note_on_c, 0, 63, 93
2, 15714, Note_off_c, 0, 63, 0
2, 15714, Note_on_c, 0, 66, 93
2, 15726, Note_off_c, 0, 66, 0
2, 15726, Note_on_c, 0, 67, 93
2, 15744, Note_off_c, 0, 67, 0
2, 15744, Note_on_c, 0, 69, 93
2, 15762, Note_off_c, 0, 69, 0
2, 15762, Note_on_c, 0, 67, 93
2, 15774, Note_off_c, 0, 67, 0
2, 15774, Note_on_c, 0, 69, 93
2, 15792, Note_off_c, 0, 69, 0
2, 15792, Note_on_c, 0, 66, 93
2, 15810, Note_off_c, 0, 66, 0
2, 15810, Note_on_c, 0, 63, 93
2, 15822, Note_off_c, 0, 63, 0
2, 15822, Note_on_c, 0, 66, 93
2, 15840, Note_off_c, 0, 66, 0
2, 15840, Note_on_c, 0, 67, 93
2, 15858, Note_off_c, 0, 67, 0
2, 15858, Note_on_c, 0, 66, 93
2, 15870, Note_off_c, 0, 66, 0
2, 15870, Note_on_c, 0, 67, 93
2, 15888, Note_off_c, 0, 67, 0
2, 15888, Note_on_c, 0, 71, 93
2, 15906, Note_off_c, 0, 71, 0
2, 15906, Note_on_c, 0, 69, 93
2, 15918, Note_off_c, 0, 69, 0
2, 15918, Note_on_c, 0, 71, 93
2, 15936, Note_off_c, 0, 71, 0
2, 15936, Note_on_c, 0, 64, 93
2, 15954, Note_off_c, 0, 64, 0
2, 15954, Note_on_c, 0, 63, 93
2, 15966, Note_off_c, 0, 63, 0
2, 15966, Note_on_c, 0, 64, 93
2, 15984, Note_off_c, 0, 64, 0
2, 15984, Note_on_c, 0, 67, 93
2, 16002, Note_off_c, 0, 67, 0
2, 16002, Note_on_c, 0, 71, 93
2, 16014, Note_off_c, 0, 71, 0
2, 16014, Note_on_c, 0, 75, 93
2, 16032, Note_off_c, 0, 75, 0
2, 16032, Note_on_c, 0, 76, 93
2, 16050, Note_off_c, 0, 76, 0
2, 16050, Note_on_c, 0, 72, 93
2, 16062, Note_off_c, 0, 72, 0
2, 16062, Note_on_c, 0, 71, 93
2, 16080, Note_off_c, 0, 71, 0
2, 16080, Note_on_c, 0, 69, 93
2, 16098, Note_off_c, 0, 69, 0
2, 16098, Note_on_c, 0, 67, 93
2, 16110, Note_off_c, 0, 67, 0
2, 16110, Note_on_c, 0, 66, 93
2, 16128, Note_off_c, 0, 66, 0
2, 16128, Note_on_c, 0, 64, 93
2, 16176, Note_off_c, 0, 64, 0
2, 16296, Note_on_c, 0, 79, 93
2, 16320, Note_off_c, 0, 79, 0
2, 16320, Note_on_c, 0, 79, 93
2, 16332, Note_off_c, 0, 79, 0
2, 16332, Note_on_c, 0, 78, 93
2, 16392, Note_off_c, 0, 78, 0
2, 16392, Note_on_c, 0, 76, 93
2, 16416, Note_off_c, 0, 76, 0
2, 16416, Note_on_c, 0, 76, 93
2, 16428, Note_off_c, 0, 76, 0
2, 16428, Note_on_c, 0, 74, 93
2, 16584, Note_off_c, 0, 74, 0
2, 16584, Note_on_c, 0, 77, 93
2, 16608, Note_off_c, 0, 77, 0
2, 16608, Note_on_c, 0, 77, 93
2, 16620, Note_off_c, 0, 77, 0
2, 16620, Note_on_c, 0, 76, 93
2, 16680, Note_off_c, 0, 76, 0
2, 16680, Note_on_c, 0, 74, 93
2, 16704, Note_off_c, 0, 74, 0
2, 16704, Note_on_c, 0, 74, 93
2, 16716, Note_off_c, 0, 74, 0
2, 16716, Note_on_c, 0, 72, 93
2, 16968, Note_off_c, 0, 72, 0
2, 16968, Note_on_c, 0, 72, 93
2, 16992, Note_off_c, 0, 72, 0
2, 16992, Note_on_c, 0, 72, 93
2, 17040, Note_off_c, 0, 72, 0
2, 17184, Note_on_c, 0, 66, 93
2, 17232, Note_off_c, 0, 66, 0
2, 17280, Note_on_c, 0, 67, 93
2, 17328, Note_off_c, 0, 67, 0
2, 17472, Note_on_c, 0, 71, 93
2, 17520, Note_off_c, 0, 71, 0
2, 17568, Note_on_c, 0, 72, 93
2, 17616, Note_off_c, 0, 72, 0
2, 17616, End_track
3, 0, Start_track
3, 0, Title_t, "Track3"
3, 0, Program_c, 1, 6
3, 0, Control_c, 1, 7, 100
3, 0, Control_c, 1, 10, 64
3, 0, Note_on_c, 1, 71, 93
3, 96, Note_off_c, 1, 71, 0
3, 96, Note_on_c, 1, 71, 93
3, 192, Note_off_c, 1, 71, 0
3, 240, Note_on_c, 1, 71, 93
3, 288, Note_off_c, 1, 71, 0
3, 288, Note_on_c, 1, 69, 93
3, 384, Note_off_c, 1, 69, 0
3, 384, Note_on_c, 1, 69, 93
3, 480, Note_off_c, 1, 69, 0
3, 528, Note_on_c, 1, 74, 93
3, 576, Note_off_c, 1, 74, 0
3, 576, Note_on_c, 1, 74, 93
3, 672, Note_off_c, 1, 74, 0
3, 672, Note_on_c, 1, 74, 93
3, 678, Note_off_c, 1, 74, 0
3, 678, Note_on_c, 1, 73, 93
3, 690, Note_off_c, 1, 73, 0
3, 690, Note_on_c, 1, 74, 93
3, 696, Note_off_c, 1, 74, 0
3, 696, Note_on_c, 1, 73, 93
3, 768, Note_off_c, 1, 73, 0
3, 816, Note_on_c, 1, 67, 93
3, 864, Note_off_c, 1, 67, 0
3, 864, Note_on_c, 1, 67, 93
3, 936, Note_off_c, 1, 67, 0
3, 936, Note_on_c, 1, 64, 93
3, 960, Note_off_c, 1, 64, 0
3, 960, Note_on_c, 1, 64, 93
3, 972, Note_off_c, 1, 64, 0
3, 972, Note_on_c, 1, 66, 93
3, 1056, Note_off_c, 1, 66, 0
3, 1104, Note_on_c, 1, 69, 93
3, 1152, Note_off_c, 1, 69, 0
3, 1152, Note_on_c, 1, 62, 93
3, 1224, Note_off_c, 1, 62, 0
3, 1224, Note_on_c, 1, 64, 93
3, 1248, Note_off_c, 1, 64, 0
3, 1248, Note_on_c, 1, 65, 93
3, 1344, Note_off_c, 1, 65, 0
3, 1392, Note_on_c, 1, 67, 93
3, 1440, Note_off_c, 1, 67, 0
3, 1440, Note_on_c, 1, 67, 93
3, 1512, Note_off_c, 1, 67, 0
3, 1512, Note_on_c, 1, 64, 93
3, 1536, Note_off_c, 1, 64, 0
3, 1536, Note_on_c, 1, 62, 93
3, 1548, Note_off_c, 1, 62, 0
3, 1548, Note_on_c, 1, 60, 93
3, 1632, Note_off_c, 1, 60, 0
3, 1680, Note_on_c, 1, 64, 93
3, 1728, Note_off_c, 1, 64, 0
3, 1728, Note_on_c, 1, 57, 93
3, 1800, Note_off_c, 1, 57, 0
3, 1800, Note_on_c, 1, 59, 93
3, 1824, Note_off_c, 1, 59, 0
3, 1824, Note_on_c, 1, 60, 93
3, 1920, Note_off_c, 1, 60, 0
3, 1968, Note_on_c, 1, 62, 93
3, 2016, Note_off_c, 1, 62, 0
3, 2016, Note_on_c, 1, 62, 93
3, 2088, Note_off_c, 1, 62, 0
3, 2088, Note_on_c, 1, 59, 93
3, 2112, Note_off_c, 1, 59, 0
3, 2112, Note_on_c, 1, 55, 93
3, 2208, Note_off_c, 1, 55, 0
3, 2304, Note_on_c, 1, 71, 93
3, 2400, Note_off_c, 1, 71, 0
3, 2400, Note_on_c, 1, 71, 93
3, 2496, Note_off_c, 1, 71, 0
3, 2544, Note_on_c, 1, 79, 93
3, 2592, Note_off_c, 1, 79, 0
3, 2592, Note_on_c, 1, 79, 93
3, 2664, Note_off_c, 1, 79, 0
3, 2664, Note_on_c, 1, 76, 93
3, 2688, Note_off_c, 1, 76, 0
3, 2688, Note_on_c, 1, 78, 93
3, 2700, Note_off_c, 1, 78, 0
3, 2700, Note_on_c, 1, 76, 93
3, 2712, Note_off_c, 1, 76, 0
3, 2712, Note_on_c, 1, 78, 93
3, 2784, Note_off_c, 1, 78, 0
3, 2832, Note_on_c, 1, 72, 93
3, 2880, Note_off_c, 1, 72, 0
3, 2880, Note_on_c, 1, 71, 93
3, 2952, Note_off_c, 1, 71, 0
3, 2952, Note_on_c, 1, 75, 93
3, 2976, Note_off_c, 1, 75, 0
3, 2976, Note_on_c, 1, 76, 93
3, 2988, Note_off_c, 1, 76, 0
3, 2988, Note_on_c, 1, 75, 93
3, 3000, Note_off_c, 1, 75, 0
3, 3000, Note_on_c, 1, 76, 93
3, 3072, Note_off_c, 1, 76, 0
3, 3120, Note_on_c, 1, 76, 93
3, 3168, Note_off_c, 1, 76, 0
3, 3168, Note_on_c, 1, 69, 93
3, 3240, Note_off_c, 1, 69, 0
3, 3240, Note_on_c, 1, 73, 93
3, 3264, Note_off_c, 1, 73, 0
3, 3264, Note_on_c, 1, 71, 93
3, 3276, Note_off_c, 1, 71, 0
3, 3276, Note_on_c, 1, 69, 93
3, 3360, Note_off_c, 1, 69, 0
3, 3408, Note_on_c, 1, 73, 93
3, 3456, Note_off_c, 1, 73, 0
3, 3456, Note_on_c, 1, 73, 93
3, 3552, Note_off_c, 1, 73, 0
3, 3552, Note_on_c, 1, 74, 93
3, 3648, Note_off_c, 1, 74, 0
3, 3696, Note_on_c, 1, 74, 93
3, 3744, Note_off_c, 1, 74, 0
3, 3744, Note_on_c, 1, 74, 93
3, 3840, Note_off_c, 1, 74, 0
3, 3840, Note_on_c, 1, 74, 93
3, 3936, Note_off_c, 1, 74, 0
3, 3984, Note_on_c, 1, 76, 93
3, 4032, Note_off_c, 1, 76, 0
3, 4032, Note_on_c, 1, 69, 93
3, 4104, Note_off_c, 1, 69, 0
3, 4104, Note_on_c, 1, 67, 93
3, 4116, Note_off_c, 1, 67, 0
3, 4116, Note_on_c, 1, 66, 93
3, 4128, Note_off_c, 1, 66, 0
3, 4128, Note_on_c, 1, 66, 93
3, 4140, Note_off_c, 1, 66, 0
3, 4140, Note_on_c, 1, 64, 93
3, 4224, Note_off_c, 1, 64, 0
3, 4272, Note_on_c, 1, 57, 93
3, 4320, Note_off_c, 1, 57, 0
3, 4320, Note_on_c, 1, 62, 93
3, 4416, Note_off_c, 1, 62, 0
3, 4416, Note_on_c, 1, 62, 93
3, 4512, Note_off_c, 1, 62, 0
3, 4608, Note_on_c, 1, 71, 93
3, 4704, Note_off_c, 1, 71, 0
3, 4704, Note_on_c, 1, 71, 93
3, 4800, Note_off_c, 1, 71, 0
3, 4848, Note_on_c, 1, 71, 93
3, 4896, Note_off_c, 1, 71, 0
3, 4896, Note_on_c, 1, 69, 93
3, 4992, Note_off_c, 1, 69, 0
3, 4992, Note_on_c, 1, 69, 93
3, 5088, Note_off_c, 1, 69, 0
3, 5136, Note_on_c, 1, 74, 93
3, 5184, Note_off_c, 1, 74, 0
3, 5184, Note_on_c, 1, 74, 93
3, 5280, Note_off_c, 1, 74, 0
3, 5280, Note_on_c, 1, 74, 93
3, 5286, Note_off_c, 1, 74, 0
3, 5286, Note_on_c, 1, 73, 93
3, 5298, Note_off_c, 1, 73, 0
3, 5298, Note_on_c, 1, 74, 93
3, 5304, Note_off_c, 1, 74, 0
3, 5304, Note_on_c, 1, 73, 93
3, 5376, Note_off_c, 1, 73, 0
3, 5424, Note_on_c, 1, 67, 93
3, 5472, Note_off_c, 1, 67, 0
3, 5472, Note_on_c, 1, 67, 93
3, 5544, Note_off_c, 1, 67, 0
3, 5544, Note_on_c, 1, 64, 93
3, 5568, Note_off_c, 1, 64, 0
3, 5568, Note_on_c, 1, 64, 93
3, 5580, Note_off_c, 1, 64, 0
3, 5580, Note_on_c, 1, 66, 93
3, 5664, Note_off_c, 1, 66, 0
3, 5712, Note_on_c, 1, 69, 93
3, 5760, Note_off_c, 1, 69, 0
3, 5760, Note_on_c, 1, 62, 93
3, 5832, Note_off_c, 1, 62, 0
3, 5832, Note_on_c, 1, 64, 93
3, 5856, Note_off_c, 1, 64, 0
3, 5856, Note_on_c, 1, 65, 93
3, 5952, Note_off_c, 1, 65, 0
3, 6000, Note_on_c, 1, 67, 93
3, 6048, Note_off_c, 1, 67, 0
3, 6048, Note_on_c, 1, 67, 93
3, 6120, Note_off_c, 1, 67, 0
3, 6120, Note_on_c, 1, 64, 93
3, 6144, Note_off_c, 1, 64, 0
3, 6144, Note_on_c, 1, 62, 93
3, 6156, Note_off_c, 1, 62, 0
3, 6156, Note_on_c, 1, 60, 93
3, 6240, Note_off_c, 1, 60, 0
3, 6288, Note_on_c, 1, 64, 93
3, 6336, Note_off_c, 1, 64, 0
3, 6336, Note_on_c, 1, 57, 93
3, 6408, Note_off_c, 1, 57, 0
3, 6408, Note_on_c, 1, 59, 93
3, 6432, Note_off_c, 1, 59, 0
3, 6432, Note_on_c, 1, 60, 93
3, 6528, Note_off_c, 1, 60, 0
3, 6576, Note_on_c, 1, 62, 93
3, 6624, Note_off_c, 1, 62, 0
3, 6624, Note_on_c, 1, 62, 93
3, 6696, Note_off_c, 1, 62, 0
3, 6696, Note_on_c, 1, 59, 93
3, 6720, Note_off_c, 1, 59, 0
3, 6720, Note_on_c, 1, 55, 93
3, 6816, Note_off_c, 1, 55, 0
3, 6912, Note_on_c, 1, 71, 93
3, 7008, Note_off_c, 1, 71, 0
3, 7008, Note_on_c, 1, 71, 93
3, 7104, Note_off_c, 1, 71, 0
3, 7152, Note_on_c, 1, 79, 93
3, 7200, Note_off_c, 1, 79, 0
3, 7200, Note_on_c, 1, 79, 93
3, 7272, Note_off_c, 1, 79, 0
3, 7272, Note_on_c, 1, 76, 93
3, 7296, Note_off_c, 1, 76, 0
3, 7296, Note_on_c, 1, 78, 93
3, 7308, Note_off_c, 1, 78, 0
3, 7308, Note_on_c, 1, 76, 93
3, 7320, Note_off_c, 1, 76, 0
3, 7320, Note_on_c, 1, 78, 93
3, 7392, Note_off_c, 1, 78, 0
3, 7440, Note_on_c, 1, 72, 93
3, 7488, Note_off_c, 1, 72, 0
3, 7488, Note_on_c, 1, 71, 93
3, 7560, Note_off_c, 1, 71, 0
3, 7560, Note_on_c, 1, 75, 93
3, 7584, Note_off_c, 1, 75, 0
3, 7584, Note_on_c, 1, 76, 93
3, 7596, Note_off_c, 1, 76, 0
3, 7596, Note_on_c, 1, 75, 93
3, 7608, Note_off_c, 1, 75, 0
3, 7608, Note_on_c, 1, 76, 93
3, 7680, Note_off_c, 1, 76, 0
3, 7728, Note_on_c, 1, 76, 93
3, 7776, Note_off_c, 1, 76, 0
3, 7776, Note_on_c, 1, 69, 93
3, 7848, Note_off_c, 1, 69, 0
3, 7848, Note_on_c, 1, 73, 93
3, 7872, Note_off_c, 1, 73, 0
3, 7872, Note_on_c, 1, 71, 93
3, 7884, Note_off_c, 1, 71, 0
3, 7884, Note_on_c, 1, 69, 93
3, 7968, Note_off_c, 1, 69, 0
3, 8016, Note_on_c, 1, 73, 93
3, 8064, Note_off_c, 1, 73, 0
3, 8064, Note_on_c, 1, 73, 93
3, 8160, Note_off_c, 1, 73, 0
3, 8160, Note_on_c, 1, 74, 93
3, 8256, Note_off_c, 1, 74, 0
3, 8304, Note_on_c, 1, 74, 93
3, 8352, Note_off_c, 1, 74, 0
3, 8352, Note_on_c, 1, 74, 93
3, 8448, Note_off_c, 1, 74, 0
3, 8448, Note_on_c, 1, 74, 93
3, 8544, Note_off_c, 1, 74, 0
3, 8592, Note_on_c, 1, 76, 93
3, 8640, Note_off_c, 1, 76, 0
3, 8640, Note_on_c, 1, 69, 93
3, 8712, Note_off_c, 1, 69, 0
3, 8712, Note_on_c, 1, 67, 93
3, 8724, Note_off_c, 1, 67, 0
3, 8724, Note_on_c, 1, 66, 93
3, 8736, Note_off_c, 1, 66, 0
3, 8736, Note_on_c, 1, 66, 93
3, 8748, Note_off_c, 1, 66, 0
3, 8748, Note_on_c, 1, 64, 93
3, 8832, Note_off_c, 1, 64, 0
3, 8880, Note_on_c, 1, 57, 93
3, 8928, Note_off_c, 1, 57, 0
3, 8928, Note_on_c, 1, 62, 93
3, 9024, Note_off_c, 1, 62, 0
3, 9024, Note_on_c, 1, 62, 93
3, 9120, Note_off_c, 1, 62, 0
3, 9216, Note_on_c, 1, 66, 93
3, 9288, Note_off_c, 1, 66, 0
3, 9288, Note_on_c, 1, 64, 93
3, 9312, Note_off_c, 1, 64, 0
3, 9312, Note_on_c, 1, 64, 93
3, 9324, Note_off_c, 1, 64, 0
3, 9324, Note_on_c, 1, 66, 93
3, 9408, Note_off_c, 1, 66, 0
3, 9456, Note_on_c, 1, 62, 93
3, 9504, Note_off_c, 1, 62, 0
3, 9504, Note_on_c, 1, 67, 93
3, 9576, Note_off_c, 1, 67, 0
3, 9576, Note_on_c, 1, 69, 93
3, 9600, Note_off_c, 1, 69, 0
3, 9600, Note_on_c, 1, 69, 93
3, 9612, Note_off_c, 1, 69, 0
3, 9612, Note_on_c, 1, 71, 93
3, 9696, Note_off_c, 1, 71, 0
3, 9744, Note_on_c, 1, 79, 93
3, 9792, Note_off_c, 1, 79, 0
3, 9792, Note_on_c, 1, 76, 93
3, 9864, Note_off_c, 1, 76, 0
3, 9864, Note_on_c, 1, 83, 93
3, 9888, Note_off_c, 1, 83, 0
3, 9888, Note_on_c, 1, 83, 93
3, 9900, Note_off_c, 1, 83, 0
3, 9900, Note_on_c, 1, 81, 93
3, 9984, Note_off_c, 1, 81, 0
3, 10032, Note_on_c, 1, 81, 93
3, 10080, Note_off_c, 1, 81, 0
3, 10080, Note_on_c, 1, 81, 93
3, 10152, Note_off_c, 1, 81, 0
3, 10152, Note_on_c, 1, 78, 93
3, 10176, Note_off_c, 1, 78, 0
3, 10176, Note_on_c, 1, 76, 93
3, 10188, Note_off_c, 1, 76, 0
3, 10188, Note_on_c, 1, 75, 93
3, 10272, Note_off_c, 1, 75, 0
3, 10320, Note_on_c, 1, 78, 93
3, 10368, Note_off_c, 1, 78, 0
3, 10368, Note_on_c, 1, 79, 93
3, 10440, Note_off_c, 1, 79, 0
3, 10440, Note_on_c, 1, 78, 93
3, 10464, Note_off_c, 1, 78, 0
3, 10464, Note_on_c, 1, 78, 93
3, 10476, Note_off_c, 1, 78, 0
3, 10476, Note_on_c, 1, 76, 93
3, 10560, Note_off_c, 1, 76, 0
3, 10608, Note_on_c, 1, 79, 93
3, 10656, Note_off_c, 1, 79, 0
3, 10656, Note_on_c, 1, 79, 93
3, 10752, Note_off_c, 1, 79, 0
3, 10752, Note_on_c, 1, 77, 93
3, 10848, Note_off_c, 1, 77, 0
3, 10896, Note_on_c, 1, 81, 93
3, 10944, Note_off_c, 1, 81, 0
3, 10944, Note_on_c, 1, 81, 93
3, 11016, Note_off_c, 1, 81, 0
3, 11016, Note_on_c, 1, 78, 93
3, 11040, Note_off_c, 1, 78, 0
3, 11040, Note_on_c, 1, 78, 93
3, 11052, Note_off_c, 1, 78, 0
3, 11052, Note_on_c, 1, 75, 93
3, 11136, Note_off_c, 1, 75, 0
3, 11184, Note_on_c, 1, 78, 93
3, 11232, Note_off_c, 1, 78, 0
3, 11232, Note_on_c, 1, 78, 93
3, 11304, Note_off_c, 1, 78, 0
3, 11304, Note_on_c, 1, 75, 93
3, 11328, Note_off_c, 1, 75, 0
3, 11328, Note_on_c, 1, 76, 93
3, 11340, Note_off_c, 1, 76, 0
3, 11340, Note_on_c, 1, 75, 93
3, 11352, Note_off_c, 1, 75, 0
3, 11352, Note_on_c, 1, 76, 93
3, 11424, Note_off_c, 1, 76, 0
3, 11592, Note_on_c, 1, 68, 93
3, 11616, Note_off_c, 1, 68, 0
3, 11616, Note_on_c, 1, 69, 93
3, 11688, Note_off_c, 1, 69, 0
3, 11688, Note_on_c, 1, 71, 93
3, 11712, Note_off_c, 1, 71, 0
3, 11712, Note_on_c, 1, 72, 93
3, 11880, Note_off_c, 1, 72, 0
3, 11880, Note_on_c, 1, 66, 93
3, 11904, Note_off_c, 1, 66, 0
3, 11904, Note_on_c, 1, 67, 93
3, 11976, Note_off_c, 1, 67, 0
3, 11976, Note_on_c, 1, 69, 93
3, 12000, Note_off_c, 1, 69, 0
3, 12000, Note_on_c, 1, 71, 93
3, 12168, Note_off_c, 1, 71, 0
3, 12168, Note_on_c, 1, 64, 93
3, 12192, Note_off_c, 1, 64, 0
3, 12192, Note_on_c, 1, 66, 93
3, 12264, Note_off_c, 1, 66, 0
3, 12264, Note_on_c, 1, 67, 93
3, 12288, Note_off_c, 1, 67, 0
3, 12288, Note_on_c, 1, 69, 93
3, 12360, Note_off_c, 1, 69, 0
3, 12360, Note_on_c, 1, 67, 93
3, 12384, Note_off_c, 1, 67, 0
3, 12384, Note_on_c, 1, 66, 93
3, 12402, Note_off_c, 1, 66, 0
3, 12402, Note_on_c, 1, 67, 93
3, 12414, Note_off_c, 1, 67, 0
3, 12414, Note_on_c, 1, 66, 93
3, 12432, Note_off_c, 1, 66, 0
3, 12432, Note_on_c, 1, 61, 93
3, 12450, Note_off_c, 1, 61, 0
3, 12450, Note_on_c, 1, 62, 93
3, 12462, Note_off_c, 1, 62, 0
3, 12462, Note_on_c, 1, 64, 93
3, 12480, Note_off_c, 1, 64, 0
3, 12480, Note_on_c, 1, 66, 93
3, 12498, Note_off_c, 1, 66, 0
3, 12498, Note_on_c, 1, 64, 93
3, 12510, Note_off_c, 1, 64, 0
3, 12510, Note_on_c, 1, 66, 93
3, 12528, Note_off_c, 1, 66, 0
3, 12528, Note_on_c, 1, 67, 93
3, 12546, Note_off_c, 1, 67, 0
3, 12546, Note_on_c, 1, 66, 93
3, 12558, Note_off_c, 1, 66, 0
3, 12558, Note_on_c, 1, 67, 93
3, 12576, Note_off_c, 1, 67, 0
3, 12576, Note_on_c, 1, 69, 93
3, 12594, Note_off_c, 1, 69, 0
3, 12594, Note_on_c, 1, 67, 93
3, 12606, Note_off_c, 1, 67, 0
3, 12606, Note_on_c, 1, 69, 93
3, 12624, Note_off_c, 1, 69, 0
3, 12624, Note_on_c, 1, 71, 93
3, 12642, Note_off_c, 1, 71, 0
3, 12642, Note_on_c, 1, 67, 93
3, 12654, Note_off_c, 1, 67, 0
3, 12654, Note_on_c, 1, 69, 93
3, 12672, Note_off_c, 1, 69, 0
3, 12672, Note_on_c, 1, 71, 93
3, 12690, Note_off_c, 1, 71, 0
3, 12690, Note_on_c, 1, 72, 93
3, 12702, Note_off_c, 1, 72, 0
3, 12702, Note_on_c, 1, 71, 93
3, 12720, Note_off_c, 1, 71, 0
3, 12720, Note_on_c, 1, 66, 93
3, 12738, Note_off_c, 1, 66, 0
3, 12738, Note_on_c, 1, 67, 93
3, 12750, Note_off_c, 1, 67, 0
3, 12750, Note_on_c, 1, 69, 93
3, 12768, Note_off_c, 1, 69, 0
3, 12768, Note_on_c, 1, 71, 93
3, 12786, Note_off_c, 1, 71, 0
3, 12786, Note_on_c, 1, 69, 93
3, 12798, Note_off_c, 1, 69, 0
3, 12798, Note_on_c, 1, 71, 93
3, 12816, Note_off_c, 1, 71, 0
3, 12816, Note_on_c, 1, 72, 93
3, 12834, Note_off_c, 1, 72, 0
3, 12834, Note_on_c, 1, 71, 93
3, 12846, Note_off_c, 1, 71, 0
3, 12846, Note_on_c, 1, 72, 93
3, 12864, Note_off_c, 1, 72, 0
3, 12864, Note_on_c, 1, 74, 93
3, 12882, Note_off_c, 1, 74, 0
3, 12882, Note_on_c, 1, 72, 93
3, 12894, Note_off_c, 1, 72, 0
3, 12894, Note_on_c, 1, 74, 93
3, 12912, Note_off_c, 1, 74, 0
3, 12912, Note_on_c, 1, 76, 93
3, 12930, Note_off_c, 1, 76, 0
3, 12930, Note_on_c, 1, 72, 93
3, 12942, Note_off_c, 1, 72, 0
3, 12942, Note_on_c, 1, 74, 93
3, 12960, Note_off_c, 1, 74, 0
3, 12960, Note_on_c, 1, 76, 93
3, 12978, Note_off_c, 1, 76, 0
3, 12978, Note_on_c, 1, 77, 93
3, 12990, Note_off_c, 1, 77, 0
3, 12990, Note_on_c, 1, 76, 93
3, 13008, Note_off_c, 1, 76, 0
3, 13008, Note_on_c, 1, 71, 93
3, 13026, Note_off_c, 1, 71, 0
3, 13026, Note_on_c, 1, 72, 93
3, 13038, Note_off_c, 1, 72, 0
3, 13038, Note_on_c, 1, 74, 93
3, 13056, Note_off_c, 1, 74, 0
3, 13056, Note_on_c, 1, 76, 93
3, 13074, Note_off_c, 1, 76, 0
3, 13074, Note_on_c, 1, 74, 93
3, 13086, Note_off_c, 1, 74, 0
3, 13086, Note_on_c, 1, 76, 93
3, 13104, Note_off_c, 1, 76, 0
3, 13104, Note_on_c, 1, 78, 93
3, 13122, Note_off_c, 1, 78, 0
3, 13122, Note_on_c, 1, 76, 93
3, 13134, Note_off_c, 1, 76, 0
3, 13134, Note_on_c, 1, 78, 93
3, 13152, Note_off_c, 1, 78, 0
3, 13152, Note_on_c, 1, 79, 93
3, 13170, Note_off_c, 1, 79, 0
3, 13170, Note_on_c, 1, 78, 93
3, 13182, Note_off_c, 1, 78, 0
3, 13182, Note_on_c, 1, 79, 93
3, 13200, Note_off_c, 1, 79, 0
3, 13200, Note_on_c, 1, 81, 93
3, 13218, Note_off_c, 1, 81, 0
3, 13218, Note_on_c, 1, 78, 93
3, 13230, Note_off_c, 1, 78, 0
3, 13230, Note_on_c, 1, 79, 93
3, 13248, Note_off_c, 1, 79, 0
3, 13248, Note_on_c, 1, 81, 93
3, 13266, Note_off_c, 1, 81, 0
3, 13266, Note_on_c, 1, 83, 93
3, 13278, Note_off_c, 1, 83, 0
3, 13278, Note_on_c, 1, 81, 93
3, 13296, Note_off_c, 1, 81, 0
3, 13296, Note_on_c, 1, 78, 93
3, 13314, Note_off_c, 1, 78, 0
3, 13314, Note_on_c, 1, 79, 93
3, 13326, Note_off_c, 1, 79, 0
3, 13326, Note_on_c, 1, 81, 93
3, 13344, Note_off_c, 1, 81, 0
3, 13344, Note_on_c, 1, 83, 93
3, 13362, Note_off_c, 1, 83, 0
3, 13362, Note_on_c, 1, 81, 93
3, 13374, Note_off_c, 1, 81, 0
3, 13374, Note_on_c, 1, 83, 93
3, 13392, Note_off_c, 1, 83, 0
3, 13392, Note_on_c, 1, 86, 93
3, 13410, Note_off_c, 1, 86, 0
3, 13410, Note_on_c, 1, 84, 93
3, 13422, Note_off_c, 1, 84, 0
3, 13422, Note_on_c, 1, 83, 93
3, 13440, Note_off_c, 1, 83, 0
3, 13440, Note_on_c, 1, 81, 93
3, 13458, Note_off_c, 1, 81, 0
3, 13458, Note_on_c, 1, 79, 93
3, 13470, Note_off_c, 1, 79, 0
3, 13470, Note_on_c, 1, 78, 93
3, 13488, Note_off_c, 1, 78, 0
3, 13488, Note_on_c, 1, 76, 93
3, 13506, Note_off_c, 1, 76, 0
3, 13506, Note_on_c, 1, 74, 93
3, 13518, Note_off_c, 1, 74, 0
3, 13518, Note_on_c, 1, 72, 93
3, 13536, Note_off_c, 1, 72, 0
3, 13536, Note_on_c, 1, 71, 93
3, 13554, Note_off_c, 1, 71, 0
3, 13554, Note_on_c, 1, 69, 93
3, 13566, Note_off_c, 1, 69, 0
3, 13566, Note_on_c, 1, 67, 93
3, 13584, Note_off_c, 1, 67, 0
3, 13584, Note_on_c, 1, 66, 93
3, 13602, Note_off_c, 1, 66, 0
3, 13602, Note_on_c, 1, 67, 93
3, 13614, Note_off_c, 1, 67, 0
3, 13614, Note_on_c, 1, 62, 93
3, 13632, Note_off_c, 1, 62, 0
3, 13632, Note_on_c, 1, 59, 93
3, 13680, Note_off_c, 1, 59, 0
3, 13824, Note_on_c, 1, 66, 93
3, 13896, Note_off_c, 1, 66, 0
3, 13896, Note_on_c, 1, 64, 93
3, 13920, Note_off_c, 1, 64, 0
3, 13920, Note_on_c, 1, 64, 93
3, 13932, Note_off_c, 1, 64, 0
3, 13932, Note_on_c, 1, 66, 93
3, 14016, Note_off_c, 1, 66, 0
3, 14064, Note_on_c, 1, 62, 93
3, 14112, Note_off_c, 1, 62, 0
3, 14112, Note_on_c, 1, 67, 93
3, 14184, Note_off_c, 1, 67, 0
3, 14184, Note_on_c, 1, 69, 93
3, 14208, Note_off_c, 1, 69, 0
3, 14208, Note_on_c, 1, 69, 93
3, 14220, Note_off_c, 1, 69, 0
3, 14220, Note_on_c, 1, 71, 93
3, 14304, Note_off_c, 1, 71, 0
3, 14352, Note_on_c, 1, 79, 93
3, 14400, Note_off_c, 1, 79, 0
3, 14400, Note_on_c, 1, 76, 93
3, 14472, Note_off_c, 1, 76, 0
3, 14472, Note_on_c, 1, 83, 93
3, 14496, Note_off_c, 1, 83, 0
3, 14496, Note_on_c, 1, 83, 93
3, 14508, Note_off_c, 1, 83, 0
3, 14508, Note_on_c, 1, 81, 93
3, 14592, Note_off_c, 1, 81, 0
3, 14640, Note_on_c, 1, 81, 93
3, 14688, Note_off_c, 1, 81, 0
3, 14688, Note_on_c, 1, 81, 93
3, 14760, Note_off_c, 1, 81, 0
3, 14760, Note_on_c, 1, 78, 93
3, 14784, Note_off_c, 1, 78, 0
3, 14784, Note_on_c, 1, 76, 93
3, 14796, Note_off_c, 1, 76, 0
3, 14796, Note_on_c, 1, 75, 93
3, 14880, Note_off_c, 1, 75, 0
3, 14928, Note_on_c, 1, 78, 93
3, 14976, Note_off_c, 1, 78, 0
3, 14976, Note_on_c, 1, 79, 93
3, 15048, Note_off_c, 1, 79, 0
3, 15048, Note_on_c, 1, 78, 93
3, 15072, Note_off_c, 1, 78, 0
3, 15072, Note_on_c, 1, 78, 93
3, 15084, Note_off_c, 1, 78, 0
3, 15084, Note_on_c, 1, 76, 93
3, 15168, Note_off_c, 1, 76, 0
3, 15216, Note_on_c, 1, 79, 93
3, 15264, Note_off_c, 1, 79, 0
3, 15264, Note_on_c, 1, 79, 93
3, 15360, Note_off_c, 1, 79, 0
3, 15360, Note_on_c, 1, 77, 93
3, 15456, Note_off_c, 1, 77, 0
3, 15504, Note_on_c, 1, 81, 93
3, 15552, Note_off_c, 1, 81, 0
3, 15552, Note_on_c, 1, 81, 93
3, 15624, Note_off_c, 1, 81, 0
3, 15624, Note_on_c, 1, 78, 93
3, 15648, Note_off_c, 1, 78, 0
3, 15648, Note_on_c, 1, 78, 93
3, 15660, Note_off_c, 1, 78, 0
3, 15660, Note_on_c, 1, 75, 93
3, 15744, Note_off_c, 1, 75, 0
3, 15792, Note_on_c, 1, 78, 93
3, 15840, Note_off_c, 1, 78, 0
3, 15840, Note_on_c, 1, 78, 93
3, 15912, Note_off_c, 1, 78, 0
3, 15912, Note_on_c, 1, 75, 93
3, 15936, Note_off_c, 1, 75, 0
3, 15936, Note_on_c, 1, 76, 93
3, 15948, Note_off_c, 1, 76, 0
3, 15948, Note_on_c, 1, 75, 93
3, 15960, Note_off_c, 1, 75, 0
3, 15960, Note_on_c, 1, 76, 93
3, 16032, Note_off_c, 1, 76, 0
3, 16200, Note_on_c, 1, 68, 93
3, 16224, Note_off_c, 1, 68, 0
3, 16224, Note_on_c, 1, 69, 93
3, 16296, Note_off_c, 1, 69, 0
3, 16296, Note_on_c, 1, 71, 93
3, 16320, Note_off_c, 1, 71, 0
3, 16320, Note_on_c, 1, 72, 93
3, 16488, Note_off_c, 1, 72, 0
3, 16488, Note_on_c, 1, 66, 93
3, 16512, Note_off_c, 1, 66, 0
3, 16512, Note_on_c, 1, 67, 93
3, 16584, Note_off_c, 1, 67, 0
3, 16584, Note_on_c, 1, 69, 93
3, 16608, Note_off_c, 1, 69, 0
3, 16608, Note_on_c, 1, 71, 93
3, 16776, Note_off_c, 1, 71, 0
3, 16776, Note_on_c, 1, 64, 93
3, 16800, Note_off_c, 1, 64, 0
3, 16800, Note_on_c, 1, 66, 93
3, 16872, Note_off_c, 1, 66, 0
3, 16872, Note_on_c, 1, 67, 93
3, 16896, Note_off_c, 1, 67, 0
3, 16896, Note_on_c, 1, 69, 93
3, 16968, Note_off_c, 1, 69, 0
3, 16968, Note_on_c, 1, 67, 93
3, 16992, Note_off_c, 1, 67, 0
3, 16992, Note_on_c, 1, 66, 93
3, 17010, Note_off_c, 1, 66, 0
3, 17010, Note_on_c, 1, 67, 93
3, 17022, Note_off_c, 1, 67, 0
3, 17022, Note_on_c, 1, 66, 93
3, 17040, Note_off_c, 1, 66, 0
3, 17040, Note_on_c, 1, 61, 93
3, 17058, Note_off_c, 1, 61, 0
3, 17058, Note_on_c, 1, 62, 93
3, 17070, Note_off_c, 1, 62, 0
3, 17070, Note_on_c, 1, 64, 93
3, 17088, Note_off_c, 1, 64, 0
3, 17088, Note_on_c, 1, 66, 93
3, 17106, Note_off_c, 1, 66, 0
3, 17106, Note_on_c, 1, 64, 93
3, 17118, Note_off_c, 1, 64, 0
3, 17118, Note_on_c, 1, 66, 93
3, 17136, Note_off_c, 1, 66, 0
3, 17136, Note_on_c, 1, 67, 93
3, 17154, Note_off_c, 1, 67, 0
3, 17154, Note_on_c, 1, 66, 93
3, 17166, Note_off_c, 1, 66, 0
3, 17166, Note_on_c, 1, 67, 93
3, 17184, Note_off_c, 1, 67, 0
3, 17184, Note_on_c, 1, 69, 93
3, 17202, Note_off_c, 1, 69, 0
3, 17202, Note_on_c, 1, 67, 93
3, 17214, Note_off_c, 1, 67, 0
3, 17214, Note_on_c, 1, 69, 93
3, 17232, Note_off_c, 1, 69, 0
3, 17232, Note_on_c, 1, 71, 93
3, 17250, Note_off_c, 1, 71, 0
3, 17250, Note_on_c, 1, 67, 93
3, 17262, Note_off_c, 1, 67, 0
3, 17262, Note_on_c, 1, 69, 93
3, 17280, Note_off_c, 1, 69, 0
3, 17280, Note_on_c, 1, 71, 93
3, 17298, Note_off_c, 1, 71, 0
3, 17298, Note_on_c, 1, 72, 93
3, 17310, Note_off_c, 1, 72, 0
3, 17310, Note_on_c, 1, 71, 93
3, 17328, Note_off_c, 1, 71, 0
3, 17328, Note_on_c, 1, 66, 93
3, 17346, Note_off_c, 1, 66, 0
3, 17346, Note_on_c, 1, 67, 93
3, 17358, Note_off_c, 1, 67, 0
3, 17358, Note_on_c, 1, 69, 93
3, 17376, Note_off_c, 1, 69, 0
3, 17376, Note_on_c, 1, 71, 93
3, 17394, Note_off_c, 1, 71, 0
3, 17394, Note_on_c, 1, 69, 93
3, 17406, Note_off_c, 1, 69, 0
3, 17406, Note_on_c, 1, 71, 93
3, 17424, Note_off_c, 1, 71, 0
3, 17424, Note_on_c, 1, 72, 93
3, 17442, Note_off_c, 1, 72, 0
3, 17442, Note_on_c, 1, 71, 93
3, 17454, Note_off_c, 1, 71, 0
3, 17454, Note_on_c, 1, 72, 93
3, 17472, Note_off_c, 1, 72, 0
3, 17472, Note_on_c, 1, 74, 93
3, 17490, Note_off_c, 1, 74, 0
3, 17490, Note_on_c, 1, 72, 93
3, 17502, Note_off_c, 1, 72, 0
3, 17502, Note_on_c, 1, 74, 93
3, 17520, Note_off_c, 1, 74, 0
3, 17520, Note_on_c, 1, 76, 93
3, 17538, Note_off_c, 1, 76, 0
3, 17538, Note_on_c, 1, 72, 93
3, 17550, Note_off_c, 1, 72, 0
3, 17550, Note_on_c, 1, 74, 93
3, 17568, Note_off_c, 1, 74, 0
3, 17568, Note_on_c, 1, 76, 93
3, 17586, Note_off_c, 1, 76, 0
3, 17586, Note_on_c, 1, 77, 93
3, 17598, Note_off_c, 1, 77, 0
3, 17598, Note_on_c, 1, 76, 93
3, 17616, Note_off_c, 1, 76, 0
3, 17616, Note_on_c, 1, 71, 93
3, 17634, Note_off_c, 1, 71, 0
3, 17634, Note_on_c, 1, 72, 93
3, 17646, Note_off_c, 1, 72, 0
3, 17646, Note_on_c, 1, 74, 93
3, 17664, Note_off_c, 1, 74, 0
3, 17664, Note_on_c, 1, 76, 93
3, 17682, Note_off_c, 1, 76, 0
3, 17682, Note_on_c, 1, 74, 93
3, 17694, Note_off_c, 1, 74, 0
3, 17694, Note_on_c, 1, 76, 93
3, 17712, Note_off_c, 1, 76, 0
3, 17712, Note_on_c, 1, 78, 93
3, 17730, Note_off_c, 1, 78, 0
3, 17730, Note_on_c, 1, 76, 93
3, 17742, Note_off_c, 1, 76, 0
3, 17742, Note_on_c, 1, 78, 93
3, 17760, Note_off_c, 1, 78, 0
3, 17760, Note_on_c, 1, 79, 93
3, 17778, Note_off_c, 1, 79, 0
3, 17778, Note_on_c, 1, 78, 93
3, 17790, Note_off_c, 1, 78, 0
3, 17790, Note_on_c, 1, 79, 93
3, 17808, Note_off_c, 1, 79, 0
3, 17808, Note_on_c, 1, 81, 93
3, 17826, Note_off_c, 1, 81, 0
3, 17826, Note_on_c, 1, 78, 93
3, 17838, Note_off_c, 1, 78, 0
3, 17838, Note_on_c, 1, 79, 93
3, 17856, Note_off_c, 1, 79, 0
3, 17856, Note_on_c, 1, 81, 93
3, 17874, Note_off_c, 1, 81, 0
3, 17874, Note_on_c, 1, 83, 93
3, 17886, Note_off_c, 1, 83, 0
3, 17886, Note_on_c, 1, 81, 93
3, 17904, Note_off_c, 1, 81, 0
3, 17904, Note_on_c, 1, 78, 93
3, 17922, Note_off_c, 1, 78, 0
3, 17922, Note_on_c, 1, 79, 93
3, 17934, Note_off_c, 1, 79, 0
3, 17934, Note_on_c, 1, 81, 93
3, 17952, Note_off_c, 1, 81, 0
3, 17952, Note_on_c, 1, 83, 93
3, 17970, Note_off_c, 1, 83, 0
3, 17970, Note_on_c, 1, 81, 93
3, 17982, Note_off_c, 1, 81, 0
3, 17982, Note_on_c, 1, 83, 93
3, 18000, Note_off_c, 1, 83, 0
3, 18000, Note_on_c, 1, 86, 93
3, 18018, Note_off_c, 1, 86, 0
3, 18018, Note_on_c, 1, 84, 93
3, 18030, Note_off_c, 1, 84, 0
3, 18030, Note_on_c, 1, 83, 93
3, 18048, Note_off_c, 1, 83, 0
3, 18048, Note_on_c, 1, 81, 93
3, 18066, Note_off_c, 1, 81, 0
3, 18066, Note_on_c, 1, 79, 93
3, 18078, Note_off_c, 1, 79, 0
3, 18078, Note_on_c, 1, 78, 93
3, 18096, Note_off_c, 1, 78, 0
3, 18096, Note_on_c, 1, 76, 93
3, 18114, Note_off_c, 1, 76, 0
3, 18114, Note_on_c, 1, 74, 93
3, 18126, Note_off_c, 1, 74, 0
3, 18126, Note_on_c, 1, 72, 93
3, 18144, Note_off_c, 1, 72, 0
3, 18144, Note_on_c, 1, 71, 93
3, 18162, Note_off_c, 1, 71, 0
3, 18162, Note_on_c, 1, 69, 93
3, 18174, Note_off_c, 1, 69, 0
3, 18174, Note_on_c, 1, 67, 93
3, 18192, Note_off_c, 1, 67, 0
3, 18192, Note_on_c, 1, 66, 93
3, 18210, Note_off_c, 1, 66, 0
3, 18210, Note_on_c, 1, 67, 93
3, 18222, Note_off_c, 1, 67, 0
3, 18222, Note_on_c, 1, 62, 93
3, 18240, Note_off_c, 1, 62, 0
3, 18240, Note_on_c, 1, 59, 93
3, 18288, Note_off_c, 1, 59, 0
3, 18288, End_track
4, 0, Start_track
4, 0, Title_t, "Track4"
4, 0, Program_c, 2, 6
4, 0, Control_c, 2, 7, 100
4, 0, Control_c, 2, 10, 54
4, 0, Note_on_c, 2, 67, 93
4, 96, Note_off_c, 2, 67, 0
4, 96, Note_on_c, 2, 62, 93
4, 192, Note_off_c, 2, 62, 0
4, 240, Note_on_c, 2, 67, 93
4, 288, Note_off_c, 2, 67, 0
4, 288, Note_on_c, 2, 67, 93
4, 360, Note_off_c, 2, 67, 0
4, 360, Note_on_c, 2, 64, 93
4, 384, Note_off_c, 2, 64, 0
4, 384, Note_on_c, 2, 64, 93
4, 396, Note_off_c, 2, 64, 0
4, 396, Note_on_c, 2, 66, 93
4, 480, Note_off_c, 2, 66, 0
4, 528, Note_on_c, 2, 69, 93
4, 576, Note_off_c, 2, 69, 0
4, 576, Note_on_c, 2, 71, 93
4, 648, Note_off_c, 2, 71, 0
4, 648, Note_on_c, 2, 67, 93
4, 672, Note_off_c, 2, 67, 0
4, 672, Note_on_c, 2, 64, 93
4, 768, Note_off_c, 2, 64, 0
4, 816, Note_on_c, 2, 57, 93
4, 864, Note_off_c, 2, 57, 0
4, 864, Note_on_c, 2, 62, 93
4, 960, Note_off_c, 2, 62, 0
4, 960, Note_on_c, 2, 62, 93
4, 1056, Note_off_c, 2, 62, 0
4, 1104, Note_on_c, 2, 60, 93
4, 1152, Note_off_c, 2, 60, 0
4, 1152, Note_on_c, 2, 59, 93
4, 1224, Note_off_c, 2, 59, 0
4, 1224, Note_on_c, 2, 60, 93
4, 1248, Note_off_c, 2, 60, 0
4, 1248, Note_on_c, 2, 62, 93
4, 1344, Note_off_c, 2, 62, 0
4, 1392, Note_on_c, 2, 55, 93
4, 1440, Note_off_c, 2, 55, 0
4, 1440, Note_on_c, 2, 60, 93
4, 1536, Note_off_c, 2, 60, 0
4, 1536, Note_on_c, 2, 52, 93
4, 1632, Note_off_c, 2, 52, 0
4, 1680, Note_on_c, 2, 55, 93
4, 1728, Note_off_c, 2, 55, 0
4, 1728, Note_on_c, 2, 54, 93
4, 1800, Note_off_c, 2, 54, 0
4, 1800, Note_on_c, 2, 55, 93
4, 1824, Note_off_c, 2, 55, 0
4, 1824, Note_on_c, 2, 57, 93
4, 1920, Note_off_c, 2, 57, 0
4, 1968, Note_on_c, 2, 50, 93
4, 2016, Note_off_c, 2, 50, 0
4, 2016, Note_on_c, 2, 55, 93
4, 2112, Note_off_c, 2, 55, 0
4, 2112, Note_on_c, 2, 43, 93
4, 2208, Note_off_c, 2, 43, 0
4, 2304, Note_on_c, 2, 43, 93
4, 2322, Note_off_c, 2, 43, 0
4, 2322, Note_on_c, 2, 45, 93
4, 2334, Note_off_c, 2, 45, 0
4, 2334, Note_on_c, 2, 43, 93
4, 2352, Note_off_c, 2, 43, 0
4, 2352, Note_on_c, 2, 38, 93
4, 2370, Note_off_c, 2, 38, 0
4, 2370, Note_on_c, 2, 40, 93
4, 2382, Note_off_c, 2, 40, 0
4, 2382, Note_on_c, 2, 42, 93
4, 2400, Note_off_c, 2, 42, 0
4, 2400, Note_on_c, 2, 43, 93
4, 2418, Note_off_c, 2, 43, 0
4, 2418, Note_on_c, 2, 42, 93
4, 2430, Note_off_c, 2, 42, 0
4, 2430, Note_on_c, 2, 43, 93
4, 2448, Note_off_c, 2, 43, 0
4, 2448, Note_on_c, 2, 45, 93
4, 2466, Note_off_c, 2, 45, 0
4, 2466, Note_on_c, 2, 43, 93
4, 2478, Note_off_c, 2, 43, 0
4, 2478, Note_on_c, 2, 45, 93
4, 2496, Note_off_c, 2, 45, 0
4, 2496, Note_on_c, 2, 47, 93
4, 2514, Note_off_c, 2, 47, 0
4, 2514, Note_on_c, 2, 45, 93
4, 2526, Note_off_c, 2, 45, 0
4, 2526, Note_on_c, 2, 47, 93
4, 2544, Note_off_c, 2, 47, 0
4, 2544, Note_on_c, 2, 48, 93
4, 2562, Note_off_c, 2, 48, 0
4, 2562, Note_on_c, 2, 47, 93
4, 2574, Note_off_c, 2, 47, 0
4, 2574, Note_on_c, 2, 49, 93
4, 2592, Note_off_c, 2, 49, 0
4, 2592, Note_on_c, 2, 50, 93
4, 2610, Note_off_c, 2, 50, 0
4, 2610, Note_on_c, 2, 52, 93
4, 2622, Note_off_c, 2, 52, 0
4, 2622, Note_on_c, 2, 50, 93
4, 2640, Note_off_c, 2, 50, 0
4, 2640, Note_on_c, 2, 45, 93
4, 2658, Note_off_c, 2, 45, 0
4, 2658, Note_on_c, 2, 47, 93
4, 2670, Note_off_c, 2, 47, 0
4, 2670, Note_on_c, 2, 49, 93
4, 2688, Note_off_c, 2, 49, 0
4, 2688, Note_on_c, 2, 50, 93
4, 2706, Note_off_c, 2, 50, 0
4, 2706, Note_on_c, 2, 49, 93
4, 2718, Note_off_c, 2, 49, 0
4, 2718, Note_on_c, 2, 50, 93
4, 2736, Note_off_c, 2, 50, 0
4, 2736, Note_on_c, 2, 52, 93
4, 2754, Note_off_c, 2, 52, 0
4, 2754, Note_on_c, 2, 50, 93
4, 2766, Note_off_c, 2, 50, 0
4, 2766, Note_on_c, 2, 52, 93
4, 2784, Note_off_c, 2, 52, 0
4, 2784, Note_on_c, 2, 54, 93
4, 2802, Note_off_c, 2, 54, 0
4, 2802, Note_on_c, 2, 52, 93
4, 2814, Note_off_c, 2, 52, 0
4, 2814, Note_on_c, 2, 54, 93
4, 2832, Note_off_c, 2, 54, 0
4, 2832, Note_on_c, 2, 55, 93
4, 2850, Note_off_c, 2, 55, 0
4, 2850, Note_on_c, 2, 52, 93
4, 2862, Note_off_c, 2, 52, 0
4, 2862, Note_on_c, 2, 54, 93
4, 2880, Note_off_c, 2, 54, 0
4, 2880, Note_on_c, 2, 55, 93
4, 2898, Note_off_c, 2, 55, 0
4, 2898, Note_on_c, 2, 57, 93
4, 2910, Note_off_c, 2, 57, 0
4, 2910, Note_on_c, 2, 55, 93
4, 2928, Note_off_c, 2, 55, 0
4, 2928, Note_on_c, 2, 47, 93
4, 2946, Note_off_c, 2, 47, 0
4, 2946, Note_on_c, 2, 52, 93
4, 2958, Note_off_c, 2, 52, 0
4, 2958, Note_on_c, 2, 54, 93
4, 2976, Note_off_c, 2, 54, 0
4, 2976, Note_on_c, 2, 55, 93
4, 2994, Note_off_c, 2, 55, 0
4, 2994, Note_on_c, 2, 54, 93
4, 3006, Note_off_c, 2, 54, 0
4, 3006, Note_on_c, 2, 55, 93
4, 3024, Note_off_c, 2, 55, 0
4, 3024, Note_on_c, 2, 57, 93
4, 3042, Note_off_c, 2, 57, 0
4, 3042, Note_on_c, 2, 55, 93
4, 3054, Note_off_c, 2, 55, 0
4, 3054, Note_on_c, 2, 57, 93
4, 3072, Note_off_c, 2, 57, 0
4, 3072, Note_on_c, 2, 59, 93
4, 3090, Note_off_c, 2, 59, 0
4, 3090, Note_on_c, 2, 57, 93
4, 3102, Note_off_c, 2, 57, 0
4, 3102, Note_on_c, 2, 59, 93
4, 3120, Note_off_c, 2, 59, 0
4, 3120, Note_on_c, 2, 61, 93
4, 3138, Note_off_c, 2, 61, 0
4, 3138, Note_on_c, 2, 57, 93
4, 3150, Note_off_c, 2, 57, 0
4, 3150, Note_on_c, 2, 59, 93
4, 3168, Note_off_c, 2, 59, 0
4, 3168, Note_on_c, 2, 61, 93
4, 3186, Note_off_c, 2, 61, 0
4, 3186, Note_on_c, 2, 62, 93
4, 3198, Note_off_c, 2, 62, 0
4, 3198, Note_on_c, 2, 61, 93
4, 3216, Note_off_c, 2, 61, 0
4, 3216, Note_on_c, 2, 52, 93
4, 3234, Note_off_c, 2, 52, 0
4, 3234, Note_on_c, 2, 57, 93
4, 3246, Note_off_c, 2, 57, 0
4, 3246, Note_on_c, 2, 59, 93
4, 3264, Note_off_c, 2, 59, 0
4, 3264, Note_on_c, 2, 61, 93
4, 3282, Note_off_c, 2, 61, 0
4, 3282, Note_on_c, 2, 59, 93
4, 3294, Note_off_c, 2, 59, 0
4, 3294, Note_on_c, 2, 61, 93
4, 3312, Note_off_c, 2, 61, 0
4, 3312, Note_on_c, 2, 62, 93
4, 3330, Note_off_c, 2, 62, 0
4, 3330, Note_on_c, 2, 61, 93
4, 3342, Note_off_c, 2, 61, 0
4, 3342, Note_on_c, 2, 62, 93
4, 3360, Note_off_c, 2, 62, 0
4, 3360, Note_on_c, 2, 64, 93
4, 3378, Note_off_c, 2, 64, 0
4, 3378, Note_on_c, 2, 62, 93
4, 3390, Note_off_c, 2, 62, 0
4, 3390, Note_on_c, 2, 64, 93
4, 3408, Note_off_c, 2, 64, 0
4, 3408, Note_on_c, 2, 66, 93
4, 3426, Note_off_c, 2, 66, 0
4, 3426, Note_on_c, 2, 62, 93
4, 3438, Note_off_c, 2, 62, 0
4, 3438, Note_on_c, 2, 64, 93
4, 3456, Note_off_c, 2, 64, 0
4, 3456, Note_on_c, 2, 66, 93
4, 3474, Note_off_c, 2, 66, 0
4, 3474, Note_on_c, 2, 64, 93
4, 3486, Note_off_c, 2, 64, 0
4, 3486, Note_on_c, 2, 66, 93
4, 3504, Note_off_c, 2, 66, 0
4, 3504, Note_on_c, 2, 69, 93
4, 3522, Note_off_c, 2, 69, 0
4, 3522, Note_on_c, 2, 67, 93
4, 3534, Note_off_c, 2, 67, 0
4, 3534, Note_on_c, 2, 69, 93
4, 3552, Note_off_c, 2, 69, 0
4, 3552, Note_on_c, 2, 62, 93
4, 3570, Note_off_c, 2, 62, 0
4, 3570, Note_on_c, 2, 61, 93
4, 3582, Note_off_c, 2, 61, 0
4, 3582, Note_on_c, 2, 62, 93
4, 3600, Note_off_c, 2, 62, 0
4, 3600, Note_on_c, 2, 66, 93
4, 3618, Note_off_c, 2, 66, 0
4, 3618, Note_on_c, 2, 69, 93
4, 3630, Note_off_c, 2, 69, 0
4, 3630, Note_on_c, 2, 71, 93
4, 3648, Note_off_c, 2, 71, 0
4, 3648, Note_on_c, 2, 72, 93
4, 3666, Note_off_c, 2, 72, 0
4, 3666, Note_on_c, 2, 71, 93
4, 3678, Note_off_c, 2, 71, 0
4, 3678, Note_on_c, 2, 72, 93
4, 3696, Note_off_c, 2, 72, 0
4, 3696, Note_on_c, 2, 69, 93
4, 3714, Note_off_c, 2, 69, 0
4, 3714, Note_on_c, 2, 66, 93
4, 3726, Note_off_c, 2, 66, 0
4, 3726, Note_on_c, 2, 69, 93
4, 3744, Note_off_c, 2, 69, 0
4, 3744, Note_on_c, 2, 67, 93
4, 3762, Note_off_c, 2, 67, 0
4, 3762, Note_on_c, 2, 66, 93
4, 3774, Note_off_c, 2, 66, 0
4, 3774, Note_on_c, 2, 67, 93
4, 3792, Note_off_c, 2, 67, 0
4, 3792, Note_on_c, 2, 71, 93
4, 3810, Note_off_c, 2, 71, 0
4, 3810, Note_on_c, 2, 69, 93
4, 3822, Note_off_c, 2, 69, 0
4, 3822, Note_on_c, 2, 71, 93
4, 3840, Note_off_c, 2, 71, 0
4, 3840, Note_on_c, 2, 64, 93
4, 3858, Note_off_c, 2, 64, 0
4, 3858, Note_on_c, 2, 63, 93
4, 3870, Note_off_c, 2, 63, 0
4, 3870, Note_on_c, 2, 64, 93
4, 3888, Note_off_c, 2, 64, 0
4, 3888, Note_on_c, 2, 67, 93
4, 3906, Note_off_c, 2, 67, 0
4, 3906, Note_on_c, 2, 71, 93
4, 3918, Note_off_c, 2, 71, 0
4, 3918, Note_on_c, 2, 73, 93
4, 3936, Note_off_c, 2, 73, 0
4, 3936, Note_on_c, 2, 74, 93
4, 3954, Note_off_c, 2, 74, 0
4, 3954, Note_on_c, 2, 73, 93
4, 3966, Note_off_c, 2, 73, 0
4, 3966, Note_on_c, 2, 74, 93
4, 3984, Note_off_c, 2, 74, 0
4, 3984, Note_on_c, 2, 71, 93
4, 4002, Note_off_c, 2, 71, 0
4, 4002, Note_on_c, 2, 67, 93
4, 4014, Note_off_c, 2, 67, 0
4, 4014, Note_on_c, 2, 71, 93
4, 4032, Note_off_c, 2, 71, 0
4, 4032, Note_on_c, 2, 73, 93
4, 4050, Note_off_c, 2, 73, 0
4, 4050, Note_on_c, 2, 71, 93
4, 4062, Note_off_c, 2, 71, 0
4, 4062, Note_on_c, 2, 73, 93
4, 4080, Note_off_c, 2, 73, 0
4, 4080, Note_on_c, 2, 76, 93
4, 4098, Note_off_c, 2, 76, 0
4, 4098, Note_on_c, 2, 74, 93
4, 4110, Note_off_c, 2, 74, 0
4, 4110, Note_on_c, 2, 76, 93
4, 4128, Note_off_c, 2, 76, 0
4, 4128, Note_on_c, 2, 69, 93
4, 4146, Note_off_c, 2, 69, 0
4, 4146, Note_on_c, 2, 68, 93
4, 4158, Note_off_c, 2, 68, 0
4, 4158, Note_on_c, 2, 69, 93
4, 4176, Note_off_c, 2, 69, 0
4, 4176, Note_on_c, 2, 73, 93
4, 4194, Note_off_c, 2, 73, 0
4, 4194, Note_on_c, 2, 76, 93
4, 4206, Note_off_c, 2, 76, 0
4, 4206, Note_on_c, 2, 78, 93
4, 4224, Note_off_c, 2, 78, 0
4, 4224, Note_on_c, 2, 79, 93
4, 4242, Note_off_c, 2, 79, 0
4, 4242, Note_on_c, 2, 78, 93
4, 4254, Note_off_c, 2, 78, 0
4, 4254, Note_on_c, 2, 79, 93
4, 4272, Note_off_c, 2, 79, 0
4, 4272, Note_on_c, 2, 76, 93
4, 4290, Note_off_c, 2, 76, 0
4, 4290, Note_on_c, 2, 73, 93
4, 4302, Note_off_c, 2, 73, 0
4, 4302, Note_on_c, 2, 76, 93
4, 4320, Note_off_c, 2, 76, 0
4, 4320, Note_on_c, 2, 78, 93
4, 4338, Note_off_c, 2, 78, 0
4, 4338, Note_on_c, 2, 76, 93
4, 4350, Note_off_c, 2, 76, 0
4, 4350, Note_on_c, 2, 78, 93
4, 4368, Note_off_c, 2, 78, 0
4, 4368, Note_on_c, 2, 81, 93
4, 4386, Note_off_c, 2, 81, 0
4, 4386, Note_on_c, 2, 79, 93
4, 4398, Note_off_c, 2, 79, 0
4, 4398, Note_on_c, 2, 81, 93
4, 4416, Note_off_c, 2, 81, 0
4, 4416, Note_on_c, 2, 74, 93
4, 4434, Note_off_c, 2, 74, 0
4, 4434, Note_on_c, 2, 73, 93
4, 4446, Note_off_c, 2, 73, 0
4, 4446, Note_on_c, 2, 74, 93
4, 4464, Note_off_c, 2, 74, 0
4, 4464, Note_on_c, 2, 78, 93
4, 4482, Note_off_c, 2, 78, 0
4, 4482, Note_on_c, 2, 81, 93
4, 4494, Note_off_c, 2, 81, 0
4, 4494, Note_on_c, 2, 85, 93
4, 4512, Note_off_c, 2, 85, 0
4, 4512, Note_on_c, 2, 86, 93
4, 4524, Note_off_c, 2, 86, 0
4, 4524, Note_on_c, 2, 85, 93
4, 4536, Note_off_c, 2, 85, 0
4, 4536, Note_on_c, 2, 86, 93
4, 4608, Note_off_c, 2, 86, 0
4, 4608, Note_on_c, 2, 67, 93
4, 4704, Note_off_c, 2, 67, 0
4, 4704, Note_on_c, 2, 62, 93
4, 4800, Note_off_c, 2, 62, 0
4, 4848, Note_on_c, 2, 67, 93
4, 4896, Note_off_c, 2, 67, 0
4, 4896, Note_on_c, 2, 67, 93
4, 4968, Note_off_c, 2, 67, 0
4, 4968, Note_on_c, 2, 64, 93
4, 4992, Note_off_c, 2, 64, 0
4, 4992, Note_on_c, 2, 64, 93
4, 5004, Note_off_c, 2, 64, 0
4, 5004, Note_on_c, 2, 66, 93
4, 5088, Note_off_c, 2, 66, 0
4, 5136, Note_on_c, 2, 69, 93
4, 5184, Note_off_c, 2, 69, 0
4, 5184, Note_on_c, 2, 71, 93
4, 5256, Note_off_c, 2, 71, 0
4, 5256, Note_on_c, 2, 67, 93
4, 5280, Note_off_c, 2, 67, 0
4, 5280, Note_on_c, 2, 64, 93
4, 5376, Note_off_c, 2, 64, 0
4, 5424, Note_on_c, 2, 57, 93
4, 5472, Note_off_c, 2, 57, 0
4, 5472, Note_on_c, 2, 62, 93
4, 5568, Note_off_c, 2, 62, 0
4, 5568, Note_on_c, 2, 62, 93
4, 5664, Note_off_c, 2, 62, 0
4, 5712, Note_on_c, 2, 60, 93
4, 5760, Note_off_c, 2, 60, 0
4, 5760, Note_on_c, 2, 59, 93
4, 5832, Note_off_c, 2, 59, 0
4, 5832, Note_on_c, 2, 60, 93
4, 5856, Note_off_c, 2, 60, 0
4, 5856, Note_on_c, 2, 62, 93
4, 5952, Note_off_c, 2, 62, 0
4, 6000, Note_on_c, 2, 55, 93
4, 6048, Note_off_c, 2, 55, 0
4, 6048, Note_on_c, 2, 60, 93
4, 6144, Note_off_c, 2, 60, 0
4, 6144, Note_on_c, 2, 52, 93
4, 6240, Note_off_c, 2, 52, 0
4, 6288, Note_on_c, 2, 55, 93
4, 6336, Note_off_c, 2, 55, 0
4, 6336, Note_on_c, 2, 54, 93
4, 6408, Note_off_c, 2, 54, 0
4, 6408, Note_on_c, 2, 55, 93
4, 6432, Note_off_c, 2, 55, 0
4, 6432, Note_on_c, 2, 57, 93
4, 6528, Note_off_c, 2, 57, 0
4, 6576, Note_on_c, 2, 50, 93
4, 6624, Note_off_c, 2, 50, 0
4, 6624, Note_on_c, 2, 55, 93
4, 6720, Note_off_c, 2, 55, 0
4, 6720, Note_on_c, 2, 43, 93
4, 6816, Note_off_c, 2, 43, 0
4, 6912, Note_on_c, 2, 43, 93
4, 6930, Note_off_c, 2, 43, 0
4, 6930, Note_on_c, 2, 45, 93
4, 6942, Note_off_c, 2, 45, 0
4, 6942, Note_on_c, 2, 43, 93
4, 6960, Note_off_c, 2, 43, 0
4, 6960, Note_on_c, 2, 38, 93
4, 6978, Note_off_c, 2, 38, 0
4, 6978, Note_on_c, 2, 40, 93
4, 6990, Note_off_c, 2, 40, 0
4, 6990, Note_on_c, 2, 42, 93
4, 7008, Note_off_c, 2, 42, 0
4, 7008, Note_on_c, 2, 43, 93
4, 7026, Note_off_c, 2, 43, 0
4, 7026, Note_on_c, 2, 42, 93
4, 7038, Note_off_c, 2, 42, 0
4, 7038, Note_on_c, 2, 43, 93
4, 7056, Note_off_c, 2, 43, 0
4, 7056, Note_on_c, 2, 45, 93
4, 7074, Note_off_c, 2, 45, 0
4, 7074, Note_on_c, 2, 43, 93
4, 7086, Note_off_c, 2, 43, 0
4, 7086, Note_on_c, 2, 45, 93
4, 7104, Note_off_c, 2, 45, 0
4, 7104, Note_on_c, 2, 47, 93
4, 7122, Note_off_c, 2, 47, 0
4, 7122, Note_on_c, 2, 45, 93
4, 7134, Note_off_c, 2, 45, 0
4, 7134, Note_on_c, 2, 47, 93
4, 7152, Note_off_c, 2, 47, 0
4, 7152, Note_on_c, 2, 48, 93
4, 7170, Note_off_c, 2, 48, 0
4, 7170, Note_on_c, 2, 47, 93
4, 7182, Note_off_c, 2, 47, 0
4, 7182, Note_on_c, 2, 49, 93
4, 7200, Note_off_c, 2, 49, 0
4, 7200, Note_on_c, 2, 50, 93
4, 7218, Note_off_c, 2, 50, 0
4, 7218, Note_on_c, 2, 52, 93
4, 7230, Note_off_c, 2, 52, 0
4, 7230, Note_on_c, 2, 50, 93
4, 7248, Note_off_c, 2, 50, 0
4, 7248, Note_on_c, 2, 45, 93
4, 7266, Note_off_c, 2, 45, 0
4, 7266, Note_on_c, 2, 47, 93
4, 7278, Note_off_c, 2, 47, 0
4, 7278, Note_on_c, 2, 49, 93
4, 7296, Note_off_c, 2, 49, 0
4, 7296, Note_on_c, 2, 50, 93
4, 7314, Note_off_c, 2, 50, 0
4, 7314, Note_on_c, 2, 49, 93
4, 7326, Note_off_c, 2, 49, 0
4, 7326, Note_on_c, 2, 50, 93
4, 7344, Note_off_c, 2, 50, 0
4, 7344, Note_on_c, 2, 52, 93
4, 7362, Note_off_c, 2, 52, 0
4, 7362, Note_on_c, 2, 50, 93
4, 7374, Note_off_c, 2, 50, 0
4, 7374, Note_on_c, 2, 52, 93
4, 7392, Note_off_c, 2, 52, 0
4, 7392, Note_on_c, 2, 54, 93
4, 7410, Note_off_c, 2, 54, 0
4, 7410, Note_on_c, 2, 52, 93
4, 7422, Note_off_c, 2, 52, 0
4, 7422, Note_on_c, 2, 54, 93
4, 7440, Note_off_c, 2, 54, 0
4, 7440, Note_on_c, 2, 55, 93
4, 7458, Note_off_c, 2, 55, 0
4, 7458, Note_on_c, 2, 52, 93
4, 7470, Note_off_c, 2, 52, 0
4, 7470, Note_on_c, 2, 54, 93
4, 7488, Note_off_c, 2, 54, 0
4, 7488, Note_on_c, 2, 55, 93
4, 7506, Note_off_c, 2, 55, 0
4, 7506, Note_on_c, 2, 57, 93
4, 7518, Note_off_c, 2, 57, 0
4, 7518, Note_on_c, 2, 55, 93
4, 7536, Note_off_c, 2, 55, 0
4, 7536, Note_on_c, 2, 47, 93
4, 7554, Note_off_c, 2, 47, 0
4, 7554, Note_on_c, 2, 52, 93
4, 7566, Note_off_c, 2, 52, 0
4, 7566, Note_on_c, 2, 54, 93
4, 7584, Note_off_c, 2, 54, 0
4, 7584, Note_on_c, 2, 55, 93
4, 7602, Note_off_c, 2, 55, 0
4, 7602, Note_on_c, 2, 54, 93
4, 7614, Note_off_c, 2, 54, 0
4, 7614, Note_on_c, 2, 55, 93
4, 7632, Note_off_c, 2, 55, 0
4, 7632, Note_on_c, 2, 57, 93
4, 7650, Note_off_c, 2, 57, 0
4, 7650, Note_on_c, 2, 55, 93
4, 7662, Note_off_c, 2, 55, 0
4, 7662, Note_on_c, 2, 57, 93
4, 7680, Note_off_c, 2, 57, 0
4, 7680, Note_on_c, 2, 59, 93
4, 7698, Note_off_c, 2, 59, 0
4, 7698, Note_on_c, 2, 57, 93
4, 7710, Note_off_c, 2, 57, 0
4, 7710, Note_on_c, 2, 59, 93
4, 7728, Note_off_c, 2, 59, 0
4, 7728, Note_on_c, 2, 61, 93
4, 7746, Note_off_c, 2, 61, 0
4, 7746, Note_on_c, 2, 57, 93
4, 7758, Note_off_c, 2, 57, 0
4, 7758, Note_on_c, 2, 59, 93
4, 7776, Note_off_c, 2, 59, 0
4, 7776, Note_on_c, 2, 61, 93
4, 7794, Note_off_c, 2, 61, 0
4, 7794, Note_on_c, 2, 62, 93
4, 7806, Note_off_c, 2, 62, 0
4, 7806, Note_on_c, 2, 61, 93
4, 7824, Note_off_c, 2, 61, 0
4, 7824, Note_on_c, 2, 52, 93
4, 7842, Note_off_c, 2, 52, 0
4, 7842, Note_on_c, 2, 57, 93
4, 7854, Note_off_c, 2, 57, 0
4, 7854, Note_on_c, 2, 59, 93
4, 7872, Note_off_c, 2, 59, 0
4, 7872, Note_on_c, 2, 61, 93
4, 7890, Note_off_c, 2, 61, 0
4, 7890, Note_on_c, 2, 59, 93
4, 7902, Note_off_c, 2, 59, 0
4, 7902, Note_on_c, 2, 61, 93
4, 7920, Note_off_c, 2, 61, 0
4, 7920, Note_on_c, 2, 62, 93
4, 7938, Note_off_c, 2, 62, 0
4, 7938, Note_on_c, 2, 61, 93
4, 7950, Note_off_c, 2, 61, 0
4, 7950, Note_on_c, 2, 62, 93
4, 7968, Note_off_c, 2, 62, 0
4, 7968, Note_on_c, 2, 64, 93
4, 7986, Note_off_c, 2, 64, 0
4, 7986, Note_on_c, 2, 62, 93
4, 7998, Note_off_c, 2, 62, 0
4, 7998, Note_on_c, 2, 64, 93
4, 8016, Note_off_c, 2, 64, 0
4, 8016, Note_on_c, 2, 66, 93
4, 8034, Note_off_c, 2, 66, 0
4, 8034, Note_on_c, 2, 62, 93
4, 8046, Note_off_c, 2, 62, 0
4, 8046, Note_on_c, 2, 64, 93
4, 8064, Note_off_c, 2, 64, 0
4, 8064, Note_on_c, 2, 66, 93
4, 8082, Note_off_c, 2, 66, 0
4, 8082, Note_on_c, 2, 64, 93
4, 8094, Note_off_c, 2, 64, 0
4, 8094, Note_on_c, 2, 66, 93
4, 8112, Note_off_c, 2, 66, 0
4, 8112, Note_on_c, 2, 69, 93
4, 8130, Note_off_c, 2, 69, 0
4, 8130, Note_on_c, 2, 67, 93
4, 8142, Note_off_c, 2, 67, 0
4, 8142, Note_on_c, 2, 69, 93
4, 8160, Note_off_c, 2, 69, 0
4, 8160, Note_on_c, 2, 62, 93
4, 8178, Note_off_c, 2, 62, 0
4, 8178, Note_on_c, 2, 61, 93
4, 8190, Note_off_c, 2, 61, 0
4, 8190, Note_on_c, 2, 62, 93
4, 8208, Note_off_c, 2, 62, 0
4, 8208, Note_on_c, 2, 66, 93
4, 8226, Note_off_c, 2, 66, 0
4, 8226, Note_on_c, 2, 69, 93
4, 8238, Note_off_c, 2, 69, 0
4, 8238, Note_on_c, 2, 71, 93
4, 8256, Note_off_c, 2, 71, 0
4, 8256, Note_on_c, 2, 72, 93
4, 8274, Note_off_c, 2, 72, 0
4, 8274, Note_on_c, 2, 71, 93
4, 8286, Note_off_c, 2, 71, 0
4, 8286, Note_on_c, 2, 72, 93
4, 8304, Note_off_c, 2, 72, 0
4, 8304, Note_on_c, 2, 69, 93
4, 8322, Note_off_c, 2, 69, 0
4, 8322, Note_on_c, 2, 66, 93
4, 8334, Note_off_c, 2, 66, 0
4, 8334, Note_on_c, 2, 69, 93
4, 8352, Note_off_c, 2, 69, 0
4, 8352, Note_on_c, 2, 67, 93
4, 8370, Note_off_c, 2, 67, 0
4, 8370, Note_on_c, 2, 66, 93
4, 8382, Note_off_c, 2, 66, 0
4, 8382, Note_on_c, 2, 67, 93
4, 8400, Note_off_c, 2, 67, 0
4, 8400, Note_on_c, 2, 71, 93
4, 8418, Note_off_c, 2, 71, 0
4, 8418, Note_on_c, 2, 69, 93
4, 8430, Note_off_c, 2, 69, 0
4, 8430, Note_on_c, 2, 71, 93
4, 8448, Note_off_c, 2, 71, 0
4, 8448, Note_on_c, 2, 64, 93
4, 8466, Note_off_c, 2, 64, 0
4, 8466, Note_on_c, 2, 63, 93
4, 8478, Note_off_c, 2, 63, 0
4, 8478, Note_on_c, 2, 64, 93
4, 8496, Note_off_c, 2, 64, 0
4, 8496, Note_on_c, 2, 67, 93
4, 8514, Note_off_c, 2, 67, 0
4, 8514, Note_on_c, 2, 71, 93
4, 8526, Note_off_c, 2, 71, 0
4, 8526, Note_on_c, 2, 73, 93
4, 8544, Note_off_c, 2, 73, 0
4, 8544, Note_on_c, 2, 74, 93
4, 8562, Note_off_c, 2, 74, 0
4, 8562, Note_on_c, 2, 73, 93
4, 8574, Note_off_c, 2, 73, 0
4, 8574, Note_on_c, 2, 74, 93
4, 8592, Note_off_c, 2, 74, 0
4, 8592, Note_on_c, 2, 71, 93
4, 8610, Note_off_c, 2, 71, 0
4, 8610, Note_on_c, 2, 67, 93
4, 8622, Note_off_c, 2, 67, 0
4, 8622, Note_on_c, 2, 71, 93
4, 8640, Note_off_c, 2, 71, 0
4, 8640, Note_on_c, 2, 73, 93
4, 8658, Note_off_c, 2, 73, 0
4, 8658, Note_on_c, 2, 71, 93
4, 8670, Note_off_c, 2, 71, 0
4, 8670, Note_on_c, 2, 73, 93
4, 8688, Note_off_c, 2, 73, 0
4, 8688, Note_on_c, 2, 76, 93
4, 8706, Note_off_c, 2, 76, 0
4, 8706, Note_on_c, 2, 74, 93
4, 8718, Note_off_c, 2, 74, 0
4, 8718, Note_on_c, 2, 76, 93
4, 8736, Note_off_c, 2, 76, 0
4, 8736, Note_on_c, 2, 69, 93
4, 8754, Note_off_c, 2, 69, 0
4, 8754, Note_on_c, 2, 68, 93
4, 8766, Note_off_c, 2, 68, 0
4, 8766, Note_on_c, 2, 69, 93
4, 8784, Note_off_c, 2, 69, 0
4, 8784, Note_on_c, 2, 73, 93
4, 8802, Note_off_c, 2, 73, 0
4, 8802, Note_on_c, 2, 76, 93
4, 8814, Note_off_c, 2, 76, 0
4, 8814, Note_on_c, 2, 78, 93
4, 8832, Note_off_c, 2, 78, 0
4, 8832, Note_on_c, 2, 79, 93
4, 8850, Note_off_c, 2, 79, 0
4, 8850, Note_on_c, 2, 78, 93
4, 8862, Note_off_c, 2, 78, 0
4, 8862, Note_on_c, 2, 79, 93
4, 8880, Note_off_c, 2, 79, 0
4, 8880, Note_on_c, 2, 76, 93
4, 8898, Note_off_c, 2, 76, 0
4, 8898, Note_on_c, 2, 73, 93
4, 8910, Note_off_c, 2, 73, 0
4, 8910, Note_on_c, 2, 76, 93
4, 8928, Note_off_c, 2, 76, 0
4, 8928, Note_on_c, 2, 78, 93
4, 8946, Note_off_c, 2, 78, 0
4, 8946, Note_on_c, 2, 76, 93
4, 8958, Note_off_c, 2, 76, 0
4, 8958, Note_on_c, 2, 78, 93
4, 8976, Note_off_c, 2, 78, 0
4, 8976, Note_on_c, 2, 81, 93
4, 8994, Note_off_c, 2, 81, 0
4, 8994, Note_on_c, 2, 79, 93
4, 9006, Note_off_c, 2, 79, 0
4, 9006, Note_on_c, 2, 81, 93
4, 9024, Note_off_c, 2, 81, 0
4, 9024, Note_on_c, 2, 74, 93
4, 9042, Note_off_c, 2, 74, 0
4, 9042, Note_on_c, 2, 73, 93
4, 9054, Note_off_c, 2, 73, 0
4, 9054, Note_on_c, 2, 74, 93
4, 9072, Note_off_c, 2, 74, 0
4, 9072, Note_on_c, 2, 78, 93
4, 9090, Note_off_c, 2, 78, 0
4, 9090, Note_on_c, 2, 81, 93
4, 9102, Note_off_c, 2, 81, 0
4, 9102, Note_on_c, 2, 85, 93
4, 9120, Note_off_c, 2, 85, 0
4, 9120, Note_on_c, 2, 86, 93
4, 9132, Note_off_c, 2, 86, 0
4, 9132, Note_on_c, 2, 85, 93
4, 9144, Note_off_c, 2, 85, 0
4, 9144, Note_on_c, 2, 86, 93
4, 9216, Note_off_c, 2, 86, 0
4, 9216, Note_on_c, 2, 62, 93
4, 9312, Note_off_c, 2, 62, 0
4, 9312, Note_on_c, 2, 60, 93
4, 9408, Note_off_c, 2, 60, 0
4, 9456, Note_on_c, 2, 60, 93
4, 9504, Note_off_c, 2, 60, 0
4, 9504, Note_on_c, 2, 59, 93
4, 9576, Note_off_c, 2, 59, 0
4, 9576, Note_on_c, 2, 62, 93
4, 9600, Note_off_c, 2, 62, 0
4, 9600, Note_on_c, 2, 67, 93
4, 9696, Note_off_c, 2, 67, 0
4, 9744, Note_on_c, 2, 74, 93
4, 9792, Note_off_c, 2, 74, 0
4, 9792, Note_on_c, 2, 73, 93
4, 9888, Note_off_c, 2, 73, 0
4, 9888, Note_on_c, 2, 75, 93
4, 9984, Note_off_c, 2, 75, 0
4, 10032, Note_on_c, 2, 76, 93
4, 10080, Note_off_c, 2, 76, 0
4, 10080, Note_on_c, 2, 75, 93
4, 10176, Note_off_c, 2, 75, 0
4, 10176, Note_on_c, 2, 66, 93
4, 10272, Note_off_c, 2, 66, 0
4, 10320, Note_on_c, 2, 75, 93
4, 10368, Note_off_c, 2, 75, 0
4, 10368, Note_on_c, 2, 76, 93
4, 10464, Note_off_c, 2, 76, 0
4, 10464, Note_on_c, 2, 71, 93
4, 10560, Note_off_c, 2, 71, 0
4, 10608, Note_on_c, 2, 71, 93
4, 10656, Note_off_c, 2, 71, 0
4, 10656, Note_on_c, 2, 69, 93
4, 10728, Note_off_c, 2, 69, 0
4, 10728, Note_on_c, 2, 71, 93
4, 10752, Note_off_c, 2, 71, 0
4, 10752, Note_on_c, 2, 71, 93
4, 10764, Note_off_c, 2, 71, 0
4, 10764, Note_on_c, 2, 72, 93
4, 10848, Note_off_c, 2, 72, 0
4, 10896, Note_on_c, 2, 72, 93
4, 10944, Note_off_c, 2, 72, 0
4, 10944, Note_on_c, 2, 71, 93
4, 11040, Note_off_c, 2, 71, 0
4, 11040, Note_on_c, 2, 69, 93
4, 11136, Note_off_c, 2, 69, 0
4, 11184, Note_on_c, 2, 69, 93
4, 11232, Note_off_c, 2, 69, 0
4, 11232, Note_on_c, 2, 69, 93
4, 11304, Note_off_c, 2, 69, 0
4, 11304, Note_on_c, 2, 66, 93
4, 11328, Note_off_c, 2, 66, 0
4, 11328, Note_on_c, 2, 67, 93
4, 11340, Note_off_c, 2, 67, 0
4, 11340, Note_on_c, 2, 66, 93
4, 11352, Note_off_c, 2, 66, 0
4, 11352, Note_on_c, 2, 67, 93
4, 11424, Note_off_c, 2, 67, 0
4, 11442, Note_on_c, 2, 52, 93
4, 11454, Note_off_c, 2, 52, 0
4, 11454, Note_on_c, 2, 54, 93
4, 11472, Note_off_c, 2, 54, 0
4, 11472, Note_on_c, 2, 55, 93
4, 11490, Note_off_c, 2, 55, 0
4, 11490, Note_on_c, 2, 57, 93
4, 11502, Note_off_c, 2, 57, 0
4, 11502, Note_on_c, 2, 59, 93
4, 11520, Note_off_c, 2, 59, 0
4, 11520, Note_on_c, 2, 60, 93
4, 11538, Note_off_c, 2, 60, 0
4, 11538, Note_on_c, 2, 59, 93
4, 11550, Note_off_c, 2, 59, 0
4, 11550, Note_on_c, 2, 60, 93
4, 11568, Note_off_c, 2, 60, 0
4, 11568, Note_on_c, 2, 65, 93
4, 11586, Note_off_c, 2, 65, 0
4, 11586, Note_on_c, 2, 64, 93
4, 11598, Note_off_c, 2, 64, 0
4, 11598, Note_on_c, 2, 62, 93
4, 11616, Note_off_c, 2, 62, 0
4, 11616, Note_on_c, 2, 60, 93
4, 11634, Note_off_c, 2, 60, 0
4, 11634, Note_on_c, 2, 62, 93
4, 11646, Note_off_c, 2, 62, 0
4, 11646, Note_on_c, 2, 60, 93
4, 11664, Note_off_c, 2, 60, 0
4, 11664, Note_on_c, 2, 59, 93
4, 11682, Note_off_c, 2, 59, 0
4, 11682, Note_on_c, 2, 60, 93
4, 11694, Note_off_c, 2, 60, 0
4, 11694, Note_on_c, 2, 59, 93
4, 11712, Note_off_c, 2, 59, 0
4, 11712, Note_on_c, 2, 57, 93
4, 11730, Note_off_c, 2, 57, 0
4, 11730, Note_on_c, 2, 59, 93
4, 11742, Note_off_c, 2, 59, 0
4, 11742, Note_on_c, 2, 57, 93
4, 11760, Note_off_c, 2, 57, 0
4, 11760, Note_on_c, 2, 55, 93
4, 11778, Note_off_c, 2, 55, 0
4, 11778, Note_on_c, 2, 57, 93
4, 11790, Note_off_c, 2, 57, 0
4, 11790, Note_on_c, 2, 54, 93
4, 11808, Note_off_c, 2, 54, 0
4, 11808, Note_on_c, 2, 59, 93
4, 11826, Note_off_c, 2, 59, 0
4, 11826, Note_on_c, 2, 57, 93
4, 11838, Note_off_c, 2, 57, 0
4, 11838, Note_on_c, 2, 59, 93
4, 11856, Note_off_c, 2, 59, 0
4, 11856, Note_on_c, 2, 64, 93
4, 11874, Note_off_c, 2, 64, 0
4, 11874, Note_on_c, 2, 62, 93
4, 11886, Note_off_c, 2, 62, 0
4, 11886, Note_on_c, 2, 60, 93
4, 11904, Note_off_c, 2, 60, 0
4, 11904, Note_on_c, 2, 59, 93
4, 11922, Note_off_c, 2, 59, 0
4, 11922, Note_on_c, 2, 60, 93
4, 11934, Note_off_c, 2, 60, 0
4, 11934, Note_on_c, 2, 59, 93
4, 11952, Note_off_c, 2, 59, 0
4, 11952, Note_on_c, 2, 57, 93
4, 11970, Note_off_c, 2, 57, 0
4, 11970, Note_on_c, 2, 59, 93
4, 11982, Note_off_c, 2, 59, 0
4, 11982, Note_on_c, 2, 57, 93
4, 12000, Note_off_c, 2, 57, 0
4, 12000, Note_on_c, 2, 55, 93
4, 12018, Note_off_c, 2, 55, 0
4, 12018, Note_on_c, 2, 57, 93
4, 12030, Note_off_c, 2, 57, 0
4, 12030, Note_on_c, 2, 55, 93
4, 12048, Note_off_c, 2, 55, 0
4, 12048, Note_on_c, 2, 54, 93
4, 12066, Note_off_c, 2, 54, 0
4, 12066, Note_on_c, 2, 55, 93
4, 12078, Note_off_c, 2, 55, 0
4, 12078, Note_on_c, 2, 52, 93
4, 12096, Note_off_c, 2, 52, 0
4, 12096, Note_on_c, 2, 57, 93
4, 12114, Note_off_c, 2, 57, 0
4, 12114, Note_on_c, 2, 55, 93
4, 12126, Note_off_c, 2, 55, 0
4, 12126, Note_on_c, 2, 57, 93
4, 12144, Note_off_c, 2, 57, 0
4, 12144, Note_on_c, 2, 62, 93
4, 12162, Note_off_c, 2, 62, 0
4, 12162, Note_on_c, 2, 60, 93
4, 12174, Note_off_c, 2, 60, 0
4, 12174, Note_on_c, 2, 59, 93
4, 12192, Note_off_c, 2, 59, 0
4, 12192, Note_on_c, 2, 57, 93
4, 12210, Note_off_c, 2, 57, 0
4, 12210, Note_on_c, 2, 59, 93
4, 12222, Note_off_c, 2, 59, 0
4, 12222, Note_on_c, 2, 57, 93
4, 12240, Note_off_c, 2, 57, 0
4, 12240, Note_on_c, 2, 55, 93
4, 12258, Note_off_c, 2, 55, 0
4, 12258, Note_on_c, 2, 57, 93
4, 12270, Note_off_c, 2, 57, 0
4, 12270, Note_on_c, 2, 55, 93
4, 12288, Note_off_c, 2, 55, 0
4, 12288, Note_on_c, 2, 54, 93
4, 12306, Note_off_c, 2, 54, 0
4, 12306, Note_on_c, 2, 55, 93
4, 12318, Note_off_c, 2, 55, 0
4, 12318, Note_on_c, 2, 54, 93
4, 12336, Note_off_c, 2, 54, 0
4, 12336, Note_on_c, 2, 52, 93
4, 12354, Note_off_c, 2, 52, 0
4, 12354, Note_on_c, 2, 54, 93
4, 12366, Note_off_c, 2, 54, 0
4, 12366, Note_on_c, 2, 52, 93
4, 12384, Note_off_c, 2, 52, 0
4, 12384, Note_on_c, 2, 50, 93
4, 12402, Note_off_c, 2, 50, 0
4, 12402, Note_on_c, 2, 49, 93
4, 12414, Note_off_c, 2, 49, 0
4, 12414, Note_on_c, 2, 50, 93
4, 12432, Note_off_c, 2, 50, 0
4, 12432, Note_on_c, 2, 55, 93
4, 12450, Note_off_c, 2, 55, 0
4, 12450, Note_on_c, 2, 54, 93
4, 12462, Note_off_c, 2, 54, 0
4, 12462, Note_on_c, 2, 52, 93
4, 12480, Note_off_c, 2, 52, 0
4, 12480, Note_on_c, 2, 50, 93
4, 12498, Note_off_c, 2, 50, 0
4, 12498, Note_on_c, 2, 52, 93
4, 12510, Note_off_c, 2, 52, 0
4, 12510, Note_on_c, 2, 50, 93
4, 12528, Note_off_c, 2, 50, 0
4, 12528, Note_on_c, 2, 48, 93
4, 12546, Note_off_c, 2, 48, 0
4, 12546, Note_on_c, 2, 50, 93
4, 12558, Note_off_c, 2, 50, 0
4, 12558, Note_on_c, 2, 48, 93
4, 12576, Note_off_c, 2, 48, 0
4, 12576, Note_on_c, 2, 47, 93
4, 12594, Note_off_c, 2, 47, 0
4, 12594, Note_on_c, 2, 48, 93
4, 12606, Note_off_c, 2, 48, 0
4, 12606, Note_on_c, 2, 47, 93
4, 12624, Note_off_c, 2, 47, 0
4, 12624, Note_on_c, 2, 45, 93
4, 12642, Note_off_c, 2, 45, 0
4, 12642, Note_on_c, 2, 47, 93
4, 12654, Note_off_c, 2, 47, 0
4, 12654, Note_on_c, 2, 45, 93
4, 12672, Note_off_c, 2, 45, 0
4, 12672, Note_on_c, 2, 43, 93
4, 12690, Note_off_c, 2, 43, 0
4, 12690, Note_on_c, 2, 42, 93
4, 12702, Note_off_c, 2, 42, 0
4, 12702, Note_on_c, 2, 43, 93
4, 12720, Note_off_c, 2, 43, 0
4, 12720, Note_on_c, 2, 48, 93
4, 12738, Note_off_c, 2, 48, 0
4, 12738, Note_on_c, 2, 47, 93
4, 12750, Note_off_c, 2, 47, 0
4, 12750, Note_on_c, 2, 45, 93
4, 12768, Note_off_c, 2, 45, 0
4, 12768, Note_on_c, 2, 43, 93
4, 12786, Note_off_c, 2, 43, 0
4, 12786, Note_on_c, 2, 45, 93
4, 12798, Note_off_c, 2, 45, 0
4, 12798, Note_on_c, 2, 43, 93
4, 12816, Note_off_c, 2, 43, 0
4, 12816, Note_on_c, 2, 41, 93
4, 12834, Note_off_c, 2, 41, 0
4, 12834, Note_on_c, 2, 43, 93
4, 12846, Note_off_c, 2, 43, 0
4, 12846, Note_on_c, 2, 41, 93
4, 12864, Note_off_c, 2, 41, 0
4, 12864, Note_on_c, 2, 40, 93
4, 12882, Note_off_c, 2, 40, 0
4, 12882, Note_on_c, 2, 41, 93
4, 12894, Note_off_c, 2, 41, 0
4, 12894, Note_on_c, 2, 40, 93
4, 12912, Note_off_c, 2, 40, 0
4, 12912, Note_on_c, 2, 38, 93
4, 12930, Note_off_c, 2, 38, 0
4, 12930, Note_on_c, 2, 40, 93
4, 12942, Note_off_c, 2, 40, 0
4, 12942, Note_on_c, 2, 38, 93
4, 12960, Note_off_c, 2, 38, 0
4, 12960, Note_on_c, 2, 36, 93
4, 13008, Note_off_c, 2, 36, 0
4, 13008, Note_on_c, 2, 43, 93
4, 13026, Note_off_c, 2, 43, 0
4, 13026, Note_on_c, 2, 45, 93
4, 13038, Note_off_c, 2, 45, 0
4, 13038, Note_on_c, 2, 47, 93
4, 13056, Note_off_c, 2, 47, 0
4, 13056, Note_on_c, 2, 48, 93
4, 13074, Note_off_c, 2, 48, 0
4, 13074, Note_on_c, 2, 47, 93
4, 13086, Note_off_c, 2, 47, 0
4, 13086, Note_on_c, 2, 48, 93
4, 13104, Note_off_c, 2, 48, 0
4, 13104, Note_on_c, 2, 50, 93
4, 13122, Note_off_c, 2, 50, 0
4, 13122, Note_on_c, 2, 48, 93
4, 13134, Note_off_c, 2, 48, 0
4, 13134, Note_on_c, 2, 50, 93
4, 13152, Note_off_c, 2, 50, 0
4, 13152, Note_on_c, 2, 52, 93
4, 13170, Note_off_c, 2, 52, 0
4, 13170, Note_on_c, 2, 50, 93
4, 13182, Note_off_c, 2, 50, 0
4, 13182, Note_on_c, 2, 48, 93
4, 13200, Note_off_c, 2, 48, 0
4, 13200, Note_on_c, 2, 47, 93
4, 13218, Note_off_c, 2, 47, 0
4, 13218, Note_on_c, 2, 45, 93
4, 13230, Note_off_c, 2, 45, 0
4, 13230, Note_on_c, 2, 43, 93
4, 13248, Note_off_c, 2, 43, 0
4, 13248, Note_on_c, 2, 42, 93
4, 13266, Note_off_c, 2, 42, 0
4, 13266, Note_on_c, 2, 40, 93
4, 13278, Note_off_c, 2, 40, 0
4, 13278, Note_on_c, 2, 42, 93
4, 13296, Note_off_c, 2, 42, 0
4, 13296, Note_on_c, 2, 38, 93
4, 13314, Note_off_c, 2, 38, 0
4, 13314, Note_on_c, 2, 40, 93
4, 13326, Note_off_c, 2, 40, 0
4, 13326, Note_on_c, 2, 42, 93
4, 13344, Note_off_c, 2, 42, 0
4, 13344, Note_on_c, 2, 43, 93
4, 13362, Note_off_c, 2, 43, 0
4, 13362, Note_on_c, 2, 42, 93
4, 13374, Note_off_c, 2, 42, 0
4, 13374, Note_on_c, 2, 43, 93
4, 13392, Note_off_c, 2, 43, 0
4, 13392, Note_on_c, 2, 45, 93
4, 13410, Note_off_c, 2, 45, 0
4, 13410, Note_on_c, 2, 47, 93
4, 13422, Note_off_c, 2, 47, 0
4, 13422, Note_on_c, 2, 48, 93
4, 13440, Note_off_c, 2, 48, 0
4, 13440, Note_on_c, 2, 50, 93
4, 13458, Note_off_c, 2, 50, 0
4, 13458, Note_on_c, 2, 49, 93
4, 13470, Note_off_c, 2, 49, 0
4, 13470, Note_on_c, 2, 50, 93
4, 13488, Note_off_c, 2, 50, 0
4, 13488, Note_on_c, 2, 52, 93
4, 13506, Note_off_c, 2, 52, 0
4, 13506, Note_on_c, 2, 54, 93
4, 13518, Note_off_c, 2, 54, 0
4, 13518, Note_on_c, 2, 50, 93
4, 13536, Note_off_c, 2, 50, 0
4, 13536, Note_on_c, 2, 55, 93
4, 13584, Note_off_c, 2, 55, 0
4, 13650, Note_on_c, 2, 57, 93
4, 13662, Note_off_c, 2, 57, 0
4, 13662, Note_on_c, 2, 55, 93
4, 13680, Note_off_c, 2, 55, 0
4, 13680, Note_on_c, 2, 54, 93
4, 13698, Note_off_c, 2, 54, 0
4, 13698, Note_on_c, 2, 55, 93
4, 13710, Note_off_c, 2, 55, 0
4, 13710, Note_on_c, 2, 50, 93
4, 13728, Note_off_c, 2, 50, 0
4, 13728, Note_on_c, 2, 43, 93
4, 13824, Note_off_c, 2, 43, 0
4, 13824, Note_on_c, 2, 62, 93
4, 13920, Note_off_c, 2, 62, 0
4, 13920, Note_on_c, 2, 60, 93
4, 14016, Note_off_c, 2, 60, 0
4, 14064, Note_on_c, 2, 60, 93
4, 14112, Note_off_c, 2, 60, 0
4, 14112, Note_on_c, 2, 59, 93
4, 14184, Note_off_c, 2, 59, 0
4, 14184, Note_on_c, 2, 62, 93
4, 14208, Note_off_c, 2, 62, 0
4, 14208, Note_on_c, 2, 67, 93
4, 14304, Note_off_c, 2, 67, 0
4, 14352, Note_on_c, 2, 74, 93
4, 14400, Note_off_c, 2, 74, 0
4, 14400, Note_on_c, 2, 73, 93
4, 14496, Note_off_c, 2, 73, 0
4, 14496, Note_on_c, 2, 75, 93
4, 14592, Note_off_c, 2, 75, 0
4, 14640, Note_on_c, 2, 76, 93
4, 14688, Note_off_c, 2, 76, 0
4, 14688, Note_on_c, 2, 75, 93
4, 14784, Note_off_c, 2, 75, 0
4, 14784, Note_on_c, 2, 66, 93
4, 14880, Note_off_c, 2, 66, 0
4, 14928, Note_on_c, 2, 75, 93
4, 14976, Note_off_c, 2, 75, 0
4, 14976, Note_on_c, 2, 76, 93
4, 15072, Note_off_c, 2, 76, 0
4, 15072, Note_on_c, 2, 71, 93
4, 15168, Note_off_c, 2, 71, 0
4, 15216, Note_on_c, 2, 71, 93
4, 15264, Note_off_c, 2, 71, 0
4, 15264, Note_on_c, 2, 69, 93
4, 15336, Note_off_c, 2, 69, 0
4, 15336, Note_on_c, 2, 71, 93
4, 15360, Note_off_c, 2, 71, 0
4, 15360, Note_on_c, 2, 71, 93
4, 15372, Note_off_c, 2, 71, 0
4, 15372, Note_on_c, 2, 72, 93
4, 15456, Note_off_c, 2, 72, 0
4, 15504, Note_on_c, 2, 72, 93
4, 15552, Note_off_c, 2, 72, 0
4, 15552, Note_on_c, 2, 71, 93
4, 15648, Note_off_c, 2, 71, 0
4, 15648, Note_on_c, 2, 69, 93
4, 15744, Note_off_c, 2, 69, 0
4, 15792, Note_on_c, 2, 69, 93
4, 15840, Note_off_c, 2, 69, 0
4, 15840, Note_on_c, 2, 69, 93
4, 15912, Note_off_c, 2, 69, 0
4, 15912, Note_on_c, 2, 66, 93
4, 15936, Note_off_c, 2, 66, 0
4, 15936, Note_on_c, 2, 67, 93
4, 15948, Note_off_c, 2, 67, 0
4, 15948, Note_on_c, 2, 66, 93
4, 15960, Note_off_c, 2, 66, 0
4, 15960, Note_on_c, 2, 67, 93
4, 16032, Note_off_c, 2, 67, 0
4, 16050, Note_on_c, 2, 52, 93
4, 16062, Note_off_c, 2, 52, 0
4, 16062, Note_on_c, 2, 54, 93
4, 16080, Note_off_c, 2, 54, 0
4, 16080, Note_on_c, 2, 55, 93
4, 16098, Note_off_c, 2, 55, 0
4, 16098, Note_on_c, 2, 57, 93
4, 16110, Note_off_c, 2, 57, 0
4, 16110, Note_on_c, 2, 59, 93
4, 16128, Note_off_c, 2, 59, 0
4, 16128, Note_on_c, 2, 60, 93
4, 16146, Note_off_c, 2, 60, 0
4, 16146, Note_on_c, 2, 59, 93
4, 16158, Note_off_c, 2, 59, 0
4, 16158, Note_on_c, 2, 60, 93
4, 16176, Note_off_c, 2, 60, 0
4, 16176, Note_on_c, 2, 65, 93
4, 16194, Note_off_c, 2, 65, 0
4, 16194, Note_on_c, 2, 64, 93
4, 16206, Note_off_c, 2, 64, 0
4, 16206, Note_on_c, 2, 62, 93
4, 16224, Note_off_c, 2, 62, 0
4, 16224, Note_on_c, 2, 60, 93
4, 16242, Note_off_c, 2, 60, 0
4, 16242, Note_on_c, 2, 62, 93
4, 16254, Note_off_c, 2, 62, 0
4, 16254, Note_on_c, 2, 60, 93
4, 16272, Note_off_c, 2, 60, 0
4, 16272, Note_on_c, 2, 59, 93
4, 16290, Note_off_c, 2, 59, 0
4, 16290, Note_on_c, 2, 60, 93
4, 16302, Note_off_c, 2, 60, 0
4, 16302, Note_on_c, 2, 59, 93
4, 16320, Note_off_c, 2, 59, 0
4, 16320, Note_on_c, 2, 57, 93
4, 16338, Note_off_c, 2, 57, 0
4, 16338, Note_on_c, 2, 59, 93
4, 16350, Note_off_c, 2, 59, 0
4, 16350, Note_on_c, 2, 57, 93
4, 16368, Note_off_c, 2, 57, 0
4, 16368, Note_on_c, 2, 55, 93
4, 16386, Note_off_c, 2, 55, 0
4, 16386, Note_on_c, 2, 57, 93
4, 16398, Note_off_c, 2, 57, 0
4, 16398, Note_on_c, 2, 54, 93
4, 16416, Note_off_c, 2, 54, 0
4, 16416, Note_on_c, 2, 59, 93
4, 16434, Note_off_c, 2, 59, 0
4, 16434, Note_on_c, 2, 57, 93
4, 16446, Note_off_c, 2, 57, 0
4, 16446, Note_on_c, 2, 59, 93
4, 16464, Note_off_c, 2, 59, 0
4, 16464, Note_on_c, 2, 64, 93
4, 16482, Note_off_c, 2, 64, 0
4, 16482, Note_on_c, 2, 62, 93
4, 16494, Note_off_c, 2, 62, 0
4, 16494, Note_on_c, 2, 60, 93
4, 16512, Note_off_c, 2, 60, 0
4, 16512, Note_on_c, 2, 59, 93
4, 16530, Note_off_c, 2, 59, 0
4, 16530, Note_on_c, 2, 60, 93
4, 16542, Note_off_c, 2, 60, 0
4, 16542, Note_on_c, 2, 59, 93
4, 16560, Note_off_c, 2, 59, 0
4, 16560, Note_on_c, 2, 57, 93
4, 16578, Note_off_c, 2, 57, 0
4, 16578, Note_on_c, 2, 59, 93
4, 16590, Note_off_c, 2, 59, 0
4, 16590, Note_on_c, 2, 57, 93
4, 16608, Note_off_c, 2, 57, 0
4, 16608, Note_on_c, 2, 55, 93
4, 16626, Note_off_c, 2, 55, 0
4, 16626, Note_on_c, 2, 57, 93
4, 16638, Note_off_c, 2, 57, 0
4, 16638, Note_on_c, 2, 55, 93
4, 16656, Note_off_c, 2, 55, 0
4, 16656, Note_on_c, 2, 54, 93
4, 16674, Note_off_c, 2, 54, 0
4, 16674, Note_on_c, 2, 55, 93
4, 16686, Note_off_c, 2, 55, 0
4, 16686, Note_on_c, 2, 52, 93
4, 16704, Note_off_c, 2, 52, 0
4, 16704, Note_on_c, 2, 57, 93
4, 16722, Note_off_c, 2, 57, 0
4, 16722, Note_on_c, 2, 55, 93
4, 16734, Note_off_c, 2, 55, 0
4, 16734, Note_on_c, 2, 57, 93
4, 16752, Note_off_c, 2, 57, 0
4, 16752, Note_on_c, 2, 62, 93
4, 16770, Note_off_c, 2, 62, 0
4, 16770, Note_on_c, 2, 60, 93
4, 16782, Note_off_c, 2, 60, 0
4, 16782, Note_on_c, 2, 59, 93
4, 16800, Note_off_c, 2, 59, 0
4, 16800, Note_on_c, 2, 57, 93
4, 16818, Note_off_c, 2, 57, 0
4, 16818, Note_on_c, 2, 59, 93
4, 16830, Note_off_c, 2, 59, 0
4, 16830, Note_on_c, 2, 57, 93
4, 16848, Note_off_c, 2, 57, 0
4, 16848, Note_on_c, 2, 55, 93
4, 16866, Note_off_c, 2, 55, 0
4, 16866, Note_on_c, 2, 57, 93
4, 16878, Note_off_c, 2, 57, 0
4, 16878, Note_on_c, 2, 55, 93
4, 16896, Note_off_c, 2, 55, 0
4, 16896, Note_on_c, 2, 54, 93
4, 16914, Note_off_c, 2, 54, 0
4, 16914, Note_on_c, 2, 55, 93
4, 16926, Note_off_c, 2, 55, 0
4, 16926, Note_on_c, 2, 54, 93
4, 16944, Note_off_c, 2, 54, 0
4, 16944, Note_on_c, 2, 52, 93
4, 16962, Note_off_c, 2, 52, 0
4, 16962, Note_on_c, 2, 54, 93
4, 16974, Note_off_c, 2, 54, 0
4, 16974, Note_on_c, 2, 52, 93
4, 16992, Note_off_c, 2, 52, 0
4, 16992, Note_on_c, 2, 50, 93
4, 17010, Note_off_c, 2, 50, 0
4, 17010, Note_on_c, 2, 49, 93
4, 17022, Note_off_c, 2, 49, 0
4, 17022, Note_on_c, 2, 50, 93
4, 17040, Note_off_c, 2, 50, 0
4, 17040, Note_on_c, 2, 55, 93
4, 17058, Note_off_c, 2, 55, 0
4, 17058, Note_on_c, 2, 54, 93
4, 17070, Note_off_c, 2, 54, 0
4, 17070, Note_on_c, 2, 52, 93
4, 17088, Note_off_c, 2, 52, 0
4, 17088, Note_on_c, 2, 50, 93
4, 17106, Note_off_c, 2, 50, 0
4, 17106, Note_on_c, 2, 52, 93
4, 17118, Note_off_c, 2, 52, 0
4, 17118, Note_on_c, 2, 50, 93
4, 17136, Note_off_c, 2, 50, 0
4, 17136, Note_on_c, 2, 48, 93
4, 17154, Note_off_c, 2, 48, 0
4, 17154, Note_on_c, 2, 50, 93
4, 17166, Note_off_c, 2, 50, 0
4, 17166, Note_on_c, 2, 48, 93
4, 17184, Note_off_c, 2, 48, 0
4, 17184, Note_on_c, 2, 47, 93
4, 17202, Note_off_c, 2, 47, 0
4, 17202, Note_on_c, 2, 48, 93
4, 17214, Note_off_c, 2, 48, 0
4, 17214, Note_on_c, 2, 47, 93
4, 17232, Note_off_c, 2, 47, 0
4, 17232, Note_on_c, 2, 45, 93
4, 17250, Note_off_c, 2, 45, 0
4, 17250, Note_on_c, 2, 47, 93
4, 17262, Note_off_c, 2, 47, 0
4, 17262, Note_on_c, 2, 45, 93
4, 17280, Note_off_c, 2, 45, 0
4, 17280, Note_on_c, 2, 43, 93
4, 17298, Note_off_c, 2, 43, 0
4, 17298, Note_on_c, 2, 42, 93
4, 17310, Note_off_c, 2, 42, 0
4, 17310, Note_on_c, 2, 43, 93
4, 17328, Note_off_c, 2, 43, 0
4, 17328, Note_on_c, 2, 48, 93
4, 17346, Note_off_c, 2, 48, 0
4, 17346, Note_on_c, 2, 47, 93
4, 17358, Note_off_c, 2, 47, 0
4, 17358, Note_on_c, 2, 45, 93
4, 17376, Note_off_c, 2, 45, 0
4, 17376, Note_on_c, 2, 43, 93
4, 17394, Note_off_c, 2, 43, 0
4, 17394, Note_on_c, 2, 45, 93
4, 17406, Note_off_c, 2, 45, 0
4, 17406, Note_on_c, 2, 43, 93
4, 17424, Note_off_c, 2, 43, 0
4, 17424, Note_on_c, 2, 41, 93
4, 17442, Note_off_c, 2, 41, 0
4, 17442, Note_on_c, 2, 43, 93
4, 17454, Note_off_c, 2, 43, 0
4, 17454, Note_on_c, 2, 41, 93
4, 17472, Note_off_c, 2, 41, 0
4, 17472, Note_on_c, 2, 40, 93
4, 17490, Note_off_c, 2, 40, 0
4, 17490, Note_on_c, 2, 41, 93
4, 17502, Note_off_c, 2, 41, 0
4, 17502, Note_on_c, 2, 40, 93
4, 17520, Note_off_c, 2, 40, 0
4, 17520, Note_on_c, 2, 38, 93
4, 17538, Note_off_c, 2, 38, 0
4, 17538, Note_on_c, 2, 40, 93
4, 17550, Note_off_c, 2, 40, 0
4, 17550, Note_on_c, 2, 38, 93
4, 17568, Note_off_c, 2, 38, 0
4, 17568, Note_on_c, 2, 36, 93
4, 17616, Note_off_c, 2, 36, 0
4, 17616, Note_on_c, 2, 43, 93
4, 17634, Note_off_c, 2, 43, 0
4, 17634, Note_on_c, 2, 45, 93
4, 17646, Note_off_c, 2, 45, 0
4, 17646, Note_on_c, 2, 47, 93
4, 17664, Note_off_c, 2, 47, 0
4, 17664, Note_on_c, 2, 48, 93
4, 17682, Note_off_c, 2, 48, 0
4, 17682, Note_on_c, 2, 47, 93
4, 17694, Note_off_c, 2, 47, 0
4, 17694, Note_on_c, 2, 48, 93
4, 17712, Note_off_c, 2, 48, 0
4, 17712, Note_on_c, 2, 50, 93
4, 17730, Note_off_c, 2, 50, 0
4, 17730, Note_on_c, 2, 48, 93
4, 17742, Note_off_c, 2, 48, 0
4, 17742, Note_on_c, 2, 50, 93
4, 17760, Note_off_c, 2, 50, 0
4, 17760, Note_on_c, 2, 52, 93
4, 17778, Note_off_c, 2, 52, 0
4, 17778, Note_on_c, 2, 50, 93
4, 17790, Note_off_c, 2, 50, 0
4, 17790, Note_on_c, 2, 48, 93
4, 17808, Note_off_c, 2, 48, 0
4, 17808, Note_on_c, 2, 47, 93
4, 17826, Note_off_c, 2, 47, 0
4, 17826, Note_on_c, 2, 45, 93
4, 17838, Note_off_c, 2, 45, 0
4, 17838, Note_on_c, 2, 43, 93
4, 17856, Note_off_c, 2, 43, 0
4, 17856, Note_on_c, 2, 42, 93
4, 17874, Note_off_c, 2, 42, 0
4, 17874, Note_on_c, 2, 40, 93
4, 17886, Note_off_c, 2, 40, 0
4, 17886, Note_on_c, 2, 42, 93
4, 17904, Note_off_c, 2, 42, 0
4, 17904, Note_on_c, 2, 38, 93
4, 17922, Note_off_c, 2, 38, 0
4, 17922, Note_on_c, 2, 40, 93
4, 17934, Note_off_c, 2, 40, 0
4, 17934, Note_on_c, 2, 42, 93
4, 17952, Note_off_c, 2, 42, 0
4, 17952, Note_on_c, 2, 43, 93
4, 17970, Note_off_c, 2, 43, 0
4, 17970, Note_on_c, 2, 42, 93
4, 17982, Note_off_c, 2, 42, 0
4, 17982, Note_on_c, 2, 43, 93
4, 18000, Note_off_c, 2, 43, 0
4, 18000, Note_on_c, 2, 45, 93
4, 18018, Note_off_c, 2, 45, 0
4, 18018, Note_on_c, 2, 47, 93
4, 18030, Note_off_c, 2, 47, 0
4, 18030, Note_on_c, 2, 48, 93
4, 18048, Note_off_c, 2, 48, 0
4, 18048, Note_on_c, 2, 50, 93
4, 18066, Note_off_c, 2, 50, 0
4, 18066, Note_on_c, 2, 49, 93
4, 18078, Note_off_c, 2, 49, 0
4, 18078, Note_on_c, 2, 50, 93
4, 18096, Note_off_c, 2, 50, 0
4, 18096, Note_on_c, 2, 52, 93
4, 18114, Note_off_c, 2, 52, 0
4, 18114, Note_on_c, 2, 54, 93
4, 18126, Note_off_c, 2, 54, 0
4, 18126, Note_on_c, 2, 50, 93
4, 18144, Note_off_c, 2, 50, 0
4, 18144, Note_on_c, 2, 55, 93
4, 18192, Note_off_c, 2, 55, 0
4, 18258, Note_on_c, 2, 57, 93
4, 18270, Note_off_c, 2, 57, 0
4, 18270, Note_on_c, 2, 55, 93
4, 18288, Note_off_c, 2, 55, 0
4, 18288, Note_on_c, 2, 54, 93
4, 18306, Note_off_c, 2, 54, 0
4, 18306, Note_on_c, 2, 55, 93
4, 18318, Note_off_c, 2, 55, 0
4, 18318, Note_on_c, 2, 50, 93
4, 18336, Note_off_c, 2, 50, 0
4, 18336, Note_on_c, 2, 43, 93
4, 18432, Note_off_c, 2, 43, 0
4, 18432, End_track
0, 0, End_of_file
