0, 0, Header, 1, 5, 96
1, 0, Start_track
1, 0, Time_signature, 4, 2, 24, 8
1, 0, Title_t, "untitled"
1, 0, Title_t, "Track1"
1, 0, Tempo, 600000
1, 0, End_track
2, 0, Start_track
2, 0, Title_t, "Track2"
2, 0, Program_c, 0, 6
2, 0, Control_c, 0, 7, 100
2, 0, Control_c, 0, 10, 79
2, 2328, Note_on_c, 0, 83, 93
2, 2352, Note_off_c, 0, 83, 0
2, 2352, Note_on_c, 0, 83, 93
2, 2376, Note_off_c, 0, 83, 0
2, 2616, Note_on_c, 0, 81, 93
2, 2640, Note_off_c, 0, 81, 0
2, 2640, Note_on_c, 0, 81, 93
2, 2664, Note_off_c, 0, 81, 0
2, 2904, Note_on_c, 0, 79, 93
2, 2928, Note_off_c, 0, 79, 0
2, 2928, Note_on_c, 0, 79, 93
2, 2952, Note_off_c, 0, 79, 0
2, 3192, Note_on_c, 0, 79, 93
2, 3216, Note_off_c, 0, 79, 0
2, 3216, Note_on_c, 0, 79, 93
2, 3240, Note_off_c, 0, 79, 0
2, 6936, Note_on_c, 0, 83, 93
2, 6960, Note_off_c, 0, 83, 0
2, 6960, Note_on_c, 0, 83, 93
2, 6984, Note_off_c, 0, 83, 0
2, 7224, Note_on_c, 0, 81, 93
2, 7248, Note_off_c, 0, 81, 0
2, 7248, Note_on_c, 0, 81, 93
2, 7272, Note_off_c, 0, 81, 0
2, 7512, Note_on_c, 0, 79, 93
2, 7536, Note_off_c, 0, 79, 0
2, 7536, Note_on_c, 0, 79, 93
2, 7560, Note_off_c, 0, 79, 0
2, 7800, Note_on_c, 0, 79, 93
2, 7824, Note_off_c, 0, 79, 0
2, 7824, Note_on_c, 0, 79, 93
2, 7848, Note_off_c, 0, 79, 0
2, 11544, Note_on_c, 0, 64, 93
2, 11568, Note_off_c, 0, 64, 0
2, 11568, Note_on_c, 0, 65, 93
2, 11592, Note_off_c, 0, 65, 0
2, 11592, Note_on_c, 0, 67, 93
2, 11616, Note_off_c, 0, 67, 0
2, 11616, Note_on_c, 0, 69, 93
2, 11640, Note_off_c, 0, 69, 0
2, 11640, Note_on_c, 0, 71, 93
2, 11664, Note_off_c, 0, 71, 0
2, 11664, Note_on_c, 0, 72, 93
2, 11688, Note_off_c, 0, 72, 0
2, 11688, Note_on_c, 0, 74, 93
2, 11712, Note_off_c, 0, 74, 0
2, 11712, Note_on_c, 0, 76, 93
2, 11760, Note_off_c, 0, 76, 0
2, 11832, Note_on_c, 0, 74, 93
2, 11856, Note_off_c, 0, 74, 0
2, 11856, Note_on_c, 0, 72, 93
2, 11880, Note_off_c, 0, 72, 0
2, 11880, Note_on_c, 0, 71, 93
2, 11904, Note_off_c, 0, 71, 0
2, 11904, Note_on_c, 0, 69, 93
2, 11928, Note_off_c, 0, 69, 0
2, 11928, Note_on_c, 0, 67, 93
2, 11952, Note_off_c, 0, 67, 0
2, 11952, Note_on_c, 0, 66, 93
2, 11976, Note_off_c, 0, 66, 0
2, 11976, Note_on_c, 0, 64, 93
2, 12000, Note_off_c, 0, 64, 0
2, 12000, Note_on_c, 0, 62, 93
2, 12048, Note_off_c, 0, 62, 0
2, 12120, Note_on_c, 0, 62, 93
2, 12144, Note_off_c, 0, 62, 0
2, 12168, Note_on_c, 0, 59, 93
2, 12192, Note_off_c, 0, 59, 0
2, 12216, Note_on_c, 0, 62, 93
2, 12240, Note_off_c, 0, 62, 0
2, 12264, Note_on_c, 0, 59, 93
2, 12288, Note_off_c, 0, 59, 0
2, 12312, Note_on_c, 0, 59, 93
2, 12336, Note_off_c, 0, 59, 0
2, 12360, Note_on_c, 0, 55, 93
2, 12384, Note_off_c, 0, 55, 0
2, 12408, Note_on_c, 0, 55, 93
2, 12432, Note_off_c, 0, 55, 0
2, 12456, Note_on_c, 0, 52, 93
2, 12480, Note_off_c, 0, 52, 0
2, 12504, Note_on_c, 0, 55, 93
2, 12528, Note_off_c, 0, 55, 0
2, 12552, Note_on_c, 0, 52, 93
2, 12576, Note_off_c, 0, 52, 0
2, 12600, Note_on_c, 0, 52, 93
2, 12624, Note_off_c, 0, 52, 0
2, 12648, Note_on_c, 0, 48, 93
2, 12672, Note_off_c, 0, 48, 0
2, 12696, Note_on_c, 0, 48, 93
2, 12720, Note_off_c, 0, 48, 0
2, 12744, Note_on_c, 0, 45, 93
2, 12768, Note_off_c, 0, 45, 0
2, 12792, Note_on_c, 0, 48, 93
2, 12816, Note_off_c, 0, 48, 0
2, 12840, Note_on_c, 0, 52, 93
2, 12864, Note_off_c, 0, 52, 0
2, 12888, Note_on_c, 0, 55, 93
2, 12912, Note_off_c, 0, 55, 0
2, 12936, Note_on_c, 0, 59, 93
2, 12960, Note_off_c, 0, 59, 0
2, 12984, Note_on_c, 0, 62, 93
2, 13008, Note_off_c, 0, 62, 0
2, 13032, Note_on_c, 0, 59, 93
2, 13056, Note_off_c, 0, 59, 0
2, 13080, Note_on_c, 0, 62, 93
2, 13104, Note_off_c, 0, 62, 0
2, 13128, Note_on_c, 0, 66, 93
2, 13152, Note_off_c, 0, 66, 0
2, 13176, Note_on_c, 0, 69, 93
2, 13200, Note_off_c, 0, 69, 0
2, 13224, Note_on_c, 0, 72, 93
2, 13248, Note_off_c, 0, 72, 0
2, 13272, Note_on_c, 0, 73, 93
2, 13296, Note_off_c, 0, 73, 0
2, 13296, Note_on_c, 0, 74, 93
2, 13320, Note_off_c, 0, 74, 0
2, 13320, Note_on_c, 0, 76, 93
2, 13344, Note_off_c, 0, 76, 0
2, 13344, Note_on_c, 0, 78, 93
2, 13368, Note_off_c, 0, 78, 0
2, 13368, Note_on_c, 0, 79, 93
2, 13392, Note_off_c, 0, 79, 0
2, 13392, Note_on_c, 0, 81, 93
2, 13416, Note_off_c, 0, 81, 0
2, 13416, Note_on_c, 0, 83, 93
2, 13440, Note_off_c, 0, 83, 0
2, 13440, Note_on_c, 0, 84, 93
2, 13488, Note_off_c, 0, 84, 0
2, 13560, Note_on_c, 0, 83, 93
2, 13584, Note_off_c, 0, 83, 0
2, 13584, Note_on_c, 0, 81, 93
2, 13608, Note_off_c, 0, 81, 0
2, 13608, Note_on_c, 0, 79, 93
2, 13632, Note_off_c, 0, 79, 0
2, 13632, Note_on_c, 0, 78, 93
2, 13656, Note_off_c, 0, 78, 0
2, 13656, Note_on_c, 0, 76, 93
2, 13680, Note_off_c, 0, 76, 0
2, 13680, Note_on_c, 0, 74, 93
2, 13704, Note_off_c, 0, 74, 0
2, 13704, Note_on_c, 0, 72, 93
2, 13728, Note_off_c, 0, 72, 0
2, 13728, Note_on_c, 0, 71, 93
2, 13776, Note_off_c, 0, 71, 0
2, 16152, Note_on_c, 0, 64, 93
2, 16176, Note_off_c, 0, 64, 0
2, 16176, Note_on_c, 0, 65, 93
2, 16200, Note_off_c, 0, 65, 0
2, 16200, Note_on_c, 0, 67, 93
2, 16224, Note_off_c, 0, 67, 0
2, 16224, Note_on_c, 0, 69, 93
2, 16248, Note_off_c, 0, 69, 0
2, 16248, Note_on_c, 0, 71, 93
2, 16272, Note_off_c, 0, 71, 0
2, 16272, Note_on_c, 0, 72, 93
2, 16296, Note_off_c, 0, 72, 0
2, 16296, Note_on_c, 0, 74, 93
2, 16320, Note_off_c, 0, 74, 0
2, 16320, Note_on_c, 0, 76, 93
2, 16368, Note_off_c, 0, 76, 0
2, 16440, Note_on_c, 0, 74, 93
2, 16464, Note_off_c, 0, 74, 0
2, 16464, Note_on_c, 0, 72, 93
2, 16488, Note_off_c, 0, 72, 0
2, 16488, Note_on_c, 0, 71, 93
2, 16512, Note_off_c, 0, 71, 0
2, 16512, Note_on_c, 0, 69, 93
2, 16536, Note_off_c, 0, 69, 0
2, 16536, Note_on_c, 0, 67, 93
2, 16560, Note_off_c, 0, 67, 0
2, 16560, Note_on_c, 0, 66, 93
2, 16584, Note_off_c, 0, 66, 0
2, 16584, Note_on_c, 0, 64, 93
2, 16608, Note_off_c, 0, 64, 0
2, 16608, Note_on_c, 0, 62, 93
2, 16656, Note_off_c, 0, 62, 0
2, 16728, Note_on_c, 0, 62, 93
2, 16752, Note_off_c, 0, 62, 0
2, 16776, Note_on_c, 0, 59, 93
2, 16800, Note_off_c, 0, 59, 0
2, 16824, Note_on_c, 0, 62, 93
2, 16848, Note_off_c, 0, 62, 0
2, 16872, Note_on_c, 0, 59, 93
2, 16896, Note_off_c, 0, 59, 0
2, 16920, Note_on_c, 0, 59, 93
2, 16944, Note_off_c, 0, 59, 0
2, 16968, Note_on_c, 0, 55, 93
2, 16992, Note_off_c, 0, 55, 0
2, 17016, Note_on_c, 0, 55, 93
2, 17040, Note_off_c, 0, 55, 0
2, 17064, Note_on_c, 0, 52, 93
2, 17088, Note_off_c, 0, 52, 0
2, 17112, Note_on_c, 0, 55, 93
2, 17136, Note_off_c, 0, 55, 0
2, 17160, Note_on_c, 0, 52, 93
2, 17184, Note_off_c, 0, 52, 0
2, 17208, Note_on_c, 0, 52, 93
2, 17232, Note_off_c, 0, 52, 0
2, 17256, Note_on_c, 0, 48, 93
2, 17280, Note_off_c, 0, 48, 0
2, 17304, Note_on_c, 0, 48, 93
2, 17328, Note_off_c, 0, 48, 0
2, 17352, Note_on_c, 0, 45, 93
2, 17376, Note_off_c, 0, 45, 0
2, 17400, Note_on_c, 0, 48, 93
2, 17424, Note_off_c, 0, 48, 0
2, 17448, Note_on_c, 0, 52, 93
2, 17472, Note_off_c, 0, 52, 0
2, 17496, Note_on_c, 0, 55, 93
2, 17520, Note_off_c, 0, 55, 0
2, 17544, Note_on_c, 0, 59, 93
2, 17568, Note_off_c, 0, 59, 0
2, 17592, Note_on_c, 0, 62, 93
2, 17616, Note_off_c, 0, 62, 0
2, 17640, Note_on_c, 0, 59, 93
2, 17664, Note_off_c, 0, 59, 0
2, 17688, Note_on_c, 0, 62, 93
2, 17712, Note_off_c, 0, 62, 0
2, 17736, Note_on_c, 0, 66, 93
2, 17760, Note_off_c, 0, 66, 0
2, 17784, Note_on_c, 0, 69, 93
2, 17808, Note_off_c, 0, 69, 0
2, 17832, Note_on_c, 0, 72, 93
2, 17856, Note_off_c, 0, 72, 0
2, 17880, Note_on_c, 0, 73, 93
2, 17904, Note_off_c, 0, 73, 0
2, 17904, Note_on_c, 0, 74, 93
2, 17928, Note_off_c, 0, 74, 0
2, 17928, Note_on_c, 0, 76, 93
2, 17952, Note_off_c, 0, 76, 0
2, 17952, Note_on_c, 0, 78, 93
2, 17976, Note_off_c, 0, 78, 0
2, 17976, Note_on_c, 0, 79, 93
2, 18000, Note_off_c, 0, 79, 0
2, 18000, Note_on_c, 0, 81, 93
2, 18024, Note_off_c, 0, 81, 0
2, 18024, Note_on_c, 0, 83, 93
2, 18048, Note_off_c, 0, 83, 0
2, 18048, Note_on_c, 0, 84, 93
2, 18096, Note_off_c, 0, 84, 0
2, 18168, Note_on_c, 0, 83, 93
2, 18192, Note_off_c, 0, 83, 0
2, 18192, Note_on_c, 0, 81, 93
2, 18216, Note_off_c, 0, 81, 0
2, 18216, Note_on_c, 0, 79, 93
2, 18240, Note_off_c, 0, 79, 0
2, 18240, Note_on_c, 0, 78, 93
2, 18264, Note_off_c, 0, 78, 0
2, 18264, Note_on_c, 0, 76, 93
2, 18288, Note_off_c, 0, 76, 0
2, 18288, Note_on_c, 0, 74, 93
2, 18312, Note_off_c, 0, 74, 0
2, 18312, Note_on_c, 0, 72, 93
2, 18336, Note_off_c, 0, 72, 0
2, 18336, Note_on_c, 0, 71, 93
2, 18384, Note_off_c, 0, 71, 0
2, 18384, End_track
3, 0, Start_track
3, 0, Title_t, "Track3"
3, 0, Program_c, 1, 6
3, 0, Control_c, 1, 7, 100
3, 0, Control_c, 1, 10, 69
3, 48, Note_on_c, 1, 67, 93
3, 96, Note_off_c, 1, 67, 0
3, 96, Note_on_c, 1, 83, 93
3, 120, Note_off_c, 1, 83, 0
3, 120, Note_on_c, 1, 81, 93
3, 144, Note_off_c, 1, 81, 0
3, 144, Note_on_c, 1, 79, 93
3, 168, Note_off_c, 1, 79, 0
3, 168, Note_on_c, 1, 78, 93
3, 192, Note_off_c, 1, 78, 0
3, 192, Note_on_c, 1, 76, 93
3, 216, Note_off_c, 1, 76, 0
3, 216, Note_on_c, 1, 74, 93
3, 240, Note_off_c, 1, 74, 0
3, 240, Note_on_c, 1, 73, 93
3, 264, Note_off_c, 1, 73, 0
3, 264, Note_on_c, 1, 71, 93
3, 288, Note_off_c, 1, 71, 0
3, 288, Note_on_c, 1, 69, 93
3, 312, Note_off_c, 1, 69, 0
3, 312, Note_on_c, 1, 67, 93
3, 336, Note_off_c, 1, 67, 0
3, 336, Note_on_c, 1, 66, 93
3, 384, Note_off_c, 1, 66, 0
3, 384, Note_on_c, 1, 81, 93
3, 408, Note_off_c, 1, 81, 0
3, 408, Note_on_c, 1, 79, 93
3, 432, Note_off_c, 1, 79, 0
3, 432, Note_on_c, 1, 78, 93
3, 456, Note_off_c, 1, 78, 0
3, 456, Note_on_c, 1, 76, 93
3, 480, Note_off_c, 1, 76, 0
3, 480, Note_on_c, 1, 74, 93
3, 504, Note_off_c, 1, 74, 0
3, 504, Note_on_c, 1, 73, 93
3, 528, Note_off_c, 1, 73, 0
3, 528, Note_on_c, 1, 71, 93
3, 552, Note_off_c, 1, 71, 0
3, 552, Note_on_c, 1, 69, 93
3, 576, Note_off_c, 1, 69, 0
3, 576, Note_on_c, 1, 67, 93
3, 600, Note_off_c, 1, 67, 0
3, 600, Note_on_c, 1, 66, 93
3, 624, Note_off_c, 1, 66, 0
3, 624, Note_on_c, 1, 64, 93
3, 672, Note_off_c, 1, 64, 0
3, 672, Note_on_c, 1, 79, 93
3, 696, Note_off_c, 1, 79, 0
3, 696, Note_on_c, 1, 78, 93
3, 720, Note_off_c, 1, 78, 0
3, 720, Note_on_c, 1, 76, 93
3, 744, Note_off_c, 1, 76, 0
3, 744, Note_on_c, 1, 74, 93
3, 768, Note_off_c, 1, 74, 0
3, 768, Note_on_c, 1, 73, 93
3, 792, Note_off_c, 1, 73, 0
3, 792, Note_on_c, 1, 71, 93
3, 816, Note_off_c, 1, 71, 0
3, 816, Note_on_c, 1, 69, 93
3, 840, Note_off_c, 1, 69, 0
3, 840, Note_on_c, 1, 67, 93
3, 864, Note_off_c, 1, 67, 0
3, 864, Note_on_c, 1, 66, 93
3, 888, Note_off_c, 1, 66, 0
3, 888, Note_on_c, 1, 64, 93
3, 912, Note_off_c, 1, 64, 0
3, 912, Note_on_c, 1, 62, 93
3, 960, Note_off_c, 1, 62, 0
3, 1032, Note_on_c, 1, 64, 93
3, 1044, Note_off_c, 1, 64, 0
3, 1044, Note_on_c, 1, 66, 93
3, 1056, Note_off_c, 1, 66, 0
3, 1056, Note_on_c, 1, 67, 93
3, 1068, Note_off_c, 1, 67, 0
3, 1068, Note_on_c, 1, 69, 93
3, 1080, Note_off_c, 1, 69, 0
3, 1080, Note_on_c, 1, 71, 93
3, 1092, Note_off_c, 1, 71, 0
3, 1092, Note_on_c, 1, 73, 93
3, 1104, Note_off_c, 1, 73, 0
3, 1104, Note_on_c, 1, 74, 93
3, 1200, Note_off_c, 1, 74, 0
3, 1200, Note_on_c, 1, 59, 93
3, 1224, Note_off_c, 1, 59, 0
3, 1224, Note_on_c, 1, 60, 93
3, 1248, Note_off_c, 1, 60, 0
3, 1248, Note_on_c, 1, 62, 93
3, 1272, Note_off_c, 1, 62, 0
3, 1272, Note_on_c, 1, 64, 93
3, 1296, Note_off_c, 1, 64, 0
3, 1296, Note_on_c, 1, 66, 93
3, 1320, Note_off_c, 1, 66, 0
3, 1320, Note_on_c, 1, 67, 93
3, 1344, Note_off_c, 1, 67, 0
3, 1344, Note_on_c, 1, 69, 93
3, 1368, Note_off_c, 1, 69, 0
3, 1368, Note_on_c, 1, 71, 93
3, 1392, Note_off_c, 1, 71, 0
3, 1392, Note_on_c, 1, 72, 93
3, 1416, Note_off_c, 1, 72, 0
3, 1416, Note_on_c, 1, 74, 93
3, 1440, Note_off_c, 1, 74, 0
3, 1440, Note_on_c, 1, 76, 93
3, 1488, Note_off_c, 1, 76, 0
3, 1488, Note_on_c, 1, 60, 93
3, 1512, Note_off_c, 1, 60, 0
3, 1512, Note_on_c, 1, 62, 93
3, 1536, Note_off_c, 1, 62, 0
3, 1536, Note_on_c, 1, 64, 93
3, 1560, Note_off_c, 1, 64, 0
3, 1560, Note_on_c, 1, 66, 93
3, 1584, Note_off_c, 1, 66, 0
3, 1584, Note_on_c, 1, 67, 93
3, 1608, Note_off_c, 1, 67, 0
3, 1608, Note_on_c, 1, 69, 93
3, 1632, Note_off_c, 1, 69, 0
3, 1632, Note_on_c, 1, 71, 93
3, 1656, Note_off_c, 1, 71, 0
3, 1656, Note_on_c, 1, 72, 93
3, 1680, Note_off_c, 1, 72, 0
3, 1680, Note_on_c, 1, 74, 93
3, 1704, Note_off_c, 1, 74, 0
3, 1704, Note_on_c, 1, 76, 93
3, 1728, Note_off_c, 1, 76, 0
3, 1728, Note_on_c, 1, 78, 93
3, 1776, Note_off_c, 1, 78, 0
3, 1776, Note_on_c, 1, 62, 93
3, 1800, Note_off_c, 1, 62, 0
3, 1800, Note_on_c, 1, 64, 93
3, 1824, Note_off_c, 1, 64, 0
3, 1824, Note_on_c, 1, 66, 93
3, 1848, Note_off_c, 1, 66, 0
3, 1848, Note_on_c, 1, 67, 93
3, 1872, Note_off_c, 1, 67, 0
3, 1872, Note_on_c, 1, 69, 93
3, 1896, Note_off_c, 1, 69, 0
3, 1896, Note_on_c, 1, 71, 93
3, 1920, Note_off_c, 1, 71, 0
3, 1920, Note_on_c, 1, 72, 93
3, 1944, Note_off_c, 1, 72, 0
3, 1944, Note_on_c, 1, 74, 93
3, 1968, Note_off_c, 1, 74, 0
3, 1968, Note_on_c, 1, 76, 93
3, 1992, Note_off_c, 1, 76, 0
3, 1992, Note_on_c, 1, 78, 93
3, 2016, Note_off_c, 1, 78, 0
3, 2016, Note_on_c, 1, 79, 93
3, 2064, Note_off_c, 1, 79, 0
3, 2136, Note_on_c, 1, 78, 93
3, 2148, Note_off_c, 1, 78, 0
3, 2148, Note_on_c, 1, 76, 93
3, 2160, Note_off_c, 1, 76, 0
3, 2160, Note_on_c, 1, 74, 93
3, 2172, Note_off_c, 1, 74, 0
3, 2172, Note_on_c, 1, 72, 93
3, 2184, Note_off_c, 1, 72, 0
3, 2184, Note_on_c, 1, 71, 93
3, 2196, Note_off_c, 1, 71, 0
3, 2196, Note_on_c, 1, 69, 93
3, 2208, Note_off_c, 1, 69, 0
3, 2208, Note_on_c, 1, 67, 93
3, 2232, Note_off_c, 1, 67, 0
3, 2328, Note_on_c, 1, 74, 93
3, 2352, Note_off_c, 1, 74, 0
3, 2352, Note_on_c, 1, 74, 93
3, 2376, Note_off_c, 1, 74, 0
3, 2412, Note_on_c, 1, 79, 93
3, 2424, Note_off_c, 1, 79, 0
3, 2424, Note_on_c, 1, 78, 93
3, 2436, Note_off_c, 1, 78, 0
3, 2436, Note_on_c, 1, 76, 93
3, 2448, Note_off_c, 1, 76, 0
3, 2448, Note_on_c, 1, 74, 93
3, 2472, Note_off_c, 1, 74, 0
3, 2508, Note_on_c, 1, 72, 93
3, 2520, Note_off_c, 1, 72, 0
3, 2520, Note_on_c, 1, 71, 93
3, 2532, Note_off_c, 1, 71, 0
3, 2532, Note_on_c, 1, 69, 93
3, 2544, Note_off_c, 1, 69, 0
3, 2544, Note_on_c, 1, 67, 93
3, 2568, Note_off_c, 1, 67, 0
3, 2616, Note_on_c, 1, 74, 93
3, 2640, Note_off_c, 1, 74, 0
3, 2640, Note_on_c, 1, 74, 93
3, 2664, Note_off_c, 1, 74, 0
3, 2700, Note_on_c, 1, 74, 93
3, 2712, Note_off_c, 1, 74, 0
3, 2712, Note_on_c, 1, 73, 93
3, 2724, Note_off_c, 1, 73, 0
3, 2724, Note_on_c, 1, 71, 93
3, 2736, Note_off_c, 1, 71, 0
3, 2736, Note_on_c, 1, 69, 93
3, 2760, Note_off_c, 1, 69, 0
3, 2796, Note_on_c, 1, 67, 93
3, 2808, Note_off_c, 1, 67, 0
3, 2808, Note_on_c, 1, 66, 93
3, 2820, Note_off_c, 1, 66, 0
3, 2820, Note_on_c, 1, 64, 93
3, 2832, Note_off_c, 1, 64, 0
3, 2832, Note_on_c, 1, 62, 93
3, 2856, Note_off_c, 1, 62, 0
3, 2904, Note_on_c, 1, 71, 93
3, 2928, Note_off_c, 1, 71, 0
3, 2928, Note_on_c, 1, 71, 93
3, 2952, Note_off_c, 1, 71, 0
3, 2988, Note_on_c, 1, 72, 93
3, 3000, Note_off_c, 1, 72, 0
3, 3000, Note_on_c, 1, 71, 93
3, 3012, Note_off_c, 1, 71, 0
3, 3012, Note_on_c, 1, 69, 93
3, 3024, Note_off_c, 1, 69, 0
3, 3024, Note_on_c, 1, 67, 93
3, 3048, Note_off_c, 1, 67, 0
3, 3084, Note_on_c, 1, 69, 93
3, 3096, Note_off_c, 1, 69, 0
3, 3096, Note_on_c, 1, 67, 93
3, 3108, Note_off_c, 1, 67, 0
3, 3108, Note_on_c, 1, 66, 93
3, 3120, Note_off_c, 1, 66, 0
3, 3120, Note_on_c, 1, 64, 93
3, 3144, Note_off_c, 1, 64, 0
3, 3192, Note_on_c, 1, 69, 93
3, 3216, Note_off_c, 1, 69, 0
3, 3216, Note_on_c, 1, 69, 93
3, 3240, Note_off_c, 1, 69, 0
3, 3276, Note_on_c, 1, 66, 93
3, 3288, Note_off_c, 1, 66, 0
3, 3288, Note_on_c, 1, 64, 93
3, 3300, Note_off_c, 1, 64, 0
3, 3300, Note_on_c, 1, 62, 93
3, 3312, Note_off_c, 1, 62, 0
3, 3312, Note_on_c, 1, 61, 93
3, 3336, Note_off_c, 1, 61, 0
3, 3372, Note_on_c, 1, 62, 93
3, 3384, Note_off_c, 1, 62, 0
3, 3384, Note_on_c, 1, 61, 93
3, 3396, Note_off_c, 1, 61, 0
3, 3396, Note_on_c, 1, 59, 93
3, 3408, Note_off_c, 1, 59, 0
3, 3408, Note_on_c, 1, 57, 93
3, 3432, Note_off_c, 1, 57, 0
3, 3480, Note_on_c, 1, 69, 93
3, 3504, Note_off_c, 1, 69, 0
3, 3504, Note_on_c, 1, 81, 93
3, 3528, Note_off_c, 1, 81, 0
3, 3528, Note_on_c, 1, 79, 93
3, 3552, Note_off_c, 1, 79, 0
3, 3552, Note_on_c, 1, 78, 93
3, 3576, Note_off_c, 1, 78, 0
3, 3576, Note_on_c, 1, 76, 93
3, 3600, Note_off_c, 1, 76, 0
3, 3600, Note_on_c, 1, 74, 93
3, 3624, Note_off_c, 1, 74, 0
3, 3624, Note_on_c, 1, 72, 93
3, 3648, Note_off_c, 1, 72, 0
3, 3648, Note_on_c, 1, 71, 93
3, 3672, Note_off_c, 1, 71, 0
3, 3672, Note_on_c, 1, 69, 93
3, 3696, Note_off_c, 1, 69, 0
3, 3696, Note_on_c, 1, 67, 93
3, 3720, Note_off_c, 1, 67, 0
3, 3720, Note_on_c, 1, 66, 93
3, 3744, Note_off_c, 1, 66, 0
3, 3744, Note_on_c, 1, 71, 93
3, 3768, Note_off_c, 1, 71, 0
3, 3768, Note_on_c, 1, 67, 93
3, 3792, Note_off_c, 1, 67, 0
3, 3792, Note_on_c, 1, 66, 93
3, 3816, Note_off_c, 1, 66, 0
3, 3816, Note_on_c, 1, 64, 93
3, 3840, Note_off_c, 1, 64, 0
3, 3840, Note_on_c, 1, 62, 93
3, 3864, Note_off_c, 1, 62, 0
3, 3864, Note_on_c, 1, 60, 93
3, 3888, Note_off_c, 1, 60, 0
3, 3888, Note_on_c, 1, 59, 93
3, 3912, Note_off_c, 1, 59, 0
3, 3912, Note_on_c, 1, 57, 93
3, 3936, Note_off_c, 1, 57, 0
3, 3936, Note_on_c, 1, 55, 93
3, 3960, Note_off_c, 1, 55, 0
3, 3960, Note_on_c, 1, 59, 93
3, 3984, Note_off_c, 1, 59, 0
3, 3984, Note_on_c, 1, 64, 93
3, 4008, Note_off_c, 1, 64, 0
3, 4008, Note_on_c, 1, 62, 93
3, 4032, Note_off_c, 1, 62, 0
3, 4032, Note_on_c, 1, 61, 93
3, 4056, Note_off_c, 1, 61, 0
3, 4056, Note_on_c, 1, 59, 93
3, 4080, Note_off_c, 1, 59, 0
3, 4080, Note_on_c, 1, 57, 93
3, 4104, Note_off_c, 1, 57, 0
3, 4104, Note_on_c, 1, 59, 93
3, 4128, Note_off_c, 1, 59, 0
3, 4128, Note_on_c, 1, 61, 93
3, 4152, Note_off_c, 1, 61, 0
3, 4152, Note_on_c, 1, 62, 93
3, 4176, Note_off_c, 1, 62, 0
3, 4176, Note_on_c, 1, 64, 93
3, 4200, Note_off_c, 1, 64, 0
3, 4200, Note_on_c, 1, 66, 93
3, 4224, Note_off_c, 1, 66, 0
3, 4224, Note_on_c, 1, 67, 93
3, 4248, Note_off_c, 1, 67, 0
3, 4248, Note_on_c, 1, 69, 93
3, 4272, Note_off_c, 1, 69, 0
3, 4272, Note_on_c, 1, 71, 93
3, 4296, Note_off_c, 1, 71, 0
3, 4296, Note_on_c, 1, 73, 93
3, 4320, Note_off_c, 1, 73, 0
3, 4320, Note_on_c, 1, 74, 93
3, 4344, Note_off_c, 1, 74, 0
3, 4344, Note_on_c, 1, 73, 93
3, 4356, Note_off_c, 1, 73, 0
3, 4356, Note_on_c, 1, 71, 93
3, 4368, Note_off_c, 1, 71, 0
3, 4368, Note_on_c, 1, 69, 93
3, 4380, Note_off_c, 1, 69, 0
3, 4380, Note_on_c, 1, 67, 93
3, 4392, Note_off_c, 1, 67, 0
3, 4392, Note_on_c, 1, 66, 93
3, 4404, Note_off_c, 1, 66, 0
3, 4404, Note_on_c, 1, 64, 93
3, 4416, Note_off_c, 1, 64, 0
3, 4416, Note_on_c, 1, 62, 93
3, 4464, Note_off_c, 1, 62, 0
3, 4656, Note_on_c, 1, 67, 93
3, 4704, Note_off_c, 1, 67, 0
3, 4704, Note_on_c, 1, 83, 93
3, 4728, Note_off_c, 1, 83, 0
3, 4728, Note_on_c, 1, 81, 93
3, 4752, Note_off_c, 1, 81, 0
3, 4752, Note_on_c, 1, 79, 93
3, 4776, Note_off_c, 1, 79, 0
3, 4776, Note_on_c, 1, 78, 93
3, 4800, Note_off_c, 1, 78, 0
3, 4800, Note_on_c, 1, 76, 93
3, 4824, Note_off_c, 1, 76, 0
3, 4824, Note_on_c, 1, 74, 93
3, 4848, Note_off_c, 1, 74, 0
3, 4848, Note_on_c, 1, 73, 93
3, 4872, Note_off_c, 1, 73, 0
3, 4872, Note_on_c, 1, 71, 93
3, 4896, Note_off_c, 1, 71, 0
3, 4896, Note_on_c, 1, 69, 93
3, 4920, Note_off_c, 1, 69, 0
3, 4920, Note_on_c, 1, 67, 93
3, 4944, Note_off_c, 1, 67, 0
3, 4944, Note_on_c, 1, 66, 93
3, 4992, Note_off_c, 1, 66, 0
3, 4992, Note_on_c, 1, 81, 93
3, 5016, Note_off_c, 1, 81, 0
3, 5016, Note_on_c, 1, 79, 93
3, 5040, Note_off_c, 1, 79, 0
3, 5040, Note_on_c, 1, 78, 93
3, 5064, Note_off_c, 1, 78, 0
3, 5064, Note_on_c, 1, 76, 93
3, 5088, Note_off_c, 1, 76, 0
3, 5088, Note_on_c, 1, 74, 93
3, 5112, Note_off_c, 1, 74, 0
3, 5112, Note_on_c, 1, 73, 93
3, 5136, Note_off_c, 1, 73, 0
3, 5136, Note_on_c, 1, 71, 93
3, 5160, Note_off_c, 1, 71, 0
3, 5160, Note_on_c, 1, 69, 93
3, 5184, Note_off_c, 1, 69, 0
3, 5184, Note_on_c, 1, 67, 93
3, 5208, Note_off_c, 1, 67, 0
3, 5208, Note_on_c, 1, 66, 93
3, 5232, Note_off_c, 1, 66, 0
3, 5232, Note_on_c, 1, 64, 93
3, 5280, Note_off_c, 1, 64, 0
3, 5280, Note_on_c, 1, 79, 93
3, 5304, Note_off_c, 1, 79, 0
3, 5304, Note_on_c, 1, 78, 93
3, 5328, Note_off_c, 1, 78, 0
3, 5328, Note_on_c, 1, 76, 93
3, 5352, Note_off_c, 1, 76, 0
3, 5352, Note_on_c, 1, 74, 93
3, 5376, Note_off_c, 1, 74, 0
3, 5376, Note_on_c, 1, 73, 93
3, 5400, Note_off_c, 1, 73, 0
3, 5400, Note_on_c, 1, 71, 93
3, 5424, Note_off_c, 1, 71, 0
3, 5424, Note_on_c, 1, 69, 93
3, 5448, Note_off_c, 1, 69, 0
3, 5448, Note_on_c, 1, 67, 93
3, 5472, Note_off_c, 1, 67, 0
3, 5472, Note_on_c, 1, 66, 93
3, 5496, Note_off_c, 1, 66, 0
3, 5496, Note_on_c, 1, 64, 93
3, 5520, Note_off_c, 1, 64, 0
3, 5520, Note_on_c, 1, 62, 93
3, 5568, Note_off_c, 1, 62, 0
3, 5640, Note_on_c, 1, 64, 93
3, 5652, Note_off_c, 1, 64, 0
3, 5652, Note_on_c, 1, 66, 93
3, 5664, Note_off_c, 1, 66, 0
3, 5664, Note_on_c, 1, 67, 93
3, 5676, Note_off_c, 1, 67, 0
3, 5676, Note_on_c, 1, 69, 93
3, 5688, Note_off_c, 1, 69, 0
3, 5688, Note_on_c, 1, 71, 93
3, 5700, Note_off_c, 1, 71, 0
3, 5700, Note_on_c, 1, 73, 93
3, 5712, Note_off_c, 1, 73, 0
3, 5712, Note_on_c, 1, 74, 93
3, 5808, Note_off_c, 1, 74, 0
3, 5808, Note_on_c, 1, 59, 93
3, 5832, Note_off_c, 1, 59, 0
3, 5832, Note_on_c, 1, 60, 93
3, 5856, Note_off_c, 1, 60, 0
3, 5856, Note_on_c, 1, 62, 93
3, 5880, Note_off_c, 1, 62, 0
3, 5880, Note_on_c, 1, 64, 93
3, 5904, Note_off_c, 1, 64, 0
3, 5904, Note_on_c, 1, 66, 93
3, 5928, Note_off_c, 1, 66, 0
3, 5928, Note_on_c, 1, 67, 93
3, 5952, Note_off_c, 1, 67, 0
3, 5952, Note_on_c, 1, 69, 93
3, 5976, Note_off_c, 1, 69, 0
3, 5976, Note_on_c, 1, 71, 93
3, 6000, Note_off_c, 1, 71, 0
3, 6000, Note_on_c, 1, 72, 93
3, 6024, Note_off_c, 1, 72, 0
3, 6024, Note_on_c, 1, 74, 93
3, 6048, Note_off_c, 1, 74, 0
3, 6048, Note_on_c, 1, 76, 93
3, 6096, Note_off_c, 1, 76, 0
3, 6096, Note_on_c, 1, 60, 93
3, 6120, Note_off_c, 1, 60, 0
3, 6120, Note_on_c, 1, 62, 93
3, 6144, Note_off_c, 1, 62, 0
3, 6144, Note_on_c, 1, 64, 93
3, 6168, Note_off_c, 1, 64, 0
3, 6168, Note_on_c, 1, 66, 93
3, 6192, Note_off_c, 1, 66, 0
3, 6192, Note_on_c, 1, 67, 93
3, 6216, Note_off_c, 1, 67, 0
3, 6216, Note_on_c, 1, 69, 93
3, 6240, Note_off_c, 1, 69, 0
3, 6240, Note_on_c, 1, 71, 93
3, 6264, Note_off_c, 1, 71, 0
3, 6264, Note_on_c, 1, 72, 93
3, 6288, Note_off_c, 1, 72, 0
3, 6288, Note_on_c, 1, 74, 93
3, 6312, Note_off_c, 1, 74, 0
3, 6312, Note_on_c, 1, 76, 93
3, 6336, Note_off_c, 1, 76, 0
3, 6336, Note_on_c, 1, 78, 93
3, 6384, Note_off_c, 1, 78, 0
3, 6384, Note_on_c, 1, 62, 93
3, 6408, Note_off_c, 1, 62, 0
3, 6408, Note_on_c, 1, 64, 93
3, 6432, Note_off_c, 1, 64, 0
3, 6432, Note_on_c, 1, 66, 93
3, 6456, Note_off_c, 1, 66, 0
3, 6456, Note_on_c, 1, 67, 93
3, 6480, Note_off_c, 1, 67, 0
3, 6480, Note_on_c, 1, 69, 93
3, 6504, Note_off_c, 1, 69, 0
3, 6504, Note_on_c, 1, 71, 93
3, 6528, Note_off_c, 1, 71, 0
3, 6528, Note_on_c, 1, 72, 93
3, 6552, Note_off_c, 1, 72, 0
3, 6552, Note_on_c, 1, 74, 93
3, 6576, Note_off_c, 1, 74, 0
3, 6576, Note_on_c, 1, 76, 93
3, 6600, Note_off_c, 1, 76, 0
3, 6600, Note_on_c, 1, 78, 93
3, 6624, Note_off_c, 1, 78, 0
3, 6624, Note_on_c, 1, 79, 93
3, 6672, Note_off_c, 1, 79, 0
3, 6744, Note_on_c, 1, 78, 93
3, 6756, Note_off_c, 1, 78, 0
3, 6756, Note_on_c, 1, 76, 93
3, 6768, Note_off_c, 1, 76, 0
3, 6768, Note_on_c, 1, 74, 93
3, 6780, Note_off_c, 1, 74, 0
3, 6780, Note_on_c, 1, 72, 93
3, 6792, Note_off_c, 1, 72, 0
3, 6792, Note_on_c, 1, 71, 93
3, 6804, Note_off_c, 1, 71, 0
3, 6804, Note_on_c, 1, 69, 93
3, 6816, Note_off_c, 1, 69, 0
3, 6816, Note_on_c, 1, 67, 93
3, 6840, Note_off_c, 1, 67, 0
3, 6936, Note_on_c, 1, 74, 93
3, 6960, Note_off_c, 1, 74, 0
3, 6960, Note_on_c, 1, 74, 93
3, 6984, Note_off_c, 1, 74, 0
3, 7020, Note_on_c, 1, 79, 93
3, 7032, Note_off_c, 1, 79, 0
3, 7032, Note_on_c, 1, 78, 93
3, 7044, Note_off_c, 1, 78, 0
3, 7044, Note_on_c, 1, 76, 93
3, 7056, Note_off_c, 1, 76, 0
3, 7056, Note_on_c, 1, 74, 93
3, 7080, Note_off_c, 1, 74, 0
3, 7116, Note_on_c, 1, 72, 93
3, 7128, Note_off_c, 1, 72, 0
3, 7128, Note_on_c, 1, 71, 93
3, 7140, Note_off_c, 1, 71, 0
3, 7140, Note_on_c, 1, 69, 93
3, 7152, Note_off_c, 1, 69, 0
3, 7152, Note_on_c, 1, 67, 93
3, 7176, Note_off_c, 1, 67, 0
3, 7224, Note_on_c, 1, 74, 93
3, 7248, Note_off_c, 1, 74, 0
3, 7248, Note_on_c, 1, 74, 93
3, 7272, Note_off_c, 1, 74, 0
3, 7308, Note_on_c, 1, 74, 93
3, 7320, Note_off_c, 1, 74, 0
3, 7320, Note_on_c, 1, 73, 93
3, 7332, Note_off_c, 1, 73, 0
3, 7332, Note_on_c, 1, 71, 93
3, 7344, Note_off_c, 1, 71, 0
3, 7344, Note_on_c, 1, 69, 93
3, 7368, Note_off_c, 1, 69, 0
3, 7404, Note_on_c, 1, 67, 93
3, 7416, Note_off_c, 1, 67, 0
3, 7416, Note_on_c, 1, 66, 93
3, 7428, Note_off_c, 1, 66, 0
3, 7428, Note_on_c, 1, 64, 93
3, 7440, Note_off_c, 1, 64, 0
3, 7440, Note_on_c, 1, 62, 93
3, 7464, Note_off_c, 1, 62, 0
3, 7512, Note_on_c, 1, 71, 93
3, 7536, Note_off_c, 1, 71, 0
3, 7536, Note_on_c, 1, 71, 93
3, 7560, Note_off_c, 1, 71, 0
3, 7596, Note_on_c, 1, 72, 93
3, 7608, Note_off_c, 1, 72, 0
3, 7608, Note_on_c, 1, 71, 93
3, 7620, Note_off_c, 1, 71, 0
3, 7620, Note_on_c, 1, 69, 93
3, 7632, Note_off_c, 1, 69, 0
3, 7632, Note_on_c, 1, 67, 93
3, 7656, Note_off_c, 1, 67, 0
3, 7692, Note_on_c, 1, 69, 93
3, 7704, Note_off_c, 1, 69, 0
3, 7704, Note_on_c, 1, 67, 93
3, 7716, Note_off_c, 1, 67, 0
3, 7716, Note_on_c, 1, 66, 93
3, 7728, Note_off_c, 1, 66, 0
3, 7728, Note_on_c, 1, 64, 93
3, 7752, Note_off_c, 1, 64, 0
3, 7800, Note_on_c, 1, 69, 93
3, 7824, Note_off_c, 1, 69, 0
3, 7824, Note_on_c, 1, 69, 93
3, 7848, Note_off_c, 1, 69, 0
3, 7884, Note_on_c, 1, 66, 93
3, 7896, Note_off_c, 1, 66, 0
3, 7896, Note_on_c, 1, 64, 93
3, 7908, Note_off_c, 1, 64, 0
3, 7908, Note_on_c, 1, 62, 93
3, 7920, Note_off_c, 1, 62, 0
3, 7920, Note_on_c, 1, 61, 93
3, 7944, Note_off_c, 1, 61, 0
3, 7980, Note_on_c, 1, 62, 93
3, 7992, Note_off_c, 1, 62, 0
3, 7992, Note_on_c, 1, 61, 93
3, 8004, Note_off_c, 1, 61, 0
3, 8004, Note_on_c, 1, 59, 93
3, 8016, Note_off_c, 1, 59, 0
3, 8016, Note_on_c, 1, 57, 93
3, 8040, Note_off_c, 1, 57, 0
3, 8088, Note_on_c, 1, 69, 93
3, 8112, Note_off_c, 1, 69, 0
3, 8112, Note_on_c, 1, 81, 93
3, 8136, Note_off_c, 1, 81, 0
3, 8136, Note_on_c, 1, 79, 93
3, 8160, Note_off_c, 1, 79, 0
3, 8160, Note_on_c, 1, 78, 93
3, 8184, Note_off_c, 1, 78, 0
3, 8184, Note_on_c, 1, 76, 93
3, 8208, Note_off_c, 1, 76, 0
3, 8208, Note_on_c, 1, 74, 93
3, 8232, Note_off_c, 1, 74, 0
3, 8232, Note_on_c, 1, 72, 93
3, 8256, Note_off_c, 1, 72, 0
3, 8256, Note_on_c, 1, 71, 93
3, 8280, Note_off_c, 1, 71, 0
3, 8280, Note_on_c, 1, 69, 93
3, 8304, Note_off_c, 1, 69, 0
3, 8304, Note_on_c, 1, 67, 93
3, 8328, Note_off_c, 1, 67, 0
3, 8328, Note_on_c, 1, 66, 93
3, 8352, Note_off_c, 1, 66, 0
3, 8352, Note_on_c, 1, 71, 93
3, 8376, Note_off_c, 1, 71, 0
3, 8376, Note_on_c, 1, 67, 93
3, 8400, Note_off_c, 1, 67, 0
3, 8400, Note_on_c, 1, 66, 93
3, 8424, Note_off_c, 1, 66, 0
3, 8424, Note_on_c, 1, 64, 93
3, 8448, Note_off_c, 1, 64, 0
3, 8448, Note_on_c, 1, 62, 93
3, 8472, Note_off_c, 1, 62, 0
3, 8472, Note_on_c, 1, 60, 93
3, 8496, Note_off_c, 1, 60, 0
3, 8496, Note_on_c, 1, 59, 93
3, 8520, Note_off_c, 1, 59, 0
3, 8520, Note_on_c, 1, 57, 93
3, 8544, Note_off_c, 1, 57, 0
3, 8544, Note_on_c, 1, 55, 93
3, 8568, Note_off_c, 1, 55, 0
3, 8568, Note_on_c, 1, 59, 93
3, 8592, Note_off_c, 1, 59, 0
3, 8592, Note_on_c, 1, 64, 93
3, 8616, Note_off_c, 1, 64, 0
3, 8616, Note_on_c, 1, 62, 93
3, 8640, Note_off_c, 1, 62, 0
3, 8640, Note_on_c, 1, 61, 93
3, 8664, Note_off_c, 1, 61, 0
3, 8664, Note_on_c, 1, 59, 93
3, 8688, Note_off_c, 1, 59, 0
3, 8688, Note_on_c, 1, 57, 93
3, 8712, Note_off_c, 1, 57, 0
3, 8712, Note_on_c, 1, 59, 93
3, 8736, Note_off_c, 1, 59, 0
3, 8736, Note_on_c, 1, 61, 93
3, 8760, Note_off_c, 1, 61, 0
3, 8760, Note_on_c, 1, 62, 93
3, 8784, Note_off_c, 1, 62, 0
3, 8784, Note_on_c, 1, 64, 93
3, 8808, Note_off_c, 1, 64, 0
3, 8808, Note_on_c, 1, 66, 93
3, 8832, Note_off_c, 1, 66, 0
3, 8832, Note_on_c, 1, 67, 93
3, 8856, Note_off_c, 1, 67, 0
3, 8856, Note_on_c, 1, 69, 93
3, 8880, Note_off_c, 1, 69, 0
3, 8880, Note_on_c, 1, 71, 93
3, 8904, Note_off_c, 1, 71, 0
3, 8904, Note_on_c, 1, 73, 93
3, 8928, Note_off_c, 1, 73, 0
3, 8928, Note_on_c, 1, 74, 93
3, 8952, Note_off_c, 1, 74, 0
3, 8952, Note_on_c, 1, 73, 93
3, 8964, Note_off_c, 1, 73, 0
3, 8964, Note_on_c, 1, 71, 93
3, 8976, Note_off_c, 1, 71, 0
3, 8976, Note_on_c, 1, 69, 93
3, 8988, Note_off_c, 1, 69, 0
3, 8988, Note_on_c, 1, 67, 93
3, 9000, Note_off_c, 1, 67, 0
3, 9000, Note_on_c, 1, 66, 93
3, 9012, Note_off_c, 1, 66, 0
3, 9012, Note_on_c, 1, 64, 93
3, 9024, Note_off_c, 1, 64, 0
3, 9024, Note_on_c, 1, 62, 93
3, 9072, Note_off_c, 1, 62, 0
3, 9216, Note_on_c, 1, 81, 93
3, 9228, Note_off_c, 1, 81, 0
3, 9228, Note_on_c, 1, 79, 93
3, 9240, Note_off_c, 1, 79, 0
3, 9240, Note_on_c, 1, 81, 93
3, 9264, Note_off_c, 1, 81, 0
3, 9288, Note_on_c, 1, 79, 93
3, 9312, Note_off_c, 1, 79, 0
3, 9312, Note_on_c, 1, 79, 93
3, 9324, Note_off_c, 1, 79, 0
3, 9324, Note_on_c, 1, 78, 93
3, 9360, Note_off_c, 1, 78, 0
3, 9384, Note_on_c, 1, 76, 93
3, 9408, Note_off_c, 1, 76, 0
3, 9408, Note_on_c, 1, 76, 93
3, 9420, Note_off_c, 1, 76, 0
3, 9420, Note_on_c, 1, 74, 93
3, 9456, Note_off_c, 1, 74, 0
3, 9480, Note_on_c, 1, 72, 93
3, 9504, Note_off_c, 1, 72, 0
3, 9504, Note_on_c, 1, 72, 93
3, 9510, Note_off_c, 1, 72, 0
3, 9510, Note_on_c, 1, 71, 93
3, 9522, Note_off_c, 1, 71, 0
3, 9522, Note_on_c, 1, 72, 93
3, 9528, Note_off_c, 1, 72, 0
3, 9528, Note_on_c, 1, 71, 93
3, 9552, Note_off_c, 1, 71, 0
3, 9576, Note_on_c, 1, 69, 93
3, 9600, Note_off_c, 1, 69, 0
3, 9600, Note_on_c, 1, 69, 93
3, 9612, Note_off_c, 1, 69, 0
3, 9612, Note_on_c, 1, 67, 93
3, 9648, Note_off_c, 1, 67, 0
3, 9672, Note_on_c, 1, 66, 93
3, 9696, Note_off_c, 1, 66, 0
3, 9696, Note_on_c, 1, 66, 93
3, 9708, Note_off_c, 1, 66, 0
3, 9708, Note_on_c, 1, 64, 93
3, 9744, Note_off_c, 1, 64, 0
3, 9768, Note_on_c, 1, 62, 93
3, 9792, Note_off_c, 1, 62, 0
3, 9792, Note_on_c, 1, 62, 93
3, 9798, Note_off_c, 1, 62, 0
3, 9798, Note_on_c, 1, 60, 93
3, 9810, Note_off_c, 1, 60, 0
3, 9810, Note_on_c, 1, 62, 93
3, 9816, Note_off_c, 1, 62, 0
3, 9816, Note_on_c, 1, 60, 93
3, 9840, Note_off_c, 1, 60, 0
3, 9864, Note_on_c, 1, 59, 93
3, 9888, Note_off_c, 1, 59, 0
3, 9888, Note_on_c, 1, 59, 93
3, 9900, Note_off_c, 1, 59, 0
3, 9900, Note_on_c, 1, 57, 93
3, 9936, Note_off_c, 1, 57, 0
3, 9960, Note_on_c, 1, 55, 93
3, 9984, Note_off_c, 1, 55, 0
3, 9984, Note_on_c, 1, 55, 93
3, 9996, Note_off_c, 1, 55, 0
3, 9996, Note_on_c, 1, 54, 93
3, 10032, Note_off_c, 1, 54, 0
3, 10056, Note_on_c, 1, 52, 93
3, 10080, Note_off_c, 1, 52, 0
3, 10080, Note_on_c, 1, 52, 93
3, 10092, Note_off_c, 1, 52, 0
3, 10092, Note_on_c, 1, 51, 93
3, 10128, Note_off_c, 1, 51, 0
3, 10152, Note_on_c, 1, 54, 93
3, 10176, Note_off_c, 1, 54, 0
3, 10176, Note_on_c, 1, 57, 93
3, 10224, Note_off_c, 1, 57, 0
3, 10248, Note_on_c, 1, 60, 93
3, 10272, Note_off_c, 1, 60, 0
3, 10272, Note_on_c, 1, 60, 93
3, 10278, Note_off_c, 1, 60, 0
3, 10278, Note_on_c, 1, 59, 93
3, 10290, Note_off_c, 1, 59, 0
3, 10290, Note_on_c, 1, 60, 93
3, 10296, Note_off_c, 1, 60, 0
3, 10296, Note_on_c, 1, 59, 93
3, 10320, Note_off_c, 1, 59, 0
3, 10344, Note_on_c, 1, 57, 93
3, 10368, Note_off_c, 1, 57, 0
3, 10368, Note_on_c, 1, 55, 93
3, 10416, Note_off_c, 1, 55, 0
3, 10488, Note_on_c, 1, 75, 93
3, 10512, Note_off_c, 1, 75, 0
3, 10512, Note_on_c, 1, 76, 93
3, 10536, Note_off_c, 1, 76, 0
3, 10536, Note_on_c, 1, 78, 93
3, 10560, Note_off_c, 1, 78, 0
3, 10560, Note_on_c, 1, 79, 93
3, 10584, Note_off_c, 1, 79, 0
3, 10584, Note_on_c, 1, 80, 93
3, 10608, Note_off_c, 1, 80, 0
3, 10608, Note_on_c, 1, 81, 93
3, 10632, Note_off_c, 1, 81, 0
3, 10632, Note_on_c, 1, 83, 93
3, 10656, Note_off_c, 1, 83, 0
3, 10656, Note_on_c, 1, 84, 93
3, 10680, Note_off_c, 1, 84, 0
3, 10680, Note_on_c, 1, 81, 93
3, 10704, Note_off_c, 1, 81, 0
3, 10704, Note_on_c, 1, 79, 93
3, 10728, Note_off_c, 1, 79, 0
3, 10728, Note_on_c, 1, 77, 93
3, 10752, Note_off_c, 1, 77, 0
3, 10752, Note_on_c, 1, 76, 93
3, 10776, Note_off_c, 1, 76, 0
3, 10776, Note_on_c, 1, 74, 93
3, 10800, Note_off_c, 1, 74, 0
3, 10800, Note_on_c, 1, 72, 93
3, 10824, Note_off_c, 1, 72, 0
3, 10824, Note_on_c, 1, 71, 93
3, 10848, Note_off_c, 1, 71, 0
3, 10848, Note_on_c, 1, 69, 93
3, 10872, Note_off_c, 1, 69, 0
3, 10872, Note_on_c, 1, 67, 93
3, 10896, Note_off_c, 1, 67, 0
3, 10896, Note_on_c, 1, 66, 93
3, 10920, Note_off_c, 1, 66, 0
3, 10920, Note_on_c, 1, 64, 93
3, 10944, Note_off_c, 1, 64, 0
3, 10944, Note_on_c, 1, 63, 93
3, 10968, Note_off_c, 1, 63, 0
3, 10968, Note_on_c, 1, 72, 93
3, 10992, Note_off_c, 1, 72, 0
3, 10992, Note_on_c, 1, 71, 93
3, 11040, Note_off_c, 1, 71, 0
3, 11052, Note_on_c, 1, 71, 93
3, 11064, Note_off_c, 1, 71, 0
3, 11064, Note_on_c, 1, 73, 93
3, 11076, Note_off_c, 1, 73, 0
3, 11076, Note_on_c, 1, 75, 93
3, 11088, Note_off_c, 1, 75, 0
3, 11088, Note_on_c, 1, 76, 93
3, 11100, Note_off_c, 1, 76, 0
3, 11100, Note_on_c, 1, 78, 93
3, 11112, Note_off_c, 1, 78, 0
3, 11112, Note_on_c, 1, 79, 93
3, 11160, Note_off_c, 1, 79, 0
3, 11160, Note_on_c, 1, 78, 93
3, 11184, Note_off_c, 1, 78, 0
3, 11184, Note_on_c, 1, 78, 93
3, 11190, Note_off_c, 1, 78, 0
3, 11190, Note_on_c, 1, 76, 93
3, 11196, Note_off_c, 1, 76, 0
3, 11196, Note_on_c, 1, 78, 93
3, 11202, Note_off_c, 1, 78, 0
3, 11202, Note_on_c, 1, 76, 93
3, 11208, Note_off_c, 1, 76, 0
3, 11208, Note_on_c, 1, 75, 93
3, 11232, Note_off_c, 1, 75, 0
3, 11232, Note_on_c, 1, 76, 93
3, 11244, Note_off_c, 1, 76, 0
3, 11244, Note_on_c, 1, 72, 93
3, 11256, Note_off_c, 1, 72, 0
3, 11256, Note_on_c, 1, 71, 93
3, 11268, Note_off_c, 1, 71, 0
3, 11268, Note_on_c, 1, 69, 93
3, 11280, Note_off_c, 1, 69, 0
3, 11280, Note_on_c, 1, 71, 93
3, 11292, Note_off_c, 1, 71, 0
3, 11340, Note_on_c, 1, 66, 93
3, 11352, Note_off_c, 1, 66, 0
3, 11352, Note_on_c, 1, 64, 93
3, 11364, Note_off_c, 1, 64, 0
3, 11364, Note_on_c, 1, 63, 93
3, 11376, Note_off_c, 1, 63, 0
3, 11376, Note_on_c, 1, 64, 93
3, 11388, Note_off_c, 1, 64, 0
3, 11436, Note_on_c, 1, 57, 93
3, 11448, Note_off_c, 1, 57, 0
3, 11448, Note_on_c, 1, 55, 93
3, 11460, Note_off_c, 1, 55, 0
3, 11460, Note_on_c, 1, 54, 93
3, 11472, Note_off_c, 1, 54, 0
3, 11472, Note_on_c, 1, 55, 93
3, 11484, Note_off_c, 1, 55, 0
3, 11544, Note_on_c, 1, 60, 93
3, 11568, Note_off_c, 1, 60, 0
3, 11568, Note_on_c, 1, 62, 93
3, 11592, Note_off_c, 1, 62, 0
3, 11592, Note_on_c, 1, 64, 93
3, 11616, Note_off_c, 1, 64, 0
3, 11616, Note_on_c, 1, 65, 93
3, 11640, Note_off_c, 1, 65, 0
3, 11640, Note_on_c, 1, 67, 93
3, 11664, Note_off_c, 1, 67, 0
3, 11664, Note_on_c, 1, 69, 93
3, 11688, Note_off_c, 1, 69, 0
3, 11688, Note_on_c, 1, 71, 93
3, 11712, Note_off_c, 1, 71, 0
3, 11712, Note_on_c, 1, 72, 93
3, 11760, Note_off_c, 1, 72, 0
3, 11832, Note_on_c, 1, 71, 93
3, 11856, Note_off_c, 1, 71, 0
3, 11856, Note_on_c, 1, 69, 93
3, 11880, Note_off_c, 1, 69, 0
3, 11880, Note_on_c, 1, 67, 93
3, 11904, Note_off_c, 1, 67, 0
3, 11904, Note_on_c, 1, 66, 93
3, 11928, Note_off_c, 1, 66, 0
3, 11928, Note_on_c, 1, 64, 93
3, 11952, Note_off_c, 1, 64, 0
3, 11952, Note_on_c, 1, 62, 93
3, 11976, Note_off_c, 1, 62, 0
3, 11976, Note_on_c, 1, 60, 93
3, 12000, Note_off_c, 1, 60, 0
3, 12000, Note_on_c, 1, 59, 93
3, 12048, Note_off_c, 1, 59, 0
3, 12120, Note_on_c, 1, 59, 93
3, 12144, Note_off_c, 1, 59, 0
3, 12168, Note_on_c, 1, 56, 93
3, 12192, Note_off_c, 1, 56, 0
3, 12216, Note_on_c, 1, 59, 93
3, 12240, Note_off_c, 1, 59, 0
3, 12264, Note_on_c, 1, 55, 93
3, 12288, Note_off_c, 1, 55, 0
3, 12312, Note_on_c, 1, 55, 93
3, 12336, Note_off_c, 1, 55, 0
3, 12360, Note_on_c, 1, 52, 93
3, 12384, Note_off_c, 1, 52, 0
3, 12408, Note_on_c, 1, 52, 93
3, 12432, Note_off_c, 1, 52, 0
3, 12456, Note_on_c, 1, 49, 93
3, 12480, Note_off_c, 1, 49, 0
3, 12504, Note_on_c, 1, 52, 93
3, 12528, Note_off_c, 1, 52, 0
3, 12552, Note_on_c, 1, 48, 93
3, 12576, Note_off_c, 1, 48, 0
3, 12600, Note_on_c, 1, 48, 93
3, 12624, Note_off_c, 1, 48, 0
3, 12648, Note_on_c, 1, 45, 93
3, 12672, Note_off_c, 1, 45, 0
3, 12696, Note_on_c, 1, 45, 93
3, 12720, Note_off_c, 1, 45, 0
3, 12744, Note_on_c, 1, 42, 93
3, 12768, Note_off_c, 1, 42, 0
3, 12792, Note_on_c, 1, 45, 93
3, 12816, Note_off_c, 1, 45, 0
3, 12840, Note_on_c, 1, 48, 93
3, 12864, Note_off_c, 1, 48, 0
3, 12888, Note_on_c, 1, 52, 93
3, 12912, Note_off_c, 1, 52, 0
3, 12936, Note_on_c, 1, 55, 93
3, 12960, Note_off_c, 1, 55, 0
3, 12984, Note_on_c, 1, 53, 93
3, 13008, Note_off_c, 1, 53, 0
3, 13032, Note_on_c, 1, 50, 93
3, 13056, Note_off_c, 1, 50, 0
3, 13080, Note_on_c, 1, 53, 93
3, 13104, Note_off_c, 1, 53, 0
3, 13128, Note_on_c, 1, 57, 93
3, 13152, Note_off_c, 1, 57, 0
3, 13176, Note_on_c, 1, 60, 93
3, 13200, Note_off_c, 1, 60, 0
3, 13224, Note_on_c, 1, 64, 93
3, 13248, Note_off_c, 1, 64, 0
3, 13272, Note_on_c, 1, 69, 93
3, 13296, Note_off_c, 1, 69, 0
3, 13296, Note_on_c, 1, 71, 93
3, 13320, Note_off_c, 1, 71, 0
3, 13320, Note_on_c, 1, 73, 93
3, 13344, Note_off_c, 1, 73, 0
3, 13344, Note_on_c, 1, 74, 93
3, 13368, Note_off_c, 1, 74, 0
3, 13368, Note_on_c, 1, 76, 93
3, 13392, Note_off_c, 1, 76, 0
3, 13392, Note_on_c, 1, 78, 93
3, 13416, Note_off_c, 1, 78, 0
3, 13416, Note_on_c, 1, 79, 93
3, 13440, Note_off_c, 1, 79, 0
3, 13440, Note_on_c, 1, 81, 93
3, 13488, Note_off_c, 1, 81, 0
3, 13560, Note_on_c, 1, 74, 93
3, 13584, Note_off_c, 1, 74, 0
3, 13584, Note_on_c, 1, 72, 93
3, 13608, Note_off_c, 1, 72, 0
3, 13608, Note_on_c, 1, 71, 93
3, 13632, Note_off_c, 1, 71, 0
3, 13632, Note_on_c, 1, 69, 93
3, 13656, Note_off_c, 1, 69, 0
3, 13656, Note_on_c, 1, 67, 93
3, 13680, Note_off_c, 1, 67, 0
3, 13680, Note_on_c, 1, 66, 93
3, 13704, Note_off_c, 1, 66, 0
3, 13704, Note_on_c, 1, 64, 93
3, 13728, Note_off_c, 1, 64, 0
3, 13728, Note_on_c, 1, 62, 93
3, 13776, Note_off_c, 1, 62, 0
3, 13824, Note_on_c, 1, 81, 93
3, 13836, Note_off_c, 1, 81, 0
3, 13836, Note_on_c, 1, 79, 93
3, 13848, Note_off_c, 1, 79, 0
3, 13848, Note_on_c, 1, 81, 93
3, 13872, Note_off_c, 1, 81, 0
3, 13896, Note_on_c, 1, 79, 93
3, 13920, Note_off_c, 1, 79, 0
3, 13920, Note_on_c, 1, 79, 93
3, 13932, Note_off_c, 1, 79, 0
3, 13932, Note_on_c, 1, 78, 93
3, 13968, Note_off_c, 1, 78, 0
3, 13992, Note_on_c, 1, 76, 93
3, 14016, Note_off_c, 1, 76, 0
3, 14016, Note_on_c, 1, 76, 93
3, 14028, Note_off_c, 1, 76, 0
3, 14028, Note_on_c, 1, 74, 93
3, 14064, Note_off_c, 1, 74, 0
3, 14088, Note_on_c, 1, 72, 93
3, 14112, Note_off_c, 1, 72, 0
3, 14112, Note_on_c, 1, 72, 93
3, 14118, Note_off_c, 1, 72, 0
3, 14118, Note_on_c, 1, 71, 93
3, 14130, Note_off_c, 1, 71, 0
3, 14130, Note_on_c, 1, 72, 93
3, 14136, Note_off_c, 1, 72, 0
3, 14136, Note_on_c, 1, 71, 93
3, 14160, Note_off_c, 1, 71, 0
3, 14184, Note_on_c, 1, 69, 93
3, 14208, Note_off_c, 1, 69, 0
3, 14208, Note_on_c, 1, 69, 93
3, 14220, Note_off_c, 1, 69, 0
3, 14220, Note_on_c, 1, 67, 93
3, 14256, Note_off_c, 1, 67, 0
3, 14280, Note_on_c, 1, 66, 93
3, 14304, Note_off_c, 1, 66, 0
3, 14304, Note_on_c, 1, 66, 93
3, 14316, Note_off_c, 1, 66, 0
3, 14316, Note_on_c, 1, 64, 93
3, 14352, Note_off_c, 1, 64, 0
3, 14376, Note_on_c, 1, 62, 93
3, 14400, Note_off_c, 1, 62, 0
3, 14400, Note_on_c, 1, 62, 93
3, 14406, Note_off_c, 1, 62, 0
3, 14406, Note_on_c, 1, 60, 93
3, 14418, Note_off_c, 1, 60, 0
3, 14418, Note_on_c, 1, 62, 93
3, 14424, Note_off_c, 1, 62, 0
3, 14424, Note_on_c, 1, 60, 93
3, 14448, Note_off_c, 1, 60, 0
3, 14472, Note_on_c, 1, 59, 93
3, 14496, Note_off_c, 1, 59, 0
3, 14496, Note_on_c, 1, 59, 93
3, 14508, Note_off_c, 1, 59, 0
3, 14508, Note_on_c, 1, 57, 93
3, 14544, Note_off_c, 1, 57, 0
3, 14568, Note_on_c, 1, 55, 93
3, 14592, Note_off_c, 1, 55, 0
3, 14592, Note_on_c, 1, 55, 93
3, 14604, Note_off_c, 1, 55, 0
3, 14604, Note_on_c, 1, 54, 93
3, 14640, Note_off_c, 1, 54, 0
3, 14664, Note_on_c, 1, 52, 93
3, 14688, Note_off_c, 1, 52, 0
3, 14688, Note_on_c, 1, 52, 93
3, 14700, Note_off_c, 1, 52, 0
3, 14700, Note_on_c, 1, 51, 93
3, 14736, Note_off_c, 1, 51, 0
3, 14760, Note_on_c, 1, 54, 93
3, 14784, Note_off_c, 1, 54, 0
3, 14784, Note_on_c, 1, 57, 93
3, 14832, Note_off_c, 1, 57, 0
3, 14856, Note_on_c, 1, 60, 93
3, 14880, Note_off_c, 1, 60, 0
3, 14880, Note_on_c, 1, 60, 93
3, 14886, Note_off_c, 1, 60, 0
3, 14886, Note_on_c, 1, 59, 93
3, 14898, Note_off_c, 1, 59, 0
3, 14898, Note_on_c, 1, 60, 93
3, 14904, Note_off_c, 1, 60, 0
3, 14904, Note_on_c, 1, 59, 93
3, 14928, Note_off_c, 1, 59, 0
3, 14952, Note_on_c, 1, 57, 93
3, 14976, Note_off_c, 1, 57, 0
3, 14976, Note_on_c, 1, 55, 93
3, 15024, Note_off_c, 1, 55, 0
3, 15096, Note_on_c, 1, 75, 93
3, 15120, Note_off_c, 1, 75, 0
3, 15120, Note_on_c, 1, 76, 93
3, 15144, Note_off_c, 1, 76, 0
3, 15144, Note_on_c, 1, 78, 93
3, 15168, Note_off_c, 1, 78, 0
3, 15168, Note_on_c, 1, 79, 93
3, 15192, Note_off_c, 1, 79, 0
3, 15192, Note_on_c, 1, 80, 93
3, 15216, Note_off_c, 1, 80, 0
3, 15216, Note_on_c, 1, 81, 93
3, 15240, Note_off_c, 1, 81, 0
3, 15240, Note_on_c, 1, 83, 93
3, 15264, Note_off_c, 1, 83, 0
3, 15264, Note_on_c, 1, 84, 93
3, 15288, Note_off_c, 1, 84, 0
3, 15288, Note_on_c, 1, 81, 93
3, 15312, Note_off_c, 1, 81, 0
3, 15312, Note_on_c, 1, 79, 93
3, 15336, Note_off_c, 1, 79, 0
3, 15336, Note_on_c, 1, 77, 93
3, 15360, Note_off_c, 1, 77, 0
3, 15360, Note_on_c, 1, 76, 93
3, 15384, Note_off_c, 1, 76, 0
3, 15384, Note_on_c, 1, 74, 93
3, 15408, Note_off_c, 1, 74, 0
3, 15408, Note_on_c, 1, 72, 93
3, 15432, Note_off_c, 1, 72, 0
3, 15432, Note_on_c, 1, 71, 93
3, 15456, Note_off_c, 1, 71, 0
3, 15456, Note_on_c, 1, 69, 93
3, 15480, Note_off_c, 1, 69, 0
3, 15480, Note_on_c, 1, 67, 93
3, 15504, Note_off_c, 1, 67, 0
3, 15504, Note_on_c, 1, 66, 93
3, 15528, Note_off_c, 1, 66, 0
3, 15528, Note_on_c, 1, 64, 93
3, 15552, Note_off_c, 1, 64, 0
3, 15552, Note_on_c, 1, 63, 93
3, 15576, Note_off_c, 1, 63, 0
3, 15576, Note_on_c, 1, 72, 93
3, 15600, Note_off_c, 1, 72, 0
3, 15600, Note_on_c, 1, 71, 93
3, 15648, Note_off_c, 1, 71, 0
3, 15660, Note_on_c, 1, 71, 93
3, 15672, Note_off_c, 1, 71, 0
3, 15672, Note_on_c, 1, 73, 93
3, 15684, Note_off_c, 1, 73, 0
3, 15684, Note_on_c, 1, 75, 93
3, 15696, Note_off_c, 1, 75, 0
3, 15696, Note_on_c, 1, 76, 93
3, 15708, Note_off_c, 1, 76, 0
3, 15708, Note_on_c, 1, 78, 93
3, 15720, Note_off_c, 1, 78, 0
3, 15720, Note_on_c, 1, 79, 93
3, 15768, Note_off_c, 1, 79, 0
3, 15768, Note_on_c, 1, 78, 93
3, 15792, Note_off_c, 1, 78, 0
3, 15792, Note_on_c, 1, 78, 93
3, 15798, Note_off_c, 1, 78, 0
3, 15798, Note_on_c, 1, 76, 93
3, 15804, Note_off_c, 1, 76, 0
3, 15804, Note_on_c, 1, 78, 93
3, 15810, Note_off_c, 1, 78, 0
3, 15810, Note_on_c, 1, 76, 93
3, 15816, Note_off_c, 1, 76, 0
3, 15816, Note_on_c, 1, 75, 93
3, 15840, Note_off_c, 1, 75, 0
3, 15840, Note_on_c, 1, 76, 93
3, 15852, Note_off_c, 1, 76, 0
3, 15852, Note_on_c, 1, 72, 93
3, 15864, Note_off_c, 1, 72, 0
3, 15864, Note_on_c, 1, 71, 93
3, 15876, Note_off_c, 1, 71, 0
3, 15876, Note_on_c, 1, 69, 93
3, 15888, Note_off_c, 1, 69, 0
3, 15888, Note_on_c, 1, 71, 93
3, 15900, Note_off_c, 1, 71, 0
3, 15948, Note_on_c, 1, 66, 93
3, 15960, Note_off_c, 1, 66, 0
3, 15960, Note_on_c, 1, 64, 93
3, 15972, Note_off_c, 1, 64, 0
3, 15972, Note_on_c, 1, 63, 93
3, 15984, Note_off_c, 1, 63, 0
3, 15984, Note_on_c, 1, 64, 93
3, 15996, Note_off_c, 1, 64, 0
3, 16044, Note_on_c, 1, 57, 93
3, 16056, Note_off_c, 1, 57, 0
3, 16056, Note_on_c, 1, 55, 93
3, 16068, Note_off_c, 1, 55, 0
3, 16068, Note_on_c, 1, 54, 93
3, 16080, Note_off_c, 1, 54, 0
3, 16080, Note_on_c, 1, 55, 93
3, 16092, Note_off_c, 1, 55, 0
3, 16152, Note_on_c, 1, 60, 93
3, 16176, Note_off_c, 1, 60, 0
3, 16176, Note_on_c, 1, 62, 93
3, 16200, Note_off_c, 1, 62, 0
3, 16200, Note_on_c, 1, 64, 93
3, 16224, Note_off_c, 1, 64, 0
3, 16224, Note_on_c, 1, 65, 93
3, 16248, Note_off_c, 1, 65, 0
3, 16248, Note_on_c, 1, 67, 93
3, 16272, Note_off_c, 1, 67, 0
3, 16272, Note_on_c, 1, 69, 93
3, 16296, Note_off_c, 1, 69, 0
3, 16296, Note_on_c, 1, 71, 93
3, 16320, Note_off_c, 1, 71, 0
3, 16320, Note_on_c, 1, 72, 93
3, 16368, Note_off_c, 1, 72, 0
3, 16440, Note_on_c, 1, 71, 93
3, 16464, Note_off_c, 1, 71, 0
3, 16464, Note_on_c, 1, 69, 93
3, 16488, Note_off_c, 1, 69, 0
3, 16488, Note_on_c, 1, 67, 93
3, 16512, Note_off_c, 1, 67, 0
3, 16512, Note_on_c, 1, 66, 93
3, 16536, Note_off_c, 1, 66, 0
3, 16536, Note_on_c, 1, 64, 93
3, 16560, Note_off_c, 1, 64, 0
3, 16560, Note_on_c, 1, 62, 93
3, 16584, Note_off_c, 1, 62, 0
3, 16584, Note_on_c, 1, 60, 93
3, 16608, Note_off_c, 1, 60, 0
3, 16608, Note_on_c, 1, 59, 93
3, 16656, Note_off_c, 1, 59, 0
3, 16728, Note_on_c, 1, 59, 93
3, 16752, Note_off_c, 1, 59, 0
3, 16776, Note_on_c, 1, 56, 93
3, 16800, Note_off_c, 1, 56, 0
3, 16824, Note_on_c, 1, 59, 93
3, 16848, Note_off_c, 1, 59, 0
3, 16872, Note_on_c, 1, 55, 93
3, 16896, Note_off_c, 1, 55, 0
3, 16920, Note_on_c, 1, 55, 93
3, 16944, Note_off_c, 1, 55, 0
3, 16968, Note_on_c, 1, 52, 93
3, 16992, Note_off_c, 1, 52, 0
3, 17016, Note_on_c, 1, 52, 93
3, 17040, Note_off_c, 1, 52, 0
3, 17064, Note_on_c, 1, 49, 93
3, 17088, Note_off_c, 1, 49, 0
3, 17112, Note_on_c, 1, 52, 93
3, 17136, Note_off_c, 1, 52, 0
3, 17160, Note_on_c, 1, 48, 93
3, 17184, Note_off_c, 1, 48, 0
3, 17208, Note_on_c, 1, 48, 93
3, 17232, Note_off_c, 1, 48, 0
3, 17256, Note_on_c, 1, 45, 93
3, 17280, Note_off_c, 1, 45, 0
3, 17304, Note_on_c, 1, 45, 93
3, 17328, Note_off_c, 1, 45, 0
3, 17352, Note_on_c, 1, 42, 93
3, 17376, Note_off_c, 1, 42, 0
3, 17400, Note_on_c, 1, 45, 93
3, 17424, Note_off_c, 1, 45, 0
3, 17448, Note_on_c, 1, 48, 93
3, 17472, Note_off_c, 1, 48, 0
3, 17496, Note_on_c, 1, 52, 93
3, 17520, Note_off_c, 1, 52, 0
3, 17544, Note_on_c, 1, 55, 93
3, 17568, Note_off_c, 1, 55, 0
3, 17592, Note_on_c, 1, 53, 93
3, 17616, Note_off_c, 1, 53, 0
3, 17640, Note_on_c, 1, 50, 93
3, 17664, Note_off_c, 1, 50, 0
3, 17688, Note_on_c, 1, 53, 93
3, 17712, Note_off_c, 1, 53, 0
3, 17736, Note_on_c, 1, 57, 93
3, 17760, Note_off_c, 1, 57, 0
3, 17784, Note_on_c, 1, 60, 93
3, 17808, Note_off_c, 1, 60, 0
3, 17832, Note_on_c, 1, 64, 93
3, 17856, Note_off_c, 1, 64, 0
3, 17880, Note_on_c, 1, 69, 93
3, 17904, Note_off_c, 1, 69, 0
3, 17904, Note_on_c, 1, 71, 93
3, 17928, Note_off_c, 1, 71, 0
3, 17928, Note_on_c, 1, 73, 93
3, 17952, Note_off_c, 1, 73, 0
3, 17952, Note_on_c, 1, 74, 93
3, 17976, Note_off_c, 1, 74, 0
3, 17976, Note_on_c, 1, 76, 93
3, 18000, Note_off_c, 1, 76, 0
3, 18000, Note_on_c, 1, 78, 93
3, 18024, Note_off_c, 1, 78, 0
3, 18024, Note_on_c, 1, 79, 93
3, 18048, Note_off_c, 1, 79, 0
3, 18048, Note_on_c, 1, 81, 93
3, 18096, Note_off_c, 1, 81, 0
3, 18168, Note_on_c, 1, 74, 93
3, 18192, Note_off_c, 1, 74, 0
3, 18192, Note_on_c, 1, 72, 93
3, 18216, Note_off_c, 1, 72, 0
3, 18216, Note_on_c, 1, 71, 93
3, 18240, Note_off_c, 1, 71, 0
3, 18240, Note_on_c, 1, 69, 93
3, 18264, Note_off_c, 1, 69, 0
3, 18264, Note_on_c, 1, 67, 93
3, 18288, Note_off_c, 1, 67, 0
3, 18288, Note_on_c, 1, 66, 93
3, 18312, Note_off_c, 1, 66, 0
3, 18312, Note_on_c, 1, 64, 93
3, 18336, Note_off_c, 1, 64, 0
3, 18336, Note_on_c, 1, 62, 93
3, 18384, Note_off_c, 1, 62, 0
3, 18384, End_track
4, 0, Start_track
4, 0, Title_t, "Track4"
4, 0, Program_c, 2, 6
4, 0, Control_c, 2, 7, 100
4, 0, Control_c, 2, 10, 59
4, 0, Note_on_c, 2, 67, 93
4, 48, Note_off_c, 2, 67, 0
4, 48, Note_on_c, 2, 83, 93
4, 72, Note_off_c, 2, 83, 0
4, 72, Note_on_c, 2, 81, 93
4, 96, Note_off_c, 2, 81, 0
4, 96, Note_on_c, 2, 79, 93
4, 120, Note_off_c, 2, 79, 0
4, 120, Note_on_c, 2, 78, 93
4, 144, Note_off_c, 2, 78, 0
4, 144, Note_on_c, 2, 76, 93
4, 168, Note_off_c, 2, 76, 0
4, 168, Note_on_c, 2, 74, 93
4, 192, Note_off_c, 2, 74, 0
4, 192, Note_on_c, 2, 73, 93
4, 216, Note_off_c, 2, 73, 0
4, 216, Note_on_c, 2, 71, 93
4, 240, Note_off_c, 2, 71, 0
4, 240, Note_on_c, 2, 69, 93
4, 264, Note_off_c, 2, 69, 0
4, 264, Note_on_c, 2, 67, 93
4, 288, Note_off_c, 2, 67, 0
4, 288, Note_on_c, 2, 66, 93
4, 336, Note_off_c, 2, 66, 0
4, 336, Note_on_c, 2, 81, 93
4, 360, Note_off_c, 2, 81, 0
4, 360, Note_on_c, 2, 79, 93
4, 384, Note_off_c, 2, 79, 0
4, 384, Note_on_c, 2, 78, 93
4, 408, Note_off_c, 2, 78, 0
4, 408, Note_on_c, 2, 76, 93
4, 432, Note_off_c, 2, 76, 0
4, 432, Note_on_c, 2, 74, 93
4, 456, Note_off_c, 2, 74, 0
4, 456, Note_on_c, 2, 73, 93
4, 480, Note_off_c, 2, 73, 0
4, 480, Note_on_c, 2, 71, 93
4, 504, Note_off_c, 2, 71, 0
4, 504, Note_on_c, 2, 69, 93
4, 528, Note_off_c, 2, 69, 0
4, 528, Note_on_c, 2, 67, 93
4, 552, Note_off_c, 2, 67, 0
4, 552, Note_on_c, 2, 66, 93
4, 576, Note_off_c, 2, 66, 0
4, 576, Note_on_c, 2, 64, 93
4, 624, Note_off_c, 2, 64, 0
4, 624, Note_on_c, 2, 79, 93
4, 648, Note_off_c, 2, 79, 0
4, 648, Note_on_c, 2, 78, 93
4, 672, Note_off_c, 2, 78, 0
4, 672, Note_on_c, 2, 76, 93
4, 696, Note_off_c, 2, 76, 0
4, 696, Note_on_c, 2, 74, 93
4, 720, Note_off_c, 2, 74, 0
4, 720, Note_on_c, 2, 73, 93
4, 744, Note_off_c, 2, 73, 0
4, 744, Note_on_c, 2, 71, 93
4, 768, Note_off_c, 2, 71, 0
4, 768, Note_on_c, 2, 69, 93
4, 792, Note_off_c, 2, 69, 0
4, 792, Note_on_c, 2, 67, 93
4, 816, Note_off_c, 2, 67, 0
4, 816, Note_on_c, 2, 66, 93
4, 840, Note_off_c, 2, 66, 0
4, 840, Note_on_c, 2, 64, 93
4, 864, Note_off_c, 2, 64, 0
4, 864, Note_on_c, 2, 62, 93
4, 912, Note_off_c, 2, 62, 0
4, 936, Note_on_c, 2, 60, 93
4, 948, Note_off_c, 2, 60, 0
4, 948, Note_on_c, 2, 59, 93
4, 960, Note_off_c, 2, 59, 0
4, 960, Note_on_c, 2, 57, 93
4, 972, Note_off_c, 2, 57, 0
4, 972, Note_on_c, 2, 55, 93
4, 984, Note_off_c, 2, 55, 0
4, 984, Note_on_c, 2, 54, 93
4, 996, Note_off_c, 2, 54, 0
4, 996, Note_on_c, 2, 52, 93
4, 1008, Note_off_c, 2, 52, 0
4, 1008, Note_on_c, 2, 50, 93
4, 1056, Note_off_c, 2, 50, 0
4, 1128, Note_on_c, 2, 48, 93
4, 1152, Note_off_c, 2, 48, 0
4, 1152, Note_on_c, 2, 47, 93
4, 1200, Note_off_c, 2, 47, 0
4, 1248, Note_on_c, 2, 59, 93
4, 1272, Note_off_c, 2, 59, 0
4, 1272, Note_on_c, 2, 60, 93
4, 1296, Note_off_c, 2, 60, 0
4, 1296, Note_on_c, 2, 62, 93
4, 1320, Note_off_c, 2, 62, 0
4, 1320, Note_on_c, 2, 64, 93
4, 1344, Note_off_c, 2, 64, 0
4, 1344, Note_on_c, 2, 66, 93
4, 1368, Note_off_c, 2, 66, 0
4, 1368, Note_on_c, 2, 67, 93
4, 1392, Note_off_c, 2, 67, 0
4, 1392, Note_on_c, 2, 69, 93
4, 1416, Note_off_c, 2, 69, 0
4, 1416, Note_on_c, 2, 71, 93
4, 1440, Note_off_c, 2, 71, 0
4, 1440, Note_on_c, 2, 72, 93
4, 1464, Note_off_c, 2, 72, 0
4, 1464, Note_on_c, 2, 74, 93
4, 1488, Note_off_c, 2, 74, 0
4, 1488, Note_on_c, 2, 76, 93
4, 1536, Note_off_c, 2, 76, 0
4, 1536, Note_on_c, 2, 60, 93
4, 1560, Note_off_c, 2, 60, 0
4, 1560, Note_on_c, 2, 62, 93
4, 1584, Note_off_c, 2, 62, 0
4, 1584, Note_on_c, 2, 64, 93
4, 1608, Note_off_c, 2, 64, 0
4, 1608, Note_on_c, 2, 66, 93
4, 1632, Note_off_c, 2, 66, 0
4, 1632, Note_on_c, 2, 67, 93
4, 1656, Note_off_c, 2, 67, 0
4, 1656, Note_on_c, 2, 69, 93
4, 1680, Note_off_c, 2, 69, 0
4, 1680, Note_on_c, 2, 71, 93
4, 1704, Note_off_c, 2, 71, 0
4, 1704, Note_on_c, 2, 72, 93
4, 1728, Note_off_c, 2, 72, 0
4, 1728, Note_on_c, 2, 74, 93
4, 1752, Note_off_c, 2, 74, 0
4, 1752, Note_on_c, 2, 76, 93
4, 1776, Note_off_c, 2, 76, 0
4, 1776, Note_on_c, 2, 78, 93
4, 1824, Note_off_c, 2, 78, 0
4, 1824, Note_on_c, 2, 62, 93
4, 1848, Note_off_c, 2, 62, 0
4, 1848, Note_on_c, 2, 64, 93
4, 1872, Note_off_c, 2, 64, 0
4, 1872, Note_on_c, 2, 66, 93
4, 1896, Note_off_c, 2, 66, 0
4, 1896, Note_on_c, 2, 67, 93
4, 1920, Note_off_c, 2, 67, 0
4, 1920, Note_on_c, 2, 69, 93
4, 1944, Note_off_c, 2, 69, 0
4, 1944, Note_on_c, 2, 71, 93
4, 1968, Note_off_c, 2, 71, 0
4, 1968, Note_on_c, 2, 72, 93
4, 1992, Note_off_c, 2, 72, 0
4, 1992, Note_on_c, 2, 69, 93
4, 2016, Note_off_c, 2, 69, 0
4, 2016, Note_on_c, 2, 71, 93
4, 2028, Note_off_c, 2, 71, 0
4, 2028, Note_on_c, 2, 67, 93
4, 2040, Note_off_c, 2, 67, 0
4, 2040, Note_on_c, 2, 69, 93
4, 2052, Note_off_c, 2, 69, 0
4, 2052, Note_on_c, 2, 71, 93
4, 2064, Note_off_c, 2, 71, 0
4, 2064, Note_on_c, 2, 72, 93
4, 2076, Note_off_c, 2, 72, 0
4, 2076, Note_on_c, 2, 74, 93
4, 2088, Note_off_c, 2, 74, 0
4, 2088, Note_on_c, 2, 76, 93
4, 2100, Note_off_c, 2, 76, 0
4, 2100, Note_on_c, 2, 78, 93
4, 2112, Note_off_c, 2, 78, 0
4, 2112, Note_on_c, 2, 79, 93
4, 2136, Note_off_c, 2, 79, 0
4, 2232, Note_on_c, 2, 66, 93
4, 2244, Note_off_c, 2, 66, 0
4, 2244, Note_on_c, 2, 64, 93
4, 2256, Note_off_c, 2, 64, 0
4, 2256, Note_on_c, 2, 62, 93
4, 2268, Note_off_c, 2, 62, 0
4, 2268, Note_on_c, 2, 60, 93
4, 2280, Note_off_c, 2, 60, 0
4, 2280, Note_on_c, 2, 59, 93
4, 2292, Note_off_c, 2, 59, 0
4, 2292, Note_on_c, 2, 57, 93
4, 2304, Note_off_c, 2, 57, 0
4, 2304, Note_on_c, 2, 55, 93
4, 2352, Note_off_c, 2, 55, 0
4, 2376, Note_on_c, 2, 57, 93
4, 2400, Note_off_c, 2, 57, 0
4, 2400, Note_on_c, 2, 59, 93
4, 2412, Note_off_c, 2, 59, 0
4, 2412, Note_on_c, 2, 57, 93
4, 2424, Note_off_c, 2, 57, 0
4, 2424, Note_on_c, 2, 59, 93
4, 2448, Note_off_c, 2, 59, 0
4, 2472, Note_on_c, 2, 60, 93
4, 2496, Note_off_c, 2, 60, 0
4, 2496, Note_on_c, 2, 62, 93
4, 2508, Note_off_c, 2, 62, 0
4, 2508, Note_on_c, 2, 60, 93
4, 2520, Note_off_c, 2, 60, 0
4, 2520, Note_on_c, 2, 62, 93
4, 2544, Note_off_c, 2, 62, 0
4, 2568, Note_on_c, 2, 64, 93
4, 2592, Note_off_c, 2, 64, 0
4, 2592, Note_on_c, 2, 66, 93
4, 2604, Note_off_c, 2, 66, 0
4, 2604, Note_on_c, 2, 64, 93
4, 2616, Note_off_c, 2, 64, 0
4, 2616, Note_on_c, 2, 66, 93
4, 2640, Note_off_c, 2, 66, 0
4, 2664, Note_on_c, 2, 67, 93
4, 2688, Note_off_c, 2, 67, 0
4, 2688, Note_on_c, 2, 69, 93
4, 2700, Note_off_c, 2, 69, 0
4, 2700, Note_on_c, 2, 67, 93
4, 2712, Note_off_c, 2, 67, 0
4, 2712, Note_on_c, 2, 69, 93
4, 2736, Note_off_c, 2, 69, 0
4, 2760, Note_on_c, 2, 71, 93
4, 2784, Note_off_c, 2, 71, 0
4, 2784, Note_on_c, 2, 73, 93
4, 2796, Note_off_c, 2, 73, 0
4, 2796, Note_on_c, 2, 71, 93
4, 2808, Note_off_c, 2, 71, 0
4, 2808, Note_on_c, 2, 73, 93
4, 2832, Note_off_c, 2, 73, 0
4, 2856, Note_on_c, 2, 74, 93
4, 2880, Note_off_c, 2, 74, 0
4, 2880, Note_on_c, 2, 76, 93
4, 2892, Note_off_c, 2, 76, 0
4, 2892, Note_on_c, 2, 74, 93
4, 2904, Note_off_c, 2, 74, 0
4, 2904, Note_on_c, 2, 76, 93
4, 2928, Note_off_c, 2, 76, 0
4, 2952, Note_on_c, 2, 78, 93
4, 2976, Note_off_c, 2, 78, 0
4, 2976, Note_on_c, 2, 79, 93
4, 2988, Note_off_c, 2, 79, 0
4, 2988, Note_on_c, 2, 78, 93
4, 3000, Note_off_c, 2, 78, 0
4, 3000, Note_on_c, 2, 79, 93
4, 3024, Note_off_c, 2, 79, 0
4, 3048, Note_on_c, 2, 81, 93
4, 3072, Note_off_c, 2, 81, 0
4, 3072, Note_on_c, 2, 83, 93
4, 3084, Note_off_c, 2, 83, 0
4, 3084, Note_on_c, 2, 81, 93
4, 3096, Note_off_c, 2, 81, 0
4, 3096, Note_on_c, 2, 83, 93
4, 3120, Note_off_c, 2, 83, 0
4, 3144, Note_on_c, 2, 74, 93
4, 3168, Note_off_c, 2, 74, 0
4, 3168, Note_on_c, 2, 73, 93
4, 3216, Note_off_c, 2, 73, 0
4, 3240, Note_on_c, 2, 76, 93
4, 3264, Note_off_c, 2, 76, 0
4, 3264, Note_on_c, 2, 67, 93
4, 3312, Note_off_c, 2, 67, 0
4, 3336, Note_on_c, 2, 71, 93
4, 3360, Note_off_c, 2, 71, 0
4, 3360, Note_on_c, 2, 71, 93
4, 3366, Note_off_c, 2, 71, 0
4, 3366, Note_on_c, 2, 69, 93
4, 3378, Note_off_c, 2, 69, 0
4, 3378, Note_on_c, 2, 71, 93
4, 3384, Note_off_c, 2, 71, 0
4, 3384, Note_on_c, 2, 69, 93
4, 3408, Note_off_c, 2, 69, 0
4, 3432, Note_on_c, 2, 67, 93
4, 3456, Note_off_c, 2, 67, 0
4, 3456, Note_on_c, 2, 67, 93
4, 3462, Note_off_c, 2, 67, 0
4, 3462, Note_on_c, 2, 66, 93
4, 3474, Note_off_c, 2, 66, 0
4, 3474, Note_on_c, 2, 67, 93
4, 3480, Note_off_c, 2, 67, 0
4, 3480, Note_on_c, 2, 66, 93
4, 3504, Note_off_c, 2, 66, 0
4, 3528, Note_on_c, 2, 57, 93
4, 3552, Note_off_c, 2, 57, 0
4, 3552, Note_on_c, 2, 69, 93
4, 3576, Note_off_c, 2, 69, 0
4, 3576, Note_on_c, 2, 67, 93
4, 3600, Note_off_c, 2, 67, 0
4, 3600, Note_on_c, 2, 66, 93
4, 3624, Note_off_c, 2, 66, 0
4, 3624, Note_on_c, 2, 64, 93
4, 3648, Note_off_c, 2, 64, 0
4, 3648, Note_on_c, 2, 62, 93
4, 3672, Note_off_c, 2, 62, 0
4, 3672, Note_on_c, 2, 60, 93
4, 3696, Note_off_c, 2, 60, 0
4, 3696, Note_on_c, 2, 59, 93
4, 3720, Note_off_c, 2, 59, 0
4, 3720, Note_on_c, 2, 57, 93
4, 3744, Note_off_c, 2, 57, 0
4, 3744, Note_on_c, 2, 55, 93
4, 3768, Note_off_c, 2, 55, 0
4, 3768, Note_on_c, 2, 59, 93
4, 3792, Note_off_c, 2, 59, 0
4, 3792, Note_on_c, 2, 62, 93
4, 3816, Note_off_c, 2, 62, 0
4, 3816, Note_on_c, 2, 60, 93
4, 3840, Note_off_c, 2, 60, 0
4, 3840, Note_on_c, 2, 59, 93
4, 3864, Note_off_c, 2, 59, 0
4, 3864, Note_on_c, 2, 57, 93
4, 3888, Note_off_c, 2, 57, 0
4, 3888, Note_on_c, 2, 55, 93
4, 3912, Note_off_c, 2, 55, 0
4, 3912, Note_on_c, 2, 54, 93
4, 3936, Note_off_c, 2, 54, 0
4, 3936, Note_on_c, 2, 52, 93
4, 3960, Note_off_c, 2, 52, 0
4, 3960, Note_on_c, 2, 50, 93
4, 3984, Note_off_c, 2, 50, 0
4, 3984, Note_on_c, 2, 49, 93
4, 4008, Note_off_c, 2, 49, 0
4, 4008, Note_on_c, 2, 47, 93
4, 4032, Note_off_c, 2, 47, 0
4, 4032, Note_on_c, 2, 45, 93
4, 4056, Note_off_c, 2, 45, 0
4, 4056, Note_on_c, 2, 52, 93
4, 4080, Note_off_c, 2, 52, 0
4, 4080, Note_on_c, 2, 55, 93
4, 4104, Note_off_c, 2, 55, 0
4, 4104, Note_on_c, 2, 54, 93
4, 4128, Note_off_c, 2, 54, 0
4, 4128, Note_on_c, 2, 52, 93
4, 4152, Note_off_c, 2, 52, 0
4, 4152, Note_on_c, 2, 50, 93
4, 4176, Note_off_c, 2, 50, 0
4, 4176, Note_on_c, 2, 49, 93
4, 4200, Note_off_c, 2, 49, 0
4, 4200, Note_on_c, 2, 47, 93
4, 4224, Note_off_c, 2, 47, 0
4, 4224, Note_on_c, 2, 45, 93
4, 4248, Note_off_c, 2, 45, 0
4, 4248, Note_on_c, 2, 43, 93
4, 4272, Note_off_c, 2, 43, 0
4, 4272, Note_on_c, 2, 42, 93
4, 4296, Note_off_c, 2, 42, 0
4, 4296, Note_on_c, 2, 40, 93
4, 4320, Note_off_c, 2, 40, 0
4, 4320, Note_on_c, 2, 38, 93
4, 4440, Note_off_c, 2, 38, 0
4, 4440, Note_on_c, 2, 40, 93
4, 4452, Note_off_c, 2, 40, 0
4, 4452, Note_on_c, 2, 42, 93
4, 4464, Note_off_c, 2, 42, 0
4, 4464, Note_on_c, 2, 43, 93
4, 4476, Note_off_c, 2, 43, 0
4, 4476, Note_on_c, 2, 45, 93
4, 4488, Note_off_c, 2, 45, 0
4, 4488, Note_on_c, 2, 47, 93
4, 4500, Note_off_c, 2, 47, 0
4, 4500, Note_on_c, 2, 49, 93
4, 4512, Note_off_c, 2, 49, 0
4, 4512, Note_on_c, 2, 50, 93
4, 4560, Note_off_c, 2, 50, 0
4, 4608, Note_on_c, 2, 67, 93
4, 4656, Note_off_c, 2, 67, 0
4, 4656, Note_on_c, 2, 83, 93
4, 4680, Note_off_c, 2, 83, 0
4, 4680, Note_on_c, 2, 81, 93
4, 4704, Note_off_c, 2, 81, 0
4, 4704, Note_on_c, 2, 79, 93
4, 4728, Note_off_c, 2, 79, 0
4, 4728, Note_on_c, 2, 78, 93
4, 4752, Note_off_c, 2, 78, 0
4, 4752, Note_on_c, 2, 76, 93
4, 4776, Note_off_c, 2, 76, 0
4, 4776, Note_on_c, 2, 74, 93
4, 4800, Note_off_c, 2, 74, 0
4, 4800, Note_on_c, 2, 73, 93
4, 4824, Note_off_c, 2, 73, 0
4, 4824, Note_on_c, 2, 71, 93
4, 4848, Note_off_c, 2, 71, 0
4, 4848, Note_on_c, 2, 69, 93
4, 4872, Note_off_c, 2, 69, 0
4, 4872, Note_on_c, 2, 67, 93
4, 4896, Note_off_c, 2, 67, 0
4, 4896, Note_on_c, 2, 66, 93
4, 4944, Note_off_c, 2, 66, 0
4, 4944, Note_on_c, 2, 81, 93
4, 4968, Note_off_c, 2, 81, 0
4, 4968, Note_on_c, 2, 79, 93
4, 4992, Note_off_c, 2, 79, 0
4, 4992, Note_on_c, 2, 78, 93
4, 5016, Note_off_c, 2, 78, 0
4, 5016, Note_on_c, 2, 76, 93
4, 5040, Note_off_c, 2, 76, 0
4, 5040, Note_on_c, 2, 74, 93
4, 5064, Note_off_c, 2, 74, 0
4, 5064, Note_on_c, 2, 73, 93
4, 5088, Note_off_c, 2, 73, 0
4, 5088, Note_on_c, 2, 71, 93
4, 5112, Note_off_c, 2, 71, 0
4, 5112, Note_on_c, 2, 69, 93
4, 5136, Note_off_c, 2, 69, 0
4, 5136, Note_on_c, 2, 67, 93
4, 5160, Note_off_c, 2, 67, 0
4, 5160, Note_on_c, 2, 66, 93
4, 5184, Note_off_c, 2, 66, 0
4, 5184, Note_on_c, 2, 64, 93
4, 5232, Note_off_c, 2, 64, 0
4, 5232, Note_on_c, 2, 79, 93
4, 5256, Note_off_c, 2, 79, 0
4, 5256, Note_on_c, 2, 78, 93
4, 5280, Note_off_c, 2, 78, 0
4, 5280, Note_on_c, 2, 76, 93
4, 5304, Note_off_c, 2, 76, 0
4, 5304, Note_on_c, 2, 74, 93
4, 5328, Note_off_c, 2, 74, 0
4, 5328, Note_on_c, 2, 73, 93
4, 5352, Note_off_c, 2, 73, 0
4, 5352, Note_on_c, 2, 71, 93
4, 5376, Note_off_c, 2, 71, 0
4, 5376, Note_on_c, 2, 69, 93
4, 5400, Note_off_c, 2, 69, 0
4, 5400, Note_on_c, 2, 67, 93
4, 5424, Note_off_c, 2, 67, 0
4, 5424, Note_on_c, 2, 66, 93
4, 5448, Note_off_c, 2, 66, 0
4, 5448, Note_on_c, 2, 64, 93
4, 5472, Note_off_c, 2, 64, 0
4, 5472, Note_on_c, 2, 62, 93
4, 5520, Note_off_c, 2, 62, 0
4, 5544, Note_on_c, 2, 60, 93
4, 5556, Note_off_c, 2, 60, 0
4, 5556, Note_on_c, 2, 59, 93
4, 5568, Note_off_c, 2, 59, 0
4, 5568, Note_on_c, 2, 57, 93
4, 5580, Note_off_c, 2, 57, 0
4, 5580, Note_on_c, 2, 55, 93
4, 5592, Note_off_c, 2, 55, 0
4, 5592, Note_on_c, 2, 54, 93
4, 5604, Note_off_c, 2, 54, 0
4, 5604, Note_on_c, 2, 52, 93
4, 5616, Note_off_c, 2, 52, 0
4, 5616, Note_on_c, 2, 50, 93
4, 5664, Note_off_c, 2, 50, 0
4, 5736, Note_on_c, 2, 48, 93
4, 5760, Note_off_c, 2, 48, 0
4, 5760, Note_on_c, 2, 47, 93
4, 5808, Note_off_c, 2, 47, 0
4, 5856, Note_on_c, 2, 59, 93
4, 5880, Note_off_c, 2, 59, 0
4, 5880, Note_on_c, 2, 60, 93
4, 5904, Note_off_c, 2, 60, 0
4, 5904, Note_on_c, 2, 62, 93
4, 5928, Note_off_c, 2, 62, 0
4, 5928, Note_on_c, 2, 64, 93
4, 5952, Note_off_c, 2, 64, 0
4, 5952, Note_on_c, 2, 66, 93
4, 5976, Note_off_c, 2, 66, 0
4, 5976, Note_on_c, 2, 67, 93
4, 6000, Note_off_c, 2, 67, 0
4, 6000, Note_on_c, 2, 69, 93
4, 6024, Note_off_c, 2, 69, 0
4, 6024, Note_on_c, 2, 71, 93
4, 6048, Note_off_c, 2, 71, 0
4, 6048, Note_on_c, 2, 72, 93
4, 6072, Note_off_c, 2, 72, 0
4, 6072, Note_on_c, 2, 74, 93
4, 6096, Note_off_c, 2, 74, 0
4, 6096, Note_on_c, 2, 76, 93
4, 6144, Note_off_c, 2, 76, 0
4, 6144, Note_on_c, 2, 60, 93
4, 6168, Note_off_c, 2, 60, 0
4, 6168, Note_on_c, 2, 62, 93
4, 6192, Note_off_c, 2, 62, 0
4, 6192, Note_on_c, 2, 64, 93
4, 6216, Note_off_c, 2, 64, 0
4, 6216, Note_on_c, 2, 66, 93
4, 6240, Note_off_c, 2, 66, 0
4, 6240, Note_on_c, 2, 67, 93
4, 6264, Note_off_c, 2, 67, 0
4, 6264, Note_on_c, 2, 69, 93
4, 6288, Note_off_c, 2, 69, 0
4, 6288, Note_on_c, 2, 71, 93
4, 6312, Note_off_c, 2, 71, 0
4, 6312, Note_on_c, 2, 72, 93
4, 6336, Note_off_c, 2, 72, 0
4, 6336, Note_on_c, 2, 74, 93
4, 6360, Note_off_c, 2, 74, 0
4, 6360, Note_on_c, 2, 76, 93
4, 6384, Note_off_c, 2, 76, 0
4, 6384, Note_on_c, 2, 78, 93
4, 6432, Note_off_c, 2, 78, 0
4, 6432, Note_on_c, 2, 62, 93
4, 6456, Note_off_c, 2, 62, 0
4, 6456, Note_on_c, 2, 64, 93
4, 6480, Note_off_c, 2, 64, 0
4, 6480, Note_on_c, 2, 66, 93
4, 6504, Note_off_c, 2, 66, 0
4, 6504, Note_on_c, 2, 67, 93
4, 6528, Note_off_c, 2, 67, 0
4, 6528, Note_on_c, 2, 69, 93
4, 6552, Note_off_c, 2, 69, 0
4, 6552, Note_on_c, 2, 71, 93
4, 6576, Note_off_c, 2, 71, 0
4, 6576, Note_on_c, 2, 72, 93
4, 6600, Note_off_c, 2, 72, 0
4, 6600, Note_on_c, 2, 69, 93
4, 6624, Note_off_c, 2, 69, 0
4, 6624, Note_on_c, 2, 71, 93
4, 6636, Note_off_c, 2, 71, 0
4, 6636, Note_on_c, 2, 67, 93
4, 6648, Note_off_c, 2, 67, 0
4, 6648, Note_on_c, 2, 69, 93
4, 6660, Note_off_c, 2, 69, 0
4, 6660, Note_on_c, 2, 71, 93
4, 6672, Note_off_c, 2, 71, 0
4, 6672, Note_on_c, 2, 72, 93
4, 6684, Note_off_c, 2, 72, 0
4, 6684, Note_on_c, 2, 74, 93
4, 6696, Note_off_c, 2, 74, 0
4, 6696, Note_on_c, 2, 76, 93
4, 6708, Note_off_c, 2, 76, 0
4, 6708, Note_on_c, 2, 78, 93
4, 6720, Note_off_c, 2, 78, 0
4, 6720, Note_on_c, 2, 79, 93
4, 6744, Note_off_c, 2, 79, 0
4, 6840, Note_on_c, 2, 66, 93
4, 6852, Note_off_c, 2, 66, 0
4, 6852, Note_on_c, 2, 64, 93
4, 6864, Note_off_c, 2, 64, 0
4, 6864, Note_on_c, 2, 62, 93
4, 6876, Note_off_c, 2, 62, 0
4, 6876, Note_on_c, 2, 60, 93
4, 6888, Note_off_c, 2, 60, 0
4, 6888, Note_on_c, 2, 59, 93
4, 6900, Note_off_c, 2, 59, 0
4, 6900, Note_on_c, 2, 57, 93
4, 6912, Note_off_c, 2, 57, 0
4, 6912, Note_on_c, 2, 55, 93
4, 6960, Note_off_c, 2, 55, 0
4, 6984, Note_on_c, 2, 57, 93
4, 7008, Note_off_c, 2, 57, 0
4, 7008, Note_on_c, 2, 59, 93
4, 7020, Note_off_c, 2, 59, 0
4, 7020, Note_on_c, 2, 57, 93
4, 7032, Note_off_c, 2, 57, 0
4, 7032, Note_on_c, 2, 59, 93
4, 7056, Note_off_c, 2, 59, 0
4, 7080, Note_on_c, 2, 60, 93
4, 7104, Note_off_c, 2, 60, 0
4, 7104, Note_on_c, 2, 62, 93
4, 7116, Note_off_c, 2, 62, 0
4, 7116, Note_on_c, 2, 60, 93
4, 7128, Note_off_c, 2, 60, 0
4, 7128, Note_on_c, 2, 62, 93
4, 7152, Note_off_c, 2, 62, 0
4, 7176, Note_on_c, 2, 64, 93
4, 7200, Note_off_c, 2, 64, 0
4, 7200, Note_on_c, 2, 66, 93
4, 7212, Note_off_c, 2, 66, 0
4, 7212, Note_on_c, 2, 64, 93
4, 7224, Note_off_c, 2, 64, 0
4, 7224, Note_on_c, 2, 66, 93
4, 7248, Note_off_c, 2, 66, 0
4, 7272, Note_on_c, 2, 67, 93
4, 7296, Note_off_c, 2, 67, 0
4, 7296, Note_on_c, 2, 69, 93
4, 7308, Note_off_c, 2, 69, 0
4, 7308, Note_on_c, 2, 67, 93
4, 7320, Note_off_c, 2, 67, 0
4, 7320, Note_on_c, 2, 69, 93
4, 7344, Note_off_c, 2, 69, 0
4, 7368, Note_on_c, 2, 71, 93
4, 7392, Note_off_c, 2, 71, 0
4, 7392, Note_on_c, 2, 73, 93
4, 7404, Note_off_c, 2, 73, 0
4, 7404, Note_on_c, 2, 71, 93
4, 7416, Note_off_c, 2, 71, 0
4, 7416, Note_on_c, 2, 73, 93
4, 7440, Note_off_c, 2, 73, 0
4, 7464, Note_on_c, 2, 74, 93
4, 7488, Note_off_c, 2, 74, 0
4, 7488, Note_on_c, 2, 76, 93
4, 7500, Note_off_c, 2, 76, 0
4, 7500, Note_on_c, 2, 74, 93
4, 7512, Note_off_c, 2, 74, 0
4, 7512, Note_on_c, 2, 76, 93
4, 7536, Note_off_c, 2, 76, 0
4, 7560, Note_on_c, 2, 78, 93
4, 7584, Note_off_c, 2, 78, 0
4, 7584, Note_on_c, 2, 79, 93
4, 7596, Note_off_c, 2, 79, 0
4, 7596, Note_on_c, 2, 78, 93
4, 7608, Note_off_c, 2, 78, 0
4, 7608, Note_on_c, 2, 79, 93
4, 7632, Note_off_c, 2, 79, 0
4, 7656, Note_on_c, 2, 81, 93
4, 7680, Note_off_c, 2, 81, 0
4, 7680, Note_on_c, 2, 83, 93
4, 7692, Note_off_c, 2, 83, 0
4, 7692, Note_on_c, 2, 81, 93
4, 7704, Note_off_c, 2, 81, 0
4, 7704, Note_on_c, 2, 83, 93
4, 7728, Note_off_c, 2, 83, 0
4, 7752, Note_on_c, 2, 74, 93
4, 7776, Note_off_c, 2, 74, 0
4, 7776, Note_on_c, 2, 73, 93
4, 7824, Note_off_c, 2, 73, 0
4, 7848, Note_on_c, 2, 76, 93
4, 7872, Note_off_c, 2, 76, 0
4, 7872, Note_on_c, 2, 67, 93
4, 7920, Note_off_c, 2, 67, 0
4, 7944, Note_on_c, 2, 71, 93
4, 7968, Note_off_c, 2, 71, 0
4, 7968, Note_on_c, 2, 71, 93
4, 7974, Note_off_c, 2, 71, 0
4, 7974, Note_on_c, 2, 69, 93
4, 7986, Note_off_c, 2, 69, 0
4, 7986, Note_on_c, 2, 71, 93
4, 7992, Note_off_c, 2, 71, 0
4, 7992, Note_on_c, 2, 69, 93
4, 8016, Note_off_c, 2, 69, 0
4, 8040, Note_on_c, 2, 67, 93
4, 8064, Note_off_c, 2, 67, 0
4, 8064, Note_on_c, 2, 67, 93
4, 8070, Note_off_c, 2, 67, 0
4, 8070, Note_on_c, 2, 66, 93
4, 8082, Note_off_c, 2, 66, 0
4, 8082, Note_on_c, 2, 67, 93
4, 8088, Note_off_c, 2, 67, 0
4, 8088, Note_on_c, 2, 66, 93
4, 8112, Note_off_c, 2, 66, 0
4, 8136, Note_on_c, 2, 57, 93
4, 8160, Note_off_c, 2, 57, 0
4, 8160, Note_on_c, 2, 69, 93
4, 8184, Note_off_c, 2, 69, 0
4, 8184, Note_on_c, 2, 67, 93
4, 8208, Note_off_c, 2, 67, 0
4, 8208, Note_on_c, 2, 66, 93
4, 8232, Note_off_c, 2, 66, 0
4, 8232, Note_on_c, 2, 64, 93
4, 8256, Note_off_c, 2, 64, 0
4, 8256, Note_on_c, 2, 62, 93
4, 8280, Note_off_c, 2, 62, 0
4, 8280, Note_on_c, 2, 60, 93
4, 8304, Note_off_c, 2, 60, 0
4, 8304, Note_on_c, 2, 59, 93
4, 8328, Note_off_c, 2, 59, 0
4, 8328, Note_on_c, 2, 57, 93
4, 8352, Note_off_c, 2, 57, 0
4, 8352, Note_on_c, 2, 55, 93
4, 8376, Note_off_c, 2, 55, 0
4, 8376, Note_on_c, 2, 59, 93
4, 8400, Note_off_c, 2, 59, 0
4, 8400, Note_on_c, 2, 62, 93
4, 8424, Note_off_c, 2, 62, 0
4, 8424, Note_on_c, 2, 60, 93
4, 8448, Note_off_c, 2, 60, 0
4, 8448, Note_on_c, 2, 59, 93
4, 8472, Note_off_c, 2, 59, 0
4, 8472, Note_on_c, 2, 57, 93
4, 8496, Note_off_c, 2, 57, 0
4, 8496, Note_on_c, 2, 55, 93
4, 8520, Note_off_c, 2, 55, 0
4, 8520, Note_on_c, 2, 54, 93
4, 8544, Note_off_c, 2, 54, 0
4, 8544, Note_on_c, 2, 52, 93
4, 8568, Note_off_c, 2, 52, 0
4, 8568, Note_on_c, 2, 50, 93
4, 8592, Note_off_c, 2, 50, 0
4, 8592, Note_on_c, 2, 49, 93
4, 8616, Note_off_c, 2, 49, 0
4, 8616, Note_on_c, 2, 47, 93
4, 8640, Note_off_c, 2, 47, 0
4, 8640, Note_on_c, 2, 45, 93
4, 8664, Note_off_c, 2, 45, 0
4, 8664, Note_on_c, 2, 52, 93
4, 8688, Note_off_c, 2, 52, 0
4, 8688, Note_on_c, 2, 55, 93
4, 8712, Note_off_c, 2, 55, 0
4, 8712, Note_on_c, 2, 54, 93
4, 8736, Note_off_c, 2, 54, 0
4, 8736, Note_on_c, 2, 52, 93
4, 8760, Note_off_c, 2, 52, 0
4, 8760, Note_on_c, 2, 50, 93
4, 8784, Note_off_c, 2, 50, 0
4, 8784, Note_on_c, 2, 49, 93
4, 8808, Note_off_c, 2, 49, 0
4, 8808, Note_on_c, 2, 47, 93
4, 8832, Note_off_c, 2, 47, 0
4, 8832, Note_on_c, 2, 45, 93
4, 8856, Note_off_c, 2, 45, 0
4, 8856, Note_on_c, 2, 43, 93
4, 8880, Note_off_c, 2, 43, 0
4, 8880, Note_on_c, 2, 42, 93
4, 8904, Note_off_c, 2, 42, 0
4, 8904, Note_on_c, 2, 40, 93
4, 8928, Note_off_c, 2, 40, 0
4, 8928, Note_on_c, 2, 38, 93
4, 9048, Note_off_c, 2, 38, 0
4, 9048, Note_on_c, 2, 40, 93
4, 9060, Note_off_c, 2, 40, 0
4, 9060, Note_on_c, 2, 42, 93
4, 9072, Note_off_c, 2, 42, 0
4, 9072, Note_on_c, 2, 43, 93
4, 9084, Note_off_c, 2, 43, 0
4, 9084, Note_on_c, 2, 45, 93
4, 9096, Note_off_c, 2, 45, 0
4, 9096, Note_on_c, 2, 47, 93
4, 9108, Note_off_c, 2, 47, 0
4, 9108, Note_on_c, 2, 49, 93
4, 9120, Note_off_c, 2, 49, 0
4, 9120, Note_on_c, 2, 50, 93
4, 9168, Note_off_c, 2, 50, 0
4, 9240, Note_on_c, 2, 50, 93
4, 9264, Note_off_c, 2, 50, 0
4, 9264, Note_on_c, 2, 50, 93
4, 9288, Note_off_c, 2, 50, 0
4, 9324, Note_on_c, 2, 52, 93
4, 9336, Note_off_c, 2, 52, 0
4, 9336, Note_on_c, 2, 54, 93
4, 9348, Note_off_c, 2, 54, 0
4, 9348, Note_on_c, 2, 55, 93
4, 9360, Note_off_c, 2, 55, 0
4, 9360, Note_on_c, 2, 57, 93
4, 9384, Note_off_c, 2, 57, 0
4, 9420, Note_on_c, 2, 57, 93
4, 9432, Note_off_c, 2, 57, 0
4, 9432, Note_on_c, 2, 59, 93
4, 9444, Note_off_c, 2, 59, 0
4, 9444, Note_on_c, 2, 60, 93
4, 9456, Note_off_c, 2, 60, 0
4, 9456, Note_on_c, 2, 62, 93
4, 9480, Note_off_c, 2, 62, 0
4, 9528, Note_on_c, 2, 55, 93
4, 9552, Note_off_c, 2, 55, 0
4, 9552, Note_on_c, 2, 55, 93
4, 9576, Note_off_c, 2, 55, 0
4, 9612, Note_on_c, 2, 62, 93
4, 9624, Note_off_c, 2, 62, 0
4, 9624, Note_on_c, 2, 64, 93
4, 9636, Note_off_c, 2, 64, 0
4, 9636, Note_on_c, 2, 66, 93
4, 9648, Note_off_c, 2, 66, 0
4, 9648, Note_on_c, 2, 67, 93
4, 9672, Note_off_c, 2, 67, 0
4, 9708, Note_on_c, 2, 66, 93
4, 9720, Note_off_c, 2, 66, 0
4, 9720, Note_on_c, 2, 67, 93
4, 9732, Note_off_c, 2, 67, 0
4, 9732, Note_on_c, 2, 69, 93
4, 9744, Note_off_c, 2, 69, 0
4, 9744, Note_on_c, 2, 71, 93
4, 9768, Note_off_c, 2, 71, 0
4, 9816, Note_on_c, 2, 69, 93
4, 9840, Note_off_c, 2, 69, 0
4, 9840, Note_on_c, 2, 69, 93
4, 9864, Note_off_c, 2, 69, 0
4, 9900, Note_on_c, 2, 71, 93
4, 9912, Note_off_c, 2, 71, 0
4, 9912, Note_on_c, 2, 72, 93
4, 9924, Note_off_c, 2, 72, 0
4, 9924, Note_on_c, 2, 74, 93
4, 9936, Note_off_c, 2, 74, 0
4, 9936, Note_on_c, 2, 76, 93
4, 9960, Note_off_c, 2, 76, 0
4, 9996, Note_on_c, 2, 76, 93
4, 10008, Note_off_c, 2, 76, 0
4, 10008, Note_on_c, 2, 78, 93
4, 10020, Note_off_c, 2, 78, 0
4, 10020, Note_on_c, 2, 79, 93
4, 10032, Note_off_c, 2, 79, 0
4, 10032, Note_on_c, 2, 81, 93
4, 10056, Note_off_c, 2, 81, 0
4, 10104, Note_on_c, 2, 84, 93
4, 10128, Note_off_c, 2, 84, 0
4, 10128, Note_on_c, 2, 84, 93
4, 10152, Note_off_c, 2, 84, 0
4, 10188, Note_on_c, 2, 83, 93
4, 10200, Note_off_c, 2, 83, 0
4, 10200, Note_on_c, 2, 81, 93
4, 10212, Note_off_c, 2, 81, 0
4, 10212, Note_on_c, 2, 79, 93
4, 10224, Note_off_c, 2, 79, 0
4, 10224, Note_on_c, 2, 78, 93
4, 10248, Note_off_c, 2, 78, 0
4, 10284, Note_on_c, 2, 79, 93
4, 10296, Note_off_c, 2, 79, 0
4, 10296, Note_on_c, 2, 78, 93
4, 10308, Note_off_c, 2, 78, 0
4, 10308, Note_on_c, 2, 76, 93
4, 10320, Note_off_c, 2, 76, 0
4, 10320, Note_on_c, 2, 75, 93
4, 10344, Note_off_c, 2, 75, 0
4, 10392, Note_on_c, 2, 76, 93
4, 10416, Note_off_c, 2, 76, 0
4, 10416, Note_on_c, 2, 74, 93
4, 10440, Note_off_c, 2, 74, 0
4, 10440, Note_on_c, 2, 72, 93
4, 10464, Note_off_c, 2, 72, 0
4, 10464, Note_on_c, 2, 71, 93
4, 10488, Note_off_c, 2, 71, 0
4, 10488, Note_on_c, 2, 69, 93
4, 10512, Note_off_c, 2, 69, 0
4, 10512, Note_on_c, 2, 67, 93
4, 10536, Note_off_c, 2, 67, 0
4, 10536, Note_on_c, 2, 66, 93
4, 10560, Note_off_c, 2, 66, 0
4, 10560, Note_on_c, 2, 64, 93
4, 10584, Note_off_c, 2, 64, 0
4, 10584, Note_on_c, 2, 62, 93
4, 10608, Note_off_c, 2, 62, 0
4, 10608, Note_on_c, 2, 60, 93
4, 10632, Note_off_c, 2, 60, 0
4, 10632, Note_on_c, 2, 59, 93
4, 10656, Note_off_c, 2, 59, 0
4, 10656, Note_on_c, 2, 57, 93
4, 10704, Note_off_c, 2, 57, 0
4, 10776, Note_on_c, 2, 56, 93
4, 10800, Note_off_c, 2, 56, 0
4, 10800, Note_on_c, 2, 57, 93
4, 10824, Note_off_c, 2, 57, 0
4, 10824, Note_on_c, 2, 59, 93
4, 10848, Note_off_c, 2, 59, 0
4, 10848, Note_on_c, 2, 60, 93
4, 10872, Note_off_c, 2, 60, 0
4, 10872, Note_on_c, 2, 61, 93
4, 10896, Note_off_c, 2, 61, 0
4, 10896, Note_on_c, 2, 62, 93
4, 10920, Note_off_c, 2, 62, 0
4, 10920, Note_on_c, 2, 64, 93
4, 10944, Note_off_c, 2, 64, 0
4, 10944, Note_on_c, 2, 66, 93
4, 10992, Note_off_c, 2, 66, 0
4, 11016, Note_on_c, 2, 57, 93
4, 11040, Note_off_c, 2, 57, 0
4, 11040, Note_on_c, 2, 55, 93
4, 11088, Note_off_c, 2, 55, 0
4, 11088, Note_on_c, 2, 60, 93
4, 11136, Note_off_c, 2, 60, 0
4, 11136, Note_on_c, 2, 57, 93
4, 11184, Note_off_c, 2, 57, 0
4, 11184, Note_on_c, 2, 59, 93
4, 11232, Note_off_c, 2, 59, 0
4, 11232, Note_on_c, 2, 52, 93
4, 11280, Note_off_c, 2, 52, 0
4, 11292, Note_on_c, 2, 69, 93
4, 11304, Note_off_c, 2, 69, 0
4, 11304, Note_on_c, 2, 67, 93
4, 11316, Note_off_c, 2, 67, 0
4, 11316, Note_on_c, 2, 66, 93
4, 11328, Note_off_c, 2, 66, 0
4, 11328, Note_on_c, 2, 67, 93
4, 11340, Note_off_c, 2, 67, 0
4, 11388, Note_on_c, 2, 60, 93
4, 11400, Note_off_c, 2, 60, 0
4, 11400, Note_on_c, 2, 59, 93
4, 11412, Note_off_c, 2, 59, 0
4, 11412, Note_on_c, 2, 57, 93
4, 11424, Note_off_c, 2, 57, 0
4, 11424, Note_on_c, 2, 59, 93
4, 11436, Note_off_c, 2, 59, 0
4, 11484, Note_on_c, 2, 53, 93
4, 11496, Note_off_c, 2, 53, 0
4, 11496, Note_on_c, 2, 52, 93
4, 11508, Note_off_c, 2, 52, 0
4, 11508, Note_on_c, 2, 50, 93
4, 11520, Note_off_c, 2, 50, 0
4, 11520, Note_on_c, 2, 48, 93
4, 11568, Note_off_c, 2, 48, 0
4, 11640, Note_on_c, 2, 62, 93
4, 11664, Note_off_c, 2, 62, 0
4, 11664, Note_on_c, 2, 60, 93
4, 11688, Note_off_c, 2, 60, 0
4, 11688, Note_on_c, 2, 59, 93
4, 11712, Note_off_c, 2, 59, 0
4, 11712, Note_on_c, 2, 57, 93
4, 11736, Note_off_c, 2, 57, 0
4, 11736, Note_on_c, 2, 55, 93
4, 11760, Note_off_c, 2, 55, 0
4, 11760, Note_on_c, 2, 54, 93
4, 11784, Note_off_c, 2, 54, 0
4, 11784, Note_on_c, 2, 52, 93
4, 11808, Note_off_c, 2, 52, 0
4, 11808, Note_on_c, 2, 50, 93
4, 11856, Note_off_c, 2, 50, 0
4, 11928, Note_on_c, 2, 48, 93
4, 11952, Note_off_c, 2, 48, 0
4, 11952, Note_on_c, 2, 50, 93
4, 11976, Note_off_c, 2, 50, 0
4, 11976, Note_on_c, 2, 52, 93
4, 12000, Note_off_c, 2, 52, 0
4, 12000, Note_on_c, 2, 54, 93
4, 12024, Note_off_c, 2, 54, 0
4, 12024, Note_on_c, 2, 55, 93
4, 12048, Note_off_c, 2, 55, 0
4, 12048, Note_on_c, 2, 57, 93
4, 12072, Note_off_c, 2, 57, 0
4, 12072, Note_on_c, 2, 59, 93
4, 12096, Note_off_c, 2, 59, 0
4, 12096, Note_on_c, 2, 60, 93
4, 12144, Note_off_c, 2, 60, 0
4, 12144, Note_on_c, 2, 60, 93
4, 12192, Note_off_c, 2, 60, 0
4, 12192, Note_on_c, 2, 60, 93
4, 12240, Note_off_c, 2, 60, 0
4, 12240, Note_on_c, 2, 60, 93
4, 12288, Note_off_c, 2, 60, 0
4, 12288, Note_on_c, 2, 57, 93
4, 12336, Note_off_c, 2, 57, 0
4, 12336, Note_on_c, 2, 57, 93
4, 12384, Note_off_c, 2, 57, 0
4, 12384, Note_on_c, 2, 54, 93
4, 12432, Note_off_c, 2, 54, 0
4, 12432, Note_on_c, 2, 54, 93
4, 12480, Note_off_c, 2, 54, 0
4, 12480, Note_on_c, 2, 54, 93
4, 12528, Note_off_c, 2, 54, 0
4, 12528, Note_on_c, 2, 54, 93
4, 12576, Note_off_c, 2, 54, 0
4, 12576, Note_on_c, 2, 50, 93
4, 12624, Note_off_c, 2, 50, 0
4, 12624, Note_on_c, 2, 50, 93
4, 12672, Note_off_c, 2, 50, 0
4, 12672, Note_on_c, 2, 47, 93
4, 12720, Note_off_c, 2, 47, 0
4, 12720, Note_on_c, 2, 47, 93
4, 12768, Note_off_c, 2, 47, 0
4, 12768, Note_on_c, 2, 47, 93
4, 12816, Note_off_c, 2, 47, 0
4, 12816, Note_on_c, 2, 50, 93
4, 12864, Note_off_c, 2, 50, 0
4, 12864, Note_on_c, 2, 53, 93
4, 12912, Note_off_c, 2, 53, 0
4, 12912, Note_on_c, 2, 57, 93
4, 12960, Note_off_c, 2, 57, 0
4, 12960, Note_on_c, 2, 60, 93
4, 13008, Note_off_c, 2, 60, 0
4, 13008, Note_on_c, 2, 60, 93
4, 13056, Note_off_c, 2, 60, 0
4, 13056, Note_on_c, 2, 60, 93
4, 13104, Note_off_c, 2, 60, 0
4, 13104, Note_on_c, 2, 64, 93
4, 13152, Note_off_c, 2, 64, 0
4, 13152, Note_on_c, 2, 67, 93
4, 13200, Note_off_c, 2, 67, 0
4, 13200, Note_on_c, 2, 71, 93
4, 13248, Note_off_c, 2, 71, 0
4, 13248, Note_on_c, 2, 74, 93
4, 13272, Note_off_c, 2, 74, 0
4, 13368, Note_on_c, 2, 64, 93
4, 13392, Note_off_c, 2, 64, 0
4, 13392, Note_on_c, 2, 62, 93
4, 13416, Note_off_c, 2, 62, 0
4, 13416, Note_on_c, 2, 60, 93
4, 13440, Note_off_c, 2, 60, 0
4, 13440, Note_on_c, 2, 59, 93
4, 13464, Note_off_c, 2, 59, 0
4, 13464, Note_on_c, 2, 57, 93
4, 13488, Note_off_c, 2, 57, 0
4, 13488, Note_on_c, 2, 55, 93
4, 13512, Note_off_c, 2, 55, 0
4, 13512, Note_on_c, 2, 54, 93
4, 13536, Note_off_c, 2, 54, 0
4, 13536, Note_on_c, 2, 55, 93
4, 13560, Note_off_c, 2, 55, 0
4, 13560, Note_on_c, 2, 47, 93
4, 13584, Note_off_c, 2, 47, 0
4, 13584, Note_on_c, 2, 48, 93
4, 13608, Note_off_c, 2, 48, 0
4, 13608, Note_on_c, 2, 50, 93
4, 13632, Note_off_c, 2, 50, 0
4, 13632, Note_on_c, 2, 52, 93
4, 13656, Note_off_c, 2, 52, 0
4, 13656, Note_on_c, 2, 54, 93
4, 13680, Note_off_c, 2, 54, 0
4, 13680, Note_on_c, 2, 55, 93
4, 13704, Note_off_c, 2, 55, 0
4, 13704, Note_on_c, 2, 57, 93
4, 13728, Note_off_c, 2, 57, 0
4, 13728, Note_on_c, 2, 59, 93
4, 13776, Note_off_c, 2, 59, 0
4, 13848, Note_on_c, 2, 50, 93
4, 13872, Note_off_c, 2, 50, 0
4, 13872, Note_on_c, 2, 50, 93
4, 13896, Note_off_c, 2, 50, 0
4, 13932, Note_on_c, 2, 52, 93
4, 13944, Note_off_c, 2, 52, 0
4, 13944, Note_on_c, 2, 54, 93
4, 13956, Note_off_c, 2, 54, 0
4, 13956, Note_on_c, 2, 55, 93
4, 13968, Note_off_c, 2, 55, 0
4, 13968, Note_on_c, 2, 57, 93
4, 13992, Note_off_c, 2, 57, 0
4, 14028, Note_on_c, 2, 57, 93
4, 14040, Note_off_c, 2, 57, 0
4, 14040, Note_on_c, 2, 59, 93
4, 14052, Note_off_c, 2, 59, 0
4, 14052, Note_on_c, 2, 60, 93
4, 14064, Note_off_c, 2, 60, 0
4, 14064, Note_on_c, 2, 62, 93
4, 14088, Note_off_c, 2, 62, 0
4, 14136, Note_on_c, 2, 55, 93
4, 14160, Note_off_c, 2, 55, 0
4, 14160, Note_on_c, 2, 55, 93
4, 14184, Note_off_c, 2, 55, 0
4, 14220, Note_on_c, 2, 62, 93
4, 14232, Note_off_c, 2, 62, 0
4, 14232, Note_on_c, 2, 64, 93
4, 14244, Note_off_c, 2, 64, 0
4, 14244, Note_on_c, 2, 66, 93
4, 14256, Note_off_c, 2, 66, 0
4, 14256, Note_on_c, 2, 67, 93
4, 14280, Note_off_c, 2, 67, 0
4, 14316, Note_on_c, 2, 66, 93
4, 14328, Note_off_c, 2, 66, 0
4, 14328, Note_on_c, 2, 67, 93
4, 14340, Note_off_c, 2, 67, 0
4, 14340, Note_on_c, 2, 69, 93
4, 14352, Note_off_c, 2, 69, 0
4, 14352, Note_on_c, 2, 71, 93
4, 14376, Note_off_c, 2, 71, 0
4, 14424, Note_on_c, 2, 69, 93
4, 14448, Note_off_c, 2, 69, 0
4, 14448, Note_on_c, 2, 69, 93
4, 14472, Note_off_c, 2, 69, 0
4, 14508, Note_on_c, 2, 71, 93
4, 14520, Note_off_c, 2, 71, 0
4, 14520, Note_on_c, 2, 72, 93
4, 14532, Note_off_c, 2, 72, 0
4, 14532, Note_on_c, 2, 74, 93
4, 14544, Note_off_c, 2, 74, 0
4, 14544, Note_on_c, 2, 76, 93
4, 14568, Note_off_c, 2, 76, 0
4, 14604, Note_on_c, 2, 76, 93
4, 14616, Note_off_c, 2, 76, 0
4, 14616, Note_on_c, 2, 78, 93
4, 14628, Note_off_c, 2, 78, 0
4, 14628, Note_on_c, 2, 79, 93
4, 14640, Note_off_c, 2, 79, 0
4, 14640, Note_on_c, 2, 81, 93
4, 14664, Note_off_c, 2, 81, 0
4, 14712, Note_on_c, 2, 84, 93
4, 14736, Note_off_c, 2, 84, 0
4, 14736, Note_on_c, 2, 84, 93
4, 14760, Note_off_c, 2, 84, 0
4, 14796, Note_on_c, 2, 83, 93
4, 14808, Note_off_c, 2, 83, 0
4, 14808, Note_on_c, 2, 81, 93
4, 14820, Note_off_c, 2, 81, 0
4, 14820, Note_on_c, 2, 79, 93
4, 14832, Note_off_c, 2, 79, 0
4, 14832, Note_on_c, 2, 78, 93
4, 14856, Note_off_c, 2, 78, 0
4, 14892, Note_on_c, 2, 79, 93
4, 14904, Note_off_c, 2, 79, 0
4, 14904, Note_on_c, 2, 78, 93
4, 14916, Note_off_c, 2, 78, 0
4, 14916, Note_on_c, 2, 76, 93
4, 14928, Note_off_c, 2, 76, 0
4, 14928, Note_on_c, 2, 75, 93
4, 14952, Note_off_c, 2, 75, 0
4, 15000, Note_on_c, 2, 76, 93
4, 15024, Note_off_c, 2, 76, 0
4, 15024, Note_on_c, 2, 74, 93
4, 15048, Note_off_c, 2, 74, 0
4, 15048, Note_on_c, 2, 72, 93
4, 15072, Note_off_c, 2, 72, 0
4, 15072, Note_on_c, 2, 71, 93
4, 15096, Note_off_c, 2, 71, 0
4, 15096, Note_on_c, 2, 69, 93
4, 15120, Note_off_c, 2, 69, 0
4, 15120, Note_on_c, 2, 67, 93
4, 15144, Note_off_c, 2, 67, 0
4, 15144, Note_on_c, 2, 66, 93
4, 15168, Note_off_c, 2, 66, 0
4, 15168, Note_on_c, 2, 64, 93
4, 15192, Note_off_c, 2, 64, 0
4, 15192, Note_on_c, 2, 62, 93
4, 15216, Note_off_c, 2, 62, 0
4, 15216, Note_on_c, 2, 60, 93
4, 15240, Note_off_c, 2, 60, 0
4, 15240, Note_on_c, 2, 59, 93
4, 15264, Note_off_c, 2, 59, 0
4, 15264, Note_on_c, 2, 57, 93
4, 15312, Note_off_c, 2, 57, 0
4, 15384, Note_on_c, 2, 56, 93
4, 15408, Note_off_c, 2, 56, 0
4, 15408, Note_on_c, 2, 57, 93
4, 15432, Note_off_c, 2, 57, 0
4, 15432, Note_on_c, 2, 59, 93
4, 15456, Note_off_c, 2, 59, 0
4, 15456, Note_on_c, 2, 60, 93
4, 15480, Note_off_c, 2, 60, 0
4, 15480, Note_on_c, 2, 61, 93
4, 15504, Note_off_c, 2, 61, 0
4, 15504, Note_on_c, 2, 62, 93
4, 15528, Note_off_c, 2, 62, 0
4, 15528, Note_on_c, 2, 64, 93
4, 15552, Note_off_c, 2, 64, 0
4, 15552, Note_on_c, 2, 66, 93
4, 15600, Note_off_c, 2, 66, 0
4, 15624, Note_on_c, 2, 57, 93
4, 15648, Note_off_c, 2, 57, 0
4, 15648, Note_on_c, 2, 55, 93
4, 15696, Note_off_c, 2, 55, 0
4, 15696, Note_on_c, 2, 60, 93
4, 15744, Note_off_c, 2, 60, 0
4, 15744, Note_on_c, 2, 57, 93
4, 15792, Note_off_c, 2, 57, 0
4, 15792, Note_on_c, 2, 59, 93
4, 15840, Note_off_c, 2, 59, 0
4, 15840, Note_on_c, 2, 52, 93
4, 15888, Note_off_c, 2, 52, 0
4, 15900, Note_on_c, 2, 69, 93
4, 15912, Note_off_c, 2, 69, 0
4, 15912, Note_on_c, 2, 67, 93
4, 15924, Note_off_c, 2, 67, 0
4, 15924, Note_on_c, 2, 66, 93
4, 15936, Note_off_c, 2, 66, 0
4, 15936, Note_on_c, 2, 67, 93
4, 15948, Note_off_c, 2, 67, 0
4, 15996, Note_on_c, 2, 60, 93
4, 16008, Note_off_c, 2, 60, 0
4, 16008, Note_on_c, 2, 59, 93
4, 16020, Note_off_c, 2, 59, 0
4, 16020, Note_on_c, 2, 57, 93
4, 16032, Note_off_c, 2, 57, 0
4, 16032, Note_on_c, 2, 59, 93
4, 16044, Note_off_c, 2, 59, 0
4, 16092, Note_on_c, 2, 53, 93
4, 16104, Note_off_c, 2, 53, 0
4, 16104, Note_on_c, 2, 52, 93
4, 16116, Note_off_c, 2, 52, 0
4, 16116, Note_on_c, 2, 50, 93
4, 16128, Note_off_c, 2, 50, 0
4, 16128, Note_on_c, 2, 48, 93
4, 16176, Note_off_c, 2, 48, 0
4, 16248, Note_on_c, 2, 62, 93
4, 16272, Note_off_c, 2, 62, 0
4, 16272, Note_on_c, 2, 60, 93
4, 16296, Note_off_c, 2, 60, 0
4, 16296, Note_on_c, 2, 59, 93
4, 16320, Note_off_c, 2, 59, 0
4, 16320, Note_on_c, 2, 57, 93
4, 16344, Note_off_c, 2, 57, 0
4, 16344, Note_on_c, 2, 55, 93
4, 16368, Note_off_c, 2, 55, 0
4, 16368, Note_on_c, 2, 54, 93
4, 16392, Note_off_c, 2, 54, 0
4, 16392, Note_on_c, 2, 52, 93
4, 16416, Note_off_c, 2, 52, 0
4, 16416, Note_on_c, 2, 50, 93
4, 16464, Note_off_c, 2, 50, 0
4, 16536, Note_on_c, 2, 48, 93
4, 16560, Note_off_c, 2, 48, 0
4, 16560, Note_on_c, 2, 50, 93
4, 16584, Note_off_c, 2, 50, 0
4, 16584, Note_on_c, 2, 52, 93
4, 16608, Note_off_c, 2, 52, 0
4, 16608, Note_on_c, 2, 54, 93
4, 16632, Note_off_c, 2, 54, 0
4, 16632, Note_on_c, 2, 55, 93
4, 16656, Note_off_c, 2, 55, 0
4, 16656, Note_on_c, 2, 57, 93
4, 16680, Note_off_c, 2, 57, 0
4, 16680, Note_on_c, 2, 59, 93
4, 16704, Note_off_c, 2, 59, 0
4, 16704, Note_on_c, 2, 60, 93
4, 16752, Note_off_c, 2, 60, 0
4, 16752, Note_on_c, 2, 60, 93
4, 16800, Note_off_c, 2, 60, 0
4, 16800, Note_on_c, 2, 60, 93
4, 16848, Note_off_c, 2, 60, 0
4, 16848, Note_on_c, 2, 60, 93
4, 16896, Note_off_c, 2, 60, 0
4, 16896, Note_on_c, 2, 57, 93
4, 16944, Note_off_c, 2, 57, 0
4, 16944, Note_on_c, 2, 57, 93
4, 16992, Note_off_c, 2, 57, 0
4, 16992, Note_on_c, 2, 54, 93
4, 17040, Note_off_c, 2, 54, 0
4, 17040, Note_on_c, 2, 54, 93
4, 17088, Note_off_c, 2, 54, 0
4, 17088, Note_on_c, 2, 54, 93
4, 17136, Note_off_c, 2, 54, 0
4, 17136, Note_on_c, 2, 54, 93
4, 17184, Note_off_c, 2, 54, 0
4, 17184, Note_on_c, 2, 50, 93
4, 17232, Note_off_c, 2, 50, 0
4, 17232, Note_on_c, 2, 50, 93
4, 17280, Note_off_c, 2, 50, 0
4, 17280, Note_on_c, 2, 47, 93
4, 17328, Note_off_c, 2, 47, 0
4, 17328, Note_on_c, 2, 47, 93
4, 17376, Note_off_c, 2, 47, 0
4, 17376, Note_on_c, 2, 47, 93
4, 17424, Note_off_c, 2, 47, 0
4, 17424, Note_on_c, 2, 50, 93
4, 17472, Note_off_c, 2, 50, 0
4, 17472, Note_on_c, 2, 53, 93
4, 17520, Note_off_c, 2, 53, 0
4, 17520, Note_on_c, 2, 57, 93
4, 17568, Note_off_c, 2, 57, 0
4, 17568, Note_on_c, 2, 60, 93
4, 17616, Note_off_c, 2, 60, 0
4, 17616, Note_on_c, 2, 60, 93
4, 17664, Note_off_c, 2, 60, 0
4, 17664, Note_on_c, 2, 60, 93
4, 17712, Note_off_c, 2, 60, 0
4, 17712, Note_on_c, 2, 64, 93
4, 17760, Note_off_c, 2, 64, 0
4, 17760, Note_on_c, 2, 67, 93
4, 17808, Note_off_c, 2, 67, 0
4, 17808, Note_on_c, 2, 71, 93
4, 17856, Note_off_c, 2, 71, 0
4, 17856, Note_on_c, 2, 74, 93
4, 17880, Note_off_c, 2, 74, 0
4, 17976, Note_on_c, 2, 64, 93
4, 18000, Note_off_c, 2, 64, 0
4, 18000, Note_on_c, 2, 62, 93
4, 18024, Note_off_c, 2, 62, 0
4, 18024, Note_on_c, 2, 60, 93
4, 18048, Note_off_c, 2, 60, 0
4, 18048, Note_on_c, 2, 59, 93
4, 18072, Note_off_c, 2, 59, 0
4, 18072, Note_on_c, 2, 57, 93
4, 18096, Note_off_c, 2, 57, 0
4, 18096, Note_on_c, 2, 55, 93
4, 18120, Note_off_c, 2, 55, 0
4, 18120, Note_on_c, 2, 54, 93
4, 18144, Note_off_c, 2, 54, 0
4, 18144, Note_on_c, 2, 55, 93
4, 18168, Note_off_c, 2, 55, 0
4, 18168, Note_on_c, 2, 47, 93
4, 18192, Note_off_c, 2, 47, 0
4, 18192, Note_on_c, 2, 48, 93
4, 18216, Note_off_c, 2, 48, 0
4, 18216, Note_on_c, 2, 50, 93
4, 18240, Note_off_c, 2, 50, 0
4, 18240, Note_on_c, 2, 52, 93
4, 18264, Note_off_c, 2, 52, 0
4, 18264, Note_on_c, 2, 54, 93
4, 18288, Note_off_c, 2, 54, 0
4, 18288, Note_on_c, 2, 55, 93
4, 18312, Note_off_c, 2, 55, 0
4, 18312, Note_on_c, 2, 57, 93
4, 18336, Note_off_c, 2, 57, 0
4, 18336, Note_on_c, 2, 59, 93
4, 18384, Note_off_c, 2, 59, 0
4, 18384, End_track
5, 0, Start_track
5, 0, Title_t, "Track5"
5, 0, Program_c, 3, 6
5, 0, Control_c, 3, 7, 100
5, 0, Control_c, 3, 10, 49
5, 9240, Note_on_c, 3, 38, 93
5, 9264, Note_off_c, 3, 38, 0
5, 9264, Note_on_c, 3, 38, 93
5, 9288, Note_off_c, 3, 38, 0
5, 9528, Note_on_c, 3, 43, 93
5, 9552, Note_off_c, 3, 43, 0
5, 9552, Note_on_c, 3, 43, 93
5, 9576, Note_off_c, 3, 43, 0
5, 9816, Note_on_c, 3, 64, 93
5, 9840, Note_off_c, 3, 64, 0
5, 9840, Note_on_c, 3, 64, 93
5, 9864, Note_off_c, 3, 64, 0
5, 10104, Note_on_c, 3, 81, 93
5, 10128, Note_off_c, 3, 81, 0
5, 10128, Note_on_c, 3, 81, 93
5, 10152, Note_off_c, 3, 81, 0
5, 11640, Note_on_c, 3, 59, 93
5, 11664, Note_off_c, 3, 59, 0
5, 11664, Note_on_c, 3, 57, 93
5, 11688, Note_off_c, 3, 57, 0
5, 11688, Note_on_c, 3, 55, 93
5, 11712, Note_off_c, 3, 55, 0
5, 11712, Note_on_c, 3, 54, 93
5, 11736, Note_off_c, 3, 54, 0
5, 11736, Note_on_c, 3, 52, 93
5, 11760, Note_off_c, 3, 52, 0
5, 11760, Note_on_c, 3, 50, 93
5, 11784, Note_off_c, 3, 50, 0
5, 11784, Note_on_c, 3, 48, 93
5, 11808, Note_off_c, 3, 48, 0
5, 11808, Note_on_c, 3, 47, 93
5, 11856, Note_off_c, 3, 47, 0
5, 11928, Note_on_c, 3, 45, 93
5, 11952, Note_off_c, 3, 45, 0
5, 11952, Note_on_c, 3, 47, 93
5, 11976, Note_off_c, 3, 47, 0
5, 11976, Note_on_c, 3, 48, 93
5, 12000, Note_off_c, 3, 48, 0
5, 12000, Note_on_c, 3, 50, 93
5, 12024, Note_off_c, 3, 50, 0
5, 12024, Note_on_c, 3, 52, 93
5, 12048, Note_off_c, 3, 52, 0
5, 12048, Note_on_c, 3, 54, 93
5, 12072, Note_off_c, 3, 54, 0
5, 12072, Note_on_c, 3, 55, 93
5, 12096, Note_off_c, 3, 55, 0
5, 12096, Note_on_c, 3, 57, 93
5, 12144, Note_off_c, 3, 57, 0
5, 12144, Note_on_c, 3, 57, 93
5, 12192, Note_off_c, 3, 57, 0
5, 12192, Note_on_c, 3, 57, 93
5, 12240, Note_off_c, 3, 57, 0
5, 12240, Note_on_c, 3, 57, 93
5, 12288, Note_off_c, 3, 57, 0
5, 12288, Note_on_c, 3, 54, 93
5, 12336, Note_off_c, 3, 54, 0
5, 12336, Note_on_c, 3, 54, 93
5, 12384, Note_off_c, 3, 54, 0
5, 12384, Note_on_c, 3, 50, 93
5, 12432, Note_off_c, 3, 50, 0
5, 12432, Note_on_c, 3, 50, 93
5, 12480, Note_off_c, 3, 50, 0
5, 12480, Note_on_c, 3, 50, 93
5, 12528, Note_off_c, 3, 50, 0
5, 12528, Note_on_c, 3, 50, 93
5, 12576, Note_off_c, 3, 50, 0
5, 12576, Note_on_c, 3, 47, 93
5, 12624, Note_off_c, 3, 47, 0
5, 12624, Note_on_c, 3, 47, 93
5, 12672, Note_off_c, 3, 47, 0
5, 12672, Note_on_c, 3, 43, 93
5, 12720, Note_off_c, 3, 43, 0
5, 12720, Note_on_c, 3, 43, 93
5, 12768, Note_off_c, 3, 43, 0
5, 12768, Note_on_c, 3, 43, 93
5, 12816, Note_off_c, 3, 43, 0
5, 12816, Note_on_c, 3, 47, 93
5, 12864, Note_off_c, 3, 47, 0
5, 12864, Note_on_c, 3, 50, 93
5, 12912, Note_off_c, 3, 50, 0
5, 12912, Note_on_c, 3, 53, 93
5, 12960, Note_off_c, 3, 53, 0
5, 12960, Note_on_c, 3, 52, 93
5, 13008, Note_off_c, 3, 52, 0
5, 13008, Note_on_c, 3, 52, 93
5, 13056, Note_off_c, 3, 52, 0
5, 13056, Note_on_c, 3, 52, 93
5, 13104, Note_off_c, 3, 52, 0
5, 13104, Note_on_c, 3, 55, 93
5, 13152, Note_off_c, 3, 55, 0
5, 13152, Note_on_c, 3, 59, 93
5, 13200, Note_off_c, 3, 59, 0
5, 13200, Note_on_c, 3, 62, 93
5, 13248, Note_off_c, 3, 62, 0
5, 13248, Note_on_c, 3, 66, 93
5, 13272, Note_off_c, 3, 66, 0
5, 13368, Note_on_c, 3, 55, 93
5, 13392, Note_off_c, 3, 55, 0
5, 13392, Note_on_c, 3, 54, 93
5, 13416, Note_off_c, 3, 54, 0
5, 13416, Note_on_c, 3, 52, 93
5, 13440, Note_off_c, 3, 52, 0
5, 13440, Note_on_c, 3, 50, 93
5, 13464, Note_off_c, 3, 50, 0
5, 13464, Note_on_c, 3, 48, 93
5, 13488, Note_off_c, 3, 48, 0
5, 13488, Note_on_c, 3, 47, 93
5, 13512, Note_off_c, 3, 47, 0
5, 13512, Note_on_c, 3, 45, 93
5, 13536, Note_off_c, 3, 45, 0
5, 13536, Note_on_c, 3, 43, 93
5, 13584, Note_off_c, 3, 43, 0
5, 13584, Note_on_c, 3, 45, 93
5, 13608, Note_off_c, 3, 45, 0
5, 13608, Note_on_c, 3, 47, 93
5, 13632, Note_off_c, 3, 47, 0
5, 13632, Note_on_c, 3, 48, 93
5, 13656, Note_off_c, 3, 48, 0
5, 13656, Note_on_c, 3, 50, 93
5, 13680, Note_off_c, 3, 50, 0
5, 13680, Note_on_c, 3, 52, 93
5, 13704, Note_off_c, 3, 52, 0
5, 13704, Note_on_c, 3, 54, 93
5, 13728, Note_off_c, 3, 54, 0
5, 13728, Note_on_c, 3, 55, 93
5, 13776, Note_off_c, 3, 55, 0
5, 13848, Note_on_c, 3, 38, 93
5, 13872, Note_off_c, 3, 38, 0
5, 13872, Note_on_c, 3, 38, 93
5, 13896, Note_off_c, 3, 38, 0
5, 14136, Note_on_c, 3, 43, 93
5, 14160, Note_off_c, 3, 43, 0
5, 14160, Note_on_c, 3, 43, 93
5, 14184, Note_off_c, 3, 43, 0
5, 14424, Note_on_c, 3, 64, 93
5, 14448, Note_off_c, 3, 64, 0
5, 14448, Note_on_c, 3, 64, 93
5, 14472, Note_off_c, 3, 64, 0
5, 14712, Note_on_c, 3, 81, 93
5, 14736, Note_off_c, 3, 81, 0
5, 14736, Note_on_c, 3, 81, 93
5, 14760, Note_off_c, 3, 81, 0
5, 16248, Note_on_c, 3, 59, 93
5, 16272, Note_off_c, 3, 59, 0
5, 16272, Note_on_c, 3, 57, 93
5, 16296, Note_off_c, 3, 57, 0
5, 16296, Note_on_c, 3, 55, 93
5, 16320, Note_off_c, 3, 55, 0
5, 16320, Note_on_c, 3, 54, 93
5, 16344, Note_off_c, 3, 54, 0
5, 16344, Note_on_c, 3, 52, 93
5, 16368, Note_off_c, 3, 52, 0
5, 16368, Note_on_c, 3, 50, 93
5, 16392, Note_off_c, 3, 50, 0
5, 16392, Note_on_c, 3, 48, 93
5, 16416, Note_off_c, 3, 48, 0
5, 16416, Note_on_c, 3, 47, 93
5, 16464, Note_off_c, 3, 47, 0
5, 16536, Note_on_c, 3, 45, 93
5, 16560, Note_off_c, 3, 45, 0
5, 16560, Note_on_c, 3, 47, 93
5, 16584, Note_off_c, 3, 47, 0
5, 16584, Note_on_c, 3, 48, 93
5, 16608, Note_off_c, 3, 48, 0
5, 16608, Note_on_c, 3, 50, 93
5, 16632, Note_off_c, 3, 50, 0
5, 16632, Note_on_c, 3, 52, 93
5, 16656, Note_off_c, 3, 52, 0
5, 16656, Note_on_c, 3, 54, 93
5, 16680, Note_off_c, 3, 54, 0
5, 16680, Note_on_c, 3, 55, 93
5, 16704, Note_off_c, 3, 55, 0
5, 16704, Note_on_c, 3, 57, 93
5, 16752, Note_off_c, 3, 57, 0
5, 16752, Note_on_c, 3, 57, 93
5, 16800, Note_off_c, 3, 57, 0
5, 16800, Note_on_c, 3, 57, 93
5, 16848, Note_off_c, 3, 57, 0
5, 16848, Note_on_c, 3, 57, 93
5, 16896, Note_off_c, 3, 57, 0
5, 16896, Note_on_c, 3, 54, 93
5, 16944, Note_off_c, 3, 54, 0
5, 16944, Note_on_c, 3, 54, 93
5, 16992, Note_off_c, 3, 54, 0
5, 16992, Note_on_c, 3, 50, 93
5, 17040, Note_off_c, 3, 50, 0
5, 17040, Note_on_c, 3, 50, 93
5, 17088, Note_off_c, 3, 50, 0
5, 17088, Note_on_c, 3, 50, 93
5, 17136, Note_off_c, 3, 50, 0
5, 17136, Note_on_c, 3, 50, 93
5, 17184, Note_off_c, 3, 50, 0
5, 17184, Note_on_c, 3, 47, 93
5, 17232, Note_off_c, 3, 47, 0
5, 17232, Note_on_c, 3, 47, 93
5, 17280, Note_off_c, 3, 47, 0
5, 17280, Note_on_c, 3, 43, 93
5, 17328, Note_off_c, 3, 43, 0
5, 17328, Note_on_c, 3, 43, 93
5, 17376, Note_off_c, 3, 43, 0
5, 17376, Note_on_c, 3, 43, 93
5, 17424, Note_off_c, 3, 43, 0
5, 17424, Note_on_c, 3, 47, 93
5, 17472, Note_off_c, 3, 47, 0
5, 17472, Note_on_c, 3, 50, 93
5, 17520, Note_off_c, 3, 50, 0
5, 17520, Note_on_c, 3, 53, 93
5, 17568, Note_off_c, 3, 53, 0
5, 17568, Note_on_c, 3, 52, 93
5, 17616, Note_off_c, 3, 52, 0
5, 17616, Note_on_c, 3, 52, 93
5, 17664, Note_off_c, 3, 52, 0
5, 17664, Note_on_c, 3, 52, 93
5, 17712, Note_off_c, 3, 52, 0
5, 17712, Note_on_c, 3, 55, 93
5, 17760, Note_off_c, 3, 55, 0
5, 17760, Note_on_c, 3, 59, 93
5, 17808, Note_off_c, 3, 59, 0
5, 17808, Note_on_c, 3, 62, 93
5, 17856, Note_off_c, 3, 62, 0
5, 17856, Note_on_c, 3, 66, 93
5, 17880, Note_off_c, 3, 66, 0
5, 17976, Note_on_c, 3, 55, 93
5, 18000, Note_off_c, 3, 55, 0
5, 18000, Note_on_c, 3, 54, 93
5, 18024, Note_off_c, 3, 54, 0
5, 18024, Note_on_c, 3, 52, 93
5, 18048, Note_off_c, 3, 52, 0
5, 18048, Note_on_c, 3, 50, 93
5, 18072, Note_off_c, 3, 50, 0
5, 18072, Note_on_c, 3, 48, 93
5, 18096, Note_off_c, 3, 48, 0
5, 18096, Note_on_c, 3, 47, 93
5, 18120, Note_off_c, 3, 47, 0
5, 18120, Note_on_c, 3, 45, 93
5, 18144, Note_off_c, 3, 45, 0
5, 18144, Note_on_c, 3, 43, 93
5, 18192, Note_off_c, 3, 43, 0
5, 18192, Note_on_c, 3, 45, 93
5, 18216, Note_off_c, 3, 45, 0
5, 18216, Note_on_c, 3, 47, 93
5, 18240, Note_off_c, 3, 47, 0
5, 18240, Note_on_c, 3, 48, 93
5, 18264, Note_off_c, 3, 48, 0
5, 18264, Note_on_c, 3, 50, 93
5, 18288, Note_off_c, 3, 50, 0
5, 18288, Note_on_c, 3, 52, 93
5, 18312, Note_off_c, 3, 52, 0
5, 18312, Note_on_c, 3, 54, 93
5, 18336, Note_off_c, 3, 54, 0
5, 18336, Note_on_c, 3, 55, 93
5, 18384, Note_off_c, 3, 55, 0
5, 18384, End_track
0, 0, End_of_file
