0, 0, Header, 1, 3, 96
1, 0, Start_track
1, 0, Time_signature, 4, 2, 24, 8
1, 0, Title_t, "untitled"
1, 0, Title_t, "Track1"
1, 0, Tempo, 600000
1, 18336, Tempo, 1250000
1, 18336, End_track
2, 0, Start_track
2, 0, Title_t, "Track2"
2, 0, Program_c, 0, 6
2, 0, Control_c, 0, 7, 100
2, 0, Control_c, 0, 10, 69
2, 0, Note_on_c, 0, 71, 93
2, 72, Note_off_c, 0, 71, 0
2, 72, Note_on_c, 0, 69, 93
2, 96, Note_off_c, 0, 69, 0
2, 96, Note_on_c, 0, 71, 93
2, 144, Note_off_c, 0, 71, 0
2, 144, Note_on_c, 0, 62, 93
2, 216, Note_off_c, 0, 62, 0
2, 216, Note_on_c, 0, 67, 93
2, 240, Note_off_c, 0, 67, 0
2, 240, Note_on_c, 0, 71, 93
2, 288, Note_off_c, 0, 71, 0
2, 288, Note_on_c, 0, 71, 93
2, 300, Note_off_c, 0, 71, 0
2, 300, Note_on_c, 0, 69, 93
2, 312, Note_off_c, 0, 69, 0
2, 312, Note_on_c, 0, 71, 93
2, 324, Note_off_c, 0, 71, 0
2, 324, Note_on_c, 0, 69, 93
2, 360, Note_off_c, 0, 69, 0
2, 360, Note_on_c, 0, 67, 93
2, 384, Note_off_c, 0, 67, 0
2, 384, Note_on_c, 0, 69, 93
2, 432, Note_off_c, 0, 69, 0
2, 432, Note_on_c, 0, 74, 93
2, 576, Note_off_c, 0, 74, 0
2, 576, Note_on_c, 0, 79, 93
2, 588, Note_off_c, 0, 79, 0
2, 588, Note_on_c, 0, 78, 93
2, 600, Note_off_c, 0, 78, 0
2, 600, Note_on_c, 0, 79, 93
2, 648, Note_off_c, 0, 79, 0
2, 648, Note_on_c, 0, 78, 93
2, 672, Note_off_c, 0, 78, 0
2, 672, Note_on_c, 0, 79, 93
2, 720, Note_off_c, 0, 79, 0
2, 720, Note_on_c, 0, 69, 93
2, 792, Note_off_c, 0, 69, 0
2, 792, Note_on_c, 0, 76, 93
2, 816, Note_off_c, 0, 76, 0
2, 816, Note_on_c, 0, 79, 93
2, 864, Note_off_c, 0, 79, 0
2, 864, Note_on_c, 0, 79, 93
2, 876, Note_off_c, 0, 79, 0
2, 876, Note_on_c, 0, 78, 93
2, 888, Note_off_c, 0, 78, 0
2, 888, Note_on_c, 0, 79, 93
2, 900, Note_off_c, 0, 79, 0
2, 900, Note_on_c, 0, 78, 93
2, 936, Note_off_c, 0, 78, 0
2, 936, Note_on_c, 0, 76, 93
2, 960, Note_off_c, 0, 76, 0
2, 960, Note_on_c, 0, 78, 93
2, 1008, Note_off_c, 0, 78, 0
2, 1008, Note_on_c, 0, 74, 93
2, 1248, Note_off_c, 0, 74, 0
2, 1248, Note_on_c, 0, 76, 93
2, 1260, Note_off_c, 0, 76, 0
2, 1260, Note_on_c, 0, 78, 93
2, 1272, Note_off_c, 0, 78, 0
2, 1272, Note_on_c, 0, 79, 93
2, 1284, Note_off_c, 0, 79, 0
2, 1284, Note_on_c, 0, 81, 93
2, 1296, Note_off_c, 0, 81, 0
2, 1296, Note_on_c, 0, 83, 93
2, 1368, Note_off_c, 0, 83, 0
2, 1368, Note_on_c, 0, 79, 93
2, 1392, Note_off_c, 0, 79, 0
2, 1392, Note_on_c, 0, 74, 93
2, 1440, Note_off_c, 0, 74, 0
2, 1440, Note_on_c, 0, 76, 93
2, 1536, Note_off_c, 0, 76, 0
2, 1536, Note_on_c, 0, 78, 93
2, 1548, Note_off_c, 0, 78, 0
2, 1548, Note_on_c, 0, 79, 93
2, 1560, Note_off_c, 0, 79, 0
2, 1560, Note_on_c, 0, 81, 93
2, 1572, Note_off_c, 0, 81, 0
2, 1572, Note_on_c, 0, 83, 93
2, 1584, Note_off_c, 0, 83, 0
2, 1584, Note_on_c, 0, 84, 93
2, 1656, Note_off_c, 0, 84, 0
2, 1656, Note_on_c, 0, 81, 93
2, 1680, Note_off_c, 0, 81, 0
2, 1680, Note_on_c, 0, 76, 93
2, 1728, Note_off_c, 0, 76, 0
2, 1728, Note_on_c, 0, 78, 93
2, 1800, Note_off_c, 0, 78, 0
2, 1800, Note_on_c, 0, 74, 93
2, 1824, Note_off_c, 0, 74, 0
2, 1824, Note_on_c, 0, 79, 93
2, 1872, Note_off_c, 0, 79, 0
2, 1872, Note_on_c, 0, 69, 93
2, 1944, Note_off_c, 0, 69, 0
2, 1944, Note_on_c, 0, 71, 93
2, 1968, Note_off_c, 0, 71, 0
2, 1968, Note_on_c, 0, 72, 93
2, 2016, Note_off_c, 0, 72, 0
2, 2016, Note_on_c, 0, 72, 93
2, 2064, Note_off_c, 0, 72, 0
2, 2064, Note_on_c, 0, 71, 93
2, 2232, Note_off_c, 0, 71, 0
2, 2232, Note_on_c, 0, 69, 93
2, 2256, Note_off_c, 0, 69, 0
2, 2256, Note_on_c, 0, 67, 93
2, 2280, Note_off_c, 0, 67, 0
2, 2280, Note_on_c, 0, 66, 93
2, 2304, Note_off_c, 0, 66, 0
2, 2304, Note_on_c, 0, 67, 93
2, 2400, Note_off_c, 0, 67, 0
2, 2400, Note_on_c, 0, 74, 93
2, 2448, Note_off_c, 0, 74, 0
2, 2448, Note_on_c, 0, 79, 93
2, 2460, Note_off_c, 0, 79, 0
2, 2460, Note_on_c, 0, 78, 93
2, 2472, Note_off_c, 0, 78, 0
2, 2472, Note_on_c, 0, 79, 93
2, 2640, Note_off_c, 0, 79, 0
2, 2640, Note_on_c, 0, 81, 93
2, 2664, Note_off_c, 0, 81, 0
2, 2664, Note_on_c, 0, 79, 93
2, 2688, Note_off_c, 0, 79, 0
2, 2688, Note_on_c, 0, 78, 93
2, 2712, Note_off_c, 0, 78, 0
2, 2712, Note_on_c, 0, 76, 93
2, 2736, Note_off_c, 0, 76, 0
2, 2736, Note_on_c, 0, 78, 93
2, 2748, Note_off_c, 0, 78, 0
2, 2748, Note_on_c, 0, 76, 93
2, 2760, Note_off_c, 0, 76, 0
2, 2760, Note_on_c, 0, 78, 93
2, 2952, Note_off_c, 0, 78, 0
2, 2952, Note_on_c, 0, 79, 93
2, 2976, Note_off_c, 0, 79, 0
2, 2976, Note_on_c, 0, 78, 93
2, 3024, Note_off_c, 0, 78, 0
2, 3024, Note_on_c, 0, 76, 93
2, 3096, Note_off_c, 0, 76, 0
2, 3096, Note_on_c, 0, 73, 93
2, 3120, Note_off_c, 0, 73, 0
2, 3120, Note_on_c, 0, 74, 93
2, 3168, Note_off_c, 0, 74, 0
2, 3168, Note_on_c, 0, 74, 93
2, 3180, Note_off_c, 0, 74, 0
2, 3180, Note_on_c, 0, 73, 93
2, 3192, Note_off_c, 0, 73, 0
2, 3192, Note_on_c, 0, 74, 93
2, 3204, Note_off_c, 0, 74, 0
2, 3204, Note_on_c, 0, 73, 93
2, 3240, Note_off_c, 0, 73, 0
2, 3240, Note_on_c, 0, 74, 93
2, 3264, Note_off_c, 0, 74, 0
2, 3264, Note_on_c, 0, 76, 93
2, 3312, Note_off_c, 0, 76, 0
2, 3312, Note_on_c, 0, 69, 93
2, 3552, Note_off_c, 0, 69, 0
2, 3552, Note_on_c, 0, 71, 93
2, 3564, Note_off_c, 0, 71, 0
2, 3564, Note_on_c, 0, 73, 93
2, 3576, Note_off_c, 0, 73, 0
2, 3576, Note_on_c, 0, 74, 93
2, 3588, Note_off_c, 0, 74, 0
2, 3588, Note_on_c, 0, 76, 93
2, 3600, Note_off_c, 0, 76, 0
2, 3600, Note_on_c, 0, 78, 93
2, 3672, Note_off_c, 0, 78, 0
2, 3672, Note_on_c, 0, 74, 93
2, 3696, Note_off_c, 0, 74, 0
2, 3696, Note_on_c, 0, 69, 93
2, 3744, Note_off_c, 0, 69, 0
2, 3744, Note_on_c, 0, 71, 93
2, 3840, Note_off_c, 0, 71, 0
2, 3840, Note_on_c, 0, 73, 93
2, 3852, Note_off_c, 0, 73, 0
2, 3852, Note_on_c, 0, 74, 93
2, 3864, Note_off_c, 0, 74, 0
2, 3864, Note_on_c, 0, 76, 93
2, 3876, Note_off_c, 0, 76, 0
2, 3876, Note_on_c, 0, 78, 93
2, 3888, Note_off_c, 0, 78, 0
2, 3888, Note_on_c, 0, 79, 93
2, 3960, Note_off_c, 0, 79, 0
2, 3960, Note_on_c, 0, 76, 93
2, 3984, Note_off_c, 0, 76, 0
2, 3984, Note_on_c, 0, 71, 93
2, 4032, Note_off_c, 0, 71, 0
2, 4032, Note_on_c, 0, 71, 93
2, 4056, Note_off_c, 0, 71, 0
2, 4056, Note_on_c, 0, 73, 93
2, 4104, Note_off_c, 0, 73, 0
2, 4104, Note_on_c, 0, 69, 93
2, 4128, Note_off_c, 0, 69, 0
2, 4128, Note_on_c, 0, 81, 93
2, 4176, Note_off_c, 0, 81, 0
2, 4176, Note_on_c, 0, 74, 93
2, 4248, Note_off_c, 0, 74, 0
2, 4248, Note_on_c, 0, 76, 93
2, 4272, Note_off_c, 0, 76, 0
2, 4272, Note_on_c, 0, 73, 93
2, 4320, Note_off_c, 0, 73, 0
2, 4320, Note_on_c, 0, 73, 93
2, 4368, Note_off_c, 0, 73, 0
2, 4368, Note_on_c, 0, 74, 93
2, 4608, Note_off_c, 0, 74, 0
2, 4608, Note_on_c, 0, 71, 93
2, 4680, Note_off_c, 0, 71, 0
2, 4680, Note_on_c, 0, 69, 93
2, 4704, Note_off_c, 0, 69, 0
2, 4704, Note_on_c, 0, 71, 93
2, 4752, Note_off_c, 0, 71, 0
2, 4752, Note_on_c, 0, 62, 93
2, 4824, Note_off_c, 0, 62, 0
2, 4824, Note_on_c, 0, 67, 93
2, 4848, Note_off_c, 0, 67, 0
2, 4848, Note_on_c, 0, 71, 93
2, 4896, Note_off_c, 0, 71, 0
2, 4896, Note_on_c, 0, 71, 93
2, 4908, Note_off_c, 0, 71, 0
2, 4908, Note_on_c, 0, 69, 93
2, 4920, Note_off_c, 0, 69, 0
2, 4920, Note_on_c, 0, 71, 93
2, 4932, Note_off_c, 0, 71, 0
2, 4932, Note_on_c, 0, 69, 93
2, 4968, Note_off_c, 0, 69, 0
2, 4968, Note_on_c, 0, 67, 93
2, 4992, Note_off_c, 0, 67, 0
2, 4992, Note_on_c, 0, 69, 93
2, 5040, Note_off_c, 0, 69, 0
2, 5040, Note_on_c, 0, 74, 93
2, 5184, Note_off_c, 0, 74, 0
2, 5184, Note_on_c, 0, 79, 93
2, 5196, Note_off_c, 0, 79, 0
2, 5196, Note_on_c, 0, 78, 93
2, 5208, Note_off_c, 0, 78, 0
2, 5208, Note_on_c, 0, 79, 93
2, 5256, Note_off_c, 0, 79, 0
2, 5256, Note_on_c, 0, 78, 93
2, 5280, Note_off_c, 0, 78, 0
2, 5280, Note_on_c, 0, 79, 93
2, 5328, Note_off_c, 0, 79, 0
2, 5328, Note_on_c, 0, 69, 93
2, 5400, Note_off_c, 0, 69, 0
2, 5400, Note_on_c, 0, 76, 93
2, 5424, Note_off_c, 0, 76, 0
2, 5424, Note_on_c, 0, 79, 93
2, 5472, Note_off_c, 0, 79, 0
2, 5472, Note_on_c, 0, 79, 93
2, 5484, Note_off_c, 0, 79, 0
2, 5484, Note_on_c, 0, 78, 93
2, 5496, Note_off_c, 0, 78, 0
2, 5496, Note_on_c, 0, 79, 93
2, 5508, Note_off_c, 0, 79, 0
2, 5508, Note_on_c, 0, 78, 93
2, 5544, Note_off_c, 0, 78, 0
2, 5544, Note_on_c, 0, 76, 93
2, 5568, Note_off_c, 0, 76, 0
2, 5568, Note_on_c, 0, 78, 93
2, 5616, Note_off_c, 0, 78, 0
2, 5616, Note_on_c, 0, 74, 93
2, 5856, Note_off_c, 0, 74, 0
2, 5856, Note_on_c, 0, 76, 93
2, 5868, Note_off_c, 0, 76, 0
2, 5868, Note_on_c, 0, 78, 93
2, 5880, Note_off_c, 0, 78, 0
2, 5880, Note_on_c, 0, 79, 93
2, 5892, Note_off_c, 0, 79, 0
2, 5892, Note_on_c, 0, 81, 93
2, 5904, Note_off_c, 0, 81, 0
2, 5904, Note_on_c, 0, 83, 93
2, 5976, Note_off_c, 0, 83, 0
2, 5976, Note_on_c, 0, 79, 93
2, 6000, Note_off_c, 0, 79, 0
2, 6000, Note_on_c, 0, 74, 93
2, 6048, Note_off_c, 0, 74, 0
2, 6048, Note_on_c, 0, 76, 93
2, 6144, Note_off_c, 0, 76, 0
2, 6144, Note_on_c, 0, 78, 93
2, 6156, Note_off_c, 0, 78, 0
2, 6156, Note_on_c, 0, 79, 93
2, 6168, Note_off_c, 0, 79, 0
2, 6168, Note_on_c, 0, 81, 93
2, 6180, Note_off_c, 0, 81, 0
2, 6180, Note_on_c, 0, 83, 93
2, 6192, Note_off_c, 0, 83, 0
2, 6192, Note_on_c, 0, 84, 93
2, 6264, Note_off_c, 0, 84, 0
2, 6264, Note_on_c, 0, 81, 93
2, 6288, Note_off_c, 0, 81, 0
2, 6288, Note_on_c, 0, 76, 93
2, 6336, Note_off_c, 0, 76, 0
2, 6336, Note_on_c, 0, 78, 93
2, 6408, Note_off_c, 0, 78, 0
2, 6408, Note_on_c, 0, 74, 93
2, 6432, Note_off_c, 0, 74, 0
2, 6432, Note_on_c, 0, 79, 93
2, 6480, Note_off_c, 0, 79, 0
2, 6480, Note_on_c, 0, 69, 93
2, 6552, Note_off_c, 0, 69, 0
2, 6552, Note_on_c, 0, 71, 93
2, 6576, Note_off_c, 0, 71, 0
2, 6576, Note_on_c, 0, 72, 93
2, 6624, Note_off_c, 0, 72, 0
2, 6624, Note_on_c, 0, 72, 93
2, 6672, Note_off_c, 0, 72, 0
2, 6672, Note_on_c, 0, 71, 93
2, 6840, Note_off_c, 0, 71, 0
2, 6840, Note_on_c, 0, 69, 93
2, 6864, Note_off_c, 0, 69, 0
2, 6864, Note_on_c, 0, 67, 93
2, 6888, Note_off_c, 0, 67, 0
2, 6888, Note_on_c, 0, 66, 93
2, 6912, Note_off_c, 0, 66, 0
2, 6912, Note_on_c, 0, 67, 93
2, 7008, Note_off_c, 0, 67, 0
2, 7008, Note_on_c, 0, 74, 93
2, 7056, Note_off_c, 0, 74, 0
2, 7056, Note_on_c, 0, 79, 93
2, 7068, Note_off_c, 0, 79, 0
2, 7068, Note_on_c, 0, 78, 93
2, 7080, Note_off_c, 0, 78, 0
2, 7080, Note_on_c, 0, 79, 93
2, 7248, Note_off_c, 0, 79, 0
2, 7248, Note_on_c, 0, 81, 93
2, 7272, Note_off_c, 0, 81, 0
2, 7272, Note_on_c, 0, 79, 93
2, 7296, Note_off_c, 0, 79, 0
2, 7296, Note_on_c, 0, 78, 93
2, 7320, Note_off_c, 0, 78, 0
2, 7320, Note_on_c, 0, 76, 93
2, 7344, Note_off_c, 0, 76, 0
2, 7344, Note_on_c, 0, 78, 93
2, 7356, Note_off_c, 0, 78, 0
2, 7356, Note_on_c, 0, 76, 93
2, 7368, Note_off_c, 0, 76, 0
2, 7368, Note_on_c, 0, 78, 93
2, 7560, Note_off_c, 0, 78, 0
2, 7560, Note_on_c, 0, 79, 93
2, 7584, Note_off_c, 0, 79, 0
2, 7584, Note_on_c, 0, 78, 93
2, 7632, Note_off_c, 0, 78, 0
2, 7632, Note_on_c, 0, 76, 93
2, 7704, Note_off_c, 0, 76, 0
2, 7704, Note_on_c, 0, 73, 93
2, 7728, Note_off_c, 0, 73, 0
2, 7728, Note_on_c, 0, 74, 93
2, 7776, Note_off_c, 0, 74, 0
2, 7776, Note_on_c, 0, 74, 93
2, 7788, Note_off_c, 0, 74, 0
2, 7788, Note_on_c, 0, 73, 93
2, 7800, Note_off_c, 0, 73, 0
2, 7800, Note_on_c, 0, 74, 93
2, 7812, Note_off_c, 0, 74, 0
2, 7812, Note_on_c, 0, 73, 93
2, 7848, Note_off_c, 0, 73, 0
2, 7848, Note_on_c, 0, 74, 93
2, 7872, Note_off_c, 0, 74, 0
2, 7872, Note_on_c, 0, 76, 93
2, 7920, Note_off_c, 0, 76, 0
2, 7920, Note_on_c, 0, 69, 93
2, 8160, Note_off_c, 0, 69, 0
2, 8160, Note_on_c, 0, 71, 93
2, 8172, Note_off_c, 0, 71, 0
2, 8172, Note_on_c, 0, 73, 93
2, 8184, Note_off_c, 0, 73, 0
2, 8184, Note_on_c, 0, 74, 93
2, 8196, Note_off_c, 0, 74, 0
2, 8196, Note_on_c, 0, 76, 93
2, 8208, Note_off_c, 0, 76, 0
2, 8208, Note_on_c, 0, 78, 93
2, 8280, Note_off_c, 0, 78, 0
2, 8280, Note_on_c, 0, 74, 93
2, 8304, Note_off_c, 0, 74, 0
2, 8304, Note_on_c, 0, 69, 93
2, 8352, Note_off_c, 0, 69, 0
2, 8352, Note_on_c, 0, 71, 93
2, 8448, Note_off_c, 0, 71, 0
2, 8448, Note_on_c, 0, 73, 93
2, 8460, Note_off_c, 0, 73, 0
2, 8460, Note_on_c, 0, 74, 93
2, 8472, Note_off_c, 0, 74, 0
2, 8472, Note_on_c, 0, 76, 93
2, 8484, Note_off_c, 0, 76, 0
2, 8484, Note_on_c, 0, 78, 93
2, 8496, Note_off_c, 0, 78, 0
2, 8496, Note_on_c, 0, 79, 93
2, 8568, Note_off_c, 0, 79, 0
2, 8568, Note_on_c, 0, 76, 93
2, 8592, Note_off_c, 0, 76, 0
2, 8592, Note_on_c, 0, 71, 93
2, 8640, Note_off_c, 0, 71, 0
2, 8640, Note_on_c, 0, 71, 93
2, 8664, Note_off_c, 0, 71, 0
2, 8664, Note_on_c, 0, 73, 93
2, 8712, Note_off_c, 0, 73, 0
2, 8712, Note_on_c, 0, 69, 93
2, 8736, Note_off_c, 0, 69, 0
2, 8736, Note_on_c, 0, 81, 93
2, 8784, Note_off_c, 0, 81, 0
2, 8784, Note_on_c, 0, 74, 93
2, 8856, Note_off_c, 0, 74, 0
2, 8856, Note_on_c, 0, 76, 93
2, 8880, Note_off_c, 0, 76, 0
2, 8880, Note_on_c, 0, 73, 93
2, 8928, Note_off_c, 0, 73, 0
2, 8928, Note_on_c, 0, 73, 93
2, 8976, Note_off_c, 0, 73, 0
2, 8976, Note_on_c, 0, 74, 93
2, 9216, Note_off_c, 0, 74, 0
2, 9216, Note_on_c, 0, 78, 93
2, 9288, Note_off_c, 0, 78, 0
2, 9288, Note_on_c, 0, 76, 93
2, 9312, Note_off_c, 0, 76, 0
2, 9312, Note_on_c, 0, 78, 93
2, 9360, Note_off_c, 0, 78, 0
2, 9360, Note_on_c, 0, 69, 93
2, 9432, Note_off_c, 0, 69, 0
2, 9432, Note_on_c, 0, 74, 93
2, 9456, Note_off_c, 0, 74, 0
2, 9456, Note_on_c, 0, 78, 93
2, 9504, Note_off_c, 0, 78, 0
2, 9504, Note_on_c, 0, 79, 93
2, 9576, Note_off_c, 0, 79, 0
2, 9576, Note_on_c, 0, 78, 93
2, 9600, Note_off_c, 0, 78, 0
2, 9600, Note_on_c, 0, 79, 93
2, 9648, Note_off_c, 0, 79, 0
2, 9648, Note_on_c, 0, 83, 93
2, 9792, Note_off_c, 0, 83, 0
2, 9792, Note_on_c, 0, 76, 93
2, 9888, Note_off_c, 0, 76, 0
2, 9888, Note_on_c, 0, 78, 93
2, 9900, Note_off_c, 0, 78, 0
2, 9900, Note_on_c, 0, 79, 93
2, 9912, Note_off_c, 0, 79, 0
2, 9912, Note_on_c, 0, 81, 93
2, 9924, Note_off_c, 0, 81, 0
2, 9924, Note_on_c, 0, 83, 93
2, 9936, Note_off_c, 0, 83, 0
2, 9936, Note_on_c, 0, 84, 93
2, 9960, Note_off_c, 0, 84, 0
2, 9960, Note_on_c, 0, 83, 93
2, 9984, Note_off_c, 0, 83, 0
2, 9984, Note_on_c, 0, 81, 93
2, 10008, Note_off_c, 0, 81, 0
2, 10008, Note_on_c, 0, 79, 93
2, 10032, Note_off_c, 0, 79, 0
2, 10032, Note_on_c, 0, 78, 93
2, 10056, Note_off_c, 0, 78, 0
2, 10056, Note_on_c, 0, 76, 93
2, 10080, Note_off_c, 0, 76, 0
2, 10080, Note_on_c, 0, 76, 93
2, 10092, Note_off_c, 0, 76, 0
2, 10092, Note_on_c, 0, 75, 93
2, 10104, Note_off_c, 0, 75, 0
2, 10104, Note_on_c, 0, 76, 93
2, 10116, Note_off_c, 0, 76, 0
2, 10116, Note_on_c, 0, 75, 93
2, 10152, Note_off_c, 0, 75, 0
2, 10152, Note_on_c, 0, 73, 93
2, 10176, Note_off_c, 0, 73, 0
2, 10176, Note_on_c, 0, 75, 93
2, 10224, Note_off_c, 0, 75, 0
2, 10224, Note_on_c, 0, 71, 93
2, 10440, Note_off_c, 0, 71, 0
2, 10440, Note_on_c, 0, 83, 93
2, 10464, Note_off_c, 0, 83, 0
2, 10464, Note_on_c, 0, 78, 93
2, 10512, Note_off_c, 0, 78, 0
2, 10512, Note_on_c, 0, 79, 93
2, 10584, Note_off_c, 0, 79, 0
2, 10584, Note_on_c, 0, 75, 93
2, 10608, Note_off_c, 0, 75, 0
2, 10608, Note_on_c, 0, 76, 93
2, 10656, Note_off_c, 0, 76, 0
2, 10656, Note_on_c, 0, 72, 93
2, 10728, Note_off_c, 0, 72, 0
2, 10728, Note_on_c, 0, 76, 93
2, 10752, Note_off_c, 0, 76, 0
2, 10752, Note_on_c, 0, 80, 93
2, 10800, Note_off_c, 0, 80, 0
2, 10800, Note_on_c, 0, 81, 93
2, 10896, Note_off_c, 0, 81, 0
2, 10896, Note_on_c, 0, 83, 93
2, 10908, Note_off_c, 0, 83, 0
2, 10908, Note_on_c, 0, 81, 93
2, 10920, Note_off_c, 0, 81, 0
2, 10920, Note_on_c, 0, 79, 93
2, 10932, Note_off_c, 0, 79, 0
2, 10932, Note_on_c, 0, 78, 93
2, 10944, Note_off_c, 0, 78, 0
2, 10944, Note_on_c, 0, 79, 93
2, 11016, Note_off_c, 0, 79, 0
2, 11016, Note_on_c, 0, 81, 93
2, 11040, Note_off_c, 0, 81, 0
2, 11040, Note_on_c, 0, 83, 93
2, 11088, Note_off_c, 0, 83, 0
2, 11088, Note_on_c, 0, 76, 93
2, 11160, Note_off_c, 0, 76, 0
2, 11160, Note_on_c, 0, 78, 93
2, 11184, Note_off_c, 0, 78, 0
2, 11184, Note_on_c, 0, 75, 93
2, 11232, Note_off_c, 0, 75, 0
2, 11232, Note_on_c, 0, 76, 93
2, 11304, Note_off_c, 0, 76, 0
2, 11304, Note_on_c, 0, 71, 93
2, 11328, Note_off_c, 0, 71, 0
2, 11328, Note_on_c, 0, 67, 93
2, 11376, Note_off_c, 0, 67, 0
2, 11376, Note_on_c, 0, 64, 93
2, 11472, Note_off_c, 0, 64, 0
2, 11472, Note_on_c, 0, 71, 93
2, 11520, Note_off_c, 0, 71, 0
2, 11520, Note_on_c, 0, 71, 93
2, 11592, Note_off_c, 0, 71, 0
2, 11592, Note_on_c, 0, 68, 93
2, 11616, Note_off_c, 0, 68, 0
2, 11616, Note_on_c, 0, 69, 93
2, 11664, Note_off_c, 0, 69, 0
2, 11664, Note_on_c, 0, 74, 93
2, 11712, Note_off_c, 0, 74, 0
2, 11712, Note_on_c, 0, 76, 93
2, 11736, Note_off_c, 0, 76, 0
2, 11736, Note_on_c, 0, 74, 93
2, 11760, Note_off_c, 0, 74, 0
2, 11760, Note_on_c, 0, 72, 93
2, 11784, Note_off_c, 0, 72, 0
2, 11784, Note_on_c, 0, 71, 93
2, 11808, Note_off_c, 0, 71, 0
2, 11808, Note_on_c, 0, 72, 93
2, 11880, Note_off_c, 0, 72, 0
2, 11880, Note_on_c, 0, 76, 93
2, 11904, Note_off_c, 0, 76, 0
2, 11904, Note_on_c, 0, 74, 93
2, 11952, Note_off_c, 0, 74, 0
2, 11952, Note_on_c, 0, 76, 93
2, 12024, Note_off_c, 0, 76, 0
2, 12024, Note_on_c, 0, 79, 93
2, 12048, Note_off_c, 0, 79, 0
2, 12048, Note_on_c, 0, 78, 93
2, 12096, Note_off_c, 0, 78, 0
2, 12096, Note_on_c, 0, 79, 93
2, 12144, Note_off_c, 0, 79, 0
2, 12144, Note_on_c, 0, 81, 93
2, 12168, Note_off_c, 0, 81, 0
2, 12168, Note_on_c, 0, 79, 93
2, 12192, Note_off_c, 0, 79, 0
2, 12192, Note_on_c, 0, 78, 93
2, 12216, Note_off_c, 0, 78, 0
2, 12216, Note_on_c, 0, 76, 93
2, 12240, Note_off_c, 0, 76, 0
2, 12240, Note_on_c, 0, 81, 93
2, 12312, Note_off_c, 0, 81, 0
2, 12312, Note_on_c, 0, 83, 93
2, 12336, Note_off_c, 0, 83, 0
2, 12336, Note_on_c, 0, 79, 93
2, 12384, Note_off_c, 0, 79, 0
2, 12384, Note_on_c, 0, 79, 93
2, 12396, Note_off_c, 0, 79, 0
2, 12396, Note_on_c, 0, 78, 93
2, 12408, Note_off_c, 0, 78, 0
2, 12408, Note_on_c, 0, 79, 93
2, 12420, Note_off_c, 0, 79, 0
2, 12420, Note_on_c, 0, 78, 93
2, 12456, Note_off_c, 0, 78, 0
2, 12456, Note_on_c, 0, 76, 93
2, 12480, Note_off_c, 0, 76, 0
2, 12480, Note_on_c, 0, 78, 93
2, 12528, Note_off_c, 0, 78, 0
2, 12528, Note_on_c, 0, 74, 93
2, 12768, Note_off_c, 0, 74, 0
2, 12768, Note_on_c, 0, 76, 93
2, 12780, Note_off_c, 0, 76, 0
2, 12780, Note_on_c, 0, 78, 93
2, 12792, Note_off_c, 0, 78, 0
2, 12792, Note_on_c, 0, 79, 93
2, 12804, Note_off_c, 0, 79, 0
2, 12804, Note_on_c, 0, 81, 93
2, 12816, Note_off_c, 0, 81, 0
2, 12816, Note_on_c, 0, 83, 93
2, 12888, Note_off_c, 0, 83, 0
2, 12888, Note_on_c, 0, 79, 93
2, 12912, Note_off_c, 0, 79, 0
2, 12912, Note_on_c, 0, 74, 93
2, 12960, Note_off_c, 0, 74, 0
2, 12960, Note_on_c, 0, 76, 93
2, 13056, Note_off_c, 0, 76, 0
2, 13056, Note_on_c, 0, 78, 93
2, 13068, Note_off_c, 0, 78, 0
2, 13068, Note_on_c, 0, 79, 93
2, 13080, Note_off_c, 0, 79, 0
2, 13080, Note_on_c, 0, 81, 93
2, 13092, Note_off_c, 0, 81, 0
2, 13092, Note_on_c, 0, 83, 93
2, 13104, Note_off_c, 0, 83, 0
2, 13104, Note_on_c, 0, 84, 93
2, 13176, Note_off_c, 0, 84, 0
2, 13176, Note_on_c, 0, 81, 93
2, 13200, Note_off_c, 0, 81, 0
2, 13200, Note_on_c, 0, 76, 93
2, 13248, Note_off_c, 0, 76, 0
2, 13248, Note_on_c, 0, 78, 93
2, 13320, Note_off_c, 0, 78, 0
2, 13320, Note_on_c, 0, 74, 93
2, 13344, Note_off_c, 0, 74, 0
2, 13344, Note_on_c, 0, 86, 93
2, 13392, Note_off_c, 0, 86, 0
2, 13392, Note_on_c, 0, 79, 93
2, 13464, Note_off_c, 0, 79, 0
2, 13464, Note_on_c, 0, 81, 93
2, 13488, Note_off_c, 0, 81, 0
2, 13488, Note_on_c, 0, 78, 93
2, 13536, Note_off_c, 0, 78, 0
2, 13536, Note_on_c, 0, 79, 93
2, 13824, Note_off_c, 0, 79, 0
2, 13824, Note_on_c, 0, 78, 93
2, 13896, Note_off_c, 0, 78, 0
2, 13896, Note_on_c, 0, 76, 93
2, 13920, Note_off_c, 0, 76, 0
2, 13920, Note_on_c, 0, 78, 93
2, 13968, Note_off_c, 0, 78, 0
2, 13968, Note_on_c, 0, 69, 93
2, 14040, Note_off_c, 0, 69, 0
2, 14040, Note_on_c, 0, 74, 93
2, 14064, Note_off_c, 0, 74, 0
2, 14064, Note_on_c, 0, 78, 93
2, 14112, Note_off_c, 0, 78, 0
2, 14112, Note_on_c, 0, 79, 93
2, 14184, Note_off_c, 0, 79, 0
2, 14184, Note_on_c, 0, 78, 93
2, 14208, Note_off_c, 0, 78, 0
2, 14208, Note_on_c, 0, 79, 93
2, 14256, Note_off_c, 0, 79, 0
2, 14256, Note_on_c, 0, 83, 93
2, 14400, Note_off_c, 0, 83, 0
2, 14400, Note_on_c, 0, 76, 93
2, 14496, Note_off_c, 0, 76, 0
2, 14496, Note_on_c, 0, 78, 93
2, 14508, Note_off_c, 0, 78, 0
2, 14508, Note_on_c, 0, 79, 93
2, 14520, Note_off_c, 0, 79, 0
2, 14520, Note_on_c, 0, 81, 93
2, 14532, Note_off_c, 0, 81, 0
2, 14532, Note_on_c, 0, 83, 93
2, 14544, Note_off_c, 0, 83, 0
2, 14544, Note_on_c, 0, 84, 93
2, 14568, Note_off_c, 0, 84, 0
2, 14568, Note_on_c, 0, 83, 93
2, 14592, Note_off_c, 0, 83, 0
2, 14592, Note_on_c, 0, 81, 93
2, 14616, Note_off_c, 0, 81, 0
2, 14616, Note_on_c, 0, 79, 93
2, 14640, Note_off_c, 0, 79, 0
2, 14640, Note_on_c, 0, 78, 93
2, 14664, Note_off_c, 0, 78, 0
2, 14664, Note_on_c, 0, 76, 93
2, 14688, Note_off_c, 0, 76, 0
2, 14688, Note_on_c, 0, 76, 93
2, 14700, Note_off_c, 0, 76, 0
2, 14700, Note_on_c, 0, 75, 93
2, 14712, Note_off_c, 0, 75, 0
2, 14712, Note_on_c, 0, 76, 93
2, 14724, Note_off_c, 0, 76, 0
2, 14724, Note_on_c, 0, 75, 93
2, 14760, Note_off_c, 0, 75, 0
2, 14760, Note_on_c, 0, 73, 93
2, 14784, Note_off_c, 0, 73, 0
2, 14784, Note_on_c, 0, 75, 93
2, 14832, Note_off_c, 0, 75, 0
2, 14832, Note_on_c, 0, 71, 93
2, 15048, Note_off_c, 0, 71, 0
2, 15048, Note_on_c, 0, 83, 93
2, 15072, Note_off_c, 0, 83, 0
2, 15072, Note_on_c, 0, 78, 93
2, 15120, Note_off_c, 0, 78, 0
2, 15120, Note_on_c, 0, 79, 93
2, 15192, Note_off_c, 0, 79, 0
2, 15192, Note_on_c, 0, 75, 93
2, 15216, Note_off_c, 0, 75, 0
2, 15216, Note_on_c, 0, 76, 93
2, 15264, Note_off_c, 0, 76, 0
2, 15264, Note_on_c, 0, 72, 93
2, 15336, Note_off_c, 0, 72, 0
2, 15336, Note_on_c, 0, 76, 93
2, 15360, Note_off_c, 0, 76, 0
2, 15360, Note_on_c, 0, 80, 93
2, 15408, Note_off_c, 0, 80, 0
2, 15408, Note_on_c, 0, 81, 93
2, 15504, Note_off_c, 0, 81, 0
2, 15504, Note_on_c, 0, 83, 93
2, 15516, Note_off_c, 0, 83, 0
2, 15516, Note_on_c, 0, 81, 93
2, 15528, Note_off_c, 0, 81, 0
2, 15528, Note_on_c, 0, 79, 93
2, 15540, Note_off_c, 0, 79, 0
2, 15540, Note_on_c, 0, 78, 93
2, 15552, Note_off_c, 0, 78, 0
2, 15552, Note_on_c, 0, 79, 93
2, 15624, Note_off_c, 0, 79, 0
2, 15624, Note_on_c, 0, 81, 93
2, 15648, Note_off_c, 0, 81, 0
2, 15648, Note_on_c, 0, 83, 93
2, 15696, Note_off_c, 0, 83, 0
2, 15696, Note_on_c, 0, 76, 93
2, 15768, Note_off_c, 0, 76, 0
2, 15768, Note_on_c, 0, 78, 93
2, 15792, Note_off_c, 0, 78, 0
2, 15792, Note_on_c, 0, 75, 93
2, 15840, Note_off_c, 0, 75, 0
2, 15840, Note_on_c, 0, 76, 93
2, 15912, Note_off_c, 0, 76, 0
2, 15912, Note_on_c, 0, 71, 93
2, 15936, Note_off_c, 0, 71, 0
2, 15936, Note_on_c, 0, 67, 93
2, 15984, Note_off_c, 0, 67, 0
2, 15984, Note_on_c, 0, 64, 93
2, 16080, Note_off_c, 0, 64, 0
2, 16080, Note_on_c, 0, 71, 93
2, 16128, Note_off_c, 0, 71, 0
2, 16128, Note_on_c, 0, 71, 93
2, 16200, Note_off_c, 0, 71, 0
2, 16200, Note_on_c, 0, 68, 93
2, 16224, Note_off_c, 0, 68, 0
2, 16224, Note_on_c, 0, 69, 93
2, 16272, Note_off_c, 0, 69, 0
2, 16272, Note_on_c, 0, 74, 93
2, 16320, Note_off_c, 0, 74, 0
2, 16320, Note_on_c, 0, 76, 93
2, 16344, Note_off_c, 0, 76, 0
2, 16344, Note_on_c, 0, 74, 93
2, 16368, Note_off_c, 0, 74, 0
2, 16368, Note_on_c, 0, 72, 93
2, 16392, Note_off_c, 0, 72, 0
2, 16392, Note_on_c, 0, 71, 93
2, 16416, Note_off_c, 0, 71, 0
2, 16416, Note_on_c, 0, 72, 93
2, 16488, Note_off_c, 0, 72, 0
2, 16488, Note_on_c, 0, 76, 93
2, 16512, Note_off_c, 0, 76, 0
2, 16512, Note_on_c, 0, 74, 93
2, 16560, Note_off_c, 0, 74, 0
2, 16560, Note_on_c, 0, 76, 93
2, 16632, Note_off_c, 0, 76, 0
2, 16632, Note_on_c, 0, 79, 93
2, 16656, Note_off_c, 0, 79, 0
2, 16656, Note_on_c, 0, 78, 93
2, 16704, Note_off_c, 0, 78, 0
2, 16704, Note_on_c, 0, 79, 93
2, 16752, Note_off_c, 0, 79, 0
2, 16752, Note_on_c, 0, 81, 93
2, 16776, Note_off_c, 0, 81, 0
2, 16776, Note_on_c, 0, 79, 93
2, 16800, Note_off_c, 0, 79, 0
2, 16800, Note_on_c, 0, 78, 93
2, 16824, Note_off_c, 0, 78, 0
2, 16824, Note_on_c, 0, 76, 93
2, 16848, Note_off_c, 0, 76, 0
2, 16848, Note_on_c, 0, 81, 93
2, 16920, Note_off_c, 0, 81, 0
2, 16920, Note_on_c, 0, 83, 93
2, 16944, Note_off_c, 0, 83, 0
2, 16944, Note_on_c, 0, 79, 93
2, 16992, Note_off_c, 0, 79, 0
2, 16992, Note_on_c, 0, 79, 93
2, 17004, Note_off_c, 0, 79, 0
2, 17004, Note_on_c, 0, 78, 93
2, 17016, Note_off_c, 0, 78, 0
2, 17016, Note_on_c, 0, 79, 93
2, 17028, Note_off_c, 0, 79, 0
2, 17028, Note_on_c, 0, 78, 93
2, 17064, Note_off_c, 0, 78, 0
2, 17064, Note_on_c, 0, 76, 93
2, 17088, Note_off_c, 0, 76, 0
2, 17088, Note_on_c, 0, 78, 93
2, 17136, Note_off_c, 0, 78, 0
2, 17136, Note_on_c, 0, 74, 93
2, 17376, Note_off_c, 0, 74, 0
2, 17376, Note_on_c, 0, 76, 93
2, 17388, Note_off_c, 0, 76, 0
2, 17388, Note_on_c, 0, 78, 93
2, 17400, Note_off_c, 0, 78, 0
2, 17400, Note_on_c, 0, 79, 93
2, 17412, Note_off_c, 0, 79, 0
2, 17412, Note_on_c, 0, 81, 93
2, 17424, Note_off_c, 0, 81, 0
2, 17424, Note_on_c, 0, 83, 93
2, 17496, Note_off_c, 0, 83, 0
2, 17496, Note_on_c, 0, 79, 93
2, 17520, Note_off_c, 0, 79, 0
2, 17520, Note_on_c, 0, 74, 93
2, 17568, Note_off_c, 0, 74, 0
2, 17568, Note_on_c, 0, 76, 93
2, 17664, Note_off_c, 0, 76, 0
2, 17664, Note_on_c, 0, 78, 93
2, 17676, Note_off_c, 0, 78, 0
2, 17676, Note_on_c, 0, 79, 93
2, 17688, Note_off_c, 0, 79, 0
2, 17688, Note_on_c, 0, 81, 93
2, 17700, Note_off_c, 0, 81, 0
2, 17700, Note_on_c, 0, 83, 93
2, 17712, Note_off_c, 0, 83, 0
2, 17712, Note_on_c, 0, 84, 93
2, 17784, Note_off_c, 0, 84, 0
2, 17784, Note_on_c, 0, 81, 93
2, 17808, Note_off_c, 0, 81, 0
2, 17808, Note_on_c, 0, 76, 93
2, 17856, Note_off_c, 0, 76, 0
2, 17856, Note_on_c, 0, 78, 93
2, 17928, Note_off_c, 0, 78, 0
2, 17928, Note_on_c, 0, 74, 93
2, 17952, Note_off_c, 0, 74, 0
2, 17952, Note_on_c, 0, 86, 93
2, 18000, Note_off_c, 0, 86, 0
2, 18000, Note_on_c, 0, 79, 93
2, 18072, Note_off_c, 0, 79, 0
2, 18072, Note_on_c, 0, 81, 93
2, 18096, Note_off_c, 0, 81, 0
2, 18096, Note_on_c, 0, 78, 93
2, 18144, Note_off_c, 0, 78, 0
2, 18144, Note_on_c, 0, 79, 93
2, 18432, Note_off_c, 0, 79, 0
2, 18432, End_track
3, 0, Start_track
3, 0, Title_t, "Track3"
3, 0, Program_c, 1, 6
3, 0, Control_c, 1, 7, 100
3, 0, Control_c, 1, 10, 59
3, 0, Note_on_c, 1, 55, 93
3, 12, Note_off_c, 1, 55, 0
3, 12, Note_on_c, 1, 54, 93
3, 24, Note_off_c, 1, 54, 0
3, 24, Note_on_c, 1, 55, 93
3, 96, Note_off_c, 1, 55, 0
3, 96, Note_on_c, 1, 43, 93
3, 144, Note_off_c, 1, 43, 0
3, 144, Note_on_c, 1, 55, 93
3, 156, Note_off_c, 1, 55, 0
3, 156, Note_on_c, 1, 54, 93
3, 168, Note_off_c, 1, 54, 0
3, 168, Note_on_c, 1, 55, 93
3, 432, Note_off_c, 1, 55, 0
3, 432, Note_on_c, 1, 55, 93
3, 444, Note_off_c, 1, 55, 0
3, 444, Note_on_c, 1, 54, 93
3, 456, Note_off_c, 1, 54, 0
3, 456, Note_on_c, 1, 55, 93
3, 468, Note_off_c, 1, 55, 0
3, 468, Note_on_c, 1, 54, 93
3, 504, Note_off_c, 1, 54, 0
3, 504, Note_on_c, 1, 52, 93
3, 528, Note_off_c, 1, 52, 0
3, 528, Note_on_c, 1, 50, 93
3, 576, Note_off_c, 1, 50, 0
3, 576, Note_on_c, 1, 52, 93
3, 672, Note_off_c, 1, 52, 0
3, 672, Note_on_c, 1, 62, 93
3, 720, Note_off_c, 1, 62, 0
3, 720, Note_on_c, 1, 61, 93
3, 816, Note_off_c, 1, 61, 0
3, 816, Note_on_c, 1, 57, 93
3, 864, Note_off_c, 1, 57, 0
3, 864, Note_on_c, 1, 62, 93
3, 1080, Note_off_c, 1, 62, 0
3, 1080, Note_on_c, 1, 64, 93
3, 1104, Note_off_c, 1, 64, 0
3, 1104, Note_on_c, 1, 60, 93
3, 1152, Note_off_c, 1, 60, 0
3, 1152, Note_on_c, 1, 59, 93
3, 1224, Note_off_c, 1, 59, 0
3, 1224, Note_on_c, 1, 60, 93
3, 1248, Note_off_c, 1, 60, 0
3, 1248, Note_on_c, 1, 57, 93
3, 1296, Note_off_c, 1, 57, 0
3, 1296, Note_on_c, 1, 55, 93
3, 1368, Note_off_c, 1, 55, 0
3, 1368, Note_on_c, 1, 57, 93
3, 1392, Note_off_c, 1, 57, 0
3, 1392, Note_on_c, 1, 59, 93
3, 1440, Note_off_c, 1, 59, 0
3, 1440, Note_on_c, 1, 60, 93
3, 1512, Note_off_c, 1, 60, 0
3, 1512, Note_on_c, 1, 62, 93
3, 1536, Note_off_c, 1, 62, 0
3, 1536, Note_on_c, 1, 59, 93
3, 1584, Note_off_c, 1, 59, 0
3, 1584, Note_on_c, 1, 57, 93
3, 1656, Note_off_c, 1, 57, 0
3, 1656, Note_on_c, 1, 59, 93
3, 1680, Note_off_c, 1, 59, 0
3, 1680, Note_on_c, 1, 60, 93
3, 1728, Note_off_c, 1, 60, 0
3, 1728, Note_on_c, 1, 62, 93
3, 1800, Note_off_c, 1, 62, 0
3, 1800, Note_on_c, 1, 60, 93
3, 1824, Note_off_c, 1, 60, 0
3, 1824, Note_on_c, 1, 59, 93
3, 1872, Note_off_c, 1, 59, 0
3, 1872, Note_on_c, 1, 60, 93
3, 1968, Note_off_c, 1, 60, 0
3, 1968, Note_on_c, 1, 62, 93
3, 2016, Note_off_c, 1, 62, 0
3, 2016, Note_on_c, 1, 55, 93
3, 2088, Note_off_c, 1, 55, 0
3, 2088, Note_on_c, 1, 54, 93
3, 2112, Note_off_c, 1, 54, 0
3, 2112, Note_on_c, 1, 55, 93
3, 2160, Note_off_c, 1, 55, 0
3, 2160, Note_on_c, 1, 50, 93
3, 2232, Note_off_c, 1, 50, 0
3, 2232, Note_on_c, 1, 57, 93
3, 2256, Note_off_c, 1, 57, 0
3, 2256, Note_on_c, 1, 60, 93
3, 2304, Note_off_c, 1, 60, 0
3, 2304, Note_on_c, 1, 60, 93
3, 2316, Note_off_c, 1, 60, 0
3, 2316, Note_on_c, 1, 59, 93
3, 2328, Note_off_c, 1, 59, 0
3, 2328, Note_on_c, 1, 60, 93
3, 2340, Note_off_c, 1, 60, 0
3, 2340, Note_on_c, 1, 59, 93
3, 2376, Note_off_c, 1, 59, 0
3, 2376, Note_on_c, 1, 57, 93
3, 2400, Note_off_c, 1, 57, 0
3, 2400, Note_on_c, 1, 59, 93
3, 2448, Note_off_c, 1, 59, 0
3, 2448, Note_on_c, 1, 52, 93
3, 2520, Note_off_c, 1, 52, 0
3, 2520, Note_on_c, 1, 59, 93
3, 2544, Note_off_c, 1, 59, 0
3, 2544, Note_on_c, 1, 62, 93
3, 2592, Note_off_c, 1, 62, 0
3, 2592, Note_on_c, 1, 62, 93
3, 2604, Note_off_c, 1, 62, 0
3, 2604, Note_on_c, 1, 61, 93
3, 2616, Note_off_c, 1, 61, 0
3, 2616, Note_on_c, 1, 62, 93
3, 2628, Note_off_c, 1, 62, 0
3, 2628, Note_on_c, 1, 61, 93
3, 2664, Note_off_c, 1, 61, 0
3, 2664, Note_on_c, 1, 59, 93
3, 2688, Note_off_c, 1, 59, 0
3, 2688, Note_on_c, 1, 57, 93
3, 2736, Note_off_c, 1, 57, 0
3, 2736, Note_on_c, 1, 62, 93
3, 2808, Note_off_c, 1, 62, 0
3, 2808, Note_on_c, 1, 60, 93
3, 2832, Note_off_c, 1, 60, 0
3, 2832, Note_on_c, 1, 62, 93
3, 2880, Note_off_c, 1, 62, 0
3, 2880, Note_on_c, 1, 55, 93
3, 2952, Note_off_c, 1, 55, 0
3, 2952, Note_on_c, 1, 59, 93
3, 2976, Note_off_c, 1, 59, 0
3, 2976, Note_on_c, 1, 62, 93
3, 3024, Note_off_c, 1, 62, 0
3, 3024, Note_on_c, 1, 67, 93
3, 3216, Note_off_c, 1, 67, 0
3, 3216, Note_on_c, 1, 69, 93
3, 3240, Note_off_c, 1, 69, 0
3, 3240, Note_on_c, 1, 67, 93
3, 3264, Note_off_c, 1, 67, 0
3, 3264, Note_on_c, 1, 66, 93
3, 3288, Note_off_c, 1, 66, 0
3, 3288, Note_on_c, 1, 64, 93
3, 3312, Note_off_c, 1, 64, 0
3, 3312, Note_on_c, 1, 66, 93
3, 3384, Note_off_c, 1, 66, 0
3, 3384, Note_on_c, 1, 67, 93
3, 3408, Note_off_c, 1, 67, 0
3, 3408, Note_on_c, 1, 69, 93
3, 3456, Note_off_c, 1, 69, 0
3, 3456, Note_on_c, 1, 62, 93
3, 3528, Note_off_c, 1, 62, 0
3, 3528, Note_on_c, 1, 57, 93
3, 3552, Note_off_c, 1, 57, 0
3, 3552, Note_on_c, 1, 54, 93
3, 3600, Note_off_c, 1, 54, 0
3, 3600, Note_on_c, 1, 50, 93
3, 3672, Note_off_c, 1, 50, 0
3, 3672, Note_on_c, 1, 52, 93
3, 3696, Note_off_c, 1, 52, 0
3, 3696, Note_on_c, 1, 54, 93
3, 3744, Note_off_c, 1, 54, 0
3, 3744, Note_on_c, 1, 55, 93
3, 3816, Note_off_c, 1, 55, 0
3, 3816, Note_on_c, 1, 57, 93
3, 3840, Note_off_c, 1, 57, 0
3, 3840, Note_on_c, 1, 54, 93
3, 3888, Note_off_c, 1, 54, 0
3, 3888, Note_on_c, 1, 52, 93
3, 3960, Note_off_c, 1, 52, 0
3, 3960, Note_on_c, 1, 54, 93
3, 3984, Note_off_c, 1, 54, 0
3, 3984, Note_on_c, 1, 55, 93
3, 4032, Note_off_c, 1, 55, 0
3, 4032, Note_on_c, 1, 57, 93
3, 4104, Note_off_c, 1, 57, 0
3, 4104, Note_on_c, 1, 55, 93
3, 4128, Note_off_c, 1, 55, 0
3, 4128, Note_on_c, 1, 54, 93
3, 4176, Note_off_c, 1, 54, 0
3, 4176, Note_on_c, 1, 59, 93
3, 4248, Note_off_c, 1, 59, 0
3, 4248, Note_on_c, 1, 55, 93
3, 4272, Note_off_c, 1, 55, 0
3, 4272, Note_on_c, 1, 57, 93
3, 4320, Note_off_c, 1, 57, 0
3, 4320, Note_on_c, 1, 50, 93
3, 4392, Note_off_c, 1, 50, 0
3, 4392, Note_on_c, 1, 54, 93
3, 4416, Note_off_c, 1, 54, 0
3, 4416, Note_on_c, 1, 57, 93
3, 4464, Note_off_c, 1, 57, 0
3, 4464, Note_on_c, 1, 62, 93
3, 4608, Note_off_c, 1, 62, 0
3, 4608, Note_on_c, 1, 55, 93
3, 4620, Note_off_c, 1, 55, 0
3, 4620, Note_on_c, 1, 54, 93
3, 4632, Note_off_c, 1, 54, 0
3, 4632, Note_on_c, 1, 55, 93
3, 4704, Note_off_c, 1, 55, 0
3, 4704, Note_on_c, 1, 43, 93
3, 4752, Note_off_c, 1, 43, 0
3, 4752, Note_on_c, 1, 55, 93
3, 4764, Note_off_c, 1, 55, 0
3, 4764, Note_on_c, 1, 54, 93
3, 4776, Note_off_c, 1, 54, 0
3, 4776, Note_on_c, 1, 55, 93
3, 5040, Note_off_c, 1, 55, 0
3, 5040, Note_on_c, 1, 55, 93
3, 5052, Note_off_c, 1, 55, 0
3, 5052, Note_on_c, 1, 54, 93
3, 5064, Note_off_c, 1, 54, 0
3, 5064, Note_on_c, 1, 55, 93
3, 5076, Note_off_c, 1, 55, 0
3, 5076, Note_on_c, 1, 54, 93
3, 5112, Note_off_c, 1, 54, 0
3, 5112, Note_on_c, 1, 52, 93
3, 5136, Note_off_c, 1, 52, 0
3, 5136, Note_on_c, 1, 50, 93
3, 5184, Note_off_c, 1, 50, 0
3, 5184, Note_on_c, 1, 52, 93
3, 5280, Note_off_c, 1, 52, 0
3, 5280, Note_on_c, 1, 62, 93
3, 5328, Note_off_c, 1, 62, 0
3, 5328, Note_on_c, 1, 61, 93
3, 5424, Note_off_c, 1, 61, 0
3, 5424, Note_on_c, 1, 57, 93
3, 5472, Note_off_c, 1, 57, 0
3, 5472, Note_on_c, 1, 62, 93
3, 5688, Note_off_c, 1, 62, 0
3, 5688, Note_on_c, 1, 64, 93
3, 5712, Note_off_c, 1, 64, 0
3, 5712, Note_on_c, 1, 60, 93
3, 5760, Note_off_c, 1, 60, 0
3, 5760, Note_on_c, 1, 59, 93
3, 5832, Note_off_c, 1, 59, 0
3, 5832, Note_on_c, 1, 60, 93
3, 5856, Note_off_c, 1, 60, 0
3, 5856, Note_on_c, 1, 57, 93
3, 5904, Note_off_c, 1, 57, 0
3, 5904, Note_on_c, 1, 55, 93
3, 5976, Note_off_c, 1, 55, 0
3, 5976, Note_on_c, 1, 57, 93
3, 6000, Note_off_c, 1, 57, 0
3, 6000, Note_on_c, 1, 59, 93
3, 6048, Note_off_c, 1, 59, 0
3, 6048, Note_on_c, 1, 60, 93
3, 6120, Note_off_c, 1, 60, 0
3, 6120, Note_on_c, 1, 62, 93
3, 6144, Note_off_c, 1, 62, 0
3, 6144, Note_on_c, 1, 59, 93
3, 6192, Note_off_c, 1, 59, 0
3, 6192, Note_on_c, 1, 57, 93
3, 6264, Note_off_c, 1, 57, 0
3, 6264, Note_on_c, 1, 59, 93
3, 6288, Note_off_c, 1, 59, 0
3, 6288, Note_on_c, 1, 60, 93
3, 6336, Note_off_c, 1, 60, 0
3, 6336, Note_on_c, 1, 62, 93
3, 6408, Note_off_c, 1, 62, 0
3, 6408, Note_on_c, 1, 60, 93
3, 6432, Note_off_c, 1, 60, 0
3, 6432, Note_on_c, 1, 59, 93
3, 6480, Note_off_c, 1, 59, 0
3, 6480, Note_on_c, 1, 60, 93
3, 6576, Note_off_c, 1, 60, 0
3, 6576, Note_on_c, 1, 62, 93
3, 6624, Note_off_c, 1, 62, 0
3, 6624, Note_on_c, 1, 55, 93
3, 6696, Note_off_c, 1, 55, 0
3, 6696, Note_on_c, 1, 54, 93
3, 6720, Note_off_c, 1, 54, 0
3, 6720, Note_on_c, 1, 55, 93
3, 6768, Note_off_c, 1, 55, 0
3, 6768, Note_on_c, 1, 50, 93
3, 6840, Note_off_c, 1, 50, 0
3, 6840, Note_on_c, 1, 57, 93
3, 6864, Note_off_c, 1, 57, 0
3, 6864, Note_on_c, 1, 60, 93
3, 6912, Note_off_c, 1, 60, 0
3, 6912, Note_on_c, 1, 60, 93
3, 6924, Note_off_c, 1, 60, 0
3, 6924, Note_on_c, 1, 59, 93
3, 6936, Note_off_c, 1, 59, 0
3, 6936, Note_on_c, 1, 60, 93
3, 6948, Note_off_c, 1, 60, 0
3, 6948, Note_on_c, 1, 59, 93
3, 6984, Note_off_c, 1, 59, 0
3, 6984, Note_on_c, 1, 57, 93
3, 7008, Note_off_c, 1, 57, 0
3, 7008, Note_on_c, 1, 59, 93
3, 7056, Note_off_c, 1, 59, 0
3, 7056, Note_on_c, 1, 52, 93
3, 7128, Note_off_c, 1, 52, 0
3, 7128, Note_on_c, 1, 59, 93
3, 7152, Note_off_c, 1, 59, 0
3, 7152, Note_on_c, 1, 62, 93
3, 7200, Note_off_c, 1, 62, 0
3, 7200, Note_on_c, 1, 62, 93
3, 7212, Note_off_c, 1, 62, 0
3, 7212, Note_on_c, 1, 61, 93
3, 7224, Note_off_c, 1, 61, 0
3, 7224, Note_on_c, 1, 62, 93
3, 7236, Note_off_c, 1, 62, 0
3, 7236, Note_on_c, 1, 61, 93
3, 7272, Note_off_c, 1, 61, 0
3, 7272, Note_on_c, 1, 59, 93
3, 7296, Note_off_c, 1, 59, 0
3, 7296, Note_on_c, 1, 57, 93
3, 7344, Note_off_c, 1, 57, 0
3, 7344, Note_on_c, 1, 62, 93
3, 7416, Note_off_c, 1, 62, 0
3, 7416, Note_on_c, 1, 60, 93
3, 7440, Note_off_c, 1, 60, 0
3, 7440, Note_on_c, 1, 62, 93
3, 7488, Note_off_c, 1, 62, 0
3, 7488, Note_on_c, 1, 55, 93
3, 7560, Note_off_c, 1, 55, 0
3, 7560, Note_on_c, 1, 59, 93
3, 7584, Note_off_c, 1, 59, 0
3, 7584, Note_on_c, 1, 62, 93
3, 7632, Note_off_c, 1, 62, 0
3, 7632, Note_on_c, 1, 67, 93
3, 7824, Note_off_c, 1, 67, 0
3, 7824, Note_on_c, 1, 69, 93
3, 7848, Note_off_c, 1, 69, 0
3, 7848, Note_on_c, 1, 67, 93
3, 7872, Note_off_c, 1, 67, 0
3, 7872, Note_on_c, 1, 66, 93
3, 7896, Note_off_c, 1, 66, 0
3, 7896, Note_on_c, 1, 64, 93
3, 7920, Note_off_c, 1, 64, 0
3, 7920, Note_on_c, 1, 66, 93
3, 7992, Note_off_c, 1, 66, 0
3, 7992, Note_on_c, 1, 67, 93
3, 8016, Note_off_c, 1, 67, 0
3, 8016, Note_on_c, 1, 69, 93
3, 8064, Note_off_c, 1, 69, 0
3, 8064, Note_on_c, 1, 62, 93
3, 8136, Note_off_c, 1, 62, 0
3, 8136, Note_on_c, 1, 57, 93
3, 8160, Note_off_c, 1, 57, 0
3, 8160, Note_on_c, 1, 54, 93
3, 8208, Note_off_c, 1, 54, 0
3, 8208, Note_on_c, 1, 50, 93
3, 8280, Note_off_c, 1, 50, 0
3, 8280, Note_on_c, 1, 52, 93
3, 8304, Note_off_c, 1, 52, 0
3, 8304, Note_on_c, 1, 54, 93
3, 8352, Note_off_c, 1, 54, 0
3, 8352, Note_on_c, 1, 55, 93
3, 8424, Note_off_c, 1, 55, 0
3, 8424, Note_on_c, 1, 57, 93
3, 8448, Note_off_c, 1, 57, 0
3, 8448, Note_on_c, 1, 54, 93
3, 8496, Note_off_c, 1, 54, 0
3, 8496, Note_on_c, 1, 52, 93
3, 8568, Note_off_c, 1, 52, 0
3, 8568, Note_on_c, 1, 54, 93
3, 8592, Note_off_c, 1, 54, 0
3, 8592, Note_on_c, 1, 55, 93
3, 8640, Note_off_c, 1, 55, 0
3, 8640, Note_on_c, 1, 57, 93
3, 8712, Note_off_c, 1, 57, 0
3, 8712, Note_on_c, 1, 55, 93
3, 8736, Note_off_c, 1, 55, 0
3, 8736, Note_on_c, 1, 54, 93
3, 8784, Note_off_c, 1, 54, 0
3, 8784, Note_on_c, 1, 59, 93
3, 8856, Note_off_c, 1, 59, 0
3, 8856, Note_on_c, 1, 55, 93
3, 8880, Note_off_c, 1, 55, 0
3, 8880, Note_on_c, 1, 57, 93
3, 8928, Note_off_c, 1, 57, 0
3, 8928, Note_on_c, 1, 50, 93
3, 9000, Note_off_c, 1, 50, 0
3, 9000, Note_on_c, 1, 54, 93
3, 9024, Note_off_c, 1, 54, 0
3, 9024, Note_on_c, 1, 57, 93
3, 9072, Note_off_c, 1, 57, 0
3, 9072, Note_on_c, 1, 62, 93
3, 9216, Note_off_c, 1, 62, 0
3, 9216, Note_on_c, 1, 62, 93
3, 9312, Note_off_c, 1, 62, 0
3, 9312, Note_on_c, 1, 50, 93
3, 9360, Note_off_c, 1, 50, 0
3, 9360, Note_on_c, 1, 62, 93
3, 9456, Note_off_c, 1, 62, 0
3, 9456, Note_on_c, 1, 60, 93
3, 9504, Note_off_c, 1, 60, 0
3, 9504, Note_on_c, 1, 60, 93
3, 9516, Note_off_c, 1, 60, 0
3, 9516, Note_on_c, 1, 59, 93
3, 9528, Note_off_c, 1, 59, 0
3, 9528, Note_on_c, 1, 60, 93
3, 9540, Note_off_c, 1, 60, 0
3, 9540, Note_on_c, 1, 59, 93
3, 9576, Note_off_c, 1, 59, 0
3, 9576, Note_on_c, 1, 57, 93
3, 9600, Note_off_c, 1, 57, 0
3, 9600, Note_on_c, 1, 59, 93
3, 9648, Note_off_c, 1, 59, 0
3, 9648, Note_on_c, 1, 55, 93
3, 9720, Note_off_c, 1, 55, 0
3, 9720, Note_on_c, 1, 57, 93
3, 9744, Note_off_c, 1, 57, 0
3, 9744, Note_on_c, 1, 59, 93
3, 9792, Note_off_c, 1, 59, 0
3, 9792, Note_on_c, 1, 60, 93
3, 9864, Note_off_c, 1, 60, 0
3, 9864, Note_on_c, 1, 62, 93
3, 9888, Note_off_c, 1, 62, 0
3, 9888, Note_on_c, 1, 59, 93
3, 9936, Note_off_c, 1, 59, 0
3, 9936, Note_on_c, 1, 57, 93
3, 10008, Note_off_c, 1, 57, 0
3, 10008, Note_on_c, 1, 59, 93
3, 10032, Note_off_c, 1, 59, 0
3, 10032, Note_on_c, 1, 60, 93
3, 10080, Note_off_c, 1, 60, 0
3, 10080, Note_on_c, 1, 59, 93
3, 10176, Note_off_c, 1, 59, 0
3, 10176, Note_on_c, 1, 47, 93
3, 10224, Note_off_c, 1, 47, 0
3, 10224, Note_on_c, 1, 59, 93
3, 10296, Note_off_c, 1, 59, 0
3, 10296, Note_on_c, 1, 57, 93
3, 10320, Note_off_c, 1, 57, 0
3, 10320, Note_on_c, 1, 59, 93
3, 10368, Note_off_c, 1, 59, 0
3, 10368, Note_on_c, 1, 55, 93
3, 10464, Note_off_c, 1, 55, 0
3, 10464, Note_on_c, 1, 57, 93
3, 10476, Note_off_c, 1, 57, 0
3, 10476, Note_on_c, 1, 59, 93
3, 10488, Note_off_c, 1, 59, 0
3, 10488, Note_on_c, 1, 61, 93
3, 10500, Note_off_c, 1, 61, 0
3, 10500, Note_on_c, 1, 63, 93
3, 10512, Note_off_c, 1, 63, 0
3, 10512, Note_on_c, 1, 64, 93
3, 10584, Note_off_c, 1, 64, 0
3, 10584, Note_on_c, 1, 59, 93
3, 10608, Note_off_c, 1, 59, 0
3, 10608, Note_on_c, 1, 55, 93
3, 10656, Note_off_c, 1, 55, 0
3, 10656, Note_on_c, 1, 57, 93
3, 10752, Note_off_c, 1, 57, 0
3, 10752, Note_on_c, 1, 59, 93
3, 10764, Note_off_c, 1, 59, 0
3, 10764, Note_on_c, 1, 60, 93
3, 10776, Note_off_c, 1, 60, 0
3, 10776, Note_on_c, 1, 62, 93
3, 10788, Note_off_c, 1, 62, 0
3, 10788, Note_on_c, 1, 64, 93
3, 10800, Note_off_c, 1, 64, 0
3, 10800, Note_on_c, 1, 65, 93
3, 10872, Note_off_c, 1, 65, 0
3, 10872, Note_on_c, 1, 64, 93
3, 10896, Note_off_c, 1, 64, 0
3, 10896, Note_on_c, 1, 63, 93
3, 10944, Note_off_c, 1, 63, 0
3, 10944, Note_on_c, 1, 64, 93
3, 11040, Note_off_c, 1, 64, 0
3, 11040, Note_on_c, 1, 55, 93
3, 11088, Note_off_c, 1, 55, 0
3, 11088, Note_on_c, 1, 60, 93
3, 11160, Note_off_c, 1, 60, 0
3, 11160, Note_on_c, 1, 57, 93
3, 11184, Note_off_c, 1, 57, 0
3, 11184, Note_on_c, 1, 59, 93
3, 11232, Note_off_c, 1, 59, 0
3, 11232, Note_on_c, 1, 52, 93
3, 11448, Note_off_c, 1, 52, 0
3, 11448, Note_on_c, 1, 64, 93
3, 11472, Note_off_c, 1, 64, 0
3, 11472, Note_on_c, 1, 62, 93
3, 11520, Note_off_c, 1, 62, 0
3, 11520, Note_on_c, 1, 62, 93
3, 11532, Note_off_c, 1, 62, 0
3, 11532, Note_on_c, 1, 60, 93
3, 11544, Note_off_c, 1, 60, 0
3, 11544, Note_on_c, 1, 62, 93
3, 11556, Note_off_c, 1, 62, 0
3, 11556, Note_on_c, 1, 60, 93
3, 11592, Note_off_c, 1, 60, 0
3, 11592, Note_on_c, 1, 59, 93
3, 11616, Note_off_c, 1, 59, 0
3, 11616, Note_on_c, 1, 60, 93
3, 11664, Note_off_c, 1, 60, 0
3, 11664, Note_on_c, 1, 56, 93
3, 11736, Note_off_c, 1, 56, 0
3, 11736, Note_on_c, 1, 59, 93
3, 11760, Note_off_c, 1, 59, 0
3, 11760, Note_on_c, 1, 52, 93
3, 11808, Note_off_c, 1, 52, 0
3, 11808, Note_on_c, 1, 57, 93
3, 11880, Note_off_c, 1, 57, 0
3, 11880, Note_on_c, 1, 60, 93
3, 11904, Note_off_c, 1, 60, 0
3, 11904, Note_on_c, 1, 59, 93
3, 11952, Note_off_c, 1, 59, 0
3, 11952, Note_on_c, 1, 60, 93
3, 12024, Note_off_c, 1, 60, 0
3, 12024, Note_on_c, 1, 59, 93
3, 12048, Note_off_c, 1, 59, 0
3, 12048, Note_on_c, 1, 57, 93
3, 12096, Note_off_c, 1, 57, 0
3, 12096, Note_on_c, 1, 59, 93
3, 12168, Note_off_c, 1, 59, 0
3, 12168, Note_on_c, 1, 64, 93
3, 12192, Note_off_c, 1, 64, 0
3, 12192, Note_on_c, 1, 62, 93
3, 12240, Note_off_c, 1, 62, 0
3, 12240, Note_on_c, 1, 62, 93
3, 12252, Note_off_c, 1, 62, 0
3, 12252, Note_on_c, 1, 61, 93
3, 12264, Note_off_c, 1, 61, 0
3, 12264, Note_on_c, 1, 62, 93
3, 12276, Note_off_c, 1, 62, 0
3, 12276, Note_on_c, 1, 61, 93
3, 12312, Note_off_c, 1, 61, 0
3, 12312, Note_on_c, 1, 59, 93
3, 12336, Note_off_c, 1, 59, 0
3, 12336, Note_on_c, 1, 61, 93
3, 12384, Note_off_c, 1, 61, 0
3, 12384, Note_on_c, 1, 62, 93
3, 12600, Note_off_c, 1, 62, 0
3, 12600, Note_on_c, 1, 64, 93
3, 12624, Note_off_c, 1, 64, 0
3, 12624, Note_on_c, 1, 60, 93
3, 12672, Note_off_c, 1, 60, 0
3, 12672, Note_on_c, 1, 59, 93
3, 12744, Note_off_c, 1, 59, 0
3, 12744, Note_on_c, 1, 60, 93
3, 12768, Note_off_c, 1, 60, 0
3, 12768, Note_on_c, 1, 57, 93
3, 12816, Note_off_c, 1, 57, 0
3, 12816, Note_on_c, 1, 55, 93
3, 12888, Note_off_c, 1, 55, 0
3, 12888, Note_on_c, 1, 57, 93
3, 12912, Note_off_c, 1, 57, 0
3, 12912, Note_on_c, 1, 59, 93
3, 12960, Note_off_c, 1, 59, 0
3, 12960, Note_on_c, 1, 60, 93
3, 13032, Note_off_c, 1, 60, 0
3, 13032, Note_on_c, 1, 62, 93
3, 13056, Note_off_c, 1, 62, 0
3, 13056, Note_on_c, 1, 59, 93
3, 13104, Note_off_c, 1, 59, 0
3, 13104, Note_on_c, 1, 57, 93
3, 13176, Note_off_c, 1, 57, 0
3, 13176, Note_on_c, 1, 59, 93
3, 13200, Note_off_c, 1, 59, 0
3, 13200, Note_on_c, 1, 60, 93
3, 13248, Note_off_c, 1, 60, 0
3, 13248, Note_on_c, 1, 62, 93
3, 13320, Note_off_c, 1, 62, 0
3, 13320, Note_on_c, 1, 60, 93
3, 13344, Note_off_c, 1, 60, 0
3, 13344, Note_on_c, 1, 59, 93
3, 13392, Note_off_c, 1, 59, 0
3, 13392, Note_on_c, 1, 64, 93
3, 13464, Note_off_c, 1, 64, 0
3, 13464, Note_on_c, 1, 60, 93
3, 13488, Note_off_c, 1, 60, 0
3, 13488, Note_on_c, 1, 62, 93
3, 13536, Note_off_c, 1, 62, 0
3, 13536, Note_on_c, 1, 55, 93
3, 13608, Note_off_c, 1, 55, 0
3, 13608, Note_on_c, 1, 50, 93
3, 13632, Note_off_c, 1, 50, 0
3, 13632, Note_on_c, 1, 47, 93
3, 13680, Note_off_c, 1, 47, 0
3, 13680, Note_on_c, 1, 43, 93
3, 13824, Note_off_c, 1, 43, 0
3, 13824, Note_on_c, 1, 62, 93
3, 13920, Note_off_c, 1, 62, 0
3, 13920, Note_on_c, 1, 50, 93
3, 13968, Note_off_c, 1, 50, 0
3, 13968, Note_on_c, 1, 62, 93
3, 14064, Note_off_c, 1, 62, 0
3, 14064, Note_on_c, 1, 60, 93
3, 14112, Note_off_c, 1, 60, 0
3, 14112, Note_on_c, 1, 60, 93
3, 14124, Note_off_c, 1, 60, 0
3, 14124, Note_on_c, 1, 59, 93
3, 14136, Note_off_c, 1, 59, 0
3, 14136, Note_on_c, 1, 60, 93
3, 14148, Note_off_c, 1, 60, 0
3, 14148, Note_on_c, 1, 59, 93
3, 14184, Note_off_c, 1, 59, 0
3, 14184, Note_on_c, 1, 57, 93
3, 14208, Note_off_c, 1, 57, 0
3, 14208, Note_on_c, 1, 59, 93
3, 14256, Note_off_c, 1, 59, 0
3, 14256, Note_on_c, 1, 55, 93
3, 14328, Note_off_c, 1, 55, 0
3, 14328, Note_on_c, 1, 57, 93
3, 14352, Note_off_c, 1, 57, 0
3, 14352, Note_on_c, 1, 59, 93
3, 14400, Note_off_c, 1, 59, 0
3, 14400, Note_on_c, 1, 60, 93
3, 14472, Note_off_c, 1, 60, 0
3, 14472, Note_on_c, 1, 62, 93
3, 14496, Note_off_c, 1, 62, 0
3, 14496, Note_on_c, 1, 59, 93
3, 14544, Note_off_c, 1, 59, 0
3, 14544, Note_on_c, 1, 57, 93
3, 14616, Note_off_c, 1, 57, 0
3, 14616, Note_on_c, 1, 59, 93
3, 14640, Note_off_c, 1, 59, 0
3, 14640, Note_on_c, 1, 60, 93
3, 14688, Note_off_c, 1, 60, 0
3, 14688, Note_on_c, 1, 59, 93
3, 14784, Note_off_c, 1, 59, 0
3, 14784, Note_on_c, 1, 47, 93
3, 14832, Note_off_c, 1, 47, 0
3, 14832, Note_on_c, 1, 59, 93
3, 14904, Note_off_c, 1, 59, 0
3, 14904, Note_on_c, 1, 57, 93
3, 14928, Note_off_c, 1, 57, 0
3, 14928, Note_on_c, 1, 59, 93
3, 14976, Note_off_c, 1, 59, 0
3, 14976, Note_on_c, 1, 55, 93
3, 15072, Note_off_c, 1, 55, 0
3, 15072, Note_on_c, 1, 57, 93
3, 15084, Note_off_c, 1, 57, 0
3, 15084, Note_on_c, 1, 59, 93
3, 15096, Note_off_c, 1, 59, 0
3, 15096, Note_on_c, 1, 61, 93
3, 15108, Note_off_c, 1, 61, 0
3, 15108, Note_on_c, 1, 63, 93
3, 15120, Note_off_c, 1, 63, 0
3, 15120, Note_on_c, 1, 64, 93
3, 15192, Note_off_c, 1, 64, 0
3, 15192, Note_on_c, 1, 59, 93
3, 15216, Note_off_c, 1, 59, 0
3, 15216, Note_on_c, 1, 55, 93
3, 15264, Note_off_c, 1, 55, 0
3, 15264, Note_on_c, 1, 57, 93
3, 15360, Note_off_c, 1, 57, 0
3, 15360, Note_on_c, 1, 59, 93
3, 15372, Note_off_c, 1, 59, 0
3, 15372, Note_on_c, 1, 60, 93
3, 15384, Note_off_c, 1, 60, 0
3, 15384, Note_on_c, 1, 62, 93
3, 15396, Note_off_c, 1, 62, 0
3, 15396, Note_on_c, 1, 64, 93
3, 15408, Note_off_c, 1, 64, 0
3, 15408, Note_on_c, 1, 65, 93
3, 15480, Note_off_c, 1, 65, 0
3, 15480, Note_on_c, 1, 64, 93
3, 15504, Note_off_c, 1, 64, 0
3, 15504, Note_on_c, 1, 63, 93
3, 15552, Note_off_c, 1, 63, 0
3, 15552, Note_on_c, 1, 64, 93
3, 15648, Note_off_c, 1, 64, 0
3, 15648, Note_on_c, 1, 55, 93
3, 15696, Note_off_c, 1, 55, 0
3, 15696, Note_on_c, 1, 60, 93
3, 15768, Note_off_c, 1, 60, 0
3, 15768, Note_on_c, 1, 57, 93
3, 15792, Note_off_c, 1, 57, 0
3, 15792, Note_on_c, 1, 59, 93
3, 15840, Note_off_c, 1, 59, 0
3, 15840, Note_on_c, 1, 52, 93
3, 16056, Note_off_c, 1, 52, 0
3, 16056, Note_on_c, 1, 64, 93
3, 16080, Note_off_c, 1, 64, 0
3, 16080, Note_on_c, 1, 62, 93
3, 16128, Note_off_c, 1, 62, 0
3, 16128, Note_on_c, 1, 62, 93
3, 16140, Note_off_c, 1, 62, 0
3, 16140, Note_on_c, 1, 60, 93
3, 16152, Note_off_c, 1, 60, 0
3, 16152, Note_on_c, 1, 62, 93
3, 16164, Note_off_c, 1, 62, 0
3, 16164, Note_on_c, 1, 60, 93
3, 16200, Note_off_c, 1, 60, 0
3, 16200, Note_on_c, 1, 59, 93
3, 16224, Note_off_c, 1, 59, 0
3, 16224, Note_on_c, 1, 60, 93
3, 16272, Note_off_c, 1, 60, 0
3, 16272, Note_on_c, 1, 56, 93
3, 16344, Note_off_c, 1, 56, 0
3, 16344, Note_on_c, 1, 59, 93
3, 16368, Note_off_c, 1, 59, 0
3, 16368, Note_on_c, 1, 52, 93
3, 16416, Note_off_c, 1, 52, 0
3, 16416, Note_on_c, 1, 57, 93
3, 16488, Note_off_c, 1, 57, 0
3, 16488, Note_on_c, 1, 60, 93
3, 16512, Note_off_c, 1, 60, 0
3, 16512, Note_on_c, 1, 59, 93
3, 16560, Note_off_c, 1, 59, 0
3, 16560, Note_on_c, 1, 60, 93
3, 16632, Note_off_c, 1, 60, 0
3, 16632, Note_on_c, 1, 59, 93
3, 16656, Note_off_c, 1, 59, 0
3, 16656, Note_on_c, 1, 57, 93
3, 16704, Note_off_c, 1, 57, 0
3, 16704, Note_on_c, 1, 59, 93
3, 16776, Note_off_c, 1, 59, 0
3, 16776, Note_on_c, 1, 64, 93
3, 16800, Note_off_c, 1, 64, 0
3, 16800, Note_on_c, 1, 62, 93
3, 16848, Note_off_c, 1, 62, 0
3, 16848, Note_on_c, 1, 62, 93
3, 16860, Note_off_c, 1, 62, 0
3, 16860, Note_on_c, 1, 61, 93
3, 16872, Note_off_c, 1, 61, 0
3, 16872, Note_on_c, 1, 62, 93
3, 16884, Note_off_c, 1, 62, 0
3, 16884, Note_on_c, 1, 61, 93
3, 16920, Note_off_c, 1, 61, 0
3, 16920, Note_on_c, 1, 59, 93
3, 16944, Note_off_c, 1, 59, 0
3, 16944, Note_on_c, 1, 61, 93
3, 16992, Note_off_c, 1, 61, 0
3, 16992, Note_on_c, 1, 62, 93
3, 17208, Note_off_c, 1, 62, 0
3, 17208, Note_on_c, 1, 64, 93
3, 17232, Note_off_c, 1, 64, 0
3, 17232, Note_on_c, 1, 60, 93
3, 17280, Note_off_c, 1, 60, 0
3, 17280, Note_on_c, 1, 59, 93
3, 17352, Note_off_c, 1, 59, 0
3, 17352, Note_on_c, 1, 60, 93
3, 17376, Note_off_c, 1, 60, 0
3, 17376, Note_on_c, 1, 57, 93
3, 17424, Note_off_c, 1, 57, 0
3, 17424, Note_on_c, 1, 55, 93
3, 17496, Note_off_c, 1, 55, 0
3, 17496, Note_on_c, 1, 57, 93
3, 17520, Note_off_c, 1, 57, 0
3, 17520, Note_on_c, 1, 59, 93
3, 17568, Note_off_c, 1, 59, 0
3, 17568, Note_on_c, 1, 60, 93
3, 17640, Note_off_c, 1, 60, 0
3, 17640, Note_on_c, 1, 62, 93
3, 17664, Note_off_c, 1, 62, 0
3, 17664, Note_on_c, 1, 59, 93
3, 17712, Note_off_c, 1, 59, 0
3, 17712, Note_on_c, 1, 57, 93
3, 17784, Note_off_c, 1, 57, 0
3, 17784, Note_on_c, 1, 59, 93
3, 17808, Note_off_c, 1, 59, 0
3, 17808, Note_on_c, 1, 60, 93
3, 17856, Note_off_c, 1, 60, 0
3, 17856, Note_on_c, 1, 62, 93
3, 17928, Note_off_c, 1, 62, 0
3, 17928, Note_on_c, 1, 60, 93
3, 17952, Note_off_c, 1, 60, 0
3, 17952, Note_on_c, 1, 59, 93
3, 18000, Note_off_c, 1, 59, 0
3, 18000, Note_on_c, 1, 64, 93
3, 18072, Note_off_c, 1, 64, 0
3, 18072, Note_on_c, 1, 60, 93
3, 18096, Note_off_c, 1, 60, 0
3, 18096, Note_on_c, 1, 62, 93
3, 18144, Note_off_c, 1, 62, 0
3, 18144, Note_on_c, 1, 55, 93
3, 18216, Note_off_c, 1, 55, 0
3, 18216, Note_on_c, 1, 50, 93
3, 18240, Note_off_c, 1, 50, 0
3, 18240, Note_on_c, 1, 47, 93
3, 18288, Note_off_c, 1, 47, 0
3, 18288, Note_on_c, 1, 43, 93
3, 18432, Note_off_c, 1, 43, 0
3, 18432, End_track
0, 0, End_of_file
