0, 0, Header, 1, 3, 96
1, 0, Start_track
1, 0, Time_signature, 4, 2, 24, 8
1, 0, Title_t, "untitled"
1, 0, Title_t, "Track1"
1, 0, Tempo, 240000
1, 240, Tempo, 576923
1, 240, End_track
2, 0, Start_track
2, 0, Title_t, "Track2"
2, 0, Program_c, 0, 42
2, 0, Control_c, 0, 7, 100
2, 0, Control_c, 0, 10, 64
2, 240, Note_on_c, 0, 55, 93
2, 288, Note_off_c, 0, 55, 0
2, 288, Note_on_c, 0, 55, 93
2, 336, Note_off_c, 0, 55, 0
2, 336, Note_on_c, 0, 50, 93
2, 384, Note_off_c, 0, 50, 0
2, 384, Note_on_c, 0, 43, 93
2, 432, Note_off_c, 0, 43, 0
2, 432, Note_on_c, 0, 59, 93
2, 456, Note_off_c, 0, 59, 0
2, 456, Note_on_c, 0, 60, 93
2, 480, Note_off_c, 0, 60, 0
2, 480, Note_on_c, 0, 62, 93
2, 504, Note_off_c, 0, 62, 0
2, 504, Note_on_c, 0, 60, 93
2, 528, Note_off_c, 0, 60, 0
2, 528, Note_on_c, 0, 59, 93
2, 552, Note_off_c, 0, 59, 0
2, 552, Note_on_c, 0, 57, 93
2, 576, Note_off_c, 0, 57, 0
2, 576, Note_on_c, 0, 59, 93
2, 624, Note_off_c, 0, 59, 0
2, 624, Note_on_c, 0, 50, 93
2, 672, Note_off_c, 0, 50, 0
2, 672, Note_on_c, 0, 43, 93
2, 720, Note_off_c, 0, 43, 0
2, 720, Note_on_c, 0, 55, 93
2, 744, Note_off_c, 0, 55, 0
2, 744, Note_on_c, 0, 57, 93
2, 768, Note_off_c, 0, 57, 0
2, 768, Note_on_c, 0, 59, 93
2, 816, Note_off_c, 0, 59, 0
2, 816, Note_on_c, 0, 55, 93
2, 864, Note_off_c, 0, 55, 0
2, 864, Note_on_c, 0, 52, 93
2, 912, Note_off_c, 0, 52, 0
2, 912, Note_on_c, 0, 48, 93
2, 960, Note_off_c, 0, 48, 0
2, 960, Note_on_c, 0, 36, 93
2, 1008, Note_off_c, 0, 36, 0
2, 1008, Note_on_c, 0, 57, 93
2, 1032, Note_off_c, 0, 57, 0
2, 1032, Note_on_c, 0, 59, 93
2, 1056, Note_off_c, 0, 59, 0
2, 1056, Note_on_c, 0, 60, 93
2, 1080, Note_off_c, 0, 60, 0
2, 1080, Note_on_c, 0, 59, 93
2, 1104, Note_off_c, 0, 59, 0
2, 1104, Note_on_c, 0, 57, 93
2, 1128, Note_off_c, 0, 57, 0
2, 1128, Note_on_c, 0, 55, 93
2, 1152, Note_off_c, 0, 55, 0
2, 1152, Note_on_c, 0, 54, 93
2, 1200, Note_off_c, 0, 54, 0
2, 1200, Note_on_c, 0, 50, 93
2, 1248, Note_off_c, 0, 50, 0
2, 1248, Note_on_c, 0, 38, 93
2, 1296, Note_off_c, 0, 38, 0
2, 1296, Note_on_c, 0, 50, 93
2, 1320, Note_off_c, 0, 50, 0
2, 1320, Note_on_c, 0, 52, 93
2, 1344, Note_off_c, 0, 52, 0
2, 1344, Note_on_c, 0, 54, 93
2, 1368, Note_off_c, 0, 54, 0
2, 1368, Note_on_c, 0, 55, 93
2, 1392, Note_off_c, 0, 55, 0
2, 1392, Note_on_c, 0, 57, 93
2, 1416, Note_off_c, 0, 57, 0
2, 1416, Note_on_c, 0, 59, 93
2, 1440, Note_off_c, 0, 59, 0
2, 1440, Note_on_c, 0, 60, 93
2, 1464, Note_off_c, 0, 60, 0
2, 1464, Note_on_c, 0, 59, 93
2, 1488, Note_off_c, 0, 59, 0
2, 1488, Note_on_c, 0, 60, 93
2, 1512, Note_off_c, 0, 60, 0
2, 1512, Note_on_c, 0, 57, 93
2, 1536, Note_off_c, 0, 57, 0
2, 1536, Note_on_c, 0, 60, 93
2, 1560, Note_off_c, 0, 60, 0
2, 1560, Note_on_c, 0, 59, 93
2, 1584, Note_off_c, 0, 59, 0
2, 1584, Note_on_c, 0, 60, 93
2, 1608, Note_off_c, 0, 60, 0
2, 1608, Note_on_c, 0, 57, 93
2, 1632, Note_off_c, 0, 57, 0
2, 1632, Note_on_c, 0, 50, 93
2, 1656, Note_off_c, 0, 50, 0
2, 1656, Note_on_c, 0, 60, 93
2, 1680, Note_off_c, 0, 60, 0
2, 1680, Note_on_c, 0, 59, 93
2, 1704, Note_off_c, 0, 59, 0
2, 1704, Note_on_c, 0, 57, 93
2, 1728, Note_off_c, 0, 57, 0
2, 1728, Note_on_c, 0, 59, 93
2, 1752, Note_off_c, 0, 59, 0
2, 1752, Note_on_c, 0, 57, 93
2, 1776, Note_off_c, 0, 57, 0
2, 1776, Note_on_c, 0, 59, 93
2, 1800, Note_off_c, 0, 59, 0
2, 1800, Note_on_c, 0, 55, 93
2, 1824, Note_off_c, 0, 55, 0
2, 1824, Note_on_c, 0, 59, 93
2, 1848, Note_off_c, 0, 59, 0
2, 1848, Note_on_c, 0, 57, 93
2, 1872, Note_off_c, 0, 57, 0
2, 1872, Note_on_c, 0, 59, 93
2, 1896, Note_off_c, 0, 59, 0
2, 1896, Note_on_c, 0, 55, 93
2, 1920, Note_off_c, 0, 55, 0
2, 1920, Note_on_c, 0, 48, 93
2, 1944, Note_off_c, 0, 48, 0
2, 1944, Note_on_c, 0, 59, 93
2, 1968, Note_off_c, 0, 59, 0
2, 1968, Note_on_c, 0, 57, 93
2, 1992, Note_off_c, 0, 57, 0
2, 1992, Note_on_c, 0, 55, 93
2, 2016, Note_off_c, 0, 55, 0
2, 2016, Note_on_c, 0, 54, 93
2, 2040, Note_off_c, 0, 54, 0
2, 2040, Note_on_c, 0, 57, 93
2, 2064, Note_off_c, 0, 57, 0
2, 2064, Note_on_c, 0, 62, 93
2, 2088, Note_off_c, 0, 62, 0
2, 2088, Note_on_c, 0, 50, 93
2, 2112, Note_off_c, 0, 50, 0
2, 2112, Note_on_c, 0, 55, 93
2, 2160, Note_off_c, 0, 55, 0
2, 2160, Note_on_c, 0, 47, 93
2, 2208, Note_off_c, 0, 47, 0
2, 2208, Note_on_c, 0, 38, 93
2, 2256, Note_off_c, 0, 38, 0
2, 2256, Note_on_c, 0, 54, 93
2, 2304, Note_off_c, 0, 54, 0
2, 2304, Note_on_c, 0, 55, 93
2, 2448, Note_off_c, 0, 55, 0
2, 2448, Note_on_c, 0, 59, 93
2, 2472, Note_off_c, 0, 59, 0
2, 2472, Note_on_c, 0, 57, 93
2, 2496, Note_off_c, 0, 57, 0
2, 2496, Note_on_c, 0, 55, 93
2, 2520, Note_off_c, 0, 55, 0
2, 2520, Note_on_c, 0, 54, 93
2, 2544, Note_off_c, 0, 54, 0
2, 2544, Note_on_c, 0, 52, 93
2, 2568, Note_off_c, 0, 52, 0
2, 2568, Note_on_c, 0, 50, 93
2, 2592, Note_off_c, 0, 50, 0
2, 2592, Note_on_c, 0, 64, 93
2, 2640, Note_off_c, 0, 64, 0
2, 2640, Note_on_c, 0, 61, 93
2, 2688, Note_off_c, 0, 61, 0
2, 2688, Note_on_c, 0, 57, 93
2, 2736, Note_off_c, 0, 57, 0
2, 2736, Note_on_c, 0, 59, 93
2, 2760, Note_off_c, 0, 59, 0
2, 2760, Note_on_c, 0, 61, 93
2, 2784, Note_off_c, 0, 61, 0
2, 2784, Note_on_c, 0, 62, 93
2, 2808, Note_off_c, 0, 62, 0
2, 2808, Note_on_c, 0, 54, 93
2, 2832, Note_off_c, 0, 54, 0
2, 2832, Note_on_c, 0, 52, 93
2, 2856, Note_off_c, 0, 52, 0
2, 2856, Note_on_c, 0, 50, 93
2, 2880, Note_off_c, 0, 50, 0
2, 2880, Note_on_c, 0, 45, 93
2, 2928, Note_off_c, 0, 45, 0
2, 2928, Note_on_c, 0, 62, 93
2, 2976, Note_off_c, 0, 62, 0
2, 2976, Note_on_c, 0, 61, 93
2, 3024, Note_off_c, 0, 61, 0
2, 3024, Note_on_c, 0, 59, 93
2, 3048, Note_off_c, 0, 59, 0
2, 3048, Note_on_c, 0, 57, 93
2, 3072, Note_off_c, 0, 57, 0
2, 3072, Note_on_c, 0, 62, 93
2, 3096, Note_off_c, 0, 62, 0
2, 3096, Note_on_c, 0, 57, 93
2, 3120, Note_off_c, 0, 57, 0
2, 3120, Note_on_c, 0, 59, 93
2, 3144, Note_off_c, 0, 59, 0
2, 3144, Note_on_c, 0, 54, 93
2, 3168, Note_off_c, 0, 54, 0
2, 3168, Note_on_c, 0, 55, 93
2, 3192, Note_off_c, 0, 55, 0
2, 3192, Note_on_c, 0, 54, 93
2, 3216, Note_off_c, 0, 54, 0
2, 3216, Note_on_c, 0, 55, 93
2, 3240, Note_off_c, 0, 55, 0
2, 3240, Note_on_c, 0, 52, 93
2, 3264, Note_off_c, 0, 52, 0
2, 3264, Note_on_c, 0, 55, 93
2, 3288, Note_off_c, 0, 55, 0
2, 3288, Note_on_c, 0, 54, 93
2, 3312, Note_off_c, 0, 54, 0
2, 3312, Note_on_c, 0, 55, 93
2, 3336, Note_off_c, 0, 55, 0
2, 3336, Note_on_c, 0, 52, 93
2, 3360, Note_off_c, 0, 52, 0
2, 3360, Note_on_c, 0, 45, 93
2, 3384, Note_off_c, 0, 45, 0
2, 3384, Note_on_c, 0, 55, 93
2, 3408, Note_off_c, 0, 55, 0
2, 3408, Note_on_c, 0, 54, 93
2, 3432, Note_off_c, 0, 54, 0
2, 3432, Note_on_c, 0, 52, 93
2, 3456, Note_off_c, 0, 52, 0
2, 3456, Note_on_c, 0, 54, 93
2, 3480, Note_off_c, 0, 54, 0
2, 3480, Note_on_c, 0, 52, 93
2, 3504, Note_off_c, 0, 52, 0
2, 3504, Note_on_c, 0, 54, 93
2, 3528, Note_off_c, 0, 54, 0
2, 3528, Note_on_c, 0, 50, 93
2, 3552, Note_off_c, 0, 50, 0
2, 3552, Note_on_c, 0, 54, 93
2, 3576, Note_off_c, 0, 54, 0
2, 3576, Note_on_c, 0, 52, 93
2, 3600, Note_off_c, 0, 52, 0
2, 3600, Note_on_c, 0, 54, 93
2, 3624, Note_off_c, 0, 54, 0
2, 3624, Note_on_c, 0, 50, 93
2, 3648, Note_off_c, 0, 50, 0
2, 3648, Note_on_c, 0, 43, 93
2, 3672, Note_off_c, 0, 43, 0
2, 3672, Note_on_c, 0, 54, 93
2, 3696, Note_off_c, 0, 54, 0
2, 3696, Note_on_c, 0, 52, 93
2, 3720, Note_off_c, 0, 52, 0
2, 3720, Note_on_c, 0, 50, 93
2, 3744, Note_off_c, 0, 50, 0
2, 3744, Note_on_c, 0, 62, 93
2, 3768, Note_off_c, 0, 62, 0
2, 3768, Note_on_c, 0, 61, 93
2, 3792, Note_off_c, 0, 61, 0
2, 3792, Note_on_c, 0, 59, 93
2, 3816, Note_off_c, 0, 59, 0
2, 3816, Note_on_c, 0, 57, 93
2, 3840, Note_off_c, 0, 57, 0
2, 3840, Note_on_c, 0, 62, 93
2, 3888, Note_off_c, 0, 62, 0
2, 3888, Note_on_c, 0, 61, 93
2, 3912, Note_off_c, 0, 61, 0
2, 3912, Note_on_c, 0, 59, 93
2, 3936, Note_off_c, 0, 59, 0
2, 3936, Note_on_c, 0, 57, 93
2, 3960, Note_off_c, 0, 57, 0
2, 3960, Note_on_c, 0, 55, 93
2, 3984, Note_off_c, 0, 55, 0
2, 3984, Note_on_c, 0, 54, 93
2, 4008, Note_off_c, 0, 54, 0
2, 4008, Note_on_c, 0, 52, 93
2, 4032, Note_off_c, 0, 52, 0
2, 4032, Note_on_c, 0, 50, 93
2, 4056, Note_off_c, 0, 50, 0
2, 4056, Note_on_c, 0, 52, 93
2, 4080, Note_off_c, 0, 52, 0
2, 4080, Note_on_c, 0, 50, 93
2, 4104, Note_off_c, 0, 50, 0
2, 4104, Note_on_c, 0, 54, 93
2, 4128, Note_off_c, 0, 54, 0
2, 4128, Note_on_c, 0, 50, 93
2, 4152, Note_off_c, 0, 50, 0
2, 4152, Note_on_c, 0, 52, 93
2, 4176, Note_off_c, 0, 52, 0
2, 4176, Note_on_c, 0, 50, 93
2, 4200, Note_off_c, 0, 50, 0
2, 4200, Note_on_c, 0, 55, 93
2, 4224, Note_off_c, 0, 55, 0
2, 4224, Note_on_c, 0, 50, 93
2, 4248, Note_off_c, 0, 50, 0
2, 4248, Note_on_c, 0, 52, 93
2, 4272, Note_off_c, 0, 52, 0
2, 4272, Note_on_c, 0, 50, 93
2, 4296, Note_off_c, 0, 50, 0
2, 4296, Note_on_c, 0, 57, 93
2, 4320, Note_off_c, 0, 57, 0
2, 4320, Note_on_c, 0, 50, 93
2, 4344, Note_off_c, 0, 50, 0
2, 4344, Note_on_c, 0, 52, 93
2, 4368, Note_off_c, 0, 52, 0
2, 4368, Note_on_c, 0, 50, 93
2, 4392, Note_off_c, 0, 50, 0
2, 4392, Note_on_c, 0, 59, 93
2, 4416, Note_off_c, 0, 59, 0
2, 4416, Note_on_c, 0, 50, 93
2, 4440, Note_off_c, 0, 50, 0
2, 4440, Note_on_c, 0, 52, 93
2, 4464, Note_off_c, 0, 52, 0
2, 4464, Note_on_c, 0, 50, 93
2, 4488, Note_off_c, 0, 50, 0
2, 4488, Note_on_c, 0, 61, 93
2, 4512, Note_off_c, 0, 61, 0
2, 4512, Note_on_c, 0, 50, 93
2, 4536, Note_off_c, 0, 50, 0
2, 4536, Note_on_c, 0, 52, 93
2, 4560, Note_off_c, 0, 52, 0
2, 4560, Note_on_c, 0, 50, 93
2, 4584, Note_off_c, 0, 50, 0
2, 4584, Note_on_c, 0, 62, 93
2, 4608, Note_off_c, 0, 62, 0
2, 4608, Note_on_c, 0, 55, 93
2, 4632, Note_off_c, 0, 55, 0
2, 4632, Note_on_c, 0, 54, 93
2, 4656, Note_off_c, 0, 54, 0
2, 4656, Note_on_c, 0, 52, 93
2, 4680, Note_off_c, 0, 52, 0
2, 4680, Note_on_c, 0, 50, 93
2, 4704, Note_off_c, 0, 50, 0
2, 4704, Note_on_c, 0, 49, 93
2, 4728, Note_off_c, 0, 49, 0
2, 4728, Note_on_c, 0, 47, 93
2, 4752, Note_off_c, 0, 47, 0
2, 4752, Note_on_c, 0, 45, 93
2, 4776, Note_off_c, 0, 45, 0
2, 4776, Note_on_c, 0, 55, 93
2, 4800, Note_off_c, 0, 55, 0
2, 4800, Note_on_c, 0, 54, 93
2, 4872, Note_off_c, 0, 54, 0
2, 4872, Note_on_c, 0, 52, 93
2, 4896, Note_off_c, 0, 52, 0
2, 4896, Note_on_c, 0, 57, 93
2, 4920, Note_off_c, 0, 57, 0
2, 4920, Note_on_c, 0, 55, 93
2, 4944, Note_off_c, 0, 55, 0
2, 4944, Note_on_c, 0, 59, 93
2, 4968, Note_off_c, 0, 59, 0
2, 4968, Note_on_c, 0, 57, 93
2, 4992, Note_off_c, 0, 57, 0
2, 4992, Note_on_c, 0, 55, 93
2, 5016, Note_off_c, 0, 55, 0
2, 5016, Note_on_c, 0, 54, 93
2, 5040, Note_off_c, 0, 54, 0
2, 5040, Note_on_c, 0, 52, 93
2, 5064, Note_off_c, 0, 52, 0
2, 5064, Note_on_c, 0, 50, 93
2, 5088, Note_off_c, 0, 50, 0
2, 5088, Note_on_c, 0, 45, 93
2, 5136, Note_off_c, 0, 45, 0
2, 5136, Note_on_c, 0, 49, 93
2, 5184, Note_off_c, 0, 49, 0
2, 5184, Note_on_c, 0, 38, 93
2, 5376, Note_off_c, 0, 38, 0
2, 5424, Note_on_c, 0, 55, 93
2, 5472, Note_off_c, 0, 55, 0
2, 5472, Note_on_c, 0, 55, 93
2, 5520, Note_off_c, 0, 55, 0
2, 5520, Note_on_c, 0, 50, 93
2, 5568, Note_off_c, 0, 50, 0
2, 5568, Note_on_c, 0, 43, 93
2, 5616, Note_off_c, 0, 43, 0
2, 5616, Note_on_c, 0, 59, 93
2, 5640, Note_off_c, 0, 59, 0
2, 5640, Note_on_c, 0, 60, 93
2, 5664, Note_off_c, 0, 60, 0
2, 5664, Note_on_c, 0, 62, 93
2, 5688, Note_off_c, 0, 62, 0
2, 5688, Note_on_c, 0, 60, 93
2, 5712, Note_off_c, 0, 60, 0
2, 5712, Note_on_c, 0, 59, 93
2, 5736, Note_off_c, 0, 59, 0
2, 5736, Note_on_c, 0, 57, 93
2, 5760, Note_off_c, 0, 57, 0
2, 5760, Note_on_c, 0, 59, 93
2, 5808, Note_off_c, 0, 59, 0
2, 5808, Note_on_c, 0, 50, 93
2, 5856, Note_off_c, 0, 50, 0
2, 5856, Note_on_c, 0, 43, 93
2, 5904, Note_off_c, 0, 43, 0
2, 5904, Note_on_c, 0, 55, 93
2, 5928, Note_off_c, 0, 55, 0
2, 5928, Note_on_c, 0, 57, 93
2, 5952, Note_off_c, 0, 57, 0
2, 5952, Note_on_c, 0, 59, 93
2, 6000, Note_off_c, 0, 59, 0
2, 6000, Note_on_c, 0, 55, 93
2, 6048, Note_off_c, 0, 55, 0
2, 6048, Note_on_c, 0, 52, 93
2, 6096, Note_off_c, 0, 52, 0
2, 6096, Note_on_c, 0, 48, 93
2, 6144, Note_off_c, 0, 48, 0
2, 6144, Note_on_c, 0, 36, 93
2, 6192, Note_off_c, 0, 36, 0
2, 6192, Note_on_c, 0, 57, 93
2, 6216, Note_off_c, 0, 57, 0
2, 6216, Note_on_c, 0, 59, 93
2, 6240, Note_off_c, 0, 59, 0
2, 6240, Note_on_c, 0, 60, 93
2, 6264, Note_off_c, 0, 60, 0
2, 6264, Note_on_c, 0, 59, 93
2, 6288, Note_off_c, 0, 59, 0
2, 6288, Note_on_c, 0, 57, 93
2, 6312, Note_off_c, 0, 57, 0
2, 6312, Note_on_c, 0, 55, 93
2, 6336, Note_off_c, 0, 55, 0
2, 6336, Note_on_c, 0, 54, 93
2, 6384, Note_off_c, 0, 54, 0
2, 6384, Note_on_c, 0, 50, 93
2, 6432, Note_off_c, 0, 50, 0
2, 6432, Note_on_c, 0, 38, 93
2, 6480, Note_off_c, 0, 38, 0
2, 6480, Note_on_c, 0, 50, 93
2, 6504, Note_off_c, 0, 50, 0
2, 6504, Note_on_c, 0, 52, 93
2, 6528, Note_off_c, 0, 52, 0
2, 6528, Note_on_c, 0, 54, 93
2, 6552, Note_off_c, 0, 54, 0
2, 6552, Note_on_c, 0, 55, 93
2, 6576, Note_off_c, 0, 55, 0
2, 6576, Note_on_c, 0, 57, 93
2, 6600, Note_off_c, 0, 57, 0
2, 6600, Note_on_c, 0, 59, 93
2, 6624, Note_off_c, 0, 59, 0
2, 6624, Note_on_c, 0, 60, 93
2, 6648, Note_off_c, 0, 60, 0
2, 6648, Note_on_c, 0, 59, 93
2, 6672, Note_off_c, 0, 59, 0
2, 6672, Note_on_c, 0, 60, 93
2, 6696, Note_off_c, 0, 60, 0
2, 6696, Note_on_c, 0, 57, 93
2, 6720, Note_off_c, 0, 57, 0
2, 6720, Note_on_c, 0, 60, 93
2, 6744, Note_off_c, 0, 60, 0
2, 6744, Note_on_c, 0, 59, 93
2, 6768, Note_off_c, 0, 59, 0
2, 6768, Note_on_c, 0, 60, 93
2, 6792, Note_off_c, 0, 60, 0
2, 6792, Note_on_c, 0, 57, 93
2, 6816, Note_off_c, 0, 57, 0
2, 6816, Note_on_c, 0, 50, 93
2, 6840, Note_off_c, 0, 50, 0
2, 6840, Note_on_c, 0, 60, 93
2, 6864, Note_off_c, 0, 60, 0
2, 6864, Note_on_c, 0, 59, 93
2, 6888, Note_off_c, 0, 59, 0
2, 6888, Note_on_c, 0, 57, 93
2, 6912, Note_off_c, 0, 57, 0
2, 6912, Note_on_c, 0, 59, 93
2, 6936, Note_off_c, 0, 59, 0
2, 6936, Note_on_c, 0, 57, 93
2, 6960, Note_off_c, 0, 57, 0
2, 6960, Note_on_c, 0, 59, 93
2, 6984, Note_off_c, 0, 59, 0
2, 6984, Note_on_c, 0, 55, 93
2, 7008, Note_off_c, 0, 55, 0
2, 7008, Note_on_c, 0, 59, 93
2, 7032, Note_off_c, 0, 59, 0
2, 7032, Note_on_c, 0, 57, 93
2, 7056, Note_off_c, 0, 57, 0
2, 7056, Note_on_c, 0, 59, 93
2, 7080, Note_off_c, 0, 59, 0
2, 7080, Note_on_c, 0, 55, 93
2, 7104, Note_off_c, 0, 55, 0
2, 7104, Note_on_c, 0, 48, 93
2, 7128, Note_off_c, 0, 48, 0
2, 7128, Note_on_c, 0, 59, 93
2, 7152, Note_off_c, 0, 59, 0
2, 7152, Note_on_c, 0, 57, 93
2, 7176, Note_off_c, 0, 57, 0
2, 7176, Note_on_c, 0, 55, 93
2, 7200, Note_off_c, 0, 55, 0
2, 7200, Note_on_c, 0, 54, 93
2, 7224, Note_off_c, 0, 54, 0
2, 7224, Note_on_c, 0, 57, 93
2, 7248, Note_off_c, 0, 57, 0
2, 7248, Note_on_c, 0, 62, 93
2, 7272, Note_off_c, 0, 62, 0
2, 7272, Note_on_c, 0, 50, 93
2, 7296, Note_off_c, 0, 50, 0
2, 7296, Note_on_c, 0, 55, 93
2, 7344, Note_off_c, 0, 55, 0
2, 7344, Note_on_c, 0, 47, 93
2, 7392, Note_off_c, 0, 47, 0
2, 7392, Note_on_c, 0, 38, 93
2, 7440, Note_off_c, 0, 38, 0
2, 7440, Note_on_c, 0, 54, 93
2, 7488, Note_off_c, 0, 54, 0
2, 7488, Note_on_c, 0, 55, 93
2, 7632, Note_off_c, 0, 55, 0
2, 7632, Note_on_c, 0, 59, 93
2, 7656, Note_off_c, 0, 59, 0
2, 7656, Note_on_c, 0, 57, 93
2, 7680, Note_off_c, 0, 57, 0
2, 7680, Note_on_c, 0, 55, 93
2, 7704, Note_off_c, 0, 55, 0
2, 7704, Note_on_c, 0, 54, 93
2, 7728, Note_off_c, 0, 54, 0
2, 7728, Note_on_c, 0, 52, 93
2, 7752, Note_off_c, 0, 52, 0
2, 7752, Note_on_c, 0, 50, 93
2, 7776, Note_off_c, 0, 50, 0
2, 7776, Note_on_c, 0, 64, 93
2, 7824, Note_off_c, 0, 64, 0
2, 7824, Note_on_c, 0, 61, 93
2, 7872, Note_off_c, 0, 61, 0
2, 7872, Note_on_c, 0, 57, 93
2, 7920, Note_off_c, 0, 57, 0
2, 7920, Note_on_c, 0, 59, 93
2, 7944, Note_off_c, 0, 59, 0
2, 7944, Note_on_c, 0, 61, 93
2, 7968, Note_off_c, 0, 61, 0
2, 7968, Note_on_c, 0, 62, 93
2, 7992, Note_off_c, 0, 62, 0
2, 7992, Note_on_c, 0, 54, 93
2, 8016, Note_off_c, 0, 54, 0
2, 8016, Note_on_c, 0, 52, 93
2, 8040, Note_off_c, 0, 52, 0
2, 8040, Note_on_c, 0, 50, 93
2, 8064, Note_off_c, 0, 50, 0
2, 8064, Note_on_c, 0, 45, 93
2, 8112, Note_off_c, 0, 45, 0
2, 8112, Note_on_c, 0, 62, 93
2, 8160, Note_off_c, 0, 62, 0
2, 8160, Note_on_c, 0, 61, 93
2, 8208, Note_off_c, 0, 61, 0
2, 8208, Note_on_c, 0, 59, 93
2, 8232, Note_off_c, 0, 59, 0
2, 8232, Note_on_c, 0, 57, 93
2, 8256, Note_off_c, 0, 57, 0
2, 8256, Note_on_c, 0, 62, 93
2, 8280, Note_off_c, 0, 62, 0
2, 8280, Note_on_c, 0, 57, 93
2, 8304, Note_off_c, 0, 57, 0
2, 8304, Note_on_c, 0, 59, 93
2, 8328, Note_off_c, 0, 59, 0
2, 8328, Note_on_c, 0, 54, 93
2, 8352, Note_off_c, 0, 54, 0
2, 8352, Note_on_c, 0, 55, 93
2, 8376, Note_off_c, 0, 55, 0
2, 8376, Note_on_c, 0, 54, 93
2, 8400, Note_off_c, 0, 54, 0
2, 8400, Note_on_c, 0, 55, 93
2, 8424, Note_off_c, 0, 55, 0
2, 8424, Note_on_c, 0, 52, 93
2, 8448, Note_off_c, 0, 52, 0
2, 8448, Note_on_c, 0, 55, 93
2, 8472, Note_off_c, 0, 55, 0
2, 8472, Note_on_c, 0, 54, 93
2, 8496, Note_off_c, 0, 54, 0
2, 8496, Note_on_c, 0, 55, 93
2, 8520, Note_off_c, 0, 55, 0
2, 8520, Note_on_c, 0, 52, 93
2, 8544, Note_off_c, 0, 52, 0
2, 8544, Note_on_c, 0, 45, 93
2, 8568, Note_off_c, 0, 45, 0
2, 8568, Note_on_c, 0, 55, 93
2, 8592, Note_off_c, 0, 55, 0
2, 8592, Note_on_c, 0, 54, 93
2, 8616, Note_off_c, 0, 54, 0
2, 8616, Note_on_c, 0, 52, 93
2, 8640, Note_off_c, 0, 52, 0
2, 8640, Note_on_c, 0, 54, 93
2, 8664, Note_off_c, 0, 54, 0
2, 8664, Note_on_c, 0, 52, 93
2, 8688, Note_off_c, 0, 52, 0
2, 8688, Note_on_c, 0, 54, 93
2, 8712, Note_off_c, 0, 54, 0
2, 8712, Note_on_c, 0, 50, 93
2, 8736, Note_off_c, 0, 50, 0
2, 8736, Note_on_c, 0, 54, 93
2, 8760, Note_off_c, 0, 54, 0
2, 8760, Note_on_c, 0, 52, 93
2, 8784, Note_off_c, 0, 52, 0
2, 8784, Note_on_c, 0, 54, 93
2, 8808, Note_off_c, 0, 54, 0
2, 8808, Note_on_c, 0, 50, 93
2, 8832, Note_off_c, 0, 50, 0
2, 8832, Note_on_c, 0, 43, 93
2, 8856, Note_off_c, 0, 43, 0
2, 8856, Note_on_c, 0, 54, 93
2, 8880, Note_off_c, 0, 54, 0
2, 8880, Note_on_c, 0, 52, 93
2, 8904, Note_off_c, 0, 52, 0
2, 8904, Note_on_c, 0, 50, 93
2, 8928, Note_off_c, 0, 50, 0
2, 8928, Note_on_c, 0, 62, 93
2, 8952, Note_off_c, 0, 62, 0
2, 8952, Note_on_c, 0, 61, 93
2, 8976, Note_off_c, 0, 61, 0
2, 8976, Note_on_c, 0, 59, 93
2, 9000, Note_off_c, 0, 59, 0
2, 9000, Note_on_c, 0, 57, 93
2, 9024, Note_off_c, 0, 57, 0
2, 9024, Note_on_c, 0, 62, 93
2, 9072, Note_off_c, 0, 62, 0
2, 9072, Note_on_c, 0, 61, 93
2, 9096, Note_off_c, 0, 61, 0
2, 9096, Note_on_c, 0, 59, 93
2, 9120, Note_off_c, 0, 59, 0
2, 9120, Note_on_c, 0, 57, 93
2, 9144, Note_off_c, 0, 57, 0
2, 9144, Note_on_c, 0, 55, 93
2, 9168, Note_off_c, 0, 55, 0
2, 9168, Note_on_c, 0, 54, 93
2, 9192, Note_off_c, 0, 54, 0
2, 9192, Note_on_c, 0, 52, 93
2, 9216, Note_off_c, 0, 52, 0
2, 9216, Note_on_c, 0, 50, 93
2, 9240, Note_off_c, 0, 50, 0
2, 9240, Note_on_c, 0, 52, 93
2, 9264, Note_off_c, 0, 52, 0
2, 9264, Note_on_c, 0, 50, 93
2, 9288, Note_off_c, 0, 50, 0
2, 9288, Note_on_c, 0, 54, 93
2, 9312, Note_off_c, 0, 54, 0
2, 9312, Note_on_c, 0, 50, 93
2, 9336, Note_off_c, 0, 50, 0
2, 9336, Note_on_c, 0, 52, 93
2, 9360, Note_off_c, 0, 52, 0
2, 9360, Note_on_c, 0, 50, 93
2, 9384, Note_off_c, 0, 50, 0
2, 9384, Note_on_c, 0, 55, 93
2, 9408, Note_off_c, 0, 55, 0
2, 9408, Note_on_c, 0, 50, 93
2, 9432, Note_off_c, 0, 50, 0
2, 9432, Note_on_c, 0, 52, 93
2, 9456, Note_off_c, 0, 52, 0
2, 9456, Note_on_c, 0, 50, 93
2, 9480, Note_off_c, 0, 50, 0
2, 9480, Note_on_c, 0, 57, 93
2, 9504, Note_off_c, 0, 57, 0
2, 9504, Note_on_c, 0, 50, 93
2, 9528, Note_off_c, 0, 50, 0
2, 9528, Note_on_c, 0, 52, 93
2, 9552, Note_off_c, 0, 52, 0
2, 9552, Note_on_c, 0, 50, 93
2, 9576, Note_off_c, 0, 50, 0
2, 9576, Note_on_c, 0, 59, 93
2, 9600, Note_off_c, 0, 59, 0
2, 9600, Note_on_c, 0, 50, 93
2, 9624, Note_off_c, 0, 50, 0
2, 9624, Note_on_c, 0, 52, 93
2, 9648, Note_off_c, 0, 52, 0
2, 9648, Note_on_c, 0, 50, 93
2, 9672, Note_off_c, 0, 50, 0
2, 9672, Note_on_c, 0, 61, 93
2, 9696, Note_off_c, 0, 61, 0
2, 9696, Note_on_c, 0, 50, 93
2, 9720, Note_off_c, 0, 50, 0
2, 9720, Note_on_c, 0, 52, 93
2, 9744, Note_off_c, 0, 52, 0
2, 9744, Note_on_c, 0, 50, 93
2, 9768, Note_off_c, 0, 50, 0
2, 9768, Note_on_c, 0, 62, 93
2, 9792, Note_off_c, 0, 62, 0
2, 9792, Note_on_c, 0, 55, 93
2, 9816, Note_off_c, 0, 55, 0
2, 9816, Note_on_c, 0, 54, 93
2, 9840, Note_off_c, 0, 54, 0
2, 9840, Note_on_c, 0, 52, 93
2, 9864, Note_off_c, 0, 52, 0
2, 9864, Note_on_c, 0, 50, 93
2, 9888, Note_off_c, 0, 50, 0
2, 9888, Note_on_c, 0, 49, 93
2, 9912, Note_off_c, 0, 49, 0
2, 9912, Note_on_c, 0, 47, 93
2, 9936, Note_off_c, 0, 47, 0
2, 9936, Note_on_c, 0, 45, 93
2, 9960, Note_off_c, 0, 45, 0
2, 9960, Note_on_c, 0, 55, 93
2, 9984, Note_off_c, 0, 55, 0
2, 9984, Note_on_c, 0, 54, 93
2, 10056, Note_off_c, 0, 54, 0
2, 10056, Note_on_c, 0, 52, 93
2, 10080, Note_off_c, 0, 52, 0
2, 10080, Note_on_c, 0, 57, 93
2, 10104, Note_off_c, 0, 57, 0
2, 10104, Note_on_c, 0, 55, 93
2, 10128, Note_off_c, 0, 55, 0
2, 10128, Note_on_c, 0, 59, 93
2, 10152, Note_off_c, 0, 59, 0
2, 10152, Note_on_c, 0, 57, 93
2, 10176, Note_off_c, 0, 57, 0
2, 10176, Note_on_c, 0, 55, 93
2, 10200, Note_off_c, 0, 55, 0
2, 10200, Note_on_c, 0, 54, 93
2, 10224, Note_off_c, 0, 54, 0
2, 10224, Note_on_c, 0, 52, 93
2, 10248, Note_off_c, 0, 52, 0
2, 10248, Note_on_c, 0, 50, 93
2, 10272, Note_off_c, 0, 50, 0
2, 10272, Note_on_c, 0, 45, 93
2, 10320, Note_off_c, 0, 45, 0
2, 10320, Note_on_c, 0, 49, 93
2, 10368, Note_off_c, 0, 49, 0
2, 10368, Note_on_c, 0, 38, 93
2, 10560, Note_off_c, 0, 38, 0
2, 10608, Note_on_c, 0, 57, 93
2, 10656, Note_off_c, 0, 57, 0
2, 10656, Note_on_c, 0, 57, 93
2, 10704, Note_off_c, 0, 57, 0
2, 10704, Note_on_c, 0, 54, 93
2, 10752, Note_off_c, 0, 54, 0
2, 10752, Note_on_c, 0, 50, 93
2, 10800, Note_off_c, 0, 50, 0
2, 10800, Note_on_c, 0, 52, 93
2, 10824, Note_off_c, 0, 52, 0
2, 10824, Note_on_c, 0, 54, 93
2, 10848, Note_off_c, 0, 54, 0
2, 10848, Note_on_c, 0, 55, 93
2, 10872, Note_off_c, 0, 55, 0
2, 10872, Note_on_c, 0, 54, 93
2, 10896, Note_off_c, 0, 54, 0
2, 10896, Note_on_c, 0, 52, 93
2, 10920, Note_off_c, 0, 52, 0
2, 10920, Note_on_c, 0, 50, 93
2, 10944, Note_off_c, 0, 50, 0
2, 10944, Note_on_c, 0, 62, 93
2, 10992, Note_off_c, 0, 62, 0
2, 10992, Note_on_c, 0, 54, 93
2, 11040, Note_off_c, 0, 54, 0
2, 11040, Note_on_c, 0, 48, 93
2, 11088, Note_off_c, 0, 48, 0
2, 11088, Note_on_c, 0, 47, 93
2, 11112, Note_off_c, 0, 47, 0
2, 11112, Note_on_c, 0, 48, 93
2, 11136, Note_off_c, 0, 48, 0
2, 11136, Note_on_c, 0, 50, 93
2, 11160, Note_off_c, 0, 50, 0
2, 11160, Note_on_c, 0, 48, 93
2, 11184, Note_off_c, 0, 48, 0
2, 11184, Note_on_c, 0, 47, 93
2, 11208, Note_off_c, 0, 47, 0
2, 11208, Note_on_c, 0, 45, 93
2, 11232, Note_off_c, 0, 45, 0
2, 11232, Note_on_c, 0, 47, 93
2, 11256, Note_off_c, 0, 47, 0
2, 11256, Note_on_c, 0, 55, 93
2, 11280, Note_off_c, 0, 55, 0
2, 11280, Note_on_c, 0, 57, 93
2, 11304, Note_off_c, 0, 57, 0
2, 11304, Note_on_c, 0, 59, 93
2, 11328, Note_off_c, 0, 59, 0
2, 11328, Note_on_c, 0, 60, 93
2, 11352, Note_off_c, 0, 60, 0
2, 11352, Note_on_c, 0, 59, 93
2, 11376, Note_off_c, 0, 59, 0
2, 11376, Note_on_c, 0, 57, 93
2, 11400, Note_off_c, 0, 57, 0
2, 11400, Note_on_c, 0, 55, 93
2, 11424, Note_off_c, 0, 55, 0
2, 11424, Note_on_c, 0, 54, 93
2, 11472, Note_off_c, 0, 54, 0
2, 11472, Note_on_c, 0, 62, 93
2, 11520, Note_off_c, 0, 62, 0
2, 11520, Note_on_c, 0, 59, 93
2, 11568, Note_off_c, 0, 59, 0
2, 11568, Note_on_c, 0, 55, 93
2, 11616, Note_off_c, 0, 55, 0
2, 11616, Note_on_c, 0, 43, 93
2, 11664, Note_off_c, 0, 43, 0
2, 11664, Note_on_c, 0, 59, 93
2, 11688, Note_off_c, 0, 59, 0
2, 11688, Note_on_c, 0, 57, 93
2, 11712, Note_off_c, 0, 57, 0
2, 11712, Note_on_c, 0, 60, 93
2, 11736, Note_off_c, 0, 60, 0
2, 11736, Note_on_c, 0, 59, 93
2, 11760, Note_off_c, 0, 59, 0
2, 11760, Note_on_c, 0, 57, 93
2, 11784, Note_off_c, 0, 57, 0
2, 11784, Note_on_c, 0, 55, 93
2, 11808, Note_off_c, 0, 55, 0
2, 11808, Note_on_c, 0, 57, 93
2, 11856, Note_off_c, 0, 57, 0
2, 11856, Note_on_c, 0, 54, 93
2, 11904, Note_off_c, 0, 54, 0
2, 11904, Note_on_c, 0, 51, 93
2, 11928, Note_off_c, 0, 51, 0
2, 11928, Note_on_c, 0, 57, 93
2, 11952, Note_off_c, 0, 57, 0
2, 11952, Note_on_c, 0, 59, 93
2, 11976, Note_off_c, 0, 59, 0
2, 11976, Note_on_c, 0, 60, 93
2, 12000, Note_off_c, 0, 60, 0
2, 12000, Note_on_c, 0, 59, 93
2, 12024, Note_off_c, 0, 59, 0
2, 12024, Note_on_c, 0, 57, 93
2, 12048, Note_off_c, 0, 57, 0
2, 12048, Note_on_c, 0, 55, 93
2, 12072, Note_off_c, 0, 55, 0
2, 12072, Note_on_c, 0, 54, 93
2, 12096, Note_off_c, 0, 54, 0
2, 12096, Note_on_c, 0, 55, 93
2, 12144, Note_off_c, 0, 55, 0
2, 12144, Note_on_c, 0, 52, 93
2, 12192, Note_off_c, 0, 52, 0
2, 12192, Note_on_c, 0, 40, 93
2, 12240, Note_off_c, 0, 40, 0
2, 12240, Note_on_c, 0, 55, 93
2, 12264, Note_off_c, 0, 55, 0
2, 12264, Note_on_c, 0, 54, 93
2, 12288, Note_off_c, 0, 54, 0
2, 12288, Note_on_c, 0, 57, 93
2, 12312, Note_off_c, 0, 57, 0
2, 12312, Note_on_c, 0, 55, 93
2, 12336, Note_off_c, 0, 55, 0
2, 12336, Note_on_c, 0, 54, 93
2, 12360, Note_off_c, 0, 54, 0
2, 12360, Note_on_c, 0, 52, 93
2, 12384, Note_off_c, 0, 52, 0
2, 12384, Note_on_c, 0, 53, 93
2, 12408, Note_off_c, 0, 53, 0
2, 12408, Note_on_c, 0, 52, 93
2, 12432, Note_off_c, 0, 52, 0
2, 12432, Note_on_c, 0, 53, 93
2, 12456, Note_off_c, 0, 53, 0
2, 12456, Note_on_c, 0, 57, 93
2, 12480, Note_off_c, 0, 57, 0
2, 12480, Note_on_c, 0, 53, 93
2, 12504, Note_off_c, 0, 53, 0
2, 12504, Note_on_c, 0, 52, 93
2, 12528, Note_off_c, 0, 52, 0
2, 12528, Note_on_c, 0, 53, 93
2, 12552, Note_off_c, 0, 53, 0
2, 12552, Note_on_c, 0, 57, 93
2, 12576, Note_off_c, 0, 57, 0
2, 12576, Note_on_c, 0, 60, 93
2, 12600, Note_off_c, 0, 60, 0
2, 12600, Note_on_c, 0, 59, 93
2, 12624, Note_off_c, 0, 59, 0
2, 12624, Note_on_c, 0, 60, 93
2, 12648, Note_off_c, 0, 60, 0
2, 12648, Note_on_c, 0, 57, 93
2, 12672, Note_off_c, 0, 57, 0
2, 12672, Note_on_c, 0, 63, 93
2, 12792, Note_off_c, 0, 63, 0
2, 12792, Note_on_c, 0, 60, 93
2, 12816, Note_off_c, 0, 60, 0
2, 12816, Note_on_c, 0, 59, 93
2, 12840, Note_off_c, 0, 59, 0
2, 12840, Note_on_c, 0, 57, 93
2, 12864, Note_off_c, 0, 57, 0
2, 12864, Note_on_c, 0, 55, 93
2, 12888, Note_off_c, 0, 55, 0
2, 12888, Note_on_c, 0, 54, 93
2, 12912, Note_off_c, 0, 54, 0
2, 12912, Note_on_c, 0, 57, 93
2, 12936, Note_off_c, 0, 57, 0
2, 12936, Note_on_c, 0, 51, 93
2, 12960, Note_off_c, 0, 51, 0
2, 12960, Note_on_c, 0, 43, 93
2, 13008, Note_off_c, 0, 43, 0
2, 13008, Note_on_c, 0, 59, 93
2, 13056, Note_off_c, 0, 59, 0
2, 13056, Note_on_c, 0, 57, 93
2, 13080, Note_off_c, 0, 57, 0
2, 13080, Note_on_c, 0, 55, 93
2, 13104, Note_off_c, 0, 55, 0
2, 13104, Note_on_c, 0, 54, 93
2, 13128, Note_off_c, 0, 54, 0
2, 13128, Note_on_c, 0, 52, 93
2, 13152, Note_off_c, 0, 52, 0
2, 13152, Note_on_c, 0, 47, 93
2, 13200, Note_off_c, 0, 47, 0
2, 13200, Note_on_c, 0, 51, 93
2, 13248, Note_off_c, 0, 51, 0
2, 13248, Note_on_c, 0, 40, 93
2, 13392, Note_off_c, 0, 40, 0
2, 13392, Note_on_c, 0, 52, 93
2, 13416, Note_off_c, 0, 52, 0
2, 13416, Note_on_c, 0, 54, 93
2, 13440, Note_off_c, 0, 54, 0
2, 13440, Note_on_c, 0, 55, 93
2, 13464, Note_off_c, 0, 55, 0
2, 13464, Note_on_c, 0, 57, 93
2, 13488, Note_off_c, 0, 57, 0
2, 13488, Note_on_c, 0, 59, 93
2, 13512, Note_off_c, 0, 59, 0
2, 13512, Note_on_c, 0, 60, 93
2, 13536, Note_off_c, 0, 60, 0
2, 13536, Note_on_c, 0, 62, 93
2, 13584, Note_off_c, 0, 62, 0
2, 13584, Note_on_c, 0, 53, 93
2, 13632, Note_off_c, 0, 53, 0
2, 13632, Note_on_c, 0, 47, 93
2, 13680, Note_off_c, 0, 47, 0
2, 13680, Note_on_c, 0, 52, 93
2, 13704, Note_off_c, 0, 52, 0
2, 13704, Note_on_c, 0, 53, 93
2, 13728, Note_off_c, 0, 53, 0
2, 13728, Note_on_c, 0, 55, 93
2, 13752, Note_off_c, 0, 55, 0
2, 13752, Note_on_c, 0, 53, 93
2, 13776, Note_off_c, 0, 53, 0
2, 13776, Note_on_c, 0, 52, 93
2, 13800, Note_off_c, 0, 52, 0
2, 13800, Note_on_c, 0, 50, 93
2, 13824, Note_off_c, 0, 50, 0
2, 13824, Note_on_c, 0, 52, 93
2, 13872, Note_off_c, 0, 52, 0
2, 13872, Note_on_c, 0, 48, 93
2, 13920, Note_off_c, 0, 48, 0
2, 13920, Note_on_c, 0, 36, 93
2, 13968, Note_off_c, 0, 36, 0
2, 13968, Note_on_c, 0, 48, 93
2, 13992, Note_off_c, 0, 48, 0
2, 13992, Note_on_c, 0, 50, 93
2, 14016, Note_off_c, 0, 50, 0
2, 14016, Note_on_c, 0, 52, 93
2, 14040, Note_off_c, 0, 52, 0
2, 14040, Note_on_c, 0, 54, 93
2, 14064, Note_off_c, 0, 54, 0
2, 14064, Note_on_c, 0, 55, 93
2, 14088, Note_off_c, 0, 55, 0
2, 14088, Note_on_c, 0, 52, 93
2, 14112, Note_off_c, 0, 52, 0
2, 14112, Note_on_c, 0, 49, 93
2, 14136, Note_off_c, 0, 49, 0
2, 14136, Note_on_c, 0, 55, 93
2, 14160, Note_off_c, 0, 55, 0
2, 14160, Note_on_c, 0, 57, 93
2, 14184, Note_off_c, 0, 57, 0
2, 14184, Note_on_c, 0, 55, 93
2, 14208, Note_off_c, 0, 55, 0
2, 14208, Note_on_c, 0, 57, 93
2, 14232, Note_off_c, 0, 57, 0
2, 14232, Note_on_c, 0, 55, 93
2, 14256, Note_off_c, 0, 55, 0
2, 14256, Note_on_c, 0, 49, 93
2, 14280, Note_off_c, 0, 49, 0
2, 14280, Note_on_c, 0, 55, 93
2, 14304, Note_off_c, 0, 55, 0
2, 14304, Note_on_c, 0, 49, 93
2, 14328, Note_off_c, 0, 49, 0
2, 14328, Note_on_c, 0, 55, 93
2, 14352, Note_off_c, 0, 55, 0
2, 14352, Note_on_c, 0, 57, 93
2, 14376, Note_off_c, 0, 57, 0
2, 14376, Note_on_c, 0, 55, 93
2, 14400, Note_off_c, 0, 55, 0
2, 14400, Note_on_c, 0, 48, 93
2, 14424, Note_off_c, 0, 48, 0
2, 14424, Note_on_c, 0, 54, 93
2, 14448, Note_off_c, 0, 54, 0
2, 14448, Note_on_c, 0, 57, 93
2, 14472, Note_off_c, 0, 57, 0
2, 14472, Note_on_c, 0, 54, 93
2, 14496, Note_off_c, 0, 54, 0
2, 14496, Note_on_c, 0, 57, 93
2, 14520, Note_off_c, 0, 57, 0
2, 14520, Note_on_c, 0, 54, 93
2, 14544, Note_off_c, 0, 54, 0
2, 14544, Note_on_c, 0, 48, 93
2, 14568, Note_off_c, 0, 48, 0
2, 14568, Note_on_c, 0, 54, 93
2, 14592, Note_off_c, 0, 54, 0
2, 14592, Note_on_c, 0, 48, 93
2, 14616, Note_off_c, 0, 48, 0
2, 14616, Note_on_c, 0, 54, 93
2, 14640, Note_off_c, 0, 54, 0
2, 14640, Note_on_c, 0, 57, 93
2, 14664, Note_off_c, 0, 57, 0
2, 14664, Note_on_c, 0, 54, 93
2, 14688, Note_off_c, 0, 54, 0
2, 14688, Note_on_c, 0, 47, 93
2, 14712, Note_off_c, 0, 47, 0
2, 14712, Note_on_c, 0, 50, 93
2, 14736, Note_off_c, 0, 50, 0
2, 14736, Note_on_c, 0, 52, 93
2, 14760, Note_off_c, 0, 52, 0
2, 14760, Note_on_c, 0, 53, 93
2, 14784, Note_off_c, 0, 53, 0
2, 14784, Note_on_c, 0, 43, 93
2, 14808, Note_off_c, 0, 43, 0
2, 14808, Note_on_c, 0, 53, 93
2, 14832, Note_off_c, 0, 53, 0
2, 14832, Note_on_c, 0, 52, 93
2, 14856, Note_off_c, 0, 52, 0
2, 14856, Note_on_c, 0, 50, 93
2, 14880, Note_off_c, 0, 50, 0
2, 14880, Note_on_c, 0, 52, 93
2, 14904, Note_off_c, 0, 52, 0
2, 14904, Note_on_c, 0, 62, 93
2, 14928, Note_off_c, 0, 62, 0
2, 14928, Note_on_c, 0, 60, 93
2, 14952, Note_off_c, 0, 60, 0
2, 14952, Note_on_c, 0, 59, 93
2, 14976, Note_off_c, 0, 59, 0
2, 14976, Note_on_c, 0, 54, 93
2, 15000, Note_off_c, 0, 54, 0
2, 15000, Note_on_c, 0, 57, 93
2, 15024, Note_off_c, 0, 57, 0
2, 15024, Note_on_c, 0, 59, 93
2, 15048, Note_off_c, 0, 59, 0
2, 15048, Note_on_c, 0, 60, 93
2, 15072, Note_off_c, 0, 60, 0
2, 15072, Note_on_c, 0, 50, 93
2, 15096, Note_off_c, 0, 50, 0
2, 15096, Note_on_c, 0, 60, 93
2, 15120, Note_off_c, 0, 60, 0
2, 15120, Note_on_c, 0, 59, 93
2, 15144, Note_off_c, 0, 59, 0
2, 15144, Note_on_c, 0, 57, 93
2, 15168, Note_off_c, 0, 57, 0
2, 15168, Note_on_c, 0, 59, 93
2, 15216, Note_off_c, 0, 59, 0
2, 15216, Note_on_c, 0, 43, 93
2, 15264, Note_off_c, 0, 43, 0
2, 15264, Note_on_c, 0, 36, 93
2, 15312, Note_off_c, 0, 36, 0
2, 15312, Note_on_c, 0, 59, 93
2, 15336, Note_off_c, 0, 59, 0
2, 15336, Note_on_c, 0, 57, 93
2, 15360, Note_off_c, 0, 57, 0
2, 15360, Note_on_c, 0, 60, 93
2, 15384, Note_off_c, 0, 60, 0
2, 15384, Note_on_c, 0, 59, 93
2, 15408, Note_off_c, 0, 59, 0
2, 15408, Note_on_c, 0, 57, 93
2, 15432, Note_off_c, 0, 57, 0
2, 15432, Note_on_c, 0, 55, 93
2, 15456, Note_off_c, 0, 55, 0
2, 15456, Note_on_c, 0, 50, 93
2, 15504, Note_off_c, 0, 50, 0
2, 15504, Note_on_c, 0, 54, 93
2, 15552, Note_off_c, 0, 54, 0
2, 15552, Note_on_c, 0, 43, 93
2, 15576, Note_off_c, 0, 43, 0
2, 15576, Note_on_c, 0, 45, 93
2, 15600, Note_off_c, 0, 45, 0
2, 15600, Note_on_c, 0, 43, 93
2, 15624, Note_off_c, 0, 43, 0
2, 15624, Note_on_c, 0, 47, 93
2, 15648, Note_off_c, 0, 47, 0
2, 15648, Note_on_c, 0, 43, 93
2, 15672, Note_off_c, 0, 43, 0
2, 15672, Note_on_c, 0, 45, 93
2, 15696, Note_off_c, 0, 45, 0
2, 15696, Note_on_c, 0, 43, 93
2, 15720, Note_off_c, 0, 43, 0
2, 15720, Note_on_c, 0, 48, 93
2, 15744, Note_off_c, 0, 48, 0
2, 15744, Note_on_c, 0, 43, 93
2, 15768, Note_off_c, 0, 43, 0
2, 15768, Note_on_c, 0, 45, 93
2, 15792, Note_off_c, 0, 45, 0
2, 15792, Note_on_c, 0, 43, 93
2, 15816, Note_off_c, 0, 43, 0
2, 15816, Note_on_c, 0, 50, 93
2, 15840, Note_off_c, 0, 50, 0
2, 15840, Note_on_c, 0, 43, 93
2, 15864, Note_off_c, 0, 43, 0
2, 15864, Note_on_c, 0, 45, 93
2, 15888, Note_off_c, 0, 45, 0
2, 15888, Note_on_c, 0, 43, 93
2, 15912, Note_off_c, 0, 43, 0
2, 15912, Note_on_c, 0, 52, 93
2, 15936, Note_off_c, 0, 52, 0
2, 15936, Note_on_c, 0, 43, 93
2, 15960, Note_off_c, 0, 43, 0
2, 15960, Note_on_c, 0, 45, 93
2, 15984, Note_off_c, 0, 45, 0
2, 15984, Note_on_c, 0, 43, 93
2, 16008, Note_off_c, 0, 43, 0
2, 16008, Note_on_c, 0, 54, 93
2, 16032, Note_off_c, 0, 54, 0
2, 16032, Note_on_c, 0, 43, 93
2, 16056, Note_off_c, 0, 43, 0
2, 16056, Note_on_c, 0, 45, 93
2, 16080, Note_off_c, 0, 45, 0
2, 16080, Note_on_c, 0, 43, 93
2, 16104, Note_off_c, 0, 43, 0
2, 16104, Note_on_c, 0, 55, 93
2, 16128, Note_off_c, 0, 55, 0
2, 16128, Note_on_c, 0, 60, 93
2, 16152, Note_off_c, 0, 60, 0
2, 16152, Note_on_c, 0, 59, 93
2, 16176, Note_off_c, 0, 59, 0
2, 16176, Note_on_c, 0, 57, 93
2, 16200, Note_off_c, 0, 57, 0
2, 16200, Note_on_c, 0, 55, 93
2, 16224, Note_off_c, 0, 55, 0
2, 16224, Note_on_c, 0, 54, 93
2, 16248, Note_off_c, 0, 54, 0
2, 16248, Note_on_c, 0, 52, 93
2, 16272, Note_off_c, 0, 52, 0
2, 16272, Note_on_c, 0, 50, 93
2, 16296, Note_off_c, 0, 50, 0
2, 16296, Note_on_c, 0, 60, 93
2, 16320, Note_off_c, 0, 60, 0
2, 16320, Note_on_c, 0, 59, 93
2, 16392, Note_off_c, 0, 59, 0
2, 16392, Note_on_c, 0, 57, 93
2, 16416, Note_off_c, 0, 57, 0
2, 16416, Note_on_c, 0, 62, 93
2, 16440, Note_off_c, 0, 62, 0
2, 16440, Note_on_c, 0, 60, 93
2, 16464, Note_off_c, 0, 60, 0
2, 16464, Note_on_c, 0, 62, 93
2, 16488, Note_off_c, 0, 62, 0
2, 16488, Note_on_c, 0, 59, 93
2, 16512, Note_off_c, 0, 59, 0
2, 16512, Note_on_c, 0, 62, 93
2, 16536, Note_off_c, 0, 62, 0
2, 16536, Note_on_c, 0, 60, 93
2, 16560, Note_off_c, 0, 60, 0
2, 16560, Note_on_c, 0, 62, 93
2, 16584, Note_off_c, 0, 62, 0
2, 16584, Note_on_c, 0, 59, 93
2, 16608, Note_off_c, 0, 59, 0
2, 16608, Note_on_c, 0, 52, 93
2, 16632, Note_off_c, 0, 52, 0
2, 16632, Note_on_c, 0, 62, 93
2, 16656, Note_off_c, 0, 62, 0
2, 16656, Note_on_c, 0, 60, 93
2, 16680, Note_off_c, 0, 60, 0
2, 16680, Note_on_c, 0, 59, 93
2, 16704, Note_off_c, 0, 59, 0
2, 16704, Note_on_c, 0, 60, 93
2, 16728, Note_off_c, 0, 60, 0
2, 16728, Note_on_c, 0, 59, 93
2, 16752, Note_off_c, 0, 59, 0
2, 16752, Note_on_c, 0, 60, 93
2, 16776, Note_off_c, 0, 60, 0
2, 16776, Note_on_c, 0, 57, 93
2, 16800, Note_off_c, 0, 57, 0
2, 16800, Note_on_c, 0, 60, 93
2, 16824, Note_off_c, 0, 60, 0
2, 16824, Note_on_c, 0, 59, 93
2, 16848, Note_off_c, 0, 59, 0
2, 16848, Note_on_c, 0, 60, 93
2, 16872, Note_off_c, 0, 60, 0
2, 16872, Note_on_c, 0, 57, 93
2, 16896, Note_off_c, 0, 57, 0
2, 16896, Note_on_c, 0, 50, 93
2, 16920, Note_off_c, 0, 50, 0
2, 16920, Note_on_c, 0, 60, 93
2, 16944, Note_off_c, 0, 60, 0
2, 16944, Note_on_c, 0, 59, 93
2, 16968, Note_off_c, 0, 59, 0
2, 16968, Note_on_c, 0, 57, 93
2, 16992, Note_off_c, 0, 57, 0
2, 16992, Note_on_c, 0, 59, 93
2, 17016, Note_off_c, 0, 59, 0
2, 17016, Note_on_c, 0, 57, 93
2, 17040, Note_off_c, 0, 57, 0
2, 17040, Note_on_c, 0, 59, 93
2, 17064, Note_off_c, 0, 59, 0
2, 17064, Note_on_c, 0, 55, 93
2, 17088, Note_off_c, 0, 55, 0
2, 17088, Note_on_c, 0, 48, 93
2, 17112, Note_off_c, 0, 48, 0
2, 17112, Note_on_c, 0, 59, 93
2, 17136, Note_off_c, 0, 59, 0
2, 17136, Note_on_c, 0, 57, 93
2, 17160, Note_off_c, 0, 57, 0
2, 17160, Note_on_c, 0, 55, 93
2, 17184, Note_off_c, 0, 55, 0
2, 17184, Note_on_c, 0, 50, 93
2, 17232, Note_off_c, 0, 50, 0
2, 17232, Note_on_c, 0, 54, 93
2, 17280, Note_off_c, 0, 54, 0
2, 17280, Note_on_c, 0, 55, 93
2, 17472, Note_off_c, 0, 55, 0
2, 17520, Note_on_c, 0, 57, 93
2, 17568, Note_off_c, 0, 57, 0
2, 17568, Note_on_c, 0, 57, 93
2, 17616, Note_off_c, 0, 57, 0
2, 17616, Note_on_c, 0, 54, 93
2, 17664, Note_off_c, 0, 54, 0
2, 17664, Note_on_c, 0, 50, 93
2, 17712, Note_off_c, 0, 50, 0
2, 17712, Note_on_c, 0, 52, 93
2, 17736, Note_off_c, 0, 52, 0
2, 17736, Note_on_c, 0, 54, 93
2, 17760, Note_off_c, 0, 54, 0
2, 17760, Note_on_c, 0, 55, 93
2, 17784, Note_off_c, 0, 55, 0
2, 17784, Note_on_c, 0, 54, 93
2, 17808, Note_off_c, 0, 54, 0
2, 17808, Note_on_c, 0, 52, 93
2, 17832, Note_off_c, 0, 52, 0
2, 17832, Note_on_c, 0, 50, 93
2, 17856, Note_off_c, 0, 50, 0
2, 17856, Note_on_c, 0, 62, 93
2, 17904, Note_off_c, 0, 62, 0
2, 17904, Note_on_c, 0, 54, 93
2, 17952, Note_off_c, 0, 54, 0
2, 17952, Note_on_c, 0, 48, 93
2, 18000, Note_off_c, 0, 48, 0
2, 18000, Note_on_c, 0, 47, 93
2, 18024, Note_off_c, 0, 47, 0
2, 18024, Note_on_c, 0, 48, 93
2, 18048, Note_off_c, 0, 48, 0
2, 18048, Note_on_c, 0, 50, 93
2, 18072, Note_off_c, 0, 50, 0
2, 18072, Note_on_c, 0, 48, 93
2, 18096, Note_off_c, 0, 48, 0
2, 18096, Note_on_c, 0, 47, 93
2, 18120, Note_off_c, 0, 47, 0
2, 18120, Note_on_c, 0, 45, 93
2, 18144, Note_off_c, 0, 45, 0
2, 18144, Note_on_c, 0, 47, 93
2, 18168, Note_off_c, 0, 47, 0
2, 18168, Note_on_c, 0, 55, 93
2, 18192, Note_off_c, 0, 55, 0
2, 18192, Note_on_c, 0, 57, 93
2, 18216, Note_off_c, 0, 57, 0
2, 18216, Note_on_c, 0, 59, 93
2, 18240, Note_off_c, 0, 59, 0
2, 18240, Note_on_c, 0, 60, 93
2, 18264, Note_off_c, 0, 60, 0
2, 18264, Note_on_c, 0, 59, 93
2, 18288, Note_off_c, 0, 59, 0
2, 18288, Note_on_c, 0, 57, 93
2, 18312, Note_off_c, 0, 57, 0
2, 18312, Note_on_c, 0, 55, 93
2, 18336, Note_off_c, 0, 55, 0
2, 18336, Note_on_c, 0, 54, 93
2, 18384, Note_off_c, 0, 54, 0
2, 18384, Note_on_c, 0, 62, 93
2, 18432, Note_off_c, 0, 62, 0
2, 18432, Note_on_c, 0, 59, 93
2, 18480, Note_off_c, 0, 59, 0
2, 18480, Note_on_c, 0, 55, 93
2, 18528, Note_off_c, 0, 55, 0
2, 18528, Note_on_c, 0, 43, 93
2, 18576, Note_off_c, 0, 43, 0
2, 18576, Note_on_c, 0, 59, 93
2, 18600, Note_off_c, 0, 59, 0
2, 18600, Note_on_c, 0, 57, 93
2, 18624, Note_off_c, 0, 57, 0
2, 18624, Note_on_c, 0, 60, 93
2, 18648, Note_off_c, 0, 60, 0
2, 18648, Note_on_c, 0, 59, 93
2, 18672, Note_off_c, 0, 59, 0
2, 18672, Note_on_c, 0, 57, 93
2, 18696, Note_off_c, 0, 57, 0
2, 18696, Note_on_c, 0, 55, 93
2, 18720, Note_off_c, 0, 55, 0
2, 18720, Note_on_c, 0, 57, 93
2, 18768, Note_off_c, 0, 57, 0
2, 18768, Note_on_c, 0, 54, 93
2, 18816, Note_off_c, 0, 54, 0
2, 18816, Note_on_c, 0, 51, 93
2, 18840, Note_off_c, 0, 51, 0
2, 18840, Note_on_c, 0, 57, 93
2, 18864, Note_off_c, 0, 57, 0
2, 18864, Note_on_c, 0, 59, 93
2, 18888, Note_off_c, 0, 59, 0
2, 18888, Note_on_c, 0, 60, 93
2, 18912, Note_off_c, 0, 60, 0
2, 18912, Note_on_c, 0, 59, 93
2, 18936, Note_off_c, 0, 59, 0
2, 18936, Note_on_c, 0, 57, 93
2, 18960, Note_off_c, 0, 57, 0
2, 18960, Note_on_c, 0, 55, 93
2, 18984, Note_off_c, 0, 55, 0
2, 18984, Note_on_c, 0, 54, 93
2, 19008, Note_off_c, 0, 54, 0
2, 19008, Note_on_c, 0, 55, 93
2, 19056, Note_off_c, 0, 55, 0
2, 19056, Note_on_c, 0, 52, 93
2, 19104, Note_off_c, 0, 52, 0
2, 19104, Note_on_c, 0, 40, 93
2, 19152, Note_off_c, 0, 40, 0
2, 19152, Note_on_c, 0, 55, 93
2, 19176, Note_off_c, 0, 55, 0
2, 19176, Note_on_c, 0, 54, 93
2, 19200, Note_off_c, 0, 54, 0
2, 19200, Note_on_c, 0, 57, 93
2, 19224, Note_off_c, 0, 57, 0
2, 19224, Note_on_c, 0, 55, 93
2, 19248, Note_off_c, 0, 55, 0
2, 19248, Note_on_c, 0, 54, 93
2, 19272, Note_off_c, 0, 54, 0
2, 19272, Note_on_c, 0, 52, 93
2, 19296, Note_off_c, 0, 52, 0
2, 19296, Note_on_c, 0, 53, 93
2, 19320, Note_off_c, 0, 53, 0
2, 19320, Note_on_c, 0, 52, 93
2, 19344, Note_off_c, 0, 52, 0
2, 19344, Note_on_c, 0, 53, 93
2, 19368, Note_off_c, 0, 53, 0
2, 19368, Note_on_c, 0, 57, 93
2, 19392, Note_off_c, 0, 57, 0
2, 19392, Note_on_c, 0, 53, 93
2, 19416, Note_off_c, 0, 53, 0
2, 19416, Note_on_c, 0, 52, 93
2, 19440, Note_off_c, 0, 52, 0
2, 19440, Note_on_c, 0, 53, 93
2, 19464, Note_off_c, 0, 53, 0
2, 19464, Note_on_c, 0, 57, 93
2, 19488, Note_off_c, 0, 57, 0
2, 19488, Note_on_c, 0, 60, 93
2, 19512, Note_off_c, 0, 60, 0
2, 19512, Note_on_c, 0, 59, 93
2, 19536, Note_off_c, 0, 59, 0
2, 19536, Note_on_c, 0, 60, 93
2, 19560, Note_off_c, 0, 60, 0
2, 19560, Note_on_c, 0, 57, 93
2, 19584, Note_off_c, 0, 57, 0
2, 19584, Note_on_c, 0, 63, 93
2, 19704, Note_off_c, 0, 63, 0
2, 19704, Note_on_c, 0, 60, 93
2, 19728, Note_off_c, 0, 60, 0
2, 19728, Note_on_c, 0, 59, 93
2, 19752, Note_off_c, 0, 59, 0
2, 19752, Note_on_c, 0, 57, 93
2, 19776, Note_off_c, 0, 57, 0
2, 19776, Note_on_c, 0, 55, 93
2, 19800, Note_off_c, 0, 55, 0
2, 19800, Note_on_c, 0, 54, 93
2, 19824, Note_off_c, 0, 54, 0
2, 19824, Note_on_c, 0, 57, 93
2, 19848, Note_off_c, 0, 57, 0
2, 19848, Note_on_c, 0, 51, 93
2, 19872, Note_off_c, 0, 51, 0
2, 19872, Note_on_c, 0, 43, 93
2, 19920, Note_off_c, 0, 43, 0
2, 19920, Note_on_c, 0, 59, 93
2, 19968, Note_off_c, 0, 59, 0
2, 19968, Note_on_c, 0, 57, 93
2, 19992, Note_off_c, 0, 57, 0
2, 19992, Note_on_c, 0, 55, 93
2, 20016, Note_off_c, 0, 55, 0
2, 20016, Note_on_c, 0, 54, 93
2, 20040, Note_off_c, 0, 54, 0
2, 20040, Note_on_c, 0, 52, 93
2, 20064, Note_off_c, 0, 52, 0
2, 20064, Note_on_c, 0, 47, 93
2, 20112, Note_off_c, 0, 47, 0
2, 20112, Note_on_c, 0, 51, 93
2, 20160, Note_off_c, 0, 51, 0
2, 20160, Note_on_c, 0, 40, 93
2, 20304, Note_off_c, 0, 40, 0
2, 20304, Note_on_c, 0, 52, 93
2, 20328, Note_off_c, 0, 52, 0
2, 20328, Note_on_c, 0, 54, 93
2, 20352, Note_off_c, 0, 54, 0
2, 20352, Note_on_c, 0, 55, 93
2, 20376, Note_off_c, 0, 55, 0
2, 20376, Note_on_c, 0, 57, 93
2, 20400, Note_off_c, 0, 57, 0
2, 20400, Note_on_c, 0, 59, 93
2, 20424, Note_off_c, 0, 59, 0
2, 20424, Note_on_c, 0, 60, 93
2, 20448, Note_off_c, 0, 60, 0
2, 20448, Note_on_c, 0, 62, 93
2, 20496, Note_off_c, 0, 62, 0
2, 20496, Note_on_c, 0, 53, 93
2, 20544, Note_off_c, 0, 53, 0
2, 20544, Note_on_c, 0, 47, 93
2, 20592, Note_off_c, 0, 47, 0
2, 20592, Note_on_c, 0, 52, 93
2, 20616, Note_off_c, 0, 52, 0
2, 20616, Note_on_c, 0, 53, 93
2, 20640, Note_off_c, 0, 53, 0
2, 20640, Note_on_c, 0, 55, 93
2, 20664, Note_off_c, 0, 55, 0
2, 20664, Note_on_c, 0, 53, 93
2, 20688, Note_off_c, 0, 53, 0
2, 20688, Note_on_c, 0, 52, 93
2, 20712, Note_off_c, 0, 52, 0
2, 20712, Note_on_c, 0, 50, 93
2, 20736, Note_off_c, 0, 50, 0
2, 20736, Note_on_c, 0, 52, 93
2, 20784, Note_off_c, 0, 52, 0
2, 20784, Note_on_c, 0, 48, 93
2, 20832, Note_off_c, 0, 48, 0
2, 20832, Note_on_c, 0, 36, 93
2, 20880, Note_off_c, 0, 36, 0
2, 20880, Note_on_c, 0, 48, 93
2, 20904, Note_off_c, 0, 48, 0
2, 20904, Note_on_c, 0, 50, 93
2, 20928, Note_off_c, 0, 50, 0
2, 20928, Note_on_c, 0, 52, 93
2, 20952, Note_off_c, 0, 52, 0
2, 20952, Note_on_c, 0, 54, 93
2, 20976, Note_off_c, 0, 54, 0
2, 20976, Note_on_c, 0, 55, 93
2, 21000, Note_off_c, 0, 55, 0
2, 21000, Note_on_c, 0, 52, 93
2, 21024, Note_off_c, 0, 52, 0
2, 21024, Note_on_c, 0, 49, 93
2, 21048, Note_off_c, 0, 49, 0
2, 21048, Note_on_c, 0, 55, 93
2, 21072, Note_off_c, 0, 55, 0
2, 21072, Note_on_c, 0, 57, 93
2, 21096, Note_off_c, 0, 57, 0
2, 21096, Note_on_c, 0, 55, 93
2, 21120, Note_off_c, 0, 55, 0
2, 21120, Note_on_c, 0, 57, 93
2, 21144, Note_off_c, 0, 57, 0
2, 21144, Note_on_c, 0, 55, 93
2, 21168, Note_off_c, 0, 55, 0
2, 21168, Note_on_c, 0, 49, 93
2, 21192, Note_off_c, 0, 49, 0
2, 21192, Note_on_c, 0, 55, 93
2, 21216, Note_off_c, 0, 55, 0
2, 21216, Note_on_c, 0, 49, 93
2, 21240, Note_off_c, 0, 49, 0
2, 21240, Note_on_c, 0, 55, 93
2, 21264, Note_off_c, 0, 55, 0
2, 21264, Note_on_c, 0, 57, 93
2, 21288, Note_off_c, 0, 57, 0
2, 21288, Note_on_c, 0, 55, 93
2, 21312, Note_off_c, 0, 55, 0
2, 21312, Note_on_c, 0, 48, 93
2, 21336, Note_off_c, 0, 48, 0
2, 21336, Note_on_c, 0, 54, 93
2, 21360, Note_off_c, 0, 54, 0
2, 21360, Note_on_c, 0, 57, 93
2, 21384, Note_off_c, 0, 57, 0
2, 21384, Note_on_c, 0, 54, 93
2, 21408, Note_off_c, 0, 54, 0
2, 21408, Note_on_c, 0, 57, 93
2, 21432, Note_off_c, 0, 57, 0
2, 21432, Note_on_c, 0, 54, 93
2, 21456, Note_off_c, 0, 54, 0
2, 21456, Note_on_c, 0, 48, 93
2, 21480, Note_off_c, 0, 48, 0
2, 21480, Note_on_c, 0, 54, 93
2, 21504, Note_off_c, 0, 54, 0
2, 21504, Note_on_c, 0, 48, 93
2, 21528, Note_off_c, 0, 48, 0
2, 21528, Note_on_c, 0, 54, 93
2, 21552, Note_off_c, 0, 54, 0
2, 21552, Note_on_c, 0, 57, 93
2, 21576, Note_off_c, 0, 57, 0
2, 21576, Note_on_c, 0, 54, 93
2, 21600, Note_off_c, 0, 54, 0
2, 21600, Note_on_c, 0, 47, 93
2, 21624, Note_off_c, 0, 47, 0
2, 21624, Note_on_c, 0, 50, 93
2, 21648, Note_off_c, 0, 50, 0
2, 21648, Note_on_c, 0, 52, 93
2, 21672, Note_off_c, 0, 52, 0
2, 21672, Note_on_c, 0, 53, 93
2, 21696, Note_off_c, 0, 53, 0
2, 21696, Note_on_c, 0, 43, 93
2, 21720, Note_off_c, 0, 43, 0
2, 21720, Note_on_c, 0, 53, 93
2, 21744, Note_off_c, 0, 53, 0
2, 21744, Note_on_c, 0, 52, 93
2, 21768, Note_off_c, 0, 52, 0
2, 21768, Note_on_c, 0, 50, 93
2, 21792, Note_off_c, 0, 50, 0
2, 21792, Note_on_c, 0, 52, 93
2, 21816, Note_off_c, 0, 52, 0
2, 21816, Note_on_c, 0, 62, 93
2, 21840, Note_off_c, 0, 62, 0
2, 21840, Note_on_c, 0, 60, 93
2, 21864, Note_off_c, 0, 60, 0
2, 21864, Note_on_c, 0, 59, 93
2, 21888, Note_off_c, 0, 59, 0
2, 21888, Note_on_c, 0, 54, 93
2, 21912, Note_off_c, 0, 54, 0
2, 21912, Note_on_c, 0, 57, 93
2, 21936, Note_off_c, 0, 57, 0
2, 21936, Note_on_c, 0, 59, 93
2, 21960, Note_off_c, 0, 59, 0
2, 21960, Note_on_c, 0, 60, 93
2, 21984, Note_off_c, 0, 60, 0
2, 21984, Note_on_c, 0, 50, 93
2, 22008, Note_off_c, 0, 50, 0
2, 22008, Note_on_c, 0, 60, 93
2, 22032, Note_off_c, 0, 60, 0
2, 22032, Note_on_c, 0, 59, 93
2, 22056, Note_off_c, 0, 59, 0
2, 22056, Note_on_c, 0, 57, 93
2, 22080, Note_off_c, 0, 57, 0
2, 22080, Note_on_c, 0, 59, 93
2, 22128, Note_off_c, 0, 59, 0
2, 22128, Note_on_c, 0, 43, 93
2, 22176, Note_off_c, 0, 43, 0
2, 22176, Note_on_c, 0, 36, 93
2, 22224, Note_off_c, 0, 36, 0
2, 22224, Note_on_c, 0, 59, 93
2, 22248, Note_off_c, 0, 59, 0
2, 22248, Note_on_c, 0, 57, 93
2, 22272, Note_off_c, 0, 57, 0
2, 22272, Note_on_c, 0, 60, 93
2, 22296, Note_off_c, 0, 60, 0
2, 22296, Note_on_c, 0, 59, 93
2, 22320, Note_off_c, 0, 59, 0
2, 22320, Note_on_c, 0, 57, 93
2, 22344, Note_off_c, 0, 57, 0
2, 22344, Note_on_c, 0, 55, 93
2, 22368, Note_off_c, 0, 55, 0
2, 22368, Note_on_c, 0, 50, 93
2, 22416, Note_off_c, 0, 50, 0
2, 22416, Note_on_c, 0, 54, 93
2, 22464, Note_off_c, 0, 54, 0
2, 22464, Note_on_c, 0, 43, 93
2, 22488, Note_off_c, 0, 43, 0
2, 22488, Note_on_c, 0, 45, 93
2, 22512, Note_off_c, 0, 45, 0
2, 22512, Note_on_c, 0, 43, 93
2, 22536, Note_off_c, 0, 43, 0
2, 22536, Note_on_c, 0, 47, 93
2, 22560, Note_off_c, 0, 47, 0
2, 22560, Note_on_c, 0, 43, 93
2, 22584, Note_off_c, 0, 43, 0
2, 22584, Note_on_c, 0, 45, 93
2, 22608, Note_off_c, 0, 45, 0
2, 22608, Note_on_c, 0, 43, 93
2, 22632, Note_off_c, 0, 43, 0
2, 22632, Note_on_c, 0, 48, 93
2, 22656, Note_off_c, 0, 48, 0
2, 22656, Note_on_c, 0, 43, 93
2, 22680, Note_off_c, 0, 43, 0
2, 22680, Note_on_c, 0, 45, 93
2, 22704, Note_off_c, 0, 45, 0
2, 22704, Note_on_c, 0, 43, 93
2, 22728, Note_off_c, 0, 43, 0
2, 22728, Note_on_c, 0, 50, 93
2, 22752, Note_off_c, 0, 50, 0
2, 22752, Note_on_c, 0, 43, 93
2, 22776, Note_off_c, 0, 43, 0
2, 22776, Note_on_c, 0, 45, 93
2, 22800, Note_off_c, 0, 45, 0
2, 22800, Note_on_c, 0, 43, 93
2, 22824, Note_off_c, 0, 43, 0
2, 22824, Note_on_c, 0, 52, 93
2, 22848, Note_off_c, 0, 52, 0
2, 22848, Note_on_c, 0, 43, 93
2, 22872, Note_off_c, 0, 43, 0
2, 22872, Note_on_c, 0, 45, 93
2, 22896, Note_off_c, 0, 45, 0
2, 22896, Note_on_c, 0, 43, 93
2, 22920, Note_off_c, 0, 43, 0
2, 22920, Note_on_c, 0, 54, 93
2, 22944, Note_off_c, 0, 54, 0
2, 22944, Note_on_c, 0, 43, 93
2, 22968, Note_off_c, 0, 43, 0
2, 22968, Note_on_c, 0, 45, 93
2, 22992, Note_off_c, 0, 45, 0
2, 22992, Note_on_c, 0, 43, 93
2, 23016, Note_off_c, 0, 43, 0
2, 23016, Note_on_c, 0, 55, 93
2, 23040, Note_off_c, 0, 55, 0
2, 23040, Note_on_c, 0, 60, 93
2, 23064, Note_off_c, 0, 60, 0
2, 23064, Note_on_c, 0, 59, 93
2, 23088, Note_off_c, 0, 59, 0
2, 23088, Note_on_c, 0, 57, 93
2, 23112, Note_off_c, 0, 57, 0
2, 23112, Note_on_c, 0, 55, 93
2, 23136, Note_off_c, 0, 55, 0
2, 23136, Note_on_c, 0, 54, 93
2, 23160, Note_off_c, 0, 54, 0
2, 23160, Note_on_c, 0, 52, 93
2, 23184, Note_off_c, 0, 52, 0
2, 23184, Note_on_c, 0, 50, 93
2, 23208, Note_off_c, 0, 50, 0
2, 23208, Note_on_c, 0, 60, 93
2, 23232, Note_off_c, 0, 60, 0
2, 23232, Note_on_c, 0, 59, 93
2, 23304, Note_off_c, 0, 59, 0
2, 23304, Note_on_c, 0, 57, 93
2, 23328, Note_off_c, 0, 57, 0
2, 23328, Note_on_c, 0, 62, 93
2, 23352, Note_off_c, 0, 62, 0
2, 23352, Note_on_c, 0, 60, 93
2, 23376, Note_off_c, 0, 60, 0
2, 23376, Note_on_c, 0, 62, 93
2, 23400, Note_off_c, 0, 62, 0
2, 23400, Note_on_c, 0, 59, 93
2, 23424, Note_off_c, 0, 59, 0
2, 23424, Note_on_c, 0, 62, 93
2, 23448, Note_off_c, 0, 62, 0
2, 23448, Note_on_c, 0, 60, 93
2, 23472, Note_off_c, 0, 60, 0
2, 23472, Note_on_c, 0, 62, 93
2, 23496, Note_off_c, 0, 62, 0
2, 23496, Note_on_c, 0, 59, 93
2, 23520, Note_off_c, 0, 59, 0
2, 23520, Note_on_c, 0, 52, 93
2, 23544, Note_off_c, 0, 52, 0
2, 23544, Note_on_c, 0, 62, 93
2, 23568, Note_off_c, 0, 62, 0
2, 23568, Note_on_c, 0, 60, 93
2, 23592, Note_off_c, 0, 60, 0
2, 23592, Note_on_c, 0, 59, 93
2, 23616, Note_off_c, 0, 59, 0
2, 23616, Note_on_c, 0, 60, 93
2, 23640, Note_off_c, 0, 60, 0
2, 23640, Note_on_c, 0, 59, 93
2, 23664, Note_off_c, 0, 59, 0
2, 23664, Note_on_c, 0, 60, 93
2, 23688, Note_off_c, 0, 60, 0
2, 23688, Note_on_c, 0, 57, 93
2, 23712, Note_off_c, 0, 57, 0
2, 23712, Note_on_c, 0, 60, 93
2, 23736, Note_off_c, 0, 60, 0
2, 23736, Note_on_c, 0, 59, 93
2, 23760, Note_off_c, 0, 59, 0
2, 23760, Note_on_c, 0, 60, 93
2, 23784, Note_off_c, 0, 60, 0
2, 23784, Note_on_c, 0, 57, 93
2, 23808, Note_off_c, 0, 57, 0
2, 23808, Note_on_c, 0, 50, 93
2, 23832, Note_off_c, 0, 50, 0
2, 23832, Note_on_c, 0, 60, 93
2, 23856, Note_off_c, 0, 60, 0
2, 23856, Note_on_c, 0, 59, 93
2, 23880, Note_off_c, 0, 59, 0
2, 23880, Note_on_c, 0, 57, 93
2, 23904, Note_off_c, 0, 57, 0
2, 23904, Note_on_c, 0, 59, 93
2, 23928, Note_off_c, 0, 59, 0
2, 23928, Note_on_c, 0, 57, 93
2, 23952, Note_off_c, 0, 57, 0
2, 23952, Note_on_c, 0, 59, 93
2, 23976, Note_off_c, 0, 59, 0
2, 23976, Note_on_c, 0, 55, 93
2, 24000, Note_off_c, 0, 55, 0
2, 24000, Note_on_c, 0, 48, 93
2, 24024, Note_off_c, 0, 48, 0
2, 24024, Note_on_c, 0, 59, 93
2, 24048, Note_off_c, 0, 59, 0
2, 24048, Note_on_c, 0, 57, 93
2, 24072, Note_off_c, 0, 57, 0
2, 24072, Note_on_c, 0, 55, 93
2, 24096, Note_off_c, 0, 55, 0
2, 24096, Note_on_c, 0, 50, 93
2, 24144, Note_off_c, 0, 50, 0
2, 24144, Note_on_c, 0, 54, 93
2, 24192, Note_off_c, 0, 54, 0
2, 24192, Note_on_c, 0, 55, 93
2, 24384, Note_off_c, 0, 55, 0
2, 24384, End_track
3, 0, Start_track
3, 0, Title_t, "Track3"
3, 0, Program_c, 1, 42
3, 0, Control_c, 1, 7, 100
3, 0, Control_c, 1, 10, 74
3, 2304, Note_on_c, 1, 43, 93
3, 2448, Note_off_c, 1, 43, 0
3, 7488, Note_on_c, 1, 43, 93
3, 7632, Note_off_c, 1, 43, 0
3, 17280, Note_on_c, 1, 43, 93
3, 17472, Note_off_c, 1, 43, 0
3, 24192, Note_on_c, 1, 43, 93
3, 24384, Note_off_c, 1, 43, 0
3, 24384, End_track
0, 0, End_of_file
