0, 0, Header, 1, 5, 96
1, 0, Start_track
1, 0, Time_signature, 4, 2, 24, 8
1, 0, Title_t, "untitled"
1, 0, Title_t, "Track1"
1, 0, Tempo, 1090909
1, 0, End_track
2, 0, Start_track
2, 0, Title_t, "Track2"
2, 0, Program_c, 0, 42
2, 0, Control_c, 0, 7, 100
2, 0, Control_c, 0, 10, 69
2, 0, Note_on_c, 0, 50, 93
2, 72, Note_off_c, 0, 50, 0
2, 72, Note_on_c, 0, 52, 93
2, 96, Note_off_c, 0, 52, 0
2, 96, Note_on_c, 0, 52, 93
2, 240, Note_off_c, 0, 52, 0
2, 240, Note_on_c, 0, 50, 93
2, 264, Note_off_c, 0, 50, 0
2, 264, Note_on_c, 0, 52, 93
2, 288, Note_off_c, 0, 52, 0
2, 288, Note_on_c, 0, 53, 93
2, 432, Note_off_c, 0, 53, 0
2, 432, Note_on_c, 0, 52, 93
2, 480, Note_off_c, 0, 52, 0
2, 480, Note_on_c, 0, 50, 93
2, 528, Note_off_c, 0, 50, 0
2, 528, Note_on_c, 0, 48, 93
2, 576, Note_off_c, 0, 48, 0
2, 576, Note_on_c, 0, 46, 93
2, 624, Note_off_c, 0, 46, 0
2, 624, Note_on_c, 0, 55, 93
2, 672, Note_off_c, 0, 55, 0
2, 672, Note_on_c, 0, 53, 93
2, 720, Note_off_c, 0, 53, 0
2, 720, Note_on_c, 0, 52, 93
2, 744, Note_off_c, 0, 52, 0
2, 744, Note_on_c, 0, 53, 93
2, 768, Note_off_c, 0, 53, 0
2, 768, Note_on_c, 0, 55, 93
2, 792, Note_off_c, 0, 55, 0
2, 792, Note_on_c, 0, 57, 93
2, 816, Note_off_c, 0, 57, 0
2, 816, Note_on_c, 0, 58, 93
2, 840, Note_off_c, 0, 58, 0
2, 840, Note_on_c, 0, 50, 93
2, 864, Note_off_c, 0, 50, 0
2, 864, Note_on_c, 0, 49, 93
2, 1008, Note_off_c, 0, 49, 0
2, 1008, Note_on_c, 0, 47, 93
2, 1056, Note_off_c, 0, 47, 0
2, 1056, Note_on_c, 0, 45, 93
2, 1104, Note_off_c, 0, 45, 0
2, 1104, Note_on_c, 0, 43, 93
2, 1152, Note_off_c, 0, 43, 0
2, 1152, Note_on_c, 0, 50, 93
2, 1224, Note_off_c, 0, 50, 0
2, 1224, Note_on_c, 0, 52, 93
2, 1248, Note_off_c, 0, 52, 0
2, 1248, Note_on_c, 0, 52, 93
2, 1392, Note_off_c, 0, 52, 0
2, 1392, Note_on_c, 0, 50, 93
2, 1416, Note_off_c, 0, 50, 0
2, 1416, Note_on_c, 0, 52, 93
2, 1440, Note_off_c, 0, 52, 0
2, 1440, Note_on_c, 0, 53, 93
2, 1584, Note_off_c, 0, 53, 0
2, 1584, Note_on_c, 0, 50, 93
2, 1632, Note_off_c, 0, 50, 0
2, 1632, Note_on_c, 0, 52, 93
2, 1680, Note_off_c, 0, 52, 0
2, 1680, Note_on_c, 0, 53, 93
2, 1728, Note_off_c, 0, 53, 0
2, 1728, Note_on_c, 0, 55, 93
2, 1776, Note_off_c, 0, 55, 0
2, 1776, Note_on_c, 0, 58, 93
2, 1800, Note_off_c, 0, 58, 0
2, 1800, Note_on_c, 0, 57, 93
2, 1824, Note_off_c, 0, 57, 0
2, 1824, Note_on_c, 0, 60, 93
2, 1848, Note_off_c, 0, 60, 0
2, 1848, Note_on_c, 0, 58, 93
2, 1872, Note_off_c, 0, 58, 0
2, 1872, Note_on_c, 0, 57, 93
2, 1896, Note_off_c, 0, 57, 0
2, 1896, Note_on_c, 0, 55, 93
2, 1920, Note_off_c, 0, 55, 0
2, 1920, Note_on_c, 0, 62, 93
2, 1968, Note_off_c, 0, 62, 0
2, 1968, Note_on_c, 0, 53, 93
2, 2016, Note_off_c, 0, 53, 0
2, 2016, Note_on_c, 0, 52, 93
2, 2160, Note_off_c, 0, 52, 0
2, 2160, Note_on_c, 0, 50, 93
2, 2208, Note_off_c, 0, 50, 0
2, 2208, Note_on_c, 0, 48, 93
2, 2256, Note_off_c, 0, 48, 0
2, 2256, Note_on_c, 0, 46, 93
2, 2304, Note_off_c, 0, 46, 0
2, 2304, Note_on_c, 0, 45, 93
2, 2400, Note_off_c, 0, 45, 0
2, 2400, Note_on_c, 0, 50, 93
2, 2544, Note_off_c, 0, 50, 0
2, 2544, Note_on_c, 0, 55, 93
2, 2568, Note_off_c, 0, 55, 0
2, 2568, Note_on_c, 0, 53, 93
2, 2592, Note_off_c, 0, 53, 0
2, 2592, Note_on_c, 0, 55, 93
2, 2640, Note_off_c, 0, 55, 0
2, 2640, Note_on_c, 0, 57, 93
2, 2664, Note_off_c, 0, 57, 0
2, 2664, Note_on_c, 0, 58, 93
2, 2688, Note_off_c, 0, 58, 0
2, 2688, Note_on_c, 0, 58, 93
2, 2832, Note_off_c, 0, 58, 0
2, 2832, Note_on_c, 0, 60, 93
2, 2856, Note_off_c, 0, 60, 0
2, 2856, Note_on_c, 0, 62, 93
2, 2880, Note_off_c, 0, 62, 0
2, 2880, Note_on_c, 0, 52, 93
2, 2928, Note_off_c, 0, 52, 0
2, 2928, Note_on_c, 0, 53, 93
2, 2976, Note_off_c, 0, 53, 0
2, 2976, Note_on_c, 0, 36, 93
2, 3024, Note_off_c, 0, 36, 0
2, 3024, Note_on_c, 0, 43, 93
2, 3072, Note_off_c, 0, 43, 0
2, 3072, Note_on_c, 0, 53, 93
2, 3120, Note_off_c, 0, 53, 0
2, 3120, Note_on_c, 0, 52, 93
2, 3168, Note_off_c, 0, 52, 0
2, 3168, Note_on_c, 0, 53, 93
2, 3264, Note_off_c, 0, 53, 0
2, 3264, Note_on_c, 0, 41, 93
2, 3456, Note_off_c, 0, 41, 0
2, 3456, Note_on_c, 0, 50, 93
2, 3528, Note_off_c, 0, 50, 0
2, 3528, Note_on_c, 0, 52, 93
2, 3552, Note_off_c, 0, 52, 0
2, 3552, Note_on_c, 0, 52, 93
2, 3696, Note_off_c, 0, 52, 0
2, 3696, Note_on_c, 0, 50, 93
2, 3720, Note_off_c, 0, 50, 0
2, 3720, Note_on_c, 0, 52, 93
2, 3744, Note_off_c, 0, 52, 0
2, 3744, Note_on_c, 0, 53, 93
2, 3888, Note_off_c, 0, 53, 0
2, 3888, Note_on_c, 0, 52, 93
2, 3936, Note_off_c, 0, 52, 0
2, 3936, Note_on_c, 0, 50, 93
2, 3984, Note_off_c, 0, 50, 0
2, 3984, Note_on_c, 0, 48, 93
2, 4032, Note_off_c, 0, 48, 0
2, 4032, Note_on_c, 0, 46, 93
2, 4080, Note_off_c, 0, 46, 0
2, 4080, Note_on_c, 0, 55, 93
2, 4128, Note_off_c, 0, 55, 0
2, 4128, Note_on_c, 0, 53, 93
2, 4176, Note_off_c, 0, 53, 0
2, 4176, Note_on_c, 0, 52, 93
2, 4200, Note_off_c, 0, 52, 0
2, 4200, Note_on_c, 0, 53, 93
2, 4224, Note_off_c, 0, 53, 0
2, 4224, Note_on_c, 0, 55, 93
2, 4248, Note_off_c, 0, 55, 0
2, 4248, Note_on_c, 0, 57, 93
2, 4272, Note_off_c, 0, 57, 0
2, 4272, Note_on_c, 0, 58, 93
2, 4296, Note_off_c, 0, 58, 0
2, 4296, Note_on_c, 0, 50, 93
2, 4320, Note_off_c, 0, 50, 0
2, 4320, Note_on_c, 0, 49, 93
2, 4464, Note_off_c, 0, 49, 0
2, 4464, Note_on_c, 0, 47, 93
2, 4512, Note_off_c, 0, 47, 0
2, 4512, Note_on_c, 0, 45, 93
2, 4560, Note_off_c, 0, 45, 0
2, 4560, Note_on_c, 0, 43, 93
2, 4608, Note_off_c, 0, 43, 0
2, 4608, Note_on_c, 0, 50, 93
2, 4680, Note_off_c, 0, 50, 0
2, 4680, Note_on_c, 0, 52, 93
2, 4704, Note_off_c, 0, 52, 0
2, 4704, Note_on_c, 0, 52, 93
2, 4848, Note_off_c, 0, 52, 0
2, 4848, Note_on_c, 0, 50, 93
2, 4872, Note_off_c, 0, 50, 0
2, 4872, Note_on_c, 0, 52, 93
2, 4896, Note_off_c, 0, 52, 0
2, 4896, Note_on_c, 0, 53, 93
2, 5040, Note_off_c, 0, 53, 0
2, 5040, Note_on_c, 0, 50, 93
2, 5088, Note_off_c, 0, 50, 0
2, 5088, Note_on_c, 0, 52, 93
2, 5136, Note_off_c, 0, 52, 0
2, 5136, Note_on_c, 0, 53, 93
2, 5184, Note_off_c, 0, 53, 0
2, 5184, Note_on_c, 0, 55, 93
2, 5232, Note_off_c, 0, 55, 0
2, 5232, Note_on_c, 0, 58, 93
2, 5256, Note_off_c, 0, 58, 0
2, 5256, Note_on_c, 0, 57, 93
2, 5280, Note_off_c, 0, 57, 0
2, 5280, Note_on_c, 0, 60, 93
2, 5304, Note_off_c, 0, 60, 0
2, 5304, Note_on_c, 0, 58, 93
2, 5328, Note_off_c, 0, 58, 0
2, 5328, Note_on_c, 0, 57, 93
2, 5352, Note_off_c, 0, 57, 0
2, 5352, Note_on_c, 0, 55, 93
2, 5376, Note_off_c, 0, 55, 0
2, 5376, Note_on_c, 0, 62, 93
2, 5424, Note_off_c, 0, 62, 0
2, 5424, Note_on_c, 0, 53, 93
2, 5472, Note_off_c, 0, 53, 0
2, 5472, Note_on_c, 0, 52, 93
2, 5616, Note_off_c, 0, 52, 0
2, 5616, Note_on_c, 0, 50, 93
2, 5664, Note_off_c, 0, 50, 0
2, 5664, Note_on_c, 0, 48, 93
2, 5712, Note_off_c, 0, 48, 0
2, 5712, Note_on_c, 0, 46, 93
2, 5760, Note_off_c, 0, 46, 0
2, 5760, Note_on_c, 0, 45, 93
2, 5856, Note_off_c, 0, 45, 0
2, 5856, Note_on_c, 0, 50, 93
2, 6000, Note_off_c, 0, 50, 0
2, 6000, Note_on_c, 0, 55, 93
2, 6024, Note_off_c, 0, 55, 0
2, 6024, Note_on_c, 0, 53, 93
2, 6048, Note_off_c, 0, 53, 0
2, 6048, Note_on_c, 0, 55, 93
2, 6096, Note_off_c, 0, 55, 0
2, 6096, Note_on_c, 0, 57, 93
2, 6120, Note_off_c, 0, 57, 0
2, 6120, Note_on_c, 0, 58, 93
2, 6144, Note_off_c, 0, 58, 0
2, 6144, Note_on_c, 0, 58, 93
2, 6288, Note_off_c, 0, 58, 0
2, 6288, Note_on_c, 0, 60, 93
2, 6312, Note_off_c, 0, 60, 0
2, 6312, Note_on_c, 0, 62, 93
2, 6336, Note_off_c, 0, 62, 0
2, 6336, Note_on_c, 0, 52, 93
2, 6384, Note_off_c, 0, 52, 0
2, 6384, Note_on_c, 0, 53, 93
2, 6432, Note_off_c, 0, 53, 0
2, 6432, Note_on_c, 0, 36, 93
2, 6480, Note_off_c, 0, 36, 0
2, 6480, Note_on_c, 0, 43, 93
2, 6528, Note_off_c, 0, 43, 0
2, 6528, Note_on_c, 0, 53, 93
2, 6576, Note_off_c, 0, 53, 0
2, 6576, Note_on_c, 0, 52, 93
2, 6624, Note_off_c, 0, 52, 0
2, 6624, Note_on_c, 0, 53, 93
2, 6720, Note_off_c, 0, 53, 0
2, 6720, Note_on_c, 0, 41, 93
2, 6912, Note_off_c, 0, 41, 0
2, 6912, Note_on_c, 0, 57, 93
2, 7008, Note_off_c, 0, 57, 0
2, 7008, Note_on_c, 0, 57, 93
2, 7152, Note_off_c, 0, 57, 0
2, 7152, Note_on_c, 0, 58, 93
2, 7200, Note_off_c, 0, 58, 0
2, 7200, Note_on_c, 0, 60, 93
2, 7248, Note_off_c, 0, 60, 0
2, 7248, Note_on_c, 0, 58, 93
2, 7272, Note_off_c, 0, 58, 0
2, 7272, Note_on_c, 0, 55, 93
2, 7296, Note_off_c, 0, 55, 0
2, 7296, Note_on_c, 0, 54, 93
2, 7368, Note_off_c, 0, 54, 0
2, 7368, Note_on_c, 0, 51, 93
2, 7392, Note_off_c, 0, 51, 0
2, 7392, Note_on_c, 0, 50, 93
2, 7440, Note_off_c, 0, 50, 0
2, 7440, Note_on_c, 0, 48, 93
2, 7488, Note_off_c, 0, 48, 0
2, 7488, Note_on_c, 0, 46, 93
2, 7536, Note_off_c, 0, 46, 0
2, 7536, Note_on_c, 0, 55, 93
2, 7584, Note_off_c, 0, 55, 0
2, 7584, Note_on_c, 0, 45, 93
2, 7632, Note_off_c, 0, 45, 0
2, 7632, Note_on_c, 0, 54, 93
2, 7680, Note_off_c, 0, 54, 0
2, 7680, Note_on_c, 0, 63, 93
2, 7728, Note_off_c, 0, 63, 0
2, 7728, Note_on_c, 0, 62, 93
2, 7776, Note_off_c, 0, 62, 0
2, 7776, Note_on_c, 0, 58, 93
2, 7920, Note_off_c, 0, 58, 0
2, 7920, Note_on_c, 0, 57, 93
2, 7968, Note_off_c, 0, 57, 0
2, 7968, Note_on_c, 0, 55, 93
2, 8016, Note_off_c, 0, 55, 0
2, 8016, Note_on_c, 0, 53, 93
2, 8064, Note_off_c, 0, 53, 0
2, 8064, Note_on_c, 0, 52, 93
2, 8112, Note_off_c, 0, 52, 0
2, 8112, Note_on_c, 0, 46, 93
2, 8160, Note_off_c, 0, 46, 0
2, 8160, Note_on_c, 0, 45, 93
2, 8208, Note_off_c, 0, 45, 0
2, 8208, Note_on_c, 0, 53, 93
2, 8256, Note_off_c, 0, 53, 0
2, 8256, Note_on_c, 0, 55, 93
2, 8304, Note_off_c, 0, 55, 0
2, 8304, Note_on_c, 0, 57, 93
2, 8352, Note_off_c, 0, 57, 0
2, 8352, Note_on_c, 0, 50, 93
2, 8400, Note_off_c, 0, 50, 0
2, 8400, Note_on_c, 0, 44, 93
2, 8448, Note_off_c, 0, 44, 0
2, 8448, Note_on_c, 0, 43, 93
2, 8496, Note_off_c, 0, 43, 0
2, 8496, Note_on_c, 0, 51, 93
2, 8544, Note_off_c, 0, 51, 0
2, 8544, Note_on_c, 0, 53, 93
2, 8592, Note_off_c, 0, 53, 0
2, 8592, Note_on_c, 0, 55, 93
2, 8640, Note_off_c, 0, 55, 0
2, 8640, Note_on_c, 0, 49, 93
2, 8688, Note_off_c, 0, 49, 0
2, 8688, Note_on_c, 0, 58, 93
2, 8736, Note_off_c, 0, 58, 0
2, 8736, Note_on_c, 0, 57, 93
2, 8784, Note_off_c, 0, 57, 0
2, 8784, Note_on_c, 0, 55, 93
2, 8808, Note_off_c, 0, 55, 0
2, 8808, Note_on_c, 0, 53, 93
2, 8832, Note_off_c, 0, 53, 0
2, 8832, Note_on_c, 0, 52, 93
2, 8880, Note_off_c, 0, 52, 0
2, 8880, Note_on_c, 0, 53, 93
2, 8904, Note_off_c, 0, 53, 0
2, 8904, Note_on_c, 0, 50, 93
2, 8928, Note_off_c, 0, 50, 0
2, 8928, Note_on_c, 0, 49, 93
2, 8976, Note_off_c, 0, 49, 0
2, 8976, Note_on_c, 0, 52, 93
2, 9000, Note_off_c, 0, 52, 0
2, 9000, Note_on_c, 0, 57, 93
2, 9024, Note_off_c, 0, 57, 0
2, 9024, Note_on_c, 0, 45, 93
2, 9096, Note_off_c, 0, 45, 0
2, 9096, Note_on_c, 0, 55, 93
2, 9120, Note_off_c, 0, 55, 0
2, 9120, Note_on_c, 0, 53, 93
2, 9168, Note_off_c, 0, 53, 0
2, 9168, Note_on_c, 0, 52, 93
2, 9216, Note_off_c, 0, 52, 0
2, 9216, Note_on_c, 0, 50, 93
2, 9264, Note_off_c, 0, 50, 0
2, 9264, Note_on_c, 0, 52, 93
2, 9288, Note_off_c, 0, 52, 0
2, 9288, Note_on_c, 0, 53, 93
2, 9312, Note_off_c, 0, 53, 0
2, 9312, Note_on_c, 0, 53, 93
2, 9456, Note_off_c, 0, 53, 0
2, 9456, Note_on_c, 0, 52, 93
2, 9480, Note_off_c, 0, 52, 0
2, 9480, Note_on_c, 0, 50, 93
2, 9504, Note_off_c, 0, 50, 0
2, 9504, Note_on_c, 0, 52, 93
2, 9552, Note_off_c, 0, 52, 0
2, 9552, Note_on_c, 0, 53, 93
2, 9576, Note_off_c, 0, 53, 0
2, 9576, Note_on_c, 0, 55, 93
2, 9600, Note_off_c, 0, 55, 0
2, 9600, Note_on_c, 0, 55, 93
2, 9744, Note_off_c, 0, 55, 0
2, 9744, Note_on_c, 0, 57, 93
2, 9768, Note_off_c, 0, 57, 0
2, 9768, Note_on_c, 0, 58, 93
2, 9792, Note_off_c, 0, 58, 0
2, 9792, Note_on_c, 0, 57, 93
2, 9840, Note_off_c, 0, 57, 0
2, 9840, Note_on_c, 0, 61, 93
2, 9864, Note_off_c, 0, 61, 0
2, 9864, Note_on_c, 0, 62, 93
2, 9888, Note_off_c, 0, 62, 0
2, 9888, Note_on_c, 0, 50, 93
2, 9912, Note_off_c, 0, 50, 0
2, 9912, Note_on_c, 0, 52, 93
2, 9936, Note_off_c, 0, 52, 0
2, 9936, Note_on_c, 0, 53, 93
2, 9960, Note_off_c, 0, 53, 0
2, 9960, Note_on_c, 0, 55, 93
2, 9984, Note_off_c, 0, 55, 0
2, 9984, Note_on_c, 0, 53, 93
2, 10032, Note_off_c, 0, 53, 0
2, 10032, Note_on_c, 0, 52, 93
2, 10056, Note_off_c, 0, 52, 0
2, 10056, Note_on_c, 0, 50, 93
2, 10080, Note_off_c, 0, 50, 0
2, 10080, Note_on_c, 0, 50, 93
2, 10176, Note_off_c, 0, 50, 0
2, 10176, Note_on_c, 0, 38, 93
2, 10200, Note_off_c, 0, 38, 0
2, 10200, Note_on_c, 0, 45, 93
2, 10224, Note_off_c, 0, 45, 0
2, 10224, Note_on_c, 0, 47, 93
2, 10248, Note_off_c, 0, 47, 0
2, 10248, Note_on_c, 0, 49, 93
2, 10272, Note_off_c, 0, 49, 0
2, 10272, Note_on_c, 0, 50, 93
2, 10296, Note_off_c, 0, 50, 0
2, 10296, Note_on_c, 0, 52, 93
2, 10320, Note_off_c, 0, 52, 0
2, 10320, Note_on_c, 0, 53, 93
2, 10344, Note_off_c, 0, 53, 0
2, 10344, Note_on_c, 0, 55, 93
2, 10368, Note_off_c, 0, 55, 0
2, 10368, Note_on_c, 0, 57, 93
2, 10392, Note_off_c, 0, 57, 0
2, 10392, Note_on_c, 0, 59, 93
2, 10416, Note_off_c, 0, 59, 0
2, 10416, Note_on_c, 0, 60, 93
2, 10440, Note_off_c, 0, 60, 0
2, 10440, Note_on_c, 0, 59, 93
2, 10464, Note_off_c, 0, 59, 0
2, 10464, Note_on_c, 0, 60, 93
2, 10608, Note_off_c, 0, 60, 0
2, 10608, Note_on_c, 0, 59, 93
2, 10632, Note_off_c, 0, 59, 0
2, 10632, Note_on_c, 0, 57, 93
2, 10656, Note_off_c, 0, 57, 0
2, 10656, Note_on_c, 0, 59, 93
2, 10680, Note_off_c, 0, 59, 0
2, 10680, Note_on_c, 0, 61, 93
2, 10704, Note_off_c, 0, 61, 0
2, 10704, Note_on_c, 0, 62, 93
2, 10728, Note_off_c, 0, 62, 0
2, 10728, Note_on_c, 0, 61, 93
2, 10752, Note_off_c, 0, 61, 0
2, 10752, Note_on_c, 0, 62, 93
2, 10896, Note_off_c, 0, 62, 0
2, 10896, Note_on_c, 0, 64, 93
2, 10920, Note_off_c, 0, 64, 0
2, 10920, Note_on_c, 0, 65, 93
2, 10944, Note_off_c, 0, 65, 0
2, 10944, Note_on_c, 0, 62, 93
2, 10968, Note_off_c, 0, 62, 0
2, 10968, Note_on_c, 0, 61, 93
2, 10992, Note_off_c, 0, 61, 0
2, 10992, Note_on_c, 0, 62, 93
2, 11016, Note_off_c, 0, 62, 0
2, 11016, Note_on_c, 0, 53, 93
2, 11040, Note_off_c, 0, 53, 0
2, 11040, Note_on_c, 0, 45, 93
2, 11088, Note_off_c, 0, 45, 0
2, 11088, Note_on_c, 0, 52, 93
2, 11136, Note_off_c, 0, 52, 0
2, 11136, Note_on_c, 0, 62, 93
2, 11184, Note_off_c, 0, 62, 0
2, 11184, Note_on_c, 0, 61, 93
2, 11232, Note_off_c, 0, 61, 0
2, 11232, Note_on_c, 0, 62, 93
2, 11328, Note_off_c, 0, 62, 0
2, 11328, Note_on_c, 0, 38, 93
2, 11520, Note_off_c, 0, 38, 0
2, 11520, Note_on_c, 0, 57, 93
2, 11616, Note_off_c, 0, 57, 0
2, 11616, Note_on_c, 0, 57, 93
2, 11760, Note_off_c, 0, 57, 0
2, 11760, Note_on_c, 0, 58, 93
2, 11808, Note_off_c, 0, 58, 0
2, 11808, Note_on_c, 0, 60, 93
2, 11856, Note_off_c, 0, 60, 0
2, 11856, Note_on_c, 0, 58, 93
2, 11880, Note_off_c, 0, 58, 0
2, 11880, Note_on_c, 0, 55, 93
2, 11904, Note_off_c, 0, 55, 0
2, 11904, Note_on_c, 0, 54, 93
2, 11976, Note_off_c, 0, 54, 0
2, 11976, Note_on_c, 0, 51, 93
2, 12000, Note_off_c, 0, 51, 0
2, 12000, Note_on_c, 0, 50, 93
2, 12048, Note_off_c, 0, 50, 0
2, 12048, Note_on_c, 0, 48, 93
2, 12096, Note_off_c, 0, 48, 0
2, 12096, Note_on_c, 0, 46, 93
2, 12144, Note_off_c, 0, 46, 0
2, 12144, Note_on_c, 0, 55, 93
2, 12192, Note_off_c, 0, 55, 0
2, 12192, Note_on_c, 0, 45, 93
2, 12240, Note_off_c, 0, 45, 0
2, 12240, Note_on_c, 0, 54, 93
2, 12288, Note_off_c, 0, 54, 0
2, 12288, Note_on_c, 0, 63, 93
2, 12336, Note_off_c, 0, 63, 0
2, 12336, Note_on_c, 0, 62, 93
2, 12384, Note_off_c, 0, 62, 0
2, 12384, Note_on_c, 0, 58, 93
2, 12528, Note_off_c, 0, 58, 0
2, 12528, Note_on_c, 0, 57, 93
2, 12576, Note_off_c, 0, 57, 0
2, 12576, Note_on_c, 0, 55, 93
2, 12624, Note_off_c, 0, 55, 0
2, 12624, Note_on_c, 0, 53, 93
2, 12672, Note_off_c, 0, 53, 0
2, 12672, Note_on_c, 0, 52, 93
2, 12720, Note_off_c, 0, 52, 0
2, 12720, Note_on_c, 0, 46, 93
2, 12768, Note_off_c, 0, 46, 0
2, 12768, Note_on_c, 0, 45, 93
2, 12816, Note_off_c, 0, 45, 0
2, 12816, Note_on_c, 0, 53, 93
2, 12864, Note_off_c, 0, 53, 0
2, 12864, Note_on_c, 0, 55, 93
2, 12912, Note_off_c, 0, 55, 0
2, 12912, Note_on_c, 0, 57, 93
2, 12960, Note_off_c, 0, 57, 0
2, 12960, Note_on_c, 0, 50, 93
2, 13008, Note_off_c, 0, 50, 0
2, 13008, Note_on_c, 0, 44, 93
2, 13056, Note_off_c, 0, 44, 0
2, 13056, Note_on_c, 0, 43, 93
2, 13104, Note_off_c, 0, 43, 0
2, 13104, Note_on_c, 0, 51, 93
2, 13152, Note_off_c, 0, 51, 0
2, 13152, Note_on_c, 0, 53, 93
2, 13200, Note_off_c, 0, 53, 0
2, 13200, Note_on_c, 0, 55, 93
2, 13248, Note_off_c, 0, 55, 0
2, 13248, Note_on_c, 0, 49, 93
2, 13296, Note_off_c, 0, 49, 0
2, 13296, Note_on_c, 0, 58, 93
2, 13344, Note_off_c, 0, 58, 0
2, 13344, Note_on_c, 0, 57, 93
2, 13392, Note_off_c, 0, 57, 0
2, 13392, Note_on_c, 0, 55, 93
2, 13416, Note_off_c, 0, 55, 0
2, 13416, Note_on_c, 0, 53, 93
2, 13440, Note_off_c, 0, 53, 0
2, 13440, Note_on_c, 0, 52, 93
2, 13488, Note_off_c, 0, 52, 0
2, 13488, Note_on_c, 0, 53, 93
2, 13512, Note_off_c, 0, 53, 0
2, 13512, Note_on_c, 0, 50, 93
2, 13536, Note_off_c, 0, 50, 0
2, 13536, Note_on_c, 0, 49, 93
2, 13584, Note_off_c, 0, 49, 0
2, 13584, Note_on_c, 0, 52, 93
2, 13608, Note_off_c, 0, 52, 0
2, 13608, Note_on_c, 0, 57, 93
2, 13632, Note_off_c, 0, 57, 0
2, 13632, Note_on_c, 0, 45, 93
2, 13704, Note_off_c, 0, 45, 0
2, 13704, Note_on_c, 0, 55, 93
2, 13728, Note_off_c, 0, 55, 0
2, 13728, Note_on_c, 0, 53, 93
2, 13776, Note_off_c, 0, 53, 0
2, 13776, Note_on_c, 0, 52, 93
2, 13824, Note_off_c, 0, 52, 0
2, 13824, Note_on_c, 0, 50, 93
2, 13872, Note_off_c, 0, 50, 0
2, 13872, Note_on_c, 0, 52, 93
2, 13896, Note_off_c, 0, 52, 0
2, 13896, Note_on_c, 0, 53, 93
2, 13920, Note_off_c, 0, 53, 0
2, 13920, Note_on_c, 0, 53, 93
2, 14064, Note_off_c, 0, 53, 0
2, 14064, Note_on_c, 0, 52, 93
2, 14088, Note_off_c, 0, 52, 0
2, 14088, Note_on_c, 0, 50, 93
2, 14112, Note_off_c, 0, 50, 0
2, 14112, Note_on_c, 0, 52, 93
2, 14160, Note_off_c, 0, 52, 0
2, 14160, Note_on_c, 0, 53, 93
2, 14184, Note_off_c, 0, 53, 0
2, 14184, Note_on_c, 0, 55, 93
2, 14208, Note_off_c, 0, 55, 0
2, 14208, Note_on_c, 0, 55, 93
2, 14352, Note_off_c, 0, 55, 0
2, 14352, Note_on_c, 0, 57, 93
2, 14376, Note_off_c, 0, 57, 0
2, 14376, Note_on_c, 0, 58, 93
2, 14400, Note_off_c, 0, 58, 0
2, 14400, Note_on_c, 0, 57, 93
2, 14448, Note_off_c, 0, 57, 0
2, 14448, Note_on_c, 0, 61, 93
2, 14472, Note_off_c, 0, 61, 0
2, 14472, Note_on_c, 0, 62, 93
2, 14496, Note_off_c, 0, 62, 0
2, 14496, Note_on_c, 0, 50, 93
2, 14520, Note_off_c, 0, 50, 0
2, 14520, Note_on_c, 0, 52, 93
2, 14544, Note_off_c, 0, 52, 0
2, 14544, Note_on_c, 0, 53, 93
2, 14568, Note_off_c, 0, 53, 0
2, 14568, Note_on_c, 0, 55, 93
2, 14592, Note_off_c, 0, 55, 0
2, 14592, Note_on_c, 0, 53, 93
2, 14640, Note_off_c, 0, 53, 0
2, 14640, Note_on_c, 0, 52, 93
2, 14664, Note_off_c, 0, 52, 0
2, 14664, Note_on_c, 0, 50, 93
2, 14688, Note_off_c, 0, 50, 0
2, 14688, Note_on_c, 0, 50, 93
2, 14784, Note_off_c, 0, 50, 0
2, 14784, Note_on_c, 0, 38, 93
2, 14808, Note_off_c, 0, 38, 0
2, 14808, Note_on_c, 0, 45, 93
2, 14832, Note_off_c, 0, 45, 0
2, 14832, Note_on_c, 0, 47, 93
2, 14856, Note_off_c, 0, 47, 0
2, 14856, Note_on_c, 0, 49, 93
2, 14880, Note_off_c, 0, 49, 0
2, 14880, Note_on_c, 0, 50, 93
2, 14904, Note_off_c, 0, 50, 0
2, 14904, Note_on_c, 0, 52, 93
2, 14928, Note_off_c, 0, 52, 0
2, 14928, Note_on_c, 0, 53, 93
2, 14952, Note_off_c, 0, 53, 0
2, 14952, Note_on_c, 0, 55, 93
2, 14976, Note_off_c, 0, 55, 0
2, 14976, Note_on_c, 0, 57, 93
2, 15000, Note_off_c, 0, 57, 0
2, 15000, Note_on_c, 0, 59, 93
2, 15024, Note_off_c, 0, 59, 0
2, 15024, Note_on_c, 0, 60, 93
2, 15048, Note_off_c, 0, 60, 0
2, 15048, Note_on_c, 0, 59, 93
2, 15072, Note_off_c, 0, 59, 0
2, 15072, Note_on_c, 0, 60, 93
2, 15216, Note_off_c, 0, 60, 0
2, 15216, Note_on_c, 0, 59, 93
2, 15240, Note_off_c, 0, 59, 0
2, 15240, Note_on_c, 0, 57, 93
2, 15264, Note_off_c, 0, 57, 0
2, 15264, Note_on_c, 0, 59, 93
2, 15288, Note_off_c, 0, 59, 0
2, 15288, Note_on_c, 0, 61, 93
2, 15312, Note_off_c, 0, 61, 0
2, 15312, Note_on_c, 0, 62, 93
2, 15336, Note_off_c, 0, 62, 0
2, 15336, Note_on_c, 0, 61, 93
2, 15360, Note_off_c, 0, 61, 0
2, 15360, Note_on_c, 0, 62, 93
2, 15504, Note_off_c, 0, 62, 0
2, 15504, Note_on_c, 0, 64, 93
2, 15528, Note_off_c, 0, 64, 0
2, 15528, Note_on_c, 0, 65, 93
2, 15552, Note_off_c, 0, 65, 0
2, 15552, Note_on_c, 0, 62, 93
2, 15576, Note_off_c, 0, 62, 0
2, 15576, Note_on_c, 0, 61, 93
2, 15600, Note_off_c, 0, 61, 0
2, 15600, Note_on_c, 0, 62, 93
2, 15624, Note_off_c, 0, 62, 0
2, 15624, Note_on_c, 0, 53, 93
2, 15648, Note_off_c, 0, 53, 0
2, 15648, Note_on_c, 0, 45, 93
2, 15696, Note_off_c, 0, 45, 0
2, 15696, Note_on_c, 0, 52, 93
2, 15744, Note_off_c, 0, 52, 0
2, 15744, Note_on_c, 0, 62, 93
2, 15792, Note_off_c, 0, 62, 0
2, 15792, Note_on_c, 0, 61, 93
2, 15840, Note_off_c, 0, 61, 0
2, 15840, Note_on_c, 0, 62, 93
2, 15936, Note_off_c, 0, 62, 0
2, 15936, Note_on_c, 0, 38, 93
2, 16128, Note_off_c, 0, 38, 0
2, 16128, End_track
3, 0, Start_track
3, 0, Title_t, "Track3"
3, 0, Program_c, 1, 42
3, 0, Control_c, 1, 7, 100
3, 0, Control_c, 1, 10, 59
3, 0, Note_on_c, 1, 50, 93
3, 96, Note_off_c, 1, 50, 0
3, 96, Note_on_c, 1, 45, 93
3, 288, Note_off_c, 1, 45, 0
3, 288, Note_on_c, 1, 45, 93
3, 432, Note_off_c, 1, 45, 0
3, 1152, Note_on_c, 1, 45, 93
3, 1248, Note_off_c, 1, 45, 0
3, 1248, Note_on_c, 1, 45, 93
3, 1440, Note_off_c, 1, 45, 0
3, 1440, Note_on_c, 1, 45, 93
3, 1584, Note_off_c, 1, 45, 0
3, 2016, Note_on_c, 1, 43, 93
3, 2160, Note_off_c, 1, 43, 0
3, 2304, Note_on_c, 1, 53, 93
3, 2352, Note_off_c, 1, 53, 0
3, 2352, Note_on_c, 1, 55, 93
3, 2376, Note_off_c, 1, 55, 0
3, 2376, Note_on_c, 1, 57, 93
3, 2400, Note_off_c, 1, 57, 0
3, 2400, Note_on_c, 1, 57, 93
3, 2544, Note_off_c, 1, 57, 0
3, 2688, Note_on_c, 1, 53, 93
3, 2880, Note_off_c, 1, 53, 0
3, 3456, Note_on_c, 1, 50, 93
3, 3552, Note_off_c, 1, 50, 0
3, 3552, Note_on_c, 1, 45, 93
3, 3744, Note_off_c, 1, 45, 0
3, 3744, Note_on_c, 1, 45, 93
3, 3888, Note_off_c, 1, 45, 0
3, 4608, Note_on_c, 1, 45, 93
3, 4704, Note_off_c, 1, 45, 0
3, 4704, Note_on_c, 1, 45, 93
3, 4896, Note_off_c, 1, 45, 0
3, 4896, Note_on_c, 1, 45, 93
3, 5040, Note_off_c, 1, 45, 0
3, 5472, Note_on_c, 1, 43, 93
3, 5616, Note_off_c, 1, 43, 0
3, 5760, Note_on_c, 1, 53, 93
3, 5808, Note_off_c, 1, 53, 0
3, 5808, Note_on_c, 1, 55, 93
3, 5832, Note_off_c, 1, 55, 0
3, 5832, Note_on_c, 1, 57, 93
3, 5856, Note_off_c, 1, 57, 0
3, 5856, Note_on_c, 1, 57, 93
3, 6000, Note_off_c, 1, 57, 0
3, 6144, Note_on_c, 1, 53, 93
3, 6336, Note_off_c, 1, 53, 0
3, 6912, Note_on_c, 1, 53, 93
3, 6960, Note_off_c, 1, 53, 0
3, 6960, Note_on_c, 1, 51, 93
3, 7008, Note_off_c, 1, 51, 0
3, 7008, Note_on_c, 1, 51, 93
3, 7152, Note_off_c, 1, 51, 0
3, 7200, Note_on_c, 1, 50, 93
3, 7296, Note_off_c, 1, 50, 0
3, 7776, Note_on_c, 1, 50, 93
3, 7920, Note_off_c, 1, 50, 0
3, 9216, Note_on_c, 1, 46, 93
3, 9312, Note_off_c, 1, 46, 0
3, 9312, Note_on_c, 1, 43, 93
3, 9504, Note_off_c, 1, 43, 0
3, 9504, Note_on_c, 1, 43, 93
3, 9600, Note_off_c, 1, 43, 0
3, 9600, Note_on_c, 1, 37, 93
3, 9744, Note_off_c, 1, 37, 0
3, 9792, Note_on_c, 1, 41, 93
3, 9840, Note_off_c, 1, 41, 0
3, 10368, Note_on_c, 1, 53, 93
3, 10464, Note_off_c, 1, 53, 0
3, 10464, Note_on_c, 1, 54, 93
3, 10608, Note_off_c, 1, 54, 0
3, 10656, Note_on_c, 1, 50, 93
3, 10752, Note_off_c, 1, 50, 0
3, 10752, Note_on_c, 1, 56, 93
3, 10896, Note_off_c, 1, 56, 0
3, 11520, Note_on_c, 1, 53, 93
3, 11568, Note_off_c, 1, 53, 0
3, 11568, Note_on_c, 1, 51, 93
3, 11616, Note_off_c, 1, 51, 0
3, 11616, Note_on_c, 1, 51, 93
3, 11760, Note_off_c, 1, 51, 0
3, 11808, Note_on_c, 1, 50, 93
3, 11904, Note_off_c, 1, 50, 0
3, 12384, Note_on_c, 1, 50, 93
3, 12528, Note_off_c, 1, 50, 0
3, 13824, Note_on_c, 1, 46, 93
3, 13920, Note_off_c, 1, 46, 0
3, 13920, Note_on_c, 1, 43, 93
3, 14112, Note_off_c, 1, 43, 0
3, 14112, Note_on_c, 1, 43, 93
3, 14208, Note_off_c, 1, 43, 0
3, 14208, Note_on_c, 1, 37, 93
3, 14352, Note_off_c, 1, 37, 0
3, 14400, Note_on_c, 1, 41, 93
3, 14448, Note_off_c, 1, 41, 0
3, 14976, Note_on_c, 1, 53, 93
3, 15072, Note_off_c, 1, 53, 0
3, 15072, Note_on_c, 1, 54, 93
3, 15216, Note_off_c, 1, 54, 0
3, 15264, Note_on_c, 1, 50, 93
3, 15360, Note_off_c, 1, 50, 0
3, 15360, Note_on_c, 1, 56, 93
3, 15504, Note_off_c, 1, 56, 0
3, 15504, End_track
4, 0, Start_track
4, 0, Title_t, "Track4"
4, 0, Program_c, 2, 42
4, 0, Control_c, 2, 7, 100
4, 0, Control_c, 2, 10, 79
4, 288, Note_on_c, 2, 38, 93
4, 432, Note_off_c, 2, 38, 0
4, 1152, Note_on_c, 2, 41, 93
4, 1248, Note_off_c, 2, 41, 0
4, 1440, Note_on_c, 2, 38, 93
4, 1584, Note_off_c, 2, 38, 0
4, 2016, Note_on_c, 2, 36, 93
4, 2160, Note_off_c, 2, 36, 0
4, 2400, Note_on_c, 2, 46, 93
4, 2544, Note_off_c, 2, 46, 0
4, 2592, Note_on_c, 2, 46, 93
4, 2688, Note_off_c, 2, 46, 0
4, 2688, Note_on_c, 2, 43, 93
4, 2880, Note_off_c, 2, 43, 0
4, 3744, Note_on_c, 2, 38, 93
4, 3888, Note_off_c, 2, 38, 0
4, 4608, Note_on_c, 2, 41, 93
4, 4704, Note_off_c, 2, 41, 0
4, 4896, Note_on_c, 2, 38, 93
4, 5040, Note_off_c, 2, 38, 0
4, 5472, Note_on_c, 2, 36, 93
4, 5616, Note_off_c, 2, 36, 0
4, 5856, Note_on_c, 2, 46, 93
4, 6000, Note_off_c, 2, 46, 0
4, 6048, Note_on_c, 2, 46, 93
4, 6144, Note_off_c, 2, 46, 0
4, 6144, Note_on_c, 2, 43, 93
4, 6336, Note_off_c, 2, 43, 0
4, 7776, Note_on_c, 2, 43, 93
4, 7920, Note_off_c, 2, 43, 0
4, 9600, Note_on_c, 2, 46, 93
4, 9744, Note_off_c, 2, 46, 0
4, 9792, Note_on_c, 2, 50, 93
4, 9840, Note_off_c, 2, 50, 0
4, 9888, Note_on_c, 2, 50, 0
4, 9936, Note_off_c, 2, 50, 0
4, 9936, Note_on_c, 2, 52, 0
4, 9960, Note_off_c, 2, 52, 0
4, 9960, Note_on_c, 2, 53, 0
4, 9972, Note_off_c, 2, 53, 0
4, 9972, Note_on_c, 2, 55, 0
4, 9984, Note_off_c, 2, 55, 0
4, 10656, Note_on_c, 2, 43, 93
4, 10752, Note_off_c, 2, 43, 0
4, 12384, Note_on_c, 2, 43, 93
4, 12528, Note_off_c, 2, 43, 0
4, 14208, Note_on_c, 2, 46, 93
4, 14352, Note_off_c, 2, 46, 0
4, 14400, Note_on_c, 2, 50, 93
4, 14448, Note_off_c, 2, 50, 0
4, 14496, Note_on_c, 2, 50, 0
4, 14544, Note_off_c, 2, 50, 0
4, 14544, Note_on_c, 2, 52, 0
4, 14568, Note_off_c, 2, 52, 0
4, 14568, Note_on_c, 2, 53, 0
4, 14580, Note_off_c, 2, 53, 0
4, 14580, Note_on_c, 2, 55, 0
4, 14592, Note_off_c, 2, 55, 0
4, 15264, Note_on_c, 2, 43, 93
4, 15360, Note_off_c, 2, 43, 0
4, 15360, End_track
5, 0, Start_track
5, 0, Title_t, "Track5"
5, 0, Program_c, 3, 42
5, 0, Control_c, 3, 7, 100
5, 0, Control_c, 3, 10, 49
5, 9792, Note_on_c, 3, 45, 93
5, 9840, Note_off_c, 3, 45, 0
5, 9936, Note_on_c, 3, 43, 93
5, 9984, Note_off_c, 3, 43, 0
5, 9984, Note_on_c, 3, 45, 93
5, 10080, Note_off_c, 3, 45, 0
5, 14400, Note_on_c, 3, 45, 93
5, 14448, Note_off_c, 3, 45, 0
5, 14544, Note_on_c, 3, 43, 93
5, 14592, Note_off_c, 3, 43, 0
5, 14592, Note_on_c, 3, 45, 93
5, 14688, Note_off_c, 3, 45, 0
5, 14688, End_track
0, 0, End_of_file
