0, 0, Header, 1, 5, 96
1, 0, Start_track
1, 0, Time_signature, 4, 2, 24, 8
1, 0, Title_t, "untitled"
1, 0, Title_t, "Track1"
1, 0, Tempo, 240000
1, 96, Tempo, 550458
1, 31104, Tempo, 1090909
1, 31104, End_track
2, 0, Start_track
2, 0, Title_t, "Track2"
2, 0, Program_c, 0, 42
2, 0, Control_c, 0, 7, 100
2, 0, Control_c, 0, 10, 64
2, 96, Note_on_c, 0, 55, 93
2, 144, Note_off_c, 0, 55, 0
2, 144, Note_on_c, 0, 60, 93
2, 192, Note_off_c, 0, 60, 0
2, 192, Note_on_c, 0, 48, 93
2, 216, Note_off_c, 0, 48, 0
2, 216, Note_on_c, 0, 50, 93
2, 240, Note_off_c, 0, 50, 0
2, 240, Note_on_c, 0, 52, 93
2, 264, Note_off_c, 0, 52, 0
2, 264, Note_on_c, 0, 53, 93
2, 288, Note_off_c, 0, 53, 0
2, 288, Note_on_c, 0, 55, 93
2, 336, Note_off_c, 0, 55, 0
2, 336, Note_on_c, 0, 57, 93
2, 384, Note_off_c, 0, 57, 0
2, 384, Note_on_c, 0, 59, 93
2, 432, Note_off_c, 0, 59, 0
2, 432, Note_on_c, 0, 60, 93
2, 480, Note_off_c, 0, 60, 0
2, 480, Note_on_c, 0, 55, 93
2, 528, Note_off_c, 0, 55, 0
2, 528, Note_on_c, 0, 64, 93
2, 576, Note_off_c, 0, 64, 0
2, 576, Note_on_c, 0, 60, 93
2, 624, Note_off_c, 0, 60, 0
2, 624, Note_on_c, 0, 55, 93
2, 672, Note_off_c, 0, 55, 0
2, 672, Note_on_c, 0, 64, 93
2, 720, Note_off_c, 0, 64, 0
2, 720, Note_on_c, 0, 62, 93
2, 744, Note_off_c, 0, 62, 0
2, 744, Note_on_c, 0, 60, 93
2, 768, Note_off_c, 0, 60, 0
2, 768, Note_on_c, 0, 62, 93
2, 792, Note_off_c, 0, 62, 0
2, 792, Note_on_c, 0, 64, 93
2, 816, Note_off_c, 0, 64, 0
2, 816, Note_on_c, 0, 65, 93
2, 864, Note_off_c, 0, 65, 0
2, 864, Note_on_c, 0, 59, 93
2, 912, Note_off_c, 0, 59, 0
2, 912, Note_on_c, 0, 60, 93
2, 960, Note_off_c, 0, 60, 0
2, 960, Note_on_c, 0, 52, 93
2, 1008, Note_off_c, 0, 52, 0
2, 1008, Note_on_c, 0, 43, 93
2, 1056, Note_off_c, 0, 43, 0
2, 1056, Note_on_c, 0, 50, 93
2, 1104, Note_off_c, 0, 50, 0
2, 1104, Note_on_c, 0, 60, 93
2, 1152, Note_off_c, 0, 60, 0
2, 1152, Note_on_c, 0, 59, 93
2, 1200, Note_off_c, 0, 59, 0
2, 1200, Note_on_c, 0, 55, 93
2, 1248, Note_off_c, 0, 55, 0
2, 1248, Note_on_c, 0, 62, 93
2, 1296, Note_off_c, 0, 62, 0
2, 1296, Note_on_c, 0, 62, 93
2, 1344, Note_off_c, 0, 62, 0
2, 1344, Note_on_c, 0, 54, 93
2, 1392, Note_off_c, 0, 54, 0
2, 1392, Note_on_c, 0, 55, 93
2, 1440, Note_off_c, 0, 55, 0
2, 1440, Note_on_c, 0, 52, 93
2, 1488, Note_off_c, 0, 52, 0
2, 1488, Note_on_c, 0, 64, 93
2, 1512, Note_off_c, 0, 64, 0
2, 1512, Note_on_c, 0, 62, 93
2, 1536, Note_off_c, 0, 62, 0
2, 1536, Note_on_c, 0, 60, 93
2, 1560, Note_off_c, 0, 60, 0
2, 1560, Note_on_c, 0, 59, 93
2, 1584, Note_off_c, 0, 59, 0
2, 1584, Note_on_c, 0, 60, 93
2, 1632, Note_off_c, 0, 60, 0
2, 1632, Note_on_c, 0, 45, 93
2, 1656, Note_off_c, 0, 45, 0
2, 1656, Note_on_c, 0, 47, 93
2, 1680, Note_off_c, 0, 47, 0
2, 1680, Note_on_c, 0, 48, 93
2, 1704, Note_off_c, 0, 48, 0
2, 1704, Note_on_c, 0, 50, 93
2, 1728, Note_off_c, 0, 50, 0
2, 1728, Note_on_c, 0, 52, 93
2, 1776, Note_off_c, 0, 52, 0
2, 1776, Note_on_c, 0, 45, 93
2, 1824, Note_off_c, 0, 45, 0
2, 1824, Note_on_c, 0, 60, 93
2, 1872, Note_off_c, 0, 60, 0
2, 1872, Note_on_c, 0, 60, 93
2, 1920, Note_off_c, 0, 60, 0
2, 1920, Note_on_c, 0, 52, 93
2, 1968, Note_off_c, 0, 52, 0
2, 1968, Note_on_c, 0, 54, 93
2, 2016, Note_off_c, 0, 54, 0
2, 2016, Note_on_c, 0, 50, 93
2, 2064, Note_off_c, 0, 50, 0
2, 2064, Note_on_c, 0, 62, 93
2, 2088, Note_off_c, 0, 62, 0
2, 2088, Note_on_c, 0, 60, 93
2, 2112, Note_off_c, 0, 60, 0
2, 2112, Note_on_c, 0, 59, 93
2, 2136, Note_off_c, 0, 59, 0
2, 2136, Note_on_c, 0, 57, 93
2, 2160, Note_off_c, 0, 57, 0
2, 2160, Note_on_c, 0, 59, 93
2, 2208, Note_off_c, 0, 59, 0
2, 2208, Note_on_c, 0, 43, 93
2, 2232, Note_off_c, 0, 43, 0
2, 2232, Note_on_c, 0, 45, 93
2, 2256, Note_off_c, 0, 45, 0
2, 2256, Note_on_c, 0, 47, 93
2, 2280, Note_off_c, 0, 47, 0
2, 2280, Note_on_c, 0, 48, 93
2, 2304, Note_off_c, 0, 48, 0
2, 2304, Note_on_c, 0, 50, 93
2, 2352, Note_off_c, 0, 50, 0
2, 2352, Note_on_c, 0, 43, 93
2, 2400, Note_off_c, 0, 43, 0
2, 2400, Note_on_c, 0, 59, 93
2, 2448, Note_off_c, 0, 59, 0
2, 2448, Note_on_c, 0, 59, 93
2, 2496, Note_off_c, 0, 59, 0
2, 2496, Note_on_c, 0, 50, 93
2, 2544, Note_off_c, 0, 50, 0
2, 2544, Note_on_c, 0, 52, 93
2, 2592, Note_off_c, 0, 52, 0
2, 2592, Note_on_c, 0, 48, 93
2, 2640, Note_off_c, 0, 48, 0
2, 2640, Note_on_c, 0, 60, 93
2, 2664, Note_off_c, 0, 60, 0
2, 2664, Note_on_c, 0, 59, 93
2, 2688, Note_off_c, 0, 59, 0
2, 2688, Note_on_c, 0, 57, 93
2, 2712, Note_off_c, 0, 57, 0
2, 2712, Note_on_c, 0, 55, 93
2, 2736, Note_off_c, 0, 55, 0
2, 2736, Note_on_c, 0, 54, 93
2, 2760, Note_off_c, 0, 54, 0
2, 2760, Note_on_c, 0, 57, 93
2, 2784, Note_off_c, 0, 57, 0
2, 2784, Note_on_c, 0, 55, 93
2, 2808, Note_off_c, 0, 55, 0
2, 2808, Note_on_c, 0, 54, 93
2, 2832, Note_off_c, 0, 54, 0
2, 2832, Note_on_c, 0, 52, 93
2, 2856, Note_off_c, 0, 52, 0
2, 2856, Note_on_c, 0, 50, 93
2, 2880, Note_off_c, 0, 50, 0
2, 2880, Note_on_c, 0, 50, 93
2, 2976, Note_off_c, 0, 50, 0
2, 2976, Note_on_c, 0, 50, 93
2, 3024, Note_off_c, 0, 50, 0
2, 3024, Note_on_c, 0, 48, 93
2, 3048, Note_off_c, 0, 48, 0
2, 3072, Note_on_c, 0, 47, 93
2, 3096, Note_off_c, 0, 47, 0
2, 3120, Note_on_c, 0, 45, 93
2, 3144, Note_off_c, 0, 45, 0
2, 3168, Note_on_c, 0, 47, 93
2, 3192, Note_off_c, 0, 47, 0
2, 3216, Note_on_c, 0, 45, 93
2, 3240, Note_off_c, 0, 45, 0
2, 3264, Note_on_c, 0, 47, 93
2, 3288, Note_off_c, 0, 47, 0
2, 3312, Note_on_c, 0, 48, 93
2, 3336, Note_off_c, 0, 48, 0
2, 3360, Note_on_c, 0, 47, 93
2, 3384, Note_off_c, 0, 47, 0
2, 3408, Note_on_c, 0, 45, 93
2, 3432, Note_off_c, 0, 45, 0
2, 3456, Note_on_c, 0, 47, 93
2, 3480, Note_off_c, 0, 47, 0
2, 3504, Note_on_c, 0, 45, 93
2, 3528, Note_off_c, 0, 45, 0
2, 3552, Note_on_c, 0, 43, 93
2, 3576, Note_off_c, 0, 43, 0
2, 3600, Note_on_c, 0, 53, 93
2, 3624, Note_off_c, 0, 53, 0
2, 3648, Note_on_c, 0, 52, 93
2, 3672, Note_off_c, 0, 52, 0
2, 3696, Note_on_c, 0, 50, 93
2, 3720, Note_off_c, 0, 50, 0
2, 3744, Note_on_c, 0, 52, 93
2, 3768, Note_off_c, 0, 52, 0
2, 3792, Note_on_c, 0, 50, 93
2, 3816, Note_off_c, 0, 50, 0
2, 3840, Note_on_c, 0, 52, 93
2, 3864, Note_off_c, 0, 52, 0
2, 3888, Note_on_c, 0, 53, 93
2, 3912, Note_off_c, 0, 53, 0
2, 3936, Note_on_c, 0, 52, 93
2, 3960, Note_off_c, 0, 52, 0
2, 3984, Note_on_c, 0, 50, 93
2, 4008, Note_off_c, 0, 50, 0
2, 4032, Note_on_c, 0, 52, 93
2, 4056, Note_off_c, 0, 52, 0
2, 4080, Note_on_c, 0, 54, 93
2, 4104, Note_off_c, 0, 54, 0
2, 4128, Note_on_c, 0, 55, 93
2, 4152, Note_off_c, 0, 55, 0
2, 4176, Note_on_c, 0, 54, 93
2, 4200, Note_off_c, 0, 54, 0
2, 4224, Note_on_c, 0, 55, 93
2, 4248, Note_off_c, 0, 55, 0
2, 4272, Note_on_c, 0, 57, 93
2, 4296, Note_off_c, 0, 57, 0
2, 4320, Note_on_c, 0, 55, 93
2, 4344, Note_off_c, 0, 55, 0
2, 4368, Note_on_c, 0, 57, 93
2, 4392, Note_off_c, 0, 57, 0
2, 4416, Note_on_c, 0, 59, 93
2, 4440, Note_off_c, 0, 59, 0
2, 4464, Note_on_c, 0, 57, 93
2, 4488, Note_off_c, 0, 57, 0
2, 4512, Note_on_c, 0, 59, 93
2, 4536, Note_off_c, 0, 59, 0
2, 4560, Note_on_c, 0, 60, 93
2, 4608, Note_off_c, 0, 60, 0
2, 4608, Note_on_c, 0, 50, 93
2, 4704, Note_off_c, 0, 50, 0
2, 4704, Note_on_c, 0, 57, 93
2, 4752, Note_off_c, 0, 57, 0
2, 4752, Note_on_c, 0, 60, 93
2, 4776, Note_off_c, 0, 60, 0
2, 4776, Note_on_c, 0, 62, 93
2, 4800, Note_off_c, 0, 62, 0
2, 4800, Note_on_c, 0, 63, 93
2, 4848, Note_off_c, 0, 63, 0
2, 4848, Note_on_c, 0, 62, 93
2, 4896, Note_off_c, 0, 62, 0
2, 4896, Note_on_c, 0, 60, 93
2, 4944, Note_off_c, 0, 60, 0
2, 4944, Note_on_c, 0, 58, 93
2, 4992, Note_off_c, 0, 58, 0
2, 4992, Note_on_c, 0, 57, 93
2, 5040, Note_off_c, 0, 57, 0
2, 5040, Note_on_c, 0, 66, 93
2, 5088, Note_off_c, 0, 66, 0
2, 5088, Note_on_c, 0, 67, 93
2, 5136, Note_off_c, 0, 67, 0
2, 5136, Note_on_c, 0, 57, 93
2, 5184, Note_off_c, 0, 57, 0
2, 5184, Note_on_c, 0, 66, 93
2, 5232, Note_off_c, 0, 66, 0
2, 5232, Note_on_c, 0, 67, 93
2, 5280, Note_off_c, 0, 67, 0
2, 5280, Note_on_c, 0, 57, 93
2, 5328, Note_off_c, 0, 57, 0
2, 5328, Note_on_c, 0, 60, 93
2, 5352, Note_off_c, 0, 60, 0
2, 5352, Note_on_c, 0, 62, 93
2, 5376, Note_off_c, 0, 62, 0
2, 5376, Note_on_c, 0, 63, 93
2, 5424, Note_off_c, 0, 63, 0
2, 5424, Note_on_c, 0, 62, 93
2, 5472, Note_off_c, 0, 62, 0
2, 5472, Note_on_c, 0, 60, 93
2, 5520, Note_off_c, 0, 60, 0
2, 5520, Note_on_c, 0, 58, 93
2, 5568, Note_off_c, 0, 58, 0
2, 5568, Note_on_c, 0, 57, 93
2, 5616, Note_off_c, 0, 57, 0
2, 5616, Note_on_c, 0, 61, 93
2, 5664, Note_off_c, 0, 61, 0
2, 5664, Note_on_c, 0, 62, 93
2, 5712, Note_off_c, 0, 62, 0
2, 5712, Note_on_c, 0, 57, 93
2, 5760, Note_off_c, 0, 57, 0
2, 5760, Note_on_c, 0, 61, 93
2, 5808, Note_off_c, 0, 61, 0
2, 5808, Note_on_c, 0, 62, 93
2, 5856, Note_off_c, 0, 62, 0
2, 5856, Note_on_c, 0, 50, 93
2, 5904, Note_off_c, 0, 50, 0
2, 5904, Note_on_c, 0, 43, 93
2, 5928, Note_off_c, 0, 43, 0
2, 5928, Note_on_c, 0, 47, 93
2, 5952, Note_off_c, 0, 47, 0
2, 5952, Note_on_c, 0, 50, 93
2, 6000, Note_off_c, 0, 50, 0
2, 6000, Note_on_c, 0, 52, 93
2, 6048, Note_off_c, 0, 52, 0
2, 6048, Note_on_c, 0, 45, 93
2, 6072, Note_off_c, 0, 45, 0
2, 6072, Note_on_c, 0, 48, 93
2, 6096, Note_off_c, 0, 48, 0
2, 6096, Note_on_c, 0, 52, 93
2, 6144, Note_off_c, 0, 52, 0
2, 6144, Note_on_c, 0, 54, 93
2, 6192, Note_off_c, 0, 54, 0
2, 6192, Note_on_c, 0, 47, 93
2, 6216, Note_off_c, 0, 47, 0
2, 6216, Note_on_c, 0, 50, 93
2, 6240, Note_off_c, 0, 50, 0
2, 6240, Note_on_c, 0, 55, 93
2, 6264, Note_off_c, 0, 55, 0
2, 6264, Note_on_c, 0, 52, 93
2, 6288, Note_off_c, 0, 52, 0
2, 6288, Note_on_c, 0, 53, 93
2, 6312, Note_off_c, 0, 53, 0
2, 6312, Note_on_c, 0, 50, 93
2, 6336, Note_off_c, 0, 50, 0
2, 6336, Note_on_c, 0, 48, 93
2, 6360, Note_off_c, 0, 48, 0
2, 6360, Note_on_c, 0, 52, 93
2, 6384, Note_off_c, 0, 52, 0
2, 6384, Note_on_c, 0, 57, 93
2, 6408, Note_off_c, 0, 57, 0
2, 6408, Note_on_c, 0, 59, 93
2, 6432, Note_off_c, 0, 59, 0
2, 6432, Note_on_c, 0, 60, 93
2, 6456, Note_off_c, 0, 60, 0
2, 6456, Note_on_c, 0, 57, 93
2, 6480, Note_off_c, 0, 57, 0
2, 6480, Note_on_c, 0, 62, 93
2, 6504, Note_off_c, 0, 62, 0
2, 6504, Note_on_c, 0, 57, 93
2, 6528, Note_off_c, 0, 57, 0
2, 6528, Note_on_c, 0, 54, 93
2, 6552, Note_off_c, 0, 54, 0
2, 6552, Note_on_c, 0, 52, 93
2, 6576, Note_off_c, 0, 52, 0
2, 6576, Note_on_c, 0, 50, 93
2, 6600, Note_off_c, 0, 50, 0
2, 6600, Note_on_c, 0, 48, 93
2, 6624, Note_off_c, 0, 48, 0
2, 6624, Note_on_c, 0, 47, 93
2, 6648, Note_off_c, 0, 47, 0
2, 6648, Note_on_c, 0, 50, 93
2, 6672, Note_off_c, 0, 50, 0
2, 6672, Note_on_c, 0, 55, 93
2, 6696, Note_off_c, 0, 55, 0
2, 6696, Note_on_c, 0, 47, 93
2, 6720, Note_off_c, 0, 47, 0
2, 6720, Note_on_c, 0, 45, 93
2, 6744, Note_off_c, 0, 45, 0
2, 6744, Note_on_c, 0, 54, 93
2, 6768, Note_off_c, 0, 54, 0
2, 6768, Note_on_c, 0, 55, 93
2, 6816, Note_off_c, 0, 55, 0
2, 6816, Note_on_c, 0, 50, 93
2, 6864, Note_off_c, 0, 50, 0
2, 6864, Note_on_c, 0, 47, 93
2, 6912, Note_off_c, 0, 47, 0
2, 6912, Note_on_c, 0, 43, 93
2, 7008, Note_off_c, 0, 43, 0
2, 7008, Note_on_c, 0, 55, 93
2, 7056, Note_off_c, 0, 55, 0
2, 7056, Note_on_c, 0, 60, 93
2, 7104, Note_off_c, 0, 60, 0
2, 7104, Note_on_c, 0, 48, 93
2, 7128, Note_off_c, 0, 48, 0
2, 7128, Note_on_c, 0, 50, 93
2, 7152, Note_off_c, 0, 50, 0
2, 7152, Note_on_c, 0, 52, 93
2, 7176, Note_off_c, 0, 52, 0
2, 7176, Note_on_c, 0, 53, 93
2, 7200, Note_off_c, 0, 53, 0
2, 7200, Note_on_c, 0, 55, 93
2, 7248, Note_off_c, 0, 55, 0
2, 7248, Note_on_c, 0, 57, 93
2, 7296, Note_off_c, 0, 57, 0
2, 7296, Note_on_c, 0, 59, 93
2, 7344, Note_off_c, 0, 59, 0
2, 7344, Note_on_c, 0, 60, 93
2, 7392, Note_off_c, 0, 60, 0
2, 7392, Note_on_c, 0, 55, 93
2, 7440, Note_off_c, 0, 55, 0
2, 7440, Note_on_c, 0, 64, 93
2, 7488, Note_off_c, 0, 64, 0
2, 7488, Note_on_c, 0, 60, 93
2, 7536, Note_off_c, 0, 60, 0
2, 7536, Note_on_c, 0, 55, 93
2, 7584, Note_off_c, 0, 55, 0
2, 7584, Note_on_c, 0, 64, 93
2, 7632, Note_off_c, 0, 64, 0
2, 7632, Note_on_c, 0, 62, 93
2, 7656, Note_off_c, 0, 62, 0
2, 7656, Note_on_c, 0, 60, 93
2, 7680, Note_off_c, 0, 60, 0
2, 7680, Note_on_c, 0, 62, 93
2, 7704, Note_off_c, 0, 62, 0
2, 7704, Note_on_c, 0, 64, 93
2, 7728, Note_off_c, 0, 64, 0
2, 7728, Note_on_c, 0, 65, 93
2, 7776, Note_off_c, 0, 65, 0
2, 7776, Note_on_c, 0, 59, 93
2, 7824, Note_off_c, 0, 59, 0
2, 7824, Note_on_c, 0, 60, 93
2, 7872, Note_off_c, 0, 60, 0
2, 7872, Note_on_c, 0, 52, 93
2, 7920, Note_off_c, 0, 52, 0
2, 7920, Note_on_c, 0, 43, 93
2, 7968, Note_off_c, 0, 43, 0
2, 7968, Note_on_c, 0, 50, 93
2, 8016, Note_off_c, 0, 50, 0
2, 8016, Note_on_c, 0, 60, 93
2, 8064, Note_off_c, 0, 60, 0
2, 8064, Note_on_c, 0, 59, 93
2, 8112, Note_off_c, 0, 59, 0
2, 8112, Note_on_c, 0, 55, 93
2, 8160, Note_off_c, 0, 55, 0
2, 8160, Note_on_c, 0, 62, 93
2, 8208, Note_off_c, 0, 62, 0
2, 8208, Note_on_c, 0, 62, 93
2, 8256, Note_off_c, 0, 62, 0
2, 8256, Note_on_c, 0, 54, 93
2, 8304, Note_off_c, 0, 54, 0
2, 8304, Note_on_c, 0, 55, 93
2, 8352, Note_off_c, 0, 55, 0
2, 8352, Note_on_c, 0, 52, 93
2, 8400, Note_off_c, 0, 52, 0
2, 8400, Note_on_c, 0, 64, 93
2, 8424, Note_off_c, 0, 64, 0
2, 8424, Note_on_c, 0, 62, 93
2, 8448, Note_off_c, 0, 62, 0
2, 8448, Note_on_c, 0, 60, 93
2, 8472, Note_off_c, 0, 60, 0
2, 8472, Note_on_c, 0, 59, 93
2, 8496, Note_off_c, 0, 59, 0
2, 8496, Note_on_c, 0, 60, 93
2, 8544, Note_off_c, 0, 60, 0
2, 8544, Note_on_c, 0, 45, 93
2, 8568, Note_off_c, 0, 45, 0
2, 8568, Note_on_c, 0, 47, 93
2, 8592, Note_off_c, 0, 47, 0
2, 8592, Note_on_c, 0, 48, 93
2, 8616, Note_off_c, 0, 48, 0
2, 8616, Note_on_c, 0, 50, 93
2, 8640, Note_off_c, 0, 50, 0
2, 8640, Note_on_c, 0, 52, 93
2, 8688, Note_off_c, 0, 52, 0
2, 8688, Note_on_c, 0, 45, 93
2, 8736, Note_off_c, 0, 45, 0
2, 8736, Note_on_c, 0, 60, 93
2, 8784, Note_off_c, 0, 60, 0
2, 8784, Note_on_c, 0, 60, 93
2, 8832, Note_off_c, 0, 60, 0
2, 8832, Note_on_c, 0, 52, 93
2, 8880, Note_off_c, 0, 52, 0
2, 8880, Note_on_c, 0, 54, 93
2, 8928, Note_off_c, 0, 54, 0
2, 8928, Note_on_c, 0, 50, 93
2, 8976, Note_off_c, 0, 50, 0
2, 8976, Note_on_c, 0, 62, 93
2, 9000, Note_off_c, 0, 62, 0
2, 9000, Note_on_c, 0, 60, 93
2, 9024, Note_off_c, 0, 60, 0
2, 9024, Note_on_c, 0, 59, 93
2, 9048, Note_off_c, 0, 59, 0
2, 9048, Note_on_c, 0, 57, 93
2, 9072, Note_off_c, 0, 57, 0
2, 9072, Note_on_c, 0, 59, 93
2, 9120, Note_off_c, 0, 59, 0
2, 9120, Note_on_c, 0, 43, 93
2, 9144, Note_off_c, 0, 43, 0
2, 9144, Note_on_c, 0, 45, 93
2, 9168, Note_off_c, 0, 45, 0
2, 9168, Note_on_c, 0, 47, 93
2, 9192, Note_off_c, 0, 47, 0
2, 9192, Note_on_c, 0, 48, 93
2, 9216, Note_off_c, 0, 48, 0
2, 9216, Note_on_c, 0, 50, 93
2, 9264, Note_off_c, 0, 50, 0
2, 9264, Note_on_c, 0, 43, 93
2, 9312, Note_off_c, 0, 43, 0
2, 9312, Note_on_c, 0, 59, 93
2, 9360, Note_off_c, 0, 59, 0
2, 9360, Note_on_c, 0, 59, 93
2, 9408, Note_off_c, 0, 59, 0
2, 9408, Note_on_c, 0, 50, 93
2, 9456, Note_off_c, 0, 50, 0
2, 9456, Note_on_c, 0, 52, 93
2, 9504, Note_off_c, 0, 52, 0
2, 9504, Note_on_c, 0, 48, 93
2, 9552, Note_off_c, 0, 48, 0
2, 9552, Note_on_c, 0, 60, 93
2, 9576, Note_off_c, 0, 60, 0
2, 9576, Note_on_c, 0, 59, 93
2, 9600, Note_off_c, 0, 59, 0
2, 9600, Note_on_c, 0, 57, 93
2, 9624, Note_off_c, 0, 57, 0
2, 9624, Note_on_c, 0, 55, 93
2, 9648, Note_off_c, 0, 55, 0
2, 9648, Note_on_c, 0, 54, 93
2, 9672, Note_off_c, 0, 54, 0
2, 9672, Note_on_c, 0, 57, 93
2, 9696, Note_off_c, 0, 57, 0
2, 9696, Note_on_c, 0, 55, 93
2, 9720, Note_off_c, 0, 55, 0
2, 9720, Note_on_c, 0, 54, 93
2, 9744, Note_off_c, 0, 54, 0
2, 9744, Note_on_c, 0, 52, 93
2, 9768, Note_off_c, 0, 52, 0
2, 9768, Note_on_c, 0, 50, 93
2, 9792, Note_off_c, 0, 50, 0
2, 9792, Note_on_c, 0, 50, 93
2, 9888, Note_off_c, 0, 50, 0
2, 9888, Note_on_c, 0, 50, 93
2, 9936, Note_off_c, 0, 50, 0
2, 9936, Note_on_c, 0, 48, 93
2, 9960, Note_off_c, 0, 48, 0
2, 9984, Note_on_c, 0, 47, 93
2, 10008, Note_off_c, 0, 47, 0
2, 10032, Note_on_c, 0, 45, 93
2, 10056, Note_off_c, 0, 45, 0
2, 10080, Note_on_c, 0, 47, 93
2, 10104, Note_off_c, 0, 47, 0
2, 10128, Note_on_c, 0, 45, 93
2, 10152, Note_off_c, 0, 45, 0
2, 10176, Note_on_c, 0, 47, 93
2, 10200, Note_off_c, 0, 47, 0
2, 10224, Note_on_c, 0, 48, 93
2, 10248, Note_off_c, 0, 48, 0
2, 10272, Note_on_c, 0, 47, 93
2, 10296, Note_off_c, 0, 47, 0
2, 10320, Note_on_c, 0, 45, 93
2, 10344, Note_off_c, 0, 45, 0
2, 10368, Note_on_c, 0, 47, 93
2, 10392, Note_off_c, 0, 47, 0
2, 10416, Note_on_c, 0, 45, 93
2, 10440, Note_off_c, 0, 45, 0
2, 10464, Note_on_c, 0, 43, 93
2, 10488, Note_off_c, 0, 43, 0
2, 10512, Note_on_c, 0, 53, 93
2, 10536, Note_off_c, 0, 53, 0
2, 10560, Note_on_c, 0, 52, 93
2, 10584, Note_off_c, 0, 52, 0
2, 10608, Note_on_c, 0, 50, 93
2, 10632, Note_off_c, 0, 50, 0
2, 10656, Note_on_c, 0, 52, 93
2, 10680, Note_off_c, 0, 52, 0
2, 10704, Note_on_c, 0, 50, 93
2, 10728, Note_off_c, 0, 50, 0
2, 10752, Note_on_c, 0, 52, 93
2, 10776, Note_off_c, 0, 52, 0
2, 10800, Note_on_c, 0, 53, 93
2, 10824, Note_off_c, 0, 53, 0
2, 10848, Note_on_c, 0, 52, 93
2, 10872, Note_off_c, 0, 52, 0
2, 10896, Note_on_c, 0, 50, 93
2, 10920, Note_off_c, 0, 50, 0
2, 10944, Note_on_c, 0, 52, 93
2, 10968, Note_off_c, 0, 52, 0
2, 10992, Note_on_c, 0, 54, 93
2, 11016, Note_off_c, 0, 54, 0
2, 11040, Note_on_c, 0, 55, 93
2, 11064, Note_off_c, 0, 55, 0
2, 11088, Note_on_c, 0, 54, 93
2, 11112, Note_off_c, 0, 54, 0
2, 11136, Note_on_c, 0, 55, 93
2, 11160, Note_off_c, 0, 55, 0
2, 11184, Note_on_c, 0, 57, 93
2, 11208, Note_off_c, 0, 57, 0
2, 11232, Note_on_c, 0, 55, 93
2, 11256, Note_off_c, 0, 55, 0
2, 11280, Note_on_c, 0, 57, 93
2, 11304, Note_off_c, 0, 57, 0
2, 11328, Note_on_c, 0, 59, 93
2, 11352, Note_off_c, 0, 59, 0
2, 11376, Note_on_c, 0, 57, 93
2, 11400, Note_off_c, 0, 57, 0
2, 11424, Note_on_c, 0, 59, 93
2, 11448, Note_off_c, 0, 59, 0
2, 11472, Note_on_c, 0, 60, 93
2, 11520, Note_off_c, 0, 60, 0
2, 11520, Note_on_c, 0, 50, 93
2, 11616, Note_off_c, 0, 50, 0
2, 11616, Note_on_c, 0, 57, 93
2, 11664, Note_off_c, 0, 57, 0
2, 11664, Note_on_c, 0, 60, 93
2, 11688, Note_off_c, 0, 60, 0
2, 11688, Note_on_c, 0, 62, 93
2, 11712, Note_off_c, 0, 62, 0
2, 11712, Note_on_c, 0, 63, 93
2, 11760, Note_off_c, 0, 63, 0
2, 11760, Note_on_c, 0, 62, 93
2, 11808, Note_off_c, 0, 62, 0
2, 11808, Note_on_c, 0, 60, 93
2, 11856, Note_off_c, 0, 60, 0
2, 11856, Note_on_c, 0, 58, 93
2, 11904, Note_off_c, 0, 58, 0
2, 11904, Note_on_c, 0, 57, 93
2, 11952, Note_off_c, 0, 57, 0
2, 11952, Note_on_c, 0, 66, 93
2, 12000, Note_off_c, 0, 66, 0
2, 12000, Note_on_c, 0, 67, 93
2, 12048, Note_off_c, 0, 67, 0
2, 12048, Note_on_c, 0, 57, 93
2, 12096, Note_off_c, 0, 57, 0
2, 12096, Note_on_c, 0, 66, 93
2, 12144, Note_off_c, 0, 66, 0
2, 12144, Note_on_c, 0, 67, 93
2, 12192, Note_off_c, 0, 67, 0
2, 12192, Note_on_c, 0, 57, 93
2, 12240, Note_off_c, 0, 57, 0
2, 12240, Note_on_c, 0, 60, 93
2, 12264, Note_off_c, 0, 60, 0
2, 12264, Note_on_c, 0, 62, 93
2, 12288, Note_off_c, 0, 62, 0
2, 12288, Note_on_c, 0, 63, 93
2, 12336, Note_off_c, 0, 63, 0
2, 12336, Note_on_c, 0, 62, 93
2, 12384, Note_off_c, 0, 62, 0
2, 12384, Note_on_c, 0, 60, 93
2, 12432, Note_off_c, 0, 60, 0
2, 12432, Note_on_c, 0, 58, 93
2, 12480, Note_off_c, 0, 58, 0
2, 12480, Note_on_c, 0, 57, 93
2, 12528, Note_off_c, 0, 57, 0
2, 12528, Note_on_c, 0, 61, 93
2, 12576, Note_off_c, 0, 61, 0
2, 12576, Note_on_c, 0, 62, 93
2, 12624, Note_off_c, 0, 62, 0
2, 12624, Note_on_c, 0, 57, 93
2, 12672, Note_off_c, 0, 57, 0
2, 12672, Note_on_c, 0, 61, 93
2, 12720, Note_off_c, 0, 61, 0
2, 12720, Note_on_c, 0, 62, 93
2, 12768, Note_off_c, 0, 62, 0
2, 12768, Note_on_c, 0, 50, 93
2, 12816, Note_off_c, 0, 50, 0
2, 12816, Note_on_c, 0, 43, 93
2, 12840, Note_off_c, 0, 43, 0
2, 12840, Note_on_c, 0, 47, 93
2, 12864, Note_off_c, 0, 47, 0
2, 12864, Note_on_c, 0, 50, 93
2, 12912, Note_off_c, 0, 50, 0
2, 12912, Note_on_c, 0, 52, 93
2, 12960, Note_off_c, 0, 52, 0
2, 12960, Note_on_c, 0, 45, 93
2, 12984, Note_off_c, 0, 45, 0
2, 12984, Note_on_c, 0, 48, 93
2, 13008, Note_off_c, 0, 48, 0
2, 13008, Note_on_c, 0, 52, 93
2, 13056, Note_off_c, 0, 52, 0
2, 13056, Note_on_c, 0, 54, 93
2, 13104, Note_off_c, 0, 54, 0
2, 13104, Note_on_c, 0, 47, 93
2, 13128, Note_off_c, 0, 47, 0
2, 13128, Note_on_c, 0, 50, 93
2, 13152, Note_off_c, 0, 50, 0
2, 13152, Note_on_c, 0, 55, 93
2, 13176, Note_off_c, 0, 55, 0
2, 13176, Note_on_c, 0, 52, 93
2, 13200, Note_off_c, 0, 52, 0
2, 13200, Note_on_c, 0, 53, 93
2, 13224, Note_off_c, 0, 53, 0
2, 13224, Note_on_c, 0, 50, 93
2, 13248, Note_off_c, 0, 50, 0
2, 13248, Note_on_c, 0, 48, 93
2, 13272, Note_off_c, 0, 48, 0
2, 13272, Note_on_c, 0, 52, 93
2, 13296, Note_off_c, 0, 52, 0
2, 13296, Note_on_c, 0, 57, 93
2, 13320, Note_off_c, 0, 57, 0
2, 13320, Note_on_c, 0, 59, 93
2, 13344, Note_off_c, 0, 59, 0
2, 13344, Note_on_c, 0, 60, 93
2, 13368, Note_off_c, 0, 60, 0
2, 13368, Note_on_c, 0, 57, 93
2, 13392, Note_off_c, 0, 57, 0
2, 13392, Note_on_c, 0, 62, 93
2, 13416, Note_off_c, 0, 62, 0
2, 13416, Note_on_c, 0, 57, 93
2, 13440, Note_off_c, 0, 57, 0
2, 13440, Note_on_c, 0, 54, 93
2, 13464, Note_off_c, 0, 54, 0
2, 13464, Note_on_c, 0, 52, 93
2, 13488, Note_off_c, 0, 52, 0
2, 13488, Note_on_c, 0, 50, 93
2, 13512, Note_off_c, 0, 50, 0
2, 13512, Note_on_c, 0, 48, 93
2, 13536, Note_off_c, 0, 48, 0
2, 13536, Note_on_c, 0, 47, 93
2, 13560, Note_off_c, 0, 47, 0
2, 13560, Note_on_c, 0, 50, 93
2, 13584, Note_off_c, 0, 50, 0
2, 13584, Note_on_c, 0, 55, 93
2, 13608, Note_off_c, 0, 55, 0
2, 13608, Note_on_c, 0, 47, 93
2, 13632, Note_off_c, 0, 47, 0
2, 13632, Note_on_c, 0, 45, 93
2, 13656, Note_off_c, 0, 45, 0
2, 13656, Note_on_c, 0, 54, 93
2, 13680, Note_off_c, 0, 54, 0
2, 13680, Note_on_c, 0, 55, 93
2, 13728, Note_off_c, 0, 55, 0
2, 13728, Note_on_c, 0, 50, 93
2, 13776, Note_off_c, 0, 50, 0
2, 13776, Note_on_c, 0, 47, 93
2, 13824, Note_off_c, 0, 47, 0
2, 13824, Note_on_c, 0, 43, 93
2, 13920, Note_off_c, 0, 43, 0
2, 13920, Note_on_c, 0, 62, 93
2, 13944, Note_off_c, 0, 62, 0
2, 13944, Note_on_c, 0, 60, 93
2, 13968, Note_off_c, 0, 60, 0
2, 13968, Note_on_c, 0, 59, 93
2, 13992, Note_off_c, 0, 59, 0
2, 13992, Note_on_c, 0, 60, 93
2, 14016, Note_off_c, 0, 60, 0
2, 14016, Note_on_c, 0, 57, 93
2, 14040, Note_off_c, 0, 57, 0
2, 14040, Note_on_c, 0, 59, 93
2, 14064, Note_off_c, 0, 59, 0
2, 14064, Note_on_c, 0, 55, 93
2, 14088, Note_off_c, 0, 55, 0
2, 14088, Note_on_c, 0, 57, 93
2, 14112, Note_off_c, 0, 57, 0
2, 14112, Note_on_c, 0, 53, 93
2, 14136, Note_off_c, 0, 53, 0
2, 14136, Note_on_c, 0, 55, 93
2, 14160, Note_off_c, 0, 55, 0
2, 14160, Note_on_c, 0, 52, 93
2, 14184, Note_off_c, 0, 52, 0
2, 14184, Note_on_c, 0, 53, 93
2, 14208, Note_off_c, 0, 53, 0
2, 14208, Note_on_c, 0, 50, 93
2, 14232, Note_off_c, 0, 50, 0
2, 14232, Note_on_c, 0, 52, 93
2, 14256, Note_off_c, 0, 52, 0
2, 14256, Note_on_c, 0, 48, 93
2, 14280, Note_off_c, 0, 48, 0
2, 14280, Note_on_c, 0, 55, 93
2, 14304, Note_off_c, 0, 55, 0
2, 14304, Note_on_c, 0, 57, 93
2, 14328, Note_off_c, 0, 57, 0
2, 14328, Note_on_c, 0, 59, 93
2, 14352, Note_off_c, 0, 59, 0
2, 14352, Note_on_c, 0, 60, 93
2, 14376, Note_off_c, 0, 60, 0
2, 14376, Note_on_c, 0, 62, 93
2, 14400, Note_off_c, 0, 62, 0
2, 14400, Note_on_c, 0, 64, 93
2, 14448, Note_off_c, 0, 64, 0
2, 14448, Note_on_c, 0, 36, 93
2, 14496, Note_off_c, 0, 36, 0
2, 14496, Note_on_c, 0, 64, 93
2, 14544, Note_off_c, 0, 64, 0
2, 14544, Note_on_c, 0, 53, 93
2, 14568, Note_off_c, 0, 53, 0
2, 14568, Note_on_c, 0, 57, 93
2, 14592, Note_off_c, 0, 57, 0
2, 14592, Note_on_c, 0, 59, 93
2, 14616, Note_off_c, 0, 59, 0
2, 14616, Note_on_c, 0, 60, 93
2, 14640, Note_off_c, 0, 60, 0
2, 14640, Note_on_c, 0, 62, 93
2, 14664, Note_off_c, 0, 62, 0
2, 14664, Note_on_c, 0, 60, 93
2, 14688, Note_off_c, 0, 60, 0
2, 14688, Note_on_c, 0, 50, 93
2, 14712, Note_off_c, 0, 50, 0
2, 14712, Note_on_c, 0, 54, 93
2, 14736, Note_off_c, 0, 54, 0
2, 14736, Note_on_c, 0, 56, 93
2, 14760, Note_off_c, 0, 56, 0
2, 14760, Note_on_c, 0, 57, 93
2, 14784, Note_off_c, 0, 57, 0
2, 14784, Note_on_c, 0, 59, 93
2, 14808, Note_off_c, 0, 59, 0
2, 14808, Note_on_c, 0, 57, 93
2, 14832, Note_off_c, 0, 57, 0
2, 14832, Note_on_c, 0, 56, 93
2, 14856, Note_off_c, 0, 56, 0
2, 14856, Note_on_c, 0, 54, 93
2, 14880, Note_off_c, 0, 54, 0
2, 14880, Note_on_c, 0, 56, 93
2, 14904, Note_off_c, 0, 56, 0
2, 14904, Note_on_c, 0, 57, 93
2, 14928, Note_off_c, 0, 57, 0
2, 14928, Note_on_c, 0, 59, 93
2, 14952, Note_off_c, 0, 59, 0
2, 14952, Note_on_c, 0, 56, 93
2, 14976, Note_off_c, 0, 56, 0
2, 14976, Note_on_c, 0, 52, 93
2, 15072, Note_off_c, 0, 52, 0
2, 15072, Note_on_c, 0, 59, 93
2, 15120, Note_off_c, 0, 59, 0
2, 15120, Note_on_c, 0, 60, 93
2, 15168, Note_off_c, 0, 60, 0
2, 15168, Note_on_c, 0, 52, 93
2, 15216, Note_off_c, 0, 52, 0
2, 15216, Note_on_c, 0, 53, 93
2, 15264, Note_off_c, 0, 53, 0
2, 15264, Note_on_c, 0, 50, 93
2, 15312, Note_off_c, 0, 50, 0
2, 15312, Note_on_c, 0, 62, 93
2, 15336, Note_off_c, 0, 62, 0
2, 15336, Note_on_c, 0, 60, 93
2, 15360, Note_off_c, 0, 60, 0
2, 15360, Note_on_c, 0, 59, 93
2, 15384, Note_off_c, 0, 59, 0
2, 15384, Note_on_c, 0, 57, 93
2, 15408, Note_off_c, 0, 57, 0
2, 15408, Note_on_c, 0, 59, 93
2, 15456, Note_off_c, 0, 59, 0
2, 15456, Note_on_c, 0, 43, 93
2, 15480, Note_off_c, 0, 43, 0
2, 15480, Note_on_c, 0, 45, 93
2, 15504, Note_off_c, 0, 45, 0
2, 15504, Note_on_c, 0, 47, 93
2, 15528, Note_off_c, 0, 47, 0
2, 15528, Note_on_c, 0, 48, 93
2, 15552, Note_off_c, 0, 48, 0
2, 15552, Note_on_c, 0, 50, 93
2, 15600, Note_off_c, 0, 50, 0
2, 15600, Note_on_c, 0, 43, 93
2, 15648, Note_off_c, 0, 43, 0
2, 15648, Note_on_c, 0, 58, 93
2, 15696, Note_off_c, 0, 58, 0
2, 15696, Note_on_c, 0, 58, 93
2, 15744, Note_off_c, 0, 58, 0
2, 15744, Note_on_c, 0, 50, 93
2, 15792, Note_off_c, 0, 50, 0
2, 15792, Note_on_c, 0, 52, 93
2, 15840, Note_off_c, 0, 52, 0
2, 15840, Note_on_c, 0, 48, 93
2, 15888, Note_off_c, 0, 48, 0
2, 15888, Note_on_c, 0, 60, 93
2, 15912, Note_off_c, 0, 60, 0
2, 15912, Note_on_c, 0, 58, 93
2, 15936, Note_off_c, 0, 58, 0
2, 15936, Note_on_c, 0, 57, 93
2, 15960, Note_off_c, 0, 57, 0
2, 15960, Note_on_c, 0, 55, 93
2, 15984, Note_off_c, 0, 55, 0
2, 15984, Note_on_c, 0, 57, 93
2, 16032, Note_off_c, 0, 57, 0
2, 16032, Note_on_c, 0, 41, 93
2, 16056, Note_off_c, 0, 41, 0
2, 16056, Note_on_c, 0, 43, 93
2, 16080, Note_off_c, 0, 43, 0
2, 16080, Note_on_c, 0, 45, 93
2, 16104, Note_off_c, 0, 45, 0
2, 16104, Note_on_c, 0, 46, 93
2, 16128, Note_off_c, 0, 46, 0
2, 16128, Note_on_c, 0, 48, 93
2, 16176, Note_off_c, 0, 48, 0
2, 16176, Note_on_c, 0, 41, 93
2, 16224, Note_off_c, 0, 41, 0
2, 16224, Note_on_c, 0, 57, 93
2, 16272, Note_off_c, 0, 57, 0
2, 16272, Note_on_c, 0, 53, 93
2, 16320, Note_off_c, 0, 53, 0
2, 16320, Note_on_c, 0, 49, 93
2, 16368, Note_off_c, 0, 49, 0
2, 16368, Note_on_c, 0, 50, 93
2, 16416, Note_off_c, 0, 50, 0
2, 16416, Note_on_c, 0, 58, 93
2, 16464, Note_off_c, 0, 58, 0
2, 16464, Note_on_c, 0, 56, 93
2, 16512, Note_off_c, 0, 56, 0
2, 16512, Note_on_c, 0, 57, 93
2, 16560, Note_off_c, 0, 57, 0
2, 16560, Note_on_c, 0, 62, 93
2, 16584, Note_off_c, 0, 62, 0
2, 16584, Note_on_c, 0, 64, 93
2, 16608, Note_off_c, 0, 64, 0
2, 16608, Note_on_c, 0, 65, 93
2, 16656, Note_off_c, 0, 65, 0
2, 16656, Note_on_c, 0, 56, 93
2, 16704, Note_off_c, 0, 56, 0
2, 16704, Note_on_c, 0, 50, 93
2, 16800, Note_off_c, 0, 50, 0
2, 16800, Note_on_c, 0, 65, 93
2, 16848, Note_off_c, 0, 65, 0
2, 16848, Note_on_c, 0, 64, 93
2, 16896, Note_off_c, 0, 64, 0
2, 16896, Note_on_c, 0, 62, 93
2, 16920, Note_off_c, 0, 62, 0
2, 16920, Note_on_c, 0, 60, 93
2, 16944, Note_off_c, 0, 60, 0
2, 16944, Note_on_c, 0, 59, 93
2, 16968, Note_off_c, 0, 59, 0
2, 16968, Note_on_c, 0, 57, 93
2, 16992, Note_off_c, 0, 57, 0
2, 16992, Note_on_c, 0, 59, 93
2, 17016, Note_off_c, 0, 59, 0
2, 17016, Note_on_c, 0, 62, 93
2, 17040, Note_off_c, 0, 62, 0
2, 17040, Note_on_c, 0, 60, 93
2, 17064, Note_off_c, 0, 60, 0
2, 17064, Note_on_c, 0, 57, 93
2, 17088, Note_off_c, 0, 57, 0
2, 17088, Note_on_c, 0, 59, 93
2, 17112, Note_off_c, 0, 59, 0
2, 17112, Note_on_c, 0, 56, 93
2, 17136, Note_off_c, 0, 56, 0
2, 17136, Note_on_c, 0, 57, 93
2, 17184, Note_off_c, 0, 57, 0
2, 17184, Note_on_c, 0, 52, 93
2, 17232, Note_off_c, 0, 52, 0
2, 17232, Note_on_c, 0, 48, 93
2, 17280, Note_off_c, 0, 48, 0
2, 17280, Note_on_c, 0, 45, 93
2, 17376, Note_off_c, 0, 45, 0
2, 17376, Note_on_c, 0, 60, 93
2, 17424, Note_off_c, 0, 60, 0
2, 17424, Note_on_c, 0, 60, 93
2, 17520, Note_off_c, 0, 60, 0
2, 17664, Note_on_c, 0, 60, 93
2, 17712, Note_off_c, 0, 60, 0
2, 17712, Note_on_c, 0, 59, 93
2, 17808, Note_off_c, 0, 59, 0
2, 19176, Note_on_c, 0, 57, 93
2, 19200, Note_off_c, 0, 57, 0
2, 19224, Note_on_c, 0, 57, 93
2, 19248, Note_off_c, 0, 57, 0
2, 19272, Note_on_c, 0, 57, 93
2, 19296, Note_off_c, 0, 57, 0
2, 19320, Note_on_c, 0, 57, 93
2, 19344, Note_off_c, 0, 57, 0
2, 19368, Note_on_c, 0, 57, 93
2, 19392, Note_off_c, 0, 57, 0
2, 19416, Note_on_c, 0, 57, 93
2, 19440, Note_off_c, 0, 57, 0
2, 19464, Note_on_c, 0, 60, 93
2, 19488, Note_off_c, 0, 60, 0
2, 19512, Note_on_c, 0, 60, 93
2, 19536, Note_off_c, 0, 60, 0
2, 19560, Note_on_c, 0, 60, 93
2, 19584, Note_off_c, 0, 60, 0
2, 19608, Note_on_c, 0, 60, 93
2, 19632, Note_off_c, 0, 60, 0
2, 19656, Note_on_c, 0, 60, 93
2, 19680, Note_off_c, 0, 60, 0
2, 19704, Note_on_c, 0, 60, 93
2, 19728, Note_off_c, 0, 60, 0
2, 19728, Note_on_c, 0, 59, 93
2, 19752, Note_off_c, 0, 59, 0
2, 19776, Note_on_c, 0, 57, 93
2, 19800, Note_off_c, 0, 57, 0
2, 19824, Note_on_c, 0, 59, 93
2, 19848, Note_off_c, 0, 59, 0
2, 19872, Note_on_c, 0, 60, 93
2, 19896, Note_off_c, 0, 60, 0
2, 19920, Note_on_c, 0, 59, 93
2, 19944, Note_off_c, 0, 59, 0
2, 19968, Note_on_c, 0, 57, 93
2, 19992, Note_off_c, 0, 57, 0
2, 20016, Note_on_c, 0, 59, 93
2, 20040, Note_off_c, 0, 59, 0
2, 20064, Note_on_c, 0, 62, 93
2, 20088, Note_off_c, 0, 62, 0
2, 20112, Note_on_c, 0, 65, 93
2, 20160, Note_off_c, 0, 65, 0
2, 20256, Note_on_c, 0, 50, 93
2, 20304, Note_off_c, 0, 50, 0
2, 20304, Note_on_c, 0, 43, 93
2, 20352, Note_off_c, 0, 43, 0
2, 20352, Note_on_c, 0, 43, 93
2, 20400, Note_off_c, 0, 43, 0
2, 20400, Note_on_c, 0, 43, 93
2, 20448, Note_off_c, 0, 43, 0
2, 20448, Note_on_c, 0, 43, 93
2, 20496, Note_off_c, 0, 43, 0
2, 20496, Note_on_c, 0, 43, 93
2, 20544, Note_off_c, 0, 43, 0
2, 20544, Note_on_c, 0, 43, 93
2, 20592, Note_off_c, 0, 43, 0
2, 20592, Note_on_c, 0, 43, 93
2, 20688, Note_off_c, 0, 43, 0
2, 20688, Note_on_c, 0, 43, 93
2, 20736, Note_off_c, 0, 43, 0
2, 20736, Note_on_c, 0, 43, 93
2, 20832, Note_off_c, 0, 43, 0
2, 20832, Note_on_c, 0, 43, 93
2, 20880, Note_off_c, 0, 43, 0
2, 20880, Note_on_c, 0, 43, 93
2, 20928, Note_off_c, 0, 43, 0
2, 20928, Note_on_c, 0, 43, 93
2, 20976, Note_off_c, 0, 43, 0
2, 20976, Note_on_c, 0, 43, 93
2, 21024, Note_off_c, 0, 43, 0
2, 21024, Note_on_c, 0, 43, 93
2, 21072, Note_off_c, 0, 43, 0
2, 21072, Note_on_c, 0, 43, 93
2, 21120, Note_off_c, 0, 43, 0
2, 21120, Note_on_c, 0, 43, 93
2, 21168, Note_off_c, 0, 43, 0
2, 21168, Note_on_c, 0, 43, 93
2, 21264, Note_off_c, 0, 43, 0
2, 21264, Note_on_c, 0, 43, 93
2, 21312, Note_off_c, 0, 43, 0
2, 21312, Note_on_c, 0, 43, 93
2, 21360, Note_off_c, 0, 43, 0
2, 22464, Note_on_c, 0, 52, 93
2, 22560, Note_off_c, 0, 52, 0
2, 22560, Note_on_c, 0, 62, 93
2, 22584, Note_off_c, 0, 62, 0
2, 22584, Note_on_c, 0, 60, 93
2, 22608, Note_off_c, 0, 60, 0
2, 22608, Note_on_c, 0, 59, 93
2, 22632, Note_off_c, 0, 59, 0
2, 22632, Note_on_c, 0, 60, 93
2, 22656, Note_off_c, 0, 60, 0
2, 22656, Note_on_c, 0, 57, 93
2, 22680, Note_off_c, 0, 57, 0
2, 22680, Note_on_c, 0, 59, 93
2, 22704, Note_off_c, 0, 59, 0
2, 22704, Note_on_c, 0, 55, 93
2, 22728, Note_off_c, 0, 55, 0
2, 22728, Note_on_c, 0, 57, 93
2, 22752, Note_off_c, 0, 57, 0
2, 22752, Note_on_c, 0, 53, 93
2, 22776, Note_off_c, 0, 53, 0
2, 22776, Note_on_c, 0, 55, 93
2, 22800, Note_off_c, 0, 55, 0
2, 22800, Note_on_c, 0, 52, 93
2, 22824, Note_off_c, 0, 52, 0
2, 22824, Note_on_c, 0, 53, 93
2, 22848, Note_off_c, 0, 53, 0
2, 22848, Note_on_c, 0, 50, 93
2, 22872, Note_off_c, 0, 50, 0
2, 22872, Note_on_c, 0, 52, 93
2, 22896, Note_off_c, 0, 52, 0
2, 22896, Note_on_c, 0, 48, 93
2, 22920, Note_off_c, 0, 48, 0
2, 22920, Note_on_c, 0, 55, 93
2, 22944, Note_off_c, 0, 55, 0
2, 22944, Note_on_c, 0, 57, 93
2, 22968, Note_off_c, 0, 57, 0
2, 22968, Note_on_c, 0, 59, 93
2, 22992, Note_off_c, 0, 59, 0
2, 22992, Note_on_c, 0, 60, 93
2, 23016, Note_off_c, 0, 60, 0
2, 23016, Note_on_c, 0, 62, 93
2, 23040, Note_off_c, 0, 62, 0
2, 23040, Note_on_c, 0, 64, 93
2, 23088, Note_off_c, 0, 64, 0
2, 23088, Note_on_c, 0, 36, 93
2, 23136, Note_off_c, 0, 36, 0
2, 23136, Note_on_c, 0, 64, 93
2, 23184, Note_off_c, 0, 64, 0
2, 23184, Note_on_c, 0, 53, 93
2, 23208, Note_off_c, 0, 53, 0
2, 23208, Note_on_c, 0, 57, 93
2, 23232, Note_off_c, 0, 57, 0
2, 23232, Note_on_c, 0, 59, 93
2, 23256, Note_off_c, 0, 59, 0
2, 23256, Note_on_c, 0, 60, 93
2, 23280, Note_off_c, 0, 60, 0
2, 23280, Note_on_c, 0, 62, 93
2, 23304, Note_off_c, 0, 62, 0
2, 23304, Note_on_c, 0, 60, 93
2, 23328, Note_off_c, 0, 60, 0
2, 23328, Note_on_c, 0, 50, 93
2, 23352, Note_off_c, 0, 50, 0
2, 23352, Note_on_c, 0, 54, 93
2, 23376, Note_off_c, 0, 54, 0
2, 23376, Note_on_c, 0, 56, 93
2, 23400, Note_off_c, 0, 56, 0
2, 23400, Note_on_c, 0, 57, 93
2, 23424, Note_off_c, 0, 57, 0
2, 23424, Note_on_c, 0, 59, 93
2, 23448, Note_off_c, 0, 59, 0
2, 23448, Note_on_c, 0, 57, 93
2, 23472, Note_off_c, 0, 57, 0
2, 23472, Note_on_c, 0, 56, 93
2, 23496, Note_off_c, 0, 56, 0
2, 23496, Note_on_c, 0, 54, 93
2, 23520, Note_off_c, 0, 54, 0
2, 23520, Note_on_c, 0, 56, 93
2, 23544, Note_off_c, 0, 56, 0
2, 23544, Note_on_c, 0, 57, 93
2, 23568, Note_off_c, 0, 57, 0
2, 23568, Note_on_c, 0, 59, 93
2, 23592, Note_off_c, 0, 59, 0
2, 23592, Note_on_c, 0, 56, 93
2, 23616, Note_off_c, 0, 56, 0
2, 23616, Note_on_c, 0, 52, 93
2, 23712, Note_off_c, 0, 52, 0
2, 23712, Note_on_c, 0, 59, 93
2, 23760, Note_off_c, 0, 59, 0
2, 23760, Note_on_c, 0, 60, 93
2, 23808, Note_off_c, 0, 60, 0
2, 23808, Note_on_c, 0, 52, 93
2, 23856, Note_off_c, 0, 52, 0
2, 23856, Note_on_c, 0, 53, 93
2, 23904, Note_off_c, 0, 53, 0
2, 23904, Note_on_c, 0, 50, 93
2, 23952, Note_off_c, 0, 50, 0
2, 23952, Note_on_c, 0, 62, 93
2, 23976, Note_off_c, 0, 62, 0
2, 23976, Note_on_c, 0, 60, 93
2, 24000, Note_off_c, 0, 60, 0
2, 24000, Note_on_c, 0, 59, 93
2, 24024, Note_off_c, 0, 59, 0
2, 24024, Note_on_c, 0, 57, 93
2, 24048, Note_off_c, 0, 57, 0
2, 24048, Note_on_c, 0, 59, 93
2, 24096, Note_off_c, 0, 59, 0
2, 24096, Note_on_c, 0, 43, 93
2, 24120, Note_off_c, 0, 43, 0
2, 24120, Note_on_c, 0, 45, 93
2, 24144, Note_off_c, 0, 45, 0
2, 24144, Note_on_c, 0, 47, 93
2, 24168, Note_off_c, 0, 47, 0
2, 24168, Note_on_c, 0, 48, 93
2, 24192, Note_off_c, 0, 48, 0
2, 24192, Note_on_c, 0, 50, 93
2, 24240, Note_off_c, 0, 50, 0
2, 24240, Note_on_c, 0, 43, 93
2, 24288, Note_off_c, 0, 43, 0
2, 24288, Note_on_c, 0, 58, 93
2, 24336, Note_off_c, 0, 58, 0
2, 24336, Note_on_c, 0, 58, 93
2, 24384, Note_off_c, 0, 58, 0
2, 24384, Note_on_c, 0, 50, 93
2, 24432, Note_off_c, 0, 50, 0
2, 24432, Note_on_c, 0, 52, 93
2, 24480, Note_off_c, 0, 52, 0
2, 24480, Note_on_c, 0, 48, 93
2, 24528, Note_off_c, 0, 48, 0
2, 24528, Note_on_c, 0, 60, 93
2, 24552, Note_off_c, 0, 60, 0
2, 24552, Note_on_c, 0, 58, 93
2, 24576, Note_off_c, 0, 58, 0
2, 24576, Note_on_c, 0, 57, 93
2, 24600, Note_off_c, 0, 57, 0
2, 24600, Note_on_c, 0, 55, 93
2, 24624, Note_off_c, 0, 55, 0
2, 24624, Note_on_c, 0, 57, 93
2, 24672, Note_off_c, 0, 57, 0
2, 24672, Note_on_c, 0, 41, 93
2, 24696, Note_off_c, 0, 41, 0
2, 24696, Note_on_c, 0, 43, 93
2, 24720, Note_off_c, 0, 43, 0
2, 24720, Note_on_c, 0, 45, 93
2, 24744, Note_off_c, 0, 45, 0
2, 24744, Note_on_c, 0, 46, 93
2, 24768, Note_off_c, 0, 46, 0
2, 24768, Note_on_c, 0, 48, 93
2, 24816, Note_off_c, 0, 48, 0
2, 24816, Note_on_c, 0, 41, 93
2, 24864, Note_off_c, 0, 41, 0
2, 24864, Note_on_c, 0, 57, 93
2, 24912, Note_off_c, 0, 57, 0
2, 24912, Note_on_c, 0, 53, 93
2, 24960, Note_off_c, 0, 53, 0
2, 24960, Note_on_c, 0, 49, 93
2, 25008, Note_off_c, 0, 49, 0
2, 25008, Note_on_c, 0, 50, 93
2, 25056, Note_off_c, 0, 50, 0
2, 25056, Note_on_c, 0, 58, 93
2, 25104, Note_off_c, 0, 58, 0
2, 25104, Note_on_c, 0, 56, 93
2, 25152, Note_off_c, 0, 56, 0
2, 25152, Note_on_c, 0, 57, 93
2, 25200, Note_off_c, 0, 57, 0
2, 25200, Note_on_c, 0, 62, 93
2, 25224, Note_off_c, 0, 62, 0
2, 25224, Note_on_c, 0, 64, 93
2, 25248, Note_off_c, 0, 64, 0
2, 25248, Note_on_c, 0, 65, 93
2, 25296, Note_off_c, 0, 65, 0
2, 25296, Note_on_c, 0, 56, 93
2, 25344, Note_off_c, 0, 56, 0
2, 25344, Note_on_c, 0, 50, 93
2, 25440, Note_off_c, 0, 50, 0
2, 25440, Note_on_c, 0, 65, 93
2, 25488, Note_off_c, 0, 65, 0
2, 25488, Note_on_c, 0, 64, 93
2, 25536, Note_off_c, 0, 64, 0
2, 25536, Note_on_c, 0, 62, 93
2, 25560, Note_off_c, 0, 62, 0
2, 25560, Note_on_c, 0, 60, 93
2, 25584, Note_off_c, 0, 60, 0
2, 25584, Note_on_c, 0, 59, 93
2, 25608, Note_off_c, 0, 59, 0
2, 25608, Note_on_c, 0, 57, 93
2, 25632, Note_off_c, 0, 57, 0
2, 25632, Note_on_c, 0, 59, 93
2, 25656, Note_off_c, 0, 59, 0
2, 25656, Note_on_c, 0, 62, 93
2, 25680, Note_off_c, 0, 62, 0
2, 25680, Note_on_c, 0, 60, 93
2, 25704, Note_off_c, 0, 60, 0
2, 25704, Note_on_c, 0, 57, 93
2, 25728, Note_off_c, 0, 57, 0
2, 25728, Note_on_c, 0, 59, 93
2, 25752, Note_off_c, 0, 59, 0
2, 25752, Note_on_c, 0, 56, 93
2, 25776, Note_off_c, 0, 56, 0
2, 25776, Note_on_c, 0, 57, 93
2, 25824, Note_off_c, 0, 57, 0
2, 25824, Note_on_c, 0, 52, 93
2, 25872, Note_off_c, 0, 52, 0
2, 25872, Note_on_c, 0, 48, 93
2, 25920, Note_off_c, 0, 48, 0
2, 25920, Note_on_c, 0, 45, 93
2, 26016, Note_off_c, 0, 45, 0
2, 26016, Note_on_c, 0, 60, 93
2, 26064, Note_off_c, 0, 60, 0
2, 26064, Note_on_c, 0, 60, 93
2, 26160, Note_off_c, 0, 60, 0
2, 26304, Note_on_c, 0, 60, 93
2, 26352, Note_off_c, 0, 60, 0
2, 26352, Note_on_c, 0, 59, 93
2, 26448, Note_off_c, 0, 59, 0
2, 27816, Note_on_c, 0, 57, 93
2, 27840, Note_off_c, 0, 57, 0
2, 27864, Note_on_c, 0, 57, 93
2, 27888, Note_off_c, 0, 57, 0
2, 27912, Note_on_c, 0, 57, 93
2, 27936, Note_off_c, 0, 57, 0
2, 27960, Note_on_c, 0, 57, 93
2, 27984, Note_off_c, 0, 57, 0
2, 28008, Note_on_c, 0, 57, 93
2, 28032, Note_off_c, 0, 57, 0
2, 28056, Note_on_c, 0, 57, 93
2, 28080, Note_off_c, 0, 57, 0
2, 28104, Note_on_c, 0, 60, 93
2, 28128, Note_off_c, 0, 60, 0
2, 28152, Note_on_c, 0, 60, 93
2, 28176, Note_off_c, 0, 60, 0
2, 28200, Note_on_c, 0, 60, 93
2, 28224, Note_off_c, 0, 60, 0
2, 28248, Note_on_c, 0, 60, 93
2, 28272, Note_off_c, 0, 60, 0
2, 28296, Note_on_c, 0, 60, 93
2, 28320, Note_off_c, 0, 60, 0
2, 28344, Note_on_c, 0, 60, 93
2, 28368, Note_off_c, 0, 60, 0
2, 28368, Note_on_c, 0, 59, 93
2, 28392, Note_off_c, 0, 59, 0
2, 28416, Note_on_c, 0, 57, 93
2, 28440, Note_off_c, 0, 57, 0
2, 28464, Note_on_c, 0, 59, 93
2, 28488, Note_off_c, 0, 59, 0
2, 28512, Note_on_c, 0, 60, 93
2, 28536, Note_off_c, 0, 60, 0
2, 28560, Note_on_c, 0, 59, 93
2, 28584, Note_off_c, 0, 59, 0
2, 28608, Note_on_c, 0, 57, 93
2, 28632, Note_off_c, 0, 57, 0
2, 28656, Note_on_c, 0, 59, 93
2, 28680, Note_off_c, 0, 59, 0
2, 28704, Note_on_c, 0, 62, 93
2, 28728, Note_off_c, 0, 62, 0
2, 28752, Note_on_c, 0, 65, 93
2, 28800, Note_off_c, 0, 65, 0
2, 28896, Note_on_c, 0, 50, 93
2, 28944, Note_off_c, 0, 50, 0
2, 28944, Note_on_c, 0, 43, 93
2, 28992, Note_off_c, 0, 43, 0
2, 28992, Note_on_c, 0, 43, 93
2, 29040, Note_off_c, 0, 43, 0
2, 29040, Note_on_c, 0, 43, 93
2, 29088, Note_off_c, 0, 43, 0
2, 29088, Note_on_c, 0, 43, 93
2, 29136, Note_off_c, 0, 43, 0
2, 29136, Note_on_c, 0, 43, 93
2, 29184, Note_off_c, 0, 43, 0
2, 29184, Note_on_c, 0, 43, 93
2, 29232, Note_off_c, 0, 43, 0
2, 29232, Note_on_c, 0, 43, 93
2, 29328, Note_off_c, 0, 43, 0
2, 29328, Note_on_c, 0, 43, 93
2, 29376, Note_off_c, 0, 43, 0
2, 29376, Note_on_c, 0, 43, 93
2, 29472, Note_off_c, 0, 43, 0
2, 29472, Note_on_c, 0, 43, 93
2, 29520, Note_off_c, 0, 43, 0
2, 29520, Note_on_c, 0, 43, 93
2, 29568, Note_off_c, 0, 43, 0
2, 29568, Note_on_c, 0, 43, 93
2, 29616, Note_off_c, 0, 43, 0
2, 29616, Note_on_c, 0, 43, 93
2, 29664, Note_off_c, 0, 43, 0
2, 29664, Note_on_c, 0, 43, 93
2, 29712, Note_off_c, 0, 43, 0
2, 29712, Note_on_c, 0, 43, 93
2, 29760, Note_off_c, 0, 43, 0
2, 29760, Note_on_c, 0, 43, 93
2, 29808, Note_off_c, 0, 43, 0
2, 29808, Note_on_c, 0, 43, 93
2, 29904, Note_off_c, 0, 43, 0
2, 29904, Note_on_c, 0, 43, 93
2, 29952, Note_off_c, 0, 43, 0
2, 29952, Note_on_c, 0, 43, 93
2, 30000, Note_off_c, 0, 43, 0
2, 31104, Note_on_c, 0, 52, 93
2, 31200, Note_off_c, 0, 52, 0
2, 31200, End_track
3, 0, Start_track
3, 0, Title_t, "Track3"
3, 0, Program_c, 1, 42
3, 0, Control_c, 1, 7, 100
3, 0, Control_c, 1, 10, 74
3, 3048, Note_on_c, 1, 50, 93
3, 3072, Note_off_c, 1, 50, 0
3, 3096, Note_on_c, 1, 50, 93
3, 3120, Note_off_c, 1, 50, 0
3, 3144, Note_on_c, 1, 50, 93
3, 3168, Note_off_c, 1, 50, 0
3, 3192, Note_on_c, 1, 50, 93
3, 3216, Note_off_c, 1, 50, 0
3, 3240, Note_on_c, 1, 50, 93
3, 3264, Note_off_c, 1, 50, 0
3, 3288, Note_on_c, 1, 50, 93
3, 3312, Note_off_c, 1, 50, 0
3, 3336, Note_on_c, 1, 50, 93
3, 3360, Note_off_c, 1, 50, 0
3, 3384, Note_on_c, 1, 50, 93
3, 3408, Note_off_c, 1, 50, 0
3, 3432, Note_on_c, 1, 50, 93
3, 3456, Note_off_c, 1, 50, 0
3, 3480, Note_on_c, 1, 50, 93
3, 3504, Note_off_c, 1, 50, 0
3, 3528, Note_on_c, 1, 50, 93
3, 3552, Note_off_c, 1, 50, 0
3, 3576, Note_on_c, 1, 50, 93
3, 3600, Note_off_c, 1, 50, 0
3, 3624, Note_on_c, 1, 43, 93
3, 3648, Note_off_c, 1, 43, 0
3, 3672, Note_on_c, 1, 43, 93
3, 3696, Note_off_c, 1, 43, 0
3, 3720, Note_on_c, 1, 43, 93
3, 3744, Note_off_c, 1, 43, 0
3, 3768, Note_on_c, 1, 43, 93
3, 3792, Note_off_c, 1, 43, 0
3, 3816, Note_on_c, 1, 43, 93
3, 3840, Note_off_c, 1, 43, 0
3, 3864, Note_on_c, 1, 43, 93
3, 3888, Note_off_c, 1, 43, 0
3, 3912, Note_on_c, 1, 43, 93
3, 3936, Note_off_c, 1, 43, 0
3, 3960, Note_on_c, 1, 43, 93
3, 3984, Note_off_c, 1, 43, 0
3, 4008, Note_on_c, 1, 43, 93
3, 4032, Note_off_c, 1, 43, 0
3, 4056, Note_on_c, 1, 43, 93
3, 4080, Note_off_c, 1, 43, 0
3, 4104, Note_on_c, 1, 43, 93
3, 4128, Note_off_c, 1, 43, 0
3, 4152, Note_on_c, 1, 43, 93
3, 4176, Note_off_c, 1, 43, 0
3, 4200, Note_on_c, 1, 43, 93
3, 4224, Note_off_c, 1, 43, 0
3, 4248, Note_on_c, 1, 43, 93
3, 4272, Note_off_c, 1, 43, 0
3, 4296, Note_on_c, 1, 43, 93
3, 4320, Note_off_c, 1, 43, 0
3, 4344, Note_on_c, 1, 43, 93
3, 4368, Note_off_c, 1, 43, 0
3, 4392, Note_on_c, 1, 43, 93
3, 4416, Note_off_c, 1, 43, 0
3, 4440, Note_on_c, 1, 43, 93
3, 4464, Note_off_c, 1, 43, 0
3, 4488, Note_on_c, 1, 43, 93
3, 4512, Note_off_c, 1, 43, 0
3, 4536, Note_on_c, 1, 43, 93
3, 4560, Note_off_c, 1, 43, 0
3, 4752, Note_on_c, 1, 50, 93
3, 4800, Note_off_c, 1, 50, 0
3, 4800, Note_on_c, 1, 50, 93
3, 4848, Note_off_c, 1, 50, 0
3, 4848, Note_on_c, 1, 50, 93
3, 4896, Note_off_c, 1, 50, 0
3, 4896, Note_on_c, 1, 50, 93
3, 4944, Note_off_c, 1, 50, 0
3, 4944, Note_on_c, 1, 50, 93
3, 4992, Note_off_c, 1, 50, 0
3, 4992, Note_on_c, 1, 50, 93
3, 5040, Note_off_c, 1, 50, 0
3, 5040, Note_on_c, 1, 50, 93
3, 5136, Note_off_c, 1, 50, 0
3, 5136, Note_on_c, 1, 50, 93
3, 5184, Note_off_c, 1, 50, 0
3, 5184, Note_on_c, 1, 50, 93
3, 5280, Note_off_c, 1, 50, 0
3, 5280, Note_on_c, 1, 50, 93
3, 5328, Note_off_c, 1, 50, 0
3, 5328, Note_on_c, 1, 50, 93
3, 5376, Note_off_c, 1, 50, 0
3, 5376, Note_on_c, 1, 50, 93
3, 5424, Note_off_c, 1, 50, 0
3, 5424, Note_on_c, 1, 50, 93
3, 5472, Note_off_c, 1, 50, 0
3, 5472, Note_on_c, 1, 50, 93
3, 5520, Note_off_c, 1, 50, 0
3, 5520, Note_on_c, 1, 50, 93
3, 5568, Note_off_c, 1, 50, 0
3, 5568, Note_on_c, 1, 50, 93
3, 5616, Note_off_c, 1, 50, 0
3, 5616, Note_on_c, 1, 50, 93
3, 5712, Note_off_c, 1, 50, 0
3, 5712, Note_on_c, 1, 50, 93
3, 5760, Note_off_c, 1, 50, 0
3, 5760, Note_on_c, 1, 50, 93
3, 5856, Note_off_c, 1, 50, 0
3, 9960, Note_on_c, 1, 50, 93
3, 9984, Note_off_c, 1, 50, 0
3, 10008, Note_on_c, 1, 50, 93
3, 10032, Note_off_c, 1, 50, 0
3, 10056, Note_on_c, 1, 50, 93
3, 10080, Note_off_c, 1, 50, 0
3, 10104, Note_on_c, 1, 50, 93
3, 10128, Note_off_c, 1, 50, 0
3, 10152, Note_on_c, 1, 50, 93
3, 10176, Note_off_c, 1, 50, 0
3, 10200, Note_on_c, 1, 50, 93
3, 10224, Note_off_c, 1, 50, 0
3, 10248, Note_on_c, 1, 50, 93
3, 10272, Note_off_c, 1, 50, 0
3, 10296, Note_on_c, 1, 50, 93
3, 10320, Note_off_c, 1, 50, 0
3, 10344, Note_on_c, 1, 50, 93
3, 10368, Note_off_c, 1, 50, 0
3, 10392, Note_on_c, 1, 50, 93
3, 10416, Note_off_c, 1, 50, 0
3, 10440, Note_on_c, 1, 50, 93
3, 10464, Note_off_c, 1, 50, 0
3, 10488, Note_on_c, 1, 50, 93
3, 10512, Note_off_c, 1, 50, 0
3, 10536, Note_on_c, 1, 43, 93
3, 10560, Note_off_c, 1, 43, 0
3, 10584, Note_on_c, 1, 43, 93
3, 10608, Note_off_c, 1, 43, 0
3, 10632, Note_on_c, 1, 43, 93
3, 10656, Note_off_c, 1, 43, 0
3, 10680, Note_on_c, 1, 43, 93
3, 10704, Note_off_c, 1, 43, 0
3, 10728, Note_on_c, 1, 43, 93
3, 10752, Note_off_c, 1, 43, 0
3, 10776, Note_on_c, 1, 43, 93
3, 10800, Note_off_c, 1, 43, 0
3, 10824, Note_on_c, 1, 43, 93
3, 10848, Note_off_c, 1, 43, 0
3, 10872, Note_on_c, 1, 43, 93
3, 10896, Note_off_c, 1, 43, 0
3, 10920, Note_on_c, 1, 43, 93
3, 10944, Note_off_c, 1, 43, 0
3, 10968, Note_on_c, 1, 43, 93
3, 10992, Note_off_c, 1, 43, 0
3, 11016, Note_on_c, 1, 43, 93
3, 11040, Note_off_c, 1, 43, 0
3, 11064, Note_on_c, 1, 43, 93
3, 11088, Note_off_c, 1, 43, 0
3, 11112, Note_on_c, 1, 43, 93
3, 11136, Note_off_c, 1, 43, 0
3, 11160, Note_on_c, 1, 43, 93
3, 11184, Note_off_c, 1, 43, 0
3, 11208, Note_on_c, 1, 43, 93
3, 11232, Note_off_c, 1, 43, 0
3, 11256, Note_on_c, 1, 43, 93
3, 11280, Note_off_c, 1, 43, 0
3, 11304, Note_on_c, 1, 43, 93
3, 11328, Note_off_c, 1, 43, 0
3, 11352, Note_on_c, 1, 43, 93
3, 11376, Note_off_c, 1, 43, 0
3, 11400, Note_on_c, 1, 43, 93
3, 11424, Note_off_c, 1, 43, 0
3, 11448, Note_on_c, 1, 43, 93
3, 11472, Note_off_c, 1, 43, 0
3, 11664, Note_on_c, 1, 50, 93
3, 11712, Note_off_c, 1, 50, 0
3, 11712, Note_on_c, 1, 50, 93
3, 11760, Note_off_c, 1, 50, 0
3, 11760, Note_on_c, 1, 50, 93
3, 11808, Note_off_c, 1, 50, 0
3, 11808, Note_on_c, 1, 50, 93
3, 11856, Note_off_c, 1, 50, 0
3, 11856, Note_on_c, 1, 50, 93
3, 11904, Note_off_c, 1, 50, 0
3, 11904, Note_on_c, 1, 50, 93
3, 11952, Note_off_c, 1, 50, 0
3, 11952, Note_on_c, 1, 50, 93
3, 12048, Note_off_c, 1, 50, 0
3, 12048, Note_on_c, 1, 50, 93
3, 12096, Note_off_c, 1, 50, 0
3, 12096, Note_on_c, 1, 50, 93
3, 12192, Note_off_c, 1, 50, 0
3, 12192, Note_on_c, 1, 50, 93
3, 12240, Note_off_c, 1, 50, 0
3, 12240, Note_on_c, 1, 50, 93
3, 12288, Note_off_c, 1, 50, 0
3, 12288, Note_on_c, 1, 50, 93
3, 12336, Note_off_c, 1, 50, 0
3, 12336, Note_on_c, 1, 50, 93
3, 12384, Note_off_c, 1, 50, 0
3, 12384, Note_on_c, 1, 50, 93
3, 12432, Note_off_c, 1, 50, 0
3, 12432, Note_on_c, 1, 50, 93
3, 12480, Note_off_c, 1, 50, 0
3, 12480, Note_on_c, 1, 50, 93
3, 12528, Note_off_c, 1, 50, 0
3, 12528, Note_on_c, 1, 50, 93
3, 12624, Note_off_c, 1, 50, 0
3, 12624, Note_on_c, 1, 50, 93
3, 12672, Note_off_c, 1, 50, 0
3, 12672, Note_on_c, 1, 50, 93
3, 12768, Note_off_c, 1, 50, 0
3, 17424, Note_on_c, 1, 54, 93
3, 17448, Note_off_c, 1, 54, 0
3, 17448, Note_on_c, 1, 52, 93
3, 17472, Note_off_c, 1, 52, 0
3, 17472, Note_on_c, 1, 54, 93
3, 17520, Note_off_c, 1, 54, 0
3, 17520, Note_on_c, 1, 50, 93
3, 17568, Note_off_c, 1, 50, 0
3, 17568, Note_on_c, 1, 38, 93
3, 17592, Note_off_c, 1, 38, 0
3, 17592, Note_on_c, 1, 45, 93
3, 17616, Note_off_c, 1, 45, 0
3, 17616, Note_on_c, 1, 50, 93
3, 17664, Note_off_c, 1, 50, 0
3, 17664, Note_on_c, 1, 54, 93
3, 17712, Note_off_c, 1, 54, 0
3, 17712, Note_on_c, 1, 55, 93
3, 17736, Note_off_c, 1, 55, 0
3, 17736, Note_on_c, 1, 54, 93
3, 17760, Note_off_c, 1, 54, 0
3, 17760, Note_on_c, 1, 55, 93
3, 17808, Note_off_c, 1, 55, 0
3, 17808, Note_on_c, 1, 50, 93
3, 17856, Note_off_c, 1, 50, 0
3, 17856, Note_on_c, 1, 52, 93
3, 17880, Note_off_c, 1, 52, 0
3, 17880, Note_on_c, 1, 53, 93
3, 17904, Note_off_c, 1, 53, 0
3, 17904, Note_on_c, 1, 55, 93
3, 17928, Note_off_c, 1, 55, 0
3, 17928, Note_on_c, 1, 57, 93
3, 17952, Note_off_c, 1, 57, 0
3, 17952, Note_on_c, 1, 58, 93
3, 17976, Note_off_c, 1, 58, 0
3, 17976, Note_on_c, 1, 55, 93
3, 18000, Note_off_c, 1, 55, 0
3, 18000, Note_on_c, 1, 57, 93
3, 18024, Note_off_c, 1, 57, 0
3, 18024, Note_on_c, 1, 55, 93
3, 18048, Note_off_c, 1, 55, 0
3, 18048, Note_on_c, 1, 53, 93
3, 18072, Note_off_c, 1, 53, 0
3, 18072, Note_on_c, 1, 52, 93
3, 18096, Note_off_c, 1, 52, 0
3, 18096, Note_on_c, 1, 53, 93
3, 18120, Note_off_c, 1, 53, 0
3, 18120, Note_on_c, 1, 62, 93
3, 18144, Note_off_c, 1, 62, 0
3, 18144, Note_on_c, 1, 60, 93
3, 18168, Note_off_c, 1, 60, 0
3, 18168, Note_on_c, 1, 59, 93
3, 18192, Note_off_c, 1, 59, 0
3, 18192, Note_on_c, 1, 57, 93
3, 18216, Note_off_c, 1, 57, 0
3, 18216, Note_on_c, 1, 55, 93
3, 18240, Note_off_c, 1, 55, 0
3, 18240, Note_on_c, 1, 60, 93
3, 18264, Note_off_c, 1, 60, 0
3, 18264, Note_on_c, 1, 52, 93
3, 18288, Note_off_c, 1, 52, 0
3, 18288, Note_on_c, 1, 43, 93
3, 18312, Note_off_c, 1, 43, 0
3, 18312, Note_on_c, 1, 53, 93
3, 18336, Note_off_c, 1, 53, 0
3, 18336, Note_on_c, 1, 52, 93
3, 18360, Note_off_c, 1, 52, 0
3, 18360, Note_on_c, 1, 50, 93
3, 18384, Note_off_c, 1, 50, 0
3, 18384, Note_on_c, 1, 52, 93
3, 18408, Note_off_c, 1, 52, 0
3, 18408, Note_on_c, 1, 48, 93
3, 18432, Note_off_c, 1, 48, 0
3, 18432, Note_on_c, 1, 55, 93
3, 18528, Note_off_c, 1, 55, 0
3, 18528, Note_on_c, 1, 55, 93
3, 18576, Note_off_c, 1, 55, 0
3, 18576, Note_on_c, 1, 53, 93
3, 18600, Note_off_c, 1, 53, 0
3, 18624, Note_on_c, 1, 52, 93
3, 18648, Note_off_c, 1, 52, 0
3, 18672, Note_on_c, 1, 50, 93
3, 18696, Note_off_c, 1, 50, 0
3, 18720, Note_on_c, 1, 52, 93
3, 18744, Note_off_c, 1, 52, 0
3, 18768, Note_on_c, 1, 50, 93
3, 18792, Note_off_c, 1, 50, 0
3, 18816, Note_on_c, 1, 52, 93
3, 18840, Note_off_c, 1, 52, 0
3, 18864, Note_on_c, 1, 53, 93
3, 18888, Note_off_c, 1, 53, 0
3, 18912, Note_on_c, 1, 52, 93
3, 18936, Note_off_c, 1, 52, 0
3, 18960, Note_on_c, 1, 50, 93
3, 18984, Note_off_c, 1, 50, 0
3, 19008, Note_on_c, 1, 52, 93
3, 19032, Note_off_c, 1, 52, 0
3, 19056, Note_on_c, 1, 54, 93
3, 19080, Note_off_c, 1, 54, 0
3, 19104, Note_on_c, 1, 55, 93
3, 19128, Note_off_c, 1, 55, 0
3, 19152, Note_on_c, 1, 54, 93
3, 19176, Note_off_c, 1, 54, 0
3, 19200, Note_on_c, 1, 50, 93
3, 19224, Note_off_c, 1, 50, 0
3, 19248, Note_on_c, 1, 52, 93
3, 19272, Note_off_c, 1, 52, 0
3, 19296, Note_on_c, 1, 54, 93
3, 19320, Note_off_c, 1, 54, 0
3, 19344, Note_on_c, 1, 55, 93
3, 19368, Note_off_c, 1, 55, 0
3, 19392, Note_on_c, 1, 52, 93
3, 19416, Note_off_c, 1, 52, 0
3, 19440, Note_on_c, 1, 54, 93
3, 19464, Note_off_c, 1, 54, 0
3, 19488, Note_on_c, 1, 50, 93
3, 19512, Note_off_c, 1, 50, 0
3, 19536, Note_on_c, 1, 52, 93
3, 19560, Note_off_c, 1, 52, 0
3, 19584, Note_on_c, 1, 54, 93
3, 19608, Note_off_c, 1, 54, 0
3, 19632, Note_on_c, 1, 52, 93
3, 19656, Note_off_c, 1, 52, 0
3, 19680, Note_on_c, 1, 50, 93
3, 19704, Note_off_c, 1, 50, 0
3, 19752, Note_on_c, 1, 50, 93
3, 19776, Note_off_c, 1, 50, 0
3, 19800, Note_on_c, 1, 50, 93
3, 19824, Note_off_c, 1, 50, 0
3, 19848, Note_on_c, 1, 50, 93
3, 19872, Note_off_c, 1, 50, 0
3, 19896, Note_on_c, 1, 50, 93
3, 19920, Note_off_c, 1, 50, 0
3, 19944, Note_on_c, 1, 50, 93
3, 19968, Note_off_c, 1, 50, 0
3, 19992, Note_on_c, 1, 50, 93
3, 20016, Note_off_c, 1, 50, 0
3, 20040, Note_on_c, 1, 50, 93
3, 20064, Note_off_c, 1, 50, 0
3, 20088, Note_on_c, 1, 50, 93
3, 20112, Note_off_c, 1, 50, 0
3, 20160, Note_on_c, 1, 43, 93
3, 20256, Note_off_c, 1, 43, 0
3, 20304, Note_on_c, 1, 53, 93
3, 20328, Note_off_c, 1, 53, 0
3, 20328, Note_on_c, 1, 55, 93
3, 20352, Note_off_c, 1, 55, 0
3, 20352, Note_on_c, 1, 56, 93
3, 20400, Note_off_c, 1, 56, 0
3, 20400, Note_on_c, 1, 55, 93
3, 20448, Note_off_c, 1, 55, 0
3, 20448, Note_on_c, 1, 53, 93
3, 20496, Note_off_c, 1, 53, 0
3, 20496, Note_on_c, 1, 51, 93
3, 20544, Note_off_c, 1, 51, 0
3, 20544, Note_on_c, 1, 50, 93
3, 20592, Note_off_c, 1, 50, 0
3, 20592, Note_on_c, 1, 59, 93
3, 20640, Note_off_c, 1, 59, 0
3, 20640, Note_on_c, 1, 60, 93
3, 20688, Note_off_c, 1, 60, 0
3, 20688, Note_on_c, 1, 50, 93
3, 20736, Note_off_c, 1, 50, 0
3, 20736, Note_on_c, 1, 59, 93
3, 20784, Note_off_c, 1, 59, 0
3, 20784, Note_on_c, 1, 60, 93
3, 20832, Note_off_c, 1, 60, 0
3, 20832, Note_on_c, 1, 50, 93
3, 20880, Note_off_c, 1, 50, 0
3, 20880, Note_on_c, 1, 53, 93
3, 20904, Note_off_c, 1, 53, 0
3, 20904, Note_on_c, 1, 55, 93
3, 20928, Note_off_c, 1, 55, 0
3, 20928, Note_on_c, 1, 56, 93
3, 20976, Note_off_c, 1, 56, 0
3, 20976, Note_on_c, 1, 55, 93
3, 21024, Note_off_c, 1, 55, 0
3, 21024, Note_on_c, 1, 53, 93
3, 21072, Note_off_c, 1, 53, 0
3, 21072, Note_on_c, 1, 51, 93
3, 21120, Note_off_c, 1, 51, 0
3, 21120, Note_on_c, 1, 50, 93
3, 21168, Note_off_c, 1, 50, 0
3, 21168, Note_on_c, 1, 54, 93
3, 21216, Note_off_c, 1, 54, 0
3, 21216, Note_on_c, 1, 55, 93
3, 21264, Note_off_c, 1, 55, 0
3, 21264, Note_on_c, 1, 50, 93
3, 21312, Note_off_c, 1, 50, 0
3, 21312, Note_on_c, 1, 54, 93
3, 21360, Note_off_c, 1, 54, 0
3, 21360, Note_on_c, 1, 55, 93
3, 21384, Note_off_c, 1, 55, 0
3, 21384, Note_on_c, 1, 53, 93
3, 21408, Note_off_c, 1, 53, 0
3, 21408, Note_on_c, 1, 52, 93
3, 21432, Note_off_c, 1, 52, 0
3, 21432, Note_on_c, 1, 50, 93
3, 21456, Note_off_c, 1, 50, 0
3, 21456, Note_on_c, 1, 48, 93
3, 21480, Note_off_c, 1, 48, 0
3, 21480, Note_on_c, 1, 52, 93
3, 21504, Note_off_c, 1, 52, 0
3, 21504, Note_on_c, 1, 55, 93
3, 21552, Note_off_c, 1, 55, 0
3, 21552, Note_on_c, 1, 57, 93
3, 21600, Note_off_c, 1, 57, 0
3, 21600, Note_on_c, 1, 50, 93
3, 21624, Note_off_c, 1, 50, 0
3, 21624, Note_on_c, 1, 53, 93
3, 21648, Note_off_c, 1, 53, 0
3, 21648, Note_on_c, 1, 57, 93
3, 21696, Note_off_c, 1, 57, 0
3, 21696, Note_on_c, 1, 59, 93
3, 21744, Note_off_c, 1, 59, 0
3, 21744, Note_on_c, 1, 52, 93
3, 21768, Note_off_c, 1, 52, 0
3, 21768, Note_on_c, 1, 55, 93
3, 21792, Note_off_c, 1, 55, 0
3, 21792, Note_on_c, 1, 60, 93
3, 21816, Note_off_c, 1, 60, 0
3, 21816, Note_on_c, 1, 57, 93
3, 21840, Note_off_c, 1, 57, 0
3, 21840, Note_on_c, 1, 58, 93
3, 21864, Note_off_c, 1, 58, 0
3, 21864, Note_on_c, 1, 55, 93
3, 21888, Note_off_c, 1, 55, 0
3, 21888, Note_on_c, 1, 57, 93
3, 21912, Note_off_c, 1, 57, 0
3, 21912, Note_on_c, 1, 53, 93
3, 21936, Note_off_c, 1, 53, 0
3, 21936, Note_on_c, 1, 50, 93
3, 21960, Note_off_c, 1, 50, 0
3, 21960, Note_on_c, 1, 53, 93
3, 21984, Note_off_c, 1, 53, 0
3, 21984, Note_on_c, 1, 52, 93
3, 22008, Note_off_c, 1, 52, 0
3, 22008, Note_on_c, 1, 50, 93
3, 22032, Note_off_c, 1, 50, 0
3, 22032, Note_on_c, 1, 55, 93
3, 22056, Note_off_c, 1, 55, 0
3, 22056, Note_on_c, 1, 50, 93
3, 22080, Note_off_c, 1, 50, 0
3, 22080, Note_on_c, 1, 47, 93
3, 22104, Note_off_c, 1, 47, 0
3, 22104, Note_on_c, 1, 45, 93
3, 22128, Note_off_c, 1, 45, 0
3, 22128, Note_on_c, 1, 43, 93
3, 22152, Note_off_c, 1, 43, 0
3, 22152, Note_on_c, 1, 41, 93
3, 22176, Note_off_c, 1, 41, 0
3, 22176, Note_on_c, 1, 40, 93
3, 22200, Note_off_c, 1, 40, 0
3, 22200, Note_on_c, 1, 43, 93
3, 22224, Note_off_c, 1, 43, 0
3, 22224, Note_on_c, 1, 48, 93
3, 22248, Note_off_c, 1, 48, 0
3, 22248, Note_on_c, 1, 40, 93
3, 22272, Note_off_c, 1, 40, 0
3, 22272, Note_on_c, 1, 38, 93
3, 22296, Note_off_c, 1, 38, 0
3, 22296, Note_on_c, 1, 47, 93
3, 22320, Note_off_c, 1, 47, 0
3, 22320, Note_on_c, 1, 48, 93
3, 22368, Note_off_c, 1, 48, 0
3, 22368, Note_on_c, 1, 52, 93
3, 22416, Note_off_c, 1, 52, 0
3, 22416, Note_on_c, 1, 55, 93
3, 22464, Note_off_c, 1, 55, 0
3, 22464, Note_on_c, 1, 60, 93
3, 22560, Note_off_c, 1, 60, 0
3, 26064, Note_on_c, 1, 54, 93
3, 26088, Note_off_c, 1, 54, 0
3, 26088, Note_on_c, 1, 52, 93
3, 26112, Note_off_c, 1, 52, 0
3, 26112, Note_on_c, 1, 54, 93
3, 26160, Note_off_c, 1, 54, 0
3, 26160, Note_on_c, 1, 50, 93
3, 26208, Note_off_c, 1, 50, 0
3, 26208, Note_on_c, 1, 38, 93
3, 26232, Note_off_c, 1, 38, 0
3, 26232, Note_on_c, 1, 45, 93
3, 26256, Note_off_c, 1, 45, 0
3, 26256, Note_on_c, 1, 50, 93
3, 26304, Note_off_c, 1, 50, 0
3, 26304, Note_on_c, 1, 54, 93
3, 26352, Note_off_c, 1, 54, 0
3, 26352, Note_on_c, 1, 55, 93
3, 26376, Note_off_c, 1, 55, 0
3, 26376, Note_on_c, 1, 54, 93
3, 26400, Note_off_c, 1, 54, 0
3, 26400, Note_on_c, 1, 55, 93
3, 26448, Note_off_c, 1, 55, 0
3, 26448, Note_on_c, 1, 50, 93
3, 26496, Note_off_c, 1, 50, 0
3, 26496, Note_on_c, 1, 52, 93
3, 26520, Note_off_c, 1, 52, 0
3, 26520, Note_on_c, 1, 53, 93
3, 26544, Note_off_c, 1, 53, 0
3, 26544, Note_on_c, 1, 55, 93
3, 26568, Note_off_c, 1, 55, 0
3, 26568, Note_on_c, 1, 57, 93
3, 26592, Note_off_c, 1, 57, 0
3, 26592, Note_on_c, 1, 58, 93
3, 26616, Note_off_c, 1, 58, 0
3, 26616, Note_on_c, 1, 55, 93
3, 26640, Note_off_c, 1, 55, 0
3, 26640, Note_on_c, 1, 57, 93
3, 26664, Note_off_c, 1, 57, 0
3, 26664, Note_on_c, 1, 55, 93
3, 26688, Note_off_c, 1, 55, 0
3, 26688, Note_on_c, 1, 53, 93
3, 26712, Note_off_c, 1, 53, 0
3, 26712, Note_on_c, 1, 52, 93
3, 26736, Note_off_c, 1, 52, 0
3, 26736, Note_on_c, 1, 53, 93
3, 26760, Note_off_c, 1, 53, 0
3, 26760, Note_on_c, 1, 62, 93
3, 26784, Note_off_c, 1, 62, 0
3, 26784, Note_on_c, 1, 60, 93
3, 26808, Note_off_c, 1, 60, 0
3, 26808, Note_on_c, 1, 59, 93
3, 26832, Note_off_c, 1, 59, 0
3, 26832, Note_on_c, 1, 57, 93
3, 26856, Note_off_c, 1, 57, 0
3, 26856, Note_on_c, 1, 55, 93
3, 26880, Note_off_c, 1, 55, 0
3, 26880, Note_on_c, 1, 60, 93
3, 26904, Note_off_c, 1, 60, 0
3, 26904, Note_on_c, 1, 52, 93
3, 26928, Note_off_c, 1, 52, 0
3, 26928, Note_on_c, 1, 43, 93
3, 26952, Note_off_c, 1, 43, 0
3, 26952, Note_on_c, 1, 53, 93
3, 26976, Note_off_c, 1, 53, 0
3, 26976, Note_on_c, 1, 52, 93
3, 27000, Note_off_c, 1, 52, 0
3, 27000, Note_on_c, 1, 50, 93
3, 27024, Note_off_c, 1, 50, 0
3, 27024, Note_on_c, 1, 52, 93
3, 27048, Note_off_c, 1, 52, 0
3, 27048, Note_on_c, 1, 48, 93
3, 27072, Note_off_c, 1, 48, 0
3, 27072, Note_on_c, 1, 55, 93
3, 27168, Note_off_c, 1, 55, 0
3, 27168, Note_on_c, 1, 55, 93
3, 27216, Note_off_c, 1, 55, 0
3, 27216, Note_on_c, 1, 53, 93
3, 27240, Note_off_c, 1, 53, 0
3, 27264, Note_on_c, 1, 52, 93
3, 27288, Note_off_c, 1, 52, 0
3, 27312, Note_on_c, 1, 50, 93
3, 27336, Note_off_c, 1, 50, 0
3, 27360, Note_on_c, 1, 52, 93
3, 27384, Note_off_c, 1, 52, 0
3, 27408, Note_on_c, 1, 50, 93
3, 27432, Note_off_c, 1, 50, 0
3, 27456, Note_on_c, 1, 52, 93
3, 27480, Note_off_c, 1, 52, 0
3, 27504, Note_on_c, 1, 53, 93
3, 27528, Note_off_c, 1, 53, 0
3, 27552, Note_on_c, 1, 52, 93
3, 27576, Note_off_c, 1, 52, 0
3, 27600, Note_on_c, 1, 50, 93
3, 27624, Note_off_c, 1, 50, 0
3, 27648, Note_on_c, 1, 52, 93
3, 27672, Note_off_c, 1, 52, 0
3, 27696, Note_on_c, 1, 54, 93
3, 27720, Note_off_c, 1, 54, 0
3, 27744, Note_on_c, 1, 55, 93
3, 27768, Note_off_c, 1, 55, 0
3, 27792, Note_on_c, 1, 54, 93
3, 27816, Note_off_c, 1, 54, 0
3, 27840, Note_on_c, 1, 50, 93
3, 27864, Note_off_c, 1, 50, 0
3, 27888, Note_on_c, 1, 52, 93
3, 27912, Note_off_c, 1, 52, 0
3, 27936, Note_on_c, 1, 54, 93
3, 27960, Note_off_c, 1, 54, 0
3, 27984, Note_on_c, 1, 55, 93
3, 28008, Note_off_c, 1, 55, 0
3, 28032, Note_on_c, 1, 52, 93
3, 28056, Note_off_c, 1, 52, 0
3, 28080, Note_on_c, 1, 54, 93
3, 28104, Note_off_c, 1, 54, 0
3, 28128, Note_on_c, 1, 50, 93
3, 28152, Note_off_c, 1, 50, 0
3, 28176, Note_on_c, 1, 52, 93
3, 28200, Note_off_c, 1, 52, 0
3, 28224, Note_on_c, 1, 54, 93
3, 28248, Note_off_c, 1, 54, 0
3, 28272, Note_on_c, 1, 52, 93
3, 28296, Note_off_c, 1, 52, 0
3, 28320, Note_on_c, 1, 50, 93
3, 28344, Note_off_c, 1, 50, 0
3, 28392, Note_on_c, 1, 50, 93
3, 28416, Note_off_c, 1, 50, 0
3, 28440, Note_on_c, 1, 50, 93
3, 28464, Note_off_c, 1, 50, 0
3, 28488, Note_on_c, 1, 50, 93
3, 28512, Note_off_c, 1, 50, 0
3, 28536, Note_on_c, 1, 50, 93
3, 28560, Note_off_c, 1, 50, 0
3, 28584, Note_on_c, 1, 50, 93
3, 28608, Note_off_c, 1, 50, 0
3, 28632, Note_on_c, 1, 50, 93
3, 28656, Note_off_c, 1, 50, 0
3, 28680, Note_on_c, 1, 50, 93
3, 28704, Note_off_c, 1, 50, 0
3, 28728, Note_on_c, 1, 50, 93
3, 28752, Note_off_c, 1, 50, 0
3, 28800, Note_on_c, 1, 43, 93
3, 28896, Note_off_c, 1, 43, 0
3, 28944, Note_on_c, 1, 53, 93
3, 28968, Note_off_c, 1, 53, 0
3, 28968, Note_on_c, 1, 55, 93
3, 28992, Note_off_c, 1, 55, 0
3, 28992, Note_on_c, 1, 56, 93
3, 29040, Note_off_c, 1, 56, 0
3, 29040, Note_on_c, 1, 55, 93
3, 29088, Note_off_c, 1, 55, 0
3, 29088, Note_on_c, 1, 53, 93
3, 29136, Note_off_c, 1, 53, 0
3, 29136, Note_on_c, 1, 51, 93
3, 29184, Note_off_c, 1, 51, 0
3, 29184, Note_on_c, 1, 50, 93
3, 29232, Note_off_c, 1, 50, 0
3, 29232, Note_on_c, 1, 59, 93
3, 29280, Note_off_c, 1, 59, 0
3, 29280, Note_on_c, 1, 60, 93
3, 29328, Note_off_c, 1, 60, 0
3, 29328, Note_on_c, 1, 50, 93
3, 29376, Note_off_c, 1, 50, 0
3, 29376, Note_on_c, 1, 59, 93
3, 29424, Note_off_c, 1, 59, 0
3, 29424, Note_on_c, 1, 60, 93
3, 29472, Note_off_c, 1, 60, 0
3, 29472, Note_on_c, 1, 50, 93
3, 29520, Note_off_c, 1, 50, 0
3, 29520, Note_on_c, 1, 53, 93
3, 29544, Note_off_c, 1, 53, 0
3, 29544, Note_on_c, 1, 55, 93
3, 29568, Note_off_c, 1, 55, 0
3, 29568, Note_on_c, 1, 56, 93
3, 29616, Note_off_c, 1, 56, 0
3, 29616, Note_on_c, 1, 55, 93
3, 29664, Note_off_c, 1, 55, 0
3, 29664, Note_on_c, 1, 53, 93
3, 29712, Note_off_c, 1, 53, 0
3, 29712, Note_on_c, 1, 51, 93
3, 29760, Note_off_c, 1, 51, 0
3, 29760, Note_on_c, 1, 50, 93
3, 29808, Note_off_c, 1, 50, 0
3, 29808, Note_on_c, 1, 54, 93
3, 29856, Note_off_c, 1, 54, 0
3, 29856, Note_on_c, 1, 55, 93
3, 29904, Note_off_c, 1, 55, 0
3, 29904, Note_on_c, 1, 50, 93
3, 29952, Note_off_c, 1, 50, 0
3, 29952, Note_on_c, 1, 54, 93
3, 30000, Note_off_c, 1, 54, 0
3, 30000, Note_on_c, 1, 55, 93
3, 30024, Note_off_c, 1, 55, 0
3, 30024, Note_on_c, 1, 53, 93
3, 30048, Note_off_c, 1, 53, 0
3, 30048, Note_on_c, 1, 52, 93
3, 30072, Note_off_c, 1, 52, 0
3, 30072, Note_on_c, 1, 50, 93
3, 30096, Note_off_c, 1, 50, 0
3, 30096, Note_on_c, 1, 48, 93
3, 30120, Note_off_c, 1, 48, 0
3, 30120, Note_on_c, 1, 52, 93
3, 30144, Note_off_c, 1, 52, 0
3, 30144, Note_on_c, 1, 55, 93
3, 30192, Note_off_c, 1, 55, 0
3, 30192, Note_on_c, 1, 57, 93
3, 30240, Note_off_c, 1, 57, 0
3, 30240, Note_on_c, 1, 50, 93
3, 30264, Note_off_c, 1, 50, 0
3, 30264, Note_on_c, 1, 53, 93
3, 30288, Note_off_c, 1, 53, 0
3, 30288, Note_on_c, 1, 57, 93
3, 30336, Note_off_c, 1, 57, 0
3, 30336, Note_on_c, 1, 59, 93
3, 30384, Note_off_c, 1, 59, 0
3, 30384, Note_on_c, 1, 52, 93
3, 30408, Note_off_c, 1, 52, 0
3, 30408, Note_on_c, 1, 55, 93
3, 30432, Note_off_c, 1, 55, 0
3, 30432, Note_on_c, 1, 60, 93
3, 30456, Note_off_c, 1, 60, 0
3, 30456, Note_on_c, 1, 57, 93
3, 30480, Note_off_c, 1, 57, 0
3, 30480, Note_on_c, 1, 58, 93
3, 30504, Note_off_c, 1, 58, 0
3, 30504, Note_on_c, 1, 55, 93
3, 30528, Note_off_c, 1, 55, 0
3, 30528, Note_on_c, 1, 57, 93
3, 30552, Note_off_c, 1, 57, 0
3, 30552, Note_on_c, 1, 53, 93
3, 30576, Note_off_c, 1, 53, 0
3, 30576, Note_on_c, 1, 50, 93
3, 30600, Note_off_c, 1, 50, 0
3, 30600, Note_on_c, 1, 53, 93
3, 30624, Note_off_c, 1, 53, 0
3, 30624, Note_on_c, 1, 52, 93
3, 30648, Note_off_c, 1, 52, 0
3, 30648, Note_on_c, 1, 50, 93
3, 30672, Note_off_c, 1, 50, 0
3, 30672, Note_on_c, 1, 55, 93
3, 30696, Note_off_c, 1, 55, 0
3, 30696, Note_on_c, 1, 50, 93
3, 30720, Note_off_c, 1, 50, 0
3, 30720, Note_on_c, 1, 47, 93
3, 30744, Note_off_c, 1, 47, 0
3, 30744, Note_on_c, 1, 45, 93
3, 30768, Note_off_c, 1, 45, 0
3, 30768, Note_on_c, 1, 43, 93
3, 30792, Note_off_c, 1, 43, 0
3, 30792, Note_on_c, 1, 41, 93
3, 30816, Note_off_c, 1, 41, 0
3, 30816, Note_on_c, 1, 40, 93
3, 30840, Note_off_c, 1, 40, 0
3, 30840, Note_on_c, 1, 43, 93
3, 30864, Note_off_c, 1, 43, 0
3, 30864, Note_on_c, 1, 48, 93
3, 30888, Note_off_c, 1, 48, 0
3, 30888, Note_on_c, 1, 40, 93
3, 30912, Note_off_c, 1, 40, 0
3, 30912, Note_on_c, 1, 38, 93
3, 30936, Note_off_c, 1, 38, 0
3, 30936, Note_on_c, 1, 47, 93
3, 30960, Note_off_c, 1, 47, 0
3, 30960, Note_on_c, 1, 48, 93
3, 31008, Note_off_c, 1, 48, 0
3, 31008, Note_on_c, 1, 52, 93
3, 31056, Note_off_c, 1, 52, 0
3, 31056, Note_on_c, 1, 55, 93
3, 31104, Note_off_c, 1, 55, 0
3, 31104, Note_on_c, 1, 60, 93
3, 31200, Note_off_c, 1, 60, 0
3, 31200, End_track
4, 0, Start_track
4, 0, Title_t, "Track4"
4, 0, Program_c, 2, 42
4, 0, Control_c, 2, 7, 100
4, 0, Control_c, 2, 10, 54
4, 18600, Note_on_c, 2, 43, 93
4, 18624, Note_off_c, 2, 43, 0
4, 18648, Note_on_c, 2, 43, 93
4, 18672, Note_off_c, 2, 43, 0
4, 18696, Note_on_c, 2, 43, 93
4, 18720, Note_off_c, 2, 43, 0
4, 18744, Note_on_c, 2, 43, 93
4, 18768, Note_off_c, 2, 43, 0
4, 18792, Note_on_c, 2, 43, 93
4, 18816, Note_off_c, 2, 43, 0
4, 18840, Note_on_c, 2, 43, 93
4, 18864, Note_off_c, 2, 43, 0
4, 18888, Note_on_c, 2, 43, 93
4, 18912, Note_off_c, 2, 43, 0
4, 18936, Note_on_c, 2, 43, 93
4, 18960, Note_off_c, 2, 43, 0
4, 18984, Note_on_c, 2, 43, 93
4, 19008, Note_off_c, 2, 43, 0
4, 19032, Note_on_c, 2, 43, 93
4, 19056, Note_off_c, 2, 43, 0
4, 19080, Note_on_c, 2, 43, 93
4, 19104, Note_off_c, 2, 43, 0
4, 19128, Note_on_c, 2, 43, 93
4, 19152, Note_off_c, 2, 43, 0
4, 19152, Note_on_c, 2, 43, 93
4, 19200, Note_off_c, 2, 43, 0
4, 19440, Note_on_c, 2, 43, 93
4, 19488, Note_off_c, 2, 43, 0
4, 22464, Note_on_c, 2, 43, 93
4, 22560, Note_off_c, 2, 43, 0
4, 27240, Note_on_c, 2, 43, 93
4, 27264, Note_off_c, 2, 43, 0
4, 27288, Note_on_c, 2, 43, 93
4, 27312, Note_off_c, 2, 43, 0
4, 27336, Note_on_c, 2, 43, 93
4, 27360, Note_off_c, 2, 43, 0
4, 27384, Note_on_c, 2, 43, 93
4, 27408, Note_off_c, 2, 43, 0
4, 27432, Note_on_c, 2, 43, 93
4, 27456, Note_off_c, 2, 43, 0
4, 27480, Note_on_c, 2, 43, 93
4, 27504, Note_off_c, 2, 43, 0
4, 27528, Note_on_c, 2, 43, 93
4, 27552, Note_off_c, 2, 43, 0
4, 27576, Note_on_c, 2, 43, 93
4, 27600, Note_off_c, 2, 43, 0
4, 27624, Note_on_c, 2, 43, 93
4, 27648, Note_off_c, 2, 43, 0
4, 27672, Note_on_c, 2, 43, 93
4, 27696, Note_off_c, 2, 43, 0
4, 27720, Note_on_c, 2, 43, 93
4, 27744, Note_off_c, 2, 43, 0
4, 27768, Note_on_c, 2, 43, 93
4, 27792, Note_off_c, 2, 43, 0
4, 27792, Note_on_c, 2, 43, 93
4, 27840, Note_off_c, 2, 43, 0
4, 28080, Note_on_c, 2, 43, 93
4, 28128, Note_off_c, 2, 43, 0
4, 31104, Note_on_c, 2, 43, 93
4, 31200, Note_off_c, 2, 43, 0
4, 31200, End_track
5, 0, Start_track
5, 0, Title_t, "Track5"
5, 0, Program_c, 3, 42
5, 0, Control_c, 3, 7, 100
5, 0, Control_c, 3, 10, 44
5, 22464, Note_on_c, 3, 36, 93
5, 22560, Note_off_c, 3, 36, 0
5, 31104, Note_on_c, 3, 36, 93
5, 31200, Note_off_c, 3, 36, 0
5, 31200, End_track
0, 0, End_of_file
