0, 0, Header, 1, 4, 96
1, 0, Start_track
1, 0, Time_signature, 4, 2, 24, 8
1, 0, Title_t, "untitled"
1, 0, Title_t, "Track1"
1, 0, Tempo, 240000
1, 240, Tempo, 461538
1, 240, End_track
2, 0, Start_track
2, 0, Title_t, "Track2"
2, 0, Program_c, 0, 42
2, 0, Control_c, 0, 7, 100
2, 0, Control_c, 0, 10, 64
2, 240, Note_on_c, 0, 51, 93
2, 288, Note_off_c, 0, 51, 0
2, 288, Note_on_c, 0, 51, 93
2, 336, Note_off_c, 0, 51, 0
2, 336, Note_on_c, 0, 46, 93
2, 384, Note_off_c, 0, 46, 0
2, 384, Note_on_c, 0, 48, 93
2, 432, Note_off_c, 0, 48, 0
2, 432, Note_on_c, 0, 44, 93
2, 480, Note_off_c, 0, 44, 0
2, 480, Note_on_c, 0, 41, 93
2, 528, Note_off_c, 0, 41, 0
2, 528, Note_on_c, 0, 50, 93
2, 576, Note_off_c, 0, 50, 0
2, 576, Note_on_c, 0, 51, 93
2, 672, Note_off_c, 0, 51, 0
2, 672, Note_on_c, 0, 39, 93
2, 696, Note_off_c, 0, 39, 0
2, 696, Note_on_c, 0, 50, 93
2, 720, Note_off_c, 0, 50, 0
2, 720, Note_on_c, 0, 51, 93
2, 744, Note_off_c, 0, 51, 0
2, 744, Note_on_c, 0, 53, 93
2, 768, Note_off_c, 0, 53, 0
2, 768, Note_on_c, 0, 55, 93
2, 792, Note_off_c, 0, 55, 0
2, 792, Note_on_c, 0, 53, 93
2, 816, Note_off_c, 0, 53, 0
2, 816, Note_on_c, 0, 55, 93
2, 840, Note_off_c, 0, 55, 0
2, 840, Note_on_c, 0, 57, 93
2, 864, Note_off_c, 0, 57, 0
2, 864, Note_on_c, 0, 58, 93
2, 912, Note_off_c, 0, 58, 0
2, 912, Note_on_c, 0, 53, 93
2, 960, Note_off_c, 0, 53, 0
2, 960, Note_on_c, 0, 55, 93
2, 1008, Note_off_c, 0, 55, 0
2, 1008, Note_on_c, 0, 51, 93
2, 1056, Note_off_c, 0, 51, 0
2, 1056, Note_on_c, 0, 48, 93
2, 1104, Note_off_c, 0, 48, 0
2, 1104, Note_on_c, 0, 57, 93
2, 1152, Note_off_c, 0, 57, 0
2, 1152, Note_on_c, 0, 58, 93
2, 1248, Note_off_c, 0, 58, 0
2, 1248, Note_on_c, 0, 46, 93
2, 1296, Note_off_c, 0, 46, 0
2, 1296, Note_on_c, 0, 44, 93
2, 1344, Note_off_c, 0, 44, 0
2, 1344, Note_on_c, 0, 43, 93
2, 1392, Note_off_c, 0, 43, 0
2, 1392, Note_on_c, 0, 51, 93
2, 1440, Note_off_c, 0, 51, 0
2, 1440, Note_on_c, 0, 44, 93
2, 1470, Note_off_c, 0, 44, 0
2, 1470, Note_on_c, 0, 46, 93
2, 1506, Note_off_c, 0, 46, 0
2, 1506, Note_on_c, 0, 48, 93
2, 1536, Note_off_c, 0, 48, 0
2, 1536, Note_on_c, 0, 48, 93
2, 1566, Note_off_c, 0, 48, 0
2, 1566, Note_on_c, 0, 50, 93
2, 1602, Note_off_c, 0, 50, 0
2, 1602, Note_on_c, 0, 51, 93
2, 1632, Note_off_c, 0, 51, 0
2, 1632, Note_on_c, 0, 53, 93
2, 1662, Note_off_c, 0, 53, 0
2, 1662, Note_on_c, 0, 55, 93
2, 1698, Note_off_c, 0, 55, 0
2, 1698, Note_on_c, 0, 56, 93
2, 1728, Note_off_c, 0, 56, 0
2, 1728, Note_on_c, 0, 43, 93
2, 1758, Note_off_c, 0, 43, 0
2, 1758, Note_on_c, 0, 44, 93
2, 1794, Note_off_c, 0, 44, 0
2, 1794, Note_on_c, 0, 46, 93
2, 1824, Note_off_c, 0, 46, 0
2, 1824, Note_on_c, 0, 46, 93
2, 1854, Note_off_c, 0, 46, 0
2, 1854, Note_on_c, 0, 48, 93
2, 1890, Note_off_c, 0, 48, 0
2, 1890, Note_on_c, 0, 50, 93
2, 1920, Note_off_c, 0, 50, 0
2, 1920, Note_on_c, 0, 51, 93
2, 1950, Note_off_c, 0, 51, 0
2, 1950, Note_on_c, 0, 53, 93
2, 1986, Note_off_c, 0, 53, 0
2, 1986, Note_on_c, 0, 55, 93
2, 2016, Note_off_c, 0, 55, 0
2, 2016, Note_on_c, 0, 53, 93
2, 2046, Note_off_c, 0, 53, 0
2, 2046, Note_on_c, 0, 55, 93
2, 2082, Note_off_c, 0, 55, 0
2, 2082, Note_on_c, 0, 56, 93
2, 2112, Note_off_c, 0, 56, 0
2, 2112, Note_on_c, 0, 55, 93
2, 2142, Note_off_c, 0, 55, 0
2, 2142, Note_on_c, 0, 53, 93
2, 2178, Note_off_c, 0, 53, 0
2, 2178, Note_on_c, 0, 51, 93
2, 2208, Note_off_c, 0, 51, 0
2, 2208, Note_on_c, 0, 46, 93
2, 2238, Note_off_c, 0, 46, 0
2, 2238, Note_on_c, 0, 51, 93
2, 2274, Note_off_c, 0, 51, 0
2, 2274, Note_on_c, 0, 50, 93
2, 2304, Note_off_c, 0, 50, 0
2, 2304, Note_on_c, 0, 51, 93
2, 2400, Note_off_c, 0, 51, 0
2, 2400, Note_on_c, 0, 39, 93
2, 2424, Note_off_c, 0, 39, 0
2, 2424, Note_on_c, 0, 46, 93
2, 2448, Note_off_c, 0, 46, 0
2, 2448, Note_on_c, 0, 48, 93
2, 2472, Note_off_c, 0, 48, 0
2, 2472, Note_on_c, 0, 50, 93
2, 2496, Note_off_c, 0, 50, 0
2, 2496, Note_on_c, 0, 51, 93
2, 2520, Note_off_c, 0, 51, 0
2, 2520, Note_on_c, 0, 50, 93
2, 2544, Note_off_c, 0, 50, 0
2, 2544, Note_on_c, 0, 51, 93
2, 2568, Note_off_c, 0, 51, 0
2, 2568, Note_on_c, 0, 53, 93
2, 2592, Note_off_c, 0, 53, 0
2, 2592, Note_on_c, 0, 55, 93
2, 2640, Note_off_c, 0, 55, 0
2, 2640, Note_on_c, 0, 51, 93
2, 2688, Note_off_c, 0, 51, 0
2, 2688, Note_on_c, 0, 55, 93
2, 2736, Note_off_c, 0, 55, 0
2, 2736, Note_on_c, 0, 50, 93
2, 2784, Note_off_c, 0, 50, 0
2, 2784, Note_on_c, 0, 48, 93
2, 2832, Note_off_c, 0, 48, 0
2, 2832, Note_on_c, 0, 58, 93
2, 2880, Note_off_c, 0, 58, 0
2, 2880, Note_on_c, 0, 57, 93
2, 2976, Note_off_c, 0, 57, 0
2, 2976, Note_on_c, 0, 39, 93
2, 3000, Note_off_c, 0, 39, 0
2, 3000, Note_on_c, 0, 48, 93
2, 3024, Note_off_c, 0, 48, 0
2, 3024, Note_on_c, 0, 50, 93
2, 3048, Note_off_c, 0, 50, 0
2, 3048, Note_on_c, 0, 51, 93
2, 3072, Note_off_c, 0, 51, 0
2, 3072, Note_on_c, 0, 53, 93
2, 3096, Note_off_c, 0, 53, 0
2, 3096, Note_on_c, 0, 51, 93
2, 3120, Note_off_c, 0, 51, 0
2, 3120, Note_on_c, 0, 53, 93
2, 3144, Note_off_c, 0, 53, 0
2, 3144, Note_on_c, 0, 55, 93
2, 3168, Note_off_c, 0, 55, 0
2, 3168, Note_on_c, 0, 57, 93
2, 3216, Note_off_c, 0, 57, 0
2, 3216, Note_on_c, 0, 53, 93
2, 3264, Note_off_c, 0, 53, 0
2, 3264, Note_on_c, 0, 57, 93
2, 3312, Note_off_c, 0, 57, 0
2, 3312, Note_on_c, 0, 51, 93
2, 3360, Note_off_c, 0, 51, 0
2, 3360, Note_on_c, 0, 50, 93
2, 3408, Note_off_c, 0, 50, 0
2, 3408, Note_on_c, 0, 60, 93
2, 3456, Note_off_c, 0, 60, 0
2, 3456, Note_on_c, 0, 58, 93
2, 3552, Note_off_c, 0, 58, 0
2, 3552, Note_on_c, 0, 38, 93
2, 3576, Note_off_c, 0, 38, 0
2, 3576, Note_on_c, 0, 50, 93
2, 3600, Note_off_c, 0, 50, 0
2, 3600, Note_on_c, 0, 51, 93
2, 3624, Note_off_c, 0, 51, 0
2, 3624, Note_on_c, 0, 53, 93
2, 3648, Note_off_c, 0, 53, 0
2, 3648, Note_on_c, 0, 55, 93
2, 3672, Note_off_c, 0, 55, 0
2, 3672, Note_on_c, 0, 53, 93
2, 3696, Note_off_c, 0, 53, 0
2, 3696, Note_on_c, 0, 55, 93
2, 3720, Note_off_c, 0, 55, 0
2, 3720, Note_on_c, 0, 57, 93
2, 3744, Note_off_c, 0, 57, 0
2, 3744, Note_on_c, 0, 58, 93
2, 3792, Note_off_c, 0, 58, 0
2, 3792, Note_on_c, 0, 55, 93
2, 3840, Note_off_c, 0, 55, 0
2, 3840, Note_on_c, 0, 58, 93
2, 3888, Note_off_c, 0, 58, 0
2, 3888, Note_on_c, 0, 53, 93
2, 3936, Note_off_c, 0, 53, 0
2, 3936, Note_on_c, 0, 51, 93
2, 3984, Note_off_c, 0, 51, 0
2, 3984, Note_on_c, 0, 62, 93
2, 4032, Note_off_c, 0, 62, 0
2, 4032, Note_on_c, 0, 60, 93
2, 4080, Note_off_c, 0, 60, 0
2, 4080, Note_on_c, 0, 57, 93
2, 4128, Note_off_c, 0, 57, 0
2, 4128, Note_on_c, 0, 60, 93
2, 4176, Note_off_c, 0, 60, 0
2, 4176, Note_on_c, 0, 55, 93
2, 4224, Note_off_c, 0, 55, 0
2, 4224, Note_on_c, 0, 53, 93
2, 4272, Note_off_c, 0, 53, 0
2, 4272, Note_on_c, 0, 63, 93
2, 4320, Note_off_c, 0, 63, 0
2, 4320, Note_on_c, 0, 62, 93
2, 4368, Note_off_c, 0, 62, 0
2, 4368, Note_on_c, 0, 58, 93
2, 4416, Note_off_c, 0, 58, 0
2, 4416, Note_on_c, 0, 62, 93
2, 4464, Note_off_c, 0, 62, 0
2, 4464, Note_on_c, 0, 57, 93
2, 4512, Note_off_c, 0, 57, 0
2, 4512, Note_on_c, 0, 55, 93
2, 4560, Note_off_c, 0, 55, 0
2, 4560, Note_on_c, 0, 65, 93
2, 4608, Note_off_c, 0, 65, 0
2, 4608, Note_on_c, 0, 63, 93
2, 4656, Note_off_c, 0, 63, 0
2, 4656, Note_on_c, 0, 60, 93
2, 4704, Note_off_c, 0, 60, 0
2, 4704, Note_on_c, 0, 63, 93
2, 4752, Note_off_c, 0, 63, 0
2, 4752, Note_on_c, 0, 57, 93
2, 4800, Note_off_c, 0, 57, 0
2, 4800, Note_on_c, 0, 53, 93
2, 4848, Note_off_c, 0, 53, 0
2, 4848, Note_on_c, 0, 63, 93
2, 4896, Note_off_c, 0, 63, 0
2, 4896, Note_on_c, 0, 62, 93
2, 4944, Note_off_c, 0, 62, 0
2, 4944, Note_on_c, 0, 58, 93
2, 4992, Note_off_c, 0, 58, 0
2, 4992, Note_on_c, 0, 62, 93
2, 5040, Note_off_c, 0, 62, 0
2, 5040, Note_on_c, 0, 55, 93
2, 5088, Note_off_c, 0, 55, 0
2, 5088, Note_on_c, 0, 51, 93
2, 5136, Note_off_c, 0, 51, 0
2, 5136, Note_on_c, 0, 60, 93
2, 5184, Note_off_c, 0, 60, 0
2, 5184, Note_on_c, 0, 57, 93
2, 5310, Note_off_c, 0, 57, 0
2, 5310, Note_on_c, 0, 53, 93
2, 5346, Note_off_c, 0, 53, 0
2, 5346, Note_on_c, 0, 55, 93
2, 5376, Note_off_c, 0, 55, 0
2, 5376, Note_on_c, 0, 57, 93
2, 5406, Note_off_c, 0, 57, 0
2, 5406, Note_on_c, 0, 58, 93
2, 5442, Note_off_c, 0, 58, 0
2, 5442, Note_on_c, 0, 60, 93
2, 5472, Note_off_c, 0, 60, 0
2, 5472, Note_on_c, 0, 60, 93
2, 5598, Note_off_c, 0, 60, 0
2, 5598, Note_on_c, 0, 57, 93
2, 5634, Note_off_c, 0, 57, 0
2, 5634, Note_on_c, 0, 58, 93
2, 5664, Note_off_c, 0, 58, 0
2, 5664, Note_on_c, 0, 60, 93
2, 5694, Note_off_c, 0, 60, 0
2, 5694, Note_on_c, 0, 62, 93
2, 5730, Note_off_c, 0, 62, 0
2, 5730, Note_on_c, 0, 63, 93
2, 5760, Note_off_c, 0, 63, 0
2, 5760, Note_on_c, 0, 63, 93
2, 5886, Note_off_c, 0, 63, 0
2, 5886, Note_on_c, 0, 60, 93
2, 5922, Note_off_c, 0, 60, 0
2, 5922, Note_on_c, 0, 62, 93
2, 5952, Note_off_c, 0, 62, 0
2, 5952, Note_on_c, 0, 63, 93
2, 5982, Note_off_c, 0, 63, 0
2, 5982, Note_on_c, 0, 65, 93
2, 6018, Note_off_c, 0, 65, 0
2, 6018, Note_on_c, 0, 67, 93
2, 6048, Note_off_c, 0, 67, 0
2, 6048, Note_on_c, 0, 67, 93
2, 6144, Note_off_c, 0, 67, 0
2, 6144, Note_on_c, 0, 65, 93
2, 6192, Note_off_c, 0, 65, 0
2, 6192, Note_on_c, 0, 63, 93
2, 6240, Note_off_c, 0, 63, 0
2, 6240, Note_on_c, 0, 62, 93
2, 6288, Note_off_c, 0, 62, 0
2, 6288, Note_on_c, 0, 60, 93
2, 6336, Note_off_c, 0, 60, 0
2, 6336, Note_on_c, 0, 62, 93
2, 6384, Note_off_c, 0, 62, 0
2, 6384, Note_on_c, 0, 58, 93
2, 6432, Note_off_c, 0, 58, 0
2, 6432, Note_on_c, 0, 51, 93
2, 6480, Note_off_c, 0, 51, 0
2, 6480, Note_on_c, 0, 60, 93
2, 6528, Note_off_c, 0, 60, 0
2, 6528, Note_on_c, 0, 53, 93
2, 6576, Note_off_c, 0, 53, 0
2, 6576, Note_on_c, 0, 57, 93
2, 6624, Note_off_c, 0, 57, 0
2, 6624, Note_on_c, 0, 58, 93
2, 6720, Note_off_c, 0, 58, 0
2, 6720, Note_on_c, 0, 46, 93
2, 6744, Note_off_c, 0, 46, 0
2, 6744, Note_on_c, 0, 58, 93
2, 6768, Note_off_c, 0, 58, 0
2, 6768, Note_on_c, 0, 57, 93
2, 6792, Note_off_c, 0, 57, 0
2, 6792, Note_on_c, 0, 55, 93
2, 6816, Note_off_c, 0, 55, 0
2, 6816, Note_on_c, 0, 53, 93
2, 6840, Note_off_c, 0, 53, 0
2, 6840, Note_on_c, 0, 55, 93
2, 6864, Note_off_c, 0, 55, 0
2, 6864, Note_on_c, 0, 53, 93
2, 6888, Note_off_c, 0, 53, 0
2, 6888, Note_on_c, 0, 51, 93
2, 6912, Note_off_c, 0, 51, 0
2, 6912, Note_on_c, 0, 50, 93
2, 6942, Note_off_c, 0, 50, 0
2, 6942, Note_on_c, 0, 46, 93
2, 6978, Note_off_c, 0, 46, 0
2, 6978, Note_on_c, 0, 48, 93
2, 7008, Note_off_c, 0, 48, 0
2, 7008, Note_on_c, 0, 50, 93
2, 7038, Note_off_c, 0, 50, 0
2, 7038, Note_on_c, 0, 51, 93
2, 7074, Note_off_c, 0, 51, 0
2, 7074, Note_on_c, 0, 53, 93
2, 7104, Note_off_c, 0, 53, 0
2, 7104, Note_on_c, 0, 53, 93
2, 7134, Note_off_c, 0, 53, 0
2, 7134, Note_on_c, 0, 55, 93
2, 7170, Note_off_c, 0, 55, 0
2, 7170, Note_on_c, 0, 57, 93
2, 7200, Note_off_c, 0, 57, 0
2, 7200, Note_on_c, 0, 58, 93
2, 7248, Note_off_c, 0, 58, 0
2, 7248, Note_on_c, 0, 50, 93
2, 7296, Note_off_c, 0, 50, 0
2, 7296, Note_on_c, 0, 48, 93
2, 7440, Note_off_c, 0, 48, 0
2, 7440, Note_on_c, 0, 46, 93
2, 7488, Note_off_c, 0, 46, 0
2, 7488, Note_on_c, 0, 46, 93
2, 7680, Note_off_c, 0, 46, 0
2, 7728, Note_on_c, 0, 51, 93
2, 7776, Note_off_c, 0, 51, 0
2, 7776, Note_on_c, 0, 51, 93
2, 7824, Note_off_c, 0, 51, 0
2, 7824, Note_on_c, 0, 46, 93
2, 7872, Note_off_c, 0, 46, 0
2, 7872, Note_on_c, 0, 48, 93
2, 7920, Note_off_c, 0, 48, 0
2, 7920, Note_on_c, 0, 44, 93
2, 7968, Note_off_c, 0, 44, 0
2, 7968, Note_on_c, 0, 41, 93
2, 8016, Note_off_c, 0, 41, 0
2, 8016, Note_on_c, 0, 50, 93
2, 8064, Note_off_c, 0, 50, 0
2, 8064, Note_on_c, 0, 51, 93
2, 8160, Note_off_c, 0, 51, 0
2, 8160, Note_on_c, 0, 39, 93
2, 8184, Note_off_c, 0, 39, 0
2, 8184, Note_on_c, 0, 50, 93
2, 8208, Note_off_c, 0, 50, 0
2, 8208, Note_on_c, 0, 51, 93
2, 8232, Note_off_c, 0, 51, 0
2, 8232, Note_on_c, 0, 53, 93
2, 8256, Note_off_c, 0, 53, 0
2, 8256, Note_on_c, 0, 55, 93
2, 8280, Note_off_c, 0, 55, 0
2, 8280, Note_on_c, 0, 53, 93
2, 8304, Note_off_c, 0, 53, 0
2, 8304, Note_on_c, 0, 55, 93
2, 8328, Note_off_c, 0, 55, 0
2, 8328, Note_on_c, 0, 57, 93
2, 8352, Note_off_c, 0, 57, 0
2, 8352, Note_on_c, 0, 58, 93
2, 8400, Note_off_c, 0, 58, 0
2, 8400, Note_on_c, 0, 53, 93
2, 8448, Note_off_c, 0, 53, 0
2, 8448, Note_on_c, 0, 55, 93
2, 8496, Note_off_c, 0, 55, 0
2, 8496, Note_on_c, 0, 51, 93
2, 8544, Note_off_c, 0, 51, 0
2, 8544, Note_on_c, 0, 48, 93
2, 8592, Note_off_c, 0, 48, 0
2, 8592, Note_on_c, 0, 57, 93
2, 8640, Note_off_c, 0, 57, 0
2, 8640, Note_on_c, 0, 58, 93
2, 8736, Note_off_c, 0, 58, 0
2, 8736, Note_on_c, 0, 46, 93
2, 8784, Note_off_c, 0, 46, 0
2, 8784, Note_on_c, 0, 44, 93
2, 8832, Note_off_c, 0, 44, 0
2, 8832, Note_on_c, 0, 43, 93
2, 8880, Note_off_c, 0, 43, 0
2, 8880, Note_on_c, 0, 51, 93
2, 8928, Note_off_c, 0, 51, 0
2, 8928, Note_on_c, 0, 44, 93
2, 8958, Note_off_c, 0, 44, 0
2, 8958, Note_on_c, 0, 46, 93
2, 8994, Note_off_c, 0, 46, 0
2, 8994, Note_on_c, 0, 48, 93
2, 9024, Note_off_c, 0, 48, 0
2, 9024, Note_on_c, 0, 48, 93
2, 9054, Note_off_c, 0, 48, 0
2, 9054, Note_on_c, 0, 50, 93
2, 9090, Note_off_c, 0, 50, 0
2, 9090, Note_on_c, 0, 51, 93
2, 9120, Note_off_c, 0, 51, 0
2, 9120, Note_on_c, 0, 53, 93
2, 9150, Note_off_c, 0, 53, 0
2, 9150, Note_on_c, 0, 55, 93
2, 9186, Note_off_c, 0, 55, 0
2, 9186, Note_on_c, 0, 56, 93
2, 9216, Note_off_c, 0, 56, 0
2, 9216, Note_on_c, 0, 43, 93
2, 9246, Note_off_c, 0, 43, 0
2, 9246, Note_on_c, 0, 44, 93
2, 9282, Note_off_c, 0, 44, 0
2, 9282, Note_on_c, 0, 46, 93
2, 9312, Note_off_c, 0, 46, 0
2, 9312, Note_on_c, 0, 46, 93
2, 9342, Note_off_c, 0, 46, 0
2, 9342, Note_on_c, 0, 48, 93
2, 9378, Note_off_c, 0, 48, 0
2, 9378, Note_on_c, 0, 50, 93
2, 9408, Note_off_c, 0, 50, 0
2, 9408, Note_on_c, 0, 51, 93
2, 9438, Note_off_c, 0, 51, 0
2, 9438, Note_on_c, 0, 53, 93
2, 9474, Note_off_c, 0, 53, 0
2, 9474, Note_on_c, 0, 55, 93
2, 9504, Note_off_c, 0, 55, 0
2, 9504, Note_on_c, 0, 53, 93
2, 9534, Note_off_c, 0, 53, 0
2, 9534, Note_on_c, 0, 55, 93
2, 9570, Note_off_c, 0, 55, 0
2, 9570, Note_on_c, 0, 56, 93
2, 9600, Note_off_c, 0, 56, 0
2, 9600, Note_on_c, 0, 55, 93
2, 9630, Note_off_c, 0, 55, 0
2, 9630, Note_on_c, 0, 53, 93
2, 9666, Note_off_c, 0, 53, 0
2, 9666, Note_on_c, 0, 51, 93
2, 9696, Note_off_c, 0, 51, 0
2, 9696, Note_on_c, 0, 46, 93
2, 9726, Note_off_c, 0, 46, 0
2, 9726, Note_on_c, 0, 51, 93
2, 9762, Note_off_c, 0, 51, 0
2, 9762, Note_on_c, 0, 50, 93
2, 9792, Note_off_c, 0, 50, 0
2, 9792, Note_on_c, 0, 51, 93
2, 9888, Note_off_c, 0, 51, 0
2, 9888, Note_on_c, 0, 39, 93
2, 9912, Note_off_c, 0, 39, 0
2, 9912, Note_on_c, 0, 46, 93
2, 9936, Note_off_c, 0, 46, 0
2, 9936, Note_on_c, 0, 48, 93
2, 9960, Note_off_c, 0, 48, 0
2, 9960, Note_on_c, 0, 50, 93
2, 9984, Note_off_c, 0, 50, 0
2, 9984, Note_on_c, 0, 51, 93
2, 10008, Note_off_c, 0, 51, 0
2, 10008, Note_on_c, 0, 50, 93
2, 10032, Note_off_c, 0, 50, 0
2, 10032, Note_on_c, 0, 51, 93
2, 10056, Note_off_c, 0, 51, 0
2, 10056, Note_on_c, 0, 53, 93
2, 10080, Note_off_c, 0, 53, 0
2, 10080, Note_on_c, 0, 55, 93
2, 10128, Note_off_c, 0, 55, 0
2, 10128, Note_on_c, 0, 51, 93
2, 10176, Note_off_c, 0, 51, 0
2, 10176, Note_on_c, 0, 55, 93
2, 10224, Note_off_c, 0, 55, 0
2, 10224, Note_on_c, 0, 50, 93
2, 10272, Note_off_c, 0, 50, 0
2, 10272, Note_on_c, 0, 48, 93
2, 10320, Note_off_c, 0, 48, 0
2, 10320, Note_on_c, 0, 58, 93
2, 10368, Note_off_c, 0, 58, 0
2, 10368, Note_on_c, 0, 57, 93
2, 10464, Note_off_c, 0, 57, 0
2, 10464, Note_on_c, 0, 39, 93
2, 10488, Note_off_c, 0, 39, 0
2, 10488, Note_on_c, 0, 48, 93
2, 10512, Note_off_c, 0, 48, 0
2, 10512, Note_on_c, 0, 50, 93
2, 10536, Note_off_c, 0, 50, 0
2, 10536, Note_on_c, 0, 51, 93
2, 10560, Note_off_c, 0, 51, 0
2, 10560, Note_on_c, 0, 53, 93
2, 10584, Note_off_c, 0, 53, 0
2, 10584, Note_on_c, 0, 51, 93
2, 10608, Note_off_c, 0, 51, 0
2, 10608, Note_on_c, 0, 53, 93
2, 10632, Note_off_c, 0, 53, 0
2, 10632, Note_on_c, 0, 55, 93
2, 10656, Note_off_c, 0, 55, 0
2, 10656, Note_on_c, 0, 57, 93
2, 10704, Note_off_c, 0, 57, 0
2, 10704, Note_on_c, 0, 53, 93
2, 10752, Note_off_c, 0, 53, 0
2, 10752, Note_on_c, 0, 57, 93
2, 10800, Note_off_c, 0, 57, 0
2, 10800, Note_on_c, 0, 51, 93
2, 10848, Note_off_c, 0, 51, 0
2, 10848, Note_on_c, 0, 50, 93
2, 10896, Note_off_c, 0, 50, 0
2, 10896, Note_on_c, 0, 60, 93
2, 10944, Note_off_c, 0, 60, 0
2, 10944, Note_on_c, 0, 58, 93
2, 11040, Note_off_c, 0, 58, 0
2, 11040, Note_on_c, 0, 38, 93
2, 11064, Note_off_c, 0, 38, 0
2, 11064, Note_on_c, 0, 50, 93
2, 11088, Note_off_c, 0, 50, 0
2, 11088, Note_on_c, 0, 51, 93
2, 11112, Note_off_c, 0, 51, 0
2, 11112, Note_on_c, 0, 53, 93
2, 11136, Note_off_c, 0, 53, 0
2, 11136, Note_on_c, 0, 55, 93
2, 11160, Note_off_c, 0, 55, 0
2, 11160, Note_on_c, 0, 53, 93
2, 11184, Note_off_c, 0, 53, 0
2, 11184, Note_on_c, 0, 55, 93
2, 11208, Note_off_c, 0, 55, 0
2, 11208, Note_on_c, 0, 57, 93
2, 11232, Note_off_c, 0, 57, 0
2, 11232, Note_on_c, 0, 58, 93
2, 11280, Note_off_c, 0, 58, 0
2, 11280, Note_on_c, 0, 55, 93
2, 11328, Note_off_c, 0, 55, 0
2, 11328, Note_on_c, 0, 58, 93
2, 11376, Note_off_c, 0, 58, 0
2, 11376, Note_on_c, 0, 53, 93
2, 11424, Note_off_c, 0, 53, 0
2, 11424, Note_on_c, 0, 51, 93
2, 11472, Note_off_c, 0, 51, 0
2, 11472, Note_on_c, 0, 62, 93
2, 11520, Note_off_c, 0, 62, 0
2, 11520, Note_on_c, 0, 60, 93
2, 11568, Note_off_c, 0, 60, 0
2, 11568, Note_on_c, 0, 57, 93
2, 11616, Note_off_c, 0, 57, 0
2, 11616, Note_on_c, 0, 60, 93
2, 11664, Note_off_c, 0, 60, 0
2, 11664, Note_on_c, 0, 55, 93
2, 11712, Note_off_c, 0, 55, 0
2, 11712, Note_on_c, 0, 53, 93
2, 11760, Note_off_c, 0, 53, 0
2, 11760, Note_on_c, 0, 63, 93
2, 11808, Note_off_c, 0, 63, 0
2, 11808, Note_on_c, 0, 62, 93
2, 11856, Note_off_c, 0, 62, 0
2, 11856, Note_on_c, 0, 58, 93
2, 11904, Note_off_c, 0, 58, 0
2, 11904, Note_on_c, 0, 62, 93
2, 11952, Note_off_c, 0, 62, 0
2, 11952, Note_on_c, 0, 57, 93
2, 12000, Note_off_c, 0, 57, 0
2, 12000, Note_on_c, 0, 55, 93
2, 12048, Note_off_c, 0, 55, 0
2, 12048, Note_on_c, 0, 65, 93
2, 12096, Note_off_c, 0, 65, 0
2, 12096, Note_on_c, 0, 63, 93
2, 12144, Note_off_c, 0, 63, 0
2, 12144, Note_on_c, 0, 60, 93
2, 12192, Note_off_c, 0, 60, 0
2, 12192, Note_on_c, 0, 63, 93
2, 12240, Note_off_c, 0, 63, 0
2, 12240, Note_on_c, 0, 57, 93
2, 12288, Note_off_c, 0, 57, 0
2, 12288, Note_on_c, 0, 53, 93
2, 12336, Note_off_c, 0, 53, 0
2, 12336, Note_on_c, 0, 63, 93
2, 12384, Note_off_c, 0, 63, 0
2, 12384, Note_on_c, 0, 62, 93
2, 12432, Note_off_c, 0, 62, 0
2, 12432, Note_on_c, 0, 58, 93
2, 12480, Note_off_c, 0, 58, 0
2, 12480, Note_on_c, 0, 62, 93
2, 12528, Note_off_c, 0, 62, 0
2, 12528, Note_on_c, 0, 55, 93
2, 12576, Note_off_c, 0, 55, 0
2, 12576, Note_on_c, 0, 51, 93
2, 12624, Note_off_c, 0, 51, 0
2, 12624, Note_on_c, 0, 60, 93
2, 12672, Note_off_c, 0, 60, 0
2, 12672, Note_on_c, 0, 57, 93
2, 12798, Note_off_c, 0, 57, 0
2, 12798, Note_on_c, 0, 53, 93
2, 12834, Note_off_c, 0, 53, 0
2, 12834, Note_on_c, 0, 55, 93
2, 12864, Note_off_c, 0, 55, 0
2, 12864, Note_on_c, 0, 57, 93
2, 12894, Note_off_c, 0, 57, 0
2, 12894, Note_on_c, 0, 58, 93
2, 12930, Note_off_c, 0, 58, 0
2, 12930, Note_on_c, 0, 60, 93
2, 12960, Note_off_c, 0, 60, 0
2, 12960, Note_on_c, 0, 60, 93
2, 13086, Note_off_c, 0, 60, 0
2, 13086, Note_on_c, 0, 57, 93
2, 13122, Note_off_c, 0, 57, 0
2, 13122, Note_on_c, 0, 58, 93
2, 13152, Note_off_c, 0, 58, 0
2, 13152, Note_on_c, 0, 60, 93
2, 13182, Note_off_c, 0, 60, 0
2, 13182, Note_on_c, 0, 62, 93
2, 13218, Note_off_c, 0, 62, 0
2, 13218, Note_on_c, 0, 63, 93
2, 13248, Note_off_c, 0, 63, 0
2, 13248, Note_on_c, 0, 63, 93
2, 13374, Note_off_c, 0, 63, 0
2, 13374, Note_on_c, 0, 60, 93
2, 13410, Note_off_c, 0, 60, 0
2, 13410, Note_on_c, 0, 62, 93
2, 13440, Note_off_c, 0, 62, 0
2, 13440, Note_on_c, 0, 63, 93
2, 13470, Note_off_c, 0, 63, 0
2, 13470, Note_on_c, 0, 65, 93
2, 13506, Note_off_c, 0, 65, 0
2, 13506, Note_on_c, 0, 67, 93
2, 13536, Note_off_c, 0, 67, 0
2, 13536, Note_on_c, 0, 67, 93
2, 13632, Note_off_c, 0, 67, 0
2, 13632, Note_on_c, 0, 65, 93
2, 13680, Note_off_c, 0, 65, 0
2, 13680, Note_on_c, 0, 63, 93
2, 13728, Note_off_c, 0, 63, 0
2, 13728, Note_on_c, 0, 62, 93
2, 13776, Note_off_c, 0, 62, 0
2, 13776, Note_on_c, 0, 60, 93
2, 13824, Note_off_c, 0, 60, 0
2, 13824, Note_on_c, 0, 62, 93
2, 13872, Note_off_c, 0, 62, 0
2, 13872, Note_on_c, 0, 58, 93
2, 13920, Note_off_c, 0, 58, 0
2, 13920, Note_on_c, 0, 51, 93
2, 13968, Note_off_c, 0, 51, 0
2, 13968, Note_on_c, 0, 60, 93
2, 14016, Note_off_c, 0, 60, 0
2, 14016, Note_on_c, 0, 53, 93
2, 14064, Note_off_c, 0, 53, 0
2, 14064, Note_on_c, 0, 57, 93
2, 14112, Note_off_c, 0, 57, 0
2, 14112, Note_on_c, 0, 58, 93
2, 14208, Note_off_c, 0, 58, 0
2, 14208, Note_on_c, 0, 46, 93
2, 14232, Note_off_c, 0, 46, 0
2, 14232, Note_on_c, 0, 58, 93
2, 14256, Note_off_c, 0, 58, 0
2, 14256, Note_on_c, 0, 57, 93
2, 14280, Note_off_c, 0, 57, 0
2, 14280, Note_on_c, 0, 55, 93
2, 14304, Note_off_c, 0, 55, 0
2, 14304, Note_on_c, 0, 53, 93
2, 14328, Note_off_c, 0, 53, 0
2, 14328, Note_on_c, 0, 55, 93
2, 14352, Note_off_c, 0, 55, 0
2, 14352, Note_on_c, 0, 53, 93
2, 14376, Note_off_c, 0, 53, 0
2, 14376, Note_on_c, 0, 51, 93
2, 14400, Note_off_c, 0, 51, 0
2, 14400, Note_on_c, 0, 50, 93
2, 14430, Note_off_c, 0, 50, 0
2, 14430, Note_on_c, 0, 46, 93
2, 14466, Note_off_c, 0, 46, 0
2, 14466, Note_on_c, 0, 48, 93
2, 14496, Note_off_c, 0, 48, 0
2, 14496, Note_on_c, 0, 50, 93
2, 14526, Note_off_c, 0, 50, 0
2, 14526, Note_on_c, 0, 51, 93
2, 14562, Note_off_c, 0, 51, 0
2, 14562, Note_on_c, 0, 53, 93
2, 14592, Note_off_c, 0, 53, 0
2, 14592, Note_on_c, 0, 53, 93
2, 14622, Note_off_c, 0, 53, 0
2, 14622, Note_on_c, 0, 55, 93
2, 14658, Note_off_c, 0, 55, 0
2, 14658, Note_on_c, 0, 57, 93
2, 14688, Note_off_c, 0, 57, 0
2, 14688, Note_on_c, 0, 58, 93
2, 14736, Note_off_c, 0, 58, 0
2, 14736, Note_on_c, 0, 50, 93
2, 14784, Note_off_c, 0, 50, 0
2, 14784, Note_on_c, 0, 48, 93
2, 14928, Note_off_c, 0, 48, 0
2, 14928, Note_on_c, 0, 46, 93
2, 14976, Note_off_c, 0, 46, 0
2, 14976, Note_on_c, 0, 46, 93
2, 15168, Note_off_c, 0, 46, 0
2, 15216, Note_on_c, 0, 53, 93
2, 15264, Note_off_c, 0, 53, 0
2, 15264, Note_on_c, 0, 53, 93
2, 15312, Note_off_c, 0, 53, 0
2, 15312, Note_on_c, 0, 50, 93
2, 15360, Note_off_c, 0, 50, 0
2, 15360, Note_on_c, 0, 55, 93
2, 15408, Note_off_c, 0, 55, 0
2, 15408, Note_on_c, 0, 51, 93
2, 15456, Note_off_c, 0, 51, 0
2, 15456, Note_on_c, 0, 45, 93
2, 15504, Note_off_c, 0, 45, 0
2, 15504, Note_on_c, 0, 53, 93
2, 15552, Note_off_c, 0, 53, 0
2, 15552, Note_on_c, 0, 50, 93
2, 15648, Note_off_c, 0, 50, 0
2, 15648, Note_on_c, 0, 46, 93
2, 15696, Note_off_c, 0, 46, 0
2, 15696, Note_on_c, 0, 48, 93
2, 15720, Note_off_c, 0, 48, 0
2, 15720, Note_on_c, 0, 50, 93
2, 15744, Note_off_c, 0, 50, 0
2, 15744, Note_on_c, 0, 51, 93
2, 15768, Note_off_c, 0, 51, 0
2, 15768, Note_on_c, 0, 50, 93
2, 15792, Note_off_c, 0, 50, 0
2, 15792, Note_on_c, 0, 51, 93
2, 15816, Note_off_c, 0, 51, 0
2, 15816, Note_on_c, 0, 53, 93
2, 15840, Note_off_c, 0, 53, 0
2, 15840, Note_on_c, 0, 55, 93
2, 15888, Note_off_c, 0, 55, 0
2, 15888, Note_on_c, 0, 51, 93
2, 15936, Note_off_c, 0, 51, 0
2, 15936, Note_on_c, 0, 56, 93
2, 15984, Note_off_c, 0, 56, 0
2, 15984, Note_on_c, 0, 53, 93
2, 16032, Note_off_c, 0, 53, 0
2, 16032, Note_on_c, 0, 47, 93
2, 16080, Note_off_c, 0, 47, 0
2, 16080, Note_on_c, 0, 55, 93
2, 16128, Note_off_c, 0, 55, 0
2, 16128, Note_on_c, 0, 51, 93
2, 16224, Note_off_c, 0, 51, 0
2, 16224, Note_on_c, 0, 36, 93
2, 16248, Note_off_c, 0, 36, 0
2, 16248, Note_on_c, 0, 55, 93
2, 16272, Note_off_c, 0, 55, 0
2, 16272, Note_on_c, 0, 57, 93
2, 16296, Note_off_c, 0, 57, 0
2, 16296, Note_on_c, 0, 59, 93
2, 16320, Note_off_c, 0, 59, 0
2, 16320, Note_on_c, 0, 60, 93
2, 16344, Note_off_c, 0, 60, 0
2, 16344, Note_on_c, 0, 59, 93
2, 16368, Note_off_c, 0, 59, 0
2, 16368, Note_on_c, 0, 60, 93
2, 16392, Note_off_c, 0, 60, 0
2, 16392, Note_on_c, 0, 62, 93
2, 16416, Note_off_c, 0, 62, 0
2, 16416, Note_on_c, 0, 63, 93
2, 16464, Note_off_c, 0, 63, 0
2, 16464, Note_on_c, 0, 62, 93
2, 16512, Note_off_c, 0, 62, 0
2, 16512, Note_on_c, 0, 63, 93
2, 16560, Note_off_c, 0, 63, 0
2, 16560, Note_on_c, 0, 60, 93
2, 16608, Note_off_c, 0, 60, 0
2, 16608, Note_on_c, 0, 63, 93
2, 16656, Note_off_c, 0, 63, 0
2, 16656, Note_on_c, 0, 58, 93
2, 16704, Note_off_c, 0, 58, 0
2, 16704, Note_on_c, 0, 63, 93
2, 16752, Note_off_c, 0, 63, 0
2, 16752, Note_on_c, 0, 57, 93
2, 16800, Note_off_c, 0, 57, 0
2, 16800, Note_on_c, 0, 63, 93
2, 16848, Note_off_c, 0, 63, 0
2, 16848, Note_on_c, 0, 55, 93
2, 16896, Note_off_c, 0, 55, 0
2, 16896, Note_on_c, 0, 53, 93
2, 16944, Note_off_c, 0, 53, 0
2, 16944, Note_on_c, 0, 63, 93
2, 16992, Note_off_c, 0, 63, 0
2, 16992, Note_on_c, 0, 62, 93
2, 17040, Note_off_c, 0, 62, 0
2, 17040, Note_on_c, 0, 60, 93
2, 17088, Note_off_c, 0, 60, 0
2, 17088, Note_on_c, 0, 62, 93
2, 17136, Note_off_c, 0, 62, 0
2, 17136, Note_on_c, 0, 58, 93
2, 17184, Note_off_c, 0, 58, 0
2, 17184, Note_on_c, 0, 62, 93
2, 17232, Note_off_c, 0, 62, 0
2, 17232, Note_on_c, 0, 57, 93
2, 17280, Note_off_c, 0, 57, 0
2, 17280, Note_on_c, 0, 62, 93
2, 17328, Note_off_c, 0, 62, 0
2, 17328, Note_on_c, 0, 55, 93
2, 17376, Note_off_c, 0, 55, 0
2, 17376, Note_on_c, 0, 62, 93
2, 17424, Note_off_c, 0, 62, 0
2, 17424, Note_on_c, 0, 53, 93
2, 17472, Note_off_c, 0, 53, 0
2, 17472, Note_on_c, 0, 51, 93
2, 17520, Note_off_c, 0, 51, 0
2, 17520, Note_on_c, 0, 62, 93
2, 17568, Note_off_c, 0, 62, 0
2, 17568, Note_on_c, 0, 60, 93
2, 17616, Note_off_c, 0, 60, 0
2, 17616, Note_on_c, 0, 58, 93
2, 17664, Note_off_c, 0, 58, 0
2, 17664, Note_on_c, 0, 60, 93
2, 17712, Note_off_c, 0, 60, 0
2, 17712, Note_on_c, 0, 56, 93
2, 17760, Note_off_c, 0, 56, 0
2, 17760, Note_on_c, 0, 60, 93
2, 17808, Note_off_c, 0, 60, 0
2, 17808, Note_on_c, 0, 55, 93
2, 17856, Note_off_c, 0, 55, 0
2, 17856, Note_on_c, 0, 60, 93
2, 17904, Note_off_c, 0, 60, 0
2, 17904, Note_on_c, 0, 53, 93
2, 17952, Note_off_c, 0, 53, 0
2, 17952, Note_on_c, 0, 60, 93
2, 18000, Note_off_c, 0, 60, 0
2, 18000, Note_on_c, 0, 51, 93
2, 18048, Note_off_c, 0, 51, 0
2, 18048, Note_on_c, 0, 50, 93
2, 18096, Note_off_c, 0, 50, 0
2, 18096, Note_on_c, 0, 53, 93
2, 18144, Note_off_c, 0, 53, 0
2, 18144, Note_on_c, 0, 56, 93
2, 18192, Note_off_c, 0, 56, 0
2, 18192, Note_on_c, 0, 55, 93
2, 18240, Note_off_c, 0, 55, 0
2, 18240, Note_on_c, 0, 56, 93
2, 18288, Note_off_c, 0, 56, 0
2, 18288, Note_on_c, 0, 53, 93
2, 18336, Note_off_c, 0, 53, 0
2, 18336, Note_on_c, 0, 56, 93
2, 18384, Note_off_c, 0, 56, 0
2, 18384, Note_on_c, 0, 51, 93
2, 18432, Note_off_c, 0, 51, 0
2, 18432, Note_on_c, 0, 56, 93
2, 18480, Note_off_c, 0, 56, 0
2, 18480, Note_on_c, 0, 50, 93
2, 18528, Note_off_c, 0, 50, 0
2, 18528, Note_on_c, 0, 56, 93
2, 18576, Note_off_c, 0, 56, 0
2, 18576, Note_on_c, 0, 48, 93
2, 18624, Note_off_c, 0, 48, 0
2, 18624, Note_on_c, 0, 47, 93
2, 18672, Note_off_c, 0, 47, 0
2, 18672, Note_on_c, 0, 50, 93
2, 18720, Note_off_c, 0, 50, 0
2, 18720, Note_on_c, 0, 53, 93
2, 18768, Note_off_c, 0, 53, 0
2, 18768, Note_on_c, 0, 51, 93
2, 18816, Note_off_c, 0, 51, 0
2, 18816, Note_on_c, 0, 53, 93
2, 18864, Note_off_c, 0, 53, 0
2, 18864, Note_on_c, 0, 50, 93
2, 18912, Note_off_c, 0, 50, 0
2, 18912, Note_on_c, 0, 53, 93
2, 18960, Note_off_c, 0, 53, 0
2, 18960, Note_on_c, 0, 48, 93
2, 19008, Note_off_c, 0, 48, 0
2, 19008, Note_on_c, 0, 53, 93
2, 19056, Note_off_c, 0, 53, 0
2, 19056, Note_on_c, 0, 47, 93
2, 19104, Note_off_c, 0, 47, 0
2, 19104, Note_on_c, 0, 53, 93
2, 19152, Note_off_c, 0, 53, 0
2, 19152, Note_on_c, 0, 45, 93
2, 19200, Note_off_c, 0, 45, 0
2, 19200, Note_on_c, 0, 43, 93
2, 19248, Note_off_c, 0, 43, 0
2, 19248, Note_on_c, 0, 59, 93
2, 19296, Note_off_c, 0, 59, 0
2, 19296, Note_on_c, 0, 60, 93
2, 19344, Note_off_c, 0, 60, 0
2, 19344, Note_on_c, 0, 63, 93
2, 19392, Note_off_c, 0, 63, 0
2, 19392, Note_on_c, 0, 53, 93
2, 19440, Note_off_c, 0, 53, 0
2, 19440, Note_on_c, 0, 62, 93
2, 19488, Note_off_c, 0, 62, 0
2, 19488, Note_on_c, 0, 55, 93
2, 19536, Note_off_c, 0, 55, 0
2, 19536, Note_on_c, 0, 59, 93
2, 19584, Note_off_c, 0, 59, 0
2, 19584, Note_on_c, 0, 60, 93
2, 19680, Note_off_c, 0, 60, 0
2, 19680, Note_on_c, 0, 36, 93
2, 19704, Note_off_c, 0, 36, 0
2, 19704, Note_on_c, 0, 43, 93
2, 19728, Note_off_c, 0, 43, 0
2, 19728, Note_on_c, 0, 45, 93
2, 19752, Note_off_c, 0, 45, 0
2, 19752, Note_on_c, 0, 47, 93
2, 19776, Note_off_c, 0, 47, 0
2, 19776, Note_on_c, 0, 48, 93
2, 19800, Note_off_c, 0, 48, 0
2, 19800, Note_on_c, 0, 47, 93
2, 19824, Note_off_c, 0, 47, 0
2, 19824, Note_on_c, 0, 48, 93
2, 19848, Note_off_c, 0, 48, 0
2, 19848, Note_on_c, 0, 50, 93
2, 19872, Note_off_c, 0, 50, 0
2, 19872, Note_on_c, 0, 52, 93
2, 19896, Note_off_c, 0, 52, 0
2, 19896, Note_on_c, 0, 50, 93
2, 19920, Note_off_c, 0, 50, 0
2, 19920, Note_on_c, 0, 52, 93
2, 19944, Note_off_c, 0, 52, 0
2, 19944, Note_on_c, 0, 53, 93
2, 19968, Note_off_c, 0, 53, 0
2, 19968, Note_on_c, 0, 55, 93
2, 19992, Note_off_c, 0, 55, 0
2, 19992, Note_on_c, 0, 53, 93
2, 20016, Note_off_c, 0, 53, 0
2, 20016, Note_on_c, 0, 55, 93
2, 20040, Note_off_c, 0, 55, 0
2, 20040, Note_on_c, 0, 56, 93
2, 20064, Note_off_c, 0, 56, 0
2, 20064, Note_on_c, 0, 58, 93
2, 20088, Note_off_c, 0, 58, 0
2, 20088, Note_on_c, 0, 56, 93
2, 20112, Note_off_c, 0, 56, 0
2, 20112, Note_on_c, 0, 58, 93
2, 20136, Note_off_c, 0, 58, 0
2, 20136, Note_on_c, 0, 55, 93
2, 20160, Note_off_c, 0, 55, 0
2, 20160, Note_on_c, 0, 56, 93
2, 20190, Note_off_c, 0, 56, 0
2, 20190, Note_on_c, 0, 55, 93
2, 20226, Note_off_c, 0, 55, 0
2, 20226, Note_on_c, 0, 53, 93
2, 20256, Note_off_c, 0, 53, 0
2, 20256, Note_on_c, 0, 53, 93
2, 20286, Note_off_c, 0, 53, 0
2, 20286, Note_on_c, 0, 51, 93
2, 20322, Note_off_c, 0, 51, 0
2, 20322, Note_on_c, 0, 50, 93
2, 20352, Note_off_c, 0, 50, 0
2, 20352, Note_on_c, 0, 50, 93
2, 20382, Note_off_c, 0, 50, 0
2, 20382, Note_on_c, 0, 48, 93
2, 20418, Note_off_c, 0, 48, 0
2, 20418, Note_on_c, 0, 46, 93
2, 20448, Note_off_c, 0, 46, 0
2, 20448, Note_on_c, 0, 46, 93
2, 20472, Note_off_c, 0, 46, 0
2, 20472, Note_on_c, 0, 48, 93
2, 20496, Note_off_c, 0, 48, 0
2, 20496, Note_on_c, 0, 50, 93
2, 20520, Note_off_c, 0, 50, 0
2, 20520, Note_on_c, 0, 51, 93
2, 20544, Note_off_c, 0, 51, 0
2, 20544, Note_on_c, 0, 53, 93
2, 20568, Note_off_c, 0, 53, 0
2, 20568, Note_on_c, 0, 51, 93
2, 20592, Note_off_c, 0, 51, 0
2, 20592, Note_on_c, 0, 53, 93
2, 20616, Note_off_c, 0, 53, 0
2, 20616, Note_on_c, 0, 55, 93
2, 20640, Note_off_c, 0, 55, 0
2, 20640, Note_on_c, 0, 56, 93
2, 20664, Note_off_c, 0, 56, 0
2, 20664, Note_on_c, 0, 55, 93
2, 20688, Note_off_c, 0, 55, 0
2, 20688, Note_on_c, 0, 56, 93
2, 20712, Note_off_c, 0, 56, 0
2, 20712, Note_on_c, 0, 53, 93
2, 20736, Note_off_c, 0, 53, 0
2, 20736, Note_on_c, 0, 55, 93
2, 20766, Note_off_c, 0, 55, 0
2, 20766, Note_on_c, 0, 53, 93
2, 20802, Note_off_c, 0, 53, 0
2, 20802, Note_on_c, 0, 51, 93
2, 20832, Note_off_c, 0, 51, 0
2, 20832, Note_on_c, 0, 51, 93
2, 20862, Note_off_c, 0, 51, 0
2, 20862, Note_on_c, 0, 50, 93
2, 20898, Note_off_c, 0, 50, 0
2, 20898, Note_on_c, 0, 48, 93
2, 20928, Note_off_c, 0, 48, 0
2, 20928, Note_on_c, 0, 48, 93
2, 20958, Note_off_c, 0, 48, 0
2, 20958, Note_on_c, 0, 46, 93
2, 20994, Note_off_c, 0, 46, 0
2, 20994, Note_on_c, 0, 44, 93
2, 21024, Note_off_c, 0, 44, 0
2, 21024, Note_on_c, 0, 44, 93
2, 21072, Note_off_c, 0, 44, 0
2, 21072, Note_on_c, 0, 60, 93
2, 21096, Note_off_c, 0, 60, 0
2, 21096, Note_on_c, 0, 58, 93
2, 21120, Note_off_c, 0, 58, 0
2, 21120, Note_on_c, 0, 56, 93
2, 21144, Note_off_c, 0, 56, 0
2, 21144, Note_on_c, 0, 58, 93
2, 21168, Note_off_c, 0, 58, 0
2, 21168, Note_on_c, 0, 56, 93
2, 21192, Note_off_c, 0, 56, 0
2, 21192, Note_on_c, 0, 55, 93
2, 21216, Note_off_c, 0, 55, 0
2, 21216, Note_on_c, 0, 53, 93
2, 21240, Note_off_c, 0, 53, 0
2, 21240, Note_on_c, 0, 55, 93
2, 21264, Note_off_c, 0, 55, 0
2, 21264, Note_on_c, 0, 53, 93
2, 21288, Note_off_c, 0, 53, 0
2, 21288, Note_on_c, 0, 51, 93
2, 21312, Note_off_c, 0, 51, 0
2, 21312, Note_on_c, 0, 50, 93
2, 21336, Note_off_c, 0, 50, 0
2, 21336, Note_on_c, 0, 51, 93
2, 21360, Note_off_c, 0, 51, 0
2, 21360, Note_on_c, 0, 50, 93
2, 21384, Note_off_c, 0, 50, 0
2, 21384, Note_on_c, 0, 48, 93
2, 21408, Note_off_c, 0, 48, 0
2, 21408, Note_on_c, 0, 46, 93
2, 21432, Note_off_c, 0, 46, 0
2, 21432, Note_on_c, 0, 48, 93
2, 21456, Note_off_c, 0, 48, 0
2, 21456, Note_on_c, 0, 46, 93
2, 21480, Note_off_c, 0, 46, 0
2, 21480, Note_on_c, 0, 44, 93
2, 21504, Note_off_c, 0, 44, 0
2, 21504, Note_on_c, 0, 43, 93
2, 21528, Note_off_c, 0, 43, 0
2, 21528, Note_on_c, 0, 44, 93
2, 21552, Note_off_c, 0, 44, 0
2, 21552, Note_on_c, 0, 43, 93
2, 21576, Note_off_c, 0, 43, 0
2, 21576, Note_on_c, 0, 41, 93
2, 21600, Note_off_c, 0, 41, 0
2, 21600, Note_on_c, 0, 39, 93
2, 21648, Note_off_c, 0, 39, 0
2, 21648, Note_on_c, 0, 63, 93
2, 21696, Note_off_c, 0, 63, 0
2, 21696, Note_on_c, 0, 58, 93
2, 21720, Note_off_c, 0, 58, 0
2, 21720, Note_on_c, 0, 56, 93
2, 21744, Note_off_c, 0, 56, 0
2, 21744, Note_on_c, 0, 55, 93
2, 21768, Note_off_c, 0, 55, 0
2, 21768, Note_on_c, 0, 53, 93
2, 21792, Note_off_c, 0, 53, 0
2, 21792, Note_on_c, 0, 51, 93
2, 21840, Note_off_c, 0, 51, 0
2, 21840, Note_on_c, 0, 46, 93
2, 21888, Note_off_c, 0, 46, 0
2, 21888, Note_on_c, 0, 43, 93
2, 21936, Note_off_c, 0, 43, 0
2, 21936, Note_on_c, 0, 61, 93
2, 21984, Note_off_c, 0, 61, 0
2, 21984, Note_on_c, 0, 58, 93
2, 22008, Note_off_c, 0, 58, 0
2, 22008, Note_on_c, 0, 56, 93
2, 22032, Note_off_c, 0, 56, 0
2, 22032, Note_on_c, 0, 55, 93
2, 22056, Note_off_c, 0, 55, 0
2, 22056, Note_on_c, 0, 53, 93
2, 22080, Note_off_c, 0, 53, 0
2, 22080, Note_on_c, 0, 51, 93
2, 22128, Note_off_c, 0, 51, 0
2, 22128, Note_on_c, 0, 61, 93
2, 22176, Note_off_c, 0, 61, 0
2, 22176, Note_on_c, 0, 44, 93
2, 22224, Note_off_c, 0, 44, 0
2, 22224, Note_on_c, 0, 61, 93
2, 22272, Note_off_c, 0, 61, 0
2, 22272, Note_on_c, 0, 60, 93
2, 22296, Note_off_c, 0, 60, 0
2, 22296, Note_on_c, 0, 58, 93
2, 22320, Note_off_c, 0, 58, 0
2, 22320, Note_on_c, 0, 56, 93
2, 22344, Note_off_c, 0, 56, 0
2, 22344, Note_on_c, 0, 55, 93
2, 22368, Note_off_c, 0, 55, 0
2, 22368, Note_on_c, 0, 53, 93
2, 22416, Note_off_c, 0, 53, 0
2, 22416, Note_on_c, 0, 60, 93
2, 22464, Note_off_c, 0, 60, 0
2, 22464, Note_on_c, 0, 43, 93
2, 22512, Note_off_c, 0, 43, 0
2, 22512, Note_on_c, 0, 60, 93
2, 22560, Note_off_c, 0, 60, 0
2, 22560, Note_on_c, 0, 58, 93
2, 22584, Note_off_c, 0, 58, 0
2, 22584, Note_on_c, 0, 56, 93
2, 22608, Note_off_c, 0, 56, 0
2, 22608, Note_on_c, 0, 55, 93
2, 22632, Note_off_c, 0, 55, 0
2, 22632, Note_on_c, 0, 53, 93
2, 22656, Note_off_c, 0, 53, 0
2, 22656, Note_on_c, 0, 52, 93
2, 22704, Note_off_c, 0, 52, 0
2, 22704, Note_on_c, 0, 58, 93
2, 22752, Note_off_c, 0, 58, 0
2, 22752, Note_on_c, 0, 41, 93
2, 22800, Note_off_c, 0, 41, 0
2, 22800, Note_on_c, 0, 58, 93
2, 22848, Note_off_c, 0, 58, 0
2, 22848, Note_on_c, 0, 56, 93
2, 22872, Note_off_c, 0, 56, 0
2, 22872, Note_on_c, 0, 55, 93
2, 22896, Note_off_c, 0, 55, 0
2, 22896, Note_on_c, 0, 53, 93
2, 22920, Note_off_c, 0, 53, 0
2, 22920, Note_on_c, 0, 51, 93
2, 22944, Note_off_c, 0, 51, 0
2, 22944, Note_on_c, 0, 50, 93
2, 22992, Note_off_c, 0, 50, 0
2, 22992, Note_on_c, 0, 56, 93
2, 23040, Note_off_c, 0, 56, 0
2, 23040, Note_on_c, 0, 39, 93
2, 23088, Note_off_c, 0, 39, 0
2, 23088, Note_on_c, 0, 56, 93
2, 23136, Note_off_c, 0, 56, 0
2, 23136, Note_on_c, 0, 55, 93
2, 23160, Note_off_c, 0, 55, 0
2, 23160, Note_on_c, 0, 53, 93
2, 23184, Note_off_c, 0, 53, 0
2, 23184, Note_on_c, 0, 51, 93
2, 23208, Note_off_c, 0, 51, 0
2, 23208, Note_on_c, 0, 50, 93
2, 23232, Note_off_c, 0, 50, 0
2, 23232, Note_on_c, 0, 51, 93
2, 23280, Note_off_c, 0, 51, 0
2, 23280, Note_on_c, 0, 55, 93
2, 23328, Note_off_c, 0, 55, 0
2, 23328, Note_on_c, 0, 45, 93
2, 23376, Note_off_c, 0, 45, 0
2, 23376, Note_on_c, 0, 48, 93
2, 23424, Note_off_c, 0, 48, 0
2, 23424, Note_on_c, 0, 51, 93
2, 23472, Note_off_c, 0, 51, 0
2, 23472, Note_on_c, 0, 54, 93
2, 23520, Note_off_c, 0, 54, 0
2, 23520, Note_on_c, 0, 57, 93
2, 23568, Note_off_c, 0, 57, 0
2, 23568, Note_on_c, 0, 60, 93
2, 23616, Note_off_c, 0, 60, 0
2, 23616, Note_on_c, 0, 50, 93
2, 23742, Note_off_c, 0, 50, 0
2, 23742, Note_on_c, 0, 46, 93
2, 23778, Note_off_c, 0, 46, 0
2, 23778, Note_on_c, 0, 48, 93
2, 23808, Note_off_c, 0, 48, 0
2, 23808, Note_on_c, 0, 50, 93
2, 23838, Note_off_c, 0, 50, 0
2, 23838, Note_on_c, 0, 51, 93
2, 23874, Note_off_c, 0, 51, 0
2, 23874, Note_on_c, 0, 53, 93
2, 23904, Note_off_c, 0, 53, 0
2, 23904, Note_on_c, 0, 53, 93
2, 24030, Note_off_c, 0, 53, 0
2, 24030, Note_on_c, 0, 50, 93
2, 24066, Note_off_c, 0, 50, 0
2, 24066, Note_on_c, 0, 51, 93
2, 24096, Note_off_c, 0, 51, 0
2, 24096, Note_on_c, 0, 53, 93
2, 24126, Note_off_c, 0, 53, 0
2, 24126, Note_on_c, 0, 55, 93
2, 24162, Note_off_c, 0, 55, 0
2, 24162, Note_on_c, 0, 56, 93
2, 24192, Note_off_c, 0, 56, 0
2, 24192, Note_on_c, 0, 56, 93
2, 24318, Note_off_c, 0, 56, 0
2, 24318, Note_on_c, 0, 53, 93
2, 24354, Note_off_c, 0, 53, 0
2, 24354, Note_on_c, 0, 55, 93
2, 24384, Note_off_c, 0, 55, 0
2, 24384, Note_on_c, 0, 56, 93
2, 24414, Note_off_c, 0, 56, 0
2, 24414, Note_on_c, 0, 58, 93
2, 24450, Note_off_c, 0, 58, 0
2, 24450, Note_on_c, 0, 60, 93
2, 24480, Note_off_c, 0, 60, 0
2, 24480, Note_on_c, 0, 60, 93
2, 24576, Note_off_c, 0, 60, 0
2, 24576, Note_on_c, 0, 58, 93
2, 24624, Note_off_c, 0, 58, 0
2, 24624, Note_on_c, 0, 56, 93
2, 24672, Note_off_c, 0, 56, 0
2, 24672, Note_on_c, 0, 55, 93
2, 24720, Note_off_c, 0, 55, 0
2, 24720, Note_on_c, 0, 53, 93
2, 24768, Note_off_c, 0, 53, 0
2, 24768, Note_on_c, 0, 55, 93
2, 24816, Note_off_c, 0, 55, 0
2, 24816, Note_on_c, 0, 51, 93
2, 24864, Note_off_c, 0, 51, 0
2, 24864, Note_on_c, 0, 44, 93
2, 24912, Note_off_c, 0, 44, 0
2, 24912, Note_on_c, 0, 53, 93
2, 24960, Note_off_c, 0, 53, 0
2, 24960, Note_on_c, 0, 46, 93
2, 25008, Note_off_c, 0, 46, 0
2, 25008, Note_on_c, 0, 50, 93
2, 25056, Note_off_c, 0, 50, 0
2, 25056, Note_on_c, 0, 51, 93
2, 25152, Note_off_c, 0, 51, 0
2, 25152, Note_on_c, 0, 39, 93
2, 25176, Note_off_c, 0, 39, 0
2, 25176, Note_on_c, 0, 46, 93
2, 25200, Note_off_c, 0, 46, 0
2, 25200, Note_on_c, 0, 48, 93
2, 25224, Note_off_c, 0, 48, 0
2, 25224, Note_on_c, 0, 50, 93
2, 25248, Note_off_c, 0, 50, 0
2, 25248, Note_on_c, 0, 51, 93
2, 25272, Note_off_c, 0, 51, 0
2, 25272, Note_on_c, 0, 50, 93
2, 25296, Note_off_c, 0, 50, 0
2, 25296, Note_on_c, 0, 51, 93
2, 25320, Note_off_c, 0, 51, 0
2, 25320, Note_on_c, 0, 53, 93
2, 25344, Note_off_c, 0, 53, 0
2, 25344, Note_on_c, 0, 55, 93
2, 25374, Note_off_c, 0, 55, 0
2, 25374, Note_on_c, 0, 51, 93
2, 25410, Note_off_c, 0, 51, 0
2, 25410, Note_on_c, 0, 53, 93
2, 25440, Note_off_c, 0, 53, 0
2, 25440, Note_on_c, 0, 55, 93
2, 25470, Note_off_c, 0, 55, 0
2, 25470, Note_on_c, 0, 56, 93
2, 25506, Note_off_c, 0, 56, 0
2, 25506, Note_on_c, 0, 58, 93
2, 25536, Note_off_c, 0, 58, 0
2, 25536, Note_on_c, 0, 58, 93
2, 25566, Note_off_c, 0, 58, 0
2, 25566, Note_on_c, 0, 60, 93
2, 25602, Note_off_c, 0, 60, 0
2, 25602, Note_on_c, 0, 62, 93
2, 25632, Note_off_c, 0, 62, 0
2, 25632, Note_on_c, 0, 63, 93
2, 25680, Note_off_c, 0, 63, 0
2, 25680, Note_on_c, 0, 55, 93
2, 25728, Note_off_c, 0, 55, 0
2, 25728, Note_on_c, 0, 53, 93
2, 25872, Note_off_c, 0, 53, 0
2, 25872, Note_on_c, 0, 51, 93
2, 25920, Note_off_c, 0, 51, 0
2, 25920, Note_on_c, 0, 51, 93
2, 26112, Note_off_c, 0, 51, 0
2, 26160, Note_on_c, 0, 53, 93
2, 26208, Note_off_c, 0, 53, 0
2, 26208, Note_on_c, 0, 53, 93
2, 26256, Note_off_c, 0, 53, 0
2, 26256, Note_on_c, 0, 50, 93
2, 26304, Note_off_c, 0, 50, 0
2, 26304, Note_on_c, 0, 55, 93
2, 26352, Note_off_c, 0, 55, 0
2, 26352, Note_on_c, 0, 51, 93
2, 26400, Note_off_c, 0, 51, 0
2, 26400, Note_on_c, 0, 45, 93
2, 26448, Note_off_c, 0, 45, 0
2, 26448, Note_on_c, 0, 53, 93
2, 26496, Note_off_c, 0, 53, 0
2, 26496, Note_on_c, 0, 50, 93
2, 26592, Note_off_c, 0, 50, 0
2, 26592, Note_on_c, 0, 46, 93
2, 26640, Note_off_c, 0, 46, 0
2, 26640, Note_on_c, 0, 48, 93
2, 26664, Note_off_c, 0, 48, 0
2, 26664, Note_on_c, 0, 50, 93
2, 26688, Note_off_c, 0, 50, 0
2, 26688, Note_on_c, 0, 51, 93
2, 26712, Note_off_c, 0, 51, 0
2, 26712, Note_on_c, 0, 50, 93
2, 26736, Note_off_c, 0, 50, 0
2, 26736, Note_on_c, 0, 51, 93
2, 26760, Note_off_c, 0, 51, 0
2, 26760, Note_on_c, 0, 53, 93
2, 26784, Note_off_c, 0, 53, 0
2, 26784, Note_on_c, 0, 55, 93
2, 26832, Note_off_c, 0, 55, 0
2, 26832, Note_on_c, 0, 51, 93
2, 26880, Note_off_c, 0, 51, 0
2, 26880, Note_on_c, 0, 56, 93
2, 26928, Note_off_c, 0, 56, 0
2, 26928, Note_on_c, 0, 53, 93
2, 26976, Note_off_c, 0, 53, 0
2, 26976, Note_on_c, 0, 47, 93
2, 27024, Note_off_c, 0, 47, 0
2, 27024, Note_on_c, 0, 55, 93
2, 27072, Note_off_c, 0, 55, 0
2, 27072, Note_on_c, 0, 51, 93
2, 27168, Note_off_c, 0, 51, 0
2, 27168, Note_on_c, 0, 36, 93
2, 27192, Note_off_c, 0, 36, 0
2, 27192, Note_on_c, 0, 55, 93
2, 27216, Note_off_c, 0, 55, 0
2, 27216, Note_on_c, 0, 57, 93
2, 27240, Note_off_c, 0, 57, 0
2, 27240, Note_on_c, 0, 59, 93
2, 27264, Note_off_c, 0, 59, 0
2, 27264, Note_on_c, 0, 60, 93
2, 27288, Note_off_c, 0, 60, 0
2, 27288, Note_on_c, 0, 59, 93
2, 27312, Note_off_c, 0, 59, 0
2, 27312, Note_on_c, 0, 60, 93
2, 27336, Note_off_c, 0, 60, 0
2, 27336, Note_on_c, 0, 62, 93
2, 27360, Note_off_c, 0, 62, 0
2, 27360, Note_on_c, 0, 63, 93
2, 27408, Note_off_c, 0, 63, 0
2, 27408, Note_on_c, 0, 62, 93
2, 27456, Note_off_c, 0, 62, 0
2, 27456, Note_on_c, 0, 63, 93
2, 27504, Note_off_c, 0, 63, 0
2, 27504, Note_on_c, 0, 60, 93
2, 27552, Note_off_c, 0, 60, 0
2, 27552, Note_on_c, 0, 63, 93
2, 27600, Note_off_c, 0, 63, 0
2, 27600, Note_on_c, 0, 58, 93
2, 27648, Note_off_c, 0, 58, 0
2, 27648, Note_on_c, 0, 63, 93
2, 27696, Note_off_c, 0, 63, 0
2, 27696, Note_on_c, 0, 57, 93
2, 27744, Note_off_c, 0, 57, 0
2, 27744, Note_on_c, 0, 63, 93
2, 27792, Note_off_c, 0, 63, 0
2, 27792, Note_on_c, 0, 55, 93
2, 27840, Note_off_c, 0, 55, 0
2, 27840, Note_on_c, 0, 53, 93
2, 27888, Note_off_c, 0, 53, 0
2, 27888, Note_on_c, 0, 63, 93
2, 27936, Note_off_c, 0, 63, 0
2, 27936, Note_on_c, 0, 62, 93
2, 27984, Note_off_c, 0, 62, 0
2, 27984, Note_on_c, 0, 60, 93
2, 28032, Note_off_c, 0, 60, 0
2, 28032, Note_on_c, 0, 62, 93
2, 28080, Note_off_c, 0, 62, 0
2, 28080, Note_on_c, 0, 58, 93
2, 28128, Note_off_c, 0, 58, 0
2, 28128, Note_on_c, 0, 62, 93
2, 28176, Note_off_c, 0, 62, 0
2, 28176, Note_on_c, 0, 57, 93
2, 28224, Note_off_c, 0, 57, 0
2, 28224, Note_on_c, 0, 62, 93
2, 28272, Note_off_c, 0, 62, 0
2, 28272, Note_on_c, 0, 55, 93
2, 28320, Note_off_c, 0, 55, 0
2, 28320, Note_on_c, 0, 62, 93
2, 28368, Note_off_c, 0, 62, 0
2, 28368, Note_on_c, 0, 53, 93
2, 28416, Note_off_c, 0, 53, 0
2, 28416, Note_on_c, 0, 51, 93
2, 28464, Note_off_c, 0, 51, 0
2, 28464, Note_on_c, 0, 62, 93
2, 28512, Note_off_c, 0, 62, 0
2, 28512, Note_on_c, 0, 60, 93
2, 28560, Note_off_c, 0, 60, 0
2, 28560, Note_on_c, 0, 58, 93
2, 28608, Note_off_c, 0, 58, 0
2, 28608, Note_on_c, 0, 60, 93
2, 28656, Note_off_c, 0, 60, 0
2, 28656, Note_on_c, 0, 56, 93
2, 28704, Note_off_c, 0, 56, 0
2, 28704, Note_on_c, 0, 60, 93
2, 28752, Note_off_c, 0, 60, 0
2, 28752, Note_on_c, 0, 55, 93
2, 28800, Note_off_c, 0, 55, 0
2, 28800, Note_on_c, 0, 60, 93
2, 28848, Note_off_c, 0, 60, 0
2, 28848, Note_on_c, 0, 53, 93
2, 28896, Note_off_c, 0, 53, 0
2, 28896, Note_on_c, 0, 60, 93
2, 28944, Note_off_c, 0, 60, 0
2, 28944, Note_on_c, 0, 51, 93
2, 28992, Note_off_c, 0, 51, 0
2, 28992, Note_on_c, 0, 50, 93
2, 29040, Note_off_c, 0, 50, 0
2, 29040, Note_on_c, 0, 53, 93
2, 29088, Note_off_c, 0, 53, 0
2, 29088, Note_on_c, 0, 56, 93
2, 29136, Note_off_c, 0, 56, 0
2, 29136, Note_on_c, 0, 55, 93
2, 29184, Note_off_c, 0, 55, 0
2, 29184, Note_on_c, 0, 56, 93
2, 29232, Note_off_c, 0, 56, 0
2, 29232, Note_on_c, 0, 53, 93
2, 29280, Note_off_c, 0, 53, 0
2, 29280, Note_on_c, 0, 56, 93
2, 29328, Note_off_c, 0, 56, 0
2, 29328, Note_on_c, 0, 51, 93
2, 29376, Note_off_c, 0, 51, 0
2, 29376, Note_on_c, 0, 56, 93
2, 29424, Note_off_c, 0, 56, 0
2, 29424, Note_on_c, 0, 50, 93
2, 29472, Note_off_c, 0, 50, 0
2, 29472, Note_on_c, 0, 56, 93
2, 29520, Note_off_c, 0, 56, 0
2, 29520, Note_on_c, 0, 48, 93
2, 29568, Note_off_c, 0, 48, 0
2, 29568, Note_on_c, 0, 47, 93
2, 29616, Note_off_c, 0, 47, 0
2, 29616, Note_on_c, 0, 50, 93
2, 29664, Note_off_c, 0, 50, 0
2, 29664, Note_on_c, 0, 53, 93
2, 29712, Note_off_c, 0, 53, 0
2, 29712, Note_on_c, 0, 51, 93
2, 29760, Note_off_c, 0, 51, 0
2, 29760, Note_on_c, 0, 53, 93
2, 29808, Note_off_c, 0, 53, 0
2, 29808, Note_on_c, 0, 50, 93
2, 29856, Note_off_c, 0, 50, 0
2, 29856, Note_on_c, 0, 53, 93
2, 29904, Note_off_c, 0, 53, 0
2, 29904, Note_on_c, 0, 48, 93
2, 29952, Note_off_c, 0, 48, 0
2, 29952, Note_on_c, 0, 53, 93
2, 30000, Note_off_c, 0, 53, 0
2, 30000, Note_on_c, 0, 47, 93
2, 30048, Note_off_c, 0, 47, 0
2, 30048, Note_on_c, 0, 53, 93
2, 30096, Note_off_c, 0, 53, 0
2, 30096, Note_on_c, 0, 45, 93
2, 30144, Note_off_c, 0, 45, 0
2, 30144, Note_on_c, 0, 43, 93
2, 30192, Note_off_c, 0, 43, 0
2, 30192, Note_on_c, 0, 59, 93
2, 30240, Note_off_c, 0, 59, 0
2, 30240, Note_on_c, 0, 60, 93
2, 30288, Note_off_c, 0, 60, 0
2, 30288, Note_on_c, 0, 63, 93
2, 30336, Note_off_c, 0, 63, 0
2, 30336, Note_on_c, 0, 53, 93
2, 30384, Note_off_c, 0, 53, 0
2, 30384, Note_on_c, 0, 62, 93
2, 30432, Note_off_c, 0, 62, 0
2, 30432, Note_on_c, 0, 55, 93
2, 30480, Note_off_c, 0, 55, 0
2, 30480, Note_on_c, 0, 59, 93
2, 30528, Note_off_c, 0, 59, 0
2, 30528, Note_on_c, 0, 60, 93
2, 30624, Note_off_c, 0, 60, 0
2, 30624, Note_on_c, 0, 36, 93
2, 30648, Note_off_c, 0, 36, 0
2, 30648, Note_on_c, 0, 43, 93
2, 30672, Note_off_c, 0, 43, 0
2, 30672, Note_on_c, 0, 45, 93
2, 30696, Note_off_c, 0, 45, 0
2, 30696, Note_on_c, 0, 47, 93
2, 30720, Note_off_c, 0, 47, 0
2, 30720, Note_on_c, 0, 48, 93
2, 30744, Note_off_c, 0, 48, 0
2, 30744, Note_on_c, 0, 47, 93
2, 30768, Note_off_c, 0, 47, 0
2, 30768, Note_on_c, 0, 48, 93
2, 30792, Note_off_c, 0, 48, 0
2, 30792, Note_on_c, 0, 50, 93
2, 30816, Note_off_c, 0, 50, 0
2, 30816, Note_on_c, 0, 52, 93
2, 30840, Note_off_c, 0, 52, 0
2, 30840, Note_on_c, 0, 50, 93
2, 30864, Note_off_c, 0, 50, 0
2, 30864, Note_on_c, 0, 52, 93
2, 30888, Note_off_c, 0, 52, 0
2, 30888, Note_on_c, 0, 53, 93
2, 30912, Note_off_c, 0, 53, 0
2, 30912, Note_on_c, 0, 55, 93
2, 30936, Note_off_c, 0, 55, 0
2, 30936, Note_on_c, 0, 53, 93
2, 30960, Note_off_c, 0, 53, 0
2, 30960, Note_on_c, 0, 55, 93
2, 30984, Note_off_c, 0, 55, 0
2, 30984, Note_on_c, 0, 56, 93
2, 31008, Note_off_c, 0, 56, 0
2, 31008, Note_on_c, 0, 58, 93
2, 31032, Note_off_c, 0, 58, 0
2, 31032, Note_on_c, 0, 56, 93
2, 31056, Note_off_c, 0, 56, 0
2, 31056, Note_on_c, 0, 58, 93
2, 31080, Note_off_c, 0, 58, 0
2, 31080, Note_on_c, 0, 55, 93
2, 31104, Note_off_c, 0, 55, 0
2, 31104, Note_on_c, 0, 56, 93
2, 31134, Note_off_c, 0, 56, 0
2, 31134, Note_on_c, 0, 55, 93
2, 31170, Note_off_c, 0, 55, 0
2, 31170, Note_on_c, 0, 53, 93
2, 31200, Note_off_c, 0, 53, 0
2, 31200, Note_on_c, 0, 53, 93
2, 31230, Note_off_c, 0, 53, 0
2, 31230, Note_on_c, 0, 51, 93
2, 31266, Note_off_c, 0, 51, 0
2, 31266, Note_on_c, 0, 50, 93
2, 31296, Note_off_c, 0, 50, 0
2, 31296, Note_on_c, 0, 50, 93
2, 31326, Note_off_c, 0, 50, 0
2, 31326, Note_on_c, 0, 48, 93
2, 31362, Note_off_c, 0, 48, 0
2, 31362, Note_on_c, 0, 46, 93
2, 31392, Note_off_c, 0, 46, 0
2, 31392, Note_on_c, 0, 46, 93
2, 31416, Note_off_c, 0, 46, 0
2, 31416, Note_on_c, 0, 48, 93
2, 31440, Note_off_c, 0, 48, 0
2, 31440, Note_on_c, 0, 50, 93
2, 31464, Note_off_c, 0, 50, 0
2, 31464, Note_on_c, 0, 51, 93
2, 31488, Note_off_c, 0, 51, 0
2, 31488, Note_on_c, 0, 53, 93
2, 31512, Note_off_c, 0, 53, 0
2, 31512, Note_on_c, 0, 51, 93
2, 31536, Note_off_c, 0, 51, 0
2, 31536, Note_on_c, 0, 53, 93
2, 31560, Note_off_c, 0, 53, 0
2, 31560, Note_on_c, 0, 55, 93
2, 31584, Note_off_c, 0, 55, 0
2, 31584, Note_on_c, 0, 56, 93
2, 31608, Note_off_c, 0, 56, 0
2, 31608, Note_on_c, 0, 55, 93
2, 31632, Note_off_c, 0, 55, 0
2, 31632, Note_on_c, 0, 56, 93
2, 31656, Note_off_c, 0, 56, 0
2, 31656, Note_on_c, 0, 53, 93
2, 31680, Note_off_c, 0, 53, 0
2, 31680, Note_on_c, 0, 55, 93
2, 31710, Note_off_c, 0, 55, 0
2, 31710, Note_on_c, 0, 53, 93
2, 31746, Note_off_c, 0, 53, 0
2, 31746, Note_on_c, 0, 51, 93
2, 31776, Note_off_c, 0, 51, 0
2, 31776, Note_on_c, 0, 51, 93
2, 31806, Note_off_c, 0, 51, 0
2, 31806, Note_on_c, 0, 50, 93
2, 31842, Note_off_c, 0, 50, 0
2, 31842, Note_on_c, 0, 48, 93
2, 31872, Note_off_c, 0, 48, 0
2, 31872, Note_on_c, 0, 48, 93
2, 31902, Note_off_c, 0, 48, 0
2, 31902, Note_on_c, 0, 46, 93
2, 31938, Note_off_c, 0, 46, 0
2, 31938, Note_on_c, 0, 44, 93
2, 31968, Note_off_c, 0, 44, 0
2, 31968, Note_on_c, 0, 44, 93
2, 32016, Note_off_c, 0, 44, 0
2, 32016, Note_on_c, 0, 60, 93
2, 32040, Note_off_c, 0, 60, 0
2, 32040, Note_on_c, 0, 58, 93
2, 32064, Note_off_c, 0, 58, 0
2, 32064, Note_on_c, 0, 56, 93
2, 32088, Note_off_c, 0, 56, 0
2, 32088, Note_on_c, 0, 58, 93
2, 32112, Note_off_c, 0, 58, 0
2, 32112, Note_on_c, 0, 56, 93
2, 32136, Note_off_c, 0, 56, 0
2, 32136, Note_on_c, 0, 55, 93
2, 32160, Note_off_c, 0, 55, 0
2, 32160, Note_on_c, 0, 53, 93
2, 32184, Note_off_c, 0, 53, 0
2, 32184, Note_on_c, 0, 55, 93
2, 32208, Note_off_c, 0, 55, 0
2, 32208, Note_on_c, 0, 53, 93
2, 32232, Note_off_c, 0, 53, 0
2, 32232, Note_on_c, 0, 51, 93
2, 32256, Note_off_c, 0, 51, 0
2, 32256, Note_on_c, 0, 50, 93
2, 32280, Note_off_c, 0, 50, 0
2, 32280, Note_on_c, 0, 51, 93
2, 32304, Note_off_c, 0, 51, 0
2, 32304, Note_on_c, 0, 50, 93
2, 32328, Note_off_c, 0, 50, 0
2, 32328, Note_on_c, 0, 48, 93
2, 32352, Note_off_c, 0, 48, 0
2, 32352, Note_on_c, 0, 46, 93
2, 32376, Note_off_c, 0, 46, 0
2, 32376, Note_on_c, 0, 48, 93
2, 32400, Note_off_c, 0, 48, 0
2, 32400, Note_on_c, 0, 46, 93
2, 32424, Note_off_c, 0, 46, 0
2, 32424, Note_on_c, 0, 44, 93
2, 32448, Note_off_c, 0, 44, 0
2, 32448, Note_on_c, 0, 43, 93
2, 32472, Note_off_c, 0, 43, 0
2, 32472, Note_on_c, 0, 44, 93
2, 32496, Note_off_c, 0, 44, 0
2, 32496, Note_on_c, 0, 43, 93
2, 32520, Note_off_c, 0, 43, 0
2, 32520, Note_on_c, 0, 41, 93
2, 32544, Note_off_c, 0, 41, 0
2, 32544, Note_on_c, 0, 39, 93
2, 32592, Note_off_c, 0, 39, 0
2, 32592, Note_on_c, 0, 63, 93
2, 32640, Note_off_c, 0, 63, 0
2, 32640, Note_on_c, 0, 58, 93
2, 32664, Note_off_c, 0, 58, 0
2, 32664, Note_on_c, 0, 56, 93
2, 32688, Note_off_c, 0, 56, 0
2, 32688, Note_on_c, 0, 55, 93
2, 32712, Note_off_c, 0, 55, 0
2, 32712, Note_on_c, 0, 53, 93
2, 32736, Note_off_c, 0, 53, 0
2, 32736, Note_on_c, 0, 51, 93
2, 32784, Note_off_c, 0, 51, 0
2, 32784, Note_on_c, 0, 46, 93
2, 32832, Note_off_c, 0, 46, 0
2, 32832, Note_on_c, 0, 43, 93
2, 32880, Note_off_c, 0, 43, 0
2, 32880, Note_on_c, 0, 61, 93
2, 32928, Note_off_c, 0, 61, 0
2, 32928, Note_on_c, 0, 58, 93
2, 32952, Note_off_c, 0, 58, 0
2, 32952, Note_on_c, 0, 56, 93
2, 32976, Note_off_c, 0, 56, 0
2, 32976, Note_on_c, 0, 55, 93
2, 33000, Note_off_c, 0, 55, 0
2, 33000, Note_on_c, 0, 53, 93
2, 33024, Note_off_c, 0, 53, 0
2, 33024, Note_on_c, 0, 51, 93
2, 33072, Note_off_c, 0, 51, 0
2, 33072, Note_on_c, 0, 61, 93
2, 33120, Note_off_c, 0, 61, 0
2, 33120, Note_on_c, 0, 44, 93
2, 33168, Note_off_c, 0, 44, 0
2, 33168, Note_on_c, 0, 61, 93
2, 33216, Note_off_c, 0, 61, 0
2, 33216, Note_on_c, 0, 60, 93
2, 33240, Note_off_c, 0, 60, 0
2, 33240, Note_on_c, 0, 58, 93
2, 33264, Note_off_c, 0, 58, 0
2, 33264, Note_on_c, 0, 56, 93
2, 33288, Note_off_c, 0, 56, 0
2, 33288, Note_on_c, 0, 55, 93
2, 33312, Note_off_c, 0, 55, 0
2, 33312, Note_on_c, 0, 53, 93
2, 33360, Note_off_c, 0, 53, 0
2, 33360, Note_on_c, 0, 60, 93
2, 33408, Note_off_c, 0, 60, 0
2, 33408, Note_on_c, 0, 43, 93
2, 33456, Note_off_c, 0, 43, 0
2, 33456, Note_on_c, 0, 60, 93
2, 33504, Note_off_c, 0, 60, 0
2, 33504, Note_on_c, 0, 58, 93
2, 33528, Note_off_c, 0, 58, 0
2, 33528, Note_on_c, 0, 56, 93
2, 33552, Note_off_c, 0, 56, 0
2, 33552, Note_on_c, 0, 55, 93
2, 33576, Note_off_c, 0, 55, 0
2, 33576, Note_on_c, 0, 53, 93
2, 33600, Note_off_c, 0, 53, 0
2, 33600, Note_on_c, 0, 52, 93
2, 33648, Note_off_c, 0, 52, 0
2, 33648, Note_on_c, 0, 58, 93
2, 33696, Note_off_c, 0, 58, 0
2, 33696, Note_on_c, 0, 41, 93
2, 33744, Note_off_c, 0, 41, 0
2, 33744, Note_on_c, 0, 58, 93
2, 33792, Note_off_c, 0, 58, 0
2, 33792, Note_on_c, 0, 56, 93
2, 33816, Note_off_c, 0, 56, 0
2, 33816, Note_on_c, 0, 55, 93
2, 33840, Note_off_c, 0, 55, 0
2, 33840, Note_on_c, 0, 53, 93
2, 33864, Note_off_c, 0, 53, 0
2, 33864, Note_on_c, 0, 51, 93
2, 33888, Note_off_c, 0, 51, 0
2, 33888, Note_on_c, 0, 50, 93
2, 33936, Note_off_c, 0, 50, 0
2, 33936, Note_on_c, 0, 56, 93
2, 33984, Note_off_c, 0, 56, 0
2, 33984, Note_on_c, 0, 39, 93
2, 34032, Note_off_c, 0, 39, 0
2, 34032, Note_on_c, 0, 56, 93
2, 34080, Note_off_c, 0, 56, 0
2, 34080, Note_on_c, 0, 55, 93
2, 34104, Note_off_c, 0, 55, 0
2, 34104, Note_on_c, 0, 53, 93
2, 34128, Note_off_c, 0, 53, 0
2, 34128, Note_on_c, 0, 51, 93
2, 34152, Note_off_c, 0, 51, 0
2, 34152, Note_on_c, 0, 50, 93
2, 34176, Note_off_c, 0, 50, 0
2, 34176, Note_on_c, 0, 51, 93
2, 34224, Note_off_c, 0, 51, 0
2, 34224, Note_on_c, 0, 55, 93
2, 34272, Note_off_c, 0, 55, 0
2, 34272, Note_on_c, 0, 45, 93
2, 34320, Note_off_c, 0, 45, 0
2, 34320, Note_on_c, 0, 48, 93
2, 34368, Note_off_c, 0, 48, 0
2, 34368, Note_on_c, 0, 51, 93
2, 34416, Note_off_c, 0, 51, 0
2, 34416, Note_on_c, 0, 54, 93
2, 34464, Note_off_c, 0, 54, 0
2, 34464, Note_on_c, 0, 57, 93
2, 34512, Note_off_c, 0, 57, 0
2, 34512, Note_on_c, 0, 60, 93
2, 34560, Note_off_c, 0, 60, 0
2, 34560, Note_on_c, 0, 50, 93
2, 34686, Note_off_c, 0, 50, 0
2, 34686, Note_on_c, 0, 46, 93
2, 34722, Note_off_c, 0, 46, 0
2, 34722, Note_on_c, 0, 48, 93
2, 34752, Note_off_c, 0, 48, 0
2, 34752, Note_on_c, 0, 50, 93
2, 34782, Note_off_c, 0, 50, 0
2, 34782, Note_on_c, 0, 51, 93
2, 34818, Note_off_c, 0, 51, 0
2, 34818, Note_on_c, 0, 53, 93
2, 34848, Note_off_c, 0, 53, 0
2, 34848, Note_on_c, 0, 53, 93
2, 34974, Note_off_c, 0, 53, 0
2, 34974, Note_on_c, 0, 50, 93
2, 35010, Note_off_c, 0, 50, 0
2, 35010, Note_on_c, 0, 51, 93
2, 35040, Note_off_c, 0, 51, 0
2, 35040, Note_on_c, 0, 53, 93
2, 35070, Note_off_c, 0, 53, 0
2, 35070, Note_on_c, 0, 55, 93
2, 35106, Note_off_c, 0, 55, 0
2, 35106, Note_on_c, 0, 56, 93
2, 35136, Note_off_c, 0, 56, 0
2, 35136, Note_on_c, 0, 56, 93
2, 35262, Note_off_c, 0, 56, 0
2, 35262, Note_on_c, 0, 53, 93
2, 35298, Note_off_c, 0, 53, 0
2, 35298, Note_on_c, 0, 55, 93
2, 35328, Note_off_c, 0, 55, 0
2, 35328, Note_on_c, 0, 56, 93
2, 35358, Note_off_c, 0, 56, 0
2, 35358, Note_on_c, 0, 58, 93
2, 35394, Note_off_c, 0, 58, 0
2, 35394, Note_on_c, 0, 60, 93
2, 35424, Note_off_c, 0, 60, 0
2, 35424, Note_on_c, 0, 60, 93
2, 35520, Note_off_c, 0, 60, 0
2, 35520, Note_on_c, 0, 58, 93
2, 35568, Note_off_c, 0, 58, 0
2, 35568, Note_on_c, 0, 56, 93
2, 35616, Note_off_c, 0, 56, 0
2, 35616, Note_on_c, 0, 55, 93
2, 35664, Note_off_c, 0, 55, 0
2, 35664, Note_on_c, 0, 53, 93
2, 35712, Note_off_c, 0, 53, 0
2, 35712, Note_on_c, 0, 55, 93
2, 35760, Note_off_c, 0, 55, 0
2, 35760, Note_on_c, 0, 51, 93
2, 35808, Note_off_c, 0, 51, 0
2, 35808, Note_on_c, 0, 44, 93
2, 35856, Note_off_c, 0, 44, 0
2, 35856, Note_on_c, 0, 53, 93
2, 35904, Note_off_c, 0, 53, 0
2, 35904, Note_on_c, 0, 46, 93
2, 35952, Note_off_c, 0, 46, 0
2, 35952, Note_on_c, 0, 50, 93
2, 36000, Note_off_c, 0, 50, 0
2, 36000, Note_on_c, 0, 51, 93
2, 36096, Note_off_c, 0, 51, 0
2, 36096, Note_on_c, 0, 39, 93
2, 36120, Note_off_c, 0, 39, 0
2, 36120, Note_on_c, 0, 46, 93
2, 36144, Note_off_c, 0, 46, 0
2, 36144, Note_on_c, 0, 48, 93
2, 36168, Note_off_c, 0, 48, 0
2, 36168, Note_on_c, 0, 50, 93
2, 36192, Note_off_c, 0, 50, 0
2, 36192, Note_on_c, 0, 51, 93
2, 36216, Note_off_c, 0, 51, 0
2, 36216, Note_on_c, 0, 50, 93
2, 36240, Note_off_c, 0, 50, 0
2, 36240, Note_on_c, 0, 51, 93
2, 36264, Note_off_c, 0, 51, 0
2, 36264, Note_on_c, 0, 53, 93
2, 36288, Note_off_c, 0, 53, 0
2, 36288, Note_on_c, 0, 55, 93
2, 36318, Note_off_c, 0, 55, 0
2, 36318, Note_on_c, 0, 51, 93
2, 36354, Note_off_c, 0, 51, 0
2, 36354, Note_on_c, 0, 53, 93
2, 36384, Note_off_c, 0, 53, 0
2, 36384, Note_on_c, 0, 55, 93
2, 36414, Note_off_c, 0, 55, 0
2, 36414, Note_on_c, 0, 56, 93
2, 36450, Note_off_c, 0, 56, 0
2, 36450, Note_on_c, 0, 58, 93
2, 36480, Note_off_c, 0, 58, 0
2, 36480, Note_on_c, 0, 58, 93
2, 36510, Note_off_c, 0, 58, 0
2, 36510, Note_on_c, 0, 60, 93
2, 36546, Note_off_c, 0, 60, 0
2, 36546, Note_on_c, 0, 62, 93
2, 36576, Note_off_c, 0, 62, 0
2, 36576, Note_on_c, 0, 63, 93
2, 36624, Note_off_c, 0, 63, 0
2, 36624, Note_on_c, 0, 55, 93
2, 36672, Note_off_c, 0, 55, 0
2, 36672, Note_on_c, 0, 53, 93
2, 36816, Note_off_c, 0, 53, 0
2, 36816, Note_on_c, 0, 51, 93
2, 36864, Note_off_c, 0, 51, 0
2, 36864, Note_on_c, 0, 51, 93
2, 37056, Note_off_c, 0, 51, 0
2, 37056, End_track
3, 0, Start_track
3, 0, Title_t, "Track3"
3, 0, Program_c, 1, 42
3, 0, Control_c, 1, 7, 100
3, 0, Control_c, 1, 10, 74
3, 5184, Note_on_c, 1, 53, 93
3, 5280, Note_off_c, 1, 53, 0
3, 5472, Note_on_c, 1, 51, 93
3, 5568, Note_off_c, 1, 51, 0
3, 5760, Note_on_c, 1, 57, 93
3, 5856, Note_off_c, 1, 57, 0
3, 6048, Note_on_c, 1, 57, 93
3, 6144, Note_off_c, 1, 57, 0
3, 7296, Note_on_c, 1, 41, 93
3, 7488, Note_off_c, 1, 41, 0
3, 12672, Note_on_c, 1, 53, 93
3, 12768, Note_off_c, 1, 53, 0
3, 12960, Note_on_c, 1, 51, 93
3, 13056, Note_off_c, 1, 51, 0
3, 13248, Note_on_c, 1, 57, 93
3, 13344, Note_off_c, 1, 57, 0
3, 13536, Note_on_c, 1, 57, 93
3, 13632, Note_off_c, 1, 57, 0
3, 14784, Note_on_c, 1, 41, 93
3, 14976, Note_off_c, 1, 41, 0
3, 23616, Note_on_c, 1, 46, 93
3, 23712, Note_off_c, 1, 46, 0
3, 23904, Note_on_c, 1, 44, 93
3, 24000, Note_off_c, 1, 44, 0
3, 24192, Note_on_c, 1, 50, 93
3, 24288, Note_off_c, 1, 50, 0
3, 24474, Note_on_c, 1, 50, 93
3, 24570, Note_off_c, 1, 50, 0
3, 25728, Note_on_c, 1, 46, 93
3, 25920, Note_off_c, 1, 46, 0
3, 25920, Note_on_c, 1, 46, 93
3, 26112, Note_off_c, 1, 46, 0
3, 34560, Note_on_c, 1, 46, 93
3, 34656, Note_off_c, 1, 46, 0
3, 34848, Note_on_c, 1, 44, 93
3, 34944, Note_off_c, 1, 44, 0
3, 35136, Note_on_c, 1, 50, 93
3, 35232, Note_off_c, 1, 50, 0
3, 35418, Note_on_c, 1, 50, 93
3, 35514, Note_off_c, 1, 50, 0
3, 36672, Note_on_c, 1, 46, 93
3, 36864, Note_off_c, 1, 46, 0
3, 36864, Note_on_c, 1, 46, 93
3, 37056, Note_off_c, 1, 46, 0
3, 37056, End_track
4, 0, Start_track
4, 0, Title_t, "Track4"
4, 0, Program_c, 2, 42
4, 0, Control_c, 2, 7, 100
4, 0, Control_c, 2, 10, 54
4, 5760, Note_on_c, 2, 48, 93
4, 5856, Note_off_c, 2, 48, 0
4, 13248, Note_on_c, 2, 48, 93
4, 13344, Note_off_c, 2, 48, 0
4, 24192, Note_on_c, 2, 41, 93
4, 24288, Note_off_c, 2, 41, 0
4, 25920, Note_on_c, 2, 39, 93
4, 26112, Note_off_c, 2, 39, 0
4, 35136, Note_on_c, 2, 41, 93
4, 35232, Note_off_c, 2, 41, 0
4, 36864, Note_on_c, 2, 39, 93
4, 37056, Note_off_c, 2, 39, 0
4, 37056, End_track
0, 0, End_of_file
