0, 0, Header, 1, 5, 96
1, 0, Start_track
1, 0, Time_signature, 4, 2, 24, 8
1, 0, Title_t, "untitled"
1, 0, Title_t, "Track1"
1, 0, Tempo, 240000
1, 336, Tempo, 625000
1, 30768, Tempo, 666666
1, 30816, Tempo, 689655
1, 30864, Tempo, 800000
1, 30912, Tempo, 983606
1, 31104, Tempo, 625000
1, 31104, End_track
2, 0, Start_track
2, 0, Title_t, "Track2"
2, 0, Program_c, 0, 42
2, 0, Control_c, 0, 7, 100
2, 0, Control_c, 0, 10, 64
2, 336, Note_on_c, 0, 58, 93
2, 384, Note_off_c, 0, 58, 0
2, 384, Note_on_c, 0, 63, 93
2, 432, Note_off_c, 0, 63, 0
2, 432, Note_on_c, 0, 62, 93
2, 456, Note_off_c, 0, 62, 0
2, 456, Note_on_c, 0, 60, 93
2, 480, Note_off_c, 0, 60, 0
2, 480, Note_on_c, 0, 58, 93
2, 504, Note_off_c, 0, 58, 0
2, 504, Note_on_c, 0, 56, 93
2, 528, Note_off_c, 0, 56, 0
2, 528, Note_on_c, 0, 55, 93
2, 552, Note_off_c, 0, 55, 0
2, 552, Note_on_c, 0, 56, 93
2, 576, Note_off_c, 0, 56, 0
2, 576, Note_on_c, 0, 58, 93
2, 600, Note_off_c, 0, 58, 0
2, 600, Note_on_c, 0, 56, 93
2, 624, Note_off_c, 0, 56, 0
2, 624, Note_on_c, 0, 55, 93
2, 648, Note_off_c, 0, 55, 0
2, 648, Note_on_c, 0, 53, 93
2, 672, Note_off_c, 0, 53, 0
2, 672, Note_on_c, 0, 51, 93
2, 696, Note_off_c, 0, 51, 0
2, 696, Note_on_c, 0, 50, 93
2, 720, Note_off_c, 0, 50, 0
2, 720, Note_on_c, 0, 48, 93
2, 744, Note_off_c, 0, 48, 0
2, 744, Note_on_c, 0, 46, 93
2, 768, Note_off_c, 0, 46, 0
2, 768, Note_on_c, 0, 48, 93
2, 792, Note_off_c, 0, 48, 0
2, 792, Note_on_c, 0, 51, 93
2, 816, Note_off_c, 0, 51, 0
2, 816, Note_on_c, 0, 53, 93
2, 840, Note_off_c, 0, 53, 0
2, 840, Note_on_c, 0, 55, 93
2, 864, Note_off_c, 0, 55, 0
2, 864, Note_on_c, 0, 56, 93
2, 888, Note_off_c, 0, 56, 0
2, 888, Note_on_c, 0, 55, 93
2, 912, Note_off_c, 0, 55, 0
2, 912, Note_on_c, 0, 53, 93
2, 936, Note_off_c, 0, 53, 0
2, 936, Note_on_c, 0, 51, 93
2, 960, Note_off_c, 0, 51, 0
2, 960, Note_on_c, 0, 50, 93
2, 984, Note_off_c, 0, 50, 0
2, 984, Note_on_c, 0, 51, 93
2, 1008, Note_off_c, 0, 51, 0
2, 1008, Note_on_c, 0, 53, 93
2, 1032, Note_off_c, 0, 53, 0
2, 1032, Note_on_c, 0, 50, 93
2, 1056, Note_off_c, 0, 50, 0
2, 1056, Note_on_c, 0, 46, 93
2, 1104, Note_off_c, 0, 46, 0
2, 1104, Note_on_c, 0, 44, 93
2, 1152, Note_off_c, 0, 44, 0
2, 1152, Note_on_c, 0, 43, 93
2, 1176, Note_off_c, 0, 43, 0
2, 1176, Note_on_c, 0, 46, 93
2, 1200, Note_off_c, 0, 46, 0
2, 1200, Note_on_c, 0, 48, 93
2, 1224, Note_off_c, 0, 48, 0
2, 1224, Note_on_c, 0, 50, 93
2, 1248, Note_off_c, 0, 50, 0
2, 1248, Note_on_c, 0, 51, 93
2, 1296, Note_off_c, 0, 51, 0
2, 1296, Note_on_c, 0, 61, 93
2, 1344, Note_off_c, 0, 61, 0
2, 1344, Note_on_c, 0, 44, 93
2, 1392, Note_off_c, 0, 44, 0
2, 1392, Note_on_c, 0, 60, 93
2, 1440, Note_off_c, 0, 60, 0
2, 1440, Note_on_c, 0, 53, 93
2, 1488, Note_off_c, 0, 53, 0
2, 1488, Note_on_c, 0, 51, 93
2, 1536, Note_off_c, 0, 51, 0
2, 1536, Note_on_c, 0, 41, 93
2, 1560, Note_off_c, 0, 41, 0
2, 1560, Note_on_c, 0, 44, 93
2, 1584, Note_off_c, 0, 44, 0
2, 1584, Note_on_c, 0, 46, 93
2, 1608, Note_off_c, 0, 46, 0
2, 1608, Note_on_c, 0, 48, 93
2, 1632, Note_off_c, 0, 48, 0
2, 1632, Note_on_c, 0, 50, 93
2, 1680, Note_off_c, 0, 50, 0
2, 1680, Note_on_c, 0, 60, 93
2, 1728, Note_off_c, 0, 60, 0
2, 1728, Note_on_c, 0, 43, 93
2, 1776, Note_off_c, 0, 43, 0
2, 1776, Note_on_c, 0, 58, 93
2, 1824, Note_off_c, 0, 58, 0
2, 1824, Note_on_c, 0, 51, 93
2, 1872, Note_off_c, 0, 51, 0
2, 1872, Note_on_c, 0, 50, 93
2, 1920, Note_off_c, 0, 50, 0
2, 1920, Note_on_c, 0, 39, 93
2, 1944, Note_off_c, 0, 39, 0
2, 1944, Note_on_c, 0, 43, 93
2, 1968, Note_off_c, 0, 43, 0
2, 1968, Note_on_c, 0, 44, 93
2, 1992, Note_off_c, 0, 44, 0
2, 1992, Note_on_c, 0, 46, 93
2, 2016, Note_off_c, 0, 46, 0
2, 2016, Note_on_c, 0, 48, 93
2, 2064, Note_off_c, 0, 48, 0
2, 2064, Note_on_c, 0, 58, 93
2, 2112, Note_off_c, 0, 58, 0
2, 2112, Note_on_c, 0, 41, 93
2, 2160, Note_off_c, 0, 41, 0
2, 2160, Note_on_c, 0, 56, 93
2, 2208, Note_off_c, 0, 56, 0
2, 2208, Note_on_c, 0, 50, 93
2, 2256, Note_off_c, 0, 50, 0
2, 2256, Note_on_c, 0, 58, 93
2, 2280, Note_off_c, 0, 58, 0
2, 2280, Note_on_c, 0, 56, 93
2, 2304, Note_off_c, 0, 56, 0
2, 2304, Note_on_c, 0, 55, 93
2, 2328, Note_off_c, 0, 55, 0
2, 2328, Note_on_c, 0, 53, 93
2, 2352, Note_off_c, 0, 53, 0
2, 2352, Note_on_c, 0, 51, 93
2, 2376, Note_off_c, 0, 51, 0
2, 2376, Note_on_c, 0, 55, 93
2, 2400, Note_off_c, 0, 55, 0
2, 2400, Note_on_c, 0, 53, 93
2, 2424, Note_off_c, 0, 53, 0
2, 2424, Note_on_c, 0, 51, 93
2, 2448, Note_off_c, 0, 51, 0
2, 2448, Note_on_c, 0, 50, 93
2, 2472, Note_off_c, 0, 50, 0
2, 2472, Note_on_c, 0, 53, 93
2, 2496, Note_off_c, 0, 53, 0
2, 2496, Note_on_c, 0, 51, 93
2, 2616, Note_off_c, 0, 51, 0
2, 2616, Note_on_c, 0, 53, 93
2, 2640, Note_off_c, 0, 53, 0
2, 2640, Note_on_c, 0, 50, 93
2, 2664, Note_off_c, 0, 50, 0
2, 2664, Note_on_c, 0, 51, 93
2, 2688, Note_off_c, 0, 51, 0
2, 2688, Note_on_c, 0, 53, 93
2, 2712, Note_off_c, 0, 53, 0
2, 2712, Note_on_c, 0, 51, 93
2, 2736, Note_off_c, 0, 51, 0
2, 2736, Note_on_c, 0, 50, 93
2, 2760, Note_off_c, 0, 50, 0
2, 2760, Note_on_c, 0, 48, 93
2, 2784, Note_off_c, 0, 48, 0
2, 2784, Note_on_c, 0, 46, 93
2, 2808, Note_off_c, 0, 46, 0
2, 2808, Note_on_c, 0, 48, 93
2, 2832, Note_off_c, 0, 48, 0
2, 2832, Note_on_c, 0, 50, 93
2, 2856, Note_off_c, 0, 50, 0
2, 2856, Note_on_c, 0, 51, 93
2, 2880, Note_off_c, 0, 51, 0
2, 2880, Note_on_c, 0, 53, 93
2, 2904, Note_off_c, 0, 53, 0
2, 2904, Note_on_c, 0, 55, 93
2, 2928, Note_off_c, 0, 55, 0
2, 2928, Note_on_c, 0, 56, 93
2, 2952, Note_off_c, 0, 56, 0
2, 2952, Note_on_c, 0, 53, 93
2, 2976, Note_off_c, 0, 53, 0
2, 2976, Note_on_c, 0, 55, 93
2, 3000, Note_off_c, 0, 55, 0
2, 3000, Note_on_c, 0, 53, 93
2, 3024, Note_off_c, 0, 53, 0
2, 3024, Note_on_c, 0, 51, 93
2, 3048, Note_off_c, 0, 51, 0
2, 3048, Note_on_c, 0, 53, 93
2, 3072, Note_off_c, 0, 53, 0
2, 3072, Note_on_c, 0, 55, 93
2, 3096, Note_off_c, 0, 55, 0
2, 3096, Note_on_c, 0, 53, 93
2, 3120, Note_off_c, 0, 53, 0
2, 3120, Note_on_c, 0, 51, 93
2, 3144, Note_off_c, 0, 51, 0
2, 3144, Note_on_c, 0, 50, 93
2, 3168, Note_off_c, 0, 50, 0
2, 3168, Note_on_c, 0, 48, 93
2, 3192, Note_off_c, 0, 48, 0
2, 3192, Note_on_c, 0, 50, 93
2, 3216, Note_off_c, 0, 50, 0
2, 3216, Note_on_c, 0, 51, 93
2, 3240, Note_off_c, 0, 51, 0
2, 3240, Note_on_c, 0, 53, 93
2, 3264, Note_off_c, 0, 53, 0
2, 3264, Note_on_c, 0, 55, 93
2, 3288, Note_off_c, 0, 55, 0
2, 3288, Note_on_c, 0, 57, 93
2, 3312, Note_off_c, 0, 57, 0
2, 3312, Note_on_c, 0, 58, 93
2, 3336, Note_off_c, 0, 58, 0
2, 3336, Note_on_c, 0, 55, 93
2, 3360, Note_off_c, 0, 55, 0
2, 3360, Note_on_c, 0, 57, 93
2, 3384, Note_off_c, 0, 57, 0
2, 3384, Note_on_c, 0, 55, 93
2, 3408, Note_off_c, 0, 55, 0
2, 3408, Note_on_c, 0, 53, 93
2, 3432, Note_off_c, 0, 53, 0
2, 3432, Note_on_c, 0, 55, 93
2, 3456, Note_off_c, 0, 55, 0
2, 3456, Note_on_c, 0, 57, 93
2, 3480, Note_off_c, 0, 57, 0
2, 3480, Note_on_c, 0, 55, 93
2, 3504, Note_off_c, 0, 55, 0
2, 3504, Note_on_c, 0, 53, 93
2, 3528, Note_off_c, 0, 53, 0
2, 3528, Note_on_c, 0, 51, 93
2, 3552, Note_off_c, 0, 51, 0
2, 3552, Note_on_c, 0, 50, 93
2, 3600, Note_off_c, 0, 50, 0
2, 3600, Note_on_c, 0, 60, 93
2, 3648, Note_off_c, 0, 60, 0
2, 3648, Note_on_c, 0, 43, 93
2, 3672, Note_off_c, 0, 43, 0
2, 3672, Note_on_c, 0, 46, 93
2, 3696, Note_off_c, 0, 46, 0
2, 3696, Note_on_c, 0, 48, 93
2, 3720, Note_off_c, 0, 48, 0
2, 3720, Note_on_c, 0, 50, 93
2, 3744, Note_off_c, 0, 50, 0
2, 3744, Note_on_c, 0, 51, 93
2, 3792, Note_off_c, 0, 51, 0
2, 3792, Note_on_c, 0, 62, 93
2, 3840, Note_off_c, 0, 62, 0
2, 3840, Note_on_c, 0, 60, 93
2, 3864, Note_off_c, 0, 60, 0
2, 3864, Note_on_c, 0, 58, 93
2, 3888, Note_off_c, 0, 58, 0
2, 3888, Note_on_c, 0, 57, 93
2, 3912, Note_off_c, 0, 57, 0
2, 3912, Note_on_c, 0, 55, 93
2, 3936, Note_off_c, 0, 55, 0
2, 3936, Note_on_c, 0, 53, 93
2, 3984, Note_off_c, 0, 53, 0
2, 3984, Note_on_c, 0, 63, 93
2, 4032, Note_off_c, 0, 63, 0
2, 4032, Note_on_c, 0, 46, 93
2, 4056, Note_off_c, 0, 46, 0
2, 4056, Note_on_c, 0, 50, 93
2, 4080, Note_off_c, 0, 50, 0
2, 4080, Note_on_c, 0, 51, 93
2, 4104, Note_off_c, 0, 51, 0
2, 4104, Note_on_c, 0, 53, 93
2, 4128, Note_off_c, 0, 53, 0
2, 4128, Note_on_c, 0, 55, 93
2, 4176, Note_off_c, 0, 55, 0
2, 4176, Note_on_c, 0, 65, 93
2, 4224, Note_off_c, 0, 65, 0
2, 4224, Note_on_c, 0, 63, 93
2, 4248, Note_off_c, 0, 63, 0
2, 4248, Note_on_c, 0, 62, 93
2, 4272, Note_off_c, 0, 62, 0
2, 4272, Note_on_c, 0, 60, 93
2, 4296, Note_off_c, 0, 60, 0
2, 4296, Note_on_c, 0, 58, 93
2, 4320, Note_off_c, 0, 58, 0
2, 4320, Note_on_c, 0, 57, 93
2, 4368, Note_off_c, 0, 57, 0
2, 4368, Note_on_c, 0, 67, 93
2, 4416, Note_off_c, 0, 67, 0
2, 4416, Note_on_c, 0, 65, 93
2, 4440, Note_off_c, 0, 65, 0
2, 4440, Note_on_c, 0, 63, 93
2, 4464, Note_off_c, 0, 63, 0
2, 4464, Note_on_c, 0, 62, 93
2, 4488, Note_off_c, 0, 62, 0
2, 4488, Note_on_c, 0, 60, 93
2, 4512, Note_off_c, 0, 60, 0
2, 4512, Note_on_c, 0, 58, 93
2, 4560, Note_off_c, 0, 58, 0
2, 4560, Note_on_c, 0, 56, 93
2, 4608, Note_off_c, 0, 56, 0
2, 4608, Note_on_c, 0, 55, 93
2, 4632, Note_off_c, 0, 55, 0
2, 4632, Note_on_c, 0, 53, 93
2, 4656, Note_off_c, 0, 53, 0
2, 4656, Note_on_c, 0, 51, 93
2, 4680, Note_off_c, 0, 51, 0
2, 4680, Note_on_c, 0, 50, 93
2, 4704, Note_off_c, 0, 50, 0
2, 4704, Note_on_c, 0, 48, 93
2, 4752, Note_off_c, 0, 48, 0
2, 4752, Note_on_c, 0, 46, 93
2, 4800, Note_off_c, 0, 46, 0
2, 4800, Note_on_c, 0, 45, 93
2, 4824, Note_off_c, 0, 45, 0
2, 4824, Note_on_c, 0, 51, 93
2, 4848, Note_off_c, 0, 51, 0
2, 4848, Note_on_c, 0, 55, 93
2, 4944, Note_off_c, 0, 55, 0
2, 4944, Note_on_c, 0, 53, 93
2, 4968, Note_off_c, 0, 53, 0
2, 4968, Note_on_c, 0, 51, 93
2, 4992, Note_off_c, 0, 51, 0
2, 4992, Note_on_c, 0, 50, 93
2, 5016, Note_off_c, 0, 50, 0
2, 5016, Note_on_c, 0, 48, 93
2, 5040, Note_off_c, 0, 48, 0
2, 5040, Note_on_c, 0, 46, 93
2, 5064, Note_off_c, 0, 46, 0
2, 5064, Note_on_c, 0, 50, 93
2, 5088, Note_off_c, 0, 50, 0
2, 5088, Note_on_c, 0, 48, 93
2, 5112, Note_off_c, 0, 48, 0
2, 5112, Note_on_c, 0, 46, 93
2, 5136, Note_off_c, 0, 46, 0
2, 5136, Note_on_c, 0, 45, 93
2, 5160, Note_off_c, 0, 45, 0
2, 5160, Note_on_c, 0, 48, 93
2, 5184, Note_off_c, 0, 48, 0
2, 5184, Note_on_c, 0, 46, 93
2, 5208, Note_off_c, 0, 46, 0
2, 5208, Note_on_c, 0, 50, 93
2, 5232, Note_off_c, 0, 50, 0
2, 5232, Note_on_c, 0, 48, 93
2, 5256, Note_off_c, 0, 48, 0
2, 5256, Note_on_c, 0, 46, 93
2, 5280, Note_off_c, 0, 46, 0
2, 5280, Note_on_c, 0, 48, 93
2, 5304, Note_off_c, 0, 48, 0
2, 5304, Note_on_c, 0, 51, 93
2, 5328, Note_off_c, 0, 51, 0
2, 5328, Note_on_c, 0, 50, 93
2, 5352, Note_off_c, 0, 50, 0
2, 5352, Note_on_c, 0, 48, 93
2, 5376, Note_off_c, 0, 48, 0
2, 5376, Note_on_c, 0, 50, 93
2, 5400, Note_off_c, 0, 50, 0
2, 5400, Note_on_c, 0, 51, 93
2, 5424, Note_off_c, 0, 51, 0
2, 5424, Note_on_c, 0, 53, 93
2, 5448, Note_off_c, 0, 53, 0
2, 5448, Note_on_c, 0, 55, 93
2, 5472, Note_off_c, 0, 55, 0
2, 5472, Note_on_c, 0, 56, 93
2, 5520, Note_off_c, 0, 56, 0
2, 5520, Note_on_c, 0, 46, 93
2, 5568, Note_off_c, 0, 46, 0
2, 5568, Note_on_c, 0, 39, 93
2, 5616, Note_off_c, 0, 39, 0
2, 5616, Note_on_c, 0, 56, 93
2, 5664, Note_off_c, 0, 56, 0
2, 5664, Note_on_c, 0, 55, 93
2, 5688, Note_off_c, 0, 55, 0
2, 5688, Note_on_c, 0, 53, 93
2, 5712, Note_off_c, 0, 53, 0
2, 5712, Note_on_c, 0, 51, 93
2, 5736, Note_off_c, 0, 51, 0
2, 5736, Note_on_c, 0, 50, 93
2, 5760, Note_off_c, 0, 50, 0
2, 5760, Note_on_c, 0, 48, 93
2, 5784, Note_off_c, 0, 48, 0
2, 5784, Note_on_c, 0, 50, 93
2, 5808, Note_off_c, 0, 50, 0
2, 5808, Note_on_c, 0, 51, 93
2, 5832, Note_off_c, 0, 51, 0
2, 5832, Note_on_c, 0, 53, 93
2, 5856, Note_off_c, 0, 53, 0
2, 5856, Note_on_c, 0, 55, 93
2, 5904, Note_off_c, 0, 55, 0
2, 5904, Note_on_c, 0, 58, 93
2, 5952, Note_off_c, 0, 58, 0
2, 5952, Note_on_c, 0, 57, 93
2, 5976, Note_off_c, 0, 57, 0
2, 5976, Note_on_c, 0, 58, 93
2, 6000, Note_off_c, 0, 58, 0
2, 6000, Note_on_c, 0, 60, 93
2, 6024, Note_off_c, 0, 60, 0
2, 6024, Note_on_c, 0, 58, 93
2, 6048, Note_off_c, 0, 58, 0
2, 6048, Note_on_c, 0, 57, 93
2, 6072, Note_off_c, 0, 57, 0
2, 6072, Note_on_c, 0, 55, 93
2, 6096, Note_off_c, 0, 55, 0
2, 6096, Note_on_c, 0, 53, 93
2, 6120, Note_off_c, 0, 53, 0
2, 6120, Note_on_c, 0, 51, 93
2, 6144, Note_off_c, 0, 51, 0
2, 6144, Note_on_c, 0, 50, 93
2, 6168, Note_off_c, 0, 50, 0
2, 6168, Note_on_c, 0, 48, 93
2, 6192, Note_off_c, 0, 48, 0
2, 6192, Note_on_c, 0, 46, 93
2, 6216, Note_off_c, 0, 46, 0
2, 6216, Note_on_c, 0, 50, 93
2, 6240, Note_off_c, 0, 50, 0
2, 6240, Note_on_c, 0, 48, 93
2, 6264, Note_off_c, 0, 48, 0
2, 6264, Note_on_c, 0, 46, 93
2, 6288, Note_off_c, 0, 46, 0
2, 6288, Note_on_c, 0, 45, 93
2, 6312, Note_off_c, 0, 45, 0
2, 6312, Note_on_c, 0, 48, 93
2, 6336, Note_off_c, 0, 48, 0
2, 6336, Note_on_c, 0, 46, 93
2, 6480, Note_off_c, 0, 46, 0
2, 6480, Note_on_c, 0, 58, 93
2, 6528, Note_off_c, 0, 58, 0
2, 6528, Note_on_c, 0, 63, 93
2, 6576, Note_off_c, 0, 63, 0
2, 6576, Note_on_c, 0, 62, 93
2, 6600, Note_off_c, 0, 62, 0
2, 6600, Note_on_c, 0, 60, 93
2, 6624, Note_off_c, 0, 60, 0
2, 6624, Note_on_c, 0, 58, 93
2, 6648, Note_off_c, 0, 58, 0
2, 6648, Note_on_c, 0, 56, 93
2, 6672, Note_off_c, 0, 56, 0
2, 6672, Note_on_c, 0, 55, 93
2, 6696, Note_off_c, 0, 55, 0
2, 6696, Note_on_c, 0, 56, 93
2, 6720, Note_off_c, 0, 56, 0
2, 6720, Note_on_c, 0, 58, 93
2, 6744, Note_off_c, 0, 58, 0
2, 6744, Note_on_c, 0, 56, 93
2, 6768, Note_off_c, 0, 56, 0
2, 6768, Note_on_c, 0, 55, 93
2, 6792, Note_off_c, 0, 55, 0
2, 6792, Note_on_c, 0, 53, 93
2, 6816, Note_off_c, 0, 53, 0
2, 6816, Note_on_c, 0, 51, 93
2, 6840, Note_off_c, 0, 51, 0
2, 6840, Note_on_c, 0, 50, 93
2, 6864, Note_off_c, 0, 50, 0
2, 6864, Note_on_c, 0, 48, 93
2, 6888, Note_off_c, 0, 48, 0
2, 6888, Note_on_c, 0, 46, 93
2, 6912, Note_off_c, 0, 46, 0
2, 6912, Note_on_c, 0, 48, 93
2, 6936, Note_off_c, 0, 48, 0
2, 6936, Note_on_c, 0, 51, 93
2, 6960, Note_off_c, 0, 51, 0
2, 6960, Note_on_c, 0, 53, 93
2, 6984, Note_off_c, 0, 53, 0
2, 6984, Note_on_c, 0, 55, 93
2, 7008, Note_off_c, 0, 55, 0
2, 7008, Note_on_c, 0, 56, 93
2, 7032, Note_off_c, 0, 56, 0
2, 7032, Note_on_c, 0, 55, 93
2, 7056, Note_off_c, 0, 55, 0
2, 7056, Note_on_c, 0, 53, 93
2, 7080, Note_off_c, 0, 53, 0
2, 7080, Note_on_c, 0, 51, 93
2, 7104, Note_off_c, 0, 51, 0
2, 7104, Note_on_c, 0, 50, 93
2, 7128, Note_off_c, 0, 50, 0
2, 7128, Note_on_c, 0, 51, 93
2, 7152, Note_off_c, 0, 51, 0
2, 7152, Note_on_c, 0, 53, 93
2, 7176, Note_off_c, 0, 53, 0
2, 7176, Note_on_c, 0, 50, 93
2, 7200, Note_off_c, 0, 50, 0
2, 7200, Note_on_c, 0, 46, 93
2, 7248, Note_off_c, 0, 46, 0
2, 7248, Note_on_c, 0, 44, 93
2, 7296, Note_off_c, 0, 44, 0
2, 7296, Note_on_c, 0, 43, 93
2, 7320, Note_off_c, 0, 43, 0
2, 7320, Note_on_c, 0, 46, 93
2, 7344, Note_off_c, 0, 46, 0
2, 7344, Note_on_c, 0, 48, 93
2, 7368, Note_off_c, 0, 48, 0
2, 7368, Note_on_c, 0, 50, 93
2, 7392, Note_off_c, 0, 50, 0
2, 7392, Note_on_c, 0, 51, 93
2, 7440, Note_off_c, 0, 51, 0
2, 7440, Note_on_c, 0, 61, 93
2, 7488, Note_off_c, 0, 61, 0
2, 7488, Note_on_c, 0, 44, 93
2, 7536, Note_off_c, 0, 44, 0
2, 7536, Note_on_c, 0, 60, 93
2, 7584, Note_off_c, 0, 60, 0
2, 7584, Note_on_c, 0, 53, 93
2, 7632, Note_off_c, 0, 53, 0
2, 7632, Note_on_c, 0, 51, 93
2, 7680, Note_off_c, 0, 51, 0
2, 7680, Note_on_c, 0, 41, 93
2, 7704, Note_off_c, 0, 41, 0
2, 7704, Note_on_c, 0, 44, 93
2, 7728, Note_off_c, 0, 44, 0
2, 7728, Note_on_c, 0, 46, 93
2, 7752, Note_off_c, 0, 46, 0
2, 7752, Note_on_c, 0, 48, 93
2, 7776, Note_off_c, 0, 48, 0
2, 7776, Note_on_c, 0, 50, 93
2, 7824, Note_off_c, 0, 50, 0
2, 7824, Note_on_c, 0, 60, 93
2, 7872, Note_off_c, 0, 60, 0
2, 7872, Note_on_c, 0, 43, 93
2, 7920, Note_off_c, 0, 43, 0
2, 7920, Note_on_c, 0, 58, 93
2, 7968, Note_off_c, 0, 58, 0
2, 7968, Note_on_c, 0, 51, 93
2, 8016, Note_off_c, 0, 51, 0
2, 8016, Note_on_c, 0, 50, 93
2, 8064, Note_off_c, 0, 50, 0
2, 8064, Note_on_c, 0, 39, 93
2, 8088, Note_off_c, 0, 39, 0
2, 8088, Note_on_c, 0, 43, 93
2, 8112, Note_off_c, 0, 43, 0
2, 8112, Note_on_c, 0, 44, 93
2, 8136, Note_off_c, 0, 44, 0
2, 8136, Note_on_c, 0, 46, 93
2, 8160, Note_off_c, 0, 46, 0
2, 8160, Note_on_c, 0, 48, 93
2, 8208, Note_off_c, 0, 48, 0
2, 8208, Note_on_c, 0, 58, 93
2, 8256, Note_off_c, 0, 58, 0
2, 8256, Note_on_c, 0, 41, 93
2, 8304, Note_off_c, 0, 41, 0
2, 8304, Note_on_c, 0, 56, 93
2, 8352, Note_off_c, 0, 56, 0
2, 8352, Note_on_c, 0, 50, 93
2, 8400, Note_off_c, 0, 50, 0
2, 8400, Note_on_c, 0, 58, 93
2, 8424, Note_off_c, 0, 58, 0
2, 8424, Note_on_c, 0, 56, 93
2, 8448, Note_off_c, 0, 56, 0
2, 8448, Note_on_c, 0, 55, 93
2, 8472, Note_off_c, 0, 55, 0
2, 8472, Note_on_c, 0, 53, 93
2, 8496, Note_off_c, 0, 53, 0
2, 8496, Note_on_c, 0, 51, 93
2, 8520, Note_off_c, 0, 51, 0
2, 8520, Note_on_c, 0, 55, 93
2, 8544, Note_off_c, 0, 55, 0
2, 8544, Note_on_c, 0, 53, 93
2, 8568, Note_off_c, 0, 53, 0
2, 8568, Note_on_c, 0, 51, 93
2, 8592, Note_off_c, 0, 51, 0
2, 8592, Note_on_c, 0, 50, 93
2, 8616, Note_off_c, 0, 50, 0
2, 8616, Note_on_c, 0, 53, 93
2, 8640, Note_off_c, 0, 53, 0
2, 8640, Note_on_c, 0, 51, 93
2, 8760, Note_off_c, 0, 51, 0
2, 8760, Note_on_c, 0, 53, 93
2, 8784, Note_off_c, 0, 53, 0
2, 8784, Note_on_c, 0, 50, 93
2, 8808, Note_off_c, 0, 50, 0
2, 8808, Note_on_c, 0, 51, 93
2, 8832, Note_off_c, 0, 51, 0
2, 8832, Note_on_c, 0, 53, 93
2, 8856, Note_off_c, 0, 53, 0
2, 8856, Note_on_c, 0, 51, 93
2, 8880, Note_off_c, 0, 51, 0
2, 8880, Note_on_c, 0, 50, 93
2, 8904, Note_off_c, 0, 50, 0
2, 8904, Note_on_c, 0, 48, 93
2, 8928, Note_off_c, 0, 48, 0
2, 8928, Note_on_c, 0, 46, 93
2, 8952, Note_off_c, 0, 46, 0
2, 8952, Note_on_c, 0, 48, 93
2, 8976, Note_off_c, 0, 48, 0
2, 8976, Note_on_c, 0, 50, 93
2, 9000, Note_off_c, 0, 50, 0
2, 9000, Note_on_c, 0, 51, 93
2, 9024, Note_off_c, 0, 51, 0
2, 9024, Note_on_c, 0, 53, 93
2, 9048, Note_off_c, 0, 53, 0
2, 9048, Note_on_c, 0, 55, 93
2, 9072, Note_off_c, 0, 55, 0
2, 9072, Note_on_c, 0, 56, 93
2, 9096, Note_off_c, 0, 56, 0
2, 9096, Note_on_c, 0, 53, 93
2, 9120, Note_off_c, 0, 53, 0
2, 9120, Note_on_c, 0, 55, 93
2, 9144, Note_off_c, 0, 55, 0
2, 9144, Note_on_c, 0, 53, 93
2, 9168, Note_off_c, 0, 53, 0
2, 9168, Note_on_c, 0, 51, 93
2, 9192, Note_off_c, 0, 51, 0
2, 9192, Note_on_c, 0, 53, 93
2, 9216, Note_off_c, 0, 53, 0
2, 9216, Note_on_c, 0, 55, 93
2, 9240, Note_off_c, 0, 55, 0
2, 9240, Note_on_c, 0, 53, 93
2, 9264, Note_off_c, 0, 53, 0
2, 9264, Note_on_c, 0, 51, 93
2, 9288, Note_off_c, 0, 51, 0
2, 9288, Note_on_c, 0, 50, 93
2, 9312, Note_off_c, 0, 50, 0
2, 9312, Note_on_c, 0, 48, 93
2, 9336, Note_off_c, 0, 48, 0
2, 9336, Note_on_c, 0, 50, 93
2, 9360, Note_off_c, 0, 50, 0
2, 9360, Note_on_c, 0, 51, 93
2, 9384, Note_off_c, 0, 51, 0
2, 9384, Note_on_c, 0, 53, 93
2, 9408, Note_off_c, 0, 53, 0
2, 9408, Note_on_c, 0, 55, 93
2, 9432, Note_off_c, 0, 55, 0
2, 9432, Note_on_c, 0, 57, 93
2, 9456, Note_off_c, 0, 57, 0
2, 9456, Note_on_c, 0, 58, 93
2, 9480, Note_off_c, 0, 58, 0
2, 9480, Note_on_c, 0, 55, 93
2, 9504, Note_off_c, 0, 55, 0
2, 9504, Note_on_c, 0, 57, 93
2, 9528, Note_off_c, 0, 57, 0
2, 9528, Note_on_c, 0, 55, 93
2, 9552, Note_off_c, 0, 55, 0
2, 9552, Note_on_c, 0, 53, 93
2, 9576, Note_off_c, 0, 53, 0
2, 9576, Note_on_c, 0, 55, 93
2, 9600, Note_off_c, 0, 55, 0
2, 9600, Note_on_c, 0, 57, 93
2, 9624, Note_off_c, 0, 57, 0
2, 9624, Note_on_c, 0, 55, 93
2, 9648, Note_off_c, 0, 55, 0
2, 9648, Note_on_c, 0, 53, 93
2, 9672, Note_off_c, 0, 53, 0
2, 9672, Note_on_c, 0, 51, 93
2, 9696, Note_off_c, 0, 51, 0
2, 9696, Note_on_c, 0, 50, 93
2, 9744, Note_off_c, 0, 50, 0
2, 9744, Note_on_c, 0, 60, 93
2, 9792, Note_off_c, 0, 60, 0
2, 9792, Note_on_c, 0, 43, 93
2, 9816, Note_off_c, 0, 43, 0
2, 9816, Note_on_c, 0, 46, 93
2, 9840, Note_off_c, 0, 46, 0
2, 9840, Note_on_c, 0, 48, 93
2, 9864, Note_off_c, 0, 48, 0
2, 9864, Note_on_c, 0, 50, 93
2, 9888, Note_off_c, 0, 50, 0
2, 9888, Note_on_c, 0, 51, 93
2, 9936, Note_off_c, 0, 51, 0
2, 9936, Note_on_c, 0, 62, 93
2, 9984, Note_off_c, 0, 62, 0
2, 9984, Note_on_c, 0, 60, 93
2, 10008, Note_off_c, 0, 60, 0
2, 10008, Note_on_c, 0, 58, 93
2, 10032, Note_off_c, 0, 58, 0
2, 10032, Note_on_c, 0, 57, 93
2, 10056, Note_off_c, 0, 57, 0
2, 10056, Note_on_c, 0, 55, 93
2, 10080, Note_off_c, 0, 55, 0
2, 10080, Note_on_c, 0, 53, 93
2, 10128, Note_off_c, 0, 53, 0
2, 10128, Note_on_c, 0, 63, 93
2, 10176, Note_off_c, 0, 63, 0
2, 10176, Note_on_c, 0, 46, 93
2, 10200, Note_off_c, 0, 46, 0
2, 10200, Note_on_c, 0, 50, 93
2, 10224, Note_off_c, 0, 50, 0
2, 10224, Note_on_c, 0, 51, 93
2, 10248, Note_off_c, 0, 51, 0
2, 10248, Note_on_c, 0, 53, 93
2, 10272, Note_off_c, 0, 53, 0
2, 10272, Note_on_c, 0, 55, 93
2, 10320, Note_off_c, 0, 55, 0
2, 10320, Note_on_c, 0, 65, 93
2, 10368, Note_off_c, 0, 65, 0
2, 10368, Note_on_c, 0, 63, 93
2, 10392, Note_off_c, 0, 63, 0
2, 10392, Note_on_c, 0, 62, 93
2, 10416, Note_off_c, 0, 62, 0
2, 10416, Note_on_c, 0, 60, 93
2, 10440, Note_off_c, 0, 60, 0
2, 10440, Note_on_c, 0, 58, 93
2, 10464, Note_off_c, 0, 58, 0
2, 10464, Note_on_c, 0, 57, 93
2, 10512, Note_off_c, 0, 57, 0
2, 10512, Note_on_c, 0, 67, 93
2, 10560, Note_off_c, 0, 67, 0
2, 10560, Note_on_c, 0, 65, 93
2, 10584, Note_off_c, 0, 65, 0
2, 10584, Note_on_c, 0, 63, 93
2, 10608, Note_off_c, 0, 63, 0
2, 10608, Note_on_c, 0, 62, 93
2, 10632, Note_off_c, 0, 62, 0
2, 10632, Note_on_c, 0, 60, 93
2, 10656, Note_off_c, 0, 60, 0
2, 10656, Note_on_c, 0, 58, 93
2, 10704, Note_off_c, 0, 58, 0
2, 10704, Note_on_c, 0, 56, 93
2, 10752, Note_off_c, 0, 56, 0
2, 10752, Note_on_c, 0, 55, 93
2, 10776, Note_off_c, 0, 55, 0
2, 10776, Note_on_c, 0, 53, 93
2, 10800, Note_off_c, 0, 53, 0
2, 10800, Note_on_c, 0, 51, 93
2, 10824, Note_off_c, 0, 51, 0
2, 10824, Note_on_c, 0, 50, 93
2, 10848, Note_off_c, 0, 50, 0
2, 10848, Note_on_c, 0, 48, 93
2, 10896, Note_off_c, 0, 48, 0
2, 10896, Note_on_c, 0, 46, 93
2, 10944, Note_off_c, 0, 46, 0
2, 10944, Note_on_c, 0, 45, 93
2, 10968, Note_off_c, 0, 45, 0
2, 10968, Note_on_c, 0, 51, 93
2, 10992, Note_off_c, 0, 51, 0
2, 10992, Note_on_c, 0, 55, 93
2, 11088, Note_off_c, 0, 55, 0
2, 11088, Note_on_c, 0, 53, 93
2, 11112, Note_off_c, 0, 53, 0
2, 11112, Note_on_c, 0, 51, 93
2, 11136, Note_off_c, 0, 51, 0
2, 11136, Note_on_c, 0, 50, 93
2, 11160, Note_off_c, 0, 50, 0
2, 11160, Note_on_c, 0, 48, 93
2, 11184, Note_off_c, 0, 48, 0
2, 11184, Note_on_c, 0, 46, 93
2, 11208, Note_off_c, 0, 46, 0
2, 11208, Note_on_c, 0, 50, 93
2, 11232, Note_off_c, 0, 50, 0
2, 11232, Note_on_c, 0, 48, 93
2, 11256, Note_off_c, 0, 48, 0
2, 11256, Note_on_c, 0, 46, 93
2, 11280, Note_off_c, 0, 46, 0
2, 11280, Note_on_c, 0, 45, 93
2, 11304, Note_off_c, 0, 45, 0
2, 11304, Note_on_c, 0, 48, 93
2, 11328, Note_off_c, 0, 48, 0
2, 11328, Note_on_c, 0, 46, 93
2, 11352, Note_off_c, 0, 46, 0
2, 11352, Note_on_c, 0, 50, 93
2, 11376, Note_off_c, 0, 50, 0
2, 11376, Note_on_c, 0, 48, 93
2, 11400, Note_off_c, 0, 48, 0
2, 11400, Note_on_c, 0, 46, 93
2, 11424, Note_off_c, 0, 46, 0
2, 11424, Note_on_c, 0, 48, 93
2, 11448, Note_off_c, 0, 48, 0
2, 11448, Note_on_c, 0, 51, 93
2, 11472, Note_off_c, 0, 51, 0
2, 11472, Note_on_c, 0, 50, 93
2, 11496, Note_off_c, 0, 50, 0
2, 11496, Note_on_c, 0, 48, 93
2, 11520, Note_off_c, 0, 48, 0
2, 11520, Note_on_c, 0, 50, 93
2, 11544, Note_off_c, 0, 50, 0
2, 11544, Note_on_c, 0, 51, 93
2, 11568, Note_off_c, 0, 51, 0
2, 11568, Note_on_c, 0, 53, 93
2, 11592, Note_off_c, 0, 53, 0
2, 11592, Note_on_c, 0, 55, 93
2, 11616, Note_off_c, 0, 55, 0
2, 11616, Note_on_c, 0, 56, 93
2, 11664, Note_off_c, 0, 56, 0
2, 11664, Note_on_c, 0, 46, 93
2, 11712, Note_off_c, 0, 46, 0
2, 11712, Note_on_c, 0, 39, 93
2, 11760, Note_off_c, 0, 39, 0
2, 11760, Note_on_c, 0, 56, 93
2, 11808, Note_off_c, 0, 56, 0
2, 11808, Note_on_c, 0, 55, 93
2, 11832, Note_off_c, 0, 55, 0
2, 11832, Note_on_c, 0, 53, 93
2, 11856, Note_off_c, 0, 53, 0
2, 11856, Note_on_c, 0, 51, 93
2, 11880, Note_off_c, 0, 51, 0
2, 11880, Note_on_c, 0, 50, 93
2, 11904, Note_off_c, 0, 50, 0
2, 11904, Note_on_c, 0, 48, 93
2, 11928, Note_off_c, 0, 48, 0
2, 11928, Note_on_c, 0, 50, 93
2, 11952, Note_off_c, 0, 50, 0
2, 11952, Note_on_c, 0, 51, 93
2, 11976, Note_off_c, 0, 51, 0
2, 11976, Note_on_c, 0, 53, 93
2, 12000, Note_off_c, 0, 53, 0
2, 12000, Note_on_c, 0, 55, 93
2, 12048, Note_off_c, 0, 55, 0
2, 12048, Note_on_c, 0, 58, 93
2, 12096, Note_off_c, 0, 58, 0
2, 12096, Note_on_c, 0, 57, 93
2, 12120, Note_off_c, 0, 57, 0
2, 12120, Note_on_c, 0, 58, 93
2, 12144, Note_off_c, 0, 58, 0
2, 12144, Note_on_c, 0, 60, 93
2, 12168, Note_off_c, 0, 60, 0
2, 12168, Note_on_c, 0, 58, 93
2, 12192, Note_off_c, 0, 58, 0
2, 12192, Note_on_c, 0, 57, 93
2, 12216, Note_off_c, 0, 57, 0
2, 12216, Note_on_c, 0, 55, 93
2, 12240, Note_off_c, 0, 55, 0
2, 12240, Note_on_c, 0, 53, 93
2, 12264, Note_off_c, 0, 53, 0
2, 12264, Note_on_c, 0, 51, 93
2, 12288, Note_off_c, 0, 51, 0
2, 12288, Note_on_c, 0, 50, 93
2, 12312, Note_off_c, 0, 50, 0
2, 12312, Note_on_c, 0, 48, 93
2, 12336, Note_off_c, 0, 48, 0
2, 12336, Note_on_c, 0, 46, 93
2, 12360, Note_off_c, 0, 46, 0
2, 12360, Note_on_c, 0, 50, 93
2, 12384, Note_off_c, 0, 50, 0
2, 12384, Note_on_c, 0, 48, 93
2, 12408, Note_off_c, 0, 48, 0
2, 12408, Note_on_c, 0, 46, 93
2, 12432, Note_off_c, 0, 46, 0
2, 12432, Note_on_c, 0, 45, 93
2, 12456, Note_off_c, 0, 45, 0
2, 12456, Note_on_c, 0, 48, 93
2, 12480, Note_off_c, 0, 48, 0
2, 12480, Note_on_c, 0, 46, 93
2, 12624, Note_off_c, 0, 46, 0
2, 12624, Note_on_c, 0, 53, 93
2, 12672, Note_off_c, 0, 53, 0
2, 12672, Note_on_c, 0, 58, 93
2, 12720, Note_off_c, 0, 58, 0
2, 12720, Note_on_c, 0, 57, 93
2, 12744, Note_off_c, 0, 57, 0
2, 12744, Note_on_c, 0, 55, 93
2, 12768, Note_off_c, 0, 55, 0
2, 12768, Note_on_c, 0, 53, 93
2, 12792, Note_off_c, 0, 53, 0
2, 12792, Note_on_c, 0, 51, 93
2, 12816, Note_off_c, 0, 51, 0
2, 12816, Note_on_c, 0, 50, 93
2, 12840, Note_off_c, 0, 50, 0
2, 12840, Note_on_c, 0, 51, 93
2, 12864, Note_off_c, 0, 51, 0
2, 12864, Note_on_c, 0, 53, 93
2, 12888, Note_off_c, 0, 53, 0
2, 12888, Note_on_c, 0, 51, 93
2, 12912, Note_off_c, 0, 51, 0
2, 12912, Note_on_c, 0, 50, 93
2, 12936, Note_off_c, 0, 50, 0
2, 12936, Note_on_c, 0, 48, 93
2, 12960, Note_off_c, 0, 48, 0
2, 12960, Note_on_c, 0, 46, 93
2, 12984, Note_off_c, 0, 46, 0
2, 12984, Note_on_c, 0, 44, 93
2, 13008, Note_off_c, 0, 44, 0
2, 13008, Note_on_c, 0, 43, 93
2, 13032, Note_off_c, 0, 43, 0
2, 13032, Note_on_c, 0, 41, 93
2, 13056, Note_off_c, 0, 41, 0
2, 13056, Note_on_c, 0, 43, 93
2, 13080, Note_off_c, 0, 43, 0
2, 13080, Note_on_c, 0, 51, 93
2, 13104, Note_off_c, 0, 51, 0
2, 13104, Note_on_c, 0, 53, 93
2, 13128, Note_off_c, 0, 53, 0
2, 13128, Note_on_c, 0, 55, 93
2, 13152, Note_off_c, 0, 55, 0
2, 13152, Note_on_c, 0, 50, 93
2, 13176, Note_off_c, 0, 50, 0
2, 13176, Note_on_c, 0, 56, 93
2, 13200, Note_off_c, 0, 56, 0
2, 13200, Note_on_c, 0, 55, 93
2, 13224, Note_off_c, 0, 55, 0
2, 13224, Note_on_c, 0, 53, 93
2, 13248, Note_off_c, 0, 53, 0
2, 13248, Note_on_c, 0, 55, 93
2, 13272, Note_off_c, 0, 55, 0
2, 13272, Note_on_c, 0, 56, 93
2, 13296, Note_off_c, 0, 56, 0
2, 13296, Note_on_c, 0, 58, 93
2, 13320, Note_off_c, 0, 58, 0
2, 13320, Note_on_c, 0, 55, 93
2, 13344, Note_off_c, 0, 55, 0
2, 13344, Note_on_c, 0, 51, 93
2, 13392, Note_off_c, 0, 51, 0
2, 13392, Note_on_c, 0, 50, 93
2, 13416, Note_off_c, 0, 50, 0
2, 13416, Note_on_c, 0, 48, 93
2, 13440, Note_off_c, 0, 48, 0
2, 13440, Note_on_c, 0, 47, 93
2, 13464, Note_off_c, 0, 47, 0
2, 13464, Note_on_c, 0, 48, 93
2, 13488, Note_off_c, 0, 48, 0
2, 13488, Note_on_c, 0, 50, 93
2, 13512, Note_off_c, 0, 50, 0
2, 13512, Note_on_c, 0, 51, 93
2, 13536, Note_off_c, 0, 51, 0
2, 13536, Note_on_c, 0, 53, 93
2, 13584, Note_off_c, 0, 53, 0
2, 13584, Note_on_c, 0, 56, 93
2, 13632, Note_off_c, 0, 56, 0
2, 13632, Note_on_c, 0, 62, 93
2, 13656, Note_off_c, 0, 62, 0
2, 13656, Note_on_c, 0, 60, 93
2, 13680, Note_off_c, 0, 60, 0
2, 13680, Note_on_c, 0, 59, 93
2, 13704, Note_off_c, 0, 59, 0
2, 13704, Note_on_c, 0, 57, 93
2, 13728, Note_off_c, 0, 57, 0
2, 13728, Note_on_c, 0, 55, 93
2, 13776, Note_off_c, 0, 55, 0
2, 13776, Note_on_c, 0, 53, 93
2, 13824, Note_off_c, 0, 53, 0
2, 13824, Note_on_c, 0, 48, 93
2, 13848, Note_off_c, 0, 48, 0
2, 13848, Note_on_c, 0, 50, 93
2, 13872, Note_off_c, 0, 50, 0
2, 13872, Note_on_c, 0, 51, 93
2, 13896, Note_off_c, 0, 51, 0
2, 13896, Note_on_c, 0, 53, 93
2, 13920, Note_off_c, 0, 53, 0
2, 13920, Note_on_c, 0, 55, 93
2, 13944, Note_off_c, 0, 55, 0
2, 13944, Note_on_c, 0, 59, 93
2, 13968, Note_off_c, 0, 59, 0
2, 13968, Note_on_c, 0, 60, 93
2, 13992, Note_off_c, 0, 60, 0
2, 13992, Note_on_c, 0, 62, 93
2, 14016, Note_off_c, 0, 62, 0
2, 14016, Note_on_c, 0, 63, 93
2, 14040, Note_off_c, 0, 63, 0
2, 14040, Note_on_c, 0, 62, 93
2, 14064, Note_off_c, 0, 62, 0
2, 14064, Note_on_c, 0, 60, 93
2, 14088, Note_off_c, 0, 60, 0
2, 14088, Note_on_c, 0, 58, 93
2, 14112, Note_off_c, 0, 58, 0
2, 14112, Note_on_c, 0, 56, 93
2, 14136, Note_off_c, 0, 56, 0
2, 14136, Note_on_c, 0, 55, 93
2, 14160, Note_off_c, 0, 55, 0
2, 14160, Note_on_c, 0, 53, 93
2, 14184, Note_off_c, 0, 53, 0
2, 14184, Note_on_c, 0, 51, 93
2, 14208, Note_off_c, 0, 51, 0
2, 14208, Note_on_c, 0, 56, 93
2, 14232, Note_off_c, 0, 56, 0
2, 14232, Note_on_c, 0, 55, 93
2, 14256, Note_off_c, 0, 55, 0
2, 14256, Note_on_c, 0, 53, 93
2, 14280, Note_off_c, 0, 53, 0
2, 14280, Note_on_c, 0, 51, 93
2, 14304, Note_off_c, 0, 51, 0
2, 14304, Note_on_c, 0, 50, 93
2, 14328, Note_off_c, 0, 50, 0
2, 14328, Note_on_c, 0, 48, 93
2, 14352, Note_off_c, 0, 48, 0
2, 14352, Note_on_c, 0, 47, 93
2, 14376, Note_off_c, 0, 47, 0
2, 14376, Note_on_c, 0, 45, 93
2, 14400, Note_off_c, 0, 45, 0
2, 14400, Note_on_c, 0, 53, 93
2, 14424, Note_off_c, 0, 53, 0
2, 14424, Note_on_c, 0, 51, 93
2, 14448, Note_off_c, 0, 51, 0
2, 14448, Note_on_c, 0, 50, 93
2, 14472, Note_off_c, 0, 50, 0
2, 14472, Note_on_c, 0, 48, 93
2, 14496, Note_off_c, 0, 48, 0
2, 14496, Note_on_c, 0, 47, 93
2, 14520, Note_off_c, 0, 47, 0
2, 14520, Note_on_c, 0, 45, 93
2, 14544, Note_off_c, 0, 45, 0
2, 14544, Note_on_c, 0, 43, 93
2, 14568, Note_off_c, 0, 43, 0
2, 14568, Note_on_c, 0, 41, 93
2, 14592, Note_off_c, 0, 41, 0
2, 14592, Note_on_c, 0, 39, 93
2, 14640, Note_off_c, 0, 39, 0
2, 14640, Note_on_c, 0, 60, 93
2, 14688, Note_off_c, 0, 60, 0
2, 14688, Note_on_c, 0, 43, 93
2, 14736, Note_off_c, 0, 43, 0
2, 14736, Note_on_c, 0, 59, 93
2, 14784, Note_off_c, 0, 59, 0
2, 14784, Note_on_c, 0, 60, 93
2, 14928, Note_off_c, 0, 60, 0
2, 14928, Note_on_c, 0, 60, 93
2, 14952, Note_off_c, 0, 60, 0
2, 14952, Note_on_c, 0, 62, 93
2, 14976, Note_off_c, 0, 62, 0
2, 14976, Note_on_c, 0, 63, 93
2, 15000, Note_off_c, 0, 63, 0
2, 15000, Note_on_c, 0, 62, 93
2, 15024, Note_off_c, 0, 62, 0
2, 15024, Note_on_c, 0, 63, 93
2, 15048, Note_off_c, 0, 63, 0
2, 15048, Note_on_c, 0, 62, 93
2, 15072, Note_off_c, 0, 62, 0
2, 15072, Note_on_c, 0, 60, 93
2, 15096, Note_off_c, 0, 60, 0
2, 15096, Note_on_c, 0, 58, 93
2, 15120, Note_off_c, 0, 58, 0
2, 15120, Note_on_c, 0, 60, 93
2, 15144, Note_off_c, 0, 60, 0
2, 15144, Note_on_c, 0, 58, 93
2, 15168, Note_off_c, 0, 58, 0
2, 15168, Note_on_c, 0, 56, 93
2, 15192, Note_off_c, 0, 56, 0
2, 15192, Note_on_c, 0, 58, 93
2, 15216, Note_off_c, 0, 58, 0
2, 15216, Note_on_c, 0, 56, 93
2, 15240, Note_off_c, 0, 56, 0
2, 15240, Note_on_c, 0, 58, 93
2, 15264, Note_off_c, 0, 58, 0
2, 15264, Note_on_c, 0, 60, 93
2, 15288, Note_off_c, 0, 60, 0
2, 15288, Note_on_c, 0, 62, 93
2, 15312, Note_off_c, 0, 62, 0
2, 15312, Note_on_c, 0, 60, 93
2, 15336, Note_off_c, 0, 60, 0
2, 15336, Note_on_c, 0, 62, 93
2, 15360, Note_off_c, 0, 62, 0
2, 15360, Note_on_c, 0, 63, 93
2, 15384, Note_off_c, 0, 63, 0
2, 15384, Note_on_c, 0, 62, 93
2, 15408, Note_off_c, 0, 62, 0
2, 15408, Note_on_c, 0, 63, 93
2, 15432, Note_off_c, 0, 63, 0
2, 15432, Note_on_c, 0, 62, 93
2, 15456, Note_off_c, 0, 62, 0
2, 15456, Note_on_c, 0, 60, 93
2, 15480, Note_off_c, 0, 60, 0
2, 15480, Note_on_c, 0, 58, 93
2, 15504, Note_off_c, 0, 58, 0
2, 15504, Note_on_c, 0, 56, 93
2, 15528, Note_off_c, 0, 56, 0
2, 15528, Note_on_c, 0, 55, 93
2, 15552, Note_off_c, 0, 55, 0
2, 15552, Note_on_c, 0, 54, 93
2, 15576, Note_off_c, 0, 54, 0
2, 15576, Note_on_c, 0, 55, 93
2, 15600, Note_off_c, 0, 55, 0
2, 15600, Note_on_c, 0, 57, 93
2, 15624, Note_off_c, 0, 57, 0
2, 15624, Note_on_c, 0, 60, 93
2, 15648, Note_off_c, 0, 60, 0
2, 15648, Note_on_c, 0, 62, 93
2, 15696, Note_off_c, 0, 62, 0
2, 15696, Note_on_c, 0, 48, 93
2, 15744, Note_off_c, 0, 48, 0
2, 15744, Note_on_c, 0, 46, 93
2, 15792, Note_off_c, 0, 46, 0
2, 15792, Note_on_c, 0, 62, 93
2, 15840, Note_off_c, 0, 62, 0
2, 15840, Note_on_c, 0, 51, 93
2, 15864, Note_off_c, 0, 51, 0
2, 15864, Note_on_c, 0, 55, 93
2, 15888, Note_off_c, 0, 55, 0
2, 15888, Note_on_c, 0, 57, 93
2, 15912, Note_off_c, 0, 57, 0
2, 15912, Note_on_c, 0, 58, 93
2, 15936, Note_off_c, 0, 58, 0
2, 15936, Note_on_c, 0, 60, 93
2, 15984, Note_off_c, 0, 60, 0
2, 15984, Note_on_c, 0, 45, 93
2, 16032, Note_off_c, 0, 45, 0
2, 16032, Note_on_c, 0, 50, 93
2, 16056, Note_off_c, 0, 50, 0
2, 16056, Note_on_c, 0, 54, 93
2, 16080, Note_off_c, 0, 54, 0
2, 16080, Note_on_c, 0, 55, 93
2, 16104, Note_off_c, 0, 55, 0
2, 16104, Note_on_c, 0, 57, 93
2, 16128, Note_off_c, 0, 57, 0
2, 16128, Note_on_c, 0, 58, 93
2, 16152, Note_off_c, 0, 58, 0
2, 16152, Note_on_c, 0, 57, 93
2, 16176, Note_off_c, 0, 57, 0
2, 16176, Note_on_c, 0, 55, 93
2, 16200, Note_off_c, 0, 55, 0
2, 16200, Note_on_c, 0, 58, 93
2, 16224, Note_off_c, 0, 58, 0
2, 16224, Note_on_c, 0, 57, 93
2, 16248, Note_off_c, 0, 57, 0
2, 16248, Note_on_c, 0, 55, 93
2, 16272, Note_off_c, 0, 55, 0
2, 16272, Note_on_c, 0, 54, 93
2, 16296, Note_off_c, 0, 54, 0
2, 16296, Note_on_c, 0, 57, 93
2, 16320, Note_off_c, 0, 57, 0
2, 16320, Note_on_c, 0, 55, 93
2, 16368, Note_off_c, 0, 55, 0
2, 16368, Note_on_c, 0, 50, 93
2, 16416, Note_off_c, 0, 50, 0
2, 16416, Note_on_c, 0, 43, 93
2, 16464, Note_off_c, 0, 43, 0
2, 16464, Note_on_c, 0, 58, 93
2, 16488, Note_off_c, 0, 58, 0
2, 16488, Note_on_c, 0, 60, 93
2, 16512, Note_off_c, 0, 60, 0
2, 16512, Note_on_c, 0, 61, 93
2, 16536, Note_off_c, 0, 61, 0
2, 16536, Note_on_c, 0, 60, 93
2, 16560, Note_off_c, 0, 60, 0
2, 16560, Note_on_c, 0, 61, 93
2, 16584, Note_off_c, 0, 61, 0
2, 16584, Note_on_c, 0, 60, 93
2, 16608, Note_off_c, 0, 60, 0
2, 16608, Note_on_c, 0, 58, 93
2, 16632, Note_off_c, 0, 58, 0
2, 16632, Note_on_c, 0, 56, 93
2, 16656, Note_off_c, 0, 56, 0
2, 16656, Note_on_c, 0, 58, 93
2, 16680, Note_off_c, 0, 58, 0
2, 16680, Note_on_c, 0, 56, 93
2, 16704, Note_off_c, 0, 56, 0
2, 16704, Note_on_c, 0, 55, 93
2, 16728, Note_off_c, 0, 55, 0
2, 16728, Note_on_c, 0, 53, 93
2, 16752, Note_off_c, 0, 53, 0
2, 16752, Note_on_c, 0, 55, 93
2, 16776, Note_off_c, 0, 55, 0
2, 16776, Note_on_c, 0, 53, 93
2, 16800, Note_off_c, 0, 53, 0
2, 16800, Note_on_c, 0, 52, 93
2, 16824, Note_off_c, 0, 52, 0
2, 16824, Note_on_c, 0, 55, 93
2, 16848, Note_off_c, 0, 55, 0
2, 16848, Note_on_c, 0, 56, 93
2, 16872, Note_off_c, 0, 56, 0
2, 16872, Note_on_c, 0, 58, 93
2, 16896, Note_off_c, 0, 58, 0
2, 16896, Note_on_c, 0, 60, 93
2, 16920, Note_off_c, 0, 60, 0
2, 16920, Note_on_c, 0, 58, 93
2, 16944, Note_off_c, 0, 58, 0
2, 16944, Note_on_c, 0, 56, 93
2, 16968, Note_off_c, 0, 56, 0
2, 16968, Note_on_c, 0, 60, 93
2, 16992, Note_off_c, 0, 60, 0
2, 16992, Note_on_c, 0, 58, 93
2, 17016, Note_off_c, 0, 58, 0
2, 17016, Note_on_c, 0, 56, 93
2, 17040, Note_off_c, 0, 56, 0
2, 17040, Note_on_c, 0, 55, 93
2, 17064, Note_off_c, 0, 55, 0
2, 17064, Note_on_c, 0, 58, 93
2, 17088, Note_off_c, 0, 58, 0
2, 17088, Note_on_c, 0, 56, 93
2, 17136, Note_off_c, 0, 56, 0
2, 17136, Note_on_c, 0, 53, 93
2, 17184, Note_off_c, 0, 53, 0
2, 17184, Note_on_c, 0, 41, 93
2, 17232, Note_off_c, 0, 41, 0
2, 17232, Note_on_c, 0, 53, 93
2, 17256, Note_off_c, 0, 53, 0
2, 17256, Note_on_c, 0, 55, 93
2, 17280, Note_off_c, 0, 55, 0
2, 17280, Note_on_c, 0, 56, 93
2, 17304, Note_off_c, 0, 56, 0
2, 17304, Note_on_c, 0, 55, 93
2, 17328, Note_off_c, 0, 55, 0
2, 17328, Note_on_c, 0, 53, 93
2, 17352, Note_off_c, 0, 53, 0
2, 17352, Note_on_c, 0, 51, 93
2, 17376, Note_off_c, 0, 51, 0
2, 17376, Note_on_c, 0, 50, 93
2, 17400, Note_off_c, 0, 50, 0
2, 17400, Note_on_c, 0, 51, 93
2, 17424, Note_off_c, 0, 51, 0
2, 17424, Note_on_c, 0, 53, 93
2, 17448, Note_off_c, 0, 53, 0
2, 17448, Note_on_c, 0, 55, 93
2, 17472, Note_off_c, 0, 55, 0
2, 17472, Note_on_c, 0, 56, 93
2, 17496, Note_off_c, 0, 56, 0
2, 17496, Note_on_c, 0, 58, 93
2, 17520, Note_off_c, 0, 58, 0
2, 17520, Note_on_c, 0, 60, 93
2, 17544, Note_off_c, 0, 60, 0
2, 17544, Note_on_c, 0, 62, 93
2, 17568, Note_off_c, 0, 62, 0
2, 17568, Note_on_c, 0, 63, 93
2, 17592, Note_off_c, 0, 63, 0
2, 17592, Note_on_c, 0, 62, 93
2, 17616, Note_off_c, 0, 62, 0
2, 17616, Note_on_c, 0, 63, 93
2, 17640, Note_off_c, 0, 63, 0
2, 17640, Note_on_c, 0, 62, 93
2, 17664, Note_off_c, 0, 62, 0
2, 17664, Note_on_c, 0, 63, 93
2, 17688, Note_off_c, 0, 63, 0
2, 17688, Note_on_c, 0, 62, 93
2, 17712, Note_off_c, 0, 62, 0
2, 17712, Note_on_c, 0, 60, 93
2, 17736, Note_off_c, 0, 60, 0
2, 17736, Note_on_c, 0, 58, 93
2, 17760, Note_off_c, 0, 58, 0
2, 17760, Note_on_c, 0, 56, 93
2, 17784, Note_off_c, 0, 56, 0
2, 17784, Note_on_c, 0, 55, 93
2, 17808, Note_off_c, 0, 55, 0
2, 17808, Note_on_c, 0, 53, 93
2, 17832, Note_off_c, 0, 53, 0
2, 17832, Note_on_c, 0, 51, 93
2, 17856, Note_off_c, 0, 51, 0
2, 17856, Note_on_c, 0, 53, 93
2, 17880, Note_off_c, 0, 53, 0
2, 17880, Note_on_c, 0, 51, 93
2, 17904, Note_off_c, 0, 51, 0
2, 17904, Note_on_c, 0, 50, 93
2, 17928, Note_off_c, 0, 50, 0
2, 17928, Note_on_c, 0, 48, 93
2, 17952, Note_off_c, 0, 48, 0
2, 17952, Note_on_c, 0, 46, 93
2, 18000, Note_off_c, 0, 46, 0
2, 18000, Note_on_c, 0, 53, 93
2, 18048, Note_off_c, 0, 53, 0
2, 18048, Note_on_c, 0, 46, 93
2, 18072, Note_off_c, 0, 46, 0
2, 18072, Note_on_c, 0, 48, 93
2, 18096, Note_off_c, 0, 48, 0
2, 18096, Note_on_c, 0, 50, 93
2, 18120, Note_off_c, 0, 50, 0
2, 18120, Note_on_c, 0, 51, 93
2, 18144, Note_off_c, 0, 51, 0
2, 18144, Note_on_c, 0, 53, 93
2, 18192, Note_off_c, 0, 53, 0
2, 18192, Note_on_c, 0, 55, 93
2, 18240, Note_off_c, 0, 55, 0
2, 18240, Note_on_c, 0, 48, 93
2, 18288, Note_off_c, 0, 48, 0
2, 18288, Note_on_c, 0, 56, 93
2, 18336, Note_off_c, 0, 56, 0
2, 18336, Note_on_c, 0, 50, 93
2, 18384, Note_off_c, 0, 50, 0
2, 18384, Note_on_c, 0, 56, 93
2, 18432, Note_off_c, 0, 56, 0
2, 18432, Note_on_c, 0, 51, 93
2, 18456, Note_off_c, 0, 51, 0
2, 18456, Note_on_c, 0, 53, 93
2, 18480, Note_off_c, 0, 53, 0
2, 18480, Note_on_c, 0, 55, 93
2, 18504, Note_off_c, 0, 55, 0
2, 18504, Note_on_c, 0, 56, 93
2, 18528, Note_off_c, 0, 56, 0
2, 18528, Note_on_c, 0, 58, 93
2, 18576, Note_off_c, 0, 58, 0
2, 18576, Note_on_c, 0, 60, 93
2, 18624, Note_off_c, 0, 60, 0
2, 18624, Note_on_c, 0, 53, 93
2, 18672, Note_off_c, 0, 53, 0
2, 18672, Note_on_c, 0, 61, 93
2, 18720, Note_off_c, 0, 61, 0
2, 18720, Note_on_c, 0, 55, 93
2, 18768, Note_off_c, 0, 55, 0
2, 18768, Note_on_c, 0, 61, 93
2, 18816, Note_off_c, 0, 61, 0
2, 18816, Note_on_c, 0, 60, 93
2, 18840, Note_off_c, 0, 60, 0
2, 18840, Note_on_c, 0, 58, 93
2, 18864, Note_off_c, 0, 58, 0
2, 18864, Note_on_c, 0, 56, 93
2, 18888, Note_off_c, 0, 56, 0
2, 18888, Note_on_c, 0, 55, 93
2, 18912, Note_off_c, 0, 55, 0
2, 18912, Note_on_c, 0, 56, 93
2, 18960, Note_off_c, 0, 56, 0
2, 18960, Note_on_c, 0, 60, 93
2, 19008, Note_off_c, 0, 60, 0
2, 19008, Note_on_c, 0, 65, 93
2, 19032, Note_off_c, 0, 65, 0
2, 19032, Note_on_c, 0, 63, 93
2, 19056, Note_off_c, 0, 63, 0
2, 19056, Note_on_c, 0, 62, 93
2, 19080, Note_off_c, 0, 62, 0
2, 19080, Note_on_c, 0, 63, 93
2, 19104, Note_off_c, 0, 63, 0
2, 19104, Note_on_c, 0, 65, 93
2, 19128, Note_off_c, 0, 65, 0
2, 19128, Note_on_c, 0, 63, 93
2, 19152, Note_off_c, 0, 63, 0
2, 19152, Note_on_c, 0, 62, 93
2, 19176, Note_off_c, 0, 62, 0
2, 19176, Note_on_c, 0, 60, 93
2, 19200, Note_off_c, 0, 60, 0
2, 19200, Note_on_c, 0, 58, 93
2, 19224, Note_off_c, 0, 58, 0
2, 19224, Note_on_c, 0, 56, 93
2, 19248, Note_off_c, 0, 56, 0
2, 19248, Note_on_c, 0, 55, 93
2, 19272, Note_off_c, 0, 55, 0
2, 19272, Note_on_c, 0, 53, 93
2, 19296, Note_off_c, 0, 53, 0
2, 19296, Note_on_c, 0, 55, 93
2, 19344, Note_off_c, 0, 55, 0
2, 19344, Note_on_c, 0, 58, 93
2, 19392, Note_off_c, 0, 58, 0
2, 19392, Note_on_c, 0, 63, 93
2, 19416, Note_off_c, 0, 63, 0
2, 19416, Note_on_c, 0, 62, 93
2, 19440, Note_off_c, 0, 62, 0
2, 19440, Note_on_c, 0, 60, 93
2, 19464, Note_off_c, 0, 60, 0
2, 19464, Note_on_c, 0, 62, 93
2, 19488, Note_off_c, 0, 62, 0
2, 19488, Note_on_c, 0, 63, 93
2, 19512, Note_off_c, 0, 63, 0
2, 19512, Note_on_c, 0, 62, 93
2, 19536, Note_off_c, 0, 62, 0
2, 19536, Note_on_c, 0, 60, 93
2, 19560, Note_off_c, 0, 60, 0
2, 19560, Note_on_c, 0, 58, 93
2, 19584, Note_off_c, 0, 58, 0
2, 19584, Note_on_c, 0, 56, 93
2, 19608, Note_off_c, 0, 56, 0
2, 19608, Note_on_c, 0, 55, 93
2, 19632, Note_off_c, 0, 55, 0
2, 19632, Note_on_c, 0, 53, 93
2, 19656, Note_off_c, 0, 53, 0
2, 19656, Note_on_c, 0, 55, 93
2, 19680, Note_off_c, 0, 55, 0
2, 19680, Note_on_c, 0, 56, 93
2, 19704, Note_off_c, 0, 56, 0
2, 19704, Note_on_c, 0, 55, 93
2, 19728, Note_off_c, 0, 55, 0
2, 19728, Note_on_c, 0, 53, 93
2, 19752, Note_off_c, 0, 53, 0
2, 19752, Note_on_c, 0, 51, 93
2, 19776, Note_off_c, 0, 51, 0
2, 19776, Note_on_c, 0, 50, 93
2, 19800, Note_off_c, 0, 50, 0
2, 19800, Note_on_c, 0, 48, 93
2, 19824, Note_off_c, 0, 48, 0
2, 19824, Note_on_c, 0, 46, 93
2, 19848, Note_off_c, 0, 46, 0
2, 19848, Note_on_c, 0, 48, 93
2, 19872, Note_off_c, 0, 48, 0
2, 19872, Note_on_c, 0, 50, 93
2, 19896, Note_off_c, 0, 50, 0
2, 19896, Note_on_c, 0, 48, 93
2, 19920, Note_off_c, 0, 48, 0
2, 19920, Note_on_c, 0, 46, 93
2, 19944, Note_off_c, 0, 46, 0
2, 19944, Note_on_c, 0, 44, 93
2, 19968, Note_off_c, 0, 44, 0
2, 19968, Note_on_c, 0, 43, 93
2, 19992, Note_off_c, 0, 43, 0
2, 19992, Note_on_c, 0, 46, 93
2, 20016, Note_off_c, 0, 46, 0
2, 20016, Note_on_c, 0, 48, 93
2, 20040, Note_off_c, 0, 48, 0
2, 20040, Note_on_c, 0, 50, 93
2, 20064, Note_off_c, 0, 50, 0
2, 20064, Note_on_c, 0, 51, 93
2, 20112, Note_off_c, 0, 51, 0
2, 20112, Note_on_c, 0, 61, 93
2, 20160, Note_off_c, 0, 61, 0
2, 20160, Note_on_c, 0, 44, 93
2, 20208, Note_off_c, 0, 44, 0
2, 20208, Note_on_c, 0, 61, 93
2, 20256, Note_off_c, 0, 61, 0
2, 20256, Note_on_c, 0, 60, 93
2, 20280, Note_off_c, 0, 60, 0
2, 20280, Note_on_c, 0, 58, 93
2, 20304, Note_off_c, 0, 58, 0
2, 20304, Note_on_c, 0, 56, 93
2, 20328, Note_off_c, 0, 56, 0
2, 20328, Note_on_c, 0, 55, 93
2, 20352, Note_off_c, 0, 55, 0
2, 20352, Note_on_c, 0, 56, 93
2, 20376, Note_off_c, 0, 56, 0
2, 20376, Note_on_c, 0, 55, 93
2, 20400, Note_off_c, 0, 55, 0
2, 20400, Note_on_c, 0, 53, 93
2, 20424, Note_off_c, 0, 53, 0
2, 20424, Note_on_c, 0, 51, 93
2, 20448, Note_off_c, 0, 51, 0
2, 20448, Note_on_c, 0, 50, 93
2, 20496, Note_off_c, 0, 50, 0
2, 20496, Note_on_c, 0, 60, 93
2, 20544, Note_off_c, 0, 60, 0
2, 20544, Note_on_c, 0, 43, 93
2, 20592, Note_off_c, 0, 43, 0
2, 20592, Note_on_c, 0, 60, 93
2, 20640, Note_off_c, 0, 60, 0
2, 20640, Note_on_c, 0, 58, 93
2, 20664, Note_off_c, 0, 58, 0
2, 20664, Note_on_c, 0, 56, 93
2, 20688, Note_off_c, 0, 56, 0
2, 20688, Note_on_c, 0, 55, 93
2, 20712, Note_off_c, 0, 55, 0
2, 20712, Note_on_c, 0, 53, 93
2, 20736, Note_off_c, 0, 53, 0
2, 20736, Note_on_c, 0, 55, 93
2, 20760, Note_off_c, 0, 55, 0
2, 20760, Note_on_c, 0, 53, 93
2, 20784, Note_off_c, 0, 53, 0
2, 20784, Note_on_c, 0, 51, 93
2, 20808, Note_off_c, 0, 51, 0
2, 20808, Note_on_c, 0, 50, 93
2, 20832, Note_off_c, 0, 50, 0
2, 20832, Note_on_c, 0, 48, 93
2, 20856, Note_off_c, 0, 48, 0
2, 20856, Note_on_c, 0, 46, 93
2, 20880, Note_off_c, 0, 46, 0
2, 20880, Note_on_c, 0, 44, 93
2, 20904, Note_off_c, 0, 44, 0
2, 20904, Note_on_c, 0, 43, 93
2, 20928, Note_off_c, 0, 43, 0
2, 20928, Note_on_c, 0, 41, 93
2, 20952, Note_off_c, 0, 41, 0
2, 20952, Note_on_c, 0, 56, 93
2, 20976, Note_off_c, 0, 56, 0
2, 20976, Note_on_c, 0, 55, 93
2, 21000, Note_off_c, 0, 55, 0
2, 21000, Note_on_c, 0, 53, 93
2, 21024, Note_off_c, 0, 53, 0
2, 21024, Note_on_c, 0, 46, 93
2, 21048, Note_off_c, 0, 46, 0
2, 21048, Note_on_c, 0, 56, 93
2, 21072, Note_off_c, 0, 56, 0
2, 21072, Note_on_c, 0, 55, 93
2, 21096, Note_off_c, 0, 55, 0
2, 21096, Note_on_c, 0, 53, 93
2, 21120, Note_off_c, 0, 53, 0
2, 21120, Note_on_c, 0, 39, 93
2, 21144, Note_off_c, 0, 39, 0
2, 21144, Note_on_c, 0, 55, 93
2, 21168, Note_off_c, 0, 55, 0
2, 21168, Note_on_c, 0, 53, 93
2, 21192, Note_off_c, 0, 53, 0
2, 21192, Note_on_c, 0, 51, 93
2, 21216, Note_off_c, 0, 51, 0
2, 21216, Note_on_c, 0, 45, 93
2, 21240, Note_off_c, 0, 45, 0
2, 21240, Note_on_c, 0, 54, 93
2, 21264, Note_off_c, 0, 54, 0
2, 21264, Note_on_c, 0, 53, 93
2, 21288, Note_off_c, 0, 53, 0
2, 21288, Note_on_c, 0, 51, 93
2, 21312, Note_off_c, 0, 51, 0
2, 21312, Note_on_c, 0, 50, 93
2, 21336, Note_off_c, 0, 50, 0
2, 21336, Note_on_c, 0, 53, 93
2, 21360, Note_off_c, 0, 53, 0
2, 21360, Note_on_c, 0, 60, 93
2, 21456, Note_off_c, 0, 60, 0
2, 21456, Note_on_c, 0, 58, 93
2, 21480, Note_off_c, 0, 58, 0
2, 21480, Note_on_c, 0, 56, 93
2, 21504, Note_off_c, 0, 56, 0
2, 21504, Note_on_c, 0, 55, 93
2, 21528, Note_off_c, 0, 55, 0
2, 21528, Note_on_c, 0, 53, 93
2, 21552, Note_off_c, 0, 53, 0
2, 21552, Note_on_c, 0, 51, 93
2, 21576, Note_off_c, 0, 51, 0
2, 21576, Note_on_c, 0, 53, 93
2, 21600, Note_off_c, 0, 53, 0
2, 21600, Note_on_c, 0, 46, 93
2, 21648, Note_off_c, 0, 46, 0
2, 21648, Note_on_c, 0, 62, 93
2, 21696, Note_off_c, 0, 62, 0
2, 21696, Note_on_c, 0, 63, 93
2, 21840, Note_off_c, 0, 63, 0
2, 21840, Note_on_c, 0, 53, 93
2, 21888, Note_off_c, 0, 53, 0
2, 21888, Note_on_c, 0, 58, 93
2, 21936, Note_off_c, 0, 58, 0
2, 21936, Note_on_c, 0, 57, 93
2, 21960, Note_off_c, 0, 57, 0
2, 21960, Note_on_c, 0, 55, 93
2, 21984, Note_off_c, 0, 55, 0
2, 21984, Note_on_c, 0, 53, 93
2, 22008, Note_off_c, 0, 53, 0
2, 22008, Note_on_c, 0, 51, 93
2, 22032, Note_off_c, 0, 51, 0
2, 22032, Note_on_c, 0, 50, 93
2, 22056, Note_off_c, 0, 50, 0
2, 22056, Note_on_c, 0, 51, 93
2, 22080, Note_off_c, 0, 51, 0
2, 22080, Note_on_c, 0, 53, 93
2, 22104, Note_off_c, 0, 53, 0
2, 22104, Note_on_c, 0, 51, 93
2, 22128, Note_off_c, 0, 51, 0
2, 22128, Note_on_c, 0, 50, 93
2, 22152, Note_off_c, 0, 50, 0
2, 22152, Note_on_c, 0, 48, 93
2, 22176, Note_off_c, 0, 48, 0
2, 22176, Note_on_c, 0, 46, 93
2, 22200, Note_off_c, 0, 46, 0
2, 22200, Note_on_c, 0, 44, 93
2, 22224, Note_off_c, 0, 44, 0
2, 22224, Note_on_c, 0, 43, 93
2, 22248, Note_off_c, 0, 43, 0
2, 22248, Note_on_c, 0, 41, 93
2, 22272, Note_off_c, 0, 41, 0
2, 22272, Note_on_c, 0, 43, 93
2, 22296, Note_off_c, 0, 43, 0
2, 22296, Note_on_c, 0, 51, 93
2, 22320, Note_off_c, 0, 51, 0
2, 22320, Note_on_c, 0, 53, 93
2, 22344, Note_off_c, 0, 53, 0
2, 22344, Note_on_c, 0, 55, 93
2, 22368, Note_off_c, 0, 55, 0
2, 22368, Note_on_c, 0, 50, 93
2, 22392, Note_off_c, 0, 50, 0
2, 22392, Note_on_c, 0, 56, 93
2, 22416, Note_off_c, 0, 56, 0
2, 22416, Note_on_c, 0, 55, 93
2, 22440, Note_off_c, 0, 55, 0
2, 22440, Note_on_c, 0, 53, 93
2, 22464, Note_off_c, 0, 53, 0
2, 22464, Note_on_c, 0, 55, 93
2, 22488, Note_off_c, 0, 55, 0
2, 22488, Note_on_c, 0, 56, 93
2, 22512, Note_off_c, 0, 56, 0
2, 22512, Note_on_c, 0, 58, 93
2, 22536, Note_off_c, 0, 58, 0
2, 22536, Note_on_c, 0, 55, 93
2, 22560, Note_off_c, 0, 55, 0
2, 22560, Note_on_c, 0, 51, 93
2, 22608, Note_off_c, 0, 51, 0
2, 22608, Note_on_c, 0, 50, 93
2, 22632, Note_off_c, 0, 50, 0
2, 22632, Note_on_c, 0, 48, 93
2, 22656, Note_off_c, 0, 48, 0
2, 22656, Note_on_c, 0, 47, 93
2, 22680, Note_off_c, 0, 47, 0
2, 22680, Note_on_c, 0, 48, 93
2, 22704, Note_off_c, 0, 48, 0
2, 22704, Note_on_c, 0, 50, 93
2, 22728, Note_off_c, 0, 50, 0
2, 22728, Note_on_c, 0, 51, 93
2, 22752, Note_off_c, 0, 51, 0
2, 22752, Note_on_c, 0, 53, 93
2, 22800, Note_off_c, 0, 53, 0
2, 22800, Note_on_c, 0, 56, 93
2, 22848, Note_off_c, 0, 56, 0
2, 22848, Note_on_c, 0, 62, 93
2, 22872, Note_off_c, 0, 62, 0
2, 22872, Note_on_c, 0, 60, 93
2, 22896, Note_off_c, 0, 60, 0
2, 22896, Note_on_c, 0, 59, 93
2, 22920, Note_off_c, 0, 59, 0
2, 22920, Note_on_c, 0, 57, 93
2, 22944, Note_off_c, 0, 57, 0
2, 22944, Note_on_c, 0, 55, 93
2, 22992, Note_off_c, 0, 55, 0
2, 22992, Note_on_c, 0, 53, 93
2, 23040, Note_off_c, 0, 53, 0
2, 23040, Note_on_c, 0, 48, 93
2, 23064, Note_off_c, 0, 48, 0
2, 23064, Note_on_c, 0, 50, 93
2, 23088, Note_off_c, 0, 50, 0
2, 23088, Note_on_c, 0, 51, 93
2, 23112, Note_off_c, 0, 51, 0
2, 23112, Note_on_c, 0, 53, 93
2, 23136, Note_off_c, 0, 53, 0
2, 23136, Note_on_c, 0, 55, 93
2, 23160, Note_off_c, 0, 55, 0
2, 23160, Note_on_c, 0, 59, 93
2, 23184, Note_off_c, 0, 59, 0
2, 23184, Note_on_c, 0, 60, 93
2, 23208, Note_off_c, 0, 60, 0
2, 23208, Note_on_c, 0, 62, 93
2, 23232, Note_off_c, 0, 62, 0
2, 23232, Note_on_c, 0, 63, 93
2, 23256, Note_off_c, 0, 63, 0
2, 23256, Note_on_c, 0, 62, 93
2, 23280, Note_off_c, 0, 62, 0
2, 23280, Note_on_c, 0, 60, 93
2, 23304, Note_off_c, 0, 60, 0
2, 23304, Note_on_c, 0, 58, 93
2, 23328, Note_off_c, 0, 58, 0
2, 23328, Note_on_c, 0, 56, 93
2, 23352, Note_off_c, 0, 56, 0
2, 23352, Note_on_c, 0, 55, 93
2, 23376, Note_off_c, 0, 55, 0
2, 23376, Note_on_c, 0, 53, 93
2, 23400, Note_off_c, 0, 53, 0
2, 23400, Note_on_c, 0, 51, 93
2, 23424, Note_off_c, 0, 51, 0
2, 23424, Note_on_c, 0, 56, 93
2, 23448, Note_off_c, 0, 56, 0
2, 23448, Note_on_c, 0, 55, 93
2, 23472, Note_off_c, 0, 55, 0
2, 23472, Note_on_c, 0, 53, 93
2, 23496, Note_off_c, 0, 53, 0
2, 23496, Note_on_c, 0, 51, 93
2, 23520, Note_off_c, 0, 51, 0
2, 23520, Note_on_c, 0, 50, 93
2, 23544, Note_off_c, 0, 50, 0
2, 23544, Note_on_c, 0, 48, 93
2, 23568, Note_off_c, 0, 48, 0
2, 23568, Note_on_c, 0, 47, 93
2, 23592, Note_off_c, 0, 47, 0
2, 23592, Note_on_c, 0, 45, 93
2, 23616, Note_off_c, 0, 45, 0
2, 23616, Note_on_c, 0, 53, 93
2, 23640, Note_off_c, 0, 53, 0
2, 23640, Note_on_c, 0, 51, 93
2, 23664, Note_off_c, 0, 51, 0
2, 23664, Note_on_c, 0, 50, 93
2, 23688, Note_off_c, 0, 50, 0
2, 23688, Note_on_c, 0, 48, 93
2, 23712, Note_off_c, 0, 48, 0
2, 23712, Note_on_c, 0, 47, 93
2, 23736, Note_off_c, 0, 47, 0
2, 23736, Note_on_c, 0, 45, 93
2, 23760, Note_off_c, 0, 45, 0
2, 23760, Note_on_c, 0, 43, 93
2, 23784, Note_off_c, 0, 43, 0
2, 23784, Note_on_c, 0, 41, 93
2, 23808, Note_off_c, 0, 41, 0
2, 23808, Note_on_c, 0, 39, 93
2, 23856, Note_off_c, 0, 39, 0
2, 23856, Note_on_c, 0, 60, 93
2, 23904, Note_off_c, 0, 60, 0
2, 23904, Note_on_c, 0, 43, 93
2, 23952, Note_off_c, 0, 43, 0
2, 23952, Note_on_c, 0, 59, 93
2, 24000, Note_off_c, 0, 59, 0
2, 24000, Note_on_c, 0, 60, 93
2, 24144, Note_off_c, 0, 60, 0
2, 24144, Note_on_c, 0, 60, 93
2, 24168, Note_off_c, 0, 60, 0
2, 24168, Note_on_c, 0, 62, 93
2, 24192, Note_off_c, 0, 62, 0
2, 24192, Note_on_c, 0, 63, 93
2, 24216, Note_off_c, 0, 63, 0
2, 24216, Note_on_c, 0, 62, 93
2, 24240, Note_off_c, 0, 62, 0
2, 24240, Note_on_c, 0, 63, 93
2, 24264, Note_off_c, 0, 63, 0
2, 24264, Note_on_c, 0, 62, 93
2, 24288, Note_off_c, 0, 62, 0
2, 24288, Note_on_c, 0, 60, 93
2, 24312, Note_off_c, 0, 60, 0
2, 24312, Note_on_c, 0, 58, 93
2, 24336, Note_off_c, 0, 58, 0
2, 24336, Note_on_c, 0, 60, 93
2, 24360, Note_off_c, 0, 60, 0
2, 24360, Note_on_c, 0, 58, 93
2, 24384, Note_off_c, 0, 58, 0
2, 24384, Note_on_c, 0, 56, 93
2, 24408, Note_off_c, 0, 56, 0
2, 24408, Note_on_c, 0, 58, 93
2, 24432, Note_off_c, 0, 58, 0
2, 24432, Note_on_c, 0, 56, 93
2, 24456, Note_off_c, 0, 56, 0
2, 24456, Note_on_c, 0, 58, 93
2, 24480, Note_off_c, 0, 58, 0
2, 24480, Note_on_c, 0, 60, 93
2, 24504, Note_off_c, 0, 60, 0
2, 24504, Note_on_c, 0, 62, 93
2, 24528, Note_off_c, 0, 62, 0
2, 24528, Note_on_c, 0, 60, 93
2, 24552, Note_off_c, 0, 60, 0
2, 24552, Note_on_c, 0, 62, 93
2, 24576, Note_off_c, 0, 62, 0
2, 24576, Note_on_c, 0, 63, 93
2, 24600, Note_off_c, 0, 63, 0
2, 24600, Note_on_c, 0, 62, 93
2, 24624, Note_off_c, 0, 62, 0
2, 24624, Note_on_c, 0, 63, 93
2, 24648, Note_off_c, 0, 63, 0
2, 24648, Note_on_c, 0, 62, 93
2, 24672, Note_off_c, 0, 62, 0
2, 24672, Note_on_c, 0, 60, 93
2, 24696, Note_off_c, 0, 60, 0
2, 24696, Note_on_c, 0, 58, 93
2, 24720, Note_off_c, 0, 58, 0
2, 24720, Note_on_c, 0, 56, 93
2, 24744, Note_off_c, 0, 56, 0
2, 24744, Note_on_c, 0, 55, 93
2, 24768, Note_off_c, 0, 55, 0
2, 24768, Note_on_c, 0, 54, 93
2, 24792, Note_off_c, 0, 54, 0
2, 24792, Note_on_c, 0, 55, 93
2, 24816, Note_off_c, 0, 55, 0
2, 24816, Note_on_c, 0, 57, 93
2, 24840, Note_off_c, 0, 57, 0
2, 24840, Note_on_c, 0, 60, 93
2, 24864, Note_off_c, 0, 60, 0
2, 24864, Note_on_c, 0, 62, 93
2, 24912, Note_off_c, 0, 62, 0
2, 24912, Note_on_c, 0, 48, 93
2, 24960, Note_off_c, 0, 48, 0
2, 24960, Note_on_c, 0, 46, 93
2, 25008, Note_off_c, 0, 46, 0
2, 25008, Note_on_c, 0, 62, 93
2, 25056, Note_off_c, 0, 62, 0
2, 25056, Note_on_c, 0, 51, 93
2, 25080, Note_off_c, 0, 51, 0
2, 25080, Note_on_c, 0, 55, 93
2, 25104, Note_off_c, 0, 55, 0
2, 25104, Note_on_c, 0, 57, 93
2, 25128, Note_off_c, 0, 57, 0
2, 25128, Note_on_c, 0, 58, 93
2, 25152, Note_off_c, 0, 58, 0
2, 25152, Note_on_c, 0, 60, 93
2, 25200, Note_off_c, 0, 60, 0
2, 25200, Note_on_c, 0, 45, 93
2, 25248, Note_off_c, 0, 45, 0
2, 25248, Note_on_c, 0, 50, 93
2, 25272, Note_off_c, 0, 50, 0
2, 25272, Note_on_c, 0, 54, 93
2, 25296, Note_off_c, 0, 54, 0
2, 25296, Note_on_c, 0, 55, 93
2, 25320, Note_off_c, 0, 55, 0
2, 25320, Note_on_c, 0, 57, 93
2, 25344, Note_off_c, 0, 57, 0
2, 25344, Note_on_c, 0, 58, 93
2, 25368, Note_off_c, 0, 58, 0
2, 25368, Note_on_c, 0, 57, 93
2, 25392, Note_off_c, 0, 57, 0
2, 25392, Note_on_c, 0, 55, 93
2, 25416, Note_off_c, 0, 55, 0
2, 25416, Note_on_c, 0, 58, 93
2, 25440, Note_off_c, 0, 58, 0
2, 25440, Note_on_c, 0, 57, 93
2, 25464, Note_off_c, 0, 57, 0
2, 25464, Note_on_c, 0, 55, 93
2, 25488, Note_off_c, 0, 55, 0
2, 25488, Note_on_c, 0, 54, 93
2, 25512, Note_off_c, 0, 54, 0
2, 25512, Note_on_c, 0, 57, 93
2, 25536, Note_off_c, 0, 57, 0
2, 25536, Note_on_c, 0, 55, 93
2, 25584, Note_off_c, 0, 55, 0
2, 25584, Note_on_c, 0, 50, 93
2, 25632, Note_off_c, 0, 50, 0
2, 25632, Note_on_c, 0, 43, 93
2, 25680, Note_off_c, 0, 43, 0
2, 25680, Note_on_c, 0, 58, 93
2, 25704, Note_off_c, 0, 58, 0
2, 25704, Note_on_c, 0, 60, 93
2, 25728, Note_off_c, 0, 60, 0
2, 25728, Note_on_c, 0, 61, 93
2, 25752, Note_off_c, 0, 61, 0
2, 25752, Note_on_c, 0, 60, 93
2, 25776, Note_off_c, 0, 60, 0
2, 25776, Note_on_c, 0, 61, 93
2, 25800, Note_off_c, 0, 61, 0
2, 25800, Note_on_c, 0, 60, 93
2, 25824, Note_off_c, 0, 60, 0
2, 25824, Note_on_c, 0, 58, 93
2, 25848, Note_off_c, 0, 58, 0
2, 25848, Note_on_c, 0, 56, 93
2, 25872, Note_off_c, 0, 56, 0
2, 25872, Note_on_c, 0, 58, 93
2, 25896, Note_off_c, 0, 58, 0
2, 25896, Note_on_c, 0, 56, 93
2, 25920, Note_off_c, 0, 56, 0
2, 25920, Note_on_c, 0, 55, 93
2, 25944, Note_off_c, 0, 55, 0
2, 25944, Note_on_c, 0, 53, 93
2, 25968, Note_off_c, 0, 53, 0
2, 25968, Note_on_c, 0, 55, 93
2, 25992, Note_off_c, 0, 55, 0
2, 25992, Note_on_c, 0, 53, 93
2, 26016, Note_off_c, 0, 53, 0
2, 26016, Note_on_c, 0, 52, 93
2, 26040, Note_off_c, 0, 52, 0
2, 26040, Note_on_c, 0, 55, 93
2, 26064, Note_off_c, 0, 55, 0
2, 26064, Note_on_c, 0, 56, 93
2, 26088, Note_off_c, 0, 56, 0
2, 26088, Note_on_c, 0, 58, 93
2, 26112, Note_off_c, 0, 58, 0
2, 26112, Note_on_c, 0, 60, 93
2, 26136, Note_off_c, 0, 60, 0
2, 26136, Note_on_c, 0, 58, 93
2, 26160, Note_off_c, 0, 58, 0
2, 26160, Note_on_c, 0, 56, 93
2, 26184, Note_off_c, 0, 56, 0
2, 26184, Note_on_c, 0, 60, 93
2, 26208, Note_off_c, 0, 60, 0
2, 26208, Note_on_c, 0, 58, 93
2, 26232, Note_off_c, 0, 58, 0
2, 26232, Note_on_c, 0, 56, 93
2, 26256, Note_off_c, 0, 56, 0
2, 26256, Note_on_c, 0, 55, 93
2, 26280, Note_off_c, 0, 55, 0
2, 26280, Note_on_c, 0, 58, 93
2, 26304, Note_off_c, 0, 58, 0
2, 26304, Note_on_c, 0, 56, 93
2, 26352, Note_off_c, 0, 56, 0
2, 26352, Note_on_c, 0, 53, 93
2, 26400, Note_off_c, 0, 53, 0
2, 26400, Note_on_c, 0, 41, 93
2, 26448, Note_off_c, 0, 41, 0
2, 26448, Note_on_c, 0, 53, 93
2, 26472, Note_off_c, 0, 53, 0
2, 26472, Note_on_c, 0, 55, 93
2, 26496, Note_off_c, 0, 55, 0
2, 26496, Note_on_c, 0, 56, 93
2, 26520, Note_off_c, 0, 56, 0
2, 26520, Note_on_c, 0, 55, 93
2, 26544, Note_off_c, 0, 55, 0
2, 26544, Note_on_c, 0, 53, 93
2, 26568, Note_off_c, 0, 53, 0
2, 26568, Note_on_c, 0, 51, 93
2, 26592, Note_off_c, 0, 51, 0
2, 26592, Note_on_c, 0, 50, 93
2, 26616, Note_off_c, 0, 50, 0
2, 26616, Note_on_c, 0, 51, 93
2, 26640, Note_off_c, 0, 51, 0
2, 26640, Note_on_c, 0, 53, 93
2, 26664, Note_off_c, 0, 53, 0
2, 26664, Note_on_c, 0, 55, 93
2, 26688, Note_off_c, 0, 55, 0
2, 26688, Note_on_c, 0, 56, 93
2, 26712, Note_off_c, 0, 56, 0
2, 26712, Note_on_c, 0, 58, 93
2, 26736, Note_off_c, 0, 58, 0
2, 26736, Note_on_c, 0, 60, 93
2, 26760, Note_off_c, 0, 60, 0
2, 26760, Note_on_c, 0, 62, 93
2, 26784, Note_off_c, 0, 62, 0
2, 26784, Note_on_c, 0, 63, 93
2, 26808, Note_off_c, 0, 63, 0
2, 26808, Note_on_c, 0, 62, 93
2, 26832, Note_off_c, 0, 62, 0
2, 26832, Note_on_c, 0, 63, 93
2, 26856, Note_off_c, 0, 63, 0
2, 26856, Note_on_c, 0, 62, 93
2, 26880, Note_off_c, 0, 62, 0
2, 26880, Note_on_c, 0, 63, 93
2, 26904, Note_off_c, 0, 63, 0
2, 26904, Note_on_c, 0, 62, 93
2, 26928, Note_off_c, 0, 62, 0
2, 26928, Note_on_c, 0, 60, 93
2, 26952, Note_off_c, 0, 60, 0
2, 26952, Note_on_c, 0, 58, 93
2, 26976, Note_off_c, 0, 58, 0
2, 26976, Note_on_c, 0, 56, 93
2, 27000, Note_off_c, 0, 56, 0
2, 27000, Note_on_c, 0, 55, 93
2, 27024, Note_off_c, 0, 55, 0
2, 27024, Note_on_c, 0, 53, 93
2, 27048, Note_off_c, 0, 53, 0
2, 27048, Note_on_c, 0, 51, 93
2, 27072, Note_off_c, 0, 51, 0
2, 27072, Note_on_c, 0, 53, 93
2, 27096, Note_off_c, 0, 53, 0
2, 27096, Note_on_c, 0, 51, 93
2, 27120, Note_off_c, 0, 51, 0
2, 27120, Note_on_c, 0, 50, 93
2, 27144, Note_off_c, 0, 50, 0
2, 27144, Note_on_c, 0, 48, 93
2, 27168, Note_off_c, 0, 48, 0
2, 27168, Note_on_c, 0, 46, 93
2, 27216, Note_off_c, 0, 46, 0
2, 27216, Note_on_c, 0, 53, 93
2, 27264, Note_off_c, 0, 53, 0
2, 27264, Note_on_c, 0, 46, 93
2, 27288, Note_off_c, 0, 46, 0
2, 27288, Note_on_c, 0, 48, 93
2, 27312, Note_off_c, 0, 48, 0
2, 27312, Note_on_c, 0, 50, 93
2, 27336, Note_off_c, 0, 50, 0
2, 27336, Note_on_c, 0, 51, 93
2, 27360, Note_off_c, 0, 51, 0
2, 27360, Note_on_c, 0, 53, 93
2, 27408, Note_off_c, 0, 53, 0
2, 27408, Note_on_c, 0, 55, 93
2, 27456, Note_off_c, 0, 55, 0
2, 27456, Note_on_c, 0, 48, 93
2, 27504, Note_off_c, 0, 48, 0
2, 27504, Note_on_c, 0, 56, 93
2, 27552, Note_off_c, 0, 56, 0
2, 27552, Note_on_c, 0, 50, 93
2, 27600, Note_off_c, 0, 50, 0
2, 27600, Note_on_c, 0, 56, 93
2, 27648, Note_off_c, 0, 56, 0
2, 27648, Note_on_c, 0, 51, 93
2, 27672, Note_off_c, 0, 51, 0
2, 27672, Note_on_c, 0, 53, 93
2, 27696, Note_off_c, 0, 53, 0
2, 27696, Note_on_c, 0, 55, 93
2, 27720, Note_off_c, 0, 55, 0
2, 27720, Note_on_c, 0, 56, 93
2, 27744, Note_off_c, 0, 56, 0
2, 27744, Note_on_c, 0, 58, 93
2, 27792, Note_off_c, 0, 58, 0
2, 27792, Note_on_c, 0, 60, 93
2, 27840, Note_off_c, 0, 60, 0
2, 27840, Note_on_c, 0, 53, 93
2, 27888, Note_off_c, 0, 53, 0
2, 27888, Note_on_c, 0, 61, 93
2, 27936, Note_off_c, 0, 61, 0
2, 27936, Note_on_c, 0, 55, 93
2, 27984, Note_off_c, 0, 55, 0
2, 27984, Note_on_c, 0, 61, 93
2, 28032, Note_off_c, 0, 61, 0
2, 28032, Note_on_c, 0, 60, 93
2, 28056, Note_off_c, 0, 60, 0
2, 28056, Note_on_c, 0, 58, 93
2, 28080, Note_off_c, 0, 58, 0
2, 28080, Note_on_c, 0, 56, 93
2, 28104, Note_off_c, 0, 56, 0
2, 28104, Note_on_c, 0, 55, 93
2, 28128, Note_off_c, 0, 55, 0
2, 28128, Note_on_c, 0, 56, 93
2, 28176, Note_off_c, 0, 56, 0
2, 28176, Note_on_c, 0, 60, 93
2, 28224, Note_off_c, 0, 60, 0
2, 28224, Note_on_c, 0, 65, 93
2, 28248, Note_off_c, 0, 65, 0
2, 28248, Note_on_c, 0, 63, 93
2, 28272, Note_off_c, 0, 63, 0
2, 28272, Note_on_c, 0, 62, 93
2, 28296, Note_off_c, 0, 62, 0
2, 28296, Note_on_c, 0, 63, 93
2, 28320, Note_off_c, 0, 63, 0
2, 28320, Note_on_c, 0, 65, 93
2, 28344, Note_off_c, 0, 65, 0
2, 28344, Note_on_c, 0, 63, 93
2, 28368, Note_off_c, 0, 63, 0
2, 28368, Note_on_c, 0, 62, 93
2, 28392, Note_off_c, 0, 62, 0
2, 28392, Note_on_c, 0, 60, 93
2, 28416, Note_off_c, 0, 60, 0
2, 28416, Note_on_c, 0, 58, 93
2, 28440, Note_off_c, 0, 58, 0
2, 28440, Note_on_c, 0, 56, 93
2, 28464, Note_off_c, 0, 56, 0
2, 28464, Note_on_c, 0, 55, 93
2, 28488, Note_off_c, 0, 55, 0
2, 28488, Note_on_c, 0, 53, 93
2, 28512, Note_off_c, 0, 53, 0
2, 28512, Note_on_c, 0, 55, 93
2, 28560, Note_off_c, 0, 55, 0
2, 28560, Note_on_c, 0, 58, 93
2, 28608, Note_off_c, 0, 58, 0
2, 28608, Note_on_c, 0, 63, 93
2, 28632, Note_off_c, 0, 63, 0
2, 28632, Note_on_c, 0, 62, 93
2, 28656, Note_off_c, 0, 62, 0
2, 28656, Note_on_c, 0, 60, 93
2, 28680, Note_off_c, 0, 60, 0
2, 28680, Note_on_c, 0, 62, 93
2, 28704, Note_off_c, 0, 62, 0
2, 28704, Note_on_c, 0, 63, 93
2, 28728, Note_off_c, 0, 63, 0
2, 28728, Note_on_c, 0, 62, 93
2, 28752, Note_off_c, 0, 62, 0
2, 28752, Note_on_c, 0, 60, 93
2, 28776, Note_off_c, 0, 60, 0
2, 28776, Note_on_c, 0, 58, 93
2, 28800, Note_off_c, 0, 58, 0
2, 28800, Note_on_c, 0, 56, 93
2, 28824, Note_off_c, 0, 56, 0
2, 28824, Note_on_c, 0, 55, 93
2, 28848, Note_off_c, 0, 55, 0
2, 28848, Note_on_c, 0, 53, 93
2, 28872, Note_off_c, 0, 53, 0
2, 28872, Note_on_c, 0, 55, 93
2, 28896, Note_off_c, 0, 55, 0
2, 28896, Note_on_c, 0, 56, 93
2, 28920, Note_off_c, 0, 56, 0
2, 28920, Note_on_c, 0, 55, 93
2, 28944, Note_off_c, 0, 55, 0
2, 28944, Note_on_c, 0, 53, 93
2, 28968, Note_off_c, 0, 53, 0
2, 28968, Note_on_c, 0, 51, 93
2, 28992, Note_off_c, 0, 51, 0
2, 28992, Note_on_c, 0, 50, 93
2, 29016, Note_off_c, 0, 50, 0
2, 29016, Note_on_c, 0, 48, 93
2, 29040, Note_off_c, 0, 48, 0
2, 29040, Note_on_c, 0, 46, 93
2, 29064, Note_off_c, 0, 46, 0
2, 29064, Note_on_c, 0, 48, 93
2, 29088, Note_off_c, 0, 48, 0
2, 29088, Note_on_c, 0, 50, 93
2, 29112, Note_off_c, 0, 50, 0
2, 29112, Note_on_c, 0, 48, 93
2, 29136, Note_off_c, 0, 48, 0
2, 29136, Note_on_c, 0, 46, 93
2, 29160, Note_off_c, 0, 46, 0
2, 29160, Note_on_c, 0, 44, 93
2, 29184, Note_off_c, 0, 44, 0
2, 29184, Note_on_c, 0, 43, 93
2, 29208, Note_off_c, 0, 43, 0
2, 29208, Note_on_c, 0, 46, 93
2, 29232, Note_off_c, 0, 46, 0
2, 29232, Note_on_c, 0, 48, 93
2, 29256, Note_off_c, 0, 48, 0
2, 29256, Note_on_c, 0, 50, 93
2, 29280, Note_off_c, 0, 50, 0
2, 29280, Note_on_c, 0, 51, 93
2, 29328, Note_off_c, 0, 51, 0
2, 29328, Note_on_c, 0, 61, 93
2, 29376, Note_off_c, 0, 61, 0
2, 29376, Note_on_c, 0, 44, 93
2, 29424, Note_off_c, 0, 44, 0
2, 29424, Note_on_c, 0, 61, 93
2, 29472, Note_off_c, 0, 61, 0
2, 29472, Note_on_c, 0, 60, 93
2, 29496, Note_off_c, 0, 60, 0
2, 29496, Note_on_c, 0, 58, 93
2, 29520, Note_off_c, 0, 58, 0
2, 29520, Note_on_c, 0, 56, 93
2, 29544, Note_off_c, 0, 56, 0
2, 29544, Note_on_c, 0, 55, 93
2, 29568, Note_off_c, 0, 55, 0
2, 29568, Note_on_c, 0, 56, 93
2, 29592, Note_off_c, 0, 56, 0
2, 29592, Note_on_c, 0, 55, 93
2, 29616, Note_off_c, 0, 55, 0
2, 29616, Note_on_c, 0, 53, 93
2, 29640, Note_off_c, 0, 53, 0
2, 29640, Note_on_c, 0, 51, 93
2, 29664, Note_off_c, 0, 51, 0
2, 29664, Note_on_c, 0, 50, 93
2, 29712, Note_off_c, 0, 50, 0
2, 29712, Note_on_c, 0, 60, 93
2, 29760, Note_off_c, 0, 60, 0
2, 29760, Note_on_c, 0, 43, 93
2, 29808, Note_off_c, 0, 43, 0
2, 29808, Note_on_c, 0, 60, 93
2, 29856, Note_off_c, 0, 60, 0
2, 29856, Note_on_c, 0, 58, 93
2, 29880, Note_off_c, 0, 58, 0
2, 29880, Note_on_c, 0, 56, 93
2, 29904, Note_off_c, 0, 56, 0
2, 29904, Note_on_c, 0, 55, 93
2, 29928, Note_off_c, 0, 55, 0
2, 29928, Note_on_c, 0, 53, 93
2, 29952, Note_off_c, 0, 53, 0
2, 29952, Note_on_c, 0, 55, 93
2, 29976, Note_off_c, 0, 55, 0
2, 29976, Note_on_c, 0, 53, 93
2, 30000, Note_off_c, 0, 53, 0
2, 30000, Note_on_c, 0, 51, 93
2, 30024, Note_off_c, 0, 51, 0
2, 30024, Note_on_c, 0, 50, 93
2, 30048, Note_off_c, 0, 50, 0
2, 30048, Note_on_c, 0, 48, 93
2, 30072, Note_off_c, 0, 48, 0
2, 30072, Note_on_c, 0, 46, 93
2, 30096, Note_off_c, 0, 46, 0
2, 30096, Note_on_c, 0, 44, 93
2, 30120, Note_off_c, 0, 44, 0
2, 30120, Note_on_c, 0, 43, 93
2, 30144, Note_off_c, 0, 43, 0
2, 30144, Note_on_c, 0, 41, 93
2, 30168, Note_off_c, 0, 41, 0
2, 30168, Note_on_c, 0, 56, 93
2, 30192, Note_off_c, 0, 56, 0
2, 30192, Note_on_c, 0, 55, 93
2, 30216, Note_off_c, 0, 55, 0
2, 30216, Note_on_c, 0, 53, 93
2, 30240, Note_off_c, 0, 53, 0
2, 30240, Note_on_c, 0, 46, 93
2, 30264, Note_off_c, 0, 46, 0
2, 30264, Note_on_c, 0, 56, 93
2, 30288, Note_off_c, 0, 56, 0
2, 30288, Note_on_c, 0, 55, 93
2, 30312, Note_off_c, 0, 55, 0
2, 30312, Note_on_c, 0, 53, 93
2, 30336, Note_off_c, 0, 53, 0
2, 30336, Note_on_c, 0, 39, 93
2, 30360, Note_off_c, 0, 39, 0
2, 30360, Note_on_c, 0, 55, 93
2, 30384, Note_off_c, 0, 55, 0
2, 30384, Note_on_c, 0, 53, 93
2, 30408, Note_off_c, 0, 53, 0
2, 30408, Note_on_c, 0, 51, 93
2, 30432, Note_off_c, 0, 51, 0
2, 30432, Note_on_c, 0, 45, 93
2, 30456, Note_off_c, 0, 45, 0
2, 30456, Note_on_c, 0, 54, 93
2, 30480, Note_off_c, 0, 54, 0
2, 30480, Note_on_c, 0, 53, 93
2, 30504, Note_off_c, 0, 53, 0
2, 30504, Note_on_c, 0, 51, 93
2, 30528, Note_off_c, 0, 51, 0
2, 30528, Note_on_c, 0, 50, 93
2, 30552, Note_off_c, 0, 50, 0
2, 30552, Note_on_c, 0, 53, 93
2, 30576, Note_off_c, 0, 53, 0
2, 30576, Note_on_c, 0, 60, 93
2, 30672, Note_off_c, 0, 60, 0
2, 30672, Note_on_c, 0, 58, 93
2, 30696, Note_off_c, 0, 58, 0
2, 30696, Note_on_c, 0, 56, 93
2, 30720, Note_off_c, 0, 56, 0
2, 30720, Note_on_c, 0, 55, 93
2, 30744, Note_off_c, 0, 55, 0
2, 30744, Note_on_c, 0, 53, 93
2, 30768, Note_off_c, 0, 53, 0
2, 30768, Note_on_c, 0, 51, 93
2, 30792, Note_off_c, 0, 51, 0
2, 30792, Note_on_c, 0, 53, 93
2, 30816, Note_off_c, 0, 53, 0
2, 30816, Note_on_c, 0, 46, 93
2, 30864, Note_off_c, 0, 46, 0
2, 30864, Note_on_c, 0, 62, 93
2, 30912, Note_off_c, 0, 62, 0
2, 30912, Note_on_c, 0, 63, 93
2, 31056, Note_off_c, 0, 63, 0
2, 31056, End_track
3, 0, Start_track
3, 0, Title_t, "Track3"
3, 0, Program_c, 1, 42
3, 0, Control_c, 1, 7, 100
3, 0, Control_c, 1, 10, 74
3, 2496, Note_on_c, 1, 46, 93
3, 2592, Note_off_c, 1, 46, 0
3, 8640, Note_on_c, 1, 46, 93
3, 8736, Note_off_c, 1, 46, 0
3, 14784, Note_on_c, 1, 51, 93
3, 14880, Note_off_c, 1, 51, 0
3, 21696, Note_on_c, 1, 55, 93
3, 21840, Note_off_c, 1, 55, 0
3, 24000, Note_on_c, 1, 51, 93
3, 24096, Note_off_c, 1, 51, 0
3, 30912, Note_on_c, 1, 55, 93
3, 31056, Note_off_c, 1, 55, 0
3, 31056, End_track
4, 0, Start_track
4, 0, Title_t, "Track4"
4, 0, Program_c, 2, 42
4, 0, Control_c, 2, 7, 100
4, 0, Control_c, 2, 10, 54
4, 2496, Note_on_c, 2, 39, 93
4, 2592, Note_off_c, 2, 39, 0
4, 8640, Note_on_c, 2, 39, 93
4, 8736, Note_off_c, 2, 39, 0
4, 14784, Note_on_c, 2, 43, 93
4, 14880, Note_off_c, 2, 43, 0
4, 21696, Note_on_c, 2, 46, 93
4, 21840, Note_off_c, 2, 46, 0
4, 24000, Note_on_c, 2, 43, 93
4, 24096, Note_off_c, 2, 43, 0
4, 30912, Note_on_c, 2, 46, 93
4, 31056, Note_off_c, 2, 46, 0
4, 31056, End_track
5, 0, Start_track
5, 0, Title_t, "Track5"
5, 0, Program_c, 3, 42
5, 0, Control_c, 3, 7, 100
5, 0, Control_c, 3, 10, 44
5, 14784, Note_on_c, 3, 36, 93
5, 14880, Note_off_c, 3, 36, 0
5, 21696, Note_on_c, 3, 39, 93
5, 21840, Note_off_c, 3, 39, 0
5, 24000, Note_on_c, 3, 36, 93
5, 24096, Note_off_c, 3, 36, 0
5, 30912, Note_on_c, 3, 39, 93
5, 31056, Note_off_c, 3, 39, 0
5, 31056, End_track
0, 0, End_of_file
