0, 0, Header, 1, 2, 96
1, 0, Start_track
1, 0, Time_signature, 4, 2, 24, 8
1, 0, Title_t, "untitled"
1, 0, Title_t, "Track1"
1, 0, Control_c, 0, 0, 0
1, 0, Control_c, 0, 32, 0
1, 0, Program_c, 0, 105
1, 0, Control_c, 0, 7, 100
1, 0, Control_c, 0, 10, 64
1, 0, Tempo, 240000
1, 96, Tempo, 600000
1, 96, End_track
2, 0, Start_track
2, 0, Title_t, "Track2"
2, 0, Program_c, 0, 42
2, 0, Control_c, 0, 7, 100
2, 0, Control_c, 0, 10, 64
2, 96, Note_on_c, 0, 55, 93
2, 144, Note_off_c, 0, 55, 0
2, 144, Note_on_c, 0, 51, 93
2, 216, Note_off_c, 0, 51, 0
2, 216, Note_on_c, 0, 53, 93
2, 240, Note_off_c, 0, 53, 0
2, 240, Note_on_c, 0, 50, 93
2, 288, Note_off_c, 0, 50, 0
2, 288, Note_on_c, 0, 51, 93
2, 360, Note_off_c, 0, 51, 0
2, 360, Note_on_c, 0, 53, 93
2, 384, Note_off_c, 0, 53, 0
2, 384, Note_on_c, 0, 50, 93
2, 432, Note_off_c, 0, 50, 0
2, 432, Note_on_c, 0, 48, 93
2, 504, Note_off_c, 0, 48, 0
2, 504, Note_on_c, 0, 46, 93
2, 528, Note_off_c, 0, 46, 0
2, 528, Note_on_c, 0, 44, 93
2, 552, Note_off_c, 0, 44, 0
2, 552, Note_on_c, 0, 43, 93
2, 576, Note_off_c, 0, 43, 0
2, 576, Note_on_c, 0, 44, 93
2, 648, Note_off_c, 0, 44, 0
2, 648, Note_on_c, 0, 48, 93
2, 672, Note_off_c, 0, 48, 0
2, 672, Note_on_c, 0, 43, 93
2, 720, Note_off_c, 0, 43, 0
2, 720, Note_on_c, 0, 41, 93
2, 792, Note_off_c, 0, 41, 0
2, 792, Note_on_c, 0, 51, 93
2, 816, Note_off_c, 0, 51, 0
2, 816, Note_on_c, 0, 48, 93
2, 864, Note_off_c, 0, 48, 0
2, 864, Note_on_c, 0, 50, 93
2, 936, Note_off_c, 0, 50, 0
2, 936, Note_on_c, 0, 51, 93
2, 960, Note_off_c, 0, 51, 0
2, 960, Note_on_c, 0, 48, 93
2, 1008, Note_off_c, 0, 48, 0
2, 1008, Note_on_c, 0, 47, 93
2, 1080, Note_off_c, 0, 47, 0
2, 1080, Note_on_c, 0, 50, 93
2, 1104, Note_off_c, 0, 50, 0
2, 1104, Note_on_c, 0, 43, 93
2, 1152, Note_off_c, 0, 43, 0
2, 1152, Note_on_c, 0, 55, 93
2, 1224, Note_off_c, 0, 55, 0
2, 1224, Note_on_c, 0, 53, 93
2, 1248, Note_off_c, 0, 53, 0
2, 1248, Note_on_c, 0, 51, 93
2, 1272, Note_off_c, 0, 51, 0
2, 1272, Note_on_c, 0, 50, 93
2, 1296, Note_off_c, 0, 50, 0
2, 1296, Note_on_c, 0, 51, 93
2, 1368, Note_off_c, 0, 51, 0
2, 1368, Note_on_c, 0, 55, 93
2, 1392, Note_off_c, 0, 55, 0
2, 1392, Note_on_c, 0, 48, 93
2, 1440, Note_off_c, 0, 48, 0
2, 1440, Note_on_c, 0, 56, 93
2, 1512, Note_off_c, 0, 56, 0
2, 1512, Note_on_c, 0, 55, 93
2, 1536, Note_off_c, 0, 55, 0
2, 1536, Note_on_c, 0, 53, 93
2, 1560, Note_off_c, 0, 53, 0
2, 1560, Note_on_c, 0, 51, 93
2, 1584, Note_off_c, 0, 51, 0
2, 1584, Note_on_c, 0, 53, 93
2, 1656, Note_off_c, 0, 53, 0
2, 1656, Note_on_c, 0, 56, 93
2, 1680, Note_off_c, 0, 56, 0
2, 1680, Note_on_c, 0, 50, 93
2, 1728, Note_off_c, 0, 50, 0
2, 1728, Note_on_c, 0, 58, 93
2, 1800, Note_off_c, 0, 58, 0
2, 1800, Note_on_c, 0, 56, 93
2, 1824, Note_off_c, 0, 56, 0
2, 1824, Note_on_c, 0, 55, 93
2, 1848, Note_off_c, 0, 55, 0
2, 1848, Note_on_c, 0, 53, 93
2, 1872, Note_off_c, 0, 53, 0
2, 1872, Note_on_c, 0, 55, 93
2, 1944, Note_off_c, 0, 55, 0
2, 1944, Note_on_c, 0, 51, 93
2, 1968, Note_off_c, 0, 51, 0
2, 1968, Note_on_c, 0, 60, 93
2, 2016, Note_off_c, 0, 60, 0
2, 2016, Note_on_c, 0, 56, 93
2, 2088, Note_off_c, 0, 56, 0
2, 2088, Note_on_c, 0, 53, 93
2, 2112, Note_off_c, 0, 53, 0
2, 2112, Note_on_c, 0, 62, 93
2, 2160, Note_off_c, 0, 62, 0
2, 2160, Note_on_c, 0, 63, 93
2, 2376, Note_off_c, 0, 63, 0
2, 2376, Note_on_c, 0, 62, 93
2, 2400, Note_off_c, 0, 62, 0
2, 2400, Note_on_c, 0, 60, 93
2, 2424, Note_off_c, 0, 60, 0
2, 2424, Note_on_c, 0, 58, 93
2, 2448, Note_off_c, 0, 58, 0
2, 2448, Note_on_c, 0, 60, 93
2, 2520, Note_off_c, 0, 60, 0
2, 2520, Note_on_c, 0, 58, 93
2, 2544, Note_off_c, 0, 58, 0
2, 2544, Note_on_c, 0, 56, 93
2, 2568, Note_off_c, 0, 56, 0
2, 2568, Note_on_c, 0, 55, 93
2, 2592, Note_off_c, 0, 55, 0
2, 2592, Note_on_c, 0, 56, 93
2, 2808, Note_off_c, 0, 56, 0
2, 2808, Note_on_c, 0, 55, 93
2, 2832, Note_off_c, 0, 55, 0
2, 2832, Note_on_c, 0, 53, 93
2, 2856, Note_off_c, 0, 53, 0
2, 2856, Note_on_c, 0, 51, 93
2, 2880, Note_off_c, 0, 51, 0
2, 2880, Note_on_c, 0, 50, 93
2, 2952, Note_off_c, 0, 50, 0
2, 2952, Note_on_c, 0, 48, 93
2, 2976, Note_off_c, 0, 48, 0
2, 2976, Note_on_c, 0, 46, 93
2, 3000, Note_off_c, 0, 46, 0
2, 3000, Note_on_c, 0, 44, 93
2, 3024, Note_off_c, 0, 44, 0
2, 3024, Note_on_c, 0, 43, 93
2, 3096, Note_off_c, 0, 43, 0
2, 3096, Note_on_c, 0, 56, 93
2, 3120, Note_off_c, 0, 56, 0
2, 3120, Note_on_c, 0, 53, 93
2, 3168, Note_off_c, 0, 53, 0
2, 3168, Note_on_c, 0, 55, 93
2, 3240, Note_off_c, 0, 55, 0
2, 3240, Note_on_c, 0, 58, 93
2, 3264, Note_off_c, 0, 58, 0
2, 3264, Note_on_c, 0, 50, 93
2, 3312, Note_off_c, 0, 50, 0
2, 3312, Note_on_c, 0, 51, 93
2, 3384, Note_off_c, 0, 51, 0
2, 3384, Note_on_c, 0, 43, 93
2, 3408, Note_off_c, 0, 43, 0
2, 3408, Note_on_c, 0, 46, 93
2, 3456, Note_off_c, 0, 46, 0
2, 3456, Note_on_c, 0, 39, 93
2, 3552, Note_off_c, 0, 39, 0
2, 3552, Note_on_c, 0, 55, 93
2, 3600, Note_off_c, 0, 55, 0
2, 3600, Note_on_c, 0, 51, 93
2, 3672, Note_off_c, 0, 51, 0
2, 3672, Note_on_c, 0, 53, 93
2, 3696, Note_off_c, 0, 53, 0
2, 3696, Note_on_c, 0, 50, 93
2, 3744, Note_off_c, 0, 50, 0
2, 3744, Note_on_c, 0, 51, 93
2, 3816, Note_off_c, 0, 51, 0
2, 3816, Note_on_c, 0, 53, 93
2, 3840, Note_off_c, 0, 53, 0
2, 3840, Note_on_c, 0, 50, 93
2, 3888, Note_off_c, 0, 50, 0
2, 3888, Note_on_c, 0, 48, 93
2, 3960, Note_off_c, 0, 48, 0
2, 3960, Note_on_c, 0, 46, 93
2, 3984, Note_off_c, 0, 46, 0
2, 3984, Note_on_c, 0, 44, 93
2, 4008, Note_off_c, 0, 44, 0
2, 4008, Note_on_c, 0, 43, 93
2, 4032, Note_off_c, 0, 43, 0
2, 4032, Note_on_c, 0, 44, 93
2, 4104, Note_off_c, 0, 44, 0
2, 4104, Note_on_c, 0, 48, 93
2, 4128, Note_off_c, 0, 48, 0
2, 4128, Note_on_c, 0, 43, 93
2, 4176, Note_off_c, 0, 43, 0
2, 4176, Note_on_c, 0, 41, 93
2, 4248, Note_off_c, 0, 41, 0
2, 4248, Note_on_c, 0, 51, 93
2, 4272, Note_off_c, 0, 51, 0
2, 4272, Note_on_c, 0, 48, 93
2, 4320, Note_off_c, 0, 48, 0
2, 4320, Note_on_c, 0, 50, 93
2, 4392, Note_off_c, 0, 50, 0
2, 4392, Note_on_c, 0, 51, 93
2, 4416, Note_off_c, 0, 51, 0
2, 4416, Note_on_c, 0, 48, 93
2, 4464, Note_off_c, 0, 48, 0
2, 4464, Note_on_c, 0, 47, 93
2, 4536, Note_off_c, 0, 47, 0
2, 4536, Note_on_c, 0, 50, 93
2, 4560, Note_off_c, 0, 50, 0
2, 4560, Note_on_c, 0, 43, 93
2, 4608, Note_off_c, 0, 43, 0
2, 4608, Note_on_c, 0, 55, 93
2, 4680, Note_off_c, 0, 55, 0
2, 4680, Note_on_c, 0, 53, 93
2, 4704, Note_off_c, 0, 53, 0
2, 4704, Note_on_c, 0, 51, 93
2, 4728, Note_off_c, 0, 51, 0
2, 4728, Note_on_c, 0, 50, 93
2, 4752, Note_off_c, 0, 50, 0
2, 4752, Note_on_c, 0, 51, 93
2, 4824, Note_off_c, 0, 51, 0
2, 4824, Note_on_c, 0, 55, 93
2, 4848, Note_off_c, 0, 55, 0
2, 4848, Note_on_c, 0, 48, 93
2, 4896, Note_off_c, 0, 48, 0
2, 4896, Note_on_c, 0, 56, 93
2, 4968, Note_off_c, 0, 56, 0
2, 4968, Note_on_c, 0, 55, 93
2, 4992, Note_off_c, 0, 55, 0
2, 4992, Note_on_c, 0, 53, 93
2, 5016, Note_off_c, 0, 53, 0
2, 5016, Note_on_c, 0, 51, 93
2, 5040, Note_off_c, 0, 51, 0
2, 5040, Note_on_c, 0, 53, 93
2, 5112, Note_off_c, 0, 53, 0
2, 5112, Note_on_c, 0, 56, 93
2, 5136, Note_off_c, 0, 56, 0
2, 5136, Note_on_c, 0, 50, 93
2, 5184, Note_off_c, 0, 50, 0
2, 5184, Note_on_c, 0, 58, 93
2, 5256, Note_off_c, 0, 58, 0
2, 5256, Note_on_c, 0, 56, 93
2, 5280, Note_off_c, 0, 56, 0
2, 5280, Note_on_c, 0, 55, 93
2, 5304, Note_off_c, 0, 55, 0
2, 5304, Note_on_c, 0, 53, 93
2, 5328, Note_off_c, 0, 53, 0
2, 5328, Note_on_c, 0, 55, 93
2, 5400, Note_off_c, 0, 55, 0
2, 5400, Note_on_c, 0, 51, 93
2, 5424, Note_off_c, 0, 51, 0
2, 5424, Note_on_c, 0, 60, 93
2, 5472, Note_off_c, 0, 60, 0
2, 5472, Note_on_c, 0, 56, 93
2, 5544, Note_off_c, 0, 56, 0
2, 5544, Note_on_c, 0, 53, 93
2, 5568, Note_off_c, 0, 53, 0
2, 5568, Note_on_c, 0, 62, 93
2, 5616, Note_off_c, 0, 62, 0
2, 5616, Note_on_c, 0, 63, 93
2, 5832, Note_off_c, 0, 63, 0
2, 5832, Note_on_c, 0, 62, 93
2, 5856, Note_off_c, 0, 62, 0
2, 5856, Note_on_c, 0, 60, 93
2, 5880, Note_off_c, 0, 60, 0
2, 5880, Note_on_c, 0, 58, 93
2, 5904, Note_off_c, 0, 58, 0
2, 5904, Note_on_c, 0, 60, 93
2, 5976, Note_off_c, 0, 60, 0
2, 5976, Note_on_c, 0, 58, 93
2, 6000, Note_off_c, 0, 58, 0
2, 6000, Note_on_c, 0, 56, 93
2, 6024, Note_off_c, 0, 56, 0
2, 6024, Note_on_c, 0, 55, 93
2, 6048, Note_off_c, 0, 55, 0
2, 6048, Note_on_c, 0, 56, 93
2, 6264, Note_off_c, 0, 56, 0
2, 6264, Note_on_c, 0, 55, 93
2, 6288, Note_off_c, 0, 55, 0
2, 6288, Note_on_c, 0, 53, 93
2, 6312, Note_off_c, 0, 53, 0
2, 6312, Note_on_c, 0, 51, 93
2, 6336, Note_off_c, 0, 51, 0
2, 6336, Note_on_c, 0, 50, 93
2, 6408, Note_off_c, 0, 50, 0
2, 6408, Note_on_c, 0, 48, 93
2, 6432, Note_off_c, 0, 48, 0
2, 6432, Note_on_c, 0, 46, 93
2, 6456, Note_off_c, 0, 46, 0
2, 6456, Note_on_c, 0, 44, 93
2, 6480, Note_off_c, 0, 44, 0
2, 6480, Note_on_c, 0, 43, 93
2, 6552, Note_off_c, 0, 43, 0
2, 6552, Note_on_c, 0, 56, 93
2, 6576, Note_off_c, 0, 56, 0
2, 6576, Note_on_c, 0, 53, 93
2, 6624, Note_off_c, 0, 53, 0
2, 6624, Note_on_c, 0, 55, 93
2, 6696, Note_off_c, 0, 55, 0
2, 6696, Note_on_c, 0, 58, 93
2, 6720, Note_off_c, 0, 58, 0
2, 6720, Note_on_c, 0, 50, 93
2, 6768, Note_off_c, 0, 50, 0
2, 6768, Note_on_c, 0, 51, 93
2, 6840, Note_off_c, 0, 51, 0
2, 6840, Note_on_c, 0, 43, 93
2, 6864, Note_off_c, 0, 43, 0
2, 6864, Note_on_c, 0, 46, 93
2, 6912, Note_off_c, 0, 46, 0
2, 6912, Note_on_c, 0, 39, 93
2, 7008, Note_off_c, 0, 39, 0
2, 7008, Note_on_c, 0, 51, 93
2, 7056, Note_off_c, 0, 51, 0
2, 7056, Note_on_c, 0, 55, 93
2, 7128, Note_off_c, 0, 55, 0
2, 7128, Note_on_c, 0, 56, 93
2, 7152, Note_off_c, 0, 56, 0
2, 7152, Note_on_c, 0, 53, 93
2, 7200, Note_off_c, 0, 53, 0
2, 7200, Note_on_c, 0, 55, 93
2, 7272, Note_off_c, 0, 55, 0
2, 7272, Note_on_c, 0, 58, 93
2, 7296, Note_off_c, 0, 58, 0
2, 7296, Note_on_c, 0, 57, 93
2, 7344, Note_off_c, 0, 57, 0
2, 7344, Note_on_c, 0, 58, 93
2, 7416, Note_off_c, 0, 58, 0
2, 7416, Note_on_c, 0, 50, 93
2, 7440, Note_off_c, 0, 50, 0
2, 7440, Note_on_c, 0, 51, 93
2, 7464, Note_off_c, 0, 51, 0
2, 7464, Note_on_c, 0, 53, 93
2, 7488, Note_off_c, 0, 53, 0
2, 7488, Note_on_c, 0, 46, 93
2, 7560, Note_off_c, 0, 46, 0
2, 7560, Note_on_c, 0, 48, 93
2, 7584, Note_off_c, 0, 48, 0
2, 7584, Note_on_c, 0, 50, 93
2, 7632, Note_off_c, 0, 50, 0
2, 7632, Note_on_c, 0, 51, 93
2, 7704, Note_off_c, 0, 51, 0
2, 7704, Note_on_c, 0, 60, 93
2, 7728, Note_off_c, 0, 60, 0
2, 7728, Note_on_c, 0, 57, 93
2, 7776, Note_off_c, 0, 57, 0
2, 7776, Note_on_c, 0, 58, 93
2, 7848, Note_off_c, 0, 58, 0
2, 7848, Note_on_c, 0, 54, 93
2, 7872, Note_off_c, 0, 54, 0
2, 7872, Note_on_c, 0, 55, 93
2, 7920, Note_off_c, 0, 55, 0
2, 7920, Note_on_c, 0, 54, 93
2, 7992, Note_off_c, 0, 54, 0
2, 7992, Note_on_c, 0, 57, 93
2, 8016, Note_off_c, 0, 57, 0
2, 8016, Note_on_c, 0, 50, 93
2, 8064, Note_off_c, 0, 50, 0
2, 8064, Note_on_c, 0, 62, 93
2, 8136, Note_off_c, 0, 62, 0
2, 8136, Note_on_c, 0, 60, 93
2, 8160, Note_off_c, 0, 60, 0
2, 8160, Note_on_c, 0, 58, 93
2, 8184, Note_off_c, 0, 58, 0
2, 8184, Note_on_c, 0, 57, 93
2, 8208, Note_off_c, 0, 57, 0
2, 8208, Note_on_c, 0, 58, 93
2, 8280, Note_off_c, 0, 58, 0
2, 8280, Note_on_c, 0, 62, 93
2, 8304, Note_off_c, 0, 62, 0
2, 8304, Note_on_c, 0, 55, 93
2, 8352, Note_off_c, 0, 55, 0
2, 8352, Note_on_c, 0, 53, 93
2, 8424, Note_off_c, 0, 53, 0
2, 8424, Note_on_c, 0, 55, 93
2, 8448, Note_off_c, 0, 55, 0
2, 8448, Note_on_c, 0, 50, 93
2, 8496, Note_off_c, 0, 50, 0
2, 8496, Note_on_c, 0, 51, 93
2, 8568, Note_off_c, 0, 51, 0
2, 8568, Note_on_c, 0, 55, 93
2, 8592, Note_off_c, 0, 55, 0
2, 8592, Note_on_c, 0, 60, 93
2, 8640, Note_off_c, 0, 60, 0
2, 8640, Note_on_c, 0, 63, 93
2, 8736, Note_off_c, 0, 63, 0
2, 8736, Note_on_c, 0, 62, 93
2, 8784, Note_off_c, 0, 62, 0
2, 8784, Note_on_c, 0, 60, 93
2, 8856, Note_off_c, 0, 60, 0
2, 8856, Note_on_c, 0, 54, 93
2, 8880, Note_off_c, 0, 54, 0
2, 8880, Note_on_c, 0, 55, 93
2, 8928, Note_off_c, 0, 55, 0
2, 8928, Note_on_c, 0, 50, 93
2, 9000, Note_off_c, 0, 50, 0
2, 9000, Note_on_c, 0, 57, 93
2, 9024, Note_off_c, 0, 57, 0
2, 9024, Note_on_c, 0, 54, 93
2, 9072, Note_off_c, 0, 54, 0
2, 9072, Note_on_c, 0, 55, 93
2, 9144, Note_off_c, 0, 55, 0
2, 9144, Note_on_c, 0, 46, 93
2, 9168, Note_off_c, 0, 46, 0
2, 9168, Note_on_c, 0, 48, 93
2, 9192, Note_off_c, 0, 48, 0
2, 9192, Note_on_c, 0, 50, 93
2, 9216, Note_off_c, 0, 50, 0
2, 9216, Note_on_c, 0, 43, 93
2, 9288, Note_off_c, 0, 43, 0
2, 9288, Note_on_c, 0, 58, 93
2, 9312, Note_off_c, 0, 58, 0
2, 9312, Note_on_c, 0, 55, 93
2, 9360, Note_off_c, 0, 55, 0
2, 9360, Note_on_c, 0, 52, 93
2, 9432, Note_off_c, 0, 52, 0
2, 9432, Note_on_c, 0, 55, 93
2, 9456, Note_off_c, 0, 55, 0
2, 9456, Note_on_c, 0, 58, 93
2, 9504, Note_off_c, 0, 58, 0
2, 9504, Note_on_c, 0, 61, 93
2, 9576, Note_off_c, 0, 61, 0
2, 9576, Note_on_c, 0, 58, 93
2, 9600, Note_off_c, 0, 58, 0
2, 9600, Note_on_c, 0, 60, 93
2, 9648, Note_off_c, 0, 60, 0
2, 9648, Note_on_c, 0, 56, 93
2, 9720, Note_off_c, 0, 56, 0
2, 9720, Note_on_c, 0, 55, 93
2, 9744, Note_off_c, 0, 55, 0
2, 9744, Note_on_c, 0, 53, 93
2, 9768, Note_off_c, 0, 53, 0
2, 9768, Note_on_c, 0, 52, 93
2, 9792, Note_off_c, 0, 52, 0
2, 9792, Note_on_c, 0, 53, 93
2, 9864, Note_off_c, 0, 53, 0
2, 9864, Note_on_c, 0, 56, 93
2, 9888, Note_off_c, 0, 56, 0
2, 9888, Note_on_c, 0, 51, 93
2, 9936, Note_off_c, 0, 51, 0
2, 9936, Note_on_c, 0, 50, 93
2, 10008, Note_off_c, 0, 50, 0
2, 10008, Note_on_c, 0, 53, 93
2, 10032, Note_off_c, 0, 53, 0
2, 10032, Note_on_c, 0, 56, 93
2, 10080, Note_off_c, 0, 56, 0
2, 10080, Note_on_c, 0, 60, 93
2, 10152, Note_off_c, 0, 60, 0
2, 10152, Note_on_c, 0, 56, 93
2, 10176, Note_off_c, 0, 56, 0
2, 10176, Note_on_c, 0, 58, 93
2, 10224, Note_off_c, 0, 58, 0
2, 10224, Note_on_c, 0, 55, 93
2, 10296, Note_off_c, 0, 55, 0
2, 10296, Note_on_c, 0, 53, 93
2, 10320, Note_off_c, 0, 53, 0
2, 10320, Note_on_c, 0, 51, 93
2, 10344, Note_off_c, 0, 51, 0
2, 10344, Note_on_c, 0, 50, 93
2, 10368, Note_off_c, 0, 50, 0
2, 10368, Note_on_c, 0, 51, 93
2, 10440, Note_off_c, 0, 51, 0
2, 10440, Note_on_c, 0, 55, 93
2, 10464, Note_off_c, 0, 55, 0
2, 10464, Note_on_c, 0, 58, 93
2, 10512, Note_off_c, 0, 58, 0
2, 10512, Note_on_c, 0, 57, 93
2, 10584, Note_off_c, 0, 57, 0
2, 10584, Note_on_c, 0, 53, 93
2, 10608, Note_off_c, 0, 53, 0
2, 10608, Note_on_c, 0, 51, 93
2, 10632, Note_off_c, 0, 51, 0
2, 10632, Note_on_c, 0, 50, 93
2, 10656, Note_off_c, 0, 50, 0
2, 10656, Note_on_c, 0, 51, 93
2, 10728, Note_off_c, 0, 51, 0
2, 10728, Note_on_c, 0, 57, 93
2, 10752, Note_off_c, 0, 57, 0
2, 10752, Note_on_c, 0, 60, 93
2, 10800, Note_off_c, 0, 60, 0
2, 10800, Note_on_c, 0, 59, 93
2, 10872, Note_off_c, 0, 59, 0
2, 10872, Note_on_c, 0, 55, 93
2, 10896, Note_off_c, 0, 55, 0
2, 10896, Note_on_c, 0, 53, 93
2, 10920, Note_off_c, 0, 53, 0
2, 10920, Note_on_c, 0, 51, 93
2, 10944, Note_off_c, 0, 51, 0
2, 10944, Note_on_c, 0, 53, 93
2, 11016, Note_off_c, 0, 53, 0
2, 11016, Note_on_c, 0, 59, 93
2, 11040, Note_off_c, 0, 59, 0
2, 11040, Note_on_c, 0, 62, 93
2, 11088, Note_off_c, 0, 62, 0
2, 11088, Note_on_c, 0, 60, 93
2, 11160, Note_off_c, 0, 60, 0
2, 11160, Note_on_c, 0, 55, 93
2, 11184, Note_off_c, 0, 55, 0
2, 11184, Note_on_c, 0, 63, 93
2, 11232, Note_off_c, 0, 63, 0
2, 11232, Note_on_c, 0, 62, 93
2, 11304, Note_off_c, 0, 62, 0
2, 11304, Note_on_c, 0, 55, 93
2, 11328, Note_off_c, 0, 55, 0
2, 11328, Note_on_c, 0, 65, 93
2, 11376, Note_off_c, 0, 65, 0
2, 11376, Control_c, 0, 1, 48
2, 11376, Note_on_c, 0, 63, 93
2, 11520, Note_off_c, 0, 63, 0
2, 11520, Note_on_c, 0, 64, 93
2, 11664, Note_off_c, 0, 64, 0
2, 11664, Control_c, 0, 1, 0
2, 11664, Note_on_c, 0, 65, 93
2, 11736, Note_off_c, 0, 65, 0
2, 11736, Note_on_c, 0, 62, 93
2, 11760, Note_off_c, 0, 62, 0
2, 11760, Note_on_c, 0, 63, 93
2, 11808, Note_off_c, 0, 63, 0
2, 11808, Note_on_c, 0, 62, 93
2, 11880, Note_off_c, 0, 62, 0
2, 11880, Note_on_c, 0, 59, 93
2, 11904, Note_off_c, 0, 59, 0
2, 11904, Note_on_c, 0, 60, 93
2, 11952, Note_off_c, 0, 60, 0
2, 11952, Note_on_c, 0, 59, 93
2, 12024, Note_off_c, 0, 59, 0
2, 12024, Note_on_c, 0, 60, 93
2, 12048, Note_off_c, 0, 60, 0
2, 12048, Note_on_c, 0, 62, 93
2, 12096, Note_off_c, 0, 62, 0
2, 12096, Note_on_c, 0, 55, 93
2, 12168, Note_off_c, 0, 55, 0
2, 12168, Note_on_c, 0, 53, 93
2, 12192, Note_off_c, 0, 53, 0
2, 12192, Note_on_c, 0, 51, 93
2, 12216, Note_off_c, 0, 51, 0
2, 12216, Note_on_c, 0, 50, 93
2, 12240, Note_off_c, 0, 50, 0
2, 12240, Note_on_c, 0, 51, 93
2, 12288, Note_off_c, 0, 51, 0
2, 12288, Note_on_c, 0, 60, 93
2, 12456, Note_off_c, 0, 60, 0
2, 12456, Note_on_c, 0, 58, 93
2, 12480, Note_off_c, 0, 58, 0
2, 12480, Note_on_c, 0, 56, 93
2, 12504, Note_off_c, 0, 56, 0
2, 12504, Note_on_c, 0, 55, 93
2, 12528, Note_off_c, 0, 55, 0
2, 12528, Note_on_c, 0, 56, 93
2, 12600, Note_off_c, 0, 56, 0
2, 12600, Note_on_c, 0, 55, 93
2, 12624, Note_off_c, 0, 55, 0
2, 12624, Note_on_c, 0, 53, 93
2, 12648, Note_off_c, 0, 53, 0
2, 12648, Note_on_c, 0, 52, 93
2, 12672, Note_off_c, 0, 52, 0
2, 12672, Note_on_c, 0, 53, 93
2, 12888, Note_off_c, 0, 53, 0
2, 12888, Note_on_c, 0, 51, 93
2, 12912, Note_off_c, 0, 51, 0
2, 12912, Note_on_c, 0, 50, 93
2, 12936, Note_off_c, 0, 50, 0
2, 12936, Note_on_c, 0, 48, 93
2, 12960, Note_off_c, 0, 48, 0
2, 12960, Note_on_c, 0, 47, 93
2, 13032, Note_off_c, 0, 47, 0
2, 13032, Note_on_c, 0, 44, 93
2, 13056, Note_off_c, 0, 44, 0
2, 13056, Note_on_c, 0, 43, 93
2, 13080, Note_off_c, 0, 43, 0
2, 13080, Note_on_c, 0, 41, 93
2, 13104, Note_off_c, 0, 41, 0
2, 13104, Note_on_c, 0, 39, 93
2, 13176, Note_off_c, 0, 39, 0
2, 13176, Note_on_c, 0, 43, 93
2, 13200, Note_off_c, 0, 43, 0
2, 13200, Note_on_c, 0, 47, 93
2, 13248, Note_off_c, 0, 47, 0
2, 13248, Note_on_c, 0, 50, 93
2, 13320, Note_off_c, 0, 50, 0
2, 13320, Note_on_c, 0, 53, 93
2, 13344, Note_off_c, 0, 53, 0
2, 13344, Note_on_c, 0, 56, 93
2, 13392, Note_off_c, 0, 56, 0
2, 13392, Note_on_c, 0, 55, 93
2, 13464, Note_off_c, 0, 55, 0
2, 13464, Note_on_c, 0, 50, 93
2, 13488, Note_off_c, 0, 50, 0
2, 13488, Note_on_c, 0, 51, 93
2, 13536, Note_off_c, 0, 51, 0
2, 13536, Note_on_c, 0, 43, 93
2, 13608, Note_off_c, 0, 43, 0
2, 13608, Note_on_c, 0, 48, 93
2, 13632, Note_off_c, 0, 48, 0
2, 13632, Note_on_c, 0, 47, 93
2, 13680, Note_off_c, 0, 47, 0
2, 13680, Note_on_c, 0, 48, 93
2, 13752, Note_off_c, 0, 48, 0
2, 13752, Note_on_c, 0, 39, 93
2, 13776, Note_off_c, 0, 39, 0
2, 13776, Note_on_c, 0, 43, 93
2, 13824, Note_off_c, 0, 43, 0
2, 13824, Note_on_c, 0, 36, 93
2, 13920, Note_off_c, 0, 36, 0
2, 13920, Note_on_c, 0, 51, 93
2, 13968, Note_off_c, 0, 51, 0
2, 13968, Note_on_c, 0, 55, 93
2, 14040, Note_off_c, 0, 55, 0
2, 14040, Note_on_c, 0, 56, 93
2, 14064, Note_off_c, 0, 56, 0
2, 14064, Note_on_c, 0, 53, 93
2, 14112, Note_off_c, 0, 53, 0
2, 14112, Note_on_c, 0, 55, 93
2, 14184, Note_off_c, 0, 55, 0
2, 14184, Note_on_c, 0, 58, 93
2, 14208, Note_off_c, 0, 58, 0
2, 14208, Note_on_c, 0, 57, 93
2, 14256, Note_off_c, 0, 57, 0
2, 14256, Note_on_c, 0, 58, 93
2, 14328, Note_off_c, 0, 58, 0
2, 14328, Note_on_c, 0, 50, 93
2, 14352, Note_off_c, 0, 50, 0
2, 14352, Note_on_c, 0, 51, 93
2, 14376, Note_off_c, 0, 51, 0
2, 14376, Note_on_c, 0, 53, 93
2, 14400, Note_off_c, 0, 53, 0
2, 14400, Note_on_c, 0, 46, 93
2, 14472, Note_off_c, 0, 46, 0
2, 14472, Note_on_c, 0, 48, 93
2, 14496, Note_off_c, 0, 48, 0
2, 14496, Note_on_c, 0, 50, 93
2, 14544, Note_off_c, 0, 50, 0
2, 14544, Note_on_c, 0, 51, 93
2, 14616, Note_off_c, 0, 51, 0
2, 14616, Note_on_c, 0, 60, 93
2, 14640, Note_off_c, 0, 60, 0
2, 14640, Note_on_c, 0, 57, 93
2, 14688, Note_off_c, 0, 57, 0
2, 14688, Note_on_c, 0, 58, 93
2, 14760, Note_off_c, 0, 58, 0
2, 14760, Note_on_c, 0, 54, 93
2, 14784, Note_off_c, 0, 54, 0
2, 14784, Note_on_c, 0, 55, 93
2, 14832, Note_off_c, 0, 55, 0
2, 14832, Note_on_c, 0, 54, 93
2, 14904, Note_off_c, 0, 54, 0
2, 14904, Note_on_c, 0, 57, 93
2, 14928, Note_off_c, 0, 57, 0
2, 14928, Note_on_c, 0, 50, 93
2, 14976, Note_off_c, 0, 50, 0
2, 14976, Note_on_c, 0, 62, 93
2, 15048, Note_off_c, 0, 62, 0
2, 15048, Note_on_c, 0, 60, 93
2, 15072, Note_off_c, 0, 60, 0
2, 15072, Note_on_c, 0, 58, 93
2, 15096, Note_off_c, 0, 58, 0
2, 15096, Note_on_c, 0, 57, 93
2, 15120, Note_off_c, 0, 57, 0
2, 15120, Note_on_c, 0, 58, 93
2, 15192, Note_off_c, 0, 58, 0
2, 15192, Note_on_c, 0, 62, 93
2, 15216, Note_off_c, 0, 62, 0
2, 15216, Note_on_c, 0, 55, 93
2, 15264, Note_off_c, 0, 55, 0
2, 15264, Note_on_c, 0, 53, 93
2, 15336, Note_off_c, 0, 53, 0
2, 15336, Note_on_c, 0, 55, 93
2, 15360, Note_off_c, 0, 55, 0
2, 15360, Note_on_c, 0, 50, 93
2, 15408, Note_off_c, 0, 50, 0
2, 15408, Note_on_c, 0, 51, 93
2, 15480, Note_off_c, 0, 51, 0
2, 15480, Note_on_c, 0, 55, 93
2, 15504, Note_off_c, 0, 55, 0
2, 15504, Note_on_c, 0, 60, 93
2, 15552, Note_off_c, 0, 60, 0
2, 15552, Note_on_c, 0, 63, 93
2, 15648, Note_off_c, 0, 63, 0
2, 15648, Note_on_c, 0, 62, 93
2, 15696, Note_off_c, 0, 62, 0
2, 15696, Note_on_c, 0, 60, 93
2, 15768, Note_off_c, 0, 60, 0
2, 15768, Note_on_c, 0, 54, 93
2, 15792, Note_off_c, 0, 54, 0
2, 15792, Note_on_c, 0, 55, 93
2, 15840, Note_off_c, 0, 55, 0
2, 15840, Note_on_c, 0, 50, 93
2, 15912, Note_off_c, 0, 50, 0
2, 15912, Note_on_c, 0, 57, 93
2, 15936, Note_off_c, 0, 57, 0
2, 15936, Note_on_c, 0, 54, 93
2, 15984, Note_off_c, 0, 54, 0
2, 15984, Note_on_c, 0, 55, 93
2, 16056, Note_off_c, 0, 55, 0
2, 16056, Note_on_c, 0, 46, 93
2, 16080, Note_off_c, 0, 46, 0
2, 16080, Note_on_c, 0, 48, 93
2, 16104, Note_off_c, 0, 48, 0
2, 16104, Note_on_c, 0, 50, 93
2, 16128, Note_off_c, 0, 50, 0
2, 16128, Note_on_c, 0, 43, 93
2, 16200, Note_off_c, 0, 43, 0
2, 16200, Note_on_c, 0, 58, 93
2, 16224, Note_off_c, 0, 58, 0
2, 16224, Note_on_c, 0, 55, 93
2, 16272, Note_off_c, 0, 55, 0
2, 16272, Note_on_c, 0, 52, 93
2, 16344, Note_off_c, 0, 52, 0
2, 16344, Note_on_c, 0, 55, 93
2, 16368, Note_off_c, 0, 55, 0
2, 16368, Note_on_c, 0, 58, 93
2, 16416, Note_off_c, 0, 58, 0
2, 16416, Note_on_c, 0, 61, 93
2, 16488, Note_off_c, 0, 61, 0
2, 16488, Note_on_c, 0, 58, 93
2, 16512, Note_off_c, 0, 58, 0
2, 16512, Note_on_c, 0, 60, 93
2, 16560, Note_off_c, 0, 60, 0
2, 16560, Note_on_c, 0, 56, 93
2, 16632, Note_off_c, 0, 56, 0
2, 16632, Note_on_c, 0, 55, 93
2, 16656, Note_off_c, 0, 55, 0
2, 16656, Note_on_c, 0, 53, 93
2, 16680, Note_off_c, 0, 53, 0
2, 16680, Note_on_c, 0, 52, 93
2, 16704, Note_off_c, 0, 52, 0
2, 16704, Note_on_c, 0, 53, 93
2, 16776, Note_off_c, 0, 53, 0
2, 16776, Note_on_c, 0, 56, 93
2, 16800, Note_off_c, 0, 56, 0
2, 16800, Note_on_c, 0, 51, 93
2, 16848, Note_off_c, 0, 51, 0
2, 16848, Note_on_c, 0, 50, 93
2, 16920, Note_off_c, 0, 50, 0
2, 16920, Note_on_c, 0, 53, 93
2, 16944, Note_off_c, 0, 53, 0
2, 16944, Note_on_c, 0, 56, 93
2, 16992, Note_off_c, 0, 56, 0
2, 16992, Note_on_c, 0, 60, 93
2, 17064, Note_off_c, 0, 60, 0
2, 17064, Note_on_c, 0, 56, 93
2, 17088, Note_off_c, 0, 56, 0
2, 17088, Note_on_c, 0, 58, 93
2, 17136, Note_off_c, 0, 58, 0
2, 17136, Note_on_c, 0, 55, 93
2, 17208, Note_off_c, 0, 55, 0
2, 17208, Note_on_c, 0, 53, 93
2, 17232, Note_off_c, 0, 53, 0
2, 17232, Note_on_c, 0, 51, 93
2, 17256, Note_off_c, 0, 51, 0
2, 17256, Note_on_c, 0, 50, 93
2, 17280, Note_off_c, 0, 50, 0
2, 17280, Note_on_c, 0, 51, 93
2, 17352, Note_off_c, 0, 51, 0
2, 17352, Note_on_c, 0, 55, 93
2, 17376, Note_off_c, 0, 55, 0
2, 17376, Note_on_c, 0, 58, 93
2, 17424, Note_off_c, 0, 58, 0
2, 17424, Note_on_c, 0, 57, 93
2, 17496, Note_off_c, 0, 57, 0
2, 17496, Note_on_c, 0, 53, 93
2, 17520, Note_off_c, 0, 53, 0
2, 17520, Note_on_c, 0, 51, 93
2, 17544, Note_off_c, 0, 51, 0
2, 17544, Note_on_c, 0, 50, 93
2, 17568, Note_off_c, 0, 50, 0
2, 17568, Note_on_c, 0, 51, 93
2, 17640, Note_off_c, 0, 51, 0
2, 17640, Note_on_c, 0, 57, 93
2, 17664, Note_off_c, 0, 57, 0
2, 17664, Note_on_c, 0, 60, 93
2, 17712, Note_off_c, 0, 60, 0
2, 17712, Note_on_c, 0, 59, 93
2, 17784, Note_off_c, 0, 59, 0
2, 17784, Note_on_c, 0, 55, 93
2, 17808, Note_off_c, 0, 55, 0
2, 17808, Note_on_c, 0, 53, 93
2, 17832, Note_off_c, 0, 53, 0
2, 17832, Note_on_c, 0, 51, 93
2, 17856, Note_off_c, 0, 51, 0
2, 17856, Note_on_c, 0, 53, 93
2, 17928, Note_off_c, 0, 53, 0
2, 17928, Note_on_c, 0, 59, 93
2, 17952, Note_off_c, 0, 59, 0
2, 17952, Note_on_c, 0, 62, 93
2, 18000, Note_off_c, 0, 62, 0
2, 18000, Note_on_c, 0, 60, 93
2, 18072, Note_off_c, 0, 60, 0
2, 18072, Note_on_c, 0, 55, 93
2, 18096, Note_off_c, 0, 55, 0
2, 18096, Note_on_c, 0, 63, 93
2, 18144, Note_off_c, 0, 63, 0
2, 18144, Note_on_c, 0, 62, 93
2, 18216, Note_off_c, 0, 62, 0
2, 18216, Note_on_c, 0, 55, 93
2, 18240, Note_off_c, 0, 55, 0
2, 18240, Note_on_c, 0, 65, 93
2, 18288, Note_off_c, 0, 65, 0
2, 18288, Control_c, 0, 1, 48
2, 18288, Note_on_c, 0, 63, 93
2, 18432, Note_off_c, 0, 63, 0
2, 18432, Note_on_c, 0, 64, 93
2, 18576, Note_off_c, 0, 64, 0
2, 18576, Control_c, 0, 1, 0
2, 18576, Note_on_c, 0, 65, 93
2, 18648, Note_off_c, 0, 65, 0
2, 18648, Note_on_c, 0, 62, 93
2, 18672, Note_off_c, 0, 62, 0
2, 18672, Note_on_c, 0, 63, 93
2, 18720, Note_off_c, 0, 63, 0
2, 18720, Note_on_c, 0, 62, 93
2, 18792, Note_off_c, 0, 62, 0
2, 18792, Note_on_c, 0, 59, 93
2, 18816, Note_off_c, 0, 59, 0
2, 18816, Note_on_c, 0, 60, 93
2, 18864, Note_off_c, 0, 60, 0
2, 18864, Note_on_c, 0, 59, 93
2, 18936, Note_off_c, 0, 59, 0
2, 18936, Note_on_c, 0, 60, 93
2, 18960, Note_off_c, 0, 60, 0
2, 18960, Note_on_c, 0, 62, 93
2, 19008, Note_off_c, 0, 62, 0
2, 19008, Note_on_c, 0, 55, 93
2, 19080, Note_off_c, 0, 55, 0
2, 19080, Note_on_c, 0, 53, 93
2, 19104, Note_off_c, 0, 53, 0
2, 19104, Note_on_c, 0, 51, 93
2, 19128, Note_off_c, 0, 51, 0
2, 19128, Note_on_c, 0, 50, 93
2, 19152, Note_off_c, 0, 50, 0
2, 19152, Note_on_c, 0, 51, 93
2, 19200, Note_off_c, 0, 51, 0
2, 19200, Note_on_c, 0, 60, 93
2, 19368, Note_off_c, 0, 60, 0
2, 19368, Note_on_c, 0, 58, 93
2, 19392, Note_off_c, 0, 58, 0
2, 19392, Note_on_c, 0, 56, 93
2, 19416, Note_off_c, 0, 56, 0
2, 19416, Note_on_c, 0, 55, 93
2, 19440, Note_off_c, 0, 55, 0
2, 19440, Note_on_c, 0, 56, 93
2, 19512, Note_off_c, 0, 56, 0
2, 19512, Note_on_c, 0, 55, 93
2, 19536, Note_off_c, 0, 55, 0
2, 19536, Note_on_c, 0, 53, 93
2, 19560, Note_off_c, 0, 53, 0
2, 19560, Note_on_c, 0, 52, 93
2, 19584, Note_off_c, 0, 52, 0
2, 19584, Note_on_c, 0, 53, 93
2, 19800, Note_off_c, 0, 53, 0
2, 19800, Note_on_c, 0, 51, 93
2, 19824, Note_off_c, 0, 51, 0
2, 19824, Note_on_c, 0, 50, 93
2, 19848, Note_off_c, 0, 50, 0
2, 19848, Note_on_c, 0, 48, 93
2, 19872, Note_off_c, 0, 48, 0
2, 19872, Note_on_c, 0, 47, 93
2, 19944, Note_off_c, 0, 47, 0
2, 19944, Note_on_c, 0, 44, 93
2, 19968, Note_off_c, 0, 44, 0
2, 19968, Note_on_c, 0, 43, 93
2, 19992, Note_off_c, 0, 43, 0
2, 19992, Note_on_c, 0, 41, 93
2, 20016, Note_off_c, 0, 41, 0
2, 20016, Note_on_c, 0, 39, 93
2, 20088, Note_off_c, 0, 39, 0
2, 20088, Note_on_c, 0, 43, 93
2, 20112, Note_off_c, 0, 43, 0
2, 20112, Note_on_c, 0, 47, 93
2, 20160, Note_off_c, 0, 47, 0
2, 20160, Note_on_c, 0, 50, 93
2, 20232, Note_off_c, 0, 50, 0
2, 20232, Note_on_c, 0, 53, 93
2, 20256, Note_off_c, 0, 53, 0
2, 20256, Note_on_c, 0, 56, 93
2, 20304, Note_off_c, 0, 56, 0
2, 20304, Note_on_c, 0, 55, 93
2, 20376, Note_off_c, 0, 55, 0
2, 20376, Note_on_c, 0, 50, 93
2, 20400, Note_off_c, 0, 50, 0
2, 20400, Note_on_c, 0, 51, 93
2, 20448, Note_off_c, 0, 51, 0
2, 20448, Note_on_c, 0, 43, 93
2, 20520, Note_off_c, 0, 43, 0
2, 20520, Note_on_c, 0, 48, 93
2, 20544, Note_off_c, 0, 48, 0
2, 20544, Note_on_c, 0, 47, 93
2, 20592, Note_off_c, 0, 47, 0
2, 20592, Note_on_c, 0, 48, 93
2, 20664, Note_off_c, 0, 48, 0
2, 20664, Note_on_c, 0, 39, 93
2, 20688, Note_off_c, 0, 39, 0
2, 20688, Note_on_c, 0, 43, 93
2, 20736, Note_off_c, 0, 43, 0
2, 20736, Note_on_c, 0, 36, 93
2, 20832, Note_off_c, 0, 36, 0
2, 20832, End_track
0, 0, End_of_file
