0, 0, Header, 1, 2, 96
1, 0, Start_track
1, 0, Time_signature, 4, 2, 24, 8
1, 0, Title_t, "untitled"
1, 0, Title_t, "Track1"
1, 0, Tempo, 240000
1, 192, Tempo, 500000
1, 192, End_track
2, 0, Start_track
2, 0, Title_t, "Track2"
2, 0, Program_c, 0, 42
2, 0, Control_c, 0, 7, 100
2, 0, Control_c, 0, 10, 64
2, 192, Note_on_c, 0, 55, 93
2, 288, Note_off_c, 0, 55, 0
2, 288, Note_on_c, 0, 60, 93
2, 384, Note_off_c, 0, 60, 0
2, 384, Note_on_c, 0, 53, 93
2, 480, Note_off_c, 0, 53, 0
2, 480, Note_on_c, 0, 58, 93
2, 528, Note_off_c, 0, 58, 0
2, 528, Note_on_c, 0, 55, 93
2, 576, Note_off_c, 0, 55, 0
2, 576, Note_on_c, 0, 50, 93
2, 672, Note_off_c, 0, 50, 0
2, 672, Note_on_c, 0, 58, 93
2, 720, Note_off_c, 0, 58, 0
2, 720, Note_on_c, 0, 53, 93
2, 768, Note_off_c, 0, 53, 0
2, 768, Note_on_c, 0, 55, 93
2, 864, Note_off_c, 0, 55, 0
2, 864, Note_on_c, 0, 51, 93
2, 912, Note_off_c, 0, 51, 0
2, 912, Note_on_c, 0, 47, 93
2, 960, Note_off_c, 0, 47, 0
2, 960, Note_on_c, 0, 48, 93
2, 1056, Note_off_c, 0, 48, 0
2, 1056, Note_on_c, 0, 56, 93
2, 1104, Note_off_c, 0, 56, 0
2, 1104, Note_on_c, 0, 51, 93
2, 1152, Note_off_c, 0, 51, 0
2, 1152, Note_on_c, 0, 53, 93
2, 1248, Note_off_c, 0, 53, 0
2, 1248, Note_on_c, 0, 50, 93
2, 1296, Note_off_c, 0, 50, 0
2, 1296, Note_on_c, 0, 45, 93
2, 1344, Note_off_c, 0, 45, 0
2, 1344, Note_on_c, 0, 47, 93
2, 1392, Note_off_c, 0, 47, 0
2, 1392, Note_on_c, 0, 50, 93
2, 1440, Note_off_c, 0, 50, 0
2, 1440, Note_on_c, 0, 55, 93
2, 1536, Note_off_c, 0, 55, 0
2, 1536, Note_on_c, 0, 36, 93
2, 1632, Note_off_c, 0, 36, 0
2, 1632, Note_on_c, 0, 50, 93
2, 1680, Note_off_c, 0, 50, 0
2, 1680, Note_on_c, 0, 48, 93
2, 1728, Note_off_c, 0, 48, 0
2, 1728, Note_on_c, 0, 55, 93
2, 1776, Note_off_c, 0, 55, 0
2, 1776, Note_on_c, 0, 51, 93
2, 1824, Note_off_c, 0, 51, 0
2, 1824, Note_on_c, 0, 60, 93
2, 1872, Note_off_c, 0, 60, 0
2, 1872, Note_on_c, 0, 55, 93
2, 1920, Note_off_c, 0, 55, 0
2, 1920, Note_on_c, 0, 56, 93
2, 1968, Note_off_c, 0, 56, 0
2, 1968, Note_on_c, 0, 53, 93
2, 2016, Note_off_c, 0, 53, 0
2, 2016, Note_on_c, 0, 58, 93
2, 2064, Note_off_c, 0, 58, 0
2, 2064, Note_on_c, 0, 52, 93
2, 2112, Note_off_c, 0, 52, 0
2, 2112, Note_on_c, 0, 56, 93
2, 2160, Note_off_c, 0, 56, 0
2, 2160, Note_on_c, 0, 53, 93
2, 2208, Note_off_c, 0, 53, 0
2, 2208, Note_on_c, 0, 58, 93
2, 2256, Note_off_c, 0, 58, 0
2, 2256, Note_on_c, 0, 50, 93
2, 2304, Note_off_c, 0, 50, 0
2, 2304, Note_on_c, 0, 55, 93
2, 2352, Note_off_c, 0, 55, 0
2, 2352, Note_on_c, 0, 51, 93
2, 2400, Note_off_c, 0, 51, 0
2, 2400, Note_on_c, 0, 56, 93
2, 2448, Note_off_c, 0, 56, 0
2, 2448, Note_on_c, 0, 50, 93
2, 2496, Note_off_c, 0, 50, 0
2, 2496, Note_on_c, 0, 55, 93
2, 2544, Note_off_c, 0, 55, 0
2, 2544, Note_on_c, 0, 51, 93
2, 2592, Note_off_c, 0, 51, 0
2, 2592, Note_on_c, 0, 58, 93
2, 2640, Note_off_c, 0, 58, 0
2, 2640, Note_on_c, 0, 55, 93
2, 2688, Note_off_c, 0, 55, 0
2, 2688, Note_on_c, 0, 60, 93
2, 2736, Note_off_c, 0, 60, 0
2, 2736, Note_on_c, 0, 56, 93
2, 2784, Note_off_c, 0, 56, 0
2, 2784, Note_on_c, 0, 61, 93
2, 2832, Note_off_c, 0, 61, 0
2, 2832, Note_on_c, 0, 55, 93
2, 2880, Note_off_c, 0, 55, 0
2, 2880, Note_on_c, 0, 60, 93
2, 2928, Note_off_c, 0, 60, 0
2, 2928, Note_on_c, 0, 56, 93
2, 2976, Note_off_c, 0, 56, 0
2, 2976, Note_on_c, 0, 63, 93
2, 3024, Note_off_c, 0, 63, 0
2, 3024, Note_on_c, 0, 57, 93
2, 3072, Note_off_c, 0, 57, 0
2, 3072, Note_on_c, 0, 62, 93
2, 3120, Note_off_c, 0, 62, 0
2, 3120, Note_on_c, 0, 58, 93
2, 3168, Note_off_c, 0, 58, 0
2, 3168, Note_on_c, 0, 63, 93
2, 3216, Note_off_c, 0, 63, 0
2, 3216, Note_on_c, 0, 62, 93
2, 3264, Note_off_c, 0, 62, 0
2, 3264, Note_on_c, 0, 60, 93
2, 3312, Note_off_c, 0, 60, 0
2, 3312, Note_on_c, 0, 58, 93
2, 3360, Note_off_c, 0, 58, 0
2, 3360, Note_on_c, 0, 57, 93
2, 3408, Note_off_c, 0, 57, 0
2, 3408, Note_on_c, 0, 55, 93
2, 3456, Note_off_c, 0, 55, 0
2, 3456, Note_on_c, 0, 48, 93
2, 3552, Note_off_c, 0, 48, 0
2, 3552, Note_on_c, 0, 58, 93
2, 3600, Note_off_c, 0, 58, 0
2, 3600, Note_on_c, 0, 55, 93
2, 3648, Note_off_c, 0, 55, 0
2, 3648, Note_on_c, 0, 51, 93
2, 3744, Note_off_c, 0, 51, 0
2, 3744, Note_on_c, 0, 60, 93
2, 3792, Note_off_c, 0, 60, 0
2, 3792, Note_on_c, 0, 57, 93
2, 3840, Note_off_c, 0, 57, 0
2, 3840, Note_on_c, 0, 50, 93
2, 3936, Note_off_c, 0, 50, 0
2, 3936, Note_on_c, 0, 60, 93
2, 3984, Note_off_c, 0, 60, 0
2, 3984, Note_on_c, 0, 57, 93
2, 4032, Note_off_c, 0, 57, 0
2, 4032, Note_on_c, 0, 55, 93
2, 4128, Note_off_c, 0, 55, 0
2, 4128, Note_on_c, 0, 63, 93
2, 4176, Note_off_c, 0, 63, 0
2, 4176, Note_on_c, 0, 60, 93
2, 4224, Note_off_c, 0, 60, 0
2, 4224, Note_on_c, 0, 62, 93
2, 4320, Note_off_c, 0, 62, 0
2, 4320, Note_on_c, 0, 46, 93
2, 4416, Note_off_c, 0, 46, 0
2, 4416, Note_on_c, 0, 58, 93
2, 4464, Note_off_c, 0, 58, 0
2, 4464, Note_on_c, 0, 57, 93
2, 4512, Note_off_c, 0, 57, 0
2, 4512, Note_on_c, 0, 50, 93
2, 4608, Note_off_c, 0, 50, 0
2, 4608, Note_on_c, 0, 43, 93
2, 4800, Note_off_c, 0, 43, 0
2, 4800, Note_on_c, 0, 55, 93
2, 4896, Note_off_c, 0, 55, 0
2, 4896, Note_on_c, 0, 60, 93
2, 4992, Note_off_c, 0, 60, 0
2, 4992, Note_on_c, 0, 53, 93
2, 5088, Note_off_c, 0, 53, 0
2, 5088, Note_on_c, 0, 58, 93
2, 5136, Note_off_c, 0, 58, 0
2, 5136, Note_on_c, 0, 55, 93
2, 5184, Note_off_c, 0, 55, 0
2, 5184, Note_on_c, 0, 50, 93
2, 5280, Note_off_c, 0, 50, 0
2, 5280, Note_on_c, 0, 58, 93
2, 5328, Note_off_c, 0, 58, 0
2, 5328, Note_on_c, 0, 53, 93
2, 5376, Note_off_c, 0, 53, 0
2, 5376, Note_on_c, 0, 55, 93
2, 5472, Note_off_c, 0, 55, 0
2, 5472, Note_on_c, 0, 51, 93
2, 5520, Note_off_c, 0, 51, 0
2, 5520, Note_on_c, 0, 47, 93
2, 5568, Note_off_c, 0, 47, 0
2, 5568, Note_on_c, 0, 48, 93
2, 5664, Note_off_c, 0, 48, 0
2, 5664, Note_on_c, 0, 56, 93
2, 5712, Note_off_c, 0, 56, 0
2, 5712, Note_on_c, 0, 51, 93
2, 5760, Note_off_c, 0, 51, 0
2, 5760, Note_on_c, 0, 53, 93
2, 5856, Note_off_c, 0, 53, 0
2, 5856, Note_on_c, 0, 50, 93
2, 5904, Note_off_c, 0, 50, 0
2, 5904, Note_on_c, 0, 45, 93
2, 5952, Note_off_c, 0, 45, 0
2, 5952, Note_on_c, 0, 47, 93
2, 6000, Note_off_c, 0, 47, 0
2, 6000, Note_on_c, 0, 50, 93
2, 6048, Note_off_c, 0, 50, 0
2, 6048, Note_on_c, 0, 55, 93
2, 6144, Note_off_c, 0, 55, 0
2, 6144, Note_on_c, 0, 36, 93
2, 6240, Note_off_c, 0, 36, 0
2, 6240, Note_on_c, 0, 50, 93
2, 6288, Note_off_c, 0, 50, 0
2, 6288, Note_on_c, 0, 48, 93
2, 6336, Note_off_c, 0, 48, 0
2, 6336, Note_on_c, 0, 55, 93
2, 6384, Note_off_c, 0, 55, 0
2, 6384, Note_on_c, 0, 51, 93
2, 6432, Note_off_c, 0, 51, 0
2, 6432, Note_on_c, 0, 60, 93
2, 6480, Note_off_c, 0, 60, 0
2, 6480, Note_on_c, 0, 55, 93
2, 6528, Note_off_c, 0, 55, 0
2, 6528, Note_on_c, 0, 56, 93
2, 6576, Note_off_c, 0, 56, 0
2, 6576, Note_on_c, 0, 53, 93
2, 6624, Note_off_c, 0, 53, 0
2, 6624, Note_on_c, 0, 58, 93
2, 6672, Note_off_c, 0, 58, 0
2, 6672, Note_on_c, 0, 52, 93
2, 6720, Note_off_c, 0, 52, 0
2, 6720, Note_on_c, 0, 56, 93
2, 6768, Note_off_c, 0, 56, 0
2, 6768, Note_on_c, 0, 53, 93
2, 6816, Note_off_c, 0, 53, 0
2, 6816, Note_on_c, 0, 58, 93
2, 6864, Note_off_c, 0, 58, 0
2, 6864, Note_on_c, 0, 50, 93
2, 6912, Note_off_c, 0, 50, 0
2, 6912, Note_on_c, 0, 55, 93
2, 6960, Note_off_c, 0, 55, 0
2, 6960, Note_on_c, 0, 51, 93
2, 7008, Note_off_c, 0, 51, 0
2, 7008, Note_on_c, 0, 56, 93
2, 7056, Note_off_c, 0, 56, 0
2, 7056, Note_on_c, 0, 50, 93
2, 7104, Note_off_c, 0, 50, 0
2, 7104, Note_on_c, 0, 55, 93
2, 7152, Note_off_c, 0, 55, 0
2, 7152, Note_on_c, 0, 51, 93
2, 7200, Note_off_c, 0, 51, 0
2, 7200, Note_on_c, 0, 58, 93
2, 7248, Note_off_c, 0, 58, 0
2, 7248, Note_on_c, 0, 55, 93
2, 7296, Note_off_c, 0, 55, 0
2, 7296, Note_on_c, 0, 60, 93
2, 7344, Note_off_c, 0, 60, 0
2, 7344, Note_on_c, 0, 56, 93
2, 7392, Note_off_c, 0, 56, 0
2, 7392, Note_on_c, 0, 61, 93
2, 7440, Note_off_c, 0, 61, 0
2, 7440, Note_on_c, 0, 55, 93
2, 7488, Note_off_c, 0, 55, 0
2, 7488, Note_on_c, 0, 60, 93
2, 7536, Note_off_c, 0, 60, 0
2, 7536, Note_on_c, 0, 56, 93
2, 7584, Note_off_c, 0, 56, 0
2, 7584, Note_on_c, 0, 63, 93
2, 7632, Note_off_c, 0, 63, 0
2, 7632, Note_on_c, 0, 57, 93
2, 7680, Note_off_c, 0, 57, 0
2, 7680, Note_on_c, 0, 62, 93
2, 7728, Note_off_c, 0, 62, 0
2, 7728, Note_on_c, 0, 58, 93
2, 7776, Note_off_c, 0, 58, 0
2, 7776, Note_on_c, 0, 63, 93
2, 7824, Note_off_c, 0, 63, 0
2, 7824, Note_on_c, 0, 62, 93
2, 7872, Note_off_c, 0, 62, 0
2, 7872, Note_on_c, 0, 60, 93
2, 7920, Note_off_c, 0, 60, 0
2, 7920, Note_on_c, 0, 58, 93
2, 7968, Note_off_c, 0, 58, 0
2, 7968, Note_on_c, 0, 57, 93
2, 8016, Note_off_c, 0, 57, 0
2, 8016, Note_on_c, 0, 55, 93
2, 8064, Note_off_c, 0, 55, 0
2, 8064, Note_on_c, 0, 48, 93
2, 8160, Note_off_c, 0, 48, 0
2, 8160, Note_on_c, 0, 58, 93
2, 8208, Note_off_c, 0, 58, 0
2, 8208, Note_on_c, 0, 55, 93
2, 8256, Note_off_c, 0, 55, 0
2, 8256, Note_on_c, 0, 51, 93
2, 8352, Note_off_c, 0, 51, 0
2, 8352, Note_on_c, 0, 60, 93
2, 8400, Note_off_c, 0, 60, 0
2, 8400, Note_on_c, 0, 57, 93
2, 8448, Note_off_c, 0, 57, 0
2, 8448, Note_on_c, 0, 50, 93
2, 8544, Note_off_c, 0, 50, 0
2, 8544, Note_on_c, 0, 60, 93
2, 8592, Note_off_c, 0, 60, 0
2, 8592, Note_on_c, 0, 57, 93
2, 8640, Note_off_c, 0, 57, 0
2, 8640, Note_on_c, 0, 55, 93
2, 8736, Note_off_c, 0, 55, 0
2, 8736, Note_on_c, 0, 63, 93
2, 8784, Note_off_c, 0, 63, 0
2, 8784, Note_on_c, 0, 60, 93
2, 8832, Note_off_c, 0, 60, 0
2, 8832, Note_on_c, 0, 62, 93
2, 8928, Note_off_c, 0, 62, 0
2, 8928, Note_on_c, 0, 46, 93
2, 9024, Note_off_c, 0, 46, 0
2, 9024, Note_on_c, 0, 58, 93
2, 9072, Note_off_c, 0, 58, 0
2, 9072, Note_on_c, 0, 57, 93
2, 9120, Note_off_c, 0, 57, 0
2, 9120, Note_on_c, 0, 50, 93
2, 9216, Note_off_c, 0, 50, 0
2, 9216, Note_on_c, 0, 43, 93
2, 9408, Note_off_c, 0, 43, 0
2, 9408, Note_on_c, 0, 43, 93
2, 9504, Note_off_c, 0, 43, 0
2, 9504, Note_on_c, 0, 55, 93
2, 9600, Note_off_c, 0, 55, 0
2, 9600, Note_on_c, 0, 36, 93
2, 9696, Note_off_c, 0, 36, 0
2, 9696, Note_on_c, 0, 53, 93
2, 9744, Note_off_c, 0, 53, 0
2, 9744, Note_on_c, 0, 50, 93
2, 9792, Note_off_c, 0, 50, 0
2, 9792, Note_on_c, 0, 46, 93
2, 9888, Note_off_c, 0, 46, 0
2, 9888, Note_on_c, 0, 60, 93
2, 9936, Note_off_c, 0, 60, 0
2, 9936, Note_on_c, 0, 52, 93
2, 9984, Note_off_c, 0, 52, 0
2, 9984, Note_on_c, 0, 44, 93
2, 10080, Note_off_c, 0, 44, 0
2, 10080, Note_on_c, 0, 55, 93
2, 10128, Note_off_c, 0, 55, 0
2, 10128, Note_on_c, 0, 52, 93
2, 10176, Note_off_c, 0, 52, 0
2, 10176, Note_on_c, 0, 53, 93
2, 10272, Note_off_c, 0, 53, 0
2, 10272, Note_on_c, 0, 60, 93
2, 10320, Note_off_c, 0, 60, 0
2, 10320, Note_on_c, 0, 53, 93
2, 10368, Note_off_c, 0, 53, 0
2, 10368, Note_on_c, 0, 52, 93
2, 10464, Note_off_c, 0, 52, 0
2, 10464, Note_on_c, 0, 56, 93
2, 10512, Note_off_c, 0, 56, 0
2, 10512, Note_on_c, 0, 53, 93
2, 10560, Note_off_c, 0, 53, 0
2, 10560, Note_on_c, 0, 36, 93
2, 10656, Note_off_c, 0, 36, 0
2, 10656, Note_on_c, 0, 60, 93
2, 10704, Note_off_c, 0, 60, 0
2, 10704, Note_on_c, 0, 55, 93
2, 10752, Note_off_c, 0, 55, 0
2, 10752, Note_on_c, 0, 58, 93
2, 10800, Note_off_c, 0, 58, 0
2, 10800, Note_on_c, 0, 56, 93
2, 10848, Note_off_c, 0, 56, 0
2, 10848, Note_on_c, 0, 55, 93
2, 10896, Note_off_c, 0, 55, 0
2, 10896, Note_on_c, 0, 53, 93
2, 10944, Note_off_c, 0, 53, 0
2, 10944, Note_on_c, 0, 56, 93
2, 10992, Note_off_c, 0, 56, 0
2, 10992, Note_on_c, 0, 55, 93
2, 11040, Note_off_c, 0, 55, 0
2, 11040, Note_on_c, 0, 53, 93
2, 11088, Note_off_c, 0, 53, 0
2, 11088, Note_on_c, 0, 51, 93
2, 11136, Note_off_c, 0, 51, 0
2, 11136, Note_on_c, 0, 50, 93
2, 11184, Note_off_c, 0, 50, 0
2, 11184, Note_on_c, 0, 44, 93
2, 11232, Note_off_c, 0, 44, 0
2, 11232, Note_on_c, 0, 51, 93
2, 11280, Note_off_c, 0, 51, 0
2, 11280, Note_on_c, 0, 48, 93
2, 11328, Note_off_c, 0, 48, 0
2, 11328, Note_on_c, 0, 50, 93
2, 11376, Note_off_c, 0, 50, 0
2, 11376, Note_on_c, 0, 44, 93
2, 11424, Note_off_c, 0, 44, 0
2, 11424, Note_on_c, 0, 58, 93
2, 11472, Note_off_c, 0, 58, 0
2, 11472, Note_on_c, 0, 50, 93
2, 11520, Note_off_c, 0, 50, 0
2, 11520, Note_on_c, 0, 51, 93
2, 11568, Note_off_c, 0, 51, 0
2, 11568, Note_on_c, 0, 43, 93
2, 11616, Note_off_c, 0, 43, 0
2, 11616, Note_on_c, 0, 53, 93
2, 11664, Note_off_c, 0, 53, 0
2, 11664, Note_on_c, 0, 50, 93
2, 11712, Note_off_c, 0, 50, 0
2, 11712, Note_on_c, 0, 51, 93
2, 11760, Note_off_c, 0, 51, 0
2, 11760, Note_on_c, 0, 43, 93
2, 11808, Note_off_c, 0, 43, 0
2, 11808, Note_on_c, 0, 58, 93
2, 11856, Note_off_c, 0, 58, 0
2, 11856, Note_on_c, 0, 51, 93
2, 11904, Note_off_c, 0, 51, 0
2, 11904, Note_on_c, 0, 53, 93
2, 11952, Note_off_c, 0, 53, 0
2, 11952, Note_on_c, 0, 46, 93
2, 12000, Note_off_c, 0, 46, 0
2, 12000, Note_on_c, 0, 55, 93
2, 12048, Note_off_c, 0, 55, 0
2, 12048, Note_on_c, 0, 51, 93
2, 12096, Note_off_c, 0, 51, 0
2, 12096, Note_on_c, 0, 53, 93
2, 12144, Note_off_c, 0, 53, 0
2, 12144, Note_on_c, 0, 46, 93
2, 12192, Note_off_c, 0, 46, 0
2, 12192, Note_on_c, 0, 58, 93
2, 12240, Note_off_c, 0, 58, 0
2, 12240, Note_on_c, 0, 53, 93
2, 12288, Note_off_c, 0, 53, 0
2, 12288, Note_on_c, 0, 56, 93
2, 12336, Note_off_c, 0, 56, 0
2, 12336, Note_on_c, 0, 55, 93
2, 12384, Note_off_c, 0, 55, 0
2, 12384, Note_on_c, 0, 53, 93
2, 12432, Note_off_c, 0, 53, 0
2, 12432, Note_on_c, 0, 51, 93
2, 12480, Note_off_c, 0, 51, 0
2, 12480, Note_on_c, 0, 56, 93
2, 12576, Note_off_c, 0, 56, 0
2, 12576, Note_on_c, 0, 46, 93
2, 12672, Note_off_c, 0, 46, 0
2, 12672, Note_on_c, 0, 53, 93
2, 12720, Note_off_c, 0, 53, 0
2, 12720, Note_on_c, 0, 51, 93
2, 12768, Note_off_c, 0, 51, 0
2, 12768, Note_on_c, 0, 53, 93
2, 12816, Note_off_c, 0, 53, 0
2, 12816, Note_on_c, 0, 50, 93
2, 12864, Note_off_c, 0, 50, 0
2, 12864, Note_on_c, 0, 60, 93
2, 12960, Note_off_c, 0, 60, 0
2, 12960, Note_on_c, 0, 58, 93
2, 13056, Note_off_c, 0, 58, 0
2, 13056, Note_on_c, 0, 51, 93
2, 13104, Note_off_c, 0, 51, 0
2, 13104, Note_on_c, 0, 50, 93
2, 13152, Note_off_c, 0, 50, 0
2, 13152, Note_on_c, 0, 51, 93
2, 13200, Note_off_c, 0, 51, 0
2, 13200, Note_on_c, 0, 48, 93
2, 13248, Note_off_c, 0, 48, 0
2, 13248, Note_on_c, 0, 50, 93
2, 13344, Note_off_c, 0, 50, 0
2, 13344, Note_on_c, 0, 56, 93
2, 13440, Note_off_c, 0, 56, 0
2, 13440, Note_on_c, 0, 51, 93
2, 13488, Note_off_c, 0, 51, 0
2, 13488, Note_on_c, 0, 53, 93
2, 13536, Note_off_c, 0, 53, 0
2, 13536, Note_on_c, 0, 55, 93
2, 13584, Note_off_c, 0, 55, 0
2, 13584, Note_on_c, 0, 51, 93
2, 13632, Note_off_c, 0, 51, 0
2, 13632, Note_on_c, 0, 46, 93
2, 13680, Note_off_c, 0, 46, 0
2, 13680, Note_on_c, 0, 53, 93
2, 13728, Note_off_c, 0, 53, 0
2, 13728, Note_on_c, 0, 51, 93
2, 13776, Note_off_c, 0, 51, 0
2, 13776, Note_on_c, 0, 50, 93
2, 13824, Note_off_c, 0, 50, 0
2, 13824, Note_on_c, 0, 51, 93
2, 14016, Note_off_c, 0, 51, 0
2, 14016, Note_on_c, 0, 39, 93
2, 14112, Note_off_c, 0, 39, 0
2, 14112, Note_on_c, 0, 51, 93
2, 14208, Note_off_c, 0, 51, 0
2, 14208, Note_on_c, 0, 58, 93
2, 14304, Note_off_c, 0, 58, 0
2, 14304, Note_on_c, 0, 60, 93
2, 14352, Note_off_c, 0, 60, 0
2, 14352, Note_on_c, 0, 57, 93
2, 14400, Note_off_c, 0, 57, 0
2, 14400, Note_on_c, 0, 58, 93
2, 14496, Note_off_c, 0, 58, 0
2, 14496, Note_on_c, 0, 60, 93
2, 14544, Note_off_c, 0, 60, 0
2, 14544, Note_on_c, 0, 55, 93
2, 14592, Note_off_c, 0, 55, 0
2, 14592, Note_on_c, 0, 58, 93
2, 14640, Note_off_c, 0, 58, 0
2, 14640, Note_on_c, 0, 57, 93
2, 14688, Note_off_c, 0, 57, 0
2, 14688, Note_on_c, 0, 55, 93
2, 14736, Note_off_c, 0, 55, 0
2, 14736, Note_on_c, 0, 53, 93
2, 14784, Note_off_c, 0, 53, 0
2, 14784, Note_on_c, 0, 57, 93
2, 14832, Note_off_c, 0, 57, 0
2, 14832, Note_on_c, 0, 55, 93
2, 14880, Note_off_c, 0, 55, 0
2, 14880, Note_on_c, 0, 59, 93
2, 14928, Note_off_c, 0, 59, 0
2, 14928, Note_on_c, 0, 57, 93
2, 14976, Note_off_c, 0, 57, 0
2, 14976, Note_on_c, 0, 60, 93
2, 15024, Note_off_c, 0, 60, 0
2, 15024, Note_on_c, 0, 59, 93
2, 15072, Note_off_c, 0, 59, 0
2, 15072, Note_on_c, 0, 62, 93
2, 15120, Note_off_c, 0, 62, 0
2, 15120, Note_on_c, 0, 59, 93
2, 15168, Note_off_c, 0, 59, 0
2, 15168, Note_on_c, 0, 60, 93
2, 15216, Note_off_c, 0, 60, 0
2, 15216, Note_on_c, 0, 51, 93
2, 15264, Note_off_c, 0, 51, 0
2, 15264, Note_on_c, 0, 50, 93
2, 15312, Note_off_c, 0, 50, 0
2, 15312, Note_on_c, 0, 48, 93
2, 15360, Note_off_c, 0, 48, 0
2, 15360, Note_on_c, 0, 43, 93
2, 15408, Note_off_c, 0, 43, 0
2, 15408, Note_on_c, 0, 50, 93
2, 15456, Note_off_c, 0, 50, 0
2, 15456, Note_on_c, 0, 60, 93
2, 15504, Note_off_c, 0, 60, 0
2, 15504, Note_on_c, 0, 59, 93
2, 15552, Note_off_c, 0, 59, 0
2, 15552, Note_on_c, 0, 63, 93
2, 15600, Note_off_c, 0, 63, 0
2, 15600, Note_on_c, 0, 55, 93
2, 15648, Note_off_c, 0, 55, 0
2, 15648, Note_on_c, 0, 56, 93
2, 15696, Note_off_c, 0, 56, 0
2, 15696, Note_on_c, 0, 53, 93
2, 15744, Note_off_c, 0, 53, 0
2, 15744, Note_on_c, 0, 62, 93
2, 15792, Note_off_c, 0, 62, 0
2, 15792, Note_on_c, 0, 53, 93
2, 15840, Note_off_c, 0, 53, 0
2, 15840, Note_on_c, 0, 55, 93
2, 15888, Note_off_c, 0, 55, 0
2, 15888, Note_on_c, 0, 51, 93
2, 15936, Note_off_c, 0, 51, 0
2, 15936, Note_on_c, 0, 60, 93
2, 15984, Note_off_c, 0, 60, 0
2, 15984, Note_on_c, 0, 51, 93
2, 16032, Note_off_c, 0, 51, 0
2, 16032, Note_on_c, 0, 53, 93
2, 16080, Note_off_c, 0, 53, 0
2, 16080, Note_on_c, 0, 50, 93
2, 16128, Note_off_c, 0, 50, 0
2, 16128, Note_on_c, 0, 43, 93
2, 16320, Note_off_c, 0, 43, 0
2, 16320, Note_on_c, 0, 60, 93
2, 16368, Note_off_c, 0, 60, 0
2, 16368, Note_on_c, 0, 51, 93
2, 16416, Note_off_c, 0, 51, 0
2, 16416, Note_on_c, 0, 53, 93
2, 16464, Note_off_c, 0, 53, 0
2, 16464, Note_on_c, 0, 50, 93
2, 16512, Note_off_c, 0, 50, 0
2, 16512, Note_on_c, 0, 58, 93
2, 16560, Note_off_c, 0, 58, 0
2, 16560, Note_on_c, 0, 50, 93
2, 16608, Note_off_c, 0, 50, 0
2, 16608, Note_on_c, 0, 51, 93
2, 16656, Note_off_c, 0, 51, 0
2, 16656, Note_on_c, 0, 48, 93
2, 16704, Note_off_c, 0, 48, 0
2, 16704, Note_on_c, 0, 56, 93
2, 16752, Note_off_c, 0, 56, 0
2, 16752, Note_on_c, 0, 48, 93
2, 16800, Note_off_c, 0, 48, 0
2, 16800, Note_on_c, 0, 50, 93
2, 16848, Note_off_c, 0, 50, 0
2, 16848, Note_on_c, 0, 47, 93
2, 16896, Note_off_c, 0, 47, 0
2, 16896, Note_on_c, 0, 55, 93
2, 16944, Note_off_c, 0, 55, 0
2, 16944, Note_on_c, 0, 53, 93
2, 16992, Note_off_c, 0, 53, 0
2, 16992, Note_on_c, 0, 51, 93
2, 17040, Note_off_c, 0, 51, 0
2, 17040, Note_on_c, 0, 50, 93
2, 17088, Note_off_c, 0, 50, 0
2, 17088, Note_on_c, 0, 39, 93
2, 17184, Note_off_c, 0, 39, 0
2, 17184, Note_on_c, 0, 51, 93
2, 17232, Note_off_c, 0, 51, 0
2, 17232, Note_on_c, 0, 48, 93
2, 17280, Note_off_c, 0, 48, 0
2, 17280, Note_on_c, 0, 50, 93
2, 17376, Note_off_c, 0, 50, 0
2, 17376, Note_on_c, 0, 51, 93
2, 17424, Note_off_c, 0, 51, 0
2, 17424, Note_on_c, 0, 48, 93
2, 17472, Note_off_c, 0, 48, 0
2, 17472, Note_on_c, 0, 50, 93
2, 17568, Note_off_c, 0, 50, 0
2, 17568, Note_on_c, 0, 53, 93
2, 17616, Note_off_c, 0, 53, 0
2, 17616, Note_on_c, 0, 50, 93
2, 17664, Note_off_c, 0, 50, 0
2, 17664, Note_on_c, 0, 43, 93
2, 17760, Note_off_c, 0, 43, 0
2, 17760, Note_on_c, 0, 53, 93
2, 17808, Note_off_c, 0, 53, 0
2, 17808, Note_on_c, 0, 50, 93
2, 17856, Note_off_c, 0, 50, 0
2, 17856, Note_on_c, 0, 51, 93
2, 17952, Note_off_c, 0, 51, 0
2, 17952, Note_on_c, 0, 56, 93
2, 18000, Note_off_c, 0, 56, 0
2, 18000, Note_on_c, 0, 53, 93
2, 18048, Note_off_c, 0, 53, 0
2, 18048, Note_on_c, 0, 55, 93
2, 18144, Note_off_c, 0, 55, 0
2, 18144, Note_on_c, 0, 39, 93
2, 18240, Note_off_c, 0, 39, 0
2, 18240, Note_on_c, 0, 48, 93
2, 18288, Note_off_c, 0, 48, 0
2, 18288, Note_on_c, 0, 50, 93
2, 18336, Note_off_c, 0, 50, 0
2, 18336, Note_on_c, 0, 43, 93
2, 18384, Note_off_c, 0, 43, 0
2, 18384, Note_on_c, 0, 47, 93
2, 18432, Note_off_c, 0, 47, 0
2, 18432, Note_on_c, 0, 48, 93
2, 18624, Note_off_c, 0, 48, 0
2, 18624, Note_on_c, 0, 43, 93
2, 18720, Note_off_c, 0, 43, 0
2, 18720, Note_on_c, 0, 55, 93
2, 18816, Note_off_c, 0, 55, 0
2, 18816, Note_on_c, 0, 36, 93
2, 18912, Note_off_c, 0, 36, 0
2, 18912, Note_on_c, 0, 53, 93
2, 18960, Note_off_c, 0, 53, 0
2, 18960, Note_on_c, 0, 50, 93
2, 19008, Note_off_c, 0, 50, 0
2, 19008, Note_on_c, 0, 46, 93
2, 19104, Note_off_c, 0, 46, 0
2, 19104, Note_on_c, 0, 60, 93
2, 19152, Note_off_c, 0, 60, 0
2, 19152, Note_on_c, 0, 52, 93
2, 19200, Note_off_c, 0, 52, 0
2, 19200, Note_on_c, 0, 44, 93
2, 19296, Note_off_c, 0, 44, 0
2, 19296, Note_on_c, 0, 55, 93
2, 19344, Note_off_c, 0, 55, 0
2, 19344, Note_on_c, 0, 52, 93
2, 19392, Note_off_c, 0, 52, 0
2, 19392, Note_on_c, 0, 53, 93
2, 19488, Note_off_c, 0, 53, 0
2, 19488, Note_on_c, 0, 60, 93
2, 19536, Note_off_c, 0, 60, 0
2, 19536, Note_on_c, 0, 53, 93
2, 19584, Note_off_c, 0, 53, 0
2, 19584, Note_on_c, 0, 52, 93
2, 19680, Note_off_c, 0, 52, 0
2, 19680, Note_on_c, 0, 56, 93
2, 19728, Note_off_c, 0, 56, 0
2, 19728, Note_on_c, 0, 53, 93
2, 19776, Note_off_c, 0, 53, 0
2, 19776, Note_on_c, 0, 36, 93
2, 19872, Note_off_c, 0, 36, 0
2, 19872, Note_on_c, 0, 60, 93
2, 19920, Note_off_c, 0, 60, 0
2, 19920, Note_on_c, 0, 55, 93
2, 19968, Note_off_c, 0, 55, 0
2, 19968, Note_on_c, 0, 58, 93
2, 20016, Note_off_c, 0, 58, 0
2, 20016, Note_on_c, 0, 56, 93
2, 20064, Note_off_c, 0, 56, 0
2, 20064, Note_on_c, 0, 55, 93
2, 20112, Note_off_c, 0, 55, 0
2, 20112, Note_on_c, 0, 53, 93
2, 20160, Note_off_c, 0, 53, 0
2, 20160, Note_on_c, 0, 56, 93
2, 20208, Note_off_c, 0, 56, 0
2, 20208, Note_on_c, 0, 55, 93
2, 20256, Note_off_c, 0, 55, 0
2, 20256, Note_on_c, 0, 53, 93
2, 20304, Note_off_c, 0, 53, 0
2, 20304, Note_on_c, 0, 51, 93
2, 20352, Note_off_c, 0, 51, 0
2, 20352, Note_on_c, 0, 50, 93
2, 20400, Note_off_c, 0, 50, 0
2, 20400, Note_on_c, 0, 44, 93
2, 20448, Note_off_c, 0, 44, 0
2, 20448, Note_on_c, 0, 51, 93
2, 20496, Note_off_c, 0, 51, 0
2, 20496, Note_on_c, 0, 48, 93
2, 20544, Note_off_c, 0, 48, 0
2, 20544, Note_on_c, 0, 50, 93
2, 20592, Note_off_c, 0, 50, 0
2, 20592, Note_on_c, 0, 44, 93
2, 20640, Note_off_c, 0, 44, 0
2, 20640, Note_on_c, 0, 58, 93
2, 20688, Note_off_c, 0, 58, 0
2, 20688, Note_on_c, 0, 50, 93
2, 20736, Note_off_c, 0, 50, 0
2, 20736, Note_on_c, 0, 51, 93
2, 20784, Note_off_c, 0, 51, 0
2, 20784, Note_on_c, 0, 43, 93
2, 20832, Note_off_c, 0, 43, 0
2, 20832, Note_on_c, 0, 53, 93
2, 20880, Note_off_c, 0, 53, 0
2, 20880, Note_on_c, 0, 50, 93
2, 20928, Note_off_c, 0, 50, 0
2, 20928, Note_on_c, 0, 51, 93
2, 20976, Note_off_c, 0, 51, 0
2, 20976, Note_on_c, 0, 43, 93
2, 21024, Note_off_c, 0, 43, 0
2, 21024, Note_on_c, 0, 58, 93
2, 21072, Note_off_c, 0, 58, 0
2, 21072, Note_on_c, 0, 51, 93
2, 21120, Note_off_c, 0, 51, 0
2, 21120, Note_on_c, 0, 53, 93
2, 21168, Note_off_c, 0, 53, 0
2, 21168, Note_on_c, 0, 46, 93
2, 21216, Note_off_c, 0, 46, 0
2, 21216, Note_on_c, 0, 55, 93
2, 21264, Note_off_c, 0, 55, 0
2, 21264, Note_on_c, 0, 51, 93
2, 21312, Note_off_c, 0, 51, 0
2, 21312, Note_on_c, 0, 53, 93
2, 21360, Note_off_c, 0, 53, 0
2, 21360, Note_on_c, 0, 46, 93
2, 21408, Note_off_c, 0, 46, 0
2, 21408, Note_on_c, 0, 58, 93
2, 21456, Note_off_c, 0, 58, 0
2, 21456, Note_on_c, 0, 53, 93
2, 21504, Note_off_c, 0, 53, 0
2, 21504, Note_on_c, 0, 56, 93
2, 21552, Note_off_c, 0, 56, 0
2, 21552, Note_on_c, 0, 55, 93
2, 21600, Note_off_c, 0, 55, 0
2, 21600, Note_on_c, 0, 53, 93
2, 21648, Note_off_c, 0, 53, 0
2, 21648, Note_on_c, 0, 51, 93
2, 21696, Note_off_c, 0, 51, 0
2, 21696, Note_on_c, 0, 56, 93
2, 21792, Note_off_c, 0, 56, 0
2, 21792, Note_on_c, 0, 46, 93
2, 21888, Note_off_c, 0, 46, 0
2, 21888, Note_on_c, 0, 53, 93
2, 21936, Note_off_c, 0, 53, 0
2, 21936, Note_on_c, 0, 51, 93
2, 21984, Note_off_c, 0, 51, 0
2, 21984, Note_on_c, 0, 53, 93
2, 22032, Note_off_c, 0, 53, 0
2, 22032, Note_on_c, 0, 50, 93
2, 22080, Note_off_c, 0, 50, 0
2, 22080, Note_on_c, 0, 60, 93
2, 22176, Note_off_c, 0, 60, 0
2, 22176, Note_on_c, 0, 58, 93
2, 22272, Note_off_c, 0, 58, 0
2, 22272, Note_on_c, 0, 51, 93
2, 22320, Note_off_c, 0, 51, 0
2, 22320, Note_on_c, 0, 50, 93
2, 22368, Note_off_c, 0, 50, 0
2, 22368, Note_on_c, 0, 51, 93
2, 22416, Note_off_c, 0, 51, 0
2, 22416, Note_on_c, 0, 48, 93
2, 22464, Note_off_c, 0, 48, 0
2, 22464, Note_on_c, 0, 50, 93
2, 22560, Note_off_c, 0, 50, 0
2, 22560, Note_on_c, 0, 56, 93
2, 22656, Note_off_c, 0, 56, 0
2, 22656, Note_on_c, 0, 51, 93
2, 22704, Note_off_c, 0, 51, 0
2, 22704, Note_on_c, 0, 53, 93
2, 22752, Note_off_c, 0, 53, 0
2, 22752, Note_on_c, 0, 55, 93
2, 22800, Note_off_c, 0, 55, 0
2, 22800, Note_on_c, 0, 51, 93
2, 22848, Note_off_c, 0, 51, 0
2, 22848, Note_on_c, 0, 46, 93
2, 22896, Note_off_c, 0, 46, 0
2, 22896, Note_on_c, 0, 53, 93
2, 22944, Note_off_c, 0, 53, 0
2, 22944, Note_on_c, 0, 51, 93
2, 22992, Note_off_c, 0, 51, 0
2, 22992, Note_on_c, 0, 50, 93
2, 23040, Note_off_c, 0, 50, 0
2, 23040, Note_on_c, 0, 51, 93
2, 23232, Note_off_c, 0, 51, 0
2, 23232, Note_on_c, 0, 39, 93
2, 23328, Note_off_c, 0, 39, 0
2, 23328, Note_on_c, 0, 51, 93
2, 23424, Note_off_c, 0, 51, 0
2, 23424, Note_on_c, 0, 58, 93
2, 23520, Note_off_c, 0, 58, 0
2, 23520, Note_on_c, 0, 60, 93
2, 23568, Note_off_c, 0, 60, 0
2, 23568, Note_on_c, 0, 57, 93
2, 23616, Note_off_c, 0, 57, 0
2, 23616, Note_on_c, 0, 58, 93
2, 23712, Note_off_c, 0, 58, 0
2, 23712, Note_on_c, 0, 60, 93
2, 23760, Note_off_c, 0, 60, 0
2, 23760, Note_on_c, 0, 55, 93
2, 23808, Note_off_c, 0, 55, 0
2, 23808, Note_on_c, 0, 58, 93
2, 23856, Note_off_c, 0, 58, 0
2, 23856, Note_on_c, 0, 57, 93
2, 23904, Note_off_c, 0, 57, 0
2, 23904, Note_on_c, 0, 55, 93
2, 23952, Note_off_c, 0, 55, 0
2, 23952, Note_on_c, 0, 53, 93
2, 24000, Note_off_c, 0, 53, 0
2, 24000, Note_on_c, 0, 57, 93
2, 24048, Note_off_c, 0, 57, 0
2, 24048, Note_on_c, 0, 55, 93
2, 24096, Note_off_c, 0, 55, 0
2, 24096, Note_on_c, 0, 59, 93
2, 24144, Note_off_c, 0, 59, 0
2, 24144, Note_on_c, 0, 57, 93
2, 24192, Note_off_c, 0, 57, 0
2, 24192, Note_on_c, 0, 60, 93
2, 24240, Note_off_c, 0, 60, 0
2, 24240, Note_on_c, 0, 59, 93
2, 24288, Note_off_c, 0, 59, 0
2, 24288, Note_on_c, 0, 62, 93
2, 24336, Note_off_c, 0, 62, 0
2, 24336, Note_on_c, 0, 59, 93
2, 24384, Note_off_c, 0, 59, 0
2, 24384, Note_on_c, 0, 60, 93
2, 24432, Note_off_c, 0, 60, 0
2, 24432, Note_on_c, 0, 51, 93
2, 24480, Note_off_c, 0, 51, 0
2, 24480, Note_on_c, 0, 50, 93
2, 24528, Note_off_c, 0, 50, 0
2, 24528, Note_on_c, 0, 48, 93
2, 24576, Note_off_c, 0, 48, 0
2, 24576, Note_on_c, 0, 43, 93
2, 24624, Note_off_c, 0, 43, 0
2, 24624, Note_on_c, 0, 50, 93
2, 24672, Note_off_c, 0, 50, 0
2, 24672, Note_on_c, 0, 60, 93
2, 24720, Note_off_c, 0, 60, 0
2, 24720, Note_on_c, 0, 59, 93
2, 24768, Note_off_c, 0, 59, 0
2, 24768, Note_on_c, 0, 63, 93
2, 24816, Note_off_c, 0, 63, 0
2, 24816, Note_on_c, 0, 55, 93
2, 24864, Note_off_c, 0, 55, 0
2, 24864, Note_on_c, 0, 56, 93
2, 24912, Note_off_c, 0, 56, 0
2, 24912, Note_on_c, 0, 53, 93
2, 24960, Note_off_c, 0, 53, 0
2, 24960, Note_on_c, 0, 62, 93
2, 25008, Note_off_c, 0, 62, 0
2, 25008, Note_on_c, 0, 53, 93
2, 25056, Note_off_c, 0, 53, 0
2, 25056, Note_on_c, 0, 55, 93
2, 25104, Note_off_c, 0, 55, 0
2, 25104, Note_on_c, 0, 51, 93
2, 25152, Note_off_c, 0, 51, 0
2, 25152, Note_on_c, 0, 60, 93
2, 25200, Note_off_c, 0, 60, 0
2, 25200, Note_on_c, 0, 51, 93
2, 25248, Note_off_c, 0, 51, 0
2, 25248, Note_on_c, 0, 53, 93
2, 25296, Note_off_c, 0, 53, 0
2, 25296, Note_on_c, 0, 50, 93
2, 25344, Note_off_c, 0, 50, 0
2, 25344, Note_on_c, 0, 43, 93
2, 25536, Note_off_c, 0, 43, 0
2, 25536, Note_on_c, 0, 60, 93
2, 25584, Note_off_c, 0, 60, 0
2, 25584, Note_on_c, 0, 51, 93
2, 25632, Note_off_c, 0, 51, 0
2, 25632, Note_on_c, 0, 53, 93
2, 25680, Note_off_c, 0, 53, 0
2, 25680, Note_on_c, 0, 50, 93
2, 25728, Note_off_c, 0, 50, 0
2, 25728, Note_on_c, 0, 58, 93
2, 25776, Note_off_c, 0, 58, 0
2, 25776, Note_on_c, 0, 50, 93
2, 25824, Note_off_c, 0, 50, 0
2, 25824, Note_on_c, 0, 51, 93
2, 25872, Note_off_c, 0, 51, 0
2, 25872, Note_on_c, 0, 48, 93
2, 25920, Note_off_c, 0, 48, 0
2, 25920, Note_on_c, 0, 56, 93
2, 25968, Note_off_c, 0, 56, 0
2, 25968, Note_on_c, 0, 48, 93
2, 26016, Note_off_c, 0, 48, 0
2, 26016, Note_on_c, 0, 50, 93
2, 26064, Note_off_c, 0, 50, 0
2, 26064, Note_on_c, 0, 47, 93
2, 26112, Note_off_c, 0, 47, 0
2, 26112, Note_on_c, 0, 55, 93
2, 26160, Note_off_c, 0, 55, 0
2, 26160, Note_on_c, 0, 53, 93
2, 26208, Note_off_c, 0, 53, 0
2, 26208, Note_on_c, 0, 51, 93
2, 26256, Note_off_c, 0, 51, 0
2, 26256, Note_on_c, 0, 50, 93
2, 26304, Note_off_c, 0, 50, 0
2, 26304, Note_on_c, 0, 39, 93
2, 26400, Note_off_c, 0, 39, 0
2, 26400, Note_on_c, 0, 51, 93
2, 26448, Note_off_c, 0, 51, 0
2, 26448, Note_on_c, 0, 48, 93
2, 26496, Note_off_c, 0, 48, 0
2, 26496, Note_on_c, 0, 50, 93
2, 26592, Note_off_c, 0, 50, 0
2, 26592, Note_on_c, 0, 51, 93
2, 26640, Note_off_c, 0, 51, 0
2, 26640, Note_on_c, 0, 48, 93
2, 26688, Note_off_c, 0, 48, 0
2, 26688, Note_on_c, 0, 50, 93
2, 26784, Note_off_c, 0, 50, 0
2, 26784, Note_on_c, 0, 53, 93
2, 26832, Note_off_c, 0, 53, 0
2, 26832, Note_on_c, 0, 50, 93
2, 26880, Note_off_c, 0, 50, 0
2, 26880, Note_on_c, 0, 43, 93
2, 26976, Note_off_c, 0, 43, 0
2, 26976, Note_on_c, 0, 53, 93
2, 27024, Note_off_c, 0, 53, 0
2, 27024, Note_on_c, 0, 50, 93
2, 27072, Note_off_c, 0, 50, 0
2, 27072, Note_on_c, 0, 51, 93
2, 27168, Note_off_c, 0, 51, 0
2, 27168, Note_on_c, 0, 56, 93
2, 27216, Note_off_c, 0, 56, 0
2, 27216, Note_on_c, 0, 53, 93
2, 27264, Note_off_c, 0, 53, 0
2, 27264, Note_on_c, 0, 55, 93
2, 27360, Note_off_c, 0, 55, 0
2, 27360, Note_on_c, 0, 39, 93
2, 27456, Note_off_c, 0, 39, 0
2, 27456, Note_on_c, 0, 48, 93
2, 27504, Note_off_c, 0, 48, 0
2, 27504, Note_on_c, 0, 50, 93
2, 27552, Note_off_c, 0, 50, 0
2, 27552, Note_on_c, 0, 43, 93
2, 27600, Note_off_c, 0, 43, 0
2, 27600, Note_on_c, 0, 47, 93
2, 27648, Note_off_c, 0, 47, 0
2, 27648, Note_on_c, 0, 48, 93
2, 27840, Note_off_c, 0, 48, 0
2, 27840, Note_on_c, 0, 55, 93
2, 27870, Note_off_c, 0, 55, 0
2, 27870, Note_on_c, 0, 53, 93
2, 27906, Note_off_c, 0, 53, 0
2, 27906, Note_on_c, 0, 55, 93
2, 27936, Note_off_c, 0, 55, 0
2, 27936, Note_on_c, 0, 56, 93
2, 27966, Note_off_c, 0, 56, 0
2, 27966, Note_on_c, 0, 55, 93
2, 28002, Note_off_c, 0, 55, 0
2, 28002, Note_on_c, 0, 53, 93
2, 28032, Note_off_c, 0, 53, 0
2, 28032, Note_on_c, 0, 55, 93
2, 28158, Note_off_c, 0, 55, 0
2, 28158, Note_on_c, 0, 53, 93
2, 28194, Note_off_c, 0, 53, 0
2, 28194, Note_on_c, 0, 51, 93
2, 28224, Note_off_c, 0, 51, 0
2, 28224, Note_on_c, 0, 50, 93
2, 28254, Note_off_c, 0, 50, 0
2, 28254, Note_on_c, 0, 51, 93
2, 28290, Note_off_c, 0, 51, 0
2, 28290, Note_on_c, 0, 53, 93
2, 28320, Note_off_c, 0, 53, 0
2, 28320, Note_on_c, 0, 51, 93
2, 28350, Note_off_c, 0, 51, 0
2, 28350, Note_on_c, 0, 50, 93
2, 28386, Note_off_c, 0, 50, 0
2, 28386, Note_on_c, 0, 48, 93
2, 28416, Note_off_c, 0, 48, 0
2, 28416, Note_on_c, 0, 47, 93
2, 28446, Note_off_c, 0, 47, 0
2, 28446, Note_on_c, 0, 48, 93
2, 28482, Note_off_c, 0, 48, 0
2, 28482, Note_on_c, 0, 50, 93
2, 28512, Note_off_c, 0, 50, 0
2, 28512, Note_on_c, 0, 43, 93
2, 28542, Note_off_c, 0, 43, 0
2, 28542, Note_on_c, 0, 47, 93
2, 28578, Note_off_c, 0, 47, 0
2, 28578, Note_on_c, 0, 50, 93
2, 28608, Note_off_c, 0, 50, 0
2, 28608, Note_on_c, 0, 55, 93
2, 28638, Note_off_c, 0, 55, 0
2, 28638, Note_on_c, 0, 53, 93
2, 28674, Note_off_c, 0, 53, 0
2, 28674, Note_on_c, 0, 55, 93
2, 28704, Note_off_c, 0, 55, 0
2, 28704, Note_on_c, 0, 56, 93
2, 28734, Note_off_c, 0, 56, 0
2, 28734, Note_on_c, 0, 55, 93
2, 28770, Note_off_c, 0, 55, 0
2, 28770, Note_on_c, 0, 53, 93
2, 28800, Note_off_c, 0, 53, 0
2, 28800, Note_on_c, 0, 55, 93
2, 28830, Note_off_c, 0, 55, 0
2, 28830, Note_on_c, 0, 53, 93
2, 28866, Note_off_c, 0, 53, 0
2, 28866, Note_on_c, 0, 51, 93
2, 28896, Note_off_c, 0, 51, 0
2, 28896, Note_on_c, 0, 50, 93
2, 28926, Note_off_c, 0, 50, 0
2, 28926, Note_on_c, 0, 51, 93
2, 28962, Note_off_c, 0, 51, 0
2, 28962, Note_on_c, 0, 53, 93
2, 28992, Note_off_c, 0, 53, 0
2, 28992, Note_on_c, 0, 51, 93
2, 29022, Note_off_c, 0, 51, 0
2, 29022, Note_on_c, 0, 50, 93
2, 29058, Note_off_c, 0, 50, 0
2, 29058, Note_on_c, 0, 48, 93
2, 29088, Note_off_c, 0, 48, 0
2, 29088, Note_on_c, 0, 47, 93
2, 29118, Note_off_c, 0, 47, 0
2, 29118, Note_on_c, 0, 48, 93
2, 29154, Note_off_c, 0, 48, 0
2, 29154, Note_on_c, 0, 50, 93
2, 29184, Note_off_c, 0, 50, 0
2, 29184, Note_on_c, 0, 48, 93
2, 29280, Note_off_c, 0, 48, 0
2, 29280, Note_on_c, 0, 36, 93
2, 29376, Note_off_c, 0, 36, 0
2, 29376, Note_on_c, 0, 55, 93
2, 29406, Note_off_c, 0, 55, 0
2, 29406, Note_on_c, 0, 53, 93
2, 29442, Note_off_c, 0, 53, 0
2, 29442, Note_on_c, 0, 55, 93
2, 29472, Note_off_c, 0, 55, 0
2, 29472, Note_on_c, 0, 56, 93
2, 29502, Note_off_c, 0, 56, 0
2, 29502, Note_on_c, 0, 55, 93
2, 29538, Note_off_c, 0, 55, 0
2, 29538, Note_on_c, 0, 53, 93
2, 29568, Note_off_c, 0, 53, 0
2, 29568, Note_on_c, 0, 55, 93
2, 29694, Note_off_c, 0, 55, 0
2, 29694, Note_on_c, 0, 53, 93
2, 29730, Note_off_c, 0, 53, 0
2, 29730, Note_on_c, 0, 51, 93
2, 29760, Note_off_c, 0, 51, 0
2, 29760, Note_on_c, 0, 50, 93
2, 29790, Note_off_c, 0, 50, 0
2, 29790, Note_on_c, 0, 51, 93
2, 29826, Note_off_c, 0, 51, 0
2, 29826, Note_on_c, 0, 53, 93
2, 29856, Note_off_c, 0, 53, 0
2, 29856, Note_on_c, 0, 51, 93
2, 29886, Note_off_c, 0, 51, 0
2, 29886, Note_on_c, 0, 50, 93
2, 29922, Note_off_c, 0, 50, 0
2, 29922, Note_on_c, 0, 48, 93
2, 29952, Note_off_c, 0, 48, 0
2, 29952, Note_on_c, 0, 47, 93
2, 29982, Note_off_c, 0, 47, 0
2, 29982, Note_on_c, 0, 48, 93
2, 30018, Note_off_c, 0, 48, 0
2, 30018, Note_on_c, 0, 50, 93
2, 30048, Note_off_c, 0, 50, 0
2, 30048, Note_on_c, 0, 43, 93
2, 30078, Note_off_c, 0, 43, 0
2, 30078, Note_on_c, 0, 47, 93
2, 30114, Note_off_c, 0, 47, 0
2, 30114, Note_on_c, 0, 50, 93
2, 30144, Note_off_c, 0, 50, 0
2, 30144, Note_on_c, 0, 55, 93
2, 30174, Note_off_c, 0, 55, 0
2, 30174, Note_on_c, 0, 53, 93
2, 30210, Note_off_c, 0, 53, 0
2, 30210, Note_on_c, 0, 55, 93
2, 30240, Note_off_c, 0, 55, 0
2, 30240, Note_on_c, 0, 56, 93
2, 30270, Note_off_c, 0, 56, 0
2, 30270, Note_on_c, 0, 55, 93
2, 30306, Note_off_c, 0, 55, 0
2, 30306, Note_on_c, 0, 53, 93
2, 30336, Note_off_c, 0, 53, 0
2, 30336, Note_on_c, 0, 55, 93
2, 30366, Note_off_c, 0, 55, 0
2, 30366, Note_on_c, 0, 53, 93
2, 30402, Note_off_c, 0, 53, 0
2, 30402, Note_on_c, 0, 51, 93
2, 30432, Note_off_c, 0, 51, 0
2, 30432, Note_on_c, 0, 50, 93
2, 30462, Note_off_c, 0, 50, 0
2, 30462, Note_on_c, 0, 51, 93
2, 30498, Note_off_c, 0, 51, 0
2, 30498, Note_on_c, 0, 53, 93
2, 30528, Note_off_c, 0, 53, 0
2, 30528, Note_on_c, 0, 51, 93
2, 30558, Note_off_c, 0, 51, 0
2, 30558, Note_on_c, 0, 50, 93
2, 30594, Note_off_c, 0, 50, 0
2, 30594, Note_on_c, 0, 48, 93
2, 30624, Note_off_c, 0, 48, 0
2, 30624, Note_on_c, 0, 47, 93
2, 30654, Note_off_c, 0, 47, 0
2, 30654, Note_on_c, 0, 48, 93
2, 30690, Note_off_c, 0, 48, 0
2, 30690, Note_on_c, 0, 50, 93
2, 30720, Note_off_c, 0, 50, 0
2, 30720, Note_on_c, 0, 48, 93
2, 30816, Note_off_c, 0, 48, 0
2, 30816, Note_on_c, 0, 36, 93
2, 30912, Note_off_c, 0, 36, 0
2, 30912, Note_on_c, 0, 51, 93
2, 30942, Note_off_c, 0, 51, 0
2, 30942, Note_on_c, 0, 50, 93
2, 30978, Note_off_c, 0, 50, 0
2, 30978, Note_on_c, 0, 51, 93
2, 31008, Note_off_c, 0, 51, 0
2, 31008, Note_on_c, 0, 53, 93
2, 31038, Note_off_c, 0, 53, 0
2, 31038, Note_on_c, 0, 51, 93
2, 31074, Note_off_c, 0, 51, 0
2, 31074, Note_on_c, 0, 50, 93
2, 31104, Note_off_c, 0, 50, 0
2, 31104, Note_on_c, 0, 51, 93
2, 31230, Note_off_c, 0, 51, 0
2, 31230, Note_on_c, 0, 53, 93
2, 31266, Note_off_c, 0, 53, 0
2, 31296, Note_on_c, 0, 56, 93
2, 31326, Note_off_c, 0, 56, 0
2, 31326, Note_on_c, 0, 55, 93
2, 31362, Note_off_c, 0, 55, 0
2, 31362, Note_on_c, 0, 53, 93
2, 31392, Note_off_c, 0, 53, 0
2, 31392, Note_on_c, 0, 55, 93
2, 31422, Note_off_c, 0, 55, 0
2, 31422, Note_on_c, 0, 53, 93
2, 31458, Note_off_c, 0, 53, 0
2, 31458, Note_on_c, 0, 51, 93
2, 31488, Note_off_c, 0, 51, 0
2, 31488, Note_on_c, 0, 50, 93
2, 31518, Note_off_c, 0, 50, 0
2, 31518, Note_on_c, 0, 51, 93
2, 31554, Note_off_c, 0, 51, 0
2, 31554, Note_on_c, 0, 53, 93
2, 31584, Note_off_c, 0, 53, 0
2, 31584, Note_on_c, 0, 46, 93
2, 31614, Note_off_c, 0, 46, 0
2, 31614, Note_on_c, 0, 50, 93
2, 31650, Note_off_c, 0, 50, 0
2, 31650, Note_on_c, 0, 53, 93
2, 31680, Note_off_c, 0, 53, 0
2, 31680, Note_on_c, 0, 58, 93
2, 31710, Note_off_c, 0, 58, 0
2, 31710, Note_on_c, 0, 57, 93
2, 31746, Note_off_c, 0, 57, 0
2, 31746, Note_on_c, 0, 58, 93
2, 31776, Note_off_c, 0, 58, 0
2, 31776, Note_on_c, 0, 60, 93
2, 31806, Note_off_c, 0, 60, 0
2, 31806, Note_on_c, 0, 58, 93
2, 31842, Note_off_c, 0, 58, 0
2, 31842, Note_on_c, 0, 57, 93
2, 31872, Note_off_c, 0, 57, 0
2, 31872, Note_on_c, 0, 58, 93
2, 31902, Note_off_c, 0, 58, 0
2, 31902, Note_on_c, 0, 57, 93
2, 31938, Note_off_c, 0, 57, 0
2, 31938, Note_on_c, 0, 55, 93
2, 31968, Note_off_c, 0, 55, 0
2, 31968, Note_on_c, 0, 63, 93
2, 31998, Note_off_c, 0, 63, 0
2, 31998, Note_on_c, 0, 62, 93
2, 32034, Note_off_c, 0, 62, 0
2, 32034, Note_on_c, 0, 60, 93
2, 32064, Note_off_c, 0, 60, 0
2, 32064, Note_on_c, 0, 58, 93
2, 32094, Note_off_c, 0, 58, 0
2, 32094, Note_on_c, 0, 57, 93
2, 32130, Note_off_c, 0, 57, 0
2, 32130, Note_on_c, 0, 55, 93
2, 32160, Note_off_c, 0, 55, 0
2, 32160, Note_on_c, 0, 54, 93
2, 32190, Note_off_c, 0, 54, 0
2, 32190, Note_on_c, 0, 55, 93
2, 32226, Note_off_c, 0, 55, 0
2, 32226, Note_on_c, 0, 57, 93
2, 32256, Note_off_c, 0, 57, 0
2, 32256, Note_on_c, 0, 55, 93
2, 32352, Note_off_c, 0, 55, 0
2, 32352, Note_on_c, 0, 43, 93
2, 32448, Note_off_c, 0, 43, 0
2, 32448, Note_on_c, 0, 55, 93
2, 32478, Note_off_c, 0, 55, 0
2, 32478, Note_on_c, 0, 53, 93
2, 32514, Note_off_c, 0, 53, 0
2, 32514, Note_on_c, 0, 55, 93
2, 32544, Note_off_c, 0, 55, 0
2, 32544, Note_on_c, 0, 56, 93
2, 32574, Note_off_c, 0, 56, 0
2, 32574, Note_on_c, 0, 55, 93
2, 32610, Note_off_c, 0, 55, 0
2, 32610, Note_on_c, 0, 53, 93
2, 32640, Note_off_c, 0, 53, 0
2, 32640, Note_on_c, 0, 55, 93
2, 32766, Note_off_c, 0, 55, 0
2, 32766, Note_on_c, 0, 53, 93
2, 32802, Note_off_c, 0, 53, 0
2, 32832, Note_on_c, 0, 50, 93
2, 32862, Note_off_c, 0, 50, 0
2, 32862, Note_on_c, 0, 51, 93
2, 32898, Note_off_c, 0, 51, 0
2, 32898, Note_on_c, 0, 53, 93
2, 32928, Note_off_c, 0, 53, 0
2, 32928, Note_on_c, 0, 51, 93
2, 32958, Note_off_c, 0, 51, 0
2, 32958, Note_on_c, 0, 50, 93
2, 32994, Note_off_c, 0, 50, 0
2, 32994, Note_on_c, 0, 48, 93
2, 33024, Note_off_c, 0, 48, 0
2, 33024, Note_on_c, 0, 47, 93
2, 33054, Note_off_c, 0, 47, 0
2, 33054, Note_on_c, 0, 48, 93
2, 33090, Note_off_c, 0, 48, 0
2, 33090, Note_on_c, 0, 50, 93
2, 33120, Note_off_c, 0, 50, 0
2, 33120, Note_on_c, 0, 43, 93
2, 33150, Note_off_c, 0, 43, 0
2, 33150, Note_on_c, 0, 47, 93
2, 33186, Note_off_c, 0, 47, 0
2, 33186, Note_on_c, 0, 50, 93
2, 33216, Note_off_c, 0, 50, 0
2, 33216, Note_on_c, 0, 55, 93
2, 33246, Note_off_c, 0, 55, 0
2, 33246, Note_on_c, 0, 53, 93
2, 33282, Note_off_c, 0, 53, 0
2, 33282, Note_on_c, 0, 55, 93
2, 33312, Note_off_c, 0, 55, 0
2, 33312, Note_on_c, 0, 56, 93
2, 33342, Note_off_c, 0, 56, 0
2, 33342, Note_on_c, 0, 55, 93
2, 33378, Note_off_c, 0, 55, 0
2, 33378, Note_on_c, 0, 53, 93
2, 33408, Note_off_c, 0, 53, 0
2, 33408, Note_on_c, 0, 55, 93
2, 33438, Note_off_c, 0, 55, 0
2, 33438, Note_on_c, 0, 53, 93
2, 33474, Note_off_c, 0, 53, 0
2, 33474, Note_on_c, 0, 51, 93
2, 33504, Note_off_c, 0, 51, 0
2, 33504, Note_on_c, 0, 50, 93
2, 33534, Note_off_c, 0, 50, 0
2, 33534, Note_on_c, 0, 51, 93
2, 33570, Note_off_c, 0, 51, 0
2, 33570, Note_on_c, 0, 53, 93
2, 33600, Note_off_c, 0, 53, 0
2, 33600, Note_on_c, 0, 51, 93
2, 33630, Note_off_c, 0, 51, 0
2, 33630, Note_on_c, 0, 50, 93
2, 33666, Note_off_c, 0, 50, 0
2, 33666, Note_on_c, 0, 48, 93
2, 33696, Note_off_c, 0, 48, 0
2, 33696, Note_on_c, 0, 47, 93
2, 33726, Note_off_c, 0, 47, 0
2, 33726, Note_on_c, 0, 48, 93
2, 33762, Note_off_c, 0, 48, 0
2, 33762, Note_on_c, 0, 50, 93
2, 33792, Note_off_c, 0, 50, 0
2, 33792, Note_on_c, 0, 48, 93
2, 33822, Note_off_c, 0, 48, 0
2, 33822, Note_on_c, 0, 43, 93
2, 33858, Note_off_c, 0, 43, 0
2, 33858, Note_on_c, 0, 39, 93
2, 33888, Note_off_c, 0, 39, 0
2, 33888, Note_on_c, 0, 36, 93
2, 33918, Note_off_c, 0, 36, 0
2, 33918, Note_on_c, 0, 39, 93
2, 33954, Note_off_c, 0, 39, 0
2, 33954, Note_on_c, 0, 43, 93
2, 33984, Note_off_c, 0, 43, 0
2, 33984, Note_on_c, 0, 48, 93
2, 34014, Note_off_c, 0, 48, 0
2, 34014, Note_on_c, 0, 51, 93
2, 34050, Note_off_c, 0, 51, 0
2, 34050, Note_on_c, 0, 55, 93
2, 34080, Note_off_c, 0, 55, 0
2, 34080, Note_on_c, 0, 60, 93
2, 34110, Note_off_c, 0, 60, 0
2, 34110, Note_on_c, 0, 62, 93
2, 34146, Note_off_c, 0, 62, 0
2, 34146, Note_on_c, 0, 59, 93
2, 34176, Note_off_c, 0, 59, 0
2, 34176, Note_on_c, 0, 60, 93
2, 34302, Note_off_c, 0, 60, 0
2, 34302, Note_on_c, 0, 58, 93
2, 34338, Note_off_c, 0, 58, 0
2, 34368, Note_on_c, 0, 55, 93
2, 34398, Note_off_c, 0, 55, 0
2, 34398, Note_on_c, 0, 56, 93
2, 34434, Note_off_c, 0, 56, 0
2, 34434, Note_on_c, 0, 58, 93
2, 34464, Note_off_c, 0, 58, 0
2, 34464, Note_on_c, 0, 56, 93
2, 34494, Note_off_c, 0, 56, 0
2, 34494, Note_on_c, 0, 55, 93
2, 34530, Note_off_c, 0, 55, 0
2, 34530, Note_on_c, 0, 53, 93
2, 34560, Note_off_c, 0, 53, 0
2, 34560, Note_on_c, 0, 52, 93
2, 34590, Note_off_c, 0, 52, 0
2, 34590, Note_on_c, 0, 53, 93
2, 34626, Note_off_c, 0, 53, 0
2, 34626, Note_on_c, 0, 55, 93
2, 34656, Note_off_c, 0, 55, 0
2, 34656, Note_on_c, 0, 48, 93
2, 34686, Note_off_c, 0, 48, 0
2, 34686, Note_on_c, 0, 50, 93
2, 34722, Note_off_c, 0, 50, 0
2, 34722, Note_on_c, 0, 52, 93
2, 34752, Note_off_c, 0, 52, 0
2, 34752, Note_on_c, 0, 53, 93
2, 34782, Note_off_c, 0, 53, 0
2, 34782, Note_on_c, 0, 52, 93
2, 34818, Note_off_c, 0, 52, 0
2, 34818, Note_on_c, 0, 53, 93
2, 34848, Note_off_c, 0, 53, 0
2, 34848, Note_on_c, 0, 55, 93
2, 34878, Note_off_c, 0, 55, 0
2, 34878, Note_on_c, 0, 53, 93
2, 34914, Note_off_c, 0, 53, 0
2, 34914, Note_on_c, 0, 52, 93
2, 34944, Note_off_c, 0, 52, 0
2, 34944, Note_on_c, 0, 53, 93
2, 34974, Note_off_c, 0, 53, 0
2, 34974, Note_on_c, 0, 51, 93
2, 35010, Note_off_c, 0, 51, 0
2, 35010, Note_on_c, 0, 49, 93
2, 35040, Note_off_c, 0, 49, 0
2, 35040, Note_on_c, 0, 48, 93
2, 35070, Note_off_c, 0, 48, 0
2, 35070, Note_on_c, 0, 49, 93
2, 35106, Note_off_c, 0, 49, 0
2, 35106, Note_on_c, 0, 51, 93
2, 35136, Note_off_c, 0, 51, 0
2, 35136, Note_on_c, 0, 49, 93
2, 35166, Note_off_c, 0, 49, 0
2, 35166, Note_on_c, 0, 52, 93
2, 35202, Note_off_c, 0, 52, 0
2, 35202, Note_on_c, 0, 53, 93
2, 35232, Note_off_c, 0, 53, 0
2, 35232, Note_on_c, 0, 55, 93
2, 35262, Note_off_c, 0, 55, 0
2, 35262, Note_on_c, 0, 53, 93
2, 35298, Note_off_c, 0, 53, 0
2, 35298, Note_on_c, 0, 52, 93
2, 35328, Note_off_c, 0, 52, 0
2, 35328, Note_on_c, 0, 53, 93
2, 35358, Note_off_c, 0, 53, 0
2, 35358, Note_on_c, 0, 48, 93
2, 35394, Note_off_c, 0, 48, 0
2, 35394, Note_on_c, 0, 46, 93
2, 35424, Note_off_c, 0, 46, 0
2, 35424, Note_on_c, 0, 45, 93
2, 35454, Note_off_c, 0, 45, 0
2, 35454, Note_on_c, 0, 46, 93
2, 35490, Note_off_c, 0, 46, 0
2, 35490, Note_on_c, 0, 48, 93
2, 35520, Note_off_c, 0, 48, 0
2, 35520, Note_on_c, 0, 46, 93
2, 35550, Note_off_c, 0, 46, 0
2, 35550, Note_on_c, 0, 52, 93
2, 35586, Note_off_c, 0, 52, 0
2, 35586, Note_on_c, 0, 53, 93
2, 35616, Note_off_c, 0, 53, 0
2, 35616, Note_on_c, 0, 55, 93
2, 35646, Note_off_c, 0, 55, 0
2, 35646, Note_on_c, 0, 53, 93
2, 35682, Note_off_c, 0, 53, 0
2, 35682, Note_on_c, 0, 52, 93
2, 35712, Note_off_c, 0, 52, 0
2, 35712, Note_on_c, 0, 47, 93
2, 35742, Note_off_c, 0, 47, 0
2, 35742, Note_on_c, 0, 53, 93
2, 35778, Note_off_c, 0, 53, 0
2, 35778, Note_on_c, 0, 55, 93
2, 35808, Note_off_c, 0, 55, 0
2, 35808, Note_on_c, 0, 56, 93
2, 35838, Note_off_c, 0, 56, 0
2, 35838, Note_on_c, 0, 55, 93
2, 35874, Note_off_c, 0, 55, 0
2, 35874, Note_on_c, 0, 53, 93
2, 35904, Note_off_c, 0, 53, 0
2, 35904, Note_on_c, 0, 60, 93
2, 35934, Note_off_c, 0, 60, 0
2, 35934, Note_on_c, 0, 58, 93
2, 35970, Note_off_c, 0, 58, 0
2, 35970, Note_on_c, 0, 56, 93
2, 36000, Note_off_c, 0, 56, 0
2, 36000, Note_on_c, 0, 55, 93
2, 36030, Note_off_c, 0, 55, 0
2, 36030, Note_on_c, 0, 53, 93
2, 36066, Note_off_c, 0, 53, 0
2, 36066, Note_on_c, 0, 52, 93
2, 36096, Note_off_c, 0, 52, 0
2, 36096, Note_on_c, 0, 53, 93
2, 36126, Note_off_c, 0, 53, 0
2, 36126, Note_on_c, 0, 55, 93
2, 36162, Note_off_c, 0, 55, 0
2, 36162, Note_on_c, 0, 56, 93
2, 36192, Note_off_c, 0, 56, 0
2, 36192, Note_on_c, 0, 55, 93
2, 36222, Note_off_c, 0, 55, 0
2, 36222, Note_on_c, 0, 56, 93
2, 36258, Note_off_c, 0, 56, 0
2, 36258, Note_on_c, 0, 53, 93
2, 36288, Note_off_c, 0, 53, 0
2, 36288, Note_on_c, 0, 59, 93
2, 36318, Note_off_c, 0, 59, 0
2, 36318, Note_on_c, 0, 60, 93
2, 36354, Note_off_c, 0, 60, 0
2, 36354, Note_on_c, 0, 62, 93
2, 36384, Note_off_c, 0, 62, 0
2, 36384, Note_on_c, 0, 60, 93
2, 36414, Note_off_c, 0, 60, 0
2, 36414, Note_on_c, 0, 62, 93
2, 36450, Note_off_c, 0, 62, 0
2, 36450, Note_on_c, 0, 59, 93
2, 36480, Note_off_c, 0, 59, 0
2, 36480, Note_on_c, 0, 60, 93
2, 36510, Note_off_c, 0, 60, 0
2, 36510, Note_on_c, 0, 58, 93
2, 36546, Note_off_c, 0, 58, 0
2, 36546, Note_on_c, 0, 56, 93
2, 36576, Note_off_c, 0, 56, 0
2, 36576, Note_on_c, 0, 55, 93
2, 36606, Note_off_c, 0, 55, 0
2, 36606, Note_on_c, 0, 53, 93
2, 36642, Note_off_c, 0, 53, 0
2, 36642, Note_on_c, 0, 51, 93
2, 36672, Note_off_c, 0, 51, 0
2, 36672, Note_on_c, 0, 56, 93
2, 36702, Note_off_c, 0, 56, 0
2, 36702, Note_on_c, 0, 55, 93
2, 36738, Note_off_c, 0, 55, 0
2, 36738, Note_on_c, 0, 53, 93
2, 36768, Note_off_c, 0, 53, 0
2, 36768, Note_on_c, 0, 51, 93
2, 36798, Note_off_c, 0, 51, 0
2, 36798, Note_on_c, 0, 50, 93
2, 36834, Note_off_c, 0, 50, 0
2, 36834, Note_on_c, 0, 48, 93
2, 36864, Note_off_c, 0, 48, 0
2, 36864, Note_on_c, 0, 47, 93
2, 36894, Note_off_c, 0, 47, 0
2, 36894, Note_on_c, 0, 48, 93
2, 36930, Note_off_c, 0, 48, 0
2, 36930, Note_on_c, 0, 50, 93
2, 36960, Note_off_c, 0, 50, 0
2, 36960, Note_on_c, 0, 43, 93
2, 36990, Note_off_c, 0, 43, 0
2, 36990, Note_on_c, 0, 47, 93
2, 37026, Note_off_c, 0, 47, 0
2, 37026, Note_on_c, 0, 50, 93
2, 37056, Note_off_c, 0, 50, 0
2, 37056, Note_on_c, 0, 55, 93
2, 37086, Note_off_c, 0, 55, 0
2, 37086, Note_on_c, 0, 53, 93
2, 37122, Note_off_c, 0, 53, 0
2, 37122, Note_on_c, 0, 55, 93
2, 37152, Note_off_c, 0, 55, 0
2, 37152, Note_on_c, 0, 56, 93
2, 37182, Note_off_c, 0, 56, 0
2, 37182, Note_on_c, 0, 55, 93
2, 37218, Note_off_c, 0, 55, 0
2, 37218, Note_on_c, 0, 53, 93
2, 37248, Note_off_c, 0, 53, 0
2, 37248, Note_on_c, 0, 55, 93
2, 37278, Note_off_c, 0, 55, 0
2, 37278, Note_on_c, 0, 53, 93
2, 37314, Note_off_c, 0, 53, 0
2, 37314, Note_on_c, 0, 51, 93
2, 37344, Note_off_c, 0, 51, 0
2, 37344, Note_on_c, 0, 50, 93
2, 37374, Note_off_c, 0, 50, 0
2, 37374, Note_on_c, 0, 51, 93
2, 37410, Note_off_c, 0, 51, 0
2, 37410, Note_on_c, 0, 53, 93
2, 37440, Note_off_c, 0, 53, 0
2, 37440, Note_on_c, 0, 51, 93
2, 37470, Note_off_c, 0, 51, 0
2, 37470, Note_on_c, 0, 50, 93
2, 37506, Note_off_c, 0, 50, 0
2, 37506, Note_on_c, 0, 48, 93
2, 37536, Note_off_c, 0, 48, 0
2, 37536, Note_on_c, 0, 47, 93
2, 37566, Note_off_c, 0, 47, 0
2, 37566, Note_on_c, 0, 48, 93
2, 37602, Note_off_c, 0, 48, 0
2, 37602, Note_on_c, 0, 50, 93
2, 37632, Note_off_c, 0, 50, 0
2, 37632, Note_on_c, 0, 48, 93
2, 37728, Note_off_c, 0, 48, 0
2, 37728, Note_on_c, 0, 36, 93
2, 37824, Note_off_c, 0, 36, 0
2, 37824, Note_on_c, 0, 51, 93
2, 37854, Note_off_c, 0, 51, 0
2, 37854, Note_on_c, 0, 50, 93
2, 37890, Note_off_c, 0, 50, 0
2, 37890, Note_on_c, 0, 51, 93
2, 37920, Note_off_c, 0, 51, 0
2, 37920, Note_on_c, 0, 53, 93
2, 37950, Note_off_c, 0, 53, 0
2, 37950, Note_on_c, 0, 51, 93
2, 37986, Note_off_c, 0, 51, 0
2, 37986, Note_on_c, 0, 50, 93
2, 38016, Note_off_c, 0, 50, 0
2, 38016, Note_on_c, 0, 51, 93
2, 38142, Note_off_c, 0, 51, 0
2, 38142, Note_on_c, 0, 53, 93
2, 38178, Note_off_c, 0, 53, 0
2, 38208, Note_on_c, 0, 56, 93
2, 38238, Note_off_c, 0, 56, 0
2, 38238, Note_on_c, 0, 55, 93
2, 38274, Note_off_c, 0, 55, 0
2, 38274, Note_on_c, 0, 53, 93
2, 38304, Note_off_c, 0, 53, 0
2, 38304, Note_on_c, 0, 55, 93
2, 38334, Note_off_c, 0, 55, 0
2, 38334, Note_on_c, 0, 53, 93
2, 38370, Note_off_c, 0, 53, 0
2, 38370, Note_on_c, 0, 51, 93
2, 38400, Note_off_c, 0, 51, 0
2, 38400, Note_on_c, 0, 50, 93
2, 38430, Note_off_c, 0, 50, 0
2, 38430, Note_on_c, 0, 51, 93
2, 38466, Note_off_c, 0, 51, 0
2, 38466, Note_on_c, 0, 53, 93
2, 38496, Note_off_c, 0, 53, 0
2, 38496, Note_on_c, 0, 46, 93
2, 38526, Note_off_c, 0, 46, 0
2, 38526, Note_on_c, 0, 50, 93
2, 38562, Note_off_c, 0, 50, 0
2, 38562, Note_on_c, 0, 53, 93
2, 38592, Note_off_c, 0, 53, 0
2, 38592, Note_on_c, 0, 58, 93
2, 38622, Note_off_c, 0, 58, 0
2, 38622, Note_on_c, 0, 57, 93
2, 38658, Note_off_c, 0, 57, 0
2, 38658, Note_on_c, 0, 58, 93
2, 38688, Note_off_c, 0, 58, 0
2, 38688, Note_on_c, 0, 60, 93
2, 38718, Note_off_c, 0, 60, 0
2, 38718, Note_on_c, 0, 58, 93
2, 38754, Note_off_c, 0, 58, 0
2, 38754, Note_on_c, 0, 57, 93
2, 38784, Note_off_c, 0, 57, 0
2, 38784, Note_on_c, 0, 58, 93
2, 38814, Note_off_c, 0, 58, 0
2, 38814, Note_on_c, 0, 57, 93
2, 38850, Note_off_c, 0, 57, 0
2, 38850, Note_on_c, 0, 55, 93
2, 38880, Note_off_c, 0, 55, 0
2, 38880, Note_on_c, 0, 63, 93
2, 38910, Note_off_c, 0, 63, 0
2, 38910, Note_on_c, 0, 62, 93
2, 38946, Note_off_c, 0, 62, 0
2, 38946, Note_on_c, 0, 60, 93
2, 38976, Note_off_c, 0, 60, 0
2, 38976, Note_on_c, 0, 58, 93
2, 39006, Note_off_c, 0, 58, 0
2, 39006, Note_on_c, 0, 57, 93
2, 39042, Note_off_c, 0, 57, 0
2, 39042, Note_on_c, 0, 55, 93
2, 39072, Note_off_c, 0, 55, 0
2, 39072, Note_on_c, 0, 54, 93
2, 39102, Note_off_c, 0, 54, 0
2, 39102, Note_on_c, 0, 55, 93
2, 39138, Note_off_c, 0, 55, 0
2, 39138, Note_on_c, 0, 57, 93
2, 39168, Note_off_c, 0, 57, 0
2, 39168, Note_on_c, 0, 55, 93
2, 39264, Note_off_c, 0, 55, 0
2, 39264, Note_on_c, 0, 43, 93
2, 39360, Note_off_c, 0, 43, 0
2, 39360, Note_on_c, 0, 55, 93
2, 39390, Note_off_c, 0, 55, 0
2, 39390, Note_on_c, 0, 53, 93
2, 39426, Note_off_c, 0, 53, 0
2, 39426, Note_on_c, 0, 55, 93
2, 39456, Note_off_c, 0, 55, 0
2, 39456, Note_on_c, 0, 56, 93
2, 39486, Note_off_c, 0, 56, 0
2, 39486, Note_on_c, 0, 55, 93
2, 39522, Note_off_c, 0, 55, 0
2, 39522, Note_on_c, 0, 53, 93
2, 39552, Note_off_c, 0, 53, 0
2, 39552, Note_on_c, 0, 55, 93
2, 39678, Note_off_c, 0, 55, 0
2, 39678, Note_on_c, 0, 53, 93
2, 39714, Note_off_c, 0, 53, 0
2, 39744, Note_on_c, 0, 50, 93
2, 39774, Note_off_c, 0, 50, 0
2, 39774, Note_on_c, 0, 51, 93
2, 39810, Note_off_c, 0, 51, 0
2, 39810, Note_on_c, 0, 53, 93
2, 39840, Note_off_c, 0, 53, 0
2, 39840, Note_on_c, 0, 51, 93
2, 39870, Note_off_c, 0, 51, 0
2, 39870, Note_on_c, 0, 50, 93
2, 39906, Note_off_c, 0, 50, 0
2, 39906, Note_on_c, 0, 48, 93
2, 39936, Note_off_c, 0, 48, 0
2, 39936, Note_on_c, 0, 47, 93
2, 39966, Note_off_c, 0, 47, 0
2, 39966, Note_on_c, 0, 48, 93
2, 40002, Note_off_c, 0, 48, 0
2, 40002, Note_on_c, 0, 50, 93
2, 40032, Note_off_c, 0, 50, 0
2, 40032, Note_on_c, 0, 43, 93
2, 40062, Note_off_c, 0, 43, 0
2, 40062, Note_on_c, 0, 47, 93
2, 40098, Note_off_c, 0, 47, 0
2, 40098, Note_on_c, 0, 50, 93
2, 40128, Note_off_c, 0, 50, 0
2, 40128, Note_on_c, 0, 55, 93
2, 40158, Note_off_c, 0, 55, 0
2, 40158, Note_on_c, 0, 53, 93
2, 40194, Note_off_c, 0, 53, 0
2, 40194, Note_on_c, 0, 55, 93
2, 40224, Note_off_c, 0, 55, 0
2, 40224, Note_on_c, 0, 56, 93
2, 40254, Note_off_c, 0, 56, 0
2, 40254, Note_on_c, 0, 55, 93
2, 40290, Note_off_c, 0, 55, 0
2, 40290, Note_on_c, 0, 53, 93
2, 40320, Note_off_c, 0, 53, 0
2, 40320, Note_on_c, 0, 55, 93
2, 40350, Note_off_c, 0, 55, 0
2, 40350, Note_on_c, 0, 53, 93
2, 40386, Note_off_c, 0, 53, 0
2, 40386, Note_on_c, 0, 51, 93
2, 40416, Note_off_c, 0, 51, 0
2, 40416, Note_on_c, 0, 50, 93
2, 40446, Note_off_c, 0, 50, 0
2, 40446, Note_on_c, 0, 51, 93
2, 40482, Note_off_c, 0, 51, 0
2, 40482, Note_on_c, 0, 53, 93
2, 40512, Note_off_c, 0, 53, 0
2, 40512, Note_on_c, 0, 51, 93
2, 40542, Note_off_c, 0, 51, 0
2, 40542, Note_on_c, 0, 50, 93
2, 40578, Note_off_c, 0, 50, 0
2, 40578, Note_on_c, 0, 48, 93
2, 40608, Note_off_c, 0, 48, 0
2, 40608, Note_on_c, 0, 47, 93
2, 40638, Note_off_c, 0, 47, 0
2, 40638, Note_on_c, 0, 48, 93
2, 40674, Note_off_c, 0, 48, 0
2, 40674, Note_on_c, 0, 50, 93
2, 40704, Note_off_c, 0, 50, 0
2, 40704, Note_on_c, 0, 48, 93
2, 40734, Note_off_c, 0, 48, 0
2, 40734, Note_on_c, 0, 43, 93
2, 40770, Note_off_c, 0, 43, 0
2, 40770, Note_on_c, 0, 39, 93
2, 40800, Note_off_c, 0, 39, 0
2, 40800, Note_on_c, 0, 36, 93
2, 40830, Note_off_c, 0, 36, 0
2, 40830, Note_on_c, 0, 39, 93
2, 40866, Note_off_c, 0, 39, 0
2, 40866, Note_on_c, 0, 43, 93
2, 40896, Note_off_c, 0, 43, 0
2, 40896, Note_on_c, 0, 48, 93
2, 40926, Note_off_c, 0, 48, 0
2, 40926, Note_on_c, 0, 51, 93
2, 40962, Note_off_c, 0, 51, 0
2, 40962, Note_on_c, 0, 55, 93
2, 40992, Note_off_c, 0, 55, 0
2, 40992, Note_on_c, 0, 60, 93
2, 41022, Note_off_c, 0, 60, 0
2, 41022, Note_on_c, 0, 62, 93
2, 41058, Note_off_c, 0, 62, 0
2, 41058, Note_on_c, 0, 59, 93
2, 41088, Note_off_c, 0, 59, 0
2, 41088, Note_on_c, 0, 60, 93
2, 41214, Note_off_c, 0, 60, 0
2, 41214, Note_on_c, 0, 58, 93
2, 41250, Note_off_c, 0, 58, 0
2, 41280, Note_on_c, 0, 55, 93
2, 41310, Note_off_c, 0, 55, 0
2, 41310, Note_on_c, 0, 56, 93
2, 41346, Note_off_c, 0, 56, 0
2, 41346, Note_on_c, 0, 58, 93
2, 41376, Note_off_c, 0, 58, 0
2, 41376, Note_on_c, 0, 56, 93
2, 41406, Note_off_c, 0, 56, 0
2, 41406, Note_on_c, 0, 55, 93
2, 41442, Note_off_c, 0, 55, 0
2, 41442, Note_on_c, 0, 53, 93
2, 41472, Note_off_c, 0, 53, 0
2, 41472, Note_on_c, 0, 52, 93
2, 41502, Note_off_c, 0, 52, 0
2, 41502, Note_on_c, 0, 53, 93
2, 41538, Note_off_c, 0, 53, 0
2, 41538, Note_on_c, 0, 55, 93
2, 41568, Note_off_c, 0, 55, 0
2, 41568, Note_on_c, 0, 48, 93
2, 41598, Note_off_c, 0, 48, 0
2, 41598, Note_on_c, 0, 50, 93
2, 41634, Note_off_c, 0, 50, 0
2, 41634, Note_on_c, 0, 52, 93
2, 41664, Note_off_c, 0, 52, 0
2, 41664, Note_on_c, 0, 53, 93
2, 41694, Note_off_c, 0, 53, 0
2, 41694, Note_on_c, 0, 52, 93
2, 41730, Note_off_c, 0, 52, 0
2, 41730, Note_on_c, 0, 53, 93
2, 41760, Note_off_c, 0, 53, 0
2, 41760, Note_on_c, 0, 55, 93
2, 41790, Note_off_c, 0, 55, 0
2, 41790, Note_on_c, 0, 53, 93
2, 41826, Note_off_c, 0, 53, 0
2, 41826, Note_on_c, 0, 52, 93
2, 41856, Note_off_c, 0, 52, 0
2, 41856, Note_on_c, 0, 53, 93
2, 41886, Note_off_c, 0, 53, 0
2, 41886, Note_on_c, 0, 51, 93
2, 41922, Note_off_c, 0, 51, 0
2, 41922, Note_on_c, 0, 49, 93
2, 41952, Note_off_c, 0, 49, 0
2, 41952, Note_on_c, 0, 48, 93
2, 41982, Note_off_c, 0, 48, 0
2, 41982, Note_on_c, 0, 49, 93
2, 42018, Note_off_c, 0, 49, 0
2, 42018, Note_on_c, 0, 51, 93
2, 42048, Note_off_c, 0, 51, 0
2, 42048, Note_on_c, 0, 49, 93
2, 42078, Note_off_c, 0, 49, 0
2, 42078, Note_on_c, 0, 52, 93
2, 42114, Note_off_c, 0, 52, 0
2, 42114, Note_on_c, 0, 53, 93
2, 42144, Note_off_c, 0, 53, 0
2, 42144, Note_on_c, 0, 55, 93
2, 42174, Note_off_c, 0, 55, 0
2, 42174, Note_on_c, 0, 53, 93
2, 42210, Note_off_c, 0, 53, 0
2, 42210, Note_on_c, 0, 52, 93
2, 42240, Note_off_c, 0, 52, 0
2, 42240, Note_on_c, 0, 53, 93
2, 42270, Note_off_c, 0, 53, 0
2, 42270, Note_on_c, 0, 48, 93
2, 42306, Note_off_c, 0, 48, 0
2, 42306, Note_on_c, 0, 46, 93
2, 42336, Note_off_c, 0, 46, 0
2, 42336, Note_on_c, 0, 45, 93
2, 42366, Note_off_c, 0, 45, 0
2, 42366, Note_on_c, 0, 46, 93
2, 42402, Note_off_c, 0, 46, 0
2, 42402, Note_on_c, 0, 48, 93
2, 42432, Note_off_c, 0, 48, 0
2, 42432, Note_on_c, 0, 46, 93
2, 42462, Note_off_c, 0, 46, 0
2, 42462, Note_on_c, 0, 52, 93
2, 42498, Note_off_c, 0, 52, 0
2, 42498, Note_on_c, 0, 53, 93
2, 42528, Note_off_c, 0, 53, 0
2, 42528, Note_on_c, 0, 55, 93
2, 42558, Note_off_c, 0, 55, 0
2, 42558, Note_on_c, 0, 53, 93
2, 42594, Note_off_c, 0, 53, 0
2, 42594, Note_on_c, 0, 52, 93
2, 42624, Note_off_c, 0, 52, 0
2, 42624, Note_on_c, 0, 47, 93
2, 42654, Note_off_c, 0, 47, 0
2, 42654, Note_on_c, 0, 53, 93
2, 42690, Note_off_c, 0, 53, 0
2, 42690, Note_on_c, 0, 55, 93
2, 42720, Note_off_c, 0, 55, 0
2, 42720, Note_on_c, 0, 56, 93
2, 42750, Note_off_c, 0, 56, 0
2, 42750, Note_on_c, 0, 55, 93
2, 42786, Note_off_c, 0, 55, 0
2, 42786, Note_on_c, 0, 53, 93
2, 42816, Note_off_c, 0, 53, 0
2, 42816, Note_on_c, 0, 60, 93
2, 42846, Note_off_c, 0, 60, 0
2, 42846, Note_on_c, 0, 58, 93
2, 42882, Note_off_c, 0, 58, 0
2, 42882, Note_on_c, 0, 56, 93
2, 42912, Note_off_c, 0, 56, 0
2, 42912, Note_on_c, 0, 55, 93
2, 42942, Note_off_c, 0, 55, 0
2, 42942, Note_on_c, 0, 53, 93
2, 42978, Note_off_c, 0, 53, 0
2, 42978, Note_on_c, 0, 52, 93
2, 43008, Note_off_c, 0, 52, 0
2, 43008, Note_on_c, 0, 53, 93
2, 43038, Note_off_c, 0, 53, 0
2, 43038, Note_on_c, 0, 55, 93
2, 43074, Note_off_c, 0, 55, 0
2, 43074, Note_on_c, 0, 56, 93
2, 43104, Note_off_c, 0, 56, 0
2, 43104, Note_on_c, 0, 55, 93
2, 43134, Note_off_c, 0, 55, 0
2, 43134, Note_on_c, 0, 56, 93
2, 43170, Note_off_c, 0, 56, 0
2, 43170, Note_on_c, 0, 53, 93
2, 43200, Note_off_c, 0, 53, 0
2, 43200, Note_on_c, 0, 59, 93
2, 43230, Note_off_c, 0, 59, 0
2, 43230, Note_on_c, 0, 60, 93
2, 43266, Note_off_c, 0, 60, 0
2, 43266, Note_on_c, 0, 62, 93
2, 43296, Note_off_c, 0, 62, 0
2, 43296, Note_on_c, 0, 60, 93
2, 43326, Note_off_c, 0, 60, 0
2, 43326, Note_on_c, 0, 62, 93
2, 43362, Note_off_c, 0, 62, 0
2, 43362, Note_on_c, 0, 59, 93
2, 43392, Note_off_c, 0, 59, 0
2, 43392, Note_on_c, 0, 60, 93
2, 43422, Note_off_c, 0, 60, 0
2, 43422, Note_on_c, 0, 58, 93
2, 43458, Note_off_c, 0, 58, 0
2, 43458, Note_on_c, 0, 56, 93
2, 43488, Note_off_c, 0, 56, 0
2, 43488, Note_on_c, 0, 55, 93
2, 43518, Note_off_c, 0, 55, 0
2, 43518, Note_on_c, 0, 53, 93
2, 43554, Note_off_c, 0, 53, 0
2, 43554, Note_on_c, 0, 51, 93
2, 43584, Note_off_c, 0, 51, 0
2, 43584, Note_on_c, 0, 56, 93
2, 43614, Note_off_c, 0, 56, 0
2, 43614, Note_on_c, 0, 55, 93
2, 43650, Note_off_c, 0, 55, 0
2, 43650, Note_on_c, 0, 53, 93
2, 43680, Note_off_c, 0, 53, 0
2, 43680, Note_on_c, 0, 51, 93
2, 43710, Note_off_c, 0, 51, 0
2, 43710, Note_on_c, 0, 50, 93
2, 43746, Note_off_c, 0, 50, 0
2, 43746, Note_on_c, 0, 48, 93
2, 43776, Note_off_c, 0, 48, 0
2, 43776, Note_on_c, 0, 47, 93
2, 43806, Note_off_c, 0, 47, 0
2, 43806, Note_on_c, 0, 48, 93
2, 43842, Note_off_c, 0, 48, 0
2, 43842, Note_on_c, 0, 50, 93
2, 43872, Note_off_c, 0, 50, 0
2, 43872, Note_on_c, 0, 43, 93
2, 43902, Note_off_c, 0, 43, 0
2, 43902, Note_on_c, 0, 47, 93
2, 43938, Note_off_c, 0, 47, 0
2, 43938, Note_on_c, 0, 50, 93
2, 43968, Note_off_c, 0, 50, 0
2, 43968, Note_on_c, 0, 55, 93
2, 43998, Note_off_c, 0, 55, 0
2, 43998, Note_on_c, 0, 53, 93
2, 44034, Note_off_c, 0, 53, 0
2, 44034, Note_on_c, 0, 55, 93
2, 44064, Note_off_c, 0, 55, 0
2, 44064, Note_on_c, 0, 56, 93
2, 44094, Note_off_c, 0, 56, 0
2, 44094, Note_on_c, 0, 55, 93
2, 44130, Note_off_c, 0, 55, 0
2, 44130, Note_on_c, 0, 53, 93
2, 44160, Note_off_c, 0, 53, 0
2, 44160, Note_on_c, 0, 55, 93
2, 44190, Note_off_c, 0, 55, 0
2, 44190, Note_on_c, 0, 53, 93
2, 44226, Note_off_c, 0, 53, 0
2, 44226, Note_on_c, 0, 51, 93
2, 44256, Note_off_c, 0, 51, 0
2, 44256, Note_on_c, 0, 50, 93
2, 44286, Note_off_c, 0, 50, 0
2, 44286, Note_on_c, 0, 51, 93
2, 44322, Note_off_c, 0, 51, 0
2, 44322, Note_on_c, 0, 53, 93
2, 44352, Note_off_c, 0, 53, 0
2, 44352, Note_on_c, 0, 51, 93
2, 44382, Note_off_c, 0, 51, 0
2, 44382, Note_on_c, 0, 50, 93
2, 44418, Note_off_c, 0, 50, 0
2, 44418, Note_on_c, 0, 48, 93
2, 44448, Note_off_c, 0, 48, 0
2, 44448, Note_on_c, 0, 47, 93
2, 44478, Note_off_c, 0, 47, 0
2, 44478, Note_on_c, 0, 48, 93
2, 44514, Note_off_c, 0, 48, 0
2, 44514, Note_on_c, 0, 50, 93
2, 44544, Note_off_c, 0, 50, 0
2, 44544, Note_on_c, 0, 48, 93
2, 44640, Note_off_c, 0, 48, 0
2, 44640, Note_on_c, 0, 36, 93
2, 44736, Note_off_c, 0, 36, 0
2, 44736, Note_on_c, 0, 55, 93
2, 44832, Note_off_c, 0, 55, 0
2, 44832, Note_on_c, 0, 60, 93
2, 44928, Note_off_c, 0, 60, 0
2, 44928, Note_on_c, 0, 53, 93
2, 45024, Note_off_c, 0, 53, 0
2, 45024, Note_on_c, 0, 58, 93
2, 45072, Note_off_c, 0, 58, 0
2, 45072, Note_on_c, 0, 55, 93
2, 45120, Note_off_c, 0, 55, 0
2, 45120, Note_on_c, 0, 50, 93
2, 45216, Note_off_c, 0, 50, 0
2, 45216, Note_on_c, 0, 58, 93
2, 45264, Note_off_c, 0, 58, 0
2, 45264, Note_on_c, 0, 53, 93
2, 45312, Note_off_c, 0, 53, 0
2, 45312, Note_on_c, 0, 55, 93
2, 45408, Note_off_c, 0, 55, 0
2, 45408, Note_on_c, 0, 51, 93
2, 45456, Note_off_c, 0, 51, 0
2, 45456, Note_on_c, 0, 47, 93
2, 45504, Note_off_c, 0, 47, 0
2, 45504, Note_on_c, 0, 48, 93
2, 45600, Note_off_c, 0, 48, 0
2, 45600, Note_on_c, 0, 56, 93
2, 45648, Note_off_c, 0, 56, 0
2, 45648, Note_on_c, 0, 51, 93
2, 45696, Note_off_c, 0, 51, 0
2, 45696, Note_on_c, 0, 53, 93
2, 45792, Note_off_c, 0, 53, 0
2, 45792, Note_on_c, 0, 50, 93
2, 45840, Note_off_c, 0, 50, 0
2, 45840, Note_on_c, 0, 45, 93
2, 45888, Note_off_c, 0, 45, 0
2, 45888, Note_on_c, 0, 47, 93
2, 45936, Note_off_c, 0, 47, 0
2, 45936, Note_on_c, 0, 50, 93
2, 45984, Note_off_c, 0, 50, 0
2, 45984, Note_on_c, 0, 55, 93
2, 46080, Note_off_c, 0, 55, 0
2, 46080, Note_on_c, 0, 36, 93
2, 46176, Note_off_c, 0, 36, 0
2, 46176, Note_on_c, 0, 50, 93
2, 46224, Note_off_c, 0, 50, 0
2, 46224, Note_on_c, 0, 48, 93
2, 46272, Note_off_c, 0, 48, 0
2, 46272, Note_on_c, 0, 55, 93
2, 46320, Note_off_c, 0, 55, 0
2, 46320, Note_on_c, 0, 51, 93
2, 46368, Note_off_c, 0, 51, 0
2, 46368, Note_on_c, 0, 60, 93
2, 46416, Note_off_c, 0, 60, 0
2, 46416, Note_on_c, 0, 55, 93
2, 46464, Note_off_c, 0, 55, 0
2, 46464, Note_on_c, 0, 56, 93
2, 46512, Note_off_c, 0, 56, 0
2, 46512, Note_on_c, 0, 53, 93
2, 46560, Note_off_c, 0, 53, 0
2, 46560, Note_on_c, 0, 58, 93
2, 46608, Note_off_c, 0, 58, 0
2, 46608, Note_on_c, 0, 52, 93
2, 46656, Note_off_c, 0, 52, 0
2, 46656, Note_on_c, 0, 56, 93
2, 46704, Note_off_c, 0, 56, 0
2, 46704, Note_on_c, 0, 53, 93
2, 46752, Note_off_c, 0, 53, 0
2, 46752, Note_on_c, 0, 58, 93
2, 46800, Note_off_c, 0, 58, 0
2, 46800, Note_on_c, 0, 50, 93
2, 46848, Note_off_c, 0, 50, 0
2, 46848, Note_on_c, 0, 55, 93
2, 46896, Note_off_c, 0, 55, 0
2, 46896, Note_on_c, 0, 51, 93
2, 46944, Note_off_c, 0, 51, 0
2, 46944, Note_on_c, 0, 56, 93
2, 46992, Note_off_c, 0, 56, 0
2, 46992, Note_on_c, 0, 50, 93
2, 47040, Note_off_c, 0, 50, 0
2, 47040, Note_on_c, 0, 55, 93
2, 47088, Note_off_c, 0, 55, 0
2, 47088, Note_on_c, 0, 51, 93
2, 47136, Note_off_c, 0, 51, 0
2, 47136, Note_on_c, 0, 58, 93
2, 47184, Note_off_c, 0, 58, 0
2, 47184, Note_on_c, 0, 55, 93
2, 47232, Note_off_c, 0, 55, 0
2, 47232, Note_on_c, 0, 60, 93
2, 47280, Note_off_c, 0, 60, 0
2, 47280, Note_on_c, 0, 56, 93
2, 47328, Note_off_c, 0, 56, 0
2, 47328, Note_on_c, 0, 61, 93
2, 47376, Note_off_c, 0, 61, 0
2, 47376, Note_on_c, 0, 55, 93
2, 47424, Note_off_c, 0, 55, 0
2, 47424, Note_on_c, 0, 60, 93
2, 47472, Note_off_c, 0, 60, 0
2, 47472, Note_on_c, 0, 56, 93
2, 47520, Note_off_c, 0, 56, 0
2, 47520, Note_on_c, 0, 63, 93
2, 47568, Note_off_c, 0, 63, 0
2, 47568, Note_on_c, 0, 57, 93
2, 47616, Note_off_c, 0, 57, 0
2, 47616, Note_on_c, 0, 62, 93
2, 47664, Note_off_c, 0, 62, 0
2, 47664, Note_on_c, 0, 58, 93
2, 47712, Note_off_c, 0, 58, 0
2, 47712, Note_on_c, 0, 63, 93
2, 47760, Note_off_c, 0, 63, 0
2, 47760, Note_on_c, 0, 62, 93
2, 47808, Note_off_c, 0, 62, 0
2, 47808, Note_on_c, 0, 60, 93
2, 47856, Note_off_c, 0, 60, 0
2, 47856, Note_on_c, 0, 58, 93
2, 47904, Note_off_c, 0, 58, 0
2, 47904, Note_on_c, 0, 57, 93
2, 47952, Note_off_c, 0, 57, 0
2, 47952, Note_on_c, 0, 55, 93
2, 48000, Note_off_c, 0, 55, 0
2, 48000, Note_on_c, 0, 48, 93
2, 48096, Note_off_c, 0, 48, 0
2, 48096, Note_on_c, 0, 58, 93
2, 48144, Note_off_c, 0, 58, 0
2, 48144, Note_on_c, 0, 55, 93
2, 48192, Note_off_c, 0, 55, 0
2, 48192, Note_on_c, 0, 51, 93
2, 48288, Note_off_c, 0, 51, 0
2, 48288, Note_on_c, 0, 60, 93
2, 48336, Note_off_c, 0, 60, 0
2, 48336, Note_on_c, 0, 57, 93
2, 48384, Note_off_c, 0, 57, 0
2, 48384, Note_on_c, 0, 50, 93
2, 48480, Note_off_c, 0, 50, 0
2, 48480, Note_on_c, 0, 60, 93
2, 48528, Note_off_c, 0, 60, 0
2, 48528, Note_on_c, 0, 57, 93
2, 48576, Note_off_c, 0, 57, 0
2, 48576, Note_on_c, 0, 55, 93
2, 48672, Note_off_c, 0, 55, 0
2, 48672, Note_on_c, 0, 63, 93
2, 48720, Note_off_c, 0, 63, 0
2, 48720, Note_on_c, 0, 60, 93
2, 48768, Note_off_c, 0, 60, 0
2, 48768, Note_on_c, 0, 62, 93
2, 48864, Note_off_c, 0, 62, 0
2, 48864, Note_on_c, 0, 46, 93
2, 48960, Note_off_c, 0, 46, 0
2, 48960, Note_on_c, 0, 58, 93
2, 49008, Note_off_c, 0, 58, 0
2, 49008, Note_on_c, 0, 57, 93
2, 49056, Note_off_c, 0, 57, 0
2, 49056, Note_on_c, 0, 50, 93
2, 49152, Note_off_c, 0, 50, 0
2, 49152, Note_on_c, 0, 43, 93
2, 49344, Note_off_c, 0, 43, 0
2, 49344, Note_on_c, 0, 43, 93
2, 49440, Note_off_c, 0, 43, 0
2, 49440, Note_on_c, 0, 55, 93
2, 49536, Note_off_c, 0, 55, 0
2, 49536, Note_on_c, 0, 36, 93
2, 49632, Note_off_c, 0, 36, 0
2, 49632, Note_on_c, 0, 53, 93
2, 49680, Note_off_c, 0, 53, 0
2, 49680, Note_on_c, 0, 50, 93
2, 49728, Note_off_c, 0, 50, 0
2, 49728, Note_on_c, 0, 46, 93
2, 49824, Note_off_c, 0, 46, 0
2, 49824, Note_on_c, 0, 60, 93
2, 49872, Note_off_c, 0, 60, 0
2, 49872, Note_on_c, 0, 52, 93
2, 49920, Note_off_c, 0, 52, 0
2, 49920, Note_on_c, 0, 44, 93
2, 50016, Note_off_c, 0, 44, 0
2, 50016, Note_on_c, 0, 55, 93
2, 50064, Note_off_c, 0, 55, 0
2, 50064, Note_on_c, 0, 52, 93
2, 50112, Note_off_c, 0, 52, 0
2, 50112, Note_on_c, 0, 53, 93
2, 50208, Note_off_c, 0, 53, 0
2, 50208, Note_on_c, 0, 60, 93
2, 50256, Note_off_c, 0, 60, 0
2, 50256, Note_on_c, 0, 53, 93
2, 50304, Note_off_c, 0, 53, 0
2, 50304, Note_on_c, 0, 52, 93
2, 50400, Note_off_c, 0, 52, 0
2, 50400, Note_on_c, 0, 56, 93
2, 50448, Note_off_c, 0, 56, 0
2, 50448, Note_on_c, 0, 53, 93
2, 50496, Note_off_c, 0, 53, 0
2, 50496, Note_on_c, 0, 36, 93
2, 50592, Note_off_c, 0, 36, 0
2, 50592, Note_on_c, 0, 60, 93
2, 50640, Note_off_c, 0, 60, 0
2, 50640, Note_on_c, 0, 55, 93
2, 50688, Note_off_c, 0, 55, 0
2, 50688, Note_on_c, 0, 58, 93
2, 50736, Note_off_c, 0, 58, 0
2, 50736, Note_on_c, 0, 56, 93
2, 50784, Note_off_c, 0, 56, 0
2, 50784, Note_on_c, 0, 55, 93
2, 50832, Note_off_c, 0, 55, 0
2, 50832, Note_on_c, 0, 53, 93
2, 50880, Note_off_c, 0, 53, 0
2, 50880, Note_on_c, 0, 56, 93
2, 50928, Note_off_c, 0, 56, 0
2, 50928, Note_on_c, 0, 55, 93
2, 50976, Note_off_c, 0, 55, 0
2, 50976, Note_on_c, 0, 53, 93
2, 51024, Note_off_c, 0, 53, 0
2, 51024, Note_on_c, 0, 51, 93
2, 51072, Note_off_c, 0, 51, 0
2, 51072, Note_on_c, 0, 50, 93
2, 51120, Note_off_c, 0, 50, 0
2, 51120, Note_on_c, 0, 44, 93
2, 51168, Note_off_c, 0, 44, 0
2, 51168, Note_on_c, 0, 51, 93
2, 51216, Note_off_c, 0, 51, 0
2, 51216, Note_on_c, 0, 48, 93
2, 51264, Note_off_c, 0, 48, 0
2, 51264, Note_on_c, 0, 50, 93
2, 51312, Note_off_c, 0, 50, 0
2, 51312, Note_on_c, 0, 44, 93
2, 51360, Note_off_c, 0, 44, 0
2, 51360, Note_on_c, 0, 58, 93
2, 51408, Note_off_c, 0, 58, 0
2, 51408, Note_on_c, 0, 50, 93
2, 51456, Note_off_c, 0, 50, 0
2, 51456, Note_on_c, 0, 51, 93
2, 51504, Note_off_c, 0, 51, 0
2, 51504, Note_on_c, 0, 43, 93
2, 51552, Note_off_c, 0, 43, 0
2, 51552, Note_on_c, 0, 53, 93
2, 51600, Note_off_c, 0, 53, 0
2, 51600, Note_on_c, 0, 50, 93
2, 51648, Note_off_c, 0, 50, 0
2, 51648, Note_on_c, 0, 51, 93
2, 51696, Note_off_c, 0, 51, 0
2, 51696, Note_on_c, 0, 43, 93
2, 51744, Note_off_c, 0, 43, 0
2, 51744, Note_on_c, 0, 58, 93
2, 51792, Note_off_c, 0, 58, 0
2, 51792, Note_on_c, 0, 51, 93
2, 51840, Note_off_c, 0, 51, 0
2, 51840, Note_on_c, 0, 53, 93
2, 51888, Note_off_c, 0, 53, 0
2, 51888, Note_on_c, 0, 46, 93
2, 51936, Note_off_c, 0, 46, 0
2, 51936, Note_on_c, 0, 55, 93
2, 51984, Note_off_c, 0, 55, 0
2, 51984, Note_on_c, 0, 51, 93
2, 52032, Note_off_c, 0, 51, 0
2, 52032, Note_on_c, 0, 53, 93
2, 52080, Note_off_c, 0, 53, 0
2, 52080, Note_on_c, 0, 46, 93
2, 52128, Note_off_c, 0, 46, 0
2, 52128, Note_on_c, 0, 58, 93
2, 52176, Note_off_c, 0, 58, 0
2, 52176, Note_on_c, 0, 53, 93
2, 52224, Note_off_c, 0, 53, 0
2, 52224, Note_on_c, 0, 56, 93
2, 52272, Note_off_c, 0, 56, 0
2, 52272, Note_on_c, 0, 55, 93
2, 52320, Note_off_c, 0, 55, 0
2, 52320, Note_on_c, 0, 53, 93
2, 52368, Note_off_c, 0, 53, 0
2, 52368, Note_on_c, 0, 51, 93
2, 52416, Note_off_c, 0, 51, 0
2, 52416, Note_on_c, 0, 56, 93
2, 52512, Note_off_c, 0, 56, 0
2, 52512, Note_on_c, 0, 46, 93
2, 52608, Note_off_c, 0, 46, 0
2, 52608, Note_on_c, 0, 53, 93
2, 52656, Note_off_c, 0, 53, 0
2, 52656, Note_on_c, 0, 51, 93
2, 52704, Note_off_c, 0, 51, 0
2, 52704, Note_on_c, 0, 53, 93
2, 52752, Note_off_c, 0, 53, 0
2, 52752, Note_on_c, 0, 50, 93
2, 52800, Note_off_c, 0, 50, 0
2, 52800, Note_on_c, 0, 60, 93
2, 52896, Note_off_c, 0, 60, 0
2, 52896, Note_on_c, 0, 58, 93
2, 52992, Note_off_c, 0, 58, 0
2, 52992, Note_on_c, 0, 51, 93
2, 53040, Note_off_c, 0, 51, 0
2, 53040, Note_on_c, 0, 50, 93
2, 53088, Note_off_c, 0, 50, 0
2, 53088, Note_on_c, 0, 51, 93
2, 53136, Note_off_c, 0, 51, 0
2, 53136, Note_on_c, 0, 48, 93
2, 53184, Note_off_c, 0, 48, 0
2, 53184, Note_on_c, 0, 50, 93
2, 53280, Note_off_c, 0, 50, 0
2, 53280, Note_on_c, 0, 56, 93
2, 53376, Note_off_c, 0, 56, 0
2, 53376, Note_on_c, 0, 51, 93
2, 53424, Note_off_c, 0, 51, 0
2, 53424, Note_on_c, 0, 53, 93
2, 53472, Note_off_c, 0, 53, 0
2, 53472, Note_on_c, 0, 55, 93
2, 53520, Note_off_c, 0, 55, 0
2, 53520, Note_on_c, 0, 51, 93
2, 53568, Note_off_c, 0, 51, 0
2, 53568, Note_on_c, 0, 46, 93
2, 53616, Note_off_c, 0, 46, 0
2, 53616, Note_on_c, 0, 53, 93
2, 53664, Note_off_c, 0, 53, 0
2, 53664, Note_on_c, 0, 51, 93
2, 53712, Note_off_c, 0, 51, 0
2, 53712, Note_on_c, 0, 50, 93
2, 53760, Note_off_c, 0, 50, 0
2, 53760, Note_on_c, 0, 51, 93
2, 53952, Note_off_c, 0, 51, 0
2, 53952, Note_on_c, 0, 39, 93
2, 54048, Note_off_c, 0, 39, 0
2, 54048, Note_on_c, 0, 51, 93
2, 54144, Note_off_c, 0, 51, 0
2, 54144, Note_on_c, 0, 58, 93
2, 54240, Note_off_c, 0, 58, 0
2, 54240, Note_on_c, 0, 60, 93
2, 54288, Note_off_c, 0, 60, 0
2, 54288, Note_on_c, 0, 57, 93
2, 54336, Note_off_c, 0, 57, 0
2, 54336, Note_on_c, 0, 58, 93
2, 54432, Note_off_c, 0, 58, 0
2, 54432, Note_on_c, 0, 60, 93
2, 54480, Note_off_c, 0, 60, 0
2, 54480, Note_on_c, 0, 55, 93
2, 54528, Note_off_c, 0, 55, 0
2, 54528, Note_on_c, 0, 58, 93
2, 54576, Note_off_c, 0, 58, 0
2, 54576, Note_on_c, 0, 57, 93
2, 54624, Note_off_c, 0, 57, 0
2, 54624, Note_on_c, 0, 55, 93
2, 54672, Note_off_c, 0, 55, 0
2, 54672, Note_on_c, 0, 53, 93
2, 54720, Note_off_c, 0, 53, 0
2, 54720, Note_on_c, 0, 57, 93
2, 54768, Note_off_c, 0, 57, 0
2, 54768, Note_on_c, 0, 55, 93
2, 54816, Note_off_c, 0, 55, 0
2, 54816, Note_on_c, 0, 59, 93
2, 54864, Note_off_c, 0, 59, 0
2, 54864, Note_on_c, 0, 57, 93
2, 54912, Note_off_c, 0, 57, 0
2, 54912, Note_on_c, 0, 60, 93
2, 54960, Note_off_c, 0, 60, 0
2, 54960, Note_on_c, 0, 59, 93
2, 55008, Note_off_c, 0, 59, 0
2, 55008, Note_on_c, 0, 62, 93
2, 55056, Note_off_c, 0, 62, 0
2, 55056, Note_on_c, 0, 59, 93
2, 55104, Note_off_c, 0, 59, 0
2, 55104, Note_on_c, 0, 60, 93
2, 55152, Note_off_c, 0, 60, 0
2, 55152, Note_on_c, 0, 51, 93
2, 55200, Note_off_c, 0, 51, 0
2, 55200, Note_on_c, 0, 50, 93
2, 55248, Note_off_c, 0, 50, 0
2, 55248, Note_on_c, 0, 48, 93
2, 55296, Note_off_c, 0, 48, 0
2, 55296, Note_on_c, 0, 43, 93
2, 55344, Note_off_c, 0, 43, 0
2, 55344, Note_on_c, 0, 50, 93
2, 55392, Note_off_c, 0, 50, 0
2, 55392, Note_on_c, 0, 60, 93
2, 55440, Note_off_c, 0, 60, 0
2, 55440, Note_on_c, 0, 59, 93
2, 55488, Note_off_c, 0, 59, 0
2, 55488, Note_on_c, 0, 63, 93
2, 55536, Note_off_c, 0, 63, 0
2, 55536, Note_on_c, 0, 55, 93
2, 55584, Note_off_c, 0, 55, 0
2, 55584, Note_on_c, 0, 56, 93
2, 55632, Note_off_c, 0, 56, 0
2, 55632, Note_on_c, 0, 53, 93
2, 55680, Note_off_c, 0, 53, 0
2, 55680, Note_on_c, 0, 62, 93
2, 55728, Note_off_c, 0, 62, 0
2, 55728, Note_on_c, 0, 53, 93
2, 55776, Note_off_c, 0, 53, 0
2, 55776, Note_on_c, 0, 55, 93
2, 55824, Note_off_c, 0, 55, 0
2, 55824, Note_on_c, 0, 51, 93
2, 55872, Note_off_c, 0, 51, 0
2, 55872, Note_on_c, 0, 60, 93
2, 55920, Note_off_c, 0, 60, 0
2, 55920, Note_on_c, 0, 51, 93
2, 55968, Note_off_c, 0, 51, 0
2, 55968, Note_on_c, 0, 53, 93
2, 56016, Note_off_c, 0, 53, 0
2, 56016, Note_on_c, 0, 50, 93
2, 56064, Note_off_c, 0, 50, 0
2, 56064, Note_on_c, 0, 43, 93
2, 56256, Note_off_c, 0, 43, 0
2, 56256, Note_on_c, 0, 60, 93
2, 56304, Note_off_c, 0, 60, 0
2, 56304, Note_on_c, 0, 51, 93
2, 56352, Note_off_c, 0, 51, 0
2, 56352, Note_on_c, 0, 53, 93
2, 56400, Note_off_c, 0, 53, 0
2, 56400, Note_on_c, 0, 50, 93
2, 56448, Note_off_c, 0, 50, 0
2, 56448, Note_on_c, 0, 58, 93
2, 56496, Note_off_c, 0, 58, 0
2, 56496, Note_on_c, 0, 50, 93
2, 56544, Note_off_c, 0, 50, 0
2, 56544, Note_on_c, 0, 51, 93
2, 56592, Note_off_c, 0, 51, 0
2, 56592, Note_on_c, 0, 48, 93
2, 56640, Note_off_c, 0, 48, 0
2, 56640, Note_on_c, 0, 56, 93
2, 56688, Note_off_c, 0, 56, 0
2, 56688, Note_on_c, 0, 48, 93
2, 56736, Note_off_c, 0, 48, 0
2, 56736, Note_on_c, 0, 50, 93
2, 56784, Note_off_c, 0, 50, 0
2, 56784, Note_on_c, 0, 47, 93
2, 56832, Note_off_c, 0, 47, 0
2, 56832, Note_on_c, 0, 55, 93
2, 56880, Note_off_c, 0, 55, 0
2, 56880, Note_on_c, 0, 53, 93
2, 56928, Note_off_c, 0, 53, 0
2, 56928, Note_on_c, 0, 51, 93
2, 56976, Note_off_c, 0, 51, 0
2, 56976, Note_on_c, 0, 50, 93
2, 57024, Note_off_c, 0, 50, 0
2, 57024, Note_on_c, 0, 39, 93
2, 57120, Note_off_c, 0, 39, 0
2, 57120, Note_on_c, 0, 51, 93
2, 57168, Note_off_c, 0, 51, 0
2, 57168, Note_on_c, 0, 48, 93
2, 57216, Note_off_c, 0, 48, 0
2, 57216, Note_on_c, 0, 50, 93
2, 57312, Note_off_c, 0, 50, 0
2, 57312, Note_on_c, 0, 51, 93
2, 57360, Note_off_c, 0, 51, 0
2, 57360, Note_on_c, 0, 48, 93
2, 57408, Note_off_c, 0, 48, 0
2, 57408, Note_on_c, 0, 50, 93
2, 57504, Note_off_c, 0, 50, 0
2, 57504, Note_on_c, 0, 53, 93
2, 57552, Note_off_c, 0, 53, 0
2, 57552, Note_on_c, 0, 50, 93
2, 57600, Note_off_c, 0, 50, 0
2, 57600, Note_on_c, 0, 43, 93
2, 57696, Note_off_c, 0, 43, 0
2, 57696, Note_on_c, 0, 53, 93
2, 57744, Note_off_c, 0, 53, 0
2, 57744, Note_on_c, 0, 50, 93
2, 57792, Note_off_c, 0, 50, 0
2, 57792, Note_on_c, 0, 51, 93
2, 57888, Note_off_c, 0, 51, 0
2, 57888, Note_on_c, 0, 56, 93
2, 57936, Note_off_c, 0, 56, 0
2, 57936, Note_on_c, 0, 53, 93
2, 57984, Note_off_c, 0, 53, 0
2, 57984, Note_on_c, 0, 55, 93
2, 58080, Note_off_c, 0, 55, 0
2, 58080, Note_on_c, 0, 39, 93
2, 58176, Note_off_c, 0, 39, 0
2, 58176, Note_on_c, 0, 48, 93
2, 58224, Note_off_c, 0, 48, 0
2, 58224, Note_on_c, 0, 50, 93
2, 58272, Note_off_c, 0, 50, 0
2, 58272, Note_on_c, 0, 43, 93
2, 58320, Note_off_c, 0, 43, 0
2, 58320, Note_on_c, 0, 47, 93
2, 58368, Note_off_c, 0, 47, 0
2, 58368, Note_on_c, 0, 48, 93
2, 58560, Note_off_c, 0, 48, 0
2, 58560, End_track
0, 0, End_of_file
