0, 0, Header, 1, 4, 96
1, 0, Start_track
1, 0, Time_signature, 4, 2, 24, 8
1, 0, Title_t, "untitled"
1, 0, Title_t, "Track1"
1, 0, Tempo, 1000000
1, 2880, Tempo, 1111111
1, 2982, Tempo, 1304347
1, 3072, Tempo, 1000000
1, 5184, Tempo, 1132075
1, 5280, Tempo, 1250000
1, 5376, Tempo, 1000000
1, 7110, Tempo, 1111111
1, 7206, Tempo, 1250000
1, 7440, Tempo, 1132075
1, 7542, Tempo, 1000000
1, 8634, Tempo, 1111111
1, 8742, Tempo, 1333333
1, 8742, Tempo, 1200000
1, 8832, Tempo, 1132075
1, 8928, Tempo, 1090909
1, 8928, Tempo, 1090909
1, 8934, Tempo, 1111111
1, 8934, Tempo, 1090909
1, 8988, Tempo, 1071428
1, 9024, Tempo, 1000000
1, 9024, Tempo, 1071428
1, 9216, Tempo, 1000000
1, 10176, Tempo, 1132075
1, 10176, Tempo, 1000000
1, 10272, Tempo, 1333333
1, 10272, Tempo, 1090909
1, 10368, Tempo, 1666666
1, 10368, Tempo, 1153846
1, 10404, Tempo, 1363636
1, 10410, Tempo, 1200000
1, 10470, Tempo, 1500000
1, 10470, Tempo, 1200000
1, 10566, Tempo, 1428571
1, 10752, Tempo, 1111111
1, 11136, Tempo, 800000
1, 25446, Tempo, 833333
1, 25542, Tempo, 895522
1, 25638, Tempo, 967741
1, 25638, Tempo, 895522
1, 25728, Tempo, 923076
1, 25926, Tempo, 800000
1, 28230, Tempo, 869565
1, 28326, Tempo, 967741
1, 28416, Tempo, 800000
1, 30528, Tempo, 869565
1, 30630, Tempo, 1000000
1, 30720, Tempo, 1250000
1, 30774, Tempo, 895522
1, 30774, Tempo, 833333
1, 30816, Tempo, 789473
1, 30822, Tempo, 833333
1, 30822, Tempo, 800000
1, 30852, Tempo, 697674
1, 31872, Tempo, 800000
1, 32070, Tempo, 895522
1, 32118, Tempo, 1052631
1, 32160, Tempo, 1132075
1, 32256, Tempo, 800000
1, 32358, Tempo, 967741
1, 32550, Tempo, 869565
1, 32598, Tempo, 800000
1, 32736, Tempo, 845070
1, 32838, Tempo, 937500
1, 32934, Tempo, 1090909
1, 32970, Tempo, 1363636
1, 33024, Tempo, 1071428
1, 33120, Tempo, 937500
1, 33216, Tempo, 845070
1, 33318, Tempo, 983606
1, 33366, Tempo, 1090909
1, 33408, Tempo, 1111111
1, 33462, Tempo, 1578947
1, 33606, Tempo, 1200000
1, 33630, Tempo, 1333333
1, 33630, Tempo, 1200000
1, 33792, Tempo, 800000
1, 33792, End_track
2, 0, Start_track
2, 0, Title_t, "Track2"
2, 0, Program_c, 0, 19
2, 0, Control_c, 0, 7, 100
2, 0, Control_c, 0, 10, 64
2, 0, Control_c, 0, 91, 127
2, 3096, Note_on_c, 0, 67, 101
2, 3120, Note_off_c, 0, 67, 0
2, 3120, Note_on_c, 0, 72, 101
2, 3144, Note_off_c, 0, 72, 0
2, 3144, Note_on_c, 0, 71, 101
2, 3168, Note_off_c, 0, 71, 0
2, 3168, Note_on_c, 0, 72, 101
2, 3180, Note_off_c, 0, 72, 0
2, 3180, Note_on_c, 0, 71, 101
2, 3192, Note_off_c, 0, 71, 0
2, 3192, Note_on_c, 0, 63, 101
2, 3216, Note_off_c, 0, 63, 0
2, 3216, Note_on_c, 0, 68, 101
2, 3240, Note_off_c, 0, 68, 0
2, 3240, Note_on_c, 0, 67, 101
2, 3264, Note_off_c, 0, 67, 0
2, 3264, Note_on_c, 0, 68, 101
2, 3360, Note_off_c, 0, 68, 0
2, 3360, Note_on_c, 0, 77, 101
2, 3528, Note_off_c, 0, 77, 0
2, 3528, Note_on_c, 0, 77, 101
2, 3552, Note_off_c, 0, 77, 0
2, 3552, Note_on_c, 0, 75, 101
2, 3672, Note_off_c, 0, 75, 0
2, 3672, Note_on_c, 0, 75, 101
2, 3696, Note_off_c, 0, 75, 0
2, 3696, Note_on_c, 0, 74, 101
2, 3702, Note_off_c, 0, 74, 0
2, 3702, Note_on_c, 0, 75, 101
2, 3708, Note_off_c, 0, 75, 0
2, 3708, Note_on_c, 0, 74, 101
2, 3720, Note_off_c, 0, 74, 0
2, 3720, Note_on_c, 0, 72, 101
2, 3744, Note_off_c, 0, 72, 0
2, 3744, Note_on_c, 0, 74, 101
2, 3864, Note_off_c, 0, 74, 0
2, 3864, Note_on_c, 0, 74, 101
2, 3888, Note_off_c, 0, 74, 0
2, 3888, Note_on_c, 0, 72, 101
2, 3900, Note_off_c, 0, 72, 0
2, 3900, Note_on_c, 0, 74, 101
2, 3912, Note_off_c, 0, 74, 0
2, 3912, Note_on_c, 0, 71, 101
2, 3936, Note_off_c, 0, 71, 0
2, 3936, Note_on_c, 0, 72, 101
2, 4056, Note_off_c, 0, 72, 0
2, 4056, Note_on_c, 0, 72, 101
2, 4080, Note_off_c, 0, 72, 0
2, 4080, Note_on_c, 0, 74, 101
2, 4104, Note_off_c, 0, 74, 0
2, 4104, Note_on_c, 0, 72, 101
2, 4128, Note_off_c, 0, 72, 0
2, 4128, Note_on_c, 0, 71, 101
2, 4152, Note_off_c, 0, 71, 0
2, 4152, Note_on_c, 0, 72, 101
2, 4176, Note_off_c, 0, 72, 0
2, 4176, Note_on_c, 0, 69, 101
2, 4200, Note_off_c, 0, 69, 0
2, 4200, Note_on_c, 0, 71, 101
2, 4224, Note_off_c, 0, 71, 0
2, 4224, Note_on_c, 0, 63, 101
2, 4416, Note_off_c, 0, 63, 0
2, 4416, Note_on_c, 0, 62, 101
2, 4824, Note_off_c, 0, 62, 0
2, 4824, Note_on_c, 0, 66, 101
2, 4848, Note_off_c, 0, 66, 0
2, 4848, Note_on_c, 0, 67, 101
2, 4872, Note_off_c, 0, 67, 0
2, 4872, Note_on_c, 0, 65, 101
2, 4896, Note_off_c, 0, 65, 0
2, 4896, Note_on_c, 0, 64, 101
2, 4920, Note_off_c, 0, 64, 0
2, 4920, Note_on_c, 0, 65, 101
2, 4944, Note_off_c, 0, 65, 0
2, 4944, Note_on_c, 0, 62, 101
2, 4968, Note_off_c, 0, 62, 0
2, 4968, Note_on_c, 0, 64, 101
2, 4992, Note_off_c, 0, 64, 0
2, 4992, Note_on_c, 0, 61, 101
2, 5184, Note_off_c, 0, 61, 0
2, 5184, Note_on_c, 0, 62, 101
2, 5376, Note_off_c, 0, 62, 0
2, 5400, Note_on_c, 0, 74, 101
2, 5424, Note_off_c, 0, 74, 0
2, 5424, Note_on_c, 0, 75, 101
2, 5448, Note_off_c, 0, 75, 0
2, 5448, Note_on_c, 0, 74, 101
2, 5472, Note_off_c, 0, 74, 0
2, 5472, Note_on_c, 0, 72, 101
2, 5496, Note_off_c, 0, 72, 0
2, 5496, Note_on_c, 0, 75, 101
2, 5520, Note_off_c, 0, 75, 0
2, 5520, Note_on_c, 0, 74, 101
2, 5544, Note_off_c, 0, 74, 0
2, 5544, Note_on_c, 0, 72, 101
2, 5568, Note_off_c, 0, 72, 0
2, 5568, Note_on_c, 0, 81, 101
2, 5760, Note_off_c, 0, 81, 0
2, 5760, Note_on_c, 0, 70, 101
2, 5952, Note_off_c, 0, 70, 0
2, 5952, Note_on_c, 0, 67, 101
2, 6144, Note_off_c, 0, 67, 0
2, 6144, Note_on_c, 0, 72, 101
2, 6360, Note_off_c, 0, 72, 0
2, 6360, Note_on_c, 0, 72, 101
2, 6384, Note_off_c, 0, 72, 0
2, 6384, Note_on_c, 0, 70, 101
2, 6408, Note_off_c, 0, 70, 0
2, 6408, Note_on_c, 0, 69, 101
2, 6432, Note_off_c, 0, 69, 0
2, 6432, Note_on_c, 0, 70, 101
2, 6576, Note_off_c, 0, 70, 0
2, 6576, Note_on_c, 0, 69, 101
2, 6624, Note_off_c, 0, 69, 0
2, 6624, Note_on_c, 0, 67, 101
2, 6672, Note_off_c, 0, 67, 0
2, 6672, Note_on_c, 0, 66, 101
2, 6720, Note_off_c, 0, 66, 0
2, 6720, Note_on_c, 0, 67, 101
2, 7032, Note_off_c, 0, 67, 0
2, 7032, Note_on_c, 0, 68, 101
2, 7056, Note_off_c, 0, 68, 0
2, 7056, Note_on_c, 0, 70, 101
2, 7080, Note_off_c, 0, 70, 0
2, 7080, Note_on_c, 0, 72, 101
2, 7104, Note_off_c, 0, 72, 0
2, 7104, Note_on_c, 0, 68, 101
2, 7296, Note_off_c, 0, 68, 0
2, 7296, Note_on_c, 0, 62, 101
2, 7332, Note_off_c, 0, 62, 0
2, 7344, Note_on_c, 0, 62, 101
2, 7380, Note_off_c, 0, 62, 0
2, 7392, Note_on_c, 0, 62, 101
2, 7428, Note_off_c, 0, 62, 0
2, 7440, Note_on_c, 0, 62, 101
2, 7476, Note_off_c, 0, 62, 0
2, 7488, Note_on_c, 0, 63, 101
2, 7560, Note_off_c, 0, 63, 0
2, 7560, Note_on_c, 0, 63, 101
2, 7584, Note_off_c, 0, 63, 0
2, 7584, Note_on_c, 0, 67, 101
2, 7656, Note_off_c, 0, 67, 0
2, 7656, Note_on_c, 0, 67, 101
2, 7680, Note_off_c, 0, 67, 0
2, 7680, Note_on_c, 0, 72, 101
2, 7800, Note_off_c, 0, 72, 0
2, 7800, Note_on_c, 0, 71, 101
2, 7824, Note_off_c, 0, 71, 0
2, 7824, Note_on_c, 0, 72, 101
2, 8112, Note_off_c, 0, 72, 0
2, 8112, Note_on_c, 0, 72, 101
2, 8160, Note_off_c, 0, 72, 0
2, 8160, Note_on_c, 0, 65, 101
2, 8304, Note_off_c, 0, 65, 0
2, 8304, Note_on_c, 0, 65, 101
2, 8352, Note_off_c, 0, 65, 0
2, 8352, Note_on_c, 0, 72, 101
2, 8400, Note_off_c, 0, 72, 0
2, 8400, Note_on_c, 0, 72, 101
2, 8472, Note_off_c, 0, 72, 0
2, 8472, Note_on_c, 0, 72, 101
2, 8496, Note_off_c, 0, 72, 0
2, 8496, Note_on_c, 0, 71, 101
2, 8520, Note_off_c, 0, 71, 0
2, 8520, Note_on_c, 0, 74, 101
2, 8544, Note_off_c, 0, 74, 0
2, 8544, Note_on_c, 0, 79, 101
2, 8568, Note_off_c, 0, 79, 0
2, 8568, Note_on_c, 0, 74, 101
2, 8592, Note_off_c, 0, 74, 0
2, 8592, Note_on_c, 0, 75, 101
2, 8616, Note_off_c, 0, 75, 0
2, 8616, Note_on_c, 0, 71, 101
2, 8640, Note_off_c, 0, 71, 0
2, 8640, Note_on_c, 0, 72, 101
2, 8832, Note_off_c, 0, 72, 0
2, 8832, Note_on_c, 0, 67, 101
2, 8868, Note_off_c, 0, 67, 0
2, 8880, Note_on_c, 0, 71, 101
2, 8916, Note_off_c, 0, 71, 0
2, 8928, Note_on_c, 0, 71, 101
2, 8964, Note_off_c, 0, 71, 0
2, 8976, Note_on_c, 0, 71, 101
2, 9024, Note_off_c, 0, 71, 0
2, 9024, Note_on_c, 0, 70, 101
2, 9060, Note_off_c, 0, 70, 0
2, 9072, Note_on_c, 0, 70, 101
2, 9108, Note_off_c, 0, 70, 0
2, 9120, Note_on_c, 0, 70, 101
2, 9156, Note_off_c, 0, 70, 0
2, 9168, Note_on_c, 0, 70, 101
2, 9216, Note_off_c, 0, 70, 0
2, 9216, Note_on_c, 0, 65, 101
2, 9312, Note_off_c, 0, 65, 0
2, 9336, Note_on_c, 0, 72, 101
2, 9360, Note_off_c, 0, 72, 0
2, 9360, Note_on_c, 0, 67, 101
2, 9384, Note_off_c, 0, 67, 0
2, 9384, Note_on_c, 0, 70, 101
2, 9408, Note_off_c, 0, 70, 0
2, 9408, Note_on_c, 0, 68, 101
2, 9960, Note_off_c, 0, 68, 0
2, 9960, Note_on_c, 0, 70, 101
2, 9984, Note_off_c, 0, 70, 0
2, 9984, Note_on_c, 0, 72, 101
2, 10296, Note_off_c, 0, 72, 0
2, 10296, Note_on_c, 0, 70, 101
2, 10320, Note_off_c, 0, 70, 0
2, 10320, Note_on_c, 0, 72, 101
2, 10344, Note_off_c, 0, 72, 0
2, 10344, Note_on_c, 0, 73, 101
2, 10368, Note_off_c, 0, 73, 0
2, 10368, Note_on_c, 0, 72, 101
2, 10392, Note_off_c, 0, 72, 0
2, 10392, Note_on_c, 0, 73, 101
2, 10416, Note_off_c, 0, 73, 0
2, 10416, Note_on_c, 0, 67, 101
2, 10464, Note_off_c, 0, 67, 0
2, 10464, Note_on_c, 0, 68, 101
2, 10536, Note_off_c, 0, 68, 0
2, 10536, Note_on_c, 0, 67, 101
2, 10680, Note_off_c, 0, 67, 0
2, 10680, Note_on_c, 0, 72, 101
2, 10728, Note_off_c, 0, 72, 0
2, 10728, Note_on_c, 0, 71, 101
2, 10752, Note_off_c, 0, 71, 0
2, 10752, Note_on_c, 0, 64, 101
2, 10944, Note_off_c, 0, 64, 0
2, 14208, Note_on_c, 0, 60, 76
2, 14232, Note_off_c, 0, 60, 0
2, 14232, Note_on_c, 0, 63, 76
2, 14256, Note_off_c, 0, 63, 0
2, 14256, Note_on_c, 0, 62, 76
2, 14280, Note_off_c, 0, 62, 0
2, 14280, Note_on_c, 0, 63, 76
2, 14304, Note_off_c, 0, 63, 0
2, 14304, Note_on_c, 0, 60, 76
2, 14340, Note_off_c, 0, 60, 0
2, 14352, Note_on_c, 0, 63, 76
2, 14388, Note_off_c, 0, 63, 0
2, 14400, Note_on_c, 0, 62, 76
2, 14496, Note_off_c, 0, 62, 0
2, 14496, Note_on_c, 0, 55, 76
2, 14574, Note_off_c, 0, 55, 0
2, 14592, Note_on_c, 0, 60, 76
2, 14616, Note_off_c, 0, 60, 0
2, 14616, Note_on_c, 0, 63, 76
2, 14640, Note_off_c, 0, 63, 0
2, 14640, Note_on_c, 0, 62, 76
2, 14664, Note_off_c, 0, 62, 0
2, 14664, Note_on_c, 0, 63, 76
2, 14688, Note_off_c, 0, 63, 0
2, 14688, Note_on_c, 0, 62, 76
2, 14712, Note_off_c, 0, 62, 0
2, 14712, Note_on_c, 0, 65, 76
2, 14736, Note_off_c, 0, 65, 0
2, 14736, Note_on_c, 0, 63, 76
2, 14760, Note_off_c, 0, 63, 0
2, 14760, Note_on_c, 0, 65, 76
2, 14784, Note_off_c, 0, 65, 0
2, 14784, Note_on_c, 0, 63, 76
2, 14880, Note_off_c, 0, 63, 0
2, 14880, Note_on_c, 0, 60, 76
2, 14958, Note_off_c, 0, 60, 0
2, 14976, Note_on_c, 0, 63, 76
2, 15000, Note_off_c, 0, 63, 0
2, 15000, Note_on_c, 0, 67, 76
2, 15024, Note_off_c, 0, 67, 0
2, 15024, Note_on_c, 0, 65, 76
2, 15048, Note_off_c, 0, 65, 0
2, 15048, Note_on_c, 0, 67, 76
2, 15072, Note_off_c, 0, 67, 0
2, 15072, Note_on_c, 0, 65, 76
2, 15096, Note_off_c, 0, 65, 0
2, 15096, Note_on_c, 0, 68, 76
2, 15120, Note_off_c, 0, 68, 0
2, 15120, Note_on_c, 0, 67, 76
2, 15144, Note_off_c, 0, 67, 0
2, 15144, Note_on_c, 0, 68, 76
2, 15168, Note_off_c, 0, 68, 0
2, 15168, Note_on_c, 0, 67, 76
2, 15240, Note_off_c, 0, 67, 0
2, 15240, Note_on_c, 0, 68, 76
2, 15264, Note_off_c, 0, 68, 0
2, 15264, Note_on_c, 0, 67, 76
2, 15288, Note_off_c, 0, 67, 0
2, 15288, Note_on_c, 0, 65, 76
2, 15312, Note_off_c, 0, 65, 0
2, 15312, Note_on_c, 0, 63, 76
2, 15336, Note_off_c, 0, 63, 0
2, 15336, Note_on_c, 0, 62, 76
2, 15360, Note_off_c, 0, 62, 0
2, 15360, Note_on_c, 0, 63, 76
2, 15384, Note_off_c, 0, 63, 0
2, 15384, Note_on_c, 0, 62, 76
2, 15408, Note_off_c, 0, 62, 0
2, 15408, Note_on_c, 0, 63, 76
2, 15432, Note_off_c, 0, 63, 0
2, 15432, Note_on_c, 0, 65, 76
2, 15456, Note_off_c, 0, 65, 0
2, 15456, Note_on_c, 0, 62, 76
2, 15468, Note_off_c, 0, 62, 0
2, 15468, Note_on_c, 0, 63, 76
2, 15480, Note_off_c, 0, 63, 0
2, 15480, Note_on_c, 0, 62, 76
2, 15528, Note_off_c, 0, 62, 0
2, 15528, Note_on_c, 0, 60, 76
2, 15552, Note_off_c, 0, 60, 0
2, 15552, Note_on_c, 0, 60, 76
2, 15600, Note_off_c, 0, 60, 0
2, 15600, Note_on_c, 0, 58, 76
2, 15624, Note_off_c, 0, 58, 0
2, 15624, Note_on_c, 0, 60, 76
2, 15648, Note_off_c, 0, 60, 0
2, 15648, Note_on_c, 0, 57, 76
2, 15660, Note_off_c, 0, 57, 0
2, 15660, Note_on_c, 0, 58, 76
2, 15672, Note_off_c, 0, 58, 0
2, 15672, Note_on_c, 0, 57, 76
2, 15720, Note_off_c, 0, 57, 0
2, 15720, Note_on_c, 0, 55, 76
2, 15744, Note_off_c, 0, 55, 0
2, 15744, Note_on_c, 0, 67, 84
2, 15768, Note_off_c, 0, 67, 0
2, 15768, Note_on_c, 0, 70, 84
2, 15792, Note_off_c, 0, 70, 0
2, 15792, Note_on_c, 0, 69, 84
2, 15816, Note_off_c, 0, 69, 0
2, 15816, Note_on_c, 0, 70, 84
2, 15840, Note_off_c, 0, 70, 0
2, 15840, Note_on_c, 0, 67, 84
2, 15876, Note_off_c, 0, 67, 0
2, 15888, Note_on_c, 0, 70, 84
2, 15924, Note_off_c, 0, 70, 0
2, 15936, Note_on_c, 0, 69, 84
2, 16032, Note_off_c, 0, 69, 0
2, 16032, Note_on_c, 0, 62, 84
2, 16110, Note_off_c, 0, 62, 0
2, 16128, Note_on_c, 0, 67, 84
2, 16152, Note_off_c, 0, 67, 0
2, 16152, Note_on_c, 0, 70, 84
2, 16176, Note_off_c, 0, 70, 0
2, 16176, Note_on_c, 0, 69, 84
2, 16200, Note_off_c, 0, 69, 0
2, 16200, Note_on_c, 0, 70, 84
2, 16224, Note_off_c, 0, 70, 0
2, 16224, Note_on_c, 0, 69, 84
2, 16248, Note_off_c, 0, 69, 0
2, 16248, Note_on_c, 0, 72, 84
2, 16272, Note_off_c, 0, 72, 0
2, 16272, Note_on_c, 0, 70, 84
2, 16296, Note_off_c, 0, 70, 0
2, 16296, Note_on_c, 0, 72, 84
2, 16320, Note_off_c, 0, 72, 0
2, 16320, Note_on_c, 0, 70, 84
2, 16416, Note_off_c, 0, 70, 0
2, 16416, Note_on_c, 0, 67, 84
2, 16494, Note_off_c, 0, 67, 0
2, 16512, Note_on_c, 0, 70, 84
2, 16536, Note_off_c, 0, 70, 0
2, 16536, Note_on_c, 0, 74, 84
2, 16560, Note_off_c, 0, 74, 0
2, 16560, Note_on_c, 0, 72, 84
2, 16584, Note_off_c, 0, 72, 0
2, 16584, Note_on_c, 0, 74, 84
2, 16608, Note_off_c, 0, 74, 0
2, 16608, Note_on_c, 0, 72, 84
2, 16632, Note_off_c, 0, 72, 0
2, 16632, Note_on_c, 0, 75, 84
2, 16656, Note_off_c, 0, 75, 0
2, 16656, Note_on_c, 0, 74, 84
2, 16680, Note_off_c, 0, 74, 0
2, 16680, Note_on_c, 0, 75, 84
2, 16704, Note_off_c, 0, 75, 0
2, 16704, Note_on_c, 0, 74, 84
2, 16776, Note_off_c, 0, 74, 0
2, 16776, Note_on_c, 0, 75, 84
2, 16800, Note_off_c, 0, 75, 0
2, 16800, Note_on_c, 0, 74, 84
2, 16824, Note_off_c, 0, 74, 0
2, 16824, Note_on_c, 0, 72, 84
2, 16848, Note_off_c, 0, 72, 0
2, 16848, Note_on_c, 0, 70, 84
2, 16872, Note_off_c, 0, 70, 0
2, 16872, Note_on_c, 0, 69, 84
2, 16896, Note_off_c, 0, 69, 0
2, 16896, Note_on_c, 0, 70, 84
2, 16920, Note_off_c, 0, 70, 0
2, 16920, Note_on_c, 0, 69, 84
2, 16944, Note_off_c, 0, 69, 0
2, 16944, Note_on_c, 0, 70, 84
2, 16968, Note_off_c, 0, 70, 0
2, 16968, Note_on_c, 0, 72, 84
2, 16992, Note_off_c, 0, 72, 0
2, 16992, Note_on_c, 0, 69, 84
2, 17040, Note_off_c, 0, 69, 0
2, 17040, Note_on_c, 0, 71, 84
2, 17064, Note_off_c, 0, 71, 0
2, 17064, Note_on_c, 0, 72, 84
2, 17088, Note_off_c, 0, 72, 0
2, 17088, Note_on_c, 0, 71, 84
2, 17112, Note_off_c, 0, 71, 0
2, 17112, Note_on_c, 0, 67, 84
2, 17136, Note_off_c, 0, 67, 0
2, 17136, Note_on_c, 0, 72, 84
2, 17160, Note_off_c, 0, 72, 0
2, 17160, Note_on_c, 0, 74, 84
2, 17184, Note_off_c, 0, 74, 0
2, 17184, Note_on_c, 0, 71, 84
2, 17196, Note_off_c, 0, 71, 0
2, 17196, Note_on_c, 0, 72, 84
2, 17208, Note_off_c, 0, 72, 0
2, 17208, Note_on_c, 0, 71, 84
2, 17256, Note_off_c, 0, 71, 0
2, 17256, Note_on_c, 0, 72, 84
2, 17280, Note_off_c, 0, 72, 0
2, 17280, Note_on_c, 0, 72, 84
2, 17304, Note_off_c, 0, 72, 0
2, 17304, Note_on_c, 0, 75, 84
2, 17328, Note_off_c, 0, 75, 0
2, 17328, Note_on_c, 0, 74, 84
2, 17352, Note_off_c, 0, 74, 0
2, 17352, Note_on_c, 0, 75, 84
2, 17376, Note_off_c, 0, 75, 0
2, 17376, Note_on_c, 0, 72, 84
2, 17412, Note_off_c, 0, 72, 0
2, 17424, Note_on_c, 0, 75, 84
2, 17460, Note_off_c, 0, 75, 0
2, 17472, Note_on_c, 0, 74, 84
2, 17568, Note_off_c, 0, 74, 0
2, 17568, Note_on_c, 0, 67, 84
2, 17646, Note_off_c, 0, 67, 0
2, 17664, Note_on_c, 0, 72, 84
2, 17688, Note_off_c, 0, 72, 0
2, 17688, Note_on_c, 0, 75, 84
2, 17712, Note_off_c, 0, 75, 0
2, 17712, Note_on_c, 0, 74, 84
2, 17736, Note_off_c, 0, 74, 0
2, 17736, Note_on_c, 0, 75, 84
2, 17760, Note_off_c, 0, 75, 0
2, 17760, Note_on_c, 0, 74, 84
2, 17784, Note_off_c, 0, 74, 0
2, 17784, Note_on_c, 0, 77, 84
2, 17808, Note_off_c, 0, 77, 0
2, 17808, Note_on_c, 0, 75, 84
2, 17832, Note_off_c, 0, 75, 0
2, 17832, Note_on_c, 0, 77, 84
2, 17856, Note_off_c, 0, 77, 0
2, 17856, Note_on_c, 0, 75, 84
2, 17952, Note_off_c, 0, 75, 0
2, 17952, Note_on_c, 0, 72, 84
2, 18030, Note_off_c, 0, 72, 0
2, 18048, Note_on_c, 0, 75, 84
2, 18072, Note_off_c, 0, 75, 0
2, 18072, Note_on_c, 0, 79, 84
2, 18096, Note_off_c, 0, 79, 0
2, 18096, Note_on_c, 0, 77, 84
2, 18120, Note_off_c, 0, 77, 0
2, 18120, Note_on_c, 0, 79, 84
2, 18144, Note_off_c, 0, 79, 0
2, 18144, Note_on_c, 0, 77, 84
2, 18168, Note_off_c, 0, 77, 0
2, 18168, Note_on_c, 0, 80, 84
2, 18192, Note_off_c, 0, 80, 0
2, 18192, Note_on_c, 0, 79, 84
2, 18216, Note_off_c, 0, 79, 0
2, 18216, Note_on_c, 0, 80, 84
2, 18240, Note_off_c, 0, 80, 0
2, 18240, Note_on_c, 0, 79, 84
2, 18312, Note_off_c, 0, 79, 0
2, 18312, Note_on_c, 0, 80, 84
2, 18336, Note_off_c, 0, 80, 0
2, 18336, Note_on_c, 0, 79, 84
2, 18360, Note_off_c, 0, 79, 0
2, 18360, Note_on_c, 0, 77, 84
2, 18384, Note_off_c, 0, 77, 0
2, 18384, Note_on_c, 0, 75, 84
2, 18408, Note_off_c, 0, 75, 0
2, 18408, Note_on_c, 0, 74, 84
2, 18432, Note_off_c, 0, 74, 0
2, 18432, Note_on_c, 0, 75, 84
2, 18456, Note_off_c, 0, 75, 0
2, 18456, Note_on_c, 0, 74, 84
2, 18480, Note_off_c, 0, 74, 0
2, 18480, Note_on_c, 0, 75, 84
2, 18504, Note_off_c, 0, 75, 0
2, 18504, Note_on_c, 0, 77, 84
2, 18528, Note_off_c, 0, 77, 0
2, 18528, Note_on_c, 0, 74, 84
2, 18540, Note_off_c, 0, 74, 0
2, 18540, Note_on_c, 0, 75, 84
2, 18552, Note_off_c, 0, 75, 0
2, 18552, Note_on_c, 0, 74, 84
2, 18600, Note_off_c, 0, 74, 0
2, 18600, Note_on_c, 0, 72, 84
2, 18624, Note_off_c, 0, 72, 0
2, 18624, Note_on_c, 0, 72, 84
2, 18744, Note_off_c, 0, 72, 0
2, 18744, Note_on_c, 0, 75, 84
2, 18768, Note_off_c, 0, 75, 0
2, 18768, Note_on_c, 0, 74, 84
2, 18792, Note_off_c, 0, 74, 0
2, 18792, Note_on_c, 0, 72, 84
2, 18816, Note_off_c, 0, 72, 0
2, 18816, Note_on_c, 0, 62, 84
2, 18864, Note_off_c, 0, 62, 0
2, 18864, Note_on_c, 0, 67, 84
2, 18960, Note_off_c, 0, 67, 0
2, 18960, Note_on_c, 0, 66, 84
2, 19008, Note_off_c, 0, 66, 0
2, 19008, Note_on_c, 0, 67, 84
2, 19056, Note_off_c, 0, 67, 0
2, 19056, Note_on_c, 0, 71, 84
2, 19104, Note_off_c, 0, 71, 0
2, 19104, Note_on_c, 0, 72, 84
2, 19152, Note_off_c, 0, 72, 0
2, 19152, Note_on_c, 0, 74, 84
2, 19176, Note_off_c, 0, 74, 0
2, 19176, Note_on_c, 0, 75, 84
2, 19200, Note_off_c, 0, 75, 0
2, 19200, Note_on_c, 0, 77, 84
2, 19224, Note_off_c, 0, 77, 0
2, 19224, Note_on_c, 0, 80, 84
2, 19248, Note_off_c, 0, 80, 0
2, 19248, Note_on_c, 0, 72, 84
2, 19296, Note_off_c, 0, 72, 0
2, 19296, Note_on_c, 0, 71, 84
2, 19392, Note_off_c, 0, 71, 0
2, 19392, Note_on_c, 0, 72, 84
2, 19440, Note_off_c, 0, 72, 0
2, 19440, Note_on_c, 0, 77, 84
2, 19464, Note_off_c, 0, 77, 0
2, 19464, Note_on_c, 0, 79, 84
2, 19488, Note_off_c, 0, 79, 0
2, 19488, Note_on_c, 0, 80, 84
2, 19512, Note_off_c, 0, 80, 0
2, 19512, Note_on_c, 0, 79, 84
2, 19536, Note_off_c, 0, 79, 0
2, 19536, Note_on_c, 0, 77, 84
2, 19560, Note_off_c, 0, 77, 0
2, 19560, Note_on_c, 0, 75, 84
2, 19584, Note_off_c, 0, 75, 0
2, 19584, Note_on_c, 0, 74, 84
2, 19608, Note_off_c, 0, 74, 0
2, 19608, Note_on_c, 0, 77, 84
2, 19632, Note_off_c, 0, 77, 0
2, 19632, Note_on_c, 0, 75, 84
2, 19656, Note_off_c, 0, 75, 0
2, 19656, Note_on_c, 0, 77, 84
2, 19680, Note_off_c, 0, 77, 0
2, 19680, Note_on_c, 0, 79, 84
2, 19704, Note_off_c, 0, 79, 0
2, 19704, Note_on_c, 0, 77, 84
2, 19728, Note_off_c, 0, 77, 0
2, 19728, Note_on_c, 0, 75, 84
2, 19752, Note_off_c, 0, 75, 0
2, 19752, Note_on_c, 0, 74, 84
2, 19776, Note_off_c, 0, 74, 0
2, 19776, Note_on_c, 0, 72, 84
2, 19800, Note_off_c, 0, 72, 0
2, 19800, Note_on_c, 0, 74, 84
2, 19824, Note_off_c, 0, 74, 0
2, 19824, Note_on_c, 0, 71, 84
2, 19848, Note_off_c, 0, 71, 0
2, 19848, Note_on_c, 0, 72, 84
2, 19872, Note_off_c, 0, 72, 0
2, 19872, Note_on_c, 0, 74, 84
2, 19896, Note_off_c, 0, 74, 0
2, 19896, Note_on_c, 0, 75, 84
2, 19920, Note_off_c, 0, 75, 0
2, 19920, Note_on_c, 0, 74, 84
2, 19944, Note_off_c, 0, 74, 0
2, 19944, Note_on_c, 0, 72, 84
2, 19968, Note_off_c, 0, 72, 0
2, 19968, Note_on_c, 0, 71, 84
2, 19992, Note_off_c, 0, 71, 0
2, 19992, Note_on_c, 0, 74, 84
2, 20016, Note_off_c, 0, 74, 0
2, 20016, Note_on_c, 0, 75, 84
2, 20040, Note_off_c, 0, 75, 0
2, 20040, Note_on_c, 0, 77, 84
2, 20064, Note_off_c, 0, 77, 0
2, 20064, Note_on_c, 0, 79, 84
2, 20088, Note_off_c, 0, 79, 0
2, 20088, Note_on_c, 0, 80, 84
2, 20112, Note_off_c, 0, 80, 0
2, 20112, Note_on_c, 0, 79, 84
2, 20136, Note_off_c, 0, 79, 0
2, 20136, Note_on_c, 0, 77, 84
2, 20160, Note_off_c, 0, 77, 0
2, 20160, Note_on_c, 0, 75, 84
2, 20184, Note_off_c, 0, 75, 0
2, 20184, Note_on_c, 0, 79, 84
2, 20208, Note_off_c, 0, 79, 0
2, 20208, Note_on_c, 0, 77, 84
2, 20232, Note_off_c, 0, 77, 0
2, 20232, Note_on_c, 0, 79, 84
2, 20256, Note_off_c, 0, 79, 0
2, 20256, Note_on_c, 0, 75, 84
2, 20280, Note_off_c, 0, 75, 0
2, 20280, Note_on_c, 0, 79, 84
2, 20304, Note_off_c, 0, 79, 0
2, 20304, Note_on_c, 0, 77, 84
2, 20328, Note_off_c, 0, 77, 0
2, 20328, Note_on_c, 0, 79, 84
2, 20352, Note_off_c, 0, 79, 0
2, 20352, Note_on_c, 0, 71, 84
2, 20376, Note_off_c, 0, 71, 0
2, 20376, Note_on_c, 0, 77, 84
2, 20400, Note_off_c, 0, 77, 0
2, 20400, Note_on_c, 0, 75, 84
2, 20424, Note_off_c, 0, 75, 0
2, 20424, Note_on_c, 0, 77, 84
2, 20448, Note_off_c, 0, 77, 0
2, 20448, Note_on_c, 0, 71, 84
2, 20472, Note_off_c, 0, 71, 0
2, 20472, Note_on_c, 0, 77, 84
2, 20496, Note_off_c, 0, 77, 0
2, 20496, Note_on_c, 0, 75, 84
2, 20520, Note_off_c, 0, 75, 0
2, 20520, Note_on_c, 0, 74, 84
2, 20544, Note_off_c, 0, 74, 0
2, 20544, Note_on_c, 0, 75, 84
2, 20568, Note_off_c, 0, 75, 0
2, 20568, Note_on_c, 0, 79, 84
2, 20592, Note_off_c, 0, 79, 0
2, 20592, Note_on_c, 0, 77, 84
2, 20616, Note_off_c, 0, 77, 0
2, 20616, Note_on_c, 0, 79, 84
2, 20640, Note_off_c, 0, 79, 0
2, 20640, Note_on_c, 0, 71, 84
2, 20664, Note_off_c, 0, 71, 0
2, 20664, Note_on_c, 0, 74, 84
2, 20688, Note_off_c, 0, 74, 0
2, 20688, Note_on_c, 0, 72, 84
2, 20712, Note_off_c, 0, 72, 0
2, 20712, Note_on_c, 0, 71, 84
2, 20736, Note_off_c, 0, 71, 0
2, 20736, Note_on_c, 0, 72, 84
2, 20760, Note_off_c, 0, 72, 0
2, 20760, Note_on_c, 0, 75, 84
2, 20784, Note_off_c, 0, 75, 0
2, 20784, Note_on_c, 0, 74, 84
2, 20808, Note_off_c, 0, 74, 0
2, 20808, Note_on_c, 0, 77, 84
2, 20832, Note_off_c, 0, 77, 0
2, 20832, Note_on_c, 0, 75, 84
2, 20856, Note_off_c, 0, 75, 0
2, 20856, Note_on_c, 0, 79, 84
2, 20880, Note_off_c, 0, 79, 0
2, 20880, Note_on_c, 0, 77, 84
2, 20904, Note_off_c, 0, 77, 0
2, 20904, Note_on_c, 0, 80, 84
2, 20928, Note_off_c, 0, 80, 0
2, 20928, Note_on_c, 0, 79, 84
2, 20952, Note_off_c, 0, 79, 0
2, 20952, Note_on_c, 0, 75, 84
2, 20976, Note_off_c, 0, 75, 0
2, 20976, Note_on_c, 0, 74, 84
2, 21000, Note_off_c, 0, 74, 0
2, 21000, Note_on_c, 0, 75, 84
2, 21024, Note_off_c, 0, 75, 0
2, 21024, Note_on_c, 0, 74, 84
2, 21048, Note_off_c, 0, 74, 0
2, 21048, Note_on_c, 0, 77, 84
2, 21072, Note_off_c, 0, 77, 0
2, 21072, Note_on_c, 0, 75, 84
2, 21096, Note_off_c, 0, 75, 0
2, 21096, Note_on_c, 0, 77, 84
2, 21120, Note_off_c, 0, 77, 0
2, 21120, Note_on_c, 0, 71, 84
2, 21144, Note_off_c, 0, 71, 0
2, 21144, Note_on_c, 0, 67, 84
2, 21168, Note_off_c, 0, 67, 0
2, 21168, Note_on_c, 0, 72, 84
2, 21192, Note_off_c, 0, 72, 0
2, 21192, Note_on_c, 0, 74, 84
2, 21216, Note_off_c, 0, 74, 0
2, 21216, Note_on_c, 0, 71, 84
2, 21228, Note_off_c, 0, 71, 0
2, 21228, Note_on_c, 0, 72, 84
2, 21240, Note_off_c, 0, 72, 0
2, 21240, Note_on_c, 0, 71, 84
2, 21288, Note_off_c, 0, 71, 0
2, 21288, Note_on_c, 0, 71, 84
2, 21312, Note_off_c, 0, 71, 0
2, 21312, Note_on_c, 0, 75, 84
2, 21336, Note_off_c, 0, 75, 0
2, 21336, Note_on_c, 0, 66, 84
2, 21360, Note_off_c, 0, 66, 0
2, 21360, Note_on_c, 0, 67, 84
2, 21384, Note_off_c, 0, 67, 0
2, 21384, Note_on_c, 0, 69, 84
2, 21408, Note_off_c, 0, 69, 0
2, 21408, Note_on_c, 0, 66, 84
2, 21420, Note_off_c, 0, 66, 0
2, 21420, Note_on_c, 0, 67, 84
2, 21432, Note_off_c, 0, 67, 0
2, 21432, Note_on_c, 0, 66, 84
2, 21480, Note_off_c, 0, 66, 0
2, 21480, Note_on_c, 0, 67, 84
2, 21504, Note_off_c, 0, 67, 0
2, 21504, Note_on_c, 0, 67, 84
2, 21528, Note_off_c, 0, 67, 0
2, 21528, Note_on_c, 0, 70, 84
2, 21552, Note_off_c, 0, 70, 0
2, 21552, Note_on_c, 0, 69, 84
2, 21576, Note_off_c, 0, 69, 0
2, 21576, Note_on_c, 0, 70, 84
2, 21600, Note_off_c, 0, 70, 0
2, 21600, Note_on_c, 0, 67, 84
2, 21648, Note_off_c, 0, 67, 0
2, 21648, Note_on_c, 0, 79, 84
2, 21696, Note_off_c, 0, 79, 0
2, 21696, Note_on_c, 0, 79, 84
2, 21720, Note_off_c, 0, 79, 0
2, 21720, Note_on_c, 0, 79, 84
2, 21744, Note_off_c, 0, 79, 0
2, 21744, Note_on_c, 0, 78, 84
2, 21768, Note_off_c, 0, 78, 0
2, 21768, Note_on_c, 0, 76, 84
2, 21792, Note_off_c, 0, 76, 0
2, 21792, Note_on_c, 0, 78, 84
2, 21816, Note_off_c, 0, 78, 0
2, 21816, Note_on_c, 0, 76, 84
2, 21840, Note_off_c, 0, 76, 0
2, 21840, Note_on_c, 0, 74, 84
2, 21864, Note_off_c, 0, 74, 0
2, 21864, Note_on_c, 0, 72, 84
2, 21888, Note_off_c, 0, 72, 0
2, 21888, Note_on_c, 0, 67, 84
2, 21912, Note_off_c, 0, 67, 0
2, 21912, Note_on_c, 0, 70, 84
2, 21936, Note_off_c, 0, 70, 0
2, 21936, Note_on_c, 0, 69, 84
2, 21960, Note_off_c, 0, 69, 0
2, 21960, Note_on_c, 0, 70, 84
2, 21984, Note_off_c, 0, 70, 0
2, 21984, Note_on_c, 0, 69, 84
2, 22008, Note_off_c, 0, 69, 0
2, 22008, Note_on_c, 0, 72, 84
2, 22032, Note_off_c, 0, 72, 0
2, 22032, Note_on_c, 0, 70, 84
2, 22056, Note_off_c, 0, 70, 0
2, 22056, Note_on_c, 0, 72, 84
2, 22080, Note_off_c, 0, 72, 0
2, 22080, Note_on_c, 0, 70, 84
2, 22176, Note_off_c, 0, 70, 0
2, 22176, Note_on_c, 0, 67, 84
2, 22272, Note_off_c, 0, 67, 0
2, 22272, Note_on_c, 0, 70, 84
2, 22296, Note_off_c, 0, 70, 0
2, 22296, Note_on_c, 0, 74, 84
2, 22320, Note_off_c, 0, 74, 0
2, 22320, Note_on_c, 0, 72, 84
2, 22344, Note_off_c, 0, 72, 0
2, 22344, Note_on_c, 0, 74, 84
2, 22368, Note_off_c, 0, 74, 0
2, 22368, Note_on_c, 0, 72, 84
2, 22392, Note_off_c, 0, 72, 0
2, 22392, Note_on_c, 0, 75, 84
2, 22416, Note_off_c, 0, 75, 0
2, 22416, Note_on_c, 0, 74, 84
2, 22440, Note_off_c, 0, 74, 0
2, 22440, Note_on_c, 0, 75, 84
2, 22464, Note_off_c, 0, 75, 0
2, 22464, Note_on_c, 0, 74, 84
2, 22536, Note_off_c, 0, 74, 0
2, 22536, Note_on_c, 0, 75, 84
2, 22560, Note_off_c, 0, 75, 0
2, 22560, Note_on_c, 0, 74, 84
2, 22584, Note_off_c, 0, 74, 0
2, 22584, Note_on_c, 0, 72, 84
2, 22608, Note_off_c, 0, 72, 0
2, 22608, Note_on_c, 0, 70, 84
2, 22632, Note_off_c, 0, 70, 0
2, 22632, Note_on_c, 0, 69, 84
2, 22656, Note_off_c, 0, 69, 0
2, 22656, Note_on_c, 0, 70, 84
2, 22680, Note_off_c, 0, 70, 0
2, 22680, Note_on_c, 0, 75, 84
2, 22704, Note_off_c, 0, 75, 0
2, 22704, Note_on_c, 0, 70, 84
2, 22728, Note_off_c, 0, 70, 0
2, 22728, Note_on_c, 0, 75, 84
2, 22752, Note_off_c, 0, 75, 0
2, 22752, Note_on_c, 0, 69, 84
2, 22776, Note_off_c, 0, 69, 0
2, 22776, Note_on_c, 0, 74, 84
2, 22800, Note_off_c, 0, 74, 0
2, 22800, Note_on_c, 0, 69, 84
2, 22824, Note_off_c, 0, 69, 0
2, 22824, Note_on_c, 0, 74, 84
2, 22848, Note_off_c, 0, 74, 0
2, 22848, Note_on_c, 0, 71, 84
2, 22872, Note_off_c, 0, 71, 0
2, 22872, Note_on_c, 0, 67, 84
2, 22896, Note_off_c, 0, 67, 0
2, 22896, Note_on_c, 0, 69, 84
2, 22920, Note_off_c, 0, 69, 0
2, 22920, Note_on_c, 0, 71, 84
2, 22944, Note_off_c, 0, 71, 0
2, 22944, Note_on_c, 0, 72, 84
2, 22968, Note_off_c, 0, 72, 0
2, 22968, Note_on_c, 0, 79, 84
2, 22992, Note_off_c, 0, 79, 0
2, 22992, Note_on_c, 0, 72, 84
2, 23016, Note_off_c, 0, 72, 0
2, 23016, Note_on_c, 0, 79, 84
2, 23040, Note_off_c, 0, 79, 0
2, 23040, Note_on_c, 0, 72, 84
2, 23064, Note_off_c, 0, 72, 0
2, 23064, Note_on_c, 0, 77, 84
2, 23088, Note_off_c, 0, 77, 0
2, 23088, Note_on_c, 0, 72, 84
2, 23112, Note_off_c, 0, 72, 0
2, 23112, Note_on_c, 0, 77, 84
2, 23136, Note_off_c, 0, 77, 0
2, 23136, Note_on_c, 0, 71, 84
2, 23160, Note_off_c, 0, 71, 0
2, 23160, Note_on_c, 0, 77, 84
2, 23184, Note_off_c, 0, 77, 0
2, 23184, Note_on_c, 0, 71, 84
2, 23208, Note_off_c, 0, 71, 0
2, 23208, Note_on_c, 0, 77, 84
2, 23232, Note_off_c, 0, 77, 0
2, 23232, Note_on_c, 0, 72, 84
2, 23256, Note_off_c, 0, 72, 0
2, 23256, Note_on_c, 0, 75, 84
2, 23280, Note_off_c, 0, 75, 0
2, 23280, Note_on_c, 0, 67, 84
2, 23304, Note_off_c, 0, 67, 0
2, 23304, Note_on_c, 0, 72, 84
2, 23328, Note_off_c, 0, 72, 0
2, 23328, Note_on_c, 0, 71, 84
2, 23352, Note_off_c, 0, 71, 0
2, 23352, Note_on_c, 0, 68, 84
2, 23376, Note_off_c, 0, 68, 0
2, 23376, Note_on_c, 0, 67, 84
2, 23400, Note_off_c, 0, 67, 0
2, 23400, Note_on_c, 0, 65, 84
2, 23424, Note_off_c, 0, 65, 0
2, 23424, Note_on_c, 0, 63, 84
2, 23448, Note_off_c, 0, 63, 0
2, 23448, Note_on_c, 0, 67, 84
2, 23472, Note_off_c, 0, 67, 0
2, 23472, Note_on_c, 0, 65, 84
2, 23496, Note_off_c, 0, 65, 0
2, 23496, Note_on_c, 0, 67, 84
2, 23520, Note_off_c, 0, 67, 0
2, 23520, Note_on_c, 0, 63, 84
2, 23568, Note_off_c, 0, 63, 0
2, 23568, Note_on_c, 0, 63, 84
2, 23616, Note_off_c, 0, 63, 0
2, 23616, Note_on_c, 0, 65, 84
2, 23664, Note_off_c, 0, 65, 0
2, 23664, Note_on_c, 0, 65, 84
2, 23712, Note_off_c, 0, 65, 0
2, 23712, Note_on_c, 0, 65, 84
2, 23760, Note_off_c, 0, 65, 0
2, 23760, Note_on_c, 0, 65, 84
2, 23808, Note_off_c, 0, 65, 0
2, 23808, Note_on_c, 0, 63, 84
2, 23880, Note_off_c, 0, 63, 0
2, 23880, Note_on_c, 0, 60, 84
2, 23904, Note_off_c, 0, 60, 0
2, 23904, Note_on_c, 0, 59, 93
2, 23928, Note_off_c, 0, 59, 0
2, 23928, Note_on_c, 0, 62, 84
2, 23952, Note_off_c, 0, 62, 0
2, 23952, Note_on_c, 0, 60, 84
2, 23976, Note_off_c, 0, 60, 0
2, 23976, Note_on_c, 0, 62, 84
2, 24000, Note_off_c, 0, 62, 0
2, 24000, Note_on_c, 0, 60, 84
2, 24024, Note_off_c, 0, 60, 0
2, 24024, Note_on_c, 0, 67, 84
2, 24048, Note_off_c, 0, 67, 0
2, 24048, Note_on_c, 0, 60, 84
2, 24072, Note_off_c, 0, 60, 0
2, 24072, Note_on_c, 0, 65, 84
2, 24096, Note_off_c, 0, 65, 0
2, 24096, Note_on_c, 0, 60, 84
2, 24120, Note_off_c, 0, 60, 0
2, 24120, Note_on_c, 0, 63, 84
2, 24144, Note_off_c, 0, 63, 0
2, 24144, Note_on_c, 0, 59, 93
2, 24168, Note_off_c, 0, 59, 0
2, 24168, Note_on_c, 0, 62, 84
2, 24192, Note_off_c, 0, 62, 0
2, 24192, Note_on_c, 0, 60, 84
2, 24240, Note_off_c, 0, 60, 0
2, 24240, Note_on_c, 0, 63, 84
2, 24288, Note_off_c, 0, 63, 0
2, 24288, Note_on_c, 0, 62, 84
2, 24336, Note_off_c, 0, 62, 0
2, 24336, Note_on_c, 0, 65, 84
2, 24384, Note_off_c, 0, 65, 0
2, 24384, Note_on_c, 0, 65, 84
2, 24408, Note_off_c, 0, 65, 0
2, 24408, Note_on_c, 0, 62, 84
2, 24432, Note_off_c, 0, 62, 0
2, 24432, Note_on_c, 0, 63, 84
2, 24456, Note_off_c, 0, 63, 0
2, 24456, Note_on_c, 0, 65, 84
2, 24480, Note_off_c, 0, 65, 0
2, 24480, Note_on_c, 0, 67, 84
2, 24504, Note_off_c, 0, 67, 0
2, 24504, Note_on_c, 0, 68, 84
2, 24528, Note_off_c, 0, 68, 0
2, 24528, Note_on_c, 0, 67, 84
2, 24552, Note_off_c, 0, 67, 0
2, 24552, Note_on_c, 0, 65, 84
2, 24576, Note_off_c, 0, 65, 0
2, 24576, Note_on_c, 0, 60, 84
2, 24672, Note_off_c, 0, 60, 0
2, 24672, Note_on_c, 0, 62, 84
2, 24684, Note_off_c, 0, 62, 0
2, 24684, Note_on_c, 0, 63, 84
2, 24696, Note_off_c, 0, 63, 0
2, 24696, Note_on_c, 0, 62, 84
2, 24744, Note_off_c, 0, 62, 0
2, 24744, Note_on_c, 0, 62, 84
2, 24768, Note_off_c, 0, 62, 0
2, 24768, Note_on_c, 0, 57, 84
2, 24816, Note_off_c, 0, 57, 0
2, 24816, Note_on_c, 0, 69, 84
2, 24888, Note_off_c, 0, 69, 0
2, 24888, Note_on_c, 0, 67, 84
2, 24912, Note_off_c, 0, 67, 0
2, 24912, Note_on_c, 0, 65, 84
2, 24960, Note_off_c, 0, 65, 0
2, 24960, Note_on_c, 0, 67, 84
2, 25008, Note_off_c, 0, 67, 0
2, 25008, Note_on_c, 0, 74, 84
2, 25080, Note_off_c, 0, 74, 0
2, 25080, Note_on_c, 0, 72, 84
2, 25104, Note_off_c, 0, 72, 0
2, 25104, Note_on_c, 0, 70, 84
2, 25176, Note_off_c, 0, 70, 0
2, 25176, Note_on_c, 0, 69, 84
2, 25200, Note_off_c, 0, 69, 0
2, 25200, Note_on_c, 0, 67, 84
2, 25272, Note_off_c, 0, 67, 0
2, 25272, Note_on_c, 0, 67, 84
2, 25296, Note_off_c, 0, 67, 0
2, 25296, Note_on_c, 0, 65, 84
2, 25368, Note_off_c, 0, 65, 0
2, 25368, Note_on_c, 0, 65, 84
2, 25392, Note_off_c, 0, 65, 0
2, 25392, Note_on_c, 0, 63, 84
2, 25416, Note_off_c, 0, 63, 0
2, 25416, Note_on_c, 0, 62, 84
2, 25440, Note_off_c, 0, 62, 0
2, 25440, Note_on_c, 0, 63, 84
2, 25488, Note_off_c, 0, 63, 0
2, 25488, Note_on_c, 0, 62, 84
2, 25536, Note_off_c, 0, 62, 0
2, 25536, Note_on_c, 0, 60, 84
2, 25584, Note_off_c, 0, 60, 0
2, 25608, Note_on_c, 0, 63, 84
2, 25656, Note_off_c, 0, 63, 0
2, 25656, Note_on_c, 0, 62, 84
2, 25704, Note_off_c, 0, 62, 0
2, 25704, Note_on_c, 0, 60, 84
2, 25752, Note_off_c, 0, 60, 0
2, 25752, Note_on_c, 0, 60, 84
2, 25776, Note_off_c, 0, 60, 0
2, 25776, Note_on_c, 0, 62, 84
2, 25800, Note_off_c, 0, 62, 0
2, 25800, Note_on_c, 0, 60, 84
2, 25824, Note_off_c, 0, 60, 0
2, 25824, Note_on_c, 0, 59, 84
2, 25848, Note_off_c, 0, 59, 0
2, 25848, Note_on_c, 0, 60, 84
2, 25872, Note_off_c, 0, 60, 0
2, 25872, Note_on_c, 0, 57, 84
2, 25896, Note_off_c, 0, 57, 0
2, 25896, Note_on_c, 0, 59, 84
2, 25920, Note_off_c, 0, 59, 0
2, 25920, Note_on_c, 0, 60, 101
2, 25944, Note_off_c, 0, 60, 0
2, 25944, Note_on_c, 0, 63, 101
2, 25968, Note_off_c, 0, 63, 0
2, 25968, Note_on_c, 0, 62, 101
2, 25992, Note_off_c, 0, 62, 0
2, 25992, Note_on_c, 0, 63, 101
2, 26016, Note_off_c, 0, 63, 0
2, 26016, Note_on_c, 0, 60, 101
2, 26064, Note_off_c, 0, 60, 0
2, 26064, Note_on_c, 0, 60, 101
2, 26112, Note_off_c, 0, 60, 0
2, 26112, Note_on_c, 0, 59, 101
2, 26208, Note_off_c, 0, 59, 0
2, 26208, Note_on_c, 0, 59, 101
2, 26304, Note_off_c, 0, 59, 0
2, 26304, Note_on_c, 0, 60, 101
2, 26400, Note_off_c, 0, 60, 0
2, 26472, Note_on_c, 0, 72, 101
2, 26496, Note_off_c, 0, 72, 0
2, 26520, Note_on_c, 0, 72, 101
2, 26544, Note_off_c, 0, 72, 0
2, 26568, Note_on_c, 0, 72, 101
2, 26592, Note_off_c, 0, 72, 0
2, 26616, Note_on_c, 0, 71, 101
2, 26640, Note_off_c, 0, 71, 0
2, 26664, Note_on_c, 0, 71, 101
2, 26688, Note_off_c, 0, 71, 0
2, 26688, Note_on_c, 0, 72, 101
2, 26736, Note_off_c, 0, 72, 0
2, 26784, Note_on_c, 0, 71, 101
2, 26832, Note_off_c, 0, 71, 0
2, 26904, Note_on_c, 0, 72, 101
2, 26928, Note_off_c, 0, 72, 0
2, 26952, Note_on_c, 0, 74, 101
2, 26976, Note_off_c, 0, 74, 0
2, 27000, Note_on_c, 0, 75, 101
2, 27024, Note_off_c, 0, 75, 0
2, 27048, Note_on_c, 0, 77, 101
2, 27072, Note_off_c, 0, 77, 0
2, 27072, Note_on_c, 0, 79, 101
2, 27120, Note_off_c, 0, 79, 0
2, 27168, Note_on_c, 0, 72, 101
2, 27216, Note_off_c, 0, 72, 0
2, 27264, Note_on_c, 0, 71, 101
2, 27312, Note_off_c, 0, 71, 0
2, 27456, Note_on_c, 0, 72, 101
2, 27504, Note_off_c, 0, 72, 0
2, 27648, Note_on_c, 0, 65, 101
2, 27696, Note_off_c, 0, 65, 0
2, 27840, Note_on_c, 0, 77, 101
2, 27888, Note_off_c, 0, 77, 0
2, 28032, Note_on_c, 0, 79, 101
2, 28080, Note_off_c, 0, 79, 0
2, 28224, Note_on_c, 0, 67, 101
2, 28260, Note_off_c, 0, 67, 0
2, 28272, Note_on_c, 0, 68, 101
2, 28308, Note_off_c, 0, 68, 0
2, 28320, Note_on_c, 0, 67, 101
2, 28398, Note_off_c, 0, 67, 0
2, 28416, Note_on_c, 0, 72, 101
2, 28440, Note_off_c, 0, 72, 0
2, 28440, Note_on_c, 0, 75, 101
2, 28464, Note_off_c, 0, 75, 0
2, 28464, Note_on_c, 0, 74, 101
2, 28488, Note_off_c, 0, 74, 0
2, 28488, Note_on_c, 0, 75, 101
2, 28512, Note_off_c, 0, 75, 0
2, 28512, Note_on_c, 0, 72, 101
2, 28536, Note_off_c, 0, 72, 0
2, 28536, Note_on_c, 0, 75, 101
2, 28560, Note_off_c, 0, 75, 0
2, 28560, Note_on_c, 0, 74, 101
2, 28584, Note_off_c, 0, 74, 0
2, 28584, Note_on_c, 0, 75, 101
2, 28608, Note_off_c, 0, 75, 0
2, 28608, Note_on_c, 0, 74, 101
2, 28632, Note_off_c, 0, 74, 0
2, 28632, Note_on_c, 0, 77, 101
2, 28656, Note_off_c, 0, 77, 0
2, 28656, Note_on_c, 0, 75, 101
2, 28680, Note_off_c, 0, 75, 0
2, 28680, Note_on_c, 0, 77, 101
2, 28704, Note_off_c, 0, 77, 0
2, 28704, Note_on_c, 0, 74, 101
2, 28728, Note_off_c, 0, 74, 0
2, 28728, Note_on_c, 0, 77, 101
2, 28752, Note_off_c, 0, 77, 0
2, 28752, Note_on_c, 0, 75, 101
2, 28776, Note_off_c, 0, 75, 0
2, 28776, Note_on_c, 0, 77, 101
2, 28800, Note_off_c, 0, 77, 0
2, 28800, Note_on_c, 0, 60, 101
2, 28824, Note_off_c, 0, 60, 0
2, 28824, Note_on_c, 0, 63, 101
2, 28848, Note_off_c, 0, 63, 0
2, 28848, Note_on_c, 0, 62, 101
2, 28872, Note_off_c, 0, 62, 0
2, 28872, Note_on_c, 0, 63, 101
2, 28896, Note_off_c, 0, 63, 0
2, 28896, Note_on_c, 0, 60, 101
2, 28920, Note_off_c, 0, 60, 0
2, 28920, Note_on_c, 0, 63, 101
2, 28944, Note_off_c, 0, 63, 0
2, 28944, Note_on_c, 0, 62, 101
2, 28968, Note_off_c, 0, 62, 0
2, 28968, Note_on_c, 0, 63, 101
2, 28992, Note_off_c, 0, 63, 0
2, 28992, Note_on_c, 0, 62, 101
2, 29016, Note_off_c, 0, 62, 0
2, 29016, Note_on_c, 0, 65, 101
2, 29040, Note_off_c, 0, 65, 0
2, 29040, Note_on_c, 0, 63, 101
2, 29064, Note_off_c, 0, 63, 0
2, 29064, Note_on_c, 0, 65, 101
2, 29088, Note_off_c, 0, 65, 0
2, 29088, Note_on_c, 0, 62, 101
2, 29112, Note_off_c, 0, 62, 0
2, 29112, Note_on_c, 0, 65, 101
2, 29136, Note_off_c, 0, 65, 0
2, 29136, Note_on_c, 0, 63, 101
2, 29160, Note_off_c, 0, 63, 0
2, 29160, Note_on_c, 0, 65, 101
2, 29184, Note_off_c, 0, 65, 0
2, 29184, Note_on_c, 0, 63, 101
2, 29208, Note_off_c, 0, 63, 0
2, 29208, Note_on_c, 0, 67, 101
2, 29232, Note_off_c, 0, 67, 0
2, 29232, Note_on_c, 0, 72, 101
2, 29256, Note_off_c, 0, 72, 0
2, 29256, Note_on_c, 0, 67, 101
2, 29280, Note_off_c, 0, 67, 0
2, 29280, Note_on_c, 0, 63, 101
2, 29304, Note_off_c, 0, 63, 0
2, 29304, Note_on_c, 0, 67, 101
2, 29328, Note_off_c, 0, 67, 0
2, 29328, Note_on_c, 0, 72, 101
2, 29352, Note_off_c, 0, 72, 0
2, 29352, Note_on_c, 0, 67, 101
2, 29376, Note_off_c, 0, 67, 0
2, 29376, Note_on_c, 0, 63, 101
2, 29400, Note_off_c, 0, 63, 0
2, 29400, Note_on_c, 0, 67, 101
2, 29424, Note_off_c, 0, 67, 0
2, 29424, Note_on_c, 0, 72, 101
2, 29448, Note_off_c, 0, 72, 0
2, 29448, Note_on_c, 0, 67, 101
2, 29472, Note_off_c, 0, 67, 0
2, 29472, Note_on_c, 0, 63, 101
2, 29496, Note_off_c, 0, 63, 0
2, 29496, Note_on_c, 0, 67, 101
2, 29520, Note_off_c, 0, 67, 0
2, 29520, Note_on_c, 0, 72, 101
2, 29544, Note_off_c, 0, 72, 0
2, 29544, Note_on_c, 0, 67, 101
2, 29568, Note_off_c, 0, 67, 0
2, 29568, Note_on_c, 0, 62, 101
2, 29592, Note_off_c, 0, 62, 0
2, 29592, Note_on_c, 0, 65, 101
2, 29616, Note_off_c, 0, 65, 0
2, 29616, Note_on_c, 0, 68, 101
2, 29640, Note_off_c, 0, 68, 0
2, 29640, Note_on_c, 0, 65, 101
2, 29664, Note_off_c, 0, 65, 0
2, 29664, Note_on_c, 0, 62, 101
2, 29688, Note_off_c, 0, 62, 0
2, 29688, Note_on_c, 0, 65, 101
2, 29712, Note_off_c, 0, 65, 0
2, 29712, Note_on_c, 0, 71, 101
2, 29736, Note_off_c, 0, 71, 0
2, 29736, Note_on_c, 0, 65, 101
2, 29760, Note_off_c, 0, 65, 0
2, 29760, Note_on_c, 0, 62, 101
2, 29784, Note_off_c, 0, 62, 0
2, 29784, Note_on_c, 0, 65, 101
2, 29808, Note_off_c, 0, 65, 0
2, 29808, Note_on_c, 0, 68, 101
2, 29832, Note_off_c, 0, 68, 0
2, 29832, Note_on_c, 0, 65, 101
2, 29856, Note_off_c, 0, 65, 0
2, 29856, Note_on_c, 0, 62, 101
2, 29880, Note_off_c, 0, 62, 0
2, 29880, Note_on_c, 0, 65, 101
2, 29904, Note_off_c, 0, 65, 0
2, 29904, Note_on_c, 0, 71, 101
2, 29928, Note_off_c, 0, 71, 0
2, 29928, Note_on_c, 0, 65, 101
2, 29952, Note_off_c, 0, 65, 0
2, 29952, Note_on_c, 0, 75, 101
2, 30000, Note_off_c, 0, 75, 0
2, 30144, Note_on_c, 0, 74, 101
2, 30192, Note_off_c, 0, 74, 0
2, 30336, Note_on_c, 0, 72, 101
2, 30384, Note_off_c, 0, 72, 0
2, 30528, Note_on_c, 0, 72, 101
2, 30576, Note_off_c, 0, 72, 0
2, 30720, Note_on_c, 0, 62, 101
2, 30768, Note_off_c, 0, 62, 0
2, 30840, Note_on_c, 0, 62, 101
2, 30864, Note_off_c, 0, 62, 0
2, 30864, Note_on_c, 0, 63, 101
2, 30888, Note_off_c, 0, 63, 0
2, 30888, Note_on_c, 0, 65, 101
2, 30912, Note_off_c, 0, 65, 0
2, 30912, Note_on_c, 0, 63, 101
2, 30936, Note_off_c, 0, 63, 0
2, 30936, Note_on_c, 0, 65, 101
2, 30960, Note_off_c, 0, 65, 0
2, 30960, Note_on_c, 0, 63, 101
2, 30984, Note_off_c, 0, 63, 0
2, 30984, Note_on_c, 0, 62, 101
2, 31008, Note_off_c, 0, 62, 0
2, 31008, Note_on_c, 0, 60, 101
2, 31032, Note_off_c, 0, 60, 0
2, 31032, Note_on_c, 0, 63, 101
2, 31056, Note_off_c, 0, 63, 0
2, 31056, Note_on_c, 0, 60, 101
2, 31080, Note_off_c, 0, 60, 0
2, 31080, Note_on_c, 0, 63, 101
2, 31104, Note_off_c, 0, 63, 0
2, 31104, Note_on_c, 0, 77, 101
2, 31128, Note_off_c, 0, 77, 0
2, 31128, Note_on_c, 0, 79, 101
2, 31152, Note_off_c, 0, 79, 0
2, 31152, Note_on_c, 0, 77, 101
2, 31176, Note_off_c, 0, 77, 0
2, 31176, Note_on_c, 0, 75, 101
2, 31200, Note_off_c, 0, 75, 0
2, 31200, Note_on_c, 0, 74, 101
2, 31224, Note_off_c, 0, 74, 0
2, 31224, Note_on_c, 0, 79, 101
2, 31248, Note_off_c, 0, 79, 0
2, 31248, Note_on_c, 0, 74, 101
2, 31272, Note_off_c, 0, 74, 0
2, 31272, Note_on_c, 0, 79, 101
2, 31296, Note_off_c, 0, 79, 0
2, 31296, Note_on_c, 0, 75, 101
2, 31320, Note_off_c, 0, 75, 0
2, 31320, Note_on_c, 0, 77, 101
2, 31344, Note_off_c, 0, 77, 0
2, 31344, Note_on_c, 0, 75, 101
2, 31368, Note_off_c, 0, 75, 0
2, 31368, Note_on_c, 0, 74, 101
2, 31392, Note_off_c, 0, 74, 0
2, 31392, Note_on_c, 0, 72, 101
2, 31416, Note_off_c, 0, 72, 0
2, 31416, Note_on_c, 0, 77, 101
2, 31440, Note_off_c, 0, 77, 0
2, 31440, Note_on_c, 0, 72, 101
2, 31464, Note_off_c, 0, 72, 0
2, 31464, Note_on_c, 0, 77, 101
2, 31488, Note_off_c, 0, 77, 0
2, 31488, Note_on_c, 0, 74, 101
2, 31512, Note_off_c, 0, 74, 0
2, 31512, Note_on_c, 0, 75, 101
2, 31536, Note_off_c, 0, 75, 0
2, 31536, Note_on_c, 0, 74, 101
2, 31560, Note_off_c, 0, 74, 0
2, 31560, Note_on_c, 0, 72, 101
2, 31584, Note_off_c, 0, 72, 0
2, 31584, Note_on_c, 0, 71, 101
2, 31608, Note_off_c, 0, 71, 0
2, 31608, Note_on_c, 0, 80, 101
2, 31632, Note_off_c, 0, 80, 0
2, 31632, Note_on_c, 0, 71, 101
2, 31656, Note_off_c, 0, 71, 0
2, 31656, Note_on_c, 0, 80, 101
2, 31680, Note_off_c, 0, 80, 0
2, 31680, Note_on_c, 0, 79, 101
2, 31704, Note_off_c, 0, 79, 0
2, 31704, Note_on_c, 0, 80, 101
2, 31728, Note_off_c, 0, 80, 0
2, 31728, Note_on_c, 0, 75, 101
2, 31752, Note_off_c, 0, 75, 0
2, 31752, Note_on_c, 0, 79, 101
2, 31776, Note_off_c, 0, 79, 0
2, 31776, Note_on_c, 0, 77, 101
2, 31800, Note_off_c, 0, 77, 0
2, 31800, Note_on_c, 0, 74, 101
2, 31824, Note_off_c, 0, 74, 0
2, 31824, Note_on_c, 0, 71, 101
2, 31848, Note_off_c, 0, 71, 0
2, 31848, Note_on_c, 0, 79, 101
2, 31872, Note_off_c, 0, 79, 0
2, 31872, Note_on_c, 0, 75, 101
2, 31896, Note_off_c, 0, 75, 0
2, 31896, Note_on_c, 0, 72, 101
2, 31920, Note_off_c, 0, 72, 0
2, 31920, Note_on_c, 0, 77, 101
2, 31944, Note_off_c, 0, 77, 0
2, 31944, Note_on_c, 0, 75, 101
2, 31968, Note_off_c, 0, 75, 0
2, 31968, Note_on_c, 0, 74, 101
2, 31992, Note_off_c, 0, 74, 0
2, 31992, Note_on_c, 0, 72, 101
2, 32016, Note_off_c, 0, 72, 0
2, 32016, Note_on_c, 0, 71, 101
2, 32040, Note_off_c, 0, 71, 0
2, 32040, Note_on_c, 0, 74, 101
2, 32064, Note_off_c, 0, 74, 0
2, 32064, Note_on_c, 0, 72, 101
2, 32088, Note_off_c, 0, 72, 0
2, 32088, Note_on_c, 0, 69, 101
2, 32112, Note_off_c, 0, 69, 0
2, 32112, Note_on_c, 0, 74, 101
2, 32136, Note_off_c, 0, 74, 0
2, 32136, Note_on_c, 0, 72, 101
2, 32160, Note_off_c, 0, 72, 0
2, 32160, Note_on_c, 0, 71, 101
2, 32208, Note_off_c, 0, 71, 0
2, 32352, Note_on_c, 0, 72, 101
2, 32448, Note_off_c, 0, 72, 0
2, 32556, Note_on_c, 0, 55, 101
2, 32568, Note_off_c, 0, 55, 0
2, 32568, Note_on_c, 0, 57, 101
2, 32580, Note_off_c, 0, 57, 0
2, 32580, Note_on_c, 0, 59, 101
2, 32592, Note_off_c, 0, 59, 0
2, 32592, Note_on_c, 0, 60, 101
2, 32604, Note_off_c, 0, 60, 0
2, 32604, Note_on_c, 0, 62, 101
2, 32616, Note_off_c, 0, 62, 0
2, 32616, Note_on_c, 0, 64, 101
2, 32628, Note_off_c, 0, 64, 0
2, 32628, Note_on_c, 0, 65, 101
2, 32640, Note_off_c, 0, 65, 0
2, 32640, Note_on_c, 0, 67, 101
2, 32652, Note_off_c, 0, 67, 0
2, 32652, Note_on_c, 0, 72, 101
2, 32664, Note_off_c, 0, 72, 0
2, 32664, Note_on_c, 0, 71, 101
2, 32676, Note_off_c, 0, 71, 0
2, 32676, Note_on_c, 0, 69, 101
2, 32688, Note_off_c, 0, 69, 0
2, 32688, Note_on_c, 0, 67, 101
2, 32700, Note_off_c, 0, 67, 0
2, 32700, Note_on_c, 0, 77, 101
2, 32712, Note_off_c, 0, 77, 0
2, 32712, Note_on_c, 0, 76, 101
2, 32724, Note_off_c, 0, 76, 0
2, 32724, Note_on_c, 0, 74, 101
2, 32736, Note_off_c, 0, 74, 0
2, 32736, Note_on_c, 0, 72, 101
2, 32748, Note_off_c, 0, 72, 0
2, 32748, Note_on_c, 0, 80, 101
2, 32760, Note_off_c, 0, 80, 0
2, 32760, Note_on_c, 0, 79, 101
2, 32772, Note_off_c, 0, 79, 0
2, 32772, Note_on_c, 0, 77, 101
2, 32784, Note_off_c, 0, 77, 0
2, 32784, Note_on_c, 0, 79, 101
2, 32796, Note_off_c, 0, 79, 0
2, 32796, Note_on_c, 0, 77, 101
2, 32808, Note_off_c, 0, 77, 0
2, 32808, Note_on_c, 0, 76, 101
2, 32820, Note_off_c, 0, 76, 0
2, 32820, Note_on_c, 0, 74, 101
2, 32832, Note_off_c, 0, 74, 0
2, 32832, Note_on_c, 0, 72, 101
2, 32844, Note_off_c, 0, 72, 0
2, 32844, Note_on_c, 0, 76, 101
2, 32856, Note_off_c, 0, 76, 0
2, 32856, Note_on_c, 0, 74, 101
2, 32868, Note_off_c, 0, 74, 0
2, 32868, Note_on_c, 0, 72, 101
2, 32880, Note_off_c, 0, 72, 0
2, 32880, Note_on_c, 0, 71, 101
2, 32892, Note_off_c, 0, 71, 0
2, 32892, Note_on_c, 0, 72, 101
2, 32904, Note_off_c, 0, 72, 0
2, 32904, Note_on_c, 0, 69, 101
2, 32916, Note_off_c, 0, 69, 0
2, 32916, Note_on_c, 0, 71, 101
2, 32928, Note_off_c, 0, 71, 0
2, 32928, Note_on_c, 0, 72, 101
2, 32940, Note_off_c, 0, 72, 0
2, 32940, Note_on_c, 0, 67, 101
2, 32952, Note_off_c, 0, 67, 0
2, 32952, Note_on_c, 0, 68, 101
2, 32964, Note_off_c, 0, 68, 0
2, 32964, Note_on_c, 0, 70, 101
2, 32976, Note_off_c, 0, 70, 0
2, 32976, Note_on_c, 0, 68, 101
2, 32988, Note_off_c, 0, 68, 0
2, 32988, Note_on_c, 0, 70, 101
2, 33000, Note_off_c, 0, 70, 0
2, 33000, Note_on_c, 0, 68, 101
2, 33006, Note_off_c, 0, 68, 0
2, 33006, Note_on_c, 0, 68, 101
2, 33012, Note_off_c, 0, 68, 0
2, 33012, Note_on_c, 0, 67, 101
2, 33024, Note_off_c, 0, 67, 0
2, 33024, Note_on_c, 0, 68, 101
2, 33036, Note_off_c, 0, 68, 0
2, 33036, Note_on_c, 0, 60, 101
2, 33048, Note_off_c, 0, 60, 0
2, 33048, Note_on_c, 0, 62, 101
2, 33060, Note_off_c, 0, 62, 0
2, 33060, Note_on_c, 0, 64, 101
2, 33072, Note_off_c, 0, 64, 0
2, 33072, Note_on_c, 0, 65, 101
2, 33084, Note_off_c, 0, 65, 0
2, 33084, Note_on_c, 0, 67, 101
2, 33096, Note_off_c, 0, 67, 0
2, 33096, Note_on_c, 0, 68, 101
2, 33108, Note_off_c, 0, 68, 0
2, 33108, Note_on_c, 0, 70, 101
2, 33120, Note_off_c, 0, 70, 0
2, 33120, Note_on_c, 0, 68, 101
2, 33132, Note_off_c, 0, 68, 0
2, 33132, Note_on_c, 0, 65, 101
2, 33144, Note_off_c, 0, 65, 0
2, 33144, Note_on_c, 0, 67, 101
2, 33156, Note_off_c, 0, 67, 0
2, 33156, Note_on_c, 0, 68, 101
2, 33168, Note_off_c, 0, 68, 0
2, 33168, Note_on_c, 0, 70, 101
2, 33180, Note_off_c, 0, 70, 0
2, 33180, Note_on_c, 0, 73, 101
2, 33192, Note_off_c, 0, 73, 0
2, 33192, Note_on_c, 0, 72, 101
2, 33204, Note_off_c, 0, 72, 0
2, 33204, Note_on_c, 0, 70, 101
2, 33216, Note_off_c, 0, 70, 0
2, 33216, Note_on_c, 0, 72, 101
2, 33228, Note_off_c, 0, 72, 0
2, 33228, Note_on_c, 0, 70, 101
2, 33240, Note_off_c, 0, 70, 0
2, 33240, Note_on_c, 0, 68, 101
2, 33252, Note_off_c, 0, 68, 0
2, 33252, Note_on_c, 0, 67, 101
2, 33264, Note_off_c, 0, 67, 0
2, 33264, Note_on_c, 0, 65, 101
2, 33276, Note_off_c, 0, 65, 0
2, 33276, Note_on_c, 0, 70, 101
2, 33288, Note_off_c, 0, 70, 0
2, 33288, Note_on_c, 0, 68, 101
2, 33300, Note_off_c, 0, 68, 0
2, 33300, Note_on_c, 0, 67, 101
2, 33312, Note_off_c, 0, 67, 0
2, 33312, Note_on_c, 0, 65, 101
2, 33324, Note_off_c, 0, 65, 0
2, 33324, Note_on_c, 0, 61, 101
2, 33336, Note_off_c, 0, 61, 0
2, 33336, Note_on_c, 0, 60, 101
2, 33348, Note_off_c, 0, 60, 0
2, 33348, Note_on_c, 0, 59, 101
2, 33360, Note_off_c, 0, 59, 0
2, 33360, Note_on_c, 0, 60, 101
2, 33372, Note_off_c, 0, 60, 0
2, 33372, Note_on_c, 0, 62, 101
2, 33384, Note_off_c, 0, 62, 0
2, 33384, Note_on_c, 0, 64, 101
2, 33396, Note_off_c, 0, 64, 0
2, 33396, Note_on_c, 0, 65, 101
2, 33408, Note_off_c, 0, 65, 0
2, 33408, Note_on_c, 0, 67, 101
2, 33792, Note_off_c, 0, 67, 0
2, 33792, End_track
3, 0, Start_track
3, 0, Title_t, "Track3"
3, 0, Program_c, 1, 19
3, 0, Control_c, 1, 7, 100
3, 0, Control_c, 1, 10, 64
3, 3384, Note_on_c, 1, 53, 93
3, 3408, Note_off_c, 1, 53, 0
3, 3408, Note_on_c, 1, 56, 93
3, 3432, Note_off_c, 1, 56, 0
3, 3432, Note_on_c, 1, 53, 93
3, 3456, Note_off_c, 1, 53, 0
3, 3456, Note_on_c, 1, 60, 93
3, 3468, Note_off_c, 1, 60, 0
3, 3468, Note_on_c, 1, 58, 93
3, 3480, Note_off_c, 1, 58, 0
3, 3480, Note_on_c, 1, 60, 93
3, 3576, Note_off_c, 1, 60, 0
3, 3576, Note_on_c, 1, 48, 93
3, 3600, Note_off_c, 1, 48, 0
3, 3600, Note_on_c, 1, 56, 93
3, 3624, Note_off_c, 1, 56, 0
3, 3624, Note_on_c, 1, 55, 93
3, 3648, Note_off_c, 1, 55, 0
3, 3648, Note_on_c, 1, 56, 93
3, 3768, Note_off_c, 1, 56, 0
3, 3768, Note_on_c, 1, 56, 93
3, 3792, Note_off_c, 1, 56, 0
3, 3792, Note_on_c, 1, 55, 93
3, 3816, Note_off_c, 1, 55, 0
3, 3816, Note_on_c, 1, 53, 93
3, 3840, Note_off_c, 1, 53, 0
3, 3840, Note_on_c, 1, 55, 93
3, 3960, Note_off_c, 1, 55, 0
3, 3960, Note_on_c, 1, 55, 93
3, 3984, Note_off_c, 1, 55, 0
3, 3984, Note_on_c, 1, 53, 93
3, 4008, Note_off_c, 1, 53, 0
3, 4008, Note_on_c, 1, 51, 93
3, 4032, Note_off_c, 1, 51, 0
3, 4032, Note_on_c, 1, 53, 93
3, 4224, Note_off_c, 1, 53, 0
3, 4224, Note_on_c, 1, 55, 93
3, 4320, Note_off_c, 1, 55, 0
3, 4320, Note_on_c, 1, 57, 93
3, 4344, Note_off_c, 1, 57, 0
3, 4344, Note_on_c, 1, 58, 93
3, 4368, Note_off_c, 1, 58, 0
3, 4368, Note_on_c, 1, 55, 93
3, 4392, Note_off_c, 1, 55, 0
3, 4392, Note_on_c, 1, 57, 93
3, 4416, Note_off_c, 1, 57, 0
3, 4416, Note_on_c, 1, 54, 93
3, 4632, Note_off_c, 1, 54, 0
3, 4632, Note_on_c, 1, 57, 93
3, 4656, Note_off_c, 1, 57, 0
3, 4656, Note_on_c, 1, 58, 93
3, 4680, Note_off_c, 1, 58, 0
3, 4680, Note_on_c, 1, 57, 93
3, 4704, Note_off_c, 1, 57, 0
3, 4704, Note_on_c, 1, 55, 93
3, 4728, Note_off_c, 1, 55, 0
3, 4728, Note_on_c, 1, 57, 93
3, 4752, Note_off_c, 1, 57, 0
3, 4752, Note_on_c, 1, 54, 93
3, 4776, Note_off_c, 1, 54, 0
3, 4776, Note_on_c, 1, 57, 93
3, 4800, Note_off_c, 1, 57, 0
3, 4800, Note_on_c, 1, 55, 93
3, 4992, Note_off_c, 1, 55, 0
3, 4992, Note_on_c, 1, 52, 93
3, 5184, Note_off_c, 1, 52, 0
3, 5184, Note_on_c, 1, 57, 93
3, 5376, Note_off_c, 1, 57, 0
3, 5784, Note_on_c, 1, 66, 93
3, 5808, Note_off_c, 1, 66, 0
3, 5808, Note_on_c, 1, 67, 93
3, 5832, Note_off_c, 1, 67, 0
3, 5832, Note_on_c, 1, 68, 93
3, 5856, Note_off_c, 1, 68, 0
3, 5856, Note_on_c, 1, 67, 93
3, 5880, Note_off_c, 1, 67, 0
3, 5880, Note_on_c, 1, 65, 93
3, 5904, Note_off_c, 1, 65, 0
3, 5904, Note_on_c, 1, 63, 93
3, 5928, Note_off_c, 1, 63, 0
3, 5928, Note_on_c, 1, 62, 93
3, 5952, Note_off_c, 1, 62, 0
3, 5952, Note_on_c, 1, 63, 93
3, 6144, Note_off_c, 1, 63, 0
3, 6144, Note_on_c, 1, 66, 93
3, 6336, Note_off_c, 1, 66, 0
3, 6336, Note_on_c, 1, 55, 93
3, 6720, Note_off_c, 1, 55, 0
3, 6720, Note_on_c, 1, 62, 93
3, 6816, Note_off_c, 1, 62, 0
3, 6816, Note_on_c, 1, 55, 93
3, 6840, Note_off_c, 1, 55, 0
3, 6840, Note_on_c, 1, 57, 93
3, 6864, Note_off_c, 1, 57, 0
3, 6864, Note_on_c, 1, 58, 93
3, 6888, Note_off_c, 1, 58, 0
3, 6888, Note_on_c, 1, 50, 93
3, 6912, Note_off_c, 1, 50, 0
3, 6912, Note_on_c, 1, 52, 93
3, 7104, Note_off_c, 1, 52, 0
3, 7104, Note_on_c, 1, 48, 93
3, 7200, Note_off_c, 1, 48, 0
3, 7224, Note_on_c, 1, 51, 93
3, 7248, Note_off_c, 1, 51, 0
3, 7248, Note_on_c, 1, 50, 93
3, 7272, Note_off_c, 1, 50, 0
3, 7272, Note_on_c, 1, 48, 93
3, 7296, Note_off_c, 1, 48, 0
3, 7296, Note_on_c, 1, 47, 93
3, 7332, Note_off_c, 1, 47, 0
3, 7344, Note_on_c, 1, 47, 93
3, 7380, Note_off_c, 1, 47, 0
3, 7392, Note_on_c, 1, 47, 93
3, 7428, Note_off_c, 1, 47, 0
3, 7440, Note_on_c, 1, 47, 93
3, 7476, Note_off_c, 1, 47, 0
3, 7488, Note_on_c, 1, 60, 93
3, 7560, Note_off_c, 1, 60, 0
3, 7560, Note_on_c, 1, 60, 93
3, 7584, Note_off_c, 1, 60, 0
3, 7584, Note_on_c, 1, 63, 93
3, 7656, Note_off_c, 1, 63, 0
3, 7656, Note_on_c, 1, 63, 93
3, 7680, Note_off_c, 1, 63, 0
3, 7680, Note_on_c, 1, 67, 93
3, 7848, Note_off_c, 1, 67, 0
3, 7848, Note_on_c, 1, 67, 93
3, 7872, Note_off_c, 1, 67, 0
3, 7872, Note_on_c, 1, 63, 101
3, 7890, Note_off_c, 1, 63, 0
3, 7890, Note_on_c, 1, 65, 101
3, 7902, Note_off_c, 1, 65, 0
3, 7902, Note_on_c, 1, 67, 101
3, 7920, Note_off_c, 1, 67, 0
3, 7920, Note_on_c, 1, 60, 101
3, 7938, Note_off_c, 1, 60, 0
3, 7938, Note_on_c, 1, 62, 101
3, 7950, Note_off_c, 1, 62, 0
3, 7950, Note_on_c, 1, 63, 101
3, 7968, Note_off_c, 1, 63, 0
3, 7968, Note_on_c, 1, 55, 101
3, 7992, Note_off_c, 1, 55, 0
3, 7992, Note_on_c, 1, 60, 101
3, 8016, Note_off_c, 1, 60, 0
3, 8016, Note_on_c, 1, 51, 101
3, 8034, Note_off_c, 1, 51, 0
3, 8034, Note_on_c, 1, 53, 101
3, 8046, Note_off_c, 1, 53, 0
3, 8046, Note_on_c, 1, 55, 101
3, 8064, Note_off_c, 1, 55, 0
3, 8064, Note_on_c, 1, 53, 93
3, 8256, Note_off_c, 1, 53, 0
3, 8256, Note_on_c, 1, 55, 93
3, 8736, Note_off_c, 1, 55, 0
3, 8736, Note_on_c, 1, 57, 93
3, 8832, Note_off_c, 1, 57, 0
3, 8832, Note_on_c, 1, 62, 93
3, 8868, Note_off_c, 1, 62, 0
3, 8880, Note_on_c, 1, 62, 93
3, 8916, Note_off_c, 1, 62, 0
3, 8928, Note_on_c, 1, 62, 93
3, 8964, Note_off_c, 1, 62, 0
3, 8976, Note_on_c, 1, 62, 93
3, 9024, Note_off_c, 1, 62, 0
3, 9024, Note_on_c, 1, 55, 93
3, 9060, Note_off_c, 1, 55, 0
3, 9072, Note_on_c, 1, 60, 93
3, 9108, Note_off_c, 1, 60, 0
3, 9120, Note_on_c, 1, 55, 93
3, 9156, Note_off_c, 1, 55, 0
3, 9168, Note_on_c, 1, 60, 93
3, 9216, Note_off_c, 1, 60, 0
3, 9216, Note_on_c, 1, 48, 93
3, 9312, Note_off_c, 1, 48, 0
3, 9432, Note_on_c, 1, 65, 93
3, 9456, Note_off_c, 1, 65, 0
3, 9456, Note_on_c, 1, 64, 93
3, 9480, Note_off_c, 1, 64, 0
3, 9480, Note_on_c, 1, 60, 93
3, 9504, Note_off_c, 1, 60, 0
3, 9504, Note_on_c, 1, 65, 93
3, 9624, Note_off_c, 1, 65, 0
3, 9624, Note_on_c, 1, 65, 93
3, 9648, Note_off_c, 1, 65, 0
3, 9648, Note_on_c, 1, 64, 93
3, 9672, Note_off_c, 1, 64, 0
3, 9672, Note_on_c, 1, 60, 93
3, 9696, Note_off_c, 1, 60, 0
3, 9696, Note_on_c, 1, 65, 93
3, 9816, Note_off_c, 1, 65, 0
3, 9816, Note_on_c, 1, 65, 93
3, 9840, Note_off_c, 1, 65, 0
3, 9840, Note_on_c, 1, 64, 93
3, 9864, Note_off_c, 1, 64, 0
3, 9864, Note_on_c, 1, 60, 93
3, 9888, Note_off_c, 1, 60, 0
3, 9888, Note_on_c, 1, 65, 93
3, 10080, Note_off_c, 1, 65, 0
3, 10104, Note_on_c, 1, 64, 93
3, 10128, Note_off_c, 1, 64, 0
3, 10128, Note_on_c, 1, 65, 93
3, 10152, Note_off_c, 1, 65, 0
3, 10152, Note_on_c, 1, 59, 93
3, 10176, Note_off_c, 1, 59, 0
3, 10176, Note_on_c, 1, 60, 93
3, 10464, Note_off_c, 1, 60, 0
3, 10512, Note_on_c, 1, 59, 93
3, 10560, Note_off_c, 1, 59, 0
3, 10560, Note_on_c, 1, 60, 93
3, 10704, Note_off_c, 1, 60, 0
3, 10704, Note_on_c, 1, 53, 93
3, 10752, Note_off_c, 1, 53, 0
3, 10752, Note_on_c, 1, 52, 93
3, 10944, Note_off_c, 1, 52, 0
3, 11136, Note_on_c, 1, 48, 59
3, 11160, Note_off_c, 1, 48, 0
3, 11160, Note_on_c, 1, 51, 59
3, 11184, Note_off_c, 1, 51, 0
3, 11184, Note_on_c, 1, 50, 59
3, 11208, Note_off_c, 1, 50, 0
3, 11208, Note_on_c, 1, 51, 59
3, 11232, Note_off_c, 1, 51, 0
3, 11232, Note_on_c, 1, 48, 59
3, 11268, Note_off_c, 1, 48, 0
3, 11280, Note_on_c, 1, 51, 59
3, 11316, Note_off_c, 1, 51, 0
3, 11328, Note_on_c, 1, 50, 59
3, 11424, Note_off_c, 1, 50, 0
3, 11424, Note_on_c, 1, 43, 59
3, 11496, Note_off_c, 1, 43, 0
3, 11520, Note_on_c, 1, 48, 59
3, 11544, Note_off_c, 1, 48, 0
3, 11544, Note_on_c, 1, 51, 59
3, 11568, Note_off_c, 1, 51, 0
3, 11568, Note_on_c, 1, 50, 59
3, 11592, Note_off_c, 1, 50, 0
3, 11592, Note_on_c, 1, 51, 59
3, 11616, Note_off_c, 1, 51, 0
3, 11616, Note_on_c, 1, 50, 59
3, 11640, Note_off_c, 1, 50, 0
3, 11640, Note_on_c, 1, 53, 59
3, 11664, Note_off_c, 1, 53, 0
3, 11664, Note_on_c, 1, 51, 59
3, 11688, Note_off_c, 1, 51, 0
3, 11688, Note_on_c, 1, 53, 59
3, 11712, Note_off_c, 1, 53, 0
3, 11712, Note_on_c, 1, 51, 59
3, 11808, Note_off_c, 1, 51, 0
3, 11808, Note_on_c, 1, 48, 59
3, 11880, Note_off_c, 1, 48, 0
3, 11904, Note_on_c, 1, 51, 59
3, 11928, Note_off_c, 1, 51, 0
3, 11928, Note_on_c, 1, 55, 59
3, 11952, Note_off_c, 1, 55, 0
3, 11952, Note_on_c, 1, 53, 59
3, 11976, Note_off_c, 1, 53, 0
3, 11976, Note_on_c, 1, 55, 59
3, 12000, Note_off_c, 1, 55, 0
3, 12000, Note_on_c, 1, 53, 59
3, 12024, Note_off_c, 1, 53, 0
3, 12024, Note_on_c, 1, 56, 59
3, 12048, Note_off_c, 1, 56, 0
3, 12048, Note_on_c, 1, 55, 59
3, 12072, Note_off_c, 1, 55, 0
3, 12072, Note_on_c, 1, 56, 59
3, 12096, Note_off_c, 1, 56, 0
3, 12096, Note_on_c, 1, 55, 59
3, 12168, Note_off_c, 1, 55, 0
3, 12168, Note_on_c, 1, 56, 59
3, 12192, Note_off_c, 1, 56, 0
3, 12192, Note_on_c, 1, 55, 59
3, 12216, Note_off_c, 1, 55, 0
3, 12216, Note_on_c, 1, 53, 59
3, 12240, Note_off_c, 1, 53, 0
3, 12240, Note_on_c, 1, 51, 59
3, 12264, Note_off_c, 1, 51, 0
3, 12264, Note_on_c, 1, 50, 59
3, 12288, Note_off_c, 1, 50, 0
3, 12288, Note_on_c, 1, 51, 59
3, 12312, Note_off_c, 1, 51, 0
3, 12312, Note_on_c, 1, 50, 59
3, 12336, Note_off_c, 1, 50, 0
3, 12336, Note_on_c, 1, 51, 59
3, 12360, Note_off_c, 1, 51, 0
3, 12360, Note_on_c, 1, 53, 59
3, 12384, Note_off_c, 1, 53, 0
3, 12384, Note_on_c, 1, 50, 59
3, 12396, Note_off_c, 1, 50, 0
3, 12396, Note_on_c, 1, 51, 59
3, 12408, Note_off_c, 1, 51, 0
3, 12408, Note_on_c, 1, 50, 59
3, 12456, Note_off_c, 1, 50, 0
3, 12456, Note_on_c, 1, 48, 59
3, 12480, Note_off_c, 1, 48, 0
3, 12480, Note_on_c, 1, 48, 59
3, 12528, Note_off_c, 1, 48, 0
3, 12528, Note_on_c, 1, 46, 59
3, 12552, Note_off_c, 1, 46, 0
3, 12552, Note_on_c, 1, 48, 59
3, 12576, Note_off_c, 1, 48, 0
3, 12576, Note_on_c, 1, 45, 59
3, 12588, Note_off_c, 1, 45, 0
3, 12588, Note_on_c, 1, 46, 59
3, 12600, Note_off_c, 1, 46, 0
3, 12600, Note_on_c, 1, 45, 59
3, 12648, Note_off_c, 1, 45, 0
3, 12648, Note_on_c, 1, 43, 59
3, 12672, Note_off_c, 1, 43, 0
3, 12672, Note_on_c, 1, 55, 59
3, 12696, Note_off_c, 1, 55, 0
3, 12696, Note_on_c, 1, 58, 59
3, 12720, Note_off_c, 1, 58, 0
3, 12720, Note_on_c, 1, 57, 59
3, 12744, Note_off_c, 1, 57, 0
3, 12744, Note_on_c, 1, 58, 59
3, 12768, Note_off_c, 1, 58, 0
3, 12768, Note_on_c, 1, 55, 59
3, 12804, Note_off_c, 1, 55, 0
3, 12816, Note_on_c, 1, 58, 59
3, 12852, Note_off_c, 1, 58, 0
3, 12864, Note_on_c, 1, 57, 59
3, 12960, Note_off_c, 1, 57, 0
3, 12960, Note_on_c, 1, 50, 59
3, 13038, Note_off_c, 1, 50, 0
3, 13056, Note_on_c, 1, 55, 59
3, 13080, Note_off_c, 1, 55, 0
3, 13080, Note_on_c, 1, 58, 59
3, 13104, Note_off_c, 1, 58, 0
3, 13104, Note_on_c, 1, 57, 59
3, 13128, Note_off_c, 1, 57, 0
3, 13128, Note_on_c, 1, 58, 59
3, 13152, Note_off_c, 1, 58, 0
3, 13152, Note_on_c, 1, 57, 59
3, 13176, Note_off_c, 1, 57, 0
3, 13176, Note_on_c, 1, 60, 59
3, 13200, Note_off_c, 1, 60, 0
3, 13200, Note_on_c, 1, 58, 59
3, 13224, Note_off_c, 1, 58, 0
3, 13224, Note_on_c, 1, 60, 59
3, 13248, Note_off_c, 1, 60, 0
3, 13248, Note_on_c, 1, 58, 59
3, 13344, Note_off_c, 1, 58, 0
3, 13344, Note_on_c, 1, 55, 59
3, 13440, Note_off_c, 1, 55, 0
3, 13440, Note_on_c, 1, 43, 59
3, 13488, Note_off_c, 1, 43, 0
3, 13488, Note_on_c, 1, 55, 59
3, 13536, Note_off_c, 1, 55, 0
3, 13536, Note_on_c, 1, 51, 59
3, 13584, Note_off_c, 1, 51, 0
3, 13584, Note_on_c, 1, 48, 59
3, 13680, Note_off_c, 1, 48, 0
3, 13680, Note_on_c, 1, 46, 59
3, 13728, Note_off_c, 1, 46, 0
3, 13728, Note_on_c, 1, 42, 59
3, 13824, Note_off_c, 1, 42, 0
3, 13824, Note_on_c, 1, 43, 59
3, 13872, Note_off_c, 1, 43, 0
3, 13872, Note_on_c, 1, 46, 59
3, 13920, Note_off_c, 1, 46, 0
3, 13920, Note_on_c, 1, 48, 59
3, 13968, Note_off_c, 1, 48, 0
3, 13968, Note_on_c, 1, 50, 59
3, 14016, Note_off_c, 1, 50, 0
3, 14016, Note_on_c, 1, 47, 59
3, 14064, Note_off_c, 1, 47, 0
3, 14064, Note_on_c, 1, 48, 59
3, 14112, Note_off_c, 1, 48, 0
3, 14112, Note_on_c, 1, 41, 59
3, 14160, Note_off_c, 1, 41, 0
3, 14160, Note_on_c, 1, 43, 59
3, 14208, Note_off_c, 1, 43, 0
3, 14208, Note_on_c, 1, 48, 59
3, 14304, Note_off_c, 1, 48, 0
3, 14304, Note_on_c, 1, 39, 59
3, 14352, Note_off_c, 1, 39, 0
3, 14352, Note_on_c, 1, 36, 59
3, 14400, Note_off_c, 1, 36, 0
3, 14400, Note_on_c, 1, 43, 59
3, 14448, Note_off_c, 1, 43, 0
3, 14448, Note_on_c, 1, 43, 59
3, 14472, Note_off_c, 1, 43, 0
3, 14472, Note_on_c, 1, 45, 59
3, 14496, Note_off_c, 1, 45, 0
3, 14496, Note_on_c, 1, 47, 59
3, 14544, Note_off_c, 1, 47, 0
3, 14544, Note_on_c, 1, 45, 59
3, 14568, Note_off_c, 1, 45, 0
3, 14568, Note_on_c, 1, 47, 59
3, 14592, Note_off_c, 1, 47, 0
3, 14592, Note_on_c, 1, 48, 59
3, 14640, Note_off_c, 1, 48, 0
3, 14640, Note_on_c, 1, 39, 59
3, 14688, Note_off_c, 1, 39, 0
3, 14688, Note_on_c, 1, 41, 59
3, 14736, Note_off_c, 1, 41, 0
3, 14736, Note_on_c, 1, 43, 59
3, 14784, Note_off_c, 1, 43, 0
3, 14784, Note_on_c, 1, 36, 59
3, 14832, Note_off_c, 1, 36, 0
3, 14832, Note_on_c, 1, 48, 59
3, 14856, Note_off_c, 1, 48, 0
3, 14856, Note_on_c, 1, 50, 59
3, 14880, Note_off_c, 1, 50, 0
3, 14880, Note_on_c, 1, 51, 59
3, 14928, Note_off_c, 1, 51, 0
3, 14928, Note_on_c, 1, 50, 59
3, 14952, Note_off_c, 1, 50, 0
3, 14952, Note_on_c, 1, 51, 59
3, 14976, Note_off_c, 1, 51, 0
3, 14976, Note_on_c, 1, 48, 59
3, 15024, Note_off_c, 1, 48, 0
3, 15024, Note_on_c, 1, 60, 59
3, 15072, Note_off_c, 1, 60, 0
3, 15072, Note_on_c, 1, 56, 59
3, 15120, Note_off_c, 1, 56, 0
3, 15120, Note_on_c, 1, 53, 59
3, 15168, Note_off_c, 1, 53, 0
3, 15168, Note_on_c, 1, 55, 59
3, 15216, Note_off_c, 1, 55, 0
3, 15216, Note_on_c, 1, 51, 59
3, 15264, Note_off_c, 1, 51, 0
3, 15264, Note_on_c, 1, 50, 59
3, 15312, Note_off_c, 1, 50, 0
3, 15312, Note_on_c, 1, 55, 59
3, 15360, Note_off_c, 1, 55, 0
3, 15360, Note_on_c, 1, 48, 59
3, 15504, Note_off_c, 1, 48, 0
3, 15504, Note_on_c, 1, 55, 59
3, 15552, Note_off_c, 1, 55, 0
3, 15552, Note_on_c, 1, 54, 59
3, 15600, Note_off_c, 1, 54, 0
3, 15600, Note_on_c, 1, 55, 59
3, 15696, Note_off_c, 1, 55, 0
3, 15696, Note_on_c, 1, 54, 59
3, 15744, Note_off_c, 1, 54, 0
3, 15744, Note_on_c, 1, 43, 59
3, 15840, Note_off_c, 1, 43, 0
3, 15984, Note_on_c, 1, 50, 59
3, 16008, Note_off_c, 1, 50, 0
3, 16008, Note_on_c, 1, 52, 59
3, 16032, Note_off_c, 1, 52, 0
3, 16032, Note_on_c, 1, 54, 59
3, 16080, Note_off_c, 1, 54, 0
3, 16080, Note_on_c, 1, 52, 59
3, 16104, Note_off_c, 1, 52, 0
3, 16104, Note_on_c, 1, 54, 59
3, 16128, Note_off_c, 1, 54, 0
3, 16128, Note_on_c, 1, 55, 59
3, 16176, Note_off_c, 1, 55, 0
3, 16176, Note_on_c, 1, 63, 59
3, 16224, Note_off_c, 1, 63, 0
3, 16224, Note_on_c, 1, 60, 59
3, 16272, Note_off_c, 1, 60, 0
3, 16272, Note_on_c, 1, 62, 59
3, 16320, Note_off_c, 1, 62, 0
3, 16320, Note_on_c, 1, 55, 59
3, 16368, Note_off_c, 1, 55, 0
3, 16368, Note_on_c, 1, 55, 59
3, 16392, Note_off_c, 1, 55, 0
3, 16392, Note_on_c, 1, 57, 59
3, 16416, Note_off_c, 1, 57, 0
3, 16416, Note_on_c, 1, 58, 59
3, 16464, Note_off_c, 1, 58, 0
3, 16464, Note_on_c, 1, 57, 59
3, 16488, Note_off_c, 1, 57, 0
3, 16488, Note_on_c, 1, 58, 59
3, 16512, Note_off_c, 1, 58, 0
3, 16512, Note_on_c, 1, 55, 59
3, 16560, Note_off_c, 1, 55, 0
3, 16560, Note_on_c, 1, 67, 59
3, 16608, Note_off_c, 1, 67, 0
3, 16608, Note_on_c, 1, 63, 59
3, 16656, Note_off_c, 1, 63, 0
3, 16656, Note_on_c, 1, 60, 59
3, 16704, Note_off_c, 1, 60, 0
3, 16704, Note_on_c, 1, 54, 59
3, 16752, Note_off_c, 1, 54, 0
3, 16752, Note_on_c, 1, 62, 59
3, 16800, Note_off_c, 1, 62, 0
3, 16800, Note_on_c, 1, 64, 59
3, 16848, Note_off_c, 1, 64, 0
3, 16848, Note_on_c, 1, 66, 59
3, 16896, Note_off_c, 1, 66, 0
3, 16896, Note_on_c, 1, 67, 59
3, 17016, Note_off_c, 1, 67, 0
3, 17016, Note_on_c, 1, 60, 59
3, 17040, Note_off_c, 1, 60, 0
3, 17040, Note_on_c, 1, 65, 59
3, 17136, Note_off_c, 1, 65, 0
3, 17136, Note_on_c, 1, 63, 59
3, 17160, Note_off_c, 1, 63, 0
3, 17160, Note_on_c, 1, 65, 59
3, 17184, Note_off_c, 1, 65, 0
3, 17184, Note_on_c, 1, 62, 59
3, 17208, Note_off_c, 1, 62, 0
3, 17208, Note_on_c, 1, 68, 59
3, 17232, Note_off_c, 1, 68, 0
3, 17232, Note_on_c, 1, 67, 59
3, 17256, Note_off_c, 1, 67, 0
3, 17256, Note_on_c, 1, 65, 59
3, 17280, Note_off_c, 1, 65, 0
3, 17280, Note_on_c, 1, 63, 59
3, 17304, Note_off_c, 1, 63, 0
3, 17304, Note_on_c, 1, 67, 59
3, 17328, Note_off_c, 1, 67, 0
3, 17328, Note_on_c, 1, 65, 59
3, 17352, Note_off_c, 1, 65, 0
3, 17352, Note_on_c, 1, 67, 59
3, 17376, Note_off_c, 1, 67, 0
3, 17376, Note_on_c, 1, 63, 59
3, 17400, Note_off_c, 1, 63, 0
3, 17400, Note_on_c, 1, 62, 59
3, 17424, Note_off_c, 1, 62, 0
3, 17424, Note_on_c, 1, 60, 59
3, 17520, Note_off_c, 1, 60, 0
3, 17520, Note_on_c, 1, 59, 59
3, 17544, Note_off_c, 1, 59, 0
3, 17544, Note_on_c, 1, 57, 59
3, 17568, Note_off_c, 1, 57, 0
3, 17568, Note_on_c, 1, 59, 59
3, 17664, Note_off_c, 1, 59, 0
3, 17664, Note_on_c, 1, 51, 59
3, 17760, Note_off_c, 1, 51, 0
3, 17760, Note_on_c, 1, 53, 59
3, 17808, Note_off_c, 1, 53, 0
3, 17808, Note_on_c, 1, 55, 59
3, 17856, Note_off_c, 1, 55, 0
3, 17856, Note_on_c, 1, 48, 59
3, 18144, Note_off_c, 1, 48, 0
3, 18144, Note_on_c, 1, 50, 59
3, 18240, Note_off_c, 1, 50, 0
3, 18240, Note_on_c, 1, 60, 59
3, 18288, Note_off_c, 1, 60, 0
3, 18288, Note_on_c, 1, 55, 59
3, 18384, Note_off_c, 1, 55, 0
3, 18384, Note_on_c, 1, 55, 59
3, 18480, Note_off_c, 1, 55, 0
3, 18480, Note_on_c, 1, 60, 59
3, 18576, Note_off_c, 1, 60, 0
3, 18576, Note_on_c, 1, 59, 59
3, 18624, Note_off_c, 1, 59, 0
3, 18624, Note_on_c, 1, 57, 59
3, 18816, Note_off_c, 1, 57, 0
3, 18816, Note_on_c, 1, 55, 59
3, 18912, Note_off_c, 1, 55, 0
3, 18912, Note_on_c, 1, 60, 59
3, 18960, Note_off_c, 1, 60, 0
3, 18960, Note_on_c, 1, 62, 59
3, 19008, Note_off_c, 1, 62, 0
3, 19008, Note_on_c, 1, 63, 59
3, 19152, Note_off_c, 1, 63, 0
3, 19152, Note_on_c, 1, 68, 59
3, 19200, Note_off_c, 1, 68, 0
3, 19200, Note_on_c, 1, 62, 59
3, 19344, Note_off_c, 1, 62, 0
3, 19344, Note_on_c, 1, 67, 59
3, 19392, Note_off_c, 1, 67, 0
3, 19392, Note_on_c, 1, 60, 59
3, 19416, Note_off_c, 1, 60, 0
3, 19416, Note_on_c, 1, 63, 59
3, 19440, Note_off_c, 1, 63, 0
3, 19440, Note_on_c, 1, 62, 59
3, 19464, Note_off_c, 1, 62, 0
3, 19464, Note_on_c, 1, 63, 59
3, 19488, Note_off_c, 1, 63, 0
3, 19488, Note_on_c, 1, 65, 59
3, 19512, Note_off_c, 1, 65, 0
3, 19512, Note_on_c, 1, 63, 59
3, 19536, Note_off_c, 1, 63, 0
3, 19536, Note_on_c, 1, 62, 59
3, 19560, Note_off_c, 1, 62, 0
3, 19560, Note_on_c, 1, 60, 59
3, 19584, Note_off_c, 1, 60, 0
3, 19584, Note_on_c, 1, 58, 59
3, 19608, Note_off_c, 1, 58, 0
3, 19608, Note_on_c, 1, 62, 59
3, 19632, Note_off_c, 1, 62, 0
3, 19632, Note_on_c, 1, 60, 59
3, 19656, Note_off_c, 1, 60, 0
3, 19656, Note_on_c, 1, 62, 59
3, 19680, Note_off_c, 1, 62, 0
3, 19680, Note_on_c, 1, 63, 59
3, 19704, Note_off_c, 1, 63, 0
3, 19704, Note_on_c, 1, 67, 59
3, 19728, Note_off_c, 1, 67, 0
3, 19728, Note_on_c, 1, 65, 59
3, 19752, Note_off_c, 1, 65, 0
3, 19752, Note_on_c, 1, 67, 59
3, 19776, Note_off_c, 1, 67, 0
3, 19776, Note_on_c, 1, 68, 59
3, 19824, Note_off_c, 1, 68, 0
3, 19824, Note_on_c, 1, 67, 59
3, 19872, Note_off_c, 1, 67, 0
3, 19872, Note_on_c, 1, 65, 59
3, 19896, Note_off_c, 1, 65, 0
3, 19896, Note_on_c, 1, 67, 59
3, 19920, Note_off_c, 1, 67, 0
3, 19920, Note_on_c, 1, 63, 59
3, 19944, Note_off_c, 1, 63, 0
3, 19944, Note_on_c, 1, 65, 59
3, 19968, Note_off_c, 1, 65, 0
3, 19968, Note_on_c, 1, 67, 59
3, 20016, Note_off_c, 1, 67, 0
3, 20016, Note_on_c, 1, 65, 59
3, 20064, Note_off_c, 1, 65, 0
3, 20064, Note_on_c, 1, 63, 59
3, 20112, Note_off_c, 1, 63, 0
3, 20112, Note_on_c, 1, 62, 59
3, 20160, Note_off_c, 1, 62, 0
3, 20160, Note_on_c, 1, 60, 84
3, 20184, Note_off_c, 1, 60, 0
3, 20184, Note_on_c, 1, 63, 84
3, 20208, Note_off_c, 1, 63, 0
3, 20208, Note_on_c, 1, 62, 84
3, 20232, Note_off_c, 1, 62, 0
3, 20232, Note_on_c, 1, 63, 84
3, 20256, Note_off_c, 1, 63, 0
3, 20256, Note_on_c, 1, 60, 84
3, 20292, Note_off_c, 1, 60, 0
3, 20304, Note_on_c, 1, 63, 84
3, 20340, Note_off_c, 1, 63, 0
3, 20352, Note_on_c, 1, 62, 84
3, 20448, Note_off_c, 1, 62, 0
3, 20448, Note_on_c, 1, 55, 84
3, 20544, Note_off_c, 1, 55, 0
3, 20544, Note_on_c, 1, 60, 84
3, 20568, Note_off_c, 1, 60, 0
3, 20568, Note_on_c, 1, 63, 84
3, 20592, Note_off_c, 1, 63, 0
3, 20592, Note_on_c, 1, 62, 84
3, 20616, Note_off_c, 1, 62, 0
3, 20616, Note_on_c, 1, 63, 84
3, 20640, Note_off_c, 1, 63, 0
3, 20640, Note_on_c, 1, 62, 84
3, 20664, Note_off_c, 1, 62, 0
3, 20664, Note_on_c, 1, 65, 84
3, 20688, Note_off_c, 1, 65, 0
3, 20688, Note_on_c, 1, 63, 84
3, 20712, Note_off_c, 1, 63, 0
3, 20712, Note_on_c, 1, 65, 84
3, 20736, Note_off_c, 1, 65, 0
3, 20736, Note_on_c, 1, 63, 84
3, 20814, Note_off_c, 1, 63, 0
3, 20832, Note_on_c, 1, 60, 84
3, 20910, Note_off_c, 1, 60, 0
3, 20928, Note_on_c, 1, 63, 84
3, 20952, Note_off_c, 1, 63, 0
3, 20952, Note_on_c, 1, 67, 84
3, 20976, Note_off_c, 1, 67, 0
3, 20976, Note_on_c, 1, 65, 84
3, 21000, Note_off_c, 1, 65, 0
3, 21000, Note_on_c, 1, 67, 84
3, 21024, Note_off_c, 1, 67, 0
3, 21024, Note_on_c, 1, 65, 84
3, 21048, Note_off_c, 1, 65, 0
3, 21048, Note_on_c, 1, 68, 84
3, 21072, Note_off_c, 1, 68, 0
3, 21072, Note_on_c, 1, 67, 84
3, 21096, Note_off_c, 1, 67, 0
3, 21096, Note_on_c, 1, 68, 84
3, 21120, Note_off_c, 1, 68, 0
3, 21120, Note_on_c, 1, 67, 84
3, 21144, Note_off_c, 1, 67, 0
3, 21144, Note_on_c, 1, 65, 84
3, 21168, Note_off_c, 1, 65, 0
3, 21168, Note_on_c, 1, 63, 84
3, 21192, Note_off_c, 1, 63, 0
3, 21192, Note_on_c, 1, 65, 84
3, 21216, Note_off_c, 1, 65, 0
3, 21216, Note_on_c, 1, 62, 84
3, 21288, Note_off_c, 1, 62, 0
3, 21288, Note_on_c, 1, 62, 84
3, 21312, Note_off_c, 1, 62, 0
3, 21312, Note_on_c, 1, 60, 84
3, 21360, Note_off_c, 1, 60, 0
3, 21360, Note_on_c, 1, 58, 84
3, 21384, Note_off_c, 1, 58, 0
3, 21384, Note_on_c, 1, 60, 84
3, 21408, Note_off_c, 1, 60, 0
3, 21408, Note_on_c, 1, 57, 84
3, 21420, Note_off_c, 1, 57, 0
3, 21420, Note_on_c, 1, 58, 84
3, 21432, Note_off_c, 1, 58, 0
3, 21432, Note_on_c, 1, 57, 84
3, 21480, Note_off_c, 1, 57, 0
3, 21480, Note_on_c, 1, 55, 84
3, 21504, Note_off_c, 1, 55, 0
3, 21504, Note_on_c, 1, 55, 84
3, 21624, Note_off_c, 1, 55, 0
3, 21624, Note_on_c, 1, 63, 59
3, 21648, Note_off_c, 1, 63, 0
3, 21648, Note_on_c, 1, 62, 84
3, 21672, Note_off_c, 1, 62, 0
3, 21672, Note_on_c, 1, 60, 84
3, 21696, Note_off_c, 1, 60, 0
3, 21696, Note_on_c, 1, 62, 84
3, 21840, Note_off_c, 1, 62, 0
3, 21840, Note_on_c, 1, 54, 84
3, 21888, Note_off_c, 1, 54, 0
3, 21888, Note_on_c, 1, 55, 59
3, 21936, Note_off_c, 1, 55, 0
3, 21936, Note_on_c, 1, 63, 59
3, 21984, Note_off_c, 1, 63, 0
3, 21984, Note_on_c, 1, 60, 59
3, 22032, Note_off_c, 1, 60, 0
3, 22032, Note_on_c, 1, 62, 59
3, 22080, Note_off_c, 1, 62, 0
3, 22080, Note_on_c, 1, 67, 59
3, 22128, Note_off_c, 1, 67, 0
3, 22128, Note_on_c, 1, 65, 59
3, 22176, Note_off_c, 1, 65, 0
3, 22176, Note_on_c, 1, 63, 59
3, 22224, Note_off_c, 1, 63, 0
3, 22224, Note_on_c, 1, 60, 59
3, 22272, Note_off_c, 1, 60, 0
3, 22272, Note_on_c, 1, 67, 59
3, 22296, Note_off_c, 1, 67, 0
3, 22296, Note_on_c, 1, 65, 59
3, 22320, Note_off_c, 1, 65, 0
3, 22320, Note_on_c, 1, 63, 59
3, 22344, Note_off_c, 1, 63, 0
3, 22344, Note_on_c, 1, 62, 59
3, 22368, Note_off_c, 1, 62, 0
3, 22368, Note_on_c, 1, 63, 59
3, 22392, Note_off_c, 1, 63, 0
3, 22392, Note_on_c, 1, 67, 59
3, 22416, Note_off_c, 1, 67, 0
3, 22416, Note_on_c, 1, 66, 59
3, 22440, Note_off_c, 1, 66, 0
3, 22440, Note_on_c, 1, 67, 59
3, 22464, Note_off_c, 1, 67, 0
3, 22464, Note_on_c, 1, 66, 59
3, 22488, Note_off_c, 1, 66, 0
3, 22488, Note_on_c, 1, 69, 59
3, 22512, Note_off_c, 1, 69, 0
3, 22512, Note_on_c, 1, 67, 59
3, 22536, Note_off_c, 1, 67, 0
3, 22536, Note_on_c, 1, 69, 59
3, 22560, Note_off_c, 1, 69, 0
3, 22560, Note_on_c, 1, 70, 59
3, 22584, Note_off_c, 1, 70, 0
3, 22584, Note_on_c, 1, 69, 59
3, 22608, Note_off_c, 1, 69, 0
3, 22608, Note_on_c, 1, 67, 59
3, 22632, Note_off_c, 1, 67, 0
3, 22632, Note_on_c, 1, 66, 59
3, 22656, Note_off_c, 1, 66, 0
3, 22656, Note_on_c, 1, 67, 59
3, 22800, Note_off_c, 1, 67, 0
3, 22800, Note_on_c, 1, 65, 59
3, 22896, Note_off_c, 1, 65, 0
3, 22896, Note_on_c, 1, 63, 59
3, 22920, Note_off_c, 1, 63, 0
3, 22920, Note_on_c, 1, 62, 59
3, 22944, Note_off_c, 1, 62, 0
3, 22944, Note_on_c, 1, 63, 59
3, 22992, Note_off_c, 1, 63, 0
3, 22992, Note_on_c, 1, 68, 59
3, 23040, Note_off_c, 1, 68, 0
3, 23040, Note_on_c, 1, 62, 59
3, 23088, Note_off_c, 1, 62, 0
3, 23088, Note_on_c, 1, 65, 59
3, 23136, Note_off_c, 1, 65, 0
3, 23136, Note_on_c, 1, 67, 59
3, 23184, Note_off_c, 1, 67, 0
3, 23184, Note_on_c, 1, 55, 59
3, 23232, Note_off_c, 1, 55, 0
3, 23232, Note_on_c, 1, 60, 59
3, 23280, Note_off_c, 1, 60, 0
3, 23280, Note_on_c, 1, 63, 59
3, 23328, Note_off_c, 1, 63, 0
3, 23328, Note_on_c, 1, 62, 59
3, 23376, Note_off_c, 1, 62, 0
3, 23376, Note_on_c, 1, 59, 59
3, 23424, Note_off_c, 1, 59, 0
3, 23424, Note_on_c, 1, 48, 84
3, 23448, Note_off_c, 1, 48, 0
3, 23448, Note_on_c, 1, 51, 84
3, 23472, Note_off_c, 1, 51, 0
3, 23472, Note_on_c, 1, 50, 84
3, 23496, Note_off_c, 1, 50, 0
3, 23496, Note_on_c, 1, 51, 84
3, 23520, Note_off_c, 1, 51, 0
3, 23520, Note_on_c, 1, 48, 84
3, 23568, Note_off_c, 1, 48, 0
3, 23568, Note_on_c, 1, 51, 84
3, 23616, Note_off_c, 1, 51, 0
3, 23616, Note_on_c, 1, 50, 84
3, 23712, Note_off_c, 1, 50, 0
3, 23712, Note_on_c, 1, 43, 84
3, 23808, Note_off_c, 1, 43, 0
3, 23808, Note_on_c, 1, 48, 84
3, 23832, Note_off_c, 1, 48, 0
3, 23832, Note_on_c, 1, 51, 84
3, 23856, Note_off_c, 1, 51, 0
3, 23856, Note_on_c, 1, 50, 84
3, 23880, Note_off_c, 1, 50, 0
3, 23880, Note_on_c, 1, 51, 84
3, 23904, Note_off_c, 1, 51, 0
3, 23904, Note_on_c, 1, 50, 84
3, 23928, Note_off_c, 1, 50, 0
3, 23928, Note_on_c, 1, 53, 84
3, 24000, Note_off_c, 1, 53, 0
3, 24000, Note_on_c, 1, 51, 84
3, 24096, Note_off_c, 1, 51, 0
3, 24096, Note_on_c, 1, 48, 84
3, 24192, Note_off_c, 1, 48, 0
3, 24192, Note_on_c, 1, 51, 84
3, 24216, Note_off_c, 1, 51, 0
3, 24216, Note_on_c, 1, 55, 84
3, 24240, Note_off_c, 1, 55, 0
3, 24240, Note_on_c, 1, 53, 84
3, 24264, Note_off_c, 1, 53, 0
3, 24264, Note_on_c, 1, 55, 84
3, 24288, Note_off_c, 1, 55, 0
3, 24288, Note_on_c, 1, 53, 84
3, 24312, Note_off_c, 1, 53, 0
3, 24312, Note_on_c, 1, 56, 84
3, 24336, Note_off_c, 1, 56, 0
3, 24336, Note_on_c, 1, 55, 84
3, 24360, Note_off_c, 1, 55, 0
3, 24360, Note_on_c, 1, 56, 84
3, 24384, Note_off_c, 1, 56, 0
3, 24384, Note_on_c, 1, 55, 84
3, 24456, Note_off_c, 1, 55, 0
3, 24456, Note_on_c, 1, 56, 84
3, 24480, Note_off_c, 1, 56, 0
3, 24480, Note_on_c, 1, 55, 84
3, 24504, Note_off_c, 1, 55, 0
3, 24504, Note_on_c, 1, 53, 84
3, 24528, Note_off_c, 1, 53, 0
3, 24528, Note_on_c, 1, 51, 84
3, 24552, Note_off_c, 1, 51, 0
3, 24552, Note_on_c, 1, 50, 84
3, 24576, Note_off_c, 1, 50, 0
3, 24576, Note_on_c, 1, 48, 84
3, 24624, Note_off_c, 1, 48, 0
3, 24624, Note_on_c, 1, 56, 84
3, 24672, Note_off_c, 1, 56, 0
3, 24672, Note_on_c, 1, 53, 84
3, 24720, Note_off_c, 1, 53, 0
3, 24720, Note_on_c, 1, 55, 84
3, 24816, Note_off_c, 1, 55, 0
3, 24816, Note_on_c, 1, 54, 84
3, 24864, Note_off_c, 1, 54, 0
3, 24864, Note_on_c, 1, 55, 84
3, 24912, Note_off_c, 1, 55, 0
3, 24912, Note_on_c, 1, 50, 84
3, 24960, Note_off_c, 1, 50, 0
3, 24960, Note_on_c, 1, 51, 84
3, 25008, Note_off_c, 1, 51, 0
3, 25008, Note_on_c, 1, 47, 84
3, 25056, Note_off_c, 1, 47, 0
3, 25056, Note_on_c, 1, 48, 84
3, 25104, Note_off_c, 1, 48, 0
3, 25104, Note_on_c, 1, 55, 84
3, 25152, Note_off_c, 1, 55, 0
3, 25152, Note_on_c, 1, 54, 84
3, 25200, Note_off_c, 1, 54, 0
3, 25200, Note_on_c, 1, 55, 84
3, 25248, Note_off_c, 1, 55, 0
3, 25248, Note_on_c, 1, 60, 84
3, 25296, Note_off_c, 1, 60, 0
3, 25296, Note_on_c, 1, 62, 84
3, 25344, Note_off_c, 1, 62, 0
3, 25344, Note_on_c, 1, 63, 84
3, 25392, Note_off_c, 1, 63, 0
3, 25392, Note_on_c, 1, 58, 84
3, 25440, Note_off_c, 1, 58, 0
3, 25440, Note_on_c, 1, 60, 84
3, 25488, Note_off_c, 1, 60, 0
3, 25488, Note_on_c, 1, 58, 84
3, 25536, Note_off_c, 1, 58, 0
3, 25536, Note_on_c, 1, 56, 84
3, 25584, Note_off_c, 1, 56, 0
3, 25584, Note_on_c, 1, 55, 84
3, 25632, Note_off_c, 1, 55, 0
3, 25632, Note_on_c, 1, 56, 84
3, 25680, Note_off_c, 1, 56, 0
3, 25680, Note_on_c, 1, 51, 84
3, 25728, Note_off_c, 1, 51, 0
3, 25728, Note_on_c, 1, 53, 84
3, 25824, Note_off_c, 1, 53, 0
3, 25824, Note_on_c, 1, 55, 84
3, 25872, Note_off_c, 1, 55, 0
3, 25872, Note_on_c, 1, 53, 84
3, 25920, Note_off_c, 1, 53, 0
3, 25920, Note_on_c, 1, 51, 84
3, 26016, Note_off_c, 1, 51, 0
3, 26016, Note_on_c, 1, 36, 84
3, 26112, Note_off_c, 1, 36, 0
3, 26112, Note_on_c, 1, 55, 84
3, 26208, Note_off_c, 1, 55, 0
3, 26208, Note_on_c, 1, 55, 84
3, 26304, Note_off_c, 1, 55, 0
3, 26304, Note_on_c, 1, 55, 84
3, 26400, Note_off_c, 1, 55, 0
3, 26448, Note_on_c, 1, 60, 84
3, 26496, Note_off_c, 1, 60, 0
3, 26496, Note_on_c, 1, 53, 93
3, 26544, Note_off_c, 1, 53, 0
3, 26544, Note_on_c, 1, 53, 93
3, 26592, Note_off_c, 1, 53, 0
3, 26592, Note_on_c, 1, 50, 93
3, 26640, Note_off_c, 1, 50, 0
3, 26640, Note_on_c, 1, 50, 93
3, 26688, Note_off_c, 1, 50, 0
3, 26688, Note_on_c, 1, 51, 93
3, 26736, Note_off_c, 1, 51, 0
3, 26784, Note_on_c, 1, 62, 93
3, 26832, Note_off_c, 1, 62, 0
3, 26880, Note_on_c, 1, 55, 93
3, 26928, Note_off_c, 1, 55, 0
3, 26928, Note_on_c, 1, 53, 93
3, 26976, Note_off_c, 1, 53, 0
3, 26976, Note_on_c, 1, 51, 93
3, 27024, Note_off_c, 1, 51, 0
3, 27024, Note_on_c, 1, 50, 93
3, 27072, Note_off_c, 1, 50, 0
3, 27072, Note_on_c, 1, 63, 93
3, 27120, Note_off_c, 1, 63, 0
3, 27168, Note_on_c, 1, 60, 93
3, 27216, Note_off_c, 1, 60, 0
3, 27264, Note_on_c, 1, 59, 93
3, 27312, Note_off_c, 1, 59, 0
3, 27456, Note_on_c, 1, 60, 93
3, 27504, Note_off_c, 1, 60, 0
3, 27648, Note_on_c, 1, 60, 93
3, 27696, Note_off_c, 1, 60, 0
3, 27840, Note_on_c, 1, 62, 93
3, 27888, Note_off_c, 1, 62, 0
3, 28032, Note_on_c, 1, 62, 93
3, 28080, Note_off_c, 1, 62, 0
3, 28224, Note_on_c, 1, 60, 93
3, 28260, Note_off_c, 1, 60, 0
3, 28272, Note_on_c, 1, 62, 93
3, 28308, Note_off_c, 1, 62, 0
3, 28320, Note_on_c, 1, 59, 93
3, 28398, Note_off_c, 1, 59, 0
3, 28416, Note_on_c, 1, 60, 93
3, 28464, Note_off_c, 1, 60, 0
3, 28560, Note_on_c, 1, 55, 93
3, 28608, Note_off_c, 1, 55, 0
3, 28608, Note_on_c, 1, 55, 93
3, 28656, Note_off_c, 1, 55, 0
3, 28704, Note_on_c, 1, 55, 93
3, 28752, Note_off_c, 1, 55, 0
3, 28800, Note_on_c, 1, 55, 93
3, 28848, Note_off_c, 1, 55, 0
3, 29952, Note_on_c, 1, 60, 93
3, 30000, Note_off_c, 1, 60, 0
3, 30144, Note_on_c, 1, 59, 93
3, 30192, Note_off_c, 1, 59, 0
3, 30336, Note_on_c, 1, 55, 93
3, 30384, Note_off_c, 1, 55, 0
3, 30528, Note_on_c, 1, 56, 93
3, 30576, Note_off_c, 1, 56, 0
3, 30720, Note_on_c, 1, 50, 93
3, 30768, Note_off_c, 1, 50, 0
3, 31104, Note_on_c, 1, 62, 93
3, 31128, Note_off_c, 1, 62, 0
3, 31128, Note_on_c, 1, 63, 93
3, 31152, Note_off_c, 1, 63, 0
3, 31152, Note_on_c, 1, 62, 93
3, 31176, Note_off_c, 1, 62, 0
3, 31176, Note_on_c, 1, 60, 93
3, 31200, Note_off_c, 1, 60, 0
3, 31200, Note_on_c, 1, 59, 93
3, 31224, Note_off_c, 1, 59, 0
3, 31224, Note_on_c, 1, 62, 93
3, 31248, Note_off_c, 1, 62, 0
3, 31248, Note_on_c, 1, 59, 93
3, 31272, Note_off_c, 1, 59, 0
3, 31272, Note_on_c, 1, 62, 93
3, 31296, Note_off_c, 1, 62, 0
3, 31296, Note_on_c, 1, 55, 93
3, 31320, Note_off_c, 1, 55, 0
3, 31320, Note_on_c, 1, 56, 93
3, 31344, Note_off_c, 1, 56, 0
3, 31344, Note_on_c, 1, 55, 93
3, 31368, Note_off_c, 1, 55, 0
3, 31368, Note_on_c, 1, 53, 93
3, 31392, Note_off_c, 1, 53, 0
3, 31392, Note_on_c, 1, 51, 93
3, 31416, Note_off_c, 1, 51, 0
3, 31416, Note_on_c, 1, 56, 93
3, 31440, Note_off_c, 1, 56, 0
3, 31440, Note_on_c, 1, 51, 93
3, 31464, Note_off_c, 1, 51, 0
3, 31464, Note_on_c, 1, 56, 93
3, 31488, Note_off_c, 1, 56, 0
3, 31488, Note_on_c, 1, 53, 93
3, 31512, Note_off_c, 1, 53, 0
3, 31512, Note_on_c, 1, 55, 93
3, 31536, Note_off_c, 1, 55, 0
3, 31536, Note_on_c, 1, 53, 93
3, 31560, Note_off_c, 1, 53, 0
3, 31560, Note_on_c, 1, 51, 93
3, 31584, Note_off_c, 1, 51, 0
3, 31584, Note_on_c, 1, 50, 93
3, 31608, Note_off_c, 1, 50, 0
3, 31608, Note_on_c, 1, 53, 93
3, 31632, Note_off_c, 1, 53, 0
3, 31632, Note_on_c, 1, 50, 93
3, 31656, Note_off_c, 1, 50, 0
3, 31656, Note_on_c, 1, 53, 93
3, 31680, Note_off_c, 1, 53, 0
3, 31680, Note_on_c, 1, 51, 93
3, 31704, Note_off_c, 1, 51, 0
3, 31704, Note_on_c, 1, 53, 93
3, 31728, Note_off_c, 1, 53, 0
3, 31728, Note_on_c, 1, 55, 93
3, 31752, Note_off_c, 1, 55, 0
3, 31752, Note_on_c, 1, 51, 93
3, 31776, Note_off_c, 1, 51, 0
3, 31776, Note_on_c, 1, 50, 93
3, 31800, Note_off_c, 1, 50, 0
3, 31800, Note_on_c, 1, 59, 93
3, 31824, Note_off_c, 1, 59, 0
3, 31824, Note_on_c, 1, 55, 93
3, 31848, Note_off_c, 1, 55, 0
3, 31848, Note_on_c, 1, 59, 93
3, 31872, Note_off_c, 1, 59, 0
3, 31872, Note_on_c, 1, 60, 93
3, 31896, Note_off_c, 1, 60, 0
3, 31896, Note_on_c, 1, 58, 93
3, 31920, Note_off_c, 1, 58, 0
3, 31920, Note_on_c, 1, 57, 93
3, 31944, Note_off_c, 1, 57, 0
3, 31944, Note_on_c, 1, 60, 93
3, 31968, Note_off_c, 1, 60, 0
3, 31968, Note_on_c, 1, 59, 93
3, 31992, Note_off_c, 1, 59, 0
3, 31992, Note_on_c, 1, 60, 93
3, 32016, Note_off_c, 1, 60, 0
3, 32016, Note_on_c, 1, 62, 93
3, 32040, Note_off_c, 1, 62, 0
3, 32040, Note_on_c, 1, 59, 93
3, 32064, Note_off_c, 1, 59, 0
3, 32064, Note_on_c, 1, 57, 93
3, 32088, Note_off_c, 1, 57, 0
3, 32088, Note_on_c, 1, 55, 93
3, 32112, Note_off_c, 1, 55, 0
3, 32112, Note_on_c, 1, 54, 93
3, 32136, Note_off_c, 1, 54, 0
3, 32136, Note_on_c, 1, 57, 93
3, 32160, Note_off_c, 1, 57, 0
3, 32160, Note_on_c, 1, 55, 93
3, 32172, Note_off_c, 1, 55, 0
3, 32172, Note_on_c, 1, 50, 93
3, 32184, Note_off_c, 1, 50, 0
3, 32184, Note_on_c, 1, 47, 93
3, 32196, Note_off_c, 1, 47, 0
3, 32196, Note_on_c, 1, 50, 93
3, 32208, Note_off_c, 1, 50, 0
3, 32208, Note_on_c, 1, 43, 93
3, 32232, Note_off_c, 1, 43, 0
3, 32232, Note_on_c, 1, 41, 93
3, 32256, Note_off_c, 1, 41, 0
3, 32352, Note_on_c, 1, 55, 93
3, 32448, Note_off_c, 1, 55, 0
3, 32460, Note_on_c, 1, 48, 93
3, 32472, Note_off_c, 1, 48, 0
3, 32472, Note_on_c, 1, 50, 93
3, 32484, Note_off_c, 1, 50, 0
3, 32484, Note_on_c, 1, 52, 93
3, 32496, Note_off_c, 1, 52, 0
3, 32496, Note_on_c, 1, 53, 93
3, 32508, Note_off_c, 1, 53, 0
3, 32508, Note_on_c, 1, 55, 93
3, 32520, Note_off_c, 1, 55, 0
3, 32520, Note_on_c, 1, 57, 93
3, 32532, Note_off_c, 1, 57, 0
3, 32532, Note_on_c, 1, 59, 93
3, 32544, Note_off_c, 1, 59, 0
3, 32544, Note_on_c, 1, 60, 93
3, 32556, Note_off_c, 1, 60, 0
3, 33468, Note_on_c, 1, 62, 93
3, 33480, Note_off_c, 1, 62, 0
3, 33480, Note_on_c, 1, 60, 93
3, 33492, Note_off_c, 1, 60, 0
3, 33492, Note_on_c, 1, 59, 93
3, 33504, Note_off_c, 1, 59, 0
3, 33504, Note_on_c, 1, 60, 93
3, 33792, Note_off_c, 1, 60, 0
3, 33792, End_track
4, 0, Start_track
4, 0, Title_t, "Track4"
4, 0, Program_c, 2, 19
4, 0, Control_c, 2, 7, 100
4, 0, Control_c, 2, 10, 64
4, 0, Note_on_c, 2, 36, 93
4, 12, Note_off_c, 2, 36, 0
4, 12, Note_on_c, 2, 35, 93
4, 24, Note_off_c, 2, 35, 0
4, 24, Note_on_c, 2, 36, 93
4, 96, Note_off_c, 2, 36, 0
4, 120, Note_on_c, 2, 31, 93
4, 144, Note_off_c, 2, 31, 0
4, 144, Note_on_c, 2, 36, 93
4, 168, Note_off_c, 2, 36, 0
4, 168, Note_on_c, 2, 35, 93
4, 192, Note_off_c, 2, 35, 0
4, 192, Note_on_c, 2, 36, 93
4, 204, Note_off_c, 2, 36, 0
4, 204, Note_on_c, 2, 35, 93
4, 216, Note_off_c, 2, 35, 0
4, 216, Note_on_c, 2, 36, 93
4, 288, Note_off_c, 2, 36, 0
4, 312, Note_on_c, 2, 36, 93
4, 336, Note_off_c, 2, 36, 0
4, 336, Note_on_c, 2, 39, 93
4, 360, Note_off_c, 2, 39, 0
4, 360, Note_on_c, 2, 38, 93
4, 384, Note_off_c, 2, 38, 0
4, 384, Note_on_c, 2, 39, 93
4, 396, Note_off_c, 2, 39, 0
4, 396, Note_on_c, 2, 38, 93
4, 408, Note_off_c, 2, 38, 0
4, 408, Note_on_c, 2, 39, 93
4, 480, Note_off_c, 2, 39, 0
4, 504, Note_on_c, 2, 39, 93
4, 528, Note_off_c, 2, 39, 0
4, 528, Note_on_c, 2, 43, 93
4, 552, Note_off_c, 2, 43, 0
4, 552, Note_on_c, 2, 41, 93
4, 576, Note_off_c, 2, 41, 0
4, 576, Note_on_c, 2, 43, 93
4, 588, Note_off_c, 2, 43, 0
4, 588, Note_on_c, 2, 41, 93
4, 600, Note_off_c, 2, 41, 0
4, 600, Note_on_c, 2, 43, 93
4, 672, Note_off_c, 2, 43, 0
4, 696, Note_on_c, 2, 43, 93
4, 720, Note_off_c, 2, 43, 0
4, 720, Note_on_c, 2, 48, 93
4, 744, Note_off_c, 2, 48, 0
4, 744, Note_on_c, 2, 47, 93
4, 768, Note_off_c, 2, 47, 0
4, 768, Note_on_c, 2, 48, 93
4, 780, Note_off_c, 2, 48, 0
4, 780, Note_on_c, 2, 47, 93
4, 792, Note_off_c, 2, 47, 0
4, 792, Note_on_c, 2, 48, 93
4, 864, Note_off_c, 2, 48, 0
4, 888, Note_on_c, 2, 48, 93
4, 912, Note_off_c, 2, 48, 0
4, 912, Note_on_c, 2, 43, 93
4, 936, Note_off_c, 2, 43, 0
4, 936, Note_on_c, 2, 46, 93
4, 960, Note_off_c, 2, 46, 0
4, 960, Note_on_c, 2, 44, 93
4, 984, Note_off_c, 2, 44, 0
4, 984, Note_on_c, 2, 48, 93
4, 1008, Note_off_c, 2, 48, 0
4, 1008, Note_on_c, 2, 41, 93
4, 1032, Note_off_c, 2, 41, 0
4, 1032, Note_on_c, 2, 44, 93
4, 1056, Note_off_c, 2, 44, 0
4, 1056, Note_on_c, 2, 38, 93
4, 1080, Note_off_c, 2, 38, 0
4, 1080, Note_on_c, 2, 46, 93
4, 1104, Note_off_c, 2, 46, 0
4, 1104, Note_on_c, 2, 44, 93
4, 1128, Note_off_c, 2, 44, 0
4, 1128, Note_on_c, 2, 46, 93
4, 1152, Note_off_c, 2, 46, 0
4, 1152, Note_on_c, 2, 43, 93
4, 1176, Note_off_c, 2, 43, 0
4, 1176, Note_on_c, 2, 46, 93
4, 1200, Note_off_c, 2, 46, 0
4, 1200, Note_on_c, 2, 39, 93
4, 1224, Note_off_c, 2, 39, 0
4, 1224, Note_on_c, 2, 43, 93
4, 1248, Note_off_c, 2, 43, 0
4, 1248, Note_on_c, 2, 36, 93
4, 1272, Note_off_c, 2, 36, 0
4, 1272, Note_on_c, 2, 44, 93
4, 1296, Note_off_c, 2, 44, 0
4, 1296, Note_on_c, 2, 43, 93
4, 1320, Note_off_c, 2, 43, 0
4, 1320, Note_on_c, 2, 44, 93
4, 1344, Note_off_c, 2, 44, 0
4, 1344, Note_on_c, 2, 41, 93
4, 1368, Note_off_c, 2, 41, 0
4, 1368, Note_on_c, 2, 44, 93
4, 1392, Note_off_c, 2, 44, 0
4, 1392, Note_on_c, 2, 38, 93
4, 1416, Note_off_c, 2, 38, 0
4, 1416, Note_on_c, 2, 41, 93
4, 1440, Note_off_c, 2, 41, 0
4, 1440, Note_on_c, 2, 35, 93
4, 1464, Note_off_c, 2, 35, 0
4, 1464, Note_on_c, 2, 43, 93
4, 1488, Note_off_c, 2, 43, 0
4, 1488, Note_on_c, 2, 41, 93
4, 1512, Note_off_c, 2, 41, 0
4, 1512, Note_on_c, 2, 43, 93
4, 1536, Note_off_c, 2, 43, 0
4, 1536, Note_on_c, 2, 39, 93
4, 1560, Note_off_c, 2, 39, 0
4, 1560, Note_on_c, 2, 43, 93
4, 1584, Note_off_c, 2, 43, 0
4, 1584, Note_on_c, 2, 41, 93
4, 1608, Note_off_c, 2, 41, 0
4, 1608, Note_on_c, 2, 43, 93
4, 1632, Note_off_c, 2, 43, 0
4, 1632, Note_on_c, 2, 38, 93
4, 1656, Note_off_c, 2, 38, 0
4, 1656, Note_on_c, 2, 43, 93
4, 1680, Note_off_c, 2, 43, 0
4, 1680, Note_on_c, 2, 41, 93
4, 1704, Note_off_c, 2, 41, 0
4, 1704, Note_on_c, 2, 43, 93
4, 1728, Note_off_c, 2, 43, 0
4, 1728, Note_on_c, 2, 39, 93
4, 1752, Note_off_c, 2, 39, 0
4, 1752, Note_on_c, 2, 43, 93
4, 1776, Note_off_c, 2, 43, 0
4, 1776, Note_on_c, 2, 36, 93
4, 1800, Note_off_c, 2, 36, 0
4, 1800, Note_on_c, 2, 41, 93
4, 1824, Note_off_c, 2, 41, 0
4, 1824, Note_on_c, 2, 38, 93
4, 1848, Note_off_c, 2, 38, 0
4, 1848, Note_on_c, 2, 41, 93
4, 1872, Note_off_c, 2, 41, 0
4, 1872, Note_on_c, 2, 34, 93
4, 1896, Note_off_c, 2, 34, 0
4, 1896, Note_on_c, 2, 39, 93
4, 1920, Note_off_c, 2, 39, 0
4, 1920, Note_on_c, 2, 36, 93
4, 1944, Note_off_c, 2, 36, 0
4, 1944, Note_on_c, 2, 39, 93
4, 1968, Note_off_c, 2, 39, 0
4, 1968, Note_on_c, 2, 33, 93
4, 1992, Note_off_c, 2, 33, 0
4, 1992, Note_on_c, 2, 38, 93
4, 2016, Note_off_c, 2, 38, 0
4, 2016, Note_on_c, 2, 34, 93
4, 2040, Note_off_c, 2, 34, 0
4, 2040, Note_on_c, 2, 38, 93
4, 2064, Note_off_c, 2, 38, 0
4, 2064, Note_on_c, 2, 31, 93
4, 2088, Note_off_c, 2, 31, 0
4, 2088, Note_on_c, 2, 36, 93
4, 2112, Note_off_c, 2, 36, 0
4, 2112, Note_on_c, 2, 32, 93
4, 2136, Note_off_c, 2, 32, 0
4, 2136, Note_on_c, 2, 36, 93
4, 2160, Note_off_c, 2, 36, 0
4, 2160, Note_on_c, 2, 29, 93
4, 2184, Note_off_c, 2, 29, 0
4, 2184, Note_on_c, 2, 34, 93
4, 2208, Note_off_c, 2, 34, 0
4, 2208, Note_on_c, 2, 31, 93
4, 2232, Note_off_c, 2, 31, 0
4, 2232, Note_on_c, 2, 34, 93
4, 2256, Note_off_c, 2, 34, 0
4, 2256, Note_on_c, 2, 27, 93
4, 2280, Note_off_c, 2, 27, 0
4, 2280, Note_on_c, 2, 39, 93
4, 2304, Note_off_c, 2, 39, 0
4, 2304, Note_on_c, 2, 36, 93
4, 2328, Note_off_c, 2, 36, 0
4, 2328, Note_on_c, 2, 39, 93
4, 2352, Note_off_c, 2, 39, 0
4, 2352, Note_on_c, 2, 32, 93
4, 2376, Note_off_c, 2, 32, 0
4, 2376, Note_on_c, 2, 41, 93
4, 2400, Note_off_c, 2, 41, 0
4, 2400, Note_on_c, 2, 38, 93
4, 2424, Note_off_c, 2, 38, 0
4, 2424, Note_on_c, 2, 41, 93
4, 2448, Note_off_c, 2, 41, 0
4, 2448, Note_on_c, 2, 35, 93
4, 2472, Note_off_c, 2, 35, 0
4, 2472, Note_on_c, 2, 43, 93
4, 2496, Note_off_c, 2, 43, 0
4, 2496, Note_on_c, 2, 39, 93
4, 2520, Note_off_c, 2, 39, 0
4, 2520, Note_on_c, 2, 43, 93
4, 2544, Note_off_c, 2, 43, 0
4, 2544, Note_on_c, 2, 36, 93
4, 2568, Note_off_c, 2, 36, 0
4, 2568, Note_on_c, 2, 45, 93
4, 2592, Note_off_c, 2, 45, 0
4, 2592, Note_on_c, 2, 38, 93
4, 2616, Note_off_c, 2, 38, 0
4, 2616, Note_on_c, 2, 47, 93
4, 2640, Note_off_c, 2, 47, 0
4, 2640, Note_on_c, 2, 39, 93
4, 2664, Note_off_c, 2, 39, 0
4, 2664, Note_on_c, 2, 48, 93
4, 2688, Note_off_c, 2, 48, 0
4, 2688, Note_on_c, 2, 41, 93
4, 2712, Note_off_c, 2, 41, 0
4, 2712, Note_on_c, 2, 44, 93
4, 2736, Note_off_c, 2, 44, 0
4, 2736, Note_on_c, 2, 38, 93
4, 2760, Note_off_c, 2, 38, 0
4, 2760, Note_on_c, 2, 41, 93
4, 2784, Note_off_c, 2, 41, 0
4, 2784, Note_on_c, 2, 39, 93
4, 2808, Note_off_c, 2, 39, 0
4, 2808, Note_on_c, 2, 43, 93
4, 2832, Note_off_c, 2, 43, 0
4, 2832, Note_on_c, 2, 36, 93
4, 2856, Note_off_c, 2, 36, 0
4, 2856, Note_on_c, 2, 39, 93
4, 2880, Note_off_c, 2, 39, 0
4, 2880, Note_on_c, 2, 29, 93
4, 2904, Note_off_c, 2, 29, 0
4, 2904, Note_on_c, 2, 44, 93
4, 2928, Note_off_c, 2, 44, 0
4, 2928, Note_on_c, 2, 43, 93
4, 2952, Note_off_c, 2, 43, 0
4, 2952, Note_on_c, 2, 41, 93
4, 2976, Note_off_c, 2, 41, 0
4, 2976, Note_on_c, 2, 43, 93
4, 2988, Note_off_c, 2, 43, 0
4, 2988, Note_on_c, 2, 42, 93
4, 3000, Note_off_c, 2, 42, 0
4, 3000, Note_on_c, 2, 43, 93
4, 3024, Note_off_c, 2, 43, 0
4, 3024, Note_on_c, 2, 31, 93
4, 3072, Note_off_c, 2, 31, 0
4, 3072, Note_on_c, 2, 36, 93
4, 4416, Note_off_c, 2, 36, 0
4, 4416, Note_on_c, 2, 38, 93
4, 4992, Note_off_c, 2, 38, 0
4, 4992, Note_on_c, 2, 26, 93
4, 5184, Note_off_c, 2, 26, 0
4, 5184, Note_on_c, 2, 26, 93
4, 5208, Note_off_c, 2, 26, 0
4, 5208, Note_on_c, 2, 38, 93
4, 5232, Note_off_c, 2, 38, 0
4, 5232, Note_on_c, 2, 39, 93
4, 5256, Note_off_c, 2, 39, 0
4, 5256, Note_on_c, 2, 38, 93
4, 5280, Note_off_c, 2, 38, 0
4, 5280, Note_on_c, 2, 36, 93
4, 5304, Note_off_c, 2, 36, 0
4, 5304, Note_on_c, 2, 34, 93
4, 5328, Note_off_c, 2, 34, 0
4, 5328, Note_on_c, 2, 33, 93
4, 5352, Note_off_c, 2, 33, 0
4, 5352, Note_on_c, 2, 31, 93
4, 5376, Note_off_c, 2, 31, 0
4, 5376, Note_on_c, 2, 30, 93
4, 5760, Note_off_c, 2, 30, 0
4, 5760, Note_on_c, 2, 31, 93
4, 6912, Note_off_c, 2, 31, 0
4, 6912, Note_on_c, 2, 28, 93
4, 7104, Note_off_c, 2, 28, 0
4, 7104, Note_on_c, 2, 29, 93
4, 7488, Note_off_c, 2, 29, 0
4, 7488, Note_on_c, 2, 27, 93
4, 8064, Note_off_c, 2, 27, 0
4, 8064, Note_on_c, 2, 32, 93
4, 8256, Note_off_c, 2, 32, 0
4, 8256, Note_on_c, 2, 31, 93
4, 9024, Note_off_c, 2, 31, 0
4, 9024, Note_on_c, 2, 28, 93
4, 9216, Note_off_c, 2, 28, 0
4, 9216, Note_on_c, 2, 29, 93
4, 10176, Note_off_c, 2, 29, 0
4, 10176, Note_on_c, 2, 24, 93
4, 10752, Note_off_c, 2, 24, 0
4, 10752, Note_on_c, 2, 36, 93
4, 10944, Note_off_c, 2, 36, 0
4, 26304, Note_on_c, 2, 36, 110
4, 26328, Note_off_c, 2, 36, 0
4, 26328, Note_on_c, 2, 39, 110
4, 26352, Note_off_c, 2, 39, 0
4, 26352, Note_on_c, 2, 38, 110
4, 26376, Note_off_c, 2, 38, 0
4, 26376, Note_on_c, 2, 39, 110
4, 26400, Note_off_c, 2, 39, 0
4, 26400, Note_on_c, 2, 36, 110
4, 26448, Note_off_c, 2, 36, 0
4, 26448, Note_on_c, 2, 39, 110
4, 26496, Note_off_c, 2, 39, 0
4, 26496, Note_on_c, 2, 38, 110
4, 26592, Note_off_c, 2, 38, 0
4, 26592, Note_on_c, 2, 31, 110
4, 26688, Note_off_c, 2, 31, 0
4, 26688, Note_on_c, 2, 36, 110
4, 26712, Note_off_c, 2, 36, 0
4, 26712, Note_on_c, 2, 39, 110
4, 26736, Note_off_c, 2, 39, 0
4, 26736, Note_on_c, 2, 38, 110
4, 26760, Note_off_c, 2, 38, 0
4, 26760, Note_on_c, 2, 39, 110
4, 26784, Note_off_c, 2, 39, 0
4, 26784, Note_on_c, 2, 38, 110
4, 26808, Note_off_c, 2, 38, 0
4, 26808, Note_on_c, 2, 41, 110
4, 26832, Note_off_c, 2, 41, 0
4, 26832, Note_on_c, 2, 39, 110
4, 26856, Note_off_c, 2, 39, 0
4, 26856, Note_on_c, 2, 41, 110
4, 26880, Note_off_c, 2, 41, 0
4, 26880, Note_on_c, 2, 39, 110
4, 26976, Note_off_c, 2, 39, 0
4, 26976, Note_on_c, 2, 36, 110
4, 27072, Note_off_c, 2, 36, 0
4, 27072, Note_on_c, 2, 39, 110
4, 27096, Note_off_c, 2, 39, 0
4, 27096, Note_on_c, 2, 43, 110
4, 27120, Note_off_c, 2, 43, 0
4, 27120, Note_on_c, 2, 41, 110
4, 27144, Note_off_c, 2, 41, 0
4, 27144, Note_on_c, 2, 43, 110
4, 27168, Note_off_c, 2, 43, 0
4, 27168, Note_on_c, 2, 41, 110
4, 27192, Note_off_c, 2, 41, 0
4, 27192, Note_on_c, 2, 44, 110
4, 27216, Note_off_c, 2, 44, 0
4, 27216, Note_on_c, 2, 43, 110
4, 27240, Note_off_c, 2, 43, 0
4, 27240, Note_on_c, 2, 44, 110
4, 27264, Note_off_c, 2, 44, 0
4, 27264, Note_on_c, 2, 43, 110
4, 27288, Note_off_c, 2, 43, 0
4, 27288, Note_on_c, 2, 44, 110
4, 27312, Note_off_c, 2, 44, 0
4, 27312, Note_on_c, 2, 41, 110
4, 27336, Note_off_c, 2, 41, 0
4, 27336, Note_on_c, 2, 43, 110
4, 27360, Note_off_c, 2, 43, 0
4, 27360, Note_on_c, 2, 39, 110
4, 27384, Note_off_c, 2, 39, 0
4, 27384, Note_on_c, 2, 41, 110
4, 27408, Note_off_c, 2, 41, 0
4, 27408, Note_on_c, 2, 38, 110
4, 27432, Note_off_c, 2, 38, 0
4, 27432, Note_on_c, 2, 39, 110
4, 27456, Note_off_c, 2, 39, 0
4, 27456, Note_on_c, 2, 36, 110
4, 27480, Note_off_c, 2, 36, 0
4, 27480, Note_on_c, 2, 38, 110
4, 27504, Note_off_c, 2, 38, 0
4, 27504, Note_on_c, 2, 34, 110
4, 27528, Note_off_c, 2, 34, 0
4, 27528, Note_on_c, 2, 36, 110
4, 27552, Note_off_c, 2, 36, 0
4, 27552, Note_on_c, 2, 32, 110
4, 27576, Note_off_c, 2, 32, 0
4, 27576, Note_on_c, 2, 34, 110
4, 27600, Note_off_c, 2, 34, 0
4, 27600, Note_on_c, 2, 31, 110
4, 27624, Note_off_c, 2, 31, 0
4, 27624, Note_on_c, 2, 32, 110
4, 27648, Note_off_c, 2, 32, 0
4, 27648, Note_on_c, 2, 29, 110
4, 27672, Note_off_c, 2, 29, 0
4, 27672, Note_on_c, 2, 44, 110
4, 27696, Note_off_c, 2, 44, 0
4, 27696, Note_on_c, 2, 43, 110
4, 27720, Note_off_c, 2, 43, 0
4, 27720, Note_on_c, 2, 44, 110
4, 27744, Note_off_c, 2, 44, 0
4, 27744, Note_on_c, 2, 41, 110
4, 27768, Note_off_c, 2, 41, 0
4, 27768, Note_on_c, 2, 43, 110
4, 27792, Note_off_c, 2, 43, 0
4, 27792, Note_on_c, 2, 39, 110
4, 27816, Note_off_c, 2, 39, 0
4, 27816, Note_on_c, 2, 41, 110
4, 27840, Note_off_c, 2, 41, 0
4, 27840, Note_on_c, 2, 38, 110
4, 27864, Note_off_c, 2, 38, 0
4, 27864, Note_on_c, 2, 41, 110
4, 27888, Note_off_c, 2, 41, 0
4, 27888, Note_on_c, 2, 39, 110
4, 27912, Note_off_c, 2, 39, 0
4, 27912, Note_on_c, 2, 41, 110
4, 27936, Note_off_c, 2, 41, 0
4, 27936, Note_on_c, 2, 38, 110
4, 27960, Note_off_c, 2, 38, 0
4, 27960, Note_on_c, 2, 39, 110
4, 27984, Note_off_c, 2, 39, 0
4, 27984, Note_on_c, 2, 36, 110
4, 28008, Note_off_c, 2, 36, 0
4, 28008, Note_on_c, 2, 38, 110
4, 28032, Note_off_c, 2, 38, 0
4, 28032, Note_on_c, 2, 35, 110
4, 28056, Note_off_c, 2, 35, 0
4, 28056, Note_on_c, 2, 38, 110
4, 28080, Note_off_c, 2, 38, 0
4, 28080, Note_on_c, 2, 36, 110
4, 28104, Note_off_c, 2, 36, 0
4, 28104, Note_on_c, 2, 38, 110
4, 28128, Note_off_c, 2, 38, 0
4, 28128, Note_on_c, 2, 31, 110
4, 28152, Note_off_c, 2, 31, 0
4, 28152, Note_on_c, 2, 35, 110
4, 28176, Note_off_c, 2, 35, 0
4, 28176, Note_on_c, 2, 33, 110
4, 28200, Note_off_c, 2, 33, 0
4, 28200, Note_on_c, 2, 35, 110
4, 28224, Note_off_c, 2, 35, 0
4, 28224, Note_on_c, 2, 27, 110
4, 28272, Note_off_c, 2, 27, 0
4, 28272, Note_on_c, 2, 29, 110
4, 28320, Note_off_c, 2, 29, 0
4, 28320, Note_on_c, 2, 31, 110
4, 28416, Note_off_c, 2, 31, 0
4, 28416, Note_on_c, 2, 24, 110
4, 28464, Note_off_c, 2, 24, 0
4, 28560, Note_on_c, 2, 36, 110
4, 28608, Note_off_c, 2, 36, 0
4, 28608, Note_on_c, 2, 35, 110
4, 28656, Note_off_c, 2, 35, 0
4, 28704, Note_on_c, 2, 31, 110
4, 28752, Note_off_c, 2, 31, 0
4, 28800, Note_on_c, 2, 24, 110
4, 28848, Note_off_c, 2, 24, 0
4, 29952, Note_on_c, 2, 24, 110
4, 29976, Note_off_c, 2, 24, 0
4, 29976, Note_on_c, 2, 27, 110
4, 30000, Note_off_c, 2, 27, 0
4, 30000, Note_on_c, 2, 26, 110
4, 30024, Note_off_c, 2, 26, 0
4, 30024, Note_on_c, 2, 27, 110
4, 30048, Note_off_c, 2, 27, 0
4, 30048, Note_on_c, 2, 24, 110
4, 30072, Note_off_c, 2, 24, 0
4, 30072, Note_on_c, 2, 27, 110
4, 30096, Note_off_c, 2, 27, 0
4, 30096, Note_on_c, 2, 26, 110
4, 30120, Note_off_c, 2, 26, 0
4, 30120, Note_on_c, 2, 27, 110
4, 30144, Note_off_c, 2, 27, 0
4, 30144, Note_on_c, 2, 26, 110
4, 30168, Note_off_c, 2, 26, 0
4, 30168, Note_on_c, 2, 29, 110
4, 30192, Note_off_c, 2, 29, 0
4, 30192, Note_on_c, 2, 27, 110
4, 30216, Note_off_c, 2, 27, 0
4, 30216, Note_on_c, 2, 29, 110
4, 30240, Note_off_c, 2, 29, 0
4, 30240, Note_on_c, 2, 26, 110
4, 30264, Note_off_c, 2, 26, 0
4, 30264, Note_on_c, 2, 29, 110
4, 30288, Note_off_c, 2, 29, 0
4, 30288, Note_on_c, 2, 27, 110
4, 30312, Note_off_c, 2, 27, 0
4, 30312, Note_on_c, 2, 29, 110
4, 30336, Note_off_c, 2, 29, 0
4, 30336, Note_on_c, 2, 27, 110
4, 30360, Note_off_c, 2, 27, 0
4, 30360, Note_on_c, 2, 31, 110
4, 30384, Note_off_c, 2, 31, 0
4, 30384, Note_on_c, 2, 29, 110
4, 30408, Note_off_c, 2, 29, 0
4, 30408, Note_on_c, 2, 31, 110
4, 30432, Note_off_c, 2, 31, 0
4, 30432, Note_on_c, 2, 27, 110
4, 30456, Note_off_c, 2, 27, 0
4, 30456, Note_on_c, 2, 31, 110
4, 30480, Note_off_c, 2, 31, 0
4, 30480, Note_on_c, 2, 29, 110
4, 30504, Note_off_c, 2, 29, 0
4, 30504, Note_on_c, 2, 31, 110
4, 30528, Note_off_c, 2, 31, 0
4, 30528, Note_on_c, 2, 29, 110
4, 30552, Note_off_c, 2, 29, 0
4, 30552, Note_on_c, 2, 32, 110
4, 30576, Note_off_c, 2, 32, 0
4, 30576, Note_on_c, 2, 31, 110
4, 30600, Note_off_c, 2, 31, 0
4, 30600, Note_on_c, 2, 32, 110
4, 30624, Note_off_c, 2, 32, 0
4, 30624, Note_on_c, 2, 29, 110
4, 30648, Note_off_c, 2, 29, 0
4, 30648, Note_on_c, 2, 32, 110
4, 30672, Note_off_c, 2, 32, 0
4, 30672, Note_on_c, 2, 31, 110
4, 30696, Note_off_c, 2, 31, 0
4, 30696, Note_on_c, 2, 32, 110
4, 30720, Note_off_c, 2, 32, 0
4, 30720, Note_on_c, 2, 31, 110
4, 30768, Note_off_c, 2, 31, 0
4, 32256, Note_on_c, 2, 28, 110
4, 32448, Note_off_c, 2, 28, 0
4, 33024, Note_on_c, 2, 29, 110
4, 33216, Note_off_c, 2, 29, 0
4, 33600, Note_on_c, 2, 24, 110
4, 33792, Note_off_c, 2, 24, 0
4, 33792, End_track
0, 0, End_of_file
