0, 0, Header, 1, 4, 96
1, 0, Start_track
1, 0, Time_signature, 4, 2, 24, 8
1, 0, Title_t, "untitled"
1, 0, Title_t, "Track1"
1, 0, Tempo, 600000
1, 5760, Tempo, 645161
1, 6144, Tempo, 689655
1, 6528, Tempo, 600000
1, 11328, Tempo, 645161
1, 11328, Tempo, 612244
1, 11334, Tempo, 600000
1, 11520, Tempo, 689655
1, 11616, Tempo, 705882
1, 11622, Tempo, 697674
1, 11724, Tempo, 800000
1, 11814, Tempo, 821917
1, 11904, Tempo, 576923
1, 13824, Tempo, 600000
1, 36864, Tempo, 645161
1, 37056, Tempo, 689655
1, 37248, Tempo, 779220
1, 37440, Tempo, 845070
1, 37632, Tempo, 600000
1, 41856, Tempo, 674157
1, 42240, Tempo, 705882
1, 42624, Tempo, 600000
1, 66048, Tempo, 638297
1, 66234, Tempo, 674157
1, 66432, Tempo, 674157
1, 66618, Tempo, 731707
1, 66720, Tempo, 789473
1, 66816, Tempo, 600000
1, 77568, Tempo, 659340
1, 77952, Tempo, 705882
1, 78144, Tempo, 779220
1, 78336, Tempo, 789473
1, 78342, Tempo, 869565
1, 78522, Tempo, 845070
1, 78720, Tempo, 869565
1, 79104, Tempo, 441176
1, 104832, Tempo, 465116
1, 105600, Tempo, 491803
1, 106752, Tempo, 363636
1, 131520, Tempo, 384615
1, 131808, Tempo, 405405
1, 132096, Tempo, 454545
1, 132384, Tempo, 476190
1, 132672, Tempo, 674157
1, 152256, Tempo, 750000
1, 152550, Tempo, 869565
1, 152832, Tempo, 1090909
1, 152982, Tempo, 1500000
1, 152982, End_track
2, 0, Start_track
2, 0, Title_t, "Track2"
2, 0, Program_c, 0, 19
2, 0, Control_c, 0, 7, 100
2, 0, Control_c, 0, 10, 64
2, 0, Control_c, 0, 91, 120
2, 0, Note_on_c, 0, 63, 110
2, 192, Note_off_c, 0, 63, 0
2, 192, Note_on_c, 0, 63, 110
2, 336, Note_off_c, 0, 63, 0
2, 336, Note_on_c, 0, 75, 110
2, 384, Note_off_c, 0, 75, 0
2, 384, Note_on_c, 0, 68, 110
2, 960, Note_off_c, 0, 68, 0
2, 960, Note_on_c, 0, 70, 110
2, 1104, Note_off_c, 0, 70, 0
2, 1104, Note_on_c, 0, 62, 110
2, 1152, Note_off_c, 0, 62, 0
2, 1152, Note_on_c, 0, 62, 110
2, 1344, Note_off_c, 0, 62, 0
2, 1344, Note_on_c, 0, 67, 110
2, 1536, Note_off_c, 0, 67, 0
2, 1536, Note_on_c, 0, 79, 110
2, 1548, Note_off_c, 0, 79, 0
2, 1548, Note_on_c, 0, 77, 110
2, 1560, Note_off_c, 0, 77, 0
2, 1560, Note_on_c, 0, 79, 110
2, 1608, Note_off_c, 0, 79, 0
2, 1608, Note_on_c, 0, 80, 110
2, 1632, Note_off_c, 0, 80, 0
2, 1632, Note_on_c, 0, 79, 110
2, 1704, Note_off_c, 0, 79, 0
2, 1704, Note_on_c, 0, 77, 110
2, 1728, Note_off_c, 0, 77, 0
2, 1728, Note_on_c, 0, 79, 110
2, 1800, Note_off_c, 0, 79, 0
2, 1800, Note_on_c, 0, 75, 110
2, 1824, Note_off_c, 0, 75, 0
2, 1824, Note_on_c, 0, 74, 110
2, 1836, Note_off_c, 0, 74, 0
2, 1836, Note_on_c, 0, 75, 110
2, 1848, Note_off_c, 0, 75, 0
2, 1848, Note_on_c, 0, 74, 110
2, 1896, Note_off_c, 0, 74, 0
2, 1896, Note_on_c, 0, 72, 110
2, 1920, Note_off_c, 0, 72, 0
2, 1920, Note_on_c, 0, 77, 110
2, 1932, Note_off_c, 0, 77, 0
2, 1932, Note_on_c, 0, 75, 110
2, 1944, Note_off_c, 0, 75, 0
2, 1944, Note_on_c, 0, 77, 110
2, 1992, Note_off_c, 0, 77, 0
2, 1992, Note_on_c, 0, 79, 110
2, 2016, Note_off_c, 0, 79, 0
2, 2016, Note_on_c, 0, 77, 110
2, 2088, Note_off_c, 0, 77, 0
2, 2088, Note_on_c, 0, 75, 110
2, 2112, Note_off_c, 0, 75, 0
2, 2112, Note_on_c, 0, 77, 110
2, 2184, Note_off_c, 0, 77, 0
2, 2184, Note_on_c, 0, 74, 110
2, 2208, Note_off_c, 0, 74, 0
2, 2208, Note_on_c, 0, 72, 110
2, 2220, Note_off_c, 0, 72, 0
2, 2220, Note_on_c, 0, 74, 110
2, 2232, Note_off_c, 0, 74, 0
2, 2232, Note_on_c, 0, 72, 110
2, 2280, Note_off_c, 0, 72, 0
2, 2280, Note_on_c, 0, 70, 110
2, 2304, Note_off_c, 0, 70, 0
2, 2304, Note_on_c, 0, 75, 110
2, 2376, Note_off_c, 0, 75, 0
2, 2376, Note_on_c, 0, 77, 110
2, 2400, Note_off_c, 0, 77, 0
2, 2400, Note_on_c, 0, 75, 110
2, 2472, Note_off_c, 0, 75, 0
2, 2472, Note_on_c, 0, 74, 110
2, 2496, Note_off_c, 0, 74, 0
2, 2496, Note_on_c, 0, 75, 110
2, 2760, Note_off_c, 0, 75, 0
2, 2760, Note_on_c, 0, 77, 110
2, 2784, Note_off_c, 0, 77, 0
2, 2784, Note_on_c, 0, 75, 110
2, 2856, Note_off_c, 0, 75, 0
2, 2856, Note_on_c, 0, 74, 110
2, 2880, Note_off_c, 0, 74, 0
2, 2880, Note_on_c, 0, 75, 110
2, 3144, Note_off_c, 0, 75, 0
2, 3144, Note_on_c, 0, 77, 110
2, 3168, Note_off_c, 0, 77, 0
2, 3168, Note_on_c, 0, 75, 110
2, 3240, Note_off_c, 0, 75, 0
2, 3240, Note_on_c, 0, 74, 110
2, 3264, Note_off_c, 0, 74, 0
2, 3264, Note_on_c, 0, 75, 110
2, 3528, Note_off_c, 0, 75, 0
2, 3528, Note_on_c, 0, 77, 110
2, 3552, Note_off_c, 0, 77, 0
2, 3552, Note_on_c, 0, 75, 110
2, 3624, Note_off_c, 0, 75, 0
2, 3624, Note_on_c, 0, 74, 110
2, 3648, Note_off_c, 0, 74, 0
2, 3648, Note_on_c, 0, 75, 110
2, 3912, Note_off_c, 0, 75, 0
2, 3912, Note_on_c, 0, 75, 110
2, 3936, Note_off_c, 0, 75, 0
2, 3936, Note_on_c, 0, 74, 110
2, 4008, Note_off_c, 0, 74, 0
2, 4008, Note_on_c, 0, 72, 110
2, 4032, Note_off_c, 0, 72, 0
2, 4032, Note_on_c, 0, 74, 110
2, 4416, Note_off_c, 0, 74, 0
2, 4416, Note_on_c, 0, 72, 110
2, 4680, Note_off_c, 0, 72, 0
2, 4680, Note_on_c, 0, 72, 110
2, 4704, Note_off_c, 0, 72, 0
2, 4704, Note_on_c, 0, 74, 110
2, 4776, Note_off_c, 0, 74, 0
2, 4776, Note_on_c, 0, 75, 110
2, 4800, Note_off_c, 0, 75, 0
2, 4800, Note_on_c, 0, 77, 110
2, 5184, Note_off_c, 0, 77, 0
2, 5184, Note_on_c, 0, 75, 110
2, 5568, Note_off_c, 0, 75, 0
2, 5568, Note_on_c, 0, 70, 110
2, 5760, Note_off_c, 0, 70, 0
2, 5760, Note_on_c, 0, 72, 110
2, 6144, Note_off_c, 0, 72, 0
2, 6144, Note_on_c, 0, 65, 110
2, 6336, Note_off_c, 0, 65, 0
2, 6480, Note_on_c, 0, 77, 110
2, 6528, Note_off_c, 0, 77, 0
2, 6528, Note_on_c, 0, 77, 110
2, 7104, Note_off_c, 0, 77, 0
2, 7248, Note_on_c, 0, 74, 110
2, 7296, Note_off_c, 0, 74, 0
2, 7296, Note_on_c, 0, 67, 110
2, 7680, Note_off_c, 0, 67, 0
2, 7680, Note_on_c, 0, 68, 110
2, 7752, Note_off_c, 0, 68, 0
2, 7752, Note_on_c, 0, 70, 110
2, 7776, Note_off_c, 0, 70, 0
2, 7776, Note_on_c, 0, 68, 110
2, 7848, Note_off_c, 0, 68, 0
2, 7848, Note_on_c, 0, 67, 110
2, 7872, Note_off_c, 0, 67, 0
2, 7872, Note_on_c, 0, 70, 110
2, 8592, Note_off_c, 0, 70, 0
2, 8616, Note_on_c, 0, 67, 110
2, 8640, Note_off_c, 0, 67, 0
2, 8640, Note_on_c, 0, 65, 110
2, 8784, Note_off_c, 0, 65, 0
2, 8808, Note_on_c, 0, 67, 110
2, 8832, Note_off_c, 0, 67, 0
2, 8832, Note_on_c, 0, 63, 110
2, 9024, Note_off_c, 0, 63, 0
2, 9024, Note_on_c, 0, 62, 110
2, 9216, Note_off_c, 0, 62, 0
2, 9216, Note_on_c, 0, 68, 110
2, 9288, Note_off_c, 0, 68, 0
2, 9288, Note_on_c, 0, 70, 110
2, 9312, Note_off_c, 0, 70, 0
2, 9312, Note_on_c, 0, 68, 110
2, 9384, Note_off_c, 0, 68, 0
2, 9384, Note_on_c, 0, 67, 110
2, 9408, Note_off_c, 0, 67, 0
2, 9408, Note_on_c, 0, 68, 110
2, 9480, Note_off_c, 0, 68, 0
2, 9480, Note_on_c, 0, 77, 110
2, 9504, Note_off_c, 0, 77, 0
2, 9504, Note_on_c, 0, 70, 110
2, 9576, Note_off_c, 0, 70, 0
2, 9576, Note_on_c, 0, 68, 110
2, 9600, Note_off_c, 0, 68, 0
2, 9600, Note_on_c, 0, 67, 110
2, 9672, Note_off_c, 0, 67, 0
2, 9672, Note_on_c, 0, 68, 110
2, 9696, Note_off_c, 0, 68, 0
2, 9696, Note_on_c, 0, 67, 110
2, 9768, Note_off_c, 0, 67, 0
2, 9768, Note_on_c, 0, 65, 110
2, 9792, Note_off_c, 0, 65, 0
2, 9792, Note_on_c, 0, 67, 110
2, 9864, Note_off_c, 0, 67, 0
2, 9864, Note_on_c, 0, 75, 110
2, 9888, Note_off_c, 0, 75, 0
2, 9888, Note_on_c, 0, 67, 110
2, 9960, Note_off_c, 0, 67, 0
2, 9960, Note_on_c, 0, 65, 110
2, 9984, Note_off_c, 0, 65, 0
2, 9984, Note_on_c, 0, 63, 110
2, 10056, Note_off_c, 0, 63, 0
2, 10056, Note_on_c, 0, 65, 110
2, 10080, Note_off_c, 0, 65, 0
2, 10080, Note_on_c, 0, 63, 110
2, 10152, Note_off_c, 0, 63, 0
2, 10152, Note_on_c, 0, 62, 110
2, 10176, Note_off_c, 0, 62, 0
2, 10176, Note_on_c, 0, 63, 110
2, 10248, Note_off_c, 0, 63, 0
2, 10248, Note_on_c, 0, 72, 110
2, 10272, Note_off_c, 0, 72, 0
2, 10272, Note_on_c, 0, 65, 110
2, 10344, Note_off_c, 0, 65, 0
2, 10344, Note_on_c, 0, 63, 110
2, 10368, Note_off_c, 0, 63, 0
2, 10368, Note_on_c, 0, 62, 110
2, 10440, Note_off_c, 0, 62, 0
2, 10440, Note_on_c, 0, 63, 110
2, 10464, Note_off_c, 0, 63, 0
2, 10464, Note_on_c, 0, 62, 110
2, 10536, Note_off_c, 0, 62, 0
2, 10536, Note_on_c, 0, 60, 110
2, 10560, Note_off_c, 0, 60, 0
2, 10560, Note_on_c, 0, 62, 110
2, 10632, Note_off_c, 0, 62, 0
2, 10632, Note_on_c, 0, 58, 110
2, 10656, Note_off_c, 0, 58, 0
2, 10656, Note_on_c, 0, 62, 110
2, 10728, Note_off_c, 0, 62, 0
2, 10728, Note_on_c, 0, 65, 110
2, 10752, Note_off_c, 0, 65, 0
2, 10752, Note_on_c, 0, 70, 110
2, 10824, Note_off_c, 0, 70, 0
2, 10824, Note_on_c, 0, 72, 110
2, 10848, Note_off_c, 0, 72, 0
2, 10848, Note_on_c, 0, 70, 110
2, 10920, Note_off_c, 0, 70, 0
2, 10920, Note_on_c, 0, 68, 110
2, 10944, Note_off_c, 0, 68, 0
2, 10944, Note_on_c, 0, 70, 110
2, 11016, Note_off_c, 0, 70, 0
2, 11016, Note_on_c, 0, 63, 110
2, 11040, Note_off_c, 0, 63, 0
2, 11040, Note_on_c, 0, 67, 110
2, 11112, Note_off_c, 0, 67, 0
2, 11112, Note_on_c, 0, 70, 110
2, 11136, Note_off_c, 0, 70, 0
2, 11136, Note_on_c, 0, 75, 110
2, 11256, Note_off_c, 0, 75, 0
2, 11256, Note_on_c, 0, 74, 110
2, 11280, Note_off_c, 0, 74, 0
2, 11280, Note_on_c, 0, 72, 110
2, 11304, Note_off_c, 0, 72, 0
2, 11304, Note_on_c, 0, 63, 110
2, 11328, Note_off_c, 0, 63, 0
2, 11328, Note_on_c, 0, 65, 110
2, 11616, Note_off_c, 0, 65, 0
2, 11616, Note_on_c, 0, 70, 110
2, 11688, Note_off_c, 0, 70, 0
2, 11688, Note_on_c, 0, 63, 110
2, 11712, Note_off_c, 0, 63, 0
2, 11712, Note_on_c, 0, 67, 110
2, 11784, Note_off_c, 0, 67, 0
2, 11784, Note_on_c, 0, 65, 110
2, 11808, Note_off_c, 0, 65, 0
2, 11808, Note_on_c, 0, 58, 110
2, 11904, Note_off_c, 0, 58, 0
2, 11904, Note_on_c, 0, 58, 110
2, 12288, Note_off_c, 0, 58, 0
2, 12288, Note_on_c, 0, 70, 110
2, 12336, Note_off_c, 0, 70, 0
2, 12384, Note_on_c, 0, 63, 110
2, 12432, Note_off_c, 0, 63, 0
2, 12480, Note_on_c, 0, 68, 110
2, 12486, Note_off_c, 0, 68, 0
2, 12492, Note_on_c, 0, 70, 110
2, 12498, Note_off_c, 0, 70, 0
2, 12504, Note_on_c, 0, 68, 110
2, 12540, Note_off_c, 0, 68, 0
2, 12576, Note_on_c, 0, 67, 110
2, 12624, Note_off_c, 0, 67, 0
2, 12960, Note_on_c, 0, 68, 59
2, 12984, Note_off_c, 0, 68, 0
2, 12984, Note_on_c, 0, 67, 59
2, 13008, Note_off_c, 0, 67, 0
2, 13008, Note_on_c, 0, 65, 59
2, 13032, Note_off_c, 0, 65, 0
2, 13032, Note_on_c, 0, 63, 59
2, 13056, Note_off_c, 0, 63, 0
2, 13056, Note_on_c, 0, 70, 59
2, 13104, Note_off_c, 0, 70, 0
2, 13152, Note_on_c, 0, 63, 59
2, 13200, Note_off_c, 0, 63, 0
2, 13248, Note_on_c, 0, 68, 59
2, 13254, Note_off_c, 0, 68, 0
2, 13260, Note_on_c, 0, 70, 59
2, 13266, Note_off_c, 0, 70, 0
2, 13272, Note_on_c, 0, 68, 59
2, 13308, Note_off_c, 0, 68, 0
2, 13344, Note_on_c, 0, 67, 59
2, 13392, Note_off_c, 0, 67, 0
2, 13728, Note_on_c, 0, 75, 110
2, 13752, Note_off_c, 0, 75, 0
2, 13752, Note_on_c, 0, 74, 110
2, 13776, Note_off_c, 0, 74, 0
2, 13776, Note_on_c, 0, 72, 110
2, 13800, Note_off_c, 0, 72, 0
2, 13800, Note_on_c, 0, 70, 110
2, 13824, Note_off_c, 0, 70, 0
2, 13824, Note_on_c, 0, 77, 110
2, 13872, Note_off_c, 0, 77, 0
2, 13920, Note_on_c, 0, 70, 110
2, 13968, Note_off_c, 0, 70, 0
2, 14016, Note_on_c, 0, 69, 110
2, 14064, Note_off_c, 0, 69, 0
2, 14112, Note_on_c, 0, 70, 110
2, 14160, Note_off_c, 0, 70, 0
2, 14208, Note_on_c, 0, 63, 110
2, 14214, Note_off_c, 0, 63, 0
2, 14220, Note_on_c, 0, 65, 110
2, 14226, Note_off_c, 0, 65, 0
2, 14232, Note_on_c, 0, 63, 110
2, 14268, Note_off_c, 0, 63, 0
2, 14304, Note_on_c, 0, 62, 110
2, 14352, Note_off_c, 0, 62, 0
2, 14496, Note_on_c, 0, 75, 59
2, 14520, Note_off_c, 0, 75, 0
2, 14520, Note_on_c, 0, 74, 59
2, 14544, Note_off_c, 0, 74, 0
2, 14544, Note_on_c, 0, 72, 59
2, 14568, Note_off_c, 0, 72, 0
2, 14568, Note_on_c, 0, 70, 59
2, 14592, Note_off_c, 0, 70, 0
2, 14592, Note_on_c, 0, 77, 59
2, 14640, Note_off_c, 0, 77, 0
2, 14688, Note_on_c, 0, 79, 59
2, 14736, Note_off_c, 0, 79, 0
2, 14784, Note_on_c, 0, 75, 59
2, 14790, Note_off_c, 0, 75, 0
2, 14796, Note_on_c, 0, 77, 59
2, 14802, Note_off_c, 0, 77, 0
2, 14808, Note_on_c, 0, 75, 59
2, 14844, Note_off_c, 0, 75, 0
2, 14880, Note_on_c, 0, 74, 59
2, 14928, Note_off_c, 0, 74, 0
2, 14976, Note_on_c, 0, 63, 59
2, 14982, Note_off_c, 0, 63, 0
2, 14988, Note_on_c, 0, 65, 59
2, 14994, Note_off_c, 0, 65, 0
2, 15000, Note_on_c, 0, 63, 59
2, 15036, Note_off_c, 0, 63, 0
2, 15072, Note_on_c, 0, 62, 59
2, 15120, Note_off_c, 0, 62, 0
2, 15264, Note_on_c, 0, 65, 110
2, 15360, Note_off_c, 0, 65, 0
2, 15360, Note_on_c, 0, 67, 110
2, 15456, Note_off_c, 0, 67, 0
2, 15456, Note_on_c, 0, 65, 110
2, 15552, Note_off_c, 0, 65, 0
2, 15552, Note_on_c, 0, 67, 110
2, 15648, Note_off_c, 0, 67, 0
2, 15648, Note_on_c, 0, 77, 110
2, 15672, Note_off_c, 0, 77, 0
2, 15672, Note_on_c, 0, 75, 110
2, 15696, Note_off_c, 0, 75, 0
2, 15696, Note_on_c, 0, 74, 110
2, 15720, Note_off_c, 0, 74, 0
2, 15720, Note_on_c, 0, 72, 110
2, 15792, Note_off_c, 0, 72, 0
2, 15792, Note_on_c, 0, 69, 110
2, 15888, Note_off_c, 0, 69, 0
2, 15888, Note_on_c, 0, 70, 110
2, 15960, Note_off_c, 0, 70, 0
2, 15960, Note_on_c, 0, 74, 110
2, 15984, Note_off_c, 0, 74, 0
2, 15984, Note_on_c, 0, 75, 110
2, 16008, Note_off_c, 0, 75, 0
2, 16008, Note_on_c, 0, 77, 110
2, 16032, Note_off_c, 0, 77, 0
2, 16032, Note_on_c, 0, 75, 110
2, 16056, Note_off_c, 0, 75, 0
2, 16056, Note_on_c, 0, 74, 110
2, 16080, Note_off_c, 0, 74, 0
2, 16080, Note_on_c, 0, 72, 110
2, 16104, Note_off_c, 0, 72, 0
2, 16104, Note_on_c, 0, 70, 110
2, 16176, Note_off_c, 0, 70, 0
2, 16176, Note_on_c, 0, 67, 110
2, 16272, Note_off_c, 0, 67, 0
2, 16272, Note_on_c, 0, 69, 110
2, 16344, Note_off_c, 0, 69, 0
2, 16344, Note_on_c, 0, 70, 110
2, 16368, Note_off_c, 0, 70, 0
2, 16368, Note_on_c, 0, 72, 110
2, 16392, Note_off_c, 0, 72, 0
2, 16392, Note_on_c, 0, 74, 110
2, 16416, Note_off_c, 0, 74, 0
2, 16416, Note_on_c, 0, 72, 110
2, 16440, Note_off_c, 0, 72, 0
2, 16440, Note_on_c, 0, 70, 110
2, 16464, Note_off_c, 0, 70, 0
2, 16464, Note_on_c, 0, 69, 110
2, 16488, Note_off_c, 0, 69, 0
2, 16488, Note_on_c, 0, 67, 110
2, 16560, Note_off_c, 0, 67, 0
2, 16560, Note_on_c, 0, 64, 110
2, 16656, Note_off_c, 0, 64, 0
2, 16656, Note_on_c, 0, 65, 110
2, 16752, Note_off_c, 0, 65, 0
2, 16752, Note_on_c, 0, 75, 110
2, 16848, Note_off_c, 0, 75, 0
2, 16848, Note_on_c, 0, 73, 110
2, 16920, Note_off_c, 0, 73, 0
2, 16920, Note_on_c, 0, 70, 110
2, 16944, Note_off_c, 0, 70, 0
2, 16944, Note_on_c, 0, 69, 110
2, 16968, Note_off_c, 0, 69, 0
2, 16968, Note_on_c, 0, 70, 110
2, 16980, Note_off_c, 0, 70, 0
2, 16980, Note_on_c, 0, 70, 110
2, 16992, Note_off_c, 0, 70, 0
2, 16992, Note_on_c, 0, 77, 110
2, 17136, Note_off_c, 0, 77, 0
2, 17136, Note_on_c, 0, 76, 110
2, 17160, Note_off_c, 0, 76, 0
2, 17160, Note_on_c, 0, 77, 110
2, 17184, Note_off_c, 0, 77, 0
2, 17184, Note_on_c, 0, 78, 110
2, 17208, Note_off_c, 0, 78, 0
2, 17208, Note_on_c, 0, 77, 110
2, 17232, Note_off_c, 0, 77, 0
2, 17232, Note_on_c, 0, 76, 110
2, 17256, Note_off_c, 0, 76, 0
2, 17256, Note_on_c, 0, 77, 110
2, 17280, Note_off_c, 0, 77, 0
2, 17280, Note_on_c, 0, 60, 110
2, 17376, Note_off_c, 0, 60, 0
2, 17400, Note_on_c, 0, 70, 110
2, 17424, Note_off_c, 0, 70, 0
2, 17424, Note_on_c, 0, 72, 110
2, 17448, Note_off_c, 0, 72, 0
2, 17448, Note_on_c, 0, 69, 110
2, 17472, Note_off_c, 0, 69, 0
2, 17472, Note_on_c, 0, 65, 110
2, 17520, Note_off_c, 0, 65, 0
2, 17520, Note_on_c, 0, 75, 110
2, 17616, Note_off_c, 0, 75, 0
2, 17616, Note_on_c, 0, 73, 110
2, 17688, Note_off_c, 0, 73, 0
2, 17688, Note_on_c, 0, 70, 110
2, 17712, Note_off_c, 0, 70, 0
2, 17712, Note_on_c, 0, 69, 110
2, 17736, Note_off_c, 0, 69, 0
2, 17736, Note_on_c, 0, 70, 110
2, 17748, Note_off_c, 0, 70, 0
2, 17748, Note_on_c, 0, 70, 110
2, 17760, Note_off_c, 0, 70, 0
2, 17760, Note_on_c, 0, 77, 110
2, 17904, Note_off_c, 0, 77, 0
2, 17904, Note_on_c, 0, 76, 110
2, 17928, Note_off_c, 0, 76, 0
2, 17928, Note_on_c, 0, 77, 110
2, 17952, Note_off_c, 0, 77, 0
2, 17952, Note_on_c, 0, 61, 110
2, 18048, Note_off_c, 0, 61, 0
2, 18048, Note_on_c, 0, 70, 110
2, 18096, Note_off_c, 0, 70, 0
2, 18096, Note_on_c, 0, 69, 110
2, 18168, Note_off_c, 0, 69, 0
2, 18168, Note_on_c, 0, 70, 110
2, 18192, Note_off_c, 0, 70, 0
2, 18192, Note_on_c, 0, 72, 110
2, 18216, Note_off_c, 0, 72, 0
2, 18216, Note_on_c, 0, 69, 110
2, 18240, Note_off_c, 0, 69, 0
2, 18240, Note_on_c, 0, 65, 110
2, 18288, Note_off_c, 0, 65, 0
2, 18288, Note_on_c, 0, 75, 110
2, 18384, Note_off_c, 0, 75, 0
2, 18384, Note_on_c, 0, 73, 110
2, 18480, Note_off_c, 0, 73, 0
2, 18480, Note_on_c, 0, 72, 110
2, 18504, Note_off_c, 0, 72, 0
2, 18504, Note_on_c, 0, 70, 110
2, 18528, Note_off_c, 0, 70, 0
2, 18528, Note_on_c, 0, 72, 110
2, 18576, Note_off_c, 0, 72, 0
2, 18576, Note_on_c, 0, 67, 110
2, 18624, Note_off_c, 0, 67, 0
2, 18624, Note_on_c, 0, 70, 110
2, 18720, Note_off_c, 0, 70, 0
2, 18720, Note_on_c, 0, 60, 110
2, 18816, Note_off_c, 0, 60, 0
2, 18816, Note_on_c, 0, 70, 110
2, 19200, Note_off_c, 0, 70, 0
2, 19200, Note_on_c, 0, 62, 110
2, 19392, Note_off_c, 0, 62, 0
2, 19536, Note_on_c, 0, 62, 110
2, 19584, Note_off_c, 0, 62, 0
2, 19584, Note_on_c, 0, 63, 110
2, 20160, Note_off_c, 0, 63, 0
2, 20160, Note_on_c, 0, 81, 110
2, 20352, Note_off_c, 0, 81, 0
2, 20352, Note_on_c, 0, 82, 110
2, 20400, Note_off_c, 0, 82, 0
2, 20400, Note_on_c, 0, 81, 110
2, 20424, Note_off_c, 0, 81, 0
2, 20424, Note_on_c, 0, 79, 110
2, 20448, Note_off_c, 0, 79, 0
2, 20448, Note_on_c, 0, 77, 110
2, 20472, Note_off_c, 0, 77, 0
2, 20472, Note_on_c, 0, 75, 110
2, 20496, Note_off_c, 0, 75, 0
2, 20496, Note_on_c, 0, 74, 110
2, 20520, Note_off_c, 0, 74, 0
2, 20520, Note_on_c, 0, 72, 110
2, 20544, Note_off_c, 0, 72, 0
2, 20544, Note_on_c, 0, 70, 110
2, 20592, Note_off_c, 0, 70, 0
2, 20592, Note_on_c, 0, 69, 110
2, 20616, Note_off_c, 0, 69, 0
2, 20616, Note_on_c, 0, 67, 110
2, 20640, Note_off_c, 0, 67, 0
2, 20640, Note_on_c, 0, 65, 110
2, 20664, Note_off_c, 0, 65, 0
2, 20664, Note_on_c, 0, 63, 110
2, 20688, Note_off_c, 0, 63, 0
2, 20688, Note_on_c, 0, 62, 110
2, 20712, Note_off_c, 0, 62, 0
2, 20712, Note_on_c, 0, 60, 110
2, 20736, Note_off_c, 0, 60, 0
2, 20736, Note_on_c, 0, 58, 110
2, 20832, Note_off_c, 0, 58, 0
2, 21024, Note_on_c, 0, 70, 110
2, 21120, Note_off_c, 0, 70, 0
2, 21120, Note_on_c, 0, 77, 110
2, 21216, Note_off_c, 0, 77, 0
2, 21216, Note_on_c, 0, 75, 110
2, 21312, Note_off_c, 0, 75, 0
2, 21336, Note_on_c, 0, 75, 110
2, 21360, Note_off_c, 0, 75, 0
2, 21360, Note_on_c, 0, 74, 110
2, 21384, Note_off_c, 0, 74, 0
2, 21384, Note_on_c, 0, 72, 110
2, 21408, Note_off_c, 0, 72, 0
2, 21408, Note_on_c, 0, 70, 110
2, 21432, Note_off_c, 0, 70, 0
2, 21432, Note_on_c, 0, 68, 110
2, 21456, Note_off_c, 0, 68, 0
2, 21456, Note_on_c, 0, 67, 110
2, 21480, Note_off_c, 0, 67, 0
2, 21480, Note_on_c, 0, 65, 110
2, 21504, Note_off_c, 0, 65, 0
2, 21504, Note_on_c, 0, 63, 110
2, 21600, Note_off_c, 0, 63, 0
2, 21792, Note_on_c, 0, 75, 110
2, 21888, Note_off_c, 0, 75, 0
2, 21888, Note_on_c, 0, 82, 110
2, 21984, Note_off_c, 0, 82, 0
2, 21984, Note_on_c, 0, 80, 110
2, 22080, Note_off_c, 0, 80, 0
2, 22176, Note_on_c, 0, 63, 110
2, 22272, Note_off_c, 0, 63, 0
2, 22272, Note_on_c, 0, 65, 110
2, 22464, Note_off_c, 0, 65, 0
2, 22464, Note_on_c, 0, 74, 110
2, 22800, Note_off_c, 0, 74, 0
2, 22824, Note_on_c, 0, 74, 110
2, 22848, Note_off_c, 0, 74, 0
2, 22848, Note_on_c, 0, 72, 110
2, 23304, Note_off_c, 0, 72, 0
2, 23304, Note_on_c, 0, 71, 110
2, 23328, Note_off_c, 0, 71, 0
2, 23328, Note_on_c, 0, 69, 110
2, 23400, Note_off_c, 0, 69, 0
2, 23400, Note_on_c, 0, 67, 110
2, 23424, Note_off_c, 0, 67, 0
2, 23424, Note_on_c, 0, 72, 110
2, 23688, Note_off_c, 0, 72, 0
2, 23688, Note_on_c, 0, 75, 110
2, 23712, Note_off_c, 0, 75, 0
2, 23712, Note_on_c, 0, 74, 110
2, 23784, Note_off_c, 0, 74, 0
2, 23784, Note_on_c, 0, 72, 110
2, 23808, Note_off_c, 0, 72, 0
2, 23808, Note_on_c, 0, 74, 110
2, 24072, Note_off_c, 0, 74, 0
2, 24072, Note_on_c, 0, 72, 110
2, 24096, Note_off_c, 0, 72, 0
2, 24096, Note_on_c, 0, 71, 110
2, 24168, Note_off_c, 0, 71, 0
2, 24168, Note_on_c, 0, 69, 110
2, 24192, Note_off_c, 0, 69, 0
2, 24192, Note_on_c, 0, 71, 110
2, 24456, Note_off_c, 0, 71, 0
2, 24456, Note_on_c, 0, 71, 110
2, 24480, Note_off_c, 0, 71, 0
2, 24480, Note_on_c, 0, 72, 110
2, 24552, Note_off_c, 0, 72, 0
2, 24552, Note_on_c, 0, 74, 110
2, 24576, Note_off_c, 0, 74, 0
2, 24576, Note_on_c, 0, 65, 110
2, 24648, Note_off_c, 0, 65, 0
2, 24648, Note_on_c, 0, 65, 110
2, 24672, Note_off_c, 0, 65, 0
2, 24672, Note_on_c, 0, 63, 110
2, 24744, Note_off_c, 0, 63, 0
2, 24744, Note_on_c, 0, 62, 110
2, 24768, Note_off_c, 0, 62, 0
2, 24768, Note_on_c, 0, 63, 110
2, 25152, Note_off_c, 0, 63, 0
2, 25152, Note_on_c, 0, 62, 110
2, 25416, Note_off_c, 0, 62, 0
2, 25416, Note_on_c, 0, 62, 110
2, 25440, Note_off_c, 0, 62, 0
2, 25440, Note_on_c, 0, 63, 110
2, 25512, Note_off_c, 0, 63, 0
2, 25512, Note_on_c, 0, 65, 110
2, 25536, Note_off_c, 0, 65, 0
2, 25536, Note_on_c, 0, 67, 110
2, 25920, Note_off_c, 0, 67, 0
2, 25920, Note_on_c, 0, 65, 110
2, 26304, Note_off_c, 0, 65, 0
2, 26304, Note_on_c, 0, 60, 110
2, 26496, Note_off_c, 0, 60, 0
2, 26496, Note_on_c, 0, 62, 110
2, 26568, Note_off_c, 0, 62, 0
2, 26568, Note_on_c, 0, 63, 110
2, 26592, Note_off_c, 0, 63, 0
2, 26592, Note_on_c, 0, 65, 110
2, 26664, Note_off_c, 0, 65, 0
2, 26664, Note_on_c, 0, 68, 110
2, 26688, Note_off_c, 0, 68, 0
2, 26688, Note_on_c, 0, 71, 110
2, 26880, Note_off_c, 0, 71, 0
2, 26880, Note_on_c, 0, 63, 110
2, 26928, Note_off_c, 0, 63, 0
2, 26928, Note_on_c, 0, 72, 93
2, 27024, Note_off_c, 0, 72, 0
2, 27024, Note_on_c, 0, 72, 93
2, 27096, Note_off_c, 0, 72, 0
2, 27096, Note_on_c, 0, 70, 93
2, 27120, Note_off_c, 0, 70, 0
2, 27120, Note_on_c, 0, 68, 93
2, 27144, Note_off_c, 0, 68, 0
2, 27144, Note_on_c, 0, 67, 93
2, 27168, Note_off_c, 0, 67, 0
2, 27168, Note_on_c, 0, 65, 93
2, 27192, Note_off_c, 0, 65, 0
2, 27192, Note_on_c, 0, 63, 93
2, 27216, Note_off_c, 0, 63, 0
2, 27216, Note_on_c, 0, 62, 93
2, 27240, Note_off_c, 0, 62, 0
2, 27240, Note_on_c, 0, 60, 93
2, 27264, Note_off_c, 0, 60, 0
2, 27264, Note_on_c, 0, 59, 93
2, 27288, Note_off_c, 0, 59, 0
2, 27288, Note_on_c, 0, 62, 93
2, 27312, Note_off_c, 0, 62, 0
2, 27312, Note_on_c, 0, 59, 93
2, 27336, Note_off_c, 0, 59, 0
2, 27336, Note_on_c, 0, 62, 93
2, 27360, Note_off_c, 0, 62, 0
2, 27360, Note_on_c, 0, 60, 93
2, 27384, Note_off_c, 0, 60, 0
2, 27384, Note_on_c, 0, 63, 93
2, 27408, Note_off_c, 0, 63, 0
2, 27408, Note_on_c, 0, 60, 93
2, 27432, Note_off_c, 0, 60, 0
2, 27432, Note_on_c, 0, 63, 93
2, 27456, Note_off_c, 0, 63, 0
2, 27456, Note_on_c, 0, 60, 93
2, 27480, Note_off_c, 0, 60, 0
2, 27480, Note_on_c, 0, 65, 93
2, 27504, Note_off_c, 0, 65, 0
2, 27504, Note_on_c, 0, 60, 93
2, 27528, Note_off_c, 0, 60, 0
2, 27528, Note_on_c, 0, 65, 93
2, 27552, Note_off_c, 0, 65, 0
2, 27552, Note_on_c, 0, 59, 93
2, 27576, Note_off_c, 0, 59, 0
2, 27576, Note_on_c, 0, 65, 93
2, 27600, Note_off_c, 0, 65, 0
2, 27600, Note_on_c, 0, 59, 93
2, 27624, Note_off_c, 0, 59, 0
2, 27624, Note_on_c, 0, 65, 93
2, 27648, Note_off_c, 0, 65, 0
2, 27648, Note_on_c, 0, 63, 93
2, 27744, Note_off_c, 0, 63, 0
2, 27744, Note_on_c, 0, 62, 93
2, 27840, Note_off_c, 0, 62, 0
2, 27840, Note_on_c, 0, 60, 93
2, 27936, Note_off_c, 0, 60, 0
2, 27936, Note_on_c, 0, 62, 93
2, 28032, Note_off_c, 0, 62, 0
2, 28032, Note_on_c, 0, 63, 93
2, 28128, Note_off_c, 0, 63, 0
2, 28128, Note_on_c, 0, 62, 93
2, 28224, Note_off_c, 0, 62, 0
2, 28224, Note_on_c, 0, 60, 93
2, 28320, Note_off_c, 0, 60, 0
2, 28320, Note_on_c, 0, 62, 93
2, 28632, Note_off_c, 0, 62, 0
2, 28632, Note_on_c, 0, 62, 93
2, 28656, Note_off_c, 0, 62, 0
2, 28656, Note_on_c, 0, 60, 93
2, 28680, Note_off_c, 0, 60, 0
2, 28680, Note_on_c, 0, 59, 93
2, 28704, Note_off_c, 0, 59, 0
2, 28704, Note_on_c, 0, 60, 93
2, 28728, Note_off_c, 0, 60, 0
2, 28728, Note_on_c, 0, 58, 93
2, 28752, Note_off_c, 0, 58, 0
2, 28752, Note_on_c, 0, 57, 93
2, 28776, Note_off_c, 0, 57, 0
2, 28776, Note_on_c, 0, 55, 93
2, 28800, Note_off_c, 0, 55, 0
2, 28824, Note_on_c, 0, 70, 93
2, 28848, Note_off_c, 0, 70, 0
2, 28848, Note_on_c, 0, 69, 93
2, 28872, Note_off_c, 0, 69, 0
2, 28872, Note_on_c, 0, 67, 93
2, 28896, Note_off_c, 0, 67, 0
2, 28896, Note_on_c, 0, 69, 93
2, 28920, Note_off_c, 0, 69, 0
2, 28920, Note_on_c, 0, 72, 93
2, 28944, Note_off_c, 0, 72, 0
2, 28944, Note_on_c, 0, 69, 93
2, 28968, Note_off_c, 0, 69, 0
2, 28968, Note_on_c, 0, 72, 93
2, 28992, Note_off_c, 0, 72, 0
2, 28992, Note_on_c, 0, 77, 93
2, 29208, Note_off_c, 0, 77, 0
2, 29208, Note_on_c, 0, 80, 93
2, 29232, Note_off_c, 0, 80, 0
2, 29232, Note_on_c, 0, 60, 93
2, 29280, Note_off_c, 0, 60, 0
2, 29280, Note_on_c, 0, 62, 93
2, 29328, Note_off_c, 0, 62, 0
2, 29328, Note_on_c, 0, 59, 93
2, 29376, Note_off_c, 0, 59, 0
2, 29376, Note_on_c, 0, 60, 93
2, 29400, Note_off_c, 0, 60, 0
2, 29400, Note_on_c, 0, 68, 93
2, 29424, Note_off_c, 0, 68, 0
2, 29424, Note_on_c, 0, 67, 93
2, 29448, Note_off_c, 0, 67, 0
2, 29448, Note_on_c, 0, 65, 93
2, 29472, Note_off_c, 0, 65, 0
2, 29472, Note_on_c, 0, 67, 93
2, 29496, Note_off_c, 0, 67, 0
2, 29496, Note_on_c, 0, 65, 93
2, 29520, Note_off_c, 0, 65, 0
2, 29520, Note_on_c, 0, 63, 93
2, 29544, Note_off_c, 0, 63, 0
2, 29544, Note_on_c, 0, 71, 93
2, 29568, Note_off_c, 0, 71, 0
2, 29568, Note_on_c, 0, 72, 93
2, 29664, Note_off_c, 0, 72, 0
2, 29664, Note_on_c, 0, 65, 93
2, 29760, Note_off_c, 0, 65, 0
2, 29760, Note_on_c, 0, 67, 93
2, 29856, Note_off_c, 0, 67, 0
2, 29856, Note_on_c, 0, 68, 93
2, 29952, Note_off_c, 0, 68, 0
2, 29952, Note_on_c, 0, 67, 93
2, 30144, Note_off_c, 0, 67, 0
2, 30144, Note_on_c, 0, 68, 93
2, 30240, Note_off_c, 0, 68, 0
2, 30240, Note_on_c, 0, 67, 93
2, 30432, Note_off_c, 0, 67, 0
2, 30432, Note_on_c, 0, 72, 93
2, 30480, Note_off_c, 0, 72, 0
2, 30480, Note_on_c, 0, 67, 93
2, 30528, Note_off_c, 0, 67, 0
2, 30528, Note_on_c, 0, 68, 93
2, 30768, Note_off_c, 0, 68, 0
2, 30768, Note_on_c, 0, 68, 93
2, 30816, Note_off_c, 0, 68, 0
2, 30816, Note_on_c, 0, 65, 93
2, 30864, Note_off_c, 0, 65, 0
2, 30864, Note_on_c, 0, 70, 93
2, 30912, Note_off_c, 0, 70, 0
2, 30912, Note_on_c, 0, 67, 93
2, 31104, Note_off_c, 0, 67, 0
2, 31104, Note_on_c, 0, 72, 93
2, 31320, Note_off_c, 0, 72, 0
2, 31320, Note_on_c, 0, 72, 93
2, 31344, Note_off_c, 0, 72, 0
2, 31344, Note_on_c, 0, 70, 93
2, 31368, Note_off_c, 0, 70, 0
2, 31368, Note_on_c, 0, 68, 93
2, 31392, Note_off_c, 0, 68, 0
2, 31392, Note_on_c, 0, 70, 93
2, 31416, Note_off_c, 0, 70, 0
2, 31416, Note_on_c, 0, 68, 93
2, 31440, Note_off_c, 0, 68, 0
2, 31440, Note_on_c, 0, 67, 93
2, 31464, Note_off_c, 0, 67, 0
2, 31464, Note_on_c, 0, 65, 93
2, 31488, Note_off_c, 0, 65, 0
2, 31488, Note_on_c, 0, 63, 93
2, 31512, Note_off_c, 0, 63, 0
2, 31512, Note_on_c, 0, 67, 93
2, 31536, Note_off_c, 0, 67, 0
2, 31536, Note_on_c, 0, 65, 93
2, 31560, Note_off_c, 0, 65, 0
2, 31560, Note_on_c, 0, 63, 93
2, 31584, Note_off_c, 0, 63, 0
2, 31584, Note_on_c, 0, 72, 93
2, 31704, Note_off_c, 0, 72, 0
2, 31704, Note_on_c, 0, 75, 93
2, 31728, Note_off_c, 0, 75, 0
2, 31728, Note_on_c, 0, 74, 93
2, 31752, Note_off_c, 0, 74, 0
2, 31752, Note_on_c, 0, 72, 93
2, 31776, Note_off_c, 0, 72, 0
2, 31776, Note_on_c, 0, 77, 93
2, 31824, Note_off_c, 0, 77, 0
2, 31824, Note_on_c, 0, 68, 93
2, 31872, Note_off_c, 0, 68, 0
2, 31872, Note_on_c, 0, 67, 93
2, 31968, Note_off_c, 0, 67, 0
2, 31968, Note_on_c, 0, 68, 93
2, 32064, Note_off_c, 0, 68, 0
2, 32064, Note_on_c, 0, 70, 93
2, 32160, Note_off_c, 0, 70, 0
2, 32160, Note_on_c, 0, 72, 93
2, 32256, Note_off_c, 0, 72, 0
2, 32256, Note_on_c, 0, 62, 93
2, 32280, Note_off_c, 0, 62, 0
2, 32280, Note_on_c, 0, 65, 93
2, 32304, Note_off_c, 0, 65, 0
2, 32304, Note_on_c, 0, 62, 93
2, 32328, Note_off_c, 0, 62, 0
2, 32328, Note_on_c, 0, 65, 93
2, 32352, Note_off_c, 0, 65, 0
2, 32352, Note_on_c, 0, 63, 93
2, 32376, Note_off_c, 0, 63, 0
2, 32376, Note_on_c, 0, 67, 93
2, 32400, Note_off_c, 0, 67, 0
2, 32400, Note_on_c, 0, 63, 93
2, 32424, Note_off_c, 0, 63, 0
2, 32424, Note_on_c, 0, 67, 93
2, 32448, Note_off_c, 0, 67, 0
2, 32448, Note_on_c, 0, 63, 93
2, 32472, Note_off_c, 0, 63, 0
2, 32472, Note_on_c, 0, 68, 93
2, 32496, Note_off_c, 0, 68, 0
2, 32496, Note_on_c, 0, 63, 93
2, 32520, Note_off_c, 0, 63, 0
2, 32520, Note_on_c, 0, 68, 93
2, 32544, Note_off_c, 0, 68, 0
2, 32544, Note_on_c, 0, 70, 93
2, 32736, Note_off_c, 0, 70, 0
2, 32736, Note_on_c, 0, 67, 93
2, 32760, Note_off_c, 0, 67, 0
2, 32760, Note_on_c, 0, 70, 93
2, 32784, Note_off_c, 0, 70, 0
2, 32784, Note_on_c, 0, 67, 93
2, 32808, Note_off_c, 0, 67, 0
2, 32808, Note_on_c, 0, 70, 93
2, 32832, Note_off_c, 0, 70, 0
2, 32832, Note_on_c, 0, 63, 93
2, 32856, Note_off_c, 0, 63, 0
2, 32856, Note_on_c, 0, 74, 93
2, 32880, Note_off_c, 0, 74, 0
2, 32880, Note_on_c, 0, 72, 93
2, 32904, Note_off_c, 0, 72, 0
2, 32904, Note_on_c, 0, 70, 93
2, 32928, Note_off_c, 0, 70, 0
2, 32928, Note_on_c, 0, 72, 93
2, 32952, Note_off_c, 0, 72, 0
2, 32952, Note_on_c, 0, 75, 93
2, 32976, Note_off_c, 0, 75, 0
2, 32976, Note_on_c, 0, 72, 93
2, 33000, Note_off_c, 0, 72, 0
2, 33000, Note_on_c, 0, 75, 93
2, 33024, Note_off_c, 0, 75, 0
2, 33024, Note_on_c, 0, 69, 93
2, 33048, Note_off_c, 0, 69, 0
2, 33048, Note_on_c, 0, 70, 93
2, 33072, Note_off_c, 0, 70, 0
2, 33072, Note_on_c, 0, 69, 93
2, 33096, Note_off_c, 0, 69, 0
2, 33096, Note_on_c, 0, 67, 93
2, 33120, Note_off_c, 0, 67, 0
2, 33120, Note_on_c, 0, 69, 93
2, 33144, Note_off_c, 0, 69, 0
2, 33144, Note_on_c, 0, 72, 93
2, 33168, Note_off_c, 0, 72, 0
2, 33168, Note_on_c, 0, 69, 93
2, 33192, Note_off_c, 0, 69, 0
2, 33192, Note_on_c, 0, 72, 93
2, 33216, Note_off_c, 0, 72, 0
2, 33216, Note_on_c, 0, 65, 93
2, 33240, Note_off_c, 0, 65, 0
2, 33240, Note_on_c, 0, 75, 93
2, 33264, Note_off_c, 0, 75, 0
2, 33264, Note_on_c, 0, 74, 93
2, 33288, Note_off_c, 0, 74, 0
2, 33288, Note_on_c, 0, 72, 93
2, 33312, Note_off_c, 0, 72, 0
2, 33312, Note_on_c, 0, 74, 93
2, 33336, Note_off_c, 0, 74, 0
2, 33336, Note_on_c, 0, 77, 93
2, 33360, Note_off_c, 0, 77, 0
2, 33360, Note_on_c, 0, 74, 93
2, 33384, Note_off_c, 0, 74, 0
2, 33384, Note_on_c, 0, 77, 93
2, 33408, Note_off_c, 0, 77, 0
2, 33408, Note_on_c, 0, 70, 93
2, 33504, Note_off_c, 0, 70, 0
2, 33504, Note_on_c, 0, 72, 93
2, 33600, Note_off_c, 0, 72, 0
2, 33600, Note_on_c, 0, 74, 93
2, 33696, Note_off_c, 0, 74, 0
2, 33696, Note_on_c, 0, 75, 93
2, 33720, Note_off_c, 0, 75, 0
2, 33720, Note_on_c, 0, 74, 93
2, 33744, Note_off_c, 0, 74, 0
2, 33744, Note_on_c, 0, 72, 93
2, 33768, Note_off_c, 0, 72, 0
2, 33768, Note_on_c, 0, 70, 93
2, 33792, Note_off_c, 0, 70, 0
2, 33792, Note_on_c, 0, 69, 93
2, 33816, Note_off_c, 0, 69, 0
2, 33816, Note_on_c, 0, 72, 93
2, 33840, Note_off_c, 0, 72, 0
2, 33840, Note_on_c, 0, 69, 93
2, 33864, Note_off_c, 0, 69, 0
2, 33864, Note_on_c, 0, 72, 93
2, 33888, Note_off_c, 0, 72, 0
2, 33888, Note_on_c, 0, 70, 93
2, 33912, Note_off_c, 0, 70, 0
2, 33912, Note_on_c, 0, 74, 93
2, 33936, Note_off_c, 0, 74, 0
2, 33936, Note_on_c, 0, 65, 93
2, 33984, Note_off_c, 0, 65, 0
2, 33984, Note_on_c, 0, 67, 93
2, 34080, Note_off_c, 0, 67, 0
2, 34080, Note_on_c, 0, 65, 93
2, 34128, Note_off_c, 0, 65, 0
2, 34128, Note_on_c, 0, 63, 93
2, 34176, Note_off_c, 0, 63, 0
2, 34176, Note_on_c, 0, 65, 93
2, 34464, Note_off_c, 0, 65, 0
2, 34464, Note_on_c, 0, 63, 93
2, 34752, Note_off_c, 0, 63, 0
2, 34752, Note_on_c, 0, 62, 93
2, 35040, Note_off_c, 0, 62, 0
2, 35040, Note_on_c, 0, 69, 93
2, 35136, Note_off_c, 0, 69, 0
2, 35136, Note_on_c, 0, 70, 93
2, 35232, Note_off_c, 0, 70, 0
2, 35232, Note_on_c, 0, 75, 93
2, 35328, Note_off_c, 0, 75, 0
2, 35328, Note_on_c, 0, 74, 93
2, 35520, Note_off_c, 0, 74, 0
2, 35520, Note_on_c, 0, 69, 93
2, 35676, Note_off_c, 0, 69, 0
2, 35712, Note_on_c, 0, 70, 93
2, 35736, Note_off_c, 0, 70, 0
2, 35736, Note_on_c, 0, 69, 93
2, 35760, Note_off_c, 0, 69, 0
2, 35760, Note_on_c, 0, 67, 93
2, 35784, Note_off_c, 0, 67, 0
2, 35784, Note_on_c, 0, 66, 93
2, 35808, Note_off_c, 0, 66, 0
2, 35808, Note_on_c, 0, 67, 93
2, 35832, Note_off_c, 0, 67, 0
2, 35832, Note_on_c, 0, 70, 93
2, 35856, Note_off_c, 0, 70, 0
2, 35856, Note_on_c, 0, 67, 93
2, 35880, Note_off_c, 0, 67, 0
2, 35880, Note_on_c, 0, 70, 93
2, 35904, Note_off_c, 0, 70, 0
2, 35904, Note_on_c, 0, 63, 93
2, 35952, Note_off_c, 0, 63, 0
2, 35952, Note_on_c, 0, 75, 93
2, 35976, Note_off_c, 0, 75, 0
2, 35976, Note_on_c, 0, 74, 93
2, 36000, Note_off_c, 0, 74, 0
2, 36000, Note_on_c, 0, 75, 93
2, 36024, Note_off_c, 0, 75, 0
2, 36024, Note_on_c, 0, 79, 93
2, 36048, Note_off_c, 0, 79, 0
2, 36048, Note_on_c, 0, 75, 93
2, 36072, Note_off_c, 0, 75, 0
2, 36072, Note_on_c, 0, 79, 93
2, 36096, Note_off_c, 0, 79, 0
2, 36096, Note_on_c, 0, 80, 93
2, 36480, Note_off_c, 0, 80, 0
2, 36480, Note_on_c, 0, 79, 93
2, 36864, Note_off_c, 0, 79, 0
2, 36864, Note_on_c, 0, 77, 93
2, 37248, Note_off_c, 0, 77, 0
2, 37248, Note_on_c, 0, 76, 93
2, 37440, Note_off_c, 0, 76, 0
2, 37440, Note_on_c, 0, 60, 93
2, 37584, Note_off_c, 0, 60, 0
2, 37584, Note_on_c, 0, 79, 110
2, 37632, Note_off_c, 0, 79, 0
2, 37632, Note_on_c, 0, 72, 110
2, 38016, Note_off_c, 0, 72, 0
2, 38016, Note_on_c, 0, 73, 110
2, 38088, Note_off_c, 0, 73, 0
2, 38088, Note_on_c, 0, 75, 110
2, 38112, Note_off_c, 0, 75, 0
2, 38112, Note_on_c, 0, 73, 110
2, 38184, Note_off_c, 0, 73, 0
2, 38184, Note_on_c, 0, 72, 110
2, 38208, Note_off_c, 0, 72, 0
2, 38208, Note_on_c, 0, 75, 110
2, 38928, Note_off_c, 0, 75, 0
2, 38952, Note_on_c, 0, 72, 110
2, 38976, Note_off_c, 0, 72, 0
2, 38976, Note_on_c, 0, 70, 110
2, 39120, Note_off_c, 0, 70, 0
2, 39144, Note_on_c, 0, 72, 110
2, 39168, Note_off_c, 0, 72, 0
2, 39168, Note_on_c, 0, 63, 110
2, 39312, Note_off_c, 0, 63, 0
2, 39336, Note_on_c, 0, 65, 110
2, 39360, Note_off_c, 0, 65, 0
2, 39360, Note_on_c, 0, 67, 110
2, 39552, Note_off_c, 0, 67, 0
2, 39552, Note_on_c, 0, 75, 110
2, 39564, Note_off_c, 0, 75, 0
2, 39564, Note_on_c, 0, 73, 110
2, 39576, Note_off_c, 0, 73, 0
2, 39576, Note_on_c, 0, 75, 110
2, 39588, Note_off_c, 0, 75, 0
2, 39588, Note_on_c, 0, 73, 110
2, 39600, Note_off_c, 0, 73, 0
2, 39600, Note_on_c, 0, 75, 110
2, 39612, Note_off_c, 0, 75, 0
2, 39612, Note_on_c, 0, 73, 110
2, 39624, Note_off_c, 0, 73, 0
2, 39624, Note_on_c, 0, 75, 110
2, 39636, Note_off_c, 0, 75, 0
2, 39636, Note_on_c, 0, 73, 110
2, 39648, Note_off_c, 0, 73, 0
2, 39648, Note_on_c, 0, 75, 110
2, 39660, Note_off_c, 0, 75, 0
2, 39660, Note_on_c, 0, 73, 110
2, 39672, Note_off_c, 0, 73, 0
2, 39672, Note_on_c, 0, 75, 110
2, 39684, Note_off_c, 0, 75, 0
2, 39684, Note_on_c, 0, 73, 110
2, 39696, Note_off_c, 0, 73, 0
2, 39696, Note_on_c, 0, 75, 110
2, 39708, Note_off_c, 0, 75, 0
2, 39708, Note_on_c, 0, 73, 110
2, 39720, Note_off_c, 0, 73, 0
2, 39720, Note_on_c, 0, 75, 110
2, 39732, Note_off_c, 0, 75, 0
2, 39732, Note_on_c, 0, 73, 110
2, 39744, Note_off_c, 0, 73, 0
2, 39744, Note_on_c, 0, 75, 110
2, 39756, Note_off_c, 0, 75, 0
2, 39756, Note_on_c, 0, 73, 110
2, 39768, Note_off_c, 0, 73, 0
2, 39768, Note_on_c, 0, 75, 110
2, 39780, Note_off_c, 0, 75, 0
2, 39780, Note_on_c, 0, 73, 110
2, 39792, Note_off_c, 0, 73, 0
2, 39792, Note_on_c, 0, 75, 110
2, 39804, Note_off_c, 0, 75, 0
2, 39804, Note_on_c, 0, 73, 110
2, 39816, Note_off_c, 0, 73, 0
2, 39816, Note_on_c, 0, 75, 110
2, 39828, Note_off_c, 0, 75, 0
2, 39828, Note_on_c, 0, 73, 110
2, 39840, Note_off_c, 0, 73, 0
2, 39840, Note_on_c, 0, 75, 110
2, 39852, Note_off_c, 0, 75, 0
2, 39852, Note_on_c, 0, 73, 110
2, 39864, Note_off_c, 0, 73, 0
2, 39864, Note_on_c, 0, 75, 110
2, 39876, Note_off_c, 0, 75, 0
2, 39876, Note_on_c, 0, 73, 110
2, 39888, Note_off_c, 0, 73, 0
2, 39888, Note_on_c, 0, 75, 110
2, 39900, Note_off_c, 0, 75, 0
2, 39900, Note_on_c, 0, 73, 110
2, 39912, Note_off_c, 0, 73, 0
2, 39912, Note_on_c, 0, 75, 110
2, 39924, Note_off_c, 0, 75, 0
2, 39924, Note_on_c, 0, 73, 110
2, 39936, Note_off_c, 0, 73, 0
2, 39936, Note_on_c, 0, 75, 110
2, 39948, Note_off_c, 0, 75, 0
2, 39948, Note_on_c, 0, 73, 110
2, 39960, Note_off_c, 0, 73, 0
2, 39960, Note_on_c, 0, 75, 110
2, 39972, Note_off_c, 0, 75, 0
2, 39972, Note_on_c, 0, 73, 110
2, 39984, Note_off_c, 0, 73, 0
2, 39984, Note_on_c, 0, 75, 110
2, 39996, Note_off_c, 0, 75, 0
2, 39996, Note_on_c, 0, 73, 110
2, 40008, Note_off_c, 0, 73, 0
2, 40008, Note_on_c, 0, 70, 110
2, 40032, Note_off_c, 0, 70, 0
2, 40032, Note_on_c, 0, 68, 110
2, 40104, Note_off_c, 0, 68, 0
2, 40104, Note_on_c, 0, 67, 110
2, 40128, Note_off_c, 0, 67, 0
2, 40128, Note_on_c, 0, 68, 110
2, 40176, Note_off_c, 0, 68, 0
2, 40176, Note_on_c, 0, 75, 110
2, 40188, Note_off_c, 0, 75, 0
2, 40188, Note_on_c, 0, 73, 110
2, 40200, Note_off_c, 0, 73, 0
2, 40200, Note_on_c, 0, 75, 110
2, 40212, Note_off_c, 0, 75, 0
2, 40212, Note_on_c, 0, 73, 110
2, 40224, Note_off_c, 0, 73, 0
2, 40224, Note_on_c, 0, 75, 110
2, 40236, Note_off_c, 0, 75, 0
2, 40236, Note_on_c, 0, 73, 110
2, 40248, Note_off_c, 0, 73, 0
2, 40248, Note_on_c, 0, 75, 110
2, 40260, Note_off_c, 0, 75, 0
2, 40260, Note_on_c, 0, 73, 110
2, 40272, Note_off_c, 0, 73, 0
2, 40272, Note_on_c, 0, 75, 110
2, 40284, Note_off_c, 0, 75, 0
2, 40284, Note_on_c, 0, 73, 110
2, 40296, Note_off_c, 0, 73, 0
2, 40296, Note_on_c, 0, 75, 110
2, 40308, Note_off_c, 0, 75, 0
2, 40308, Note_on_c, 0, 73, 110
2, 40320, Note_off_c, 0, 73, 0
2, 40320, Note_on_c, 0, 75, 110
2, 40332, Note_off_c, 0, 75, 0
2, 40332, Note_on_c, 0, 73, 110
2, 40344, Note_off_c, 0, 73, 0
2, 40344, Note_on_c, 0, 75, 110
2, 40356, Note_off_c, 0, 75, 0
2, 40356, Note_on_c, 0, 73, 110
2, 40368, Note_off_c, 0, 73, 0
2, 40368, Note_on_c, 0, 75, 110
2, 40380, Note_off_c, 0, 75, 0
2, 40380, Note_on_c, 0, 73, 110
2, 40392, Note_off_c, 0, 73, 0
2, 40392, Note_on_c, 0, 61, 110
2, 40416, Note_off_c, 0, 61, 0
2, 40416, Note_on_c, 0, 60, 110
2, 40488, Note_off_c, 0, 60, 0
2, 40488, Note_on_c, 0, 58, 110
2, 40512, Note_off_c, 0, 58, 0
2, 40512, Note_on_c, 0, 60, 110
2, 40560, Note_off_c, 0, 60, 0
2, 40584, Note_on_c, 0, 74, 110
2, 40608, Note_off_c, 0, 74, 0
2, 40608, Note_on_c, 0, 75, 110
2, 40680, Note_off_c, 0, 75, 0
2, 40680, Note_on_c, 0, 77, 110
2, 40704, Note_off_c, 0, 77, 0
2, 40704, Note_on_c, 0, 70, 110
2, 41232, Note_off_c, 0, 70, 0
2, 41256, Note_on_c, 0, 61, 110
2, 41280, Note_off_c, 0, 61, 0
2, 41280, Note_on_c, 0, 63, 110
2, 41352, Note_off_c, 0, 63, 0
2, 41352, Note_on_c, 0, 56, 110
2, 41376, Note_off_c, 0, 56, 0
2, 41376, Note_on_c, 0, 60, 110
2, 41448, Note_off_c, 0, 60, 0
2, 41448, Note_on_c, 0, 72, 110
2, 41472, Note_off_c, 0, 72, 0
2, 41472, Note_on_c, 0, 68, 110
2, 41592, Note_off_c, 0, 68, 0
2, 41592, Note_on_c, 0, 67, 110
2, 41616, Note_off_c, 0, 67, 0
2, 41616, Note_on_c, 0, 65, 110
2, 41640, Note_off_c, 0, 65, 0
2, 41640, Note_on_c, 0, 63, 110
2, 41664, Note_off_c, 0, 63, 0
2, 41664, Note_on_c, 0, 82, 110
2, 41952, Note_off_c, 0, 82, 0
2, 41952, Note_on_c, 0, 75, 110
2, 42120, Note_off_c, 0, 75, 0
2, 42120, Note_on_c, 0, 73, 110
2, 42144, Note_off_c, 0, 73, 0
2, 42144, Note_on_c, 0, 72, 110
2, 42216, Note_off_c, 0, 72, 0
2, 42216, Note_on_c, 0, 75, 110
2, 42240, Note_off_c, 0, 75, 0
2, 42240, Note_on_c, 0, 70, 110
2, 42432, Note_off_c, 0, 70, 0
2, 42432, Note_on_c, 0, 68, 110
2, 42528, Note_off_c, 0, 68, 0
2, 42552, Note_on_c, 0, 72, 110
2, 42576, Note_off_c, 0, 72, 0
2, 42576, Note_on_c, 0, 70, 110
2, 42600, Note_off_c, 0, 70, 0
2, 42600, Note_on_c, 0, 68, 110
2, 42624, Note_off_c, 0, 68, 0
2, 42624, Note_on_c, 0, 75, 110
2, 42672, Note_off_c, 0, 75, 0
2, 42720, Note_on_c, 0, 68, 110
2, 42768, Note_off_c, 0, 68, 0
2, 42816, Note_on_c, 0, 67, 110
2, 42864, Note_off_c, 0, 67, 0
2, 42912, Note_on_c, 0, 68, 110
2, 42960, Note_off_c, 0, 68, 0
2, 43008, Note_on_c, 0, 61, 110
2, 43014, Note_off_c, 0, 61, 0
2, 43020, Note_on_c, 0, 63, 110
2, 43026, Note_off_c, 0, 63, 0
2, 43032, Note_on_c, 0, 61, 110
2, 43068, Note_off_c, 0, 61, 0
2, 43104, Note_on_c, 0, 60, 110
2, 43152, Note_off_c, 0, 60, 0
2, 43296, Note_on_c, 0, 73, 59
2, 43320, Note_off_c, 0, 73, 0
2, 43320, Note_on_c, 0, 72, 59
2, 43344, Note_off_c, 0, 72, 0
2, 43344, Note_on_c, 0, 70, 59
2, 43368, Note_off_c, 0, 70, 0
2, 43368, Note_on_c, 0, 68, 59
2, 43392, Note_off_c, 0, 68, 0
2, 43392, Note_on_c, 0, 75, 59
2, 43440, Note_off_c, 0, 75, 0
2, 43488, Note_on_c, 0, 68, 59
2, 43536, Note_off_c, 0, 68, 0
2, 43584, Note_on_c, 0, 67, 59
2, 43632, Note_off_c, 0, 67, 0
2, 43680, Note_on_c, 0, 68, 59
2, 43728, Note_off_c, 0, 68, 0
2, 43776, Note_on_c, 0, 61, 59
2, 43782, Note_off_c, 0, 61, 0
2, 43788, Note_on_c, 0, 63, 59
2, 43794, Note_off_c, 0, 63, 0
2, 43800, Note_on_c, 0, 61, 59
2, 43836, Note_off_c, 0, 61, 0
2, 43872, Note_on_c, 0, 60, 59
2, 43920, Note_off_c, 0, 60, 0
2, 44064, Note_on_c, 0, 68, 110
2, 44088, Note_off_c, 0, 68, 0
2, 44088, Note_on_c, 0, 67, 110
2, 44112, Note_off_c, 0, 67, 0
2, 44112, Note_on_c, 0, 65, 110
2, 44136, Note_off_c, 0, 65, 0
2, 44136, Note_on_c, 0, 63, 110
2, 44160, Note_off_c, 0, 63, 0
2, 44160, Note_on_c, 0, 70, 110
2, 44208, Note_off_c, 0, 70, 0
2, 44256, Note_on_c, 0, 72, 110
2, 44304, Note_off_c, 0, 72, 0
2, 44352, Note_on_c, 0, 68, 110
2, 44358, Note_off_c, 0, 68, 0
2, 44364, Note_on_c, 0, 70, 110
2, 44370, Note_off_c, 0, 70, 0
2, 44376, Note_on_c, 0, 68, 110
2, 44412, Note_off_c, 0, 68, 0
2, 44448, Note_on_c, 0, 67, 110
2, 44496, Note_off_c, 0, 67, 0
2, 44544, Note_on_c, 0, 56, 110
2, 44550, Note_off_c, 0, 56, 0
2, 44556, Note_on_c, 0, 58, 110
2, 44562, Note_off_c, 0, 58, 0
2, 44568, Note_on_c, 0, 56, 110
2, 44604, Note_off_c, 0, 56, 0
2, 44640, Note_on_c, 0, 55, 110
2, 44688, Note_off_c, 0, 55, 0
2, 44832, Note_on_c, 0, 68, 59
2, 44856, Note_off_c, 0, 68, 0
2, 44856, Note_on_c, 0, 67, 59
2, 44880, Note_off_c, 0, 67, 0
2, 44880, Note_on_c, 0, 65, 59
2, 44904, Note_off_c, 0, 65, 0
2, 44904, Note_on_c, 0, 63, 59
2, 44928, Note_off_c, 0, 63, 0
2, 44928, Note_on_c, 0, 70, 59
2, 44976, Note_off_c, 0, 70, 0
2, 45024, Note_on_c, 0, 72, 59
2, 45072, Note_off_c, 0, 72, 0
2, 45120, Note_on_c, 0, 68, 59
2, 45126, Note_off_c, 0, 68, 0
2, 45132, Note_on_c, 0, 70, 59
2, 45138, Note_off_c, 0, 70, 0
2, 45144, Note_on_c, 0, 68, 59
2, 45180, Note_off_c, 0, 68, 0
2, 45216, Note_on_c, 0, 67, 59
2, 45264, Note_off_c, 0, 67, 0
2, 45312, Note_on_c, 0, 56, 59
2, 45318, Note_off_c, 0, 56, 0
2, 45324, Note_on_c, 0, 58, 59
2, 45330, Note_off_c, 0, 58, 0
2, 45336, Note_on_c, 0, 56, 59
2, 45372, Note_off_c, 0, 56, 0
2, 45408, Note_on_c, 0, 55, 59
2, 45444, Note_off_c, 0, 55, 0
2, 45600, Note_on_c, 0, 63, 110
2, 45696, Note_off_c, 0, 63, 0
2, 45696, Note_on_c, 0, 72, 110
2, 45792, Note_off_c, 0, 72, 0
2, 45792, Note_on_c, 0, 67, 110
2, 45888, Note_off_c, 0, 67, 0
2, 45888, Note_on_c, 0, 72, 110
2, 45984, Note_off_c, 0, 72, 0
2, 45984, Note_on_c, 0, 65, 110
2, 46080, Note_off_c, 0, 65, 0
2, 46080, Note_on_c, 0, 70, 110
2, 46176, Note_off_c, 0, 70, 0
2, 46176, Note_on_c, 0, 65, 110
2, 46272, Note_off_c, 0, 65, 0
2, 46272, Note_on_c, 0, 70, 110
2, 46368, Note_off_c, 0, 70, 0
2, 46368, Note_on_c, 0, 63, 110
2, 46464, Note_off_c, 0, 63, 0
2, 46464, Note_on_c, 0, 68, 110
2, 46560, Note_off_c, 0, 68, 0
2, 46560, Note_on_c, 0, 63, 110
2, 46656, Note_off_c, 0, 63, 0
2, 46656, Note_on_c, 0, 68, 110
2, 46752, Note_off_c, 0, 68, 0
2, 46752, Note_on_c, 0, 60, 110
2, 46848, Note_off_c, 0, 60, 0
2, 46848, Note_on_c, 0, 65, 110
2, 46944, Note_off_c, 0, 65, 0
2, 46944, Note_on_c, 0, 60, 110
2, 47040, Note_off_c, 0, 60, 0
2, 47040, Note_on_c, 0, 65, 110
2, 47136, Note_off_c, 0, 65, 0
2, 47136, Note_on_c, 0, 62, 110
2, 47232, Note_off_c, 0, 62, 0
2, 47232, Note_on_c, 0, 63, 110
2, 47328, Note_off_c, 0, 63, 0
2, 47328, Note_on_c, 0, 82, 110
2, 47472, Note_off_c, 0, 82, 0
2, 47472, Note_on_c, 0, 81, 110
2, 47496, Note_off_c, 0, 81, 0
2, 47496, Note_on_c, 0, 82, 110
2, 47520, Note_off_c, 0, 82, 0
2, 47520, Note_on_c, 0, 63, 110
2, 47616, Note_off_c, 0, 63, 0
2, 47616, Note_on_c, 0, 65, 110
2, 47712, Note_off_c, 0, 65, 0
2, 47736, Note_on_c, 0, 75, 110
2, 47760, Note_off_c, 0, 75, 0
2, 47760, Note_on_c, 0, 77, 110
2, 47784, Note_off_c, 0, 77, 0
2, 47784, Note_on_c, 0, 74, 110
2, 47808, Note_off_c, 0, 74, 0
2, 47808, Note_on_c, 0, 70, 110
2, 47856, Note_off_c, 0, 70, 0
2, 47856, Note_on_c, 0, 80, 110
2, 47952, Note_off_c, 0, 80, 0
2, 47952, Note_on_c, 0, 78, 110
2, 48024, Note_off_c, 0, 78, 0
2, 48024, Note_on_c, 0, 75, 110
2, 48048, Note_off_c, 0, 75, 0
2, 48048, Note_on_c, 0, 74, 110
2, 48072, Note_off_c, 0, 74, 0
2, 48072, Note_on_c, 0, 75, 110
2, 48096, Note_off_c, 0, 75, 0
2, 48096, Note_on_c, 0, 65, 110
2, 48192, Note_off_c, 0, 65, 0
2, 48192, Note_on_c, 0, 66, 110
2, 48288, Note_off_c, 0, 66, 0
2, 48288, Note_on_c, 0, 63, 110
2, 48384, Note_off_c, 0, 63, 0
2, 48384, Note_on_c, 0, 68, 110
2, 48480, Note_off_c, 0, 68, 0
2, 48480, Note_on_c, 0, 66, 110
2, 48576, Note_off_c, 0, 66, 0
2, 48576, Note_on_c, 0, 65, 110
2, 48672, Note_off_c, 0, 65, 0
2, 48672, Note_on_c, 0, 62, 110
2, 48768, Note_off_c, 0, 62, 0
2, 48768, Note_on_c, 0, 70, 110
2, 48864, Note_off_c, 0, 70, 0
2, 48864, Note_on_c, 0, 56, 110
2, 48960, Note_off_c, 0, 56, 0
2, 48960, Note_on_c, 0, 66, 110
2, 49056, Note_off_c, 0, 66, 0
2, 49056, Note_on_c, 0, 65, 110
2, 49152, Note_off_c, 0, 65, 0
2, 49152, Note_on_c, 0, 75, 110
2, 49632, Note_off_c, 0, 75, 0
2, 50352, Note_on_c, 0, 70, 110
2, 50448, Note_off_c, 0, 70, 0
2, 50448, Note_on_c, 0, 70, 110
2, 50520, Note_off_c, 0, 70, 0
2, 50520, Note_on_c, 0, 69, 110
2, 50544, Note_off_c, 0, 69, 0
2, 50544, Note_on_c, 0, 67, 110
2, 50568, Note_off_c, 0, 67, 0
2, 50568, Note_on_c, 0, 65, 110
2, 50592, Note_off_c, 0, 65, 0
2, 50592, Note_on_c, 0, 63, 110
2, 50616, Note_off_c, 0, 63, 0
2, 50616, Note_on_c, 0, 62, 110
2, 50640, Note_off_c, 0, 62, 0
2, 50640, Note_on_c, 0, 60, 110
2, 50664, Note_off_c, 0, 60, 0
2, 50664, Note_on_c, 0, 58, 110
2, 50688, Note_off_c, 0, 58, 0
2, 50688, Note_on_c, 0, 57, 110
2, 50712, Note_off_c, 0, 57, 0
2, 50712, Note_on_c, 0, 60, 110
2, 50736, Note_off_c, 0, 60, 0
2, 50736, Note_on_c, 0, 57, 110
2, 50760, Note_off_c, 0, 57, 0
2, 50760, Note_on_c, 0, 60, 110
2, 50784, Note_off_c, 0, 60, 0
2, 50784, Note_on_c, 0, 58, 110
2, 50808, Note_off_c, 0, 58, 0
2, 50808, Note_on_c, 0, 62, 110
2, 50832, Note_off_c, 0, 62, 0
2, 50832, Note_on_c, 0, 58, 110
2, 50856, Note_off_c, 0, 58, 0
2, 50856, Note_on_c, 0, 62, 110
2, 50880, Note_off_c, 0, 62, 0
2, 50880, Note_on_c, 0, 58, 110
2, 50904, Note_off_c, 0, 58, 0
2, 50904, Note_on_c, 0, 63, 110
2, 50928, Note_off_c, 0, 63, 0
2, 50928, Note_on_c, 0, 58, 110
2, 50952, Note_off_c, 0, 58, 0
2, 50952, Note_on_c, 0, 63, 110
2, 50976, Note_off_c, 0, 63, 0
2, 50976, Note_on_c, 0, 57, 110
2, 51000, Note_off_c, 0, 57, 0
2, 51000, Note_on_c, 0, 63, 110
2, 51024, Note_off_c, 0, 63, 0
2, 51024, Note_on_c, 0, 57, 110
2, 51048, Note_off_c, 0, 57, 0
2, 51048, Note_on_c, 0, 63, 110
2, 51072, Note_off_c, 0, 63, 0
2, 51072, Note_on_c, 0, 62, 110
2, 51096, Note_off_c, 0, 62, 0
2, 51096, Note_on_c, 0, 60, 110
2, 51120, Note_off_c, 0, 60, 0
2, 51120, Note_on_c, 0, 58, 110
2, 51144, Note_off_c, 0, 58, 0
2, 51144, Note_on_c, 0, 57, 110
2, 51168, Note_off_c, 0, 57, 0
2, 51168, Note_on_c, 0, 58, 110
2, 51192, Note_off_c, 0, 58, 0
2, 51192, Note_on_c, 0, 62, 110
2, 51216, Note_off_c, 0, 62, 0
2, 51216, Note_on_c, 0, 58, 110
2, 51240, Note_off_c, 0, 58, 0
2, 51240, Note_on_c, 0, 62, 110
2, 51264, Note_off_c, 0, 62, 0
2, 51264, Note_on_c, 0, 67, 110
2, 51480, Note_off_c, 0, 67, 0
2, 51480, Note_on_c, 0, 67, 110
2, 51504, Note_off_c, 0, 67, 0
2, 51504, Note_on_c, 0, 65, 110
2, 51528, Note_off_c, 0, 65, 0
2, 51528, Note_on_c, 0, 64, 110
2, 51552, Note_off_c, 0, 64, 0
2, 51552, Note_on_c, 0, 65, 110
2, 51576, Note_off_c, 0, 65, 0
2, 51576, Note_on_c, 0, 68, 110
2, 51600, Note_off_c, 0, 68, 0
2, 51600, Note_on_c, 0, 65, 110
2, 51624, Note_off_c, 0, 65, 0
2, 51624, Note_on_c, 0, 68, 110
2, 51648, Note_off_c, 0, 68, 0
2, 51648, Note_on_c, 0, 62, 110
2, 51672, Note_off_c, 0, 62, 0
2, 51672, Note_on_c, 0, 65, 110
2, 51696, Note_off_c, 0, 65, 0
2, 51696, Note_on_c, 0, 63, 110
2, 51720, Note_off_c, 0, 63, 0
2, 51720, Note_on_c, 0, 62, 110
2, 51744, Note_off_c, 0, 62, 0
2, 51744, Note_on_c, 0, 63, 110
2, 51768, Note_off_c, 0, 63, 0
2, 51768, Note_on_c, 0, 67, 110
2, 51792, Note_off_c, 0, 67, 0
2, 51792, Note_on_c, 0, 63, 110
2, 51816, Note_off_c, 0, 63, 0
2, 51816, Note_on_c, 0, 67, 110
2, 51840, Note_off_c, 0, 67, 0
2, 51840, Note_on_c, 0, 60, 110
2, 51936, Note_off_c, 0, 60, 0
2, 51936, Note_on_c, 0, 68, 110
2, 52032, Note_off_c, 0, 68, 0
2, 52032, Note_on_c, 0, 67, 110
2, 52128, Note_off_c, 0, 67, 0
2, 52128, Note_on_c, 0, 65, 110
2, 52152, Note_off_c, 0, 65, 0
2, 52152, Note_on_c, 0, 63, 110
2, 52176, Note_off_c, 0, 63, 0
2, 52176, Note_on_c, 0, 62, 110
2, 52200, Note_off_c, 0, 62, 0
2, 52200, Note_on_c, 0, 63, 110
2, 52224, Note_off_c, 0, 63, 0
2, 52224, Note_on_c, 0, 62, 110
2, 52248, Note_off_c, 0, 62, 0
2, 52248, Note_on_c, 0, 65, 110
2, 52272, Note_off_c, 0, 65, 0
2, 52272, Note_on_c, 0, 62, 110
2, 52296, Note_off_c, 0, 62, 0
2, 52296, Note_on_c, 0, 65, 110
2, 52320, Note_off_c, 0, 65, 0
2, 52320, Note_on_c, 0, 63, 110
2, 52344, Note_off_c, 0, 63, 0
2, 52344, Note_on_c, 0, 67, 110
2, 52368, Note_off_c, 0, 67, 0
2, 52368, Note_on_c, 0, 63, 110
2, 52392, Note_off_c, 0, 63, 0
2, 52392, Note_on_c, 0, 67, 110
2, 52416, Note_off_c, 0, 67, 0
2, 52416, Note_on_c, 0, 63, 110
2, 52440, Note_off_c, 0, 63, 0
2, 52440, Note_on_c, 0, 68, 110
2, 52464, Note_off_c, 0, 68, 0
2, 52464, Note_on_c, 0, 63, 110
2, 52488, Note_off_c, 0, 63, 0
2, 52488, Note_on_c, 0, 68, 110
2, 52512, Note_off_c, 0, 68, 0
2, 52512, Note_on_c, 0, 62, 110
2, 52536, Note_off_c, 0, 62, 0
2, 52536, Note_on_c, 0, 68, 110
2, 52560, Note_off_c, 0, 68, 0
2, 52560, Note_on_c, 0, 62, 110
2, 52584, Note_off_c, 0, 62, 0
2, 52584, Note_on_c, 0, 68, 110
2, 52608, Note_off_c, 0, 68, 0
2, 52608, Note_on_c, 0, 67, 110
2, 52632, Note_off_c, 0, 67, 0
2, 52632, Note_on_c, 0, 65, 110
2, 52656, Note_off_c, 0, 65, 0
2, 52656, Note_on_c, 0, 63, 110
2, 52680, Note_off_c, 0, 63, 0
2, 52680, Note_on_c, 0, 62, 110
2, 52704, Note_off_c, 0, 62, 0
2, 52704, Note_on_c, 0, 63, 110
2, 52728, Note_off_c, 0, 63, 0
2, 52728, Note_on_c, 0, 67, 110
2, 52752, Note_off_c, 0, 67, 0
2, 52752, Note_on_c, 0, 63, 110
2, 52776, Note_off_c, 0, 63, 0
2, 52776, Note_on_c, 0, 67, 110
2, 52800, Note_off_c, 0, 67, 0
2, 52800, Note_on_c, 0, 72, 110
2, 52992, Note_off_c, 0, 72, 0
2, 52992, Note_on_c, 0, 72, 110
2, 53016, Note_off_c, 0, 72, 0
2, 53016, Note_on_c, 0, 63, 110
2, 53040, Note_off_c, 0, 63, 0
2, 53040, Note_on_c, 0, 62, 110
2, 53064, Note_off_c, 0, 62, 0
2, 53064, Note_on_c, 0, 60, 110
2, 53088, Note_off_c, 0, 60, 0
2, 53088, Note_on_c, 0, 62, 110
2, 53112, Note_off_c, 0, 62, 0
2, 53112, Note_on_c, 0, 65, 110
2, 53136, Note_off_c, 0, 65, 0
2, 53136, Note_on_c, 0, 62, 110
2, 53160, Note_off_c, 0, 62, 0
2, 53160, Note_on_c, 0, 65, 110
2, 53184, Note_off_c, 0, 65, 0
2, 53184, Note_on_c, 0, 70, 110
2, 53400, Note_off_c, 0, 70, 0
2, 53400, Note_on_c, 0, 62, 110
2, 53424, Note_off_c, 0, 62, 0
2, 53424, Note_on_c, 0, 60, 110
2, 53448, Note_off_c, 0, 60, 0
2, 53448, Note_on_c, 0, 58, 110
2, 53472, Note_off_c, 0, 58, 0
2, 53472, Note_on_c, 0, 60, 110
2, 53496, Note_off_c, 0, 60, 0
2, 53496, Note_on_c, 0, 63, 110
2, 53520, Note_off_c, 0, 63, 0
2, 53520, Note_on_c, 0, 60, 110
2, 53544, Note_off_c, 0, 60, 0
2, 53544, Note_on_c, 0, 63, 110
2, 53568, Note_off_c, 0, 63, 0
2, 53568, Note_on_c, 0, 69, 110
2, 53592, Note_off_c, 0, 69, 0
2, 53592, Note_on_c, 0, 70, 110
2, 53616, Note_off_c, 0, 70, 0
2, 53616, Note_on_c, 0, 69, 110
2, 53640, Note_off_c, 0, 69, 0
2, 53640, Note_on_c, 0, 67, 110
2, 53664, Note_off_c, 0, 67, 0
2, 53664, Note_on_c, 0, 69, 110
2, 53688, Note_off_c, 0, 69, 0
2, 53688, Note_on_c, 0, 72, 110
2, 53712, Note_off_c, 0, 72, 0
2, 53712, Note_on_c, 0, 69, 110
2, 53736, Note_off_c, 0, 69, 0
2, 53736, Note_on_c, 0, 72, 110
2, 53760, Note_off_c, 0, 72, 0
2, 53760, Note_on_c, 0, 74, 110
2, 53784, Note_off_c, 0, 74, 0
2, 53784, Note_on_c, 0, 75, 110
2, 53808, Note_off_c, 0, 75, 0
2, 53808, Note_on_c, 0, 74, 110
2, 53832, Note_off_c, 0, 74, 0
2, 53832, Note_on_c, 0, 72, 110
2, 53856, Note_off_c, 0, 72, 0
2, 53856, Note_on_c, 0, 74, 110
2, 53880, Note_off_c, 0, 74, 0
2, 53880, Note_on_c, 0, 77, 110
2, 53904, Note_off_c, 0, 77, 0
2, 53904, Note_on_c, 0, 74, 110
2, 53928, Note_off_c, 0, 74, 0
2, 53928, Note_on_c, 0, 77, 110
2, 53952, Note_off_c, 0, 77, 0
2, 53952, Note_on_c, 0, 82, 110
2, 53976, Note_off_c, 0, 82, 0
2, 53976, Note_on_c, 0, 81, 110
2, 54000, Note_off_c, 0, 81, 0
2, 54000, Note_on_c, 0, 79, 110
2, 54024, Note_off_c, 0, 79, 0
2, 54024, Note_on_c, 0, 77, 110
2, 54048, Note_off_c, 0, 77, 0
2, 54048, Note_on_c, 0, 75, 110
2, 54072, Note_off_c, 0, 75, 0
2, 54072, Note_on_c, 0, 74, 110
2, 54096, Note_off_c, 0, 74, 0
2, 54096, Note_on_c, 0, 72, 110
2, 54120, Note_off_c, 0, 72, 0
2, 54120, Note_on_c, 0, 70, 110
2, 54144, Note_off_c, 0, 70, 0
2, 54144, Note_on_c, 0, 69, 110
2, 54168, Note_off_c, 0, 69, 0
2, 54168, Note_on_c, 0, 72, 110
2, 54192, Note_off_c, 0, 72, 0
2, 54192, Note_on_c, 0, 69, 110
2, 54216, Note_off_c, 0, 69, 0
2, 54216, Note_on_c, 0, 72, 110
2, 54240, Note_off_c, 0, 72, 0
2, 54240, Note_on_c, 0, 70, 110
2, 54264, Note_off_c, 0, 70, 0
2, 54264, Note_on_c, 0, 74, 110
2, 54288, Note_off_c, 0, 74, 0
2, 54288, Note_on_c, 0, 70, 110
2, 54312, Note_off_c, 0, 70, 0
2, 54312, Note_on_c, 0, 74, 110
2, 54336, Note_off_c, 0, 74, 0
2, 54336, Note_on_c, 0, 70, 110
2, 54360, Note_off_c, 0, 70, 0
2, 54360, Note_on_c, 0, 75, 110
2, 54384, Note_off_c, 0, 75, 0
2, 54384, Note_on_c, 0, 70, 110
2, 54408, Note_off_c, 0, 70, 0
2, 54408, Note_on_c, 0, 75, 110
2, 54432, Note_off_c, 0, 75, 0
2, 54432, Note_on_c, 0, 69, 110
2, 54456, Note_off_c, 0, 69, 0
2, 54456, Note_on_c, 0, 75, 110
2, 54480, Note_off_c, 0, 75, 0
2, 54480, Note_on_c, 0, 69, 110
2, 54504, Note_off_c, 0, 69, 0
2, 54504, Note_on_c, 0, 75, 110
2, 54528, Note_off_c, 0, 75, 0
2, 54528, Note_on_c, 0, 74, 110
2, 54552, Note_off_c, 0, 74, 0
2, 54552, Note_on_c, 0, 75, 110
2, 54576, Note_off_c, 0, 75, 0
2, 54576, Note_on_c, 0, 74, 110
2, 54600, Note_off_c, 0, 74, 0
2, 54600, Note_on_c, 0, 72, 110
2, 54624, Note_off_c, 0, 72, 0
2, 54624, Note_on_c, 0, 74, 110
2, 54648, Note_off_c, 0, 74, 0
2, 54648, Note_on_c, 0, 72, 110
2, 54672, Note_off_c, 0, 72, 0
2, 54672, Note_on_c, 0, 70, 110
2, 54696, Note_off_c, 0, 70, 0
2, 54696, Note_on_c, 0, 69, 110
2, 54720, Note_off_c, 0, 69, 0
2, 54720, Note_on_c, 0, 70, 110
2, 54744, Note_off_c, 0, 70, 0
2, 54744, Note_on_c, 0, 72, 110
2, 54768, Note_off_c, 0, 72, 0
2, 54768, Note_on_c, 0, 70, 110
2, 54792, Note_off_c, 0, 70, 0
2, 54792, Note_on_c, 0, 69, 110
2, 54816, Note_off_c, 0, 69, 0
2, 54816, Note_on_c, 0, 70, 110
2, 54840, Note_off_c, 0, 70, 0
2, 54840, Note_on_c, 0, 68, 110
2, 54864, Note_off_c, 0, 68, 0
2, 54864, Note_on_c, 0, 67, 110
2, 54888, Note_off_c, 0, 67, 0
2, 54888, Note_on_c, 0, 65, 110
2, 54912, Note_off_c, 0, 65, 0
2, 54912, Note_on_c, 0, 67, 110
2, 54960, Note_off_c, 0, 67, 0
2, 55488, Note_on_c, 0, 80, 110
2, 55680, Note_off_c, 0, 80, 0
2, 55680, Note_on_c, 0, 62, 110
2, 55776, Note_off_c, 0, 62, 0
2, 55776, Note_on_c, 0, 63, 110
2, 55872, Note_off_c, 0, 63, 0
2, 55872, Note_on_c, 0, 74, 110
2, 56064, Note_off_c, 0, 74, 0
2, 56064, Note_on_c, 0, 75, 110
2, 56088, Note_off_c, 0, 75, 0
2, 56088, Note_on_c, 0, 77, 110
2, 56112, Note_off_c, 0, 77, 0
2, 56112, Note_on_c, 0, 75, 110
2, 56136, Note_off_c, 0, 75, 0
2, 56136, Note_on_c, 0, 74, 110
2, 56160, Note_off_c, 0, 74, 0
2, 56160, Note_on_c, 0, 75, 110
2, 56184, Note_off_c, 0, 75, 0
2, 56184, Note_on_c, 0, 74, 110
2, 56208, Note_off_c, 0, 74, 0
2, 56208, Note_on_c, 0, 72, 110
2, 56232, Note_off_c, 0, 72, 0
2, 56232, Note_on_c, 0, 71, 110
2, 56256, Note_off_c, 0, 71, 0
2, 56256, Note_on_c, 0, 72, 110
2, 56280, Note_off_c, 0, 72, 0
2, 56280, Note_on_c, 0, 74, 110
2, 56304, Note_off_c, 0, 74, 0
2, 56304, Note_on_c, 0, 72, 110
2, 56328, Note_off_c, 0, 72, 0
2, 56328, Note_on_c, 0, 71, 110
2, 56352, Note_off_c, 0, 71, 0
2, 56352, Note_on_c, 0, 72, 110
2, 56376, Note_off_c, 0, 72, 0
2, 56376, Note_on_c, 0, 70, 110
2, 56400, Note_off_c, 0, 70, 0
2, 56400, Note_on_c, 0, 69, 110
2, 56424, Note_off_c, 0, 69, 0
2, 56424, Note_on_c, 0, 67, 110
2, 56448, Note_off_c, 0, 67, 0
2, 56448, Note_on_c, 0, 65, 110
2, 56472, Note_off_c, 0, 65, 0
2, 56472, Note_on_c, 0, 70, 110
2, 56496, Note_off_c, 0, 70, 0
2, 56496, Note_on_c, 0, 69, 110
2, 56520, Note_off_c, 0, 69, 0
2, 56520, Note_on_c, 0, 67, 110
2, 56544, Note_off_c, 0, 67, 0
2, 56544, Note_on_c, 0, 69, 110
2, 56568, Note_off_c, 0, 69, 0
2, 56568, Note_on_c, 0, 67, 110
2, 56592, Note_off_c, 0, 67, 0
2, 56592, Note_on_c, 0, 65, 110
2, 56616, Note_off_c, 0, 65, 0
2, 56616, Note_on_c, 0, 64, 110
2, 56640, Note_off_c, 0, 64, 0
2, 56640, Note_on_c, 0, 65, 110
2, 56664, Note_off_c, 0, 65, 0
2, 56664, Note_on_c, 0, 67, 110
2, 56688, Note_off_c, 0, 67, 0
2, 56688, Note_on_c, 0, 65, 110
2, 56712, Note_off_c, 0, 65, 0
2, 56712, Note_on_c, 0, 64, 110
2, 56736, Note_off_c, 0, 64, 0
2, 56736, Note_on_c, 0, 65, 110
2, 56760, Note_off_c, 0, 65, 0
2, 56760, Note_on_c, 0, 63, 110
2, 56784, Note_off_c, 0, 63, 0
2, 56784, Note_on_c, 0, 62, 110
2, 56808, Note_off_c, 0, 62, 0
2, 56808, Note_on_c, 0, 60, 110
2, 56832, Note_off_c, 0, 60, 0
2, 57024, Note_on_c, 0, 79, 110
2, 57216, Note_off_c, 0, 79, 0
2, 57216, Note_on_c, 0, 77, 110
2, 57408, Note_off_c, 0, 77, 0
2, 57408, Note_on_c, 0, 72, 110
2, 57600, Note_off_c, 0, 72, 0
2, 57600, Note_on_c, 0, 70, 110
2, 57696, Note_off_c, 0, 70, 0
2, 57696, Note_on_c, 0, 79, 110
2, 57840, Note_off_c, 0, 79, 0
2, 57840, Note_on_c, 0, 77, 110
2, 57888, Note_off_c, 0, 77, 0
2, 57888, Note_on_c, 0, 73, 110
2, 58032, Note_off_c, 0, 73, 0
2, 58032, Note_on_c, 0, 72, 110
2, 58080, Note_off_c, 0, 72, 0
2, 58080, Note_on_c, 0, 68, 110
2, 58176, Note_off_c, 0, 68, 0
2, 58176, Note_on_c, 0, 73, 110
2, 58320, Note_off_c, 0, 73, 0
2, 58320, Note_on_c, 0, 72, 110
2, 58560, Note_off_c, 0, 72, 0
2, 58560, Note_on_c, 0, 77, 110
2, 58752, Note_off_c, 0, 77, 0
2, 58752, Note_on_c, 0, 70, 110
2, 58848, Note_off_c, 0, 70, 0
2, 58848, Note_on_c, 0, 68, 110
2, 58944, Note_off_c, 0, 68, 0
2, 58944, Note_on_c, 0, 73, 110
2, 59136, Note_off_c, 0, 73, 0
2, 59136, Note_on_c, 0, 72, 110
2, 59328, Note_off_c, 0, 72, 0
2, 59328, Note_on_c, 0, 74, 110
2, 59520, Note_off_c, 0, 74, 0
2, 59520, Note_on_c, 0, 75, 110
2, 59712, Note_off_c, 0, 75, 0
2, 59712, Note_on_c, 0, 77, 110
2, 59928, Note_off_c, 0, 77, 0
2, 59928, Note_on_c, 0, 70, 110
2, 59952, Note_off_c, 0, 70, 0
2, 59952, Note_on_c, 0, 75, 110
2, 60024, Note_off_c, 0, 75, 0
2, 60024, Note_on_c, 0, 74, 110
2, 60048, Note_off_c, 0, 74, 0
2, 60048, Note_on_c, 0, 75, 110
2, 60120, Note_off_c, 0, 75, 0
2, 60120, Note_on_c, 0, 74, 110
2, 60144, Note_off_c, 0, 74, 0
2, 60144, Note_on_c, 0, 72, 110
2, 60168, Note_off_c, 0, 72, 0
2, 60168, Note_on_c, 0, 70, 110
2, 60192, Note_off_c, 0, 70, 0
2, 60192, Note_on_c, 0, 68, 110
2, 60216, Note_off_c, 0, 68, 0
2, 60216, Note_on_c, 0, 67, 110
2, 60240, Note_off_c, 0, 67, 0
2, 60240, Note_on_c, 0, 65, 110
2, 60264, Note_off_c, 0, 65, 0
2, 60264, Note_on_c, 0, 63, 110
2, 60288, Note_off_c, 0, 63, 0
2, 60288, Note_on_c, 0, 62, 110
2, 60312, Note_off_c, 0, 62, 0
2, 60312, Note_on_c, 0, 65, 110
2, 60336, Note_off_c, 0, 65, 0
2, 60336, Note_on_c, 0, 62, 110
2, 60360, Note_off_c, 0, 62, 0
2, 60360, Note_on_c, 0, 65, 110
2, 60384, Note_off_c, 0, 65, 0
2, 60384, Note_on_c, 0, 63, 110
2, 60408, Note_off_c, 0, 63, 0
2, 60408, Note_on_c, 0, 67, 110
2, 60432, Note_off_c, 0, 67, 0
2, 60432, Note_on_c, 0, 63, 110
2, 60456, Note_off_c, 0, 63, 0
2, 60456, Note_on_c, 0, 67, 110
2, 60480, Note_off_c, 0, 67, 0
2, 60480, Note_on_c, 0, 63, 110
2, 60504, Note_off_c, 0, 63, 0
2, 60504, Note_on_c, 0, 68, 110
2, 60528, Note_off_c, 0, 68, 0
2, 60528, Note_on_c, 0, 63, 110
2, 60552, Note_off_c, 0, 63, 0
2, 60552, Note_on_c, 0, 68, 110
2, 60576, Note_off_c, 0, 68, 0
2, 60576, Note_on_c, 0, 62, 110
2, 60600, Note_off_c, 0, 62, 0
2, 60600, Note_on_c, 0, 68, 110
2, 60624, Note_off_c, 0, 68, 0
2, 60624, Note_on_c, 0, 62, 110
2, 60648, Note_off_c, 0, 62, 0
2, 60648, Note_on_c, 0, 68, 110
2, 60672, Note_off_c, 0, 68, 0
2, 60672, Note_on_c, 0, 67, 110
2, 60888, Note_off_c, 0, 67, 0
2, 60888, Note_on_c, 0, 67, 110
2, 60912, Note_off_c, 0, 67, 0
2, 60912, Note_on_c, 0, 65, 110
2, 60936, Note_off_c, 0, 65, 0
2, 60936, Note_on_c, 0, 63, 110
2, 60960, Note_off_c, 0, 63, 0
2, 60960, Note_on_c, 0, 65, 110
2, 60984, Note_off_c, 0, 65, 0
2, 60984, Note_on_c, 0, 63, 110
2, 61008, Note_off_c, 0, 63, 0
2, 61008, Note_on_c, 0, 62, 110
2, 61032, Note_off_c, 0, 62, 0
2, 61032, Note_on_c, 0, 60, 110
2, 61056, Note_off_c, 0, 60, 0
2, 61056, Note_on_c, 0, 58, 110
2, 61080, Note_off_c, 0, 58, 0
2, 61080, Note_on_c, 0, 62, 110
2, 61104, Note_off_c, 0, 62, 0
2, 61104, Note_on_c, 0, 60, 110
2, 61128, Note_off_c, 0, 60, 0
2, 61128, Note_on_c, 0, 58, 110
2, 61152, Note_off_c, 0, 58, 0
2, 61152, Note_on_c, 0, 67, 110
2, 61272, Note_off_c, 0, 67, 0
2, 61272, Note_on_c, 0, 70, 110
2, 61296, Note_off_c, 0, 70, 0
2, 61296, Note_on_c, 0, 69, 110
2, 61320, Note_off_c, 0, 69, 0
2, 61320, Note_on_c, 0, 67, 110
2, 61344, Note_off_c, 0, 67, 0
2, 61344, Note_on_c, 0, 72, 110
2, 61392, Note_off_c, 0, 72, 0
2, 61392, Note_on_c, 0, 63, 110
2, 61440, Note_off_c, 0, 63, 0
2, 61440, Note_on_c, 0, 61, 110
2, 61536, Note_off_c, 0, 61, 0
2, 61536, Note_on_c, 0, 63, 110
2, 61632, Note_off_c, 0, 63, 0
2, 61632, Note_on_c, 0, 65, 110
2, 61728, Note_off_c, 0, 65, 0
2, 61728, Note_on_c, 0, 66, 110
2, 61824, Note_off_c, 0, 66, 0
2, 61824, Note_on_c, 0, 65, 110
2, 62016, Note_off_c, 0, 65, 0
2, 62016, Note_on_c, 0, 66, 110
2, 62112, Note_off_c, 0, 66, 0
2, 62112, Note_on_c, 0, 65, 110
2, 62304, Note_off_c, 0, 65, 0
2, 62304, Note_on_c, 0, 61, 110
2, 62328, Note_off_c, 0, 61, 0
2, 62328, Note_on_c, 0, 65, 110
2, 62352, Note_off_c, 0, 65, 0
2, 62352, Note_on_c, 0, 61, 110
2, 62376, Note_off_c, 0, 61, 0
2, 62376, Note_on_c, 0, 65, 110
2, 62400, Note_off_c, 0, 65, 0
2, 62400, Note_on_c, 0, 58, 110
2, 62424, Note_off_c, 0, 58, 0
2, 62424, Note_on_c, 0, 68, 110
2, 62448, Note_off_c, 0, 68, 0
2, 62448, Note_on_c, 0, 67, 110
2, 62472, Note_off_c, 0, 67, 0
2, 62472, Note_on_c, 0, 65, 110
2, 62496, Note_off_c, 0, 65, 0
2, 62496, Note_on_c, 0, 67, 110
2, 62520, Note_off_c, 0, 67, 0
2, 62520, Note_on_c, 0, 70, 110
2, 62544, Note_off_c, 0, 70, 0
2, 62544, Note_on_c, 0, 67, 110
2, 62568, Note_off_c, 0, 67, 0
2, 62568, Note_on_c, 0, 70, 110
2, 62592, Note_off_c, 0, 70, 0
2, 62592, Note_on_c, 0, 64, 110
2, 62616, Note_off_c, 0, 64, 0
2, 62616, Note_on_c, 0, 65, 110
2, 62640, Note_off_c, 0, 65, 0
2, 62640, Note_on_c, 0, 64, 110
2, 62664, Note_off_c, 0, 64, 0
2, 62664, Note_on_c, 0, 62, 110
2, 62688, Note_off_c, 0, 62, 0
2, 62688, Note_on_c, 0, 64, 110
2, 62712, Note_off_c, 0, 64, 0
2, 62712, Note_on_c, 0, 67, 110
2, 62736, Note_off_c, 0, 67, 0
2, 62736, Note_on_c, 0, 64, 110
2, 62760, Note_off_c, 0, 64, 0
2, 62760, Note_on_c, 0, 67, 110
2, 62784, Note_off_c, 0, 67, 0
2, 62784, Note_on_c, 0, 60, 110
2, 62808, Note_off_c, 0, 60, 0
2, 62808, Note_on_c, 0, 70, 110
2, 62832, Note_off_c, 0, 70, 0
2, 62832, Note_on_c, 0, 68, 110
2, 62856, Note_off_c, 0, 68, 0
2, 62856, Note_on_c, 0, 67, 110
2, 62880, Note_off_c, 0, 67, 0
2, 62880, Note_on_c, 0, 68, 110
2, 62904, Note_off_c, 0, 68, 0
2, 62904, Note_on_c, 0, 72, 110
2, 62928, Note_off_c, 0, 72, 0
2, 62928, Note_on_c, 0, 68, 110
2, 62952, Note_off_c, 0, 68, 0
2, 62952, Note_on_c, 0, 72, 110
2, 62976, Note_off_c, 0, 72, 0
2, 62976, Note_on_c, 0, 65, 110
2, 63072, Note_off_c, 0, 65, 0
2, 63072, Note_on_c, 0, 67, 110
2, 63168, Note_off_c, 0, 67, 0
2, 63168, Note_on_c, 0, 68, 110
2, 63264, Note_off_c, 0, 68, 0
2, 63264, Note_on_c, 0, 70, 110
2, 63288, Note_off_c, 0, 70, 0
2, 63288, Note_on_c, 0, 68, 110
2, 63312, Note_off_c, 0, 68, 0
2, 63312, Note_on_c, 0, 67, 110
2, 63336, Note_off_c, 0, 67, 0
2, 63336, Note_on_c, 0, 65, 110
2, 63360, Note_off_c, 0, 65, 0
2, 63360, Note_on_c, 0, 64, 110
2, 63384, Note_off_c, 0, 64, 0
2, 63384, Note_on_c, 0, 67, 110
2, 63408, Note_off_c, 0, 67, 0
2, 63408, Note_on_c, 0, 64, 110
2, 63432, Note_off_c, 0, 64, 0
2, 63432, Note_on_c, 0, 67, 110
2, 63456, Note_off_c, 0, 67, 0
2, 63456, Note_on_c, 0, 65, 110
2, 63480, Note_off_c, 0, 65, 0
2, 63480, Note_on_c, 0, 68, 110
2, 63504, Note_off_c, 0, 68, 0
2, 63504, Note_on_c, 0, 65, 110
2, 63528, Note_off_c, 0, 65, 0
2, 63528, Note_on_c, 0, 68, 110
2, 63552, Note_off_c, 0, 68, 0
2, 63552, Note_on_c, 0, 65, 110
2, 63576, Note_off_c, 0, 65, 0
2, 63576, Note_on_c, 0, 70, 110
2, 63600, Note_off_c, 0, 70, 0
2, 63600, Note_on_c, 0, 65, 110
2, 63624, Note_off_c, 0, 65, 0
2, 63624, Note_on_c, 0, 70, 110
2, 63648, Note_off_c, 0, 70, 0
2, 63648, Note_on_c, 0, 64, 110
2, 63672, Note_off_c, 0, 64, 0
2, 63672, Note_on_c, 0, 70, 110
2, 63696, Note_off_c, 0, 70, 0
2, 63696, Note_on_c, 0, 58, 110
2, 63744, Note_off_c, 0, 58, 0
2, 63744, Note_on_c, 0, 68, 110
2, 63768, Note_off_c, 0, 68, 0
2, 63768, Note_on_c, 0, 67, 110
2, 63792, Note_off_c, 0, 67, 0
2, 63792, Note_on_c, 0, 65, 110
2, 63816, Note_off_c, 0, 65, 0
2, 63816, Note_on_c, 0, 64, 110
2, 63840, Note_off_c, 0, 64, 0
2, 63840, Note_on_c, 0, 65, 110
2, 63864, Note_off_c, 0, 65, 0
2, 63864, Note_on_c, 0, 68, 110
2, 63888, Note_off_c, 0, 68, 0
2, 63888, Note_on_c, 0, 67, 110
2, 63912, Note_off_c, 0, 67, 0
2, 63912, Note_on_c, 0, 65, 110
2, 63936, Note_off_c, 0, 65, 0
2, 63936, Note_on_c, 0, 74, 110
2, 63960, Note_off_c, 0, 74, 0
2, 63960, Note_on_c, 0, 75, 110
2, 63984, Note_off_c, 0, 75, 0
2, 63984, Note_on_c, 0, 74, 110
2, 64008, Note_off_c, 0, 74, 0
2, 64008, Note_on_c, 0, 72, 110
2, 64032, Note_off_c, 0, 72, 0
2, 64032, Note_on_c, 0, 74, 110
2, 64056, Note_off_c, 0, 74, 0
2, 64056, Note_on_c, 0, 72, 110
2, 64080, Note_off_c, 0, 72, 0
2, 64080, Note_on_c, 0, 70, 110
2, 64104, Note_off_c, 0, 70, 0
2, 64104, Note_on_c, 0, 68, 110
2, 64128, Note_off_c, 0, 68, 0
2, 64128, Note_on_c, 0, 67, 110
2, 64152, Note_off_c, 0, 67, 0
2, 64152, Note_on_c, 0, 68, 110
2, 64176, Note_off_c, 0, 68, 0
2, 64176, Note_on_c, 0, 67, 110
2, 64200, Note_off_c, 0, 67, 0
2, 64200, Note_on_c, 0, 65, 110
2, 64224, Note_off_c, 0, 65, 0
2, 64224, Note_on_c, 0, 67, 110
2, 64248, Note_off_c, 0, 67, 0
2, 64248, Note_on_c, 0, 69, 110
2, 64272, Note_off_c, 0, 69, 0
2, 64272, Note_on_c, 0, 71, 110
2, 64296, Note_off_c, 0, 71, 0
2, 64296, Note_on_c, 0, 72, 110
2, 64320, Note_off_c, 0, 72, 0
2, 64320, Note_on_c, 0, 71, 110
2, 64344, Note_off_c, 0, 71, 0
2, 64344, Note_on_c, 0, 72, 110
2, 64368, Note_off_c, 0, 72, 0
2, 64368, Note_on_c, 0, 74, 110
2, 64392, Note_off_c, 0, 74, 0
2, 64392, Note_on_c, 0, 75, 110
2, 64416, Note_off_c, 0, 75, 0
2, 64416, Note_on_c, 0, 77, 110
2, 64440, Note_off_c, 0, 77, 0
2, 64440, Note_on_c, 0, 80, 110
2, 64464, Note_off_c, 0, 80, 0
2, 64464, Note_on_c, 0, 79, 110
2, 64488, Note_off_c, 0, 79, 0
2, 64488, Note_on_c, 0, 77, 110
2, 64512, Note_off_c, 0, 77, 0
2, 64512, Note_on_c, 0, 72, 110
2, 64608, Note_off_c, 0, 72, 0
2, 64608, Note_on_c, 0, 74, 110
2, 64704, Note_off_c, 0, 74, 0
2, 64704, Note_on_c, 0, 75, 110
2, 64800, Note_off_c, 0, 75, 0
2, 64800, Note_on_c, 0, 80, 110
2, 64896, Note_off_c, 0, 80, 0
2, 64896, Note_on_c, 0, 79, 110
2, 65088, Note_off_c, 0, 79, 0
2, 65088, Note_on_c, 0, 74, 110
2, 65304, Note_off_c, 0, 74, 0
2, 65304, Note_on_c, 0, 74, 110
2, 65328, Note_off_c, 0, 74, 0
2, 65328, Note_on_c, 0, 72, 110
2, 65352, Note_off_c, 0, 72, 0
2, 65352, Note_on_c, 0, 71, 110
2, 65376, Note_off_c, 0, 71, 0
2, 65376, Note_on_c, 0, 72, 110
2, 65496, Note_off_c, 0, 72, 0
2, 65496, Note_on_c, 0, 70, 110
2, 65520, Note_off_c, 0, 70, 0
2, 65520, Note_on_c, 0, 68, 110
2, 65544, Note_off_c, 0, 68, 0
2, 65544, Note_on_c, 0, 67, 110
2, 65568, Note_off_c, 0, 67, 0
2, 65568, Note_on_c, 0, 68, 110
2, 65688, Note_off_c, 0, 68, 0
2, 65688, Note_on_c, 0, 72, 110
2, 65712, Note_off_c, 0, 72, 0
2, 65712, Note_on_c, 0, 70, 110
2, 65736, Note_off_c, 0, 70, 0
2, 65736, Note_on_c, 0, 68, 110
2, 65760, Note_off_c, 0, 68, 0
2, 65760, Note_on_c, 0, 70, 110
2, 65880, Note_off_c, 0, 70, 0
2, 65880, Note_on_c, 0, 68, 110
2, 65904, Note_off_c, 0, 68, 0
2, 65904, Note_on_c, 0, 67, 110
2, 65928, Note_off_c, 0, 67, 0
2, 65928, Note_on_c, 0, 65, 110
2, 65952, Note_off_c, 0, 65, 0
2, 65952, Note_on_c, 0, 67, 110
2, 66072, Note_off_c, 0, 67, 0
2, 66072, Note_on_c, 0, 70, 110
2, 66096, Note_off_c, 0, 70, 0
2, 66096, Note_on_c, 0, 68, 110
2, 66120, Note_off_c, 0, 68, 0
2, 66120, Note_on_c, 0, 67, 110
2, 66144, Note_off_c, 0, 67, 0
2, 66144, Note_on_c, 0, 68, 110
2, 66264, Note_off_c, 0, 68, 0
2, 66264, Note_on_c, 0, 67, 110
2, 66288, Note_off_c, 0, 67, 0
2, 66288, Note_on_c, 0, 65, 110
2, 66312, Note_off_c, 0, 65, 0
2, 66312, Note_on_c, 0, 63, 110
2, 66336, Note_off_c, 0, 63, 0
2, 66336, Note_on_c, 0, 65, 110
2, 66456, Note_off_c, 0, 65, 0
2, 66456, Note_on_c, 0, 67, 110
2, 66480, Note_off_c, 0, 67, 0
2, 66480, Note_on_c, 0, 65, 110
2, 66504, Note_off_c, 0, 65, 0
2, 66504, Note_on_c, 0, 63, 110
2, 66528, Note_off_c, 0, 63, 0
2, 66528, Note_on_c, 0, 62, 110
2, 66552, Note_off_c, 0, 62, 0
2, 66552, Note_on_c, 0, 60, 110
2, 66576, Note_off_c, 0, 60, 0
2, 66576, Note_on_c, 0, 59, 110
2, 66600, Note_off_c, 0, 59, 0
2, 66600, Note_on_c, 0, 57, 110
2, 66624, Note_off_c, 0, 57, 0
2, 66768, Note_on_c, 0, 71, 110
2, 66816, Note_off_c, 0, 71, 0
2, 66816, Note_on_c, 0, 67, 110
2, 67008, Note_off_c, 0, 67, 0
2, 67008, Note_on_c, 0, 72, 110
2, 67020, Note_off_c, 0, 72, 0
2, 67020, Note_on_c, 0, 71, 110
2, 67032, Note_off_c, 0, 71, 0
2, 67032, Note_on_c, 0, 72, 110
2, 67200, Note_off_c, 0, 72, 0
2, 67200, Note_on_c, 0, 77, 110
2, 67272, Note_off_c, 0, 77, 0
2, 67272, Note_on_c, 0, 75, 110
2, 67296, Note_off_c, 0, 75, 0
2, 67296, Note_on_c, 0, 74, 110
2, 67368, Note_off_c, 0, 74, 0
2, 67368, Note_on_c, 0, 72, 110
2, 67392, Note_off_c, 0, 72, 0
2, 67392, Note_on_c, 0, 70, 110
2, 67536, Note_off_c, 0, 70, 0
2, 67536, Note_on_c, 0, 65, 110
2, 67584, Note_off_c, 0, 65, 0
2, 67584, Note_on_c, 0, 65, 110
2, 67776, Note_off_c, 0, 65, 0
2, 67776, Note_on_c, 0, 67, 110
2, 67968, Note_off_c, 0, 67, 0
2, 67968, Note_on_c, 0, 79, 110
2, 67980, Note_off_c, 0, 79, 0
2, 67980, Note_on_c, 0, 77, 110
2, 67992, Note_off_c, 0, 77, 0
2, 67992, Note_on_c, 0, 79, 110
2, 68040, Note_off_c, 0, 79, 0
2, 68040, Note_on_c, 0, 80, 110
2, 68064, Note_off_c, 0, 80, 0
2, 68064, Note_on_c, 0, 79, 110
2, 68136, Note_off_c, 0, 79, 0
2, 68136, Note_on_c, 0, 77, 110
2, 68160, Note_off_c, 0, 77, 0
2, 68160, Note_on_c, 0, 79, 110
2, 68232, Note_off_c, 0, 79, 0
2, 68232, Note_on_c, 0, 75, 110
2, 68256, Note_off_c, 0, 75, 0
2, 68256, Note_on_c, 0, 74, 110
2, 68268, Note_off_c, 0, 74, 0
2, 68268, Note_on_c, 0, 75, 110
2, 68280, Note_off_c, 0, 75, 0
2, 68280, Note_on_c, 0, 74, 110
2, 68328, Note_off_c, 0, 74, 0
2, 68328, Note_on_c, 0, 72, 110
2, 68352, Note_off_c, 0, 72, 0
2, 68352, Note_on_c, 0, 77, 110
2, 68364, Note_off_c, 0, 77, 0
2, 68364, Note_on_c, 0, 75, 110
2, 68376, Note_off_c, 0, 75, 0
2, 68376, Note_on_c, 0, 77, 110
2, 68424, Note_off_c, 0, 77, 0
2, 68424, Note_on_c, 0, 79, 110
2, 68448, Note_off_c, 0, 79, 0
2, 68448, Note_on_c, 0, 77, 110
2, 68520, Note_off_c, 0, 77, 0
2, 68520, Note_on_c, 0, 75, 110
2, 68544, Note_off_c, 0, 75, 0
2, 68544, Note_on_c, 0, 77, 110
2, 68616, Note_off_c, 0, 77, 0
2, 68616, Note_on_c, 0, 74, 110
2, 68640, Note_off_c, 0, 74, 0
2, 68640, Note_on_c, 0, 72, 110
2, 68652, Note_off_c, 0, 72, 0
2, 68652, Note_on_c, 0, 74, 110
2, 68664, Note_off_c, 0, 74, 0
2, 68664, Note_on_c, 0, 72, 110
2, 68712, Note_off_c, 0, 72, 0
2, 68712, Note_on_c, 0, 70, 110
2, 68736, Note_off_c, 0, 70, 0
2, 68736, Note_on_c, 0, 75, 110
2, 68808, Note_off_c, 0, 75, 0
2, 68808, Note_on_c, 0, 77, 110
2, 68832, Note_off_c, 0, 77, 0
2, 68832, Note_on_c, 0, 75, 110
2, 68904, Note_off_c, 0, 75, 0
2, 68904, Note_on_c, 0, 74, 110
2, 68928, Note_off_c, 0, 74, 0
2, 68928, Note_on_c, 0, 75, 110
2, 69192, Note_off_c, 0, 75, 0
2, 69192, Note_on_c, 0, 77, 110
2, 69216, Note_off_c, 0, 77, 0
2, 69216, Note_on_c, 0, 75, 110
2, 69288, Note_off_c, 0, 75, 0
2, 69288, Note_on_c, 0, 74, 110
2, 69312, Note_off_c, 0, 74, 0
2, 69312, Note_on_c, 0, 75, 110
2, 69576, Note_off_c, 0, 75, 0
2, 69576, Note_on_c, 0, 77, 110
2, 69600, Note_off_c, 0, 77, 0
2, 69600, Note_on_c, 0, 75, 110
2, 69672, Note_off_c, 0, 75, 0
2, 69672, Note_on_c, 0, 74, 110
2, 69696, Note_off_c, 0, 74, 0
2, 69696, Note_on_c, 0, 75, 110
2, 69960, Note_off_c, 0, 75, 0
2, 69960, Note_on_c, 0, 77, 110
2, 69984, Note_off_c, 0, 77, 0
2, 69984, Note_on_c, 0, 75, 110
2, 70056, Note_off_c, 0, 75, 0
2, 70056, Note_on_c, 0, 74, 110
2, 70080, Note_off_c, 0, 74, 0
2, 70080, Note_on_c, 0, 75, 110
2, 70344, Note_off_c, 0, 75, 0
2, 70344, Note_on_c, 0, 75, 110
2, 70368, Note_off_c, 0, 75, 0
2, 70368, Note_on_c, 0, 74, 110
2, 70440, Note_off_c, 0, 74, 0
2, 70440, Note_on_c, 0, 72, 110
2, 70464, Note_off_c, 0, 72, 0
2, 70464, Note_on_c, 0, 74, 110
2, 70848, Note_off_c, 0, 74, 0
2, 70848, Note_on_c, 0, 72, 110
2, 71112, Note_off_c, 0, 72, 0
2, 71112, Note_on_c, 0, 72, 110
2, 71136, Note_off_c, 0, 72, 0
2, 71136, Note_on_c, 0, 74, 110
2, 71208, Note_off_c, 0, 74, 0
2, 71208, Note_on_c, 0, 75, 110
2, 71232, Note_off_c, 0, 75, 0
2, 71232, Note_on_c, 0, 77, 110
2, 71616, Note_off_c, 0, 77, 0
2, 71616, Note_on_c, 0, 67, 110
2, 71808, Note_off_c, 0, 67, 0
2, 71808, Note_on_c, 0, 72, 110
2, 72000, Note_off_c, 0, 72, 0
2, 72000, Note_on_c, 0, 70, 110
2, 72192, Note_off_c, 0, 70, 0
2, 72192, Note_on_c, 0, 72, 110
2, 72576, Note_off_c, 0, 72, 0
2, 72576, Note_on_c, 0, 74, 110
2, 72768, Note_off_c, 0, 74, 0
2, 72912, Note_on_c, 0, 65, 110
2, 72960, Note_off_c, 0, 65, 0
2, 72960, Note_on_c, 0, 77, 110
2, 73536, Note_off_c, 0, 77, 0
2, 73680, Note_on_c, 0, 62, 110
2, 73728, Note_off_c, 0, 62, 0
2, 73728, Note_on_c, 0, 67, 110
2, 74112, Note_off_c, 0, 67, 0
2, 74112, Note_on_c, 0, 68, 110
2, 74184, Note_off_c, 0, 68, 0
2, 74184, Note_on_c, 0, 70, 110
2, 74208, Note_off_c, 0, 70, 0
2, 74208, Note_on_c, 0, 68, 110
2, 74280, Note_off_c, 0, 68, 0
2, 74280, Note_on_c, 0, 67, 110
2, 74304, Note_off_c, 0, 67, 0
2, 74304, Note_on_c, 0, 70, 110
2, 75024, Note_off_c, 0, 70, 0
2, 75048, Note_on_c, 0, 70, 110
2, 75072, Note_off_c, 0, 70, 0
2, 75072, Note_on_c, 0, 68, 110
2, 75084, Note_off_c, 0, 68, 0
2, 75084, Note_on_c, 0, 67, 110
2, 75096, Note_off_c, 0, 67, 0
2, 75096, Note_on_c, 0, 68, 110
2, 75216, Note_off_c, 0, 68, 0
2, 75240, Note_on_c, 0, 63, 110
2, 75264, Note_off_c, 0, 63, 0
2, 75264, Note_on_c, 0, 67, 110
2, 75456, Note_off_c, 0, 67, 0
2, 75456, Note_on_c, 0, 62, 110
2, 75648, Note_off_c, 0, 62, 0
2, 75648, Note_on_c, 0, 68, 110
2, 75720, Note_off_c, 0, 68, 0
2, 75720, Note_on_c, 0, 70, 110
2, 75744, Note_off_c, 0, 70, 0
2, 75744, Note_on_c, 0, 68, 110
2, 75816, Note_off_c, 0, 68, 0
2, 75816, Note_on_c, 0, 67, 110
2, 75840, Note_off_c, 0, 67, 0
2, 75840, Note_on_c, 0, 68, 110
2, 75912, Note_off_c, 0, 68, 0
2, 75912, Note_on_c, 0, 77, 110
2, 75936, Note_off_c, 0, 77, 0
2, 75936, Note_on_c, 0, 70, 110
2, 76008, Note_off_c, 0, 70, 0
2, 76008, Note_on_c, 0, 68, 110
2, 76032, Note_off_c, 0, 68, 0
2, 76032, Note_on_c, 0, 67, 110
2, 76104, Note_off_c, 0, 67, 0
2, 76104, Note_on_c, 0, 68, 110
2, 76128, Note_off_c, 0, 68, 0
2, 76128, Note_on_c, 0, 67, 110
2, 76200, Note_off_c, 0, 67, 0
2, 76200, Note_on_c, 0, 65, 110
2, 76224, Note_off_c, 0, 65, 0
2, 76224, Note_on_c, 0, 67, 110
2, 76296, Note_off_c, 0, 67, 0
2, 76296, Note_on_c, 0, 75, 110
2, 76320, Note_off_c, 0, 75, 0
2, 76320, Note_on_c, 0, 67, 110
2, 76392, Note_off_c, 0, 67, 0
2, 76392, Note_on_c, 0, 65, 110
2, 76416, Note_off_c, 0, 65, 0
2, 76416, Note_on_c, 0, 63, 110
2, 76488, Note_off_c, 0, 63, 0
2, 76488, Note_on_c, 0, 65, 110
2, 76512, Note_off_c, 0, 65, 0
2, 76512, Note_on_c, 0, 63, 110
2, 76584, Note_off_c, 0, 63, 0
2, 76584, Note_on_c, 0, 62, 110
2, 76608, Note_off_c, 0, 62, 0
2, 76608, Note_on_c, 0, 63, 110
2, 76680, Note_off_c, 0, 63, 0
2, 76680, Note_on_c, 0, 72, 110
2, 76704, Note_off_c, 0, 72, 0
2, 76704, Note_on_c, 0, 65, 110
2, 76776, Note_off_c, 0, 65, 0
2, 76776, Note_on_c, 0, 63, 110
2, 76800, Note_off_c, 0, 63, 0
2, 76800, Note_on_c, 0, 62, 110
2, 76872, Note_off_c, 0, 62, 0
2, 76872, Note_on_c, 0, 63, 110
2, 76896, Note_off_c, 0, 63, 0
2, 76896, Note_on_c, 0, 62, 110
2, 76968, Note_off_c, 0, 62, 0
2, 76968, Note_on_c, 0, 60, 110
2, 76992, Note_off_c, 0, 60, 0
2, 76992, Note_on_c, 0, 62, 110
2, 77064, Note_off_c, 0, 62, 0
2, 77064, Note_on_c, 0, 58, 110
2, 77088, Note_off_c, 0, 58, 0
2, 77088, Note_on_c, 0, 62, 110
2, 77160, Note_off_c, 0, 62, 0
2, 77160, Note_on_c, 0, 65, 110
2, 77184, Note_off_c, 0, 65, 0
2, 77184, Note_on_c, 0, 70, 110
2, 77256, Note_off_c, 0, 70, 0
2, 77256, Note_on_c, 0, 72, 110
2, 77280, Note_off_c, 0, 72, 0
2, 77280, Note_on_c, 0, 70, 110
2, 77352, Note_off_c, 0, 70, 0
2, 77352, Note_on_c, 0, 68, 110
2, 77376, Note_off_c, 0, 68, 0
2, 77376, Note_on_c, 0, 70, 110
2, 77448, Note_off_c, 0, 70, 0
2, 77448, Note_on_c, 0, 63, 110
2, 77472, Note_off_c, 0, 63, 0
2, 77472, Note_on_c, 0, 67, 110
2, 77544, Note_off_c, 0, 67, 0
2, 77544, Note_on_c, 0, 70, 110
2, 77568, Note_off_c, 0, 70, 0
2, 77568, Note_on_c, 0, 75, 110
2, 77688, Note_off_c, 0, 75, 0
2, 77688, Note_on_c, 0, 74, 110
2, 77712, Note_off_c, 0, 74, 0
2, 77712, Note_on_c, 0, 72, 110
2, 77736, Note_off_c, 0, 72, 0
2, 77736, Note_on_c, 0, 70, 110
2, 77760, Note_off_c, 0, 70, 0
2, 77760, Note_on_c, 0, 65, 110
2, 78048, Note_off_c, 0, 65, 0
2, 78048, Note_on_c, 0, 63, 110
2, 78144, Note_off_c, 0, 63, 0
2, 78144, Note_on_c, 0, 60, 110
2, 78240, Note_off_c, 0, 60, 0
2, 78240, Note_on_c, 0, 58, 110
2, 78336, Note_off_c, 0, 58, 0
2, 78336, Note_on_c, 0, 58, 110
2, 78876, Note_off_c, 0, 58, 0
2, 80640, Note_on_c, 0, 63, 93
2, 80736, Note_off_c, 0, 63, 0
2, 80736, Note_on_c, 0, 65, 93
2, 80832, Note_off_c, 0, 65, 0
2, 80832, Note_on_c, 0, 67, 93
2, 80928, Note_off_c, 0, 67, 0
2, 80928, Note_on_c, 0, 68, 93
2, 81024, Note_off_c, 0, 68, 0
2, 81024, Note_on_c, 0, 70, 93
2, 81120, Note_off_c, 0, 70, 0
2, 81120, Note_on_c, 0, 58, 93
2, 81216, Note_off_c, 0, 58, 0
2, 81216, Note_on_c, 0, 63, 93
2, 81312, Note_off_c, 0, 63, 0
2, 81312, Note_on_c, 0, 65, 93
2, 81408, Note_off_c, 0, 65, 0
2, 81408, Note_on_c, 0, 67, 93
2, 81504, Note_off_c, 0, 67, 0
2, 81504, Note_on_c, 0, 65, 93
2, 81600, Note_off_c, 0, 65, 0
2, 81600, Note_on_c, 0, 63, 93
2, 81696, Note_off_c, 0, 63, 0
2, 81696, Note_on_c, 0, 62, 93
2, 81792, Note_off_c, 0, 62, 0
2, 81792, Note_on_c, 0, 63, 93
2, 81888, Note_off_c, 0, 63, 0
2, 81888, Note_on_c, 0, 60, 93
2, 81984, Note_off_c, 0, 60, 0
2, 81984, Note_on_c, 0, 65, 93
2, 82080, Note_off_c, 0, 65, 0
2, 82080, Note_on_c, 0, 63, 93
2, 82176, Note_off_c, 0, 63, 0
2, 82176, Note_on_c, 0, 62, 93
2, 82368, Note_off_c, 0, 62, 0
2, 82368, Note_on_c, 0, 70, 93
2, 82752, Note_off_c, 0, 70, 0
2, 82752, Note_on_c, 0, 68, 93
2, 83136, Note_off_c, 0, 68, 0
2, 83136, Note_on_c, 0, 67, 93
2, 83424, Note_off_c, 0, 67, 0
2, 83424, Note_on_c, 0, 60, 93
2, 83520, Note_off_c, 0, 60, 0
2, 83520, Note_on_c, 0, 65, 93
2, 83616, Note_off_c, 0, 65, 0
2, 83616, Note_on_c, 0, 63, 93
2, 83712, Note_off_c, 0, 63, 0
2, 83712, Note_on_c, 0, 70, 93
2, 84096, Note_off_c, 0, 70, 0
2, 84096, Note_on_c, 0, 67, 93
2, 84288, Note_off_c, 0, 67, 0
2, 84288, Note_on_c, 0, 68, 93
2, 84480, Note_off_c, 0, 68, 0
2, 84480, Note_on_c, 0, 67, 93
2, 84864, Note_off_c, 0, 67, 0
2, 84864, Note_on_c, 0, 65, 93
2, 85248, Note_off_c, 0, 65, 0
2, 85248, Note_on_c, 0, 75, 93
2, 85440, Note_off_c, 0, 75, 0
2, 85440, Note_on_c, 0, 70, 93
2, 85728, Note_off_c, 0, 70, 0
2, 85728, Note_on_c, 0, 68, 93
2, 85824, Note_off_c, 0, 68, 0
2, 85824, Note_on_c, 0, 67, 93
2, 85920, Note_off_c, 0, 67, 0
2, 85920, Note_on_c, 0, 68, 93
2, 86016, Note_off_c, 0, 68, 0
2, 86016, Note_on_c, 0, 63, 93
2, 86208, Note_off_c, 0, 63, 0
2, 86208, Note_on_c, 0, 70, 93
2, 86592, Note_off_c, 0, 70, 0
2, 86592, Note_on_c, 0, 69, 93
2, 86784, Note_off_c, 0, 69, 0
2, 86784, Note_on_c, 0, 70, 93
2, 86880, Note_off_c, 0, 70, 0
2, 86880, Note_on_c, 0, 72, 93
2, 86976, Note_off_c, 0, 72, 0
2, 86976, Note_on_c, 0, 74, 93
2, 87072, Note_off_c, 0, 74, 0
2, 87072, Note_on_c, 0, 75, 93
2, 87168, Note_off_c, 0, 75, 0
2, 87168, Note_on_c, 0, 77, 93
2, 87360, Note_off_c, 0, 77, 0
2, 87360, Note_on_c, 0, 68, 93
2, 87744, Note_off_c, 0, 68, 0
2, 87744, Note_on_c, 0, 67, 93
2, 87840, Note_off_c, 0, 67, 0
2, 87840, Note_on_c, 0, 68, 93
2, 87936, Note_off_c, 0, 68, 0
2, 87936, Note_on_c, 0, 70, 93
2, 88032, Note_off_c, 0, 70, 0
2, 88032, Note_on_c, 0, 72, 93
2, 88128, Note_off_c, 0, 72, 0
2, 88128, Note_on_c, 0, 74, 93
2, 88320, Note_off_c, 0, 74, 0
2, 88320, Note_on_c, 0, 67, 93
2, 88512, Note_off_c, 0, 67, 0
2, 88512, Note_on_c, 0, 65, 93
2, 88896, Note_off_c, 0, 65, 0
2, 88896, Note_on_c, 0, 75, 93
2, 89280, Note_off_c, 0, 75, 0
2, 89280, Note_on_c, 0, 65, 93
2, 89472, Note_off_c, 0, 65, 0
2, 89472, Note_on_c, 0, 75, 93
2, 89856, Note_off_c, 0, 75, 0
2, 89856, Note_on_c, 0, 62, 93
2, 90048, Note_off_c, 0, 62, 0
2, 90048, Note_on_c, 0, 63, 93
2, 90240, Note_off_c, 0, 63, 0
2, 90240, Note_on_c, 0, 65, 93
2, 90624, Note_off_c, 0, 65, 0
2, 90624, Note_on_c, 0, 63, 93
2, 90720, Note_off_c, 0, 63, 0
2, 90720, Note_on_c, 0, 75, 93
2, 90816, Note_off_c, 0, 75, 0
2, 90816, Note_on_c, 0, 74, 93
2, 90912, Note_off_c, 0, 74, 0
2, 90912, Note_on_c, 0, 72, 93
2, 91008, Note_off_c, 0, 72, 0
2, 91008, Note_on_c, 0, 74, 93
2, 91104, Note_off_c, 0, 74, 0
2, 91104, Note_on_c, 0, 70, 93
2, 91200, Note_off_c, 0, 70, 0
2, 91200, Note_on_c, 0, 79, 93
2, 91584, Note_off_c, 0, 79, 0
2, 91584, Note_on_c, 0, 68, 93
2, 91680, Note_off_c, 0, 68, 0
2, 91680, Note_on_c, 0, 67, 93
2, 91776, Note_off_c, 0, 67, 0
2, 91776, Note_on_c, 0, 74, 93
2, 92352, Note_off_c, 0, 74, 0
2, 92352, Note_on_c, 0, 72, 93
2, 92448, Note_off_c, 0, 72, 0
2, 92448, Note_on_c, 0, 70, 93
2, 92544, Note_off_c, 0, 70, 0
2, 92544, Note_on_c, 0, 72, 93
2, 92928, Note_off_c, 0, 72, 0
2, 92928, Note_on_c, 0, 67, 93
2, 93312, Note_off_c, 0, 67, 0
2, 93312, Note_on_c, 0, 77, 93
2, 93792, Note_off_c, 0, 77, 0
2, 93792, Note_on_c, 0, 69, 93
2, 93888, Note_off_c, 0, 69, 0
2, 93888, Note_on_c, 0, 67, 93
2, 94080, Note_off_c, 0, 67, 0
2, 94080, Note_on_c, 0, 65, 93
2, 94560, Note_off_c, 0, 65, 0
2, 94560, Note_on_c, 0, 58, 93
2, 94656, Note_off_c, 0, 58, 0
2, 94656, Note_on_c, 0, 60, 93
2, 94752, Note_off_c, 0, 60, 0
2, 94752, Note_on_c, 0, 62, 93
2, 94848, Note_off_c, 0, 62, 0
2, 94848, Note_on_c, 0, 63, 93
2, 94944, Note_off_c, 0, 63, 0
2, 94944, Note_on_c, 0, 62, 93
2, 95040, Note_off_c, 0, 62, 0
2, 95040, Note_on_c, 0, 75, 93
2, 95232, Note_off_c, 0, 75, 0
2, 95232, Note_on_c, 0, 70, 93
2, 95424, Note_off_c, 0, 70, 0
2, 95424, Note_on_c, 0, 79, 93
2, 95616, Note_off_c, 0, 79, 0
2, 95616, Note_on_c, 0, 70, 93
2, 95712, Note_off_c, 0, 70, 0
2, 95712, Note_on_c, 0, 65, 93
2, 95904, Note_off_c, 0, 65, 0
2, 95904, Note_on_c, 0, 62, 93
2, 96000, Note_off_c, 0, 62, 0
2, 96000, Note_on_c, 0, 75, 93
2, 96096, Note_off_c, 0, 75, 0
2, 96096, Note_on_c, 0, 79, 93
2, 96192, Note_off_c, 0, 79, 0
2, 96192, Note_on_c, 0, 77, 93
2, 96288, Note_off_c, 0, 77, 0
2, 96288, Note_on_c, 0, 75, 93
2, 96384, Note_off_c, 0, 75, 0
2, 96384, Note_on_c, 0, 77, 93
2, 96480, Note_off_c, 0, 77, 0
2, 96480, Note_on_c, 0, 74, 93
2, 96576, Note_off_c, 0, 74, 0
2, 96576, Note_on_c, 0, 79, 93
2, 96768, Note_off_c, 0, 79, 0
2, 96768, Note_on_c, 0, 68, 93
2, 96864, Note_off_c, 0, 68, 0
2, 96864, Note_on_c, 0, 67, 93
2, 96960, Note_off_c, 0, 67, 0
2, 96960, Note_on_c, 0, 68, 93
2, 97056, Note_off_c, 0, 68, 0
2, 97056, Note_on_c, 0, 65, 93
2, 97152, Note_off_c, 0, 65, 0
2, 97152, Note_on_c, 0, 67, 93
2, 97344, Note_off_c, 0, 67, 0
2, 97344, Note_on_c, 0, 68, 93
2, 97728, Note_off_c, 0, 68, 0
2, 97728, Note_on_c, 0, 75, 93
2, 97824, Note_off_c, 0, 75, 0
2, 97824, Note_on_c, 0, 74, 93
2, 97920, Note_off_c, 0, 74, 0
2, 97920, Note_on_c, 0, 72, 93
2, 98304, Note_off_c, 0, 72, 0
2, 98304, Note_on_c, 0, 65, 93
2, 98400, Note_off_c, 0, 65, 0
2, 98400, Note_on_c, 0, 62, 93
2, 98496, Note_off_c, 0, 62, 0
2, 98496, Note_on_c, 0, 67, 93
2, 98592, Note_off_c, 0, 67, 0
2, 98592, Note_on_c, 0, 65, 93
2, 98688, Note_off_c, 0, 65, 0
2, 98688, Note_on_c, 0, 68, 93
2, 99072, Note_off_c, 0, 68, 0
2, 99072, Note_on_c, 0, 67, 93
2, 99264, Note_off_c, 0, 67, 0
2, 99264, Note_on_c, 0, 63, 93
2, 99456, Note_off_c, 0, 63, 0
2, 99456, Note_on_c, 0, 62, 93
2, 99648, Note_off_c, 0, 62, 0
2, 99648, Note_on_c, 0, 75, 93
2, 100032, Note_off_c, 0, 75, 0
2, 100032, Note_on_c, 0, 70, 93
2, 100416, Note_off_c, 0, 70, 0
2, 100416, Note_on_c, 0, 77, 93
2, 100800, Note_off_c, 0, 77, 0
2, 100800, Note_on_c, 0, 75, 93
2, 101184, Note_off_c, 0, 75, 0
2, 101184, Note_on_c, 0, 74, 93
2, 101376, Note_off_c, 0, 74, 0
2, 101376, Note_on_c, 0, 72, 93
2, 101760, Note_off_c, 0, 72, 0
2, 101760, Note_on_c, 0, 70, 93
2, 102240, Note_off_c, 0, 70, 0
2, 102240, Note_on_c, 0, 70, 93
2, 102336, Note_off_c, 0, 70, 0
2, 102336, Note_on_c, 0, 65, 93
2, 102528, Note_off_c, 0, 65, 0
2, 102528, Note_on_c, 0, 63, 93
2, 102624, Note_off_c, 0, 63, 0
2, 102624, Note_on_c, 0, 65, 93
2, 102720, Note_off_c, 0, 65, 0
2, 102720, Note_on_c, 0, 67, 93
2, 102816, Note_off_c, 0, 67, 0
2, 102816, Note_on_c, 0, 77, 93
2, 102912, Note_off_c, 0, 77, 0
2, 102912, Note_on_c, 0, 58, 93
2, 103104, Note_off_c, 0, 58, 0
2, 103104, Note_on_c, 0, 67, 93
2, 103296, Note_off_c, 0, 67, 0
2, 103296, Note_on_c, 0, 65, 93
2, 103488, Note_off_c, 0, 65, 0
2, 103488, Note_on_c, 0, 77, 93
2, 103680, Note_off_c, 0, 77, 0
2, 103680, Note_on_c, 0, 70, 93
2, 103872, Note_off_c, 0, 70, 0
2, 103872, Note_on_c, 0, 72, 93
2, 104064, Note_off_c, 0, 72, 0
2, 104064, Note_on_c, 0, 70, 93
2, 104448, Note_off_c, 0, 70, 0
2, 104448, Note_on_c, 0, 68, 93
2, 104832, Note_off_c, 0, 68, 0
2, 104832, Note_on_c, 0, 67, 93
2, 105216, Note_off_c, 0, 67, 0
2, 105216, Note_on_c, 0, 65, 93
2, 105600, Note_off_c, 0, 65, 0
2, 105600, Note_on_c, 0, 63, 93
2, 105888, Note_off_c, 0, 63, 0
2, 105888, Note_on_c, 0, 77, 93
2, 105984, Note_off_c, 0, 77, 0
2, 105984, Note_on_c, 0, 65, 93
2, 106176, Note_off_c, 0, 65, 0
2, 106176, Note_on_c, 0, 67, 93
2, 106368, Note_off_c, 0, 67, 0
2, 106368, Note_on_c, 0, 70, 93
2, 106752, Note_off_c, 0, 70, 0
2, 106752, Note_on_c, 0, 63, 110
2, 107040, Note_off_c, 0, 63, 0
2, 110304, Note_on_c, 0, 63, 93
2, 110352, Note_off_c, 0, 63, 0
2, 110352, Note_on_c, 0, 62, 93
2, 110400, Note_off_c, 0, 62, 0
2, 110400, Note_on_c, 0, 63, 93
2, 110448, Note_off_c, 0, 63, 0
2, 110448, Note_on_c, 0, 65, 93
2, 110496, Note_off_c, 0, 65, 0
2, 110496, Note_on_c, 0, 67, 93
2, 110544, Note_off_c, 0, 67, 0
2, 110544, Note_on_c, 0, 65, 93
2, 110592, Note_off_c, 0, 65, 0
2, 110592, Note_on_c, 0, 67, 93
2, 110640, Note_off_c, 0, 67, 0
2, 110640, Note_on_c, 0, 68, 93
2, 110688, Note_off_c, 0, 68, 0
2, 110688, Note_on_c, 0, 67, 93
2, 110736, Note_off_c, 0, 67, 0
2, 110736, Note_on_c, 0, 68, 93
2, 110784, Note_off_c, 0, 68, 0
2, 110784, Note_on_c, 0, 65, 93
2, 110832, Note_off_c, 0, 65, 0
2, 110832, Note_on_c, 0, 63, 93
2, 110880, Note_off_c, 0, 63, 0
2, 110880, Note_on_c, 0, 65, 93
2, 110928, Note_off_c, 0, 65, 0
2, 110928, Note_on_c, 0, 67, 93
2, 110976, Note_off_c, 0, 67, 0
2, 110976, Note_on_c, 0, 65, 93
2, 111024, Note_off_c, 0, 65, 0
2, 111024, Note_on_c, 0, 67, 93
2, 111072, Note_off_c, 0, 67, 0
2, 111072, Note_on_c, 0, 68, 93
2, 111120, Note_off_c, 0, 68, 0
2, 111120, Note_on_c, 0, 67, 93
2, 111168, Note_off_c, 0, 67, 0
2, 111168, Note_on_c, 0, 68, 93
2, 111216, Note_off_c, 0, 68, 0
2, 111216, Note_on_c, 0, 70, 93
2, 111264, Note_off_c, 0, 70, 0
2, 111264, Note_on_c, 0, 68, 93
2, 111312, Note_off_c, 0, 68, 0
2, 111312, Note_on_c, 0, 70, 93
2, 111360, Note_off_c, 0, 70, 0
2, 111360, Note_on_c, 0, 67, 93
2, 111456, Note_off_c, 0, 67, 0
2, 111456, Note_on_c, 0, 67, 93
2, 111648, Note_off_c, 0, 67, 0
2, 111648, Note_on_c, 0, 65, 93
2, 111744, Note_off_c, 0, 65, 0
2, 111744, Note_on_c, 0, 70, 93
2, 111840, Note_off_c, 0, 70, 0
2, 111840, Note_on_c, 0, 69, 93
2, 111936, Note_off_c, 0, 69, 0
2, 111936, Note_on_c, 0, 67, 93
2, 112320, Note_off_c, 0, 67, 0
2, 112320, Note_on_c, 0, 65, 93
2, 112608, Note_off_c, 0, 65, 0
2, 112608, Note_on_c, 0, 70, 93
2, 112656, Note_off_c, 0, 70, 0
2, 112656, Note_on_c, 0, 72, 93
2, 112704, Note_off_c, 0, 72, 0
2, 112704, Note_on_c, 0, 70, 93
2, 112752, Note_off_c, 0, 70, 0
2, 112752, Note_on_c, 0, 68, 93
2, 112800, Note_off_c, 0, 68, 0
2, 112800, Note_on_c, 0, 67, 93
2, 112848, Note_off_c, 0, 67, 0
2, 112848, Note_on_c, 0, 68, 93
2, 112896, Note_off_c, 0, 68, 0
2, 112896, Note_on_c, 0, 67, 93
2, 112944, Note_off_c, 0, 67, 0
2, 112944, Note_on_c, 0, 65, 93
2, 112992, Note_off_c, 0, 65, 0
2, 112992, Note_on_c, 0, 73, 93
2, 113184, Note_off_c, 0, 73, 0
2, 113184, Note_on_c, 0, 68, 93
2, 113232, Note_off_c, 0, 68, 0
2, 113232, Note_on_c, 0, 67, 93
2, 113280, Note_off_c, 0, 67, 0
2, 113280, Note_on_c, 0, 68, 93
2, 113328, Note_off_c, 0, 68, 0
2, 113328, Note_on_c, 0, 67, 93
2, 113376, Note_off_c, 0, 67, 0
2, 113376, Note_on_c, 0, 65, 93
2, 113424, Note_off_c, 0, 65, 0
2, 113424, Note_on_c, 0, 67, 93
2, 113472, Note_off_c, 0, 67, 0
2, 113472, Note_on_c, 0, 65, 93
2, 113520, Note_off_c, 0, 65, 0
2, 113520, Note_on_c, 0, 63, 93
2, 113568, Note_off_c, 0, 63, 0
2, 113568, Note_on_c, 0, 72, 93
2, 113760, Note_off_c, 0, 72, 0
2, 113760, Note_on_c, 0, 67, 93
2, 114048, Note_off_c, 0, 67, 0
2, 114048, Note_on_c, 0, 68, 93
2, 114144, Note_off_c, 0, 68, 0
2, 114144, Note_on_c, 0, 67, 93
2, 114240, Note_off_c, 0, 67, 0
2, 114240, Note_on_c, 0, 65, 93
2, 114528, Note_off_c, 0, 65, 0
2, 114528, Note_on_c, 0, 74, 93
2, 114864, Note_off_c, 0, 74, 0
2, 114864, Note_on_c, 0, 67, 93
2, 114912, Note_off_c, 0, 67, 0
2, 114912, Note_on_c, 0, 65, 93
2, 115008, Note_off_c, 0, 65, 0
2, 115008, Note_on_c, 0, 67, 93
2, 115104, Note_off_c, 0, 67, 0
2, 115104, Note_on_c, 0, 68, 93
2, 115392, Note_off_c, 0, 68, 0
2, 115392, Note_on_c, 0, 67, 93
2, 115968, Note_off_c, 0, 67, 0
2, 115968, Note_on_c, 0, 67, 93
2, 116016, Note_off_c, 0, 67, 0
2, 116016, Note_on_c, 0, 67, 93
2, 116064, Note_off_c, 0, 67, 0
2, 116064, Note_on_c, 0, 65, 93
2, 116112, Note_off_c, 0, 65, 0
2, 116112, Note_on_c, 0, 64, 93
2, 116160, Note_off_c, 0, 64, 0
2, 116160, Note_on_c, 0, 65, 93
2, 116208, Note_off_c, 0, 65, 0
2, 116208, Note_on_c, 0, 67, 93
2, 116256, Note_off_c, 0, 67, 0
2, 116256, Note_on_c, 0, 68, 93
2, 116304, Note_off_c, 0, 68, 0
2, 116304, Note_on_c, 0, 67, 93
2, 116352, Note_off_c, 0, 67, 0
2, 116352, Note_on_c, 0, 68, 93
2, 116400, Note_off_c, 0, 68, 0
2, 116400, Note_on_c, 0, 70, 93
2, 116448, Note_off_c, 0, 70, 0
2, 116448, Note_on_c, 0, 74, 93
2, 116544, Note_off_c, 0, 74, 0
2, 116544, Note_on_c, 0, 67, 93
2, 116592, Note_off_c, 0, 67, 0
2, 116592, Note_on_c, 0, 65, 93
2, 116640, Note_off_c, 0, 65, 0
2, 116640, Note_on_c, 0, 67, 93
2, 116688, Note_off_c, 0, 67, 0
2, 116688, Note_on_c, 0, 69, 93
2, 116736, Note_off_c, 0, 69, 0
2, 116736, Note_on_c, 0, 67, 93
2, 116784, Note_off_c, 0, 67, 0
2, 116784, Note_on_c, 0, 69, 93
2, 116832, Note_off_c, 0, 69, 0
2, 116832, Note_on_c, 0, 70, 93
2, 117024, Note_off_c, 0, 70, 0
2, 117024, Note_on_c, 0, 75, 93
2, 117216, Note_off_c, 0, 75, 0
2, 117216, Note_on_c, 0, 65, 93
2, 117312, Note_off_c, 0, 65, 0
2, 117312, Note_on_c, 0, 69, 93
2, 117408, Note_off_c, 0, 69, 0
2, 117408, Note_on_c, 0, 72, 93
2, 117456, Note_off_c, 0, 72, 0
2, 117456, Note_on_c, 0, 70, 93
2, 117504, Note_off_c, 0, 70, 0
2, 117504, Note_on_c, 0, 72, 93
2, 117552, Note_off_c, 0, 72, 0
2, 117552, Note_on_c, 0, 74, 93
2, 117600, Note_off_c, 0, 74, 0
2, 117600, Note_on_c, 0, 72, 93
2, 117648, Note_off_c, 0, 72, 0
2, 117648, Note_on_c, 0, 74, 93
2, 117696, Note_off_c, 0, 74, 0
2, 117696, Note_on_c, 0, 70, 93
2, 117888, Note_off_c, 0, 70, 0
2, 117888, Note_on_c, 0, 77, 93
2, 117936, Note_off_c, 0, 77, 0
2, 117936, Note_on_c, 0, 79, 93
2, 117984, Note_off_c, 0, 79, 0
2, 117984, Note_on_c, 0, 80, 93
2, 118032, Note_off_c, 0, 80, 0
2, 118032, Note_on_c, 0, 79, 93
2, 118080, Note_off_c, 0, 79, 0
2, 118080, Note_on_c, 0, 77, 93
2, 118272, Note_off_c, 0, 77, 0
2, 118272, Note_on_c, 0, 75, 93
2, 118368, Note_off_c, 0, 75, 0
2, 118368, Note_on_c, 0, 79, 93
2, 118416, Note_off_c, 0, 79, 0
2, 118416, Note_on_c, 0, 81, 93
2, 118464, Note_off_c, 0, 81, 0
2, 118464, Note_on_c, 0, 79, 93
2, 118512, Note_off_c, 0, 79, 0
2, 118512, Note_on_c, 0, 81, 93
2, 118560, Note_off_c, 0, 81, 0
2, 118560, Note_on_c, 0, 82, 93
2, 118608, Note_off_c, 0, 82, 0
2, 118608, Note_on_c, 0, 81, 93
2, 118656, Note_off_c, 0, 81, 0
2, 118656, Note_on_c, 0, 79, 93
2, 118896, Note_off_c, 0, 79, 0
2, 118896, Note_on_c, 0, 79, 93
2, 118944, Note_off_c, 0, 79, 0
2, 118944, Note_on_c, 0, 77, 93
2, 118992, Note_off_c, 0, 77, 0
2, 118992, Note_on_c, 0, 75, 93
2, 119040, Note_off_c, 0, 75, 0
2, 119040, Note_on_c, 0, 74, 93
2, 119088, Note_off_c, 0, 74, 0
2, 119088, Note_on_c, 0, 72, 93
2, 119136, Note_off_c, 0, 72, 0
2, 119136, Note_on_c, 0, 74, 93
2, 119184, Note_off_c, 0, 74, 0
2, 119184, Note_on_c, 0, 75, 93
2, 119232, Note_off_c, 0, 75, 0
2, 119232, Note_on_c, 0, 72, 93
2, 119424, Note_off_c, 0, 72, 0
2, 119424, Note_on_c, 0, 74, 93
2, 119712, Note_off_c, 0, 74, 0
2, 121248, Note_on_c, 0, 63, 93
2, 121440, Note_off_c, 0, 63, 0
2, 121440, Note_on_c, 0, 62, 93
2, 121536, Note_off_c, 0, 62, 0
2, 121536, Note_on_c, 0, 67, 93
2, 121728, Note_off_c, 0, 67, 0
2, 121728, Note_on_c, 0, 65, 93
2, 121824, Note_off_c, 0, 65, 0
2, 121824, Note_on_c, 0, 70, 93
2, 122112, Note_off_c, 0, 70, 0
2, 122112, Note_on_c, 0, 69, 93
2, 122304, Note_off_c, 0, 69, 0
2, 122304, Note_on_c, 0, 62, 93
2, 122352, Note_off_c, 0, 62, 0
2, 122352, Note_on_c, 0, 60, 93
2, 122400, Note_off_c, 0, 60, 0
2, 122400, Note_on_c, 0, 62, 93
2, 122448, Note_off_c, 0, 62, 0
2, 122448, Note_on_c, 0, 63, 93
2, 122496, Note_off_c, 0, 63, 0
2, 122496, Note_on_c, 0, 65, 93
2, 122688, Note_off_c, 0, 65, 0
2, 122688, Note_on_c, 0, 63, 93
2, 122784, Note_off_c, 0, 63, 0
2, 122784, Note_on_c, 0, 68, 93
2, 122880, Note_off_c, 0, 68, 0
2, 122880, Note_on_c, 0, 63, 93
2, 122928, Note_off_c, 0, 63, 0
2, 122928, Note_on_c, 0, 62, 93
2, 122976, Note_off_c, 0, 62, 0
2, 122976, Note_on_c, 0, 63, 93
2, 123024, Note_off_c, 0, 63, 0
2, 123024, Note_on_c, 0, 65, 93
2, 123072, Note_off_c, 0, 65, 0
2, 123072, Note_on_c, 0, 67, 93
2, 123264, Note_off_c, 0, 67, 0
2, 123264, Note_on_c, 0, 65, 93
2, 123360, Note_off_c, 0, 65, 0
2, 123360, Note_on_c, 0, 70, 93
2, 123552, Note_off_c, 0, 70, 0
2, 123552, Note_on_c, 0, 60, 93
2, 123840, Note_off_c, 0, 60, 0
2, 123840, Note_on_c, 0, 58, 93
2, 123936, Note_off_c, 0, 58, 0
2, 123936, Note_on_c, 0, 56, 93
2, 124032, Note_off_c, 0, 56, 0
2, 124128, Note_on_c, 0, 64, 93
2, 124224, Note_off_c, 0, 64, 0
2, 124224, Note_on_c, 0, 67, 93
2, 124320, Note_off_c, 0, 67, 0
2, 124320, Note_on_c, 0, 60, 93
2, 124512, Note_off_c, 0, 60, 0
2, 124512, Note_on_c, 0, 58, 93
2, 124608, Note_off_c, 0, 58, 0
2, 124608, Note_on_c, 0, 60, 93
2, 124800, Note_off_c, 0, 60, 0
2, 124800, Note_on_c, 0, 65, 93
2, 124896, Note_off_c, 0, 65, 0
2, 124896, Note_on_c, 0, 67, 93
2, 125280, Note_off_c, 0, 67, 0
2, 125280, Note_on_c, 0, 65, 93
2, 125472, Note_off_c, 0, 65, 0
2, 125472, Note_on_c, 0, 63, 93
2, 125568, Note_off_c, 0, 63, 0
2, 125568, Note_on_c, 0, 68, 93
2, 125760, Note_off_c, 0, 68, 0
2, 125760, Note_on_c, 0, 67, 93
2, 125856, Note_off_c, 0, 67, 0
2, 125856, Note_on_c, 0, 72, 93
2, 126144, Note_off_c, 0, 72, 0
2, 126144, Note_on_c, 0, 71, 93
2, 126336, Note_off_c, 0, 71, 0
2, 126336, Note_on_c, 0, 72, 93
2, 126432, Note_off_c, 0, 72, 0
2, 126432, Note_on_c, 0, 72, 93
2, 126480, Note_off_c, 0, 72, 0
2, 126480, Note_on_c, 0, 74, 93
2, 126528, Note_off_c, 0, 74, 0
2, 126528, Note_on_c, 0, 72, 93
2, 126576, Note_off_c, 0, 72, 0
2, 126576, Note_on_c, 0, 70, 93
2, 126624, Note_off_c, 0, 70, 0
2, 126624, Note_on_c, 0, 68, 93
2, 126672, Note_off_c, 0, 68, 0
2, 126672, Note_on_c, 0, 70, 93
2, 126720, Note_off_c, 0, 70, 0
2, 126720, Note_on_c, 0, 68, 93
2, 126768, Note_off_c, 0, 68, 0
2, 126768, Note_on_c, 0, 67, 93
2, 126816, Note_off_c, 0, 67, 0
2, 126816, Note_on_c, 0, 75, 93
2, 126960, Note_off_c, 0, 75, 0
2, 126960, Note_on_c, 0, 72, 93
2, 127008, Note_off_c, 0, 72, 0
2, 127008, Note_on_c, 0, 70, 93
2, 127056, Note_off_c, 0, 70, 0
2, 127056, Note_on_c, 0, 72, 93
2, 127104, Note_off_c, 0, 72, 0
2, 127104, Note_on_c, 0, 70, 93
2, 127152, Note_off_c, 0, 70, 0
2, 127152, Note_on_c, 0, 68, 93
2, 127200, Note_off_c, 0, 68, 0
2, 127200, Note_on_c, 0, 67, 93
2, 127248, Note_off_c, 0, 67, 0
2, 127248, Note_on_c, 0, 68, 93
2, 127296, Note_off_c, 0, 68, 0
2, 127296, Note_on_c, 0, 67, 93
2, 127344, Note_off_c, 0, 67, 0
2, 127344, Note_on_c, 0, 65, 93
2, 127392, Note_off_c, 0, 65, 0
2, 127392, Note_on_c, 0, 80, 93
2, 127584, Note_off_c, 0, 80, 0
2, 127584, Note_on_c, 0, 63, 93
2, 127632, Note_off_c, 0, 63, 0
2, 127632, Note_on_c, 0, 62, 93
2, 127680, Note_off_c, 0, 62, 0
2, 127680, Note_on_c, 0, 63, 93
2, 127728, Note_off_c, 0, 63, 0
2, 127728, Note_on_c, 0, 60, 93
2, 127776, Note_off_c, 0, 60, 0
2, 127776, Note_on_c, 0, 62, 93
2, 127872, Note_off_c, 0, 62, 0
2, 127872, Note_on_c, 0, 79, 93
2, 127920, Note_off_c, 0, 79, 0
2, 127920, Note_on_c, 0, 80, 93
2, 127968, Note_off_c, 0, 80, 0
2, 127968, Note_on_c, 0, 67, 93
2, 128064, Note_off_c, 0, 67, 0
2, 128064, Note_on_c, 0, 72, 93
2, 128256, Note_off_c, 0, 72, 0
2, 128256, Note_on_c, 0, 70, 93
2, 128352, Note_off_c, 0, 70, 0
2, 128352, Note_on_c, 0, 69, 93
2, 128736, Note_off_c, 0, 69, 0
2, 128736, Note_on_c, 0, 67, 93
2, 129024, Note_off_c, 0, 67, 0
2, 129024, Note_on_c, 0, 72, 93
2, 129312, Note_off_c, 0, 72, 0
2, 129312, Note_on_c, 0, 69, 93
2, 129600, Note_off_c, 0, 69, 0
2, 129600, Note_on_c, 0, 74, 93
2, 129840, Note_off_c, 0, 74, 0
2, 129840, Note_on_c, 0, 72, 93
2, 129888, Note_off_c, 0, 72, 0
2, 129888, Note_on_c, 0, 74, 93
2, 129936, Note_off_c, 0, 74, 0
2, 129936, Note_on_c, 0, 75, 93
2, 129984, Note_off_c, 0, 75, 0
2, 129984, Note_on_c, 0, 72, 93
2, 130032, Note_off_c, 0, 72, 0
2, 130032, Note_on_c, 0, 74, 93
2, 130080, Note_off_c, 0, 74, 0
2, 130080, Note_on_c, 0, 75, 93
2, 130128, Note_off_c, 0, 75, 0
2, 130128, Note_on_c, 0, 74, 93
2, 130176, Note_off_c, 0, 74, 0
2, 130176, Note_on_c, 0, 84, 93
2, 130368, Note_off_c, 0, 84, 0
2, 130368, Note_on_c, 0, 79, 93
2, 130512, Note_off_c, 0, 79, 0
2, 130512, Note_on_c, 0, 72, 93
2, 130560, Note_off_c, 0, 72, 0
2, 130560, Note_on_c, 0, 77, 93
2, 130608, Note_off_c, 0, 77, 0
2, 130608, Note_on_c, 0, 75, 93
2, 130656, Note_off_c, 0, 75, 0
2, 130656, Note_on_c, 0, 74, 93
2, 130800, Note_off_c, 0, 74, 0
2, 130800, Note_on_c, 0, 77, 93
2, 130848, Note_off_c, 0, 77, 0
2, 130848, Note_on_c, 0, 75, 93
2, 130896, Note_off_c, 0, 75, 0
2, 130896, Note_on_c, 0, 74, 93
2, 130944, Note_off_c, 0, 74, 0
2, 130944, Note_on_c, 0, 72, 93
2, 131616, Note_off_c, 0, 72, 0
2, 131616, Note_on_c, 0, 71, 93
2, 131712, Note_off_c, 0, 71, 0
2, 131712, Note_on_c, 0, 72, 93
2, 131808, Note_off_c, 0, 72, 0
2, 131808, Note_on_c, 0, 77, 93
2, 132144, Note_off_c, 0, 77, 0
2, 132144, Note_on_c, 0, 77, 93
2, 132192, Note_off_c, 0, 77, 0
2, 132192, Note_on_c, 0, 71, 93
2, 132288, Note_off_c, 0, 71, 0
2, 132288, Note_on_c, 0, 72, 93
2, 132480, Note_off_c, 0, 72, 0
2, 132480, Note_on_c, 0, 71, 93
2, 132672, Note_off_c, 0, 71, 0
2, 132672, Note_on_c, 0, 63, 110
2, 132816, Note_off_c, 0, 63, 0
2, 133392, Note_on_c, 0, 67, 110
2, 133440, Note_off_c, 0, 67, 0
2, 133440, Note_on_c, 0, 65, 110
2, 133488, Note_off_c, 0, 65, 0
2, 133488, Note_on_c, 0, 67, 110
2, 133536, Note_off_c, 0, 67, 0
2, 133536, Note_on_c, 0, 60, 110
2, 133572, Note_off_c, 0, 60, 0
2, 133584, Note_on_c, 0, 63, 110
2, 133608, Note_off_c, 0, 63, 0
2, 133608, Note_on_c, 0, 62, 110
2, 133632, Note_off_c, 0, 62, 0
2, 133632, Note_on_c, 0, 63, 110
2, 133656, Note_off_c, 0, 63, 0
2, 133656, Note_on_c, 0, 60, 110
2, 133680, Note_off_c, 0, 60, 0
2, 133680, Note_on_c, 0, 65, 110
2, 133728, Note_off_c, 0, 65, 0
2, 133728, Note_on_c, 0, 63, 110
2, 133776, Note_off_c, 0, 63, 0
2, 133776, Note_on_c, 0, 65, 110
2, 133824, Note_off_c, 0, 65, 0
2, 133824, Note_on_c, 0, 58, 110
2, 133860, Note_off_c, 0, 58, 0
2, 133872, Note_on_c, 0, 62, 110
2, 133896, Note_off_c, 0, 62, 0
2, 133896, Note_on_c, 0, 60, 110
2, 133920, Note_off_c, 0, 60, 0
2, 133920, Note_on_c, 0, 62, 110
2, 133944, Note_off_c, 0, 62, 0
2, 133944, Note_on_c, 0, 58, 110
2, 133968, Note_off_c, 0, 58, 0
2, 133968, Note_on_c, 0, 63, 110
2, 134016, Note_off_c, 0, 63, 0
2, 134112, Note_on_c, 0, 62, 110
2, 134136, Note_off_c, 0, 62, 0
2, 134136, Note_on_c, 0, 60, 110
2, 134160, Note_off_c, 0, 60, 0
2, 134160, Note_on_c, 0, 58, 110
2, 134184, Note_off_c, 0, 58, 0
2, 134184, Note_on_c, 0, 60, 110
2, 134208, Note_off_c, 0, 60, 0
2, 134208, Note_on_c, 0, 62, 110
2, 134232, Note_off_c, 0, 62, 0
2, 134232, Note_on_c, 0, 63, 110
2, 134256, Note_off_c, 0, 63, 0
2, 134256, Note_on_c, 0, 65, 110
2, 134304, Note_off_c, 0, 65, 0
2, 134400, Note_on_c, 0, 63, 110
2, 134424, Note_off_c, 0, 63, 0
2, 134424, Note_on_c, 0, 65, 110
2, 134448, Note_off_c, 0, 65, 0
2, 134448, Note_on_c, 0, 67, 110
2, 134472, Note_off_c, 0, 67, 0
2, 134472, Note_on_c, 0, 65, 110
2, 134496, Note_off_c, 0, 65, 0
2, 134496, Note_on_c, 0, 63, 110
2, 134520, Note_off_c, 0, 63, 0
2, 134520, Note_on_c, 0, 62, 110
2, 134544, Note_off_c, 0, 62, 0
2, 134544, Note_on_c, 0, 60, 110
2, 134592, Note_off_c, 0, 60, 0
2, 134592, Note_on_c, 0, 61, 110
2, 134640, Note_off_c, 0, 61, 0
2, 134640, Note_on_c, 0, 63, 110
2, 134688, Note_off_c, 0, 63, 0
2, 134688, Note_on_c, 0, 61, 110
2, 134880, Note_off_c, 0, 61, 0
2, 134880, Note_on_c, 0, 60, 110
2, 134928, Note_off_c, 0, 60, 0
2, 134928, Note_on_c, 0, 70, 110
2, 134976, Note_off_c, 0, 70, 0
2, 134976, Note_on_c, 0, 60, 110
2, 135216, Note_off_c, 0, 60, 0
2, 135216, Note_on_c, 0, 60, 110
2, 135264, Note_off_c, 0, 60, 0
2, 135264, Note_on_c, 0, 62, 110
2, 135312, Note_off_c, 0, 62, 0
2, 135312, Note_on_c, 0, 65, 110
2, 135336, Note_off_c, 0, 65, 0
2, 135336, Note_on_c, 0, 63, 110
2, 135360, Note_off_c, 0, 63, 0
2, 135360, Note_on_c, 0, 65, 110
2, 135384, Note_off_c, 0, 65, 0
2, 135384, Note_on_c, 0, 62, 110
2, 135408, Note_off_c, 0, 62, 0
2, 135408, Note_on_c, 0, 67, 110
2, 135696, Note_off_c, 0, 67, 0
2, 135696, Note_on_c, 0, 57, 110
2, 135792, Note_off_c, 0, 57, 0
2, 135792, Note_on_c, 0, 60, 110
2, 135840, Note_off_c, 0, 60, 0
2, 135840, Note_on_c, 0, 60, 110
2, 135888, Note_off_c, 0, 60, 0
2, 135888, Note_on_c, 0, 58, 110
2, 135936, Note_off_c, 0, 58, 0
2, 135936, Note_on_c, 0, 57, 110
2, 135984, Note_off_c, 0, 57, 0
2, 135984, Note_on_c, 0, 58, 110
2, 136176, Note_off_c, 0, 58, 0
2, 136176, Note_on_c, 0, 76, 110
2, 136200, Note_off_c, 0, 76, 0
2, 136200, Note_on_c, 0, 74, 110
2, 136224, Note_off_c, 0, 74, 0
2, 136224, Note_on_c, 0, 76, 110
2, 136248, Note_off_c, 0, 76, 0
2, 136248, Note_on_c, 0, 72, 110
2, 136272, Note_off_c, 0, 72, 0
2, 136272, Note_on_c, 0, 77, 110
2, 136320, Note_off_c, 0, 77, 0
2, 136320, Note_on_c, 0, 75, 110
2, 136368, Note_off_c, 0, 75, 0
2, 136368, Note_on_c, 0, 77, 110
2, 136416, Note_off_c, 0, 77, 0
2, 136416, Note_on_c, 0, 70, 110
2, 136458, Note_off_c, 0, 70, 0
2, 136464, Note_on_c, 0, 74, 110
2, 136488, Note_off_c, 0, 74, 0
2, 136488, Note_on_c, 0, 72, 110
2, 136512, Note_off_c, 0, 72, 0
2, 136512, Note_on_c, 0, 74, 110
2, 136536, Note_off_c, 0, 74, 0
2, 136536, Note_on_c, 0, 70, 110
2, 136560, Note_off_c, 0, 70, 0
2, 136560, Note_on_c, 0, 75, 110
2, 136848, Note_off_c, 0, 75, 0
2, 136848, Note_on_c, 0, 65, 110
2, 136872, Note_off_c, 0, 65, 0
2, 136872, Note_on_c, 0, 63, 110
2, 136896, Note_off_c, 0, 63, 0
2, 136896, Note_on_c, 0, 65, 110
2, 136920, Note_off_c, 0, 65, 0
2, 136920, Note_on_c, 0, 67, 110
2, 136944, Note_off_c, 0, 67, 0
2, 136944, Note_on_c, 0, 68, 110
2, 136968, Note_off_c, 0, 68, 0
2, 136968, Note_on_c, 0, 70, 110
2, 136992, Note_off_c, 0, 70, 0
2, 136992, Note_on_c, 0, 79, 110
2, 137280, Note_off_c, 0, 79, 0
2, 137280, Note_on_c, 0, 77, 110
2, 137424, Note_off_c, 0, 77, 0
2, 137424, Note_on_c, 0, 82, 110
2, 137712, Note_off_c, 0, 82, 0
2, 137712, Note_on_c, 0, 81, 110
2, 137856, Note_off_c, 0, 81, 0
2, 137856, Note_on_c, 0, 82, 110
2, 137904, Note_off_c, 0, 82, 0
2, 137904, Note_on_c, 0, 67, 110
2, 137928, Note_off_c, 0, 67, 0
2, 137928, Note_on_c, 0, 69, 110
2, 137952, Note_off_c, 0, 69, 0
2, 137952, Note_on_c, 0, 70, 110
2, 137976, Note_off_c, 0, 70, 0
2, 137976, Note_on_c, 0, 72, 110
2, 138000, Note_off_c, 0, 72, 0
2, 138000, Note_on_c, 0, 82, 110
2, 138048, Note_off_c, 0, 82, 0
2, 138048, Note_on_c, 0, 80, 110
2, 138096, Note_off_c, 0, 80, 0
2, 138096, Note_on_c, 0, 82, 110
2, 138144, Note_off_c, 0, 82, 0
2, 138144, Note_on_c, 0, 72, 110
2, 138432, Note_off_c, 0, 72, 0
2, 138432, Note_on_c, 0, 65, 110
2, 138576, Note_off_c, 0, 65, 0
2, 138576, Note_on_c, 0, 75, 110
2, 138864, Note_off_c, 0, 75, 0
2, 138864, Note_on_c, 0, 72, 110
2, 139008, Note_off_c, 0, 72, 0
2, 139008, Note_on_c, 0, 74, 110
2, 139152, Note_off_c, 0, 74, 0
2, 139152, Note_on_c, 0, 72, 110
2, 139176, Note_off_c, 0, 72, 0
2, 139176, Note_on_c, 0, 74, 110
2, 139200, Note_off_c, 0, 74, 0
2, 139200, Note_on_c, 0, 75, 110
2, 139224, Note_off_c, 0, 75, 0
2, 139224, Note_on_c, 0, 74, 110
2, 139248, Note_off_c, 0, 74, 0
2, 139248, Note_on_c, 0, 72, 110
2, 139272, Note_off_c, 0, 72, 0
2, 139272, Note_on_c, 0, 70, 110
2, 139296, Note_off_c, 0, 70, 0
2, 139296, Note_on_c, 0, 77, 110
2, 139584, Note_off_c, 0, 77, 0
2, 139584, Note_on_c, 0, 67, 110
2, 139608, Note_off_c, 0, 67, 0
2, 139608, Note_on_c, 0, 68, 110
2, 139632, Note_off_c, 0, 68, 0
2, 139632, Note_on_c, 0, 70, 110
2, 139656, Note_off_c, 0, 70, 0
2, 139656, Note_on_c, 0, 68, 110
2, 139680, Note_off_c, 0, 68, 0
2, 139680, Note_on_c, 0, 70, 110
2, 139704, Note_off_c, 0, 70, 0
2, 139704, Note_on_c, 0, 67, 110
2, 139728, Note_off_c, 0, 67, 0
2, 139728, Note_on_c, 0, 68, 110
2, 139776, Note_off_c, 0, 68, 0
2, 139776, Note_on_c, 0, 73, 110
2, 139824, Note_off_c, 0, 73, 0
2, 139824, Note_on_c, 0, 75, 110
2, 139872, Note_off_c, 0, 75, 0
2, 139872, Note_on_c, 0, 68, 110
2, 139920, Note_off_c, 0, 68, 0
2, 139920, Note_on_c, 0, 72, 110
2, 139944, Note_off_c, 0, 72, 0
2, 139944, Note_on_c, 0, 70, 110
2, 139968, Note_off_c, 0, 70, 0
2, 139968, Note_on_c, 0, 72, 110
2, 139992, Note_off_c, 0, 72, 0
2, 139992, Note_on_c, 0, 68, 110
2, 140016, Note_off_c, 0, 68, 0
2, 140016, Note_on_c, 0, 73, 110
2, 140064, Note_off_c, 0, 73, 0
2, 140064, Note_on_c, 0, 72, 110
2, 140112, Note_off_c, 0, 72, 0
2, 140112, Note_on_c, 0, 73, 110
2, 140160, Note_off_c, 0, 73, 0
2, 140160, Note_on_c, 0, 67, 110
2, 140208, Note_off_c, 0, 67, 0
2, 140208, Note_on_c, 0, 70, 110
2, 140232, Note_off_c, 0, 70, 0
2, 140232, Note_on_c, 0, 68, 110
2, 140256, Note_off_c, 0, 68, 0
2, 140256, Note_on_c, 0, 70, 110
2, 140280, Note_off_c, 0, 70, 0
2, 140280, Note_on_c, 0, 67, 110
2, 140304, Note_off_c, 0, 67, 0
2, 140304, Note_on_c, 0, 72, 110
2, 140352, Note_off_c, 0, 72, 0
2, 140352, Note_on_c, 0, 70, 110
2, 140400, Note_off_c, 0, 70, 0
2, 140400, Note_on_c, 0, 72, 110
2, 140448, Note_off_c, 0, 72, 0
2, 140448, Note_on_c, 0, 73, 110
2, 140784, Note_off_c, 0, 73, 0
2, 140784, Note_on_c, 0, 65, 110
2, 140808, Note_off_c, 0, 65, 0
2, 140808, Note_on_c, 0, 67, 110
2, 140832, Note_off_c, 0, 67, 0
2, 140832, Note_on_c, 0, 68, 110
2, 140856, Note_off_c, 0, 68, 0
2, 140856, Note_on_c, 0, 70, 110
2, 140880, Note_off_c, 0, 70, 0
2, 140880, Note_on_c, 0, 72, 110
2, 140904, Note_off_c, 0, 72, 0
2, 140904, Note_on_c, 0, 68, 110
2, 140928, Note_off_c, 0, 68, 0
2, 140928, Note_on_c, 0, 70, 110
2, 140952, Note_off_c, 0, 70, 0
2, 140952, Note_on_c, 0, 72, 110
2, 140976, Note_off_c, 0, 72, 0
2, 140976, Note_on_c, 0, 74, 110
2, 141000, Note_off_c, 0, 74, 0
2, 141000, Note_on_c, 0, 75, 110
2, 141024, Note_off_c, 0, 75, 0
2, 141024, Note_on_c, 0, 77, 110
2, 141048, Note_off_c, 0, 77, 0
2, 141048, Note_on_c, 0, 75, 110
2, 141072, Note_off_c, 0, 75, 0
2, 141072, Note_on_c, 0, 77, 110
2, 141096, Note_off_c, 0, 77, 0
2, 141096, Note_on_c, 0, 79, 110
2, 141120, Note_off_c, 0, 79, 0
2, 141120, Note_on_c, 0, 80, 110
2, 141144, Note_off_c, 0, 80, 0
2, 141144, Note_on_c, 0, 77, 110
2, 141168, Note_off_c, 0, 77, 0
2, 141168, Note_on_c, 0, 70, 110
2, 141456, Note_off_c, 0, 70, 0
2, 141456, Note_on_c, 0, 65, 110
2, 141600, Note_off_c, 0, 65, 0
2, 141600, Note_on_c, 0, 67, 110
2, 141888, Note_off_c, 0, 67, 0
2, 141888, Note_on_c, 0, 68, 110
2, 142176, Note_off_c, 0, 68, 0
2, 142176, Note_on_c, 0, 67, 110
2, 142464, Note_off_c, 0, 67, 0
2, 142464, Note_on_c, 0, 65, 110
2, 142752, Note_off_c, 0, 65, 0
2, 142752, Note_on_c, 0, 63, 110
2, 142896, Note_off_c, 0, 63, 0
2, 142896, Note_on_c, 0, 72, 110
2, 143040, Note_off_c, 0, 72, 0
2, 143040, Note_on_c, 0, 70, 110
2, 143088, Note_off_c, 0, 70, 0
2, 143088, Note_on_c, 0, 72, 110
2, 143112, Note_off_c, 0, 72, 0
2, 143112, Note_on_c, 0, 74, 110
2, 143136, Note_off_c, 0, 74, 0
2, 143136, Note_on_c, 0, 75, 110
2, 143160, Note_off_c, 0, 75, 0
2, 143160, Note_on_c, 0, 77, 110
2, 143184, Note_off_c, 0, 77, 0
2, 143184, Note_on_c, 0, 79, 110
2, 143208, Note_off_c, 0, 79, 0
2, 143208, Note_on_c, 0, 80, 110
2, 143232, Note_off_c, 0, 80, 0
2, 143232, Note_on_c, 0, 79, 110
2, 143256, Note_off_c, 0, 79, 0
2, 143256, Note_on_c, 0, 77, 110
2, 143280, Note_off_c, 0, 77, 0
2, 143280, Note_on_c, 0, 75, 110
2, 143304, Note_off_c, 0, 75, 0
2, 143304, Note_on_c, 0, 74, 110
2, 143328, Note_off_c, 0, 74, 0
2, 143328, Note_on_c, 0, 72, 110
2, 143376, Note_off_c, 0, 72, 0
2, 143376, Note_on_c, 0, 74, 110
2, 143400, Note_off_c, 0, 74, 0
2, 143400, Note_on_c, 0, 75, 110
2, 143424, Note_off_c, 0, 75, 0
2, 143424, Note_on_c, 0, 77, 110
2, 143448, Note_off_c, 0, 77, 0
2, 143448, Note_on_c, 0, 79, 110
2, 143472, Note_off_c, 0, 79, 0
2, 143472, Note_on_c, 0, 65, 110
2, 143760, Note_off_c, 0, 65, 0
2, 143760, Note_on_c, 0, 75, 110
2, 143904, Note_off_c, 0, 75, 0
2, 143904, Note_on_c, 0, 74, 110
2, 144336, Note_off_c, 0, 74, 0
2, 144336, Note_on_c, 0, 72, 110
2, 144360, Note_off_c, 0, 72, 0
2, 144360, Note_on_c, 0, 67, 110
2, 144384, Note_off_c, 0, 67, 0
2, 144384, Note_on_c, 0, 69, 110
2, 144408, Note_off_c, 0, 69, 0
2, 144408, Note_on_c, 0, 71, 110
2, 144432, Note_off_c, 0, 71, 0
2, 144432, Note_on_c, 0, 72, 110
2, 144456, Note_off_c, 0, 72, 0
2, 144456, Note_on_c, 0, 74, 110
2, 144480, Note_off_c, 0, 74, 0
2, 144480, Note_on_c, 0, 75, 110
2, 144672, Note_off_c, 0, 75, 0
2, 144672, Note_on_c, 0, 74, 110
2, 144720, Note_off_c, 0, 74, 0
2, 144720, Note_on_c, 0, 75, 110
2, 144768, Note_off_c, 0, 75, 0
2, 144768, Note_on_c, 0, 68, 110
2, 144816, Note_off_c, 0, 68, 0
2, 144816, Note_on_c, 0, 72, 110
2, 144840, Note_off_c, 0, 72, 0
2, 144840, Note_on_c, 0, 70, 110
2, 144864, Note_off_c, 0, 70, 0
2, 144864, Note_on_c, 0, 72, 110
2, 144888, Note_off_c, 0, 72, 0
2, 144888, Note_on_c, 0, 68, 110
2, 144912, Note_off_c, 0, 68, 0
2, 144912, Note_on_c, 0, 69, 110
2, 145200, Note_off_c, 0, 69, 0
2, 145200, Note_on_c, 0, 63, 110
2, 145344, Note_off_c, 0, 63, 0
2, 145344, Note_on_c, 0, 79, 110
2, 145512, Note_off_c, 0, 79, 0
2, 145512, Note_on_c, 0, 82, 110
2, 145536, Note_off_c, 0, 82, 0
2, 145536, Note_on_c, 0, 80, 110
2, 145560, Note_off_c, 0, 80, 0
2, 145560, Note_on_c, 0, 79, 110
2, 145584, Note_off_c, 0, 79, 0
2, 145584, Note_on_c, 0, 77, 110
2, 145608, Note_off_c, 0, 77, 0
2, 145608, Note_on_c, 0, 75, 110
2, 145632, Note_off_c, 0, 75, 0
2, 145632, Note_on_c, 0, 74, 110
2, 145656, Note_off_c, 0, 74, 0
2, 145656, Note_on_c, 0, 72, 110
2, 145680, Note_off_c, 0, 72, 0
2, 145680, Note_on_c, 0, 74, 110
2, 145704, Note_off_c, 0, 74, 0
2, 145704, Note_on_c, 0, 77, 110
2, 145728, Note_off_c, 0, 77, 0
2, 145728, Note_on_c, 0, 75, 110
2, 145752, Note_off_c, 0, 75, 0
2, 145752, Note_on_c, 0, 74, 110
2, 145776, Note_off_c, 0, 74, 0
2, 145776, Note_on_c, 0, 75, 110
2, 145800, Note_off_c, 0, 75, 0
2, 145800, Note_on_c, 0, 74, 110
2, 145824, Note_off_c, 0, 74, 0
2, 145824, Note_on_c, 0, 75, 110
2, 145920, Note_off_c, 0, 75, 0
2, 145920, Note_on_c, 0, 75, 110
2, 146064, Note_off_c, 0, 75, 0
2, 146064, Note_on_c, 0, 74, 110
2, 146208, Note_off_c, 0, 74, 0
2, 146208, Note_on_c, 0, 75, 110
2, 146352, Note_off_c, 0, 75, 0
2, 146352, Note_on_c, 0, 84, 110
2, 146640, Note_off_c, 0, 84, 0
2, 146640, Note_on_c, 0, 82, 110
2, 146928, Note_off_c, 0, 82, 0
2, 146928, Note_on_c, 0, 80, 110
2, 147216, Note_off_c, 0, 80, 0
2, 147216, Note_on_c, 0, 70, 110
2, 147264, Note_off_c, 0, 70, 0
2, 147264, Note_on_c, 0, 68, 110
2, 147312, Note_off_c, 0, 68, 0
2, 147312, Note_on_c, 0, 70, 110
2, 147360, Note_off_c, 0, 70, 0
2, 147360, Note_on_c, 0, 67, 110
2, 147504, Note_off_c, 0, 67, 0
2, 147504, Note_on_c, 0, 68, 110
2, 147552, Note_off_c, 0, 68, 0
2, 147552, Note_on_c, 0, 67, 110
2, 147600, Note_off_c, 0, 67, 0
2, 147600, Note_on_c, 0, 77, 110
2, 147648, Note_off_c, 0, 77, 0
2, 147648, Note_on_c, 0, 65, 110
2, 147792, Note_off_c, 0, 65, 0
2, 147792, Note_on_c, 0, 67, 110
2, 148080, Note_off_c, 0, 67, 0
2, 148080, Note_on_c, 0, 75, 110
2, 148368, Note_off_c, 0, 75, 0
2, 148368, Note_on_c, 0, 74, 110
2, 148512, Note_off_c, 0, 74, 0
2, 148512, Note_on_c, 0, 79, 110
2, 148800, Note_off_c, 0, 79, 0
2, 148800, Note_on_c, 0, 70, 110
2, 148944, Note_off_c, 0, 70, 0
2, 148944, Note_on_c, 0, 82, 110
2, 149232, Note_off_c, 0, 82, 0
2, 149232, Note_on_c, 0, 81, 110
2, 149376, Note_off_c, 0, 81, 0
2, 149376, Note_on_c, 0, 74, 110
2, 149400, Note_off_c, 0, 74, 0
2, 149400, Note_on_c, 0, 70, 110
2, 149424, Note_off_c, 0, 70, 0
2, 149424, Note_on_c, 0, 72, 110
2, 149448, Note_off_c, 0, 72, 0
2, 149448, Note_on_c, 0, 74, 110
2, 149472, Note_off_c, 0, 74, 0
2, 149472, Note_on_c, 0, 75, 110
2, 149496, Note_off_c, 0, 75, 0
2, 149496, Note_on_c, 0, 77, 110
2, 149520, Note_off_c, 0, 77, 0
2, 149520, Note_on_c, 0, 79, 110
2, 149568, Note_off_c, 0, 79, 0
2, 149568, Note_on_c, 0, 77, 110
2, 149616, Note_off_c, 0, 77, 0
2, 149616, Note_on_c, 0, 79, 110
2, 149664, Note_off_c, 0, 79, 0
2, 149664, Note_on_c, 0, 72, 110
2, 149712, Note_off_c, 0, 72, 0
2, 149712, Note_on_c, 0, 75, 110
2, 149736, Note_off_c, 0, 75, 0
2, 149736, Note_on_c, 0, 74, 110
2, 149760, Note_off_c, 0, 74, 0
2, 149760, Note_on_c, 0, 75, 110
2, 149784, Note_off_c, 0, 75, 0
2, 149784, Note_on_c, 0, 72, 110
2, 149808, Note_off_c, 0, 72, 0
2, 149808, Note_on_c, 0, 80, 110
2, 150096, Note_off_c, 0, 80, 0
2, 150096, Note_on_c, 0, 75, 110
2, 150384, Note_off_c, 0, 75, 0
2, 150384, Note_on_c, 0, 74, 76
2, 150498, Note_off_c, 0, 74, 0
2, 150528, Note_on_c, 0, 75, 110
2, 150552, Note_off_c, 0, 75, 0
2, 150552, Note_on_c, 0, 77, 110
2, 150576, Note_off_c, 0, 77, 0
2, 150576, Note_on_c, 0, 75, 110
2, 150600, Note_off_c, 0, 75, 0
2, 150600, Note_on_c, 0, 74, 110
2, 150624, Note_off_c, 0, 74, 0
2, 150624, Note_on_c, 0, 75, 110
2, 150648, Note_off_c, 0, 75, 0
2, 150648, Note_on_c, 0, 79, 110
2, 150696, Note_off_c, 0, 79, 0
2, 150696, Note_on_c, 0, 82, 110
2, 150720, Note_off_c, 0, 82, 0
2, 150720, Note_on_c, 0, 80, 110
2, 150744, Note_off_c, 0, 80, 0
2, 150744, Note_on_c, 0, 79, 110
2, 150816, Note_off_c, 0, 79, 0
2, 150816, Note_on_c, 0, 74, 110
2, 150840, Note_off_c, 0, 74, 0
2, 150840, Note_on_c, 0, 75, 110
2, 150864, Note_off_c, 0, 75, 0
2, 150864, Note_on_c, 0, 77, 110
2, 150888, Note_off_c, 0, 77, 0
2, 150888, Note_on_c, 0, 75, 110
2, 150912, Note_off_c, 0, 75, 0
2, 150912, Note_on_c, 0, 77, 110
2, 150936, Note_off_c, 0, 77, 0
2, 150936, Note_on_c, 0, 74, 110
2, 150960, Note_off_c, 0, 74, 0
2, 150960, Note_on_c, 0, 70, 110
2, 151104, Note_off_c, 0, 70, 0
2, 151104, Note_on_c, 0, 72, 110
2, 151128, Note_off_c, 0, 72, 0
2, 151128, Note_on_c, 0, 74, 110
2, 151152, Note_off_c, 0, 74, 0
2, 151152, Note_on_c, 0, 75, 110
2, 151176, Note_off_c, 0, 75, 0
2, 151176, Note_on_c, 0, 74, 110
2, 151200, Note_off_c, 0, 74, 0
2, 151200, Note_on_c, 0, 75, 110
2, 151224, Note_off_c, 0, 75, 0
2, 151224, Note_on_c, 0, 72, 110
2, 151248, Note_off_c, 0, 72, 0
2, 151248, Note_on_c, 0, 77, 127
2, 151272, Note_off_c, 0, 77, 0
2, 151272, Note_on_c, 0, 79, 127
2, 151296, Note_off_c, 0, 79, 0
2, 151296, Note_on_c, 0, 77, 127
2, 151320, Note_off_c, 0, 77, 0
2, 151320, Note_on_c, 0, 75, 127
2, 151344, Note_off_c, 0, 75, 0
2, 151344, Note_on_c, 0, 74, 127
2, 151368, Note_off_c, 0, 74, 0
2, 151368, Note_on_c, 0, 72, 127
2, 151392, Note_off_c, 0, 72, 0
2, 151392, Note_on_c, 0, 70, 127
2, 151416, Note_off_c, 0, 70, 0
2, 151416, Note_on_c, 0, 72, 127
2, 151440, Note_off_c, 0, 72, 0
2, 151440, Note_on_c, 0, 74, 127
2, 151464, Note_off_c, 0, 74, 0
2, 151464, Note_on_c, 0, 72, 127
2, 151488, Note_off_c, 0, 72, 0
2, 151488, Note_on_c, 0, 74, 127
2, 151512, Note_off_c, 0, 74, 0
2, 151512, Note_on_c, 0, 70, 127
2, 151536, Note_off_c, 0, 70, 0
2, 151536, Note_on_c, 0, 67, 127
2, 151824, Note_off_c, 0, 67, 0
2, 151824, Note_on_c, 0, 68, 127
2, 151920, Note_off_c, 0, 68, 0
2, 151920, Note_on_c, 0, 63, 127
2, 151968, Note_off_c, 0, 63, 0
2, 151968, Note_on_c, 0, 70, 127
2, 152256, Note_off_c, 0, 70, 0
2, 152256, Note_on_c, 0, 77, 127
2, 152592, Note_off_c, 0, 77, 0
2, 152592, Note_on_c, 0, 75, 127
2, 152640, Note_off_c, 0, 75, 0
2, 152640, Note_on_c, 0, 74, 127
2, 152736, Note_off_c, 0, 74, 0
2, 152736, Note_on_c, 0, 75, 127
2, 152784, Note_off_c, 0, 75, 0
2, 152784, Note_on_c, 0, 68, 127
2, 152832, Note_off_c, 0, 68, 0
2, 152832, Note_on_c, 0, 70, 127
2, 152844, Note_off_c, 0, 70, 0
2, 152844, Note_on_c, 0, 68, 127
2, 152856, Note_off_c, 0, 68, 0
2, 152856, Note_on_c, 0, 70, 127
2, 152976, Note_off_c, 0, 70, 0
2, 152976, Note_on_c, 0, 65, 127
2, 153204, Note_off_c, 0, 65, 0
2, 153204, Note_on_c, 0, 75, 127
2, 153408, Note_off_c, 0, 75, 0
2, 153408, End_track
3, 0, Start_track
3, 0, Title_t, "Track3"
3, 0, Program_c, 1, 19
3, 0, Control_c, 1, 7, 100
3, 0, Control_c, 1, 10, 64
3, 0, Note_on_c, 1, 55, 110
3, 192, Note_off_c, 1, 55, 0
3, 336, Note_on_c, 1, 58, 110
3, 384, Note_off_c, 1, 58, 0
3, 384, Note_on_c, 1, 58, 110
3, 960, Note_off_c, 1, 58, 0
3, 1104, Note_on_c, 1, 53, 110
3, 1152, Note_off_c, 1, 53, 0
3, 1152, Note_on_c, 1, 58, 110
3, 1536, Note_off_c, 1, 58, 0
3, 1704, Note_on_c, 1, 55, 110
3, 1728, Note_off_c, 1, 55, 0
3, 1728, Note_on_c, 1, 60, 110
3, 2064, Note_off_c, 1, 60, 0
3, 2088, Note_on_c, 1, 60, 110
3, 2112, Note_off_c, 1, 60, 0
3, 2112, Note_on_c, 1, 58, 110
3, 2568, Note_off_c, 1, 58, 0
3, 2568, Note_on_c, 1, 57, 110
3, 2592, Note_off_c, 1, 57, 0
3, 2592, Note_on_c, 1, 55, 110
3, 2664, Note_off_c, 1, 55, 0
3, 2664, Note_on_c, 1, 53, 110
3, 2688, Note_off_c, 1, 53, 0
3, 2688, Note_on_c, 1, 58, 110
3, 2952, Note_off_c, 1, 58, 0
3, 2952, Note_on_c, 1, 62, 110
3, 2976, Note_off_c, 1, 62, 0
3, 2976, Note_on_c, 1, 60, 110
3, 3048, Note_off_c, 1, 60, 0
3, 3048, Note_on_c, 1, 58, 110
3, 3072, Note_off_c, 1, 58, 0
3, 3072, Note_on_c, 1, 60, 110
3, 3336, Note_off_c, 1, 60, 0
3, 3336, Note_on_c, 1, 58, 110
3, 3360, Note_off_c, 1, 58, 0
3, 3360, Note_on_c, 1, 57, 110
3, 3432, Note_off_c, 1, 57, 0
3, 3432, Note_on_c, 1, 55, 110
3, 3456, Note_off_c, 1, 55, 0
3, 3456, Note_on_c, 1, 53, 110
3, 3720, Note_off_c, 1, 53, 0
3, 3720, Note_on_c, 1, 51, 110
3, 3744, Note_off_c, 1, 51, 0
3, 3744, Note_on_c, 1, 50, 110
3, 3816, Note_off_c, 1, 50, 0
3, 3816, Note_on_c, 1, 48, 110
3, 3840, Note_off_c, 1, 48, 0
3, 3840, Note_on_c, 1, 46, 110
3, 4032, Note_off_c, 1, 46, 0
3, 4104, Note_on_c, 1, 53, 110
3, 4128, Note_off_c, 1, 53, 0
3, 4128, Note_on_c, 1, 51, 110
3, 4200, Note_off_c, 1, 51, 0
3, 4200, Note_on_c, 1, 53, 110
3, 4224, Note_off_c, 1, 53, 0
3, 4224, Note_on_c, 1, 55, 110
3, 4488, Note_off_c, 1, 55, 0
3, 4488, Note_on_c, 1, 55, 110
3, 4512, Note_off_c, 1, 55, 0
3, 4512, Note_on_c, 1, 53, 110
3, 4584, Note_off_c, 1, 53, 0
3, 4584, Note_on_c, 1, 55, 110
3, 4608, Note_off_c, 1, 55, 0
3, 4608, Note_on_c, 1, 57, 110
3, 4800, Note_off_c, 1, 57, 0
3, 4800, Note_on_c, 1, 50, 110
3, 5088, Note_off_c, 1, 50, 0
3, 5256, Note_on_c, 1, 55, 110
3, 5280, Note_off_c, 1, 55, 0
3, 5280, Note_on_c, 1, 57, 110
3, 5352, Note_off_c, 1, 57, 0
3, 5352, Note_on_c, 1, 58, 110
3, 5376, Note_off_c, 1, 58, 0
3, 5376, Note_on_c, 1, 60, 110
3, 5568, Note_off_c, 1, 60, 0
3, 5568, Note_on_c, 1, 65, 110
3, 6144, Note_off_c, 1, 65, 0
3, 6144, Note_on_c, 1, 53, 110
3, 6264, Note_off_c, 1, 53, 0
3, 6264, Note_on_c, 1, 51, 110
3, 6288, Note_off_c, 1, 51, 0
3, 6288, Note_on_c, 1, 50, 110
3, 6312, Note_off_c, 1, 50, 0
3, 6312, Note_on_c, 1, 48, 110
3, 6336, Note_off_c, 1, 48, 0
3, 6336, Note_on_c, 1, 46, 110
3, 6480, Note_off_c, 1, 46, 0
3, 6480, Note_on_c, 1, 56, 110
3, 6528, Note_off_c, 1, 56, 0
3, 6528, Note_on_c, 1, 56, 110
3, 6720, Note_off_c, 1, 56, 0
3, 6720, Note_on_c, 1, 55, 110
3, 6912, Note_off_c, 1, 55, 0
3, 6912, Note_on_c, 1, 62, 110
3, 7032, Note_off_c, 1, 62, 0
3, 7032, Note_on_c, 1, 60, 110
3, 7056, Note_off_c, 1, 60, 0
3, 7056, Note_on_c, 1, 59, 110
3, 7080, Note_off_c, 1, 59, 0
3, 7080, Note_on_c, 1, 57, 110
3, 7104, Note_off_c, 1, 57, 0
3, 7104, Note_on_c, 1, 55, 110
3, 7248, Note_off_c, 1, 55, 0
3, 7248, Note_on_c, 1, 53, 110
3, 7296, Note_off_c, 1, 53, 0
3, 7296, Note_on_c, 1, 55, 110
3, 7680, Note_off_c, 1, 55, 0
3, 7680, Note_on_c, 1, 53, 110
3, 7872, Note_off_c, 1, 53, 0
3, 7872, Note_on_c, 1, 50, 110
3, 8064, Note_off_c, 1, 50, 0
3, 8064, Note_on_c, 1, 51, 110
3, 8256, Note_off_c, 1, 51, 0
3, 8448, Note_on_c, 1, 60, 110
3, 8784, Note_off_c, 1, 60, 0
3, 8808, Note_on_c, 1, 60, 110
3, 8832, Note_off_c, 1, 60, 0
3, 8832, Note_on_c, 1, 46, 110
3, 8904, Note_off_c, 1, 46, 0
3, 8904, Note_on_c, 1, 51, 110
3, 8928, Note_off_c, 1, 51, 0
3, 8928, Note_on_c, 1, 55, 110
3, 9000, Note_off_c, 1, 55, 0
3, 9000, Note_on_c, 1, 57, 110
3, 9024, Note_off_c, 1, 57, 0
3, 9024, Note_on_c, 1, 58, 110
3, 9168, Note_off_c, 1, 58, 0
3, 9192, Note_on_c, 1, 58, 110
3, 9216, Note_off_c, 1, 58, 0
3, 9216, Note_on_c, 1, 58, 93
3, 9228, Note_off_c, 1, 58, 0
3, 9228, Note_on_c, 1, 60, 93
3, 9240, Note_off_c, 1, 60, 0
3, 9240, Note_on_c, 1, 58, 93
3, 9252, Note_off_c, 1, 58, 0
3, 9252, Note_on_c, 1, 60, 93
3, 9264, Note_off_c, 1, 60, 0
3, 9264, Note_on_c, 1, 58, 93
3, 9276, Note_off_c, 1, 58, 0
3, 9276, Note_on_c, 1, 60, 93
3, 9288, Note_off_c, 1, 60, 0
3, 9288, Note_on_c, 1, 58, 93
3, 9300, Note_off_c, 1, 58, 0
3, 9300, Note_on_c, 1, 60, 93
3, 9312, Note_off_c, 1, 60, 0
3, 9312, Note_on_c, 1, 58, 93
3, 9324, Note_off_c, 1, 58, 0
3, 9324, Note_on_c, 1, 60, 93
3, 9336, Note_off_c, 1, 60, 0
3, 9336, Note_on_c, 1, 58, 93
3, 9348, Note_off_c, 1, 58, 0
3, 9348, Note_on_c, 1, 60, 93
3, 9360, Note_off_c, 1, 60, 0
3, 9360, Note_on_c, 1, 58, 93
3, 9372, Note_off_c, 1, 58, 0
3, 9372, Note_on_c, 1, 60, 93
3, 9384, Note_off_c, 1, 60, 0
3, 9384, Note_on_c, 1, 58, 93
3, 9396, Note_off_c, 1, 58, 0
3, 9396, Note_on_c, 1, 60, 93
3, 9408, Note_off_c, 1, 60, 0
3, 9408, Note_on_c, 1, 58, 93
3, 9420, Note_off_c, 1, 58, 0
3, 9420, Note_on_c, 1, 60, 93
3, 9432, Note_off_c, 1, 60, 0
3, 9432, Note_on_c, 1, 58, 93
3, 9444, Note_off_c, 1, 58, 0
3, 9444, Note_on_c, 1, 60, 93
3, 9456, Note_off_c, 1, 60, 0
3, 9456, Note_on_c, 1, 58, 93
3, 9468, Note_off_c, 1, 58, 0
3, 9468, Note_on_c, 1, 60, 93
3, 9480, Note_off_c, 1, 60, 0
3, 9480, Note_on_c, 1, 58, 93
3, 9492, Note_off_c, 1, 58, 0
3, 9492, Note_on_c, 1, 60, 93
3, 9504, Note_off_c, 1, 60, 0
3, 9504, Note_on_c, 1, 58, 93
3, 9516, Note_off_c, 1, 58, 0
3, 9516, Note_on_c, 1, 60, 93
3, 9528, Note_off_c, 1, 60, 0
3, 9528, Note_on_c, 1, 58, 93
3, 9540, Note_off_c, 1, 58, 0
3, 9540, Note_on_c, 1, 60, 93
3, 9552, Note_off_c, 1, 60, 0
3, 9552, Note_on_c, 1, 58, 93
3, 9564, Note_off_c, 1, 58, 0
3, 9564, Note_on_c, 1, 60, 93
3, 9576, Note_off_c, 1, 60, 0
3, 9576, Note_on_c, 1, 58, 93
3, 9588, Note_off_c, 1, 58, 0
3, 9588, Note_on_c, 1, 60, 93
3, 9600, Note_off_c, 1, 60, 0
3, 9600, Note_on_c, 1, 58, 93
3, 9612, Note_off_c, 1, 58, 0
3, 9612, Note_on_c, 1, 60, 93
3, 9624, Note_off_c, 1, 60, 0
3, 9624, Note_on_c, 1, 58, 93
3, 9636, Note_off_c, 1, 58, 0
3, 9636, Note_on_c, 1, 60, 93
3, 9648, Note_off_c, 1, 60, 0
3, 9648, Note_on_c, 1, 58, 93
3, 9660, Note_off_c, 1, 58, 0
3, 9660, Note_on_c, 1, 60, 93
3, 9672, Note_off_c, 1, 60, 0
3, 9672, Note_on_c, 1, 58, 93
3, 9684, Note_off_c, 1, 58, 0
3, 9684, Note_on_c, 1, 60, 93
3, 9696, Note_off_c, 1, 60, 0
3, 9696, Note_on_c, 1, 58, 93
3, 9708, Note_off_c, 1, 58, 0
3, 9708, Note_on_c, 1, 60, 93
3, 9720, Note_off_c, 1, 60, 0
3, 9720, Note_on_c, 1, 58, 93
3, 9732, Note_off_c, 1, 58, 0
3, 9732, Note_on_c, 1, 60, 93
3, 9744, Note_off_c, 1, 60, 0
3, 9744, Note_on_c, 1, 58, 93
3, 9756, Note_off_c, 1, 58, 0
3, 9756, Note_on_c, 1, 60, 93
3, 9768, Note_off_c, 1, 60, 0
3, 9768, Note_on_c, 1, 58, 93
3, 9780, Note_off_c, 1, 58, 0
3, 9780, Note_on_c, 1, 60, 93
3, 9792, Note_off_c, 1, 60, 0
3, 9792, Note_on_c, 1, 58, 93
3, 9804, Note_off_c, 1, 58, 0
3, 9804, Note_on_c, 1, 60, 93
3, 9816, Note_off_c, 1, 60, 0
3, 9816, Note_on_c, 1, 58, 93
3, 9828, Note_off_c, 1, 58, 0
3, 9828, Note_on_c, 1, 60, 93
3, 9840, Note_off_c, 1, 60, 0
3, 9840, Note_on_c, 1, 58, 93
3, 9852, Note_off_c, 1, 58, 0
3, 9852, Note_on_c, 1, 60, 93
3, 9864, Note_off_c, 1, 60, 0
3, 9864, Note_on_c, 1, 58, 93
3, 9876, Note_off_c, 1, 58, 0
3, 9876, Note_on_c, 1, 60, 93
3, 9888, Note_off_c, 1, 60, 0
3, 9888, Note_on_c, 1, 58, 93
3, 9900, Note_off_c, 1, 58, 0
3, 9900, Note_on_c, 1, 60, 93
3, 9912, Note_off_c, 1, 60, 0
3, 9912, Note_on_c, 1, 58, 93
3, 9924, Note_off_c, 1, 58, 0
3, 9924, Note_on_c, 1, 60, 93
3, 9936, Note_off_c, 1, 60, 0
3, 9936, Note_on_c, 1, 58, 93
3, 9948, Note_off_c, 1, 58, 0
3, 9948, Note_on_c, 1, 60, 93
3, 9960, Note_off_c, 1, 60, 0
3, 9960, Note_on_c, 1, 58, 93
3, 9972, Note_off_c, 1, 58, 0
3, 9972, Note_on_c, 1, 60, 93
3, 9984, Note_off_c, 1, 60, 0
3, 9984, Note_on_c, 1, 58, 110
3, 10056, Note_off_c, 1, 58, 0
3, 10056, Note_on_c, 1, 56, 110
3, 10080, Note_off_c, 1, 56, 0
3, 10080, Note_on_c, 1, 55, 110
3, 10152, Note_off_c, 1, 55, 0
3, 10152, Note_on_c, 1, 53, 110
3, 10176, Note_off_c, 1, 53, 0
3, 10176, Note_on_c, 1, 55, 110
3, 10248, Note_off_c, 1, 55, 0
3, 10248, Note_on_c, 1, 51, 110
3, 10272, Note_off_c, 1, 51, 0
3, 10272, Note_on_c, 1, 50, 110
3, 10284, Note_off_c, 1, 50, 0
3, 10284, Note_on_c, 1, 51, 110
3, 10296, Note_off_c, 1, 51, 0
3, 10296, Note_on_c, 1, 50, 110
3, 10344, Note_off_c, 1, 50, 0
3, 10344, Note_on_c, 1, 48, 110
3, 10368, Note_off_c, 1, 48, 0
3, 10368, Note_on_c, 1, 46, 110
3, 10440, Note_off_c, 1, 46, 0
3, 10440, Note_on_c, 1, 55, 110
3, 10464, Note_off_c, 1, 55, 0
3, 10464, Note_on_c, 1, 53, 110
3, 10536, Note_off_c, 1, 53, 0
3, 10536, Note_on_c, 1, 51, 110
3, 10560, Note_off_c, 1, 51, 0
3, 10560, Note_on_c, 1, 53, 110
3, 10896, Note_off_c, 1, 53, 0
3, 10920, Note_on_c, 1, 53, 110
3, 10944, Note_off_c, 1, 53, 0
3, 10944, Note_on_c, 1, 51, 110
3, 11088, Note_off_c, 1, 51, 0
3, 11112, Note_on_c, 1, 55, 110
3, 11136, Note_off_c, 1, 55, 0
3, 11136, Note_on_c, 1, 56, 110
3, 11328, Note_off_c, 1, 56, 0
3, 11496, Note_on_c, 1, 58, 110
3, 11520, Note_off_c, 1, 58, 0
3, 11520, Note_on_c, 1, 58, 110
3, 11616, Note_off_c, 1, 58, 0
3, 11616, Note_on_c, 1, 55, 110
3, 11712, Note_off_c, 1, 55, 0
3, 11712, Note_on_c, 1, 51, 110
3, 11808, Note_off_c, 1, 51, 0
3, 11808, Note_on_c, 1, 56, 110
3, 11904, Note_off_c, 1, 56, 0
3, 11904, Note_on_c, 1, 46, 110
3, 12288, Note_off_c, 1, 46, 0
3, 12384, Note_on_c, 1, 56, 110
3, 12432, Note_off_c, 1, 56, 0
3, 12480, Note_on_c, 1, 53, 110
3, 12528, Note_off_c, 1, 53, 0
3, 12576, Note_on_c, 1, 51, 110
3, 12624, Note_off_c, 1, 51, 0
3, 12672, Note_on_c, 1, 56, 110
3, 12678, Note_off_c, 1, 56, 0
3, 12684, Note_on_c, 1, 58, 110
3, 12690, Note_off_c, 1, 58, 0
3, 12696, Note_on_c, 1, 56, 110
3, 12732, Note_off_c, 1, 56, 0
3, 12768, Note_on_c, 1, 55, 110
3, 12816, Note_off_c, 1, 55, 0
3, 13152, Note_on_c, 1, 56, 59
3, 13200, Note_off_c, 1, 56, 0
3, 13248, Note_on_c, 1, 53, 59
3, 13296, Note_off_c, 1, 53, 0
3, 13344, Note_on_c, 1, 51, 59
3, 13392, Note_off_c, 1, 51, 0
3, 13440, Note_on_c, 1, 56, 59
3, 13446, Note_off_c, 1, 56, 0
3, 13452, Note_on_c, 1, 58, 59
3, 13458, Note_off_c, 1, 58, 0
3, 13464, Note_on_c, 1, 56, 59
3, 13500, Note_off_c, 1, 56, 0
3, 13536, Note_on_c, 1, 55, 59
3, 13584, Note_off_c, 1, 55, 0
3, 13920, Note_on_c, 1, 63, 110
3, 13968, Note_off_c, 1, 63, 0
3, 14016, Note_on_c, 1, 60, 110
3, 14064, Note_off_c, 1, 60, 0
3, 14112, Note_on_c, 1, 58, 110
3, 14160, Note_off_c, 1, 58, 0
3, 14208, Note_on_c, 1, 57, 110
3, 14256, Note_off_c, 1, 57, 0
3, 14304, Note_on_c, 1, 58, 110
3, 14352, Note_off_c, 1, 58, 0
3, 14688, Note_on_c, 1, 63, 59
3, 14736, Note_off_c, 1, 63, 0
3, 14784, Note_on_c, 1, 60, 59
3, 14832, Note_off_c, 1, 60, 0
3, 14880, Note_on_c, 1, 58, 59
3, 14928, Note_off_c, 1, 58, 0
3, 14976, Note_on_c, 1, 57, 59
3, 15024, Note_off_c, 1, 57, 0
3, 15072, Note_on_c, 1, 58, 59
3, 15120, Note_off_c, 1, 58, 0
3, 15264, Note_on_c, 1, 58, 110
3, 15360, Note_off_c, 1, 58, 0
3, 15360, Note_on_c, 1, 63, 110
3, 15456, Note_off_c, 1, 63, 0
3, 15456, Note_on_c, 1, 62, 110
3, 15552, Note_off_c, 1, 62, 0
3, 15552, Note_on_c, 1, 63, 110
3, 15648, Note_off_c, 1, 63, 0
3, 15648, Note_on_c, 1, 60, 110
3, 15744, Note_off_c, 1, 60, 0
3, 15744, Note_on_c, 1, 62, 110
3, 15840, Note_off_c, 1, 62, 0
3, 15840, Note_on_c, 1, 60, 110
3, 15936, Note_off_c, 1, 60, 0
3, 15936, Note_on_c, 1, 62, 110
3, 16032, Note_off_c, 1, 62, 0
3, 16032, Note_on_c, 1, 58, 110
3, 16128, Note_off_c, 1, 58, 0
3, 16128, Note_on_c, 1, 60, 110
3, 16224, Note_off_c, 1, 60, 0
3, 16224, Note_on_c, 1, 58, 110
3, 16320, Note_off_c, 1, 58, 0
3, 16320, Note_on_c, 1, 60, 110
3, 16416, Note_off_c, 1, 60, 0
3, 16416, Note_on_c, 1, 55, 110
3, 16512, Note_off_c, 1, 55, 0
3, 16512, Note_on_c, 1, 60, 110
3, 16608, Note_off_c, 1, 60, 0
3, 16608, Note_on_c, 1, 58, 110
3, 16704, Note_off_c, 1, 58, 0
3, 16704, Note_on_c, 1, 60, 110
3, 16800, Note_off_c, 1, 60, 0
3, 16800, Note_on_c, 1, 53, 110
3, 16896, Note_off_c, 1, 53, 0
3, 16896, Note_on_c, 1, 58, 110
3, 16992, Note_off_c, 1, 58, 0
3, 16992, Note_on_c, 1, 48, 110
3, 17088, Note_off_c, 1, 48, 0
3, 17088, Note_on_c, 1, 49, 110
3, 17184, Note_off_c, 1, 49, 0
3, 17184, Note_on_c, 1, 46, 110
3, 17280, Note_off_c, 1, 46, 0
3, 17280, Note_on_c, 1, 53, 110
3, 17376, Note_off_c, 1, 53, 0
3, 17376, Note_on_c, 1, 55, 110
3, 17472, Note_off_c, 1, 55, 0
3, 17472, Note_on_c, 1, 57, 110
3, 17568, Note_off_c, 1, 57, 0
3, 17568, Note_on_c, 1, 53, 110
3, 17664, Note_off_c, 1, 53, 0
3, 17664, Note_on_c, 1, 58, 110
3, 17760, Note_off_c, 1, 58, 0
3, 17760, Note_on_c, 1, 60, 110
3, 17856, Note_off_c, 1, 60, 0
3, 17856, Note_on_c, 1, 61, 110
3, 17952, Note_off_c, 1, 61, 0
3, 17952, Note_on_c, 1, 58, 110
3, 18048, Note_off_c, 1, 58, 0
3, 18048, Note_on_c, 1, 60, 110
3, 18144, Note_off_c, 1, 60, 0
3, 18144, Note_on_c, 1, 58, 110
3, 18240, Note_off_c, 1, 58, 0
3, 18240, Note_on_c, 1, 57, 110
3, 18336, Note_off_c, 1, 57, 0
3, 18336, Note_on_c, 1, 53, 110
3, 18432, Note_off_c, 1, 53, 0
3, 18432, Note_on_c, 1, 58, 110
3, 18528, Note_off_c, 1, 58, 0
3, 18528, Note_on_c, 1, 51, 110
3, 18624, Note_off_c, 1, 51, 0
3, 18624, Note_on_c, 1, 53, 110
3, 18816, Note_off_c, 1, 53, 0
3, 18816, Note_on_c, 1, 46, 110
3, 19008, Note_off_c, 1, 46, 0
3, 19008, Note_on_c, 1, 58, 110
3, 19080, Note_off_c, 1, 58, 0
3, 19080, Note_on_c, 1, 55, 110
3, 19104, Note_off_c, 1, 55, 0
3, 19104, Note_on_c, 1, 53, 110
3, 19176, Note_off_c, 1, 53, 0
3, 19176, Note_on_c, 1, 51, 110
3, 19200, Note_off_c, 1, 51, 0
3, 19200, Note_on_c, 1, 53, 101
3, 19320, Note_off_c, 1, 53, 0
3, 19320, Note_on_c, 1, 51, 101
3, 19344, Note_off_c, 1, 51, 0
3, 19344, Note_on_c, 1, 50, 101
3, 19368, Note_off_c, 1, 50, 0
3, 19368, Note_on_c, 1, 48, 101
3, 19392, Note_off_c, 1, 48, 0
3, 19392, Note_on_c, 1, 46, 101
3, 19536, Note_off_c, 1, 46, 0
3, 19536, Note_on_c, 1, 58, 101
3, 19584, Note_off_c, 1, 58, 0
3, 19584, Note_on_c, 1, 58, 101
3, 19776, Note_off_c, 1, 58, 0
3, 19776, Note_on_c, 1, 57, 101
3, 19788, Note_off_c, 1, 57, 0
3, 19788, Note_on_c, 1, 58, 101
3, 19800, Note_off_c, 1, 58, 0
3, 19800, Note_on_c, 1, 57, 101
3, 19968, Note_off_c, 1, 57, 0
3, 19968, Note_on_c, 1, 60, 110
3, 20040, Note_off_c, 1, 60, 0
3, 20040, Note_on_c, 1, 58, 110
3, 20064, Note_off_c, 1, 58, 0
3, 20064, Note_on_c, 1, 57, 110
3, 20136, Note_off_c, 1, 57, 0
3, 20136, Note_on_c, 1, 55, 110
3, 20160, Note_off_c, 1, 55, 0
3, 20160, Note_on_c, 1, 53, 110
3, 20304, Note_off_c, 1, 53, 0
3, 20304, Note_on_c, 1, 51, 110
3, 20352, Note_off_c, 1, 51, 0
3, 20352, Note_on_c, 1, 51, 110
3, 20544, Note_off_c, 1, 51, 0
3, 20544, Note_on_c, 1, 50, 110
3, 20556, Note_off_c, 1, 50, 0
3, 20556, Note_on_c, 1, 51, 110
3, 20568, Note_off_c, 1, 51, 0
3, 20568, Note_on_c, 1, 50, 110
3, 20736, Note_off_c, 1, 50, 0
3, 20784, Note_on_c, 1, 46, 110
3, 20808, Note_off_c, 1, 46, 0
3, 20808, Note_on_c, 1, 48, 110
3, 20832, Note_off_c, 1, 48, 0
3, 20832, Note_on_c, 1, 50, 110
3, 20856, Note_off_c, 1, 50, 0
3, 20856, Note_on_c, 1, 51, 110
3, 20880, Note_off_c, 1, 51, 0
3, 20880, Note_on_c, 1, 53, 110
3, 20904, Note_off_c, 1, 53, 0
3, 20904, Note_on_c, 1, 55, 110
3, 20928, Note_off_c, 1, 55, 0
3, 20928, Note_on_c, 1, 56, 110
3, 21120, Note_off_c, 1, 56, 0
3, 21120, Note_on_c, 1, 56, 110
3, 21168, Note_off_c, 1, 56, 0
3, 21168, Note_on_c, 1, 55, 110
3, 21192, Note_off_c, 1, 55, 0
3, 21192, Note_on_c, 1, 56, 110
3, 21216, Note_off_c, 1, 56, 0
3, 21216, Note_on_c, 1, 58, 110
3, 21240, Note_off_c, 1, 58, 0
3, 21240, Note_on_c, 1, 56, 110
3, 21264, Note_off_c, 1, 56, 0
3, 21264, Note_on_c, 1, 55, 110
3, 21288, Note_off_c, 1, 55, 0
3, 21288, Note_on_c, 1, 53, 110
3, 21312, Note_off_c, 1, 53, 0
3, 21312, Note_on_c, 1, 55, 110
3, 21408, Note_off_c, 1, 55, 0
3, 21552, Note_on_c, 1, 51, 110
3, 21576, Note_off_c, 1, 51, 0
3, 21576, Note_on_c, 1, 53, 110
3, 21600, Note_off_c, 1, 53, 0
3, 21600, Note_on_c, 1, 55, 110
3, 21624, Note_off_c, 1, 55, 0
3, 21624, Note_on_c, 1, 56, 110
3, 21648, Note_off_c, 1, 56, 0
3, 21648, Note_on_c, 1, 58, 110
3, 21672, Note_off_c, 1, 58, 0
3, 21672, Note_on_c, 1, 60, 110
3, 21696, Note_off_c, 1, 60, 0
3, 21696, Note_on_c, 1, 61, 110
3, 21936, Note_off_c, 1, 61, 0
3, 21936, Note_on_c, 1, 60, 110
3, 21960, Note_off_c, 1, 60, 0
3, 21960, Note_on_c, 1, 61, 110
3, 21984, Note_off_c, 1, 61, 0
3, 21984, Note_on_c, 1, 63, 110
3, 22008, Note_off_c, 1, 63, 0
3, 22008, Note_on_c, 1, 61, 110
3, 22032, Note_off_c, 1, 61, 0
3, 22032, Note_on_c, 1, 60, 110
3, 22056, Note_off_c, 1, 60, 0
3, 22056, Note_on_c, 1, 58, 110
3, 22080, Note_off_c, 1, 58, 0
3, 22080, Note_on_c, 1, 60, 110
3, 22152, Note_off_c, 1, 60, 0
3, 22152, Note_on_c, 1, 62, 110
3, 22176, Note_off_c, 1, 62, 0
3, 22176, Note_on_c, 1, 58, 110
3, 22272, Note_off_c, 1, 58, 0
3, 22272, Note_on_c, 1, 60, 110
3, 22464, Note_off_c, 1, 60, 0
3, 22632, Note_on_c, 1, 56, 76
3, 22650, Note_off_c, 1, 56, 0
3, 22656, Note_on_c, 1, 55, 110
3, 22848, Note_off_c, 1, 55, 0
3, 23016, Note_on_c, 1, 60, 110
3, 23040, Note_off_c, 1, 60, 0
3, 23040, Note_on_c, 1, 53, 110
3, 23232, Note_off_c, 1, 53, 0
3, 23304, Note_on_c, 1, 62, 110
3, 23328, Note_off_c, 1, 62, 0
3, 23328, Note_on_c, 1, 60, 110
3, 23400, Note_off_c, 1, 60, 0
3, 23400, Note_on_c, 1, 59, 110
3, 23424, Note_off_c, 1, 59, 0
3, 23424, Note_on_c, 1, 56, 110
3, 23568, Note_off_c, 1, 56, 0
3, 23592, Note_on_c, 1, 55, 110
3, 23616, Note_off_c, 1, 55, 0
3, 23616, Note_on_c, 1, 56, 110
3, 23952, Note_off_c, 1, 56, 0
3, 23976, Note_on_c, 1, 55, 110
3, 24000, Note_off_c, 1, 55, 0
3, 24000, Note_on_c, 1, 56, 110
3, 24144, Note_off_c, 1, 56, 0
3, 24168, Note_on_c, 1, 53, 110
3, 24192, Note_off_c, 1, 53, 0
3, 24192, Note_on_c, 1, 55, 110
3, 24384, Note_off_c, 1, 55, 0
3, 24384, Note_on_c, 1, 62, 110
3, 24528, Note_off_c, 1, 62, 0
3, 24552, Note_on_c, 1, 55, 110
3, 24576, Note_off_c, 1, 55, 0
3, 24576, Note_on_c, 1, 55, 110
3, 25152, Note_off_c, 1, 55, 0
3, 25152, Note_on_c, 1, 53, 110
3, 25536, Note_off_c, 1, 53, 0
3, 25536, Note_on_c, 1, 51, 110
3, 25800, Note_off_c, 1, 51, 0
3, 25800, Note_on_c, 1, 51, 110
3, 25824, Note_off_c, 1, 51, 0
3, 25824, Note_on_c, 1, 53, 110
3, 25896, Note_off_c, 1, 53, 0
3, 25896, Note_on_c, 1, 55, 110
3, 25920, Note_off_c, 1, 55, 0
3, 25920, Note_on_c, 1, 56, 110
3, 25992, Note_off_c, 1, 56, 0
3, 25992, Note_on_c, 1, 63, 110
3, 26016, Note_off_c, 1, 63, 0
3, 26016, Note_on_c, 1, 62, 110
3, 26088, Note_off_c, 1, 62, 0
3, 26088, Note_on_c, 1, 60, 110
3, 26112, Note_off_c, 1, 60, 0
3, 26184, Note_on_c, 1, 55, 110
3, 26208, Note_off_c, 1, 55, 0
3, 26208, Note_on_c, 1, 57, 110
3, 26280, Note_off_c, 1, 57, 0
3, 26280, Note_on_c, 1, 59, 110
3, 26304, Note_off_c, 1, 59, 0
3, 26304, Note_on_c, 1, 55, 110
3, 26976, Note_off_c, 1, 55, 0
3, 26976, Note_on_c, 1, 50, 84
3, 27072, Note_off_c, 1, 50, 0
3, 27072, Note_on_c, 1, 51, 84
3, 27168, Note_off_c, 1, 51, 0
3, 27168, Note_on_c, 1, 53, 84
3, 27360, Note_off_c, 1, 53, 0
3, 27360, Note_on_c, 1, 51, 84
3, 27456, Note_off_c, 1, 51, 0
3, 27456, Note_on_c, 1, 50, 84
3, 27552, Note_off_c, 1, 50, 0
3, 27552, Note_on_c, 1, 55, 84
3, 27648, Note_off_c, 1, 55, 0
3, 27648, Note_on_c, 1, 60, 84
3, 27744, Note_off_c, 1, 60, 0
3, 27744, Note_on_c, 1, 58, 84
3, 27840, Note_off_c, 1, 58, 0
3, 27840, Note_on_c, 1, 57, 84
3, 27936, Note_off_c, 1, 57, 0
3, 27936, Note_on_c, 1, 58, 84
3, 28032, Note_off_c, 1, 58, 0
3, 28032, Note_on_c, 1, 60, 84
3, 28128, Note_off_c, 1, 60, 0
3, 28128, Note_on_c, 1, 58, 84
3, 28224, Note_off_c, 1, 58, 0
3, 28224, Note_on_c, 1, 57, 84
3, 28320, Note_off_c, 1, 57, 0
3, 28320, Note_on_c, 1, 50, 84
3, 28416, Note_off_c, 1, 50, 0
3, 28416, Note_on_c, 1, 55, 84
3, 28512, Note_off_c, 1, 55, 0
3, 28512, Note_on_c, 1, 58, 84
3, 28608, Note_off_c, 1, 58, 0
3, 28608, Note_on_c, 1, 48, 84
3, 28704, Note_off_c, 1, 48, 0
3, 28800, Note_on_c, 1, 53, 84
3, 28896, Note_off_c, 1, 53, 0
3, 28896, Note_on_c, 1, 51, 84
3, 28992, Note_off_c, 1, 51, 0
3, 28992, Note_on_c, 1, 50, 84
3, 29088, Note_off_c, 1, 50, 0
3, 29088, Note_on_c, 1, 62, 84
3, 29112, Note_off_c, 1, 62, 0
3, 29112, Note_on_c, 1, 60, 84
3, 29136, Note_off_c, 1, 60, 0
3, 29136, Note_on_c, 1, 59, 84
3, 29160, Note_off_c, 1, 59, 0
3, 29160, Note_on_c, 1, 57, 84
3, 29184, Note_off_c, 1, 57, 0
3, 29184, Note_on_c, 1, 55, 84
3, 29424, Note_off_c, 1, 55, 0
3, 29616, Note_on_c, 1, 60, 84
3, 29712, Note_off_c, 1, 60, 0
3, 29712, Note_on_c, 1, 60, 84
3, 29784, Note_off_c, 1, 60, 0
3, 29784, Note_on_c, 1, 58, 84
3, 29808, Note_off_c, 1, 58, 0
3, 29808, Note_on_c, 1, 56, 84
3, 29832, Note_off_c, 1, 56, 0
3, 29832, Note_on_c, 1, 55, 84
3, 29856, Note_off_c, 1, 55, 0
3, 29856, Note_on_c, 1, 53, 84
3, 29880, Note_off_c, 1, 53, 0
3, 29880, Note_on_c, 1, 51, 84
3, 29904, Note_off_c, 1, 51, 0
3, 29904, Note_on_c, 1, 50, 84
3, 29928, Note_off_c, 1, 50, 0
3, 29928, Note_on_c, 1, 48, 84
3, 29952, Note_off_c, 1, 48, 0
3, 29952, Note_on_c, 1, 47, 84
3, 29976, Note_off_c, 1, 47, 0
3, 29976, Note_on_c, 1, 50, 84
3, 30000, Note_off_c, 1, 50, 0
3, 30000, Note_on_c, 1, 47, 84
3, 30024, Note_off_c, 1, 47, 0
3, 30024, Note_on_c, 1, 50, 84
3, 30048, Note_off_c, 1, 50, 0
3, 30048, Note_on_c, 1, 48, 84
3, 30072, Note_off_c, 1, 48, 0
3, 30072, Note_on_c, 1, 51, 84
3, 30096, Note_off_c, 1, 51, 0
3, 30096, Note_on_c, 1, 48, 84
3, 30120, Note_off_c, 1, 48, 0
3, 30120, Note_on_c, 1, 51, 84
3, 30144, Note_off_c, 1, 51, 0
3, 30144, Note_on_c, 1, 48, 84
3, 30168, Note_off_c, 1, 48, 0
3, 30168, Note_on_c, 1, 53, 84
3, 30192, Note_off_c, 1, 53, 0
3, 30192, Note_on_c, 1, 48, 84
3, 30216, Note_off_c, 1, 48, 0
3, 30216, Note_on_c, 1, 53, 84
3, 30240, Note_off_c, 1, 53, 0
3, 30240, Note_on_c, 1, 47, 84
3, 30264, Note_off_c, 1, 47, 0
3, 30264, Note_on_c, 1, 53, 84
3, 30288, Note_off_c, 1, 53, 0
3, 30288, Note_on_c, 1, 47, 84
3, 30312, Note_off_c, 1, 47, 0
3, 30312, Note_on_c, 1, 53, 84
3, 30336, Note_off_c, 1, 53, 0
3, 30336, Note_on_c, 1, 48, 84
3, 30360, Note_off_c, 1, 48, 0
3, 30360, Note_on_c, 1, 53, 84
3, 30384, Note_off_c, 1, 53, 0
3, 30384, Note_on_c, 1, 51, 84
3, 30408, Note_off_c, 1, 51, 0
3, 30408, Note_on_c, 1, 50, 84
3, 30432, Note_off_c, 1, 50, 0
3, 30432, Note_on_c, 1, 51, 84
3, 30456, Note_off_c, 1, 51, 0
3, 30456, Note_on_c, 1, 55, 84
3, 30480, Note_off_c, 1, 55, 0
3, 30480, Note_on_c, 1, 51, 84
3, 30504, Note_off_c, 1, 51, 0
3, 30504, Note_on_c, 1, 55, 84
3, 30528, Note_off_c, 1, 55, 0
3, 30528, Note_on_c, 1, 41, 84
3, 30552, Note_off_c, 1, 41, 0
3, 30552, Note_on_c, 1, 55, 84
3, 30576, Note_off_c, 1, 55, 0
3, 30576, Note_on_c, 1, 53, 84
3, 30600, Note_off_c, 1, 53, 0
3, 30600, Note_on_c, 1, 51, 84
3, 30624, Note_off_c, 1, 51, 0
3, 30624, Note_on_c, 1, 53, 84
3, 30648, Note_off_c, 1, 53, 0
3, 30648, Note_on_c, 1, 56, 84
3, 30672, Note_off_c, 1, 56, 0
3, 30672, Note_on_c, 1, 53, 84
3, 30696, Note_off_c, 1, 53, 0
3, 30696, Note_on_c, 1, 56, 84
3, 30720, Note_off_c, 1, 56, 0
3, 30720, Note_on_c, 1, 46, 84
3, 30744, Note_off_c, 1, 46, 0
3, 30744, Note_on_c, 1, 51, 84
3, 30768, Note_off_c, 1, 51, 0
3, 30768, Note_on_c, 1, 50, 84
3, 30792, Note_off_c, 1, 50, 0
3, 30792, Note_on_c, 1, 48, 84
3, 30816, Note_off_c, 1, 48, 0
3, 30816, Note_on_c, 1, 50, 84
3, 30840, Note_off_c, 1, 50, 0
3, 30840, Note_on_c, 1, 53, 84
3, 30864, Note_off_c, 1, 53, 0
3, 30864, Note_on_c, 1, 50, 84
3, 30888, Note_off_c, 1, 50, 0
3, 30888, Note_on_c, 1, 53, 84
3, 30912, Note_off_c, 1, 53, 0
3, 30912, Note_on_c, 1, 39, 84
3, 30936, Note_off_c, 1, 39, 0
3, 30936, Note_on_c, 1, 53, 84
3, 30960, Note_off_c, 1, 53, 0
3, 30960, Note_on_c, 1, 51, 84
3, 30984, Note_off_c, 1, 51, 0
3, 30984, Note_on_c, 1, 50, 84
3, 31008, Note_off_c, 1, 50, 0
3, 31008, Note_on_c, 1, 51, 84
3, 31032, Note_off_c, 1, 51, 0
3, 31032, Note_on_c, 1, 55, 84
3, 31056, Note_off_c, 1, 55, 0
3, 31056, Note_on_c, 1, 51, 84
3, 31080, Note_off_c, 1, 51, 0
3, 31080, Note_on_c, 1, 55, 84
3, 31104, Note_off_c, 1, 55, 0
3, 31104, Note_on_c, 1, 44, 84
3, 31128, Note_off_c, 1, 44, 0
3, 31128, Note_on_c, 1, 55, 84
3, 31152, Note_off_c, 1, 55, 0
3, 31152, Note_on_c, 1, 53, 84
3, 31176, Note_off_c, 1, 53, 0
3, 31176, Note_on_c, 1, 51, 84
3, 31200, Note_off_c, 1, 51, 0
3, 31200, Note_on_c, 1, 53, 84
3, 31224, Note_off_c, 1, 53, 0
3, 31224, Note_on_c, 1, 51, 84
3, 31248, Note_off_c, 1, 51, 0
3, 31248, Note_on_c, 1, 50, 84
3, 31272, Note_off_c, 1, 50, 0
3, 31272, Note_on_c, 1, 48, 84
3, 31296, Note_off_c, 1, 48, 0
3, 31296, Note_on_c, 1, 46, 84
3, 31320, Note_off_c, 1, 46, 0
3, 31320, Note_on_c, 1, 56, 84
3, 31344, Note_off_c, 1, 56, 0
3, 31344, Note_on_c, 1, 55, 84
3, 31368, Note_off_c, 1, 55, 0
3, 31368, Note_on_c, 1, 53, 84
3, 31392, Note_off_c, 1, 53, 0
3, 31392, Note_on_c, 1, 55, 84
3, 31416, Note_off_c, 1, 55, 0
3, 31416, Note_on_c, 1, 53, 84
3, 31440, Note_off_c, 1, 53, 0
3, 31440, Note_on_c, 1, 51, 84
3, 31464, Note_off_c, 1, 51, 0
3, 31464, Note_on_c, 1, 50, 84
3, 31488, Note_off_c, 1, 50, 0
3, 31488, Note_on_c, 1, 48, 84
3, 31512, Note_off_c, 1, 48, 0
3, 31512, Note_on_c, 1, 58, 84
3, 31536, Note_off_c, 1, 58, 0
3, 31536, Note_on_c, 1, 56, 84
3, 31560, Note_off_c, 1, 56, 0
3, 31560, Note_on_c, 1, 55, 84
3, 31584, Note_off_c, 1, 55, 0
3, 31584, Note_on_c, 1, 56, 84
3, 31608, Note_off_c, 1, 56, 0
3, 31608, Note_on_c, 1, 55, 84
3, 31632, Note_off_c, 1, 55, 0
3, 31632, Note_on_c, 1, 53, 84
3, 31656, Note_off_c, 1, 53, 0
3, 31656, Note_on_c, 1, 51, 84
3, 31680, Note_off_c, 1, 51, 0
3, 31680, Note_on_c, 1, 50, 84
3, 31704, Note_off_c, 1, 50, 0
3, 31704, Note_on_c, 1, 60, 84
3, 31728, Note_off_c, 1, 60, 0
3, 31728, Note_on_c, 1, 58, 84
3, 31752, Note_off_c, 1, 58, 0
3, 31752, Note_on_c, 1, 56, 84
3, 31776, Note_off_c, 1, 56, 0
3, 31776, Note_on_c, 1, 58, 84
3, 31800, Note_off_c, 1, 58, 0
3, 31800, Note_on_c, 1, 56, 84
3, 31824, Note_off_c, 1, 56, 0
3, 31824, Note_on_c, 1, 55, 84
3, 31848, Note_off_c, 1, 55, 0
3, 31848, Note_on_c, 1, 53, 84
3, 31872, Note_off_c, 1, 53, 0
3, 31872, Note_on_c, 1, 51, 84
3, 31968, Note_off_c, 1, 51, 0
3, 31968, Note_on_c, 1, 53, 84
3, 32064, Note_off_c, 1, 53, 0
3, 32064, Note_on_c, 1, 55, 84
3, 32160, Note_off_c, 1, 55, 0
3, 32160, Note_on_c, 1, 56, 84
3, 32352, Note_off_c, 1, 56, 0
3, 32352, Note_on_c, 1, 55, 84
3, 32448, Note_off_c, 1, 55, 0
3, 32448, Note_on_c, 1, 53, 84
3, 32544, Note_off_c, 1, 53, 0
3, 32544, Note_on_c, 1, 58, 84
3, 32640, Note_off_c, 1, 58, 0
3, 32640, Note_on_c, 1, 51, 84
3, 32688, Note_off_c, 1, 51, 0
3, 32688, Note_on_c, 1, 58, 84
3, 32736, Note_off_c, 1, 58, 0
3, 32736, Note_on_c, 1, 63, 84
3, 32784, Note_off_c, 1, 63, 0
3, 32784, Note_on_c, 1, 62, 84
3, 32832, Note_off_c, 1, 62, 0
3, 32832, Note_on_c, 1, 60, 84
3, 32880, Note_off_c, 1, 60, 0
3, 32880, Note_on_c, 1, 63, 84
3, 32928, Note_off_c, 1, 63, 0
3, 32928, Note_on_c, 1, 57, 84
3, 32976, Note_off_c, 1, 57, 0
3, 32976, Note_on_c, 1, 60, 84
3, 33024, Note_off_c, 1, 60, 0
3, 33024, Note_on_c, 1, 53, 84
3, 33072, Note_off_c, 1, 53, 0
3, 33072, Note_on_c, 1, 60, 84
3, 33120, Note_off_c, 1, 60, 0
3, 33120, Note_on_c, 1, 65, 84
3, 33168, Note_off_c, 1, 65, 0
3, 33168, Note_on_c, 1, 63, 84
3, 33216, Note_off_c, 1, 63, 0
3, 33216, Note_on_c, 1, 62, 84
3, 33264, Note_off_c, 1, 62, 0
3, 33264, Note_on_c, 1, 65, 84
3, 33312, Note_off_c, 1, 65, 0
3, 33312, Note_on_c, 1, 58, 84
3, 33360, Note_off_c, 1, 58, 0
3, 33360, Note_on_c, 1, 62, 84
3, 33408, Note_off_c, 1, 62, 0
3, 33408, Note_on_c, 1, 55, 84
3, 33504, Note_off_c, 1, 55, 0
3, 33504, Note_on_c, 1, 51, 84
3, 33600, Note_off_c, 1, 51, 0
3, 33600, Note_on_c, 1, 53, 84
3, 33696, Note_off_c, 1, 53, 0
3, 33696, Note_on_c, 1, 55, 84
3, 33792, Note_off_c, 1, 55, 0
3, 33792, Note_on_c, 1, 53, 84
3, 33840, Note_off_c, 1, 53, 0
3, 33840, Note_on_c, 1, 58, 84
3, 33888, Note_off_c, 1, 58, 0
3, 33888, Note_on_c, 1, 62, 84
3, 34080, Note_off_c, 1, 62, 0
3, 34080, Note_on_c, 1, 60, 84
3, 34176, Note_off_c, 1, 60, 0
3, 34176, Note_on_c, 1, 58, 84
3, 34272, Note_off_c, 1, 58, 0
3, 34320, Note_on_c, 1, 62, 84
3, 34368, Note_off_c, 1, 62, 0
3, 34368, Note_on_c, 1, 63, 84
3, 34416, Note_off_c, 1, 63, 0
3, 34416, Note_on_c, 1, 62, 84
3, 34464, Note_off_c, 1, 62, 0
3, 34464, Note_on_c, 1, 60, 84
3, 34512, Note_off_c, 1, 60, 0
3, 34512, Note_on_c, 1, 58, 84
3, 34560, Note_off_c, 1, 58, 0
3, 34560, Note_on_c, 1, 57, 84
3, 34608, Note_off_c, 1, 57, 0
3, 34608, Note_on_c, 1, 58, 84
3, 34656, Note_off_c, 1, 58, 0
3, 34656, Note_on_c, 1, 57, 84
3, 34704, Note_off_c, 1, 57, 0
3, 34704, Note_on_c, 1, 55, 84
3, 34752, Note_off_c, 1, 55, 0
3, 34752, Note_on_c, 1, 54, 84
3, 34800, Note_off_c, 1, 54, 0
3, 34800, Note_on_c, 1, 50, 84
3, 34848, Note_off_c, 1, 50, 0
3, 34848, Note_on_c, 1, 52, 84
3, 34896, Note_off_c, 1, 52, 0
3, 34896, Note_on_c, 1, 54, 84
3, 34944, Note_off_c, 1, 54, 0
3, 34944, Note_on_c, 1, 55, 84
3, 34992, Note_off_c, 1, 55, 0
3, 35328, Note_on_c, 1, 54, 84
3, 35352, Note_off_c, 1, 54, 0
3, 35352, Note_on_c, 1, 57, 84
3, 35376, Note_off_c, 1, 57, 0
3, 35376, Note_on_c, 1, 54, 84
3, 35400, Note_off_c, 1, 54, 0
3, 35400, Note_on_c, 1, 57, 84
3, 35424, Note_off_c, 1, 57, 0
3, 35424, Note_on_c, 1, 55, 84
3, 35448, Note_off_c, 1, 55, 0
3, 35448, Note_on_c, 1, 58, 84
3, 35472, Note_off_c, 1, 58, 0
3, 35472, Note_on_c, 1, 55, 84
3, 35496, Note_off_c, 1, 55, 0
3, 35496, Note_on_c, 1, 58, 84
3, 35520, Note_off_c, 1, 58, 0
3, 35520, Note_on_c, 1, 55, 84
3, 35544, Note_off_c, 1, 55, 0
3, 35544, Note_on_c, 1, 60, 84
3, 35568, Note_off_c, 1, 60, 0
3, 35568, Note_on_c, 1, 55, 84
3, 35592, Note_off_c, 1, 55, 0
3, 35592, Note_on_c, 1, 60, 84
3, 35616, Note_off_c, 1, 60, 0
3, 35616, Note_on_c, 1, 54, 84
3, 35640, Note_off_c, 1, 54, 0
3, 35640, Note_on_c, 1, 60, 84
3, 35664, Note_off_c, 1, 60, 0
3, 35664, Note_on_c, 1, 54, 84
3, 35688, Note_off_c, 1, 54, 0
3, 35688, Note_on_c, 1, 60, 84
3, 35712, Note_off_c, 1, 60, 0
3, 35712, Note_on_c, 1, 55, 84
3, 35736, Note_off_c, 1, 55, 0
3, 35736, Note_on_c, 1, 60, 84
3, 35760, Note_off_c, 1, 60, 0
3, 35760, Note_on_c, 1, 58, 84
3, 35784, Note_off_c, 1, 58, 0
3, 35784, Note_on_c, 1, 57, 84
3, 35808, Note_off_c, 1, 57, 0
3, 35808, Note_on_c, 1, 58, 84
3, 35832, Note_off_c, 1, 58, 0
3, 35832, Note_on_c, 1, 62, 84
3, 35856, Note_off_c, 1, 62, 0
3, 35856, Note_on_c, 1, 58, 84
3, 35880, Note_off_c, 1, 58, 0
3, 35880, Note_on_c, 1, 62, 84
3, 35904, Note_off_c, 1, 62, 0
3, 35904, Note_on_c, 1, 48, 84
3, 35928, Note_off_c, 1, 48, 0
3, 35928, Note_on_c, 1, 62, 84
3, 35952, Note_off_c, 1, 62, 0
3, 35952, Note_on_c, 1, 60, 84
3, 35976, Note_off_c, 1, 60, 0
3, 35976, Note_on_c, 1, 58, 84
3, 36000, Note_off_c, 1, 58, 0
3, 36000, Note_on_c, 1, 60, 84
3, 36024, Note_off_c, 1, 60, 0
3, 36024, Note_on_c, 1, 63, 84
3, 36048, Note_off_c, 1, 63, 0
3, 36048, Note_on_c, 1, 60, 84
3, 36072, Note_off_c, 1, 60, 0
3, 36072, Note_on_c, 1, 63, 84
3, 36096, Note_off_c, 1, 63, 0
3, 36096, Note_on_c, 1, 53, 84
3, 36120, Note_off_c, 1, 53, 0
3, 36120, Note_on_c, 1, 58, 84
3, 36144, Note_off_c, 1, 58, 0
3, 36144, Note_on_c, 1, 56, 84
3, 36168, Note_off_c, 1, 56, 0
3, 36168, Note_on_c, 1, 55, 84
3, 36192, Note_off_c, 1, 55, 0
3, 36192, Note_on_c, 1, 56, 84
3, 36216, Note_off_c, 1, 56, 0
3, 36216, Note_on_c, 1, 60, 84
3, 36240, Note_off_c, 1, 60, 0
3, 36240, Note_on_c, 1, 56, 84
3, 36264, Note_off_c, 1, 56, 0
3, 36264, Note_on_c, 1, 60, 84
3, 36288, Note_off_c, 1, 60, 0
3, 36288, Note_on_c, 1, 46, 84
3, 36312, Note_off_c, 1, 46, 0
3, 36312, Note_on_c, 1, 60, 84
3, 36336, Note_off_c, 1, 60, 0
3, 36336, Note_on_c, 1, 58, 84
3, 36360, Note_off_c, 1, 58, 0
3, 36360, Note_on_c, 1, 56, 84
3, 36384, Note_off_c, 1, 56, 0
3, 36384, Note_on_c, 1, 58, 84
3, 36408, Note_off_c, 1, 58, 0
3, 36408, Note_on_c, 1, 62, 84
3, 36432, Note_off_c, 1, 62, 0
3, 36432, Note_on_c, 1, 58, 84
3, 36456, Note_off_c, 1, 58, 0
3, 36456, Note_on_c, 1, 62, 84
3, 36480, Note_off_c, 1, 62, 0
3, 36480, Note_on_c, 1, 51, 84
3, 36504, Note_off_c, 1, 51, 0
3, 36504, Note_on_c, 1, 56, 84
3, 36528, Note_off_c, 1, 56, 0
3, 36528, Note_on_c, 1, 55, 84
3, 36552, Note_off_c, 1, 55, 0
3, 36552, Note_on_c, 1, 53, 84
3, 36576, Note_off_c, 1, 53, 0
3, 36576, Note_on_c, 1, 55, 84
3, 36600, Note_off_c, 1, 55, 0
3, 36600, Note_on_c, 1, 58, 84
3, 36624, Note_off_c, 1, 58, 0
3, 36624, Note_on_c, 1, 55, 84
3, 36648, Note_off_c, 1, 55, 0
3, 36648, Note_on_c, 1, 58, 84
3, 36672, Note_off_c, 1, 58, 0
3, 36672, Note_on_c, 1, 44, 84
3, 36696, Note_off_c, 1, 44, 0
3, 36696, Note_on_c, 1, 58, 84
3, 36720, Note_off_c, 1, 58, 0
3, 36720, Note_on_c, 1, 56, 84
3, 36744, Note_off_c, 1, 56, 0
3, 36744, Note_on_c, 1, 55, 84
3, 36768, Note_off_c, 1, 55, 0
3, 36768, Note_on_c, 1, 56, 84
3, 36792, Note_off_c, 1, 56, 0
3, 36792, Note_on_c, 1, 60, 84
3, 36816, Note_off_c, 1, 60, 0
3, 36816, Note_on_c, 1, 56, 84
3, 36840, Note_off_c, 1, 56, 0
3, 36840, Note_on_c, 1, 60, 84
3, 36864, Note_off_c, 1, 60, 0
3, 36864, Note_on_c, 1, 49, 84
3, 36888, Note_off_c, 1, 49, 0
3, 36888, Note_on_c, 1, 55, 84
3, 36912, Note_off_c, 1, 55, 0
3, 36912, Note_on_c, 1, 53, 84
3, 36936, Note_off_c, 1, 53, 0
3, 36936, Note_on_c, 1, 52, 84
3, 36960, Note_off_c, 1, 52, 0
3, 36960, Note_on_c, 1, 53, 84
3, 36984, Note_off_c, 1, 53, 0
3, 36984, Note_on_c, 1, 56, 84
3, 37008, Note_off_c, 1, 56, 0
3, 37008, Note_on_c, 1, 53, 84
3, 37032, Note_off_c, 1, 53, 0
3, 37032, Note_on_c, 1, 56, 84
3, 37056, Note_off_c, 1, 56, 0
3, 37056, Note_on_c, 1, 43, 84
3, 37080, Note_off_c, 1, 43, 0
3, 37080, Note_on_c, 1, 56, 84
3, 37104, Note_off_c, 1, 56, 0
3, 37104, Note_on_c, 1, 55, 84
3, 37128, Note_off_c, 1, 55, 0
3, 37128, Note_on_c, 1, 53, 84
3, 37152, Note_off_c, 1, 53, 0
3, 37152, Note_on_c, 1, 55, 84
3, 37176, Note_off_c, 1, 55, 0
3, 37176, Note_on_c, 1, 58, 84
3, 37200, Note_off_c, 1, 58, 0
3, 37200, Note_on_c, 1, 55, 84
3, 37224, Note_off_c, 1, 55, 0
3, 37224, Note_on_c, 1, 58, 84
3, 37248, Note_off_c, 1, 58, 0
3, 37248, Note_on_c, 1, 48, 84
3, 37344, Note_off_c, 1, 48, 0
3, 37440, Note_on_c, 1, 60, 84
3, 37584, Note_off_c, 1, 60, 0
3, 37584, Note_on_c, 1, 58, 110
3, 37632, Note_off_c, 1, 58, 0
3, 37632, Note_on_c, 1, 58, 110
3, 37824, Note_off_c, 1, 58, 0
3, 37824, Note_on_c, 1, 56, 110
3, 38160, Note_off_c, 1, 56, 0
3, 38184, Note_on_c, 1, 56, 110
3, 38208, Note_off_c, 1, 56, 0
3, 38208, Note_on_c, 1, 55, 110
3, 38400, Note_off_c, 1, 55, 0
3, 38400, Note_on_c, 1, 56, 110
3, 38592, Note_off_c, 1, 56, 0
3, 38856, Note_on_c, 1, 60, 110
3, 38880, Note_off_c, 1, 60, 0
3, 38880, Note_on_c, 1, 58, 110
3, 38952, Note_off_c, 1, 58, 0
3, 38952, Note_on_c, 1, 56, 110
3, 38976, Note_off_c, 1, 56, 0
3, 38976, Note_on_c, 1, 58, 110
3, 39048, Note_off_c, 1, 58, 0
3, 39048, Note_on_c, 1, 53, 110
3, 39072, Note_off_c, 1, 53, 0
3, 39072, Note_on_c, 1, 55, 110
3, 39144, Note_off_c, 1, 55, 0
3, 39144, Note_on_c, 1, 56, 110
3, 39168, Note_off_c, 1, 56, 0
3, 39168, Note_on_c, 1, 51, 110
3, 39240, Note_off_c, 1, 51, 0
3, 39240, Note_on_c, 1, 56, 110
3, 39264, Note_off_c, 1, 56, 0
3, 39264, Note_on_c, 1, 60, 110
3, 39336, Note_off_c, 1, 60, 0
3, 39336, Note_on_c, 1, 62, 110
3, 39360, Note_off_c, 1, 62, 0
3, 39360, Note_on_c, 1, 63, 110
3, 39504, Note_off_c, 1, 63, 0
3, 39528, Note_on_c, 1, 60, 110
3, 39552, Note_off_c, 1, 60, 0
3, 39552, Note_on_c, 1, 61, 110
3, 39624, Note_off_c, 1, 61, 0
3, 39624, Note_on_c, 1, 63, 110
3, 39648, Note_off_c, 1, 63, 0
3, 39648, Note_on_c, 1, 61, 110
3, 39720, Note_off_c, 1, 61, 0
3, 39720, Note_on_c, 1, 60, 110
3, 39744, Note_off_c, 1, 60, 0
3, 39744, Note_on_c, 1, 61, 110
3, 39816, Note_off_c, 1, 61, 0
3, 39816, Note_on_c, 1, 70, 110
3, 39840, Note_off_c, 1, 70, 0
3, 39840, Note_on_c, 1, 63, 110
3, 39912, Note_off_c, 1, 63, 0
3, 39912, Note_on_c, 1, 61, 110
3, 39936, Note_off_c, 1, 61, 0
3, 39936, Note_on_c, 1, 60, 110
3, 40008, Note_off_c, 1, 60, 0
3, 40008, Note_on_c, 1, 61, 110
3, 40032, Note_off_c, 1, 61, 0
3, 40032, Note_on_c, 1, 60, 110
3, 40104, Note_off_c, 1, 60, 0
3, 40104, Note_on_c, 1, 58, 110
3, 40128, Note_off_c, 1, 58, 0
3, 40128, Note_on_c, 1, 60, 110
3, 40200, Note_off_c, 1, 60, 0
3, 40200, Note_on_c, 1, 68, 110
3, 40224, Note_off_c, 1, 68, 0
3, 40224, Note_on_c, 1, 60, 110
3, 40296, Note_off_c, 1, 60, 0
3, 40296, Note_on_c, 1, 58, 110
3, 40320, Note_off_c, 1, 58, 0
3, 40320, Note_on_c, 1, 56, 110
3, 40392, Note_off_c, 1, 56, 0
3, 40392, Note_on_c, 1, 58, 110
3, 40416, Note_off_c, 1, 58, 0
3, 40416, Note_on_c, 1, 56, 110
3, 40488, Note_off_c, 1, 56, 0
3, 40488, Note_on_c, 1, 55, 110
3, 40512, Note_off_c, 1, 55, 0
3, 40512, Note_on_c, 1, 56, 110
3, 40584, Note_off_c, 1, 56, 0
3, 40584, Note_on_c, 1, 65, 110
3, 40608, Note_off_c, 1, 65, 0
3, 40608, Note_on_c, 1, 58, 110
3, 40680, Note_off_c, 1, 58, 0
3, 40680, Note_on_c, 1, 56, 110
3, 40704, Note_off_c, 1, 56, 0
3, 40704, Note_on_c, 1, 55, 110
3, 40776, Note_off_c, 1, 55, 0
3, 40776, Note_on_c, 1, 56, 110
3, 40800, Note_off_c, 1, 56, 0
3, 40800, Note_on_c, 1, 55, 110
3, 40872, Note_off_c, 1, 55, 0
3, 40872, Note_on_c, 1, 53, 110
3, 40896, Note_off_c, 1, 53, 0
3, 40896, Note_on_c, 1, 55, 110
3, 40968, Note_off_c, 1, 55, 0
3, 40968, Note_on_c, 1, 51, 110
3, 40992, Note_off_c, 1, 51, 0
3, 40992, Note_on_c, 1, 55, 110
3, 41064, Note_off_c, 1, 55, 0
3, 41064, Note_on_c, 1, 58, 110
3, 41088, Note_off_c, 1, 58, 0
3, 41856, Note_on_c, 1, 60, 110
3, 41928, Note_off_c, 1, 60, 0
3, 41928, Note_on_c, 1, 61, 110
3, 41952, Note_off_c, 1, 61, 0
3, 41952, Note_on_c, 1, 63, 110
3, 42024, Note_off_c, 1, 63, 0
3, 42024, Note_on_c, 1, 56, 110
3, 42048, Note_off_c, 1, 56, 0
3, 42048, Note_on_c, 1, 60, 110
3, 42120, Note_off_c, 1, 60, 0
3, 42120, Note_on_c, 1, 58, 110
3, 42144, Note_off_c, 1, 58, 0
3, 42144, Note_on_c, 1, 56, 110
3, 42216, Note_off_c, 1, 56, 0
3, 42216, Note_on_c, 1, 55, 110
3, 42240, Note_off_c, 1, 55, 0
3, 42240, Note_on_c, 1, 63, 110
3, 42624, Note_off_c, 1, 63, 0
3, 42720, Note_on_c, 1, 61, 110
3, 42768, Note_off_c, 1, 61, 0
3, 42816, Note_on_c, 1, 58, 110
3, 42864, Note_off_c, 1, 58, 0
3, 42912, Note_on_c, 1, 56, 110
3, 42960, Note_off_c, 1, 56, 0
3, 43008, Note_on_c, 1, 55, 110
3, 43056, Note_off_c, 1, 55, 0
3, 43104, Note_on_c, 1, 56, 110
3, 43152, Note_off_c, 1, 56, 0
3, 43488, Note_on_c, 1, 61, 59
3, 43536, Note_off_c, 1, 61, 0
3, 43584, Note_on_c, 1, 58, 59
3, 43632, Note_off_c, 1, 58, 0
3, 43680, Note_on_c, 1, 56, 59
3, 43728, Note_off_c, 1, 56, 0
3, 43776, Note_on_c, 1, 55, 59
3, 43824, Note_off_c, 1, 55, 0
3, 43872, Note_on_c, 1, 56, 59
3, 43920, Note_off_c, 1, 56, 0
3, 44256, Note_on_c, 1, 56, 110
3, 44304, Note_off_c, 1, 56, 0
3, 44352, Note_on_c, 1, 53, 110
3, 44400, Note_off_c, 1, 53, 0
3, 44448, Note_on_c, 1, 51, 110
3, 44496, Note_off_c, 1, 51, 0
3, 44544, Note_on_c, 1, 50, 110
3, 44592, Note_off_c, 1, 50, 0
3, 44640, Note_on_c, 1, 51, 110
3, 44688, Note_off_c, 1, 51, 0
3, 45024, Note_on_c, 1, 56, 59
3, 45072, Note_off_c, 1, 56, 0
3, 45120, Note_on_c, 1, 53, 59
3, 45168, Note_off_c, 1, 53, 0
3, 45216, Note_on_c, 1, 51, 59
3, 45264, Note_off_c, 1, 51, 0
3, 45312, Note_on_c, 1, 50, 59
3, 45360, Note_off_c, 1, 50, 0
3, 45408, Note_on_c, 1, 51, 59
3, 45456, Note_off_c, 1, 51, 0
3, 47232, Note_on_c, 1, 51, 110
3, 47328, Note_off_c, 1, 51, 0
3, 47328, Note_on_c, 1, 53, 110
3, 47424, Note_off_c, 1, 53, 0
3, 47424, Note_on_c, 1, 54, 110
3, 47520, Note_off_c, 1, 54, 0
3, 47520, Note_on_c, 1, 51, 110
3, 47616, Note_off_c, 1, 51, 0
3, 47616, Note_on_c, 1, 58, 110
3, 47712, Note_off_c, 1, 58, 0
3, 47712, Note_on_c, 1, 60, 110
3, 47808, Note_off_c, 1, 60, 0
3, 47808, Note_on_c, 1, 62, 110
3, 47904, Note_off_c, 1, 62, 0
3, 47904, Note_on_c, 1, 58, 110
3, 48000, Note_off_c, 1, 58, 0
3, 48960, Note_on_c, 1, 58, 110
3, 49152, Note_off_c, 1, 58, 0
3, 49152, Note_on_c, 1, 51, 110
3, 49344, Note_off_c, 1, 51, 0
3, 49416, Note_on_c, 1, 60, 110
3, 49440, Note_off_c, 1, 60, 0
3, 49440, Note_on_c, 1, 58, 110
3, 49512, Note_off_c, 1, 58, 0
3, 49512, Note_on_c, 1, 56, 110
3, 49536, Note_off_c, 1, 56, 0
3, 49536, Note_on_c, 1, 58, 110
3, 49584, Note_off_c, 1, 58, 0
3, 49584, Note_on_c, 1, 63, 110
3, 49680, Note_off_c, 1, 63, 0
3, 49680, Note_on_c, 1, 63, 110
3, 49752, Note_off_c, 1, 63, 0
3, 49752, Note_on_c, 1, 62, 110
3, 49776, Note_off_c, 1, 62, 0
3, 49776, Note_on_c, 1, 60, 110
3, 49800, Note_off_c, 1, 60, 0
3, 49800, Note_on_c, 1, 58, 110
3, 49824, Note_off_c, 1, 58, 0
3, 49824, Note_on_c, 1, 56, 110
3, 49848, Note_off_c, 1, 56, 0
3, 49848, Note_on_c, 1, 55, 110
3, 49872, Note_off_c, 1, 55, 0
3, 49872, Note_on_c, 1, 53, 110
3, 49896, Note_off_c, 1, 53, 0
3, 49896, Note_on_c, 1, 51, 110
3, 49920, Note_off_c, 1, 51, 0
3, 49920, Note_on_c, 1, 50, 110
3, 49944, Note_off_c, 1, 50, 0
3, 49944, Note_on_c, 1, 53, 110
3, 49968, Note_off_c, 1, 53, 0
3, 49968, Note_on_c, 1, 50, 110
3, 49992, Note_off_c, 1, 50, 0
3, 49992, Note_on_c, 1, 53, 110
3, 50016, Note_off_c, 1, 53, 0
3, 50016, Note_on_c, 1, 51, 110
3, 50040, Note_off_c, 1, 51, 0
3, 50040, Note_on_c, 1, 55, 110
3, 50064, Note_off_c, 1, 55, 0
3, 50064, Note_on_c, 1, 51, 110
3, 50088, Note_off_c, 1, 51, 0
3, 50088, Note_on_c, 1, 55, 110
3, 50112, Note_off_c, 1, 55, 0
3, 50112, Note_on_c, 1, 51, 110
3, 50136, Note_off_c, 1, 51, 0
3, 50136, Note_on_c, 1, 56, 110
3, 50160, Note_off_c, 1, 56, 0
3, 50160, Note_on_c, 1, 51, 110
3, 50184, Note_off_c, 1, 51, 0
3, 50184, Note_on_c, 1, 56, 110
3, 50208, Note_off_c, 1, 56, 0
3, 50208, Note_on_c, 1, 50, 110
3, 50232, Note_off_c, 1, 50, 0
3, 50232, Note_on_c, 1, 56, 110
3, 50256, Note_off_c, 1, 56, 0
3, 50256, Note_on_c, 1, 50, 110
3, 50280, Note_off_c, 1, 50, 0
3, 50280, Note_on_c, 1, 56, 110
3, 50304, Note_off_c, 1, 56, 0
3, 50304, Note_on_c, 1, 55, 110
3, 50400, Note_off_c, 1, 55, 0
3, 50400, Note_on_c, 1, 53, 110
3, 50496, Note_off_c, 1, 53, 0
3, 50496, Note_on_c, 1, 51, 110
3, 50784, Note_off_c, 1, 51, 0
3, 50784, Note_on_c, 1, 50, 110
3, 50880, Note_off_c, 1, 50, 0
3, 50880, Note_on_c, 1, 48, 110
3, 51072, Note_off_c, 1, 48, 0
3, 51072, Note_on_c, 1, 46, 110
3, 51168, Note_off_c, 1, 46, 0
3, 51168, Note_on_c, 1, 53, 110
3, 51288, Note_off_c, 1, 53, 0
3, 51288, Note_on_c, 1, 53, 110
3, 51312, Note_off_c, 1, 53, 0
3, 51312, Note_on_c, 1, 51, 110
3, 51336, Note_off_c, 1, 51, 0
3, 51336, Note_on_c, 1, 50, 110
3, 51360, Note_off_c, 1, 50, 0
3, 51360, Note_on_c, 1, 51, 110
3, 51384, Note_off_c, 1, 51, 0
3, 51384, Note_on_c, 1, 55, 110
3, 51408, Note_off_c, 1, 55, 0
3, 51408, Note_on_c, 1, 51, 110
3, 51432, Note_off_c, 1, 51, 0
3, 51432, Note_on_c, 1, 55, 110
3, 51456, Note_off_c, 1, 55, 0
3, 51456, Note_on_c, 1, 60, 110
3, 51648, Note_off_c, 1, 60, 0
3, 51648, Note_on_c, 1, 58, 110
3, 51840, Note_off_c, 1, 58, 0
3, 51840, Note_on_c, 1, 56, 110
3, 52032, Note_off_c, 1, 56, 0
3, 52032, Note_on_c, 1, 58, 110
3, 52128, Note_off_c, 1, 58, 0
3, 52128, Note_on_c, 1, 60, 110
3, 52224, Note_off_c, 1, 60, 0
3, 52224, Note_on_c, 1, 53, 110
3, 52320, Note_off_c, 1, 53, 0
3, 52320, Note_on_c, 1, 55, 110
3, 52416, Note_off_c, 1, 55, 0
3, 52416, Note_on_c, 1, 56, 110
3, 52512, Note_off_c, 1, 56, 0
3, 52512, Note_on_c, 1, 58, 110
3, 52608, Note_off_c, 1, 58, 0
3, 52608, Note_on_c, 1, 51, 110
3, 52992, Note_off_c, 1, 51, 0
3, 52992, Note_on_c, 1, 50, 110
3, 53376, Note_off_c, 1, 50, 0
3, 53376, Note_on_c, 1, 48, 110
3, 53664, Note_off_c, 1, 48, 0
3, 53664, Note_on_c, 1, 53, 110
3, 53688, Note_off_c, 1, 53, 0
3, 53688, Note_on_c, 1, 57, 110
3, 53712, Note_off_c, 1, 57, 0
3, 53712, Note_on_c, 1, 53, 110
3, 53736, Note_off_c, 1, 53, 0
3, 53736, Note_on_c, 1, 57, 110
3, 53760, Note_off_c, 1, 57, 0
3, 53760, Note_on_c, 1, 58, 110
3, 53784, Note_off_c, 1, 58, 0
3, 53784, Note_on_c, 1, 60, 110
3, 53808, Note_off_c, 1, 60, 0
3, 53808, Note_on_c, 1, 58, 110
3, 53832, Note_off_c, 1, 58, 0
3, 53832, Note_on_c, 1, 57, 110
3, 53856, Note_off_c, 1, 57, 0
3, 53856, Note_on_c, 1, 58, 110
3, 53880, Note_off_c, 1, 58, 0
3, 53880, Note_on_c, 1, 62, 110
3, 53904, Note_off_c, 1, 62, 0
3, 53904, Note_on_c, 1, 58, 110
3, 53928, Note_off_c, 1, 58, 0
3, 53928, Note_on_c, 1, 62, 110
3, 53952, Note_off_c, 1, 62, 0
3, 53952, Note_on_c, 1, 63, 110
3, 54240, Note_off_c, 1, 63, 0
3, 54240, Note_on_c, 1, 58, 110
3, 54336, Note_off_c, 1, 58, 0
3, 54336, Note_on_c, 1, 60, 110
3, 54528, Note_off_c, 1, 60, 0
3, 54528, Note_on_c, 1, 58, 110
3, 54576, Note_off_c, 1, 58, 0
3, 54576, Note_on_c, 1, 45, 110
3, 54624, Note_off_c, 1, 45, 0
3, 54624, Note_on_c, 1, 46, 110
3, 54672, Note_off_c, 1, 46, 0
3, 54672, Note_on_c, 1, 48, 110
3, 54720, Note_off_c, 1, 48, 0
3, 54720, Note_on_c, 1, 50, 110
3, 54768, Note_off_c, 1, 50, 0
3, 54768, Note_on_c, 1, 46, 110
3, 54816, Note_off_c, 1, 46, 0
3, 54816, Note_on_c, 1, 48, 110
3, 54864, Note_off_c, 1, 48, 0
3, 54864, Note_on_c, 1, 58, 110
3, 54936, Note_off_c, 1, 58, 0
3, 54936, Note_on_c, 1, 68, 110
3, 54960, Note_off_c, 1, 68, 0
3, 54960, Note_on_c, 1, 50, 110
3, 55008, Note_off_c, 1, 50, 0
3, 55008, Note_on_c, 1, 51, 110
3, 55056, Note_off_c, 1, 51, 0
3, 55056, Note_on_c, 1, 53, 110
3, 55104, Note_off_c, 1, 53, 0
3, 55104, Note_on_c, 1, 55, 110
3, 55152, Note_off_c, 1, 55, 0
3, 55152, Note_on_c, 1, 51, 110
3, 55200, Note_off_c, 1, 51, 0
3, 55200, Note_on_c, 1, 53, 110
3, 55248, Note_off_c, 1, 53, 0
3, 55248, Note_on_c, 1, 55, 110
3, 55296, Note_off_c, 1, 55, 0
3, 55296, Note_on_c, 1, 56, 110
3, 55584, Note_off_c, 1, 56, 0
3, 55584, Note_on_c, 1, 59, 110
3, 55632, Note_off_c, 1, 59, 0
3, 55632, Note_on_c, 1, 60, 110
3, 55680, Note_off_c, 1, 60, 0
3, 55776, Note_on_c, 1, 55, 110
3, 55872, Note_off_c, 1, 55, 0
3, 55872, Note_on_c, 1, 56, 110
3, 55968, Note_off_c, 1, 56, 0
3, 55968, Note_on_c, 1, 55, 110
3, 56112, Note_off_c, 1, 55, 0
3, 56112, Note_on_c, 1, 59, 110
3, 56160, Note_off_c, 1, 59, 0
3, 56160, Note_on_c, 1, 60, 110
3, 56208, Note_off_c, 1, 60, 0
3, 56208, Note_on_c, 1, 62, 110
3, 56256, Note_off_c, 1, 62, 0
3, 56256, Note_on_c, 1, 63, 110
3, 56304, Note_off_c, 1, 63, 0
3, 56304, Note_on_c, 1, 60, 110
3, 56352, Note_off_c, 1, 60, 0
3, 56352, Note_on_c, 1, 62, 110
3, 56400, Note_off_c, 1, 62, 0
3, 56400, Note_on_c, 1, 64, 110
3, 56448, Note_off_c, 1, 64, 0
3, 56496, Note_on_c, 1, 60, 110
3, 56544, Note_off_c, 1, 60, 0
3, 56544, Note_on_c, 1, 53, 110
3, 56592, Note_off_c, 1, 53, 0
3, 56592, Note_on_c, 1, 55, 110
3, 56640, Note_off_c, 1, 55, 0
3, 56640, Note_on_c, 1, 57, 110
3, 56688, Note_off_c, 1, 57, 0
3, 56688, Note_on_c, 1, 53, 110
3, 56736, Note_off_c, 1, 53, 0
3, 56736, Note_on_c, 1, 55, 110
3, 56784, Note_off_c, 1, 55, 0
3, 56784, Note_on_c, 1, 57, 110
3, 56832, Note_off_c, 1, 57, 0
3, 56832, Note_on_c, 1, 58, 110
3, 57072, Note_off_c, 1, 58, 0
3, 57072, Note_on_c, 1, 65, 110
3, 57120, Note_off_c, 1, 65, 0
3, 57120, Note_on_c, 1, 57, 110
3, 57168, Note_off_c, 1, 57, 0
3, 57168, Note_on_c, 1, 58, 110
3, 57216, Note_off_c, 1, 58, 0
3, 57216, Note_on_c, 1, 60, 110
3, 57312, Note_off_c, 1, 60, 0
3, 57312, Note_on_c, 1, 53, 110
3, 57408, Note_off_c, 1, 53, 0
3, 57408, Note_on_c, 1, 63, 110
3, 57504, Note_off_c, 1, 63, 0
3, 57504, Note_on_c, 1, 65, 110
3, 57624, Note_off_c, 1, 65, 0
3, 57984, Note_on_c, 1, 52, 110
3, 58008, Note_off_c, 1, 52, 0
3, 58008, Note_on_c, 1, 55, 110
3, 58032, Note_off_c, 1, 55, 0
3, 58032, Note_on_c, 1, 52, 110
3, 58056, Note_off_c, 1, 52, 0
3, 58056, Note_on_c, 1, 55, 110
3, 58080, Note_off_c, 1, 55, 0
3, 58080, Note_on_c, 1, 53, 110
3, 58104, Note_off_c, 1, 53, 0
3, 58104, Note_on_c, 1, 56, 110
3, 58128, Note_off_c, 1, 56, 0
3, 58128, Note_on_c, 1, 53, 110
3, 58152, Note_off_c, 1, 53, 0
3, 58152, Note_on_c, 1, 56, 110
3, 58176, Note_off_c, 1, 56, 0
3, 58176, Note_on_c, 1, 53, 110
3, 58200, Note_off_c, 1, 53, 0
3, 58200, Note_on_c, 1, 58, 110
3, 58224, Note_off_c, 1, 58, 0
3, 58224, Note_on_c, 1, 53, 110
3, 58248, Note_off_c, 1, 53, 0
3, 58248, Note_on_c, 1, 58, 110
3, 58272, Note_off_c, 1, 58, 0
3, 58272, Note_on_c, 1, 52, 110
3, 58296, Note_off_c, 1, 52, 0
3, 58296, Note_on_c, 1, 58, 110
3, 58320, Note_off_c, 1, 58, 0
3, 58320, Note_on_c, 1, 52, 110
3, 58344, Note_off_c, 1, 52, 0
3, 58344, Note_on_c, 1, 58, 110
3, 58368, Note_off_c, 1, 58, 0
3, 58368, Note_on_c, 1, 56, 110
3, 58560, Note_off_c, 1, 56, 0
3, 58560, Note_on_c, 1, 56, 110
3, 58656, Note_off_c, 1, 56, 0
3, 58656, Note_on_c, 1, 61, 110
3, 58848, Note_off_c, 1, 61, 0
3, 58848, Note_on_c, 1, 60, 110
3, 58944, Note_off_c, 1, 60, 0
3, 58944, Note_on_c, 1, 58, 110
3, 59136, Note_off_c, 1, 58, 0
3, 59136, Note_on_c, 1, 60, 110
3, 59232, Note_off_c, 1, 60, 0
3, 59232, Note_on_c, 1, 60, 110
3, 59328, Note_off_c, 1, 60, 0
3, 59328, Note_on_c, 1, 58, 110
3, 59352, Note_off_c, 1, 58, 0
3, 59352, Note_on_c, 1, 60, 110
3, 59376, Note_off_c, 1, 60, 0
3, 59376, Note_on_c, 1, 58, 110
3, 59400, Note_off_c, 1, 58, 0
3, 59400, Note_on_c, 1, 56, 110
3, 59424, Note_off_c, 1, 56, 0
3, 59424, Note_on_c, 1, 55, 110
3, 59448, Note_off_c, 1, 55, 0
3, 59448, Note_on_c, 1, 58, 110
3, 59472, Note_off_c, 1, 58, 0
3, 59472, Note_on_c, 1, 55, 110
3, 59496, Note_off_c, 1, 55, 0
3, 59496, Note_on_c, 1, 58, 110
3, 59520, Note_off_c, 1, 58, 0
3, 59520, Note_on_c, 1, 51, 110
3, 59568, Note_off_c, 1, 51, 0
3, 59568, Note_on_c, 1, 55, 110
3, 59616, Note_off_c, 1, 55, 0
3, 59616, Note_on_c, 1, 60, 110
3, 59736, Note_off_c, 1, 60, 0
3, 59736, Note_on_c, 1, 63, 110
3, 59760, Note_off_c, 1, 63, 0
3, 59760, Note_on_c, 1, 62, 110
3, 59784, Note_off_c, 1, 62, 0
3, 59784, Note_on_c, 1, 60, 110
3, 59808, Note_off_c, 1, 60, 0
3, 59808, Note_on_c, 1, 58, 110
3, 59832, Note_off_c, 1, 58, 0
3, 59832, Note_on_c, 1, 56, 110
3, 59856, Note_off_c, 1, 56, 0
3, 59856, Note_on_c, 1, 55, 110
3, 59880, Note_off_c, 1, 55, 0
3, 59880, Note_on_c, 1, 53, 110
3, 59904, Note_off_c, 1, 53, 0
3, 59904, Note_on_c, 1, 51, 110
3, 59976, Note_off_c, 1, 51, 0
3, 59976, Note_on_c, 1, 53, 110
3, 60000, Note_off_c, 1, 53, 0
3, 60000, Note_on_c, 1, 55, 110
3, 60096, Note_off_c, 1, 55, 0
3, 60096, Note_on_c, 1, 56, 110
3, 60384, Note_off_c, 1, 56, 0
3, 60384, Note_on_c, 1, 51, 110
3, 60480, Note_off_c, 1, 51, 0
3, 60480, Note_on_c, 1, 53, 110
3, 60672, Note_off_c, 1, 53, 0
3, 60672, Note_on_c, 1, 51, 110
3, 60696, Note_off_c, 1, 51, 0
3, 60696, Note_on_c, 1, 50, 110
3, 60720, Note_off_c, 1, 50, 0
3, 60720, Note_on_c, 1, 48, 110
3, 60744, Note_off_c, 1, 48, 0
3, 60744, Note_on_c, 1, 46, 110
3, 60768, Note_off_c, 1, 46, 0
3, 60768, Note_on_c, 1, 48, 110
3, 60792, Note_off_c, 1, 48, 0
3, 60792, Note_on_c, 1, 46, 110
3, 60816, Note_off_c, 1, 46, 0
3, 60816, Note_on_c, 1, 44, 110
3, 60840, Note_off_c, 1, 44, 0
3, 60840, Note_on_c, 1, 43, 110
3, 60864, Note_off_c, 1, 43, 0
3, 60864, Note_on_c, 1, 41, 110
3, 60888, Note_off_c, 1, 41, 0
3, 60888, Note_on_c, 1, 51, 110
3, 60912, Note_off_c, 1, 51, 0
3, 60912, Note_on_c, 1, 50, 110
3, 60936, Note_off_c, 1, 50, 0
3, 60936, Note_on_c, 1, 48, 110
3, 60960, Note_off_c, 1, 48, 0
3, 60960, Note_on_c, 1, 50, 110
3, 60984, Note_off_c, 1, 50, 0
3, 60984, Note_on_c, 1, 48, 110
3, 61008, Note_off_c, 1, 48, 0
3, 61008, Note_on_c, 1, 46, 110
3, 61032, Note_off_c, 1, 46, 0
3, 61032, Note_on_c, 1, 44, 110
3, 61056, Note_off_c, 1, 44, 0
3, 61056, Note_on_c, 1, 43, 110
3, 61080, Note_off_c, 1, 43, 0
3, 61080, Note_on_c, 1, 53, 110
3, 61104, Note_off_c, 1, 53, 0
3, 61104, Note_on_c, 1, 51, 110
3, 61128, Note_off_c, 1, 51, 0
3, 61128, Note_on_c, 1, 50, 110
3, 61152, Note_off_c, 1, 50, 0
3, 61152, Note_on_c, 1, 51, 110
3, 61176, Note_off_c, 1, 51, 0
3, 61176, Note_on_c, 1, 50, 110
3, 61200, Note_off_c, 1, 50, 0
3, 61200, Note_on_c, 1, 48, 110
3, 61224, Note_off_c, 1, 48, 0
3, 61224, Note_on_c, 1, 46, 110
3, 61248, Note_off_c, 1, 46, 0
3, 61248, Note_on_c, 1, 45, 110
3, 61272, Note_off_c, 1, 45, 0
3, 61272, Note_on_c, 1, 54, 110
3, 61296, Note_off_c, 1, 54, 0
3, 61296, Note_on_c, 1, 53, 110
3, 61320, Note_off_c, 1, 53, 0
3, 61320, Note_on_c, 1, 51, 110
3, 61344, Note_off_c, 1, 51, 0
3, 61344, Note_on_c, 1, 53, 110
3, 61368, Note_off_c, 1, 53, 0
3, 61368, Note_on_c, 1, 51, 110
3, 61392, Note_off_c, 1, 51, 0
3, 61392, Note_on_c, 1, 49, 110
3, 61416, Note_off_c, 1, 49, 0
3, 61416, Note_on_c, 1, 48, 110
3, 61440, Note_off_c, 1, 48, 0
3, 61440, Note_on_c, 1, 46, 110
3, 61536, Note_off_c, 1, 46, 0
3, 61536, Note_on_c, 1, 48, 110
3, 61632, Note_off_c, 1, 48, 0
3, 61632, Note_on_c, 1, 49, 110
3, 61728, Note_off_c, 1, 49, 0
3, 61728, Note_on_c, 1, 51, 110
3, 61824, Note_off_c, 1, 51, 0
3, 61824, Note_on_c, 1, 57, 110
3, 61848, Note_off_c, 1, 57, 0
3, 61848, Note_on_c, 1, 60, 110
3, 61872, Note_off_c, 1, 60, 0
3, 61872, Note_on_c, 1, 57, 110
3, 61896, Note_off_c, 1, 57, 0
3, 61896, Note_on_c, 1, 60, 110
3, 61920, Note_off_c, 1, 60, 0
3, 61920, Note_on_c, 1, 58, 110
3, 61944, Note_off_c, 1, 58, 0
3, 61944, Note_on_c, 1, 61, 110
3, 61968, Note_off_c, 1, 61, 0
3, 61968, Note_on_c, 1, 58, 110
3, 61992, Note_off_c, 1, 58, 0
3, 61992, Note_on_c, 1, 61, 110
3, 62016, Note_off_c, 1, 61, 0
3, 62016, Note_on_c, 1, 58, 110
3, 62040, Note_off_c, 1, 58, 0
3, 62040, Note_on_c, 1, 63, 110
3, 62064, Note_off_c, 1, 63, 0
3, 62064, Note_on_c, 1, 58, 110
3, 62088, Note_off_c, 1, 58, 0
3, 62088, Note_on_c, 1, 63, 110
3, 62112, Note_off_c, 1, 63, 0
3, 62112, Note_on_c, 1, 53, 110
3, 62208, Note_off_c, 1, 53, 0
3, 62208, Note_on_c, 1, 46, 110
3, 62256, Note_off_c, 1, 46, 0
3, 62256, Note_on_c, 1, 53, 110
3, 62304, Note_off_c, 1, 53, 0
3, 62304, Note_on_c, 1, 58, 110
3, 62352, Note_off_c, 1, 58, 0
3, 62352, Note_on_c, 1, 56, 110
3, 62400, Note_off_c, 1, 56, 0
3, 62400, Note_on_c, 1, 55, 110
3, 62448, Note_off_c, 1, 55, 0
3, 62448, Note_on_c, 1, 58, 110
3, 62496, Note_off_c, 1, 58, 0
3, 62496, Note_on_c, 1, 52, 110
3, 62544, Note_off_c, 1, 52, 0
3, 62544, Note_on_c, 1, 55, 110
3, 62592, Note_off_c, 1, 55, 0
3, 62592, Note_on_c, 1, 48, 110
3, 62640, Note_off_c, 1, 48, 0
3, 62640, Note_on_c, 1, 55, 110
3, 62688, Note_off_c, 1, 55, 0
3, 62688, Note_on_c, 1, 60, 110
3, 62736, Note_off_c, 1, 60, 0
3, 62736, Note_on_c, 1, 58, 110
3, 62784, Note_off_c, 1, 58, 0
3, 62784, Note_on_c, 1, 56, 110
3, 62832, Note_off_c, 1, 56, 0
3, 62832, Note_on_c, 1, 60, 110
3, 62880, Note_off_c, 1, 60, 0
3, 62880, Note_on_c, 1, 53, 110
3, 62928, Note_off_c, 1, 53, 0
3, 62928, Note_on_c, 1, 56, 110
3, 62976, Note_off_c, 1, 56, 0
3, 62976, Note_on_c, 1, 49, 110
3, 63072, Note_off_c, 1, 49, 0
3, 63072, Note_on_c, 1, 46, 110
3, 63168, Note_off_c, 1, 46, 0
3, 63168, Note_on_c, 1, 48, 110
3, 63264, Note_off_c, 1, 48, 0
3, 63264, Note_on_c, 1, 49, 110
3, 63360, Note_off_c, 1, 49, 0
3, 63360, Note_on_c, 1, 48, 110
3, 63408, Note_off_c, 1, 48, 0
3, 63408, Note_on_c, 1, 41, 110
3, 63456, Note_off_c, 1, 41, 0
3, 63456, Note_on_c, 1, 56, 110
3, 63648, Note_off_c, 1, 56, 0
3, 63648, Note_on_c, 1, 55, 110
3, 63744, Note_off_c, 1, 55, 0
3, 63744, Note_on_c, 1, 53, 110
3, 63840, Note_off_c, 1, 53, 0
3, 63888, Note_on_c, 1, 56, 110
3, 63984, Note_off_c, 1, 56, 0
3, 63984, Note_on_c, 1, 56, 110
3, 64032, Note_off_c, 1, 56, 0
3, 64032, Note_on_c, 1, 55, 110
3, 64080, Note_off_c, 1, 55, 0
3, 64080, Note_on_c, 1, 53, 110
3, 64128, Note_off_c, 1, 53, 0
3, 64128, Note_on_c, 1, 51, 110
3, 64152, Note_off_c, 1, 51, 0
3, 64152, Note_on_c, 1, 53, 110
3, 64176, Note_off_c, 1, 53, 0
3, 64176, Note_on_c, 1, 51, 110
3, 64200, Note_off_c, 1, 51, 0
3, 64200, Note_on_c, 1, 50, 110
3, 64224, Note_off_c, 1, 50, 0
3, 64224, Note_on_c, 1, 51, 110
3, 64248, Note_off_c, 1, 51, 0
3, 64248, Note_on_c, 1, 55, 110
3, 64272, Note_off_c, 1, 55, 0
3, 64272, Note_on_c, 1, 53, 110
3, 64296, Note_off_c, 1, 53, 0
3, 64296, Note_on_c, 1, 51, 110
3, 64320, Note_off_c, 1, 51, 0
3, 64320, Note_on_c, 1, 50, 110
3, 64344, Note_off_c, 1, 50, 0
3, 64344, Note_on_c, 1, 48, 110
3, 64368, Note_off_c, 1, 48, 0
3, 64368, Note_on_c, 1, 47, 110
3, 64392, Note_off_c, 1, 47, 0
3, 64392, Note_on_c, 1, 45, 110
3, 64416, Note_off_c, 1, 45, 0
3, 64416, Note_on_c, 1, 43, 110
3, 64440, Note_off_c, 1, 43, 0
3, 64440, Note_on_c, 1, 41, 110
3, 64464, Note_off_c, 1, 41, 0
3, 64464, Note_on_c, 1, 39, 110
3, 64488, Note_off_c, 1, 39, 0
3, 64488, Note_on_c, 1, 38, 110
3, 64512, Note_off_c, 1, 38, 0
3, 64512, Note_on_c, 1, 36, 110
3, 64560, Note_off_c, 1, 36, 0
3, 64560, Note_on_c, 1, 60, 110
3, 64656, Note_off_c, 1, 60, 0
3, 64656, Note_on_c, 1, 60, 110
3, 64728, Note_off_c, 1, 60, 0
3, 64728, Note_on_c, 1, 58, 110
3, 64752, Note_off_c, 1, 58, 0
3, 64752, Note_on_c, 1, 56, 110
3, 64776, Note_off_c, 1, 56, 0
3, 64776, Note_on_c, 1, 55, 110
3, 64800, Note_off_c, 1, 55, 0
3, 64800, Note_on_c, 1, 53, 110
3, 64824, Note_off_c, 1, 53, 0
3, 64824, Note_on_c, 1, 51, 110
3, 64848, Note_off_c, 1, 51, 0
3, 64848, Note_on_c, 1, 50, 110
3, 64872, Note_off_c, 1, 50, 0
3, 64872, Note_on_c, 1, 48, 110
3, 64896, Note_off_c, 1, 48, 0
3, 64896, Note_on_c, 1, 47, 110
3, 64920, Note_off_c, 1, 47, 0
3, 64920, Note_on_c, 1, 50, 110
3, 64944, Note_off_c, 1, 50, 0
3, 64944, Note_on_c, 1, 47, 110
3, 64968, Note_off_c, 1, 47, 0
3, 64968, Note_on_c, 1, 50, 110
3, 64992, Note_off_c, 1, 50, 0
3, 64992, Note_on_c, 1, 48, 110
3, 65016, Note_off_c, 1, 48, 0
3, 65016, Note_on_c, 1, 51, 110
3, 65040, Note_off_c, 1, 51, 0
3, 65040, Note_on_c, 1, 48, 110
3, 65064, Note_off_c, 1, 48, 0
3, 65064, Note_on_c, 1, 51, 110
3, 65088, Note_off_c, 1, 51, 0
3, 65088, Note_on_c, 1, 48, 110
3, 65112, Note_off_c, 1, 48, 0
3, 65112, Note_on_c, 1, 53, 110
3, 65136, Note_off_c, 1, 53, 0
3, 65136, Note_on_c, 1, 48, 110
3, 65160, Note_off_c, 1, 48, 0
3, 65160, Note_on_c, 1, 53, 110
3, 65184, Note_off_c, 1, 53, 0
3, 65184, Note_on_c, 1, 47, 110
3, 65208, Note_off_c, 1, 47, 0
3, 65208, Note_on_c, 1, 55, 110
3, 65232, Note_off_c, 1, 55, 0
3, 65232, Note_on_c, 1, 47, 110
3, 65256, Note_off_c, 1, 47, 0
3, 65256, Note_on_c, 1, 55, 110
3, 65280, Note_off_c, 1, 55, 0
3, 65280, Note_on_c, 1, 48, 110
3, 65304, Note_off_c, 1, 48, 0
3, 65304, Note_on_c, 1, 53, 110
3, 65328, Note_off_c, 1, 53, 0
3, 65328, Note_on_c, 1, 51, 110
3, 65352, Note_off_c, 1, 51, 0
3, 65352, Note_on_c, 1, 50, 110
3, 65376, Note_off_c, 1, 50, 0
3, 65376, Note_on_c, 1, 51, 110
3, 65400, Note_off_c, 1, 51, 0
3, 65400, Note_on_c, 1, 55, 110
3, 65424, Note_off_c, 1, 55, 0
3, 65424, Note_on_c, 1, 51, 110
3, 65448, Note_off_c, 1, 51, 0
3, 65448, Note_on_c, 1, 55, 110
3, 65472, Note_off_c, 1, 55, 0
3, 65472, Note_on_c, 1, 41, 110
3, 65496, Note_off_c, 1, 41, 0
3, 65496, Note_on_c, 1, 55, 110
3, 65520, Note_off_c, 1, 55, 0
3, 65520, Note_on_c, 1, 53, 110
3, 65544, Note_off_c, 1, 53, 0
3, 65544, Note_on_c, 1, 51, 110
3, 65568, Note_off_c, 1, 51, 0
3, 65568, Note_on_c, 1, 53, 110
3, 65592, Note_off_c, 1, 53, 0
3, 65592, Note_on_c, 1, 56, 110
3, 65616, Note_off_c, 1, 56, 0
3, 65616, Note_on_c, 1, 53, 110
3, 65640, Note_off_c, 1, 53, 0
3, 65640, Note_on_c, 1, 56, 110
3, 65664, Note_off_c, 1, 56, 0
3, 65664, Note_on_c, 1, 46, 110
3, 65688, Note_off_c, 1, 46, 0
3, 65688, Note_on_c, 1, 51, 110
3, 65712, Note_off_c, 1, 51, 0
3, 65712, Note_on_c, 1, 49, 110
3, 65736, Note_off_c, 1, 49, 0
3, 65736, Note_on_c, 1, 48, 110
3, 65760, Note_off_c, 1, 48, 0
3, 65760, Note_on_c, 1, 49, 110
3, 65784, Note_off_c, 1, 49, 0
3, 65784, Note_on_c, 1, 53, 110
3, 65808, Note_off_c, 1, 53, 0
3, 65808, Note_on_c, 1, 49, 110
3, 65832, Note_off_c, 1, 49, 0
3, 65832, Note_on_c, 1, 53, 110
3, 65856, Note_off_c, 1, 53, 0
3, 65856, Note_on_c, 1, 39, 110
3, 65880, Note_off_c, 1, 39, 0
3, 65880, Note_on_c, 1, 53, 110
3, 65904, Note_off_c, 1, 53, 0
3, 65904, Note_on_c, 1, 51, 110
3, 65928, Note_off_c, 1, 51, 0
3, 65928, Note_on_c, 1, 49, 110
3, 65952, Note_off_c, 1, 49, 0
3, 65952, Note_on_c, 1, 51, 110
3, 65976, Note_off_c, 1, 51, 0
3, 65976, Note_on_c, 1, 55, 110
3, 66000, Note_off_c, 1, 55, 0
3, 66000, Note_on_c, 1, 51, 110
3, 66024, Note_off_c, 1, 51, 0
3, 66024, Note_on_c, 1, 55, 110
3, 66048, Note_off_c, 1, 55, 0
3, 66048, Note_on_c, 1, 44, 110
3, 66072, Note_off_c, 1, 44, 0
3, 66072, Note_on_c, 1, 49, 110
3, 66096, Note_off_c, 1, 49, 0
3, 66096, Note_on_c, 1, 48, 110
3, 66120, Note_off_c, 1, 48, 0
3, 66120, Note_on_c, 1, 46, 110
3, 66144, Note_off_c, 1, 46, 0
3, 66144, Note_on_c, 1, 48, 110
3, 66168, Note_off_c, 1, 48, 0
3, 66168, Note_on_c, 1, 51, 110
3, 66192, Note_off_c, 1, 51, 0
3, 66192, Note_on_c, 1, 48, 110
3, 66216, Note_off_c, 1, 48, 0
3, 66216, Note_on_c, 1, 51, 110
3, 66240, Note_off_c, 1, 51, 0
3, 66240, Note_on_c, 1, 38, 110
3, 66264, Note_off_c, 1, 38, 0
3, 66264, Note_on_c, 1, 51, 110
3, 66288, Note_off_c, 1, 51, 0
3, 66288, Note_on_c, 1, 50, 110
3, 66312, Note_off_c, 1, 50, 0
3, 66312, Note_on_c, 1, 48, 110
3, 66336, Note_off_c, 1, 48, 0
3, 66336, Note_on_c, 1, 50, 110
3, 66360, Note_off_c, 1, 50, 0
3, 66360, Note_on_c, 1, 53, 110
3, 66384, Note_off_c, 1, 53, 0
3, 66384, Note_on_c, 1, 50, 110
3, 66408, Note_off_c, 1, 50, 0
3, 66408, Note_on_c, 1, 53, 110
3, 66432, Note_off_c, 1, 53, 0
3, 66432, Note_on_c, 1, 43, 110
3, 66528, Note_off_c, 1, 43, 0
3, 66624, Note_on_c, 1, 55, 110
3, 66768, Note_off_c, 1, 55, 0
3, 66768, Note_on_c, 1, 55, 110
3, 66816, Note_off_c, 1, 55, 0
3, 66816, Note_on_c, 1, 55, 110
3, 67200, Note_off_c, 1, 55, 0
3, 67536, Note_on_c, 1, 58, 110
3, 67584, Note_off_c, 1, 58, 0
3, 67584, Note_on_c, 1, 51, 110
3, 67968, Note_off_c, 1, 51, 0
3, 68136, Note_on_c, 1, 55, 110
3, 68160, Note_off_c, 1, 55, 0
3, 68160, Note_on_c, 1, 60, 110
3, 68496, Note_off_c, 1, 60, 0
3, 68520, Note_on_c, 1, 60, 110
3, 68544, Note_off_c, 1, 60, 0
3, 68544, Note_on_c, 1, 58, 110
3, 69000, Note_off_c, 1, 58, 0
3, 69000, Note_on_c, 1, 57, 110
3, 69024, Note_off_c, 1, 57, 0
3, 69024, Note_on_c, 1, 55, 110
3, 69096, Note_off_c, 1, 55, 0
3, 69096, Note_on_c, 1, 53, 110
3, 69120, Note_off_c, 1, 53, 0
3, 69120, Note_on_c, 1, 58, 110
3, 69384, Note_off_c, 1, 58, 0
3, 69384, Note_on_c, 1, 62, 110
3, 69408, Note_off_c, 1, 62, 0
3, 69408, Note_on_c, 1, 60, 110
3, 69480, Note_off_c, 1, 60, 0
3, 69480, Note_on_c, 1, 58, 110
3, 69504, Note_off_c, 1, 58, 0
3, 69504, Note_on_c, 1, 60, 110
3, 69768, Note_off_c, 1, 60, 0
3, 69768, Note_on_c, 1, 58, 110
3, 69792, Note_off_c, 1, 58, 0
3, 69792, Note_on_c, 1, 57, 110
3, 69864, Note_off_c, 1, 57, 0
3, 69864, Note_on_c, 1, 55, 110
3, 69888, Note_off_c, 1, 55, 0
3, 69888, Note_on_c, 1, 53, 110
3, 70152, Note_off_c, 1, 53, 0
3, 70152, Note_on_c, 1, 51, 110
3, 70176, Note_off_c, 1, 51, 0
3, 70176, Note_on_c, 1, 50, 110
3, 70248, Note_off_c, 1, 50, 0
3, 70248, Note_on_c, 1, 53, 110
3, 70272, Note_off_c, 1, 53, 0
3, 70272, Note_on_c, 1, 53, 110
3, 70464, Note_off_c, 1, 53, 0
3, 70536, Note_on_c, 1, 53, 110
3, 70560, Note_off_c, 1, 53, 0
3, 70560, Note_on_c, 1, 51, 110
3, 70632, Note_off_c, 1, 51, 0
3, 70632, Note_on_c, 1, 53, 110
3, 70656, Note_off_c, 1, 53, 0
3, 70656, Note_on_c, 1, 55, 110
3, 70920, Note_off_c, 1, 55, 0
3, 70920, Note_on_c, 1, 55, 110
3, 70944, Note_off_c, 1, 55, 0
3, 70944, Note_on_c, 1, 53, 110
3, 71016, Note_off_c, 1, 53, 0
3, 71016, Note_on_c, 1, 55, 110
3, 71040, Note_off_c, 1, 55, 0
3, 71040, Note_on_c, 1, 57, 110
3, 71232, Note_off_c, 1, 57, 0
3, 71232, Note_on_c, 1, 50, 110
3, 71520, Note_off_c, 1, 50, 0
3, 71688, Note_on_c, 1, 55, 110
3, 71712, Note_off_c, 1, 55, 0
3, 71712, Note_on_c, 1, 57, 110
3, 71784, Note_off_c, 1, 57, 0
3, 71784, Note_on_c, 1, 58, 110
3, 71808, Note_off_c, 1, 58, 0
3, 71808, Note_on_c, 1, 60, 110
3, 72000, Note_off_c, 1, 60, 0
3, 72000, Note_on_c, 1, 65, 110
3, 72576, Note_off_c, 1, 65, 0
3, 72576, Note_on_c, 1, 53, 110
3, 72696, Note_off_c, 1, 53, 0
3, 72696, Note_on_c, 1, 51, 110
3, 72720, Note_off_c, 1, 51, 0
3, 72720, Note_on_c, 1, 50, 110
3, 72744, Note_off_c, 1, 50, 0
3, 72744, Note_on_c, 1, 48, 110
3, 72768, Note_off_c, 1, 48, 0
3, 72768, Note_on_c, 1, 46, 110
3, 72912, Note_off_c, 1, 46, 0
3, 72912, Note_on_c, 1, 56, 110
3, 72960, Note_off_c, 1, 56, 0
3, 72960, Note_on_c, 1, 56, 110
3, 73152, Note_off_c, 1, 56, 0
3, 73152, Note_on_c, 1, 55, 110
3, 73344, Note_off_c, 1, 55, 0
3, 73344, Note_on_c, 1, 62, 110
3, 73464, Note_off_c, 1, 62, 0
3, 73464, Note_on_c, 1, 60, 110
3, 73488, Note_off_c, 1, 60, 0
3, 73488, Note_on_c, 1, 59, 110
3, 73512, Note_off_c, 1, 59, 0
3, 73512, Note_on_c, 1, 57, 110
3, 73536, Note_off_c, 1, 57, 0
3, 73536, Note_on_c, 1, 55, 110
3, 73680, Note_off_c, 1, 55, 0
3, 73680, Note_on_c, 1, 53, 110
3, 73728, Note_off_c, 1, 53, 0
3, 73728, Note_on_c, 1, 55, 110
3, 74112, Note_off_c, 1, 55, 0
3, 74112, Note_on_c, 1, 53, 110
3, 74304, Note_off_c, 1, 53, 0
3, 74304, Note_on_c, 1, 50, 110
3, 74496, Note_off_c, 1, 50, 0
3, 74496, Note_on_c, 1, 51, 110
3, 74688, Note_off_c, 1, 51, 0
3, 74880, Note_on_c, 1, 60, 110
3, 75216, Note_off_c, 1, 60, 0
3, 75240, Note_on_c, 1, 51, 110
3, 75264, Note_off_c, 1, 51, 0
3, 75264, Note_on_c, 1, 58, 110
3, 75408, Note_off_c, 1, 58, 0
3, 75432, Note_on_c, 1, 60, 110
3, 75456, Note_off_c, 1, 60, 0
3, 75456, Note_on_c, 1, 58, 110
3, 75600, Note_off_c, 1, 58, 0
3, 75624, Note_on_c, 1, 58, 110
3, 75648, Note_off_c, 1, 58, 0
3, 75648, Note_on_c, 1, 58, 110
3, 75660, Note_off_c, 1, 58, 0
3, 75660, Note_on_c, 1, 60, 110
3, 75672, Note_off_c, 1, 60, 0
3, 75672, Note_on_c, 1, 58, 110
3, 75684, Note_off_c, 1, 58, 0
3, 75684, Note_on_c, 1, 60, 110
3, 75696, Note_off_c, 1, 60, 0
3, 75696, Note_on_c, 1, 58, 110
3, 75708, Note_off_c, 1, 58, 0
3, 75708, Note_on_c, 1, 60, 110
3, 75720, Note_off_c, 1, 60, 0
3, 75720, Note_on_c, 1, 58, 110
3, 75732, Note_off_c, 1, 58, 0
3, 75732, Note_on_c, 1, 60, 110
3, 75744, Note_off_c, 1, 60, 0
3, 75744, Note_on_c, 1, 58, 110
3, 75756, Note_off_c, 1, 58, 0
3, 75756, Note_on_c, 1, 60, 110
3, 75768, Note_off_c, 1, 60, 0
3, 75768, Note_on_c, 1, 58, 110
3, 75780, Note_off_c, 1, 58, 0
3, 75780, Note_on_c, 1, 60, 110
3, 75792, Note_off_c, 1, 60, 0
3, 75792, Note_on_c, 1, 58, 110
3, 75804, Note_off_c, 1, 58, 0
3, 75804, Note_on_c, 1, 60, 110
3, 75816, Note_off_c, 1, 60, 0
3, 75816, Note_on_c, 1, 58, 110
3, 75828, Note_off_c, 1, 58, 0
3, 75828, Note_on_c, 1, 60, 110
3, 75840, Note_off_c, 1, 60, 0
3, 75840, Note_on_c, 1, 58, 110
3, 75852, Note_off_c, 1, 58, 0
3, 75852, Note_on_c, 1, 60, 110
3, 75864, Note_off_c, 1, 60, 0
3, 75864, Note_on_c, 1, 58, 110
3, 75876, Note_off_c, 1, 58, 0
3, 75876, Note_on_c, 1, 60, 110
3, 75888, Note_off_c, 1, 60, 0
3, 75888, Note_on_c, 1, 58, 110
3, 75900, Note_off_c, 1, 58, 0
3, 75900, Note_on_c, 1, 60, 110
3, 75912, Note_off_c, 1, 60, 0
3, 75912, Note_on_c, 1, 58, 110
3, 75924, Note_off_c, 1, 58, 0
3, 75924, Note_on_c, 1, 60, 110
3, 75936, Note_off_c, 1, 60, 0
3, 75936, Note_on_c, 1, 58, 110
3, 75948, Note_off_c, 1, 58, 0
3, 75948, Note_on_c, 1, 60, 110
3, 75960, Note_off_c, 1, 60, 0
3, 75960, Note_on_c, 1, 58, 110
3, 75972, Note_off_c, 1, 58, 0
3, 75972, Note_on_c, 1, 60, 110
3, 75984, Note_off_c, 1, 60, 0
3, 75984, Note_on_c, 1, 58, 110
3, 75996, Note_off_c, 1, 58, 0
3, 75996, Note_on_c, 1, 60, 110
3, 76008, Note_off_c, 1, 60, 0
3, 76008, Note_on_c, 1, 58, 110
3, 76020, Note_off_c, 1, 58, 0
3, 76020, Note_on_c, 1, 60, 110
3, 76032, Note_off_c, 1, 60, 0
3, 76032, Note_on_c, 1, 58, 110
3, 76044, Note_off_c, 1, 58, 0
3, 76044, Note_on_c, 1, 60, 110
3, 76056, Note_off_c, 1, 60, 0
3, 76056, Note_on_c, 1, 58, 110
3, 76068, Note_off_c, 1, 58, 0
3, 76068, Note_on_c, 1, 60, 110
3, 76080, Note_off_c, 1, 60, 0
3, 76080, Note_on_c, 1, 58, 110
3, 76092, Note_off_c, 1, 58, 0
3, 76092, Note_on_c, 1, 60, 110
3, 76104, Note_off_c, 1, 60, 0
3, 76104, Note_on_c, 1, 58, 110
3, 76116, Note_off_c, 1, 58, 0
3, 76116, Note_on_c, 1, 60, 110
3, 76128, Note_off_c, 1, 60, 0
3, 76128, Note_on_c, 1, 58, 110
3, 76140, Note_off_c, 1, 58, 0
3, 76140, Note_on_c, 1, 60, 110
3, 76152, Note_off_c, 1, 60, 0
3, 76152, Note_on_c, 1, 58, 110
3, 76164, Note_off_c, 1, 58, 0
3, 76164, Note_on_c, 1, 60, 110
3, 76176, Note_off_c, 1, 60, 0
3, 76176, Note_on_c, 1, 58, 110
3, 76188, Note_off_c, 1, 58, 0
3, 76188, Note_on_c, 1, 60, 110
3, 76200, Note_off_c, 1, 60, 0
3, 76200, Note_on_c, 1, 58, 110
3, 76212, Note_off_c, 1, 58, 0
3, 76212, Note_on_c, 1, 60, 110
3, 76224, Note_off_c, 1, 60, 0
3, 76224, Note_on_c, 1, 58, 110
3, 76236, Note_off_c, 1, 58, 0
3, 76236, Note_on_c, 1, 60, 110
3, 76248, Note_off_c, 1, 60, 0
3, 76248, Note_on_c, 1, 58, 110
3, 76260, Note_off_c, 1, 58, 0
3, 76260, Note_on_c, 1, 60, 110
3, 76272, Note_off_c, 1, 60, 0
3, 76272, Note_on_c, 1, 58, 110
3, 76284, Note_off_c, 1, 58, 0
3, 76284, Note_on_c, 1, 60, 110
3, 76296, Note_off_c, 1, 60, 0
3, 76296, Note_on_c, 1, 58, 110
3, 76308, Note_off_c, 1, 58, 0
3, 76308, Note_on_c, 1, 60, 110
3, 76320, Note_off_c, 1, 60, 0
3, 76320, Note_on_c, 1, 58, 110
3, 76332, Note_off_c, 1, 58, 0
3, 76332, Note_on_c, 1, 60, 110
3, 76344, Note_off_c, 1, 60, 0
3, 76344, Note_on_c, 1, 58, 110
3, 76356, Note_off_c, 1, 58, 0
3, 76356, Note_on_c, 1, 60, 110
3, 76368, Note_off_c, 1, 60, 0
3, 76368, Note_on_c, 1, 58, 110
3, 76380, Note_off_c, 1, 58, 0
3, 76380, Note_on_c, 1, 60, 110
3, 76392, Note_off_c, 1, 60, 0
3, 76392, Note_on_c, 1, 58, 110
3, 76404, Note_off_c, 1, 58, 0
3, 76404, Note_on_c, 1, 60, 110
3, 76416, Note_off_c, 1, 60, 0
3, 76416, Note_on_c, 1, 58, 110
3, 76488, Note_off_c, 1, 58, 0
3, 76488, Note_on_c, 1, 56, 110
3, 76512, Note_off_c, 1, 56, 0
3, 76512, Note_on_c, 1, 55, 110
3, 76584, Note_off_c, 1, 55, 0
3, 76584, Note_on_c, 1, 53, 110
3, 76608, Note_off_c, 1, 53, 0
3, 76608, Note_on_c, 1, 55, 110
3, 76680, Note_off_c, 1, 55, 0
3, 76680, Note_on_c, 1, 51, 110
3, 76704, Note_off_c, 1, 51, 0
3, 76704, Note_on_c, 1, 50, 110
3, 76716, Note_off_c, 1, 50, 0
3, 76716, Note_on_c, 1, 51, 110
3, 76728, Note_off_c, 1, 51, 0
3, 76728, Note_on_c, 1, 50, 110
3, 76776, Note_off_c, 1, 50, 0
3, 76776, Note_on_c, 1, 48, 110
3, 76800, Note_off_c, 1, 48, 0
3, 76800, Note_on_c, 1, 46, 110
3, 76872, Note_off_c, 1, 46, 0
3, 76872, Note_on_c, 1, 55, 110
3, 76896, Note_off_c, 1, 55, 0
3, 76896, Note_on_c, 1, 53, 110
3, 76968, Note_off_c, 1, 53, 0
3, 76968, Note_on_c, 1, 51, 110
3, 76992, Note_off_c, 1, 51, 0
3, 76992, Note_on_c, 1, 53, 110
3, 77328, Note_off_c, 1, 53, 0
3, 77352, Note_on_c, 1, 53, 110
3, 77376, Note_off_c, 1, 53, 0
3, 77376, Note_on_c, 1, 51, 110
3, 77520, Note_off_c, 1, 51, 0
3, 77544, Note_on_c, 1, 55, 110
3, 77568, Note_off_c, 1, 55, 0
3, 77568, Note_on_c, 1, 56, 110
3, 77760, Note_off_c, 1, 56, 0
3, 77928, Note_on_c, 1, 53, 110
3, 77952, Note_off_c, 1, 53, 0
3, 77952, Note_on_c, 1, 55, 110
3, 78048, Note_off_c, 1, 55, 0
3, 78048, Note_on_c, 1, 55, 110
3, 78144, Note_off_c, 1, 55, 0
3, 78144, Note_on_c, 1, 51, 110
3, 78240, Note_off_c, 1, 51, 0
3, 78240, Note_on_c, 1, 56, 110
3, 78336, Note_off_c, 1, 56, 0
3, 78336, Note_on_c, 1, 51, 110
3, 78876, Note_off_c, 1, 51, 0
3, 79104, Note_on_c, 1, 58, 93
3, 79488, Note_off_c, 1, 58, 0
3, 79488, Note_on_c, 1, 55, 93
3, 79680, Note_off_c, 1, 55, 0
3, 79680, Note_on_c, 1, 60, 93
3, 79872, Note_off_c, 1, 60, 0
3, 79872, Note_on_c, 1, 58, 93
3, 80064, Note_off_c, 1, 58, 0
3, 80064, Note_on_c, 1, 63, 93
3, 80448, Note_off_c, 1, 63, 0
3, 80448, Note_on_c, 1, 62, 93
3, 80640, Note_off_c, 1, 62, 0
3, 80640, Note_on_c, 1, 51, 93
3, 81024, Note_off_c, 1, 51, 0
3, 81024, Note_on_c, 1, 50, 93
3, 81216, Note_off_c, 1, 50, 0
3, 81216, Note_on_c, 1, 55, 93
3, 81408, Note_off_c, 1, 55, 0
3, 81408, Note_on_c, 1, 51, 93
3, 81600, Note_off_c, 1, 51, 0
3, 81600, Note_on_c, 1, 58, 93
3, 81984, Note_off_c, 1, 58, 0
3, 81984, Note_on_c, 1, 57, 93
3, 82176, Note_off_c, 1, 57, 0
3, 82176, Note_on_c, 1, 58, 93
3, 82272, Note_off_c, 1, 58, 0
3, 82272, Note_on_c, 1, 60, 93
3, 82368, Note_off_c, 1, 60, 0
3, 82368, Note_on_c, 1, 62, 93
3, 82464, Note_off_c, 1, 62, 0
3, 82464, Note_on_c, 1, 63, 93
3, 82560, Note_off_c, 1, 63, 0
3, 82560, Note_on_c, 1, 65, 93
3, 82656, Note_off_c, 1, 65, 0
3, 82656, Note_on_c, 1, 53, 93
3, 82752, Note_off_c, 1, 53, 0
3, 82752, Note_on_c, 1, 60, 93
3, 82848, Note_off_c, 1, 60, 0
3, 82848, Note_on_c, 1, 62, 93
3, 82944, Note_off_c, 1, 62, 0
3, 82944, Note_on_c, 1, 63, 93
3, 83040, Note_off_c, 1, 63, 0
3, 83040, Note_on_c, 1, 51, 93
3, 83136, Note_off_c, 1, 51, 0
3, 83136, Note_on_c, 1, 53, 93
3, 83232, Note_off_c, 1, 53, 0
3, 83232, Note_on_c, 1, 55, 93
3, 83328, Note_off_c, 1, 55, 0
3, 83328, Note_on_c, 1, 56, 93
3, 83808, Note_off_c, 1, 56, 0
3, 83808, Note_on_c, 1, 55, 93
3, 83904, Note_off_c, 1, 55, 0
3, 83904, Note_on_c, 1, 56, 93
3, 84000, Note_off_c, 1, 56, 0
3, 84000, Note_on_c, 1, 58, 93
3, 84096, Note_off_c, 1, 58, 0
3, 84096, Note_on_c, 1, 60, 93
3, 84192, Note_off_c, 1, 60, 0
3, 84192, Note_on_c, 1, 58, 93
3, 84288, Note_off_c, 1, 58, 0
3, 84288, Note_on_c, 1, 60, 93
3, 84384, Note_off_c, 1, 60, 0
3, 84384, Note_on_c, 1, 62, 93
3, 84480, Note_off_c, 1, 62, 0
3, 84480, Note_on_c, 1, 63, 93
3, 84576, Note_off_c, 1, 63, 0
3, 84576, Note_on_c, 1, 62, 93
3, 84672, Note_off_c, 1, 62, 0
3, 84672, Note_on_c, 1, 60, 93
3, 84768, Note_off_c, 1, 60, 0
3, 84768, Note_on_c, 1, 58, 93
3, 84864, Note_off_c, 1, 58, 0
3, 84864, Note_on_c, 1, 56, 93
3, 84960, Note_off_c, 1, 56, 0
3, 84960, Note_on_c, 1, 53, 93
3, 85056, Note_off_c, 1, 53, 0
3, 85056, Note_on_c, 1, 58, 93
3, 85152, Note_off_c, 1, 58, 0
3, 85152, Note_on_c, 1, 56, 93
3, 85248, Note_off_c, 1, 56, 0
3, 85248, Note_on_c, 1, 58, 93
3, 85344, Note_off_c, 1, 58, 0
3, 85344, Note_on_c, 1, 56, 93
3, 85440, Note_off_c, 1, 56, 0
3, 85440, Note_on_c, 1, 58, 93
3, 85536, Note_off_c, 1, 58, 0
3, 85536, Note_on_c, 1, 60, 93
3, 85632, Note_off_c, 1, 60, 0
3, 85632, Note_on_c, 1, 62, 93
3, 85824, Note_off_c, 1, 62, 0
3, 85824, Note_on_c, 1, 58, 93
3, 86112, Note_off_c, 1, 58, 0
3, 86112, Note_on_c, 1, 53, 93
3, 86208, Note_off_c, 1, 53, 0
3, 86208, Note_on_c, 1, 51, 93
3, 86304, Note_off_c, 1, 51, 0
3, 86304, Note_on_c, 1, 50, 93
3, 86400, Note_off_c, 1, 50, 0
3, 86400, Note_on_c, 1, 51, 93
3, 86496, Note_off_c, 1, 51, 0
3, 86496, Note_on_c, 1, 48, 93
3, 86592, Note_off_c, 1, 48, 0
3, 86592, Note_on_c, 1, 53, 93
3, 86688, Note_off_c, 1, 53, 0
3, 86688, Note_on_c, 1, 51, 93
3, 86784, Note_off_c, 1, 51, 0
3, 86784, Note_on_c, 1, 50, 93
3, 86880, Note_off_c, 1, 50, 0
3, 86880, Note_on_c, 1, 48, 93
3, 86976, Note_off_c, 1, 48, 0
3, 86976, Note_on_c, 1, 46, 93
3, 87072, Note_off_c, 1, 46, 0
3, 87072, Note_on_c, 1, 48, 93
3, 87168, Note_off_c, 1, 48, 0
3, 87168, Note_on_c, 1, 50, 93
3, 87264, Note_off_c, 1, 50, 0
3, 87264, Note_on_c, 1, 51, 93
3, 87360, Note_off_c, 1, 51, 0
3, 87360, Note_on_c, 1, 53, 93
3, 87552, Note_off_c, 1, 53, 0
3, 87552, Note_on_c, 1, 60, 93
3, 87744, Note_off_c, 1, 60, 0
3, 87744, Note_on_c, 1, 58, 93
3, 87936, Note_off_c, 1, 58, 0
3, 87936, Note_on_c, 1, 63, 93
3, 88128, Note_off_c, 1, 63, 0
3, 88128, Note_on_c, 1, 58, 93
3, 88512, Note_off_c, 1, 58, 0
3, 88512, Note_on_c, 1, 56, 93
3, 88896, Note_off_c, 1, 56, 0
3, 88896, Note_on_c, 1, 55, 93
3, 88992, Note_off_c, 1, 55, 0
3, 88992, Note_on_c, 1, 51, 93
3, 89088, Note_off_c, 1, 51, 0
3, 89088, Note_on_c, 1, 53, 93
3, 89376, Note_off_c, 1, 53, 0
3, 89376, Note_on_c, 1, 46, 93
3, 89472, Note_off_c, 1, 46, 0
3, 89472, Note_on_c, 1, 51, 93
3, 89568, Note_off_c, 1, 51, 0
3, 89568, Note_on_c, 1, 53, 93
3, 89664, Note_off_c, 1, 53, 0
3, 89664, Note_on_c, 1, 60, 93
3, 89856, Note_off_c, 1, 60, 0
3, 89856, Note_on_c, 1, 58, 93
3, 90240, Note_off_c, 1, 58, 0
3, 90240, Note_on_c, 1, 60, 93
3, 90432, Note_off_c, 1, 60, 0
3, 90432, Note_on_c, 1, 58, 93
3, 90816, Note_off_c, 1, 58, 0
3, 93024, Note_on_c, 1, 65, 93
3, 93120, Note_off_c, 1, 65, 0
3, 93120, Note_on_c, 1, 63, 93
3, 93216, Note_off_c, 1, 63, 0
3, 93216, Note_on_c, 1, 62, 93
3, 93312, Note_off_c, 1, 62, 0
3, 93312, Note_on_c, 1, 63, 93
3, 93408, Note_off_c, 1, 63, 0
3, 93408, Note_on_c, 1, 60, 93
3, 93504, Note_off_c, 1, 60, 0
3, 93504, Note_on_c, 1, 65, 93
3, 93600, Note_off_c, 1, 65, 0
3, 93600, Note_on_c, 1, 63, 93
3, 93696, Note_off_c, 1, 63, 0
3, 93696, Note_on_c, 1, 62, 93
3, 93984, Note_off_c, 1, 62, 0
3, 93984, Note_on_c, 1, 55, 93
3, 94080, Note_off_c, 1, 55, 0
3, 94080, Note_on_c, 1, 57, 93
3, 94176, Note_off_c, 1, 57, 0
3, 94176, Note_on_c, 1, 58, 93
3, 94272, Note_off_c, 1, 58, 0
3, 94272, Note_on_c, 1, 60, 93
3, 94464, Note_off_c, 1, 60, 0
3, 94464, Note_on_c, 1, 62, 93
3, 94656, Note_off_c, 1, 62, 0
3, 95616, Note_on_c, 1, 58, 93
3, 96000, Note_off_c, 1, 58, 0
3, 96000, Note_on_c, 1, 55, 93
3, 96192, Note_off_c, 1, 55, 0
3, 96192, Note_on_c, 1, 60, 93
3, 96384, Note_off_c, 1, 60, 0
3, 96384, Note_on_c, 1, 58, 93
3, 96576, Note_off_c, 1, 58, 0
3, 96576, Note_on_c, 1, 63, 93
3, 96960, Note_off_c, 1, 63, 0
3, 96960, Note_on_c, 1, 62, 93
3, 97152, Note_off_c, 1, 62, 0
3, 97152, Note_on_c, 1, 63, 93
3, 97344, Note_off_c, 1, 63, 0
3, 97344, Note_on_c, 1, 65, 93
3, 97728, Note_off_c, 1, 65, 0
3, 97728, Note_on_c, 1, 60, 93
3, 97824, Note_off_c, 1, 60, 0
3, 97824, Note_on_c, 1, 58, 93
3, 97920, Note_off_c, 1, 58, 0
3, 97920, Note_on_c, 1, 56, 93
3, 98496, Note_off_c, 1, 56, 0
3, 98496, Note_on_c, 1, 63, 93
3, 98592, Note_off_c, 1, 63, 0
3, 98592, Note_on_c, 1, 62, 93
3, 98688, Note_off_c, 1, 62, 0
3, 98688, Note_on_c, 1, 60, 93
3, 98880, Note_off_c, 1, 60, 0
3, 98880, Note_on_c, 1, 62, 93
3, 99168, Note_off_c, 1, 62, 0
3, 99168, Note_on_c, 1, 53, 93
3, 99264, Note_off_c, 1, 53, 0
3, 99264, Note_on_c, 1, 55, 93
3, 99360, Note_off_c, 1, 55, 0
3, 99360, Note_on_c, 1, 56, 93
3, 99456, Note_off_c, 1, 56, 0
3, 99456, Note_on_c, 1, 58, 93
3, 99552, Note_off_c, 1, 58, 0
3, 99552, Note_on_c, 1, 56, 93
3, 99648, Note_off_c, 1, 56, 0
3, 99648, Note_on_c, 1, 58, 93
3, 99744, Note_off_c, 1, 58, 0
3, 99744, Note_on_c, 1, 56, 93
3, 99840, Note_off_c, 1, 56, 0
3, 99840, Note_on_c, 1, 58, 110
3, 100128, Note_off_c, 1, 58, 0
3, 100128, Note_on_c, 1, 56, 110
3, 100224, Note_off_c, 1, 56, 0
3, 100224, Note_on_c, 1, 55, 110
3, 100416, Note_off_c, 1, 55, 0
3, 100416, Note_on_c, 1, 53, 110
3, 100608, Note_off_c, 1, 53, 0
3, 100608, Note_on_c, 1, 48, 93
3, 100992, Note_off_c, 1, 48, 0
3, 100992, Note_on_c, 1, 50, 93
3, 101088, Note_off_c, 1, 50, 0
3, 101088, Note_on_c, 1, 48, 93
3, 101184, Note_off_c, 1, 48, 0
3, 101184, Note_on_c, 1, 58, 93
3, 101568, Note_off_c, 1, 58, 0
3, 101568, Note_on_c, 1, 53, 93
3, 101664, Note_off_c, 1, 53, 0
3, 101664, Note_on_c, 1, 51, 93
3, 101760, Note_off_c, 1, 51, 0
3, 101760, Note_on_c, 1, 50, 93
3, 101856, Note_off_c, 1, 50, 0
3, 101856, Note_on_c, 1, 46, 93
3, 101952, Note_off_c, 1, 46, 0
3, 101952, Note_on_c, 1, 51, 93
3, 102240, Note_off_c, 1, 51, 0
3, 102240, Note_on_c, 1, 50, 93
3, 102336, Note_off_c, 1, 50, 0
3, 102336, Note_on_c, 1, 51, 93
3, 102432, Note_off_c, 1, 51, 0
3, 102432, Note_on_c, 1, 53, 93
3, 102528, Note_off_c, 1, 53, 0
3, 102528, Note_on_c, 1, 55, 93
3, 102720, Note_off_c, 1, 55, 0
3, 102720, Note_on_c, 1, 63, 93
3, 102912, Note_off_c, 1, 63, 0
3, 102912, Note_on_c, 1, 58, 93
3, 103680, Note_off_c, 1, 58, 0
3, 103680, Note_on_c, 1, 63, 93
3, 103968, Note_off_c, 1, 63, 0
3, 103968, Note_on_c, 1, 56, 93
3, 104064, Note_off_c, 1, 56, 0
3, 104064, Note_on_c, 1, 53, 93
3, 104256, Note_off_c, 1, 53, 0
3, 104256, Note_on_c, 1, 55, 93
3, 104448, Note_off_c, 1, 55, 0
3, 104448, Note_on_c, 1, 60, 93
3, 104640, Note_off_c, 1, 60, 0
3, 104736, Note_on_c, 1, 53, 93
3, 104832, Note_off_c, 1, 53, 0
3, 104832, Note_on_c, 1, 55, 93
3, 104928, Note_off_c, 1, 55, 0
3, 104928, Note_on_c, 1, 56, 93
3, 105024, Note_off_c, 1, 56, 0
3, 105024, Note_on_c, 1, 58, 93
3, 105120, Note_off_c, 1, 58, 0
3, 105120, Note_on_c, 1, 63, 93
3, 105216, Note_off_c, 1, 63, 0
3, 105216, Note_on_c, 1, 60, 93
3, 105312, Note_off_c, 1, 60, 0
3, 105312, Note_on_c, 1, 56, 93
3, 105408, Note_off_c, 1, 56, 0
3, 105408, Note_on_c, 1, 61, 93
3, 105504, Note_off_c, 1, 61, 0
3, 105504, Note_on_c, 1, 60, 93
3, 105600, Note_off_c, 1, 60, 0
3, 105600, Note_on_c, 1, 58, 93
3, 105696, Note_off_c, 1, 58, 0
3, 105696, Note_on_c, 1, 55, 93
3, 105792, Note_off_c, 1, 55, 0
3, 105792, Note_on_c, 1, 60, 93
3, 105888, Note_off_c, 1, 60, 0
3, 105888, Note_on_c, 1, 56, 93
3, 105984, Note_off_c, 1, 56, 0
3, 105984, Note_on_c, 1, 58, 93
3, 106464, Note_off_c, 1, 58, 0
3, 106464, Note_on_c, 1, 60, 93
3, 106560, Note_off_c, 1, 60, 0
3, 106560, Note_on_c, 1, 58, 93
3, 106656, Note_off_c, 1, 58, 0
3, 106656, Note_on_c, 1, 56, 93
3, 106752, Note_off_c, 1, 56, 0
3, 106752, Note_on_c, 1, 55, 110
3, 106848, Note_off_c, 1, 55, 0
3, 106848, Note_on_c, 1, 51, 84
3, 106896, Note_off_c, 1, 51, 0
3, 106896, Note_on_c, 1, 50, 84
3, 106944, Note_off_c, 1, 50, 0
3, 106944, Note_on_c, 1, 51, 84
3, 106992, Note_off_c, 1, 51, 0
3, 106992, Note_on_c, 1, 53, 84
3, 107040, Note_off_c, 1, 53, 0
3, 107040, Note_on_c, 1, 55, 84
3, 107088, Note_off_c, 1, 55, 0
3, 107088, Note_on_c, 1, 53, 84
3, 107136, Note_off_c, 1, 53, 0
3, 107136, Note_on_c, 1, 55, 84
3, 107184, Note_off_c, 1, 55, 0
3, 107184, Note_on_c, 1, 56, 84
3, 107232, Note_off_c, 1, 56, 0
3, 107232, Note_on_c, 1, 55, 84
3, 107280, Note_off_c, 1, 55, 0
3, 107280, Note_on_c, 1, 56, 84
3, 107328, Note_off_c, 1, 56, 0
3, 107328, Note_on_c, 1, 53, 84
3, 107376, Note_off_c, 1, 53, 0
3, 107376, Note_on_c, 1, 51, 84
3, 107424, Note_off_c, 1, 51, 0
3, 107424, Note_on_c, 1, 53, 84
3, 107472, Note_off_c, 1, 53, 0
3, 107472, Note_on_c, 1, 55, 84
3, 107520, Note_off_c, 1, 55, 0
3, 107520, Note_on_c, 1, 53, 84
3, 107568, Note_off_c, 1, 53, 0
3, 107568, Note_on_c, 1, 55, 84
3, 107616, Note_off_c, 1, 55, 0
3, 107616, Note_on_c, 1, 56, 84
3, 107664, Note_off_c, 1, 56, 0
3, 107664, Note_on_c, 1, 55, 84
3, 107712, Note_off_c, 1, 55, 0
3, 107712, Note_on_c, 1, 56, 84
3, 107760, Note_off_c, 1, 56, 0
3, 107760, Note_on_c, 1, 58, 84
3, 107808, Note_off_c, 1, 58, 0
3, 107808, Note_on_c, 1, 56, 84
3, 107856, Note_off_c, 1, 56, 0
3, 107856, Note_on_c, 1, 58, 84
3, 107904, Note_off_c, 1, 58, 0
3, 107904, Note_on_c, 1, 55, 84
3, 107952, Note_off_c, 1, 55, 0
3, 107952, Note_on_c, 1, 53, 84
3, 108000, Note_off_c, 1, 53, 0
3, 108000, Note_on_c, 1, 58, 84
3, 108048, Note_off_c, 1, 58, 0
3, 108048, Note_on_c, 1, 57, 84
3, 108096, Note_off_c, 1, 57, 0
3, 108096, Note_on_c, 1, 58, 84
3, 108144, Note_off_c, 1, 58, 0
3, 108144, Note_on_c, 1, 60, 84
3, 108192, Note_off_c, 1, 60, 0
3, 108192, Note_on_c, 1, 62, 84
3, 108240, Note_off_c, 1, 62, 0
3, 108240, Note_on_c, 1, 60, 84
3, 108288, Note_off_c, 1, 60, 0
3, 108288, Note_on_c, 1, 62, 84
3, 108336, Note_off_c, 1, 62, 0
3, 108336, Note_on_c, 1, 63, 84
3, 108384, Note_off_c, 1, 63, 0
3, 108384, Note_on_c, 1, 62, 84
3, 108432, Note_off_c, 1, 62, 0
3, 108432, Note_on_c, 1, 63, 84
3, 108480, Note_off_c, 1, 63, 0
3, 108480, Note_on_c, 1, 60, 84
3, 108528, Note_off_c, 1, 60, 0
3, 108528, Note_on_c, 1, 58, 84
3, 108576, Note_off_c, 1, 58, 0
3, 108576, Note_on_c, 1, 60, 84
3, 108624, Note_off_c, 1, 60, 0
3, 108624, Note_on_c, 1, 62, 84
3, 108672, Note_off_c, 1, 62, 0
3, 108672, Note_on_c, 1, 60, 84
3, 108720, Note_off_c, 1, 60, 0
3, 108720, Note_on_c, 1, 62, 84
3, 108768, Note_off_c, 1, 62, 0
3, 108768, Note_on_c, 1, 63, 84
3, 108816, Note_off_c, 1, 63, 0
3, 108816, Note_on_c, 1, 62, 84
3, 108864, Note_off_c, 1, 62, 0
3, 108864, Note_on_c, 1, 63, 84
3, 108912, Note_off_c, 1, 63, 0
3, 108912, Note_on_c, 1, 65, 84
3, 108960, Note_off_c, 1, 65, 0
3, 108960, Note_on_c, 1, 63, 84
3, 109008, Note_off_c, 1, 63, 0
3, 109008, Note_on_c, 1, 65, 84
3, 109056, Note_off_c, 1, 65, 0
3, 109056, Note_on_c, 1, 62, 84
3, 109104, Note_off_c, 1, 62, 0
3, 109104, Note_on_c, 1, 63, 84
3, 109152, Note_off_c, 1, 63, 0
3, 109152, Note_on_c, 1, 62, 84
3, 109200, Note_off_c, 1, 62, 0
3, 109200, Note_on_c, 1, 60, 84
3, 109248, Note_off_c, 1, 60, 0
3, 109248, Note_on_c, 1, 62, 84
3, 109296, Note_off_c, 1, 62, 0
3, 109296, Note_on_c, 1, 58, 84
3, 109344, Note_off_c, 1, 58, 0
3, 109344, Note_on_c, 1, 60, 84
3, 109392, Note_off_c, 1, 60, 0
3, 109392, Note_on_c, 1, 58, 84
3, 109440, Note_off_c, 1, 58, 0
3, 109440, Note_on_c, 1, 60, 84
3, 109488, Note_off_c, 1, 60, 0
3, 109488, Note_on_c, 1, 62, 84
3, 109536, Note_off_c, 1, 62, 0
3, 109536, Note_on_c, 1, 53, 84
3, 109632, Note_off_c, 1, 53, 0
3, 109632, Note_on_c, 1, 58, 84
3, 109680, Note_off_c, 1, 58, 0
3, 109680, Note_on_c, 1, 60, 84
3, 109728, Note_off_c, 1, 60, 0
3, 109728, Note_on_c, 1, 58, 84
3, 109776, Note_off_c, 1, 58, 0
3, 109776, Note_on_c, 1, 56, 84
3, 109824, Note_off_c, 1, 56, 0
3, 109824, Note_on_c, 1, 58, 84
3, 109872, Note_off_c, 1, 58, 0
3, 109872, Note_on_c, 1, 55, 84
3, 109920, Note_off_c, 1, 55, 0
3, 109920, Note_on_c, 1, 56, 84
3, 109968, Note_off_c, 1, 56, 0
3, 109968, Note_on_c, 1, 55, 84
3, 110016, Note_off_c, 1, 55, 0
3, 110016, Note_on_c, 1, 56, 84
3, 110064, Note_off_c, 1, 56, 0
3, 110064, Note_on_c, 1, 58, 84
3, 110112, Note_off_c, 1, 58, 0
3, 110112, Note_on_c, 1, 50, 84
3, 110208, Note_off_c, 1, 50, 0
3, 110208, Note_on_c, 1, 51, 84
3, 110400, Note_off_c, 1, 51, 0
3, 110400, Note_on_c, 1, 55, 84
3, 110448, Note_off_c, 1, 55, 0
3, 110448, Note_on_c, 1, 53, 84
3, 110496, Note_off_c, 1, 53, 0
3, 110496, Note_on_c, 1, 51, 84
3, 110592, Note_off_c, 1, 51, 0
3, 110592, Note_on_c, 1, 63, 84
3, 111168, Note_off_c, 1, 63, 0
3, 111168, Note_on_c, 1, 62, 84
3, 111360, Note_off_c, 1, 62, 0
3, 111360, Note_on_c, 1, 63, 84
3, 111456, Note_off_c, 1, 63, 0
3, 111456, Note_on_c, 1, 63, 84
3, 111648, Note_off_c, 1, 63, 0
3, 111648, Note_on_c, 1, 58, 84
3, 112320, Note_off_c, 1, 58, 0
3, 112320, Note_on_c, 1, 57, 84
3, 112512, Note_off_c, 1, 57, 0
3, 112512, Note_on_c, 1, 58, 84
3, 112608, Note_off_c, 1, 58, 0
3, 113760, Note_on_c, 1, 63, 84
3, 113808, Note_off_c, 1, 63, 0
3, 113808, Note_on_c, 1, 65, 84
3, 113856, Note_off_c, 1, 65, 0
3, 113856, Note_on_c, 1, 63, 84
3, 113904, Note_off_c, 1, 63, 0
3, 113904, Note_on_c, 1, 62, 84
3, 113952, Note_off_c, 1, 62, 0
3, 113952, Note_on_c, 1, 60, 84
3, 114000, Note_off_c, 1, 60, 0
3, 114000, Note_on_c, 1, 62, 84
3, 114048, Note_off_c, 1, 62, 0
3, 114048, Note_on_c, 1, 60, 84
3, 114096, Note_off_c, 1, 60, 0
3, 114096, Note_on_c, 1, 59, 84
3, 114144, Note_off_c, 1, 59, 0
3, 114144, Note_on_c, 1, 60, 84
3, 114192, Note_off_c, 1, 60, 0
3, 114192, Note_on_c, 1, 57, 84
3, 114240, Note_off_c, 1, 57, 0
3, 114240, Note_on_c, 1, 62, 84
3, 114288, Note_off_c, 1, 62, 0
3, 114288, Note_on_c, 1, 63, 84
3, 114336, Note_off_c, 1, 63, 0
3, 114336, Note_on_c, 1, 62, 84
3, 114384, Note_off_c, 1, 62, 0
3, 114384, Note_on_c, 1, 60, 84
3, 114432, Note_off_c, 1, 60, 0
3, 114432, Note_on_c, 1, 62, 84
3, 114480, Note_off_c, 1, 62, 0
3, 114480, Note_on_c, 1, 60, 84
3, 114528, Note_off_c, 1, 60, 0
3, 114528, Note_on_c, 1, 59, 84
3, 114576, Note_off_c, 1, 59, 0
3, 114576, Note_on_c, 1, 60, 84
3, 114624, Note_off_c, 1, 60, 0
3, 114624, Note_on_c, 1, 59, 84
3, 114672, Note_off_c, 1, 59, 0
3, 114672, Note_on_c, 1, 57, 84
3, 114720, Note_off_c, 1, 57, 0
3, 114720, Note_on_c, 1, 59, 84
3, 114768, Note_off_c, 1, 59, 0
3, 114768, Note_on_c, 1, 55, 84
3, 114816, Note_off_c, 1, 55, 0
3, 114816, Note_on_c, 1, 60, 84
3, 114912, Note_off_c, 1, 60, 0
3, 114912, Note_on_c, 1, 56, 84
3, 114960, Note_off_c, 1, 56, 0
3, 114960, Note_on_c, 1, 58, 84
3, 115008, Note_off_c, 1, 58, 0
3, 115008, Note_on_c, 1, 56, 84
3, 115056, Note_off_c, 1, 56, 0
3, 115056, Note_on_c, 1, 55, 84
3, 115104, Note_off_c, 1, 55, 0
3, 115104, Note_on_c, 1, 53, 84
3, 115152, Note_off_c, 1, 53, 0
3, 115152, Note_on_c, 1, 55, 84
3, 115200, Note_off_c, 1, 55, 0
3, 115200, Note_on_c, 1, 53, 84
3, 115248, Note_off_c, 1, 53, 0
3, 115248, Note_on_c, 1, 51, 84
3, 115296, Note_off_c, 1, 51, 0
3, 115296, Note_on_c, 1, 65, 84
3, 115392, Note_off_c, 1, 65, 0
3, 115392, Note_on_c, 1, 55, 84
3, 115440, Note_off_c, 1, 55, 0
3, 115440, Note_on_c, 1, 56, 84
3, 115488, Note_off_c, 1, 56, 0
3, 115488, Note_on_c, 1, 55, 84
3, 115536, Note_off_c, 1, 55, 0
3, 115536, Note_on_c, 1, 53, 84
3, 115584, Note_off_c, 1, 53, 0
3, 115584, Note_on_c, 1, 55, 84
3, 115632, Note_off_c, 1, 55, 0
3, 115632, Note_on_c, 1, 53, 84
3, 115680, Note_off_c, 1, 53, 0
3, 115680, Note_on_c, 1, 60, 84
3, 116160, Note_off_c, 1, 60, 0
3, 116160, Note_on_c, 1, 61, 84
3, 116256, Note_off_c, 1, 61, 0
3, 116256, Note_on_c, 1, 60, 84
3, 116352, Note_off_c, 1, 60, 0
3, 116352, Note_on_c, 1, 65, 84
3, 116544, Note_off_c, 1, 65, 0
3, 116544, Note_on_c, 1, 55, 84
3, 117120, Note_off_c, 1, 55, 0
3, 117120, Note_on_c, 1, 57, 84
3, 117696, Note_off_c, 1, 57, 0
3, 117696, Note_on_c, 1, 58, 84
3, 117984, Note_off_c, 1, 58, 0
3, 117984, Note_on_c, 1, 65, 84
3, 118080, Note_off_c, 1, 65, 0
3, 118080, Note_on_c, 1, 58, 84
3, 118368, Note_off_c, 1, 58, 0
3, 118368, Note_on_c, 1, 63, 84
3, 118416, Note_off_c, 1, 63, 0
3, 118416, Note_on_c, 1, 65, 84
3, 118464, Note_off_c, 1, 65, 0
3, 118464, Note_on_c, 1, 63, 84
3, 118512, Note_off_c, 1, 63, 0
3, 118512, Note_on_c, 1, 65, 84
3, 118560, Note_off_c, 1, 65, 0
3, 118560, Note_on_c, 1, 67, 84
3, 118656, Note_off_c, 1, 67, 0
3, 118656, Note_on_c, 1, 60, 84
3, 119040, Note_off_c, 1, 60, 0
3, 119040, Note_on_c, 1, 55, 84
3, 119136, Note_off_c, 1, 55, 0
3, 119136, Note_on_c, 1, 51, 84
3, 119232, Note_off_c, 1, 51, 0
3, 119232, Note_on_c, 1, 53, 84
3, 119424, Note_off_c, 1, 53, 0
3, 119424, Note_on_c, 1, 58, 84
3, 119520, Note_off_c, 1, 58, 0
3, 119520, Note_on_c, 1, 46, 84
3, 119568, Note_off_c, 1, 46, 0
3, 119568, Note_on_c, 1, 45, 84
3, 119616, Note_off_c, 1, 45, 0
3, 119616, Note_on_c, 1, 46, 84
3, 119664, Note_off_c, 1, 46, 0
3, 119664, Note_on_c, 1, 48, 84
3, 119712, Note_off_c, 1, 48, 0
3, 119712, Note_on_c, 1, 50, 84
3, 119760, Note_off_c, 1, 50, 0
3, 119760, Note_on_c, 1, 48, 84
3, 119808, Note_off_c, 1, 48, 0
3, 119808, Note_on_c, 1, 58, 84
3, 120000, Note_off_c, 1, 58, 0
3, 120000, Note_on_c, 1, 51, 84
3, 120048, Note_off_c, 1, 51, 0
3, 120048, Note_on_c, 1, 50, 84
3, 120096, Note_off_c, 1, 50, 0
3, 120096, Note_on_c, 1, 51, 84
3, 120144, Note_off_c, 1, 51, 0
3, 120144, Note_on_c, 1, 53, 84
3, 120192, Note_off_c, 1, 53, 0
3, 120192, Note_on_c, 1, 51, 84
3, 120240, Note_off_c, 1, 51, 0
3, 120240, Note_on_c, 1, 53, 84
3, 120288, Note_off_c, 1, 53, 0
3, 120288, Note_on_c, 1, 55, 84
3, 120336, Note_off_c, 1, 55, 0
3, 120336, Note_on_c, 1, 53, 84
3, 120384, Note_off_c, 1, 53, 0
3, 120384, Note_on_c, 1, 63, 84
3, 120672, Note_off_c, 1, 63, 0
3, 120672, Note_on_c, 1, 58, 84
3, 120720, Note_off_c, 1, 58, 0
3, 120720, Note_on_c, 1, 60, 84
3, 120768, Note_off_c, 1, 60, 0
3, 120768, Note_on_c, 1, 58, 84
3, 120816, Note_off_c, 1, 58, 0
3, 120816, Note_on_c, 1, 56, 84
3, 120864, Note_off_c, 1, 56, 0
3, 120864, Note_on_c, 1, 55, 84
3, 120912, Note_off_c, 1, 55, 0
3, 120912, Note_on_c, 1, 56, 84
3, 120960, Note_off_c, 1, 56, 0
3, 120960, Note_on_c, 1, 58, 84
3, 121056, Note_off_c, 1, 58, 0
3, 121056, Note_on_c, 1, 55, 84
3, 121152, Note_off_c, 1, 55, 0
3, 121152, Note_on_c, 1, 51, 84
3, 121248, Note_off_c, 1, 51, 0
3, 121248, Note_on_c, 1, 55, 84
3, 121296, Note_off_c, 1, 55, 0
3, 121296, Note_on_c, 1, 57, 84
3, 121344, Note_off_c, 1, 57, 0
3, 121344, Note_on_c, 1, 48, 84
3, 121440, Note_off_c, 1, 48, 0
3, 121440, Note_on_c, 1, 55, 84
3, 121536, Note_off_c, 1, 55, 0
3, 121536, Note_on_c, 1, 58, 84
3, 121584, Note_off_c, 1, 58, 0
3, 121584, Note_on_c, 1, 60, 84
3, 121632, Note_off_c, 1, 60, 0
3, 121632, Note_on_c, 1, 51, 84
3, 121728, Note_off_c, 1, 51, 0
3, 121728, Note_on_c, 1, 58, 84
3, 121824, Note_off_c, 1, 58, 0
3, 121920, Note_on_c, 1, 55, 84
3, 122016, Note_off_c, 1, 55, 0
3, 122016, Note_on_c, 1, 50, 84
3, 122112, Note_off_c, 1, 50, 0
3, 122112, Note_on_c, 1, 51, 84
3, 122208, Note_off_c, 1, 51, 0
3, 122208, Note_on_c, 1, 53, 84
3, 122304, Note_off_c, 1, 53, 0
3, 122304, Note_on_c, 1, 46, 84
3, 122400, Note_off_c, 1, 46, 0
3, 122400, Note_on_c, 1, 58, 84
3, 122448, Note_off_c, 1, 58, 0
3, 122448, Note_on_c, 1, 60, 84
3, 122496, Note_off_c, 1, 60, 0
3, 122496, Note_on_c, 1, 58, 84
3, 122544, Note_off_c, 1, 58, 0
3, 122544, Note_on_c, 1, 56, 84
3, 122592, Note_off_c, 1, 56, 0
3, 122592, Note_on_c, 1, 55, 84
3, 122640, Note_off_c, 1, 55, 0
3, 122640, Note_on_c, 1, 56, 84
3, 122688, Note_off_c, 1, 56, 0
3, 122688, Note_on_c, 1, 55, 84
3, 122736, Note_off_c, 1, 55, 0
3, 122736, Note_on_c, 1, 53, 84
3, 122784, Note_off_c, 1, 53, 0
3, 122784, Note_on_c, 1, 55, 84
3, 122832, Note_off_c, 1, 55, 0
3, 122832, Note_on_c, 1, 53, 84
3, 122880, Note_off_c, 1, 53, 0
3, 122880, Note_on_c, 1, 51, 84
3, 122928, Note_off_c, 1, 51, 0
3, 122928, Note_on_c, 1, 55, 84
3, 122976, Note_off_c, 1, 55, 0
3, 122976, Note_on_c, 1, 60, 84
3, 123024, Note_off_c, 1, 60, 0
3, 123024, Note_on_c, 1, 61, 84
3, 123072, Note_off_c, 1, 61, 0
3, 123072, Note_on_c, 1, 60, 84
3, 123120, Note_off_c, 1, 60, 0
3, 123120, Note_on_c, 1, 58, 84
3, 123168, Note_off_c, 1, 58, 0
3, 123168, Note_on_c, 1, 56, 84
3, 123216, Note_off_c, 1, 56, 0
3, 123216, Note_on_c, 1, 58, 84
3, 123264, Note_off_c, 1, 58, 0
3, 123264, Note_on_c, 1, 56, 84
3, 123312, Note_off_c, 1, 56, 0
3, 123312, Note_on_c, 1, 55, 84
3, 123360, Note_off_c, 1, 55, 0
3, 123360, Note_on_c, 1, 56, 84
3, 123408, Note_off_c, 1, 56, 0
3, 123408, Note_on_c, 1, 55, 84
3, 123456, Note_off_c, 1, 55, 0
3, 123456, Note_on_c, 1, 53, 84
3, 123504, Note_off_c, 1, 53, 0
3, 123504, Note_on_c, 1, 55, 84
3, 123552, Note_off_c, 1, 55, 0
3, 123552, Note_on_c, 1, 53, 84
3, 123600, Note_off_c, 1, 53, 0
3, 123600, Note_on_c, 1, 51, 84
3, 123648, Note_off_c, 1, 51, 0
3, 123648, Note_on_c, 1, 53, 84
3, 123696, Note_off_c, 1, 53, 0
3, 123696, Note_on_c, 1, 51, 84
3, 123744, Note_off_c, 1, 51, 0
3, 123744, Note_on_c, 1, 49, 84
3, 123792, Note_off_c, 1, 49, 0
3, 123792, Note_on_c, 1, 51, 84
3, 123840, Note_off_c, 1, 51, 0
3, 123840, Note_on_c, 1, 49, 84
3, 123888, Note_off_c, 1, 49, 0
3, 123888, Note_on_c, 1, 48, 84
3, 123936, Note_off_c, 1, 48, 0
3, 123936, Note_on_c, 1, 49, 84
3, 123984, Note_off_c, 1, 49, 0
3, 123984, Note_on_c, 1, 48, 84
3, 124032, Note_off_c, 1, 48, 0
3, 124032, Note_on_c, 1, 46, 84
3, 124080, Note_off_c, 1, 46, 0
3, 124080, Note_on_c, 1, 44, 84
3, 124128, Note_off_c, 1, 44, 0
3, 124128, Note_on_c, 1, 46, 84
3, 124176, Note_off_c, 1, 46, 0
3, 124176, Note_on_c, 1, 49, 84
3, 124224, Note_off_c, 1, 49, 0
3, 124224, Note_on_c, 1, 48, 84
3, 124272, Note_off_c, 1, 48, 0
3, 124272, Note_on_c, 1, 46, 84
3, 124320, Note_off_c, 1, 46, 0
3, 124320, Note_on_c, 1, 44, 84
3, 124416, Note_off_c, 1, 44, 0
3, 124416, Note_on_c, 1, 53, 84
3, 124608, Note_off_c, 1, 53, 0
3, 124608, Note_on_c, 1, 48, 84
3, 124704, Note_off_c, 1, 48, 0
3, 124704, Note_on_c, 1, 53, 84
3, 124800, Note_off_c, 1, 53, 0
3, 124800, Note_on_c, 1, 61, 84
3, 124896, Note_off_c, 1, 61, 0
3, 124896, Note_on_c, 1, 55, 84
3, 125088, Note_off_c, 1, 55, 0
3, 125088, Note_on_c, 1, 60, 84
3, 125280, Note_off_c, 1, 60, 0
3, 125376, Note_on_c, 1, 55, 84
3, 125472, Note_off_c, 1, 55, 0
3, 125472, Note_on_c, 1, 56, 84
3, 125568, Note_off_c, 1, 56, 0
3, 125664, Note_on_c, 1, 53, 84
3, 125760, Note_off_c, 1, 53, 0
3, 125760, Note_on_c, 1, 60, 84
3, 125856, Note_off_c, 1, 60, 0
3, 125952, Note_on_c, 1, 56, 84
3, 126048, Note_off_c, 1, 56, 0
3, 126048, Note_on_c, 1, 51, 84
3, 126144, Note_off_c, 1, 51, 0
3, 126144, Note_on_c, 1, 53, 84
3, 126240, Note_off_c, 1, 53, 0
3, 126240, Note_on_c, 1, 55, 84
3, 126336, Note_off_c, 1, 55, 0
3, 126336, Note_on_c, 1, 48, 84
3, 126432, Note_off_c, 1, 48, 0
3, 127584, Note_on_c, 1, 60, 84
3, 127776, Note_off_c, 1, 60, 0
3, 127776, Note_on_c, 1, 59, 84
3, 127872, Note_off_c, 1, 59, 0
3, 127872, Note_on_c, 1, 63, 84
3, 128064, Note_off_c, 1, 63, 0
3, 128064, Note_on_c, 1, 60, 84
3, 128160, Note_off_c, 1, 60, 0
3, 128160, Note_on_c, 1, 67, 84
3, 128352, Note_off_c, 1, 67, 0
3, 128352, Note_on_c, 1, 67, 84
3, 128448, Note_off_c, 1, 67, 0
3, 128448, Note_on_c, 1, 66, 84
3, 128640, Note_off_c, 1, 66, 0
3, 128640, Note_on_c, 1, 67, 84
3, 128688, Note_off_c, 1, 67, 0
3, 128688, Note_on_c, 1, 65, 84
3, 128736, Note_off_c, 1, 65, 0
3, 128736, Note_on_c, 1, 63, 84
3, 128784, Note_off_c, 1, 63, 0
3, 128784, Note_on_c, 1, 65, 84
3, 128832, Note_off_c, 1, 65, 0
3, 128832, Note_on_c, 1, 63, 84
3, 128880, Note_off_c, 1, 63, 0
3, 128880, Note_on_c, 1, 62, 84
3, 128928, Note_off_c, 1, 62, 0
3, 128928, Note_on_c, 1, 60, 84
3, 128976, Note_off_c, 1, 60, 0
3, 128976, Note_on_c, 1, 62, 84
3, 129024, Note_off_c, 1, 62, 0
3, 129024, Note_on_c, 1, 60, 84
3, 129072, Note_off_c, 1, 60, 0
3, 129072, Note_on_c, 1, 58, 84
3, 129120, Note_off_c, 1, 58, 0
3, 129120, Note_on_c, 1, 60, 84
3, 129168, Note_off_c, 1, 60, 0
3, 129168, Note_on_c, 1, 58, 84
3, 129216, Note_off_c, 1, 58, 0
3, 129216, Note_on_c, 1, 57, 84
3, 129264, Note_off_c, 1, 57, 0
3, 129264, Note_on_c, 1, 60, 84
3, 129312, Note_off_c, 1, 60, 0
3, 129312, Note_on_c, 1, 65, 84
3, 129360, Note_off_c, 1, 65, 0
3, 129360, Note_on_c, 1, 67, 84
3, 129408, Note_off_c, 1, 67, 0
3, 129408, Note_on_c, 1, 65, 84
3, 129456, Note_off_c, 1, 65, 0
3, 129456, Note_on_c, 1, 63, 84
3, 129504, Note_off_c, 1, 63, 0
3, 129504, Note_on_c, 1, 62, 84
3, 129552, Note_off_c, 1, 62, 0
3, 129552, Note_on_c, 1, 63, 84
3, 129600, Note_off_c, 1, 63, 0
3, 129600, Note_on_c, 1, 62, 84
3, 129648, Note_off_c, 1, 62, 0
3, 129648, Note_on_c, 1, 60, 84
3, 129696, Note_off_c, 1, 60, 0
3, 129696, Note_on_c, 1, 62, 84
3, 129744, Note_off_c, 1, 62, 0
3, 129744, Note_on_c, 1, 60, 84
3, 129792, Note_off_c, 1, 60, 0
3, 129792, Note_on_c, 1, 59, 84
3, 129840, Note_off_c, 1, 59, 0
3, 129840, Note_on_c, 1, 57, 84
3, 129888, Note_off_c, 1, 57, 0
3, 129888, Note_on_c, 1, 55, 84
3, 130080, Note_off_c, 1, 55, 0
3, 130080, Note_on_c, 1, 51, 84
3, 130176, Note_off_c, 1, 51, 0
3, 130176, Note_on_c, 1, 56, 84
3, 130368, Note_off_c, 1, 56, 0
3, 130368, Note_on_c, 1, 55, 84
3, 130464, Note_off_c, 1, 55, 0
3, 130464, Note_on_c, 1, 60, 84
3, 130752, Note_off_c, 1, 60, 0
3, 130752, Note_on_c, 1, 59, 84
3, 130944, Note_off_c, 1, 59, 0
3, 130944, Note_on_c, 1, 60, 84
3, 131136, Note_off_c, 1, 60, 0
3, 131136, Note_on_c, 1, 58, 84
3, 131232, Note_off_c, 1, 58, 0
3, 131232, Note_on_c, 1, 56, 84
3, 131424, Note_off_c, 1, 56, 0
3, 131424, Note_on_c, 1, 55, 84
3, 131520, Note_off_c, 1, 55, 0
3, 131520, Note_on_c, 1, 53, 84
3, 131712, Note_off_c, 1, 53, 0
3, 131712, Note_on_c, 1, 51, 84
3, 131808, Note_off_c, 1, 51, 0
3, 131808, Note_on_c, 1, 50, 84
3, 132000, Note_off_c, 1, 50, 0
3, 132000, Note_on_c, 1, 48, 84
3, 132096, Note_off_c, 1, 48, 0
3, 132096, Note_on_c, 1, 47, 84
3, 132192, Note_off_c, 1, 47, 0
3, 132192, Note_on_c, 1, 43, 84
3, 132288, Note_off_c, 1, 43, 0
3, 132288, Note_on_c, 1, 48, 84
3, 132384, Note_off_c, 1, 48, 0
3, 132384, Note_on_c, 1, 53, 84
3, 132480, Note_off_c, 1, 53, 0
3, 132480, Note_on_c, 1, 55, 84
3, 132672, Note_off_c, 1, 55, 0
3, 132672, Note_on_c, 1, 48, 101
3, 132720, Note_off_c, 1, 48, 0
3, 132720, Note_on_c, 1, 51, 101
3, 132768, Note_off_c, 1, 51, 0
3, 132768, Note_on_c, 1, 55, 101
3, 132816, Note_off_c, 1, 55, 0
3, 132816, Note_on_c, 1, 60, 101
3, 132864, Note_off_c, 1, 60, 0
3, 132864, Note_on_c, 1, 58, 101
3, 132912, Note_off_c, 1, 58, 0
3, 132912, Note_on_c, 1, 60, 101
3, 132960, Note_off_c, 1, 60, 0
3, 132960, Note_on_c, 1, 53, 101
3, 132996, Note_off_c, 1, 53, 0
3, 133008, Note_on_c, 1, 56, 101
3, 133032, Note_off_c, 1, 56, 0
3, 133032, Note_on_c, 1, 55, 101
3, 133056, Note_off_c, 1, 55, 0
3, 133056, Note_on_c, 1, 56, 101
3, 133080, Note_off_c, 1, 56, 0
3, 133080, Note_on_c, 1, 53, 101
3, 133104, Note_off_c, 1, 53, 0
3, 133104, Note_on_c, 1, 58, 101
3, 133152, Note_off_c, 1, 58, 0
3, 133152, Note_on_c, 1, 56, 101
3, 133200, Note_off_c, 1, 56, 0
3, 133200, Note_on_c, 1, 58, 101
3, 133248, Note_off_c, 1, 58, 0
3, 133248, Note_on_c, 1, 51, 101
3, 133284, Note_off_c, 1, 51, 0
3, 133296, Note_on_c, 1, 55, 101
3, 133320, Note_off_c, 1, 55, 0
3, 133320, Note_on_c, 1, 53, 101
3, 133344, Note_off_c, 1, 53, 0
3, 133344, Note_on_c, 1, 55, 101
3, 133368, Note_off_c, 1, 55, 0
3, 133368, Note_on_c, 1, 51, 101
3, 133392, Note_off_c, 1, 51, 0
3, 133392, Note_on_c, 1, 58, 101
3, 133680, Note_off_c, 1, 58, 0
3, 133680, Note_on_c, 1, 56, 101
3, 133968, Note_off_c, 1, 56, 0
3, 133968, Note_on_c, 1, 55, 101
3, 133992, Note_off_c, 1, 55, 0
3, 133992, Note_on_c, 1, 53, 101
3, 134016, Note_off_c, 1, 53, 0
3, 134016, Note_on_c, 1, 51, 101
3, 134040, Note_off_c, 1, 51, 0
3, 134040, Note_on_c, 1, 53, 101
3, 134064, Note_off_c, 1, 53, 0
3, 134064, Note_on_c, 1, 55, 101
3, 134088, Note_off_c, 1, 55, 0
3, 134088, Note_on_c, 1, 56, 101
3, 134112, Note_off_c, 1, 56, 0
3, 134112, Note_on_c, 1, 58, 101
3, 134160, Note_off_c, 1, 58, 0
3, 134256, Note_on_c, 1, 56, 101
3, 134280, Note_off_c, 1, 56, 0
3, 134280, Note_on_c, 1, 55, 101
3, 134304, Note_off_c, 1, 55, 0
3, 134304, Note_on_c, 1, 53, 101
3, 134328, Note_off_c, 1, 53, 0
3, 134328, Note_on_c, 1, 55, 101
3, 134352, Note_off_c, 1, 55, 0
3, 134352, Note_on_c, 1, 56, 101
3, 134376, Note_off_c, 1, 56, 0
3, 134376, Note_on_c, 1, 58, 101
3, 134400, Note_off_c, 1, 58, 0
3, 134400, Note_on_c, 1, 60, 101
3, 134496, Note_off_c, 1, 60, 0
3, 134496, Note_on_c, 1, 58, 101
3, 134544, Note_off_c, 1, 58, 0
3, 134544, Note_on_c, 1, 56, 101
3, 134688, Note_off_c, 1, 56, 0
3, 134688, Note_on_c, 1, 56, 101
3, 134736, Note_off_c, 1, 56, 0
3, 134736, Note_on_c, 1, 55, 101
3, 134784, Note_off_c, 1, 55, 0
3, 134784, Note_on_c, 1, 53, 101
3, 134832, Note_off_c, 1, 53, 0
3, 134832, Note_on_c, 1, 55, 101
3, 135024, Note_off_c, 1, 55, 0
3, 135024, Note_on_c, 1, 53, 101
3, 135072, Note_off_c, 1, 53, 0
3, 135072, Note_on_c, 1, 51, 101
3, 135120, Note_off_c, 1, 51, 0
3, 135120, Note_on_c, 1, 53, 101
3, 135168, Note_off_c, 1, 53, 0
3, 135168, Note_on_c, 1, 51, 101
3, 135216, Note_off_c, 1, 51, 0
3, 135216, Note_on_c, 1, 53, 101
3, 135264, Note_off_c, 1, 53, 0
3, 135264, Note_on_c, 1, 46, 101
3, 135312, Note_off_c, 1, 46, 0
3, 135312, Note_on_c, 1, 50, 101
3, 135336, Note_off_c, 1, 50, 0
3, 135336, Note_on_c, 1, 48, 101
3, 135360, Note_off_c, 1, 48, 0
3, 135360, Note_on_c, 1, 50, 101
3, 135384, Note_off_c, 1, 50, 0
3, 135384, Note_on_c, 1, 46, 101
3, 135408, Note_off_c, 1, 46, 0
3, 135408, Note_on_c, 1, 51, 101
3, 135456, Note_off_c, 1, 51, 0
3, 135456, Note_on_c, 1, 50, 101
3, 135504, Note_off_c, 1, 50, 0
3, 135504, Note_on_c, 1, 51, 101
3, 135552, Note_off_c, 1, 51, 0
3, 135552, Note_on_c, 1, 45, 101
3, 135600, Note_off_c, 1, 45, 0
3, 135600, Note_on_c, 1, 48, 101
3, 135624, Note_off_c, 1, 48, 0
3, 135624, Note_on_c, 1, 46, 101
3, 135648, Note_off_c, 1, 46, 0
3, 135648, Note_on_c, 1, 48, 101
3, 135672, Note_off_c, 1, 48, 0
3, 135672, Note_on_c, 1, 45, 101
3, 135696, Note_off_c, 1, 45, 0
3, 135696, Note_on_c, 1, 50, 101
3, 135744, Note_off_c, 1, 50, 0
3, 135744, Note_on_c, 1, 48, 101
3, 135792, Note_off_c, 1, 48, 0
3, 135792, Note_on_c, 1, 50, 101
3, 135840, Note_off_c, 1, 50, 0
3, 135840, Note_on_c, 1, 43, 101
3, 135984, Note_off_c, 1, 43, 0
3, 136176, Note_on_c, 1, 56, 101
3, 136224, Note_off_c, 1, 56, 0
3, 136224, Note_on_c, 1, 55, 101
3, 136272, Note_off_c, 1, 55, 0
3, 136272, Note_on_c, 1, 56, 101
3, 136464, Note_off_c, 1, 56, 0
3, 136464, Note_on_c, 1, 55, 101
3, 136512, Note_off_c, 1, 55, 0
3, 136512, Note_on_c, 1, 53, 101
3, 136560, Note_off_c, 1, 53, 0
3, 136560, Note_on_c, 1, 55, 101
3, 136584, Note_off_c, 1, 55, 0
3, 136584, Note_on_c, 1, 53, 101
3, 136608, Note_off_c, 1, 53, 0
3, 136608, Note_on_c, 1, 51, 101
3, 136632, Note_off_c, 1, 51, 0
3, 136632, Note_on_c, 1, 53, 101
3, 136656, Note_off_c, 1, 53, 0
3, 136656, Note_on_c, 1, 55, 101
3, 136680, Note_off_c, 1, 55, 0
3, 136680, Note_on_c, 1, 56, 101
3, 136704, Note_off_c, 1, 56, 0
3, 136992, Note_on_c, 1, 63, 101
3, 137136, Note_off_c, 1, 63, 0
3, 137160, Note_on_c, 1, 65, 101
3, 137184, Note_off_c, 1, 65, 0
3, 137184, Note_on_c, 1, 63, 101
3, 137208, Note_off_c, 1, 63, 0
3, 137208, Note_on_c, 1, 62, 101
3, 137232, Note_off_c, 1, 62, 0
3, 137232, Note_on_c, 1, 60, 101
3, 137256, Note_off_c, 1, 60, 0
3, 137256, Note_on_c, 1, 58, 101
3, 137280, Note_off_c, 1, 58, 0
3, 137280, Note_on_c, 1, 57, 101
3, 137304, Note_off_c, 1, 57, 0
3, 137304, Note_on_c, 1, 53, 101
3, 137328, Note_off_c, 1, 53, 0
3, 137328, Note_on_c, 1, 55, 101
3, 137352, Note_off_c, 1, 55, 0
3, 137352, Note_on_c, 1, 57, 101
3, 137376, Note_off_c, 1, 57, 0
3, 137376, Note_on_c, 1, 58, 101
3, 137400, Note_off_c, 1, 58, 0
3, 137400, Note_on_c, 1, 60, 101
3, 137424, Note_off_c, 1, 60, 0
3, 137424, Note_on_c, 1, 62, 101
3, 137448, Note_off_c, 1, 62, 0
3, 137448, Note_on_c, 1, 58, 101
3, 137472, Note_off_c, 1, 58, 0
3, 137472, Note_on_c, 1, 60, 101
3, 137496, Note_off_c, 1, 60, 0
3, 137496, Note_on_c, 1, 62, 101
3, 137520, Note_off_c, 1, 62, 0
3, 137520, Note_on_c, 1, 63, 101
3, 137544, Note_off_c, 1, 63, 0
3, 137544, Note_on_c, 1, 65, 101
3, 137568, Note_off_c, 1, 65, 0
3, 137568, Note_on_c, 1, 67, 101
3, 137592, Note_off_c, 1, 67, 0
3, 137592, Note_on_c, 1, 68, 101
3, 137616, Note_off_c, 1, 68, 0
3, 137616, Note_on_c, 1, 67, 101
3, 137640, Note_off_c, 1, 67, 0
3, 137640, Note_on_c, 1, 65, 101
3, 137664, Note_off_c, 1, 65, 0
3, 137664, Note_on_c, 1, 63, 101
3, 137688, Note_off_c, 1, 63, 0
3, 137688, Note_on_c, 1, 62, 101
3, 137712, Note_off_c, 1, 62, 0
3, 137712, Note_on_c, 1, 60, 101
3, 137856, Note_off_c, 1, 60, 0
3, 137856, Note_on_c, 1, 58, 101
3, 138288, Note_off_c, 1, 58, 0
3, 138288, Note_on_c, 1, 56, 101
3, 138576, Note_off_c, 1, 56, 0
3, 138576, Note_on_c, 1, 55, 101
3, 138624, Note_off_c, 1, 55, 0
3, 138624, Note_on_c, 1, 56, 101
3, 138672, Note_off_c, 1, 56, 0
3, 138672, Note_on_c, 1, 58, 101
3, 138720, Note_off_c, 1, 58, 0
3, 138720, Note_on_c, 1, 60, 101
3, 138816, Note_off_c, 1, 60, 0
3, 138816, Note_on_c, 1, 55, 101
3, 138864, Note_off_c, 1, 55, 0
3, 138864, Note_on_c, 1, 56, 101
3, 138912, Note_off_c, 1, 56, 0
3, 138912, Note_on_c, 1, 55, 101
3, 138960, Note_off_c, 1, 55, 0
3, 138960, Note_on_c, 1, 56, 101
3, 139008, Note_off_c, 1, 56, 0
3, 139008, Note_on_c, 1, 58, 101
3, 139152, Note_off_c, 1, 58, 0
3, 139152, Note_on_c, 1, 67, 101
3, 139200, Note_off_c, 1, 67, 0
3, 139200, Note_on_c, 1, 65, 101
3, 139248, Note_off_c, 1, 65, 0
3, 139248, Note_on_c, 1, 67, 101
3, 139296, Note_off_c, 1, 67, 0
3, 139296, Note_on_c, 1, 60, 101
3, 139344, Note_off_c, 1, 60, 0
3, 139344, Note_on_c, 1, 63, 101
3, 139368, Note_off_c, 1, 63, 0
3, 139368, Note_on_c, 1, 62, 101
3, 139392, Note_off_c, 1, 62, 0
3, 139392, Note_on_c, 1, 63, 101
3, 139416, Note_off_c, 1, 63, 0
3, 139416, Note_on_c, 1, 60, 101
3, 139440, Note_off_c, 1, 60, 0
3, 139440, Note_on_c, 1, 65, 101
3, 139488, Note_off_c, 1, 65, 0
3, 139488, Note_on_c, 1, 63, 101
3, 139536, Note_off_c, 1, 63, 0
3, 139536, Note_on_c, 1, 65, 101
3, 139584, Note_off_c, 1, 65, 0
3, 139584, Note_on_c, 1, 58, 101
3, 139728, Note_off_c, 1, 58, 0
3, 139728, Note_on_c, 1, 63, 101
3, 139752, Note_off_c, 1, 63, 0
3, 139752, Note_on_c, 1, 51, 101
3, 139776, Note_off_c, 1, 51, 0
3, 139776, Note_on_c, 1, 53, 101
3, 139800, Note_off_c, 1, 53, 0
3, 139800, Note_on_c, 1, 55, 101
3, 139824, Note_off_c, 1, 55, 0
3, 139824, Note_on_c, 1, 56, 101
3, 139848, Note_off_c, 1, 56, 0
3, 139848, Note_on_c, 1, 58, 101
3, 139872, Note_off_c, 1, 58, 0
3, 139872, Note_on_c, 1, 60, 101
3, 140016, Note_off_c, 1, 60, 0
3, 140016, Note_on_c, 1, 60, 101
3, 140040, Note_off_c, 1, 60, 0
3, 140040, Note_on_c, 1, 49, 101
3, 140064, Note_off_c, 1, 49, 0
3, 140064, Note_on_c, 1, 51, 101
3, 140088, Note_off_c, 1, 51, 0
3, 140088, Note_on_c, 1, 53, 101
3, 140112, Note_off_c, 1, 53, 0
3, 140112, Note_on_c, 1, 55, 101
3, 140136, Note_off_c, 1, 55, 0
3, 140136, Note_on_c, 1, 56, 101
3, 140160, Note_off_c, 1, 56, 0
3, 140160, Note_on_c, 1, 58, 101
3, 140184, Note_off_c, 1, 58, 0
3, 140184, Note_on_c, 1, 60, 101
3, 140208, Note_off_c, 1, 60, 0
3, 140208, Note_on_c, 1, 61, 101
3, 140232, Note_off_c, 1, 61, 0
3, 140232, Note_on_c, 1, 60, 101
3, 140256, Note_off_c, 1, 60, 0
3, 140256, Note_on_c, 1, 61, 101
3, 140280, Note_off_c, 1, 61, 0
3, 140280, Note_on_c, 1, 58, 101
3, 140304, Note_off_c, 1, 58, 0
3, 140304, Note_on_c, 1, 60, 101
3, 140328, Note_off_c, 1, 60, 0
3, 140328, Note_on_c, 1, 61, 101
3, 140352, Note_off_c, 1, 61, 0
3, 140352, Note_on_c, 1, 63, 101
3, 140376, Note_off_c, 1, 63, 0
3, 140376, Note_on_c, 1, 61, 101
3, 140400, Note_off_c, 1, 61, 0
3, 140400, Note_on_c, 1, 63, 101
3, 140424, Note_off_c, 1, 63, 0
3, 140424, Note_on_c, 1, 60, 101
3, 140448, Note_off_c, 1, 60, 0
3, 140448, Note_on_c, 1, 58, 101
3, 140736, Note_off_c, 1, 58, 0
3, 140736, Note_on_c, 1, 56, 101
3, 141024, Note_off_c, 1, 56, 0
3, 141024, Note_on_c, 1, 56, 101
3, 141072, Note_off_c, 1, 56, 0
3, 141072, Note_on_c, 1, 60, 101
3, 141120, Note_off_c, 1, 60, 0
3, 141120, Note_on_c, 1, 65, 101
3, 141216, Note_off_c, 1, 65, 0
3, 141216, Note_on_c, 1, 63, 101
3, 141264, Note_off_c, 1, 63, 0
3, 141264, Note_on_c, 1, 65, 101
3, 141312, Note_off_c, 1, 65, 0
3, 141456, Note_on_c, 1, 62, 101
3, 141504, Note_off_c, 1, 62, 0
3, 141504, Note_on_c, 1, 60, 101
3, 141552, Note_off_c, 1, 60, 0
3, 141552, Note_on_c, 1, 62, 101
3, 141600, Note_off_c, 1, 62, 0
3, 141600, Note_on_c, 1, 55, 101
3, 141648, Note_off_c, 1, 55, 0
3, 141648, Note_on_c, 1, 58, 101
3, 141672, Note_off_c, 1, 58, 0
3, 141672, Note_on_c, 1, 56, 101
3, 141696, Note_off_c, 1, 56, 0
3, 141696, Note_on_c, 1, 58, 101
3, 141720, Note_off_c, 1, 58, 0
3, 141720, Note_on_c, 1, 55, 101
3, 141744, Note_off_c, 1, 55, 0
3, 141744, Note_on_c, 1, 60, 101
3, 141792, Note_off_c, 1, 60, 0
3, 141792, Note_on_c, 1, 58, 101
3, 141840, Note_off_c, 1, 58, 0
3, 141840, Note_on_c, 1, 60, 101
3, 141888, Note_off_c, 1, 60, 0
3, 141888, Note_on_c, 1, 53, 101
3, 141936, Note_off_c, 1, 53, 0
3, 141936, Note_on_c, 1, 56, 101
3, 141960, Note_off_c, 1, 56, 0
3, 141960, Note_on_c, 1, 55, 101
3, 141984, Note_off_c, 1, 55, 0
3, 141984, Note_on_c, 1, 56, 101
3, 142008, Note_off_c, 1, 56, 0
3, 142008, Note_on_c, 1, 53, 101
3, 142032, Note_off_c, 1, 53, 0
3, 142032, Note_on_c, 1, 58, 101
3, 142080, Note_off_c, 1, 58, 0
3, 142080, Note_on_c, 1, 56, 101
3, 142128, Note_off_c, 1, 56, 0
3, 142128, Note_on_c, 1, 58, 101
3, 142176, Note_off_c, 1, 58, 0
3, 142176, Note_on_c, 1, 51, 101
3, 142224, Note_off_c, 1, 51, 0
3, 142224, Note_on_c, 1, 55, 101
3, 142248, Note_off_c, 1, 55, 0
3, 142248, Note_on_c, 1, 53, 101
3, 142272, Note_off_c, 1, 53, 0
3, 142272, Note_on_c, 1, 55, 101
3, 142296, Note_off_c, 1, 55, 0
3, 142296, Note_on_c, 1, 51, 101
3, 142320, Note_off_c, 1, 51, 0
3, 142320, Note_on_c, 1, 56, 101
3, 142368, Note_off_c, 1, 56, 0
3, 142368, Note_on_c, 1, 55, 101
3, 142416, Note_off_c, 1, 55, 0
3, 142416, Note_on_c, 1, 56, 101
3, 142464, Note_off_c, 1, 56, 0
3, 142464, Note_on_c, 1, 49, 101
3, 142512, Note_off_c, 1, 49, 0
3, 142512, Note_on_c, 1, 51, 101
3, 142536, Note_off_c, 1, 51, 0
3, 142536, Note_on_c, 1, 53, 101
3, 142560, Note_off_c, 1, 53, 0
3, 142560, Note_on_c, 1, 55, 101
3, 142584, Note_off_c, 1, 55, 0
3, 142584, Note_on_c, 1, 57, 101
3, 142608, Note_off_c, 1, 57, 0
3, 142608, Note_on_c, 1, 58, 101
3, 142632, Note_off_c, 1, 58, 0
3, 142632, Note_on_c, 1, 60, 101
3, 142656, Note_off_c, 1, 60, 0
3, 142656, Note_on_c, 1, 58, 101
3, 142680, Note_off_c, 1, 58, 0
3, 142680, Note_on_c, 1, 56, 101
3, 142704, Note_off_c, 1, 56, 0
3, 142704, Note_on_c, 1, 55, 101
3, 142728, Note_off_c, 1, 55, 0
3, 142728, Note_on_c, 1, 53, 101
3, 142752, Note_off_c, 1, 53, 0
3, 142752, Note_on_c, 1, 55, 101
3, 142776, Note_off_c, 1, 55, 0
3, 142776, Note_on_c, 1, 51, 101
3, 142800, Note_off_c, 1, 51, 0
3, 142800, Note_on_c, 1, 53, 101
3, 142824, Note_off_c, 1, 53, 0
3, 142824, Note_on_c, 1, 55, 101
3, 142848, Note_off_c, 1, 55, 0
3, 142848, Note_on_c, 1, 56, 101
3, 142872, Note_off_c, 1, 56, 0
3, 142872, Note_on_c, 1, 58, 101
3, 142896, Note_off_c, 1, 58, 0
3, 142896, Note_on_c, 1, 60, 101
3, 142920, Note_off_c, 1, 60, 0
3, 142920, Note_on_c, 1, 58, 101
3, 142944, Note_off_c, 1, 58, 0
3, 142944, Note_on_c, 1, 56, 101
3, 142968, Note_off_c, 1, 56, 0
3, 142968, Note_on_c, 1, 58, 101
3, 142992, Note_off_c, 1, 58, 0
3, 142992, Note_on_c, 1, 60, 101
3, 143016, Note_off_c, 1, 60, 0
3, 143016, Note_on_c, 1, 61, 101
3, 143040, Note_off_c, 1, 61, 0
3, 143040, Note_on_c, 1, 63, 101
3, 143328, Note_off_c, 1, 63, 0
3, 143328, Note_on_c, 1, 56, 101
3, 143616, Note_off_c, 1, 56, 0
3, 143616, Note_on_c, 1, 55, 101
3, 143760, Note_off_c, 1, 55, 0
3, 143760, Note_on_c, 1, 56, 101
3, 143808, Note_off_c, 1, 56, 0
3, 143808, Note_on_c, 1, 55, 101
3, 143856, Note_off_c, 1, 55, 0
3, 143856, Note_on_c, 1, 56, 101
3, 143904, Note_off_c, 1, 56, 0
3, 143904, Note_on_c, 1, 50, 101
3, 143952, Note_off_c, 1, 50, 0
3, 143952, Note_on_c, 1, 53, 101
3, 143976, Note_off_c, 1, 53, 0
3, 143976, Note_on_c, 1, 51, 101
3, 144000, Note_off_c, 1, 51, 0
3, 144000, Note_on_c, 1, 53, 101
3, 144024, Note_off_c, 1, 53, 0
3, 144024, Note_on_c, 1, 50, 101
3, 144048, Note_off_c, 1, 50, 0
3, 144048, Note_on_c, 1, 55, 101
3, 144096, Note_off_c, 1, 55, 0
3, 144096, Note_on_c, 1, 53, 101
3, 144144, Note_off_c, 1, 53, 0
3, 144144, Note_on_c, 1, 55, 101
3, 144192, Note_off_c, 1, 55, 0
3, 144192, Note_on_c, 1, 48, 101
3, 144240, Note_off_c, 1, 48, 0
3, 144240, Note_on_c, 1, 57, 101
3, 144264, Note_off_c, 1, 57, 0
3, 144264, Note_on_c, 1, 59, 101
3, 144288, Note_off_c, 1, 59, 0
3, 144288, Note_on_c, 1, 60, 101
3, 144312, Note_off_c, 1, 60, 0
3, 144312, Note_on_c, 1, 62, 101
3, 144336, Note_off_c, 1, 62, 0
3, 144336, Note_on_c, 1, 63, 101
3, 144360, Note_off_c, 1, 63, 0
3, 144360, Note_on_c, 1, 62, 101
3, 144384, Note_off_c, 1, 62, 0
3, 144384, Note_on_c, 1, 60, 101
3, 144408, Note_off_c, 1, 60, 0
3, 144408, Note_on_c, 1, 62, 101
3, 144432, Note_off_c, 1, 62, 0
3, 144432, Note_on_c, 1, 63, 101
3, 144456, Note_off_c, 1, 63, 0
3, 144456, Note_on_c, 1, 65, 101
3, 144480, Note_off_c, 1, 65, 0
3, 144480, Note_on_c, 1, 67, 101
3, 144504, Note_off_c, 1, 67, 0
3, 144504, Note_on_c, 1, 68, 101
3, 144528, Note_off_c, 1, 68, 0
3, 144528, Note_on_c, 1, 67, 101
3, 144552, Note_off_c, 1, 67, 0
3, 144552, Note_on_c, 1, 65, 101
3, 144576, Note_off_c, 1, 65, 0
3, 144576, Note_on_c, 1, 63, 101
3, 144600, Note_off_c, 1, 63, 0
3, 144600, Note_on_c, 1, 62, 101
3, 144624, Note_off_c, 1, 62, 0
3, 144624, Note_on_c, 1, 60, 101
3, 144648, Note_off_c, 1, 60, 0
3, 144648, Note_on_c, 1, 62, 101
3, 144672, Note_off_c, 1, 62, 0
3, 144672, Note_on_c, 1, 60, 101
3, 144696, Note_off_c, 1, 60, 0
3, 144696, Note_on_c, 1, 58, 101
3, 144720, Note_off_c, 1, 58, 0
3, 144720, Note_on_c, 1, 57, 101
3, 144744, Note_off_c, 1, 57, 0
3, 144744, Note_on_c, 1, 58, 101
3, 144768, Note_off_c, 1, 58, 0
3, 144768, Note_on_c, 1, 60, 101
3, 144816, Note_off_c, 1, 60, 0
3, 144816, Note_on_c, 1, 62, 101
3, 144864, Note_off_c, 1, 62, 0
3, 144864, Note_on_c, 1, 63, 101
3, 144912, Note_off_c, 1, 63, 0
3, 144912, Note_on_c, 1, 57, 101
3, 145056, Note_off_c, 1, 57, 0
3, 145056, Note_on_c, 1, 58, 101
3, 145080, Note_off_c, 1, 58, 0
3, 145080, Note_on_c, 1, 55, 101
3, 145104, Note_off_c, 1, 55, 0
3, 145104, Note_on_c, 1, 57, 101
3, 145128, Note_off_c, 1, 57, 0
3, 145128, Note_on_c, 1, 58, 101
3, 145152, Note_off_c, 1, 58, 0
3, 145152, Note_on_c, 1, 60, 101
3, 145176, Note_off_c, 1, 60, 0
3, 145176, Note_on_c, 1, 62, 101
3, 145200, Note_off_c, 1, 62, 0
3, 145200, Note_on_c, 1, 63, 101
3, 145344, Note_off_c, 1, 63, 0
3, 145344, Note_on_c, 1, 63, 101
3, 145368, Note_off_c, 1, 63, 0
3, 145368, Note_on_c, 1, 60, 101
3, 145392, Note_off_c, 1, 60, 0
3, 145392, Note_on_c, 1, 62, 101
3, 145416, Note_off_c, 1, 62, 0
3, 145416, Note_on_c, 1, 63, 101
3, 145440, Note_off_c, 1, 63, 0
3, 145440, Note_on_c, 1, 65, 101
3, 145464, Note_off_c, 1, 65, 0
3, 145464, Note_on_c, 1, 67, 101
3, 145488, Note_off_c, 1, 67, 0
3, 145488, Note_on_c, 1, 68, 101
3, 145776, Note_off_c, 1, 68, 0
3, 145776, Note_on_c, 1, 67, 101
3, 145920, Note_off_c, 1, 67, 0
3, 145920, Note_on_c, 1, 65, 101
3, 146208, Note_off_c, 1, 65, 0
3, 146208, Note_on_c, 1, 63, 101
3, 146496, Note_off_c, 1, 63, 0
3, 146496, Note_on_c, 1, 53, 101
3, 146544, Note_off_c, 1, 53, 0
3, 146544, Note_on_c, 1, 56, 101
3, 146568, Note_off_c, 1, 56, 0
3, 146568, Note_on_c, 1, 55, 101
3, 146592, Note_off_c, 1, 55, 0
3, 146592, Note_on_c, 1, 56, 101
3, 146616, Note_off_c, 1, 56, 0
3, 146616, Note_on_c, 1, 53, 101
3, 146640, Note_off_c, 1, 53, 0
3, 146640, Note_on_c, 1, 58, 101
3, 146688, Note_off_c, 1, 58, 0
3, 146688, Note_on_c, 1, 56, 101
3, 146736, Note_off_c, 1, 56, 0
3, 146736, Note_on_c, 1, 58, 101
3, 146784, Note_off_c, 1, 58, 0
3, 146784, Note_on_c, 1, 51, 101
3, 146832, Note_off_c, 1, 51, 0
3, 146832, Note_on_c, 1, 55, 101
3, 146856, Note_off_c, 1, 55, 0
3, 146856, Note_on_c, 1, 53, 101
3, 146880, Note_off_c, 1, 53, 0
3, 146880, Note_on_c, 1, 55, 101
3, 146904, Note_off_c, 1, 55, 0
3, 146904, Note_on_c, 1, 51, 101
3, 146928, Note_off_c, 1, 51, 0
3, 146928, Note_on_c, 1, 56, 101
3, 146976, Note_off_c, 1, 56, 0
3, 146976, Note_on_c, 1, 55, 101
3, 147024, Note_off_c, 1, 55, 0
3, 147024, Note_on_c, 1, 56, 101
3, 147072, Note_off_c, 1, 56, 0
3, 147072, Note_on_c, 1, 53, 101
3, 147120, Note_off_c, 1, 53, 0
3, 147120, Note_on_c, 1, 55, 101
3, 147168, Note_off_c, 1, 55, 0
3, 147168, Note_on_c, 1, 56, 101
3, 147216, Note_off_c, 1, 56, 0
3, 147216, Note_on_c, 1, 58, 101
3, 147360, Note_off_c, 1, 58, 0
3, 147360, Note_on_c, 1, 58, 101
3, 147504, Note_off_c, 1, 58, 0
3, 147504, Note_on_c, 1, 60, 101
3, 147648, Note_off_c, 1, 60, 0
3, 147648, Note_on_c, 1, 62, 101
3, 147792, Note_off_c, 1, 62, 0
3, 147792, Note_on_c, 1, 55, 101
3, 147816, Note_off_c, 1, 55, 0
3, 147816, Note_on_c, 1, 51, 101
3, 147840, Note_off_c, 1, 51, 0
3, 147840, Note_on_c, 1, 53, 101
3, 147864, Note_off_c, 1, 53, 0
3, 147864, Note_on_c, 1, 55, 101
3, 147888, Note_off_c, 1, 55, 0
3, 147888, Note_on_c, 1, 56, 101
3, 147912, Note_off_c, 1, 56, 0
3, 147912, Note_on_c, 1, 58, 101
3, 147936, Note_off_c, 1, 58, 0
3, 147936, Note_on_c, 1, 60, 101
3, 148104, Note_off_c, 1, 60, 0
3, 148104, Note_on_c, 1, 61, 101
3, 148128, Note_off_c, 1, 61, 0
3, 148128, Note_on_c, 1, 60, 101
3, 148152, Note_off_c, 1, 60, 0
3, 148152, Note_on_c, 1, 58, 101
3, 148176, Note_off_c, 1, 58, 0
3, 148176, Note_on_c, 1, 56, 101
3, 148200, Note_off_c, 1, 56, 0
3, 148200, Note_on_c, 1, 55, 101
3, 148224, Note_off_c, 1, 55, 0
3, 148224, Note_on_c, 1, 56, 101
3, 148248, Note_off_c, 1, 56, 0
3, 148248, Note_on_c, 1, 58, 101
3, 148272, Note_off_c, 1, 58, 0
3, 148272, Note_on_c, 1, 56, 101
3, 148296, Note_off_c, 1, 56, 0
3, 148296, Note_on_c, 1, 55, 101
3, 148320, Note_off_c, 1, 55, 0
3, 148320, Note_on_c, 1, 53, 101
3, 148344, Note_off_c, 1, 53, 0
3, 148344, Note_on_c, 1, 51, 101
3, 148368, Note_off_c, 1, 51, 0
3, 148368, Note_on_c, 1, 53, 101
3, 148392, Note_off_c, 1, 53, 0
3, 148392, Note_on_c, 1, 56, 101
3, 148416, Note_off_c, 1, 56, 0
3, 148416, Note_on_c, 1, 55, 101
3, 148440, Note_off_c, 1, 55, 0
3, 148440, Note_on_c, 1, 53, 101
3, 148464, Note_off_c, 1, 53, 0
3, 148464, Note_on_c, 1, 51, 101
3, 148488, Note_off_c, 1, 51, 0
3, 148488, Note_on_c, 1, 50, 101
3, 148512, Note_off_c, 1, 50, 0
3, 148512, Note_on_c, 1, 58, 101
3, 148656, Note_off_c, 1, 58, 0
3, 148824, Note_on_c, 1, 67, 101
3, 148848, Note_off_c, 1, 67, 0
3, 148848, Note_on_c, 1, 65, 101
3, 148872, Note_off_c, 1, 65, 0
3, 148872, Note_on_c, 1, 63, 101
3, 148896, Note_off_c, 1, 63, 0
3, 148896, Note_on_c, 1, 62, 101
3, 148920, Note_off_c, 1, 62, 0
3, 148920, Note_on_c, 1, 60, 101
3, 148944, Note_off_c, 1, 60, 0
3, 148944, Note_on_c, 1, 58, 101
3, 149088, Note_off_c, 1, 58, 0
3, 149088, Note_on_c, 1, 75, 101
3, 149376, Note_off_c, 1, 75, 0
3, 149376, Note_on_c, 1, 65, 101
3, 149424, Note_off_c, 1, 65, 0
3, 150672, Note_on_c, 1, 65, 101
3, 150720, Note_off_c, 1, 65, 0
3, 150720, Note_on_c, 1, 63, 101
3, 150768, Note_off_c, 1, 63, 0
3, 150768, Note_on_c, 1, 65, 101
3, 150816, Note_off_c, 1, 65, 0
3, 150816, Note_on_c, 1, 58, 101
3, 150864, Note_off_c, 1, 58, 0
3, 150864, Note_on_c, 1, 62, 101
3, 150888, Note_off_c, 1, 62, 0
3, 150888, Note_on_c, 1, 60, 101
3, 150912, Note_off_c, 1, 60, 0
3, 150912, Note_on_c, 1, 62, 101
3, 150936, Note_off_c, 1, 62, 0
3, 150936, Note_on_c, 1, 58, 101
3, 150960, Note_off_c, 1, 58, 0
3, 150960, Note_on_c, 1, 63, 101
3, 151008, Note_off_c, 1, 63, 0
3, 151008, Note_on_c, 1, 62, 101
3, 151056, Note_off_c, 1, 62, 0
3, 151056, Note_on_c, 1, 63, 101
3, 151104, Note_off_c, 1, 63, 0
3, 151104, Note_on_c, 1, 56, 101
3, 151392, Note_off_c, 1, 56, 0
3, 151392, Note_on_c, 1, 58, 127
3, 151536, Note_off_c, 1, 58, 0
3, 151536, Note_on_c, 1, 58, 127
3, 151584, Note_off_c, 1, 58, 0
3, 151584, Note_on_c, 1, 56, 127
3, 151632, Note_off_c, 1, 56, 0
3, 151632, Note_on_c, 1, 58, 127
3, 151680, Note_off_c, 1, 58, 0
3, 151680, Note_on_c, 1, 51, 127
3, 151728, Note_off_c, 1, 51, 0
3, 151728, Note_on_c, 1, 55, 127
3, 151752, Note_off_c, 1, 55, 0
3, 151752, Note_on_c, 1, 53, 127
3, 151776, Note_off_c, 1, 53, 0
3, 151776, Note_on_c, 1, 55, 127
3, 151800, Note_off_c, 1, 55, 0
3, 151800, Note_on_c, 1, 51, 127
3, 151824, Note_off_c, 1, 51, 0
3, 151824, Note_on_c, 1, 56, 127
3, 151872, Note_off_c, 1, 56, 0
3, 151872, Note_on_c, 1, 55, 127
3, 151920, Note_off_c, 1, 55, 0
3, 151920, Note_on_c, 1, 56, 127
3, 151968, Note_off_c, 1, 56, 0
3, 151968, Note_on_c, 1, 50, 127
3, 151992, Note_off_c, 1, 50, 0
3, 151992, Note_on_c, 1, 46, 127
3, 152016, Note_off_c, 1, 46, 0
3, 152016, Note_on_c, 1, 48, 127
3, 152040, Note_off_c, 1, 48, 0
3, 152040, Note_on_c, 1, 50, 127
3, 152064, Note_off_c, 1, 50, 0
3, 152064, Note_on_c, 1, 51, 127
3, 152088, Note_off_c, 1, 51, 0
3, 152088, Note_on_c, 1, 53, 127
3, 152112, Note_off_c, 1, 53, 0
3, 152112, Note_on_c, 1, 55, 127
3, 152136, Note_off_c, 1, 55, 0
3, 152136, Note_on_c, 1, 51, 127
3, 152160, Note_off_c, 1, 51, 0
3, 152160, Note_on_c, 1, 53, 127
3, 152184, Note_off_c, 1, 53, 0
3, 152184, Note_on_c, 1, 55, 127
3, 152208, Note_off_c, 1, 55, 0
3, 152208, Note_on_c, 1, 56, 127
3, 152232, Note_off_c, 1, 56, 0
3, 152232, Note_on_c, 1, 58, 127
3, 152256, Note_off_c, 1, 58, 0
3, 152256, Note_on_c, 1, 60, 127
3, 152280, Note_off_c, 1, 60, 0
3, 152280, Note_on_c, 1, 56, 127
3, 152304, Note_off_c, 1, 56, 0
3, 152304, Note_on_c, 1, 58, 127
3, 152328, Note_off_c, 1, 58, 0
3, 152328, Note_on_c, 1, 60, 127
3, 152352, Note_off_c, 1, 60, 0
3, 152352, Note_on_c, 1, 62, 127
3, 152376, Note_off_c, 1, 62, 0
3, 152376, Note_on_c, 1, 63, 127
3, 152400, Note_off_c, 1, 63, 0
3, 152400, Note_on_c, 1, 65, 127
3, 152424, Note_off_c, 1, 65, 0
3, 152424, Note_on_c, 1, 67, 127
3, 152448, Note_off_c, 1, 67, 0
3, 152448, Note_on_c, 1, 65, 127
3, 152472, Note_off_c, 1, 65, 0
3, 152472, Note_on_c, 1, 63, 127
3, 152496, Note_off_c, 1, 63, 0
3, 152496, Note_on_c, 1, 62, 127
3, 152520, Note_off_c, 1, 62, 0
3, 152520, Note_on_c, 1, 60, 127
3, 152544, Note_off_c, 1, 60, 0
3, 152544, Note_on_c, 1, 58, 127
3, 152736, Note_off_c, 1, 58, 0
3, 152736, Note_on_c, 1, 63, 127
3, 152880, Note_off_c, 1, 63, 0
3, 152880, Note_on_c, 1, 55, 127
3, 152928, Note_off_c, 1, 55, 0
3, 152928, Note_on_c, 1, 56, 127
3, 152976, Note_off_c, 1, 56, 0
3, 152976, Note_on_c, 1, 58, 127
3, 153204, Note_off_c, 1, 58, 0
3, 153204, Note_on_c, 1, 58, 127
3, 153408, Note_off_c, 1, 58, 0
3, 153408, End_track
4, 0, Start_track
4, 0, Title_t, "Track4"
4, 0, Program_c, 2, 19
4, 0, Control_c, 2, 7, 100
4, 0, Control_c, 2, 10, 64
4, 0, Note_on_c, 2, 39, 127
4, 192, Note_off_c, 2, 39, 0
4, 336, Note_on_c, 2, 43, 127
4, 384, Note_off_c, 2, 43, 0
4, 384, Note_on_c, 2, 41, 127
4, 648, Note_off_c, 2, 41, 0
4, 648, Note_on_c, 2, 44, 127
4, 672, Note_off_c, 2, 44, 0
4, 672, Note_on_c, 2, 43, 127
4, 744, Note_off_c, 2, 43, 0
4, 744, Note_on_c, 2, 44, 127
4, 768, Note_off_c, 2, 44, 0
4, 768, Note_on_c, 2, 38, 127
4, 960, Note_off_c, 2, 38, 0
4, 1104, Note_on_c, 2, 34, 127
4, 1152, Note_off_c, 2, 34, 0
4, 1152, Note_on_c, 2, 39, 127
4, 1416, Note_off_c, 2, 39, 0
4, 1416, Note_on_c, 2, 34, 127
4, 1440, Note_off_c, 2, 34, 0
4, 1440, Note_on_c, 2, 31, 127
4, 1512, Note_off_c, 2, 31, 0
4, 1512, Note_on_c, 2, 34, 127
4, 1536, Note_off_c, 2, 34, 0
4, 1536, Note_on_c, 2, 27, 127
4, 1728, Note_off_c, 2, 27, 0
4, 1896, Note_on_c, 2, 39, 127
4, 1920, Note_off_c, 2, 39, 0
4, 1920, Note_on_c, 2, 38, 127
4, 2112, Note_off_c, 2, 38, 0
4, 2280, Note_on_c, 2, 38, 127
4, 2304, Note_off_c, 2, 38, 0
4, 2304, Note_on_c, 2, 36, 127
4, 2496, Note_off_c, 2, 36, 0
4, 2664, Note_on_c, 2, 36, 127
4, 2688, Note_off_c, 2, 36, 0
4, 2688, Note_on_c, 2, 34, 127
4, 2880, Note_off_c, 2, 34, 0
4, 3048, Note_on_c, 2, 34, 127
4, 3072, Note_off_c, 2, 34, 0
4, 3072, Note_on_c, 2, 33, 127
4, 3264, Note_off_c, 2, 33, 0
4, 3432, Note_on_c, 2, 36, 127
4, 3456, Note_off_c, 2, 36, 0
4, 3456, Note_on_c, 2, 29, 127
4, 3648, Note_off_c, 2, 29, 0
4, 3816, Note_on_c, 2, 33, 127
4, 3840, Note_off_c, 2, 33, 0
4, 3840, Note_on_c, 2, 34, 127
4, 3984, Note_off_c, 2, 34, 0
4, 4008, Note_on_c, 2, 33, 127
4, 4032, Note_off_c, 2, 33, 0
4, 4032, Note_on_c, 2, 34, 127
4, 4176, Note_off_c, 2, 34, 0
4, 4200, Note_on_c, 2, 26, 127
4, 4224, Note_off_c, 2, 26, 0
4, 4224, Note_on_c, 2, 27, 127
4, 4368, Note_off_c, 2, 27, 0
4, 4392, Note_on_c, 2, 34, 127
4, 4416, Note_off_c, 2, 34, 0
4, 4416, Note_on_c, 2, 36, 127
4, 4560, Note_off_c, 2, 36, 0
4, 4584, Note_on_c, 2, 27, 127
4, 4608, Note_off_c, 2, 27, 0
4, 4608, Note_on_c, 2, 29, 127
4, 4752, Note_off_c, 2, 29, 0
4, 4776, Note_on_c, 2, 36, 127
4, 4800, Note_off_c, 2, 36, 0
4, 4800, Note_on_c, 2, 38, 127
4, 4944, Note_off_c, 2, 38, 0
4, 4968, Note_on_c, 2, 29, 127
4, 4992, Note_off_c, 2, 29, 0
4, 4992, Note_on_c, 2, 31, 127
4, 5136, Note_off_c, 2, 31, 0
4, 5160, Note_on_c, 2, 38, 127
4, 5184, Note_off_c, 2, 38, 0
4, 5184, Note_on_c, 2, 39, 127
4, 5328, Note_off_c, 2, 39, 0
4, 5352, Note_on_c, 2, 31, 127
4, 5376, Note_off_c, 2, 31, 0
4, 5376, Note_on_c, 2, 33, 127
4, 5520, Note_off_c, 2, 33, 0
4, 5544, Note_on_c, 2, 41, 127
4, 5568, Note_off_c, 2, 41, 0
4, 5568, Note_on_c, 2, 38, 127
4, 5712, Note_off_c, 2, 38, 0
4, 5736, Note_on_c, 2, 34, 127
4, 5760, Note_off_c, 2, 34, 0
4, 5760, Note_on_c, 2, 41, 127
4, 5952, Note_off_c, 2, 41, 0
4, 5952, Note_on_c, 2, 29, 127
4, 6144, Note_off_c, 2, 29, 0
4, 6144, Note_on_c, 2, 34, 127
4, 6336, Note_off_c, 2, 34, 0
4, 6480, Note_on_c, 2, 34, 127
4, 6528, Note_off_c, 2, 34, 0
4, 6528, Note_on_c, 2, 35, 127
4, 6792, Note_off_c, 2, 35, 0
4, 6792, Note_on_c, 2, 38, 127
4, 6816, Note_off_c, 2, 38, 0
4, 6816, Note_on_c, 2, 36, 127
4, 6888, Note_off_c, 2, 36, 0
4, 6888, Note_on_c, 2, 38, 127
4, 6912, Note_off_c, 2, 38, 0
4, 6912, Note_on_c, 2, 31, 127
4, 7104, Note_off_c, 2, 31, 0
4, 7248, Note_on_c, 2, 35, 127
4, 7296, Note_off_c, 2, 35, 0
4, 7296, Note_on_c, 2, 36, 127
4, 7560, Note_off_c, 2, 36, 0
4, 7560, Note_on_c, 2, 39, 127
4, 7584, Note_off_c, 2, 39, 0
4, 7584, Note_on_c, 2, 38, 127
4, 7656, Note_off_c, 2, 38, 0
4, 7656, Note_on_c, 2, 39, 127
4, 7680, Note_off_c, 2, 39, 0
4, 7680, Note_on_c, 2, 29, 127
4, 7872, Note_off_c, 2, 29, 0
4, 8040, Note_on_c, 2, 34, 127
4, 8064, Note_off_c, 2, 34, 0
4, 8064, Note_on_c, 2, 27, 127
4, 8256, Note_off_c, 2, 27, 0
4, 8424, Note_on_c, 2, 39, 127
4, 8448, Note_off_c, 2, 39, 0
4, 8448, Note_on_c, 2, 32, 127
4, 8640, Note_off_c, 2, 32, 0
4, 8808, Note_on_c, 2, 33, 127
4, 8832, Note_off_c, 2, 33, 0
4, 8832, Note_on_c, 2, 34, 127
4, 9096, Note_off_c, 2, 34, 0
4, 9096, Note_on_c, 2, 38, 127
4, 9120, Note_off_c, 2, 38, 0
4, 9120, Note_on_c, 2, 36, 127
4, 9192, Note_off_c, 2, 36, 0
4, 9192, Note_on_c, 2, 39, 127
4, 9216, Note_off_c, 2, 39, 0
4, 9216, Note_on_c, 2, 34, 127
4, 9408, Note_off_c, 2, 34, 0
4, 9576, Note_on_c, 2, 34, 127
4, 9600, Note_off_c, 2, 34, 0
4, 9600, Note_on_c, 2, 39, 127
4, 9792, Note_off_c, 2, 39, 0
4, 9960, Note_on_c, 2, 34, 127
4, 9984, Note_off_c, 2, 34, 0
4, 9984, Note_on_c, 2, 43, 127
4, 10176, Note_off_c, 2, 43, 0
4, 10344, Note_on_c, 2, 33, 127
4, 10368, Note_off_c, 2, 33, 0
4, 10368, Note_on_c, 2, 34, 127
4, 10560, Note_off_c, 2, 34, 0
4, 10728, Note_on_c, 2, 32, 127
4, 10752, Note_off_c, 2, 32, 0
4, 10752, Note_on_c, 2, 31, 127
4, 10944, Note_off_c, 2, 31, 0
4, 11112, Note_on_c, 2, 31, 127
4, 11136, Note_off_c, 2, 31, 0
4, 11136, Note_on_c, 2, 36, 127
4, 11328, Note_off_c, 2, 36, 0
4, 11496, Note_on_c, 2, 38, 127
4, 11520, Note_off_c, 2, 38, 0
4, 11520, Note_on_c, 2, 39, 127
4, 11616, Note_off_c, 2, 39, 0
4, 11616, Note_on_c, 2, 31, 127
4, 11712, Note_off_c, 2, 31, 0
4, 11712, Note_on_c, 2, 32, 127
4, 11808, Note_off_c, 2, 32, 0
4, 11808, Note_on_c, 2, 34, 127
4, 11904, Note_off_c, 2, 34, 0
4, 11904, Note_on_c, 2, 27, 127
4, 12288, Note_off_c, 2, 27, 0
4, 12864, Note_on_c, 2, 27, 127
4, 12960, Note_off_c, 2, 27, 0
4, 13632, Note_on_c, 2, 27, 127
4, 13728, Note_off_c, 2, 27, 0
4, 14400, Note_on_c, 2, 34, 127
4, 14478, Note_off_c, 2, 34, 0
4, 15168, Note_on_c, 2, 34, 76
4, 15246, Note_off_c, 2, 34, 0
4, 19200, Note_on_c, 2, 34, 127
4, 19356, Note_off_c, 2, 34, 0
4, 19536, Note_on_c, 2, 34, 127
4, 19572, Note_off_c, 2, 34, 0
4, 19584, Note_on_c, 2, 36, 127
4, 19848, Note_off_c, 2, 36, 0
4, 19848, Note_on_c, 2, 39, 127
4, 19872, Note_off_c, 2, 39, 0
4, 19872, Note_on_c, 2, 38, 127
4, 19944, Note_off_c, 2, 38, 0
4, 19944, Note_on_c, 2, 39, 127
4, 19968, Note_off_c, 2, 39, 0
4, 19968, Note_on_c, 2, 29, 127
4, 20160, Note_off_c, 2, 29, 0
4, 20304, Note_on_c, 2, 29, 127
4, 20352, Note_off_c, 2, 29, 0
4, 20352, Note_on_c, 2, 34, 127
4, 20544, Note_off_c, 2, 34, 0
4, 20544, Note_on_c, 2, 34, 127
4, 20616, Note_off_c, 2, 34, 0
4, 20616, Note_on_c, 2, 38, 127
4, 20640, Note_off_c, 2, 38, 0
4, 20640, Note_on_c, 2, 36, 127
4, 20712, Note_off_c, 2, 36, 0
4, 20712, Note_on_c, 2, 39, 127
4, 20736, Note_off_c, 2, 39, 0
4, 20736, Note_on_c, 2, 38, 127
4, 21000, Note_off_c, 2, 38, 0
4, 21000, Note_on_c, 2, 36, 127
4, 21024, Note_off_c, 2, 36, 0
4, 21024, Note_on_c, 2, 38, 127
4, 21096, Note_off_c, 2, 38, 0
4, 21096, Note_on_c, 2, 34, 127
4, 21120, Note_off_c, 2, 34, 0
4, 21120, Note_on_c, 2, 39, 127
4, 21384, Note_off_c, 2, 39, 0
4, 21384, Note_on_c, 2, 43, 127
4, 21408, Note_off_c, 2, 43, 0
4, 21408, Note_on_c, 2, 41, 127
4, 21480, Note_off_c, 2, 41, 0
4, 21480, Note_on_c, 2, 44, 127
4, 21504, Note_off_c, 2, 44, 0
4, 21504, Note_on_c, 2, 43, 127
4, 21768, Note_off_c, 2, 43, 0
4, 21768, Note_on_c, 2, 41, 127
4, 21792, Note_off_c, 2, 41, 0
4, 21792, Note_on_c, 2, 43, 127
4, 21864, Note_off_c, 2, 43, 0
4, 21864, Note_on_c, 2, 39, 127
4, 21888, Note_off_c, 2, 39, 0
4, 21888, Note_on_c, 2, 44, 127
4, 22152, Note_off_c, 2, 44, 0
4, 22152, Note_on_c, 2, 46, 127
4, 22176, Note_off_c, 2, 46, 0
4, 22176, Note_on_c, 2, 43, 127
4, 22248, Note_off_c, 2, 43, 0
4, 22248, Note_on_c, 2, 44, 127
4, 22272, Note_off_c, 2, 44, 0
4, 22272, Note_on_c, 2, 41, 127
4, 22464, Note_off_c, 2, 41, 0
4, 22632, Note_on_c, 2, 41, 127
4, 22656, Note_off_c, 2, 41, 0
4, 22656, Note_on_c, 2, 39, 127
4, 22848, Note_off_c, 2, 39, 0
4, 23016, Note_on_c, 2, 39, 127
4, 23040, Note_off_c, 2, 39, 0
4, 23040, Note_on_c, 2, 38, 110
4, 23232, Note_off_c, 2, 38, 0
4, 23400, Note_on_c, 2, 38, 110
4, 23424, Note_off_c, 2, 38, 0
4, 23424, Note_on_c, 2, 36, 110
4, 23616, Note_off_c, 2, 36, 0
4, 23784, Note_on_c, 2, 36, 110
4, 23808, Note_off_c, 2, 36, 0
4, 23808, Note_on_c, 2, 35, 127
4, 24000, Note_off_c, 2, 35, 0
4, 24168, Note_on_c, 2, 38, 127
4, 24192, Note_off_c, 2, 38, 0
4, 24192, Note_on_c, 2, 31, 127
4, 24384, Note_off_c, 2, 31, 0
4, 24552, Note_on_c, 2, 35, 127
4, 24576, Note_off_c, 2, 35, 0
4, 24576, Note_on_c, 2, 36, 127
4, 24720, Note_off_c, 2, 36, 0
4, 24744, Note_on_c, 2, 35, 127
4, 24768, Note_off_c, 2, 35, 0
4, 24768, Note_on_c, 2, 36, 127
4, 24912, Note_off_c, 2, 36, 0
4, 24936, Note_on_c, 2, 27, 127
4, 24960, Note_off_c, 2, 27, 0
4, 24960, Note_on_c, 2, 29, 127
4, 25104, Note_off_c, 2, 29, 0
4, 25128, Note_on_c, 2, 36, 127
4, 25152, Note_off_c, 2, 36, 0
4, 25152, Note_on_c, 2, 38, 127
4, 25296, Note_off_c, 2, 38, 0
4, 25320, Note_on_c, 2, 29, 127
4, 25344, Note_off_c, 2, 29, 0
4, 25344, Note_on_c, 2, 31, 127
4, 25488, Note_off_c, 2, 31, 0
4, 25512, Note_on_c, 2, 38, 127
4, 25536, Note_off_c, 2, 38, 0
4, 25536, Note_on_c, 2, 39, 127
4, 25680, Note_off_c, 2, 39, 0
4, 25704, Note_on_c, 2, 31, 127
4, 25728, Note_off_c, 2, 31, 0
4, 25728, Note_on_c, 2, 32, 127
4, 25872, Note_off_c, 2, 32, 0
4, 25896, Note_on_c, 2, 39, 127
4, 25920, Note_off_c, 2, 39, 0
4, 25920, Note_on_c, 2, 41, 127
4, 26064, Note_off_c, 2, 41, 0
4, 26088, Note_on_c, 2, 33, 127
4, 26112, Note_off_c, 2, 33, 0
4, 26112, Note_on_c, 2, 35, 127
4, 26256, Note_off_c, 2, 35, 0
4, 26280, Note_on_c, 2, 43, 127
4, 26304, Note_off_c, 2, 43, 0
4, 26304, Note_on_c, 2, 39, 127
4, 26448, Note_off_c, 2, 39, 0
4, 26472, Note_on_c, 2, 36, 127
4, 26496, Note_off_c, 2, 36, 0
4, 26496, Note_on_c, 2, 43, 127
4, 26688, Note_off_c, 2, 43, 0
4, 26688, Note_on_c, 2, 31, 127
4, 26880, Note_off_c, 2, 31, 0
4, 26880, Note_on_c, 2, 36, 127
4, 26976, Note_off_c, 2, 36, 0
4, 37584, Note_on_c, 2, 40, 127
4, 37632, Note_off_c, 2, 40, 0
4, 37632, Note_on_c, 2, 41, 127
4, 37896, Note_off_c, 2, 41, 0
4, 37896, Note_on_c, 2, 44, 127
4, 37920, Note_off_c, 2, 44, 0
4, 37920, Note_on_c, 2, 43, 127
4, 37992, Note_off_c, 2, 43, 0
4, 37992, Note_on_c, 2, 44, 127
4, 38016, Note_off_c, 2, 44, 0
4, 38016, Note_on_c, 2, 34, 127
4, 38208, Note_off_c, 2, 34, 0
4, 38376, Note_on_c, 2, 39, 127
4, 38400, Note_off_c, 2, 39, 0
4, 38400, Note_on_c, 2, 32, 127
4, 38592, Note_off_c, 2, 32, 0
4, 38760, Note_on_c, 2, 44, 127
4, 38784, Note_off_c, 2, 44, 0
4, 38784, Note_on_c, 2, 37, 127
4, 38976, Note_off_c, 2, 37, 0
4, 39144, Note_on_c, 2, 38, 127
4, 39168, Note_off_c, 2, 38, 0
4, 39168, Note_on_c, 2, 39, 127
4, 39432, Note_off_c, 2, 39, 0
4, 39432, Note_on_c, 2, 43, 127
4, 39456, Note_off_c, 2, 43, 0
4, 39456, Note_on_c, 2, 41, 127
4, 39528, Note_off_c, 2, 41, 0
4, 39528, Note_on_c, 2, 44, 127
4, 39552, Note_off_c, 2, 44, 0
4, 39552, Note_on_c, 2, 43, 127
4, 39744, Note_off_c, 2, 43, 0
4, 39912, Note_on_c, 2, 39, 127
4, 39936, Note_off_c, 2, 39, 0
4, 39936, Note_on_c, 2, 44, 127
4, 40128, Note_off_c, 2, 44, 0
4, 40296, Note_on_c, 2, 37, 127
4, 40320, Note_off_c, 2, 37, 0
4, 40320, Note_on_c, 2, 36, 127
4, 40512, Note_off_c, 2, 36, 0
4, 40680, Note_on_c, 2, 38, 127
4, 40704, Note_off_c, 2, 38, 0
4, 40704, Note_on_c, 2, 39, 127
4, 40896, Note_off_c, 2, 39, 0
4, 41064, Note_on_c, 2, 37, 127
4, 41088, Note_off_c, 2, 37, 0
4, 41088, Note_on_c, 2, 36, 127
4, 41280, Note_off_c, 2, 36, 0
4, 41448, Note_on_c, 2, 36, 127
4, 41472, Note_off_c, 2, 36, 0
4, 41472, Note_on_c, 2, 29, 127
4, 41664, Note_off_c, 2, 29, 0
4, 41832, Note_on_c, 2, 31, 127
4, 41856, Note_off_c, 2, 31, 0
4, 41856, Note_on_c, 2, 32, 127
4, 41952, Note_off_c, 2, 32, 0
4, 41952, Note_on_c, 2, 36, 127
4, 42048, Note_off_c, 2, 36, 0
4, 42048, Note_on_c, 2, 37, 127
4, 42144, Note_off_c, 2, 37, 0
4, 42144, Note_on_c, 2, 39, 127
4, 42240, Note_off_c, 2, 39, 0
4, 42240, Note_on_c, 2, 32, 127
4, 42624, Note_off_c, 2, 32, 0
4, 43200, Note_on_c, 2, 32, 127
4, 43296, Note_off_c, 2, 32, 0
4, 43968, Note_on_c, 2, 32, 127
4, 44064, Note_off_c, 2, 32, 0
4, 44736, Note_on_c, 2, 27, 127
4, 44832, Note_off_c, 2, 27, 0
4, 45504, Note_on_c, 2, 27, 127
4, 45600, Note_off_c, 2, 27, 0
4, 49536, Note_on_c, 2, 27, 127
4, 49632, Note_off_c, 2, 27, 0
4, 49632, Note_on_c, 2, 29, 127
4, 49728, Note_off_c, 2, 29, 0
4, 49728, Note_on_c, 2, 31, 127
4, 49824, Note_off_c, 2, 31, 0
4, 49824, Note_on_c, 2, 32, 127
4, 50016, Note_off_c, 2, 32, 0
4, 50016, Note_on_c, 2, 31, 127
4, 50112, Note_off_c, 2, 31, 0
4, 50112, Note_on_c, 2, 29, 127
4, 50208, Note_off_c, 2, 29, 0
4, 50208, Note_on_c, 2, 34, 127
4, 50304, Note_off_c, 2, 34, 0
4, 50304, Note_on_c, 2, 27, 127
4, 50400, Note_off_c, 2, 27, 0
4, 50400, Note_on_c, 2, 26, 127
4, 50496, Note_off_c, 2, 26, 0
4, 50496, Note_on_c, 2, 24, 127
4, 50592, Note_off_c, 2, 24, 0
4, 50592, Note_on_c, 2, 36, 127
4, 50688, Note_off_c, 2, 36, 0
4, 50688, Note_on_c, 2, 29, 127
4, 50784, Note_off_c, 2, 29, 0
4, 50784, Note_on_c, 2, 31, 127
4, 50880, Note_off_c, 2, 31, 0
4, 50880, Note_on_c, 2, 24, 127
4, 50976, Note_off_c, 2, 24, 0
4, 50976, Note_on_c, 2, 29, 127
4, 51072, Note_off_c, 2, 29, 0
4, 51072, Note_on_c, 2, 34, 127
4, 51168, Note_off_c, 2, 34, 0
4, 51168, Note_on_c, 2, 26, 127
4, 51264, Note_off_c, 2, 26, 0
4, 51264, Note_on_c, 2, 27, 127
4, 51360, Note_off_c, 2, 27, 0
4, 51360, Note_on_c, 2, 31, 127
4, 51456, Note_off_c, 2, 31, 0
4, 51456, Note_on_c, 2, 32, 127
4, 51552, Note_off_c, 2, 32, 0
4, 51552, Note_on_c, 2, 44, 127
4, 51744, Note_off_c, 2, 44, 0
4, 51744, Note_on_c, 2, 43, 127
4, 51936, Note_off_c, 2, 43, 0
4, 51936, Note_on_c, 2, 41, 127
4, 52032, Note_off_c, 2, 41, 0
4, 52032, Note_on_c, 2, 43, 127
4, 52128, Note_off_c, 2, 43, 0
4, 52128, Note_on_c, 2, 44, 127
4, 52320, Note_off_c, 2, 44, 0
4, 52320, Note_on_c, 2, 43, 127
4, 52416, Note_off_c, 2, 43, 0
4, 52416, Note_on_c, 2, 41, 127
4, 52512, Note_off_c, 2, 41, 0
4, 52512, Note_on_c, 2, 34, 127
4, 52608, Note_off_c, 2, 34, 0
4, 52608, Note_on_c, 2, 39, 127
4, 52704, Note_off_c, 2, 39, 0
4, 52704, Note_on_c, 2, 31, 127
4, 52800, Note_off_c, 2, 31, 0
4, 52800, Note_on_c, 2, 32, 127
4, 52896, Note_off_c, 2, 32, 0
4, 52896, Note_on_c, 2, 36, 127
4, 52992, Note_off_c, 2, 36, 0
4, 52992, Note_on_c, 2, 38, 127
4, 53088, Note_off_c, 2, 38, 0
4, 53088, Note_on_c, 2, 29, 127
4, 53184, Note_off_c, 2, 29, 0
4, 53184, Note_on_c, 2, 31, 127
4, 53280, Note_off_c, 2, 31, 0
4, 53280, Note_on_c, 2, 34, 127
4, 53376, Note_off_c, 2, 34, 0
4, 53376, Note_on_c, 2, 36, 127
4, 53472, Note_off_c, 2, 36, 0
4, 53472, Note_on_c, 2, 27, 127
4, 53568, Note_off_c, 2, 27, 0
4, 53568, Note_on_c, 2, 29, 127
4, 53664, Note_off_c, 2, 29, 0
4, 53760, Note_on_c, 2, 32, 127
4, 53856, Note_off_c, 2, 32, 0
4, 53952, Note_on_c, 2, 31, 127
4, 54048, Note_off_c, 2, 31, 0
4, 54048, Note_on_c, 2, 36, 127
4, 54144, Note_off_c, 2, 36, 0
4, 54144, Note_on_c, 2, 29, 127
4, 54240, Note_off_c, 2, 29, 0
4, 54240, Note_on_c, 2, 31, 127
4, 54336, Note_off_c, 2, 31, 0
4, 54336, Note_on_c, 2, 24, 127
4, 54432, Note_off_c, 2, 24, 0
4, 54432, Note_on_c, 2, 29, 127
4, 54528, Note_off_c, 2, 29, 0
4, 54528, Note_on_c, 2, 34, 127
4, 54624, Note_off_c, 2, 34, 0
4, 55320, Note_on_c, 2, 48, 127
4, 55344, Note_off_c, 2, 48, 0
4, 55344, Note_on_c, 2, 46, 127
4, 55368, Note_off_c, 2, 46, 0
4, 55368, Note_on_c, 2, 48, 127
4, 55392, Note_off_c, 2, 48, 0
4, 55392, Note_on_c, 2, 44, 127
4, 55416, Note_off_c, 2, 44, 0
4, 55416, Note_on_c, 2, 46, 127
4, 55440, Note_off_c, 2, 46, 0
4, 55440, Note_on_c, 2, 43, 127
4, 55464, Note_off_c, 2, 43, 0
4, 55464, Note_on_c, 2, 44, 127
4, 55488, Note_off_c, 2, 44, 0
4, 55488, Note_on_c, 2, 41, 127
4, 55512, Note_off_c, 2, 41, 0
4, 55512, Note_on_c, 2, 43, 127
4, 55536, Note_off_c, 2, 43, 0
4, 55536, Note_on_c, 2, 39, 127
4, 55560, Note_off_c, 2, 39, 0
4, 55560, Note_on_c, 2, 41, 127
4, 55584, Note_off_c, 2, 41, 0
4, 55584, Note_on_c, 2, 38, 127
4, 55608, Note_off_c, 2, 38, 0
4, 55608, Note_on_c, 2, 39, 127
4, 55632, Note_off_c, 2, 39, 0
4, 55632, Note_on_c, 2, 36, 127
4, 55656, Note_off_c, 2, 36, 0
4, 55656, Note_on_c, 2, 38, 127
4, 55680, Note_off_c, 2, 38, 0
4, 55680, Note_on_c, 2, 35, 127
4, 55704, Note_off_c, 2, 35, 0
4, 55704, Note_on_c, 2, 38, 127
4, 55728, Note_off_c, 2, 38, 0
4, 55728, Note_on_c, 2, 35, 127
4, 55752, Note_off_c, 2, 35, 0
4, 55752, Note_on_c, 2, 38, 127
4, 55776, Note_off_c, 2, 38, 0
4, 55776, Note_on_c, 2, 36, 127
4, 55800, Note_off_c, 2, 36, 0
4, 55800, Note_on_c, 2, 39, 127
4, 55824, Note_off_c, 2, 39, 0
4, 55824, Note_on_c, 2, 36, 127
4, 55848, Note_off_c, 2, 36, 0
4, 55848, Note_on_c, 2, 39, 127
4, 55872, Note_off_c, 2, 39, 0
4, 55872, Note_on_c, 2, 36, 127
4, 55896, Note_off_c, 2, 36, 0
4, 55896, Note_on_c, 2, 41, 127
4, 55920, Note_off_c, 2, 41, 0
4, 55920, Note_on_c, 2, 36, 127
4, 55944, Note_off_c, 2, 36, 0
4, 55944, Note_on_c, 2, 41, 127
4, 55968, Note_off_c, 2, 41, 0
4, 55968, Note_on_c, 2, 35, 127
4, 55992, Note_off_c, 2, 35, 0
4, 55992, Note_on_c, 2, 43, 127
4, 56016, Note_off_c, 2, 43, 0
4, 56016, Note_on_c, 2, 35, 127
4, 56040, Note_off_c, 2, 35, 0
4, 56040, Note_on_c, 2, 43, 127
4, 56064, Note_off_c, 2, 43, 0
4, 56064, Note_on_c, 2, 36, 127
4, 56160, Note_off_c, 2, 36, 0
4, 56856, Note_on_c, 2, 46, 127
4, 56880, Note_off_c, 2, 46, 0
4, 56880, Note_on_c, 2, 45, 127
4, 56904, Note_off_c, 2, 45, 0
4, 56904, Note_on_c, 2, 46, 127
4, 56928, Note_off_c, 2, 46, 0
4, 56928, Note_on_c, 2, 43, 127
4, 56952, Note_off_c, 2, 43, 0
4, 56952, Note_on_c, 2, 45, 127
4, 56976, Note_off_c, 2, 45, 0
4, 56976, Note_on_c, 2, 41, 127
4, 57000, Note_off_c, 2, 41, 0
4, 57000, Note_on_c, 2, 43, 127
4, 57024, Note_off_c, 2, 43, 0
4, 57024, Note_on_c, 2, 39, 127
4, 57048, Note_off_c, 2, 39, 0
4, 57048, Note_on_c, 2, 41, 127
4, 57072, Note_off_c, 2, 41, 0
4, 57072, Note_on_c, 2, 38, 127
4, 57096, Note_off_c, 2, 38, 0
4, 57096, Note_on_c, 2, 39, 127
4, 57120, Note_off_c, 2, 39, 0
4, 57120, Note_on_c, 2, 36, 127
4, 57144, Note_off_c, 2, 36, 0
4, 57144, Note_on_c, 2, 38, 127
4, 57168, Note_off_c, 2, 38, 0
4, 57168, Note_on_c, 2, 34, 127
4, 57192, Note_off_c, 2, 34, 0
4, 57192, Note_on_c, 2, 36, 127
4, 57216, Note_off_c, 2, 36, 0
4, 57216, Note_on_c, 2, 33, 127
4, 57240, Note_off_c, 2, 33, 0
4, 57240, Note_on_c, 2, 36, 127
4, 57264, Note_off_c, 2, 36, 0
4, 57264, Note_on_c, 2, 33, 127
4, 57288, Note_off_c, 2, 33, 0
4, 57288, Note_on_c, 2, 36, 127
4, 57312, Note_off_c, 2, 36, 0
4, 57312, Note_on_c, 2, 34, 127
4, 57336, Note_off_c, 2, 34, 0
4, 57336, Note_on_c, 2, 38, 127
4, 57360, Note_off_c, 2, 38, 0
4, 57360, Note_on_c, 2, 34, 127
4, 57384, Note_off_c, 2, 34, 0
4, 57384, Note_on_c, 2, 38, 127
4, 57408, Note_off_c, 2, 38, 0
4, 57408, Note_on_c, 2, 34, 127
4, 57432, Note_off_c, 2, 34, 0
4, 57432, Note_on_c, 2, 39, 127
4, 57456, Note_off_c, 2, 39, 0
4, 57456, Note_on_c, 2, 34, 127
4, 57480, Note_off_c, 2, 34, 0
4, 57480, Note_on_c, 2, 39, 127
4, 57504, Note_off_c, 2, 39, 0
4, 57504, Note_on_c, 2, 33, 127
4, 57528, Note_off_c, 2, 33, 0
4, 57528, Note_on_c, 2, 41, 127
4, 57552, Note_off_c, 2, 41, 0
4, 57552, Note_on_c, 2, 33, 127
4, 57576, Note_off_c, 2, 33, 0
4, 57576, Note_on_c, 2, 41, 127
4, 57600, Note_off_c, 2, 41, 0
4, 57600, Note_on_c, 2, 34, 127
4, 57696, Note_off_c, 2, 34, 0
4, 58392, Note_on_c, 2, 44, 127
4, 58416, Note_off_c, 2, 44, 0
4, 58416, Note_on_c, 2, 43, 127
4, 58440, Note_off_c, 2, 43, 0
4, 58440, Note_on_c, 2, 44, 127
4, 58464, Note_off_c, 2, 44, 0
4, 58464, Note_on_c, 2, 41, 127
4, 58488, Note_off_c, 2, 41, 0
4, 58488, Note_on_c, 2, 43, 127
4, 58512, Note_off_c, 2, 43, 0
4, 58512, Note_on_c, 2, 39, 127
4, 58536, Note_off_c, 2, 39, 0
4, 58536, Note_on_c, 2, 41, 127
4, 58560, Note_off_c, 2, 41, 0
4, 58560, Note_on_c, 2, 37, 127
4, 58584, Note_off_c, 2, 37, 0
4, 58584, Note_on_c, 2, 39, 127
4, 58608, Note_off_c, 2, 39, 0
4, 58608, Note_on_c, 2, 36, 127
4, 58632, Note_off_c, 2, 36, 0
4, 58632, Note_on_c, 2, 37, 127
4, 58656, Note_off_c, 2, 37, 0
4, 58656, Note_on_c, 2, 34, 127
4, 58680, Note_off_c, 2, 34, 0
4, 58680, Note_on_c, 2, 36, 127
4, 58704, Note_off_c, 2, 36, 0
4, 58704, Note_on_c, 2, 32, 127
4, 58728, Note_off_c, 2, 32, 0
4, 58728, Note_on_c, 2, 34, 127
4, 58752, Note_off_c, 2, 34, 0
4, 58752, Note_on_c, 2, 31, 127
4, 58776, Note_off_c, 2, 31, 0
4, 58776, Note_on_c, 2, 34, 127
4, 58800, Note_off_c, 2, 34, 0
4, 58800, Note_on_c, 2, 31, 127
4, 58824, Note_off_c, 2, 31, 0
4, 58824, Note_on_c, 2, 34, 127
4, 58848, Note_off_c, 2, 34, 0
4, 58848, Note_on_c, 2, 32, 127
4, 58872, Note_off_c, 2, 32, 0
4, 58872, Note_on_c, 2, 36, 127
4, 58896, Note_off_c, 2, 36, 0
4, 58896, Note_on_c, 2, 32, 127
4, 58920, Note_off_c, 2, 32, 0
4, 58920, Note_on_c, 2, 36, 127
4, 58944, Note_off_c, 2, 36, 0
4, 58944, Note_on_c, 2, 32, 127
4, 58968, Note_off_c, 2, 32, 0
4, 58968, Note_on_c, 2, 37, 127
4, 58992, Note_off_c, 2, 37, 0
4, 58992, Note_on_c, 2, 32, 127
4, 59016, Note_off_c, 2, 32, 0
4, 59016, Note_on_c, 2, 37, 127
4, 59040, Note_off_c, 2, 37, 0
4, 59040, Note_on_c, 2, 31, 127
4, 59064, Note_off_c, 2, 31, 0
4, 59064, Note_on_c, 2, 39, 127
4, 59088, Note_off_c, 2, 39, 0
4, 59088, Note_on_c, 2, 31, 127
4, 59112, Note_off_c, 2, 31, 0
4, 59112, Note_on_c, 2, 39, 127
4, 59136, Note_off_c, 2, 39, 0
4, 59136, Note_on_c, 2, 32, 127
4, 59328, Note_off_c, 2, 32, 0
4, 59328, Note_on_c, 2, 34, 127
4, 59520, Note_off_c, 2, 34, 0
4, 59520, Note_on_c, 2, 36, 127
4, 59712, Note_off_c, 2, 36, 0
4, 59712, Note_on_c, 2, 38, 127
4, 59904, Note_off_c, 2, 38, 0
4, 59904, Note_on_c, 2, 39, 127
4, 60000, Note_off_c, 2, 39, 0
4, 60000, Note_on_c, 2, 38, 127
4, 60096, Note_off_c, 2, 38, 0
4, 60096, Note_on_c, 2, 36, 127
4, 60192, Note_off_c, 2, 36, 0
4, 60192, Note_on_c, 2, 41, 127
4, 60288, Note_off_c, 2, 41, 0
4, 60288, Note_on_c, 2, 34, 127
4, 60366, Note_off_c, 2, 34, 0
4, 60384, Note_on_c, 2, 36, 127
4, 60462, Note_off_c, 2, 36, 0
4, 60480, Note_on_c, 2, 29, 127
4, 60558, Note_off_c, 2, 29, 0
4, 60576, Note_on_c, 2, 34, 127
4, 60654, Note_off_c, 2, 34, 0
4, 60672, Note_on_c, 2, 27, 127
4, 60750, Note_off_c, 2, 27, 0
4, 66768, Note_on_c, 2, 31, 127
4, 66804, Note_off_c, 2, 31, 0
4, 66816, Note_on_c, 2, 36, 127
4, 67068, Note_off_c, 2, 36, 0
4, 67080, Note_on_c, 2, 36, 127
4, 67098, Note_off_c, 2, 36, 0
4, 67104, Note_on_c, 2, 38, 127
4, 67164, Note_off_c, 2, 38, 0
4, 67176, Note_on_c, 2, 39, 127
4, 67194, Note_off_c, 2, 39, 0
4, 67200, Note_on_c, 2, 38, 127
4, 67392, Note_off_c, 2, 38, 0
4, 67536, Note_on_c, 2, 34, 127
4, 67584, Note_off_c, 2, 34, 0
4, 67584, Note_on_c, 2, 39, 127
4, 67848, Note_off_c, 2, 39, 0
4, 67848, Note_on_c, 2, 34, 127
4, 67872, Note_off_c, 2, 34, 0
4, 67872, Note_on_c, 2, 31, 127
4, 67944, Note_off_c, 2, 31, 0
4, 67944, Note_on_c, 2, 34, 127
4, 67968, Note_off_c, 2, 34, 0
4, 67968, Note_on_c, 2, 27, 127
4, 68160, Note_off_c, 2, 27, 0
4, 68328, Note_on_c, 2, 39, 127
4, 68352, Note_off_c, 2, 39, 0
4, 68352, Note_on_c, 2, 38, 127
4, 68544, Note_off_c, 2, 38, 0
4, 68712, Note_on_c, 2, 38, 127
4, 68736, Note_off_c, 2, 38, 0
4, 68736, Note_on_c, 2, 36, 127
4, 68928, Note_off_c, 2, 36, 0
4, 69096, Note_on_c, 2, 36, 127
4, 69120, Note_off_c, 2, 36, 0
4, 69120, Note_on_c, 2, 34, 127
4, 69312, Note_off_c, 2, 34, 0
4, 69480, Note_on_c, 2, 34, 127
4, 69504, Note_off_c, 2, 34, 0
4, 69504, Note_on_c, 2, 33, 127
4, 69696, Note_off_c, 2, 33, 0
4, 69864, Note_on_c, 2, 36, 127
4, 69888, Note_off_c, 2, 36, 0
4, 69888, Note_on_c, 2, 29, 127
4, 70080, Note_off_c, 2, 29, 0
4, 70248, Note_on_c, 2, 33, 127
4, 70272, Note_off_c, 2, 33, 0
4, 70272, Note_on_c, 2, 34, 127
4, 70416, Note_off_c, 2, 34, 0
4, 70440, Note_on_c, 2, 33, 127
4, 70464, Note_off_c, 2, 33, 0
4, 70464, Note_on_c, 2, 34, 127
4, 70608, Note_off_c, 2, 34, 0
4, 70632, Note_on_c, 2, 26, 127
4, 70656, Note_off_c, 2, 26, 0
4, 70656, Note_on_c, 2, 27, 127
4, 70800, Note_off_c, 2, 27, 0
4, 70824, Note_on_c, 2, 34, 127
4, 70848, Note_off_c, 2, 34, 0
4, 70848, Note_on_c, 2, 36, 127
4, 70992, Note_off_c, 2, 36, 0
4, 71016, Note_on_c, 2, 27, 127
4, 71040, Note_off_c, 2, 27, 0
4, 71040, Note_on_c, 2, 29, 127
4, 71184, Note_off_c, 2, 29, 0
4, 71208, Note_on_c, 2, 36, 127
4, 71232, Note_off_c, 2, 36, 0
4, 71232, Note_on_c, 2, 38, 127
4, 71376, Note_off_c, 2, 38, 0
4, 71400, Note_on_c, 2, 29, 127
4, 71424, Note_off_c, 2, 29, 0
4, 71424, Note_on_c, 2, 31, 127
4, 71568, Note_off_c, 2, 31, 0
4, 71592, Note_on_c, 2, 38, 127
4, 71616, Note_off_c, 2, 38, 0
4, 71616, Note_on_c, 2, 39, 127
4, 71760, Note_off_c, 2, 39, 0
4, 71784, Note_on_c, 2, 31, 127
4, 71808, Note_off_c, 2, 31, 0
4, 71808, Note_on_c, 2, 33, 127
4, 71952, Note_off_c, 2, 33, 0
4, 71976, Note_on_c, 2, 41, 127
4, 72000, Note_off_c, 2, 41, 0
4, 72000, Note_on_c, 2, 38, 127
4, 72144, Note_off_c, 2, 38, 0
4, 72168, Note_on_c, 2, 34, 127
4, 72192, Note_off_c, 2, 34, 0
4, 72192, Note_on_c, 2, 41, 127
4, 72384, Note_off_c, 2, 41, 0
4, 72384, Note_on_c, 2, 29, 127
4, 72576, Note_off_c, 2, 29, 0
4, 72576, Note_on_c, 2, 34, 127
4, 72768, Note_off_c, 2, 34, 0
4, 72912, Note_on_c, 2, 34, 127
4, 72960, Note_off_c, 2, 34, 0
4, 72960, Note_on_c, 2, 35, 127
4, 73224, Note_off_c, 2, 35, 0
4, 73224, Note_on_c, 2, 38, 127
4, 73248, Note_off_c, 2, 38, 0
4, 73248, Note_on_c, 2, 36, 127
4, 73320, Note_off_c, 2, 36, 0
4, 73320, Note_on_c, 2, 38, 127
4, 73344, Note_off_c, 2, 38, 0
4, 73344, Note_on_c, 2, 31, 127
4, 73536, Note_off_c, 2, 31, 0
4, 73680, Note_on_c, 2, 35, 127
4, 73728, Note_off_c, 2, 35, 0
4, 73728, Note_on_c, 2, 36, 127
4, 73992, Note_off_c, 2, 36, 0
4, 73992, Note_on_c, 2, 39, 127
4, 74016, Note_off_c, 2, 39, 0
4, 74016, Note_on_c, 2, 38, 127
4, 74088, Note_off_c, 2, 38, 0
4, 74088, Note_on_c, 2, 39, 127
4, 74112, Note_off_c, 2, 39, 0
4, 74112, Note_on_c, 2, 29, 127
4, 74304, Note_off_c, 2, 29, 0
4, 74472, Note_on_c, 2, 34, 127
4, 74496, Note_off_c, 2, 34, 0
4, 74496, Note_on_c, 2, 27, 127
4, 74688, Note_off_c, 2, 27, 0
4, 74856, Note_on_c, 2, 39, 127
4, 74880, Note_off_c, 2, 39, 0
4, 74880, Note_on_c, 2, 32, 127
4, 75072, Note_off_c, 2, 32, 0
4, 75240, Note_on_c, 2, 33, 127
4, 75264, Note_off_c, 2, 33, 0
4, 75264, Note_on_c, 2, 34, 127
4, 75528, Note_off_c, 2, 34, 0
4, 75528, Note_on_c, 2, 38, 127
4, 75552, Note_off_c, 2, 38, 0
4, 75552, Note_on_c, 2, 36, 127
4, 75624, Note_off_c, 2, 36, 0
4, 75624, Note_on_c, 2, 39, 127
4, 75648, Note_off_c, 2, 39, 0
4, 75648, Note_on_c, 2, 34, 127
4, 75840, Note_off_c, 2, 34, 0
4, 76008, Note_on_c, 2, 34, 127
4, 76032, Note_off_c, 2, 34, 0
4, 76032, Note_on_c, 2, 39, 127
4, 76224, Note_off_c, 2, 39, 0
4, 76392, Note_on_c, 2, 34, 127
4, 76416, Note_off_c, 2, 34, 0
4, 76416, Note_on_c, 2, 43, 127
4, 76608, Note_off_c, 2, 43, 0
4, 76776, Note_on_c, 2, 33, 127
4, 76800, Note_off_c, 2, 33, 0
4, 76800, Note_on_c, 2, 34, 127
4, 76992, Note_off_c, 2, 34, 0
4, 77160, Note_on_c, 2, 32, 127
4, 77184, Note_off_c, 2, 32, 0
4, 77184, Note_on_c, 2, 31, 127
4, 77376, Note_off_c, 2, 31, 0
4, 77544, Note_on_c, 2, 31, 127
4, 77568, Note_off_c, 2, 31, 0
4, 77568, Note_on_c, 2, 36, 127
4, 77760, Note_off_c, 2, 36, 0
4, 77928, Note_on_c, 2, 38, 127
4, 77952, Note_off_c, 2, 38, 0
4, 77952, Note_on_c, 2, 39, 127
4, 78030, Note_off_c, 2, 39, 0
4, 78048, Note_on_c, 2, 31, 127
4, 78126, Note_off_c, 2, 31, 0
4, 78144, Note_on_c, 2, 32, 127
4, 78222, Note_off_c, 2, 32, 0
4, 78240, Note_on_c, 2, 34, 127
4, 78318, Note_off_c, 2, 34, 0
4, 78336, Note_on_c, 2, 27, 127
4, 78876, Note_off_c, 2, 27, 0
4, 89088, Note_on_c, 2, 34, 110
4, 89472, Note_off_c, 2, 34, 0
4, 89472, Note_on_c, 2, 31, 110
4, 89664, Note_off_c, 2, 31, 0
4, 89664, Note_on_c, 2, 36, 110
4, 89856, Note_off_c, 2, 36, 0
4, 89856, Note_on_c, 2, 34, 110
4, 90048, Note_off_c, 2, 34, 0
4, 90048, Note_on_c, 2, 39, 110
4, 90432, Note_off_c, 2, 39, 0
4, 90432, Note_on_c, 2, 38, 110
4, 90624, Note_off_c, 2, 38, 0
4, 90624, Note_on_c, 2, 39, 110
4, 90816, Note_off_c, 2, 39, 0
4, 90816, Note_on_c, 2, 41, 110
4, 91008, Note_off_c, 2, 41, 0
4, 91008, Note_on_c, 2, 34, 110
4, 91200, Note_off_c, 2, 34, 0
4, 91200, Note_on_c, 2, 36, 110
4, 91392, Note_off_c, 2, 36, 0
4, 91392, Note_on_c, 2, 32, 110
4, 91776, Note_off_c, 2, 32, 0
4, 91776, Note_on_c, 2, 34, 110
4, 92160, Note_off_c, 2, 34, 0
4, 92160, Note_on_c, 2, 36, 110
4, 92256, Note_off_c, 2, 36, 0
4, 92256, Note_on_c, 2, 46, 110
4, 92352, Note_off_c, 2, 46, 0
4, 92352, Note_on_c, 2, 45, 110
4, 92448, Note_off_c, 2, 45, 0
4, 92448, Note_on_c, 2, 43, 110
4, 92544, Note_off_c, 2, 43, 0
4, 92544, Note_on_c, 2, 45, 110
4, 92640, Note_off_c, 2, 45, 0
4, 92640, Note_on_c, 2, 41, 110
4, 92736, Note_off_c, 2, 41, 0
4, 92736, Note_on_c, 2, 46, 110
4, 92832, Note_off_c, 2, 46, 0
4, 92832, Note_on_c, 2, 45, 110
4, 92928, Note_off_c, 2, 45, 0
4, 92928, Note_on_c, 2, 43, 110
4, 93120, Note_off_c, 2, 43, 0
4, 93120, Note_on_c, 2, 48, 110
4, 93312, Note_off_c, 2, 48, 0
4, 93312, Note_on_c, 2, 45, 110
4, 93504, Note_off_c, 2, 45, 0
4, 93504, Note_on_c, 2, 41, 110
4, 93696, Note_off_c, 2, 41, 0
4, 93696, Note_on_c, 2, 46, 110
4, 93792, Note_off_c, 2, 46, 0
4, 93792, Note_on_c, 2, 41, 110
4, 93888, Note_off_c, 2, 41, 0
4, 93888, Note_on_c, 2, 43, 110
4, 93984, Note_off_c, 2, 43, 0
4, 93984, Note_on_c, 2, 39, 110
4, 94080, Note_off_c, 2, 39, 0
4, 94080, Note_on_c, 2, 41, 110
4, 94272, Note_off_c, 2, 41, 0
4, 94272, Note_on_c, 2, 29, 110
4, 94464, Note_off_c, 2, 29, 0
4, 94464, Note_on_c, 2, 34, 110
4, 94656, Note_off_c, 2, 34, 0
4, 102144, Note_on_c, 2, 34, 110
4, 102528, Note_off_c, 2, 34, 0
4, 102528, Note_on_c, 2, 31, 110
4, 102720, Note_off_c, 2, 31, 0
4, 102720, Note_on_c, 2, 36, 110
4, 102912, Note_off_c, 2, 36, 0
4, 102912, Note_on_c, 2, 34, 110
4, 103104, Note_off_c, 2, 34, 0
4, 103104, Note_on_c, 2, 39, 110
4, 103488, Note_off_c, 2, 39, 0
4, 103488, Note_on_c, 2, 37, 110
4, 103776, Note_off_c, 2, 37, 0
4, 103776, Note_on_c, 2, 39, 110
4, 103872, Note_off_c, 2, 39, 0
4, 103872, Note_on_c, 2, 37, 110
4, 103968, Note_off_c, 2, 37, 0
4, 103968, Note_on_c, 2, 36, 110
4, 104064, Note_off_c, 2, 36, 0
4, 104064, Note_on_c, 2, 37, 110
4, 104160, Note_off_c, 2, 37, 0
4, 104160, Note_on_c, 2, 34, 110
4, 104256, Note_off_c, 2, 34, 0
4, 104256, Note_on_c, 2, 39, 110
4, 104352, Note_off_c, 2, 39, 0
4, 104352, Note_on_c, 2, 37, 110
4, 104448, Note_off_c, 2, 37, 0
4, 104448, Note_on_c, 2, 36, 110
4, 104544, Note_off_c, 2, 36, 0
4, 104544, Note_on_c, 2, 34, 110
4, 104640, Note_off_c, 2, 34, 0
4, 104640, Note_on_c, 2, 36, 110
4, 104736, Note_off_c, 2, 36, 0
4, 104736, Note_on_c, 2, 38, 110
4, 104832, Note_off_c, 2, 38, 0
4, 104832, Note_on_c, 2, 39, 110
4, 104928, Note_off_c, 2, 39, 0
4, 104928, Note_on_c, 2, 41, 110
4, 105024, Note_off_c, 2, 41, 0
4, 105024, Note_on_c, 2, 43, 110
4, 105120, Note_off_c, 2, 43, 0
4, 105120, Note_on_c, 2, 39, 110
4, 105216, Note_off_c, 2, 39, 0
4, 105216, Note_on_c, 2, 44, 110
4, 105312, Note_off_c, 2, 44, 0
4, 105312, Note_on_c, 2, 41, 110
4, 105408, Note_off_c, 2, 41, 0
4, 105408, Note_on_c, 2, 46, 110
4, 105504, Note_off_c, 2, 46, 0
4, 105504, Note_on_c, 2, 44, 110
4, 105600, Note_off_c, 2, 44, 0
4, 105600, Note_on_c, 2, 43, 110
4, 105696, Note_off_c, 2, 43, 0
4, 105696, Note_on_c, 2, 39, 110
4, 105792, Note_off_c, 2, 39, 0
4, 105792, Note_on_c, 2, 44, 110
4, 106176, Note_off_c, 2, 44, 0
4, 106176, Note_on_c, 2, 43, 110
4, 106272, Note_off_c, 2, 43, 0
4, 106272, Note_on_c, 2, 39, 110
4, 106368, Note_off_c, 2, 39, 0
4, 106368, Note_on_c, 2, 46, 110
4, 106560, Note_off_c, 2, 46, 0
4, 106560, Note_on_c, 2, 34, 110
4, 106752, Note_off_c, 2, 34, 0
4, 106752, Note_on_c, 2, 27, 76
4, 107040, Note_off_c, 2, 27, 0
4, 138576, Note_on_c, 2, 43, 127
4, 138624, Note_off_c, 2, 43, 0
4, 138624, Note_on_c, 2, 41, 127
4, 138672, Note_off_c, 2, 41, 0
4, 138672, Note_on_c, 2, 43, 127
4, 138720, Note_off_c, 2, 43, 0
4, 138720, Note_on_c, 2, 36, 127
4, 138768, Note_off_c, 2, 36, 0
4, 138768, Note_on_c, 2, 39, 127
4, 138792, Note_off_c, 2, 39, 0
4, 138792, Note_on_c, 2, 38, 127
4, 138816, Note_off_c, 2, 38, 0
4, 138816, Note_on_c, 2, 39, 127
4, 138840, Note_off_c, 2, 39, 0
4, 138840, Note_on_c, 2, 36, 127
4, 138864, Note_off_c, 2, 36, 0
4, 138864, Note_on_c, 2, 41, 127
4, 138912, Note_off_c, 2, 41, 0
4, 138912, Note_on_c, 2, 39, 127
4, 138960, Note_off_c, 2, 39, 0
4, 138960, Note_on_c, 2, 41, 127
4, 139008, Note_off_c, 2, 41, 0
4, 139008, Note_on_c, 2, 34, 127
4, 139056, Note_off_c, 2, 34, 0
4, 139056, Note_on_c, 2, 38, 127
4, 139080, Note_off_c, 2, 38, 0
4, 139080, Note_on_c, 2, 36, 127
4, 139104, Note_off_c, 2, 36, 0
4, 139104, Note_on_c, 2, 38, 127
4, 139128, Note_off_c, 2, 38, 0
4, 139128, Note_on_c, 2, 34, 127
4, 139152, Note_off_c, 2, 34, 0
4, 139152, Note_on_c, 2, 39, 127
4, 139440, Note_off_c, 2, 39, 0
4, 139440, Note_on_c, 2, 37, 127
4, 139728, Note_off_c, 2, 37, 0
4, 139728, Note_on_c, 2, 36, 127
4, 139872, Note_off_c, 2, 36, 0
4, 139872, Note_on_c, 2, 41, 127
4, 140160, Note_off_c, 2, 41, 0
4, 140160, Note_on_c, 2, 39, 127
4, 140304, Note_off_c, 2, 39, 0
4, 140304, Note_on_c, 2, 44, 127
4, 140592, Note_off_c, 2, 44, 0
4, 140592, Note_on_c, 2, 43, 127
4, 140736, Note_off_c, 2, 43, 0
4, 140736, Note_on_c, 2, 44, 127
4, 140880, Note_off_c, 2, 44, 0
4, 140880, Note_on_c, 2, 41, 127
4, 141024, Note_off_c, 2, 41, 0
4, 141024, Note_on_c, 2, 37, 127
4, 141312, Note_off_c, 2, 37, 0
4, 141312, Note_on_c, 2, 36, 127
4, 141552, Note_off_c, 2, 36, 0
4, 141552, Note_on_c, 2, 35, 127
4, 141600, Note_off_c, 2, 35, 0
4, 141600, Note_on_c, 2, 36, 127
4, 141744, Note_off_c, 2, 36, 0
4, 141744, Note_on_c, 2, 24, 127
4, 141888, Note_off_c, 2, 24, 0
4, 141888, Note_on_c, 2, 29, 127
4, 142032, Note_off_c, 2, 29, 0
4, 143760, Note_on_c, 2, 36, 127
4, 144048, Note_off_c, 2, 36, 0
4, 144048, Note_on_c, 2, 35, 127
4, 144192, Note_off_c, 2, 35, 0
4, 144192, Note_on_c, 2, 39, 127
4, 144480, Note_off_c, 2, 39, 0
4, 144480, Note_on_c, 2, 36, 127
4, 144624, Note_off_c, 2, 36, 0
4, 144624, Note_on_c, 2, 43, 127
4, 144912, Note_off_c, 2, 43, 0
4, 144912, Note_on_c, 2, 42, 127
4, 145056, Note_off_c, 2, 42, 0
4, 145056, Note_on_c, 2, 43, 127
4, 145200, Note_off_c, 2, 43, 0
4, 145776, Note_on_c, 2, 48, 127
4, 145824, Note_off_c, 2, 48, 0
4, 145824, Note_on_c, 2, 46, 127
4, 145872, Note_off_c, 2, 46, 0
4, 145872, Note_on_c, 2, 48, 127
4, 145920, Note_off_c, 2, 48, 0
4, 145920, Note_on_c, 2, 41, 127
4, 145968, Note_off_c, 2, 41, 0
4, 145968, Note_on_c, 2, 44, 127
4, 145992, Note_off_c, 2, 44, 0
4, 145992, Note_on_c, 2, 43, 127
4, 146016, Note_off_c, 2, 43, 0
4, 146016, Note_on_c, 2, 44, 127
4, 146040, Note_off_c, 2, 44, 0
4, 146040, Note_on_c, 2, 41, 127
4, 146064, Note_off_c, 2, 41, 0
4, 146064, Note_on_c, 2, 46, 127
4, 146112, Note_off_c, 2, 46, 0
4, 146112, Note_on_c, 2, 44, 127
4, 146160, Note_off_c, 2, 44, 0
4, 146160, Note_on_c, 2, 46, 127
4, 146208, Note_off_c, 2, 46, 0
4, 146208, Note_on_c, 2, 39, 127
4, 146256, Note_off_c, 2, 39, 0
4, 146256, Note_on_c, 2, 43, 127
4, 146280, Note_off_c, 2, 43, 0
4, 146280, Note_on_c, 2, 41, 127
4, 146304, Note_off_c, 2, 41, 0
4, 146304, Note_on_c, 2, 43, 127
4, 146328, Note_off_c, 2, 43, 0
4, 146328, Note_on_c, 2, 39, 127
4, 146352, Note_off_c, 2, 39, 0
4, 146352, Note_on_c, 2, 44, 127
4, 146400, Note_off_c, 2, 44, 0
4, 146400, Note_on_c, 2, 43, 127
4, 146448, Note_off_c, 2, 43, 0
4, 146448, Note_on_c, 2, 44, 127
4, 146496, Note_off_c, 2, 44, 0
4, 146496, Note_on_c, 2, 38, 127
4, 146544, Note_off_c, 2, 38, 0
4, 146544, Note_on_c, 2, 41, 127
4, 146568, Note_off_c, 2, 41, 0
4, 146568, Note_on_c, 2, 39, 127
4, 146592, Note_off_c, 2, 39, 0
4, 146592, Note_on_c, 2, 41, 127
4, 146616, Note_off_c, 2, 41, 0
4, 146616, Note_on_c, 2, 38, 127
4, 146640, Note_off_c, 2, 38, 0
4, 146640, Note_on_c, 2, 43, 127
4, 146688, Note_off_c, 2, 43, 0
4, 146688, Note_on_c, 2, 41, 127
4, 146736, Note_off_c, 2, 41, 0
4, 146736, Note_on_c, 2, 43, 127
4, 146784, Note_off_c, 2, 43, 0
4, 146784, Note_on_c, 2, 36, 127
4, 146832, Note_off_c, 2, 36, 0
4, 146832, Note_on_c, 2, 39, 127
4, 146856, Note_off_c, 2, 39, 0
4, 146856, Note_on_c, 2, 38, 127
4, 146880, Note_off_c, 2, 38, 0
4, 146880, Note_on_c, 2, 39, 127
4, 146904, Note_off_c, 2, 39, 0
4, 146904, Note_on_c, 2, 36, 127
4, 146928, Note_off_c, 2, 36, 0
4, 146928, Note_on_c, 2, 41, 127
4, 146976, Note_off_c, 2, 41, 0
4, 146976, Note_on_c, 2, 39, 127
4, 147024, Note_off_c, 2, 39, 0
4, 147024, Note_on_c, 2, 41, 127
4, 147072, Note_off_c, 2, 41, 0
4, 147072, Note_on_c, 2, 34, 127
4, 147216, Note_off_c, 2, 34, 0
4, 147792, Note_on_c, 2, 39, 127
4, 148080, Note_off_c, 2, 39, 0
4, 148080, Note_on_c, 2, 36, 127
4, 148224, Note_off_c, 2, 36, 0
4, 148224, Note_on_c, 2, 41, 127
4, 148512, Note_off_c, 2, 41, 0
4, 148512, Note_on_c, 2, 39, 127
4, 148656, Note_off_c, 2, 39, 0
4, 148656, Note_on_c, 2, 44, 127
4, 148944, Note_off_c, 2, 44, 0
4, 148944, Note_on_c, 2, 43, 127
4, 149088, Note_off_c, 2, 43, 0
4, 149088, Note_on_c, 2, 48, 127
4, 149376, Note_off_c, 2, 48, 0
4, 149376, Note_on_c, 2, 46, 127
4, 149520, Note_off_c, 2, 46, 0
4, 151248, Note_on_c, 2, 32, 127
4, 151536, Note_off_c, 2, 32, 0
4, 151536, Note_on_c, 2, 31, 127
4, 151680, Note_off_c, 2, 31, 0
4, 151680, Note_on_c, 2, 36, 127
4, 151968, Note_off_c, 2, 36, 0
4, 151968, Note_on_c, 2, 34, 127
4, 152112, Note_off_c, 2, 34, 0
4, 152112, Note_on_c, 2, 39, 127
4, 152400, Note_off_c, 2, 39, 0
4, 152400, Note_on_c, 2, 38, 127
4, 152544, Note_off_c, 2, 38, 0
4, 152544, Note_on_c, 2, 39, 127
4, 152640, Note_off_c, 2, 39, 0
4, 152640, Note_on_c, 2, 41, 127
4, 152688, Note_off_c, 2, 41, 0
4, 152688, Note_on_c, 2, 43, 127
4, 152784, Note_off_c, 2, 43, 0
4, 152784, Note_on_c, 2, 44, 127
4, 152832, Note_off_c, 2, 44, 0
4, 152832, Note_on_c, 2, 46, 127
4, 152976, Note_off_c, 2, 46, 0
4, 152976, Note_on_c, 2, 34, 127
4, 153204, Note_off_c, 2, 34, 0
4, 153204, Note_on_c, 2, 27, 127
4, 153408, Note_off_c, 2, 27, 0
4, 153408, End_track
0, 0, End_of_file
