0, 0, Header, 1, 4, 96
1, 0, Start_track
1, 0, Time_signature, 4, 2, 24, 8
1, 0, Title_t, "untitled"
1, 0, Title_t, "Track1"
1, 0, Tempo, 750000
1, 2880, Tempo, 800000
1, 2976, Tempo, 937500
1, 3072, Tempo, 1090909
1, 3174, Tempo, 750000
1, 3456, Tempo, 869565
1, 5568, Tempo, 731707
1, 5760, Tempo, 550458
1, 11520, Tempo, 576923
1, 11712, Tempo, 550458
1, 35904, Tempo, 571428
1, 36000, Tempo, 588235
1, 36096, Tempo, 600000
1, 36096, Tempo, 625000
1, 36192, Tempo, 659340
1, 36294, Tempo, 722891
1, 36384, Tempo, 800000
1, 36480, Tempo, 1200000
1, 36534, Tempo, 1428571
1, 36672, Tempo, 1428571
1, 36864, Tempo, 1200000
1, 36870, Tempo, 1363636
1, 36966, Tempo, 937500
1, 37056, Tempo, 1363636
1, 37440, Tempo, 1250000
1, 37464, Tempo, 1200000
1, 37470, Tempo, 1016949
1, 37590, Tempo, 1363636
1, 38400, Tempo, 1200000
1, 38400, Tempo, 1363636
1, 39936, Tempo, 1200000
1, 39936, Tempo, 1363636
1, 40518, Tempo, 1578947
1, 40704, Tempo, 1200000
1, 40704, Tempo, 1578947
1, 41088, Tempo, 750000
1, 41472, Tempo, 659340
1, 93414, Tempo, 697674
1, 93504, Tempo, 750000
1, 93600, Tempo, 800000
1, 93696, Tempo, 869565
1, 93798, Tempo, 967741
1, 93888, Tempo, 1071428
1, 93972, Tempo, 1428571
1, 93984, Tempo, 1428571
1, 93984, Tempo, 1250000
1, 93990, Tempo, 1428571
1, 94020, Tempo, 1714285
1, 94080, Tempo, 659340
1, 94080, End_track
2, 0, Start_track
2, 0, Title_t, "Track2"
2, 0, Program_c, 0, 19
2, 0, Control_c, 0, 7, 100
2, 0, Control_c, 0, 10, 64
2, 0, Control_c, 0, 91, 127
2, 216, Note_on_c, 0, 69, 101
2, 240, Note_off_c, 0, 69, 0
2, 240, Note_on_c, 0, 74, 101
2, 288, Note_off_c, 0, 74, 0
2, 288, Note_on_c, 0, 69, 101
2, 336, Note_off_c, 0, 69, 0
2, 336, Note_on_c, 0, 69, 101
2, 384, Note_off_c, 0, 69, 0
2, 384, Note_on_c, 0, 69, 101
2, 432, Note_off_c, 0, 69, 0
2, 600, Note_on_c, 0, 62, 101
2, 624, Note_off_c, 0, 62, 0
2, 624, Note_on_c, 0, 64, 101
2, 648, Note_off_c, 0, 64, 0
2, 648, Note_on_c, 0, 66, 101
2, 672, Note_off_c, 0, 66, 0
2, 672, Note_on_c, 0, 67, 101
2, 696, Note_off_c, 0, 67, 0
2, 696, Note_on_c, 0, 69, 101
2, 720, Note_off_c, 0, 69, 0
2, 720, Note_on_c, 0, 71, 101
2, 744, Note_off_c, 0, 71, 0
2, 744, Note_on_c, 0, 73, 101
2, 768, Note_off_c, 0, 73, 0
2, 768, Note_on_c, 0, 74, 101
2, 816, Note_off_c, 0, 74, 0
2, 984, Note_on_c, 0, 57, 101
2, 1008, Note_off_c, 0, 57, 0
2, 1008, Note_on_c, 0, 62, 101
2, 1056, Note_off_c, 0, 62, 0
2, 1056, Note_on_c, 0, 62, 101
2, 1104, Note_off_c, 0, 62, 0
2, 1104, Note_on_c, 0, 62, 101
2, 1152, Note_off_c, 0, 62, 0
2, 1152, Note_on_c, 0, 62, 101
2, 1200, Note_off_c, 0, 62, 0
2, 1368, Note_on_c, 0, 69, 101
2, 1392, Note_off_c, 0, 69, 0
2, 1392, Note_on_c, 0, 74, 101
2, 1440, Note_off_c, 0, 74, 0
2, 1440, Note_on_c, 0, 69, 101
2, 1488, Note_off_c, 0, 69, 0
2, 1488, Note_on_c, 0, 69, 101
2, 1536, Note_off_c, 0, 69, 0
2, 1536, Note_on_c, 0, 69, 101
2, 1632, Note_off_c, 0, 69, 0
2, 1752, Note_on_c, 0, 73, 101
2, 1776, Note_off_c, 0, 73, 0
2, 1776, Note_on_c, 0, 78, 101
2, 1800, Note_off_c, 0, 78, 0
2, 1800, Note_on_c, 0, 71, 101
2, 1824, Note_off_c, 0, 71, 0
2, 1824, Note_on_c, 0, 81, 101
2, 1848, Note_off_c, 0, 81, 0
2, 1848, Note_on_c, 0, 74, 101
2, 1872, Note_off_c, 0, 74, 0
2, 1872, Note_on_c, 0, 73, 101
2, 1896, Note_off_c, 0, 73, 0
2, 1896, Note_on_c, 0, 68, 101
2, 1920, Note_off_c, 0, 68, 0
2, 1920, Note_on_c, 0, 69, 101
2, 1944, Note_off_c, 0, 69, 0
2, 1944, Note_on_c, 0, 64, 101
2, 1968, Note_off_c, 0, 64, 0
2, 1968, Note_on_c, 0, 66, 101
2, 1992, Note_off_c, 0, 66, 0
2, 1992, Note_on_c, 0, 68, 101
2, 2016, Note_off_c, 0, 68, 0
2, 2016, Note_on_c, 0, 69, 101
2, 2040, Note_off_c, 0, 69, 0
2, 2040, Note_on_c, 0, 62, 101
2, 2064, Note_off_c, 0, 62, 0
2, 2064, Note_on_c, 0, 61, 101
2, 2088, Note_off_c, 0, 61, 0
2, 2088, Note_on_c, 0, 59, 101
2, 2112, Note_off_c, 0, 59, 0
2, 2112, Note_on_c, 0, 61, 101
2, 2160, Note_off_c, 0, 61, 0
2, 2160, Note_on_c, 0, 62, 101
2, 2184, Note_off_c, 0, 62, 0
2, 2184, Note_on_c, 0, 59, 101
2, 2208, Note_off_c, 0, 59, 0
2, 2208, Note_on_c, 0, 61, 101
2, 2232, Note_off_c, 0, 61, 0
2, 2232, Note_on_c, 0, 59, 101
2, 2256, Note_off_c, 0, 59, 0
2, 2256, Note_on_c, 0, 57, 101
2, 2280, Note_off_c, 0, 57, 0
2, 2280, Note_on_c, 0, 56, 101
2, 2304, Note_off_c, 0, 56, 0
2, 2304, Note_on_c, 0, 61, 101
2, 2352, Note_off_c, 0, 61, 0
2, 2352, Note_on_c, 0, 62, 101
2, 2376, Note_off_c, 0, 62, 0
2, 2376, Note_on_c, 0, 59, 101
2, 2400, Note_off_c, 0, 59, 0
2, 2400, Note_on_c, 0, 61, 101
2, 2424, Note_off_c, 0, 61, 0
2, 2424, Note_on_c, 0, 64, 101
2, 2448, Note_off_c, 0, 64, 0
2, 2448, Note_on_c, 0, 66, 101
2, 2472, Note_off_c, 0, 66, 0
2, 2472, Note_on_c, 0, 68, 101
2, 2496, Note_off_c, 0, 68, 0
2, 2496, Note_on_c, 0, 69, 101
2, 2520, Note_off_c, 0, 69, 0
2, 2520, Note_on_c, 0, 62, 101
2, 2544, Note_off_c, 0, 62, 0
2, 2544, Note_on_c, 0, 61, 101
2, 2568, Note_off_c, 0, 61, 0
2, 2568, Note_on_c, 0, 59, 101
2, 2592, Note_off_c, 0, 59, 0
2, 2592, Note_on_c, 0, 61, 101
2, 2616, Note_off_c, 0, 61, 0
2, 2616, Note_on_c, 0, 64, 101
2, 2640, Note_off_c, 0, 64, 0
2, 2640, Note_on_c, 0, 66, 101
2, 2664, Note_off_c, 0, 66, 0
2, 2664, Note_on_c, 0, 68, 101
2, 2688, Note_off_c, 0, 68, 0
2, 2688, Note_on_c, 0, 69, 101
2, 2712, Note_off_c, 0, 69, 0
2, 2712, Note_on_c, 0, 68, 101
2, 2736, Note_off_c, 0, 68, 0
2, 2736, Note_on_c, 0, 69, 101
2, 2760, Note_off_c, 0, 69, 0
2, 2760, Note_on_c, 0, 71, 101
2, 2784, Note_off_c, 0, 71, 0
2, 2784, Note_on_c, 0, 73, 101
2, 2808, Note_off_c, 0, 73, 0
2, 2808, Note_on_c, 0, 71, 101
2, 2832, Note_off_c, 0, 71, 0
2, 2832, Note_on_c, 0, 69, 101
2, 2856, Note_off_c, 0, 69, 0
2, 2856, Note_on_c, 0, 68, 101
2, 2880, Note_off_c, 0, 68, 0
2, 2880, Note_on_c, 0, 69, 101
2, 2904, Note_off_c, 0, 69, 0
2, 2904, Note_on_c, 0, 64, 101
2, 2928, Note_off_c, 0, 64, 0
2, 2928, Note_on_c, 0, 66, 101
2, 2952, Note_off_c, 0, 66, 0
2, 2952, Note_on_c, 0, 62, 101
2, 2976, Note_off_c, 0, 62, 0
2, 2976, Note_on_c, 0, 64, 101
2, 3000, Note_off_c, 0, 64, 0
2, 3000, Note_on_c, 0, 69, 101
2, 3024, Note_off_c, 0, 69, 0
2, 3024, Note_on_c, 0, 62, 101
2, 3048, Note_off_c, 0, 62, 0
2, 3048, Note_on_c, 0, 68, 101
2, 3072, Note_off_c, 0, 68, 0
2, 3072, Note_on_c, 0, 61, 101
2, 3168, Note_off_c, 0, 61, 0
2, 3528, Note_on_c, 0, 76, 101
2, 3552, Note_off_c, 0, 76, 0
2, 3552, Note_on_c, 0, 70, 101
2, 3624, Note_off_c, 0, 70, 0
2, 3624, Note_on_c, 0, 73, 101
2, 3648, Note_off_c, 0, 73, 0
2, 3648, Note_on_c, 0, 64, 101
2, 3720, Note_off_c, 0, 64, 0
2, 3720, Note_on_c, 0, 67, 101
2, 3744, Note_off_c, 0, 67, 0
2, 3744, Note_on_c, 0, 58, 101
2, 3816, Note_off_c, 0, 58, 0
2, 3816, Note_on_c, 0, 64, 101
2, 3840, Note_off_c, 0, 64, 0
2, 3912, Note_on_c, 0, 83, 101
2, 3936, Note_off_c, 0, 83, 0
2, 3936, Note_on_c, 0, 74, 101
2, 4008, Note_off_c, 0, 74, 0
2, 4008, Note_on_c, 0, 78, 101
2, 4032, Note_off_c, 0, 78, 0
2, 4032, Note_on_c, 0, 71, 101
2, 4104, Note_off_c, 0, 71, 0
2, 4104, Note_on_c, 0, 74, 101
2, 4128, Note_off_c, 0, 74, 0
2, 4128, Note_on_c, 0, 68, 101
2, 4200, Note_off_c, 0, 68, 0
2, 4200, Note_on_c, 0, 71, 101
2, 4224, Note_off_c, 0, 71, 0
2, 4224, Note_on_c, 0, 65, 101
2, 5064, Note_off_c, 0, 65, 0
2, 5064, Note_on_c, 0, 68, 101
2, 5088, Note_off_c, 0, 68, 0
2, 5088, Note_on_c, 0, 66, 101
2, 5160, Note_off_c, 0, 66, 0
2, 5160, Note_on_c, 0, 65, 101
2, 5184, Note_off_c, 0, 65, 0
2, 5184, Note_on_c, 0, 66, 101
2, 5256, Note_off_c, 0, 66, 0
2, 5256, Note_on_c, 0, 62, 101
2, 5280, Note_off_c, 0, 62, 0
2, 5280, Note_on_c, 0, 61, 101
2, 5352, Note_off_c, 0, 61, 0
2, 5352, Note_on_c, 0, 59, 101
2, 5376, Note_off_c, 0, 59, 0
2, 5376, Note_on_c, 0, 66, 101
2, 5472, Note_off_c, 0, 66, 0
2, 5664, Note_on_c, 0, 64, 101
2, 5676, Note_off_c, 0, 64, 0
2, 5676, Note_on_c, 0, 66, 101
2, 5688, Note_off_c, 0, 66, 0
2, 5688, Note_on_c, 0, 67, 101
2, 5700, Note_off_c, 0, 67, 0
2, 5700, Note_on_c, 0, 69, 101
2, 5712, Note_off_c, 0, 69, 0
2, 5712, Note_on_c, 0, 71, 101
2, 5724, Note_off_c, 0, 71, 0
2, 5724, Note_on_c, 0, 73, 101
2, 5736, Note_off_c, 0, 73, 0
2, 5736, Note_on_c, 0, 74, 101
2, 5748, Note_off_c, 0, 74, 0
2, 5748, Note_on_c, 0, 76, 101
2, 5760, Note_off_c, 0, 76, 0
2, 5760, Note_on_c, 0, 66, 101
2, 5952, Note_off_c, 0, 66, 0
2, 6048, Note_on_c, 0, 66, 84
2, 6192, Note_off_c, 0, 66, 0
2, 6192, Note_on_c, 0, 66, 84
2, 6240, Note_off_c, 0, 66, 0
2, 6240, Note_on_c, 0, 64, 84
2, 6432, Note_off_c, 0, 64, 0
2, 6432, Note_on_c, 0, 66, 84
2, 6528, Note_off_c, 0, 66, 0
2, 6528, Note_on_c, 0, 67, 84
2, 6624, Note_off_c, 0, 67, 0
2, 6624, Note_on_c, 0, 69, 84
2, 6768, Note_off_c, 0, 69, 0
2, 6768, Note_on_c, 0, 73, 84
2, 6816, Note_off_c, 0, 73, 0
2, 6816, Note_on_c, 0, 71, 84
2, 6864, Note_off_c, 0, 71, 0
2, 6864, Note_on_c, 0, 69, 84
2, 6912, Note_off_c, 0, 69, 0
2, 6912, Note_on_c, 0, 68, 84
2, 6960, Note_off_c, 0, 68, 0
2, 6960, Note_on_c, 0, 64, 84
2, 7008, Note_off_c, 0, 64, 0
2, 7008, Note_on_c, 0, 69, 84
2, 7200, Note_off_c, 0, 69, 0
2, 7200, Note_on_c, 0, 68, 84
2, 7296, Note_off_c, 0, 68, 0
2, 7296, Note_on_c, 0, 69, 84
2, 7380, Note_off_c, 0, 69, 0
2, 7392, Note_on_c, 0, 69, 84
2, 7470, Note_off_c, 0, 69, 0
2, 7488, Note_on_c, 0, 67, 84
2, 7584, Note_off_c, 0, 67, 0
2, 7584, Note_on_c, 0, 64, 84
2, 7776, Note_off_c, 0, 64, 0
2, 7776, Note_on_c, 0, 62, 84
2, 7968, Note_off_c, 0, 62, 0
2, 7968, Note_on_c, 0, 61, 84
2, 8064, Note_off_c, 0, 61, 0
2, 8064, Note_on_c, 0, 62, 84
2, 8160, Note_off_c, 0, 62, 0
2, 8160, Note_on_c, 0, 64, 84
2, 8256, Note_off_c, 0, 64, 0
2, 8256, Note_on_c, 0, 66, 84
2, 8352, Note_off_c, 0, 66, 0
2, 8352, Note_on_c, 0, 64, 84
2, 8448, Note_off_c, 0, 64, 0
2, 8448, Note_on_c, 0, 64, 84
2, 8544, Note_off_c, 0, 64, 0
2, 8544, Note_on_c, 0, 69, 84
2, 8640, Note_off_c, 0, 69, 0
2, 8640, Note_on_c, 0, 71, 84
2, 8736, Note_off_c, 0, 71, 0
2, 8736, Note_on_c, 0, 67, 84
2, 8832, Note_off_c, 0, 67, 0
2, 8832, Note_on_c, 0, 69, 84
2, 8928, Note_off_c, 0, 69, 0
2, 8928, Note_on_c, 0, 71, 84
2, 9120, Note_off_c, 0, 71, 0
2, 9120, Note_on_c, 0, 70, 84
2, 9216, Note_off_c, 0, 70, 0
2, 9216, Note_on_c, 0, 71, 84
2, 9312, Note_off_c, 0, 71, 0
2, 9312, Note_on_c, 0, 66, 84
2, 9408, Note_off_c, 0, 66, 0
2, 9408, Note_on_c, 0, 76, 84
2, 9456, Note_off_c, 0, 76, 0
2, 9456, Note_on_c, 0, 79, 84
2, 9504, Note_off_c, 0, 79, 0
2, 9504, Note_on_c, 0, 73, 84
2, 9552, Note_off_c, 0, 73, 0
2, 9552, Note_on_c, 0, 76, 84
2, 9600, Note_off_c, 0, 76, 0
2, 9600, Note_on_c, 0, 74, 84
2, 9648, Note_off_c, 0, 74, 0
2, 9648, Note_on_c, 0, 71, 84
2, 9696, Note_off_c, 0, 71, 0
2, 9696, Note_on_c, 0, 78, 84
2, 9888, Note_off_c, 0, 78, 0
2, 9888, Note_on_c, 0, 77, 84
2, 9984, Note_off_c, 0, 77, 0
2, 9984, Note_on_c, 0, 78, 84
2, 10062, Note_off_c, 0, 78, 0
2, 10080, Note_on_c, 0, 78, 84
2, 10176, Note_off_c, 0, 78, 0
2, 10176, Note_on_c, 0, 76, 84
2, 10368, Note_off_c, 0, 76, 0
2, 10368, Note_on_c, 0, 74, 84
2, 10560, Note_off_c, 0, 74, 0
2, 10560, Note_on_c, 0, 73, 84
2, 10752, Note_off_c, 0, 73, 0
2, 10752, Note_on_c, 0, 71, 84
2, 10944, Note_off_c, 0, 71, 0
2, 10944, Note_on_c, 0, 69, 84
2, 11136, Note_off_c, 0, 69, 0
2, 11136, Note_on_c, 0, 62, 84
2, 11232, Note_off_c, 0, 62, 0
2, 11232, Note_on_c, 0, 64, 84
2, 11424, Note_off_c, 0, 64, 0
2, 11424, Note_on_c, 0, 62, 84
2, 11616, Note_off_c, 0, 62, 0
2, 11616, Note_on_c, 0, 61, 84
2, 11712, Note_off_c, 0, 61, 0
2, 11712, Note_on_c, 0, 62, 84
2, 11808, Note_off_c, 0, 62, 0
2, 11808, Note_on_c, 0, 78, 84
2, 11904, Note_off_c, 0, 78, 0
2, 11904, Note_on_c, 0, 76, 84
2, 12096, Note_off_c, 0, 76, 0
2, 12096, Note_on_c, 0, 74, 84
2, 12288, Note_off_c, 0, 74, 0
2, 12288, Note_on_c, 0, 73, 84
2, 12480, Note_off_c, 0, 73, 0
2, 12480, Note_on_c, 0, 71, 84
2, 12576, Note_off_c, 0, 71, 0
2, 12576, Note_on_c, 0, 73, 84
2, 12672, Note_off_c, 0, 73, 0
2, 12672, Note_on_c, 0, 71, 84
2, 12768, Note_off_c, 0, 71, 0
2, 12768, Note_on_c, 0, 71, 84
2, 12864, Note_off_c, 0, 71, 0
2, 12864, Note_on_c, 0, 69, 84
2, 12960, Note_off_c, 0, 69, 0
2, 12960, Note_on_c, 0, 69, 84
2, 13056, Note_off_c, 0, 69, 0
2, 13056, Note_on_c, 0, 68, 84
2, 13248, Note_off_c, 0, 68, 0
2, 13248, Note_on_c, 0, 66, 84
2, 13344, Note_off_c, 0, 66, 0
2, 13344, Note_on_c, 0, 74, 84
2, 13536, Note_off_c, 0, 74, 0
2, 13536, Note_on_c, 0, 64, 84
2, 13584, Note_off_c, 0, 64, 0
2, 13584, Note_on_c, 0, 67, 84
2, 13632, Note_off_c, 0, 67, 0
2, 13632, Note_on_c, 0, 66, 84
2, 13680, Note_off_c, 0, 66, 0
2, 13680, Note_on_c, 0, 69, 84
2, 13728, Note_off_c, 0, 69, 0
2, 13728, Note_on_c, 0, 62, 84
2, 13776, Note_off_c, 0, 62, 0
2, 13776, Note_on_c, 0, 66, 84
2, 13824, Note_off_c, 0, 66, 0
2, 13824, Note_on_c, 0, 64, 84
2, 13872, Note_off_c, 0, 64, 0
2, 13872, Note_on_c, 0, 67, 84
2, 13920, Note_off_c, 0, 67, 0
2, 13920, Note_on_c, 0, 61, 84
2, 13968, Note_off_c, 0, 61, 0
2, 13968, Note_on_c, 0, 64, 84
2, 14016, Note_off_c, 0, 64, 0
2, 14016, Note_on_c, 0, 62, 84
2, 14112, Note_off_c, 0, 62, 0
2, 14112, Note_on_c, 0, 61, 84
2, 14208, Note_off_c, 0, 61, 0
2, 14208, Note_on_c, 0, 62, 84
2, 14304, Note_off_c, 0, 62, 0
2, 14304, Note_on_c, 0, 64, 84
2, 14400, Note_off_c, 0, 64, 0
2, 14400, Note_on_c, 0, 66, 84
2, 14496, Note_off_c, 0, 66, 0
2, 14496, Note_on_c, 0, 64, 84
2, 14592, Note_off_c, 0, 64, 0
2, 14592, Note_on_c, 0, 66, 84
2, 14688, Note_off_c, 0, 66, 0
2, 14688, Note_on_c, 0, 64, 84
2, 14784, Note_off_c, 0, 64, 0
2, 14784, Note_on_c, 0, 66, 84
2, 14880, Note_off_c, 0, 66, 0
2, 14880, Note_on_c, 0, 61, 84
2, 14976, Note_off_c, 0, 61, 0
2, 14976, Note_on_c, 0, 62, 84
2, 15072, Note_off_c, 0, 62, 0
2, 15072, Note_on_c, 0, 64, 84
2, 15168, Note_off_c, 0, 64, 0
2, 15168, Note_on_c, 0, 66, 84
2, 15312, Note_off_c, 0, 66, 0
2, 15312, Note_on_c, 0, 65, 84
2, 15360, Note_off_c, 0, 65, 0
2, 15360, Note_on_c, 0, 66, 84
2, 15408, Note_off_c, 0, 66, 0
2, 15408, Note_on_c, 0, 69, 84
2, 15456, Note_off_c, 0, 69, 0
2, 15456, Note_on_c, 0, 65, 84
2, 15504, Note_off_c, 0, 65, 0
2, 15504, Note_on_c, 0, 68, 84
2, 15552, Note_off_c, 0, 68, 0
2, 15552, Note_on_c, 0, 66, 84
2, 15600, Note_off_c, 0, 66, 0
2, 15600, Note_on_c, 0, 69, 84
2, 15648, Note_off_c, 0, 69, 0
2, 15648, Note_on_c, 0, 65, 84
2, 15696, Note_off_c, 0, 65, 0
2, 15696, Note_on_c, 0, 68, 84
2, 15744, Note_off_c, 0, 68, 0
2, 15744, Note_on_c, 0, 66, 84
2, 15792, Note_off_c, 0, 66, 0
2, 15792, Note_on_c, 0, 69, 84
2, 15840, Note_off_c, 0, 69, 0
2, 15840, Note_on_c, 0, 65, 84
2, 15888, Note_off_c, 0, 65, 0
2, 15888, Note_on_c, 0, 68, 84
2, 15936, Note_off_c, 0, 68, 0
2, 15936, Note_on_c, 0, 66, 84
2, 15984, Note_off_c, 0, 66, 0
2, 15984, Note_on_c, 0, 69, 84
2, 16032, Note_off_c, 0, 69, 0
2, 16032, Note_on_c, 0, 65, 84
2, 16080, Note_off_c, 0, 65, 0
2, 16080, Note_on_c, 0, 68, 84
2, 16128, Note_off_c, 0, 68, 0
2, 16128, Note_on_c, 0, 73, 84
2, 16224, Note_off_c, 0, 73, 0
2, 16224, Note_on_c, 0, 73, 84
2, 16320, Note_off_c, 0, 73, 0
2, 16320, Note_on_c, 0, 73, 84
2, 16416, Note_off_c, 0, 73, 0
2, 16416, Note_on_c, 0, 73, 84
2, 16512, Note_off_c, 0, 73, 0
2, 16512, Note_on_c, 0, 73, 84
2, 16608, Note_off_c, 0, 73, 0
2, 16608, Note_on_c, 0, 74, 84
2, 16704, Note_off_c, 0, 74, 0
2, 16704, Note_on_c, 0, 68, 84
2, 16800, Note_off_c, 0, 68, 0
2, 16800, Note_on_c, 0, 68, 84
2, 16896, Note_off_c, 0, 68, 0
2, 16896, Note_on_c, 0, 74, 84
2, 16992, Note_off_c, 0, 74, 0
2, 16992, Note_on_c, 0, 73, 84
2, 17088, Note_off_c, 0, 73, 0
2, 17088, Note_on_c, 0, 74, 84
2, 17184, Note_off_c, 0, 74, 0
2, 17184, Note_on_c, 0, 73, 84
2, 17280, Note_off_c, 0, 73, 0
2, 17280, Note_on_c, 0, 69, 84
2, 17376, Note_off_c, 0, 69, 0
2, 17376, Note_on_c, 0, 68, 84
2, 17472, Note_off_c, 0, 68, 0
2, 17472, Note_on_c, 0, 66, 84
2, 17568, Note_off_c, 0, 66, 0
2, 17568, Note_on_c, 0, 64, 84
2, 17664, Note_off_c, 0, 64, 0
2, 17664, Note_on_c, 0, 62, 84
2, 17760, Note_off_c, 0, 62, 0
2, 17760, Note_on_c, 0, 61, 84
2, 17808, Note_off_c, 0, 61, 0
2, 17808, Note_on_c, 0, 59, 84
2, 17856, Note_off_c, 0, 59, 0
2, 17856, Note_on_c, 0, 57, 84
2, 17904, Note_off_c, 0, 57, 0
2, 17904, Note_on_c, 0, 59, 84
2, 17952, Note_off_c, 0, 59, 0
2, 17952, Note_on_c, 0, 61, 84
2, 18048, Note_off_c, 0, 61, 0
2, 18048, Note_on_c, 0, 68, 84
2, 18096, Note_off_c, 0, 68, 0
2, 18096, Note_on_c, 0, 71, 84
2, 18144, Note_off_c, 0, 71, 0
2, 18144, Note_on_c, 0, 68, 84
2, 18192, Note_off_c, 0, 68, 0
2, 18192, Note_on_c, 0, 71, 84
2, 18240, Note_off_c, 0, 71, 0
2, 18240, Note_on_c, 0, 69, 84
2, 18288, Note_off_c, 0, 69, 0
2, 18288, Note_on_c, 0, 73, 84
2, 18336, Note_off_c, 0, 73, 0
2, 18336, Note_on_c, 0, 66, 84
2, 18384, Note_off_c, 0, 66, 0
2, 18384, Note_on_c, 0, 69, 84
2, 18432, Note_off_c, 0, 69, 0
2, 18432, Note_on_c, 0, 67, 84
2, 18480, Note_off_c, 0, 67, 0
2, 18480, Note_on_c, 0, 71, 84
2, 18528, Note_off_c, 0, 71, 0
2, 18528, Note_on_c, 0, 64, 84
2, 18576, Note_off_c, 0, 64, 0
2, 18576, Note_on_c, 0, 67, 84
2, 18624, Note_off_c, 0, 67, 0
2, 18624, Note_on_c, 0, 66, 84
2, 18672, Note_off_c, 0, 66, 0
2, 18672, Note_on_c, 0, 62, 84
2, 18720, Note_off_c, 0, 62, 0
2, 18720, Note_on_c, 0, 69, 84
2, 18912, Note_off_c, 0, 69, 0
2, 18912, Note_on_c, 0, 59, 84
2, 18960, Note_off_c, 0, 59, 0
2, 18960, Note_on_c, 0, 62, 84
2, 19008, Note_off_c, 0, 62, 0
2, 19008, Note_on_c, 0, 61, 84
2, 19056, Note_off_c, 0, 61, 0
2, 19056, Note_on_c, 0, 57, 84
2, 19104, Note_off_c, 0, 57, 0
2, 19104, Note_on_c, 0, 62, 84
2, 19248, Note_off_c, 0, 62, 0
2, 19248, Note_on_c, 0, 62, 84
2, 19296, Note_off_c, 0, 62, 0
2, 19296, Note_on_c, 0, 61, 84
2, 19392, Note_off_c, 0, 61, 0
2, 19392, Note_on_c, 0, 62, 84
2, 19488, Note_off_c, 0, 62, 0
2, 19488, Note_on_c, 0, 61, 84
2, 19584, Note_off_c, 0, 61, 0
2, 19584, Note_on_c, 0, 57, 84
2, 19680, Note_off_c, 0, 57, 0
2, 19680, Note_on_c, 0, 57, 84
2, 19776, Note_off_c, 0, 57, 0
2, 19776, Note_on_c, 0, 57, 84
2, 19872, Note_off_c, 0, 57, 0
2, 19872, Note_on_c, 0, 61, 84
2, 19968, Note_off_c, 0, 61, 0
2, 19968, Note_on_c, 0, 62, 84
2, 20064, Note_off_c, 0, 62, 0
2, 20064, Note_on_c, 0, 64, 84
2, 20112, Note_off_c, 0, 64, 0
2, 20112, Note_on_c, 0, 69, 84
2, 20160, Note_off_c, 0, 69, 0
2, 20160, Note_on_c, 0, 62, 84
2, 20256, Note_off_c, 0, 62, 0
2, 20256, Note_on_c, 0, 66, 84
2, 20352, Note_off_c, 0, 66, 0
2, 20352, Note_on_c, 0, 62, 84
2, 20448, Note_off_c, 0, 62, 0
2, 20448, Note_on_c, 0, 62, 84
2, 20544, Note_off_c, 0, 62, 0
2, 20544, Note_on_c, 0, 62, 84
2, 20640, Note_off_c, 0, 62, 0
2, 20640, Note_on_c, 0, 66, 84
2, 20736, Note_off_c, 0, 66, 0
2, 20736, Note_on_c, 0, 67, 84
2, 20832, Note_off_c, 0, 67, 0
2, 20832, Note_on_c, 0, 69, 84
2, 20880, Note_off_c, 0, 69, 0
2, 20880, Note_on_c, 0, 74, 84
2, 20928, Note_off_c, 0, 74, 0
2, 20928, Note_on_c, 0, 67, 84
2, 21024, Note_off_c, 0, 67, 0
2, 21024, Note_on_c, 0, 68, 84
2, 21120, Note_off_c, 0, 68, 0
2, 21120, Note_on_c, 0, 64, 84
2, 21216, Note_off_c, 0, 64, 0
2, 21216, Note_on_c, 0, 64, 84
2, 21312, Note_off_c, 0, 64, 0
2, 21312, Note_on_c, 0, 64, 84
2, 21408, Note_off_c, 0, 64, 0
2, 21408, Note_on_c, 0, 68, 84
2, 21504, Note_off_c, 0, 68, 0
2, 21504, Note_on_c, 0, 69, 84
2, 21600, Note_off_c, 0, 69, 0
2, 21600, Note_on_c, 0, 71, 84
2, 21648, Note_off_c, 0, 71, 0
2, 21648, Note_on_c, 0, 76, 84
2, 21696, Note_off_c, 0, 76, 0
2, 21696, Note_on_c, 0, 69, 84
2, 21792, Note_off_c, 0, 69, 0
2, 21792, Note_on_c, 0, 73, 84
2, 21888, Note_off_c, 0, 73, 0
2, 21888, Note_on_c, 0, 69, 84
2, 21984, Note_off_c, 0, 69, 0
2, 21984, Note_on_c, 0, 69, 84
2, 22080, Note_off_c, 0, 69, 0
2, 22080, Note_on_c, 0, 69, 84
2, 22176, Note_off_c, 0, 69, 0
2, 22176, Note_on_c, 0, 73, 84
2, 22272, Note_off_c, 0, 73, 0
2, 22272, Note_on_c, 0, 74, 84
2, 22368, Note_off_c, 0, 74, 0
2, 22368, Note_on_c, 0, 76, 84
2, 22416, Note_off_c, 0, 76, 0
2, 22416, Note_on_c, 0, 81, 84
2, 22464, Note_off_c, 0, 81, 0
2, 22464, Note_on_c, 0, 74, 84
2, 22560, Note_off_c, 0, 74, 0
2, 22560, Note_on_c, 0, 74, 84
2, 22656, Note_off_c, 0, 74, 0
2, 22656, Note_on_c, 0, 74, 84
2, 22752, Note_off_c, 0, 74, 0
2, 22752, Note_on_c, 0, 73, 84
2, 22944, Note_off_c, 0, 73, 0
2, 22944, Note_on_c, 0, 71, 84
2, 23136, Note_off_c, 0, 71, 0
2, 23136, Note_on_c, 0, 69, 84
2, 23328, Note_off_c, 0, 69, 0
2, 23328, Note_on_c, 0, 68, 84
2, 23424, Note_off_c, 0, 68, 0
2, 23424, Note_on_c, 0, 69, 84
2, 23502, Note_off_c, 0, 69, 0
2, 23520, Note_on_c, 0, 69, 93
2, 23598, Note_off_c, 0, 69, 0
2, 23616, Note_on_c, 0, 69, 93
2, 23694, Note_off_c, 0, 69, 0
2, 23712, Note_on_c, 0, 69, 84
2, 23790, Note_off_c, 0, 69, 0
2, 23808, Note_on_c, 0, 69, 84
2, 23886, Note_off_c, 0, 69, 0
2, 23904, Note_on_c, 0, 69, 93
2, 23982, Note_off_c, 0, 69, 0
2, 24000, Note_on_c, 0, 69, 93
2, 24078, Note_off_c, 0, 69, 0
2, 24096, Note_on_c, 0, 69, 84
2, 24174, Note_off_c, 0, 69, 0
2, 24192, Note_on_c, 0, 69, 84
2, 24270, Note_off_c, 0, 69, 0
2, 24288, Note_on_c, 0, 64, 84
2, 24384, Note_off_c, 0, 64, 0
2, 24384, Note_on_c, 0, 66, 84
2, 24480, Note_off_c, 0, 66, 0
2, 24480, Note_on_c, 0, 64, 84
2, 24528, Note_off_c, 0, 64, 0
2, 24528, Note_on_c, 0, 62, 84
2, 24576, Note_off_c, 0, 62, 0
2, 24576, Note_on_c, 0, 61, 84
2, 24624, Note_off_c, 0, 61, 0
2, 24624, Note_on_c, 0, 57, 84
2, 24672, Note_off_c, 0, 57, 0
2, 24672, Note_on_c, 0, 73, 84
2, 24768, Note_off_c, 0, 73, 0
2, 24768, Note_on_c, 0, 71, 84
2, 24960, Note_off_c, 0, 71, 0
2, 24960, Note_on_c, 0, 69, 84
2, 25152, Note_off_c, 0, 69, 0
2, 25152, Note_on_c, 0, 67, 84
2, 25344, Note_off_c, 0, 67, 0
2, 25344, Note_on_c, 0, 66, 84
2, 25536, Note_off_c, 0, 66, 0
2, 25536, Note_on_c, 0, 64, 84
2, 25824, Note_off_c, 0, 64, 0
2, 25824, Note_on_c, 0, 62, 84
2, 26016, Note_off_c, 0, 62, 0
2, 26016, Note_on_c, 0, 61, 84
2, 26112, Note_off_c, 0, 61, 0
2, 26112, Note_on_c, 0, 62, 84
2, 26160, Note_off_c, 0, 62, 0
2, 26160, Note_on_c, 0, 64, 84
2, 26208, Note_off_c, 0, 64, 0
2, 26208, Note_on_c, 0, 66, 84
2, 26304, Note_off_c, 0, 66, 0
2, 26304, Note_on_c, 0, 64, 84
2, 26496, Note_off_c, 0, 64, 0
2, 26496, Note_on_c, 0, 62, 84
2, 26688, Note_off_c, 0, 62, 0
2, 26688, Note_on_c, 0, 64, 84
2, 26784, Note_off_c, 0, 64, 0
2, 26784, Note_on_c, 0, 62, 84
2, 26832, Note_off_c, 0, 62, 0
2, 26832, Note_on_c, 0, 60, 84
2, 26880, Note_off_c, 0, 60, 0
2, 26880, Note_on_c, 0, 59, 84
2, 26976, Note_off_c, 0, 59, 0
2, 26976, Note_on_c, 0, 67, 84
2, 27696, Note_off_c, 0, 67, 0
2, 27696, Note_on_c, 0, 64, 84
2, 27744, Note_off_c, 0, 64, 0
2, 27744, Note_on_c, 0, 69, 84
2, 28464, Note_off_c, 0, 69, 0
2, 28464, Note_on_c, 0, 69, 84
2, 28512, Note_off_c, 0, 69, 0
2, 28512, Note_on_c, 0, 74, 84
2, 29232, Note_off_c, 0, 74, 0
2, 29232, Note_on_c, 0, 74, 84
2, 29280, Note_off_c, 0, 74, 0
2, 29280, Note_on_c, 0, 79, 84
2, 29904, Note_off_c, 0, 79, 0
2, 29904, Note_on_c, 0, 77, 84
2, 29952, Note_off_c, 0, 77, 0
2, 29952, Note_on_c, 0, 72, 84
2, 30048, Note_off_c, 0, 72, 0
2, 30048, Note_on_c, 0, 72, 84
2, 30096, Note_off_c, 0, 72, 0
2, 30096, Note_on_c, 0, 72, 84
2, 30144, Note_off_c, 0, 72, 0
2, 30144, Note_on_c, 0, 72, 84
2, 30336, Note_off_c, 0, 72, 0
2, 30336, Note_on_c, 0, 71, 84
2, 30432, Note_off_c, 0, 71, 0
2, 30432, Note_on_c, 0, 71, 84
2, 30528, Note_off_c, 0, 71, 0
2, 30528, Note_on_c, 0, 67, 84
2, 30624, Note_off_c, 0, 67, 0
2, 30624, Note_on_c, 0, 66, 84
2, 30720, Note_off_c, 0, 66, 0
2, 30720, Note_on_c, 0, 67, 84
2, 30816, Note_off_c, 0, 67, 0
2, 30816, Note_on_c, 0, 66, 84
2, 30912, Note_off_c, 0, 66, 0
2, 30912, Note_on_c, 0, 64, 84
2, 31008, Note_off_c, 0, 64, 0
2, 31008, Note_on_c, 0, 62, 84
2, 31104, Note_off_c, 0, 62, 0
2, 31104, Note_on_c, 0, 63, 84
2, 31200, Note_off_c, 0, 63, 0
2, 31200, Note_on_c, 0, 64, 84
2, 31392, Note_off_c, 0, 64, 0
2, 31392, Note_on_c, 0, 63, 84
2, 31488, Note_off_c, 0, 63, 0
2, 31488, Note_on_c, 0, 59, 84
2, 31584, Note_off_c, 0, 59, 0
2, 31632, Note_on_c, 0, 71, 84
2, 31680, Note_off_c, 0, 71, 0
2, 31680, Note_on_c, 0, 69, 84
2, 31776, Note_off_c, 0, 69, 0
2, 31776, Note_on_c, 0, 71, 84
2, 31824, Note_off_c, 0, 71, 0
2, 31824, Note_on_c, 0, 74, 84
2, 31872, Note_off_c, 0, 74, 0
2, 31872, Note_on_c, 0, 69, 84
2, 31968, Note_off_c, 0, 69, 0
2, 31968, Note_on_c, 0, 68, 84
2, 32064, Note_off_c, 0, 68, 0
2, 32064, Note_on_c, 0, 69, 84
2, 32160, Note_off_c, 0, 69, 0
2, 32160, Note_on_c, 0, 68, 84
2, 32256, Note_off_c, 0, 68, 0
2, 32256, Note_on_c, 0, 69, 84
2, 32352, Note_off_c, 0, 69, 0
2, 32352, Note_on_c, 0, 74, 84
2, 32400, Note_off_c, 0, 74, 0
2, 32400, Note_on_c, 0, 69, 84
2, 32448, Note_off_c, 0, 69, 0
2, 32448, Note_on_c, 0, 71, 84
2, 32496, Note_off_c, 0, 71, 0
2, 32496, Note_on_c, 0, 74, 84
2, 32544, Note_off_c, 0, 74, 0
2, 32544, Note_on_c, 0, 67, 84
2, 32592, Note_off_c, 0, 67, 0
2, 32592, Note_on_c, 0, 71, 84
2, 32640, Note_off_c, 0, 71, 0
2, 32640, Note_on_c, 0, 69, 84
2, 32688, Note_off_c, 0, 69, 0
2, 32688, Note_on_c, 0, 73, 84
2, 32736, Note_off_c, 0, 73, 0
2, 32736, Note_on_c, 0, 66, 84
2, 32784, Note_off_c, 0, 66, 0
2, 32784, Note_on_c, 0, 69, 84
2, 32832, Note_off_c, 0, 69, 0
2, 32832, Note_on_c, 0, 67, 84
2, 32880, Note_off_c, 0, 67, 0
2, 32880, Note_on_c, 0, 71, 84
2, 32928, Note_off_c, 0, 71, 0
2, 32928, Note_on_c, 0, 64, 84
2, 32976, Note_off_c, 0, 64, 0
2, 32976, Note_on_c, 0, 67, 84
2, 33024, Note_off_c, 0, 67, 0
2, 33024, Note_on_c, 0, 66, 84
2, 33072, Note_off_c, 0, 66, 0
2, 33072, Note_on_c, 0, 69, 84
2, 33120, Note_off_c, 0, 69, 0
2, 33120, Note_on_c, 0, 62, 84
2, 33168, Note_off_c, 0, 62, 0
2, 33168, Note_on_c, 0, 78, 84
2, 33216, Note_off_c, 0, 78, 0
2, 33216, Note_on_c, 0, 76, 84
2, 33264, Note_off_c, 0, 76, 0
2, 33264, Note_on_c, 0, 79, 84
2, 33312, Note_off_c, 0, 79, 0
2, 33312, Note_on_c, 0, 78, 84
2, 33360, Note_off_c, 0, 78, 0
2, 33360, Note_on_c, 0, 81, 84
2, 33408, Note_off_c, 0, 81, 0
2, 33408, Note_on_c, 0, 79, 84
2, 33456, Note_off_c, 0, 79, 0
2, 33456, Note_on_c, 0, 81, 84
2, 33504, Note_off_c, 0, 81, 0
2, 33504, Note_on_c, 0, 78, 84
2, 33552, Note_off_c, 0, 78, 0
2, 33552, Note_on_c, 0, 76, 84
2, 33600, Note_off_c, 0, 76, 0
2, 33600, Note_on_c, 0, 78, 84
2, 33696, Note_off_c, 0, 78, 0
2, 33696, Note_on_c, 0, 76, 84
2, 33744, Note_off_c, 0, 76, 0
2, 33744, Note_on_c, 0, 74, 84
2, 33792, Note_off_c, 0, 74, 0
2, 33792, Note_on_c, 0, 74, 84
2, 33840, Note_off_c, 0, 74, 0
2, 33840, Note_on_c, 0, 69, 84
2, 33888, Note_off_c, 0, 69, 0
2, 33888, Note_on_c, 0, 78, 84
2, 33984, Note_off_c, 0, 78, 0
2, 33984, Note_on_c, 0, 67, 84
2, 34032, Note_off_c, 0, 67, 0
2, 34032, Note_on_c, 0, 71, 84
2, 34080, Note_off_c, 0, 71, 0
2, 34080, Note_on_c, 0, 64, 84
2, 34128, Note_off_c, 0, 64, 0
2, 34128, Note_on_c, 0, 67, 84
2, 34176, Note_off_c, 0, 67, 0
2, 34176, Note_on_c, 0, 66, 84
2, 34224, Note_off_c, 0, 66, 0
2, 34224, Note_on_c, 0, 69, 84
2, 34272, Note_off_c, 0, 69, 0
2, 34272, Note_on_c, 0, 62, 84
2, 34320, Note_off_c, 0, 62, 0
2, 34320, Note_on_c, 0, 66, 84
2, 34368, Note_off_c, 0, 66, 0
2, 34368, Note_on_c, 0, 64, 84
2, 34416, Note_off_c, 0, 64, 0
2, 34416, Note_on_c, 0, 67, 84
2, 34464, Note_off_c, 0, 67, 0
2, 34464, Note_on_c, 0, 61, 84
2, 34512, Note_off_c, 0, 61, 0
2, 34512, Note_on_c, 0, 64, 84
2, 34560, Note_off_c, 0, 64, 0
2, 34560, Note_on_c, 0, 62, 84
2, 34608, Note_off_c, 0, 62, 0
2, 34608, Note_on_c, 0, 66, 84
2, 34656, Note_off_c, 0, 66, 0
2, 34656, Note_on_c, 0, 59, 84
2, 34704, Note_off_c, 0, 59, 0
2, 34704, Note_on_c, 0, 62, 84
2, 34752, Note_off_c, 0, 62, 0
2, 34752, Note_on_c, 0, 61, 84
2, 34800, Note_off_c, 0, 61, 0
2, 34800, Note_on_c, 0, 64, 84
2, 34848, Note_off_c, 0, 64, 0
2, 34848, Note_on_c, 0, 57, 84
2, 34896, Note_off_c, 0, 57, 0
2, 34896, Note_on_c, 0, 61, 84
2, 34944, Note_off_c, 0, 61, 0
2, 34944, Note_on_c, 0, 59, 84
2, 34992, Note_off_c, 0, 59, 0
2, 34992, Note_on_c, 0, 62, 84
2, 35040, Note_off_c, 0, 62, 0
2, 35040, Note_on_c, 0, 55, 84
2, 35088, Note_off_c, 0, 55, 0
2, 35088, Note_on_c, 0, 59, 84
2, 35136, Note_off_c, 0, 59, 0
2, 35136, Note_on_c, 0, 57, 84
2, 35184, Note_off_c, 0, 57, 0
2, 35184, Note_on_c, 0, 61, 84
2, 35232, Note_off_c, 0, 61, 0
2, 35232, Note_on_c, 0, 54, 84
2, 35280, Note_off_c, 0, 54, 0
2, 35280, Note_on_c, 0, 57, 84
2, 35328, Note_off_c, 0, 57, 0
2, 35328, Note_on_c, 0, 55, 84
2, 35376, Note_off_c, 0, 55, 0
2, 35376, Note_on_c, 0, 59, 84
2, 35424, Note_off_c, 0, 59, 0
2, 35424, Note_on_c, 0, 52, 84
2, 35472, Note_off_c, 0, 52, 0
2, 35472, Note_on_c, 0, 55, 84
2, 35520, Note_off_c, 0, 55, 0
2, 35520, Note_on_c, 0, 54, 84
2, 35616, Note_off_c, 0, 54, 0
2, 35616, Note_on_c, 0, 57, 84
2, 35712, Note_off_c, 0, 57, 0
2, 35712, Note_on_c, 0, 59, 84
2, 35808, Note_off_c, 0, 59, 0
2, 35808, Note_on_c, 0, 57, 84
2, 35904, Note_off_c, 0, 57, 0
2, 35904, Note_on_c, 0, 54, 84
2, 36000, Note_off_c, 0, 54, 0
2, 36000, Note_on_c, 0, 66, 84
2, 36096, Note_off_c, 0, 66, 0
2, 36096, Note_on_c, 0, 64, 84
2, 36192, Note_off_c, 0, 64, 0
2, 36192, Note_on_c, 0, 64, 84
2, 36288, Note_off_c, 0, 64, 0
2, 36288, Note_on_c, 0, 62, 84
2, 36384, Note_off_c, 0, 62, 0
2, 36384, Note_on_c, 0, 66, 84
2, 36480, Note_off_c, 0, 66, 0
2, 36480, Note_on_c, 0, 64, 84
2, 36576, Note_off_c, 0, 64, 0
2, 36576, Note_on_c, 0, 64, 84
2, 36672, Note_off_c, 0, 64, 0
2, 36672, Note_on_c, 0, 66, 110
2, 36864, Note_off_c, 0, 66, 0
2, 36864, Note_on_c, 0, 59, 110
2, 36960, Note_off_c, 0, 59, 0
2, 36960, Note_on_c, 0, 64, 110
2, 36972, Note_off_c, 0, 64, 0
2, 36972, Note_on_c, 0, 66, 110
2, 36984, Note_off_c, 0, 66, 0
2, 36984, Note_on_c, 0, 67, 110
2, 36996, Note_off_c, 0, 67, 0
2, 36996, Note_on_c, 0, 69, 110
2, 37008, Note_off_c, 0, 69, 0
2, 37008, Note_on_c, 0, 71, 110
2, 37020, Note_off_c, 0, 71, 0
2, 37020, Note_on_c, 0, 72, 110
2, 37032, Note_off_c, 0, 72, 0
2, 37032, Note_on_c, 0, 74, 110
2, 37044, Note_off_c, 0, 74, 0
2, 37044, Note_on_c, 0, 76, 110
2, 37056, Note_off_c, 0, 76, 0
2, 37056, Note_on_c, 0, 71, 110
2, 37344, Note_off_c, 0, 71, 0
2, 37344, Note_on_c, 0, 69, 110
2, 37392, Note_off_c, 0, 69, 0
2, 37392, Note_on_c, 0, 67, 110
2, 37440, Note_off_c, 0, 67, 0
2, 37440, Note_on_c, 0, 65, 110
2, 37488, Note_off_c, 0, 65, 0
2, 37500, Note_on_c, 0, 65, 110
2, 37512, Note_off_c, 0, 65, 0
2, 37512, Note_on_c, 0, 67, 110
2, 37524, Note_off_c, 0, 67, 0
2, 37524, Note_on_c, 0, 69, 110
2, 37536, Note_off_c, 0, 69, 0
2, 37536, Note_on_c, 0, 70, 110
2, 37548, Note_off_c, 0, 70, 0
2, 37548, Note_on_c, 0, 72, 110
2, 37560, Note_off_c, 0, 72, 0
2, 37560, Note_on_c, 0, 74, 110
2, 37572, Note_off_c, 0, 74, 0
2, 37572, Note_on_c, 0, 75, 110
2, 37584, Note_off_c, 0, 75, 0
2, 37584, Note_on_c, 0, 77, 110
2, 37596, Note_off_c, 0, 77, 0
2, 37596, Note_on_c, 0, 79, 110
2, 37608, Note_off_c, 0, 79, 0
2, 37608, Note_on_c, 0, 81, 110
2, 37620, Note_off_c, 0, 81, 0
2, 37620, Note_on_c, 0, 82, 110
2, 37632, Note_off_c, 0, 82, 0
2, 37632, Note_on_c, 0, 64, 110
2, 37920, Note_off_c, 0, 64, 0
2, 37920, Note_on_c, 0, 63, 110
2, 38112, Note_off_c, 0, 63, 0
2, 38112, Note_on_c, 0, 64, 110
2, 38160, Note_off_c, 0, 64, 0
2, 38160, Note_on_c, 0, 66, 110
2, 38208, Note_off_c, 0, 66, 0
2, 38208, Note_on_c, 0, 64, 110
2, 38304, Note_off_c, 0, 64, 0
2, 38304, Note_on_c, 0, 59, 110
2, 38400, Note_off_c, 0, 59, 0
2, 38400, Note_on_c, 0, 64, 110
2, 39072, Note_off_c, 0, 64, 0
2, 39072, Note_on_c, 0, 65, 110
2, 39168, Note_off_c, 0, 65, 0
2, 39168, Note_on_c, 0, 67, 110
2, 39264, Note_off_c, 0, 67, 0
2, 39264, Note_on_c, 0, 69, 110
2, 39312, Note_off_c, 0, 69, 0
2, 39312, Note_on_c, 0, 67, 110
2, 39360, Note_off_c, 0, 67, 0
2, 39360, Note_on_c, 0, 65, 110
2, 39552, Note_off_c, 0, 65, 0
2, 39552, Note_on_c, 0, 62, 110
2, 39648, Note_off_c, 0, 62, 0
2, 39672, Note_on_c, 0, 79, 110
2, 39696, Note_off_c, 0, 79, 0
2, 39696, Note_on_c, 0, 82, 110
2, 39720, Note_off_c, 0, 82, 0
2, 39720, Note_on_c, 0, 79, 110
2, 39744, Note_off_c, 0, 79, 0
2, 39744, Note_on_c, 0, 75, 110
2, 39768, Note_off_c, 0, 75, 0
2, 39768, Note_on_c, 0, 77, 110
2, 39792, Note_off_c, 0, 77, 0
2, 39792, Note_on_c, 0, 79, 110
2, 39816, Note_off_c, 0, 79, 0
2, 39816, Note_on_c, 0, 74, 110
2, 39840, Note_off_c, 0, 74, 0
2, 39840, Note_on_c, 0, 75, 110
2, 39864, Note_off_c, 0, 75, 0
2, 39864, Note_on_c, 0, 70, 110
2, 39888, Note_off_c, 0, 70, 0
2, 39888, Note_on_c, 0, 67, 110
2, 39912, Note_off_c, 0, 67, 0
2, 39912, Note_on_c, 0, 63, 110
2, 39936, Note_off_c, 0, 63, 0
2, 39984, Note_on_c, 0, 69, 110
2, 40032, Note_off_c, 0, 69, 0
2, 40032, Note_on_c, 0, 67, 110
2, 40080, Note_off_c, 0, 67, 0
2, 40080, Note_on_c, 0, 65, 110
2, 40128, Note_off_c, 0, 65, 0
2, 40128, Note_on_c, 0, 67, 110
2, 40224, Note_off_c, 0, 67, 0
2, 40224, Note_on_c, 0, 69, 110
2, 40320, Note_off_c, 0, 69, 0
2, 40320, Note_on_c, 0, 70, 110
2, 40440, Note_off_c, 0, 70, 0
2, 40440, Note_on_c, 0, 69, 110
2, 40464, Note_off_c, 0, 69, 0
2, 40464, Note_on_c, 0, 67, 110
2, 40488, Note_off_c, 0, 67, 0
2, 40488, Note_on_c, 0, 69, 110
2, 40500, Note_off_c, 0, 69, 0
2, 40500, Note_on_c, 0, 70, 110
2, 40512, Note_off_c, 0, 70, 0
2, 40512, Note_on_c, 0, 58, 110
2, 40608, Note_off_c, 0, 58, 0
2, 40608, Note_on_c, 0, 57, 110
2, 40704, Note_off_c, 0, 57, 0
2, 40704, Note_on_c, 0, 57, 110
2, 41088, Note_off_c, 0, 57, 0
2, 43584, Note_on_c, 0, 69, 84
2, 43608, Note_off_c, 0, 69, 0
2, 43608, Note_on_c, 0, 71, 84
2, 43632, Note_off_c, 0, 71, 0
2, 43632, Note_on_c, 0, 73, 84
2, 43656, Note_off_c, 0, 73, 0
2, 43656, Note_on_c, 0, 71, 84
2, 43680, Note_off_c, 0, 71, 0
2, 43680, Note_on_c, 0, 69, 84
2, 43704, Note_off_c, 0, 69, 0
2, 43704, Note_on_c, 0, 71, 84
2, 43728, Note_off_c, 0, 71, 0
2, 43728, Note_on_c, 0, 73, 84
2, 43752, Note_off_c, 0, 73, 0
2, 43752, Note_on_c, 0, 71, 84
2, 43776, Note_off_c, 0, 71, 0
2, 43776, Note_on_c, 0, 69, 84
2, 43800, Note_off_c, 0, 69, 0
2, 43800, Note_on_c, 0, 71, 84
2, 43824, Note_off_c, 0, 71, 0
2, 43824, Note_on_c, 0, 73, 84
2, 43848, Note_off_c, 0, 73, 0
2, 43848, Note_on_c, 0, 71, 84
2, 43872, Note_off_c, 0, 71, 0
2, 43872, Note_on_c, 0, 69, 84
2, 43896, Note_off_c, 0, 69, 0
2, 43896, Note_on_c, 0, 71, 84
2, 43920, Note_off_c, 0, 71, 0
2, 43920, Note_on_c, 0, 73, 84
2, 43944, Note_off_c, 0, 73, 0
2, 43944, Note_on_c, 0, 71, 84
2, 43968, Note_off_c, 0, 71, 0
2, 43968, Note_on_c, 0, 69, 84
2, 44016, Note_off_c, 0, 69, 0
2, 44256, Note_on_c, 0, 78, 84
2, 44280, Note_off_c, 0, 78, 0
2, 44280, Note_on_c, 0, 76, 84
2, 44304, Note_off_c, 0, 76, 0
2, 44304, Note_on_c, 0, 78, 84
2, 44328, Note_off_c, 0, 78, 0
2, 44328, Note_on_c, 0, 73, 84
2, 44352, Note_off_c, 0, 73, 0
2, 44352, Note_on_c, 0, 74, 84
2, 44376, Note_off_c, 0, 74, 0
2, 44376, Note_on_c, 0, 73, 84
2, 44400, Note_off_c, 0, 73, 0
2, 44400, Note_on_c, 0, 74, 84
2, 44424, Note_off_c, 0, 74, 0
2, 44424, Note_on_c, 0, 71, 84
2, 44448, Note_off_c, 0, 71, 0
2, 44448, Note_on_c, 0, 76, 84
2, 44472, Note_off_c, 0, 76, 0
2, 44472, Note_on_c, 0, 74, 84
2, 44496, Note_off_c, 0, 74, 0
2, 44496, Note_on_c, 0, 76, 84
2, 44520, Note_off_c, 0, 76, 0
2, 44520, Note_on_c, 0, 71, 84
2, 44544, Note_off_c, 0, 71, 0
2, 44544, Note_on_c, 0, 73, 84
2, 44568, Note_off_c, 0, 73, 0
2, 44568, Note_on_c, 0, 71, 84
2, 44592, Note_off_c, 0, 71, 0
2, 44592, Note_on_c, 0, 73, 84
2, 44616, Note_off_c, 0, 73, 0
2, 44616, Note_on_c, 0, 69, 84
2, 44640, Note_off_c, 0, 69, 0
2, 44640, Note_on_c, 0, 74, 84
2, 44664, Note_off_c, 0, 74, 0
2, 44664, Note_on_c, 0, 73, 84
2, 44688, Note_off_c, 0, 73, 0
2, 44688, Note_on_c, 0, 74, 84
2, 44712, Note_off_c, 0, 74, 0
2, 44712, Note_on_c, 0, 69, 84
2, 44736, Note_off_c, 0, 69, 0
2, 44736, Note_on_c, 0, 71, 84
2, 44760, Note_off_c, 0, 71, 0
2, 44760, Note_on_c, 0, 69, 84
2, 44784, Note_off_c, 0, 69, 0
2, 44784, Note_on_c, 0, 71, 84
2, 44808, Note_off_c, 0, 71, 0
2, 44808, Note_on_c, 0, 68, 84
2, 44832, Note_off_c, 0, 68, 0
2, 44832, Note_on_c, 0, 73, 84
2, 44856, Note_off_c, 0, 73, 0
2, 44856, Note_on_c, 0, 71, 84
2, 44880, Note_off_c, 0, 71, 0
2, 44880, Note_on_c, 0, 73, 84
2, 44904, Note_off_c, 0, 73, 0
2, 44904, Note_on_c, 0, 68, 84
2, 44928, Note_off_c, 0, 68, 0
2, 44928, Note_on_c, 0, 69, 84
2, 44952, Note_off_c, 0, 69, 0
2, 44952, Note_on_c, 0, 68, 84
2, 44976, Note_off_c, 0, 68, 0
2, 44976, Note_on_c, 0, 69, 84
2, 45000, Note_off_c, 0, 69, 0
2, 45000, Note_on_c, 0, 66, 84
2, 45024, Note_off_c, 0, 66, 0
2, 45024, Note_on_c, 0, 71, 84
2, 45048, Note_off_c, 0, 71, 0
2, 45048, Note_on_c, 0, 69, 84
2, 45072, Note_off_c, 0, 69, 0
2, 45072, Note_on_c, 0, 71, 84
2, 45096, Note_off_c, 0, 71, 0
2, 45096, Note_on_c, 0, 66, 84
2, 45120, Note_off_c, 0, 66, 0
2, 45120, Note_on_c, 0, 68, 84
2, 45144, Note_off_c, 0, 68, 0
2, 45144, Note_on_c, 0, 66, 84
2, 45168, Note_off_c, 0, 66, 0
2, 45168, Note_on_c, 0, 68, 84
2, 45192, Note_off_c, 0, 68, 0
2, 45192, Note_on_c, 0, 64, 84
2, 45216, Note_off_c, 0, 64, 0
2, 45216, Note_on_c, 0, 69, 84
2, 45336, Note_off_c, 0, 69, 0
2, 45336, Note_on_c, 0, 71, 84
2, 45360, Note_off_c, 0, 71, 0
2, 45360, Note_on_c, 0, 69, 84
2, 45384, Note_off_c, 0, 69, 0
2, 45384, Note_on_c, 0, 71, 84
2, 45408, Note_off_c, 0, 71, 0
2, 45408, Note_on_c, 0, 68, 84
2, 45420, Note_off_c, 0, 68, 0
2, 45420, Note_on_c, 0, 66, 84
2, 45432, Note_off_c, 0, 66, 0
2, 45432, Note_on_c, 0, 68, 84
2, 45480, Note_off_c, 0, 68, 0
2, 45480, Note_on_c, 0, 69, 84
2, 45504, Note_off_c, 0, 69, 0
2, 45504, Note_on_c, 0, 69, 84
2, 45528, Note_off_c, 0, 69, 0
2, 45528, Note_on_c, 0, 73, 84
2, 45552, Note_off_c, 0, 73, 0
2, 45552, Note_on_c, 0, 69, 84
2, 45576, Note_off_c, 0, 69, 0
2, 45576, Note_on_c, 0, 64, 84
2, 45600, Note_off_c, 0, 64, 0
2, 45696, Note_on_c, 0, 74, 84
2, 45720, Note_off_c, 0, 74, 0
2, 45720, Note_on_c, 0, 78, 84
2, 45744, Note_off_c, 0, 78, 0
2, 45744, Note_on_c, 0, 74, 84
2, 45768, Note_off_c, 0, 74, 0
2, 45768, Note_on_c, 0, 69, 84
2, 45792, Note_off_c, 0, 69, 0
2, 45888, Note_on_c, 0, 67, 84
2, 45912, Note_off_c, 0, 67, 0
2, 45912, Note_on_c, 0, 71, 84
2, 45936, Note_off_c, 0, 71, 0
2, 45936, Note_on_c, 0, 67, 84
2, 45960, Note_off_c, 0, 67, 0
2, 45960, Note_on_c, 0, 62, 84
2, 45984, Note_off_c, 0, 62, 0
2, 46104, Note_on_c, 0, 64, 84
2, 46128, Note_off_c, 0, 64, 0
2, 46128, Note_on_c, 0, 69, 84
2, 46152, Note_off_c, 0, 69, 0
2, 46152, Note_on_c, 0, 64, 84
2, 46176, Note_off_c, 0, 64, 0
2, 46176, Note_on_c, 0, 66, 84
2, 46224, Note_off_c, 0, 66, 0
2, 46224, Note_on_c, 0, 66, 84
2, 46272, Note_off_c, 0, 66, 0
2, 46272, Note_on_c, 0, 67, 84
2, 46296, Note_off_c, 0, 67, 0
2, 46296, Note_on_c, 0, 69, 84
2, 46320, Note_off_c, 0, 69, 0
2, 46320, Note_on_c, 0, 66, 84
2, 46344, Note_off_c, 0, 66, 0
2, 46344, Note_on_c, 0, 67, 84
2, 46368, Note_off_c, 0, 67, 0
2, 46368, Note_on_c, 0, 64, 84
2, 46380, Note_off_c, 0, 64, 0
2, 46380, Note_on_c, 0, 62, 84
2, 46392, Note_off_c, 0, 62, 0
2, 46392, Note_on_c, 0, 64, 84
2, 46440, Note_off_c, 0, 64, 0
2, 46440, Note_on_c, 0, 62, 84
2, 46464, Note_off_c, 0, 62, 0
2, 46464, Note_on_c, 0, 74, 84
2, 46488, Note_off_c, 0, 74, 0
2, 46488, Note_on_c, 0, 76, 84
2, 46512, Note_off_c, 0, 76, 0
2, 46512, Note_on_c, 0, 78, 84
2, 46536, Note_off_c, 0, 78, 0
2, 46536, Note_on_c, 0, 76, 84
2, 46560, Note_off_c, 0, 76, 0
2, 46560, Note_on_c, 0, 74, 84
2, 46584, Note_off_c, 0, 74, 0
2, 46584, Note_on_c, 0, 76, 84
2, 46608, Note_off_c, 0, 76, 0
2, 46608, Note_on_c, 0, 78, 84
2, 46632, Note_off_c, 0, 78, 0
2, 46632, Note_on_c, 0, 76, 84
2, 46656, Note_off_c, 0, 76, 0
2, 46656, Note_on_c, 0, 74, 84
2, 46680, Note_off_c, 0, 74, 0
2, 46680, Note_on_c, 0, 76, 84
2, 46704, Note_off_c, 0, 76, 0
2, 46704, Note_on_c, 0, 78, 84
2, 46728, Note_off_c, 0, 78, 0
2, 46728, Note_on_c, 0, 76, 84
2, 46752, Note_off_c, 0, 76, 0
2, 46752, Note_on_c, 0, 74, 84
2, 46776, Note_off_c, 0, 74, 0
2, 46776, Note_on_c, 0, 76, 84
2, 46800, Note_off_c, 0, 76, 0
2, 46800, Note_on_c, 0, 78, 84
2, 46824, Note_off_c, 0, 78, 0
2, 46824, Note_on_c, 0, 76, 84
2, 46848, Note_off_c, 0, 76, 0
2, 46848, Note_on_c, 0, 74, 84
2, 46896, Note_off_c, 0, 74, 0
2, 47136, Note_on_c, 0, 83, 84
2, 47160, Note_off_c, 0, 83, 0
2, 47160, Note_on_c, 0, 81, 84
2, 47184, Note_off_c, 0, 81, 0
2, 47184, Note_on_c, 0, 83, 84
2, 47208, Note_off_c, 0, 83, 0
2, 47208, Note_on_c, 0, 78, 84
2, 47232, Note_off_c, 0, 78, 0
2, 47232, Note_on_c, 0, 79, 84
2, 47256, Note_off_c, 0, 79, 0
2, 47256, Note_on_c, 0, 78, 84
2, 47280, Note_off_c, 0, 78, 0
2, 47280, Note_on_c, 0, 79, 84
2, 47304, Note_off_c, 0, 79, 0
2, 47304, Note_on_c, 0, 76, 84
2, 47328, Note_off_c, 0, 76, 0
2, 47328, Note_on_c, 0, 81, 84
2, 47352, Note_off_c, 0, 81, 0
2, 47352, Note_on_c, 0, 79, 84
2, 47376, Note_off_c, 0, 79, 0
2, 47376, Note_on_c, 0, 81, 84
2, 47400, Note_off_c, 0, 81, 0
2, 47400, Note_on_c, 0, 76, 84
2, 47424, Note_off_c, 0, 76, 0
2, 47424, Note_on_c, 0, 78, 84
2, 47448, Note_off_c, 0, 78, 0
2, 47448, Note_on_c, 0, 76, 84
2, 47472, Note_off_c, 0, 76, 0
2, 47472, Note_on_c, 0, 78, 84
2, 47496, Note_off_c, 0, 78, 0
2, 47496, Note_on_c, 0, 74, 84
2, 47520, Note_off_c, 0, 74, 0
2, 47520, Note_on_c, 0, 79, 84
2, 47544, Note_off_c, 0, 79, 0
2, 47544, Note_on_c, 0, 78, 84
2, 47568, Note_off_c, 0, 78, 0
2, 47568, Note_on_c, 0, 79, 84
2, 47592, Note_off_c, 0, 79, 0
2, 47592, Note_on_c, 0, 74, 84
2, 47616, Note_off_c, 0, 74, 0
2, 47616, Note_on_c, 0, 76, 84
2, 47640, Note_off_c, 0, 76, 0
2, 47640, Note_on_c, 0, 74, 84
2, 47664, Note_off_c, 0, 74, 0
2, 47664, Note_on_c, 0, 76, 84
2, 47688, Note_off_c, 0, 76, 0
2, 47688, Note_on_c, 0, 73, 84
2, 47712, Note_off_c, 0, 73, 0
2, 47712, Note_on_c, 0, 78, 84
2, 47736, Note_off_c, 0, 78, 0
2, 47736, Note_on_c, 0, 76, 84
2, 47760, Note_off_c, 0, 76, 0
2, 47760, Note_on_c, 0, 78, 84
2, 47784, Note_off_c, 0, 78, 0
2, 47784, Note_on_c, 0, 73, 84
2, 47808, Note_off_c, 0, 73, 0
2, 47808, Note_on_c, 0, 74, 84
2, 47832, Note_off_c, 0, 74, 0
2, 47832, Note_on_c, 0, 73, 84
2, 47856, Note_off_c, 0, 73, 0
2, 47856, Note_on_c, 0, 74, 84
2, 47880, Note_off_c, 0, 74, 0
2, 47880, Note_on_c, 0, 71, 84
2, 47904, Note_off_c, 0, 71, 0
2, 47904, Note_on_c, 0, 76, 84
2, 47928, Note_off_c, 0, 76, 0
2, 47928, Note_on_c, 0, 74, 84
2, 47952, Note_off_c, 0, 74, 0
2, 47952, Note_on_c, 0, 76, 84
2, 47976, Note_off_c, 0, 76, 0
2, 47976, Note_on_c, 0, 71, 84
2, 48000, Note_off_c, 0, 71, 0
2, 48000, Note_on_c, 0, 73, 84
2, 48024, Note_off_c, 0, 73, 0
2, 48024, Note_on_c, 0, 71, 84
2, 48048, Note_off_c, 0, 71, 0
2, 48048, Note_on_c, 0, 73, 84
2, 48072, Note_off_c, 0, 73, 0
2, 48072, Note_on_c, 0, 69, 84
2, 48096, Note_off_c, 0, 69, 0
2, 48096, Note_on_c, 0, 74, 84
2, 48192, Note_off_c, 0, 74, 0
2, 48192, Note_on_c, 0, 74, 84
2, 48216, Note_off_c, 0, 74, 0
2, 48216, Note_on_c, 0, 76, 84
2, 48240, Note_off_c, 0, 76, 0
2, 48240, Note_on_c, 0, 74, 84
2, 48264, Note_off_c, 0, 74, 0
2, 48264, Note_on_c, 0, 76, 84
2, 48288, Note_off_c, 0, 76, 0
2, 48288, Note_on_c, 0, 73, 84
2, 48300, Note_off_c, 0, 73, 0
2, 48300, Note_on_c, 0, 71, 84
2, 48312, Note_off_c, 0, 71, 0
2, 48312, Note_on_c, 0, 73, 84
2, 48360, Note_off_c, 0, 73, 0
2, 48360, Note_on_c, 0, 74, 84
2, 48384, Note_off_c, 0, 74, 0
2, 48384, Note_on_c, 0, 74, 84
2, 48408, Note_off_c, 0, 74, 0
2, 48408, Note_on_c, 0, 78, 84
2, 48432, Note_off_c, 0, 78, 0
2, 48432, Note_on_c, 0, 74, 84
2, 48456, Note_off_c, 0, 74, 0
2, 48456, Note_on_c, 0, 69, 84
2, 48480, Note_off_c, 0, 69, 0
2, 48480, Note_on_c, 0, 66, 84
2, 48504, Note_off_c, 0, 66, 0
2, 48504, Note_on_c, 0, 69, 84
2, 48528, Note_off_c, 0, 69, 0
2, 48528, Note_on_c, 0, 66, 84
2, 48552, Note_off_c, 0, 66, 0
2, 48552, Note_on_c, 0, 62, 84
2, 48672, Note_off_c, 0, 62, 0
2, 48672, Note_on_c, 0, 81, 84
2, 48864, Note_off_c, 0, 81, 0
2, 48912, Note_on_c, 0, 74, 84
2, 48960, Note_off_c, 0, 74, 0
2, 48960, Note_on_c, 0, 73, 84
2, 49056, Note_off_c, 0, 73, 0
2, 49392, Note_on_c, 0, 64, 84
2, 49440, Note_off_c, 0, 64, 0
2, 49440, Note_on_c, 0, 69, 84
2, 49464, Note_off_c, 0, 69, 0
2, 49464, Note_on_c, 0, 68, 84
2, 49488, Note_off_c, 0, 68, 0
2, 49488, Note_on_c, 0, 64, 84
2, 49536, Note_off_c, 0, 64, 0
2, 49536, Note_on_c, 0, 64, 84
2, 49632, Note_off_c, 0, 64, 0
2, 49680, Note_on_c, 0, 69, 84
2, 49716, Note_off_c, 0, 69, 0
2, 49728, Note_on_c, 0, 66, 84
2, 49824, Note_off_c, 0, 66, 0
2, 49872, Note_on_c, 0, 68, 84
2, 49908, Note_off_c, 0, 68, 0
2, 49920, Note_on_c, 0, 64, 84
2, 50016, Note_off_c, 0, 64, 0
2, 50064, Note_on_c, 0, 66, 84
2, 50100, Note_off_c, 0, 66, 0
2, 50112, Note_on_c, 0, 62, 84
2, 50208, Note_off_c, 0, 62, 0
2, 50256, Note_on_c, 0, 64, 84
2, 50292, Note_off_c, 0, 64, 0
2, 50304, Note_on_c, 0, 61, 84
2, 50400, Note_off_c, 0, 61, 0
2, 50448, Note_on_c, 0, 66, 84
2, 50484, Note_off_c, 0, 66, 0
2, 50496, Note_on_c, 0, 64, 84
2, 50592, Note_off_c, 0, 64, 0
2, 50592, Note_on_c, 0, 73, 84
2, 50688, Note_off_c, 0, 73, 0
2, 50688, Note_on_c, 0, 62, 84
2, 50784, Note_off_c, 0, 62, 0
2, 50784, Note_on_c, 0, 71, 84
2, 50904, Note_off_c, 0, 71, 0
2, 50904, Note_on_c, 0, 64, 84
2, 50928, Note_off_c, 0, 64, 0
2, 50928, Note_on_c, 0, 68, 84
2, 50952, Note_off_c, 0, 68, 0
2, 50952, Note_on_c, 0, 64, 84
2, 50976, Note_off_c, 0, 64, 0
2, 50976, Note_on_c, 0, 69, 84
2, 51096, Note_off_c, 0, 69, 0
2, 51096, Note_on_c, 0, 71, 84
2, 51120, Note_off_c, 0, 71, 0
2, 51120, Note_on_c, 0, 62, 84
2, 51168, Note_off_c, 0, 62, 0
2, 51168, Note_on_c, 0, 64, 84
2, 51264, Note_off_c, 0, 64, 0
2, 51264, Note_on_c, 0, 64, 84
2, 51312, Note_off_c, 0, 64, 0
2, 51312, Note_on_c, 0, 73, 84
2, 51336, Note_off_c, 0, 73, 0
2, 51336, Note_on_c, 0, 71, 84
2, 51360, Note_off_c, 0, 71, 0
2, 51360, Note_on_c, 0, 69, 84
2, 51384, Note_off_c, 0, 69, 0
2, 51384, Note_on_c, 0, 71, 84
2, 51408, Note_off_c, 0, 71, 0
2, 51408, Note_on_c, 0, 73, 84
2, 51432, Note_off_c, 0, 73, 0
2, 51432, Note_on_c, 0, 71, 84
2, 51456, Note_off_c, 0, 71, 0
2, 51456, Note_on_c, 0, 69, 84
2, 51480, Note_off_c, 0, 69, 0
2, 51480, Note_on_c, 0, 71, 84
2, 51504, Note_off_c, 0, 71, 0
2, 51504, Note_on_c, 0, 73, 84
2, 51528, Note_off_c, 0, 73, 0
2, 51528, Note_on_c, 0, 71, 84
2, 51552, Note_off_c, 0, 71, 0
2, 51552, Note_on_c, 0, 69, 84
2, 51576, Note_off_c, 0, 69, 0
2, 51576, Note_on_c, 0, 71, 84
2, 51600, Note_off_c, 0, 71, 0
2, 51600, Note_on_c, 0, 73, 84
2, 51624, Note_off_c, 0, 73, 0
2, 51624, Note_on_c, 0, 71, 84
2, 51648, Note_off_c, 0, 71, 0
2, 51648, Note_on_c, 0, 69, 84
2, 51672, Note_off_c, 0, 69, 0
2, 51672, Note_on_c, 0, 73, 84
2, 51696, Note_off_c, 0, 73, 0
2, 51696, Note_on_c, 0, 69, 84
2, 51720, Note_off_c, 0, 69, 0
2, 51720, Note_on_c, 0, 64, 84
2, 51744, Note_off_c, 0, 64, 0
2, 51864, Note_on_c, 0, 69, 84
2, 51888, Note_off_c, 0, 69, 0
2, 51888, Note_on_c, 0, 74, 84
2, 51912, Note_off_c, 0, 74, 0
2, 51912, Note_on_c, 0, 69, 84
2, 51936, Note_off_c, 0, 69, 0
2, 51936, Note_on_c, 0, 71, 84
2, 51960, Note_off_c, 0, 71, 0
2, 51960, Note_on_c, 0, 74, 84
2, 51984, Note_off_c, 0, 74, 0
2, 51984, Note_on_c, 0, 79, 84
2, 52008, Note_off_c, 0, 79, 0
2, 52008, Note_on_c, 0, 71, 84
2, 52032, Note_off_c, 0, 71, 0
2, 52032, Note_on_c, 0, 73, 84
2, 52056, Note_off_c, 0, 73, 0
2, 52056, Note_on_c, 0, 76, 84
2, 52080, Note_off_c, 0, 76, 0
2, 52080, Note_on_c, 0, 81, 84
2, 52104, Note_off_c, 0, 81, 0
2, 52104, Note_on_c, 0, 73, 84
2, 52128, Note_off_c, 0, 73, 0
2, 52128, Note_on_c, 0, 74, 84
2, 52152, Note_off_c, 0, 74, 0
2, 52152, Note_on_c, 0, 78, 84
2, 52176, Note_off_c, 0, 78, 0
2, 52176, Note_on_c, 0, 83, 84
2, 52200, Note_off_c, 0, 83, 0
2, 52200, Note_on_c, 0, 74, 84
2, 52224, Note_off_c, 0, 74, 0
2, 52224, Note_on_c, 0, 76, 84
2, 52248, Note_off_c, 0, 76, 0
2, 52248, Note_on_c, 0, 81, 84
2, 52272, Note_off_c, 0, 81, 0
2, 52272, Note_on_c, 0, 79, 84
2, 52296, Note_off_c, 0, 79, 0
2, 52296, Note_on_c, 0, 81, 84
2, 52320, Note_off_c, 0, 81, 0
2, 52320, Note_on_c, 0, 78, 84
2, 52344, Note_off_c, 0, 78, 0
2, 52344, Note_on_c, 0, 76, 84
2, 52368, Note_off_c, 0, 76, 0
2, 52368, Note_on_c, 0, 78, 84
2, 52392, Note_off_c, 0, 78, 0
2, 52392, Note_on_c, 0, 74, 84
2, 52416, Note_off_c, 0, 74, 0
2, 52416, Note_on_c, 0, 79, 84
2, 52440, Note_off_c, 0, 79, 0
2, 52440, Note_on_c, 0, 78, 84
2, 52464, Note_off_c, 0, 78, 0
2, 52464, Note_on_c, 0, 79, 84
2, 52488, Note_off_c, 0, 79, 0
2, 52488, Note_on_c, 0, 81, 84
2, 52512, Note_off_c, 0, 81, 0
2, 52512, Note_on_c, 0, 76, 84
2, 52584, Note_off_c, 0, 76, 0
2, 52584, Note_on_c, 0, 74, 84
2, 52608, Note_off_c, 0, 74, 0
2, 52608, Note_on_c, 0, 62, 84
2, 52632, Note_off_c, 0, 62, 0
2, 52632, Note_on_c, 0, 64, 84
2, 52656, Note_off_c, 0, 64, 0
2, 52656, Note_on_c, 0, 66, 84
2, 52680, Note_off_c, 0, 66, 0
2, 52680, Note_on_c, 0, 64, 84
2, 52704, Note_off_c, 0, 64, 0
2, 52704, Note_on_c, 0, 62, 84
2, 52728, Note_off_c, 0, 62, 0
2, 52728, Note_on_c, 0, 64, 84
2, 52752, Note_off_c, 0, 64, 0
2, 52752, Note_on_c, 0, 66, 84
2, 52776, Note_off_c, 0, 66, 0
2, 52776, Note_on_c, 0, 64, 84
2, 52800, Note_off_c, 0, 64, 0
2, 52800, Note_on_c, 0, 62, 84
2, 52824, Note_off_c, 0, 62, 0
2, 52824, Note_on_c, 0, 64, 84
2, 52848, Note_off_c, 0, 64, 0
2, 52848, Note_on_c, 0, 66, 84
2, 52872, Note_off_c, 0, 66, 0
2, 52872, Note_on_c, 0, 64, 84
2, 52896, Note_off_c, 0, 64, 0
2, 52896, Note_on_c, 0, 62, 84
2, 52920, Note_off_c, 0, 62, 0
2, 52920, Note_on_c, 0, 64, 84
2, 52944, Note_off_c, 0, 64, 0
2, 52944, Note_on_c, 0, 66, 84
2, 52968, Note_off_c, 0, 66, 0
2, 52968, Note_on_c, 0, 64, 84
2, 52992, Note_off_c, 0, 64, 0
2, 52992, Note_on_c, 0, 62, 84
2, 53040, Note_off_c, 0, 62, 0
2, 53280, Note_on_c, 0, 71, 84
2, 53304, Note_off_c, 0, 71, 0
2, 53304, Note_on_c, 0, 69, 84
2, 53328, Note_off_c, 0, 69, 0
2, 53328, Note_on_c, 0, 71, 84
2, 53352, Note_off_c, 0, 71, 0
2, 53352, Note_on_c, 0, 66, 84
2, 53376, Note_off_c, 0, 66, 0
2, 53376, Note_on_c, 0, 67, 84
2, 53400, Note_off_c, 0, 67, 0
2, 53400, Note_on_c, 0, 66, 84
2, 53424, Note_off_c, 0, 66, 0
2, 53424, Note_on_c, 0, 67, 84
2, 53448, Note_off_c, 0, 67, 0
2, 53448, Note_on_c, 0, 64, 84
2, 53472, Note_off_c, 0, 64, 0
2, 53472, Note_on_c, 0, 69, 84
2, 53496, Note_off_c, 0, 69, 0
2, 53496, Note_on_c, 0, 67, 84
2, 53520, Note_off_c, 0, 67, 0
2, 53520, Note_on_c, 0, 69, 84
2, 53544, Note_off_c, 0, 69, 0
2, 53544, Note_on_c, 0, 64, 84
2, 53568, Note_off_c, 0, 64, 0
2, 53568, Note_on_c, 0, 66, 84
2, 53592, Note_off_c, 0, 66, 0
2, 53592, Note_on_c, 0, 64, 84
2, 53616, Note_off_c, 0, 64, 0
2, 53616, Note_on_c, 0, 66, 84
2, 53640, Note_off_c, 0, 66, 0
2, 53640, Note_on_c, 0, 62, 84
2, 53664, Note_off_c, 0, 62, 0
2, 53664, Note_on_c, 0, 67, 84
2, 53688, Note_off_c, 0, 67, 0
2, 53688, Note_on_c, 0, 66, 84
2, 53712, Note_off_c, 0, 66, 0
2, 53712, Note_on_c, 0, 67, 84
2, 53736, Note_off_c, 0, 67, 0
2, 53736, Note_on_c, 0, 62, 84
2, 53760, Note_off_c, 0, 62, 0
2, 53760, Note_on_c, 0, 64, 84
2, 53784, Note_off_c, 0, 64, 0
2, 53784, Note_on_c, 0, 62, 84
2, 53808, Note_off_c, 0, 62, 0
2, 53808, Note_on_c, 0, 64, 84
2, 53832, Note_off_c, 0, 64, 0
2, 53832, Note_on_c, 0, 61, 84
2, 53856, Note_off_c, 0, 61, 0
2, 53856, Note_on_c, 0, 66, 84
2, 53880, Note_off_c, 0, 66, 0
2, 53880, Note_on_c, 0, 64, 84
2, 53904, Note_off_c, 0, 64, 0
2, 53904, Note_on_c, 0, 66, 84
2, 53928, Note_off_c, 0, 66, 0
2, 53928, Note_on_c, 0, 61, 84
2, 53952, Note_off_c, 0, 61, 0
2, 53952, Note_on_c, 0, 62, 84
2, 53976, Note_off_c, 0, 62, 0
2, 53976, Note_on_c, 0, 61, 84
2, 54000, Note_off_c, 0, 61, 0
2, 54000, Note_on_c, 0, 62, 84
2, 54024, Note_off_c, 0, 62, 0
2, 54024, Note_on_c, 0, 59, 84
2, 54048, Note_off_c, 0, 59, 0
2, 54048, Note_on_c, 0, 64, 84
2, 54072, Note_off_c, 0, 64, 0
2, 54072, Note_on_c, 0, 62, 84
2, 54096, Note_off_c, 0, 62, 0
2, 54096, Note_on_c, 0, 64, 84
2, 54120, Note_off_c, 0, 64, 0
2, 54120, Note_on_c, 0, 59, 84
2, 54144, Note_off_c, 0, 59, 0
2, 54144, Note_on_c, 0, 61, 84
2, 54168, Note_off_c, 0, 61, 0
2, 54168, Note_on_c, 0, 59, 84
2, 54192, Note_off_c, 0, 59, 0
2, 54192, Note_on_c, 0, 61, 84
2, 54216, Note_off_c, 0, 61, 0
2, 54216, Note_on_c, 0, 57, 84
2, 54240, Note_off_c, 0, 57, 0
2, 54240, Note_on_c, 0, 62, 84
2, 54360, Note_off_c, 0, 62, 0
2, 54360, Note_on_c, 0, 64, 84
2, 54384, Note_off_c, 0, 64, 0
2, 54384, Note_on_c, 0, 62, 84
2, 54408, Note_off_c, 0, 62, 0
2, 54408, Note_on_c, 0, 64, 84
2, 54432, Note_off_c, 0, 64, 0
2, 54432, Note_on_c, 0, 61, 84
2, 54504, Note_off_c, 0, 61, 0
2, 54504, Note_on_c, 0, 62, 84
2, 54528, Note_off_c, 0, 62, 0
2, 54528, Note_on_c, 0, 62, 84
2, 54576, Note_off_c, 0, 62, 0
2, 54576, Note_on_c, 0, 64, 84
2, 54624, Note_off_c, 0, 64, 0
2, 54624, Note_on_c, 0, 66, 84
2, 54672, Note_off_c, 0, 66, 0
2, 54672, Note_on_c, 0, 68, 84
2, 54720, Note_off_c, 0, 68, 0
2, 54720, Note_on_c, 0, 69, 84
2, 54744, Note_off_c, 0, 69, 0
2, 54744, Note_on_c, 0, 71, 84
2, 54768, Note_off_c, 0, 71, 0
2, 54768, Note_on_c, 0, 73, 84
2, 54792, Note_off_c, 0, 73, 0
2, 54792, Note_on_c, 0, 71, 84
2, 54816, Note_off_c, 0, 71, 0
2, 54816, Note_on_c, 0, 69, 84
2, 54840, Note_off_c, 0, 69, 0
2, 54840, Note_on_c, 0, 73, 84
2, 54864, Note_off_c, 0, 73, 0
2, 54864, Note_on_c, 0, 71, 84
2, 54888, Note_off_c, 0, 71, 0
2, 54888, Note_on_c, 0, 69, 84
2, 54912, Note_off_c, 0, 69, 0
2, 54912, Note_on_c, 0, 68, 84
2, 54936, Note_off_c, 0, 68, 0
2, 54936, Note_on_c, 0, 66, 84
2, 54960, Note_off_c, 0, 66, 0
2, 54960, Note_on_c, 0, 68, 84
2, 54984, Note_off_c, 0, 68, 0
2, 54984, Note_on_c, 0, 64, 84
2, 55008, Note_off_c, 0, 64, 0
2, 55008, Note_on_c, 0, 66, 84
2, 55056, Note_off_c, 0, 66, 0
2, 55056, Note_on_c, 0, 68, 84
2, 55104, Note_off_c, 0, 68, 0
2, 55104, Note_on_c, 0, 69, 84
2, 55152, Note_off_c, 0, 69, 0
2, 55152, Note_on_c, 0, 66, 84
2, 55200, Note_off_c, 0, 66, 0
2, 55200, Note_on_c, 0, 59, 84
2, 55248, Note_off_c, 0, 59, 0
2, 55248, Note_on_c, 0, 62, 84
2, 55296, Note_off_c, 0, 62, 0
2, 55296, Note_on_c, 0, 61, 84
2, 55320, Note_off_c, 0, 61, 0
2, 55320, Note_on_c, 0, 64, 84
2, 55344, Note_off_c, 0, 64, 0
2, 55344, Note_on_c, 0, 69, 84
2, 55368, Note_off_c, 0, 69, 0
2, 55368, Note_on_c, 0, 64, 84
2, 55392, Note_off_c, 0, 64, 0
2, 55392, Note_on_c, 0, 61, 84
2, 55416, Note_off_c, 0, 61, 0
2, 55416, Note_on_c, 0, 64, 84
2, 55440, Note_off_c, 0, 64, 0
2, 55440, Note_on_c, 0, 69, 84
2, 55464, Note_off_c, 0, 69, 0
2, 55464, Note_on_c, 0, 64, 84
2, 55488, Note_off_c, 0, 64, 0
2, 55488, Note_on_c, 0, 61, 84
2, 55512, Note_off_c, 0, 61, 0
2, 55512, Note_on_c, 0, 64, 84
2, 55536, Note_off_c, 0, 64, 0
2, 55536, Note_on_c, 0, 69, 84
2, 55560, Note_off_c, 0, 69, 0
2, 55560, Note_on_c, 0, 64, 84
2, 55584, Note_off_c, 0, 64, 0
2, 55584, Note_on_c, 0, 61, 84
2, 55608, Note_off_c, 0, 61, 0
2, 55608, Note_on_c, 0, 64, 84
2, 55632, Note_off_c, 0, 64, 0
2, 55632, Note_on_c, 0, 69, 84
2, 55656, Note_off_c, 0, 69, 0
2, 55656, Note_on_c, 0, 64, 84
2, 55680, Note_off_c, 0, 64, 0
2, 55680, Note_on_c, 0, 61, 84
2, 55728, Note_off_c, 0, 61, 0
2, 55728, Note_on_c, 0, 73, 84
2, 55752, Note_off_c, 0, 73, 0
2, 55752, Note_on_c, 0, 71, 84
2, 55776, Note_off_c, 0, 71, 0
2, 55776, Note_on_c, 0, 73, 84
2, 55800, Note_off_c, 0, 73, 0
2, 55800, Note_on_c, 0, 71, 84
2, 55824, Note_off_c, 0, 71, 0
2, 55824, Note_on_c, 0, 73, 84
2, 55848, Note_off_c, 0, 73, 0
2, 55848, Note_on_c, 0, 71, 84
2, 55872, Note_off_c, 0, 71, 0
2, 55872, Note_on_c, 0, 73, 84
2, 55908, Note_off_c, 0, 73, 0
2, 55920, Note_on_c, 0, 69, 84
2, 55968, Note_off_c, 0, 69, 0
2, 56016, Note_on_c, 0, 69, 84
2, 56052, Note_off_c, 0, 69, 0
2, 56064, Note_on_c, 0, 69, 84
2, 56160, Note_off_c, 0, 69, 0
2, 56208, Note_on_c, 0, 68, 84
2, 56244, Note_off_c, 0, 68, 0
2, 56256, Note_on_c, 0, 68, 84
2, 56352, Note_off_c, 0, 68, 0
2, 56400, Note_on_c, 0, 66, 84
2, 56436, Note_off_c, 0, 66, 0
2, 56448, Note_on_c, 0, 66, 84
2, 56544, Note_off_c, 0, 66, 0
2, 56592, Note_on_c, 0, 64, 84
2, 56628, Note_off_c, 0, 64, 0
2, 56640, Note_on_c, 0, 64, 84
2, 56736, Note_off_c, 0, 64, 0
2, 56784, Note_on_c, 0, 62, 84
2, 56820, Note_off_c, 0, 62, 0
2, 56832, Note_on_c, 0, 62, 84
2, 56928, Note_off_c, 0, 62, 0
2, 56928, Note_on_c, 0, 61, 84
2, 57024, Note_off_c, 0, 61, 0
2, 57024, Note_on_c, 0, 59, 84
2, 57216, Note_off_c, 0, 59, 0
2, 57216, Note_on_c, 0, 61, 84
2, 57240, Note_off_c, 0, 61, 0
2, 57240, Note_on_c, 0, 64, 84
2, 57264, Note_off_c, 0, 64, 0
2, 57264, Note_on_c, 0, 61, 84
2, 57288, Note_off_c, 0, 61, 0
2, 57288, Note_on_c, 0, 57, 84
2, 57312, Note_off_c, 0, 57, 0
2, 57408, Note_on_c, 0, 57, 84
2, 57432, Note_off_c, 0, 57, 0
2, 57432, Note_on_c, 0, 61, 84
2, 57456, Note_off_c, 0, 61, 0
2, 57456, Note_on_c, 0, 57, 84
2, 57480, Note_off_c, 0, 57, 0
2, 57480, Note_on_c, 0, 52, 84
2, 57504, Note_off_c, 0, 52, 0
2, 57624, Note_on_c, 0, 57, 84
2, 57648, Note_off_c, 0, 57, 0
2, 57648, Note_on_c, 0, 62, 84
2, 57672, Note_off_c, 0, 62, 0
2, 57672, Note_on_c, 0, 57, 84
2, 57696, Note_off_c, 0, 57, 0
2, 57696, Note_on_c, 0, 59, 84
2, 57792, Note_off_c, 0, 59, 0
2, 57816, Note_on_c, 0, 59, 84
2, 57840, Note_off_c, 0, 59, 0
2, 57840, Note_on_c, 0, 64, 84
2, 57864, Note_off_c, 0, 64, 0
2, 57864, Note_on_c, 0, 59, 84
2, 57888, Note_off_c, 0, 59, 0
2, 57888, Note_on_c, 0, 61, 84
2, 57984, Note_off_c, 0, 61, 0
2, 58008, Note_on_c, 0, 61, 84
2, 58032, Note_off_c, 0, 61, 0
2, 58032, Note_on_c, 0, 66, 84
2, 58056, Note_off_c, 0, 66, 0
2, 58056, Note_on_c, 0, 61, 84
2, 58080, Note_off_c, 0, 61, 0
2, 58080, Note_on_c, 0, 62, 84
2, 58104, Note_off_c, 0, 62, 0
2, 58104, Note_on_c, 0, 59, 84
2, 58128, Note_off_c, 0, 59, 0
2, 58128, Note_on_c, 0, 71, 84
2, 58152, Note_off_c, 0, 71, 0
2, 58152, Note_on_c, 0, 62, 84
2, 58176, Note_off_c, 0, 62, 0
2, 58176, Note_on_c, 0, 64, 84
2, 58200, Note_off_c, 0, 64, 0
2, 58200, Note_on_c, 0, 57, 84
2, 58224, Note_off_c, 0, 57, 0
2, 58224, Note_on_c, 0, 69, 84
2, 58248, Note_off_c, 0, 69, 0
2, 58248, Note_on_c, 0, 71, 84
2, 58272, Note_off_c, 0, 71, 0
2, 58272, Note_on_c, 0, 69, 84
2, 58296, Note_off_c, 0, 69, 0
2, 58296, Note_on_c, 0, 71, 84
2, 58320, Note_off_c, 0, 71, 0
2, 58320, Note_on_c, 0, 69, 84
2, 58344, Note_off_c, 0, 69, 0
2, 58344, Note_on_c, 0, 67, 84
2, 58368, Note_off_c, 0, 67, 0
2, 58368, Note_on_c, 0, 66, 84
2, 58392, Note_off_c, 0, 66, 0
2, 58392, Note_on_c, 0, 69, 84
2, 58416, Note_off_c, 0, 69, 0
2, 58416, Note_on_c, 0, 74, 84
2, 58440, Note_off_c, 0, 74, 0
2, 58440, Note_on_c, 0, 69, 84
2, 58464, Note_off_c, 0, 69, 0
2, 58464, Note_on_c, 0, 71, 84
2, 58488, Note_off_c, 0, 71, 0
2, 58488, Note_on_c, 0, 74, 84
2, 58512, Note_off_c, 0, 74, 0
2, 58512, Note_on_c, 0, 79, 84
2, 58536, Note_off_c, 0, 79, 0
2, 58536, Note_on_c, 0, 71, 84
2, 58560, Note_off_c, 0, 71, 0
2, 58560, Note_on_c, 0, 73, 84
2, 58608, Note_off_c, 0, 73, 0
2, 58608, Note_on_c, 0, 74, 84
2, 58728, Note_off_c, 0, 74, 0
2, 58728, Note_on_c, 0, 73, 84
2, 58752, Note_off_c, 0, 73, 0
2, 58752, Note_on_c, 0, 66, 84
2, 58848, Note_off_c, 0, 66, 0
2, 59136, Note_on_c, 0, 78, 84
2, 59160, Note_off_c, 0, 78, 0
2, 59160, Note_on_c, 0, 69, 84
2, 59184, Note_off_c, 0, 69, 0
2, 59184, Note_on_c, 0, 74, 84
2, 59208, Note_off_c, 0, 74, 0
2, 59208, Note_on_c, 0, 69, 84
2, 59232, Note_off_c, 0, 69, 0
2, 59232, Note_on_c, 0, 78, 84
2, 59256, Note_off_c, 0, 78, 0
2, 59256, Note_on_c, 0, 69, 84
2, 59280, Note_off_c, 0, 69, 0
2, 59280, Note_on_c, 0, 74, 84
2, 59304, Note_off_c, 0, 74, 0
2, 59304, Note_on_c, 0, 69, 84
2, 59328, Note_off_c, 0, 69, 0
2, 59328, Note_on_c, 0, 78, 84
2, 59352, Note_off_c, 0, 78, 0
2, 59352, Note_on_c, 0, 69, 84
2, 59376, Note_off_c, 0, 69, 0
2, 59376, Note_on_c, 0, 74, 84
2, 59400, Note_off_c, 0, 74, 0
2, 59400, Note_on_c, 0, 69, 84
2, 59424, Note_off_c, 0, 69, 0
2, 59424, Note_on_c, 0, 78, 84
2, 59472, Note_off_c, 0, 78, 0
2, 59472, Note_on_c, 0, 74, 84
2, 59520, Note_off_c, 0, 74, 0
2, 59520, Note_on_c, 0, 71, 84
2, 59616, Note_off_c, 0, 71, 0
2, 59664, Note_on_c, 0, 73, 84
2, 59700, Note_off_c, 0, 73, 0
2, 59712, Note_on_c, 0, 69, 84
2, 59808, Note_off_c, 0, 69, 0
2, 59856, Note_on_c, 0, 71, 84
2, 59892, Note_off_c, 0, 71, 0
2, 59904, Note_on_c, 0, 67, 84
2, 60000, Note_off_c, 0, 67, 0
2, 60048, Note_on_c, 0, 73, 84
2, 60084, Note_off_c, 0, 73, 0
2, 60096, Note_on_c, 0, 71, 84
2, 60192, Note_off_c, 0, 71, 0
2, 60240, Note_on_c, 0, 71, 84
2, 60276, Note_off_c, 0, 71, 0
2, 60288, Note_on_c, 0, 64, 84
2, 60384, Note_off_c, 0, 64, 0
2, 60384, Note_on_c, 0, 62, 84
2, 60432, Note_off_c, 0, 62, 0
2, 60432, Note_on_c, 0, 66, 84
2, 60480, Note_off_c, 0, 66, 0
2, 60480, Note_on_c, 0, 67, 84
2, 60576, Note_off_c, 0, 67, 0
2, 60576, Note_on_c, 0, 76, 84
2, 60600, Note_off_c, 0, 76, 0
2, 60600, Note_on_c, 0, 76, 84
2, 60636, Note_off_c, 0, 76, 0
2, 60648, Note_on_c, 0, 76, 84
2, 60690, Note_off_c, 0, 76, 0
2, 60696, Note_on_c, 0, 76, 84
2, 60732, Note_off_c, 0, 76, 0
2, 60744, Note_on_c, 0, 76, 84
2, 60762, Note_off_c, 0, 76, 0
2, 60768, Note_on_c, 0, 66, 84
2, 60816, Note_off_c, 0, 66, 0
2, 60816, Note_on_c, 0, 66, 84
2, 60864, Note_off_c, 0, 66, 0
2, 60864, Note_on_c, 0, 64, 84
2, 60912, Note_off_c, 0, 64, 0
2, 60912, Note_on_c, 0, 64, 84
2, 60960, Note_off_c, 0, 64, 0
2, 60960, Note_on_c, 0, 64, 84
2, 61008, Note_off_c, 0, 64, 0
2, 61008, Note_on_c, 0, 64, 84
2, 61056, Note_off_c, 0, 64, 0
2, 61056, Note_on_c, 0, 62, 84
2, 61104, Note_off_c, 0, 62, 0
2, 61104, Note_on_c, 0, 62, 84
2, 61152, Note_off_c, 0, 62, 0
2, 61152, Note_on_c, 0, 62, 84
2, 61200, Note_off_c, 0, 62, 0
2, 61200, Note_on_c, 0, 62, 84
2, 61248, Note_off_c, 0, 62, 0
2, 61248, Note_on_c, 0, 61, 84
2, 61296, Note_off_c, 0, 61, 0
2, 61296, Note_on_c, 0, 61, 84
2, 61344, Note_off_c, 0, 61, 0
2, 61344, Note_on_c, 0, 61, 84
2, 61392, Note_off_c, 0, 61, 0
2, 61392, Note_on_c, 0, 61, 84
2, 61440, Note_off_c, 0, 61, 0
2, 61440, Note_on_c, 0, 71, 84
2, 61536, Note_off_c, 0, 71, 0
2, 61824, Note_on_c, 0, 62, 84
2, 61848, Note_off_c, 0, 62, 0
2, 61848, Note_on_c, 0, 66, 84
2, 61872, Note_off_c, 0, 66, 0
2, 61872, Note_on_c, 0, 71, 84
2, 61896, Note_off_c, 0, 71, 0
2, 61896, Note_on_c, 0, 66, 84
2, 61920, Note_off_c, 0, 66, 0
2, 61920, Note_on_c, 0, 62, 84
2, 61944, Note_off_c, 0, 62, 0
2, 61944, Note_on_c, 0, 66, 84
2, 61968, Note_off_c, 0, 66, 0
2, 61968, Note_on_c, 0, 71, 84
2, 61992, Note_off_c, 0, 71, 0
2, 61992, Note_on_c, 0, 66, 84
2, 62016, Note_off_c, 0, 66, 0
2, 62016, Note_on_c, 0, 62, 84
2, 62040, Note_off_c, 0, 62, 0
2, 62040, Note_on_c, 0, 66, 84
2, 62064, Note_off_c, 0, 66, 0
2, 62064, Note_on_c, 0, 71, 84
2, 62088, Note_off_c, 0, 71, 0
2, 62088, Note_on_c, 0, 66, 84
2, 62112, Note_off_c, 0, 66, 0
2, 62112, Note_on_c, 0, 62, 84
2, 62136, Note_off_c, 0, 62, 0
2, 62136, Note_on_c, 0, 66, 84
2, 62160, Note_off_c, 0, 66, 0
2, 62160, Note_on_c, 0, 71, 84
2, 62184, Note_off_c, 0, 71, 0
2, 62184, Note_on_c, 0, 66, 84
2, 62208, Note_off_c, 0, 66, 0
2, 62256, Note_on_c, 0, 83, 84
2, 62280, Note_off_c, 0, 83, 0
2, 62280, Note_on_c, 0, 82, 84
2, 62304, Note_off_c, 0, 82, 0
2, 62304, Note_on_c, 0, 83, 84
2, 62328, Note_off_c, 0, 83, 0
2, 62328, Note_on_c, 0, 82, 84
2, 62352, Note_off_c, 0, 82, 0
2, 62352, Note_on_c, 0, 83, 84
2, 62376, Note_off_c, 0, 83, 0
2, 62376, Note_on_c, 0, 82, 84
2, 62400, Note_off_c, 0, 82, 0
2, 62400, Note_on_c, 0, 83, 84
2, 62436, Note_off_c, 0, 83, 0
2, 62448, Note_on_c, 0, 71, 84
2, 62496, Note_off_c, 0, 71, 0
2, 63456, Note_on_c, 0, 79, 84
2, 63480, Note_off_c, 0, 79, 0
2, 63480, Note_on_c, 0, 78, 84
2, 63504, Note_off_c, 0, 78, 0
2, 63504, Note_on_c, 0, 62, 84
2, 63552, Note_off_c, 0, 62, 0
2, 63552, Note_on_c, 0, 61, 84
2, 63648, Note_off_c, 0, 61, 0
2, 63648, Note_on_c, 0, 78, 84
2, 63672, Note_off_c, 0, 78, 0
2, 63672, Note_on_c, 0, 76, 84
2, 63696, Note_off_c, 0, 76, 0
2, 63696, Note_on_c, 0, 61, 84
2, 63744, Note_off_c, 0, 61, 0
2, 63744, Note_on_c, 0, 74, 84
2, 63768, Note_off_c, 0, 74, 0
2, 63768, Note_on_c, 0, 73, 84
2, 63792, Note_off_c, 0, 73, 0
2, 63792, Note_on_c, 0, 74, 84
2, 63816, Note_off_c, 0, 74, 0
2, 63816, Note_on_c, 0, 71, 84
2, 63840, Note_off_c, 0, 71, 0
2, 63840, Note_on_c, 0, 74, 84
2, 63888, Note_off_c, 0, 74, 0
2, 63888, Note_on_c, 0, 71, 84
2, 63936, Note_off_c, 0, 71, 0
2, 63936, Note_on_c, 0, 71, 84
2, 64032, Note_off_c, 0, 71, 0
2, 64080, Note_on_c, 0, 70, 84
2, 64128, Note_off_c, 0, 70, 0
2, 64128, Note_on_c, 0, 71, 84
2, 64152, Note_off_c, 0, 71, 0
2, 64152, Note_on_c, 0, 83, 84
2, 64176, Note_off_c, 0, 83, 0
2, 64176, Note_on_c, 0, 82, 84
2, 64200, Note_off_c, 0, 82, 0
2, 64200, Note_on_c, 0, 83, 84
2, 64224, Note_off_c, 0, 83, 0
2, 64224, Note_on_c, 0, 74, 84
2, 64344, Note_off_c, 0, 74, 0
2, 64344, Note_on_c, 0, 83, 84
2, 64368, Note_off_c, 0, 83, 0
2, 64368, Note_on_c, 0, 82, 84
2, 64392, Note_off_c, 0, 82, 0
2, 64392, Note_on_c, 0, 83, 84
2, 64416, Note_off_c, 0, 83, 0
2, 64416, Note_on_c, 0, 74, 84
2, 64536, Note_off_c, 0, 74, 0
2, 64536, Note_on_c, 0, 83, 84
2, 64560, Note_off_c, 0, 83, 0
2, 64560, Note_on_c, 0, 82, 84
2, 64584, Note_off_c, 0, 82, 0
2, 64584, Note_on_c, 0, 83, 84
2, 64608, Note_off_c, 0, 83, 0
2, 64608, Note_on_c, 0, 74, 84
2, 64728, Note_off_c, 0, 74, 0
2, 64728, Note_on_c, 0, 83, 84
2, 64752, Note_off_c, 0, 83, 0
2, 64752, Note_on_c, 0, 82, 84
2, 64776, Note_off_c, 0, 82, 0
2, 64776, Note_on_c, 0, 83, 84
2, 64800, Note_off_c, 0, 83, 0
2, 64800, Note_on_c, 0, 74, 84
2, 64920, Note_off_c, 0, 74, 0
2, 64920, Note_on_c, 0, 83, 84
2, 64944, Note_off_c, 0, 83, 0
2, 64944, Note_on_c, 0, 82, 84
2, 64968, Note_off_c, 0, 82, 0
2, 64968, Note_on_c, 0, 83, 84
2, 64992, Note_off_c, 0, 83, 0
2, 64992, Note_on_c, 0, 77, 84
2, 65088, Note_off_c, 0, 77, 0
2, 65112, Note_on_c, 0, 73, 84
2, 65136, Note_off_c, 0, 73, 0
2, 65136, Note_on_c, 0, 78, 84
2, 65160, Note_off_c, 0, 78, 0
2, 65160, Note_on_c, 0, 73, 84
2, 65184, Note_off_c, 0, 73, 0
2, 65184, Note_on_c, 0, 74, 84
2, 65280, Note_off_c, 0, 74, 0
2, 65304, Note_on_c, 0, 68, 84
2, 65328, Note_off_c, 0, 68, 0
2, 65328, Note_on_c, 0, 73, 84
2, 65352, Note_off_c, 0, 73, 0
2, 65352, Note_on_c, 0, 68, 84
2, 65376, Note_off_c, 0, 68, 0
2, 65376, Note_on_c, 0, 69, 84
2, 65472, Note_off_c, 0, 69, 0
2, 65496, Note_on_c, 0, 74, 84
2, 65520, Note_off_c, 0, 74, 0
2, 65520, Note_on_c, 0, 79, 84
2, 65544, Note_off_c, 0, 79, 0
2, 65544, Note_on_c, 0, 78, 84
2, 65568, Note_off_c, 0, 78, 0
2, 65568, Note_on_c, 0, 77, 84
2, 65592, Note_off_c, 0, 77, 0
2, 65592, Note_on_c, 0, 73, 84
2, 65616, Note_off_c, 0, 73, 0
2, 65616, Note_on_c, 0, 78, 84
2, 65640, Note_off_c, 0, 78, 0
2, 65640, Note_on_c, 0, 73, 84
2, 65664, Note_off_c, 0, 73, 0
2, 65664, Note_on_c, 0, 74, 84
2, 65688, Note_off_c, 0, 74, 0
2, 65688, Note_on_c, 0, 78, 84
2, 65712, Note_off_c, 0, 78, 0
2, 65712, Note_on_c, 0, 77, 84
2, 65736, Note_off_c, 0, 77, 0
2, 65736, Note_on_c, 0, 78, 84
2, 65760, Note_off_c, 0, 78, 0
2, 65760, Note_on_c, 0, 69, 84
2, 65784, Note_off_c, 0, 69, 0
2, 65784, Note_on_c, 0, 78, 84
2, 65808, Note_off_c, 0, 78, 0
2, 65808, Note_on_c, 0, 68, 84
2, 65832, Note_off_c, 0, 68, 0
2, 65832, Note_on_c, 0, 77, 84
2, 65856, Note_off_c, 0, 77, 0
2, 65856, Note_on_c, 0, 66, 84
2, 65880, Note_off_c, 0, 66, 0
2, 65880, Note_on_c, 0, 68, 84
2, 65904, Note_off_c, 0, 68, 0
2, 65904, Note_on_c, 0, 69, 84
2, 65928, Note_off_c, 0, 69, 0
2, 65928, Note_on_c, 0, 68, 84
2, 65952, Note_off_c, 0, 68, 0
2, 65952, Note_on_c, 0, 66, 84
2, 65976, Note_off_c, 0, 66, 0
2, 65976, Note_on_c, 0, 68, 84
2, 66000, Note_off_c, 0, 68, 0
2, 66000, Note_on_c, 0, 69, 84
2, 66024, Note_off_c, 0, 69, 0
2, 66024, Note_on_c, 0, 68, 84
2, 66048, Note_off_c, 0, 68, 0
2, 66048, Note_on_c, 0, 66, 84
2, 66072, Note_off_c, 0, 66, 0
2, 66072, Note_on_c, 0, 68, 84
2, 66096, Note_off_c, 0, 68, 0
2, 66096, Note_on_c, 0, 69, 84
2, 66120, Note_off_c, 0, 69, 0
2, 66120, Note_on_c, 0, 68, 84
2, 66144, Note_off_c, 0, 68, 0
2, 66144, Note_on_c, 0, 66, 84
2, 66168, Note_off_c, 0, 66, 0
2, 66168, Note_on_c, 0, 68, 84
2, 66192, Note_off_c, 0, 68, 0
2, 66192, Note_on_c, 0, 69, 84
2, 66216, Note_off_c, 0, 69, 0
2, 66216, Note_on_c, 0, 68, 84
2, 66240, Note_off_c, 0, 68, 0
2, 66240, Note_on_c, 0, 66, 84
2, 66336, Note_off_c, 0, 66, 0
2, 66528, Note_on_c, 0, 74, 84
2, 66552, Note_off_c, 0, 74, 0
2, 66552, Note_on_c, 0, 73, 84
2, 66576, Note_off_c, 0, 73, 0
2, 66576, Note_on_c, 0, 74, 84
2, 66600, Note_off_c, 0, 74, 0
2, 66600, Note_on_c, 0, 69, 84
2, 66624, Note_off_c, 0, 69, 0
2, 66624, Note_on_c, 0, 71, 84
2, 66648, Note_off_c, 0, 71, 0
2, 66648, Note_on_c, 0, 69, 84
2, 66672, Note_off_c, 0, 69, 0
2, 66672, Note_on_c, 0, 71, 84
2, 66696, Note_off_c, 0, 71, 0
2, 66696, Note_on_c, 0, 68, 84
2, 66720, Note_off_c, 0, 68, 0
2, 66720, Note_on_c, 0, 73, 84
2, 66744, Note_off_c, 0, 73, 0
2, 66744, Note_on_c, 0, 71, 84
2, 66768, Note_off_c, 0, 71, 0
2, 66768, Note_on_c, 0, 73, 84
2, 66792, Note_off_c, 0, 73, 0
2, 66792, Note_on_c, 0, 68, 84
2, 66816, Note_off_c, 0, 68, 0
2, 66816, Note_on_c, 0, 69, 84
2, 66840, Note_off_c, 0, 69, 0
2, 66840, Note_on_c, 0, 68, 84
2, 66864, Note_off_c, 0, 68, 0
2, 66864, Note_on_c, 0, 69, 84
2, 66888, Note_off_c, 0, 69, 0
2, 66888, Note_on_c, 0, 66, 84
2, 66912, Note_off_c, 0, 66, 0
2, 66912, Note_on_c, 0, 71, 84
2, 66936, Note_off_c, 0, 71, 0
2, 66936, Note_on_c, 0, 69, 84
2, 66960, Note_off_c, 0, 69, 0
2, 66960, Note_on_c, 0, 71, 84
2, 66984, Note_off_c, 0, 71, 0
2, 66984, Note_on_c, 0, 66, 84
2, 67008, Note_off_c, 0, 66, 0
2, 67008, Note_on_c, 0, 68, 84
2, 67032, Note_off_c, 0, 68, 0
2, 67032, Note_on_c, 0, 66, 84
2, 67056, Note_off_c, 0, 66, 0
2, 67056, Note_on_c, 0, 68, 84
2, 67080, Note_off_c, 0, 68, 0
2, 67080, Note_on_c, 0, 64, 84
2, 67104, Note_off_c, 0, 64, 0
2, 67104, Note_on_c, 0, 69, 84
2, 67128, Note_off_c, 0, 69, 0
2, 67128, Note_on_c, 0, 68, 84
2, 67152, Note_off_c, 0, 68, 0
2, 67152, Note_on_c, 0, 69, 84
2, 67176, Note_off_c, 0, 69, 0
2, 67176, Note_on_c, 0, 64, 84
2, 67200, Note_off_c, 0, 64, 0
2, 67200, Note_on_c, 0, 66, 84
2, 67224, Note_off_c, 0, 66, 0
2, 67224, Note_on_c, 0, 64, 84
2, 67248, Note_off_c, 0, 64, 0
2, 67248, Note_on_c, 0, 66, 84
2, 67272, Note_off_c, 0, 66, 0
2, 67272, Note_on_c, 0, 63, 84
2, 67296, Note_off_c, 0, 63, 0
2, 67296, Note_on_c, 0, 68, 84
2, 67320, Note_off_c, 0, 68, 0
2, 67320, Note_on_c, 0, 66, 84
2, 67344, Note_off_c, 0, 66, 0
2, 67344, Note_on_c, 0, 68, 84
2, 67368, Note_off_c, 0, 68, 0
2, 67368, Note_on_c, 0, 63, 84
2, 67392, Note_off_c, 0, 63, 0
2, 67392, Note_on_c, 0, 65, 84
2, 67416, Note_off_c, 0, 65, 0
2, 67416, Note_on_c, 0, 63, 84
2, 67440, Note_off_c, 0, 63, 0
2, 67440, Note_on_c, 0, 65, 84
2, 67464, Note_off_c, 0, 65, 0
2, 67464, Note_on_c, 0, 61, 84
2, 67488, Note_off_c, 0, 61, 0
2, 67488, Note_on_c, 0, 66, 84
2, 67536, Note_off_c, 0, 66, 0
2, 67536, Note_on_c, 0, 73, 84
2, 67584, Note_off_c, 0, 73, 0
2, 67584, Note_on_c, 0, 74, 84
2, 67608, Note_off_c, 0, 74, 0
2, 67608, Note_on_c, 0, 65, 84
2, 67632, Note_off_c, 0, 65, 0
2, 67632, Note_on_c, 0, 66, 84
2, 67656, Note_off_c, 0, 66, 0
2, 67656, Note_on_c, 0, 68, 84
2, 67680, Note_off_c, 0, 68, 0
2, 67680, Note_on_c, 0, 65, 84
2, 67692, Note_off_c, 0, 65, 0
2, 67692, Note_on_c, 0, 63, 84
2, 67704, Note_off_c, 0, 63, 0
2, 67704, Note_on_c, 0, 65, 84
2, 67752, Note_off_c, 0, 65, 0
2, 67752, Note_on_c, 0, 66, 84
2, 67776, Note_off_c, 0, 66, 0
2, 67776, Note_on_c, 0, 66, 84
2, 67824, Note_off_c, 0, 66, 0
2, 67824, Note_on_c, 0, 78, 84
2, 67848, Note_off_c, 0, 78, 0
2, 67848, Note_on_c, 0, 77, 84
2, 67872, Note_off_c, 0, 77, 0
2, 67872, Note_on_c, 0, 78, 84
2, 67896, Note_off_c, 0, 78, 0
2, 67896, Note_on_c, 0, 77, 84
2, 67920, Note_off_c, 0, 77, 0
2, 67920, Note_on_c, 0, 78, 84
2, 67944, Note_off_c, 0, 78, 0
2, 67944, Note_on_c, 0, 77, 84
2, 67968, Note_off_c, 0, 77, 0
2, 67968, Note_on_c, 0, 69, 84
2, 68064, Note_off_c, 0, 69, 0
2, 68208, Note_on_c, 0, 66, 84
2, 68232, Note_off_c, 0, 66, 0
2, 68232, Note_on_c, 0, 65, 84
2, 68256, Note_off_c, 0, 65, 0
2, 68256, Note_on_c, 0, 66, 84
2, 68280, Note_off_c, 0, 66, 0
2, 68280, Note_on_c, 0, 65, 84
2, 68304, Note_off_c, 0, 65, 0
2, 68304, Note_on_c, 0, 66, 84
2, 68328, Note_off_c, 0, 66, 0
2, 68328, Note_on_c, 0, 65, 84
2, 68352, Note_off_c, 0, 65, 0
2, 68352, Note_on_c, 0, 66, 84
2, 68448, Note_off_c, 0, 66, 0
2, 68592, Note_on_c, 0, 61, 84
2, 68640, Note_off_c, 0, 61, 0
2, 68640, Note_on_c, 0, 61, 84
2, 68688, Note_off_c, 0, 61, 0
2, 68688, Note_on_c, 0, 61, 84
2, 68736, Note_off_c, 0, 61, 0
2, 68736, Note_on_c, 0, 61, 84
2, 68814, Note_off_c, 0, 61, 0
2, 68880, Note_on_c, 0, 66, 84
2, 68916, Note_off_c, 0, 66, 0
2, 68928, Note_on_c, 0, 66, 84
2, 69024, Note_off_c, 0, 66, 0
2, 69072, Note_on_c, 0, 64, 84
2, 69108, Note_off_c, 0, 64, 0
2, 69120, Note_on_c, 0, 64, 84
2, 69216, Note_off_c, 0, 64, 0
2, 69264, Note_on_c, 0, 62, 84
2, 69300, Note_off_c, 0, 62, 0
2, 69312, Note_on_c, 0, 62, 84
2, 69408, Note_off_c, 0, 62, 0
2, 69456, Note_on_c, 0, 61, 84
2, 69492, Note_off_c, 0, 61, 0
2, 69504, Note_on_c, 0, 61, 84
2, 69600, Note_off_c, 0, 61, 0
2, 69648, Note_on_c, 0, 75, 84
2, 69684, Note_off_c, 0, 75, 0
2, 69696, Note_on_c, 0, 80, 84
2, 69732, Note_off_c, 0, 80, 0
2, 69744, Note_on_c, 0, 73, 84
2, 69792, Note_off_c, 0, 73, 0
2, 69792, Note_on_c, 0, 73, 84
2, 69816, Note_off_c, 0, 73, 0
2, 69816, Note_on_c, 0, 74, 84
2, 69840, Note_off_c, 0, 74, 0
2, 69840, Note_on_c, 0, 73, 84
2, 69864, Note_off_c, 0, 73, 0
2, 69864, Note_on_c, 0, 74, 84
2, 69888, Note_off_c, 0, 74, 0
2, 69888, Note_on_c, 0, 71, 84
2, 70008, Note_off_c, 0, 71, 0
2, 70008, Note_on_c, 0, 73, 84
2, 70032, Note_off_c, 0, 73, 0
2, 70032, Note_on_c, 0, 71, 84
2, 70056, Note_off_c, 0, 71, 0
2, 70056, Note_on_c, 0, 73, 84
2, 70080, Note_off_c, 0, 73, 0
2, 70080, Note_on_c, 0, 69, 84
2, 70200, Note_off_c, 0, 69, 0
2, 70200, Note_on_c, 0, 71, 84
2, 70224, Note_off_c, 0, 71, 0
2, 70224, Note_on_c, 0, 69, 84
2, 70248, Note_off_c, 0, 69, 0
2, 70248, Note_on_c, 0, 71, 84
2, 70272, Note_off_c, 0, 71, 0
2, 70272, Note_on_c, 0, 68, 84
2, 70296, Note_off_c, 0, 68, 0
2, 70296, Note_on_c, 0, 69, 84
2, 70320, Note_off_c, 0, 69, 0
2, 70320, Note_on_c, 0, 66, 84
2, 70344, Note_off_c, 0, 66, 0
2, 70344, Note_on_c, 0, 68, 84
2, 70368, Note_off_c, 0, 68, 0
2, 70368, Note_on_c, 0, 66, 84
2, 70392, Note_off_c, 0, 66, 0
2, 70392, Note_on_c, 0, 68, 84
2, 70416, Note_off_c, 0, 68, 0
2, 70416, Note_on_c, 0, 66, 84
2, 70440, Note_off_c, 0, 66, 0
2, 70440, Note_on_c, 0, 65, 84
2, 70464, Note_off_c, 0, 65, 0
2, 70464, Note_on_c, 0, 66, 84
2, 70488, Note_off_c, 0, 66, 0
2, 70488, Note_on_c, 0, 69, 84
2, 70512, Note_off_c, 0, 69, 0
2, 70512, Note_on_c, 0, 66, 84
2, 70536, Note_off_c, 0, 66, 0
2, 70536, Note_on_c, 0, 61, 84
2, 70560, Note_off_c, 0, 61, 0
2, 70560, Note_on_c, 0, 57, 84
2, 70584, Note_off_c, 0, 57, 0
2, 70584, Note_on_c, 0, 61, 84
2, 70608, Note_off_c, 0, 61, 0
2, 70608, Note_on_c, 0, 57, 84
2, 70632, Note_off_c, 0, 57, 0
2, 70632, Note_on_c, 0, 54, 84
2, 70656, Note_off_c, 0, 54, 0
2, 70656, Note_on_c, 0, 78, 84
2, 70680, Note_off_c, 0, 78, 0
2, 70680, Note_on_c, 0, 81, 84
2, 70704, Note_off_c, 0, 81, 0
2, 70704, Note_on_c, 0, 78, 84
2, 70728, Note_off_c, 0, 78, 0
2, 70728, Note_on_c, 0, 73, 84
2, 70752, Note_off_c, 0, 73, 0
2, 70752, Note_on_c, 0, 69, 84
2, 70776, Note_off_c, 0, 69, 0
2, 70776, Note_on_c, 0, 73, 84
2, 70800, Note_off_c, 0, 73, 0
2, 70800, Note_on_c, 0, 69, 84
2, 70824, Note_off_c, 0, 69, 0
2, 70824, Note_on_c, 0, 66, 84
2, 70848, Note_off_c, 0, 66, 0
2, 71280, Note_on_c, 0, 78, 84
2, 71304, Note_off_c, 0, 78, 0
2, 71304, Note_on_c, 0, 76, 84
2, 71328, Note_off_c, 0, 76, 0
2, 71328, Note_on_c, 0, 78, 84
2, 71352, Note_off_c, 0, 78, 0
2, 71352, Note_on_c, 0, 76, 84
2, 71376, Note_off_c, 0, 76, 0
2, 71376, Note_on_c, 0, 78, 84
2, 71400, Note_off_c, 0, 78, 0
2, 71400, Note_on_c, 0, 76, 84
2, 71424, Note_off_c, 0, 76, 0
2, 71424, Note_on_c, 0, 75, 84
2, 71472, Note_off_c, 0, 75, 0
2, 71472, Note_on_c, 0, 68, 84
2, 71496, Note_off_c, 0, 68, 0
2, 71496, Note_on_c, 0, 66, 84
2, 71520, Note_off_c, 0, 66, 0
2, 71520, Note_on_c, 0, 68, 84
2, 71544, Note_off_c, 0, 68, 0
2, 71544, Note_on_c, 0, 66, 84
2, 71568, Note_off_c, 0, 66, 0
2, 71568, Note_on_c, 0, 68, 84
2, 71592, Note_off_c, 0, 68, 0
2, 71592, Note_on_c, 0, 66, 84
2, 71616, Note_off_c, 0, 66, 0
2, 71616, Note_on_c, 0, 64, 84
2, 71664, Note_off_c, 0, 64, 0
2, 71664, Note_on_c, 0, 80, 84
2, 71688, Note_off_c, 0, 80, 0
2, 71688, Note_on_c, 0, 78, 84
2, 71712, Note_off_c, 0, 78, 0
2, 71712, Note_on_c, 0, 76, 84
2, 71736, Note_off_c, 0, 76, 0
2, 71736, Note_on_c, 0, 78, 84
2, 71760, Note_off_c, 0, 78, 0
2, 71760, Note_on_c, 0, 80, 84
2, 71784, Note_off_c, 0, 80, 0
2, 71784, Note_on_c, 0, 78, 84
2, 71808, Note_off_c, 0, 78, 0
2, 71808, Note_on_c, 0, 76, 84
2, 71856, Note_off_c, 0, 76, 0
2, 72240, Note_on_c, 0, 68, 84
2, 72288, Note_off_c, 0, 68, 0
2, 72288, Note_on_c, 0, 68, 84
2, 72336, Note_off_c, 0, 68, 0
2, 72336, Note_on_c, 0, 68, 84
2, 72384, Note_off_c, 0, 68, 0
2, 72384, Note_on_c, 0, 68, 84
2, 72462, Note_off_c, 0, 68, 0
2, 72528, Note_on_c, 0, 64, 84
2, 72564, Note_off_c, 0, 64, 0
2, 72576, Note_on_c, 0, 63, 84
2, 72672, Note_off_c, 0, 63, 0
2, 72720, Note_on_c, 0, 72, 84
2, 72756, Note_off_c, 0, 72, 0
2, 72768, Note_on_c, 0, 73, 84
2, 72792, Note_off_c, 0, 73, 0
2, 72792, Note_on_c, 0, 75, 84
2, 72816, Note_off_c, 0, 75, 0
2, 72816, Note_on_c, 0, 76, 84
2, 72840, Note_off_c, 0, 76, 0
2, 72840, Note_on_c, 0, 73, 84
2, 72864, Note_off_c, 0, 73, 0
2, 72864, Note_on_c, 0, 81, 84
2, 72888, Note_off_c, 0, 81, 0
2, 72888, Note_on_c, 0, 80, 84
2, 72912, Note_off_c, 0, 80, 0
2, 72912, Note_on_c, 0, 81, 84
2, 72936, Note_off_c, 0, 81, 0
2, 72936, Note_on_c, 0, 76, 84
2, 72960, Note_off_c, 0, 76, 0
2, 72960, Note_on_c, 0, 78, 84
2, 72984, Note_off_c, 0, 78, 0
2, 72984, Note_on_c, 0, 76, 84
2, 73008, Note_off_c, 0, 76, 0
2, 73008, Note_on_c, 0, 78, 84
2, 73032, Note_off_c, 0, 78, 0
2, 73032, Note_on_c, 0, 75, 84
2, 73056, Note_off_c, 0, 75, 0
2, 73056, Note_on_c, 0, 80, 84
2, 73080, Note_off_c, 0, 80, 0
2, 73080, Note_on_c, 0, 78, 84
2, 73104, Note_off_c, 0, 78, 0
2, 73104, Note_on_c, 0, 80, 84
2, 73128, Note_off_c, 0, 80, 0
2, 73128, Note_on_c, 0, 75, 84
2, 73152, Note_off_c, 0, 75, 0
2, 73152, Note_on_c, 0, 76, 84
2, 73176, Note_off_c, 0, 76, 0
2, 73176, Note_on_c, 0, 75, 84
2, 73200, Note_off_c, 0, 75, 0
2, 73200, Note_on_c, 0, 76, 84
2, 73224, Note_off_c, 0, 76, 0
2, 73224, Note_on_c, 0, 73, 84
2, 73248, Note_off_c, 0, 73, 0
2, 73248, Note_on_c, 0, 78, 84
2, 73272, Note_off_c, 0, 78, 0
2, 73272, Note_on_c, 0, 76, 84
2, 73296, Note_off_c, 0, 76, 0
2, 73296, Note_on_c, 0, 74, 84
2, 73320, Note_off_c, 0, 74, 0
2, 73320, Note_on_c, 0, 73, 84
2, 73344, Note_off_c, 0, 73, 0
2, 73344, Note_on_c, 0, 72, 84
2, 73368, Note_off_c, 0, 72, 0
2, 73368, Note_on_c, 0, 75, 84
2, 73392, Note_off_c, 0, 75, 0
2, 73392, Note_on_c, 0, 73, 84
2, 73416, Note_off_c, 0, 73, 0
2, 73416, Note_on_c, 0, 75, 84
2, 73440, Note_off_c, 0, 75, 0
2, 73440, Note_on_c, 0, 72, 84
2, 73512, Note_off_c, 0, 72, 0
2, 73512, Note_on_c, 0, 73, 84
2, 73536, Note_off_c, 0, 73, 0
2, 73536, Note_on_c, 0, 73, 84
2, 73560, Note_off_c, 0, 73, 0
2, 73560, Note_on_c, 0, 76, 84
2, 73584, Note_off_c, 0, 76, 0
2, 73584, Note_on_c, 0, 73, 84
2, 73608, Note_off_c, 0, 73, 0
2, 73608, Note_on_c, 0, 68, 84
2, 73632, Note_off_c, 0, 68, 0
2, 73728, Note_on_c, 0, 64, 84
2, 73752, Note_off_c, 0, 64, 0
2, 73752, Note_on_c, 0, 68, 84
2, 73776, Note_off_c, 0, 68, 0
2, 73776, Note_on_c, 0, 64, 84
2, 73800, Note_off_c, 0, 64, 0
2, 73800, Note_on_c, 0, 61, 84
2, 73824, Note_off_c, 0, 61, 0
2, 73824, Note_on_c, 0, 56, 84
2, 73848, Note_off_c, 0, 56, 0
2, 73848, Note_on_c, 0, 61, 84
2, 73872, Note_off_c, 0, 61, 0
2, 73872, Note_on_c, 0, 56, 84
2, 73896, Note_off_c, 0, 56, 0
2, 73896, Note_on_c, 0, 52, 84
2, 73920, Note_off_c, 0, 52, 0
2, 73920, Note_on_c, 0, 61, 84
2, 73944, Note_off_c, 0, 61, 0
2, 73944, Note_on_c, 0, 64, 84
2, 73968, Note_off_c, 0, 64, 0
2, 73968, Note_on_c, 0, 61, 84
2, 73992, Note_off_c, 0, 61, 0
2, 73992, Note_on_c, 0, 56, 84
2, 74016, Note_off_c, 0, 56, 0
2, 74016, Note_on_c, 0, 52, 84
2, 74040, Note_off_c, 0, 52, 0
2, 74040, Note_on_c, 0, 56, 84
2, 74064, Note_off_c, 0, 56, 0
2, 74064, Note_on_c, 0, 52, 84
2, 74088, Note_off_c, 0, 52, 0
2, 74088, Note_on_c, 0, 49, 84
2, 74112, Note_off_c, 0, 49, 0
2, 74136, Note_on_c, 0, 70, 84
2, 74160, Note_off_c, 0, 70, 0
2, 74160, Note_on_c, 0, 64, 84
2, 74184, Note_off_c, 0, 64, 0
2, 74184, Note_on_c, 0, 70, 84
2, 74208, Note_off_c, 0, 70, 0
2, 74208, Note_on_c, 0, 63, 84
2, 74232, Note_off_c, 0, 63, 0
2, 74232, Note_on_c, 0, 71, 84
2, 74256, Note_off_c, 0, 71, 0
2, 74256, Note_on_c, 0, 61, 84
2, 74280, Note_off_c, 0, 61, 0
2, 74280, Note_on_c, 0, 73, 84
2, 74304, Note_off_c, 0, 73, 0
2, 74304, Note_on_c, 0, 66, 84
2, 74328, Note_off_c, 0, 66, 0
2, 74328, Note_on_c, 0, 75, 84
2, 74352, Note_off_c, 0, 75, 0
2, 74352, Note_on_c, 0, 68, 84
2, 74376, Note_off_c, 0, 68, 0
2, 74376, Note_on_c, 0, 73, 84
2, 74400, Note_off_c, 0, 73, 0
2, 74400, Note_on_c, 0, 70, 84
2, 74424, Note_off_c, 0, 70, 0
2, 74424, Note_on_c, 0, 73, 84
2, 74448, Note_off_c, 0, 73, 0
2, 74448, Note_on_c, 0, 70, 84
2, 74472, Note_off_c, 0, 70, 0
2, 74472, Note_on_c, 0, 66, 84
2, 74496, Note_off_c, 0, 66, 0
2, 74496, Note_on_c, 0, 71, 84
2, 74544, Note_off_c, 0, 71, 0
2, 74592, Note_on_c, 0, 68, 84
2, 74616, Note_off_c, 0, 68, 0
2, 74616, Note_on_c, 0, 71, 84
2, 74640, Note_off_c, 0, 71, 0
2, 74640, Note_on_c, 0, 68, 84
2, 74664, Note_off_c, 0, 68, 0
2, 74664, Note_on_c, 0, 64, 84
2, 74688, Note_off_c, 0, 64, 0
2, 74688, Note_on_c, 0, 69, 84
2, 74712, Note_off_c, 0, 69, 0
2, 74712, Note_on_c, 0, 64, 84
2, 74736, Note_off_c, 0, 64, 0
2, 74736, Note_on_c, 0, 71, 84
2, 74760, Note_off_c, 0, 71, 0
2, 74760, Note_on_c, 0, 64, 84
2, 74784, Note_off_c, 0, 64, 0
2, 74784, Note_on_c, 0, 73, 84
2, 74808, Note_off_c, 0, 73, 0
2, 74808, Note_on_c, 0, 68, 84
2, 74832, Note_off_c, 0, 68, 0
2, 74832, Note_on_c, 0, 66, 84
2, 74856, Note_off_c, 0, 66, 0
2, 74856, Note_on_c, 0, 64, 84
2, 74880, Note_off_c, 0, 64, 0
2, 74880, Note_on_c, 0, 63, 84
2, 74904, Note_off_c, 0, 63, 0
2, 74904, Note_on_c, 0, 61, 84
2, 74928, Note_off_c, 0, 61, 0
2, 74928, Note_on_c, 0, 59, 84
2, 74976, Note_off_c, 0, 59, 0
2, 75000, Note_on_c, 0, 59, 84
2, 75024, Note_off_c, 0, 59, 0
2, 75024, Note_on_c, 0, 64, 84
2, 75048, Note_off_c, 0, 64, 0
2, 75048, Note_on_c, 0, 59, 84
2, 75072, Note_off_c, 0, 59, 0
2, 75072, Note_on_c, 0, 61, 84
2, 75096, Note_off_c, 0, 61, 0
2, 75096, Note_on_c, 0, 64, 84
2, 75120, Note_off_c, 0, 64, 0
2, 75120, Note_on_c, 0, 69, 84
2, 75144, Note_off_c, 0, 69, 0
2, 75144, Note_on_c, 0, 61, 84
2, 75168, Note_off_c, 0, 61, 0
2, 75168, Note_on_c, 0, 63, 84
2, 75192, Note_off_c, 0, 63, 0
2, 75192, Note_on_c, 0, 66, 84
2, 75216, Note_off_c, 0, 66, 0
2, 75216, Note_on_c, 0, 71, 84
2, 75240, Note_off_c, 0, 71, 0
2, 75240, Note_on_c, 0, 63, 84
2, 75264, Note_off_c, 0, 63, 0
2, 75264, Note_on_c, 0, 64, 84
2, 75288, Note_off_c, 0, 64, 0
2, 75288, Note_on_c, 0, 68, 84
2, 75312, Note_off_c, 0, 68, 0
2, 75312, Note_on_c, 0, 73, 84
2, 75336, Note_off_c, 0, 73, 0
2, 75336, Note_on_c, 0, 64, 84
2, 75360, Note_off_c, 0, 64, 0
2, 75360, Note_on_c, 0, 66, 84
2, 75384, Note_off_c, 0, 66, 0
2, 75384, Note_on_c, 0, 71, 84
2, 75408, Note_off_c, 0, 71, 0
2, 75408, Note_on_c, 0, 69, 84
2, 75432, Note_off_c, 0, 69, 0
2, 75432, Note_on_c, 0, 71, 84
2, 75456, Note_off_c, 0, 71, 0
2, 75456, Note_on_c, 0, 68, 84
2, 75480, Note_off_c, 0, 68, 0
2, 75480, Note_on_c, 0, 71, 84
2, 75504, Note_off_c, 0, 71, 0
2, 75504, Note_on_c, 0, 76, 84
2, 75528, Note_off_c, 0, 76, 0
2, 75528, Note_on_c, 0, 68, 84
2, 75552, Note_off_c, 0, 68, 0
2, 75552, Note_on_c, 0, 66, 84
2, 75624, Note_off_c, 0, 66, 0
2, 75624, Note_on_c, 0, 64, 84
2, 75648, Note_off_c, 0, 64, 0
2, 75648, Note_on_c, 0, 64, 84
2, 75696, Note_off_c, 0, 64, 0
2, 76032, Note_on_c, 0, 76, 84
2, 76056, Note_off_c, 0, 76, 0
2, 76056, Note_on_c, 0, 78, 84
2, 76080, Note_off_c, 0, 78, 0
2, 76080, Note_on_c, 0, 80, 84
2, 76104, Note_off_c, 0, 80, 0
2, 76104, Note_on_c, 0, 78, 84
2, 76128, Note_off_c, 0, 78, 0
2, 76128, Note_on_c, 0, 76, 84
2, 76152, Note_off_c, 0, 76, 0
2, 76152, Note_on_c, 0, 78, 84
2, 76176, Note_off_c, 0, 78, 0
2, 76176, Note_on_c, 0, 80, 84
2, 76200, Note_off_c, 0, 80, 0
2, 76200, Note_on_c, 0, 78, 84
2, 76224, Note_off_c, 0, 78, 0
2, 76224, Note_on_c, 0, 76, 84
2, 76248, Note_off_c, 0, 76, 0
2, 76248, Note_on_c, 0, 78, 84
2, 76272, Note_off_c, 0, 78, 0
2, 76272, Note_on_c, 0, 80, 84
2, 76296, Note_off_c, 0, 80, 0
2, 76296, Note_on_c, 0, 78, 84
2, 76320, Note_off_c, 0, 78, 0
2, 76320, Note_on_c, 0, 76, 84
2, 76344, Note_off_c, 0, 76, 0
2, 76344, Note_on_c, 0, 78, 84
2, 76368, Note_off_c, 0, 78, 0
2, 76368, Note_on_c, 0, 80, 84
2, 76392, Note_off_c, 0, 80, 0
2, 76392, Note_on_c, 0, 78, 84
2, 76416, Note_off_c, 0, 78, 0
2, 76416, Note_on_c, 0, 76, 84
2, 76464, Note_off_c, 0, 76, 0
2, 76464, Note_on_c, 0, 68, 84
2, 76488, Note_off_c, 0, 68, 0
2, 76488, Note_on_c, 0, 66, 84
2, 76512, Note_off_c, 0, 66, 0
2, 76512, Note_on_c, 0, 68, 84
2, 76536, Note_off_c, 0, 68, 0
2, 76536, Note_on_c, 0, 66, 84
2, 76560, Note_off_c, 0, 66, 0
2, 76560, Note_on_c, 0, 68, 84
2, 76584, Note_off_c, 0, 68, 0
2, 76584, Note_on_c, 0, 66, 84
2, 76608, Note_off_c, 0, 66, 0
2, 76608, Note_on_c, 0, 68, 84
2, 76686, Note_off_c, 0, 68, 0
2, 76704, Note_on_c, 0, 73, 84
2, 76728, Note_off_c, 0, 73, 0
2, 76728, Note_on_c, 0, 71, 84
2, 76752, Note_off_c, 0, 71, 0
2, 76752, Note_on_c, 0, 64, 84
2, 76788, Note_off_c, 0, 64, 0
2, 76800, Note_on_c, 0, 61, 84
2, 76896, Note_off_c, 0, 61, 0
2, 76896, Note_on_c, 0, 71, 84
2, 76920, Note_off_c, 0, 71, 0
2, 76920, Note_on_c, 0, 69, 84
2, 76944, Note_off_c, 0, 69, 0
2, 76944, Note_on_c, 0, 59, 84
2, 76980, Note_off_c, 0, 59, 0
2, 76992, Note_on_c, 0, 59, 84
2, 77088, Note_off_c, 0, 59, 0
2, 77088, Note_on_c, 0, 61, 84
2, 77112, Note_off_c, 0, 61, 0
2, 77112, Note_on_c, 0, 59, 84
2, 77136, Note_off_c, 0, 59, 0
2, 77136, Note_on_c, 0, 61, 84
2, 77160, Note_off_c, 0, 61, 0
2, 77160, Note_on_c, 0, 56, 84
2, 77184, Note_off_c, 0, 56, 0
2, 77184, Note_on_c, 0, 66, 84
2, 77280, Note_off_c, 0, 66, 0
2, 77328, Note_on_c, 0, 66, 84
2, 77364, Note_off_c, 0, 66, 0
2, 77376, Note_on_c, 0, 64, 84
2, 77472, Note_off_c, 0, 64, 0
2, 77520, Note_on_c, 0, 66, 84
2, 77556, Note_off_c, 0, 66, 0
2, 77568, Note_on_c, 0, 66, 84
2, 77664, Note_off_c, 0, 66, 0
2, 77712, Note_on_c, 0, 74, 84
2, 77748, Note_off_c, 0, 74, 0
2, 77760, Note_on_c, 0, 64, 84
2, 77856, Note_off_c, 0, 64, 0
2, 77856, Note_on_c, 0, 62, 84
2, 77952, Note_off_c, 0, 62, 0
2, 77952, Note_on_c, 0, 62, 84
2, 78000, Note_off_c, 0, 62, 0
2, 78000, Note_on_c, 0, 61, 84
2, 78048, Note_off_c, 0, 61, 0
2, 78048, Note_on_c, 0, 59, 84
2, 78096, Note_off_c, 0, 59, 0
2, 78096, Note_on_c, 0, 62, 84
2, 78144, Note_off_c, 0, 62, 0
2, 78144, Note_on_c, 0, 61, 84
2, 78168, Note_off_c, 0, 61, 0
2, 78168, Note_on_c, 0, 62, 84
2, 78192, Note_off_c, 0, 62, 0
2, 78192, Note_on_c, 0, 64, 84
2, 78216, Note_off_c, 0, 64, 0
2, 78216, Note_on_c, 0, 62, 84
2, 78240, Note_off_c, 0, 62, 0
2, 78240, Note_on_c, 0, 61, 84
2, 78264, Note_off_c, 0, 61, 0
2, 78264, Note_on_c, 0, 62, 84
2, 78288, Note_off_c, 0, 62, 0
2, 78288, Note_on_c, 0, 64, 84
2, 78312, Note_off_c, 0, 64, 0
2, 78312, Note_on_c, 0, 62, 84
2, 78336, Note_off_c, 0, 62, 0
2, 78336, Note_on_c, 0, 69, 84
2, 78360, Note_off_c, 0, 69, 0
2, 78360, Note_on_c, 0, 71, 84
2, 78384, Note_off_c, 0, 71, 0
2, 78384, Note_on_c, 0, 73, 84
2, 78408, Note_off_c, 0, 73, 0
2, 78408, Note_on_c, 0, 71, 84
2, 78432, Note_off_c, 0, 71, 0
2, 78432, Note_on_c, 0, 69, 84
2, 78456, Note_off_c, 0, 69, 0
2, 78456, Note_on_c, 0, 71, 84
2, 78480, Note_off_c, 0, 71, 0
2, 78480, Note_on_c, 0, 73, 84
2, 78504, Note_off_c, 0, 73, 0
2, 78504, Note_on_c, 0, 71, 84
2, 78528, Note_off_c, 0, 71, 0
2, 78528, Note_on_c, 0, 69, 84
2, 78624, Note_off_c, 0, 69, 0
2, 78816, Note_on_c, 0, 78, 84
2, 78840, Note_off_c, 0, 78, 0
2, 78840, Note_on_c, 0, 76, 84
2, 78864, Note_off_c, 0, 76, 0
2, 78864, Note_on_c, 0, 78, 84
2, 78888, Note_off_c, 0, 78, 0
2, 78888, Note_on_c, 0, 73, 84
2, 78912, Note_off_c, 0, 73, 0
2, 78912, Note_on_c, 0, 74, 84
2, 78936, Note_off_c, 0, 74, 0
2, 78936, Note_on_c, 0, 73, 84
2, 78960, Note_off_c, 0, 73, 0
2, 78960, Note_on_c, 0, 74, 84
2, 78984, Note_off_c, 0, 74, 0
2, 78984, Note_on_c, 0, 71, 84
2, 79008, Note_off_c, 0, 71, 0
2, 79008, Note_on_c, 0, 76, 84
2, 79032, Note_off_c, 0, 76, 0
2, 79032, Note_on_c, 0, 74, 84
2, 79056, Note_off_c, 0, 74, 0
2, 79056, Note_on_c, 0, 76, 84
2, 79080, Note_off_c, 0, 76, 0
2, 79080, Note_on_c, 0, 71, 84
2, 79104, Note_off_c, 0, 71, 0
2, 79104, Note_on_c, 0, 73, 84
2, 79128, Note_off_c, 0, 73, 0
2, 79128, Note_on_c, 0, 71, 84
2, 79152, Note_off_c, 0, 71, 0
2, 79152, Note_on_c, 0, 73, 84
2, 79176, Note_off_c, 0, 73, 0
2, 79176, Note_on_c, 0, 69, 84
2, 79200, Note_off_c, 0, 69, 0
2, 79200, Note_on_c, 0, 74, 84
2, 79224, Note_off_c, 0, 74, 0
2, 79224, Note_on_c, 0, 73, 84
2, 79248, Note_off_c, 0, 73, 0
2, 79248, Note_on_c, 0, 74, 84
2, 79272, Note_off_c, 0, 74, 0
2, 79272, Note_on_c, 0, 69, 84
2, 79296, Note_off_c, 0, 69, 0
2, 79296, Note_on_c, 0, 71, 84
2, 79320, Note_off_c, 0, 71, 0
2, 79320, Note_on_c, 0, 69, 84
2, 79344, Note_off_c, 0, 69, 0
2, 79344, Note_on_c, 0, 71, 84
2, 79368, Note_off_c, 0, 71, 0
2, 79368, Note_on_c, 0, 68, 84
2, 79392, Note_off_c, 0, 68, 0
2, 79392, Note_on_c, 0, 73, 84
2, 79416, Note_off_c, 0, 73, 0
2, 79416, Note_on_c, 0, 71, 84
2, 79440, Note_off_c, 0, 71, 0
2, 79440, Note_on_c, 0, 73, 84
2, 79464, Note_off_c, 0, 73, 0
2, 79464, Note_on_c, 0, 68, 84
2, 79488, Note_off_c, 0, 68, 0
2, 79488, Note_on_c, 0, 69, 84
2, 79512, Note_off_c, 0, 69, 0
2, 79512, Note_on_c, 0, 68, 84
2, 79536, Note_off_c, 0, 68, 0
2, 79536, Note_on_c, 0, 69, 84
2, 79560, Note_off_c, 0, 69, 0
2, 79560, Note_on_c, 0, 66, 84
2, 79584, Note_off_c, 0, 66, 0
2, 79584, Note_on_c, 0, 71, 84
2, 79608, Note_off_c, 0, 71, 0
2, 79608, Note_on_c, 0, 69, 84
2, 79632, Note_off_c, 0, 69, 0
2, 79632, Note_on_c, 0, 71, 84
2, 79656, Note_off_c, 0, 71, 0
2, 79656, Note_on_c, 0, 66, 84
2, 79680, Note_off_c, 0, 66, 0
2, 79680, Note_on_c, 0, 68, 84
2, 79704, Note_off_c, 0, 68, 0
2, 79704, Note_on_c, 0, 66, 84
2, 79728, Note_off_c, 0, 66, 0
2, 79728, Note_on_c, 0, 68, 84
2, 79752, Note_off_c, 0, 68, 0
2, 79752, Note_on_c, 0, 64, 84
2, 79776, Note_off_c, 0, 64, 0
2, 79776, Note_on_c, 0, 69, 84
2, 79896, Note_off_c, 0, 69, 0
2, 79896, Note_on_c, 0, 68, 84
2, 79920, Note_off_c, 0, 68, 0
2, 79920, Note_on_c, 0, 69, 84
2, 79944, Note_off_c, 0, 69, 0
2, 79944, Note_on_c, 0, 66, 84
2, 80016, Note_off_c, 0, 66, 0
2, 80016, Note_on_c, 0, 66, 84
2, 80064, Note_off_c, 0, 66, 0
2, 80064, Note_on_c, 0, 68, 84
2, 80160, Note_off_c, 0, 68, 0
2, 80160, Note_on_c, 0, 73, 84
2, 80280, Note_off_c, 0, 73, 0
2, 80280, Note_on_c, 0, 71, 84
2, 80304, Note_off_c, 0, 71, 0
2, 80304, Note_on_c, 0, 73, 84
2, 80328, Note_off_c, 0, 73, 0
2, 80328, Note_on_c, 0, 69, 84
2, 80400, Note_off_c, 0, 69, 0
2, 80400, Note_on_c, 0, 74, 84
2, 80424, Note_off_c, 0, 74, 0
2, 80424, Note_on_c, 0, 73, 84
2, 80448, Note_off_c, 0, 73, 0
2, 80448, Note_on_c, 0, 74, 84
2, 80472, Note_off_c, 0, 74, 0
2, 80472, Note_on_c, 0, 73, 84
2, 80496, Note_off_c, 0, 73, 0
2, 80496, Note_on_c, 0, 71, 84
2, 80520, Note_off_c, 0, 71, 0
2, 80520, Note_on_c, 0, 74, 84
2, 80544, Note_off_c, 0, 74, 0
2, 80544, Note_on_c, 0, 73, 84
2, 80592, Note_off_c, 0, 73, 0
2, 80592, Note_on_c, 0, 71, 84
2, 80616, Note_off_c, 0, 71, 0
2, 80616, Note_on_c, 0, 69, 84
2, 80640, Note_off_c, 0, 69, 0
2, 80640, Note_on_c, 0, 69, 118
2, 80688, Note_off_c, 0, 69, 0
2, 81024, Note_on_c, 0, 69, 118
2, 81072, Note_off_c, 0, 69, 0
2, 81072, Note_on_c, 0, 79, 118
2, 81096, Note_off_c, 0, 79, 0
2, 81096, Note_on_c, 0, 78, 118
2, 81120, Note_off_c, 0, 78, 0
2, 81120, Note_on_c, 0, 69, 118
2, 81168, Note_off_c, 0, 69, 0
2, 81168, Note_on_c, 0, 79, 118
2, 81192, Note_off_c, 0, 79, 0
2, 81192, Note_on_c, 0, 78, 118
2, 81216, Note_off_c, 0, 78, 0
2, 81216, Note_on_c, 0, 69, 118
2, 81264, Note_off_c, 0, 69, 0
2, 81264, Note_on_c, 0, 79, 118
2, 81288, Note_off_c, 0, 79, 0
2, 81288, Note_on_c, 0, 78, 118
2, 81312, Note_off_c, 0, 78, 0
2, 81312, Note_on_c, 0, 69, 118
2, 81360, Note_off_c, 0, 69, 0
2, 81360, Note_on_c, 0, 79, 118
2, 81384, Note_off_c, 0, 79, 0
2, 81384, Note_on_c, 0, 78, 118
2, 81408, Note_off_c, 0, 78, 0
2, 81408, Note_on_c, 0, 69, 118
2, 81504, Note_off_c, 0, 69, 0
2, 81792, Note_on_c, 0, 69, 118
2, 81840, Note_off_c, 0, 69, 0
2, 81840, Note_on_c, 0, 76, 118
2, 81864, Note_off_c, 0, 76, 0
2, 81864, Note_on_c, 0, 74, 118
2, 81888, Note_off_c, 0, 74, 0
2, 81888, Note_on_c, 0, 69, 118
2, 81936, Note_off_c, 0, 69, 0
2, 81936, Note_on_c, 0, 76, 118
2, 81960, Note_off_c, 0, 76, 0
2, 81960, Note_on_c, 0, 74, 118
2, 81984, Note_off_c, 0, 74, 0
2, 81984, Note_on_c, 0, 69, 118
2, 82032, Note_off_c, 0, 69, 0
2, 82032, Note_on_c, 0, 76, 118
2, 82056, Note_off_c, 0, 76, 0
2, 82056, Note_on_c, 0, 74, 118
2, 82080, Note_off_c, 0, 74, 0
2, 82080, Note_on_c, 0, 69, 118
2, 82128, Note_off_c, 0, 69, 0
2, 82128, Note_on_c, 0, 76, 118
2, 82152, Note_off_c, 0, 76, 0
2, 82152, Note_on_c, 0, 74, 118
2, 82176, Note_off_c, 0, 74, 0
2, 82176, Note_on_c, 0, 69, 118
2, 82224, Note_off_c, 0, 69, 0
2, 82224, Note_on_c, 0, 73, 118
2, 82248, Note_off_c, 0, 73, 0
2, 82248, Note_on_c, 0, 69, 118
2, 82272, Note_off_c, 0, 69, 0
2, 82272, Note_on_c, 0, 74, 118
2, 82296, Note_off_c, 0, 74, 0
2, 82296, Note_on_c, 0, 76, 118
2, 82320, Note_off_c, 0, 76, 0
2, 82320, Note_on_c, 0, 78, 118
2, 82344, Note_off_c, 0, 78, 0
2, 82344, Note_on_c, 0, 76, 118
2, 82368, Note_off_c, 0, 76, 0
2, 82368, Note_on_c, 0, 74, 118
2, 82392, Note_off_c, 0, 74, 0
2, 82392, Note_on_c, 0, 73, 118
2, 82416, Note_off_c, 0, 73, 0
2, 82416, Note_on_c, 0, 74, 118
2, 82440, Note_off_c, 0, 74, 0
2, 82440, Note_on_c, 0, 71, 118
2, 82464, Note_off_c, 0, 71, 0
2, 82464, Note_on_c, 0, 76, 118
2, 82488, Note_off_c, 0, 76, 0
2, 82488, Note_on_c, 0, 78, 118
2, 82512, Note_off_c, 0, 78, 0
2, 82512, Note_on_c, 0, 79, 118
2, 82536, Note_off_c, 0, 79, 0
2, 82536, Note_on_c, 0, 78, 118
2, 82560, Note_off_c, 0, 78, 0
2, 82560, Note_on_c, 0, 76, 118
2, 82584, Note_off_c, 0, 76, 0
2, 82584, Note_on_c, 0, 74, 118
2, 82608, Note_off_c, 0, 74, 0
2, 82608, Note_on_c, 0, 76, 118
2, 82632, Note_off_c, 0, 76, 0
2, 82632, Note_on_c, 0, 73, 118
2, 82656, Note_off_c, 0, 73, 0
2, 82656, Note_on_c, 0, 74, 118
2, 82680, Note_off_c, 0, 74, 0
2, 82680, Note_on_c, 0, 76, 118
2, 82704, Note_off_c, 0, 76, 0
2, 82704, Note_on_c, 0, 78, 118
2, 82728, Note_off_c, 0, 78, 0
2, 82728, Note_on_c, 0, 76, 118
2, 82752, Note_off_c, 0, 76, 0
2, 82752, Note_on_c, 0, 74, 118
2, 82776, Note_off_c, 0, 74, 0
2, 82776, Note_on_c, 0, 73, 118
2, 82800, Note_off_c, 0, 73, 0
2, 82800, Note_on_c, 0, 74, 118
2, 82824, Note_off_c, 0, 74, 0
2, 82824, Note_on_c, 0, 71, 118
2, 82848, Note_off_c, 0, 71, 0
2, 82848, Note_on_c, 0, 76, 118
2, 82872, Note_off_c, 0, 76, 0
2, 82872, Note_on_c, 0, 78, 118
2, 82896, Note_off_c, 0, 78, 0
2, 82896, Note_on_c, 0, 79, 118
2, 82920, Note_off_c, 0, 79, 0
2, 82920, Note_on_c, 0, 78, 118
2, 82944, Note_off_c, 0, 78, 0
2, 82944, Note_on_c, 0, 76, 118
2, 82968, Note_off_c, 0, 76, 0
2, 82968, Note_on_c, 0, 74, 118
2, 82992, Note_off_c, 0, 74, 0
2, 82992, Note_on_c, 0, 76, 118
2, 83016, Note_off_c, 0, 76, 0
2, 83016, Note_on_c, 0, 73, 118
2, 83040, Note_off_c, 0, 73, 0
2, 83040, Note_on_c, 0, 78, 118
2, 83064, Note_off_c, 0, 78, 0
2, 83064, Note_on_c, 0, 79, 118
2, 83088, Note_off_c, 0, 79, 0
2, 83088, Note_on_c, 0, 81, 118
2, 83112, Note_off_c, 0, 81, 0
2, 83112, Note_on_c, 0, 79, 118
2, 83136, Note_off_c, 0, 79, 0
2, 83136, Note_on_c, 0, 78, 118
2, 83160, Note_off_c, 0, 78, 0
2, 83160, Note_on_c, 0, 76, 118
2, 83184, Note_off_c, 0, 76, 0
2, 83184, Note_on_c, 0, 78, 118
2, 83208, Note_off_c, 0, 78, 0
2, 83208, Note_on_c, 0, 74, 118
2, 83232, Note_off_c, 0, 74, 0
2, 83232, Note_on_c, 0, 79, 118
2, 83256, Note_off_c, 0, 79, 0
2, 83256, Note_on_c, 0, 81, 118
2, 83280, Note_off_c, 0, 81, 0
2, 83280, Note_on_c, 0, 83, 118
2, 83304, Note_off_c, 0, 83, 0
2, 83304, Note_on_c, 0, 81, 118
2, 83328, Note_off_c, 0, 81, 0
2, 83328, Note_on_c, 0, 79, 118
2, 83352, Note_off_c, 0, 79, 0
2, 83352, Note_on_c, 0, 78, 118
2, 83376, Note_off_c, 0, 78, 0
2, 83376, Note_on_c, 0, 79, 118
2, 83400, Note_off_c, 0, 79, 0
2, 83400, Note_on_c, 0, 76, 118
2, 83424, Note_off_c, 0, 76, 0
2, 83424, Note_on_c, 0, 78, 118
2, 83448, Note_off_c, 0, 78, 0
2, 83448, Note_on_c, 0, 79, 118
2, 83472, Note_off_c, 0, 79, 0
2, 83472, Note_on_c, 0, 81, 118
2, 83496, Note_off_c, 0, 81, 0
2, 83496, Note_on_c, 0, 79, 118
2, 83520, Note_off_c, 0, 79, 0
2, 83520, Note_on_c, 0, 78, 118
2, 83544, Note_off_c, 0, 78, 0
2, 83544, Note_on_c, 0, 76, 118
2, 83568, Note_off_c, 0, 76, 0
2, 83568, Note_on_c, 0, 78, 118
2, 83592, Note_off_c, 0, 78, 0
2, 83592, Note_on_c, 0, 74, 118
2, 83616, Note_off_c, 0, 74, 0
2, 83616, Note_on_c, 0, 79, 118
2, 83640, Note_off_c, 0, 79, 0
2, 83640, Note_on_c, 0, 81, 118
2, 83664, Note_off_c, 0, 81, 0
2, 83664, Note_on_c, 0, 83, 118
2, 83688, Note_off_c, 0, 83, 0
2, 83688, Note_on_c, 0, 81, 118
2, 83712, Note_off_c, 0, 81, 0
2, 83712, Note_on_c, 0, 79, 118
2, 83736, Note_off_c, 0, 79, 0
2, 83736, Note_on_c, 0, 78, 118
2, 83760, Note_off_c, 0, 78, 0
2, 83760, Note_on_c, 0, 79, 118
2, 83784, Note_off_c, 0, 79, 0
2, 83784, Note_on_c, 0, 76, 118
2, 83808, Note_off_c, 0, 76, 0
2, 83808, Note_on_c, 0, 78, 118
2, 83832, Note_off_c, 0, 78, 0
2, 83832, Note_on_c, 0, 76, 118
2, 83856, Note_off_c, 0, 76, 0
2, 83856, Note_on_c, 0, 74, 118
2, 83880, Note_off_c, 0, 74, 0
2, 83880, Note_on_c, 0, 76, 118
2, 83904, Note_off_c, 0, 76, 0
2, 83904, Note_on_c, 0, 69, 118
2, 84000, Note_off_c, 0, 69, 0
2, 84000, Note_on_c, 0, 69, 118
2, 84048, Note_off_c, 0, 69, 0
2, 84048, Note_on_c, 0, 69, 118
2, 84096, Note_off_c, 0, 69, 0
2, 84096, Note_on_c, 0, 69, 118
2, 84192, Note_off_c, 0, 69, 0
2, 84192, Note_on_c, 0, 69, 118
2, 84240, Note_off_c, 0, 69, 0
2, 84240, Note_on_c, 0, 69, 118
2, 84288, Note_off_c, 0, 69, 0
2, 84288, Note_on_c, 0, 69, 118
2, 84384, Note_off_c, 0, 69, 0
2, 84384, Note_on_c, 0, 69, 118
2, 84432, Note_off_c, 0, 69, 0
2, 84432, Note_on_c, 0, 69, 118
2, 84480, Note_off_c, 0, 69, 0
2, 84480, Note_on_c, 0, 74, 118
2, 84576, Note_off_c, 0, 74, 0
2, 84576, Note_on_c, 0, 69, 118
2, 84624, Note_off_c, 0, 69, 0
2, 84624, Note_on_c, 0, 76, 118
2, 84648, Note_off_c, 0, 76, 0
2, 84648, Note_on_c, 0, 74, 118
2, 84672, Note_off_c, 0, 74, 0
2, 84672, Note_on_c, 0, 76, 118
2, 84768, Note_off_c, 0, 76, 0
2, 84768, Note_on_c, 0, 69, 118
2, 84816, Note_off_c, 0, 69, 0
2, 84816, Note_on_c, 0, 74, 118
2, 84840, Note_off_c, 0, 74, 0
2, 84840, Note_on_c, 0, 73, 118
2, 84864, Note_off_c, 0, 73, 0
2, 84864, Note_on_c, 0, 74, 118
2, 84960, Note_off_c, 0, 74, 0
2, 84960, Note_on_c, 0, 68, 118
2, 85008, Note_off_c, 0, 68, 0
2, 85008, Note_on_c, 0, 73, 118
2, 85032, Note_off_c, 0, 73, 0
2, 85032, Note_on_c, 0, 71, 118
2, 85056, Note_off_c, 0, 71, 0
2, 85056, Note_on_c, 0, 73, 118
2, 85080, Note_off_c, 0, 73, 0
2, 85080, Note_on_c, 0, 74, 118
2, 85104, Note_off_c, 0, 74, 0
2, 85104, Note_on_c, 0, 76, 118
2, 85128, Note_off_c, 0, 76, 0
2, 85128, Note_on_c, 0, 74, 118
2, 85152, Note_off_c, 0, 74, 0
2, 85152, Note_on_c, 0, 73, 118
2, 85176, Note_off_c, 0, 73, 0
2, 85176, Note_on_c, 0, 74, 118
2, 85200, Note_off_c, 0, 74, 0
2, 85200, Note_on_c, 0, 76, 118
2, 85224, Note_off_c, 0, 76, 0
2, 85224, Note_on_c, 0, 74, 118
2, 85248, Note_off_c, 0, 74, 0
2, 85248, Note_on_c, 0, 73, 118
2, 85272, Note_off_c, 0, 73, 0
2, 85272, Note_on_c, 0, 74, 118
2, 85296, Note_off_c, 0, 74, 0
2, 85296, Note_on_c, 0, 76, 118
2, 85320, Note_off_c, 0, 76, 0
2, 85320, Note_on_c, 0, 74, 118
2, 85344, Note_off_c, 0, 74, 0
2, 85344, Note_on_c, 0, 73, 118
2, 85368, Note_off_c, 0, 73, 0
2, 85368, Note_on_c, 0, 74, 118
2, 85392, Note_off_c, 0, 74, 0
2, 85392, Note_on_c, 0, 76, 118
2, 85416, Note_off_c, 0, 76, 0
2, 85416, Note_on_c, 0, 74, 118
2, 85440, Note_off_c, 0, 74, 0
2, 85440, Note_on_c, 0, 73, 118
2, 85464, Note_off_c, 0, 73, 0
2, 85464, Note_on_c, 0, 74, 118
2, 85488, Note_off_c, 0, 74, 0
2, 85488, Note_on_c, 0, 76, 118
2, 85512, Note_off_c, 0, 76, 0
2, 85512, Note_on_c, 0, 74, 118
2, 85536, Note_off_c, 0, 74, 0
2, 85536, Note_on_c, 0, 73, 118
2, 85560, Note_off_c, 0, 73, 0
2, 85560, Note_on_c, 0, 74, 118
2, 85584, Note_off_c, 0, 74, 0
2, 85584, Note_on_c, 0, 76, 118
2, 85608, Note_off_c, 0, 76, 0
2, 85608, Note_on_c, 0, 74, 118
2, 85632, Note_off_c, 0, 74, 0
2, 85632, Note_on_c, 0, 73, 118
2, 85656, Note_off_c, 0, 73, 0
2, 85656, Note_on_c, 0, 74, 118
2, 85680, Note_off_c, 0, 74, 0
2, 85680, Note_on_c, 0, 76, 118
2, 85704, Note_off_c, 0, 76, 0
2, 85704, Note_on_c, 0, 74, 118
2, 85728, Note_off_c, 0, 74, 0
2, 85728, Note_on_c, 0, 73, 118
2, 85752, Note_off_c, 0, 73, 0
2, 85752, Note_on_c, 0, 74, 118
2, 85776, Note_off_c, 0, 74, 0
2, 85776, Note_on_c, 0, 76, 118
2, 85800, Note_off_c, 0, 76, 0
2, 85800, Note_on_c, 0, 73, 118
2, 85824, Note_off_c, 0, 73, 0
2, 85824, Note_on_c, 0, 74, 118
2, 85848, Note_off_c, 0, 74, 0
2, 85848, Note_on_c, 0, 76, 118
2, 85872, Note_off_c, 0, 76, 0
2, 85872, Note_on_c, 0, 78, 118
2, 85896, Note_off_c, 0, 78, 0
2, 85896, Note_on_c, 0, 76, 118
2, 85920, Note_off_c, 0, 76, 0
2, 85920, Note_on_c, 0, 74, 118
2, 85944, Note_off_c, 0, 74, 0
2, 85944, Note_on_c, 0, 76, 118
2, 85968, Note_off_c, 0, 76, 0
2, 85968, Note_on_c, 0, 78, 118
2, 85992, Note_off_c, 0, 78, 0
2, 85992, Note_on_c, 0, 76, 118
2, 86016, Note_off_c, 0, 76, 0
2, 86016, Note_on_c, 0, 74, 118
2, 86040, Note_off_c, 0, 74, 0
2, 86040, Note_on_c, 0, 78, 118
2, 86064, Note_off_c, 0, 78, 0
2, 86064, Note_on_c, 0, 74, 118
2, 86088, Note_off_c, 0, 74, 0
2, 86088, Note_on_c, 0, 69, 118
2, 86112, Note_off_c, 0, 69, 0
2, 86112, Note_on_c, 0, 66, 118
2, 86136, Note_off_c, 0, 66, 0
2, 86136, Note_on_c, 0, 69, 118
2, 86160, Note_off_c, 0, 69, 0
2, 86160, Note_on_c, 0, 66, 118
2, 86184, Note_off_c, 0, 66, 0
2, 86184, Note_on_c, 0, 62, 118
2, 86208, Note_off_c, 0, 62, 0
2, 86208, Note_on_c, 0, 69, 118
2, 86232, Note_off_c, 0, 69, 0
2, 86232, Note_on_c, 0, 74, 118
2, 86256, Note_off_c, 0, 74, 0
2, 86256, Note_on_c, 0, 69, 118
2, 86280, Note_off_c, 0, 69, 0
2, 86280, Note_on_c, 0, 66, 118
2, 86304, Note_off_c, 0, 66, 0
2, 86304, Note_on_c, 0, 62, 118
2, 86328, Note_off_c, 0, 62, 0
2, 86328, Note_on_c, 0, 66, 118
2, 86352, Note_off_c, 0, 66, 0
2, 86352, Note_on_c, 0, 62, 118
2, 86376, Note_off_c, 0, 62, 0
2, 86376, Note_on_c, 0, 57, 118
2, 86400, Note_off_c, 0, 57, 0
2, 86400, Note_on_c, 0, 66, 118
2, 86424, Note_off_c, 0, 66, 0
2, 86424, Note_on_c, 0, 69, 118
2, 86448, Note_off_c, 0, 69, 0
2, 86448, Note_on_c, 0, 66, 118
2, 86472, Note_off_c, 0, 66, 0
2, 86472, Note_on_c, 0, 62, 118
2, 86496, Note_off_c, 0, 62, 0
2, 86592, Note_on_c, 0, 62, 118
2, 86616, Note_off_c, 0, 62, 0
2, 86616, Note_on_c, 0, 66, 118
2, 86640, Note_off_c, 0, 66, 0
2, 86640, Note_on_c, 0, 62, 118
2, 86664, Note_off_c, 0, 62, 0
2, 86664, Note_on_c, 0, 57, 118
2, 86688, Note_off_c, 0, 57, 0
2, 87216, Note_on_c, 0, 81, 118
2, 87264, Note_off_c, 0, 81, 0
2, 87264, Note_on_c, 0, 81, 118
2, 87312, Note_off_c, 0, 81, 0
2, 87312, Note_on_c, 0, 81, 118
2, 87360, Note_off_c, 0, 81, 0
2, 87360, Note_on_c, 0, 81, 118
2, 87408, Note_off_c, 0, 81, 0
2, 87504, Note_on_c, 0, 78, 118
2, 87540, Note_off_c, 0, 78, 0
2, 87552, Note_on_c, 0, 76, 118
2, 87648, Note_off_c, 0, 76, 0
2, 87696, Note_on_c, 0, 76, 118
2, 87732, Note_off_c, 0, 76, 0
2, 87744, Note_on_c, 0, 74, 118
2, 87840, Note_off_c, 0, 74, 0
2, 87888, Note_on_c, 0, 74, 118
2, 87924, Note_off_c, 0, 74, 0
2, 87936, Note_on_c, 0, 73, 118
2, 88032, Note_off_c, 0, 73, 0
2, 88080, Note_on_c, 0, 73, 118
2, 88116, Note_off_c, 0, 73, 0
2, 88128, Note_on_c, 0, 71, 118
2, 88224, Note_off_c, 0, 71, 0
2, 88272, Note_on_c, 0, 71, 118
2, 88308, Note_off_c, 0, 71, 0
2, 88320, Note_on_c, 0, 69, 118
2, 88440, Note_off_c, 0, 69, 0
2, 88440, Note_on_c, 0, 71, 118
2, 88464, Note_off_c, 0, 71, 0
2, 88464, Note_on_c, 0, 69, 118
2, 88488, Note_off_c, 0, 69, 0
2, 88488, Note_on_c, 0, 71, 118
2, 88512, Note_off_c, 0, 71, 0
2, 88512, Note_on_c, 0, 67, 118
2, 88632, Note_off_c, 0, 67, 0
2, 88632, Note_on_c, 0, 69, 118
2, 88656, Note_off_c, 0, 69, 0
2, 88656, Note_on_c, 0, 67, 118
2, 88680, Note_off_c, 0, 67, 0
2, 88680, Note_on_c, 0, 69, 118
2, 88704, Note_off_c, 0, 69, 0
2, 88704, Note_on_c, 0, 66, 118
2, 88800, Note_off_c, 0, 66, 0
2, 88848, Note_on_c, 0, 66, 118
2, 88884, Note_off_c, 0, 66, 0
2, 88896, Note_on_c, 0, 64, 118
2, 88992, Note_off_c, 0, 64, 0
2, 89040, Note_on_c, 0, 64, 118
2, 89076, Note_off_c, 0, 64, 0
2, 89088, Note_on_c, 0, 62, 118
2, 89184, Note_off_c, 0, 62, 0
2, 89232, Note_on_c, 0, 62, 118
2, 89268, Note_off_c, 0, 62, 0
2, 89280, Note_on_c, 0, 61, 118
2, 89376, Note_off_c, 0, 61, 0
2, 89424, Note_on_c, 0, 61, 118
2, 89460, Note_off_c, 0, 61, 0
2, 89472, Note_on_c, 0, 59, 118
2, 89568, Note_off_c, 0, 59, 0
2, 89856, Note_on_c, 0, 66, 118
2, 89880, Note_off_c, 0, 66, 0
2, 89880, Note_on_c, 0, 62, 118
2, 89904, Note_off_c, 0, 62, 0
2, 89904, Note_on_c, 0, 69, 118
2, 89928, Note_off_c, 0, 69, 0
2, 89928, Note_on_c, 0, 66, 118
2, 89952, Note_off_c, 0, 66, 0
2, 89952, Note_on_c, 0, 74, 118
2, 89976, Note_off_c, 0, 74, 0
2, 89976, Note_on_c, 0, 69, 118
2, 90000, Note_off_c, 0, 69, 0
2, 90000, Note_on_c, 0, 78, 118
2, 90024, Note_off_c, 0, 78, 0
2, 90024, Note_on_c, 0, 74, 118
2, 90048, Note_off_c, 0, 74, 0
2, 90048, Note_on_c, 0, 81, 118
2, 90144, Note_off_c, 0, 81, 0
2, 90264, Note_on_c, 0, 81, 118
2, 90288, Note_off_c, 0, 81, 0
2, 90288, Note_on_c, 0, 78, 118
2, 90312, Note_off_c, 0, 78, 0
2, 90312, Note_on_c, 0, 74, 118
2, 90336, Note_off_c, 0, 74, 0
2, 90336, Note_on_c, 0, 69, 118
2, 90360, Note_off_c, 0, 69, 0
2, 90360, Note_on_c, 0, 74, 118
2, 90384, Note_off_c, 0, 74, 0
2, 90384, Note_on_c, 0, 69, 118
2, 90408, Note_off_c, 0, 69, 0
2, 90408, Note_on_c, 0, 66, 118
2, 90432, Note_off_c, 0, 66, 0
2, 90432, Note_on_c, 0, 62, 118
2, 90456, Note_off_c, 0, 62, 0
2, 90456, Note_on_c, 0, 74, 118
2, 90480, Note_off_c, 0, 74, 0
2, 90480, Note_on_c, 0, 69, 118
2, 90504, Note_off_c, 0, 69, 0
2, 90504, Note_on_c, 0, 66, 118
2, 90528, Note_off_c, 0, 66, 0
2, 90528, Note_on_c, 0, 62, 118
2, 90552, Note_off_c, 0, 62, 0
2, 90552, Note_on_c, 0, 69, 118
2, 90576, Note_off_c, 0, 69, 0
2, 90576, Note_on_c, 0, 66, 118
2, 90600, Note_off_c, 0, 66, 0
2, 90600, Note_on_c, 0, 62, 118
2, 90624, Note_off_c, 0, 62, 0
2, 90624, Note_on_c, 0, 57, 118
2, 90672, Note_off_c, 0, 57, 0
2, 93120, Note_on_c, 0, 74, 118
2, 93144, Note_off_c, 0, 74, 0
2, 93144, Note_on_c, 0, 76, 118
2, 93168, Note_off_c, 0, 76, 0
2, 93168, Note_on_c, 0, 78, 118
2, 93192, Note_off_c, 0, 78, 0
2, 93192, Note_on_c, 0, 76, 118
2, 93216, Note_off_c, 0, 76, 0
2, 93216, Note_on_c, 0, 74, 118
2, 93240, Note_off_c, 0, 74, 0
2, 93240, Note_on_c, 0, 76, 118
2, 93264, Note_off_c, 0, 76, 0
2, 93264, Note_on_c, 0, 78, 118
2, 93288, Note_off_c, 0, 78, 0
2, 93288, Note_on_c, 0, 76, 118
2, 93312, Note_off_c, 0, 76, 0
2, 93312, Note_on_c, 0, 74, 118
2, 93360, Note_off_c, 0, 74, 0
2, 93504, Note_on_c, 0, 69, 118
2, 93552, Note_off_c, 0, 69, 0
2, 93552, Note_on_c, 0, 69, 118
2, 93600, Note_off_c, 0, 69, 0
2, 93600, Note_on_c, 0, 69, 118
2, 93648, Note_off_c, 0, 69, 0
2, 93648, Note_on_c, 0, 69, 118
2, 93696, Note_off_c, 0, 69, 0
2, 93696, Note_on_c, 0, 74, 118
2, 93744, Note_off_c, 0, 74, 0
2, 93792, Note_on_c, 0, 74, 118
2, 93816, Note_off_c, 0, 74, 0
2, 93816, Note_on_c, 0, 76, 118
2, 93840, Note_off_c, 0, 76, 0
2, 93840, Note_on_c, 0, 78, 118
2, 93864, Note_off_c, 0, 78, 0
2, 93864, Note_on_c, 0, 76, 118
2, 93888, Note_off_c, 0, 76, 0
2, 93888, Note_on_c, 0, 74, 118
2, 93936, Note_off_c, 0, 74, 0
2, 93936, End_track
3, 0, Start_track
3, 0, Title_t, "Track3"
3, 0, Program_c, 1, 19
3, 0, Control_c, 1, 7, 100
3, 0, Control_c, 1, 10, 64
3, 312, Note_on_c, 1, 62, 101
3, 336, Note_off_c, 1, 62, 0
3, 336, Note_on_c, 1, 66, 101
3, 384, Note_off_c, 1, 66, 0
3, 384, Note_on_c, 1, 66, 101
3, 432, Note_off_c, 1, 66, 0
3, 1032, Note_on_c, 1, 54, 101
3, 1056, Note_off_c, 1, 54, 0
3, 1056, Note_on_c, 1, 57, 101
3, 1104, Note_off_c, 1, 57, 0
3, 1104, Note_on_c, 1, 54, 101
3, 1152, Note_off_c, 1, 54, 0
3, 1152, Note_on_c, 1, 50, 101
3, 1200, Note_off_c, 1, 50, 0
3, 1464, Note_on_c, 1, 62, 101
3, 1488, Note_off_c, 1, 62, 0
3, 1488, Note_on_c, 1, 66, 101
3, 1536, Note_off_c, 1, 66, 0
3, 1536, Note_on_c, 1, 66, 101
3, 1632, Note_off_c, 1, 66, 0
3, 2304, Note_on_c, 1, 57, 101
3, 2328, Note_off_c, 1, 57, 0
3, 2328, Note_on_c, 1, 52, 101
3, 2352, Note_off_c, 1, 52, 0
3, 2352, Note_on_c, 1, 54, 101
3, 2376, Note_off_c, 1, 54, 0
3, 2376, Note_on_c, 1, 56, 101
3, 2400, Note_off_c, 1, 56, 0
3, 2400, Note_on_c, 1, 57, 101
3, 2424, Note_off_c, 1, 57, 0
3, 2424, Note_on_c, 1, 50, 101
3, 2448, Note_off_c, 1, 50, 0
3, 2448, Note_on_c, 1, 49, 101
3, 2472, Note_off_c, 1, 49, 0
3, 2472, Note_on_c, 1, 47, 101
3, 2496, Note_off_c, 1, 47, 0
3, 2496, Note_on_c, 1, 49, 101
3, 2520, Note_off_c, 1, 49, 0
3, 2520, Note_on_c, 1, 52, 101
3, 2544, Note_off_c, 1, 52, 0
3, 2544, Note_on_c, 1, 54, 101
3, 2568, Note_off_c, 1, 54, 0
3, 2568, Note_on_c, 1, 56, 101
3, 2592, Note_off_c, 1, 56, 0
3, 2592, Note_on_c, 1, 57, 101
3, 2616, Note_off_c, 1, 57, 0
3, 2616, Note_on_c, 1, 49, 101
3, 2640, Note_off_c, 1, 49, 0
3, 2640, Note_on_c, 1, 50, 101
3, 2664, Note_off_c, 1, 50, 0
3, 2664, Note_on_c, 1, 47, 101
3, 2688, Note_off_c, 1, 47, 0
3, 2688, Note_on_c, 1, 49, 101
3, 2712, Note_off_c, 1, 49, 0
3, 2712, Note_on_c, 1, 52, 101
3, 2736, Note_off_c, 1, 52, 0
3, 2736, Note_on_c, 1, 54, 101
3, 2760, Note_off_c, 1, 54, 0
3, 2760, Note_on_c, 1, 56, 101
3, 2784, Note_off_c, 1, 56, 0
3, 2784, Note_on_c, 1, 57, 101
3, 2808, Note_off_c, 1, 57, 0
3, 2808, Note_on_c, 1, 62, 101
3, 2832, Note_off_c, 1, 62, 0
3, 2832, Note_on_c, 1, 61, 101
3, 2856, Note_off_c, 1, 61, 0
3, 2856, Note_on_c, 1, 59, 101
3, 2880, Note_off_c, 1, 59, 0
3, 2880, Note_on_c, 1, 61, 101
3, 2928, Note_off_c, 1, 61, 0
3, 2928, Note_on_c, 1, 62, 101
3, 2952, Note_off_c, 1, 62, 0
3, 2952, Note_on_c, 1, 59, 101
3, 2976, Note_off_c, 1, 59, 0
3, 2976, Note_on_c, 1, 61, 101
3, 3000, Note_off_c, 1, 61, 0
3, 3000, Note_on_c, 1, 57, 101
3, 3024, Note_off_c, 1, 57, 0
3, 3024, Note_on_c, 1, 59, 101
3, 3048, Note_off_c, 1, 59, 0
3, 3048, Note_on_c, 1, 52, 101
3, 3072, Note_off_c, 1, 52, 0
3, 3072, Note_on_c, 1, 57, 101
3, 3096, Note_off_c, 1, 57, 0
3, 3096, Note_on_c, 1, 52, 101
3, 3120, Note_off_c, 1, 52, 0
3, 3120, Note_on_c, 1, 45, 101
3, 3168, Note_off_c, 1, 45, 0
3, 3840, Note_on_c, 1, 62, 101
3, 4104, Note_off_c, 1, 62, 0
3, 4104, Note_on_c, 1, 61, 101
3, 4128, Note_off_c, 1, 61, 0
3, 4128, Note_on_c, 1, 59, 101
3, 4200, Note_off_c, 1, 59, 0
3, 4200, Note_on_c, 1, 57, 101
3, 4224, Note_off_c, 1, 57, 0
3, 4224, Note_on_c, 1, 56, 101
3, 4416, Note_off_c, 1, 56, 0
3, 4488, Note_on_c, 1, 62, 101
3, 4512, Note_off_c, 1, 62, 0
3, 4512, Note_on_c, 1, 59, 101
3, 4584, Note_off_c, 1, 59, 0
3, 4584, Note_on_c, 1, 62, 101
3, 4608, Note_off_c, 1, 62, 0
3, 4608, Note_on_c, 1, 56, 101
3, 4680, Note_off_c, 1, 56, 0
3, 4680, Note_on_c, 1, 62, 101
3, 4704, Note_off_c, 1, 62, 0
3, 4704, Note_on_c, 1, 59, 101
3, 4776, Note_off_c, 1, 59, 0
3, 4776, Note_on_c, 1, 62, 101
3, 4800, Note_off_c, 1, 62, 0
3, 4800, Note_on_c, 1, 53, 101
3, 4812, Note_off_c, 1, 53, 0
3, 4812, Note_on_c, 1, 49, 101
3, 4824, Note_off_c, 1, 49, 0
3, 4824, Note_on_c, 1, 53, 101
3, 4836, Note_off_c, 1, 53, 0
3, 4836, Note_on_c, 1, 49, 101
3, 4848, Note_off_c, 1, 49, 0
3, 4848, Note_on_c, 1, 53, 101
3, 4860, Note_off_c, 1, 53, 0
3, 4860, Note_on_c, 1, 49, 101
3, 4872, Note_off_c, 1, 49, 0
3, 4872, Note_on_c, 1, 53, 101
3, 4884, Note_off_c, 1, 53, 0
3, 4884, Note_on_c, 1, 49, 101
3, 4896, Note_off_c, 1, 49, 0
3, 4896, Note_on_c, 1, 53, 101
3, 4908, Note_off_c, 1, 53, 0
3, 4908, Note_on_c, 1, 49, 101
3, 4920, Note_off_c, 1, 49, 0
3, 4920, Note_on_c, 1, 53, 101
3, 4932, Note_off_c, 1, 53, 0
3, 4932, Note_on_c, 1, 49, 101
3, 4944, Note_off_c, 1, 49, 0
3, 4944, Note_on_c, 1, 53, 101
3, 4956, Note_off_c, 1, 53, 0
3, 4956, Note_on_c, 1, 49, 101
3, 4968, Note_off_c, 1, 49, 0
3, 4968, Note_on_c, 1, 53, 101
3, 4980, Note_off_c, 1, 53, 0
3, 4980, Note_on_c, 1, 49, 101
3, 4992, Note_off_c, 1, 49, 0
3, 4992, Note_on_c, 1, 54, 101
3, 5472, Note_off_c, 1, 54, 0
3, 5568, Note_on_c, 1, 50, 101
3, 5580, Note_off_c, 1, 50, 0
3, 5580, Note_on_c, 1, 52, 101
3, 5592, Note_off_c, 1, 52, 0
3, 5592, Note_on_c, 1, 54, 101
3, 5604, Note_off_c, 1, 54, 0
3, 5604, Note_on_c, 1, 55, 101
3, 5616, Note_off_c, 1, 55, 0
3, 5616, Note_on_c, 1, 57, 101
3, 5628, Note_off_c, 1, 57, 0
3, 5628, Note_on_c, 1, 59, 101
3, 5640, Note_off_c, 1, 59, 0
3, 5640, Note_on_c, 1, 61, 101
3, 5652, Note_off_c, 1, 61, 0
3, 5652, Note_on_c, 1, 62, 101
3, 5664, Note_off_c, 1, 62, 0
3, 5760, Note_on_c, 1, 50, 101
3, 5952, Note_off_c, 1, 50, 0
3, 6048, Note_on_c, 1, 62, 84
3, 6144, Note_off_c, 1, 62, 0
3, 6144, Note_on_c, 1, 62, 84
3, 6288, Note_off_c, 1, 62, 0
3, 6288, Note_on_c, 1, 62, 84
3, 6336, Note_off_c, 1, 62, 0
3, 6336, Note_on_c, 1, 61, 84
3, 6432, Note_off_c, 1, 61, 0
3, 6432, Note_on_c, 1, 62, 84
3, 6624, Note_off_c, 1, 62, 0
3, 6624, Note_on_c, 1, 61, 84
3, 6720, Note_off_c, 1, 61, 0
3, 6720, Note_on_c, 1, 62, 84
3, 6816, Note_off_c, 1, 62, 0
3, 6816, Note_on_c, 1, 66, 84
3, 6912, Note_off_c, 1, 66, 0
3, 6912, Note_on_c, 1, 64, 84
3, 7056, Note_off_c, 1, 64, 0
3, 7056, Note_on_c, 1, 64, 84
3, 7104, Note_off_c, 1, 64, 0
3, 7104, Note_on_c, 1, 66, 84
3, 7200, Note_off_c, 1, 66, 0
3, 7200, Note_on_c, 1, 62, 84
3, 7296, Note_off_c, 1, 62, 0
3, 7296, Note_on_c, 1, 64, 84
3, 7392, Note_off_c, 1, 64, 0
3, 7392, Note_on_c, 1, 62, 84
3, 7584, Note_off_c, 1, 62, 0
3, 7584, Note_on_c, 1, 59, 84
3, 7680, Note_off_c, 1, 59, 0
3, 7680, Note_on_c, 1, 61, 84
3, 7776, Note_off_c, 1, 61, 0
3, 7776, Note_on_c, 1, 57, 84
3, 7872, Note_off_c, 1, 57, 0
3, 7872, Note_on_c, 1, 59, 84
3, 7968, Note_off_c, 1, 59, 0
3, 7968, Note_on_c, 1, 55, 84
3, 8064, Note_off_c, 1, 55, 0
3, 8064, Note_on_c, 1, 57, 84
3, 8160, Note_off_c, 1, 57, 0
3, 8160, Note_on_c, 1, 57, 84
3, 8352, Note_off_c, 1, 57, 0
3, 8352, Note_on_c, 1, 56, 84
3, 8448, Note_off_c, 1, 56, 0
3, 8448, Note_on_c, 1, 57, 84
3, 8544, Note_off_c, 1, 57, 0
3, 8544, Note_on_c, 1, 66, 84
3, 8640, Note_off_c, 1, 66, 0
3, 8640, Note_on_c, 1, 64, 84
3, 8832, Note_off_c, 1, 64, 0
3, 8832, Note_on_c, 1, 62, 84
3, 9024, Note_off_c, 1, 62, 0
3, 9024, Note_on_c, 1, 61, 84
3, 9216, Note_off_c, 1, 61, 0
3, 9216, Note_on_c, 1, 62, 84
3, 9312, Note_off_c, 1, 62, 0
3, 9312, Note_on_c, 1, 62, 84
3, 9408, Note_off_c, 1, 62, 0
3, 9408, Note_on_c, 1, 61, 84
3, 9600, Note_off_c, 1, 61, 0
3, 9600, Note_on_c, 1, 59, 84
3, 9696, Note_off_c, 1, 59, 0
3, 9696, Note_on_c, 1, 61, 84
3, 9792, Note_off_c, 1, 61, 0
3, 9792, Note_on_c, 1, 62, 84
3, 9888, Note_off_c, 1, 62, 0
3, 9888, Note_on_c, 1, 59, 84
3, 9984, Note_off_c, 1, 59, 0
3, 9984, Note_on_c, 1, 61, 84
3, 10080, Note_off_c, 1, 61, 0
3, 10080, Note_on_c, 1, 62, 84
3, 10272, Note_off_c, 1, 62, 0
3, 10272, Note_on_c, 1, 61, 84
3, 10464, Note_off_c, 1, 61, 0
3, 10464, Note_on_c, 1, 59, 84
3, 10656, Note_off_c, 1, 59, 0
3, 10656, Note_on_c, 1, 57, 84
3, 10848, Note_off_c, 1, 57, 0
3, 10848, Note_on_c, 1, 55, 84
3, 11040, Note_off_c, 1, 55, 0
3, 11040, Note_on_c, 1, 54, 84
3, 11232, Note_off_c, 1, 54, 0
3, 11232, Note_on_c, 1, 52, 84
3, 11328, Note_off_c, 1, 52, 0
3, 11328, Note_on_c, 1, 57, 84
3, 11520, Note_off_c, 1, 57, 0
3, 11520, Note_on_c, 1, 59, 84
3, 11616, Note_off_c, 1, 59, 0
3, 11616, Note_on_c, 1, 57, 84
3, 11664, Note_off_c, 1, 57, 0
3, 11664, Note_on_c, 1, 55, 84
3, 11712, Note_off_c, 1, 55, 0
3, 11712, Note_on_c, 1, 54, 84
3, 11808, Note_off_c, 1, 54, 0
3, 11856, Note_on_c, 1, 66, 84
3, 11904, Note_off_c, 1, 66, 0
3, 11904, Note_on_c, 1, 67, 84
3, 11952, Note_off_c, 1, 67, 0
3, 11952, Note_on_c, 1, 71, 84
3, 12000, Note_off_c, 1, 71, 0
3, 12000, Note_on_c, 1, 64, 84
3, 12048, Note_off_c, 1, 64, 0
3, 12048, Note_on_c, 1, 67, 84
3, 12096, Note_off_c, 1, 67, 0
3, 12096, Note_on_c, 1, 66, 84
3, 12144, Note_off_c, 1, 66, 0
3, 12144, Note_on_c, 1, 69, 84
3, 12192, Note_off_c, 1, 69, 0
3, 12192, Note_on_c, 1, 62, 84
3, 12240, Note_off_c, 1, 62, 0
3, 12240, Note_on_c, 1, 66, 84
3, 12288, Note_off_c, 1, 66, 0
3, 12288, Note_on_c, 1, 64, 84
3, 12336, Note_off_c, 1, 64, 0
3, 12336, Note_on_c, 1, 67, 84
3, 12384, Note_off_c, 1, 67, 0
3, 12384, Note_on_c, 1, 61, 84
3, 12432, Note_off_c, 1, 61, 0
3, 12432, Note_on_c, 1, 64, 84
3, 12480, Note_off_c, 1, 64, 0
3, 12480, Note_on_c, 1, 62, 84
3, 12528, Note_off_c, 1, 62, 0
3, 12528, Note_on_c, 1, 59, 84
3, 12576, Note_off_c, 1, 59, 0
3, 12624, Note_on_c, 1, 66, 84
3, 12672, Note_off_c, 1, 66, 0
3, 12672, Note_on_c, 1, 68, 84
3, 12720, Note_off_c, 1, 68, 0
3, 12720, Note_on_c, 1, 71, 84
3, 12768, Note_off_c, 1, 71, 0
3, 12768, Note_on_c, 1, 65, 84
3, 12816, Note_off_c, 1, 65, 0
3, 12816, Note_on_c, 1, 68, 84
3, 12864, Note_off_c, 1, 68, 0
3, 12864, Note_on_c, 1, 66, 84
3, 12912, Note_off_c, 1, 66, 0
3, 12912, Note_on_c, 1, 69, 84
3, 12960, Note_off_c, 1, 69, 0
3, 12960, Note_on_c, 1, 62, 84
3, 13008, Note_off_c, 1, 62, 0
3, 13008, Note_on_c, 1, 66, 84
3, 13056, Note_off_c, 1, 66, 0
3, 13056, Note_on_c, 1, 59, 84
3, 13104, Note_off_c, 1, 59, 0
3, 13104, Note_on_c, 1, 62, 84
3, 13152, Note_off_c, 1, 62, 0
3, 13152, Note_on_c, 1, 56, 84
3, 13200, Note_off_c, 1, 56, 0
3, 13200, Note_on_c, 1, 59, 84
3, 13248, Note_off_c, 1, 59, 0
3, 13248, Note_on_c, 1, 57, 84
3, 13296, Note_off_c, 1, 57, 0
3, 13296, Note_on_c, 1, 54, 84
3, 13344, Note_off_c, 1, 54, 0
3, 13344, Note_on_c, 1, 59, 84
3, 13440, Note_off_c, 1, 59, 0
3, 13440, Note_on_c, 1, 52, 84
3, 13536, Note_off_c, 1, 52, 0
3, 13536, Note_on_c, 1, 57, 84
3, 13632, Note_off_c, 1, 57, 0
3, 13632, Note_on_c, 1, 50, 84
3, 13728, Note_off_c, 1, 50, 0
3, 13728, Note_on_c, 1, 55, 84
3, 13824, Note_off_c, 1, 55, 0
3, 13824, Note_on_c, 1, 49, 84
3, 13920, Note_off_c, 1, 49, 0
3, 13920, Note_on_c, 1, 54, 84
3, 14016, Note_off_c, 1, 54, 0
3, 14016, Note_on_c, 1, 47, 84
3, 14112, Note_off_c, 1, 47, 0
3, 14112, Note_on_c, 1, 54, 84
3, 14208, Note_off_c, 1, 54, 0
3, 14208, Note_on_c, 1, 59, 84
3, 14304, Note_off_c, 1, 59, 0
3, 14304, Note_on_c, 1, 61, 84
3, 14400, Note_off_c, 1, 61, 0
3, 14400, Note_on_c, 1, 62, 84
3, 14496, Note_off_c, 1, 62, 0
3, 14496, Note_on_c, 1, 61, 84
3, 14592, Note_off_c, 1, 61, 0
3, 14592, Note_on_c, 1, 62, 84
3, 14688, Note_off_c, 1, 62, 0
3, 14688, Note_on_c, 1, 61, 84
3, 14784, Note_off_c, 1, 61, 0
3, 14784, Note_on_c, 1, 54, 84
3, 14880, Note_off_c, 1, 54, 0
3, 14880, Note_on_c, 1, 54, 84
3, 14976, Note_off_c, 1, 54, 0
3, 14976, Note_on_c, 1, 59, 84
3, 15072, Note_off_c, 1, 59, 0
3, 15072, Note_on_c, 1, 61, 84
3, 15168, Note_off_c, 1, 61, 0
3, 15168, Note_on_c, 1, 62, 84
3, 15264, Note_off_c, 1, 62, 0
3, 15264, Note_on_c, 1, 56, 84
3, 15360, Note_off_c, 1, 56, 0
3, 15360, Note_on_c, 1, 57, 84
3, 15456, Note_off_c, 1, 57, 0
3, 15456, Note_on_c, 1, 59, 84
3, 15552, Note_off_c, 1, 59, 0
3, 15552, Note_on_c, 1, 61, 84
3, 15648, Note_off_c, 1, 61, 0
3, 15648, Note_on_c, 1, 49, 84
3, 15744, Note_off_c, 1, 49, 0
3, 15744, Note_on_c, 1, 54, 84
3, 15840, Note_off_c, 1, 54, 0
3, 15840, Note_on_c, 1, 56, 84
3, 15936, Note_off_c, 1, 56, 0
3, 15936, Note_on_c, 1, 57, 84
3, 16032, Note_off_c, 1, 57, 0
3, 16032, Note_on_c, 1, 56, 84
3, 16128, Note_off_c, 1, 56, 0
3, 16128, Note_on_c, 1, 57, 84
3, 16224, Note_off_c, 1, 57, 0
3, 16224, Note_on_c, 1, 59, 84
3, 16320, Note_off_c, 1, 59, 0
3, 16320, Note_on_c, 1, 61, 84
3, 16416, Note_off_c, 1, 61, 0
3, 16416, Note_on_c, 1, 62, 84
3, 16512, Note_off_c, 1, 62, 0
3, 16512, Note_on_c, 1, 61, 84
3, 16608, Note_off_c, 1, 61, 0
3, 17952, Note_on_c, 1, 54, 84
3, 18144, Note_off_c, 1, 54, 0
3, 18144, Note_on_c, 1, 53, 84
3, 18240, Note_off_c, 1, 53, 0
3, 18240, Note_on_c, 1, 54, 84
3, 18432, Note_off_c, 1, 54, 0
3, 18432, Note_on_c, 1, 52, 84
3, 18624, Note_off_c, 1, 52, 0
3, 18624, Note_on_c, 1, 50, 84
3, 18720, Note_off_c, 1, 50, 0
3, 18720, Note_on_c, 1, 54, 84
3, 18816, Note_off_c, 1, 54, 0
3, 18816, Note_on_c, 1, 47, 84
3, 18912, Note_off_c, 1, 47, 0
3, 18912, Note_on_c, 1, 52, 84
3, 19008, Note_off_c, 1, 52, 0
3, 19008, Note_on_c, 1, 45, 84
3, 19104, Note_off_c, 1, 45, 0
3, 19152, Note_on_c, 1, 47, 84
3, 19200, Note_off_c, 1, 47, 0
3, 19200, Note_on_c, 1, 43, 84
3, 19296, Note_off_c, 1, 43, 0
3, 19296, Note_on_c, 1, 45, 84
3, 19392, Note_off_c, 1, 45, 0
3, 19392, Note_on_c, 1, 38, 84
3, 19488, Note_off_c, 1, 38, 0
3, 19488, Note_on_c, 1, 45, 84
3, 19584, Note_off_c, 1, 45, 0
3, 19584, Note_on_c, 1, 50, 84
3, 19680, Note_off_c, 1, 50, 0
3, 19680, Note_on_c, 1, 49, 84
3, 19776, Note_off_c, 1, 49, 0
3, 19776, Note_on_c, 1, 50, 84
3, 19872, Note_off_c, 1, 50, 0
3, 19872, Note_on_c, 1, 57, 84
3, 19968, Note_off_c, 1, 57, 0
3, 19968, Note_on_c, 1, 57, 84
3, 20064, Note_off_c, 1, 57, 0
3, 20064, Note_on_c, 1, 57, 84
3, 20160, Note_off_c, 1, 57, 0
3, 20160, Note_on_c, 1, 57, 84
3, 20256, Note_off_c, 1, 57, 0
3, 20256, Note_on_c, 1, 50, 84
3, 20352, Note_off_c, 1, 50, 0
3, 20352, Note_on_c, 1, 55, 84
3, 20448, Note_off_c, 1, 55, 0
3, 20448, Note_on_c, 1, 54, 84
3, 20544, Note_off_c, 1, 54, 0
3, 20544, Note_on_c, 1, 55, 84
3, 20640, Note_off_c, 1, 55, 0
3, 20640, Note_on_c, 1, 62, 84
3, 20736, Note_off_c, 1, 62, 0
3, 20736, Note_on_c, 1, 62, 84
3, 20832, Note_off_c, 1, 62, 0
3, 20832, Note_on_c, 1, 62, 84
3, 20928, Note_off_c, 1, 62, 0
3, 20928, Note_on_c, 1, 62, 84
3, 21024, Note_off_c, 1, 62, 0
3, 21024, Note_on_c, 1, 52, 84
3, 21120, Note_off_c, 1, 52, 0
3, 21120, Note_on_c, 1, 57, 84
3, 21216, Note_off_c, 1, 57, 0
3, 21216, Note_on_c, 1, 56, 84
3, 21312, Note_off_c, 1, 56, 0
3, 21312, Note_on_c, 1, 57, 84
3, 21408, Note_off_c, 1, 57, 0
3, 21408, Note_on_c, 1, 64, 84
3, 21504, Note_off_c, 1, 64, 0
3, 21504, Note_on_c, 1, 64, 84
3, 21600, Note_off_c, 1, 64, 0
3, 21600, Note_on_c, 1, 64, 84
3, 21696, Note_off_c, 1, 64, 0
3, 21696, Note_on_c, 1, 64, 84
3, 21792, Note_off_c, 1, 64, 0
3, 21792, Note_on_c, 1, 57, 84
3, 21888, Note_off_c, 1, 57, 0
3, 21888, Note_on_c, 1, 62, 84
3, 21984, Note_off_c, 1, 62, 0
3, 21984, Note_on_c, 1, 61, 84
3, 22080, Note_off_c, 1, 61, 0
3, 22080, Note_on_c, 1, 62, 84
3, 22176, Note_off_c, 1, 62, 0
3, 22176, Note_on_c, 1, 69, 84
3, 22272, Note_off_c, 1, 69, 0
3, 22272, Note_on_c, 1, 69, 84
3, 22368, Note_off_c, 1, 69, 0
3, 22368, Note_on_c, 1, 69, 84
3, 22464, Note_off_c, 1, 69, 0
3, 22464, Note_on_c, 1, 69, 84
3, 22560, Note_off_c, 1, 69, 0
3, 22608, Note_on_c, 1, 66, 84
3, 22656, Note_off_c, 1, 66, 0
3, 22656, Note_on_c, 1, 67, 84
3, 22704, Note_off_c, 1, 67, 0
3, 22704, Note_on_c, 1, 71, 84
3, 22752, Note_off_c, 1, 71, 0
3, 22752, Note_on_c, 1, 64, 84
3, 22800, Note_off_c, 1, 64, 0
3, 22800, Note_on_c, 1, 67, 84
3, 22848, Note_off_c, 1, 67, 0
3, 22848, Note_on_c, 1, 66, 84
3, 22896, Note_off_c, 1, 66, 0
3, 22896, Note_on_c, 1, 69, 84
3, 22944, Note_off_c, 1, 69, 0
3, 22944, Note_on_c, 1, 62, 84
3, 22992, Note_off_c, 1, 62, 0
3, 22992, Note_on_c, 1, 66, 84
3, 23040, Note_off_c, 1, 66, 0
3, 23040, Note_on_c, 1, 64, 84
3, 23088, Note_off_c, 1, 64, 0
3, 23088, Note_on_c, 1, 67, 84
3, 23136, Note_off_c, 1, 67, 0
3, 23136, Note_on_c, 1, 61, 84
3, 23184, Note_off_c, 1, 61, 0
3, 23184, Note_on_c, 1, 64, 84
3, 23232, Note_off_c, 1, 64, 0
3, 23232, Note_on_c, 1, 62, 84
3, 23280, Note_off_c, 1, 62, 0
3, 23280, Note_on_c, 1, 66, 84
3, 23328, Note_off_c, 1, 66, 0
3, 23328, Note_on_c, 1, 59, 84
3, 23376, Note_off_c, 1, 59, 0
3, 23376, Note_on_c, 1, 62, 84
3, 23424, Note_off_c, 1, 62, 0
3, 23424, Note_on_c, 1, 61, 84
3, 23472, Note_off_c, 1, 61, 0
3, 23472, Note_on_c, 1, 64, 84
3, 23520, Note_off_c, 1, 64, 0
3, 23520, Note_on_c, 1, 57, 84
3, 23568, Note_off_c, 1, 57, 0
3, 23568, Note_on_c, 1, 61, 84
3, 23616, Note_off_c, 1, 61, 0
3, 23616, Note_on_c, 1, 62, 84
3, 23664, Note_off_c, 1, 62, 0
3, 23664, Note_on_c, 1, 66, 84
3, 23712, Note_off_c, 1, 66, 0
3, 23712, Note_on_c, 1, 59, 84
3, 23760, Note_off_c, 1, 59, 0
3, 23760, Note_on_c, 1, 62, 84
3, 23808, Note_off_c, 1, 62, 0
3, 23808, Note_on_c, 1, 61, 84
3, 23856, Note_off_c, 1, 61, 0
3, 23856, Note_on_c, 1, 64, 84
3, 23904, Note_off_c, 1, 64, 0
3, 23904, Note_on_c, 1, 57, 84
3, 23952, Note_off_c, 1, 57, 0
3, 23952, Note_on_c, 1, 61, 84
3, 24000, Note_off_c, 1, 61, 0
3, 24000, Note_on_c, 1, 62, 84
3, 24048, Note_off_c, 1, 62, 0
3, 24048, Note_on_c, 1, 66, 84
3, 24096, Note_off_c, 1, 66, 0
3, 24096, Note_on_c, 1, 59, 84
3, 24144, Note_off_c, 1, 59, 0
3, 24144, Note_on_c, 1, 62, 84
3, 24192, Note_off_c, 1, 62, 0
3, 24192, Note_on_c, 1, 61, 84
3, 24240, Note_off_c, 1, 61, 0
3, 24240, Note_on_c, 1, 57, 84
3, 24288, Note_off_c, 1, 57, 0
3, 24288, Note_on_c, 1, 61, 84
3, 24384, Note_off_c, 1, 61, 0
3, 24384, Note_on_c, 1, 59, 84
3, 24480, Note_off_c, 1, 59, 0
3, 24480, Note_on_c, 1, 59, 84
3, 24576, Note_off_c, 1, 59, 0
3, 24576, Note_on_c, 1, 57, 84
3, 24672, Note_off_c, 1, 57, 0
3, 24720, Note_on_c, 1, 61, 84
3, 24768, Note_off_c, 1, 61, 0
3, 24768, Note_on_c, 1, 62, 84
3, 24816, Note_off_c, 1, 62, 0
3, 24816, Note_on_c, 1, 66, 84
3, 24864, Note_off_c, 1, 66, 0
3, 24864, Note_on_c, 1, 59, 84
3, 24912, Note_off_c, 1, 59, 0
3, 24912, Note_on_c, 1, 62, 84
3, 24960, Note_off_c, 1, 62, 0
3, 24960, Note_on_c, 1, 61, 84
3, 25008, Note_off_c, 1, 61, 0
3, 25008, Note_on_c, 1, 64, 84
3, 25056, Note_off_c, 1, 64, 0
3, 25056, Note_on_c, 1, 57, 84
3, 25104, Note_off_c, 1, 57, 0
3, 25104, Note_on_c, 1, 61, 84
3, 25152, Note_off_c, 1, 61, 0
3, 25152, Note_on_c, 1, 59, 84
3, 25200, Note_off_c, 1, 59, 0
3, 25200, Note_on_c, 1, 62, 84
3, 25248, Note_off_c, 1, 62, 0
3, 25248, Note_on_c, 1, 55, 84
3, 25296, Note_off_c, 1, 55, 0
3, 25296, Note_on_c, 1, 59, 84
3, 25344, Note_off_c, 1, 59, 0
3, 25344, Note_on_c, 1, 57, 84
3, 25392, Note_off_c, 1, 57, 0
3, 25392, Note_on_c, 1, 61, 84
3, 25440, Note_off_c, 1, 61, 0
3, 25440, Note_on_c, 1, 54, 84
3, 25488, Note_off_c, 1, 54, 0
3, 25488, Note_on_c, 1, 57, 84
3, 25536, Note_off_c, 1, 57, 0
3, 25536, Note_on_c, 1, 55, 84
3, 25584, Note_off_c, 1, 55, 0
3, 25584, Note_on_c, 1, 59, 84
3, 25632, Note_off_c, 1, 59, 0
3, 25632, Note_on_c, 1, 52, 84
3, 25680, Note_off_c, 1, 52, 0
3, 25680, Note_on_c, 1, 55, 84
3, 25728, Note_off_c, 1, 55, 0
3, 25728, Note_on_c, 1, 54, 84
3, 25776, Note_off_c, 1, 54, 0
3, 25776, Note_on_c, 1, 57, 84
3, 25824, Note_off_c, 1, 57, 0
3, 25824, Note_on_c, 1, 50, 84
3, 25872, Note_off_c, 1, 50, 0
3, 25872, Note_on_c, 1, 54, 84
3, 25920, Note_off_c, 1, 54, 0
3, 25920, Note_on_c, 1, 52, 84
3, 25968, Note_off_c, 1, 52, 0
3, 25968, Note_on_c, 1, 55, 84
3, 26016, Note_off_c, 1, 55, 0
3, 26016, Note_on_c, 1, 52, 84
3, 26064, Note_off_c, 1, 52, 0
3, 26064, Note_on_c, 1, 55, 84
3, 26112, Note_off_c, 1, 55, 0
3, 26112, Note_on_c, 1, 54, 84
3, 26160, Note_off_c, 1, 54, 0
3, 26160, Note_on_c, 1, 55, 84
3, 26208, Note_off_c, 1, 55, 0
3, 26208, Note_on_c, 1, 57, 84
3, 26304, Note_off_c, 1, 57, 0
3, 26304, Note_on_c, 1, 59, 84
3, 26400, Note_off_c, 1, 59, 0
3, 26400, Note_on_c, 1, 55, 84
3, 26496, Note_off_c, 1, 55, 0
3, 26496, Note_on_c, 1, 57, 84
3, 26592, Note_off_c, 1, 57, 0
3, 26592, Note_on_c, 1, 55, 84
3, 26784, Note_off_c, 1, 55, 0
3, 26784, Note_on_c, 1, 54, 84
3, 26880, Note_off_c, 1, 54, 0
3, 26880, Note_on_c, 1, 55, 84
3, 26976, Note_off_c, 1, 55, 0
3, 27024, Note_on_c, 1, 55, 84
3, 27072, Note_off_c, 1, 55, 0
3, 27072, Note_on_c, 1, 60, 84
3, 27168, Note_off_c, 1, 60, 0
3, 27168, Note_on_c, 1, 59, 84
3, 27264, Note_off_c, 1, 59, 0
3, 27264, Note_on_c, 1, 60, 84
3, 27360, Note_off_c, 1, 60, 0
3, 27360, Note_on_c, 1, 59, 84
3, 27456, Note_off_c, 1, 59, 0
3, 27456, Note_on_c, 1, 60, 84
3, 27552, Note_off_c, 1, 60, 0
3, 27552, Note_on_c, 1, 55, 84
3, 27648, Note_off_c, 1, 55, 0
3, 27648, Note_on_c, 1, 60, 84
3, 27744, Note_off_c, 1, 60, 0
3, 27792, Note_on_c, 1, 57, 84
3, 27840, Note_off_c, 1, 57, 0
3, 27840, Note_on_c, 1, 62, 84
3, 27936, Note_off_c, 1, 62, 0
3, 27936, Note_on_c, 1, 61, 84
3, 28032, Note_off_c, 1, 61, 0
3, 28032, Note_on_c, 1, 62, 84
3, 28128, Note_off_c, 1, 62, 0
3, 28128, Note_on_c, 1, 61, 84
3, 28224, Note_off_c, 1, 61, 0
3, 28224, Note_on_c, 1, 62, 84
3, 28320, Note_off_c, 1, 62, 0
3, 28320, Note_on_c, 1, 57, 84
3, 28416, Note_off_c, 1, 57, 0
3, 28416, Note_on_c, 1, 62, 84
3, 28512, Note_off_c, 1, 62, 0
3, 28560, Note_on_c, 1, 62, 84
3, 28608, Note_off_c, 1, 62, 0
3, 28608, Note_on_c, 1, 67, 84
3, 28704, Note_off_c, 1, 67, 0
3, 28704, Note_on_c, 1, 66, 84
3, 28800, Note_off_c, 1, 66, 0
3, 28800, Note_on_c, 1, 67, 84
3, 28896, Note_off_c, 1, 67, 0
3, 28896, Note_on_c, 1, 66, 84
3, 28992, Note_off_c, 1, 66, 0
3, 28992, Note_on_c, 1, 67, 84
3, 29088, Note_off_c, 1, 67, 0
3, 29088, Note_on_c, 1, 62, 84
3, 29184, Note_off_c, 1, 62, 0
3, 29184, Note_on_c, 1, 67, 84
3, 29280, Note_off_c, 1, 67, 0
3, 29328, Note_on_c, 1, 67, 84
3, 29376, Note_off_c, 1, 67, 0
3, 29376, Note_on_c, 1, 72, 84
3, 29472, Note_off_c, 1, 72, 0
3, 29472, Note_on_c, 1, 71, 84
3, 29568, Note_off_c, 1, 71, 0
3, 29568, Note_on_c, 1, 72, 84
3, 29664, Note_off_c, 1, 72, 0
3, 29664, Note_on_c, 1, 71, 84
3, 29760, Note_off_c, 1, 71, 0
3, 29760, Note_on_c, 1, 72, 84
3, 29856, Note_off_c, 1, 72, 0
3, 29856, Note_on_c, 1, 67, 84
3, 29952, Note_off_c, 1, 67, 0
3, 29952, Note_on_c, 1, 67, 84
3, 30048, Note_off_c, 1, 67, 0
3, 30096, Note_on_c, 1, 67, 84
3, 30144, Note_off_c, 1, 67, 0
3, 30144, Note_on_c, 1, 69, 84
3, 30240, Note_off_c, 1, 69, 0
3, 30240, Note_on_c, 1, 67, 84
3, 30336, Note_off_c, 1, 67, 0
3, 30336, Note_on_c, 1, 66, 84
3, 30432, Note_off_c, 1, 66, 0
3, 30432, Note_on_c, 1, 63, 84
3, 30528, Note_off_c, 1, 63, 0
3, 30528, Note_on_c, 1, 64, 84
3, 30624, Note_off_c, 1, 64, 0
3, 30624, Note_on_c, 1, 63, 84
3, 30720, Note_off_c, 1, 63, 0
3, 30720, Note_on_c, 1, 64, 84
3, 30816, Note_off_c, 1, 64, 0
3, 30816, Note_on_c, 1, 63, 84
3, 30912, Note_off_c, 1, 63, 0
3, 30912, Note_on_c, 1, 64, 84
3, 31008, Note_off_c, 1, 64, 0
3, 31008, Note_on_c, 1, 59, 84
3, 31104, Note_off_c, 1, 59, 0
3, 31104, Note_on_c, 1, 60, 84
3, 31200, Note_off_c, 1, 60, 0
3, 31200, Note_on_c, 1, 59, 84
3, 31296, Note_off_c, 1, 59, 0
3, 31296, Note_on_c, 1, 60, 84
3, 31392, Note_off_c, 1, 60, 0
3, 31392, Note_on_c, 1, 59, 84
3, 31440, Note_off_c, 1, 59, 0
3, 31440, Note_on_c, 1, 57, 84
3, 31488, Note_off_c, 1, 57, 0
3, 31488, Note_on_c, 1, 56, 84
3, 31536, Note_off_c, 1, 56, 0
3, 31536, Note_on_c, 1, 59, 84
3, 31584, Note_off_c, 1, 59, 0
3, 31584, Note_on_c, 1, 64, 84
3, 32352, Note_off_c, 1, 64, 0
3, 32352, Note_on_c, 1, 66, 84
3, 32544, Note_off_c, 1, 66, 0
3, 32544, Note_on_c, 1, 64, 84
3, 32736, Note_off_c, 1, 64, 0
3, 32736, Note_on_c, 1, 62, 84
3, 32928, Note_off_c, 1, 62, 0
3, 32928, Note_on_c, 1, 61, 84
3, 33024, Note_off_c, 1, 61, 0
3, 33024, Note_on_c, 1, 62, 84
3, 33120, Note_off_c, 1, 62, 0
3, 33168, Note_on_c, 1, 62, 84
3, 33204, Note_off_c, 1, 62, 0
3, 33216, Note_on_c, 1, 62, 84
3, 33252, Note_off_c, 1, 62, 0
3, 33264, Note_on_c, 1, 62, 84
3, 33300, Note_off_c, 1, 62, 0
3, 33312, Note_on_c, 1, 62, 84
3, 33348, Note_off_c, 1, 62, 0
3, 33360, Note_on_c, 1, 62, 84
3, 33396, Note_off_c, 1, 62, 0
3, 33408, Note_on_c, 1, 62, 84
3, 33444, Note_off_c, 1, 62, 0
3, 33456, Note_on_c, 1, 62, 84
3, 33492, Note_off_c, 1, 62, 0
3, 33504, Note_on_c, 1, 62, 84
3, 33540, Note_off_c, 1, 62, 0
3, 33552, Note_on_c, 1, 62, 84
3, 33588, Note_off_c, 1, 62, 0
3, 33600, Note_on_c, 1, 62, 84
3, 33636, Note_off_c, 1, 62, 0
3, 33648, Note_on_c, 1, 62, 84
3, 33684, Note_off_c, 1, 62, 0
3, 33696, Note_on_c, 1, 61, 84
3, 33732, Note_off_c, 1, 61, 0
3, 33744, Note_on_c, 1, 62, 84
3, 33780, Note_off_c, 1, 62, 0
3, 33792, Note_on_c, 1, 62, 84
3, 33888, Note_off_c, 1, 62, 0
3, 33888, Note_on_c, 1, 57, 84
3, 33984, Note_off_c, 1, 57, 0
3, 33984, Note_on_c, 1, 59, 84
3, 34080, Note_off_c, 1, 59, 0
3, 34080, Note_on_c, 1, 61, 84
3, 34176, Note_off_c, 1, 61, 0
3, 34176, Note_on_c, 1, 57, 84
3, 34272, Note_off_c, 1, 57, 0
3, 34272, Note_on_c, 1, 59, 84
3, 34368, Note_off_c, 1, 59, 0
3, 34368, Note_on_c, 1, 55, 84
3, 34464, Note_off_c, 1, 55, 0
3, 34464, Note_on_c, 1, 57, 84
3, 34560, Note_off_c, 1, 57, 0
3, 34560, Note_on_c, 1, 54, 84
3, 34656, Note_off_c, 1, 54, 0
3, 34656, Note_on_c, 1, 55, 84
3, 34752, Note_off_c, 1, 55, 0
3, 34752, Note_on_c, 1, 52, 84
3, 34848, Note_off_c, 1, 52, 0
3, 34848, Note_on_c, 1, 54, 84
3, 34944, Note_off_c, 1, 54, 0
3, 34944, Note_on_c, 1, 50, 84
3, 35040, Note_off_c, 1, 50, 0
3, 35040, Note_on_c, 1, 52, 84
3, 35136, Note_off_c, 1, 52, 0
3, 35136, Note_on_c, 1, 49, 84
3, 35232, Note_off_c, 1, 49, 0
3, 35232, Note_on_c, 1, 50, 84
3, 35424, Note_off_c, 1, 50, 0
3, 35424, Note_on_c, 1, 49, 84
3, 35520, Note_off_c, 1, 49, 0
3, 35520, Note_on_c, 1, 50, 84
3, 35616, Note_off_c, 1, 50, 0
3, 35616, Note_on_c, 1, 54, 84
3, 35712, Note_off_c, 1, 54, 0
3, 35712, Note_on_c, 1, 52, 84
3, 35808, Note_off_c, 1, 52, 0
3, 35808, Note_on_c, 1, 52, 84
3, 35904, Note_off_c, 1, 52, 0
3, 35904, Note_on_c, 1, 50, 84
3, 36000, Note_off_c, 1, 50, 0
3, 36000, Note_on_c, 1, 54, 84
3, 36096, Note_off_c, 1, 54, 0
3, 36096, Note_on_c, 1, 55, 84
3, 36192, Note_off_c, 1, 55, 0
3, 36192, Note_on_c, 1, 57, 84
3, 36288, Note_off_c, 1, 57, 0
3, 36288, Note_on_c, 1, 59, 84
3, 36384, Note_off_c, 1, 59, 0
3, 36384, Note_on_c, 1, 57, 84
3, 36480, Note_off_c, 1, 57, 0
3, 36480, Note_on_c, 1, 59, 84
3, 36576, Note_off_c, 1, 59, 0
3, 36576, Note_on_c, 1, 57, 84
3, 36672, Note_off_c, 1, 57, 0
3, 36672, Note_on_c, 1, 57, 110
3, 36768, Note_off_c, 1, 57, 0
3, 36768, Note_on_c, 1, 55, 110
3, 36816, Note_off_c, 1, 55, 0
3, 36816, Note_on_c, 1, 54, 110
3, 36864, Note_off_c, 1, 54, 0
3, 36864, Note_on_c, 1, 52, 110
3, 36960, Note_off_c, 1, 52, 0
3, 37056, Note_on_c, 1, 62, 110
3, 37152, Note_off_c, 1, 62, 0
3, 37152, Note_on_c, 1, 60, 110
3, 37200, Note_off_c, 1, 60, 0
3, 37200, Note_on_c, 1, 59, 110
3, 37248, Note_off_c, 1, 59, 0
3, 37248, Note_on_c, 1, 64, 110
3, 37296, Note_off_c, 1, 64, 0
3, 37296, Note_on_c, 1, 62, 110
3, 37344, Note_off_c, 1, 62, 0
3, 37344, Note_on_c, 1, 60, 110
3, 37392, Note_off_c, 1, 60, 0
3, 37392, Note_on_c, 1, 64, 110
3, 37440, Note_off_c, 1, 64, 0
3, 37440, Note_on_c, 1, 62, 110
3, 37488, Note_off_c, 1, 62, 0
3, 37632, Note_on_c, 1, 59, 110
3, 37728, Note_off_c, 1, 59, 0
3, 37728, Note_on_c, 1, 57, 110
3, 37920, Note_off_c, 1, 57, 0
3, 37920, Note_on_c, 1, 59, 110
3, 38304, Note_off_c, 1, 59, 0
3, 38304, Note_on_c, 1, 59, 110
3, 38400, Note_off_c, 1, 59, 0
3, 38400, Note_on_c, 1, 60, 110
3, 38832, Note_off_c, 1, 60, 0
3, 38832, Note_on_c, 1, 64, 110
3, 38880, Note_off_c, 1, 64, 0
3, 38880, Note_on_c, 1, 62, 110
3, 38928, Note_off_c, 1, 62, 0
3, 38928, Note_on_c, 1, 60, 110
3, 38976, Note_off_c, 1, 60, 0
3, 38976, Note_on_c, 1, 59, 110
3, 39168, Note_off_c, 1, 59, 0
3, 39168, Note_on_c, 1, 64, 110
3, 39360, Note_off_c, 1, 64, 0
3, 39360, Note_on_c, 1, 57, 110
3, 39600, Note_off_c, 1, 57, 0
3, 39600, Note_on_c, 1, 55, 110
3, 39624, Note_off_c, 1, 55, 0
3, 39624, Note_on_c, 1, 54, 110
3, 39648, Note_off_c, 1, 54, 0
3, 39648, Note_on_c, 1, 55, 110
3, 39744, Note_off_c, 1, 55, 0
3, 39984, Note_on_c, 1, 65, 110
3, 40032, Note_off_c, 1, 65, 0
3, 40032, Note_on_c, 1, 64, 110
3, 40080, Note_off_c, 1, 64, 0
3, 40080, Note_on_c, 1, 62, 110
3, 40128, Note_off_c, 1, 62, 0
3, 40128, Note_on_c, 1, 64, 110
3, 40320, Note_off_c, 1, 64, 0
3, 40320, Note_on_c, 1, 62, 110
3, 40416, Note_off_c, 1, 62, 0
3, 40512, Note_on_c, 1, 52, 110
3, 40656, Note_off_c, 1, 52, 0
3, 40656, Note_on_c, 1, 52, 110
3, 40704, Note_off_c, 1, 52, 0
3, 40704, Note_on_c, 1, 50, 110
3, 41088, Note_off_c, 1, 50, 0
3, 41472, Note_on_c, 1, 62, 84
3, 41496, Note_off_c, 1, 62, 0
3, 41496, Note_on_c, 1, 64, 84
3, 41520, Note_off_c, 1, 64, 0
3, 41520, Note_on_c, 1, 66, 84
3, 41544, Note_off_c, 1, 66, 0
3, 41544, Note_on_c, 1, 64, 84
3, 41568, Note_off_c, 1, 64, 0
3, 41568, Note_on_c, 1, 62, 84
3, 41592, Note_off_c, 1, 62, 0
3, 41592, Note_on_c, 1, 64, 84
3, 41616, Note_off_c, 1, 64, 0
3, 41616, Note_on_c, 1, 66, 84
3, 41640, Note_off_c, 1, 66, 0
3, 41640, Note_on_c, 1, 64, 84
3, 41664, Note_off_c, 1, 64, 0
3, 41664, Note_on_c, 1, 62, 84
3, 41688, Note_off_c, 1, 62, 0
3, 41688, Note_on_c, 1, 64, 84
3, 41712, Note_off_c, 1, 64, 0
3, 41712, Note_on_c, 1, 66, 84
3, 41736, Note_off_c, 1, 66, 0
3, 41736, Note_on_c, 1, 64, 84
3, 41760, Note_off_c, 1, 64, 0
3, 41760, Note_on_c, 1, 62, 84
3, 41784, Note_off_c, 1, 62, 0
3, 41784, Note_on_c, 1, 64, 84
3, 41808, Note_off_c, 1, 64, 0
3, 41808, Note_on_c, 1, 66, 84
3, 41832, Note_off_c, 1, 66, 0
3, 41832, Note_on_c, 1, 64, 84
3, 41856, Note_off_c, 1, 64, 0
3, 41856, Note_on_c, 1, 62, 84
3, 41904, Note_off_c, 1, 62, 0
3, 42144, Note_on_c, 1, 71, 84
3, 42168, Note_off_c, 1, 71, 0
3, 42168, Note_on_c, 1, 69, 84
3, 42192, Note_off_c, 1, 69, 0
3, 42192, Note_on_c, 1, 71, 84
3, 42216, Note_off_c, 1, 71, 0
3, 42216, Note_on_c, 1, 66, 84
3, 42240, Note_off_c, 1, 66, 0
3, 42240, Note_on_c, 1, 67, 84
3, 42264, Note_off_c, 1, 67, 0
3, 42264, Note_on_c, 1, 66, 84
3, 42288, Note_off_c, 1, 66, 0
3, 42288, Note_on_c, 1, 67, 84
3, 42312, Note_off_c, 1, 67, 0
3, 42312, Note_on_c, 1, 64, 84
3, 42336, Note_off_c, 1, 64, 0
3, 42336, Note_on_c, 1, 69, 84
3, 42360, Note_off_c, 1, 69, 0
3, 42360, Note_on_c, 1, 67, 84
3, 42384, Note_off_c, 1, 67, 0
3, 42384, Note_on_c, 1, 69, 84
3, 42408, Note_off_c, 1, 69, 0
3, 42408, Note_on_c, 1, 64, 84
3, 42432, Note_off_c, 1, 64, 0
3, 42432, Note_on_c, 1, 66, 84
3, 42456, Note_off_c, 1, 66, 0
3, 42456, Note_on_c, 1, 64, 84
3, 42480, Note_off_c, 1, 64, 0
3, 42480, Note_on_c, 1, 66, 84
3, 42504, Note_off_c, 1, 66, 0
3, 42504, Note_on_c, 1, 62, 84
3, 42528, Note_off_c, 1, 62, 0
3, 42528, Note_on_c, 1, 67, 84
3, 42552, Note_off_c, 1, 67, 0
3, 42552, Note_on_c, 1, 66, 84
3, 42576, Note_off_c, 1, 66, 0
3, 42576, Note_on_c, 1, 67, 84
3, 42600, Note_off_c, 1, 67, 0
3, 42600, Note_on_c, 1, 62, 84
3, 42624, Note_off_c, 1, 62, 0
3, 42624, Note_on_c, 1, 64, 84
3, 42648, Note_off_c, 1, 64, 0
3, 42648, Note_on_c, 1, 62, 84
3, 42672, Note_off_c, 1, 62, 0
3, 42672, Note_on_c, 1, 64, 84
3, 42696, Note_off_c, 1, 64, 0
3, 42696, Note_on_c, 1, 61, 84
3, 42720, Note_off_c, 1, 61, 0
3, 42720, Note_on_c, 1, 66, 84
3, 42744, Note_off_c, 1, 66, 0
3, 42744, Note_on_c, 1, 64, 84
3, 42768, Note_off_c, 1, 64, 0
3, 42768, Note_on_c, 1, 66, 84
3, 42792, Note_off_c, 1, 66, 0
3, 42792, Note_on_c, 1, 61, 84
3, 42816, Note_off_c, 1, 61, 0
3, 42816, Note_on_c, 1, 62, 84
3, 42840, Note_off_c, 1, 62, 0
3, 42840, Note_on_c, 1, 61, 84
3, 42864, Note_off_c, 1, 61, 0
3, 42864, Note_on_c, 1, 62, 84
3, 42888, Note_off_c, 1, 62, 0
3, 42888, Note_on_c, 1, 59, 84
3, 42912, Note_off_c, 1, 59, 0
3, 42912, Note_on_c, 1, 64, 84
3, 42936, Note_off_c, 1, 64, 0
3, 42936, Note_on_c, 1, 62, 84
3, 42960, Note_off_c, 1, 62, 0
3, 42960, Note_on_c, 1, 64, 84
3, 42984, Note_off_c, 1, 64, 0
3, 42984, Note_on_c, 1, 59, 84
3, 43008, Note_off_c, 1, 59, 0
3, 43008, Note_on_c, 1, 61, 84
3, 43032, Note_off_c, 1, 61, 0
3, 43032, Note_on_c, 1, 59, 84
3, 43056, Note_off_c, 1, 59, 0
3, 43056, Note_on_c, 1, 61, 84
3, 43080, Note_off_c, 1, 61, 0
3, 43080, Note_on_c, 1, 57, 84
3, 43104, Note_off_c, 1, 57, 0
3, 43104, Note_on_c, 1, 62, 84
3, 43224, Note_off_c, 1, 62, 0
3, 43224, Note_on_c, 1, 64, 84
3, 43248, Note_off_c, 1, 64, 0
3, 43248, Note_on_c, 1, 62, 84
3, 43272, Note_off_c, 1, 62, 0
3, 43272, Note_on_c, 1, 64, 84
3, 43296, Note_off_c, 1, 64, 0
3, 43296, Note_on_c, 1, 61, 84
3, 43308, Note_off_c, 1, 61, 0
3, 43308, Note_on_c, 1, 59, 84
3, 43320, Note_off_c, 1, 59, 0
3, 43320, Note_on_c, 1, 61, 84
3, 43368, Note_off_c, 1, 61, 0
3, 43368, Note_on_c, 1, 62, 84
3, 43392, Note_off_c, 1, 62, 0
3, 43392, Note_on_c, 1, 62, 84
3, 43416, Note_off_c, 1, 62, 0
3, 43416, Note_on_c, 1, 66, 84
3, 43440, Note_off_c, 1, 66, 0
3, 43440, Note_on_c, 1, 62, 84
3, 43464, Note_off_c, 1, 62, 0
3, 43464, Note_on_c, 1, 57, 84
3, 43488, Note_off_c, 1, 57, 0
3, 43488, Note_on_c, 1, 54, 84
3, 43512, Note_off_c, 1, 54, 0
3, 43512, Note_on_c, 1, 57, 84
3, 43536, Note_off_c, 1, 57, 0
3, 43536, Note_on_c, 1, 54, 84
3, 43560, Note_off_c, 1, 54, 0
3, 43560, Note_on_c, 1, 50, 84
3, 43584, Note_off_c, 1, 50, 0
3, 43584, Note_on_c, 1, 57, 84
3, 43632, Note_off_c, 1, 57, 0
3, 44016, Note_on_c, 1, 57, 84
3, 44040, Note_off_c, 1, 57, 0
3, 44040, Note_on_c, 1, 56, 84
3, 44064, Note_off_c, 1, 56, 0
3, 44064, Note_on_c, 1, 57, 84
3, 44088, Note_off_c, 1, 57, 0
3, 44088, Note_on_c, 1, 56, 84
3, 44112, Note_off_c, 1, 56, 0
3, 44112, Note_on_c, 1, 57, 84
3, 44136, Note_off_c, 1, 57, 0
3, 44136, Note_on_c, 1, 56, 84
3, 44160, Note_off_c, 1, 56, 0
3, 44160, Note_on_c, 1, 57, 84
3, 44196, Note_off_c, 1, 57, 0
3, 44208, Note_on_c, 1, 45, 84
3, 44256, Note_off_c, 1, 45, 0
3, 44304, Note_on_c, 1, 69, 84
3, 44340, Note_off_c, 1, 69, 0
3, 44352, Note_on_c, 1, 69, 84
3, 44448, Note_off_c, 1, 69, 0
3, 44496, Note_on_c, 1, 68, 84
3, 44532, Note_off_c, 1, 68, 0
3, 44544, Note_on_c, 1, 68, 84
3, 44640, Note_off_c, 1, 68, 0
3, 44688, Note_on_c, 1, 66, 84
3, 44724, Note_off_c, 1, 66, 0
3, 44736, Note_on_c, 1, 66, 84
3, 44832, Note_off_c, 1, 66, 0
3, 44880, Note_on_c, 1, 64, 84
3, 44916, Note_off_c, 1, 64, 0
3, 44928, Note_on_c, 1, 64, 84
3, 45024, Note_off_c, 1, 64, 0
3, 45072, Note_on_c, 1, 62, 84
3, 45108, Note_off_c, 1, 62, 0
3, 45120, Note_on_c, 1, 62, 84
3, 45216, Note_off_c, 1, 62, 0
3, 45240, Note_on_c, 1, 61, 84
3, 45264, Note_off_c, 1, 61, 0
3, 45264, Note_on_c, 1, 66, 84
3, 45288, Note_off_c, 1, 66, 0
3, 45288, Note_on_c, 1, 61, 84
3, 45312, Note_off_c, 1, 61, 0
3, 45312, Note_on_c, 1, 62, 84
3, 45360, Note_off_c, 1, 62, 0
3, 45360, Note_on_c, 1, 59, 84
3, 45408, Note_off_c, 1, 59, 0
3, 45432, Note_on_c, 1, 59, 84
3, 45456, Note_off_c, 1, 59, 0
3, 45456, Note_on_c, 1, 64, 84
3, 45480, Note_off_c, 1, 64, 0
3, 45480, Note_on_c, 1, 59, 84
3, 45504, Note_off_c, 1, 59, 0
3, 45504, Note_on_c, 1, 61, 84
3, 45552, Note_off_c, 1, 61, 0
3, 45600, Note_on_c, 1, 61, 84
3, 45624, Note_off_c, 1, 61, 0
3, 45624, Note_on_c, 1, 64, 84
3, 45648, Note_off_c, 1, 64, 0
3, 45648, Note_on_c, 1, 61, 84
3, 45672, Note_off_c, 1, 61, 0
3, 45672, Note_on_c, 1, 57, 84
3, 45696, Note_off_c, 1, 57, 0
3, 45696, Note_on_c, 1, 54, 84
3, 45744, Note_off_c, 1, 54, 0
3, 45792, Note_on_c, 1, 66, 84
3, 45816, Note_off_c, 1, 66, 0
3, 45816, Note_on_c, 1, 69, 84
3, 45840, Note_off_c, 1, 69, 0
3, 45840, Note_on_c, 1, 66, 84
3, 45864, Note_off_c, 1, 66, 0
3, 45864, Note_on_c, 1, 62, 84
3, 45888, Note_off_c, 1, 62, 0
3, 45888, Note_on_c, 1, 59, 84
3, 45936, Note_off_c, 1, 59, 0
3, 45984, Note_on_c, 1, 64, 84
3, 46008, Note_off_c, 1, 64, 0
3, 46008, Note_on_c, 1, 67, 84
3, 46032, Note_off_c, 1, 67, 0
3, 46032, Note_on_c, 1, 64, 84
3, 46056, Note_off_c, 1, 64, 0
3, 46056, Note_on_c, 1, 59, 84
3, 46080, Note_off_c, 1, 59, 0
3, 46080, Note_on_c, 1, 61, 84
3, 46128, Note_off_c, 1, 61, 0
3, 46128, Note_on_c, 1, 57, 84
3, 46176, Note_off_c, 1, 57, 0
3, 46200, Note_on_c, 1, 57, 84
3, 46224, Note_off_c, 1, 57, 0
3, 46224, Note_on_c, 1, 62, 84
3, 46248, Note_off_c, 1, 62, 0
3, 46248, Note_on_c, 1, 57, 84
3, 46272, Note_off_c, 1, 57, 0
3, 46272, Note_on_c, 1, 59, 84
3, 46296, Note_off_c, 1, 59, 0
3, 46296, Note_on_c, 1, 61, 84
3, 46320, Note_off_c, 1, 61, 0
3, 46320, Note_on_c, 1, 62, 84
3, 46416, Note_off_c, 1, 62, 0
3, 46416, Note_on_c, 1, 61, 84
3, 46464, Note_off_c, 1, 61, 0
3, 46464, Note_on_c, 1, 62, 84
3, 46512, Note_off_c, 1, 62, 0
3, 46512, Note_on_c, 1, 50, 84
3, 46560, Note_off_c, 1, 50, 0
3, 46608, Note_on_c, 1, 52, 84
3, 46656, Note_off_c, 1, 52, 0
3, 46656, Note_on_c, 1, 54, 84
3, 46704, Note_off_c, 1, 54, 0
3, 46704, Note_on_c, 1, 55, 84
3, 46752, Note_off_c, 1, 55, 0
3, 46752, Note_on_c, 1, 57, 84
3, 46800, Note_off_c, 1, 57, 0
3, 46800, Note_on_c, 1, 45, 84
3, 46848, Note_off_c, 1, 45, 0
3, 46848, Note_on_c, 1, 50, 84
3, 46896, Note_off_c, 1, 50, 0
3, 46896, Note_on_c, 1, 62, 84
3, 46920, Note_off_c, 1, 62, 0
3, 46920, Note_on_c, 1, 61, 84
3, 46944, Note_off_c, 1, 61, 0
3, 46944, Note_on_c, 1, 62, 84
3, 46968, Note_off_c, 1, 62, 0
3, 46968, Note_on_c, 1, 61, 84
3, 46992, Note_off_c, 1, 61, 0
3, 46992, Note_on_c, 1, 62, 84
3, 47016, Note_off_c, 1, 62, 0
3, 47016, Note_on_c, 1, 61, 84
3, 47040, Note_off_c, 1, 61, 0
3, 47040, Note_on_c, 1, 62, 84
3, 47076, Note_off_c, 1, 62, 0
3, 47088, Note_on_c, 1, 50, 84
3, 47136, Note_off_c, 1, 50, 0
3, 47184, Note_on_c, 1, 62, 84
3, 47220, Note_off_c, 1, 62, 0
3, 47232, Note_on_c, 1, 62, 84
3, 47328, Note_off_c, 1, 62, 0
3, 47376, Note_on_c, 1, 64, 84
3, 47412, Note_off_c, 1, 64, 0
3, 47424, Note_on_c, 1, 62, 84
3, 47520, Note_off_c, 1, 62, 0
3, 47568, Note_on_c, 1, 62, 84
3, 47604, Note_off_c, 1, 62, 0
3, 47616, Note_on_c, 1, 61, 84
3, 47712, Note_off_c, 1, 61, 0
3, 47760, Note_on_c, 1, 61, 84
3, 47796, Note_off_c, 1, 61, 0
3, 47808, Note_on_c, 1, 59, 84
3, 47904, Note_off_c, 1, 59, 0
3, 47952, Note_on_c, 1, 59, 84
3, 47988, Note_off_c, 1, 59, 0
3, 48000, Note_on_c, 1, 57, 84
3, 48096, Note_off_c, 1, 57, 0
3, 48096, Note_on_c, 1, 54, 84
3, 48192, Note_off_c, 1, 54, 0
3, 48192, Note_on_c, 1, 59, 84
3, 48240, Note_off_c, 1, 59, 0
3, 48240, Note_on_c, 1, 57, 84
3, 48288, Note_off_c, 1, 57, 0
3, 48288, Note_on_c, 1, 55, 84
3, 48384, Note_off_c, 1, 55, 0
3, 48384, Note_on_c, 1, 50, 84
3, 48480, Note_off_c, 1, 50, 0
3, 48720, Note_on_c, 1, 61, 84
3, 48768, Note_off_c, 1, 61, 0
3, 48768, Note_on_c, 1, 59, 84
3, 48792, Note_off_c, 1, 59, 0
3, 48792, Note_on_c, 1, 66, 84
3, 48816, Note_off_c, 1, 66, 0
3, 48816, Note_on_c, 1, 62, 84
3, 48840, Note_off_c, 1, 62, 0
3, 48840, Note_on_c, 1, 59, 84
3, 48864, Note_off_c, 1, 59, 0
3, 48864, Note_on_c, 1, 64, 84
3, 48888, Note_off_c, 1, 64, 0
3, 48888, Note_on_c, 1, 59, 84
3, 48912, Note_off_c, 1, 59, 0
3, 48912, Note_on_c, 1, 56, 84
3, 48936, Note_off_c, 1, 56, 0
3, 48936, Note_on_c, 1, 52, 84
3, 48960, Note_off_c, 1, 52, 0
3, 48960, Note_on_c, 1, 57, 84
3, 49056, Note_off_c, 1, 57, 0
3, 49392, Note_on_c, 1, 61, 84
3, 49416, Note_off_c, 1, 61, 0
3, 49416, Note_on_c, 1, 59, 84
3, 49440, Note_off_c, 1, 59, 0
3, 49440, Note_on_c, 1, 61, 84
3, 49464, Note_off_c, 1, 61, 0
3, 49464, Note_on_c, 1, 59, 84
3, 49488, Note_off_c, 1, 59, 0
3, 49488, Note_on_c, 1, 61, 84
3, 49512, Note_off_c, 1, 61, 0
3, 49512, Note_on_c, 1, 59, 84
3, 49536, Note_off_c, 1, 59, 0
3, 49536, Note_on_c, 1, 61, 84
3, 49632, Note_off_c, 1, 61, 0
3, 50448, Note_on_c, 1, 62, 84
3, 50484, Note_off_c, 1, 62, 0
3, 50496, Note_on_c, 1, 59, 84
3, 50592, Note_off_c, 1, 59, 0
3, 50592, Note_on_c, 1, 57, 84
3, 50688, Note_off_c, 1, 57, 0
3, 50688, Note_on_c, 1, 54, 84
3, 50784, Note_off_c, 1, 54, 0
3, 50784, Note_on_c, 1, 52, 84
3, 50880, Note_off_c, 1, 52, 0
3, 50880, Note_on_c, 1, 52, 84
3, 50976, Note_off_c, 1, 52, 0
3, 51024, Note_on_c, 1, 61, 84
3, 51072, Note_off_c, 1, 61, 0
3, 51072, Note_on_c, 1, 59, 84
3, 51168, Note_off_c, 1, 59, 0
3, 51168, Note_on_c, 1, 59, 84
3, 51216, Note_off_c, 1, 59, 0
3, 51216, Note_on_c, 1, 62, 84
3, 51264, Note_off_c, 1, 62, 0
3, 51264, Note_on_c, 1, 61, 84
3, 51288, Note_off_c, 1, 61, 0
3, 51288, Note_on_c, 1, 62, 84
3, 51312, Note_off_c, 1, 62, 0
3, 51312, Note_on_c, 1, 64, 84
3, 51336, Note_off_c, 1, 64, 0
3, 51336, Note_on_c, 1, 62, 84
3, 51360, Note_off_c, 1, 62, 0
3, 51360, Note_on_c, 1, 61, 84
3, 51384, Note_off_c, 1, 61, 0
3, 51384, Note_on_c, 1, 62, 84
3, 51408, Note_off_c, 1, 62, 0
3, 51408, Note_on_c, 1, 64, 84
3, 51432, Note_off_c, 1, 64, 0
3, 51432, Note_on_c, 1, 62, 84
3, 51456, Note_off_c, 1, 62, 0
3, 51456, Note_on_c, 1, 61, 84
3, 51480, Note_off_c, 1, 61, 0
3, 51480, Note_on_c, 1, 62, 84
3, 51504, Note_off_c, 1, 62, 0
3, 51504, Note_on_c, 1, 64, 84
3, 51528, Note_off_c, 1, 64, 0
3, 51528, Note_on_c, 1, 62, 84
3, 51552, Note_off_c, 1, 62, 0
3, 51552, Note_on_c, 1, 61, 84
3, 51576, Note_off_c, 1, 61, 0
3, 51576, Note_on_c, 1, 62, 84
3, 51600, Note_off_c, 1, 62, 0
3, 51600, Note_on_c, 1, 64, 84
3, 51624, Note_off_c, 1, 64, 0
3, 51624, Note_on_c, 1, 62, 84
3, 51648, Note_off_c, 1, 62, 0
3, 51648, Note_on_c, 1, 61, 84
3, 51744, Note_off_c, 1, 61, 0
3, 51744, Note_on_c, 1, 61, 84
3, 51768, Note_off_c, 1, 61, 0
3, 51768, Note_on_c, 1, 64, 84
3, 51792, Note_off_c, 1, 64, 0
3, 51792, Note_on_c, 1, 61, 84
3, 51816, Note_off_c, 1, 61, 0
3, 51816, Note_on_c, 1, 57, 84
3, 51840, Note_off_c, 1, 57, 0
3, 51840, Note_on_c, 1, 54, 84
3, 51888, Note_off_c, 1, 54, 0
3, 51888, Note_on_c, 1, 66, 84
3, 51936, Note_off_c, 1, 66, 0
3, 51936, Note_on_c, 1, 67, 84
3, 51984, Note_off_c, 1, 67, 0
3, 51984, Note_on_c, 1, 64, 84
3, 52032, Note_off_c, 1, 64, 0
3, 52032, Note_on_c, 1, 69, 84
3, 52080, Note_off_c, 1, 69, 0
3, 52080, Note_on_c, 1, 66, 84
3, 52128, Note_off_c, 1, 66, 0
3, 52128, Note_on_c, 1, 71, 84
3, 52176, Note_off_c, 1, 71, 0
3, 52176, Note_on_c, 1, 59, 84
3, 52224, Note_off_c, 1, 59, 0
3, 52224, Note_on_c, 1, 61, 84
3, 52272, Note_off_c, 1, 61, 0
3, 52272, Note_on_c, 1, 57, 84
3, 52320, Note_off_c, 1, 57, 0
3, 52320, Note_on_c, 1, 62, 84
3, 52368, Note_off_c, 1, 62, 0
3, 52368, Note_on_c, 1, 61, 84
3, 52416, Note_off_c, 1, 61, 0
3, 52416, Note_on_c, 1, 59, 84
3, 52464, Note_off_c, 1, 59, 0
3, 52464, Note_on_c, 1, 55, 84
3, 52512, Note_off_c, 1, 55, 0
3, 52512, Note_on_c, 1, 57, 84
3, 52560, Note_off_c, 1, 57, 0
3, 52560, Note_on_c, 1, 45, 84
3, 52608, Note_off_c, 1, 45, 0
3, 52608, Note_on_c, 1, 50, 84
3, 52656, Note_off_c, 1, 50, 0
3, 53040, Note_on_c, 1, 54, 84
3, 53064, Note_off_c, 1, 54, 0
3, 53064, Note_on_c, 1, 52, 84
3, 53088, Note_off_c, 1, 52, 0
3, 53088, Note_on_c, 1, 54, 84
3, 53112, Note_off_c, 1, 54, 0
3, 53112, Note_on_c, 1, 52, 84
3, 53136, Note_off_c, 1, 52, 0
3, 53136, Note_on_c, 1, 54, 84
3, 53160, Note_off_c, 1, 54, 0
3, 53160, Note_on_c, 1, 52, 84
3, 53184, Note_off_c, 1, 52, 0
3, 53184, Note_on_c, 1, 54, 84
3, 53280, Note_off_c, 1, 54, 0
3, 55296, Note_on_c, 1, 57, 84
3, 55320, Note_off_c, 1, 57, 0
3, 55320, Note_on_c, 1, 59, 84
3, 55344, Note_off_c, 1, 59, 0
3, 55344, Note_on_c, 1, 61, 84
3, 55368, Note_off_c, 1, 61, 0
3, 55368, Note_on_c, 1, 59, 84
3, 55392, Note_off_c, 1, 59, 0
3, 55392, Note_on_c, 1, 57, 84
3, 55416, Note_off_c, 1, 57, 0
3, 55416, Note_on_c, 1, 59, 84
3, 55440, Note_off_c, 1, 59, 0
3, 55440, Note_on_c, 1, 61, 84
3, 55464, Note_off_c, 1, 61, 0
3, 55464, Note_on_c, 1, 59, 84
3, 55488, Note_off_c, 1, 59, 0
3, 55488, Note_on_c, 1, 57, 84
3, 55512, Note_off_c, 1, 57, 0
3, 55512, Note_on_c, 1, 59, 84
3, 55536, Note_off_c, 1, 59, 0
3, 55536, Note_on_c, 1, 61, 84
3, 55560, Note_off_c, 1, 61, 0
3, 55560, Note_on_c, 1, 59, 84
3, 55584, Note_off_c, 1, 59, 0
3, 55584, Note_on_c, 1, 57, 84
3, 55608, Note_off_c, 1, 57, 0
3, 55608, Note_on_c, 1, 59, 84
3, 55632, Note_off_c, 1, 59, 0
3, 55632, Note_on_c, 1, 61, 84
3, 55656, Note_off_c, 1, 61, 0
3, 55656, Note_on_c, 1, 59, 84
3, 55680, Note_off_c, 1, 59, 0
3, 55680, Note_on_c, 1, 57, 84
3, 55728, Note_off_c, 1, 57, 0
3, 55968, Note_on_c, 1, 66, 84
3, 55992, Note_off_c, 1, 66, 0
3, 55992, Note_on_c, 1, 64, 84
3, 56016, Note_off_c, 1, 64, 0
3, 56016, Note_on_c, 1, 66, 84
3, 56040, Note_off_c, 1, 66, 0
3, 56040, Note_on_c, 1, 61, 84
3, 56064, Note_off_c, 1, 61, 0
3, 56064, Note_on_c, 1, 62, 84
3, 56088, Note_off_c, 1, 62, 0
3, 56088, Note_on_c, 1, 61, 84
3, 56112, Note_off_c, 1, 61, 0
3, 56112, Note_on_c, 1, 62, 84
3, 56136, Note_off_c, 1, 62, 0
3, 56136, Note_on_c, 1, 59, 84
3, 56160, Note_off_c, 1, 59, 0
3, 56160, Note_on_c, 1, 64, 84
3, 56184, Note_off_c, 1, 64, 0
3, 56184, Note_on_c, 1, 62, 84
3, 56208, Note_off_c, 1, 62, 0
3, 56208, Note_on_c, 1, 64, 84
3, 56232, Note_off_c, 1, 64, 0
3, 56232, Note_on_c, 1, 59, 84
3, 56256, Note_off_c, 1, 59, 0
3, 56256, Note_on_c, 1, 61, 84
3, 56280, Note_off_c, 1, 61, 0
3, 56280, Note_on_c, 1, 59, 84
3, 56304, Note_off_c, 1, 59, 0
3, 56304, Note_on_c, 1, 61, 84
3, 56328, Note_off_c, 1, 61, 0
3, 56328, Note_on_c, 1, 57, 84
3, 56352, Note_off_c, 1, 57, 0
3, 56352, Note_on_c, 1, 62, 84
3, 56376, Note_off_c, 1, 62, 0
3, 56376, Note_on_c, 1, 61, 84
3, 56400, Note_off_c, 1, 61, 0
3, 56400, Note_on_c, 1, 62, 84
3, 56424, Note_off_c, 1, 62, 0
3, 56424, Note_on_c, 1, 57, 84
3, 56448, Note_off_c, 1, 57, 0
3, 56448, Note_on_c, 1, 59, 84
3, 56472, Note_off_c, 1, 59, 0
3, 56472, Note_on_c, 1, 57, 84
3, 56496, Note_off_c, 1, 57, 0
3, 56496, Note_on_c, 1, 59, 84
3, 56520, Note_off_c, 1, 59, 0
3, 56520, Note_on_c, 1, 56, 84
3, 56544, Note_off_c, 1, 56, 0
3, 56544, Note_on_c, 1, 61, 84
3, 56568, Note_off_c, 1, 61, 0
3, 56568, Note_on_c, 1, 59, 84
3, 56592, Note_off_c, 1, 59, 0
3, 56592, Note_on_c, 1, 61, 84
3, 56616, Note_off_c, 1, 61, 0
3, 56616, Note_on_c, 1, 56, 84
3, 56640, Note_off_c, 1, 56, 0
3, 56640, Note_on_c, 1, 57, 84
3, 56664, Note_off_c, 1, 57, 0
3, 56664, Note_on_c, 1, 56, 84
3, 56688, Note_off_c, 1, 56, 0
3, 56688, Note_on_c, 1, 57, 84
3, 56712, Note_off_c, 1, 57, 0
3, 56712, Note_on_c, 1, 54, 84
3, 56736, Note_off_c, 1, 54, 0
3, 56736, Note_on_c, 1, 59, 84
3, 56760, Note_off_c, 1, 59, 0
3, 56760, Note_on_c, 1, 57, 84
3, 56784, Note_off_c, 1, 57, 0
3, 56784, Note_on_c, 1, 59, 84
3, 56808, Note_off_c, 1, 59, 0
3, 56808, Note_on_c, 1, 54, 84
3, 56832, Note_off_c, 1, 54, 0
3, 56832, Note_on_c, 1, 56, 84
3, 56856, Note_off_c, 1, 56, 0
3, 56856, Note_on_c, 1, 54, 84
3, 56880, Note_off_c, 1, 54, 0
3, 56880, Note_on_c, 1, 56, 84
3, 56904, Note_off_c, 1, 56, 0
3, 56904, Note_on_c, 1, 52, 84
3, 56928, Note_off_c, 1, 52, 0
3, 56928, Note_on_c, 1, 57, 84
3, 57048, Note_off_c, 1, 57, 0
3, 57048, Note_on_c, 1, 59, 84
3, 57072, Note_off_c, 1, 59, 0
3, 57072, Note_on_c, 1, 57, 84
3, 57096, Note_off_c, 1, 57, 0
3, 57096, Note_on_c, 1, 59, 84
3, 57120, Note_off_c, 1, 59, 0
3, 57120, Note_on_c, 1, 56, 84
3, 57192, Note_off_c, 1, 56, 0
3, 57192, Note_on_c, 1, 57, 84
3, 57216, Note_off_c, 1, 57, 0
3, 57216, Note_on_c, 1, 57, 84
3, 57312, Note_off_c, 1, 57, 0
3, 57312, Note_on_c, 1, 52, 84
3, 57336, Note_off_c, 1, 52, 0
3, 57336, Note_on_c, 1, 57, 84
3, 57360, Note_off_c, 1, 57, 0
3, 57360, Note_on_c, 1, 52, 84
3, 57384, Note_off_c, 1, 52, 0
3, 57384, Note_on_c, 1, 49, 84
3, 57408, Note_off_c, 1, 49, 0
3, 57504, Note_on_c, 1, 49, 84
3, 57528, Note_off_c, 1, 49, 0
3, 57528, Note_on_c, 1, 52, 84
3, 57552, Note_off_c, 1, 52, 0
3, 57552, Note_on_c, 1, 49, 84
3, 57576, Note_off_c, 1, 49, 0
3, 57576, Note_on_c, 1, 45, 84
3, 57600, Note_off_c, 1, 45, 0
3, 57600, Note_on_c, 1, 42, 84
3, 57696, Note_off_c, 1, 42, 0
3, 57696, Note_on_c, 1, 43, 84
3, 57888, Note_off_c, 1, 43, 0
3, 57888, Note_on_c, 1, 45, 84
3, 58080, Note_off_c, 1, 45, 0
3, 58080, Note_on_c, 1, 47, 84
3, 58176, Note_off_c, 1, 47, 0
3, 58176, Note_on_c, 1, 49, 84
3, 58224, Note_off_c, 1, 49, 0
3, 58224, Note_on_c, 1, 50, 84
3, 58320, Note_off_c, 1, 50, 0
3, 58320, Note_on_c, 1, 49, 84
3, 58368, Note_off_c, 1, 49, 0
3, 58368, Note_on_c, 1, 50, 84
3, 58416, Note_off_c, 1, 50, 0
3, 58416, Note_on_c, 1, 54, 84
3, 58464, Note_off_c, 1, 54, 0
3, 58464, Note_on_c, 1, 55, 84
3, 58512, Note_off_c, 1, 55, 0
3, 58512, Note_on_c, 1, 64, 84
3, 58560, Note_off_c, 1, 64, 0
3, 58560, Note_on_c, 1, 57, 84
3, 58752, Note_off_c, 1, 57, 0
3, 58752, Note_on_c, 1, 57, 84
3, 58848, Note_off_c, 1, 57, 0
3, 59136, Note_on_c, 1, 62, 84
3, 59160, Note_off_c, 1, 62, 0
3, 59160, Note_on_c, 1, 64, 84
3, 59184, Note_off_c, 1, 64, 0
3, 59184, Note_on_c, 1, 66, 84
3, 59208, Note_off_c, 1, 66, 0
3, 59208, Note_on_c, 1, 64, 84
3, 59232, Note_off_c, 1, 64, 0
3, 59232, Note_on_c, 1, 62, 84
3, 59256, Note_off_c, 1, 62, 0
3, 59256, Note_on_c, 1, 64, 84
3, 59280, Note_off_c, 1, 64, 0
3, 59280, Note_on_c, 1, 66, 84
3, 59304, Note_off_c, 1, 66, 0
3, 59304, Note_on_c, 1, 64, 84
3, 59328, Note_off_c, 1, 64, 0
3, 59328, Note_on_c, 1, 62, 84
3, 59352, Note_off_c, 1, 62, 0
3, 59352, Note_on_c, 1, 64, 84
3, 59376, Note_off_c, 1, 64, 0
3, 59376, Note_on_c, 1, 66, 84
3, 59400, Note_off_c, 1, 66, 0
3, 59400, Note_on_c, 1, 64, 84
3, 59424, Note_off_c, 1, 64, 0
3, 59424, Note_on_c, 1, 62, 84
3, 59472, Note_off_c, 1, 62, 0
3, 59472, Note_on_c, 1, 62, 84
3, 59520, Note_off_c, 1, 62, 0
3, 59520, Note_on_c, 1, 62, 84
3, 59616, Note_off_c, 1, 62, 0
3, 59664, Note_on_c, 1, 61, 84
3, 59700, Note_off_c, 1, 61, 0
3, 59712, Note_on_c, 1, 61, 84
3, 59808, Note_off_c, 1, 61, 0
3, 59856, Note_on_c, 1, 59, 84
3, 59892, Note_off_c, 1, 59, 0
3, 59904, Note_on_c, 1, 59, 84
3, 60000, Note_off_c, 1, 59, 0
3, 60048, Note_on_c, 1, 57, 84
3, 60084, Note_off_c, 1, 57, 0
3, 60096, Note_on_c, 1, 57, 84
3, 60192, Note_off_c, 1, 57, 0
3, 60240, Note_on_c, 1, 55, 84
3, 60276, Note_off_c, 1, 55, 0
3, 60288, Note_on_c, 1, 55, 84
3, 60384, Note_off_c, 1, 55, 0
3, 60384, Note_on_c, 1, 54, 84
3, 60432, Note_off_c, 1, 54, 0
3, 60432, Note_on_c, 1, 57, 84
3, 60480, Note_off_c, 1, 57, 0
3, 60480, Note_on_c, 1, 59, 84
3, 60576, Note_off_c, 1, 59, 0
3, 60576, Note_on_c, 1, 57, 84
3, 60672, Note_off_c, 1, 57, 0
3, 60672, Note_on_c, 1, 57, 84
3, 60768, Note_off_c, 1, 57, 0
3, 60816, Note_on_c, 1, 57, 84
3, 60864, Note_off_c, 1, 57, 0
3, 60864, Note_on_c, 1, 59, 84
3, 60960, Note_off_c, 1, 59, 0
3, 61008, Note_on_c, 1, 61, 84
3, 61056, Note_off_c, 1, 61, 0
3, 61056, Note_on_c, 1, 62, 84
3, 61152, Note_off_c, 1, 62, 0
3, 61200, Note_on_c, 1, 59, 84
3, 61248, Note_off_c, 1, 59, 0
3, 61248, Note_on_c, 1, 55, 84
3, 61344, Note_off_c, 1, 55, 0
3, 61392, Note_on_c, 1, 54, 84
3, 61440, Note_off_c, 1, 54, 0
3, 61440, Note_on_c, 1, 54, 84
3, 61536, Note_off_c, 1, 54, 0
3, 61824, Note_on_c, 1, 59, 84
3, 61848, Note_off_c, 1, 59, 0
3, 61848, Note_on_c, 1, 61, 84
3, 61872, Note_off_c, 1, 61, 0
3, 61872, Note_on_c, 1, 62, 84
3, 61896, Note_off_c, 1, 62, 0
3, 61896, Note_on_c, 1, 61, 84
3, 61920, Note_off_c, 1, 61, 0
3, 61920, Note_on_c, 1, 59, 84
3, 61944, Note_off_c, 1, 59, 0
3, 61944, Note_on_c, 1, 61, 84
3, 61968, Note_off_c, 1, 61, 0
3, 61968, Note_on_c, 1, 62, 84
3, 61992, Note_off_c, 1, 62, 0
3, 61992, Note_on_c, 1, 61, 84
3, 62016, Note_off_c, 1, 61, 0
3, 62016, Note_on_c, 1, 59, 84
3, 62040, Note_off_c, 1, 59, 0
3, 62040, Note_on_c, 1, 61, 84
3, 62064, Note_off_c, 1, 61, 0
3, 62064, Note_on_c, 1, 62, 84
3, 62088, Note_off_c, 1, 62, 0
3, 62088, Note_on_c, 1, 61, 84
3, 62112, Note_off_c, 1, 61, 0
3, 62112, Note_on_c, 1, 59, 84
3, 62136, Note_off_c, 1, 59, 0
3, 62136, Note_on_c, 1, 61, 84
3, 62160, Note_off_c, 1, 61, 0
3, 62160, Note_on_c, 1, 62, 84
3, 62184, Note_off_c, 1, 62, 0
3, 62184, Note_on_c, 1, 61, 84
3, 62208, Note_off_c, 1, 61, 0
3, 62208, Note_on_c, 1, 59, 84
3, 62304, Note_off_c, 1, 59, 0
3, 62352, Note_on_c, 1, 64, 84
3, 62400, Note_off_c, 1, 64, 0
3, 62400, Note_on_c, 1, 66, 84
3, 62478, Note_off_c, 1, 66, 0
3, 62544, Note_on_c, 1, 62, 84
3, 62580, Note_off_c, 1, 62, 0
3, 62592, Note_on_c, 1, 61, 84
3, 62688, Note_off_c, 1, 61, 0
3, 62736, Note_on_c, 1, 69, 84
3, 62772, Note_off_c, 1, 69, 0
3, 62784, Note_on_c, 1, 59, 84
3, 62880, Note_off_c, 1, 59, 0
3, 62928, Note_on_c, 1, 59, 84
3, 62964, Note_off_c, 1, 59, 0
3, 62976, Note_on_c, 1, 67, 84
3, 63072, Note_off_c, 1, 67, 0
3, 63120, Note_on_c, 1, 57, 84
3, 63156, Note_off_c, 1, 57, 0
3, 63168, Note_on_c, 1, 66, 84
3, 63264, Note_off_c, 1, 66, 0
3, 63312, Note_on_c, 1, 56, 84
3, 63348, Note_off_c, 1, 56, 0
3, 63360, Note_on_c, 1, 54, 84
3, 63456, Note_off_c, 1, 54, 0
3, 63744, Note_on_c, 1, 59, 84
3, 63840, Note_off_c, 1, 59, 0
3, 63840, Note_on_c, 1, 67, 84
3, 63864, Note_off_c, 1, 67, 0
3, 63864, Note_on_c, 1, 66, 84
3, 63888, Note_off_c, 1, 66, 0
3, 63888, Note_on_c, 1, 67, 84
3, 63912, Note_off_c, 1, 67, 0
3, 63912, Note_on_c, 1, 62, 84
3, 63936, Note_off_c, 1, 62, 0
3, 63936, Note_on_c, 1, 64, 84
3, 63960, Note_off_c, 1, 64, 0
3, 63960, Note_on_c, 1, 62, 84
3, 63984, Note_off_c, 1, 62, 0
3, 63984, Note_on_c, 1, 64, 84
3, 64008, Note_off_c, 1, 64, 0
3, 64008, Note_on_c, 1, 61, 84
3, 64032, Note_off_c, 1, 61, 0
3, 64032, Note_on_c, 1, 66, 84
3, 64056, Note_off_c, 1, 66, 0
3, 64056, Note_on_c, 1, 64, 84
3, 64080, Note_off_c, 1, 64, 0
3, 64080, Note_on_c, 1, 66, 84
3, 64104, Note_off_c, 1, 66, 0
3, 64104, Note_on_c, 1, 61, 84
3, 64128, Note_off_c, 1, 61, 0
3, 64128, Note_on_c, 1, 62, 84
3, 64224, Note_off_c, 1, 62, 0
3, 64248, Note_on_c, 1, 71, 84
3, 64272, Note_off_c, 1, 71, 0
3, 64272, Note_on_c, 1, 70, 84
3, 64296, Note_off_c, 1, 70, 0
3, 64296, Note_on_c, 1, 71, 84
3, 64440, Note_off_c, 1, 71, 0
3, 64440, Note_on_c, 1, 71, 84
3, 64464, Note_off_c, 1, 71, 0
3, 64464, Note_on_c, 1, 70, 84
3, 64488, Note_off_c, 1, 70, 0
3, 64488, Note_on_c, 1, 71, 84
3, 64632, Note_off_c, 1, 71, 0
3, 64632, Note_on_c, 1, 71, 84
3, 64656, Note_off_c, 1, 71, 0
3, 64656, Note_on_c, 1, 70, 84
3, 64680, Note_off_c, 1, 70, 0
3, 64680, Note_on_c, 1, 71, 84
3, 64824, Note_off_c, 1, 71, 0
3, 64824, Note_on_c, 1, 71, 84
3, 64848, Note_off_c, 1, 71, 0
3, 64848, Note_on_c, 1, 70, 84
3, 64872, Note_off_c, 1, 70, 0
3, 64872, Note_on_c, 1, 71, 84
3, 64992, Note_off_c, 1, 71, 0
3, 65016, Note_on_c, 1, 73, 84
3, 65040, Note_off_c, 1, 73, 0
3, 65040, Note_on_c, 1, 71, 84
3, 65064, Note_off_c, 1, 71, 0
3, 65064, Note_on_c, 1, 73, 84
3, 65088, Note_off_c, 1, 73, 0
3, 65088, Note_on_c, 1, 69, 84
3, 65184, Note_off_c, 1, 69, 0
3, 65208, Note_on_c, 1, 66, 84
3, 65232, Note_off_c, 1, 66, 0
3, 65232, Note_on_c, 1, 71, 84
3, 65256, Note_off_c, 1, 71, 0
3, 65256, Note_on_c, 1, 68, 84
3, 65280, Note_off_c, 1, 68, 0
3, 65280, Note_on_c, 1, 65, 84
3, 65376, Note_off_c, 1, 65, 0
3, 65400, Note_on_c, 1, 61, 84
3, 65424, Note_off_c, 1, 61, 0
3, 65424, Note_on_c, 1, 66, 84
3, 65448, Note_off_c, 1, 66, 0
3, 65448, Note_on_c, 1, 62, 84
3, 65472, Note_off_c, 1, 62, 0
3, 65472, Note_on_c, 1, 59, 84
3, 65616, Note_off_c, 1, 59, 0
3, 65616, Note_on_c, 1, 57, 84
3, 65664, Note_off_c, 1, 57, 0
3, 65664, Note_on_c, 1, 59, 84
3, 65712, Note_off_c, 1, 59, 0
3, 65712, Note_on_c, 1, 56, 84
3, 65760, Note_off_c, 1, 56, 0
3, 65760, Note_on_c, 1, 61, 84
3, 65808, Note_off_c, 1, 61, 0
3, 65808, Note_on_c, 1, 49, 84
3, 65856, Note_off_c, 1, 49, 0
3, 65856, Note_on_c, 1, 54, 84
3, 65952, Note_off_c, 1, 54, 0
3, 66000, Note_on_c, 1, 56, 84
3, 66048, Note_off_c, 1, 56, 0
3, 66048, Note_on_c, 1, 57, 84
3, 66096, Note_off_c, 1, 57, 0
3, 66096, Note_on_c, 1, 59, 84
3, 66144, Note_off_c, 1, 59, 0
3, 66144, Note_on_c, 1, 61, 84
3, 66192, Note_off_c, 1, 61, 0
3, 66192, Note_on_c, 1, 49, 84
3, 66240, Note_off_c, 1, 49, 0
3, 66240, Note_on_c, 1, 54, 84
3, 66336, Note_off_c, 1, 54, 0
3, 66576, Note_on_c, 1, 57, 84
3, 66612, Note_off_c, 1, 57, 0
3, 66624, Note_on_c, 1, 56, 84
3, 66720, Note_off_c, 1, 56, 0
3, 66768, Note_on_c, 1, 56, 84
3, 66804, Note_off_c, 1, 56, 0
3, 66816, Note_on_c, 1, 54, 84
3, 66912, Note_off_c, 1, 54, 0
3, 66960, Note_on_c, 1, 54, 84
3, 66996, Note_off_c, 1, 54, 0
3, 67008, Note_on_c, 1, 52, 84
3, 67104, Note_off_c, 1, 52, 0
3, 67152, Note_on_c, 1, 52, 84
3, 67188, Note_off_c, 1, 52, 0
3, 67200, Note_on_c, 1, 51, 84
3, 67296, Note_off_c, 1, 51, 0
3, 67344, Note_on_c, 1, 51, 84
3, 67392, Note_off_c, 1, 51, 0
3, 67392, Note_on_c, 1, 49, 84
3, 67512, Note_off_c, 1, 49, 0
3, 67512, Note_on_c, 1, 54, 84
3, 67536, Note_off_c, 1, 54, 0
3, 67536, Note_on_c, 1, 53, 84
3, 67560, Note_off_c, 1, 53, 0
3, 67560, Note_on_c, 1, 54, 84
3, 67584, Note_off_c, 1, 54, 0
3, 67608, Note_on_c, 1, 56, 84
3, 67632, Note_off_c, 1, 56, 0
3, 67632, Note_on_c, 1, 57, 84
3, 67656, Note_off_c, 1, 57, 0
3, 67656, Note_on_c, 1, 59, 84
3, 67680, Note_off_c, 1, 59, 0
3, 67680, Note_on_c, 1, 56, 84
3, 67692, Note_off_c, 1, 56, 0
3, 67692, Note_on_c, 1, 54, 84
3, 67704, Note_off_c, 1, 54, 0
3, 67704, Note_on_c, 1, 56, 84
3, 67752, Note_off_c, 1, 56, 0
3, 67752, Note_on_c, 1, 57, 84
3, 67776, Note_off_c, 1, 57, 0
3, 67776, Note_on_c, 1, 57, 84
3, 67824, Note_off_c, 1, 57, 0
3, 67824, Note_on_c, 1, 61, 84
3, 67872, Note_off_c, 1, 61, 0
3, 67872, Note_on_c, 1, 61, 84
3, 67920, Note_off_c, 1, 61, 0
3, 67920, Note_on_c, 1, 61, 84
3, 67968, Note_off_c, 1, 61, 0
3, 67968, Note_on_c, 1, 61, 84
3, 68064, Note_off_c, 1, 61, 0
3, 68208, Note_on_c, 1, 57, 84
3, 68232, Note_off_c, 1, 57, 0
3, 68232, Note_on_c, 1, 56, 84
3, 68256, Note_off_c, 1, 56, 0
3, 68256, Note_on_c, 1, 57, 84
3, 68280, Note_off_c, 1, 57, 0
3, 68280, Note_on_c, 1, 56, 84
3, 68304, Note_off_c, 1, 56, 0
3, 68304, Note_on_c, 1, 57, 84
3, 68328, Note_off_c, 1, 57, 0
3, 68328, Note_on_c, 1, 56, 84
3, 68352, Note_off_c, 1, 56, 0
3, 68352, Note_on_c, 1, 57, 84
3, 68448, Note_off_c, 1, 57, 0
3, 68592, Note_on_c, 1, 54, 84
3, 68616, Note_off_c, 1, 54, 0
3, 68616, Note_on_c, 1, 53, 84
3, 68640, Note_off_c, 1, 53, 0
3, 68640, Note_on_c, 1, 54, 84
3, 68664, Note_off_c, 1, 54, 0
3, 68664, Note_on_c, 1, 53, 84
3, 68688, Note_off_c, 1, 53, 0
3, 68688, Note_on_c, 1, 54, 84
3, 68712, Note_off_c, 1, 54, 0
3, 68712, Note_on_c, 1, 53, 84
3, 68736, Note_off_c, 1, 53, 0
3, 68736, Note_on_c, 1, 54, 84
3, 68772, Note_off_c, 1, 54, 0
3, 68784, Note_on_c, 1, 42, 84
3, 68832, Note_off_c, 1, 42, 0
3, 69648, Note_on_c, 1, 59, 84
3, 69684, Note_off_c, 1, 59, 0
3, 69696, Note_on_c, 1, 59, 84
3, 69774, Note_off_c, 1, 59, 0
3, 69792, Note_on_c, 1, 57, 84
3, 69816, Note_off_c, 1, 57, 0
3, 69816, Note_on_c, 1, 59, 84
3, 69840, Note_off_c, 1, 59, 0
3, 69840, Note_on_c, 1, 57, 84
3, 69864, Note_off_c, 1, 57, 0
3, 69864, Note_on_c, 1, 59, 84
3, 69888, Note_off_c, 1, 59, 0
3, 69888, Note_on_c, 1, 56, 84
3, 69984, Note_off_c, 1, 56, 0
3, 69984, Note_on_c, 1, 61, 84
3, 70104, Note_off_c, 1, 61, 0
3, 70104, Note_on_c, 1, 62, 84
3, 70128, Note_off_c, 1, 62, 0
3, 70128, Note_on_c, 1, 61, 84
3, 70152, Note_off_c, 1, 61, 0
3, 70152, Note_on_c, 1, 62, 84
3, 70176, Note_off_c, 1, 62, 0
3, 70176, Note_on_c, 1, 59, 84
3, 70296, Note_off_c, 1, 59, 0
3, 70296, Note_on_c, 1, 61, 84
3, 70320, Note_off_c, 1, 61, 0
3, 70320, Note_on_c, 1, 57, 84
3, 70344, Note_off_c, 1, 57, 0
3, 70344, Note_on_c, 1, 59, 84
3, 70368, Note_off_c, 1, 59, 0
3, 70368, Note_on_c, 1, 56, 84
3, 70464, Note_off_c, 1, 56, 0
3, 70464, Note_on_c, 1, 57, 84
3, 70560, Note_off_c, 1, 57, 0
3, 70560, Note_on_c, 1, 57, 84
3, 70584, Note_off_c, 1, 57, 0
3, 70584, Note_on_c, 1, 61, 84
3, 70608, Note_off_c, 1, 61, 0
3, 70608, Note_on_c, 1, 57, 84
3, 70632, Note_off_c, 1, 57, 0
3, 70632, Note_on_c, 1, 54, 84
3, 70656, Note_off_c, 1, 54, 0
3, 71280, Note_on_c, 1, 63, 84
3, 71304, Note_off_c, 1, 63, 0
3, 71304, Note_on_c, 1, 61, 84
3, 71328, Note_off_c, 1, 61, 0
3, 71328, Note_on_c, 1, 63, 84
3, 71352, Note_off_c, 1, 63, 0
3, 71352, Note_on_c, 1, 61, 84
3, 71376, Note_off_c, 1, 61, 0
3, 71376, Note_on_c, 1, 63, 84
3, 71400, Note_off_c, 1, 63, 0
3, 71400, Note_on_c, 1, 61, 84
3, 71424, Note_off_c, 1, 61, 0
3, 71424, Note_on_c, 1, 60, 84
3, 71472, Note_off_c, 1, 60, 0
3, 71616, Note_on_c, 1, 61, 84
3, 71640, Note_off_c, 1, 61, 0
3, 71640, Note_on_c, 1, 63, 84
3, 71664, Note_off_c, 1, 63, 0
3, 71664, Note_on_c, 1, 64, 84
3, 71688, Note_off_c, 1, 64, 0
3, 71688, Note_on_c, 1, 63, 84
3, 71712, Note_off_c, 1, 63, 0
3, 71712, Note_on_c, 1, 61, 84
3, 71736, Note_off_c, 1, 61, 0
3, 71736, Note_on_c, 1, 63, 84
3, 71760, Note_off_c, 1, 63, 0
3, 71760, Note_on_c, 1, 64, 84
3, 71784, Note_off_c, 1, 64, 0
3, 71784, Note_on_c, 1, 63, 84
3, 71808, Note_off_c, 1, 63, 0
3, 71808, Note_on_c, 1, 61, 84
3, 71856, Note_off_c, 1, 61, 0
3, 72240, Note_on_c, 1, 64, 84
3, 72264, Note_off_c, 1, 64, 0
3, 72264, Note_on_c, 1, 63, 84
3, 72288, Note_off_c, 1, 63, 0
3, 72288, Note_on_c, 1, 64, 84
3, 72312, Note_off_c, 1, 64, 0
3, 72312, Note_on_c, 1, 63, 84
3, 72336, Note_off_c, 1, 63, 0
3, 72336, Note_on_c, 1, 64, 84
3, 72360, Note_off_c, 1, 64, 0
3, 72360, Note_on_c, 1, 63, 84
3, 72384, Note_off_c, 1, 63, 0
3, 72384, Note_on_c, 1, 64, 84
3, 72462, Note_off_c, 1, 64, 0
3, 72528, Note_on_c, 1, 61, 84
3, 72564, Note_off_c, 1, 61, 0
3, 72576, Note_on_c, 1, 57, 84
3, 72672, Note_off_c, 1, 57, 0
3, 72720, Note_on_c, 1, 63, 84
3, 72756, Note_off_c, 1, 63, 0
3, 72768, Note_on_c, 1, 61, 84
3, 72864, Note_off_c, 1, 61, 0
3, 72912, Note_on_c, 1, 64, 84
3, 72960, Note_off_c, 1, 64, 0
3, 72960, Note_on_c, 1, 63, 84
3, 73056, Note_off_c, 1, 63, 0
3, 73104, Note_on_c, 1, 63, 84
3, 73152, Note_off_c, 1, 63, 0
3, 73152, Note_on_c, 1, 61, 84
3, 73248, Note_off_c, 1, 61, 0
3, 73296, Note_on_c, 1, 66, 84
3, 73344, Note_off_c, 1, 66, 0
3, 73344, Note_on_c, 1, 66, 84
3, 73392, Note_off_c, 1, 66, 0
3, 73392, Note_on_c, 1, 64, 84
3, 73440, Note_off_c, 1, 64, 0
3, 73440, Note_on_c, 1, 63, 84
3, 73536, Note_off_c, 1, 63, 0
3, 73536, Note_on_c, 1, 61, 84
3, 73632, Note_off_c, 1, 61, 0
3, 73632, Note_on_c, 1, 64, 84
3, 73656, Note_off_c, 1, 64, 0
3, 73656, Note_on_c, 1, 68, 84
3, 73680, Note_off_c, 1, 68, 0
3, 73680, Note_on_c, 1, 64, 84
3, 73704, Note_off_c, 1, 64, 0
3, 73704, Note_on_c, 1, 61, 84
3, 73728, Note_off_c, 1, 61, 0
3, 74112, Note_on_c, 1, 54, 84
3, 74208, Note_off_c, 1, 54, 0
3, 74208, Note_on_c, 1, 56, 84
3, 74256, Note_off_c, 1, 56, 0
3, 74256, Note_on_c, 1, 58, 84
3, 74304, Note_off_c, 1, 58, 0
3, 74304, Note_on_c, 1, 59, 84
3, 74352, Note_off_c, 1, 59, 0
3, 74352, Note_on_c, 1, 64, 84
3, 74400, Note_off_c, 1, 64, 0
3, 74400, Note_on_c, 1, 66, 84
3, 74448, Note_off_c, 1, 66, 0
3, 74448, Note_on_c, 1, 64, 84
3, 74496, Note_off_c, 1, 64, 0
3, 74496, Note_on_c, 1, 63, 84
3, 74520, Note_off_c, 1, 63, 0
3, 74520, Note_on_c, 1, 66, 84
3, 74544, Note_off_c, 1, 66, 0
3, 74544, Note_on_c, 1, 63, 84
3, 74568, Note_off_c, 1, 63, 0
3, 74568, Note_on_c, 1, 59, 84
3, 74592, Note_off_c, 1, 59, 0
3, 74592, Note_on_c, 1, 64, 84
3, 74640, Note_off_c, 1, 64, 0
3, 74640, Note_on_c, 1, 63, 84
3, 74688, Note_off_c, 1, 63, 0
3, 74688, Note_on_c, 1, 61, 84
3, 74736, Note_off_c, 1, 61, 0
3, 74736, Note_on_c, 1, 56, 84
3, 74784, Note_off_c, 1, 56, 0
3, 74784, Note_on_c, 1, 57, 84
3, 74832, Note_off_c, 1, 57, 0
3, 74832, Note_on_c, 1, 54, 84
3, 74880, Note_off_c, 1, 54, 0
3, 74880, Note_on_c, 1, 59, 84
3, 74952, Note_off_c, 1, 59, 0
3, 74952, Note_on_c, 1, 57, 84
3, 74976, Note_off_c, 1, 57, 0
3, 74976, Note_on_c, 1, 56, 84
3, 75024, Note_off_c, 1, 56, 0
3, 75024, Note_on_c, 1, 52, 84
3, 75072, Note_off_c, 1, 52, 0
3, 75072, Note_on_c, 1, 57, 84
3, 75120, Note_off_c, 1, 57, 0
3, 75120, Note_on_c, 1, 54, 84
3, 75168, Note_off_c, 1, 54, 0
3, 75168, Note_on_c, 1, 59, 84
3, 75216, Note_off_c, 1, 59, 0
3, 75216, Note_on_c, 1, 56, 84
3, 75264, Note_off_c, 1, 56, 0
3, 75264, Note_on_c, 1, 61, 84
3, 75312, Note_off_c, 1, 61, 0
3, 75312, Note_on_c, 1, 49, 84
3, 75360, Note_off_c, 1, 49, 0
3, 75360, Note_on_c, 1, 51, 84
3, 75408, Note_off_c, 1, 51, 0
3, 75408, Note_on_c, 1, 47, 84
3, 75456, Note_off_c, 1, 47, 0
3, 75456, Note_on_c, 1, 52, 84
3, 75504, Note_off_c, 1, 52, 0
3, 75504, Note_on_c, 1, 49, 84
3, 75552, Note_off_c, 1, 49, 0
3, 75552, Note_on_c, 1, 45, 84
3, 75600, Note_off_c, 1, 45, 0
3, 75600, Note_on_c, 1, 47, 84
3, 75648, Note_off_c, 1, 47, 0
3, 75648, Note_on_c, 1, 52, 84
3, 75672, Note_off_c, 1, 52, 0
3, 75672, Note_on_c, 1, 54, 84
3, 75696, Note_off_c, 1, 54, 0
3, 75696, Note_on_c, 1, 56, 84
3, 75720, Note_off_c, 1, 56, 0
3, 75720, Note_on_c, 1, 54, 84
3, 75744, Note_off_c, 1, 54, 0
3, 75744, Note_on_c, 1, 56, 84
3, 75768, Note_off_c, 1, 56, 0
3, 75768, Note_on_c, 1, 59, 84
3, 75792, Note_off_c, 1, 59, 0
3, 75792, Note_on_c, 1, 64, 84
3, 75816, Note_off_c, 1, 64, 0
3, 75816, Note_on_c, 1, 59, 84
3, 75840, Note_off_c, 1, 59, 0
3, 75840, Note_on_c, 1, 56, 84
3, 75864, Note_off_c, 1, 56, 0
3, 75864, Note_on_c, 1, 59, 84
3, 75888, Note_off_c, 1, 59, 0
3, 75888, Note_on_c, 1, 64, 84
3, 75912, Note_off_c, 1, 64, 0
3, 75912, Note_on_c, 1, 59, 84
3, 75936, Note_off_c, 1, 59, 0
3, 75936, Note_on_c, 1, 56, 84
3, 75960, Note_off_c, 1, 56, 0
3, 75960, Note_on_c, 1, 59, 84
3, 75984, Note_off_c, 1, 59, 0
3, 75984, Note_on_c, 1, 64, 84
3, 76008, Note_off_c, 1, 64, 0
3, 76008, Note_on_c, 1, 59, 84
3, 76032, Note_off_c, 1, 59, 0
3, 76032, Note_on_c, 1, 52, 84
3, 76080, Note_off_c, 1, 52, 0
3, 76176, Note_on_c, 1, 54, 84
3, 76224, Note_off_c, 1, 54, 0
3, 76224, Note_on_c, 1, 56, 84
3, 76272, Note_off_c, 1, 56, 0
3, 76272, Note_on_c, 1, 57, 84
3, 76320, Note_off_c, 1, 57, 0
3, 76320, Note_on_c, 1, 59, 84
3, 76368, Note_off_c, 1, 59, 0
3, 76368, Note_on_c, 1, 47, 84
3, 76416, Note_off_c, 1, 47, 0
3, 76416, Note_on_c, 1, 52, 84
3, 76464, Note_off_c, 1, 52, 0
3, 77184, Note_on_c, 1, 57, 84
3, 77208, Note_off_c, 1, 57, 0
3, 77208, Note_on_c, 1, 56, 84
3, 77232, Note_off_c, 1, 56, 0
3, 77232, Note_on_c, 1, 57, 84
3, 77256, Note_off_c, 1, 57, 0
3, 77256, Note_on_c, 1, 54, 84
3, 77280, Note_off_c, 1, 54, 0
3, 77280, Note_on_c, 1, 59, 84
3, 77304, Note_off_c, 1, 59, 0
3, 77304, Note_on_c, 1, 57, 84
3, 77328, Note_off_c, 1, 57, 0
3, 77328, Note_on_c, 1, 59, 84
3, 77352, Note_off_c, 1, 59, 0
3, 77352, Note_on_c, 1, 54, 84
3, 77376, Note_off_c, 1, 54, 0
3, 77376, Note_on_c, 1, 56, 84
3, 77400, Note_off_c, 1, 56, 0
3, 77400, Note_on_c, 1, 54, 84
3, 77424, Note_off_c, 1, 54, 0
3, 77424, Note_on_c, 1, 56, 84
3, 77448, Note_off_c, 1, 56, 0
3, 77448, Note_on_c, 1, 52, 84
3, 77472, Note_off_c, 1, 52, 0
3, 77472, Note_on_c, 1, 57, 84
3, 77496, Note_off_c, 1, 57, 0
3, 77496, Note_on_c, 1, 56, 84
3, 77520, Note_off_c, 1, 56, 0
3, 77520, Note_on_c, 1, 57, 84
3, 77544, Note_off_c, 1, 57, 0
3, 77544, Note_on_c, 1, 54, 84
3, 77568, Note_off_c, 1, 54, 0
3, 77568, Note_on_c, 1, 59, 84
3, 77592, Note_off_c, 1, 59, 0
3, 77592, Note_on_c, 1, 57, 84
3, 77616, Note_off_c, 1, 57, 0
3, 77616, Note_on_c, 1, 59, 84
3, 77640, Note_off_c, 1, 59, 0
3, 77640, Note_on_c, 1, 54, 84
3, 77664, Note_off_c, 1, 54, 0
3, 77664, Note_on_c, 1, 56, 84
3, 77688, Note_off_c, 1, 56, 0
3, 77688, Note_on_c, 1, 54, 84
3, 77712, Note_off_c, 1, 54, 0
3, 77712, Note_on_c, 1, 56, 84
3, 77736, Note_off_c, 1, 56, 0
3, 77736, Note_on_c, 1, 52, 84
3, 77760, Note_off_c, 1, 52, 0
3, 77760, Note_on_c, 1, 57, 84
3, 77784, Note_off_c, 1, 57, 0
3, 77784, Note_on_c, 1, 56, 84
3, 77808, Note_off_c, 1, 56, 0
3, 77808, Note_on_c, 1, 57, 84
3, 77832, Note_off_c, 1, 57, 0
3, 77832, Note_on_c, 1, 52, 84
3, 77856, Note_off_c, 1, 52, 0
3, 77856, Note_on_c, 1, 54, 84
3, 77952, Note_off_c, 1, 54, 0
3, 77952, Note_on_c, 1, 56, 84
3, 78000, Note_off_c, 1, 56, 0
3, 78000, Note_on_c, 1, 57, 84
3, 78048, Note_off_c, 1, 57, 0
3, 78048, Note_on_c, 1, 52, 84
3, 78144, Note_off_c, 1, 52, 0
3, 78144, Note_on_c, 1, 57, 84
3, 78240, Note_off_c, 1, 57, 0
3, 78336, Note_on_c, 1, 61, 84
3, 78360, Note_off_c, 1, 61, 0
3, 78360, Note_on_c, 1, 62, 84
3, 78384, Note_off_c, 1, 62, 0
3, 78384, Note_on_c, 1, 64, 84
3, 78408, Note_off_c, 1, 64, 0
3, 78408, Note_on_c, 1, 62, 84
3, 78432, Note_off_c, 1, 62, 0
3, 78432, Note_on_c, 1, 61, 84
3, 78456, Note_off_c, 1, 61, 0
3, 78456, Note_on_c, 1, 62, 84
3, 78480, Note_off_c, 1, 62, 0
3, 78480, Note_on_c, 1, 64, 84
3, 78504, Note_off_c, 1, 64, 0
3, 78504, Note_on_c, 1, 62, 84
3, 78528, Note_off_c, 1, 62, 0
3, 78528, Note_on_c, 1, 61, 84
3, 78624, Note_off_c, 1, 61, 0
3, 78624, Note_on_c, 1, 57, 84
3, 78648, Note_off_c, 1, 57, 0
3, 78648, Note_on_c, 1, 56, 84
3, 78672, Note_off_c, 1, 56, 0
3, 78672, Note_on_c, 1, 57, 84
3, 78696, Note_off_c, 1, 57, 0
3, 78696, Note_on_c, 1, 56, 84
3, 78720, Note_off_c, 1, 56, 0
3, 78720, Note_on_c, 1, 57, 84
3, 78756, Note_off_c, 1, 57, 0
3, 78768, Note_on_c, 1, 45, 84
3, 78804, Note_off_c, 1, 45, 0
3, 79488, Note_on_c, 1, 66, 84
3, 79584, Note_off_c, 1, 66, 0
3, 79632, Note_on_c, 1, 66, 84
3, 79680, Note_off_c, 1, 66, 0
3, 79680, Note_on_c, 1, 64, 84
3, 79776, Note_off_c, 1, 64, 0
3, 79776, Note_on_c, 1, 61, 84
3, 79800, Note_off_c, 1, 61, 0
3, 79800, Note_on_c, 1, 59, 84
3, 79824, Note_off_c, 1, 59, 0
3, 79824, Note_on_c, 1, 61, 84
3, 79848, Note_off_c, 1, 61, 0
3, 79848, Note_on_c, 1, 57, 84
3, 79872, Note_off_c, 1, 57, 0
3, 79872, Note_on_c, 1, 62, 84
3, 79992, Note_off_c, 1, 62, 0
3, 79992, Note_on_c, 1, 61, 84
3, 80016, Note_off_c, 1, 61, 0
3, 80016, Note_on_c, 1, 62, 84
3, 80040, Note_off_c, 1, 62, 0
3, 80040, Note_on_c, 1, 59, 84
3, 80064, Note_off_c, 1, 59, 0
3, 80064, Note_on_c, 1, 64, 84
3, 80184, Note_off_c, 1, 64, 0
3, 80184, Note_on_c, 1, 62, 84
3, 80208, Note_off_c, 1, 62, 0
3, 80208, Note_on_c, 1, 64, 84
3, 80232, Note_off_c, 1, 64, 0
3, 80232, Note_on_c, 1, 61, 84
3, 80256, Note_off_c, 1, 61, 0
3, 80256, Note_on_c, 1, 66, 84
3, 80376, Note_off_c, 1, 66, 0
3, 80376, Note_on_c, 1, 64, 84
3, 80400, Note_off_c, 1, 64, 0
3, 80400, Note_on_c, 1, 66, 84
3, 80424, Note_off_c, 1, 66, 0
3, 80424, Note_on_c, 1, 64, 84
3, 80448, Note_off_c, 1, 64, 0
3, 80448, Note_on_c, 1, 66, 84
3, 80472, Note_off_c, 1, 66, 0
3, 80472, Note_on_c, 1, 64, 84
3, 80496, Note_off_c, 1, 64, 0
3, 80496, Note_on_c, 1, 62, 84
3, 80520, Note_off_c, 1, 62, 0
3, 80520, Note_on_c, 1, 66, 84
3, 80544, Note_off_c, 1, 66, 0
3, 80544, Note_on_c, 1, 64, 84
3, 80592, Note_off_c, 1, 64, 0
3, 80592, Note_on_c, 1, 52, 84
3, 80640, Note_off_c, 1, 52, 0
3, 81024, Note_on_c, 1, 61, 118
3, 81048, Note_off_c, 1, 61, 0
3, 81048, Note_on_c, 1, 62, 118
3, 81072, Note_off_c, 1, 62, 0
3, 81072, Note_on_c, 1, 64, 118
3, 81096, Note_off_c, 1, 64, 0
3, 81096, Note_on_c, 1, 62, 118
3, 81120, Note_off_c, 1, 62, 0
3, 81120, Note_on_c, 1, 61, 118
3, 81144, Note_off_c, 1, 61, 0
3, 81144, Note_on_c, 1, 62, 118
3, 81168, Note_off_c, 1, 62, 0
3, 81168, Note_on_c, 1, 64, 118
3, 81192, Note_off_c, 1, 64, 0
3, 81192, Note_on_c, 1, 62, 118
3, 81216, Note_off_c, 1, 62, 0
3, 81216, Note_on_c, 1, 61, 118
3, 81240, Note_off_c, 1, 61, 0
3, 81240, Note_on_c, 1, 62, 118
3, 81264, Note_off_c, 1, 62, 0
3, 81264, Note_on_c, 1, 64, 118
3, 81288, Note_off_c, 1, 64, 0
3, 81288, Note_on_c, 1, 62, 118
3, 81312, Note_off_c, 1, 62, 0
3, 81312, Note_on_c, 1, 61, 118
3, 81336, Note_off_c, 1, 61, 0
3, 81336, Note_on_c, 1, 62, 118
3, 81360, Note_off_c, 1, 62, 0
3, 81360, Note_on_c, 1, 64, 118
3, 81384, Note_off_c, 1, 64, 0
3, 81384, Note_on_c, 1, 62, 118
3, 81408, Note_off_c, 1, 62, 0
3, 81408, Note_on_c, 1, 61, 118
3, 81504, Note_off_c, 1, 61, 0
3, 81792, Note_on_c, 1, 64, 118
3, 81816, Note_off_c, 1, 64, 0
3, 81816, Note_on_c, 1, 66, 118
3, 81840, Note_off_c, 1, 66, 0
3, 81840, Note_on_c, 1, 67, 118
3, 81864, Note_off_c, 1, 67, 0
3, 81864, Note_on_c, 1, 66, 118
3, 81888, Note_off_c, 1, 66, 0
3, 81888, Note_on_c, 1, 64, 118
3, 81912, Note_off_c, 1, 64, 0
3, 81912, Note_on_c, 1, 66, 118
3, 81936, Note_off_c, 1, 66, 0
3, 81936, Note_on_c, 1, 67, 118
3, 81960, Note_off_c, 1, 67, 0
3, 81960, Note_on_c, 1, 66, 118
3, 81984, Note_off_c, 1, 66, 0
3, 81984, Note_on_c, 1, 64, 118
3, 82008, Note_off_c, 1, 64, 0
3, 82008, Note_on_c, 1, 66, 118
3, 82032, Note_off_c, 1, 66, 0
3, 82032, Note_on_c, 1, 67, 118
3, 82056, Note_off_c, 1, 67, 0
3, 82056, Note_on_c, 1, 66, 118
3, 82080, Note_off_c, 1, 66, 0
3, 82080, Note_on_c, 1, 64, 118
3, 82104, Note_off_c, 1, 64, 0
3, 82104, Note_on_c, 1, 66, 118
3, 82128, Note_off_c, 1, 66, 0
3, 82128, Note_on_c, 1, 67, 118
3, 82152, Note_off_c, 1, 67, 0
3, 82152, Note_on_c, 1, 66, 118
3, 82176, Note_off_c, 1, 66, 0
3, 82176, Note_on_c, 1, 64, 118
3, 82200, Note_off_c, 1, 64, 0
3, 82200, Note_on_c, 1, 62, 118
3, 82224, Note_off_c, 1, 62, 0
3, 82224, Note_on_c, 1, 64, 118
3, 82248, Note_off_c, 1, 64, 0
3, 82248, Note_on_c, 1, 61, 118
3, 82272, Note_off_c, 1, 61, 0
3, 82272, Note_on_c, 1, 66, 118
3, 82296, Note_off_c, 1, 66, 0
3, 82296, Note_on_c, 1, 67, 118
3, 82320, Note_off_c, 1, 67, 0
3, 82320, Note_on_c, 1, 69, 118
3, 82344, Note_off_c, 1, 69, 0
3, 82344, Note_on_c, 1, 67, 118
3, 82368, Note_off_c, 1, 67, 0
3, 82368, Note_on_c, 1, 66, 118
3, 82392, Note_off_c, 1, 66, 0
3, 82392, Note_on_c, 1, 64, 118
3, 82416, Note_off_c, 1, 64, 0
3, 82416, Note_on_c, 1, 66, 118
3, 82440, Note_off_c, 1, 66, 0
3, 82440, Note_on_c, 1, 62, 118
3, 82464, Note_off_c, 1, 62, 0
3, 82464, Note_on_c, 1, 67, 118
3, 82488, Note_off_c, 1, 67, 0
3, 82488, Note_on_c, 1, 69, 118
3, 82512, Note_off_c, 1, 69, 0
3, 82512, Note_on_c, 1, 71, 118
3, 82536, Note_off_c, 1, 71, 0
3, 82536, Note_on_c, 1, 69, 118
3, 82560, Note_off_c, 1, 69, 0
3, 82560, Note_on_c, 1, 67, 118
3, 82584, Note_off_c, 1, 67, 0
3, 82584, Note_on_c, 1, 66, 118
3, 82608, Note_off_c, 1, 66, 0
3, 82608, Note_on_c, 1, 67, 118
3, 82632, Note_off_c, 1, 67, 0
3, 82632, Note_on_c, 1, 64, 118
3, 82656, Note_off_c, 1, 64, 0
3, 82656, Note_on_c, 1, 66, 118
3, 82680, Note_off_c, 1, 66, 0
3, 82680, Note_on_c, 1, 67, 118
3, 82704, Note_off_c, 1, 67, 0
3, 82704, Note_on_c, 1, 69, 118
3, 82728, Note_off_c, 1, 69, 0
3, 82728, Note_on_c, 1, 67, 118
3, 82752, Note_off_c, 1, 67, 0
3, 82752, Note_on_c, 1, 66, 118
3, 82776, Note_off_c, 1, 66, 0
3, 82776, Note_on_c, 1, 64, 118
3, 82800, Note_off_c, 1, 64, 0
3, 82800, Note_on_c, 1, 66, 118
3, 82824, Note_off_c, 1, 66, 0
3, 82824, Note_on_c, 1, 62, 118
3, 82848, Note_off_c, 1, 62, 0
3, 82848, Note_on_c, 1, 67, 118
3, 82872, Note_off_c, 1, 67, 0
3, 82872, Note_on_c, 1, 69, 118
3, 82896, Note_off_c, 1, 69, 0
3, 82896, Note_on_c, 1, 71, 118
3, 82920, Note_off_c, 1, 71, 0
3, 82920, Note_on_c, 1, 69, 118
3, 82944, Note_off_c, 1, 69, 0
3, 82944, Note_on_c, 1, 67, 118
3, 82968, Note_off_c, 1, 67, 0
3, 82968, Note_on_c, 1, 66, 118
3, 82992, Note_off_c, 1, 66, 0
3, 82992, Note_on_c, 1, 67, 118
3, 83016, Note_off_c, 1, 67, 0
3, 83016, Note_on_c, 1, 64, 118
3, 83040, Note_off_c, 1, 64, 0
3, 83040, Note_on_c, 1, 62, 118
3, 83064, Note_off_c, 1, 62, 0
3, 83064, Note_on_c, 1, 64, 118
3, 83088, Note_off_c, 1, 64, 0
3, 83088, Note_on_c, 1, 66, 118
3, 83112, Note_off_c, 1, 66, 0
3, 83112, Note_on_c, 1, 64, 118
3, 83136, Note_off_c, 1, 64, 0
3, 83136, Note_on_c, 1, 62, 118
3, 83160, Note_off_c, 1, 62, 0
3, 83160, Note_on_c, 1, 61, 118
3, 83184, Note_off_c, 1, 61, 0
3, 83184, Note_on_c, 1, 62, 118
3, 83208, Note_off_c, 1, 62, 0
3, 83208, Note_on_c, 1, 59, 118
3, 83232, Note_off_c, 1, 59, 0
3, 83232, Note_on_c, 1, 64, 118
3, 83256, Note_off_c, 1, 64, 0
3, 83256, Note_on_c, 1, 66, 118
3, 83280, Note_off_c, 1, 66, 0
3, 83280, Note_on_c, 1, 67, 118
3, 83304, Note_off_c, 1, 67, 0
3, 83304, Note_on_c, 1, 66, 118
3, 83328, Note_off_c, 1, 66, 0
3, 83328, Note_on_c, 1, 64, 118
3, 83352, Note_off_c, 1, 64, 0
3, 83352, Note_on_c, 1, 62, 118
3, 83376, Note_off_c, 1, 62, 0
3, 83376, Note_on_c, 1, 64, 118
3, 83400, Note_off_c, 1, 64, 0
3, 83400, Note_on_c, 1, 61, 118
3, 83424, Note_off_c, 1, 61, 0
3, 83424, Note_on_c, 1, 62, 118
3, 83448, Note_off_c, 1, 62, 0
3, 83448, Note_on_c, 1, 64, 118
3, 83472, Note_off_c, 1, 64, 0
3, 83472, Note_on_c, 1, 66, 118
3, 83496, Note_off_c, 1, 66, 0
3, 83496, Note_on_c, 1, 64, 118
3, 83520, Note_off_c, 1, 64, 0
3, 83520, Note_on_c, 1, 62, 118
3, 83544, Note_off_c, 1, 62, 0
3, 83544, Note_on_c, 1, 61, 118
3, 83568, Note_off_c, 1, 61, 0
3, 83568, Note_on_c, 1, 62, 118
3, 83592, Note_off_c, 1, 62, 0
3, 83592, Note_on_c, 1, 59, 118
3, 83616, Note_off_c, 1, 59, 0
3, 83616, Note_on_c, 1, 64, 118
3, 83640, Note_off_c, 1, 64, 0
3, 83640, Note_on_c, 1, 66, 118
3, 83664, Note_off_c, 1, 66, 0
3, 83664, Note_on_c, 1, 67, 118
3, 83688, Note_off_c, 1, 67, 0
3, 83688, Note_on_c, 1, 66, 118
3, 83712, Note_off_c, 1, 66, 0
3, 83712, Note_on_c, 1, 64, 118
3, 83736, Note_off_c, 1, 64, 0
3, 83736, Note_on_c, 1, 62, 118
3, 83760, Note_off_c, 1, 62, 0
3, 83760, Note_on_c, 1, 64, 118
3, 83784, Note_off_c, 1, 64, 0
3, 83784, Note_on_c, 1, 61, 118
3, 83808, Note_off_c, 1, 61, 0
3, 83808, Note_on_c, 1, 62, 118
3, 83832, Note_off_c, 1, 62, 0
3, 83832, Note_on_c, 1, 64, 118
3, 83856, Note_off_c, 1, 64, 0
3, 83856, Note_on_c, 1, 66, 118
3, 83880, Note_off_c, 1, 66, 0
3, 83880, Note_on_c, 1, 67, 118
3, 83904, Note_off_c, 1, 67, 0
3, 83904, Note_on_c, 1, 64, 118
3, 84000, Note_off_c, 1, 64, 0
3, 84024, Note_on_c, 1, 64, 118
3, 84048, Note_off_c, 1, 64, 0
3, 84048, Note_on_c, 1, 66, 118
3, 84072, Note_off_c, 1, 66, 0
3, 84072, Note_on_c, 1, 64, 118
3, 84096, Note_off_c, 1, 64, 0
3, 84096, Note_on_c, 1, 66, 118
3, 84192, Note_off_c, 1, 66, 0
3, 84216, Note_on_c, 1, 66, 118
3, 84240, Note_off_c, 1, 66, 0
3, 84240, Note_on_c, 1, 67, 118
3, 84264, Note_off_c, 1, 67, 0
3, 84264, Note_on_c, 1, 66, 118
3, 84288, Note_off_c, 1, 66, 0
3, 84288, Note_on_c, 1, 67, 118
3, 84384, Note_off_c, 1, 67, 0
3, 84408, Note_on_c, 1, 64, 118
3, 84432, Note_off_c, 1, 64, 0
3, 84432, Note_on_c, 1, 66, 118
3, 84456, Note_off_c, 1, 66, 0
3, 84456, Note_on_c, 1, 64, 118
3, 84480, Note_off_c, 1, 64, 0
3, 84480, Note_on_c, 1, 66, 118
3, 84576, Note_off_c, 1, 66, 0
3, 84600, Note_on_c, 1, 66, 118
3, 84624, Note_off_c, 1, 66, 0
3, 84624, Note_on_c, 1, 67, 118
3, 84648, Note_off_c, 1, 67, 0
3, 84648, Note_on_c, 1, 66, 118
3, 84672, Note_off_c, 1, 66, 0
3, 84672, Note_on_c, 1, 67, 118
3, 84768, Note_off_c, 1, 67, 0
3, 84792, Note_on_c, 1, 64, 118
3, 84816, Note_off_c, 1, 64, 0
3, 84816, Note_on_c, 1, 66, 118
3, 84840, Note_off_c, 1, 66, 0
3, 84840, Note_on_c, 1, 64, 118
3, 84864, Note_off_c, 1, 64, 0
3, 84864, Note_on_c, 1, 66, 118
3, 84960, Note_off_c, 1, 66, 0
3, 84984, Note_on_c, 1, 62, 118
3, 85008, Note_off_c, 1, 62, 0
3, 85008, Note_on_c, 1, 64, 118
3, 85032, Note_off_c, 1, 64, 0
3, 85032, Note_on_c, 1, 62, 118
3, 85056, Note_off_c, 1, 62, 0
3, 85056, Note_on_c, 1, 64, 118
3, 85080, Note_off_c, 1, 64, 0
3, 85080, Note_on_c, 1, 66, 118
3, 85104, Note_off_c, 1, 66, 0
3, 85104, Note_on_c, 1, 67, 118
3, 85128, Note_off_c, 1, 67, 0
3, 85128, Note_on_c, 1, 66, 118
3, 85152, Note_off_c, 1, 66, 0
3, 85152, Note_on_c, 1, 64, 118
3, 85176, Note_off_c, 1, 64, 0
3, 85176, Note_on_c, 1, 66, 118
3, 85200, Note_off_c, 1, 66, 0
3, 85200, Note_on_c, 1, 67, 118
3, 85224, Note_off_c, 1, 67, 0
3, 85224, Note_on_c, 1, 66, 118
3, 85248, Note_off_c, 1, 66, 0
3, 85248, Note_on_c, 1, 64, 118
3, 85272, Note_off_c, 1, 64, 0
3, 85272, Note_on_c, 1, 66, 118
3, 85296, Note_off_c, 1, 66, 0
3, 85296, Note_on_c, 1, 67, 118
3, 85320, Note_off_c, 1, 67, 0
3, 85320, Note_on_c, 1, 66, 118
3, 85344, Note_off_c, 1, 66, 0
3, 85344, Note_on_c, 1, 64, 118
3, 85368, Note_off_c, 1, 64, 0
3, 85368, Note_on_c, 1, 66, 118
3, 85392, Note_off_c, 1, 66, 0
3, 85392, Note_on_c, 1, 67, 118
3, 85416, Note_off_c, 1, 67, 0
3, 85416, Note_on_c, 1, 66, 118
3, 85440, Note_off_c, 1, 66, 0
3, 85440, Note_on_c, 1, 64, 118
3, 85464, Note_off_c, 1, 64, 0
3, 85464, Note_on_c, 1, 66, 118
3, 85488, Note_off_c, 1, 66, 0
3, 85488, Note_on_c, 1, 67, 118
3, 85512, Note_off_c, 1, 67, 0
3, 85512, Note_on_c, 1, 66, 118
3, 85536, Note_off_c, 1, 66, 0
3, 85536, Note_on_c, 1, 64, 118
3, 85560, Note_off_c, 1, 64, 0
3, 85560, Note_on_c, 1, 66, 118
3, 85584, Note_off_c, 1, 66, 0
3, 85584, Note_on_c, 1, 67, 118
3, 85608, Note_off_c, 1, 67, 0
3, 85608, Note_on_c, 1, 66, 118
3, 85632, Note_off_c, 1, 66, 0
3, 85632, Note_on_c, 1, 64, 118
3, 85656, Note_off_c, 1, 64, 0
3, 85656, Note_on_c, 1, 66, 118
3, 85680, Note_off_c, 1, 66, 0
3, 85680, Note_on_c, 1, 67, 118
3, 85704, Note_off_c, 1, 67, 0
3, 85704, Note_on_c, 1, 66, 118
3, 85728, Note_off_c, 1, 66, 0
3, 85728, Note_on_c, 1, 64, 118
3, 85752, Note_off_c, 1, 64, 0
3, 85752, Note_on_c, 1, 66, 118
3, 85776, Note_off_c, 1, 66, 0
3, 85776, Note_on_c, 1, 67, 118
3, 85800, Note_off_c, 1, 67, 0
3, 85800, Note_on_c, 1, 64, 118
3, 85824, Note_off_c, 1, 64, 0
3, 85824, Note_on_c, 1, 66, 118
3, 85848, Note_off_c, 1, 66, 0
3, 85848, Note_on_c, 1, 67, 118
3, 85872, Note_off_c, 1, 67, 0
3, 85872, Note_on_c, 1, 69, 118
3, 85896, Note_off_c, 1, 69, 0
3, 85896, Note_on_c, 1, 67, 118
3, 85920, Note_off_c, 1, 67, 0
3, 85920, Note_on_c, 1, 66, 118
3, 85944, Note_off_c, 1, 66, 0
3, 85944, Note_on_c, 1, 67, 118
3, 85968, Note_off_c, 1, 67, 0
3, 85968, Note_on_c, 1, 69, 118
3, 85992, Note_off_c, 1, 69, 0
3, 85992, Note_on_c, 1, 67, 118
3, 86016, Note_off_c, 1, 67, 0
3, 86016, Note_on_c, 1, 66, 118
3, 86112, Note_off_c, 1, 66, 0
3, 86496, Note_on_c, 1, 57, 118
3, 86520, Note_off_c, 1, 57, 0
3, 86520, Note_on_c, 1, 62, 118
3, 86544, Note_off_c, 1, 62, 0
3, 86544, Note_on_c, 1, 57, 118
3, 86568, Note_off_c, 1, 57, 0
3, 86568, Note_on_c, 1, 54, 118
3, 86592, Note_off_c, 1, 54, 0
3, 86688, Note_on_c, 1, 54, 118
3, 86712, Note_off_c, 1, 54, 0
3, 86712, Note_on_c, 1, 57, 118
3, 86736, Note_off_c, 1, 57, 0
3, 86736, Note_on_c, 1, 54, 118
3, 86760, Note_off_c, 1, 54, 0
3, 86760, Note_on_c, 1, 50, 118
3, 86784, Note_off_c, 1, 50, 0
3, 87216, Note_on_c, 1, 62, 118
3, 87264, Note_off_c, 1, 62, 0
3, 87264, Note_on_c, 1, 62, 118
3, 87312, Note_off_c, 1, 62, 0
3, 87312, Note_on_c, 1, 62, 118
3, 87360, Note_off_c, 1, 62, 0
3, 87360, Note_on_c, 1, 62, 118
3, 87408, Note_off_c, 1, 62, 0
3, 87408, Note_on_c, 1, 50, 118
3, 87456, Note_off_c, 1, 50, 0
3, 87504, Note_on_c, 1, 59, 118
3, 87540, Note_off_c, 1, 59, 0
3, 87552, Note_on_c, 1, 59, 118
3, 87648, Note_off_c, 1, 59, 0
3, 87696, Note_on_c, 1, 57, 118
3, 87732, Note_off_c, 1, 57, 0
3, 87744, Note_on_c, 1, 57, 118
3, 87840, Note_off_c, 1, 57, 0
3, 87888, Note_on_c, 1, 62, 118
3, 87924, Note_off_c, 1, 62, 0
3, 87936, Note_on_c, 1, 64, 118
3, 88032, Note_off_c, 1, 64, 0
3, 88080, Note_on_c, 1, 61, 118
3, 88116, Note_off_c, 1, 61, 0
3, 88128, Note_on_c, 1, 62, 118
3, 88224, Note_off_c, 1, 62, 0
3, 88272, Note_on_c, 1, 59, 118
3, 88308, Note_off_c, 1, 59, 0
3, 88320, Note_on_c, 1, 61, 118
3, 88416, Note_off_c, 1, 61, 0
3, 88416, Note_on_c, 1, 54, 118
3, 88512, Note_off_c, 1, 54, 0
3, 88512, Note_on_c, 1, 59, 118
3, 88608, Note_off_c, 1, 59, 0
3, 88608, Note_on_c, 1, 57, 118
3, 88704, Note_off_c, 1, 57, 0
3, 88728, Note_on_c, 1, 54, 118
3, 88752, Note_off_c, 1, 54, 0
3, 88752, Note_on_c, 1, 55, 118
3, 88776, Note_off_c, 1, 55, 0
3, 88776, Note_on_c, 1, 57, 118
3, 88800, Note_off_c, 1, 57, 0
3, 88800, Note_on_c, 1, 59, 118
3, 88824, Note_off_c, 1, 59, 0
3, 88824, Note_on_c, 1, 57, 118
3, 88848, Note_off_c, 1, 57, 0
3, 88848, Note_on_c, 1, 59, 118
3, 88872, Note_off_c, 1, 59, 0
3, 88872, Note_on_c, 1, 54, 118
3, 88896, Note_off_c, 1, 54, 0
3, 88896, Note_on_c, 1, 55, 118
3, 88920, Note_off_c, 1, 55, 0
3, 88920, Note_on_c, 1, 54, 118
3, 88944, Note_off_c, 1, 54, 0
3, 88944, Note_on_c, 1, 55, 118
3, 88968, Note_off_c, 1, 55, 0
3, 88968, Note_on_c, 1, 52, 118
3, 88992, Note_off_c, 1, 52, 0
3, 88992, Note_on_c, 1, 57, 118
3, 89016, Note_off_c, 1, 57, 0
3, 89016, Note_on_c, 1, 55, 118
3, 89040, Note_off_c, 1, 55, 0
3, 89040, Note_on_c, 1, 57, 118
3, 89064, Note_off_c, 1, 57, 0
3, 89064, Note_on_c, 1, 52, 118
3, 89088, Note_off_c, 1, 52, 0
3, 89088, Note_on_c, 1, 54, 118
3, 89112, Note_off_c, 1, 54, 0
3, 89112, Note_on_c, 1, 52, 118
3, 89136, Note_off_c, 1, 52, 0
3, 89136, Note_on_c, 1, 54, 118
3, 89160, Note_off_c, 1, 54, 0
3, 89160, Note_on_c, 1, 50, 118
3, 89184, Note_off_c, 1, 50, 0
3, 89184, Note_on_c, 1, 55, 118
3, 89208, Note_off_c, 1, 55, 0
3, 89208, Note_on_c, 1, 54, 118
3, 89232, Note_off_c, 1, 54, 0
3, 89232, Note_on_c, 1, 55, 118
3, 89256, Note_off_c, 1, 55, 0
3, 89256, Note_on_c, 1, 50, 118
3, 89280, Note_off_c, 1, 50, 0
3, 89280, Note_on_c, 1, 52, 118
3, 89304, Note_off_c, 1, 52, 0
3, 89304, Note_on_c, 1, 50, 118
3, 89328, Note_off_c, 1, 50, 0
3, 89328, Note_on_c, 1, 52, 118
3, 89352, Note_off_c, 1, 52, 0
3, 89352, Note_on_c, 1, 49, 118
3, 89376, Note_off_c, 1, 49, 0
3, 89376, Note_on_c, 1, 54, 118
3, 89400, Note_off_c, 1, 54, 0
3, 89400, Note_on_c, 1, 52, 118
3, 89424, Note_off_c, 1, 52, 0
3, 89424, Note_on_c, 1, 54, 118
3, 89448, Note_off_c, 1, 54, 0
3, 89448, Note_on_c, 1, 49, 118
3, 89472, Note_off_c, 1, 49, 0
3, 89472, Note_on_c, 1, 50, 118
3, 89496, Note_off_c, 1, 50, 0
3, 89496, Note_on_c, 1, 49, 118
3, 89520, Note_off_c, 1, 49, 0
3, 89520, Note_on_c, 1, 50, 118
3, 89544, Note_off_c, 1, 50, 0
3, 89544, Note_on_c, 1, 47, 118
3, 89568, Note_off_c, 1, 47, 0
3, 89568, Note_on_c, 1, 52, 118
3, 89592, Note_off_c, 1, 52, 0
3, 89592, Note_on_c, 1, 50, 118
3, 89616, Note_off_c, 1, 50, 0
3, 89616, Note_on_c, 1, 59, 118
3, 89652, Note_off_c, 1, 59, 0
3, 89664, Note_on_c, 1, 57, 118
3, 89784, Note_off_c, 1, 57, 0
3, 89784, Note_on_c, 1, 57, 118
3, 89808, Note_off_c, 1, 57, 0
3, 89808, Note_on_c, 1, 62, 118
3, 89832, Note_off_c, 1, 62, 0
3, 89832, Note_on_c, 1, 57, 118
3, 89856, Note_off_c, 1, 57, 0
3, 90840, Note_on_c, 1, 62, 118
3, 90864, Note_off_c, 1, 62, 0
3, 90864, Note_on_c, 1, 57, 118
3, 90888, Note_off_c, 1, 57, 0
3, 90888, Note_on_c, 1, 54, 118
3, 90912, Note_off_c, 1, 54, 0
3, 90912, Note_on_c, 1, 50, 118
3, 90936, Note_off_c, 1, 50, 0
3, 90936, Note_on_c, 1, 57, 118
3, 90960, Note_off_c, 1, 57, 0
3, 90960, Note_on_c, 1, 54, 118
3, 90984, Note_off_c, 1, 54, 0
3, 90984, Note_on_c, 1, 50, 118
3, 91008, Note_off_c, 1, 50, 0
3, 91008, Note_on_c, 1, 45, 118
3, 91056, Note_off_c, 1, 45, 0
3, 91224, Note_on_c, 1, 57, 118
3, 91248, Note_off_c, 1, 57, 0
3, 91248, Note_on_c, 1, 54, 118
3, 91272, Note_off_c, 1, 54, 0
3, 91272, Note_on_c, 1, 50, 118
3, 91296, Note_off_c, 1, 50, 0
3, 91296, Note_on_c, 1, 45, 118
3, 91320, Note_off_c, 1, 45, 0
3, 91320, Note_on_c, 1, 50, 118
3, 91344, Note_off_c, 1, 50, 0
3, 91344, Note_on_c, 1, 45, 118
3, 91368, Note_off_c, 1, 45, 0
3, 91368, Note_on_c, 1, 42, 118
3, 91392, Note_off_c, 1, 42, 0
3, 91392, Note_on_c, 1, 38, 118
3, 91440, Note_off_c, 1, 38, 0
3, 93120, Note_on_c, 1, 66, 118
3, 93144, Note_off_c, 1, 66, 0
3, 93144, Note_on_c, 1, 67, 118
3, 93168, Note_off_c, 1, 67, 0
3, 93168, Note_on_c, 1, 69, 118
3, 93192, Note_off_c, 1, 69, 0
3, 93192, Note_on_c, 1, 67, 118
3, 93216, Note_off_c, 1, 67, 0
3, 93216, Note_on_c, 1, 66, 118
3, 93240, Note_off_c, 1, 66, 0
3, 93240, Note_on_c, 1, 67, 118
3, 93264, Note_off_c, 1, 67, 0
3, 93264, Note_on_c, 1, 69, 118
3, 93288, Note_off_c, 1, 69, 0
3, 93288, Note_on_c, 1, 67, 118
3, 93312, Note_off_c, 1, 67, 0
3, 93312, Note_on_c, 1, 66, 118
3, 93360, Note_off_c, 1, 66, 0
3, 93504, Note_on_c, 1, 66, 118
3, 93528, Note_off_c, 1, 66, 0
3, 93528, Note_on_c, 1, 64, 118
3, 93552, Note_off_c, 1, 64, 0
3, 93552, Note_on_c, 1, 66, 118
3, 93576, Note_off_c, 1, 66, 0
3, 93576, Note_on_c, 1, 64, 118
3, 93600, Note_off_c, 1, 64, 0
3, 93600, Note_on_c, 1, 66, 118
3, 93624, Note_off_c, 1, 66, 0
3, 93624, Note_on_c, 1, 64, 118
3, 93648, Note_off_c, 1, 64, 0
3, 93648, Note_on_c, 1, 66, 118
3, 93672, Note_off_c, 1, 66, 0
3, 93672, Note_on_c, 1, 64, 118
3, 93696, Note_off_c, 1, 64, 0
3, 93696, Note_on_c, 1, 66, 118
3, 93744, Note_off_c, 1, 66, 0
3, 93792, Note_on_c, 1, 66, 118
3, 93816, Note_off_c, 1, 66, 0
3, 93816, Note_on_c, 1, 67, 118
3, 93840, Note_off_c, 1, 67, 0
3, 93840, Note_on_c, 1, 69, 118
3, 93864, Note_off_c, 1, 69, 0
3, 93864, Note_on_c, 1, 67, 118
3, 93888, Note_off_c, 1, 67, 0
3, 93888, Note_on_c, 1, 66, 118
3, 93936, Note_off_c, 1, 66, 0
3, 93936, End_track
4, 0, Start_track
4, 0, Title_t, "Track4"
4, 0, Program_c, 2, 19
4, 0, Control_c, 2, 7, 100
4, 0, Control_c, 2, 10, 64
4, 24, Note_on_c, 2, 38, 101
4, 48, Note_off_c, 2, 38, 0
4, 48, Note_on_c, 2, 40, 101
4, 72, Note_off_c, 2, 40, 0
4, 72, Note_on_c, 2, 42, 101
4, 96, Note_off_c, 2, 42, 0
4, 96, Note_on_c, 2, 43, 101
4, 120, Note_off_c, 2, 43, 0
4, 120, Note_on_c, 2, 45, 101
4, 144, Note_off_c, 2, 45, 0
4, 144, Note_on_c, 2, 47, 101
4, 168, Note_off_c, 2, 47, 0
4, 168, Note_on_c, 2, 49, 101
4, 192, Note_off_c, 2, 49, 0
4, 192, Note_on_c, 2, 50, 101
4, 264, Note_off_c, 2, 50, 0
4, 408, Note_on_c, 2, 38, 101
4, 432, Note_off_c, 2, 38, 0
4, 432, Note_on_c, 2, 40, 101
4, 456, Note_off_c, 2, 40, 0
4, 456, Note_on_c, 2, 42, 101
4, 480, Note_off_c, 2, 42, 0
4, 480, Note_on_c, 2, 43, 101
4, 504, Note_off_c, 2, 43, 0
4, 504, Note_on_c, 2, 45, 101
4, 528, Note_off_c, 2, 45, 0
4, 528, Note_on_c, 2, 47, 101
4, 552, Note_off_c, 2, 47, 0
4, 552, Note_on_c, 2, 49, 101
4, 576, Note_off_c, 2, 49, 0
4, 576, Note_on_c, 2, 50, 101
4, 648, Note_off_c, 2, 50, 0
4, 792, Note_on_c, 2, 45, 101
4, 816, Note_off_c, 2, 45, 0
4, 816, Note_on_c, 2, 50, 101
4, 840, Note_off_c, 2, 50, 0
4, 840, Note_on_c, 2, 42, 101
4, 864, Note_off_c, 2, 42, 0
4, 864, Note_on_c, 2, 45, 101
4, 888, Note_off_c, 2, 45, 0
4, 888, Note_on_c, 2, 38, 101
4, 912, Note_off_c, 2, 38, 0
4, 912, Note_on_c, 2, 42, 101
4, 936, Note_off_c, 2, 42, 0
4, 936, Note_on_c, 2, 33, 101
4, 960, Note_off_c, 2, 33, 0
4, 960, Note_on_c, 2, 38, 101
4, 1032, Note_off_c, 2, 38, 0
4, 1176, Note_on_c, 2, 38, 101
4, 1200, Note_off_c, 2, 38, 0
4, 1200, Note_on_c, 2, 40, 101
4, 1224, Note_off_c, 2, 40, 0
4, 1224, Note_on_c, 2, 42, 101
4, 1248, Note_off_c, 2, 42, 0
4, 1248, Note_on_c, 2, 43, 101
4, 1272, Note_off_c, 2, 43, 0
4, 1272, Note_on_c, 2, 45, 101
4, 1296, Note_off_c, 2, 45, 0
4, 1296, Note_on_c, 2, 47, 101
4, 1320, Note_off_c, 2, 47, 0
4, 1320, Note_on_c, 2, 49, 101
4, 1344, Note_off_c, 2, 49, 0
4, 1344, Note_on_c, 2, 50, 101
4, 1416, Note_off_c, 2, 50, 0
4, 1560, Note_on_c, 2, 42, 101
4, 1584, Note_off_c, 2, 42, 0
4, 1584, Note_on_c, 2, 45, 101
4, 1608, Note_off_c, 2, 45, 0
4, 1608, Note_on_c, 2, 38, 101
4, 1632, Note_off_c, 2, 38, 0
4, 1632, Note_on_c, 2, 42, 101
4, 1656, Note_off_c, 2, 42, 0
4, 1656, Note_on_c, 2, 33, 101
4, 1680, Note_off_c, 2, 33, 0
4, 1680, Note_on_c, 2, 38, 101
4, 1704, Note_off_c, 2, 38, 0
4, 1704, Note_on_c, 2, 30, 101
4, 1728, Note_off_c, 2, 30, 0
4, 1728, Note_on_c, 2, 33, 101
4, 3168, Note_off_c, 2, 33, 0
4, 3456, Note_on_c, 2, 30, 101
4, 5472, Note_off_c, 2, 30, 0
4, 5760, Note_on_c, 2, 26, 101
4, 5952, Note_off_c, 2, 26, 0
4, 6048, Note_on_c, 2, 38, 93
4, 6144, Note_off_c, 2, 38, 0
4, 6144, Note_on_c, 2, 43, 93
4, 6384, Note_off_c, 2, 43, 0
4, 6384, Note_on_c, 2, 43, 93
4, 6432, Note_off_c, 2, 43, 0
4, 6432, Note_on_c, 2, 42, 93
4, 6528, Note_off_c, 2, 42, 0
4, 6528, Note_on_c, 2, 40, 93
4, 6624, Note_off_c, 2, 40, 0
4, 6624, Note_on_c, 2, 33, 93
4, 6720, Note_off_c, 2, 33, 0
4, 6720, Note_on_c, 2, 38, 93
4, 6816, Note_off_c, 2, 38, 0
4, 6816, Note_on_c, 2, 50, 93
4, 7008, Note_off_c, 2, 50, 0
4, 7008, Note_on_c, 2, 49, 93
4, 7104, Note_off_c, 2, 49, 0
4, 7104, Note_on_c, 2, 47, 93
4, 7296, Note_off_c, 2, 47, 0
4, 7296, Note_on_c, 2, 45, 93
4, 7392, Note_off_c, 2, 45, 0
4, 7392, Note_on_c, 2, 42, 93
4, 7488, Note_off_c, 2, 42, 0
4, 7488, Note_on_c, 2, 43, 93
4, 7680, Note_off_c, 2, 43, 0
4, 7680, Note_on_c, 2, 42, 93
4, 7872, Note_off_c, 2, 42, 0
4, 7872, Note_on_c, 2, 40, 93
4, 8064, Note_off_c, 2, 40, 0
4, 8064, Note_on_c, 2, 38, 93
4, 8160, Note_off_c, 2, 38, 0
4, 8160, Note_on_c, 2, 37, 93
4, 8256, Note_off_c, 2, 37, 0
4, 8256, Note_on_c, 2, 35, 93
4, 8352, Note_off_c, 2, 35, 0
4, 8352, Note_on_c, 2, 40, 93
4, 8448, Note_off_c, 2, 40, 0
4, 8448, Note_on_c, 2, 33, 93
4, 8544, Note_off_c, 2, 33, 0
4, 8592, Note_on_c, 2, 42, 93
4, 8640, Note_off_c, 2, 42, 0
4, 8640, Note_on_c, 2, 43, 93
4, 8688, Note_off_c, 2, 43, 0
4, 8688, Note_on_c, 2, 47, 93
4, 8736, Note_off_c, 2, 47, 0
4, 8736, Note_on_c, 2, 40, 93
4, 8784, Note_off_c, 2, 40, 0
4, 8784, Note_on_c, 2, 43, 93
4, 8832, Note_off_c, 2, 43, 0
4, 8832, Note_on_c, 2, 42, 93
4, 8880, Note_off_c, 2, 42, 0
4, 8880, Note_on_c, 2, 45, 93
4, 8928, Note_off_c, 2, 45, 0
4, 8928, Note_on_c, 2, 38, 93
4, 8976, Note_off_c, 2, 38, 0
4, 8976, Note_on_c, 2, 42, 93
4, 9024, Note_off_c, 2, 42, 0
4, 9024, Note_on_c, 2, 40, 93
4, 9072, Note_off_c, 2, 40, 0
4, 9072, Note_on_c, 2, 43, 93
4, 9120, Note_off_c, 2, 43, 0
4, 9120, Note_on_c, 2, 37, 93
4, 9168, Note_off_c, 2, 37, 0
4, 9168, Note_on_c, 2, 40, 93
4, 9216, Note_off_c, 2, 40, 0
4, 9216, Note_on_c, 2, 38, 93
4, 9264, Note_off_c, 2, 38, 0
4, 9264, Note_on_c, 2, 35, 93
4, 9312, Note_off_c, 2, 35, 0
4, 9312, Note_on_c, 2, 47, 93
4, 9504, Note_off_c, 2, 47, 0
4, 9504, Note_on_c, 2, 46, 93
4, 9600, Note_off_c, 2, 46, 0
4, 9600, Note_on_c, 2, 47, 93
4, 9696, Note_off_c, 2, 47, 0
4, 9744, Note_on_c, 2, 45, 93
4, 9792, Note_off_c, 2, 45, 0
4, 9792, Note_on_c, 2, 47, 93
4, 9840, Note_off_c, 2, 47, 0
4, 9840, Note_on_c, 2, 50, 93
4, 9888, Note_off_c, 2, 50, 0
4, 9888, Note_on_c, 2, 44, 93
4, 9936, Note_off_c, 2, 44, 0
4, 9936, Note_on_c, 2, 47, 93
4, 9984, Note_off_c, 2, 47, 0
4, 9984, Note_on_c, 2, 45, 93
4, 10032, Note_off_c, 2, 45, 0
4, 10032, Note_on_c, 2, 49, 93
4, 10080, Note_off_c, 2, 49, 0
4, 10080, Note_on_c, 2, 42, 93
4, 10128, Note_off_c, 2, 42, 0
4, 10128, Note_on_c, 2, 45, 93
4, 10176, Note_off_c, 2, 45, 0
4, 10176, Note_on_c, 2, 43, 93
4, 10224, Note_off_c, 2, 43, 0
4, 10224, Note_on_c, 2, 47, 93
4, 10272, Note_off_c, 2, 47, 0
4, 10272, Note_on_c, 2, 40, 93
4, 10320, Note_off_c, 2, 40, 0
4, 10320, Note_on_c, 2, 43, 93
4, 10368, Note_off_c, 2, 43, 0
4, 10368, Note_on_c, 2, 42, 93
4, 10416, Note_off_c, 2, 42, 0
4, 10416, Note_on_c, 2, 45, 93
4, 10464, Note_off_c, 2, 45, 0
4, 10464, Note_on_c, 2, 38, 93
4, 10512, Note_off_c, 2, 38, 0
4, 10512, Note_on_c, 2, 42, 93
4, 10560, Note_off_c, 2, 42, 0
4, 10560, Note_on_c, 2, 40, 93
4, 10608, Note_off_c, 2, 40, 0
4, 10608, Note_on_c, 2, 43, 93
4, 10656, Note_off_c, 2, 43, 0
4, 10656, Note_on_c, 2, 37, 93
4, 10704, Note_off_c, 2, 37, 0
4, 10704, Note_on_c, 2, 40, 93
4, 10752, Note_off_c, 2, 40, 0
4, 10752, Note_on_c, 2, 38, 93
4, 10800, Note_off_c, 2, 38, 0
4, 10800, Note_on_c, 2, 42, 93
4, 10848, Note_off_c, 2, 42, 0
4, 10848, Note_on_c, 2, 35, 93
4, 10896, Note_off_c, 2, 35, 0
4, 10896, Note_on_c, 2, 38, 93
4, 10944, Note_off_c, 2, 38, 0
4, 10944, Note_on_c, 2, 37, 93
4, 10992, Note_off_c, 2, 37, 0
4, 10992, Note_on_c, 2, 40, 93
4, 11040, Note_off_c, 2, 40, 0
4, 11040, Note_on_c, 2, 33, 93
4, 11088, Note_off_c, 2, 33, 0
4, 11088, Note_on_c, 2, 37, 93
4, 11136, Note_off_c, 2, 37, 0
4, 11136, Note_on_c, 2, 35, 93
4, 11184, Note_off_c, 2, 35, 0
4, 11184, Note_on_c, 2, 38, 93
4, 11232, Note_off_c, 2, 38, 0
4, 11232, Note_on_c, 2, 37, 93
4, 11280, Note_off_c, 2, 37, 0
4, 11280, Note_on_c, 2, 40, 93
4, 11328, Note_off_c, 2, 40, 0
4, 11328, Note_on_c, 2, 38, 93
4, 11376, Note_off_c, 2, 38, 0
4, 11376, Note_on_c, 2, 40, 93
4, 11424, Note_off_c, 2, 40, 0
4, 11424, Note_on_c, 2, 42, 93
4, 11472, Note_off_c, 2, 42, 0
4, 11472, Note_on_c, 2, 38, 93
4, 11520, Note_off_c, 2, 38, 0
4, 11520, Note_on_c, 2, 43, 93
4, 11568, Note_off_c, 2, 43, 0
4, 11568, Note_on_c, 2, 40, 93
4, 11616, Note_off_c, 2, 40, 0
4, 11616, Note_on_c, 2, 45, 93
4, 11664, Note_off_c, 2, 45, 0
4, 11664, Note_on_c, 2, 33, 93
4, 11712, Note_off_c, 2, 33, 0
4, 11712, Note_on_c, 2, 38, 93
4, 11760, Note_off_c, 2, 38, 0
4, 11760, Note_on_c, 2, 26, 93
4, 11808, Note_off_c, 2, 26, 0
4, 14496, Note_on_c, 2, 30, 93
4, 14592, Note_off_c, 2, 30, 0
4, 14592, Note_on_c, 2, 35, 93
4, 14688, Note_off_c, 2, 35, 0
4, 14688, Note_on_c, 2, 37, 93
4, 14784, Note_off_c, 2, 37, 0
4, 14784, Note_on_c, 2, 38, 93
4, 14880, Note_off_c, 2, 38, 0
4, 15264, Note_on_c, 2, 37, 93
4, 15360, Note_off_c, 2, 37, 0
4, 15360, Note_on_c, 2, 42, 93
4, 15456, Note_off_c, 2, 42, 0
4, 15456, Note_on_c, 2, 44, 93
4, 15552, Note_off_c, 2, 44, 0
4, 15552, Note_on_c, 2, 45, 93
4, 15648, Note_off_c, 2, 45, 0
4, 16032, Note_on_c, 2, 37, 93
4, 16128, Note_off_c, 2, 37, 0
4, 16128, Note_on_c, 2, 42, 93
4, 16224, Note_off_c, 2, 42, 0
4, 16224, Note_on_c, 2, 44, 93
4, 16320, Note_off_c, 2, 44, 0
4, 16320, Note_on_c, 2, 45, 93
4, 16416, Note_off_c, 2, 45, 0
4, 16416, Note_on_c, 2, 47, 93
4, 16512, Note_off_c, 2, 47, 0
4, 16512, Note_on_c, 2, 45, 93
4, 16608, Note_off_c, 2, 45, 0
4, 16608, Note_on_c, 2, 47, 93
4, 16704, Note_off_c, 2, 47, 0
4, 16704, Note_on_c, 2, 49, 93
4, 16800, Note_off_c, 2, 49, 0
4, 16848, Note_on_c, 2, 41, 93
4, 16896, Note_off_c, 2, 41, 0
4, 16896, Note_on_c, 2, 42, 93
4, 16944, Note_off_c, 2, 42, 0
4, 16944, Note_on_c, 2, 45, 93
4, 16992, Note_off_c, 2, 45, 0
4, 16992, Note_on_c, 2, 41, 93
4, 17040, Note_off_c, 2, 41, 0
4, 17040, Note_on_c, 2, 44, 93
4, 17088, Note_off_c, 2, 44, 0
4, 17088, Note_on_c, 2, 42, 93
4, 17136, Note_off_c, 2, 42, 0
4, 17136, Note_on_c, 2, 45, 93
4, 17184, Note_off_c, 2, 45, 0
4, 17184, Note_on_c, 2, 41, 93
4, 17232, Note_off_c, 2, 41, 0
4, 17232, Note_on_c, 2, 44, 93
4, 17280, Note_off_c, 2, 44, 0
4, 17280, Note_on_c, 2, 42, 93
4, 17328, Note_off_c, 2, 42, 0
4, 17328, Note_on_c, 2, 45, 93
4, 17376, Note_off_c, 2, 45, 0
4, 17376, Note_on_c, 2, 40, 93
4, 17424, Note_off_c, 2, 40, 0
4, 17424, Note_on_c, 2, 44, 93
4, 17472, Note_off_c, 2, 44, 0
4, 17472, Note_on_c, 2, 38, 93
4, 17520, Note_off_c, 2, 38, 0
4, 17520, Note_on_c, 2, 42, 93
4, 17568, Note_off_c, 2, 42, 0
4, 17568, Note_on_c, 2, 37, 93
4, 17616, Note_off_c, 2, 37, 0
4, 17616, Note_on_c, 2, 42, 93
4, 17664, Note_off_c, 2, 42, 0
4, 17664, Note_on_c, 2, 35, 93
4, 17712, Note_off_c, 2, 35, 0
4, 17712, Note_on_c, 2, 42, 93
4, 17760, Note_off_c, 2, 42, 0
4, 17760, Note_on_c, 2, 37, 93
4, 17808, Note_off_c, 2, 37, 0
4, 17808, Note_on_c, 2, 41, 93
4, 17856, Note_off_c, 2, 41, 0
4, 17856, Note_on_c, 2, 30, 93
4, 17952, Note_off_c, 2, 30, 0
4, 19872, Note_on_c, 2, 33, 93
4, 19968, Note_off_c, 2, 33, 0
4, 19968, Note_on_c, 2, 38, 93
4, 20064, Note_off_c, 2, 38, 0
4, 20064, Note_on_c, 2, 37, 93
4, 20160, Note_off_c, 2, 37, 0
4, 20160, Note_on_c, 2, 38, 93
4, 20256, Note_off_c, 2, 38, 0
4, 20640, Note_on_c, 2, 38, 93
4, 20736, Note_off_c, 2, 38, 0
4, 20736, Note_on_c, 2, 43, 93
4, 20832, Note_off_c, 2, 43, 0
4, 20832, Note_on_c, 2, 42, 93
4, 20928, Note_off_c, 2, 42, 0
4, 20928, Note_on_c, 2, 43, 93
4, 21024, Note_off_c, 2, 43, 0
4, 21408, Note_on_c, 2, 40, 93
4, 21504, Note_off_c, 2, 40, 0
4, 21504, Note_on_c, 2, 45, 93
4, 21600, Note_off_c, 2, 45, 0
4, 21600, Note_on_c, 2, 44, 93
4, 21696, Note_off_c, 2, 44, 0
4, 21696, Note_on_c, 2, 45, 93
4, 21792, Note_off_c, 2, 45, 0
4, 22176, Note_on_c, 2, 45, 93
4, 22272, Note_off_c, 2, 45, 0
4, 22272, Note_on_c, 2, 50, 93
4, 22368, Note_off_c, 2, 50, 0
4, 22368, Note_on_c, 2, 49, 93
4, 22464, Note_off_c, 2, 49, 0
4, 22464, Note_on_c, 2, 50, 93
4, 22560, Note_off_c, 2, 50, 0
4, 24336, Note_on_c, 2, 37, 93
4, 24384, Note_off_c, 2, 37, 0
4, 24384, Note_on_c, 2, 38, 93
4, 24432, Note_off_c, 2, 38, 0
4, 24432, Note_on_c, 2, 35, 93
4, 24480, Note_off_c, 2, 35, 0
4, 24480, Note_on_c, 2, 40, 93
4, 24528, Note_off_c, 2, 40, 0
4, 24528, Note_on_c, 2, 28, 93
4, 24576, Note_off_c, 2, 28, 0
4, 24576, Note_on_c, 2, 33, 93
4, 24672, Note_off_c, 2, 33, 0
4, 24672, Note_on_c, 2, 45, 93
4, 24864, Note_off_c, 2, 45, 0
4, 24864, Note_on_c, 2, 43, 93
4, 25056, Note_off_c, 2, 43, 0
4, 25056, Note_on_c, 2, 42, 93
4, 25248, Note_off_c, 2, 42, 0
4, 25248, Note_on_c, 2, 40, 93
4, 25440, Note_off_c, 2, 40, 0
4, 25440, Note_on_c, 2, 38, 93
4, 25632, Note_off_c, 2, 38, 0
4, 25632, Note_on_c, 2, 37, 93
4, 25728, Note_off_c, 2, 37, 0
4, 25728, Note_on_c, 2, 38, 93
4, 25824, Note_off_c, 2, 38, 0
4, 25824, Note_on_c, 2, 35, 93
4, 25920, Note_off_c, 2, 35, 0
4, 25920, Note_on_c, 2, 31, 93
4, 26016, Note_off_c, 2, 31, 0
4, 26016, Note_on_c, 2, 33, 93
4, 26112, Note_off_c, 2, 33, 0
4, 26112, Note_on_c, 2, 26, 93
4, 26208, Note_off_c, 2, 26, 0
4, 26256, Note_on_c, 2, 42, 93
4, 26304, Note_off_c, 2, 42, 0
4, 26304, Note_on_c, 2, 43, 93
4, 26352, Note_off_c, 2, 43, 0
4, 26352, Note_on_c, 2, 47, 93
4, 26400, Note_off_c, 2, 47, 0
4, 26400, Note_on_c, 2, 40, 93
4, 26448, Note_off_c, 2, 40, 0
4, 26448, Note_on_c, 2, 43, 93
4, 26496, Note_off_c, 2, 43, 0
4, 26496, Note_on_c, 2, 42, 93
4, 26544, Note_off_c, 2, 42, 0
4, 26544, Note_on_c, 2, 38, 93
4, 26592, Note_off_c, 2, 38, 0
4, 26592, Note_on_c, 2, 43, 93
4, 26640, Note_off_c, 2, 43, 0
4, 26640, Note_on_c, 2, 35, 93
4, 26688, Note_off_c, 2, 35, 0
4, 26688, Note_on_c, 2, 36, 93
4, 26736, Note_off_c, 2, 36, 0
4, 26736, Note_on_c, 2, 33, 93
4, 26784, Note_off_c, 2, 33, 0
4, 26784, Note_on_c, 2, 38, 93
4, 26832, Note_off_c, 2, 38, 0
4, 26832, Note_on_c, 2, 26, 93
4, 26880, Note_off_c, 2, 26, 0
4, 26880, Note_on_c, 2, 31, 93
4, 26976, Note_off_c, 2, 31, 0
4, 27408, Note_on_c, 2, 31, 93
4, 27456, Note_off_c, 2, 31, 0
4, 27456, Note_on_c, 2, 36, 93
4, 27552, Note_off_c, 2, 36, 0
4, 27552, Note_on_c, 2, 35, 93
4, 27648, Note_off_c, 2, 35, 0
4, 27648, Note_on_c, 2, 36, 93
4, 27744, Note_off_c, 2, 36, 0
4, 28176, Note_on_c, 2, 33, 93
4, 28224, Note_off_c, 2, 33, 0
4, 28224, Note_on_c, 2, 38, 93
4, 28320, Note_off_c, 2, 38, 0
4, 28320, Note_on_c, 2, 37, 93
4, 28416, Note_off_c, 2, 37, 0
4, 28416, Note_on_c, 2, 38, 93
4, 28512, Note_off_c, 2, 38, 0
4, 28944, Note_on_c, 2, 38, 93
4, 28992, Note_off_c, 2, 38, 0
4, 28992, Note_on_c, 2, 43, 93
4, 29088, Note_off_c, 2, 43, 0
4, 29088, Note_on_c, 2, 42, 93
4, 29184, Note_off_c, 2, 42, 0
4, 29184, Note_on_c, 2, 43, 93
4, 29280, Note_off_c, 2, 43, 0
4, 29712, Note_on_c, 2, 43, 93
4, 29760, Note_off_c, 2, 43, 0
4, 29760, Note_on_c, 2, 48, 93
4, 29856, Note_off_c, 2, 48, 0
4, 29856, Note_on_c, 2, 47, 93
4, 29952, Note_off_c, 2, 47, 0
4, 29952, Note_on_c, 2, 48, 93
4, 30048, Note_off_c, 2, 48, 0
4, 30096, Note_on_c, 2, 47, 93
4, 30144, Note_off_c, 2, 47, 0
4, 30144, Note_on_c, 2, 45, 93
4, 30336, Note_off_c, 2, 45, 0
4, 30336, Note_on_c, 2, 47, 93
4, 30432, Note_off_c, 2, 47, 0
4, 30864, Note_on_c, 2, 47, 93
4, 30912, Note_off_c, 2, 47, 0
4, 30912, Note_on_c, 2, 48, 93
4, 30960, Note_off_c, 2, 48, 0
4, 30960, Note_on_c, 2, 50, 93
4, 31008, Note_off_c, 2, 50, 0
4, 31008, Note_on_c, 2, 47, 93
4, 31056, Note_off_c, 2, 47, 0
4, 31056, Note_on_c, 2, 50, 93
4, 31104, Note_off_c, 2, 50, 0
4, 31104, Note_on_c, 2, 45, 93
4, 31152, Note_off_c, 2, 45, 0
4, 31152, Note_on_c, 2, 48, 93
4, 31200, Note_off_c, 2, 48, 0
4, 31200, Note_on_c, 2, 43, 93
4, 31248, Note_off_c, 2, 43, 0
4, 31248, Note_on_c, 2, 47, 93
4, 31296, Note_off_c, 2, 47, 0
4, 31296, Note_on_c, 2, 45, 93
4, 31344, Note_off_c, 2, 45, 0
4, 31344, Note_on_c, 2, 48, 93
4, 31392, Note_off_c, 2, 48, 0
4, 31392, Note_on_c, 2, 35, 93
4, 31440, Note_off_c, 2, 35, 0
4, 31440, Note_on_c, 2, 47, 93
4, 31488, Note_off_c, 2, 47, 0
4, 31488, Note_on_c, 2, 40, 93
4, 31584, Note_off_c, 2, 40, 0
4, 31632, Note_on_c, 2, 44, 93
4, 31680, Note_off_c, 2, 44, 0
4, 31680, Note_on_c, 2, 45, 93
4, 31776, Note_off_c, 2, 45, 0
4, 31776, Note_on_c, 2, 44, 93
4, 31872, Note_off_c, 2, 44, 0
4, 31872, Note_on_c, 2, 45, 93
4, 31968, Note_off_c, 2, 45, 0
4, 32160, Note_on_c, 2, 40, 93
4, 32256, Note_off_c, 2, 40, 0
4, 32256, Note_on_c, 2, 33, 93
4, 32352, Note_off_c, 2, 33, 0
4, 32400, Note_on_c, 2, 42, 93
4, 32448, Note_off_c, 2, 42, 0
4, 32448, Note_on_c, 2, 43, 93
4, 32640, Note_off_c, 2, 43, 0
4, 32640, Note_on_c, 2, 42, 93
4, 32832, Note_off_c, 2, 42, 0
4, 32832, Note_on_c, 2, 40, 93
4, 33024, Note_off_c, 2, 40, 0
4, 33024, Note_on_c, 2, 38, 93
4, 33120, Note_off_c, 2, 38, 0
4, 33120, Note_on_c, 2, 42, 93
4, 33216, Note_off_c, 2, 42, 0
4, 33216, Note_on_c, 2, 43, 93
4, 33312, Note_off_c, 2, 43, 0
4, 33312, Note_on_c, 2, 45, 93
4, 33408, Note_off_c, 2, 45, 0
4, 33408, Note_on_c, 2, 47, 93
4, 33504, Note_off_c, 2, 47, 0
4, 33504, Note_on_c, 2, 43, 93
4, 33600, Note_off_c, 2, 43, 0
4, 33600, Note_on_c, 2, 45, 93
4, 33696, Note_off_c, 2, 45, 0
4, 33696, Note_on_c, 2, 33, 93
4, 33792, Note_off_c, 2, 33, 0
4, 33792, Note_on_c, 2, 38, 93
4, 33888, Note_off_c, 2, 38, 0
4, 33888, Note_on_c, 2, 38, 93
4, 34080, Note_off_c, 2, 38, 0
4, 34080, Note_on_c, 2, 37, 93
4, 34272, Note_off_c, 2, 37, 0
4, 34272, Note_on_c, 2, 35, 93
4, 34464, Note_off_c, 2, 35, 0
4, 34464, Note_on_c, 2, 33, 93
4, 34656, Note_off_c, 2, 33, 0
4, 34656, Note_on_c, 2, 31, 93
4, 34848, Note_off_c, 2, 31, 0
4, 34848, Note_on_c, 2, 30, 93
4, 35040, Note_off_c, 2, 30, 0
4, 35040, Note_on_c, 2, 28, 93
4, 35136, Note_off_c, 2, 28, 0
4, 35136, Note_on_c, 2, 30, 93
4, 35328, Note_off_c, 2, 30, 0
4, 35328, Note_on_c, 2, 31, 93
4, 35424, Note_off_c, 2, 31, 0
4, 35424, Note_on_c, 2, 33, 93
4, 35520, Note_off_c, 2, 33, 0
4, 35520, Note_on_c, 2, 35, 93
4, 35616, Note_off_c, 2, 35, 0
4, 35616, Note_on_c, 2, 30, 93
4, 35712, Note_off_c, 2, 30, 0
4, 35712, Note_on_c, 2, 31, 93
4, 35808, Note_off_c, 2, 31, 0
4, 35808, Note_on_c, 2, 33, 93
4, 35904, Note_off_c, 2, 33, 0
4, 35904, Note_on_c, 2, 35, 93
4, 36000, Note_off_c, 2, 35, 0
4, 36384, Note_on_c, 2, 30, 93
4, 36480, Note_off_c, 2, 30, 0
4, 36480, Note_on_c, 2, 31, 93
4, 36576, Note_off_c, 2, 31, 0
4, 36576, Note_on_c, 2, 33, 93
4, 36672, Note_off_c, 2, 33, 0
4, 36672, Note_on_c, 2, 27, 118
4, 36864, Note_off_c, 2, 27, 0
4, 36864, Note_on_c, 2, 28, 118
4, 36960, Note_off_c, 2, 28, 0
4, 37056, Note_on_c, 2, 44, 118
4, 37248, Note_off_c, 2, 44, 0
4, 37248, Note_on_c, 2, 45, 118
4, 37344, Note_off_c, 2, 45, 0
4, 37344, Note_on_c, 2, 33, 118
4, 37440, Note_off_c, 2, 33, 0
4, 37440, Note_on_c, 2, 38, 118
4, 37488, Note_off_c, 2, 38, 0
4, 37632, Note_on_c, 2, 38, 118
4, 37728, Note_off_c, 2, 38, 0
4, 37728, Note_on_c, 2, 36, 118
4, 37776, Note_off_c, 2, 36, 0
4, 37776, Note_on_c, 2, 35, 118
4, 37800, Note_off_c, 2, 35, 0
4, 37800, Note_on_c, 2, 33, 118
4, 37824, Note_off_c, 2, 33, 0
4, 37824, Note_on_c, 2, 42, 118
4, 38112, Note_off_c, 2, 42, 0
4, 38112, Note_on_c, 2, 40, 118
4, 38160, Note_off_c, 2, 40, 0
4, 38160, Note_on_c, 2, 39, 118
4, 38208, Note_off_c, 2, 39, 0
4, 38208, Note_on_c, 2, 40, 118
4, 38304, Note_off_c, 2, 40, 0
4, 38304, Note_on_c, 2, 26, 118
4, 38400, Note_off_c, 2, 26, 0
4, 38400, Note_on_c, 2, 24, 118
4, 38448, Note_off_c, 2, 24, 0
4, 38448, Note_on_c, 2, 36, 118
4, 38496, Note_off_c, 2, 36, 0
4, 38496, Note_on_c, 2, 35, 118
4, 38544, Note_off_c, 2, 35, 0
4, 38544, Note_on_c, 2, 33, 118
4, 38592, Note_off_c, 2, 33, 0
4, 38592, Note_on_c, 2, 40, 118
4, 39072, Note_off_c, 2, 40, 0
4, 39072, Note_on_c, 2, 38, 118
4, 39168, Note_off_c, 2, 38, 0
4, 39168, Note_on_c, 2, 37, 118
4, 39360, Note_off_c, 2, 37, 0
4, 39360, Note_on_c, 2, 29, 118
4, 39552, Note_off_c, 2, 29, 0
4, 39552, Note_on_c, 2, 31, 118
4, 39744, Note_off_c, 2, 31, 0
4, 39936, Note_on_c, 2, 33, 118
4, 40320, Note_off_c, 2, 33, 0
4, 40320, Note_on_c, 2, 26, 118
4, 40512, Note_off_c, 2, 26, 0
4, 40704, Note_on_c, 2, 26, 118
4, 41088, Note_off_c, 2, 26, 0
4, 48960, Note_on_c, 2, 33, 93
4, 48984, Note_off_c, 2, 33, 0
4, 48984, Note_on_c, 2, 35, 93
4, 49008, Note_off_c, 2, 35, 0
4, 49008, Note_on_c, 2, 37, 93
4, 49032, Note_off_c, 2, 37, 0
4, 49032, Note_on_c, 2, 35, 93
4, 49056, Note_off_c, 2, 35, 0
4, 49056, Note_on_c, 2, 33, 93
4, 49080, Note_off_c, 2, 33, 0
4, 49080, Note_on_c, 2, 35, 93
4, 49104, Note_off_c, 2, 35, 0
4, 49104, Note_on_c, 2, 37, 93
4, 49128, Note_off_c, 2, 37, 0
4, 49128, Note_on_c, 2, 35, 93
4, 49152, Note_off_c, 2, 35, 0
4, 49152, Note_on_c, 2, 33, 93
4, 49176, Note_off_c, 2, 33, 0
4, 49176, Note_on_c, 2, 35, 93
4, 49200, Note_off_c, 2, 35, 0
4, 49200, Note_on_c, 2, 37, 93
4, 49224, Note_off_c, 2, 37, 0
4, 49224, Note_on_c, 2, 35, 93
4, 49248, Note_off_c, 2, 35, 0
4, 49248, Note_on_c, 2, 33, 93
4, 49272, Note_off_c, 2, 33, 0
4, 49272, Note_on_c, 2, 35, 93
4, 49296, Note_off_c, 2, 35, 0
4, 49296, Note_on_c, 2, 37, 93
4, 49320, Note_off_c, 2, 37, 0
4, 49320, Note_on_c, 2, 35, 93
4, 49344, Note_off_c, 2, 35, 0
4, 49344, Note_on_c, 2, 33, 93
4, 49392, Note_off_c, 2, 33, 0
4, 49632, Note_on_c, 2, 42, 93
4, 49656, Note_off_c, 2, 42, 0
4, 49656, Note_on_c, 2, 40, 93
4, 49680, Note_off_c, 2, 40, 0
4, 49680, Note_on_c, 2, 42, 93
4, 49704, Note_off_c, 2, 42, 0
4, 49704, Note_on_c, 2, 37, 93
4, 49728, Note_off_c, 2, 37, 0
4, 49728, Note_on_c, 2, 38, 93
4, 49752, Note_off_c, 2, 38, 0
4, 49752, Note_on_c, 2, 37, 93
4, 49776, Note_off_c, 2, 37, 0
4, 49776, Note_on_c, 2, 38, 93
4, 49800, Note_off_c, 2, 38, 0
4, 49800, Note_on_c, 2, 35, 93
4, 49824, Note_off_c, 2, 35, 0
4, 49824, Note_on_c, 2, 40, 93
4, 49848, Note_off_c, 2, 40, 0
4, 49848, Note_on_c, 2, 38, 93
4, 49872, Note_off_c, 2, 38, 0
4, 49872, Note_on_c, 2, 40, 93
4, 49896, Note_off_c, 2, 40, 0
4, 49896, Note_on_c, 2, 35, 93
4, 49920, Note_off_c, 2, 35, 0
4, 49920, Note_on_c, 2, 37, 93
4, 49944, Note_off_c, 2, 37, 0
4, 49944, Note_on_c, 2, 35, 93
4, 49968, Note_off_c, 2, 35, 0
4, 49968, Note_on_c, 2, 37, 93
4, 49992, Note_off_c, 2, 37, 0
4, 49992, Note_on_c, 2, 33, 93
4, 50016, Note_off_c, 2, 33, 0
4, 50016, Note_on_c, 2, 38, 93
4, 50040, Note_off_c, 2, 38, 0
4, 50040, Note_on_c, 2, 37, 93
4, 50064, Note_off_c, 2, 37, 0
4, 50064, Note_on_c, 2, 38, 93
4, 50088, Note_off_c, 2, 38, 0
4, 50088, Note_on_c, 2, 33, 93
4, 50112, Note_off_c, 2, 33, 0
4, 50112, Note_on_c, 2, 35, 93
4, 50136, Note_off_c, 2, 35, 0
4, 50136, Note_on_c, 2, 33, 93
4, 50160, Note_off_c, 2, 33, 0
4, 50160, Note_on_c, 2, 35, 93
4, 50184, Note_off_c, 2, 35, 0
4, 50184, Note_on_c, 2, 32, 93
4, 50208, Note_off_c, 2, 32, 0
4, 50208, Note_on_c, 2, 37, 93
4, 50232, Note_off_c, 2, 37, 0
4, 50232, Note_on_c, 2, 35, 93
4, 50256, Note_off_c, 2, 35, 0
4, 50256, Note_on_c, 2, 37, 93
4, 50280, Note_off_c, 2, 37, 0
4, 50280, Note_on_c, 2, 32, 93
4, 50304, Note_off_c, 2, 32, 0
4, 50304, Note_on_c, 2, 33, 93
4, 50328, Note_off_c, 2, 33, 0
4, 50328, Note_on_c, 2, 32, 93
4, 50352, Note_off_c, 2, 32, 0
4, 50352, Note_on_c, 2, 33, 93
4, 50376, Note_off_c, 2, 33, 0
4, 50376, Note_on_c, 2, 30, 93
4, 50400, Note_off_c, 2, 30, 0
4, 50400, Note_on_c, 2, 35, 93
4, 50424, Note_off_c, 2, 35, 0
4, 50424, Note_on_c, 2, 33, 93
4, 50448, Note_off_c, 2, 33, 0
4, 50448, Note_on_c, 2, 35, 93
4, 50472, Note_off_c, 2, 35, 0
4, 50472, Note_on_c, 2, 30, 93
4, 50496, Note_off_c, 2, 30, 0
4, 50496, Note_on_c, 2, 32, 93
4, 50520, Note_off_c, 2, 32, 0
4, 50520, Note_on_c, 2, 30, 93
4, 50544, Note_off_c, 2, 30, 0
4, 50544, Note_on_c, 2, 32, 93
4, 50568, Note_off_c, 2, 32, 0
4, 50568, Note_on_c, 2, 28, 93
4, 50592, Note_off_c, 2, 28, 0
4, 50592, Note_on_c, 2, 33, 93
4, 50712, Note_off_c, 2, 33, 0
4, 50712, Note_on_c, 2, 35, 93
4, 50736, Note_off_c, 2, 35, 0
4, 50736, Note_on_c, 2, 33, 93
4, 50760, Note_off_c, 2, 33, 0
4, 50760, Note_on_c, 2, 35, 93
4, 50784, Note_off_c, 2, 35, 0
4, 50784, Note_on_c, 2, 32, 93
4, 50880, Note_off_c, 2, 32, 0
4, 50880, Note_on_c, 2, 33, 93
4, 50976, Note_off_c, 2, 33, 0
4, 51000, Note_on_c, 2, 33, 93
4, 51024, Note_off_c, 2, 33, 0
4, 51024, Note_on_c, 2, 37, 93
4, 51048, Note_off_c, 2, 37, 0
4, 51048, Note_on_c, 2, 33, 93
4, 51072, Note_off_c, 2, 33, 0
4, 51072, Note_on_c, 2, 38, 93
4, 51120, Note_off_c, 2, 38, 0
4, 51120, Note_on_c, 2, 35, 93
4, 51168, Note_off_c, 2, 35, 0
4, 51168, Note_on_c, 2, 40, 93
4, 51216, Note_off_c, 2, 40, 0
4, 51216, Note_on_c, 2, 28, 93
4, 51264, Note_off_c, 2, 28, 0
4, 51264, Note_on_c, 2, 33, 93
4, 51360, Note_off_c, 2, 33, 0
4, 51408, Note_on_c, 2, 35, 93
4, 51456, Note_off_c, 2, 35, 0
4, 51456, Note_on_c, 2, 37, 93
4, 51504, Note_off_c, 2, 37, 0
4, 51504, Note_on_c, 2, 38, 93
4, 51552, Note_off_c, 2, 38, 0
4, 51552, Note_on_c, 2, 40, 93
4, 51600, Note_off_c, 2, 40, 0
4, 51600, Note_on_c, 2, 28, 93
4, 51648, Note_off_c, 2, 28, 0
4, 51648, Note_on_c, 2, 33, 93
4, 51744, Note_off_c, 2, 33, 0
4, 53040, Note_on_c, 2, 38, 93
4, 53064, Note_off_c, 2, 38, 0
4, 53064, Note_on_c, 2, 37, 93
4, 53088, Note_off_c, 2, 37, 0
4, 53088, Note_on_c, 2, 38, 93
4, 53112, Note_off_c, 2, 38, 0
4, 53112, Note_on_c, 2, 37, 93
4, 53136, Note_off_c, 2, 37, 0
4, 53136, Note_on_c, 2, 38, 93
4, 53160, Note_off_c, 2, 38, 0
4, 53160, Note_on_c, 2, 37, 93
4, 53184, Note_off_c, 2, 37, 0
4, 53184, Note_on_c, 2, 38, 93
4, 53232, Note_off_c, 2, 38, 0
4, 53232, Note_on_c, 2, 26, 93
4, 53280, Note_off_c, 2, 26, 0
4, 53328, Note_on_c, 2, 50, 93
4, 53364, Note_off_c, 2, 50, 0
4, 53376, Note_on_c, 2, 50, 93
4, 53472, Note_off_c, 2, 50, 0
4, 53520, Note_on_c, 2, 49, 93
4, 53556, Note_off_c, 2, 49, 0
4, 53568, Note_on_c, 2, 49, 93
4, 53664, Note_off_c, 2, 49, 0
4, 53712, Note_on_c, 2, 47, 93
4, 53748, Note_off_c, 2, 47, 0
4, 53760, Note_on_c, 2, 47, 93
4, 53856, Note_off_c, 2, 47, 0
4, 53904, Note_on_c, 2, 45, 93
4, 53940, Note_off_c, 2, 45, 0
4, 53952, Note_on_c, 2, 45, 93
4, 54048, Note_off_c, 2, 45, 0
4, 54096, Note_on_c, 2, 43, 93
4, 54132, Note_off_c, 2, 43, 0
4, 54144, Note_on_c, 2, 43, 93
4, 54240, Note_off_c, 2, 43, 0
4, 54240, Note_on_c, 2, 42, 93
4, 54288, Note_off_c, 2, 42, 0
4, 54288, Note_on_c, 2, 47, 93
4, 54312, Note_off_c, 2, 47, 0
4, 54312, Note_on_c, 2, 42, 93
4, 54336, Note_off_c, 2, 42, 0
4, 54336, Note_on_c, 2, 43, 93
4, 54384, Note_off_c, 2, 43, 0
4, 54384, Note_on_c, 2, 40, 93
4, 54432, Note_off_c, 2, 40, 0
4, 54432, Note_on_c, 2, 45, 93
4, 54480, Note_off_c, 2, 45, 0
4, 54480, Note_on_c, 2, 33, 93
4, 54528, Note_off_c, 2, 33, 0
4, 54528, Note_on_c, 2, 38, 93
4, 54624, Note_off_c, 2, 38, 0
4, 54672, Note_on_c, 2, 47, 93
4, 54720, Note_off_c, 2, 47, 0
4, 54720, Note_on_c, 2, 49, 93
4, 54816, Note_off_c, 2, 49, 0
4, 54864, Note_on_c, 2, 38, 93
4, 54912, Note_off_c, 2, 38, 0
4, 54912, Note_on_c, 2, 40, 93
4, 55008, Note_off_c, 2, 40, 0
4, 55008, Note_on_c, 2, 35, 93
4, 55056, Note_off_c, 2, 35, 0
4, 55056, Note_on_c, 2, 40, 93
4, 55104, Note_off_c, 2, 40, 0
4, 55104, Note_on_c, 2, 33, 93
4, 55152, Note_off_c, 2, 33, 0
4, 55152, Note_on_c, 2, 38, 93
4, 55200, Note_off_c, 2, 38, 0
4, 55200, Note_on_c, 2, 40, 93
4, 55248, Note_off_c, 2, 40, 0
4, 55248, Note_on_c, 2, 28, 93
4, 55296, Note_off_c, 2, 28, 0
4, 55296, Note_on_c, 2, 33, 93
4, 55392, Note_off_c, 2, 33, 0
4, 58752, Note_on_c, 2, 38, 93
4, 58776, Note_off_c, 2, 38, 0
4, 58776, Note_on_c, 2, 40, 93
4, 58800, Note_off_c, 2, 40, 0
4, 58800, Note_on_c, 2, 42, 93
4, 58824, Note_off_c, 2, 42, 0
4, 58824, Note_on_c, 2, 40, 93
4, 58848, Note_off_c, 2, 40, 0
4, 58848, Note_on_c, 2, 38, 93
4, 58872, Note_off_c, 2, 38, 0
4, 58872, Note_on_c, 2, 40, 93
4, 58896, Note_off_c, 2, 40, 0
4, 58896, Note_on_c, 2, 42, 93
4, 58920, Note_off_c, 2, 42, 0
4, 58920, Note_on_c, 2, 40, 93
4, 58944, Note_off_c, 2, 40, 0
4, 58944, Note_on_c, 2, 38, 93
4, 58968, Note_off_c, 2, 38, 0
4, 58968, Note_on_c, 2, 40, 93
4, 58992, Note_off_c, 2, 40, 0
4, 58992, Note_on_c, 2, 42, 93
4, 59016, Note_off_c, 2, 42, 0
4, 59016, Note_on_c, 2, 40, 93
4, 59040, Note_off_c, 2, 40, 0
4, 59040, Note_on_c, 2, 38, 93
4, 59064, Note_off_c, 2, 38, 0
4, 59064, Note_on_c, 2, 40, 93
4, 59088, Note_off_c, 2, 40, 0
4, 59088, Note_on_c, 2, 42, 93
4, 59112, Note_off_c, 2, 42, 0
4, 59112, Note_on_c, 2, 40, 93
4, 59136, Note_off_c, 2, 40, 0
4, 59136, Note_on_c, 2, 38, 93
4, 59232, Note_off_c, 2, 38, 0
4, 59424, Note_on_c, 2, 47, 93
4, 59448, Note_off_c, 2, 47, 0
4, 59448, Note_on_c, 2, 45, 93
4, 59472, Note_off_c, 2, 45, 0
4, 59472, Note_on_c, 2, 47, 93
4, 59496, Note_off_c, 2, 47, 0
4, 59496, Note_on_c, 2, 42, 93
4, 59520, Note_off_c, 2, 42, 0
4, 59520, Note_on_c, 2, 43, 93
4, 59544, Note_off_c, 2, 43, 0
4, 59544, Note_on_c, 2, 42, 93
4, 59568, Note_off_c, 2, 42, 0
4, 59568, Note_on_c, 2, 43, 93
4, 59592, Note_off_c, 2, 43, 0
4, 59592, Note_on_c, 2, 40, 93
4, 59616, Note_off_c, 2, 40, 0
4, 59616, Note_on_c, 2, 45, 93
4, 59640, Note_off_c, 2, 45, 0
4, 59640, Note_on_c, 2, 43, 93
4, 59664, Note_off_c, 2, 43, 0
4, 59664, Note_on_c, 2, 45, 93
4, 59688, Note_off_c, 2, 45, 0
4, 59688, Note_on_c, 2, 40, 93
4, 59712, Note_off_c, 2, 40, 0
4, 59712, Note_on_c, 2, 42, 93
4, 59736, Note_off_c, 2, 42, 0
4, 59736, Note_on_c, 2, 40, 93
4, 59760, Note_off_c, 2, 40, 0
4, 59760, Note_on_c, 2, 42, 93
4, 59784, Note_off_c, 2, 42, 0
4, 59784, Note_on_c, 2, 38, 93
4, 59808, Note_off_c, 2, 38, 0
4, 59808, Note_on_c, 2, 43, 93
4, 59832, Note_off_c, 2, 43, 0
4, 59832, Note_on_c, 2, 42, 93
4, 59856, Note_off_c, 2, 42, 0
4, 59856, Note_on_c, 2, 43, 93
4, 59880, Note_off_c, 2, 43, 0
4, 59880, Note_on_c, 2, 38, 93
4, 59904, Note_off_c, 2, 38, 0
4, 59904, Note_on_c, 2, 40, 93
4, 59928, Note_off_c, 2, 40, 0
4, 59928, Note_on_c, 2, 38, 93
4, 59952, Note_off_c, 2, 38, 0
4, 59952, Note_on_c, 2, 40, 93
4, 59976, Note_off_c, 2, 40, 0
4, 59976, Note_on_c, 2, 37, 93
4, 60000, Note_off_c, 2, 37, 0
4, 60000, Note_on_c, 2, 42, 93
4, 60024, Note_off_c, 2, 42, 0
4, 60024, Note_on_c, 2, 40, 93
4, 60048, Note_off_c, 2, 40, 0
4, 60048, Note_on_c, 2, 42, 93
4, 60072, Note_off_c, 2, 42, 0
4, 60072, Note_on_c, 2, 37, 93
4, 60096, Note_off_c, 2, 37, 0
4, 60096, Note_on_c, 2, 38, 93
4, 60120, Note_off_c, 2, 38, 0
4, 60120, Note_on_c, 2, 37, 93
4, 60144, Note_off_c, 2, 37, 0
4, 60144, Note_on_c, 2, 38, 93
4, 60168, Note_off_c, 2, 38, 0
4, 60168, Note_on_c, 2, 35, 93
4, 60192, Note_off_c, 2, 35, 0
4, 60192, Note_on_c, 2, 40, 93
4, 60216, Note_off_c, 2, 40, 0
4, 60216, Note_on_c, 2, 38, 93
4, 60240, Note_off_c, 2, 38, 0
4, 60240, Note_on_c, 2, 40, 93
4, 60264, Note_off_c, 2, 40, 0
4, 60264, Note_on_c, 2, 35, 93
4, 60288, Note_off_c, 2, 35, 0
4, 60288, Note_on_c, 2, 37, 93
4, 60312, Note_off_c, 2, 37, 0
4, 60312, Note_on_c, 2, 35, 93
4, 60336, Note_off_c, 2, 35, 0
4, 60336, Note_on_c, 2, 37, 93
4, 60360, Note_off_c, 2, 37, 0
4, 60360, Note_on_c, 2, 33, 93
4, 60384, Note_off_c, 2, 33, 0
4, 60384, Note_on_c, 2, 38, 93
4, 60504, Note_off_c, 2, 38, 0
4, 60504, Note_on_c, 2, 40, 93
4, 60528, Note_off_c, 2, 40, 0
4, 60528, Note_on_c, 2, 38, 93
4, 60552, Note_off_c, 2, 38, 0
4, 60552, Note_on_c, 2, 40, 93
4, 60576, Note_off_c, 2, 40, 0
4, 60576, Note_on_c, 2, 37, 93
4, 60672, Note_off_c, 2, 37, 0
4, 60672, Note_on_c, 2, 38, 93
4, 60768, Note_off_c, 2, 38, 0
4, 60816, Note_on_c, 2, 42, 93
4, 60864, Note_off_c, 2, 42, 0
4, 60864, Note_on_c, 2, 44, 93
4, 60960, Note_off_c, 2, 44, 0
4, 61008, Note_on_c, 2, 46, 93
4, 61056, Note_off_c, 2, 46, 0
4, 61056, Note_on_c, 2, 47, 93
4, 61152, Note_off_c, 2, 47, 0
4, 61200, Note_on_c, 2, 43, 93
4, 61248, Note_off_c, 2, 43, 0
4, 61248, Note_on_c, 2, 40, 93
4, 61344, Note_off_c, 2, 40, 0
4, 61392, Note_on_c, 2, 42, 93
4, 61440, Note_off_c, 2, 42, 0
4, 61440, Note_on_c, 2, 35, 93
4, 61464, Note_off_c, 2, 35, 0
4, 61464, Note_on_c, 2, 37, 93
4, 61488, Note_off_c, 2, 37, 0
4, 61488, Note_on_c, 2, 38, 93
4, 61512, Note_off_c, 2, 38, 0
4, 61512, Note_on_c, 2, 37, 93
4, 61536, Note_off_c, 2, 37, 0
4, 61536, Note_on_c, 2, 35, 93
4, 61560, Note_off_c, 2, 35, 0
4, 61560, Note_on_c, 2, 37, 93
4, 61584, Note_off_c, 2, 37, 0
4, 61584, Note_on_c, 2, 38, 93
4, 61608, Note_off_c, 2, 38, 0
4, 61608, Note_on_c, 2, 37, 93
4, 61632, Note_off_c, 2, 37, 0
4, 61632, Note_on_c, 2, 35, 93
4, 61656, Note_off_c, 2, 35, 0
4, 61656, Note_on_c, 2, 37, 93
4, 61680, Note_off_c, 2, 37, 0
4, 61680, Note_on_c, 2, 38, 93
4, 61704, Note_off_c, 2, 38, 0
4, 61704, Note_on_c, 2, 37, 93
4, 61728, Note_off_c, 2, 37, 0
4, 61728, Note_on_c, 2, 35, 93
4, 61752, Note_off_c, 2, 35, 0
4, 61752, Note_on_c, 2, 37, 93
4, 61776, Note_off_c, 2, 37, 0
4, 61776, Note_on_c, 2, 38, 93
4, 61800, Note_off_c, 2, 38, 0
4, 61800, Note_on_c, 2, 37, 93
4, 61824, Note_off_c, 2, 37, 0
4, 61824, Note_on_c, 2, 35, 93
4, 61920, Note_off_c, 2, 35, 0
4, 62496, Note_on_c, 2, 43, 93
4, 62520, Note_off_c, 2, 43, 0
4, 62520, Note_on_c, 2, 42, 93
4, 62544, Note_off_c, 2, 42, 0
4, 62544, Note_on_c, 2, 43, 93
4, 62568, Note_off_c, 2, 43, 0
4, 62568, Note_on_c, 2, 38, 93
4, 62592, Note_off_c, 2, 38, 0
4, 62592, Note_on_c, 2, 40, 93
4, 62616, Note_off_c, 2, 40, 0
4, 62616, Note_on_c, 2, 38, 93
4, 62640, Note_off_c, 2, 38, 0
4, 62640, Note_on_c, 2, 40, 93
4, 62664, Note_off_c, 2, 40, 0
4, 62664, Note_on_c, 2, 37, 93
4, 62688, Note_off_c, 2, 37, 0
4, 62688, Note_on_c, 2, 42, 93
4, 62712, Note_off_c, 2, 42, 0
4, 62712, Note_on_c, 2, 40, 93
4, 62736, Note_off_c, 2, 40, 0
4, 62736, Note_on_c, 2, 42, 93
4, 62760, Note_off_c, 2, 42, 0
4, 62760, Note_on_c, 2, 37, 93
4, 62784, Note_off_c, 2, 37, 0
4, 62784, Note_on_c, 2, 38, 93
4, 62808, Note_off_c, 2, 38, 0
4, 62808, Note_on_c, 2, 37, 93
4, 62832, Note_off_c, 2, 37, 0
4, 62832, Note_on_c, 2, 38, 93
4, 62856, Note_off_c, 2, 38, 0
4, 62856, Note_on_c, 2, 35, 93
4, 62880, Note_off_c, 2, 35, 0
4, 62880, Note_on_c, 2, 40, 93
4, 62904, Note_off_c, 2, 40, 0
4, 62904, Note_on_c, 2, 38, 93
4, 62928, Note_off_c, 2, 38, 0
4, 62928, Note_on_c, 2, 40, 93
4, 62952, Note_off_c, 2, 40, 0
4, 62952, Note_on_c, 2, 35, 93
4, 62976, Note_off_c, 2, 35, 0
4, 62976, Note_on_c, 2, 37, 93
4, 63000, Note_off_c, 2, 37, 0
4, 63000, Note_on_c, 2, 35, 93
4, 63024, Note_off_c, 2, 35, 0
4, 63024, Note_on_c, 2, 37, 93
4, 63048, Note_off_c, 2, 37, 0
4, 63048, Note_on_c, 2, 33, 93
4, 63072, Note_off_c, 2, 33, 0
4, 63072, Note_on_c, 2, 38, 93
4, 63096, Note_off_c, 2, 38, 0
4, 63096, Note_on_c, 2, 37, 93
4, 63120, Note_off_c, 2, 37, 0
4, 63120, Note_on_c, 2, 38, 93
4, 63144, Note_off_c, 2, 38, 0
4, 63144, Note_on_c, 2, 33, 93
4, 63168, Note_off_c, 2, 33, 0
4, 63168, Note_on_c, 2, 35, 93
4, 63192, Note_off_c, 2, 35, 0
4, 63192, Note_on_c, 2, 33, 93
4, 63216, Note_off_c, 2, 33, 0
4, 63216, Note_on_c, 2, 35, 93
4, 63240, Note_off_c, 2, 35, 0
4, 63240, Note_on_c, 2, 32, 93
4, 63264, Note_off_c, 2, 32, 0
4, 63264, Note_on_c, 2, 37, 93
4, 63288, Note_off_c, 2, 37, 0
4, 63288, Note_on_c, 2, 35, 93
4, 63312, Note_off_c, 2, 35, 0
4, 63312, Note_on_c, 2, 37, 93
4, 63336, Note_off_c, 2, 37, 0
4, 63336, Note_on_c, 2, 32, 93
4, 63360, Note_off_c, 2, 32, 0
4, 63360, Note_on_c, 2, 34, 93
4, 63384, Note_off_c, 2, 34, 0
4, 63384, Note_on_c, 2, 32, 93
4, 63408, Note_off_c, 2, 32, 0
4, 63408, Note_on_c, 2, 34, 93
4, 63432, Note_off_c, 2, 34, 0
4, 63432, Note_on_c, 2, 30, 93
4, 63456, Note_off_c, 2, 30, 0
4, 63456, Note_on_c, 2, 35, 93
4, 63504, Note_off_c, 2, 35, 0
4, 63504, Note_on_c, 2, 35, 93
4, 63552, Note_off_c, 2, 35, 0
4, 63552, Note_on_c, 2, 35, 93
4, 63648, Note_off_c, 2, 35, 0
4, 63696, Note_on_c, 2, 34, 93
4, 63744, Note_off_c, 2, 34, 0
4, 63744, Note_on_c, 2, 35, 93
4, 63840, Note_off_c, 2, 35, 0
4, 66288, Note_on_c, 2, 42, 93
4, 66312, Note_off_c, 2, 42, 0
4, 66312, Note_on_c, 2, 41, 93
4, 66336, Note_off_c, 2, 41, 0
4, 66336, Note_on_c, 2, 42, 93
4, 66360, Note_off_c, 2, 42, 0
4, 66360, Note_on_c, 2, 41, 93
4, 66384, Note_off_c, 2, 41, 0
4, 66384, Note_on_c, 2, 42, 93
4, 66408, Note_off_c, 2, 42, 0
4, 66408, Note_on_c, 2, 41, 93
4, 66432, Note_off_c, 2, 41, 0
4, 66432, Note_on_c, 2, 42, 93
4, 66468, Note_off_c, 2, 42, 0
4, 66480, Note_on_c, 2, 30, 93
4, 66528, Note_off_c, 2, 30, 0
4, 66576, Note_on_c, 2, 42, 93
4, 66612, Note_off_c, 2, 42, 0
4, 66624, Note_on_c, 2, 42, 93
4, 66720, Note_off_c, 2, 42, 0
4, 66768, Note_on_c, 2, 40, 93
4, 66804, Note_off_c, 2, 40, 0
4, 66816, Note_on_c, 2, 40, 93
4, 66912, Note_off_c, 2, 40, 0
4, 66960, Note_on_c, 2, 38, 93
4, 66996, Note_off_c, 2, 38, 0
4, 67008, Note_on_c, 2, 38, 93
4, 67104, Note_off_c, 2, 38, 0
4, 67152, Note_on_c, 2, 37, 93
4, 67188, Note_off_c, 2, 37, 0
4, 67200, Note_on_c, 2, 37, 93
4, 67296, Note_off_c, 2, 37, 0
4, 67344, Note_on_c, 2, 35, 93
4, 67392, Note_off_c, 2, 35, 0
4, 67392, Note_on_c, 2, 35, 93
4, 67488, Note_off_c, 2, 35, 0
4, 67488, Note_on_c, 2, 33, 93
4, 67584, Note_off_c, 2, 33, 0
4, 67584, Note_on_c, 2, 35, 93
4, 67680, Note_off_c, 2, 35, 0
4, 67680, Note_on_c, 2, 37, 93
4, 67776, Note_off_c, 2, 37, 0
4, 67776, Note_on_c, 2, 30, 93
4, 67872, Note_off_c, 2, 30, 0
4, 68016, Note_on_c, 2, 42, 93
4, 68040, Note_off_c, 2, 42, 0
4, 68040, Note_on_c, 2, 41, 93
4, 68064, Note_off_c, 2, 41, 0
4, 68064, Note_on_c, 2, 42, 93
4, 68088, Note_off_c, 2, 42, 0
4, 68088, Note_on_c, 2, 41, 93
4, 68112, Note_off_c, 2, 41, 0
4, 68112, Note_on_c, 2, 42, 93
4, 68136, Note_off_c, 2, 42, 0
4, 68136, Note_on_c, 2, 41, 93
4, 68160, Note_off_c, 2, 41, 0
4, 68160, Note_on_c, 2, 42, 93
4, 68256, Note_off_c, 2, 42, 0
4, 68400, Note_on_c, 2, 30, 93
4, 68424, Note_off_c, 2, 30, 0
4, 68424, Note_on_c, 2, 29, 93
4, 68448, Note_off_c, 2, 29, 0
4, 68448, Note_on_c, 2, 30, 93
4, 68472, Note_off_c, 2, 30, 0
4, 68472, Note_on_c, 2, 29, 93
4, 68496, Note_off_c, 2, 29, 0
4, 68496, Note_on_c, 2, 30, 93
4, 68520, Note_off_c, 2, 30, 0
4, 68520, Note_on_c, 2, 29, 93
4, 68544, Note_off_c, 2, 29, 0
4, 68544, Note_on_c, 2, 30, 93
4, 68640, Note_off_c, 2, 30, 0
4, 68832, Note_on_c, 2, 50, 93
4, 68856, Note_off_c, 2, 50, 0
4, 68856, Note_on_c, 2, 49, 93
4, 68880, Note_off_c, 2, 49, 0
4, 68880, Note_on_c, 2, 50, 93
4, 68904, Note_off_c, 2, 50, 0
4, 68904, Note_on_c, 2, 45, 93
4, 68928, Note_off_c, 2, 45, 0
4, 68928, Note_on_c, 2, 47, 93
4, 68952, Note_off_c, 2, 47, 0
4, 68952, Note_on_c, 2, 45, 93
4, 68976, Note_off_c, 2, 45, 0
4, 68976, Note_on_c, 2, 47, 93
4, 69000, Note_off_c, 2, 47, 0
4, 69000, Note_on_c, 2, 44, 93
4, 69024, Note_off_c, 2, 44, 0
4, 69024, Note_on_c, 2, 49, 93
4, 69048, Note_off_c, 2, 49, 0
4, 69048, Note_on_c, 2, 47, 93
4, 69072, Note_off_c, 2, 47, 0
4, 69072, Note_on_c, 2, 49, 93
4, 69096, Note_off_c, 2, 49, 0
4, 69096, Note_on_c, 2, 44, 93
4, 69120, Note_off_c, 2, 44, 0
4, 69120, Note_on_c, 2, 45, 93
4, 69144, Note_off_c, 2, 45, 0
4, 69144, Note_on_c, 2, 44, 93
4, 69168, Note_off_c, 2, 44, 0
4, 69168, Note_on_c, 2, 45, 93
4, 69192, Note_off_c, 2, 45, 0
4, 69192, Note_on_c, 2, 42, 93
4, 69216, Note_off_c, 2, 42, 0
4, 69216, Note_on_c, 2, 47, 93
4, 69240, Note_off_c, 2, 47, 0
4, 69240, Note_on_c, 2, 45, 93
4, 69264, Note_off_c, 2, 45, 0
4, 69264, Note_on_c, 2, 47, 93
4, 69288, Note_off_c, 2, 47, 0
4, 69288, Note_on_c, 2, 42, 93
4, 69312, Note_off_c, 2, 42, 0
4, 69312, Note_on_c, 2, 44, 93
4, 69336, Note_off_c, 2, 44, 0
4, 69336, Note_on_c, 2, 42, 93
4, 69360, Note_off_c, 2, 42, 0
4, 69360, Note_on_c, 2, 44, 93
4, 69384, Note_off_c, 2, 44, 0
4, 69384, Note_on_c, 2, 40, 93
4, 69408, Note_off_c, 2, 40, 0
4, 69408, Note_on_c, 2, 45, 93
4, 69432, Note_off_c, 2, 45, 0
4, 69432, Note_on_c, 2, 44, 93
4, 69456, Note_off_c, 2, 44, 0
4, 69456, Note_on_c, 2, 45, 93
4, 69480, Note_off_c, 2, 45, 0
4, 69480, Note_on_c, 2, 40, 93
4, 69504, Note_off_c, 2, 40, 0
4, 69504, Note_on_c, 2, 42, 93
4, 69528, Note_off_c, 2, 42, 0
4, 69528, Note_on_c, 2, 40, 93
4, 69552, Note_off_c, 2, 40, 0
4, 69552, Note_on_c, 2, 42, 93
4, 69576, Note_off_c, 2, 42, 0
4, 69576, Note_on_c, 2, 39, 93
4, 69600, Note_off_c, 2, 39, 0
4, 69600, Note_on_c, 2, 44, 93
4, 69624, Note_off_c, 2, 44, 0
4, 69624, Note_on_c, 2, 42, 93
4, 69648, Note_off_c, 2, 42, 0
4, 69648, Note_on_c, 2, 44, 93
4, 69672, Note_off_c, 2, 44, 0
4, 69672, Note_on_c, 2, 39, 93
4, 69696, Note_off_c, 2, 39, 0
4, 69696, Note_on_c, 2, 41, 93
4, 69720, Note_off_c, 2, 41, 0
4, 69720, Note_on_c, 2, 39, 93
4, 69744, Note_off_c, 2, 39, 0
4, 69744, Note_on_c, 2, 41, 93
4, 69768, Note_off_c, 2, 41, 0
4, 69768, Note_on_c, 2, 37, 93
4, 69792, Note_off_c, 2, 37, 0
4, 69792, Note_on_c, 2, 42, 93
4, 69888, Note_off_c, 2, 42, 0
4, 69888, Note_on_c, 2, 42, 93
4, 69912, Note_off_c, 2, 42, 0
4, 69912, Note_on_c, 2, 44, 93
4, 69936, Note_off_c, 2, 44, 0
4, 69936, Note_on_c, 2, 42, 93
4, 69960, Note_off_c, 2, 42, 0
4, 69960, Note_on_c, 2, 44, 93
4, 69984, Note_off_c, 2, 44, 0
4, 69984, Note_on_c, 2, 41, 93
4, 70080, Note_off_c, 2, 41, 0
4, 70080, Note_on_c, 2, 42, 93
4, 70176, Note_off_c, 2, 42, 0
4, 70176, Note_on_c, 2, 39, 93
4, 70272, Note_off_c, 2, 39, 0
4, 70272, Note_on_c, 2, 41, 93
4, 70320, Note_off_c, 2, 41, 0
4, 70320, Note_on_c, 2, 42, 93
4, 70368, Note_off_c, 2, 42, 0
4, 70368, Note_on_c, 2, 35, 93
4, 70416, Note_off_c, 2, 35, 0
4, 70416, Note_on_c, 2, 37, 93
4, 70464, Note_off_c, 2, 37, 0
4, 70464, Note_on_c, 2, 30, 93
4, 70560, Note_off_c, 2, 30, 0
4, 70848, Note_on_c, 2, 42, 93
4, 70872, Note_off_c, 2, 42, 0
4, 70872, Note_on_c, 2, 44, 93
4, 70896, Note_off_c, 2, 44, 0
4, 70896, Note_on_c, 2, 45, 93
4, 70920, Note_off_c, 2, 45, 0
4, 70920, Note_on_c, 2, 44, 93
4, 70944, Note_off_c, 2, 44, 0
4, 70944, Note_on_c, 2, 42, 93
4, 70968, Note_off_c, 2, 42, 0
4, 70968, Note_on_c, 2, 44, 93
4, 70992, Note_off_c, 2, 44, 0
4, 70992, Note_on_c, 2, 45, 93
4, 71016, Note_off_c, 2, 45, 0
4, 71016, Note_on_c, 2, 44, 93
4, 71040, Note_off_c, 2, 44, 0
4, 71040, Note_on_c, 2, 42, 93
4, 71064, Note_off_c, 2, 42, 0
4, 71064, Note_on_c, 2, 44, 93
4, 71088, Note_off_c, 2, 44, 0
4, 71088, Note_on_c, 2, 45, 93
4, 71112, Note_off_c, 2, 45, 0
4, 71112, Note_on_c, 2, 44, 93
4, 71136, Note_off_c, 2, 44, 0
4, 71136, Note_on_c, 2, 42, 93
4, 71160, Note_off_c, 2, 42, 0
4, 71160, Note_on_c, 2, 44, 93
4, 71184, Note_off_c, 2, 44, 0
4, 71184, Note_on_c, 2, 45, 93
4, 71208, Note_off_c, 2, 45, 0
4, 71208, Note_on_c, 2, 44, 93
4, 71232, Note_off_c, 2, 44, 0
4, 71232, Note_on_c, 2, 42, 93
4, 71280, Note_off_c, 2, 42, 0
4, 71424, Note_on_c, 2, 44, 93
4, 71472, Note_off_c, 2, 44, 0
4, 71616, Note_on_c, 2, 37, 93
4, 71664, Note_off_c, 2, 37, 0
4, 71808, Note_on_c, 2, 37, 93
4, 71832, Note_off_c, 2, 37, 0
4, 71832, Note_on_c, 2, 39, 93
4, 71856, Note_off_c, 2, 39, 0
4, 71856, Note_on_c, 2, 40, 93
4, 71880, Note_off_c, 2, 40, 0
4, 71880, Note_on_c, 2, 39, 93
4, 71904, Note_off_c, 2, 39, 0
4, 71904, Note_on_c, 2, 37, 93
4, 71928, Note_off_c, 2, 37, 0
4, 71928, Note_on_c, 2, 39, 93
4, 71952, Note_off_c, 2, 39, 0
4, 71952, Note_on_c, 2, 40, 93
4, 71976, Note_off_c, 2, 40, 0
4, 71976, Note_on_c, 2, 39, 93
4, 72000, Note_off_c, 2, 39, 0
4, 72000, Note_on_c, 2, 37, 93
4, 72024, Note_off_c, 2, 37, 0
4, 72024, Note_on_c, 2, 39, 93
4, 72048, Note_off_c, 2, 39, 0
4, 72048, Note_on_c, 2, 40, 93
4, 72072, Note_off_c, 2, 40, 0
4, 72072, Note_on_c, 2, 39, 93
4, 72096, Note_off_c, 2, 39, 0
4, 72096, Note_on_c, 2, 37, 93
4, 72120, Note_off_c, 2, 37, 0
4, 72120, Note_on_c, 2, 39, 93
4, 72144, Note_off_c, 2, 39, 0
4, 72144, Note_on_c, 2, 40, 93
4, 72168, Note_off_c, 2, 40, 0
4, 72168, Note_on_c, 2, 39, 93
4, 72192, Note_off_c, 2, 39, 0
4, 72192, Note_on_c, 2, 37, 93
4, 72240, Note_off_c, 2, 37, 0
4, 72480, Note_on_c, 2, 45, 93
4, 72504, Note_off_c, 2, 45, 0
4, 72504, Note_on_c, 2, 44, 93
4, 72528, Note_off_c, 2, 44, 0
4, 72528, Note_on_c, 2, 45, 93
4, 72552, Note_off_c, 2, 45, 0
4, 72552, Note_on_c, 2, 40, 93
4, 72576, Note_off_c, 2, 40, 0
4, 72576, Note_on_c, 2, 42, 93
4, 72600, Note_off_c, 2, 42, 0
4, 72600, Note_on_c, 2, 40, 93
4, 72624, Note_off_c, 2, 40, 0
4, 72624, Note_on_c, 2, 42, 93
4, 72648, Note_off_c, 2, 42, 0
4, 72648, Note_on_c, 2, 39, 93
4, 72672, Note_off_c, 2, 39, 0
4, 72672, Note_on_c, 2, 44, 93
4, 72696, Note_off_c, 2, 44, 0
4, 72696, Note_on_c, 2, 42, 93
4, 72720, Note_off_c, 2, 42, 0
4, 72720, Note_on_c, 2, 44, 93
4, 72744, Note_off_c, 2, 44, 0
4, 72744, Note_on_c, 2, 39, 93
4, 72768, Note_off_c, 2, 39, 0
4, 72768, Note_on_c, 2, 40, 93
4, 72816, Note_off_c, 2, 40, 0
4, 72816, Note_on_c, 2, 37, 93
4, 72864, Note_off_c, 2, 37, 0
4, 72912, Note_on_c, 2, 49, 93
4, 72960, Note_off_c, 2, 49, 0
4, 72960, Note_on_c, 2, 49, 93
4, 73056, Note_off_c, 2, 49, 0
4, 73104, Note_on_c, 2, 48, 93
4, 73152, Note_off_c, 2, 48, 0
4, 73152, Note_on_c, 2, 49, 93
4, 73248, Note_off_c, 2, 49, 0
4, 73296, Note_on_c, 2, 42, 93
4, 73344, Note_off_c, 2, 42, 0
4, 73344, Note_on_c, 2, 44, 93
4, 73392, Note_off_c, 2, 44, 0
4, 73392, Note_on_c, 2, 37, 93
4, 73440, Note_off_c, 2, 37, 0
4, 73440, Note_on_c, 2, 44, 93
4, 73488, Note_off_c, 2, 44, 0
4, 73488, Note_on_c, 2, 32, 93
4, 73536, Note_off_c, 2, 32, 0
4, 73536, Note_on_c, 2, 37, 93
4, 73632, Note_off_c, 2, 37, 0
4, 76464, Note_on_c, 2, 40, 93
4, 76488, Note_off_c, 2, 40, 0
4, 76488, Note_on_c, 2, 39, 93
4, 76512, Note_off_c, 2, 39, 0
4, 76512, Note_on_c, 2, 40, 93
4, 76536, Note_off_c, 2, 40, 0
4, 76536, Note_on_c, 2, 39, 93
4, 76560, Note_off_c, 2, 39, 0
4, 76560, Note_on_c, 2, 40, 93
4, 76584, Note_off_c, 2, 40, 0
4, 76584, Note_on_c, 2, 39, 93
4, 76608, Note_off_c, 2, 39, 0
4, 76608, Note_on_c, 2, 40, 93
4, 76644, Note_off_c, 2, 40, 0
4, 76656, Note_on_c, 2, 28, 93
4, 76692, Note_off_c, 2, 28, 0
4, 76752, Note_on_c, 2, 40, 93
4, 76788, Note_off_c, 2, 40, 0
4, 76800, Note_on_c, 2, 40, 93
4, 76896, Note_off_c, 2, 40, 0
4, 76944, Note_on_c, 2, 39, 93
4, 76980, Note_off_c, 2, 39, 0
4, 76992, Note_on_c, 2, 40, 93
4, 77088, Note_off_c, 2, 40, 0
4, 78144, Note_on_c, 2, 33, 93
4, 78240, Note_off_c, 2, 33, 0
4, 78288, Note_on_c, 2, 35, 93
4, 78336, Note_off_c, 2, 35, 0
4, 78336, Note_on_c, 2, 37, 93
4, 78384, Note_off_c, 2, 37, 0
4, 78384, Note_on_c, 2, 38, 93
4, 78432, Note_off_c, 2, 38, 0
4, 78432, Note_on_c, 2, 40, 93
4, 78480, Note_off_c, 2, 40, 0
4, 78480, Note_on_c, 2, 28, 93
4, 78528, Note_off_c, 2, 28, 0
4, 78528, Note_on_c, 2, 33, 93
4, 78624, Note_off_c, 2, 33, 0
4, 80640, Note_on_c, 2, 45, 127
4, 80664, Note_off_c, 2, 45, 0
4, 80664, Note_on_c, 2, 47, 127
4, 80688, Note_off_c, 2, 47, 0
4, 80688, Note_on_c, 2, 49, 127
4, 80712, Note_off_c, 2, 49, 0
4, 80712, Note_on_c, 2, 47, 127
4, 80736, Note_off_c, 2, 47, 0
4, 80736, Note_on_c, 2, 45, 127
4, 80760, Note_off_c, 2, 45, 0
4, 80760, Note_on_c, 2, 47, 127
4, 80784, Note_off_c, 2, 47, 0
4, 80784, Note_on_c, 2, 49, 127
4, 80808, Note_off_c, 2, 49, 0
4, 80808, Note_on_c, 2, 47, 127
4, 80832, Note_off_c, 2, 47, 0
4, 80832, Note_on_c, 2, 45, 127
4, 80856, Note_off_c, 2, 45, 0
4, 80856, Note_on_c, 2, 47, 127
4, 80880, Note_off_c, 2, 47, 0
4, 80880, Note_on_c, 2, 49, 127
4, 80904, Note_off_c, 2, 49, 0
4, 80904, Note_on_c, 2, 47, 127
4, 80928, Note_off_c, 2, 47, 0
4, 80928, Note_on_c, 2, 45, 127
4, 80952, Note_off_c, 2, 45, 0
4, 80952, Note_on_c, 2, 47, 127
4, 80976, Note_off_c, 2, 47, 0
4, 80976, Note_on_c, 2, 49, 127
4, 81000, Note_off_c, 2, 49, 0
4, 81000, Note_on_c, 2, 47, 127
4, 81024, Note_off_c, 2, 47, 0
4, 81024, Note_on_c, 2, 45, 127
4, 81120, Note_off_c, 2, 45, 0
4, 81408, Note_on_c, 2, 33, 127
4, 81432, Note_off_c, 2, 33, 0
4, 81432, Note_on_c, 2, 35, 127
4, 81456, Note_off_c, 2, 35, 0
4, 81456, Note_on_c, 2, 37, 127
4, 81480, Note_off_c, 2, 37, 0
4, 81480, Note_on_c, 2, 35, 127
4, 81504, Note_off_c, 2, 35, 0
4, 81504, Note_on_c, 2, 33, 127
4, 81528, Note_off_c, 2, 33, 0
4, 81528, Note_on_c, 2, 35, 127
4, 81552, Note_off_c, 2, 35, 0
4, 81552, Note_on_c, 2, 37, 127
4, 81576, Note_off_c, 2, 37, 0
4, 81576, Note_on_c, 2, 35, 127
4, 81600, Note_off_c, 2, 35, 0
4, 81600, Note_on_c, 2, 33, 127
4, 81624, Note_off_c, 2, 33, 0
4, 81624, Note_on_c, 2, 35, 127
4, 81648, Note_off_c, 2, 35, 0
4, 81648, Note_on_c, 2, 37, 127
4, 81672, Note_off_c, 2, 37, 0
4, 81672, Note_on_c, 2, 35, 127
4, 81696, Note_off_c, 2, 35, 0
4, 81696, Note_on_c, 2, 33, 127
4, 81720, Note_off_c, 2, 33, 0
4, 81720, Note_on_c, 2, 35, 127
4, 81744, Note_off_c, 2, 35, 0
4, 81744, Note_on_c, 2, 37, 127
4, 81768, Note_off_c, 2, 37, 0
4, 81768, Note_on_c, 2, 35, 127
4, 81792, Note_off_c, 2, 35, 0
4, 81792, Note_on_c, 2, 33, 127
4, 81888, Note_off_c, 2, 33, 0
4, 82224, Note_on_c, 2, 45, 127
4, 82272, Note_off_c, 2, 45, 0
4, 82272, Note_on_c, 2, 42, 127
4, 82368, Note_off_c, 2, 42, 0
4, 82416, Note_on_c, 2, 47, 127
4, 82464, Note_off_c, 2, 47, 0
4, 82464, Note_on_c, 2, 43, 127
4, 82560, Note_off_c, 2, 43, 0
4, 82608, Note_on_c, 2, 45, 127
4, 82656, Note_off_c, 2, 45, 0
4, 82656, Note_on_c, 2, 42, 127
4, 82752, Note_off_c, 2, 42, 0
4, 82800, Note_on_c, 2, 47, 127
4, 82848, Note_off_c, 2, 47, 0
4, 82848, Note_on_c, 2, 43, 127
4, 82944, Note_off_c, 2, 43, 0
4, 82992, Note_on_c, 2, 45, 127
4, 83040, Note_off_c, 2, 45, 0
4, 83040, Note_on_c, 2, 42, 127
4, 83136, Note_off_c, 2, 42, 0
4, 83184, Note_on_c, 2, 47, 127
4, 83232, Note_off_c, 2, 47, 0
4, 83232, Note_on_c, 2, 43, 127
4, 83328, Note_off_c, 2, 43, 0
4, 83376, Note_on_c, 2, 45, 127
4, 83424, Note_off_c, 2, 45, 0
4, 83424, Note_on_c, 2, 42, 127
4, 83520, Note_off_c, 2, 42, 0
4, 83568, Note_on_c, 2, 47, 127
4, 83616, Note_off_c, 2, 47, 0
4, 83616, Note_on_c, 2, 43, 127
4, 83712, Note_off_c, 2, 43, 0
4, 83760, Note_on_c, 2, 45, 127
4, 83808, Note_off_c, 2, 45, 0
4, 83808, Note_on_c, 2, 38, 127
4, 83904, Note_off_c, 2, 38, 0
4, 83928, Note_on_c, 2, 44, 127
4, 83952, Note_off_c, 2, 44, 0
4, 83952, Note_on_c, 2, 45, 127
4, 83976, Note_off_c, 2, 45, 0
4, 83976, Note_on_c, 2, 44, 127
4, 84000, Note_off_c, 2, 44, 0
4, 84000, Note_on_c, 2, 45, 127
4, 84096, Note_off_c, 2, 45, 0
4, 84120, Note_on_c, 2, 44, 127
4, 84144, Note_off_c, 2, 44, 0
4, 84144, Note_on_c, 2, 45, 127
4, 84168, Note_off_c, 2, 45, 0
4, 84168, Note_on_c, 2, 44, 127
4, 84192, Note_off_c, 2, 44, 0
4, 84192, Note_on_c, 2, 45, 127
4, 84288, Note_off_c, 2, 45, 0
4, 84312, Note_on_c, 2, 44, 127
4, 84336, Note_off_c, 2, 44, 0
4, 84336, Note_on_c, 2, 45, 127
4, 84360, Note_off_c, 2, 45, 0
4, 84360, Note_on_c, 2, 44, 127
4, 84384, Note_off_c, 2, 44, 0
4, 84384, Note_on_c, 2, 45, 127
4, 84480, Note_off_c, 2, 45, 0
4, 84504, Note_on_c, 2, 44, 127
4, 84528, Note_off_c, 2, 44, 0
4, 84528, Note_on_c, 2, 45, 127
4, 84552, Note_off_c, 2, 45, 0
4, 84552, Note_on_c, 2, 44, 127
4, 84576, Note_off_c, 2, 44, 0
4, 84576, Note_on_c, 2, 45, 127
4, 84672, Note_off_c, 2, 45, 0
4, 84696, Note_on_c, 2, 44, 127
4, 84720, Note_off_c, 2, 44, 0
4, 84720, Note_on_c, 2, 45, 127
4, 84744, Note_off_c, 2, 45, 0
4, 84744, Note_on_c, 2, 44, 127
4, 84768, Note_off_c, 2, 44, 0
4, 84768, Note_on_c, 2, 45, 127
4, 84864, Note_off_c, 2, 45, 0
4, 84888, Note_on_c, 2, 44, 127
4, 84912, Note_off_c, 2, 44, 0
4, 84912, Note_on_c, 2, 45, 127
4, 84936, Note_off_c, 2, 45, 0
4, 84936, Note_on_c, 2, 44, 127
4, 84960, Note_off_c, 2, 44, 0
4, 84960, Note_on_c, 2, 45, 127
4, 85056, Note_off_c, 2, 45, 0
4, 85104, Note_on_c, 2, 45, 127
4, 85152, Note_off_c, 2, 45, 0
4, 85152, Note_on_c, 2, 33, 127
4, 85248, Note_off_c, 2, 33, 0
4, 85296, Note_on_c, 2, 43, 127
4, 85344, Note_off_c, 2, 43, 0
4, 85344, Note_on_c, 2, 31, 127
4, 85440, Note_off_c, 2, 31, 0
4, 85488, Note_on_c, 2, 42, 127
4, 85536, Note_off_c, 2, 42, 0
4, 85536, Note_on_c, 2, 30, 127
4, 85632, Note_off_c, 2, 30, 0
4, 85680, Note_on_c, 2, 40, 127
4, 85728, Note_off_c, 2, 40, 0
4, 85728, Note_on_c, 2, 28, 127
4, 85824, Note_off_c, 2, 28, 0
4, 85872, Note_on_c, 2, 38, 127
4, 85920, Note_off_c, 2, 38, 0
4, 85920, Note_on_c, 2, 26, 127
4, 86016, Note_off_c, 2, 26, 0
4, 86784, Note_on_c, 2, 38, 127
4, 86808, Note_off_c, 2, 38, 0
4, 86808, Note_on_c, 2, 40, 127
4, 86832, Note_off_c, 2, 40, 0
4, 86832, Note_on_c, 2, 42, 127
4, 86856, Note_off_c, 2, 42, 0
4, 86856, Note_on_c, 2, 40, 127
4, 86880, Note_off_c, 2, 40, 0
4, 86880, Note_on_c, 2, 38, 127
4, 86904, Note_off_c, 2, 38, 0
4, 86904, Note_on_c, 2, 40, 127
4, 86928, Note_off_c, 2, 40, 0
4, 86928, Note_on_c, 2, 42, 127
4, 86952, Note_off_c, 2, 42, 0
4, 86952, Note_on_c, 2, 40, 127
4, 86976, Note_off_c, 2, 40, 0
4, 86976, Note_on_c, 2, 38, 127
4, 87000, Note_off_c, 2, 38, 0
4, 87000, Note_on_c, 2, 40, 127
4, 87024, Note_off_c, 2, 40, 0
4, 87024, Note_on_c, 2, 42, 127
4, 87048, Note_off_c, 2, 42, 0
4, 87048, Note_on_c, 2, 40, 127
4, 87072, Note_off_c, 2, 40, 0
4, 87072, Note_on_c, 2, 38, 127
4, 87096, Note_off_c, 2, 38, 0
4, 87096, Note_on_c, 2, 40, 127
4, 87120, Note_off_c, 2, 40, 0
4, 87120, Note_on_c, 2, 42, 127
4, 87144, Note_off_c, 2, 42, 0
4, 87144, Note_on_c, 2, 40, 127
4, 87168, Note_off_c, 2, 40, 0
4, 87168, Note_on_c, 2, 38, 127
4, 87216, Note_off_c, 2, 38, 0
4, 87456, Note_on_c, 2, 47, 127
4, 87480, Note_off_c, 2, 47, 0
4, 87480, Note_on_c, 2, 45, 127
4, 87504, Note_off_c, 2, 45, 0
4, 87504, Note_on_c, 2, 47, 127
4, 87528, Note_off_c, 2, 47, 0
4, 87528, Note_on_c, 2, 42, 127
4, 87552, Note_off_c, 2, 42, 0
4, 87552, Note_on_c, 2, 43, 127
4, 87576, Note_off_c, 2, 43, 0
4, 87576, Note_on_c, 2, 42, 127
4, 87600, Note_off_c, 2, 42, 0
4, 87600, Note_on_c, 2, 43, 127
4, 87624, Note_off_c, 2, 43, 0
4, 87624, Note_on_c, 2, 40, 127
4, 87648, Note_off_c, 2, 40, 0
4, 87648, Note_on_c, 2, 45, 127
4, 87672, Note_off_c, 2, 45, 0
4, 87672, Note_on_c, 2, 43, 127
4, 87696, Note_off_c, 2, 43, 0
4, 87696, Note_on_c, 2, 45, 127
4, 87720, Note_off_c, 2, 45, 0
4, 87720, Note_on_c, 2, 40, 127
4, 87744, Note_off_c, 2, 40, 0
4, 87744, Note_on_c, 2, 42, 127
4, 87768, Note_off_c, 2, 42, 0
4, 87768, Note_on_c, 2, 40, 127
4, 87792, Note_off_c, 2, 40, 0
4, 87792, Note_on_c, 2, 42, 127
4, 87816, Note_off_c, 2, 42, 0
4, 87816, Note_on_c, 2, 38, 127
4, 87840, Note_off_c, 2, 38, 0
4, 87840, Note_on_c, 2, 43, 127
4, 87864, Note_off_c, 2, 43, 0
4, 87864, Note_on_c, 2, 42, 127
4, 87888, Note_off_c, 2, 42, 0
4, 87888, Note_on_c, 2, 43, 127
4, 87912, Note_off_c, 2, 43, 0
4, 87912, Note_on_c, 2, 38, 127
4, 87936, Note_off_c, 2, 38, 0
4, 87936, Note_on_c, 2, 40, 127
4, 87960, Note_off_c, 2, 40, 0
4, 87960, Note_on_c, 2, 38, 127
4, 87984, Note_off_c, 2, 38, 0
4, 87984, Note_on_c, 2, 40, 127
4, 88008, Note_off_c, 2, 40, 0
4, 88008, Note_on_c, 2, 37, 127
4, 88032, Note_off_c, 2, 37, 0
4, 88032, Note_on_c, 2, 42, 127
4, 88056, Note_off_c, 2, 42, 0
4, 88056, Note_on_c, 2, 40, 127
4, 88080, Note_off_c, 2, 40, 0
4, 88080, Note_on_c, 2, 42, 127
4, 88104, Note_off_c, 2, 42, 0
4, 88104, Note_on_c, 2, 37, 127
4, 88128, Note_off_c, 2, 37, 0
4, 88128, Note_on_c, 2, 38, 127
4, 88152, Note_off_c, 2, 38, 0
4, 88152, Note_on_c, 2, 37, 127
4, 88176, Note_off_c, 2, 37, 0
4, 88176, Note_on_c, 2, 38, 127
4, 88200, Note_off_c, 2, 38, 0
4, 88200, Note_on_c, 2, 35, 127
4, 88224, Note_off_c, 2, 35, 0
4, 88224, Note_on_c, 2, 40, 127
4, 88248, Note_off_c, 2, 40, 0
4, 88248, Note_on_c, 2, 38, 127
4, 88272, Note_off_c, 2, 38, 0
4, 88272, Note_on_c, 2, 40, 127
4, 88296, Note_off_c, 2, 40, 0
4, 88296, Note_on_c, 2, 35, 127
4, 88320, Note_off_c, 2, 35, 0
4, 88320, Note_on_c, 2, 37, 127
4, 88344, Note_off_c, 2, 37, 0
4, 88344, Note_on_c, 2, 35, 127
4, 88368, Note_off_c, 2, 35, 0
4, 88368, Note_on_c, 2, 37, 127
4, 88392, Note_off_c, 2, 37, 0
4, 88392, Note_on_c, 2, 33, 127
4, 88416, Note_off_c, 2, 33, 0
4, 88416, Note_on_c, 2, 38, 127
4, 88536, Note_off_c, 2, 38, 0
4, 88536, Note_on_c, 2, 40, 127
4, 88560, Note_off_c, 2, 40, 0
4, 88560, Note_on_c, 2, 38, 127
4, 88584, Note_off_c, 2, 38, 0
4, 88584, Note_on_c, 2, 40, 127
4, 88608, Note_off_c, 2, 40, 0
4, 88608, Note_on_c, 2, 37, 127
4, 88704, Note_off_c, 2, 37, 0
4, 88704, Note_on_c, 2, 38, 127
4, 88800, Note_off_c, 2, 38, 0
4, 88848, Note_on_c, 2, 38, 127
4, 88884, Note_off_c, 2, 38, 0
4, 88896, Note_on_c, 2, 38, 127
4, 88992, Note_off_c, 2, 38, 0
4, 89040, Note_on_c, 2, 37, 127
4, 89076, Note_off_c, 2, 37, 0
4, 89088, Note_on_c, 2, 37, 127
4, 89184, Note_off_c, 2, 37, 0
4, 89232, Note_on_c, 2, 35, 127
4, 89268, Note_off_c, 2, 35, 0
4, 89280, Note_on_c, 2, 35, 127
4, 89376, Note_off_c, 2, 35, 0
4, 89424, Note_on_c, 2, 33, 127
4, 89460, Note_off_c, 2, 33, 0
4, 89472, Note_on_c, 2, 33, 127
4, 89568, Note_off_c, 2, 33, 0
4, 89616, Note_on_c, 2, 31, 127
4, 89652, Note_off_c, 2, 31, 0
4, 89664, Note_on_c, 2, 31, 127
4, 89760, Note_off_c, 2, 31, 0
4, 89760, Note_on_c, 2, 30, 127
4, 89856, Note_off_c, 2, 30, 0
4, 90072, Note_on_c, 2, 26, 127
4, 90096, Note_off_c, 2, 26, 0
4, 90096, Note_on_c, 2, 30, 127
4, 90120, Note_off_c, 2, 30, 0
4, 90120, Note_on_c, 2, 26, 127
4, 90144, Note_off_c, 2, 26, 0
4, 90144, Note_on_c, 2, 33, 127
4, 90168, Note_off_c, 2, 33, 0
4, 90168, Note_on_c, 2, 30, 127
4, 90192, Note_off_c, 2, 30, 0
4, 90192, Note_on_c, 2, 38, 127
4, 90216, Note_off_c, 2, 38, 0
4, 90216, Note_on_c, 2, 33, 127
4, 90240, Note_off_c, 2, 33, 0
4, 90240, Note_on_c, 2, 42, 127
4, 90336, Note_off_c, 2, 42, 0
4, 90648, Note_on_c, 2, 33, 127
4, 90672, Note_off_c, 2, 33, 0
4, 90672, Note_on_c, 2, 38, 127
4, 90696, Note_off_c, 2, 38, 0
4, 90696, Note_on_c, 2, 33, 127
4, 90720, Note_off_c, 2, 33, 0
4, 90720, Note_on_c, 2, 42, 127
4, 90744, Note_off_c, 2, 42, 0
4, 90744, Note_on_c, 2, 38, 127
4, 90768, Note_off_c, 2, 38, 0
4, 90768, Note_on_c, 2, 45, 127
4, 90792, Note_off_c, 2, 45, 0
4, 90792, Note_on_c, 2, 42, 127
4, 90816, Note_off_c, 2, 42, 0
4, 90816, Note_on_c, 2, 50, 127
4, 90840, Note_off_c, 2, 50, 0
4, 91032, Note_on_c, 2, 50, 127
4, 91056, Note_off_c, 2, 50, 0
4, 91056, Note_on_c, 2, 45, 127
4, 91080, Note_off_c, 2, 45, 0
4, 91080, Note_on_c, 2, 50, 127
4, 91104, Note_off_c, 2, 50, 0
4, 91104, Note_on_c, 2, 42, 127
4, 91128, Note_off_c, 2, 42, 0
4, 91128, Note_on_c, 2, 45, 127
4, 91152, Note_off_c, 2, 45, 0
4, 91152, Note_on_c, 2, 38, 127
4, 91176, Note_off_c, 2, 38, 0
4, 91176, Note_on_c, 2, 42, 127
4, 91200, Note_off_c, 2, 42, 0
4, 91200, Note_on_c, 2, 33, 127
4, 91224, Note_off_c, 2, 33, 0
4, 91416, Note_on_c, 2, 45, 127
4, 91440, Note_off_c, 2, 45, 0
4, 91440, Note_on_c, 2, 42, 127
4, 91464, Note_off_c, 2, 42, 0
4, 91464, Note_on_c, 2, 45, 127
4, 91488, Note_off_c, 2, 45, 0
4, 91488, Note_on_c, 2, 38, 127
4, 91512, Note_off_c, 2, 38, 0
4, 91512, Note_on_c, 2, 42, 127
4, 91536, Note_off_c, 2, 42, 0
4, 91536, Note_on_c, 2, 33, 127
4, 91560, Note_off_c, 2, 33, 0
4, 91560, Note_on_c, 2, 38, 127
4, 91584, Note_off_c, 2, 38, 0
4, 91584, Note_on_c, 2, 30, 127
4, 91608, Note_off_c, 2, 30, 0
4, 91608, Note_on_c, 2, 42, 127
4, 91632, Note_off_c, 2, 42, 0
4, 91632, Note_on_c, 2, 38, 127
4, 91656, Note_off_c, 2, 38, 0
4, 91656, Note_on_c, 2, 42, 127
4, 91680, Note_off_c, 2, 42, 0
4, 91680, Note_on_c, 2, 33, 127
4, 91704, Note_off_c, 2, 33, 0
4, 91704, Note_on_c, 2, 38, 127
4, 91728, Note_off_c, 2, 38, 0
4, 91728, Note_on_c, 2, 30, 127
4, 91752, Note_off_c, 2, 30, 0
4, 91752, Note_on_c, 2, 33, 127
4, 91776, Note_off_c, 2, 33, 0
4, 91776, Note_on_c, 2, 26, 127
4, 91800, Note_off_c, 2, 26, 0
4, 91800, Note_on_c, 2, 28, 127
4, 91824, Note_off_c, 2, 28, 0
4, 91824, Note_on_c, 2, 30, 127
4, 91848, Note_off_c, 2, 30, 0
4, 91848, Note_on_c, 2, 28, 127
4, 91872, Note_off_c, 2, 28, 0
4, 91872, Note_on_c, 2, 26, 127
4, 91896, Note_off_c, 2, 26, 0
4, 91896, Note_on_c, 2, 30, 127
4, 91920, Note_off_c, 2, 30, 0
4, 91920, Note_on_c, 2, 28, 127
4, 91944, Note_off_c, 2, 28, 0
4, 91944, Note_on_c, 2, 31, 127
4, 91968, Note_off_c, 2, 31, 0
4, 91968, Note_on_c, 2, 30, 127
4, 91992, Note_off_c, 2, 30, 0
4, 91992, Note_on_c, 2, 31, 127
4, 92016, Note_off_c, 2, 31, 0
4, 92016, Note_on_c, 2, 33, 127
4, 92040, Note_off_c, 2, 33, 0
4, 92040, Note_on_c, 2, 31, 127
4, 92064, Note_off_c, 2, 31, 0
4, 92064, Note_on_c, 2, 30, 127
4, 92088, Note_off_c, 2, 30, 0
4, 92088, Note_on_c, 2, 33, 127
4, 92112, Note_off_c, 2, 33, 0
4, 92112, Note_on_c, 2, 31, 127
4, 92136, Note_off_c, 2, 31, 0
4, 92136, Note_on_c, 2, 35, 127
4, 92160, Note_off_c, 2, 35, 0
4, 92160, Note_on_c, 2, 33, 127
4, 92184, Note_off_c, 2, 33, 0
4, 92184, Note_on_c, 2, 35, 127
4, 92208, Note_off_c, 2, 35, 0
4, 92208, Note_on_c, 2, 37, 127
4, 92232, Note_off_c, 2, 37, 0
4, 92232, Note_on_c, 2, 35, 127
4, 92256, Note_off_c, 2, 35, 0
4, 92256, Note_on_c, 2, 33, 127
4, 92280, Note_off_c, 2, 33, 0
4, 92280, Note_on_c, 2, 37, 127
4, 92304, Note_off_c, 2, 37, 0
4, 92304, Note_on_c, 2, 35, 127
4, 92328, Note_off_c, 2, 35, 0
4, 92328, Note_on_c, 2, 38, 127
4, 92352, Note_off_c, 2, 38, 0
4, 92352, Note_on_c, 2, 37, 127
4, 92376, Note_off_c, 2, 37, 0
4, 92376, Note_on_c, 2, 38, 127
4, 92400, Note_off_c, 2, 38, 0
4, 92400, Note_on_c, 2, 40, 127
4, 92424, Note_off_c, 2, 40, 0
4, 92424, Note_on_c, 2, 38, 127
4, 92448, Note_off_c, 2, 38, 0
4, 92448, Note_on_c, 2, 37, 127
4, 92472, Note_off_c, 2, 37, 0
4, 92472, Note_on_c, 2, 40, 127
4, 92496, Note_off_c, 2, 40, 0
4, 92496, Note_on_c, 2, 38, 127
4, 92520, Note_off_c, 2, 38, 0
4, 92520, Note_on_c, 2, 42, 127
4, 92544, Note_off_c, 2, 42, 0
4, 92544, Note_on_c, 2, 40, 127
4, 92568, Note_off_c, 2, 40, 0
4, 92568, Note_on_c, 2, 42, 127
4, 92592, Note_off_c, 2, 42, 0
4, 92592, Note_on_c, 2, 43, 127
4, 92616, Note_off_c, 2, 43, 0
4, 92616, Note_on_c, 2, 42, 127
4, 92640, Note_off_c, 2, 42, 0
4, 92640, Note_on_c, 2, 40, 127
4, 92664, Note_off_c, 2, 40, 0
4, 92664, Note_on_c, 2, 43, 127
4, 92688, Note_off_c, 2, 43, 0
4, 92688, Note_on_c, 2, 42, 127
4, 92712, Note_off_c, 2, 42, 0
4, 92712, Note_on_c, 2, 45, 127
4, 92736, Note_off_c, 2, 45, 0
4, 92736, Note_on_c, 2, 43, 127
4, 92760, Note_off_c, 2, 43, 0
4, 92760, Note_on_c, 2, 45, 127
4, 92784, Note_off_c, 2, 45, 0
4, 92784, Note_on_c, 2, 47, 127
4, 92808, Note_off_c, 2, 47, 0
4, 92808, Note_on_c, 2, 45, 127
4, 92832, Note_off_c, 2, 45, 0
4, 92832, Note_on_c, 2, 43, 127
4, 92856, Note_off_c, 2, 43, 0
4, 92856, Note_on_c, 2, 47, 127
4, 92880, Note_off_c, 2, 47, 0
4, 92880, Note_on_c, 2, 45, 127
4, 92904, Note_off_c, 2, 45, 0
4, 92904, Note_on_c, 2, 43, 127
4, 92928, Note_off_c, 2, 43, 0
4, 92928, Note_on_c, 2, 50, 127
4, 92952, Note_off_c, 2, 50, 0
4, 92952, Note_on_c, 2, 49, 127
4, 92976, Note_off_c, 2, 49, 0
4, 92976, Note_on_c, 2, 50, 127
4, 93000, Note_off_c, 2, 50, 0
4, 93000, Note_on_c, 2, 49, 127
4, 93024, Note_off_c, 2, 49, 0
4, 93024, Note_on_c, 2, 50, 127
4, 93048, Note_off_c, 2, 50, 0
4, 93048, Note_on_c, 2, 49, 127
4, 93072, Note_off_c, 2, 49, 0
4, 93072, Note_on_c, 2, 50, 127
4, 93096, Note_off_c, 2, 50, 0
4, 93096, Note_on_c, 2, 49, 127
4, 93120, Note_off_c, 2, 49, 0
4, 93120, Note_on_c, 2, 50, 127
4, 93168, Note_off_c, 2, 50, 0
4, 93312, Note_on_c, 2, 38, 127
4, 93336, Note_off_c, 2, 38, 0
4, 93336, Note_on_c, 2, 40, 127
4, 93360, Note_off_c, 2, 40, 0
4, 93360, Note_on_c, 2, 42, 127
4, 93384, Note_off_c, 2, 42, 0
4, 93384, Note_on_c, 2, 40, 127
4, 93408, Note_off_c, 2, 40, 0
4, 93408, Note_on_c, 2, 38, 127
4, 93432, Note_off_c, 2, 38, 0
4, 93432, Note_on_c, 2, 40, 127
4, 93456, Note_off_c, 2, 40, 0
4, 93456, Note_on_c, 2, 42, 127
4, 93480, Note_off_c, 2, 42, 0
4, 93480, Note_on_c, 2, 40, 127
4, 93504, Note_off_c, 2, 40, 0
4, 93504, Note_on_c, 2, 38, 127
4, 93552, Note_off_c, 2, 38, 0
4, 93744, Note_on_c, 2, 50, 127
4, 93792, Note_off_c, 2, 50, 0
4, 93792, Note_on_c, 2, 38, 127
4, 93888, Note_off_c, 2, 38, 0
4, 93936, Note_on_c, 2, 38, 127
4, 93984, Note_off_c, 2, 38, 0
4, 93984, Note_on_c, 2, 26, 127
4, 94080, Note_off_c, 2, 26, 0
4, 94080, End_track
0, 0, End_of_file
