0, 0, Header, 1, 4, 96
1, 0, Start_track
1, 0, Time_signature, 4, 2, 24, 8
1, 0, Title_t, "untitled"
1, 0, Title_t, "Track1"
1, 0, Tempo, 923076
1, 384, Tempo, 869565
1, 690, Tempo, 983606
1, 768, Tempo, 1090909
1, 858, Tempo, 1000000
1, 960, Tempo, 895522
1, 1152, Tempo, 869565
1, 1686, Tempo, 1111111
1, 1734, Tempo, 1000000
1, 1734, Tempo, 1111111
1, 1788, Tempo, 967741
1, 1818, Tempo, 895522
1, 1818, Tempo, 1132075
1, 1818, Tempo, 895522
1, 1854, Tempo, 1052631
1, 1860, Tempo, 895522
1, 1884, Tempo, 923076
1, 1920, Tempo, 895522
1, 2304, Tempo, 869565
1, 3072, Tempo, 1071428
1, 3180, Tempo, 895522
1, 3456, Tempo, 869565
1, 4224, Tempo, 923076
1, 4608, Tempo, 869565
1, 5376, Tempo, 923076
1, 5760, Tempo, 869565
1, 6438, Tempo, 1000000
1, 6528, Tempo, 869565
1, 7296, Tempo, 923076
1, 7680, Tempo, 869565
1, 8448, Tempo, 923076
1, 8640, Tempo, 1000000
1, 8736, Tempo, 1090909
1, 8736, Tempo, 1000000
1, 8832, Tempo, 923076
1, 9216, Tempo, 869565
1, 9408, Tempo, 1016949
1, 9600, Tempo, 869565
1, 10254, Tempo, 1016949
1, 10368, Tempo, 1052631
1, 10464, Tempo, 869565
1, 10944, Tempo, 967741
1, 11136, Tempo, 869565
1, 11328, Tempo, 983606
1, 11520, Tempo, 1000000
1, 11712, Tempo, 1132075
1, 11904, Tempo, 1578947
1, 12288, Tempo, 1000000
1, 25728, Tempo, 1200000
1, 25824, Tempo, 1333333
1, 25920, Tempo, 1500000
1, 26016, Tempo, 1875000
1, 26112, Tempo, 1333333
1, 26112, End_track
2, 0, Start_track
2, 0, Title_t, "Track2"
2, 0, Program_c, 0, 19
2, 0, Control_c, 0, 7, 100
2, 0, Control_c, 0, 10, 64
2, 24, Note_on_c, 0, 59, 84
2, 48, Note_off_c, 0, 59, 0
2, 48, Note_on_c, 0, 64, 84
2, 72, Note_off_c, 0, 64, 0
2, 72, Note_on_c, 0, 67, 84
2, 96, Note_off_c, 0, 67, 0
2, 96, Note_on_c, 0, 66, 84
2, 120, Note_off_c, 0, 66, 0
2, 600, Note_on_c, 0, 64, 84
2, 624, Note_off_c, 0, 64, 0
2, 624, Note_on_c, 0, 60, 84
2, 648, Note_off_c, 0, 60, 0
2, 648, Note_on_c, 0, 57, 84
2, 672, Note_off_c, 0, 57, 0
2, 672, Note_on_c, 0, 72, 84
2, 696, Note_off_c, 0, 72, 0
2, 696, Note_on_c, 0, 64, 84
2, 720, Note_off_c, 0, 64, 0
2, 720, Note_on_c, 0, 60, 84
2, 744, Note_off_c, 0, 60, 0
2, 744, Note_on_c, 0, 57, 84
2, 768, Note_off_c, 0, 57, 0
2, 768, Note_on_c, 0, 69, 84
2, 792, Note_off_c, 0, 69, 0
2, 792, Note_on_c, 0, 74, 84
2, 816, Note_off_c, 0, 74, 0
2, 816, Note_on_c, 0, 72, 84
2, 840, Note_off_c, 0, 72, 0
2, 840, Note_on_c, 0, 71, 84
2, 864, Note_off_c, 0, 71, 0
2, 864, Note_on_c, 0, 69, 84
2, 888, Note_off_c, 0, 69, 0
2, 888, Note_on_c, 0, 71, 84
2, 912, Note_off_c, 0, 71, 0
2, 912, Note_on_c, 0, 72, 84
2, 936, Note_off_c, 0, 72, 0
2, 936, Note_on_c, 0, 68, 84
2, 960, Note_off_c, 0, 68, 0
2, 960, Note_on_c, 0, 69, 84
2, 984, Note_off_c, 0, 69, 0
2, 984, Note_on_c, 0, 71, 84
2, 1008, Note_off_c, 0, 71, 0
2, 1008, Note_on_c, 0, 72, 84
2, 1032, Note_off_c, 0, 72, 0
2, 1032, Note_on_c, 0, 71, 84
2, 1056, Note_off_c, 0, 71, 0
2, 1056, Note_on_c, 0, 69, 84
2, 1080, Note_off_c, 0, 69, 0
2, 1080, Note_on_c, 0, 67, 84
2, 1104, Note_off_c, 0, 67, 0
2, 1104, Note_on_c, 0, 66, 84
2, 1128, Note_off_c, 0, 66, 0
2, 1128, Note_on_c, 0, 64, 84
2, 1152, Note_off_c, 0, 64, 0
2, 1152, Note_on_c, 0, 63, 84
2, 1176, Note_off_c, 0, 63, 0
2, 1176, Note_on_c, 0, 64, 84
2, 1200, Note_off_c, 0, 64, 0
2, 1200, Note_on_c, 0, 66, 84
2, 1224, Note_off_c, 0, 66, 0
2, 1224, Note_on_c, 0, 64, 84
2, 1248, Note_off_c, 0, 64, 0
2, 1248, Note_on_c, 0, 63, 84
2, 1272, Note_off_c, 0, 63, 0
2, 1272, Note_on_c, 0, 61, 84
2, 1296, Note_off_c, 0, 61, 0
2, 2016, Note_on_c, 0, 75, 84
2, 2028, Note_off_c, 0, 75, 0
2, 2028, Note_on_c, 0, 76, 84
2, 2040, Note_off_c, 0, 76, 0
2, 2040, Note_on_c, 0, 75, 84
2, 2052, Note_off_c, 0, 75, 0
2, 2052, Note_on_c, 0, 76, 84
2, 2064, Note_off_c, 0, 76, 0
2, 2064, Note_on_c, 0, 75, 84
2, 2076, Note_off_c, 0, 75, 0
2, 2076, Note_on_c, 0, 76, 84
2, 2088, Note_off_c, 0, 76, 0
2, 2088, Note_on_c, 0, 73, 84
2, 2100, Note_off_c, 0, 73, 0
2, 2100, Note_on_c, 0, 75, 84
2, 2112, Note_off_c, 0, 75, 0
2, 2112, Note_on_c, 0, 76, 84
2, 2136, Note_off_c, 0, 76, 0
2, 2136, Note_on_c, 0, 78, 84
2, 2160, Note_off_c, 0, 78, 0
2, 2160, Note_on_c, 0, 79, 84
2, 2184, Note_off_c, 0, 79, 0
2, 2184, Note_on_c, 0, 75, 84
2, 2208, Note_off_c, 0, 75, 0
2, 2208, Note_on_c, 0, 76, 84
2, 2232, Note_off_c, 0, 76, 0
2, 2232, Note_on_c, 0, 69, 84
2, 2256, Note_off_c, 0, 69, 0
2, 2256, Note_on_c, 0, 71, 84
2, 2280, Note_off_c, 0, 71, 0
2, 2280, Note_on_c, 0, 72, 84
2, 2304, Note_off_c, 0, 72, 0
2, 2304, Note_on_c, 0, 71, 84
2, 2400, Note_off_c, 0, 71, 0
2, 2400, Note_on_c, 0, 76, 84
2, 2424, Note_off_c, 0, 76, 0
2, 2424, Note_on_c, 0, 71, 84
2, 2448, Note_off_c, 0, 71, 0
2, 2448, Note_on_c, 0, 72, 84
2, 2472, Note_off_c, 0, 72, 0
2, 2472, Note_on_c, 0, 74, 84
2, 2496, Note_off_c, 0, 74, 0
2, 2496, Note_on_c, 0, 72, 84
2, 2592, Note_off_c, 0, 72, 0
2, 2592, Note_on_c, 0, 76, 84
2, 2616, Note_off_c, 0, 76, 0
2, 2616, Note_on_c, 0, 69, 84
2, 2640, Note_off_c, 0, 69, 0
2, 2640, Note_on_c, 0, 71, 84
2, 2664, Note_off_c, 0, 71, 0
2, 2664, Note_on_c, 0, 69, 84
2, 2688, Note_off_c, 0, 69, 0
2, 2688, Note_on_c, 0, 71, 84
2, 2784, Note_off_c, 0, 71, 0
2, 2784, Note_on_c, 0, 73, 84
2, 2796, Note_off_c, 0, 73, 0
2, 2796, Note_on_c, 0, 76, 84
2, 2808, Note_off_c, 0, 76, 0
2, 2808, Note_on_c, 0, 73, 84
2, 2820, Note_off_c, 0, 73, 0
2, 2820, Note_on_c, 0, 76, 84
2, 2832, Note_off_c, 0, 76, 0
2, 2832, Note_on_c, 0, 73, 84
2, 2844, Note_off_c, 0, 73, 0
2, 2844, Note_on_c, 0, 76, 84
2, 2856, Note_off_c, 0, 76, 0
2, 2856, Note_on_c, 0, 73, 84
2, 2868, Note_off_c, 0, 73, 0
2, 2868, Note_on_c, 0, 76, 84
2, 2880, Note_off_c, 0, 76, 0
2, 2880, Note_on_c, 0, 75, 84
2, 2904, Note_off_c, 0, 75, 0
2, 2904, Note_on_c, 0, 59, 84
2, 2928, Note_off_c, 0, 59, 0
2, 2928, Note_on_c, 0, 63, 84
2, 2952, Note_off_c, 0, 63, 0
2, 2952, Note_on_c, 0, 66, 84
2, 2976, Note_off_c, 0, 66, 0
2, 2976, Note_on_c, 0, 75, 84
2, 3000, Note_off_c, 0, 75, 0
2, 3000, Note_on_c, 0, 78, 84
2, 3024, Note_off_c, 0, 78, 0
2, 3024, Note_on_c, 0, 83, 84
2, 3072, Note_off_c, 0, 83, 0
2, 3564, Note_on_c, 0, 76, 84
2, 3576, Note_off_c, 0, 76, 0
2, 3576, Note_on_c, 0, 74, 84
2, 3588, Note_off_c, 0, 74, 0
2, 3588, Note_on_c, 0, 72, 84
2, 3600, Note_off_c, 0, 72, 0
2, 3600, Note_on_c, 0, 71, 84
2, 3612, Note_off_c, 0, 71, 0
2, 3612, Note_on_c, 0, 69, 84
2, 3624, Note_off_c, 0, 69, 0
2, 3624, Note_on_c, 0, 68, 84
2, 3636, Note_off_c, 0, 68, 0
2, 3636, Note_on_c, 0, 66, 84
2, 3648, Note_off_c, 0, 66, 0
2, 3648, Note_on_c, 0, 64, 84
2, 3744, Note_off_c, 0, 64, 0
2, 3744, Note_on_c, 0, 74, 84
2, 3756, Note_off_c, 0, 74, 0
2, 3756, Note_on_c, 0, 76, 84
2, 3768, Note_off_c, 0, 76, 0
2, 3768, Note_on_c, 0, 74, 84
2, 3780, Note_off_c, 0, 74, 0
2, 3780, Note_on_c, 0, 76, 84
2, 3792, Note_off_c, 0, 76, 0
2, 3792, Note_on_c, 0, 74, 84
2, 3804, Note_off_c, 0, 74, 0
2, 3804, Note_on_c, 0, 76, 84
2, 3816, Note_off_c, 0, 76, 0
2, 3816, Note_on_c, 0, 64, 84
2, 3840, Note_off_c, 0, 64, 0
2, 3864, Note_on_c, 0, 68, 84
2, 3888, Note_off_c, 0, 68, 0
2, 3888, Note_on_c, 0, 69, 84
2, 3912, Note_off_c, 0, 69, 0
2, 3912, Note_on_c, 0, 71, 84
2, 3936, Note_off_c, 0, 71, 0
2, 3936, Note_on_c, 0, 69, 84
2, 3948, Note_off_c, 0, 69, 0
2, 3948, Note_on_c, 0, 71, 84
2, 3960, Note_off_c, 0, 71, 0
2, 3960, Note_on_c, 0, 69, 84
2, 4008, Note_off_c, 0, 69, 0
2, 4008, Note_on_c, 0, 68, 84
2, 4032, Note_off_c, 0, 68, 0
2, 4032, Note_on_c, 0, 72, 84
2, 4128, Note_off_c, 0, 72, 0
2, 4176, Note_on_c, 0, 64, 84
2, 4224, Note_off_c, 0, 64, 0
2, 4224, Note_on_c, 0, 71, 84
2, 4320, Note_off_c, 0, 71, 0
2, 4368, Note_on_c, 0, 71, 84
2, 4416, Note_off_c, 0, 71, 0
2, 4416, Note_on_c, 0, 69, 84
2, 4512, Note_off_c, 0, 69, 0
2, 4560, Note_on_c, 0, 63, 84
2, 4608, Note_off_c, 0, 63, 0
2, 4608, Note_on_c, 0, 67, 84
2, 4704, Note_off_c, 0, 67, 0
2, 4752, Note_on_c, 0, 72, 84
2, 4800, Note_off_c, 0, 72, 0
2, 4800, Note_on_c, 0, 66, 84
2, 4896, Note_off_c, 0, 66, 0
2, 4896, Note_on_c, 0, 66, 84
2, 4992, Note_off_c, 0, 66, 0
2, 4992, Note_on_c, 0, 64, 84
2, 5088, Note_off_c, 0, 64, 0
2, 5088, Note_on_c, 0, 69, 84
2, 5232, Note_off_c, 0, 69, 0
2, 5232, Note_on_c, 0, 63, 84
2, 5280, Note_off_c, 0, 63, 0
2, 5280, Note_on_c, 0, 64, 84
2, 5376, Note_off_c, 0, 64, 0
2, 5376, Note_on_c, 0, 60, 84
2, 5472, Note_off_c, 0, 60, 0
2, 5472, Note_on_c, 0, 66, 84
2, 5616, Note_off_c, 0, 66, 0
2, 5616, Note_on_c, 0, 64, 84
2, 5664, Note_off_c, 0, 64, 0
2, 5664, Note_on_c, 0, 69, 84
2, 5808, Note_off_c, 0, 69, 0
2, 5808, Note_on_c, 0, 62, 84
2, 5856, Note_off_c, 0, 62, 0
2, 5856, Note_on_c, 0, 67, 84
2, 6000, Note_off_c, 0, 67, 0
2, 6000, Note_on_c, 0, 66, 84
2, 6048, Note_off_c, 0, 66, 0
2, 6048, Note_on_c, 0, 71, 84
2, 6192, Note_off_c, 0, 71, 0
2, 6192, Note_on_c, 0, 64, 84
2, 6240, Note_off_c, 0, 64, 0
2, 6240, Note_on_c, 0, 69, 84
2, 6384, Note_off_c, 0, 69, 0
2, 6384, Note_on_c, 0, 67, 84
2, 6432, Note_off_c, 0, 67, 0
2, 6432, Note_on_c, 0, 72, 84
2, 6480, Note_off_c, 0, 72, 0
2, 6480, Note_on_c, 0, 71, 84
2, 6528, Note_off_c, 0, 71, 0
2, 6528, Note_on_c, 0, 70, 84
2, 6624, Note_off_c, 0, 70, 0
2, 6624, Note_on_c, 0, 71, 84
2, 6720, Note_off_c, 0, 71, 0
2, 6720, Note_on_c, 0, 71, 84
2, 6816, Note_off_c, 0, 71, 0
2, 6816, Note_on_c, 0, 71, 84
2, 6912, Note_off_c, 0, 71, 0
2, 6912, Note_on_c, 0, 70, 84
2, 7008, Note_off_c, 0, 70, 0
2, 7008, Note_on_c, 0, 67, 84
2, 7104, Note_off_c, 0, 67, 0
2, 7104, Note_on_c, 0, 67, 84
2, 7200, Note_off_c, 0, 67, 0
2, 7200, Note_on_c, 0, 66, 84
2, 7296, Note_off_c, 0, 66, 0
2, 7296, Note_on_c, 0, 74, 84
2, 7392, Note_off_c, 0, 74, 0
2, 7392, Note_on_c, 0, 72, 84
2, 7488, Note_off_c, 0, 72, 0
2, 7488, Note_on_c, 0, 72, 84
2, 7584, Note_off_c, 0, 72, 0
2, 7584, Note_on_c, 0, 71, 84
2, 7680, Note_off_c, 0, 71, 0
2, 7680, Note_on_c, 0, 76, 84
2, 7776, Note_off_c, 0, 76, 0
2, 7824, Note_on_c, 0, 74, 84
2, 7872, Note_off_c, 0, 74, 0
2, 7920, Note_on_c, 0, 74, 84
2, 7968, Note_off_c, 0, 74, 0
2, 8016, Note_on_c, 0, 71, 84
2, 8064, Note_off_c, 0, 71, 0
2, 8064, Note_on_c, 0, 72, 84
2, 8160, Note_off_c, 0, 72, 0
2, 8208, Note_on_c, 0, 78, 84
2, 8256, Note_off_c, 0, 78, 0
2, 8304, Note_on_c, 0, 78, 84
2, 8352, Note_off_c, 0, 78, 0
2, 8400, Note_on_c, 0, 69, 84
2, 8448, Note_off_c, 0, 69, 0
2, 8448, Note_on_c, 0, 71, 84
2, 8544, Note_off_c, 0, 71, 0
2, 8784, Note_on_c, 0, 69, 84
2, 8832, Note_off_c, 0, 69, 0
2, 8832, Note_on_c, 0, 76, 84
2, 8928, Note_off_c, 0, 76, 0
2, 8976, Note_on_c, 0, 74, 84
2, 9024, Note_off_c, 0, 74, 0
2, 9072, Note_on_c, 0, 74, 84
2, 9120, Note_off_c, 0, 74, 0
2, 9168, Note_on_c, 0, 71, 84
2, 9216, Note_off_c, 0, 71, 0
2, 9216, Note_on_c, 0, 72, 84
2, 9312, Note_off_c, 0, 72, 0
2, 9552, Note_on_c, 0, 74, 84
2, 9600, Note_off_c, 0, 74, 0
2, 9600, Note_on_c, 0, 81, 84
2, 9696, Note_off_c, 0, 81, 0
2, 9744, Note_on_c, 0, 81, 84
2, 9792, Note_off_c, 0, 81, 0
2, 9840, Note_on_c, 0, 81, 84
2, 9888, Note_off_c, 0, 81, 0
2, 9936, Note_on_c, 0, 71, 84
2, 9984, Note_off_c, 0, 71, 0
2, 9984, Note_on_c, 0, 79, 84
2, 10080, Note_off_c, 0, 79, 0
2, 10320, Note_on_c, 0, 63, 84
2, 10368, Note_off_c, 0, 63, 0
2, 10368, Note_on_c, 0, 71, 84
2, 10416, Note_off_c, 0, 71, 0
2, 10416, Note_on_c, 0, 69, 84
2, 10464, Note_off_c, 0, 69, 0
2, 10584, Note_on_c, 0, 76, 84
2, 10608, Note_off_c, 0, 76, 0
2, 10608, Note_on_c, 0, 70, 84
2, 10656, Note_off_c, 0, 70, 0
2, 10656, Note_on_c, 0, 73, 84
2, 10668, Note_off_c, 0, 73, 0
2, 10668, Note_on_c, 0, 76, 84
2, 10680, Note_off_c, 0, 76, 0
2, 10680, Note_on_c, 0, 73, 84
2, 10692, Note_off_c, 0, 73, 0
2, 10692, Note_on_c, 0, 76, 84
2, 10704, Note_off_c, 0, 76, 0
2, 10704, Note_on_c, 0, 73, 84
2, 10716, Note_off_c, 0, 73, 0
2, 10716, Note_on_c, 0, 76, 84
2, 10728, Note_off_c, 0, 76, 0
2, 10728, Note_on_c, 0, 73, 84
2, 10740, Note_off_c, 0, 73, 0
2, 10740, Note_on_c, 0, 76, 84
2, 10752, Note_off_c, 0, 76, 0
2, 10752, Note_on_c, 0, 75, 84
2, 10848, Note_off_c, 0, 75, 0
2, 11088, Note_on_c, 0, 64, 84
2, 11136, Note_off_c, 0, 64, 0
2, 11136, Note_on_c, 0, 72, 84
2, 11232, Note_off_c, 0, 72, 0
2, 11232, Note_on_c, 0, 78, 84
2, 11256, Note_off_c, 0, 78, 0
2, 11256, Note_on_c, 0, 79, 84
2, 11280, Note_off_c, 0, 79, 0
2, 11280, Note_on_c, 0, 76, 84
2, 11304, Note_off_c, 0, 76, 0
2, 11304, Note_on_c, 0, 78, 84
2, 11328, Note_off_c, 0, 78, 0
2, 11328, Note_on_c, 0, 75, 84
2, 11352, Note_off_c, 0, 75, 0
2, 11352, Note_on_c, 0, 76, 84
2, 11376, Note_off_c, 0, 76, 0
2, 11376, Note_on_c, 0, 73, 84
2, 11400, Note_off_c, 0, 73, 0
2, 11400, Note_on_c, 0, 76, 84
2, 11424, Note_off_c, 0, 76, 0
2, 11424, Note_on_c, 0, 75, 84
2, 11472, Note_off_c, 0, 75, 0
2, 11472, Note_on_c, 0, 59, 84
2, 11520, Note_off_c, 0, 59, 0
2, 11520, Note_on_c, 0, 76, 84
2, 11616, Note_off_c, 0, 76, 0
2, 11856, Note_on_c, 0, 59, 84
2, 11904, Note_off_c, 0, 59, 0
2, 11904, Note_on_c, 0, 76, 84
2, 12000, Note_off_c, 0, 76, 0
2, 12048, Note_on_c, 0, 63, 84
2, 12096, Note_off_c, 0, 63, 0
2, 12096, Note_on_c, 0, 64, 84
2, 12288, Note_off_c, 0, 64, 0
2, 14832, Note_on_c, 0, 71, 84
2, 14868, Note_off_c, 0, 71, 0
2, 14880, Note_on_c, 0, 71, 84
2, 14892, Note_off_c, 0, 71, 0
2, 14892, Note_on_c, 0, 70, 84
2, 14904, Note_off_c, 0, 70, 0
2, 14904, Note_on_c, 0, 71, 84
2, 14976, Note_off_c, 0, 71, 0
2, 15024, Note_on_c, 0, 71, 84
2, 15060, Note_off_c, 0, 71, 0
2, 15072, Note_on_c, 0, 71, 84
2, 15084, Note_off_c, 0, 71, 0
2, 15084, Note_on_c, 0, 70, 84
2, 15096, Note_off_c, 0, 70, 0
2, 15096, Note_on_c, 0, 71, 84
2, 15168, Note_off_c, 0, 71, 0
2, 15216, Note_on_c, 0, 71, 84
2, 15264, Note_off_c, 0, 71, 0
2, 15264, Note_on_c, 0, 64, 84
2, 15312, Note_off_c, 0, 64, 0
2, 15312, Note_on_c, 0, 66, 84
2, 15360, Note_off_c, 0, 66, 0
2, 15360, Note_on_c, 0, 67, 84
2, 15408, Note_off_c, 0, 67, 0
2, 15408, Note_on_c, 0, 71, 84
2, 15456, Note_off_c, 0, 71, 0
2, 15456, Note_on_c, 0, 64, 84
2, 15504, Note_off_c, 0, 64, 0
2, 15504, Note_on_c, 0, 66, 84
2, 15552, Note_off_c, 0, 66, 0
2, 15552, Note_on_c, 0, 67, 84
2, 15648, Note_off_c, 0, 67, 0
2, 15648, Note_on_c, 0, 72, 84
2, 15696, Note_off_c, 0, 72, 0
2, 15696, Note_on_c, 0, 71, 84
2, 15744, Note_off_c, 0, 71, 0
2, 15744, Note_on_c, 0, 69, 84
2, 15792, Note_off_c, 0, 69, 0
2, 15792, Note_on_c, 0, 67, 84
2, 15840, Note_off_c, 0, 67, 0
2, 15840, Note_on_c, 0, 66, 84
2, 15888, Note_off_c, 0, 66, 0
2, 15888, Note_on_c, 0, 64, 84
2, 15936, Note_off_c, 0, 64, 0
2, 15936, Note_on_c, 0, 63, 84
2, 16032, Note_off_c, 0, 63, 0
2, 16056, Note_on_c, 0, 63, 84
2, 16080, Note_off_c, 0, 63, 0
2, 16080, Note_on_c, 0, 64, 84
2, 16104, Note_off_c, 0, 64, 0
2, 16104, Note_on_c, 0, 66, 84
2, 16128, Note_off_c, 0, 66, 0
2, 16128, Note_on_c, 0, 67, 84
2, 16224, Note_off_c, 0, 67, 0
2, 16224, Note_on_c, 0, 64, 84
2, 16236, Note_off_c, 0, 64, 0
2, 16236, Note_on_c, 0, 63, 84
2, 16248, Note_off_c, 0, 63, 0
2, 16248, Note_on_c, 0, 64, 84
2, 16320, Note_off_c, 0, 64, 0
2, 16320, Note_on_c, 0, 71, 84
2, 16416, Note_off_c, 0, 71, 0
2, 16416, Note_on_c, 0, 64, 84
2, 16428, Note_off_c, 0, 64, 0
2, 16428, Note_on_c, 0, 63, 84
2, 16440, Note_off_c, 0, 63, 0
2, 16440, Note_on_c, 0, 64, 84
2, 16512, Note_off_c, 0, 64, 0
2, 16512, Note_on_c, 0, 67, 84
2, 16608, Note_off_c, 0, 67, 0
2, 16608, Note_on_c, 0, 59, 84
2, 16656, Note_off_c, 0, 59, 0
2, 16656, Note_on_c, 0, 70, 84
2, 16704, Note_off_c, 0, 70, 0
2, 16704, Note_on_c, 0, 71, 84
2, 16800, Note_off_c, 0, 71, 0
2, 16800, Note_on_c, 0, 59, 84
2, 16848, Note_off_c, 0, 59, 0
2, 16848, Note_on_c, 0, 61, 84
2, 16896, Note_off_c, 0, 61, 0
2, 16896, Note_on_c, 0, 71, 84
2, 16920, Note_off_c, 0, 71, 0
2, 16920, Note_on_c, 0, 70, 84
2, 16944, Note_off_c, 0, 70, 0
2, 16944, Note_on_c, 0, 71, 84
2, 16968, Note_off_c, 0, 71, 0
2, 16968, Note_on_c, 0, 73, 84
2, 16992, Note_off_c, 0, 73, 0
2, 16992, Note_on_c, 0, 70, 84
2, 17004, Note_off_c, 0, 70, 0
2, 17004, Note_on_c, 0, 71, 84
2, 17016, Note_off_c, 0, 71, 0
2, 17016, Note_on_c, 0, 70, 84
2, 17064, Note_off_c, 0, 70, 0
2, 17064, Note_on_c, 0, 71, 84
2, 17088, Note_off_c, 0, 71, 0
2, 17088, Note_on_c, 0, 71, 84
2, 17136, Note_off_c, 0, 71, 0
2, 17136, Note_on_c, 0, 78, 84
2, 17160, Note_off_c, 0, 78, 0
2, 17160, Note_on_c, 0, 73, 84
2, 17184, Note_off_c, 0, 73, 0
2, 17184, Note_on_c, 0, 74, 84
2, 17232, Note_off_c, 0, 74, 0
2, 17232, Note_on_c, 0, 70, 84
2, 17280, Note_off_c, 0, 70, 0
2, 17280, Note_on_c, 0, 71, 84
2, 17328, Note_off_c, 0, 71, 0
2, 17328, Note_on_c, 0, 78, 84
2, 17352, Note_off_c, 0, 78, 0
2, 17352, Note_on_c, 0, 73, 84
2, 17376, Note_off_c, 0, 73, 0
2, 17376, Note_on_c, 0, 74, 84
2, 17424, Note_off_c, 0, 74, 0
2, 17424, Note_on_c, 0, 70, 84
2, 17472, Note_off_c, 0, 70, 0
2, 17472, Note_on_c, 0, 71, 84
2, 17568, Note_off_c, 0, 71, 0
2, 17616, Note_on_c, 0, 70, 84
2, 17664, Note_off_c, 0, 70, 0
2, 17664, Note_on_c, 0, 78, 84
2, 17712, Note_off_c, 0, 78, 0
2, 17712, Note_on_c, 0, 73, 84
2, 17760, Note_off_c, 0, 73, 0
2, 17760, Note_on_c, 0, 74, 84
2, 17808, Note_off_c, 0, 74, 0
2, 17808, Note_on_c, 0, 76, 84
2, 17856, Note_off_c, 0, 76, 0
2, 17856, Note_on_c, 0, 78, 84
2, 17904, Note_off_c, 0, 78, 0
2, 17904, Note_on_c, 0, 79, 84
2, 17928, Note_off_c, 0, 79, 0
2, 17928, Note_on_c, 0, 73, 84
2, 17952, Note_off_c, 0, 73, 0
2, 17952, Note_on_c, 0, 74, 84
2, 18000, Note_off_c, 0, 74, 0
2, 18000, Note_on_c, 0, 73, 84
2, 18024, Note_off_c, 0, 73, 0
2, 18024, Note_on_c, 0, 71, 84
2, 18048, Note_off_c, 0, 71, 0
2, 18048, Note_on_c, 0, 71, 84
2, 18072, Note_off_c, 0, 71, 0
2, 18072, Note_on_c, 0, 72, 84
2, 18096, Note_off_c, 0, 72, 0
2, 18096, Note_on_c, 0, 71, 84
2, 18120, Note_off_c, 0, 71, 0
2, 18120, Note_on_c, 0, 69, 84
2, 18144, Note_off_c, 0, 69, 0
2, 18144, Note_on_c, 0, 67, 84
2, 18168, Note_off_c, 0, 67, 0
2, 18168, Note_on_c, 0, 69, 84
2, 18192, Note_off_c, 0, 69, 0
2, 18192, Note_on_c, 0, 66, 84
2, 18216, Note_off_c, 0, 66, 0
2, 18216, Note_on_c, 0, 67, 84
2, 18240, Note_off_c, 0, 67, 0
2, 18240, Note_on_c, 0, 69, 84
2, 18264, Note_off_c, 0, 69, 0
2, 18264, Note_on_c, 0, 71, 84
2, 18288, Note_off_c, 0, 71, 0
2, 18288, Note_on_c, 0, 69, 84
2, 18312, Note_off_c, 0, 69, 0
2, 18312, Note_on_c, 0, 67, 84
2, 18336, Note_off_c, 0, 67, 0
2, 18336, Note_on_c, 0, 66, 84
2, 18360, Note_off_c, 0, 66, 0
2, 18360, Note_on_c, 0, 67, 84
2, 18384, Note_off_c, 0, 67, 0
2, 18384, Note_on_c, 0, 60, 84
2, 18432, Note_off_c, 0, 60, 0
2, 18432, Note_on_c, 0, 67, 84
2, 18480, Note_off_c, 0, 67, 0
2, 18480, Note_on_c, 0, 74, 84
2, 18504, Note_off_c, 0, 74, 0
2, 18504, Note_on_c, 0, 69, 84
2, 18528, Note_off_c, 0, 69, 0
2, 18528, Note_on_c, 0, 71, 84
2, 18576, Note_off_c, 0, 71, 0
2, 18576, Note_on_c, 0, 76, 84
2, 18600, Note_off_c, 0, 76, 0
2, 18600, Note_on_c, 0, 71, 84
2, 18624, Note_off_c, 0, 71, 0
2, 18624, Note_on_c, 0, 73, 84
2, 18672, Note_off_c, 0, 73, 0
2, 18672, Note_on_c, 0, 78, 84
2, 18696, Note_off_c, 0, 78, 0
2, 18696, Note_on_c, 0, 73, 84
2, 18720, Note_off_c, 0, 73, 0
2, 18720, Note_on_c, 0, 75, 84
2, 18768, Note_off_c, 0, 75, 0
2, 18768, Note_on_c, 0, 71, 84
2, 18816, Note_off_c, 0, 71, 0
2, 18816, Note_on_c, 0, 76, 84
2, 18864, Note_off_c, 0, 76, 0
2, 18864, Note_on_c, 0, 81, 84
2, 18888, Note_off_c, 0, 81, 0
2, 18888, Note_on_c, 0, 76, 84
2, 18912, Note_off_c, 0, 76, 0
2, 18912, Note_on_c, 0, 78, 84
2, 18960, Note_off_c, 0, 78, 0
2, 18960, Note_on_c, 0, 83, 84
2, 18984, Note_off_c, 0, 83, 0
2, 18984, Note_on_c, 0, 78, 84
2, 19008, Note_off_c, 0, 78, 0
2, 19008, Note_on_c, 0, 79, 84
2, 19056, Note_off_c, 0, 79, 0
2, 19056, Note_on_c, 0, 75, 84
2, 19104, Note_off_c, 0, 75, 0
2, 19104, Note_on_c, 0, 76, 84
2, 19152, Note_off_c, 0, 76, 0
2, 19152, Note_on_c, 0, 68, 84
2, 19200, Note_off_c, 0, 68, 0
2, 19200, Note_on_c, 0, 72, 84
2, 19248, Note_off_c, 0, 72, 0
2, 19248, Note_on_c, 0, 71, 84
2, 19296, Note_off_c, 0, 71, 0
2, 19296, Note_on_c, 0, 69, 84
2, 19344, Note_off_c, 0, 69, 0
2, 19344, Note_on_c, 0, 72, 84
2, 19392, Note_off_c, 0, 72, 0
2, 19392, Note_on_c, 0, 71, 84
2, 19440, Note_off_c, 0, 71, 0
2, 19440, Note_on_c, 0, 78, 84
2, 19464, Note_off_c, 0, 78, 0
2, 19464, Note_on_c, 0, 69, 84
2, 19488, Note_off_c, 0, 69, 0
2, 19488, Note_on_c, 0, 67, 84
2, 19512, Note_off_c, 0, 67, 0
2, 19512, Note_on_c, 0, 71, 84
2, 19536, Note_off_c, 0, 71, 0
2, 19536, Note_on_c, 0, 67, 84
2, 19584, Note_off_c, 0, 67, 0
2, 19584, Note_on_c, 0, 75, 84
2, 19680, Note_off_c, 0, 75, 0
2, 19728, Note_on_c, 0, 75, 84
2, 19776, Note_off_c, 0, 75, 0
2, 19776, Note_on_c, 0, 76, 84
2, 19872, Note_off_c, 0, 76, 0
2, 19920, Note_on_c, 0, 66, 84
2, 19968, Note_off_c, 0, 66, 0
2, 19968, Note_on_c, 0, 71, 84
2, 20064, Note_off_c, 0, 71, 0
2, 20112, Note_on_c, 0, 71, 84
2, 20160, Note_off_c, 0, 71, 0
2, 20160, Note_on_c, 0, 71, 84
2, 20256, Note_off_c, 0, 71, 0
2, 20304, Note_on_c, 0, 63, 84
2, 20352, Note_off_c, 0, 63, 0
2, 20352, Note_on_c, 0, 71, 84
2, 20448, Note_off_c, 0, 71, 0
2, 20496, Note_on_c, 0, 72, 84
2, 20544, Note_off_c, 0, 72, 0
2, 20544, Note_on_c, 0, 69, 84
2, 20592, Note_off_c, 0, 69, 0
2, 20592, Note_on_c, 0, 67, 84
2, 20616, Note_off_c, 0, 67, 0
2, 20616, Note_on_c, 0, 69, 84
2, 20640, Note_off_c, 0, 69, 0
2, 20640, Note_on_c, 0, 67, 84
2, 20688, Note_off_c, 0, 67, 0
2, 20688, Note_on_c, 0, 60, 84
2, 20736, Note_off_c, 0, 60, 0
2, 20736, Note_on_c, 0, 67, 84
2, 20784, Note_off_c, 0, 67, 0
2, 20784, Note_on_c, 0, 66, 84
2, 20808, Note_off_c, 0, 66, 0
2, 20808, Note_on_c, 0, 67, 84
2, 20832, Note_off_c, 0, 67, 0
2, 20832, Note_on_c, 0, 64, 84
2, 20904, Note_off_c, 0, 64, 0
2, 20904, Note_on_c, 0, 64, 84
2, 20928, Note_off_c, 0, 64, 0
2, 20928, Note_on_c, 0, 66, 84
2, 20976, Note_off_c, 0, 66, 0
2, 20976, Note_on_c, 0, 64, 84
2, 21000, Note_off_c, 0, 64, 0
2, 21000, Note_on_c, 0, 66, 84
2, 21024, Note_off_c, 0, 66, 0
2, 21024, Note_on_c, 0, 59, 84
2, 21120, Note_off_c, 0, 59, 0
2, 21120, Note_on_c, 0, 64, 84
2, 21168, Note_off_c, 0, 64, 0
2, 21168, Note_on_c, 0, 71, 84
2, 21192, Note_off_c, 0, 71, 0
2, 21192, Note_on_c, 0, 64, 84
2, 21216, Note_off_c, 0, 64, 0
2, 21216, Note_on_c, 0, 72, 84
2, 21312, Note_off_c, 0, 72, 0
2, 21312, Note_on_c, 0, 71, 84
2, 21504, Note_off_c, 0, 71, 0
2, 21504, Note_on_c, 0, 71, 84
2, 21552, Note_off_c, 0, 71, 0
2, 21552, Note_on_c, 0, 76, 84
2, 21588, Note_off_c, 0, 76, 0
2, 21600, Note_on_c, 0, 76, 84
2, 21612, Note_off_c, 0, 76, 0
2, 21612, Note_on_c, 0, 75, 84
2, 21624, Note_off_c, 0, 75, 0
2, 21624, Note_on_c, 0, 76, 84
2, 21696, Note_off_c, 0, 76, 0
2, 21696, Note_on_c, 0, 69, 84
2, 21792, Note_off_c, 0, 69, 0
2, 21792, Note_on_c, 0, 76, 84
2, 21804, Note_off_c, 0, 76, 0
2, 21804, Note_on_c, 0, 75, 84
2, 21816, Note_off_c, 0, 75, 0
2, 21816, Note_on_c, 0, 76, 84
2, 21888, Note_off_c, 0, 76, 0
2, 21888, Note_on_c, 0, 69, 84
2, 21984, Note_off_c, 0, 69, 0
2, 21984, Note_on_c, 0, 76, 84
2, 21996, Note_off_c, 0, 76, 0
2, 21996, Note_on_c, 0, 75, 84
2, 22008, Note_off_c, 0, 75, 0
2, 22008, Note_on_c, 0, 76, 84
2, 22080, Note_off_c, 0, 76, 0
2, 22080, Note_on_c, 0, 71, 84
2, 22176, Note_off_c, 0, 71, 0
2, 22176, Note_on_c, 0, 71, 84
2, 22224, Note_off_c, 0, 71, 0
2, 22224, Note_on_c, 0, 64, 84
2, 22272, Note_off_c, 0, 64, 0
2, 22272, Note_on_c, 0, 66, 84
2, 22368, Note_off_c, 0, 66, 0
2, 22368, Note_on_c, 0, 71, 84
2, 22416, Note_off_c, 0, 71, 0
2, 22416, Note_on_c, 0, 73, 84
2, 22464, Note_off_c, 0, 73, 0
2, 22464, Note_on_c, 0, 74, 84
2, 22512, Note_off_c, 0, 74, 0
2, 22512, Note_on_c, 0, 78, 84
2, 22560, Note_off_c, 0, 78, 0
2, 22560, Note_on_c, 0, 71, 84
2, 22608, Note_off_c, 0, 71, 0
2, 22608, Note_on_c, 0, 64, 84
2, 22656, Note_off_c, 0, 64, 0
2, 22656, Note_on_c, 0, 74, 84
2, 22728, Note_off_c, 0, 74, 0
2, 22728, Note_on_c, 0, 73, 84
2, 22740, Note_off_c, 0, 73, 0
2, 22740, Note_on_c, 0, 74, 84
2, 22752, Note_off_c, 0, 74, 0
2, 22752, Note_on_c, 0, 73, 84
2, 22824, Note_off_c, 0, 73, 0
2, 22824, Note_on_c, 0, 71, 84
2, 22848, Note_off_c, 0, 71, 0
2, 22848, Note_on_c, 0, 71, 84
2, 22932, Note_off_c, 0, 71, 0
2, 22944, Note_on_c, 0, 71, 84
2, 22956, Note_off_c, 0, 71, 0
2, 22956, Note_on_c, 0, 70, 84
2, 22968, Note_off_c, 0, 70, 0
2, 22968, Note_on_c, 0, 71, 84
2, 23040, Note_off_c, 0, 71, 0
2, 23040, Note_on_c, 0, 79, 84
2, 23136, Note_off_c, 0, 79, 0
2, 23136, Note_on_c, 0, 71, 84
2, 23148, Note_off_c, 0, 71, 0
2, 23148, Note_on_c, 0, 70, 84
2, 23160, Note_off_c, 0, 70, 0
2, 23160, Note_on_c, 0, 71, 84
2, 23232, Note_off_c, 0, 71, 0
2, 23232, Note_on_c, 0, 79, 84
2, 23328, Note_off_c, 0, 79, 0
2, 23328, Note_on_c, 0, 64, 84
2, 23376, Note_off_c, 0, 64, 0
2, 23376, Note_on_c, 0, 66, 84
2, 23424, Note_off_c, 0, 66, 0
2, 23424, Note_on_c, 0, 76, 84
2, 23520, Note_off_c, 0, 76, 0
2, 23520, Note_on_c, 0, 64, 84
2, 23568, Note_off_c, 0, 64, 0
2, 23568, Note_on_c, 0, 83, 84
2, 23592, Note_off_c, 0, 83, 0
2, 23592, Note_on_c, 0, 71, 84
2, 23616, Note_off_c, 0, 71, 0
2, 23616, Note_on_c, 0, 76, 84
2, 23688, Note_off_c, 0, 76, 0
2, 23688, Note_on_c, 0, 74, 84
2, 23712, Note_off_c, 0, 74, 0
2, 23712, Note_on_c, 0, 69, 84
2, 23808, Note_off_c, 0, 69, 0
2, 23808, Note_on_c, 0, 69, 84
2, 23856, Note_off_c, 0, 69, 0
2, 23856, Note_on_c, 0, 66, 84
2, 23880, Note_off_c, 0, 66, 0
2, 23880, Note_on_c, 0, 63, 84
2, 23904, Note_off_c, 0, 63, 0
2, 23904, Note_on_c, 0, 71, 84
2, 24096, Note_off_c, 0, 71, 0
2, 24096, Note_on_c, 0, 66, 84
2, 24240, Note_off_c, 0, 66, 0
2, 24240, Note_on_c, 0, 63, 84
2, 24264, Note_off_c, 0, 63, 0
2, 24264, Note_on_c, 0, 59, 84
2, 24288, Note_off_c, 0, 59, 0
2, 24288, Note_on_c, 0, 67, 84
2, 24384, Note_off_c, 0, 67, 0
2, 24384, Note_on_c, 0, 66, 84
2, 24456, Note_off_c, 0, 66, 0
2, 24456, Note_on_c, 0, 67, 84
2, 24480, Note_off_c, 0, 67, 0
2, 24480, Note_on_c, 0, 69, 84
2, 24528, Note_off_c, 0, 69, 0
2, 24528, Note_on_c, 0, 64, 84
2, 24576, Note_off_c, 0, 64, 0
2, 24576, Note_on_c, 0, 67, 84
2, 24624, Note_off_c, 0, 67, 0
2, 24624, Note_on_c, 0, 69, 84
2, 24648, Note_off_c, 0, 69, 0
2, 24648, Note_on_c, 0, 67, 84
2, 24672, Note_off_c, 0, 67, 0
2, 24672, Note_on_c, 0, 66, 84
2, 24768, Note_off_c, 0, 66, 0
2, 24768, Note_on_c, 0, 64, 84
2, 24888, Note_off_c, 0, 64, 0
2, 24888, Note_on_c, 0, 67, 84
2, 24912, Note_off_c, 0, 67, 0
2, 24912, Note_on_c, 0, 59, 84
2, 24960, Note_off_c, 0, 59, 0
2, 24960, Note_on_c, 0, 63, 84
2, 25032, Note_off_c, 0, 63, 0
2, 25032, Note_on_c, 0, 64, 84
2, 25056, Note_off_c, 0, 64, 0
2, 25056, Note_on_c, 0, 59, 84
2, 25104, Note_off_c, 0, 59, 0
2, 25104, Note_on_c, 0, 67, 84
2, 25152, Note_off_c, 0, 67, 0
2, 25152, Note_on_c, 0, 66, 84
2, 25248, Note_off_c, 0, 66, 0
2, 25296, Note_on_c, 0, 66, 84
2, 25344, Note_off_c, 0, 66, 0
2, 25344, Note_on_c, 0, 76, 84
2, 25440, Note_off_c, 0, 76, 0
2, 25488, Note_on_c, 0, 73, 84
2, 25536, Note_off_c, 0, 73, 0
2, 25536, Note_on_c, 0, 75, 84
2, 25608, Note_off_c, 0, 75, 0
2, 25608, Note_on_c, 0, 75, 84
2, 25632, Note_off_c, 0, 75, 0
2, 25632, Note_on_c, 0, 76, 84
2, 25680, Note_off_c, 0, 76, 0
2, 25680, Note_on_c, 0, 69, 84
2, 25728, Note_off_c, 0, 69, 0
2, 25728, Note_on_c, 0, 76, 84
2, 25776, Note_off_c, 0, 76, 0
2, 25776, Note_on_c, 0, 66, 84
2, 25824, Note_off_c, 0, 66, 0
2, 25824, Note_on_c, 0, 67, 84
2, 25872, Note_off_c, 0, 67, 0
2, 25872, Note_on_c, 0, 69, 84
2, 25920, Note_off_c, 0, 69, 0
2, 25920, Note_on_c, 0, 71, 84
2, 25992, Note_off_c, 0, 71, 0
2, 25992, Note_on_c, 0, 72, 84
2, 26016, Note_off_c, 0, 72, 0
2, 26016, Note_on_c, 0, 66, 84
2, 26022, Note_off_c, 0, 66, 0
2, 26022, Note_on_c, 0, 67, 84
2, 26028, Note_off_c, 0, 67, 0
2, 26028, Note_on_c, 0, 66, 84
2, 26034, Note_off_c, 0, 66, 0
2, 26034, Note_on_c, 0, 67, 84
2, 26040, Note_off_c, 0, 67, 0
2, 26040, Note_on_c, 0, 66, 84
2, 26076, Note_off_c, 0, 66, 0
2, 26088, Note_on_c, 0, 64, 84
2, 26106, Note_off_c, 0, 64, 0
2, 26112, Note_on_c, 0, 64, 84
2, 26304, Note_off_c, 0, 64, 0
2, 26304, End_track
3, 0, Start_track
3, 0, Title_t, "Track3"
3, 0, Program_c, 1, 19
3, 0, Control_c, 1, 7, 100
3, 0, Control_c, 1, 10, 64
3, 0, Control_c, 1, 91, 119
3, 120, Note_on_c, 1, 60, 76
3, 144, Note_off_c, 1, 60, 0
3, 144, Note_on_c, 1, 59, 76
3, 168, Note_off_c, 1, 59, 0
3, 168, Note_on_c, 1, 57, 76
3, 192, Note_off_c, 1, 57, 0
3, 192, Note_on_c, 1, 55, 76
3, 216, Note_off_c, 1, 55, 0
3, 216, Note_on_c, 1, 59, 76
3, 240, Note_off_c, 1, 59, 0
3, 240, Note_on_c, 1, 55, 76
3, 264, Note_off_c, 1, 55, 0
3, 264, Note_on_c, 1, 52, 76
3, 288, Note_off_c, 1, 52, 0
3, 288, Note_on_c, 1, 59, 76
3, 312, Note_off_c, 1, 59, 0
3, 312, Note_on_c, 1, 54, 76
3, 336, Note_off_c, 1, 54, 0
3, 336, Note_on_c, 1, 51, 76
3, 360, Note_off_c, 1, 51, 0
3, 360, Note_on_c, 1, 47, 76
3, 384, Note_off_c, 1, 47, 0
3, 384, Note_on_c, 1, 52, 76
3, 408, Note_off_c, 1, 52, 0
3, 408, Note_on_c, 1, 59, 76
3, 432, Note_off_c, 1, 59, 0
3, 432, Note_on_c, 1, 55, 76
3, 456, Note_off_c, 1, 55, 0
3, 456, Note_on_c, 1, 52, 76
3, 480, Note_off_c, 1, 52, 0
3, 480, Note_on_c, 1, 64, 76
3, 504, Note_off_c, 1, 64, 0
3, 504, Note_on_c, 1, 52, 76
3, 528, Note_off_c, 1, 52, 0
3, 528, Note_on_c, 1, 48, 76
3, 552, Note_off_c, 1, 48, 0
3, 552, Note_on_c, 1, 45, 76
3, 576, Note_off_c, 1, 45, 0
3, 576, Note_on_c, 1, 57, 76
3, 600, Note_off_c, 1, 57, 0
3, 1296, Note_on_c, 1, 59, 76
3, 1320, Note_off_c, 1, 59, 0
3, 1320, Note_on_c, 1, 57, 76
3, 1344, Note_off_c, 1, 57, 0
3, 1344, Note_on_c, 1, 55, 76
3, 1368, Note_off_c, 1, 55, 0
3, 1368, Note_on_c, 1, 57, 76
3, 1392, Note_off_c, 1, 57, 0
3, 1392, Note_on_c, 1, 59, 76
3, 1416, Note_off_c, 1, 59, 0
3, 1416, Note_on_c, 1, 57, 76
3, 1440, Note_off_c, 1, 57, 0
3, 1440, Note_on_c, 1, 55, 76
3, 1464, Note_off_c, 1, 55, 0
3, 1464, Note_on_c, 1, 54, 76
3, 1488, Note_off_c, 1, 54, 0
3, 1488, Note_on_c, 1, 52, 76
3, 1512, Note_off_c, 1, 52, 0
3, 1512, Note_on_c, 1, 51, 76
3, 1536, Note_off_c, 1, 51, 0
3, 1536, Note_on_c, 1, 52, 76
3, 1560, Note_off_c, 1, 52, 0
3, 1560, Note_on_c, 1, 52, 76
3, 1584, Note_off_c, 1, 52, 0
3, 1584, Note_on_c, 1, 50, 76
3, 1608, Note_off_c, 1, 50, 0
3, 1608, Note_on_c, 1, 48, 76
3, 1632, Note_off_c, 1, 48, 0
3, 1632, Note_on_c, 1, 47, 76
3, 1656, Note_off_c, 1, 47, 0
3, 1656, Note_on_c, 1, 45, 76
3, 1680, Note_off_c, 1, 45, 0
3, 1680, Note_on_c, 1, 43, 76
3, 1704, Note_off_c, 1, 43, 0
3, 1704, Note_on_c, 1, 42, 76
3, 1728, Note_off_c, 1, 42, 0
3, 1728, Note_on_c, 1, 40, 76
3, 1806, Note_off_c, 1, 40, 0
3, 3864, Note_on_c, 1, 59, 76
3, 3888, Note_off_c, 1, 59, 0
3, 3888, Note_on_c, 1, 60, 76
3, 3912, Note_off_c, 1, 60, 0
3, 3912, Note_on_c, 1, 62, 76
3, 3936, Note_off_c, 1, 62, 0
3, 3936, Note_on_c, 1, 60, 76
3, 3948, Note_off_c, 1, 60, 0
3, 3948, Note_on_c, 1, 62, 76
3, 3960, Note_off_c, 1, 62, 0
3, 3960, Note_on_c, 1, 60, 76
3, 4008, Note_off_c, 1, 60, 0
3, 4008, Note_on_c, 1, 59, 76
3, 4032, Note_off_c, 1, 59, 0
3, 4032, Note_on_c, 1, 57, 76
3, 4128, Note_off_c, 1, 57, 0
3, 4176, Note_on_c, 1, 57, 76
3, 4224, Note_off_c, 1, 57, 0
3, 4224, Note_on_c, 1, 59, 76
3, 4320, Note_off_c, 1, 59, 0
3, 4368, Note_on_c, 1, 55, 76
3, 4416, Note_off_c, 1, 55, 0
3, 4416, Note_on_c, 1, 57, 76
3, 4512, Note_off_c, 1, 57, 0
3, 4560, Note_on_c, 1, 54, 76
3, 4608, Note_off_c, 1, 54, 0
3, 4608, Note_on_c, 1, 59, 76
3, 4704, Note_off_c, 1, 59, 0
3, 4752, Note_on_c, 1, 60, 76
3, 4800, Note_off_c, 1, 60, 0
3, 4800, Note_on_c, 1, 57, 76
3, 4896, Note_off_c, 1, 57, 0
3, 4896, Note_on_c, 1, 59, 76
3, 4944, Note_off_c, 1, 59, 0
3, 4944, Note_on_c, 1, 59, 76
3, 4992, Note_off_c, 1, 59, 0
3, 4992, Note_on_c, 1, 56, 76
3, 5088, Note_off_c, 1, 56, 0
3, 5136, Note_on_c, 1, 57, 76
3, 5184, Note_off_c, 1, 57, 0
3, 5184, Note_on_c, 1, 59, 76
3, 5280, Note_off_c, 1, 59, 0
3, 5280, Note_on_c, 1, 52, 76
3, 5376, Note_off_c, 1, 52, 0
3, 5376, Note_on_c, 1, 57, 76
3, 5472, Note_off_c, 1, 57, 0
3, 5520, Note_on_c, 1, 55, 76
3, 5568, Note_off_c, 1, 55, 0
3, 5568, Note_on_c, 1, 55, 76
3, 5664, Note_off_c, 1, 55, 0
3, 5712, Note_on_c, 1, 52, 76
3, 5760, Note_off_c, 1, 52, 0
3, 5760, Note_on_c, 1, 55, 76
3, 5856, Note_off_c, 1, 55, 0
3, 5904, Note_on_c, 1, 57, 76
3, 5952, Note_off_c, 1, 57, 0
3, 5952, Note_on_c, 1, 57, 76
3, 6048, Note_off_c, 1, 57, 0
3, 6096, Note_on_c, 1, 54, 76
3, 6144, Note_off_c, 1, 54, 0
3, 6144, Note_on_c, 1, 55, 76
3, 6240, Note_off_c, 1, 55, 0
3, 6288, Note_on_c, 1, 59, 76
3, 6336, Note_off_c, 1, 59, 0
3, 6336, Note_on_c, 1, 59, 76
3, 6432, Note_off_c, 1, 59, 0
3, 6432, Note_on_c, 1, 64, 76
3, 6480, Note_off_c, 1, 64, 0
3, 6480, Note_on_c, 1, 62, 76
3, 6528, Note_off_c, 1, 62, 0
3, 6528, Note_on_c, 1, 61, 76
3, 6624, Note_off_c, 1, 61, 0
3, 6672, Note_on_c, 1, 62, 76
3, 6720, Note_off_c, 1, 62, 0
3, 6768, Note_on_c, 1, 62, 76
3, 6816, Note_off_c, 1, 62, 0
3, 6864, Note_on_c, 1, 56, 76
3, 6912, Note_off_c, 1, 56, 0
3, 6912, Note_on_c, 1, 61, 76
3, 7008, Note_off_c, 1, 61, 0
3, 7056, Note_on_c, 1, 64, 76
3, 7104, Note_off_c, 1, 64, 0
3, 7152, Note_on_c, 1, 64, 76
3, 7200, Note_off_c, 1, 64, 0
3, 7248, Note_on_c, 1, 61, 76
3, 7296, Note_off_c, 1, 61, 0
3, 7296, Note_on_c, 1, 62, 76
3, 7392, Note_off_c, 1, 62, 0
3, 7440, Note_on_c, 1, 69, 76
3, 7488, Note_off_c, 1, 69, 0
3, 7536, Note_on_c, 1, 69, 76
3, 7584, Note_off_c, 1, 69, 0
3, 7632, Note_on_c, 1, 59, 76
3, 7680, Note_off_c, 1, 59, 0
3, 7680, Note_on_c, 1, 64, 76
3, 7776, Note_off_c, 1, 64, 0
3, 7776, Note_on_c, 1, 65, 76
3, 7872, Note_off_c, 1, 65, 0
3, 7872, Note_on_c, 1, 65, 76
3, 7968, Note_off_c, 1, 65, 0
3, 7968, Note_on_c, 1, 64, 76
3, 8064, Note_off_c, 1, 64, 0
3, 8064, Note_on_c, 1, 64, 76
3, 8160, Note_off_c, 1, 64, 0
3, 8160, Note_on_c, 1, 60, 76
3, 8256, Note_off_c, 1, 60, 0
3, 8256, Note_on_c, 1, 60, 76
3, 8352, Note_off_c, 1, 60, 0
3, 8352, Note_on_c, 1, 59, 76
3, 8448, Note_off_c, 1, 59, 0
3, 8448, Note_on_c, 1, 64, 76
3, 8544, Note_off_c, 1, 64, 0
3, 8784, Note_on_c, 1, 59, 76
3, 8832, Note_off_c, 1, 59, 0
3, 8832, Note_on_c, 1, 64, 76
3, 8928, Note_off_c, 1, 64, 0
3, 8928, Note_on_c, 1, 65, 76
3, 9024, Note_off_c, 1, 65, 0
3, 9024, Note_on_c, 1, 65, 76
3, 9120, Note_off_c, 1, 65, 0
3, 9120, Note_on_c, 1, 64, 76
3, 9216, Note_off_c, 1, 64, 0
3, 9216, Note_on_c, 1, 64, 76
3, 9312, Note_off_c, 1, 64, 0
3, 9552, Note_on_c, 1, 64, 76
3, 9600, Note_off_c, 1, 64, 0
3, 9600, Note_on_c, 1, 69, 76
3, 9696, Note_off_c, 1, 69, 0
3, 9696, Note_on_c, 1, 60, 76
3, 9792, Note_off_c, 1, 60, 0
3, 9792, Note_on_c, 1, 60, 76
3, 9888, Note_off_c, 1, 60, 0
3, 9888, Note_on_c, 1, 59, 76
3, 9984, Note_off_c, 1, 59, 0
3, 9984, Note_on_c, 1, 67, 76
3, 10080, Note_off_c, 1, 67, 0
3, 10320, Note_on_c, 1, 59, 76
3, 10368, Note_off_c, 1, 59, 0
3, 10368, Note_on_c, 1, 52, 76
3, 10464, Note_off_c, 1, 52, 0
3, 10656, Note_on_c, 1, 58, 76
3, 10668, Note_off_c, 1, 58, 0
3, 10668, Note_on_c, 1, 61, 76
3, 10680, Note_off_c, 1, 61, 0
3, 10680, Note_on_c, 1, 58, 76
3, 10692, Note_off_c, 1, 58, 0
3, 10692, Note_on_c, 1, 61, 76
3, 10704, Note_off_c, 1, 61, 0
3, 10704, Note_on_c, 1, 58, 76
3, 10716, Note_off_c, 1, 58, 0
3, 10716, Note_on_c, 1, 61, 76
3, 10728, Note_off_c, 1, 61, 0
3, 10728, Note_on_c, 1, 58, 76
3, 10740, Note_off_c, 1, 58, 0
3, 10740, Note_on_c, 1, 61, 76
3, 10752, Note_off_c, 1, 61, 0
3, 10752, Note_on_c, 1, 59, 76
3, 10848, Note_off_c, 1, 59, 0
3, 11088, Note_on_c, 1, 59, 76
3, 11136, Note_off_c, 1, 59, 0
3, 11136, Note_on_c, 1, 57, 76
3, 11232, Note_off_c, 1, 57, 0
3, 11520, Note_on_c, 1, 59, 76
3, 11616, Note_off_c, 1, 59, 0
3, 11904, Note_on_c, 1, 64, 76
3, 12000, Note_off_c, 1, 64, 0
3, 12048, Note_on_c, 1, 59, 76
3, 12096, Note_off_c, 1, 59, 0
3, 12096, Note_on_c, 1, 47, 76
3, 12288, Note_off_c, 1, 47, 0
3, 12720, Note_on_c, 1, 59, 76
3, 12756, Note_off_c, 1, 59, 0
3, 12768, Note_on_c, 1, 59, 76
3, 12780, Note_off_c, 1, 59, 0
3, 12780, Note_on_c, 1, 58, 76
3, 12792, Note_off_c, 1, 58, 0
3, 12792, Note_on_c, 1, 59, 76
3, 12864, Note_off_c, 1, 59, 0
3, 12912, Note_on_c, 1, 59, 76
3, 12948, Note_off_c, 1, 59, 0
3, 12960, Note_on_c, 1, 59, 76
3, 12972, Note_off_c, 1, 59, 0
3, 12972, Note_on_c, 1, 58, 76
3, 12984, Note_off_c, 1, 58, 0
3, 12984, Note_on_c, 1, 59, 76
3, 13056, Note_off_c, 1, 59, 0
3, 13104, Note_on_c, 1, 59, 76
3, 13152, Note_off_c, 1, 59, 0
3, 13152, Note_on_c, 1, 52, 76
3, 13200, Note_off_c, 1, 52, 0
3, 13200, Note_on_c, 1, 54, 76
3, 13248, Note_off_c, 1, 54, 0
3, 13248, Note_on_c, 1, 55, 76
3, 13296, Note_off_c, 1, 55, 0
3, 13296, Note_on_c, 1, 59, 76
3, 13344, Note_off_c, 1, 59, 0
3, 13344, Note_on_c, 1, 52, 76
3, 13392, Note_off_c, 1, 52, 0
3, 13392, Note_on_c, 1, 54, 76
3, 13440, Note_off_c, 1, 54, 0
3, 13440, Note_on_c, 1, 55, 76
3, 13536, Note_off_c, 1, 55, 0
3, 13536, Note_on_c, 1, 52, 76
3, 13548, Note_off_c, 1, 52, 0
3, 13548, Note_on_c, 1, 51, 76
3, 13560, Note_off_c, 1, 51, 0
3, 13560, Note_on_c, 1, 52, 76
3, 13632, Note_off_c, 1, 52, 0
3, 13632, Note_on_c, 1, 55, 76
3, 13728, Note_off_c, 1, 55, 0
3, 13728, Note_on_c, 1, 52, 76
3, 13740, Note_off_c, 1, 52, 0
3, 13740, Note_on_c, 1, 51, 76
3, 13752, Note_off_c, 1, 51, 0
3, 13752, Note_on_c, 1, 52, 76
3, 13824, Note_off_c, 1, 52, 0
3, 13824, Note_on_c, 1, 55, 76
3, 13920, Note_off_c, 1, 55, 0
3, 13920, Note_on_c, 1, 47, 76
3, 13968, Note_off_c, 1, 47, 0
3, 13968, Note_on_c, 1, 64, 76
3, 14016, Note_off_c, 1, 64, 0
3, 14016, Note_on_c, 1, 66, 76
3, 14064, Note_off_c, 1, 66, 0
3, 14064, Note_on_c, 1, 58, 76
3, 14112, Note_off_c, 1, 58, 0
3, 14112, Note_on_c, 1, 47, 76
3, 14160, Note_off_c, 1, 47, 0
3, 14160, Note_on_c, 1, 49, 76
3, 14208, Note_off_c, 1, 49, 0
3, 14208, Note_on_c, 1, 54, 76
3, 14256, Note_off_c, 1, 54, 0
3, 14256, Note_on_c, 1, 59, 76
3, 14280, Note_off_c, 1, 59, 0
3, 14280, Note_on_c, 1, 54, 76
3, 14304, Note_off_c, 1, 54, 0
3, 14304, Note_on_c, 1, 55, 76
3, 14352, Note_off_c, 1, 55, 0
3, 14352, Note_on_c, 1, 60, 76
3, 14376, Note_off_c, 1, 60, 0
3, 14376, Note_on_c, 1, 55, 76
3, 14400, Note_off_c, 1, 55, 0
3, 14400, Note_on_c, 1, 57, 76
3, 14448, Note_off_c, 1, 57, 0
3, 14448, Note_on_c, 1, 62, 76
3, 14472, Note_off_c, 1, 62, 0
3, 14472, Note_on_c, 1, 57, 76
3, 14496, Note_off_c, 1, 57, 0
3, 14496, Note_on_c, 1, 59, 76
3, 14544, Note_off_c, 1, 59, 0
3, 14544, Note_on_c, 1, 56, 76
3, 14592, Note_off_c, 1, 56, 0
3, 14592, Note_on_c, 1, 60, 76
3, 14664, Note_off_c, 1, 60, 0
3, 14664, Note_on_c, 1, 59, 76
3, 14688, Note_off_c, 1, 59, 0
3, 14688, Note_on_c, 1, 57, 76
3, 14760, Note_off_c, 1, 57, 0
3, 14760, Note_on_c, 1, 55, 76
3, 14784, Note_off_c, 1, 55, 0
3, 14784, Note_on_c, 1, 54, 76
3, 14880, Note_off_c, 1, 54, 0
3, 14928, Note_on_c, 1, 51, 76
3, 14976, Note_off_c, 1, 51, 0
3, 14976, Note_on_c, 1, 55, 76
3, 15072, Note_off_c, 1, 55, 0
3, 15120, Note_on_c, 1, 59, 76
3, 15144, Note_off_c, 1, 59, 0
3, 15144, Note_on_c, 1, 54, 76
3, 15168, Note_off_c, 1, 54, 0
3, 15168, Note_on_c, 1, 55, 76
3, 15264, Note_off_c, 1, 55, 0
3, 15312, Note_on_c, 1, 51, 76
3, 15360, Note_off_c, 1, 51, 0
3, 15360, Note_on_c, 1, 59, 76
3, 15408, Note_off_c, 1, 59, 0
3, 15408, Note_on_c, 1, 63, 76
3, 15456, Note_off_c, 1, 63, 0
3, 15456, Note_on_c, 1, 64, 76
3, 15504, Note_off_c, 1, 64, 0
3, 15504, Note_on_c, 1, 63, 76
3, 15552, Note_off_c, 1, 63, 0
3, 15552, Note_on_c, 1, 64, 76
3, 15696, Note_off_c, 1, 64, 0
3, 15696, Note_on_c, 1, 47, 76
3, 15744, Note_off_c, 1, 47, 0
3, 15744, Note_on_c, 1, 64, 76
3, 15792, Note_off_c, 1, 64, 0
3, 15792, Note_on_c, 1, 62, 76
3, 15840, Note_off_c, 1, 62, 0
3, 15840, Note_on_c, 1, 60, 76
3, 15936, Note_off_c, 1, 60, 0
3, 15936, Note_on_c, 1, 59, 76
3, 16008, Note_off_c, 1, 59, 0
3, 16008, Note_on_c, 1, 57, 76
3, 16032, Note_off_c, 1, 57, 0
3, 16032, Note_on_c, 1, 59, 76
3, 16080, Note_off_c, 1, 59, 0
3, 16080, Note_on_c, 1, 54, 76
3, 16128, Note_off_c, 1, 54, 0
3, 16128, Note_on_c, 1, 59, 76
3, 16224, Note_off_c, 1, 59, 0
3, 16272, Note_on_c, 1, 57, 76
3, 16320, Note_off_c, 1, 57, 0
3, 16320, Note_on_c, 1, 55, 76
3, 16416, Note_off_c, 1, 55, 0
3, 16464, Note_on_c, 1, 54, 76
3, 16512, Note_off_c, 1, 54, 0
3, 16512, Note_on_c, 1, 52, 76
3, 16608, Note_off_c, 1, 52, 0
3, 16632, Note_on_c, 1, 52, 76
3, 16656, Note_off_c, 1, 52, 0
3, 16656, Note_on_c, 1, 50, 76
3, 16680, Note_off_c, 1, 50, 0
3, 16680, Note_on_c, 1, 49, 76
3, 16704, Note_off_c, 1, 49, 0
3, 16704, Note_on_c, 1, 47, 76
3, 16800, Note_off_c, 1, 47, 0
3, 16824, Note_on_c, 1, 55, 76
3, 16848, Note_off_c, 1, 55, 0
3, 16848, Note_on_c, 1, 54, 76
3, 16872, Note_off_c, 1, 54, 0
3, 16872, Note_on_c, 1, 52, 76
3, 16896, Note_off_c, 1, 52, 0
3, 16896, Note_on_c, 1, 54, 76
3, 16944, Note_off_c, 1, 54, 0
3, 16944, Note_on_c, 1, 52, 76
3, 16992, Note_off_c, 1, 52, 0
3, 16992, Note_on_c, 1, 54, 76
3, 17088, Note_off_c, 1, 54, 0
3, 19632, Note_on_c, 1, 59, 76
3, 19668, Note_off_c, 1, 59, 0
3, 19680, Note_on_c, 1, 59, 76
3, 19692, Note_off_c, 1, 59, 0
3, 19692, Note_on_c, 1, 58, 76
3, 19704, Note_off_c, 1, 58, 0
3, 19704, Note_on_c, 1, 59, 76
3, 19776, Note_off_c, 1, 59, 0
3, 19824, Note_on_c, 1, 59, 76
3, 19860, Note_off_c, 1, 59, 0
3, 19872, Note_on_c, 1, 59, 76
3, 19884, Note_off_c, 1, 59, 0
3, 19884, Note_on_c, 1, 58, 76
3, 19896, Note_off_c, 1, 58, 0
3, 19896, Note_on_c, 1, 59, 76
3, 19968, Note_off_c, 1, 59, 0
3, 20016, Note_on_c, 1, 59, 76
3, 20064, Note_off_c, 1, 59, 0
3, 20064, Note_on_c, 1, 52, 76
3, 20112, Note_off_c, 1, 52, 0
3, 20112, Note_on_c, 1, 54, 76
3, 20160, Note_off_c, 1, 54, 0
3, 20160, Note_on_c, 1, 55, 76
3, 20208, Note_off_c, 1, 55, 0
3, 20208, Note_on_c, 1, 59, 76
3, 20256, Note_off_c, 1, 59, 0
3, 20256, Note_on_c, 1, 52, 76
3, 20304, Note_off_c, 1, 52, 0
3, 20304, Note_on_c, 1, 54, 76
3, 20352, Note_off_c, 1, 54, 0
3, 20352, Note_on_c, 1, 55, 76
3, 20400, Note_off_c, 1, 55, 0
3, 20400, Note_on_c, 1, 59, 76
3, 20424, Note_off_c, 1, 59, 0
3, 20424, Note_on_c, 1, 55, 76
3, 20448, Note_off_c, 1, 55, 0
3, 20448, Note_on_c, 1, 60, 76
3, 20592, Note_off_c, 1, 60, 0
3, 20592, Note_on_c, 1, 59, 76
3, 20616, Note_off_c, 1, 59, 0
3, 20616, Note_on_c, 1, 60, 76
3, 20640, Note_off_c, 1, 60, 0
3, 20640, Note_on_c, 1, 57, 76
3, 20736, Note_off_c, 1, 57, 0
3, 20736, Note_on_c, 1, 55, 76
3, 20832, Note_off_c, 1, 55, 0
3, 20832, Note_on_c, 1, 55, 76
3, 20928, Note_off_c, 1, 55, 0
3, 20928, Note_on_c, 1, 57, 76
3, 20976, Note_off_c, 1, 57, 0
3, 20976, Note_on_c, 1, 55, 76
3, 21000, Note_off_c, 1, 55, 0
3, 21000, Note_on_c, 1, 57, 76
3, 21024, Note_off_c, 1, 57, 0
3, 21024, Note_on_c, 1, 54, 76
3, 21120, Note_off_c, 1, 54, 0
3, 21120, Note_on_c, 1, 52, 76
3, 21264, Note_off_c, 1, 52, 0
3, 21264, Note_on_c, 1, 54, 76
3, 21312, Note_off_c, 1, 54, 0
3, 21312, Note_on_c, 1, 55, 76
3, 21360, Note_off_c, 1, 55, 0
3, 21360, Note_on_c, 1, 57, 76
3, 21384, Note_off_c, 1, 57, 0
3, 21384, Note_on_c, 1, 55, 76
3, 21408, Note_off_c, 1, 55, 0
3, 21408, Note_on_c, 1, 54, 76
3, 21456, Note_off_c, 1, 54, 0
3, 21456, Note_on_c, 1, 57, 76
3, 21504, Note_off_c, 1, 57, 0
3, 21504, Note_on_c, 1, 55, 76
3, 21600, Note_off_c, 1, 55, 0
3, 21648, Note_on_c, 1, 59, 76
3, 21696, Note_off_c, 1, 59, 0
3, 21696, Note_on_c, 1, 60, 76
3, 21792, Note_off_c, 1, 60, 0
3, 22656, Note_on_c, 1, 58, 76
3, 22704, Note_off_c, 1, 58, 0
3, 22704, Note_on_c, 1, 59, 76
3, 22752, Note_off_c, 1, 59, 0
3, 22752, Note_on_c, 1, 59, 76
3, 22800, Note_off_c, 1, 59, 0
3, 22800, Note_on_c, 1, 58, 76
3, 22848, Note_off_c, 1, 58, 0
3, 22848, Note_on_c, 1, 59, 76
3, 22944, Note_off_c, 1, 59, 0
3, 22992, Note_on_c, 1, 63, 76
3, 23040, Note_off_c, 1, 63, 0
3, 23040, Note_on_c, 1, 64, 76
3, 23136, Note_off_c, 1, 64, 0
3, 23184, Note_on_c, 1, 63, 76
3, 23232, Note_off_c, 1, 63, 0
3, 23232, Note_on_c, 1, 64, 76
3, 23328, Note_off_c, 1, 64, 0
3, 23376, Note_on_c, 1, 63, 76
3, 23424, Note_off_c, 1, 63, 0
3, 23424, Note_on_c, 1, 64, 76
3, 23520, Note_off_c, 1, 64, 0
3, 23568, Note_on_c, 1, 62, 76
3, 23616, Note_off_c, 1, 62, 0
3, 23616, Note_on_c, 1, 60, 76
3, 23760, Note_off_c, 1, 60, 0
3, 23760, Note_on_c, 1, 54, 76
3, 23784, Note_off_c, 1, 54, 0
3, 23784, Note_on_c, 1, 51, 76
3, 23808, Note_off_c, 1, 51, 0
3, 23808, Note_on_c, 1, 55, 76
3, 23952, Note_off_c, 1, 55, 0
3, 23952, Note_on_c, 1, 52, 76
3, 23976, Note_off_c, 1, 52, 0
3, 23976, Note_on_c, 1, 49, 76
3, 24000, Note_off_c, 1, 49, 0
3, 24000, Note_on_c, 1, 54, 76
3, 24144, Note_off_c, 1, 54, 0
3, 24144, Note_on_c, 1, 51, 76
3, 24168, Note_off_c, 1, 51, 0
3, 24168, Note_on_c, 1, 47, 76
3, 24192, Note_off_c, 1, 47, 0
3, 24192, Note_on_c, 1, 52, 76
3, 24288, Note_off_c, 1, 52, 0
3, 24288, Note_on_c, 1, 52, 76
3, 24336, Note_off_c, 1, 52, 0
3, 24336, Note_on_c, 1, 55, 76
3, 24360, Note_off_c, 1, 55, 0
3, 24360, Note_on_c, 1, 52, 76
3, 24384, Note_off_c, 1, 52, 0
3, 24384, Note_on_c, 1, 57, 76
3, 24432, Note_off_c, 1, 57, 0
3, 24432, Note_on_c, 1, 59, 76
3, 24480, Note_off_c, 1, 59, 0
3, 24480, Note_on_c, 1, 60, 76
3, 24528, Note_off_c, 1, 60, 0
3, 24528, Note_on_c, 1, 59, 76
3, 24552, Note_off_c, 1, 59, 0
3, 24552, Note_on_c, 1, 57, 76
3, 24576, Note_off_c, 1, 57, 0
3, 24576, Note_on_c, 1, 59, 76
3, 24672, Note_off_c, 1, 59, 0
3, 24672, Note_on_c, 1, 59, 76
3, 24696, Note_off_c, 1, 59, 0
3, 24696, Note_on_c, 1, 60, 76
3, 24720, Note_off_c, 1, 60, 0
3, 24720, Note_on_c, 1, 59, 76
3, 24744, Note_off_c, 1, 59, 0
3, 24744, Note_on_c, 1, 57, 76
3, 24768, Note_off_c, 1, 57, 0
3, 24768, Note_on_c, 1, 56, 76
3, 24816, Note_off_c, 1, 56, 0
3, 24816, Note_on_c, 1, 52, 76
3, 24864, Note_off_c, 1, 52, 0
3, 24864, Note_on_c, 1, 57, 76
3, 24912, Note_off_c, 1, 57, 0
3, 24912, Note_on_c, 1, 55, 76
3, 24960, Note_off_c, 1, 55, 0
3, 24960, Note_on_c, 1, 54, 76
3, 25008, Note_off_c, 1, 54, 0
3, 25008, Note_on_c, 1, 52, 76
3, 25056, Note_off_c, 1, 52, 0
3, 25056, Note_on_c, 1, 51, 76
3, 25104, Note_off_c, 1, 51, 0
3, 25104, Note_on_c, 1, 52, 76
3, 25152, Note_off_c, 1, 52, 0
3, 25152, Note_on_c, 1, 59, 76
3, 25248, Note_off_c, 1, 59, 0
3, 25296, Note_on_c, 1, 57, 76
3, 25344, Note_off_c, 1, 57, 0
3, 25344, Note_on_c, 1, 55, 76
3, 25440, Note_off_c, 1, 55, 0
3, 25488, Note_on_c, 1, 54, 76
3, 25536, Note_off_c, 1, 54, 0
3, 25536, Note_on_c, 1, 59, 76
3, 25632, Note_off_c, 1, 59, 0
3, 25776, Note_on_c, 1, 59, 76
3, 25824, Note_off_c, 1, 59, 0
3, 25824, Note_on_c, 1, 59, 76
3, 25872, Note_off_c, 1, 59, 0
3, 25872, Note_on_c, 1, 57, 76
3, 25920, Note_off_c, 1, 57, 0
3, 25920, Note_on_c, 1, 55, 76
3, 25968, Note_off_c, 1, 55, 0
3, 25968, Note_on_c, 1, 54, 76
3, 26064, Note_off_c, 1, 54, 0
3, 26064, Note_on_c, 1, 57, 76
3, 26112, Note_off_c, 1, 57, 0
3, 26112, Note_on_c, 1, 59, 76
3, 26304, Note_off_c, 1, 59, 0
3, 26304, End_track
4, 0, Start_track
4, 0, Title_t, "Track4"
4, 0, Program_c, 2, 19
4, 0, Control_c, 2, 7, 100
4, 0, Control_c, 2, 10, 64
4, 1920, Note_on_c, 2, 28, 84
4, 2016, Note_off_c, 2, 28, 0
4, 2112, Note_on_c, 2, 28, 84
4, 2208, Note_off_c, 2, 28, 0
4, 2304, Note_on_c, 2, 31, 84
4, 2400, Note_off_c, 2, 31, 0
4, 2496, Note_on_c, 2, 33, 84
4, 2592, Note_off_c, 2, 33, 0
4, 2688, Note_on_c, 2, 35, 84
4, 2784, Note_off_c, 2, 35, 0
4, 2880, Note_on_c, 2, 35, 84
4, 2976, Note_off_c, 2, 35, 0
4, 3096, Note_on_c, 2, 46, 84
4, 3120, Note_off_c, 2, 46, 0
4, 3120, Note_on_c, 2, 47, 84
4, 3144, Note_off_c, 2, 47, 0
4, 3144, Note_on_c, 2, 46, 84
4, 3168, Note_off_c, 2, 46, 0
4, 3168, Note_on_c, 2, 47, 84
4, 3192, Note_off_c, 2, 47, 0
4, 3192, Note_on_c, 2, 41, 84
4, 3216, Note_off_c, 2, 41, 0
4, 3216, Note_on_c, 2, 42, 84
4, 3240, Note_off_c, 2, 42, 0
4, 3240, Note_on_c, 2, 41, 84
4, 3264, Note_off_c, 2, 41, 0
4, 3264, Note_on_c, 2, 42, 84
4, 3288, Note_off_c, 2, 42, 0
4, 3288, Note_on_c, 2, 37, 84
4, 3312, Note_off_c, 2, 37, 0
4, 3312, Note_on_c, 2, 39, 84
4, 3336, Note_off_c, 2, 39, 0
4, 3336, Note_on_c, 2, 37, 84
4, 3360, Note_off_c, 2, 37, 0
4, 3360, Note_on_c, 2, 39, 84
4, 3384, Note_off_c, 2, 39, 0
4, 3384, Note_on_c, 2, 35, 84
4, 3396, Note_off_c, 2, 35, 0
4, 3396, Note_on_c, 2, 42, 84
4, 3408, Note_off_c, 2, 42, 0
4, 3408, Note_on_c, 2, 39, 84
4, 3420, Note_off_c, 2, 39, 0
4, 3420, Note_on_c, 2, 42, 84
4, 3432, Note_off_c, 2, 42, 0
4, 3432, Note_on_c, 2, 39, 84
4, 3444, Note_off_c, 2, 39, 0
4, 3444, Note_on_c, 2, 42, 84
4, 3456, Note_off_c, 2, 42, 0
4, 3456, Note_on_c, 2, 32, 84
4, 3552, Note_off_c, 2, 32, 0
4, 3744, Note_on_c, 2, 32, 84
4, 3840, Note_off_c, 2, 32, 0
4, 3840, Note_on_c, 2, 33, 84
4, 3936, Note_off_c, 2, 33, 0
4, 4032, Note_on_c, 2, 33, 84
4, 4128, Note_off_c, 2, 33, 0
4, 4128, Note_on_c, 2, 45, 84
4, 4272, Note_off_c, 2, 45, 0
4, 4272, Note_on_c, 2, 39, 84
4, 4320, Note_off_c, 2, 39, 0
4, 4320, Note_on_c, 2, 43, 84
4, 4464, Note_off_c, 2, 43, 0
4, 4464, Note_on_c, 2, 37, 84
4, 4512, Note_off_c, 2, 37, 0
4, 4512, Note_on_c, 2, 42, 84
4, 4656, Note_off_c, 2, 42, 0
4, 4656, Note_on_c, 2, 35, 84
4, 4704, Note_off_c, 2, 35, 0
4, 4704, Note_on_c, 2, 40, 84
4, 4848, Note_off_c, 2, 40, 0
4, 4848, Note_on_c, 2, 38, 84
4, 4872, Note_off_c, 2, 38, 0
4, 4872, Note_on_c, 2, 36, 84
4, 4896, Note_off_c, 2, 36, 0
4, 4896, Note_on_c, 2, 38, 84
4, 4944, Note_off_c, 2, 38, 0
4, 4944, Note_on_c, 2, 36, 84
4, 4968, Note_off_c, 2, 36, 0
4, 4968, Note_on_c, 2, 35, 84
4, 4992, Note_off_c, 2, 35, 0
4, 4992, Note_on_c, 2, 36, 84
4, 5088, Note_off_c, 2, 36, 0
4, 5136, Note_on_c, 2, 36, 84
4, 5184, Note_off_c, 2, 36, 0
4, 5184, Note_on_c, 2, 35, 84
4, 5280, Note_off_c, 2, 35, 0
4, 5280, Note_on_c, 2, 40, 84
4, 5328, Note_off_c, 2, 40, 0
4, 5328, Note_on_c, 2, 31, 84
4, 5376, Note_off_c, 2, 31, 0
4, 5376, Note_on_c, 2, 33, 84
4, 5472, Note_off_c, 2, 33, 0
4, 5520, Note_on_c, 2, 35, 84
4, 5568, Note_off_c, 2, 35, 0
4, 5568, Note_on_c, 2, 36, 84
4, 5664, Note_off_c, 2, 36, 0
4, 5712, Note_on_c, 2, 33, 84
4, 5760, Note_off_c, 2, 33, 0
4, 5760, Note_on_c, 2, 35, 84
4, 5856, Note_off_c, 2, 35, 0
4, 5904, Note_on_c, 2, 37, 84
4, 5952, Note_off_c, 2, 37, 0
4, 5952, Note_on_c, 2, 38, 84
4, 6048, Note_off_c, 2, 38, 0
4, 6096, Note_on_c, 2, 35, 84
4, 6144, Note_off_c, 2, 35, 0
4, 6144, Note_on_c, 2, 37, 84
4, 6240, Note_off_c, 2, 37, 0
4, 6288, Note_on_c, 2, 39, 84
4, 6336, Note_off_c, 2, 39, 0
4, 6336, Note_on_c, 2, 40, 84
4, 6432, Note_off_c, 2, 40, 0
4, 6528, Note_on_c, 2, 40, 84
4, 6624, Note_off_c, 2, 40, 0
4, 6672, Note_on_c, 2, 41, 84
4, 6720, Note_off_c, 2, 41, 0
4, 6768, Note_on_c, 2, 41, 84
4, 6816, Note_off_c, 2, 41, 0
4, 6864, Note_on_c, 2, 41, 84
4, 6912, Note_off_c, 2, 41, 0
4, 6912, Note_on_c, 2, 42, 84
4, 7008, Note_off_c, 2, 42, 0
4, 7056, Note_on_c, 2, 46, 84
4, 7104, Note_off_c, 2, 46, 0
4, 7152, Note_on_c, 2, 46, 84
4, 7200, Note_off_c, 2, 46, 0
4, 7248, Note_on_c, 2, 46, 84
4, 7296, Note_off_c, 2, 46, 0
4, 7296, Note_on_c, 2, 47, 84
4, 7392, Note_off_c, 2, 47, 0
4, 7440, Note_on_c, 2, 47, 84
4, 7488, Note_off_c, 2, 47, 0
4, 7536, Note_on_c, 2, 47, 84
4, 7584, Note_off_c, 2, 47, 0
4, 7632, Note_on_c, 2, 45, 84
4, 7680, Note_off_c, 2, 45, 0
4, 7680, Note_on_c, 2, 43, 84
4, 7776, Note_off_c, 2, 43, 0
4, 7824, Note_on_c, 2, 44, 84
4, 7872, Note_off_c, 2, 44, 0
4, 7920, Note_on_c, 2, 44, 84
4, 7968, Note_off_c, 2, 44, 0
4, 8016, Note_on_c, 2, 44, 84
4, 8064, Note_off_c, 2, 44, 0
4, 8064, Note_on_c, 2, 45, 84
4, 8160, Note_off_c, 2, 45, 0
4, 8208, Note_on_c, 2, 39, 84
4, 8256, Note_off_c, 2, 39, 0
4, 8304, Note_on_c, 2, 39, 84
4, 8352, Note_off_c, 2, 39, 0
4, 8400, Note_on_c, 2, 39, 84
4, 8448, Note_off_c, 2, 39, 0
4, 8448, Note_on_c, 2, 40, 84
4, 8544, Note_off_c, 2, 40, 0
4, 8544, Note_on_c, 2, 40, 84
4, 8568, Note_off_c, 2, 40, 0
4, 8568, Note_on_c, 2, 43, 84
4, 8592, Note_off_c, 2, 43, 0
4, 8592, Note_on_c, 2, 42, 84
4, 8616, Note_off_c, 2, 42, 0
4, 8616, Note_on_c, 2, 45, 84
4, 8640, Note_off_c, 2, 45, 0
4, 8640, Note_on_c, 2, 43, 84
4, 8664, Note_off_c, 2, 43, 0
4, 8664, Note_on_c, 2, 47, 84
4, 8688, Note_off_c, 2, 47, 0
4, 8688, Note_on_c, 2, 45, 84
4, 8712, Note_off_c, 2, 45, 0
4, 8712, Note_on_c, 2, 48, 84
4, 8736, Note_off_c, 2, 48, 0
4, 8736, Note_on_c, 2, 47, 84
4, 8772, Note_off_c, 2, 47, 0
4, 8784, Note_on_c, 2, 35, 84
4, 8832, Note_off_c, 2, 35, 0
4, 8832, Note_on_c, 2, 40, 84
4, 8928, Note_off_c, 2, 40, 0
4, 8976, Note_on_c, 2, 32, 84
4, 9024, Note_off_c, 2, 32, 0
4, 9072, Note_on_c, 2, 32, 84
4, 9120, Note_off_c, 2, 32, 0
4, 9168, Note_on_c, 2, 32, 84
4, 9216, Note_off_c, 2, 32, 0
4, 9216, Note_on_c, 2, 33, 84
4, 9312, Note_off_c, 2, 33, 0
4, 9312, Note_on_c, 2, 33, 84
4, 9336, Note_off_c, 2, 33, 0
4, 9336, Note_on_c, 2, 36, 84
4, 9360, Note_off_c, 2, 36, 0
4, 9360, Note_on_c, 2, 35, 84
4, 9384, Note_off_c, 2, 35, 0
4, 9384, Note_on_c, 2, 38, 84
4, 9408, Note_off_c, 2, 38, 0
4, 9408, Note_on_c, 2, 36, 84
4, 9432, Note_off_c, 2, 36, 0
4, 9432, Note_on_c, 2, 40, 84
4, 9456, Note_off_c, 2, 40, 0
4, 9456, Note_on_c, 2, 38, 84
4, 9480, Note_off_c, 2, 38, 0
4, 9480, Note_on_c, 2, 41, 84
4, 9504, Note_off_c, 2, 41, 0
4, 9504, Note_on_c, 2, 40, 84
4, 9540, Note_off_c, 2, 40, 0
4, 9552, Note_on_c, 2, 28, 84
4, 9600, Note_off_c, 2, 28, 0
4, 9600, Note_on_c, 2, 33, 84
4, 9696, Note_off_c, 2, 33, 0
4, 9744, Note_on_c, 2, 39, 84
4, 9792, Note_off_c, 2, 39, 0
4, 9840, Note_on_c, 2, 39, 84
4, 9888, Note_off_c, 2, 39, 0
4, 9936, Note_on_c, 2, 39, 84
4, 9984, Note_off_c, 2, 39, 0
4, 9984, Note_on_c, 2, 40, 84
4, 10080, Note_off_c, 2, 40, 0
4, 10080, Note_on_c, 2, 40, 84
4, 10104, Note_off_c, 2, 40, 0
4, 10104, Note_on_c, 2, 43, 84
4, 10128, Note_off_c, 2, 43, 0
4, 10128, Note_on_c, 2, 42, 84
4, 10152, Note_off_c, 2, 42, 0
4, 10152, Note_on_c, 2, 45, 84
4, 10176, Note_off_c, 2, 45, 0
4, 10176, Note_on_c, 2, 43, 84
4, 10200, Note_off_c, 2, 43, 0
4, 10200, Note_on_c, 2, 47, 84
4, 10224, Note_off_c, 2, 47, 0
4, 10224, Note_on_c, 2, 45, 84
4, 10248, Note_off_c, 2, 45, 0
4, 10248, Note_on_c, 2, 48, 84
4, 10272, Note_off_c, 2, 48, 0
4, 10272, Note_on_c, 2, 47, 84
4, 10308, Note_off_c, 2, 47, 0
4, 10320, Note_on_c, 2, 35, 84
4, 10368, Note_off_c, 2, 35, 0
4, 10368, Note_on_c, 2, 36, 84
4, 10464, Note_off_c, 2, 36, 0
4, 10560, Note_on_c, 2, 37, 84
4, 10656, Note_off_c, 2, 37, 0
4, 10704, Note_on_c, 2, 42, 84
4, 10752, Note_off_c, 2, 42, 0
4, 10752, Note_on_c, 2, 35, 84
4, 10848, Note_off_c, 2, 35, 0
4, 10848, Note_on_c, 2, 47, 84
4, 10872, Note_off_c, 2, 47, 0
4, 10872, Note_on_c, 2, 48, 84
4, 10896, Note_off_c, 2, 48, 0
4, 10896, Note_on_c, 2, 45, 84
4, 10920, Note_off_c, 2, 45, 0
4, 10920, Note_on_c, 2, 47, 84
4, 10944, Note_off_c, 2, 47, 0
4, 10944, Note_on_c, 2, 44, 84
4, 10968, Note_off_c, 2, 44, 0
4, 10968, Note_on_c, 2, 45, 84
4, 10992, Note_off_c, 2, 45, 0
4, 10992, Note_on_c, 2, 42, 84
4, 11016, Note_off_c, 2, 42, 0
4, 11016, Note_on_c, 2, 45, 84
4, 11040, Note_off_c, 2, 45, 0
4, 11040, Note_on_c, 2, 44, 84
4, 11076, Note_off_c, 2, 44, 0
4, 11088, Note_on_c, 2, 40, 84
4, 11136, Note_off_c, 2, 40, 0
4, 11136, Note_on_c, 2, 45, 84
4, 11232, Note_off_c, 2, 45, 0
4, 11280, Note_on_c, 2, 33, 84
4, 11328, Note_off_c, 2, 33, 0
4, 11328, Note_on_c, 2, 35, 84
4, 11424, Note_off_c, 2, 35, 0
4, 11472, Note_on_c, 2, 35, 84
4, 11520, Note_off_c, 2, 35, 0
4, 11520, Note_on_c, 2, 40, 84
4, 11616, Note_off_c, 2, 40, 0
4, 11616, Note_on_c, 2, 28, 84
4, 11640, Note_off_c, 2, 28, 0
4, 11640, Note_on_c, 2, 43, 84
4, 11664, Note_off_c, 2, 43, 0
4, 11664, Note_on_c, 2, 30, 84
4, 11688, Note_off_c, 2, 30, 0
4, 11688, Note_on_c, 2, 45, 84
4, 11712, Note_off_c, 2, 45, 0
4, 11712, Note_on_c, 2, 31, 84
4, 11736, Note_off_c, 2, 31, 0
4, 11736, Note_on_c, 2, 47, 84
4, 11760, Note_off_c, 2, 47, 0
4, 11760, Note_on_c, 2, 33, 84
4, 11784, Note_off_c, 2, 33, 0
4, 11784, Note_on_c, 2, 48, 84
4, 11808, Note_off_c, 2, 48, 0
4, 11808, Note_on_c, 2, 35, 84
4, 11844, Note_off_c, 2, 35, 0
4, 11856, Note_on_c, 2, 47, 84
4, 11904, Note_off_c, 2, 47, 0
4, 11904, Note_on_c, 2, 40, 84
4, 12000, Note_off_c, 2, 40, 0
4, 12000, Note_on_c, 2, 28, 84
4, 12096, Note_off_c, 2, 28, 0
4, 12096, Note_on_c, 2, 28, 84
4, 12288, Note_off_c, 2, 28, 0
4, 17136, Note_on_c, 2, 42, 84
4, 17172, Note_off_c, 2, 42, 0
4, 17184, Note_on_c, 2, 42, 84
4, 17196, Note_off_c, 2, 42, 0
4, 17196, Note_on_c, 2, 41, 84
4, 17208, Note_off_c, 2, 41, 0
4, 17208, Note_on_c, 2, 42, 84
4, 17280, Note_off_c, 2, 42, 0
4, 17328, Note_on_c, 2, 42, 84
4, 17364, Note_off_c, 2, 42, 0
4, 17376, Note_on_c, 2, 42, 84
4, 17388, Note_off_c, 2, 42, 0
4, 17388, Note_on_c, 2, 41, 84
4, 17400, Note_off_c, 2, 41, 0
4, 17400, Note_on_c, 2, 42, 84
4, 17472, Note_off_c, 2, 42, 0
4, 17520, Note_on_c, 2, 42, 84
4, 17568, Note_off_c, 2, 42, 0
4, 17568, Note_on_c, 2, 35, 84
4, 17616, Note_off_c, 2, 35, 0
4, 17616, Note_on_c, 2, 37, 84
4, 17664, Note_off_c, 2, 37, 0
4, 17664, Note_on_c, 2, 38, 84
4, 17712, Note_off_c, 2, 38, 0
4, 17712, Note_on_c, 2, 42, 84
4, 17760, Note_off_c, 2, 42, 0
4, 17760, Note_on_c, 2, 35, 84
4, 17808, Note_off_c, 2, 35, 0
4, 17808, Note_on_c, 2, 37, 84
4, 17856, Note_off_c, 2, 37, 0
4, 17856, Note_on_c, 2, 38, 84
4, 17904, Note_off_c, 2, 38, 0
4, 17904, Note_on_c, 2, 40, 84
4, 17952, Note_off_c, 2, 40, 0
4, 17952, Note_on_c, 2, 42, 84
4, 18000, Note_off_c, 2, 42, 0
4, 18000, Note_on_c, 2, 30, 84
4, 18048, Note_off_c, 2, 30, 0
4, 18048, Note_on_c, 2, 35, 84
4, 18144, Note_off_c, 2, 35, 0
4, 19728, Note_on_c, 2, 45, 84
4, 19776, Note_off_c, 2, 45, 0
4, 19776, Note_on_c, 2, 43, 84
4, 19872, Note_off_c, 2, 43, 0
4, 19920, Note_on_c, 2, 39, 84
4, 19968, Note_off_c, 2, 39, 0
4, 19968, Note_on_c, 2, 40, 84
4, 20064, Note_off_c, 2, 40, 0
4, 20112, Note_on_c, 2, 39, 84
4, 20160, Note_off_c, 2, 39, 0
4, 20160, Note_on_c, 2, 40, 84
4, 20256, Note_off_c, 2, 40, 0
4, 20304, Note_on_c, 2, 35, 84
4, 20352, Note_off_c, 2, 35, 0
4, 20352, Note_on_c, 2, 40, 84
4, 20448, Note_off_c, 2, 40, 0
4, 20496, Note_on_c, 2, 40, 84
4, 20544, Note_off_c, 2, 40, 0
4, 20544, Note_on_c, 2, 42, 84
4, 20592, Note_off_c, 2, 42, 0
4, 20592, Note_on_c, 2, 43, 84
4, 20640, Note_off_c, 2, 43, 0
4, 20640, Note_on_c, 2, 38, 84
4, 20736, Note_off_c, 2, 38, 0
4, 20736, Note_on_c, 2, 40, 84
4, 20784, Note_off_c, 2, 40, 0
4, 20784, Note_on_c, 2, 38, 84
4, 20832, Note_off_c, 2, 38, 0
4, 20832, Note_on_c, 2, 36, 84
4, 20880, Note_off_c, 2, 36, 0
4, 20880, Note_on_c, 2, 35, 84
4, 20928, Note_off_c, 2, 35, 0
4, 20928, Note_on_c, 2, 33, 84
4, 21024, Note_off_c, 2, 33, 0
4, 21024, Note_on_c, 2, 35, 84
4, 21072, Note_off_c, 2, 35, 0
4, 21072, Note_on_c, 2, 33, 84
4, 21120, Note_off_c, 2, 33, 0
4, 21120, Note_on_c, 2, 31, 84
4, 21192, Note_off_c, 2, 31, 0
4, 21192, Note_on_c, 2, 32, 84
4, 21216, Note_off_c, 2, 32, 0
4, 21216, Note_on_c, 2, 33, 84
4, 21312, Note_off_c, 2, 33, 0
4, 21312, Note_on_c, 2, 35, 84
4, 21504, Note_off_c, 2, 35, 0
4, 21504, Note_on_c, 2, 40, 84
4, 21600, Note_off_c, 2, 40, 0
4, 21648, Note_on_c, 2, 40, 84
4, 21696, Note_off_c, 2, 40, 0
4, 21696, Note_on_c, 2, 45, 84
4, 21792, Note_off_c, 2, 45, 0
4, 21840, Note_on_c, 2, 47, 84
4, 21888, Note_off_c, 2, 47, 0
4, 21888, Note_on_c, 2, 48, 84
4, 21984, Note_off_c, 2, 48, 0
4, 22032, Note_on_c, 2, 49, 84
4, 22080, Note_off_c, 2, 49, 0
4, 22080, Note_on_c, 2, 47, 84
4, 22176, Note_off_c, 2, 47, 0
4, 22224, Note_on_c, 2, 46, 84
4, 22272, Note_off_c, 2, 46, 0
4, 22272, Note_on_c, 2, 47, 84
4, 22368, Note_off_c, 2, 47, 0
4, 22416, Note_on_c, 2, 42, 84
4, 22464, Note_off_c, 2, 42, 0
4, 22464, Note_on_c, 2, 47, 84
4, 22512, Note_off_c, 2, 47, 0
4, 22512, Note_on_c, 2, 45, 84
4, 22560, Note_off_c, 2, 45, 0
4, 22560, Note_on_c, 2, 43, 84
4, 22656, Note_off_c, 2, 43, 0
4, 22656, Note_on_c, 2, 42, 84
4, 22848, Note_off_c, 2, 42, 0
4, 22848, Note_on_c, 2, 35, 84
4, 22944, Note_off_c, 2, 35, 0
4, 25200, Note_on_c, 2, 35, 84
4, 25248, Note_off_c, 2, 35, 0
4, 25248, Note_on_c, 2, 35, 84
4, 25260, Note_off_c, 2, 35, 0
4, 25260, Note_on_c, 2, 34, 84
4, 25272, Note_off_c, 2, 34, 0
4, 25272, Note_on_c, 2, 35, 84
4, 25344, Note_off_c, 2, 35, 0
4, 25392, Note_on_c, 2, 35, 84
4, 25440, Note_off_c, 2, 35, 0
4, 25440, Note_on_c, 2, 35, 84
4, 25452, Note_off_c, 2, 35, 0
4, 25452, Note_on_c, 2, 34, 84
4, 25464, Note_off_c, 2, 34, 0
4, 25464, Note_on_c, 2, 35, 84
4, 25536, Note_off_c, 2, 35, 0
4, 25584, Note_on_c, 2, 35, 84
4, 25632, Note_off_c, 2, 35, 0
4, 25632, Note_on_c, 2, 28, 84
4, 25680, Note_off_c, 2, 28, 0
4, 25680, Note_on_c, 2, 30, 84
4, 25728, Note_off_c, 2, 30, 0
4, 25728, Note_on_c, 2, 31, 84
4, 25776, Note_off_c, 2, 31, 0
4, 25776, Note_on_c, 2, 35, 84
4, 25824, Note_off_c, 2, 35, 0
4, 25824, Note_on_c, 2, 28, 84
4, 25872, Note_off_c, 2, 28, 0
4, 25872, Note_on_c, 2, 30, 84
4, 25920, Note_off_c, 2, 30, 0
4, 25920, Note_on_c, 2, 31, 84
4, 25968, Note_off_c, 2, 31, 0
4, 25968, Note_on_c, 2, 33, 84
4, 26016, Note_off_c, 2, 33, 0
4, 26016, Note_on_c, 2, 35, 84
4, 26112, Note_off_c, 2, 35, 0
4, 26112, Note_on_c, 2, 28, 84
4, 26304, Note_off_c, 2, 28, 0
4, 26304, End_track
0, 0, End_of_file
