0, 0, Header, 1, 4, 96
1, 0, Start_track
1, 0, Time_signature, 4, 2, 24, 8
1, 0, Title_t, "untitled"
1, 0, Title_t, "Track1"
1, 0, Control_c, 0, 0, 0
1, 0, Control_c, 0, 32, 0
1, 0, Program_c, 0, 105
1, 0, Control_c, 0, 7, 100
1, 0, Control_c, 0, 10, 64
1, 0, Tempo, 967741
1, 8640, Tempo, 1000000
1, 8736, Tempo, 1090909
1, 8784, Tempo, 1132075
1, 8832, Tempo, 1016949
1, 9216, Tempo, 967741
1, 17760, Tempo, 1071428
1, 17952, Tempo, 967741
1, 19764, Tempo, 1132075
1, 19968, Tempo, 1500000
1, 20352, Tempo, 967741
1, 63264, Tempo, 1016949
1, 63552, Tempo, 1132075
1, 63696, Tempo, 1304347
1, 63768, Tempo, 1428571
1, 63840, Tempo, 1666666
1, 64128, Tempo, 1250000
1, 64128, End_track
2, 0, Start_track
2, 0, Title_t, "Track2"
2, 0, Program_c, 0, 19
2, 0, Control_c, 0, 7, 100
2, 0, Control_c, 0, 10, 64
2, 0, Control_c, 0, 91, 127
2, 24, Note_on_c, 0, 69, 127
2, 48, Note_off_c, 0, 69, 0
2, 48, Note_on_c, 0, 72, 127
2, 72, Note_off_c, 0, 72, 0
2, 72, Note_on_c, 0, 69, 127
2, 96, Note_off_c, 0, 69, 0
2, 96, Note_on_c, 0, 76, 127
2, 120, Note_off_c, 0, 76, 0
2, 120, Note_on_c, 0, 69, 127
2, 144, Note_off_c, 0, 69, 0
2, 144, Note_on_c, 0, 72, 127
2, 168, Note_off_c, 0, 72, 0
2, 168, Note_on_c, 0, 69, 127
2, 192, Note_off_c, 0, 69, 0
2, 192, Note_on_c, 0, 77, 127
2, 216, Note_off_c, 0, 77, 0
2, 216, Note_on_c, 0, 68, 127
2, 240, Note_off_c, 0, 68, 0
2, 240, Note_on_c, 0, 71, 127
2, 264, Note_off_c, 0, 71, 0
2, 264, Note_on_c, 0, 68, 127
2, 288, Note_off_c, 0, 68, 0
2, 288, Note_on_c, 0, 76, 127
2, 312, Note_off_c, 0, 76, 0
2, 312, Note_on_c, 0, 67, 127
2, 336, Note_off_c, 0, 67, 0
2, 336, Note_on_c, 0, 71, 127
2, 360, Note_off_c, 0, 71, 0
2, 360, Note_on_c, 0, 67, 127
2, 384, Note_off_c, 0, 67, 0
2, 384, Note_on_c, 0, 76, 127
2, 408, Note_off_c, 0, 76, 0
2, 408, Note_on_c, 0, 66, 127
2, 432, Note_off_c, 0, 66, 0
2, 432, Note_on_c, 0, 69, 127
2, 456, Note_off_c, 0, 69, 0
2, 456, Note_on_c, 0, 66, 127
2, 480, Note_off_c, 0, 66, 0
2, 480, Note_on_c, 0, 74, 127
2, 504, Note_off_c, 0, 74, 0
2, 504, Note_on_c, 0, 65, 127
2, 528, Note_off_c, 0, 65, 0
2, 528, Note_on_c, 0, 69, 127
2, 552, Note_off_c, 0, 69, 0
2, 552, Note_on_c, 0, 65, 127
2, 576, Note_off_c, 0, 65, 0
2, 576, Note_on_c, 0, 74, 127
2, 600, Note_off_c, 0, 74, 0
2, 600, Note_on_c, 0, 64, 127
2, 624, Note_off_c, 0, 64, 0
2, 624, Note_on_c, 0, 68, 127
2, 648, Note_off_c, 0, 68, 0
2, 648, Note_on_c, 0, 64, 127
2, 672, Note_off_c, 0, 64, 0
2, 672, Note_on_c, 0, 72, 127
2, 696, Note_off_c, 0, 72, 0
2, 696, Note_on_c, 0, 64, 127
2, 720, Note_off_c, 0, 64, 0
2, 720, Note_on_c, 0, 67, 127
2, 744, Note_off_c, 0, 67, 0
2, 744, Note_on_c, 0, 64, 127
2, 768, Note_off_c, 0, 64, 0
2, 768, Note_on_c, 0, 72, 127
2, 792, Note_off_c, 0, 72, 0
2, 792, Note_on_c, 0, 63, 127
2, 816, Note_off_c, 0, 63, 0
2, 816, Note_on_c, 0, 66, 127
2, 840, Note_off_c, 0, 66, 0
2, 840, Note_on_c, 0, 63, 127
2, 864, Note_off_c, 0, 63, 0
2, 864, Note_on_c, 0, 71, 127
2, 888, Note_off_c, 0, 71, 0
2, 888, Note_on_c, 0, 62, 127
2, 912, Note_off_c, 0, 62, 0
2, 912, Note_on_c, 0, 65, 127
2, 936, Note_off_c, 0, 65, 0
2, 936, Note_on_c, 0, 62, 127
2, 960, Note_off_c, 0, 62, 0
2, 960, Note_on_c, 0, 71, 127
2, 984, Note_off_c, 0, 71, 0
2, 984, Note_on_c, 0, 61, 127
2, 1008, Note_off_c, 0, 61, 0
2, 1008, Note_on_c, 0, 64, 127
2, 1032, Note_off_c, 0, 64, 0
2, 1032, Note_on_c, 0, 61, 127
2, 1056, Note_off_c, 0, 61, 0
2, 1056, Note_on_c, 0, 69, 127
2, 1080, Note_off_c, 0, 69, 0
2, 1080, Note_on_c, 0, 60, 127
2, 1104, Note_off_c, 0, 60, 0
2, 1104, Note_on_c, 0, 64, 127
2, 1128, Note_off_c, 0, 64, 0
2, 1128, Note_on_c, 0, 60, 127
2, 1152, Note_off_c, 0, 60, 0
2, 1152, Note_on_c, 0, 69, 127
2, 1176, Note_off_c, 0, 69, 0
2, 1176, Note_on_c, 0, 59, 127
2, 1200, Note_off_c, 0, 59, 0
2, 1200, Note_on_c, 0, 62, 127
2, 1224, Note_off_c, 0, 62, 0
2, 1224, Note_on_c, 0, 59, 127
2, 1248, Note_off_c, 0, 59, 0
2, 1248, Note_on_c, 0, 68, 127
2, 1272, Note_off_c, 0, 68, 0
2, 1272, Note_on_c, 0, 59, 127
2, 1296, Note_off_c, 0, 59, 0
2, 1296, Note_on_c, 0, 62, 127
2, 1320, Note_off_c, 0, 62, 0
2, 1320, Note_on_c, 0, 59, 127
2, 1344, Note_off_c, 0, 59, 0
2, 1344, Note_on_c, 0, 67, 127
2, 1362, Note_off_c, 0, 67, 0
2, 1362, Note_on_c, 0, 61, 127
2, 1374, Note_off_c, 0, 61, 0
2, 1374, Note_on_c, 0, 62, 127
2, 1392, Note_off_c, 0, 62, 0
2, 1392, Note_on_c, 0, 64, 127
2, 1410, Note_off_c, 0, 64, 0
2, 1410, Note_on_c, 0, 65, 127
2, 1422, Note_off_c, 0, 65, 0
2, 1422, Note_on_c, 0, 67, 127
2, 1440, Note_off_c, 0, 67, 0
2, 1440, Note_on_c, 0, 65, 127
2, 1458, Note_off_c, 0, 65, 0
2, 1458, Note_on_c, 0, 64, 127
2, 1470, Note_off_c, 0, 64, 0
2, 1470, Note_on_c, 0, 62, 127
2, 1488, Note_off_c, 0, 62, 0
2, 1488, Note_on_c, 0, 61, 127
2, 1506, Note_off_c, 0, 61, 0
2, 1506, Note_on_c, 0, 59, 127
2, 1518, Note_off_c, 0, 59, 0
2, 1518, Note_on_c, 0, 57, 127
2, 1536, Note_off_c, 0, 57, 0
2, 1536, Note_on_c, 0, 62, 127
2, 1554, Note_off_c, 0, 62, 0
2, 1554, Note_on_c, 0, 64, 127
2, 1566, Note_off_c, 0, 64, 0
2, 1566, Note_on_c, 0, 65, 127
2, 1584, Note_off_c, 0, 65, 0
2, 1584, Note_on_c, 0, 64, 127
2, 1602, Note_off_c, 0, 64, 0
2, 1602, Note_on_c, 0, 62, 127
2, 1614, Note_off_c, 0, 62, 0
2, 1614, Note_on_c, 0, 60, 127
2, 1632, Note_off_c, 0, 60, 0
2, 1632, Note_on_c, 0, 59, 127
2, 1650, Note_off_c, 0, 59, 0
2, 1650, Note_on_c, 0, 60, 127
2, 1662, Note_off_c, 0, 60, 0
2, 1662, Note_on_c, 0, 62, 127
2, 1680, Note_off_c, 0, 62, 0
2, 1680, Note_on_c, 0, 60, 127
2, 1698, Note_off_c, 0, 60, 0
2, 1698, Note_on_c, 0, 59, 127
2, 1710, Note_off_c, 0, 59, 0
2, 1710, Note_on_c, 0, 57, 127
2, 1728, Note_off_c, 0, 57, 0
2, 1728, Note_on_c, 0, 56, 127
2, 1746, Note_off_c, 0, 56, 0
2, 1746, Note_on_c, 0, 57, 127
2, 1758, Note_off_c, 0, 57, 0
2, 1758, Note_on_c, 0, 59, 127
2, 1776, Note_off_c, 0, 59, 0
2, 1776, Note_on_c, 0, 52, 127
2, 1794, Note_off_c, 0, 52, 0
2, 1794, Note_on_c, 0, 56, 127
2, 1806, Note_off_c, 0, 56, 0
2, 1806, Note_on_c, 0, 59, 127
2, 1824, Note_off_c, 0, 59, 0
2, 1824, Note_on_c, 0, 62, 127
2, 1842, Note_off_c, 0, 62, 0
2, 1842, Note_on_c, 0, 60, 127
2, 1854, Note_off_c, 0, 60, 0
2, 1854, Note_on_c, 0, 59, 127
2, 1872, Note_off_c, 0, 59, 0
2, 1872, Note_on_c, 0, 65, 127
2, 1890, Note_off_c, 0, 65, 0
2, 1890, Note_on_c, 0, 64, 127
2, 1902, Note_off_c, 0, 64, 0
2, 1902, Note_on_c, 0, 62, 127
2, 1920, Note_off_c, 0, 62, 0
2, 1920, Note_on_c, 0, 60, 127
2, 1938, Note_off_c, 0, 60, 0
2, 1938, Note_on_c, 0, 57, 127
2, 1950, Note_off_c, 0, 57, 0
2, 1950, Note_on_c, 0, 59, 127
2, 1968, Note_off_c, 0, 59, 0
2, 1968, Note_on_c, 0, 60, 127
2, 1986, Note_off_c, 0, 60, 0
2, 1986, Note_on_c, 0, 62, 127
2, 1998, Note_off_c, 0, 62, 0
2, 1998, Note_on_c, 0, 64, 127
2, 2016, Note_off_c, 0, 64, 0
2, 2016, Note_on_c, 0, 65, 127
2, 2034, Note_off_c, 0, 65, 0
2, 2034, Note_on_c, 0, 64, 127
2, 2046, Note_off_c, 0, 64, 0
2, 2046, Note_on_c, 0, 62, 127
2, 2064, Note_off_c, 0, 62, 0
2, 2064, Note_on_c, 0, 60, 127
2, 2082, Note_off_c, 0, 60, 0
2, 2082, Note_on_c, 0, 59, 127
2, 2094, Note_off_c, 0, 59, 0
2, 2094, Note_on_c, 0, 57, 127
2, 2112, Note_off_c, 0, 57, 0
2, 2112, Note_on_c, 0, 56, 127
2, 2136, Note_off_c, 0, 56, 0
2, 2136, Note_on_c, 0, 65, 127
2, 2160, Note_off_c, 0, 65, 0
2, 2160, Note_on_c, 0, 59, 127
2, 2184, Note_off_c, 0, 59, 0
2, 2184, Note_on_c, 0, 65, 127
2, 2208, Note_off_c, 0, 65, 0
2, 2208, Note_on_c, 0, 55, 127
2, 2232, Note_off_c, 0, 55, 0
2, 2232, Note_on_c, 0, 64, 127
2, 2256, Note_off_c, 0, 64, 0
2, 2256, Note_on_c, 0, 59, 127
2, 2280, Note_off_c, 0, 59, 0
2, 2280, Note_on_c, 0, 64, 127
2, 2304, Note_off_c, 0, 64, 0
2, 2304, Note_on_c, 0, 54, 127
2, 2328, Note_off_c, 0, 54, 0
2, 2328, Note_on_c, 0, 64, 127
2, 2352, Note_off_c, 0, 64, 0
2, 2352, Note_on_c, 0, 57, 127
2, 2376, Note_off_c, 0, 57, 0
2, 2376, Note_on_c, 0, 64, 127
2, 2400, Note_off_c, 0, 64, 0
2, 2400, Note_on_c, 0, 53, 127
2, 2424, Note_off_c, 0, 53, 0
2, 2424, Note_on_c, 0, 62, 127
2, 2448, Note_off_c, 0, 62, 0
2, 2448, Note_on_c, 0, 57, 127
2, 2472, Note_off_c, 0, 57, 0
2, 2472, Note_on_c, 0, 62, 127
2, 2496, Note_off_c, 0, 62, 0
2, 2496, Note_on_c, 0, 52, 127
2, 2520, Note_off_c, 0, 52, 0
2, 2520, Note_on_c, 0, 62, 127
2, 2544, Note_off_c, 0, 62, 0
2, 2544, Note_on_c, 0, 56, 127
2, 2568, Note_off_c, 0, 56, 0
2, 2568, Note_on_c, 0, 62, 127
2, 2592, Note_off_c, 0, 62, 0
2, 2592, Note_on_c, 0, 52, 127
2, 2616, Note_off_c, 0, 52, 0
2, 2616, Note_on_c, 0, 60, 127
2, 2640, Note_off_c, 0, 60, 0
2, 2640, Note_on_c, 0, 55, 127
2, 2664, Note_off_c, 0, 55, 0
2, 2664, Note_on_c, 0, 60, 127
2, 2688, Note_off_c, 0, 60, 0
2, 2688, Note_on_c, 0, 51, 127
2, 2712, Note_off_c, 0, 51, 0
2, 2712, Note_on_c, 0, 60, 127
2, 2736, Note_off_c, 0, 60, 0
2, 2736, Note_on_c, 0, 54, 127
2, 2760, Note_off_c, 0, 54, 0
2, 2760, Note_on_c, 0, 60, 127
2, 2784, Note_off_c, 0, 60, 0
2, 2784, Note_on_c, 0, 50, 127
2, 2808, Note_off_c, 0, 50, 0
2, 2808, Note_on_c, 0, 59, 127
2, 2832, Note_off_c, 0, 59, 0
2, 2832, Note_on_c, 0, 53, 127
2, 2856, Note_off_c, 0, 53, 0
2, 2856, Note_on_c, 0, 59, 127
2, 2880, Note_off_c, 0, 59, 0
2, 2880, Note_on_c, 0, 49, 127
2, 2904, Note_off_c, 0, 49, 0
2, 2904, Note_on_c, 0, 59, 127
2, 2928, Note_off_c, 0, 59, 0
2, 2928, Note_on_c, 0, 52, 127
2, 2952, Note_off_c, 0, 52, 0
2, 2952, Note_on_c, 0, 59, 127
2, 2976, Note_off_c, 0, 59, 0
2, 2976, Note_on_c, 0, 48, 127
2, 3000, Note_off_c, 0, 48, 0
2, 3000, Note_on_c, 0, 57, 127
2, 3024, Note_off_c, 0, 57, 0
2, 3024, Note_on_c, 0, 52, 127
2, 3048, Note_off_c, 0, 52, 0
2, 3048, Note_on_c, 0, 57, 127
2, 3072, Note_off_c, 0, 57, 0
2, 3072, Note_on_c, 0, 47, 127
2, 3096, Note_off_c, 0, 47, 0
2, 3096, Note_on_c, 0, 57, 127
2, 3120, Note_off_c, 0, 57, 0
2, 3120, Note_on_c, 0, 50, 127
2, 3144, Note_off_c, 0, 50, 0
2, 3144, Note_on_c, 0, 57, 127
2, 3168, Note_off_c, 0, 57, 0
2, 3168, Note_on_c, 0, 47, 127
2, 3192, Note_off_c, 0, 47, 0
2, 3192, Note_on_c, 0, 56, 127
2, 3216, Note_off_c, 0, 56, 0
2, 3216, Note_on_c, 0, 50, 127
2, 3240, Note_off_c, 0, 50, 0
2, 3240, Note_on_c, 0, 56, 127
2, 3264, Note_off_c, 0, 56, 0
2, 3264, Note_on_c, 0, 45, 127
2, 3282, Note_off_c, 0, 45, 0
2, 3282, Note_on_c, 0, 48, 127
2, 3294, Note_off_c, 0, 48, 0
2, 3294, Note_on_c, 0, 52, 127
2, 3312, Note_off_c, 0, 52, 0
2, 3312, Note_on_c, 0, 59, 127
2, 3330, Note_off_c, 0, 59, 0
2, 3330, Note_on_c, 0, 56, 127
2, 3342, Note_off_c, 0, 56, 0
2, 3342, Note_on_c, 0, 57, 127
2, 3360, Note_off_c, 0, 57, 0
2, 3360, Note_on_c, 0, 47, 127
2, 3378, Note_off_c, 0, 47, 0
2, 3378, Note_on_c, 0, 50, 127
2, 3390, Note_off_c, 0, 50, 0
2, 3390, Note_on_c, 0, 52, 127
2, 3408, Note_off_c, 0, 52, 0
2, 3408, Note_on_c, 0, 59, 127
2, 3426, Note_off_c, 0, 59, 0
2, 3426, Note_on_c, 0, 56, 127
2, 3438, Note_off_c, 0, 56, 0
2, 3438, Note_on_c, 0, 57, 127
2, 3456, Note_off_c, 0, 57, 0
2, 3456, Note_on_c, 0, 48, 127
2, 3474, Note_off_c, 0, 48, 0
2, 3474, Note_on_c, 0, 52, 127
2, 3486, Note_off_c, 0, 52, 0
2, 3486, Note_on_c, 0, 57, 127
2, 3504, Note_off_c, 0, 57, 0
2, 3504, Note_on_c, 0, 59, 127
2, 3522, Note_off_c, 0, 59, 0
2, 3522, Note_on_c, 0, 56, 127
2, 3534, Note_off_c, 0, 56, 0
2, 3534, Note_on_c, 0, 57, 127
2, 3552, Note_off_c, 0, 57, 0
2, 3552, Note_on_c, 0, 50, 127
2, 3570, Note_off_c, 0, 50, 0
2, 3570, Note_on_c, 0, 53, 127
2, 3582, Note_off_c, 0, 53, 0
2, 3582, Note_on_c, 0, 57, 127
2, 3600, Note_off_c, 0, 57, 0
2, 3600, Note_on_c, 0, 59, 127
2, 3618, Note_off_c, 0, 59, 0
2, 3618, Note_on_c, 0, 56, 127
2, 3630, Note_off_c, 0, 56, 0
2, 3630, Note_on_c, 0, 57, 127
2, 3648, Note_off_c, 0, 57, 0
2, 3648, Note_on_c, 0, 52, 127
2, 3666, Note_off_c, 0, 52, 0
2, 3666, Note_on_c, 0, 57, 127
2, 3678, Note_off_c, 0, 57, 0
2, 3678, Note_on_c, 0, 60, 127
2, 3696, Note_off_c, 0, 60, 0
2, 3696, Note_on_c, 0, 59, 127
2, 3714, Note_off_c, 0, 59, 0
2, 3714, Note_on_c, 0, 56, 127
2, 3726, Note_off_c, 0, 56, 0
2, 3726, Note_on_c, 0, 57, 127
2, 3744, Note_off_c, 0, 57, 0
2, 3744, Note_on_c, 0, 53, 127
2, 3762, Note_off_c, 0, 53, 0
2, 3762, Note_on_c, 0, 57, 127
2, 3774, Note_off_c, 0, 57, 0
2, 3774, Note_on_c, 0, 62, 127
2, 3792, Note_off_c, 0, 62, 0
2, 3792, Note_on_c, 0, 59, 127
2, 3810, Note_off_c, 0, 59, 0
2, 3810, Note_on_c, 0, 56, 127
2, 3822, Note_off_c, 0, 56, 0
2, 3822, Note_on_c, 0, 57, 127
2, 3840, Note_off_c, 0, 57, 0
2, 3840, Note_on_c, 0, 52, 127
2, 3930, Note_off_c, 0, 52, 0
2, 3936, Note_on_c, 0, 53, 127
2, 4026, Note_off_c, 0, 53, 0
2, 4032, Note_on_c, 0, 52, 127
2, 4122, Note_off_c, 0, 52, 0
2, 4128, Note_on_c, 0, 50, 127
2, 4218, Note_off_c, 0, 50, 0
2, 4224, Note_on_c, 0, 52, 127
2, 4242, Note_off_c, 0, 52, 0
2, 4242, Note_on_c, 0, 57, 127
2, 4254, Note_off_c, 0, 57, 0
2, 4254, Note_on_c, 0, 60, 127
2, 4272, Note_off_c, 0, 60, 0
2, 4272, Note_on_c, 0, 64, 127
2, 4290, Note_off_c, 0, 64, 0
2, 4290, Note_on_c, 0, 56, 127
2, 4302, Note_off_c, 0, 56, 0
2, 4302, Note_on_c, 0, 57, 127
2, 4320, Note_off_c, 0, 57, 0
2, 4320, Note_on_c, 0, 53, 127
2, 4338, Note_off_c, 0, 53, 0
2, 4338, Note_on_c, 0, 57, 127
2, 4350, Note_off_c, 0, 57, 0
2, 4350, Note_on_c, 0, 62, 127
2, 4368, Note_off_c, 0, 62, 0
2, 4368, Note_on_c, 0, 64, 127
2, 4386, Note_off_c, 0, 64, 0
2, 4386, Note_on_c, 0, 56, 127
2, 4398, Note_off_c, 0, 56, 0
2, 4398, Note_on_c, 0, 57, 127
2, 4416, Note_off_c, 0, 57, 0
2, 4416, Note_on_c, 0, 52, 127
2, 4434, Note_off_c, 0, 52, 0
2, 4434, Note_on_c, 0, 57, 127
2, 4446, Note_off_c, 0, 57, 0
2, 4446, Note_on_c, 0, 60, 127
2, 4464, Note_off_c, 0, 60, 0
2, 4464, Note_on_c, 0, 64, 127
2, 4482, Note_off_c, 0, 64, 0
2, 4482, Note_on_c, 0, 56, 127
2, 4494, Note_off_c, 0, 56, 0
2, 4494, Note_on_c, 0, 57, 127
2, 4512, Note_off_c, 0, 57, 0
2, 4512, Note_on_c, 0, 50, 127
2, 4530, Note_off_c, 0, 50, 0
2, 4530, Note_on_c, 0, 56, 127
2, 4542, Note_off_c, 0, 56, 0
2, 4542, Note_on_c, 0, 59, 127
2, 4560, Note_off_c, 0, 59, 0
2, 4560, Note_on_c, 0, 64, 127
2, 4578, Note_off_c, 0, 64, 0
2, 4578, Note_on_c, 0, 56, 127
2, 4590, Note_off_c, 0, 56, 0
2, 4590, Note_on_c, 0, 57, 127
2, 4608, Note_off_c, 0, 57, 0
2, 4608, Note_on_c, 0, 48, 127
2, 4698, Note_off_c, 0, 48, 0
2, 4704, Note_on_c, 0, 50, 127
2, 4794, Note_off_c, 0, 50, 0
2, 4800, Note_on_c, 0, 48, 127
2, 4890, Note_off_c, 0, 48, 0
2, 4896, Note_on_c, 0, 47, 127
2, 4986, Note_off_c, 0, 47, 0
2, 4992, Note_on_c, 0, 45, 127
2, 5010, Note_off_c, 0, 45, 0
2, 5010, Note_on_c, 0, 52, 127
2, 5022, Note_off_c, 0, 52, 0
2, 5022, Note_on_c, 0, 57, 127
2, 5040, Note_off_c, 0, 57, 0
2, 5040, Note_on_c, 0, 60, 127
2, 5058, Note_off_c, 0, 60, 0
2, 5058, Note_on_c, 0, 56, 127
2, 5070, Note_off_c, 0, 56, 0
2, 5070, Note_on_c, 0, 57, 127
2, 5088, Note_off_c, 0, 57, 0
2, 5088, Note_on_c, 0, 47, 127
2, 5106, Note_off_c, 0, 47, 0
2, 5106, Note_on_c, 0, 52, 127
2, 5118, Note_off_c, 0, 52, 0
2, 5118, Note_on_c, 0, 57, 127
2, 5136, Note_off_c, 0, 57, 0
2, 5136, Note_on_c, 0, 62, 127
2, 5154, Note_off_c, 0, 62, 0
2, 5154, Note_on_c, 0, 56, 127
2, 5166, Note_off_c, 0, 56, 0
2, 5166, Note_on_c, 0, 57, 127
2, 5184, Note_off_c, 0, 57, 0
2, 5184, Note_on_c, 0, 48, 127
2, 5202, Note_off_c, 0, 48, 0
2, 5202, Note_on_c, 0, 52, 127
2, 5214, Note_off_c, 0, 52, 0
2, 5214, Note_on_c, 0, 57, 127
2, 5232, Note_off_c, 0, 57, 0
2, 5232, Note_on_c, 0, 64, 127
2, 5250, Note_off_c, 0, 64, 0
2, 5250, Note_on_c, 0, 56, 127
2, 5262, Note_off_c, 0, 56, 0
2, 5262, Note_on_c, 0, 57, 127
2, 5280, Note_off_c, 0, 57, 0
2, 5280, Note_on_c, 0, 49, 127
2, 5298, Note_off_c, 0, 49, 0
2, 5298, Note_on_c, 0, 52, 127
2, 5310, Note_off_c, 0, 52, 0
2, 5310, Note_on_c, 0, 55, 127
2, 5328, Note_off_c, 0, 55, 0
2, 5328, Note_on_c, 0, 64, 127
2, 5346, Note_off_c, 0, 64, 0
2, 5346, Note_on_c, 0, 56, 127
2, 5358, Note_off_c, 0, 56, 0
2, 5358, Note_on_c, 0, 57, 127
2, 5376, Note_off_c, 0, 57, 0
2, 5376, Note_on_c, 0, 50, 127
2, 5466, Note_off_c, 0, 50, 0
2, 5472, Note_on_c, 0, 49, 127
2, 5562, Note_off_c, 0, 49, 0
2, 5568, Note_on_c, 0, 50, 127
2, 5658, Note_off_c, 0, 50, 0
2, 5664, Note_on_c, 0, 52, 127
2, 5754, Note_off_c, 0, 52, 0
2, 5760, Note_on_c, 0, 53, 127
2, 5778, Note_off_c, 0, 53, 0
2, 5778, Note_on_c, 0, 57, 127
2, 5790, Note_off_c, 0, 57, 0
2, 5790, Note_on_c, 0, 62, 127
2, 5808, Note_off_c, 0, 62, 0
2, 5808, Note_on_c, 0, 64, 127
2, 5826, Note_off_c, 0, 64, 0
2, 5826, Note_on_c, 0, 61, 127
2, 5838, Note_off_c, 0, 61, 0
2, 5838, Note_on_c, 0, 62, 127
2, 5856, Note_off_c, 0, 62, 0
2, 5856, Note_on_c, 0, 55, 127
2, 5874, Note_off_c, 0, 55, 0
2, 5874, Note_on_c, 0, 58, 127
2, 5886, Note_off_c, 0, 58, 0
2, 5886, Note_on_c, 0, 62, 127
2, 5904, Note_off_c, 0, 62, 0
2, 5904, Note_on_c, 0, 64, 127
2, 5922, Note_off_c, 0, 64, 0
2, 5922, Note_on_c, 0, 61, 127
2, 5934, Note_off_c, 0, 61, 0
2, 5934, Note_on_c, 0, 62, 127
2, 5952, Note_off_c, 0, 62, 0
2, 5952, Note_on_c, 0, 57, 127
2, 5970, Note_off_c, 0, 57, 0
2, 5970, Note_on_c, 0, 62, 127
2, 5982, Note_off_c, 0, 62, 0
2, 5982, Note_on_c, 0, 65, 127
2, 6000, Note_off_c, 0, 65, 0
2, 6000, Note_on_c, 0, 64, 127
2, 6018, Note_off_c, 0, 64, 0
2, 6018, Note_on_c, 0, 61, 127
2, 6030, Note_off_c, 0, 61, 0
2, 6030, Note_on_c, 0, 62, 127
2, 6048, Note_off_c, 0, 62, 0
2, 6048, Note_on_c, 0, 58, 127
2, 6066, Note_off_c, 0, 58, 0
2, 6066, Note_on_c, 0, 62, 127
2, 6078, Note_off_c, 0, 62, 0
2, 6078, Note_on_c, 0, 67, 127
2, 6096, Note_off_c, 0, 67, 0
2, 6096, Note_on_c, 0, 64, 127
2, 6114, Note_off_c, 0, 64, 0
2, 6114, Note_on_c, 0, 61, 127
2, 6126, Note_off_c, 0, 61, 0
2, 6126, Note_on_c, 0, 62, 127
2, 6144, Note_off_c, 0, 62, 0
2, 6144, Note_on_c, 0, 57, 127
2, 6234, Note_off_c, 0, 57, 0
2, 6240, Note_on_c, 0, 58, 127
2, 6330, Note_off_c, 0, 58, 0
2, 6336, Note_on_c, 0, 57, 127
2, 6426, Note_off_c, 0, 57, 0
2, 6432, Note_on_c, 0, 55, 127
2, 6522, Note_off_c, 0, 55, 0
2, 6528, Note_on_c, 0, 57, 127
2, 6546, Note_off_c, 0, 57, 0
2, 6546, Note_on_c, 0, 62, 127
2, 6558, Note_off_c, 0, 62, 0
2, 6558, Note_on_c, 0, 65, 127
2, 6576, Note_off_c, 0, 65, 0
2, 6576, Note_on_c, 0, 69, 127
2, 6594, Note_off_c, 0, 69, 0
2, 6594, Note_on_c, 0, 61, 127
2, 6606, Note_off_c, 0, 61, 0
2, 6606, Note_on_c, 0, 62, 127
2, 6624, Note_off_c, 0, 62, 0
2, 6624, Note_on_c, 0, 58, 127
2, 6642, Note_off_c, 0, 58, 0
2, 6642, Note_on_c, 0, 61, 127
2, 6654, Note_off_c, 0, 61, 0
2, 6654, Note_on_c, 0, 62, 127
2, 6672, Note_off_c, 0, 62, 0
2, 6672, Note_on_c, 0, 67, 127
2, 6690, Note_off_c, 0, 67, 0
2, 6690, Note_on_c, 0, 61, 127
2, 6702, Note_off_c, 0, 61, 0
2, 6702, Note_on_c, 0, 62, 127
2, 6720, Note_off_c, 0, 62, 0
2, 6720, Note_on_c, 0, 57, 127
2, 6738, Note_off_c, 0, 57, 0
2, 6738, Note_on_c, 0, 62, 127
2, 6750, Note_off_c, 0, 62, 0
2, 6750, Note_on_c, 0, 65, 127
2, 6768, Note_off_c, 0, 65, 0
2, 6768, Note_on_c, 0, 69, 127
2, 6786, Note_off_c, 0, 69, 0
2, 6786, Note_on_c, 0, 61, 127
2, 6798, Note_off_c, 0, 61, 0
2, 6798, Note_on_c, 0, 62, 127
2, 6816, Note_off_c, 0, 62, 0
2, 6816, Note_on_c, 0, 55, 127
2, 6834, Note_off_c, 0, 55, 0
2, 6834, Note_on_c, 0, 61, 127
2, 6846, Note_off_c, 0, 61, 0
2, 6846, Note_on_c, 0, 64, 127
2, 6864, Note_off_c, 0, 64, 0
2, 6864, Note_on_c, 0, 69, 127
2, 6882, Note_off_c, 0, 69, 0
2, 6882, Note_on_c, 0, 61, 127
2, 6894, Note_off_c, 0, 61, 0
2, 6894, Note_on_c, 0, 62, 127
2, 6912, Note_off_c, 0, 62, 0
2, 6912, Note_on_c, 0, 53, 127
2, 7002, Note_off_c, 0, 53, 0
2, 7008, Note_on_c, 0, 55, 127
2, 7098, Note_off_c, 0, 55, 0
2, 7104, Note_on_c, 0, 53, 127
2, 7194, Note_off_c, 0, 53, 0
2, 7200, Note_on_c, 0, 52, 127
2, 7290, Note_off_c, 0, 52, 0
2, 7296, Note_on_c, 0, 50, 127
2, 7314, Note_off_c, 0, 50, 0
2, 7314, Note_on_c, 0, 57, 127
2, 7326, Note_off_c, 0, 57, 0
2, 7326, Note_on_c, 0, 62, 127
2, 7344, Note_off_c, 0, 62, 0
2, 7344, Note_on_c, 0, 65, 127
2, 7362, Note_off_c, 0, 65, 0
2, 7362, Note_on_c, 0, 61, 127
2, 7374, Note_off_c, 0, 61, 0
2, 7374, Note_on_c, 0, 62, 127
2, 7392, Note_off_c, 0, 62, 0
2, 7392, Note_on_c, 0, 52, 127
2, 7410, Note_off_c, 0, 52, 0
2, 7410, Note_on_c, 0, 55, 127
2, 7422, Note_off_c, 0, 55, 0
2, 7422, Note_on_c, 0, 58, 127
2, 7440, Note_off_c, 0, 58, 0
2, 7440, Note_on_c, 0, 67, 127
2, 7458, Note_off_c, 0, 67, 0
2, 7458, Note_on_c, 0, 61, 127
2, 7470, Note_off_c, 0, 61, 0
2, 7470, Note_on_c, 0, 62, 127
2, 7488, Note_off_c, 0, 62, 0
2, 7488, Note_on_c, 0, 54, 127
2, 7506, Note_off_c, 0, 54, 0
2, 7506, Note_on_c, 0, 57, 127
2, 7518, Note_off_c, 0, 57, 0
2, 7518, Note_on_c, 0, 61, 127
2, 7536, Note_off_c, 0, 61, 0
2, 7536, Note_on_c, 0, 69, 127
2, 7554, Note_off_c, 0, 69, 0
2, 7554, Note_on_c, 0, 61, 127
2, 7566, Note_off_c, 0, 61, 0
2, 7566, Note_on_c, 0, 62, 127
2, 7584, Note_off_c, 0, 62, 0
2, 7584, Note_on_c, 0, 56, 127
2, 7602, Note_off_c, 0, 56, 0
2, 7602, Note_on_c, 0, 59, 127
2, 7614, Note_off_c, 0, 59, 0
2, 7614, Note_on_c, 0, 62, 127
2, 7632, Note_off_c, 0, 62, 0
2, 7632, Note_on_c, 0, 71, 127
2, 7650, Note_off_c, 0, 71, 0
2, 7650, Note_on_c, 0, 61, 127
2, 7662, Note_off_c, 0, 61, 0
2, 7662, Note_on_c, 0, 62, 127
2, 7680, Note_off_c, 0, 62, 0
2, 7680, Note_on_c, 0, 57, 127
2, 7770, Note_off_c, 0, 57, 0
2, 7776, Note_on_c, 0, 56, 127
2, 7866, Note_off_c, 0, 56, 0
2, 7872, Note_on_c, 0, 57, 127
2, 7962, Note_off_c, 0, 57, 0
2, 7968, Note_on_c, 0, 59, 127
2, 8058, Note_off_c, 0, 59, 0
2, 8064, Note_on_c, 0, 60, 127
2, 8076, Note_off_c, 0, 60, 0
2, 8076, Note_on_c, 0, 64, 127
2, 8088, Note_off_c, 0, 64, 0
2, 8088, Note_on_c, 0, 66, 127
2, 8100, Note_off_c, 0, 66, 0
2, 8100, Note_on_c, 0, 68, 127
2, 8112, Note_off_c, 0, 68, 0
2, 8112, Note_on_c, 0, 69, 127
2, 8124, Note_off_c, 0, 69, 0
2, 8124, Note_on_c, 0, 71, 127
2, 8136, Note_off_c, 0, 71, 0
2, 8136, Note_on_c, 0, 72, 127
2, 8148, Note_off_c, 0, 72, 0
2, 8148, Note_on_c, 0, 74, 127
2, 8160, Note_off_c, 0, 74, 0
2, 8160, Note_on_c, 0, 76, 127
2, 8172, Note_off_c, 0, 76, 0
2, 8172, Note_on_c, 0, 77, 127
2, 8184, Note_off_c, 0, 77, 0
2, 8184, Note_on_c, 0, 76, 127
2, 8196, Note_off_c, 0, 76, 0
2, 8196, Note_on_c, 0, 74, 127
2, 8208, Note_off_c, 0, 74, 0
2, 8208, Note_on_c, 0, 72, 127
2, 8220, Note_off_c, 0, 72, 0
2, 8220, Note_on_c, 0, 71, 127
2, 8232, Note_off_c, 0, 71, 0
2, 8232, Note_on_c, 0, 69, 127
2, 8244, Note_off_c, 0, 69, 0
2, 8244, Note_on_c, 0, 68, 127
2, 8256, Note_off_c, 0, 68, 0
2, 8256, Note_on_c, 0, 69, 127
2, 8268, Note_off_c, 0, 69, 0
2, 8268, Note_on_c, 0, 71, 127
2, 8280, Note_off_c, 0, 71, 0
2, 8280, Note_on_c, 0, 72, 127
2, 8292, Note_off_c, 0, 72, 0
2, 8292, Note_on_c, 0, 74, 127
2, 8304, Note_off_c, 0, 74, 0
2, 8304, Note_on_c, 0, 76, 127
2, 8316, Note_off_c, 0, 76, 0
2, 8316, Note_on_c, 0, 78, 127
2, 8328, Note_off_c, 0, 78, 0
2, 8328, Note_on_c, 0, 80, 127
2, 8340, Note_off_c, 0, 80, 0
2, 8340, Note_on_c, 0, 81, 127
2, 8352, Note_off_c, 0, 81, 0
2, 8352, Note_on_c, 0, 83, 127
2, 8364, Note_off_c, 0, 83, 0
2, 8364, Note_on_c, 0, 77, 127
2, 8376, Note_off_c, 0, 77, 0
2, 8376, Note_on_c, 0, 76, 127
2, 8388, Note_off_c, 0, 76, 0
2, 8388, Note_on_c, 0, 74, 127
2, 8400, Note_off_c, 0, 74, 0
2, 8400, Note_on_c, 0, 68, 127
2, 8412, Note_off_c, 0, 68, 0
2, 8412, Note_on_c, 0, 71, 127
2, 8424, Note_off_c, 0, 71, 0
2, 8424, Note_on_c, 0, 72, 127
2, 8436, Note_off_c, 0, 72, 0
2, 8436, Note_on_c, 0, 74, 127
2, 8448, Note_off_c, 0, 74, 0
2, 8448, Note_on_c, 0, 64, 127
2, 8460, Note_off_c, 0, 64, 0
2, 8460, Note_on_c, 0, 62, 127
2, 8472, Note_off_c, 0, 62, 0
2, 8472, Note_on_c, 0, 64, 127
2, 8484, Note_off_c, 0, 64, 0
2, 8484, Note_on_c, 0, 66, 127
2, 8496, Note_off_c, 0, 66, 0
2, 8496, Note_on_c, 0, 68, 127
2, 8508, Note_off_c, 0, 68, 0
2, 8508, Note_on_c, 0, 69, 127
2, 8520, Note_off_c, 0, 69, 0
2, 8520, Note_on_c, 0, 71, 127
2, 8532, Note_off_c, 0, 71, 0
2, 8532, Note_on_c, 0, 72, 127
2, 8544, Note_off_c, 0, 72, 0
2, 8544, Note_on_c, 0, 74, 127
2, 8556, Note_off_c, 0, 74, 0
2, 8556, Note_on_c, 0, 71, 127
2, 8568, Note_off_c, 0, 71, 0
2, 8568, Note_on_c, 0, 69, 127
2, 8580, Note_off_c, 0, 69, 0
2, 8580, Note_on_c, 0, 68, 127
2, 8592, Note_off_c, 0, 68, 0
2, 8592, Note_on_c, 0, 59, 127
2, 8604, Note_off_c, 0, 59, 0
2, 8604, Note_on_c, 0, 62, 127
2, 8616, Note_off_c, 0, 62, 0
2, 8616, Note_on_c, 0, 64, 127
2, 8628, Note_off_c, 0, 64, 0
2, 8628, Note_on_c, 0, 65, 127
2, 8640, Note_off_c, 0, 65, 0
2, 8640, Note_on_c, 0, 74, 127
2, 8652, Note_off_c, 0, 74, 0
2, 8652, Note_on_c, 0, 76, 127
2, 8664, Note_off_c, 0, 76, 0
2, 8664, Note_on_c, 0, 74, 127
2, 8676, Note_off_c, 0, 74, 0
2, 8676, Note_on_c, 0, 76, 127
2, 8688, Note_off_c, 0, 76, 0
2, 8688, Note_on_c, 0, 74, 127
2, 8700, Note_off_c, 0, 74, 0
2, 8700, Note_on_c, 0, 76, 127
2, 8712, Note_off_c, 0, 76, 0
2, 8712, Note_on_c, 0, 74, 127
2, 8724, Note_off_c, 0, 74, 0
2, 8724, Note_on_c, 0, 56, 127
2, 8736, Note_off_c, 0, 56, 0
2, 8736, Note_on_c, 0, 74, 127
2, 8748, Note_off_c, 0, 74, 0
2, 8748, Note_on_c, 0, 76, 127
2, 8760, Note_off_c, 0, 76, 0
2, 8760, Note_on_c, 0, 74, 127
2, 8772, Note_off_c, 0, 74, 0
2, 8772, Note_on_c, 0, 76, 127
2, 8784, Note_off_c, 0, 76, 0
2, 8784, Note_on_c, 0, 74, 127
2, 8796, Note_off_c, 0, 74, 0
2, 8796, Note_on_c, 0, 76, 127
2, 8808, Note_off_c, 0, 76, 0
2, 8808, Note_on_c, 0, 65, 110
2, 8820, Note_off_c, 0, 65, 0
2, 8820, Note_on_c, 0, 56, 110
2, 8832, Note_off_c, 0, 56, 0
2, 8832, Note_on_c, 0, 64, 127
2, 9216, Note_off_c, 0, 64, 0
2, 9216, Note_on_c, 0, 71, 127
2, 9312, Note_off_c, 0, 71, 0
2, 9312, Note_on_c, 0, 71, 127
2, 9336, Note_off_c, 0, 71, 0
2, 9336, Note_on_c, 0, 75, 127
2, 9360, Note_off_c, 0, 75, 0
2, 9360, Note_on_c, 0, 76, 127
2, 9408, Note_off_c, 0, 76, 0
2, 9408, Note_on_c, 0, 64, 127
2, 9456, Note_off_c, 0, 64, 0
2, 10680, Note_on_c, 0, 76, 127
2, 10704, Note_off_c, 0, 76, 0
2, 10704, Note_on_c, 0, 77, 127
2, 10728, Note_off_c, 0, 77, 0
2, 10728, Note_on_c, 0, 73, 127
2, 10752, Note_off_c, 0, 73, 0
2, 10752, Note_on_c, 0, 74, 127
2, 11136, Note_off_c, 0, 74, 0
2, 11160, Note_on_c, 0, 59, 127
2, 11184, Note_off_c, 0, 59, 0
2, 11184, Note_on_c, 0, 64, 127
2, 11208, Note_off_c, 0, 64, 0
2, 11208, Note_on_c, 0, 59, 127
2, 11232, Note_off_c, 0, 59, 0
2, 11232, Note_on_c, 0, 68, 127
2, 11256, Note_off_c, 0, 68, 0
2, 11256, Note_on_c, 0, 64, 127
2, 11280, Note_off_c, 0, 64, 0
2, 11280, Note_on_c, 0, 71, 127
2, 11304, Note_off_c, 0, 71, 0
2, 11304, Note_on_c, 0, 68, 127
2, 11328, Note_off_c, 0, 68, 0
2, 11328, Note_on_c, 0, 74, 127
2, 11352, Note_off_c, 0, 74, 0
2, 11352, Note_on_c, 0, 71, 127
2, 11376, Note_off_c, 0, 71, 0
2, 11376, Note_on_c, 0, 77, 127
2, 11400, Note_off_c, 0, 77, 0
2, 11400, Note_on_c, 0, 74, 127
2, 11424, Note_off_c, 0, 74, 0
2, 11424, Note_on_c, 0, 71, 127
2, 11448, Note_off_c, 0, 71, 0
2, 11448, Note_on_c, 0, 74, 127
2, 11472, Note_off_c, 0, 74, 0
2, 11472, Note_on_c, 0, 68, 127
2, 11496, Note_off_c, 0, 68, 0
2, 11496, Note_on_c, 0, 71, 127
2, 11520, Note_off_c, 0, 71, 0
2, 11520, Note_on_c, 0, 62, 127
2, 11544, Note_off_c, 0, 62, 0
2, 11544, Note_on_c, 0, 68, 127
2, 11568, Note_off_c, 0, 68, 0
2, 11568, Note_on_c, 0, 59, 127
2, 11592, Note_off_c, 0, 59, 0
2, 11592, Note_on_c, 0, 62, 127
2, 11616, Note_off_c, 0, 62, 0
2, 11616, Note_on_c, 0, 56, 127
2, 11640, Note_off_c, 0, 56, 0
2, 11640, Note_on_c, 0, 59, 127
2, 11664, Note_off_c, 0, 59, 0
2, 11664, Note_on_c, 0, 52, 127
2, 11688, Note_off_c, 0, 52, 0
2, 11688, Note_on_c, 0, 62, 127
2, 11712, Note_off_c, 0, 62, 0
2, 11712, Note_on_c, 0, 60, 127
2, 11736, Note_off_c, 0, 60, 0
2, 11736, Note_on_c, 0, 62, 127
2, 11760, Note_off_c, 0, 62, 0
2, 11760, Note_on_c, 0, 60, 127
2, 11784, Note_off_c, 0, 60, 0
2, 11784, Note_on_c, 0, 59, 127
2, 11808, Note_off_c, 0, 59, 0
2, 11808, Note_on_c, 0, 60, 127
2, 11832, Note_off_c, 0, 60, 0
2, 11832, Note_on_c, 0, 64, 127
2, 11856, Note_off_c, 0, 64, 0
2, 11856, Note_on_c, 0, 69, 127
2, 11880, Note_off_c, 0, 69, 0
2, 11880, Note_on_c, 0, 68, 127
2, 11904, Note_off_c, 0, 68, 0
2, 11904, Note_on_c, 0, 60, 127
2, 11952, Note_off_c, 0, 60, 0
2, 11952, Note_on_c, 0, 72, 127
2, 11976, Note_off_c, 0, 72, 0
2, 11976, Note_on_c, 0, 71, 127
2, 12000, Note_off_c, 0, 71, 0
2, 12000, Note_on_c, 0, 72, 127
2, 12024, Note_off_c, 0, 72, 0
2, 12024, Note_on_c, 0, 76, 127
2, 12048, Note_off_c, 0, 76, 0
2, 12048, Note_on_c, 0, 65, 127
2, 12096, Note_off_c, 0, 65, 0
2, 12096, Note_on_c, 0, 81, 127
2, 12336, Note_off_c, 0, 81, 0
2, 12336, Note_on_c, 0, 81, 127
2, 12384, Note_off_c, 0, 81, 0
2, 12384, Note_on_c, 0, 69, 127
2, 12396, Note_off_c, 0, 69, 0
2, 12396, Note_on_c, 0, 72, 127
2, 12408, Note_off_c, 0, 72, 0
2, 12408, Note_on_c, 0, 71, 127
2, 12420, Note_off_c, 0, 71, 0
2, 12420, Note_on_c, 0, 72, 127
2, 12432, Note_off_c, 0, 72, 0
2, 12432, Note_on_c, 0, 66, 127
2, 12444, Note_off_c, 0, 66, 0
2, 12444, Note_on_c, 0, 69, 127
2, 12456, Note_off_c, 0, 69, 0
2, 12456, Note_on_c, 0, 67, 127
2, 12468, Note_off_c, 0, 67, 0
2, 12468, Note_on_c, 0, 69, 127
2, 12480, Note_off_c, 0, 69, 0
2, 12480, Note_on_c, 0, 62, 127
2, 12492, Note_off_c, 0, 62, 0
2, 12492, Note_on_c, 0, 69, 127
2, 12504, Note_off_c, 0, 69, 0
2, 12504, Note_on_c, 0, 67, 127
2, 12516, Note_off_c, 0, 67, 0
2, 12516, Note_on_c, 0, 69, 127
2, 12528, Note_off_c, 0, 69, 0
2, 12528, Note_on_c, 0, 72, 127
2, 12540, Note_off_c, 0, 72, 0
2, 12540, Note_on_c, 0, 69, 127
2, 12552, Note_off_c, 0, 69, 0
2, 12552, Note_on_c, 0, 67, 127
2, 12564, Note_off_c, 0, 67, 0
2, 12564, Note_on_c, 0, 69, 127
2, 12576, Note_off_c, 0, 69, 0
2, 12576, Note_on_c, 0, 66, 127
2, 12588, Note_off_c, 0, 66, 0
2, 12588, Note_on_c, 0, 69, 127
2, 12600, Note_off_c, 0, 69, 0
2, 12600, Note_on_c, 0, 67, 127
2, 12612, Note_off_c, 0, 67, 0
2, 12612, Note_on_c, 0, 69, 127
2, 12624, Note_off_c, 0, 69, 0
2, 12624, Note_on_c, 0, 62, 127
2, 12636, Note_off_c, 0, 62, 0
2, 12636, Note_on_c, 0, 66, 127
2, 12648, Note_off_c, 0, 66, 0
2, 12648, Note_on_c, 0, 64, 127
2, 12660, Note_off_c, 0, 64, 0
2, 12660, Note_on_c, 0, 66, 127
2, 12672, Note_off_c, 0, 66, 0
2, 12672, Note_on_c, 0, 57, 127
2, 12684, Note_off_c, 0, 57, 0
2, 12684, Note_on_c, 0, 60, 127
2, 12696, Note_off_c, 0, 60, 0
2, 12696, Note_on_c, 0, 59, 127
2, 12708, Note_off_c, 0, 59, 0
2, 12708, Note_on_c, 0, 60, 127
2, 12720, Note_off_c, 0, 60, 0
2, 12720, Note_on_c, 0, 63, 127
2, 12732, Note_off_c, 0, 63, 0
2, 12732, Note_on_c, 0, 60, 127
2, 12744, Note_off_c, 0, 60, 0
2, 12744, Note_on_c, 0, 59, 127
2, 12756, Note_off_c, 0, 59, 0
2, 12756, Note_on_c, 0, 60, 127
2, 12768, Note_off_c, 0, 60, 0
2, 12768, Note_on_c, 0, 57, 127
2, 12780, Note_off_c, 0, 57, 0
2, 12780, Note_on_c, 0, 60, 127
2, 12792, Note_off_c, 0, 60, 0
2, 12792, Note_on_c, 0, 59, 127
2, 12804, Note_off_c, 0, 59, 0
2, 12804, Note_on_c, 0, 60, 127
2, 12816, Note_off_c, 0, 60, 0
2, 12816, Note_on_c, 0, 54, 127
2, 12828, Note_off_c, 0, 54, 0
2, 12828, Note_on_c, 0, 57, 127
2, 12840, Note_off_c, 0, 57, 0
2, 12840, Note_on_c, 0, 55, 127
2, 12852, Note_off_c, 0, 55, 0
2, 12852, Note_on_c, 0, 57, 127
2, 12864, Note_off_c, 0, 57, 0
2, 12864, Note_on_c, 0, 50, 127
2, 12876, Note_off_c, 0, 50, 0
2, 12876, Note_on_c, 0, 54, 127
2, 12888, Note_off_c, 0, 54, 0
2, 12888, Note_on_c, 0, 57, 127
2, 12900, Note_off_c, 0, 57, 0
2, 12900, Note_on_c, 0, 60, 127
2, 12912, Note_off_c, 0, 60, 0
2, 12912, Note_on_c, 0, 63, 127
2, 12924, Note_off_c, 0, 63, 0
2, 12924, Note_on_c, 0, 62, 127
2, 12936, Note_off_c, 0, 62, 0
2, 12936, Note_on_c, 0, 60, 127
2, 12948, Note_off_c, 0, 60, 0
2, 12948, Note_on_c, 0, 59, 127
2, 12960, Note_off_c, 0, 59, 0
2, 12960, Note_on_c, 0, 57, 127
2, 12972, Note_off_c, 0, 57, 0
2, 12972, Note_on_c, 0, 55, 127
2, 12984, Note_off_c, 0, 55, 0
2, 12984, Note_on_c, 0, 54, 127
2, 12996, Note_off_c, 0, 54, 0
2, 12996, Note_on_c, 0, 52, 127
2, 13008, Note_off_c, 0, 52, 0
2, 13008, Note_on_c, 0, 50, 127
2, 13020, Note_off_c, 0, 50, 0
2, 13020, Note_on_c, 0, 48, 127
2, 13032, Note_off_c, 0, 48, 0
2, 13032, Note_on_c, 0, 47, 127
2, 13044, Note_off_c, 0, 47, 0
2, 13044, Note_on_c, 0, 45, 127
2, 13056, Note_off_c, 0, 45, 0
2, 13056, Note_on_c, 0, 47, 127
2, 13068, Note_off_c, 0, 47, 0
2, 13068, Note_on_c, 0, 50, 127
2, 13080, Note_off_c, 0, 50, 0
2, 13080, Note_on_c, 0, 52, 127
2, 13092, Note_off_c, 0, 52, 0
2, 13092, Note_on_c, 0, 54, 127
2, 13104, Note_off_c, 0, 54, 0
2, 13104, Note_on_c, 0, 55, 127
2, 13116, Note_off_c, 0, 55, 0
2, 13116, Note_on_c, 0, 57, 127
2, 13128, Note_off_c, 0, 57, 0
2, 13128, Note_on_c, 0, 59, 127
2, 13140, Note_off_c, 0, 59, 0
2, 13140, Note_on_c, 0, 60, 127
2, 13152, Note_off_c, 0, 60, 0
2, 13152, Note_on_c, 0, 59, 127
2, 13164, Note_off_c, 0, 59, 0
2, 13164, Note_on_c, 0, 55, 127
2, 13176, Note_off_c, 0, 55, 0
2, 13176, Note_on_c, 0, 57, 127
2, 13188, Note_off_c, 0, 57, 0
2, 13188, Note_on_c, 0, 59, 127
2, 13200, Note_off_c, 0, 59, 0
2, 13200, Note_on_c, 0, 60, 127
2, 13212, Note_off_c, 0, 60, 0
2, 13212, Note_on_c, 0, 62, 127
2, 13224, Note_off_c, 0, 62, 0
2, 13224, Note_on_c, 0, 64, 127
2, 13236, Note_off_c, 0, 64, 0
2, 13236, Note_on_c, 0, 66, 127
2, 13248, Note_off_c, 0, 66, 0
2, 13248, Note_on_c, 0, 67, 127
2, 13260, Note_off_c, 0, 67, 0
2, 13260, Note_on_c, 0, 55, 127
2, 13272, Note_off_c, 0, 55, 0
2, 13272, Note_on_c, 0, 59, 127
2, 13284, Note_off_c, 0, 59, 0
2, 13284, Note_on_c, 0, 62, 127
2, 13296, Note_off_c, 0, 62, 0
2, 13296, Note_on_c, 0, 67, 127
2, 13308, Note_off_c, 0, 67, 0
2, 13308, Note_on_c, 0, 71, 127
2, 13320, Note_off_c, 0, 71, 0
2, 13320, Note_on_c, 0, 74, 127
2, 13332, Note_off_c, 0, 74, 0
2, 13332, Note_on_c, 0, 71, 127
2, 13344, Note_off_c, 0, 71, 0
2, 13344, Note_on_c, 0, 79, 127
2, 13392, Note_off_c, 0, 79, 0
2, 13464, Note_on_c, 0, 72, 127
2, 13488, Note_off_c, 0, 72, 0
2, 13488, Note_on_c, 0, 76, 127
2, 13512, Note_off_c, 0, 76, 0
2, 13512, Note_on_c, 0, 72, 127
2, 13536, Note_off_c, 0, 72, 0
2, 13536, Note_on_c, 0, 79, 127
2, 13560, Note_off_c, 0, 79, 0
2, 13560, Note_on_c, 0, 67, 127
2, 13584, Note_off_c, 0, 67, 0
2, 13584, Note_on_c, 0, 72, 127
2, 13608, Note_off_c, 0, 72, 0
2, 13608, Note_on_c, 0, 67, 127
2, 13632, Note_off_c, 0, 67, 0
2, 13632, Note_on_c, 0, 69, 127
2, 13656, Note_off_c, 0, 69, 0
2, 13656, Note_on_c, 0, 65, 127
2, 13680, Note_off_c, 0, 65, 0
2, 13680, Note_on_c, 0, 69, 127
2, 13704, Note_off_c, 0, 69, 0
2, 13704, Note_on_c, 0, 65, 127
2, 13728, Note_off_c, 0, 65, 0
2, 13728, Note_on_c, 0, 74, 127
2, 13752, Note_off_c, 0, 74, 0
2, 13752, Note_on_c, 0, 65, 127
2, 13776, Note_off_c, 0, 65, 0
2, 13776, Note_on_c, 0, 69, 127
2, 13800, Note_off_c, 0, 69, 0
2, 13800, Note_on_c, 0, 65, 127
2, 13824, Note_off_c, 0, 65, 0
2, 13824, Note_on_c, 0, 71, 127
2, 13872, Note_off_c, 0, 71, 0
2, 13872, Note_on_c, 0, 79, 127
2, 13920, Note_off_c, 0, 79, 0
2, 13920, Note_on_c, 0, 76, 127
2, 13968, Note_off_c, 0, 76, 0
2, 13968, Note_on_c, 0, 79, 127
2, 14016, Note_off_c, 0, 79, 0
2, 14016, Note_on_c, 0, 77, 127
2, 14064, Note_off_c, 0, 77, 0
2, 14064, Note_on_c, 0, 74, 127
2, 14112, Note_off_c, 0, 74, 0
2, 14112, Note_on_c, 0, 77, 127
2, 14160, Note_off_c, 0, 77, 0
2, 14160, Note_on_c, 0, 77, 127
2, 14208, Note_off_c, 0, 77, 0
2, 14208, Note_on_c, 0, 72, 127
2, 14232, Note_off_c, 0, 72, 0
2, 14232, Note_on_c, 0, 72, 127
2, 14256, Note_off_c, 0, 72, 0
2, 14256, Note_on_c, 0, 76, 127
2, 14280, Note_off_c, 0, 76, 0
2, 14280, Note_on_c, 0, 72, 127
2, 14304, Note_off_c, 0, 72, 0
2, 14304, Note_on_c, 0, 79, 127
2, 14328, Note_off_c, 0, 79, 0
2, 14328, Note_on_c, 0, 72, 127
2, 14352, Note_off_c, 0, 72, 0
2, 14352, Note_on_c, 0, 76, 127
2, 14376, Note_off_c, 0, 76, 0
2, 14376, Note_on_c, 0, 72, 127
2, 14400, Note_off_c, 0, 72, 0
2, 14400, Note_on_c, 0, 77, 127
2, 14424, Note_off_c, 0, 77, 0
2, 14424, Note_on_c, 0, 71, 127
2, 14448, Note_off_c, 0, 71, 0
2, 14448, Note_on_c, 0, 74, 127
2, 14472, Note_off_c, 0, 74, 0
2, 14472, Note_on_c, 0, 71, 127
2, 14496, Note_off_c, 0, 71, 0
2, 14496, Note_on_c, 0, 76, 127
2, 14520, Note_off_c, 0, 76, 0
2, 14520, Note_on_c, 0, 69, 127
2, 14544, Note_off_c, 0, 69, 0
2, 14544, Note_on_c, 0, 72, 127
2, 14568, Note_off_c, 0, 72, 0
2, 14568, Note_on_c, 0, 69, 127
2, 14592, Note_off_c, 0, 69, 0
2, 14592, Note_on_c, 0, 66, 127
2, 14712, Note_off_c, 0, 66, 0
2, 14712, Note_on_c, 0, 66, 127
2, 14736, Note_off_c, 0, 66, 0
2, 14736, Note_on_c, 0, 67, 127
2, 14760, Note_off_c, 0, 67, 0
2, 14760, Note_on_c, 0, 64, 127
2, 14784, Note_off_c, 0, 64, 0
2, 14784, Note_on_c, 0, 68, 127
2, 14832, Note_off_c, 0, 68, 0
2, 14832, Note_on_c, 0, 69, 127
2, 14880, Note_off_c, 0, 69, 0
2, 14880, Note_on_c, 0, 71, 127
2, 15072, Note_off_c, 0, 71, 0
2, 15072, Note_on_c, 0, 72, 127
2, 15264, Note_off_c, 0, 72, 0
2, 15384, Note_on_c, 0, 69, 127
2, 15408, Note_off_c, 0, 69, 0
2, 15408, Note_on_c, 0, 68, 127
2, 15432, Note_off_c, 0, 68, 0
2, 15432, Note_on_c, 0, 69, 127
2, 15456, Note_off_c, 0, 69, 0
2, 15456, Note_on_c, 0, 62, 127
2, 15480, Note_off_c, 0, 62, 0
2, 15480, Note_on_c, 0, 66, 127
2, 15504, Note_off_c, 0, 66, 0
2, 15504, Note_on_c, 0, 66, 127
2, 15528, Note_off_c, 0, 66, 0
2, 15528, Note_on_c, 0, 69, 127
2, 15552, Note_off_c, 0, 69, 0
2, 15552, Note_on_c, 0, 62, 127
2, 15600, Note_off_c, 0, 62, 0
2, 15600, Note_on_c, 0, 62, 127
2, 15648, Note_off_c, 0, 62, 0
2, 15768, Note_on_c, 0, 67, 127
2, 15792, Note_off_c, 0, 67, 0
2, 15792, Note_on_c, 0, 65, 127
2, 15816, Note_off_c, 0, 65, 0
2, 15816, Note_on_c, 0, 67, 127
2, 15840, Note_off_c, 0, 67, 0
2, 15840, Note_on_c, 0, 60, 127
2, 15864, Note_off_c, 0, 60, 0
2, 15864, Note_on_c, 0, 64, 127
2, 15888, Note_off_c, 0, 64, 0
2, 15888, Note_on_c, 0, 64, 127
2, 15912, Note_off_c, 0, 64, 0
2, 15912, Note_on_c, 0, 67, 127
2, 15936, Note_off_c, 0, 67, 0
2, 15936, Note_on_c, 0, 60, 127
2, 15984, Note_off_c, 0, 60, 0
2, 15984, Note_on_c, 0, 65, 127
2, 16032, Note_off_c, 0, 65, 0
2, 16152, Note_on_c, 0, 62, 127
2, 16176, Note_off_c, 0, 62, 0
2, 16176, Note_on_c, 0, 60, 127
2, 16200, Note_off_c, 0, 60, 0
2, 16200, Note_on_c, 0, 62, 127
2, 16224, Note_off_c, 0, 62, 0
2, 16224, Note_on_c, 0, 58, 127
2, 16248, Note_off_c, 0, 58, 0
2, 16248, Note_on_c, 0, 62, 127
2, 16272, Note_off_c, 0, 62, 0
2, 16272, Note_on_c, 0, 62, 127
2, 16296, Note_off_c, 0, 62, 0
2, 16296, Note_on_c, 0, 65, 127
2, 16320, Note_off_c, 0, 65, 0
2, 16320, Note_on_c, 0, 64, 127
2, 16368, Note_off_c, 0, 64, 0
2, 16368, Note_on_c, 0, 64, 127
2, 16416, Note_off_c, 0, 64, 0
2, 16536, Note_on_c, 0, 60, 127
2, 16560, Note_off_c, 0, 60, 0
2, 16560, Note_on_c, 0, 59, 127
2, 16584, Note_off_c, 0, 59, 0
2, 16584, Note_on_c, 0, 60, 127
2, 16608, Note_off_c, 0, 60, 0
2, 16608, Note_on_c, 0, 57, 127
2, 16632, Note_off_c, 0, 57, 0
2, 16632, Note_on_c, 0, 60, 127
2, 16656, Note_off_c, 0, 60, 0
2, 16656, Note_on_c, 0, 60, 127
2, 16680, Note_off_c, 0, 60, 0
2, 16680, Note_on_c, 0, 64, 127
2, 16704, Note_off_c, 0, 64, 0
2, 16704, Note_on_c, 0, 74, 127
2, 16896, Note_off_c, 0, 74, 0
2, 16896, Note_on_c, 0, 64, 127
2, 16920, Note_off_c, 0, 64, 0
2, 16920, Note_on_c, 0, 67, 127
2, 16944, Note_off_c, 0, 67, 0
2, 16944, Note_on_c, 0, 65, 127
2, 16968, Note_off_c, 0, 65, 0
2, 16968, Note_on_c, 0, 67, 127
2, 16992, Note_off_c, 0, 67, 0
2, 16992, Note_on_c, 0, 60, 127
2, 17016, Note_off_c, 0, 60, 0
2, 17016, Note_on_c, 0, 69, 127
2, 17040, Note_off_c, 0, 69, 0
2, 17040, Note_on_c, 0, 67, 127
2, 17064, Note_off_c, 0, 67, 0
2, 17064, Note_on_c, 0, 69, 127
2, 17088, Note_off_c, 0, 69, 0
2, 17088, Note_on_c, 0, 62, 127
2, 17136, Note_off_c, 0, 62, 0
2, 17136, Note_on_c, 0, 62, 127
2, 17184, Note_off_c, 0, 62, 0
2, 17184, Note_on_c, 0, 64, 127
2, 17208, Note_off_c, 0, 64, 0
2, 17208, Note_on_c, 0, 76, 127
2, 17232, Note_off_c, 0, 76, 0
2, 17232, Note_on_c, 0, 64, 127
2, 17280, Note_off_c, 0, 64, 0
2, 17280, Note_on_c, 0, 72, 127
2, 17376, Note_off_c, 0, 72, 0
2, 17976, Note_on_c, 0, 76, 127
2, 18000, Note_off_c, 0, 76, 0
2, 18000, Note_on_c, 0, 74, 127
2, 18024, Note_off_c, 0, 74, 0
2, 18024, Note_on_c, 0, 76, 127
2, 18048, Note_off_c, 0, 76, 0
2, 18048, Note_on_c, 0, 72, 127
2, 18072, Note_off_c, 0, 72, 0
2, 18072, Note_on_c, 0, 69, 127
2, 18096, Note_off_c, 0, 69, 0
2, 18096, Note_on_c, 0, 68, 127
2, 18120, Note_off_c, 0, 68, 0
2, 18120, Note_on_c, 0, 69, 127
2, 18144, Note_off_c, 0, 69, 0
2, 18144, Note_on_c, 0, 68, 127
2, 18168, Note_off_c, 0, 68, 0
2, 18168, Note_on_c, 0, 68, 127
2, 18192, Note_off_c, 0, 68, 0
2, 18192, Note_on_c, 0, 66, 127
2, 18216, Note_off_c, 0, 66, 0
2, 18216, Note_on_c, 0, 68, 127
2, 18240, Note_off_c, 0, 68, 0
2, 18240, Note_on_c, 0, 64, 127
2, 18432, Note_off_c, 0, 64, 0
2, 18432, Note_on_c, 0, 64, 127
2, 18528, Note_off_c, 0, 64, 0
2, 18528, Note_on_c, 0, 77, 127
2, 18552, Note_off_c, 0, 77, 0
2, 18552, Note_on_c, 0, 74, 127
2, 18576, Note_off_c, 0, 74, 0
2, 18576, Note_on_c, 0, 73, 127
2, 18600, Note_off_c, 0, 73, 0
2, 18600, Note_on_c, 0, 74, 127
2, 18624, Note_off_c, 0, 74, 0
2, 18624, Note_on_c, 0, 73, 127
2, 18648, Note_off_c, 0, 73, 0
2, 18648, Note_on_c, 0, 73, 127
2, 18672, Note_off_c, 0, 73, 0
2, 18672, Note_on_c, 0, 71, 127
2, 18696, Note_off_c, 0, 71, 0
2, 18696, Note_on_c, 0, 73, 127
2, 18720, Note_off_c, 0, 73, 0
2, 18720, Note_on_c, 0, 69, 127
2, 18912, Note_off_c, 0, 69, 0
2, 18912, Note_on_c, 0, 69, 127
2, 19056, Note_off_c, 0, 69, 0
2, 19056, Note_on_c, 0, 69, 127
2, 19104, Note_off_c, 0, 69, 0
2, 19104, Note_on_c, 0, 69, 127
2, 19248, Note_off_c, 0, 69, 0
2, 19248, Note_on_c, 0, 74, 127
2, 19272, Note_off_c, 0, 74, 0
2, 19272, Note_on_c, 0, 73, 127
2, 19296, Note_off_c, 0, 73, 0
2, 19296, Note_on_c, 0, 74, 127
2, 19416, Note_off_c, 0, 74, 0
2, 19416, Note_on_c, 0, 73, 127
2, 19440, Note_off_c, 0, 73, 0
2, 19440, Note_on_c, 0, 74, 127
2, 19464, Note_off_c, 0, 74, 0
2, 19464, Note_on_c, 0, 76, 127
2, 19488, Note_off_c, 0, 76, 0
2, 19488, Note_on_c, 0, 77, 127
2, 19608, Note_off_c, 0, 77, 0
2, 19608, Note_on_c, 0, 73, 127
2, 19632, Note_off_c, 0, 73, 0
2, 19632, Note_on_c, 0, 74, 127
2, 19656, Note_off_c, 0, 74, 0
2, 19656, Note_on_c, 0, 76, 127
2, 19680, Note_off_c, 0, 76, 0
2, 19680, Note_on_c, 0, 77, 127
2, 19728, Note_off_c, 0, 77, 0
2, 19728, Note_on_c, 0, 76, 127
2, 19776, Note_off_c, 0, 76, 0
2, 19776, Note_on_c, 0, 74, 127
2, 19800, Note_off_c, 0, 74, 0
2, 19800, Note_on_c, 0, 72, 127
2, 19824, Note_off_c, 0, 72, 0
2, 19824, Note_on_c, 0, 71, 127
2, 19848, Note_off_c, 0, 71, 0
2, 19848, Note_on_c, 0, 69, 127
2, 19872, Note_off_c, 0, 69, 0
2, 19872, Note_on_c, 0, 68, 127
2, 19968, Note_off_c, 0, 68, 0
2, 19968, Note_on_c, 0, 69, 127
2, 20064, Note_off_c, 0, 69, 0
2, 20064, Note_on_c, 0, 80, 127
2, 20160, Note_off_c, 0, 80, 0
2, 20160, Note_on_c, 0, 76, 110
2, 20352, Note_off_c, 0, 76, 0
2, 20640, Note_on_c, 0, 69, 93
2, 20688, Note_off_c, 0, 69, 0
2, 20688, Note_on_c, 0, 72, 93
2, 20712, Note_off_c, 0, 72, 0
2, 20712, Note_on_c, 0, 71, 93
2, 20736, Note_off_c, 0, 71, 0
2, 20736, Note_on_c, 0, 72, 93
2, 20760, Note_off_c, 0, 72, 0
2, 20760, Note_on_c, 0, 69, 93
2, 20784, Note_off_c, 0, 69, 0
2, 20784, Note_on_c, 0, 71, 93
2, 20820, Note_off_c, 0, 71, 0
2, 20832, Note_on_c, 0, 64, 93
2, 20856, Note_off_c, 0, 64, 0
2, 20856, Note_on_c, 0, 71, 93
2, 20880, Note_off_c, 0, 71, 0
2, 20880, Note_on_c, 0, 76, 93
2, 20904, Note_off_c, 0, 76, 0
2, 20904, Note_on_c, 0, 71, 93
2, 20928, Note_off_c, 0, 71, 0
2, 20928, Note_on_c, 0, 72, 93
2, 20964, Note_off_c, 0, 72, 0
2, 20976, Note_on_c, 0, 69, 93
2, 21024, Note_off_c, 0, 69, 0
2, 21024, Note_on_c, 0, 76, 93
2, 21072, Note_off_c, 0, 76, 0
2, 21072, Note_on_c, 0, 77, 93
2, 21096, Note_off_c, 0, 77, 0
2, 21096, Note_on_c, 0, 76, 93
2, 21120, Note_off_c, 0, 76, 0
2, 21120, Note_on_c, 0, 77, 93
2, 21144, Note_off_c, 0, 77, 0
2, 21144, Note_on_c, 0, 74, 93
2, 21168, Note_off_c, 0, 74, 0
2, 21168, Note_on_c, 0, 77, 93
2, 21192, Note_off_c, 0, 77, 0
2, 21192, Note_on_c, 0, 72, 93
2, 21216, Note_off_c, 0, 72, 0
2, 21216, Note_on_c, 0, 77, 93
2, 21240, Note_off_c, 0, 77, 0
2, 21240, Note_on_c, 0, 74, 93
2, 21264, Note_off_c, 0, 74, 0
2, 21264, Note_on_c, 0, 77, 93
2, 21288, Note_off_c, 0, 77, 0
2, 21288, Note_on_c, 0, 71, 93
2, 21312, Note_off_c, 0, 71, 0
2, 21312, Note_on_c, 0, 77, 93
2, 21336, Note_off_c, 0, 77, 0
2, 21336, Note_on_c, 0, 67, 93
2, 21360, Note_off_c, 0, 67, 0
2, 21360, Note_on_c, 0, 76, 93
2, 21384, Note_off_c, 0, 76, 0
2, 21384, Note_on_c, 0, 74, 93
2, 21408, Note_off_c, 0, 74, 0
2, 21408, Note_on_c, 0, 76, 93
2, 21432, Note_off_c, 0, 76, 0
2, 21432, Note_on_c, 0, 72, 93
2, 21456, Note_off_c, 0, 72, 0
2, 21456, Note_on_c, 0, 76, 93
2, 21480, Note_off_c, 0, 76, 0
2, 21480, Note_on_c, 0, 71, 93
2, 21504, Note_off_c, 0, 71, 0
2, 21504, Note_on_c, 0, 76, 93
2, 21528, Note_off_c, 0, 76, 0
2, 21528, Note_on_c, 0, 72, 93
2, 21552, Note_off_c, 0, 72, 0
2, 21552, Note_on_c, 0, 76, 93
2, 21576, Note_off_c, 0, 76, 0
2, 21576, Note_on_c, 0, 69, 93
2, 21600, Note_off_c, 0, 69, 0
2, 21600, Note_on_c, 0, 76, 93
2, 21624, Note_off_c, 0, 76, 0
2, 21624, Note_on_c, 0, 65, 93
2, 21648, Note_off_c, 0, 65, 0
2, 21648, Note_on_c, 0, 74, 93
2, 21672, Note_off_c, 0, 74, 0
2, 21672, Note_on_c, 0, 72, 93
2, 21696, Note_off_c, 0, 72, 0
2, 21696, Note_on_c, 0, 74, 93
2, 21720, Note_off_c, 0, 74, 0
2, 21720, Note_on_c, 0, 71, 93
2, 21744, Note_off_c, 0, 71, 0
2, 21744, Note_on_c, 0, 74, 93
2, 21768, Note_off_c, 0, 74, 0
2, 21768, Note_on_c, 0, 69, 93
2, 21792, Note_off_c, 0, 69, 0
2, 21792, Note_on_c, 0, 74, 93
2, 21816, Note_off_c, 0, 74, 0
2, 21816, Note_on_c, 0, 71, 93
2, 21840, Note_off_c, 0, 71, 0
2, 21840, Note_on_c, 0, 74, 93
2, 21864, Note_off_c, 0, 74, 0
2, 21864, Note_on_c, 0, 68, 93
2, 21888, Note_off_c, 0, 68, 0
2, 21888, Note_on_c, 0, 74, 93
2, 21912, Note_off_c, 0, 74, 0
2, 21912, Note_on_c, 0, 64, 93
2, 21936, Note_off_c, 0, 64, 0
2, 21936, Note_on_c, 0, 72, 93
2, 21960, Note_off_c, 0, 72, 0
2, 21960, Note_on_c, 0, 69, 93
2, 21984, Note_off_c, 0, 69, 0
2, 21984, Note_on_c, 0, 72, 93
2, 22008, Note_off_c, 0, 72, 0
2, 22008, Note_on_c, 0, 76, 93
2, 22032, Note_off_c, 0, 76, 0
2, 22032, Note_on_c, 0, 81, 93
2, 22056, Note_off_c, 0, 81, 0
2, 22056, Note_on_c, 0, 78, 93
2, 22080, Note_off_c, 0, 78, 0
2, 22080, Note_on_c, 0, 64, 93
2, 22128, Note_off_c, 0, 64, 0
2, 22128, Note_on_c, 0, 67, 93
2, 22152, Note_off_c, 0, 67, 0
2, 22152, Note_on_c, 0, 66, 93
2, 22176, Note_off_c, 0, 66, 0
2, 22176, Note_on_c, 0, 67, 93
2, 22200, Note_off_c, 0, 67, 0
2, 22200, Note_on_c, 0, 64, 93
2, 22224, Note_off_c, 0, 64, 0
2, 22224, Note_on_c, 0, 66, 93
2, 22260, Note_off_c, 0, 66, 0
2, 22272, Note_on_c, 0, 59, 93
2, 22296, Note_off_c, 0, 59, 0
2, 22296, Note_on_c, 0, 66, 93
2, 22320, Note_off_c, 0, 66, 0
2, 22320, Note_on_c, 0, 71, 93
2, 22344, Note_off_c, 0, 71, 0
2, 22344, Note_on_c, 0, 66, 93
2, 22368, Note_off_c, 0, 66, 0
2, 22368, Note_on_c, 0, 83, 93
2, 22560, Note_off_c, 0, 83, 0
2, 22560, Note_on_c, 0, 81, 93
2, 22584, Note_off_c, 0, 81, 0
2, 22584, Note_on_c, 0, 79, 93
2, 22608, Note_off_c, 0, 79, 0
2, 22608, Note_on_c, 0, 78, 93
2, 22632, Note_off_c, 0, 78, 0
2, 22632, Note_on_c, 0, 76, 93
2, 22656, Note_off_c, 0, 76, 0
2, 22656, Note_on_c, 0, 81, 93
2, 22848, Note_off_c, 0, 81, 0
2, 22848, Note_on_c, 0, 79, 93
2, 22872, Note_off_c, 0, 79, 0
2, 22872, Note_on_c, 0, 78, 93
2, 22896, Note_off_c, 0, 78, 0
2, 22896, Note_on_c, 0, 76, 93
2, 22920, Note_off_c, 0, 76, 0
2, 22920, Note_on_c, 0, 74, 93
2, 22944, Note_off_c, 0, 74, 0
2, 22944, Note_on_c, 0, 79, 93
2, 23136, Note_off_c, 0, 79, 0
2, 23136, Note_on_c, 0, 78, 93
2, 23160, Note_off_c, 0, 78, 0
2, 23160, Note_on_c, 0, 76, 93
2, 23184, Note_off_c, 0, 76, 0
2, 23184, Note_on_c, 0, 75, 93
2, 23208, Note_off_c, 0, 75, 0
2, 23208, Note_on_c, 0, 76, 93
2, 23232, Note_off_c, 0, 76, 0
2, 23232, Note_on_c, 0, 78, 93
2, 23424, Note_off_c, 0, 78, 0
2, 23424, Note_on_c, 0, 76, 93
2, 23448, Note_off_c, 0, 76, 0
2, 23448, Note_on_c, 0, 78, 93
2, 23472, Note_off_c, 0, 78, 0
2, 23472, Note_on_c, 0, 79, 93
2, 23544, Note_off_c, 0, 79, 0
2, 23544, Note_on_c, 0, 79, 93
2, 23568, Note_off_c, 0, 79, 0
2, 23568, Note_on_c, 0, 78, 93
2, 23592, Note_off_c, 0, 78, 0
2, 23592, Note_on_c, 0, 76, 93
2, 23616, Note_off_c, 0, 76, 0
2, 23616, Note_on_c, 0, 78, 93
2, 23640, Note_off_c, 0, 78, 0
2, 23640, Note_on_c, 0, 74, 93
2, 23688, Note_off_c, 0, 74, 0
2, 23688, Note_on_c, 0, 68, 93
2, 23712, Note_off_c, 0, 68, 0
2, 23712, Note_on_c, 0, 69, 93
2, 23736, Note_off_c, 0, 69, 0
2, 23736, Note_on_c, 0, 72, 93
2, 23760, Note_off_c, 0, 72, 0
2, 23760, Note_on_c, 0, 78, 93
2, 23784, Note_off_c, 0, 78, 0
2, 23784, Note_on_c, 0, 75, 93
2, 23808, Note_off_c, 0, 75, 0
2, 23808, Note_on_c, 0, 76, 93
2, 23952, Note_off_c, 0, 76, 0
2, 23952, Note_on_c, 0, 84, 93
2, 24120, Note_off_c, 0, 84, 0
2, 24120, Note_on_c, 0, 84, 93
2, 24144, Note_off_c, 0, 84, 0
2, 24144, Note_on_c, 0, 83, 93
2, 24168, Note_off_c, 0, 83, 0
2, 24168, Note_on_c, 0, 81, 93
2, 24192, Note_off_c, 0, 81, 0
2, 24192, Note_on_c, 0, 79, 93
2, 24216, Note_off_c, 0, 79, 0
2, 24216, Note_on_c, 0, 78, 93
2, 24240, Note_off_c, 0, 78, 0
2, 24240, Note_on_c, 0, 76, 93
2, 24408, Note_off_c, 0, 76, 0
2, 24408, Note_on_c, 0, 76, 93
2, 24432, Note_off_c, 0, 76, 0
2, 24432, Note_on_c, 0, 74, 93
2, 24456, Note_off_c, 0, 74, 0
2, 24456, Note_on_c, 0, 72, 93
2, 24480, Note_off_c, 0, 72, 0
2, 24480, Note_on_c, 0, 71, 93
2, 24504, Note_off_c, 0, 71, 0
2, 24504, Note_on_c, 0, 69, 93
2, 24528, Note_off_c, 0, 69, 0
2, 24528, Note_on_c, 0, 68, 93
2, 24552, Note_off_c, 0, 68, 0
2, 24552, Note_on_c, 0, 69, 93
2, 24576, Note_off_c, 0, 69, 0
2, 24576, Note_on_c, 0, 71, 93
2, 24600, Note_off_c, 0, 71, 0
2, 24600, Note_on_c, 0, 72, 93
2, 24624, Note_off_c, 0, 72, 0
2, 24624, Note_on_c, 0, 74, 93
2, 24648, Note_off_c, 0, 74, 0
2, 24648, Note_on_c, 0, 71, 93
2, 24672, Note_off_c, 0, 71, 0
2, 24672, Note_on_c, 0, 69, 93
2, 24840, Note_off_c, 0, 69, 0
2, 24840, Note_on_c, 0, 68, 93
2, 24864, Note_off_c, 0, 68, 0
2, 24864, Note_on_c, 0, 69, 93
2, 24888, Note_off_c, 0, 69, 0
2, 24888, Note_on_c, 0, 66, 93
2, 24912, Note_off_c, 0, 66, 0
2, 24912, Note_on_c, 0, 68, 93
2, 24936, Note_off_c, 0, 68, 0
2, 24936, Note_on_c, 0, 71, 93
2, 24960, Note_off_c, 0, 71, 0
2, 24960, Note_on_c, 0, 64, 93
2, 25008, Note_off_c, 0, 64, 0
2, 25008, Note_on_c, 0, 72, 93
2, 25032, Note_off_c, 0, 72, 0
2, 25032, Note_on_c, 0, 71, 93
2, 25056, Note_off_c, 0, 71, 0
2, 25056, Note_on_c, 0, 69, 93
2, 25080, Note_off_c, 0, 69, 0
2, 25080, Note_on_c, 0, 68, 93
2, 25104, Note_off_c, 0, 68, 0
2, 25104, Note_on_c, 0, 69, 93
2, 25248, Note_off_c, 0, 69, 0
2, 25248, Note_on_c, 0, 74, 93
2, 25392, Note_off_c, 0, 74, 0
2, 25392, Note_on_c, 0, 79, 93
2, 25584, Note_off_c, 0, 79, 0
2, 25584, Note_on_c, 0, 77, 93
2, 25608, Note_off_c, 0, 77, 0
2, 25608, Note_on_c, 0, 76, 93
2, 25632, Note_off_c, 0, 76, 0
2, 25632, Note_on_c, 0, 74, 93
2, 25656, Note_off_c, 0, 74, 0
2, 25656, Note_on_c, 0, 72, 93
2, 25728, Note_off_c, 0, 72, 0
2, 25728, Note_on_c, 0, 71, 93
2, 25752, Note_off_c, 0, 71, 0
2, 25752, Note_on_c, 0, 69, 93
2, 25776, Note_off_c, 0, 69, 0
2, 25776, Note_on_c, 0, 68, 93
2, 25800, Note_off_c, 0, 68, 0
2, 25800, Note_on_c, 0, 69, 93
2, 25824, Note_off_c, 0, 69, 0
2, 25824, Note_on_c, 0, 71, 93
2, 26016, Note_off_c, 0, 71, 0
2, 26016, Note_on_c, 0, 69, 93
2, 26040, Note_off_c, 0, 69, 0
2, 26040, Note_on_c, 0, 71, 93
2, 26064, Note_off_c, 0, 71, 0
2, 26064, Note_on_c, 0, 72, 93
2, 26088, Note_off_c, 0, 72, 0
2, 26088, Note_on_c, 0, 69, 93
2, 26112, Note_off_c, 0, 69, 0
2, 26112, Note_on_c, 0, 72, 93
2, 26280, Note_off_c, 0, 72, 0
2, 26280, Note_on_c, 0, 72, 93
2, 26304, Note_off_c, 0, 72, 0
2, 26304, Note_on_c, 0, 71, 93
2, 26328, Note_off_c, 0, 71, 0
2, 26328, Note_on_c, 0, 69, 93
2, 26352, Note_off_c, 0, 69, 0
2, 26352, Note_on_c, 0, 71, 93
2, 26400, Note_off_c, 0, 71, 0
2, 26424, Note_on_c, 0, 71, 93
2, 26496, Note_off_c, 0, 71, 0
2, 26496, Note_on_c, 0, 71, 93
2, 26544, Note_off_c, 0, 71, 0
2, 26544, Note_on_c, 0, 69, 93
2, 26568, Note_off_c, 0, 69, 0
2, 26568, Note_on_c, 0, 73, 93
2, 26592, Note_off_c, 0, 73, 0
2, 26592, Note_on_c, 0, 76, 93
2, 26616, Note_off_c, 0, 76, 0
2, 26616, Note_on_c, 0, 74, 93
2, 26640, Note_off_c, 0, 74, 0
2, 26640, Note_on_c, 0, 73, 93
2, 26664, Note_off_c, 0, 73, 0
2, 26664, Note_on_c, 0, 71, 93
2, 26688, Note_off_c, 0, 71, 0
2, 26688, Note_on_c, 0, 69, 93
2, 26736, Note_off_c, 0, 69, 0
2, 26736, Note_on_c, 0, 71, 93
2, 26784, Note_off_c, 0, 71, 0
2, 26784, Note_on_c, 0, 73, 93
2, 26856, Note_off_c, 0, 73, 0
2, 26856, Note_on_c, 0, 69, 93
2, 26880, Note_off_c, 0, 69, 0
2, 26880, Note_on_c, 0, 71, 93
2, 26904, Note_off_c, 0, 71, 0
2, 26904, Note_on_c, 0, 73, 93
2, 26928, Note_off_c, 0, 73, 0
2, 26928, Note_on_c, 0, 74, 93
2, 26952, Note_off_c, 0, 74, 0
2, 26952, Note_on_c, 0, 69, 93
2, 26976, Note_off_c, 0, 69, 0
2, 26976, Note_on_c, 0, 68, 93
2, 27000, Note_off_c, 0, 68, 0
2, 27000, Note_on_c, 0, 64, 93
2, 27024, Note_off_c, 0, 64, 0
2, 27024, Note_on_c, 0, 69, 93
2, 27048, Note_off_c, 0, 69, 0
2, 27048, Note_on_c, 0, 71, 93
2, 27072, Note_off_c, 0, 71, 0
2, 27072, Note_on_c, 0, 72, 93
2, 27096, Note_off_c, 0, 72, 0
2, 27096, Note_on_c, 0, 69, 93
2, 27120, Note_off_c, 0, 69, 0
2, 27120, Note_on_c, 0, 66, 93
2, 27168, Note_off_c, 0, 66, 0
2, 27168, Note_on_c, 0, 68, 93
2, 27204, Note_off_c, 0, 68, 0
2, 27204, Note_on_c, 0, 71, 93
2, 27288, Note_off_c, 0, 71, 0
2, 27288, Note_on_c, 0, 71, 93
2, 27312, Note_off_c, 0, 71, 0
2, 27312, Note_on_c, 0, 69, 93
2, 27336, Note_off_c, 0, 69, 0
2, 27336, Note_on_c, 0, 68, 93
2, 27360, Note_off_c, 0, 68, 0
2, 27360, Note_on_c, 0, 69, 93
2, 27384, Note_off_c, 0, 69, 0
2, 27384, Note_on_c, 0, 64, 93
2, 27408, Note_off_c, 0, 64, 0
2, 27408, Note_on_c, 0, 65, 93
2, 27552, Note_off_c, 0, 65, 0
2, 27552, Note_on_c, 0, 64, 93
2, 27648, Note_off_c, 0, 64, 0
2, 27648, Note_on_c, 0, 66, 93
2, 27696, Note_off_c, 0, 66, 0
2, 27696, Note_on_c, 0, 63, 93
2, 27744, Note_off_c, 0, 63, 0
2, 27744, Note_on_c, 0, 64, 93
2, 27840, Note_off_c, 0, 64, 0
2, 27840, Note_on_c, 0, 64, 93
2, 27864, Note_off_c, 0, 64, 0
2, 27864, Note_on_c, 0, 64, 93
2, 27888, Note_off_c, 0, 64, 0
2, 27888, Note_on_c, 0, 63, 93
2, 27984, Note_off_c, 0, 63, 0
2, 27984, Note_on_c, 0, 64, 93
2, 28080, Note_off_c, 0, 64, 0
2, 28104, Note_on_c, 0, 67, 93
2, 28128, Note_off_c, 0, 67, 0
2, 28128, Note_on_c, 0, 69, 93
2, 28152, Note_off_c, 0, 69, 0
2, 28152, Note_on_c, 0, 67, 93
2, 28176, Note_off_c, 0, 67, 0
2, 28176, Note_on_c, 0, 69, 93
2, 28320, Note_off_c, 0, 69, 0
2, 28320, Note_on_c, 0, 67, 93
2, 28344, Note_off_c, 0, 67, 0
2, 28344, Note_on_c, 0, 66, 93
2, 28368, Note_off_c, 0, 66, 0
2, 28368, Note_on_c, 0, 67, 93
2, 28392, Note_off_c, 0, 67, 0
2, 28392, Note_on_c, 0, 71, 93
2, 28416, Note_off_c, 0, 71, 0
2, 28416, Note_on_c, 0, 76, 93
2, 28560, Note_off_c, 0, 76, 0
2, 28560, Note_on_c, 0, 81, 93
2, 28752, Note_off_c, 0, 81, 0
2, 28752, Note_on_c, 0, 79, 93
2, 28776, Note_off_c, 0, 79, 0
2, 28776, Note_on_c, 0, 78, 93
2, 28800, Note_off_c, 0, 78, 0
2, 28800, Note_on_c, 0, 76, 93
2, 28824, Note_off_c, 0, 76, 0
2, 28824, Note_on_c, 0, 74, 93
2, 28896, Note_off_c, 0, 74, 0
2, 28896, Note_on_c, 0, 72, 93
2, 28920, Note_off_c, 0, 72, 0
2, 28920, Note_on_c, 0, 71, 93
2, 28944, Note_off_c, 0, 71, 0
2, 28944, Note_on_c, 0, 69, 93
2, 28968, Note_off_c, 0, 69, 0
2, 28968, Note_on_c, 0, 67, 93
2, 28992, Note_off_c, 0, 67, 0
2, 28992, Note_on_c, 0, 72, 93
2, 29136, Note_off_c, 0, 72, 0
2, 29136, Note_on_c, 0, 78, 93
2, 29328, Note_off_c, 0, 78, 0
2, 29328, Note_on_c, 0, 76, 93
2, 29352, Note_off_c, 0, 76, 0
2, 29352, Note_on_c, 0, 78, 93
2, 29376, Note_off_c, 0, 78, 0
2, 29376, Note_on_c, 0, 79, 93
2, 29472, Note_off_c, 0, 79, 0
2, 29472, Note_on_c, 0, 67, 93
2, 29520, Note_off_c, 0, 67, 0
2, 29520, Note_on_c, 0, 67, 93
2, 29568, Note_off_c, 0, 67, 0
2, 29568, Note_on_c, 0, 69, 93
2, 29712, Note_off_c, 0, 69, 0
2, 29712, Note_on_c, 0, 67, 93
2, 29760, Note_off_c, 0, 67, 0
2, 29760, Note_on_c, 0, 65, 93
2, 29808, Note_off_c, 0, 65, 0
2, 29808, Note_on_c, 0, 65, 93
2, 29856, Note_off_c, 0, 65, 0
2, 29856, Note_on_c, 0, 67, 93
2, 29952, Note_off_c, 0, 67, 0
2, 29952, Note_on_c, 0, 72, 93
2, 30000, Note_off_c, 0, 72, 0
2, 30000, Note_on_c, 0, 65, 93
2, 30336, Note_off_c, 0, 65, 0
2, 30336, Note_on_c, 0, 64, 93
2, 30456, Note_off_c, 0, 64, 0
2, 30456, Note_on_c, 0, 62, 93
2, 30480, Note_off_c, 0, 62, 0
2, 30480, Note_on_c, 0, 60, 93
2, 30504, Note_off_c, 0, 60, 0
2, 30504, Note_on_c, 0, 64, 93
2, 30528, Note_off_c, 0, 64, 0
2, 30528, Note_on_c, 0, 62, 93
2, 30552, Note_off_c, 0, 62, 0
2, 30552, Note_on_c, 0, 64, 93
2, 30576, Note_off_c, 0, 64, 0
2, 30576, Note_on_c, 0, 65, 93
2, 30600, Note_off_c, 0, 65, 0
2, 30600, Note_on_c, 0, 64, 93
2, 30624, Note_off_c, 0, 64, 0
2, 30624, Note_on_c, 0, 65, 93
2, 30648, Note_off_c, 0, 65, 0
2, 30648, Note_on_c, 0, 67, 93
2, 30672, Note_off_c, 0, 67, 0
2, 30672, Note_on_c, 0, 64, 93
2, 30696, Note_off_c, 0, 64, 0
2, 30696, Note_on_c, 0, 65, 93
2, 30720, Note_off_c, 0, 65, 0
2, 30720, Note_on_c, 0, 62, 93
2, 30744, Note_off_c, 0, 62, 0
2, 30744, Note_on_c, 0, 60, 93
2, 30768, Note_off_c, 0, 60, 0
2, 30768, Note_on_c, 0, 59, 93
2, 30792, Note_off_c, 0, 59, 0
2, 30792, Note_on_c, 0, 62, 93
2, 30816, Note_off_c, 0, 62, 0
2, 30816, Note_on_c, 0, 60, 93
2, 30840, Note_off_c, 0, 60, 0
2, 30840, Note_on_c, 0, 62, 93
2, 30864, Note_off_c, 0, 62, 0
2, 30864, Note_on_c, 0, 64, 93
2, 30888, Note_off_c, 0, 64, 0
2, 30888, Note_on_c, 0, 62, 93
2, 30912, Note_off_c, 0, 62, 0
2, 30912, Note_on_c, 0, 64, 93
2, 30936, Note_off_c, 0, 64, 0
2, 30936, Note_on_c, 0, 65, 93
2, 30960, Note_off_c, 0, 65, 0
2, 30960, Note_on_c, 0, 62, 93
2, 30984, Note_off_c, 0, 62, 0
2, 30984, Note_on_c, 0, 64, 93
2, 31008, Note_off_c, 0, 64, 0
2, 31008, Note_on_c, 0, 60, 93
2, 31032, Note_off_c, 0, 60, 0
2, 31032, Note_on_c, 0, 59, 93
2, 31056, Note_off_c, 0, 59, 0
2, 31056, Note_on_c, 0, 60, 93
2, 31080, Note_off_c, 0, 60, 0
2, 31080, Note_on_c, 0, 62, 93
2, 31104, Note_off_c, 0, 62, 0
2, 31104, Note_on_c, 0, 59, 93
2, 31128, Note_off_c, 0, 59, 0
2, 31128, Note_on_c, 0, 60, 93
2, 31152, Note_off_c, 0, 60, 0
2, 31152, Note_on_c, 0, 62, 93
2, 31176, Note_off_c, 0, 62, 0
2, 31176, Note_on_c, 0, 60, 93
2, 31200, Note_off_c, 0, 60, 0
2, 31200, Note_on_c, 0, 62, 93
2, 31224, Note_off_c, 0, 62, 0
2, 31224, Note_on_c, 0, 64, 93
2, 31248, Note_off_c, 0, 64, 0
2, 31248, Note_on_c, 0, 60, 93
2, 31272, Note_off_c, 0, 60, 0
2, 31272, Note_on_c, 0, 62, 93
2, 31296, Note_off_c, 0, 62, 0
2, 31296, Note_on_c, 0, 59, 93
2, 31440, Note_off_c, 0, 59, 0
2, 31440, Note_on_c, 0, 57, 93
2, 31464, Note_off_c, 0, 57, 0
2, 31464, Note_on_c, 0, 59, 93
2, 31488, Note_off_c, 0, 59, 0
2, 31488, Note_on_c, 0, 60, 93
2, 31512, Note_off_c, 0, 60, 0
2, 31512, Note_on_c, 0, 62, 93
2, 31536, Note_off_c, 0, 62, 0
2, 31536, Note_on_c, 0, 64, 93
2, 31560, Note_off_c, 0, 64, 0
2, 31560, Note_on_c, 0, 60, 93
2, 31584, Note_off_c, 0, 60, 0
2, 31584, Note_on_c, 0, 65, 93
2, 31680, Note_off_c, 0, 65, 0
2, 31680, Note_on_c, 0, 65, 93
2, 31728, Note_off_c, 0, 65, 0
2, 31728, Note_on_c, 0, 64, 93
2, 31824, Note_off_c, 0, 64, 0
2, 31824, Note_on_c, 0, 64, 93
2, 31872, Note_off_c, 0, 64, 0
2, 31872, Note_on_c, 0, 62, 93
2, 31968, Note_off_c, 0, 62, 0
2, 31968, Note_on_c, 0, 62, 93
2, 32016, Note_off_c, 0, 62, 0
2, 32016, Note_on_c, 0, 60, 93
2, 32112, Note_off_c, 0, 60, 0
2, 32112, Note_on_c, 0, 60, 93
2, 32160, Note_off_c, 0, 60, 0
2, 32160, Note_on_c, 0, 59, 93
2, 32232, Note_off_c, 0, 59, 0
2, 32232, Note_on_c, 0, 60, 93
2, 32256, Note_off_c, 0, 60, 0
2, 32256, Note_on_c, 0, 57, 93
2, 32280, Note_off_c, 0, 57, 0
2, 32280, Note_on_c, 0, 59, 93
2, 32304, Note_off_c, 0, 59, 0
2, 32304, Note_on_c, 0, 60, 93
2, 32376, Note_off_c, 0, 60, 0
2, 32376, Note_on_c, 0, 62, 93
2, 32400, Note_off_c, 0, 62, 0
2, 32400, Note_on_c, 0, 59, 93
2, 32424, Note_off_c, 0, 59, 0
2, 32424, Note_on_c, 0, 60, 93
2, 32448, Note_off_c, 0, 60, 0
2, 32448, Note_on_c, 0, 62, 93
2, 32520, Note_off_c, 0, 62, 0
2, 32520, Note_on_c, 0, 64, 93
2, 32544, Note_off_c, 0, 64, 0
2, 32544, Note_on_c, 0, 60, 93
2, 32568, Note_off_c, 0, 60, 0
2, 32568, Note_on_c, 0, 62, 93
2, 32592, Note_off_c, 0, 62, 0
2, 32592, Note_on_c, 0, 64, 93
2, 32664, Note_off_c, 0, 64, 0
2, 32664, Note_on_c, 0, 65, 93
2, 32688, Note_off_c, 0, 65, 0
2, 32688, Note_on_c, 0, 62, 93
2, 32712, Note_off_c, 0, 62, 0
2, 32712, Note_on_c, 0, 64, 93
2, 32736, Note_off_c, 0, 64, 0
2, 32736, Note_on_c, 0, 65, 93
2, 32760, Note_off_c, 0, 65, 0
2, 32760, Note_on_c, 0, 64, 93
2, 32784, Note_off_c, 0, 64, 0
2, 32784, Note_on_c, 0, 62, 93
2, 32808, Note_off_c, 0, 62, 0
2, 32808, Note_on_c, 0, 65, 93
2, 32832, Note_off_c, 0, 65, 0
2, 32832, Note_on_c, 0, 64, 93
2, 32856, Note_off_c, 0, 64, 0
2, 32856, Note_on_c, 0, 62, 93
2, 32880, Note_off_c, 0, 62, 0
2, 32880, Note_on_c, 0, 60, 93
2, 32904, Note_off_c, 0, 60, 0
2, 32904, Note_on_c, 0, 62, 93
2, 32928, Note_off_c, 0, 62, 0
2, 32928, Note_on_c, 0, 59, 93
2, 32940, Note_off_c, 0, 59, 0
2, 32940, Note_on_c, 0, 60, 93
2, 32952, Note_off_c, 0, 60, 0
2, 32952, Note_on_c, 0, 59, 93
2, 33000, Note_off_c, 0, 59, 0
2, 33000, Note_on_c, 0, 60, 93
2, 33024, Note_off_c, 0, 60, 0
2, 33024, Note_on_c, 0, 57, 93
2, 33264, Note_off_c, 0, 57, 0
2, 33264, Note_on_c, 0, 56, 93
2, 33312, Note_off_c, 0, 56, 0
2, 33312, Note_on_c, 0, 57, 93
2, 33552, Note_off_c, 0, 57, 0
2, 33552, Note_on_c, 0, 57, 93
2, 33600, Note_off_c, 0, 57, 0
2, 33600, Note_on_c, 0, 77, 110
2, 33618, Note_off_c, 0, 77, 0
2, 33624, Note_on_c, 0, 74, 110
2, 33648, Note_off_c, 0, 74, 0
2, 33648, Note_on_c, 0, 77, 110
2, 33672, Note_off_c, 0, 77, 0
2, 33672, Note_on_c, 0, 71, 110
2, 33696, Note_off_c, 0, 71, 0
2, 33696, Note_on_c, 0, 77, 110
2, 33720, Note_off_c, 0, 77, 0
2, 33720, Note_on_c, 0, 67, 110
2, 33744, Note_off_c, 0, 67, 0
2, 33744, Note_on_c, 0, 76, 110
2, 33768, Note_off_c, 0, 76, 0
2, 33768, Note_on_c, 0, 74, 110
2, 33792, Note_off_c, 0, 74, 0
2, 33792, Note_on_c, 0, 76, 110
2, 33816, Note_off_c, 0, 76, 0
2, 33816, Note_on_c, 0, 72, 110
2, 33840, Note_off_c, 0, 72, 0
2, 33840, Note_on_c, 0, 76, 110
2, 33864, Note_off_c, 0, 76, 0
2, 33864, Note_on_c, 0, 71, 110
2, 33888, Note_off_c, 0, 71, 0
2, 33888, Note_on_c, 0, 53, 93
2, 33984, Note_off_c, 0, 53, 0
2, 33984, Note_on_c, 0, 60, 93
2, 34032, Note_off_c, 0, 60, 0
2, 34032, Note_on_c, 0, 60, 93
2, 34080, Note_off_c, 0, 60, 0
2, 34080, Note_on_c, 0, 59, 93
2, 34104, Note_off_c, 0, 59, 0
2, 34104, Note_on_c, 0, 57, 93
2, 34128, Note_off_c, 0, 57, 0
2, 34128, Note_on_c, 0, 56, 93
2, 34152, Note_off_c, 0, 56, 0
2, 34152, Note_on_c, 0, 57, 93
2, 34176, Note_off_c, 0, 57, 0
2, 34176, Note_on_c, 0, 59, 93
2, 34320, Note_off_c, 0, 59, 0
2, 34320, Note_on_c, 0, 59, 93
2, 34368, Note_off_c, 0, 59, 0
2, 34368, Note_on_c, 0, 57, 93
2, 34416, Note_off_c, 0, 57, 0
2, 34416, Note_on_c, 0, 60, 93
2, 34512, Note_off_c, 0, 60, 0
2, 34512, Note_on_c, 0, 59, 93
2, 34560, Note_off_c, 0, 59, 0
2, 34560, Note_on_c, 0, 64, 93
2, 34608, Note_off_c, 0, 64, 0
2, 34608, Note_on_c, 0, 63, 93
2, 34632, Note_off_c, 0, 63, 0
2, 34632, Note_on_c, 0, 66, 93
2, 34656, Note_off_c, 0, 66, 0
2, 34656, Note_on_c, 0, 71, 93
2, 34680, Note_off_c, 0, 71, 0
2, 34680, Note_on_c, 0, 63, 93
2, 34704, Note_off_c, 0, 63, 0
2, 34704, Note_on_c, 0, 64, 93
2, 34776, Note_off_c, 0, 64, 0
2, 34776, Note_on_c, 0, 69, 93
2, 34800, Note_off_c, 0, 69, 0
2, 34800, Note_on_c, 0, 66, 93
2, 34812, Note_off_c, 0, 66, 0
2, 34812, Note_on_c, 0, 67, 93
2, 34824, Note_off_c, 0, 67, 0
2, 34824, Note_on_c, 0, 66, 93
2, 34872, Note_off_c, 0, 66, 0
2, 34872, Note_on_c, 0, 64, 93
2, 34896, Note_off_c, 0, 64, 0
2, 34896, Note_on_c, 0, 64, 84
2, 34992, Note_off_c, 0, 64, 0
2, 34992, Note_on_c, 0, 71, 84
2, 35016, Note_off_c, 0, 71, 0
2, 35016, Note_on_c, 0, 66, 84
2, 35040, Note_off_c, 0, 66, 0
2, 35040, Note_on_c, 0, 67, 84
2, 35136, Note_off_c, 0, 67, 0
2, 35136, Note_on_c, 0, 57, 84
2, 35160, Note_off_c, 0, 57, 0
2, 35160, Note_on_c, 0, 59, 84
2, 35256, Note_off_c, 0, 59, 0
2, 35280, Note_on_c, 0, 67, 84
2, 35328, Note_off_c, 0, 67, 0
2, 35328, Note_on_c, 0, 66, 84
2, 35472, Note_off_c, 0, 66, 0
2, 35472, Note_on_c, 0, 71, 84
2, 35592, Note_off_c, 0, 71, 0
2, 35592, Note_on_c, 0, 75, 84
2, 35616, Note_off_c, 0, 75, 0
2, 35616, Note_on_c, 0, 76, 84
2, 35688, Note_off_c, 0, 76, 0
2, 35688, Note_on_c, 0, 78, 84
2, 35736, Note_off_c, 0, 78, 0
2, 35736, Note_on_c, 0, 76, 84
2, 35760, Note_off_c, 0, 76, 0
2, 35760, Note_on_c, 0, 81, 84
2, 35808, Note_off_c, 0, 81, 0
2, 35808, Note_on_c, 0, 81, 84
2, 35856, Note_off_c, 0, 81, 0
2, 35856, Note_on_c, 0, 81, 84
2, 35928, Note_off_c, 0, 81, 0
2, 35928, Note_on_c, 0, 78, 84
2, 35952, Note_off_c, 0, 78, 0
2, 35952, Note_on_c, 0, 79, 84
2, 36000, Note_off_c, 0, 79, 0
2, 36000, Note_on_c, 0, 79, 84
2, 36048, Note_off_c, 0, 79, 0
2, 36048, Note_on_c, 0, 79, 84
2, 36096, Note_off_c, 0, 79, 0
2, 36096, Note_on_c, 0, 79, 84
2, 36144, Note_off_c, 0, 79, 0
2, 36144, Note_on_c, 0, 79, 84
2, 36216, Note_off_c, 0, 79, 0
2, 36216, Note_on_c, 0, 76, 93
2, 36240, Note_off_c, 0, 76, 0
2, 36240, Note_on_c, 0, 78, 93
2, 36288, Note_off_c, 0, 78, 0
2, 36288, Note_on_c, 0, 78, 93
2, 36336, Note_off_c, 0, 78, 0
2, 36336, Note_on_c, 0, 78, 93
2, 36384, Note_off_c, 0, 78, 0
2, 36384, Note_on_c, 0, 78, 93
2, 36432, Note_off_c, 0, 78, 0
2, 36432, Note_on_c, 0, 78, 93
2, 36528, Note_off_c, 0, 78, 0
2, 36528, Note_on_c, 0, 76, 93
2, 36576, Note_off_c, 0, 76, 0
2, 36576, Note_on_c, 0, 74, 93
2, 36624, Note_off_c, 0, 74, 0
2, 36624, Note_on_c, 0, 72, 93
2, 36816, Note_off_c, 0, 72, 0
2, 36816, Note_on_c, 0, 69, 93
2, 36864, Note_off_c, 0, 69, 0
2, 36864, Note_on_c, 0, 74, 93
2, 36912, Note_off_c, 0, 74, 0
2, 36912, Note_on_c, 0, 66, 93
2, 36960, Note_off_c, 0, 66, 0
2, 36960, Note_on_c, 0, 62, 93
2, 37008, Note_off_c, 0, 62, 0
2, 37008, Note_on_c, 0, 67, 93
2, 37056, Note_off_c, 0, 67, 0
2, 37056, Note_on_c, 0, 64, 93
2, 37224, Note_off_c, 0, 64, 0
2, 37224, Note_on_c, 0, 67, 93
2, 37248, Note_off_c, 0, 67, 0
2, 37248, Note_on_c, 0, 66, 93
2, 37272, Note_off_c, 0, 66, 0
2, 37272, Note_on_c, 0, 64, 93
2, 37296, Note_off_c, 0, 64, 0
2, 37296, Note_on_c, 0, 63, 93
2, 37320, Note_off_c, 0, 63, 0
2, 37320, Note_on_c, 0, 64, 93
2, 37344, Note_off_c, 0, 64, 0
2, 37344, Note_on_c, 0, 63, 93
2, 37488, Note_off_c, 0, 63, 0
2, 37488, Note_on_c, 0, 64, 93
2, 37584, Note_off_c, 0, 64, 0
2, 37584, Note_on_c, 0, 71, 93
2, 37608, Note_off_c, 0, 71, 0
2, 37608, Note_on_c, 0, 67, 93
2, 37632, Note_off_c, 0, 67, 0
2, 37632, Note_on_c, 0, 72, 93
2, 37656, Note_off_c, 0, 72, 0
2, 37656, Note_on_c, 0, 71, 93
2, 37680, Note_off_c, 0, 71, 0
2, 37680, Note_on_c, 0, 72, 93
2, 37704, Note_off_c, 0, 72, 0
2, 37704, Note_on_c, 0, 74, 93
2, 37728, Note_off_c, 0, 74, 0
2, 37728, Note_on_c, 0, 76, 93
2, 37752, Note_off_c, 0, 76, 0
2, 37752, Note_on_c, 0, 72, 93
2, 37776, Note_off_c, 0, 72, 0
2, 37776, Note_on_c, 0, 77, 93
2, 38064, Note_off_c, 0, 77, 0
2, 38064, Note_on_c, 0, 60, 93
2, 38088, Note_off_c, 0, 60, 0
2, 38088, Note_on_c, 0, 62, 93
2, 38112, Note_off_c, 0, 62, 0
2, 38112, Note_on_c, 0, 64, 93
2, 38136, Note_off_c, 0, 64, 0
2, 38136, Note_on_c, 0, 62, 93
2, 38160, Note_off_c, 0, 62, 0
2, 38160, Note_on_c, 0, 64, 93
2, 38184, Note_off_c, 0, 64, 0
2, 38184, Note_on_c, 0, 60, 93
2, 38208, Note_off_c, 0, 60, 0
2, 38208, Note_on_c, 0, 62, 93
2, 38256, Note_off_c, 0, 62, 0
2, 38256, Note_on_c, 0, 55, 93
2, 38280, Note_off_c, 0, 55, 0
2, 38280, Note_on_c, 0, 62, 93
2, 38304, Note_off_c, 0, 62, 0
2, 38304, Note_on_c, 0, 67, 93
2, 38328, Note_off_c, 0, 67, 0
2, 38328, Note_on_c, 0, 65, 93
2, 38352, Note_off_c, 0, 65, 0
2, 38352, Note_on_c, 0, 64, 93
2, 38376, Note_off_c, 0, 64, 0
2, 38376, Note_on_c, 0, 62, 93
2, 38400, Note_off_c, 0, 62, 0
2, 38400, Note_on_c, 0, 64, 93
2, 38424, Note_off_c, 0, 64, 0
2, 38424, Note_on_c, 0, 65, 93
2, 38448, Note_off_c, 0, 65, 0
2, 38448, Note_on_c, 0, 67, 93
2, 38472, Note_off_c, 0, 67, 0
2, 38472, Note_on_c, 0, 64, 93
2, 38496, Note_off_c, 0, 64, 0
2, 38496, Note_on_c, 0, 69, 93
2, 38520, Note_off_c, 0, 69, 0
2, 38520, Note_on_c, 0, 67, 93
2, 38544, Note_off_c, 0, 67, 0
2, 38544, Note_on_c, 0, 69, 93
2, 38568, Note_off_c, 0, 69, 0
2, 38568, Note_on_c, 0, 65, 93
2, 38592, Note_off_c, 0, 65, 0
2, 38592, Note_on_c, 0, 69, 93
2, 38616, Note_off_c, 0, 69, 0
2, 38616, Note_on_c, 0, 64, 93
2, 38640, Note_off_c, 0, 64, 0
2, 38640, Note_on_c, 0, 69, 93
2, 38664, Note_off_c, 0, 69, 0
2, 38664, Note_on_c, 0, 65, 93
2, 38688, Note_off_c, 0, 65, 0
2, 38688, Note_on_c, 0, 69, 93
2, 38712, Note_off_c, 0, 69, 0
2, 38712, Note_on_c, 0, 62, 93
2, 38736, Note_off_c, 0, 62, 0
2, 38736, Note_on_c, 0, 69, 93
2, 38760, Note_off_c, 0, 69, 0
2, 38760, Note_on_c, 0, 59, 93
2, 38784, Note_off_c, 0, 59, 0
2, 38784, Note_on_c, 0, 67, 93
2, 38808, Note_off_c, 0, 67, 0
2, 38808, Note_on_c, 0, 65, 93
2, 38832, Note_off_c, 0, 65, 0
2, 38832, Note_on_c, 0, 67, 93
2, 38856, Note_off_c, 0, 67, 0
2, 38856, Note_on_c, 0, 64, 93
2, 38880, Note_off_c, 0, 64, 0
2, 38880, Note_on_c, 0, 67, 93
2, 38904, Note_off_c, 0, 67, 0
2, 38904, Note_on_c, 0, 62, 93
2, 38928, Note_off_c, 0, 62, 0
2, 38928, Note_on_c, 0, 72, 93
2, 39216, Note_off_c, 0, 72, 0
2, 39216, Note_on_c, 0, 71, 93
2, 39432, Note_off_c, 0, 71, 0
2, 39432, Note_on_c, 0, 67, 93
2, 39456, Note_off_c, 0, 67, 0
2, 39456, Note_on_c, 0, 72, 93
2, 39480, Note_off_c, 0, 72, 0
2, 39480, Note_on_c, 0, 71, 93
2, 39504, Note_off_c, 0, 71, 0
2, 39504, Note_on_c, 0, 72, 93
2, 39720, Note_off_c, 0, 72, 0
2, 39720, Note_on_c, 0, 69, 93
2, 39744, Note_off_c, 0, 69, 0
2, 39744, Note_on_c, 0, 74, 93
2, 39768, Note_off_c, 0, 74, 0
2, 39768, Note_on_c, 0, 72, 93
2, 39792, Note_off_c, 0, 72, 0
2, 39792, Note_on_c, 0, 74, 93
2, 40008, Note_off_c, 0, 74, 0
2, 40008, Note_on_c, 0, 71, 93
2, 40032, Note_off_c, 0, 71, 0
2, 40032, Note_on_c, 0, 76, 93
2, 40056, Note_off_c, 0, 76, 0
2, 40056, Note_on_c, 0, 74, 93
2, 40080, Note_off_c, 0, 74, 0
2, 40080, Note_on_c, 0, 76, 93
2, 40296, Note_off_c, 0, 76, 0
2, 40296, Note_on_c, 0, 76, 93
2, 40320, Note_off_c, 0, 76, 0
2, 40320, Note_on_c, 0, 74, 93
2, 40344, Note_off_c, 0, 74, 0
2, 40344, Note_on_c, 0, 72, 93
2, 40368, Note_off_c, 0, 72, 0
2, 40368, Note_on_c, 0, 71, 93
2, 40392, Note_off_c, 0, 71, 0
2, 40392, Note_on_c, 0, 69, 93
2, 40440, Note_off_c, 0, 69, 0
2, 40440, Note_on_c, 0, 69, 93
2, 40464, Note_off_c, 0, 69, 0
2, 40464, Note_on_c, 0, 67, 93
2, 40488, Note_off_c, 0, 67, 0
2, 40488, Note_on_c, 0, 66, 93
2, 40512, Note_off_c, 0, 66, 0
2, 40512, Note_on_c, 0, 64, 93
2, 40536, Note_off_c, 0, 64, 0
2, 40536, Note_on_c, 0, 62, 93
2, 40560, Note_off_c, 0, 62, 0
2, 40560, Note_on_c, 0, 64, 93
2, 40656, Note_off_c, 0, 64, 0
2, 40656, Note_on_c, 0, 64, 93
2, 40704, Note_off_c, 0, 64, 0
2, 40704, Note_on_c, 0, 66, 93
2, 40800, Note_off_c, 0, 66, 0
2, 40800, Note_on_c, 0, 59, 93
2, 40848, Note_off_c, 0, 59, 0
2, 40848, Note_on_c, 0, 71, 93
2, 40872, Note_off_c, 0, 71, 0
2, 40872, Note_on_c, 0, 69, 93
2, 40896, Note_off_c, 0, 69, 0
2, 40896, Note_on_c, 0, 71, 93
2, 40920, Note_off_c, 0, 71, 0
2, 40920, Note_on_c, 0, 67, 93
2, 40944, Note_off_c, 0, 67, 0
2, 40944, Note_on_c, 0, 69, 93
2, 40968, Note_off_c, 0, 69, 0
2, 40968, Note_on_c, 0, 62, 93
2, 40992, Note_off_c, 0, 62, 0
2, 40992, Note_on_c, 0, 59, 93
2, 41040, Note_off_c, 0, 59, 0
2, 41040, Note_on_c, 0, 57, 93
2, 41088, Note_off_c, 0, 57, 0
2, 41088, Note_on_c, 0, 71, 93
2, 41112, Note_off_c, 0, 71, 0
2, 41112, Note_on_c, 0, 67, 93
2, 41136, Note_off_c, 0, 67, 0
2, 41136, Note_on_c, 0, 57, 93
2, 41184, Note_off_c, 0, 57, 0
2, 41184, Note_on_c, 0, 59, 93
2, 41232, Note_off_c, 0, 59, 0
2, 41232, Note_on_c, 0, 60, 93
2, 41424, Note_off_c, 0, 60, 0
2, 41424, Note_on_c, 0, 59, 93
2, 41472, Note_off_c, 0, 59, 0
2, 41472, Note_on_c, 0, 57, 93
2, 41520, Note_off_c, 0, 57, 0
2, 41520, Note_on_c, 0, 59, 93
2, 41712, Note_off_c, 0, 59, 0
2, 41712, Note_on_c, 0, 57, 93
2, 41760, Note_off_c, 0, 57, 0
2, 41760, Note_on_c, 0, 55, 93
2, 41808, Note_off_c, 0, 55, 0
2, 41808, Note_on_c, 0, 57, 93
2, 41952, Note_off_c, 0, 57, 0
2, 41952, Note_on_c, 0, 57, 93
2, 42000, Note_off_c, 0, 57, 0
2, 42000, Note_on_c, 0, 55, 93
2, 42048, Note_off_c, 0, 55, 0
2, 42048, Note_on_c, 0, 54, 93
2, 42096, Note_off_c, 0, 54, 0
2, 42096, Note_on_c, 0, 55, 93
2, 42144, Note_off_c, 0, 55, 0
2, 42144, Note_on_c, 0, 54, 93
2, 42192, Note_off_c, 0, 54, 0
2, 42192, Note_on_c, 0, 52, 93
2, 42240, Note_off_c, 0, 52, 0
2, 42240, Note_on_c, 0, 54, 93
2, 42288, Note_off_c, 0, 54, 0
2, 42288, Note_on_c, 0, 52, 93
2, 42336, Note_off_c, 0, 52, 0
2, 42336, Note_on_c, 0, 54, 93
2, 42384, Note_off_c, 0, 54, 0
2, 42384, Note_on_c, 0, 55, 93
2, 42432, Note_off_c, 0, 55, 0
2, 42432, Note_on_c, 0, 54, 93
2, 42480, Note_off_c, 0, 54, 0
2, 42480, Note_on_c, 0, 55, 93
2, 42528, Note_off_c, 0, 55, 0
2, 42528, Note_on_c, 0, 57, 93
2, 42576, Note_off_c, 0, 57, 0
2, 42576, Note_on_c, 0, 55, 93
2, 42624, Note_off_c, 0, 55, 0
2, 42624, Note_on_c, 0, 57, 93
2, 42672, Note_off_c, 0, 57, 0
2, 42672, Note_on_c, 0, 59, 93
2, 42720, Note_off_c, 0, 59, 0
2, 42720, Note_on_c, 0, 57, 93
2, 42768, Note_off_c, 0, 57, 0
2, 42768, Note_on_c, 0, 59, 93
2, 42816, Note_off_c, 0, 59, 0
2, 42816, Note_on_c, 0, 61, 93
2, 42888, Note_off_c, 0, 61, 0
2, 42888, Note_on_c, 0, 62, 93
2, 42912, Note_off_c, 0, 62, 0
2, 42912, Note_on_c, 0, 59, 93
2, 42936, Note_off_c, 0, 59, 0
2, 42936, Note_on_c, 0, 61, 93
2, 42960, Note_off_c, 0, 61, 0
2, 42960, Note_on_c, 0, 62, 93
2, 42984, Note_off_c, 0, 62, 0
2, 42984, Note_on_c, 0, 64, 93
2, 43008, Note_off_c, 0, 64, 0
2, 43008, Note_on_c, 0, 65, 93
2, 43032, Note_off_c, 0, 65, 0
2, 43032, Note_on_c, 0, 64, 93
2, 43056, Note_off_c, 0, 64, 0
2, 43056, Note_on_c, 0, 65, 93
2, 43080, Note_off_c, 0, 65, 0
2, 43080, Note_on_c, 0, 62, 93
2, 43104, Note_off_c, 0, 62, 0
2, 43104, Note_on_c, 0, 64, 93
2, 43140, Note_off_c, 0, 64, 0
2, 43152, Note_on_c, 0, 57, 93
2, 43176, Note_off_c, 0, 57, 0
2, 43176, Note_on_c, 0, 64, 93
2, 43200, Note_off_c, 0, 64, 0
2, 43200, Note_on_c, 0, 69, 93
2, 43224, Note_off_c, 0, 69, 0
2, 43224, Note_on_c, 0, 64, 93
2, 43248, Note_off_c, 0, 64, 0
2, 43248, Note_on_c, 0, 65, 93
2, 43284, Note_off_c, 0, 65, 0
2, 43296, Note_on_c, 0, 62, 93
2, 43344, Note_off_c, 0, 62, 0
2, 43344, Note_on_c, 0, 69, 93
2, 43392, Note_off_c, 0, 69, 0
2, 43392, Note_on_c, 0, 74, 93
2, 43440, Note_off_c, 0, 74, 0
2, 43440, Note_on_c, 0, 76, 93
2, 43488, Note_off_c, 0, 76, 0
2, 43488, Note_on_c, 0, 77, 93
2, 43500, Note_off_c, 0, 77, 0
2, 43500, Note_on_c, 0, 76, 93
2, 43512, Note_off_c, 0, 76, 0
2, 43512, Note_on_c, 0, 77, 93
2, 43536, Note_off_c, 0, 77, 0
2, 43536, Note_on_c, 0, 79, 93
2, 43680, Note_off_c, 0, 79, 0
2, 43680, Note_on_c, 0, 73, 93
2, 43728, Note_off_c, 0, 73, 0
2, 43728, Note_on_c, 0, 74, 93
2, 43776, Note_off_c, 0, 74, 0
2, 43776, Note_on_c, 0, 76, 93
2, 43788, Note_off_c, 0, 76, 0
2, 43788, Note_on_c, 0, 75, 93
2, 43800, Note_off_c, 0, 75, 0
2, 43800, Note_on_c, 0, 76, 93
2, 43824, Note_off_c, 0, 76, 0
2, 43824, Note_on_c, 0, 77, 93
2, 44016, Note_off_c, 0, 77, 0
2, 44016, Note_on_c, 0, 76, 93
2, 44040, Note_off_c, 0, 76, 0
2, 44040, Note_on_c, 0, 74, 93
2, 44064, Note_off_c, 0, 74, 0
2, 44064, Note_on_c, 0, 73, 93
2, 44088, Note_off_c, 0, 73, 0
2, 44088, Note_on_c, 0, 74, 93
2, 44112, Note_off_c, 0, 74, 0
2, 44112, Note_on_c, 0, 76, 93
2, 44136, Note_off_c, 0, 76, 0
2, 44136, Note_on_c, 0, 79, 93
2, 44160, Note_off_c, 0, 79, 0
2, 44160, Note_on_c, 0, 67, 93
2, 44184, Note_off_c, 0, 67, 0
2, 44184, Note_on_c, 0, 61, 93
2, 44208, Note_off_c, 0, 61, 0
2, 44208, Note_on_c, 0, 67, 93
2, 44232, Note_off_c, 0, 67, 0
2, 44232, Note_on_c, 0, 73, 93
2, 44256, Note_off_c, 0, 73, 0
2, 44256, Note_on_c, 0, 74, 93
2, 44280, Note_off_c, 0, 74, 0
2, 44280, Note_on_c, 0, 77, 93
2, 44304, Note_off_c, 0, 77, 0
2, 44304, Note_on_c, 0, 81, 93
2, 44328, Note_off_c, 0, 81, 0
2, 44328, Note_on_c, 0, 77, 93
2, 44352, Note_off_c, 0, 77, 0
2, 44352, Note_on_c, 0, 74, 93
2, 44376, Note_off_c, 0, 74, 0
2, 44376, Note_on_c, 0, 72, 93
2, 44400, Note_off_c, 0, 72, 0
2, 44400, Note_on_c, 0, 70, 93
2, 44424, Note_off_c, 0, 70, 0
2, 44424, Note_on_c, 0, 74, 93
2, 44448, Note_off_c, 0, 74, 0
2, 44448, Note_on_c, 0, 79, 93
2, 44472, Note_off_c, 0, 79, 0
2, 44472, Note_on_c, 0, 74, 93
2, 44496, Note_off_c, 0, 74, 0
2, 44496, Note_on_c, 0, 70, 93
2, 44520, Note_off_c, 0, 70, 0
2, 44520, Note_on_c, 0, 67, 93
2, 44544, Note_off_c, 0, 67, 0
2, 44544, Note_on_c, 0, 72, 93
2, 44568, Note_off_c, 0, 72, 0
2, 44568, Note_on_c, 0, 76, 93
2, 44592, Note_off_c, 0, 76, 0
2, 44592, Note_on_c, 0, 79, 93
2, 44616, Note_off_c, 0, 79, 0
2, 44616, Note_on_c, 0, 76, 93
2, 44640, Note_off_c, 0, 76, 0
2, 44640, Note_on_c, 0, 72, 93
2, 44664, Note_off_c, 0, 72, 0
2, 44664, Note_on_c, 0, 70, 93
2, 44688, Note_off_c, 0, 70, 0
2, 44688, Note_on_c, 0, 69, 93
2, 44712, Note_off_c, 0, 69, 0
2, 44712, Note_on_c, 0, 72, 93
2, 44736, Note_off_c, 0, 72, 0
2, 44736, Note_on_c, 0, 77, 93
2, 44760, Note_off_c, 0, 77, 0
2, 44760, Note_on_c, 0, 72, 93
2, 44784, Note_off_c, 0, 72, 0
2, 44784, Note_on_c, 0, 69, 93
2, 44808, Note_off_c, 0, 69, 0
2, 44808, Note_on_c, 0, 65, 93
2, 44832, Note_off_c, 0, 65, 0
2, 44832, Note_on_c, 0, 62, 93
2, 45024, Note_off_c, 0, 62, 0
2, 45024, Note_on_c, 0, 60, 93
2, 45048, Note_off_c, 0, 60, 0
2, 45048, Note_on_c, 0, 59, 93
2, 45072, Note_off_c, 0, 59, 0
2, 45072, Note_on_c, 0, 60, 93
2, 45168, Note_off_c, 0, 60, 0
2, 45168, Note_on_c, 0, 59, 93
2, 45192, Note_off_c, 0, 59, 0
2, 45192, Note_on_c, 0, 57, 93
2, 45216, Note_off_c, 0, 57, 0
2, 45216, Note_on_c, 0, 59, 93
2, 45312, Note_off_c, 0, 59, 0
2, 45312, Note_on_c, 0, 57, 93
2, 45336, Note_off_c, 0, 57, 0
2, 45336, Note_on_c, 0, 56, 93
2, 45360, Note_off_c, 0, 56, 0
2, 45360, Note_on_c, 0, 57, 93
2, 45456, Note_off_c, 0, 57, 0
2, 45456, Note_on_c, 0, 56, 93
2, 45480, Note_off_c, 0, 56, 0
2, 45480, Note_on_c, 0, 54, 93
2, 45504, Note_off_c, 0, 54, 0
2, 45504, Note_on_c, 0, 56, 93
2, 45552, Note_off_c, 0, 56, 0
2, 45552, Note_on_c, 0, 57, 93
2, 45600, Note_off_c, 0, 57, 0
2, 45600, Note_on_c, 0, 59, 93
2, 45648, Note_off_c, 0, 59, 0
2, 45648, Note_on_c, 0, 60, 93
2, 45696, Note_off_c, 0, 60, 0
2, 45696, Note_on_c, 0, 62, 93
2, 45792, Note_off_c, 0, 62, 0
2, 45792, Note_on_c, 0, 65, 93
2, 45816, Note_off_c, 0, 65, 0
2, 45816, Note_on_c, 0, 72, 93
2, 45840, Note_off_c, 0, 72, 0
2, 45840, Note_on_c, 0, 59, 93
2, 45888, Note_off_c, 0, 59, 0
2, 45888, Note_on_c, 0, 60, 93
2, 45936, Note_off_c, 0, 60, 0
2, 45936, Note_on_c, 0, 62, 93
2, 45984, Note_off_c, 0, 62, 0
2, 45984, Note_on_c, 0, 64, 93
2, 46080, Note_off_c, 0, 64, 0
2, 46080, Note_on_c, 0, 67, 93
2, 46104, Note_off_c, 0, 67, 0
2, 46104, Note_on_c, 0, 74, 93
2, 46128, Note_off_c, 0, 74, 0
2, 46128, Note_on_c, 0, 60, 93
2, 46176, Note_off_c, 0, 60, 0
2, 46176, Note_on_c, 0, 62, 93
2, 46224, Note_off_c, 0, 62, 0
2, 46224, Note_on_c, 0, 64, 93
2, 46272, Note_off_c, 0, 64, 0
2, 46272, Note_on_c, 0, 65, 93
2, 46368, Note_off_c, 0, 65, 0
2, 46368, Note_on_c, 0, 69, 93
2, 46392, Note_off_c, 0, 69, 0
2, 46392, Note_on_c, 0, 76, 93
2, 46416, Note_off_c, 0, 76, 0
2, 46416, Note_on_c, 0, 62, 93
2, 46440, Note_off_c, 0, 62, 0
2, 46440, Note_on_c, 0, 65, 93
2, 46464, Note_off_c, 0, 65, 0
2, 46464, Note_on_c, 0, 62, 93
2, 46488, Note_off_c, 0, 62, 0
2, 46488, Note_on_c, 0, 67, 93
2, 46512, Note_off_c, 0, 67, 0
2, 46512, Note_on_c, 0, 62, 93
2, 46536, Note_off_c, 0, 62, 0
2, 46536, Note_on_c, 0, 69, 93
2, 46560, Note_off_c, 0, 69, 0
2, 46560, Note_on_c, 0, 71, 93
2, 46608, Note_off_c, 0, 71, 0
2, 46608, Note_on_c, 0, 72, 93
2, 46656, Note_off_c, 0, 72, 0
2, 46656, Note_on_c, 0, 74, 93
2, 46704, Note_off_c, 0, 74, 0
2, 46704, Note_on_c, 0, 76, 93
2, 46800, Note_off_c, 0, 76, 0
2, 46800, Note_on_c, 0, 60, 93
2, 46824, Note_off_c, 0, 60, 0
2, 46824, Note_on_c, 0, 67, 93
2, 46848, Note_off_c, 0, 67, 0
2, 46848, Note_on_c, 0, 69, 93
2, 46896, Note_off_c, 0, 69, 0
2, 46896, Note_on_c, 0, 71, 93
2, 46944, Note_off_c, 0, 71, 0
2, 46944, Note_on_c, 0, 73, 93
2, 46992, Note_off_c, 0, 73, 0
2, 46992, Note_on_c, 0, 74, 93
2, 47040, Note_off_c, 0, 74, 0
2, 47040, Note_on_c, 0, 73, 93
2, 47088, Note_off_c, 0, 73, 0
2, 47088, Note_on_c, 0, 74, 93
2, 47184, Note_off_c, 0, 74, 0
2, 47184, Note_on_c, 0, 72, 93
2, 47208, Note_off_c, 0, 72, 0
2, 47208, Note_on_c, 0, 71, 93
2, 47232, Note_off_c, 0, 71, 0
2, 47232, Note_on_c, 0, 69, 93
2, 47256, Note_off_c, 0, 69, 0
2, 47256, Note_on_c, 0, 68, 93
2, 47280, Note_off_c, 0, 68, 0
2, 47280, Note_on_c, 0, 76, 93
2, 47328, Note_off_c, 0, 76, 0
2, 47328, Note_on_c, 0, 69, 93
2, 47376, Note_off_c, 0, 69, 0
2, 47376, Note_on_c, 0, 71, 93
2, 47424, Note_off_c, 0, 71, 0
2, 47424, Note_on_c, 0, 72, 93
2, 47448, Note_off_c, 0, 72, 0
2, 47448, Note_on_c, 0, 74, 93
2, 47472, Note_off_c, 0, 74, 0
2, 47472, Note_on_c, 0, 74, 93
2, 47484, Note_off_c, 0, 74, 0
2, 47484, Note_on_c, 0, 76, 93
2, 47496, Note_off_c, 0, 76, 0
2, 47496, Note_on_c, 0, 74, 93
2, 47508, Note_off_c, 0, 74, 0
2, 47508, Note_on_c, 0, 76, 93
2, 47520, Note_off_c, 0, 76, 0
2, 47520, Note_on_c, 0, 74, 93
2, 47544, Note_off_c, 0, 74, 0
2, 47544, Note_on_c, 0, 72, 93
2, 47556, Note_off_c, 0, 72, 0
2, 47556, Note_on_c, 0, 74, 93
2, 47568, Note_off_c, 0, 74, 0
2, 47568, Note_on_c, 0, 76, 93
2, 48720, Note_off_c, 0, 76, 0
2, 48720, Note_on_c, 0, 74, 93
2, 49008, Note_off_c, 0, 74, 0
2, 49008, Note_on_c, 0, 72, 93
2, 49296, Note_off_c, 0, 72, 0
2, 49296, Note_on_c, 0, 71, 93
2, 49488, Note_off_c, 0, 71, 0
2, 49488, Note_on_c, 0, 69, 127
2, 49536, Note_off_c, 0, 69, 0
2, 49536, Note_on_c, 0, 68, 127
2, 49584, Note_off_c, 0, 68, 0
2, 49584, Note_on_c, 0, 69, 127
2, 49608, Note_off_c, 0, 69, 0
2, 49608, Note_on_c, 0, 68, 127
2, 49632, Note_off_c, 0, 68, 0
2, 49632, Note_on_c, 0, 69, 127
2, 49656, Note_off_c, 0, 69, 0
2, 49656, Note_on_c, 0, 72, 127
2, 49680, Note_off_c, 0, 72, 0
2, 49680, Note_on_c, 0, 71, 127
2, 49704, Note_off_c, 0, 71, 0
2, 49704, Note_on_c, 0, 74, 127
2, 49728, Note_off_c, 0, 74, 0
2, 49728, Note_on_c, 0, 72, 127
2, 49752, Note_off_c, 0, 72, 0
2, 49752, Note_on_c, 0, 71, 127
2, 49776, Note_off_c, 0, 71, 0
2, 49776, Note_on_c, 0, 72, 127
2, 49800, Note_off_c, 0, 72, 0
2, 49800, Note_on_c, 0, 69, 127
2, 49824, Note_off_c, 0, 69, 0
2, 49824, Note_on_c, 0, 74, 127
2, 49848, Note_off_c, 0, 74, 0
2, 49848, Note_on_c, 0, 71, 127
2, 49872, Note_off_c, 0, 71, 0
2, 49872, Note_on_c, 0, 72, 127
2, 49896, Note_off_c, 0, 72, 0
2, 49896, Note_on_c, 0, 71, 127
2, 49920, Note_off_c, 0, 71, 0
2, 49920, Note_on_c, 0, 72, 127
2, 49944, Note_off_c, 0, 72, 0
2, 49944, Note_on_c, 0, 69, 127
2, 49968, Note_off_c, 0, 69, 0
2, 49968, Note_on_c, 0, 74, 127
2, 49992, Note_off_c, 0, 74, 0
2, 49992, Note_on_c, 0, 68, 127
2, 50016, Note_off_c, 0, 68, 0
2, 50016, Note_on_c, 0, 69, 127
2, 50040, Note_off_c, 0, 69, 0
2, 50040, Note_on_c, 0, 68, 127
2, 50064, Note_off_c, 0, 68, 0
2, 50064, Note_on_c, 0, 69, 127
2, 50088, Note_off_c, 0, 69, 0
2, 50088, Note_on_c, 0, 64, 127
2, 50112, Note_off_c, 0, 64, 0
2, 50112, Note_on_c, 0, 71, 127
2, 50136, Note_off_c, 0, 71, 0
2, 50136, Note_on_c, 0, 64, 127
2, 50160, Note_off_c, 0, 64, 0
2, 50160, Note_on_c, 0, 72, 127
2, 50184, Note_off_c, 0, 72, 0
2, 50184, Note_on_c, 0, 71, 127
2, 50208, Note_off_c, 0, 71, 0
2, 50208, Note_on_c, 0, 72, 127
2, 50232, Note_off_c, 0, 72, 0
2, 50232, Note_on_c, 0, 64, 127
2, 50256, Note_off_c, 0, 64, 0
2, 50256, Note_on_c, 0, 74, 127
2, 50280, Note_off_c, 0, 74, 0
2, 50280, Note_on_c, 0, 64, 127
2, 50304, Note_off_c, 0, 64, 0
2, 50304, Note_on_c, 0, 76, 127
2, 50328, Note_off_c, 0, 76, 0
2, 50328, Note_on_c, 0, 77, 127
2, 50352, Note_off_c, 0, 77, 0
2, 50352, Note_on_c, 0, 76, 127
2, 50376, Note_off_c, 0, 76, 0
2, 50376, Note_on_c, 0, 74, 127
2, 50400, Note_off_c, 0, 74, 0
2, 50400, Note_on_c, 0, 72, 127
2, 50424, Note_off_c, 0, 72, 0
2, 50424, Note_on_c, 0, 71, 127
2, 50448, Note_off_c, 0, 71, 0
2, 50448, Note_on_c, 0, 72, 127
2, 50472, Note_off_c, 0, 72, 0
2, 50472, Note_on_c, 0, 74, 127
2, 50496, Note_off_c, 0, 74, 0
2, 50496, Note_on_c, 0, 72, 127
2, 50520, Note_off_c, 0, 72, 0
2, 50520, Note_on_c, 0, 71, 127
2, 50544, Note_off_c, 0, 71, 0
2, 50544, Note_on_c, 0, 72, 127
2, 50568, Note_off_c, 0, 72, 0
2, 50568, Note_on_c, 0, 69, 127
2, 50592, Note_off_c, 0, 69, 0
2, 50592, Note_on_c, 0, 77, 127
2, 50616, Note_off_c, 0, 77, 0
2, 50616, Note_on_c, 0, 79, 127
2, 50640, Note_off_c, 0, 79, 0
2, 50640, Note_on_c, 0, 77, 127
2, 50664, Note_off_c, 0, 77, 0
2, 50664, Note_on_c, 0, 76, 127
2, 50688, Note_off_c, 0, 76, 0
2, 50688, Note_on_c, 0, 74, 127
2, 50712, Note_off_c, 0, 74, 0
2, 50712, Note_on_c, 0, 72, 127
2, 50736, Note_off_c, 0, 72, 0
2, 50736, Note_on_c, 0, 71, 127
2, 50760, Note_off_c, 0, 71, 0
2, 50760, Note_on_c, 0, 72, 127
2, 50784, Note_off_c, 0, 72, 0
2, 50784, Note_on_c, 0, 71, 127
2, 50808, Note_off_c, 0, 71, 0
2, 50808, Note_on_c, 0, 69, 127
2, 50832, Note_off_c, 0, 69, 0
2, 50832, Note_on_c, 0, 71, 127
2, 50856, Note_off_c, 0, 71, 0
2, 50856, Note_on_c, 0, 67, 127
2, 50880, Note_off_c, 0, 67, 0
2, 50880, Note_on_c, 0, 79, 127
2, 50904, Note_off_c, 0, 79, 0
2, 50904, Note_on_c, 0, 81, 127
2, 50928, Note_off_c, 0, 81, 0
2, 50928, Note_on_c, 0, 79, 127
2, 50952, Note_off_c, 0, 79, 0
2, 50952, Note_on_c, 0, 77, 127
2, 50976, Note_off_c, 0, 77, 0
2, 50976, Note_on_c, 0, 76, 127
2, 51000, Note_off_c, 0, 76, 0
2, 51000, Note_on_c, 0, 74, 127
2, 51024, Note_off_c, 0, 74, 0
2, 51024, Note_on_c, 0, 76, 127
2, 51048, Note_off_c, 0, 76, 0
2, 51048, Note_on_c, 0, 77, 127
2, 51072, Note_off_c, 0, 77, 0
2, 51072, Note_on_c, 0, 76, 127
2, 51096, Note_off_c, 0, 76, 0
2, 51096, Note_on_c, 0, 74, 127
2, 51120, Note_off_c, 0, 74, 0
2, 51120, Note_on_c, 0, 72, 127
2, 51144, Note_off_c, 0, 72, 0
2, 51144, Note_on_c, 0, 71, 127
2, 51168, Note_off_c, 0, 71, 0
2, 51168, Note_on_c, 0, 72, 127
2, 51192, Note_off_c, 0, 72, 0
2, 51192, Note_on_c, 0, 74, 127
2, 51216, Note_off_c, 0, 74, 0
2, 51216, Note_on_c, 0, 72, 127
2, 51240, Note_off_c, 0, 72, 0
2, 51240, Note_on_c, 0, 71, 127
2, 51264, Note_off_c, 0, 71, 0
2, 51264, Note_on_c, 0, 69, 127
2, 51288, Note_off_c, 0, 69, 0
2, 51288, Note_on_c, 0, 68, 127
2, 51312, Note_off_c, 0, 68, 0
2, 51312, Note_on_c, 0, 69, 127
2, 51336, Note_off_c, 0, 69, 0
2, 51336, Note_on_c, 0, 71, 127
2, 51360, Note_off_c, 0, 71, 0
2, 51360, Note_on_c, 0, 69, 127
2, 51384, Note_off_c, 0, 69, 0
2, 51384, Note_on_c, 0, 67, 127
2, 51408, Note_off_c, 0, 67, 0
2, 51408, Note_on_c, 0, 66, 127
2, 51432, Note_off_c, 0, 66, 0
2, 51432, Note_on_c, 0, 64, 127
2, 51456, Note_off_c, 0, 64, 0
2, 51456, Note_on_c, 0, 63, 127
2, 51480, Note_off_c, 0, 63, 0
2, 51480, Note_on_c, 0, 66, 127
2, 51504, Note_off_c, 0, 66, 0
2, 51504, Note_on_c, 0, 71, 127
2, 51600, Note_off_c, 0, 71, 0
2, 51600, Note_on_c, 0, 71, 127
2, 51624, Note_off_c, 0, 71, 0
2, 51624, Note_on_c, 0, 64, 127
2, 51648, Note_off_c, 0, 64, 0
2, 51648, Note_on_c, 0, 76, 127
2, 51768, Note_off_c, 0, 76, 0
2, 51768, Note_on_c, 0, 69, 127
2, 51792, Note_off_c, 0, 69, 0
2, 51792, Note_on_c, 0, 81, 127
2, 51816, Note_off_c, 0, 81, 0
2, 51816, Note_on_c, 0, 79, 127
2, 51840, Note_off_c, 0, 79, 0
2, 51840, Note_on_c, 0, 78, 127
2, 51864, Note_off_c, 0, 78, 0
2, 51864, Note_on_c, 0, 76, 127
2, 51888, Note_off_c, 0, 76, 0
2, 51888, Note_on_c, 0, 75, 127
2, 52080, Note_off_c, 0, 75, 0
2, 52080, Note_on_c, 0, 76, 127
2, 52128, Note_off_c, 0, 76, 0
2, 52128, Note_on_c, 0, 74, 127
2, 52224, Note_off_c, 0, 74, 0
2, 52224, Note_on_c, 0, 72, 127
2, 52272, Note_off_c, 0, 72, 0
2, 52272, Note_on_c, 0, 71, 127
2, 52368, Note_off_c, 0, 71, 0
2, 52368, Note_on_c, 0, 69, 127
2, 52416, Note_off_c, 0, 69, 0
2, 52416, Note_on_c, 0, 67, 127
2, 52512, Note_off_c, 0, 67, 0
2, 52512, Note_on_c, 0, 65, 127
2, 52560, Note_off_c, 0, 65, 0
2, 52560, Note_on_c, 0, 64, 127
2, 52608, Note_off_c, 0, 64, 0
2, 52608, Note_on_c, 0, 63, 127
2, 52632, Note_off_c, 0, 63, 0
2, 52632, Note_on_c, 0, 66, 127
2, 52656, Note_off_c, 0, 66, 0
2, 52656, Note_on_c, 0, 69, 127
2, 52680, Note_off_c, 0, 69, 0
2, 52680, Note_on_c, 0, 72, 127
2, 52704, Note_off_c, 0, 72, 0
2, 52704, Note_on_c, 0, 71, 127
2, 52776, Note_off_c, 0, 71, 0
2, 52776, Note_on_c, 0, 69, 127
2, 52800, Note_off_c, 0, 69, 0
2, 52800, Note_on_c, 0, 67, 127
2, 52848, Note_off_c, 0, 67, 0
2, 52848, Note_on_c, 0, 66, 127
2, 52896, Note_off_c, 0, 66, 0
2, 52896, Note_on_c, 0, 64, 127
2, 52920, Note_off_c, 0, 64, 0
2, 52920, Note_on_c, 0, 66, 127
2, 52944, Note_off_c, 0, 66, 0
2, 52944, Note_on_c, 0, 67, 127
2, 52968, Note_off_c, 0, 67, 0
2, 52968, Note_on_c, 0, 66, 127
2, 52992, Note_off_c, 0, 66, 0
2, 52992, Note_on_c, 0, 67, 127
2, 53016, Note_off_c, 0, 67, 0
2, 53016, Note_on_c, 0, 64, 127
2, 53040, Note_off_c, 0, 64, 0
2, 53040, Note_on_c, 0, 66, 127
2, 53064, Note_off_c, 0, 66, 0
2, 53064, Note_on_c, 0, 59, 127
2, 53088, Note_off_c, 0, 59, 0
2, 53088, Note_on_c, 0, 63, 127
2, 53112, Note_off_c, 0, 63, 0
2, 53112, Note_on_c, 0, 66, 127
2, 53136, Note_off_c, 0, 66, 0
2, 53136, Note_on_c, 0, 71, 127
2, 53160, Note_off_c, 0, 71, 0
2, 53160, Note_on_c, 0, 66, 127
2, 53184, Note_off_c, 0, 66, 0
2, 53184, Note_on_c, 0, 67, 127
2, 53232, Note_off_c, 0, 67, 0
2, 53232, Note_on_c, 0, 59, 127
2, 53280, Note_off_c, 0, 59, 0
2, 53280, Note_on_c, 0, 64, 127
2, 53328, Note_off_c, 0, 64, 0
2, 53328, Note_on_c, 0, 64, 127
2, 53376, Note_off_c, 0, 64, 0
2, 53376, Note_on_c, 0, 63, 127
2, 53400, Note_off_c, 0, 63, 0
2, 53400, Note_on_c, 0, 61, 127
2, 53424, Note_off_c, 0, 61, 0
2, 53424, Note_on_c, 0, 63, 127
2, 53472, Note_off_c, 0, 63, 0
2, 53472, Note_on_c, 0, 64, 127
2, 53520, Note_off_c, 0, 64, 0
2, 53520, Note_on_c, 0, 71, 127
2, 53568, Note_off_c, 0, 71, 0
2, 53568, Note_on_c, 0, 76, 127
2, 53664, Note_off_c, 0, 76, 0
2, 53664, Note_on_c, 0, 75, 127
2, 53688, Note_off_c, 0, 75, 0
2, 53688, Note_on_c, 0, 73, 127
2, 53712, Note_off_c, 0, 73, 0
2, 53712, Note_on_c, 0, 75, 127
2, 53736, Note_off_c, 0, 75, 0
2, 53760, Note_on_c, 0, 76, 127
2, 53880, Note_off_c, 0, 76, 0
2, 53880, Note_on_c, 0, 71, 127
2, 53904, Note_off_c, 0, 71, 0
2, 53904, Note_on_c, 0, 72, 127
2, 53928, Note_off_c, 0, 72, 0
2, 53928, Note_on_c, 0, 71, 127
2, 53952, Note_off_c, 0, 71, 0
2, 53952, Note_on_c, 0, 72, 127
2, 53976, Note_off_c, 0, 72, 0
2, 53976, Note_on_c, 0, 69, 127
2, 54000, Note_off_c, 0, 69, 0
2, 54000, Note_on_c, 0, 72, 127
2, 54024, Note_off_c, 0, 72, 0
2, 54024, Note_on_c, 0, 67, 127
2, 54048, Note_off_c, 0, 67, 0
2, 54048, Note_on_c, 0, 72, 127
2, 54072, Note_off_c, 0, 72, 0
2, 54072, Note_on_c, 0, 69, 127
2, 54096, Note_off_c, 0, 69, 0
2, 54096, Note_on_c, 0, 72, 127
2, 54120, Note_off_c, 0, 72, 0
2, 54120, Note_on_c, 0, 66, 127
2, 54144, Note_off_c, 0, 66, 0
2, 54144, Note_on_c, 0, 72, 127
2, 54168, Note_off_c, 0, 72, 0
2, 54168, Note_on_c, 0, 62, 127
2, 54192, Note_off_c, 0, 62, 0
2, 54192, Note_on_c, 0, 71, 127
2, 54216, Note_off_c, 0, 71, 0
2, 54216, Note_on_c, 0, 69, 127
2, 54240, Note_off_c, 0, 69, 0
2, 54240, Note_on_c, 0, 71, 127
2, 54264, Note_off_c, 0, 71, 0
2, 54264, Note_on_c, 0, 67, 127
2, 54288, Note_off_c, 0, 67, 0
2, 54288, Note_on_c, 0, 71, 127
2, 54312, Note_off_c, 0, 71, 0
2, 54312, Note_on_c, 0, 66, 127
2, 54336, Note_off_c, 0, 66, 0
2, 54336, Note_on_c, 0, 72, 127
2, 54624, Note_off_c, 0, 72, 0
2, 54624, Note_on_c, 0, 71, 127
2, 54816, Note_off_c, 0, 71, 0
2, 54816, Note_on_c, 0, 67, 127
2, 54864, Note_off_c, 0, 67, 0
2, 54864, Note_on_c, 0, 76, 127
2, 54912, Note_off_c, 0, 76, 0
2, 54912, Note_on_c, 0, 73, 127
2, 54960, Note_off_c, 0, 73, 0
2, 54960, Note_on_c, 0, 69, 127
2, 55008, Note_off_c, 0, 69, 0
2, 55008, Note_on_c, 0, 73, 127
2, 55056, Note_off_c, 0, 73, 0
2, 55056, Note_on_c, 0, 74, 127
2, 55104, Note_off_c, 0, 74, 0
2, 55104, Note_on_c, 0, 69, 127
2, 55152, Note_off_c, 0, 69, 0
2, 55152, Note_on_c, 0, 74, 127
2, 55200, Note_off_c, 0, 74, 0
2, 55200, Note_on_c, 0, 71, 127
2, 55248, Note_off_c, 0, 71, 0
2, 55248, Note_on_c, 0, 67, 127
2, 55296, Note_off_c, 0, 67, 0
2, 55296, Note_on_c, 0, 71, 127
2, 55344, Note_off_c, 0, 71, 0
2, 55344, Note_on_c, 0, 72, 127
2, 55392, Note_off_c, 0, 72, 0
2, 55392, Note_on_c, 0, 76, 127
2, 55440, Note_off_c, 0, 76, 0
2, 55440, Note_on_c, 0, 72, 127
2, 55488, Note_off_c, 0, 72, 0
2, 55488, Note_on_c, 0, 69, 127
2, 55536, Note_off_c, 0, 69, 0
2, 55536, Note_on_c, 0, 65, 127
2, 55584, Note_off_c, 0, 65, 0
2, 55584, Note_on_c, 0, 69, 127
2, 55632, Note_off_c, 0, 69, 0
2, 55632, Note_on_c, 0, 71, 127
2, 55680, Note_off_c, 0, 71, 0
2, 55680, Note_on_c, 0, 74, 127
2, 55728, Note_off_c, 0, 74, 0
2, 55728, Note_on_c, 0, 71, 127
2, 55776, Note_off_c, 0, 71, 0
2, 55776, Note_on_c, 0, 68, 127
2, 55824, Note_off_c, 0, 68, 0
2, 55824, Note_on_c, 0, 56, 127
2, 55872, Note_off_c, 0, 56, 0
2, 55872, Note_on_c, 0, 59, 127
2, 55920, Note_off_c, 0, 59, 0
2, 55920, Note_on_c, 0, 69, 127
2, 56088, Note_off_c, 0, 69, 0
2, 56088, Note_on_c, 0, 71, 127
2, 56112, Note_off_c, 0, 71, 0
2, 56112, Note_on_c, 0, 72, 127
2, 56136, Note_off_c, 0, 72, 0
2, 56136, Note_on_c, 0, 74, 127
2, 56160, Note_off_c, 0, 74, 0
2, 56160, Note_on_c, 0, 76, 127
2, 56184, Note_off_c, 0, 76, 0
2, 56184, Note_on_c, 0, 77, 127
2, 56208, Note_off_c, 0, 77, 0
2, 56208, Note_on_c, 0, 68, 127
2, 56232, Note_off_c, 0, 68, 0
2, 56232, Note_on_c, 0, 69, 127
2, 56256, Note_off_c, 0, 69, 0
2, 56256, Note_on_c, 0, 68, 127
2, 56304, Note_off_c, 0, 68, 0
2, 56304, Note_on_c, 0, 69, 127
2, 56352, Note_off_c, 0, 69, 0
2, 56352, Note_on_c, 0, 77, 127
2, 56376, Note_off_c, 0, 77, 0
2, 56376, Note_on_c, 0, 76, 127
2, 56400, Note_off_c, 0, 76, 0
2, 56400, Note_on_c, 0, 74, 127
2, 56424, Note_off_c, 0, 74, 0
2, 56424, Note_on_c, 0, 77, 127
2, 56448, Note_off_c, 0, 77, 0
2, 56448, Note_on_c, 0, 76, 127
2, 56472, Note_off_c, 0, 76, 0
2, 56472, Note_on_c, 0, 74, 127
2, 56496, Note_off_c, 0, 74, 0
2, 56496, Note_on_c, 0, 72, 127
2, 56520, Note_off_c, 0, 72, 0
2, 56520, Note_on_c, 0, 76, 127
2, 56544, Note_off_c, 0, 76, 0
2, 56544, Note_on_c, 0, 74, 127
2, 56568, Note_off_c, 0, 74, 0
2, 56568, Note_on_c, 0, 72, 127
2, 56592, Note_off_c, 0, 72, 0
2, 56592, Note_on_c, 0, 71, 127
2, 56616, Note_off_c, 0, 71, 0
2, 56616, Note_on_c, 0, 69, 127
2, 56640, Note_off_c, 0, 69, 0
2, 56640, Note_on_c, 0, 68, 127
2, 56652, Note_off_c, 0, 68, 0
2, 56652, Note_on_c, 0, 67, 127
2, 56664, Note_off_c, 0, 67, 0
2, 56664, Note_on_c, 0, 68, 127
2, 56784, Note_off_c, 0, 68, 0
2, 56784, Note_on_c, 0, 69, 127
2, 56904, Note_off_c, 0, 69, 0
2, 56904, Note_on_c, 0, 57, 127
2, 56928, Note_off_c, 0, 57, 0
2, 56928, Note_on_c, 0, 55, 127
2, 57024, Note_off_c, 0, 55, 0
2, 57072, Note_on_c, 0, 69, 127
2, 57168, Note_off_c, 0, 69, 0
2, 57216, Note_on_c, 0, 71, 127
2, 57648, Note_off_c, 0, 71, 0
2, 57648, Note_on_c, 0, 69, 127
2, 57792, Note_off_c, 0, 69, 0
2, 57792, Note_on_c, 0, 69, 127
2, 57840, Note_off_c, 0, 69, 0
2, 57840, Note_on_c, 0, 68, 127
2, 57888, Note_off_c, 0, 68, 0
2, 57888, Note_on_c, 0, 69, 127
2, 57936, Note_off_c, 0, 69, 0
2, 57936, Note_on_c, 0, 71, 127
2, 58128, Note_off_c, 0, 71, 0
2, 58128, Note_on_c, 0, 69, 127
2, 58152, Note_off_c, 0, 69, 0
2, 58152, Note_on_c, 0, 68, 127
2, 58176, Note_off_c, 0, 68, 0
2, 58176, Note_on_c, 0, 69, 127
2, 58224, Note_off_c, 0, 69, 0
2, 58224, Note_on_c, 0, 74, 127
2, 58272, Note_off_c, 0, 74, 0
2, 58272, Note_on_c, 0, 71, 127
2, 58416, Note_off_c, 0, 71, 0
2, 58416, Note_on_c, 0, 64, 127
2, 58464, Note_off_c, 0, 64, 0
2, 58464, Note_on_c, 0, 69, 127
2, 58656, Note_off_c, 0, 69, 0
2, 58656, Note_on_c, 0, 67, 127
2, 58944, Note_off_c, 0, 67, 0
2, 58944, Note_on_c, 0, 65, 127
2, 59232, Note_off_c, 0, 65, 0
2, 59232, Note_on_c, 0, 64, 127
2, 59376, Note_off_c, 0, 64, 0
2, 59376, Note_on_c, 0, 64, 127
2, 59472, Note_off_c, 0, 64, 0
2, 59472, Note_on_c, 0, 66, 127
2, 59520, Note_off_c, 0, 66, 0
2, 59520, Note_on_c, 0, 68, 127
2, 59616, Note_off_c, 0, 68, 0
2, 59616, Note_on_c, 0, 68, 127
2, 59664, Note_off_c, 0, 68, 0
2, 59664, Note_on_c, 0, 69, 127
2, 59760, Note_off_c, 0, 69, 0
2, 59760, Note_on_c, 0, 69, 127
2, 59808, Note_off_c, 0, 69, 0
2, 59808, Note_on_c, 0, 71, 127
2, 59856, Note_off_c, 0, 71, 0
2, 59856, Note_on_c, 0, 74, 127
2, 59904, Note_off_c, 0, 74, 0
2, 59904, Note_on_c, 0, 72, 127
2, 59952, Note_off_c, 0, 72, 0
2, 59952, Note_on_c, 0, 69, 127
2, 60000, Note_off_c, 0, 69, 0
2, 60000, Note_on_c, 0, 72, 127
2, 60048, Note_off_c, 0, 72, 0
2, 60048, Note_on_c, 0, 69, 127
2, 60096, Note_off_c, 0, 69, 0
2, 60096, Note_on_c, 0, 68, 127
2, 60192, Note_off_c, 0, 68, 0
2, 60192, Note_on_c, 0, 68, 127
2, 60240, Note_off_c, 0, 68, 0
2, 60240, Note_on_c, 0, 66, 127
2, 60336, Note_off_c, 0, 66, 0
2, 60336, Note_on_c, 0, 66, 127
2, 60384, Note_off_c, 0, 66, 0
2, 60384, Note_on_c, 0, 65, 127
2, 60480, Note_off_c, 0, 65, 0
2, 60528, Note_on_c, 0, 64, 127
2, 60624, Note_off_c, 0, 64, 0
2, 60672, Note_on_c, 0, 68, 127
2, 60768, Note_off_c, 0, 68, 0
2, 60816, Note_on_c, 0, 68, 127
2, 60912, Note_off_c, 0, 68, 0
2, 60960, Note_on_c, 0, 69, 127
2, 61056, Note_off_c, 0, 69, 0
2, 62412, Note_on_c, 0, 81, 127
2, 62424, Note_off_c, 0, 81, 0
2, 62424, Note_on_c, 0, 83, 127
2, 62436, Note_off_c, 0, 83, 0
2, 62436, Note_on_c, 0, 84, 127
2, 62448, Note_off_c, 0, 84, 0
2, 62448, Note_on_c, 0, 83, 127
2, 62460, Note_off_c, 0, 83, 0
2, 62460, Note_on_c, 0, 81, 127
2, 62472, Note_off_c, 0, 81, 0
2, 62472, Note_on_c, 0, 80, 127
2, 62484, Note_off_c, 0, 80, 0
2, 62484, Note_on_c, 0, 81, 127
2, 62496, Note_off_c, 0, 81, 0
2, 62496, Note_on_c, 0, 78, 127
2, 62508, Note_off_c, 0, 78, 0
2, 62508, Note_on_c, 0, 81, 127
2, 62520, Note_off_c, 0, 81, 0
2, 62520, Note_on_c, 0, 83, 127
2, 62532, Note_off_c, 0, 83, 0
2, 62532, Note_on_c, 0, 84, 127
2, 62544, Note_off_c, 0, 84, 0
2, 62544, Note_on_c, 0, 75, 127
2, 62556, Note_off_c, 0, 75, 0
2, 62556, Note_on_c, 0, 81, 127
2, 62568, Note_off_c, 0, 81, 0
2, 62568, Note_on_c, 0, 83, 127
2, 62580, Note_off_c, 0, 83, 0
2, 62580, Note_on_c, 0, 84, 127
2, 62592, Note_off_c, 0, 84, 0
2, 62592, Note_on_c, 0, 83, 127
2, 62604, Note_off_c, 0, 83, 0
2, 62604, Note_on_c, 0, 81, 127
2, 62616, Note_off_c, 0, 81, 0
2, 62616, Note_on_c, 0, 80, 127
2, 62628, Note_off_c, 0, 80, 0
2, 62628, Note_on_c, 0, 81, 127
2, 62640, Note_off_c, 0, 81, 0
2, 62640, Note_on_c, 0, 75, 127
2, 62652, Note_off_c, 0, 75, 0
2, 62652, Note_on_c, 0, 78, 127
2, 62664, Note_off_c, 0, 78, 0
2, 62664, Note_on_c, 0, 80, 127
2, 62676, Note_off_c, 0, 80, 0
2, 62676, Note_on_c, 0, 81, 127
2, 62688, Note_off_c, 0, 81, 0
2, 62688, Note_on_c, 0, 72, 127
2, 62700, Note_off_c, 0, 72, 0
2, 62700, Note_on_c, 0, 81, 127
2, 62712, Note_off_c, 0, 81, 0
2, 62712, Note_on_c, 0, 83, 127
2, 62724, Note_off_c, 0, 83, 0
2, 62724, Note_on_c, 0, 84, 127
2, 62736, Note_off_c, 0, 84, 0
2, 62736, Note_on_c, 0, 83, 127
2, 62748, Note_off_c, 0, 83, 0
2, 62748, Note_on_c, 0, 81, 127
2, 62760, Note_off_c, 0, 81, 0
2, 62760, Note_on_c, 0, 80, 127
2, 62772, Note_off_c, 0, 80, 0
2, 62772, Note_on_c, 0, 81, 127
2, 62784, Note_off_c, 0, 81, 0
2, 62784, Note_on_c, 0, 72, 127
2, 62796, Note_off_c, 0, 72, 0
2, 62796, Note_on_c, 0, 75, 127
2, 62808, Note_off_c, 0, 75, 0
2, 62808, Note_on_c, 0, 76, 127
2, 62820, Note_off_c, 0, 76, 0
2, 62820, Note_on_c, 0, 78, 127
2, 62832, Note_off_c, 0, 78, 0
2, 62832, Note_on_c, 0, 69, 127
2, 62844, Note_off_c, 0, 69, 0
2, 62844, Note_on_c, 0, 81, 127
2, 62856, Note_off_c, 0, 81, 0
2, 62856, Note_on_c, 0, 83, 127
2, 62868, Note_off_c, 0, 83, 0
2, 62868, Note_on_c, 0, 84, 127
2, 62880, Note_off_c, 0, 84, 0
2, 62880, Note_on_c, 0, 83, 127
2, 62892, Note_off_c, 0, 83, 0
2, 62892, Note_on_c, 0, 81, 127
2, 62904, Note_off_c, 0, 81, 0
2, 62904, Note_on_c, 0, 80, 127
2, 62916, Note_off_c, 0, 80, 0
2, 62916, Note_on_c, 0, 81, 127
2, 62928, Note_off_c, 0, 81, 0
2, 62928, Note_on_c, 0, 78, 127
2, 62940, Note_off_c, 0, 78, 0
2, 62940, Note_on_c, 0, 81, 127
2, 62952, Note_off_c, 0, 81, 0
2, 62952, Note_on_c, 0, 83, 127
2, 62964, Note_off_c, 0, 83, 0
2, 62964, Note_on_c, 0, 84, 127
2, 62976, Note_off_c, 0, 84, 0
2, 62976, Note_on_c, 0, 75, 127
2, 62988, Note_off_c, 0, 75, 0
2, 62988, Note_on_c, 0, 78, 127
2, 63000, Note_off_c, 0, 78, 0
2, 63000, Note_on_c, 0, 79, 127
2, 63012, Note_off_c, 0, 79, 0
2, 63012, Note_on_c, 0, 81, 127
2, 63024, Note_off_c, 0, 81, 0
2, 63024, Note_on_c, 0, 72, 127
2, 63036, Note_off_c, 0, 72, 0
2, 63036, Note_on_c, 0, 75, 127
2, 63048, Note_off_c, 0, 75, 0
2, 63048, Note_on_c, 0, 76, 127
2, 63060, Note_off_c, 0, 76, 0
2, 63060, Note_on_c, 0, 78, 127
2, 63072, Note_off_c, 0, 78, 0
2, 63072, Note_on_c, 0, 69, 127
2, 63084, Note_off_c, 0, 69, 0
2, 63084, Note_on_c, 0, 72, 127
2, 63096, Note_off_c, 0, 72, 0
2, 63096, Note_on_c, 0, 71, 127
2, 63108, Note_off_c, 0, 71, 0
2, 63108, Note_on_c, 0, 69, 127
2, 63120, Note_off_c, 0, 69, 0
2, 63120, Note_on_c, 0, 68, 127
2, 63132, Note_off_c, 0, 68, 0
2, 63132, Note_on_c, 0, 71, 127
2, 63144, Note_off_c, 0, 71, 0
2, 63144, Note_on_c, 0, 72, 127
2, 63156, Note_off_c, 0, 72, 0
2, 63156, Note_on_c, 0, 74, 127
2, 63168, Note_off_c, 0, 74, 0
2, 63168, Note_on_c, 0, 72, 127
2, 63180, Note_off_c, 0, 72, 0
2, 63180, Note_on_c, 0, 71, 127
2, 63192, Note_off_c, 0, 71, 0
2, 63192, Note_on_c, 0, 69, 127
2, 63204, Note_off_c, 0, 69, 0
2, 63204, Note_on_c, 0, 71, 127
2, 63216, Note_off_c, 0, 71, 0
2, 63216, Note_on_c, 0, 68, 127
2, 63228, Note_off_c, 0, 68, 0
2, 63228, Note_on_c, 0, 71, 127
2, 63240, Note_off_c, 0, 71, 0
2, 63240, Note_on_c, 0, 72, 127
2, 63252, Note_off_c, 0, 72, 0
2, 63252, Note_on_c, 0, 74, 127
2, 63264, Note_off_c, 0, 74, 0
2, 63264, Note_on_c, 0, 65, 127
2, 63276, Note_off_c, 0, 65, 0
2, 63276, Note_on_c, 0, 71, 118
2, 63288, Note_off_c, 0, 71, 0
2, 63288, Note_on_c, 0, 72, 118
2, 63300, Note_off_c, 0, 72, 0
2, 63300, Note_on_c, 0, 74, 118
2, 63312, Note_off_c, 0, 74, 0
2, 63312, Note_on_c, 0, 72, 118
2, 63324, Note_off_c, 0, 72, 0
2, 63324, Note_on_c, 0, 71, 118
2, 63336, Note_off_c, 0, 71, 0
2, 63336, Note_on_c, 0, 69, 118
2, 63348, Note_off_c, 0, 69, 0
2, 63348, Note_on_c, 0, 71, 118
2, 63360, Note_off_c, 0, 71, 0
2, 63360, Note_on_c, 0, 65, 110
2, 63384, Note_off_c, 0, 65, 0
2, 63384, Note_on_c, 0, 72, 118
2, 63396, Note_off_c, 0, 72, 0
2, 63396, Note_on_c, 0, 74, 118
2, 63408, Note_off_c, 0, 74, 0
2, 63408, Note_on_c, 0, 62, 110
2, 63456, Note_off_c, 0, 62, 0
2, 63456, Note_on_c, 0, 72, 118
2, 63468, Note_off_c, 0, 72, 0
2, 63468, Note_on_c, 0, 71, 118
2, 63480, Note_off_c, 0, 71, 0
2, 63480, Note_on_c, 0, 69, 118
2, 63492, Note_off_c, 0, 69, 0
2, 63492, Note_on_c, 0, 71, 118
2, 63504, Note_off_c, 0, 71, 0
2, 63504, Note_on_c, 0, 62, 110
2, 63528, Note_off_c, 0, 62, 0
2, 63528, Note_on_c, 0, 72, 118
2, 63540, Note_off_c, 0, 72, 0
2, 63540, Note_on_c, 0, 74, 118
2, 63552, Note_off_c, 0, 74, 0
2, 63552, Note_on_c, 0, 59, 110
2, 63600, Note_off_c, 0, 59, 0
2, 63600, Note_on_c, 0, 72, 118
2, 63612, Note_off_c, 0, 72, 0
2, 63612, Note_on_c, 0, 71, 118
2, 63624, Note_off_c, 0, 71, 0
2, 63624, Note_on_c, 0, 69, 118
2, 63636, Note_off_c, 0, 69, 0
2, 63636, Note_on_c, 0, 71, 118
2, 63648, Note_off_c, 0, 71, 0
2, 63648, Note_on_c, 0, 59, 110
2, 63672, Note_off_c, 0, 59, 0
2, 63672, Note_on_c, 0, 72, 118
2, 63684, Note_off_c, 0, 72, 0
2, 63684, Note_on_c, 0, 74, 118
2, 63696, Note_off_c, 0, 74, 0
2, 63696, Note_on_c, 0, 56, 127
2, 63702, Note_off_c, 0, 56, 0
2, 63702, Note_on_c, 0, 59, 127
2, 63714, Note_off_c, 0, 59, 0
2, 63714, Note_on_c, 0, 64, 127
2, 63720, Note_off_c, 0, 64, 0
2, 63720, Note_on_c, 0, 63, 127
2, 63726, Note_off_c, 0, 63, 0
2, 63726, Note_on_c, 0, 71, 127
2, 63738, Note_off_c, 0, 71, 0
2, 63738, Note_on_c, 0, 65, 127
2, 63744, Note_off_c, 0, 65, 0
2, 63744, Note_on_c, 0, 56, 127
2, 63750, Note_off_c, 0, 56, 0
2, 63750, Note_on_c, 0, 59, 127
2, 63762, Note_off_c, 0, 59, 0
2, 63762, Note_on_c, 0, 64, 127
2, 63768, Note_off_c, 0, 64, 0
2, 63768, Note_on_c, 0, 63, 127
2, 63774, Note_off_c, 0, 63, 0
2, 63774, Note_on_c, 0, 71, 127
2, 63786, Note_off_c, 0, 71, 0
2, 63786, Note_on_c, 0, 65, 127
2, 63792, Note_off_c, 0, 65, 0
2, 63792, Note_on_c, 0, 56, 127
2, 63798, Note_off_c, 0, 56, 0
2, 63798, Note_on_c, 0, 59, 127
2, 63810, Note_off_c, 0, 59, 0
2, 63810, Note_on_c, 0, 64, 127
2, 63816, Note_off_c, 0, 64, 0
2, 63816, Note_on_c, 0, 63, 127
2, 63822, Note_off_c, 0, 63, 0
2, 63822, Note_on_c, 0, 71, 127
2, 63834, Note_off_c, 0, 71, 0
2, 63834, Note_on_c, 0, 65, 127
2, 63840, Note_off_c, 0, 65, 0
2, 63888, Note_on_c, 0, 60, 127
2, 63936, Note_off_c, 0, 60, 0
2, 63936, Note_on_c, 0, 62, 127
2, 63984, Note_off_c, 0, 62, 0
2, 63984, Note_on_c, 0, 60, 127
2, 64128, Note_off_c, 0, 60, 0
2, 64128, End_track
3, 0, Start_track
3, 0, Title_t, "Track3"
3, 0, Program_c, 1, 19
3, 0, Control_c, 1, 7, 100
3, 0, Control_c, 1, 10, 64
3, 8832, Note_on_c, 1, 57, 127
3, 9216, Note_off_c, 1, 57, 0
3, 9216, Note_on_c, 1, 59, 76
3, 9372, Note_off_c, 1, 59, 0
3, 10872, Note_on_c, 1, 64, 127
3, 10896, Note_off_c, 1, 64, 0
3, 10896, Note_on_c, 1, 65, 127
3, 10920, Note_off_c, 1, 65, 0
3, 10920, Note_on_c, 1, 61, 127
3, 10944, Note_off_c, 1, 61, 0
3, 10944, Note_on_c, 1, 62, 127
3, 11136, Note_off_c, 1, 62, 0
3, 11712, Note_on_c, 1, 45, 127
3, 11760, Note_off_c, 1, 45, 0
3, 11760, Note_on_c, 1, 52, 127
3, 11808, Note_off_c, 1, 52, 0
3, 11808, Note_on_c, 1, 57, 127
3, 11856, Note_off_c, 1, 57, 0
3, 11856, Note_on_c, 1, 59, 127
3, 11904, Note_off_c, 1, 59, 0
3, 14208, Note_on_c, 1, 60, 127
3, 14232, Note_off_c, 1, 60, 0
3, 14232, Note_on_c, 1, 64, 127
3, 14256, Note_off_c, 1, 64, 0
3, 14256, Note_on_c, 1, 67, 127
3, 14280, Note_off_c, 1, 67, 0
3, 14280, Note_on_c, 1, 64, 127
3, 14304, Note_off_c, 1, 64, 0
3, 14304, Note_on_c, 1, 70, 127
3, 14328, Note_off_c, 1, 70, 0
3, 14328, Note_on_c, 1, 64, 127
3, 14352, Note_off_c, 1, 64, 0
3, 14352, Note_on_c, 1, 67, 127
3, 14376, Note_off_c, 1, 67, 0
3, 14376, Note_on_c, 1, 64, 127
3, 14400, Note_off_c, 1, 64, 0
3, 14400, Note_on_c, 1, 69, 127
3, 14424, Note_off_c, 1, 69, 0
3, 14424, Note_on_c, 1, 62, 127
3, 14448, Note_off_c, 1, 62, 0
3, 14448, Note_on_c, 1, 65, 127
3, 14472, Note_off_c, 1, 65, 0
3, 14472, Note_on_c, 1, 62, 127
3, 14496, Note_off_c, 1, 62, 0
3, 14496, Note_on_c, 1, 67, 127
3, 14520, Note_off_c, 1, 67, 0
3, 14520, Note_on_c, 1, 60, 127
3, 14544, Note_off_c, 1, 60, 0
3, 14544, Note_on_c, 1, 64, 127
3, 14568, Note_off_c, 1, 64, 0
3, 14568, Note_on_c, 1, 60, 127
3, 14592, Note_off_c, 1, 60, 0
3, 14808, Note_on_c, 1, 50, 127
3, 14832, Note_off_c, 1, 50, 0
3, 14832, Note_on_c, 1, 53, 127
3, 14856, Note_off_c, 1, 53, 0
3, 14856, Note_on_c, 1, 50, 127
3, 14880, Note_off_c, 1, 50, 0
3, 14880, Note_on_c, 1, 56, 127
3, 14904, Note_off_c, 1, 56, 0
3, 14904, Note_on_c, 1, 56, 127
3, 14928, Note_off_c, 1, 56, 0
3, 14928, Note_on_c, 1, 59, 127
3, 14952, Note_off_c, 1, 59, 0
3, 14952, Note_on_c, 1, 56, 127
3, 14976, Note_off_c, 1, 56, 0
3, 14976, Note_on_c, 1, 57, 127
3, 15264, Note_off_c, 1, 57, 0
3, 16728, Note_on_c, 1, 57, 127
3, 16752, Note_off_c, 1, 57, 0
3, 16752, Note_on_c, 1, 55, 127
3, 16776, Note_off_c, 1, 55, 0
3, 16776, Note_on_c, 1, 57, 127
3, 16800, Note_off_c, 1, 57, 0
3, 16800, Note_on_c, 1, 50, 127
3, 16824, Note_off_c, 1, 50, 0
3, 16824, Note_on_c, 1, 62, 127
3, 16848, Note_off_c, 1, 62, 0
3, 16848, Note_on_c, 1, 55, 127
3, 16872, Note_off_c, 1, 55, 0
3, 16872, Note_on_c, 1, 59, 127
3, 16896, Note_off_c, 1, 59, 0
3, 16896, Note_on_c, 1, 60, 127
3, 16920, Note_off_c, 1, 60, 0
3, 16920, Note_on_c, 1, 52, 127
3, 16944, Note_off_c, 1, 52, 0
3, 16944, Note_on_c, 1, 50, 127
3, 16968, Note_off_c, 1, 50, 0
3, 16968, Note_on_c, 1, 52, 127
3, 16992, Note_off_c, 1, 52, 0
3, 16992, Note_on_c, 1, 53, 127
3, 17040, Note_off_c, 1, 53, 0
3, 17040, Note_on_c, 1, 53, 127
3, 17088, Note_off_c, 1, 53, 0
3, 17088, Note_on_c, 1, 53, 127
3, 17136, Note_off_c, 1, 53, 0
3, 17136, Note_on_c, 1, 59, 127
3, 17184, Note_off_c, 1, 59, 0
3, 17184, Note_on_c, 1, 59, 127
3, 17232, Note_off_c, 1, 59, 0
3, 17232, Note_on_c, 1, 59, 127
3, 17280, Note_off_c, 1, 59, 0
3, 17280, Note_on_c, 1, 57, 127
3, 17376, Note_off_c, 1, 57, 0
3, 18168, Note_on_c, 1, 64, 127
3, 18192, Note_off_c, 1, 64, 0
3, 18192, Note_on_c, 1, 62, 127
3, 18216, Note_off_c, 1, 62, 0
3, 18216, Note_on_c, 1, 64, 127
3, 18240, Note_off_c, 1, 64, 0
3, 18240, Note_on_c, 1, 60, 127
3, 18312, Note_off_c, 1, 60, 0
3, 18312, Note_on_c, 1, 59, 127
3, 18324, Note_off_c, 1, 59, 0
3, 18324, Note_on_c, 1, 57, 127
3, 18336, Note_off_c, 1, 57, 0
3, 18336, Note_on_c, 1, 59, 127
3, 18408, Note_off_c, 1, 59, 0
3, 18408, Note_on_c, 1, 62, 127
3, 18432, Note_off_c, 1, 62, 0
3, 18648, Note_on_c, 1, 69, 127
3, 18672, Note_off_c, 1, 69, 0
3, 18672, Note_on_c, 1, 67, 127
3, 18696, Note_off_c, 1, 67, 0
3, 18696, Note_on_c, 1, 69, 127
3, 18720, Note_off_c, 1, 69, 0
3, 18720, Note_on_c, 1, 65, 127
3, 18792, Note_off_c, 1, 65, 0
3, 18792, Note_on_c, 1, 64, 127
3, 18804, Note_off_c, 1, 64, 0
3, 18804, Note_on_c, 1, 62, 127
3, 18816, Note_off_c, 1, 62, 0
3, 18816, Note_on_c, 1, 64, 127
3, 18888, Note_off_c, 1, 64, 0
3, 18888, Note_on_c, 1, 67, 127
3, 18912, Note_off_c, 1, 67, 0
3, 18912, Note_on_c, 1, 65, 127
3, 19032, Note_off_c, 1, 65, 0
3, 19032, Note_on_c, 1, 64, 127
3, 19056, Note_off_c, 1, 64, 0
3, 19056, Note_on_c, 1, 65, 127
3, 19080, Note_off_c, 1, 65, 0
3, 19080, Note_on_c, 1, 64, 127
3, 19104, Note_off_c, 1, 64, 0
3, 19104, Note_on_c, 1, 65, 127
3, 19224, Note_off_c, 1, 65, 0
3, 19224, Note_on_c, 1, 64, 127
3, 19248, Note_off_c, 1, 64, 0
3, 19248, Note_on_c, 1, 65, 127
3, 19272, Note_off_c, 1, 65, 0
3, 19272, Note_on_c, 1, 64, 127
3, 19296, Note_off_c, 1, 64, 0
3, 19296, Note_on_c, 1, 65, 127
3, 19416, Note_off_c, 1, 65, 0
3, 19416, Note_on_c, 1, 64, 127
3, 19440, Note_off_c, 1, 64, 0
3, 19440, Note_on_c, 1, 65, 127
3, 19464, Note_off_c, 1, 65, 0
3, 19464, Note_on_c, 1, 67, 127
3, 19488, Note_off_c, 1, 67, 0
3, 19488, Note_on_c, 1, 69, 127
3, 19680, Note_off_c, 1, 69, 0
3, 19680, Note_on_c, 1, 62, 127
3, 19728, Note_off_c, 1, 62, 0
3, 19728, Note_on_c, 1, 61, 127
3, 19776, Note_off_c, 1, 61, 0
3, 19776, Note_on_c, 1, 69, 127
3, 19872, Note_off_c, 1, 69, 0
3, 19896, Note_on_c, 1, 65, 127
3, 19920, Note_off_c, 1, 65, 0
3, 19920, Note_on_c, 1, 64, 127
3, 19944, Note_off_c, 1, 64, 0
3, 19944, Note_on_c, 1, 62, 127
3, 19968, Note_off_c, 1, 62, 0
3, 19968, Note_on_c, 1, 61, 127
3, 20016, Note_off_c, 1, 61, 0
3, 20016, Note_on_c, 1, 62, 127
3, 20040, Note_off_c, 1, 62, 0
3, 20040, Note_on_c, 1, 64, 127
3, 20064, Note_off_c, 1, 64, 0
3, 20064, Note_on_c, 1, 65, 127
3, 20088, Note_off_c, 1, 65, 0
3, 20088, Note_on_c, 1, 62, 127
3, 20112, Note_off_c, 1, 62, 0
3, 20112, Note_on_c, 1, 61, 127
3, 20136, Note_off_c, 1, 61, 0
3, 20136, Note_on_c, 1, 59, 127
3, 20160, Note_off_c, 1, 59, 0
3, 20160, Note_on_c, 1, 64, 110
3, 20352, Note_off_c, 1, 64, 0
3, 24672, Note_on_c, 1, 57, 110
3, 24720, Note_off_c, 1, 57, 0
3, 24720, Note_on_c, 1, 60, 110
3, 24744, Note_off_c, 1, 60, 0
3, 24744, Note_on_c, 1, 59, 110
3, 24768, Note_off_c, 1, 59, 0
3, 24768, Note_on_c, 1, 60, 110
3, 24792, Note_off_c, 1, 60, 0
3, 24792, Note_on_c, 1, 57, 110
3, 24816, Note_off_c, 1, 57, 0
3, 24816, Note_on_c, 1, 59, 110
3, 24852, Note_off_c, 1, 59, 0
3, 24864, Note_on_c, 1, 52, 110
3, 24888, Note_off_c, 1, 52, 0
3, 24888, Note_on_c, 1, 59, 110
3, 24912, Note_off_c, 1, 59, 0
3, 24912, Note_on_c, 1, 64, 110
3, 24936, Note_off_c, 1, 64, 0
3, 24936, Note_on_c, 1, 59, 110
3, 24960, Note_off_c, 1, 59, 0
3, 24960, Note_on_c, 1, 60, 110
3, 24996, Note_off_c, 1, 60, 0
3, 25008, Note_on_c, 1, 57, 110
3, 25056, Note_off_c, 1, 57, 0
3, 25056, Note_on_c, 1, 64, 110
3, 25104, Note_off_c, 1, 64, 0
3, 25104, Note_on_c, 1, 65, 110
3, 25128, Note_off_c, 1, 65, 0
3, 25128, Note_on_c, 1, 64, 110
3, 25152, Note_off_c, 1, 64, 0
3, 25152, Note_on_c, 1, 65, 110
3, 25176, Note_off_c, 1, 65, 0
3, 25176, Note_on_c, 1, 62, 110
3, 25200, Note_off_c, 1, 62, 0
3, 25200, Note_on_c, 1, 65, 110
3, 25224, Note_off_c, 1, 65, 0
3, 25224, Note_on_c, 1, 60, 110
3, 25248, Note_off_c, 1, 60, 0
3, 25248, Note_on_c, 1, 65, 110
3, 25272, Note_off_c, 1, 65, 0
3, 25272, Note_on_c, 1, 62, 110
3, 25296, Note_off_c, 1, 62, 0
3, 25296, Note_on_c, 1, 65, 110
3, 25320, Note_off_c, 1, 65, 0
3, 25320, Note_on_c, 1, 59, 110
3, 25344, Note_off_c, 1, 59, 0
3, 25344, Note_on_c, 1, 65, 110
3, 25368, Note_off_c, 1, 65, 0
3, 25368, Note_on_c, 1, 55, 110
3, 25392, Note_off_c, 1, 55, 0
3, 25392, Note_on_c, 1, 64, 110
3, 25416, Note_off_c, 1, 64, 0
3, 25416, Note_on_c, 1, 62, 110
3, 25440, Note_off_c, 1, 62, 0
3, 25440, Note_on_c, 1, 64, 110
3, 25464, Note_off_c, 1, 64, 0
3, 25464, Note_on_c, 1, 60, 110
3, 25488, Note_off_c, 1, 60, 0
3, 25488, Note_on_c, 1, 64, 110
3, 25512, Note_off_c, 1, 64, 0
3, 25512, Note_on_c, 1, 59, 110
3, 25536, Note_off_c, 1, 59, 0
3, 25536, Note_on_c, 1, 64, 110
3, 25560, Note_off_c, 1, 64, 0
3, 25560, Note_on_c, 1, 60, 110
3, 25584, Note_off_c, 1, 60, 0
3, 25584, Note_on_c, 1, 64, 110
3, 25608, Note_off_c, 1, 64, 0
3, 25608, Note_on_c, 1, 57, 110
3, 25632, Note_off_c, 1, 57, 0
3, 25632, Note_on_c, 1, 64, 110
3, 25656, Note_off_c, 1, 64, 0
3, 25656, Note_on_c, 1, 53, 110
3, 25680, Note_off_c, 1, 53, 0
3, 25680, Note_on_c, 1, 62, 110
3, 25704, Note_off_c, 1, 62, 0
3, 25704, Note_on_c, 1, 60, 110
3, 25728, Note_off_c, 1, 60, 0
3, 25728, Note_on_c, 1, 62, 110
3, 25752, Note_off_c, 1, 62, 0
3, 25752, Note_on_c, 1, 59, 110
3, 25776, Note_off_c, 1, 59, 0
3, 25776, Note_on_c, 1, 62, 110
3, 25800, Note_off_c, 1, 62, 0
3, 25800, Note_on_c, 1, 57, 110
3, 25824, Note_off_c, 1, 57, 0
3, 25824, Note_on_c, 1, 62, 110
3, 25848, Note_off_c, 1, 62, 0
3, 25848, Note_on_c, 1, 59, 110
3, 25872, Note_off_c, 1, 59, 0
3, 25872, Note_on_c, 1, 62, 110
3, 25896, Note_off_c, 1, 62, 0
3, 25896, Note_on_c, 1, 56, 110
3, 25920, Note_off_c, 1, 56, 0
3, 25920, Note_on_c, 1, 62, 110
3, 25944, Note_off_c, 1, 62, 0
3, 25944, Note_on_c, 1, 52, 110
3, 25968, Note_off_c, 1, 52, 0
3, 25968, Note_on_c, 1, 62, 93
3, 25992, Note_off_c, 1, 62, 0
3, 25992, Note_on_c, 1, 60, 93
3, 26016, Note_off_c, 1, 60, 0
3, 26016, Note_on_c, 1, 62, 93
3, 26040, Note_off_c, 1, 62, 0
3, 26040, Note_on_c, 1, 56, 93
3, 26064, Note_off_c, 1, 56, 0
3, 26064, Note_on_c, 1, 57, 93
3, 26088, Note_off_c, 1, 57, 0
3, 26088, Note_on_c, 1, 62, 93
3, 26112, Note_off_c, 1, 62, 0
3, 26112, Note_on_c, 1, 64, 93
3, 26136, Note_off_c, 1, 64, 0
3, 26136, Note_on_c, 1, 59, 93
3, 26160, Note_off_c, 1, 59, 0
3, 26160, Note_on_c, 1, 60, 93
3, 26184, Note_off_c, 1, 60, 0
3, 26184, Note_on_c, 1, 64, 93
3, 26208, Note_off_c, 1, 64, 0
3, 26208, Note_on_c, 1, 69, 93
3, 26232, Note_off_c, 1, 69, 0
3, 26232, Note_on_c, 1, 66, 93
3, 26256, Note_off_c, 1, 66, 0
3, 26256, Note_on_c, 1, 67, 93
3, 26328, Note_off_c, 1, 67, 0
3, 26328, Note_on_c, 1, 69, 93
3, 26352, Note_off_c, 1, 69, 0
3, 26352, Note_on_c, 1, 67, 93
3, 26376, Note_off_c, 1, 67, 0
3, 26376, Note_on_c, 1, 66, 93
3, 26400, Note_off_c, 1, 66, 0
3, 26400, Note_on_c, 1, 67, 93
3, 26472, Note_off_c, 1, 67, 0
3, 26472, Note_on_c, 1, 63, 93
3, 26496, Note_off_c, 1, 63, 0
3, 26496, Note_on_c, 1, 64, 93
3, 26520, Note_off_c, 1, 64, 0
3, 26520, Note_on_c, 1, 59, 93
3, 26544, Note_off_c, 1, 59, 0
3, 26544, Note_on_c, 1, 61, 93
3, 26568, Note_off_c, 1, 61, 0
3, 26568, Note_on_c, 1, 55, 93
3, 26592, Note_off_c, 1, 55, 0
3, 26592, Note_on_c, 1, 57, 93
3, 26616, Note_off_c, 1, 57, 0
3, 26616, Note_on_c, 1, 61, 93
3, 26640, Note_off_c, 1, 61, 0
3, 26640, Note_on_c, 1, 64, 93
3, 26664, Note_off_c, 1, 64, 0
3, 26664, Note_on_c, 1, 62, 93
3, 26688, Note_off_c, 1, 62, 0
3, 26688, Note_on_c, 1, 61, 93
3, 26712, Note_off_c, 1, 61, 0
3, 26712, Note_on_c, 1, 64, 93
3, 26736, Note_off_c, 1, 64, 0
3, 26736, Note_on_c, 1, 69, 93
3, 26760, Note_off_c, 1, 69, 0
3, 26760, Note_on_c, 1, 67, 93
3, 26784, Note_off_c, 1, 67, 0
3, 26784, Note_on_c, 1, 65, 93
3, 26808, Note_off_c, 1, 65, 0
3, 26808, Note_on_c, 1, 64, 93
3, 26832, Note_off_c, 1, 64, 0
3, 26832, Note_on_c, 1, 62, 93
3, 27024, Note_off_c, 1, 62, 0
3, 27024, Note_on_c, 1, 60, 93
3, 27144, Note_off_c, 1, 60, 0
3, 27144, Note_on_c, 1, 60, 93
3, 27168, Note_off_c, 1, 60, 0
3, 27168, Note_on_c, 1, 59, 93
3, 27192, Note_off_c, 1, 59, 0
3, 27192, Note_on_c, 1, 57, 93
3, 27216, Note_off_c, 1, 57, 0
3, 27216, Note_on_c, 1, 59, 93
3, 27240, Note_off_c, 1, 59, 0
3, 27240, Note_on_c, 1, 56, 93
3, 27264, Note_off_c, 1, 56, 0
3, 27264, Note_on_c, 1, 57, 93
3, 27312, Note_off_c, 1, 57, 0
3, 27312, Note_on_c, 1, 60, 93
3, 27360, Note_off_c, 1, 60, 0
3, 27360, Note_on_c, 1, 57, 93
3, 27408, Note_off_c, 1, 57, 0
3, 27408, Note_on_c, 1, 62, 93
3, 27576, Note_off_c, 1, 62, 0
3, 27576, Note_on_c, 1, 62, 93
3, 27600, Note_off_c, 1, 62, 0
3, 27600, Note_on_c, 1, 60, 93
3, 27624, Note_off_c, 1, 60, 0
3, 27624, Note_on_c, 1, 59, 93
3, 27648, Note_off_c, 1, 59, 0
3, 27648, Note_on_c, 1, 60, 93
3, 27672, Note_off_c, 1, 60, 0
3, 27672, Note_on_c, 1, 57, 93
3, 27696, Note_off_c, 1, 57, 0
3, 27696, Note_on_c, 1, 59, 93
3, 27744, Note_off_c, 1, 59, 0
3, 27744, Note_on_c, 1, 60, 93
3, 27792, Note_off_c, 1, 60, 0
3, 27792, Note_on_c, 1, 55, 93
3, 27840, Note_off_c, 1, 55, 0
3, 27840, Note_on_c, 1, 57, 93
3, 27888, Note_off_c, 1, 57, 0
3, 27888, Note_on_c, 1, 59, 93
3, 28008, Note_off_c, 1, 59, 0
3, 28008, Note_on_c, 1, 59, 93
3, 28032, Note_off_c, 1, 59, 0
3, 28032, Note_on_c, 1, 64, 93
3, 28056, Note_off_c, 1, 64, 0
3, 28056, Note_on_c, 1, 63, 93
3, 28080, Note_off_c, 1, 63, 0
3, 28080, Note_on_c, 1, 64, 93
3, 28176, Note_off_c, 1, 64, 0
3, 28176, Note_on_c, 1, 63, 93
3, 28200, Note_off_c, 1, 63, 0
3, 28200, Note_on_c, 1, 61, 93
3, 28224, Note_off_c, 1, 61, 0
3, 28224, Note_on_c, 1, 63, 93
3, 28272, Note_off_c, 1, 63, 0
3, 28272, Note_on_c, 1, 63, 93
3, 28320, Note_off_c, 1, 63, 0
3, 28320, Note_on_c, 1, 64, 93
3, 28368, Note_off_c, 1, 64, 0
3, 28368, Note_on_c, 1, 62, 93
3, 28416, Note_off_c, 1, 62, 0
3, 28416, Note_on_c, 1, 64, 93
3, 28464, Note_off_c, 1, 64, 0
3, 28464, Note_on_c, 1, 66, 93
3, 28512, Note_off_c, 1, 66, 0
3, 28512, Note_on_c, 1, 67, 93
3, 28560, Note_off_c, 1, 67, 0
3, 28560, Note_on_c, 1, 69, 93
3, 28656, Note_off_c, 1, 69, 0
3, 28704, Note_on_c, 1, 62, 93
3, 28752, Note_off_c, 1, 62, 0
3, 28752, Note_on_c, 1, 64, 93
3, 28800, Note_off_c, 1, 64, 0
3, 28800, Note_on_c, 1, 66, 93
3, 28848, Note_off_c, 1, 66, 0
3, 28848, Note_on_c, 1, 67, 93
3, 28944, Note_off_c, 1, 67, 0
3, 28992, Note_on_c, 1, 64, 93
3, 29040, Note_off_c, 1, 64, 0
3, 29040, Note_on_c, 1, 62, 93
3, 29064, Note_off_c, 1, 62, 0
3, 29064, Note_on_c, 1, 60, 93
3, 29088, Note_off_c, 1, 60, 0
3, 29088, Note_on_c, 1, 59, 93
3, 29112, Note_off_c, 1, 59, 0
3, 29112, Note_on_c, 1, 57, 93
3, 29136, Note_off_c, 1, 57, 0
3, 29136, Note_on_c, 1, 63, 93
3, 29328, Note_off_c, 1, 63, 0
3, 29328, Note_on_c, 1, 64, 93
3, 29424, Note_off_c, 1, 64, 0
3, 29424, Note_on_c, 1, 64, 93
3, 29472, Note_off_c, 1, 64, 0
3, 29472, Note_on_c, 1, 64, 93
3, 29520, Note_off_c, 1, 64, 0
3, 29520, Note_on_c, 1, 64, 93
3, 29568, Note_off_c, 1, 64, 0
3, 29568, Note_on_c, 1, 62, 93
3, 29712, Note_off_c, 1, 62, 0
3, 29712, Note_on_c, 1, 62, 93
3, 29760, Note_off_c, 1, 62, 0
3, 29760, Note_on_c, 1, 62, 93
3, 29808, Note_off_c, 1, 62, 0
3, 29808, Note_on_c, 1, 62, 93
3, 29856, Note_off_c, 1, 62, 0
3, 29856, Note_on_c, 1, 60, 93
3, 30000, Note_off_c, 1, 60, 0
3, 30000, Note_on_c, 1, 60, 93
3, 30144, Note_off_c, 1, 60, 0
3, 30144, Note_on_c, 1, 59, 93
3, 30432, Note_off_c, 1, 59, 0
3, 35208, Note_on_c, 1, 54, 84
3, 35232, Note_off_c, 1, 54, 0
3, 35232, Note_on_c, 1, 55, 84
3, 35256, Note_off_c, 1, 55, 0
3, 35256, Note_on_c, 1, 51, 84
3, 35280, Note_off_c, 1, 51, 0
3, 35280, Note_on_c, 1, 52, 84
3, 35304, Note_off_c, 1, 52, 0
3, 35304, Note_on_c, 1, 46, 84
3, 35328, Note_off_c, 1, 46, 0
3, 35328, Note_on_c, 1, 47, 84
3, 35352, Note_off_c, 1, 47, 0
3, 35352, Note_on_c, 1, 51, 84
3, 35376, Note_off_c, 1, 51, 0
3, 35376, Note_on_c, 1, 54, 84
3, 35400, Note_off_c, 1, 54, 0
3, 35400, Note_on_c, 1, 60, 84
3, 35424, Note_off_c, 1, 60, 0
3, 35424, Note_on_c, 1, 57, 84
3, 35448, Note_off_c, 1, 57, 0
3, 35448, Note_on_c, 1, 54, 84
3, 35472, Note_off_c, 1, 54, 0
3, 35472, Note_on_c, 1, 55, 84
3, 35520, Note_off_c, 1, 55, 0
3, 35520, Note_on_c, 1, 52, 84
3, 35568, Note_off_c, 1, 52, 0
3, 35568, Note_on_c, 1, 59, 84
3, 35616, Note_off_c, 1, 59, 0
3, 35616, Note_on_c, 1, 60, 84
3, 35640, Note_off_c, 1, 60, 0
3, 35640, Note_on_c, 1, 59, 84
3, 35664, Note_off_c, 1, 59, 0
3, 35664, Note_on_c, 1, 60, 84
3, 35688, Note_off_c, 1, 60, 0
3, 35688, Note_on_c, 1, 57, 84
3, 35712, Note_off_c, 1, 57, 0
3, 35712, Note_on_c, 1, 60, 84
3, 35736, Note_off_c, 1, 60, 0
3, 35736, Note_on_c, 1, 55, 84
3, 35760, Note_off_c, 1, 55, 0
3, 35760, Note_on_c, 1, 60, 84
3, 35784, Note_off_c, 1, 60, 0
3, 35784, Note_on_c, 1, 57, 84
3, 35808, Note_off_c, 1, 57, 0
3, 35808, Note_on_c, 1, 60, 84
3, 35832, Note_off_c, 1, 60, 0
3, 35832, Note_on_c, 1, 54, 84
3, 35856, Note_off_c, 1, 54, 0
3, 35856, Note_on_c, 1, 60, 84
3, 35880, Note_off_c, 1, 60, 0
3, 35880, Note_on_c, 1, 50, 84
3, 35904, Note_off_c, 1, 50, 0
3, 35904, Note_on_c, 1, 59, 84
3, 35928, Note_off_c, 1, 59, 0
3, 35928, Note_on_c, 1, 57, 84
3, 35952, Note_off_c, 1, 57, 0
3, 35952, Note_on_c, 1, 59, 84
3, 35976, Note_off_c, 1, 59, 0
3, 35976, Note_on_c, 1, 55, 84
3, 36000, Note_off_c, 1, 55, 0
3, 36000, Note_on_c, 1, 59, 84
3, 36024, Note_off_c, 1, 59, 0
3, 36024, Note_on_c, 1, 54, 84
3, 36048, Note_off_c, 1, 54, 0
3, 36048, Note_on_c, 1, 59, 84
3, 36072, Note_off_c, 1, 59, 0
3, 36072, Note_on_c, 1, 55, 84
3, 36096, Note_off_c, 1, 55, 0
3, 36096, Note_on_c, 1, 59, 84
3, 36120, Note_off_c, 1, 59, 0
3, 36120, Note_on_c, 1, 52, 84
3, 36144, Note_off_c, 1, 52, 0
3, 36144, Note_on_c, 1, 59, 84
3, 36168, Note_off_c, 1, 59, 0
3, 36168, Note_on_c, 1, 48, 84
3, 36192, Note_off_c, 1, 48, 0
3, 36192, Note_on_c, 1, 57, 93
3, 36216, Note_off_c, 1, 57, 0
3, 36216, Note_on_c, 1, 55, 93
3, 36240, Note_off_c, 1, 55, 0
3, 36240, Note_on_c, 1, 57, 93
3, 36264, Note_off_c, 1, 57, 0
3, 36264, Note_on_c, 1, 54, 93
3, 36288, Note_off_c, 1, 54, 0
3, 36288, Note_on_c, 1, 57, 93
3, 36312, Note_off_c, 1, 57, 0
3, 36312, Note_on_c, 1, 52, 93
3, 36336, Note_off_c, 1, 52, 0
3, 36336, Note_on_c, 1, 57, 93
3, 36360, Note_off_c, 1, 57, 0
3, 36360, Note_on_c, 1, 54, 93
3, 36384, Note_off_c, 1, 54, 0
3, 36384, Note_on_c, 1, 57, 93
3, 36408, Note_off_c, 1, 57, 0
3, 36408, Note_on_c, 1, 51, 93
3, 36432, Note_off_c, 1, 51, 0
3, 36432, Note_on_c, 1, 57, 93
3, 36456, Note_off_c, 1, 57, 0
3, 36456, Note_on_c, 1, 47, 93
3, 36480, Note_off_c, 1, 47, 0
3, 36480, Note_on_c, 1, 55, 93
3, 36504, Note_off_c, 1, 55, 0
3, 36504, Note_on_c, 1, 54, 93
3, 36528, Note_off_c, 1, 54, 0
3, 36528, Note_on_c, 1, 55, 93
3, 36552, Note_off_c, 1, 55, 0
3, 36552, Note_on_c, 1, 57, 93
3, 36576, Note_off_c, 1, 57, 0
3, 36576, Note_on_c, 1, 59, 93
3, 36600, Note_off_c, 1, 59, 0
3, 36600, Note_on_c, 1, 55, 93
3, 36624, Note_off_c, 1, 55, 0
3, 36624, Note_on_c, 1, 57, 93
3, 36648, Note_off_c, 1, 57, 0
3, 36648, Note_on_c, 1, 55, 93
3, 36672, Note_off_c, 1, 55, 0
3, 36672, Note_on_c, 1, 57, 93
3, 36696, Note_off_c, 1, 57, 0
3, 36696, Note_on_c, 1, 59, 93
3, 36720, Note_off_c, 1, 59, 0
3, 36720, Note_on_c, 1, 60, 93
3, 36744, Note_off_c, 1, 60, 0
3, 36744, Note_on_c, 1, 57, 93
3, 36768, Note_off_c, 1, 57, 0
3, 36768, Note_on_c, 1, 62, 93
3, 36792, Note_off_c, 1, 62, 0
3, 36792, Note_on_c, 1, 60, 93
3, 36816, Note_off_c, 1, 60, 0
3, 36816, Note_on_c, 1, 62, 93
3, 36840, Note_off_c, 1, 62, 0
3, 36840, Note_on_c, 1, 50, 93
3, 36864, Note_off_c, 1, 50, 0
3, 36864, Note_on_c, 1, 54, 93
3, 36888, Note_off_c, 1, 54, 0
3, 36888, Note_on_c, 1, 50, 93
3, 36912, Note_off_c, 1, 50, 0
3, 36912, Note_on_c, 1, 55, 93
3, 36936, Note_off_c, 1, 55, 0
3, 36936, Note_on_c, 1, 54, 93
3, 36960, Note_off_c, 1, 54, 0
3, 36960, Note_on_c, 1, 55, 93
3, 36984, Note_off_c, 1, 55, 0
3, 36984, Note_on_c, 1, 57, 93
3, 37008, Note_off_c, 1, 57, 0
3, 37008, Note_on_c, 1, 59, 93
3, 37032, Note_off_c, 1, 59, 0
3, 37032, Note_on_c, 1, 55, 93
3, 37056, Note_off_c, 1, 55, 0
3, 37056, Note_on_c, 1, 60, 93
3, 37080, Note_off_c, 1, 60, 0
3, 37080, Note_on_c, 1, 59, 93
3, 37104, Note_off_c, 1, 59, 0
3, 37104, Note_on_c, 1, 60, 93
3, 37128, Note_off_c, 1, 60, 0
3, 37128, Note_on_c, 1, 48, 93
3, 37152, Note_off_c, 1, 48, 0
3, 37152, Note_on_c, 1, 52, 93
3, 37176, Note_off_c, 1, 52, 0
3, 37176, Note_on_c, 1, 48, 93
3, 37200, Note_off_c, 1, 48, 0
3, 37200, Note_on_c, 1, 54, 93
3, 37224, Note_off_c, 1, 54, 0
3, 37224, Note_on_c, 1, 52, 93
3, 37248, Note_off_c, 1, 52, 0
3, 37248, Note_on_c, 1, 54, 93
3, 37272, Note_off_c, 1, 54, 0
3, 37272, Note_on_c, 1, 55, 93
3, 37296, Note_off_c, 1, 55, 0
3, 37296, Note_on_c, 1, 57, 93
3, 37320, Note_off_c, 1, 57, 0
3, 37320, Note_on_c, 1, 54, 93
3, 37344, Note_off_c, 1, 54, 0
3, 37344, Note_on_c, 1, 59, 93
3, 37368, Note_off_c, 1, 59, 0
3, 37368, Note_on_c, 1, 57, 93
3, 37392, Note_off_c, 1, 57, 0
3, 37392, Note_on_c, 1, 59, 93
3, 37416, Note_off_c, 1, 59, 0
3, 37416, Note_on_c, 1, 47, 93
3, 37440, Note_off_c, 1, 47, 0
3, 37440, Note_on_c, 1, 51, 93
3, 37464, Note_off_c, 1, 51, 0
3, 37464, Note_on_c, 1, 47, 93
3, 37488, Note_off_c, 1, 47, 0
3, 37488, Note_on_c, 1, 52, 93
3, 37512, Note_off_c, 1, 52, 0
3, 37512, Note_on_c, 1, 51, 93
3, 37536, Note_off_c, 1, 51, 0
3, 37536, Note_on_c, 1, 52, 93
3, 37560, Note_off_c, 1, 52, 0
3, 37560, Note_on_c, 1, 54, 93
3, 37584, Note_off_c, 1, 54, 0
3, 37584, Note_on_c, 1, 55, 93
3, 37608, Note_off_c, 1, 55, 0
3, 37608, Note_on_c, 1, 52, 93
3, 37632, Note_off_c, 1, 52, 0
3, 37632, Note_on_c, 1, 57, 93
3, 37656, Note_off_c, 1, 57, 0
3, 37656, Note_on_c, 1, 56, 93
3, 37680, Note_off_c, 1, 56, 0
3, 37680, Note_on_c, 1, 57, 93
3, 37704, Note_off_c, 1, 57, 0
3, 37704, Note_on_c, 1, 45, 93
3, 37728, Note_off_c, 1, 45, 0
3, 37728, Note_on_c, 1, 48, 93
3, 37752, Note_off_c, 1, 48, 0
3, 37752, Note_on_c, 1, 45, 93
3, 37776, Note_off_c, 1, 45, 0
3, 37776, Note_on_c, 1, 50, 93
3, 37800, Note_off_c, 1, 50, 0
3, 37800, Note_on_c, 1, 49, 93
3, 37824, Note_off_c, 1, 49, 0
3, 37824, Note_on_c, 1, 50, 93
3, 37848, Note_off_c, 1, 50, 0
3, 37848, Note_on_c, 1, 52, 93
3, 37872, Note_off_c, 1, 52, 0
3, 37872, Note_on_c, 1, 53, 93
3, 37896, Note_off_c, 1, 53, 0
3, 37896, Note_on_c, 1, 50, 93
3, 37920, Note_off_c, 1, 50, 0
3, 37920, Note_on_c, 1, 55, 93
3, 37944, Note_off_c, 1, 55, 0
3, 37944, Note_on_c, 1, 54, 93
3, 37968, Note_off_c, 1, 54, 0
3, 37968, Note_on_c, 1, 55, 93
3, 37992, Note_off_c, 1, 55, 0
3, 37992, Note_on_c, 1, 57, 93
3, 38016, Note_off_c, 1, 57, 0
3, 38016, Note_on_c, 1, 59, 93
3, 38040, Note_off_c, 1, 59, 0
3, 38040, Note_on_c, 1, 55, 93
3, 38064, Note_off_c, 1, 55, 0
3, 38064, Note_on_c, 1, 60, 93
3, 38112, Note_off_c, 1, 60, 0
3, 38112, Note_on_c, 1, 59, 93
3, 38160, Note_off_c, 1, 59, 0
3, 38160, Note_on_c, 1, 57, 93
3, 38208, Note_off_c, 1, 57, 0
3, 38208, Note_on_c, 1, 55, 93
3, 38352, Note_off_c, 1, 55, 0
3, 38352, Note_on_c, 1, 60, 93
3, 38496, Note_off_c, 1, 60, 0
3, 38496, Note_on_c, 1, 53, 93
3, 38520, Note_off_c, 1, 53, 0
3, 38520, Note_on_c, 1, 55, 93
3, 38544, Note_off_c, 1, 55, 0
3, 38544, Note_on_c, 1, 53, 93
3, 38568, Note_off_c, 1, 53, 0
3, 38568, Note_on_c, 1, 52, 93
3, 38592, Note_off_c, 1, 52, 0
3, 38592, Note_on_c, 1, 50, 93
3, 38616, Note_off_c, 1, 50, 0
3, 38616, Note_on_c, 1, 48, 93
3, 38640, Note_off_c, 1, 48, 0
3, 38640, Note_on_c, 1, 47, 93
3, 38688, Note_off_c, 1, 47, 0
3, 38688, Note_on_c, 1, 59, 93
3, 38736, Note_off_c, 1, 59, 0
3, 38736, Note_on_c, 1, 47, 93
3, 38784, Note_off_c, 1, 47, 0
3, 38784, Note_on_c, 1, 52, 93
3, 38808, Note_off_c, 1, 52, 0
3, 38808, Note_on_c, 1, 53, 93
3, 38832, Note_off_c, 1, 53, 0
3, 38832, Note_on_c, 1, 52, 93
3, 38856, Note_off_c, 1, 52, 0
3, 38856, Note_on_c, 1, 50, 93
3, 38880, Note_off_c, 1, 50, 0
3, 38880, Note_on_c, 1, 48, 93
3, 38904, Note_off_c, 1, 48, 0
3, 38904, Note_on_c, 1, 47, 93
3, 38928, Note_off_c, 1, 47, 0
3, 38928, Note_on_c, 1, 45, 93
3, 38976, Note_off_c, 1, 45, 0
3, 38976, Note_on_c, 1, 57, 93
3, 39024, Note_off_c, 1, 57, 0
3, 39024, Note_on_c, 1, 45, 93
3, 39072, Note_off_c, 1, 45, 0
3, 39072, Note_on_c, 1, 50, 93
3, 39096, Note_off_c, 1, 50, 0
3, 39096, Note_on_c, 1, 52, 93
3, 39120, Note_off_c, 1, 52, 0
3, 39120, Note_on_c, 1, 50, 93
3, 39144, Note_off_c, 1, 50, 0
3, 39144, Note_on_c, 1, 48, 93
3, 39168, Note_off_c, 1, 48, 0
3, 39168, Note_on_c, 1, 47, 93
3, 39192, Note_off_c, 1, 47, 0
3, 39192, Note_on_c, 1, 45, 93
3, 39216, Note_off_c, 1, 45, 0
3, 39216, Note_on_c, 1, 43, 93
3, 39264, Note_off_c, 1, 43, 0
3, 39264, Note_on_c, 1, 55, 93
3, 39312, Note_off_c, 1, 55, 0
3, 39312, Note_on_c, 1, 43, 93
3, 39360, Note_off_c, 1, 43, 0
3, 39360, Note_on_c, 1, 48, 93
3, 39408, Note_off_c, 1, 48, 0
3, 39408, Note_on_c, 1, 60, 93
3, 39456, Note_off_c, 1, 60, 0
3, 39456, Note_on_c, 1, 59, 93
3, 39504, Note_off_c, 1, 59, 0
3, 39504, Note_on_c, 1, 57, 93
3, 39552, Note_off_c, 1, 57, 0
3, 39552, Note_on_c, 1, 45, 93
3, 39600, Note_off_c, 1, 45, 0
3, 39600, Note_on_c, 1, 57, 93
3, 39648, Note_off_c, 1, 57, 0
3, 39648, Note_on_c, 1, 50, 93
3, 39696, Note_off_c, 1, 50, 0
3, 39696, Note_on_c, 1, 62, 93
3, 39744, Note_off_c, 1, 62, 0
3, 39744, Note_on_c, 1, 60, 93
3, 39792, Note_off_c, 1, 60, 0
3, 39792, Note_on_c, 1, 59, 93
3, 39840, Note_off_c, 1, 59, 0
3, 39840, Note_on_c, 1, 47, 93
3, 39888, Note_off_c, 1, 47, 0
3, 39888, Note_on_c, 1, 59, 93
3, 39936, Note_off_c, 1, 59, 0
3, 39936, Note_on_c, 1, 52, 93
3, 39984, Note_off_c, 1, 52, 0
3, 39984, Note_on_c, 1, 64, 93
3, 40032, Note_off_c, 1, 64, 0
3, 40032, Note_on_c, 1, 62, 93
3, 40080, Note_off_c, 1, 62, 0
3, 40080, Note_on_c, 1, 60, 93
3, 40128, Note_off_c, 1, 60, 0
3, 40128, Note_on_c, 1, 48, 93
3, 40176, Note_off_c, 1, 48, 0
3, 40176, Note_on_c, 1, 60, 93
3, 40224, Note_off_c, 1, 60, 0
3, 40224, Note_on_c, 1, 54, 93
3, 40272, Note_off_c, 1, 54, 0
3, 40272, Note_on_c, 1, 52, 93
3, 40320, Note_off_c, 1, 52, 0
3, 40320, Note_on_c, 1, 54, 93
3, 40368, Note_off_c, 1, 54, 0
3, 40368, Note_on_c, 1, 55, 93
3, 40416, Note_off_c, 1, 55, 0
3, 40416, Note_on_c, 1, 54, 93
3, 40464, Note_off_c, 1, 54, 0
3, 40464, Note_on_c, 1, 55, 93
3, 40512, Note_off_c, 1, 55, 0
3, 40512, Note_on_c, 1, 48, 93
3, 40560, Note_off_c, 1, 48, 0
3, 40560, Note_on_c, 1, 47, 93
3, 40608, Note_off_c, 1, 47, 0
3, 40608, Note_on_c, 1, 48, 93
3, 40656, Note_off_c, 1, 48, 0
3, 40656, Note_on_c, 1, 50, 93
3, 40704, Note_off_c, 1, 50, 0
3, 40704, Note_on_c, 1, 48, 93
3, 40752, Note_off_c, 1, 48, 0
3, 40752, Note_on_c, 1, 50, 93
3, 40800, Note_off_c, 1, 50, 0
3, 40800, Note_on_c, 1, 52, 93
3, 40944, Note_off_c, 1, 52, 0
3, 40944, Note_on_c, 1, 54, 93
3, 41088, Note_off_c, 1, 54, 0
3, 41088, Note_on_c, 1, 55, 93
3, 41280, Note_off_c, 1, 55, 0
3, 41280, Note_on_c, 1, 52, 93
3, 41328, Note_off_c, 1, 52, 0
3, 41328, Note_on_c, 1, 48, 93
3, 41376, Note_off_c, 1, 48, 0
3, 41376, Note_on_c, 1, 54, 93
3, 41568, Note_off_c, 1, 54, 0
3, 41568, Note_on_c, 1, 50, 93
3, 41616, Note_off_c, 1, 50, 0
3, 41616, Note_on_c, 1, 47, 93
3, 41664, Note_off_c, 1, 47, 0
3, 41664, Note_on_c, 1, 52, 93
3, 41856, Note_off_c, 1, 52, 0
3, 41856, Note_on_c, 1, 48, 93
3, 41904, Note_off_c, 1, 48, 0
3, 41904, Note_on_c, 1, 45, 93
3, 41952, Note_off_c, 1, 45, 0
3, 41952, Note_on_c, 1, 50, 93
3, 43008, Note_off_c, 1, 50, 0
3, 48144, Note_on_c, 1, 57, 127
3, 48192, Note_off_c, 1, 57, 0
3, 48192, Note_on_c, 1, 60, 127
3, 48216, Note_off_c, 1, 60, 0
3, 48216, Note_on_c, 1, 59, 127
3, 48240, Note_off_c, 1, 59, 0
3, 48240, Note_on_c, 1, 60, 127
3, 48264, Note_off_c, 1, 60, 0
3, 48264, Note_on_c, 1, 57, 127
3, 48288, Note_off_c, 1, 57, 0
3, 48288, Note_on_c, 1, 59, 127
3, 48324, Note_off_c, 1, 59, 0
3, 48336, Note_on_c, 1, 52, 127
3, 48360, Note_off_c, 1, 52, 0
3, 48360, Note_on_c, 1, 59, 127
3, 48384, Note_off_c, 1, 59, 0
3, 48384, Note_on_c, 1, 64, 127
3, 48408, Note_off_c, 1, 64, 0
3, 48408, Note_on_c, 1, 59, 127
3, 48432, Note_off_c, 1, 59, 0
3, 48432, Note_on_c, 1, 60, 127
3, 48468, Note_off_c, 1, 60, 0
3, 48480, Note_on_c, 1, 57, 127
3, 48528, Note_off_c, 1, 57, 0
3, 48528, Note_on_c, 1, 64, 127
3, 48576, Note_off_c, 1, 64, 0
3, 48576, Note_on_c, 1, 65, 127
3, 48600, Note_off_c, 1, 65, 0
3, 48600, Note_on_c, 1, 64, 127
3, 48624, Note_off_c, 1, 64, 0
3, 48624, Note_on_c, 1, 65, 127
3, 48648, Note_off_c, 1, 65, 0
3, 48648, Note_on_c, 1, 62, 127
3, 48672, Note_off_c, 1, 62, 0
3, 48672, Note_on_c, 1, 65, 127
3, 48696, Note_off_c, 1, 65, 0
3, 48696, Note_on_c, 1, 60, 127
3, 48720, Note_off_c, 1, 60, 0
3, 48720, Note_on_c, 1, 65, 127
3, 48744, Note_off_c, 1, 65, 0
3, 48744, Note_on_c, 1, 62, 127
3, 48768, Note_off_c, 1, 62, 0
3, 48768, Note_on_c, 1, 65, 127
3, 48792, Note_off_c, 1, 65, 0
3, 48792, Note_on_c, 1, 59, 127
3, 48816, Note_off_c, 1, 59, 0
3, 48816, Note_on_c, 1, 65, 127
3, 48840, Note_off_c, 1, 65, 0
3, 48840, Note_on_c, 1, 55, 127
3, 48864, Note_off_c, 1, 55, 0
3, 48864, Note_on_c, 1, 64, 127
3, 48888, Note_off_c, 1, 64, 0
3, 48888, Note_on_c, 1, 62, 127
3, 48912, Note_off_c, 1, 62, 0
3, 48912, Note_on_c, 1, 64, 127
3, 48936, Note_off_c, 1, 64, 0
3, 48936, Note_on_c, 1, 60, 127
3, 48960, Note_off_c, 1, 60, 0
3, 48960, Note_on_c, 1, 64, 127
3, 48984, Note_off_c, 1, 64, 0
3, 48984, Note_on_c, 1, 59, 127
3, 49008, Note_off_c, 1, 59, 0
3, 49008, Note_on_c, 1, 64, 127
3, 49032, Note_off_c, 1, 64, 0
3, 49032, Note_on_c, 1, 60, 127
3, 49056, Note_off_c, 1, 60, 0
3, 49056, Note_on_c, 1, 64, 127
3, 49080, Note_off_c, 1, 64, 0
3, 49080, Note_on_c, 1, 57, 127
3, 49104, Note_off_c, 1, 57, 0
3, 49104, Note_on_c, 1, 64, 127
3, 49128, Note_off_c, 1, 64, 0
3, 49128, Note_on_c, 1, 53, 127
3, 49152, Note_off_c, 1, 53, 0
3, 49152, Note_on_c, 1, 62, 127
3, 49176, Note_off_c, 1, 62, 0
3, 49176, Note_on_c, 1, 60, 127
3, 49200, Note_off_c, 1, 60, 0
3, 49200, Note_on_c, 1, 62, 127
3, 49224, Note_off_c, 1, 62, 0
3, 49224, Note_on_c, 1, 59, 127
3, 49248, Note_off_c, 1, 59, 0
3, 49248, Note_on_c, 1, 62, 127
3, 49272, Note_off_c, 1, 62, 0
3, 49272, Note_on_c, 1, 57, 127
3, 49296, Note_off_c, 1, 57, 0
3, 49296, Note_on_c, 1, 62, 127
3, 49320, Note_off_c, 1, 62, 0
3, 49320, Note_on_c, 1, 59, 127
3, 49344, Note_off_c, 1, 59, 0
3, 49344, Note_on_c, 1, 62, 127
3, 49368, Note_off_c, 1, 62, 0
3, 49368, Note_on_c, 1, 56, 127
3, 49392, Note_off_c, 1, 56, 0
3, 49392, Note_on_c, 1, 62, 127
3, 49416, Note_off_c, 1, 62, 0
3, 49416, Note_on_c, 1, 52, 127
3, 49440, Note_off_c, 1, 52, 0
3, 49440, Note_on_c, 1, 60, 127
3, 49464, Note_off_c, 1, 60, 0
3, 49464, Note_on_c, 1, 59, 127
3, 49488, Note_off_c, 1, 59, 0
3, 49488, Note_on_c, 1, 60, 127
3, 49512, Note_off_c, 1, 60, 0
3, 49512, Note_on_c, 1, 57, 127
3, 49536, Note_off_c, 1, 57, 0
3, 49536, Note_on_c, 1, 62, 127
3, 49560, Note_off_c, 1, 62, 0
3, 49560, Note_on_c, 1, 59, 127
3, 49584, Note_off_c, 1, 59, 0
3, 49584, Note_on_c, 1, 60, 127
3, 49608, Note_off_c, 1, 60, 0
3, 49608, Note_on_c, 1, 59, 127
3, 49632, Note_off_c, 1, 59, 0
3, 49632, Note_on_c, 1, 60, 127
3, 49656, Note_off_c, 1, 60, 0
3, 49656, Note_on_c, 1, 57, 127
3, 49680, Note_off_c, 1, 57, 0
3, 49680, Note_on_c, 1, 62, 127
3, 49704, Note_off_c, 1, 62, 0
3, 49704, Note_on_c, 1, 56, 127
3, 49728, Note_off_c, 1, 56, 0
3, 49728, Note_on_c, 1, 57, 127
3, 49752, Note_off_c, 1, 57, 0
3, 49752, Note_on_c, 1, 56, 127
3, 49776, Note_off_c, 1, 56, 0
3, 49776, Note_on_c, 1, 57, 127
3, 49800, Note_off_c, 1, 57, 0
3, 49800, Note_on_c, 1, 52, 127
3, 49824, Note_off_c, 1, 52, 0
3, 49824, Note_on_c, 1, 56, 127
3, 49848, Note_off_c, 1, 56, 0
3, 49848, Note_on_c, 1, 52, 127
3, 49872, Note_off_c, 1, 52, 0
3, 49872, Note_on_c, 1, 57, 127
3, 49896, Note_off_c, 1, 57, 0
3, 49896, Note_on_c, 1, 56, 127
3, 49920, Note_off_c, 1, 56, 0
3, 49920, Note_on_c, 1, 57, 127
3, 49944, Note_off_c, 1, 57, 0
3, 49944, Note_on_c, 1, 52, 127
3, 49968, Note_off_c, 1, 52, 0
3, 49968, Note_on_c, 1, 59, 127
3, 49992, Note_off_c, 1, 59, 0
3, 49992, Note_on_c, 1, 52, 127
3, 50016, Note_off_c, 1, 52, 0
3, 50016, Note_on_c, 1, 60, 127
3, 50040, Note_off_c, 1, 60, 0
3, 50040, Note_on_c, 1, 59, 127
3, 50064, Note_off_c, 1, 59, 0
3, 50064, Note_on_c, 1, 60, 127
3, 50088, Note_off_c, 1, 60, 0
3, 50088, Note_on_c, 1, 57, 127
3, 50112, Note_off_c, 1, 57, 0
3, 50112, Note_on_c, 1, 62, 127
3, 50136, Note_off_c, 1, 62, 0
3, 50136, Note_on_c, 1, 56, 127
3, 50160, Note_off_c, 1, 56, 0
3, 50160, Note_on_c, 1, 57, 127
3, 50184, Note_off_c, 1, 57, 0
3, 50184, Note_on_c, 1, 56, 127
3, 50208, Note_off_c, 1, 56, 0
3, 50208, Note_on_c, 1, 57, 127
3, 50232, Note_off_c, 1, 57, 0
3, 50232, Note_on_c, 1, 60, 127
3, 50256, Note_off_c, 1, 60, 0
3, 50256, Note_on_c, 1, 59, 127
3, 50280, Note_off_c, 1, 59, 0
3, 50280, Note_on_c, 1, 62, 127
3, 50304, Note_off_c, 1, 62, 0
3, 50304, Note_on_c, 1, 55, 127
3, 50352, Note_off_c, 1, 55, 0
3, 50448, Note_on_c, 1, 64, 127
3, 50472, Note_off_c, 1, 64, 0
3, 50472, Note_on_c, 1, 65, 127
3, 50496, Note_off_c, 1, 65, 0
3, 50496, Note_on_c, 1, 64, 127
3, 50520, Note_off_c, 1, 64, 0
3, 50520, Note_on_c, 1, 62, 127
3, 50544, Note_off_c, 1, 62, 0
3, 50544, Note_on_c, 1, 64, 127
3, 50568, Note_off_c, 1, 64, 0
3, 50568, Note_on_c, 1, 60, 127
3, 50592, Note_off_c, 1, 60, 0
3, 50592, Note_on_c, 1, 69, 127
3, 50616, Note_off_c, 1, 69, 0
3, 50616, Note_on_c, 1, 71, 127
3, 50640, Note_off_c, 1, 71, 0
3, 50640, Note_on_c, 1, 69, 127
3, 50664, Note_off_c, 1, 69, 0
3, 50664, Note_on_c, 1, 67, 127
3, 50688, Note_off_c, 1, 67, 0
3, 50688, Note_on_c, 1, 65, 127
3, 50712, Note_off_c, 1, 65, 0
3, 50712, Note_on_c, 1, 64, 127
3, 50736, Note_off_c, 1, 64, 0
3, 50736, Note_on_c, 1, 62, 127
3, 50880, Note_off_c, 1, 62, 0
3, 50880, Note_on_c, 1, 62, 127
3, 51048, Note_off_c, 1, 62, 0
3, 51048, Note_on_c, 1, 60, 127
3, 51072, Note_off_c, 1, 60, 0
3, 51072, Note_on_c, 1, 62, 127
3, 51096, Note_off_c, 1, 62, 0
3, 51096, Note_on_c, 1, 64, 127
3, 51120, Note_off_c, 1, 64, 0
3, 51120, Note_on_c, 1, 66, 127
3, 51144, Note_off_c, 1, 66, 0
3, 51144, Note_on_c, 1, 68, 127
3, 51168, Note_off_c, 1, 68, 0
3, 51168, Note_on_c, 1, 69, 127
3, 51192, Note_off_c, 1, 69, 0
3, 51192, Note_on_c, 1, 65, 127
3, 51216, Note_off_c, 1, 65, 0
3, 51216, Note_on_c, 1, 64, 127
3, 51240, Note_off_c, 1, 64, 0
3, 51240, Note_on_c, 1, 62, 127
3, 51264, Note_off_c, 1, 62, 0
3, 51264, Note_on_c, 1, 60, 127
3, 51288, Note_off_c, 1, 60, 0
3, 51288, Note_on_c, 1, 59, 127
3, 51312, Note_off_c, 1, 59, 0
3, 51312, Note_on_c, 1, 60, 127
3, 51456, Note_off_c, 1, 60, 0
3, 51456, Note_on_c, 1, 59, 127
3, 51600, Note_off_c, 1, 59, 0
3, 51600, Note_on_c, 1, 59, 127
3, 51744, Note_off_c, 1, 59, 0
3, 51744, Note_on_c, 1, 64, 127
3, 51792, Note_off_c, 1, 64, 0
3, 51792, Note_on_c, 1, 60, 127
3, 51840, Note_off_c, 1, 60, 0
3, 51840, Note_on_c, 1, 69, 127
3, 51936, Note_off_c, 1, 69, 0
3, 51936, Note_on_c, 1, 66, 127
3, 51984, Note_off_c, 1, 66, 0
3, 51984, Note_on_c, 1, 63, 127
3, 52032, Note_off_c, 1, 63, 0
3, 52032, Note_on_c, 1, 59, 127
3, 52080, Note_off_c, 1, 59, 0
3, 52080, Note_on_c, 1, 71, 127
3, 52128, Note_off_c, 1, 71, 0
3, 52128, Note_on_c, 1, 69, 127
3, 52176, Note_off_c, 1, 69, 0
3, 52176, Note_on_c, 1, 67, 127
3, 52272, Note_off_c, 1, 67, 0
3, 52272, Note_on_c, 1, 66, 127
3, 52320, Note_off_c, 1, 66, 0
3, 52320, Note_on_c, 1, 64, 127
3, 52416, Note_off_c, 1, 64, 0
3, 52416, Note_on_c, 1, 62, 127
3, 52464, Note_off_c, 1, 62, 0
3, 52464, Note_on_c, 1, 60, 127
3, 52488, Note_off_c, 1, 60, 0
3, 52488, Note_on_c, 1, 59, 127
3, 52512, Note_off_c, 1, 59, 0
3, 52512, Note_on_c, 1, 60, 127
3, 52536, Note_off_c, 1, 60, 0
3, 52536, Note_on_c, 1, 57, 127
3, 52560, Note_off_c, 1, 57, 0
3, 52560, Note_on_c, 1, 59, 127
3, 52584, Note_off_c, 1, 59, 0
3, 52584, Note_on_c, 1, 55, 127
3, 52608, Note_off_c, 1, 55, 0
3, 52608, Note_on_c, 1, 57, 127
3, 52704, Note_off_c, 1, 57, 0
3, 52704, Note_on_c, 1, 57, 127
3, 52728, Note_off_c, 1, 57, 0
3, 52728, Note_on_c, 1, 69, 127
3, 52752, Note_off_c, 1, 69, 0
3, 52752, Note_on_c, 1, 67, 127
3, 52776, Note_off_c, 1, 67, 0
3, 52776, Note_on_c, 1, 66, 127
3, 52800, Note_off_c, 1, 66, 0
3, 52800, Note_on_c, 1, 64, 127
3, 52824, Note_off_c, 1, 64, 0
3, 52824, Note_on_c, 1, 59, 127
3, 52848, Note_off_c, 1, 59, 0
3, 52848, Note_on_c, 1, 63, 127
3, 52872, Note_off_c, 1, 63, 0
3, 52872, Note_on_c, 1, 57, 127
3, 52896, Note_off_c, 1, 57, 0
3, 52896, Note_on_c, 1, 55, 127
3, 52992, Note_off_c, 1, 55, 0
3, 53472, Note_on_c, 1, 52, 127
3, 53496, Note_off_c, 1, 52, 0
3, 53496, Note_on_c, 1, 54, 127
3, 53520, Note_off_c, 1, 54, 0
3, 53520, Note_on_c, 1, 55, 127
3, 53544, Note_off_c, 1, 55, 0
3, 53544, Note_on_c, 1, 54, 127
3, 53568, Note_off_c, 1, 54, 0
3, 53568, Note_on_c, 1, 55, 127
3, 53592, Note_off_c, 1, 55, 0
3, 53592, Note_on_c, 1, 52, 127
3, 53616, Note_off_c, 1, 52, 0
3, 53616, Note_on_c, 1, 54, 127
3, 53640, Note_off_c, 1, 54, 0
3, 53640, Note_on_c, 1, 47, 127
3, 53664, Note_off_c, 1, 47, 0
3, 53664, Note_on_c, 1, 51, 127
3, 53688, Note_off_c, 1, 51, 0
3, 53688, Note_on_c, 1, 54, 127
3, 53712, Note_off_c, 1, 54, 0
3, 53712, Note_on_c, 1, 59, 127
3, 53736, Note_off_c, 1, 59, 0
3, 53736, Note_on_c, 1, 54, 127
3, 53760, Note_off_c, 1, 54, 0
3, 53760, Note_on_c, 1, 55, 127
3, 53808, Note_off_c, 1, 55, 0
3, 53808, Note_on_c, 1, 52, 127
3, 53856, Note_off_c, 1, 52, 0
3, 53856, Note_on_c, 1, 55, 127
3, 53952, Note_off_c, 1, 55, 0
3, 53952, Note_on_c, 1, 54, 127
3, 54000, Note_off_c, 1, 54, 0
3, 54000, Note_on_c, 1, 52, 127
3, 54048, Note_off_c, 1, 52, 0
3, 54048, Note_on_c, 1, 54, 127
3, 54096, Note_off_c, 1, 54, 0
3, 54096, Note_on_c, 1, 50, 127
3, 54144, Note_off_c, 1, 50, 0
3, 54144, Note_on_c, 1, 54, 127
3, 54240, Note_off_c, 1, 54, 0
3, 54240, Note_on_c, 1, 52, 127
3, 54288, Note_off_c, 1, 52, 0
3, 54288, Note_on_c, 1, 50, 127
3, 54336, Note_off_c, 1, 50, 0
3, 54336, Note_on_c, 1, 52, 127
3, 54384, Note_off_c, 1, 52, 0
3, 54384, Note_on_c, 1, 48, 127
3, 54432, Note_off_c, 1, 48, 0
3, 54432, Note_on_c, 1, 52, 127
3, 54528, Note_off_c, 1, 52, 0
3, 54528, Note_on_c, 1, 51, 127
3, 54576, Note_off_c, 1, 51, 0
3, 54576, Note_on_c, 1, 52, 127
3, 54624, Note_off_c, 1, 52, 0
3, 54624, Note_on_c, 1, 51, 127
3, 54672, Note_off_c, 1, 51, 0
3, 54672, Note_on_c, 1, 47, 127
3, 54720, Note_off_c, 1, 47, 0
3, 54720, Note_on_c, 1, 51, 127
3, 54768, Note_off_c, 1, 51, 0
3, 54768, Note_on_c, 1, 52, 127
3, 54816, Note_off_c, 1, 52, 0
3, 54816, Note_on_c, 1, 55, 127
3, 54864, Note_off_c, 1, 55, 0
3, 54864, Note_on_c, 1, 59, 127
3, 54912, Note_off_c, 1, 59, 0
3, 54912, Note_on_c, 1, 57, 127
3, 54960, Note_off_c, 1, 57, 0
3, 54960, Note_on_c, 1, 52, 127
3, 55008, Note_off_c, 1, 52, 0
3, 55008, Note_on_c, 1, 57, 127
3, 55104, Note_off_c, 1, 57, 0
3, 55104, Note_on_c, 1, 53, 127
3, 55152, Note_off_c, 1, 53, 0
3, 55152, Note_on_c, 1, 57, 127
3, 55200, Note_off_c, 1, 57, 0
3, 55200, Note_on_c, 1, 55, 127
3, 55248, Note_off_c, 1, 55, 0
3, 55248, Note_on_c, 1, 50, 127
3, 55296, Note_off_c, 1, 50, 0
3, 55296, Note_on_c, 1, 55, 127
3, 55392, Note_off_c, 1, 55, 0
3, 55392, Note_on_c, 1, 60, 127
3, 55440, Note_off_c, 1, 60, 0
3, 55440, Note_on_c, 1, 48, 127
3, 55488, Note_off_c, 1, 48, 0
3, 55488, Note_on_c, 1, 53, 127
3, 55632, Note_off_c, 1, 53, 0
3, 55632, Note_on_c, 1, 53, 127
3, 55680, Note_off_c, 1, 53, 0
3, 55680, Note_on_c, 1, 59, 127
3, 55728, Note_off_c, 1, 59, 0
3, 55728, Note_on_c, 1, 47, 127
3, 55776, Note_off_c, 1, 47, 0
3, 55776, Note_on_c, 1, 52, 127
3, 55920, Note_off_c, 1, 52, 0
3, 55920, Note_on_c, 1, 52, 127
3, 55944, Note_off_c, 1, 52, 0
3, 55944, Note_on_c, 1, 54, 127
3, 55968, Note_off_c, 1, 54, 0
3, 55968, Note_on_c, 1, 55, 127
3, 55992, Note_off_c, 1, 55, 0
3, 55992, Note_on_c, 1, 57, 127
3, 56016, Note_off_c, 1, 57, 0
3, 56016, Note_on_c, 1, 59, 127
3, 56040, Note_off_c, 1, 59, 0
3, 56040, Note_on_c, 1, 60, 127
3, 56064, Note_off_c, 1, 60, 0
3, 56064, Note_on_c, 1, 54, 127
3, 56160, Note_off_c, 1, 54, 0
3, 56256, Note_on_c, 1, 62, 127
3, 56304, Note_off_c, 1, 62, 0
3, 56304, Note_on_c, 1, 60, 127
3, 56352, Note_off_c, 1, 60, 0
3, 56352, Note_on_c, 1, 59, 127
3, 56448, Note_off_c, 1, 59, 0
3, 56496, Note_on_c, 1, 60, 127
3, 56592, Note_off_c, 1, 60, 0
3, 56592, Note_on_c, 1, 62, 127
3, 56640, Note_off_c, 1, 62, 0
3, 56640, Note_on_c, 1, 59, 127
3, 56736, Note_off_c, 1, 59, 0
3, 56784, Note_on_c, 1, 57, 127
3, 56880, Note_off_c, 1, 57, 0
3, 56928, Note_on_c, 1, 53, 127
3, 56952, Note_off_c, 1, 53, 0
3, 56952, Note_on_c, 1, 52, 127
3, 56976, Note_off_c, 1, 52, 0
3, 56976, Note_on_c, 1, 50, 127
3, 57000, Note_off_c, 1, 50, 0
3, 57000, Note_on_c, 1, 53, 127
3, 57024, Note_off_c, 1, 53, 0
3, 57024, Note_on_c, 1, 52, 127
3, 57048, Note_off_c, 1, 52, 0
3, 57048, Note_on_c, 1, 50, 127
3, 57072, Note_off_c, 1, 50, 0
3, 57072, Note_on_c, 1, 48, 127
3, 57096, Note_off_c, 1, 48, 0
3, 57096, Note_on_c, 1, 52, 127
3, 57120, Note_off_c, 1, 52, 0
3, 57120, Note_on_c, 1, 50, 127
3, 57144, Note_off_c, 1, 50, 0
3, 57144, Note_on_c, 1, 48, 127
3, 57168, Note_off_c, 1, 48, 0
3, 57168, Note_on_c, 1, 47, 127
3, 57192, Note_off_c, 1, 47, 0
3, 57192, Note_on_c, 1, 45, 127
3, 57216, Note_off_c, 1, 45, 0
3, 57216, Note_on_c, 1, 44, 127
3, 57240, Note_off_c, 1, 44, 0
3, 57240, Note_on_c, 1, 47, 127
3, 57264, Note_off_c, 1, 47, 0
3, 57264, Note_on_c, 1, 52, 127
3, 57288, Note_off_c, 1, 52, 0
3, 57288, Note_on_c, 1, 54, 127
3, 57312, Note_off_c, 1, 54, 0
3, 57312, Note_on_c, 1, 56, 127
3, 57336, Note_off_c, 1, 56, 0
3, 57336, Note_on_c, 1, 57, 127
3, 57360, Note_off_c, 1, 57, 0
3, 57360, Note_on_c, 1, 59, 127
3, 57384, Note_off_c, 1, 59, 0
3, 57384, Note_on_c, 1, 60, 127
3, 57408, Note_off_c, 1, 60, 0
3, 57408, Note_on_c, 1, 62, 127
3, 57432, Note_off_c, 1, 62, 0
3, 57432, Note_on_c, 1, 64, 127
3, 57456, Note_off_c, 1, 64, 0
3, 57456, Note_on_c, 1, 66, 127
3, 57480, Note_off_c, 1, 66, 0
3, 57480, Note_on_c, 1, 68, 127
3, 57504, Note_off_c, 1, 68, 0
3, 57504, Note_on_c, 1, 69, 127
3, 57528, Note_off_c, 1, 69, 0
3, 57528, Note_on_c, 1, 68, 127
3, 57552, Note_off_c, 1, 68, 0
3, 57552, Note_on_c, 1, 69, 127
3, 57576, Note_off_c, 1, 69, 0
3, 57576, Note_on_c, 1, 65, 127
3, 57600, Note_off_c, 1, 65, 0
3, 57600, Note_on_c, 1, 64, 127
3, 57624, Note_off_c, 1, 64, 0
3, 57624, Note_on_c, 1, 62, 127
3, 57648, Note_off_c, 1, 62, 0
3, 57648, Note_on_c, 1, 64, 127
3, 57672, Note_off_c, 1, 64, 0
3, 57672, Note_on_c, 1, 62, 127
3, 57696, Note_off_c, 1, 62, 0
3, 57696, Note_on_c, 1, 60, 127
3, 57720, Note_off_c, 1, 60, 0
3, 57720, Note_on_c, 1, 64, 127
3, 57744, Note_off_c, 1, 64, 0
3, 57744, Note_on_c, 1, 62, 127
3, 57768, Note_off_c, 1, 62, 0
3, 57768, Note_on_c, 1, 60, 127
3, 57792, Note_off_c, 1, 60, 0
3, 57792, Note_on_c, 1, 62, 127
3, 57816, Note_off_c, 1, 62, 0
3, 57816, Note_on_c, 1, 60, 127
3, 57840, Note_off_c, 1, 60, 0
3, 57840, Note_on_c, 1, 59, 127
3, 57864, Note_off_c, 1, 59, 0
3, 57864, Note_on_c, 1, 57, 127
3, 57888, Note_off_c, 1, 57, 0
3, 57888, Note_on_c, 1, 56, 127
3, 57912, Note_off_c, 1, 56, 0
3, 57912, Note_on_c, 1, 54, 127
3, 57936, Note_off_c, 1, 54, 0
3, 57936, Note_on_c, 1, 52, 127
3, 57960, Note_off_c, 1, 52, 0
3, 57960, Note_on_c, 1, 62, 127
3, 57984, Note_off_c, 1, 62, 0
3, 57984, Note_on_c, 1, 60, 127
3, 58008, Note_off_c, 1, 60, 0
3, 58008, Note_on_c, 1, 59, 127
3, 58032, Note_off_c, 1, 59, 0
3, 58032, Note_on_c, 1, 57, 127
3, 58056, Note_off_c, 1, 57, 0
3, 58056, Note_on_c, 1, 56, 127
3, 58080, Note_off_c, 1, 56, 0
3, 58080, Note_on_c, 1, 57, 127
3, 58104, Note_off_c, 1, 57, 0
3, 58104, Note_on_c, 1, 59, 127
3, 58128, Note_off_c, 1, 59, 0
3, 58128, Note_on_c, 1, 60, 127
3, 58152, Note_off_c, 1, 60, 0
3, 58152, Note_on_c, 1, 59, 127
3, 58176, Note_off_c, 1, 59, 0
3, 58176, Note_on_c, 1, 60, 127
3, 58200, Note_off_c, 1, 60, 0
3, 58200, Note_on_c, 1, 57, 127
3, 58224, Note_off_c, 1, 57, 0
3, 58224, Note_on_c, 1, 59, 127
3, 58260, Note_off_c, 1, 59, 0
3, 58272, Note_on_c, 1, 52, 127
3, 58296, Note_off_c, 1, 52, 0
3, 58296, Note_on_c, 1, 59, 127
3, 58320, Note_off_c, 1, 59, 0
3, 58320, Note_on_c, 1, 64, 127
3, 58344, Note_off_c, 1, 64, 0
3, 58344, Note_on_c, 1, 59, 127
3, 58368, Note_off_c, 1, 59, 0
3, 58368, Note_on_c, 1, 60, 127
3, 58404, Note_off_c, 1, 60, 0
3, 58416, Note_on_c, 1, 57, 127
3, 58464, Note_off_c, 1, 57, 0
3, 58464, Note_on_c, 1, 64, 127
3, 58512, Note_off_c, 1, 64, 0
3, 58512, Note_on_c, 1, 65, 127
3, 58536, Note_off_c, 1, 65, 0
3, 58536, Note_on_c, 1, 64, 127
3, 58560, Note_off_c, 1, 64, 0
3, 58560, Note_on_c, 1, 65, 127
3, 58584, Note_off_c, 1, 65, 0
3, 58584, Note_on_c, 1, 62, 127
3, 58608, Note_off_c, 1, 62, 0
3, 58608, Note_on_c, 1, 65, 127
3, 58632, Note_off_c, 1, 65, 0
3, 58632, Note_on_c, 1, 60, 127
3, 58656, Note_off_c, 1, 60, 0
3, 58656, Note_on_c, 1, 65, 127
3, 58680, Note_off_c, 1, 65, 0
3, 58680, Note_on_c, 1, 62, 127
3, 58704, Note_off_c, 1, 62, 0
3, 58704, Note_on_c, 1, 65, 127
3, 58728, Note_off_c, 1, 65, 0
3, 58728, Note_on_c, 1, 59, 127
3, 58752, Note_off_c, 1, 59, 0
3, 58752, Note_on_c, 1, 65, 127
3, 58776, Note_off_c, 1, 65, 0
3, 58776, Note_on_c, 1, 55, 127
3, 58800, Note_off_c, 1, 55, 0
3, 58800, Note_on_c, 1, 64, 127
3, 58824, Note_off_c, 1, 64, 0
3, 58824, Note_on_c, 1, 62, 127
3, 58848, Note_off_c, 1, 62, 0
3, 58848, Note_on_c, 1, 64, 127
3, 58872, Note_off_c, 1, 64, 0
3, 58872, Note_on_c, 1, 60, 127
3, 58896, Note_off_c, 1, 60, 0
3, 58896, Note_on_c, 1, 64, 127
3, 58920, Note_off_c, 1, 64, 0
3, 58920, Note_on_c, 1, 58, 127
3, 58944, Note_off_c, 1, 58, 0
3, 58944, Note_on_c, 1, 64, 127
3, 58968, Note_off_c, 1, 64, 0
3, 58968, Note_on_c, 1, 60, 127
3, 58992, Note_off_c, 1, 60, 0
3, 58992, Note_on_c, 1, 64, 127
3, 59016, Note_off_c, 1, 64, 0
3, 59016, Note_on_c, 1, 57, 127
3, 59040, Note_off_c, 1, 57, 0
3, 59040, Note_on_c, 1, 64, 127
3, 59064, Note_off_c, 1, 64, 0
3, 59064, Note_on_c, 1, 53, 127
3, 59088, Note_off_c, 1, 53, 0
3, 59088, Note_on_c, 1, 62, 127
3, 59112, Note_off_c, 1, 62, 0
3, 59112, Note_on_c, 1, 60, 127
3, 59136, Note_off_c, 1, 60, 0
3, 59136, Note_on_c, 1, 62, 127
3, 59160, Note_off_c, 1, 62, 0
3, 59160, Note_on_c, 1, 58, 127
3, 59184, Note_off_c, 1, 58, 0
3, 59184, Note_on_c, 1, 62, 127
3, 59208, Note_off_c, 1, 62, 0
3, 59208, Note_on_c, 1, 57, 127
3, 59232, Note_off_c, 1, 57, 0
3, 59232, Note_on_c, 1, 62, 127
3, 59256, Note_off_c, 1, 62, 0
3, 59256, Note_on_c, 1, 59, 127
3, 59280, Note_off_c, 1, 59, 0
3, 59280, Note_on_c, 1, 62, 127
3, 59304, Note_off_c, 1, 62, 0
3, 59304, Note_on_c, 1, 56, 127
3, 59328, Note_off_c, 1, 56, 0
3, 59328, Note_on_c, 1, 62, 127
3, 59352, Note_off_c, 1, 62, 0
3, 59352, Note_on_c, 1, 52, 127
3, 59376, Note_off_c, 1, 52, 0
3, 59376, Note_on_c, 1, 60, 127
3, 59400, Note_off_c, 1, 60, 0
3, 59400, Note_on_c, 1, 59, 127
3, 59424, Note_off_c, 1, 59, 0
3, 59424, Note_on_c, 1, 60, 127
3, 59448, Note_off_c, 1, 60, 0
3, 59448, Note_on_c, 1, 57, 127
3, 59472, Note_off_c, 1, 57, 0
3, 59472, Note_on_c, 1, 60, 127
3, 59496, Note_off_c, 1, 60, 0
3, 59496, Note_on_c, 1, 52, 127
3, 59520, Note_off_c, 1, 52, 0
3, 59520, Note_on_c, 1, 59, 127
3, 59544, Note_off_c, 1, 59, 0
3, 59544, Note_on_c, 1, 57, 127
3, 59568, Note_off_c, 1, 57, 0
3, 59568, Note_on_c, 1, 59, 127
3, 59592, Note_off_c, 1, 59, 0
3, 59592, Note_on_c, 1, 56, 127
3, 59616, Note_off_c, 1, 56, 0
3, 59616, Note_on_c, 1, 59, 127
3, 59640, Note_off_c, 1, 59, 0
3, 59640, Note_on_c, 1, 52, 127
3, 59664, Note_off_c, 1, 52, 0
3, 59664, Note_on_c, 1, 57, 127
3, 59688, Note_off_c, 1, 57, 0
3, 59688, Note_on_c, 1, 56, 127
3, 59712, Note_off_c, 1, 56, 0
3, 59712, Note_on_c, 1, 57, 127
3, 59736, Note_off_c, 1, 57, 0
3, 59736, Note_on_c, 1, 54, 127
3, 59760, Note_off_c, 1, 54, 0
3, 59760, Note_on_c, 1, 57, 127
3, 59784, Note_off_c, 1, 57, 0
3, 59784, Note_on_c, 1, 51, 127
3, 59808, Note_off_c, 1, 51, 0
3, 59808, Note_on_c, 1, 56, 127
3, 59832, Note_off_c, 1, 56, 0
3, 59832, Note_on_c, 1, 54, 127
3, 59856, Note_off_c, 1, 54, 0
3, 59856, Note_on_c, 1, 56, 127
3, 59880, Note_off_c, 1, 56, 0
3, 59880, Note_on_c, 1, 52, 127
3, 59904, Note_off_c, 1, 52, 0
3, 59904, Note_on_c, 1, 54, 127
3, 59928, Note_off_c, 1, 54, 0
3, 59928, Note_on_c, 1, 56, 127
3, 59952, Note_off_c, 1, 56, 0
3, 59952, Note_on_c, 1, 57, 127
3, 59976, Note_off_c, 1, 57, 0
3, 59976, Note_on_c, 1, 56, 127
3, 60000, Note_off_c, 1, 56, 0
3, 60000, Note_on_c, 1, 57, 127
3, 60024, Note_off_c, 1, 57, 0
3, 60024, Note_on_c, 1, 52, 127
3, 60048, Note_off_c, 1, 52, 0
3, 60048, Note_on_c, 1, 56, 127
3, 60072, Note_off_c, 1, 56, 0
3, 60072, Note_on_c, 1, 57, 127
3, 60096, Note_off_c, 1, 57, 0
3, 60096, Note_on_c, 1, 59, 127
3, 60120, Note_off_c, 1, 59, 0
3, 60120, Note_on_c, 1, 57, 127
3, 60144, Note_off_c, 1, 57, 0
3, 60144, Note_on_c, 1, 59, 127
3, 60168, Note_off_c, 1, 59, 0
3, 60168, Note_on_c, 1, 52, 127
3, 60192, Note_off_c, 1, 52, 0
3, 60192, Note_on_c, 1, 57, 127
3, 60216, Note_off_c, 1, 57, 0
3, 60216, Note_on_c, 1, 59, 127
3, 60240, Note_off_c, 1, 59, 0
3, 60240, Note_on_c, 1, 60, 127
3, 60264, Note_off_c, 1, 60, 0
3, 60264, Note_on_c, 1, 59, 127
3, 60288, Note_off_c, 1, 59, 0
3, 60288, Note_on_c, 1, 60, 127
3, 60312, Note_off_c, 1, 60, 0
3, 60312, Note_on_c, 1, 52, 127
3, 60336, Note_off_c, 1, 52, 0
3, 60336, Note_on_c, 1, 59, 127
3, 60360, Note_off_c, 1, 59, 0
3, 60360, Note_on_c, 1, 60, 127
3, 60384, Note_off_c, 1, 60, 0
3, 60384, Note_on_c, 1, 59, 127
3, 60480, Note_off_c, 1, 59, 0
3, 60528, Note_on_c, 1, 59, 127
3, 60624, Note_off_c, 1, 59, 0
3, 60672, Note_on_c, 1, 59, 127
3, 60768, Note_off_c, 1, 59, 0
3, 60816, Note_on_c, 1, 59, 127
3, 60912, Note_off_c, 1, 59, 0
3, 60960, Note_on_c, 1, 60, 127
3, 61056, Note_off_c, 1, 60, 0
3, 63888, Note_on_c, 1, 48, 127
3, 63936, Note_off_c, 1, 48, 0
3, 63936, Note_on_c, 1, 47, 127
3, 63984, Note_off_c, 1, 47, 0
3, 63984, Note_on_c, 1, 45, 127
3, 64128, Note_off_c, 1, 45, 0
3, 64128, End_track
4, 0, Start_track
4, 0, Title_t, "Track4"
4, 0, Program_c, 2, 19
4, 0, Control_c, 2, 7, 100
4, 0, Control_c, 2, 10, 64
4, 3456, Note_on_c, 2, 33, 101
4, 8856, Note_off_c, 2, 33, 0
4, 8856, Note_on_c, 2, 33, 127
4, 8880, Note_off_c, 2, 33, 0
4, 8880, Note_on_c, 2, 36, 127
4, 8904, Note_off_c, 2, 36, 0
4, 8904, Note_on_c, 2, 33, 127
4, 8928, Note_off_c, 2, 33, 0
4, 8928, Note_on_c, 2, 40, 127
4, 8952, Note_off_c, 2, 40, 0
4, 8952, Note_on_c, 2, 36, 127
4, 8976, Note_off_c, 2, 36, 0
4, 8976, Note_on_c, 2, 40, 127
4, 9000, Note_off_c, 2, 40, 0
4, 9000, Note_on_c, 2, 36, 127
4, 9024, Note_off_c, 2, 36, 0
4, 9024, Note_on_c, 2, 45, 127
4, 9048, Note_off_c, 2, 45, 0
4, 9048, Note_on_c, 2, 40, 127
4, 9072, Note_off_c, 2, 40, 0
4, 9072, Note_on_c, 2, 45, 127
4, 9096, Note_off_c, 2, 45, 0
4, 9096, Note_on_c, 2, 40, 127
4, 9120, Note_off_c, 2, 40, 0
4, 9120, Note_on_c, 2, 48, 127
4, 9144, Note_off_c, 2, 48, 0
4, 9144, Note_on_c, 2, 39, 127
4, 9168, Note_off_c, 2, 39, 0
4, 9168, Note_on_c, 2, 40, 127
4, 9216, Note_off_c, 2, 40, 0
4, 9216, Note_on_c, 2, 40, 127
4, 9408, Note_off_c, 2, 40, 0
4, 9432, Note_on_c, 2, 40, 127
4, 9456, Note_off_c, 2, 40, 0
4, 9456, Note_on_c, 2, 44, 127
4, 9480, Note_off_c, 2, 44, 0
4, 9480, Note_on_c, 2, 40, 127
4, 9504, Note_off_c, 2, 40, 0
4, 9504, Note_on_c, 2, 47, 127
4, 9528, Note_off_c, 2, 47, 0
4, 9528, Note_on_c, 2, 40, 127
4, 9552, Note_off_c, 2, 40, 0
4, 9552, Note_on_c, 2, 44, 127
4, 9576, Note_off_c, 2, 44, 0
4, 9576, Note_on_c, 2, 40, 127
4, 9600, Note_off_c, 2, 40, 0
4, 9600, Note_on_c, 2, 48, 127
4, 9624, Note_off_c, 2, 48, 0
4, 9624, Note_on_c, 2, 39, 127
4, 9648, Note_off_c, 2, 39, 0
4, 9648, Note_on_c, 2, 42, 127
4, 9672, Note_off_c, 2, 42, 0
4, 9672, Note_on_c, 2, 39, 127
4, 9696, Note_off_c, 2, 39, 0
4, 9696, Note_on_c, 2, 47, 127
4, 9720, Note_off_c, 2, 47, 0
4, 9720, Note_on_c, 2, 38, 127
4, 9744, Note_off_c, 2, 38, 0
4, 9744, Note_on_c, 2, 41, 127
4, 9768, Note_off_c, 2, 41, 0
4, 9768, Note_on_c, 2, 38, 127
4, 9792, Note_off_c, 2, 38, 0
4, 9792, Note_on_c, 2, 47, 127
4, 9816, Note_off_c, 2, 47, 0
4, 9816, Note_on_c, 2, 37, 127
4, 9840, Note_off_c, 2, 37, 0
4, 9840, Note_on_c, 2, 40, 127
4, 9864, Note_off_c, 2, 40, 0
4, 9864, Note_on_c, 2, 37, 127
4, 9888, Note_off_c, 2, 37, 0
4, 9888, Note_on_c, 2, 45, 127
4, 9912, Note_off_c, 2, 45, 0
4, 9912, Note_on_c, 2, 36, 127
4, 9936, Note_off_c, 2, 36, 0
4, 9936, Note_on_c, 2, 40, 127
4, 9960, Note_off_c, 2, 40, 0
4, 9960, Note_on_c, 2, 36, 127
4, 9984, Note_off_c, 2, 36, 0
4, 9984, Note_on_c, 2, 45, 127
4, 10008, Note_off_c, 2, 45, 0
4, 10008, Note_on_c, 2, 35, 127
4, 10032, Note_off_c, 2, 35, 0
4, 10032, Note_on_c, 2, 39, 127
4, 10056, Note_off_c, 2, 39, 0
4, 10056, Note_on_c, 2, 35, 127
4, 10080, Note_off_c, 2, 35, 0
4, 10080, Note_on_c, 2, 44, 127
4, 10104, Note_off_c, 2, 44, 0
4, 10104, Note_on_c, 2, 35, 127
4, 10128, Note_off_c, 2, 35, 0
4, 10128, Note_on_c, 2, 38, 127
4, 10152, Note_off_c, 2, 38, 0
4, 10152, Note_on_c, 2, 35, 127
4, 10176, Note_off_c, 2, 35, 0
4, 10176, Note_on_c, 2, 43, 127
4, 10200, Note_off_c, 2, 43, 0
4, 10200, Note_on_c, 2, 37, 127
4, 10224, Note_off_c, 2, 37, 0
4, 10224, Note_on_c, 2, 40, 127
4, 10248, Note_off_c, 2, 40, 0
4, 10248, Note_on_c, 2, 33, 127
4, 10272, Note_off_c, 2, 33, 0
4, 10272, Note_on_c, 2, 41, 127
4, 10296, Note_off_c, 2, 41, 0
4, 10296, Note_on_c, 2, 37, 127
4, 10320, Note_off_c, 2, 37, 0
4, 10320, Note_on_c, 2, 38, 127
4, 10344, Note_off_c, 2, 38, 0
4, 10344, Note_on_c, 2, 32, 127
4, 10368, Note_off_c, 2, 32, 0
4, 10368, Note_on_c, 2, 37, 127
4, 10392, Note_off_c, 2, 37, 0
4, 10392, Note_on_c, 2, 33, 127
4, 10416, Note_off_c, 2, 33, 0
4, 10416, Note_on_c, 2, 40, 127
4, 10440, Note_off_c, 2, 40, 0
4, 10440, Note_on_c, 2, 37, 127
4, 10464, Note_off_c, 2, 37, 0
4, 10464, Note_on_c, 2, 43, 127
4, 10488, Note_off_c, 2, 43, 0
4, 10488, Note_on_c, 2, 40, 127
4, 10512, Note_off_c, 2, 40, 0
4, 10512, Note_on_c, 2, 46, 127
4, 10536, Note_off_c, 2, 46, 0
4, 10536, Note_on_c, 2, 43, 127
4, 10560, Note_off_c, 2, 43, 0
4, 10560, Note_on_c, 2, 49, 127
4, 10584, Note_off_c, 2, 49, 0
4, 10584, Note_on_c, 2, 43, 127
4, 10608, Note_off_c, 2, 43, 0
4, 10608, Note_on_c, 2, 45, 127
4, 10632, Note_off_c, 2, 45, 0
4, 10632, Note_on_c, 2, 40, 127
4, 10656, Note_off_c, 2, 40, 0
4, 10656, Note_on_c, 2, 41, 127
4, 11064, Note_off_c, 2, 41, 0
4, 11064, Note_on_c, 2, 40, 127
4, 11088, Note_off_c, 2, 40, 0
4, 11088, Note_on_c, 2, 41, 127
4, 11112, Note_off_c, 2, 41, 0
4, 11112, Note_on_c, 2, 38, 127
4, 11136, Note_off_c, 2, 38, 0
4, 11136, Note_on_c, 2, 44, 127
4, 11712, Note_off_c, 2, 44, 0
4, 11712, Note_on_c, 2, 33, 76
4, 12174, Note_off_c, 2, 33, 0
4, 12192, Note_on_c, 2, 45, 93
4, 12216, Note_off_c, 2, 45, 0
4, 12216, Note_on_c, 2, 43, 93
4, 12240, Note_off_c, 2, 43, 0
4, 12240, Note_on_c, 2, 45, 93
4, 12264, Note_off_c, 2, 45, 0
4, 12264, Note_on_c, 2, 40, 93
4, 12288, Note_off_c, 2, 40, 0
4, 12288, Note_on_c, 2, 42, 93
4, 13056, Note_off_c, 2, 42, 0
4, 13056, Note_on_c, 2, 43, 93
4, 13368, Note_off_c, 2, 43, 0
4, 13368, Note_on_c, 2, 43, 93
4, 13392, Note_off_c, 2, 43, 0
4, 13392, Note_on_c, 2, 38, 93
4, 13416, Note_off_c, 2, 38, 0
4, 13416, Note_on_c, 2, 43, 93
4, 13440, Note_off_c, 2, 43, 0
4, 13440, Note_on_c, 2, 40, 93
4, 13488, Note_off_c, 2, 40, 0
4, 13488, Note_on_c, 2, 40, 93
4, 13536, Note_off_c, 2, 40, 0
4, 13536, Note_on_c, 2, 40, 93
4, 13584, Note_off_c, 2, 40, 0
4, 13584, Note_on_c, 2, 40, 93
4, 13632, Note_off_c, 2, 40, 0
4, 13632, Note_on_c, 2, 41, 93
4, 13680, Note_off_c, 2, 41, 0
4, 13680, Note_on_c, 2, 41, 93
4, 13728, Note_off_c, 2, 41, 0
4, 13728, Note_on_c, 2, 41, 93
4, 13776, Note_off_c, 2, 41, 0
4, 13776, Note_on_c, 2, 41, 93
4, 13824, Note_off_c, 2, 41, 0
4, 13824, Note_on_c, 2, 41, 93
4, 13872, Note_off_c, 2, 41, 0
4, 13872, Note_on_c, 2, 41, 93
4, 13920, Note_off_c, 2, 41, 0
4, 13920, Note_on_c, 2, 40, 93
4, 13968, Note_off_c, 2, 40, 0
4, 13968, Note_on_c, 2, 40, 93
4, 14016, Note_off_c, 2, 40, 0
4, 14040, Note_on_c, 2, 38, 93
4, 14064, Note_off_c, 2, 38, 0
4, 14064, Note_on_c, 2, 41, 93
4, 14088, Note_off_c, 2, 41, 0
4, 14088, Note_on_c, 2, 38, 93
4, 14112, Note_off_c, 2, 38, 0
4, 14112, Note_on_c, 2, 43, 93
4, 14136, Note_off_c, 2, 43, 0
4, 14136, Note_on_c, 2, 31, 93
4, 14160, Note_off_c, 2, 31, 0
4, 14160, Note_on_c, 2, 38, 93
4, 14184, Note_off_c, 2, 38, 0
4, 14184, Note_on_c, 2, 31, 93
4, 14208, Note_off_c, 2, 31, 0
4, 14208, Note_on_c, 2, 36, 93
4, 14304, Note_off_c, 2, 36, 0
4, 14592, Note_on_c, 2, 36, 93
4, 14688, Note_off_c, 2, 36, 0
4, 14808, Note_on_c, 2, 35, 93
4, 14832, Note_off_c, 2, 35, 0
4, 14832, Note_on_c, 2, 38, 93
4, 14856, Note_off_c, 2, 38, 0
4, 14856, Note_on_c, 2, 35, 93
4, 14880, Note_off_c, 2, 35, 0
4, 14880, Note_on_c, 2, 40, 93
4, 14904, Note_off_c, 2, 40, 0
4, 14904, Note_on_c, 2, 28, 93
4, 14928, Note_off_c, 2, 28, 0
4, 14928, Note_on_c, 2, 32, 93
4, 14952, Note_off_c, 2, 32, 0
4, 14952, Note_on_c, 2, 28, 93
4, 14976, Note_off_c, 2, 28, 0
4, 14976, Note_on_c, 2, 33, 93
4, 15192, Note_off_c, 2, 33, 0
4, 15192, Note_on_c, 2, 45, 93
4, 15216, Note_off_c, 2, 45, 0
4, 15216, Note_on_c, 2, 44, 93
4, 15240, Note_off_c, 2, 44, 0
4, 15240, Note_on_c, 2, 45, 93
4, 15264, Note_off_c, 2, 45, 0
4, 15264, Note_on_c, 2, 40, 93
4, 15288, Note_off_c, 2, 40, 0
4, 15288, Note_on_c, 2, 48, 93
4, 15312, Note_off_c, 2, 48, 0
4, 15312, Note_on_c, 2, 40, 93
4, 15336, Note_off_c, 2, 40, 0
4, 15336, Note_on_c, 2, 43, 93
4, 15360, Note_off_c, 2, 43, 0
4, 15360, Note_on_c, 2, 42, 93
4, 15408, Note_off_c, 2, 42, 0
4, 15408, Note_on_c, 2, 42, 93
4, 15456, Note_off_c, 2, 42, 0
4, 15576, Note_on_c, 2, 43, 93
4, 15600, Note_off_c, 2, 43, 0
4, 15600, Note_on_c, 2, 42, 93
4, 15624, Note_off_c, 2, 42, 0
4, 15624, Note_on_c, 2, 43, 93
4, 15648, Note_off_c, 2, 43, 0
4, 15648, Note_on_c, 2, 38, 93
4, 15672, Note_off_c, 2, 38, 0
4, 15672, Note_on_c, 2, 47, 93
4, 15696, Note_off_c, 2, 47, 0
4, 15696, Note_on_c, 2, 38, 93
4, 15720, Note_off_c, 2, 38, 0
4, 15720, Note_on_c, 2, 41, 93
4, 15744, Note_off_c, 2, 41, 0
4, 15744, Note_on_c, 2, 40, 93
4, 15792, Note_off_c, 2, 40, 0
4, 15792, Note_on_c, 2, 28, 93
4, 15840, Note_off_c, 2, 28, 0
4, 15960, Note_on_c, 2, 41, 93
4, 15984, Note_off_c, 2, 41, 0
4, 15984, Note_on_c, 2, 40, 93
4, 16008, Note_off_c, 2, 40, 0
4, 16008, Note_on_c, 2, 41, 93
4, 16032, Note_off_c, 2, 41, 0
4, 16032, Note_on_c, 2, 36, 93
4, 16056, Note_off_c, 2, 36, 0
4, 16056, Note_on_c, 2, 45, 93
4, 16080, Note_off_c, 2, 45, 0
4, 16080, Note_on_c, 2, 36, 93
4, 16104, Note_off_c, 2, 36, 0
4, 16104, Note_on_c, 2, 40, 93
4, 16128, Note_off_c, 2, 40, 0
4, 16128, Note_on_c, 2, 38, 93
4, 16176, Note_off_c, 2, 38, 0
4, 16176, Note_on_c, 2, 26, 93
4, 16224, Note_off_c, 2, 26, 0
4, 16344, Note_on_c, 2, 40, 93
4, 16368, Note_off_c, 2, 40, 0
4, 16368, Note_on_c, 2, 38, 93
4, 16392, Note_off_c, 2, 38, 0
4, 16392, Note_on_c, 2, 40, 93
4, 16416, Note_off_c, 2, 40, 0
4, 16416, Note_on_c, 2, 35, 93
4, 16440, Note_off_c, 2, 35, 0
4, 16440, Note_on_c, 2, 44, 93
4, 16464, Note_off_c, 2, 44, 0
4, 16464, Note_on_c, 2, 35, 93
4, 16488, Note_off_c, 2, 35, 0
4, 16488, Note_on_c, 2, 38, 93
4, 16512, Note_off_c, 2, 38, 0
4, 16512, Note_on_c, 2, 36, 93
4, 16560, Note_off_c, 2, 36, 0
4, 16560, Note_on_c, 2, 36, 93
4, 16608, Note_off_c, 2, 36, 0
4, 16608, Note_on_c, 2, 36, 93
4, 16656, Note_off_c, 2, 36, 0
4, 16656, Note_on_c, 2, 36, 93
4, 16704, Note_off_c, 2, 36, 0
4, 16704, Note_on_c, 2, 36, 93
4, 16752, Note_off_c, 2, 36, 0
4, 16752, Note_on_c, 2, 36, 93
4, 16800, Note_off_c, 2, 36, 0
4, 16800, Note_on_c, 2, 35, 93
4, 16848, Note_off_c, 2, 35, 0
4, 16848, Note_on_c, 2, 35, 93
4, 16896, Note_off_c, 2, 35, 0
4, 16896, Note_on_c, 2, 35, 93
4, 16944, Note_off_c, 2, 35, 0
4, 16944, Note_on_c, 2, 35, 93
4, 16992, Note_off_c, 2, 35, 0
4, 16992, Note_on_c, 2, 33, 93
4, 17040, Note_off_c, 2, 33, 0
4, 17040, Note_on_c, 2, 33, 93
4, 17088, Note_off_c, 2, 33, 0
4, 17088, Note_on_c, 2, 33, 93
4, 17136, Note_off_c, 2, 33, 0
4, 17136, Note_on_c, 2, 33, 93
4, 17184, Note_off_c, 2, 33, 0
4, 17184, Note_on_c, 2, 32, 93
4, 17232, Note_off_c, 2, 32, 0
4, 17232, Note_on_c, 2, 32, 93
4, 17280, Note_off_c, 2, 32, 0
4, 17280, Note_on_c, 2, 33, 93
4, 17304, Note_off_c, 2, 33, 0
4, 17304, Note_on_c, 2, 45, 93
4, 17328, Note_off_c, 2, 45, 0
4, 17328, Note_on_c, 2, 44, 93
4, 17352, Note_off_c, 2, 44, 0
4, 17352, Note_on_c, 2, 45, 93
4, 17376, Note_off_c, 2, 45, 0
4, 17376, Note_on_c, 2, 40, 93
4, 17400, Note_off_c, 2, 40, 0
4, 17400, Note_on_c, 2, 48, 93
4, 17424, Note_off_c, 2, 48, 0
4, 17424, Note_on_c, 2, 40, 93
4, 17448, Note_off_c, 2, 40, 0
4, 17448, Note_on_c, 2, 45, 93
4, 17472, Note_off_c, 2, 45, 0
4, 17472, Note_on_c, 2, 36, 93
4, 17496, Note_off_c, 2, 36, 0
4, 17496, Note_on_c, 2, 40, 93
4, 17520, Note_off_c, 2, 40, 0
4, 17520, Note_on_c, 2, 39, 93
4, 17544, Note_off_c, 2, 39, 0
4, 17544, Note_on_c, 2, 40, 93
4, 17568, Note_off_c, 2, 40, 0
4, 17568, Note_on_c, 2, 36, 93
4, 17592, Note_off_c, 2, 36, 0
4, 17592, Note_on_c, 2, 45, 93
4, 17616, Note_off_c, 2, 45, 0
4, 17616, Note_on_c, 2, 36, 93
4, 17640, Note_off_c, 2, 36, 0
4, 17640, Note_on_c, 2, 40, 93
4, 17664, Note_off_c, 2, 40, 0
4, 17664, Note_on_c, 2, 33, 93
4, 17688, Note_off_c, 2, 33, 0
4, 17688, Note_on_c, 2, 36, 93
4, 17712, Note_off_c, 2, 36, 0
4, 17712, Note_on_c, 2, 35, 93
4, 17736, Note_off_c, 2, 35, 0
4, 17736, Note_on_c, 2, 36, 93
4, 17760, Note_off_c, 2, 36, 0
4, 17760, Note_on_c, 2, 33, 93
4, 17784, Note_off_c, 2, 33, 0
4, 17784, Note_on_c, 2, 40, 93
4, 17808, Note_off_c, 2, 40, 0
4, 17808, Note_on_c, 2, 33, 93
4, 17832, Note_off_c, 2, 33, 0
4, 17832, Note_on_c, 2, 36, 93
4, 17856, Note_off_c, 2, 36, 0
4, 17856, Note_on_c, 2, 28, 93
4, 18432, Note_off_c, 2, 28, 0
4, 18432, Note_on_c, 2, 33, 93
4, 18912, Note_off_c, 2, 33, 0
4, 18936, Note_on_c, 2, 38, 93
4, 18960, Note_off_c, 2, 38, 0
4, 18960, Note_on_c, 2, 37, 93
4, 18984, Note_off_c, 2, 37, 0
4, 18984, Note_on_c, 2, 38, 93
4, 19008, Note_off_c, 2, 38, 0
4, 19008, Note_on_c, 2, 33, 93
4, 19056, Note_off_c, 2, 33, 0
4, 19056, Note_on_c, 2, 45, 93
4, 19104, Note_off_c, 2, 45, 0
4, 19128, Note_on_c, 2, 38, 93
4, 19152, Note_off_c, 2, 38, 0
4, 19152, Note_on_c, 2, 37, 93
4, 19176, Note_off_c, 2, 37, 0
4, 19176, Note_on_c, 2, 38, 93
4, 19200, Note_off_c, 2, 38, 0
4, 19200, Note_on_c, 2, 33, 93
4, 19248, Note_off_c, 2, 33, 0
4, 19248, Note_on_c, 2, 45, 93
4, 19296, Note_off_c, 2, 45, 0
4, 19320, Note_on_c, 2, 41, 93
4, 19344, Note_off_c, 2, 41, 0
4, 19344, Note_on_c, 2, 40, 93
4, 19368, Note_off_c, 2, 40, 0
4, 19368, Note_on_c, 2, 41, 93
4, 19392, Note_off_c, 2, 41, 0
4, 19392, Note_on_c, 2, 38, 93
4, 19440, Note_off_c, 2, 38, 0
4, 19440, Note_on_c, 2, 45, 93
4, 19488, Note_off_c, 2, 45, 0
4, 19512, Note_on_c, 2, 41, 93
4, 19536, Note_off_c, 2, 41, 0
4, 19536, Note_on_c, 2, 40, 93
4, 19560, Note_off_c, 2, 40, 0
4, 19560, Note_on_c, 2, 41, 93
4, 19584, Note_off_c, 2, 41, 0
4, 19584, Note_on_c, 2, 38, 93
4, 19632, Note_off_c, 2, 38, 0
4, 19632, Note_on_c, 2, 45, 93
4, 19680, Note_off_c, 2, 45, 0
4, 19704, Note_on_c, 2, 45, 93
4, 19728, Note_off_c, 2, 45, 0
4, 19728, Note_on_c, 2, 43, 93
4, 19752, Note_off_c, 2, 43, 0
4, 19752, Note_on_c, 2, 45, 93
4, 19776, Note_off_c, 2, 45, 0
4, 19776, Note_on_c, 2, 41, 93
4, 19824, Note_off_c, 2, 41, 0
4, 19824, Note_on_c, 2, 50, 93
4, 19872, Note_off_c, 2, 50, 0
4, 19896, Note_on_c, 2, 47, 93
4, 19920, Note_off_c, 2, 47, 0
4, 19920, Note_on_c, 2, 44, 93
4, 19944, Note_off_c, 2, 44, 0
4, 19944, Note_on_c, 2, 47, 93
4, 19968, Note_off_c, 2, 47, 0
4, 19968, Note_on_c, 2, 33, 93
4, 20352, Note_off_c, 2, 33, 0
4, 27984, Note_on_c, 2, 40, 127
4, 28032, Note_off_c, 2, 40, 0
4, 28032, Note_on_c, 2, 43, 127
4, 28056, Note_off_c, 2, 43, 0
4, 28056, Note_on_c, 2, 42, 127
4, 28080, Note_off_c, 2, 42, 0
4, 28080, Note_on_c, 2, 43, 127
4, 28104, Note_off_c, 2, 43, 0
4, 28104, Note_on_c, 2, 40, 127
4, 28128, Note_off_c, 2, 40, 0
4, 28128, Note_on_c, 2, 42, 127
4, 28164, Note_off_c, 2, 42, 0
4, 28176, Note_on_c, 2, 35, 127
4, 28224, Note_off_c, 2, 35, 0
4, 28224, Note_on_c, 2, 47, 127
4, 28248, Note_off_c, 2, 47, 0
4, 28248, Note_on_c, 2, 42, 127
4, 28272, Note_off_c, 2, 42, 0
4, 28272, Note_on_c, 2, 43, 127
4, 28308, Note_off_c, 2, 43, 0
4, 28320, Note_on_c, 2, 40, 127
4, 28368, Note_off_c, 2, 40, 0
4, 28368, Note_on_c, 2, 47, 127
4, 28416, Note_off_c, 2, 47, 0
4, 28416, Note_on_c, 2, 48, 127
4, 28440, Note_off_c, 2, 48, 0
4, 28440, Note_on_c, 2, 47, 127
4, 28464, Note_off_c, 2, 47, 0
4, 28464, Note_on_c, 2, 48, 127
4, 28488, Note_off_c, 2, 48, 0
4, 28488, Note_on_c, 2, 45, 127
4, 28512, Note_off_c, 2, 45, 0
4, 28512, Note_on_c, 2, 48, 127
4, 28536, Note_off_c, 2, 48, 0
4, 28536, Note_on_c, 2, 43, 127
4, 28560, Note_off_c, 2, 43, 0
4, 28560, Note_on_c, 2, 48, 127
4, 28584, Note_off_c, 2, 48, 0
4, 28584, Note_on_c, 2, 45, 127
4, 28608, Note_off_c, 2, 45, 0
4, 28608, Note_on_c, 2, 48, 127
4, 28632, Note_off_c, 2, 48, 0
4, 28632, Note_on_c, 2, 42, 127
4, 28656, Note_off_c, 2, 42, 0
4, 28656, Note_on_c, 2, 48, 127
4, 28680, Note_off_c, 2, 48, 0
4, 28680, Note_on_c, 2, 38, 127
4, 28704, Note_off_c, 2, 38, 0
4, 28704, Note_on_c, 2, 47, 127
4, 28728, Note_off_c, 2, 47, 0
4, 28728, Note_on_c, 2, 45, 127
4, 28752, Note_off_c, 2, 45, 0
4, 28752, Note_on_c, 2, 47, 127
4, 28776, Note_off_c, 2, 47, 0
4, 28776, Note_on_c, 2, 43, 127
4, 28800, Note_off_c, 2, 43, 0
4, 28800, Note_on_c, 2, 47, 127
4, 28824, Note_off_c, 2, 47, 0
4, 28824, Note_on_c, 2, 42, 127
4, 28848, Note_off_c, 2, 42, 0
4, 28848, Note_on_c, 2, 47, 127
4, 28872, Note_off_c, 2, 47, 0
4, 28872, Note_on_c, 2, 43, 127
4, 28896, Note_off_c, 2, 43, 0
4, 28896, Note_on_c, 2, 47, 127
4, 28920, Note_off_c, 2, 47, 0
4, 28920, Note_on_c, 2, 40, 127
4, 28944, Note_off_c, 2, 40, 0
4, 28944, Note_on_c, 2, 47, 127
4, 28968, Note_off_c, 2, 47, 0
4, 28968, Note_on_c, 2, 36, 127
4, 28992, Note_off_c, 2, 36, 0
4, 28992, Note_on_c, 2, 45, 127
4, 29016, Note_off_c, 2, 45, 0
4, 29016, Note_on_c, 2, 43, 127
4, 29040, Note_off_c, 2, 43, 0
4, 29040, Note_on_c, 2, 45, 127
4, 29064, Note_off_c, 2, 45, 0
4, 29064, Note_on_c, 2, 42, 127
4, 29088, Note_off_c, 2, 42, 0
4, 29088, Note_on_c, 2, 45, 127
4, 29112, Note_off_c, 2, 45, 0
4, 29112, Note_on_c, 2, 40, 127
4, 29136, Note_off_c, 2, 40, 0
4, 29136, Note_on_c, 2, 45, 127
4, 29160, Note_off_c, 2, 45, 0
4, 29160, Note_on_c, 2, 42, 127
4, 29184, Note_off_c, 2, 42, 0
4, 29184, Note_on_c, 2, 45, 127
4, 29208, Note_off_c, 2, 45, 0
4, 29208, Note_on_c, 2, 39, 127
4, 29232, Note_off_c, 2, 39, 0
4, 29232, Note_on_c, 2, 45, 127
4, 29256, Note_off_c, 2, 45, 0
4, 29256, Note_on_c, 2, 35, 127
4, 29280, Note_off_c, 2, 35, 0
4, 29280, Note_on_c, 2, 43, 127
4, 29304, Note_off_c, 2, 43, 0
4, 29304, Note_on_c, 2, 42, 127
4, 29328, Note_off_c, 2, 42, 0
4, 29328, Note_on_c, 2, 43, 127
4, 29352, Note_off_c, 2, 43, 0
4, 29352, Note_on_c, 2, 39, 127
4, 29376, Note_off_c, 2, 39, 0
4, 29376, Note_on_c, 2, 40, 127
4, 29400, Note_off_c, 2, 40, 0
4, 29400, Note_on_c, 2, 35, 127
4, 29424, Note_off_c, 2, 35, 0
4, 29424, Note_on_c, 2, 37, 127
4, 29448, Note_off_c, 2, 37, 0
4, 29448, Note_on_c, 2, 35, 127
4, 29472, Note_off_c, 2, 35, 0
4, 29472, Note_on_c, 2, 37, 127
4, 29496, Note_off_c, 2, 37, 0
4, 29496, Note_on_c, 2, 33, 127
4, 29520, Note_off_c, 2, 33, 0
4, 29520, Note_on_c, 2, 40, 127
4, 29544, Note_off_c, 2, 40, 0
4, 29544, Note_on_c, 2, 37, 127
4, 29568, Note_off_c, 2, 37, 0
4, 29568, Note_on_c, 2, 41, 127
4, 29592, Note_off_c, 2, 41, 0
4, 29592, Note_on_c, 2, 40, 127
4, 29616, Note_off_c, 2, 40, 0
4, 29616, Note_on_c, 2, 41, 127
4, 29640, Note_off_c, 2, 41, 0
4, 29640, Note_on_c, 2, 37, 127
4, 29664, Note_off_c, 2, 37, 0
4, 29664, Note_on_c, 2, 38, 127
4, 29688, Note_off_c, 2, 38, 0
4, 29688, Note_on_c, 2, 33, 127
4, 29712, Note_off_c, 2, 33, 0
4, 29712, Note_on_c, 2, 35, 127
4, 29736, Note_off_c, 2, 35, 0
4, 29736, Note_on_c, 2, 33, 127
4, 29760, Note_off_c, 2, 33, 0
4, 29760, Note_on_c, 2, 35, 127
4, 29784, Note_off_c, 2, 35, 0
4, 29784, Note_on_c, 2, 31, 127
4, 29808, Note_off_c, 2, 31, 0
4, 29808, Note_on_c, 2, 38, 127
4, 29832, Note_off_c, 2, 38, 0
4, 29832, Note_on_c, 2, 35, 127
4, 29856, Note_off_c, 2, 35, 0
4, 29856, Note_on_c, 2, 40, 127
4, 29880, Note_off_c, 2, 40, 0
4, 29880, Note_on_c, 2, 38, 127
4, 29904, Note_off_c, 2, 38, 0
4, 29904, Note_on_c, 2, 40, 127
4, 29928, Note_off_c, 2, 40, 0
4, 29928, Note_on_c, 2, 35, 127
4, 29952, Note_off_c, 2, 35, 0
4, 29952, Note_on_c, 2, 36, 127
4, 29976, Note_off_c, 2, 36, 0
4, 29976, Note_on_c, 2, 32, 127
4, 30000, Note_off_c, 2, 32, 0
4, 30000, Note_on_c, 2, 33, 127
4, 30024, Note_off_c, 2, 33, 0
4, 30024, Note_on_c, 2, 31, 127
4, 30048, Note_off_c, 2, 31, 0
4, 30048, Note_on_c, 2, 33, 127
4, 30072, Note_off_c, 2, 33, 0
4, 30072, Note_on_c, 2, 29, 127
4, 30096, Note_off_c, 2, 29, 0
4, 30096, Note_on_c, 2, 36, 127
4, 30120, Note_off_c, 2, 36, 0
4, 30120, Note_on_c, 2, 33, 127
4, 30144, Note_off_c, 2, 33, 0
4, 30144, Note_on_c, 2, 38, 127
4, 30168, Note_off_c, 2, 38, 0
4, 30168, Note_on_c, 2, 36, 118
4, 30192, Note_off_c, 2, 36, 0
4, 30192, Note_on_c, 2, 38, 118
4, 30216, Note_off_c, 2, 38, 0
4, 30216, Note_on_c, 2, 35, 118
4, 30240, Note_off_c, 2, 35, 0
4, 30240, Note_on_c, 2, 41, 110
4, 30264, Note_off_c, 2, 41, 0
4, 30264, Note_on_c, 2, 38, 110
4, 30288, Note_off_c, 2, 38, 0
4, 30288, Note_on_c, 2, 44, 110
4, 30312, Note_off_c, 2, 44, 0
4, 30312, Note_on_c, 2, 42, 110
4, 30336, Note_off_c, 2, 42, 0
4, 30336, Note_on_c, 2, 44, 101
4, 30360, Note_off_c, 2, 44, 0
4, 30360, Note_on_c, 2, 40, 101
4, 30384, Note_off_c, 2, 40, 0
4, 30384, Note_on_c, 2, 47, 101
4, 30408, Note_off_c, 2, 47, 0
4, 30408, Note_on_c, 2, 44, 93
4, 30432, Note_off_c, 2, 44, 0
4, 30432, Note_on_c, 2, 45, 93
4, 30480, Note_off_c, 2, 45, 0
4, 30480, Note_on_c, 2, 33, 93
4, 30528, Note_off_c, 2, 33, 0
4, 30624, Note_on_c, 2, 38, 93
4, 30672, Note_off_c, 2, 38, 0
4, 30672, Note_on_c, 2, 41, 93
4, 30720, Note_off_c, 2, 41, 0
4, 30720, Note_on_c, 2, 43, 93
4, 30768, Note_off_c, 2, 43, 0
4, 30768, Note_on_c, 2, 31, 93
4, 30816, Note_off_c, 2, 31, 0
4, 30912, Note_on_c, 2, 36, 93
4, 30960, Note_off_c, 2, 36, 0
4, 30960, Note_on_c, 2, 40, 93
4, 31008, Note_off_c, 2, 40, 0
4, 31008, Note_on_c, 2, 41, 93
4, 31056, Note_off_c, 2, 41, 0
4, 31056, Note_on_c, 2, 45, 93
4, 31104, Note_off_c, 2, 45, 0
4, 31104, Note_on_c, 2, 41, 93
4, 31152, Note_off_c, 2, 41, 0
4, 31152, Note_on_c, 2, 38, 93
4, 31200, Note_off_c, 2, 38, 0
4, 31200, Note_on_c, 2, 35, 93
4, 31248, Note_off_c, 2, 35, 0
4, 31248, Note_on_c, 2, 38, 93
4, 31296, Note_off_c, 2, 38, 0
4, 31296, Note_on_c, 2, 40, 93
4, 31344, Note_off_c, 2, 40, 0
4, 31344, Note_on_c, 2, 44, 93
4, 31392, Note_off_c, 2, 44, 0
4, 31392, Note_on_c, 2, 40, 93
4, 31440, Note_off_c, 2, 40, 0
4, 31440, Note_on_c, 2, 36, 93
4, 31488, Note_off_c, 2, 36, 0
4, 31488, Note_on_c, 2, 33, 93
4, 31536, Note_off_c, 2, 33, 0
4, 31536, Note_on_c, 2, 45, 93
4, 31584, Note_off_c, 2, 45, 0
4, 31584, Note_on_c, 2, 45, 93
4, 31608, Note_off_c, 2, 45, 0
4, 31608, Note_on_c, 2, 48, 93
4, 31632, Note_off_c, 2, 48, 0
4, 31632, Note_on_c, 2, 47, 93
4, 31656, Note_off_c, 2, 47, 0
4, 31656, Note_on_c, 2, 48, 93
4, 31680, Note_off_c, 2, 48, 0
4, 31680, Note_on_c, 2, 45, 93
4, 31704, Note_off_c, 2, 45, 0
4, 31704, Note_on_c, 2, 47, 93
4, 31728, Note_off_c, 2, 47, 0
4, 31728, Note_on_c, 2, 44, 93
4, 31752, Note_off_c, 2, 44, 0
4, 31752, Note_on_c, 2, 47, 93
4, 31776, Note_off_c, 2, 47, 0
4, 31776, Note_on_c, 2, 45, 93
4, 31800, Note_off_c, 2, 45, 0
4, 31800, Note_on_c, 2, 47, 93
4, 31824, Note_off_c, 2, 47, 0
4, 31824, Note_on_c, 2, 44, 93
4, 31848, Note_off_c, 2, 44, 0
4, 31848, Note_on_c, 2, 45, 93
4, 31872, Note_off_c, 2, 45, 0
4, 31872, Note_on_c, 2, 42, 93
4, 31896, Note_off_c, 2, 42, 0
4, 31896, Note_on_c, 2, 45, 93
4, 31920, Note_off_c, 2, 45, 0
4, 31920, Note_on_c, 2, 44, 93
4, 31944, Note_off_c, 2, 44, 0
4, 31944, Note_on_c, 2, 45, 93
4, 31968, Note_off_c, 2, 45, 0
4, 31968, Note_on_c, 2, 42, 93
4, 31992, Note_off_c, 2, 42, 0
4, 31992, Note_on_c, 2, 43, 93
4, 32016, Note_off_c, 2, 43, 0
4, 32016, Note_on_c, 2, 45, 93
4, 32040, Note_off_c, 2, 45, 0
4, 32040, Note_on_c, 2, 40, 93
4, 32064, Note_off_c, 2, 40, 0
4, 32064, Note_on_c, 2, 41, 93
4, 32088, Note_off_c, 2, 41, 0
4, 32088, Note_on_c, 2, 40, 93
4, 32112, Note_off_c, 2, 40, 0
4, 32112, Note_on_c, 2, 41, 93
4, 32136, Note_off_c, 2, 41, 0
4, 32136, Note_on_c, 2, 36, 93
4, 32160, Note_off_c, 2, 36, 0
4, 32160, Note_on_c, 2, 38, 93
4, 32256, Note_off_c, 2, 38, 0
4, 32304, Note_on_c, 2, 40, 93
4, 32400, Note_off_c, 2, 40, 0
4, 32448, Note_on_c, 2, 41, 93
4, 32544, Note_off_c, 2, 41, 0
4, 32592, Note_on_c, 2, 36, 93
4, 32688, Note_off_c, 2, 36, 0
4, 32736, Note_on_c, 2, 38, 93
4, 32814, Note_off_c, 2, 38, 0
4, 32832, Note_on_c, 2, 32, 93
4, 32868, Note_off_c, 2, 32, 0
4, 32880, Note_on_c, 2, 33, 93
4, 32916, Note_off_c, 2, 33, 0
4, 32928, Note_on_c, 2, 40, 93
4, 32964, Note_off_c, 2, 40, 0
4, 32976, Note_on_c, 2, 28, 93
4, 33012, Note_off_c, 2, 28, 0
4, 33024, Note_on_c, 2, 33, 93
4, 33138, Note_off_c, 2, 33, 0
4, 33168, Note_on_c, 2, 40, 93
4, 33282, Note_off_c, 2, 40, 0
4, 33312, Note_on_c, 2, 33, 93
4, 33360, Note_off_c, 2, 33, 0
4, 33360, Note_on_c, 2, 36, 93
4, 33384, Note_off_c, 2, 36, 0
4, 33384, Note_on_c, 2, 35, 93
4, 33408, Note_off_c, 2, 35, 0
4, 33408, Note_on_c, 2, 36, 93
4, 33432, Note_off_c, 2, 36, 0
4, 33432, Note_on_c, 2, 33, 93
4, 33456, Note_off_c, 2, 33, 0
4, 33456, Note_on_c, 2, 38, 93
4, 33552, Note_off_c, 2, 38, 0
4, 33552, Note_on_c, 2, 33, 93
4, 33600, Note_off_c, 2, 33, 0
4, 33600, Note_on_c, 2, 35, 93
4, 33648, Note_off_c, 2, 35, 0
4, 33648, Note_on_c, 2, 31, 93
4, 33696, Note_off_c, 2, 31, 0
4, 33696, Note_on_c, 2, 35, 93
4, 33744, Note_off_c, 2, 35, 0
4, 33744, Note_on_c, 2, 36, 93
4, 33840, Note_off_c, 2, 36, 0
4, 33888, Note_on_c, 2, 33, 93
4, 33936, Note_off_c, 2, 33, 0
4, 33936, Note_on_c, 2, 29, 93
4, 33984, Note_off_c, 2, 29, 0
4, 33984, Note_on_c, 2, 33, 93
4, 34032, Note_off_c, 2, 33, 0
4, 34032, Note_on_c, 2, 35, 93
4, 34128, Note_off_c, 2, 35, 0
4, 34176, Note_on_c, 2, 32, 93
4, 34224, Note_off_c, 2, 32, 0
4, 34224, Note_on_c, 2, 28, 93
4, 34272, Note_off_c, 2, 28, 0
4, 34272, Note_on_c, 2, 32, 93
4, 34320, Note_off_c, 2, 32, 0
4, 34320, Note_on_c, 2, 33, 93
4, 34368, Note_off_c, 2, 33, 0
4, 34464, Note_on_c, 2, 40, 93
4, 34560, Note_off_c, 2, 40, 0
4, 34608, Note_on_c, 2, 47, 93
4, 34704, Note_off_c, 2, 47, 0
4, 34704, Note_on_c, 2, 43, 93
4, 34776, Note_off_c, 2, 43, 0
4, 34776, Note_on_c, 2, 45, 93
4, 34800, Note_off_c, 2, 45, 0
4, 34800, Note_on_c, 2, 47, 93
4, 34848, Note_off_c, 2, 47, 0
4, 34848, Note_on_c, 2, 35, 93
4, 34896, Note_off_c, 2, 35, 0
4, 34896, Note_on_c, 2, 40, 93
4, 34992, Note_off_c, 2, 40, 0
4, 35040, Note_on_c, 2, 28, 93
4, 35136, Note_off_c, 2, 28, 0
4, 47856, Note_on_c, 2, 33, 127
4, 47904, Note_off_c, 2, 33, 0
4, 47904, Note_on_c, 2, 36, 127
4, 47928, Note_off_c, 2, 36, 0
4, 47928, Note_on_c, 2, 35, 127
4, 47952, Note_off_c, 2, 35, 0
4, 47952, Note_on_c, 2, 36, 127
4, 47976, Note_off_c, 2, 36, 0
4, 47976, Note_on_c, 2, 33, 127
4, 48000, Note_off_c, 2, 33, 0
4, 48000, Note_on_c, 2, 35, 127
4, 48036, Note_off_c, 2, 35, 0
4, 48048, Note_on_c, 2, 28, 127
4, 48096, Note_off_c, 2, 28, 0
4, 48096, Note_on_c, 2, 40, 127
4, 48120, Note_off_c, 2, 40, 0
4, 48120, Note_on_c, 2, 35, 127
4, 48144, Note_off_c, 2, 35, 0
4, 48144, Note_on_c, 2, 36, 127
4, 48180, Note_off_c, 2, 36, 0
4, 48192, Note_on_c, 2, 33, 127
4, 48240, Note_off_c, 2, 33, 0
4, 48240, Note_on_c, 2, 45, 127
4, 48336, Note_off_c, 2, 45, 0
4, 48336, Note_on_c, 2, 44, 127
4, 48432, Note_off_c, 2, 44, 0
4, 48432, Note_on_c, 2, 45, 127
4, 50496, Note_off_c, 2, 45, 0
4, 50496, Note_on_c, 2, 33, 127
4, 50544, Note_off_c, 2, 33, 0
4, 50544, Note_on_c, 2, 45, 127
4, 50880, Note_off_c, 2, 45, 0
4, 50880, Note_on_c, 2, 47, 127
4, 50928, Note_off_c, 2, 47, 0
4, 50928, Note_on_c, 2, 45, 127
4, 51528, Note_off_c, 2, 45, 0
4, 51528, Note_on_c, 2, 43, 127
4, 51552, Note_off_c, 2, 43, 0
4, 51552, Note_on_c, 2, 45, 127
4, 51888, Note_off_c, 2, 45, 0
4, 51888, Note_on_c, 2, 47, 127
4, 51912, Note_off_c, 2, 47, 0
4, 51912, Note_on_c, 2, 45, 127
4, 52008, Note_off_c, 2, 45, 0
4, 52008, Note_on_c, 2, 42, 127
4, 52032, Note_off_c, 2, 42, 0
4, 52032, Note_on_c, 2, 43, 127
4, 52056, Note_off_c, 2, 43, 0
4, 52056, Note_on_c, 2, 42, 127
4, 52080, Note_off_c, 2, 42, 0
4, 52080, Note_on_c, 2, 43, 127
4, 52104, Note_off_c, 2, 43, 0
4, 52104, Note_on_c, 2, 40, 127
4, 52128, Note_off_c, 2, 40, 0
4, 52128, Note_on_c, 2, 42, 127
4, 52152, Note_off_c, 2, 42, 0
4, 52152, Note_on_c, 2, 38, 127
4, 52176, Note_off_c, 2, 38, 0
4, 52176, Note_on_c, 2, 40, 127
4, 52200, Note_off_c, 2, 40, 0
4, 52200, Note_on_c, 2, 38, 127
4, 52224, Note_off_c, 2, 38, 0
4, 52224, Note_on_c, 2, 40, 127
4, 52248, Note_off_c, 2, 40, 0
4, 52248, Note_on_c, 2, 36, 127
4, 52272, Note_off_c, 2, 36, 0
4, 52272, Note_on_c, 2, 38, 127
4, 52296, Note_off_c, 2, 38, 0
4, 52296, Note_on_c, 2, 35, 127
4, 52320, Note_off_c, 2, 35, 0
4, 52320, Note_on_c, 2, 36, 127
4, 52344, Note_off_c, 2, 36, 0
4, 52344, Note_on_c, 2, 35, 127
4, 52368, Note_off_c, 2, 35, 0
4, 52368, Note_on_c, 2, 36, 127
4, 52392, Note_off_c, 2, 36, 0
4, 52392, Note_on_c, 2, 33, 127
4, 52416, Note_off_c, 2, 33, 0
4, 52416, Note_on_c, 2, 35, 127
4, 52440, Note_off_c, 2, 35, 0
4, 52440, Note_on_c, 2, 31, 127
4, 52464, Note_off_c, 2, 31, 0
4, 52464, Note_on_c, 2, 33, 127
4, 52560, Note_off_c, 2, 33, 0
4, 52560, Note_on_c, 2, 31, 127
4, 52608, Note_off_c, 2, 31, 0
4, 52608, Note_on_c, 2, 30, 127
4, 52656, Note_off_c, 2, 30, 0
4, 52656, Note_on_c, 2, 28, 127
4, 52704, Note_off_c, 2, 28, 0
4, 52704, Note_on_c, 2, 27, 127
4, 52752, Note_off_c, 2, 27, 0
4, 52752, Note_on_c, 2, 28, 127
4, 52800, Note_off_c, 2, 28, 0
4, 52800, Note_on_c, 2, 35, 127
4, 52896, Note_off_c, 2, 35, 0
4, 52896, Note_on_c, 2, 28, 127
4, 52992, Note_off_c, 2, 28, 0
4, 53040, Note_on_c, 2, 35, 127
4, 53136, Note_off_c, 2, 35, 0
4, 53184, Note_on_c, 2, 40, 127
4, 53280, Note_off_c, 2, 40, 0
4, 53328, Note_on_c, 2, 47, 127
4, 53424, Note_off_c, 2, 47, 0
4, 53472, Note_on_c, 2, 40, 127
4, 53568, Note_off_c, 2, 40, 0
4, 53616, Note_on_c, 2, 35, 127
4, 53712, Note_off_c, 2, 35, 0
4, 53760, Note_on_c, 2, 28, 127
4, 53856, Note_off_c, 2, 28, 0
4, 53904, Note_on_c, 2, 33, 127
4, 54000, Note_off_c, 2, 33, 0
4, 54048, Note_on_c, 2, 26, 127
4, 54144, Note_off_c, 2, 26, 0
4, 54192, Note_on_c, 2, 31, 127
4, 54288, Note_off_c, 2, 31, 0
4, 54336, Note_on_c, 2, 24, 127
4, 54432, Note_off_c, 2, 24, 0
4, 54480, Note_on_c, 2, 30, 127
4, 54576, Note_off_c, 2, 30, 0
4, 54624, Note_on_c, 2, 35, 127
4, 54768, Note_off_c, 2, 35, 0
4, 54768, Note_on_c, 2, 43, 127
4, 54792, Note_off_c, 2, 43, 0
4, 54792, Note_on_c, 2, 42, 127
4, 54816, Note_off_c, 2, 42, 0
4, 54816, Note_on_c, 2, 43, 127
4, 54840, Note_off_c, 2, 43, 0
4, 54840, Note_on_c, 2, 40, 127
4, 54864, Note_off_c, 2, 40, 0
4, 54864, Note_on_c, 2, 43, 127
4, 54888, Note_off_c, 2, 43, 0
4, 54888, Note_on_c, 2, 38, 127
4, 54912, Note_off_c, 2, 38, 0
4, 54912, Note_on_c, 2, 43, 127
4, 54936, Note_off_c, 2, 43, 0
4, 54936, Note_on_c, 2, 40, 127
4, 54960, Note_off_c, 2, 40, 0
4, 54960, Note_on_c, 2, 43, 127
4, 54984, Note_off_c, 2, 43, 0
4, 54984, Note_on_c, 2, 37, 127
4, 55008, Note_off_c, 2, 37, 0
4, 55008, Note_on_c, 2, 43, 127
4, 55032, Note_off_c, 2, 43, 0
4, 55032, Note_on_c, 2, 33, 127
4, 55056, Note_off_c, 2, 33, 0
4, 55056, Note_on_c, 2, 41, 127
4, 55080, Note_off_c, 2, 41, 0
4, 55080, Note_on_c, 2, 40, 127
4, 55104, Note_off_c, 2, 40, 0
4, 55104, Note_on_c, 2, 41, 127
4, 55128, Note_off_c, 2, 41, 0
4, 55128, Note_on_c, 2, 38, 127
4, 55152, Note_off_c, 2, 38, 0
4, 55152, Note_on_c, 2, 41, 127
4, 55176, Note_off_c, 2, 41, 0
4, 55176, Note_on_c, 2, 36, 127
4, 55200, Note_off_c, 2, 36, 0
4, 55200, Note_on_c, 2, 41, 127
4, 55224, Note_off_c, 2, 41, 0
4, 55224, Note_on_c, 2, 38, 127
4, 55248, Note_off_c, 2, 38, 0
4, 55248, Note_on_c, 2, 41, 127
4, 55272, Note_off_c, 2, 41, 0
4, 55272, Note_on_c, 2, 35, 127
4, 55296, Note_off_c, 2, 35, 0
4, 55296, Note_on_c, 2, 41, 127
4, 55320, Note_off_c, 2, 41, 0
4, 55320, Note_on_c, 2, 31, 127
4, 55344, Note_off_c, 2, 31, 0
4, 55344, Note_on_c, 2, 40, 127
4, 55368, Note_off_c, 2, 40, 0
4, 55368, Note_on_c, 2, 38, 127
4, 55392, Note_off_c, 2, 38, 0
4, 55392, Note_on_c, 2, 40, 127
4, 55416, Note_off_c, 2, 40, 0
4, 55416, Note_on_c, 2, 36, 127
4, 55440, Note_off_c, 2, 36, 0
4, 55440, Note_on_c, 2, 40, 127
4, 55464, Note_off_c, 2, 40, 0
4, 55464, Note_on_c, 2, 35, 127
4, 55488, Note_off_c, 2, 35, 0
4, 55488, Note_on_c, 2, 40, 127
4, 55512, Note_off_c, 2, 40, 0
4, 55512, Note_on_c, 2, 36, 127
4, 55536, Note_off_c, 2, 36, 0
4, 55536, Note_on_c, 2, 40, 127
4, 55560, Note_off_c, 2, 40, 0
4, 55560, Note_on_c, 2, 33, 127
4, 55584, Note_off_c, 2, 33, 0
4, 55584, Note_on_c, 2, 40, 127
4, 55608, Note_off_c, 2, 40, 0
4, 55608, Note_on_c, 2, 29, 127
4, 55632, Note_off_c, 2, 29, 0
4, 55632, Note_on_c, 2, 38, 127
4, 55656, Note_off_c, 2, 38, 0
4, 55656, Note_on_c, 2, 36, 127
4, 55680, Note_off_c, 2, 36, 0
4, 55680, Note_on_c, 2, 38, 127
4, 55704, Note_off_c, 2, 38, 0
4, 55704, Note_on_c, 2, 35, 127
4, 55728, Note_off_c, 2, 35, 0
4, 55728, Note_on_c, 2, 38, 127
4, 55752, Note_off_c, 2, 38, 0
4, 55752, Note_on_c, 2, 33, 127
4, 55776, Note_off_c, 2, 33, 0
4, 55776, Note_on_c, 2, 38, 127
4, 55800, Note_off_c, 2, 38, 0
4, 55800, Note_on_c, 2, 35, 127
4, 55824, Note_off_c, 2, 35, 0
4, 55824, Note_on_c, 2, 38, 127
4, 55848, Note_off_c, 2, 38, 0
4, 55848, Note_on_c, 2, 32, 127
4, 55872, Note_off_c, 2, 32, 0
4, 55872, Note_on_c, 2, 38, 127
4, 55896, Note_off_c, 2, 38, 0
4, 55896, Note_on_c, 2, 28, 127
4, 55920, Note_off_c, 2, 28, 0
4, 55920, Note_on_c, 2, 36, 127
4, 56016, Note_off_c, 2, 36, 0
4, 56064, Note_on_c, 2, 36, 127
4, 56160, Note_off_c, 2, 36, 0
4, 56208, Note_on_c, 2, 35, 127
4, 56256, Note_off_c, 2, 35, 0
4, 56256, Note_on_c, 2, 47, 127
4, 56304, Note_off_c, 2, 47, 0
4, 56304, Note_on_c, 2, 45, 127
4, 56544, Note_off_c, 2, 45, 0
4, 56544, Note_on_c, 2, 41, 127
4, 56592, Note_off_c, 2, 41, 0
4, 56592, Note_on_c, 2, 38, 127
4, 56640, Note_off_c, 2, 38, 0
4, 56640, Note_on_c, 2, 40, 127
4, 56736, Note_off_c, 2, 40, 0
4, 56928, Note_on_c, 2, 28, 127
4, 57024, Note_off_c, 2, 28, 0
4, 57264, Note_on_c, 2, 28, 127
4, 57312, Note_off_c, 2, 28, 0
4, 57312, Note_on_c, 2, 30, 127
4, 57360, Note_off_c, 2, 30, 0
4, 57360, Note_on_c, 2, 32, 127
4, 57408, Note_off_c, 2, 32, 0
4, 57408, Note_on_c, 2, 30, 127
4, 57456, Note_off_c, 2, 30, 0
4, 57456, Note_on_c, 2, 28, 127
4, 57504, Note_off_c, 2, 28, 0
4, 57552, Note_on_c, 2, 33, 127
4, 57600, Note_off_c, 2, 33, 0
4, 57600, Note_on_c, 2, 35, 127
4, 57648, Note_off_c, 2, 35, 0
4, 57648, Note_on_c, 2, 36, 127
4, 57696, Note_off_c, 2, 36, 0
4, 57696, Note_on_c, 2, 35, 127
4, 57744, Note_off_c, 2, 35, 0
4, 57744, Note_on_c, 2, 33, 127
4, 57792, Note_off_c, 2, 33, 0
4, 57840, Note_on_c, 2, 40, 127
4, 57888, Note_off_c, 2, 40, 0
4, 57888, Note_on_c, 2, 42, 127
4, 57936, Note_off_c, 2, 42, 0
4, 57936, Note_on_c, 2, 44, 127
4, 57984, Note_off_c, 2, 44, 0
4, 57984, Note_on_c, 2, 42, 127
4, 58032, Note_off_c, 2, 42, 0
4, 58032, Note_on_c, 2, 40, 127
4, 58080, Note_off_c, 2, 40, 0
4, 58080, Note_on_c, 2, 45, 127
4, 58392, Note_off_c, 2, 45, 0
4, 58392, Note_on_c, 2, 33, 127
4, 58416, Note_off_c, 2, 33, 0
4, 58416, Note_on_c, 2, 36, 127
4, 58440, Note_off_c, 2, 36, 0
4, 58440, Note_on_c, 2, 35, 127
4, 58464, Note_off_c, 2, 35, 0
4, 58464, Note_on_c, 2, 36, 127
4, 58488, Note_off_c, 2, 36, 0
4, 58488, Note_on_c, 2, 33, 127
4, 58512, Note_off_c, 2, 33, 0
4, 58512, Note_on_c, 2, 38, 127
4, 58608, Note_off_c, 2, 38, 0
4, 58656, Note_on_c, 2, 31, 127
4, 58704, Note_off_c, 2, 31, 0
4, 58704, Note_on_c, 2, 33, 127
4, 58752, Note_off_c, 2, 33, 0
4, 58752, Note_on_c, 2, 35, 127
4, 58800, Note_off_c, 2, 35, 0
4, 58800, Note_on_c, 2, 36, 127
4, 58896, Note_off_c, 2, 36, 0
4, 58944, Note_on_c, 2, 29, 127
4, 58992, Note_off_c, 2, 29, 0
4, 58992, Note_on_c, 2, 31, 127
4, 59040, Note_off_c, 2, 31, 0
4, 59040, Note_on_c, 2, 33, 127
4, 59088, Note_off_c, 2, 33, 0
4, 59088, Note_on_c, 2, 34, 127
4, 59136, Note_off_c, 2, 34, 0
4, 59136, Note_on_c, 2, 36, 127
4, 59184, Note_off_c, 2, 36, 0
4, 59184, Note_on_c, 2, 38, 127
4, 59232, Note_off_c, 2, 38, 0
4, 59232, Note_on_c, 2, 28, 127
4, 59328, Note_off_c, 2, 28, 0
4, 59520, Note_on_c, 2, 28, 127
4, 59616, Note_off_c, 2, 28, 0
4, 59808, Note_on_c, 2, 28, 127
4, 59904, Note_off_c, 2, 28, 0
4, 60096, Note_on_c, 2, 28, 127
4, 60192, Note_off_c, 2, 28, 0
4, 60408, Note_on_c, 2, 35, 127
4, 60432, Note_off_c, 2, 35, 0
4, 60432, Note_on_c, 2, 38, 127
4, 60456, Note_off_c, 2, 38, 0
4, 60456, Note_on_c, 2, 36, 127
4, 60480, Note_off_c, 2, 36, 0
4, 60480, Note_on_c, 2, 38, 127
4, 60504, Note_off_c, 2, 38, 0
4, 60504, Note_on_c, 2, 35, 127
4, 60528, Note_off_c, 2, 35, 0
4, 60528, Note_on_c, 2, 44, 127
4, 60552, Note_off_c, 2, 44, 0
4, 60552, Note_on_c, 2, 40, 127
4, 60576, Note_off_c, 2, 40, 0
4, 60576, Note_on_c, 2, 41, 127
4, 60600, Note_off_c, 2, 41, 0
4, 60600, Note_on_c, 2, 40, 127
4, 60624, Note_off_c, 2, 40, 0
4, 60624, Note_on_c, 2, 41, 127
4, 60648, Note_off_c, 2, 41, 0
4, 60648, Note_on_c, 2, 38, 127
4, 60672, Note_off_c, 2, 38, 0
4, 60672, Note_on_c, 2, 47, 127
4, 60696, Note_off_c, 2, 47, 0
4, 60696, Note_on_c, 2, 42, 127
4, 60720, Note_off_c, 2, 42, 0
4, 60720, Note_on_c, 2, 44, 127
4, 60744, Note_off_c, 2, 44, 0
4, 60744, Note_on_c, 2, 42, 127
4, 60768, Note_off_c, 2, 42, 0
4, 60768, Note_on_c, 2, 44, 127
4, 60792, Note_off_c, 2, 44, 0
4, 60792, Note_on_c, 2, 40, 127
4, 60816, Note_off_c, 2, 40, 0
4, 60816, Note_on_c, 2, 50, 127
4, 60840, Note_off_c, 2, 50, 0
4, 60840, Note_on_c, 2, 45, 127
4, 60912, Note_off_c, 2, 45, 0
4, 60912, Note_on_c, 2, 47, 127
4, 60936, Note_off_c, 2, 47, 0
4, 60936, Note_on_c, 2, 44, 127
4, 60960, Note_off_c, 2, 44, 0
4, 60960, Note_on_c, 2, 48, 127
4, 60984, Note_off_c, 2, 48, 0
4, 60984, Note_on_c, 2, 44, 127
4, 61008, Note_off_c, 2, 44, 0
4, 61008, Note_on_c, 2, 45, 127
4, 61176, Note_off_c, 2, 45, 0
4, 61176, Note_on_c, 2, 40, 127
4, 61200, Note_off_c, 2, 40, 0
4, 61200, Note_on_c, 2, 41, 127
4, 61224, Note_off_c, 2, 41, 0
4, 61224, Note_on_c, 2, 39, 127
4, 61248, Note_off_c, 2, 39, 0
4, 61248, Note_on_c, 2, 40, 127
4, 61272, Note_off_c, 2, 40, 0
4, 61272, Note_on_c, 2, 44, 127
4, 61296, Note_off_c, 2, 44, 0
4, 61296, Note_on_c, 2, 45, 127
4, 61968, Note_off_c, 2, 45, 0
4, 61968, Note_on_c, 2, 36, 127
4, 61992, Note_off_c, 2, 36, 0
4, 61992, Note_on_c, 2, 40, 127
4, 62016, Note_off_c, 2, 40, 0
4, 62016, Note_on_c, 2, 40, 127
4, 62040, Note_off_c, 2, 40, 0
4, 62040, Note_on_c, 2, 45, 127
4, 62088, Note_off_c, 2, 45, 0
4, 62088, Note_on_c, 2, 48, 127
4, 62112, Note_off_c, 2, 48, 0
4, 62112, Note_on_c, 2, 44, 127
4, 62136, Note_off_c, 2, 44, 0
4, 62136, Note_on_c, 2, 45, 127
4, 64128, Note_off_c, 2, 45, 0
4, 64128, End_track
0, 0, End_of_file
