0, 0, Header, 1, 5, 96
1, 0, Start_track
1, 0, Time_signature, 4, 2, 24, 8
1, 0, Title_t, "untitled"
1, 0, Title_t, "Track1"
1, 0, Tempo, 1090909
1, 0, End_track
2, 0, Start_track
2, 0, Title_t, "Track2"
2, 0, Program_c, 0, 40
2, 0, Control_c, 0, 7, 100
2, 0, Control_c, 0, 10, 69
2, 0, Note_on_c, 0, 78, 93
2, 96, Note_off_c, 0, 78, 0
2, 96, Note_on_c, 0, 79, 93
2, 192, Note_off_c, 0, 79, 0
2, 192, Note_on_c, 0, 78, 93
2, 240, Note_off_c, 0, 78, 0
2, 240, Note_on_c, 0, 76, 93
2, 288, Note_off_c, 0, 76, 0
2, 288, Note_on_c, 0, 78, 93
2, 432, Note_off_c, 0, 78, 0
2, 432, Note_on_c, 0, 76, 93
2, 480, Note_off_c, 0, 76, 0
2, 480, Note_on_c, 0, 74, 93
2, 528, Note_off_c, 0, 74, 0
2, 528, Note_on_c, 0, 73, 93
2, 576, Note_off_c, 0, 73, 0
2, 576, Note_on_c, 0, 71, 93
2, 624, Note_off_c, 0, 71, 0
2, 624, Note_on_c, 0, 76, 93
2, 672, Note_off_c, 0, 76, 0
2, 672, Note_on_c, 0, 74, 93
2, 720, Note_off_c, 0, 74, 0
2, 720, Note_on_c, 0, 73, 93
2, 768, Note_off_c, 0, 73, 0
2, 768, Note_on_c, 0, 74, 93
2, 816, Note_off_c, 0, 74, 0
2, 816, Note_on_c, 0, 71, 93
2, 864, Note_off_c, 0, 71, 0
2, 864, Note_on_c, 0, 70, 93
2, 1008, Note_off_c, 0, 70, 0
2, 1008, Note_on_c, 0, 67, 93
2, 1056, Note_off_c, 0, 67, 0
2, 1056, Note_on_c, 0, 66, 93
2, 1104, Note_off_c, 0, 66, 0
2, 1104, Note_on_c, 0, 64, 93
2, 1152, Note_off_c, 0, 64, 0
2, 1152, Note_on_c, 0, 62, 93
2, 1248, Note_off_c, 0, 62, 0
2, 1248, Note_on_c, 0, 61, 93
2, 1344, Note_off_c, 0, 61, 0
2, 1344, Note_on_c, 0, 59, 93
2, 1440, Note_off_c, 0, 59, 0
2, 1440, Note_on_c, 0, 57, 93
2, 1632, Note_off_c, 0, 57, 0
2, 1632, Note_on_c, 0, 58, 93
2, 1728, Note_off_c, 0, 58, 0
2, 1728, Note_on_c, 0, 59, 93
2, 1824, Note_off_c, 0, 59, 0
2, 2016, Note_on_c, 0, 78, 93
2, 2160, Note_off_c, 0, 78, 0
2, 2304, Note_on_c, 0, 78, 93
2, 2400, Note_off_c, 0, 78, 0
2, 2400, Note_on_c, 0, 79, 93
2, 2496, Note_off_c, 0, 79, 0
2, 2496, Note_on_c, 0, 78, 93
2, 2544, Note_off_c, 0, 78, 0
2, 2544, Note_on_c, 0, 76, 93
2, 2592, Note_off_c, 0, 76, 0
2, 2592, Note_on_c, 0, 78, 93
2, 2736, Note_off_c, 0, 78, 0
2, 2736, Note_on_c, 0, 76, 93
2, 2784, Note_off_c, 0, 76, 0
2, 2784, Note_on_c, 0, 74, 93
2, 2832, Note_off_c, 0, 74, 0
2, 2832, Note_on_c, 0, 73, 93
2, 2880, Note_off_c, 0, 73, 0
2, 2880, Note_on_c, 0, 71, 93
2, 2928, Note_off_c, 0, 71, 0
2, 2928, Note_on_c, 0, 76, 93
2, 2976, Note_off_c, 0, 76, 0
2, 2976, Note_on_c, 0, 74, 93
2, 3024, Note_off_c, 0, 74, 0
2, 3024, Note_on_c, 0, 73, 93
2, 3072, Note_off_c, 0, 73, 0
2, 3072, Note_on_c, 0, 74, 93
2, 3120, Note_off_c, 0, 74, 0
2, 3120, Note_on_c, 0, 71, 93
2, 3168, Note_off_c, 0, 71, 0
2, 3168, Note_on_c, 0, 70, 93
2, 3312, Note_off_c, 0, 70, 0
2, 3312, Note_on_c, 0, 67, 93
2, 3360, Note_off_c, 0, 67, 0
2, 3360, Note_on_c, 0, 66, 93
2, 3408, Note_off_c, 0, 66, 0
2, 3408, Note_on_c, 0, 64, 93
2, 3456, Note_off_c, 0, 64, 0
2, 3456, Note_on_c, 0, 62, 93
2, 3552, Note_off_c, 0, 62, 0
2, 3552, Note_on_c, 0, 61, 93
2, 3648, Note_off_c, 0, 61, 0
2, 3648, Note_on_c, 0, 59, 93
2, 3744, Note_off_c, 0, 59, 0
2, 3744, Note_on_c, 0, 57, 93
2, 3936, Note_off_c, 0, 57, 0
2, 3936, Note_on_c, 0, 58, 93
2, 4032, Note_off_c, 0, 58, 0
2, 4032, Note_on_c, 0, 59, 93
2, 4128, Note_off_c, 0, 59, 0
2, 4320, Note_on_c, 0, 78, 93
2, 4608, Note_off_c, 0, 78, 0
2, 4608, Note_on_c, 0, 82, 93
2, 4704, Note_off_c, 0, 82, 0
2, 4704, Note_on_c, 0, 82, 93
2, 4800, Note_off_c, 0, 82, 0
2, 4800, Note_on_c, 0, 82, 93
2, 4896, Note_off_c, 0, 82, 0
2, 5184, Note_on_c, 0, 71, 93
2, 5280, Note_off_c, 0, 71, 0
2, 5280, Note_on_c, 0, 73, 93
2, 5376, Note_off_c, 0, 73, 0
2, 5376, Note_on_c, 0, 76, 93
2, 5472, Note_off_c, 0, 76, 0
2, 5472, Note_on_c, 0, 81, 93
2, 5616, Note_off_c, 0, 81, 0
2, 6240, Note_on_c, 0, 71, 93
2, 6336, Note_off_c, 0, 71, 0
2, 6336, Note_on_c, 0, 69, 93
2, 6432, Note_off_c, 0, 69, 0
2, 6432, Note_on_c, 0, 67, 93
2, 6528, Note_off_c, 0, 67, 0
2, 6528, Note_on_c, 0, 66, 93
2, 6624, Note_off_c, 0, 66, 0
2, 6624, Note_on_c, 0, 64, 93
2, 6768, Note_off_c, 0, 64, 0
2, 6912, Note_on_c, 0, 67, 93
2, 7008, Note_off_c, 0, 67, 0
2, 7104, Note_on_c, 0, 67, 93
2, 7200, Note_off_c, 0, 67, 0
2, 7200, Note_on_c, 0, 66, 93
2, 7296, Note_off_c, 0, 66, 0
2, 7296, Note_on_c, 0, 64, 93
2, 7392, Note_off_c, 0, 64, 0
2, 7392, Note_on_c, 0, 62, 93
2, 7488, Note_off_c, 0, 62, 0
2, 7488, Note_on_c, 0, 55, 93
2, 7584, Note_off_c, 0, 55, 0
2, 8064, Note_on_c, 0, 61, 93
2, 8160, Note_off_c, 0, 61, 0
2, 8352, Note_on_c, 0, 59, 93
2, 8544, Note_off_c, 0, 59, 0
2, 8544, Note_on_c, 0, 57, 93
2, 8640, Note_off_c, 0, 57, 0
2, 8640, Note_on_c, 0, 55, 93
2, 8736, Note_off_c, 0, 55, 0
2, 9984, Note_on_c, 0, 71, 93
2, 10080, Note_off_c, 0, 71, 0
2, 10080, Note_on_c, 0, 70, 93
2, 10128, Note_off_c, 0, 70, 0
2, 10128, Note_on_c, 0, 71, 93
2, 10176, Note_off_c, 0, 71, 0
2, 10176, Note_on_c, 0, 73, 93
2, 10224, Note_off_c, 0, 73, 0
2, 10224, Note_on_c, 0, 76, 93
2, 10272, Note_off_c, 0, 76, 0
2, 10272, Note_on_c, 0, 82, 93
2, 10320, Note_off_c, 0, 82, 0
2, 10320, Note_on_c, 0, 76, 93
2, 10368, Note_off_c, 0, 76, 0
2, 10368, Note_on_c, 0, 74, 93
2, 10464, Note_off_c, 0, 74, 0
2, 10464, Note_on_c, 0, 73, 93
2, 10560, Note_off_c, 0, 73, 0
2, 10560, Note_on_c, 0, 71, 93
2, 10656, Note_off_c, 0, 71, 0
2, 10656, Note_on_c, 0, 70, 93
2, 10704, Note_off_c, 0, 70, 0
2, 10704, Note_on_c, 0, 79, 93
2, 10752, Note_off_c, 0, 79, 0
2, 10752, Note_on_c, 0, 78, 93
2, 10800, Note_off_c, 0, 78, 0
2, 10800, Note_on_c, 0, 76, 93
2, 10848, Note_off_c, 0, 76, 0
2, 10848, Note_on_c, 0, 74, 93
2, 10944, Note_off_c, 0, 74, 0
2, 10992, Note_on_c, 0, 73, 93
2, 11040, Note_off_c, 0, 73, 0
2, 11040, Note_on_c, 0, 73, 93
2, 11184, Note_off_c, 0, 73, 0
2, 11184, Note_on_c, 0, 71, 93
2, 11232, Note_off_c, 0, 71, 0
2, 11232, Note_on_c, 0, 71, 93
2, 11520, Note_off_c, 0, 71, 0
2, 11520, Note_on_c, 0, 82, 93
2, 11616, Note_off_c, 0, 82, 0
2, 11616, Note_on_c, 0, 82, 93
2, 11712, Note_off_c, 0, 82, 0
2, 11712, Note_on_c, 0, 82, 93
2, 11808, Note_off_c, 0, 82, 0
2, 12096, Note_on_c, 0, 71, 93
2, 12192, Note_off_c, 0, 71, 0
2, 12192, Note_on_c, 0, 73, 93
2, 12288, Note_off_c, 0, 73, 0
2, 12288, Note_on_c, 0, 76, 93
2, 12384, Note_off_c, 0, 76, 0
2, 12384, Note_on_c, 0, 73, 93
2, 12528, Note_off_c, 0, 73, 0
2, 13152, Note_on_c, 0, 71, 93
2, 13248, Note_off_c, 0, 71, 0
2, 13248, Note_on_c, 0, 69, 93
2, 13344, Note_off_c, 0, 69, 0
2, 13344, Note_on_c, 0, 67, 93
2, 13440, Note_off_c, 0, 67, 0
2, 13440, Note_on_c, 0, 66, 93
2, 13536, Note_off_c, 0, 66, 0
2, 13536, Note_on_c, 0, 64, 93
2, 13680, Note_off_c, 0, 64, 0
2, 13824, Note_on_c, 0, 67, 93
2, 13920, Note_off_c, 0, 67, 0
2, 14016, Note_on_c, 0, 67, 93
2, 14112, Note_off_c, 0, 67, 0
2, 14112, Note_on_c, 0, 66, 93
2, 14208, Note_off_c, 0, 66, 0
2, 14208, Note_on_c, 0, 64, 93
2, 14304, Note_off_c, 0, 64, 0
2, 14304, Note_on_c, 0, 62, 93
2, 14400, Note_off_c, 0, 62, 0
2, 14400, Note_on_c, 0, 55, 93
2, 14496, Note_off_c, 0, 55, 0
2, 14976, Note_on_c, 0, 61, 93
2, 15072, Note_off_c, 0, 61, 0
2, 15264, Note_on_c, 0, 59, 93
2, 15456, Note_off_c, 0, 59, 0
2, 15456, Note_on_c, 0, 57, 93
2, 15552, Note_off_c, 0, 57, 0
2, 15552, Note_on_c, 0, 55, 93
2, 15648, Note_off_c, 0, 55, 0
2, 16896, Note_on_c, 0, 71, 93
2, 16992, Note_off_c, 0, 71, 0
2, 16992, Note_on_c, 0, 70, 93
2, 17040, Note_off_c, 0, 70, 0
2, 17040, Note_on_c, 0, 71, 93
2, 17088, Note_off_c, 0, 71, 0
2, 17088, Note_on_c, 0, 73, 93
2, 17136, Note_off_c, 0, 73, 0
2, 17136, Note_on_c, 0, 76, 93
2, 17184, Note_off_c, 0, 76, 0
2, 17184, Note_on_c, 0, 82, 93
2, 17232, Note_off_c, 0, 82, 0
2, 17232, Note_on_c, 0, 76, 93
2, 17280, Note_off_c, 0, 76, 0
2, 17280, Note_on_c, 0, 74, 93
2, 17376, Note_off_c, 0, 74, 0
2, 17376, Note_on_c, 0, 73, 93
2, 17472, Note_off_c, 0, 73, 0
2, 17472, Note_on_c, 0, 71, 93
2, 17568, Note_off_c, 0, 71, 0
2, 17568, Note_on_c, 0, 70, 93
2, 17616, Note_off_c, 0, 70, 0
2, 17616, Note_on_c, 0, 79, 93
2, 17664, Note_off_c, 0, 79, 0
2, 17664, Note_on_c, 0, 78, 93
2, 17712, Note_off_c, 0, 78, 0
2, 17712, Note_on_c, 0, 76, 93
2, 17760, Note_off_c, 0, 76, 0
2, 17760, Note_on_c, 0, 74, 93
2, 17856, Note_off_c, 0, 74, 0
2, 17904, Note_on_c, 0, 73, 93
2, 17952, Note_off_c, 0, 73, 0
2, 17952, Note_on_c, 0, 73, 93
2, 18096, Note_off_c, 0, 73, 0
2, 18096, Note_on_c, 0, 71, 93
2, 18144, Note_off_c, 0, 71, 0
2, 18144, Note_on_c, 0, 71, 93
2, 18432, Note_off_c, 0, 71, 0
2, 18432, End_track
3, 0, Start_track
3, 0, Title_t, "Track3"
3, 0, Program_c, 1, 40
3, 0, Control_c, 1, 7, 100
3, 0, Control_c, 1, 10, 59
3, 0, Note_on_c, 1, 74, 93
3, 96, Note_off_c, 1, 74, 0
3, 96, Note_on_c, 1, 74, 93
3, 192, Note_off_c, 1, 74, 0
3, 192, Note_on_c, 1, 73, 93
3, 288, Note_off_c, 1, 73, 0
3, 288, Note_on_c, 1, 74, 93
3, 432, Note_off_c, 1, 74, 0
3, 1152, Note_on_c, 1, 71, 93
3, 1248, Note_off_c, 1, 71, 0
3, 1248, Note_on_c, 1, 69, 93
3, 1344, Note_off_c, 1, 69, 0
3, 1344, Note_on_c, 1, 67, 93
3, 1368, Note_off_c, 1, 67, 0
3, 1368, Note_on_c, 1, 66, 93
3, 1392, Note_off_c, 1, 66, 0
3, 1392, Note_on_c, 1, 67, 93
3, 1440, Note_off_c, 1, 67, 0
3, 1440, Note_on_c, 1, 73, 93
3, 1584, Note_off_c, 1, 73, 0
3, 1584, Note_on_c, 1, 74, 93
3, 1632, Note_off_c, 1, 74, 0
3, 1632, Note_on_c, 1, 76, 93
3, 1728, Note_off_c, 1, 76, 0
3, 1728, Note_on_c, 1, 76, 93
3, 1776, Note_off_c, 1, 76, 0
3, 1776, Note_on_c, 1, 74, 93
3, 1824, Note_off_c, 1, 74, 0
3, 1824, Note_on_c, 1, 76, 93
3, 1872, Note_off_c, 1, 76, 0
3, 1872, Note_on_c, 1, 74, 93
3, 1920, Note_off_c, 1, 74, 0
3, 1920, Note_on_c, 1, 73, 93
3, 1968, Note_off_c, 1, 73, 0
3, 1968, Note_on_c, 1, 71, 93
3, 2016, Note_off_c, 1, 71, 0
3, 2016, Note_on_c, 1, 73, 93
3, 2160, Note_off_c, 1, 73, 0
3, 2304, Note_on_c, 1, 74, 93
3, 2400, Note_off_c, 1, 74, 0
3, 2400, Note_on_c, 1, 74, 93
3, 2496, Note_off_c, 1, 74, 0
3, 2496, Note_on_c, 1, 73, 93
3, 2592, Note_off_c, 1, 73, 0
3, 2592, Note_on_c, 1, 74, 93
3, 2736, Note_off_c, 1, 74, 0
3, 3456, Note_on_c, 1, 71, 93
3, 3552, Note_off_c, 1, 71, 0
3, 3552, Note_on_c, 1, 69, 93
3, 3648, Note_off_c, 1, 69, 0
3, 3648, Note_on_c, 1, 67, 93
3, 3672, Note_off_c, 1, 67, 0
3, 3672, Note_on_c, 1, 66, 93
3, 3696, Note_off_c, 1, 66, 0
3, 3696, Note_on_c, 1, 67, 93
3, 3744, Note_off_c, 1, 67, 0
3, 3744, Note_on_c, 1, 73, 93
3, 3888, Note_off_c, 1, 73, 0
3, 3888, Note_on_c, 1, 74, 93
3, 3936, Note_off_c, 1, 74, 0
3, 3936, Note_on_c, 1, 76, 93
3, 4032, Note_off_c, 1, 76, 0
3, 4032, Note_on_c, 1, 76, 93
3, 4080, Note_off_c, 1, 76, 0
3, 4080, Note_on_c, 1, 74, 93
3, 4128, Note_off_c, 1, 74, 0
3, 4128, Note_on_c, 1, 76, 93
3, 4176, Note_off_c, 1, 76, 0
3, 4176, Note_on_c, 1, 74, 93
3, 4224, Note_off_c, 1, 74, 0
3, 4224, Note_on_c, 1, 73, 93
3, 4272, Note_off_c, 1, 73, 0
3, 4272, Note_on_c, 1, 71, 93
3, 4320, Note_off_c, 1, 71, 0
3, 4320, Note_on_c, 1, 73, 93
3, 4608, Note_off_c, 1, 73, 0
3, 4608, Note_on_c, 1, 73, 93
3, 4704, Note_off_c, 1, 73, 0
3, 4704, Note_on_c, 1, 73, 93
3, 4800, Note_off_c, 1, 73, 0
3, 4800, Note_on_c, 1, 73, 93
3, 4896, Note_off_c, 1, 73, 0
3, 4896, Note_on_c, 1, 71, 93
3, 4944, Note_off_c, 1, 71, 0
3, 4944, Note_on_c, 1, 78, 93
3, 4992, Note_off_c, 1, 78, 0
3, 4992, Note_on_c, 1, 83, 93
3, 5040, Note_off_c, 1, 83, 0
3, 5040, Note_on_c, 1, 81, 93
3, 5088, Note_off_c, 1, 81, 0
3, 5088, Note_on_c, 1, 80, 93
3, 5136, Note_off_c, 1, 80, 0
3, 5136, Note_on_c, 1, 78, 93
3, 5184, Note_off_c, 1, 78, 0
3, 5184, Note_on_c, 1, 76, 93
3, 5280, Note_off_c, 1, 76, 0
3, 5280, Note_on_c, 1, 78, 93
3, 5376, Note_off_c, 1, 78, 0
3, 5376, Note_on_c, 1, 80, 93
3, 5472, Note_off_c, 1, 80, 0
3, 5472, Note_on_c, 1, 73, 93
3, 5616, Note_off_c, 1, 73, 0
3, 5616, Note_on_c, 1, 79, 93
3, 5664, Note_off_c, 1, 79, 0
3, 5664, Note_on_c, 1, 78, 93
3, 5712, Note_off_c, 1, 78, 0
3, 5712, Note_on_c, 1, 76, 93
3, 5760, Note_off_c, 1, 76, 0
3, 5760, Note_on_c, 1, 75, 93
3, 5808, Note_off_c, 1, 75, 0
3, 5808, Note_on_c, 1, 84, 93
3, 5856, Note_off_c, 1, 84, 0
3, 5856, Note_on_c, 1, 83, 93
3, 5904, Note_off_c, 1, 83, 0
3, 5904, Note_on_c, 1, 76, 93
3, 5952, Note_off_c, 1, 76, 0
3, 5952, Note_on_c, 1, 75, 93
3, 6000, Note_off_c, 1, 75, 0
3, 6000, Note_on_c, 1, 81, 93
3, 6048, Note_off_c, 1, 81, 0
3, 6048, Note_on_c, 1, 72, 93
3, 6072, Note_off_c, 1, 72, 0
3, 6072, Note_on_c, 1, 71, 93
3, 6096, Note_off_c, 1, 71, 0
3, 6096, Note_on_c, 1, 72, 93
3, 6120, Note_off_c, 1, 72, 0
3, 6120, Note_on_c, 1, 69, 93
3, 6144, Note_off_c, 1, 69, 0
3, 6144, Note_on_c, 1, 71, 93
3, 6192, Note_off_c, 1, 71, 0
3, 6192, Note_on_c, 1, 81, 93
3, 6240, Note_off_c, 1, 81, 0
3, 6240, Note_on_c, 1, 79, 93
3, 6336, Note_off_c, 1, 79, 0
3, 6336, Note_on_c, 1, 79, 93
3, 6384, Note_off_c, 1, 79, 0
3, 6384, Note_on_c, 1, 78, 93
3, 6432, Note_off_c, 1, 78, 0
3, 6432, Note_on_c, 1, 78, 93
3, 6480, Note_off_c, 1, 78, 0
3, 6480, Note_on_c, 1, 76, 93
3, 6528, Note_off_c, 1, 76, 0
3, 6528, Note_on_c, 1, 76, 93
3, 6576, Note_off_c, 1, 76, 0
3, 6576, Note_on_c, 1, 75, 93
3, 6624, Note_off_c, 1, 75, 0
3, 6624, Note_on_c, 1, 76, 93
3, 6768, Note_off_c, 1, 76, 0
3, 6912, Note_on_c, 1, 76, 93
3, 7008, Note_off_c, 1, 76, 0
3, 7008, Note_on_c, 1, 74, 93
3, 7056, Note_off_c, 1, 74, 0
3, 7056, Note_on_c, 1, 73, 93
3, 7104, Note_off_c, 1, 73, 0
3, 7104, Note_on_c, 1, 71, 93
3, 7152, Note_off_c, 1, 71, 0
3, 7152, Note_on_c, 1, 69, 93
3, 7200, Note_off_c, 1, 69, 0
3, 7392, Note_on_c, 1, 69, 93
3, 7488, Note_off_c, 1, 69, 0
3, 7488, Note_on_c, 1, 71, 93
3, 7584, Note_off_c, 1, 71, 0
3, 7584, Note_on_c, 1, 73, 93
3, 7680, Note_off_c, 1, 73, 0
3, 7680, Note_on_c, 1, 74, 93
3, 7776, Note_off_c, 1, 74, 0
3, 7776, Note_on_c, 1, 73, 93
3, 7920, Note_off_c, 1, 73, 0
3, 7920, Note_on_c, 1, 74, 93
3, 7968, Note_off_c, 1, 74, 0
3, 7968, Note_on_c, 1, 76, 93
3, 8016, Note_off_c, 1, 76, 0
3, 8016, Note_on_c, 1, 73, 93
3, 8064, Note_off_c, 1, 73, 0
3, 8064, Note_on_c, 1, 71, 93
3, 8112, Note_off_c, 1, 71, 0
3, 8112, Note_on_c, 1, 70, 93
3, 8136, Note_off_c, 1, 70, 0
3, 8136, Note_on_c, 1, 79, 93
3, 8160, Note_off_c, 1, 79, 0
3, 8160, Note_on_c, 1, 78, 93
3, 8208, Note_off_c, 1, 78, 0
3, 8208, Note_on_c, 1, 76, 93
3, 8256, Note_off_c, 1, 76, 0
3, 8256, Note_on_c, 1, 74, 93
3, 8304, Note_off_c, 1, 74, 0
3, 8304, Note_on_c, 1, 73, 93
3, 8352, Note_off_c, 1, 73, 0
3, 8352, Note_on_c, 1, 74, 93
3, 8496, Note_off_c, 1, 74, 0
3, 8496, Note_on_c, 1, 76, 93
3, 8544, Note_off_c, 1, 76, 0
3, 8544, Note_on_c, 1, 78, 93
3, 8640, Note_off_c, 1, 78, 0
3, 8640, Note_on_c, 1, 78, 93
3, 8736, Note_off_c, 1, 78, 0
3, 8736, Note_on_c, 1, 76, 93
3, 8784, Note_off_c, 1, 76, 0
3, 8784, Note_on_c, 1, 74, 93
3, 8832, Note_off_c, 1, 74, 0
3, 8832, Note_on_c, 1, 73, 93
3, 8880, Note_off_c, 1, 73, 0
3, 8880, Note_on_c, 1, 71, 93
3, 8928, Note_off_c, 1, 71, 0
3, 8928, Note_on_c, 1, 70, 93
3, 9072, Note_off_c, 1, 70, 0
3, 9072, Note_on_c, 1, 67, 93
3, 9120, Note_off_c, 1, 67, 0
3, 9120, Note_on_c, 1, 66, 93
3, 9168, Note_off_c, 1, 66, 0
3, 9168, Note_on_c, 1, 64, 93
3, 9216, Note_off_c, 1, 64, 0
3, 9216, Note_on_c, 1, 62, 93
3, 9312, Note_off_c, 1, 62, 0
3, 9312, Note_on_c, 1, 61, 93
3, 9408, Note_off_c, 1, 61, 0
3, 9408, Note_on_c, 1, 59, 93
3, 9504, Note_off_c, 1, 59, 0
3, 9792, Note_on_c, 1, 64, 93
3, 9888, Note_off_c, 1, 64, 0
3, 9888, Note_on_c, 1, 62, 93
3, 9984, Note_off_c, 1, 62, 0
3, 9984, Note_on_c, 1, 61, 93
3, 10080, Note_off_c, 1, 61, 0
3, 10368, Note_on_c, 1, 83, 93
3, 10464, Note_off_c, 1, 83, 0
3, 10464, Note_on_c, 1, 81, 93
3, 10560, Note_off_c, 1, 81, 0
3, 10560, Note_on_c, 1, 79, 93
3, 10656, Note_off_c, 1, 79, 0
3, 10656, Note_on_c, 1, 64, 93
3, 10704, Note_off_c, 1, 64, 0
3, 10848, Note_on_c, 1, 66, 93
3, 10944, Note_off_c, 1, 66, 0
3, 11232, Note_on_c, 1, 66, 93
3, 11520, Note_off_c, 1, 66, 0
3, 11520, Note_on_c, 1, 73, 93
3, 11616, Note_off_c, 1, 73, 0
3, 11616, Note_on_c, 1, 73, 93
3, 11712, Note_off_c, 1, 73, 0
3, 11712, Note_on_c, 1, 73, 93
3, 11808, Note_off_c, 1, 73, 0
3, 11808, Note_on_c, 1, 71, 93
3, 11856, Note_off_c, 1, 71, 0
3, 11856, Note_on_c, 1, 78, 93
3, 11904, Note_off_c, 1, 78, 0
3, 11904, Note_on_c, 1, 83, 93
3, 11952, Note_off_c, 1, 83, 0
3, 11952, Note_on_c, 1, 81, 93
3, 12000, Note_off_c, 1, 81, 0
3, 12000, Note_on_c, 1, 80, 93
3, 12048, Note_off_c, 1, 80, 0
3, 12048, Note_on_c, 1, 78, 93
3, 12096, Note_off_c, 1, 78, 0
3, 12096, Note_on_c, 1, 76, 93
3, 12192, Note_off_c, 1, 76, 0
3, 12192, Note_on_c, 1, 78, 93
3, 12288, Note_off_c, 1, 78, 0
3, 12288, Note_on_c, 1, 80, 93
3, 12384, Note_off_c, 1, 80, 0
3, 12384, Note_on_c, 1, 81, 93
3, 12528, Note_off_c, 1, 81, 0
3, 12528, Note_on_c, 1, 79, 93
3, 12576, Note_off_c, 1, 79, 0
3, 12576, Note_on_c, 1, 78, 93
3, 12624, Note_off_c, 1, 78, 0
3, 12624, Note_on_c, 1, 76, 93
3, 12672, Note_off_c, 1, 76, 0
3, 12672, Note_on_c, 1, 75, 93
3, 12720, Note_off_c, 1, 75, 0
3, 12720, Note_on_c, 1, 84, 93
3, 12768, Note_off_c, 1, 84, 0
3, 12768, Note_on_c, 1, 83, 93
3, 12816, Note_off_c, 1, 83, 0
3, 12816, Note_on_c, 1, 76, 93
3, 12864, Note_off_c, 1, 76, 0
3, 12864, Note_on_c, 1, 75, 93
3, 12912, Note_off_c, 1, 75, 0
3, 12912, Note_on_c, 1, 81, 93
3, 12960, Note_off_c, 1, 81, 0
3, 12960, Note_on_c, 1, 72, 93
3, 12984, Note_off_c, 1, 72, 0
3, 12984, Note_on_c, 1, 71, 93
3, 13008, Note_off_c, 1, 71, 0
3, 13008, Note_on_c, 1, 72, 93
3, 13032, Note_off_c, 1, 72, 0
3, 13032, Note_on_c, 1, 69, 93
3, 13056, Note_off_c, 1, 69, 0
3, 13056, Note_on_c, 1, 71, 93
3, 13104, Note_off_c, 1, 71, 0
3, 13104, Note_on_c, 1, 81, 93
3, 13152, Note_off_c, 1, 81, 0
3, 13152, Note_on_c, 1, 79, 93
3, 13248, Note_off_c, 1, 79, 0
3, 13248, Note_on_c, 1, 79, 93
3, 13296, Note_off_c, 1, 79, 0
3, 13296, Note_on_c, 1, 78, 93
3, 13344, Note_off_c, 1, 78, 0
3, 13344, Note_on_c, 1, 78, 93
3, 13392, Note_off_c, 1, 78, 0
3, 13392, Note_on_c, 1, 76, 93
3, 13440, Note_off_c, 1, 76, 0
3, 13440, Note_on_c, 1, 76, 93
3, 13488, Note_off_c, 1, 76, 0
3, 13488, Note_on_c, 1, 75, 93
3, 13536, Note_off_c, 1, 75, 0
3, 13536, Note_on_c, 1, 76, 93
3, 13680, Note_off_c, 1, 76, 0
3, 13824, Note_on_c, 1, 76, 93
3, 13920, Note_off_c, 1, 76, 0
3, 13920, Note_on_c, 1, 74, 93
3, 13968, Note_off_c, 1, 74, 0
3, 13968, Note_on_c, 1, 73, 93
3, 14016, Note_off_c, 1, 73, 0
3, 14016, Note_on_c, 1, 71, 93
3, 14064, Note_off_c, 1, 71, 0
3, 14064, Note_on_c, 1, 69, 93
3, 14112, Note_off_c, 1, 69, 0
3, 14304, Note_on_c, 1, 69, 93
3, 14400, Note_off_c, 1, 69, 0
3, 14400, Note_on_c, 1, 71, 93
3, 14496, Note_off_c, 1, 71, 0
3, 14496, Note_on_c, 1, 73, 93
3, 14592, Note_off_c, 1, 73, 0
3, 14592, Note_on_c, 1, 74, 93
3, 14688, Note_off_c, 1, 74, 0
3, 14688, Note_on_c, 1, 73, 93
3, 14832, Note_off_c, 1, 73, 0
3, 14832, Note_on_c, 1, 74, 93
3, 14880, Note_off_c, 1, 74, 0
3, 14880, Note_on_c, 1, 76, 93
3, 14928, Note_off_c, 1, 76, 0
3, 14928, Note_on_c, 1, 73, 93
3, 14976, Note_off_c, 1, 73, 0
3, 14976, Note_on_c, 1, 71, 93
3, 15024, Note_off_c, 1, 71, 0
3, 15024, Note_on_c, 1, 70, 93
3, 15048, Note_off_c, 1, 70, 0
3, 15048, Note_on_c, 1, 79, 93
3, 15072, Note_off_c, 1, 79, 0
3, 15072, Note_on_c, 1, 78, 93
3, 15120, Note_off_c, 1, 78, 0
3, 15120, Note_on_c, 1, 76, 93
3, 15168, Note_off_c, 1, 76, 0
3, 15168, Note_on_c, 1, 74, 93
3, 15216, Note_off_c, 1, 74, 0
3, 15216, Note_on_c, 1, 73, 93
3, 15264, Note_off_c, 1, 73, 0
3, 15264, Note_on_c, 1, 74, 93
3, 15408, Note_off_c, 1, 74, 0
3, 15408, Note_on_c, 1, 76, 93
3, 15456, Note_off_c, 1, 76, 0
3, 15456, Note_on_c, 1, 78, 93
3, 15552, Note_off_c, 1, 78, 0
3, 15552, Note_on_c, 1, 78, 93
3, 15648, Note_off_c, 1, 78, 0
3, 15648, Note_on_c, 1, 76, 93
3, 15696, Note_off_c, 1, 76, 0
3, 15696, Note_on_c, 1, 74, 93
3, 15744, Note_off_c, 1, 74, 0
3, 15744, Note_on_c, 1, 73, 93
3, 15792, Note_off_c, 1, 73, 0
3, 15792, Note_on_c, 1, 71, 93
3, 15840, Note_off_c, 1, 71, 0
3, 15840, Note_on_c, 1, 70, 93
3, 15984, Note_off_c, 1, 70, 0
3, 15984, Note_on_c, 1, 67, 93
3, 16032, Note_off_c, 1, 67, 0
3, 16032, Note_on_c, 1, 66, 93
3, 16080, Note_off_c, 1, 66, 0
3, 16080, Note_on_c, 1, 64, 93
3, 16128, Note_off_c, 1, 64, 0
3, 16128, Note_on_c, 1, 62, 93
3, 16224, Note_off_c, 1, 62, 0
3, 16224, Note_on_c, 1, 61, 93
3, 16320, Note_off_c, 1, 61, 0
3, 16320, Note_on_c, 1, 59, 93
3, 16416, Note_off_c, 1, 59, 0
3, 16704, Note_on_c, 1, 64, 93
3, 16800, Note_off_c, 1, 64, 0
3, 16800, Note_on_c, 1, 62, 93
3, 16896, Note_off_c, 1, 62, 0
3, 16896, Note_on_c, 1, 61, 93
3, 16992, Note_off_c, 1, 61, 0
3, 17280, Note_on_c, 1, 83, 93
3, 17376, Note_off_c, 1, 83, 0
3, 17376, Note_on_c, 1, 81, 93
3, 17472, Note_off_c, 1, 81, 0
3, 17472, Note_on_c, 1, 79, 93
3, 17568, Note_off_c, 1, 79, 0
3, 17568, Note_on_c, 1, 64, 93
3, 17616, Note_off_c, 1, 64, 0
3, 17760, Note_on_c, 1, 66, 93
3, 17856, Note_off_c, 1, 66, 0
3, 18144, Note_on_c, 1, 66, 93
3, 18432, Note_off_c, 1, 66, 0
3, 18432, End_track
4, 0, Start_track
4, 0, Title_t, "Track4"
4, 0, Program_c, 2, 40
4, 0, Control_c, 2, 7, 100
4, 0, Control_c, 2, 10, 79
4, 0, Note_on_c, 2, 66, 93
4, 96, Note_off_c, 2, 66, 0
4, 96, Note_on_c, 2, 64, 93
4, 192, Note_off_c, 2, 64, 0
4, 192, Note_on_c, 2, 69, 93
4, 288, Note_off_c, 2, 69, 0
4, 288, Note_on_c, 2, 62, 93
4, 432, Note_off_c, 2, 62, 0
4, 576, Note_on_c, 2, 67, 93
4, 672, Note_off_c, 2, 67, 0
4, 672, Note_on_c, 2, 64, 93
4, 768, Note_off_c, 2, 64, 0
4, 768, Note_on_c, 2, 65, 93
4, 864, Note_off_c, 2, 65, 0
4, 864, Note_on_c, 2, 66, 93
4, 1008, Note_off_c, 2, 66, 0
4, 1152, Note_on_c, 2, 66, 93
4, 1248, Note_off_c, 2, 66, 0
4, 1248, Note_on_c, 2, 64, 93
4, 1344, Note_off_c, 2, 64, 0
4, 1440, Note_on_c, 2, 67, 93
4, 1632, Note_off_c, 2, 67, 0
4, 1632, Note_on_c, 2, 66, 93
4, 1728, Note_off_c, 2, 66, 0
4, 1728, Note_on_c, 2, 66, 93
4, 1824, Note_off_c, 2, 66, 0
4, 1824, Note_on_c, 2, 67, 93
4, 2016, Note_off_c, 2, 67, 0
4, 2016, Note_on_c, 2, 66, 93
4, 2160, Note_off_c, 2, 66, 0
4, 2304, Note_on_c, 2, 66, 93
4, 2400, Note_off_c, 2, 66, 0
4, 2400, Note_on_c, 2, 64, 93
4, 2496, Note_off_c, 2, 64, 0
4, 2496, Note_on_c, 2, 69, 93
4, 2592, Note_off_c, 2, 69, 0
4, 2592, Note_on_c, 2, 62, 93
4, 2736, Note_off_c, 2, 62, 0
4, 2880, Note_on_c, 2, 67, 93
4, 2976, Note_off_c, 2, 67, 0
4, 2976, Note_on_c, 2, 64, 93
4, 3072, Note_off_c, 2, 64, 0
4, 3072, Note_on_c, 2, 65, 93
4, 3168, Note_off_c, 2, 65, 0
4, 3168, Note_on_c, 2, 66, 93
4, 3312, Note_off_c, 2, 66, 0
4, 3456, Note_on_c, 2, 66, 93
4, 3552, Note_off_c, 2, 66, 0
4, 3552, Note_on_c, 2, 64, 93
4, 3648, Note_off_c, 2, 64, 0
4, 3744, Note_on_c, 2, 67, 93
4, 3936, Note_off_c, 2, 67, 0
4, 3936, Note_on_c, 2, 66, 93
4, 4032, Note_off_c, 2, 66, 0
4, 4032, Note_on_c, 2, 66, 93
4, 4128, Note_off_c, 2, 66, 0
4, 4128, Note_on_c, 2, 67, 93
4, 4320, Note_off_c, 2, 67, 0
4, 4320, Note_on_c, 2, 66, 93
4, 4608, Note_off_c, 2, 66, 0
4, 4608, Note_on_c, 2, 66, 93
4, 4704, Note_off_c, 2, 66, 0
4, 4704, Note_on_c, 2, 64, 93
4, 4800, Note_off_c, 2, 64, 0
4, 4800, Note_on_c, 2, 66, 93
4, 4896, Note_off_c, 2, 66, 0
4, 4896, Note_on_c, 2, 62, 93
4, 4944, Note_off_c, 2, 62, 0
4, 5184, Note_on_c, 2, 62, 93
4, 5280, Note_off_c, 2, 62, 0
4, 5280, Note_on_c, 2, 61, 93
4, 5376, Note_off_c, 2, 61, 0
4, 5376, Note_on_c, 2, 59, 93
4, 5472, Note_off_c, 2, 59, 0
4, 5472, Note_on_c, 2, 57, 93
4, 5616, Note_off_c, 2, 57, 0
4, 6336, Note_on_c, 2, 72, 93
4, 6432, Note_off_c, 2, 72, 0
4, 6432, Note_on_c, 2, 71, 93
4, 6528, Note_off_c, 2, 71, 0
4, 6528, Note_on_c, 2, 69, 93
4, 6624, Note_off_c, 2, 69, 0
4, 6912, Note_on_c, 2, 73, 93
4, 7008, Note_off_c, 2, 73, 0
4, 7200, Note_on_c, 2, 74, 93
4, 7344, Note_off_c, 2, 74, 0
4, 7344, Note_on_c, 2, 76, 93
4, 7392, Note_off_c, 2, 76, 0
4, 7392, Note_on_c, 2, 78, 93
4, 7488, Note_off_c, 2, 78, 0
4, 7488, Note_on_c, 2, 83, 93
4, 7584, Note_off_c, 2, 83, 0
4, 7584, Note_on_c, 2, 79, 93
4, 7680, Note_off_c, 2, 79, 0
4, 7680, Note_on_c, 2, 78, 93
4, 7776, Note_off_c, 2, 78, 0
4, 7776, Note_on_c, 2, 76, 93
4, 7920, Note_off_c, 2, 76, 0
4, 7920, Note_on_c, 2, 78, 93
4, 7968, Note_off_c, 2, 78, 0
4, 7968, Note_on_c, 2, 79, 93
4, 8064, Note_off_c, 2, 79, 0
4, 8544, Note_on_c, 2, 73, 93
4, 8640, Note_off_c, 2, 73, 0
4, 8640, Note_on_c, 2, 71, 93
4, 8736, Note_off_c, 2, 71, 0
4, 8832, Note_on_c, 2, 64, 93
4, 8928, Note_off_c, 2, 64, 0
4, 8928, Note_on_c, 2, 66, 93
4, 9072, Note_off_c, 2, 66, 0
4, 9216, Note_on_c, 2, 66, 93
4, 9312, Note_off_c, 2, 66, 0
4, 9312, Note_on_c, 2, 70, 93
4, 9408, Note_off_c, 2, 70, 0
4, 9408, Note_on_c, 2, 71, 93
4, 9504, Note_off_c, 2, 71, 0
4, 9504, Note_on_c, 2, 64, 93
4, 9552, Note_off_c, 2, 64, 0
4, 9552, Note_on_c, 2, 68, 93
4, 9600, Note_off_c, 2, 68, 0
4, 9600, Note_on_c, 2, 71, 93
4, 9648, Note_off_c, 2, 71, 0
4, 9648, Note_on_c, 2, 74, 93
4, 9696, Note_off_c, 2, 74, 0
4, 9696, Note_on_c, 2, 80, 93
4, 9744, Note_off_c, 2, 80, 0
4, 9744, Note_on_c, 2, 74, 93
4, 9792, Note_off_c, 2, 74, 0
4, 9792, Note_on_c, 2, 73, 93
4, 9816, Note_off_c, 2, 73, 0
4, 9816, Note_on_c, 2, 71, 93
4, 9840, Note_off_c, 2, 71, 0
4, 9840, Note_on_c, 2, 73, 93
4, 9888, Note_off_c, 2, 73, 0
4, 9888, Note_on_c, 2, 74, 93
4, 9912, Note_off_c, 2, 74, 0
4, 9912, Note_on_c, 2, 73, 93
4, 9936, Note_off_c, 2, 73, 0
4, 9936, Note_on_c, 2, 74, 93
4, 9984, Note_off_c, 2, 74, 0
4, 9984, Note_on_c, 2, 76, 93
4, 10080, Note_off_c, 2, 76, 0
4, 10080, Note_on_c, 2, 76, 93
4, 10176, Note_off_c, 2, 76, 0
4, 11520, Note_on_c, 2, 66, 93
4, 11616, Note_off_c, 2, 66, 0
4, 11616, Note_on_c, 2, 64, 93
4, 11712, Note_off_c, 2, 64, 0
4, 11712, Note_on_c, 2, 66, 93
4, 11808, Note_off_c, 2, 66, 0
4, 11808, Note_on_c, 2, 62, 93
4, 11856, Note_off_c, 2, 62, 0
4, 12096, Note_on_c, 2, 62, 93
4, 12192, Note_off_c, 2, 62, 0
4, 12192, Note_on_c, 2, 61, 93
4, 12288, Note_off_c, 2, 61, 0
4, 12288, Note_on_c, 2, 59, 93
4, 12384, Note_off_c, 2, 59, 0
4, 12384, Note_on_c, 2, 57, 93
4, 12528, Note_off_c, 2, 57, 0
4, 13248, Note_on_c, 2, 72, 93
4, 13344, Note_off_c, 2, 72, 0
4, 13344, Note_on_c, 2, 71, 93
4, 13440, Note_off_c, 2, 71, 0
4, 13440, Note_on_c, 2, 69, 93
4, 13536, Note_off_c, 2, 69, 0
4, 13824, Note_on_c, 2, 73, 93
4, 13920, Note_off_c, 2, 73, 0
4, 14112, Note_on_c, 2, 74, 93
4, 14256, Note_off_c, 2, 74, 0
4, 14256, Note_on_c, 2, 76, 93
4, 14304, Note_off_c, 2, 76, 0
4, 14304, Note_on_c, 2, 78, 93
4, 14400, Note_off_c, 2, 78, 0
4, 14400, Note_on_c, 2, 83, 93
4, 14496, Note_off_c, 2, 83, 0
4, 14496, Note_on_c, 2, 79, 93
4, 14592, Note_off_c, 2, 79, 0
4, 14592, Note_on_c, 2, 78, 93
4, 14688, Note_off_c, 2, 78, 0
4, 14688, Note_on_c, 2, 76, 93
4, 14832, Note_off_c, 2, 76, 0
4, 14832, Note_on_c, 2, 78, 93
4, 14880, Note_off_c, 2, 78, 0
4, 14880, Note_on_c, 2, 79, 93
4, 14976, Note_off_c, 2, 79, 0
4, 15456, Note_on_c, 2, 73, 93
4, 15552, Note_off_c, 2, 73, 0
4, 15552, Note_on_c, 2, 71, 93
4, 15648, Note_off_c, 2, 71, 0
4, 15744, Note_on_c, 2, 64, 93
4, 15840, Note_off_c, 2, 64, 0
4, 15840, Note_on_c, 2, 66, 93
4, 15984, Note_off_c, 2, 66, 0
4, 16128, Note_on_c, 2, 66, 93
4, 16224, Note_off_c, 2, 66, 0
4, 16224, Note_on_c, 2, 70, 93
4, 16320, Note_off_c, 2, 70, 0
4, 16320, Note_on_c, 2, 71, 93
4, 16416, Note_off_c, 2, 71, 0
4, 16416, Note_on_c, 2, 64, 93
4, 16464, Note_off_c, 2, 64, 0
4, 16464, Note_on_c, 2, 68, 93
4, 16512, Note_off_c, 2, 68, 0
4, 16512, Note_on_c, 2, 71, 93
4, 16560, Note_off_c, 2, 71, 0
4, 16560, Note_on_c, 2, 74, 93
4, 16608, Note_off_c, 2, 74, 0
4, 16608, Note_on_c, 2, 80, 93
4, 16656, Note_off_c, 2, 80, 0
4, 16656, Note_on_c, 2, 74, 93
4, 16704, Note_off_c, 2, 74, 0
4, 16704, Note_on_c, 2, 73, 93
4, 16728, Note_off_c, 2, 73, 0
4, 16728, Note_on_c, 2, 71, 93
4, 16752, Note_off_c, 2, 71, 0
4, 16752, Note_on_c, 2, 73, 93
4, 16800, Note_off_c, 2, 73, 0
4, 16800, Note_on_c, 2, 74, 93
4, 16824, Note_off_c, 2, 74, 0
4, 16824, Note_on_c, 2, 73, 93
4, 16848, Note_off_c, 2, 73, 0
4, 16848, Note_on_c, 2, 74, 93
4, 16896, Note_off_c, 2, 74, 0
4, 16896, Note_on_c, 2, 76, 93
4, 16992, Note_off_c, 2, 76, 0
4, 16992, Note_on_c, 2, 76, 93
4, 17088, Note_off_c, 2, 76, 0
4, 17088, End_track
5, 0, Start_track
5, 0, Title_t, "Track5"
5, 0, Program_c, 3, 40
5, 0, Control_c, 3, 7, 100
5, 0, Control_c, 3, 10, 49
5, 0, Note_on_c, 3, 59, 93
5, 96, Note_off_c, 3, 59, 0
5, 2160, Note_on_c, 3, 64, 93
5, 2208, Note_off_c, 3, 64, 0
5, 2208, Note_on_c, 3, 62, 93
5, 2256, Note_off_c, 3, 62, 0
5, 2256, Note_on_c, 3, 61, 93
5, 2304, Note_off_c, 3, 61, 0
5, 2304, Note_on_c, 3, 59, 93
5, 2400, Note_off_c, 3, 59, 0
5, 5184, Note_on_c, 3, 68, 93
5, 5280, Note_off_c, 3, 68, 0
5, 5280, Note_on_c, 3, 69, 93
5, 5376, Note_off_c, 3, 69, 0
5, 5472, Note_on_c, 3, 64, 93
5, 5616, Note_off_c, 3, 64, 0
5, 5760, Note_on_c, 3, 69, 93
5, 5904, Note_off_c, 3, 69, 0
5, 5904, Note_on_c, 3, 67, 93
5, 5952, Note_off_c, 3, 67, 0
5, 5952, Note_on_c, 3, 66, 93
5, 6048, Note_off_c, 3, 66, 0
5, 6048, Note_on_c, 3, 64, 93
5, 6144, Note_off_c, 3, 64, 0
5, 6144, Note_on_c, 3, 63, 93
5, 6240, Note_off_c, 3, 63, 0
5, 6240, Note_on_c, 3, 64, 93
5, 6336, Note_off_c, 3, 64, 0
5, 6336, Note_on_c, 3, 57, 93
5, 6432, Note_off_c, 3, 57, 0
5, 6432, Note_on_c, 3, 59, 93
5, 6528, Note_off_c, 3, 59, 0
5, 6528, Note_on_c, 3, 59, 93
5, 6624, Note_off_c, 3, 59, 0
5, 6768, Note_on_c, 3, 62, 93
5, 6816, Note_off_c, 3, 62, 0
5, 6816, Note_on_c, 3, 61, 93
5, 6864, Note_off_c, 3, 61, 0
5, 6864, Note_on_c, 3, 59, 93
5, 6912, Note_off_c, 3, 59, 0
5, 6912, Note_on_c, 3, 57, 93
5, 7008, Note_off_c, 3, 57, 0
5, 7488, Note_on_c, 3, 62, 93
5, 7584, Note_off_c, 3, 62, 0
5, 7584, Note_on_c, 3, 64, 93
5, 7680, Note_off_c, 3, 64, 0
5, 7680, Note_on_c, 3, 62, 93
5, 7776, Note_off_c, 3, 62, 0
5, 7776, Note_on_c, 3, 69, 93
5, 7968, Note_off_c, 3, 69, 0
5, 8064, Note_on_c, 3, 64, 93
5, 8160, Note_off_c, 3, 64, 0
5, 8352, Note_on_c, 3, 66, 93
5, 8544, Note_off_c, 3, 66, 0
5, 8544, Note_on_c, 3, 66, 93
5, 8640, Note_off_c, 3, 66, 0
5, 8640, Note_on_c, 3, 67, 93
5, 8736, Note_off_c, 3, 67, 0
5, 9216, Note_on_c, 3, 71, 93
5, 9312, Note_off_c, 3, 71, 0
5, 9312, Note_on_c, 3, 73, 93
5, 9408, Note_off_c, 3, 73, 0
5, 9408, Note_on_c, 3, 74, 93
5, 9504, Note_off_c, 3, 74, 0
5, 9504, Note_on_c, 3, 74, 93
5, 9552, Note_off_c, 3, 74, 0
5, 9984, Note_on_c, 3, 64, 93
5, 10080, Note_off_c, 3, 64, 0
5, 10080, Note_on_c, 3, 66, 93
5, 10176, Note_off_c, 3, 66, 0
5, 10368, Note_on_c, 3, 66, 93
5, 10464, Note_off_c, 3, 66, 0
5, 10464, Note_on_c, 3, 64, 93
5, 10560, Note_off_c, 3, 64, 0
5, 10560, Note_on_c, 3, 62, 93
5, 10656, Note_off_c, 3, 62, 0
5, 10656, Note_on_c, 3, 61, 93
5, 10704, Note_off_c, 3, 61, 0
5, 10848, Note_on_c, 3, 59, 93
5, 10944, Note_off_c, 3, 59, 0
5, 10944, Note_on_c, 3, 64, 93
5, 11040, Note_off_c, 3, 64, 0
5, 11040, Note_on_c, 3, 66, 93
5, 11232, Note_off_c, 3, 66, 0
5, 11232, Note_on_c, 3, 59, 93
5, 11520, Note_off_c, 3, 59, 0
5, 12096, Note_on_c, 3, 68, 93
5, 12192, Note_off_c, 3, 68, 0
5, 12192, Note_on_c, 3, 69, 93
5, 12288, Note_off_c, 3, 69, 0
5, 12384, Note_on_c, 3, 64, 93
5, 12528, Note_off_c, 3, 64, 0
5, 12672, Note_on_c, 3, 69, 93
5, 12816, Note_off_c, 3, 69, 0
5, 12816, Note_on_c, 3, 67, 93
5, 12864, Note_off_c, 3, 67, 0
5, 12864, Note_on_c, 3, 66, 93
5, 12960, Note_off_c, 3, 66, 0
5, 12960, Note_on_c, 3, 64, 93
5, 13056, Note_off_c, 3, 64, 0
5, 13056, Note_on_c, 3, 63, 93
5, 13152, Note_off_c, 3, 63, 0
5, 13152, Note_on_c, 3, 64, 93
5, 13248, Note_off_c, 3, 64, 0
5, 13248, Note_on_c, 3, 57, 93
5, 13344, Note_off_c, 3, 57, 0
5, 13344, Note_on_c, 3, 59, 93
5, 13440, Note_off_c, 3, 59, 0
5, 13440, Note_on_c, 3, 59, 93
5, 13536, Note_off_c, 3, 59, 0
5, 13680, Note_on_c, 3, 62, 93
5, 13728, Note_off_c, 3, 62, 0
5, 13728, Note_on_c, 3, 61, 93
5, 13776, Note_off_c, 3, 61, 0
5, 13776, Note_on_c, 3, 59, 93
5, 13824, Note_off_c, 3, 59, 0
5, 13824, Note_on_c, 3, 57, 93
5, 13920, Note_off_c, 3, 57, 0
5, 14400, Note_on_c, 3, 62, 93
5, 14496, Note_off_c, 3, 62, 0
5, 14496, Note_on_c, 3, 64, 93
5, 14592, Note_off_c, 3, 64, 0
5, 14592, Note_on_c, 3, 62, 93
5, 14688, Note_off_c, 3, 62, 0
5, 14688, Note_on_c, 3, 69, 93
5, 14880, Note_off_c, 3, 69, 0
5, 14976, Note_on_c, 3, 64, 93
5, 15072, Note_off_c, 3, 64, 0
5, 15264, Note_on_c, 3, 66, 93
5, 15456, Note_off_c, 3, 66, 0
5, 15456, Note_on_c, 3, 66, 93
5, 15552, Note_off_c, 3, 66, 0
5, 15552, Note_on_c, 3, 67, 93
5, 15648, Note_off_c, 3, 67, 0
5, 16128, Note_on_c, 3, 71, 93
5, 16224, Note_off_c, 3, 71, 0
5, 16224, Note_on_c, 3, 73, 93
5, 16320, Note_off_c, 3, 73, 0
5, 16320, Note_on_c, 3, 74, 93
5, 16416, Note_off_c, 3, 74, 0
5, 16416, Note_on_c, 3, 74, 93
5, 16464, Note_off_c, 3, 74, 0
5, 16896, Note_on_c, 3, 64, 93
5, 16992, Note_off_c, 3, 64, 0
5, 16992, Note_on_c, 3, 66, 93
5, 17088, Note_off_c, 3, 66, 0
5, 17280, Note_on_c, 3, 66, 93
5, 17376, Note_off_c, 3, 66, 0
5, 17376, Note_on_c, 3, 64, 93
5, 17472, Note_off_c, 3, 64, 0
5, 17472, Note_on_c, 3, 62, 93
5, 17568, Note_off_c, 3, 62, 0
5, 17568, Note_on_c, 3, 61, 93
5, 17616, Note_off_c, 3, 61, 0
5, 17760, Note_on_c, 3, 59, 93
5, 17856, Note_off_c, 3, 59, 0
5, 17856, Note_on_c, 3, 64, 93
5, 17952, Note_off_c, 3, 64, 0
5, 17952, Note_on_c, 3, 66, 93
5, 18144, Note_off_c, 3, 66, 0
5, 18144, Note_on_c, 3, 59, 93
5, 18432, Note_off_c, 3, 59, 0
5, 18432, End_track
0, 0, End_of_file
