0, 0, Header, 1, 5, 96
1, 0, Start_track
1, 0, Time_signature, 4, 2, 24, 8
1, 0, Title_t, "untitled"
1, 0, Title_t, "Track1"
1, 0, Tempo, 240000
1, 360, Tempo, 1875000
1, 360, End_track
2, 0, Start_track
2, 0, Title_t, "Track2"
2, 0, Program_c, 0, 40
2, 0, Control_c, 0, 7, 100
2, 0, Control_c, 0, 10, 69
2, 360, Note_on_c, 0, 78, 93
2, 384, Note_off_c, 0, 78, 0
2, 384, Note_on_c, 0, 78, 93
2, 456, Note_off_c, 0, 78, 0
2, 456, Note_on_c, 0, 83, 93
2, 480, Note_off_c, 0, 83, 0
2, 480, Note_on_c, 0, 79, 93
2, 552, Note_off_c, 0, 79, 0
2, 552, Note_on_c, 0, 78, 93
2, 564, Note_off_c, 0, 78, 0
2, 564, Note_on_c, 0, 79, 93
2, 576, Note_off_c, 0, 79, 0
2, 576, Note_on_c, 0, 78, 93
2, 648, Note_off_c, 0, 78, 0
2, 768, Note_on_c, 0, 71, 93
2, 840, Note_off_c, 0, 71, 0
2, 1632, Note_on_c, 0, 71, 93
2, 1668, Note_off_c, 0, 71, 0
2, 1716, Note_on_c, 0, 71, 93
2, 1728, Note_off_c, 0, 71, 0
2, 1728, Note_on_c, 0, 69, 93
2, 1752, Note_off_c, 0, 69, 0
2, 2112, Note_on_c, 0, 81, 93
2, 2172, Note_off_c, 0, 81, 0
2, 2172, Note_on_c, 0, 81, 93
2, 2184, Note_off_c, 0, 81, 0
2, 2184, Note_on_c, 0, 79, 93
2, 2196, Note_off_c, 0, 79, 0
2, 2196, Note_on_c, 0, 78, 93
2, 2208, Note_off_c, 0, 78, 0
2, 2208, Note_on_c, 0, 83, 93
2, 2244, Note_off_c, 0, 83, 0
2, 2244, Note_on_c, 0, 81, 93
2, 2256, Note_off_c, 0, 81, 0
2, 2256, Note_on_c, 0, 79, 93
2, 2292, Note_off_c, 0, 79, 0
2, 2292, Note_on_c, 0, 78, 93
2, 2304, Note_off_c, 0, 78, 0
2, 2304, Note_on_c, 0, 79, 93
2, 2340, Note_off_c, 0, 79, 0
2, 2340, Note_on_c, 0, 76, 93
2, 2352, Note_off_c, 0, 76, 0
2, 2352, Note_on_c, 0, 71, 93
2, 2388, Note_off_c, 0, 71, 0
2, 2388, Note_on_c, 0, 67, 93
2, 2400, Note_off_c, 0, 67, 0
2, 2400, Note_on_c, 0, 64, 93
2, 2436, Note_off_c, 0, 64, 0
2, 2436, Note_on_c, 0, 74, 93
2, 2448, Note_off_c, 0, 74, 0
2, 2448, Note_on_c, 0, 73, 93
2, 2484, Note_off_c, 0, 73, 0
2, 2484, Note_on_c, 0, 71, 93
2, 2496, Note_off_c, 0, 71, 0
2, 2496, Note_on_c, 0, 70, 93
2, 2532, Note_off_c, 0, 70, 0
2, 2532, Note_on_c, 0, 79, 93
2, 2544, Note_off_c, 0, 79, 0
2, 2544, Note_on_c, 0, 78, 93
2, 2580, Note_off_c, 0, 78, 0
2, 2580, Note_on_c, 0, 64, 93
2, 2592, Note_off_c, 0, 64, 0
2, 2592, Note_on_c, 0, 62, 93
2, 2628, Note_off_c, 0, 62, 0
2, 2628, Note_on_c, 0, 66, 93
2, 2640, Note_off_c, 0, 66, 0
2, 2640, Note_on_c, 0, 71, 93
2, 2652, Note_off_c, 0, 71, 0
2, 2652, Note_on_c, 0, 74, 93
2, 2664, Note_off_c, 0, 74, 0
2, 2664, Note_on_c, 0, 78, 93
2, 2688, Note_off_c, 0, 78, 0
2, 2688, Note_on_c, 0, 68, 93
2, 2724, Note_off_c, 0, 68, 0
2, 2724, Note_on_c, 0, 71, 93
2, 2736, Note_off_c, 0, 71, 0
2, 2736, Note_on_c, 0, 76, 93
2, 2772, Note_off_c, 0, 76, 0
2, 2772, Note_on_c, 0, 62, 93
2, 2784, Note_off_c, 0, 62, 0
2, 2784, Note_on_c, 0, 61, 93
2, 2802, Note_off_c, 0, 61, 0
2, 2802, Note_on_c, 0, 62, 93
2, 2814, Note_off_c, 0, 62, 0
2, 2814, Note_on_c, 0, 64, 93
2, 2832, Note_off_c, 0, 64, 0
2, 2832, Note_on_c, 0, 66, 93
2, 2850, Note_off_c, 0, 66, 0
2, 2850, Note_on_c, 0, 67, 93
2, 2862, Note_off_c, 0, 67, 0
2, 2862, Note_on_c, 0, 59, 93
2, 2880, Note_off_c, 0, 59, 0
2, 2880, Note_on_c, 0, 58, 93
2, 2916, Note_off_c, 0, 58, 0
2, 2976, Note_on_c, 0, 59, 93
2, 3024, Note_off_c, 0, 59, 0
2, 3648, Note_on_c, 0, 73, 93
2, 3720, Note_off_c, 0, 73, 0
2, 3792, Note_on_c, 0, 73, 93
2, 3828, Note_off_c, 0, 73, 0
2, 3840, Note_on_c, 0, 73, 93
2, 3876, Note_off_c, 0, 73, 0
2, 4416, Note_on_c, 0, 73, 93
2, 4464, Note_off_c, 0, 73, 0
2, 4608, Note_on_c, 0, 73, 93
2, 4680, Note_off_c, 0, 73, 0
2, 4992, Note_on_c, 0, 78, 93
2, 5064, Note_off_c, 0, 78, 0
2, 5064, Note_on_c, 0, 83, 93
2, 5088, Note_off_c, 0, 83, 0
2, 5088, Note_on_c, 0, 79, 93
2, 5160, Note_off_c, 0, 79, 0
2, 5160, Note_on_c, 0, 78, 93
2, 5172, Note_off_c, 0, 78, 0
2, 5172, Note_on_c, 0, 79, 93
2, 5184, Note_off_c, 0, 79, 0
2, 5184, Note_on_c, 0, 78, 93
2, 5256, Note_off_c, 0, 78, 0
2, 5376, Note_on_c, 0, 71, 93
2, 5448, Note_off_c, 0, 71, 0
2, 6240, Note_on_c, 0, 71, 93
2, 6276, Note_off_c, 0, 71, 0
2, 6324, Note_on_c, 0, 71, 93
2, 6336, Note_off_c, 0, 71, 0
2, 6336, Note_on_c, 0, 69, 93
2, 6360, Note_off_c, 0, 69, 0
2, 6720, Note_on_c, 0, 81, 93
2, 6780, Note_off_c, 0, 81, 0
2, 6780, Note_on_c, 0, 81, 93
2, 6792, Note_off_c, 0, 81, 0
2, 6792, Note_on_c, 0, 79, 93
2, 6804, Note_off_c, 0, 79, 0
2, 6804, Note_on_c, 0, 78, 93
2, 6816, Note_off_c, 0, 78, 0
2, 6816, Note_on_c, 0, 83, 93
2, 6852, Note_off_c, 0, 83, 0
2, 6852, Note_on_c, 0, 81, 93
2, 6864, Note_off_c, 0, 81, 0
2, 6864, Note_on_c, 0, 79, 93
2, 6900, Note_off_c, 0, 79, 0
2, 6900, Note_on_c, 0, 78, 93
2, 6912, Note_off_c, 0, 78, 0
2, 6912, Note_on_c, 0, 79, 93
2, 6948, Note_off_c, 0, 79, 0
2, 6948, Note_on_c, 0, 76, 93
2, 6960, Note_off_c, 0, 76, 0
2, 6960, Note_on_c, 0, 71, 93
2, 6996, Note_off_c, 0, 71, 0
2, 6996, Note_on_c, 0, 67, 93
2, 7008, Note_off_c, 0, 67, 0
2, 7008, Note_on_c, 0, 64, 93
2, 7044, Note_off_c, 0, 64, 0
2, 7044, Note_on_c, 0, 74, 93
2, 7056, Note_off_c, 0, 74, 0
2, 7056, Note_on_c, 0, 73, 93
2, 7092, Note_off_c, 0, 73, 0
2, 7092, Note_on_c, 0, 71, 93
2, 7104, Note_off_c, 0, 71, 0
2, 7104, Note_on_c, 0, 70, 93
2, 7140, Note_off_c, 0, 70, 0
2, 7140, Note_on_c, 0, 79, 93
2, 7152, Note_off_c, 0, 79, 0
2, 7152, Note_on_c, 0, 78, 93
2, 7188, Note_off_c, 0, 78, 0
2, 7188, Note_on_c, 0, 64, 93
2, 7200, Note_off_c, 0, 64, 0
2, 7200, Note_on_c, 0, 62, 93
2, 7236, Note_off_c, 0, 62, 0
2, 7236, Note_on_c, 0, 66, 93
2, 7248, Note_off_c, 0, 66, 0
2, 7248, Note_on_c, 0, 71, 93
2, 7260, Note_off_c, 0, 71, 0
2, 7260, Note_on_c, 0, 74, 93
2, 7272, Note_off_c, 0, 74, 0
2, 7272, Note_on_c, 0, 78, 93
2, 7296, Note_off_c, 0, 78, 0
2, 7296, Note_on_c, 0, 68, 93
2, 7332, Note_off_c, 0, 68, 0
2, 7332, Note_on_c, 0, 71, 93
2, 7344, Note_off_c, 0, 71, 0
2, 7344, Note_on_c, 0, 76, 93
2, 7380, Note_off_c, 0, 76, 0
2, 7380, Note_on_c, 0, 62, 93
2, 7392, Note_off_c, 0, 62, 0
2, 7392, Note_on_c, 0, 61, 93
2, 7410, Note_off_c, 0, 61, 0
2, 7410, Note_on_c, 0, 62, 93
2, 7422, Note_off_c, 0, 62, 0
2, 7422, Note_on_c, 0, 64, 93
2, 7440, Note_off_c, 0, 64, 0
2, 7440, Note_on_c, 0, 66, 93
2, 7458, Note_off_c, 0, 66, 0
2, 7458, Note_on_c, 0, 67, 93
2, 7470, Note_off_c, 0, 67, 0
2, 7470, Note_on_c, 0, 59, 93
2, 7488, Note_off_c, 0, 59, 0
2, 7488, Note_on_c, 0, 58, 93
2, 7524, Note_off_c, 0, 58, 0
2, 7584, Note_on_c, 0, 59, 93
2, 7632, Note_off_c, 0, 59, 0
2, 8256, Note_on_c, 0, 73, 93
2, 8328, Note_off_c, 0, 73, 0
2, 8400, Note_on_c, 0, 73, 93
2, 8436, Note_off_c, 0, 73, 0
2, 8448, Note_on_c, 0, 73, 93
2, 8484, Note_off_c, 0, 73, 0
2, 9024, Note_on_c, 0, 73, 93
2, 9072, Note_off_c, 0, 73, 0
2, 9216, Note_on_c, 0, 73, 93
2, 9288, Note_off_c, 0, 73, 0
2, 10176, Note_on_c, 0, 57, 93
2, 10248, Note_off_c, 0, 57, 0
2, 10368, Note_on_c, 0, 55, 93
2, 10404, Note_off_c, 0, 55, 0
2, 10944, Note_on_c, 0, 69, 93
2, 11016, Note_off_c, 0, 69, 0
2, 11016, Note_on_c, 0, 71, 93
2, 11040, Note_off_c, 0, 71, 0
2, 11040, Note_on_c, 0, 72, 93
2, 11058, Note_off_c, 0, 72, 0
2, 11058, Note_on_c, 0, 71, 93
2, 11070, Note_off_c, 0, 71, 0
2, 11070, Note_on_c, 0, 69, 93
2, 11088, Note_off_c, 0, 69, 0
2, 11088, Note_on_c, 0, 78, 93
2, 11106, Note_off_c, 0, 78, 0
2, 11106, Note_on_c, 0, 79, 93
2, 11118, Note_off_c, 0, 79, 0
2, 11118, Note_on_c, 0, 81, 93
2, 11136, Note_off_c, 0, 81, 0
2, 11136, Note_on_c, 0, 81, 93
2, 11172, Note_off_c, 0, 81, 0
2, 11172, Note_on_c, 0, 79, 93
2, 11178, Note_off_c, 0, 79, 0
2, 11178, Note_on_c, 0, 78, 93
2, 11184, Note_off_c, 0, 78, 0
2, 11184, Note_on_c, 0, 83, 93
2, 11220, Note_off_c, 0, 83, 0
2, 11220, Note_on_c, 0, 81, 93
2, 11232, Note_off_c, 0, 81, 0
2, 11232, Note_on_c, 0, 79, 93
2, 11268, Note_off_c, 0, 79, 0
2, 11268, Note_on_c, 0, 78, 93
2, 11280, Note_off_c, 0, 78, 0
2, 11280, Note_on_c, 0, 79, 93
2, 11292, Note_off_c, 0, 79, 0
2, 11292, Note_on_c, 0, 81, 93
2, 11304, Note_off_c, 0, 81, 0
2, 11304, Note_on_c, 0, 78, 93
2, 11328, Note_off_c, 0, 78, 0
2, 11328, Note_on_c, 0, 79, 93
2, 11346, Note_off_c, 0, 79, 0
2, 11346, Note_on_c, 0, 76, 93
2, 11358, Note_off_c, 0, 76, 0
2, 11358, Note_on_c, 0, 71, 93
2, 11376, Note_off_c, 0, 71, 0
2, 11376, Note_on_c, 0, 67, 93
2, 11394, Note_off_c, 0, 67, 0
2, 11394, Note_on_c, 0, 64, 93
2, 11406, Note_off_c, 0, 64, 0
2, 11406, Note_on_c, 0, 59, 93
2, 11424, Note_off_c, 0, 59, 0
2, 11424, Note_on_c, 0, 62, 93
2, 11442, Note_off_c, 0, 62, 0
2, 11442, Note_on_c, 0, 67, 93
2, 11454, Note_off_c, 0, 67, 0
2, 11454, Note_on_c, 0, 71, 93
2, 11472, Note_off_c, 0, 71, 0
2, 11472, Note_on_c, 0, 74, 93
2, 11490, Note_off_c, 0, 74, 0
2, 11490, Note_on_c, 0, 76, 93
2, 11502, Note_off_c, 0, 76, 0
2, 11502, Note_on_c, 0, 77, 93
2, 11520, Note_off_c, 0, 77, 0
2, 11520, Note_on_c, 0, 76, 93
2, 11550, Note_off_c, 0, 76, 0
2, 11550, Note_on_c, 0, 74, 93
2, 11556, Note_off_c, 0, 74, 0
2, 11556, Note_on_c, 0, 72, 93
2, 11562, Note_off_c, 0, 72, 0
2, 11562, Note_on_c, 0, 71, 93
2, 11568, Note_off_c, 0, 71, 0
2, 11568, Note_on_c, 0, 72, 93
2, 11604, Note_off_c, 0, 72, 0
2, 11604, Note_on_c, 0, 76, 93
2, 11616, Note_off_c, 0, 76, 0
2, 11616, Note_on_c, 0, 70, 93
2, 11688, Note_off_c, 0, 70, 0
2, 11688, Note_on_c, 0, 71, 93
2, 11700, Note_off_c, 0, 71, 0
2, 11700, Note_on_c, 0, 70, 93
2, 11712, Note_off_c, 0, 70, 0
2, 11712, Note_on_c, 0, 71, 93
2, 11730, Note_off_c, 0, 71, 0
2, 11730, Note_on_c, 0, 73, 93
2, 11742, Note_off_c, 0, 73, 0
2, 11742, Note_on_c, 0, 75, 93
2, 11760, Note_off_c, 0, 75, 0
2, 11760, Note_on_c, 0, 76, 93
2, 11778, Note_off_c, 0, 76, 0
2, 11778, Note_on_c, 0, 79, 93
2, 11790, Note_off_c, 0, 79, 0
2, 11790, Note_on_c, 0, 78, 93
2, 11808, Note_off_c, 0, 78, 0
2, 11808, Note_on_c, 0, 76, 93
2, 11856, Note_off_c, 0, 76, 0
2, 11856, Note_on_c, 0, 75, 93
2, 11892, Note_off_c, 0, 75, 0
2, 11892, Note_on_c, 0, 76, 93
2, 11904, Note_off_c, 0, 76, 0
2, 11904, Note_on_c, 0, 76, 93
2, 11976, Note_off_c, 0, 76, 0
2, 12864, Note_on_c, 0, 57, 93
2, 12900, Note_off_c, 0, 57, 0
2, 13248, Note_on_c, 0, 64, 93
2, 13284, Note_off_c, 0, 64, 0
2, 13824, Note_on_c, 0, 66, 93
2, 13896, Note_off_c, 0, 66, 0
2, 14016, Note_on_c, 0, 66, 93
2, 14160, Note_off_c, 0, 66, 0
2, 14784, Note_on_c, 0, 57, 93
2, 14856, Note_off_c, 0, 57, 0
2, 14976, Note_on_c, 0, 55, 93
2, 15012, Note_off_c, 0, 55, 0
2, 15552, Note_on_c, 0, 69, 93
2, 15624, Note_off_c, 0, 69, 0
2, 15624, Note_on_c, 0, 71, 93
2, 15648, Note_off_c, 0, 71, 0
2, 15648, Note_on_c, 0, 72, 93
2, 15666, Note_off_c, 0, 72, 0
2, 15666, Note_on_c, 0, 71, 93
2, 15678, Note_off_c, 0, 71, 0
2, 15678, Note_on_c, 0, 69, 93
2, 15696, Note_off_c, 0, 69, 0
2, 15696, Note_on_c, 0, 78, 93
2, 15714, Note_off_c, 0, 78, 0
2, 15714, Note_on_c, 0, 79, 93
2, 15726, Note_off_c, 0, 79, 0
2, 15726, Note_on_c, 0, 81, 93
2, 15744, Note_off_c, 0, 81, 0
2, 15744, Note_on_c, 0, 81, 93
2, 15780, Note_off_c, 0, 81, 0
2, 15780, Note_on_c, 0, 79, 93
2, 15786, Note_off_c, 0, 79, 0
2, 15786, Note_on_c, 0, 78, 93
2, 15792, Note_off_c, 0, 78, 0
2, 15792, Note_on_c, 0, 83, 93
2, 15828, Note_off_c, 0, 83, 0
2, 15828, Note_on_c, 0, 81, 93
2, 15840, Note_off_c, 0, 81, 0
2, 15840, Note_on_c, 0, 79, 93
2, 15876, Note_off_c, 0, 79, 0
2, 15876, Note_on_c, 0, 78, 93
2, 15888, Note_off_c, 0, 78, 0
2, 15888, Note_on_c, 0, 79, 93
2, 15900, Note_off_c, 0, 79, 0
2, 15900, Note_on_c, 0, 81, 93
2, 15912, Note_off_c, 0, 81, 0
2, 15912, Note_on_c, 0, 78, 93
2, 15936, Note_off_c, 0, 78, 0
2, 15936, Note_on_c, 0, 79, 93
2, 15954, Note_off_c, 0, 79, 0
2, 15954, Note_on_c, 0, 76, 93
2, 15966, Note_off_c, 0, 76, 0
2, 15966, Note_on_c, 0, 71, 93
2, 15984, Note_off_c, 0, 71, 0
2, 15984, Note_on_c, 0, 67, 93
2, 16002, Note_off_c, 0, 67, 0
2, 16002, Note_on_c, 0, 64, 93
2, 16014, Note_off_c, 0, 64, 0
2, 16014, Note_on_c, 0, 59, 93
2, 16032, Note_off_c, 0, 59, 0
2, 16032, Note_on_c, 0, 62, 93
2, 16050, Note_off_c, 0, 62, 0
2, 16050, Note_on_c, 0, 67, 93
2, 16062, Note_off_c, 0, 67, 0
2, 16062, Note_on_c, 0, 71, 93
2, 16080, Note_off_c, 0, 71, 0
2, 16080, Note_on_c, 0, 74, 93
2, 16098, Note_off_c, 0, 74, 0
2, 16098, Note_on_c, 0, 76, 93
2, 16110, Note_off_c, 0, 76, 0
2, 16110, Note_on_c, 0, 77, 93
2, 16128, Note_off_c, 0, 77, 0
2, 16128, Note_on_c, 0, 76, 93
2, 16158, Note_off_c, 0, 76, 0
2, 16158, Note_on_c, 0, 74, 93
2, 16164, Note_off_c, 0, 74, 0
2, 16164, Note_on_c, 0, 72, 93
2, 16170, Note_off_c, 0, 72, 0
2, 16170, Note_on_c, 0, 71, 93
2, 16176, Note_off_c, 0, 71, 0
2, 16176, Note_on_c, 0, 72, 93
2, 16212, Note_off_c, 0, 72, 0
2, 16212, Note_on_c, 0, 76, 93
2, 16224, Note_off_c, 0, 76, 0
2, 16224, Note_on_c, 0, 70, 93
2, 16296, Note_off_c, 0, 70, 0
2, 16296, Note_on_c, 0, 71, 93
2, 16308, Note_off_c, 0, 71, 0
2, 16308, Note_on_c, 0, 70, 93
2, 16320, Note_off_c, 0, 70, 0
2, 16320, Note_on_c, 0, 71, 93
2, 16338, Note_off_c, 0, 71, 0
2, 16338, Note_on_c, 0, 73, 93
2, 16350, Note_off_c, 0, 73, 0
2, 16350, Note_on_c, 0, 75, 93
2, 16368, Note_off_c, 0, 75, 0
2, 16368, Note_on_c, 0, 76, 93
2, 16386, Note_off_c, 0, 76, 0
2, 16386, Note_on_c, 0, 79, 93
2, 16398, Note_off_c, 0, 79, 0
2, 16398, Note_on_c, 0, 78, 93
2, 16416, Note_off_c, 0, 78, 0
2, 16416, Note_on_c, 0, 76, 93
2, 16464, Note_off_c, 0, 76, 0
2, 16464, Note_on_c, 0, 75, 93
2, 16500, Note_off_c, 0, 75, 0
2, 16500, Note_on_c, 0, 76, 93
2, 16512, Note_off_c, 0, 76, 0
2, 16512, Note_on_c, 0, 76, 93
2, 16584, Note_off_c, 0, 76, 0
2, 17472, Note_on_c, 0, 57, 93
2, 17508, Note_off_c, 0, 57, 0
2, 17856, Note_on_c, 0, 64, 93
2, 17892, Note_off_c, 0, 64, 0
2, 18432, Note_on_c, 0, 66, 93
2, 18504, Note_off_c, 0, 66, 0
2, 18624, Note_on_c, 0, 66, 93
2, 18768, Note_off_c, 0, 66, 0
2, 18768, End_track
3, 0, Start_track
3, 0, Title_t, "Track3"
3, 0, Program_c, 1, 40
3, 0, Control_c, 1, 7, 100
3, 0, Control_c, 1, 10, 59
3, 384, Note_on_c, 1, 74, 93
3, 456, Note_off_c, 1, 74, 0
3, 480, Note_on_c, 1, 76, 93
3, 552, Note_off_c, 1, 76, 0
3, 576, Note_on_c, 1, 76, 93
3, 648, Note_off_c, 1, 76, 0
3, 648, Note_on_c, 1, 74, 93
3, 660, Note_off_c, 1, 74, 0
3, 660, Note_on_c, 1, 73, 93
3, 672, Note_off_c, 1, 73, 0
3, 672, Note_on_c, 1, 74, 93
3, 708, Note_off_c, 1, 74, 0
3, 708, Note_on_c, 1, 59, 93
3, 720, Note_off_c, 1, 59, 0
3, 720, Note_on_c, 1, 57, 93
3, 756, Note_off_c, 1, 57, 0
3, 756, Note_on_c, 1, 78, 93
3, 768, Note_off_c, 1, 78, 0
3, 768, Note_on_c, 1, 78, 93
3, 840, Note_off_c, 1, 78, 0
3, 840, Note_on_c, 1, 79, 93
3, 852, Note_off_c, 1, 79, 0
3, 852, Note_on_c, 1, 78, 93
3, 864, Note_off_c, 1, 78, 0
3, 864, Note_on_c, 1, 76, 93
3, 900, Note_off_c, 1, 76, 0
3, 900, Note_on_c, 1, 74, 93
3, 912, Note_off_c, 1, 74, 0
3, 912, Note_on_c, 1, 73, 93
3, 948, Note_off_c, 1, 73, 0
3, 948, Note_on_c, 1, 71, 93
3, 960, Note_off_c, 1, 71, 0
3, 960, Note_on_c, 1, 70, 93
3, 996, Note_off_c, 1, 70, 0
3, 996, Note_on_c, 1, 67, 93
3, 1008, Note_off_c, 1, 67, 0
3, 1008, Note_on_c, 1, 66, 93
3, 1044, Note_off_c, 1, 66, 0
3, 1044, Note_on_c, 1, 64, 93
3, 1056, Note_off_c, 1, 64, 0
3, 1056, Note_on_c, 1, 62, 93
3, 1092, Note_off_c, 1, 62, 0
3, 1092, Note_on_c, 1, 71, 93
3, 1104, Note_off_c, 1, 71, 0
3, 1104, Note_on_c, 1, 61, 93
3, 1140, Note_off_c, 1, 61, 0
3, 1140, Note_on_c, 1, 73, 93
3, 1152, Note_off_c, 1, 73, 0
3, 1152, Note_on_c, 1, 74, 93
3, 1188, Note_off_c, 1, 74, 0
3, 1188, Note_on_c, 1, 59, 93
3, 1194, Note_off_c, 1, 59, 0
3, 1194, Note_on_c, 1, 61, 93
3, 1200, Note_off_c, 1, 61, 0
3, 1200, Note_on_c, 1, 62, 93
3, 1236, Note_off_c, 1, 62, 0
3, 1236, Note_on_c, 1, 64, 93
3, 1248, Note_off_c, 1, 64, 0
3, 1248, Note_on_c, 1, 66, 93
3, 1272, Note_off_c, 1, 66, 0
3, 1272, Note_on_c, 1, 62, 93
3, 1284, Note_off_c, 1, 62, 0
3, 1284, Note_on_c, 1, 64, 93
3, 1296, Note_off_c, 1, 64, 0
3, 1296, Note_on_c, 1, 66, 93
3, 1320, Note_off_c, 1, 66, 0
3, 1320, Note_on_c, 1, 69, 93
3, 1332, Note_off_c, 1, 69, 0
3, 1332, Note_on_c, 1, 67, 93
3, 1344, Note_off_c, 1, 67, 0
3, 1344, Note_on_c, 1, 69, 93
3, 1416, Note_off_c, 1, 69, 0
3, 1416, Note_on_c, 1, 69, 93
3, 1440, Note_off_c, 1, 69, 0
3, 1440, Note_on_c, 1, 74, 93
3, 1464, Note_off_c, 1, 74, 0
3, 1464, Note_on_c, 1, 78, 93
3, 1476, Note_off_c, 1, 78, 0
3, 1476, Note_on_c, 1, 76, 93
3, 1488, Note_off_c, 1, 76, 0
3, 1488, Note_on_c, 1, 78, 93
3, 1524, Note_off_c, 1, 78, 0
3, 1524, Note_on_c, 1, 69, 93
3, 1536, Note_off_c, 1, 69, 0
3, 1536, Note_on_c, 1, 71, 93
3, 1560, Note_off_c, 1, 71, 0
3, 1620, Note_on_c, 1, 74, 93
3, 1632, Note_off_c, 1, 74, 0
3, 1632, Note_on_c, 1, 79, 93
3, 1668, Note_off_c, 1, 79, 0
3, 1728, Note_on_c, 1, 79, 93
3, 1764, Note_off_c, 1, 79, 0
3, 1764, Note_on_c, 1, 78, 93
3, 1770, Note_off_c, 1, 78, 0
3, 1770, Note_on_c, 1, 76, 93
3, 1776, Note_off_c, 1, 76, 0
3, 1776, Note_on_c, 1, 81, 93
3, 1812, Note_off_c, 1, 81, 0
3, 1812, Note_on_c, 1, 79, 93
3, 1824, Note_off_c, 1, 79, 0
3, 1824, Note_on_c, 1, 78, 93
3, 1860, Note_off_c, 1, 78, 0
3, 1860, Note_on_c, 1, 62, 93
3, 1872, Note_off_c, 1, 62, 0
3, 1872, Note_on_c, 1, 67, 93
3, 1908, Note_off_c, 1, 67, 0
3, 1908, Note_on_c, 1, 76, 93
3, 1920, Note_off_c, 1, 76, 0
3, 1920, Note_on_c, 1, 74, 93
3, 1932, Note_off_c, 1, 74, 0
3, 1932, Note_on_c, 1, 73, 93
3, 1968, Note_off_c, 1, 73, 0
3, 1968, Note_on_c, 1, 71, 93
3, 1980, Note_off_c, 1, 71, 0
3, 1980, Note_on_c, 1, 69, 93
3, 2016, Note_off_c, 1, 69, 0
3, 2016, Note_on_c, 1, 81, 93
3, 2052, Note_off_c, 1, 81, 0
3, 2052, Note_on_c, 1, 67, 93
3, 2064, Note_off_c, 1, 67, 0
3, 2064, Note_on_c, 1, 66, 93
3, 2100, Note_off_c, 1, 66, 0
3, 2100, Note_on_c, 1, 67, 93
3, 2106, Note_off_c, 1, 67, 0
3, 2106, Note_on_c, 1, 64, 93
3, 2112, Note_off_c, 1, 64, 0
3, 2112, Note_on_c, 1, 63, 93
3, 2148, Note_off_c, 1, 63, 0
3, 2880, Note_on_c, 1, 76, 93
3, 2916, Note_off_c, 1, 76, 0
3, 2916, Note_on_c, 1, 78, 93
3, 2922, Note_off_c, 1, 78, 0
3, 2922, Note_on_c, 1, 79, 93
3, 2928, Note_off_c, 1, 79, 0
3, 2928, Note_on_c, 1, 78, 93
3, 2964, Note_off_c, 1, 78, 0
3, 2964, Note_on_c, 1, 76, 93
3, 2976, Note_off_c, 1, 76, 0
3, 2976, Note_on_c, 1, 76, 93
3, 3024, Note_off_c, 1, 76, 0
3, 3024, Note_on_c, 1, 74, 93
3, 3036, Note_off_c, 1, 74, 0
3, 3036, Note_on_c, 1, 73, 93
3, 3048, Note_off_c, 1, 73, 0
3, 3048, Note_on_c, 1, 74, 93
3, 3072, Note_off_c, 1, 74, 0
3, 3072, Note_on_c, 1, 73, 93
3, 3144, Note_off_c, 1, 73, 0
3, 3144, Note_on_c, 1, 66, 93
3, 3156, Note_off_c, 1, 66, 0
3, 3156, Note_on_c, 1, 68, 93
3, 3168, Note_off_c, 1, 68, 0
3, 3168, Note_on_c, 1, 70, 93
3, 3186, Note_off_c, 1, 70, 0
3, 3186, Note_on_c, 1, 71, 93
3, 3198, Note_off_c, 1, 71, 0
3, 3198, Note_on_c, 1, 73, 93
3, 3216, Note_off_c, 1, 73, 0
3, 3216, Note_on_c, 1, 74, 93
3, 3234, Note_off_c, 1, 74, 0
3, 3234, Note_on_c, 1, 76, 93
3, 3246, Note_off_c, 1, 76, 0
3, 3246, Note_on_c, 1, 78, 93
3, 3264, Note_off_c, 1, 78, 0
3, 3264, Note_on_c, 1, 79, 93
3, 3282, Note_off_c, 1, 79, 0
3, 3282, Note_on_c, 1, 78, 93
3, 3294, Note_off_c, 1, 78, 0
3, 3294, Note_on_c, 1, 76, 93
3, 3312, Note_off_c, 1, 76, 0
3, 3312, Note_on_c, 1, 82, 93
3, 3330, Note_off_c, 1, 82, 0
3, 3330, Note_on_c, 1, 83, 93
3, 3342, Note_off_c, 1, 83, 0
3, 3342, Note_on_c, 1, 85, 93
3, 3360, Note_off_c, 1, 85, 0
3, 3360, Note_on_c, 1, 78, 93
3, 3396, Note_off_c, 1, 78, 0
3, 3396, Note_on_c, 1, 71, 93
3, 3408, Note_off_c, 1, 71, 0
3, 3408, Note_on_c, 1, 70, 93
3, 3444, Note_off_c, 1, 70, 0
3, 3444, Note_on_c, 1, 76, 93
3, 3456, Note_off_c, 1, 76, 0
3, 3456, Note_on_c, 1, 59, 93
3, 3474, Note_off_c, 1, 59, 0
3, 3474, Note_on_c, 1, 64, 93
3, 3486, Note_off_c, 1, 64, 0
3, 3486, Note_on_c, 1, 67, 93
3, 3504, Note_off_c, 1, 67, 0
3, 3504, Note_on_c, 1, 70, 93
3, 3522, Note_off_c, 1, 70, 0
3, 3522, Note_on_c, 1, 73, 93
3, 3534, Note_off_c, 1, 73, 0
3, 3534, Note_on_c, 1, 76, 93
3, 3552, Note_off_c, 1, 76, 0
3, 3552, Note_on_c, 1, 74, 93
3, 3570, Note_off_c, 1, 74, 0
3, 3570, Note_on_c, 1, 73, 93
3, 3582, Note_off_c, 1, 73, 0
3, 3582, Note_on_c, 1, 71, 93
3, 3600, Note_off_c, 1, 71, 0
3, 3600, Note_on_c, 1, 80, 93
3, 3636, Note_off_c, 1, 80, 0
3, 3636, Note_on_c, 1, 80, 93
3, 3648, Note_off_c, 1, 80, 0
3, 3648, Note_on_c, 1, 80, 93
3, 3720, Note_off_c, 1, 80, 0
3, 3720, Note_on_c, 1, 81, 93
3, 3732, Note_off_c, 1, 81, 0
3, 3732, Note_on_c, 1, 83, 93
3, 3744, Note_off_c, 1, 83, 0
3, 3744, Note_on_c, 1, 83, 93
3, 3780, Note_off_c, 1, 83, 0
3, 3780, Note_on_c, 1, 80, 93
3, 3792, Note_off_c, 1, 80, 0
3, 3792, Note_on_c, 1, 81, 93
3, 3828, Note_off_c, 1, 81, 0
3, 3828, Note_on_c, 1, 78, 93
3, 3840, Note_off_c, 1, 78, 0
3, 3840, Note_on_c, 1, 80, 93
3, 3876, Note_off_c, 1, 80, 0
3, 3876, Note_on_c, 1, 77, 93
3, 3882, Note_off_c, 1, 77, 0
3, 3882, Note_on_c, 1, 73, 93
3, 3888, Note_off_c, 1, 73, 0
3, 3888, Note_on_c, 1, 85, 93
3, 3924, Note_off_c, 1, 85, 0
3, 3924, Note_on_c, 1, 85, 93
3, 3936, Note_off_c, 1, 85, 0
3, 3936, Note_on_c, 1, 85, 93
3, 3972, Note_off_c, 1, 85, 0
3, 3972, Note_on_c, 1, 76, 93
3, 3984, Note_off_c, 1, 76, 0
3, 3984, Note_on_c, 1, 70, 93
3, 4020, Note_off_c, 1, 70, 0
3, 4020, Note_on_c, 1, 76, 93
3, 4032, Note_off_c, 1, 76, 0
3, 4032, Note_on_c, 1, 59, 93
3, 4068, Note_off_c, 1, 59, 0
3, 4068, Note_on_c, 1, 76, 93
3, 4080, Note_off_c, 1, 76, 0
3, 4080, Note_on_c, 1, 74, 93
3, 4116, Note_off_c, 1, 74, 0
3, 4116, Note_on_c, 1, 78, 93
3, 4128, Note_off_c, 1, 78, 0
3, 4128, Note_on_c, 1, 83, 93
3, 4146, Note_off_c, 1, 83, 0
3, 4146, Note_on_c, 1, 85, 93
3, 4158, Note_off_c, 1, 85, 0
3, 4158, Note_on_c, 1, 82, 93
3, 4176, Note_off_c, 1, 82, 0
3, 4176, Note_on_c, 1, 83, 93
3, 4194, Note_off_c, 1, 83, 0
3, 4194, Note_on_c, 1, 86, 93
3, 4206, Note_off_c, 1, 86, 0
3, 4206, Note_on_c, 1, 85, 93
3, 4224, Note_off_c, 1, 85, 0
3, 4224, Note_on_c, 1, 86, 93
3, 4260, Note_off_c, 1, 86, 0
3, 4260, Note_on_c, 1, 77, 93
3, 4272, Note_off_c, 1, 77, 0
3, 4272, Note_on_c, 1, 68, 93
3, 4308, Note_off_c, 1, 68, 0
3, 4308, Note_on_c, 1, 77, 93
3, 4320, Note_off_c, 1, 77, 0
3, 4320, Note_on_c, 1, 61, 93
3, 4356, Note_off_c, 1, 61, 0
3, 4356, Note_on_c, 1, 86, 93
3, 4368, Note_off_c, 1, 86, 0
3, 4368, Note_on_c, 1, 85, 93
3, 4404, Note_off_c, 1, 85, 0
3, 4404, Note_on_c, 1, 83, 93
3, 4416, Note_off_c, 1, 83, 0
3, 4416, Note_on_c, 1, 81, 93
3, 4446, Note_off_c, 1, 81, 0
3, 4446, Note_on_c, 1, 80, 93
3, 4452, Note_off_c, 1, 80, 0
3, 4452, Note_on_c, 1, 78, 93
3, 4458, Note_off_c, 1, 78, 0
3, 4458, Note_on_c, 1, 77, 93
3, 4464, Note_off_c, 1, 77, 0
3, 4464, Note_on_c, 1, 78, 93
3, 4500, Note_off_c, 1, 78, 0
3, 4500, Note_on_c, 1, 83, 93
3, 4512, Note_off_c, 1, 83, 0
3, 4512, Note_on_c, 1, 80, 93
3, 4584, Note_off_c, 1, 80, 0
3, 4584, Note_on_c, 1, 78, 93
3, 4608, Note_off_c, 1, 78, 0
3, 4608, Note_on_c, 1, 78, 93
3, 4680, Note_off_c, 1, 78, 0
3, 4680, Note_on_c, 1, 76, 93
3, 4692, Note_off_c, 1, 76, 0
3, 4692, Note_on_c, 1, 74, 93
3, 4704, Note_off_c, 1, 74, 0
3, 4704, Note_on_c, 1, 76, 93
3, 4722, Note_off_c, 1, 76, 0
3, 4722, Note_on_c, 1, 74, 93
3, 4734, Note_off_c, 1, 74, 0
3, 4734, Note_on_c, 1, 73, 93
3, 4752, Note_off_c, 1, 73, 0
3, 4752, Note_on_c, 1, 74, 93
3, 4770, Note_off_c, 1, 74, 0
3, 4770, Note_on_c, 1, 71, 93
3, 4782, Note_off_c, 1, 71, 0
3, 4782, Note_on_c, 1, 65, 93
3, 4800, Note_off_c, 1, 65, 0
3, 4800, Note_on_c, 1, 66, 93
3, 4818, Note_off_c, 1, 66, 0
3, 4818, Note_on_c, 1, 70, 93
3, 4830, Note_off_c, 1, 70, 0
3, 4830, Note_on_c, 1, 73, 93
3, 4848, Note_off_c, 1, 73, 0
3, 4848, Note_on_c, 1, 78, 93
3, 4932, Note_off_c, 1, 78, 0
3, 4932, Note_on_c, 1, 64, 93
3, 4944, Note_off_c, 1, 64, 0
3, 4944, Note_on_c, 1, 62, 93
3, 4980, Note_off_c, 1, 62, 0
3, 4980, Note_on_c, 1, 61, 93
3, 4992, Note_off_c, 1, 61, 0
3, 4992, Note_on_c, 1, 74, 93
3, 5064, Note_off_c, 1, 74, 0
3, 5088, Note_on_c, 1, 76, 93
3, 5160, Note_off_c, 1, 76, 0
3, 5184, Note_on_c, 1, 76, 93
3, 5256, Note_off_c, 1, 76, 0
3, 5256, Note_on_c, 1, 74, 93
3, 5268, Note_off_c, 1, 74, 0
3, 5268, Note_on_c, 1, 73, 93
3, 5280, Note_off_c, 1, 73, 0
3, 5280, Note_on_c, 1, 74, 93
3, 5316, Note_off_c, 1, 74, 0
3, 5316, Note_on_c, 1, 59, 93
3, 5328, Note_off_c, 1, 59, 0
3, 5328, Note_on_c, 1, 57, 93
3, 5364, Note_off_c, 1, 57, 0
3, 5364, Note_on_c, 1, 78, 93
3, 5376, Note_off_c, 1, 78, 0
3, 5376, Note_on_c, 1, 78, 93
3, 5448, Note_off_c, 1, 78, 0
3, 5448, Note_on_c, 1, 79, 93
3, 5460, Note_off_c, 1, 79, 0
3, 5460, Note_on_c, 1, 78, 93
3, 5472, Note_off_c, 1, 78, 0
3, 5472, Note_on_c, 1, 76, 93
3, 5508, Note_off_c, 1, 76, 0
3, 5508, Note_on_c, 1, 74, 93
3, 5520, Note_off_c, 1, 74, 0
3, 5520, Note_on_c, 1, 73, 93
3, 5556, Note_off_c, 1, 73, 0
3, 5556, Note_on_c, 1, 71, 93
3, 5568, Note_off_c, 1, 71, 0
3, 5568, Note_on_c, 1, 70, 93
3, 5604, Note_off_c, 1, 70, 0
3, 5604, Note_on_c, 1, 67, 93
3, 5616, Note_off_c, 1, 67, 0
3, 5616, Note_on_c, 1, 66, 93
3, 5652, Note_off_c, 1, 66, 0
3, 5652, Note_on_c, 1, 64, 93
3, 5664, Note_off_c, 1, 64, 0
3, 5664, Note_on_c, 1, 62, 93
3, 5700, Note_off_c, 1, 62, 0
3, 5700, Note_on_c, 1, 71, 93
3, 5712, Note_off_c, 1, 71, 0
3, 5712, Note_on_c, 1, 61, 93
3, 5748, Note_off_c, 1, 61, 0
3, 5748, Note_on_c, 1, 73, 93
3, 5760, Note_off_c, 1, 73, 0
3, 5760, Note_on_c, 1, 74, 93
3, 5796, Note_off_c, 1, 74, 0
3, 5796, Note_on_c, 1, 59, 93
3, 5802, Note_off_c, 1, 59, 0
3, 5802, Note_on_c, 1, 61, 93
3, 5808, Note_off_c, 1, 61, 0
3, 5808, Note_on_c, 1, 62, 93
3, 5844, Note_off_c, 1, 62, 0
3, 5844, Note_on_c, 1, 64, 93
3, 5856, Note_off_c, 1, 64, 0
3, 5856, Note_on_c, 1, 66, 93
3, 5880, Note_off_c, 1, 66, 0
3, 5880, Note_on_c, 1, 62, 93
3, 5892, Note_off_c, 1, 62, 0
3, 5892, Note_on_c, 1, 64, 93
3, 5904, Note_off_c, 1, 64, 0
3, 5904, Note_on_c, 1, 66, 93
3, 5928, Note_off_c, 1, 66, 0
3, 5928, Note_on_c, 1, 69, 93
3, 5940, Note_off_c, 1, 69, 0
3, 5940, Note_on_c, 1, 67, 93
3, 5952, Note_off_c, 1, 67, 0
3, 5952, Note_on_c, 1, 69, 93
3, 6024, Note_off_c, 1, 69, 0
3, 6024, Note_on_c, 1, 69, 93
3, 6048, Note_off_c, 1, 69, 0
3, 6048, Note_on_c, 1, 74, 93
3, 6072, Note_off_c, 1, 74, 0
3, 6072, Note_on_c, 1, 78, 93
3, 6084, Note_off_c, 1, 78, 0
3, 6084, Note_on_c, 1, 76, 93
3, 6096, Note_off_c, 1, 76, 0
3, 6096, Note_on_c, 1, 78, 93
3, 6132, Note_off_c, 1, 78, 0
3, 6132, Note_on_c, 1, 69, 93
3, 6144, Note_off_c, 1, 69, 0
3, 6144, Note_on_c, 1, 71, 93
3, 6168, Note_off_c, 1, 71, 0
3, 6228, Note_on_c, 1, 74, 93
3, 6240, Note_off_c, 1, 74, 0
3, 6240, Note_on_c, 1, 79, 93
3, 6276, Note_off_c, 1, 79, 0
3, 6336, Note_on_c, 1, 79, 93
3, 6372, Note_off_c, 1, 79, 0
3, 6372, Note_on_c, 1, 78, 93
3, 6378, Note_off_c, 1, 78, 0
3, 6378, Note_on_c, 1, 76, 93
3, 6384, Note_off_c, 1, 76, 0
3, 6384, Note_on_c, 1, 81, 93
3, 6420, Note_off_c, 1, 81, 0
3, 6420, Note_on_c, 1, 79, 93
3, 6432, Note_off_c, 1, 79, 0
3, 6432, Note_on_c, 1, 78, 93
3, 6468, Note_off_c, 1, 78, 0
3, 6468, Note_on_c, 1, 62, 93
3, 6480, Note_off_c, 1, 62, 0
3, 6480, Note_on_c, 1, 67, 93
3, 6516, Note_off_c, 1, 67, 0
3, 6516, Note_on_c, 1, 76, 93
3, 6528, Note_off_c, 1, 76, 0
3, 6528, Note_on_c, 1, 74, 93
3, 6540, Note_off_c, 1, 74, 0
3, 6540, Note_on_c, 1, 73, 93
3, 6576, Note_off_c, 1, 73, 0
3, 6576, Note_on_c, 1, 71, 93
3, 6588, Note_off_c, 1, 71, 0
3, 6588, Note_on_c, 1, 69, 93
3, 6624, Note_off_c, 1, 69, 0
3, 6624, Note_on_c, 1, 81, 93
3, 6660, Note_off_c, 1, 81, 0
3, 6660, Note_on_c, 1, 67, 93
3, 6672, Note_off_c, 1, 67, 0
3, 6672, Note_on_c, 1, 66, 93
3, 6708, Note_off_c, 1, 66, 0
3, 6708, Note_on_c, 1, 67, 93
3, 6714, Note_off_c, 1, 67, 0
3, 6714, Note_on_c, 1, 64, 93
3, 6720, Note_off_c, 1, 64, 0
3, 6720, Note_on_c, 1, 63, 93
3, 6756, Note_off_c, 1, 63, 0
3, 7488, Note_on_c, 1, 76, 93
3, 7524, Note_off_c, 1, 76, 0
3, 7524, Note_on_c, 1, 78, 93
3, 7530, Note_off_c, 1, 78, 0
3, 7530, Note_on_c, 1, 79, 93
3, 7536, Note_off_c, 1, 79, 0
3, 7536, Note_on_c, 1, 78, 93
3, 7572, Note_off_c, 1, 78, 0
3, 7572, Note_on_c, 1, 76, 93
3, 7584, Note_off_c, 1, 76, 0
3, 7584, Note_on_c, 1, 76, 93
3, 7632, Note_off_c, 1, 76, 0
3, 7632, Note_on_c, 1, 74, 93
3, 7644, Note_off_c, 1, 74, 0
3, 7644, Note_on_c, 1, 73, 93
3, 7656, Note_off_c, 1, 73, 0
3, 7656, Note_on_c, 1, 74, 93
3, 7680, Note_off_c, 1, 74, 0
3, 7680, Note_on_c, 1, 73, 93
3, 7752, Note_off_c, 1, 73, 0
3, 7752, Note_on_c, 1, 66, 93
3, 7764, Note_off_c, 1, 66, 0
3, 7764, Note_on_c, 1, 68, 93
3, 7776, Note_off_c, 1, 68, 0
3, 7776, Note_on_c, 1, 70, 93
3, 7794, Note_off_c, 1, 70, 0
3, 7794, Note_on_c, 1, 71, 93
3, 7806, Note_off_c, 1, 71, 0
3, 7806, Note_on_c, 1, 73, 93
3, 7824, Note_off_c, 1, 73, 0
3, 7824, Note_on_c, 1, 74, 93
3, 7842, Note_off_c, 1, 74, 0
3, 7842, Note_on_c, 1, 76, 93
3, 7854, Note_off_c, 1, 76, 0
3, 7854, Note_on_c, 1, 78, 93
3, 7872, Note_off_c, 1, 78, 0
3, 7872, Note_on_c, 1, 79, 93
3, 7890, Note_off_c, 1, 79, 0
3, 7890, Note_on_c, 1, 78, 93
3, 7902, Note_off_c, 1, 78, 0
3, 7902, Note_on_c, 1, 76, 93
3, 7920, Note_off_c, 1, 76, 0
3, 7920, Note_on_c, 1, 82, 93
3, 7938, Note_off_c, 1, 82, 0
3, 7938, Note_on_c, 1, 83, 93
3, 7950, Note_off_c, 1, 83, 0
3, 7950, Note_on_c, 1, 85, 93
3, 7968, Note_off_c, 1, 85, 0
3, 7968, Note_on_c, 1, 78, 93
3, 8004, Note_off_c, 1, 78, 0
3, 8004, Note_on_c, 1, 71, 93
3, 8016, Note_off_c, 1, 71, 0
3, 8016, Note_on_c, 1, 70, 93
3, 8052, Note_off_c, 1, 70, 0
3, 8052, Note_on_c, 1, 76, 93
3, 8064, Note_off_c, 1, 76, 0
3, 8064, Note_on_c, 1, 59, 93
3, 8082, Note_off_c, 1, 59, 0
3, 8082, Note_on_c, 1, 64, 93
3, 8094, Note_off_c, 1, 64, 0
3, 8094, Note_on_c, 1, 67, 93
3, 8112, Note_off_c, 1, 67, 0
3, 8112, Note_on_c, 1, 70, 93
3, 8130, Note_off_c, 1, 70, 0
3, 8130, Note_on_c, 1, 73, 93
3, 8142, Note_off_c, 1, 73, 0
3, 8142, Note_on_c, 1, 76, 93
3, 8160, Note_off_c, 1, 76, 0
3, 8160, Note_on_c, 1, 74, 93
3, 8178, Note_off_c, 1, 74, 0
3, 8178, Note_on_c, 1, 73, 93
3, 8190, Note_off_c, 1, 73, 0
3, 8190, Note_on_c, 1, 71, 93
3, 8208, Note_off_c, 1, 71, 0
3, 8208, Note_on_c, 1, 80, 93
3, 8244, Note_off_c, 1, 80, 0
3, 8244, Note_on_c, 1, 80, 93
3, 8256, Note_off_c, 1, 80, 0
3, 8256, Note_on_c, 1, 80, 93
3, 8328, Note_off_c, 1, 80, 0
3, 8328, Note_on_c, 1, 81, 93
3, 8340, Note_off_c, 1, 81, 0
3, 8340, Note_on_c, 1, 83, 93
3, 8352, Note_off_c, 1, 83, 0
3, 8352, Note_on_c, 1, 83, 93
3, 8388, Note_off_c, 1, 83, 0
3, 8388, Note_on_c, 1, 80, 93
3, 8400, Note_off_c, 1, 80, 0
3, 8400, Note_on_c, 1, 81, 93
3, 8436, Note_off_c, 1, 81, 0
3, 8436, Note_on_c, 1, 78, 93
3, 8448, Note_off_c, 1, 78, 0
3, 8448, Note_on_c, 1, 80, 93
3, 8484, Note_off_c, 1, 80, 0
3, 8484, Note_on_c, 1, 77, 93
3, 8490, Note_off_c, 1, 77, 0
3, 8490, Note_on_c, 1, 73, 93
3, 8496, Note_off_c, 1, 73, 0
3, 8496, Note_on_c, 1, 85, 93
3, 8532, Note_off_c, 1, 85, 0
3, 8532, Note_on_c, 1, 85, 93
3, 8544, Note_off_c, 1, 85, 0
3, 8544, Note_on_c, 1, 85, 93
3, 8580, Note_off_c, 1, 85, 0
3, 8580, Note_on_c, 1, 76, 93
3, 8592, Note_off_c, 1, 76, 0
3, 8592, Note_on_c, 1, 70, 93
3, 8628, Note_off_c, 1, 70, 0
3, 8628, Note_on_c, 1, 76, 93
3, 8640, Note_off_c, 1, 76, 0
3, 8640, Note_on_c, 1, 59, 93
3, 8676, Note_off_c, 1, 59, 0
3, 8676, Note_on_c, 1, 76, 93
3, 8688, Note_off_c, 1, 76, 0
3, 8688, Note_on_c, 1, 74, 93
3, 8724, Note_off_c, 1, 74, 0
3, 8724, Note_on_c, 1, 78, 93
3, 8736, Note_off_c, 1, 78, 0
3, 8736, Note_on_c, 1, 83, 93
3, 8754, Note_off_c, 1, 83, 0
3, 8754, Note_on_c, 1, 85, 93
3, 8766, Note_off_c, 1, 85, 0
3, 8766, Note_on_c, 1, 82, 93
3, 8784, Note_off_c, 1, 82, 0
3, 8784, Note_on_c, 1, 83, 93
3, 8802, Note_off_c, 1, 83, 0
3, 8802, Note_on_c, 1, 86, 93
3, 8814, Note_off_c, 1, 86, 0
3, 8814, Note_on_c, 1, 85, 93
3, 8832, Note_off_c, 1, 85, 0
3, 8832, Note_on_c, 1, 86, 93
3, 8868, Note_off_c, 1, 86, 0
3, 8868, Note_on_c, 1, 77, 93
3, 8880, Note_off_c, 1, 77, 0
3, 8880, Note_on_c, 1, 68, 93
3, 8916, Note_off_c, 1, 68, 0
3, 8916, Note_on_c, 1, 77, 93
3, 8928, Note_off_c, 1, 77, 0
3, 8928, Note_on_c, 1, 61, 93
3, 8964, Note_off_c, 1, 61, 0
3, 8964, Note_on_c, 1, 86, 93
3, 8976, Note_off_c, 1, 86, 0
3, 8976, Note_on_c, 1, 85, 93
3, 9012, Note_off_c, 1, 85, 0
3, 9012, Note_on_c, 1, 83, 93
3, 9024, Note_off_c, 1, 83, 0
3, 9024, Note_on_c, 1, 81, 93
3, 9054, Note_off_c, 1, 81, 0
3, 9054, Note_on_c, 1, 80, 93
3, 9060, Note_off_c, 1, 80, 0
3, 9060, Note_on_c, 1, 78, 93
3, 9066, Note_off_c, 1, 78, 0
3, 9066, Note_on_c, 1, 77, 93
3, 9072, Note_off_c, 1, 77, 0
3, 9072, Note_on_c, 1, 78, 93
3, 9108, Note_off_c, 1, 78, 0
3, 9108, Note_on_c, 1, 83, 93
3, 9120, Note_off_c, 1, 83, 0
3, 9120, Note_on_c, 1, 80, 93
3, 9192, Note_off_c, 1, 80, 0
3, 9192, Note_on_c, 1, 78, 93
3, 9216, Note_off_c, 1, 78, 0
3, 9216, Note_on_c, 1, 78, 93
3, 9288, Note_off_c, 1, 78, 0
3, 9288, Note_on_c, 1, 76, 93
3, 9300, Note_off_c, 1, 76, 0
3, 9300, Note_on_c, 1, 74, 93
3, 9312, Note_off_c, 1, 74, 0
3, 9312, Note_on_c, 1, 76, 93
3, 9330, Note_off_c, 1, 76, 0
3, 9330, Note_on_c, 1, 74, 93
3, 9342, Note_off_c, 1, 74, 0
3, 9342, Note_on_c, 1, 73, 93
3, 9360, Note_off_c, 1, 73, 0
3, 9360, Note_on_c, 1, 74, 93
3, 9378, Note_off_c, 1, 74, 0
3, 9378, Note_on_c, 1, 71, 93
3, 9390, Note_off_c, 1, 71, 0
3, 9390, Note_on_c, 1, 65, 93
3, 9408, Note_off_c, 1, 65, 0
3, 9408, Note_on_c, 1, 66, 93
3, 9426, Note_off_c, 1, 66, 0
3, 9426, Note_on_c, 1, 70, 93
3, 9438, Note_off_c, 1, 70, 0
3, 9438, Note_on_c, 1, 73, 93
3, 9456, Note_off_c, 1, 73, 0
3, 9456, Note_on_c, 1, 78, 93
3, 9576, Note_off_c, 1, 78, 0
3, 9576, Note_on_c, 1, 73, 93
3, 9600, Note_off_c, 1, 73, 0
3, 9600, Note_on_c, 1, 73, 93
3, 9636, Note_off_c, 1, 73, 0
3, 9636, Note_on_c, 1, 74, 93
3, 9642, Note_off_c, 1, 74, 0
3, 9642, Note_on_c, 1, 76, 93
3, 9648, Note_off_c, 1, 76, 0
3, 9648, Note_on_c, 1, 74, 93
3, 9684, Note_off_c, 1, 74, 0
3, 9684, Note_on_c, 1, 71, 93
3, 9696, Note_off_c, 1, 71, 0
3, 9696, Note_on_c, 1, 70, 93
3, 9732, Note_off_c, 1, 70, 0
3, 9732, Note_on_c, 1, 66, 93
3, 9744, Note_off_c, 1, 66, 0
3, 9744, Note_on_c, 1, 64, 93
3, 9780, Note_off_c, 1, 64, 0
3, 9780, Note_on_c, 1, 62, 93
3, 9786, Note_off_c, 1, 62, 0
3, 9786, Note_on_c, 1, 64, 93
3, 9792, Note_off_c, 1, 64, 0
3, 9792, Note_on_c, 1, 62, 93
3, 9810, Note_off_c, 1, 62, 0
3, 9810, Note_on_c, 1, 66, 93
3, 9822, Note_off_c, 1, 66, 0
3, 9822, Note_on_c, 1, 71, 93
3, 9840, Note_off_c, 1, 71, 0
3, 9840, Note_on_c, 1, 62, 93
3, 9858, Note_off_c, 1, 62, 0
3, 9858, Note_on_c, 1, 61, 93
3, 9870, Note_off_c, 1, 61, 0
3, 9870, Note_on_c, 1, 59, 93
3, 9888, Note_off_c, 1, 59, 0
3, 9888, Note_on_c, 1, 58, 93
3, 9924, Note_off_c, 1, 58, 0
3, 9924, Note_on_c, 1, 73, 93
3, 9936, Note_off_c, 1, 73, 0
3, 9936, Note_on_c, 1, 66, 93
3, 9972, Note_off_c, 1, 66, 0
3, 9972, Note_on_c, 1, 64, 93
3, 9984, Note_off_c, 1, 64, 0
3, 9984, Note_on_c, 1, 62, 93
3, 10020, Note_off_c, 1, 62, 0
3, 10020, Note_on_c, 1, 59, 93
3, 10026, Note_off_c, 1, 59, 0
3, 10026, Note_on_c, 1, 61, 93
3, 10032, Note_off_c, 1, 61, 0
3, 10032, Note_on_c, 1, 62, 93
3, 10068, Note_off_c, 1, 62, 0
3, 10068, Note_on_c, 1, 64, 93
3, 10080, Note_off_c, 1, 64, 0
3, 10080, Note_on_c, 1, 66, 93
3, 10098, Note_off_c, 1, 66, 0
3, 10098, Note_on_c, 1, 67, 93
3, 10110, Note_off_c, 1, 67, 0
3, 10110, Note_on_c, 1, 69, 93
3, 10128, Note_off_c, 1, 69, 0
3, 10128, Note_on_c, 1, 71, 93
3, 10146, Note_off_c, 1, 71, 0
3, 10146, Note_on_c, 1, 72, 93
3, 10158, Note_off_c, 1, 72, 0
3, 10158, Note_on_c, 1, 69, 93
3, 10176, Note_off_c, 1, 69, 0
3, 10176, Note_on_c, 1, 63, 93
3, 10248, Note_off_c, 1, 63, 0
3, 10248, Note_on_c, 1, 66, 93
3, 10272, Note_off_c, 1, 66, 0
3, 10272, Note_on_c, 1, 71, 93
3, 10308, Note_off_c, 1, 71, 0
3, 10308, Note_on_c, 1, 71, 93
3, 10320, Note_off_c, 1, 71, 0
3, 10320, Note_on_c, 1, 73, 93
3, 10356, Note_off_c, 1, 73, 0
3, 10356, Note_on_c, 1, 75, 93
3, 10368, Note_off_c, 1, 75, 0
3, 10368, Note_on_c, 1, 76, 93
3, 10404, Note_off_c, 1, 76, 0
3, 10404, Note_on_c, 1, 79, 93
3, 10410, Note_off_c, 1, 79, 0
3, 10410, Note_on_c, 1, 78, 93
3, 10416, Note_off_c, 1, 78, 0
3, 10416, Note_on_c, 1, 79, 93
3, 10452, Note_off_c, 1, 79, 0
3, 10452, Note_on_c, 1, 71, 93
3, 10464, Note_off_c, 1, 71, 0
3, 10464, Note_on_c, 1, 72, 93
3, 10482, Note_off_c, 1, 72, 0
3, 10482, Note_on_c, 1, 71, 93
3, 10494, Note_off_c, 1, 71, 0
3, 10494, Note_on_c, 1, 69, 93
3, 10512, Note_off_c, 1, 69, 0
3, 10512, Note_on_c, 1, 79, 93
3, 10530, Note_off_c, 1, 79, 0
3, 10530, Note_on_c, 1, 78, 93
3, 10542, Note_off_c, 1, 78, 0
3, 10542, Note_on_c, 1, 76, 93
3, 10560, Note_off_c, 1, 76, 0
3, 10560, Note_on_c, 1, 76, 93
3, 10578, Note_off_c, 1, 76, 0
3, 10578, Note_on_c, 1, 75, 93
3, 10590, Note_off_c, 1, 75, 0
3, 10590, Note_on_c, 1, 73, 93
3, 10608, Note_off_c, 1, 73, 0
3, 10608, Note_on_c, 1, 75, 93
3, 10626, Note_off_c, 1, 75, 0
3, 10626, Note_on_c, 1, 73, 93
3, 10638, Note_off_c, 1, 73, 0
3, 10638, Note_on_c, 1, 71, 93
3, 10656, Note_off_c, 1, 71, 0
3, 10656, Note_on_c, 1, 83, 93
3, 10692, Note_off_c, 1, 83, 0
3, 10692, Note_on_c, 1, 71, 93
3, 10698, Note_off_c, 1, 71, 0
3, 10698, Note_on_c, 1, 72, 93
3, 10704, Note_off_c, 1, 72, 0
3, 10704, Note_on_c, 1, 74, 93
3, 10716, Note_off_c, 1, 74, 0
3, 10716, Note_on_c, 1, 76, 93
3, 10728, Note_off_c, 1, 76, 0
3, 10728, Note_on_c, 1, 77, 93
3, 10752, Note_off_c, 1, 77, 0
3, 10752, Note_on_c, 1, 68, 93
3, 10776, Note_off_c, 1, 68, 0
3, 10776, Note_on_c, 1, 76, 93
3, 10800, Note_off_c, 1, 76, 0
3, 10800, Note_on_c, 1, 83, 93
3, 10824, Note_off_c, 1, 83, 0
3, 10824, Note_on_c, 1, 84, 93
3, 10836, Note_off_c, 1, 84, 0
3, 10836, Note_on_c, 1, 86, 93
3, 10848, Note_off_c, 1, 86, 0
3, 10848, Note_on_c, 1, 86, 93
3, 10884, Note_off_c, 1, 86, 0
3, 10884, Note_on_c, 1, 84, 93
3, 10896, Note_off_c, 1, 84, 0
3, 10896, Note_on_c, 1, 86, 93
3, 10932, Note_off_c, 1, 86, 0
3, 10932, Note_on_c, 1, 83, 93
3, 10944, Note_off_c, 1, 83, 0
3, 10944, Note_on_c, 1, 84, 93
3, 11016, Note_off_c, 1, 84, 0
3, 11520, Note_on_c, 1, 72, 93
3, 11556, Note_off_c, 1, 72, 0
3, 12864, Note_on_c, 1, 66, 93
3, 12900, Note_off_c, 1, 66, 0
3, 13248, Note_on_c, 1, 71, 93
3, 13284, Note_off_c, 1, 71, 0
3, 13716, Note_on_c, 1, 64, 93
3, 13728, Note_off_c, 1, 64, 0
3, 13728, Note_on_c, 1, 66, 93
3, 13824, Note_off_c, 1, 66, 0
3, 13824, Note_on_c, 1, 59, 93
3, 13896, Note_off_c, 1, 59, 0
3, 14016, Note_on_c, 1, 59, 93
3, 14160, Note_off_c, 1, 59, 0
3, 14184, Note_on_c, 1, 73, 93
3, 14208, Note_off_c, 1, 73, 0
3, 14208, Note_on_c, 1, 73, 93
3, 14244, Note_off_c, 1, 73, 0
3, 14244, Note_on_c, 1, 74, 93
3, 14250, Note_off_c, 1, 74, 0
3, 14250, Note_on_c, 1, 76, 93
3, 14256, Note_off_c, 1, 76, 0
3, 14256, Note_on_c, 1, 74, 93
3, 14292, Note_off_c, 1, 74, 0
3, 14292, Note_on_c, 1, 71, 93
3, 14304, Note_off_c, 1, 71, 0
3, 14304, Note_on_c, 1, 70, 93
3, 14340, Note_off_c, 1, 70, 0
3, 14340, Note_on_c, 1, 66, 93
3, 14352, Note_off_c, 1, 66, 0
3, 14352, Note_on_c, 1, 64, 93
3, 14388, Note_off_c, 1, 64, 0
3, 14388, Note_on_c, 1, 62, 93
3, 14394, Note_off_c, 1, 62, 0
3, 14394, Note_on_c, 1, 64, 93
3, 14400, Note_off_c, 1, 64, 0
3, 14400, Note_on_c, 1, 62, 93
3, 14418, Note_off_c, 1, 62, 0
3, 14418, Note_on_c, 1, 66, 93
3, 14430, Note_off_c, 1, 66, 0
3, 14430, Note_on_c, 1, 71, 93
3, 14448, Note_off_c, 1, 71, 0
3, 14448, Note_on_c, 1, 62, 93
3, 14466, Note_off_c, 1, 62, 0
3, 14466, Note_on_c, 1, 61, 93
3, 14478, Note_off_c, 1, 61, 0
3, 14478, Note_on_c, 1, 59, 93
3, 14496, Note_off_c, 1, 59, 0
3, 14496, Note_on_c, 1, 58, 93
3, 14532, Note_off_c, 1, 58, 0
3, 14532, Note_on_c, 1, 73, 93
3, 14544, Note_off_c, 1, 73, 0
3, 14544, Note_on_c, 1, 66, 93
3, 14580, Note_off_c, 1, 66, 0
3, 14580, Note_on_c, 1, 64, 93
3, 14592, Note_off_c, 1, 64, 0
3, 14592, Note_on_c, 1, 62, 93
3, 14628, Note_off_c, 1, 62, 0
3, 14628, Note_on_c, 1, 59, 93
3, 14634, Note_off_c, 1, 59, 0
3, 14634, Note_on_c, 1, 61, 93
3, 14640, Note_off_c, 1, 61, 0
3, 14640, Note_on_c, 1, 62, 93
3, 14676, Note_off_c, 1, 62, 0
3, 14676, Note_on_c, 1, 64, 93
3, 14688, Note_off_c, 1, 64, 0
3, 14688, Note_on_c, 1, 66, 93
3, 14706, Note_off_c, 1, 66, 0
3, 14706, Note_on_c, 1, 67, 93
3, 14718, Note_off_c, 1, 67, 0
3, 14718, Note_on_c, 1, 69, 93
3, 14736, Note_off_c, 1, 69, 0
3, 14736, Note_on_c, 1, 71, 93
3, 14754, Note_off_c, 1, 71, 0
3, 14754, Note_on_c, 1, 72, 93
3, 14766, Note_off_c, 1, 72, 0
3, 14766, Note_on_c, 1, 69, 93
3, 14784, Note_off_c, 1, 69, 0
3, 14784, Note_on_c, 1, 63, 93
3, 14856, Note_off_c, 1, 63, 0
3, 14856, Note_on_c, 1, 66, 93
3, 14880, Note_off_c, 1, 66, 0
3, 14880, Note_on_c, 1, 71, 93
3, 14916, Note_off_c, 1, 71, 0
3, 14916, Note_on_c, 1, 71, 93
3, 14928, Note_off_c, 1, 71, 0
3, 14928, Note_on_c, 1, 73, 93
3, 14964, Note_off_c, 1, 73, 0
3, 14964, Note_on_c, 1, 75, 93
3, 14976, Note_off_c, 1, 75, 0
3, 14976, Note_on_c, 1, 76, 93
3, 15012, Note_off_c, 1, 76, 0
3, 15012, Note_on_c, 1, 79, 93
3, 15018, Note_off_c, 1, 79, 0
3, 15018, Note_on_c, 1, 78, 93
3, 15024, Note_off_c, 1, 78, 0
3, 15024, Note_on_c, 1, 79, 93
3, 15060, Note_off_c, 1, 79, 0
3, 15060, Note_on_c, 1, 71, 93
3, 15072, Note_off_c, 1, 71, 0
3, 15072, Note_on_c, 1, 72, 93
3, 15090, Note_off_c, 1, 72, 0
3, 15090, Note_on_c, 1, 71, 93
3, 15102, Note_off_c, 1, 71, 0
3, 15102, Note_on_c, 1, 69, 93
3, 15120, Note_off_c, 1, 69, 0
3, 15120, Note_on_c, 1, 79, 93
3, 15138, Note_off_c, 1, 79, 0
3, 15138, Note_on_c, 1, 78, 93
3, 15150, Note_off_c, 1, 78, 0
3, 15150, Note_on_c, 1, 76, 93
3, 15168, Note_off_c, 1, 76, 0
3, 15168, Note_on_c, 1, 76, 93
3, 15186, Note_off_c, 1, 76, 0
3, 15186, Note_on_c, 1, 75, 93
3, 15198, Note_off_c, 1, 75, 0
3, 15198, Note_on_c, 1, 73, 93
3, 15216, Note_off_c, 1, 73, 0
3, 15216, Note_on_c, 1, 75, 93
3, 15234, Note_off_c, 1, 75, 0
3, 15234, Note_on_c, 1, 73, 93
3, 15246, Note_off_c, 1, 73, 0
3, 15246, Note_on_c, 1, 71, 93
3, 15264, Note_off_c, 1, 71, 0
3, 15264, Note_on_c, 1, 83, 93
3, 15300, Note_off_c, 1, 83, 0
3, 15300, Note_on_c, 1, 71, 93
3, 15306, Note_off_c, 1, 71, 0
3, 15306, Note_on_c, 1, 72, 93
3, 15312, Note_off_c, 1, 72, 0
3, 15312, Note_on_c, 1, 74, 93
3, 15324, Note_off_c, 1, 74, 0
3, 15324, Note_on_c, 1, 76, 93
3, 15336, Note_off_c, 1, 76, 0
3, 15336, Note_on_c, 1, 77, 93
3, 15360, Note_off_c, 1, 77, 0
3, 15360, Note_on_c, 1, 68, 93
3, 15384, Note_off_c, 1, 68, 0
3, 15384, Note_on_c, 1, 76, 93
3, 15408, Note_off_c, 1, 76, 0
3, 15408, Note_on_c, 1, 83, 93
3, 15432, Note_off_c, 1, 83, 0
3, 15432, Note_on_c, 1, 84, 93
3, 15444, Note_off_c, 1, 84, 0
3, 15444, Note_on_c, 1, 86, 93
3, 15456, Note_off_c, 1, 86, 0
3, 15456, Note_on_c, 1, 86, 93
3, 15492, Note_off_c, 1, 86, 0
3, 15492, Note_on_c, 1, 84, 93
3, 15504, Note_off_c, 1, 84, 0
3, 15504, Note_on_c, 1, 86, 93
3, 15540, Note_off_c, 1, 86, 0
3, 15540, Note_on_c, 1, 83, 93
3, 15552, Note_off_c, 1, 83, 0
3, 15552, Note_on_c, 1, 84, 93
3, 15624, Note_off_c, 1, 84, 0
3, 16128, Note_on_c, 1, 72, 93
3, 16164, Note_off_c, 1, 72, 0
3, 17472, Note_on_c, 1, 66, 93
3, 17508, Note_off_c, 1, 66, 0
3, 17856, Note_on_c, 1, 71, 93
3, 17892, Note_off_c, 1, 71, 0
3, 18324, Note_on_c, 1, 64, 93
3, 18336, Note_off_c, 1, 64, 0
3, 18336, Note_on_c, 1, 66, 93
3, 18432, Note_off_c, 1, 66, 0
3, 18432, Note_on_c, 1, 59, 93
3, 18504, Note_off_c, 1, 59, 0
3, 18624, Note_on_c, 1, 59, 93
3, 18768, Note_off_c, 1, 59, 0
3, 18768, End_track
4, 0, Start_track
4, 0, Title_t, "Track4"
4, 0, Program_c, 2, 40
4, 0, Control_c, 2, 7, 100
4, 0, Control_c, 2, 10, 79
4, 384, Note_on_c, 2, 66, 93
4, 456, Note_off_c, 2, 66, 0
4, 576, Note_on_c, 2, 66, 93
4, 648, Note_off_c, 2, 66, 0
4, 768, Note_on_c, 2, 62, 93
4, 840, Note_off_c, 2, 62, 0
4, 1344, Note_on_c, 2, 66, 93
4, 1416, Note_off_c, 2, 66, 0
4, 1524, Note_on_c, 2, 62, 93
4, 1536, Note_off_c, 2, 62, 0
4, 1536, Note_on_c, 2, 67, 93
4, 1560, Note_off_c, 2, 67, 0
4, 1560, Note_on_c, 2, 71, 93
4, 1572, Note_off_c, 2, 71, 0
4, 1572, Note_on_c, 2, 69, 93
4, 1584, Note_off_c, 2, 69, 0
4, 1584, Note_on_c, 2, 67, 93
4, 1620, Note_off_c, 2, 67, 0
4, 1620, Note_on_c, 2, 66, 93
4, 1632, Note_off_c, 2, 66, 0
4, 1632, Note_on_c, 2, 64, 93
4, 1668, Note_off_c, 2, 64, 0
4, 1668, Note_on_c, 2, 64, 93
4, 1680, Note_off_c, 2, 64, 0
4, 1680, Note_on_c, 2, 66, 93
4, 1716, Note_off_c, 2, 66, 0
4, 1716, Note_on_c, 2, 67, 93
4, 1728, Note_off_c, 2, 67, 0
4, 1728, Note_on_c, 2, 61, 93
4, 1752, Note_off_c, 2, 61, 0
4, 2112, Note_on_c, 2, 71, 93
4, 2148, Note_off_c, 2, 71, 0
4, 2880, Note_on_c, 2, 66, 93
4, 2916, Note_off_c, 2, 66, 0
4, 2976, Note_on_c, 2, 66, 93
4, 3024, Note_off_c, 2, 66, 0
4, 3072, Note_on_c, 2, 66, 93
4, 3144, Note_off_c, 2, 66, 0
4, 3648, Note_on_c, 2, 65, 93
4, 3720, Note_off_c, 2, 65, 0
4, 3792, Note_on_c, 2, 66, 93
4, 3828, Note_off_c, 2, 66, 0
4, 3840, Note_on_c, 2, 65, 93
4, 3876, Note_off_c, 2, 65, 0
4, 4416, Note_on_c, 2, 66, 93
4, 4464, Note_off_c, 2, 66, 0
4, 4464, Note_on_c, 2, 69, 93
4, 4500, Note_off_c, 2, 69, 0
4, 4500, Note_on_c, 2, 71, 93
4, 4512, Note_off_c, 2, 71, 0
4, 4512, Note_on_c, 2, 73, 93
4, 4608, Note_off_c, 2, 73, 0
4, 4608, Note_on_c, 2, 66, 93
4, 4680, Note_off_c, 2, 66, 0
4, 4992, Note_on_c, 2, 66, 93
4, 5064, Note_off_c, 2, 66, 0
4, 5184, Note_on_c, 2, 66, 93
4, 5256, Note_off_c, 2, 66, 0
4, 5376, Note_on_c, 2, 62, 93
4, 5448, Note_off_c, 2, 62, 0
4, 5952, Note_on_c, 2, 66, 93
4, 6024, Note_off_c, 2, 66, 0
4, 6132, Note_on_c, 2, 62, 93
4, 6144, Note_off_c, 2, 62, 0
4, 6144, Note_on_c, 2, 67, 93
4, 6168, Note_off_c, 2, 67, 0
4, 6168, Note_on_c, 2, 71, 93
4, 6180, Note_off_c, 2, 71, 0
4, 6180, Note_on_c, 2, 69, 93
4, 6192, Note_off_c, 2, 69, 0
4, 6192, Note_on_c, 2, 67, 93
4, 6228, Note_off_c, 2, 67, 0
4, 6228, Note_on_c, 2, 66, 93
4, 6240, Note_off_c, 2, 66, 0
4, 6240, Note_on_c, 2, 64, 93
4, 6276, Note_off_c, 2, 64, 0
4, 6276, Note_on_c, 2, 64, 93
4, 6288, Note_off_c, 2, 64, 0
4, 6288, Note_on_c, 2, 66, 93
4, 6324, Note_off_c, 2, 66, 0
4, 6324, Note_on_c, 2, 67, 93
4, 6336, Note_off_c, 2, 67, 0
4, 6336, Note_on_c, 2, 61, 93
4, 6360, Note_off_c, 2, 61, 0
4, 6720, Note_on_c, 2, 71, 93
4, 6756, Note_off_c, 2, 71, 0
4, 7488, Note_on_c, 2, 66, 93
4, 7524, Note_off_c, 2, 66, 0
4, 7584, Note_on_c, 2, 66, 93
4, 7632, Note_off_c, 2, 66, 0
4, 7680, Note_on_c, 2, 66, 93
4, 7752, Note_off_c, 2, 66, 0
4, 8256, Note_on_c, 2, 65, 93
4, 8328, Note_off_c, 2, 65, 0
4, 8400, Note_on_c, 2, 66, 93
4, 8436, Note_off_c, 2, 66, 0
4, 8448, Note_on_c, 2, 65, 93
4, 8484, Note_off_c, 2, 65, 0
4, 9024, Note_on_c, 2, 66, 93
4, 9072, Note_off_c, 2, 66, 0
4, 9072, Note_on_c, 2, 69, 93
4, 9108, Note_off_c, 2, 69, 0
4, 9108, Note_on_c, 2, 71, 93
4, 9120, Note_off_c, 2, 71, 0
4, 9120, Note_on_c, 2, 73, 93
4, 9216, Note_off_c, 2, 73, 0
4, 9216, Note_on_c, 2, 66, 93
4, 9288, Note_off_c, 2, 66, 0
4, 9600, Note_on_c, 2, 66, 93
4, 9672, Note_off_c, 2, 66, 0
4, 10368, Note_on_c, 2, 71, 93
4, 10404, Note_off_c, 2, 71, 0
4, 10944, Note_on_c, 2, 76, 93
4, 11016, Note_off_c, 2, 76, 0
4, 11136, Note_on_c, 2, 75, 93
4, 11172, Note_off_c, 2, 75, 0
4, 11520, Note_on_c, 2, 67, 93
4, 11556, Note_off_c, 2, 67, 0
4, 11712, Note_on_c, 2, 64, 93
4, 11736, Note_off_c, 2, 64, 0
4, 11808, Note_on_c, 2, 66, 93
4, 11856, Note_off_c, 2, 66, 0
4, 11904, Note_on_c, 2, 64, 93
4, 11976, Note_off_c, 2, 64, 0
4, 11976, Note_on_c, 2, 66, 93
4, 12000, Note_off_c, 2, 66, 0
4, 12000, Note_on_c, 2, 67, 93
4, 12018, Note_off_c, 2, 67, 0
4, 12018, Note_on_c, 2, 69, 93
4, 12030, Note_off_c, 2, 69, 0
4, 12030, Note_on_c, 2, 71, 93
4, 12048, Note_off_c, 2, 71, 0
4, 12048, Note_on_c, 2, 73, 93
4, 12066, Note_off_c, 2, 73, 0
4, 12066, Note_on_c, 2, 74, 93
4, 12078, Note_off_c, 2, 74, 0
4, 12078, Note_on_c, 2, 76, 93
4, 12096, Note_off_c, 2, 76, 0
4, 12096, Note_on_c, 2, 61, 93
4, 12132, Note_off_c, 2, 61, 0
4, 12132, Note_on_c, 2, 64, 93
4, 12144, Note_off_c, 2, 64, 0
4, 12144, Note_on_c, 2, 69, 93
4, 12180, Note_off_c, 2, 69, 0
4, 12180, Note_on_c, 2, 67, 93
4, 12192, Note_off_c, 2, 67, 0
4, 12192, Note_on_c, 2, 66, 93
4, 12228, Note_off_c, 2, 66, 0
4, 12228, Note_on_c, 2, 81, 93
4, 12240, Note_off_c, 2, 81, 0
4, 12240, Note_on_c, 2, 64, 93
4, 12276, Note_off_c, 2, 64, 0
4, 12276, Note_on_c, 2, 79, 93
4, 12288, Note_off_c, 2, 79, 0
4, 12288, Note_on_c, 2, 62, 93
4, 12306, Note_off_c, 2, 62, 0
4, 12306, Note_on_c, 2, 69, 93
4, 12318, Note_off_c, 2, 69, 0
4, 12318, Note_on_c, 2, 79, 93
4, 12336, Note_off_c, 2, 79, 0
4, 12336, Note_on_c, 2, 78, 93
4, 12354, Note_off_c, 2, 78, 0
4, 12354, Note_on_c, 2, 76, 93
4, 12366, Note_off_c, 2, 76, 0
4, 12366, Note_on_c, 2, 82, 93
4, 12384, Note_off_c, 2, 82, 0
4, 12384, Note_on_c, 2, 83, 93
4, 12402, Note_off_c, 2, 83, 0
4, 12402, Note_on_c, 2, 78, 93
4, 12414, Note_off_c, 2, 78, 0
4, 12414, Note_on_c, 2, 76, 93
4, 12432, Note_off_c, 2, 76, 0
4, 12432, Note_on_c, 2, 74, 93
4, 12450, Note_off_c, 2, 74, 0
4, 12450, Note_on_c, 2, 73, 93
4, 12462, Note_off_c, 2, 73, 0
4, 12462, Note_on_c, 2, 76, 93
4, 12480, Note_off_c, 2, 76, 0
4, 12480, Note_on_c, 2, 70, 93
4, 12498, Note_off_c, 2, 70, 0
4, 12498, Note_on_c, 2, 67, 93
4, 12510, Note_off_c, 2, 67, 0
4, 12510, Note_on_c, 2, 66, 93
4, 12528, Note_off_c, 2, 66, 0
4, 12528, Note_on_c, 2, 64, 93
4, 12546, Note_off_c, 2, 64, 0
4, 12546, Note_on_c, 2, 70, 93
4, 12558, Note_off_c, 2, 70, 0
4, 12558, Note_on_c, 2, 79, 93
4, 12576, Note_off_c, 2, 79, 0
4, 12576, Note_on_c, 2, 78, 93
4, 12612, Note_off_c, 2, 78, 0
4, 12612, Note_on_c, 2, 62, 93
4, 12624, Note_off_c, 2, 62, 0
4, 12624, Note_on_c, 2, 61, 93
4, 12660, Note_off_c, 2, 61, 0
4, 12660, Note_on_c, 2, 76, 93
4, 12672, Note_off_c, 2, 76, 0
4, 12672, Note_on_c, 2, 59, 93
4, 12702, Note_off_c, 2, 59, 0
4, 12702, Note_on_c, 2, 76, 93
4, 12708, Note_off_c, 2, 76, 0
4, 12708, Note_on_c, 2, 74, 93
4, 12714, Note_off_c, 2, 74, 0
4, 12714, Note_on_c, 2, 73, 93
4, 12720, Note_off_c, 2, 73, 0
4, 12720, Note_on_c, 2, 74, 93
4, 12756, Note_off_c, 2, 74, 0
4, 12756, Note_on_c, 2, 76, 93
4, 12768, Note_off_c, 2, 76, 0
4, 12768, Note_on_c, 2, 78, 93
4, 12786, Note_off_c, 2, 78, 0
4, 12786, Note_on_c, 2, 76, 93
4, 12798, Note_off_c, 2, 76, 0
4, 12798, Note_on_c, 2, 78, 93
4, 12816, Note_off_c, 2, 78, 0
4, 12816, Note_on_c, 2, 79, 93
4, 12834, Note_off_c, 2, 79, 0
4, 12834, Note_on_c, 2, 81, 93
4, 12846, Note_off_c, 2, 81, 0
4, 12846, Note_on_c, 2, 83, 93
4, 12864, Note_off_c, 2, 83, 0
4, 12864, Note_on_c, 2, 72, 93
4, 12900, Note_off_c, 2, 72, 0
4, 12900, Note_on_c, 2, 81, 93
4, 12906, Note_off_c, 2, 81, 0
4, 12906, Note_on_c, 2, 79, 93
4, 12912, Note_off_c, 2, 79, 0
4, 12912, Note_on_c, 2, 78, 93
4, 12930, Note_off_c, 2, 78, 0
4, 12930, Note_on_c, 2, 76, 93
4, 12942, Note_off_c, 2, 76, 0
4, 12942, Note_on_c, 2, 74, 93
4, 12960, Note_off_c, 2, 74, 0
4, 12960, Note_on_c, 2, 72, 93
4, 12978, Note_off_c, 2, 72, 0
4, 12978, Note_on_c, 2, 71, 93
4, 12990, Note_off_c, 2, 71, 0
4, 12990, Note_on_c, 2, 72, 93
4, 13008, Note_off_c, 2, 72, 0
4, 13008, Note_on_c, 2, 81, 93
4, 13044, Note_off_c, 2, 81, 0
4, 13044, Note_on_c, 2, 72, 93
4, 13056, Note_off_c, 2, 72, 0
4, 13056, Note_on_c, 2, 63, 93
4, 13074, Note_off_c, 2, 63, 0
4, 13074, Note_on_c, 2, 66, 93
4, 13086, Note_off_c, 2, 66, 0
4, 13086, Note_on_c, 2, 71, 93
4, 13104, Note_off_c, 2, 71, 0
4, 13104, Note_on_c, 2, 75, 93
4, 13122, Note_off_c, 2, 75, 0
4, 13122, Note_on_c, 2, 78, 93
4, 13134, Note_off_c, 2, 78, 0
4, 13134, Note_on_c, 2, 81, 93
4, 13152, Note_off_c, 2, 81, 0
4, 13152, Note_on_c, 2, 84, 93
4, 13170, Note_off_c, 2, 84, 0
4, 13170, Note_on_c, 2, 83, 93
4, 13182, Note_off_c, 2, 83, 0
4, 13182, Note_on_c, 2, 81, 93
4, 13200, Note_off_c, 2, 81, 0
4, 13200, Note_on_c, 2, 79, 93
4, 13218, Note_off_c, 2, 79, 0
4, 13218, Note_on_c, 2, 81, 93
4, 13230, Note_off_c, 2, 81, 0
4, 13230, Note_on_c, 2, 78, 93
4, 13248, Note_off_c, 2, 78, 0
4, 13248, Note_on_c, 2, 79, 93
4, 13284, Note_off_c, 2, 79, 0
4, 13284, Note_on_c, 2, 78, 93
4, 13296, Note_off_c, 2, 78, 0
4, 13296, Note_on_c, 2, 76, 93
4, 13332, Note_off_c, 2, 76, 0
4, 13332, Note_on_c, 2, 74, 93
4, 13344, Note_off_c, 2, 74, 0
4, 13344, Note_on_c, 2, 72, 93
4, 13362, Note_off_c, 2, 72, 0
4, 13362, Note_on_c, 2, 76, 93
4, 13374, Note_off_c, 2, 76, 0
4, 13374, Note_on_c, 2, 74, 93
4, 13392, Note_off_c, 2, 74, 0
4, 13392, Note_on_c, 2, 72, 93
4, 13410, Note_off_c, 2, 72, 0
4, 13410, Note_on_c, 2, 70, 93
4, 13422, Note_off_c, 2, 70, 0
4, 13422, Note_on_c, 2, 71, 93
4, 13440, Note_off_c, 2, 71, 0
4, 13440, Note_on_c, 2, 70, 93
4, 13458, Note_off_c, 2, 70, 0
4, 13458, Note_on_c, 2, 73, 93
4, 13470, Note_off_c, 2, 73, 0
4, 13470, Note_on_c, 2, 79, 93
4, 13488, Note_off_c, 2, 79, 0
4, 13488, Note_on_c, 2, 78, 93
4, 13506, Note_off_c, 2, 78, 0
4, 13506, Note_on_c, 2, 70, 93
4, 13518, Note_off_c, 2, 70, 0
4, 13518, Note_on_c, 2, 64, 93
4, 13536, Note_off_c, 2, 64, 0
4, 13536, Note_on_c, 2, 62, 93
4, 13572, Note_off_c, 2, 62, 0
4, 13572, Note_on_c, 2, 83, 93
4, 13578, Note_off_c, 2, 83, 0
4, 13578, Note_on_c, 2, 81, 93
4, 13584, Note_off_c, 2, 81, 0
4, 13584, Note_on_c, 2, 79, 93
4, 13620, Note_off_c, 2, 79, 0
4, 13620, Note_on_c, 2, 78, 93
4, 13632, Note_off_c, 2, 78, 0
4, 13632, Note_on_c, 2, 77, 93
4, 13650, Note_off_c, 2, 77, 0
4, 13650, Note_on_c, 2, 78, 93
4, 13662, Note_off_c, 2, 78, 0
4, 13662, Note_on_c, 2, 80, 93
4, 13680, Note_off_c, 2, 80, 0
4, 13680, Note_on_c, 2, 78, 93
4, 13716, Note_off_c, 2, 78, 0
4, 13716, Note_on_c, 2, 71, 93
4, 13728, Note_off_c, 2, 71, 0
4, 13728, Note_on_c, 2, 74, 93
4, 13776, Note_off_c, 2, 74, 0
4, 13776, Note_on_c, 2, 73, 93
4, 13788, Note_off_c, 2, 73, 0
4, 13788, Note_on_c, 2, 71, 93
4, 13800, Note_off_c, 2, 71, 0
4, 13800, Note_on_c, 2, 73, 93
4, 13824, Note_off_c, 2, 73, 0
4, 13824, Note_on_c, 2, 71, 93
4, 13896, Note_off_c, 2, 71, 0
4, 13896, Note_on_c, 2, 74, 93
4, 13908, Note_off_c, 2, 74, 0
4, 13908, Note_on_c, 2, 73, 93
4, 13920, Note_off_c, 2, 73, 0
4, 13920, Note_on_c, 2, 74, 93
4, 13938, Note_off_c, 2, 74, 0
4, 13938, Note_on_c, 2, 71, 93
4, 13950, Note_off_c, 2, 71, 0
4, 13950, Note_on_c, 2, 74, 93
4, 13968, Note_off_c, 2, 74, 0
4, 13968, Note_on_c, 2, 78, 93
4, 13986, Note_off_c, 2, 78, 0
4, 13986, Note_on_c, 2, 83, 93
4, 13998, Note_off_c, 2, 83, 0
4, 13998, Note_on_c, 2, 82, 93
4, 14016, Note_off_c, 2, 82, 0
4, 14016, Note_on_c, 2, 83, 93
4, 14160, Note_off_c, 2, 83, 0
4, 14208, Note_on_c, 2, 66, 93
4, 14280, Note_off_c, 2, 66, 0
4, 14976, Note_on_c, 2, 71, 93
4, 15012, Note_off_c, 2, 71, 0
4, 15552, Note_on_c, 2, 76, 93
4, 15624, Note_off_c, 2, 76, 0
4, 15744, Note_on_c, 2, 75, 93
4, 15780, Note_off_c, 2, 75, 0
4, 16128, Note_on_c, 2, 67, 93
4, 16164, Note_off_c, 2, 67, 0
4, 16320, Note_on_c, 2, 64, 93
4, 16344, Note_off_c, 2, 64, 0
4, 16416, Note_on_c, 2, 66, 93
4, 16464, Note_off_c, 2, 66, 0
4, 16512, Note_on_c, 2, 64, 93
4, 16584, Note_off_c, 2, 64, 0
4, 16584, Note_on_c, 2, 66, 93
4, 16608, Note_off_c, 2, 66, 0
4, 16608, Note_on_c, 2, 67, 93
4, 16626, Note_off_c, 2, 67, 0
4, 16626, Note_on_c, 2, 69, 93
4, 16638, Note_off_c, 2, 69, 0
4, 16638, Note_on_c, 2, 71, 93
4, 16656, Note_off_c, 2, 71, 0
4, 16656, Note_on_c, 2, 73, 93
4, 16674, Note_off_c, 2, 73, 0
4, 16674, Note_on_c, 2, 74, 93
4, 16686, Note_off_c, 2, 74, 0
4, 16686, Note_on_c, 2, 76, 93
4, 16704, Note_off_c, 2, 76, 0
4, 16704, Note_on_c, 2, 61, 93
4, 16740, Note_off_c, 2, 61, 0
4, 16740, Note_on_c, 2, 64, 93
4, 16752, Note_off_c, 2, 64, 0
4, 16752, Note_on_c, 2, 69, 93
4, 16788, Note_off_c, 2, 69, 0
4, 16788, Note_on_c, 2, 67, 93
4, 16800, Note_off_c, 2, 67, 0
4, 16800, Note_on_c, 2, 66, 93
4, 16836, Note_off_c, 2, 66, 0
4, 16836, Note_on_c, 2, 81, 93
4, 16848, Note_off_c, 2, 81, 0
4, 16848, Note_on_c, 2, 64, 93
4, 16884, Note_off_c, 2, 64, 0
4, 16884, Note_on_c, 2, 79, 93
4, 16896, Note_off_c, 2, 79, 0
4, 16896, Note_on_c, 2, 62, 93
4, 16914, Note_off_c, 2, 62, 0
4, 16914, Note_on_c, 2, 69, 93
4, 16926, Note_off_c, 2, 69, 0
4, 16926, Note_on_c, 2, 79, 93
4, 16944, Note_off_c, 2, 79, 0
4, 16944, Note_on_c, 2, 78, 93
4, 16962, Note_off_c, 2, 78, 0
4, 16962, Note_on_c, 2, 76, 93
4, 16974, Note_off_c, 2, 76, 0
4, 16974, Note_on_c, 2, 82, 93
4, 16992, Note_off_c, 2, 82, 0
4, 16992, Note_on_c, 2, 83, 93
4, 17010, Note_off_c, 2, 83, 0
4, 17010, Note_on_c, 2, 78, 93
4, 17022, Note_off_c, 2, 78, 0
4, 17022, Note_on_c, 2, 76, 93
4, 17040, Note_off_c, 2, 76, 0
4, 17040, Note_on_c, 2, 74, 93
4, 17058, Note_off_c, 2, 74, 0
4, 17058, Note_on_c, 2, 73, 93
4, 17070, Note_off_c, 2, 73, 0
4, 17070, Note_on_c, 2, 76, 93
4, 17088, Note_off_c, 2, 76, 0
4, 17088, Note_on_c, 2, 70, 93
4, 17106, Note_off_c, 2, 70, 0
4, 17106, Note_on_c, 2, 67, 93
4, 17118, Note_off_c, 2, 67, 0
4, 17118, Note_on_c, 2, 66, 93
4, 17136, Note_off_c, 2, 66, 0
4, 17136, Note_on_c, 2, 64, 93
4, 17154, Note_off_c, 2, 64, 0
4, 17154, Note_on_c, 2, 70, 93
4, 17166, Note_off_c, 2, 70, 0
4, 17166, Note_on_c, 2, 79, 93
4, 17184, Note_off_c, 2, 79, 0
4, 17184, Note_on_c, 2, 78, 93
4, 17220, Note_off_c, 2, 78, 0
4, 17220, Note_on_c, 2, 62, 93
4, 17232, Note_off_c, 2, 62, 0
4, 17232, Note_on_c, 2, 61, 93
4, 17268, Note_off_c, 2, 61, 0
4, 17268, Note_on_c, 2, 76, 93
4, 17280, Note_off_c, 2, 76, 0
4, 17280, Note_on_c, 2, 59, 93
4, 17310, Note_off_c, 2, 59, 0
4, 17310, Note_on_c, 2, 76, 93
4, 17316, Note_off_c, 2, 76, 0
4, 17316, Note_on_c, 2, 74, 93
4, 17322, Note_off_c, 2, 74, 0
4, 17322, Note_on_c, 2, 73, 93
4, 17328, Note_off_c, 2, 73, 0
4, 17328, Note_on_c, 2, 74, 93
4, 17364, Note_off_c, 2, 74, 0
4, 17364, Note_on_c, 2, 76, 93
4, 17376, Note_off_c, 2, 76, 0
4, 17376, Note_on_c, 2, 78, 93
4, 17394, Note_off_c, 2, 78, 0
4, 17394, Note_on_c, 2, 76, 93
4, 17406, Note_off_c, 2, 76, 0
4, 17406, Note_on_c, 2, 78, 93
4, 17424, Note_off_c, 2, 78, 0
4, 17424, Note_on_c, 2, 79, 93
4, 17442, Note_off_c, 2, 79, 0
4, 17442, Note_on_c, 2, 81, 93
4, 17454, Note_off_c, 2, 81, 0
4, 17454, Note_on_c, 2, 83, 93
4, 17472, Note_off_c, 2, 83, 0
4, 17472, Note_on_c, 2, 72, 93
4, 17508, Note_off_c, 2, 72, 0
4, 17508, Note_on_c, 2, 81, 93
4, 17514, Note_off_c, 2, 81, 0
4, 17514, Note_on_c, 2, 79, 93
4, 17520, Note_off_c, 2, 79, 0
4, 17520, Note_on_c, 2, 78, 93
4, 17538, Note_off_c, 2, 78, 0
4, 17538, Note_on_c, 2, 76, 93
4, 17550, Note_off_c, 2, 76, 0
4, 17550, Note_on_c, 2, 74, 93
4, 17568, Note_off_c, 2, 74, 0
4, 17568, Note_on_c, 2, 72, 93
4, 17586, Note_off_c, 2, 72, 0
4, 17586, Note_on_c, 2, 71, 93
4, 17598, Note_off_c, 2, 71, 0
4, 17598, Note_on_c, 2, 72, 93
4, 17616, Note_off_c, 2, 72, 0
4, 17616, Note_on_c, 2, 81, 93
4, 17652, Note_off_c, 2, 81, 0
4, 17652, Note_on_c, 2, 72, 93
4, 17664, Note_off_c, 2, 72, 0
4, 17664, Note_on_c, 2, 63, 93
4, 17682, Note_off_c, 2, 63, 0
4, 17682, Note_on_c, 2, 66, 93
4, 17694, Note_off_c, 2, 66, 0
4, 17694, Note_on_c, 2, 71, 93
4, 17712, Note_off_c, 2, 71, 0
4, 17712, Note_on_c, 2, 75, 93
4, 17730, Note_off_c, 2, 75, 0
4, 17730, Note_on_c, 2, 78, 93
4, 17742, Note_off_c, 2, 78, 0
4, 17742, Note_on_c, 2, 81, 93
4, 17760, Note_off_c, 2, 81, 0
4, 17760, Note_on_c, 2, 84, 93
4, 17778, Note_off_c, 2, 84, 0
4, 17778, Note_on_c, 2, 83, 93
4, 17790, Note_off_c, 2, 83, 0
4, 17790, Note_on_c, 2, 81, 93
4, 17808, Note_off_c, 2, 81, 0
4, 17808, Note_on_c, 2, 79, 93
4, 17826, Note_off_c, 2, 79, 0
4, 17826, Note_on_c, 2, 81, 93
4, 17838, Note_off_c, 2, 81, 0
4, 17838, Note_on_c, 2, 78, 93
4, 17856, Note_off_c, 2, 78, 0
4, 17856, Note_on_c, 2, 79, 93
4, 17892, Note_off_c, 2, 79, 0
4, 17892, Note_on_c, 2, 78, 93
4, 17904, Note_off_c, 2, 78, 0
4, 17904, Note_on_c, 2, 76, 93
4, 17940, Note_off_c, 2, 76, 0
4, 17940, Note_on_c, 2, 74, 93
4, 17952, Note_off_c, 2, 74, 0
4, 17952, Note_on_c, 2, 72, 93
4, 17970, Note_off_c, 2, 72, 0
4, 17970, Note_on_c, 2, 76, 93
4, 17982, Note_off_c, 2, 76, 0
4, 17982, Note_on_c, 2, 74, 93
4, 18000, Note_off_c, 2, 74, 0
4, 18000, Note_on_c, 2, 72, 93
4, 18018, Note_off_c, 2, 72, 0
4, 18018, Note_on_c, 2, 70, 93
4, 18030, Note_off_c, 2, 70, 0
4, 18030, Note_on_c, 2, 71, 93
4, 18048, Note_off_c, 2, 71, 0
4, 18048, Note_on_c, 2, 70, 93
4, 18066, Note_off_c, 2, 70, 0
4, 18066, Note_on_c, 2, 73, 93
4, 18078, Note_off_c, 2, 73, 0
4, 18078, Note_on_c, 2, 79, 93
4, 18096, Note_off_c, 2, 79, 0
4, 18096, Note_on_c, 2, 78, 93
4, 18114, Note_off_c, 2, 78, 0
4, 18114, Note_on_c, 2, 70, 93
4, 18126, Note_off_c, 2, 70, 0
4, 18126, Note_on_c, 2, 64, 93
4, 18144, Note_off_c, 2, 64, 0
4, 18144, Note_on_c, 2, 62, 93
4, 18180, Note_off_c, 2, 62, 0
4, 18180, Note_on_c, 2, 83, 93
4, 18186, Note_off_c, 2, 83, 0
4, 18186, Note_on_c, 2, 81, 93
4, 18192, Note_off_c, 2, 81, 0
4, 18192, Note_on_c, 2, 79, 93
4, 18228, Note_off_c, 2, 79, 0
4, 18228, Note_on_c, 2, 78, 93
4, 18240, Note_off_c, 2, 78, 0
4, 18240, Note_on_c, 2, 77, 93
4, 18258, Note_off_c, 2, 77, 0
4, 18258, Note_on_c, 2, 78, 93
4, 18270, Note_off_c, 2, 78, 0
4, 18270, Note_on_c, 2, 80, 93
4, 18288, Note_off_c, 2, 80, 0
4, 18288, Note_on_c, 2, 78, 93
4, 18324, Note_off_c, 2, 78, 0
4, 18324, Note_on_c, 2, 71, 93
4, 18336, Note_off_c, 2, 71, 0
4, 18336, Note_on_c, 2, 74, 93
4, 18384, Note_off_c, 2, 74, 0
4, 18384, Note_on_c, 2, 73, 93
4, 18396, Note_off_c, 2, 73, 0
4, 18396, Note_on_c, 2, 71, 93
4, 18408, Note_off_c, 2, 71, 0
4, 18408, Note_on_c, 2, 73, 93
4, 18432, Note_off_c, 2, 73, 0
4, 18432, Note_on_c, 2, 71, 93
4, 18504, Note_off_c, 2, 71, 0
4, 18504, Note_on_c, 2, 74, 93
4, 18516, Note_off_c, 2, 74, 0
4, 18516, Note_on_c, 2, 73, 93
4, 18528, Note_off_c, 2, 73, 0
4, 18528, Note_on_c, 2, 74, 93
4, 18546, Note_off_c, 2, 74, 0
4, 18546, Note_on_c, 2, 71, 93
4, 18558, Note_off_c, 2, 71, 0
4, 18558, Note_on_c, 2, 74, 93
4, 18576, Note_off_c, 2, 74, 0
4, 18576, Note_on_c, 2, 78, 93
4, 18594, Note_off_c, 2, 78, 0
4, 18594, Note_on_c, 2, 83, 93
4, 18606, Note_off_c, 2, 83, 0
4, 18606, Note_on_c, 2, 82, 93
4, 18624, Note_off_c, 2, 82, 0
4, 18624, Note_on_c, 2, 83, 93
4, 18768, Note_off_c, 2, 83, 0
4, 18768, End_track
5, 0, Start_track
5, 0, Title_t, "Track5"
5, 0, Program_c, 3, 40
5, 0, Control_c, 3, 7, 100
5, 0, Control_c, 3, 10, 49
5, 384, Note_on_c, 3, 59, 93
5, 456, Note_off_c, 3, 59, 0
5, 576, Note_on_c, 3, 58, 93
5, 648, Note_off_c, 3, 58, 0
5, 768, Note_on_c, 3, 55, 93
5, 840, Note_off_c, 3, 55, 0
5, 1728, Note_on_c, 3, 64, 93
5, 1752, Note_off_c, 3, 64, 0
5, 2880, Note_on_c, 3, 73, 93
5, 2916, Note_off_c, 3, 73, 0
5, 3840, Note_on_c, 3, 61, 93
5, 3876, Note_off_c, 3, 61, 0
5, 4992, Note_on_c, 3, 59, 93
5, 5064, Note_off_c, 3, 59, 0
5, 5184, Note_on_c, 3, 58, 93
5, 5256, Note_off_c, 3, 58, 0
5, 5376, Note_on_c, 3, 55, 93
5, 5448, Note_off_c, 3, 55, 0
5, 6336, Note_on_c, 3, 64, 93
5, 6360, Note_off_c, 3, 64, 0
5, 7488, Note_on_c, 3, 73, 93
5, 7524, Note_off_c, 3, 73, 0
5, 8448, Note_on_c, 3, 61, 93
5, 8484, Note_off_c, 3, 61, 0
5, 10368, Note_on_c, 3, 64, 93
5, 10404, Note_off_c, 3, 64, 0
5, 11520, Note_on_c, 3, 60, 93
5, 11556, Note_off_c, 3, 60, 0
5, 11712, Note_on_c, 3, 55, 93
5, 11736, Note_off_c, 3, 55, 0
5, 11808, Note_on_c, 3, 59, 93
5, 11856, Note_off_c, 3, 59, 0
5, 14016, Note_on_c, 3, 74, 93
5, 14160, Note_off_c, 3, 74, 0
5, 14976, Note_on_c, 3, 64, 93
5, 15012, Note_off_c, 3, 64, 0
5, 16128, Note_on_c, 3, 60, 93
5, 16164, Note_off_c, 3, 60, 0
5, 16320, Note_on_c, 3, 55, 93
5, 16344, Note_off_c, 3, 55, 0
5, 16416, Note_on_c, 3, 59, 93
5, 16464, Note_off_c, 3, 59, 0
5, 18624, Note_on_c, 3, 74, 93
5, 18768, Note_off_c, 3, 74, 0
5, 18768, End_track
0, 0, End_of_file
