0, 0, Header, 1, 5, 96
1, 0, Start_track
1, 0, Time_signature, 4, 2, 24, 8
1, 0, Title_t, "untitled"
1, 0, Title_t, "Track1"
1, 0, Tempo, 240000
1, 288, Tempo, 428571
1, 52224, Tempo, 869565
1, 52224, End_track
2, 0, Start_track
2, 0, Title_t, "Track2"
2, 0, Program_c, 0, 40
2, 0, Control_c, 0, 7, 100
2, 0, Control_c, 0, 10, 69
2, 288, Note_on_c, 0, 78, 93
2, 384, Note_off_c, 0, 78, 0
2, 384, Note_on_c, 0, 83, 93
2, 480, Note_off_c, 0, 83, 0
2, 480, Note_on_c, 0, 78, 93
2, 576, Note_off_c, 0, 78, 0
2, 576, Note_on_c, 0, 83, 93
2, 672, Note_off_c, 0, 83, 0
2, 672, Note_on_c, 0, 78, 93
2, 768, Note_off_c, 0, 78, 0
2, 768, Note_on_c, 0, 79, 93
2, 864, Note_off_c, 0, 79, 0
2, 864, Note_on_c, 0, 79, 93
2, 912, Note_off_c, 0, 79, 0
2, 912, Note_on_c, 0, 78, 93
2, 960, Note_off_c, 0, 78, 0
2, 960, Note_on_c, 0, 76, 93
2, 1056, Note_off_c, 0, 76, 0
2, 1056, Note_on_c, 0, 79, 93
2, 1152, Note_off_c, 0, 79, 0
2, 1152, Note_on_c, 0, 78, 93
2, 1248, Note_off_c, 0, 78, 0
2, 1248, Note_on_c, 0, 76, 93
2, 1344, Note_off_c, 0, 76, 0
2, 1344, Note_on_c, 0, 74, 93
2, 1440, Note_off_c, 0, 74, 0
2, 1440, Note_on_c, 0, 73, 93
2, 1536, Note_off_c, 0, 73, 0
2, 1536, Note_on_c, 0, 76, 93
2, 1584, Note_off_c, 0, 76, 0
2, 1584, Note_on_c, 0, 74, 93
2, 1632, Note_off_c, 0, 74, 0
2, 1632, Note_on_c, 0, 73, 93
2, 1680, Note_off_c, 0, 73, 0
2, 1680, Note_on_c, 0, 74, 93
2, 1728, Note_off_c, 0, 74, 0
2, 1728, Note_on_c, 0, 71, 93
2, 1824, Note_off_c, 0, 71, 0
2, 1824, Note_on_c, 0, 74, 93
2, 1872, Note_off_c, 0, 74, 0
2, 1872, Note_on_c, 0, 73, 93
2, 1920, Note_off_c, 0, 73, 0
2, 1920, Note_on_c, 0, 74, 93
2, 2016, Note_off_c, 0, 74, 0
2, 2016, Note_on_c, 0, 66, 93
2, 2112, Note_off_c, 0, 66, 0
2, 2112, Note_on_c, 0, 67, 93
2, 2208, Note_off_c, 0, 67, 0
2, 2208, Note_on_c, 0, 74, 93
2, 2304, Note_off_c, 0, 74, 0
2, 2304, Note_on_c, 0, 73, 93
2, 2400, Note_off_c, 0, 73, 0
2, 2400, Note_on_c, 0, 73, 93
2, 2448, Note_off_c, 0, 73, 0
2, 2448, Note_on_c, 0, 71, 93
2, 2496, Note_off_c, 0, 71, 0
2, 2496, Note_on_c, 0, 73, 93
2, 2592, Note_off_c, 0, 73, 0
2, 2592, Note_on_c, 0, 81, 93
2, 2640, Note_off_c, 0, 81, 0
2, 2640, Note_on_c, 0, 76, 93
2, 2688, Note_off_c, 0, 76, 0
2, 2688, Note_on_c, 0, 73, 93
2, 2784, Note_off_c, 0, 73, 0
2, 2784, Note_on_c, 0, 64, 93
2, 2880, Note_off_c, 0, 64, 0
2, 2880, Note_on_c, 0, 66, 93
2, 2976, Note_off_c, 0, 66, 0
2, 2976, Note_on_c, 0, 73, 93
2, 3072, Note_off_c, 0, 73, 0
2, 3072, Note_on_c, 0, 71, 93
2, 3168, Note_off_c, 0, 71, 0
2, 3168, Note_on_c, 0, 71, 93
2, 3216, Note_off_c, 0, 71, 0
2, 3216, Note_on_c, 0, 69, 93
2, 3264, Note_off_c, 0, 69, 0
2, 3264, Note_on_c, 0, 71, 93
2, 3360, Note_off_c, 0, 71, 0
2, 3360, Note_on_c, 0, 83, 93
2, 3408, Note_off_c, 0, 83, 0
2, 3408, Note_on_c, 0, 79, 93
2, 3456, Note_off_c, 0, 79, 0
2, 3456, Note_on_c, 0, 76, 93
2, 3552, Note_off_c, 0, 76, 0
2, 3552, Note_on_c, 0, 79, 93
2, 3600, Note_off_c, 0, 79, 0
2, 3600, Note_on_c, 0, 76, 93
2, 3648, Note_off_c, 0, 76, 0
2, 3648, Note_on_c, 0, 73, 93
2, 3744, Note_off_c, 0, 73, 0
2, 3744, Note_on_c, 0, 76, 93
2, 3792, Note_off_c, 0, 76, 0
2, 3792, Note_on_c, 0, 73, 93
2, 3840, Note_off_c, 0, 73, 0
2, 3840, Note_on_c, 0, 69, 93
2, 3936, Note_off_c, 0, 69, 0
2, 3936, Note_on_c, 0, 71, 93
2, 3984, Note_off_c, 0, 71, 0
2, 3984, Note_on_c, 0, 73, 93
2, 4032, Note_off_c, 0, 73, 0
2, 4032, Note_on_c, 0, 74, 93
2, 4080, Note_off_c, 0, 74, 0
2, 4080, Note_on_c, 0, 76, 93
2, 4128, Note_off_c, 0, 76, 0
2, 4128, Note_on_c, 0, 78, 93
2, 4176, Note_off_c, 0, 78, 0
2, 4176, Note_on_c, 0, 79, 93
2, 4224, Note_off_c, 0, 79, 0
2, 4224, Note_on_c, 0, 81, 93
2, 4320, Note_off_c, 0, 81, 0
2, 4320, Note_on_c, 0, 74, 93
2, 4416, Note_off_c, 0, 74, 0
2, 4416, Note_on_c, 0, 76, 93
2, 4512, Note_off_c, 0, 76, 0
2, 4512, Note_on_c, 0, 73, 93
2, 4608, Note_off_c, 0, 73, 0
2, 4608, Note_on_c, 0, 74, 93
2, 4656, Note_off_c, 0, 74, 0
2, 4656, Note_on_c, 0, 73, 93
2, 4704, Note_off_c, 0, 73, 0
2, 4704, Note_on_c, 0, 74, 93
2, 4800, Note_off_c, 0, 74, 0
2, 4800, Note_on_c, 0, 83, 93
2, 4896, Note_off_c, 0, 83, 0
2, 4896, Note_on_c, 0, 74, 93
2, 4992, Note_off_c, 0, 74, 0
2, 4992, Note_on_c, 0, 73, 93
2, 5040, Note_off_c, 0, 73, 0
2, 5040, Note_on_c, 0, 71, 93
2, 5088, Note_off_c, 0, 71, 0
2, 5088, Note_on_c, 0, 73, 93
2, 5184, Note_off_c, 0, 73, 0
2, 5184, Note_on_c, 0, 81, 93
2, 5280, Note_off_c, 0, 81, 0
2, 5280, Note_on_c, 0, 72, 93
2, 5376, Note_off_c, 0, 72, 0
2, 5376, Note_on_c, 0, 71, 93
2, 5472, Note_off_c, 0, 71, 0
2, 5472, Note_on_c, 0, 74, 93
2, 5568, Note_off_c, 0, 74, 0
2, 5568, Note_on_c, 0, 73, 93
2, 5616, Note_off_c, 0, 73, 0
2, 5616, Note_on_c, 0, 74, 93
2, 5664, Note_off_c, 0, 74, 0
2, 5664, Note_on_c, 0, 76, 93
2, 5760, Note_off_c, 0, 76, 0
2, 5760, Note_on_c, 0, 67, 93
2, 5856, Note_off_c, 0, 67, 0
2, 5856, Note_on_c, 0, 67, 93
2, 5904, Note_off_c, 0, 67, 0
2, 5904, Note_on_c, 0, 66, 93
2, 5952, Note_off_c, 0, 66, 0
2, 5952, Note_on_c, 0, 67, 93
2, 6048, Note_off_c, 0, 67, 0
2, 6048, Note_on_c, 0, 76, 93
2, 6096, Note_off_c, 0, 76, 0
2, 6096, Note_on_c, 0, 66, 93
2, 6144, Note_off_c, 0, 66, 0
2, 6144, Note_on_c, 0, 67, 93
2, 6240, Note_off_c, 0, 67, 0
2, 6240, Note_on_c, 0, 76, 93
2, 6288, Note_off_c, 0, 76, 0
2, 6288, Note_on_c, 0, 66, 93
2, 6336, Note_off_c, 0, 66, 0
2, 6336, Note_on_c, 0, 67, 93
2, 6432, Note_off_c, 0, 67, 0
2, 6432, Note_on_c, 0, 76, 93
2, 6480, Note_off_c, 0, 76, 0
2, 6480, Note_on_c, 0, 66, 93
2, 6528, Note_off_c, 0, 66, 0
2, 6528, Note_on_c, 0, 67, 93
2, 6624, Note_off_c, 0, 67, 0
2, 6624, Note_on_c, 0, 73, 93
2, 6720, Note_off_c, 0, 73, 0
2, 6720, Note_on_c, 0, 81, 93
2, 6960, Note_off_c, 0, 81, 0
2, 6960, Note_on_c, 0, 86, 93
2, 7008, Note_off_c, 0, 86, 0
2, 7008, Note_on_c, 0, 85, 93
2, 7056, Note_off_c, 0, 85, 0
2, 7056, Note_on_c, 0, 83, 93
2, 7104, Note_off_c, 0, 83, 0
2, 7104, Note_on_c, 0, 81, 93
2, 7152, Note_off_c, 0, 81, 0
2, 7152, Note_on_c, 0, 79, 93
2, 7200, Note_off_c, 0, 79, 0
2, 7200, Note_on_c, 0, 83, 93
2, 7248, Note_off_c, 0, 83, 0
2, 7248, Note_on_c, 0, 81, 93
2, 7296, Note_off_c, 0, 81, 0
2, 7296, Note_on_c, 0, 79, 93
2, 7344, Note_off_c, 0, 79, 0
2, 7344, Note_on_c, 0, 78, 93
2, 7392, Note_off_c, 0, 78, 0
2, 7392, Note_on_c, 0, 76, 93
2, 7440, Note_off_c, 0, 76, 0
2, 7440, Note_on_c, 0, 74, 93
2, 7488, Note_off_c, 0, 74, 0
2, 7488, Note_on_c, 0, 69, 93
2, 7584, Note_off_c, 0, 69, 0
2, 7584, Note_on_c, 0, 73, 93
2, 7680, Note_off_c, 0, 73, 0
2, 7680, Note_on_c, 0, 74, 93
2, 7968, Note_off_c, 0, 74, 0
2, 7968, Note_on_c, 0, 78, 93
2, 8064, Note_off_c, 0, 78, 0
2, 8064, Note_on_c, 0, 83, 93
2, 8160, Note_off_c, 0, 83, 0
2, 8160, Note_on_c, 0, 78, 93
2, 8256, Note_off_c, 0, 78, 0
2, 8256, Note_on_c, 0, 83, 93
2, 8352, Note_off_c, 0, 83, 0
2, 8352, Note_on_c, 0, 78, 93
2, 8448, Note_off_c, 0, 78, 0
2, 8448, Note_on_c, 0, 79, 93
2, 8544, Note_off_c, 0, 79, 0
2, 8544, Note_on_c, 0, 79, 93
2, 8592, Note_off_c, 0, 79, 0
2, 8592, Note_on_c, 0, 78, 93
2, 8640, Note_off_c, 0, 78, 0
2, 8640, Note_on_c, 0, 76, 93
2, 8736, Note_off_c, 0, 76, 0
2, 8736, Note_on_c, 0, 79, 93
2, 8832, Note_off_c, 0, 79, 0
2, 8832, Note_on_c, 0, 78, 93
2, 8928, Note_off_c, 0, 78, 0
2, 8928, Note_on_c, 0, 76, 93
2, 9024, Note_off_c, 0, 76, 0
2, 9024, Note_on_c, 0, 74, 93
2, 9120, Note_off_c, 0, 74, 0
2, 9120, Note_on_c, 0, 73, 93
2, 9216, Note_off_c, 0, 73, 0
2, 9216, Note_on_c, 0, 76, 93
2, 9264, Note_off_c, 0, 76, 0
2, 9264, Note_on_c, 0, 74, 93
2, 9312, Note_off_c, 0, 74, 0
2, 9312, Note_on_c, 0, 73, 93
2, 9360, Note_off_c, 0, 73, 0
2, 9360, Note_on_c, 0, 74, 93
2, 9408, Note_off_c, 0, 74, 0
2, 9408, Note_on_c, 0, 71, 93
2, 9504, Note_off_c, 0, 71, 0
2, 9504, Note_on_c, 0, 74, 93
2, 9552, Note_off_c, 0, 74, 0
2, 9552, Note_on_c, 0, 73, 93
2, 9600, Note_off_c, 0, 73, 0
2, 9600, Note_on_c, 0, 74, 93
2, 9696, Note_off_c, 0, 74, 0
2, 9696, Note_on_c, 0, 66, 93
2, 9792, Note_off_c, 0, 66, 0
2, 9792, Note_on_c, 0, 67, 93
2, 9888, Note_off_c, 0, 67, 0
2, 9888, Note_on_c, 0, 74, 93
2, 9984, Note_off_c, 0, 74, 0
2, 9984, Note_on_c, 0, 73, 93
2, 10080, Note_off_c, 0, 73, 0
2, 10080, Note_on_c, 0, 73, 93
2, 10128, Note_off_c, 0, 73, 0
2, 10128, Note_on_c, 0, 71, 93
2, 10176, Note_off_c, 0, 71, 0
2, 10176, Note_on_c, 0, 73, 93
2, 10272, Note_off_c, 0, 73, 0
2, 10272, Note_on_c, 0, 81, 93
2, 10320, Note_off_c, 0, 81, 0
2, 10320, Note_on_c, 0, 76, 93
2, 10368, Note_off_c, 0, 76, 0
2, 10368, Note_on_c, 0, 73, 93
2, 10464, Note_off_c, 0, 73, 0
2, 10464, Note_on_c, 0, 64, 93
2, 10560, Note_off_c, 0, 64, 0
2, 10560, Note_on_c, 0, 66, 93
2, 10656, Note_off_c, 0, 66, 0
2, 10656, Note_on_c, 0, 73, 93
2, 10752, Note_off_c, 0, 73, 0
2, 10752, Note_on_c, 0, 71, 93
2, 10848, Note_off_c, 0, 71, 0
2, 10848, Note_on_c, 0, 71, 93
2, 10896, Note_off_c, 0, 71, 0
2, 10896, Note_on_c, 0, 69, 93
2, 10944, Note_off_c, 0, 69, 0
2, 10944, Note_on_c, 0, 71, 93
2, 11040, Note_off_c, 0, 71, 0
2, 11040, Note_on_c, 0, 83, 93
2, 11088, Note_off_c, 0, 83, 0
2, 11088, Note_on_c, 0, 79, 93
2, 11136, Note_off_c, 0, 79, 0
2, 11136, Note_on_c, 0, 76, 93
2, 11232, Note_off_c, 0, 76, 0
2, 11232, Note_on_c, 0, 79, 93
2, 11280, Note_off_c, 0, 79, 0
2, 11280, Note_on_c, 0, 76, 93
2, 11328, Note_off_c, 0, 76, 0
2, 11328, Note_on_c, 0, 73, 93
2, 11424, Note_off_c, 0, 73, 0
2, 11424, Note_on_c, 0, 76, 93
2, 11472, Note_off_c, 0, 76, 0
2, 11472, Note_on_c, 0, 73, 93
2, 11520, Note_off_c, 0, 73, 0
2, 11520, Note_on_c, 0, 69, 93
2, 11616, Note_off_c, 0, 69, 0
2, 11616, Note_on_c, 0, 71, 93
2, 11664, Note_off_c, 0, 71, 0
2, 11664, Note_on_c, 0, 73, 93
2, 11712, Note_off_c, 0, 73, 0
2, 11712, Note_on_c, 0, 74, 93
2, 11760, Note_off_c, 0, 74, 0
2, 11760, Note_on_c, 0, 76, 93
2, 11808, Note_off_c, 0, 76, 0
2, 11808, Note_on_c, 0, 78, 93
2, 11856, Note_off_c, 0, 78, 0
2, 11856, Note_on_c, 0, 79, 93
2, 11904, Note_off_c, 0, 79, 0
2, 11904, Note_on_c, 0, 81, 93
2, 12000, Note_off_c, 0, 81, 0
2, 12000, Note_on_c, 0, 74, 93
2, 12096, Note_off_c, 0, 74, 0
2, 12096, Note_on_c, 0, 76, 93
2, 12192, Note_off_c, 0, 76, 0
2, 12192, Note_on_c, 0, 73, 93
2, 12288, Note_off_c, 0, 73, 0
2, 12288, Note_on_c, 0, 74, 93
2, 12336, Note_off_c, 0, 74, 0
2, 12336, Note_on_c, 0, 73, 93
2, 12384, Note_off_c, 0, 73, 0
2, 12384, Note_on_c, 0, 74, 93
2, 12480, Note_off_c, 0, 74, 0
2, 12480, Note_on_c, 0, 83, 93
2, 12576, Note_off_c, 0, 83, 0
2, 12576, Note_on_c, 0, 74, 93
2, 12672, Note_off_c, 0, 74, 0
2, 12672, Note_on_c, 0, 73, 93
2, 12720, Note_off_c, 0, 73, 0
2, 12720, Note_on_c, 0, 71, 93
2, 12768, Note_off_c, 0, 71, 0
2, 12768, Note_on_c, 0, 73, 93
2, 12864, Note_off_c, 0, 73, 0
2, 12864, Note_on_c, 0, 81, 93
2, 12960, Note_off_c, 0, 81, 0
2, 12960, Note_on_c, 0, 72, 93
2, 13056, Note_off_c, 0, 72, 0
2, 13056, Note_on_c, 0, 71, 93
2, 13152, Note_off_c, 0, 71, 0
2, 13152, Note_on_c, 0, 74, 93
2, 13248, Note_off_c, 0, 74, 0
2, 13248, Note_on_c, 0, 73, 93
2, 13296, Note_off_c, 0, 73, 0
2, 13296, Note_on_c, 0, 74, 93
2, 13344, Note_off_c, 0, 74, 0
2, 13344, Note_on_c, 0, 76, 93
2, 13440, Note_off_c, 0, 76, 0
2, 13440, Note_on_c, 0, 67, 93
2, 13536, Note_off_c, 0, 67, 0
2, 13536, Note_on_c, 0, 67, 93
2, 13584, Note_off_c, 0, 67, 0
2, 13584, Note_on_c, 0, 66, 93
2, 13632, Note_off_c, 0, 66, 0
2, 13632, Note_on_c, 0, 67, 93
2, 13728, Note_off_c, 0, 67, 0
2, 13728, Note_on_c, 0, 76, 93
2, 13776, Note_off_c, 0, 76, 0
2, 13776, Note_on_c, 0, 66, 93
2, 13824, Note_off_c, 0, 66, 0
2, 13824, Note_on_c, 0, 67, 93
2, 13920, Note_off_c, 0, 67, 0
2, 13920, Note_on_c, 0, 76, 93
2, 13968, Note_off_c, 0, 76, 0
2, 13968, Note_on_c, 0, 66, 93
2, 14016, Note_off_c, 0, 66, 0
2, 14016, Note_on_c, 0, 67, 93
2, 14112, Note_off_c, 0, 67, 0
2, 14112, Note_on_c, 0, 76, 93
2, 14160, Note_off_c, 0, 76, 0
2, 14160, Note_on_c, 0, 66, 93
2, 14208, Note_off_c, 0, 66, 0
2, 14208, Note_on_c, 0, 67, 93
2, 14304, Note_off_c, 0, 67, 0
2, 14304, Note_on_c, 0, 73, 93
2, 14400, Note_off_c, 0, 73, 0
2, 14400, Note_on_c, 0, 81, 93
2, 14640, Note_off_c, 0, 81, 0
2, 14640, Note_on_c, 0, 86, 93
2, 14688, Note_off_c, 0, 86, 0
2, 14688, Note_on_c, 0, 85, 93
2, 14736, Note_off_c, 0, 85, 0
2, 14736, Note_on_c, 0, 83, 93
2, 14784, Note_off_c, 0, 83, 0
2, 14784, Note_on_c, 0, 81, 93
2, 14832, Note_off_c, 0, 81, 0
2, 14832, Note_on_c, 0, 79, 93
2, 14880, Note_off_c, 0, 79, 0
2, 14880, Note_on_c, 0, 83, 93
2, 14928, Note_off_c, 0, 83, 0
2, 14928, Note_on_c, 0, 81, 93
2, 14976, Note_off_c, 0, 81, 0
2, 14976, Note_on_c, 0, 79, 93
2, 15024, Note_off_c, 0, 79, 0
2, 15024, Note_on_c, 0, 78, 93
2, 15072, Note_off_c, 0, 78, 0
2, 15072, Note_on_c, 0, 76, 93
2, 15120, Note_off_c, 0, 76, 0
2, 15120, Note_on_c, 0, 74, 93
2, 15168, Note_off_c, 0, 74, 0
2, 15168, Note_on_c, 0, 69, 93
2, 15264, Note_off_c, 0, 69, 0
2, 15264, Note_on_c, 0, 73, 93
2, 15360, Note_off_c, 0, 73, 0
2, 15360, Note_on_c, 0, 74, 93
2, 15648, Note_off_c, 0, 74, 0
2, 15648, Note_on_c, 0, 78, 93
2, 15744, Note_off_c, 0, 78, 0
2, 15744, Note_on_c, 0, 76, 93
2, 15840, Note_off_c, 0, 76, 0
2, 15840, Note_on_c, 0, 78, 93
2, 15936, Note_off_c, 0, 78, 0
2, 15936, Note_on_c, 0, 79, 93
2, 16032, Note_off_c, 0, 79, 0
2, 16032, Note_on_c, 0, 78, 93
2, 16128, Note_off_c, 0, 78, 0
2, 16128, Note_on_c, 0, 76, 93
2, 16224, Note_off_c, 0, 76, 0
2, 16224, Note_on_c, 0, 76, 93
2, 16272, Note_off_c, 0, 76, 0
2, 16272, Note_on_c, 0, 74, 93
2, 16320, Note_off_c, 0, 74, 0
2, 16320, Note_on_c, 0, 76, 93
2, 16416, Note_off_c, 0, 76, 0
2, 16416, Note_on_c, 0, 81, 93
2, 16512, Note_off_c, 0, 81, 0
2, 16512, Note_on_c, 0, 73, 93
2, 16608, Note_off_c, 0, 73, 0
2, 16608, Note_on_c, 0, 74, 93
2, 16704, Note_off_c, 0, 74, 0
2, 16704, Note_on_c, 0, 76, 93
2, 16800, Note_off_c, 0, 76, 0
2, 16800, Note_on_c, 0, 74, 93
2, 16896, Note_off_c, 0, 74, 0
2, 16896, Note_on_c, 0, 73, 93
2, 16992, Note_off_c, 0, 73, 0
2, 16992, Note_on_c, 0, 73, 93
2, 17040, Note_off_c, 0, 73, 0
2, 17040, Note_on_c, 0, 71, 93
2, 17088, Note_off_c, 0, 71, 0
2, 17088, Note_on_c, 0, 73, 93
2, 17184, Note_off_c, 0, 73, 0
2, 17184, Note_on_c, 0, 75, 93
2, 17280, Note_off_c, 0, 75, 0
2, 17280, Note_on_c, 0, 76, 93
2, 17376, Note_off_c, 0, 76, 0
2, 17376, Note_on_c, 0, 79, 93
2, 17472, Note_off_c, 0, 79, 0
2, 17568, Note_on_c, 0, 78, 93
2, 17664, Note_off_c, 0, 78, 0
2, 17664, Note_on_c, 0, 76, 93
2, 17712, Note_off_c, 0, 76, 0
2, 17712, Note_on_c, 0, 75, 93
2, 17760, Note_off_c, 0, 75, 0
2, 17760, Note_on_c, 0, 76, 93
2, 17856, Note_off_c, 0, 76, 0
2, 17856, Note_on_c, 0, 76, 93
2, 17952, Note_off_c, 0, 76, 0
2, 17952, Note_on_c, 0, 79, 93
2, 18000, Note_off_c, 0, 79, 0
2, 18000, Note_on_c, 0, 78, 93
2, 18048, Note_off_c, 0, 78, 0
2, 18048, Note_on_c, 0, 79, 93
2, 18144, Note_off_c, 0, 79, 0
2, 18144, Note_on_c, 0, 83, 93
2, 18240, Note_off_c, 0, 83, 0
2, 18240, Note_on_c, 0, 79, 93
2, 18336, Note_off_c, 0, 79, 0
2, 18336, Note_on_c, 0, 78, 93
2, 18384, Note_off_c, 0, 78, 0
2, 18384, Note_on_c, 0, 76, 93
2, 18432, Note_off_c, 0, 76, 0
2, 18432, Note_on_c, 0, 76, 93
2, 18624, Note_off_c, 0, 76, 0
2, 18720, Note_on_c, 0, 79, 93
2, 18816, Note_off_c, 0, 79, 0
2, 19200, Note_on_c, 0, 62, 93
2, 19392, Note_off_c, 0, 62, 0
2, 19584, Note_on_c, 0, 65, 93
2, 19680, Note_off_c, 0, 65, 0
2, 19776, Note_on_c, 0, 66, 93
2, 19872, Note_off_c, 0, 66, 0
2, 19968, Note_on_c, 0, 73, 93
2, 20064, Note_off_c, 0, 73, 0
2, 20448, Note_on_c, 0, 71, 93
2, 20544, Note_off_c, 0, 71, 0
2, 20544, Note_on_c, 0, 70, 93
2, 20640, Note_off_c, 0, 70, 0
2, 20736, Note_on_c, 0, 71, 93
2, 20832, Note_off_c, 0, 71, 0
2, 21216, Note_on_c, 0, 69, 93
2, 21312, Note_off_c, 0, 69, 0
2, 21312, Note_on_c, 0, 68, 93
2, 21408, Note_off_c, 0, 68, 0
2, 21408, Note_on_c, 0, 66, 93
2, 21504, Note_off_c, 0, 66, 0
2, 21504, Note_on_c, 0, 65, 93
2, 21600, Note_off_c, 0, 65, 0
2, 21888, Note_on_c, 0, 66, 93
2, 21984, Note_off_c, 0, 66, 0
2, 22752, Note_on_c, 0, 81, 93
2, 22848, Note_off_c, 0, 81, 0
2, 22848, Note_on_c, 0, 75, 93
2, 22944, Note_off_c, 0, 75, 0
2, 22944, Note_on_c, 0, 81, 93
2, 23040, Note_off_c, 0, 81, 0
2, 23040, Note_on_c, 0, 81, 93
2, 23136, Note_off_c, 0, 81, 0
2, 23136, Note_on_c, 0, 79, 93
2, 23184, Note_off_c, 0, 79, 0
2, 23184, Note_on_c, 0, 78, 93
2, 23232, Note_off_c, 0, 78, 0
2, 23232, Note_on_c, 0, 79, 93
2, 23280, Note_off_c, 0, 79, 0
2, 23280, Note_on_c, 0, 64, 93
2, 23328, Note_off_c, 0, 64, 0
2, 23328, Note_on_c, 0, 66, 93
2, 23376, Note_off_c, 0, 66, 0
2, 23376, Note_on_c, 0, 67, 93
2, 23424, Note_off_c, 0, 67, 0
2, 23520, Note_on_c, 0, 79, 93
2, 23616, Note_off_c, 0, 79, 0
2, 23616, Note_on_c, 0, 73, 93
2, 23712, Note_off_c, 0, 73, 0
2, 23712, Note_on_c, 0, 79, 93
2, 23808, Note_off_c, 0, 79, 0
2, 23808, Note_on_c, 0, 79, 93
2, 23904, Note_off_c, 0, 79, 0
2, 23904, Note_on_c, 0, 78, 93
2, 23952, Note_off_c, 0, 78, 0
2, 23952, Note_on_c, 0, 76, 93
2, 24000, Note_off_c, 0, 76, 0
2, 24000, Note_on_c, 0, 78, 93
2, 24048, Note_off_c, 0, 78, 0
2, 24048, Note_on_c, 0, 74, 93
2, 24096, Note_off_c, 0, 74, 0
2, 24096, Note_on_c, 0, 73, 93
2, 24144, Note_off_c, 0, 73, 0
2, 24144, Note_on_c, 0, 71, 93
2, 24192, Note_off_c, 0, 71, 0
2, 24192, Note_on_c, 0, 70, 93
2, 24288, Note_off_c, 0, 70, 0
2, 24288, Note_on_c, 0, 76, 93
2, 24384, Note_off_c, 0, 76, 0
2, 24384, Note_on_c, 0, 67, 93
2, 24480, Note_off_c, 0, 67, 0
2, 24480, Note_on_c, 0, 76, 93
2, 24576, Note_off_c, 0, 76, 0
2, 24576, Note_on_c, 0, 66, 93
2, 24624, Note_off_c, 0, 66, 0
2, 24624, Note_on_c, 0, 73, 93
2, 24672, Note_off_c, 0, 73, 0
2, 24672, Note_on_c, 0, 76, 93
2, 24720, Note_off_c, 0, 76, 0
2, 24720, Note_on_c, 0, 74, 93
2, 24768, Note_off_c, 0, 74, 0
2, 24768, Note_on_c, 0, 76, 93
2, 24816, Note_off_c, 0, 76, 0
2, 24816, Note_on_c, 0, 79, 93
2, 24864, Note_off_c, 0, 79, 0
2, 24864, Note_on_c, 0, 78, 93
2, 24912, Note_off_c, 0, 78, 0
2, 24912, Note_on_c, 0, 76, 93
2, 24960, Note_off_c, 0, 76, 0
2, 24960, Note_on_c, 0, 74, 93
2, 25008, Note_off_c, 0, 74, 0
2, 25008, Note_on_c, 0, 73, 93
2, 25056, Note_off_c, 0, 73, 0
2, 25056, Note_on_c, 0, 71, 93
2, 25104, Note_off_c, 0, 71, 0
2, 25104, Note_on_c, 0, 69, 93
2, 25152, Note_off_c, 0, 69, 0
2, 25152, Note_on_c, 0, 67, 93
2, 25200, Note_off_c, 0, 67, 0
2, 25200, Note_on_c, 0, 70, 93
2, 25248, Note_off_c, 0, 70, 0
2, 25248, Note_on_c, 0, 71, 93
2, 25296, Note_off_c, 0, 71, 0
2, 25296, Note_on_c, 0, 73, 93
2, 25344, Note_off_c, 0, 73, 0
2, 25344, Note_on_c, 0, 74, 93
2, 25392, Note_off_c, 0, 74, 0
2, 25392, Note_on_c, 0, 71, 93
2, 25440, Note_off_c, 0, 71, 0
2, 25440, Note_on_c, 0, 73, 93
2, 25488, Note_off_c, 0, 73, 0
2, 25488, Note_on_c, 0, 70, 93
2, 25536, Note_off_c, 0, 70, 0
2, 25536, Note_on_c, 0, 66, 93
2, 25584, Note_off_c, 0, 66, 0
2, 25584, Note_on_c, 0, 73, 93
2, 25632, Note_off_c, 0, 73, 0
2, 25632, Note_on_c, 0, 78, 93
2, 25680, Note_off_c, 0, 78, 0
2, 25680, Note_on_c, 0, 80, 93
2, 25728, Note_off_c, 0, 80, 0
2, 25728, Note_on_c, 0, 82, 93
2, 25776, Note_off_c, 0, 82, 0
2, 25776, Note_on_c, 0, 83, 93
2, 25824, Note_off_c, 0, 83, 0
2, 25824, Note_on_c, 0, 82, 93
2, 25872, Note_off_c, 0, 82, 0
2, 25872, Note_on_c, 0, 83, 93
2, 25920, Note_off_c, 0, 83, 0
2, 25920, Note_on_c, 0, 85, 93
2, 25968, Note_off_c, 0, 85, 0
2, 25968, Note_on_c, 0, 86, 93
2, 26016, Note_off_c, 0, 86, 0
2, 26016, Note_on_c, 0, 85, 93
2, 26064, Note_off_c, 0, 85, 0
2, 26064, Note_on_c, 0, 86, 93
2, 26112, Note_off_c, 0, 86, 0
2, 26112, Note_on_c, 0, 88, 93
2, 26160, Note_off_c, 0, 88, 0
2, 26160, Note_on_c, 0, 78, 93
2, 26208, Note_off_c, 0, 78, 0
2, 26208, Note_on_c, 0, 70, 93
2, 26256, Note_off_c, 0, 70, 0
2, 26256, Note_on_c, 0, 78, 93
2, 26304, Note_off_c, 0, 78, 0
2, 26304, Note_on_c, 0, 88, 93
2, 26352, Note_off_c, 0, 88, 0
2, 26352, Note_on_c, 0, 78, 93
2, 26400, Note_off_c, 0, 78, 0
2, 26400, Note_on_c, 0, 70, 93
2, 26448, Note_off_c, 0, 70, 0
2, 26448, Note_on_c, 0, 71, 93
2, 26496, Note_off_c, 0, 71, 0
2, 26496, Note_on_c, 0, 73, 93
2, 26544, Note_off_c, 0, 73, 0
2, 26544, Note_on_c, 0, 74, 93
2, 26592, Note_off_c, 0, 74, 0
2, 26592, Note_on_c, 0, 76, 93
2, 26640, Note_off_c, 0, 76, 0
2, 26640, Note_on_c, 0, 78, 93
2, 26688, Note_off_c, 0, 78, 0
2, 26688, Note_on_c, 0, 80, 93
2, 26736, Note_off_c, 0, 80, 0
2, 26736, Note_on_c, 0, 82, 93
2, 26784, Note_off_c, 0, 82, 0
2, 26784, Note_on_c, 0, 83, 93
2, 26832, Note_off_c, 0, 83, 0
2, 26832, Note_on_c, 0, 85, 93
2, 26880, Note_off_c, 0, 85, 0
2, 26880, Note_on_c, 0, 86, 93
2, 26928, Note_off_c, 0, 86, 0
2, 26928, Note_on_c, 0, 77, 93
2, 26976, Note_off_c, 0, 77, 0
2, 26976, Note_on_c, 0, 71, 93
2, 27024, Note_off_c, 0, 71, 0
2, 27024, Note_on_c, 0, 77, 93
2, 27072, Note_off_c, 0, 77, 0
2, 27072, Note_on_c, 0, 86, 93
2, 27120, Note_off_c, 0, 86, 0
2, 27120, Note_on_c, 0, 77, 93
2, 27168, Note_off_c, 0, 77, 0
2, 27168, Note_on_c, 0, 71, 93
2, 27216, Note_off_c, 0, 71, 0
2, 27216, Note_on_c, 0, 73, 93
2, 27264, Note_off_c, 0, 73, 0
2, 27264, Note_on_c, 0, 74, 93
2, 27312, Note_off_c, 0, 74, 0
2, 27312, Note_on_c, 0, 76, 93
2, 27360, Note_off_c, 0, 76, 0
2, 27360, Note_on_c, 0, 74, 93
2, 27408, Note_off_c, 0, 74, 0
2, 27408, Note_on_c, 0, 73, 93
2, 27456, Note_off_c, 0, 73, 0
2, 27456, Note_on_c, 0, 71, 93
2, 27504, Note_off_c, 0, 71, 0
2, 27504, Note_on_c, 0, 69, 93
2, 27552, Note_off_c, 0, 69, 0
2, 27552, Note_on_c, 0, 68, 93
2, 27600, Note_off_c, 0, 68, 0
2, 27600, Note_on_c, 0, 66, 93
2, 27648, Note_off_c, 0, 66, 0
2, 27648, Note_on_c, 0, 65, 93
2, 27696, Note_off_c, 0, 65, 0
2, 27696, Note_on_c, 0, 86, 93
2, 27744, Note_off_c, 0, 86, 0
2, 27744, Note_on_c, 0, 85, 93
2, 27792, Note_off_c, 0, 85, 0
2, 27792, Note_on_c, 0, 83, 93
2, 27840, Note_off_c, 0, 83, 0
2, 27840, Note_on_c, 0, 82, 93
2, 27888, Note_off_c, 0, 82, 0
2, 27888, Note_on_c, 0, 79, 93
2, 27936, Note_off_c, 0, 79, 0
2, 27936, Note_on_c, 0, 78, 93
2, 27984, Note_off_c, 0, 78, 0
2, 27984, Note_on_c, 0, 76, 93
2, 28032, Note_off_c, 0, 76, 0
2, 28032, Note_on_c, 0, 74, 93
2, 28080, Note_off_c, 0, 74, 0
2, 28080, Note_on_c, 0, 73, 93
2, 28128, Note_off_c, 0, 73, 0
2, 28128, Note_on_c, 0, 74, 93
2, 28176, Note_off_c, 0, 74, 0
2, 28176, Note_on_c, 0, 71, 93
2, 28224, Note_off_c, 0, 71, 0
2, 28224, Note_on_c, 0, 66, 93
2, 28320, Note_off_c, 0, 66, 0
2, 28320, Note_on_c, 0, 70, 93
2, 28416, Note_off_c, 0, 70, 0
2, 28416, Note_on_c, 0, 71, 93
2, 28512, Note_off_c, 0, 71, 0
2, 28512, Note_on_c, 0, 74, 93
2, 28560, Note_off_c, 0, 74, 0
2, 28560, Note_on_c, 0, 73, 93
2, 28608, Note_off_c, 0, 73, 0
2, 28608, Note_on_c, 0, 71, 93
2, 28704, Note_off_c, 0, 71, 0
2, 28896, Note_on_c, 0, 74, 93
2, 28944, Note_off_c, 0, 74, 0
2, 28944, Note_on_c, 0, 73, 93
2, 28992, Note_off_c, 0, 73, 0
2, 28992, Note_on_c, 0, 71, 93
2, 29040, Note_off_c, 0, 71, 0
2, 29040, Note_on_c, 0, 70, 93
2, 29088, Note_off_c, 0, 70, 0
2, 29088, Note_on_c, 0, 71, 93
2, 29184, Note_off_c, 0, 71, 0
2, 29184, Note_on_c, 0, 71, 93
2, 29280, Note_off_c, 0, 71, 0
2, 29280, Note_on_c, 0, 71, 93
2, 29328, Note_off_c, 0, 71, 0
2, 29328, Note_on_c, 0, 70, 93
2, 29376, Note_off_c, 0, 70, 0
2, 29376, Note_on_c, 0, 71, 93
2, 29472, Note_off_c, 0, 71, 0
2, 29472, Note_on_c, 0, 72, 93
2, 29520, Note_off_c, 0, 72, 0
2, 29520, Note_on_c, 0, 71, 93
2, 29568, Note_off_c, 0, 71, 0
2, 29568, Note_on_c, 0, 69, 93
2, 29616, Note_off_c, 0, 69, 0
2, 29616, Note_on_c, 0, 67, 93
2, 29664, Note_off_c, 0, 67, 0
2, 29664, Note_on_c, 0, 66, 93
2, 29712, Note_off_c, 0, 66, 0
2, 29712, Note_on_c, 0, 64, 93
2, 29760, Note_off_c, 0, 64, 0
2, 29760, Note_on_c, 0, 63, 93
2, 29808, Note_off_c, 0, 63, 0
2, 29808, Note_on_c, 0, 72, 93
2, 29856, Note_off_c, 0, 72, 0
2, 29856, Note_on_c, 0, 71, 93
2, 29904, Note_off_c, 0, 71, 0
2, 29904, Note_on_c, 0, 69, 93
2, 29952, Note_off_c, 0, 69, 0
2, 29952, Note_on_c, 0, 67, 93
2, 30000, Note_off_c, 0, 67, 0
2, 30000, Note_on_c, 0, 66, 93
2, 30048, Note_off_c, 0, 66, 0
2, 30048, Note_on_c, 0, 64, 93
2, 30096, Note_off_c, 0, 64, 0
2, 30096, Note_on_c, 0, 66, 93
2, 30144, Note_off_c, 0, 66, 0
2, 30144, Note_on_c, 0, 67, 93
2, 30192, Note_off_c, 0, 67, 0
2, 30192, Note_on_c, 0, 69, 93
2, 30240, Note_off_c, 0, 69, 0
2, 30240, Note_on_c, 0, 71, 93
2, 30288, Note_off_c, 0, 71, 0
2, 30288, Note_on_c, 0, 73, 93
2, 30336, Note_off_c, 0, 73, 0
2, 30336, Note_on_c, 0, 74, 93
2, 30384, Note_off_c, 0, 74, 0
2, 30384, Note_on_c, 0, 78, 93
2, 30432, Note_off_c, 0, 78, 0
2, 30432, Note_on_c, 0, 83, 93
2, 30480, Note_off_c, 0, 83, 0
2, 30480, Note_on_c, 0, 80, 93
2, 30528, Note_off_c, 0, 80, 0
2, 30528, Note_on_c, 0, 77, 93
2, 30576, Note_off_c, 0, 77, 0
2, 30576, Note_on_c, 0, 73, 93
2, 30624, Note_off_c, 0, 73, 0
2, 30624, Note_on_c, 0, 86, 93
2, 30672, Note_off_c, 0, 86, 0
2, 30672, Note_on_c, 0, 85, 93
2, 30720, Note_off_c, 0, 85, 0
2, 30720, Note_on_c, 0, 83, 93
2, 30768, Note_off_c, 0, 83, 0
2, 30768, Note_on_c, 0, 82, 93
2, 30816, Note_off_c, 0, 82, 0
2, 30816, Note_on_c, 0, 83, 93
2, 30864, Note_off_c, 0, 83, 0
2, 30864, Note_on_c, 0, 85, 93
2, 30912, Note_off_c, 0, 85, 0
2, 30912, Note_on_c, 0, 78, 93
2, 31008, Note_off_c, 0, 78, 0
2, 31008, Note_on_c, 0, 85, 93
2, 31056, Note_off_c, 0, 85, 0
2, 31056, Note_on_c, 0, 74, 93
2, 31104, Note_off_c, 0, 74, 0
2, 31104, Note_on_c, 0, 76, 93
2, 31200, Note_off_c, 0, 76, 0
2, 31200, Note_on_c, 0, 85, 93
2, 31248, Note_off_c, 0, 85, 0
2, 31248, Note_on_c, 0, 74, 93
2, 31296, Note_off_c, 0, 74, 0
2, 31296, Note_on_c, 0, 76, 93
2, 31392, Note_off_c, 0, 76, 0
2, 31392, Note_on_c, 0, 85, 93
2, 31440, Note_off_c, 0, 85, 0
2, 31440, Note_on_c, 0, 74, 93
2, 31488, Note_off_c, 0, 74, 0
2, 31488, Note_on_c, 0, 76, 93
2, 31584, Note_off_c, 0, 76, 0
2, 31584, Note_on_c, 0, 79, 93
2, 31632, Note_off_c, 0, 79, 0
2, 31632, Note_on_c, 0, 78, 93
2, 31680, Note_off_c, 0, 78, 0
2, 31680, Note_on_c, 0, 79, 93
2, 31920, Note_off_c, 0, 79, 0
2, 31920, Note_on_c, 0, 78, 93
2, 31968, Note_off_c, 0, 78, 0
2, 31968, Note_on_c, 0, 76, 93
2, 32016, Note_off_c, 0, 76, 0
2, 32016, Note_on_c, 0, 74, 93
2, 32064, Note_off_c, 0, 74, 0
2, 32064, Note_on_c, 0, 73, 93
2, 32112, Note_off_c, 0, 73, 0
2, 32112, Note_on_c, 0, 71, 93
2, 32160, Note_off_c, 0, 71, 0
2, 32160, Note_on_c, 0, 70, 93
2, 32208, Note_off_c, 0, 70, 0
2, 32208, Note_on_c, 0, 73, 93
2, 32256, Note_off_c, 0, 73, 0
2, 32256, Note_on_c, 0, 64, 93
2, 32304, Note_off_c, 0, 64, 0
2, 32304, Note_on_c, 0, 67, 93
2, 32352, Note_off_c, 0, 67, 0
2, 32352, Note_on_c, 0, 66, 93
2, 32400, Note_off_c, 0, 66, 0
2, 32400, Note_on_c, 0, 64, 93
2, 32448, Note_off_c, 0, 64, 0
2, 32448, Note_on_c, 0, 62, 93
2, 32496, Note_off_c, 0, 62, 0
2, 32496, Note_on_c, 0, 61, 93
2, 32544, Note_off_c, 0, 61, 0
2, 32544, Note_on_c, 0, 59, 93
2, 32592, Note_off_c, 0, 59, 0
2, 32592, Note_on_c, 0, 58, 93
2, 32640, Note_off_c, 0, 58, 0
2, 32640, Note_on_c, 0, 59, 93
2, 32736, Note_off_c, 0, 59, 0
2, 32832, Note_on_c, 0, 59, 93
2, 32928, Note_off_c, 0, 59, 0
2, 34080, Note_on_c, 0, 78, 93
2, 34176, Note_off_c, 0, 78, 0
2, 34176, Note_on_c, 0, 76, 93
2, 34272, Note_off_c, 0, 76, 0
2, 34272, Note_on_c, 0, 78, 93
2, 34368, Note_off_c, 0, 78, 0
2, 34368, Note_on_c, 0, 79, 93
2, 34464, Note_off_c, 0, 79, 0
2, 34464, Note_on_c, 0, 78, 93
2, 34560, Note_off_c, 0, 78, 0
2, 34560, Note_on_c, 0, 76, 93
2, 34656, Note_off_c, 0, 76, 0
2, 34656, Note_on_c, 0, 76, 93
2, 34704, Note_off_c, 0, 76, 0
2, 34704, Note_on_c, 0, 74, 93
2, 34752, Note_off_c, 0, 74, 0
2, 34752, Note_on_c, 0, 76, 93
2, 34848, Note_off_c, 0, 76, 0
2, 34848, Note_on_c, 0, 81, 93
2, 34944, Note_off_c, 0, 81, 0
2, 34944, Note_on_c, 0, 73, 93
2, 35040, Note_off_c, 0, 73, 0
2, 35040, Note_on_c, 0, 74, 93
2, 35136, Note_off_c, 0, 74, 0
2, 35136, Note_on_c, 0, 76, 93
2, 35232, Note_off_c, 0, 76, 0
2, 35232, Note_on_c, 0, 74, 93
2, 35328, Note_off_c, 0, 74, 0
2, 35328, Note_on_c, 0, 73, 93
2, 35424, Note_off_c, 0, 73, 0
2, 35424, Note_on_c, 0, 73, 93
2, 35472, Note_off_c, 0, 73, 0
2, 35472, Note_on_c, 0, 71, 93
2, 35520, Note_off_c, 0, 71, 0
2, 35520, Note_on_c, 0, 73, 93
2, 35616, Note_off_c, 0, 73, 0
2, 35616, Note_on_c, 0, 75, 93
2, 35712, Note_off_c, 0, 75, 0
2, 35712, Note_on_c, 0, 76, 93
2, 35808, Note_off_c, 0, 76, 0
2, 35808, Note_on_c, 0, 79, 93
2, 35904, Note_off_c, 0, 79, 0
2, 36000, Note_on_c, 0, 78, 93
2, 36096, Note_off_c, 0, 78, 0
2, 36096, Note_on_c, 0, 76, 93
2, 36144, Note_off_c, 0, 76, 0
2, 36144, Note_on_c, 0, 75, 93
2, 36192, Note_off_c, 0, 75, 0
2, 36192, Note_on_c, 0, 76, 93
2, 36288, Note_off_c, 0, 76, 0
2, 36288, Note_on_c, 0, 76, 93
2, 36384, Note_off_c, 0, 76, 0
2, 36384, Note_on_c, 0, 79, 93
2, 36432, Note_off_c, 0, 79, 0
2, 36432, Note_on_c, 0, 78, 93
2, 36480, Note_off_c, 0, 78, 0
2, 36480, Note_on_c, 0, 79, 93
2, 36576, Note_off_c, 0, 79, 0
2, 36576, Note_on_c, 0, 83, 93
2, 36672, Note_off_c, 0, 83, 0
2, 36672, Note_on_c, 0, 79, 93
2, 36768, Note_off_c, 0, 79, 0
2, 36768, Note_on_c, 0, 78, 93
2, 36816, Note_off_c, 0, 78, 0
2, 36816, Note_on_c, 0, 76, 93
2, 36864, Note_off_c, 0, 76, 0
2, 36864, Note_on_c, 0, 76, 93
2, 37056, Note_off_c, 0, 76, 0
2, 37152, Note_on_c, 0, 79, 93
2, 37248, Note_off_c, 0, 79, 0
2, 37632, Note_on_c, 0, 62, 93
2, 37824, Note_off_c, 0, 62, 0
2, 38016, Note_on_c, 0, 65, 93
2, 38112, Note_off_c, 0, 65, 0
2, 38208, Note_on_c, 0, 66, 93
2, 38304, Note_off_c, 0, 66, 0
2, 38400, Note_on_c, 0, 73, 93
2, 38496, Note_off_c, 0, 73, 0
2, 38880, Note_on_c, 0, 71, 93
2, 38976, Note_off_c, 0, 71, 0
2, 38976, Note_on_c, 0, 70, 93
2, 39072, Note_off_c, 0, 70, 0
2, 39168, Note_on_c, 0, 71, 93
2, 39264, Note_off_c, 0, 71, 0
2, 39648, Note_on_c, 0, 69, 93
2, 39744, Note_off_c, 0, 69, 0
2, 39744, Note_on_c, 0, 68, 93
2, 39840, Note_off_c, 0, 68, 0
2, 39840, Note_on_c, 0, 66, 93
2, 39936, Note_off_c, 0, 66, 0
2, 39936, Note_on_c, 0, 65, 93
2, 40032, Note_off_c, 0, 65, 0
2, 40320, Note_on_c, 0, 66, 93
2, 40416, Note_off_c, 0, 66, 0
2, 41184, Note_on_c, 0, 81, 93
2, 41280, Note_off_c, 0, 81, 0
2, 41280, Note_on_c, 0, 75, 93
2, 41376, Note_off_c, 0, 75, 0
2, 41376, Note_on_c, 0, 81, 93
2, 41472, Note_off_c, 0, 81, 0
2, 41472, Note_on_c, 0, 81, 93
2, 41568, Note_off_c, 0, 81, 0
2, 41568, Note_on_c, 0, 79, 93
2, 41616, Note_off_c, 0, 79, 0
2, 41616, Note_on_c, 0, 78, 93
2, 41664, Note_off_c, 0, 78, 0
2, 41664, Note_on_c, 0, 79, 93
2, 41712, Note_off_c, 0, 79, 0
2, 41712, Note_on_c, 0, 64, 93
2, 41760, Note_off_c, 0, 64, 0
2, 41760, Note_on_c, 0, 66, 93
2, 41808, Note_off_c, 0, 66, 0
2, 41808, Note_on_c, 0, 67, 93
2, 41856, Note_off_c, 0, 67, 0
2, 41952, Note_on_c, 0, 79, 93
2, 42048, Note_off_c, 0, 79, 0
2, 42048, Note_on_c, 0, 73, 93
2, 42144, Note_off_c, 0, 73, 0
2, 42144, Note_on_c, 0, 79, 93
2, 42240, Note_off_c, 0, 79, 0
2, 42240, Note_on_c, 0, 79, 93
2, 42336, Note_off_c, 0, 79, 0
2, 42336, Note_on_c, 0, 78, 93
2, 42384, Note_off_c, 0, 78, 0
2, 42384, Note_on_c, 0, 76, 93
2, 42432, Note_off_c, 0, 76, 0
2, 42432, Note_on_c, 0, 78, 93
2, 42480, Note_off_c, 0, 78, 0
2, 42480, Note_on_c, 0, 74, 93
2, 42528, Note_off_c, 0, 74, 0
2, 42528, Note_on_c, 0, 73, 93
2, 42576, Note_off_c, 0, 73, 0
2, 42576, Note_on_c, 0, 71, 93
2, 42624, Note_off_c, 0, 71, 0
2, 42624, Note_on_c, 0, 70, 93
2, 42720, Note_off_c, 0, 70, 0
2, 42720, Note_on_c, 0, 76, 93
2, 42816, Note_off_c, 0, 76, 0
2, 42816, Note_on_c, 0, 67, 93
2, 42912, Note_off_c, 0, 67, 0
2, 42912, Note_on_c, 0, 76, 93
2, 43008, Note_off_c, 0, 76, 0
2, 43008, Note_on_c, 0, 66, 93
2, 43056, Note_off_c, 0, 66, 0
2, 43056, Note_on_c, 0, 73, 93
2, 43104, Note_off_c, 0, 73, 0
2, 43104, Note_on_c, 0, 76, 93
2, 43152, Note_off_c, 0, 76, 0
2, 43152, Note_on_c, 0, 74, 93
2, 43200, Note_off_c, 0, 74, 0
2, 43200, Note_on_c, 0, 76, 93
2, 43248, Note_off_c, 0, 76, 0
2, 43248, Note_on_c, 0, 79, 93
2, 43296, Note_off_c, 0, 79, 0
2, 43296, Note_on_c, 0, 78, 93
2, 43344, Note_off_c, 0, 78, 0
2, 43344, Note_on_c, 0, 76, 93
2, 43392, Note_off_c, 0, 76, 0
2, 43392, Note_on_c, 0, 74, 93
2, 43440, Note_off_c, 0, 74, 0
2, 43440, Note_on_c, 0, 73, 93
2, 43488, Note_off_c, 0, 73, 0
2, 43488, Note_on_c, 0, 71, 93
2, 43536, Note_off_c, 0, 71, 0
2, 43536, Note_on_c, 0, 69, 93
2, 43584, Note_off_c, 0, 69, 0
2, 43584, Note_on_c, 0, 67, 93
2, 43632, Note_off_c, 0, 67, 0
2, 43632, Note_on_c, 0, 70, 93
2, 43680, Note_off_c, 0, 70, 0
2, 43680, Note_on_c, 0, 71, 93
2, 43728, Note_off_c, 0, 71, 0
2, 43728, Note_on_c, 0, 73, 93
2, 43776, Note_off_c, 0, 73, 0
2, 43776, Note_on_c, 0, 74, 93
2, 43824, Note_off_c, 0, 74, 0
2, 43824, Note_on_c, 0, 71, 93
2, 43872, Note_off_c, 0, 71, 0
2, 43872, Note_on_c, 0, 73, 93
2, 43920, Note_off_c, 0, 73, 0
2, 43920, Note_on_c, 0, 70, 93
2, 43968, Note_off_c, 0, 70, 0
2, 43968, Note_on_c, 0, 66, 93
2, 44016, Note_off_c, 0, 66, 0
2, 44016, Note_on_c, 0, 73, 93
2, 44064, Note_off_c, 0, 73, 0
2, 44064, Note_on_c, 0, 78, 93
2, 44112, Note_off_c, 0, 78, 0
2, 44112, Note_on_c, 0, 80, 93
2, 44160, Note_off_c, 0, 80, 0
2, 44160, Note_on_c, 0, 82, 93
2, 44208, Note_off_c, 0, 82, 0
2, 44208, Note_on_c, 0, 83, 93
2, 44256, Note_off_c, 0, 83, 0
2, 44256, Note_on_c, 0, 82, 93
2, 44304, Note_off_c, 0, 82, 0
2, 44304, Note_on_c, 0, 83, 93
2, 44352, Note_off_c, 0, 83, 0
2, 44352, Note_on_c, 0, 85, 93
2, 44400, Note_off_c, 0, 85, 0
2, 44400, Note_on_c, 0, 86, 93
2, 44448, Note_off_c, 0, 86, 0
2, 44448, Note_on_c, 0, 85, 93
2, 44496, Note_off_c, 0, 85, 0
2, 44496, Note_on_c, 0, 86, 93
2, 44544, Note_off_c, 0, 86, 0
2, 44544, Note_on_c, 0, 88, 93
2, 44592, Note_off_c, 0, 88, 0
2, 44592, Note_on_c, 0, 78, 93
2, 44640, Note_off_c, 0, 78, 0
2, 44640, Note_on_c, 0, 70, 93
2, 44688, Note_off_c, 0, 70, 0
2, 44688, Note_on_c, 0, 78, 93
2, 44736, Note_off_c, 0, 78, 0
2, 44736, Note_on_c, 0, 88, 93
2, 44784, Note_off_c, 0, 88, 0
2, 44784, Note_on_c, 0, 78, 93
2, 44832, Note_off_c, 0, 78, 0
2, 44832, Note_on_c, 0, 70, 93
2, 44880, Note_off_c, 0, 70, 0
2, 44880, Note_on_c, 0, 71, 93
2, 44928, Note_off_c, 0, 71, 0
2, 44928, Note_on_c, 0, 73, 93
2, 44976, Note_off_c, 0, 73, 0
2, 44976, Note_on_c, 0, 74, 93
2, 45024, Note_off_c, 0, 74, 0
2, 45024, Note_on_c, 0, 76, 93
2, 45072, Note_off_c, 0, 76, 0
2, 45072, Note_on_c, 0, 78, 93
2, 45120, Note_off_c, 0, 78, 0
2, 45120, Note_on_c, 0, 80, 93
2, 45168, Note_off_c, 0, 80, 0
2, 45168, Note_on_c, 0, 82, 93
2, 45216, Note_off_c, 0, 82, 0
2, 45216, Note_on_c, 0, 83, 93
2, 45264, Note_off_c, 0, 83, 0
2, 45264, Note_on_c, 0, 85, 93
2, 45312, Note_off_c, 0, 85, 0
2, 45312, Note_on_c, 0, 86, 93
2, 45360, Note_off_c, 0, 86, 0
2, 45360, Note_on_c, 0, 77, 93
2, 45408, Note_off_c, 0, 77, 0
2, 45408, Note_on_c, 0, 71, 93
2, 45456, Note_off_c, 0, 71, 0
2, 45456, Note_on_c, 0, 77, 93
2, 45504, Note_off_c, 0, 77, 0
2, 45504, Note_on_c, 0, 86, 93
2, 45552, Note_off_c, 0, 86, 0
2, 45552, Note_on_c, 0, 77, 93
2, 45600, Note_off_c, 0, 77, 0
2, 45600, Note_on_c, 0, 71, 93
2, 45648, Note_off_c, 0, 71, 0
2, 45648, Note_on_c, 0, 73, 93
2, 45696, Note_off_c, 0, 73, 0
2, 45696, Note_on_c, 0, 74, 93
2, 45744, Note_off_c, 0, 74, 0
2, 45744, Note_on_c, 0, 76, 93
2, 45792, Note_off_c, 0, 76, 0
2, 45792, Note_on_c, 0, 74, 93
2, 45840, Note_off_c, 0, 74, 0
2, 45840, Note_on_c, 0, 73, 93
2, 45888, Note_off_c, 0, 73, 0
2, 45888, Note_on_c, 0, 71, 93
2, 45936, Note_off_c, 0, 71, 0
2, 45936, Note_on_c, 0, 69, 93
2, 45984, Note_off_c, 0, 69, 0
2, 45984, Note_on_c, 0, 68, 93
2, 46032, Note_off_c, 0, 68, 0
2, 46032, Note_on_c, 0, 66, 93
2, 46080, Note_off_c, 0, 66, 0
2, 46080, Note_on_c, 0, 65, 93
2, 46128, Note_off_c, 0, 65, 0
2, 46128, Note_on_c, 0, 86, 93
2, 46176, Note_off_c, 0, 86, 0
2, 46176, Note_on_c, 0, 85, 93
2, 46224, Note_off_c, 0, 85, 0
2, 46224, Note_on_c, 0, 83, 93
2, 46272, Note_off_c, 0, 83, 0
2, 46272, Note_on_c, 0, 82, 93
2, 46320, Note_off_c, 0, 82, 0
2, 46320, Note_on_c, 0, 79, 93
2, 46368, Note_off_c, 0, 79, 0
2, 46368, Note_on_c, 0, 78, 93
2, 46416, Note_off_c, 0, 78, 0
2, 46416, Note_on_c, 0, 76, 93
2, 46464, Note_off_c, 0, 76, 0
2, 46464, Note_on_c, 0, 74, 93
2, 46512, Note_off_c, 0, 74, 0
2, 46512, Note_on_c, 0, 73, 93
2, 46560, Note_off_c, 0, 73, 0
2, 46560, Note_on_c, 0, 74, 93
2, 46608, Note_off_c, 0, 74, 0
2, 46608, Note_on_c, 0, 71, 93
2, 46656, Note_off_c, 0, 71, 0
2, 46656, Note_on_c, 0, 66, 93
2, 46752, Note_off_c, 0, 66, 0
2, 46752, Note_on_c, 0, 70, 93
2, 46848, Note_off_c, 0, 70, 0
2, 46848, Note_on_c, 0, 71, 93
2, 46944, Note_off_c, 0, 71, 0
2, 46944, Note_on_c, 0, 74, 93
2, 46992, Note_off_c, 0, 74, 0
2, 46992, Note_on_c, 0, 73, 93
2, 47040, Note_off_c, 0, 73, 0
2, 47040, Note_on_c, 0, 71, 93
2, 47136, Note_off_c, 0, 71, 0
2, 47328, Note_on_c, 0, 74, 93
2, 47376, Note_off_c, 0, 74, 0
2, 47376, Note_on_c, 0, 73, 93
2, 47424, Note_off_c, 0, 73, 0
2, 47424, Note_on_c, 0, 71, 93
2, 47472, Note_off_c, 0, 71, 0
2, 47472, Note_on_c, 0, 70, 93
2, 47520, Note_off_c, 0, 70, 0
2, 47520, Note_on_c, 0, 71, 93
2, 47616, Note_off_c, 0, 71, 0
2, 47616, Note_on_c, 0, 71, 93
2, 47712, Note_off_c, 0, 71, 0
2, 47712, Note_on_c, 0, 71, 93
2, 47760, Note_off_c, 0, 71, 0
2, 47760, Note_on_c, 0, 70, 93
2, 47808, Note_off_c, 0, 70, 0
2, 47808, Note_on_c, 0, 71, 93
2, 47904, Note_off_c, 0, 71, 0
2, 47904, Note_on_c, 0, 72, 93
2, 47952, Note_off_c, 0, 72, 0
2, 47952, Note_on_c, 0, 71, 93
2, 48000, Note_off_c, 0, 71, 0
2, 48000, Note_on_c, 0, 69, 93
2, 48048, Note_off_c, 0, 69, 0
2, 48048, Note_on_c, 0, 67, 93
2, 48096, Note_off_c, 0, 67, 0
2, 48096, Note_on_c, 0, 66, 93
2, 48144, Note_off_c, 0, 66, 0
2, 48144, Note_on_c, 0, 64, 93
2, 48192, Note_off_c, 0, 64, 0
2, 48192, Note_on_c, 0, 63, 93
2, 48240, Note_off_c, 0, 63, 0
2, 48240, Note_on_c, 0, 72, 93
2, 48288, Note_off_c, 0, 72, 0
2, 48288, Note_on_c, 0, 71, 93
2, 48336, Note_off_c, 0, 71, 0
2, 48336, Note_on_c, 0, 69, 93
2, 48384, Note_off_c, 0, 69, 0
2, 48384, Note_on_c, 0, 67, 93
2, 48432, Note_off_c, 0, 67, 0
2, 48432, Note_on_c, 0, 66, 93
2, 48480, Note_off_c, 0, 66, 0
2, 48480, Note_on_c, 0, 64, 93
2, 48528, Note_off_c, 0, 64, 0
2, 48528, Note_on_c, 0, 66, 93
2, 48576, Note_off_c, 0, 66, 0
2, 48576, Note_on_c, 0, 67, 93
2, 48624, Note_off_c, 0, 67, 0
2, 48624, Note_on_c, 0, 69, 93
2, 48672, Note_off_c, 0, 69, 0
2, 48672, Note_on_c, 0, 71, 93
2, 48720, Note_off_c, 0, 71, 0
2, 48720, Note_on_c, 0, 73, 93
2, 48768, Note_off_c, 0, 73, 0
2, 48768, Note_on_c, 0, 74, 93
2, 48816, Note_off_c, 0, 74, 0
2, 48816, Note_on_c, 0, 78, 93
2, 48864, Note_off_c, 0, 78, 0
2, 48864, Note_on_c, 0, 83, 93
2, 48912, Note_off_c, 0, 83, 0
2, 48912, Note_on_c, 0, 80, 93
2, 48960, Note_off_c, 0, 80, 0
2, 48960, Note_on_c, 0, 77, 93
2, 49008, Note_off_c, 0, 77, 0
2, 49008, Note_on_c, 0, 73, 93
2, 49056, Note_off_c, 0, 73, 0
2, 49056, Note_on_c, 0, 86, 93
2, 49104, Note_off_c, 0, 86, 0
2, 49104, Note_on_c, 0, 85, 93
2, 49152, Note_off_c, 0, 85, 0
2, 49152, Note_on_c, 0, 83, 93
2, 49200, Note_off_c, 0, 83, 0
2, 49200, Note_on_c, 0, 82, 93
2, 49248, Note_off_c, 0, 82, 0
2, 49248, Note_on_c, 0, 83, 93
2, 49296, Note_off_c, 0, 83, 0
2, 49296, Note_on_c, 0, 85, 93
2, 49344, Note_off_c, 0, 85, 0
2, 49344, Note_on_c, 0, 78, 93
2, 49440, Note_off_c, 0, 78, 0
2, 49440, Note_on_c, 0, 85, 93
2, 49488, Note_off_c, 0, 85, 0
2, 49488, Note_on_c, 0, 74, 93
2, 49536, Note_off_c, 0, 74, 0
2, 49536, Note_on_c, 0, 76, 93
2, 49632, Note_off_c, 0, 76, 0
2, 49632, Note_on_c, 0, 85, 93
2, 49680, Note_off_c, 0, 85, 0
2, 49680, Note_on_c, 0, 74, 93
2, 49728, Note_off_c, 0, 74, 0
2, 49728, Note_on_c, 0, 76, 93
2, 49824, Note_off_c, 0, 76, 0
2, 49824, Note_on_c, 0, 85, 93
2, 49872, Note_off_c, 0, 85, 0
2, 49872, Note_on_c, 0, 74, 93
2, 49920, Note_off_c, 0, 74, 0
2, 49920, Note_on_c, 0, 76, 93
2, 50016, Note_off_c, 0, 76, 0
2, 50016, Note_on_c, 0, 79, 93
2, 50064, Note_off_c, 0, 79, 0
2, 50064, Note_on_c, 0, 78, 93
2, 50112, Note_off_c, 0, 78, 0
2, 50112, Note_on_c, 0, 79, 93
2, 50352, Note_off_c, 0, 79, 0
2, 50352, Note_on_c, 0, 78, 93
2, 50400, Note_off_c, 0, 78, 0
2, 50400, Note_on_c, 0, 76, 93
2, 50448, Note_off_c, 0, 76, 0
2, 50448, Note_on_c, 0, 74, 93
2, 50496, Note_off_c, 0, 74, 0
2, 50496, Note_on_c, 0, 73, 93
2, 50544, Note_off_c, 0, 73, 0
2, 50544, Note_on_c, 0, 71, 93
2, 50592, Note_off_c, 0, 71, 0
2, 50592, Note_on_c, 0, 70, 93
2, 50640, Note_off_c, 0, 70, 0
2, 50640, Note_on_c, 0, 73, 93
2, 50688, Note_off_c, 0, 73, 0
2, 50688, Note_on_c, 0, 64, 93
2, 50736, Note_off_c, 0, 64, 0
2, 50736, Note_on_c, 0, 67, 93
2, 50784, Note_off_c, 0, 67, 0
2, 50784, Note_on_c, 0, 66, 93
2, 50832, Note_off_c, 0, 66, 0
2, 50832, Note_on_c, 0, 64, 93
2, 50880, Note_off_c, 0, 64, 0
2, 50880, Note_on_c, 0, 62, 93
2, 50928, Note_off_c, 0, 62, 0
2, 50928, Note_on_c, 0, 61, 93
2, 50976, Note_off_c, 0, 61, 0
2, 50976, Note_on_c, 0, 59, 93
2, 51024, Note_off_c, 0, 59, 0
2, 51024, Note_on_c, 0, 58, 93
2, 51072, Note_off_c, 0, 58, 0
2, 51072, Note_on_c, 0, 59, 93
2, 51168, Note_off_c, 0, 59, 0
2, 51264, Note_on_c, 0, 59, 93
2, 51360, Note_off_c, 0, 59, 0
2, 51360, End_track
3, 0, Start_track
3, 0, Title_t, "Track3"
3, 0, Program_c, 1, 40
3, 0, Control_c, 1, 7, 100
3, 0, Control_c, 1, 10, 59
3, 384, Note_on_c, 1, 74, 93
3, 480, Note_off_c, 1, 74, 0
3, 576, Note_on_c, 1, 74, 93
3, 672, Note_off_c, 1, 74, 0
3, 768, Note_on_c, 1, 73, 93
3, 864, Note_off_c, 1, 73, 0
3, 1056, Note_on_c, 1, 70, 93
3, 1152, Note_off_c, 1, 70, 0
3, 1152, Note_on_c, 1, 71, 93
3, 1248, Note_off_c, 1, 71, 0
3, 1248, Note_on_c, 1, 73, 93
3, 1344, Note_off_c, 1, 73, 0
3, 1536, Note_on_c, 1, 66, 93
3, 1632, Note_off_c, 1, 66, 0
3, 2304, Note_on_c, 1, 67, 93
3, 2400, Note_off_c, 1, 67, 0
3, 3072, Note_on_c, 1, 66, 93
3, 3168, Note_off_c, 1, 66, 0
3, 3840, Note_on_c, 1, 67, 93
3, 3936, Note_off_c, 1, 67, 0
3, 4320, Note_on_c, 1, 66, 93
3, 4416, Note_off_c, 1, 66, 0
3, 4416, Note_on_c, 1, 67, 93
3, 4512, Note_off_c, 1, 67, 0
3, 4512, Note_on_c, 1, 69, 93
3, 4608, Note_off_c, 1, 69, 0
3, 4608, Note_on_c, 1, 69, 93
3, 4704, Note_off_c, 1, 69, 0
3, 4896, Note_on_c, 1, 68, 93
3, 4992, Note_off_c, 1, 68, 0
3, 4992, Note_on_c, 1, 67, 93
3, 5088, Note_off_c, 1, 67, 0
3, 5280, Note_on_c, 1, 66, 93
3, 5376, Note_off_c, 1, 66, 0
3, 5376, Note_on_c, 1, 67, 93
3, 5472, Note_off_c, 1, 67, 0
3, 5472, Note_on_c, 1, 66, 93
3, 5568, Note_off_c, 1, 66, 0
3, 5568, Note_on_c, 1, 64, 93
3, 5664, Note_off_c, 1, 64, 0
3, 5664, Note_on_c, 1, 62, 93
3, 5760, Note_off_c, 1, 62, 0
3, 5760, Note_on_c, 1, 61, 93
3, 5856, Note_off_c, 1, 61, 0
3, 6144, Note_on_c, 1, 61, 93
3, 6240, Note_off_c, 1, 61, 0
3, 6336, Note_on_c, 1, 59, 93
3, 6432, Note_off_c, 1, 59, 0
3, 6528, Note_on_c, 1, 57, 93
3, 6624, Note_off_c, 1, 57, 0
3, 7488, Note_on_c, 1, 69, 93
3, 7584, Note_off_c, 1, 69, 0
3, 7584, Note_on_c, 1, 67, 93
3, 7680, Note_off_c, 1, 67, 0
3, 7680, Note_on_c, 1, 66, 93
3, 7968, Note_off_c, 1, 66, 0
3, 8064, Note_on_c, 1, 74, 93
3, 8160, Note_off_c, 1, 74, 0
3, 8256, Note_on_c, 1, 74, 93
3, 8352, Note_off_c, 1, 74, 0
3, 8448, Note_on_c, 1, 73, 93
3, 8544, Note_off_c, 1, 73, 0
3, 8736, Note_on_c, 1, 70, 93
3, 8832, Note_off_c, 1, 70, 0
3, 8832, Note_on_c, 1, 71, 93
3, 8928, Note_off_c, 1, 71, 0
3, 8928, Note_on_c, 1, 73, 93
3, 9024, Note_off_c, 1, 73, 0
3, 9216, Note_on_c, 1, 66, 93
3, 9312, Note_off_c, 1, 66, 0
3, 9984, Note_on_c, 1, 67, 93
3, 10080, Note_off_c, 1, 67, 0
3, 10752, Note_on_c, 1, 66, 93
3, 10848, Note_off_c, 1, 66, 0
3, 11520, Note_on_c, 1, 67, 93
3, 11616, Note_off_c, 1, 67, 0
3, 12000, Note_on_c, 1, 66, 93
3, 12096, Note_off_c, 1, 66, 0
3, 12096, Note_on_c, 1, 67, 93
3, 12192, Note_off_c, 1, 67, 0
3, 12192, Note_on_c, 1, 69, 93
3, 12288, Note_off_c, 1, 69, 0
3, 12288, Note_on_c, 1, 69, 93
3, 12384, Note_off_c, 1, 69, 0
3, 12576, Note_on_c, 1, 68, 93
3, 12672, Note_off_c, 1, 68, 0
3, 12672, Note_on_c, 1, 67, 93
3, 12768, Note_off_c, 1, 67, 0
3, 12960, Note_on_c, 1, 66, 93
3, 13056, Note_off_c, 1, 66, 0
3, 13056, Note_on_c, 1, 67, 93
3, 13152, Note_off_c, 1, 67, 0
3, 13152, Note_on_c, 1, 66, 93
3, 13248, Note_off_c, 1, 66, 0
3, 13248, Note_on_c, 1, 64, 93
3, 13344, Note_off_c, 1, 64, 0
3, 13344, Note_on_c, 1, 62, 93
3, 13440, Note_off_c, 1, 62, 0
3, 13440, Note_on_c, 1, 61, 93
3, 13536, Note_off_c, 1, 61, 0
3, 13824, Note_on_c, 1, 61, 93
3, 13920, Note_off_c, 1, 61, 0
3, 14016, Note_on_c, 1, 59, 93
3, 14112, Note_off_c, 1, 59, 0
3, 14208, Note_on_c, 1, 57, 93
3, 14304, Note_off_c, 1, 57, 0
3, 15168, Note_on_c, 1, 69, 93
3, 15264, Note_off_c, 1, 69, 0
3, 15264, Note_on_c, 1, 67, 93
3, 15360, Note_off_c, 1, 67, 0
3, 15360, Note_on_c, 1, 66, 93
3, 15648, Note_off_c, 1, 66, 0
3, 15648, Note_on_c, 1, 74, 93
3, 15744, Note_off_c, 1, 74, 0
3, 15744, Note_on_c, 1, 73, 93
3, 15840, Note_off_c, 1, 73, 0
3, 15840, Note_on_c, 1, 74, 93
3, 15936, Note_off_c, 1, 74, 0
3, 15936, Note_on_c, 1, 76, 93
3, 16032, Note_off_c, 1, 76, 0
3, 16032, Note_on_c, 1, 74, 93
3, 16128, Note_off_c, 1, 74, 0
3, 16128, Note_on_c, 1, 73, 93
3, 16224, Note_off_c, 1, 73, 0
3, 16416, Note_on_c, 1, 74, 93
3, 16512, Note_off_c, 1, 74, 0
3, 17280, Note_on_c, 1, 71, 93
3, 17376, Note_off_c, 1, 71, 0
3, 17376, Note_on_c, 1, 71, 93
3, 17472, Note_off_c, 1, 71, 0
3, 21408, Note_on_c, 1, 74, 93
3, 21504, Note_off_c, 1, 74, 0
3, 21504, Note_on_c, 1, 73, 93
3, 21552, Note_off_c, 1, 73, 0
3, 21552, Note_on_c, 1, 75, 93
3, 21600, Note_off_c, 1, 75, 0
3, 21600, Note_on_c, 1, 77, 93
3, 21648, Note_off_c, 1, 77, 0
3, 21648, Note_on_c, 1, 78, 93
3, 21696, Note_off_c, 1, 78, 0
3, 21696, Note_on_c, 1, 80, 93
3, 21744, Note_off_c, 1, 80, 0
3, 21744, Note_on_c, 1, 81, 93
3, 21792, Note_off_c, 1, 81, 0
3, 21792, Note_on_c, 1, 83, 93
3, 21840, Note_off_c, 1, 83, 0
3, 21840, Note_on_c, 1, 80, 93
3, 21888, Note_off_c, 1, 80, 0
3, 21888, Note_on_c, 1, 83, 93
3, 21936, Note_off_c, 1, 83, 0
3, 21936, Note_on_c, 1, 81, 93
3, 21984, Note_off_c, 1, 81, 0
3, 21984, Note_on_c, 1, 80, 93
3, 22032, Note_off_c, 1, 80, 0
3, 22032, Note_on_c, 1, 78, 93
3, 22080, Note_off_c, 1, 78, 0
3, 22080, Note_on_c, 1, 73, 93
3, 22176, Note_off_c, 1, 73, 0
3, 22176, Note_on_c, 1, 77, 93
3, 22272, Note_off_c, 1, 77, 0
3, 22272, Note_on_c, 1, 78, 93
3, 22368, Note_off_c, 1, 78, 0
3, 22368, Note_on_c, 1, 66, 93
3, 22416, Note_off_c, 1, 66, 0
3, 22416, Note_on_c, 1, 67, 93
3, 22464, Note_off_c, 1, 67, 0
3, 22464, Note_on_c, 1, 66, 93
3, 22512, Note_off_c, 1, 66, 0
3, 22512, Note_on_c, 1, 64, 93
3, 22560, Note_off_c, 1, 64, 0
3, 22560, Note_on_c, 1, 63, 93
3, 22608, Note_off_c, 1, 63, 0
3, 22608, Note_on_c, 1, 61, 93
3, 22656, Note_off_c, 1, 61, 0
3, 22656, Note_on_c, 1, 59, 93
3, 22752, Note_off_c, 1, 59, 0
3, 22848, Note_on_c, 1, 59, 93
3, 22944, Note_off_c, 1, 59, 0
3, 23040, Note_on_c, 1, 64, 93
3, 23136, Note_off_c, 1, 64, 0
3, 23424, Note_on_c, 1, 57, 93
3, 23520, Note_off_c, 1, 57, 0
3, 23616, Note_on_c, 1, 57, 93
3, 23712, Note_off_c, 1, 57, 0
3, 23808, Note_on_c, 1, 62, 93
3, 23904, Note_off_c, 1, 62, 0
3, 24192, Note_on_c, 1, 61, 93
3, 24288, Note_off_c, 1, 61, 0
3, 24384, Note_on_c, 1, 59, 93
3, 24480, Note_off_c, 1, 59, 0
3, 24576, Note_on_c, 1, 58, 93
3, 24672, Note_off_c, 1, 58, 0
3, 28416, Note_on_c, 1, 66, 93
3, 28512, Note_off_c, 1, 66, 0
3, 29184, Note_on_c, 1, 78, 93
3, 29280, Note_off_c, 1, 78, 0
3, 31104, Note_on_c, 1, 66, 93
3, 31200, Note_off_c, 1, 66, 0
3, 31296, Note_on_c, 1, 68, 93
3, 31392, Note_off_c, 1, 68, 0
3, 31488, Note_on_c, 1, 70, 93
3, 31584, Note_off_c, 1, 70, 0
3, 32640, Note_on_c, 1, 66, 93
3, 32736, Note_off_c, 1, 66, 0
3, 32832, Note_on_c, 1, 66, 93
3, 32928, Note_off_c, 1, 66, 0
3, 33024, Note_on_c, 1, 70, 93
3, 33120, Note_off_c, 1, 70, 0
3, 33312, Note_on_c, 1, 70, 93
3, 33408, Note_off_c, 1, 70, 0
3, 33408, Note_on_c, 1, 71, 93
3, 33504, Note_off_c, 1, 71, 0
3, 33504, Note_on_c, 1, 64, 93
3, 33600, Note_off_c, 1, 64, 0
3, 33600, Note_on_c, 1, 66, 93
3, 33696, Note_off_c, 1, 66, 0
3, 33696, Note_on_c, 1, 66, 93
3, 33792, Note_off_c, 1, 66, 0
3, 33792, Note_on_c, 1, 59, 93
3, 34080, Note_off_c, 1, 59, 0
3, 34080, Note_on_c, 1, 74, 93
3, 34176, Note_off_c, 1, 74, 0
3, 34176, Note_on_c, 1, 73, 93
3, 34272, Note_off_c, 1, 73, 0
3, 34272, Note_on_c, 1, 74, 93
3, 34368, Note_off_c, 1, 74, 0
3, 34368, Note_on_c, 1, 76, 93
3, 34464, Note_off_c, 1, 76, 0
3, 34464, Note_on_c, 1, 74, 93
3, 34560, Note_off_c, 1, 74, 0
3, 34560, Note_on_c, 1, 73, 93
3, 34656, Note_off_c, 1, 73, 0
3, 34848, Note_on_c, 1, 74, 93
3, 34944, Note_off_c, 1, 74, 0
3, 35712, Note_on_c, 1, 71, 93
3, 35808, Note_off_c, 1, 71, 0
3, 35808, Note_on_c, 1, 71, 93
3, 35904, Note_off_c, 1, 71, 0
3, 39840, Note_on_c, 1, 74, 93
3, 39936, Note_off_c, 1, 74, 0
3, 39936, Note_on_c, 1, 73, 93
3, 39984, Note_off_c, 1, 73, 0
3, 39984, Note_on_c, 1, 75, 93
3, 40032, Note_off_c, 1, 75, 0
3, 40032, Note_on_c, 1, 77, 93
3, 40080, Note_off_c, 1, 77, 0
3, 40080, Note_on_c, 1, 78, 93
3, 40128, Note_off_c, 1, 78, 0
3, 40128, Note_on_c, 1, 80, 93
3, 40176, Note_off_c, 1, 80, 0
3, 40176, Note_on_c, 1, 81, 93
3, 40224, Note_off_c, 1, 81, 0
3, 40224, Note_on_c, 1, 83, 93
3, 40272, Note_off_c, 1, 83, 0
3, 40272, Note_on_c, 1, 80, 93
3, 40320, Note_off_c, 1, 80, 0
3, 40320, Note_on_c, 1, 83, 93
3, 40368, Note_off_c, 1, 83, 0
3, 40368, Note_on_c, 1, 81, 93
3, 40416, Note_off_c, 1, 81, 0
3, 40416, Note_on_c, 1, 80, 93
3, 40464, Note_off_c, 1, 80, 0
3, 40464, Note_on_c, 1, 78, 93
3, 40512, Note_off_c, 1, 78, 0
3, 40512, Note_on_c, 1, 73, 93
3, 40608, Note_off_c, 1, 73, 0
3, 40608, Note_on_c, 1, 77, 93
3, 40704, Note_off_c, 1, 77, 0
3, 40704, Note_on_c, 1, 78, 93
3, 40800, Note_off_c, 1, 78, 0
3, 40800, Note_on_c, 1, 66, 93
3, 40848, Note_off_c, 1, 66, 0
3, 40848, Note_on_c, 1, 67, 93
3, 40896, Note_off_c, 1, 67, 0
3, 40896, Note_on_c, 1, 66, 93
3, 40944, Note_off_c, 1, 66, 0
3, 40944, Note_on_c, 1, 64, 93
3, 40992, Note_off_c, 1, 64, 0
3, 40992, Note_on_c, 1, 63, 93
3, 41040, Note_off_c, 1, 63, 0
3, 41040, Note_on_c, 1, 61, 93
3, 41088, Note_off_c, 1, 61, 0
3, 41088, Note_on_c, 1, 59, 93
3, 41184, Note_off_c, 1, 59, 0
3, 41280, Note_on_c, 1, 59, 93
3, 41376, Note_off_c, 1, 59, 0
3, 41472, Note_on_c, 1, 64, 93
3, 41568, Note_off_c, 1, 64, 0
3, 41856, Note_on_c, 1, 57, 93
3, 41952, Note_off_c, 1, 57, 0
3, 42048, Note_on_c, 1, 57, 93
3, 42144, Note_off_c, 1, 57, 0
3, 42240, Note_on_c, 1, 62, 93
3, 42336, Note_off_c, 1, 62, 0
3, 42624, Note_on_c, 1, 61, 93
3, 42720, Note_off_c, 1, 61, 0
3, 42816, Note_on_c, 1, 59, 93
3, 42912, Note_off_c, 1, 59, 0
3, 43008, Note_on_c, 1, 58, 93
3, 43104, Note_off_c, 1, 58, 0
3, 46848, Note_on_c, 1, 66, 93
3, 46944, Note_off_c, 1, 66, 0
3, 47616, Note_on_c, 1, 78, 93
3, 47712, Note_off_c, 1, 78, 0
3, 49536, Note_on_c, 1, 66, 93
3, 49632, Note_off_c, 1, 66, 0
3, 49728, Note_on_c, 1, 68, 93
3, 49824, Note_off_c, 1, 68, 0
3, 49920, Note_on_c, 1, 70, 93
3, 50016, Note_off_c, 1, 70, 0
3, 51072, Note_on_c, 1, 66, 93
3, 51168, Note_off_c, 1, 66, 0
3, 51264, Note_on_c, 1, 66, 93
3, 51360, Note_off_c, 1, 66, 0
3, 51456, Note_on_c, 1, 70, 93
3, 51552, Note_off_c, 1, 70, 0
3, 51744, Note_on_c, 1, 70, 93
3, 51840, Note_off_c, 1, 70, 0
3, 51840, Note_on_c, 1, 71, 93
3, 51936, Note_off_c, 1, 71, 0
3, 51936, Note_on_c, 1, 64, 93
3, 52032, Note_off_c, 1, 64, 0
3, 52032, Note_on_c, 1, 66, 93
3, 52128, Note_off_c, 1, 66, 0
3, 52128, Note_on_c, 1, 66, 93
3, 52224, Note_off_c, 1, 66, 0
3, 52224, Note_on_c, 1, 59, 93
3, 52512, Note_off_c, 1, 59, 0
3, 52512, End_track
4, 0, Start_track
4, 0, Title_t, "Track4"
4, 0, Program_c, 2, 40
4, 0, Control_c, 2, 7, 100
4, 0, Control_c, 2, 10, 79
4, 384, Note_on_c, 2, 66, 93
4, 480, Note_off_c, 2, 66, 0
4, 576, Note_on_c, 2, 66, 93
4, 672, Note_off_c, 2, 66, 0
4, 768, Note_on_c, 2, 70, 93
4, 864, Note_off_c, 2, 70, 0
4, 1056, Note_on_c, 2, 64, 93
4, 1152, Note_off_c, 2, 64, 0
4, 1152, Note_on_c, 2, 62, 93
4, 1248, Note_off_c, 2, 62, 0
4, 1248, Note_on_c, 2, 64, 93
4, 1344, Note_off_c, 2, 64, 0
4, 1344, Note_on_c, 2, 66, 93
4, 1536, Note_off_c, 2, 66, 0
4, 1536, Note_on_c, 2, 59, 93
4, 1632, Note_off_c, 2, 59, 0
4, 2016, Note_on_c, 2, 59, 93
4, 2112, Note_off_c, 2, 59, 0
4, 2112, Note_on_c, 2, 59, 93
4, 2208, Note_off_c, 2, 59, 0
4, 2304, Note_on_c, 2, 57, 93
4, 2400, Note_off_c, 2, 57, 0
4, 2784, Note_on_c, 2, 57, 93
4, 2880, Note_off_c, 2, 57, 0
4, 2880, Note_on_c, 2, 57, 93
4, 2976, Note_off_c, 2, 57, 0
4, 3072, Note_on_c, 2, 55, 93
4, 3168, Note_off_c, 2, 55, 0
4, 4608, Note_on_c, 2, 59, 93
4, 4704, Note_off_c, 2, 59, 0
4, 4992, Note_on_c, 2, 57, 93
4, 5088, Note_off_c, 2, 57, 0
4, 5280, Note_on_c, 2, 57, 93
4, 5376, Note_off_c, 2, 57, 0
4, 5376, Note_on_c, 2, 55, 93
4, 5472, Note_off_c, 2, 55, 0
4, 7584, Note_on_c, 2, 57, 93
4, 7680, Note_off_c, 2, 57, 0
4, 7680, Note_on_c, 2, 62, 93
4, 7968, Note_off_c, 2, 62, 0
4, 8064, Note_on_c, 2, 66, 93
4, 8160, Note_off_c, 2, 66, 0
4, 8256, Note_on_c, 2, 66, 93
4, 8352, Note_off_c, 2, 66, 0
4, 8448, Note_on_c, 2, 70, 93
4, 8544, Note_off_c, 2, 70, 0
4, 8736, Note_on_c, 2, 64, 93
4, 8832, Note_off_c, 2, 64, 0
4, 8832, Note_on_c, 2, 62, 93
4, 8928, Note_off_c, 2, 62, 0
4, 8928, Note_on_c, 2, 64, 93
4, 9024, Note_off_c, 2, 64, 0
4, 9024, Note_on_c, 2, 66, 93
4, 9216, Note_off_c, 2, 66, 0
4, 9216, Note_on_c, 2, 59, 93
4, 9312, Note_off_c, 2, 59, 0
4, 9696, Note_on_c, 2, 59, 93
4, 9792, Note_off_c, 2, 59, 0
4, 9792, Note_on_c, 2, 59, 93
4, 9888, Note_off_c, 2, 59, 0
4, 9984, Note_on_c, 2, 57, 93
4, 10080, Note_off_c, 2, 57, 0
4, 10464, Note_on_c, 2, 57, 93
4, 10560, Note_off_c, 2, 57, 0
4, 10560, Note_on_c, 2, 57, 93
4, 10656, Note_off_c, 2, 57, 0
4, 10752, Note_on_c, 2, 55, 93
4, 10848, Note_off_c, 2, 55, 0
4, 12288, Note_on_c, 2, 59, 93
4, 12384, Note_off_c, 2, 59, 0
4, 12672, Note_on_c, 2, 57, 93
4, 12768, Note_off_c, 2, 57, 0
4, 12960, Note_on_c, 2, 57, 93
4, 13056, Note_off_c, 2, 57, 0
4, 13056, Note_on_c, 2, 55, 93
4, 13152, Note_off_c, 2, 55, 0
4, 15264, Note_on_c, 2, 57, 93
4, 15360, Note_off_c, 2, 57, 0
4, 15360, Note_on_c, 2, 62, 93
4, 15648, Note_off_c, 2, 62, 0
4, 15648, Note_on_c, 2, 62, 93
4, 15744, Note_off_c, 2, 62, 0
4, 15744, Note_on_c, 2, 69, 93
4, 15840, Note_off_c, 2, 69, 0
4, 15936, Note_on_c, 2, 69, 93
4, 16032, Note_off_c, 2, 69, 0
4, 16128, Note_on_c, 2, 69, 93
4, 16224, Note_off_c, 2, 69, 0
4, 16416, Note_on_c, 2, 66, 93
4, 16512, Note_off_c, 2, 66, 0
4, 16512, Note_on_c, 2, 64, 93
4, 16608, Note_off_c, 2, 64, 0
4, 16608, Note_on_c, 2, 66, 93
4, 16704, Note_off_c, 2, 66, 0
4, 16704, Note_on_c, 2, 67, 93
4, 16800, Note_off_c, 2, 67, 0
4, 16800, Note_on_c, 2, 66, 93
4, 16896, Note_off_c, 2, 66, 0
4, 16896, Note_on_c, 2, 64, 93
4, 16992, Note_off_c, 2, 64, 0
4, 16992, Note_on_c, 2, 64, 93
4, 17040, Note_off_c, 2, 64, 0
4, 17040, Note_on_c, 2, 62, 93
4, 17088, Note_off_c, 2, 62, 0
4, 17088, Note_on_c, 2, 64, 93
4, 17184, Note_off_c, 2, 64, 0
4, 17184, Note_on_c, 2, 66, 93
4, 17280, Note_off_c, 2, 66, 0
4, 17280, Note_on_c, 2, 67, 93
4, 17376, Note_off_c, 2, 67, 0
4, 17568, Note_on_c, 2, 69, 93
4, 17664, Note_off_c, 2, 69, 0
4, 17664, Note_on_c, 2, 67, 93
4, 17712, Note_off_c, 2, 67, 0
4, 17712, Note_on_c, 2, 66, 93
4, 17760, Note_off_c, 2, 66, 0
4, 17760, Note_on_c, 2, 67, 93
4, 17856, Note_off_c, 2, 67, 0
4, 17856, Note_on_c, 2, 67, 93
4, 17952, Note_off_c, 2, 67, 0
4, 17952, Note_on_c, 2, 76, 93
4, 18000, Note_off_c, 2, 76, 0
4, 18000, Note_on_c, 2, 75, 93
4, 18048, Note_off_c, 2, 75, 0
4, 18048, Note_on_c, 2, 76, 93
4, 18144, Note_off_c, 2, 76, 0
4, 18144, Note_on_c, 2, 76, 93
4, 18240, Note_off_c, 2, 76, 0
4, 18720, Note_on_c, 2, 71, 93
4, 18816, Note_off_c, 2, 71, 0
4, 18816, Note_on_c, 2, 73, 93
4, 18912, Note_off_c, 2, 73, 0
4, 18912, Note_on_c, 2, 79, 93
4, 19008, Note_off_c, 2, 79, 0
4, 19008, Note_on_c, 2, 73, 93
4, 19104, Note_off_c, 2, 73, 0
4, 19104, Note_on_c, 2, 79, 93
4, 19200, Note_off_c, 2, 79, 0
4, 19200, Note_on_c, 2, 79, 93
4, 19296, Note_off_c, 2, 79, 0
4, 19296, Note_on_c, 2, 78, 93
4, 19344, Note_off_c, 2, 78, 0
4, 19344, Note_on_c, 2, 76, 93
4, 19392, Note_off_c, 2, 76, 0
4, 19392, Note_on_c, 2, 78, 93
4, 19488, Note_off_c, 2, 78, 0
4, 19488, Note_on_c, 2, 83, 93
4, 19584, Note_off_c, 2, 83, 0
4, 19584, Note_on_c, 2, 73, 93
4, 19680, Note_off_c, 2, 73, 0
4, 19680, Note_on_c, 2, 83, 93
4, 19776, Note_off_c, 2, 83, 0
4, 19776, Note_on_c, 2, 73, 93
4, 19872, Note_off_c, 2, 73, 0
4, 19872, Note_on_c, 2, 81, 93
4, 19968, Note_off_c, 2, 81, 0
4, 19968, Note_on_c, 2, 80, 93
4, 20016, Note_off_c, 2, 80, 0
4, 20016, Note_on_c, 2, 78, 93
4, 20064, Note_off_c, 2, 78, 0
4, 20064, Note_on_c, 2, 77, 93
4, 20112, Note_off_c, 2, 77, 0
4, 20112, Note_on_c, 2, 75, 93
4, 20160, Note_off_c, 2, 75, 0
4, 20160, Note_on_c, 2, 73, 93
4, 20256, Note_off_c, 2, 73, 0
4, 20256, Note_on_c, 2, 85, 93
4, 20304, Note_off_c, 2, 85, 0
4, 20304, Note_on_c, 2, 83, 93
4, 20352, Note_off_c, 2, 83, 0
4, 20352, Note_on_c, 2, 85, 93
4, 20448, Note_off_c, 2, 85, 0
4, 20448, Note_on_c, 2, 76, 93
4, 20544, Note_off_c, 2, 76, 0
4, 20544, Note_on_c, 2, 76, 93
4, 20640, Note_off_c, 2, 76, 0
4, 20640, Note_on_c, 2, 85, 93
4, 20736, Note_off_c, 2, 85, 0
4, 20736, Note_on_c, 2, 76, 93
4, 20832, Note_off_c, 2, 76, 0
4, 20832, Note_on_c, 2, 74, 93
4, 20880, Note_off_c, 2, 74, 0
4, 20880, Note_on_c, 2, 73, 93
4, 20928, Note_off_c, 2, 73, 0
4, 20928, Note_on_c, 2, 74, 93
4, 21024, Note_off_c, 2, 74, 0
4, 21024, Note_on_c, 2, 83, 93
4, 21072, Note_off_c, 2, 83, 0
4, 21072, Note_on_c, 2, 82, 93
4, 21120, Note_off_c, 2, 82, 0
4, 21120, Note_on_c, 2, 83, 93
4, 21216, Note_off_c, 2, 83, 0
4, 21216, Note_on_c, 2, 74, 93
4, 21312, Note_off_c, 2, 74, 0
4, 21312, Note_on_c, 2, 74, 93
4, 21408, Note_off_c, 2, 74, 0
4, 21408, Note_on_c, 2, 83, 93
4, 21504, Note_off_c, 2, 83, 0
4, 21888, Note_on_c, 2, 73, 93
4, 21984, Note_off_c, 2, 73, 0
4, 22848, Note_on_c, 2, 66, 93
4, 22944, Note_off_c, 2, 66, 0
4, 23040, Note_on_c, 2, 71, 93
4, 23136, Note_off_c, 2, 71, 0
4, 23616, Note_on_c, 2, 64, 93
4, 23712, Note_off_c, 2, 64, 0
4, 23808, Note_on_c, 2, 69, 93
4, 23904, Note_off_c, 2, 69, 0
4, 28416, Note_on_c, 2, 59, 93
4, 28512, Note_off_c, 2, 59, 0
4, 28704, Note_on_c, 2, 59, 93
4, 28752, Note_off_c, 2, 59, 0
4, 28752, Note_on_c, 2, 57, 93
4, 28800, Note_off_c, 2, 57, 0
4, 28800, Note_on_c, 2, 55, 93
4, 28896, Note_off_c, 2, 55, 0
4, 29184, Note_on_c, 2, 62, 93
4, 29280, Note_off_c, 2, 62, 0
4, 32640, Note_on_c, 2, 74, 93
4, 32736, Note_off_c, 2, 74, 0
4, 32832, Note_on_c, 2, 74, 93
4, 32928, Note_off_c, 2, 74, 0
4, 33024, Note_on_c, 2, 73, 93
4, 33120, Note_off_c, 2, 73, 0
4, 33312, Note_on_c, 2, 76, 93
4, 33408, Note_off_c, 2, 76, 0
4, 33792, Note_on_c, 2, 66, 93
4, 34080, Note_off_c, 2, 66, 0
4, 34080, Note_on_c, 2, 62, 93
4, 34176, Note_off_c, 2, 62, 0
4, 34176, Note_on_c, 2, 69, 93
4, 34272, Note_off_c, 2, 69, 0
4, 34368, Note_on_c, 2, 69, 93
4, 34464, Note_off_c, 2, 69, 0
4, 34560, Note_on_c, 2, 69, 93
4, 34656, Note_off_c, 2, 69, 0
4, 34848, Note_on_c, 2, 66, 93
4, 34944, Note_off_c, 2, 66, 0
4, 34944, Note_on_c, 2, 64, 93
4, 35040, Note_off_c, 2, 64, 0
4, 35040, Note_on_c, 2, 66, 93
4, 35136, Note_off_c, 2, 66, 0
4, 35136, Note_on_c, 2, 67, 93
4, 35232, Note_off_c, 2, 67, 0
4, 35232, Note_on_c, 2, 66, 93
4, 35328, Note_off_c, 2, 66, 0
4, 35328, Note_on_c, 2, 64, 93
4, 35424, Note_off_c, 2, 64, 0
4, 35424, Note_on_c, 2, 64, 93
4, 35472, Note_off_c, 2, 64, 0
4, 35472, Note_on_c, 2, 62, 93
4, 35520, Note_off_c, 2, 62, 0
4, 35520, Note_on_c, 2, 64, 93
4, 35616, Note_off_c, 2, 64, 0
4, 35616, Note_on_c, 2, 66, 93
4, 35712, Note_off_c, 2, 66, 0
4, 35712, Note_on_c, 2, 67, 93
4, 35808, Note_off_c, 2, 67, 0
4, 36000, Note_on_c, 2, 69, 93
4, 36096, Note_off_c, 2, 69, 0
4, 36096, Note_on_c, 2, 67, 93
4, 36144, Note_off_c, 2, 67, 0
4, 36144, Note_on_c, 2, 66, 93
4, 36192, Note_off_c, 2, 66, 0
4, 36192, Note_on_c, 2, 67, 93
4, 36288, Note_off_c, 2, 67, 0
4, 36288, Note_on_c, 2, 67, 93
4, 36384, Note_off_c, 2, 67, 0
4, 36384, Note_on_c, 2, 76, 93
4, 36432, Note_off_c, 2, 76, 0
4, 36432, Note_on_c, 2, 75, 93
4, 36480, Note_off_c, 2, 75, 0
4, 36480, Note_on_c, 2, 76, 93
4, 36576, Note_off_c, 2, 76, 0
4, 36576, Note_on_c, 2, 76, 93
4, 36672, Note_off_c, 2, 76, 0
4, 37152, Note_on_c, 2, 71, 93
4, 37248, Note_off_c, 2, 71, 0
4, 37248, Note_on_c, 2, 73, 93
4, 37344, Note_off_c, 2, 73, 0
4, 37344, Note_on_c, 2, 79, 93
4, 37440, Note_off_c, 2, 79, 0
4, 37440, Note_on_c, 2, 73, 93
4, 37536, Note_off_c, 2, 73, 0
4, 37536, Note_on_c, 2, 79, 93
4, 37632, Note_off_c, 2, 79, 0
4, 37632, Note_on_c, 2, 79, 93
4, 37728, Note_off_c, 2, 79, 0
4, 37728, Note_on_c, 2, 78, 93
4, 37776, Note_off_c, 2, 78, 0
4, 37776, Note_on_c, 2, 76, 93
4, 37824, Note_off_c, 2, 76, 0
4, 37824, Note_on_c, 2, 78, 93
4, 37920, Note_off_c, 2, 78, 0
4, 37920, Note_on_c, 2, 83, 93
4, 38016, Note_off_c, 2, 83, 0
4, 38016, Note_on_c, 2, 73, 93
4, 38112, Note_off_c, 2, 73, 0
4, 38112, Note_on_c, 2, 83, 93
4, 38208, Note_off_c, 2, 83, 0
4, 38208, Note_on_c, 2, 73, 93
4, 38304, Note_off_c, 2, 73, 0
4, 38304, Note_on_c, 2, 81, 93
4, 38400, Note_off_c, 2, 81, 0
4, 38400, Note_on_c, 2, 80, 93
4, 38448, Note_off_c, 2, 80, 0
4, 38448, Note_on_c, 2, 78, 93
4, 38496, Note_off_c, 2, 78, 0
4, 38496, Note_on_c, 2, 77, 93
4, 38544, Note_off_c, 2, 77, 0
4, 38544, Note_on_c, 2, 75, 93
4, 38592, Note_off_c, 2, 75, 0
4, 38592, Note_on_c, 2, 73, 93
4, 38688, Note_off_c, 2, 73, 0
4, 38688, Note_on_c, 2, 85, 93
4, 38736, Note_off_c, 2, 85, 0
4, 38736, Note_on_c, 2, 83, 93
4, 38784, Note_off_c, 2, 83, 0
4, 38784, Note_on_c, 2, 85, 93
4, 38880, Note_off_c, 2, 85, 0
4, 38880, Note_on_c, 2, 76, 93
4, 38976, Note_off_c, 2, 76, 0
4, 38976, Note_on_c, 2, 76, 93
4, 39072, Note_off_c, 2, 76, 0
4, 39072, Note_on_c, 2, 85, 93
4, 39168, Note_off_c, 2, 85, 0
4, 39168, Note_on_c, 2, 76, 93
4, 39264, Note_off_c, 2, 76, 0
4, 39264, Note_on_c, 2, 74, 93
4, 39312, Note_off_c, 2, 74, 0
4, 39312, Note_on_c, 2, 73, 93
4, 39360, Note_off_c, 2, 73, 0
4, 39360, Note_on_c, 2, 74, 93
4, 39456, Note_off_c, 2, 74, 0
4, 39456, Note_on_c, 2, 83, 93
4, 39504, Note_off_c, 2, 83, 0
4, 39504, Note_on_c, 2, 82, 93
4, 39552, Note_off_c, 2, 82, 0
4, 39552, Note_on_c, 2, 83, 93
4, 39648, Note_off_c, 2, 83, 0
4, 39648, Note_on_c, 2, 74, 93
4, 39744, Note_off_c, 2, 74, 0
4, 39744, Note_on_c, 2, 74, 93
4, 39840, Note_off_c, 2, 74, 0
4, 39840, Note_on_c, 2, 83, 93
4, 39936, Note_off_c, 2, 83, 0
4, 40320, Note_on_c, 2, 73, 93
4, 40416, Note_off_c, 2, 73, 0
4, 41280, Note_on_c, 2, 66, 93
4, 41376, Note_off_c, 2, 66, 0
4, 41472, Note_on_c, 2, 71, 93
4, 41568, Note_off_c, 2, 71, 0
4, 42048, Note_on_c, 2, 64, 93
4, 42144, Note_off_c, 2, 64, 0
4, 42240, Note_on_c, 2, 69, 93
4, 42336, Note_off_c, 2, 69, 0
4, 46848, Note_on_c, 2, 59, 93
4, 46944, Note_off_c, 2, 59, 0
4, 47136, Note_on_c, 2, 59, 93
4, 47184, Note_off_c, 2, 59, 0
4, 47184, Note_on_c, 2, 57, 93
4, 47232, Note_off_c, 2, 57, 0
4, 47232, Note_on_c, 2, 55, 93
4, 47328, Note_off_c, 2, 55, 0
4, 47616, Note_on_c, 2, 62, 93
4, 47712, Note_off_c, 2, 62, 0
4, 51072, Note_on_c, 2, 74, 93
4, 51168, Note_off_c, 2, 74, 0
4, 51264, Note_on_c, 2, 74, 93
4, 51360, Note_off_c, 2, 74, 0
4, 51456, Note_on_c, 2, 73, 93
4, 51552, Note_off_c, 2, 73, 0
4, 51744, Note_on_c, 2, 76, 93
4, 51840, Note_off_c, 2, 76, 0
4, 52224, Note_on_c, 2, 66, 93
4, 52512, Note_off_c, 2, 66, 0
4, 52512, End_track
5, 0, Start_track
5, 0, Title_t, "Track5"
5, 0, Program_c, 3, 40
5, 0, Control_c, 3, 7, 100
5, 0, Control_c, 3, 10, 49
5, 384, Note_on_c, 3, 59, 93
5, 480, Note_off_c, 3, 59, 0
5, 576, Note_on_c, 3, 59, 93
5, 672, Note_off_c, 3, 59, 0
5, 8064, Note_on_c, 3, 59, 93
5, 8160, Note_off_c, 3, 59, 0
5, 8256, Note_on_c, 3, 59, 93
5, 8352, Note_off_c, 3, 59, 0
5, 16416, Note_on_c, 3, 57, 93
5, 16512, Note_off_c, 3, 57, 0
5, 16512, Note_on_c, 3, 57, 93
5, 16608, Note_off_c, 3, 57, 0
5, 16704, Note_on_c, 3, 57, 93
5, 16800, Note_off_c, 3, 57, 0
5, 16896, Note_on_c, 3, 57, 93
5, 16992, Note_off_c, 3, 57, 0
5, 17280, Note_on_c, 3, 55, 93
5, 17376, Note_off_c, 3, 55, 0
5, 17472, Note_on_c, 3, 59, 93
5, 17568, Note_off_c, 3, 59, 0
5, 17664, Note_on_c, 3, 60, 93
5, 17760, Note_off_c, 3, 60, 0
5, 18144, Note_on_c, 3, 67, 93
5, 18240, Note_off_c, 3, 67, 0
5, 18240, Note_on_c, 3, 71, 93
5, 18432, Note_off_c, 3, 71, 0
5, 18432, Note_on_c, 3, 64, 93
5, 18528, Note_off_c, 3, 64, 0
5, 18528, Note_on_c, 3, 66, 93
5, 18624, Note_off_c, 3, 66, 0
5, 18624, Note_on_c, 3, 67, 93
5, 18720, Note_off_c, 3, 67, 0
5, 18720, Note_on_c, 3, 64, 93
5, 18816, Note_off_c, 3, 64, 0
5, 18816, Note_on_c, 3, 69, 93
5, 18912, Note_off_c, 3, 69, 0
5, 19008, Note_on_c, 3, 69, 93
5, 19104, Note_off_c, 3, 69, 0
5, 19200, Note_on_c, 3, 69, 93
5, 19392, Note_off_c, 3, 69, 0
5, 32640, Note_on_c, 3, 83, 93
5, 32736, Note_off_c, 3, 83, 0
5, 32736, Note_on_c, 3, 78, 93
5, 32832, Note_off_c, 3, 78, 0
5, 32832, Note_on_c, 3, 83, 93
5, 32928, Note_off_c, 3, 83, 0
5, 32928, Note_on_c, 3, 78, 93
5, 33024, Note_off_c, 3, 78, 0
5, 33024, Note_on_c, 3, 79, 93
5, 33120, Note_off_c, 3, 79, 0
5, 33120, Note_on_c, 3, 79, 93
5, 33168, Note_off_c, 3, 79, 0
5, 33168, Note_on_c, 3, 78, 93
5, 33216, Note_off_c, 3, 78, 0
5, 33216, Note_on_c, 3, 76, 93
5, 33312, Note_off_c, 3, 76, 0
5, 33312, Note_on_c, 3, 79, 93
5, 33408, Note_off_c, 3, 79, 0
5, 33408, Note_on_c, 3, 78, 93
5, 33504, Note_off_c, 3, 78, 0
5, 33504, Note_on_c, 3, 76, 93
5, 33600, Note_off_c, 3, 76, 0
5, 33600, Note_on_c, 3, 74, 93
5, 33696, Note_off_c, 3, 74, 0
5, 33696, Note_on_c, 3, 76, 93
5, 33744, Note_off_c, 3, 76, 0
5, 33744, Note_on_c, 3, 73, 93
5, 33792, Note_off_c, 3, 73, 0
5, 33792, Note_on_c, 3, 71, 93
5, 34080, Note_off_c, 3, 71, 0
5, 34848, Note_on_c, 3, 57, 93
5, 34944, Note_off_c, 3, 57, 0
5, 34944, Note_on_c, 3, 57, 93
5, 35040, Note_off_c, 3, 57, 0
5, 35136, Note_on_c, 3, 57, 93
5, 35232, Note_off_c, 3, 57, 0
5, 35328, Note_on_c, 3, 57, 93
5, 35424, Note_off_c, 3, 57, 0
5, 35712, Note_on_c, 3, 55, 93
5, 35808, Note_off_c, 3, 55, 0
5, 35904, Note_on_c, 3, 59, 93
5, 36000, Note_off_c, 3, 59, 0
5, 36096, Note_on_c, 3, 60, 93
5, 36192, Note_off_c, 3, 60, 0
5, 36576, Note_on_c, 3, 67, 93
5, 36672, Note_off_c, 3, 67, 0
5, 36672, Note_on_c, 3, 71, 93
5, 36864, Note_off_c, 3, 71, 0
5, 36864, Note_on_c, 3, 64, 93
5, 36960, Note_off_c, 3, 64, 0
5, 36960, Note_on_c, 3, 66, 93
5, 37056, Note_off_c, 3, 66, 0
5, 37056, Note_on_c, 3, 67, 93
5, 37152, Note_off_c, 3, 67, 0
5, 37152, Note_on_c, 3, 64, 93
5, 37248, Note_off_c, 3, 64, 0
5, 37248, Note_on_c, 3, 69, 93
5, 37344, Note_off_c, 3, 69, 0
5, 37440, Note_on_c, 3, 69, 93
5, 37536, Note_off_c, 3, 69, 0
5, 37632, Note_on_c, 3, 69, 93
5, 37824, Note_off_c, 3, 69, 0
5, 51072, Note_on_c, 3, 83, 93
5, 51168, Note_off_c, 3, 83, 0
5, 51168, Note_on_c, 3, 78, 93
5, 51264, Note_off_c, 3, 78, 0
5, 51264, Note_on_c, 3, 83, 93
5, 51360, Note_off_c, 3, 83, 0
5, 51360, Note_on_c, 3, 78, 93
5, 51456, Note_off_c, 3, 78, 0
5, 51456, Note_on_c, 3, 79, 93
5, 51552, Note_off_c, 3, 79, 0
5, 51552, Note_on_c, 3, 79, 93
5, 51600, Note_off_c, 3, 79, 0
5, 51600, Note_on_c, 3, 78, 93
5, 51648, Note_off_c, 3, 78, 0
5, 51648, Note_on_c, 3, 76, 93
5, 51744, Note_off_c, 3, 76, 0
5, 51744, Note_on_c, 3, 79, 93
5, 51840, Note_off_c, 3, 79, 0
5, 51840, Note_on_c, 3, 78, 93
5, 51936, Note_off_c, 3, 78, 0
5, 51936, Note_on_c, 3, 76, 93
5, 52032, Note_off_c, 3, 76, 0
5, 52032, Note_on_c, 3, 74, 93
5, 52128, Note_off_c, 3, 74, 0
5, 52128, Note_on_c, 3, 76, 93
5, 52176, Note_off_c, 3, 76, 0
5, 52176, Note_on_c, 3, 73, 93
5, 52224, Note_off_c, 3, 73, 0
5, 52224, Note_on_c, 3, 71, 93
5, 52512, Note_off_c, 3, 71, 0
5, 52512, End_track
0, 0, End_of_file
