0, 0, Header, 1, 6, 96
1, 0, Start_track
1, 0, Time_signature, 4, 2, 24, 8
1, 0, Title_t, "Chaconne"
1, 0, Title_t, "Track1"
1, 0, Tempo, 1000000
1, 72288, Tempo, 1000000
1, 72294, Tempo, 1016949
1, 72306, Tempo, 1016949
1, 72312, Tempo, 1016949
1, 72318, Tempo, 1016949
1, 72324, Tempo, 1016949
1, 72330, Tempo, 1016949
1, 72342, Tempo, 1016949
1, 72348, Tempo, 1016949
1, 72354, Tempo, 1016949
1, 72360, Tempo, 1016949
1, 72366, Tempo, 1034482
1, 72378, Tempo, 1034482
1, 72384, Tempo, 1034482
1, 72390, Tempo, 1034482
1, 72396, Tempo, 1034482
1, 72402, Tempo, 1034482
1, 72414, Tempo, 1034482
1, 72420, Tempo, 1034482
1, 72426, Tempo, 1034482
1, 72432, Tempo, 1052631
1, 72438, Tempo, 1052631
1, 72450, Tempo, 1052631
1, 72456, Tempo, 1052631
1, 72462, Tempo, 1052631
1, 72468, Tempo, 1052631
1, 72474, Tempo, 1052631
1, 72486, Tempo, 1052631
1, 72492, Tempo, 1052631
1, 72498, Tempo, 1052631
1, 72504, Tempo, 1071428
1, 72510, Tempo, 1071428
1, 72522, Tempo, 1071428
1, 72528, Tempo, 1071428
1, 72534, Tempo, 1071428
1, 72540, Tempo, 1071428
1, 72546, Tempo, 1071428
1, 72558, Tempo, 1071428
1, 72564, Tempo, 1071428
1, 72570, Tempo, 1071428
1, 72576, Tempo, 1090909
1, 72582, Tempo, 1090909
1, 72594, Tempo, 1090909
1, 72600, Tempo, 1090909
1, 72606, Tempo, 1090909
1, 72612, Tempo, 1090909
1, 72618, Tempo, 1090909
1, 72630, Tempo, 1090909
1, 72636, Tempo, 1090909
1, 72642, Tempo, 1090909
1, 72648, Tempo, 1090909
1, 72654, Tempo, 1111111
1, 72666, Tempo, 1111111
1, 72672, Tempo, 1111111
1, 72678, Tempo, 1111111
1, 72684, Tempo, 1111111
1, 72690, Tempo, 1111111
1, 72702, Tempo, 1111111
1, 72708, Tempo, 1111111
1, 72714, Tempo, 1111111
1, 72720, Tempo, 1111111
1, 72726, Tempo, 1132075
1, 72738, Tempo, 1132075
1, 72744, Tempo, 1132075
1, 72750, Tempo, 1132075
1, 72756, Tempo, 1132075
1, 72762, Tempo, 1132075
1, 72774, Tempo, 1132075
1, 72780, Tempo, 1132075
1, 72786, Tempo, 1132075
1, 72792, Tempo, 1132075
1, 72798, Tempo, 1153846
1, 72810, Tempo, 1153846
1, 72816, Tempo, 1153846
1, 72822, Tempo, 1153846
1, 72828, Tempo, 1153846
1, 72834, Tempo, 1153846
1, 72846, Tempo, 1153846
1, 72852, Tempo, 1153846
1, 72858, Tempo, 1153846
1, 72864, Tempo, 1153846
1, 72870, Tempo, 1176470
1, 72882, Tempo, 1176470
1, 72888, Tempo, 1176470
1, 72894, Tempo, 1176470
1, 72900, Tempo, 1176470
1, 72906, Tempo, 1176470
1, 72918, Tempo, 1176470
1, 72924, Tempo, 1176470
1, 72930, Tempo, 1176470
1, 72936, Tempo, 1200000
1, 72942, Tempo, 1200000
1, 72954, Tempo, 1200000
1, 72960, Tempo, 1200000
1, 72966, Tempo, 1200000
1, 72972, Tempo, 1200000
1, 72978, Tempo, 1200000
1, 72990, Tempo, 1200000
1, 72996, Tempo, 1200000
1, 73002, Tempo, 1200000
1, 73008, Tempo, 1200000
1, 73014, Tempo, 1224489
1, 73026, Tempo, 1224489
1, 73032, Tempo, 1224489
1, 73038, Tempo, 1224489
1, 73044, Tempo, 1224489
1, 73050, Tempo, 1224489
1, 73062, Tempo, 1224489
1, 73068, Tempo, 1224489
1, 73074, Tempo, 1224489
1, 73080, Tempo, 1250000
1, 73086, Tempo, 1250000
1, 73098, Tempo, 1250000
1, 73104, Tempo, 1250000
1, 73110, Tempo, 1250000
1, 73116, Tempo, 1250000
1, 73122, Tempo, 1250000
1, 73134, Tempo, 1250000
1, 73140, Tempo, 1250000
1, 73146, Tempo, 1250000
1, 73152, Tempo, 1250000
1, 73152, End_track
2, 0, Start_track
2, 0, Title_t, "Track2"
2, 0, Program_c, 0, 40
2, 0, Control_c, 0, 7, 100
2, 0, Control_c, 0, 10, 54
2, 96, Note_on_c, 0, 69, 93
2, 240, Note_off_c, 0, 69, 0
2, 240, Note_on_c, 0, 69, 93
2, 288, Note_off_c, 0, 69, 0
2, 288, Note_on_c, 0, 76, 93
2, 384, Note_off_c, 0, 76, 0
2, 384, Note_on_c, 0, 76, 93
2, 528, Note_off_c, 0, 76, 0
2, 528, Note_on_c, 0, 76, 93
2, 576, Note_off_c, 0, 76, 0
2, 576, Note_on_c, 0, 77, 93
2, 672, Note_off_c, 0, 77, 0
2, 672, Note_on_c, 0, 74, 93
2, 816, Note_off_c, 0, 74, 0
2, 816, Note_on_c, 0, 72, 93
2, 864, Note_off_c, 0, 72, 0
2, 864, Note_on_c, 0, 70, 93
2, 960, Note_off_c, 0, 70, 0
2, 960, Note_on_c, 0, 69, 93
2, 1056, Note_off_c, 0, 69, 0
2, 1056, Note_on_c, 0, 67, 93
2, 1080, Note_off_c, 0, 67, 0
2, 1080, Note_on_c, 0, 65, 93
2, 1104, Note_off_c, 0, 65, 0
2, 1104, Note_on_c, 0, 64, 93
2, 1128, Note_off_c, 0, 64, 0
2, 1128, Note_on_c, 0, 65, 93
2, 1152, Note_off_c, 0, 65, 0
2, 1152, Note_on_c, 0, 67, 93
2, 1176, Note_off_c, 0, 67, 0
2, 1176, Note_on_c, 0, 64, 93
2, 1200, Note_off_c, 0, 64, 0
2, 1200, Note_on_c, 0, 65, 93
2, 1224, Note_off_c, 0, 65, 0
2, 1224, Note_on_c, 0, 62, 93
2, 1248, Note_off_c, 0, 62, 0
2, 1248, Note_on_c, 0, 69, 93
2, 1392, Note_off_c, 0, 69, 0
2, 1392, Note_on_c, 0, 69, 93
2, 1440, Note_off_c, 0, 69, 0
2, 1440, Note_on_c, 0, 76, 93
2, 1536, Note_off_c, 0, 76, 0
2, 1536, Note_on_c, 0, 76, 93
2, 1680, Note_off_c, 0, 76, 0
2, 1680, Note_on_c, 0, 76, 93
2, 1728, Note_off_c, 0, 76, 0
2, 1728, Note_on_c, 0, 77, 93
2, 1824, Note_off_c, 0, 77, 0
2, 1824, Note_on_c, 0, 74, 93
2, 1968, Note_off_c, 0, 74, 0
2, 1968, Note_on_c, 0, 74, 93
2, 2016, Note_off_c, 0, 74, 0
2, 2016, Note_on_c, 0, 82, 93
2, 2112, Note_off_c, 0, 82, 0
2, 2112, Note_on_c, 0, 81, 93
2, 2184, Note_off_c, 0, 81, 0
2, 2184, Note_on_c, 0, 79, 93
2, 2196, Note_off_c, 0, 79, 0
2, 2196, Note_on_c, 0, 77, 93
2, 2208, Note_off_c, 0, 77, 0
2, 2208, Note_on_c, 0, 79, 93
2, 2280, Note_off_c, 0, 79, 0
2, 2280, Note_on_c, 0, 76, 93
2, 2304, Note_off_c, 0, 76, 0
2, 2304, Note_on_c, 0, 77, 93
2, 2376, Note_off_c, 0, 77, 0
2, 2592, Note_on_c, 0, 70, 93
2, 2640, Note_off_c, 0, 70, 0
2, 2688, Note_on_c, 0, 69, 93
2, 2736, Note_off_c, 0, 69, 0
2, 2880, Note_on_c, 0, 69, 93
2, 2928, Note_off_c, 0, 69, 0
2, 3048, Note_on_c, 0, 69, 93
2, 3072, Note_off_c, 0, 69, 0
2, 3072, Note_on_c, 0, 67, 93
2, 3144, Note_off_c, 0, 67, 0
2, 3144, Note_on_c, 0, 65, 93
2, 3168, Note_off_c, 0, 65, 0
2, 3168, Note_on_c, 0, 64, 93
2, 3240, Note_off_c, 0, 64, 0
2, 3240, Note_on_c, 0, 62, 93
2, 3264, Note_off_c, 0, 62, 0
2, 3264, Note_on_c, 0, 64, 93
2, 3336, Note_off_c, 0, 64, 0
2, 3336, Note_on_c, 0, 67, 93
2, 3360, Note_off_c, 0, 67, 0
2, 3360, Note_on_c, 0, 65, 93
2, 3432, Note_off_c, 0, 65, 0
2, 3432, Note_on_c, 0, 64, 93
2, 3456, Note_off_c, 0, 64, 0
2, 3456, Note_on_c, 0, 62, 93
2, 3528, Note_off_c, 0, 62, 0
2, 3744, Note_on_c, 0, 62, 93
2, 3792, Note_off_c, 0, 62, 0
2, 3840, Note_on_c, 0, 61, 93
2, 3888, Note_off_c, 0, 61, 0
2, 4032, Note_on_c, 0, 62, 93
2, 4080, Note_off_c, 0, 62, 0
2, 4104, Note_on_c, 0, 64, 93
2, 4128, Note_off_c, 0, 64, 0
2, 4128, Note_on_c, 0, 65, 93
2, 4200, Note_off_c, 0, 65, 0
2, 4200, Note_on_c, 0, 69, 93
2, 4224, Note_off_c, 0, 69, 0
2, 4224, Note_on_c, 0, 67, 93
2, 4296, Note_off_c, 0, 67, 0
2, 4296, Note_on_c, 0, 64, 93
2, 4320, Note_off_c, 0, 64, 0
2, 4320, Note_on_c, 0, 65, 93
2, 4392, Note_off_c, 0, 65, 0
2, 4392, Note_on_c, 0, 67, 93
2, 4416, Note_off_c, 0, 67, 0
2, 4416, Note_on_c, 0, 64, 93
2, 4608, Note_off_c, 0, 64, 0
2, 4608, Note_on_c, 0, 62, 93
2, 4656, Note_off_c, 0, 62, 0
2, 5448, Note_on_c, 0, 70, 93
2, 5472, Note_off_c, 0, 70, 0
2, 5472, Note_on_c, 0, 69, 93
2, 5544, Note_off_c, 0, 69, 0
2, 5544, Note_on_c, 0, 71, 93
2, 5568, Note_off_c, 0, 71, 0
2, 5568, Note_on_c, 0, 73, 93
2, 5640, Note_off_c, 0, 73, 0
2, 5640, Note_on_c, 0, 74, 93
2, 5664, Note_off_c, 0, 74, 0
2, 5664, Note_on_c, 0, 76, 93
2, 5736, Note_off_c, 0, 76, 0
2, 5736, Note_on_c, 0, 73, 93
2, 5760, Note_off_c, 0, 73, 0
2, 5760, Note_on_c, 0, 74, 93
2, 5832, Note_off_c, 0, 74, 0
2, 5832, Note_on_c, 0, 74, 93
2, 5844, Note_off_c, 0, 74, 0
2, 5844, Note_on_c, 0, 76, 93
2, 5856, Note_off_c, 0, 76, 0
2, 5856, Note_on_c, 0, 77, 93
2, 5928, Note_off_c, 0, 77, 0
2, 5928, Note_on_c, 0, 79, 93
2, 5940, Note_off_c, 0, 79, 0
2, 5940, Note_on_c, 0, 81, 93
2, 5952, Note_off_c, 0, 81, 0
2, 5952, Note_on_c, 0, 82, 93
2, 6024, Note_off_c, 0, 82, 0
2, 6024, Note_on_c, 0, 77, 93
2, 6048, Note_off_c, 0, 77, 0
2, 6048, Note_on_c, 0, 76, 93
2, 6120, Note_off_c, 0, 76, 0
2, 6120, Note_on_c, 0, 82, 93
2, 6144, Note_off_c, 0, 82, 0
2, 6144, Note_on_c, 0, 81, 93
2, 6216, Note_off_c, 0, 81, 0
2, 6216, Note_on_c, 0, 79, 93
2, 6240, Note_off_c, 0, 79, 0
2, 6240, Note_on_c, 0, 81, 93
2, 6312, Note_off_c, 0, 81, 0
2, 6312, Note_on_c, 0, 78, 93
2, 6336, Note_off_c, 0, 78, 0
2, 6336, Note_on_c, 0, 79, 93
2, 6408, Note_off_c, 0, 79, 0
2, 6408, Note_on_c, 0, 77, 93
2, 6432, Note_off_c, 0, 77, 0
2, 6432, Note_on_c, 0, 76, 93
2, 6504, Note_off_c, 0, 76, 0
2, 6504, Note_on_c, 0, 74, 93
2, 6516, Note_off_c, 0, 74, 0
2, 6516, Note_on_c, 0, 73, 93
2, 6528, Note_off_c, 0, 73, 0
2, 6528, Note_on_c, 0, 74, 93
2, 6600, Note_off_c, 0, 74, 0
2, 6600, Note_on_c, 0, 76, 93
2, 6624, Note_off_c, 0, 76, 0
2, 6624, Note_on_c, 0, 77, 93
2, 6696, Note_off_c, 0, 77, 0
2, 6696, Note_on_c, 0, 79, 93
2, 6720, Note_off_c, 0, 79, 0
2, 6720, Note_on_c, 0, 74, 93
2, 6792, Note_off_c, 0, 74, 0
2, 6792, Note_on_c, 0, 73, 93
2, 6804, Note_off_c, 0, 73, 0
2, 6804, Note_on_c, 0, 71, 93
2, 6816, Note_off_c, 0, 71, 0
2, 6816, Note_on_c, 0, 73, 93
2, 6888, Note_off_c, 0, 73, 0
2, 6888, Note_on_c, 0, 67, 93
2, 6912, Note_off_c, 0, 67, 0
2, 6912, Note_on_c, 0, 65, 93
2, 6960, Note_off_c, 0, 65, 0
2, 6960, Note_on_c, 0, 77, 93
2, 7008, Note_off_c, 0, 77, 0
2, 7008, Note_on_c, 0, 76, 93
2, 7056, Note_off_c, 0, 76, 0
2, 7056, Note_on_c, 0, 74, 93
2, 7104, Note_off_c, 0, 74, 0
2, 7104, Note_on_c, 0, 73, 93
2, 7152, Note_off_c, 0, 73, 0
2, 7152, Note_on_c, 0, 74, 93
2, 7200, Note_off_c, 0, 74, 0
2, 7200, Note_on_c, 0, 67, 93
2, 7248, Note_off_c, 0, 67, 0
2, 7248, Note_on_c, 0, 69, 93
2, 7272, Note_off_c, 0, 69, 0
2, 7272, Note_on_c, 0, 70, 93
2, 7296, Note_off_c, 0, 70, 0
2, 7296, Note_on_c, 0, 61, 93
2, 7344, Note_off_c, 0, 61, 0
2, 7344, Note_on_c, 0, 70, 93
2, 7392, Note_off_c, 0, 70, 0
2, 7392, Note_on_c, 0, 69, 93
2, 7440, Note_off_c, 0, 69, 0
2, 7440, Note_on_c, 0, 67, 93
2, 7488, Note_off_c, 0, 67, 0
2, 7488, Note_on_c, 0, 65, 93
2, 7536, Note_off_c, 0, 65, 0
2, 7536, Note_on_c, 0, 67, 93
2, 7560, Note_off_c, 0, 67, 0
2, 7560, Note_on_c, 0, 69, 93
2, 7584, Note_off_c, 0, 69, 0
2, 7584, Note_on_c, 0, 58, 93
2, 7632, Note_off_c, 0, 58, 0
2, 7632, Note_on_c, 0, 62, 93
2, 7680, Note_off_c, 0, 62, 0
2, 7680, Note_on_c, 0, 67, 93
2, 7728, Note_off_c, 0, 67, 0
2, 7728, Note_on_c, 0, 74, 93
2, 7752, Note_off_c, 0, 74, 0
2, 7752, Note_on_c, 0, 73, 93
2, 7776, Note_off_c, 0, 73, 0
2, 7776, Note_on_c, 0, 74, 93
2, 7824, Note_off_c, 0, 74, 0
2, 7824, Note_on_c, 0, 65, 93
2, 7872, Note_off_c, 0, 65, 0
2, 7872, Note_on_c, 0, 64, 93
2, 7896, Note_off_c, 0, 64, 0
2, 7896, Note_on_c, 0, 65, 93
2, 7920, Note_off_c, 0, 65, 0
2, 7920, Note_on_c, 0, 67, 93
2, 7944, Note_off_c, 0, 67, 0
2, 7944, Note_on_c, 0, 70, 93
2, 7968, Note_off_c, 0, 70, 0
2, 7968, Note_on_c, 0, 69, 93
2, 7992, Note_off_c, 0, 69, 0
2, 7992, Note_on_c, 0, 67, 93
2, 8016, Note_off_c, 0, 67, 0
2, 8016, Note_on_c, 0, 65, 93
2, 8040, Note_off_c, 0, 65, 0
2, 8040, Note_on_c, 0, 64, 93
2, 8064, Note_off_c, 0, 64, 0
2, 8064, Note_on_c, 0, 65, 93
2, 8088, Note_off_c, 0, 65, 0
2, 8088, Note_on_c, 0, 69, 93
2, 8112, Note_off_c, 0, 69, 0
2, 8112, Note_on_c, 0, 74, 93
2, 8136, Note_off_c, 0, 74, 0
2, 8136, Note_on_c, 0, 77, 93
2, 8160, Note_off_c, 0, 77, 0
2, 8160, Note_on_c, 0, 77, 93
2, 8184, Note_off_c, 0, 77, 0
2, 8184, Note_on_c, 0, 76, 93
2, 8208, Note_off_c, 0, 76, 0
2, 8208, Note_on_c, 0, 79, 93
2, 8232, Note_off_c, 0, 79, 0
2, 8232, Note_on_c, 0, 77, 93
2, 8256, Note_off_c, 0, 77, 0
2, 8256, Note_on_c, 0, 76, 93
2, 8280, Note_off_c, 0, 76, 0
2, 8280, Note_on_c, 0, 74, 93
2, 8304, Note_off_c, 0, 74, 0
2, 8304, Note_on_c, 0, 73, 93
2, 8328, Note_off_c, 0, 73, 0
2, 8328, Note_on_c, 0, 74, 93
2, 8352, Note_off_c, 0, 74, 0
2, 8352, Note_on_c, 0, 67, 93
2, 8376, Note_off_c, 0, 67, 0
2, 8376, Note_on_c, 0, 70, 93
2, 8400, Note_off_c, 0, 70, 0
2, 8400, Note_on_c, 0, 66, 93
2, 8424, Note_off_c, 0, 66, 0
2, 8424, Note_on_c, 0, 67, 93
2, 8448, Note_off_c, 0, 67, 0
2, 8448, Note_on_c, 0, 61, 93
2, 8472, Note_off_c, 0, 61, 0
2, 8472, Note_on_c, 0, 64, 93
2, 8496, Note_off_c, 0, 64, 0
2, 8496, Note_on_c, 0, 67, 93
2, 8520, Note_off_c, 0, 67, 0
2, 8520, Note_on_c, 0, 70, 93
2, 8544, Note_off_c, 0, 70, 0
2, 8544, Note_on_c, 0, 69, 93
2, 8568, Note_off_c, 0, 69, 0
2, 8568, Note_on_c, 0, 67, 93
2, 8592, Note_off_c, 0, 67, 0
2, 8592, Note_on_c, 0, 76, 93
2, 8616, Note_off_c, 0, 76, 0
2, 8616, Note_on_c, 0, 67, 93
2, 8640, Note_off_c, 0, 67, 0
2, 8640, Note_on_c, 0, 65, 93
2, 8664, Note_off_c, 0, 65, 0
2, 8664, Note_on_c, 0, 61, 93
2, 8688, Note_off_c, 0, 61, 0
2, 8688, Note_on_c, 0, 62, 93
2, 8712, Note_off_c, 0, 62, 0
2, 8712, Note_on_c, 0, 57, 93
2, 8736, Note_off_c, 0, 57, 0
2, 8736, Note_on_c, 0, 58, 93
2, 8760, Note_off_c, 0, 58, 0
2, 8760, Note_on_c, 0, 62, 93
2, 8784, Note_off_c, 0, 62, 0
2, 8784, Note_on_c, 0, 67, 93
2, 8808, Note_off_c, 0, 67, 0
2, 8808, Note_on_c, 0, 69, 93
2, 8832, Note_off_c, 0, 69, 0
2, 8832, Note_on_c, 0, 70, 93
2, 8856, Note_off_c, 0, 70, 0
2, 8856, Note_on_c, 0, 75, 93
2, 8880, Note_off_c, 0, 75, 0
2, 8880, Note_on_c, 0, 73, 93
2, 8904, Note_off_c, 0, 73, 0
2, 8904, Note_on_c, 0, 74, 93
2, 8928, Note_off_c, 0, 74, 0
2, 8928, Note_on_c, 0, 68, 93
2, 8952, Note_off_c, 0, 68, 0
2, 8952, Note_on_c, 0, 71, 93
2, 8976, Note_off_c, 0, 71, 0
2, 8976, Note_on_c, 0, 74, 93
2, 9000, Note_off_c, 0, 74, 0
2, 9000, Note_on_c, 0, 77, 93
2, 9024, Note_off_c, 0, 77, 0
2, 9024, Note_on_c, 0, 76, 93
2, 9048, Note_off_c, 0, 76, 0
2, 9048, Note_on_c, 0, 79, 93
2, 9072, Note_off_c, 0, 79, 0
2, 9072, Note_on_c, 0, 73, 93
2, 9096, Note_off_c, 0, 73, 0
2, 9096, Note_on_c, 0, 74, 93
2, 9120, Note_off_c, 0, 74, 0
2, 9120, Note_on_c, 0, 57, 93
2, 9144, Note_off_c, 0, 57, 0
2, 9144, Note_on_c, 0, 64, 93
2, 9168, Note_off_c, 0, 64, 0
2, 9168, Note_on_c, 0, 74, 93
2, 9192, Note_off_c, 0, 74, 0
2, 9192, Note_on_c, 0, 73, 93
2, 9216, Note_off_c, 0, 73, 0
2, 9216, Note_on_c, 0, 74, 93
2, 9264, Note_off_c, 0, 74, 0
2, 9264, Note_on_c, 0, 77, 93
2, 9312, Note_off_c, 0, 77, 0
2, 9312, Note_on_c, 0, 82, 93
2, 9360, Note_off_c, 0, 82, 0
2, 9360, Note_on_c, 0, 81, 93
2, 9408, Note_off_c, 0, 81, 0
2, 9408, Note_on_c, 0, 80, 93
2, 9456, Note_off_c, 0, 80, 0
2, 9456, Note_on_c, 0, 62, 93
2, 9504, Note_off_c, 0, 62, 0
2, 9504, Note_on_c, 0, 61, 93
2, 9552, Note_off_c, 0, 61, 0
2, 9552, Note_on_c, 0, 76, 93
2, 9600, Note_off_c, 0, 76, 0
2, 9600, Note_on_c, 0, 81, 93
2, 9648, Note_off_c, 0, 81, 0
2, 9648, Note_on_c, 0, 79, 93
2, 9696, Note_off_c, 0, 79, 0
2, 9696, Note_on_c, 0, 78, 93
2, 9744, Note_off_c, 0, 78, 0
2, 9744, Note_on_c, 0, 60, 93
2, 9792, Note_off_c, 0, 60, 0
2, 9792, Note_on_c, 0, 59, 93
2, 9840, Note_off_c, 0, 59, 0
2, 9840, Note_on_c, 0, 74, 93
2, 9888, Note_off_c, 0, 74, 0
2, 9888, Note_on_c, 0, 79, 93
2, 9936, Note_off_c, 0, 79, 0
2, 9936, Note_on_c, 0, 77, 93
2, 9984, Note_off_c, 0, 77, 0
2, 9984, Note_on_c, 0, 76, 93
2, 10032, Note_off_c, 0, 76, 0
2, 10032, Note_on_c, 0, 58, 93
2, 10080, Note_off_c, 0, 58, 0
2, 10080, Note_on_c, 0, 57, 93
2, 10104, Note_off_c, 0, 57, 0
2, 10104, Note_on_c, 0, 77, 93
2, 10128, Note_off_c, 0, 77, 0
2, 10128, Note_on_c, 0, 76, 93
2, 10152, Note_off_c, 0, 76, 0
2, 10152, Note_on_c, 0, 74, 93
2, 10176, Note_off_c, 0, 74, 0
2, 10176, Note_on_c, 0, 73, 93
2, 10224, Note_off_c, 0, 73, 0
2, 10224, Note_on_c, 0, 69, 93
2, 10272, Note_off_c, 0, 69, 0
2, 10272, Note_on_c, 0, 76, 93
2, 10320, Note_off_c, 0, 76, 0
2, 10320, Note_on_c, 0, 67, 93
2, 10368, Note_off_c, 0, 67, 0
2, 10368, Note_on_c, 0, 65, 93
2, 10392, Note_off_c, 0, 65, 0
2, 10392, Note_on_c, 0, 62, 93
2, 10416, Note_off_c, 0, 62, 0
2, 10416, Note_on_c, 0, 65, 93
2, 10440, Note_off_c, 0, 65, 0
2, 10440, Note_on_c, 0, 69, 93
2, 10464, Note_off_c, 0, 69, 0
2, 10464, Note_on_c, 0, 74, 93
2, 10488, Note_off_c, 0, 74, 0
2, 10488, Note_on_c, 0, 77, 93
2, 10512, Note_off_c, 0, 77, 0
2, 10512, Note_on_c, 0, 82, 93
2, 10536, Note_off_c, 0, 82, 0
2, 10536, Note_on_c, 0, 81, 93
2, 10560, Note_off_c, 0, 81, 0
2, 10560, Note_on_c, 0, 80, 93
2, 10584, Note_off_c, 0, 80, 0
2, 10584, Note_on_c, 0, 83, 93
2, 10608, Note_off_c, 0, 83, 0
2, 10608, Note_on_c, 0, 80, 93
2, 10632, Note_off_c, 0, 80, 0
2, 10632, Note_on_c, 0, 76, 93
2, 10656, Note_off_c, 0, 76, 0
2, 10656, Note_on_c, 0, 73, 93
2, 10680, Note_off_c, 0, 73, 0
2, 10680, Note_on_c, 0, 76, 93
2, 10704, Note_off_c, 0, 76, 0
2, 10704, Note_on_c, 0, 81, 93
2, 10728, Note_off_c, 0, 81, 0
2, 10728, Note_on_c, 0, 79, 93
2, 10752, Note_off_c, 0, 79, 0
2, 10752, Note_on_c, 0, 78, 93
2, 10776, Note_off_c, 0, 78, 0
2, 10776, Note_on_c, 0, 81, 93
2, 10800, Note_off_c, 0, 81, 0
2, 10800, Note_on_c, 0, 78, 93
2, 10824, Note_off_c, 0, 78, 0
2, 10824, Note_on_c, 0, 72, 93
2, 10848, Note_off_c, 0, 72, 0
2, 10848, Note_on_c, 0, 69, 93
2, 10872, Note_off_c, 0, 69, 0
2, 10872, Note_on_c, 0, 66, 93
2, 10896, Note_off_c, 0, 66, 0
2, 10896, Note_on_c, 0, 62, 93
2, 10920, Note_off_c, 0, 62, 0
2, 10920, Note_on_c, 0, 60, 93
2, 10944, Note_off_c, 0, 60, 0
2, 10944, Note_on_c, 0, 59, 93
2, 10968, Note_off_c, 0, 59, 0
2, 10968, Note_on_c, 0, 62, 93
2, 10992, Note_off_c, 0, 62, 0
2, 10992, Note_on_c, 0, 67, 93
2, 11016, Note_off_c, 0, 67, 0
2, 11016, Note_on_c, 0, 66, 93
2, 11040, Note_off_c, 0, 66, 0
2, 11040, Note_on_c, 0, 67, 93
2, 11064, Note_off_c, 0, 67, 0
2, 11064, Note_on_c, 0, 75, 93
2, 11088, Note_off_c, 0, 75, 0
2, 11088, Note_on_c, 0, 74, 93
2, 11112, Note_off_c, 0, 74, 0
2, 11112, Note_on_c, 0, 73, 93
2, 11136, Note_off_c, 0, 73, 0
2, 11136, Note_on_c, 0, 82, 93
2, 11160, Note_off_c, 0, 82, 0
2, 11160, Note_on_c, 0, 81, 93
2, 11184, Note_off_c, 0, 81, 0
2, 11184, Note_on_c, 0, 80, 93
2, 11208, Note_off_c, 0, 80, 0
2, 11208, Note_on_c, 0, 81, 93
2, 11232, Note_off_c, 0, 81, 0
2, 11232, Note_on_c, 0, 77, 93
2, 11256, Note_off_c, 0, 77, 0
2, 11256, Note_on_c, 0, 76, 93
2, 11280, Note_off_c, 0, 76, 0
2, 11280, Note_on_c, 0, 74, 93
2, 11304, Note_off_c, 0, 74, 0
2, 11304, Note_on_c, 0, 72, 93
2, 11328, Note_off_c, 0, 72, 0
2, 11328, Note_on_c, 0, 70, 93
2, 11352, Note_off_c, 0, 70, 0
2, 11352, Note_on_c, 0, 69, 93
2, 11376, Note_off_c, 0, 69, 0
2, 11376, Note_on_c, 0, 68, 93
2, 11400, Note_off_c, 0, 68, 0
2, 11400, Note_on_c, 0, 69, 93
2, 11424, Note_off_c, 0, 69, 0
2, 11424, Note_on_c, 0, 61, 93
2, 11448, Note_off_c, 0, 61, 0
2, 11448, Note_on_c, 0, 67, 93
2, 11472, Note_off_c, 0, 67, 0
2, 11472, Note_on_c, 0, 65, 93
2, 11496, Note_off_c, 0, 65, 0
2, 11496, Note_on_c, 0, 64, 93
2, 11520, Note_off_c, 0, 64, 0
2, 11520, Note_on_c, 0, 65, 93
2, 11544, Note_off_c, 0, 65, 0
2, 11544, Note_on_c, 0, 62, 93
2, 11568, Note_off_c, 0, 62, 0
2, 11568, Note_on_c, 0, 64, 93
2, 11592, Note_off_c, 0, 64, 0
2, 11592, Note_on_c, 0, 65, 93
2, 11616, Note_off_c, 0, 65, 0
2, 11616, Note_on_c, 0, 67, 93
2, 11640, Note_off_c, 0, 67, 0
2, 11640, Note_on_c, 0, 69, 93
2, 11664, Note_off_c, 0, 69, 0
2, 11664, Note_on_c, 0, 71, 93
2, 11688, Note_off_c, 0, 71, 0
2, 11688, Note_on_c, 0, 73, 93
2, 11712, Note_off_c, 0, 73, 0
2, 11712, Note_on_c, 0, 74, 93
2, 11736, Note_off_c, 0, 74, 0
2, 11736, Note_on_c, 0, 65, 93
2, 11760, Note_off_c, 0, 65, 0
2, 11760, Note_on_c, 0, 64, 93
2, 11784, Note_off_c, 0, 64, 0
2, 11784, Note_on_c, 0, 62, 93
2, 11808, Note_off_c, 0, 62, 0
2, 11808, Note_on_c, 0, 57, 93
2, 11832, Note_off_c, 0, 57, 0
2, 11832, Note_on_c, 0, 64, 93
2, 11856, Note_off_c, 0, 64, 0
2, 11856, Note_on_c, 0, 74, 93
2, 11880, Note_off_c, 0, 74, 0
2, 11880, Note_on_c, 0, 73, 93
2, 11904, Note_off_c, 0, 73, 0
2, 11904, Note_on_c, 0, 62, 93
2, 11928, Note_off_c, 0, 62, 0
2, 11928, Note_on_c, 0, 66, 93
2, 11952, Note_off_c, 0, 66, 0
2, 11952, Note_on_c, 0, 69, 93
2, 11976, Note_off_c, 0, 69, 0
2, 11976, Note_on_c, 0, 72, 93
2, 12000, Note_off_c, 0, 72, 0
2, 12000, Note_on_c, 0, 72, 93
2, 12024, Note_off_c, 0, 72, 0
2, 12024, Note_on_c, 0, 70, 93
2, 12048, Note_off_c, 0, 70, 0
2, 12048, Note_on_c, 0, 72, 93
2, 12072, Note_off_c, 0, 72, 0
2, 12072, Note_on_c, 0, 69, 93
2, 12096, Note_off_c, 0, 69, 0
2, 12096, Note_on_c, 0, 70, 93
2, 12120, Note_off_c, 0, 70, 0
2, 12120, Note_on_c, 0, 67, 93
2, 12144, Note_off_c, 0, 67, 0
2, 12144, Note_on_c, 0, 65, 93
2, 12168, Note_off_c, 0, 65, 0
2, 12168, Note_on_c, 0, 63, 93
2, 12192, Note_off_c, 0, 63, 0
2, 12192, Note_on_c, 0, 62, 93
2, 12216, Note_off_c, 0, 62, 0
2, 12216, Note_on_c, 0, 60, 93
2, 12240, Note_off_c, 0, 60, 0
2, 12240, Note_on_c, 0, 58, 93
2, 12264, Note_off_c, 0, 58, 0
2, 12264, Note_on_c, 0, 57, 93
2, 12288, Note_off_c, 0, 57, 0
2, 12288, Note_on_c, 0, 55, 93
2, 12312, Note_off_c, 0, 55, 0
2, 12312, Note_on_c, 0, 67, 93
2, 12336, Note_off_c, 0, 67, 0
2, 12336, Note_on_c, 0, 75, 93
2, 12360, Note_off_c, 0, 75, 0
2, 12360, Note_on_c, 0, 74, 93
2, 12384, Note_off_c, 0, 74, 0
2, 12384, Note_on_c, 0, 73, 93
2, 12408, Note_off_c, 0, 73, 0
2, 12408, Note_on_c, 0, 76, 93
2, 12432, Note_off_c, 0, 76, 0
2, 12432, Note_on_c, 0, 69, 93
2, 12456, Note_off_c, 0, 69, 0
2, 12456, Note_on_c, 0, 67, 93
2, 12480, Note_off_c, 0, 67, 0
2, 12480, Note_on_c, 0, 65, 93
2, 12504, Note_off_c, 0, 65, 0
2, 12504, Note_on_c, 0, 74, 93
2, 12528, Note_off_c, 0, 74, 0
2, 12528, Note_on_c, 0, 64, 93
2, 12552, Note_off_c, 0, 64, 0
2, 12552, Note_on_c, 0, 62, 93
2, 12576, Note_off_c, 0, 62, 0
2, 12576, Note_on_c, 0, 57, 93
2, 12600, Note_off_c, 0, 57, 0
2, 12600, Note_on_c, 0, 64, 93
2, 12624, Note_off_c, 0, 64, 0
2, 12624, Note_on_c, 0, 74, 93
2, 12648, Note_off_c, 0, 74, 0
2, 12648, Note_on_c, 0, 73, 93
2, 12672, Note_off_c, 0, 73, 0
2, 12672, Note_on_c, 0, 79, 93
2, 12696, Note_off_c, 0, 79, 0
2, 12696, Note_on_c, 0, 76, 93
2, 12720, Note_off_c, 0, 76, 0
2, 12720, Note_on_c, 0, 77, 93
2, 12744, Note_off_c, 0, 77, 0
2, 12744, Note_on_c, 0, 73, 93
2, 12768, Note_off_c, 0, 73, 0
2, 12768, Note_on_c, 0, 74, 93
2, 12792, Note_off_c, 0, 74, 0
2, 12792, Note_on_c, 0, 72, 93
2, 12816, Note_off_c, 0, 72, 0
2, 12816, Note_on_c, 0, 70, 93
2, 12840, Note_off_c, 0, 70, 0
2, 12840, Note_on_c, 0, 69, 93
2, 12864, Note_off_c, 0, 69, 0
2, 12864, Note_on_c, 0, 67, 93
2, 12888, Note_off_c, 0, 67, 0
2, 12888, Note_on_c, 0, 65, 93
2, 12912, Note_off_c, 0, 65, 0
2, 12912, Note_on_c, 0, 64, 93
2, 12936, Note_off_c, 0, 64, 0
2, 12936, Note_on_c, 0, 62, 93
2, 12960, Note_off_c, 0, 62, 0
2, 12960, Note_on_c, 0, 61, 93
2, 12984, Note_off_c, 0, 61, 0
2, 12984, Note_on_c, 0, 70, 93
2, 13008, Note_off_c, 0, 70, 0
2, 13008, Note_on_c, 0, 69, 93
2, 13032, Note_off_c, 0, 69, 0
2, 13032, Note_on_c, 0, 67, 93
2, 13056, Note_off_c, 0, 67, 0
2, 13056, Note_on_c, 0, 66, 93
2, 13080, Note_off_c, 0, 66, 0
2, 13080, Note_on_c, 0, 62, 93
2, 13104, Note_off_c, 0, 62, 0
2, 13104, Note_on_c, 0, 69, 93
2, 13128, Note_off_c, 0, 69, 0
2, 13128, Note_on_c, 0, 62, 93
2, 13152, Note_off_c, 0, 62, 0
2, 13152, Note_on_c, 0, 60, 93
2, 13176, Note_off_c, 0, 60, 0
2, 13176, Note_on_c, 0, 58, 93
2, 13200, Note_off_c, 0, 58, 0
2, 13200, Note_on_c, 0, 60, 93
2, 13224, Note_off_c, 0, 60, 0
2, 13224, Note_on_c, 0, 57, 93
2, 13248, Note_off_c, 0, 57, 0
2, 13248, Note_on_c, 0, 58, 93
2, 13272, Note_off_c, 0, 58, 0
2, 13272, Note_on_c, 0, 55, 93
2, 13296, Note_off_c, 0, 55, 0
2, 13296, Note_on_c, 0, 57, 93
2, 13320, Note_off_c, 0, 57, 0
2, 13320, Note_on_c, 0, 58, 93
2, 13344, Note_off_c, 0, 58, 0
2, 13344, Note_on_c, 0, 60, 93
2, 13368, Note_off_c, 0, 60, 0
2, 13368, Note_on_c, 0, 62, 93
2, 13392, Note_off_c, 0, 62, 0
2, 13392, Note_on_c, 0, 64, 93
2, 13416, Note_off_c, 0, 64, 0
2, 13416, Note_on_c, 0, 66, 93
2, 13440, Note_off_c, 0, 66, 0
2, 13440, Note_on_c, 0, 67, 93
2, 13464, Note_off_c, 0, 67, 0
2, 13464, Note_on_c, 0, 69, 93
2, 13488, Note_off_c, 0, 69, 0
2, 13488, Note_on_c, 0, 70, 93
2, 13512, Note_off_c, 0, 70, 0
2, 13512, Note_on_c, 0, 69, 93
2, 13536, Note_off_c, 0, 69, 0
2, 13536, Note_on_c, 0, 68, 93
2, 13560, Note_off_c, 0, 68, 0
2, 13560, Note_on_c, 0, 69, 93
2, 13584, Note_off_c, 0, 69, 0
2, 13584, Note_on_c, 0, 64, 93
2, 13608, Note_off_c, 0, 64, 0
2, 13608, Note_on_c, 0, 65, 93
2, 13632, Note_off_c, 0, 65, 0
2, 13632, Note_on_c, 0, 67, 93
2, 13656, Note_off_c, 0, 67, 0
2, 13656, Note_on_c, 0, 61, 93
2, 13680, Note_off_c, 0, 61, 0
2, 13680, Note_on_c, 0, 62, 93
2, 13704, Note_off_c, 0, 62, 0
2, 13704, Note_on_c, 0, 56, 93
2, 13728, Note_off_c, 0, 56, 0
2, 13728, Note_on_c, 0, 57, 93
2, 13752, Note_off_c, 0, 57, 0
2, 13752, Note_on_c, 0, 65, 93
2, 13776, Note_off_c, 0, 65, 0
2, 13776, Note_on_c, 0, 64, 93
2, 13800, Note_off_c, 0, 64, 0
2, 13800, Note_on_c, 0, 61, 93
2, 13824, Note_off_c, 0, 61, 0
2, 13824, Note_on_c, 0, 62, 93
2, 13848, Note_off_c, 0, 62, 0
2, 13848, Note_on_c, 0, 74, 93
2, 13872, Note_off_c, 0, 74, 0
2, 13872, Note_on_c, 0, 69, 93
2, 13896, Note_off_c, 0, 69, 0
2, 13896, Note_on_c, 0, 67, 93
2, 13920, Note_off_c, 0, 67, 0
2, 13920, Note_on_c, 0, 65, 93
2, 13944, Note_off_c, 0, 65, 0
2, 13944, Note_on_c, 0, 64, 93
2, 13968, Note_off_c, 0, 64, 0
2, 13968, Note_on_c, 0, 62, 93
2, 13992, Note_off_c, 0, 62, 0
2, 13992, Note_on_c, 0, 60, 93
2, 14016, Note_off_c, 0, 60, 0
2, 14016, Note_on_c, 0, 58, 93
2, 14040, Note_off_c, 0, 58, 0
2, 14040, Note_on_c, 0, 74, 93
2, 14064, Note_off_c, 0, 74, 0
2, 14064, Note_on_c, 0, 67, 93
2, 14088, Note_off_c, 0, 67, 0
2, 14088, Note_on_c, 0, 65, 93
2, 14112, Note_off_c, 0, 65, 0
2, 14112, Note_on_c, 0, 64, 93
2, 14136, Note_off_c, 0, 64, 0
2, 14136, Note_on_c, 0, 72, 93
2, 14160, Note_off_c, 0, 72, 0
2, 14160, Note_on_c, 0, 67, 93
2, 14184, Note_off_c, 0, 67, 0
2, 14184, Note_on_c, 0, 65, 93
2, 14208, Note_off_c, 0, 65, 0
2, 14208, Note_on_c, 0, 64, 93
2, 14232, Note_off_c, 0, 64, 0
2, 14232, Note_on_c, 0, 62, 93
2, 14256, Note_off_c, 0, 62, 0
2, 14256, Note_on_c, 0, 60, 93
2, 14280, Note_off_c, 0, 60, 0
2, 14280, Note_on_c, 0, 58, 93
2, 14304, Note_off_c, 0, 58, 0
2, 14304, Note_on_c, 0, 57, 93
2, 14328, Note_off_c, 0, 57, 0
2, 14328, Note_on_c, 0, 72, 93
2, 14352, Note_off_c, 0, 72, 0
2, 14352, Note_on_c, 0, 65, 93
2, 14376, Note_off_c, 0, 65, 0
2, 14376, Note_on_c, 0, 63, 93
2, 14400, Note_off_c, 0, 63, 0
2, 14400, Note_on_c, 0, 62, 93
2, 14424, Note_off_c, 0, 62, 0
2, 14424, Note_on_c, 0, 70, 93
2, 14448, Note_off_c, 0, 70, 0
2, 14448, Note_on_c, 0, 65, 93
2, 14472, Note_off_c, 0, 65, 0
2, 14472, Note_on_c, 0, 63, 93
2, 14496, Note_off_c, 0, 63, 0
2, 14496, Note_on_c, 0, 62, 93
2, 14520, Note_off_c, 0, 62, 0
2, 14520, Note_on_c, 0, 60, 93
2, 14544, Note_off_c, 0, 60, 0
2, 14544, Note_on_c, 0, 58, 93
2, 14568, Note_off_c, 0, 58, 0
2, 14568, Note_on_c, 0, 57, 93
2, 14592, Note_off_c, 0, 57, 0
2, 14592, Note_on_c, 0, 55, 93
2, 14616, Note_off_c, 0, 55, 0
2, 14616, Note_on_c, 0, 70, 93
2, 14640, Note_off_c, 0, 70, 0
2, 14640, Note_on_c, 0, 64, 93
2, 14664, Note_off_c, 0, 64, 0
2, 14664, Note_on_c, 0, 62, 93
2, 14688, Note_off_c, 0, 62, 0
2, 14688, Note_on_c, 0, 61, 93
2, 14712, Note_off_c, 0, 61, 0
2, 14712, Note_on_c, 0, 57, 93
2, 14736, Note_off_c, 0, 57, 0
2, 14736, Note_on_c, 0, 61, 93
2, 14760, Note_off_c, 0, 61, 0
2, 14760, Note_on_c, 0, 64, 93
2, 14784, Note_off_c, 0, 64, 0
2, 14784, Note_on_c, 0, 69, 93
2, 14808, Note_off_c, 0, 69, 0
2, 14808, Note_on_c, 0, 64, 93
2, 14832, Note_off_c, 0, 64, 0
2, 14832, Note_on_c, 0, 69, 93
2, 14856, Note_off_c, 0, 69, 0
2, 14856, Note_on_c, 0, 73, 93
2, 14880, Note_off_c, 0, 73, 0
2, 14880, Note_on_c, 0, 76, 93
2, 14904, Note_off_c, 0, 76, 0
2, 14904, Note_on_c, 0, 67, 93
2, 14928, Note_off_c, 0, 67, 0
2, 14928, Note_on_c, 0, 69, 93
2, 14952, Note_off_c, 0, 69, 0
2, 14952, Note_on_c, 0, 64, 93
2, 14976, Note_off_c, 0, 64, 0
2, 14976, Note_on_c, 0, 65, 93
2, 15000, Note_off_c, 0, 65, 0
2, 15000, Note_on_c, 0, 62, 93
2, 15024, Note_off_c, 0, 62, 0
2, 15024, Note_on_c, 0, 65, 93
2, 15048, Note_off_c, 0, 65, 0
2, 15048, Note_on_c, 0, 69, 93
2, 15072, Note_off_c, 0, 69, 0
2, 15072, Note_on_c, 0, 74, 93
2, 15096, Note_off_c, 0, 74, 0
2, 15096, Note_on_c, 0, 69, 93
2, 15120, Note_off_c, 0, 69, 0
2, 15120, Note_on_c, 0, 74, 93
2, 15144, Note_off_c, 0, 74, 0
2, 15144, Note_on_c, 0, 77, 93
2, 15168, Note_off_c, 0, 77, 0
2, 15168, Note_on_c, 0, 70, 93
2, 15192, Note_off_c, 0, 70, 0
2, 15192, Note_on_c, 0, 79, 93
2, 15216, Note_off_c, 0, 79, 0
2, 15216, Note_on_c, 0, 81, 93
2, 15240, Note_off_c, 0, 81, 0
2, 15240, Note_on_c, 0, 82, 93
2, 15264, Note_off_c, 0, 82, 0
2, 15264, Note_on_c, 0, 76, 93
2, 15288, Note_off_c, 0, 76, 0
2, 15288, Note_on_c, 0, 60, 93
2, 15312, Note_off_c, 0, 60, 0
2, 15312, Note_on_c, 0, 64, 93
2, 15336, Note_off_c, 0, 64, 0
2, 15336, Note_on_c, 0, 67, 93
2, 15360, Note_off_c, 0, 67, 0
2, 15360, Note_on_c, 0, 72, 93
2, 15384, Note_off_c, 0, 72, 0
2, 15384, Note_on_c, 0, 67, 93
2, 15408, Note_off_c, 0, 67, 0
2, 15408, Note_on_c, 0, 72, 93
2, 15432, Note_off_c, 0, 72, 0
2, 15432, Note_on_c, 0, 76, 93
2, 15456, Note_off_c, 0, 76, 0
2, 15456, Note_on_c, 0, 69, 93
2, 15480, Note_off_c, 0, 69, 0
2, 15480, Note_on_c, 0, 77, 93
2, 15504, Note_off_c, 0, 77, 0
2, 15504, Note_on_c, 0, 79, 93
2, 15528, Note_off_c, 0, 79, 0
2, 15528, Note_on_c, 0, 81, 93
2, 15552, Note_off_c, 0, 81, 0
2, 15552, Note_on_c, 0, 74, 93
2, 15576, Note_off_c, 0, 74, 0
2, 15576, Note_on_c, 0, 58, 93
2, 15600, Note_off_c, 0, 58, 0
2, 15600, Note_on_c, 0, 62, 93
2, 15624, Note_off_c, 0, 62, 0
2, 15624, Note_on_c, 0, 65, 93
2, 15648, Note_off_c, 0, 65, 0
2, 15648, Note_on_c, 0, 70, 93
2, 15672, Note_off_c, 0, 70, 0
2, 15672, Note_on_c, 0, 65, 93
2, 15696, Note_off_c, 0, 65, 0
2, 15696, Note_on_c, 0, 70, 93
2, 15720, Note_off_c, 0, 70, 0
2, 15720, Note_on_c, 0, 74, 93
2, 15744, Note_off_c, 0, 74, 0
2, 15744, Note_on_c, 0, 67, 93
2, 15768, Note_off_c, 0, 67, 0
2, 15768, Note_on_c, 0, 76, 93
2, 15792, Note_off_c, 0, 76, 0
2, 15792, Note_on_c, 0, 77, 93
2, 15816, Note_off_c, 0, 77, 0
2, 15816, Note_on_c, 0, 79, 93
2, 15840, Note_off_c, 0, 79, 0
2, 15840, Note_on_c, 0, 73, 93
2, 15864, Note_off_c, 0, 73, 0
2, 15864, Note_on_c, 0, 69, 93
2, 15888, Note_off_c, 0, 69, 0
2, 15888, Note_on_c, 0, 73, 93
2, 15912, Note_off_c, 0, 73, 0
2, 15912, Note_on_c, 0, 76, 93
2, 15936, Note_off_c, 0, 76, 0
2, 15936, Note_on_c, 0, 81, 93
2, 15960, Note_off_c, 0, 81, 0
2, 15960, Note_on_c, 0, 76, 93
2, 15984, Note_off_c, 0, 76, 0
2, 15984, Note_on_c, 0, 81, 93
2, 16008, Note_off_c, 0, 81, 0
2, 16008, Note_on_c, 0, 85, 93
2, 16032, Note_off_c, 0, 85, 0
2, 16032, Note_on_c, 0, 88, 93
2, 16056, Note_off_c, 0, 88, 0
2, 16056, Note_on_c, 0, 79, 93
2, 16080, Note_off_c, 0, 79, 0
2, 16080, Note_on_c, 0, 77, 93
2, 16104, Note_off_c, 0, 77, 0
2, 16104, Note_on_c, 0, 76, 93
2, 16128, Note_off_c, 0, 76, 0
2, 16128, Note_on_c, 0, 74, 93
2, 16176, Note_off_c, 0, 74, 0
2, 16176, Note_on_c, 0, 69, 93
2, 16224, Note_off_c, 0, 69, 0
2, 16224, Note_on_c, 0, 62, 93
2, 16272, Note_off_c, 0, 62, 0
2, 16272, Note_on_c, 0, 74, 93
2, 16320, Note_off_c, 0, 74, 0
2, 16320, Note_on_c, 0, 70, 93
2, 16344, Note_off_c, 0, 70, 0
2, 16344, Note_on_c, 0, 69, 93
2, 16368, Note_off_c, 0, 69, 0
2, 16368, Note_on_c, 0, 70, 93
2, 16392, Note_off_c, 0, 70, 0
2, 16392, Note_on_c, 0, 67, 93
2, 16416, Note_off_c, 0, 67, 0
2, 16416, Note_on_c, 0, 72, 93
2, 16464, Note_off_c, 0, 72, 0
2, 16464, Note_on_c, 0, 67, 93
2, 16512, Note_off_c, 0, 67, 0
2, 16512, Note_on_c, 0, 60, 93
2, 16560, Note_off_c, 0, 60, 0
2, 16560, Note_on_c, 0, 72, 93
2, 16608, Note_off_c, 0, 72, 0
2, 16608, Note_on_c, 0, 69, 93
2, 16632, Note_off_c, 0, 69, 0
2, 16632, Note_on_c, 0, 67, 93
2, 16656, Note_off_c, 0, 67, 0
2, 16656, Note_on_c, 0, 69, 93
2, 16680, Note_off_c, 0, 69, 0
2, 16680, Note_on_c, 0, 65, 93
2, 16704, Note_off_c, 0, 65, 0
2, 16704, Note_on_c, 0, 70, 93
2, 16752, Note_off_c, 0, 70, 0
2, 16752, Note_on_c, 0, 65, 93
2, 16800, Note_off_c, 0, 65, 0
2, 16800, Note_on_c, 0, 58, 93
2, 16848, Note_off_c, 0, 58, 0
2, 16848, Note_on_c, 0, 70, 93
2, 16896, Note_off_c, 0, 70, 0
2, 16896, Note_on_c, 0, 67, 93
2, 16920, Note_off_c, 0, 67, 0
2, 16920, Note_on_c, 0, 65, 93
2, 16944, Note_off_c, 0, 65, 0
2, 16944, Note_on_c, 0, 67, 93
2, 16968, Note_off_c, 0, 67, 0
2, 16968, Note_on_c, 0, 64, 93
2, 16992, Note_off_c, 0, 64, 0
2, 16992, Note_on_c, 0, 65, 93
2, 17016, Note_off_c, 0, 65, 0
2, 17016, Note_on_c, 0, 64, 93
2, 17040, Note_off_c, 0, 64, 0
2, 17040, Note_on_c, 0, 65, 93
2, 17064, Note_off_c, 0, 65, 0
2, 17064, Note_on_c, 0, 62, 93
2, 17088, Note_off_c, 0, 62, 0
2, 17088, Note_on_c, 0, 64, 93
2, 17136, Note_off_c, 0, 64, 0
2, 17136, Note_on_c, 0, 81, 93
2, 17184, Note_off_c, 0, 81, 0
2, 17184, Note_on_c, 0, 81, 93
2, 17208, Note_off_c, 0, 81, 0
2, 17208, Note_on_c, 0, 79, 93
2, 17232, Note_off_c, 0, 79, 0
2, 17232, Note_on_c, 0, 81, 93
2, 17256, Note_off_c, 0, 81, 0
2, 17256, Note_on_c, 0, 76, 93
2, 17280, Note_off_c, 0, 76, 0
2, 17280, Note_on_c, 0, 74, 93
2, 17304, Note_off_c, 0, 74, 0
2, 17304, Note_on_c, 0, 73, 93
2, 17328, Note_off_c, 0, 73, 0
2, 17328, Note_on_c, 0, 74, 93
2, 17352, Note_off_c, 0, 74, 0
2, 17352, Note_on_c, 0, 69, 93
2, 17376, Note_off_c, 0, 69, 0
2, 17376, Note_on_c, 0, 65, 93
2, 17400, Note_off_c, 0, 65, 0
2, 17400, Note_on_c, 0, 64, 93
2, 17424, Note_off_c, 0, 64, 0
2, 17424, Note_on_c, 0, 65, 93
2, 17448, Note_off_c, 0, 65, 0
2, 17448, Note_on_c, 0, 62, 93
2, 17472, Note_off_c, 0, 62, 0
2, 17472, Note_on_c, 0, 58, 93
2, 17496, Note_off_c, 0, 58, 0
2, 17496, Note_on_c, 0, 67, 93
2, 17520, Note_off_c, 0, 67, 0
2, 17520, Note_on_c, 0, 74, 93
2, 17544, Note_off_c, 0, 74, 0
2, 17544, Note_on_c, 0, 82, 93
2, 17568, Note_off_c, 0, 82, 0
2, 17568, Note_on_c, 0, 72, 93
2, 17592, Note_off_c, 0, 72, 0
2, 17592, Note_on_c, 0, 71, 93
2, 17616, Note_off_c, 0, 71, 0
2, 17616, Note_on_c, 0, 72, 93
2, 17640, Note_off_c, 0, 72, 0
2, 17640, Note_on_c, 0, 67, 93
2, 17664, Note_off_c, 0, 67, 0
2, 17664, Note_on_c, 0, 64, 93
2, 17688, Note_off_c, 0, 64, 0
2, 17688, Note_on_c, 0, 62, 93
2, 17712, Note_off_c, 0, 62, 0
2, 17712, Note_on_c, 0, 64, 93
2, 17736, Note_off_c, 0, 64, 0
2, 17736, Note_on_c, 0, 60, 93
2, 17760, Note_off_c, 0, 60, 0
2, 17760, Note_on_c, 0, 57, 93
2, 17784, Note_off_c, 0, 57, 0
2, 17784, Note_on_c, 0, 65, 93
2, 17808, Note_off_c, 0, 65, 0
2, 17808, Note_on_c, 0, 72, 93
2, 17832, Note_off_c, 0, 72, 0
2, 17832, Note_on_c, 0, 81, 93
2, 17856, Note_off_c, 0, 81, 0
2, 17856, Note_on_c, 0, 65, 93
2, 17880, Note_off_c, 0, 65, 0
2, 17880, Note_on_c, 0, 63, 93
2, 17904, Note_off_c, 0, 63, 0
2, 17904, Note_on_c, 0, 65, 93
2, 17928, Note_off_c, 0, 65, 0
2, 17928, Note_on_c, 0, 62, 93
2, 17952, Note_off_c, 0, 62, 0
2, 17952, Note_on_c, 0, 62, 93
2, 17976, Note_off_c, 0, 62, 0
2, 17976, Note_on_c, 0, 60, 93
2, 18000, Note_off_c, 0, 60, 0
2, 18000, Note_on_c, 0, 62, 93
2, 18024, Note_off_c, 0, 62, 0
2, 18024, Note_on_c, 0, 58, 93
2, 18048, Note_off_c, 0, 58, 0
2, 18048, Note_on_c, 0, 55, 93
2, 18072, Note_off_c, 0, 55, 0
2, 18072, Note_on_c, 0, 64, 93
2, 18096, Note_off_c, 0, 64, 0
2, 18096, Note_on_c, 0, 71, 93
2, 18120, Note_off_c, 0, 71, 0
2, 18120, Note_on_c, 0, 79, 93
2, 18144, Note_off_c, 0, 79, 0
2, 18144, Note_on_c, 0, 57, 93
2, 18168, Note_off_c, 0, 57, 0
2, 18168, Note_on_c, 0, 64, 93
2, 18192, Note_off_c, 0, 64, 0
2, 18192, Note_on_c, 0, 73, 93
2, 18216, Note_off_c, 0, 73, 0
2, 18216, Note_on_c, 0, 79, 93
2, 18240, Note_off_c, 0, 79, 0
2, 18240, Note_on_c, 0, 57, 93
2, 18264, Note_off_c, 0, 57, 0
2, 18264, Note_on_c, 0, 65, 93
2, 18288, Note_off_c, 0, 65, 0
2, 18288, Note_on_c, 0, 74, 93
2, 18312, Note_off_c, 0, 74, 0
2, 18312, Note_on_c, 0, 77, 93
2, 18336, Note_off_c, 0, 77, 0
2, 18336, Note_on_c, 0, 57, 93
2, 18360, Note_off_c, 0, 57, 0
2, 18360, Note_on_c, 0, 67, 93
2, 18384, Note_off_c, 0, 67, 0
2, 18384, Note_on_c, 0, 73, 93
2, 18408, Note_off_c, 0, 73, 0
2, 18408, Note_on_c, 0, 76, 93
2, 18432, Note_off_c, 0, 76, 0
2, 18432, Note_on_c, 0, 74, 93
2, 18456, Note_off_c, 0, 74, 0
2, 18456, Note_on_c, 0, 69, 93
2, 18468, Note_off_c, 0, 69, 0
2, 18468, Note_on_c, 0, 67, 93
2, 18480, Note_off_c, 0, 67, 0
2, 18480, Note_on_c, 0, 65, 93
2, 18504, Note_off_c, 0, 65, 0
2, 18504, Note_on_c, 0, 64, 93
2, 18528, Note_off_c, 0, 64, 0
2, 18528, Note_on_c, 0, 62, 93
2, 18552, Note_off_c, 0, 62, 0
2, 18552, Note_on_c, 0, 60, 93
2, 18576, Note_off_c, 0, 60, 0
2, 18576, Note_on_c, 0, 58, 93
2, 18600, Note_off_c, 0, 58, 0
2, 18600, Note_on_c, 0, 57, 93
2, 18624, Note_off_c, 0, 57, 0
2, 18624, Note_on_c, 0, 58, 93
2, 18648, Note_off_c, 0, 58, 0
2, 18648, Note_on_c, 0, 74, 93
2, 18660, Note_off_c, 0, 74, 0
2, 18660, Note_on_c, 0, 72, 93
2, 18672, Note_off_c, 0, 72, 0
2, 18672, Note_on_c, 0, 70, 93
2, 18684, Note_off_c, 0, 70, 0
2, 18684, Note_on_c, 0, 69, 93
2, 18696, Note_off_c, 0, 69, 0
2, 18696, Note_on_c, 0, 67, 93
2, 18708, Note_off_c, 0, 67, 0
2, 18708, Note_on_c, 0, 65, 93
2, 18720, Note_off_c, 0, 65, 0
2, 18720, Note_on_c, 0, 64, 93
2, 18744, Note_off_c, 0, 64, 0
2, 18744, Note_on_c, 0, 67, 93
2, 18756, Note_off_c, 0, 67, 0
2, 18756, Note_on_c, 0, 65, 93
2, 18768, Note_off_c, 0, 65, 0
2, 18768, Note_on_c, 0, 64, 93
2, 18792, Note_off_c, 0, 64, 0
2, 18792, Note_on_c, 0, 62, 93
2, 18816, Note_off_c, 0, 62, 0
2, 18816, Note_on_c, 0, 60, 93
2, 18840, Note_off_c, 0, 60, 0
2, 18840, Note_on_c, 0, 58, 93
2, 18864, Note_off_c, 0, 58, 0
2, 18864, Note_on_c, 0, 57, 93
2, 18888, Note_off_c, 0, 57, 0
2, 18888, Note_on_c, 0, 55, 93
2, 18912, Note_off_c, 0, 55, 0
2, 18912, Note_on_c, 0, 57, 93
2, 18936, Note_off_c, 0, 57, 0
2, 18936, Note_on_c, 0, 72, 93
2, 18948, Note_off_c, 0, 72, 0
2, 18948, Note_on_c, 0, 70, 93
2, 18960, Note_off_c, 0, 70, 0
2, 18960, Note_on_c, 0, 69, 93
2, 18972, Note_off_c, 0, 69, 0
2, 18972, Note_on_c, 0, 67, 93
2, 18984, Note_off_c, 0, 67, 0
2, 18984, Note_on_c, 0, 65, 93
2, 18996, Note_off_c, 0, 65, 0
2, 18996, Note_on_c, 0, 63, 93
2, 19008, Note_off_c, 0, 63, 0
2, 19008, Note_on_c, 0, 62, 93
2, 19032, Note_off_c, 0, 62, 0
2, 19032, Note_on_c, 0, 65, 93
2, 19044, Note_off_c, 0, 65, 0
2, 19044, Note_on_c, 0, 63, 93
2, 19056, Note_off_c, 0, 63, 0
2, 19056, Note_on_c, 0, 62, 93
2, 19080, Note_off_c, 0, 62, 0
2, 19080, Note_on_c, 0, 60, 93
2, 19104, Note_off_c, 0, 60, 0
2, 19104, Note_on_c, 0, 58, 93
2, 19128, Note_off_c, 0, 58, 0
2, 19128, Note_on_c, 0, 62, 93
2, 19140, Note_off_c, 0, 62, 0
2, 19140, Note_on_c, 0, 60, 93
2, 19152, Note_off_c, 0, 60, 0
2, 19152, Note_on_c, 0, 58, 93
2, 19176, Note_off_c, 0, 58, 0
2, 19176, Note_on_c, 0, 57, 93
2, 19200, Note_off_c, 0, 57, 0
2, 19200, Note_on_c, 0, 55, 93
2, 19224, Note_off_c, 0, 55, 0
2, 19224, Note_on_c, 0, 70, 93
2, 19236, Note_off_c, 0, 70, 0
2, 19236, Note_on_c, 0, 69, 93
2, 19248, Note_off_c, 0, 69, 0
2, 19248, Note_on_c, 0, 67, 93
2, 19260, Note_off_c, 0, 67, 0
2, 19260, Note_on_c, 0, 65, 93
2, 19272, Note_off_c, 0, 65, 0
2, 19272, Note_on_c, 0, 64, 93
2, 19284, Note_off_c, 0, 64, 0
2, 19284, Note_on_c, 0, 62, 93
2, 19296, Note_off_c, 0, 62, 0
2, 19296, Note_on_c, 0, 61, 93
2, 19308, Note_off_c, 0, 61, 0
2, 19308, Note_on_c, 0, 59, 93
2, 19320, Note_off_c, 0, 59, 0
2, 19320, Note_on_c, 0, 57, 93
2, 19332, Note_off_c, 0, 57, 0
2, 19332, Note_on_c, 0, 59, 93
2, 19344, Note_off_c, 0, 59, 0
2, 19344, Note_on_c, 0, 61, 93
2, 19356, Note_off_c, 0, 61, 0
2, 19356, Note_on_c, 0, 62, 93
2, 19368, Note_off_c, 0, 62, 0
2, 19368, Note_on_c, 0, 64, 93
2, 19380, Note_off_c, 0, 64, 0
2, 19380, Note_on_c, 0, 65, 93
2, 19392, Note_off_c, 0, 65, 0
2, 19392, Note_on_c, 0, 67, 93
2, 19404, Note_off_c, 0, 67, 0
2, 19404, Note_on_c, 0, 69, 93
2, 19416, Note_off_c, 0, 69, 0
2, 19416, Note_on_c, 0, 70, 93
2, 19428, Note_off_c, 0, 70, 0
2, 19428, Note_on_c, 0, 69, 93
2, 19440, Note_off_c, 0, 69, 0
2, 19440, Note_on_c, 0, 67, 93
2, 19452, Note_off_c, 0, 67, 0
2, 19452, Note_on_c, 0, 65, 93
2, 19464, Note_off_c, 0, 65, 0
2, 19464, Note_on_c, 0, 64, 93
2, 19476, Note_off_c, 0, 64, 0
2, 19476, Note_on_c, 0, 62, 93
2, 19488, Note_off_c, 0, 62, 0
2, 19488, Note_on_c, 0, 61, 93
2, 19512, Note_off_c, 0, 61, 0
2, 19512, Note_on_c, 0, 76, 93
2, 19524, Note_off_c, 0, 76, 0
2, 19524, Note_on_c, 0, 74, 93
2, 19536, Note_off_c, 0, 74, 0
2, 19536, Note_on_c, 0, 73, 93
2, 19548, Note_off_c, 0, 73, 0
2, 19548, Note_on_c, 0, 71, 93
2, 19560, Note_off_c, 0, 71, 0
2, 19560, Note_on_c, 0, 69, 93
2, 19572, Note_off_c, 0, 69, 0
2, 19572, Note_on_c, 0, 67, 93
2, 19584, Note_off_c, 0, 67, 0
2, 19584, Note_on_c, 0, 65, 93
2, 19608, Note_off_c, 0, 65, 0
2, 19608, Note_on_c, 0, 62, 93
2, 19620, Note_off_c, 0, 62, 0
2, 19620, Note_on_c, 0, 64, 93
2, 19632, Note_off_c, 0, 64, 0
2, 19632, Note_on_c, 0, 65, 93
2, 19656, Note_off_c, 0, 65, 0
2, 19656, Note_on_c, 0, 69, 93
2, 19680, Note_off_c, 0, 69, 0
2, 19680, Note_on_c, 0, 65, 93
2, 19704, Note_off_c, 0, 65, 0
2, 19704, Note_on_c, 0, 62, 93
2, 19728, Note_off_c, 0, 62, 0
2, 19728, Note_on_c, 0, 65, 93
2, 19752, Note_off_c, 0, 65, 0
2, 19752, Note_on_c, 0, 69, 93
2, 19776, Note_off_c, 0, 69, 0
2, 19776, Note_on_c, 0, 70, 93
2, 19788, Note_off_c, 0, 70, 0
2, 19788, Note_on_c, 0, 72, 93
2, 19800, Note_off_c, 0, 72, 0
2, 19800, Note_on_c, 0, 74, 93
2, 19812, Note_off_c, 0, 74, 0
2, 19812, Note_on_c, 0, 76, 93
2, 19824, Note_off_c, 0, 76, 0
2, 19824, Note_on_c, 0, 77, 93
2, 19836, Note_off_c, 0, 77, 0
2, 19836, Note_on_c, 0, 79, 93
2, 19848, Note_off_c, 0, 79, 0
2, 19848, Note_on_c, 0, 81, 93
2, 19860, Note_off_c, 0, 81, 0
2, 19860, Note_on_c, 0, 82, 93
2, 19872, Note_off_c, 0, 82, 0
2, 19872, Note_on_c, 0, 76, 93
2, 19896, Note_off_c, 0, 76, 0
2, 19896, Note_on_c, 0, 60, 93
2, 19908, Note_off_c, 0, 60, 0
2, 19908, Note_on_c, 0, 62, 93
2, 19920, Note_off_c, 0, 62, 0
2, 19920, Note_on_c, 0, 64, 93
2, 19944, Note_off_c, 0, 64, 0
2, 19944, Note_on_c, 0, 67, 93
2, 19968, Note_off_c, 0, 67, 0
2, 19968, Note_on_c, 0, 64, 93
2, 19992, Note_off_c, 0, 64, 0
2, 19992, Note_on_c, 0, 60, 93
2, 20016, Note_off_c, 0, 60, 0
2, 20016, Note_on_c, 0, 64, 93
2, 20040, Note_off_c, 0, 64, 0
2, 20040, Note_on_c, 0, 67, 93
2, 20064, Note_off_c, 0, 67, 0
2, 20064, Note_on_c, 0, 69, 93
2, 20076, Note_off_c, 0, 69, 0
2, 20076, Note_on_c, 0, 70, 93
2, 20088, Note_off_c, 0, 70, 0
2, 20088, Note_on_c, 0, 72, 93
2, 20100, Note_off_c, 0, 72, 0
2, 20100, Note_on_c, 0, 74, 93
2, 20112, Note_off_c, 0, 74, 0
2, 20112, Note_on_c, 0, 76, 93
2, 20124, Note_off_c, 0, 76, 0
2, 20124, Note_on_c, 0, 77, 93
2, 20136, Note_off_c, 0, 77, 0
2, 20136, Note_on_c, 0, 79, 93
2, 20148, Note_off_c, 0, 79, 0
2, 20148, Note_on_c, 0, 81, 93
2, 20160, Note_off_c, 0, 81, 0
2, 20160, Note_on_c, 0, 74, 93
2, 20184, Note_off_c, 0, 74, 0
2, 20184, Note_on_c, 0, 58, 93
2, 20196, Note_off_c, 0, 58, 0
2, 20196, Note_on_c, 0, 60, 93
2, 20208, Note_off_c, 0, 60, 0
2, 20208, Note_on_c, 0, 62, 93
2, 20232, Note_off_c, 0, 62, 0
2, 20232, Note_on_c, 0, 65, 93
2, 20256, Note_off_c, 0, 65, 0
2, 20256, Note_on_c, 0, 62, 93
2, 20280, Note_off_c, 0, 62, 0
2, 20280, Note_on_c, 0, 58, 93
2, 20304, Note_off_c, 0, 58, 0
2, 20304, Note_on_c, 0, 62, 93
2, 20328, Note_off_c, 0, 62, 0
2, 20328, Note_on_c, 0, 65, 93
2, 20352, Note_off_c, 0, 65, 0
2, 20352, Note_on_c, 0, 67, 93
2, 20364, Note_off_c, 0, 67, 0
2, 20364, Note_on_c, 0, 69, 93
2, 20376, Note_off_c, 0, 69, 0
2, 20376, Note_on_c, 0, 70, 93
2, 20388, Note_off_c, 0, 70, 0
2, 20388, Note_on_c, 0, 72, 93
2, 20400, Note_off_c, 0, 72, 0
2, 20400, Note_on_c, 0, 74, 93
2, 20412, Note_off_c, 0, 74, 0
2, 20412, Note_on_c, 0, 76, 93
2, 20424, Note_off_c, 0, 76, 0
2, 20424, Note_on_c, 0, 77, 93
2, 20436, Note_off_c, 0, 77, 0
2, 20436, Note_on_c, 0, 79, 93
2, 20448, Note_off_c, 0, 79, 0
2, 20448, Note_on_c, 0, 73, 93
2, 20460, Note_off_c, 0, 73, 0
2, 20460, Note_on_c, 0, 82, 93
2, 20472, Note_off_c, 0, 82, 0
2, 20472, Note_on_c, 0, 81, 93
2, 20484, Note_off_c, 0, 81, 0
2, 20484, Note_on_c, 0, 79, 93
2, 20496, Note_off_c, 0, 79, 0
2, 20496, Note_on_c, 0, 77, 93
2, 20508, Note_off_c, 0, 77, 0
2, 20508, Note_on_c, 0, 76, 93
2, 20520, Note_off_c, 0, 76, 0
2, 20520, Note_on_c, 0, 74, 93
2, 20532, Note_off_c, 0, 74, 0
2, 20532, Note_on_c, 0, 72, 93
2, 20544, Note_off_c, 0, 72, 0
2, 20544, Note_on_c, 0, 70, 93
2, 20556, Note_off_c, 0, 70, 0
2, 20556, Note_on_c, 0, 69, 93
2, 20568, Note_off_c, 0, 69, 0
2, 20568, Note_on_c, 0, 67, 93
2, 20580, Note_off_c, 0, 67, 0
2, 20580, Note_on_c, 0, 65, 93
2, 20592, Note_off_c, 0, 65, 0
2, 20592, Note_on_c, 0, 64, 93
2, 20604, Note_off_c, 0, 64, 0
2, 20604, Note_on_c, 0, 62, 93
2, 20616, Note_off_c, 0, 62, 0
2, 20616, Note_on_c, 0, 61, 93
2, 20628, Note_off_c, 0, 61, 0
2, 20628, Note_on_c, 0, 59, 93
2, 20640, Note_off_c, 0, 59, 0
2, 20640, Note_on_c, 0, 57, 93
2, 20652, Note_off_c, 0, 57, 0
2, 20652, Note_on_c, 0, 59, 93
2, 20664, Note_off_c, 0, 59, 0
2, 20664, Note_on_c, 0, 61, 93
2, 20676, Note_off_c, 0, 61, 0
2, 20676, Note_on_c, 0, 62, 93
2, 20688, Note_off_c, 0, 62, 0
2, 20688, Note_on_c, 0, 64, 93
2, 20700, Note_off_c, 0, 64, 0
2, 20700, Note_on_c, 0, 65, 93
2, 20712, Note_off_c, 0, 65, 0
2, 20712, Note_on_c, 0, 67, 93
2, 20724, Note_off_c, 0, 67, 0
2, 20724, Note_on_c, 0, 64, 93
2, 20736, Note_off_c, 0, 64, 0
2, 20736, Note_on_c, 0, 65, 93
2, 20748, Note_off_c, 0, 65, 0
2, 20748, Note_on_c, 0, 62, 93
2, 20760, Note_off_c, 0, 62, 0
2, 20760, Note_on_c, 0, 64, 93
2, 20772, Note_off_c, 0, 64, 0
2, 20772, Note_on_c, 0, 65, 93
2, 20784, Note_off_c, 0, 65, 0
2, 20784, Note_on_c, 0, 67, 93
2, 20796, Note_off_c, 0, 67, 0
2, 20796, Note_on_c, 0, 69, 93
2, 20808, Note_off_c, 0, 69, 0
2, 20808, Note_on_c, 0, 71, 93
2, 20820, Note_off_c, 0, 71, 0
2, 20820, Note_on_c, 0, 73, 93
2, 20832, Note_off_c, 0, 73, 0
2, 20832, Note_on_c, 0, 74, 93
2, 20844, Note_off_c, 0, 74, 0
2, 20844, Note_on_c, 0, 71, 93
2, 20856, Note_off_c, 0, 71, 0
2, 20856, Note_on_c, 0, 73, 93
2, 20868, Note_off_c, 0, 73, 0
2, 20868, Note_on_c, 0, 74, 93
2, 20880, Note_off_c, 0, 74, 0
2, 20880, Note_on_c, 0, 76, 93
2, 20892, Note_off_c, 0, 76, 0
2, 20892, Note_on_c, 0, 77, 93
2, 20904, Note_off_c, 0, 77, 0
2, 20904, Note_on_c, 0, 79, 93
2, 20916, Note_off_c, 0, 79, 0
2, 20916, Note_on_c, 0, 81, 93
2, 20928, Note_off_c, 0, 81, 0
2, 20928, Note_on_c, 0, 82, 93
2, 20952, Note_off_c, 0, 82, 0
2, 20952, Note_on_c, 0, 62, 93
2, 20976, Note_off_c, 0, 62, 0
2, 20976, Note_on_c, 0, 60, 93
2, 21000, Note_off_c, 0, 60, 0
2, 21000, Note_on_c, 0, 58, 93
2, 21024, Note_off_c, 0, 58, 0
2, 21024, Note_on_c, 0, 60, 93
2, 21036, Note_off_c, 0, 60, 0
2, 21036, Note_on_c, 0, 62, 93
2, 21048, Note_off_c, 0, 62, 0
2, 21048, Note_on_c, 0, 64, 93
2, 21060, Note_off_c, 0, 64, 0
2, 21060, Note_on_c, 0, 66, 93
2, 21072, Note_off_c, 0, 66, 0
2, 21072, Note_on_c, 0, 67, 93
2, 21084, Note_off_c, 0, 67, 0
2, 21084, Note_on_c, 0, 69, 93
2, 21096, Note_off_c, 0, 69, 0
2, 21096, Note_on_c, 0, 70, 93
2, 21108, Note_off_c, 0, 70, 0
2, 21108, Note_on_c, 0, 72, 93
2, 21120, Note_off_c, 0, 72, 0
2, 21120, Note_on_c, 0, 74, 93
2, 21132, Note_off_c, 0, 74, 0
2, 21132, Note_on_c, 0, 69, 93
2, 21144, Note_off_c, 0, 69, 0
2, 21144, Note_on_c, 0, 70, 93
2, 21156, Note_off_c, 0, 70, 0
2, 21156, Note_on_c, 0, 72, 93
2, 21168, Note_off_c, 0, 72, 0
2, 21168, Note_on_c, 0, 74, 93
2, 21180, Note_off_c, 0, 74, 0
2, 21180, Note_on_c, 0, 76, 93
2, 21192, Note_off_c, 0, 76, 0
2, 21192, Note_on_c, 0, 78, 93
2, 21204, Note_off_c, 0, 78, 0
2, 21204, Note_on_c, 0, 79, 93
2, 21216, Note_off_c, 0, 79, 0
2, 21216, Note_on_c, 0, 81, 93
2, 21240, Note_off_c, 0, 81, 0
2, 21240, Note_on_c, 0, 60, 93
2, 21264, Note_off_c, 0, 60, 0
2, 21264, Note_on_c, 0, 58, 93
2, 21288, Note_off_c, 0, 58, 0
2, 21288, Note_on_c, 0, 57, 93
2, 21312, Note_off_c, 0, 57, 0
2, 21312, Note_on_c, 0, 58, 93
2, 21324, Note_off_c, 0, 58, 0
2, 21324, Note_on_c, 0, 62, 93
2, 21336, Note_off_c, 0, 62, 0
2, 21336, Note_on_c, 0, 64, 93
2, 21348, Note_off_c, 0, 64, 0
2, 21348, Note_on_c, 0, 66, 93
2, 21360, Note_off_c, 0, 66, 0
2, 21360, Note_on_c, 0, 67, 93
2, 21372, Note_off_c, 0, 67, 0
2, 21372, Note_on_c, 0, 69, 93
2, 21384, Note_off_c, 0, 69, 0
2, 21384, Note_on_c, 0, 70, 93
2, 21396, Note_off_c, 0, 70, 0
2, 21396, Note_on_c, 0, 72, 93
2, 21408, Note_off_c, 0, 72, 0
2, 21408, Note_on_c, 0, 74, 93
2, 21420, Note_off_c, 0, 74, 0
2, 21420, Note_on_c, 0, 67, 93
2, 21432, Note_off_c, 0, 67, 0
2, 21432, Note_on_c, 0, 69, 93
2, 21444, Note_off_c, 0, 69, 0
2, 21444, Note_on_c, 0, 70, 93
2, 21456, Note_off_c, 0, 70, 0
2, 21456, Note_on_c, 0, 72, 93
2, 21468, Note_off_c, 0, 72, 0
2, 21468, Note_on_c, 0, 74, 93
2, 21480, Note_off_c, 0, 74, 0
2, 21480, Note_on_c, 0, 76, 93
2, 21492, Note_off_c, 0, 76, 0
2, 21492, Note_on_c, 0, 78, 93
2, 21504, Note_off_c, 0, 78, 0
2, 21504, Note_on_c, 0, 79, 93
2, 21516, Note_off_c, 0, 79, 0
2, 21516, Note_on_c, 0, 81, 93
2, 21528, Note_off_c, 0, 81, 0
2, 21528, Note_on_c, 0, 82, 93
2, 21540, Note_off_c, 0, 82, 0
2, 21540, Note_on_c, 0, 81, 93
2, 21552, Note_off_c, 0, 81, 0
2, 21552, Note_on_c, 0, 79, 93
2, 21564, Note_off_c, 0, 79, 0
2, 21564, Note_on_c, 0, 77, 93
2, 21576, Note_off_c, 0, 77, 0
2, 21576, Note_on_c, 0, 76, 93
2, 21588, Note_off_c, 0, 76, 0
2, 21588, Note_on_c, 0, 74, 93
2, 21600, Note_off_c, 0, 74, 0
2, 21600, Note_on_c, 0, 73, 93
2, 21612, Note_off_c, 0, 73, 0
2, 21612, Note_on_c, 0, 81, 93
2, 21624, Note_off_c, 0, 81, 0
2, 21624, Note_on_c, 0, 79, 93
2, 21636, Note_off_c, 0, 79, 0
2, 21636, Note_on_c, 0, 77, 93
2, 21648, Note_off_c, 0, 77, 0
2, 21648, Note_on_c, 0, 76, 93
2, 21660, Note_off_c, 0, 76, 0
2, 21660, Note_on_c, 0, 74, 93
2, 21672, Note_off_c, 0, 74, 0
2, 21672, Note_on_c, 0, 73, 93
2, 21684, Note_off_c, 0, 73, 0
2, 21684, Note_on_c, 0, 71, 93
2, 21696, Note_off_c, 0, 71, 0
2, 21696, Note_on_c, 0, 69, 93
2, 21708, Note_off_c, 0, 69, 0
2, 21708, Note_on_c, 0, 71, 93
2, 21720, Note_off_c, 0, 71, 0
2, 21720, Note_on_c, 0, 73, 93
2, 21732, Note_off_c, 0, 73, 0
2, 21732, Note_on_c, 0, 74, 93
2, 21744, Note_off_c, 0, 74, 0
2, 21744, Note_on_c, 0, 76, 93
2, 21756, Note_off_c, 0, 76, 0
2, 21756, Note_on_c, 0, 77, 93
2, 21768, Note_off_c, 0, 77, 0
2, 21768, Note_on_c, 0, 79, 93
2, 21780, Note_off_c, 0, 79, 0
2, 21780, Note_on_c, 0, 81, 93
2, 21792, Note_off_c, 0, 81, 0
2, 21792, Note_on_c, 0, 82, 93
2, 21804, Note_off_c, 0, 82, 0
2, 21804, Note_on_c, 0, 79, 93
2, 21816, Note_off_c, 0, 79, 0
2, 21816, Note_on_c, 0, 76, 93
2, 21828, Note_off_c, 0, 76, 0
2, 21828, Note_on_c, 0, 73, 93
2, 21840, Note_off_c, 0, 73, 0
2, 21840, Note_on_c, 0, 69, 93
2, 21852, Note_off_c, 0, 69, 0
2, 21852, Note_on_c, 0, 67, 93
2, 21864, Note_off_c, 0, 67, 0
2, 21864, Note_on_c, 0, 65, 93
2, 21876, Note_off_c, 0, 65, 0
2, 21876, Note_on_c, 0, 64, 93
2, 21888, Note_off_c, 0, 64, 0
2, 21888, Note_on_c, 0, 62, 93
2, 21912, Note_off_c, 0, 62, 0
2, 21912, Note_on_c, 0, 69, 93
2, 21936, Note_off_c, 0, 69, 0
2, 21936, Note_on_c, 0, 74, 93
2, 21960, Note_off_c, 0, 74, 0
2, 21960, Note_on_c, 0, 76, 93
2, 21984, Note_off_c, 0, 76, 0
2, 21984, Note_on_c, 0, 77, 93
2, 22008, Note_off_c, 0, 77, 0
2, 22008, Note_on_c, 0, 74, 93
2, 22032, Note_off_c, 0, 74, 0
2, 22032, Note_on_c, 0, 70, 93
2, 22056, Note_off_c, 0, 70, 0
2, 22056, Note_on_c, 0, 69, 93
2, 22080, Note_off_c, 0, 69, 0
2, 22080, Note_on_c, 0, 68, 93
2, 22104, Note_off_c, 0, 68, 0
2, 22104, Note_on_c, 0, 71, 93
2, 22128, Note_off_c, 0, 71, 0
2, 22128, Note_on_c, 0, 74, 93
2, 22152, Note_off_c, 0, 74, 0
2, 22152, Note_on_c, 0, 77, 93
2, 22176, Note_off_c, 0, 77, 0
2, 22176, Note_on_c, 0, 60, 93
2, 22200, Note_off_c, 0, 60, 0
2, 22200, Note_on_c, 0, 64, 93
2, 22224, Note_off_c, 0, 64, 0
2, 22224, Note_on_c, 0, 69, 93
2, 22248, Note_off_c, 0, 69, 0
2, 22248, Note_on_c, 0, 72, 93
2, 22272, Note_off_c, 0, 72, 0
2, 22272, Note_on_c, 0, 76, 93
2, 22296, Note_off_c, 0, 76, 0
2, 22296, Note_on_c, 0, 72, 93
2, 22320, Note_off_c, 0, 72, 0
2, 22320, Note_on_c, 0, 69, 93
2, 22344, Note_off_c, 0, 69, 0
2, 22344, Note_on_c, 0, 67, 93
2, 22368, Note_off_c, 0, 67, 0
2, 22368, Note_on_c, 0, 66, 93
2, 22392, Note_off_c, 0, 66, 0
2, 22392, Note_on_c, 0, 69, 93
2, 22416, Note_off_c, 0, 69, 0
2, 22416, Note_on_c, 0, 72, 93
2, 22440, Note_off_c, 0, 72, 0
2, 22440, Note_on_c, 0, 75, 93
2, 22464, Note_off_c, 0, 75, 0
2, 22464, Note_on_c, 0, 58, 93
2, 22488, Note_off_c, 0, 58, 0
2, 22488, Note_on_c, 0, 62, 93
2, 22512, Note_off_c, 0, 62, 0
2, 22512, Note_on_c, 0, 67, 93
2, 22536, Note_off_c, 0, 67, 0
2, 22536, Note_on_c, 0, 70, 93
2, 22560, Note_off_c, 0, 70, 0
2, 22560, Note_on_c, 0, 74, 93
2, 22584, Note_off_c, 0, 74, 0
2, 22584, Note_on_c, 0, 70, 93
2, 22608, Note_off_c, 0, 70, 0
2, 22608, Note_on_c, 0, 67, 93
2, 22632, Note_off_c, 0, 67, 0
2, 22632, Note_on_c, 0, 65, 93
2, 22656, Note_off_c, 0, 65, 0
2, 22656, Note_on_c, 0, 64, 93
2, 22680, Note_off_c, 0, 64, 0
2, 22680, Note_on_c, 0, 67, 93
2, 22704, Note_off_c, 0, 67, 0
2, 22704, Note_on_c, 0, 70, 93
2, 22728, Note_off_c, 0, 70, 0
2, 22728, Note_on_c, 0, 73, 93
2, 22752, Note_off_c, 0, 73, 0
2, 22752, Note_on_c, 0, 57, 93
2, 22776, Note_off_c, 0, 57, 0
2, 22776, Note_on_c, 0, 62, 93
2, 22800, Note_off_c, 0, 62, 0
2, 22800, Note_on_c, 0, 65, 93
2, 22824, Note_off_c, 0, 65, 0
2, 22824, Note_on_c, 0, 69, 93
2, 22848, Note_off_c, 0, 69, 0
2, 22848, Note_on_c, 0, 74, 93
2, 22872, Note_off_c, 0, 74, 0
2, 22872, Note_on_c, 0, 69, 93
2, 22896, Note_off_c, 0, 69, 0
2, 22896, Note_on_c, 0, 65, 93
2, 22920, Note_off_c, 0, 65, 0
2, 22920, Note_on_c, 0, 62, 93
2, 22944, Note_off_c, 0, 62, 0
2, 22944, Note_on_c, 0, 57, 93
2, 22968, Note_off_c, 0, 57, 0
2, 22968, Note_on_c, 0, 64, 93
2, 22992, Note_off_c, 0, 64, 0
2, 22992, Note_on_c, 0, 67, 93
2, 23016, Note_off_c, 0, 67, 0
2, 23016, Note_on_c, 0, 73, 93
2, 23040, Note_off_c, 0, 73, 0
2, 23040, Note_on_c, 0, 62, 93
2, 23064, Note_off_c, 0, 62, 0
2, 23064, Note_on_c, 0, 82, 93
2, 23088, Note_off_c, 0, 82, 0
2, 23088, Note_on_c, 0, 82, 93
2, 23112, Note_off_c, 0, 82, 0
2, 23112, Note_on_c, 0, 80, 93
2, 23136, Note_off_c, 0, 80, 0
2, 23136, Note_on_c, 0, 80, 93
2, 23160, Note_off_c, 0, 80, 0
2, 23160, Note_on_c, 0, 77, 93
2, 23184, Note_off_c, 0, 77, 0
2, 23184, Note_on_c, 0, 77, 93
2, 23208, Note_off_c, 0, 77, 0
2, 23208, Note_on_c, 0, 74, 93
2, 23232, Note_off_c, 0, 74, 0
2, 23232, Note_on_c, 0, 74, 93
2, 23256, Note_off_c, 0, 74, 0
2, 23256, Note_on_c, 0, 71, 93
2, 23280, Note_off_c, 0, 71, 0
2, 23280, Note_on_c, 0, 68, 93
2, 23304, Note_off_c, 0, 68, 0
2, 23304, Note_on_c, 0, 64, 93
2, 23328, Note_off_c, 0, 64, 0
2, 23328, Note_on_c, 0, 61, 93
2, 23352, Note_off_c, 0, 61, 0
2, 23352, Note_on_c, 0, 81, 93
2, 23376, Note_off_c, 0, 81, 0
2, 23376, Note_on_c, 0, 81, 93
2, 23400, Note_off_c, 0, 81, 0
2, 23400, Note_on_c, 0, 78, 93
2, 23424, Note_off_c, 0, 78, 0
2, 23424, Note_on_c, 0, 78, 93
2, 23448, Note_off_c, 0, 78, 0
2, 23448, Note_on_c, 0, 75, 93
2, 23472, Note_off_c, 0, 75, 0
2, 23472, Note_on_c, 0, 75, 93
2, 23496, Note_off_c, 0, 75, 0
2, 23496, Note_on_c, 0, 72, 93
2, 23520, Note_off_c, 0, 72, 0
2, 23520, Note_on_c, 0, 72, 93
2, 23544, Note_off_c, 0, 72, 0
2, 23544, Note_on_c, 0, 69, 93
2, 23568, Note_off_c, 0, 69, 0
2, 23568, Note_on_c, 0, 66, 93
2, 23592, Note_off_c, 0, 66, 0
2, 23592, Note_on_c, 0, 62, 93
2, 23616, Note_off_c, 0, 62, 0
2, 23616, Note_on_c, 0, 59, 93
2, 23640, Note_off_c, 0, 59, 0
2, 23640, Note_on_c, 0, 79, 93
2, 23664, Note_off_c, 0, 79, 0
2, 23664, Note_on_c, 0, 79, 93
2, 23688, Note_off_c, 0, 79, 0
2, 23688, Note_on_c, 0, 75, 93
2, 23712, Note_off_c, 0, 75, 0
2, 23712, Note_on_c, 0, 75, 93
2, 23736, Note_off_c, 0, 75, 0
2, 23736, Note_on_c, 0, 73, 93
2, 23760, Note_off_c, 0, 73, 0
2, 23760, Note_on_c, 0, 73, 93
2, 23784, Note_off_c, 0, 73, 0
2, 23784, Note_on_c, 0, 70, 93
2, 23808, Note_off_c, 0, 70, 0
2, 23808, Note_on_c, 0, 70, 93
2, 23832, Note_off_c, 0, 70, 0
2, 23832, Note_on_c, 0, 67, 93
2, 23856, Note_off_c, 0, 67, 0
2, 23856, Note_on_c, 0, 64, 93
2, 23880, Note_off_c, 0, 64, 0
2, 23880, Note_on_c, 0, 61, 93
2, 23904, Note_off_c, 0, 61, 0
2, 23904, Note_on_c, 0, 57, 93
2, 23928, Note_off_c, 0, 57, 0
2, 23928, Note_on_c, 0, 61, 93
2, 23952, Note_off_c, 0, 61, 0
2, 23952, Note_on_c, 0, 61, 93
2, 23976, Note_off_c, 0, 61, 0
2, 23976, Note_on_c, 0, 64, 93
2, 24000, Note_off_c, 0, 64, 0
2, 24000, Note_on_c, 0, 64, 93
2, 24024, Note_off_c, 0, 64, 0
2, 24024, Note_on_c, 0, 67, 93
2, 24036, Note_off_c, 0, 67, 0
2, 24036, Note_on_c, 0, 65, 93
2, 24048, Note_off_c, 0, 65, 0
2, 24048, Note_on_c, 0, 67, 93
2, 24072, Note_off_c, 0, 67, 0
2, 24072, Note_on_c, 0, 70, 93
2, 24084, Note_off_c, 0, 70, 0
2, 24084, Note_on_c, 0, 69, 93
2, 24096, Note_off_c, 0, 69, 0
2, 24096, Note_on_c, 0, 70, 93
2, 24120, Note_off_c, 0, 70, 0
2, 24120, Note_on_c, 0, 73, 93
2, 24132, Note_off_c, 0, 73, 0
2, 24132, Note_on_c, 0, 74, 93
2, 24144, Note_off_c, 0, 74, 0
2, 24144, Note_on_c, 0, 76, 93
2, 24168, Note_off_c, 0, 76, 0
2, 24168, Note_on_c, 0, 67, 93
2, 24192, Note_off_c, 0, 67, 0
2, 24192, Note_on_c, 0, 65, 93
2, 24204, Note_off_c, 0, 65, 0
2, 24204, Note_on_c, 0, 69, 93
2, 24216, Note_off_c, 0, 69, 0
2, 24216, Note_on_c, 0, 71, 93
2, 24228, Note_off_c, 0, 71, 0
2, 24228, Note_on_c, 0, 73, 93
2, 24240, Note_off_c, 0, 73, 0
2, 24240, Note_on_c, 0, 74, 93
2, 24252, Note_off_c, 0, 74, 0
2, 24252, Note_on_c, 0, 73, 93
2, 24264, Note_off_c, 0, 73, 0
2, 24264, Note_on_c, 0, 71, 93
2, 24276, Note_off_c, 0, 71, 0
2, 24276, Note_on_c, 0, 69, 93
2, 24288, Note_off_c, 0, 69, 0
2, 24288, Note_on_c, 0, 77, 93
2, 24300, Note_off_c, 0, 77, 0
2, 24300, Note_on_c, 0, 76, 93
2, 24312, Note_off_c, 0, 76, 0
2, 24312, Note_on_c, 0, 74, 93
2, 24324, Note_off_c, 0, 74, 0
2, 24324, Note_on_c, 0, 73, 93
2, 24336, Note_off_c, 0, 73, 0
2, 24336, Note_on_c, 0, 74, 93
2, 24348, Note_off_c, 0, 74, 0
2, 24348, Note_on_c, 0, 76, 93
2, 24360, Note_off_c, 0, 76, 0
2, 24360, Note_on_c, 0, 77, 93
2, 24372, Note_off_c, 0, 77, 0
2, 24372, Note_on_c, 0, 79, 93
2, 24384, Note_off_c, 0, 79, 0
2, 24384, Note_on_c, 0, 81, 93
2, 24396, Note_off_c, 0, 81, 0
2, 24396, Note_on_c, 0, 79, 93
2, 24408, Note_off_c, 0, 79, 0
2, 24408, Note_on_c, 0, 77, 93
2, 24420, Note_off_c, 0, 77, 0
2, 24420, Note_on_c, 0, 76, 93
2, 24432, Note_off_c, 0, 76, 0
2, 24432, Note_on_c, 0, 82, 93
2, 24444, Note_off_c, 0, 82, 0
2, 24444, Note_on_c, 0, 81, 93
2, 24456, Note_off_c, 0, 81, 0
2, 24456, Note_on_c, 0, 79, 93
2, 24468, Note_off_c, 0, 79, 0
2, 24468, Note_on_c, 0, 77, 93
2, 24480, Note_off_c, 0, 77, 0
2, 24480, Note_on_c, 0, 72, 93
2, 24492, Note_off_c, 0, 72, 0
2, 24492, Note_on_c, 0, 76, 93
2, 24504, Note_off_c, 0, 76, 0
2, 24504, Note_on_c, 0, 78, 93
2, 24516, Note_off_c, 0, 78, 0
2, 24516, Note_on_c, 0, 80, 93
2, 24528, Note_off_c, 0, 80, 0
2, 24528, Note_on_c, 0, 81, 93
2, 24540, Note_off_c, 0, 81, 0
2, 24540, Note_on_c, 0, 80, 93
2, 24552, Note_off_c, 0, 80, 0
2, 24552, Note_on_c, 0, 78, 93
2, 24564, Note_off_c, 0, 78, 0
2, 24564, Note_on_c, 0, 76, 93
2, 24576, Note_off_c, 0, 76, 0
2, 24576, Note_on_c, 0, 84, 93
2, 24588, Note_off_c, 0, 84, 0
2, 24588, Note_on_c, 0, 83, 93
2, 24600, Note_off_c, 0, 83, 0
2, 24600, Note_on_c, 0, 81, 93
2, 24612, Note_off_c, 0, 81, 0
2, 24612, Note_on_c, 0, 80, 93
2, 24624, Note_off_c, 0, 80, 0
2, 24624, Note_on_c, 0, 81, 93
2, 24636, Note_off_c, 0, 81, 0
2, 24636, Note_on_c, 0, 83, 93
2, 24648, Note_off_c, 0, 83, 0
2, 24648, Note_on_c, 0, 84, 93
2, 24660, Note_off_c, 0, 84, 0
2, 24660, Note_on_c, 0, 86, 93
2, 24672, Note_off_c, 0, 86, 0
2, 24672, Note_on_c, 0, 88, 93
2, 24684, Note_off_c, 0, 88, 0
2, 24684, Note_on_c, 0, 86, 93
2, 24696, Note_off_c, 0, 86, 0
2, 24696, Note_on_c, 0, 84, 93
2, 24708, Note_off_c, 0, 84, 0
2, 24708, Note_on_c, 0, 83, 93
2, 24720, Note_off_c, 0, 83, 0
2, 24720, Note_on_c, 0, 89, 93
2, 24732, Note_off_c, 0, 89, 0
2, 24732, Note_on_c, 0, 88, 93
2, 24744, Note_off_c, 0, 88, 0
2, 24744, Note_on_c, 0, 86, 93
2, 24756, Note_off_c, 0, 86, 0
2, 24756, Note_on_c, 0, 85, 93
2, 24768, Note_off_c, 0, 85, 0
2, 24768, Note_on_c, 0, 86, 93
2, 24780, Note_off_c, 0, 86, 0
2, 24780, Note_on_c, 0, 88, 93
2, 24792, Note_off_c, 0, 88, 0
2, 24792, Note_on_c, 0, 89, 93
2, 24804, Note_off_c, 0, 89, 0
2, 24804, Note_on_c, 0, 88, 93
2, 24816, Note_off_c, 0, 88, 0
2, 24816, Note_on_c, 0, 86, 93
2, 24828, Note_off_c, 0, 86, 0
2, 24828, Note_on_c, 0, 89, 93
2, 24840, Note_off_c, 0, 89, 0
2, 24840, Note_on_c, 0, 88, 93
2, 24852, Note_off_c, 0, 88, 0
2, 24852, Note_on_c, 0, 86, 93
2, 24864, Note_off_c, 0, 86, 0
2, 24864, Note_on_c, 0, 89, 93
2, 24876, Note_off_c, 0, 89, 0
2, 24876, Note_on_c, 0, 88, 93
2, 24888, Note_off_c, 0, 88, 0
2, 24888, Note_on_c, 0, 86, 93
2, 24900, Note_off_c, 0, 86, 0
2, 24900, Note_on_c, 0, 89, 93
2, 24912, Note_off_c, 0, 89, 0
2, 24912, Note_on_c, 0, 88, 93
2, 24924, Note_off_c, 0, 88, 0
2, 24924, Note_on_c, 0, 86, 93
2, 24936, Note_off_c, 0, 86, 0
2, 24936, Note_on_c, 0, 89, 93
2, 24948, Note_off_c, 0, 89, 0
2, 24948, Note_on_c, 0, 88, 93
2, 24960, Note_off_c, 0, 88, 0
2, 24960, Note_on_c, 0, 86, 93
2, 24972, Note_off_c, 0, 86, 0
2, 24972, Note_on_c, 0, 91, 93
2, 24984, Note_off_c, 0, 91, 0
2, 24984, Note_on_c, 0, 89, 93
2, 24996, Note_off_c, 0, 89, 0
2, 24996, Note_on_c, 0, 88, 93
2, 25008, Note_off_c, 0, 88, 0
2, 25008, Note_on_c, 0, 86, 93
2, 25020, Note_off_c, 0, 86, 0
2, 25020, Note_on_c, 0, 84, 93
2, 25032, Note_off_c, 0, 84, 0
2, 25032, Note_on_c, 0, 82, 93
2, 25044, Note_off_c, 0, 82, 0
2, 25044, Note_on_c, 0, 81, 93
2, 25056, Note_off_c, 0, 81, 0
2, 25056, Note_on_c, 0, 79, 93
2, 25068, Note_off_c, 0, 79, 0
2, 25068, Note_on_c, 0, 81, 93
2, 25080, Note_off_c, 0, 81, 0
2, 25080, Note_on_c, 0, 82, 93
2, 25092, Note_off_c, 0, 82, 0
2, 25092, Note_on_c, 0, 81, 93
2, 25104, Note_off_c, 0, 81, 0
2, 25104, Note_on_c, 0, 79, 93
2, 25116, Note_off_c, 0, 79, 0
2, 25116, Note_on_c, 0, 82, 93
2, 25128, Note_off_c, 0, 82, 0
2, 25128, Note_on_c, 0, 81, 93
2, 25140, Note_off_c, 0, 81, 0
2, 25140, Note_on_c, 0, 79, 93
2, 25152, Note_off_c, 0, 79, 0
2, 25152, Note_on_c, 0, 82, 93
2, 25164, Note_off_c, 0, 82, 0
2, 25164, Note_on_c, 0, 81, 93
2, 25176, Note_off_c, 0, 81, 0
2, 25176, Note_on_c, 0, 79, 93
2, 25188, Note_off_c, 0, 79, 0
2, 25188, Note_on_c, 0, 82, 93
2, 25200, Note_off_c, 0, 82, 0
2, 25200, Note_on_c, 0, 81, 93
2, 25212, Note_off_c, 0, 81, 0
2, 25212, Note_on_c, 0, 79, 93
2, 25224, Note_off_c, 0, 79, 0
2, 25224, Note_on_c, 0, 82, 93
2, 25236, Note_off_c, 0, 82, 0
2, 25236, Note_on_c, 0, 81, 93
2, 25248, Note_off_c, 0, 81, 0
2, 25248, Note_on_c, 0, 79, 93
2, 25260, Note_off_c, 0, 79, 0
2, 25260, Note_on_c, 0, 77, 93
2, 25272, Note_off_c, 0, 77, 0
2, 25272, Note_on_c, 0, 76, 93
2, 25284, Note_off_c, 0, 76, 0
2, 25284, Note_on_c, 0, 74, 93
2, 25296, Note_off_c, 0, 74, 0
2, 25296, Note_on_c, 0, 73, 93
2, 25308, Note_off_c, 0, 73, 0
2, 25308, Note_on_c, 0, 71, 93
2, 25320, Note_off_c, 0, 71, 0
2, 25320, Note_on_c, 0, 69, 93
2, 25332, Note_off_c, 0, 69, 0
2, 25332, Note_on_c, 0, 67, 93
2, 25344, Note_off_c, 0, 67, 0
2, 25344, Note_on_c, 0, 81, 42
2, 25632, Note_off_c, 0, 81, 0
2, 25632, Note_on_c, 0, 79, 42
2, 25824, Note_off_c, 0, 79, 0
2, 25824, Note_on_c, 0, 79, 42
2, 25920, Note_off_c, 0, 79, 0
2, 25920, Note_on_c, 0, 77, 42
2, 26112, Note_off_c, 0, 77, 0
2, 26112, Note_on_c, 0, 77, 42
2, 26208, Note_off_c, 0, 77, 0
2, 26208, Note_on_c, 0, 76, 42
2, 26256, Note_off_c, 0, 76, 0
2, 26256, Note_on_c, 0, 77, 42
2, 26304, Note_off_c, 0, 77, 0
2, 26304, Note_on_c, 0, 76, 42
2, 26352, Note_off_c, 0, 76, 0
2, 26352, Note_on_c, 0, 74, 42
2, 26400, Note_off_c, 0, 74, 0
2, 26400, Note_on_c, 0, 74, 42
2, 26448, Note_off_c, 0, 74, 0
2, 26448, Note_on_c, 0, 73, 42
2, 26496, Note_off_c, 0, 73, 0
2, 26496, Note_on_c, 0, 74, 42
2, 26784, Note_off_c, 0, 74, 0
2, 26784, Note_on_c, 0, 75, 42
2, 27072, Note_off_c, 0, 75, 0
2, 27072, Note_on_c, 0, 74, 42
2, 27360, Note_off_c, 0, 74, 0
2, 27360, Note_on_c, 0, 74, 42
2, 27552, Note_off_c, 0, 74, 0
2, 27552, Note_on_c, 0, 73, 42
2, 27648, Note_off_c, 0, 73, 0
2, 27648, Note_on_c, 0, 74, 42
2, 27744, Note_off_c, 0, 74, 0
2, 27744, Note_on_c, 0, 69, 42
2, 27840, Note_off_c, 0, 69, 0
2, 27840, Note_on_c, 0, 70, 42
2, 27936, Note_off_c, 0, 70, 0
2, 27936, Note_on_c, 0, 72, 42
2, 28032, Note_off_c, 0, 72, 0
2, 28032, Note_on_c, 0, 70, 42
2, 28128, Note_off_c, 0, 70, 0
2, 28128, Note_on_c, 0, 69, 42
2, 28224, Note_off_c, 0, 69, 0
2, 28224, Note_on_c, 0, 70, 42
2, 28320, Note_off_c, 0, 70, 0
2, 28320, Note_on_c, 0, 82, 42
2, 28416, Note_off_c, 0, 82, 0
2, 28416, Note_on_c, 0, 81, 42
2, 28512, Note_off_c, 0, 81, 0
2, 28512, Note_on_c, 0, 79, 42
2, 28560, Note_off_c, 0, 79, 0
2, 28560, Note_on_c, 0, 77, 42
2, 28608, Note_off_c, 0, 77, 0
2, 28608, Note_on_c, 0, 74, 42
2, 28704, Note_off_c, 0, 74, 0
2, 28704, Note_on_c, 0, 73, 42
2, 28800, Note_off_c, 0, 73, 0
2, 28800, Note_on_c, 0, 74, 42
2, 28896, Note_off_c, 0, 74, 0
2, 28896, Note_on_c, 0, 69, 42
2, 28992, Note_off_c, 0, 69, 0
2, 28992, Note_on_c, 0, 70, 42
2, 29088, Note_off_c, 0, 70, 0
2, 29088, Note_on_c, 0, 72, 42
2, 29184, Note_off_c, 0, 72, 0
2, 29184, Note_on_c, 0, 70, 42
2, 29280, Note_off_c, 0, 70, 0
2, 29280, Note_on_c, 0, 69, 42
2, 29376, Note_off_c, 0, 69, 0
2, 29376, Note_on_c, 0, 70, 42
2, 29472, Note_off_c, 0, 70, 0
2, 29472, Note_on_c, 0, 69, 42
2, 29568, Note_off_c, 0, 69, 0
2, 29568, Note_on_c, 0, 67, 42
2, 29664, Note_off_c, 0, 67, 0
2, 29664, Note_on_c, 0, 65, 42
2, 29760, Note_off_c, 0, 65, 0
2, 29760, Note_on_c, 0, 64, 42
2, 29952, Note_off_c, 0, 64, 0
2, 29952, Note_on_c, 0, 65, 42
2, 30048, Note_off_c, 0, 65, 0
2, 30048, Note_on_c, 0, 69, 42
2, 30144, Note_off_c, 0, 69, 0
2, 30144, Note_on_c, 0, 77, 42
2, 30240, Note_off_c, 0, 77, 0
2, 30240, Note_on_c, 0, 77, 42
2, 30336, Note_off_c, 0, 77, 0
2, 30336, Note_on_c, 0, 76, 42
2, 30432, Note_off_c, 0, 76, 0
2, 30432, Note_on_c, 0, 75, 42
2, 30528, Note_off_c, 0, 75, 0
2, 30528, Note_on_c, 0, 75, 42
2, 30624, Note_off_c, 0, 75, 0
2, 30624, Note_on_c, 0, 82, 42
2, 30720, Note_off_c, 0, 82, 0
2, 30720, Note_on_c, 0, 76, 42
2, 30816, Note_off_c, 0, 76, 0
2, 30816, Note_on_c, 0, 76, 42
2, 30912, Note_off_c, 0, 76, 0
2, 30912, Note_on_c, 0, 81, 42
2, 31008, Note_off_c, 0, 81, 0
2, 31008, Note_on_c, 0, 79, 42
2, 31104, Note_off_c, 0, 79, 0
2, 31104, Note_on_c, 0, 77, 42
2, 31200, Note_off_c, 0, 77, 0
2, 31200, Note_on_c, 0, 78, 42
2, 31392, Note_off_c, 0, 78, 0
2, 31392, Note_on_c, 0, 79, 42
2, 31488, Note_off_c, 0, 79, 0
2, 31488, Note_on_c, 0, 80, 42
2, 31680, Note_off_c, 0, 80, 0
2, 31680, Note_on_c, 0, 81, 42
2, 31776, Note_off_c, 0, 81, 0
2, 31776, Note_on_c, 0, 84, 42
2, 31872, Note_off_c, 0, 84, 0
2, 31872, Note_on_c, 0, 83, 42
2, 31968, Note_off_c, 0, 83, 0
2, 31968, Note_on_c, 0, 86, 42
2, 32064, Note_off_c, 0, 86, 0
2, 32064, Note_on_c, 0, 86, 42
2, 32160, Note_off_c, 0, 86, 0
2, 32160, Note_on_c, 0, 85, 42
2, 32256, Note_off_c, 0, 85, 0
2, 32256, Note_on_c, 0, 86, 42
2, 32544, Note_off_c, 0, 86, 0
2, 32544, Note_on_c, 0, 86, 42
2, 32640, Note_off_c, 0, 86, 0
2, 32640, Note_on_c, 0, 85, 42
2, 32832, Note_off_c, 0, 85, 0
2, 32832, Note_on_c, 0, 84, 42
2, 32928, Note_off_c, 0, 84, 0
2, 32928, Note_on_c, 0, 83, 42
2, 33120, Note_off_c, 0, 83, 0
2, 33120, Note_on_c, 0, 82, 42
2, 33216, Note_off_c, 0, 82, 0
2, 33216, Note_on_c, 0, 81, 42
2, 33312, Note_off_c, 0, 81, 0
2, 33312, Note_on_c, 0, 79, 42
2, 33408, Note_off_c, 0, 79, 0
2, 33408, Note_on_c, 0, 78, 42
2, 33504, Note_off_c, 0, 78, 0
2, 33504, Note_on_c, 0, 77, 42
2, 33600, Note_off_c, 0, 77, 0
2, 33600, Note_on_c, 0, 77, 42
2, 33696, Note_off_c, 0, 77, 0
2, 33696, Note_on_c, 0, 76, 42
2, 33792, Note_off_c, 0, 76, 0
2, 33792, Note_on_c, 0, 75, 42
2, 33888, Note_off_c, 0, 75, 0
2, 33888, Note_on_c, 0, 75, 42
2, 33984, Note_off_c, 0, 75, 0
2, 33984, Note_on_c, 0, 74, 42
2, 34080, Note_off_c, 0, 74, 0
2, 34080, Note_on_c, 0, 74, 42
2, 34176, Note_off_c, 0, 74, 0
2, 34176, Note_on_c, 0, 74, 42
2, 34272, Note_off_c, 0, 74, 0
2, 34272, Note_on_c, 0, 74, 42
2, 34368, Note_off_c, 0, 74, 0
2, 34368, Note_on_c, 0, 74, 42
2, 34464, Note_off_c, 0, 74, 0
2, 34464, Note_on_c, 0, 73, 42
2, 34560, Note_off_c, 0, 73, 0
2, 36000, Note_on_c, 0, 76, 93
2, 36096, Note_off_c, 0, 76, 0
2, 36096, Note_on_c, 0, 76, 93
2, 36240, Note_off_c, 0, 76, 0
2, 36240, Note_on_c, 0, 76, 93
2, 36288, Note_off_c, 0, 76, 0
2, 36288, Note_on_c, 0, 77, 93
2, 36384, Note_off_c, 0, 77, 0
2, 36384, Note_on_c, 0, 74, 93
2, 36528, Note_off_c, 0, 74, 0
2, 36528, Note_on_c, 0, 74, 93
2, 36576, Note_off_c, 0, 74, 0
2, 36576, Note_on_c, 0, 74, 93
2, 36672, Note_off_c, 0, 74, 0
2, 36672, Note_on_c, 0, 74, 93
2, 36768, Note_off_c, 0, 74, 0
2, 36768, Note_on_c, 0, 73, 93
2, 36864, Note_off_c, 0, 73, 0
2, 36864, Note_on_c, 0, 74, 93
2, 36960, Note_off_c, 0, 74, 0
2, 36960, Note_on_c, 0, 74, 93
2, 37056, Note_off_c, 0, 74, 0
2, 37152, Note_on_c, 0, 74, 93
2, 37248, Note_off_c, 0, 74, 0
2, 37248, Note_on_c, 0, 72, 93
2, 37344, Note_off_c, 0, 72, 0
2, 38016, Note_on_c, 0, 74, 93
2, 38112, Note_off_c, 0, 74, 0
2, 38112, Note_on_c, 0, 66, 93
2, 38256, Note_off_c, 0, 66, 0
2, 38256, Note_on_c, 0, 67, 93
2, 38304, Note_off_c, 0, 67, 0
2, 38304, Note_on_c, 0, 64, 93
2, 38400, Note_off_c, 0, 64, 0
2, 38400, Note_on_c, 0, 66, 93
2, 38544, Note_off_c, 0, 66, 0
2, 38544, Note_on_c, 0, 67, 93
2, 38568, Note_off_c, 0, 67, 0
2, 38568, Note_on_c, 0, 69, 93
2, 38592, Note_off_c, 0, 69, 0
2, 38592, Note_on_c, 0, 62, 93
2, 38688, Note_off_c, 0, 62, 0
2, 38688, Note_on_c, 0, 64, 93
2, 38832, Note_off_c, 0, 64, 0
2, 38832, Note_on_c, 0, 66, 93
2, 38856, Note_off_c, 0, 66, 0
2, 38856, Note_on_c, 0, 67, 93
2, 38880, Note_off_c, 0, 67, 0
2, 38880, Note_on_c, 0, 66, 93
2, 38928, Note_off_c, 0, 66, 0
2, 38928, Note_on_c, 0, 64, 93
2, 38976, Note_off_c, 0, 64, 0
2, 38976, Note_on_c, 0, 64, 93
2, 39120, Note_off_c, 0, 64, 0
2, 40032, Note_on_c, 0, 73, 93
2, 40080, Note_off_c, 0, 73, 0
2, 40080, Note_on_c, 0, 74, 93
2, 40128, Note_off_c, 0, 74, 0
2, 40272, Note_on_c, 0, 69, 93
2, 40320, Note_off_c, 0, 69, 0
2, 40320, Note_on_c, 0, 66, 93
2, 40368, Note_off_c, 0, 66, 0
2, 40368, Note_on_c, 0, 64, 93
2, 40416, Note_off_c, 0, 64, 0
2, 40416, Note_on_c, 0, 62, 93
2, 40464, Note_off_c, 0, 62, 0
2, 40464, Note_on_c, 0, 64, 93
2, 40512, Note_off_c, 0, 64, 0
2, 40512, Note_on_c, 0, 66, 93
2, 40560, Note_off_c, 0, 66, 0
2, 40560, Note_on_c, 0, 68, 93
2, 40608, Note_off_c, 0, 68, 0
2, 40608, Note_on_c, 0, 69, 93
2, 40656, Note_off_c, 0, 69, 0
2, 40656, Note_on_c, 0, 71, 93
2, 40704, Note_off_c, 0, 71, 0
2, 40704, Note_on_c, 0, 73, 93
2, 40752, Note_off_c, 0, 73, 0
2, 40752, Note_on_c, 0, 74, 93
2, 40800, Note_off_c, 0, 74, 0
2, 40800, Note_on_c, 0, 71, 93
2, 40848, Note_off_c, 0, 71, 0
2, 40848, Note_on_c, 0, 73, 93
2, 40896, Note_off_c, 0, 73, 0
2, 40896, Note_on_c, 0, 74, 93
2, 40944, Note_off_c, 0, 74, 0
2, 40944, Note_on_c, 0, 78, 93
2, 40992, Note_off_c, 0, 78, 0
2, 40992, Note_on_c, 0, 76, 93
2, 41040, Note_off_c, 0, 76, 0
2, 41040, Note_on_c, 0, 74, 93
2, 41088, Note_off_c, 0, 74, 0
2, 41088, Note_on_c, 0, 73, 93
2, 41136, Note_off_c, 0, 73, 0
2, 41136, Note_on_c, 0, 71, 93
2, 41184, Note_off_c, 0, 71, 0
2, 41184, Note_on_c, 0, 69, 93
2, 41232, Note_off_c, 0, 69, 0
2, 41232, Note_on_c, 0, 71, 93
2, 41280, Note_off_c, 0, 71, 0
2, 41280, Note_on_c, 0, 73, 93
2, 41328, Note_off_c, 0, 73, 0
2, 41328, Note_on_c, 0, 74, 93
2, 41376, Note_off_c, 0, 74, 0
2, 41376, Note_on_c, 0, 76, 93
2, 41424, Note_off_c, 0, 76, 0
2, 41424, Note_on_c, 0, 73, 93
2, 41472, Note_off_c, 0, 73, 0
2, 41472, Note_on_c, 0, 74, 93
2, 41568, Note_off_c, 0, 74, 0
2, 41568, Note_on_c, 0, 74, 93
2, 41712, Note_off_c, 0, 74, 0
2, 41712, Note_on_c, 0, 74, 93
2, 41760, Note_off_c, 0, 74, 0
2, 41760, Note_on_c, 0, 73, 93
2, 41808, Note_off_c, 0, 73, 0
2, 42240, Note_on_c, 0, 74, 93
2, 42288, Note_off_c, 0, 74, 0
2, 42288, Note_on_c, 0, 71, 93
2, 42336, Note_off_c, 0, 71, 0
2, 42336, Note_on_c, 0, 73, 93
2, 42384, Note_off_c, 0, 73, 0
2, 42384, Note_on_c, 0, 74, 93
2, 42432, Note_off_c, 0, 74, 0
2, 42432, Note_on_c, 0, 74, 93
2, 42528, Note_off_c, 0, 74, 0
2, 42528, Note_on_c, 0, 73, 93
2, 42624, Note_off_c, 0, 73, 0
2, 42624, Note_on_c, 0, 74, 93
2, 42648, Note_off_c, 0, 74, 0
2, 42648, Note_on_c, 0, 73, 93
2, 42672, Note_off_c, 0, 73, 0
2, 42672, Note_on_c, 0, 71, 93
2, 42696, Note_off_c, 0, 71, 0
2, 42696, Note_on_c, 0, 69, 93
2, 42720, Note_off_c, 0, 69, 0
2, 42720, Note_on_c, 0, 68, 93
2, 42744, Note_off_c, 0, 68, 0
2, 42744, Note_on_c, 0, 71, 93
2, 42768, Note_off_c, 0, 71, 0
2, 42768, Note_on_c, 0, 74, 93
2, 42792, Note_off_c, 0, 74, 0
2, 42792, Note_on_c, 0, 78, 93
2, 42816, Note_off_c, 0, 78, 0
2, 42816, Note_on_c, 0, 76, 93
2, 42864, Note_off_c, 0, 76, 0
2, 42864, Note_on_c, 0, 76, 93
2, 42912, Note_off_c, 0, 76, 0
2, 42912, Note_on_c, 0, 76, 93
2, 42960, Note_off_c, 0, 76, 0
2, 43152, Note_on_c, 0, 66, 93
2, 43200, Note_off_c, 0, 66, 0
2, 43200, Note_on_c, 0, 66, 93
2, 43248, Note_off_c, 0, 66, 0
2, 43440, Note_on_c, 0, 64, 93
2, 43488, Note_off_c, 0, 64, 0
2, 43488, Note_on_c, 0, 64, 93
2, 43512, Note_off_c, 0, 64, 0
2, 48504, Note_on_c, 0, 81, 93
2, 48528, Note_off_c, 0, 81, 0
2, 48528, Note_on_c, 0, 81, 93
2, 48552, Note_off_c, 0, 81, 0
2, 48552, Note_on_c, 0, 78, 93
2, 48576, Note_off_c, 0, 78, 0
2, 48576, Note_on_c, 0, 78, 93
2, 48600, Note_off_c, 0, 78, 0
2, 48600, Note_on_c, 0, 74, 93
2, 48624, Note_off_c, 0, 74, 0
2, 48624, Note_on_c, 0, 74, 93
2, 48648, Note_off_c, 0, 74, 0
2, 48648, Note_on_c, 0, 78, 93
2, 48672, Note_off_c, 0, 78, 0
2, 48672, Note_on_c, 0, 76, 93
2, 48696, Note_off_c, 0, 76, 0
2, 48792, Note_on_c, 0, 81, 93
2, 48816, Note_off_c, 0, 81, 0
2, 48816, Note_on_c, 0, 81, 93
2, 48840, Note_off_c, 0, 81, 0
2, 48840, Note_on_c, 0, 76, 93
2, 48864, Note_off_c, 0, 76, 0
2, 48864, Note_on_c, 0, 76, 93
2, 48888, Note_off_c, 0, 76, 0
2, 48888, Note_on_c, 0, 73, 93
2, 48912, Note_off_c, 0, 73, 0
2, 48912, Note_on_c, 0, 73, 93
2, 48936, Note_off_c, 0, 73, 0
2, 48936, Note_on_c, 0, 76, 93
2, 48960, Note_off_c, 0, 76, 0
2, 48960, Note_on_c, 0, 74, 93
2, 48984, Note_off_c, 0, 74, 0
2, 49080, Note_on_c, 0, 83, 93
2, 49104, Note_off_c, 0, 83, 0
2, 49104, Note_on_c, 0, 83, 93
2, 49128, Note_off_c, 0, 83, 0
2, 49128, Note_on_c, 0, 80, 93
2, 49152, Note_off_c, 0, 80, 0
2, 49152, Note_on_c, 0, 80, 93
2, 49176, Note_off_c, 0, 80, 0
2, 49176, Note_on_c, 0, 76, 93
2, 49200, Note_off_c, 0, 76, 0
2, 49200, Note_on_c, 0, 76, 93
2, 49224, Note_off_c, 0, 76, 0
2, 49224, Note_on_c, 0, 80, 93
2, 49248, Note_off_c, 0, 80, 0
2, 49248, Note_on_c, 0, 81, 93
2, 49272, Note_off_c, 0, 81, 0
2, 49368, Note_on_c, 0, 81, 93
2, 49392, Note_off_c, 0, 81, 0
2, 49392, Note_on_c, 0, 81, 93
2, 49416, Note_off_c, 0, 81, 0
2, 49416, Note_on_c, 0, 81, 93
2, 49440, Note_off_c, 0, 81, 0
2, 49440, Note_on_c, 0, 81, 93
2, 49464, Note_off_c, 0, 81, 0
2, 49464, Note_on_c, 0, 79, 93
2, 49488, Note_off_c, 0, 79, 0
2, 49488, Note_on_c, 0, 79, 93
2, 49512, Note_off_c, 0, 79, 0
2, 49512, Note_on_c, 0, 79, 93
2, 49536, Note_off_c, 0, 79, 0
2, 49536, Note_on_c, 0, 78, 93
2, 49560, Note_off_c, 0, 78, 0
2, 49944, Note_on_c, 0, 86, 93
2, 49968, Note_off_c, 0, 86, 0
2, 49968, Note_on_c, 0, 86, 93
2, 49992, Note_off_c, 0, 86, 0
2, 49992, Note_on_c, 0, 86, 93
2, 50016, Note_off_c, 0, 86, 0
2, 50016, Note_on_c, 0, 86, 93
2, 50040, Note_off_c, 0, 86, 0
2, 50040, Note_on_c, 0, 84, 93
2, 50064, Note_off_c, 0, 84, 0
2, 50064, Note_on_c, 0, 84, 93
2, 50088, Note_off_c, 0, 84, 0
2, 50088, Note_on_c, 0, 84, 93
2, 50112, Note_off_c, 0, 84, 0
2, 50112, Note_on_c, 0, 83, 93
2, 50136, Note_off_c, 0, 83, 0
2, 50232, Note_on_c, 0, 83, 93
2, 50256, Note_off_c, 0, 83, 0
2, 50256, Note_on_c, 0, 83, 93
2, 50280, Note_off_c, 0, 83, 0
2, 50280, Note_on_c, 0, 83, 93
2, 50304, Note_off_c, 0, 83, 0
2, 50304, Note_on_c, 0, 85, 93
2, 50328, Note_off_c, 0, 85, 0
2, 50328, Note_on_c, 0, 86, 93
2, 50352, Note_off_c, 0, 86, 0
2, 50352, Note_on_c, 0, 86, 93
2, 50376, Note_off_c, 0, 86, 0
2, 50376, Note_on_c, 0, 86, 93
2, 50400, Note_off_c, 0, 86, 0
2, 50400, Note_on_c, 0, 79, 93
2, 50424, Note_off_c, 0, 79, 0
2, 50424, Note_on_c, 0, 79, 93
2, 50448, Note_off_c, 0, 79, 0
2, 50448, Note_on_c, 0, 79, 93
2, 50472, Note_off_c, 0, 79, 0
2, 50472, Note_on_c, 0, 79, 93
2, 50496, Note_off_c, 0, 79, 0
2, 50496, Note_on_c, 0, 78, 93
2, 50520, Note_off_c, 0, 78, 0
2, 50520, Note_on_c, 0, 78, 93
2, 50544, Note_off_c, 0, 78, 0
2, 50544, Note_on_c, 0, 78, 93
2, 50568, Note_off_c, 0, 78, 0
2, 50568, Note_on_c, 0, 78, 93
2, 50592, Note_off_c, 0, 78, 0
2, 50592, Note_on_c, 0, 76, 93
2, 50616, Note_off_c, 0, 76, 0
2, 50616, Note_on_c, 0, 76, 93
2, 50640, Note_off_c, 0, 76, 0
2, 50640, Note_on_c, 0, 76, 93
2, 50664, Note_off_c, 0, 76, 0
2, 50664, Note_on_c, 0, 76, 93
2, 50688, Note_off_c, 0, 76, 0
2, 50688, Note_on_c, 0, 78, 93
2, 50784, Note_off_c, 0, 78, 0
2, 50784, Note_on_c, 0, 78, 93
2, 50928, Note_off_c, 0, 78, 0
2, 50928, Note_on_c, 0, 78, 93
2, 50976, Note_off_c, 0, 78, 0
2, 50976, Note_on_c, 0, 78, 93
2, 51024, Note_off_c, 0, 78, 0
2, 51024, Note_on_c, 0, 76, 93
2, 51072, Note_off_c, 0, 76, 0
2, 51072, Note_on_c, 0, 76, 93
2, 51216, Note_off_c, 0, 76, 0
2, 51216, Note_on_c, 0, 76, 93
2, 51264, Note_off_c, 0, 76, 0
2, 51264, Note_on_c, 0, 76, 93
2, 51312, Note_off_c, 0, 76, 0
2, 51312, Note_on_c, 0, 74, 93
2, 51360, Note_off_c, 0, 74, 0
2, 51360, Note_on_c, 0, 72, 93
2, 51504, Note_off_c, 0, 72, 0
2, 51504, Note_on_c, 0, 72, 93
2, 51552, Note_off_c, 0, 72, 0
2, 51552, Note_on_c, 0, 72, 93
2, 51600, Note_off_c, 0, 72, 0
2, 51600, Note_on_c, 0, 71, 93
2, 51648, Note_off_c, 0, 71, 0
2, 51648, Note_on_c, 0, 73, 93
2, 51696, Note_off_c, 0, 73, 0
2, 51696, Note_on_c, 0, 69, 93
2, 51744, Note_off_c, 0, 69, 0
2, 51744, Note_on_c, 0, 71, 93
2, 51792, Note_off_c, 0, 71, 0
2, 51792, Note_on_c, 0, 73, 93
2, 51840, Note_off_c, 0, 73, 0
2, 51840, Note_on_c, 0, 74, 93
2, 51936, Note_off_c, 0, 74, 0
2, 51936, Note_on_c, 0, 74, 93
2, 52080, Note_off_c, 0, 74, 0
2, 52080, Note_on_c, 0, 74, 93
2, 52128, Note_off_c, 0, 74, 0
2, 52128, Note_on_c, 0, 73, 93
2, 52224, Note_off_c, 0, 73, 0
2, 52224, Note_on_c, 0, 73, 93
2, 52368, Note_off_c, 0, 73, 0
2, 52368, Note_on_c, 0, 73, 93
2, 52416, Note_off_c, 0, 73, 0
2, 52416, Note_on_c, 0, 72, 93
2, 52464, Note_off_c, 0, 72, 0
2, 52464, Note_on_c, 0, 74, 93
2, 52512, Note_off_c, 0, 74, 0
2, 52512, Note_on_c, 0, 74, 93
2, 52560, Note_off_c, 0, 74, 0
2, 52560, Note_on_c, 0, 72, 93
2, 52608, Note_off_c, 0, 72, 0
2, 52608, Note_on_c, 0, 71, 93
2, 52656, Note_off_c, 0, 71, 0
2, 52656, Note_on_c, 0, 69, 93
2, 52704, Note_off_c, 0, 69, 0
2, 52704, Note_on_c, 0, 67, 93
2, 52752, Note_off_c, 0, 67, 0
2, 52752, Note_on_c, 0, 66, 93
2, 52800, Note_off_c, 0, 66, 0
2, 52800, Note_on_c, 0, 64, 93
2, 52992, Note_off_c, 0, 64, 0
2, 52992, Note_on_c, 0, 66, 93
2, 53088, Note_off_c, 0, 66, 0
2, 53088, Note_on_c, 0, 66, 93
2, 53232, Note_off_c, 0, 66, 0
2, 53232, Note_on_c, 0, 66, 93
2, 53280, Note_off_c, 0, 66, 0
2, 53280, Note_on_c, 0, 66, 93
2, 53376, Note_off_c, 0, 66, 0
2, 53376, Note_on_c, 0, 66, 93
2, 53520, Note_off_c, 0, 66, 0
2, 53520, Note_on_c, 0, 66, 93
2, 53568, Note_off_c, 0, 66, 0
2, 53568, Note_on_c, 0, 67, 93
2, 53664, Note_off_c, 0, 67, 0
2, 53664, Note_on_c, 0, 67, 93
2, 53808, Note_off_c, 0, 67, 0
2, 53808, Note_on_c, 0, 67, 93
2, 53856, Note_off_c, 0, 67, 0
2, 53856, Note_on_c, 0, 67, 93
2, 53904, Note_off_c, 0, 67, 0
2, 53904, Note_on_c, 0, 66, 93
2, 53952, Note_off_c, 0, 66, 0
2, 53952, Note_on_c, 0, 64, 93
2, 54000, Note_off_c, 0, 64, 0
2, 54000, Note_on_c, 0, 62, 93
2, 54048, Note_off_c, 0, 62, 0
2, 54048, Note_on_c, 0, 64, 93
2, 54144, Note_off_c, 0, 64, 0
2, 54144, Note_on_c, 0, 62, 93
2, 54240, Note_off_c, 0, 62, 0
2, 54240, Note_on_c, 0, 62, 93
2, 54384, Note_off_c, 0, 62, 0
2, 54384, Note_on_c, 0, 62, 93
2, 54432, Note_off_c, 0, 62, 0
2, 54432, Note_on_c, 0, 60, 93
2, 54528, Note_off_c, 0, 60, 0
2, 54528, Note_on_c, 0, 60, 93
2, 54672, Note_off_c, 0, 60, 0
2, 54672, Note_on_c, 0, 60, 93
2, 54720, Note_off_c, 0, 60, 0
2, 54720, Note_on_c, 0, 59, 93
2, 54816, Note_off_c, 0, 59, 0
2, 54816, Note_on_c, 0, 61, 93
2, 54960, Note_off_c, 0, 61, 0
2, 54960, Note_on_c, 0, 61, 93
2, 55008, Note_off_c, 0, 61, 0
2, 55008, Note_on_c, 0, 62, 93
2, 55104, Note_off_c, 0, 62, 0
2, 55104, Note_on_c, 0, 57, 93
2, 55200, Note_off_c, 0, 57, 0
2, 56448, Note_on_c, 0, 62, 93
2, 56544, Note_off_c, 0, 62, 0
2, 56544, Note_on_c, 0, 62, 93
2, 56688, Note_off_c, 0, 62, 0
2, 56688, Note_on_c, 0, 62, 93
2, 56736, Note_off_c, 0, 62, 0
2, 56736, Note_on_c, 0, 69, 93
2, 56832, Note_off_c, 0, 69, 0
2, 56832, Note_on_c, 0, 62, 93
2, 56976, Note_off_c, 0, 62, 0
2, 56976, Note_on_c, 0, 62, 93
2, 57024, Note_off_c, 0, 62, 0
2, 57120, Note_on_c, 0, 74, 93
2, 57264, Note_off_c, 0, 74, 0
2, 57264, Note_on_c, 0, 74, 93
2, 57312, Note_off_c, 0, 74, 0
2, 57312, Note_on_c, 0, 74, 93
2, 57408, Note_off_c, 0, 74, 0
2, 57408, Note_on_c, 0, 73, 93
2, 57552, Note_off_c, 0, 73, 0
2, 57552, Note_on_c, 0, 73, 93
2, 57600, Note_off_c, 0, 73, 0
2, 57600, Note_on_c, 0, 74, 93
2, 57696, Note_off_c, 0, 74, 0
2, 57696, Note_on_c, 0, 69, 42
2, 57792, Note_off_c, 0, 69, 0
2, 57792, Note_on_c, 0, 69, 42
2, 57888, Note_off_c, 0, 69, 0
2, 57888, Note_on_c, 0, 71, 42
2, 57984, Note_off_c, 0, 71, 0
2, 57984, Note_on_c, 0, 71, 42
2, 58080, Note_off_c, 0, 71, 0
2, 58080, Note_on_c, 0, 71, 42
2, 58176, Note_off_c, 0, 71, 0
2, 58176, Note_on_c, 0, 71, 42
2, 58272, Note_off_c, 0, 71, 0
2, 58272, Note_on_c, 0, 73, 42
2, 58368, Note_off_c, 0, 73, 0
2, 58368, Note_on_c, 0, 73, 42
2, 58464, Note_off_c, 0, 73, 0
2, 58464, Note_on_c, 0, 74, 42
2, 58560, Note_off_c, 0, 74, 0
2, 58560, Note_on_c, 0, 74, 42
2, 58656, Note_off_c, 0, 74, 0
2, 58656, Note_on_c, 0, 73, 42
2, 58752, Note_off_c, 0, 73, 0
2, 58752, Note_on_c, 0, 74, 42
2, 58848, Note_off_c, 0, 74, 0
2, 58848, Note_on_c, 0, 69, 42
2, 58896, Note_off_c, 0, 69, 0
2, 58896, Note_on_c, 0, 71, 42
2, 58944, Note_off_c, 0, 71, 0
2, 58944, Note_on_c, 0, 72, 42
2, 59040, Note_off_c, 0, 72, 0
2, 59040, Note_on_c, 0, 71, 42
2, 59136, Note_off_c, 0, 71, 0
2, 59136, Note_on_c, 0, 71, 42
2, 59184, Note_off_c, 0, 71, 0
2, 59184, Note_on_c, 0, 73, 42
2, 59232, Note_off_c, 0, 73, 0
2, 59232, Note_on_c, 0, 74, 42
2, 59328, Note_off_c, 0, 74, 0
2, 59328, Note_on_c, 0, 74, 42
2, 59424, Note_off_c, 0, 74, 0
2, 59424, Note_on_c, 0, 73, 42
2, 59520, Note_off_c, 0, 73, 0
2, 59520, Note_on_c, 0, 73, 42
2, 59616, Note_off_c, 0, 73, 0
2, 59664, Note_on_c, 0, 74, 93
2, 59712, Note_off_c, 0, 74, 0
2, 59712, Note_on_c, 0, 73, 93
2, 59856, Note_off_c, 0, 73, 0
2, 59856, Note_on_c, 0, 74, 93
2, 59904, Note_off_c, 0, 74, 0
2, 59904, Note_on_c, 0, 74, 93
2, 60000, Note_off_c, 0, 74, 0
2, 60000, Note_on_c, 0, 70, 93
2, 60144, Note_off_c, 0, 70, 0
2, 60144, Note_on_c, 0, 70, 93
2, 60192, Note_off_c, 0, 70, 0
2, 60192, Note_on_c, 0, 70, 93
2, 60264, Note_off_c, 0, 70, 0
2, 60264, Note_on_c, 0, 76, 93
2, 60288, Note_off_c, 0, 76, 0
2, 60288, Note_on_c, 0, 70, 93
2, 60312, Note_off_c, 0, 70, 0
2, 60312, Note_on_c, 0, 67, 93
2, 60336, Note_off_c, 0, 67, 0
2, 60336, Note_on_c, 0, 69, 93
2, 60360, Note_off_c, 0, 69, 0
2, 60360, Note_on_c, 0, 64, 93
2, 60384, Note_off_c, 0, 64, 0
2, 60384, Note_on_c, 0, 60, 93
2, 60432, Note_off_c, 0, 60, 0
2, 60432, Note_on_c, 0, 69, 93
2, 60480, Note_off_c, 0, 69, 0
2, 60480, Note_on_c, 0, 69, 93
2, 60552, Note_off_c, 0, 69, 0
2, 60552, Note_on_c, 0, 74, 93
2, 60576, Note_off_c, 0, 74, 0
2, 60576, Note_on_c, 0, 69, 93
2, 60600, Note_off_c, 0, 69, 0
2, 60600, Note_on_c, 0, 66, 93
2, 60624, Note_off_c, 0, 66, 0
2, 60624, Note_on_c, 0, 67, 93
2, 60648, Note_off_c, 0, 67, 0
2, 60648, Note_on_c, 0, 62, 93
2, 60672, Note_off_c, 0, 62, 0
2, 60672, Note_on_c, 0, 58, 93
2, 60720, Note_off_c, 0, 58, 0
2, 60720, Note_on_c, 0, 67, 93
2, 60768, Note_off_c, 0, 67, 0
2, 60768, Note_on_c, 0, 67, 93
2, 60840, Note_off_c, 0, 67, 0
2, 60840, Note_on_c, 0, 76, 93
2, 60864, Note_off_c, 0, 76, 0
2, 60864, Note_on_c, 0, 73, 93
2, 60888, Note_off_c, 0, 73, 0
2, 60888, Note_on_c, 0, 69, 93
2, 60912, Note_off_c, 0, 69, 0
2, 60912, Note_on_c, 0, 70, 93
2, 60936, Note_off_c, 0, 70, 0
2, 60936, Note_on_c, 0, 67, 93
2, 60960, Note_off_c, 0, 67, 0
2, 60960, Note_on_c, 0, 61, 93
2, 61008, Note_off_c, 0, 61, 0
2, 61008, Note_on_c, 0, 69, 93
2, 61056, Note_off_c, 0, 69, 0
2, 61056, Note_on_c, 0, 65, 93
2, 61128, Note_off_c, 0, 65, 0
2, 61128, Note_on_c, 0, 62, 93
2, 61152, Note_off_c, 0, 62, 0
2, 61152, Note_on_c, 0, 65, 93
2, 61176, Note_off_c, 0, 65, 0
2, 61176, Note_on_c, 0, 69, 93
2, 61200, Note_off_c, 0, 69, 0
2, 61200, Note_on_c, 0, 74, 93
2, 61224, Note_off_c, 0, 74, 0
2, 61224, Note_on_c, 0, 73, 93
2, 61248, Note_off_c, 0, 73, 0
2, 61248, Note_on_c, 0, 74, 93
2, 61272, Note_off_c, 0, 74, 0
2, 61272, Note_on_c, 0, 76, 93
2, 61296, Note_off_c, 0, 76, 0
2, 61296, Note_on_c, 0, 77, 93
2, 61320, Note_off_c, 0, 77, 0
2, 61320, Note_on_c, 0, 69, 93
2, 61344, Note_off_c, 0, 69, 0
2, 61344, Note_on_c, 0, 70, 93
2, 61416, Note_off_c, 0, 70, 0
2, 61632, Note_on_c, 0, 75, 93
2, 61704, Note_off_c, 0, 75, 0
2, 61704, Note_on_c, 0, 73, 93
2, 61728, Note_off_c, 0, 73, 0
2, 61728, Note_on_c, 0, 74, 93
2, 61752, Note_off_c, 0, 74, 0
2, 61752, Note_on_c, 0, 69, 93
2, 61776, Note_off_c, 0, 69, 0
2, 61776, Note_on_c, 0, 70, 93
2, 61800, Note_off_c, 0, 70, 0
2, 61800, Note_on_c, 0, 66, 93
2, 61824, Note_off_c, 0, 66, 0
2, 61824, Note_on_c, 0, 67, 93
2, 61848, Note_off_c, 0, 67, 0
2, 61848, Note_on_c, 0, 62, 93
2, 61872, Note_off_c, 0, 62, 0
2, 61872, Note_on_c, 0, 63, 93
2, 61896, Note_off_c, 0, 63, 0
2, 61896, Note_on_c, 0, 67, 93
2, 61920, Note_off_c, 0, 67, 0
2, 61920, Note_on_c, 0, 73, 93
2, 61968, Note_off_c, 0, 73, 0
2, 61968, Note_on_c, 0, 74, 93
2, 62016, Note_off_c, 0, 74, 0
2, 62016, Note_on_c, 0, 74, 93
2, 62088, Note_off_c, 0, 74, 0
2, 62088, Note_on_c, 0, 71, 93
2, 62112, Note_off_c, 0, 71, 0
2, 62112, Note_on_c, 0, 73, 93
2, 62136, Note_off_c, 0, 73, 0
2, 62136, Note_on_c, 0, 76, 93
2, 62160, Note_off_c, 0, 76, 0
2, 62160, Note_on_c, 0, 79, 93
2, 62184, Note_off_c, 0, 79, 0
2, 62184, Note_on_c, 0, 69, 93
2, 62208, Note_off_c, 0, 69, 0
2, 62208, Note_on_c, 0, 62, 93
2, 62232, Note_off_c, 0, 62, 0
2, 62232, Note_on_c, 0, 69, 93
2, 62256, Note_off_c, 0, 69, 0
2, 62256, Note_on_c, 0, 73, 93
2, 62280, Note_off_c, 0, 73, 0
2, 62280, Note_on_c, 0, 79, 93
2, 62304, Note_off_c, 0, 79, 0
2, 62304, Note_on_c, 0, 77, 93
2, 62328, Note_off_c, 0, 77, 0
2, 62352, Note_on_c, 0, 73, 93
2, 62376, Note_off_c, 0, 73, 0
2, 62400, Note_on_c, 0, 62, 93
2, 62424, Note_off_c, 0, 62, 0
2, 62448, Note_on_c, 0, 73, 93
2, 62472, Note_off_c, 0, 73, 0
2, 62496, Note_on_c, 0, 64, 93
2, 62520, Note_off_c, 0, 64, 0
2, 62520, Note_on_c, 0, 67, 93
2, 62544, Note_off_c, 0, 67, 0
2, 62544, Note_on_c, 0, 73, 93
2, 62568, Note_off_c, 0, 73, 0
2, 62568, Note_on_c, 0, 81, 93
2, 62592, Note_off_c, 0, 81, 0
2, 62592, Note_on_c, 0, 79, 93
2, 62616, Note_off_c, 0, 79, 0
2, 62640, Note_on_c, 0, 73, 93
2, 62664, Note_off_c, 0, 73, 0
2, 62688, Note_on_c, 0, 64, 93
2, 62712, Note_off_c, 0, 64, 0
2, 62736, Note_on_c, 0, 73, 93
2, 62760, Note_off_c, 0, 73, 0
2, 62784, Note_on_c, 0, 65, 93
2, 62808, Note_off_c, 0, 65, 0
2, 62808, Note_on_c, 0, 69, 93
2, 62832, Note_off_c, 0, 69, 0
2, 62832, Note_on_c, 0, 73, 93
2, 62856, Note_off_c, 0, 73, 0
2, 62856, Note_on_c, 0, 82, 93
2, 62880, Note_off_c, 0, 82, 0
2, 62880, Note_on_c, 0, 81, 93
2, 62904, Note_off_c, 0, 81, 0
2, 62928, Note_on_c, 0, 73, 93
2, 62952, Note_off_c, 0, 73, 0
2, 62976, Note_on_c, 0, 65, 93
2, 63000, Note_off_c, 0, 65, 0
2, 63024, Note_on_c, 0, 73, 93
2, 63048, Note_off_c, 0, 73, 0
2, 63072, Note_on_c, 0, 67, 93
2, 63096, Note_off_c, 0, 67, 0
2, 63096, Note_on_c, 0, 70, 93
2, 63120, Note_off_c, 0, 70, 0
2, 63120, Note_on_c, 0, 74, 93
2, 63144, Note_off_c, 0, 74, 0
2, 63144, Note_on_c, 0, 82, 93
2, 63168, Note_off_c, 0, 82, 0
2, 63168, Note_on_c, 0, 76, 93
2, 63192, Note_off_c, 0, 76, 0
2, 63216, Note_on_c, 0, 73, 93
2, 63240, Note_off_c, 0, 73, 0
2, 63264, Note_on_c, 0, 69, 93
2, 63288, Note_off_c, 0, 69, 0
2, 63312, Note_on_c, 0, 73, 93
2, 63336, Note_off_c, 0, 73, 0
2, 63336, Note_on_c, 0, 76, 93
2, 63360, Note_off_c, 0, 76, 0
2, 63360, Note_on_c, 0, 77, 93
2, 63384, Note_off_c, 0, 77, 0
2, 63384, Note_on_c, 0, 74, 93
2, 63408, Note_off_c, 0, 74, 0
2, 63408, Note_on_c, 0, 69, 93
2, 63432, Note_off_c, 0, 69, 0
2, 63432, Note_on_c, 0, 67, 93
2, 63456, Note_off_c, 0, 67, 0
2, 63456, Note_on_c, 0, 65, 93
2, 63480, Note_off_c, 0, 65, 0
2, 63480, Note_on_c, 0, 69, 93
2, 63504, Note_off_c, 0, 69, 0
2, 63504, Note_on_c, 0, 62, 93
2, 63528, Note_off_c, 0, 62, 0
2, 63528, Note_on_c, 0, 60, 93
2, 63552, Note_off_c, 0, 60, 0
2, 63552, Note_on_c, 0, 59, 93
2, 63576, Note_off_c, 0, 59, 0
2, 63576, Note_on_c, 0, 67, 93
2, 63600, Note_off_c, 0, 67, 0
2, 63600, Note_on_c, 0, 74, 93
2, 63624, Note_off_c, 0, 74, 0
2, 63624, Note_on_c, 0, 77, 93
2, 63648, Note_off_c, 0, 77, 0
2, 63648, Note_on_c, 0, 76, 93
2, 63672, Note_off_c, 0, 76, 0
2, 63672, Note_on_c, 0, 72, 93
2, 63696, Note_off_c, 0, 72, 0
2, 63696, Note_on_c, 0, 67, 93
2, 63720, Note_off_c, 0, 67, 0
2, 63720, Note_on_c, 0, 65, 93
2, 63744, Note_off_c, 0, 65, 0
2, 63744, Note_on_c, 0, 64, 93
2, 63768, Note_off_c, 0, 64, 0
2, 63768, Note_on_c, 0, 67, 93
2, 63792, Note_off_c, 0, 67, 0
2, 63792, Note_on_c, 0, 60, 93
2, 63816, Note_off_c, 0, 60, 0
2, 63816, Note_on_c, 0, 58, 93
2, 63840, Note_off_c, 0, 58, 0
2, 63840, Note_on_c, 0, 57, 93
2, 63864, Note_off_c, 0, 57, 0
2, 63864, Note_on_c, 0, 65, 93
2, 63888, Note_off_c, 0, 65, 0
2, 63888, Note_on_c, 0, 72, 93
2, 63912, Note_off_c, 0, 72, 0
2, 63912, Note_on_c, 0, 75, 93
2, 63936, Note_off_c, 0, 75, 0
2, 63936, Note_on_c, 0, 74, 93
2, 63960, Note_off_c, 0, 74, 0
2, 63960, Note_on_c, 0, 70, 93
2, 63984, Note_off_c, 0, 70, 0
2, 63984, Note_on_c, 0, 65, 93
2, 64008, Note_off_c, 0, 65, 0
2, 64008, Note_on_c, 0, 63, 93
2, 64032, Note_off_c, 0, 63, 0
2, 64032, Note_on_c, 0, 62, 93
2, 64056, Note_off_c, 0, 62, 0
2, 64056, Note_on_c, 0, 65, 93
2, 64080, Note_off_c, 0, 65, 0
2, 64080, Note_on_c, 0, 58, 93
2, 64104, Note_off_c, 0, 58, 0
2, 64104, Note_on_c, 0, 57, 93
2, 64128, Note_off_c, 0, 57, 0
2, 64128, Note_on_c, 0, 55, 93
2, 64152, Note_off_c, 0, 55, 0
2, 64152, Note_on_c, 0, 61, 93
2, 64176, Note_off_c, 0, 61, 0
2, 64176, Note_on_c, 0, 64, 93
2, 64200, Note_off_c, 0, 64, 0
2, 64200, Note_on_c, 0, 70, 93
2, 64224, Note_off_c, 0, 70, 0
2, 64224, Note_on_c, 0, 69, 93
2, 64248, Note_off_c, 0, 69, 0
2, 64248, Note_on_c, 0, 65, 93
2, 64272, Note_off_c, 0, 65, 0
2, 64272, Note_on_c, 0, 62, 93
2, 64296, Note_off_c, 0, 62, 0
2, 64296, Note_on_c, 0, 70, 93
2, 64320, Note_off_c, 0, 70, 0
2, 64320, Note_on_c, 0, 67, 93
2, 64344, Note_off_c, 0, 67, 0
2, 64344, Note_on_c, 0, 64, 93
2, 64368, Note_off_c, 0, 64, 0
2, 64368, Note_on_c, 0, 61, 93
2, 64392, Note_off_c, 0, 61, 0
2, 64392, Note_on_c, 0, 64, 93
2, 64416, Note_off_c, 0, 64, 0
2, 64416, Note_on_c, 0, 57, 93
2, 64440, Note_off_c, 0, 57, 0
2, 64440, Note_on_c, 0, 67, 93
2, 64464, Note_off_c, 0, 67, 0
2, 64464, Note_on_c, 0, 65, 93
2, 64488, Note_off_c, 0, 65, 0
2, 64488, Note_on_c, 0, 64, 93
2, 64512, Note_off_c, 0, 64, 0
2, 64512, Note_on_c, 0, 62, 93
2, 64536, Note_off_c, 0, 62, 0
2, 64536, Note_on_c, 0, 69, 93
2, 64560, Note_off_c, 0, 69, 0
2, 64560, Note_on_c, 0, 71, 93
2, 64584, Note_off_c, 0, 71, 0
2, 64584, Note_on_c, 0, 73, 93
2, 64608, Note_off_c, 0, 73, 0
2, 64608, Note_on_c, 0, 74, 93
2, 64632, Note_off_c, 0, 74, 0
2, 64632, Note_on_c, 0, 77, 93
2, 64656, Note_off_c, 0, 77, 0
2, 64656, Note_on_c, 0, 79, 93
2, 64680, Note_off_c, 0, 79, 0
2, 64680, Note_on_c, 0, 81, 93
2, 64704, Note_off_c, 0, 81, 0
2, 64704, Note_on_c, 0, 82, 93
2, 64728, Note_off_c, 0, 82, 0
2, 64728, Note_on_c, 0, 67, 93
2, 64740, Note_off_c, 0, 67, 0
2, 64740, Note_on_c, 0, 65, 93
2, 64752, Note_off_c, 0, 65, 0
2, 64752, Note_on_c, 0, 64, 93
2, 64764, Note_off_c, 0, 64, 0
2, 64764, Note_on_c, 0, 65, 93
2, 64776, Note_off_c, 0, 65, 0
2, 64776, Note_on_c, 0, 67, 93
2, 64800, Note_off_c, 0, 67, 0
2, 64800, Note_on_c, 0, 60, 93
2, 64824, Note_off_c, 0, 60, 0
2, 64824, Note_on_c, 0, 67, 93
2, 64848, Note_off_c, 0, 67, 0
2, 64848, Note_on_c, 0, 69, 93
2, 64872, Note_off_c, 0, 69, 0
2, 64872, Note_on_c, 0, 70, 93
2, 64896, Note_off_c, 0, 70, 0
2, 64896, Note_on_c, 0, 72, 93
2, 64920, Note_off_c, 0, 72, 0
2, 64920, Note_on_c, 0, 76, 93
2, 64944, Note_off_c, 0, 76, 0
2, 64944, Note_on_c, 0, 77, 93
2, 64968, Note_off_c, 0, 77, 0
2, 64968, Note_on_c, 0, 79, 93
2, 64992, Note_off_c, 0, 79, 0
2, 64992, Note_on_c, 0, 81, 93
2, 65016, Note_off_c, 0, 81, 0
2, 65016, Note_on_c, 0, 65, 93
2, 65028, Note_off_c, 0, 65, 0
2, 65028, Note_on_c, 0, 64, 93
2, 65040, Note_off_c, 0, 64, 0
2, 65040, Note_on_c, 0, 62, 93
2, 65052, Note_off_c, 0, 62, 0
2, 65052, Note_on_c, 0, 64, 93
2, 65064, Note_off_c, 0, 64, 0
2, 65064, Note_on_c, 0, 65, 93
2, 65088, Note_off_c, 0, 65, 0
2, 65088, Note_on_c, 0, 58, 93
2, 65112, Note_off_c, 0, 58, 0
2, 65112, Note_on_c, 0, 86, 93
2, 65124, Note_off_c, 0, 86, 0
2, 65124, Note_on_c, 0, 84, 93
2, 65136, Note_off_c, 0, 84, 0
2, 65136, Note_on_c, 0, 82, 93
2, 65148, Note_off_c, 0, 82, 0
2, 65148, Note_on_c, 0, 84, 93
2, 65160, Note_off_c, 0, 84, 0
2, 65160, Note_on_c, 0, 86, 93
2, 65184, Note_off_c, 0, 86, 0
2, 65184, Note_on_c, 0, 79, 93
2, 65208, Note_off_c, 0, 79, 0
2, 65208, Note_on_c, 0, 82, 93
2, 65220, Note_off_c, 0, 82, 0
2, 65220, Note_on_c, 0, 81, 93
2, 65232, Note_off_c, 0, 81, 0
2, 65232, Note_on_c, 0, 79, 93
2, 65244, Note_off_c, 0, 79, 0
2, 65244, Note_on_c, 0, 81, 93
2, 65256, Note_off_c, 0, 81, 0
2, 65256, Note_on_c, 0, 82, 93
2, 65280, Note_off_c, 0, 82, 0
2, 65280, Note_on_c, 0, 76, 93
2, 65304, Note_off_c, 0, 76, 0
2, 65304, Note_on_c, 0, 79, 93
2, 65316, Note_off_c, 0, 79, 0
2, 65316, Note_on_c, 0, 77, 93
2, 65328, Note_off_c, 0, 77, 0
2, 65328, Note_on_c, 0, 76, 93
2, 65340, Note_off_c, 0, 76, 0
2, 65340, Note_on_c, 0, 77, 93
2, 65352, Note_off_c, 0, 77, 0
2, 65352, Note_on_c, 0, 79, 93
2, 65376, Note_off_c, 0, 79, 0
2, 65376, Note_on_c, 0, 73, 93
2, 65400, Note_off_c, 0, 73, 0
2, 65400, Note_on_c, 0, 76, 93
2, 65412, Note_off_c, 0, 76, 0
2, 65412, Note_on_c, 0, 74, 93
2, 65424, Note_off_c, 0, 74, 0
2, 65424, Note_on_c, 0, 73, 93
2, 65436, Note_off_c, 0, 73, 0
2, 65436, Note_on_c, 0, 74, 93
2, 65448, Note_off_c, 0, 74, 0
2, 65448, Note_on_c, 0, 76, 93
2, 65460, Note_off_c, 0, 76, 0
2, 65460, Note_on_c, 0, 73, 93
2, 65472, Note_off_c, 0, 73, 0
2, 65472, Note_on_c, 0, 67, 93
2, 65496, Note_off_c, 0, 67, 0
2, 65496, Note_on_c, 0, 70, 93
2, 65508, Note_off_c, 0, 70, 0
2, 65508, Note_on_c, 0, 69, 93
2, 65520, Note_off_c, 0, 69, 0
2, 65520, Note_on_c, 0, 67, 93
2, 65532, Note_off_c, 0, 67, 0
2, 65532, Note_on_c, 0, 69, 93
2, 65544, Note_off_c, 0, 69, 0
2, 65544, Note_on_c, 0, 70, 93
2, 65556, Note_off_c, 0, 70, 0
2, 65556, Note_on_c, 0, 67, 93
2, 65568, Note_off_c, 0, 67, 0
2, 65568, Note_on_c, 0, 64, 93
2, 65580, Note_off_c, 0, 64, 0
2, 65580, Note_on_c, 0, 62, 93
2, 65592, Note_off_c, 0, 62, 0
2, 65592, Note_on_c, 0, 61, 93
2, 65604, Note_off_c, 0, 61, 0
2, 65604, Note_on_c, 0, 62, 93
2, 65616, Note_off_c, 0, 62, 0
2, 65616, Note_on_c, 0, 64, 93
2, 65628, Note_off_c, 0, 64, 0
2, 65628, Note_on_c, 0, 65, 93
2, 65640, Note_off_c, 0, 65, 0
2, 65640, Note_on_c, 0, 67, 93
2, 65652, Note_off_c, 0, 67, 0
2, 65652, Note_on_c, 0, 64, 93
2, 65664, Note_off_c, 0, 64, 0
2, 65664, Note_on_c, 0, 62, 93
2, 65688, Note_off_c, 0, 62, 0
2, 65712, Note_on_c, 0, 69, 93
2, 65736, Note_off_c, 0, 69, 0
2, 65760, Note_on_c, 0, 70, 93
2, 65784, Note_off_c, 0, 70, 0
2, 65808, Note_on_c, 0, 69, 93
2, 65832, Note_off_c, 0, 69, 0
2, 65856, Note_on_c, 0, 67, 93
2, 65880, Note_off_c, 0, 67, 0
2, 65904, Note_on_c, 0, 65, 93
2, 65928, Note_off_c, 0, 65, 0
2, 65952, Note_on_c, 0, 60, 93
2, 65976, Note_off_c, 0, 60, 0
2, 66000, Note_on_c, 0, 70, 93
2, 66024, Note_off_c, 0, 70, 0
2, 66048, Note_on_c, 0, 69, 93
2, 66072, Note_off_c, 0, 69, 0
2, 66096, Note_on_c, 0, 67, 93
2, 66120, Note_off_c, 0, 67, 0
2, 66144, Note_on_c, 0, 65, 93
2, 66168, Note_off_c, 0, 65, 0
2, 66192, Note_on_c, 0, 64, 93
2, 66216, Note_off_c, 0, 64, 0
2, 66240, Note_on_c, 0, 58, 93
2, 66264, Note_off_c, 0, 58, 0
2, 66288, Note_on_c, 0, 69, 93
2, 66312, Note_off_c, 0, 69, 0
2, 66336, Note_on_c, 0, 67, 93
2, 66360, Note_off_c, 0, 67, 0
2, 66384, Note_on_c, 0, 65, 93
2, 66408, Note_off_c, 0, 65, 0
2, 66432, Note_on_c, 0, 64, 93
2, 66456, Note_off_c, 0, 64, 0
2, 66480, Note_on_c, 0, 62, 93
2, 66504, Note_off_c, 0, 62, 0
2, 66528, Note_on_c, 0, 57, 93
2, 66552, Note_off_c, 0, 57, 0
2, 66576, Note_on_c, 0, 65, 93
2, 66600, Note_off_c, 0, 65, 0
2, 66624, Note_on_c, 0, 67, 93
2, 66648, Note_off_c, 0, 67, 0
2, 66672, Note_on_c, 0, 70, 93
2, 66696, Note_off_c, 0, 70, 0
2, 66720, Note_on_c, 0, 69, 93
2, 66744, Note_off_c, 0, 69, 0
2, 66768, Note_on_c, 0, 67, 93
2, 66792, Note_off_c, 0, 67, 0
2, 66816, Note_on_c, 0, 62, 93
2, 66840, Note_off_c, 0, 62, 0
2, 66864, Note_on_c, 0, 69, 93
2, 66888, Note_off_c, 0, 69, 0
2, 66912, Note_on_c, 0, 68, 93
2, 66936, Note_off_c, 0, 68, 0
2, 66960, Note_on_c, 0, 67, 93
2, 66984, Note_off_c, 0, 67, 0
2, 67008, Note_on_c, 0, 66, 93
2, 67032, Note_off_c, 0, 66, 0
2, 67056, Note_on_c, 0, 65, 93
2, 67080, Note_off_c, 0, 65, 0
2, 67104, Note_on_c, 0, 60, 93
2, 67128, Note_off_c, 0, 60, 0
2, 67152, Note_on_c, 0, 67, 93
2, 67176, Note_off_c, 0, 67, 0
2, 67200, Note_on_c, 0, 66, 93
2, 67224, Note_off_c, 0, 66, 0
2, 67248, Note_on_c, 0, 65, 93
2, 67272, Note_off_c, 0, 65, 0
2, 67296, Note_on_c, 0, 64, 93
2, 67320, Note_off_c, 0, 64, 0
2, 67344, Note_on_c, 0, 63, 93
2, 67368, Note_off_c, 0, 63, 0
2, 67392, Note_on_c, 0, 58, 93
2, 67416, Note_off_c, 0, 58, 0
2, 67440, Note_on_c, 0, 64, 93
2, 67464, Note_off_c, 0, 64, 0
2, 67488, Note_on_c, 0, 65, 93
2, 67512, Note_off_c, 0, 65, 0
2, 67536, Note_on_c, 0, 66, 93
2, 67560, Note_off_c, 0, 66, 0
2, 67584, Note_on_c, 0, 67, 93
2, 67608, Note_off_c, 0, 67, 0
2, 67632, Note_on_c, 0, 68, 93
2, 67656, Note_off_c, 0, 68, 0
2, 67680, Note_on_c, 0, 69, 93
2, 67704, Note_off_c, 0, 69, 0
2, 67728, Note_on_c, 0, 69, 93
2, 67752, Note_off_c, 0, 69, 0
2, 67776, Note_on_c, 0, 69, 93
2, 67800, Note_off_c, 0, 69, 0
2, 67824, Note_on_c, 0, 69, 93
2, 67848, Note_off_c, 0, 69, 0
2, 67872, Note_on_c, 0, 71, 93
2, 67896, Note_off_c, 0, 71, 0
2, 67920, Note_on_c, 0, 73, 93
2, 67944, Note_off_c, 0, 73, 0
2, 67968, Note_on_c, 0, 74, 93
2, 67992, Note_off_c, 0, 74, 0
2, 68016, Note_on_c, 0, 72, 93
2, 68040, Note_off_c, 0, 72, 0
2, 68064, Note_on_c, 0, 70, 93
2, 68088, Note_off_c, 0, 70, 0
2, 68112, Note_on_c, 0, 70, 93
2, 68136, Note_off_c, 0, 70, 0
2, 68160, Note_on_c, 0, 70, 93
2, 68184, Note_off_c, 0, 70, 0
2, 68208, Note_on_c, 0, 70, 93
2, 68232, Note_off_c, 0, 70, 0
2, 68256, Note_on_c, 0, 70, 93
2, 68280, Note_off_c, 0, 70, 0
2, 68304, Note_on_c, 0, 70, 93
2, 68328, Note_off_c, 0, 70, 0
2, 68352, Note_on_c, 0, 69, 93
2, 68376, Note_off_c, 0, 69, 0
2, 68400, Note_on_c, 0, 69, 93
2, 68424, Note_off_c, 0, 69, 0
2, 68448, Note_on_c, 0, 69, 93
2, 68472, Note_off_c, 0, 69, 0
2, 68496, Note_on_c, 0, 69, 93
2, 68520, Note_off_c, 0, 69, 0
2, 68544, Note_on_c, 0, 69, 93
2, 68568, Note_off_c, 0, 69, 0
2, 68592, Note_on_c, 0, 69, 93
2, 68616, Note_off_c, 0, 69, 0
2, 68640, Note_on_c, 0, 67, 93
2, 68664, Note_off_c, 0, 67, 0
2, 68688, Note_on_c, 0, 67, 93
2, 68712, Note_off_c, 0, 67, 0
2, 68736, Note_on_c, 0, 67, 93
2, 68760, Note_off_c, 0, 67, 0
2, 68784, Note_on_c, 0, 67, 93
2, 68808, Note_off_c, 0, 67, 0
2, 68832, Note_on_c, 0, 67, 93
2, 68856, Note_off_c, 0, 67, 0
2, 68880, Note_on_c, 0, 64, 93
2, 68904, Note_off_c, 0, 64, 0
2, 68928, Note_on_c, 0, 69, 93
2, 68952, Note_off_c, 0, 69, 0
2, 68976, Note_on_c, 0, 67, 93
2, 69000, Note_off_c, 0, 67, 0
2, 69024, Note_on_c, 0, 65, 93
2, 69048, Note_off_c, 0, 65, 0
2, 69072, Note_on_c, 0, 64, 93
2, 69096, Note_off_c, 0, 64, 0
2, 69984, Note_on_c, 0, 64, 93
2, 70002, Note_off_c, 0, 64, 0
2, 70002, Note_on_c, 0, 73, 93
2, 70014, Note_off_c, 0, 73, 0
2, 70014, Note_on_c, 0, 82, 93
2, 70032, Note_off_c, 0, 82, 0
2, 70032, Note_on_c, 0, 65, 93
2, 70050, Note_off_c, 0, 65, 0
2, 70050, Note_on_c, 0, 74, 93
2, 70062, Note_off_c, 0, 74, 0
2, 70062, Note_on_c, 0, 81, 93
2, 70080, Note_off_c, 0, 81, 0
2, 70080, Note_on_c, 0, 67, 93
2, 70098, Note_off_c, 0, 67, 0
2, 70098, Note_on_c, 0, 76, 93
2, 70110, Note_off_c, 0, 76, 0
2, 70110, Note_on_c, 0, 79, 93
2, 70128, Note_off_c, 0, 79, 0
2, 70128, Note_on_c, 0, 68, 93
2, 70146, Note_off_c, 0, 68, 0
2, 70146, Note_on_c, 0, 74, 93
2, 70158, Note_off_c, 0, 74, 0
2, 70158, Note_on_c, 0, 77, 93
2, 70176, Note_off_c, 0, 77, 0
2, 70176, Note_on_c, 0, 69, 93
2, 70194, Note_off_c, 0, 69, 0
2, 70194, Note_on_c, 0, 74, 93
2, 70206, Note_off_c, 0, 74, 0
2, 70206, Note_on_c, 0, 76, 93
2, 70224, Note_off_c, 0, 76, 0
2, 70224, Note_on_c, 0, 69, 93
2, 70242, Note_off_c, 0, 69, 0
2, 70242, Note_on_c, 0, 73, 93
2, 70254, Note_off_c, 0, 73, 0
2, 70254, Note_on_c, 0, 76, 93
2, 70272, Note_off_c, 0, 76, 0
2, 71520, Note_on_c, 0, 69, 93
2, 71664, Note_off_c, 0, 69, 0
2, 71664, Note_on_c, 0, 69, 93
2, 71712, Note_off_c, 0, 69, 0
2, 71712, Note_on_c, 0, 70, 93
2, 71808, Note_off_c, 0, 70, 0
2, 71808, Note_on_c, 0, 69, 93
2, 72000, Note_off_c, 0, 69, 0
2, 72000, Note_on_c, 0, 69, 93
2, 72096, Note_off_c, 0, 69, 0
2, 72096, Note_on_c, 0, 65, 93
2, 72288, Note_off_c, 0, 65, 0
2, 72288, Note_on_c, 0, 67, 93
2, 72384, Note_off_c, 0, 67, 0
2, 72384, Note_on_c, 0, 65, 93
2, 72480, Note_off_c, 0, 65, 0
2, 72480, Note_on_c, 0, 67, 93
2, 72504, Note_off_c, 0, 67, 0
2, 72504, Note_on_c, 0, 65, 93
2, 72528, Note_off_c, 0, 65, 0
2, 72528, Note_on_c, 0, 64, 93
2, 72552, Note_off_c, 0, 64, 0
2, 72552, Note_on_c, 0, 65, 93
2, 72576, Note_off_c, 0, 65, 0
2, 72576, Note_on_c, 0, 67, 93
2, 72600, Note_off_c, 0, 67, 0
2, 72600, Note_on_c, 0, 64, 93
2, 72624, Note_off_c, 0, 64, 0
2, 72624, Note_on_c, 0, 65, 93
2, 72648, Note_off_c, 0, 65, 0
2, 72648, Note_on_c, 0, 62, 93
2, 72672, Note_off_c, 0, 62, 0
2, 73152, Note_on_c, 0, 61, 93
2, 73176, Note_off_c, 0, 61, 0
2, 73176, Note_on_c, 0, 64, 93
2, 73200, Note_off_c, 0, 64, 0
2, 73200, Note_on_c, 0, 67, 93
2, 73224, Note_off_c, 0, 67, 0
2, 73224, Note_on_c, 0, 70, 93
2, 73248, Note_off_c, 0, 70, 0
2, 73248, Note_on_c, 0, 69, 93
2, 73272, Note_off_c, 0, 69, 0
2, 73272, Note_on_c, 0, 67, 93
2, 73296, Note_off_c, 0, 67, 0
2, 73296, Note_on_c, 0, 76, 93
2, 73320, Note_off_c, 0, 76, 0
2, 73320, Note_on_c, 0, 67, 93
2, 73344, Note_off_c, 0, 67, 0
2, 73344, Note_on_c, 0, 65, 93
2, 73488, Note_off_c, 0, 65, 0
2, 73488, Note_on_c, 0, 64, 93
2, 73536, Note_off_c, 0, 64, 0
2, 73536, Note_on_c, 0, 64, 93
2, 73680, Note_off_c, 0, 64, 0
2, 73680, Note_on_c, 0, 62, 93
2, 73728, Note_off_c, 0, 62, 0
2, 73728, Note_on_c, 0, 62, 93
2, 74016, Note_off_c, 0, 62, 0
2, 74016, End_track
3, 0, Start_track
3, 0, Title_t, "Track3"
3, 0, Program_c, 1, 40
3, 0, Control_c, 1, 7, 100
3, 0, Control_c, 1, 10, 74
3, 96, Note_on_c, 1, 65, 93
3, 288, Note_off_c, 1, 65, 0
3, 288, Note_on_c, 1, 67, 93
3, 384, Note_off_c, 1, 67, 0
3, 384, Note_on_c, 1, 67, 93
3, 576, Note_off_c, 1, 67, 0
3, 576, Note_on_c, 1, 65, 93
3, 672, Note_off_c, 1, 65, 0
3, 672, Note_on_c, 1, 65, 93
3, 864, Note_off_c, 1, 65, 0
3, 864, Note_on_c, 1, 67, 93
3, 960, Note_off_c, 1, 67, 0
3, 960, Note_on_c, 1, 65, 93
3, 1056, Note_off_c, 1, 65, 0
3, 1248, Note_on_c, 1, 65, 93
3, 1440, Note_off_c, 1, 65, 0
3, 1440, Note_on_c, 1, 67, 93
3, 1536, Note_off_c, 1, 67, 0
3, 1536, Note_on_c, 1, 67, 93
3, 1728, Note_off_c, 1, 67, 0
3, 1728, Note_on_c, 1, 65, 93
3, 1824, Note_off_c, 1, 65, 0
3, 2016, Note_on_c, 1, 64, 93
3, 2112, Note_off_c, 1, 64, 0
3, 2112, Note_on_c, 1, 64, 93
3, 2184, Note_off_c, 1, 64, 0
3, 2304, Note_on_c, 1, 62, 93
3, 2376, Note_off_c, 1, 62, 0
3, 2376, Note_on_c, 1, 64, 93
3, 2400, Note_off_c, 1, 64, 0
3, 2400, Note_on_c, 1, 65, 93
3, 2472, Note_off_c, 1, 65, 0
3, 2472, Note_on_c, 1, 67, 93
3, 2484, Note_off_c, 1, 67, 0
3, 2484, Note_on_c, 1, 69, 93
3, 2496, Note_off_c, 1, 69, 0
3, 2496, Note_on_c, 1, 70, 93
3, 2568, Note_off_c, 1, 70, 0
3, 2568, Note_on_c, 1, 69, 93
3, 2592, Note_off_c, 1, 69, 0
3, 2592, Note_on_c, 1, 67, 93
3, 2664, Note_off_c, 1, 67, 0
3, 2664, Note_on_c, 1, 65, 93
3, 2688, Note_off_c, 1, 65, 0
3, 2688, Note_on_c, 1, 67, 93
3, 2760, Note_off_c, 1, 67, 0
3, 2760, Note_on_c, 1, 70, 93
3, 2784, Note_off_c, 1, 70, 0
3, 2784, Note_on_c, 1, 69, 93
3, 2856, Note_off_c, 1, 69, 0
3, 2856, Note_on_c, 1, 67, 93
3, 2880, Note_off_c, 1, 67, 0
3, 2880, Note_on_c, 1, 65, 93
3, 2952, Note_off_c, 1, 65, 0
3, 2952, Note_on_c, 1, 64, 93
3, 2976, Note_off_c, 1, 64, 0
3, 2976, Note_on_c, 1, 65, 93
3, 3048, Note_off_c, 1, 65, 0
3, 3144, Note_on_c, 1, 55, 93
3, 3168, Note_off_c, 1, 55, 0
3, 3168, Note_on_c, 1, 57, 93
3, 3216, Note_off_c, 1, 57, 0
3, 3432, Note_on_c, 1, 57, 93
3, 3456, Note_off_c, 1, 57, 0
3, 3456, Note_on_c, 1, 62, 93
3, 3528, Note_off_c, 1, 62, 0
3, 3528, Note_on_c, 1, 64, 93
3, 3552, Note_off_c, 1, 64, 0
3, 3552, Note_on_c, 1, 65, 93
3, 3624, Note_off_c, 1, 65, 0
3, 3624, Note_on_c, 1, 67, 93
3, 3636, Note_off_c, 1, 67, 0
3, 3636, Note_on_c, 1, 69, 93
3, 3648, Note_off_c, 1, 69, 0
3, 3648, Note_on_c, 1, 70, 93
3, 3720, Note_off_c, 1, 70, 0
3, 3720, Note_on_c, 1, 69, 93
3, 3744, Note_off_c, 1, 69, 0
3, 3744, Note_on_c, 1, 67, 93
3, 3816, Note_off_c, 1, 67, 0
3, 3816, Note_on_c, 1, 65, 93
3, 3840, Note_off_c, 1, 65, 0
3, 3840, Note_on_c, 1, 67, 93
3, 3912, Note_off_c, 1, 67, 0
3, 3912, Note_on_c, 1, 70, 93
3, 3936, Note_off_c, 1, 70, 0
3, 3936, Note_on_c, 1, 69, 93
3, 4008, Note_off_c, 1, 69, 0
3, 4008, Note_on_c, 1, 67, 93
3, 4032, Note_off_c, 1, 67, 0
3, 4032, Note_on_c, 1, 65, 93
3, 4104, Note_off_c, 1, 65, 0
3, 4128, Note_on_c, 1, 58, 93
3, 4176, Note_off_c, 1, 58, 0
3, 4296, Note_on_c, 1, 58, 93
3, 4320, Note_off_c, 1, 58, 0
3, 4320, Note_on_c, 1, 57, 93
3, 4392, Note_off_c, 1, 57, 0
3, 4392, Note_on_c, 1, 55, 93
3, 4416, Note_off_c, 1, 55, 0
3, 4416, Note_on_c, 1, 57, 93
3, 4608, Note_off_c, 1, 57, 0
3, 4608, Note_on_c, 1, 62, 93
3, 4656, Note_off_c, 1, 62, 0
3, 4872, Note_on_c, 1, 74, 93
3, 4896, Note_off_c, 1, 74, 0
3, 4896, Note_on_c, 1, 73, 93
3, 4992, Note_off_c, 1, 73, 0
3, 4992, Note_on_c, 1, 72, 93
3, 5088, Note_off_c, 1, 72, 0
3, 5160, Note_on_c, 1, 72, 93
3, 5184, Note_off_c, 1, 72, 0
3, 5184, Note_on_c, 1, 71, 93
3, 5280, Note_off_c, 1, 71, 0
3, 5280, Note_on_c, 1, 70, 93
3, 5376, Note_off_c, 1, 70, 0
3, 6024, Note_on_c, 1, 74, 93
3, 6048, Note_off_c, 1, 74, 0
3, 6048, Note_on_c, 1, 73, 93
3, 6144, Note_off_c, 1, 73, 0
3, 6144, Note_on_c, 1, 72, 93
3, 6240, Note_off_c, 1, 72, 0
3, 6312, Note_on_c, 1, 72, 93
3, 6336, Note_off_c, 1, 72, 0
3, 6336, Note_on_c, 1, 71, 93
3, 6432, Note_off_c, 1, 71, 0
3, 6432, Note_on_c, 1, 70, 93
3, 6528, Note_off_c, 1, 70, 0
3, 6600, Note_on_c, 1, 68, 93
3, 6624, Note_off_c, 1, 68, 0
3, 6624, Note_on_c, 1, 69, 93
3, 6720, Note_off_c, 1, 69, 0
3, 6720, Note_on_c, 1, 69, 93
3, 6816, Note_off_c, 1, 69, 0
3, 7824, Note_on_c, 1, 55, 93
3, 7872, Note_off_c, 1, 55, 0
3, 7872, Note_on_c, 1, 57, 93
3, 7920, Note_off_c, 1, 57, 0
3, 16128, Note_on_c, 1, 77, 93
3, 16176, Note_off_c, 1, 77, 0
3, 16272, Note_on_c, 1, 77, 93
3, 16320, Note_off_c, 1, 77, 0
3, 16320, Note_on_c, 1, 79, 93
3, 16368, Note_off_c, 1, 79, 0
3, 16416, Note_on_c, 1, 76, 93
3, 16464, Note_off_c, 1, 76, 0
3, 16560, Note_on_c, 1, 76, 93
3, 16608, Note_off_c, 1, 76, 0
3, 16608, Note_on_c, 1, 77, 93
3, 16656, Note_off_c, 1, 77, 0
3, 16704, Note_on_c, 1, 74, 93
3, 16752, Note_off_c, 1, 74, 0
3, 16848, Note_on_c, 1, 74, 93
3, 16896, Note_off_c, 1, 74, 0
3, 16896, Note_on_c, 1, 76, 93
3, 16944, Note_off_c, 1, 76, 0
3, 16992, Note_on_c, 1, 69, 93
3, 17040, Note_off_c, 1, 69, 0
3, 17040, Note_on_c, 1, 74, 93
3, 17088, Note_off_c, 1, 74, 0
3, 17088, Note_on_c, 1, 74, 93
3, 17112, Note_off_c, 1, 74, 0
3, 17112, Note_on_c, 1, 73, 93
3, 17136, Note_off_c, 1, 73, 0
3, 17136, Note_on_c, 1, 74, 93
3, 17160, Note_off_c, 1, 74, 0
3, 17160, Note_on_c, 1, 71, 93
3, 17184, Note_off_c, 1, 71, 0
3, 17184, Note_on_c, 1, 73, 93
3, 17232, Note_off_c, 1, 73, 0
3, 17280, Note_on_c, 1, 77, 93
3, 17328, Note_off_c, 1, 77, 0
3, 17376, Note_on_c, 1, 74, 93
3, 17424, Note_off_c, 1, 74, 0
3, 17568, Note_on_c, 1, 76, 93
3, 17616, Note_off_c, 1, 76, 0
3, 17664, Note_on_c, 1, 72, 93
3, 17712, Note_off_c, 1, 72, 0
3, 17856, Note_on_c, 1, 74, 93
3, 17904, Note_off_c, 1, 74, 0
3, 17952, Note_on_c, 1, 70, 93
3, 18000, Note_off_c, 1, 70, 0
3, 25344, Note_on_c, 1, 62, 42
3, 25632, Note_off_c, 1, 62, 0
3, 25632, Note_on_c, 1, 62, 42
3, 25824, Note_off_c, 1, 62, 0
3, 25824, Note_on_c, 1, 64, 42
3, 25920, Note_off_c, 1, 64, 0
3, 25920, Note_on_c, 1, 62, 42
3, 26112, Note_off_c, 1, 62, 0
3, 26112, Note_on_c, 1, 62, 42
3, 26208, Note_off_c, 1, 62, 0
3, 29376, Note_on_c, 1, 62, 42
3, 29568, Note_off_c, 1, 62, 0
3, 29568, Note_on_c, 1, 61, 42
3, 29664, Note_off_c, 1, 61, 0
3, 29664, Note_on_c, 1, 62, 42
3, 29760, Note_off_c, 1, 62, 0
3, 29760, Note_on_c, 1, 57, 42
3, 29952, Note_off_c, 1, 57, 0
3, 29952, Note_on_c, 1, 62, 42
3, 30048, Note_off_c, 1, 62, 0
3, 30048, Note_on_c, 1, 62, 42
3, 30144, Note_off_c, 1, 62, 0
3, 30144, Note_on_c, 1, 62, 42
3, 30240, Note_off_c, 1, 62, 0
3, 30240, Note_on_c, 1, 55, 42
3, 30432, Note_off_c, 1, 55, 0
3, 30432, Note_on_c, 1, 57, 42
3, 30528, Note_off_c, 1, 57, 0
3, 30528, Note_on_c, 1, 58, 42
3, 30720, Note_off_c, 1, 58, 0
3, 30720, Note_on_c, 1, 58, 42
3, 30816, Note_off_c, 1, 58, 0
3, 30816, Note_on_c, 1, 57, 42
3, 30912, Note_off_c, 1, 57, 0
3, 30912, Note_on_c, 1, 57, 42
3, 31104, Note_off_c, 1, 57, 0
3, 31104, Note_on_c, 1, 62, 42
3, 31200, Note_off_c, 1, 62, 0
3, 31200, Note_on_c, 1, 62, 42
3, 31392, Note_off_c, 1, 62, 0
3, 31392, Note_on_c, 1, 62, 42
3, 31488, Note_off_c, 1, 62, 0
3, 31488, Note_on_c, 1, 62, 42
3, 31584, Note_off_c, 1, 62, 0
3, 31584, Note_on_c, 1, 64, 42
3, 31680, Note_off_c, 1, 64, 0
3, 31680, Note_on_c, 1, 65, 42
3, 31776, Note_off_c, 1, 65, 0
3, 31776, Note_on_c, 1, 66, 42
3, 31872, Note_off_c, 1, 66, 0
3, 31872, Note_on_c, 1, 67, 42
3, 31968, Note_off_c, 1, 67, 0
3, 31968, Note_on_c, 1, 68, 42
3, 32064, Note_off_c, 1, 68, 0
3, 32064, Note_on_c, 1, 69, 42
3, 32256, Note_off_c, 1, 69, 0
3, 32256, Note_on_c, 1, 62, 42
3, 32352, Note_off_c, 1, 62, 0
3, 32352, Note_on_c, 1, 70, 42
3, 32448, Note_off_c, 1, 70, 0
3, 32448, Note_on_c, 1, 69, 42
3, 32544, Note_off_c, 1, 69, 0
3, 32544, Note_on_c, 1, 68, 42
3, 32640, Note_off_c, 1, 68, 0
3, 32640, Note_on_c, 1, 69, 42
3, 32736, Note_off_c, 1, 69, 0
3, 32736, Note_on_c, 1, 67, 42
3, 32832, Note_off_c, 1, 67, 0
3, 32832, Note_on_c, 1, 66, 42
3, 32928, Note_off_c, 1, 66, 0
3, 32928, Note_on_c, 1, 67, 42
3, 33024, Note_off_c, 1, 67, 0
3, 33024, Note_on_c, 1, 65, 42
3, 33120, Note_off_c, 1, 65, 0
3, 33120, Note_on_c, 1, 64, 42
3, 33216, Note_off_c, 1, 64, 0
3, 33216, Note_on_c, 1, 65, 42
3, 33312, Note_off_c, 1, 65, 0
3, 33312, Note_on_c, 1, 64, 42
3, 33408, Note_off_c, 1, 64, 0
3, 33408, Note_on_c, 1, 62, 42
3, 33504, Note_off_c, 1, 62, 0
3, 33504, Note_on_c, 1, 69, 42
3, 33600, Note_off_c, 1, 69, 0
3, 33600, Note_on_c, 1, 67, 42
3, 33696, Note_off_c, 1, 67, 0
3, 33696, Note_on_c, 1, 67, 42
3, 33792, Note_off_c, 1, 67, 0
3, 33792, Note_on_c, 1, 67, 42
3, 33888, Note_off_c, 1, 67, 0
3, 33888, Note_on_c, 1, 65, 42
3, 33984, Note_off_c, 1, 65, 0
3, 33984, Note_on_c, 1, 65, 42
3, 34080, Note_off_c, 1, 65, 0
3, 34080, Note_on_c, 1, 67, 42
3, 34176, Note_off_c, 1, 67, 0
3, 34176, Note_on_c, 1, 65, 42
3, 34272, Note_off_c, 1, 65, 0
3, 34272, Note_on_c, 1, 64, 42
3, 34368, Note_off_c, 1, 64, 0
3, 34368, Note_on_c, 1, 64, 42
3, 34560, Note_off_c, 1, 64, 0
3, 34560, Note_on_c, 1, 62, 93
3, 34608, Note_off_c, 1, 62, 0
3, 34608, Note_on_c, 1, 77, 93
3, 34620, Note_off_c, 1, 77, 0
3, 34620, Note_on_c, 1, 76, 93
3, 34632, Note_off_c, 1, 76, 0
3, 34632, Note_on_c, 1, 74, 93
3, 34644, Note_off_c, 1, 74, 0
3, 34644, Note_on_c, 1, 76, 93
3, 34656, Note_off_c, 1, 76, 0
3, 34656, Note_on_c, 1, 74, 93
3, 34668, Note_off_c, 1, 74, 0
3, 34668, Note_on_c, 1, 72, 93
3, 34680, Note_off_c, 1, 72, 0
3, 34680, Note_on_c, 1, 74, 93
3, 34692, Note_off_c, 1, 74, 0
3, 34692, Note_on_c, 1, 72, 93
3, 34704, Note_off_c, 1, 72, 0
3, 34704, Note_on_c, 1, 70, 93
3, 34716, Note_off_c, 1, 70, 0
3, 34716, Note_on_c, 1, 72, 93
3, 34728, Note_off_c, 1, 72, 0
3, 34728, Note_on_c, 1, 70, 93
3, 34740, Note_off_c, 1, 70, 0
3, 34740, Note_on_c, 1, 69, 93
3, 34752, Note_off_c, 1, 69, 0
3, 34752, Note_on_c, 1, 70, 93
3, 34764, Note_off_c, 1, 70, 0
3, 34764, Note_on_c, 1, 72, 93
3, 34776, Note_off_c, 1, 72, 0
3, 34776, Note_on_c, 1, 74, 93
3, 34788, Note_off_c, 1, 74, 0
3, 34788, Note_on_c, 1, 76, 93
3, 34800, Note_off_c, 1, 76, 0
3, 34800, Note_on_c, 1, 77, 93
3, 34824, Note_off_c, 1, 77, 0
3, 34824, Note_on_c, 1, 62, 93
3, 34848, Note_off_c, 1, 62, 0
3, 34848, Note_on_c, 1, 60, 93
3, 34896, Note_off_c, 1, 60, 0
3, 34896, Note_on_c, 1, 76, 93
3, 34908, Note_off_c, 1, 76, 0
3, 34908, Note_on_c, 1, 74, 93
3, 34920, Note_off_c, 1, 74, 0
3, 34920, Note_on_c, 1, 72, 93
3, 34932, Note_off_c, 1, 72, 0
3, 34932, Note_on_c, 1, 74, 93
3, 34944, Note_off_c, 1, 74, 0
3, 34944, Note_on_c, 1, 72, 93
3, 34956, Note_off_c, 1, 72, 0
3, 34956, Note_on_c, 1, 70, 93
3, 34968, Note_off_c, 1, 70, 0
3, 34968, Note_on_c, 1, 72, 93
3, 34980, Note_off_c, 1, 72, 0
3, 34980, Note_on_c, 1, 70, 93
3, 34992, Note_off_c, 1, 70, 0
3, 34992, Note_on_c, 1, 69, 93
3, 35004, Note_off_c, 1, 69, 0
3, 35004, Note_on_c, 1, 70, 93
3, 35016, Note_off_c, 1, 70, 0
3, 35016, Note_on_c, 1, 69, 93
3, 35028, Note_off_c, 1, 69, 0
3, 35028, Note_on_c, 1, 67, 93
3, 35040, Note_off_c, 1, 67, 0
3, 35040, Note_on_c, 1, 69, 93
3, 35052, Note_off_c, 1, 69, 0
3, 35052, Note_on_c, 1, 70, 93
3, 35064, Note_off_c, 1, 70, 0
3, 35064, Note_on_c, 1, 72, 93
3, 35076, Note_off_c, 1, 72, 0
3, 35076, Note_on_c, 1, 74, 93
3, 35088, Note_off_c, 1, 74, 0
3, 35088, Note_on_c, 1, 75, 93
3, 35112, Note_off_c, 1, 75, 0
3, 35112, Note_on_c, 1, 60, 93
3, 35136, Note_off_c, 1, 60, 0
3, 35136, Note_on_c, 1, 58, 93
3, 35184, Note_off_c, 1, 58, 0
3, 35184, Note_on_c, 1, 74, 93
3, 35196, Note_off_c, 1, 74, 0
3, 35196, Note_on_c, 1, 72, 93
3, 35208, Note_off_c, 1, 72, 0
3, 35208, Note_on_c, 1, 70, 93
3, 35220, Note_off_c, 1, 70, 0
3, 35220, Note_on_c, 1, 72, 93
3, 35232, Note_off_c, 1, 72, 0
3, 35232, Note_on_c, 1, 70, 93
3, 35244, Note_off_c, 1, 70, 0
3, 35244, Note_on_c, 1, 69, 93
3, 35256, Note_off_c, 1, 69, 0
3, 35256, Note_on_c, 1, 70, 93
3, 35268, Note_off_c, 1, 70, 0
3, 35268, Note_on_c, 1, 69, 93
3, 35280, Note_off_c, 1, 69, 0
3, 35280, Note_on_c, 1, 67, 93
3, 35292, Note_off_c, 1, 67, 0
3, 35292, Note_on_c, 1, 69, 93
3, 35304, Note_off_c, 1, 69, 0
3, 35304, Note_on_c, 1, 67, 93
3, 35316, Note_off_c, 1, 67, 0
3, 35316, Note_on_c, 1, 65, 93
3, 35328, Note_off_c, 1, 65, 0
3, 35328, Note_on_c, 1, 67, 93
3, 35340, Note_off_c, 1, 67, 0
3, 35340, Note_on_c, 1, 69, 93
3, 35352, Note_off_c, 1, 69, 0
3, 35352, Note_on_c, 1, 70, 93
3, 35364, Note_off_c, 1, 70, 0
3, 35364, Note_on_c, 1, 72, 93
3, 35376, Note_off_c, 1, 72, 0
3, 35376, Note_on_c, 1, 74, 93
3, 35400, Note_off_c, 1, 74, 0
3, 35400, Note_on_c, 1, 58, 93
3, 35424, Note_off_c, 1, 58, 0
3, 35424, Note_on_c, 1, 57, 93
3, 35436, Note_off_c, 1, 57, 0
3, 35436, Note_on_c, 1, 69, 93
3, 35448, Note_off_c, 1, 69, 0
3, 35448, Note_on_c, 1, 71, 93
3, 35460, Note_off_c, 1, 71, 0
3, 35460, Note_on_c, 1, 73, 93
3, 35472, Note_off_c, 1, 73, 0
3, 35472, Note_on_c, 1, 74, 93
3, 35496, Note_off_c, 1, 74, 0
3, 35496, Note_on_c, 1, 57, 93
3, 35520, Note_off_c, 1, 57, 0
3, 35520, Note_on_c, 1, 55, 93
3, 35532, Note_off_c, 1, 55, 0
3, 35532, Note_on_c, 1, 69, 93
3, 35544, Note_off_c, 1, 69, 0
3, 35544, Note_on_c, 1, 71, 93
3, 35556, Note_off_c, 1, 71, 0
3, 35556, Note_on_c, 1, 73, 93
3, 35568, Note_off_c, 1, 73, 0
3, 35568, Note_on_c, 1, 74, 93
3, 35592, Note_off_c, 1, 74, 0
3, 35592, Note_on_c, 1, 55, 93
3, 35616, Note_off_c, 1, 55, 0
3, 35616, Note_on_c, 1, 57, 93
3, 35628, Note_off_c, 1, 57, 0
3, 35628, Note_on_c, 1, 74, 93
3, 35640, Note_off_c, 1, 74, 0
3, 35640, Note_on_c, 1, 73, 93
3, 35652, Note_off_c, 1, 73, 0
3, 35652, Note_on_c, 1, 71, 93
3, 35664, Note_off_c, 1, 71, 0
3, 35664, Note_on_c, 1, 73, 93
3, 35688, Note_off_c, 1, 73, 0
3, 35688, Note_on_c, 1, 67, 93
3, 35712, Note_off_c, 1, 67, 0
3, 35712, Note_on_c, 1, 65, 93
3, 35736, Note_off_c, 1, 65, 0
3, 35736, Note_on_c, 1, 64, 93
3, 35760, Note_off_c, 1, 64, 0
3, 35760, Note_on_c, 1, 62, 93
3, 35784, Note_off_c, 1, 62, 0
3, 35784, Note_on_c, 1, 61, 93
3, 35808, Note_off_c, 1, 61, 0
3, 35808, Note_on_c, 1, 62, 93
3, 35832, Note_off_c, 1, 62, 0
3, 35832, Note_on_c, 1, 65, 93
3, 35856, Note_off_c, 1, 65, 0
3, 35856, Note_on_c, 1, 67, 93
3, 35880, Note_off_c, 1, 67, 0
3, 35880, Note_on_c, 1, 69, 93
3, 35904, Note_off_c, 1, 69, 0
3, 35904, Note_on_c, 1, 70, 93
3, 35928, Note_off_c, 1, 70, 0
3, 35928, Note_on_c, 1, 69, 93
3, 35952, Note_off_c, 1, 69, 0
3, 35952, Note_on_c, 1, 70, 93
3, 35976, Note_off_c, 1, 70, 0
3, 35976, Note_on_c, 1, 67, 93
3, 36000, Note_off_c, 1, 67, 0
3, 36000, Note_on_c, 1, 70, 93
3, 36096, Note_off_c, 1, 70, 0
3, 36096, Note_on_c, 1, 69, 93
3, 36288, Note_off_c, 1, 69, 0
3, 36288, Note_on_c, 1, 69, 93
3, 36384, Note_off_c, 1, 69, 0
3, 36576, Note_on_c, 1, 82, 93
3, 36672, Note_off_c, 1, 82, 0
3, 36672, Note_on_c, 1, 81, 93
3, 36768, Note_off_c, 1, 81, 0
3, 36768, Note_on_c, 1, 79, 93
3, 36864, Note_off_c, 1, 79, 0
3, 36864, Note_on_c, 1, 79, 93
3, 36960, Note_off_c, 1, 79, 0
3, 36960, Note_on_c, 1, 78, 93
3, 37056, Note_off_c, 1, 78, 0
3, 37104, Note_on_c, 1, 77, 93
3, 37152, Note_off_c, 1, 77, 0
3, 37152, Note_on_c, 1, 77, 93
3, 37248, Note_off_c, 1, 77, 0
3, 37248, Note_on_c, 1, 76, 93
3, 37344, Note_off_c, 1, 76, 0
3, 37392, Note_on_c, 1, 75, 93
3, 37440, Note_off_c, 1, 75, 0
3, 37440, Note_on_c, 1, 75, 93
3, 37536, Note_off_c, 1, 75, 0
3, 37536, Note_on_c, 1, 74, 93
3, 37632, Note_off_c, 1, 74, 0
3, 37680, Note_on_c, 1, 74, 93
3, 37728, Note_off_c, 1, 74, 0
3, 37776, Note_on_c, 1, 74, 93
3, 37824, Note_off_c, 1, 74, 0
3, 37824, Note_on_c, 1, 73, 93
3, 37968, Note_off_c, 1, 73, 0
3, 37968, Note_on_c, 1, 74, 93
3, 38016, Note_off_c, 1, 74, 0
3, 38016, Note_on_c, 1, 62, 93
3, 38112, Note_off_c, 1, 62, 0
3, 38112, Note_on_c, 1, 62, 93
3, 38304, Note_off_c, 1, 62, 0
3, 38304, Note_on_c, 1, 61, 93
3, 38400, Note_off_c, 1, 61, 0
3, 38400, Note_on_c, 1, 57, 93
3, 38592, Note_off_c, 1, 57, 0
3, 38592, Note_on_c, 1, 59, 93
3, 38688, Note_off_c, 1, 59, 0
3, 38688, Note_on_c, 1, 55, 93
3, 38880, Note_off_c, 1, 55, 0
3, 38880, Note_on_c, 1, 57, 93
3, 38976, Note_off_c, 1, 57, 0
3, 38976, Note_on_c, 1, 61, 93
3, 39168, Note_off_c, 1, 61, 0
3, 39168, Note_on_c, 1, 62, 93
3, 39264, Note_off_c, 1, 62, 0
3, 39264, Note_on_c, 1, 62, 93
3, 39408, Note_off_c, 1, 62, 0
3, 39408, Note_on_c, 1, 62, 93
3, 39456, Note_off_c, 1, 62, 0
3, 39456, Note_on_c, 1, 61, 93
3, 39504, Note_off_c, 1, 61, 0
3, 39504, Note_on_c, 1, 59, 93
3, 39552, Note_off_c, 1, 59, 0
3, 39552, Note_on_c, 1, 57, 93
3, 39696, Note_off_c, 1, 57, 0
3, 39696, Note_on_c, 1, 57, 93
3, 39744, Note_off_c, 1, 57, 0
3, 39744, Note_on_c, 1, 59, 93
3, 39792, Note_off_c, 1, 59, 0
3, 39792, Note_on_c, 1, 57, 93
3, 39840, Note_off_c, 1, 57, 0
3, 39840, Note_on_c, 1, 55, 93
3, 39984, Note_off_c, 1, 55, 0
3, 39984, Note_on_c, 1, 55, 93
3, 40032, Note_off_c, 1, 55, 0
3, 40032, Note_on_c, 1, 57, 93
3, 40128, Note_off_c, 1, 57, 0
3, 40128, Note_on_c, 1, 57, 93
3, 40320, Note_off_c, 1, 57, 0
3, 40320, Note_on_c, 1, 62, 93
3, 40416, Note_off_c, 1, 62, 0
3, 40416, Note_on_c, 1, 62, 93
3, 40560, Note_off_c, 1, 62, 0
3, 40560, Note_on_c, 1, 62, 93
3, 40608, Note_off_c, 1, 62, 0
3, 40608, Note_on_c, 1, 64, 93
3, 40704, Note_off_c, 1, 64, 0
3, 40704, Note_on_c, 1, 64, 93
3, 40848, Note_off_c, 1, 64, 0
3, 40848, Note_on_c, 1, 67, 93
3, 40896, Note_off_c, 1, 67, 0
3, 40896, Note_on_c, 1, 66, 93
3, 40992, Note_off_c, 1, 66, 0
3, 40992, Note_on_c, 1, 67, 93
3, 41136, Note_off_c, 1, 67, 0
3, 41136, Note_on_c, 1, 67, 93
3, 41184, Note_off_c, 1, 67, 0
3, 41184, Note_on_c, 1, 66, 93
3, 41232, Note_off_c, 1, 66, 0
3, 41232, Note_on_c, 1, 62, 93
3, 41280, Note_off_c, 1, 62, 0
3, 41280, Note_on_c, 1, 64, 93
3, 41328, Note_off_c, 1, 64, 0
3, 41328, Note_on_c, 1, 66, 93
3, 41376, Note_off_c, 1, 66, 0
3, 41376, Note_on_c, 1, 67, 93
3, 41424, Note_off_c, 1, 67, 0
3, 41424, Note_on_c, 1, 64, 93
3, 41472, Note_off_c, 1, 64, 0
3, 41472, Note_on_c, 1, 66, 93
3, 41520, Note_off_c, 1, 66, 0
3, 41520, Note_on_c, 1, 64, 93
3, 41568, Note_off_c, 1, 64, 0
3, 41568, Note_on_c, 1, 62, 93
3, 41616, Note_off_c, 1, 62, 0
3, 41616, Note_on_c, 1, 64, 93
3, 41664, Note_off_c, 1, 64, 0
3, 41664, Note_on_c, 1, 66, 93
3, 41712, Note_off_c, 1, 66, 0
3, 41712, Note_on_c, 1, 67, 93
3, 41760, Note_off_c, 1, 67, 0
3, 41760, Note_on_c, 1, 69, 93
3, 41808, Note_off_c, 1, 69, 0
3, 41808, Note_on_c, 1, 71, 93
3, 41856, Note_off_c, 1, 71, 0
3, 41856, Note_on_c, 1, 73, 93
3, 41904, Note_off_c, 1, 73, 0
3, 41904, Note_on_c, 1, 69, 93
3, 41952, Note_off_c, 1, 69, 0
3, 41952, Note_on_c, 1, 71, 93
3, 42000, Note_off_c, 1, 71, 0
3, 42000, Note_on_c, 1, 73, 93
3, 42048, Note_off_c, 1, 73, 0
3, 42048, Note_on_c, 1, 74, 93
3, 42096, Note_off_c, 1, 74, 0
3, 42096, Note_on_c, 1, 73, 93
3, 42144, Note_off_c, 1, 73, 0
3, 42144, Note_on_c, 1, 71, 93
3, 42192, Note_off_c, 1, 71, 0
3, 42192, Note_on_c, 1, 69, 93
3, 42240, Note_off_c, 1, 69, 0
3, 42240, Note_on_c, 1, 67, 93
3, 42288, Note_off_c, 1, 67, 0
3, 42288, Note_on_c, 1, 66, 93
3, 42336, Note_off_c, 1, 66, 0
3, 42336, Note_on_c, 1, 64, 93
3, 42384, Note_off_c, 1, 64, 0
3, 42384, Note_on_c, 1, 62, 93
3, 42432, Note_off_c, 1, 62, 0
3, 42432, Note_on_c, 1, 69, 93
3, 42624, Note_off_c, 1, 69, 0
3, 42624, Note_on_c, 1, 62, 93
3, 42672, Note_off_c, 1, 62, 0
3, 42864, Note_on_c, 1, 62, 93
3, 42912, Note_off_c, 1, 62, 0
3, 42912, Note_on_c, 1, 61, 93
3, 42936, Note_off_c, 1, 61, 0
3, 42936, Note_on_c, 1, 62, 93
3, 42960, Note_off_c, 1, 62, 0
3, 42960, Note_on_c, 1, 61, 93
3, 42984, Note_off_c, 1, 61, 0
3, 42984, Note_on_c, 1, 59, 93
3, 43008, Note_off_c, 1, 59, 0
3, 43008, Note_on_c, 1, 57, 93
3, 43032, Note_off_c, 1, 57, 0
3, 43032, Note_on_c, 1, 61, 93
3, 43056, Note_off_c, 1, 61, 0
3, 43056, Note_on_c, 1, 64, 93
3, 43080, Note_off_c, 1, 64, 0
3, 43080, Note_on_c, 1, 67, 93
3, 43104, Note_off_c, 1, 67, 0
3, 43104, Note_on_c, 1, 66, 93
3, 43152, Note_off_c, 1, 66, 0
3, 43152, Note_on_c, 1, 76, 93
3, 43200, Note_off_c, 1, 76, 0
3, 43200, Note_on_c, 1, 74, 93
3, 43248, Note_off_c, 1, 74, 0
3, 44088, Note_on_c, 1, 81, 93
3, 44112, Note_off_c, 1, 81, 0
3, 44112, Note_on_c, 1, 76, 93
3, 44136, Note_off_c, 1, 76, 0
3, 44136, Note_on_c, 1, 73, 93
3, 44160, Note_off_c, 1, 73, 0
3, 44160, Note_on_c, 1, 69, 93
3, 44184, Note_off_c, 1, 69, 0
3, 44184, Note_on_c, 1, 73, 93
3, 44208, Note_off_c, 1, 73, 0
3, 44208, Note_on_c, 1, 69, 93
3, 44232, Note_off_c, 1, 69, 0
3, 44232, Note_on_c, 1, 64, 93
3, 44256, Note_off_c, 1, 64, 0
3, 44256, Note_on_c, 1, 61, 93
3, 44280, Note_off_c, 1, 61, 0
3, 44280, Note_on_c, 1, 64, 93
3, 44304, Note_off_c, 1, 64, 0
3, 44304, Note_on_c, 1, 62, 93
3, 44328, Note_off_c, 1, 62, 0
3, 44328, Note_on_c, 1, 61, 93
3, 44352, Note_off_c, 1, 61, 0
3, 44352, Note_on_c, 1, 59, 93
3, 44376, Note_off_c, 1, 59, 0
3, 46128, Note_on_c, 1, 81, 93
3, 46152, Note_off_c, 1, 81, 0
3, 46152, Note_on_c, 1, 81, 93
3, 46176, Note_off_c, 1, 81, 0
3, 46176, Note_on_c, 1, 81, 93
3, 46200, Note_off_c, 1, 81, 0
3, 46200, Note_on_c, 1, 78, 93
3, 46224, Note_off_c, 1, 78, 0
3, 46224, Note_on_c, 1, 74, 93
3, 46248, Note_off_c, 1, 74, 0
3, 46248, Note_on_c, 1, 69, 93
3, 46272, Note_off_c, 1, 69, 0
3, 46272, Note_on_c, 1, 66, 93
3, 46296, Note_off_c, 1, 66, 0
3, 46296, Note_on_c, 1, 62, 93
3, 46320, Note_off_c, 1, 62, 0
3, 46320, Note_on_c, 1, 57, 93
3, 46344, Note_off_c, 1, 57, 0
3, 46344, Note_on_c, 1, 62, 93
3, 46368, Note_off_c, 1, 62, 0
3, 46368, Note_on_c, 1, 64, 93
3, 46392, Note_off_c, 1, 64, 0
3, 46392, Note_on_c, 1, 61, 93
3, 46416, Note_off_c, 1, 61, 0
3, 46704, Note_on_c, 1, 81, 93
3, 46728, Note_off_c, 1, 81, 0
3, 46728, Note_on_c, 1, 81, 93
3, 46752, Note_off_c, 1, 81, 0
3, 46752, Note_on_c, 1, 81, 93
3, 46776, Note_off_c, 1, 81, 0
3, 46776, Note_on_c, 1, 78, 93
3, 46800, Note_off_c, 1, 78, 0
3, 46800, Note_on_c, 1, 74, 93
3, 46824, Note_off_c, 1, 74, 0
3, 46824, Note_on_c, 1, 71, 93
3, 46848, Note_off_c, 1, 71, 0
3, 46848, Note_on_c, 1, 74, 93
3, 46872, Note_off_c, 1, 74, 0
3, 46872, Note_on_c, 1, 80, 93
3, 46896, Note_off_c, 1, 80, 0
3, 46896, Note_on_c, 1, 83, 93
3, 46920, Note_off_c, 1, 83, 0
3, 46920, Note_on_c, 1, 80, 93
3, 46944, Note_off_c, 1, 80, 0
3, 46944, Note_on_c, 1, 81, 93
3, 46968, Note_off_c, 1, 81, 0
3, 46968, Note_on_c, 1, 76, 93
3, 46992, Note_off_c, 1, 76, 0
3, 47280, Note_on_c, 1, 69, 93
3, 47304, Note_off_c, 1, 69, 0
3, 47304, Note_on_c, 1, 69, 93
3, 47328, Note_off_c, 1, 69, 0
3, 47328, Note_on_c, 1, 69, 93
3, 47352, Note_off_c, 1, 69, 0
3, 47352, Note_on_c, 1, 66, 93
3, 47376, Note_off_c, 1, 66, 0
3, 47376, Note_on_c, 1, 62, 93
3, 47400, Note_off_c, 1, 62, 0
3, 47400, Note_on_c, 1, 66, 93
3, 47424, Note_off_c, 1, 66, 0
3, 47424, Note_on_c, 1, 69, 93
3, 47448, Note_off_c, 1, 69, 0
3, 47448, Note_on_c, 1, 74, 93
3, 47472, Note_off_c, 1, 74, 0
3, 47472, Note_on_c, 1, 78, 93
3, 47496, Note_off_c, 1, 78, 0
3, 47568, Note_on_c, 1, 69, 93
3, 47592, Note_off_c, 1, 69, 0
3, 47592, Note_on_c, 1, 69, 93
3, 47616, Note_off_c, 1, 69, 0
3, 47616, Note_on_c, 1, 69, 93
3, 47640, Note_off_c, 1, 69, 0
3, 47784, Note_on_c, 1, 57, 93
3, 47808, Note_off_c, 1, 57, 0
3, 47808, Note_on_c, 1, 59, 93
3, 47832, Note_off_c, 1, 59, 0
3, 47832, Note_on_c, 1, 62, 93
3, 47856, Note_off_c, 1, 62, 0
3, 47856, Note_on_c, 1, 69, 93
3, 47880, Note_off_c, 1, 69, 0
3, 47880, Note_on_c, 1, 69, 93
3, 47904, Note_off_c, 1, 69, 0
3, 47904, Note_on_c, 1, 69, 93
3, 47928, Note_off_c, 1, 69, 0
3, 47928, Note_on_c, 1, 62, 93
3, 47952, Note_off_c, 1, 62, 0
3, 47952, Note_on_c, 1, 59, 93
3, 47976, Note_off_c, 1, 59, 0
3, 47976, Note_on_c, 1, 62, 93
3, 48000, Note_off_c, 1, 62, 0
3, 48000, Note_on_c, 1, 68, 93
3, 48024, Note_off_c, 1, 68, 0
3, 48024, Note_on_c, 1, 71, 93
3, 48048, Note_off_c, 1, 71, 0
3, 48048, Note_on_c, 1, 74, 93
3, 48072, Note_off_c, 1, 74, 0
3, 48072, Note_on_c, 1, 64, 93
3, 48096, Note_off_c, 1, 64, 0
3, 48144, Note_on_c, 1, 69, 93
3, 48168, Note_off_c, 1, 69, 0
3, 48168, Note_on_c, 1, 69, 93
3, 48192, Note_off_c, 1, 69, 0
3, 48192, Note_on_c, 1, 69, 93
3, 48216, Note_off_c, 1, 69, 0
3, 48408, Note_on_c, 1, 57, 93
3, 48432, Note_off_c, 1, 57, 0
3, 48432, Note_on_c, 1, 57, 93
3, 48456, Note_off_c, 1, 57, 0
3, 48456, Note_on_c, 1, 57, 93
3, 48480, Note_off_c, 1, 57, 0
3, 48480, Note_on_c, 1, 57, 93
3, 48504, Note_off_c, 1, 57, 0
3, 48696, Note_on_c, 1, 57, 93
3, 48720, Note_off_c, 1, 57, 0
3, 48720, Note_on_c, 1, 57, 93
3, 48744, Note_off_c, 1, 57, 0
3, 48744, Note_on_c, 1, 57, 93
3, 48768, Note_off_c, 1, 57, 0
3, 48768, Note_on_c, 1, 57, 93
3, 48792, Note_off_c, 1, 57, 0
3, 48984, Note_on_c, 1, 57, 93
3, 49008, Note_off_c, 1, 57, 0
3, 49008, Note_on_c, 1, 57, 93
3, 49032, Note_off_c, 1, 57, 0
3, 49032, Note_on_c, 1, 57, 93
3, 49056, Note_off_c, 1, 57, 0
3, 49056, Note_on_c, 1, 57, 93
3, 49080, Note_off_c, 1, 57, 0
3, 49272, Note_on_c, 1, 57, 93
3, 49296, Note_off_c, 1, 57, 0
3, 49296, Note_on_c, 1, 57, 93
3, 49320, Note_off_c, 1, 57, 0
3, 49320, Note_on_c, 1, 57, 93
3, 49344, Note_off_c, 1, 57, 0
3, 49344, Note_on_c, 1, 57, 93
3, 49368, Note_off_c, 1, 57, 0
3, 49560, Note_on_c, 1, 62, 93
3, 49584, Note_off_c, 1, 62, 0
3, 49584, Note_on_c, 1, 62, 93
3, 49608, Note_off_c, 1, 62, 0
3, 49608, Note_on_c, 1, 62, 93
3, 49632, Note_off_c, 1, 62, 0
3, 49632, Note_on_c, 1, 62, 93
3, 49656, Note_off_c, 1, 62, 0
3, 49656, Note_on_c, 1, 69, 93
3, 49680, Note_off_c, 1, 69, 0
3, 49680, Note_on_c, 1, 69, 93
3, 49704, Note_off_c, 1, 69, 0
3, 49704, Note_on_c, 1, 69, 93
3, 49728, Note_off_c, 1, 69, 0
3, 49728, Note_on_c, 1, 71, 93
3, 49752, Note_off_c, 1, 71, 0
3, 49752, Note_on_c, 1, 71, 93
3, 49776, Note_off_c, 1, 71, 0
3, 49776, Note_on_c, 1, 73, 93
3, 49800, Note_off_c, 1, 73, 0
3, 49800, Note_on_c, 1, 73, 93
3, 49824, Note_off_c, 1, 73, 0
3, 49824, Note_on_c, 1, 74, 93
3, 49848, Note_off_c, 1, 74, 0
3, 49944, Note_on_c, 1, 74, 93
3, 49968, Note_off_c, 1, 74, 0
3, 49968, Note_on_c, 1, 74, 93
3, 49992, Note_off_c, 1, 74, 0
3, 49992, Note_on_c, 1, 74, 93
3, 50016, Note_off_c, 1, 74, 0
3, 50016, Note_on_c, 1, 76, 93
3, 50040, Note_off_c, 1, 76, 0
3, 50040, Note_on_c, 1, 76, 93
3, 50064, Note_off_c, 1, 76, 0
3, 50064, Note_on_c, 1, 78, 93
3, 50088, Note_off_c, 1, 78, 0
3, 50088, Note_on_c, 1, 78, 93
3, 50112, Note_off_c, 1, 78, 0
3, 50112, Note_on_c, 1, 79, 93
3, 50136, Note_off_c, 1, 79, 0
3, 50232, Note_on_c, 1, 79, 93
3, 50256, Note_off_c, 1, 79, 0
3, 50256, Note_on_c, 1, 79, 93
3, 50280, Note_off_c, 1, 79, 0
3, 50280, Note_on_c, 1, 79, 93
3, 50304, Note_off_c, 1, 79, 0
3, 50304, Note_on_c, 1, 79, 93
3, 50328, Note_off_c, 1, 79, 0
3, 50328, Note_on_c, 1, 78, 93
3, 50352, Note_off_c, 1, 78, 0
3, 50352, Note_on_c, 1, 78, 93
3, 50376, Note_off_c, 1, 78, 0
3, 50376, Note_on_c, 1, 78, 93
3, 50400, Note_off_c, 1, 78, 0
3, 50400, Note_on_c, 1, 78, 93
3, 50424, Note_off_c, 1, 78, 0
3, 50424, Note_on_c, 1, 76, 93
3, 50448, Note_off_c, 1, 76, 0
3, 50448, Note_on_c, 1, 76, 93
3, 50472, Note_off_c, 1, 76, 0
3, 50472, Note_on_c, 1, 76, 93
3, 50496, Note_off_c, 1, 76, 0
3, 50496, Note_on_c, 1, 76, 93
3, 50520, Note_off_c, 1, 76, 0
3, 50520, Note_on_c, 1, 74, 93
3, 50544, Note_off_c, 1, 74, 0
3, 50544, Note_on_c, 1, 74, 93
3, 50568, Note_off_c, 1, 74, 0
3, 50568, Note_on_c, 1, 74, 93
3, 50592, Note_off_c, 1, 74, 0
3, 50592, Note_on_c, 1, 74, 93
3, 50616, Note_off_c, 1, 74, 0
3, 50616, Note_on_c, 1, 73, 93
3, 50640, Note_off_c, 1, 73, 0
3, 50640, Note_on_c, 1, 73, 93
3, 50664, Note_off_c, 1, 73, 0
3, 50664, Note_on_c, 1, 73, 93
3, 50688, Note_off_c, 1, 73, 0
3, 50688, Note_on_c, 1, 74, 93
3, 50784, Note_off_c, 1, 74, 0
3, 50784, Note_on_c, 1, 74, 93
3, 50928, Note_off_c, 1, 74, 0
3, 50928, Note_on_c, 1, 74, 93
3, 50976, Note_off_c, 1, 74, 0
3, 50976, Note_on_c, 1, 74, 93
3, 51072, Note_off_c, 1, 74, 0
3, 51072, Note_on_c, 1, 74, 93
3, 51120, Note_off_c, 1, 74, 0
3, 51120, Note_on_c, 1, 73, 93
3, 51168, Note_off_c, 1, 73, 0
3, 51168, Note_on_c, 1, 71, 93
3, 51216, Note_off_c, 1, 71, 0
3, 51216, Note_on_c, 1, 70, 93
3, 51264, Note_off_c, 1, 70, 0
3, 51264, Note_on_c, 1, 71, 93
3, 51360, Note_off_c, 1, 71, 0
3, 51360, Note_on_c, 1, 71, 93
3, 51408, Note_off_c, 1, 71, 0
3, 51408, Note_on_c, 1, 69, 93
3, 51456, Note_off_c, 1, 69, 0
3, 51456, Note_on_c, 1, 67, 93
3, 51504, Note_off_c, 1, 67, 0
3, 51504, Note_on_c, 1, 66, 93
3, 51552, Note_off_c, 1, 66, 0
3, 51552, Note_on_c, 1, 67, 93
3, 51648, Note_off_c, 1, 67, 0
3, 51696, Note_on_c, 1, 67, 93
3, 51744, Note_off_c, 1, 67, 0
3, 51744, Note_on_c, 1, 66, 93
3, 51792, Note_off_c, 1, 66, 0
3, 51792, Note_on_c, 1, 64, 93
3, 51840, Note_off_c, 1, 64, 0
3, 51840, Note_on_c, 1, 62, 93
3, 51888, Note_off_c, 1, 62, 0
3, 51888, Note_on_c, 1, 66, 93
3, 51936, Note_off_c, 1, 66, 0
3, 51936, Note_on_c, 1, 71, 93
3, 51984, Note_off_c, 1, 71, 0
3, 51984, Note_on_c, 1, 69, 93
3, 52032, Note_off_c, 1, 69, 0
3, 52032, Note_on_c, 1, 67, 93
3, 52080, Note_off_c, 1, 67, 0
3, 52080, Note_on_c, 1, 66, 93
3, 52128, Note_off_c, 1, 66, 0
3, 52128, Note_on_c, 1, 67, 93
3, 52176, Note_off_c, 1, 67, 0
3, 52176, Note_on_c, 1, 64, 93
3, 52224, Note_off_c, 1, 64, 0
3, 52224, Note_on_c, 1, 69, 93
3, 52272, Note_off_c, 1, 69, 0
3, 52272, Note_on_c, 1, 67, 93
3, 52320, Note_off_c, 1, 67, 0
3, 52320, Note_on_c, 1, 66, 93
3, 52368, Note_off_c, 1, 66, 0
3, 52368, Note_on_c, 1, 64, 93
3, 52416, Note_off_c, 1, 64, 0
3, 52416, Note_on_c, 1, 66, 93
3, 52464, Note_off_c, 1, 66, 0
3, 52464, Note_on_c, 1, 62, 93
3, 52512, Note_off_c, 1, 62, 0
3, 52512, Note_on_c, 1, 67, 93
3, 52560, Note_off_c, 1, 67, 0
3, 54240, Note_on_c, 1, 78, 93
3, 54384, Note_off_c, 1, 78, 0
3, 54384, Note_on_c, 1, 78, 93
3, 54432, Note_off_c, 1, 78, 0
3, 54432, Note_on_c, 1, 78, 93
3, 54528, Note_off_c, 1, 78, 0
3, 54528, Note_on_c, 1, 78, 93
3, 54672, Note_off_c, 1, 78, 0
3, 54672, Note_on_c, 1, 78, 93
3, 54720, Note_off_c, 1, 78, 0
3, 54720, Note_on_c, 1, 78, 93
3, 54816, Note_off_c, 1, 78, 0
3, 54816, Note_on_c, 1, 76, 93
3, 54960, Note_off_c, 1, 76, 0
3, 54960, Note_on_c, 1, 76, 93
3, 55008, Note_off_c, 1, 76, 0
3, 55008, Note_on_c, 1, 76, 93
3, 55056, Note_off_c, 1, 76, 0
3, 55056, Note_on_c, 1, 74, 93
3, 55104, Note_off_c, 1, 74, 0
3, 55104, Note_on_c, 1, 74, 93
3, 55248, Note_off_c, 1, 74, 0
3, 55248, Note_on_c, 1, 73, 93
3, 55296, Note_off_c, 1, 73, 0
3, 55296, Note_on_c, 1, 74, 93
3, 55392, Note_off_c, 1, 74, 0
3, 55392, Note_on_c, 1, 74, 93
3, 55536, Note_off_c, 1, 74, 0
3, 55536, Note_on_c, 1, 74, 93
3, 55584, Note_off_c, 1, 74, 0
3, 55584, Note_on_c, 1, 74, 93
3, 55680, Note_off_c, 1, 74, 0
3, 55680, Note_on_c, 1, 74, 93
3, 55824, Note_off_c, 1, 74, 0
3, 55824, Note_on_c, 1, 74, 93
3, 55872, Note_off_c, 1, 74, 0
3, 55872, Note_on_c, 1, 74, 93
3, 55968, Note_off_c, 1, 74, 0
3, 55968, Note_on_c, 1, 76, 93
3, 56112, Note_off_c, 1, 76, 0
3, 56112, Note_on_c, 1, 76, 93
3, 56160, Note_off_c, 1, 76, 0
3, 56160, Note_on_c, 1, 76, 93
3, 56208, Note_off_c, 1, 76, 0
3, 56208, Note_on_c, 1, 78, 93
3, 56256, Note_off_c, 1, 78, 0
3, 56256, Note_on_c, 1, 76, 93
3, 56448, Note_off_c, 1, 76, 0
3, 56448, Note_on_c, 1, 78, 93
3, 56544, Note_off_c, 1, 78, 0
3, 56544, Note_on_c, 1, 78, 93
3, 56688, Note_off_c, 1, 78, 0
3, 56688, Note_on_c, 1, 78, 93
3, 56736, Note_off_c, 1, 78, 0
3, 56736, Note_on_c, 1, 76, 93
3, 56832, Note_off_c, 1, 76, 0
3, 56832, Note_on_c, 1, 78, 93
3, 56976, Note_off_c, 1, 78, 0
3, 56976, Note_on_c, 1, 78, 93
3, 57024, Note_off_c, 1, 78, 0
3, 57024, Note_on_c, 1, 79, 93
3, 57072, Note_off_c, 1, 79, 0
3, 57072, Note_on_c, 1, 74, 93
3, 57120, Note_off_c, 1, 74, 0
3, 57120, Note_on_c, 1, 76, 93
3, 57264, Note_off_c, 1, 76, 0
3, 57264, Note_on_c, 1, 76, 93
3, 57312, Note_off_c, 1, 76, 0
3, 57312, Note_on_c, 1, 76, 93
3, 57360, Note_off_c, 1, 76, 0
3, 57360, Note_on_c, 1, 78, 93
3, 57408, Note_off_c, 1, 78, 0
3, 57408, Note_on_c, 1, 79, 93
3, 57456, Note_off_c, 1, 79, 0
3, 57456, Note_on_c, 1, 83, 93
3, 57504, Note_off_c, 1, 83, 0
3, 57504, Note_on_c, 1, 81, 93
3, 57552, Note_off_c, 1, 81, 0
3, 57552, Note_on_c, 1, 79, 93
3, 57600, Note_off_c, 1, 79, 0
3, 57600, Note_on_c, 1, 78, 93
3, 57696, Note_off_c, 1, 78, 0
3, 57696, Note_on_c, 1, 78, 42
3, 57792, Note_off_c, 1, 78, 0
3, 57792, Note_on_c, 1, 78, 42
3, 57888, Note_off_c, 1, 78, 0
3, 57888, Note_on_c, 1, 78, 42
3, 57984, Note_off_c, 1, 78, 0
3, 57984, Note_on_c, 1, 78, 42
3, 58080, Note_off_c, 1, 78, 0
3, 58080, Note_on_c, 1, 78, 42
3, 58176, Note_off_c, 1, 78, 0
3, 58176, Note_on_c, 1, 76, 42
3, 58272, Note_off_c, 1, 76, 0
3, 58272, Note_on_c, 1, 81, 42
3, 58368, Note_off_c, 1, 81, 0
3, 58464, Note_on_c, 1, 83, 42
3, 58560, Note_off_c, 1, 83, 0
3, 58560, Note_on_c, 1, 76, 42
3, 58608, Note_off_c, 1, 76, 0
3, 58608, Note_on_c, 1, 78, 42
3, 58656, Note_off_c, 1, 78, 0
3, 58656, Note_on_c, 1, 79, 42
3, 58752, Note_off_c, 1, 79, 0
3, 58752, Note_on_c, 1, 79, 42
3, 58848, Note_off_c, 1, 79, 0
3, 58848, Note_on_c, 1, 78, 42
3, 58944, Note_off_c, 1, 78, 0
3, 58944, Note_on_c, 1, 78, 42
3, 59040, Note_off_c, 1, 78, 0
3, 59040, Note_on_c, 1, 78, 42
3, 59136, Note_off_c, 1, 78, 0
3, 59136, Note_on_c, 1, 76, 42
3, 59232, Note_off_c, 1, 76, 0
3, 59232, Note_on_c, 1, 76, 42
3, 59328, Note_off_c, 1, 76, 0
3, 59328, Note_on_c, 1, 76, 42
3, 59424, Note_off_c, 1, 76, 0
3, 59424, Note_on_c, 1, 76, 42
3, 59520, Note_off_c, 1, 76, 0
3, 59520, Note_on_c, 1, 76, 42
3, 59616, Note_off_c, 1, 76, 0
3, 59616, Note_on_c, 1, 74, 93
3, 59664, Note_off_c, 1, 74, 0
3, 59664, Note_on_c, 1, 83, 93
3, 59712, Note_off_c, 1, 83, 0
3, 61344, Note_on_c, 1, 77, 93
3, 61416, Note_off_c, 1, 77, 0
3, 61416, Note_on_c, 1, 62, 93
3, 61440, Note_off_c, 1, 62, 0
3, 61440, Note_on_c, 1, 67, 93
3, 61464, Note_off_c, 1, 67, 0
3, 61464, Note_on_c, 1, 70, 93
3, 61488, Note_off_c, 1, 70, 0
3, 61488, Note_on_c, 1, 75, 93
3, 61512, Note_off_c, 1, 75, 0
3, 61512, Note_on_c, 1, 74, 93
3, 61536, Note_off_c, 1, 74, 0
3, 61536, Note_on_c, 1, 75, 93
3, 61560, Note_off_c, 1, 75, 0
3, 61560, Note_on_c, 1, 72, 93
3, 61584, Note_off_c, 1, 72, 0
3, 61584, Note_on_c, 1, 65, 93
3, 61608, Note_off_c, 1, 65, 0
3, 61608, Note_on_c, 1, 57, 93
3, 61632, Note_off_c, 1, 57, 0
3, 61632, Note_on_c, 1, 58, 93
3, 61704, Note_off_c, 1, 58, 0
3, 61920, Note_on_c, 1, 57, 93
3, 61968, Note_off_c, 1, 57, 0
3, 61968, Note_on_c, 1, 55, 93
3, 62016, Note_off_c, 1, 55, 0
3, 62016, Note_on_c, 1, 57, 93
3, 62088, Note_off_c, 1, 57, 0
3, 62328, Note_on_c, 1, 74, 93
3, 62352, Note_off_c, 1, 74, 0
3, 62376, Note_on_c, 1, 74, 93
3, 62400, Note_off_c, 1, 74, 0
3, 62424, Note_on_c, 1, 74, 93
3, 62448, Note_off_c, 1, 74, 0
3, 62472, Note_on_c, 1, 74, 93
3, 62496, Note_off_c, 1, 74, 0
3, 62616, Note_on_c, 1, 74, 93
3, 62640, Note_off_c, 1, 74, 0
3, 62664, Note_on_c, 1, 74, 93
3, 62688, Note_off_c, 1, 74, 0
3, 62712, Note_on_c, 1, 74, 93
3, 62736, Note_off_c, 1, 74, 0
3, 62760, Note_on_c, 1, 74, 93
3, 62784, Note_off_c, 1, 74, 0
3, 62904, Note_on_c, 1, 74, 93
3, 62928, Note_off_c, 1, 74, 0
3, 62952, Note_on_c, 1, 74, 93
3, 62976, Note_off_c, 1, 74, 0
3, 63000, Note_on_c, 1, 74, 93
3, 63024, Note_off_c, 1, 74, 0
3, 63048, Note_on_c, 1, 74, 93
3, 63072, Note_off_c, 1, 74, 0
3, 63192, Note_on_c, 1, 74, 93
3, 63216, Note_off_c, 1, 74, 0
3, 63240, Note_on_c, 1, 74, 93
3, 63264, Note_off_c, 1, 74, 0
3, 63288, Note_on_c, 1, 74, 93
3, 63312, Note_off_c, 1, 74, 0
3, 65688, Note_on_c, 1, 69, 93
3, 65712, Note_off_c, 1, 69, 0
3, 65736, Note_on_c, 1, 69, 93
3, 65760, Note_off_c, 1, 69, 0
3, 65784, Note_on_c, 1, 69, 93
3, 65808, Note_off_c, 1, 69, 0
3, 65832, Note_on_c, 1, 69, 93
3, 65856, Note_off_c, 1, 69, 0
3, 65880, Note_on_c, 1, 69, 93
3, 65904, Note_off_c, 1, 69, 0
3, 65928, Note_on_c, 1, 69, 93
3, 65952, Note_off_c, 1, 69, 0
3, 65976, Note_on_c, 1, 69, 93
3, 66000, Note_off_c, 1, 69, 0
3, 66024, Note_on_c, 1, 69, 93
3, 66048, Note_off_c, 1, 69, 0
3, 66072, Note_on_c, 1, 69, 93
3, 66096, Note_off_c, 1, 69, 0
3, 66120, Note_on_c, 1, 69, 93
3, 66144, Note_off_c, 1, 69, 0
3, 66168, Note_on_c, 1, 69, 93
3, 66192, Note_off_c, 1, 69, 0
3, 66216, Note_on_c, 1, 69, 93
3, 66240, Note_off_c, 1, 69, 0
3, 66264, Note_on_c, 1, 69, 93
3, 66288, Note_off_c, 1, 69, 0
3, 66312, Note_on_c, 1, 69, 93
3, 66336, Note_off_c, 1, 69, 0
3, 66360, Note_on_c, 1, 69, 93
3, 66384, Note_off_c, 1, 69, 0
3, 66408, Note_on_c, 1, 69, 93
3, 66432, Note_off_c, 1, 69, 0
3, 66456, Note_on_c, 1, 69, 93
3, 66480, Note_off_c, 1, 69, 0
3, 66504, Note_on_c, 1, 69, 93
3, 66528, Note_off_c, 1, 69, 0
3, 66552, Note_on_c, 1, 69, 93
3, 66576, Note_off_c, 1, 69, 0
3, 66600, Note_on_c, 1, 69, 93
3, 66624, Note_off_c, 1, 69, 0
3, 66648, Note_on_c, 1, 69, 93
3, 66672, Note_off_c, 1, 69, 0
3, 66696, Note_on_c, 1, 69, 93
3, 66720, Note_off_c, 1, 69, 0
3, 66744, Note_on_c, 1, 69, 93
3, 66768, Note_off_c, 1, 69, 0
3, 66792, Note_on_c, 1, 69, 93
3, 66816, Note_off_c, 1, 69, 0
3, 66840, Note_on_c, 1, 69, 93
3, 66864, Note_off_c, 1, 69, 0
3, 66888, Note_on_c, 1, 69, 93
3, 66912, Note_off_c, 1, 69, 0
3, 66936, Note_on_c, 1, 69, 93
3, 66960, Note_off_c, 1, 69, 0
3, 66984, Note_on_c, 1, 69, 93
3, 67008, Note_off_c, 1, 69, 0
3, 67032, Note_on_c, 1, 69, 93
3, 67056, Note_off_c, 1, 69, 0
3, 67080, Note_on_c, 1, 69, 93
3, 67104, Note_off_c, 1, 69, 0
3, 67128, Note_on_c, 1, 69, 93
3, 67152, Note_off_c, 1, 69, 0
3, 67176, Note_on_c, 1, 69, 93
3, 67200, Note_off_c, 1, 69, 0
3, 67224, Note_on_c, 1, 69, 93
3, 67248, Note_off_c, 1, 69, 0
3, 67272, Note_on_c, 1, 69, 93
3, 67296, Note_off_c, 1, 69, 0
3, 67320, Note_on_c, 1, 69, 93
3, 67344, Note_off_c, 1, 69, 0
3, 67368, Note_on_c, 1, 69, 93
3, 67392, Note_off_c, 1, 69, 0
3, 67416, Note_on_c, 1, 69, 93
3, 67440, Note_off_c, 1, 69, 0
3, 67464, Note_on_c, 1, 69, 93
3, 67488, Note_off_c, 1, 69, 0
3, 67512, Note_on_c, 1, 69, 93
3, 67536, Note_off_c, 1, 69, 0
3, 67560, Note_on_c, 1, 69, 93
3, 67584, Note_off_c, 1, 69, 0
3, 67608, Note_on_c, 1, 69, 93
3, 67632, Note_off_c, 1, 69, 0
3, 67656, Note_on_c, 1, 69, 93
3, 67680, Note_off_c, 1, 69, 0
3, 67704, Note_on_c, 1, 69, 93
3, 67728, Note_off_c, 1, 69, 0
3, 67752, Note_on_c, 1, 69, 93
3, 67776, Note_off_c, 1, 69, 0
3, 67800, Note_on_c, 1, 69, 93
3, 67824, Note_off_c, 1, 69, 0
3, 67848, Note_on_c, 1, 69, 93
3, 67872, Note_off_c, 1, 69, 0
3, 67896, Note_on_c, 1, 69, 93
3, 67920, Note_off_c, 1, 69, 0
3, 67944, Note_on_c, 1, 69, 93
3, 67968, Note_off_c, 1, 69, 0
3, 67992, Note_on_c, 1, 69, 93
3, 68016, Note_off_c, 1, 69, 0
3, 68040, Note_on_c, 1, 69, 93
3, 68064, Note_off_c, 1, 69, 0
3, 68088, Note_on_c, 1, 69, 93
3, 68112, Note_off_c, 1, 69, 0
3, 68136, Note_on_c, 1, 69, 93
3, 68160, Note_off_c, 1, 69, 0
3, 68184, Note_on_c, 1, 69, 93
3, 68208, Note_off_c, 1, 69, 0
3, 68232, Note_on_c, 1, 69, 93
3, 68256, Note_off_c, 1, 69, 0
3, 68280, Note_on_c, 1, 69, 93
3, 68304, Note_off_c, 1, 69, 0
3, 68328, Note_on_c, 1, 69, 93
3, 68352, Note_off_c, 1, 69, 0
3, 68376, Note_on_c, 1, 69, 93
3, 68400, Note_off_c, 1, 69, 0
3, 68424, Note_on_c, 1, 69, 93
3, 68448, Note_off_c, 1, 69, 0
3, 68472, Note_on_c, 1, 69, 93
3, 68496, Note_off_c, 1, 69, 0
3, 68520, Note_on_c, 1, 69, 93
3, 68544, Note_off_c, 1, 69, 0
3, 68568, Note_on_c, 1, 69, 93
3, 68592, Note_off_c, 1, 69, 0
3, 68616, Note_on_c, 1, 69, 93
3, 68640, Note_off_c, 1, 69, 0
3, 68664, Note_on_c, 1, 69, 93
3, 68688, Note_off_c, 1, 69, 0
3, 68712, Note_on_c, 1, 69, 93
3, 68736, Note_off_c, 1, 69, 0
3, 68760, Note_on_c, 1, 69, 93
3, 68784, Note_off_c, 1, 69, 0
3, 68808, Note_on_c, 1, 69, 93
3, 68832, Note_off_c, 1, 69, 0
3, 68856, Note_on_c, 1, 69, 93
3, 68880, Note_off_c, 1, 69, 0
3, 68904, Note_on_c, 1, 69, 93
3, 68928, Note_off_c, 1, 69, 0
3, 68952, Note_on_c, 1, 69, 93
3, 68976, Note_off_c, 1, 69, 0
3, 69000, Note_on_c, 1, 69, 93
3, 69024, Note_off_c, 1, 69, 0
3, 69048, Note_on_c, 1, 69, 93
3, 69072, Note_off_c, 1, 69, 0
3, 69096, Note_on_c, 1, 69, 93
3, 69120, Note_off_c, 1, 69, 0
3, 69120, Note_on_c, 1, 65, 93
3, 69144, Note_off_c, 1, 65, 0
3, 69144, Note_on_c, 1, 69, 101
3, 69168, Note_off_c, 1, 69, 0
3, 69744, Note_on_c, 1, 58, 93
3, 69762, Note_off_c, 1, 58, 0
3, 69762, Note_on_c, 1, 62, 93
3, 69774, Note_off_c, 1, 62, 0
3, 69774, Note_on_c, 1, 65, 93
3, 69792, Note_off_c, 1, 65, 0
3, 69792, Note_on_c, 1, 62, 93
3, 69810, Note_off_c, 1, 62, 0
3, 69810, Note_on_c, 1, 65, 93
3, 69822, Note_off_c, 1, 65, 0
3, 69822, Note_on_c, 1, 70, 93
3, 69840, Note_off_c, 1, 70, 0
3, 69840, Note_on_c, 1, 65, 93
3, 69858, Note_off_c, 1, 65, 0
3, 69858, Note_on_c, 1, 70, 93
3, 69870, Note_off_c, 1, 70, 0
3, 69870, Note_on_c, 1, 74, 93
3, 69888, Note_off_c, 1, 74, 0
3, 69888, Note_on_c, 1, 67, 93
3, 69906, Note_off_c, 1, 67, 0
3, 69906, Note_on_c, 1, 70, 93
3, 69918, Note_off_c, 1, 70, 0
3, 69918, Note_on_c, 1, 75, 93
3, 69936, Note_off_c, 1, 75, 0
3, 69936, Note_on_c, 1, 63, 93
3, 69954, Note_off_c, 1, 63, 0
3, 69954, Note_on_c, 1, 70, 93
3, 69966, Note_off_c, 1, 70, 0
3, 69966, Note_on_c, 1, 79, 93
3, 69984, Note_off_c, 1, 79, 0
3, 70848, Note_on_c, 1, 58, 93
3, 70866, Note_off_c, 1, 58, 0
3, 70866, Note_on_c, 1, 77, 93
3, 70878, Note_off_c, 1, 77, 0
3, 70878, Note_on_c, 1, 75, 93
3, 70896, Note_off_c, 1, 75, 0
3, 70896, Note_on_c, 1, 74, 93
3, 70914, Note_off_c, 1, 74, 0
3, 70914, Note_on_c, 1, 74, 93
3, 70926, Note_off_c, 1, 74, 0
3, 70926, Note_on_c, 1, 72, 93
3, 70944, Note_off_c, 1, 72, 0
3, 70944, Note_on_c, 1, 70, 93
3, 70962, Note_off_c, 1, 70, 0
3, 70962, Note_on_c, 1, 70, 93
3, 70974, Note_off_c, 1, 70, 0
3, 70974, Note_on_c, 1, 69, 93
3, 70992, Note_off_c, 1, 69, 0
3, 70992, Note_on_c, 1, 67, 93
3, 71010, Note_off_c, 1, 67, 0
3, 71010, Note_on_c, 1, 67, 93
3, 71022, Note_off_c, 1, 67, 0
3, 71022, Note_on_c, 1, 65, 93
3, 71040, Note_off_c, 1, 65, 0
3, 71040, Note_on_c, 1, 64, 93
3, 71058, Note_off_c, 1, 64, 0
3, 71058, Note_on_c, 1, 64, 93
3, 71070, Note_off_c, 1, 64, 0
3, 71070, Note_on_c, 1, 62, 93
3, 71088, Note_off_c, 1, 62, 0
3, 71088, Note_on_c, 1, 61, 93
3, 71106, Note_off_c, 1, 61, 0
3, 71106, Note_on_c, 1, 61, 93
3, 71118, Note_off_c, 1, 61, 0
3, 71118, Note_on_c, 1, 59, 93
3, 71136, Note_off_c, 1, 59, 0
3, 71136, Note_on_c, 1, 57, 93
3, 71160, Note_off_c, 1, 57, 0
3, 71160, Note_on_c, 1, 59, 93
3, 71172, Note_off_c, 1, 59, 0
3, 71172, Note_on_c, 1, 61, 93
3, 71184, Note_off_c, 1, 61, 0
3, 71184, Note_on_c, 1, 62, 93
3, 71196, Note_off_c, 1, 62, 0
3, 71196, Note_on_c, 1, 64, 93
3, 71208, Note_off_c, 1, 64, 0
3, 71208, Note_on_c, 1, 65, 93
3, 71220, Note_off_c, 1, 65, 0
3, 71220, Note_on_c, 1, 67, 93
3, 71232, Note_off_c, 1, 67, 0
3, 71232, Note_on_c, 1, 69, 93
3, 71244, Note_off_c, 1, 69, 0
3, 71244, Note_on_c, 1, 71, 93
3, 71256, Note_off_c, 1, 71, 0
3, 71256, Note_on_c, 1, 73, 93
3, 71268, Note_off_c, 1, 73, 0
3, 71268, Note_on_c, 1, 74, 93
3, 71280, Note_off_c, 1, 74, 0
3, 71280, Note_on_c, 1, 76, 93
3, 71292, Note_off_c, 1, 76, 0
3, 71292, Note_on_c, 1, 77, 93
3, 71304, Note_off_c, 1, 77, 0
3, 71304, Note_on_c, 1, 79, 93
3, 71316, Note_off_c, 1, 79, 0
3, 71316, Note_on_c, 1, 77, 93
3, 71328, Note_off_c, 1, 77, 0
3, 71328, Note_on_c, 1, 76, 93
3, 71340, Note_off_c, 1, 76, 0
3, 71340, Note_on_c, 1, 74, 93
3, 71352, Note_off_c, 1, 74, 0
3, 71352, Note_on_c, 1, 73, 93
3, 71364, Note_off_c, 1, 73, 0
3, 71364, Note_on_c, 1, 71, 93
3, 71376, Note_off_c, 1, 71, 0
3, 71376, Note_on_c, 1, 69, 93
3, 71388, Note_off_c, 1, 69, 0
3, 71388, Note_on_c, 1, 67, 93
3, 71400, Note_off_c, 1, 67, 0
3, 71400, Note_on_c, 1, 65, 93
3, 71412, Note_off_c, 1, 65, 0
3, 71412, Note_on_c, 1, 64, 93
3, 71424, Note_off_c, 1, 64, 0
3, 71424, Note_on_c, 1, 62, 93
3, 71472, Note_off_c, 1, 62, 0
3, 71712, Note_on_c, 1, 76, 93
3, 71808, Note_off_c, 1, 76, 0
3, 71808, Note_on_c, 1, 76, 93
3, 71952, Note_off_c, 1, 76, 0
3, 71952, Note_on_c, 1, 76, 93
3, 72000, Note_off_c, 1, 76, 0
3, 72000, Note_on_c, 1, 77, 93
3, 72096, Note_off_c, 1, 77, 0
3, 72096, Note_on_c, 1, 74, 93
3, 72240, Note_off_c, 1, 74, 0
3, 72240, Note_on_c, 1, 72, 93
3, 72288, Note_off_c, 1, 72, 0
3, 72288, Note_on_c, 1, 70, 93
3, 72384, Note_off_c, 1, 70, 0
3, 72384, Note_on_c, 1, 69, 93
3, 72480, Note_off_c, 1, 69, 0
3, 72672, Note_on_c, 1, 70, 93
3, 72768, Note_off_c, 1, 70, 0
3, 72768, Note_on_c, 1, 69, 93
3, 72864, Note_off_c, 1, 69, 0
3, 72864, Note_on_c, 1, 74, 93
3, 72960, Note_off_c, 1, 74, 0
3, 72960, Note_on_c, 1, 72, 93
3, 73056, Note_off_c, 1, 72, 0
3, 73056, Note_on_c, 1, 70, 93
3, 73152, Note_off_c, 1, 70, 0
3, 73152, End_track
4, 0, Start_track
4, 0, Title_t, "Track4"
4, 0, Program_c, 2, 40
4, 0, Control_c, 2, 7, 100
4, 0, Control_c, 2, 10, 94
4, 288, Note_on_c, 2, 70, 93
4, 384, Note_off_c, 2, 70, 0
4, 384, Note_on_c, 2, 69, 93
4, 576, Note_off_c, 2, 69, 0
4, 576, Note_on_c, 2, 69, 93
4, 672, Note_off_c, 2, 69, 0
4, 1440, Note_on_c, 2, 70, 93
4, 1536, Note_off_c, 2, 70, 0
4, 1536, Note_on_c, 2, 69, 93
4, 1728, Note_off_c, 2, 69, 0
4, 1728, Note_on_c, 2, 69, 93
4, 1824, Note_off_c, 2, 69, 0
4, 1824, Note_on_c, 2, 65, 93
4, 2016, Note_off_c, 2, 65, 0
4, 2016, Note_on_c, 2, 74, 93
4, 2112, Note_off_c, 2, 74, 0
4, 2112, Note_on_c, 2, 73, 93
4, 2184, Note_off_c, 2, 73, 0
4, 2304, Note_on_c, 2, 74, 93
4, 2376, Note_off_c, 2, 74, 0
4, 2592, Note_on_c, 2, 62, 93
4, 2640, Note_off_c, 2, 62, 0
4, 2688, Note_on_c, 2, 61, 93
4, 2736, Note_off_c, 2, 61, 0
4, 2880, Note_on_c, 2, 62, 93
4, 2928, Note_off_c, 2, 62, 0
4, 2976, Note_on_c, 2, 58, 93
4, 3024, Note_off_c, 2, 58, 0
4, 3168, Note_on_c, 2, 74, 93
4, 3216, Note_off_c, 2, 74, 0
4, 3264, Note_on_c, 2, 73, 93
4, 3312, Note_off_c, 2, 73, 0
4, 3432, Note_on_c, 2, 73, 93
4, 3456, Note_off_c, 2, 73, 0
4, 3456, Note_on_c, 2, 74, 93
4, 3504, Note_off_c, 2, 74, 0
4, 3744, Note_on_c, 2, 70, 93
4, 3792, Note_off_c, 2, 70, 0
4, 3840, Note_on_c, 2, 69, 93
4, 3888, Note_off_c, 2, 69, 0
4, 4032, Note_on_c, 2, 69, 93
4, 4080, Note_off_c, 2, 69, 0
4, 6600, Note_on_c, 2, 74, 93
4, 6624, Note_off_c, 2, 74, 0
4, 6624, Note_on_c, 2, 74, 93
4, 6720, Note_off_c, 2, 74, 0
4, 6720, Note_on_c, 2, 76, 93
4, 6816, Note_off_c, 2, 76, 0
4, 17088, Note_on_c, 2, 57, 93
4, 17136, Note_off_c, 2, 57, 0
4, 18432, Note_on_c, 2, 62, 93
4, 18456, Note_off_c, 2, 62, 0
4, 18720, Note_on_c, 2, 60, 93
4, 18744, Note_off_c, 2, 60, 0
4, 19008, Note_on_c, 2, 58, 93
4, 19032, Note_off_c, 2, 58, 0
4, 25344, Note_on_c, 2, 65, 42
4, 25632, Note_off_c, 2, 65, 0
4, 25632, Note_on_c, 2, 64, 42
4, 25824, Note_off_c, 2, 64, 0
4, 25824, Note_on_c, 2, 73, 42
4, 25920, Note_off_c, 2, 73, 0
4, 25920, Note_on_c, 2, 62, 42
4, 26112, Note_off_c, 2, 62, 0
4, 26112, Note_on_c, 2, 69, 42
4, 26208, Note_off_c, 2, 69, 0
4, 26208, Note_on_c, 2, 55, 42
4, 26400, Note_off_c, 2, 55, 0
4, 26400, Note_on_c, 2, 57, 42
4, 26496, Note_off_c, 2, 57, 0
4, 26496, Note_on_c, 2, 62, 42
4, 26592, Note_off_c, 2, 62, 0
4, 26592, Note_on_c, 2, 57, 42
4, 26688, Note_off_c, 2, 57, 0
4, 26688, Note_on_c, 2, 58, 42
4, 26784, Note_off_c, 2, 58, 0
4, 26784, Note_on_c, 2, 60, 42
4, 26880, Note_off_c, 2, 60, 0
4, 26880, Note_on_c, 2, 58, 42
4, 26976, Note_off_c, 2, 58, 0
4, 26976, Note_on_c, 2, 57, 42
4, 27072, Note_off_c, 2, 57, 0
4, 27072, Note_on_c, 2, 58, 42
4, 27168, Note_off_c, 2, 58, 0
4, 27168, Note_on_c, 2, 57, 42
4, 27264, Note_off_c, 2, 57, 0
4, 27264, Note_on_c, 2, 55, 42
4, 27360, Note_off_c, 2, 55, 0
4, 27360, Note_on_c, 2, 57, 42
4, 27648, Note_off_c, 2, 57, 0
4, 27648, Note_on_c, 2, 62, 42
4, 27936, Note_off_c, 2, 62, 0
4, 27936, Note_on_c, 2, 62, 42
4, 28224, Note_off_c, 2, 62, 0
4, 28224, Note_on_c, 2, 62, 42
4, 28320, Note_off_c, 2, 62, 0
4, 28320, Note_on_c, 2, 64, 42
4, 28416, Note_off_c, 2, 64, 0
4, 28416, Note_on_c, 2, 65, 42
4, 28512, Note_off_c, 2, 65, 0
4, 28512, Note_on_c, 2, 67, 42
4, 28608, Note_off_c, 2, 67, 0
4, 28608, Note_on_c, 2, 69, 42
4, 28800, Note_off_c, 2, 69, 0
4, 28800, Note_on_c, 2, 62, 42
4, 29088, Note_off_c, 2, 62, 0
4, 29088, Note_on_c, 2, 62, 42
4, 29376, Note_off_c, 2, 62, 0
4, 29376, Note_on_c, 2, 79, 42
4, 29472, Note_off_c, 2, 79, 0
4, 29472, Note_on_c, 2, 77, 42
4, 29568, Note_off_c, 2, 77, 0
4, 29568, Note_on_c, 2, 76, 42
4, 29664, Note_off_c, 2, 76, 0
4, 29664, Note_on_c, 2, 77, 42
4, 29760, Note_off_c, 2, 77, 0
4, 29760, Note_on_c, 2, 73, 42
4, 29952, Note_off_c, 2, 73, 0
4, 29952, Note_on_c, 2, 74, 42
4, 30048, Note_off_c, 2, 74, 0
4, 30048, Note_on_c, 2, 77, 42
4, 30144, Note_off_c, 2, 77, 0
4, 30144, Note_on_c, 2, 72, 42
4, 30240, Note_off_c, 2, 72, 0
4, 30240, Note_on_c, 2, 70, 42
4, 30432, Note_off_c, 2, 70, 0
4, 30624, Note_on_c, 2, 74, 42
4, 30720, Note_off_c, 2, 74, 0
4, 30720, Note_on_c, 2, 74, 42
4, 30816, Note_off_c, 2, 74, 0
4, 30816, Note_on_c, 2, 74, 42
4, 30912, Note_off_c, 2, 74, 0
4, 30912, Note_on_c, 2, 73, 42
4, 31104, Note_off_c, 2, 73, 0
4, 31104, Note_on_c, 2, 69, 42
4, 31200, Note_off_c, 2, 69, 0
4, 31200, Note_on_c, 2, 74, 42
4, 31296, Note_off_c, 2, 74, 0
4, 31296, Note_on_c, 2, 72, 42
4, 31392, Note_off_c, 2, 72, 0
4, 31392, Note_on_c, 2, 70, 42
4, 31488, Note_off_c, 2, 70, 0
4, 31488, Note_on_c, 2, 71, 42
4, 31584, Note_off_c, 2, 71, 0
4, 31584, Note_on_c, 2, 74, 42
4, 31680, Note_off_c, 2, 74, 0
4, 31680, Note_on_c, 2, 72, 42
4, 31776, Note_off_c, 2, 72, 0
4, 31776, Note_on_c, 2, 75, 42
4, 31872, Note_off_c, 2, 75, 0
4, 31872, Note_on_c, 2, 74, 42
4, 31968, Note_off_c, 2, 74, 0
4, 31968, Note_on_c, 2, 77, 42
4, 32064, Note_off_c, 2, 77, 0
4, 32064, Note_on_c, 2, 76, 42
4, 32256, Note_off_c, 2, 76, 0
4, 32256, Note_on_c, 2, 77, 42
4, 32544, Note_off_c, 2, 77, 0
4, 32544, Note_on_c, 2, 76, 42
4, 32832, Note_off_c, 2, 76, 0
4, 32832, Note_on_c, 2, 74, 42
4, 33120, Note_off_c, 2, 74, 0
4, 33120, Note_on_c, 2, 73, 42
4, 33216, Note_off_c, 2, 73, 0
4, 33216, Note_on_c, 2, 74, 42
4, 33312, Note_off_c, 2, 74, 0
4, 33312, Note_on_c, 2, 73, 42
4, 33408, Note_off_c, 2, 73, 0
4, 33408, Note_on_c, 2, 74, 42
4, 33504, Note_off_c, 2, 74, 0
4, 33504, Note_on_c, 2, 72, 42
4, 33600, Note_off_c, 2, 72, 0
4, 33600, Note_on_c, 2, 74, 42
4, 33696, Note_off_c, 2, 74, 0
4, 33696, Note_on_c, 2, 72, 42
4, 33792, Note_off_c, 2, 72, 0
4, 36000, Note_on_c, 2, 67, 93
4, 36096, Note_off_c, 2, 67, 0
4, 36096, Note_on_c, 2, 67, 93
4, 36288, Note_off_c, 2, 67, 0
4, 36288, Note_on_c, 2, 65, 93
4, 36384, Note_off_c, 2, 65, 0
4, 36384, Note_on_c, 2, 65, 93
4, 36576, Note_off_c, 2, 65, 0
4, 36576, Note_on_c, 2, 67, 93
4, 36672, Note_off_c, 2, 67, 0
4, 36672, Note_on_c, 2, 65, 93
4, 36768, Note_off_c, 2, 65, 0
4, 36768, Note_on_c, 2, 64, 93
4, 36864, Note_off_c, 2, 64, 0
4, 36864, Note_on_c, 2, 69, 93
4, 36960, Note_off_c, 2, 69, 0
4, 36960, Note_on_c, 2, 69, 93
4, 37056, Note_off_c, 2, 69, 0
4, 37152, Note_on_c, 2, 67, 93
4, 37248, Note_off_c, 2, 67, 0
4, 37248, Note_on_c, 2, 67, 93
4, 37344, Note_off_c, 2, 67, 0
4, 37440, Note_on_c, 2, 65, 93
4, 37536, Note_off_c, 2, 65, 0
4, 37536, Note_on_c, 2, 65, 93
4, 37632, Note_off_c, 2, 65, 0
4, 37824, Note_on_c, 2, 64, 93
4, 38016, Note_off_c, 2, 64, 0
4, 39120, Note_on_c, 2, 69, 93
4, 39168, Note_off_c, 2, 69, 0
4, 39264, Note_on_c, 2, 71, 93
4, 39312, Note_off_c, 2, 71, 0
4, 39312, Note_on_c, 2, 69, 93
4, 39360, Note_off_c, 2, 69, 0
4, 39360, Note_on_c, 2, 67, 93
4, 39408, Note_off_c, 2, 67, 0
4, 39408, Note_on_c, 2, 66, 93
4, 39456, Note_off_c, 2, 66, 0
4, 39456, Note_on_c, 2, 64, 93
4, 39552, Note_off_c, 2, 64, 0
4, 39552, Note_on_c, 2, 66, 93
4, 39576, Note_off_c, 2, 66, 0
4, 39576, Note_on_c, 2, 67, 93
4, 39600, Note_off_c, 2, 67, 0
4, 39600, Note_on_c, 2, 69, 93
4, 39624, Note_off_c, 2, 69, 0
4, 39624, Note_on_c, 2, 67, 93
4, 39648, Note_off_c, 2, 67, 0
4, 39648, Note_on_c, 2, 66, 93
4, 39696, Note_off_c, 2, 66, 0
4, 39696, Note_on_c, 2, 64, 93
4, 39744, Note_off_c, 2, 64, 0
4, 39744, Note_on_c, 2, 62, 93
4, 39840, Note_off_c, 2, 62, 0
4, 39840, Note_on_c, 2, 64, 93
4, 39888, Note_off_c, 2, 64, 0
4, 39888, Note_on_c, 2, 67, 93
4, 39912, Note_off_c, 2, 67, 0
4, 39912, Note_on_c, 2, 66, 93
4, 39936, Note_off_c, 2, 66, 0
4, 39936, Note_on_c, 2, 64, 93
4, 39984, Note_off_c, 2, 64, 0
4, 39984, Note_on_c, 2, 62, 93
4, 40032, Note_off_c, 2, 62, 0
4, 40032, Note_on_c, 2, 67, 93
4, 40080, Note_off_c, 2, 67, 0
4, 40080, Note_on_c, 2, 66, 93
4, 40128, Note_off_c, 2, 66, 0
4, 40128, Note_on_c, 2, 64, 93
4, 40272, Note_off_c, 2, 64, 0
4, 40608, Note_on_c, 2, 61, 93
4, 40704, Note_off_c, 2, 61, 0
4, 40704, Note_on_c, 2, 57, 93
4, 40848, Note_off_c, 2, 57, 0
4, 40848, Note_on_c, 2, 57, 93
4, 40896, Note_off_c, 2, 57, 0
4, 40896, Note_on_c, 2, 59, 93
4, 40992, Note_off_c, 2, 59, 0
4, 40992, Note_on_c, 2, 55, 93
4, 41136, Note_off_c, 2, 55, 0
4, 41136, Note_on_c, 2, 55, 93
4, 41184, Note_off_c, 2, 55, 0
4, 41184, Note_on_c, 2, 57, 93
4, 41280, Note_off_c, 2, 57, 0
4, 41280, Note_on_c, 2, 57, 93
4, 41424, Note_off_c, 2, 57, 0
4, 41424, Note_on_c, 2, 57, 93
4, 41472, Note_off_c, 2, 57, 0
4, 41472, Note_on_c, 2, 62, 93
4, 41520, Note_off_c, 2, 62, 0
4, 41568, Note_on_c, 2, 78, 93
4, 41712, Note_off_c, 2, 78, 0
4, 41712, Note_on_c, 2, 78, 93
4, 41760, Note_off_c, 2, 78, 0
4, 41760, Note_on_c, 2, 76, 93
4, 41856, Note_off_c, 2, 76, 0
4, 41856, Note_on_c, 2, 81, 93
4, 42000, Note_off_c, 2, 81, 0
4, 42000, Note_on_c, 2, 79, 93
4, 42048, Note_off_c, 2, 79, 0
4, 42048, Note_on_c, 2, 78, 93
4, 42096, Note_off_c, 2, 78, 0
4, 42096, Note_on_c, 2, 76, 93
4, 42144, Note_off_c, 2, 76, 0
4, 42144, Note_on_c, 2, 79, 93
4, 42192, Note_off_c, 2, 79, 0
4, 42192, Note_on_c, 2, 78, 93
4, 42240, Note_off_c, 2, 78, 0
4, 42240, Note_on_c, 2, 83, 93
4, 42288, Note_off_c, 2, 83, 0
4, 42288, Note_on_c, 2, 81, 93
4, 42336, Note_off_c, 2, 81, 0
4, 42336, Note_on_c, 2, 79, 93
4, 42384, Note_off_c, 2, 79, 0
4, 42384, Note_on_c, 2, 78, 93
4, 42432, Note_off_c, 2, 78, 0
4, 42432, Note_on_c, 2, 76, 93
4, 42624, Note_off_c, 2, 76, 0
4, 42864, Note_on_c, 2, 68, 93
4, 42912, Note_off_c, 2, 68, 0
4, 42912, Note_on_c, 2, 69, 93
4, 42960, Note_off_c, 2, 69, 0
4, 43152, Note_on_c, 2, 58, 93
4, 43200, Note_off_c, 2, 58, 0
4, 43200, Note_on_c, 2, 59, 93
4, 43224, Note_off_c, 2, 59, 0
4, 43224, Note_on_c, 2, 61, 93
4, 43248, Note_off_c, 2, 61, 0
4, 43248, Note_on_c, 2, 62, 93
4, 43272, Note_off_c, 2, 62, 0
4, 43272, Note_on_c, 2, 59, 93
4, 43296, Note_off_c, 2, 59, 0
4, 43296, Note_on_c, 2, 55, 93
4, 43320, Note_off_c, 2, 55, 0
4, 43320, Note_on_c, 2, 59, 93
4, 43344, Note_off_c, 2, 59, 0
4, 43344, Note_on_c, 2, 62, 93
4, 43368, Note_off_c, 2, 62, 0
4, 43368, Note_on_c, 2, 66, 93
4, 43392, Note_off_c, 2, 66, 0
4, 43392, Note_on_c, 2, 64, 93
4, 43440, Note_off_c, 2, 64, 0
4, 43440, Note_on_c, 2, 74, 93
4, 43488, Note_off_c, 2, 74, 0
4, 43488, Note_on_c, 2, 73, 93
4, 43512, Note_off_c, 2, 73, 0
4, 43512, Note_on_c, 2, 71, 93
4, 43536, Note_off_c, 2, 71, 0
4, 43536, Note_on_c, 2, 69, 93
4, 43560, Note_off_c, 2, 69, 0
4, 43560, Note_on_c, 2, 71, 93
4, 43584, Note_off_c, 2, 71, 0
4, 43584, Note_on_c, 2, 73, 93
4, 43608, Note_off_c, 2, 73, 0
4, 43608, Note_on_c, 2, 76, 93
4, 43632, Note_off_c, 2, 76, 0
4, 43632, Note_on_c, 2, 79, 93
4, 43656, Note_off_c, 2, 79, 0
4, 43656, Note_on_c, 2, 83, 93
4, 43680, Note_off_c, 2, 83, 0
4, 43680, Note_on_c, 2, 81, 93
4, 43704, Note_off_c, 2, 81, 0
4, 43704, Note_on_c, 2, 79, 93
4, 43728, Note_off_c, 2, 79, 0
4, 43728, Note_on_c, 2, 78, 93
4, 43752, Note_off_c, 2, 78, 0
4, 43752, Note_on_c, 2, 76, 93
4, 43776, Note_off_c, 2, 76, 0
4, 43776, Note_on_c, 2, 78, 93
4, 43800, Note_off_c, 2, 78, 0
4, 43800, Note_on_c, 2, 81, 93
4, 43824, Note_off_c, 2, 81, 0
4, 43824, Note_on_c, 2, 78, 93
4, 43848, Note_off_c, 2, 78, 0
4, 43848, Note_on_c, 2, 74, 93
4, 43872, Note_off_c, 2, 74, 0
4, 43872, Note_on_c, 2, 69, 93
4, 43896, Note_off_c, 2, 69, 0
4, 43896, Note_on_c, 2, 74, 93
4, 43920, Note_off_c, 2, 74, 0
4, 43920, Note_on_c, 2, 69, 93
4, 43944, Note_off_c, 2, 69, 0
4, 43944, Note_on_c, 2, 66, 93
4, 43968, Note_off_c, 2, 66, 0
4, 43968, Note_on_c, 2, 62, 93
4, 43992, Note_off_c, 2, 62, 0
4, 43992, Note_on_c, 2, 66, 93
4, 44016, Note_off_c, 2, 66, 0
4, 44016, Note_on_c, 2, 64, 93
4, 44040, Note_off_c, 2, 64, 0
4, 44040, Note_on_c, 2, 62, 93
4, 44064, Note_off_c, 2, 62, 0
4, 44064, Note_on_c, 2, 61, 93
4, 44088, Note_off_c, 2, 61, 0
4, 44376, Note_on_c, 2, 80, 93
4, 44400, Note_off_c, 2, 80, 0
4, 44400, Note_on_c, 2, 74, 93
4, 44424, Note_off_c, 2, 74, 0
4, 44424, Note_on_c, 2, 71, 93
4, 44448, Note_off_c, 2, 71, 0
4, 44448, Note_on_c, 2, 68, 93
4, 44472, Note_off_c, 2, 68, 0
4, 44472, Note_on_c, 2, 71, 93
4, 44496, Note_off_c, 2, 71, 0
4, 44496, Note_on_c, 2, 68, 93
4, 44520, Note_off_c, 2, 68, 0
4, 44520, Note_on_c, 2, 64, 93
4, 44544, Note_off_c, 2, 64, 0
4, 44544, Note_on_c, 2, 59, 93
4, 44568, Note_off_c, 2, 59, 0
4, 44568, Note_on_c, 2, 62, 93
4, 44592, Note_off_c, 2, 62, 0
4, 44592, Note_on_c, 2, 61, 93
4, 44616, Note_off_c, 2, 61, 0
4, 44616, Note_on_c, 2, 59, 93
4, 44640, Note_off_c, 2, 59, 0
4, 44640, Note_on_c, 2, 57, 93
4, 44664, Note_off_c, 2, 57, 0
4, 44664, Note_on_c, 2, 59, 93
4, 44688, Note_off_c, 2, 59, 0
4, 44688, Note_on_c, 2, 61, 93
4, 44712, Note_off_c, 2, 61, 0
4, 44712, Note_on_c, 2, 62, 93
4, 44736, Note_off_c, 2, 62, 0
4, 44736, Note_on_c, 2, 64, 93
4, 44760, Note_off_c, 2, 64, 0
4, 44760, Note_on_c, 2, 61, 93
4, 44784, Note_off_c, 2, 61, 0
4, 44784, Note_on_c, 2, 57, 93
4, 44808, Note_off_c, 2, 57, 0
4, 44808, Note_on_c, 2, 61, 93
4, 44832, Note_off_c, 2, 61, 0
4, 44832, Note_on_c, 2, 64, 93
4, 44856, Note_off_c, 2, 64, 0
4, 44856, Note_on_c, 2, 67, 93
4, 44880, Note_off_c, 2, 67, 0
4, 44880, Note_on_c, 2, 66, 93
4, 44904, Note_off_c, 2, 66, 0
4, 44904, Note_on_c, 2, 64, 93
4, 44928, Note_off_c, 2, 64, 0
4, 44928, Note_on_c, 2, 66, 93
4, 44952, Note_off_c, 2, 66, 0
4, 44952, Note_on_c, 2, 62, 93
4, 44976, Note_off_c, 2, 62, 0
4, 44976, Note_on_c, 2, 57, 93
4, 45000, Note_off_c, 2, 57, 0
4, 45000, Note_on_c, 2, 62, 93
4, 45024, Note_off_c, 2, 62, 0
4, 45024, Note_on_c, 2, 66, 93
4, 45048, Note_off_c, 2, 66, 0
4, 45048, Note_on_c, 2, 62, 93
4, 45072, Note_off_c, 2, 62, 0
4, 45072, Note_on_c, 2, 69, 93
4, 45096, Note_off_c, 2, 69, 0
4, 45096, Note_on_c, 2, 66, 93
4, 45120, Note_off_c, 2, 66, 0
4, 45120, Note_on_c, 2, 74, 93
4, 45144, Note_off_c, 2, 74, 0
4, 45144, Note_on_c, 2, 69, 93
4, 45168, Note_off_c, 2, 69, 0
4, 45168, Note_on_c, 2, 78, 93
4, 45192, Note_off_c, 2, 78, 0
4, 45192, Note_on_c, 2, 74, 93
4, 45216, Note_off_c, 2, 74, 0
4, 45216, Note_on_c, 2, 81, 93
4, 45240, Note_off_c, 2, 81, 0
4, 45240, Note_on_c, 2, 76, 93
4, 45264, Note_off_c, 2, 76, 0
4, 45264, Note_on_c, 2, 73, 93
4, 45288, Note_off_c, 2, 73, 0
4, 45288, Note_on_c, 2, 76, 93
4, 45312, Note_off_c, 2, 76, 0
4, 45312, Note_on_c, 2, 81, 93
4, 45336, Note_off_c, 2, 81, 0
4, 45336, Note_on_c, 2, 76, 93
4, 45360, Note_off_c, 2, 76, 0
4, 45360, Note_on_c, 2, 85, 93
4, 45384, Note_off_c, 2, 85, 0
4, 45384, Note_on_c, 2, 81, 93
4, 45408, Note_off_c, 2, 81, 0
4, 45408, Note_on_c, 2, 88, 93
4, 45432, Note_off_c, 2, 88, 0
4, 45432, Note_on_c, 2, 85, 93
4, 45456, Note_off_c, 2, 85, 0
4, 45456, Note_on_c, 2, 90, 93
4, 45480, Note_off_c, 2, 90, 0
4, 45480, Note_on_c, 2, 85, 93
4, 45504, Note_off_c, 2, 85, 0
4, 45504, Note_on_c, 2, 86, 93
4, 45528, Note_off_c, 2, 86, 0
4, 45528, Note_on_c, 2, 90, 93
4, 45552, Note_off_c, 2, 90, 0
4, 45552, Note_on_c, 2, 86, 93
4, 45576, Note_off_c, 2, 86, 0
4, 45576, Note_on_c, 2, 83, 93
4, 45600, Note_off_c, 2, 83, 0
4, 45600, Note_on_c, 2, 78, 93
4, 45624, Note_off_c, 2, 78, 0
4, 45624, Note_on_c, 2, 83, 93
4, 45648, Note_off_c, 2, 83, 0
4, 45648, Note_on_c, 2, 74, 93
4, 45672, Note_off_c, 2, 74, 0
4, 45672, Note_on_c, 2, 78, 93
4, 45696, Note_off_c, 2, 78, 0
4, 45696, Note_on_c, 2, 71, 93
4, 45720, Note_off_c, 2, 71, 0
4, 45720, Note_on_c, 2, 74, 93
4, 45744, Note_off_c, 2, 74, 0
4, 45744, Note_on_c, 2, 73, 93
4, 45768, Note_off_c, 2, 73, 0
4, 45768, Note_on_c, 2, 71, 93
4, 45792, Note_off_c, 2, 71, 0
4, 45792, Note_on_c, 2, 73, 93
4, 45816, Note_off_c, 2, 73, 0
4, 45816, Note_on_c, 2, 76, 93
4, 45840, Note_off_c, 2, 76, 0
4, 45840, Note_on_c, 2, 73, 93
4, 45864, Note_off_c, 2, 73, 0
4, 45864, Note_on_c, 2, 69, 93
4, 45888, Note_off_c, 2, 69, 0
4, 45888, Note_on_c, 2, 64, 93
4, 45912, Note_off_c, 2, 64, 0
4, 45912, Note_on_c, 2, 69, 93
4, 45936, Note_off_c, 2, 69, 0
4, 45936, Note_on_c, 2, 61, 93
4, 45960, Note_off_c, 2, 61, 0
4, 45960, Note_on_c, 2, 64, 93
4, 45984, Note_off_c, 2, 64, 0
4, 45984, Note_on_c, 2, 57, 93
4, 46008, Note_off_c, 2, 57, 0
4, 46008, Note_on_c, 2, 61, 93
4, 46032, Note_off_c, 2, 61, 0
4, 46032, Note_on_c, 2, 64, 93
4, 46056, Note_off_c, 2, 64, 0
4, 46056, Note_on_c, 2, 67, 93
4, 46080, Note_off_c, 2, 67, 0
4, 46080, Note_on_c, 2, 66, 93
4, 46104, Note_off_c, 2, 66, 0
4, 46104, Note_on_c, 2, 62, 93
4, 46128, Note_off_c, 2, 62, 0
4, 46416, Note_on_c, 2, 81, 93
4, 46440, Note_off_c, 2, 81, 0
4, 46440, Note_on_c, 2, 81, 93
4, 46464, Note_off_c, 2, 81, 0
4, 46464, Note_on_c, 2, 81, 93
4, 46488, Note_off_c, 2, 81, 0
4, 46488, Note_on_c, 2, 76, 93
4, 46512, Note_off_c, 2, 76, 0
4, 46512, Note_on_c, 2, 73, 93
4, 46536, Note_off_c, 2, 73, 0
4, 46536, Note_on_c, 2, 69, 93
4, 46560, Note_off_c, 2, 69, 0
4, 46560, Note_on_c, 2, 64, 93
4, 46584, Note_off_c, 2, 64, 0
4, 46584, Note_on_c, 2, 61, 93
4, 46608, Note_off_c, 2, 61, 0
4, 46608, Note_on_c, 2, 57, 93
4, 46632, Note_off_c, 2, 57, 0
4, 46632, Note_on_c, 2, 61, 93
4, 46656, Note_off_c, 2, 61, 0
4, 46656, Note_on_c, 2, 62, 93
4, 46680, Note_off_c, 2, 62, 0
4, 46680, Note_on_c, 2, 59, 93
4, 46704, Note_off_c, 2, 59, 0
4, 46992, Note_on_c, 2, 81, 93
4, 47016, Note_off_c, 2, 81, 0
4, 47016, Note_on_c, 2, 81, 93
4, 47040, Note_off_c, 2, 81, 0
4, 47040, Note_on_c, 2, 81, 93
4, 47064, Note_off_c, 2, 81, 0
4, 47064, Note_on_c, 2, 73, 93
4, 47088, Note_off_c, 2, 73, 0
4, 47088, Note_on_c, 2, 76, 93
4, 47112, Note_off_c, 2, 76, 0
4, 47112, Note_on_c, 2, 76, 93
4, 47136, Note_off_c, 2, 76, 0
4, 47136, Note_on_c, 2, 76, 93
4, 47160, Note_off_c, 2, 76, 0
4, 47160, Note_on_c, 2, 69, 93
4, 47184, Note_off_c, 2, 69, 0
4, 47184, Note_on_c, 2, 73, 93
4, 47208, Note_off_c, 2, 73, 0
4, 47208, Note_on_c, 2, 67, 93
4, 47232, Note_off_c, 2, 67, 0
4, 47232, Note_on_c, 2, 66, 93
4, 47256, Note_off_c, 2, 66, 0
4, 47256, Note_on_c, 2, 62, 93
4, 47280, Note_off_c, 2, 62, 0
4, 47280, Note_on_c, 2, 69, 93
4, 47304, Note_off_c, 2, 69, 0
4, 47304, Note_on_c, 2, 69, 93
4, 47328, Note_off_c, 2, 69, 0
4, 47328, Note_on_c, 2, 69, 93
4, 47352, Note_off_c, 2, 69, 0
4, 47496, Note_on_c, 2, 59, 93
4, 47520, Note_off_c, 2, 59, 0
4, 47520, Note_on_c, 2, 61, 93
4, 47544, Note_off_c, 2, 61, 0
4, 47544, Note_on_c, 2, 64, 93
4, 47568, Note_off_c, 2, 64, 0
4, 47568, Note_on_c, 2, 69, 93
4, 47592, Note_off_c, 2, 69, 0
4, 47592, Note_on_c, 2, 69, 93
4, 47616, Note_off_c, 2, 69, 0
4, 47616, Note_on_c, 2, 69, 93
4, 47640, Note_off_c, 2, 69, 0
4, 47640, Note_on_c, 2, 64, 93
4, 47664, Note_off_c, 2, 64, 0
4, 47664, Note_on_c, 2, 61, 93
4, 47688, Note_off_c, 2, 61, 0
4, 47688, Note_on_c, 2, 64, 93
4, 47712, Note_off_c, 2, 64, 0
4, 47712, Note_on_c, 2, 69, 93
4, 47736, Note_off_c, 2, 69, 0
4, 47736, Note_on_c, 2, 73, 93
4, 47760, Note_off_c, 2, 73, 0
4, 47760, Note_on_c, 2, 76, 93
4, 47784, Note_off_c, 2, 76, 0
4, 47856, Note_on_c, 2, 69, 93
4, 47880, Note_off_c, 2, 69, 0
4, 47880, Note_on_c, 2, 69, 93
4, 47904, Note_off_c, 2, 69, 0
4, 47904, Note_on_c, 2, 69, 93
4, 47928, Note_off_c, 2, 69, 0
4, 48096, Note_on_c, 2, 57, 93
4, 48120, Note_off_c, 2, 57, 0
4, 48120, Note_on_c, 2, 64, 93
4, 48144, Note_off_c, 2, 64, 0
4, 48144, Note_on_c, 2, 69, 93
4, 48168, Note_off_c, 2, 69, 0
4, 48168, Note_on_c, 2, 69, 93
4, 48192, Note_off_c, 2, 69, 0
4, 48192, Note_on_c, 2, 69, 93
4, 48216, Note_off_c, 2, 69, 0
4, 48216, Note_on_c, 2, 64, 93
4, 48240, Note_off_c, 2, 64, 0
4, 48240, Note_on_c, 2, 69, 93
4, 48264, Note_off_c, 2, 69, 0
4, 48264, Note_on_c, 2, 73, 93
4, 48288, Note_off_c, 2, 73, 0
4, 48288, Note_on_c, 2, 76, 93
4, 48312, Note_off_c, 2, 76, 0
4, 48312, Note_on_c, 2, 73, 93
4, 48336, Note_off_c, 2, 73, 0
4, 48336, Note_on_c, 2, 69, 93
4, 48360, Note_off_c, 2, 69, 0
4, 48360, Note_on_c, 2, 67, 93
4, 48384, Note_off_c, 2, 67, 0
4, 48384, Note_on_c, 2, 66, 93
4, 48408, Note_off_c, 2, 66, 0
4, 49128, Note_on_c, 2, 71, 93
4, 49152, Note_off_c, 2, 71, 0
4, 49152, Note_on_c, 2, 71, 93
4, 49176, Note_off_c, 2, 71, 0
4, 49176, Note_on_c, 2, 74, 93
4, 49200, Note_off_c, 2, 74, 0
4, 49200, Note_on_c, 2, 74, 93
4, 49224, Note_off_c, 2, 74, 0
4, 49224, Note_on_c, 2, 74, 93
4, 49248, Note_off_c, 2, 74, 0
4, 49248, Note_on_c, 2, 73, 93
4, 49272, Note_off_c, 2, 73, 0
4, 49560, Note_on_c, 2, 62, 93
4, 49584, Note_off_c, 2, 62, 0
4, 49584, Note_on_c, 2, 62, 93
4, 49608, Note_off_c, 2, 62, 0
4, 49608, Note_on_c, 2, 62, 93
4, 49632, Note_off_c, 2, 62, 0
4, 49632, Note_on_c, 2, 62, 93
4, 49656, Note_off_c, 2, 62, 0
4, 49848, Note_on_c, 2, 62, 93
4, 49872, Note_off_c, 2, 62, 0
4, 49872, Note_on_c, 2, 62, 93
4, 49896, Note_off_c, 2, 62, 0
4, 49896, Note_on_c, 2, 62, 93
4, 49920, Note_off_c, 2, 62, 0
4, 49920, Note_on_c, 2, 62, 93
4, 49944, Note_off_c, 2, 62, 0
4, 50136, Note_on_c, 2, 62, 93
4, 50160, Note_off_c, 2, 62, 0
4, 50160, Note_on_c, 2, 62, 93
4, 50184, Note_off_c, 2, 62, 0
4, 50184, Note_on_c, 2, 62, 93
4, 50208, Note_off_c, 2, 62, 0
4, 50208, Note_on_c, 2, 62, 93
4, 50232, Note_off_c, 2, 62, 0
4, 51696, Note_on_c, 2, 83, 93
4, 51744, Note_off_c, 2, 83, 0
4, 51744, Note_on_c, 2, 81, 93
4, 51792, Note_off_c, 2, 81, 0
4, 51792, Note_on_c, 2, 79, 93
4, 51840, Note_off_c, 2, 79, 0
4, 51840, Note_on_c, 2, 78, 93
4, 51936, Note_off_c, 2, 78, 0
4, 51936, Note_on_c, 2, 78, 93
4, 52080, Note_off_c, 2, 78, 0
4, 52080, Note_on_c, 2, 78, 93
4, 52128, Note_off_c, 2, 78, 0
4, 52128, Note_on_c, 2, 76, 93
4, 52224, Note_off_c, 2, 76, 0
4, 52224, Note_on_c, 2, 76, 93
4, 52368, Note_off_c, 2, 76, 0
4, 52368, Note_on_c, 2, 76, 93
4, 52416, Note_off_c, 2, 76, 0
4, 52416, Note_on_c, 2, 81, 93
4, 52464, Note_off_c, 2, 81, 0
4, 52464, Note_on_c, 2, 78, 93
4, 52512, Note_off_c, 2, 78, 0
4, 52512, Note_on_c, 2, 83, 93
4, 52560, Note_off_c, 2, 83, 0
4, 52560, Note_on_c, 2, 81, 93
4, 52608, Note_off_c, 2, 81, 0
4, 52608, Note_on_c, 2, 79, 93
4, 52656, Note_off_c, 2, 79, 0
4, 52656, Note_on_c, 2, 78, 93
4, 52704, Note_off_c, 2, 78, 0
4, 52704, Note_on_c, 2, 76, 93
4, 52752, Note_off_c, 2, 76, 0
4, 52752, Note_on_c, 2, 74, 93
4, 52800, Note_off_c, 2, 74, 0
4, 52800, Note_on_c, 2, 73, 93
4, 52944, Note_off_c, 2, 73, 0
4, 52944, Note_on_c, 2, 74, 93
4, 52992, Note_off_c, 2, 74, 0
4, 52992, Note_on_c, 2, 74, 93
4, 53088, Note_off_c, 2, 74, 0
4, 53088, Note_on_c, 2, 69, 93
4, 53232, Note_off_c, 2, 69, 0
4, 53232, Note_on_c, 2, 69, 93
4, 53280, Note_off_c, 2, 69, 0
4, 53280, Note_on_c, 2, 69, 93
4, 53376, Note_off_c, 2, 69, 0
4, 53376, Note_on_c, 2, 69, 93
4, 53520, Note_off_c, 2, 69, 0
4, 53520, Note_on_c, 2, 69, 93
4, 53568, Note_off_c, 2, 69, 0
4, 53568, Note_on_c, 2, 71, 93
4, 53664, Note_off_c, 2, 71, 0
4, 53664, Note_on_c, 2, 71, 93
4, 53808, Note_off_c, 2, 71, 0
4, 53808, Note_on_c, 2, 71, 93
4, 53856, Note_off_c, 2, 71, 0
4, 53856, Note_on_c, 2, 73, 93
4, 53904, Note_off_c, 2, 73, 0
4, 53904, Note_on_c, 2, 74, 93
4, 53952, Note_off_c, 2, 74, 0
4, 53952, Note_on_c, 2, 74, 93
4, 54096, Note_off_c, 2, 74, 0
4, 54096, Note_on_c, 2, 73, 93
4, 54144, Note_off_c, 2, 73, 0
4, 54144, Note_on_c, 2, 74, 93
4, 54240, Note_off_c, 2, 74, 0
4, 54240, Note_on_c, 2, 74, 93
4, 54384, Note_off_c, 2, 74, 0
4, 54384, Note_on_c, 2, 74, 93
4, 54432, Note_off_c, 2, 74, 0
4, 54432, Note_on_c, 2, 62, 93
4, 54528, Note_off_c, 2, 62, 0
4, 54528, Note_on_c, 2, 62, 93
4, 54672, Note_off_c, 2, 62, 0
4, 54672, Note_on_c, 2, 62, 93
4, 54720, Note_off_c, 2, 62, 0
4, 54720, Note_on_c, 2, 74, 93
4, 54816, Note_off_c, 2, 74, 0
4, 54816, Note_on_c, 2, 69, 93
4, 54960, Note_off_c, 2, 69, 0
4, 54960, Note_on_c, 2, 69, 93
4, 55008, Note_off_c, 2, 69, 0
4, 55008, Note_on_c, 2, 69, 93
4, 55104, Note_off_c, 2, 69, 0
4, 55392, Note_on_c, 2, 78, 93
4, 55536, Note_off_c, 2, 78, 0
4, 55536, Note_on_c, 2, 78, 93
4, 55584, Note_off_c, 2, 78, 0
4, 55584, Note_on_c, 2, 79, 93
4, 55680, Note_off_c, 2, 79, 0
4, 55680, Note_on_c, 2, 81, 93
4, 55824, Note_off_c, 2, 81, 0
4, 55824, Note_on_c, 2, 81, 93
4, 55872, Note_off_c, 2, 81, 0
4, 55872, Note_on_c, 2, 83, 93
4, 55968, Note_off_c, 2, 83, 0
4, 55968, Note_on_c, 2, 83, 93
4, 56112, Note_off_c, 2, 83, 0
4, 56112, Note_on_c, 2, 83, 93
4, 56160, Note_off_c, 2, 83, 0
4, 56160, Note_on_c, 2, 85, 93
4, 56208, Note_off_c, 2, 85, 0
4, 56208, Note_on_c, 2, 86, 93
4, 56256, Note_off_c, 2, 86, 0
4, 56256, Note_on_c, 2, 86, 93
4, 56352, Note_off_c, 2, 86, 0
4, 56352, Note_on_c, 2, 85, 93
4, 56448, Note_off_c, 2, 85, 0
4, 56448, Note_on_c, 2, 86, 93
4, 56544, Note_off_c, 2, 86, 0
4, 56544, Note_on_c, 2, 86, 93
4, 56688, Note_off_c, 2, 86, 0
4, 56688, Note_on_c, 2, 86, 93
4, 56736, Note_off_c, 2, 86, 0
4, 56736, Note_on_c, 2, 85, 93
4, 56832, Note_off_c, 2, 85, 0
4, 56832, Note_on_c, 2, 84, 93
4, 56976, Note_off_c, 2, 84, 0
4, 56976, Note_on_c, 2, 84, 93
4, 57024, Note_off_c, 2, 84, 0
4, 57024, Note_on_c, 2, 83, 93
4, 57120, Note_off_c, 2, 83, 0
4, 57408, Note_on_c, 2, 57, 93
4, 57552, Note_off_c, 2, 57, 0
4, 57552, Note_on_c, 2, 57, 93
4, 57600, Note_off_c, 2, 57, 0
4, 57696, Note_on_c, 2, 62, 42
4, 57792, Note_off_c, 2, 62, 0
4, 57792, Note_on_c, 2, 61, 42
4, 57888, Note_off_c, 2, 61, 0
4, 57888, Note_on_c, 2, 59, 42
4, 57984, Note_off_c, 2, 59, 0
4, 57984, Note_on_c, 2, 59, 42
4, 58080, Note_off_c, 2, 59, 0
4, 58080, Note_on_c, 2, 57, 42
4, 58176, Note_off_c, 2, 57, 0
4, 58176, Note_on_c, 2, 55, 42
4, 58272, Note_off_c, 2, 55, 0
4, 58272, Note_on_c, 2, 55, 42
4, 58368, Note_off_c, 2, 55, 0
4, 58368, Note_on_c, 2, 55, 42
4, 58464, Note_off_c, 2, 55, 0
4, 58464, Note_on_c, 2, 56, 42
4, 58560, Note_off_c, 2, 56, 0
4, 58560, Note_on_c, 2, 57, 42
4, 58656, Note_off_c, 2, 57, 0
4, 58656, Note_on_c, 2, 57, 42
4, 58752, Note_off_c, 2, 57, 0
4, 58752, Note_on_c, 2, 62, 42
4, 58848, Note_off_c, 2, 62, 0
4, 58848, Note_on_c, 2, 62, 42
4, 58944, Note_off_c, 2, 62, 0
4, 58944, Note_on_c, 2, 62, 42
4, 59040, Note_off_c, 2, 62, 0
4, 59040, Note_on_c, 2, 55, 42
4, 59136, Note_off_c, 2, 55, 0
4, 59136, Note_on_c, 2, 55, 42
4, 59232, Note_off_c, 2, 55, 0
4, 59232, Note_on_c, 2, 56, 42
4, 59328, Note_off_c, 2, 56, 0
4, 59328, Note_on_c, 2, 57, 42
4, 59424, Note_off_c, 2, 57, 0
4, 59424, Note_on_c, 2, 57, 42
4, 59520, Note_off_c, 2, 57, 0
4, 59520, Note_on_c, 2, 58, 42
4, 59616, Note_off_c, 2, 58, 0
4, 59616, Note_on_c, 2, 59, 93
4, 59664, Note_off_c, 2, 59, 0
4, 59664, Note_on_c, 2, 55, 93
4, 59712, Note_off_c, 2, 55, 0
4, 59712, Note_on_c, 2, 57, 93
4, 59904, Note_off_c, 2, 57, 0
4, 59904, Note_on_c, 2, 62, 93
4, 60000, Note_off_c, 2, 62, 0
4, 60000, Note_on_c, 2, 62, 93
4, 60192, Note_off_c, 2, 62, 0
4, 60192, Note_on_c, 2, 64, 93
4, 60264, Note_off_c, 2, 64, 0
4, 60432, Note_on_c, 2, 64, 93
4, 60480, Note_off_c, 2, 64, 0
4, 60480, Note_on_c, 2, 62, 93
4, 60552, Note_off_c, 2, 62, 0
4, 61008, Note_on_c, 2, 64, 93
4, 61056, Note_off_c, 2, 64, 0
4, 61056, Note_on_c, 2, 62, 93
4, 61128, Note_off_c, 2, 62, 0
4, 61344, Note_on_c, 2, 62, 93
4, 61416, Note_off_c, 2, 62, 0
4, 61632, Note_on_c, 2, 65, 93
4, 61704, Note_off_c, 2, 65, 0
4, 61920, Note_on_c, 2, 67, 93
4, 61968, Note_off_c, 2, 67, 0
4, 61968, Note_on_c, 2, 65, 93
4, 62016, Note_off_c, 2, 65, 0
4, 62016, Note_on_c, 2, 64, 93
4, 62088, Note_off_c, 2, 64, 0
4, 65664, Note_on_c, 2, 65, 93
4, 65688, Note_off_c, 2, 65, 0
4, 65952, Note_on_c, 2, 64, 93
4, 65976, Note_off_c, 2, 64, 0
4, 66240, Note_on_c, 2, 62, 93
4, 66264, Note_off_c, 2, 62, 0
4, 66528, Note_on_c, 2, 64, 93
4, 66552, Note_off_c, 2, 64, 0
4, 66816, Note_on_c, 2, 65, 93
4, 66840, Note_off_c, 2, 65, 0
4, 67104, Note_on_c, 2, 64, 93
4, 67128, Note_off_c, 2, 64, 0
4, 67392, Note_on_c, 2, 62, 93
4, 67416, Note_off_c, 2, 62, 0
4, 67680, Note_on_c, 2, 57, 93
4, 67704, Note_off_c, 2, 57, 0
4, 67728, Note_on_c, 2, 59, 93
4, 67752, Note_off_c, 2, 59, 0
4, 67776, Note_on_c, 2, 60, 93
4, 67800, Note_off_c, 2, 60, 0
4, 67824, Note_on_c, 2, 61, 93
4, 67848, Note_off_c, 2, 61, 0
4, 67872, Note_on_c, 2, 62, 93
4, 67896, Note_off_c, 2, 62, 0
4, 67920, Note_on_c, 2, 64, 93
4, 67944, Note_off_c, 2, 64, 0
4, 67968, Note_on_c, 2, 65, 93
4, 67992, Note_off_c, 2, 65, 0
4, 68016, Note_on_c, 2, 62, 93
4, 68040, Note_off_c, 2, 62, 0
4, 68064, Note_on_c, 2, 67, 93
4, 68088, Note_off_c, 2, 67, 0
4, 68112, Note_on_c, 2, 65, 93
4, 68136, Note_off_c, 2, 65, 0
4, 68160, Note_on_c, 2, 64, 93
4, 68184, Note_off_c, 2, 64, 0
4, 68208, Note_on_c, 2, 62, 93
4, 68232, Note_off_c, 2, 62, 0
4, 68256, Note_on_c, 2, 64, 93
4, 68280, Note_off_c, 2, 64, 0
4, 68304, Note_on_c, 2, 60, 93
4, 68328, Note_off_c, 2, 60, 0
4, 68352, Note_on_c, 2, 65, 93
4, 68376, Note_off_c, 2, 65, 0
4, 68400, Note_on_c, 2, 64, 93
4, 68424, Note_off_c, 2, 64, 0
4, 68448, Note_on_c, 2, 62, 93
4, 68472, Note_off_c, 2, 62, 0
4, 68496, Note_on_c, 2, 60, 93
4, 68520, Note_off_c, 2, 60, 0
4, 68544, Note_on_c, 2, 62, 93
4, 68568, Note_off_c, 2, 62, 0
4, 68592, Note_on_c, 2, 59, 93
4, 68616, Note_off_c, 2, 59, 0
4, 68640, Note_on_c, 2, 64, 93
4, 68664, Note_off_c, 2, 64, 0
4, 68688, Note_on_c, 2, 62, 93
4, 68712, Note_off_c, 2, 62, 0
4, 68736, Note_on_c, 2, 61, 93
4, 68760, Note_off_c, 2, 61, 0
4, 68784, Note_on_c, 2, 59, 93
4, 68808, Note_off_c, 2, 59, 0
4, 68832, Note_on_c, 2, 61, 93
4, 68856, Note_off_c, 2, 61, 0
4, 68880, Note_on_c, 2, 61, 93
4, 68904, Note_off_c, 2, 61, 0
4, 68928, Note_on_c, 2, 61, 93
4, 68952, Note_off_c, 2, 61, 0
4, 68976, Note_on_c, 2, 57, 93
4, 69000, Note_off_c, 2, 57, 0
4, 69024, Note_on_c, 2, 59, 93
4, 69048, Note_off_c, 2, 59, 0
4, 69072, Note_on_c, 2, 61, 93
4, 69096, Note_off_c, 2, 61, 0
4, 69120, Note_on_c, 2, 62, 93
4, 69144, Note_off_c, 2, 62, 0
4, 69456, Note_on_c, 2, 60, 93
4, 69474, Note_off_c, 2, 60, 0
4, 69474, Note_on_c, 2, 64, 93
4, 69486, Note_off_c, 2, 64, 0
4, 69486, Note_on_c, 2, 67, 93
4, 69504, Note_off_c, 2, 67, 0
4, 69504, Note_on_c, 2, 64, 93
4, 69522, Note_off_c, 2, 64, 0
4, 69522, Note_on_c, 2, 67, 93
4, 69534, Note_off_c, 2, 67, 0
4, 69534, Note_on_c, 2, 72, 93
4, 69552, Note_off_c, 2, 72, 0
4, 69552, Note_on_c, 2, 67, 93
4, 69570, Note_off_c, 2, 67, 0
4, 69570, Note_on_c, 2, 72, 93
4, 69582, Note_off_c, 2, 72, 0
4, 69582, Note_on_c, 2, 76, 93
4, 69600, Note_off_c, 2, 76, 0
4, 69600, Note_on_c, 2, 69, 93
4, 69618, Note_off_c, 2, 69, 0
4, 69618, Note_on_c, 2, 72, 93
4, 69630, Note_off_c, 2, 72, 0
4, 69630, Note_on_c, 2, 77, 93
4, 69648, Note_off_c, 2, 77, 0
4, 69648, Note_on_c, 2, 65, 93
4, 69666, Note_off_c, 2, 65, 0
4, 69666, Note_on_c, 2, 72, 93
4, 69678, Note_off_c, 2, 72, 0
4, 69678, Note_on_c, 2, 81, 93
4, 69696, Note_off_c, 2, 81, 0
4, 69696, Note_on_c, 2, 62, 93
4, 69714, Note_off_c, 2, 62, 0
4, 69714, Note_on_c, 2, 70, 93
4, 69726, Note_off_c, 2, 70, 0
4, 69726, Note_on_c, 2, 81, 93
4, 69744, Note_off_c, 2, 81, 0
4, 70560, Note_on_c, 2, 60, 93
4, 70578, Note_off_c, 2, 60, 0
4, 70578, Note_on_c, 2, 79, 93
4, 70590, Note_off_c, 2, 79, 0
4, 70590, Note_on_c, 2, 77, 93
4, 70608, Note_off_c, 2, 77, 0
4, 70608, Note_on_c, 2, 76, 93
4, 70626, Note_off_c, 2, 76, 0
4, 70626, Note_on_c, 2, 76, 93
4, 70638, Note_off_c, 2, 76, 0
4, 70638, Note_on_c, 2, 74, 93
4, 70656, Note_off_c, 2, 74, 0
4, 70656, Note_on_c, 2, 72, 93
4, 70674, Note_off_c, 2, 72, 0
4, 70674, Note_on_c, 2, 72, 93
4, 70686, Note_off_c, 2, 72, 0
4, 70686, Note_on_c, 2, 70, 93
4, 70704, Note_off_c, 2, 70, 0
4, 70704, Note_on_c, 2, 69, 93
4, 70722, Note_off_c, 2, 69, 0
4, 70722, Note_on_c, 2, 69, 93
4, 70734, Note_off_c, 2, 69, 0
4, 70734, Note_on_c, 2, 67, 93
4, 70752, Note_off_c, 2, 67, 0
4, 70752, Note_on_c, 2, 65, 93
4, 70770, Note_off_c, 2, 65, 0
4, 70770, Note_on_c, 2, 69, 93
4, 70782, Note_off_c, 2, 69, 0
4, 70782, Note_on_c, 2, 70, 93
4, 70800, Note_off_c, 2, 70, 0
4, 70800, Note_on_c, 2, 72, 93
4, 70818, Note_off_c, 2, 72, 0
4, 70818, Note_on_c, 2, 74, 93
4, 70830, Note_off_c, 2, 74, 0
4, 70830, Note_on_c, 2, 75, 93
4, 70848, Note_off_c, 2, 75, 0
4, 71520, Note_on_c, 2, 65, 93
4, 71712, Note_off_c, 2, 65, 0
4, 71712, Note_on_c, 2, 62, 93
4, 71808, Note_off_c, 2, 62, 0
4, 71808, Note_on_c, 2, 61, 93
4, 72000, Note_off_c, 2, 61, 0
4, 72000, Note_on_c, 2, 62, 93
4, 72096, Note_off_c, 2, 62, 0
4, 72096, Note_on_c, 2, 58, 93
4, 72288, Note_off_c, 2, 58, 0
4, 72288, Note_on_c, 2, 55, 93
4, 72384, Note_off_c, 2, 55, 0
4, 72384, Note_on_c, 2, 57, 93
4, 72480, Note_off_c, 2, 57, 0
4, 72480, Note_on_c, 2, 61, 93
4, 72576, Note_off_c, 2, 61, 0
4, 72576, Note_on_c, 2, 62, 93
4, 72624, Note_off_c, 2, 62, 0
4, 72672, Note_on_c, 2, 62, 93
4, 72768, Note_off_c, 2, 62, 0
4, 72768, Note_on_c, 2, 60, 93
4, 72864, Note_off_c, 2, 60, 0
4, 72864, Note_on_c, 2, 58, 93
4, 72960, Note_off_c, 2, 58, 0
4, 72960, Note_on_c, 2, 57, 93
4, 73056, Note_off_c, 2, 57, 0
4, 73056, Note_on_c, 2, 55, 93
4, 73152, Note_off_c, 2, 55, 0
4, 73152, End_track
5, 0, Start_track
5, 0, Title_t, "Track5"
5, 0, Program_c, 3, 40
5, 0, Control_c, 3, 7, 100
5, 0, Control_c, 3, 10, 34
5, 96, Note_on_c, 3, 62, 93
5, 288, Note_off_c, 3, 62, 0
5, 288, Note_on_c, 3, 62, 93
5, 384, Note_off_c, 3, 62, 0
5, 384, Note_on_c, 3, 61, 93
5, 576, Note_off_c, 3, 61, 0
5, 576, Note_on_c, 3, 62, 93
5, 672, Note_off_c, 3, 62, 0
5, 672, Note_on_c, 3, 58, 93
5, 864, Note_off_c, 3, 58, 0
5, 864, Note_on_c, 3, 55, 93
5, 960, Note_off_c, 3, 55, 0
5, 960, Note_on_c, 3, 57, 93
5, 1056, Note_off_c, 3, 57, 0
5, 1056, Note_on_c, 3, 61, 93
5, 1152, Note_off_c, 3, 61, 0
5, 1152, Note_on_c, 3, 62, 93
5, 1200, Note_off_c, 3, 62, 0
5, 1248, Note_on_c, 3, 62, 93
5, 1440, Note_off_c, 3, 62, 0
5, 1440, Note_on_c, 3, 62, 93
5, 1536, Note_off_c, 3, 62, 0
5, 1536, Note_on_c, 3, 61, 93
5, 1728, Note_off_c, 3, 61, 0
5, 1728, Note_on_c, 3, 62, 93
5, 1824, Note_off_c, 3, 62, 0
5, 1824, Note_on_c, 3, 58, 93
5, 2016, Note_off_c, 3, 58, 0
5, 2016, Note_on_c, 3, 55, 93
5, 2112, Note_off_c, 3, 55, 0
5, 2112, Note_on_c, 3, 57, 93
5, 2184, Note_off_c, 3, 57, 0
5, 2592, Note_on_c, 3, 76, 93
5, 2640, Note_off_c, 3, 76, 0
5, 2688, Note_on_c, 3, 76, 93
5, 2736, Note_off_c, 3, 76, 0
5, 2880, Note_on_c, 3, 77, 93
5, 2928, Note_off_c, 3, 77, 0
5, 2976, Note_on_c, 3, 74, 93
5, 3048, Note_off_c, 3, 74, 0
5, 3048, Note_on_c, 3, 77, 93
5, 3072, Note_off_c, 3, 77, 0
5, 3072, Note_on_c, 3, 76, 93
5, 3144, Note_off_c, 3, 76, 0
5, 3144, Note_on_c, 3, 74, 93
5, 3168, Note_off_c, 3, 74, 0
5, 3432, Note_on_c, 3, 81, 93
5, 3456, Note_off_c, 3, 81, 0
5, 3456, Note_on_c, 3, 77, 93
5, 3504, Note_off_c, 3, 77, 0
5, 3744, Note_on_c, 3, 76, 93
5, 3792, Note_off_c, 3, 76, 0
5, 3840, Note_on_c, 3, 76, 93
5, 3888, Note_off_c, 3, 76, 0
5, 4032, Note_on_c, 3, 76, 93
5, 4080, Note_off_c, 3, 76, 0
5, 4128, Note_on_c, 3, 74, 93
5, 4200, Note_off_c, 3, 74, 0
5, 4200, Note_on_c, 3, 77, 93
5, 4224, Note_off_c, 3, 77, 0
5, 4224, Note_on_c, 3, 76, 93
5, 4296, Note_off_c, 3, 76, 0
5, 4296, Note_on_c, 3, 73, 93
5, 4320, Note_off_c, 3, 73, 0
5, 4320, Note_on_c, 3, 74, 93
5, 4392, Note_off_c, 3, 74, 0
5, 4392, Note_on_c, 3, 76, 93
5, 4416, Note_off_c, 3, 76, 0
5, 4416, Note_on_c, 3, 74, 93
5, 4512, Note_off_c, 3, 74, 0
5, 4512, Note_on_c, 3, 73, 93
5, 4584, Note_off_c, 3, 73, 0
5, 4584, Note_on_c, 3, 74, 93
5, 4608, Note_off_c, 3, 74, 0
5, 4608, Note_on_c, 3, 74, 93
5, 4680, Note_off_c, 3, 74, 0
5, 4680, Note_on_c, 3, 76, 93
5, 4704, Note_off_c, 3, 76, 0
5, 4704, Note_on_c, 3, 77, 93
5, 4776, Note_off_c, 3, 77, 0
5, 4776, Note_on_c, 3, 79, 93
5, 4788, Note_off_c, 3, 79, 0
5, 4788, Note_on_c, 3, 81, 93
5, 4800, Note_off_c, 3, 81, 0
5, 4800, Note_on_c, 3, 82, 93
5, 4872, Note_off_c, 3, 82, 0
5, 4872, Note_on_c, 3, 77, 93
5, 4896, Note_off_c, 3, 77, 0
5, 4896, Note_on_c, 3, 76, 93
5, 4968, Note_off_c, 3, 76, 0
5, 4968, Note_on_c, 3, 82, 93
5, 4992, Note_off_c, 3, 82, 0
5, 4992, Note_on_c, 3, 81, 93
5, 5064, Note_off_c, 3, 81, 0
5, 5064, Note_on_c, 3, 79, 93
5, 5088, Note_off_c, 3, 79, 0
5, 5088, Note_on_c, 3, 81, 93
5, 5160, Note_off_c, 3, 81, 0
5, 5160, Note_on_c, 3, 78, 93
5, 5184, Note_off_c, 3, 78, 0
5, 5184, Note_on_c, 3, 79, 93
5, 5256, Note_off_c, 3, 79, 0
5, 5256, Note_on_c, 3, 77, 93
5, 5280, Note_off_c, 3, 77, 0
5, 5280, Note_on_c, 3, 76, 93
5, 5352, Note_off_c, 3, 76, 0
5, 5352, Note_on_c, 3, 74, 93
5, 5364, Note_off_c, 3, 74, 0
5, 5364, Note_on_c, 3, 73, 93
5, 5376, Note_off_c, 3, 73, 0
5, 5376, Note_on_c, 3, 74, 93
5, 5448, Note_off_c, 3, 74, 0
5, 5448, Note_on_c, 3, 76, 93
5, 5472, Note_off_c, 3, 76, 0
5, 5472, Note_on_c, 3, 77, 93
5, 5544, Note_off_c, 3, 77, 0
5, 5544, Note_on_c, 3, 79, 93
5, 5568, Note_off_c, 3, 79, 0
5, 5568, Note_on_c, 3, 76, 93
5, 5640, Note_off_c, 3, 76, 0
5, 5640, Note_on_c, 3, 77, 93
5, 5664, Note_off_c, 3, 77, 0
5, 5664, Note_on_c, 3, 79, 93
5, 5736, Note_off_c, 3, 79, 0
5, 5736, Note_on_c, 3, 76, 93
5, 5760, Note_off_c, 3, 76, 0
5, 5760, Note_on_c, 3, 77, 93
5, 5832, Note_off_c, 3, 77, 0
5, 6888, Note_on_c, 3, 57, 93
5, 6912, Note_off_c, 3, 57, 0
5, 6912, Note_on_c, 3, 62, 93
5, 6960, Note_off_c, 3, 62, 0
5, 7200, Note_on_c, 3, 62, 93
5, 7248, Note_off_c, 3, 62, 0
5, 7488, Note_on_c, 3, 62, 93
5, 7536, Note_off_c, 3, 62, 0
5, 8064, Note_on_c, 3, 62, 93
5, 8088, Note_off_c, 3, 62, 0
5, 26208, Note_on_c, 3, 70, 42
5, 26256, Note_off_c, 3, 70, 0
5, 26256, Note_on_c, 3, 69, 42
5, 26304, Note_off_c, 3, 69, 0
5, 26304, Note_on_c, 3, 67, 42
5, 26352, Note_off_c, 3, 67, 0
5, 26352, Note_on_c, 3, 65, 42
5, 26400, Note_off_c, 3, 65, 0
5, 26400, Note_on_c, 3, 64, 42
5, 26448, Note_off_c, 3, 64, 0
5, 26448, Note_on_c, 3, 64, 42
5, 26496, Note_off_c, 3, 64, 0
5, 26496, Note_on_c, 3, 65, 42
5, 26784, Note_off_c, 3, 65, 0
5, 26784, Note_on_c, 3, 66, 42
5, 27072, Note_off_c, 3, 66, 0
5, 27072, Note_on_c, 3, 67, 42
5, 27168, Note_off_c, 3, 67, 0
5, 27168, Note_on_c, 3, 65, 42
5, 27264, Note_off_c, 3, 65, 0
5, 27264, Note_on_c, 3, 64, 42
5, 27360, Note_off_c, 3, 64, 0
5, 27360, Note_on_c, 3, 65, 42
5, 27456, Note_off_c, 3, 65, 0
5, 27456, Note_on_c, 3, 64, 42
5, 27552, Note_off_c, 3, 64, 0
5, 27552, Note_on_c, 3, 67, 42
5, 27648, Note_off_c, 3, 67, 0
5, 27648, Note_on_c, 3, 65, 42
5, 27936, Note_off_c, 3, 65, 0
5, 27936, Note_on_c, 3, 66, 42
5, 28224, Note_off_c, 3, 66, 0
5, 28224, Note_on_c, 3, 67, 42
5, 28320, Note_off_c, 3, 67, 0
5, 28320, Note_on_c, 3, 73, 42
5, 28416, Note_off_c, 3, 73, 0
5, 28416, Note_on_c, 3, 74, 42
5, 28512, Note_off_c, 3, 74, 0
5, 28512, Note_on_c, 3, 74, 42
5, 28608, Note_off_c, 3, 74, 0
5, 28608, Note_on_c, 3, 76, 42
5, 28800, Note_off_c, 3, 76, 0
5, 28800, Note_on_c, 3, 77, 42
5, 29088, Note_off_c, 3, 77, 0
5, 29088, Note_on_c, 3, 78, 42
5, 29376, Note_off_c, 3, 78, 0
5, 29568, Note_on_c, 3, 69, 42
5, 29664, Note_off_c, 3, 69, 0
5, 29664, Note_on_c, 3, 69, 42
5, 29760, Note_off_c, 3, 69, 0
5, 30144, Note_on_c, 3, 69, 42
5, 30240, Note_off_c, 3, 69, 0
5, 30240, Note_on_c, 3, 67, 42
5, 30432, Note_off_c, 3, 67, 0
5, 30432, Note_on_c, 3, 65, 42
5, 30528, Note_off_c, 3, 65, 0
5, 30528, Note_on_c, 3, 65, 42
5, 30720, Note_off_c, 3, 65, 0
5, 30720, Note_on_c, 3, 67, 42
5, 30816, Note_off_c, 3, 67, 0
5, 30816, Note_on_c, 3, 69, 42
5, 30912, Note_off_c, 3, 69, 0
5, 30912, Note_on_c, 3, 64, 42
5, 31104, Note_off_c, 3, 64, 0
5, 31200, Note_on_c, 3, 69, 42
5, 31296, Note_off_c, 3, 69, 0
5, 33504, Note_on_c, 3, 57, 42
5, 33600, Note_off_c, 3, 57, 0
5, 33600, Note_on_c, 3, 59, 42
5, 33696, Note_off_c, 3, 59, 0
5, 33696, Note_on_c, 3, 60, 42
5, 33792, Note_off_c, 3, 60, 0
5, 33792, Note_on_c, 3, 55, 42
5, 33888, Note_off_c, 3, 55, 0
5, 33888, Note_on_c, 3, 57, 42
5, 33984, Note_off_c, 3, 57, 0
5, 33984, Note_on_c, 3, 58, 42
5, 34080, Note_off_c, 3, 58, 0
5, 34080, Note_on_c, 3, 58, 42
5, 34176, Note_off_c, 3, 58, 0
5, 34176, Note_on_c, 3, 57, 42
5, 34272, Note_off_c, 3, 57, 0
5, 34272, Note_on_c, 3, 56, 42
5, 34368, Note_off_c, 3, 56, 0
5, 34368, Note_on_c, 3, 57, 42
5, 34560, Note_off_c, 3, 57, 0
5, 36000, Note_on_c, 3, 62, 93
5, 36096, Note_off_c, 3, 62, 0
5, 36096, Note_on_c, 3, 61, 93
5, 36288, Note_off_c, 3, 61, 0
5, 36288, Note_on_c, 3, 62, 93
5, 36384, Note_off_c, 3, 62, 0
5, 36384, Note_on_c, 3, 58, 93
5, 36576, Note_off_c, 3, 58, 0
5, 36576, Note_on_c, 3, 55, 93
5, 36672, Note_off_c, 3, 55, 0
5, 36672, Note_on_c, 3, 57, 93
5, 36768, Note_off_c, 3, 57, 0
5, 36768, Note_on_c, 3, 57, 93
5, 36864, Note_off_c, 3, 57, 0
5, 36864, Note_on_c, 3, 62, 93
5, 36960, Note_off_c, 3, 62, 0
5, 36960, Note_on_c, 3, 62, 93
5, 37056, Note_off_c, 3, 62, 0
5, 37056, Note_on_c, 3, 60, 93
5, 37104, Note_off_c, 3, 60, 0
5, 37152, Note_on_c, 3, 59, 93
5, 37248, Note_off_c, 3, 59, 0
5, 37248, Note_on_c, 3, 60, 93
5, 37344, Note_off_c, 3, 60, 0
5, 37344, Note_on_c, 3, 58, 93
5, 37392, Note_off_c, 3, 58, 0
5, 37440, Note_on_c, 3, 57, 93
5, 37536, Note_off_c, 3, 57, 0
5, 37536, Note_on_c, 3, 58, 93
5, 37632, Note_off_c, 3, 58, 0
5, 37632, Note_on_c, 3, 57, 93
5, 37680, Note_off_c, 3, 57, 0
5, 37728, Note_on_c, 3, 56, 93
5, 37776, Note_off_c, 3, 56, 0
5, 37824, Note_on_c, 3, 57, 93
5, 38016, Note_off_c, 3, 57, 0
5, 39168, Note_on_c, 3, 66, 93
5, 39264, Note_off_c, 3, 66, 0
5, 39264, Note_on_c, 3, 66, 93
5, 39408, Note_off_c, 3, 66, 0
5, 40992, Note_on_c, 3, 71, 93
5, 41136, Note_off_c, 3, 71, 0
5, 42864, Note_on_c, 3, 71, 93
5, 42912, Note_off_c, 3, 71, 0
5, 42912, Note_on_c, 3, 73, 93
5, 42960, Note_off_c, 3, 73, 0
5, 43152, Note_on_c, 3, 73, 93
5, 43200, Note_off_c, 3, 73, 0
5, 43440, Note_on_c, 3, 56, 93
5, 43488, Note_off_c, 3, 56, 0
5, 43488, Note_on_c, 3, 57, 93
5, 43512, Note_off_c, 3, 57, 0
5, 48552, Note_on_c, 3, 74, 93
5, 48576, Note_off_c, 3, 74, 0
5, 48576, Note_on_c, 3, 74, 93
5, 48600, Note_off_c, 3, 74, 0
5, 48600, Note_on_c, 3, 69, 93
5, 48624, Note_off_c, 3, 69, 0
5, 48624, Note_on_c, 3, 69, 93
5, 48648, Note_off_c, 3, 69, 0
5, 48648, Note_on_c, 3, 74, 93
5, 48672, Note_off_c, 3, 74, 0
5, 48672, Note_on_c, 3, 73, 93
5, 48696, Note_off_c, 3, 73, 0
5, 48840, Note_on_c, 3, 73, 93
5, 48864, Note_off_c, 3, 73, 0
5, 48864, Note_on_c, 3, 73, 93
5, 48888, Note_off_c, 3, 73, 0
5, 48888, Note_on_c, 3, 69, 93
5, 48912, Note_off_c, 3, 69, 0
5, 48912, Note_on_c, 3, 69, 93
5, 48936, Note_off_c, 3, 69, 0
5, 48936, Note_on_c, 3, 73, 93
5, 48960, Note_off_c, 3, 73, 0
5, 48960, Note_on_c, 3, 68, 93
5, 48984, Note_off_c, 3, 68, 0
5, 49368, Note_on_c, 3, 69, 93
5, 49392, Note_off_c, 3, 69, 0
5, 49392, Note_on_c, 3, 69, 93
5, 49416, Note_off_c, 3, 69, 0
5, 49416, Note_on_c, 3, 69, 93
5, 49440, Note_off_c, 3, 69, 0
5, 49440, Note_on_c, 3, 71, 93
5, 49464, Note_off_c, 3, 71, 0
5, 49464, Note_on_c, 3, 71, 93
5, 49488, Note_off_c, 3, 71, 0
5, 49488, Note_on_c, 3, 73, 93
5, 49512, Note_off_c, 3, 73, 0
5, 49512, Note_on_c, 3, 73, 93
5, 49536, Note_off_c, 3, 73, 0
5, 49536, Note_on_c, 3, 74, 93
5, 49560, Note_off_c, 3, 74, 0
5, 49656, Note_on_c, 3, 69, 93
5, 49680, Note_off_c, 3, 69, 0
5, 49680, Note_on_c, 3, 69, 93
5, 49704, Note_off_c, 3, 69, 0
5, 49704, Note_on_c, 3, 69, 93
5, 49728, Note_off_c, 3, 69, 0
5, 49728, Note_on_c, 3, 69, 93
5, 49752, Note_off_c, 3, 69, 0
5, 49752, Note_on_c, 3, 67, 93
5, 49776, Note_off_c, 3, 67, 0
5, 49776, Note_on_c, 3, 67, 93
5, 49800, Note_off_c, 3, 67, 0
5, 49800, Note_on_c, 3, 67, 93
5, 49824, Note_off_c, 3, 67, 0
5, 49824, Note_on_c, 3, 66, 93
5, 49848, Note_off_c, 3, 66, 0
5, 49848, Note_on_c, 3, 62, 93
5, 49872, Note_off_c, 3, 62, 0
5, 49872, Note_on_c, 3, 62, 93
5, 49896, Note_off_c, 3, 62, 0
5, 49896, Note_on_c, 3, 62, 93
5, 49920, Note_off_c, 3, 62, 0
5, 49920, Note_on_c, 3, 62, 93
5, 49944, Note_off_c, 3, 62, 0
5, 50136, Note_on_c, 3, 62, 93
5, 50160, Note_off_c, 3, 62, 0
5, 50160, Note_on_c, 3, 62, 93
5, 50184, Note_off_c, 3, 62, 0
5, 50184, Note_on_c, 3, 62, 93
5, 50208, Note_off_c, 3, 62, 0
5, 50208, Note_on_c, 3, 62, 93
5, 50232, Note_off_c, 3, 62, 0
5, 50520, Note_on_c, 3, 66, 93
5, 50544, Note_off_c, 3, 66, 0
5, 50544, Note_on_c, 3, 66, 93
5, 50568, Note_off_c, 3, 66, 0
5, 50568, Note_on_c, 3, 66, 93
5, 50592, Note_off_c, 3, 66, 0
5, 50592, Note_on_c, 3, 67, 93
5, 50616, Note_off_c, 3, 67, 0
5, 50616, Note_on_c, 3, 69, 93
5, 50640, Note_off_c, 3, 69, 0
5, 50640, Note_on_c, 3, 69, 93
5, 50664, Note_off_c, 3, 69, 0
5, 50664, Note_on_c, 3, 69, 93
5, 50688, Note_off_c, 3, 69, 0
5, 50688, Note_on_c, 3, 62, 93
5, 50784, Note_off_c, 3, 62, 0
5, 52512, Note_on_c, 3, 55, 93
5, 52560, Note_off_c, 3, 55, 0
5, 52800, Note_on_c, 3, 57, 93
5, 52992, Note_off_c, 3, 57, 0
5, 52992, Note_on_c, 3, 57, 93
5, 53088, Note_off_c, 3, 57, 0
5, 53088, Note_on_c, 3, 62, 93
5, 53232, Note_off_c, 3, 62, 0
5, 53232, Note_on_c, 3, 62, 93
5, 53280, Note_off_c, 3, 62, 0
5, 53280, Note_on_c, 3, 60, 93
5, 53376, Note_off_c, 3, 60, 0
5, 53376, Note_on_c, 3, 60, 93
5, 53568, Note_off_c, 3, 60, 0
5, 53568, Note_on_c, 3, 59, 93
5, 53664, Note_off_c, 3, 59, 0
5, 53664, Note_on_c, 3, 64, 93
5, 53856, Note_off_c, 3, 64, 0
5, 53856, Note_on_c, 3, 57, 93
5, 53952, Note_off_c, 3, 57, 0
5, 54240, Note_on_c, 3, 69, 93
5, 54384, Note_off_c, 3, 69, 0
5, 54384, Note_on_c, 3, 69, 93
5, 54432, Note_off_c, 3, 69, 0
5, 54432, Note_on_c, 3, 69, 93
5, 54528, Note_off_c, 3, 69, 0
5, 54528, Note_on_c, 3, 69, 93
5, 54672, Note_off_c, 3, 69, 0
5, 54672, Note_on_c, 3, 69, 93
5, 54720, Note_off_c, 3, 69, 0
5, 54720, Note_on_c, 3, 67, 93
5, 54816, Note_off_c, 3, 67, 0
5, 54816, Note_on_c, 3, 67, 93
5, 54960, Note_off_c, 3, 67, 0
5, 54960, Note_on_c, 3, 67, 93
5, 55008, Note_off_c, 3, 67, 0
5, 55008, Note_on_c, 3, 66, 93
5, 55104, Note_off_c, 3, 66, 0
5, 55104, Note_on_c, 3, 64, 93
5, 55152, Note_off_c, 3, 64, 0
5, 55152, Note_on_c, 3, 66, 93
5, 55200, Note_off_c, 3, 66, 0
5, 55200, Note_on_c, 3, 67, 93
5, 55296, Note_off_c, 3, 67, 0
5, 55296, Note_on_c, 3, 66, 93
5, 55344, Note_off_c, 3, 66, 0
5, 55344, Note_on_c, 3, 64, 93
5, 55392, Note_off_c, 3, 64, 0
5, 55392, Note_on_c, 3, 62, 93
5, 55536, Note_off_c, 3, 62, 0
5, 55536, Note_on_c, 3, 62, 93
5, 55584, Note_off_c, 3, 62, 0
5, 55584, Note_on_c, 3, 64, 93
5, 55680, Note_off_c, 3, 64, 0
5, 55680, Note_on_c, 3, 66, 93
5, 55824, Note_off_c, 3, 66, 0
5, 55824, Note_on_c, 3, 66, 93
5, 55872, Note_off_c, 3, 66, 0
5, 55872, Note_on_c, 3, 67, 93
5, 55968, Note_off_c, 3, 67, 0
5, 55968, Note_on_c, 3, 68, 93
5, 56112, Note_off_c, 3, 68, 0
5, 56112, Note_on_c, 3, 68, 93
5, 56160, Note_off_c, 3, 68, 0
5, 56160, Note_on_c, 3, 69, 93
5, 56256, Note_off_c, 3, 69, 0
5, 56256, Note_on_c, 3, 69, 93
5, 56448, Note_off_c, 3, 69, 0
5, 57024, Note_on_c, 3, 67, 93
5, 57120, Note_off_c, 3, 67, 0
5, 57120, Note_on_c, 3, 68, 93
5, 57264, Note_off_c, 3, 68, 0
5, 57264, Note_on_c, 3, 68, 93
5, 57312, Note_off_c, 3, 68, 0
5, 57312, Note_on_c, 3, 69, 93
5, 57408, Note_off_c, 3, 69, 0
5, 57408, Note_on_c, 3, 64, 93
5, 57552, Note_off_c, 3, 64, 0
5, 57552, Note_on_c, 3, 64, 93
5, 57600, Note_off_c, 3, 64, 0
5, 57600, Note_on_c, 3, 62, 93
5, 57696, Note_off_c, 3, 62, 0
5, 57696, Note_on_c, 3, 62, 42
5, 57792, Note_off_c, 3, 62, 0
5, 57792, Note_on_c, 3, 62, 42
5, 57888, Note_off_c, 3, 62, 0
5, 57888, Note_on_c, 3, 62, 42
5, 57984, Note_off_c, 3, 62, 0
5, 57984, Note_on_c, 3, 62, 42
5, 58080, Note_off_c, 3, 62, 0
5, 58080, Note_on_c, 3, 62, 42
5, 58176, Note_off_c, 3, 62, 0
5, 58176, Note_on_c, 3, 62, 42
5, 58272, Note_off_c, 3, 62, 0
5, 58272, Note_on_c, 3, 64, 42
5, 58368, Note_off_c, 3, 64, 0
5, 58368, Note_on_c, 3, 64, 42
5, 58464, Note_off_c, 3, 64, 0
5, 58464, Note_on_c, 3, 64, 42
5, 58560, Note_off_c, 3, 64, 0
5, 58560, Note_on_c, 3, 64, 42
5, 58656, Note_off_c, 3, 64, 0
5, 58656, Note_on_c, 3, 64, 42
5, 58752, Note_off_c, 3, 64, 0
5, 58752, Note_on_c, 3, 62, 42
5, 58848, Note_off_c, 3, 62, 0
5, 58848, Note_on_c, 3, 62, 42
5, 58944, Note_off_c, 3, 62, 0
5, 58944, Note_on_c, 3, 62, 42
5, 59040, Note_off_c, 3, 62, 0
5, 59040, Note_on_c, 3, 62, 42
5, 59136, Note_off_c, 3, 62, 0
5, 59136, Note_on_c, 3, 64, 42
5, 59232, Note_off_c, 3, 64, 0
5, 59232, Note_on_c, 3, 64, 42
5, 59328, Note_off_c, 3, 64, 0
5, 59328, Note_on_c, 3, 64, 42
5, 59424, Note_off_c, 3, 64, 0
5, 59424, Note_on_c, 3, 64, 42
5, 59472, Note_off_c, 3, 64, 0
5, 59472, Note_on_c, 3, 66, 42
5, 59520, Note_off_c, 3, 66, 0
5, 59520, Note_on_c, 3, 67, 42
5, 59616, Note_off_c, 3, 67, 0
5, 59616, Note_on_c, 3, 66, 93
5, 59664, Note_off_c, 3, 66, 0
5, 59664, Note_on_c, 3, 64, 93
5, 59712, Note_off_c, 3, 64, 0
5, 59712, Note_on_c, 3, 64, 93
5, 59904, Note_off_c, 3, 64, 0
5, 60000, Note_on_c, 3, 65, 93
5, 60192, Note_off_c, 3, 65, 0
5, 60192, Note_on_c, 3, 60, 93
5, 60264, Note_off_c, 3, 60, 0
5, 60432, Note_on_c, 3, 60, 93
5, 60480, Note_off_c, 3, 60, 0
5, 60480, Note_on_c, 3, 58, 93
5, 60552, Note_off_c, 3, 58, 0
5, 60720, Note_on_c, 3, 58, 93
5, 60768, Note_off_c, 3, 58, 0
5, 60768, Note_on_c, 3, 57, 93
5, 60840, Note_off_c, 3, 57, 0
5, 61008, Note_on_c, 3, 61, 93
5, 61056, Note_off_c, 3, 61, 0
5, 61344, Note_on_c, 3, 55, 93
5, 61416, Note_off_c, 3, 55, 0
5, 69168, Note_on_c, 3, 62, 93
5, 69186, Note_off_c, 3, 62, 0
5, 69186, Note_on_c, 3, 65, 93
5, 69198, Note_off_c, 3, 65, 0
5, 69198, Note_on_c, 3, 69, 93
5, 69216, Note_off_c, 3, 69, 0
5, 69216, Note_on_c, 3, 65, 93
5, 69234, Note_off_c, 3, 65, 0
5, 69234, Note_on_c, 3, 69, 93
5, 69246, Note_off_c, 3, 69, 0
5, 69246, Note_on_c, 3, 74, 93
5, 69264, Note_off_c, 3, 74, 0
5, 69264, Note_on_c, 3, 69, 93
5, 69282, Note_off_c, 3, 69, 0
5, 69282, Note_on_c, 3, 74, 93
5, 69294, Note_off_c, 3, 74, 0
5, 69294, Note_on_c, 3, 77, 93
5, 69312, Note_off_c, 3, 77, 0
5, 69312, Note_on_c, 3, 70, 93
5, 69330, Note_off_c, 3, 70, 0
5, 69330, Note_on_c, 3, 74, 93
5, 69342, Note_off_c, 3, 74, 0
5, 69342, Note_on_c, 3, 79, 93
5, 69360, Note_off_c, 3, 79, 0
5, 69360, Note_on_c, 3, 67, 93
5, 69378, Note_off_c, 3, 67, 0
5, 69378, Note_on_c, 3, 74, 93
5, 69390, Note_off_c, 3, 74, 0
5, 69390, Note_on_c, 3, 82, 93
5, 69408, Note_off_c, 3, 82, 0
5, 69408, Note_on_c, 3, 64, 93
5, 69426, Note_off_c, 3, 64, 0
5, 69426, Note_on_c, 3, 72, 93
5, 69438, Note_off_c, 3, 72, 0
5, 69438, Note_on_c, 3, 82, 93
5, 69456, Note_off_c, 3, 82, 0
5, 70272, Note_on_c, 3, 62, 93
5, 70290, Note_off_c, 3, 62, 0
5, 70290, Note_on_c, 3, 81, 93
5, 70302, Note_off_c, 3, 81, 0
5, 70302, Note_on_c, 3, 79, 93
5, 70320, Note_off_c, 3, 79, 0
5, 70320, Note_on_c, 3, 77, 93
5, 70338, Note_off_c, 3, 77, 0
5, 70338, Note_on_c, 3, 77, 93
5, 70350, Note_off_c, 3, 77, 0
5, 70350, Note_on_c, 3, 76, 93
5, 70368, Note_off_c, 3, 76, 0
5, 70368, Note_on_c, 3, 74, 93
5, 70386, Note_off_c, 3, 74, 0
5, 70386, Note_on_c, 3, 74, 93
5, 70398, Note_off_c, 3, 74, 0
5, 70398, Note_on_c, 3, 72, 93
5, 70416, Note_off_c, 3, 72, 0
5, 70416, Note_on_c, 3, 70, 93
5, 70434, Note_off_c, 3, 70, 0
5, 70434, Note_on_c, 3, 70, 93
5, 70446, Note_off_c, 3, 70, 0
5, 70446, Note_on_c, 3, 69, 93
5, 70464, Note_off_c, 3, 69, 0
5, 70464, Note_on_c, 3, 67, 93
5, 70482, Note_off_c, 3, 67, 0
5, 70482, Note_on_c, 3, 70, 93
5, 70494, Note_off_c, 3, 70, 0
5, 70494, Note_on_c, 3, 72, 93
5, 70512, Note_off_c, 3, 72, 0
5, 70512, Note_on_c, 3, 74, 93
5, 70530, Note_off_c, 3, 74, 0
5, 70530, Note_on_c, 3, 76, 93
5, 70542, Note_off_c, 3, 76, 0
5, 70542, Note_on_c, 3, 77, 93
5, 70560, Note_off_c, 3, 77, 0
5, 71520, Note_on_c, 3, 62, 93
5, 71712, Note_off_c, 3, 62, 0
5, 71712, Note_on_c, 3, 67, 93
5, 71808, Note_off_c, 3, 67, 0
5, 71808, Note_on_c, 3, 67, 93
5, 72000, Note_off_c, 3, 67, 0
5, 72000, Note_on_c, 3, 65, 93
5, 72096, Note_off_c, 3, 65, 0
5, 72672, Note_on_c, 3, 65, 93
5, 72768, Note_off_c, 3, 65, 0
5, 72768, Note_on_c, 3, 66, 93
5, 72864, Note_off_c, 3, 66, 0
5, 72864, Note_on_c, 3, 67, 93
5, 72960, Note_off_c, 3, 67, 0
5, 72960, Note_on_c, 3, 66, 93
5, 73056, Note_off_c, 3, 66, 0
5, 73056, Note_on_c, 3, 67, 93
5, 73152, Note_off_c, 3, 67, 0
5, 73344, Note_on_c, 3, 62, 93
5, 73440, Note_off_c, 3, 62, 0
5, 73440, Note_on_c, 3, 55, 93
5, 73536, Note_off_c, 3, 55, 0
5, 73536, Note_on_c, 3, 57, 93
5, 73728, Note_off_c, 3, 57, 0
5, 73728, Note_on_c, 3, 62, 93
5, 74016, Note_off_c, 3, 62, 0
5, 74016, End_track
6, 0, Start_track
6, 0, Title_t, "Track6"
6, 0, Program_c, 4, 40
6, 0, Control_c, 4, 7, 100
6, 0, Control_c, 4, 10, 64
6, 25344, Note_on_c, 4, 65, 93
6, 25356, Note_off_c, 4, 65, 0
6, 25356, Note_on_c, 4, 62, 93
6, 25368, Note_off_c, 4, 62, 0
6, 25368, Note_on_c, 4, 81, 93
6, 25380, Note_off_c, 4, 81, 0
6, 25380, Note_on_c, 4, 62, 93
6, 25392, Note_off_c, 4, 62, 0
6, 25392, Note_on_c, 4, 65, 93
6, 25404, Note_off_c, 4, 65, 0
6, 25404, Note_on_c, 4, 62, 93
6, 25416, Note_off_c, 4, 62, 0
6, 25416, Note_on_c, 4, 81, 93
6, 25428, Note_off_c, 4, 81, 0
6, 25428, Note_on_c, 4, 62, 93
6, 25440, Note_off_c, 4, 62, 0
6, 25440, Note_on_c, 4, 65, 93
6, 25452, Note_off_c, 4, 65, 0
6, 25452, Note_on_c, 4, 62, 93
6, 25464, Note_off_c, 4, 62, 0
6, 25464, Note_on_c, 4, 81, 93
6, 25476, Note_off_c, 4, 81, 0
6, 25476, Note_on_c, 4, 62, 93
6, 25488, Note_off_c, 4, 62, 0
6, 25488, Note_on_c, 4, 65, 93
6, 25500, Note_off_c, 4, 65, 0
6, 25500, Note_on_c, 4, 62, 93
6, 25512, Note_off_c, 4, 62, 0
6, 25512, Note_on_c, 4, 81, 93
6, 25524, Note_off_c, 4, 81, 0
6, 25524, Note_on_c, 4, 62, 93
6, 25536, Note_off_c, 4, 62, 0
6, 25536, Note_on_c, 4, 65, 93
6, 25548, Note_off_c, 4, 65, 0
6, 25548, Note_on_c, 4, 62, 93
6, 25560, Note_off_c, 4, 62, 0
6, 25560, Note_on_c, 4, 81, 93
6, 25572, Note_off_c, 4, 81, 0
6, 25572, Note_on_c, 4, 62, 93
6, 25584, Note_off_c, 4, 62, 0
6, 25584, Note_on_c, 4, 65, 93
6, 25596, Note_off_c, 4, 65, 0
6, 25596, Note_on_c, 4, 62, 93
6, 25608, Note_off_c, 4, 62, 0
6, 25608, Note_on_c, 4, 81, 93
6, 25620, Note_off_c, 4, 81, 0
6, 25620, Note_on_c, 4, 62, 93
6, 25632, Note_off_c, 4, 62, 0
6, 25632, Note_on_c, 4, 64, 93
6, 25644, Note_off_c, 4, 64, 0
6, 25644, Note_on_c, 4, 62, 93
6, 25656, Note_off_c, 4, 62, 0
6, 25656, Note_on_c, 4, 79, 93
6, 25668, Note_off_c, 4, 79, 0
6, 25668, Note_on_c, 4, 62, 93
6, 25680, Note_off_c, 4, 62, 0
6, 25680, Note_on_c, 4, 64, 93
6, 25692, Note_off_c, 4, 64, 0
6, 25692, Note_on_c, 4, 62, 93
6, 25704, Note_off_c, 4, 62, 0
6, 25704, Note_on_c, 4, 79, 93
6, 25716, Note_off_c, 4, 79, 0
6, 25716, Note_on_c, 4, 62, 93
6, 25728, Note_off_c, 4, 62, 0
6, 25728, Note_on_c, 4, 64, 93
6, 25740, Note_off_c, 4, 64, 0
6, 25740, Note_on_c, 4, 62, 93
6, 25752, Note_off_c, 4, 62, 0
6, 25752, Note_on_c, 4, 79, 93
6, 25764, Note_off_c, 4, 79, 0
6, 25764, Note_on_c, 4, 62, 93
6, 25776, Note_off_c, 4, 62, 0
6, 25776, Note_on_c, 4, 64, 93
6, 25788, Note_off_c, 4, 64, 0
6, 25788, Note_on_c, 4, 62, 93
6, 25800, Note_off_c, 4, 62, 0
6, 25800, Note_on_c, 4, 79, 93
6, 25812, Note_off_c, 4, 79, 0
6, 25812, Note_on_c, 4, 62, 93
6, 25824, Note_off_c, 4, 62, 0
6, 25824, Note_on_c, 4, 64, 93
6, 25836, Note_off_c, 4, 64, 0
6, 25836, Note_on_c, 4, 73, 93
6, 25848, Note_off_c, 4, 73, 0
6, 25848, Note_on_c, 4, 79, 93
6, 25860, Note_off_c, 4, 79, 0
6, 25860, Note_on_c, 4, 73, 93
6, 25872, Note_off_c, 4, 73, 0
6, 25872, Note_on_c, 4, 64, 93
6, 25884, Note_off_c, 4, 64, 0
6, 25884, Note_on_c, 4, 73, 93
6, 25896, Note_off_c, 4, 73, 0
6, 25896, Note_on_c, 4, 79, 93
6, 25908, Note_off_c, 4, 79, 0
6, 25908, Note_on_c, 4, 73, 93
6, 25920, Note_off_c, 4, 73, 0
6, 25920, Note_on_c, 4, 62, 93
6, 25932, Note_off_c, 4, 62, 0
6, 25932, Note_on_c, 4, 62, 93
6, 25944, Note_off_c, 4, 62, 0
6, 25944, Note_on_c, 4, 77, 93
6, 25956, Note_off_c, 4, 77, 0
6, 25956, Note_on_c, 4, 62, 93
6, 25968, Note_off_c, 4, 62, 0
6, 25968, Note_on_c, 4, 62, 93
6, 25980, Note_off_c, 4, 62, 0
6, 25980, Note_on_c, 4, 62, 93
6, 25992, Note_off_c, 4, 62, 0
6, 25992, Note_on_c, 4, 77, 93
6, 26004, Note_off_c, 4, 77, 0
6, 26004, Note_on_c, 4, 62, 93
6, 26016, Note_off_c, 4, 62, 0
6, 26016, Note_on_c, 4, 62, 93
6, 26028, Note_off_c, 4, 62, 0
6, 26028, Note_on_c, 4, 62, 93
6, 26040, Note_off_c, 4, 62, 0
6, 26040, Note_on_c, 4, 77, 93
6, 26052, Note_off_c, 4, 77, 0
6, 26052, Note_on_c, 4, 62, 93
6, 26064, Note_off_c, 4, 62, 0
6, 26064, Note_on_c, 4, 62, 93
6, 26076, Note_off_c, 4, 62, 0
6, 26076, Note_on_c, 4, 62, 93
6, 26088, Note_off_c, 4, 62, 0
6, 26088, Note_on_c, 4, 77, 93
6, 26100, Note_off_c, 4, 77, 0
6, 26100, Note_on_c, 4, 62, 93
6, 26112, Note_off_c, 4, 62, 0
6, 26112, Note_on_c, 4, 62, 93
6, 26124, Note_off_c, 4, 62, 0
6, 26124, Note_on_c, 4, 69, 93
6, 26136, Note_off_c, 4, 69, 0
6, 26136, Note_on_c, 4, 77, 93
6, 26148, Note_off_c, 4, 77, 0
6, 26148, Note_on_c, 4, 69, 93
6, 26160, Note_off_c, 4, 69, 0
6, 26160, Note_on_c, 4, 62, 93
6, 26172, Note_off_c, 4, 62, 0
6, 26172, Note_on_c, 4, 69, 93
6, 26184, Note_off_c, 4, 69, 0
6, 26184, Note_on_c, 4, 77, 93
6, 26196, Note_off_c, 4, 77, 0
6, 26196, Note_on_c, 4, 69, 93
6, 26208, Note_off_c, 4, 69, 0
6, 26208, Note_on_c, 4, 55, 93
6, 26220, Note_off_c, 4, 55, 0
6, 26220, Note_on_c, 4, 70, 93
6, 26232, Note_off_c, 4, 70, 0
6, 26232, Note_on_c, 4, 76, 93
6, 26244, Note_off_c, 4, 76, 0
6, 26244, Note_on_c, 4, 70, 93
6, 26256, Note_off_c, 4, 70, 0
6, 26256, Note_on_c, 4, 55, 93
6, 26268, Note_off_c, 4, 55, 0
6, 26268, Note_on_c, 4, 69, 93
6, 26280, Note_off_c, 4, 69, 0
6, 26280, Note_on_c, 4, 77, 93
6, 26292, Note_off_c, 4, 77, 0
6, 26292, Note_on_c, 4, 69, 93
6, 26304, Note_off_c, 4, 69, 0
6, 26304, Note_on_c, 4, 55, 93
6, 26316, Note_off_c, 4, 55, 0
6, 26316, Note_on_c, 4, 67, 93
6, 26328, Note_off_c, 4, 67, 0
6, 26328, Note_on_c, 4, 76, 93
6, 26340, Note_off_c, 4, 76, 0
6, 26340, Note_on_c, 4, 67, 93
6, 26352, Note_off_c, 4, 67, 0
6, 26352, Note_on_c, 4, 55, 93
6, 26364, Note_off_c, 4, 55, 0
6, 26364, Note_on_c, 4, 65, 93
6, 26376, Note_off_c, 4, 65, 0
6, 26376, Note_on_c, 4, 74, 93
6, 26388, Note_off_c, 4, 74, 0
6, 26388, Note_on_c, 4, 65, 93
6, 26400, Note_off_c, 4, 65, 0
6, 26400, Note_on_c, 4, 57, 93
6, 26412, Note_off_c, 4, 57, 0
6, 26412, Note_on_c, 4, 64, 93
6, 26424, Note_off_c, 4, 64, 0
6, 26424, Note_on_c, 4, 74, 93
6, 26436, Note_off_c, 4, 74, 0
6, 26436, Note_on_c, 4, 64, 93
6, 26448, Note_off_c, 4, 64, 0
6, 26448, Note_on_c, 4, 57, 93
6, 26460, Note_off_c, 4, 57, 0
6, 26460, Note_on_c, 4, 64, 93
6, 26472, Note_off_c, 4, 64, 0
6, 26472, Note_on_c, 4, 73, 93
6, 26484, Note_off_c, 4, 73, 0
6, 26484, Note_on_c, 4, 64, 93
6, 26496, Note_off_c, 4, 64, 0
6, 26496, Note_on_c, 4, 62, 93
6, 26508, Note_off_c, 4, 62, 0
6, 26508, Note_on_c, 4, 65, 93
6, 26520, Note_off_c, 4, 65, 0
6, 26520, Note_on_c, 4, 74, 93
6, 26532, Note_off_c, 4, 74, 0
6, 26532, Note_on_c, 4, 65, 93
6, 26544, Note_off_c, 4, 65, 0
6, 26544, Note_on_c, 4, 62, 93
6, 26556, Note_off_c, 4, 62, 0
6, 26556, Note_on_c, 4, 65, 93
6, 26568, Note_off_c, 4, 65, 0
6, 26568, Note_on_c, 4, 74, 93
6, 26580, Note_off_c, 4, 74, 0
6, 26580, Note_on_c, 4, 65, 93
6, 26592, Note_off_c, 4, 65, 0
6, 26592, Note_on_c, 4, 57, 93
6, 26604, Note_off_c, 4, 57, 0
6, 26604, Note_on_c, 4, 65, 93
6, 26616, Note_off_c, 4, 65, 0
6, 26616, Note_on_c, 4, 74, 93
6, 26628, Note_off_c, 4, 74, 0
6, 26628, Note_on_c, 4, 65, 93
6, 26640, Note_off_c, 4, 65, 0
6, 26640, Note_on_c, 4, 57, 93
6, 26652, Note_off_c, 4, 57, 0
6, 26652, Note_on_c, 4, 65, 93
6, 26664, Note_off_c, 4, 65, 0
6, 26664, Note_on_c, 4, 74, 93
6, 26676, Note_off_c, 4, 74, 0
6, 26676, Note_on_c, 4, 65, 93
6, 26688, Note_off_c, 4, 65, 0
6, 26688, Note_on_c, 4, 58, 93
6, 26700, Note_off_c, 4, 58, 0
6, 26700, Note_on_c, 4, 65, 93
6, 26712, Note_off_c, 4, 65, 0
6, 26712, Note_on_c, 4, 74, 93
6, 26724, Note_off_c, 4, 74, 0
6, 26724, Note_on_c, 4, 65, 93
6, 26736, Note_off_c, 4, 65, 0
6, 26736, Note_on_c, 4, 58, 93
6, 26748, Note_off_c, 4, 58, 0
6, 26748, Note_on_c, 4, 65, 93
6, 26760, Note_off_c, 4, 65, 0
6, 26760, Note_on_c, 4, 74, 93
6, 26772, Note_off_c, 4, 74, 0
6, 26772, Note_on_c, 4, 65, 93
6, 26784, Note_off_c, 4, 65, 0
6, 26784, Note_on_c, 4, 60, 93
6, 26796, Note_off_c, 4, 60, 0
6, 26796, Note_on_c, 4, 66, 93
6, 26808, Note_off_c, 4, 66, 0
6, 26808, Note_on_c, 4, 75, 93
6, 26820, Note_off_c, 4, 75, 0
6, 26820, Note_on_c, 4, 66, 93
6, 26832, Note_off_c, 4, 66, 0
6, 26832, Note_on_c, 4, 60, 93
6, 26844, Note_off_c, 4, 60, 0
6, 26844, Note_on_c, 4, 66, 93
6, 26856, Note_off_c, 4, 66, 0
6, 26856, Note_on_c, 4, 75, 93
6, 26868, Note_off_c, 4, 75, 0
6, 26868, Note_on_c, 4, 66, 93
6, 26880, Note_off_c, 4, 66, 0
6, 26880, Note_on_c, 4, 58, 93
6, 26892, Note_off_c, 4, 58, 0
6, 26892, Note_on_c, 4, 66, 93
6, 26904, Note_off_c, 4, 66, 0
6, 26904, Note_on_c, 4, 75, 93
6, 26916, Note_off_c, 4, 75, 0
6, 26916, Note_on_c, 4, 66, 93
6, 26928, Note_off_c, 4, 66, 0
6, 26928, Note_on_c, 4, 58, 93
6, 26940, Note_off_c, 4, 58, 0
6, 26940, Note_on_c, 4, 66, 93
6, 26952, Note_off_c, 4, 66, 0
6, 26952, Note_on_c, 4, 75, 93
6, 26964, Note_off_c, 4, 75, 0
6, 26964, Note_on_c, 4, 66, 93
6, 26976, Note_off_c, 4, 66, 0
6, 26976, Note_on_c, 4, 57, 93
6, 26988, Note_off_c, 4, 57, 0
6, 26988, Note_on_c, 4, 66, 93
6, 27000, Note_off_c, 4, 66, 0
6, 27000, Note_on_c, 4, 75, 93
6, 27012, Note_off_c, 4, 75, 0
6, 27012, Note_on_c, 4, 66, 93
6, 27024, Note_off_c, 4, 66, 0
6, 27024, Note_on_c, 4, 57, 93
6, 27036, Note_off_c, 4, 57, 0
6, 27036, Note_on_c, 4, 66, 93
6, 27048, Note_off_c, 4, 66, 0
6, 27048, Note_on_c, 4, 75, 93
6, 27060, Note_off_c, 4, 75, 0
6, 27060, Note_on_c, 4, 66, 93
6, 27072, Note_off_c, 4, 66, 0
6, 27072, Note_on_c, 4, 58, 93
6, 27084, Note_off_c, 4, 58, 0
6, 27084, Note_on_c, 4, 67, 93
6, 27096, Note_off_c, 4, 67, 0
6, 27096, Note_on_c, 4, 74, 93
6, 27108, Note_off_c, 4, 74, 0
6, 27108, Note_on_c, 4, 67, 93
6, 27120, Note_off_c, 4, 67, 0
6, 27120, Note_on_c, 4, 58, 93
6, 27132, Note_off_c, 4, 58, 0
6, 27132, Note_on_c, 4, 67, 93
6, 27144, Note_off_c, 4, 67, 0
6, 27144, Note_on_c, 4, 74, 93
6, 27156, Note_off_c, 4, 74, 0
6, 27156, Note_on_c, 4, 67, 93
6, 27168, Note_off_c, 4, 67, 0
6, 27168, Note_on_c, 4, 57, 93
6, 27180, Note_off_c, 4, 57, 0
6, 27180, Note_on_c, 4, 65, 93
6, 27192, Note_off_c, 4, 65, 0
6, 27192, Note_on_c, 4, 74, 93
6, 27204, Note_off_c, 4, 74, 0
6, 27204, Note_on_c, 4, 65, 93
6, 27216, Note_off_c, 4, 65, 0
6, 27216, Note_on_c, 4, 57, 93
6, 27228, Note_off_c, 4, 57, 0
6, 27228, Note_on_c, 4, 65, 93
6, 27240, Note_off_c, 4, 65, 0
6, 27240, Note_on_c, 4, 74, 93
6, 27252, Note_off_c, 4, 74, 0
6, 27252, Note_on_c, 4, 65, 93
6, 27264, Note_off_c, 4, 65, 0
6, 27264, Note_on_c, 4, 55, 93
6, 27276, Note_off_c, 4, 55, 0
6, 27276, Note_on_c, 4, 64, 93
6, 27288, Note_off_c, 4, 64, 0
6, 27288, Note_on_c, 4, 74, 93
6, 27300, Note_off_c, 4, 74, 0
6, 27300, Note_on_c, 4, 64, 93
6, 27312, Note_off_c, 4, 64, 0
6, 27312, Note_on_c, 4, 55, 93
6, 27324, Note_off_c, 4, 55, 0
6, 27324, Note_on_c, 4, 64, 93
6, 27336, Note_off_c, 4, 64, 0
6, 27336, Note_on_c, 4, 74, 93
6, 27348, Note_off_c, 4, 74, 0
6, 27348, Note_on_c, 4, 64, 93
6, 27360, Note_off_c, 4, 64, 0
6, 27360, Note_on_c, 4, 57, 93
6, 27372, Note_off_c, 4, 57, 0
6, 27372, Note_on_c, 4, 65, 93
6, 27384, Note_off_c, 4, 65, 0
6, 27384, Note_on_c, 4, 74, 93
6, 27396, Note_off_c, 4, 74, 0
6, 27396, Note_on_c, 4, 65, 93
6, 27408, Note_off_c, 4, 65, 0
6, 27408, Note_on_c, 4, 57, 93
6, 27420, Note_off_c, 4, 57, 0
6, 27420, Note_on_c, 4, 65, 93
6, 27432, Note_off_c, 4, 65, 0
6, 27432, Note_on_c, 4, 74, 93
6, 27444, Note_off_c, 4, 74, 0
6, 27444, Note_on_c, 4, 65, 93
6, 27456, Note_off_c, 4, 65, 0
6, 27456, Note_on_c, 4, 57, 93
6, 27468, Note_off_c, 4, 57, 0
6, 27468, Note_on_c, 4, 64, 93
6, 27480, Note_off_c, 4, 64, 0
6, 27480, Note_on_c, 4, 74, 93
6, 27492, Note_off_c, 4, 74, 0
6, 27492, Note_on_c, 4, 64, 93
6, 27504, Note_off_c, 4, 64, 0
6, 27504, Note_on_c, 4, 57, 93
6, 27516, Note_off_c, 4, 57, 0
6, 27516, Note_on_c, 4, 64, 93
6, 27528, Note_off_c, 4, 64, 0
6, 27528, Note_on_c, 4, 74, 93
6, 27540, Note_off_c, 4, 74, 0
6, 27540, Note_on_c, 4, 64, 93
6, 27552, Note_off_c, 4, 64, 0
6, 27552, Note_on_c, 4, 57, 93
6, 27564, Note_off_c, 4, 57, 0
6, 27564, Note_on_c, 4, 67, 93
6, 27576, Note_off_c, 4, 67, 0
6, 27576, Note_on_c, 4, 73, 93
6, 27588, Note_off_c, 4, 73, 0
6, 27588, Note_on_c, 4, 67, 93
6, 27600, Note_off_c, 4, 67, 0
6, 27600, Note_on_c, 4, 57, 93
6, 27612, Note_off_c, 4, 57, 0
6, 27612, Note_on_c, 4, 67, 93
6, 27624, Note_off_c, 4, 67, 0
6, 27624, Note_on_c, 4, 73, 93
6, 27636, Note_off_c, 4, 73, 0
6, 27636, Note_on_c, 4, 67, 93
6, 27648, Note_off_c, 4, 67, 0
6, 27648, Note_on_c, 4, 62, 93
6, 27660, Note_off_c, 4, 62, 0
6, 27660, Note_on_c, 4, 65, 93
6, 27672, Note_off_c, 4, 65, 0
6, 27672, Note_on_c, 4, 74, 93
6, 27684, Note_off_c, 4, 74, 0
6, 27684, Note_on_c, 4, 65, 93
6, 27696, Note_off_c, 4, 65, 0
6, 27696, Note_on_c, 4, 62, 93
6, 27708, Note_off_c, 4, 62, 0
6, 27708, Note_on_c, 4, 65, 93
6, 27720, Note_off_c, 4, 65, 0
6, 27720, Note_on_c, 4, 74, 93
6, 27732, Note_off_c, 4, 74, 0
6, 27732, Note_on_c, 4, 65, 93
6, 27744, Note_off_c, 4, 65, 0
6, 27744, Note_on_c, 4, 62, 93
6, 27756, Note_off_c, 4, 62, 0
6, 27756, Note_on_c, 4, 65, 93
6, 27768, Note_off_c, 4, 65, 0
6, 27768, Note_on_c, 4, 69, 93
6, 27780, Note_off_c, 4, 69, 0
6, 27780, Note_on_c, 4, 65, 93
6, 27792, Note_off_c, 4, 65, 0
6, 27792, Note_on_c, 4, 62, 93
6, 27804, Note_off_c, 4, 62, 0
6, 27804, Note_on_c, 4, 65, 93
6, 27816, Note_off_c, 4, 65, 0
6, 27816, Note_on_c, 4, 69, 93
6, 27828, Note_off_c, 4, 69, 0
6, 27828, Note_on_c, 4, 65, 93
6, 27840, Note_off_c, 4, 65, 0
6, 27840, Note_on_c, 4, 62, 93
6, 27852, Note_off_c, 4, 62, 0
6, 27852, Note_on_c, 4, 65, 93
6, 27864, Note_off_c, 4, 65, 0
6, 27864, Note_on_c, 4, 70, 93
6, 27876, Note_off_c, 4, 70, 0
6, 27876, Note_on_c, 4, 65, 93
6, 27888, Note_off_c, 4, 65, 0
6, 27888, Note_on_c, 4, 62, 93
6, 27900, Note_off_c, 4, 62, 0
6, 27900, Note_on_c, 4, 65, 93
6, 27912, Note_off_c, 4, 65, 0
6, 27912, Note_on_c, 4, 70, 93
6, 27924, Note_off_c, 4, 70, 0
6, 27924, Note_on_c, 4, 65, 93
6, 27936, Note_off_c, 4, 65, 0
6, 27936, Note_on_c, 4, 62, 93
6, 27948, Note_off_c, 4, 62, 0
6, 27948, Note_on_c, 4, 66, 93
6, 27960, Note_off_c, 4, 66, 0
6, 27960, Note_on_c, 4, 72, 93
6, 27972, Note_off_c, 4, 72, 0
6, 27972, Note_on_c, 4, 66, 93
6, 27984, Note_off_c, 4, 66, 0
6, 27984, Note_on_c, 4, 62, 93
6, 27996, Note_off_c, 4, 62, 0
6, 27996, Note_on_c, 4, 66, 93
6, 28008, Note_off_c, 4, 66, 0
6, 28008, Note_on_c, 4, 72, 93
6, 28020, Note_off_c, 4, 72, 0
6, 28020, Note_on_c, 4, 66, 93
6, 28032, Note_off_c, 4, 66, 0
6, 28032, Note_on_c, 4, 62, 93
6, 28044, Note_off_c, 4, 62, 0
6, 28044, Note_on_c, 4, 66, 93
6, 28056, Note_off_c, 4, 66, 0
6, 28056, Note_on_c, 4, 70, 93
6, 28068, Note_off_c, 4, 70, 0
6, 28068, Note_on_c, 4, 66, 93
6, 28080, Note_off_c, 4, 66, 0
6, 28080, Note_on_c, 4, 62, 93
6, 28092, Note_off_c, 4, 62, 0
6, 28092, Note_on_c, 4, 66, 93
6, 28104, Note_off_c, 4, 66, 0
6, 28104, Note_on_c, 4, 70, 93
6, 28116, Note_off_c, 4, 70, 0
6, 28116, Note_on_c, 4, 66, 93
6, 28128, Note_off_c, 4, 66, 0
6, 28128, Note_on_c, 4, 62, 93
6, 28140, Note_off_c, 4, 62, 0
6, 28140, Note_on_c, 4, 66, 93
6, 28152, Note_off_c, 4, 66, 0
6, 28152, Note_on_c, 4, 69, 93
6, 28164, Note_off_c, 4, 69, 0
6, 28164, Note_on_c, 4, 66, 93
6, 28176, Note_off_c, 4, 66, 0
6, 28176, Note_on_c, 4, 62, 93
6, 28188, Note_off_c, 4, 62, 0
6, 28188, Note_on_c, 4, 66, 93
6, 28200, Note_off_c, 4, 66, 0
6, 28200, Note_on_c, 4, 69, 93
6, 28212, Note_off_c, 4, 69, 0
6, 28212, Note_on_c, 4, 66, 93
6, 28224, Note_off_c, 4, 66, 0
6, 28224, Note_on_c, 4, 62, 93
6, 28236, Note_off_c, 4, 62, 0
6, 28236, Note_on_c, 4, 67, 93
6, 28248, Note_off_c, 4, 67, 0
6, 28248, Note_on_c, 4, 70, 93
6, 28260, Note_off_c, 4, 70, 0
6, 28260, Note_on_c, 4, 67, 93
6, 28272, Note_off_c, 4, 67, 0
6, 28272, Note_on_c, 4, 62, 93
6, 28284, Note_off_c, 4, 62, 0
6, 28284, Note_on_c, 4, 67, 93
6, 28296, Note_off_c, 4, 67, 0
6, 28296, Note_on_c, 4, 70, 93
6, 28308, Note_off_c, 4, 70, 0
6, 28308, Note_on_c, 4, 67, 93
6, 28320, Note_off_c, 4, 67, 0
6, 28320, Note_on_c, 4, 64, 93
6, 28332, Note_off_c, 4, 64, 0
6, 28332, Note_on_c, 4, 73, 93
6, 28344, Note_off_c, 4, 73, 0
6, 28344, Note_on_c, 4, 82, 93
6, 28356, Note_off_c, 4, 82, 0
6, 28356, Note_on_c, 4, 73, 93
6, 28368, Note_off_c, 4, 73, 0
6, 28368, Note_on_c, 4, 64, 93
6, 28380, Note_off_c, 4, 64, 0
6, 28380, Note_on_c, 4, 73, 93
6, 28392, Note_off_c, 4, 73, 0
6, 28392, Note_on_c, 4, 82, 93
6, 28404, Note_off_c, 4, 82, 0
6, 28404, Note_on_c, 4, 73, 93
6, 28416, Note_off_c, 4, 73, 0
6, 28416, Note_on_c, 4, 65, 93
6, 28428, Note_off_c, 4, 65, 0
6, 28428, Note_on_c, 4, 74, 93
6, 28440, Note_off_c, 4, 74, 0
6, 28440, Note_on_c, 4, 81, 93
6, 28452, Note_off_c, 4, 81, 0
6, 28452, Note_on_c, 4, 74, 93
6, 28464, Note_off_c, 4, 74, 0
6, 28464, Note_on_c, 4, 65, 93
6, 28476, Note_off_c, 4, 65, 0
6, 28476, Note_on_c, 4, 74, 93
6, 28488, Note_off_c, 4, 74, 0
6, 28488, Note_on_c, 4, 81, 93
6, 28500, Note_off_c, 4, 81, 0
6, 28500, Note_on_c, 4, 74, 93
6, 28512, Note_off_c, 4, 74, 0
6, 28512, Note_on_c, 4, 67, 93
6, 28524, Note_off_c, 4, 67, 0
6, 28524, Note_on_c, 4, 74, 93
6, 28536, Note_off_c, 4, 74, 0
6, 28536, Note_on_c, 4, 79, 93
6, 28548, Note_off_c, 4, 79, 0
6, 28548, Note_on_c, 4, 74, 93
6, 28560, Note_off_c, 4, 74, 0
6, 28560, Note_on_c, 4, 67, 93
6, 28572, Note_off_c, 4, 67, 0
6, 28572, Note_on_c, 4, 74, 93
6, 28584, Note_off_c, 4, 74, 0
6, 28584, Note_on_c, 4, 77, 93
6, 28596, Note_off_c, 4, 77, 0
6, 28596, Note_on_c, 4, 74, 93
6, 28608, Note_off_c, 4, 74, 0
6, 28608, Note_on_c, 4, 69, 93
6, 28620, Note_off_c, 4, 69, 0
6, 28620, Note_on_c, 4, 74, 93
6, 28632, Note_off_c, 4, 74, 0
6, 28632, Note_on_c, 4, 76, 93
6, 28644, Note_off_c, 4, 76, 0
6, 28644, Note_on_c, 4, 74, 93
6, 28656, Note_off_c, 4, 74, 0
6, 28656, Note_on_c, 4, 69, 93
6, 28668, Note_off_c, 4, 69, 0
6, 28668, Note_on_c, 4, 74, 93
6, 28680, Note_off_c, 4, 74, 0
6, 28680, Note_on_c, 4, 76, 93
6, 28692, Note_off_c, 4, 76, 0
6, 28692, Note_on_c, 4, 74, 93
6, 28704, Note_off_c, 4, 74, 0
6, 28704, Note_on_c, 4, 69, 93
6, 28716, Note_off_c, 4, 69, 0
6, 28716, Note_on_c, 4, 73, 93
6, 28728, Note_off_c, 4, 73, 0
6, 28728, Note_on_c, 4, 76, 93
6, 28740, Note_off_c, 4, 76, 0
6, 28740, Note_on_c, 4, 73, 93
6, 28752, Note_off_c, 4, 73, 0
6, 28752, Note_on_c, 4, 69, 93
6, 28764, Note_off_c, 4, 69, 0
6, 28764, Note_on_c, 4, 73, 93
6, 28776, Note_off_c, 4, 73, 0
6, 28776, Note_on_c, 4, 76, 93
6, 28788, Note_off_c, 4, 76, 0
6, 28788, Note_on_c, 4, 73, 93
6, 28800, Note_off_c, 4, 73, 0
6, 28800, Note_on_c, 4, 62, 93
6, 28812, Note_off_c, 4, 62, 0
6, 28812, Note_on_c, 4, 74, 93
6, 28824, Note_off_c, 4, 74, 0
6, 28824, Note_on_c, 4, 77, 93
6, 28836, Note_off_c, 4, 77, 0
6, 28836, Note_on_c, 4, 74, 93
6, 28848, Note_off_c, 4, 74, 0
6, 28848, Note_on_c, 4, 62, 93
6, 28860, Note_off_c, 4, 62, 0
6, 28860, Note_on_c, 4, 74, 93
6, 28872, Note_off_c, 4, 74, 0
6, 28872, Note_on_c, 4, 77, 93
6, 28884, Note_off_c, 4, 77, 0
6, 28884, Note_on_c, 4, 74, 93
6, 28896, Note_off_c, 4, 74, 0
6, 28896, Note_on_c, 4, 62, 93
6, 28902, Note_off_c, 4, 62, 0
6, 28902, Note_on_c, 4, 69, 93
6, 28914, Note_off_c, 4, 69, 0
6, 28914, Note_on_c, 4, 77, 93
6, 28920, Note_off_c, 4, 77, 0
6, 28920, Note_on_c, 4, 77, 93
6, 28926, Note_off_c, 4, 77, 0
6, 28926, Note_on_c, 4, 69, 93
6, 28938, Note_off_c, 4, 69, 0
6, 28938, Note_on_c, 4, 62, 93
6, 28944, Note_off_c, 4, 62, 0
6, 28944, Note_on_c, 4, 62, 93
6, 28950, Note_off_c, 4, 62, 0
6, 28950, Note_on_c, 4, 69, 93
6, 28962, Note_off_c, 4, 69, 0
6, 28962, Note_on_c, 4, 77, 93
6, 28968, Note_off_c, 4, 77, 0
6, 28968, Note_on_c, 4, 77, 93
6, 28974, Note_off_c, 4, 77, 0
6, 28974, Note_on_c, 4, 69, 93
6, 28986, Note_off_c, 4, 69, 0
6, 28986, Note_on_c, 4, 62, 93
6, 28992, Note_off_c, 4, 62, 0
6, 28992, Note_on_c, 4, 62, 93
6, 28998, Note_off_c, 4, 62, 0
6, 28998, Note_on_c, 4, 70, 93
6, 29010, Note_off_c, 4, 70, 0
6, 29010, Note_on_c, 4, 77, 93
6, 29016, Note_off_c, 4, 77, 0
6, 29016, Note_on_c, 4, 77, 93
6, 29022, Note_off_c, 4, 77, 0
6, 29022, Note_on_c, 4, 70, 93
6, 29034, Note_off_c, 4, 70, 0
6, 29034, Note_on_c, 4, 62, 93
6, 29040, Note_off_c, 4, 62, 0
6, 29040, Note_on_c, 4, 62, 93
6, 29046, Note_off_c, 4, 62, 0
6, 29046, Note_on_c, 4, 70, 93
6, 29058, Note_off_c, 4, 70, 0
6, 29058, Note_on_c, 4, 77, 93
6, 29064, Note_off_c, 4, 77, 0
6, 29064, Note_on_c, 4, 77, 93
6, 29070, Note_off_c, 4, 77, 0
6, 29070, Note_on_c, 4, 70, 93
6, 29082, Note_off_c, 4, 70, 0
6, 29082, Note_on_c, 4, 62, 93
6, 29088, Note_off_c, 4, 62, 0
6, 29088, Note_on_c, 4, 62, 93
6, 29094, Note_off_c, 4, 62, 0
6, 29094, Note_on_c, 4, 72, 93
6, 29106, Note_off_c, 4, 72, 0
6, 29106, Note_on_c, 4, 78, 93
6, 29112, Note_off_c, 4, 78, 0
6, 29112, Note_on_c, 4, 78, 93
6, 29118, Note_off_c, 4, 78, 0
6, 29118, Note_on_c, 4, 72, 93
6, 29130, Note_off_c, 4, 72, 0
6, 29130, Note_on_c, 4, 62, 93
6, 29136, Note_off_c, 4, 62, 0
6, 29136, Note_on_c, 4, 62, 93
6, 29142, Note_off_c, 4, 62, 0
6, 29142, Note_on_c, 4, 72, 93
6, 29154, Note_off_c, 4, 72, 0
6, 29154, Note_on_c, 4, 78, 93
6, 29160, Note_off_c, 4, 78, 0
6, 29160, Note_on_c, 4, 78, 93
6, 29166, Note_off_c, 4, 78, 0
6, 29166, Note_on_c, 4, 72, 93
6, 29178, Note_off_c, 4, 72, 0
6, 29178, Note_on_c, 4, 62, 93
6, 29184, Note_off_c, 4, 62, 0
6, 29184, Note_on_c, 4, 62, 93
6, 29190, Note_off_c, 4, 62, 0
6, 29190, Note_on_c, 4, 70, 93
6, 29202, Note_off_c, 4, 70, 0
6, 29202, Note_on_c, 4, 78, 93
6, 29208, Note_off_c, 4, 78, 0
6, 29208, Note_on_c, 4, 78, 93
6, 29214, Note_off_c, 4, 78, 0
6, 29214, Note_on_c, 4, 70, 93
6, 29226, Note_off_c, 4, 70, 0
6, 29226, Note_on_c, 4, 62, 93
6, 29232, Note_off_c, 4, 62, 0
6, 29232, Note_on_c, 4, 62, 93
6, 29238, Note_off_c, 4, 62, 0
6, 29238, Note_on_c, 4, 70, 93
6, 29250, Note_off_c, 4, 70, 0
6, 29250, Note_on_c, 4, 78, 93
6, 29256, Note_off_c, 4, 78, 0
6, 29256, Note_on_c, 4, 78, 93
6, 29262, Note_off_c, 4, 78, 0
6, 29262, Note_on_c, 4, 70, 93
6, 29274, Note_off_c, 4, 70, 0
6, 29274, Note_on_c, 4, 62, 93
6, 29280, Note_off_c, 4, 62, 0
6, 29280, Note_on_c, 4, 62, 93
6, 29286, Note_off_c, 4, 62, 0
6, 29286, Note_on_c, 4, 69, 93
6, 29298, Note_off_c, 4, 69, 0
6, 29298, Note_on_c, 4, 78, 93
6, 29304, Note_off_c, 4, 78, 0
6, 29304, Note_on_c, 4, 78, 93
6, 29310, Note_off_c, 4, 78, 0
6, 29310, Note_on_c, 4, 69, 93
6, 29322, Note_off_c, 4, 69, 0
6, 29322, Note_on_c, 4, 62, 93
6, 29328, Note_off_c, 4, 62, 0
6, 29328, Note_on_c, 4, 62, 93
6, 29334, Note_off_c, 4, 62, 0
6, 29334, Note_on_c, 4, 69, 93
6, 29346, Note_off_c, 4, 69, 0
6, 29346, Note_on_c, 4, 78, 93
6, 29352, Note_off_c, 4, 78, 0
6, 29352, Note_on_c, 4, 78, 93
6, 29358, Note_off_c, 4, 78, 0
6, 29358, Note_on_c, 4, 69, 93
6, 29370, Note_off_c, 4, 69, 0
6, 29370, Note_on_c, 4, 62, 93
6, 29376, Note_off_c, 4, 62, 0
6, 29376, Note_on_c, 4, 62, 93
6, 29382, Note_off_c, 4, 62, 0
6, 29382, Note_on_c, 4, 70, 93
6, 29394, Note_off_c, 4, 70, 0
6, 29394, Note_on_c, 4, 79, 93
6, 29400, Note_off_c, 4, 79, 0
6, 29400, Note_on_c, 4, 79, 93
6, 29406, Note_off_c, 4, 79, 0
6, 29406, Note_on_c, 4, 70, 93
6, 29418, Note_off_c, 4, 70, 0
6, 29418, Note_on_c, 4, 62, 93
6, 29424, Note_off_c, 4, 62, 0
6, 29424, Note_on_c, 4, 62, 93
6, 29430, Note_off_c, 4, 62, 0
6, 29430, Note_on_c, 4, 70, 93
6, 29442, Note_off_c, 4, 70, 0
6, 29442, Note_on_c, 4, 79, 93
6, 29448, Note_off_c, 4, 79, 0
6, 29448, Note_on_c, 4, 79, 93
6, 29454, Note_off_c, 4, 79, 0
6, 29454, Note_on_c, 4, 70, 93
6, 29466, Note_off_c, 4, 70, 0
6, 29466, Note_on_c, 4, 62, 93
6, 29472, Note_off_c, 4, 62, 0
6, 29472, Note_on_c, 4, 62, 93
6, 29478, Note_off_c, 4, 62, 0
6, 29478, Note_on_c, 4, 69, 93
6, 29490, Note_off_c, 4, 69, 0
6, 29490, Note_on_c, 4, 77, 93
6, 29496, Note_off_c, 4, 77, 0
6, 29496, Note_on_c, 4, 77, 93
6, 29502, Note_off_c, 4, 77, 0
6, 29502, Note_on_c, 4, 69, 93
6, 29514, Note_off_c, 4, 69, 0
6, 29514, Note_on_c, 4, 62, 93
6, 29520, Note_off_c, 4, 62, 0
6, 29520, Note_on_c, 4, 62, 93
6, 29526, Note_off_c, 4, 62, 0
6, 29526, Note_on_c, 4, 69, 93
6, 29538, Note_off_c, 4, 69, 0
6, 29538, Note_on_c, 4, 77, 93
6, 29544, Note_off_c, 4, 77, 0
6, 29544, Note_on_c, 4, 77, 93
6, 29550, Note_off_c, 4, 77, 0
6, 29550, Note_on_c, 4, 69, 93
6, 29562, Note_off_c, 4, 69, 0
6, 29562, Note_on_c, 4, 62, 93
6, 29568, Note_off_c, 4, 62, 0
6, 29568, Note_on_c, 4, 61, 93
6, 29574, Note_off_c, 4, 61, 0
6, 29574, Note_on_c, 4, 67, 93
6, 29580, Note_off_c, 4, 67, 0
6, 29580, Note_on_c, 4, 69, 93
6, 29586, Note_off_c, 4, 69, 0
6, 29586, Note_on_c, 4, 76, 93
6, 29592, Note_off_c, 4, 76, 0
6, 29592, Note_on_c, 4, 76, 93
6, 29598, Note_off_c, 4, 76, 0
6, 29598, Note_on_c, 4, 69, 93
6, 29604, Note_off_c, 4, 69, 0
6, 29604, Note_on_c, 4, 67, 93
6, 29610, Note_off_c, 4, 67, 0
6, 29610, Note_on_c, 4, 61, 93
6, 29616, Note_off_c, 4, 61, 0
6, 29616, Note_on_c, 4, 61, 93
6, 29622, Note_off_c, 4, 61, 0
6, 29622, Note_on_c, 4, 67, 93
6, 29628, Note_off_c, 4, 67, 0
6, 29628, Note_on_c, 4, 69, 93
6, 29634, Note_off_c, 4, 69, 0
6, 29634, Note_on_c, 4, 76, 93
6, 29640, Note_off_c, 4, 76, 0
6, 29640, Note_on_c, 4, 76, 93
6, 29646, Note_off_c, 4, 76, 0
6, 29646, Note_on_c, 4, 69, 93
6, 29652, Note_off_c, 4, 69, 0
6, 29652, Note_on_c, 4, 67, 93
6, 29658, Note_off_c, 4, 67, 0
6, 29658, Note_on_c, 4, 61, 93
6, 29664, Note_off_c, 4, 61, 0
6, 29664, Note_on_c, 4, 62, 93
6, 29670, Note_off_c, 4, 62, 0
6, 29670, Note_on_c, 4, 65, 93
6, 29676, Note_off_c, 4, 65, 0
6, 29676, Note_on_c, 4, 69, 93
6, 29682, Note_off_c, 4, 69, 0
6, 29682, Note_on_c, 4, 77, 93
6, 29688, Note_off_c, 4, 77, 0
6, 29688, Note_on_c, 4, 77, 93
6, 29694, Note_off_c, 4, 77, 0
6, 29694, Note_on_c, 4, 69, 93
6, 29700, Note_off_c, 4, 69, 0
6, 29700, Note_on_c, 4, 65, 93
6, 29706, Note_off_c, 4, 65, 0
6, 29706, Note_on_c, 4, 62, 93
6, 29712, Note_off_c, 4, 62, 0
6, 29712, Note_on_c, 4, 62, 93
6, 29718, Note_off_c, 4, 62, 0
6, 29718, Note_on_c, 4, 65, 93
6, 29724, Note_off_c, 4, 65, 0
6, 29724, Note_on_c, 4, 69, 93
6, 29730, Note_off_c, 4, 69, 0
6, 29730, Note_on_c, 4, 77, 93
6, 29736, Note_off_c, 4, 77, 0
6, 29736, Note_on_c, 4, 77, 93
6, 29742, Note_off_c, 4, 77, 0
6, 29742, Note_on_c, 4, 69, 93
6, 29748, Note_off_c, 4, 69, 0
6, 29748, Note_on_c, 4, 65, 93
6, 29754, Note_off_c, 4, 65, 0
6, 29754, Note_on_c, 4, 62, 93
6, 29760, Note_off_c, 4, 62, 0
6, 29760, Note_on_c, 4, 57, 93
6, 29766, Note_off_c, 4, 57, 0
6, 29766, Note_on_c, 4, 64, 93
6, 29778, Note_off_c, 4, 64, 0
6, 29778, Note_on_c, 4, 73, 93
6, 29784, Note_off_c, 4, 73, 0
6, 29784, Note_on_c, 4, 73, 93
6, 29790, Note_off_c, 4, 73, 0
6, 29790, Note_on_c, 4, 64, 93
6, 29802, Note_off_c, 4, 64, 0
6, 29802, Note_on_c, 4, 57, 93
6, 29808, Note_off_c, 4, 57, 0
6, 29808, Note_on_c, 4, 57, 93
6, 29814, Note_off_c, 4, 57, 0
6, 29814, Note_on_c, 4, 64, 93
6, 29826, Note_off_c, 4, 64, 0
6, 29826, Note_on_c, 4, 73, 93
6, 29832, Note_off_c, 4, 73, 0
6, 29832, Note_on_c, 4, 73, 93
6, 29838, Note_off_c, 4, 73, 0
6, 29838, Note_on_c, 4, 64, 93
6, 29850, Note_off_c, 4, 64, 0
6, 29850, Note_on_c, 4, 57, 93
6, 29856, Note_off_c, 4, 57, 0
6, 29856, Note_on_c, 4, 57, 93
6, 29862, Note_off_c, 4, 57, 0
6, 29862, Note_on_c, 4, 64, 93
6, 29874, Note_off_c, 4, 64, 0
6, 29874, Note_on_c, 4, 73, 93
6, 29880, Note_off_c, 4, 73, 0
6, 29880, Note_on_c, 4, 73, 93
6, 29886, Note_off_c, 4, 73, 0
6, 29886, Note_on_c, 4, 64, 93
6, 29898, Note_off_c, 4, 64, 0
6, 29898, Note_on_c, 4, 57, 93
6, 29904, Note_off_c, 4, 57, 0
6, 29904, Note_on_c, 4, 57, 93
6, 29910, Note_off_c, 4, 57, 0
6, 29910, Note_on_c, 4, 64, 93
6, 29922, Note_off_c, 4, 64, 0
6, 29922, Note_on_c, 4, 73, 93
6, 29928, Note_off_c, 4, 73, 0
6, 29928, Note_on_c, 4, 73, 93
6, 29934, Note_off_c, 4, 73, 0
6, 29934, Note_on_c, 4, 64, 93
6, 29946, Note_off_c, 4, 64, 0
6, 29946, Note_on_c, 4, 57, 93
6, 29952, Note_off_c, 4, 57, 0
6, 29952, Note_on_c, 4, 62, 93
6, 29958, Note_off_c, 4, 62, 0
6, 29958, Note_on_c, 4, 65, 93
6, 29970, Note_off_c, 4, 65, 0
6, 29970, Note_on_c, 4, 74, 93
6, 29976, Note_off_c, 4, 74, 0
6, 29976, Note_on_c, 4, 74, 93
6, 29982, Note_off_c, 4, 74, 0
6, 29982, Note_on_c, 4, 65, 93
6, 29994, Note_off_c, 4, 65, 0
6, 29994, Note_on_c, 4, 62, 93
6, 30000, Note_off_c, 4, 62, 0
6, 30000, Note_on_c, 4, 62, 93
6, 30006, Note_off_c, 4, 62, 0
6, 30006, Note_on_c, 4, 65, 93
6, 30018, Note_off_c, 4, 65, 0
6, 30018, Note_on_c, 4, 74, 93
6, 30024, Note_off_c, 4, 74, 0
6, 30024, Note_on_c, 4, 74, 93
6, 30030, Note_off_c, 4, 74, 0
6, 30030, Note_on_c, 4, 65, 93
6, 30042, Note_off_c, 4, 65, 0
6, 30042, Note_on_c, 4, 62, 93
6, 30048, Note_off_c, 4, 62, 0
6, 30048, Note_on_c, 4, 62, 93
6, 30054, Note_off_c, 4, 62, 0
6, 30054, Note_on_c, 4, 62, 93
6, 30060, Note_off_c, 4, 62, 0
6, 30060, Note_on_c, 4, 69, 93
6, 30066, Note_off_c, 4, 69, 0
6, 30066, Note_on_c, 4, 77, 93
6, 30078, Note_off_c, 4, 77, 0
6, 30078, Note_on_c, 4, 77, 93
6, 30084, Note_off_c, 4, 77, 0
6, 30084, Note_on_c, 4, 69, 93
6, 30090, Note_off_c, 4, 69, 0
6, 30090, Note_on_c, 4, 62, 93
6, 30096, Note_off_c, 4, 62, 0
6, 30096, Note_on_c, 4, 62, 93
6, 30102, Note_off_c, 4, 62, 0
6, 30102, Note_on_c, 4, 69, 93
6, 30114, Note_off_c, 4, 69, 0
6, 30114, Note_on_c, 4, 77, 93
6, 30120, Note_off_c, 4, 77, 0
6, 30120, Note_on_c, 4, 77, 93
6, 30126, Note_off_c, 4, 77, 0
6, 30126, Note_on_c, 4, 69, 93
6, 30138, Note_off_c, 4, 69, 0
6, 30138, Note_on_c, 4, 62, 93
6, 30144, Note_off_c, 4, 62, 0
6, 30144, Note_on_c, 4, 62, 93
6, 30150, Note_off_c, 4, 62, 0
6, 30150, Note_on_c, 4, 69, 93
6, 30156, Note_off_c, 4, 69, 0
6, 30156, Note_on_c, 4, 72, 93
6, 30162, Note_off_c, 4, 72, 0
6, 30162, Note_on_c, 4, 77, 93
6, 30174, Note_off_c, 4, 77, 0
6, 30174, Note_on_c, 4, 77, 93
6, 30180, Note_off_c, 4, 77, 0
6, 30180, Note_on_c, 4, 72, 93
6, 30186, Note_off_c, 4, 72, 0
6, 30186, Note_on_c, 4, 69, 93
6, 30192, Note_off_c, 4, 69, 0
6, 30192, Note_on_c, 4, 69, 93
6, 30198, Note_off_c, 4, 69, 0
6, 30198, Note_on_c, 4, 72, 93
6, 30210, Note_off_c, 4, 72, 0
6, 30210, Note_on_c, 4, 77, 93
6, 30216, Note_off_c, 4, 77, 0
6, 30216, Note_on_c, 4, 77, 93
6, 30222, Note_off_c, 4, 77, 0
6, 30222, Note_on_c, 4, 72, 93
6, 30234, Note_off_c, 4, 72, 0
6, 30234, Note_on_c, 4, 69, 93
6, 30240, Note_off_c, 4, 69, 0
6, 30240, Note_on_c, 4, 55, 93
6, 30246, Note_off_c, 4, 55, 0
6, 30246, Note_on_c, 4, 67, 93
6, 30252, Note_off_c, 4, 67, 0
6, 30252, Note_on_c, 4, 70, 93
6, 30258, Note_off_c, 4, 70, 0
6, 30258, Note_on_c, 4, 77, 93
6, 30264, Note_off_c, 4, 77, 0
6, 30264, Note_on_c, 4, 77, 93
6, 30270, Note_off_c, 4, 77, 0
6, 30270, Note_on_c, 4, 70, 93
6, 30276, Note_off_c, 4, 70, 0
6, 30276, Note_on_c, 4, 67, 93
6, 30282, Note_off_c, 4, 67, 0
6, 30282, Note_on_c, 4, 55, 93
6, 30288, Note_off_c, 4, 55, 0
6, 30288, Note_on_c, 4, 55, 93
6, 30294, Note_off_c, 4, 55, 0
6, 30294, Note_on_c, 4, 67, 93
6, 30300, Note_off_c, 4, 67, 0
6, 30300, Note_on_c, 4, 70, 93
6, 30306, Note_off_c, 4, 70, 0
6, 30306, Note_on_c, 4, 77, 93
6, 30312, Note_off_c, 4, 77, 0
6, 30312, Note_on_c, 4, 77, 93
6, 30318, Note_off_c, 4, 77, 0
6, 30318, Note_on_c, 4, 70, 93
6, 30324, Note_off_c, 4, 70, 0
6, 30324, Note_on_c, 4, 67, 93
6, 30330, Note_off_c, 4, 67, 0
6, 30330, Note_on_c, 4, 55, 93
6, 30336, Note_off_c, 4, 55, 0
6, 30336, Note_on_c, 4, 55, 93
6, 30342, Note_off_c, 4, 55, 0
6, 30342, Note_on_c, 4, 67, 93
6, 30348, Note_off_c, 4, 67, 0
6, 30348, Note_on_c, 4, 70, 93
6, 30354, Note_off_c, 4, 70, 0
6, 30354, Note_on_c, 4, 76, 93
6, 30360, Note_off_c, 4, 76, 0
6, 30360, Note_on_c, 4, 76, 93
6, 30366, Note_off_c, 4, 76, 0
6, 30366, Note_on_c, 4, 70, 93
6, 30372, Note_off_c, 4, 70, 0
6, 30372, Note_on_c, 4, 67, 93
6, 30378, Note_off_c, 4, 67, 0
6, 30378, Note_on_c, 4, 55, 93
6, 30384, Note_off_c, 4, 55, 0
6, 30384, Note_on_c, 4, 55, 93
6, 30390, Note_off_c, 4, 55, 0
6, 30390, Note_on_c, 4, 67, 93
6, 30396, Note_off_c, 4, 67, 0
6, 30396, Note_on_c, 4, 70, 93
6, 30402, Note_off_c, 4, 70, 0
6, 30402, Note_on_c, 4, 76, 93
6, 30408, Note_off_c, 4, 76, 0
6, 30408, Note_on_c, 4, 76, 93
6, 30414, Note_off_c, 4, 76, 0
6, 30414, Note_on_c, 4, 70, 93
6, 30420, Note_off_c, 4, 70, 0
6, 30420, Note_on_c, 4, 67, 93
6, 30426, Note_off_c, 4, 67, 0
6, 30426, Note_on_c, 4, 55, 93
6, 30432, Note_off_c, 4, 55, 0
6, 30432, Note_on_c, 4, 57, 93
6, 30438, Note_off_c, 4, 57, 0
6, 30438, Note_on_c, 4, 65, 93
6, 30450, Note_off_c, 4, 65, 0
6, 30450, Note_on_c, 4, 75, 93
6, 30456, Note_off_c, 4, 75, 0
6, 30456, Note_on_c, 4, 75, 93
6, 30462, Note_off_c, 4, 75, 0
6, 30462, Note_on_c, 4, 65, 93
6, 30474, Note_off_c, 4, 65, 0
6, 30474, Note_on_c, 4, 57, 93
6, 30480, Note_off_c, 4, 57, 0
6, 30480, Note_on_c, 4, 57, 93
6, 30486, Note_off_c, 4, 57, 0
6, 30486, Note_on_c, 4, 65, 93
6, 30498, Note_off_c, 4, 65, 0
6, 30498, Note_on_c, 4, 75, 93
6, 30504, Note_off_c, 4, 75, 0
6, 30504, Note_on_c, 4, 75, 93
6, 30510, Note_off_c, 4, 75, 0
6, 30510, Note_on_c, 4, 65, 93
6, 30522, Note_off_c, 4, 65, 0
6, 30522, Note_on_c, 4, 57, 93
6, 30528, Note_off_c, 4, 57, 0
6, 30528, Note_on_c, 4, 58, 93
6, 30534, Note_off_c, 4, 58, 0
6, 30534, Note_on_c, 4, 65, 93
6, 30546, Note_off_c, 4, 65, 0
6, 30546, Note_on_c, 4, 75, 93
6, 30552, Note_off_c, 4, 75, 0
6, 30552, Note_on_c, 4, 75, 93
6, 30558, Note_off_c, 4, 75, 0
6, 30558, Note_on_c, 4, 65, 93
6, 30570, Note_off_c, 4, 65, 0
6, 30570, Note_on_c, 4, 58, 93
6, 30576, Note_off_c, 4, 58, 0
6, 30576, Note_on_c, 4, 58, 93
6, 30582, Note_off_c, 4, 58, 0
6, 30582, Note_on_c, 4, 65, 93
6, 30594, Note_off_c, 4, 65, 0
6, 30594, Note_on_c, 4, 75, 93
6, 30600, Note_off_c, 4, 75, 0
6, 30600, Note_on_c, 4, 75, 93
6, 30606, Note_off_c, 4, 75, 0
6, 30606, Note_on_c, 4, 65, 93
6, 30618, Note_off_c, 4, 65, 0
6, 30618, Note_on_c, 4, 58, 93
6, 30624, Note_off_c, 4, 58, 0
6, 30624, Note_on_c, 4, 58, 93
6, 30630, Note_off_c, 4, 58, 0
6, 30630, Note_on_c, 4, 65, 93
6, 30636, Note_off_c, 4, 65, 0
6, 30636, Note_on_c, 4, 74, 93
6, 30642, Note_off_c, 4, 74, 0
6, 30642, Note_on_c, 4, 82, 93
6, 30648, Note_off_c, 4, 82, 0
6, 30648, Note_on_c, 4, 82, 93
6, 30654, Note_off_c, 4, 82, 0
6, 30654, Note_on_c, 4, 74, 93
6, 30660, Note_off_c, 4, 74, 0
6, 30660, Note_on_c, 4, 65, 93
6, 30666, Note_off_c, 4, 65, 0
6, 30666, Note_on_c, 4, 58, 93
6, 30672, Note_off_c, 4, 58, 0
6, 30672, Note_on_c, 4, 58, 93
6, 30678, Note_off_c, 4, 58, 0
6, 30678, Note_on_c, 4, 65, 93
6, 30684, Note_off_c, 4, 65, 0
6, 30684, Note_on_c, 4, 74, 93
6, 30690, Note_off_c, 4, 74, 0
6, 30690, Note_on_c, 4, 82, 93
6, 30696, Note_off_c, 4, 82, 0
6, 30696, Note_on_c, 4, 82, 93
6, 30702, Note_off_c, 4, 82, 0
6, 30702, Note_on_c, 4, 74, 93
6, 30708, Note_off_c, 4, 74, 0
6, 30708, Note_on_c, 4, 65, 93
6, 30714, Note_off_c, 4, 65, 0
6, 30714, Note_on_c, 4, 58, 93
6, 30720, Note_off_c, 4, 58, 0
6, 30720, Note_on_c, 4, 58, 93
6, 30726, Note_off_c, 4, 58, 0
6, 30726, Note_on_c, 4, 67, 93
6, 30732, Note_off_c, 4, 67, 0
6, 30732, Note_on_c, 4, 74, 93
6, 30738, Note_off_c, 4, 74, 0
6, 30738, Note_on_c, 4, 76, 93
6, 30744, Note_off_c, 4, 76, 0
6, 30744, Note_on_c, 4, 76, 93
6, 30750, Note_off_c, 4, 76, 0
6, 30750, Note_on_c, 4, 74, 93
6, 30756, Note_off_c, 4, 74, 0
6, 30756, Note_on_c, 4, 67, 93
6, 30762, Note_off_c, 4, 67, 0
6, 30762, Note_on_c, 4, 58, 93
6, 30768, Note_off_c, 4, 58, 0
6, 30768, Note_on_c, 4, 58, 93
6, 30774, Note_off_c, 4, 58, 0
6, 30774, Note_on_c, 4, 67, 93
6, 30780, Note_off_c, 4, 67, 0
6, 30780, Note_on_c, 4, 74, 93
6, 30786, Note_off_c, 4, 74, 0
6, 30786, Note_on_c, 4, 76, 93
6, 30792, Note_off_c, 4, 76, 0
6, 30792, Note_on_c, 4, 76, 93
6, 30798, Note_off_c, 4, 76, 0
6, 30798, Note_on_c, 4, 74, 93
6, 30804, Note_off_c, 4, 74, 0
6, 30804, Note_on_c, 4, 67, 93
6, 30810, Note_off_c, 4, 67, 0
6, 30810, Note_on_c, 4, 58, 93
6, 30816, Note_off_c, 4, 58, 0
6, 30816, Note_on_c, 4, 57, 93
6, 30822, Note_off_c, 4, 57, 0
6, 30822, Note_on_c, 4, 69, 93
6, 30828, Note_off_c, 4, 69, 0
6, 30828, Note_on_c, 4, 74, 93
6, 30834, Note_off_c, 4, 74, 0
6, 30834, Note_on_c, 4, 76, 93
6, 30840, Note_off_c, 4, 76, 0
6, 30840, Note_on_c, 4, 76, 93
6, 30846, Note_off_c, 4, 76, 0
6, 30846, Note_on_c, 4, 74, 93
6, 30852, Note_off_c, 4, 74, 0
6, 30852, Note_on_c, 4, 69, 93
6, 30858, Note_off_c, 4, 69, 0
6, 30858, Note_on_c, 4, 57, 93
6, 30864, Note_off_c, 4, 57, 0
6, 30864, Note_on_c, 4, 57, 93
6, 30870, Note_off_c, 4, 57, 0
6, 30870, Note_on_c, 4, 69, 93
6, 30876, Note_off_c, 4, 69, 0
6, 30876, Note_on_c, 4, 74, 93
6, 30882, Note_off_c, 4, 74, 0
6, 30882, Note_on_c, 4, 76, 93
6, 30888, Note_off_c, 4, 76, 0
6, 30888, Note_on_c, 4, 76, 93
6, 30894, Note_off_c, 4, 76, 0
6, 30894, Note_on_c, 4, 74, 93
6, 30900, Note_off_c, 4, 74, 0
6, 30900, Note_on_c, 4, 69, 93
6, 30906, Note_off_c, 4, 69, 0
6, 30906, Note_on_c, 4, 57, 93
6, 30912, Note_off_c, 4, 57, 0
6, 30912, Note_on_c, 4, 57, 93
6, 30918, Note_off_c, 4, 57, 0
6, 30918, Note_on_c, 4, 64, 93
6, 30924, Note_off_c, 4, 64, 0
6, 30924, Note_on_c, 4, 73, 93
6, 30930, Note_off_c, 4, 73, 0
6, 30930, Note_on_c, 4, 81, 93
6, 30936, Note_off_c, 4, 81, 0
6, 30936, Note_on_c, 4, 81, 93
6, 30942, Note_off_c, 4, 81, 0
6, 30942, Note_on_c, 4, 73, 93
6, 30948, Note_off_c, 4, 73, 0
6, 30948, Note_on_c, 4, 64, 93
6, 30954, Note_off_c, 4, 64, 0
6, 30954, Note_on_c, 4, 57, 93
6, 30960, Note_off_c, 4, 57, 0
6, 30960, Note_on_c, 4, 57, 93
6, 30966, Note_off_c, 4, 57, 0
6, 30966, Note_on_c, 4, 64, 93
6, 30972, Note_off_c, 4, 64, 0
6, 30972, Note_on_c, 4, 73, 93
6, 30978, Note_off_c, 4, 73, 0
6, 30978, Note_on_c, 4, 81, 93
6, 30984, Note_off_c, 4, 81, 0
6, 30984, Note_on_c, 4, 81, 93
6, 30990, Note_off_c, 4, 81, 0
6, 30990, Note_on_c, 4, 73, 93
6, 30996, Note_off_c, 4, 73, 0
6, 30996, Note_on_c, 4, 64, 93
6, 31002, Note_off_c, 4, 64, 0
6, 31002, Note_on_c, 4, 57, 93
6, 31008, Note_off_c, 4, 57, 0
6, 31008, Note_on_c, 4, 57, 93
6, 31014, Note_off_c, 4, 57, 0
6, 31014, Note_on_c, 4, 64, 93
6, 31020, Note_off_c, 4, 64, 0
6, 31020, Note_on_c, 4, 73, 93
6, 31026, Note_off_c, 4, 73, 0
6, 31026, Note_on_c, 4, 79, 93
6, 31032, Note_off_c, 4, 79, 0
6, 31032, Note_on_c, 4, 79, 93
6, 31038, Note_off_c, 4, 79, 0
6, 31038, Note_on_c, 4, 73, 93
6, 31044, Note_off_c, 4, 73, 0
6, 31044, Note_on_c, 4, 64, 93
6, 31050, Note_off_c, 4, 64, 0
6, 31050, Note_on_c, 4, 57, 93
6, 31056, Note_off_c, 4, 57, 0
6, 31056, Note_on_c, 4, 57, 93
6, 31062, Note_off_c, 4, 57, 0
6, 31062, Note_on_c, 4, 64, 93
6, 31068, Note_off_c, 4, 64, 0
6, 31068, Note_on_c, 4, 73, 93
6, 31074, Note_off_c, 4, 73, 0
6, 31074, Note_on_c, 4, 79, 93
6, 31080, Note_off_c, 4, 79, 0
6, 31080, Note_on_c, 4, 79, 93
6, 31086, Note_off_c, 4, 79, 0
6, 31086, Note_on_c, 4, 73, 93
6, 31092, Note_off_c, 4, 73, 0
6, 31092, Note_on_c, 4, 64, 93
6, 31098, Note_off_c, 4, 64, 0
6, 31098, Note_on_c, 4, 57, 93
6, 31104, Note_off_c, 4, 57, 0
6, 31104, Note_on_c, 4, 62, 93
6, 31110, Note_off_c, 4, 62, 0
6, 31110, Note_on_c, 4, 62, 93
6, 31116, Note_off_c, 4, 62, 0
6, 31116, Note_on_c, 4, 69, 93
6, 31122, Note_off_c, 4, 69, 0
6, 31122, Note_on_c, 4, 77, 93
6, 31134, Note_off_c, 4, 77, 0
6, 31134, Note_on_c, 4, 77, 93
6, 31140, Note_off_c, 4, 77, 0
6, 31140, Note_on_c, 4, 69, 93
6, 31146, Note_off_c, 4, 69, 0
6, 31146, Note_on_c, 4, 62, 93
6, 31152, Note_off_c, 4, 62, 0
6, 31152, Note_on_c, 4, 62, 93
6, 31158, Note_off_c, 4, 62, 0
6, 31158, Note_on_c, 4, 69, 93
6, 31170, Note_off_c, 4, 69, 0
6, 31170, Note_on_c, 4, 77, 93
6, 31176, Note_off_c, 4, 77, 0
6, 31176, Note_on_c, 4, 77, 93
6, 31182, Note_off_c, 4, 77, 0
6, 31182, Note_on_c, 4, 69, 93
6, 31194, Note_off_c, 4, 69, 0
6, 31194, Note_on_c, 4, 62, 93
6, 31200, Note_off_c, 4, 62, 0
6, 31200, Note_on_c, 4, 62, 93
6, 31206, Note_off_c, 4, 62, 0
6, 31206, Note_on_c, 4, 69, 93
6, 31212, Note_off_c, 4, 69, 0
6, 31212, Note_on_c, 4, 74, 93
6, 31218, Note_off_c, 4, 74, 0
6, 31218, Note_on_c, 4, 78, 93
6, 31230, Note_off_c, 4, 78, 0
6, 31230, Note_on_c, 4, 78, 93
6, 31236, Note_off_c, 4, 78, 0
6, 31236, Note_on_c, 4, 74, 93
6, 31242, Note_off_c, 4, 74, 0
6, 31242, Note_on_c, 4, 69, 93
6, 31248, Note_off_c, 4, 69, 0
6, 31248, Note_on_c, 4, 69, 93
6, 31254, Note_off_c, 4, 69, 0
6, 31254, Note_on_c, 4, 74, 93
6, 31266, Note_off_c, 4, 74, 0
6, 31266, Note_on_c, 4, 78, 93
6, 31272, Note_off_c, 4, 78, 0
6, 31272, Note_on_c, 4, 78, 93
6, 31278, Note_off_c, 4, 78, 0
6, 31278, Note_on_c, 4, 74, 93
6, 31290, Note_off_c, 4, 74, 0
6, 31290, Note_on_c, 4, 69, 93
6, 31296, Note_off_c, 4, 69, 0
6, 31296, Note_on_c, 4, 62, 93
6, 31302, Note_off_c, 4, 62, 0
6, 31302, Note_on_c, 4, 72, 93
6, 31314, Note_off_c, 4, 72, 0
6, 31314, Note_on_c, 4, 78, 93
6, 31320, Note_off_c, 4, 78, 0
6, 31320, Note_on_c, 4, 78, 93
6, 31326, Note_off_c, 4, 78, 0
6, 31326, Note_on_c, 4, 72, 93
6, 31338, Note_off_c, 4, 72, 0
6, 31338, Note_on_c, 4, 62, 93
6, 31344, Note_off_c, 4, 62, 0
6, 31344, Note_on_c, 4, 62, 93
6, 31350, Note_off_c, 4, 62, 0
6, 31350, Note_on_c, 4, 72, 93
6, 31362, Note_off_c, 4, 72, 0
6, 31362, Note_on_c, 4, 78, 93
6, 31368, Note_off_c, 4, 78, 0
6, 31368, Note_on_c, 4, 78, 93
6, 31374, Note_off_c, 4, 78, 0
6, 31374, Note_on_c, 4, 72, 93
6, 31386, Note_off_c, 4, 72, 0
6, 31386, Note_on_c, 4, 62, 93
6, 31392, Note_off_c, 4, 62, 0
6, 31392, Note_on_c, 4, 62, 93
6, 31398, Note_off_c, 4, 62, 0
6, 31398, Note_on_c, 4, 70, 93
6, 31410, Note_off_c, 4, 70, 0
6, 31410, Note_on_c, 4, 79, 93
6, 31416, Note_off_c, 4, 79, 0
6, 31416, Note_on_c, 4, 79, 93
6, 31422, Note_off_c, 4, 79, 0
6, 31422, Note_on_c, 4, 70, 93
6, 31434, Note_off_c, 4, 70, 0
6, 31434, Note_on_c, 4, 62, 93
6, 31440, Note_off_c, 4, 62, 0
6, 31440, Note_on_c, 4, 62, 93
6, 31446, Note_off_c, 4, 62, 0
6, 31446, Note_on_c, 4, 70, 93
6, 31458, Note_off_c, 4, 70, 0
6, 31458, Note_on_c, 4, 79, 93
6, 31464, Note_off_c, 4, 79, 0
6, 31464, Note_on_c, 4, 79, 93
6, 31470, Note_off_c, 4, 79, 0
6, 31470, Note_on_c, 4, 70, 93
6, 31482, Note_off_c, 4, 70, 0
6, 31482, Note_on_c, 4, 62, 93
6, 31488, Note_off_c, 4, 62, 0
6, 31488, Note_on_c, 4, 62, 93
6, 31494, Note_off_c, 4, 62, 0
6, 31494, Note_on_c, 4, 71, 93
6, 31506, Note_off_c, 4, 71, 0
6, 31506, Note_on_c, 4, 80, 93
6, 31512, Note_off_c, 4, 80, 0
6, 31512, Note_on_c, 4, 80, 93
6, 31518, Note_off_c, 4, 80, 0
6, 31518, Note_on_c, 4, 71, 93
6, 31530, Note_off_c, 4, 71, 0
6, 31530, Note_on_c, 4, 62, 93
6, 31536, Note_off_c, 4, 62, 0
6, 31536, Note_on_c, 4, 62, 93
6, 31542, Note_off_c, 4, 62, 0
6, 31542, Note_on_c, 4, 71, 93
6, 31554, Note_off_c, 4, 71, 0
6, 31554, Note_on_c, 4, 80, 93
6, 31560, Note_off_c, 4, 80, 0
6, 31560, Note_on_c, 4, 80, 93
6, 31566, Note_off_c, 4, 80, 0
6, 31566, Note_on_c, 4, 71, 93
6, 31578, Note_off_c, 4, 71, 0
6, 31578, Note_on_c, 4, 62, 93
6, 31584, Note_off_c, 4, 62, 0
6, 31584, Note_on_c, 4, 64, 93
6, 31590, Note_off_c, 4, 64, 0
6, 31590, Note_on_c, 4, 74, 93
6, 31602, Note_off_c, 4, 74, 0
6, 31602, Note_on_c, 4, 80, 93
6, 31608, Note_off_c, 4, 80, 0
6, 31608, Note_on_c, 4, 80, 93
6, 31614, Note_off_c, 4, 80, 0
6, 31614, Note_on_c, 4, 74, 93
6, 31626, Note_off_c, 4, 74, 0
6, 31626, Note_on_c, 4, 64, 93
6, 31632, Note_off_c, 4, 64, 0
6, 31632, Note_on_c, 4, 64, 93
6, 31638, Note_off_c, 4, 64, 0
6, 31638, Note_on_c, 4, 74, 93
6, 31650, Note_off_c, 4, 74, 0
6, 31650, Note_on_c, 4, 80, 93
6, 31656, Note_off_c, 4, 80, 0
6, 31656, Note_on_c, 4, 80, 93
6, 31662, Note_off_c, 4, 80, 0
6, 31662, Note_on_c, 4, 74, 93
6, 31674, Note_off_c, 4, 74, 0
6, 31674, Note_on_c, 4, 64, 93
6, 31680, Note_off_c, 4, 64, 0
6, 31680, Note_on_c, 4, 65, 93
6, 31686, Note_off_c, 4, 65, 0
6, 31686, Note_on_c, 4, 72, 93
6, 31698, Note_off_c, 4, 72, 0
6, 31698, Note_on_c, 4, 81, 93
6, 31704, Note_off_c, 4, 81, 0
6, 31704, Note_on_c, 4, 81, 93
6, 31710, Note_off_c, 4, 81, 0
6, 31710, Note_on_c, 4, 72, 93
6, 31722, Note_off_c, 4, 72, 0
6, 31722, Note_on_c, 4, 65, 93
6, 31728, Note_off_c, 4, 65, 0
6, 31728, Note_on_c, 4, 65, 93
6, 31734, Note_off_c, 4, 65, 0
6, 31734, Note_on_c, 4, 72, 93
6, 31746, Note_off_c, 4, 72, 0
6, 31746, Note_on_c, 4, 81, 93
6, 31752, Note_off_c, 4, 81, 0
6, 31752, Note_on_c, 4, 81, 93
6, 31758, Note_off_c, 4, 81, 0
6, 31758, Note_on_c, 4, 72, 93
6, 31770, Note_off_c, 4, 72, 0
6, 31770, Note_on_c, 4, 65, 93
6, 31776, Note_off_c, 4, 65, 0
6, 31776, Note_on_c, 4, 66, 93
6, 31782, Note_off_c, 4, 66, 0
6, 31782, Note_on_c, 4, 75, 93
6, 31794, Note_off_c, 4, 75, 0
6, 31794, Note_on_c, 4, 84, 93
6, 31800, Note_off_c, 4, 84, 0
6, 31800, Note_on_c, 4, 84, 93
6, 31806, Note_off_c, 4, 84, 0
6, 31806, Note_on_c, 4, 75, 93
6, 31818, Note_off_c, 4, 75, 0
6, 31818, Note_on_c, 4, 66, 93
6, 31824, Note_off_c, 4, 66, 0
6, 31824, Note_on_c, 4, 66, 93
6, 31830, Note_off_c, 4, 66, 0
6, 31830, Note_on_c, 4, 75, 93
6, 31842, Note_off_c, 4, 75, 0
6, 31842, Note_on_c, 4, 84, 93
6, 31848, Note_off_c, 4, 84, 0
6, 31848, Note_on_c, 4, 84, 93
6, 31854, Note_off_c, 4, 84, 0
6, 31854, Note_on_c, 4, 75, 93
6, 31866, Note_off_c, 4, 75, 0
6, 31866, Note_on_c, 4, 66, 93
6, 31872, Note_off_c, 4, 66, 0
6, 31872, Note_on_c, 4, 67, 93
6, 31878, Note_off_c, 4, 67, 0
6, 31878, Note_on_c, 4, 74, 93
6, 31890, Note_off_c, 4, 74, 0
6, 31890, Note_on_c, 4, 83, 93
6, 31896, Note_off_c, 4, 83, 0
6, 31896, Note_on_c, 4, 83, 93
6, 31902, Note_off_c, 4, 83, 0
6, 31902, Note_on_c, 4, 74, 93
6, 31914, Note_off_c, 4, 74, 0
6, 31914, Note_on_c, 4, 67, 93
6, 31920, Note_off_c, 4, 67, 0
6, 31920, Note_on_c, 4, 67, 93
6, 31926, Note_off_c, 4, 67, 0
6, 31926, Note_on_c, 4, 74, 93
6, 31938, Note_off_c, 4, 74, 0
6, 31938, Note_on_c, 4, 83, 93
6, 31944, Note_off_c, 4, 83, 0
6, 31944, Note_on_c, 4, 83, 93
6, 31950, Note_off_c, 4, 83, 0
6, 31950, Note_on_c, 4, 74, 93
6, 31962, Note_off_c, 4, 74, 0
6, 31962, Note_on_c, 4, 67, 93
6, 31968, Note_off_c, 4, 67, 0
6, 31968, Note_on_c, 4, 68, 93
6, 31974, Note_off_c, 4, 68, 0
6, 31974, Note_on_c, 4, 77, 93
6, 31986, Note_off_c, 4, 77, 0
6, 31986, Note_on_c, 4, 86, 93
6, 31992, Note_off_c, 4, 86, 0
6, 31992, Note_on_c, 4, 86, 93
6, 31998, Note_off_c, 4, 86, 0
6, 31998, Note_on_c, 4, 77, 93
6, 32010, Note_off_c, 4, 77, 0
6, 32010, Note_on_c, 4, 68, 93
6, 32016, Note_off_c, 4, 68, 0
6, 32016, Note_on_c, 4, 68, 93
6, 32022, Note_off_c, 4, 68, 0
6, 32022, Note_on_c, 4, 77, 93
6, 32034, Note_off_c, 4, 77, 0
6, 32034, Note_on_c, 4, 86, 93
6, 32040, Note_off_c, 4, 86, 0
6, 32040, Note_on_c, 4, 86, 93
6, 32046, Note_off_c, 4, 86, 0
6, 32046, Note_on_c, 4, 77, 93
6, 32058, Note_off_c, 4, 77, 0
6, 32058, Note_on_c, 4, 68, 93
6, 32064, Note_off_c, 4, 68, 0
6, 32064, Note_on_c, 4, 69, 93
6, 32070, Note_off_c, 4, 69, 0
6, 32070, Note_on_c, 4, 76, 93
6, 32082, Note_off_c, 4, 76, 0
6, 32082, Note_on_c, 4, 86, 93
6, 32088, Note_off_c, 4, 86, 0
6, 32088, Note_on_c, 4, 86, 93
6, 32094, Note_off_c, 4, 86, 0
6, 32094, Note_on_c, 4, 76, 93
6, 32106, Note_off_c, 4, 76, 0
6, 32106, Note_on_c, 4, 69, 93
6, 32112, Note_off_c, 4, 69, 0
6, 32112, Note_on_c, 4, 69, 93
6, 32118, Note_off_c, 4, 69, 0
6, 32118, Note_on_c, 4, 76, 93
6, 32130, Note_off_c, 4, 76, 0
6, 32130, Note_on_c, 4, 86, 93
6, 32136, Note_off_c, 4, 86, 0
6, 32136, Note_on_c, 4, 86, 93
6, 32142, Note_off_c, 4, 86, 0
6, 32142, Note_on_c, 4, 76, 93
6, 32154, Note_off_c, 4, 76, 0
6, 32154, Note_on_c, 4, 69, 93
6, 32160, Note_off_c, 4, 69, 0
6, 32160, Note_on_c, 4, 69, 93
6, 32166, Note_off_c, 4, 69, 0
6, 32166, Note_on_c, 4, 76, 93
6, 32178, Note_off_c, 4, 76, 0
6, 32178, Note_on_c, 4, 85, 93
6, 32184, Note_off_c, 4, 85, 0
6, 32184, Note_on_c, 4, 85, 93
6, 32190, Note_off_c, 4, 85, 0
6, 32190, Note_on_c, 4, 76, 93
6, 32202, Note_off_c, 4, 76, 0
6, 32202, Note_on_c, 4, 69, 93
6, 32208, Note_off_c, 4, 69, 0
6, 32208, Note_on_c, 4, 69, 93
6, 32214, Note_off_c, 4, 69, 0
6, 32214, Note_on_c, 4, 76, 93
6, 32226, Note_off_c, 4, 76, 0
6, 32226, Note_on_c, 4, 85, 93
6, 32232, Note_off_c, 4, 85, 0
6, 32232, Note_on_c, 4, 85, 93
6, 32238, Note_off_c, 4, 85, 0
6, 32238, Note_on_c, 4, 76, 93
6, 32250, Note_off_c, 4, 76, 0
6, 32250, Note_on_c, 4, 69, 93
6, 32256, Note_off_c, 4, 69, 0
6, 32256, Note_on_c, 4, 62, 93
6, 32262, Note_off_c, 4, 62, 0
6, 32262, Note_on_c, 4, 77, 93
6, 32274, Note_off_c, 4, 77, 0
6, 32274, Note_on_c, 4, 86, 93
6, 32280, Note_off_c, 4, 86, 0
6, 32280, Note_on_c, 4, 86, 93
6, 32286, Note_off_c, 4, 86, 0
6, 32286, Note_on_c, 4, 77, 93
6, 32298, Note_off_c, 4, 77, 0
6, 32298, Note_on_c, 4, 62, 93
6, 32304, Note_off_c, 4, 62, 0
6, 32304, Note_on_c, 4, 62, 93
6, 32310, Note_off_c, 4, 62, 0
6, 32310, Note_on_c, 4, 77, 93
6, 32322, Note_off_c, 4, 77, 0
6, 32322, Note_on_c, 4, 86, 93
6, 32328, Note_off_c, 4, 86, 0
6, 32328, Note_on_c, 4, 86, 93
6, 32334, Note_off_c, 4, 86, 0
6, 32334, Note_on_c, 4, 77, 93
6, 32346, Note_off_c, 4, 77, 0
6, 32346, Note_on_c, 4, 62, 93
6, 32352, Note_off_c, 4, 62, 0
6, 32352, Note_on_c, 4, 70, 93
6, 32358, Note_off_c, 4, 70, 0
6, 32358, Note_on_c, 4, 77, 93
6, 32370, Note_off_c, 4, 77, 0
6, 32370, Note_on_c, 4, 86, 93
6, 32376, Note_off_c, 4, 86, 0
6, 32376, Note_on_c, 4, 86, 93
6, 32382, Note_off_c, 4, 86, 0
6, 32382, Note_on_c, 4, 77, 93
6, 32394, Note_off_c, 4, 77, 0
6, 32394, Note_on_c, 4, 70, 93
6, 32400, Note_off_c, 4, 70, 0
6, 32400, Note_on_c, 4, 70, 93
6, 32406, Note_off_c, 4, 70, 0
6, 32406, Note_on_c, 4, 77, 93
6, 32418, Note_off_c, 4, 77, 0
6, 32418, Note_on_c, 4, 86, 93
6, 32424, Note_off_c, 4, 86, 0
6, 32424, Note_on_c, 4, 86, 93
6, 32430, Note_off_c, 4, 86, 0
6, 32430, Note_on_c, 4, 77, 93
6, 32442, Note_off_c, 4, 77, 0
6, 32442, Note_on_c, 4, 70, 93
6, 32448, Note_off_c, 4, 70, 0
6, 32448, Note_on_c, 4, 69, 93
6, 32454, Note_off_c, 4, 69, 0
6, 32454, Note_on_c, 4, 77, 93
6, 32466, Note_off_c, 4, 77, 0
6, 32466, Note_on_c, 4, 86, 93
6, 32472, Note_off_c, 4, 86, 0
6, 32472, Note_on_c, 4, 86, 93
6, 32478, Note_off_c, 4, 86, 0
6, 32478, Note_on_c, 4, 77, 93
6, 32490, Note_off_c, 4, 77, 0
6, 32490, Note_on_c, 4, 69, 93
6, 32496, Note_off_c, 4, 69, 0
6, 32496, Note_on_c, 4, 69, 93
6, 32502, Note_off_c, 4, 69, 0
6, 32502, Note_on_c, 4, 77, 93
6, 32514, Note_off_c, 4, 77, 0
6, 32514, Note_on_c, 4, 86, 93
6, 32520, Note_off_c, 4, 86, 0
6, 32520, Note_on_c, 4, 86, 93
6, 32526, Note_off_c, 4, 86, 0
6, 32526, Note_on_c, 4, 77, 93
6, 32538, Note_off_c, 4, 77, 0
6, 32538, Note_on_c, 4, 69, 93
6, 32544, Note_off_c, 4, 69, 0
6, 32544, Note_on_c, 4, 68, 93
6, 32550, Note_off_c, 4, 68, 0
6, 32550, Note_on_c, 4, 76, 93
6, 32562, Note_off_c, 4, 76, 0
6, 32562, Note_on_c, 4, 86, 93
6, 32568, Note_off_c, 4, 86, 0
6, 32568, Note_on_c, 4, 86, 93
6, 32574, Note_off_c, 4, 86, 0
6, 32574, Note_on_c, 4, 76, 93
6, 32586, Note_off_c, 4, 76, 0
6, 32586, Note_on_c, 4, 68, 93
6, 32592, Note_off_c, 4, 68, 0
6, 32592, Note_on_c, 4, 68, 93
6, 32598, Note_off_c, 4, 68, 0
6, 32598, Note_on_c, 4, 76, 93
6, 32610, Note_off_c, 4, 76, 0
6, 32610, Note_on_c, 4, 86, 93
6, 32616, Note_off_c, 4, 86, 0
6, 32616, Note_on_c, 4, 86, 93
6, 32622, Note_off_c, 4, 86, 0
6, 32622, Note_on_c, 4, 76, 93
6, 32634, Note_off_c, 4, 76, 0
6, 32634, Note_on_c, 4, 68, 93
6, 32640, Note_off_c, 4, 68, 0
6, 32640, Note_on_c, 4, 69, 93
6, 32646, Note_off_c, 4, 69, 0
6, 32646, Note_on_c, 4, 76, 93
6, 32658, Note_off_c, 4, 76, 0
6, 32658, Note_on_c, 4, 85, 93
6, 32664, Note_off_c, 4, 85, 0
6, 32664, Note_on_c, 4, 85, 93
6, 32670, Note_off_c, 4, 85, 0
6, 32670, Note_on_c, 4, 76, 93
6, 32682, Note_off_c, 4, 76, 0
6, 32682, Note_on_c, 4, 69, 93
6, 32688, Note_off_c, 4, 69, 0
6, 32688, Note_on_c, 4, 69, 93
6, 32694, Note_off_c, 4, 69, 0
6, 32694, Note_on_c, 4, 76, 93
6, 32706, Note_off_c, 4, 76, 0
6, 32706, Note_on_c, 4, 85, 93
6, 32712, Note_off_c, 4, 85, 0
6, 32712, Note_on_c, 4, 85, 93
6, 32718, Note_off_c, 4, 85, 0
6, 32718, Note_on_c, 4, 76, 93
6, 32730, Note_off_c, 4, 76, 0
6, 32730, Note_on_c, 4, 69, 93
6, 32736, Note_off_c, 4, 69, 0
6, 32736, Note_on_c, 4, 67, 93
6, 32742, Note_off_c, 4, 67, 0
6, 32742, Note_on_c, 4, 76, 93
6, 32754, Note_off_c, 4, 76, 0
6, 32754, Note_on_c, 4, 85, 93
6, 32760, Note_off_c, 4, 85, 0
6, 32760, Note_on_c, 4, 85, 93
6, 32766, Note_off_c, 4, 85, 0
6, 32766, Note_on_c, 4, 76, 93
6, 32778, Note_off_c, 4, 76, 0
6, 32778, Note_on_c, 4, 67, 93
6, 32784, Note_off_c, 4, 67, 0
6, 32784, Note_on_c, 4, 67, 93
6, 32790, Note_off_c, 4, 67, 0
6, 32790, Note_on_c, 4, 76, 93
6, 32802, Note_off_c, 4, 76, 0
6, 32802, Note_on_c, 4, 85, 93
6, 32808, Note_off_c, 4, 85, 0
6, 32808, Note_on_c, 4, 85, 93
6, 32814, Note_off_c, 4, 85, 0
6, 32814, Note_on_c, 4, 76, 93
6, 32826, Note_off_c, 4, 76, 0
6, 32826, Note_on_c, 4, 67, 93
6, 32832, Note_off_c, 4, 67, 0
6, 32832, Note_on_c, 4, 66, 93
6, 32838, Note_off_c, 4, 66, 0
6, 32838, Note_on_c, 4, 74, 93
6, 32850, Note_off_c, 4, 74, 0
6, 32850, Note_on_c, 4, 84, 93
6, 32856, Note_off_c, 4, 84, 0
6, 32856, Note_on_c, 4, 84, 93
6, 32862, Note_off_c, 4, 84, 0
6, 32862, Note_on_c, 4, 74, 93
6, 32874, Note_off_c, 4, 74, 0
6, 32874, Note_on_c, 4, 66, 93
6, 32880, Note_off_c, 4, 66, 0
6, 32880, Note_on_c, 4, 66, 93
6, 32886, Note_off_c, 4, 66, 0
6, 32886, Note_on_c, 4, 74, 93
6, 32898, Note_off_c, 4, 74, 0
6, 32898, Note_on_c, 4, 84, 93
6, 32904, Note_off_c, 4, 84, 0
6, 32904, Note_on_c, 4, 84, 93
6, 32910, Note_off_c, 4, 84, 0
6, 32910, Note_on_c, 4, 74, 93
6, 32922, Note_off_c, 4, 74, 0
6, 32922, Note_on_c, 4, 66, 93
6, 32928, Note_off_c, 4, 66, 0
6, 32928, Note_on_c, 4, 67, 93
6, 32934, Note_off_c, 4, 67, 0
6, 32934, Note_on_c, 4, 74, 93
6, 32946, Note_off_c, 4, 74, 0
6, 32946, Note_on_c, 4, 83, 93
6, 32952, Note_off_c, 4, 83, 0
6, 32952, Note_on_c, 4, 83, 93
6, 32958, Note_off_c, 4, 83, 0
6, 32958, Note_on_c, 4, 74, 93
6, 32970, Note_off_c, 4, 74, 0
6, 32970, Note_on_c, 4, 67, 93
6, 32976, Note_off_c, 4, 67, 0
6, 32976, Note_on_c, 4, 67, 93
6, 32982, Note_off_c, 4, 67, 0
6, 32982, Note_on_c, 4, 74, 93
6, 32994, Note_off_c, 4, 74, 0
6, 32994, Note_on_c, 4, 83, 93
6, 33000, Note_off_c, 4, 83, 0
6, 33000, Note_on_c, 4, 83, 93
6, 33006, Note_off_c, 4, 83, 0
6, 33006, Note_on_c, 4, 74, 93
6, 33018, Note_off_c, 4, 74, 0
6, 33018, Note_on_c, 4, 67, 93
6, 33024, Note_off_c, 4, 67, 0
6, 33024, Note_on_c, 4, 65, 93
6, 33030, Note_off_c, 4, 65, 0
6, 33030, Note_on_c, 4, 74, 93
6, 33042, Note_off_c, 4, 74, 0
6, 33042, Note_on_c, 4, 83, 93
6, 33048, Note_off_c, 4, 83, 0
6, 33048, Note_on_c, 4, 83, 93
6, 33054, Note_off_c, 4, 83, 0
6, 33054, Note_on_c, 4, 74, 93
6, 33066, Note_off_c, 4, 74, 0
6, 33066, Note_on_c, 4, 65, 93
6, 33072, Note_off_c, 4, 65, 0
6, 33072, Note_on_c, 4, 65, 93
6, 33078, Note_off_c, 4, 65, 0
6, 33078, Note_on_c, 4, 74, 93
6, 33090, Note_off_c, 4, 74, 0
6, 33090, Note_on_c, 4, 83, 93
6, 33096, Note_off_c, 4, 83, 0
6, 33096, Note_on_c, 4, 83, 93
6, 33102, Note_off_c, 4, 83, 0
6, 33102, Note_on_c, 4, 74, 93
6, 33114, Note_off_c, 4, 74, 0
6, 33114, Note_on_c, 4, 65, 93
6, 33120, Note_off_c, 4, 65, 0
6, 33120, Note_on_c, 4, 64, 93
6, 33126, Note_off_c, 4, 64, 0
6, 33126, Note_on_c, 4, 73, 93
6, 33138, Note_off_c, 4, 73, 0
6, 33138, Note_on_c, 4, 82, 93
6, 33144, Note_off_c, 4, 82, 0
6, 33144, Note_on_c, 4, 82, 93
6, 33150, Note_off_c, 4, 82, 0
6, 33150, Note_on_c, 4, 73, 93
6, 33162, Note_off_c, 4, 73, 0
6, 33162, Note_on_c, 4, 64, 93
6, 33168, Note_off_c, 4, 64, 0
6, 33168, Note_on_c, 4, 64, 93
6, 33174, Note_off_c, 4, 64, 0
6, 33174, Note_on_c, 4, 73, 93
6, 33186, Note_off_c, 4, 73, 0
6, 33186, Note_on_c, 4, 82, 93
6, 33192, Note_off_c, 4, 82, 0
6, 33192, Note_on_c, 4, 82, 93
6, 33198, Note_off_c, 4, 82, 0
6, 33198, Note_on_c, 4, 73, 93
6, 33210, Note_off_c, 4, 73, 0
6, 33210, Note_on_c, 4, 64, 93
6, 33216, Note_off_c, 4, 64, 0
6, 33216, Note_on_c, 4, 65, 93
6, 33222, Note_off_c, 4, 65, 0
6, 33222, Note_on_c, 4, 74, 93
6, 33234, Note_off_c, 4, 74, 0
6, 33234, Note_on_c, 4, 81, 93
6, 33240, Note_off_c, 4, 81, 0
6, 33240, Note_on_c, 4, 81, 93
6, 33246, Note_off_c, 4, 81, 0
6, 33246, Note_on_c, 4, 74, 93
6, 33258, Note_off_c, 4, 74, 0
6, 33258, Note_on_c, 4, 65, 93
6, 33264, Note_off_c, 4, 65, 0
6, 33264, Note_on_c, 4, 65, 93
6, 33270, Note_off_c, 4, 65, 0
6, 33270, Note_on_c, 4, 74, 93
6, 33282, Note_off_c, 4, 74, 0
6, 33282, Note_on_c, 4, 81, 93
6, 33288, Note_off_c, 4, 81, 0
6, 33288, Note_on_c, 4, 81, 93
6, 33294, Note_off_c, 4, 81, 0
6, 33294, Note_on_c, 4, 74, 93
6, 33306, Note_off_c, 4, 74, 0
6, 33306, Note_on_c, 4, 65, 93
6, 33312, Note_off_c, 4, 65, 0
6, 33312, Note_on_c, 4, 67, 93
6, 33318, Note_off_c, 4, 67, 0
6, 33318, Note_on_c, 4, 73, 93
6, 33330, Note_off_c, 4, 73, 0
6, 33330, Note_on_c, 4, 79, 93
6, 33336, Note_off_c, 4, 79, 0
6, 33336, Note_on_c, 4, 79, 93
6, 33342, Note_off_c, 4, 79, 0
6, 33342, Note_on_c, 4, 73, 93
6, 33354, Note_off_c, 4, 73, 0
6, 33354, Note_on_c, 4, 67, 93
6, 33360, Note_off_c, 4, 67, 0
6, 33360, Note_on_c, 4, 67, 93
6, 33366, Note_off_c, 4, 67, 0
6, 33366, Note_on_c, 4, 73, 93
6, 33378, Note_off_c, 4, 73, 0
6, 33378, Note_on_c, 4, 79, 93
6, 33384, Note_off_c, 4, 79, 0
6, 33384, Note_on_c, 4, 79, 93
6, 33390, Note_off_c, 4, 79, 0
6, 33390, Note_on_c, 4, 73, 93
6, 33402, Note_off_c, 4, 73, 0
6, 33402, Note_on_c, 4, 67, 93
6, 33408, Note_off_c, 4, 67, 0
6, 33408, Note_on_c, 4, 62, 93
6, 33414, Note_off_c, 4, 62, 0
6, 33414, Note_on_c, 4, 74, 93
6, 33426, Note_off_c, 4, 74, 0
6, 33426, Note_on_c, 4, 78, 93
6, 33432, Note_off_c, 4, 78, 0
6, 33432, Note_on_c, 4, 78, 93
6, 33438, Note_off_c, 4, 78, 0
6, 33438, Note_on_c, 4, 74, 93
6, 33450, Note_off_c, 4, 74, 0
6, 33450, Note_on_c, 4, 62, 93
6, 33456, Note_off_c, 4, 62, 0
6, 33456, Note_on_c, 4, 62, 93
6, 33462, Note_off_c, 4, 62, 0
6, 33462, Note_on_c, 4, 74, 93
6, 33474, Note_off_c, 4, 74, 0
6, 33474, Note_on_c, 4, 78, 93
6, 33480, Note_off_c, 4, 78, 0
6, 33480, Note_on_c, 4, 78, 93
6, 33486, Note_off_c, 4, 78, 0
6, 33486, Note_on_c, 4, 74, 93
6, 33498, Note_off_c, 4, 74, 0
6, 33498, Note_on_c, 4, 62, 93
6, 33504, Note_off_c, 4, 62, 0
6, 33504, Note_on_c, 4, 57, 93
6, 33510, Note_off_c, 4, 57, 0
6, 33510, Note_on_c, 4, 69, 93
6, 33516, Note_off_c, 4, 69, 0
6, 33516, Note_on_c, 4, 72, 93
6, 33522, Note_off_c, 4, 72, 0
6, 33522, Note_on_c, 4, 77, 93
6, 33528, Note_off_c, 4, 77, 0
6, 33534, Note_on_c, 4, 77, 93
6, 33540, Note_off_c, 4, 77, 0
6, 33540, Note_on_c, 4, 72, 93
6, 33546, Note_off_c, 4, 72, 0
6, 33546, Note_on_c, 4, 69, 93
6, 33552, Note_off_c, 4, 69, 0
6, 33552, Note_on_c, 4, 69, 93
6, 33558, Note_off_c, 4, 69, 0
6, 33558, Note_on_c, 4, 72, 93
6, 33570, Note_off_c, 4, 72, 0
6, 33570, Note_on_c, 4, 77, 93
6, 33576, Note_off_c, 4, 77, 0
6, 33576, Note_on_c, 4, 77, 93
6, 33582, Note_off_c, 4, 77, 0
6, 33582, Note_on_c, 4, 72, 93
6, 33594, Note_off_c, 4, 72, 0
6, 33594, Note_on_c, 4, 69, 93
6, 33600, Note_off_c, 4, 69, 0
6, 33600, Note_on_c, 4, 59, 93
6, 33606, Note_off_c, 4, 59, 0
6, 33606, Note_on_c, 4, 67, 93
6, 33612, Note_off_c, 4, 67, 0
6, 33612, Note_on_c, 4, 74, 93
6, 33618, Note_off_c, 4, 74, 0
6, 33618, Note_on_c, 4, 77, 93
6, 33630, Note_off_c, 4, 77, 0
6, 33630, Note_on_c, 4, 77, 93
6, 33636, Note_off_c, 4, 77, 0
6, 33636, Note_on_c, 4, 74, 93
6, 33642, Note_off_c, 4, 74, 0
6, 33642, Note_on_c, 4, 67, 93
6, 33648, Note_off_c, 4, 67, 0
6, 33648, Note_on_c, 4, 67, 93
6, 33654, Note_off_c, 4, 67, 0
6, 33654, Note_on_c, 4, 74, 93
6, 33666, Note_off_c, 4, 74, 0
6, 33666, Note_on_c, 4, 77, 93
6, 33672, Note_off_c, 4, 77, 0
6, 33672, Note_on_c, 4, 77, 93
6, 33678, Note_off_c, 4, 77, 0
6, 33678, Note_on_c, 4, 74, 93
6, 33690, Note_off_c, 4, 74, 0
6, 33690, Note_on_c, 4, 67, 93
6, 33696, Note_off_c, 4, 67, 0
6, 33696, Note_on_c, 4, 60, 93
6, 33702, Note_off_c, 4, 60, 0
6, 33702, Note_on_c, 4, 67, 93
6, 33708, Note_off_c, 4, 67, 0
6, 33708, Note_on_c, 4, 72, 93
6, 33714, Note_off_c, 4, 72, 0
6, 33714, Note_on_c, 4, 76, 93
6, 33726, Note_off_c, 4, 76, 0
6, 33726, Note_on_c, 4, 76, 93
6, 33732, Note_off_c, 4, 76, 0
6, 33732, Note_on_c, 4, 72, 93
6, 33738, Note_off_c, 4, 72, 0
6, 33738, Note_on_c, 4, 67, 93
6, 33744, Note_off_c, 4, 67, 0
6, 33744, Note_on_c, 4, 67, 93
6, 33750, Note_off_c, 4, 67, 0
6, 33750, Note_on_c, 4, 72, 93
6, 33762, Note_off_c, 4, 72, 0
6, 33762, Note_on_c, 4, 76, 93
6, 33768, Note_off_c, 4, 76, 0
6, 33768, Note_on_c, 4, 76, 93
6, 33774, Note_off_c, 4, 76, 0
6, 33774, Note_on_c, 4, 72, 93
6, 33786, Note_off_c, 4, 72, 0
6, 33786, Note_on_c, 4, 67, 93
6, 33792, Note_off_c, 4, 67, 0
6, 33792, Note_on_c, 4, 55, 93
6, 33798, Note_off_c, 4, 55, 0
6, 33798, Note_on_c, 4, 67, 93
6, 33810, Note_off_c, 4, 67, 0
6, 33810, Note_on_c, 4, 75, 93
6, 33816, Note_off_c, 4, 75, 0
6, 33816, Note_on_c, 4, 75, 93
6, 33822, Note_off_c, 4, 75, 0
6, 33822, Note_on_c, 4, 67, 93
6, 33834, Note_off_c, 4, 67, 0
6, 33834, Note_on_c, 4, 55, 93
6, 33840, Note_off_c, 4, 55, 0
6, 33840, Note_on_c, 4, 55, 93
6, 33846, Note_off_c, 4, 55, 0
6, 33846, Note_on_c, 4, 67, 93
6, 33858, Note_off_c, 4, 67, 0
6, 33858, Note_on_c, 4, 75, 93
6, 33864, Note_off_c, 4, 75, 0
6, 33864, Note_on_c, 4, 75, 93
6, 33870, Note_off_c, 4, 75, 0
6, 33870, Note_on_c, 4, 67, 93
6, 33882, Note_off_c, 4, 67, 0
6, 33882, Note_on_c, 4, 55, 93
6, 33888, Note_off_c, 4, 55, 0
6, 33888, Note_on_c, 4, 57, 93
6, 33894, Note_off_c, 4, 57, 0
6, 33894, Note_on_c, 4, 65, 93
6, 33906, Note_off_c, 4, 65, 0
6, 33906, Note_on_c, 4, 75, 93
6, 33912, Note_off_c, 4, 75, 0
6, 33912, Note_on_c, 4, 75, 93
6, 33918, Note_off_c, 4, 75, 0
6, 33918, Note_on_c, 4, 65, 93
6, 33930, Note_off_c, 4, 65, 0
6, 33930, Note_on_c, 4, 57, 93
6, 33936, Note_off_c, 4, 57, 0
6, 33936, Note_on_c, 4, 57, 93
6, 33942, Note_off_c, 4, 57, 0
6, 33942, Note_on_c, 4, 65, 93
6, 33954, Note_off_c, 4, 65, 0
6, 33954, Note_on_c, 4, 75, 93
6, 33960, Note_off_c, 4, 75, 0
6, 33960, Note_on_c, 4, 75, 93
6, 33966, Note_off_c, 4, 75, 0
6, 33966, Note_on_c, 4, 65, 93
6, 33978, Note_off_c, 4, 65, 0
6, 33978, Note_on_c, 4, 57, 93
6, 33984, Note_off_c, 4, 57, 0
6, 33984, Note_on_c, 4, 58, 93
6, 33990, Note_off_c, 4, 58, 0
6, 33990, Note_on_c, 4, 65, 93
6, 34002, Note_off_c, 4, 65, 0
6, 34002, Note_on_c, 4, 74, 93
6, 34008, Note_off_c, 4, 74, 0
6, 34008, Note_on_c, 4, 74, 93
6, 34014, Note_off_c, 4, 74, 0
6, 34014, Note_on_c, 4, 65, 93
6, 34026, Note_off_c, 4, 65, 0
6, 34026, Note_on_c, 4, 58, 93
6, 34032, Note_off_c, 4, 58, 0
6, 34032, Note_on_c, 4, 58, 93
6, 34038, Note_off_c, 4, 58, 0
6, 34038, Note_on_c, 4, 65, 93
6, 34050, Note_off_c, 4, 65, 0
6, 34050, Note_on_c, 4, 74, 93
6, 34056, Note_off_c, 4, 74, 0
6, 34056, Note_on_c, 4, 74, 93
6, 34062, Note_off_c, 4, 74, 0
6, 34062, Note_on_c, 4, 65, 93
6, 34074, Note_off_c, 4, 65, 0
6, 34074, Note_on_c, 4, 58, 93
6, 34080, Note_off_c, 4, 58, 0
6, 34080, Note_on_c, 4, 58, 93
6, 34086, Note_off_c, 4, 58, 0
6, 34086, Note_on_c, 4, 67, 93
6, 34098, Note_off_c, 4, 67, 0
6, 34098, Note_on_c, 4, 74, 93
6, 34104, Note_off_c, 4, 74, 0
6, 34104, Note_on_c, 4, 74, 93
6, 34110, Note_off_c, 4, 74, 0
6, 34110, Note_on_c, 4, 67, 93
6, 34122, Note_off_c, 4, 67, 0
6, 34122, Note_on_c, 4, 58, 93
6, 34128, Note_off_c, 4, 58, 0
6, 34128, Note_on_c, 4, 58, 93
6, 34134, Note_off_c, 4, 58, 0
6, 34134, Note_on_c, 4, 67, 93
6, 34146, Note_off_c, 4, 67, 0
6, 34146, Note_on_c, 4, 74, 93
6, 34152, Note_off_c, 4, 74, 0
6, 34152, Note_on_c, 4, 74, 93
6, 34158, Note_off_c, 4, 74, 0
6, 34158, Note_on_c, 4, 67, 93
6, 34170, Note_off_c, 4, 67, 0
6, 34170, Note_on_c, 4, 58, 93
6, 34176, Note_off_c, 4, 58, 0
6, 34176, Note_on_c, 4, 57, 93
6, 34182, Note_off_c, 4, 57, 0
6, 34182, Note_on_c, 4, 65, 93
6, 34194, Note_off_c, 4, 65, 0
6, 34194, Note_on_c, 4, 74, 93
6, 34200, Note_off_c, 4, 74, 0
6, 34200, Note_on_c, 4, 74, 93
6, 34206, Note_off_c, 4, 74, 0
6, 34206, Note_on_c, 4, 65, 93
6, 34218, Note_off_c, 4, 65, 0
6, 34218, Note_on_c, 4, 57, 93
6, 34224, Note_off_c, 4, 57, 0
6, 34224, Note_on_c, 4, 57, 93
6, 34230, Note_off_c, 4, 57, 0
6, 34230, Note_on_c, 4, 65, 93
6, 34242, Note_off_c, 4, 65, 0
6, 34242, Note_on_c, 4, 74, 93
6, 34248, Note_off_c, 4, 74, 0
6, 34248, Note_on_c, 4, 74, 93
6, 34254, Note_off_c, 4, 74, 0
6, 34254, Note_on_c, 4, 65, 93
6, 34266, Note_off_c, 4, 65, 0
6, 34266, Note_on_c, 4, 57, 93
6, 34272, Note_off_c, 4, 57, 0
6, 34272, Note_on_c, 4, 56, 93
6, 34278, Note_off_c, 4, 56, 0
6, 34278, Note_on_c, 4, 64, 93
6, 34290, Note_off_c, 4, 64, 0
6, 34290, Note_on_c, 4, 74, 93
6, 34296, Note_off_c, 4, 74, 0
6, 34296, Note_on_c, 4, 74, 93
6, 34302, Note_off_c, 4, 74, 0
6, 34302, Note_on_c, 4, 64, 93
6, 34314, Note_off_c, 4, 64, 0
6, 34314, Note_on_c, 4, 56, 93
6, 34320, Note_off_c, 4, 56, 0
6, 34320, Note_on_c, 4, 56, 93
6, 34326, Note_off_c, 4, 56, 0
6, 34326, Note_on_c, 4, 64, 93
6, 34338, Note_off_c, 4, 64, 0
6, 34338, Note_on_c, 4, 74, 93
6, 34344, Note_off_c, 4, 74, 0
6, 34344, Note_on_c, 4, 74, 93
6, 34350, Note_off_c, 4, 74, 0
6, 34350, Note_on_c, 4, 64, 93
6, 34362, Note_off_c, 4, 64, 0
6, 34362, Note_on_c, 4, 56, 93
6, 34368, Note_off_c, 4, 56, 0
6, 34368, Note_on_c, 4, 57, 93
6, 34374, Note_off_c, 4, 57, 0
6, 34374, Note_on_c, 4, 64, 93
6, 34386, Note_off_c, 4, 64, 0
6, 34386, Note_on_c, 4, 74, 93
6, 34392, Note_off_c, 4, 74, 0
6, 34392, Note_on_c, 4, 74, 93
6, 34398, Note_off_c, 4, 74, 0
6, 34398, Note_on_c, 4, 64, 93
6, 34410, Note_off_c, 4, 64, 0
6, 34410, Note_on_c, 4, 57, 93
6, 34416, Note_off_c, 4, 57, 0
6, 34416, Note_on_c, 4, 57, 93
6, 34422, Note_off_c, 4, 57, 0
6, 34422, Note_on_c, 4, 64, 93
6, 34434, Note_off_c, 4, 64, 0
6, 34434, Note_on_c, 4, 74, 93
6, 34440, Note_off_c, 4, 74, 0
6, 34440, Note_on_c, 4, 74, 93
6, 34446, Note_off_c, 4, 74, 0
6, 34446, Note_on_c, 4, 64, 93
6, 34458, Note_off_c, 4, 64, 0
6, 34458, Note_on_c, 4, 57, 93
6, 34464, Note_off_c, 4, 57, 0
6, 34464, Note_on_c, 4, 57, 93
6, 34470, Note_off_c, 4, 57, 0
6, 34470, Note_on_c, 4, 64, 93
6, 34482, Note_off_c, 4, 64, 0
6, 34482, Note_on_c, 4, 73, 93
6, 34488, Note_off_c, 4, 73, 0
6, 34488, Note_on_c, 4, 73, 93
6, 34494, Note_off_c, 4, 73, 0
6, 34494, Note_on_c, 4, 64, 93
6, 34506, Note_off_c, 4, 64, 0
6, 34506, Note_on_c, 4, 57, 93
6, 34512, Note_off_c, 4, 57, 0
6, 34512, Note_on_c, 4, 57, 93
6, 34518, Note_off_c, 4, 57, 0
6, 34518, Note_on_c, 4, 64, 93
6, 34530, Note_off_c, 4, 64, 0
6, 34530, Note_on_c, 4, 73, 93
6, 34536, Note_off_c, 4, 73, 0
6, 34536, Note_on_c, 4, 73, 93
6, 34542, Note_off_c, 4, 73, 0
6, 34542, Note_on_c, 4, 64, 93
6, 34554, Note_off_c, 4, 64, 0
6, 34554, Note_on_c, 4, 57, 93
6, 34560, Note_off_c, 4, 57, 0
6, 57600, Note_on_c, 4, 62, 93
6, 57624, Note_off_c, 4, 62, 0
6, 57624, Note_on_c, 4, 78, 93
6, 57648, Note_off_c, 4, 78, 0
6, 57648, Note_on_c, 4, 74, 93
6, 57672, Note_off_c, 4, 74, 0
6, 57672, Note_on_c, 4, 62, 93
6, 57696, Note_off_c, 4, 62, 0
6, 57696, Note_on_c, 4, 62, 93
6, 57720, Note_off_c, 4, 62, 0
6, 57720, Note_on_c, 4, 69, 93
6, 57744, Note_off_c, 4, 69, 0
6, 57744, Note_on_c, 4, 69, 93
6, 57768, Note_off_c, 4, 69, 0
6, 57768, Note_on_c, 4, 62, 93
6, 57792, Note_off_c, 4, 62, 0
6, 57792, Note_on_c, 4, 62, 93
6, 57816, Note_off_c, 4, 62, 0
6, 57816, Note_on_c, 4, 69, 93
6, 57840, Note_off_c, 4, 69, 0
6, 57840, Note_on_c, 4, 69, 93
6, 57864, Note_off_c, 4, 69, 0
6, 57864, Note_on_c, 4, 62, 93
6, 57888, Note_off_c, 4, 62, 0
6, 57888, Note_on_c, 4, 59, 93
6, 57912, Note_off_c, 4, 59, 0
6, 57912, Note_on_c, 4, 78, 93
6, 57936, Note_off_c, 4, 78, 0
6, 57936, Note_on_c, 4, 71, 93
6, 57960, Note_off_c, 4, 71, 0
6, 57960, Note_on_c, 4, 59, 93
6, 57984, Note_off_c, 4, 59, 0
6, 57984, Note_on_c, 4, 62, 93
6, 58008, Note_off_c, 4, 62, 0
6, 58008, Note_on_c, 4, 71, 93
6, 58032, Note_off_c, 4, 71, 0
6, 58032, Note_on_c, 4, 71, 93
6, 58056, Note_off_c, 4, 71, 0
6, 58056, Note_on_c, 4, 59, 93
6, 58080, Note_off_c, 4, 59, 0
6, 58080, Note_on_c, 4, 62, 93
6, 58104, Note_off_c, 4, 62, 0
6, 58104, Note_on_c, 4, 78, 93
6, 58128, Note_off_c, 4, 78, 0
6, 58128, Note_on_c, 4, 78, 93
6, 58152, Note_off_c, 4, 78, 0
6, 58152, Note_on_c, 4, 57, 93
6, 58176, Note_off_c, 4, 57, 0
6, 58176, Note_on_c, 4, 55, 93
6, 58200, Note_off_c, 4, 55, 0
6, 58200, Note_on_c, 4, 76, 93
6, 58224, Note_off_c, 4, 76, 0
6, 58224, Note_on_c, 4, 71, 93
6, 58248, Note_off_c, 4, 71, 0
6, 58248, Note_on_c, 4, 62, 93
6, 58272, Note_off_c, 4, 62, 0
6, 58272, Note_on_c, 4, 55, 93
6, 58296, Note_off_c, 4, 55, 0
6, 58296, Note_on_c, 4, 81, 93
6, 58320, Note_off_c, 4, 81, 0
6, 58320, Note_on_c, 4, 81, 93
6, 58344, Note_off_c, 4, 81, 0
6, 58344, Note_on_c, 4, 55, 93
6, 58368, Note_off_c, 4, 55, 0
6, 58368, Note_on_c, 4, 64, 93
6, 58392, Note_off_c, 4, 64, 0
6, 58392, Note_on_c, 4, 64, 93
6, 58416, Note_off_c, 4, 64, 0
6, 58416, Note_on_c, 4, 64, 93
6, 58440, Note_off_c, 4, 64, 0
6, 58440, Note_on_c, 4, 55, 93
6, 58464, Note_off_c, 4, 55, 0
6, 58464, Note_on_c, 4, 64, 93
6, 58488, Note_off_c, 4, 64, 0
6, 58488, Note_on_c, 4, 74, 93
6, 58512, Note_off_c, 4, 74, 0
6, 58512, Note_on_c, 4, 83, 93
6, 58536, Note_off_c, 4, 83, 0
6, 58536, Note_on_c, 4, 64, 93
6, 58560, Note_off_c, 4, 64, 0
6, 58560, Note_on_c, 4, 64, 93
6, 58584, Note_off_c, 4, 64, 0
6, 58584, Note_on_c, 4, 74, 93
6, 58608, Note_off_c, 4, 74, 0
6, 58608, Note_on_c, 4, 74, 93
6, 58632, Note_off_c, 4, 74, 0
6, 58632, Note_on_c, 4, 64, 93
6, 58656, Note_off_c, 4, 64, 0
6, 58656, Note_on_c, 4, 57, 93
6, 58680, Note_off_c, 4, 57, 0
6, 58680, Note_on_c, 4, 79, 93
6, 58704, Note_off_c, 4, 79, 0
6, 58704, Note_on_c, 4, 73, 93
6, 58728, Note_off_c, 4, 73, 0
6, 58728, Note_on_c, 4, 64, 93
6, 58752, Note_off_c, 4, 64, 0
6, 58752, Note_on_c, 4, 62, 93
6, 58776, Note_off_c, 4, 62, 0
6, 58776, Note_on_c, 4, 74, 93
6, 58800, Note_off_c, 4, 74, 0
6, 58800, Note_on_c, 4, 74, 93
6, 58824, Note_off_c, 4, 74, 0
6, 58824, Note_on_c, 4, 62, 93
6, 58848, Note_off_c, 4, 62, 0
6, 58848, Note_on_c, 4, 69, 93
6, 58872, Note_off_c, 4, 69, 0
6, 58872, Note_on_c, 4, 78, 93
6, 58896, Note_off_c, 4, 78, 0
6, 58896, Note_on_c, 4, 71, 93
6, 58920, Note_off_c, 4, 71, 0
6, 58920, Note_on_c, 4, 71, 93
6, 58944, Note_off_c, 4, 71, 0
6, 58944, Note_on_c, 4, 62, 93
6, 58968, Note_off_c, 4, 62, 0
6, 58968, Note_on_c, 4, 72, 93
6, 58992, Note_off_c, 4, 72, 0
6, 58992, Note_on_c, 4, 72, 93
6, 59016, Note_off_c, 4, 72, 0
6, 59016, Note_on_c, 4, 62, 93
6, 59040, Note_off_c, 4, 62, 0
6, 59040, Note_on_c, 4, 55, 93
6, 59064, Note_off_c, 4, 55, 0
6, 59064, Note_on_c, 4, 78, 93
6, 59088, Note_off_c, 4, 78, 0
6, 59088, Note_on_c, 4, 71, 93
6, 59112, Note_off_c, 4, 71, 0
6, 59112, Note_on_c, 4, 62, 93
6, 59136, Note_off_c, 4, 62, 0
6, 59136, Note_on_c, 4, 55, 93
6, 59160, Note_off_c, 4, 55, 0
6, 59160, Note_on_c, 4, 71, 93
6, 59184, Note_off_c, 4, 71, 0
6, 59184, Note_on_c, 4, 55, 93
6, 59208, Note_off_c, 4, 55, 0
6, 59208, Note_on_c, 4, 73, 93
6, 59232, Note_off_c, 4, 73, 0
6, 59232, Note_on_c, 4, 56, 93
6, 59256, Note_off_c, 4, 56, 0
6, 59256, Note_on_c, 4, 76, 93
6, 59280, Note_off_c, 4, 76, 0
6, 59280, Note_on_c, 4, 76, 93
6, 59304, Note_off_c, 4, 76, 0
6, 59304, Note_on_c, 4, 64, 93
6, 59328, Note_off_c, 4, 64, 0
6, 59328, Note_on_c, 4, 64, 93
6, 59352, Note_off_c, 4, 64, 0
6, 59352, Note_on_c, 4, 74, 93
6, 59376, Note_off_c, 4, 74, 0
6, 59376, Note_on_c, 4, 74, 93
6, 59400, Note_off_c, 4, 74, 0
6, 59400, Note_on_c, 4, 57, 93
6, 59424, Note_off_c, 4, 57, 0
6, 59424, Note_on_c, 4, 64, 93
6, 59448, Note_off_c, 4, 64, 0
6, 59448, Note_on_c, 4, 76, 93
6, 59472, Note_off_c, 4, 76, 0
6, 59472, Note_on_c, 4, 57, 93
6, 59496, Note_off_c, 4, 57, 0
6, 59496, Note_on_c, 4, 73, 93
6, 59520, Note_off_c, 4, 73, 0
6, 59520, Note_on_c, 4, 67, 93
6, 59544, Note_off_c, 4, 67, 0
6, 59544, Note_on_c, 4, 76, 93
6, 59568, Note_off_c, 4, 76, 0
6, 59568, Note_on_c, 4, 73, 93
6, 59592, Note_off_c, 4, 73, 0
6, 59592, Note_on_c, 4, 58, 93
6, 59616, Note_off_c, 4, 58, 0
6, 59616, End_track
0, 0, End_of_file
