0, 0, Header, 1, 4, 96
1, 0, Start_track
1, 0, Time_signature, 4, 2, 24, 8
1, 0, Title_t, "untitled"
1, 0, Title_t, "Track1"
1, 0, Tempo, 250000
1, 240, Tempo, 461538
1, 31104, Tempo, 705882
1, 31104, End_track
2, 0, Start_track
2, 0, Title_t, "Track2"
2, 0, Program_c, 0, 40
2, 0, Control_c, 0, 7, 100
2, 0, Control_c, 0, 10, 64
2, 264, Note_on_c, 0, 69, 93
2, 288, Note_off_c, 0, 69, 0
2, 288, Note_on_c, 0, 69, 93
2, 384, Note_off_c, 0, 69, 0
2, 384, Note_on_c, 0, 61, 93
2, 414, Note_off_c, 0, 61, 0
2, 414, Note_on_c, 0, 70, 93
2, 450, Note_off_c, 0, 70, 0
2, 450, Note_on_c, 0, 69, 93
2, 480, Note_off_c, 0, 69, 0
2, 480, Note_on_c, 0, 67, 93
2, 510, Note_off_c, 0, 67, 0
2, 510, Note_on_c, 0, 65, 93
2, 546, Note_off_c, 0, 65, 0
2, 546, Note_on_c, 0, 64, 93
2, 576, Note_off_c, 0, 64, 0
2, 576, Note_on_c, 0, 65, 93
2, 672, Note_off_c, 0, 65, 0
2, 672, Note_on_c, 0, 57, 93
2, 702, Note_off_c, 0, 57, 0
2, 702, Note_on_c, 0, 67, 93
2, 738, Note_off_c, 0, 67, 0
2, 738, Note_on_c, 0, 65, 93
2, 768, Note_off_c, 0, 65, 0
2, 768, Note_on_c, 0, 64, 93
2, 798, Note_off_c, 0, 64, 0
2, 798, Note_on_c, 0, 62, 93
2, 834, Note_off_c, 0, 62, 0
2, 834, Note_on_c, 0, 61, 93
2, 864, Note_off_c, 0, 61, 0
2, 864, Note_on_c, 0, 62, 93
2, 936, Note_off_c, 0, 62, 0
2, 936, Note_on_c, 0, 58, 93
2, 960, Note_off_c, 0, 58, 0
2, 960, Note_on_c, 0, 55, 93
2, 1032, Note_off_c, 0, 55, 0
2, 1032, Note_on_c, 0, 65, 93
2, 1056, Note_off_c, 0, 65, 0
2, 1056, Note_on_c, 0, 64, 93
2, 1128, Note_off_c, 0, 64, 0
2, 1128, Note_on_c, 0, 62, 93
2, 1152, Note_off_c, 0, 62, 0
2, 1152, Note_on_c, 0, 61, 93
2, 1224, Note_off_c, 0, 61, 0
2, 1224, Note_on_c, 0, 57, 93
2, 1248, Note_off_c, 0, 57, 0
2, 1248, Note_on_c, 0, 61, 93
2, 1320, Note_off_c, 0, 61, 0
2, 1320, Note_on_c, 0, 64, 93
2, 1344, Note_off_c, 0, 64, 0
2, 1344, Note_on_c, 0, 69, 93
2, 1416, Note_off_c, 0, 69, 0
2, 1416, Note_on_c, 0, 67, 93
2, 1440, Note_off_c, 0, 67, 0
2, 1440, Note_on_c, 0, 65, 93
2, 1470, Note_off_c, 0, 65, 0
2, 1470, Note_on_c, 0, 62, 93
2, 1506, Note_off_c, 0, 62, 0
2, 1506, Note_on_c, 0, 64, 93
2, 1536, Note_off_c, 0, 64, 0
2, 1536, Note_on_c, 0, 65, 93
2, 1566, Note_off_c, 0, 65, 0
2, 1566, Note_on_c, 0, 67, 93
2, 1602, Note_off_c, 0, 67, 0
2, 1602, Note_on_c, 0, 69, 93
2, 1632, Note_off_c, 0, 69, 0
2, 1632, Note_on_c, 0, 70, 93
2, 1662, Note_off_c, 0, 70, 0
2, 1662, Note_on_c, 0, 72, 93
2, 1698, Note_off_c, 0, 72, 0
2, 1698, Note_on_c, 0, 74, 93
2, 1728, Note_off_c, 0, 74, 0
2, 1728, Note_on_c, 0, 72, 93
2, 1800, Note_off_c, 0, 72, 0
2, 1800, Note_on_c, 0, 69, 93
2, 1824, Note_off_c, 0, 69, 0
2, 1824, Note_on_c, 0, 65, 93
2, 1896, Note_off_c, 0, 65, 0
2, 1896, Note_on_c, 0, 60, 93
2, 1920, Note_off_c, 0, 60, 0
2, 1920, Note_on_c, 0, 57, 93
2, 1992, Note_off_c, 0, 57, 0
2, 1992, Note_on_c, 0, 63, 93
2, 2016, Note_off_c, 0, 63, 0
2, 2016, Note_on_c, 0, 62, 93
2, 2046, Note_off_c, 0, 62, 0
2, 2046, Note_on_c, 0, 58, 93
2, 2082, Note_off_c, 0, 58, 0
2, 2082, Note_on_c, 0, 60, 93
2, 2112, Note_off_c, 0, 60, 0
2, 2112, Note_on_c, 0, 62, 93
2, 2142, Note_off_c, 0, 62, 0
2, 2142, Note_on_c, 0, 64, 93
2, 2178, Note_off_c, 0, 64, 0
2, 2178, Note_on_c, 0, 65, 93
2, 2208, Note_off_c, 0, 65, 0
2, 2208, Note_on_c, 0, 67, 93
2, 2238, Note_off_c, 0, 67, 0
2, 2238, Note_on_c, 0, 69, 93
2, 2274, Note_off_c, 0, 69, 0
2, 2274, Note_on_c, 0, 70, 93
2, 2304, Note_off_c, 0, 70, 0
2, 2304, Note_on_c, 0, 69, 93
2, 2334, Note_off_c, 0, 69, 0
2, 2334, Note_on_c, 0, 65, 93
2, 2370, Note_off_c, 0, 65, 0
2, 2370, Note_on_c, 0, 67, 93
2, 2400, Note_off_c, 0, 67, 0
2, 2400, Note_on_c, 0, 69, 93
2, 2430, Note_off_c, 0, 69, 0
2, 2430, Note_on_c, 0, 70, 93
2, 2466, Note_off_c, 0, 70, 0
2, 2466, Note_on_c, 0, 72, 93
2, 2496, Note_off_c, 0, 72, 0
2, 2496, Note_on_c, 0, 74, 93
2, 2526, Note_off_c, 0, 74, 0
2, 2526, Note_on_c, 0, 75, 93
2, 2562, Note_off_c, 0, 75, 0
2, 2562, Note_on_c, 0, 72, 93
2, 2592, Note_off_c, 0, 72, 0
2, 2592, Note_on_c, 0, 74, 93
2, 2622, Note_off_c, 0, 74, 0
2, 2622, Note_on_c, 0, 70, 93
2, 2658, Note_off_c, 0, 70, 0
2, 2658, Note_on_c, 0, 72, 93
2, 2688, Note_off_c, 0, 72, 0
2, 2688, Note_on_c, 0, 74, 93
2, 2718, Note_off_c, 0, 74, 0
2, 2718, Note_on_c, 0, 76, 93
2, 2754, Note_off_c, 0, 76, 0
2, 2754, Note_on_c, 0, 77, 93
2, 2784, Note_off_c, 0, 77, 0
2, 2784, Note_on_c, 0, 79, 93
2, 2814, Note_off_c, 0, 79, 0
2, 2814, Note_on_c, 0, 81, 93
2, 2850, Note_off_c, 0, 81, 0
2, 2850, Note_on_c, 0, 82, 93
2, 2880, Note_off_c, 0, 82, 0
2, 2880, Note_on_c, 0, 64, 93
2, 2952, Note_off_c, 0, 64, 0
2, 2952, Note_on_c, 0, 72, 93
2, 2976, Note_off_c, 0, 72, 0
2, 2976, Note_on_c, 0, 79, 93
2, 3048, Note_off_c, 0, 79, 0
2, 3048, Note_on_c, 0, 82, 93
2, 3072, Note_off_c, 0, 82, 0
2, 3072, Note_on_c, 0, 81, 93
2, 3144, Note_off_c, 0, 81, 0
2, 3144, Note_on_c, 0, 79, 93
2, 3168, Note_off_c, 0, 79, 0
2, 3168, Note_on_c, 0, 81, 93
2, 3198, Note_off_c, 0, 81, 0
2, 3198, Note_on_c, 0, 79, 93
2, 3234, Note_off_c, 0, 79, 0
2, 3234, Note_on_c, 0, 77, 93
2, 3264, Note_off_c, 0, 77, 0
2, 3264, Note_on_c, 0, 76, 93
2, 3294, Note_off_c, 0, 76, 0
2, 3294, Note_on_c, 0, 77, 93
2, 3330, Note_off_c, 0, 77, 0
2, 3330, Note_on_c, 0, 79, 93
2, 3360, Note_off_c, 0, 79, 0
2, 3360, Note_on_c, 0, 72, 93
2, 3390, Note_off_c, 0, 72, 0
2, 3390, Note_on_c, 0, 74, 93
2, 3426, Note_off_c, 0, 74, 0
2, 3426, Note_on_c, 0, 76, 93
2, 3456, Note_off_c, 0, 76, 0
2, 3456, Note_on_c, 0, 77, 93
2, 3486, Note_off_c, 0, 77, 0
2, 3486, Note_on_c, 0, 72, 93
2, 3522, Note_off_c, 0, 72, 0
2, 3522, Note_on_c, 0, 70, 93
2, 3552, Note_off_c, 0, 70, 0
2, 3552, Note_on_c, 0, 69, 93
2, 3582, Note_off_c, 0, 69, 0
2, 3582, Note_on_c, 0, 70, 93
2, 3618, Note_off_c, 0, 70, 0
2, 3618, Note_on_c, 0, 72, 93
2, 3648, Note_off_c, 0, 72, 0
2, 3648, Note_on_c, 0, 65, 93
2, 3678, Note_off_c, 0, 65, 0
2, 3678, Note_on_c, 0, 67, 93
2, 3714, Note_off_c, 0, 67, 0
2, 3714, Note_on_c, 0, 69, 93
2, 3744, Note_off_c, 0, 69, 0
2, 3744, Note_on_c, 0, 62, 93
2, 3816, Note_off_c, 0, 62, 0
2, 3816, Note_on_c, 0, 66, 93
2, 3840, Note_off_c, 0, 66, 0
2, 3840, Note_on_c, 0, 69, 93
2, 3912, Note_off_c, 0, 69, 0
2, 3912, Note_on_c, 0, 72, 93
2, 3936, Note_off_c, 0, 72, 0
2, 3936, Note_on_c, 0, 70, 93
2, 4008, Note_off_c, 0, 70, 0
2, 4008, Note_on_c, 0, 69, 93
2, 4032, Note_off_c, 0, 69, 0
2, 4032, Note_on_c, 0, 70, 93
2, 4062, Note_off_c, 0, 70, 0
2, 4062, Note_on_c, 0, 74, 93
2, 4098, Note_off_c, 0, 74, 0
2, 4098, Note_on_c, 0, 72, 93
2, 4128, Note_off_c, 0, 72, 0
2, 4128, Note_on_c, 0, 70, 93
2, 4158, Note_off_c, 0, 70, 0
2, 4158, Note_on_c, 0, 69, 93
2, 4194, Note_off_c, 0, 69, 0
2, 4194, Note_on_c, 0, 67, 93
2, 4224, Note_off_c, 0, 67, 0
2, 4224, Note_on_c, 0, 65, 93
2, 4254, Note_off_c, 0, 65, 0
2, 4254, Note_on_c, 0, 64, 93
2, 4290, Note_off_c, 0, 64, 0
2, 4290, Note_on_c, 0, 62, 93
2, 4320, Note_off_c, 0, 62, 0
2, 4320, Note_on_c, 0, 61, 93
2, 4392, Note_off_c, 0, 61, 0
2, 4392, Note_on_c, 0, 64, 93
2, 4416, Note_off_c, 0, 64, 0
2, 4416, Note_on_c, 0, 69, 93
2, 4488, Note_off_c, 0, 69, 0
2, 4488, Note_on_c, 0, 79, 93
2, 4512, Note_off_c, 0, 79, 0
2, 4512, Note_on_c, 0, 77, 93
2, 4584, Note_off_c, 0, 77, 0
2, 4584, Note_on_c, 0, 76, 93
2, 4608, Note_off_c, 0, 76, 0
2, 4608, Note_on_c, 0, 77, 93
2, 4638, Note_off_c, 0, 77, 0
2, 4638, Note_on_c, 0, 69, 93
2, 4674, Note_off_c, 0, 69, 0
2, 4674, Note_on_c, 0, 67, 93
2, 4704, Note_off_c, 0, 67, 0
2, 4704, Note_on_c, 0, 65, 93
2, 4734, Note_off_c, 0, 65, 0
2, 4734, Note_on_c, 0, 64, 93
2, 4770, Note_off_c, 0, 64, 0
2, 4770, Note_on_c, 0, 62, 93
2, 4800, Note_off_c, 0, 62, 0
2, 4800, Note_on_c, 0, 60, 93
2, 4830, Note_off_c, 0, 60, 0
2, 4830, Note_on_c, 0, 59, 93
2, 4866, Note_off_c, 0, 59, 0
2, 4866, Note_on_c, 0, 57, 93
2, 4896, Note_off_c, 0, 57, 0
2, 4896, Note_on_c, 0, 56, 93
2, 4926, Note_off_c, 0, 56, 0
2, 4926, Note_on_c, 0, 74, 93
2, 4962, Note_off_c, 0, 74, 0
2, 4962, Note_on_c, 0, 76, 93
2, 4992, Note_off_c, 0, 76, 0
2, 4992, Note_on_c, 0, 77, 93
2, 5022, Note_off_c, 0, 77, 0
2, 5022, Note_on_c, 0, 76, 93
2, 5058, Note_off_c, 0, 76, 0
2, 5058, Note_on_c, 0, 74, 93
2, 5088, Note_off_c, 0, 74, 0
2, 5088, Note_on_c, 0, 72, 93
2, 5118, Note_off_c, 0, 72, 0
2, 5118, Note_on_c, 0, 74, 93
2, 5154, Note_off_c, 0, 74, 0
2, 5154, Note_on_c, 0, 71, 93
2, 5184, Note_off_c, 0, 71, 0
2, 5184, Note_on_c, 0, 57, 93
2, 5214, Note_off_c, 0, 57, 0
2, 5214, Note_on_c, 0, 72, 93
2, 5250, Note_off_c, 0, 72, 0
2, 5250, Note_on_c, 0, 74, 93
2, 5280, Note_off_c, 0, 74, 0
2, 5280, Note_on_c, 0, 76, 93
2, 5310, Note_off_c, 0, 76, 0
2, 5310, Note_on_c, 0, 74, 93
2, 5346, Note_off_c, 0, 74, 0
2, 5346, Note_on_c, 0, 72, 93
2, 5376, Note_off_c, 0, 72, 0
2, 5376, Note_on_c, 0, 71, 93
2, 5406, Note_off_c, 0, 71, 0
2, 5406, Note_on_c, 0, 72, 93
2, 5442, Note_off_c, 0, 72, 0
2, 5442, Note_on_c, 0, 69, 93
2, 5472, Note_off_c, 0, 69, 0
2, 5472, Note_on_c, 0, 68, 93
2, 5502, Note_off_c, 0, 68, 0
2, 5502, Note_on_c, 0, 62, 93
2, 5538, Note_off_c, 0, 62, 0
2, 5538, Note_on_c, 0, 64, 93
2, 5568, Note_off_c, 0, 64, 0
2, 5568, Note_on_c, 0, 65, 93
2, 5598, Note_off_c, 0, 65, 0
2, 5598, Note_on_c, 0, 64, 93
2, 5634, Note_off_c, 0, 64, 0
2, 5634, Note_on_c, 0, 62, 93
2, 5664, Note_off_c, 0, 62, 0
2, 5664, Note_on_c, 0, 60, 93
2, 5694, Note_off_c, 0, 60, 0
2, 5694, Note_on_c, 0, 62, 93
2, 5730, Note_off_c, 0, 62, 0
2, 5730, Note_on_c, 0, 59, 93
2, 5760, Note_off_c, 0, 59, 0
2, 5760, Note_on_c, 0, 60, 93
2, 5790, Note_off_c, 0, 60, 0
2, 5790, Note_on_c, 0, 64, 93
2, 5826, Note_off_c, 0, 64, 0
2, 5826, Note_on_c, 0, 69, 93
2, 5856, Note_off_c, 0, 69, 0
2, 5856, Note_on_c, 0, 72, 93
2, 5886, Note_off_c, 0, 72, 0
2, 5886, Note_on_c, 0, 76, 93
2, 5922, Note_off_c, 0, 76, 0
2, 5922, Note_on_c, 0, 81, 93
2, 5952, Note_off_c, 0, 81, 0
2, 5952, Note_on_c, 0, 83, 93
2, 5982, Note_off_c, 0, 83, 0
2, 5982, Note_on_c, 0, 80, 93
2, 6018, Note_off_c, 0, 80, 0
2, 6018, Note_on_c, 0, 81, 93
2, 6048, Note_off_c, 0, 81, 0
2, 6048, Note_on_c, 0, 77, 93
2, 6078, Note_off_c, 0, 77, 0
2, 6078, Note_on_c, 0, 73, 93
2, 6114, Note_off_c, 0, 73, 0
2, 6114, Note_on_c, 0, 74, 93
2, 6144, Note_off_c, 0, 74, 0
2, 6144, Note_on_c, 0, 70, 93
2, 6174, Note_off_c, 0, 70, 0
2, 6174, Note_on_c, 0, 68, 93
2, 6210, Note_off_c, 0, 68, 0
2, 6210, Note_on_c, 0, 69, 93
2, 6240, Note_off_c, 0, 69, 0
2, 6240, Note_on_c, 0, 65, 93
2, 6270, Note_off_c, 0, 65, 0
2, 6270, Note_on_c, 0, 61, 93
2, 6306, Note_off_c, 0, 61, 0
2, 6306, Note_on_c, 0, 62, 93
2, 6336, Note_off_c, 0, 62, 0
2, 6336, Note_on_c, 0, 56, 93
2, 6366, Note_off_c, 0, 56, 0
2, 6366, Note_on_c, 0, 83, 93
2, 6402, Note_off_c, 0, 83, 0
2, 6402, Note_on_c, 0, 81, 93
2, 6432, Note_off_c, 0, 81, 0
2, 6432, Note_on_c, 0, 80, 93
2, 6462, Note_off_c, 0, 80, 0
2, 6462, Note_on_c, 0, 77, 93
2, 6498, Note_off_c, 0, 77, 0
2, 6498, Note_on_c, 0, 76, 93
2, 6528, Note_off_c, 0, 76, 0
2, 6528, Note_on_c, 0, 74, 93
2, 6558, Note_off_c, 0, 74, 0
2, 6558, Note_on_c, 0, 72, 93
2, 6594, Note_off_c, 0, 72, 0
2, 6594, Note_on_c, 0, 71, 93
2, 6624, Note_off_c, 0, 71, 0
2, 6624, Note_on_c, 0, 72, 93
2, 6654, Note_off_c, 0, 72, 0
2, 6654, Note_on_c, 0, 76, 93
2, 6690, Note_off_c, 0, 76, 0
2, 6690, Note_on_c, 0, 74, 93
2, 6720, Note_off_c, 0, 74, 0
2, 6720, Note_on_c, 0, 72, 93
2, 6750, Note_off_c, 0, 72, 0
2, 6750, Note_on_c, 0, 71, 93
2, 6786, Note_off_c, 0, 71, 0
2, 6786, Note_on_c, 0, 69, 93
2, 6816, Note_off_c, 0, 69, 0
2, 6816, Note_on_c, 0, 64, 93
2, 6846, Note_off_c, 0, 64, 0
2, 6846, Note_on_c, 0, 69, 93
2, 6882, Note_off_c, 0, 69, 0
2, 6882, Note_on_c, 0, 68, 93
2, 6912, Note_off_c, 0, 68, 0
2, 6912, Note_on_c, 0, 57, 93
2, 7176, Note_off_c, 0, 57, 0
2, 7176, Note_on_c, 0, 69, 93
2, 7200, Note_off_c, 0, 69, 0
2, 7200, Note_on_c, 0, 69, 93
2, 7296, Note_off_c, 0, 69, 0
2, 7296, Note_on_c, 0, 61, 93
2, 7326, Note_off_c, 0, 61, 0
2, 7326, Note_on_c, 0, 70, 93
2, 7362, Note_off_c, 0, 70, 0
2, 7362, Note_on_c, 0, 69, 93
2, 7392, Note_off_c, 0, 69, 0
2, 7392, Note_on_c, 0, 67, 93
2, 7422, Note_off_c, 0, 67, 0
2, 7422, Note_on_c, 0, 65, 93
2, 7458, Note_off_c, 0, 65, 0
2, 7458, Note_on_c, 0, 64, 93
2, 7488, Note_off_c, 0, 64, 0
2, 7488, Note_on_c, 0, 65, 93
2, 7584, Note_off_c, 0, 65, 0
2, 7584, Note_on_c, 0, 57, 93
2, 7614, Note_off_c, 0, 57, 0
2, 7614, Note_on_c, 0, 67, 93
2, 7650, Note_off_c, 0, 67, 0
2, 7650, Note_on_c, 0, 65, 93
2, 7680, Note_off_c, 0, 65, 0
2, 7680, Note_on_c, 0, 64, 93
2, 7710, Note_off_c, 0, 64, 0
2, 7710, Note_on_c, 0, 62, 93
2, 7746, Note_off_c, 0, 62, 0
2, 7746, Note_on_c, 0, 61, 93
2, 7776, Note_off_c, 0, 61, 0
2, 7776, Note_on_c, 0, 62, 93
2, 7848, Note_off_c, 0, 62, 0
2, 7848, Note_on_c, 0, 58, 93
2, 7872, Note_off_c, 0, 58, 0
2, 7872, Note_on_c, 0, 55, 93
2, 7944, Note_off_c, 0, 55, 0
2, 7944, Note_on_c, 0, 65, 93
2, 7968, Note_off_c, 0, 65, 0
2, 7968, Note_on_c, 0, 64, 93
2, 8040, Note_off_c, 0, 64, 0
2, 8040, Note_on_c, 0, 62, 93
2, 8064, Note_off_c, 0, 62, 0
2, 8064, Note_on_c, 0, 61, 93
2, 8136, Note_off_c, 0, 61, 0
2, 8136, Note_on_c, 0, 57, 93
2, 8160, Note_off_c, 0, 57, 0
2, 8160, Note_on_c, 0, 61, 93
2, 8232, Note_off_c, 0, 61, 0
2, 8232, Note_on_c, 0, 64, 93
2, 8256, Note_off_c, 0, 64, 0
2, 8256, Note_on_c, 0, 69, 93
2, 8328, Note_off_c, 0, 69, 0
2, 8328, Note_on_c, 0, 67, 93
2, 8352, Note_off_c, 0, 67, 0
2, 8352, Note_on_c, 0, 65, 93
2, 8382, Note_off_c, 0, 65, 0
2, 8382, Note_on_c, 0, 62, 93
2, 8418, Note_off_c, 0, 62, 0
2, 8418, Note_on_c, 0, 64, 93
2, 8448, Note_off_c, 0, 64, 0
2, 8448, Note_on_c, 0, 65, 93
2, 8478, Note_off_c, 0, 65, 0
2, 8478, Note_on_c, 0, 67, 93
2, 8514, Note_off_c, 0, 67, 0
2, 8514, Note_on_c, 0, 69, 93
2, 8544, Note_off_c, 0, 69, 0
2, 8544, Note_on_c, 0, 70, 93
2, 8574, Note_off_c, 0, 70, 0
2, 8574, Note_on_c, 0, 72, 93
2, 8610, Note_off_c, 0, 72, 0
2, 8610, Note_on_c, 0, 74, 93
2, 8640, Note_off_c, 0, 74, 0
2, 8640, Note_on_c, 0, 72, 93
2, 8712, Note_off_c, 0, 72, 0
2, 8712, Note_on_c, 0, 69, 93
2, 8736, Note_off_c, 0, 69, 0
2, 8736, Note_on_c, 0, 65, 93
2, 8808, Note_off_c, 0, 65, 0
2, 8808, Note_on_c, 0, 60, 93
2, 8832, Note_off_c, 0, 60, 0
2, 8832, Note_on_c, 0, 57, 93
2, 8904, Note_off_c, 0, 57, 0
2, 8904, Note_on_c, 0, 63, 93
2, 8928, Note_off_c, 0, 63, 0
2, 8928, Note_on_c, 0, 62, 93
2, 8958, Note_off_c, 0, 62, 0
2, 8958, Note_on_c, 0, 58, 93
2, 8994, Note_off_c, 0, 58, 0
2, 8994, Note_on_c, 0, 60, 93
2, 9024, Note_off_c, 0, 60, 0
2, 9024, Note_on_c, 0, 62, 93
2, 9054, Note_off_c, 0, 62, 0
2, 9054, Note_on_c, 0, 64, 93
2, 9090, Note_off_c, 0, 64, 0
2, 9090, Note_on_c, 0, 65, 93
2, 9120, Note_off_c, 0, 65, 0
2, 9120, Note_on_c, 0, 67, 93
2, 9150, Note_off_c, 0, 67, 0
2, 9150, Note_on_c, 0, 69, 93
2, 9186, Note_off_c, 0, 69, 0
2, 9186, Note_on_c, 0, 70, 93
2, 9216, Note_off_c, 0, 70, 0
2, 9216, Note_on_c, 0, 69, 93
2, 9246, Note_off_c, 0, 69, 0
2, 9246, Note_on_c, 0, 65, 93
2, 9282, Note_off_c, 0, 65, 0
2, 9282, Note_on_c, 0, 67, 93
2, 9312, Note_off_c, 0, 67, 0
2, 9312, Note_on_c, 0, 69, 93
2, 9342, Note_off_c, 0, 69, 0
2, 9342, Note_on_c, 0, 70, 93
2, 9378, Note_off_c, 0, 70, 0
2, 9378, Note_on_c, 0, 72, 93
2, 9408, Note_off_c, 0, 72, 0
2, 9408, Note_on_c, 0, 74, 93
2, 9438, Note_off_c, 0, 74, 0
2, 9438, Note_on_c, 0, 75, 93
2, 9474, Note_off_c, 0, 75, 0
2, 9474, Note_on_c, 0, 72, 93
2, 9504, Note_off_c, 0, 72, 0
2, 9504, Note_on_c, 0, 74, 93
2, 9534, Note_off_c, 0, 74, 0
2, 9534, Note_on_c, 0, 70, 93
2, 9570, Note_off_c, 0, 70, 0
2, 9570, Note_on_c, 0, 72, 93
2, 9600, Note_off_c, 0, 72, 0
2, 9600, Note_on_c, 0, 74, 93
2, 9630, Note_off_c, 0, 74, 0
2, 9630, Note_on_c, 0, 76, 93
2, 9666, Note_off_c, 0, 76, 0
2, 9666, Note_on_c, 0, 77, 93
2, 9696, Note_off_c, 0, 77, 0
2, 9696, Note_on_c, 0, 79, 93
2, 9726, Note_off_c, 0, 79, 0
2, 9726, Note_on_c, 0, 81, 93
2, 9762, Note_off_c, 0, 81, 0
2, 9762, Note_on_c, 0, 82, 93
2, 9792, Note_off_c, 0, 82, 0
2, 9792, Note_on_c, 0, 64, 93
2, 9864, Note_off_c, 0, 64, 0
2, 9864, Note_on_c, 0, 72, 93
2, 9888, Note_off_c, 0, 72, 0
2, 9888, Note_on_c, 0, 79, 93
2, 9960, Note_off_c, 0, 79, 0
2, 9960, Note_on_c, 0, 82, 93
2, 9984, Note_off_c, 0, 82, 0
2, 9984, Note_on_c, 0, 81, 93
2, 10056, Note_off_c, 0, 81, 0
2, 10056, Note_on_c, 0, 79, 93
2, 10080, Note_off_c, 0, 79, 0
2, 10080, Note_on_c, 0, 81, 93
2, 10110, Note_off_c, 0, 81, 0
2, 10110, Note_on_c, 0, 79, 93
2, 10146, Note_off_c, 0, 79, 0
2, 10146, Note_on_c, 0, 77, 93
2, 10176, Note_off_c, 0, 77, 0
2, 10176, Note_on_c, 0, 76, 93
2, 10206, Note_off_c, 0, 76, 0
2, 10206, Note_on_c, 0, 77, 93
2, 10242, Note_off_c, 0, 77, 0
2, 10242, Note_on_c, 0, 79, 93
2, 10272, Note_off_c, 0, 79, 0
2, 10272, Note_on_c, 0, 72, 93
2, 10302, Note_off_c, 0, 72, 0
2, 10302, Note_on_c, 0, 74, 93
2, 10338, Note_off_c, 0, 74, 0
2, 10338, Note_on_c, 0, 76, 93
2, 10368, Note_off_c, 0, 76, 0
2, 10368, Note_on_c, 0, 77, 93
2, 10398, Note_off_c, 0, 77, 0
2, 10398, Note_on_c, 0, 72, 93
2, 10434, Note_off_c, 0, 72, 0
2, 10434, Note_on_c, 0, 70, 93
2, 10464, Note_off_c, 0, 70, 0
2, 10464, Note_on_c, 0, 69, 93
2, 10494, Note_off_c, 0, 69, 0
2, 10494, Note_on_c, 0, 70, 93
2, 10530, Note_off_c, 0, 70, 0
2, 10530, Note_on_c, 0, 72, 93
2, 10560, Note_off_c, 0, 72, 0
2, 10560, Note_on_c, 0, 65, 93
2, 10590, Note_off_c, 0, 65, 0
2, 10590, Note_on_c, 0, 67, 93
2, 10626, Note_off_c, 0, 67, 0
2, 10626, Note_on_c, 0, 69, 93
2, 10656, Note_off_c, 0, 69, 0
2, 10656, Note_on_c, 0, 62, 93
2, 10728, Note_off_c, 0, 62, 0
2, 10728, Note_on_c, 0, 66, 93
2, 10752, Note_off_c, 0, 66, 0
2, 10752, Note_on_c, 0, 69, 93
2, 10824, Note_off_c, 0, 69, 0
2, 10824, Note_on_c, 0, 72, 93
2, 10848, Note_off_c, 0, 72, 0
2, 10848, Note_on_c, 0, 70, 93
2, 10920, Note_off_c, 0, 70, 0
2, 10920, Note_on_c, 0, 69, 93
2, 10944, Note_off_c, 0, 69, 0
2, 10944, Note_on_c, 0, 70, 93
2, 10974, Note_off_c, 0, 70, 0
2, 10974, Note_on_c, 0, 74, 93
2, 11010, Note_off_c, 0, 74, 0
2, 11010, Note_on_c, 0, 72, 93
2, 11040, Note_off_c, 0, 72, 0
2, 11040, Note_on_c, 0, 70, 93
2, 11070, Note_off_c, 0, 70, 0
2, 11070, Note_on_c, 0, 69, 93
2, 11106, Note_off_c, 0, 69, 0
2, 11106, Note_on_c, 0, 67, 93
2, 11136, Note_off_c, 0, 67, 0
2, 11136, Note_on_c, 0, 65, 93
2, 11166, Note_off_c, 0, 65, 0
2, 11166, Note_on_c, 0, 64, 93
2, 11202, Note_off_c, 0, 64, 0
2, 11202, Note_on_c, 0, 62, 93
2, 11232, Note_off_c, 0, 62, 0
2, 11232, Note_on_c, 0, 61, 93
2, 11304, Note_off_c, 0, 61, 0
2, 11304, Note_on_c, 0, 64, 93
2, 11328, Note_off_c, 0, 64, 0
2, 11328, Note_on_c, 0, 69, 93
2, 11400, Note_off_c, 0, 69, 0
2, 11400, Note_on_c, 0, 79, 93
2, 11424, Note_off_c, 0, 79, 0
2, 11424, Note_on_c, 0, 77, 93
2, 11496, Note_off_c, 0, 77, 0
2, 11496, Note_on_c, 0, 76, 93
2, 11520, Note_off_c, 0, 76, 0
2, 11520, Note_on_c, 0, 77, 93
2, 11550, Note_off_c, 0, 77, 0
2, 11550, Note_on_c, 0, 69, 93
2, 11586, Note_off_c, 0, 69, 0
2, 11586, Note_on_c, 0, 67, 93
2, 11616, Note_off_c, 0, 67, 0
2, 11616, Note_on_c, 0, 65, 93
2, 11646, Note_off_c, 0, 65, 0
2, 11646, Note_on_c, 0, 64, 93
2, 11682, Note_off_c, 0, 64, 0
2, 11682, Note_on_c, 0, 62, 93
2, 11712, Note_off_c, 0, 62, 0
2, 11712, Note_on_c, 0, 60, 93
2, 11742, Note_off_c, 0, 60, 0
2, 11742, Note_on_c, 0, 59, 93
2, 11778, Note_off_c, 0, 59, 0
2, 11778, Note_on_c, 0, 57, 93
2, 11808, Note_off_c, 0, 57, 0
2, 11808, Note_on_c, 0, 56, 93
2, 11838, Note_off_c, 0, 56, 0
2, 11838, Note_on_c, 0, 74, 93
2, 11874, Note_off_c, 0, 74, 0
2, 11874, Note_on_c, 0, 76, 93
2, 11904, Note_off_c, 0, 76, 0
2, 11904, Note_on_c, 0, 77, 93
2, 11934, Note_off_c, 0, 77, 0
2, 11934, Note_on_c, 0, 76, 93
2, 11970, Note_off_c, 0, 76, 0
2, 11970, Note_on_c, 0, 74, 93
2, 12000, Note_off_c, 0, 74, 0
2, 12000, Note_on_c, 0, 72, 93
2, 12030, Note_off_c, 0, 72, 0
2, 12030, Note_on_c, 0, 74, 93
2, 12066, Note_off_c, 0, 74, 0
2, 12066, Note_on_c, 0, 71, 93
2, 12096, Note_off_c, 0, 71, 0
2, 12096, Note_on_c, 0, 57, 93
2, 12126, Note_off_c, 0, 57, 0
2, 12126, Note_on_c, 0, 72, 93
2, 12162, Note_off_c, 0, 72, 0
2, 12162, Note_on_c, 0, 74, 93
2, 12192, Note_off_c, 0, 74, 0
2, 12192, Note_on_c, 0, 76, 93
2, 12222, Note_off_c, 0, 76, 0
2, 12222, Note_on_c, 0, 74, 93
2, 12258, Note_off_c, 0, 74, 0
2, 12258, Note_on_c, 0, 72, 93
2, 12288, Note_off_c, 0, 72, 0
2, 12288, Note_on_c, 0, 71, 93
2, 12318, Note_off_c, 0, 71, 0
2, 12318, Note_on_c, 0, 72, 93
2, 12354, Note_off_c, 0, 72, 0
2, 12354, Note_on_c, 0, 69, 93
2, 12384, Note_off_c, 0, 69, 0
2, 12384, Note_on_c, 0, 68, 93
2, 12414, Note_off_c, 0, 68, 0
2, 12414, Note_on_c, 0, 62, 93
2, 12450, Note_off_c, 0, 62, 0
2, 12450, Note_on_c, 0, 64, 93
2, 12480, Note_off_c, 0, 64, 0
2, 12480, Note_on_c, 0, 65, 93
2, 12510, Note_off_c, 0, 65, 0
2, 12510, Note_on_c, 0, 64, 93
2, 12546, Note_off_c, 0, 64, 0
2, 12546, Note_on_c, 0, 62, 93
2, 12576, Note_off_c, 0, 62, 0
2, 12576, Note_on_c, 0, 60, 93
2, 12606, Note_off_c, 0, 60, 0
2, 12606, Note_on_c, 0, 62, 93
2, 12642, Note_off_c, 0, 62, 0
2, 12642, Note_on_c, 0, 59, 93
2, 12672, Note_off_c, 0, 59, 0
2, 12672, Note_on_c, 0, 60, 93
2, 12702, Note_off_c, 0, 60, 0
2, 12702, Note_on_c, 0, 64, 93
2, 12738, Note_off_c, 0, 64, 0
2, 12738, Note_on_c, 0, 69, 93
2, 12768, Note_off_c, 0, 69, 0
2, 12768, Note_on_c, 0, 72, 93
2, 12798, Note_off_c, 0, 72, 0
2, 12798, Note_on_c, 0, 76, 93
2, 12834, Note_off_c, 0, 76, 0
2, 12834, Note_on_c, 0, 81, 93
2, 12864, Note_off_c, 0, 81, 0
2, 12864, Note_on_c, 0, 83, 93
2, 12894, Note_off_c, 0, 83, 0
2, 12894, Note_on_c, 0, 80, 93
2, 12930, Note_off_c, 0, 80, 0
2, 12930, Note_on_c, 0, 81, 93
2, 12960, Note_off_c, 0, 81, 0
2, 12960, Note_on_c, 0, 77, 93
2, 12990, Note_off_c, 0, 77, 0
2, 12990, Note_on_c, 0, 73, 93
2, 13026, Note_off_c, 0, 73, 0
2, 13026, Note_on_c, 0, 74, 93
2, 13056, Note_off_c, 0, 74, 0
2, 13056, Note_on_c, 0, 70, 93
2, 13086, Note_off_c, 0, 70, 0
2, 13086, Note_on_c, 0, 68, 93
2, 13122, Note_off_c, 0, 68, 0
2, 13122, Note_on_c, 0, 69, 93
2, 13152, Note_off_c, 0, 69, 0
2, 13152, Note_on_c, 0, 65, 93
2, 13182, Note_off_c, 0, 65, 0
2, 13182, Note_on_c, 0, 61, 93
2, 13218, Note_off_c, 0, 61, 0
2, 13218, Note_on_c, 0, 62, 93
2, 13248, Note_off_c, 0, 62, 0
2, 13248, Note_on_c, 0, 56, 93
2, 13278, Note_off_c, 0, 56, 0
2, 13278, Note_on_c, 0, 83, 93
2, 13314, Note_off_c, 0, 83, 0
2, 13314, Note_on_c, 0, 81, 93
2, 13344, Note_off_c, 0, 81, 0
2, 13344, Note_on_c, 0, 80, 93
2, 13374, Note_off_c, 0, 80, 0
2, 13374, Note_on_c, 0, 77, 93
2, 13410, Note_off_c, 0, 77, 0
2, 13410, Note_on_c, 0, 76, 93
2, 13440, Note_off_c, 0, 76, 0
2, 13440, Note_on_c, 0, 74, 93
2, 13470, Note_off_c, 0, 74, 0
2, 13470, Note_on_c, 0, 72, 93
2, 13506, Note_off_c, 0, 72, 0
2, 13506, Note_on_c, 0, 71, 93
2, 13536, Note_off_c, 0, 71, 0
2, 13536, Note_on_c, 0, 72, 93
2, 13566, Note_off_c, 0, 72, 0
2, 13566, Note_on_c, 0, 76, 93
2, 13602, Note_off_c, 0, 76, 0
2, 13602, Note_on_c, 0, 74, 93
2, 13632, Note_off_c, 0, 74, 0
2, 13632, Note_on_c, 0, 72, 93
2, 13662, Note_off_c, 0, 72, 0
2, 13662, Note_on_c, 0, 71, 93
2, 13698, Note_off_c, 0, 71, 0
2, 13698, Note_on_c, 0, 69, 93
2, 13728, Note_off_c, 0, 69, 0
2, 13728, Note_on_c, 0, 64, 93
2, 13758, Note_off_c, 0, 64, 0
2, 13758, Note_on_c, 0, 69, 93
2, 13794, Note_off_c, 0, 69, 0
2, 13794, Note_on_c, 0, 68, 93
2, 13824, Note_off_c, 0, 68, 0
2, 13824, Note_on_c, 0, 57, 93
2, 14088, Note_off_c, 0, 57, 0
2, 14088, Note_on_c, 0, 76, 93
2, 14112, Note_off_c, 0, 76, 0
2, 14112, Note_on_c, 0, 76, 93
2, 14208, Note_off_c, 0, 76, 0
2, 14208, Note_on_c, 0, 68, 93
2, 14238, Note_off_c, 0, 68, 0
2, 14238, Note_on_c, 0, 77, 93
2, 14274, Note_off_c, 0, 77, 0
2, 14274, Note_on_c, 0, 76, 93
2, 14304, Note_off_c, 0, 76, 0
2, 14304, Note_on_c, 0, 74, 93
2, 14334, Note_off_c, 0, 74, 0
2, 14334, Note_on_c, 0, 73, 93
2, 14370, Note_off_c, 0, 73, 0
2, 14370, Note_on_c, 0, 71, 93
2, 14400, Note_off_c, 0, 71, 0
2, 14400, Note_on_c, 0, 73, 93
2, 14430, Note_off_c, 0, 73, 0
2, 14430, Note_on_c, 0, 69, 93
2, 14466, Note_off_c, 0, 69, 0
2, 14466, Note_on_c, 0, 64, 93
2, 14496, Note_off_c, 0, 64, 0
2, 14496, Note_on_c, 0, 57, 93
2, 14526, Note_off_c, 0, 57, 0
2, 14526, Note_on_c, 0, 70, 93
2, 14562, Note_off_c, 0, 70, 0
2, 14562, Note_on_c, 0, 69, 93
2, 14592, Note_off_c, 0, 69, 0
2, 14592, Note_on_c, 0, 67, 93
2, 14622, Note_off_c, 0, 67, 0
2, 14622, Note_on_c, 0, 65, 93
2, 14658, Note_off_c, 0, 65, 0
2, 14658, Note_on_c, 0, 64, 93
2, 14688, Note_off_c, 0, 64, 0
2, 14688, Note_on_c, 0, 65, 93
2, 14760, Note_off_c, 0, 65, 0
2, 14760, Note_on_c, 0, 74, 93
2, 14784, Note_off_c, 0, 74, 0
2, 14784, Note_on_c, 0, 64, 93
2, 14856, Note_off_c, 0, 64, 0
2, 14856, Note_on_c, 0, 79, 93
2, 14880, Note_off_c, 0, 79, 0
2, 14880, Note_on_c, 0, 77, 93
2, 14952, Note_off_c, 0, 77, 0
2, 14952, Note_on_c, 0, 76, 93
2, 14976, Note_off_c, 0, 76, 0
2, 14976, Note_on_c, 0, 77, 93
2, 15048, Note_off_c, 0, 77, 0
2, 15048, Note_on_c, 0, 74, 93
2, 15072, Note_off_c, 0, 74, 0
2, 15072, Note_on_c, 0, 69, 93
2, 15144, Note_off_c, 0, 69, 0
2, 15144, Note_on_c, 0, 65, 93
2, 15168, Note_off_c, 0, 65, 0
2, 15168, Note_on_c, 0, 62, 93
2, 15240, Note_off_c, 0, 62, 0
2, 15240, Note_on_c, 0, 65, 93
2, 15264, Note_off_c, 0, 65, 0
2, 15264, Note_on_c, 0, 57, 93
2, 15294, Note_off_c, 0, 57, 0
2, 15294, Note_on_c, 0, 75, 93
2, 15330, Note_off_c, 0, 75, 0
2, 15330, Note_on_c, 0, 74, 93
2, 15360, Note_off_c, 0, 74, 0
2, 15360, Note_on_c, 0, 72, 93
2, 15390, Note_off_c, 0, 72, 0
2, 15390, Note_on_c, 0, 70, 93
2, 15426, Note_off_c, 0, 70, 0
2, 15426, Note_on_c, 0, 69, 93
2, 15456, Note_off_c, 0, 69, 0
2, 15456, Note_on_c, 0, 79, 93
2, 15486, Note_off_c, 0, 79, 0
2, 15486, Note_on_c, 0, 77, 93
2, 15522, Note_off_c, 0, 77, 0
2, 15522, Note_on_c, 0, 75, 93
2, 15552, Note_off_c, 0, 75, 0
2, 15552, Note_on_c, 0, 74, 93
2, 15624, Note_off_c, 0, 74, 0
2, 15624, Note_on_c, 0, 70, 93
2, 15648, Note_off_c, 0, 70, 0
2, 15648, Note_on_c, 0, 65, 93
2, 15720, Note_off_c, 0, 65, 0
2, 15720, Note_on_c, 0, 62, 93
2, 15744, Note_off_c, 0, 62, 0
2, 15744, Note_on_c, 0, 58, 93
2, 15816, Note_off_c, 0, 58, 0
2, 15816, Note_on_c, 0, 74, 93
2, 15840, Note_off_c, 0, 74, 0
2, 15840, Note_on_c, 0, 66, 93
2, 15870, Note_off_c, 0, 66, 0
2, 15870, Note_on_c, 0, 84, 93
2, 15906, Note_off_c, 0, 84, 0
2, 15906, Note_on_c, 0, 82, 93
2, 15936, Note_off_c, 0, 82, 0
2, 15936, Note_on_c, 0, 81, 93
2, 15966, Note_off_c, 0, 81, 0
2, 15966, Note_on_c, 0, 79, 93
2, 16002, Note_off_c, 0, 79, 0
2, 16002, Note_on_c, 0, 78, 93
2, 16032, Note_off_c, 0, 78, 0
2, 16032, Note_on_c, 0, 75, 93
2, 16062, Note_off_c, 0, 75, 0
2, 16062, Note_on_c, 0, 74, 93
2, 16098, Note_off_c, 0, 74, 0
2, 16098, Note_on_c, 0, 72, 93
2, 16128, Note_off_c, 0, 72, 0
2, 16128, Note_on_c, 0, 70, 93
2, 16158, Note_off_c, 0, 70, 0
2, 16158, Note_on_c, 0, 67, 93
2, 16194, Note_off_c, 0, 67, 0
2, 16194, Note_on_c, 0, 69, 93
2, 16224, Note_off_c, 0, 69, 0
2, 16224, Note_on_c, 0, 70, 93
2, 16254, Note_off_c, 0, 70, 0
2, 16254, Note_on_c, 0, 72, 93
2, 16290, Note_off_c, 0, 72, 0
2, 16290, Note_on_c, 0, 74, 93
2, 16320, Note_off_c, 0, 74, 0
2, 16320, Note_on_c, 0, 75, 93
2, 16350, Note_off_c, 0, 75, 0
2, 16350, Note_on_c, 0, 74, 93
2, 16386, Note_off_c, 0, 74, 0
2, 16386, Note_on_c, 0, 75, 93
2, 16416, Note_off_c, 0, 75, 0
2, 16416, Note_on_c, 0, 69, 93
2, 16446, Note_off_c, 0, 69, 0
2, 16446, Note_on_c, 0, 65, 93
2, 16482, Note_off_c, 0, 65, 0
2, 16482, Note_on_c, 0, 67, 93
2, 16512, Note_off_c, 0, 67, 0
2, 16512, Note_on_c, 0, 69, 93
2, 16542, Note_off_c, 0, 69, 0
2, 16542, Note_on_c, 0, 70, 93
2, 16578, Note_off_c, 0, 70, 0
2, 16578, Note_on_c, 0, 72, 93
2, 16608, Note_off_c, 0, 72, 0
2, 16608, Note_on_c, 0, 74, 93
2, 16638, Note_off_c, 0, 74, 0
2, 16638, Note_on_c, 0, 72, 93
2, 16674, Note_off_c, 0, 72, 0
2, 16674, Note_on_c, 0, 74, 93
2, 16704, Note_off_c, 0, 74, 0
2, 16704, Note_on_c, 0, 63, 93
2, 16776, Note_off_c, 0, 63, 0
2, 16776, Note_on_c, 0, 74, 93
2, 16800, Note_off_c, 0, 74, 0
2, 16800, Note_on_c, 0, 79, 93
2, 16872, Note_off_c, 0, 79, 0
2, 16872, Note_on_c, 0, 70, 93
2, 16896, Note_off_c, 0, 70, 0
2, 16896, Note_on_c, 0, 72, 93
2, 16968, Note_off_c, 0, 72, 0
2, 16968, Note_on_c, 0, 75, 93
2, 16992, Note_off_c, 0, 75, 0
2, 16992, Note_on_c, 0, 66, 93
2, 17022, Note_off_c, 0, 66, 0
2, 17022, Note_on_c, 0, 69, 93
2, 17058, Note_off_c, 0, 69, 0
2, 17058, Note_on_c, 0, 67, 93
2, 17088, Note_off_c, 0, 67, 0
2, 17088, Note_on_c, 0, 66, 93
2, 17118, Note_off_c, 0, 66, 0
2, 17118, Note_on_c, 0, 63, 93
2, 17154, Note_off_c, 0, 63, 0
2, 17154, Note_on_c, 0, 62, 93
2, 17184, Note_off_c, 0, 62, 0
2, 17184, Note_on_c, 0, 60, 93
2, 17214, Note_off_c, 0, 60, 0
2, 17214, Note_on_c, 0, 58, 93
2, 17250, Note_off_c, 0, 58, 0
2, 17250, Note_on_c, 0, 57, 93
2, 17280, Note_off_c, 0, 57, 0
2, 17280, Note_on_c, 0, 58, 93
2, 17310, Note_off_c, 0, 58, 0
2, 17310, Note_on_c, 0, 62, 93
2, 17346, Note_off_c, 0, 62, 0
2, 17346, Note_on_c, 0, 67, 93
2, 17376, Note_off_c, 0, 67, 0
2, 17376, Note_on_c, 0, 70, 93
2, 17406, Note_off_c, 0, 70, 0
2, 17406, Note_on_c, 0, 74, 93
2, 17442, Note_off_c, 0, 74, 0
2, 17442, Note_on_c, 0, 79, 93
2, 17472, Note_off_c, 0, 79, 0
2, 17472, Note_on_c, 0, 74, 93
2, 17502, Note_off_c, 0, 74, 0
2, 17502, Note_on_c, 0, 79, 93
2, 17538, Note_off_c, 0, 79, 0
2, 17538, Note_on_c, 0, 78, 93
2, 17568, Note_off_c, 0, 78, 0
2, 17568, Note_on_c, 0, 79, 93
2, 17598, Note_off_c, 0, 79, 0
2, 17598, Note_on_c, 0, 74, 93
2, 17634, Note_off_c, 0, 74, 0
2, 17634, Note_on_c, 0, 72, 93
2, 17664, Note_off_c, 0, 72, 0
2, 17664, Note_on_c, 0, 70, 93
2, 17694, Note_off_c, 0, 70, 0
2, 17694, Note_on_c, 0, 69, 93
2, 17730, Note_off_c, 0, 69, 0
2, 17730, Note_on_c, 0, 67, 93
2, 17760, Note_off_c, 0, 67, 0
2, 17760, Note_on_c, 0, 65, 93
2, 17790, Note_off_c, 0, 65, 0
2, 17790, Note_on_c, 0, 64, 93
2, 17826, Note_off_c, 0, 64, 0
2, 17826, Note_on_c, 0, 62, 93
2, 17856, Note_off_c, 0, 62, 0
2, 17856, Note_on_c, 0, 64, 93
2, 17928, Note_off_c, 0, 64, 0
2, 17928, Note_on_c, 0, 67, 93
2, 17952, Note_off_c, 0, 67, 0
2, 17952, Note_on_c, 0, 70, 93
2, 18024, Note_off_c, 0, 70, 0
2, 18024, Note_on_c, 0, 74, 93
2, 18048, Note_off_c, 0, 74, 0
2, 18048, Note_on_c, 0, 72, 93
2, 18120, Note_off_c, 0, 72, 0
2, 18120, Note_on_c, 0, 70, 93
2, 18144, Note_off_c, 0, 70, 0
2, 18144, Note_on_c, 0, 69, 93
2, 18174, Note_off_c, 0, 69, 0
2, 18174, Note_on_c, 0, 65, 93
2, 18210, Note_off_c, 0, 65, 0
2, 18210, Note_on_c, 0, 67, 93
2, 18240, Note_off_c, 0, 67, 0
2, 18240, Note_on_c, 0, 69, 93
2, 18270, Note_off_c, 0, 69, 0
2, 18270, Note_on_c, 0, 71, 93
2, 18306, Note_off_c, 0, 71, 0
2, 18306, Note_on_c, 0, 73, 93
2, 18336, Note_off_c, 0, 73, 0
2, 18336, Note_on_c, 0, 74, 93
2, 18366, Note_off_c, 0, 74, 0
2, 18366, Note_on_c, 0, 76, 93
2, 18402, Note_off_c, 0, 76, 0
2, 18402, Note_on_c, 0, 77, 93
2, 18432, Note_off_c, 0, 77, 0
2, 18432, Note_on_c, 0, 79, 93
2, 18462, Note_off_c, 0, 79, 0
2, 18462, Note_on_c, 0, 81, 93
2, 18498, Note_off_c, 0, 81, 0
2, 18498, Note_on_c, 0, 79, 93
2, 18528, Note_off_c, 0, 79, 0
2, 18528, Note_on_c, 0, 77, 93
2, 18558, Note_off_c, 0, 77, 0
2, 18558, Note_on_c, 0, 76, 93
2, 18594, Note_off_c, 0, 76, 0
2, 18594, Note_on_c, 0, 74, 93
2, 18624, Note_off_c, 0, 74, 0
2, 18624, Note_on_c, 0, 73, 93
2, 18654, Note_off_c, 0, 73, 0
2, 18654, Note_on_c, 0, 71, 93
2, 18690, Note_off_c, 0, 71, 0
2, 18690, Note_on_c, 0, 69, 93
2, 18720, Note_off_c, 0, 69, 0
2, 18720, Note_on_c, 0, 77, 93
2, 18750, Note_off_c, 0, 77, 0
2, 18750, Note_on_c, 0, 79, 93
2, 18786, Note_off_c, 0, 79, 0
2, 18786, Note_on_c, 0, 77, 93
2, 18816, Note_off_c, 0, 77, 0
2, 18816, Note_on_c, 0, 76, 93
2, 18846, Note_off_c, 0, 76, 0
2, 18846, Note_on_c, 0, 74, 93
2, 18882, Note_off_c, 0, 74, 0
2, 18882, Note_on_c, 0, 72, 93
2, 18912, Note_off_c, 0, 72, 0
2, 18912, Note_on_c, 0, 71, 93
2, 18942, Note_off_c, 0, 71, 0
2, 18942, Note_on_c, 0, 69, 93
2, 18978, Note_off_c, 0, 69, 0
2, 18978, Note_on_c, 0, 67, 93
2, 19008, Note_off_c, 0, 67, 0
2, 19008, Note_on_c, 0, 76, 93
2, 19038, Note_off_c, 0, 76, 0
2, 19038, Note_on_c, 0, 77, 93
2, 19074, Note_off_c, 0, 77, 0
2, 19074, Note_on_c, 0, 76, 93
2, 19104, Note_off_c, 0, 76, 0
2, 19104, Note_on_c, 0, 74, 93
2, 19134, Note_off_c, 0, 74, 0
2, 19134, Note_on_c, 0, 72, 93
2, 19170, Note_off_c, 0, 72, 0
2, 19170, Note_on_c, 0, 70, 93
2, 19200, Note_off_c, 0, 70, 0
2, 19200, Note_on_c, 0, 69, 93
2, 19230, Note_off_c, 0, 69, 0
2, 19230, Note_on_c, 0, 72, 93
2, 19266, Note_off_c, 0, 72, 0
2, 19266, Note_on_c, 0, 75, 93
2, 19296, Note_off_c, 0, 75, 0
2, 19296, Note_on_c, 0, 74, 93
2, 19326, Note_off_c, 0, 74, 0
2, 19326, Note_on_c, 0, 75, 93
2, 19362, Note_off_c, 0, 75, 0
2, 19362, Note_on_c, 0, 74, 93
2, 19392, Note_off_c, 0, 74, 0
2, 19392, Note_on_c, 0, 72, 93
2, 19422, Note_off_c, 0, 72, 0
2, 19422, Note_on_c, 0, 70, 93
2, 19458, Note_off_c, 0, 70, 0
2, 19458, Note_on_c, 0, 69, 93
2, 19488, Note_off_c, 0, 69, 0
2, 19488, Note_on_c, 0, 68, 93
2, 19518, Note_off_c, 0, 68, 0
2, 19518, Note_on_c, 0, 74, 93
2, 19554, Note_off_c, 0, 74, 0
2, 19554, Note_on_c, 0, 83, 93
2, 19584, Note_off_c, 0, 83, 0
2, 19584, Note_on_c, 0, 73, 93
2, 19680, Note_off_c, 0, 73, 0
2, 19680, Note_on_c, 0, 57, 93
2, 19710, Note_off_c, 0, 57, 0
2, 19710, Note_on_c, 0, 69, 93
2, 19746, Note_off_c, 0, 69, 0
2, 19746, Note_on_c, 0, 71, 93
2, 19776, Note_off_c, 0, 71, 0
2, 19776, Note_on_c, 0, 73, 93
2, 19806, Note_off_c, 0, 73, 0
2, 19806, Note_on_c, 0, 74, 93
2, 19842, Note_off_c, 0, 74, 0
2, 19842, Note_on_c, 0, 76, 93
2, 19872, Note_off_c, 0, 76, 0
2, 19872, Note_on_c, 0, 67, 93
2, 19902, Note_off_c, 0, 67, 0
2, 19902, Note_on_c, 0, 66, 93
2, 19938, Note_off_c, 0, 66, 0
2, 19938, Note_on_c, 0, 67, 93
2, 19968, Note_off_c, 0, 67, 0
2, 19968, Note_on_c, 0, 61, 93
2, 19998, Note_off_c, 0, 61, 0
2, 19998, Note_on_c, 0, 67, 93
2, 20034, Note_off_c, 0, 67, 0
2, 20034, Note_on_c, 0, 69, 93
2, 20064, Note_off_c, 0, 69, 0
2, 20064, Note_on_c, 0, 70, 93
2, 20094, Note_off_c, 0, 70, 0
2, 20094, Note_on_c, 0, 69, 93
2, 20130, Note_off_c, 0, 69, 0
2, 20130, Note_on_c, 0, 67, 93
2, 20160, Note_off_c, 0, 67, 0
2, 20160, Note_on_c, 0, 65, 93
2, 20190, Note_off_c, 0, 65, 0
2, 20190, Note_on_c, 0, 67, 93
2, 20226, Note_off_c, 0, 67, 0
2, 20226, Note_on_c, 0, 69, 93
2, 20256, Note_off_c, 0, 69, 0
2, 20256, Note_on_c, 0, 62, 93
2, 20286, Note_off_c, 0, 62, 0
2, 20286, Note_on_c, 0, 74, 93
2, 20322, Note_off_c, 0, 74, 0
2, 20322, Note_on_c, 0, 76, 93
2, 20352, Note_off_c, 0, 76, 0
2, 20352, Note_on_c, 0, 77, 93
2, 20382, Note_off_c, 0, 77, 0
2, 20382, Note_on_c, 0, 79, 93
2, 20418, Note_off_c, 0, 79, 0
2, 20418, Note_on_c, 0, 81, 93
2, 20448, Note_off_c, 0, 81, 0
2, 20448, Note_on_c, 0, 72, 93
2, 20478, Note_off_c, 0, 72, 0
2, 20478, Note_on_c, 0, 71, 93
2, 20514, Note_off_c, 0, 71, 0
2, 20514, Note_on_c, 0, 72, 93
2, 20544, Note_off_c, 0, 72, 0
2, 20544, Note_on_c, 0, 66, 93
2, 20574, Note_off_c, 0, 66, 0
2, 20574, Note_on_c, 0, 72, 93
2, 20610, Note_off_c, 0, 72, 0
2, 20610, Note_on_c, 0, 74, 93
2, 20640, Note_off_c, 0, 74, 0
2, 20640, Note_on_c, 0, 75, 93
2, 20670, Note_off_c, 0, 75, 0
2, 20670, Note_on_c, 0, 74, 93
2, 20706, Note_off_c, 0, 74, 0
2, 20706, Note_on_c, 0, 72, 93
2, 20736, Note_off_c, 0, 72, 0
2, 20736, Note_on_c, 0, 70, 93
2, 20766, Note_off_c, 0, 70, 0
2, 20766, Note_on_c, 0, 66, 93
2, 20802, Note_off_c, 0, 66, 0
2, 20802, Note_on_c, 0, 67, 93
2, 20832, Note_off_c, 0, 67, 0
2, 20832, Note_on_c, 0, 75, 93
2, 20862, Note_off_c, 0, 75, 0
2, 20862, Note_on_c, 0, 73, 93
2, 20898, Note_off_c, 0, 73, 0
2, 20898, Note_on_c, 0, 74, 93
2, 20928, Note_off_c, 0, 74, 0
2, 20928, Note_on_c, 0, 82, 93
2, 20958, Note_off_c, 0, 82, 0
2, 20958, Note_on_c, 0, 78, 93
2, 20994, Note_off_c, 0, 78, 0
2, 20994, Note_on_c, 0, 79, 93
2, 21024, Note_off_c, 0, 79, 0
2, 21024, Note_on_c, 0, 85, 93
2, 21144, Note_off_c, 0, 85, 0
2, 21150, Note_on_c, 0, 86, 93
2, 21180, Note_off_c, 0, 86, 0
2, 21210, Note_on_c, 0, 86, 93
2, 21246, Note_off_c, 0, 86, 0
2, 21246, Note_on_c, 0, 84, 93
2, 21276, Note_off_c, 0, 84, 0
2, 21276, Note_on_c, 0, 82, 93
2, 21306, Note_off_c, 0, 82, 0
2, 21312, Note_on_c, 0, 81, 93
2, 21342, Note_off_c, 0, 81, 0
2, 21342, Note_on_c, 0, 79, 93
2, 21378, Note_off_c, 0, 79, 0
2, 21378, Note_on_c, 0, 77, 93
2, 21408, Note_off_c, 0, 77, 0
2, 21408, Note_on_c, 0, 76, 93
2, 21438, Note_off_c, 0, 76, 0
2, 21438, Note_on_c, 0, 77, 93
2, 21474, Note_off_c, 0, 77, 0
2, 21474, Note_on_c, 0, 74, 93
2, 21504, Note_off_c, 0, 74, 0
2, 21504, Note_on_c, 0, 69, 93
2, 21534, Note_off_c, 0, 69, 0
2, 21534, Note_on_c, 0, 74, 93
2, 21570, Note_off_c, 0, 74, 0
2, 21570, Note_on_c, 0, 73, 93
2, 21600, Note_off_c, 0, 73, 0
2, 21600, Note_on_c, 0, 74, 93
2, 21672, Note_off_c, 0, 74, 0
2, 21672, Note_on_c, 0, 70, 93
2, 21696, Note_off_c, 0, 70, 0
2, 21696, Note_on_c, 0, 68, 93
2, 21822, Note_off_c, 0, 68, 0
2, 21822, Note_on_c, 0, 69, 93
2, 21858, Note_off_c, 0, 69, 0
2, 21858, Note_on_c, 0, 71, 93
2, 21888, Note_off_c, 0, 71, 0
2, 21888, Note_on_c, 0, 61, 93
2, 21918, Note_off_c, 0, 61, 0
2, 21918, Note_on_c, 0, 64, 93
2, 21954, Note_off_c, 0, 64, 0
2, 21954, Note_on_c, 0, 67, 93
2, 21984, Note_off_c, 0, 67, 0
2, 21984, Note_on_c, 0, 70, 93
2, 22110, Note_off_c, 0, 70, 0
2, 22110, Note_on_c, 0, 69, 93
2, 22146, Note_off_c, 0, 69, 0
2, 22146, Note_on_c, 0, 67, 93
2, 22176, Note_off_c, 0, 67, 0
2, 22176, Note_on_c, 0, 65, 93
2, 22206, Note_off_c, 0, 65, 0
2, 22206, Note_on_c, 0, 69, 93
2, 22242, Note_off_c, 0, 69, 0
2, 22242, Note_on_c, 0, 73, 93
2, 22272, Note_off_c, 0, 73, 0
2, 22272, Note_on_c, 0, 74, 93
2, 22302, Note_off_c, 0, 74, 0
2, 22302, Note_on_c, 0, 77, 93
2, 22338, Note_off_c, 0, 77, 0
2, 22338, Note_on_c, 0, 81, 93
2, 22368, Note_off_c, 0, 81, 0
2, 22368, Note_on_c, 0, 57, 93
2, 22398, Note_off_c, 0, 57, 0
2, 22398, Note_on_c, 0, 62, 93
2, 22434, Note_off_c, 0, 62, 0
2, 22434, Note_on_c, 0, 61, 93
2, 22464, Note_off_c, 0, 61, 0
2, 22464, Note_on_c, 0, 62, 93
2, 22728, Note_off_c, 0, 62, 0
2, 22728, Note_on_c, 0, 76, 93
2, 22752, Note_off_c, 0, 76, 0
2, 22752, Note_on_c, 0, 76, 93
2, 22848, Note_off_c, 0, 76, 0
2, 22848, Note_on_c, 0, 68, 93
2, 22878, Note_off_c, 0, 68, 0
2, 22878, Note_on_c, 0, 77, 93
2, 22914, Note_off_c, 0, 77, 0
2, 22914, Note_on_c, 0, 76, 93
2, 22944, Note_off_c, 0, 76, 0
2, 22944, Note_on_c, 0, 74, 93
2, 22974, Note_off_c, 0, 74, 0
2, 22974, Note_on_c, 0, 73, 93
2, 23010, Note_off_c, 0, 73, 0
2, 23010, Note_on_c, 0, 71, 93
2, 23040, Note_off_c, 0, 71, 0
2, 23040, Note_on_c, 0, 73, 93
2, 23070, Note_off_c, 0, 73, 0
2, 23070, Note_on_c, 0, 69, 93
2, 23106, Note_off_c, 0, 69, 0
2, 23106, Note_on_c, 0, 64, 93
2, 23136, Note_off_c, 0, 64, 0
2, 23136, Note_on_c, 0, 57, 93
2, 23166, Note_off_c, 0, 57, 0
2, 23166, Note_on_c, 0, 70, 93
2, 23202, Note_off_c, 0, 70, 0
2, 23202, Note_on_c, 0, 69, 93
2, 23232, Note_off_c, 0, 69, 0
2, 23232, Note_on_c, 0, 67, 93
2, 23262, Note_off_c, 0, 67, 0
2, 23262, Note_on_c, 0, 65, 93
2, 23298, Note_off_c, 0, 65, 0
2, 23298, Note_on_c, 0, 64, 93
2, 23328, Note_off_c, 0, 64, 0
2, 23328, Note_on_c, 0, 65, 93
2, 23400, Note_off_c, 0, 65, 0
2, 23400, Note_on_c, 0, 74, 93
2, 23424, Note_off_c, 0, 74, 0
2, 23424, Note_on_c, 0, 64, 93
2, 23496, Note_off_c, 0, 64, 0
2, 23496, Note_on_c, 0, 79, 93
2, 23520, Note_off_c, 0, 79, 0
2, 23520, Note_on_c, 0, 77, 93
2, 23592, Note_off_c, 0, 77, 0
2, 23592, Note_on_c, 0, 76, 93
2, 23616, Note_off_c, 0, 76, 0
2, 23616, Note_on_c, 0, 77, 93
2, 23688, Note_off_c, 0, 77, 0
2, 23688, Note_on_c, 0, 74, 93
2, 23712, Note_off_c, 0, 74, 0
2, 23712, Note_on_c, 0, 69, 93
2, 23784, Note_off_c, 0, 69, 0
2, 23784, Note_on_c, 0, 65, 93
2, 23808, Note_off_c, 0, 65, 0
2, 23808, Note_on_c, 0, 62, 93
2, 23880, Note_off_c, 0, 62, 0
2, 23880, Note_on_c, 0, 65, 93
2, 23904, Note_off_c, 0, 65, 0
2, 23904, Note_on_c, 0, 57, 93
2, 23934, Note_off_c, 0, 57, 0
2, 23934, Note_on_c, 0, 75, 93
2, 23970, Note_off_c, 0, 75, 0
2, 23970, Note_on_c, 0, 74, 93
2, 24000, Note_off_c, 0, 74, 0
2, 24000, Note_on_c, 0, 72, 93
2, 24030, Note_off_c, 0, 72, 0
2, 24030, Note_on_c, 0, 70, 93
2, 24066, Note_off_c, 0, 70, 0
2, 24066, Note_on_c, 0, 69, 93
2, 24096, Note_off_c, 0, 69, 0
2, 24096, Note_on_c, 0, 79, 93
2, 24126, Note_off_c, 0, 79, 0
2, 24126, Note_on_c, 0, 77, 93
2, 24162, Note_off_c, 0, 77, 0
2, 24162, Note_on_c, 0, 75, 93
2, 24192, Note_off_c, 0, 75, 0
2, 24192, Note_on_c, 0, 74, 93
2, 24264, Note_off_c, 0, 74, 0
2, 24264, Note_on_c, 0, 70, 93
2, 24288, Note_off_c, 0, 70, 0
2, 24288, Note_on_c, 0, 65, 93
2, 24360, Note_off_c, 0, 65, 0
2, 24360, Note_on_c, 0, 62, 93
2, 24384, Note_off_c, 0, 62, 0
2, 24384, Note_on_c, 0, 58, 93
2, 24456, Note_off_c, 0, 58, 0
2, 24456, Note_on_c, 0, 74, 93
2, 24480, Note_off_c, 0, 74, 0
2, 24480, Note_on_c, 0, 66, 93
2, 24510, Note_off_c, 0, 66, 0
2, 24510, Note_on_c, 0, 84, 93
2, 24546, Note_off_c, 0, 84, 0
2, 24546, Note_on_c, 0, 82, 93
2, 24576, Note_off_c, 0, 82, 0
2, 24576, Note_on_c, 0, 81, 93
2, 24606, Note_off_c, 0, 81, 0
2, 24606, Note_on_c, 0, 79, 93
2, 24642, Note_off_c, 0, 79, 0
2, 24642, Note_on_c, 0, 78, 93
2, 24672, Note_off_c, 0, 78, 0
2, 24672, Note_on_c, 0, 75, 93
2, 24702, Note_off_c, 0, 75, 0
2, 24702, Note_on_c, 0, 74, 93
2, 24738, Note_off_c, 0, 74, 0
2, 24738, Note_on_c, 0, 72, 93
2, 24768, Note_off_c, 0, 72, 0
2, 24768, Note_on_c, 0, 70, 93
2, 24798, Note_off_c, 0, 70, 0
2, 24798, Note_on_c, 0, 67, 93
2, 24834, Note_off_c, 0, 67, 0
2, 24834, Note_on_c, 0, 69, 93
2, 24864, Note_off_c, 0, 69, 0
2, 24864, Note_on_c, 0, 70, 93
2, 24894, Note_off_c, 0, 70, 0
2, 24894, Note_on_c, 0, 72, 93
2, 24930, Note_off_c, 0, 72, 0
2, 24930, Note_on_c, 0, 74, 93
2, 24960, Note_off_c, 0, 74, 0
2, 24960, Note_on_c, 0, 75, 93
2, 24990, Note_off_c, 0, 75, 0
2, 24990, Note_on_c, 0, 74, 93
2, 25026, Note_off_c, 0, 74, 0
2, 25026, Note_on_c, 0, 75, 93
2, 25056, Note_off_c, 0, 75, 0
2, 25056, Note_on_c, 0, 69, 93
2, 25086, Note_off_c, 0, 69, 0
2, 25086, Note_on_c, 0, 65, 93
2, 25122, Note_off_c, 0, 65, 0
2, 25122, Note_on_c, 0, 67, 93
2, 25152, Note_off_c, 0, 67, 0
2, 25152, Note_on_c, 0, 69, 93
2, 25182, Note_off_c, 0, 69, 0
2, 25182, Note_on_c, 0, 70, 93
2, 25218, Note_off_c, 0, 70, 0
2, 25218, Note_on_c, 0, 72, 93
2, 25248, Note_off_c, 0, 72, 0
2, 25248, Note_on_c, 0, 74, 93
2, 25278, Note_off_c, 0, 74, 0
2, 25278, Note_on_c, 0, 72, 93
2, 25314, Note_off_c, 0, 72, 0
2, 25314, Note_on_c, 0, 74, 93
2, 25344, Note_off_c, 0, 74, 0
2, 25344, Note_on_c, 0, 63, 93
2, 25416, Note_off_c, 0, 63, 0
2, 25416, Note_on_c, 0, 74, 93
2, 25440, Note_off_c, 0, 74, 0
2, 25440, Note_on_c, 0, 79, 93
2, 25512, Note_off_c, 0, 79, 0
2, 25512, Note_on_c, 0, 70, 93
2, 25536, Note_off_c, 0, 70, 0
2, 25536, Note_on_c, 0, 72, 93
2, 25608, Note_off_c, 0, 72, 0
2, 25608, Note_on_c, 0, 75, 93
2, 25632, Note_off_c, 0, 75, 0
2, 25632, Note_on_c, 0, 66, 93
2, 25662, Note_off_c, 0, 66, 0
2, 25662, Note_on_c, 0, 69, 93
2, 25698, Note_off_c, 0, 69, 0
2, 25698, Note_on_c, 0, 67, 93
2, 25728, Note_off_c, 0, 67, 0
2, 25728, Note_on_c, 0, 66, 93
2, 25758, Note_off_c, 0, 66, 0
2, 25758, Note_on_c, 0, 63, 93
2, 25794, Note_off_c, 0, 63, 0
2, 25794, Note_on_c, 0, 62, 93
2, 25824, Note_off_c, 0, 62, 0
2, 25824, Note_on_c, 0, 60, 93
2, 25854, Note_off_c, 0, 60, 0
2, 25854, Note_on_c, 0, 58, 93
2, 25890, Note_off_c, 0, 58, 0
2, 25890, Note_on_c, 0, 57, 93
2, 25920, Note_off_c, 0, 57, 0
2, 25920, Note_on_c, 0, 58, 93
2, 25950, Note_off_c, 0, 58, 0
2, 25950, Note_on_c, 0, 62, 93
2, 25986, Note_off_c, 0, 62, 0
2, 25986, Note_on_c, 0, 67, 93
2, 26016, Note_off_c, 0, 67, 0
2, 26016, Note_on_c, 0, 70, 93
2, 26046, Note_off_c, 0, 70, 0
2, 26046, Note_on_c, 0, 74, 93
2, 26082, Note_off_c, 0, 74, 0
2, 26082, Note_on_c, 0, 79, 93
2, 26112, Note_off_c, 0, 79, 0
2, 26112, Note_on_c, 0, 74, 93
2, 26142, Note_off_c, 0, 74, 0
2, 26142, Note_on_c, 0, 79, 93
2, 26178, Note_off_c, 0, 79, 0
2, 26178, Note_on_c, 0, 78, 93
2, 26208, Note_off_c, 0, 78, 0
2, 26208, Note_on_c, 0, 79, 93
2, 26238, Note_off_c, 0, 79, 0
2, 26238, Note_on_c, 0, 74, 93
2, 26274, Note_off_c, 0, 74, 0
2, 26274, Note_on_c, 0, 72, 93
2, 26304, Note_off_c, 0, 72, 0
2, 26304, Note_on_c, 0, 70, 93
2, 26334, Note_off_c, 0, 70, 0
2, 26334, Note_on_c, 0, 69, 93
2, 26370, Note_off_c, 0, 69, 0
2, 26370, Note_on_c, 0, 67, 93
2, 26400, Note_off_c, 0, 67, 0
2, 26400, Note_on_c, 0, 65, 93
2, 26430, Note_off_c, 0, 65, 0
2, 26430, Note_on_c, 0, 64, 93
2, 26466, Note_off_c, 0, 64, 0
2, 26466, Note_on_c, 0, 62, 93
2, 26496, Note_off_c, 0, 62, 0
2, 26496, Note_on_c, 0, 64, 93
2, 26568, Note_off_c, 0, 64, 0
2, 26568, Note_on_c, 0, 67, 93
2, 26592, Note_off_c, 0, 67, 0
2, 26592, Note_on_c, 0, 70, 93
2, 26664, Note_off_c, 0, 70, 0
2, 26664, Note_on_c, 0, 74, 93
2, 26688, Note_off_c, 0, 74, 0
2, 26688, Note_on_c, 0, 72, 93
2, 26760, Note_off_c, 0, 72, 0
2, 26760, Note_on_c, 0, 70, 93
2, 26784, Note_off_c, 0, 70, 0
2, 26784, Note_on_c, 0, 69, 93
2, 26814, Note_off_c, 0, 69, 0
2, 26814, Note_on_c, 0, 65, 93
2, 26850, Note_off_c, 0, 65, 0
2, 26850, Note_on_c, 0, 67, 93
2, 26880, Note_off_c, 0, 67, 0
2, 26880, Note_on_c, 0, 69, 93
2, 26910, Note_off_c, 0, 69, 0
2, 26910, Note_on_c, 0, 71, 93
2, 26946, Note_off_c, 0, 71, 0
2, 26946, Note_on_c, 0, 73, 93
2, 26976, Note_off_c, 0, 73, 0
2, 26976, Note_on_c, 0, 74, 93
2, 27006, Note_off_c, 0, 74, 0
2, 27006, Note_on_c, 0, 76, 93
2, 27042, Note_off_c, 0, 76, 0
2, 27042, Note_on_c, 0, 77, 93
2, 27072, Note_off_c, 0, 77, 0
2, 27072, Note_on_c, 0, 79, 93
2, 27102, Note_off_c, 0, 79, 0
2, 27102, Note_on_c, 0, 81, 93
2, 27138, Note_off_c, 0, 81, 0
2, 27138, Note_on_c, 0, 79, 93
2, 27168, Note_off_c, 0, 79, 0
2, 27168, Note_on_c, 0, 77, 93
2, 27198, Note_off_c, 0, 77, 0
2, 27198, Note_on_c, 0, 76, 93
2, 27234, Note_off_c, 0, 76, 0
2, 27234, Note_on_c, 0, 74, 93
2, 27264, Note_off_c, 0, 74, 0
2, 27264, Note_on_c, 0, 73, 93
2, 27294, Note_off_c, 0, 73, 0
2, 27294, Note_on_c, 0, 71, 93
2, 27330, Note_off_c, 0, 71, 0
2, 27330, Note_on_c, 0, 69, 93
2, 27360, Note_off_c, 0, 69, 0
2, 27360, Note_on_c, 0, 77, 93
2, 27390, Note_off_c, 0, 77, 0
2, 27390, Note_on_c, 0, 79, 93
2, 27426, Note_off_c, 0, 79, 0
2, 27426, Note_on_c, 0, 77, 93
2, 27456, Note_off_c, 0, 77, 0
2, 27456, Note_on_c, 0, 76, 93
2, 27486, Note_off_c, 0, 76, 0
2, 27486, Note_on_c, 0, 74, 93
2, 27522, Note_off_c, 0, 74, 0
2, 27522, Note_on_c, 0, 72, 93
2, 27552, Note_off_c, 0, 72, 0
2, 27552, Note_on_c, 0, 71, 93
2, 27582, Note_off_c, 0, 71, 0
2, 27582, Note_on_c, 0, 69, 93
2, 27618, Note_off_c, 0, 69, 0
2, 27618, Note_on_c, 0, 67, 93
2, 27648, Note_off_c, 0, 67, 0
2, 27648, Note_on_c, 0, 76, 93
2, 27678, Note_off_c, 0, 76, 0
2, 27678, Note_on_c, 0, 77, 93
2, 27714, Note_off_c, 0, 77, 0
2, 27714, Note_on_c, 0, 76, 93
2, 27744, Note_off_c, 0, 76, 0
2, 27744, Note_on_c, 0, 74, 93
2, 27774, Note_off_c, 0, 74, 0
2, 27774, Note_on_c, 0, 72, 93
2, 27810, Note_off_c, 0, 72, 0
2, 27810, Note_on_c, 0, 70, 93
2, 27840, Note_off_c, 0, 70, 0
2, 27840, Note_on_c, 0, 69, 93
2, 27870, Note_off_c, 0, 69, 0
2, 27870, Note_on_c, 0, 72, 93
2, 27906, Note_off_c, 0, 72, 0
2, 27906, Note_on_c, 0, 75, 93
2, 27936, Note_off_c, 0, 75, 0
2, 27936, Note_on_c, 0, 74, 93
2, 27966, Note_off_c, 0, 74, 0
2, 27966, Note_on_c, 0, 75, 93
2, 28002, Note_off_c, 0, 75, 0
2, 28002, Note_on_c, 0, 74, 93
2, 28032, Note_off_c, 0, 74, 0
2, 28032, Note_on_c, 0, 72, 93
2, 28062, Note_off_c, 0, 72, 0
2, 28062, Note_on_c, 0, 70, 93
2, 28098, Note_off_c, 0, 70, 0
2, 28098, Note_on_c, 0, 69, 93
2, 28128, Note_off_c, 0, 69, 0
2, 28128, Note_on_c, 0, 68, 93
2, 28158, Note_off_c, 0, 68, 0
2, 28158, Note_on_c, 0, 74, 93
2, 28194, Note_off_c, 0, 74, 0
2, 28194, Note_on_c, 0, 83, 93
2, 28224, Note_off_c, 0, 83, 0
2, 28224, Note_on_c, 0, 73, 93
2, 28320, Note_off_c, 0, 73, 0
2, 28320, Note_on_c, 0, 57, 93
2, 28350, Note_off_c, 0, 57, 0
2, 28350, Note_on_c, 0, 69, 93
2, 28386, Note_off_c, 0, 69, 0
2, 28386, Note_on_c, 0, 71, 93
2, 28416, Note_off_c, 0, 71, 0
2, 28416, Note_on_c, 0, 73, 93
2, 28446, Note_off_c, 0, 73, 0
2, 28446, Note_on_c, 0, 74, 93
2, 28482, Note_off_c, 0, 74, 0
2, 28482, Note_on_c, 0, 76, 93
2, 28512, Note_off_c, 0, 76, 0
2, 28512, Note_on_c, 0, 67, 93
2, 28542, Note_off_c, 0, 67, 0
2, 28542, Note_on_c, 0, 66, 93
2, 28578, Note_off_c, 0, 66, 0
2, 28578, Note_on_c, 0, 67, 93
2, 28608, Note_off_c, 0, 67, 0
2, 28608, Note_on_c, 0, 61, 93
2, 28638, Note_off_c, 0, 61, 0
2, 28638, Note_on_c, 0, 67, 93
2, 28674, Note_off_c, 0, 67, 0
2, 28674, Note_on_c, 0, 69, 93
2, 28704, Note_off_c, 0, 69, 0
2, 28704, Note_on_c, 0, 70, 93
2, 28734, Note_off_c, 0, 70, 0
2, 28734, Note_on_c, 0, 69, 93
2, 28770, Note_off_c, 0, 69, 0
2, 28770, Note_on_c, 0, 67, 93
2, 28800, Note_off_c, 0, 67, 0
2, 28800, Note_on_c, 0, 65, 93
2, 28830, Note_off_c, 0, 65, 0
2, 28830, Note_on_c, 0, 67, 93
2, 28866, Note_off_c, 0, 67, 0
2, 28866, Note_on_c, 0, 69, 93
2, 28896, Note_off_c, 0, 69, 0
2, 28896, Note_on_c, 0, 62, 93
2, 28926, Note_off_c, 0, 62, 0
2, 28926, Note_on_c, 0, 74, 93
2, 28962, Note_off_c, 0, 74, 0
2, 28962, Note_on_c, 0, 76, 93
2, 28992, Note_off_c, 0, 76, 0
2, 28992, Note_on_c, 0, 77, 93
2, 29022, Note_off_c, 0, 77, 0
2, 29022, Note_on_c, 0, 79, 93
2, 29058, Note_off_c, 0, 79, 0
2, 29058, Note_on_c, 0, 81, 93
2, 29088, Note_off_c, 0, 81, 0
2, 29088, Note_on_c, 0, 72, 93
2, 29118, Note_off_c, 0, 72, 0
2, 29118, Note_on_c, 0, 71, 93
2, 29154, Note_off_c, 0, 71, 0
2, 29154, Note_on_c, 0, 72, 93
2, 29184, Note_off_c, 0, 72, 0
2, 29184, Note_on_c, 0, 66, 93
2, 29214, Note_off_c, 0, 66, 0
2, 29214, Note_on_c, 0, 72, 93
2, 29250, Note_off_c, 0, 72, 0
2, 29250, Note_on_c, 0, 74, 93
2, 29280, Note_off_c, 0, 74, 0
2, 29280, Note_on_c, 0, 75, 93
2, 29310, Note_off_c, 0, 75, 0
2, 29310, Note_on_c, 0, 74, 93
2, 29346, Note_off_c, 0, 74, 0
2, 29346, Note_on_c, 0, 72, 93
2, 29376, Note_off_c, 0, 72, 0
2, 29376, Note_on_c, 0, 70, 93
2, 29406, Note_off_c, 0, 70, 0
2, 29406, Note_on_c, 0, 66, 93
2, 29442, Note_off_c, 0, 66, 0
2, 29442, Note_on_c, 0, 67, 93
2, 29472, Note_off_c, 0, 67, 0
2, 29472, Note_on_c, 0, 75, 93
2, 29502, Note_off_c, 0, 75, 0
2, 29502, Note_on_c, 0, 73, 93
2, 29538, Note_off_c, 0, 73, 0
2, 29538, Note_on_c, 0, 74, 93
2, 29568, Note_off_c, 0, 74, 0
2, 29568, Note_on_c, 0, 82, 93
2, 29598, Note_off_c, 0, 82, 0
2, 29598, Note_on_c, 0, 78, 93
2, 29634, Note_off_c, 0, 78, 0
2, 29634, Note_on_c, 0, 79, 93
2, 29664, Note_off_c, 0, 79, 0
2, 29664, Note_on_c, 0, 85, 93
2, 29784, Note_off_c, 0, 85, 0
2, 29790, Note_on_c, 0, 86, 93
2, 29820, Note_off_c, 0, 86, 0
2, 29850, Note_on_c, 0, 86, 93
2, 29886, Note_off_c, 0, 86, 0
2, 29886, Note_on_c, 0, 84, 93
2, 29916, Note_off_c, 0, 84, 0
2, 29916, Note_on_c, 0, 82, 93
2, 29946, Note_off_c, 0, 82, 0
2, 29952, Note_on_c, 0, 81, 93
2, 29982, Note_off_c, 0, 81, 0
2, 29982, Note_on_c, 0, 79, 93
2, 30018, Note_off_c, 0, 79, 0
2, 30018, Note_on_c, 0, 77, 93
2, 30048, Note_off_c, 0, 77, 0
2, 30048, Note_on_c, 0, 76, 93
2, 30078, Note_off_c, 0, 76, 0
2, 30078, Note_on_c, 0, 77, 93
2, 30114, Note_off_c, 0, 77, 0
2, 30114, Note_on_c, 0, 74, 93
2, 30144, Note_off_c, 0, 74, 0
2, 30144, Note_on_c, 0, 69, 93
2, 30174, Note_off_c, 0, 69, 0
2, 30174, Note_on_c, 0, 74, 93
2, 30210, Note_off_c, 0, 74, 0
2, 30210, Note_on_c, 0, 73, 93
2, 30240, Note_off_c, 0, 73, 0
2, 30240, Note_on_c, 0, 74, 93
2, 30312, Note_off_c, 0, 74, 0
2, 30312, Note_on_c, 0, 70, 93
2, 30336, Note_off_c, 0, 70, 0
2, 30336, Note_on_c, 0, 68, 93
2, 30462, Note_off_c, 0, 68, 0
2, 30462, Note_on_c, 0, 69, 93
2, 30498, Note_off_c, 0, 69, 0
2, 30498, Note_on_c, 0, 71, 93
2, 30528, Note_off_c, 0, 71, 0
2, 30528, Note_on_c, 0, 61, 93
2, 30558, Note_off_c, 0, 61, 0
2, 30558, Note_on_c, 0, 64, 93
2, 30594, Note_off_c, 0, 64, 0
2, 30594, Note_on_c, 0, 67, 93
2, 30624, Note_off_c, 0, 67, 0
2, 30624, Note_on_c, 0, 70, 93
2, 30750, Note_off_c, 0, 70, 0
2, 30750, Note_on_c, 0, 69, 93
2, 30786, Note_off_c, 0, 69, 0
2, 30786, Note_on_c, 0, 67, 93
2, 30816, Note_off_c, 0, 67, 0
2, 30816, Note_on_c, 0, 65, 93
2, 30846, Note_off_c, 0, 65, 0
2, 30846, Note_on_c, 0, 69, 93
2, 30882, Note_off_c, 0, 69, 0
2, 30882, Note_on_c, 0, 73, 93
2, 30912, Note_off_c, 0, 73, 0
2, 30912, Note_on_c, 0, 74, 93
2, 30942, Note_off_c, 0, 74, 0
2, 30942, Note_on_c, 0, 77, 93
2, 30978, Note_off_c, 0, 77, 0
2, 30978, Note_on_c, 0, 81, 93
2, 31008, Note_off_c, 0, 81, 0
2, 31008, Note_on_c, 0, 57, 93
2, 31038, Note_off_c, 0, 57, 0
2, 31038, Note_on_c, 0, 62, 93
2, 31074, Note_off_c, 0, 62, 0
2, 31074, Note_on_c, 0, 61, 93
2, 31104, Note_off_c, 0, 61, 0
2, 31104, Note_on_c, 0, 62, 93
2, 31368, Note_off_c, 0, 62, 0
2, 31368, End_track
3, 0, Start_track
3, 0, Title_t, "Track3"
3, 0, Program_c, 1, 40
3, 0, Control_c, 1, 7, 100
3, 0, Control_c, 1, 10, 74
3, 288, Note_on_c, 1, 65, 93
3, 384, Note_off_c, 1, 65, 0
3, 7200, Note_on_c, 1, 65, 93
3, 7296, Note_off_c, 1, 65, 0
3, 14112, Note_on_c, 1, 73, 93
3, 14208, Note_off_c, 1, 73, 0
3, 19584, Note_on_c, 1, 69, 93
3, 19680, Note_off_c, 1, 69, 0
3, 21024, Note_on_c, 1, 79, 93
3, 21120, Note_off_c, 1, 79, 0
3, 22752, Note_on_c, 1, 73, 93
3, 22848, Note_off_c, 1, 73, 0
3, 28224, Note_on_c, 1, 69, 93
3, 28320, Note_off_c, 1, 69, 0
3, 29664, Note_on_c, 1, 79, 93
3, 29760, Note_off_c, 1, 79, 0
3, 29760, End_track
4, 0, Start_track
4, 0, Title_t, "Track4"
4, 0, Program_c, 2, 40
4, 0, Control_c, 2, 7, 100
4, 0, Control_c, 2, 10, 54
4, 288, Note_on_c, 2, 62, 93
4, 384, Note_off_c, 2, 62, 0
4, 576, Note_on_c, 2, 62, 93
4, 672, Note_off_c, 2, 62, 0
4, 7200, Note_on_c, 2, 62, 93
4, 7296, Note_off_c, 2, 62, 0
4, 7488, Note_on_c, 2, 62, 93
4, 7584, Note_off_c, 2, 62, 0
4, 14112, Note_on_c, 2, 69, 93
4, 14208, Note_off_c, 2, 69, 0
4, 21024, Note_on_c, 2, 69, 93
4, 21120, Note_off_c, 2, 69, 0
4, 22752, Note_on_c, 2, 69, 93
4, 22848, Note_off_c, 2, 69, 0
4, 29664, Note_on_c, 2, 69, 93
4, 29760, Note_off_c, 2, 69, 0
4, 29760, End_track
0, 0, End_of_file
