0, 0, Header, 1, 5, 96
1, 0, Start_track
1, 0, Time_signature, 4, 2, 24, 8
1, 0, Title_t, "untitled"
1, 0, Title_t, "Track1"
1, 0, Tempo, 550458
1, 39648, Tempo, 1714285
1, 39648, End_track
2, 0, Start_track
2, 0, Title_t, "Track2"
2, 0, Program_c, 0, 40
2, 0, Control_c, 0, 7, 100
2, 0, Control_c, 0, 10, 64
2, 48, Note_on_c, 0, 88, 93
2, 72, Note_off_c, 0, 88, 0
2, 72, Note_on_c, 0, 87, 93
2, 96, Note_off_c, 0, 87, 0
2, 96, Note_on_c, 0, 88, 93
2, 144, Note_off_c, 0, 88, 0
2, 144, Note_on_c, 0, 83, 93
2, 192, Note_off_c, 0, 83, 0
2, 192, Note_on_c, 0, 80, 93
2, 240, Note_off_c, 0, 80, 0
2, 240, Note_on_c, 0, 83, 93
2, 288, Note_off_c, 0, 83, 0
2, 288, Note_on_c, 0, 76, 93
2, 312, Note_off_c, 0, 76, 0
2, 312, Note_on_c, 0, 78, 93
2, 336, Note_off_c, 0, 78, 0
2, 336, Note_on_c, 0, 76, 93
2, 360, Note_off_c, 0, 76, 0
2, 360, Note_on_c, 0, 75, 93
2, 384, Note_off_c, 0, 75, 0
2, 384, Note_on_c, 0, 76, 93
2, 432, Note_off_c, 0, 76, 0
2, 432, Note_on_c, 0, 71, 93
2, 480, Note_off_c, 0, 71, 0
2, 480, Note_on_c, 0, 68, 93
2, 528, Note_off_c, 0, 68, 0
2, 528, Note_on_c, 0, 71, 93
2, 576, Note_off_c, 0, 71, 0
2, 576, Note_on_c, 0, 64, 93
2, 600, Note_off_c, 0, 64, 0
2, 624, Note_on_c, 0, 66, 93
2, 648, Note_off_c, 0, 66, 0
2, 672, Note_on_c, 0, 68, 93
2, 696, Note_off_c, 0, 68, 0
2, 720, Note_on_c, 0, 69, 93
2, 744, Note_off_c, 0, 69, 0
2, 768, Note_on_c, 0, 68, 93
2, 792, Note_off_c, 0, 68, 0
2, 816, Note_on_c, 0, 66, 93
2, 840, Note_off_c, 0, 66, 0
2, 864, Note_on_c, 0, 64, 93
2, 888, Note_off_c, 0, 64, 0
2, 888, Note_on_c, 0, 76, 93
2, 912, Note_off_c, 0, 76, 0
2, 912, Note_on_c, 0, 75, 93
2, 936, Note_off_c, 0, 75, 0
2, 936, Note_on_c, 0, 73, 93
2, 960, Note_off_c, 0, 73, 0
2, 960, Note_on_c, 0, 71, 93
2, 984, Note_off_c, 0, 71, 0
2, 984, Note_on_c, 0, 76, 93
2, 1008, Note_off_c, 0, 76, 0
2, 1008, Note_on_c, 0, 75, 93
2, 1032, Note_off_c, 0, 75, 0
2, 1032, Note_on_c, 0, 73, 93
2, 1056, Note_off_c, 0, 73, 0
2, 1056, Note_on_c, 0, 71, 93
2, 1080, Note_off_c, 0, 71, 0
2, 1080, Note_on_c, 0, 69, 93
2, 1104, Note_off_c, 0, 69, 0
2, 1104, Note_on_c, 0, 68, 93
2, 1128, Note_off_c, 0, 68, 0
2, 1128, Note_on_c, 0, 66, 93
2, 1152, Note_off_c, 0, 66, 0
2, 1728, Note_on_c, 0, 64, 93
2, 1752, Note_off_c, 0, 64, 0
2, 1752, Note_on_c, 0, 66, 93
2, 1776, Note_off_c, 0, 66, 0
2, 1776, Note_on_c, 0, 68, 93
2, 1800, Note_off_c, 0, 68, 0
2, 1800, Note_on_c, 0, 69, 93
2, 1824, Note_off_c, 0, 69, 0
2, 1824, Note_on_c, 0, 71, 93
2, 1848, Note_off_c, 0, 71, 0
2, 1848, Note_on_c, 0, 73, 93
2, 1872, Note_off_c, 0, 73, 0
2, 1872, Note_on_c, 0, 75, 93
2, 1896, Note_off_c, 0, 75, 0
2, 1896, Note_on_c, 0, 76, 93
2, 1920, Note_off_c, 0, 76, 0
2, 1920, Note_on_c, 0, 78, 93
2, 1944, Note_off_c, 0, 78, 0
2, 1944, Note_on_c, 0, 80, 93
2, 1968, Note_off_c, 0, 80, 0
2, 1968, Note_on_c, 0, 81, 93
2, 1992, Note_off_c, 0, 81, 0
2, 1992, Note_on_c, 0, 78, 93
2, 2016, Note_off_c, 0, 78, 0
2, 2016, Note_on_c, 0, 80, 93
2, 2040, Note_off_c, 0, 80, 0
2, 2040, Note_on_c, 0, 83, 93
2, 2064, Note_off_c, 0, 83, 0
2, 2064, Note_on_c, 0, 76, 93
2, 2088, Note_off_c, 0, 76, 0
2, 2088, Note_on_c, 0, 78, 93
2, 2112, Note_off_c, 0, 78, 0
2, 2112, Note_on_c, 0, 80, 93
2, 2136, Note_off_c, 0, 80, 0
2, 2136, Note_on_c, 0, 81, 93
2, 2160, Note_off_c, 0, 81, 0
2, 2160, Note_on_c, 0, 83, 93
2, 2184, Note_off_c, 0, 83, 0
2, 2184, Note_on_c, 0, 85, 93
2, 2208, Note_off_c, 0, 85, 0
2, 2208, Note_on_c, 0, 87, 93
2, 2232, Note_off_c, 0, 87, 0
2, 2232, Note_on_c, 0, 88, 93
2, 2256, Note_off_c, 0, 88, 0
2, 2256, Note_on_c, 0, 85, 93
2, 2280, Note_off_c, 0, 85, 0
2, 2280, Note_on_c, 0, 87, 93
2, 2304, Note_off_c, 0, 87, 0
2, 2304, Note_on_c, 0, 88, 93
2, 2328, Note_off_c, 0, 88, 0
2, 2352, Note_on_c, 0, 81, 93
2, 2376, Note_off_c, 0, 81, 0
2, 2400, Note_on_c, 0, 80, 93
2, 2424, Note_off_c, 0, 80, 0
2, 2448, Note_on_c, 0, 81, 93
2, 2472, Note_off_c, 0, 81, 0
2, 2496, Note_on_c, 0, 80, 93
2, 2520, Note_off_c, 0, 80, 0
2, 2544, Note_on_c, 0, 78, 93
2, 2568, Note_off_c, 0, 78, 0
2, 2592, Note_on_c, 0, 76, 93
2, 2616, Note_off_c, 0, 76, 0
2, 2616, Note_on_c, 0, 88, 93
2, 2640, Note_off_c, 0, 88, 0
2, 2640, Note_on_c, 0, 87, 93
2, 2664, Note_off_c, 0, 87, 0
2, 2664, Note_on_c, 0, 85, 93
2, 2688, Note_off_c, 0, 85, 0
2, 2688, Note_on_c, 0, 83, 93
2, 2712, Note_off_c, 0, 83, 0
2, 2736, Note_on_c, 0, 85, 93
2, 2760, Note_off_c, 0, 85, 0
2, 2784, Note_on_c, 0, 83, 93
2, 2808, Note_off_c, 0, 83, 0
2, 2832, Note_on_c, 0, 81, 93
2, 2856, Note_off_c, 0, 81, 0
2, 3456, Note_on_c, 0, 80, 93
2, 3480, Note_off_c, 0, 80, 0
2, 3504, Note_on_c, 0, 76, 93
2, 3528, Note_off_c, 0, 76, 0
2, 3552, Note_on_c, 0, 75, 93
2, 3576, Note_off_c, 0, 75, 0
2, 3600, Note_on_c, 0, 76, 93
2, 3624, Note_off_c, 0, 76, 0
2, 3648, Note_on_c, 0, 78, 93
2, 3672, Note_off_c, 0, 78, 0
2, 3696, Note_on_c, 0, 75, 93
2, 3720, Note_off_c, 0, 75, 0
2, 3744, Note_on_c, 0, 76, 93
2, 3768, Note_off_c, 0, 76, 0
2, 3792, Note_on_c, 0, 80, 93
2, 3816, Note_off_c, 0, 80, 0
2, 3840, Note_on_c, 0, 78, 93
2, 3864, Note_off_c, 0, 78, 0
2, 3888, Note_on_c, 0, 80, 93
2, 3912, Note_off_c, 0, 80, 0
2, 3936, Note_on_c, 0, 81, 93
2, 3960, Note_off_c, 0, 81, 0
2, 3984, Note_on_c, 0, 78, 93
2, 4008, Note_off_c, 0, 78, 0
2, 4032, Note_on_c, 0, 80, 93
2, 4056, Note_off_c, 0, 80, 0
2, 4080, Note_on_c, 0, 76, 67
2, 4104, Note_off_c, 0, 76, 0
2, 4128, Note_on_c, 0, 75, 67
2, 4152, Note_off_c, 0, 75, 0
2, 4176, Note_on_c, 0, 76, 67
2, 4200, Note_off_c, 0, 76, 0
2, 4224, Note_on_c, 0, 78, 67
2, 4248, Note_off_c, 0, 78, 0
2, 4272, Note_on_c, 0, 75, 67
2, 4296, Note_off_c, 0, 75, 0
2, 4320, Note_on_c, 0, 76, 67
2, 4344, Note_off_c, 0, 76, 0
2, 4368, Note_on_c, 0, 80, 67
2, 4392, Note_off_c, 0, 80, 0
2, 4416, Note_on_c, 0, 78, 67
2, 4440, Note_off_c, 0, 78, 0
2, 4464, Note_on_c, 0, 80, 67
2, 4488, Note_off_c, 0, 80, 0
2, 4512, Note_on_c, 0, 81, 67
2, 4536, Note_off_c, 0, 81, 0
2, 4560, Note_on_c, 0, 78, 67
2, 4584, Note_off_c, 0, 78, 0
2, 4608, Note_on_c, 0, 80, 93
2, 4632, Note_off_c, 0, 80, 0
2, 4656, Note_on_c, 0, 80, 93
2, 4680, Note_off_c, 0, 80, 0
2, 4704, Note_on_c, 0, 80, 93
2, 4728, Note_off_c, 0, 80, 0
2, 4752, Note_on_c, 0, 80, 93
2, 4776, Note_off_c, 0, 80, 0
2, 4800, Note_on_c, 0, 80, 93
2, 4824, Note_off_c, 0, 80, 0
2, 4848, Note_on_c, 0, 80, 93
2, 4872, Note_off_c, 0, 80, 0
2, 4896, Note_on_c, 0, 80, 93
2, 4920, Note_off_c, 0, 80, 0
2, 4944, Note_on_c, 0, 80, 93
2, 4968, Note_off_c, 0, 80, 0
2, 4992, Note_on_c, 0, 80, 93
2, 5016, Note_off_c, 0, 80, 0
2, 5040, Note_on_c, 0, 80, 93
2, 5064, Note_off_c, 0, 80, 0
2, 5088, Note_on_c, 0, 80, 93
2, 5112, Note_off_c, 0, 80, 0
2, 5136, Note_on_c, 0, 80, 93
2, 5160, Note_off_c, 0, 80, 0
2, 5184, Note_on_c, 0, 80, 93
2, 5208, Note_off_c, 0, 80, 0
2, 5232, Note_on_c, 0, 80, 93
2, 5256, Note_off_c, 0, 80, 0
2, 5280, Note_on_c, 0, 80, 93
2, 5304, Note_off_c, 0, 80, 0
2, 5328, Note_on_c, 0, 80, 93
2, 5352, Note_off_c, 0, 80, 0
2, 5376, Note_on_c, 0, 80, 93
2, 5400, Note_off_c, 0, 80, 0
2, 5424, Note_on_c, 0, 80, 93
2, 5448, Note_off_c, 0, 80, 0
2, 5472, Note_on_c, 0, 81, 93
2, 5496, Note_off_c, 0, 81, 0
2, 5520, Note_on_c, 0, 81, 93
2, 5544, Note_off_c, 0, 81, 0
2, 5568, Note_on_c, 0, 81, 93
2, 5592, Note_off_c, 0, 81, 0
2, 5616, Note_on_c, 0, 81, 93
2, 5640, Note_off_c, 0, 81, 0
2, 5664, Note_on_c, 0, 81, 93
2, 5688, Note_off_c, 0, 81, 0
2, 5712, Note_on_c, 0, 81, 93
2, 5736, Note_off_c, 0, 81, 0
2, 5760, Note_on_c, 0, 81, 93
2, 5784, Note_off_c, 0, 81, 0
2, 5808, Note_on_c, 0, 81, 93
2, 5832, Note_off_c, 0, 81, 0
2, 5856, Note_on_c, 0, 81, 93
2, 5880, Note_off_c, 0, 81, 0
2, 5904, Note_on_c, 0, 81, 93
2, 5928, Note_off_c, 0, 81, 0
2, 5952, Note_on_c, 0, 81, 93
2, 5976, Note_off_c, 0, 81, 0
2, 6000, Note_on_c, 0, 81, 93
2, 6024, Note_off_c, 0, 81, 0
2, 6048, Note_on_c, 0, 80, 93
2, 6072, Note_off_c, 0, 80, 0
2, 6096, Note_on_c, 0, 80, 93
2, 6120, Note_off_c, 0, 80, 0
2, 6144, Note_on_c, 0, 80, 93
2, 6168, Note_off_c, 0, 80, 0
2, 6192, Note_on_c, 0, 80, 93
2, 6216, Note_off_c, 0, 80, 0
2, 6240, Note_on_c, 0, 80, 93
2, 6264, Note_off_c, 0, 80, 0
2, 6288, Note_on_c, 0, 80, 93
2, 6312, Note_off_c, 0, 80, 0
2, 6336, Note_on_c, 0, 80, 93
2, 6360, Note_off_c, 0, 80, 0
2, 6384, Note_on_c, 0, 80, 93
2, 6408, Note_off_c, 0, 80, 0
2, 6432, Note_on_c, 0, 80, 93
2, 6456, Note_off_c, 0, 80, 0
2, 6480, Note_on_c, 0, 80, 93
2, 6504, Note_off_c, 0, 80, 0
2, 6528, Note_on_c, 0, 80, 93
2, 6552, Note_off_c, 0, 80, 0
2, 6576, Note_on_c, 0, 80, 93
2, 6600, Note_off_c, 0, 80, 0
2, 6624, Note_on_c, 0, 78, 93
2, 6648, Note_off_c, 0, 78, 0
2, 6672, Note_on_c, 0, 78, 93
2, 6696, Note_off_c, 0, 78, 0
2, 6720, Note_on_c, 0, 78, 93
2, 6744, Note_off_c, 0, 78, 0
2, 6768, Note_on_c, 0, 78, 93
2, 6792, Note_off_c, 0, 78, 0
2, 6816, Note_on_c, 0, 78, 93
2, 6840, Note_off_c, 0, 78, 0
2, 6864, Note_on_c, 0, 78, 93
2, 6888, Note_off_c, 0, 78, 0
2, 6912, Note_on_c, 0, 78, 93
2, 6936, Note_off_c, 0, 78, 0
2, 6960, Note_on_c, 0, 78, 93
2, 6984, Note_off_c, 0, 78, 0
2, 7008, Note_on_c, 0, 78, 93
2, 7032, Note_off_c, 0, 78, 0
2, 7056, Note_on_c, 0, 78, 93
2, 7080, Note_off_c, 0, 78, 0
2, 7104, Note_on_c, 0, 78, 93
2, 7128, Note_off_c, 0, 78, 0
2, 7152, Note_on_c, 0, 78, 93
2, 7176, Note_off_c, 0, 78, 0
2, 7200, Note_on_c, 0, 76, 93
2, 7224, Note_off_c, 0, 76, 0
2, 7248, Note_on_c, 0, 76, 93
2, 7272, Note_off_c, 0, 76, 0
2, 7296, Note_on_c, 0, 76, 93
2, 7320, Note_off_c, 0, 76, 0
2, 7344, Note_on_c, 0, 76, 93
2, 7368, Note_off_c, 0, 76, 0
2, 7392, Note_on_c, 0, 76, 93
2, 7416, Note_off_c, 0, 76, 0
2, 7440, Note_on_c, 0, 76, 93
2, 7464, Note_off_c, 0, 76, 0
2, 7488, Note_on_c, 0, 76, 93
2, 7512, Note_off_c, 0, 76, 0
2, 7536, Note_on_c, 0, 76, 93
2, 7560, Note_off_c, 0, 76, 0
2, 7584, Note_on_c, 0, 76, 93
2, 7608, Note_off_c, 0, 76, 0
2, 7632, Note_on_c, 0, 76, 93
2, 7656, Note_off_c, 0, 76, 0
2, 7680, Note_on_c, 0, 76, 93
2, 7704, Note_off_c, 0, 76, 0
2, 7728, Note_on_c, 0, 76, 93
2, 7752, Note_off_c, 0, 76, 0
2, 7776, Note_on_c, 0, 75, 93
2, 7800, Note_off_c, 0, 75, 0
2, 7824, Note_on_c, 0, 75, 93
2, 7848, Note_off_c, 0, 75, 0
2, 7872, Note_on_c, 0, 75, 93
2, 7896, Note_off_c, 0, 75, 0
2, 7920, Note_on_c, 0, 75, 93
2, 7944, Note_off_c, 0, 75, 0
2, 7968, Note_on_c, 0, 75, 93
2, 7992, Note_off_c, 0, 75, 0
2, 8016, Note_on_c, 0, 75, 93
2, 8040, Note_off_c, 0, 75, 0
2, 8064, Note_on_c, 0, 64, 93
2, 8088, Note_off_c, 0, 64, 0
2, 8088, Note_on_c, 0, 66, 93
2, 8112, Note_off_c, 0, 66, 0
2, 8112, Note_on_c, 0, 64, 93
2, 8136, Note_off_c, 0, 64, 0
2, 8136, Note_on_c, 0, 66, 93
2, 8160, Note_off_c, 0, 66, 0
2, 8160, Note_on_c, 0, 68, 93
2, 8184, Note_off_c, 0, 68, 0
2, 8184, Note_on_c, 0, 71, 93
2, 8208, Note_off_c, 0, 71, 0
2, 8208, Note_on_c, 0, 64, 93
2, 8232, Note_off_c, 0, 64, 0
2, 8232, Note_on_c, 0, 66, 93
2, 8256, Note_off_c, 0, 66, 0
2, 8256, Note_on_c, 0, 68, 93
2, 8280, Note_off_c, 0, 68, 0
2, 8280, Note_on_c, 0, 71, 93
2, 8304, Note_off_c, 0, 71, 0
2, 8304, Note_on_c, 0, 64, 93
2, 8328, Note_off_c, 0, 64, 0
2, 8328, Note_on_c, 0, 66, 93
2, 8352, Note_off_c, 0, 66, 0
2, 8352, Note_on_c, 0, 68, 93
2, 8376, Note_off_c, 0, 68, 0
2, 8376, Note_on_c, 0, 69, 93
2, 8400, Note_off_c, 0, 69, 0
2, 8400, Note_on_c, 0, 68, 93
2, 8424, Note_off_c, 0, 68, 0
2, 8424, Note_on_c, 0, 69, 93
2, 8448, Note_off_c, 0, 69, 0
2, 8448, Note_on_c, 0, 71, 93
2, 8472, Note_off_c, 0, 71, 0
2, 8472, Note_on_c, 0, 76, 93
2, 8496, Note_off_c, 0, 76, 0
2, 8496, Note_on_c, 0, 68, 93
2, 8520, Note_off_c, 0, 68, 0
2, 8520, Note_on_c, 0, 69, 93
2, 8544, Note_off_c, 0, 69, 0
2, 8544, Note_on_c, 0, 71, 93
2, 8568, Note_off_c, 0, 71, 0
2, 8568, Note_on_c, 0, 76, 93
2, 8592, Note_off_c, 0, 76, 0
2, 8592, Note_on_c, 0, 68, 93
2, 8616, Note_off_c, 0, 68, 0
2, 8616, Note_on_c, 0, 69, 93
2, 8640, Note_off_c, 0, 69, 0
2, 8640, Note_on_c, 0, 71, 93
2, 8664, Note_off_c, 0, 71, 0
2, 8664, Note_on_c, 0, 73, 93
2, 8688, Note_off_c, 0, 73, 0
2, 8688, Note_on_c, 0, 71, 93
2, 8712, Note_off_c, 0, 71, 0
2, 8712, Note_on_c, 0, 73, 93
2, 8736, Note_off_c, 0, 73, 0
2, 8736, Note_on_c, 0, 74, 93
2, 8760, Note_off_c, 0, 74, 0
2, 8760, Note_on_c, 0, 80, 93
2, 8784, Note_off_c, 0, 80, 0
2, 8784, Note_on_c, 0, 71, 93
2, 8808, Note_off_c, 0, 71, 0
2, 8808, Note_on_c, 0, 73, 93
2, 8832, Note_off_c, 0, 73, 0
2, 8832, Note_on_c, 0, 74, 93
2, 8856, Note_off_c, 0, 74, 0
2, 8856, Note_on_c, 0, 80, 93
2, 8880, Note_off_c, 0, 80, 0
2, 8880, Note_on_c, 0, 71, 93
2, 8904, Note_off_c, 0, 71, 0
2, 8904, Note_on_c, 0, 73, 93
2, 8928, Note_off_c, 0, 73, 0
2, 8928, Note_on_c, 0, 74, 93
2, 8952, Note_off_c, 0, 74, 0
2, 8952, Note_on_c, 0, 83, 93
2, 8976, Note_off_c, 0, 83, 0
2, 8976, Note_on_c, 0, 80, 93
2, 9000, Note_off_c, 0, 80, 0
2, 9000, Note_on_c, 0, 76, 93
2, 9024, Note_off_c, 0, 76, 0
2, 9024, Note_on_c, 0, 74, 93
2, 9048, Note_off_c, 0, 74, 0
2, 9048, Note_on_c, 0, 71, 93
2, 9072, Note_off_c, 0, 71, 0
2, 9072, Note_on_c, 0, 68, 93
2, 9096, Note_off_c, 0, 68, 0
2, 9096, Note_on_c, 0, 64, 93
2, 9120, Note_off_c, 0, 64, 0
2, 9120, Note_on_c, 0, 62, 93
2, 9144, Note_off_c, 0, 62, 0
2, 9144, Note_on_c, 0, 61, 93
2, 9168, Note_off_c, 0, 61, 0
2, 9168, Note_on_c, 0, 62, 93
2, 9192, Note_off_c, 0, 62, 0
2, 9192, Note_on_c, 0, 59, 93
2, 9216, Note_off_c, 0, 59, 0
2, 9216, Note_on_c, 0, 61, 93
2, 9240, Note_off_c, 0, 61, 0
2, 9240, Note_on_c, 0, 63, 93
2, 9264, Note_off_c, 0, 63, 0
2, 9264, Note_on_c, 0, 61, 93
2, 9288, Note_off_c, 0, 61, 0
2, 9288, Note_on_c, 0, 63, 93
2, 9312, Note_off_c, 0, 63, 0
2, 9312, Note_on_c, 0, 65, 93
2, 9336, Note_off_c, 0, 65, 0
2, 9336, Note_on_c, 0, 68, 93
2, 9360, Note_off_c, 0, 68, 0
2, 9360, Note_on_c, 0, 61, 93
2, 9384, Note_off_c, 0, 61, 0
2, 9384, Note_on_c, 0, 63, 93
2, 9408, Note_off_c, 0, 63, 0
2, 9408, Note_on_c, 0, 65, 93
2, 9432, Note_off_c, 0, 65, 0
2, 9432, Note_on_c, 0, 68, 93
2, 9456, Note_off_c, 0, 68, 0
2, 9456, Note_on_c, 0, 61, 93
2, 9480, Note_off_c, 0, 61, 0
2, 9480, Note_on_c, 0, 63, 93
2, 9504, Note_off_c, 0, 63, 0
2, 9504, Note_on_c, 0, 65, 93
2, 9528, Note_off_c, 0, 65, 0
2, 9528, Note_on_c, 0, 66, 93
2, 9552, Note_off_c, 0, 66, 0
2, 9552, Note_on_c, 0, 65, 93
2, 9576, Note_off_c, 0, 65, 0
2, 9576, Note_on_c, 0, 66, 93
2, 9600, Note_off_c, 0, 66, 0
2, 9600, Note_on_c, 0, 68, 93
2, 9624, Note_off_c, 0, 68, 0
2, 9624, Note_on_c, 0, 73, 93
2, 9648, Note_off_c, 0, 73, 0
2, 9648, Note_on_c, 0, 65, 93
2, 9672, Note_off_c, 0, 65, 0
2, 9672, Note_on_c, 0, 66, 93
2, 9696, Note_off_c, 0, 66, 0
2, 9696, Note_on_c, 0, 68, 93
2, 9720, Note_off_c, 0, 68, 0
2, 9720, Note_on_c, 0, 73, 93
2, 9744, Note_off_c, 0, 73, 0
2, 9744, Note_on_c, 0, 65, 93
2, 9768, Note_off_c, 0, 65, 0
2, 9768, Note_on_c, 0, 66, 93
2, 9792, Note_off_c, 0, 66, 0
2, 9792, Note_on_c, 0, 68, 93
2, 9816, Note_off_c, 0, 68, 0
2, 9816, Note_on_c, 0, 69, 93
2, 9840, Note_off_c, 0, 69, 0
2, 9840, Note_on_c, 0, 68, 93
2, 9864, Note_off_c, 0, 68, 0
2, 9864, Note_on_c, 0, 69, 93
2, 9888, Note_off_c, 0, 69, 0
2, 9888, Note_on_c, 0, 71, 93
2, 9912, Note_off_c, 0, 71, 0
2, 9912, Note_on_c, 0, 77, 93
2, 9936, Note_off_c, 0, 77, 0
2, 9936, Note_on_c, 0, 68, 93
2, 9960, Note_off_c, 0, 68, 0
2, 9960, Note_on_c, 0, 69, 93
2, 9984, Note_off_c, 0, 69, 0
2, 9984, Note_on_c, 0, 71, 93
2, 10008, Note_off_c, 0, 71, 0
2, 10008, Note_on_c, 0, 77, 93
2, 10032, Note_off_c, 0, 77, 0
2, 10032, Note_on_c, 0, 68, 93
2, 10056, Note_off_c, 0, 68, 0
2, 10056, Note_on_c, 0, 69, 93
2, 10080, Note_off_c, 0, 69, 0
2, 10080, Note_on_c, 0, 71, 93
2, 10104, Note_off_c, 0, 71, 0
2, 10104, Note_on_c, 0, 80, 93
2, 10128, Note_off_c, 0, 80, 0
2, 10128, Note_on_c, 0, 77, 93
2, 10152, Note_off_c, 0, 77, 0
2, 10152, Note_on_c, 0, 73, 93
2, 10176, Note_off_c, 0, 73, 0
2, 10176, Note_on_c, 0, 83, 93
2, 10200, Note_off_c, 0, 83, 0
2, 10200, Note_on_c, 0, 80, 93
2, 10224, Note_off_c, 0, 80, 0
2, 10224, Note_on_c, 0, 81, 93
2, 10248, Note_off_c, 0, 81, 0
2, 10248, Note_on_c, 0, 78, 93
2, 10272, Note_off_c, 0, 78, 0
2, 10272, Note_on_c, 0, 77, 93
2, 10296, Note_off_c, 0, 77, 0
2, 10296, Note_on_c, 0, 80, 93
2, 10320, Note_off_c, 0, 80, 0
2, 10320, Note_on_c, 0, 73, 93
2, 10344, Note_off_c, 0, 73, 0
2, 10344, Note_on_c, 0, 71, 93
2, 10368, Note_off_c, 0, 71, 0
2, 10368, Note_on_c, 0, 69, 93
2, 10392, Note_off_c, 0, 69, 0
2, 10392, Note_on_c, 0, 73, 93
2, 10416, Note_off_c, 0, 73, 0
2, 10416, Note_on_c, 0, 69, 93
2, 10440, Note_off_c, 0, 69, 0
2, 10440, Note_on_c, 0, 66, 93
2, 10464, Note_off_c, 0, 66, 0
2, 10464, Note_on_c, 0, 78, 93
2, 10488, Note_off_c, 0, 78, 0
2, 10488, Note_on_c, 0, 75, 93
2, 10512, Note_off_c, 0, 75, 0
2, 10512, Note_on_c, 0, 76, 93
2, 10536, Note_off_c, 0, 76, 0
2, 10536, Note_on_c, 0, 73, 93
2, 10560, Note_off_c, 0, 73, 0
2, 10560, Note_on_c, 0, 72, 93
2, 10584, Note_off_c, 0, 72, 0
2, 10584, Note_on_c, 0, 75, 93
2, 10608, Note_off_c, 0, 75, 0
2, 10608, Note_on_c, 0, 68, 93
2, 10632, Note_off_c, 0, 68, 0
2, 10632, Note_on_c, 0, 66, 93
2, 10656, Note_off_c, 0, 66, 0
2, 10656, Note_on_c, 0, 64, 93
2, 10680, Note_off_c, 0, 64, 0
2, 10680, Note_on_c, 0, 68, 93
2, 10704, Note_off_c, 0, 68, 0
2, 10704, Note_on_c, 0, 64, 93
2, 10728, Note_off_c, 0, 64, 0
2, 10728, Note_on_c, 0, 61, 93
2, 10752, Note_off_c, 0, 61, 0
2, 10752, Note_on_c, 0, 64, 93
2, 10776, Note_off_c, 0, 64, 0
2, 10776, Note_on_c, 0, 68, 93
2, 10800, Note_off_c, 0, 68, 0
2, 10800, Note_on_c, 0, 73, 93
2, 10824, Note_off_c, 0, 73, 0
2, 10824, Note_on_c, 0, 68, 93
2, 10848, Note_off_c, 0, 68, 0
2, 10848, Note_on_c, 0, 76, 93
2, 10872, Note_off_c, 0, 76, 0
2, 10872, Note_on_c, 0, 73, 93
2, 10896, Note_off_c, 0, 73, 0
2, 10896, Note_on_c, 0, 80, 93
2, 10920, Note_off_c, 0, 80, 0
2, 10920, Note_on_c, 0, 73, 93
2, 10944, Note_off_c, 0, 73, 0
2, 10944, Note_on_c, 0, 72, 93
2, 10968, Note_off_c, 0, 72, 0
2, 10968, Note_on_c, 0, 75, 93
2, 10992, Note_off_c, 0, 75, 0
2, 10992, Note_on_c, 0, 72, 93
2, 11016, Note_off_c, 0, 72, 0
2, 11016, Note_on_c, 0, 68, 93
2, 11040, Note_off_c, 0, 68, 0
2, 11040, Note_on_c, 0, 80, 93
2, 11064, Note_off_c, 0, 80, 0
2, 11064, Note_on_c, 0, 79, 93
2, 11088, Note_off_c, 0, 79, 0
2, 11088, Note_on_c, 0, 80, 93
2, 11112, Note_off_c, 0, 80, 0
2, 11112, Note_on_c, 0, 79, 93
2, 11136, Note_off_c, 0, 79, 0
2, 11136, Note_on_c, 0, 80, 93
2, 11160, Note_off_c, 0, 80, 0
2, 11160, Note_on_c, 0, 75, 93
2, 11184, Note_off_c, 0, 75, 0
2, 11184, Note_on_c, 0, 76, 93
2, 11208, Note_off_c, 0, 76, 0
2, 11208, Note_on_c, 0, 73, 93
2, 11232, Note_off_c, 0, 73, 0
2, 11232, Note_on_c, 0, 72, 93
2, 11256, Note_off_c, 0, 72, 0
2, 11256, Note_on_c, 0, 75, 93
2, 11280, Note_off_c, 0, 75, 0
2, 11280, Note_on_c, 0, 72, 93
2, 11304, Note_off_c, 0, 72, 0
2, 11304, Note_on_c, 0, 68, 93
2, 11328, Note_off_c, 0, 68, 0
2, 11328, Note_on_c, 0, 78, 93
2, 11352, Note_off_c, 0, 78, 0
2, 11352, Note_on_c, 0, 77, 93
2, 11376, Note_off_c, 0, 77, 0
2, 11376, Note_on_c, 0, 78, 93
2, 11400, Note_off_c, 0, 78, 0
2, 11400, Note_on_c, 0, 77, 93
2, 11424, Note_off_c, 0, 77, 0
2, 11424, Note_on_c, 0, 78, 93
2, 11448, Note_off_c, 0, 78, 0
2, 11448, Note_on_c, 0, 75, 93
2, 11472, Note_off_c, 0, 75, 0
2, 11472, Note_on_c, 0, 76, 93
2, 11496, Note_off_c, 0, 76, 0
2, 11496, Note_on_c, 0, 73, 93
2, 11520, Note_off_c, 0, 73, 0
2, 11520, Note_on_c, 0, 72, 93
2, 11544, Note_off_c, 0, 72, 0
2, 11544, Note_on_c, 0, 75, 93
2, 11568, Note_off_c, 0, 75, 0
2, 11568, Note_on_c, 0, 72, 93
2, 11592, Note_off_c, 0, 72, 0
2, 11592, Note_on_c, 0, 68, 93
2, 11616, Note_off_c, 0, 68, 0
2, 11616, Note_on_c, 0, 69, 93
2, 11640, Note_off_c, 0, 69, 0
2, 11640, Note_on_c, 0, 68, 93
2, 11664, Note_off_c, 0, 68, 0
2, 11664, Note_on_c, 0, 69, 93
2, 11688, Note_off_c, 0, 69, 0
2, 11688, Note_on_c, 0, 68, 93
2, 11712, Note_off_c, 0, 68, 0
2, 11712, Note_on_c, 0, 69, 93
2, 11736, Note_off_c, 0, 69, 0
2, 11736, Note_on_c, 0, 63, 93
2, 11760, Note_off_c, 0, 63, 0
2, 11760, Note_on_c, 0, 64, 93
2, 11784, Note_off_c, 0, 64, 0
2, 11784, Note_on_c, 0, 61, 93
2, 11808, Note_off_c, 0, 61, 0
2, 11808, Note_on_c, 0, 60, 93
2, 11832, Note_off_c, 0, 60, 0
2, 11856, Note_on_c, 0, 61, 93
2, 11880, Note_off_c, 0, 61, 0
2, 11904, Note_on_c, 0, 63, 93
2, 11928, Note_off_c, 0, 63, 0
2, 11952, Note_on_c, 0, 61, 93
2, 11976, Note_off_c, 0, 61, 0
2, 12000, Note_on_c, 0, 60, 93
2, 12024, Note_off_c, 0, 60, 0
2, 12048, Note_on_c, 0, 63, 93
2, 12072, Note_off_c, 0, 63, 0
2, 12096, Note_on_c, 0, 56, 93
2, 12120, Note_off_c, 0, 56, 0
2, 12144, Note_on_c, 0, 75, 93
2, 12168, Note_off_c, 0, 75, 0
2, 12192, Note_on_c, 0, 72, 93
2, 12216, Note_off_c, 0, 72, 0
2, 12240, Note_on_c, 0, 75, 93
2, 12264, Note_off_c, 0, 75, 0
2, 12288, Note_on_c, 0, 72, 93
2, 12312, Note_off_c, 0, 72, 0
2, 12336, Note_on_c, 0, 75, 93
2, 12360, Note_off_c, 0, 75, 0
2, 12384, Note_on_c, 0, 56, 93
2, 12408, Note_off_c, 0, 56, 0
2, 12432, Note_on_c, 0, 73, 93
2, 12456, Note_off_c, 0, 73, 0
2, 12480, Note_on_c, 0, 76, 93
2, 12504, Note_off_c, 0, 76, 0
2, 12528, Note_on_c, 0, 73, 93
2, 12552, Note_off_c, 0, 73, 0
2, 12576, Note_on_c, 0, 76, 93
2, 12600, Note_off_c, 0, 76, 0
2, 12624, Note_on_c, 0, 73, 93
2, 12648, Note_off_c, 0, 73, 0
2, 12672, Note_on_c, 0, 56, 67
2, 12696, Note_off_c, 0, 56, 0
2, 12720, Note_on_c, 0, 75, 67
2, 12744, Note_off_c, 0, 75, 0
2, 12768, Note_on_c, 0, 72, 67
2, 12792, Note_off_c, 0, 72, 0
2, 12816, Note_on_c, 0, 75, 67
2, 12840, Note_off_c, 0, 75, 0
2, 12864, Note_on_c, 0, 72, 67
2, 12888, Note_off_c, 0, 72, 0
2, 12912, Note_on_c, 0, 75, 67
2, 12936, Note_off_c, 0, 75, 0
2, 12960, Note_on_c, 0, 56, 67
2, 12984, Note_off_c, 0, 56, 0
2, 13008, Note_on_c, 0, 73, 67
2, 13032, Note_off_c, 0, 73, 0
2, 13056, Note_on_c, 0, 76, 67
2, 13080, Note_off_c, 0, 76, 0
2, 13104, Note_on_c, 0, 73, 67
2, 13128, Note_off_c, 0, 73, 0
2, 13152, Note_on_c, 0, 76, 67
2, 13176, Note_off_c, 0, 76, 0
2, 13200, Note_on_c, 0, 73, 67
2, 13224, Note_off_c, 0, 73, 0
2, 13248, Note_on_c, 0, 56, 93
2, 13272, Note_off_c, 0, 56, 0
2, 13296, Note_on_c, 0, 73, 93
2, 13320, Note_off_c, 0, 73, 0
2, 13344, Note_on_c, 0, 76, 93
2, 13368, Note_off_c, 0, 76, 0
2, 13392, Note_on_c, 0, 73, 93
2, 13416, Note_off_c, 0, 73, 0
2, 13440, Note_on_c, 0, 76, 93
2, 13464, Note_off_c, 0, 76, 0
2, 13488, Note_on_c, 0, 73, 93
2, 13512, Note_off_c, 0, 73, 0
2, 13536, Note_on_c, 0, 56, 67
2, 13560, Note_off_c, 0, 56, 0
2, 13584, Note_on_c, 0, 73, 67
2, 13608, Note_off_c, 0, 73, 0
2, 13632, Note_on_c, 0, 76, 67
2, 13656, Note_off_c, 0, 76, 0
2, 13680, Note_on_c, 0, 73, 67
2, 13704, Note_off_c, 0, 73, 0
2, 13728, Note_on_c, 0, 76, 67
2, 13752, Note_off_c, 0, 76, 0
2, 13776, Note_on_c, 0, 73, 67
2, 13800, Note_off_c, 0, 73, 0
2, 13824, Note_on_c, 0, 56, 93
2, 13848, Note_off_c, 0, 56, 0
2, 13872, Note_on_c, 0, 73, 93
2, 13896, Note_off_c, 0, 73, 0
2, 13920, Note_on_c, 0, 75, 93
2, 13944, Note_off_c, 0, 75, 0
2, 13968, Note_on_c, 0, 73, 93
2, 13992, Note_off_c, 0, 73, 0
2, 14016, Note_on_c, 0, 75, 93
2, 14040, Note_off_c, 0, 75, 0
2, 14064, Note_on_c, 0, 73, 93
2, 14088, Note_off_c, 0, 73, 0
2, 14112, Note_on_c, 0, 56, 67
2, 14136, Note_off_c, 0, 56, 0
2, 14160, Note_on_c, 0, 72, 67
2, 14184, Note_off_c, 0, 72, 0
2, 14208, Note_on_c, 0, 75, 67
2, 14232, Note_off_c, 0, 75, 0
2, 14256, Note_on_c, 0, 72, 67
2, 14280, Note_off_c, 0, 72, 0
2, 14304, Note_on_c, 0, 75, 67
2, 14328, Note_off_c, 0, 75, 0
2, 14352, Note_on_c, 0, 72, 67
2, 14376, Note_off_c, 0, 72, 0
2, 14400, Note_on_c, 0, 61, 93
2, 14424, Note_off_c, 0, 61, 0
2, 14424, Note_on_c, 0, 73, 93
2, 14448, Note_off_c, 0, 73, 0
2, 14448, Note_on_c, 0, 71, 93
2, 14472, Note_off_c, 0, 71, 0
2, 14472, Note_on_c, 0, 69, 93
2, 14496, Note_off_c, 0, 69, 0
2, 14496, Note_on_c, 0, 68, 93
2, 14520, Note_off_c, 0, 68, 0
2, 14520, Note_on_c, 0, 73, 93
2, 14544, Note_off_c, 0, 73, 0
2, 14544, Note_on_c, 0, 68, 93
2, 14568, Note_off_c, 0, 68, 0
2, 14568, Note_on_c, 0, 66, 93
2, 14592, Note_off_c, 0, 66, 0
2, 14592, Note_on_c, 0, 64, 93
2, 14616, Note_off_c, 0, 64, 0
2, 14616, Note_on_c, 0, 68, 93
2, 14640, Note_off_c, 0, 68, 0
2, 14640, Note_on_c, 0, 64, 93
2, 14664, Note_off_c, 0, 64, 0
2, 14664, Note_on_c, 0, 63, 93
2, 14688, Note_off_c, 0, 63, 0
2, 14688, Note_on_c, 0, 61, 93
2, 14712, Note_off_c, 0, 61, 0
2, 14712, Note_on_c, 0, 73, 93
2, 14736, Note_off_c, 0, 73, 0
2, 14736, Note_on_c, 0, 68, 93
2, 14760, Note_off_c, 0, 68, 0
2, 14760, Note_on_c, 0, 66, 93
2, 14784, Note_off_c, 0, 66, 0
2, 14784, Note_on_c, 0, 64, 93
2, 14808, Note_off_c, 0, 64, 0
2, 14808, Note_on_c, 0, 68, 93
2, 14832, Note_off_c, 0, 68, 0
2, 14832, Note_on_c, 0, 64, 93
2, 14856, Note_off_c, 0, 64, 0
2, 14856, Note_on_c, 0, 63, 93
2, 14880, Note_off_c, 0, 63, 0
2, 14880, Note_on_c, 0, 61, 93
2, 14904, Note_off_c, 0, 61, 0
2, 14904, Note_on_c, 0, 64, 93
2, 14928, Note_off_c, 0, 64, 0
2, 14928, Note_on_c, 0, 61, 93
2, 14952, Note_off_c, 0, 61, 0
2, 14952, Note_on_c, 0, 59, 93
2, 14976, Note_off_c, 0, 59, 0
2, 14976, Note_on_c, 0, 58, 93
2, 15000, Note_off_c, 0, 58, 0
2, 15024, Note_on_c, 0, 73, 93
2, 15048, Note_off_c, 0, 73, 0
2, 15072, Note_on_c, 0, 76, 93
2, 15096, Note_off_c, 0, 76, 0
2, 15120, Note_on_c, 0, 73, 93
2, 15144, Note_off_c, 0, 73, 0
2, 15168, Note_on_c, 0, 76, 93
2, 15192, Note_off_c, 0, 76, 0
2, 15216, Note_on_c, 0, 73, 93
2, 15240, Note_off_c, 0, 73, 0
2, 15264, Note_on_c, 0, 58, 93
2, 15288, Note_off_c, 0, 58, 0
2, 15312, Note_on_c, 0, 76, 93
2, 15336, Note_off_c, 0, 76, 0
2, 15360, Note_on_c, 0, 73, 93
2, 15384, Note_off_c, 0, 73, 0
2, 15408, Note_on_c, 0, 76, 93
2, 15432, Note_off_c, 0, 76, 0
2, 15456, Note_on_c, 0, 73, 93
2, 15480, Note_off_c, 0, 73, 0
2, 15504, Note_on_c, 0, 76, 93
2, 15528, Note_off_c, 0, 76, 0
2, 15552, Note_on_c, 0, 59, 93
2, 15576, Note_off_c, 0, 59, 0
2, 15576, Note_on_c, 0, 83, 93
2, 15600, Note_off_c, 0, 83, 0
2, 15600, Note_on_c, 0, 82, 93
2, 15624, Note_off_c, 0, 82, 0
2, 15624, Note_on_c, 0, 80, 93
2, 15648, Note_off_c, 0, 80, 0
2, 15648, Note_on_c, 0, 78, 93
2, 15672, Note_off_c, 0, 78, 0
2, 15672, Note_on_c, 0, 83, 93
2, 15696, Note_off_c, 0, 83, 0
2, 15696, Note_on_c, 0, 78, 93
2, 15720, Note_off_c, 0, 78, 0
2, 15720, Note_on_c, 0, 76, 93
2, 15744, Note_off_c, 0, 76, 0
2, 15744, Note_on_c, 0, 75, 93
2, 15768, Note_off_c, 0, 75, 0
2, 15768, Note_on_c, 0, 78, 93
2, 15792, Note_off_c, 0, 78, 0
2, 15792, Note_on_c, 0, 75, 93
2, 15816, Note_off_c, 0, 75, 0
2, 15816, Note_on_c, 0, 73, 93
2, 15840, Note_off_c, 0, 73, 0
2, 15840, Note_on_c, 0, 71, 93
2, 15864, Note_off_c, 0, 71, 0
2, 15864, Note_on_c, 0, 83, 93
2, 15888, Note_off_c, 0, 83, 0
2, 15888, Note_on_c, 0, 78, 93
2, 15912, Note_off_c, 0, 78, 0
2, 15912, Note_on_c, 0, 76, 93
2, 15936, Note_off_c, 0, 76, 0
2, 15936, Note_on_c, 0, 75, 93
2, 15960, Note_off_c, 0, 75, 0
2, 15960, Note_on_c, 0, 78, 93
2, 15984, Note_off_c, 0, 78, 0
2, 15984, Note_on_c, 0, 75, 93
2, 16008, Note_off_c, 0, 75, 0
2, 16008, Note_on_c, 0, 73, 93
2, 16032, Note_off_c, 0, 73, 0
2, 16032, Note_on_c, 0, 71, 93
2, 16056, Note_off_c, 0, 71, 0
2, 16056, Note_on_c, 0, 75, 93
2, 16080, Note_off_c, 0, 75, 0
2, 16080, Note_on_c, 0, 71, 93
2, 16104, Note_off_c, 0, 71, 0
2, 16104, Note_on_c, 0, 69, 93
2, 16128, Note_off_c, 0, 69, 0
2, 16128, Note_on_c, 0, 68, 93
2, 16152, Note_off_c, 0, 68, 0
2, 16176, Note_on_c, 0, 76, 93
2, 16200, Note_off_c, 0, 76, 0
2, 16224, Note_on_c, 0, 80, 93
2, 16248, Note_off_c, 0, 80, 0
2, 16272, Note_on_c, 0, 83, 93
2, 16296, Note_off_c, 0, 83, 0
2, 16320, Note_on_c, 0, 80, 93
2, 16344, Note_off_c, 0, 80, 0
2, 16368, Note_on_c, 0, 76, 93
2, 16392, Note_off_c, 0, 76, 0
2, 16416, Note_on_c, 0, 68, 93
2, 16440, Note_off_c, 0, 68, 0
2, 16464, Note_on_c, 0, 76, 93
2, 16488, Note_off_c, 0, 76, 0
2, 16512, Note_on_c, 0, 68, 93
2, 16536, Note_off_c, 0, 68, 0
2, 16560, Note_on_c, 0, 66, 93
2, 16584, Note_off_c, 0, 66, 0
2, 16608, Note_on_c, 0, 68, 93
2, 16632, Note_off_c, 0, 68, 0
2, 16656, Note_on_c, 0, 64, 93
2, 16680, Note_off_c, 0, 64, 0
2, 16704, Note_on_c, 0, 73, 93
2, 16728, Note_off_c, 0, 73, 0
2, 16728, Note_on_c, 0, 76, 93
2, 16752, Note_off_c, 0, 76, 0
2, 16752, Note_on_c, 0, 81, 93
2, 16776, Note_off_c, 0, 81, 0
2, 16776, Note_on_c, 0, 80, 93
2, 16800, Note_off_c, 0, 80, 0
2, 16800, Note_on_c, 0, 81, 93
2, 16824, Note_off_c, 0, 81, 0
2, 16848, Note_on_c, 0, 74, 93
2, 16872, Note_off_c, 0, 74, 0
2, 16896, Note_on_c, 0, 73, 93
2, 16920, Note_off_c, 0, 73, 0
2, 16944, Note_on_c, 0, 71, 93
2, 16968, Note_off_c, 0, 71, 0
2, 16992, Note_on_c, 0, 69, 93
2, 17016, Note_off_c, 0, 69, 0
2, 17016, Note_on_c, 0, 81, 93
2, 17040, Note_off_c, 0, 81, 0
2, 17040, Note_on_c, 0, 80, 93
2, 17064, Note_off_c, 0, 80, 0
2, 17064, Note_on_c, 0, 78, 93
2, 17088, Note_off_c, 0, 78, 0
2, 17088, Note_on_c, 0, 76, 93
2, 17112, Note_off_c, 0, 76, 0
2, 17136, Note_on_c, 0, 78, 93
2, 17160, Note_off_c, 0, 78, 0
2, 17184, Note_on_c, 0, 76, 93
2, 17208, Note_off_c, 0, 76, 0
2, 17232, Note_on_c, 0, 74, 93
2, 17256, Note_off_c, 0, 74, 0
2, 17280, Note_on_c, 0, 73, 67
2, 17304, Note_off_c, 0, 73, 0
2, 17328, Note_on_c, 0, 71, 67
2, 17352, Note_off_c, 0, 71, 0
2, 17376, Note_on_c, 0, 73, 67
2, 17400, Note_off_c, 0, 73, 0
2, 17424, Note_on_c, 0, 74, 67
2, 17448, Note_off_c, 0, 74, 0
2, 17472, Note_on_c, 0, 73, 67
2, 17496, Note_off_c, 0, 73, 0
2, 17520, Note_on_c, 0, 71, 67
2, 17544, Note_off_c, 0, 71, 0
2, 17568, Note_on_c, 0, 69, 67
2, 17592, Note_off_c, 0, 69, 0
2, 17592, Note_on_c, 0, 81, 67
2, 17616, Note_off_c, 0, 81, 0
2, 17616, Note_on_c, 0, 80, 67
2, 17640, Note_off_c, 0, 80, 0
2, 17640, Note_on_c, 0, 78, 67
2, 17664, Note_off_c, 0, 78, 0
2, 17664, Note_on_c, 0, 76, 67
2, 17688, Note_off_c, 0, 76, 0
2, 17712, Note_on_c, 0, 78, 67
2, 17736, Note_off_c, 0, 78, 0
2, 17760, Note_on_c, 0, 76, 67
2, 17784, Note_off_c, 0, 76, 0
2, 17808, Note_on_c, 0, 74, 67
2, 17832, Note_off_c, 0, 74, 0
2, 17856, Note_on_c, 0, 73, 67
2, 17880, Note_off_c, 0, 73, 0
2, 17904, Note_on_c, 0, 69, 93
2, 17928, Note_off_c, 0, 69, 0
2, 17952, Note_on_c, 0, 68, 93
2, 17976, Note_off_c, 0, 68, 0
2, 18000, Note_on_c, 0, 69, 93
2, 18024, Note_off_c, 0, 69, 0
2, 18048, Note_on_c, 0, 71, 93
2, 18072, Note_off_c, 0, 71, 0
2, 18096, Note_on_c, 0, 68, 93
2, 18120, Note_off_c, 0, 68, 0
2, 18144, Note_on_c, 0, 69, 93
2, 18168, Note_off_c, 0, 69, 0
2, 18192, Note_on_c, 0, 73, 93
2, 18216, Note_off_c, 0, 73, 0
2, 18240, Note_on_c, 0, 71, 93
2, 18264, Note_off_c, 0, 71, 0
2, 18288, Note_on_c, 0, 73, 93
2, 18312, Note_off_c, 0, 73, 0
2, 18336, Note_on_c, 0, 74, 93
2, 18360, Note_off_c, 0, 74, 0
2, 18384, Note_on_c, 0, 71, 93
2, 18408, Note_off_c, 0, 71, 0
2, 18432, Note_on_c, 0, 73, 93
2, 18456, Note_off_c, 0, 73, 0
2, 18480, Note_on_c, 0, 69, 67
2, 18504, Note_off_c, 0, 69, 0
2, 18528, Note_on_c, 0, 68, 67
2, 18552, Note_off_c, 0, 68, 0
2, 18576, Note_on_c, 0, 69, 67
2, 18600, Note_off_c, 0, 69, 0
2, 18624, Note_on_c, 0, 71, 67
2, 18648, Note_off_c, 0, 71, 0
2, 18672, Note_on_c, 0, 68, 67
2, 18696, Note_off_c, 0, 68, 0
2, 18720, Note_on_c, 0, 69, 67
2, 18744, Note_off_c, 0, 69, 0
2, 18768, Note_on_c, 0, 73, 67
2, 18792, Note_off_c, 0, 73, 0
2, 18816, Note_on_c, 0, 71, 67
2, 18840, Note_off_c, 0, 71, 0
2, 18864, Note_on_c, 0, 73, 67
2, 18888, Note_off_c, 0, 73, 0
2, 18912, Note_on_c, 0, 74, 67
2, 18936, Note_off_c, 0, 74, 0
2, 18960, Note_on_c, 0, 71, 67
2, 18984, Note_off_c, 0, 71, 0
2, 19008, Note_on_c, 0, 73, 93
2, 19032, Note_off_c, 0, 73, 0
2, 19056, Note_on_c, 0, 73, 93
2, 19080, Note_off_c, 0, 73, 0
2, 19104, Note_on_c, 0, 73, 93
2, 19128, Note_off_c, 0, 73, 0
2, 19152, Note_on_c, 0, 73, 93
2, 19176, Note_off_c, 0, 73, 0
2, 19200, Note_on_c, 0, 73, 93
2, 19224, Note_off_c, 0, 73, 0
2, 19248, Note_on_c, 0, 73, 93
2, 19272, Note_off_c, 0, 73, 0
2, 19296, Note_on_c, 0, 73, 93
2, 19320, Note_off_c, 0, 73, 0
2, 19344, Note_on_c, 0, 73, 93
2, 19368, Note_off_c, 0, 73, 0
2, 19392, Note_on_c, 0, 73, 93
2, 19416, Note_off_c, 0, 73, 0
2, 19440, Note_on_c, 0, 73, 93
2, 19464, Note_off_c, 0, 73, 0
2, 19488, Note_on_c, 0, 73, 93
2, 19512, Note_off_c, 0, 73, 0
2, 19536, Note_on_c, 0, 73, 93
2, 19560, Note_off_c, 0, 73, 0
2, 19584, Note_on_c, 0, 73, 93
2, 19608, Note_off_c, 0, 73, 0
2, 19632, Note_on_c, 0, 73, 93
2, 19656, Note_off_c, 0, 73, 0
2, 19680, Note_on_c, 0, 73, 93
2, 19704, Note_off_c, 0, 73, 0
2, 19728, Note_on_c, 0, 73, 93
2, 19752, Note_off_c, 0, 73, 0
2, 19776, Note_on_c, 0, 73, 93
2, 19800, Note_off_c, 0, 73, 0
2, 19824, Note_on_c, 0, 73, 93
2, 19848, Note_off_c, 0, 73, 0
2, 19872, Note_on_c, 0, 74, 93
2, 19896, Note_off_c, 0, 74, 0
2, 19920, Note_on_c, 0, 74, 93
2, 19944, Note_off_c, 0, 74, 0
2, 19968, Note_on_c, 0, 74, 93
2, 19992, Note_off_c, 0, 74, 0
2, 20016, Note_on_c, 0, 74, 93
2, 20040, Note_off_c, 0, 74, 0
2, 20064, Note_on_c, 0, 74, 93
2, 20088, Note_off_c, 0, 74, 0
2, 20112, Note_on_c, 0, 74, 93
2, 20136, Note_off_c, 0, 74, 0
2, 20160, Note_on_c, 0, 74, 93
2, 20184, Note_off_c, 0, 74, 0
2, 20208, Note_on_c, 0, 74, 93
2, 20232, Note_off_c, 0, 74, 0
2, 20256, Note_on_c, 0, 74, 93
2, 20280, Note_off_c, 0, 74, 0
2, 20304, Note_on_c, 0, 74, 93
2, 20328, Note_off_c, 0, 74, 0
2, 20352, Note_on_c, 0, 74, 93
2, 20376, Note_off_c, 0, 74, 0
2, 20400, Note_on_c, 0, 74, 93
2, 20424, Note_off_c, 0, 74, 0
2, 20448, Note_on_c, 0, 73, 93
2, 20472, Note_off_c, 0, 73, 0
2, 20496, Note_on_c, 0, 73, 93
2, 20520, Note_off_c, 0, 73, 0
2, 20544, Note_on_c, 0, 73, 93
2, 20568, Note_off_c, 0, 73, 0
2, 20592, Note_on_c, 0, 73, 93
2, 20616, Note_off_c, 0, 73, 0
2, 20640, Note_on_c, 0, 73, 93
2, 20664, Note_off_c, 0, 73, 0
2, 20688, Note_on_c, 0, 73, 93
2, 20712, Note_off_c, 0, 73, 0
2, 20736, Note_on_c, 0, 73, 93
2, 20760, Note_off_c, 0, 73, 0
2, 20784, Note_on_c, 0, 73, 93
2, 20808, Note_off_c, 0, 73, 0
2, 20832, Note_on_c, 0, 73, 93
2, 20856, Note_off_c, 0, 73, 0
2, 20880, Note_on_c, 0, 73, 93
2, 20904, Note_off_c, 0, 73, 0
2, 20928, Note_on_c, 0, 73, 93
2, 20952, Note_off_c, 0, 73, 0
2, 20976, Note_on_c, 0, 73, 93
2, 21000, Note_off_c, 0, 73, 0
2, 21024, Note_on_c, 0, 71, 93
2, 21048, Note_off_c, 0, 71, 0
2, 21072, Note_on_c, 0, 71, 93
2, 21096, Note_off_c, 0, 71, 0
2, 21120, Note_on_c, 0, 71, 93
2, 21144, Note_off_c, 0, 71, 0
2, 21168, Note_on_c, 0, 71, 93
2, 21192, Note_off_c, 0, 71, 0
2, 21216, Note_on_c, 0, 71, 93
2, 21240, Note_off_c, 0, 71, 0
2, 21264, Note_on_c, 0, 71, 93
2, 21288, Note_off_c, 0, 71, 0
2, 21312, Note_on_c, 0, 71, 93
2, 21336, Note_off_c, 0, 71, 0
2, 21360, Note_on_c, 0, 71, 93
2, 21384, Note_off_c, 0, 71, 0
2, 21408, Note_on_c, 0, 71, 93
2, 21432, Note_off_c, 0, 71, 0
2, 21456, Note_on_c, 0, 71, 93
2, 21480, Note_off_c, 0, 71, 0
2, 21504, Note_on_c, 0, 71, 93
2, 21528, Note_off_c, 0, 71, 0
2, 21552, Note_on_c, 0, 71, 93
2, 21576, Note_off_c, 0, 71, 0
2, 21600, Note_on_c, 0, 69, 93
2, 21624, Note_off_c, 0, 69, 0
2, 21648, Note_on_c, 0, 69, 93
2, 21672, Note_off_c, 0, 69, 0
2, 21696, Note_on_c, 0, 69, 93
2, 21720, Note_off_c, 0, 69, 0
2, 21744, Note_on_c, 0, 69, 93
2, 21768, Note_off_c, 0, 69, 0
2, 21792, Note_on_c, 0, 69, 93
2, 21816, Note_off_c, 0, 69, 0
2, 21840, Note_on_c, 0, 69, 93
2, 21864, Note_off_c, 0, 69, 0
2, 21888, Note_on_c, 0, 69, 93
2, 21912, Note_off_c, 0, 69, 0
2, 21936, Note_on_c, 0, 69, 93
2, 21960, Note_off_c, 0, 69, 0
2, 21984, Note_on_c, 0, 69, 93
2, 22008, Note_off_c, 0, 69, 0
2, 22032, Note_on_c, 0, 69, 93
2, 22056, Note_off_c, 0, 69, 0
2, 22080, Note_on_c, 0, 69, 93
2, 22104, Note_off_c, 0, 69, 0
2, 22128, Note_on_c, 0, 69, 93
2, 22152, Note_off_c, 0, 69, 0
2, 22176, Note_on_c, 0, 68, 93
2, 22200, Note_off_c, 0, 68, 0
2, 22224, Note_on_c, 0, 68, 93
2, 22248, Note_off_c, 0, 68, 0
2, 22272, Note_on_c, 0, 68, 93
2, 22296, Note_off_c, 0, 68, 0
2, 22320, Note_on_c, 0, 68, 93
2, 22344, Note_off_c, 0, 68, 0
2, 22368, Note_on_c, 0, 68, 93
2, 22392, Note_off_c, 0, 68, 0
2, 22416, Note_on_c, 0, 68, 93
2, 22440, Note_off_c, 0, 68, 0
2, 22464, Note_on_c, 0, 57, 93
2, 22488, Note_off_c, 0, 57, 0
2, 22488, Note_on_c, 0, 59, 93
2, 22512, Note_off_c, 0, 59, 0
2, 22512, Note_on_c, 0, 57, 93
2, 22536, Note_off_c, 0, 57, 0
2, 22536, Note_on_c, 0, 59, 93
2, 22560, Note_off_c, 0, 59, 0
2, 22560, Note_on_c, 0, 61, 93
2, 22584, Note_off_c, 0, 61, 0
2, 22584, Note_on_c, 0, 64, 93
2, 22608, Note_off_c, 0, 64, 0
2, 22608, Note_on_c, 0, 57, 93
2, 22632, Note_off_c, 0, 57, 0
2, 22632, Note_on_c, 0, 59, 93
2, 22656, Note_off_c, 0, 59, 0
2, 22656, Note_on_c, 0, 61, 93
2, 22680, Note_off_c, 0, 61, 0
2, 22680, Note_on_c, 0, 64, 93
2, 22704, Note_off_c, 0, 64, 0
2, 22704, Note_on_c, 0, 57, 93
2, 22728, Note_off_c, 0, 57, 0
2, 22728, Note_on_c, 0, 59, 93
2, 22752, Note_off_c, 0, 59, 0
2, 22752, Note_on_c, 0, 61, 93
2, 22776, Note_off_c, 0, 61, 0
2, 22776, Note_on_c, 0, 62, 93
2, 22800, Note_off_c, 0, 62, 0
2, 22800, Note_on_c, 0, 61, 93
2, 22824, Note_off_c, 0, 61, 0
2, 22824, Note_on_c, 0, 62, 93
2, 22848, Note_off_c, 0, 62, 0
2, 22848, Note_on_c, 0, 64, 93
2, 22872, Note_off_c, 0, 64, 0
2, 22872, Note_on_c, 0, 69, 93
2, 22896, Note_off_c, 0, 69, 0
2, 22896, Note_on_c, 0, 61, 93
2, 22920, Note_off_c, 0, 61, 0
2, 22920, Note_on_c, 0, 62, 93
2, 22944, Note_off_c, 0, 62, 0
2, 22944, Note_on_c, 0, 64, 93
2, 22968, Note_off_c, 0, 64, 0
2, 22968, Note_on_c, 0, 69, 93
2, 22992, Note_off_c, 0, 69, 0
2, 22992, Note_on_c, 0, 61, 93
2, 23016, Note_off_c, 0, 61, 0
2, 23016, Note_on_c, 0, 62, 93
2, 23040, Note_off_c, 0, 62, 0
2, 23040, Note_on_c, 0, 64, 93
2, 23064, Note_off_c, 0, 64, 0
2, 23064, Note_on_c, 0, 66, 93
2, 23088, Note_off_c, 0, 66, 0
2, 23088, Note_on_c, 0, 64, 93
2, 23112, Note_off_c, 0, 64, 0
2, 23112, Note_on_c, 0, 66, 93
2, 23136, Note_off_c, 0, 66, 0
2, 23136, Note_on_c, 0, 67, 93
2, 23160, Note_off_c, 0, 67, 0
2, 23160, Note_on_c, 0, 73, 93
2, 23184, Note_off_c, 0, 73, 0
2, 23184, Note_on_c, 0, 64, 93
2, 23208, Note_off_c, 0, 64, 0
2, 23208, Note_on_c, 0, 66, 93
2, 23232, Note_off_c, 0, 66, 0
2, 23232, Note_on_c, 0, 67, 93
2, 23256, Note_off_c, 0, 67, 0
2, 23256, Note_on_c, 0, 73, 93
2, 23280, Note_off_c, 0, 73, 0
2, 23280, Note_on_c, 0, 64, 93
2, 23304, Note_off_c, 0, 64, 0
2, 23304, Note_on_c, 0, 66, 93
2, 23328, Note_off_c, 0, 66, 0
2, 23328, Note_on_c, 0, 67, 93
2, 23352, Note_off_c, 0, 67, 0
2, 23352, Note_on_c, 0, 76, 93
2, 23376, Note_off_c, 0, 76, 0
2, 23376, Note_on_c, 0, 73, 93
2, 23400, Note_off_c, 0, 73, 0
2, 23400, Note_on_c, 0, 74, 93
2, 23424, Note_off_c, 0, 74, 0
2, 23424, Note_on_c, 0, 76, 93
2, 23448, Note_off_c, 0, 76, 0
2, 23448, Note_on_c, 0, 73, 93
2, 23472, Note_off_c, 0, 73, 0
2, 23472, Note_on_c, 0, 70, 93
2, 23496, Note_off_c, 0, 70, 0
2, 23496, Note_on_c, 0, 71, 93
2, 23520, Note_off_c, 0, 71, 0
2, 23520, Note_on_c, 0, 73, 93
2, 23544, Note_off_c, 0, 73, 0
2, 23544, Note_on_c, 0, 70, 93
2, 23568, Note_off_c, 0, 70, 0
2, 23568, Note_on_c, 0, 66, 93
2, 23592, Note_off_c, 0, 66, 0
2, 23592, Note_on_c, 0, 64, 93
2, 23616, Note_off_c, 0, 64, 0
2, 23616, Note_on_c, 0, 62, 93
2, 23640, Note_off_c, 0, 62, 0
2, 23640, Note_on_c, 0, 61, 93
2, 23664, Note_off_c, 0, 61, 0
2, 23664, Note_on_c, 0, 59, 93
2, 23688, Note_off_c, 0, 59, 0
2, 23688, Note_on_c, 0, 61, 93
2, 23712, Note_off_c, 0, 61, 0
2, 23712, Note_on_c, 0, 62, 93
2, 23736, Note_off_c, 0, 62, 0
2, 23736, Note_on_c, 0, 66, 93
2, 23760, Note_off_c, 0, 66, 0
2, 23760, Note_on_c, 0, 59, 93
2, 23784, Note_off_c, 0, 59, 0
2, 23784, Note_on_c, 0, 61, 93
2, 23808, Note_off_c, 0, 61, 0
2, 23808, Note_on_c, 0, 62, 93
2, 23832, Note_off_c, 0, 62, 0
2, 23832, Note_on_c, 0, 66, 93
2, 23856, Note_off_c, 0, 66, 0
2, 23856, Note_on_c, 0, 59, 93
2, 23880, Note_off_c, 0, 59, 0
2, 23880, Note_on_c, 0, 61, 93
2, 23904, Note_off_c, 0, 61, 0
2, 23904, Note_on_c, 0, 62, 93
2, 23928, Note_off_c, 0, 62, 0
2, 23928, Note_on_c, 0, 64, 93
2, 23952, Note_off_c, 0, 64, 0
2, 23952, Note_on_c, 0, 62, 93
2, 23976, Note_off_c, 0, 62, 0
2, 23976, Note_on_c, 0, 64, 93
2, 24000, Note_off_c, 0, 64, 0
2, 24000, Note_on_c, 0, 66, 93
2, 24024, Note_off_c, 0, 66, 0
2, 24024, Note_on_c, 0, 71, 93
2, 24048, Note_off_c, 0, 71, 0
2, 24048, Note_on_c, 0, 62, 93
2, 24072, Note_off_c, 0, 62, 0
2, 24072, Note_on_c, 0, 64, 93
2, 24096, Note_off_c, 0, 64, 0
2, 24096, Note_on_c, 0, 66, 93
2, 24120, Note_off_c, 0, 66, 0
2, 24120, Note_on_c, 0, 71, 93
2, 24144, Note_off_c, 0, 71, 0
2, 24144, Note_on_c, 0, 62, 93
2, 24168, Note_off_c, 0, 62, 0
2, 24168, Note_on_c, 0, 64, 93
2, 24192, Note_off_c, 0, 64, 0
2, 24192, Note_on_c, 0, 66, 93
2, 24216, Note_off_c, 0, 66, 0
2, 24216, Note_on_c, 0, 68, 93
2, 24240, Note_off_c, 0, 68, 0
2, 24240, Note_on_c, 0, 66, 93
2, 24264, Note_off_c, 0, 66, 0
2, 24264, Note_on_c, 0, 68, 93
2, 24288, Note_off_c, 0, 68, 0
2, 24288, Note_on_c, 0, 69, 93
2, 24312, Note_off_c, 0, 69, 0
2, 24312, Note_on_c, 0, 75, 93
2, 24336, Note_off_c, 0, 75, 0
2, 24336, Note_on_c, 0, 66, 93
2, 24360, Note_off_c, 0, 66, 0
2, 24360, Note_on_c, 0, 68, 93
2, 24384, Note_off_c, 0, 68, 0
2, 24384, Note_on_c, 0, 69, 93
2, 24408, Note_off_c, 0, 69, 0
2, 24408, Note_on_c, 0, 75, 93
2, 24432, Note_off_c, 0, 75, 0
2, 24432, Note_on_c, 0, 66, 93
2, 24456, Note_off_c, 0, 66, 0
2, 24456, Note_on_c, 0, 68, 93
2, 24480, Note_off_c, 0, 68, 0
2, 24480, Note_on_c, 0, 69, 93
2, 24504, Note_off_c, 0, 69, 0
2, 24504, Note_on_c, 0, 78, 93
2, 24528, Note_off_c, 0, 78, 0
2, 24528, Note_on_c, 0, 75, 93
2, 24552, Note_off_c, 0, 75, 0
2, 24552, Note_on_c, 0, 76, 93
2, 24576, Note_off_c, 0, 76, 0
2, 24576, Note_on_c, 0, 78, 93
2, 24600, Note_off_c, 0, 78, 0
2, 24600, Note_on_c, 0, 75, 93
2, 24624, Note_off_c, 0, 75, 0
2, 24624, Note_on_c, 0, 72, 93
2, 24648, Note_off_c, 0, 72, 0
2, 24648, Note_on_c, 0, 73, 93
2, 24672, Note_off_c, 0, 73, 0
2, 24672, Note_on_c, 0, 75, 93
2, 24696, Note_off_c, 0, 75, 0
2, 24696, Note_on_c, 0, 72, 93
2, 24720, Note_off_c, 0, 72, 0
2, 24720, Note_on_c, 0, 68, 93
2, 24744, Note_off_c, 0, 68, 0
2, 24744, Note_on_c, 0, 66, 93
2, 24768, Note_off_c, 0, 66, 0
2, 24768, Note_on_c, 0, 65, 93
2, 24792, Note_off_c, 0, 65, 0
2, 24792, Note_on_c, 0, 83, 93
2, 24816, Note_off_c, 0, 83, 0
2, 24816, Note_on_c, 0, 80, 93
2, 24840, Note_off_c, 0, 80, 0
2, 24840, Note_on_c, 0, 81, 93
2, 24864, Note_off_c, 0, 81, 0
2, 24864, Note_on_c, 0, 83, 93
2, 24888, Note_off_c, 0, 83, 0
2, 24888, Note_on_c, 0, 80, 93
2, 24912, Note_off_c, 0, 80, 0
2, 24912, Note_on_c, 0, 77, 93
2, 24936, Note_off_c, 0, 77, 0
2, 24936, Note_on_c, 0, 78, 93
2, 24960, Note_off_c, 0, 78, 0
2, 24960, Note_on_c, 0, 80, 93
2, 24984, Note_off_c, 0, 80, 0
2, 24984, Note_on_c, 0, 77, 93
2, 25008, Note_off_c, 0, 77, 0
2, 25008, Note_on_c, 0, 73, 93
2, 25032, Note_off_c, 0, 73, 0
2, 25032, Note_on_c, 0, 71, 93
2, 25056, Note_off_c, 0, 71, 0
2, 25056, Note_on_c, 0, 69, 93
2, 25080, Note_off_c, 0, 69, 0
2, 25080, Note_on_c, 0, 85, 93
2, 25104, Note_off_c, 0, 85, 0
2, 25104, Note_on_c, 0, 81, 93
2, 25128, Note_off_c, 0, 81, 0
2, 25128, Note_on_c, 0, 83, 93
2, 25152, Note_off_c, 0, 83, 0
2, 25152, Note_on_c, 0, 85, 93
2, 25176, Note_off_c, 0, 85, 0
2, 25176, Note_on_c, 0, 81, 93
2, 25200, Note_off_c, 0, 81, 0
2, 25200, Note_on_c, 0, 78, 93
2, 25224, Note_off_c, 0, 78, 0
2, 25224, Note_on_c, 0, 80, 93
2, 25248, Note_off_c, 0, 80, 0
2, 25248, Note_on_c, 0, 81, 93
2, 25272, Note_off_c, 0, 81, 0
2, 25272, Note_on_c, 0, 78, 93
2, 25296, Note_off_c, 0, 78, 0
2, 25296, Note_on_c, 0, 74, 93
2, 25320, Note_off_c, 0, 74, 0
2, 25320, Note_on_c, 0, 73, 93
2, 25344, Note_off_c, 0, 73, 0
2, 25344, Note_on_c, 0, 71, 93
2, 25368, Note_off_c, 0, 71, 0
2, 25368, Note_on_c, 0, 86, 93
2, 25392, Note_off_c, 0, 86, 0
2, 25392, Note_on_c, 0, 83, 93
2, 25416, Note_off_c, 0, 83, 0
2, 25416, Note_on_c, 0, 85, 93
2, 25440, Note_off_c, 0, 85, 0
2, 25440, Note_on_c, 0, 86, 93
2, 25464, Note_off_c, 0, 86, 0
2, 25464, Note_on_c, 0, 83, 93
2, 25488, Note_off_c, 0, 83, 0
2, 25488, Note_on_c, 0, 80, 93
2, 25512, Note_off_c, 0, 80, 0
2, 25512, Note_on_c, 0, 81, 93
2, 25536, Note_off_c, 0, 81, 0
2, 25536, Note_on_c, 0, 83, 93
2, 25560, Note_off_c, 0, 83, 0
2, 25560, Note_on_c, 0, 80, 93
2, 25584, Note_off_c, 0, 80, 0
2, 25584, Note_on_c, 0, 77, 93
2, 25608, Note_off_c, 0, 77, 0
2, 25608, Note_on_c, 0, 80, 93
2, 25632, Note_off_c, 0, 80, 0
2, 25632, Note_on_c, 0, 73, 93
2, 25656, Note_off_c, 0, 73, 0
2, 25656, Note_on_c, 0, 75, 93
2, 25680, Note_off_c, 0, 75, 0
2, 25680, Note_on_c, 0, 73, 93
2, 25704, Note_off_c, 0, 73, 0
2, 25704, Note_on_c, 0, 75, 93
2, 25728, Note_off_c, 0, 75, 0
2, 25728, Note_on_c, 0, 77, 93
2, 25752, Note_off_c, 0, 77, 0
2, 25752, Note_on_c, 0, 80, 93
2, 25776, Note_off_c, 0, 80, 0
2, 25776, Note_on_c, 0, 73, 93
2, 25800, Note_off_c, 0, 73, 0
2, 25800, Note_on_c, 0, 75, 93
2, 25824, Note_off_c, 0, 75, 0
2, 25824, Note_on_c, 0, 77, 93
2, 25848, Note_off_c, 0, 77, 0
2, 25848, Note_on_c, 0, 80, 93
2, 25872, Note_off_c, 0, 80, 0
2, 25872, Note_on_c, 0, 73, 93
2, 25896, Note_off_c, 0, 73, 0
2, 25896, Note_on_c, 0, 75, 93
2, 25920, Note_off_c, 0, 75, 0
2, 25920, Note_on_c, 0, 77, 93
2, 25944, Note_off_c, 0, 77, 0
2, 25944, Note_on_c, 0, 78, 93
2, 25968, Note_off_c, 0, 78, 0
2, 25968, Note_on_c, 0, 77, 93
2, 25992, Note_off_c, 0, 77, 0
2, 25992, Note_on_c, 0, 78, 93
2, 26016, Note_off_c, 0, 78, 0
2, 26016, Note_on_c, 0, 80, 93
2, 26040, Note_off_c, 0, 80, 0
2, 26040, Note_on_c, 0, 83, 93
2, 26064, Note_off_c, 0, 83, 0
2, 26064, Note_on_c, 0, 77, 93
2, 26088, Note_off_c, 0, 77, 0
2, 26088, Note_on_c, 0, 78, 93
2, 26112, Note_off_c, 0, 78, 0
2, 26112, Note_on_c, 0, 80, 93
2, 26136, Note_off_c, 0, 80, 0
2, 26136, Note_on_c, 0, 83, 93
2, 26160, Note_off_c, 0, 83, 0
2, 26160, Note_on_c, 0, 77, 93
2, 26184, Note_off_c, 0, 77, 0
2, 26184, Note_on_c, 0, 78, 93
2, 26208, Note_off_c, 0, 78, 0
2, 26208, Note_on_c, 0, 80, 93
2, 26232, Note_off_c, 0, 80, 0
2, 26232, Note_on_c, 0, 81, 93
2, 26256, Note_off_c, 0, 81, 0
2, 26256, Note_on_c, 0, 80, 93
2, 26280, Note_off_c, 0, 80, 0
2, 26280, Note_on_c, 0, 81, 93
2, 26304, Note_off_c, 0, 81, 0
2, 26304, Note_on_c, 0, 83, 93
2, 26328, Note_off_c, 0, 83, 0
2, 26328, Note_on_c, 0, 86, 93
2, 26352, Note_off_c, 0, 86, 0
2, 26352, Note_on_c, 0, 80, 93
2, 26376, Note_off_c, 0, 80, 0
2, 26376, Note_on_c, 0, 81, 93
2, 26400, Note_off_c, 0, 81, 0
2, 26400, Note_on_c, 0, 83, 93
2, 26424, Note_off_c, 0, 83, 0
2, 26424, Note_on_c, 0, 86, 93
2, 26448, Note_off_c, 0, 86, 0
2, 26448, Note_on_c, 0, 80, 93
2, 26472, Note_off_c, 0, 80, 0
2, 26472, Note_on_c, 0, 81, 93
2, 26496, Note_off_c, 0, 81, 0
2, 26496, Note_on_c, 0, 83, 93
2, 26520, Note_off_c, 0, 83, 0
2, 26520, Note_on_c, 0, 86, 93
2, 26544, Note_off_c, 0, 86, 0
2, 26544, Note_on_c, 0, 83, 93
2, 26568, Note_off_c, 0, 83, 0
2, 26568, Note_on_c, 0, 80, 93
2, 26592, Note_off_c, 0, 80, 0
2, 26592, Note_on_c, 0, 77, 93
2, 26616, Note_off_c, 0, 77, 0
2, 26616, Note_on_c, 0, 83, 93
2, 26640, Note_off_c, 0, 83, 0
2, 26640, Note_on_c, 0, 80, 93
2, 26664, Note_off_c, 0, 80, 0
2, 26664, Note_on_c, 0, 77, 93
2, 26688, Note_off_c, 0, 77, 0
2, 26688, Note_on_c, 0, 73, 93
2, 26712, Note_off_c, 0, 73, 0
2, 26712, Note_on_c, 0, 83, 93
2, 26736, Note_off_c, 0, 83, 0
2, 26736, Note_on_c, 0, 81, 93
2, 26760, Note_off_c, 0, 81, 0
2, 26760, Note_on_c, 0, 80, 93
2, 26784, Note_off_c, 0, 80, 0
2, 26784, Note_on_c, 0, 78, 93
2, 26808, Note_off_c, 0, 78, 0
2, 26808, Note_on_c, 0, 80, 93
2, 26832, Note_off_c, 0, 80, 0
2, 26832, Note_on_c, 0, 81, 93
2, 26856, Note_off_c, 0, 81, 0
2, 26856, Note_on_c, 0, 78, 93
2, 26880, Note_off_c, 0, 78, 0
2, 26880, Note_on_c, 0, 71, 93
2, 26904, Note_off_c, 0, 71, 0
2, 26904, Note_on_c, 0, 81, 93
2, 26928, Note_off_c, 0, 81, 0
2, 26928, Note_on_c, 0, 80, 93
2, 26952, Note_off_c, 0, 80, 0
2, 26952, Note_on_c, 0, 78, 93
2, 26976, Note_off_c, 0, 78, 0
2, 26976, Note_on_c, 0, 73, 93
2, 27000, Note_off_c, 0, 73, 0
2, 27000, Note_on_c, 0, 80, 93
2, 27024, Note_off_c, 0, 80, 0
2, 27024, Note_on_c, 0, 78, 93
2, 27048, Note_off_c, 0, 78, 0
2, 27048, Note_on_c, 0, 77, 93
2, 27072, Note_off_c, 0, 77, 0
2, 27072, Note_on_c, 0, 74, 93
2, 27096, Note_off_c, 0, 74, 0
2, 27096, Note_on_c, 0, 76, 93
2, 27120, Note_off_c, 0, 76, 0
2, 27120, Note_on_c, 0, 78, 93
2, 27144, Note_off_c, 0, 78, 0
2, 27144, Note_on_c, 0, 74, 93
2, 27168, Note_off_c, 0, 74, 0
2, 27168, Note_on_c, 0, 68, 93
2, 27192, Note_off_c, 0, 68, 0
2, 27192, Note_on_c, 0, 78, 93
2, 27216, Note_off_c, 0, 78, 0
2, 27216, Note_on_c, 0, 76, 93
2, 27240, Note_off_c, 0, 76, 0
2, 27240, Note_on_c, 0, 74, 93
2, 27264, Note_off_c, 0, 74, 0
2, 27264, Note_on_c, 0, 70, 93
2, 27288, Note_off_c, 0, 70, 0
2, 27288, Note_on_c, 0, 76, 93
2, 27312, Note_off_c, 0, 76, 0
2, 27312, Note_on_c, 0, 74, 93
2, 27336, Note_off_c, 0, 74, 0
2, 27336, Note_on_c, 0, 73, 93
2, 27360, Note_off_c, 0, 73, 0
2, 27360, Note_on_c, 0, 71, 93
2, 27384, Note_off_c, 0, 71, 0
2, 27384, Note_on_c, 0, 73, 93
2, 27408, Note_off_c, 0, 73, 0
2, 27408, Note_on_c, 0, 74, 93
2, 27432, Note_off_c, 0, 74, 0
2, 27432, Note_on_c, 0, 71, 93
2, 27456, Note_off_c, 0, 71, 0
2, 27456, Note_on_c, 0, 65, 93
2, 27480, Note_off_c, 0, 65, 0
2, 27480, Note_on_c, 0, 74, 93
2, 27504, Note_off_c, 0, 74, 0
2, 27504, Note_on_c, 0, 73, 93
2, 27528, Note_off_c, 0, 73, 0
2, 27528, Note_on_c, 0, 71, 93
2, 27552, Note_off_c, 0, 71, 0
2, 27552, Note_on_c, 0, 66, 93
2, 27576, Note_off_c, 0, 66, 0
2, 27576, Note_on_c, 0, 73, 93
2, 27600, Note_off_c, 0, 73, 0
2, 27600, Note_on_c, 0, 71, 93
2, 27624, Note_off_c, 0, 71, 0
2, 27624, Note_on_c, 0, 69, 93
2, 27648, Note_off_c, 0, 69, 0
2, 27648, Note_on_c, 0, 68, 93
2, 27672, Note_off_c, 0, 68, 0
2, 27672, Note_on_c, 0, 69, 93
2, 27696, Note_off_c, 0, 69, 0
2, 27696, Note_on_c, 0, 71, 93
2, 27720, Note_off_c, 0, 71, 0
2, 27720, Note_on_c, 0, 69, 93
2, 27744, Note_off_c, 0, 69, 0
2, 27744, Note_on_c, 0, 68, 93
2, 27768, Note_off_c, 0, 68, 0
2, 27792, Note_on_c, 0, 69, 93
2, 27816, Note_off_c, 0, 69, 0
2, 27840, Note_on_c, 0, 68, 93
2, 27864, Note_off_c, 0, 68, 0
2, 27888, Note_on_c, 0, 66, 93
2, 27912, Note_off_c, 0, 66, 0
2, 27936, Note_on_c, 0, 65, 93
2, 27960, Note_off_c, 0, 65, 0
2, 27960, Note_on_c, 0, 66, 93
2, 27984, Note_off_c, 0, 66, 0
2, 27984, Note_on_c, 0, 68, 93
2, 28008, Note_off_c, 0, 68, 0
2, 28008, Note_on_c, 0, 69, 93
2, 28032, Note_off_c, 0, 69, 0
2, 28032, Note_on_c, 0, 71, 93
2, 28056, Note_off_c, 0, 71, 0
2, 28080, Note_on_c, 0, 74, 93
2, 28104, Note_off_c, 0, 74, 0
2, 28128, Note_on_c, 0, 73, 93
2, 28152, Note_off_c, 0, 73, 0
2, 28176, Note_on_c, 0, 71, 93
2, 28200, Note_off_c, 0, 71, 0
2, 28224, Note_on_c, 0, 66, 93
2, 28248, Note_off_c, 0, 66, 0
2, 28248, Note_on_c, 0, 69, 93
2, 28272, Note_off_c, 0, 69, 0
2, 28272, Note_on_c, 0, 66, 93
2, 28296, Note_off_c, 0, 66, 0
2, 28296, Note_on_c, 0, 61, 93
2, 28320, Note_off_c, 0, 61, 0
2, 28320, Note_on_c, 0, 57, 93
2, 28344, Note_off_c, 0, 57, 0
2, 28368, Note_on_c, 0, 66, 93
2, 28392, Note_off_c, 0, 66, 0
2, 28416, Note_on_c, 0, 69, 93
2, 28440, Note_off_c, 0, 69, 0
2, 28464, Note_on_c, 0, 66, 93
2, 28488, Note_off_c, 0, 66, 0
2, 28512, Note_on_c, 0, 65, 93
2, 28536, Note_off_c, 0, 65, 0
2, 28536, Note_on_c, 0, 68, 93
2, 28560, Note_off_c, 0, 68, 0
2, 28560, Note_on_c, 0, 65, 93
2, 28584, Note_off_c, 0, 65, 0
2, 28584, Note_on_c, 0, 61, 93
2, 28608, Note_off_c, 0, 61, 0
2, 28608, Note_on_c, 0, 65, 93
2, 28632, Note_off_c, 0, 65, 0
2, 28632, Note_on_c, 0, 68, 93
2, 28656, Note_off_c, 0, 68, 0
2, 28656, Note_on_c, 0, 73, 93
2, 28680, Note_off_c, 0, 73, 0
2, 28680, Note_on_c, 0, 68, 93
2, 28704, Note_off_c, 0, 68, 0
2, 28704, Note_on_c, 0, 77, 93
2, 28728, Note_off_c, 0, 77, 0
2, 28728, Note_on_c, 0, 73, 93
2, 28752, Note_off_c, 0, 73, 0
2, 28752, Note_on_c, 0, 80, 93
2, 28776, Note_off_c, 0, 80, 0
2, 28776, Note_on_c, 0, 71, 93
2, 28800, Note_off_c, 0, 71, 0
2, 28800, Note_on_c, 0, 69, 93
2, 28824, Note_off_c, 0, 69, 0
2, 28824, Note_on_c, 0, 73, 93
2, 28848, Note_off_c, 0, 73, 0
2, 28848, Note_on_c, 0, 69, 93
2, 28872, Note_off_c, 0, 69, 0
2, 28872, Note_on_c, 0, 66, 93
2, 28896, Note_off_c, 0, 66, 0
2, 28896, Note_on_c, 0, 69, 93
2, 28920, Note_off_c, 0, 69, 0
2, 28920, Note_on_c, 0, 73, 93
2, 28944, Note_off_c, 0, 73, 0
2, 28944, Note_on_c, 0, 78, 93
2, 28968, Note_off_c, 0, 78, 0
2, 28968, Note_on_c, 0, 73, 93
2, 28992, Note_off_c, 0, 73, 0
2, 28992, Note_on_c, 0, 81, 93
2, 29016, Note_off_c, 0, 81, 0
2, 29016, Note_on_c, 0, 78, 93
2, 29040, Note_off_c, 0, 78, 0
2, 29040, Note_on_c, 0, 85, 93
2, 29064, Note_off_c, 0, 85, 0
2, 29064, Note_on_c, 0, 78, 93
2, 29088, Note_off_c, 0, 78, 0
2, 29088, Note_on_c, 0, 77, 93
2, 29112, Note_off_c, 0, 77, 0
2, 29112, Note_on_c, 0, 80, 93
2, 29136, Note_off_c, 0, 80, 0
2, 29136, Note_on_c, 0, 77, 93
2, 29160, Note_off_c, 0, 77, 0
2, 29160, Note_on_c, 0, 73, 93
2, 29184, Note_off_c, 0, 73, 0
2, 29184, Note_on_c, 0, 85, 93
2, 29208, Note_off_c, 0, 85, 0
2, 29208, Note_on_c, 0, 84, 93
2, 29232, Note_off_c, 0, 84, 0
2, 29232, Note_on_c, 0, 85, 93
2, 29256, Note_off_c, 0, 85, 0
2, 29256, Note_on_c, 0, 84, 93
2, 29280, Note_off_c, 0, 84, 0
2, 29280, Note_on_c, 0, 85, 93
2, 29304, Note_off_c, 0, 85, 0
2, 29304, Note_on_c, 0, 80, 93
2, 29328, Note_off_c, 0, 80, 0
2, 29328, Note_on_c, 0, 81, 93
2, 29352, Note_off_c, 0, 81, 0
2, 29352, Note_on_c, 0, 78, 93
2, 29376, Note_off_c, 0, 78, 0
2, 29376, Note_on_c, 0, 77, 93
2, 29400, Note_off_c, 0, 77, 0
2, 29400, Note_on_c, 0, 80, 93
2, 29424, Note_off_c, 0, 80, 0
2, 29424, Note_on_c, 0, 77, 93
2, 29448, Note_off_c, 0, 77, 0
2, 29448, Note_on_c, 0, 73, 93
2, 29472, Note_off_c, 0, 73, 0
2, 29472, Note_on_c, 0, 83, 93
2, 29496, Note_off_c, 0, 83, 0
2, 29496, Note_on_c, 0, 82, 93
2, 29520, Note_off_c, 0, 82, 0
2, 29520, Note_on_c, 0, 83, 93
2, 29544, Note_off_c, 0, 83, 0
2, 29544, Note_on_c, 0, 82, 93
2, 29568, Note_off_c, 0, 82, 0
2, 29568, Note_on_c, 0, 83, 93
2, 29592, Note_off_c, 0, 83, 0
2, 29592, Note_on_c, 0, 80, 93
2, 29616, Note_off_c, 0, 80, 0
2, 29616, Note_on_c, 0, 81, 93
2, 29640, Note_off_c, 0, 81, 0
2, 29640, Note_on_c, 0, 78, 93
2, 29664, Note_off_c, 0, 78, 0
2, 29664, Note_on_c, 0, 77, 93
2, 29688, Note_off_c, 0, 77, 0
2, 29688, Note_on_c, 0, 80, 93
2, 29712, Note_off_c, 0, 80, 0
2, 29712, Note_on_c, 0, 77, 93
2, 29736, Note_off_c, 0, 77, 0
2, 29736, Note_on_c, 0, 73, 93
2, 29760, Note_off_c, 0, 73, 0
2, 29760, Note_on_c, 0, 74, 93
2, 29784, Note_off_c, 0, 74, 0
2, 29784, Note_on_c, 0, 73, 93
2, 29808, Note_off_c, 0, 73, 0
2, 29808, Note_on_c, 0, 74, 93
2, 29832, Note_off_c, 0, 74, 0
2, 29832, Note_on_c, 0, 73, 93
2, 29856, Note_off_c, 0, 73, 0
2, 29856, Note_on_c, 0, 74, 93
2, 29880, Note_off_c, 0, 74, 0
2, 29880, Note_on_c, 0, 68, 93
2, 29904, Note_off_c, 0, 68, 0
2, 29904, Note_on_c, 0, 69, 93
2, 29928, Note_off_c, 0, 69, 0
2, 29928, Note_on_c, 0, 66, 93
2, 29952, Note_off_c, 0, 66, 0
2, 29952, Note_on_c, 0, 65, 93
2, 29976, Note_off_c, 0, 65, 0
2, 29976, Note_on_c, 0, 68, 93
2, 30000, Note_off_c, 0, 68, 0
2, 30000, Note_on_c, 0, 73, 93
2, 30024, Note_off_c, 0, 73, 0
2, 30024, Note_on_c, 0, 83, 93
2, 30048, Note_off_c, 0, 83, 0
2, 30048, Note_on_c, 0, 83, 93
2, 30072, Note_off_c, 0, 83, 0
2, 30072, Note_on_c, 0, 80, 93
2, 30096, Note_off_c, 0, 80, 0
2, 30096, Note_on_c, 0, 81, 93
2, 30120, Note_off_c, 0, 81, 0
2, 30120, Note_on_c, 0, 78, 93
2, 30144, Note_off_c, 0, 78, 0
2, 30144, Note_on_c, 0, 77, 93
2, 30168, Note_off_c, 0, 77, 0
2, 30168, Note_on_c, 0, 80, 93
2, 30192, Note_off_c, 0, 80, 0
2, 30192, Note_on_c, 0, 73, 93
2, 30216, Note_off_c, 0, 73, 0
2, 30216, Note_on_c, 0, 71, 93
2, 30240, Note_off_c, 0, 71, 0
2, 30240, Note_on_c, 0, 69, 93
2, 30264, Note_off_c, 0, 69, 0
2, 30264, Note_on_c, 0, 73, 93
2, 30288, Note_off_c, 0, 73, 0
2, 30288, Note_on_c, 0, 78, 93
2, 30312, Note_off_c, 0, 78, 0
2, 30312, Note_on_c, 0, 85, 93
2, 30336, Note_off_c, 0, 85, 0
2, 30336, Note_on_c, 0, 85, 93
2, 30360, Note_off_c, 0, 85, 0
2, 30360, Note_on_c, 0, 81, 93
2, 30384, Note_off_c, 0, 81, 0
2, 30384, Note_on_c, 0, 83, 93
2, 30408, Note_off_c, 0, 83, 0
2, 30408, Note_on_c, 0, 80, 93
2, 30432, Note_off_c, 0, 80, 0
2, 30432, Note_on_c, 0, 78, 93
2, 30456, Note_off_c, 0, 78, 0
2, 30456, Note_on_c, 0, 81, 93
2, 30480, Note_off_c, 0, 81, 0
2, 30480, Note_on_c, 0, 74, 93
2, 30504, Note_off_c, 0, 74, 0
2, 30504, Note_on_c, 0, 73, 93
2, 30528, Note_off_c, 0, 73, 0
2, 30528, Note_on_c, 0, 71, 93
2, 30552, Note_off_c, 0, 71, 0
2, 30552, Note_on_c, 0, 74, 93
2, 30576, Note_off_c, 0, 74, 0
2, 30576, Note_on_c, 0, 67, 93
2, 30600, Note_off_c, 0, 67, 0
2, 30600, Note_on_c, 0, 66, 93
2, 30624, Note_off_c, 0, 66, 0
2, 30624, Note_on_c, 0, 65, 93
2, 30648, Note_off_c, 0, 65, 0
2, 30648, Note_on_c, 0, 68, 93
2, 30672, Note_off_c, 0, 68, 0
2, 30672, Note_on_c, 0, 61, 93
2, 30696, Note_off_c, 0, 61, 0
2, 30696, Note_on_c, 0, 59, 93
2, 30720, Note_off_c, 0, 59, 0
2, 30720, Note_on_c, 0, 57, 93
2, 30744, Note_off_c, 0, 57, 0
2, 30744, Note_on_c, 0, 61, 93
2, 30768, Note_off_c, 0, 61, 0
2, 30768, Note_on_c, 0, 66, 93
2, 30792, Note_off_c, 0, 66, 0
2, 30792, Note_on_c, 0, 68, 93
2, 30816, Note_off_c, 0, 68, 0
2, 30816, Note_on_c, 0, 69, 93
2, 30840, Note_off_c, 0, 69, 0
2, 30864, Note_on_c, 0, 71, 93
2, 30888, Note_off_c, 0, 71, 0
2, 30912, Note_on_c, 0, 73, 93
2, 30936, Note_off_c, 0, 73, 0
2, 30960, Note_on_c, 0, 74, 93
2, 30984, Note_off_c, 0, 74, 0
2, 31008, Note_on_c, 0, 61, 93
2, 31032, Note_off_c, 0, 61, 0
2, 31032, Note_on_c, 0, 66, 93
2, 31056, Note_off_c, 0, 66, 0
2, 31056, Note_on_c, 0, 68, 93
2, 31080, Note_off_c, 0, 68, 0
2, 31080, Note_on_c, 0, 65, 93
2, 31104, Note_off_c, 0, 65, 0
2, 31104, Note_on_c, 0, 66, 93
2, 31128, Note_off_c, 0, 66, 0
2, 31152, Note_on_c, 0, 68, 93
2, 31176, Note_off_c, 0, 68, 0
2, 31200, Note_on_c, 0, 69, 93
2, 31224, Note_off_c, 0, 69, 0
2, 31248, Note_on_c, 0, 68, 93
2, 31272, Note_off_c, 0, 68, 0
2, 31296, Note_on_c, 0, 66, 93
2, 31320, Note_off_c, 0, 66, 0
2, 31344, Note_on_c, 0, 64, 93
2, 31368, Note_off_c, 0, 64, 0
2, 31392, Note_on_c, 0, 63, 93
2, 31416, Note_off_c, 0, 63, 0
2, 31440, Note_on_c, 0, 64, 93
2, 31464, Note_off_c, 0, 64, 0
2, 31488, Note_on_c, 0, 66, 93
2, 31512, Note_off_c, 0, 66, 0
2, 31536, Note_on_c, 0, 68, 93
2, 31560, Note_off_c, 0, 68, 0
2, 31584, Note_on_c, 0, 69, 93
2, 31608, Note_off_c, 0, 69, 0
2, 31632, Note_on_c, 0, 66, 93
2, 31656, Note_off_c, 0, 66, 0
2, 31680, Note_on_c, 0, 68, 93
2, 31704, Note_off_c, 0, 68, 0
2, 31704, Note_on_c, 0, 69, 93
2, 31728, Note_off_c, 0, 69, 0
2, 31728, Note_on_c, 0, 68, 93
2, 31752, Note_off_c, 0, 68, 0
2, 31752, Note_on_c, 0, 66, 93
2, 31776, Note_off_c, 0, 66, 0
2, 31776, Note_on_c, 0, 64, 93
2, 31800, Note_off_c, 0, 64, 0
2, 31824, Note_on_c, 0, 75, 93
2, 31848, Note_off_c, 0, 75, 0
2, 31872, Note_on_c, 0, 73, 93
2, 31896, Note_off_c, 0, 73, 0
2, 31920, Note_on_c, 0, 71, 93
2, 31944, Note_off_c, 0, 71, 0
2, 31968, Note_on_c, 0, 70, 93
2, 31992, Note_off_c, 0, 70, 0
2, 32016, Note_on_c, 0, 71, 93
2, 32040, Note_off_c, 0, 71, 0
2, 32064, Note_on_c, 0, 73, 93
2, 32088, Note_off_c, 0, 73, 0
2, 32112, Note_on_c, 0, 75, 93
2, 32136, Note_off_c, 0, 75, 0
2, 32160, Note_on_c, 0, 76, 93
2, 32184, Note_off_c, 0, 76, 0
2, 32208, Note_on_c, 0, 73, 93
2, 32232, Note_off_c, 0, 73, 0
2, 32256, Note_on_c, 0, 75, 93
2, 32280, Note_off_c, 0, 75, 0
2, 32280, Note_on_c, 0, 76, 93
2, 32304, Note_off_c, 0, 76, 0
2, 32304, Note_on_c, 0, 75, 93
2, 32328, Note_off_c, 0, 75, 0
2, 32328, Note_on_c, 0, 73, 93
2, 32352, Note_off_c, 0, 73, 0
2, 32352, Note_on_c, 0, 71, 93
2, 32376, Note_off_c, 0, 71, 0
2, 32376, Note_on_c, 0, 73, 93
2, 32400, Note_off_c, 0, 73, 0
2, 32400, Note_on_c, 0, 75, 93
2, 32424, Note_off_c, 0, 75, 0
2, 32424, Note_on_c, 0, 76, 93
2, 32448, Note_off_c, 0, 76, 0
2, 32448, Note_on_c, 0, 78, 93
2, 32472, Note_off_c, 0, 78, 0
2, 32472, Note_on_c, 0, 80, 93
2, 32496, Note_off_c, 0, 80, 0
2, 32496, Note_on_c, 0, 81, 93
2, 32520, Note_off_c, 0, 81, 0
2, 32520, Note_on_c, 0, 78, 93
2, 32544, Note_off_c, 0, 78, 0
2, 32544, Note_on_c, 0, 83, 93
2, 32568, Note_off_c, 0, 83, 0
2, 32592, Note_on_c, 0, 69, 93
2, 32616, Note_off_c, 0, 69, 0
2, 32640, Note_on_c, 0, 68, 93
2, 32664, Note_off_c, 0, 68, 0
2, 32688, Note_on_c, 0, 66, 93
2, 32712, Note_off_c, 0, 66, 0
2, 32736, Note_on_c, 0, 64, 93
2, 32760, Note_off_c, 0, 64, 0
2, 32784, Note_on_c, 0, 62, 93
2, 32808, Note_off_c, 0, 62, 0
2, 32832, Note_on_c, 0, 61, 93
2, 32856, Note_off_c, 0, 61, 0
2, 32856, Note_on_c, 0, 64, 93
2, 32880, Note_off_c, 0, 64, 0
2, 32880, Note_on_c, 0, 66, 93
2, 32904, Note_off_c, 0, 66, 0
2, 32904, Note_on_c, 0, 68, 93
2, 32928, Note_off_c, 0, 68, 0
2, 32928, Note_on_c, 0, 69, 93
2, 32952, Note_off_c, 0, 69, 0
2, 32952, Note_on_c, 0, 71, 93
2, 32976, Note_off_c, 0, 71, 0
2, 32976, Note_on_c, 0, 73, 93
2, 33000, Note_off_c, 0, 73, 0
2, 33000, Note_on_c, 0, 74, 93
2, 33024, Note_off_c, 0, 74, 0
2, 33024, Note_on_c, 0, 76, 93
2, 33048, Note_off_c, 0, 76, 0
2, 33048, Note_on_c, 0, 78, 93
2, 33072, Note_off_c, 0, 78, 0
2, 33072, Note_on_c, 0, 80, 93
2, 33096, Note_off_c, 0, 80, 0
2, 33096, Note_on_c, 0, 76, 93
2, 33120, Note_off_c, 0, 76, 0
2, 33120, Note_on_c, 0, 81, 93
2, 33144, Note_off_c, 0, 81, 0
2, 33168, Note_on_c, 0, 68, 93
2, 33192, Note_off_c, 0, 68, 0
2, 33216, Note_on_c, 0, 66, 93
2, 33240, Note_off_c, 0, 66, 0
2, 33264, Note_on_c, 0, 64, 93
2, 33288, Note_off_c, 0, 64, 0
2, 33312, Note_on_c, 0, 63, 93
2, 33336, Note_off_c, 0, 63, 0
2, 33360, Note_on_c, 0, 61, 93
2, 33384, Note_off_c, 0, 61, 0
2, 33408, Note_on_c, 0, 59, 93
2, 33432, Note_off_c, 0, 59, 0
2, 33432, Note_on_c, 0, 63, 93
2, 33456, Note_off_c, 0, 63, 0
2, 33456, Note_on_c, 0, 64, 93
2, 33480, Note_off_c, 0, 64, 0
2, 33480, Note_on_c, 0, 66, 93
2, 33504, Note_off_c, 0, 66, 0
2, 33504, Note_on_c, 0, 68, 93
2, 33528, Note_off_c, 0, 68, 0
2, 33528, Note_on_c, 0, 69, 93
2, 33552, Note_off_c, 0, 69, 0
2, 33552, Note_on_c, 0, 71, 93
2, 33576, Note_off_c, 0, 71, 0
2, 33576, Note_on_c, 0, 73, 93
2, 33600, Note_off_c, 0, 73, 0
2, 33600, Note_on_c, 0, 75, 93
2, 33624, Note_off_c, 0, 75, 0
2, 33624, Note_on_c, 0, 76, 93
2, 33648, Note_off_c, 0, 76, 0
2, 33648, Note_on_c, 0, 78, 93
2, 33672, Note_off_c, 0, 78, 0
2, 33672, Note_on_c, 0, 75, 93
2, 33696, Note_off_c, 0, 75, 0
2, 33696, Note_on_c, 0, 80, 93
2, 33720, Note_off_c, 0, 80, 0
2, 33744, Note_on_c, 0, 62, 93
2, 33768, Note_off_c, 0, 62, 0
2, 33792, Note_on_c, 0, 61, 93
2, 33816, Note_off_c, 0, 61, 0
2, 33840, Note_on_c, 0, 59, 93
2, 33864, Note_off_c, 0, 59, 0
2, 33888, Note_on_c, 0, 57, 93
2, 33912, Note_off_c, 0, 57, 0
2, 33936, Note_on_c, 0, 56, 93
2, 33960, Note_off_c, 0, 56, 0
2, 33984, Note_on_c, 0, 57, 93
2, 34008, Note_off_c, 0, 57, 0
2, 34008, Note_on_c, 0, 64, 93
2, 34032, Note_off_c, 0, 64, 0
2, 34032, Note_on_c, 0, 73, 93
2, 34056, Note_off_c, 0, 73, 0
2, 34056, Note_on_c, 0, 71, 93
2, 34080, Note_off_c, 0, 71, 0
2, 34080, Note_on_c, 0, 73, 93
2, 34104, Note_off_c, 0, 73, 0
2, 34104, Note_on_c, 0, 76, 93
2, 34128, Note_off_c, 0, 76, 0
2, 34128, Note_on_c, 0, 81, 93
2, 34152, Note_off_c, 0, 81, 0
2, 34152, Note_on_c, 0, 80, 93
2, 34176, Note_off_c, 0, 80, 0
2, 34176, Note_on_c, 0, 81, 93
2, 34200, Note_off_c, 0, 81, 0
2, 34200, Note_on_c, 0, 78, 93
2, 34224, Note_off_c, 0, 78, 0
2, 34224, Note_on_c, 0, 73, 93
2, 34248, Note_off_c, 0, 73, 0
2, 34248, Note_on_c, 0, 76, 93
2, 34272, Note_off_c, 0, 76, 0
2, 34272, Note_on_c, 0, 59, 93
2, 34296, Note_off_c, 0, 59, 0
2, 34296, Note_on_c, 0, 66, 93
2, 34320, Note_off_c, 0, 66, 0
2, 34320, Note_on_c, 0, 75, 93
2, 34344, Note_off_c, 0, 75, 0
2, 34344, Note_on_c, 0, 73, 93
2, 34368, Note_off_c, 0, 73, 0
2, 34368, Note_on_c, 0, 75, 93
2, 34392, Note_off_c, 0, 75, 0
2, 34392, Note_on_c, 0, 78, 93
2, 34416, Note_off_c, 0, 78, 0
2, 34416, Note_on_c, 0, 81, 93
2, 34440, Note_off_c, 0, 81, 0
2, 34440, Note_on_c, 0, 80, 93
2, 34464, Note_off_c, 0, 80, 0
2, 34464, Note_on_c, 0, 81, 93
2, 34488, Note_off_c, 0, 81, 0
2, 34488, Note_on_c, 0, 78, 93
2, 34512, Note_off_c, 0, 78, 0
2, 34512, Note_on_c, 0, 75, 93
2, 34536, Note_off_c, 0, 75, 0
2, 34536, Note_on_c, 0, 78, 93
2, 34560, Note_off_c, 0, 78, 0
2, 34560, Note_on_c, 0, 59, 93
2, 34584, Note_off_c, 0, 59, 0
2, 34584, Note_on_c, 0, 68, 93
2, 34608, Note_off_c, 0, 68, 0
2, 34608, Note_on_c, 0, 71, 93
2, 34632, Note_off_c, 0, 71, 0
2, 34632, Note_on_c, 0, 69, 93
2, 34656, Note_off_c, 0, 69, 0
2, 34656, Note_on_c, 0, 71, 93
2, 34680, Note_off_c, 0, 71, 0
2, 34680, Note_on_c, 0, 76, 93
2, 34704, Note_off_c, 0, 76, 0
2, 34704, Note_on_c, 0, 80, 93
2, 34728, Note_off_c, 0, 80, 0
2, 34728, Note_on_c, 0, 78, 93
2, 34752, Note_off_c, 0, 78, 0
2, 34752, Note_on_c, 0, 80, 93
2, 34776, Note_off_c, 0, 80, 0
2, 34776, Note_on_c, 0, 76, 93
2, 34800, Note_off_c, 0, 76, 0
2, 34800, Note_on_c, 0, 71, 93
2, 34824, Note_off_c, 0, 71, 0
2, 34824, Note_on_c, 0, 76, 93
2, 34848, Note_off_c, 0, 76, 0
2, 34848, Note_on_c, 0, 59, 93
2, 34872, Note_off_c, 0, 59, 0
2, 34872, Note_on_c, 0, 70, 93
2, 34896, Note_off_c, 0, 70, 0
2, 34896, Note_on_c, 0, 73, 93
2, 34920, Note_off_c, 0, 73, 0
2, 34920, Note_on_c, 0, 71, 93
2, 34944, Note_off_c, 0, 71, 0
2, 34944, Note_on_c, 0, 73, 93
2, 34968, Note_off_c, 0, 73, 0
2, 34968, Note_on_c, 0, 76, 93
2, 34992, Note_off_c, 0, 76, 0
2, 34992, Note_on_c, 0, 82, 93
2, 35016, Note_off_c, 0, 82, 0
2, 35016, Note_on_c, 0, 80, 93
2, 35040, Note_off_c, 0, 80, 0
2, 35040, Note_on_c, 0, 82, 93
2, 35064, Note_off_c, 0, 82, 0
2, 35064, Note_on_c, 0, 76, 93
2, 35088, Note_off_c, 0, 76, 0
2, 35088, Note_on_c, 0, 73, 93
2, 35112, Note_off_c, 0, 73, 0
2, 35112, Note_on_c, 0, 76, 93
2, 35136, Note_off_c, 0, 76, 0
2, 35136, Note_on_c, 0, 75, 93
2, 35160, Note_off_c, 0, 75, 0
2, 35160, Note_on_c, 0, 83, 93
2, 35184, Note_off_c, 0, 83, 0
2, 35184, Note_on_c, 0, 82, 93
2, 35208, Note_off_c, 0, 82, 0
2, 35208, Note_on_c, 0, 80, 93
2, 35232, Note_off_c, 0, 80, 0
2, 35232, Note_on_c, 0, 78, 93
2, 35256, Note_off_c, 0, 78, 0
2, 35256, Note_on_c, 0, 83, 93
2, 35280, Note_off_c, 0, 83, 0
2, 35280, Note_on_c, 0, 78, 93
2, 35304, Note_off_c, 0, 78, 0
2, 35304, Note_on_c, 0, 76, 93
2, 35328, Note_off_c, 0, 76, 0
2, 35328, Note_on_c, 0, 75, 93
2, 35352, Note_off_c, 0, 75, 0
2, 35352, Note_on_c, 0, 78, 93
2, 35376, Note_off_c, 0, 78, 0
2, 35376, Note_on_c, 0, 75, 93
2, 35400, Note_off_c, 0, 75, 0
2, 35400, Note_on_c, 0, 73, 93
2, 35424, Note_off_c, 0, 73, 0
2, 35424, Note_on_c, 0, 71, 93
2, 35448, Note_off_c, 0, 71, 0
2, 35448, Note_on_c, 0, 83, 93
2, 35472, Note_off_c, 0, 83, 0
2, 35472, Note_on_c, 0, 81, 93
2, 35496, Note_off_c, 0, 81, 0
2, 35496, Note_on_c, 0, 80, 93
2, 35520, Note_off_c, 0, 80, 0
2, 35520, Note_on_c, 0, 78, 93
2, 35544, Note_off_c, 0, 78, 0
2, 35544, Note_on_c, 0, 81, 93
2, 35568, Note_off_c, 0, 81, 0
2, 35568, Note_on_c, 0, 78, 93
2, 35592, Note_off_c, 0, 78, 0
2, 35592, Note_on_c, 0, 76, 93
2, 35616, Note_off_c, 0, 76, 0
2, 35616, Note_on_c, 0, 75, 93
2, 35640, Note_off_c, 0, 75, 0
2, 35640, Note_on_c, 0, 78, 93
2, 35664, Note_off_c, 0, 78, 0
2, 35664, Note_on_c, 0, 75, 93
2, 35688, Note_off_c, 0, 75, 0
2, 35688, Note_on_c, 0, 73, 93
2, 35712, Note_off_c, 0, 73, 0
2, 35712, Note_on_c, 0, 71, 93
2, 35736, Note_off_c, 0, 71, 0
2, 35736, Note_on_c, 0, 81, 93
2, 35760, Note_off_c, 0, 81, 0
2, 35760, Note_on_c, 0, 80, 93
2, 35784, Note_off_c, 0, 80, 0
2, 35784, Note_on_c, 0, 78, 93
2, 35808, Note_off_c, 0, 78, 0
2, 35808, Note_on_c, 0, 76, 93
2, 35832, Note_off_c, 0, 76, 0
2, 35832, Note_on_c, 0, 80, 93
2, 35856, Note_off_c, 0, 80, 0
2, 35856, Note_on_c, 0, 76, 93
2, 35880, Note_off_c, 0, 76, 0
2, 35880, Note_on_c, 0, 75, 93
2, 35904, Note_off_c, 0, 75, 0
2, 35904, Note_on_c, 0, 73, 93
2, 35928, Note_off_c, 0, 73, 0
2, 35928, Note_on_c, 0, 76, 93
2, 35952, Note_off_c, 0, 76, 0
2, 35952, Note_on_c, 0, 73, 93
2, 35976, Note_off_c, 0, 73, 0
2, 35976, Note_on_c, 0, 71, 93
2, 36000, Note_off_c, 0, 71, 0
2, 36000, Note_on_c, 0, 69, 93
2, 36024, Note_off_c, 0, 69, 0
2, 36024, Note_on_c, 0, 80, 93
2, 36048, Note_off_c, 0, 80, 0
2, 36048, Note_on_c, 0, 78, 93
2, 36072, Note_off_c, 0, 78, 0
2, 36072, Note_on_c, 0, 76, 93
2, 36096, Note_off_c, 0, 76, 0
2, 36096, Note_on_c, 0, 75, 93
2, 36120, Note_off_c, 0, 75, 0
2, 36120, Note_on_c, 0, 78, 93
2, 36144, Note_off_c, 0, 78, 0
2, 36144, Note_on_c, 0, 75, 93
2, 36168, Note_off_c, 0, 75, 0
2, 36168, Note_on_c, 0, 73, 93
2, 36192, Note_off_c, 0, 73, 0
2, 36192, Note_on_c, 0, 71, 93
2, 36216, Note_off_c, 0, 71, 0
2, 36216, Note_on_c, 0, 75, 93
2, 36240, Note_off_c, 0, 75, 0
2, 36240, Note_on_c, 0, 71, 93
2, 36264, Note_off_c, 0, 71, 0
2, 36264, Note_on_c, 0, 69, 93
2, 36288, Note_off_c, 0, 69, 0
2, 36288, Note_on_c, 0, 68, 93
2, 36312, Note_off_c, 0, 68, 0
2, 36312, Note_on_c, 0, 76, 93
2, 36336, Note_off_c, 0, 76, 0
2, 36336, Note_on_c, 0, 73, 93
2, 36360, Note_off_c, 0, 73, 0
2, 36360, Note_on_c, 0, 71, 93
2, 36384, Note_off_c, 0, 71, 0
2, 36384, Note_on_c, 0, 69, 93
2, 36408, Note_off_c, 0, 69, 0
2, 36408, Note_on_c, 0, 73, 93
2, 36432, Note_off_c, 0, 73, 0
2, 36432, Note_on_c, 0, 69, 93
2, 36456, Note_off_c, 0, 69, 0
2, 36456, Note_on_c, 0, 68, 93
2, 36480, Note_off_c, 0, 68, 0
2, 36480, Note_on_c, 0, 66, 93
2, 36504, Note_off_c, 0, 66, 0
2, 36504, Note_on_c, 0, 69, 93
2, 36528, Note_off_c, 0, 69, 0
2, 36528, Note_on_c, 0, 66, 93
2, 36552, Note_off_c, 0, 66, 0
2, 36552, Note_on_c, 0, 64, 93
2, 36576, Note_off_c, 0, 64, 0
2, 36576, Note_on_c, 0, 63, 93
2, 36600, Note_off_c, 0, 63, 0
2, 36600, Note_on_c, 0, 66, 93
2, 36624, Note_off_c, 0, 66, 0
2, 36624, Note_on_c, 0, 69, 93
2, 36648, Note_off_c, 0, 69, 0
2, 36648, Note_on_c, 0, 73, 93
2, 36672, Note_off_c, 0, 73, 0
2, 36672, Note_on_c, 0, 71, 93
2, 36696, Note_off_c, 0, 71, 0
2, 36696, Note_on_c, 0, 75, 93
2, 36720, Note_off_c, 0, 75, 0
2, 36720, Note_on_c, 0, 78, 93
2, 36744, Note_off_c, 0, 78, 0
2, 36744, Note_on_c, 0, 80, 93
2, 36768, Note_off_c, 0, 80, 0
2, 36768, Note_on_c, 0, 81, 93
2, 36792, Note_off_c, 0, 81, 0
2, 36792, Note_on_c, 0, 80, 93
2, 36816, Note_off_c, 0, 80, 0
2, 36816, Note_on_c, 0, 81, 93
2, 36840, Note_off_c, 0, 81, 0
2, 36840, Note_on_c, 0, 78, 93
2, 36864, Note_off_c, 0, 78, 0
2, 36864, Note_on_c, 0, 80, 93
2, 36888, Note_off_c, 0, 80, 0
2, 36888, Note_on_c, 0, 76, 93
2, 36912, Note_off_c, 0, 76, 0
2, 36912, Note_on_c, 0, 80, 93
2, 36936, Note_off_c, 0, 80, 0
2, 36936, Note_on_c, 0, 83, 93
2, 36960, Note_off_c, 0, 83, 0
2, 36960, Note_on_c, 0, 88, 93
2, 36984, Note_off_c, 0, 88, 0
2, 36984, Note_on_c, 0, 83, 93
2, 37008, Note_off_c, 0, 83, 0
2, 37008, Note_on_c, 0, 80, 93
2, 37032, Note_off_c, 0, 80, 0
2, 37032, Note_on_c, 0, 76, 93
2, 37056, Note_off_c, 0, 76, 0
2, 37056, Note_on_c, 0, 71, 93
2, 37080, Note_off_c, 0, 71, 0
2, 37080, Note_on_c, 0, 78, 93
2, 37104, Note_off_c, 0, 78, 0
2, 37104, Note_on_c, 0, 88, 93
2, 37128, Note_off_c, 0, 88, 0
2, 37128, Note_on_c, 0, 87, 93
2, 37152, Note_off_c, 0, 87, 0
2, 37152, Note_on_c, 0, 88, 93
2, 37176, Note_off_c, 0, 88, 0
2, 37176, Note_on_c, 0, 83, 93
2, 37200, Note_off_c, 0, 83, 0
2, 37200, Note_on_c, 0, 80, 93
2, 37224, Note_off_c, 0, 80, 0
2, 37224, Note_on_c, 0, 76, 93
2, 37248, Note_off_c, 0, 76, 0
2, 37248, Note_on_c, 0, 74, 93
2, 37272, Note_off_c, 0, 74, 0
2, 37296, Note_on_c, 0, 73, 93
2, 37320, Note_off_c, 0, 73, 0
2, 37344, Note_on_c, 0, 74, 93
2, 37368, Note_off_c, 0, 74, 0
2, 37392, Note_on_c, 0, 71, 93
2, 37416, Note_off_c, 0, 71, 0
2, 37440, Note_on_c, 0, 73, 93
2, 37464, Note_off_c, 0, 73, 0
2, 37488, Note_on_c, 0, 81, 93
2, 37512, Note_off_c, 0, 81, 0
2, 37536, Note_on_c, 0, 73, 93
2, 37560, Note_off_c, 0, 73, 0
2, 37584, Note_on_c, 0, 71, 93
2, 37608, Note_off_c, 0, 71, 0
2, 37632, Note_on_c, 0, 73, 93
2, 37656, Note_off_c, 0, 73, 0
2, 37680, Note_on_c, 0, 69, 93
2, 37704, Note_off_c, 0, 69, 0
2, 37728, Note_on_c, 0, 71, 93
2, 37752, Note_off_c, 0, 71, 0
2, 37776, Note_on_c, 0, 80, 93
2, 37800, Note_off_c, 0, 80, 0
2, 37824, Note_on_c, 0, 71, 93
2, 37848, Note_off_c, 0, 71, 0
2, 37872, Note_on_c, 0, 69, 93
2, 37896, Note_off_c, 0, 69, 0
2, 37920, Note_on_c, 0, 71, 93
2, 37944, Note_off_c, 0, 71, 0
2, 37968, Note_on_c, 0, 68, 93
2, 37992, Note_off_c, 0, 68, 0
2, 38016, Note_on_c, 0, 69, 93
2, 38040, Note_off_c, 0, 69, 0
2, 38064, Note_on_c, 0, 78, 93
2, 38088, Note_off_c, 0, 78, 0
2, 38112, Note_on_c, 0, 75, 93
2, 38136, Note_off_c, 0, 75, 0
2, 38160, Note_on_c, 0, 76, 93
2, 38184, Note_off_c, 0, 76, 0
2, 38208, Note_on_c, 0, 78, 93
2, 38232, Note_off_c, 0, 78, 0
2, 38256, Note_on_c, 0, 80, 93
2, 38280, Note_off_c, 0, 80, 0
2, 38304, Note_on_c, 0, 81, 93
2, 38448, Note_off_c, 0, 81, 0
2, 38448, Note_on_c, 0, 83, 93
2, 38496, Note_off_c, 0, 83, 0
2, 38496, Note_on_c, 0, 80, 93
2, 38592, Note_off_c, 0, 80, 0
2, 38688, Note_on_c, 0, 71, 93
2, 38880, Note_off_c, 0, 71, 0
2, 38904, Note_on_c, 0, 88, 93
2, 38928, Note_off_c, 0, 88, 0
2, 38928, Note_on_c, 0, 87, 93
2, 38952, Note_off_c, 0, 87, 0
2, 38952, Note_on_c, 0, 85, 93
2, 38976, Note_off_c, 0, 85, 0
2, 38976, Note_on_c, 0, 83, 93
2, 39000, Note_off_c, 0, 83, 0
2, 39024, Note_on_c, 0, 81, 93
2, 39048, Note_off_c, 0, 81, 0
2, 39072, Note_on_c, 0, 80, 93
2, 39096, Note_off_c, 0, 80, 0
2, 39120, Note_on_c, 0, 78, 93
2, 39144, Note_off_c, 0, 78, 0
2, 39168, Note_on_c, 0, 76, 93
2, 39192, Note_off_c, 0, 76, 0
2, 39192, End_track
3, 0, Start_track
3, 0, Title_t, "Track3"
3, 0, Program_c, 1, 40
3, 0, Control_c, 1, 7, 100
3, 0, Control_c, 1, 10, 74
3, 600, Note_on_c, 1, 71, 93
3, 624, Note_off_c, 1, 71, 0
3, 648, Note_on_c, 1, 71, 93
3, 672, Note_off_c, 1, 71, 0
3, 696, Note_on_c, 1, 71, 93
3, 720, Note_off_c, 1, 71, 0
3, 744, Note_on_c, 1, 71, 93
3, 768, Note_off_c, 1, 71, 0
3, 792, Note_on_c, 1, 71, 93
3, 816, Note_off_c, 1, 71, 0
3, 840, Note_on_c, 1, 71, 93
3, 864, Note_off_c, 1, 71, 0
3, 1176, Note_on_c, 1, 71, 67
3, 1200, Note_off_c, 1, 71, 0
3, 1224, Note_on_c, 1, 71, 67
3, 1248, Note_off_c, 1, 71, 0
3, 1272, Note_on_c, 1, 71, 67
3, 1296, Note_off_c, 1, 71, 0
3, 1320, Note_on_c, 1, 71, 67
3, 1344, Note_off_c, 1, 71, 0
3, 1368, Note_on_c, 1, 71, 67
3, 1392, Note_off_c, 1, 71, 0
3, 1416, Note_on_c, 1, 71, 67
3, 1440, Note_off_c, 1, 71, 0
3, 2328, Note_on_c, 1, 83, 93
3, 2352, Note_off_c, 1, 83, 0
3, 2376, Note_on_c, 1, 83, 93
3, 2400, Note_off_c, 1, 83, 0
3, 2424, Note_on_c, 1, 83, 93
3, 2448, Note_off_c, 1, 83, 0
3, 2472, Note_on_c, 1, 83, 93
3, 2496, Note_off_c, 1, 83, 0
3, 2520, Note_on_c, 1, 83, 93
3, 2544, Note_off_c, 1, 83, 0
3, 2568, Note_on_c, 1, 83, 93
3, 2592, Note_off_c, 1, 83, 0
3, 2712, Note_on_c, 1, 76, 93
3, 2736, Note_off_c, 1, 76, 0
3, 2760, Note_on_c, 1, 76, 93
3, 2784, Note_off_c, 1, 76, 0
3, 2808, Note_on_c, 1, 76, 93
3, 2832, Note_off_c, 1, 76, 0
3, 2856, Note_on_c, 1, 76, 93
3, 2880, Note_off_c, 1, 76, 0
3, 2904, Note_on_c, 1, 83, 67
3, 2928, Note_off_c, 1, 83, 0
3, 2952, Note_on_c, 1, 83, 67
3, 2976, Note_off_c, 1, 83, 0
3, 3000, Note_on_c, 1, 83, 67
3, 3024, Note_off_c, 1, 83, 0
3, 3048, Note_on_c, 1, 83, 67
3, 3072, Note_off_c, 1, 83, 0
3, 3096, Note_on_c, 1, 83, 67
3, 3120, Note_off_c, 1, 83, 0
3, 3144, Note_on_c, 1, 83, 67
3, 3168, Note_off_c, 1, 83, 0
3, 3288, Note_on_c, 1, 76, 67
3, 3312, Note_off_c, 1, 76, 0
3, 3336, Note_on_c, 1, 76, 67
3, 3360, Note_off_c, 1, 76, 0
3, 3384, Note_on_c, 1, 76, 67
3, 3408, Note_off_c, 1, 76, 0
3, 3432, Note_on_c, 1, 76, 67
3, 3456, Note_off_c, 1, 76, 0
3, 3480, Note_on_c, 1, 76, 84
3, 3504, Note_off_c, 1, 76, 0
3, 3528, Note_on_c, 1, 76, 84
3, 3552, Note_off_c, 1, 76, 0
3, 3576, Note_on_c, 1, 76, 84
3, 3600, Note_off_c, 1, 76, 0
3, 3624, Note_on_c, 1, 76, 84
3, 3648, Note_off_c, 1, 76, 0
3, 3672, Note_on_c, 1, 76, 84
3, 3696, Note_off_c, 1, 76, 0
3, 3720, Note_on_c, 1, 76, 84
3, 3744, Note_off_c, 1, 76, 0
3, 3768, Note_on_c, 1, 76, 84
3, 3792, Note_off_c, 1, 76, 0
3, 3816, Note_on_c, 1, 76, 84
3, 3840, Note_off_c, 1, 76, 0
3, 3864, Note_on_c, 1, 76, 84
3, 3888, Note_off_c, 1, 76, 0
3, 3912, Note_on_c, 1, 76, 84
3, 3936, Note_off_c, 1, 76, 0
3, 3960, Note_on_c, 1, 76, 84
3, 3984, Note_off_c, 1, 76, 0
3, 4008, Note_on_c, 1, 76, 84
3, 4032, Note_off_c, 1, 76, 0
3, 4056, Note_on_c, 1, 76, 84
3, 4080, Note_off_c, 1, 76, 0
3, 4104, Note_on_c, 1, 76, 67
3, 4128, Note_off_c, 1, 76, 0
3, 4152, Note_on_c, 1, 76, 67
3, 4176, Note_off_c, 1, 76, 0
3, 4200, Note_on_c, 1, 76, 67
3, 4224, Note_off_c, 1, 76, 0
3, 4248, Note_on_c, 1, 76, 67
3, 4272, Note_off_c, 1, 76, 0
3, 4296, Note_on_c, 1, 76, 67
3, 4320, Note_off_c, 1, 76, 0
3, 4344, Note_on_c, 1, 76, 67
3, 4368, Note_off_c, 1, 76, 0
3, 4392, Note_on_c, 1, 76, 67
3, 4416, Note_off_c, 1, 76, 0
3, 4440, Note_on_c, 1, 76, 67
3, 4464, Note_off_c, 1, 76, 0
3, 4488, Note_on_c, 1, 76, 67
3, 4512, Note_off_c, 1, 76, 0
3, 4536, Note_on_c, 1, 76, 67
3, 4560, Note_off_c, 1, 76, 0
3, 4584, Note_on_c, 1, 76, 67
3, 4608, Note_off_c, 1, 76, 0
3, 4632, Note_on_c, 1, 76, 93
3, 4656, Note_off_c, 1, 76, 0
3, 4728, Note_on_c, 1, 76, 93
3, 4752, Note_off_c, 1, 76, 0
3, 4824, Note_on_c, 1, 76, 93
3, 4848, Note_off_c, 1, 76, 0
3, 4920, Note_on_c, 1, 76, 93
3, 4944, Note_off_c, 1, 76, 0
3, 5016, Note_on_c, 1, 76, 93
3, 5040, Note_off_c, 1, 76, 0
3, 5112, Note_on_c, 1, 76, 93
3, 5136, Note_off_c, 1, 76, 0
3, 5208, Note_on_c, 1, 76, 93
3, 5232, Note_off_c, 1, 76, 0
3, 5304, Note_on_c, 1, 76, 93
3, 5328, Note_off_c, 1, 76, 0
3, 5400, Note_on_c, 1, 76, 93
3, 5424, Note_off_c, 1, 76, 0
3, 5496, Note_on_c, 1, 76, 93
3, 5520, Note_off_c, 1, 76, 0
3, 5592, Note_on_c, 1, 76, 93
3, 5616, Note_off_c, 1, 76, 0
3, 5688, Note_on_c, 1, 76, 93
3, 5712, Note_off_c, 1, 76, 0
3, 5784, Note_on_c, 1, 76, 93
3, 5808, Note_off_c, 1, 76, 0
3, 5880, Note_on_c, 1, 76, 93
3, 5904, Note_off_c, 1, 76, 0
3, 5976, Note_on_c, 1, 76, 93
3, 6000, Note_off_c, 1, 76, 0
3, 6072, Note_on_c, 1, 76, 93
3, 6096, Note_off_c, 1, 76, 0
3, 6168, Note_on_c, 1, 76, 93
3, 6192, Note_off_c, 1, 76, 0
3, 6264, Note_on_c, 1, 76, 93
3, 6288, Note_off_c, 1, 76, 0
3, 6360, Note_on_c, 1, 76, 93
3, 6384, Note_off_c, 1, 76, 0
3, 6456, Note_on_c, 1, 76, 93
3, 6480, Note_off_c, 1, 76, 0
3, 6552, Note_on_c, 1, 76, 93
3, 6576, Note_off_c, 1, 76, 0
3, 6648, Note_on_c, 1, 76, 93
3, 6672, Note_off_c, 1, 76, 0
3, 6744, Note_on_c, 1, 76, 93
3, 6768, Note_off_c, 1, 76, 0
3, 6840, Note_on_c, 1, 76, 93
3, 6864, Note_off_c, 1, 76, 0
3, 6936, Note_on_c, 1, 76, 93
3, 6960, Note_off_c, 1, 76, 0
3, 7032, Note_on_c, 1, 76, 93
3, 7056, Note_off_c, 1, 76, 0
3, 7128, Note_on_c, 1, 76, 93
3, 7152, Note_off_c, 1, 76, 0
3, 7224, Note_on_c, 1, 76, 84
3, 7248, Note_off_c, 1, 76, 0
3, 7320, Note_on_c, 1, 76, 84
3, 7344, Note_off_c, 1, 76, 0
3, 7416, Note_on_c, 1, 76, 84
3, 7440, Note_off_c, 1, 76, 0
3, 7512, Note_on_c, 1, 76, 84
3, 7536, Note_off_c, 1, 76, 0
3, 7608, Note_on_c, 1, 76, 84
3, 7632, Note_off_c, 1, 76, 0
3, 7704, Note_on_c, 1, 76, 84
3, 7728, Note_off_c, 1, 76, 0
3, 7800, Note_on_c, 1, 76, 93
3, 7824, Note_off_c, 1, 76, 0
3, 7896, Note_on_c, 1, 76, 93
3, 7920, Note_off_c, 1, 76, 0
3, 7992, Note_on_c, 1, 76, 93
3, 8016, Note_off_c, 1, 76, 0
3, 11832, Note_on_c, 1, 66, 93
3, 11856, Note_off_c, 1, 66, 0
3, 11880, Note_on_c, 1, 66, 93
3, 11904, Note_off_c, 1, 66, 0
3, 11928, Note_on_c, 1, 66, 93
3, 11952, Note_off_c, 1, 66, 0
3, 11976, Note_on_c, 1, 66, 93
3, 12000, Note_off_c, 1, 66, 0
3, 12024, Note_on_c, 1, 66, 93
3, 12048, Note_off_c, 1, 66, 0
3, 12072, Note_on_c, 1, 66, 93
3, 12096, Note_off_c, 1, 66, 0
3, 12120, Note_on_c, 1, 66, 93
3, 12144, Note_off_c, 1, 66, 0
3, 12168, Note_on_c, 1, 66, 93
3, 12192, Note_off_c, 1, 66, 0
3, 12216, Note_on_c, 1, 66, 93
3, 12240, Note_off_c, 1, 66, 0
3, 12264, Note_on_c, 1, 66, 93
3, 12288, Note_off_c, 1, 66, 0
3, 12312, Note_on_c, 1, 66, 93
3, 12336, Note_off_c, 1, 66, 0
3, 12360, Note_on_c, 1, 66, 93
3, 12384, Note_off_c, 1, 66, 0
3, 12408, Note_on_c, 1, 64, 93
3, 12432, Note_off_c, 1, 64, 0
3, 12456, Note_on_c, 1, 64, 93
3, 12480, Note_off_c, 1, 64, 0
3, 12504, Note_on_c, 1, 64, 93
3, 12528, Note_off_c, 1, 64, 0
3, 12552, Note_on_c, 1, 64, 93
3, 12576, Note_off_c, 1, 64, 0
3, 12600, Note_on_c, 1, 64, 93
3, 12624, Note_off_c, 1, 64, 0
3, 12648, Note_on_c, 1, 64, 93
3, 12672, Note_off_c, 1, 64, 0
3, 12696, Note_on_c, 1, 66, 67
3, 12720, Note_off_c, 1, 66, 0
3, 12744, Note_on_c, 1, 66, 67
3, 12768, Note_off_c, 1, 66, 0
3, 12792, Note_on_c, 1, 66, 67
3, 12816, Note_off_c, 1, 66, 0
3, 12840, Note_on_c, 1, 66, 67
3, 12864, Note_off_c, 1, 66, 0
3, 12888, Note_on_c, 1, 66, 67
3, 12912, Note_off_c, 1, 66, 0
3, 12936, Note_on_c, 1, 66, 67
3, 12960, Note_off_c, 1, 66, 0
3, 12984, Note_on_c, 1, 64, 67
3, 13008, Note_off_c, 1, 64, 0
3, 13032, Note_on_c, 1, 64, 67
3, 13056, Note_off_c, 1, 64, 0
3, 13080, Note_on_c, 1, 64, 67
3, 13104, Note_off_c, 1, 64, 0
3, 13128, Note_on_c, 1, 64, 67
3, 13152, Note_off_c, 1, 64, 0
3, 13176, Note_on_c, 1, 64, 67
3, 13200, Note_off_c, 1, 64, 0
3, 13224, Note_on_c, 1, 64, 67
3, 13248, Note_off_c, 1, 64, 0
3, 13272, Note_on_c, 1, 67, 93
3, 13296, Note_off_c, 1, 67, 0
3, 13320, Note_on_c, 1, 67, 93
3, 13344, Note_off_c, 1, 67, 0
3, 13368, Note_on_c, 1, 67, 93
3, 13392, Note_off_c, 1, 67, 0
3, 13416, Note_on_c, 1, 67, 93
3, 13440, Note_off_c, 1, 67, 0
3, 13464, Note_on_c, 1, 67, 93
3, 13488, Note_off_c, 1, 67, 0
3, 13512, Note_on_c, 1, 67, 93
3, 13536, Note_off_c, 1, 67, 0
3, 13560, Note_on_c, 1, 67, 67
3, 13584, Note_off_c, 1, 67, 0
3, 13608, Note_on_c, 1, 67, 67
3, 13632, Note_off_c, 1, 67, 0
3, 13656, Note_on_c, 1, 67, 67
3, 13680, Note_off_c, 1, 67, 0
3, 13704, Note_on_c, 1, 67, 67
3, 13728, Note_off_c, 1, 67, 0
3, 13752, Note_on_c, 1, 67, 67
3, 13776, Note_off_c, 1, 67, 0
3, 13800, Note_on_c, 1, 67, 67
3, 13824, Note_off_c, 1, 67, 0
3, 13848, Note_on_c, 1, 68, 93
3, 13872, Note_off_c, 1, 68, 0
3, 13896, Note_on_c, 1, 68, 93
3, 13920, Note_off_c, 1, 68, 0
3, 13944, Note_on_c, 1, 68, 93
3, 13968, Note_off_c, 1, 68, 0
3, 13992, Note_on_c, 1, 68, 93
3, 14016, Note_off_c, 1, 68, 0
3, 14040, Note_on_c, 1, 68, 93
3, 14064, Note_off_c, 1, 68, 0
3, 14088, Note_on_c, 1, 68, 93
3, 14112, Note_off_c, 1, 68, 0
3, 14136, Note_on_c, 1, 66, 67
3, 14160, Note_off_c, 1, 66, 0
3, 14184, Note_on_c, 1, 66, 67
3, 14208, Note_off_c, 1, 66, 0
3, 14232, Note_on_c, 1, 66, 67
3, 14256, Note_off_c, 1, 66, 0
3, 14280, Note_on_c, 1, 66, 67
3, 14304, Note_off_c, 1, 66, 0
3, 14328, Note_on_c, 1, 66, 67
3, 14352, Note_off_c, 1, 66, 0
3, 14376, Note_on_c, 1, 66, 67
3, 14400, Note_off_c, 1, 66, 0
3, 15000, Note_on_c, 1, 66, 93
3, 15024, Note_off_c, 1, 66, 0
3, 15048, Note_on_c, 1, 66, 93
3, 15072, Note_off_c, 1, 66, 0
3, 15096, Note_on_c, 1, 66, 93
3, 15120, Note_off_c, 1, 66, 0
3, 15144, Note_on_c, 1, 66, 93
3, 15168, Note_off_c, 1, 66, 0
3, 15192, Note_on_c, 1, 66, 93
3, 15216, Note_off_c, 1, 66, 0
3, 15240, Note_on_c, 1, 66, 93
3, 15264, Note_off_c, 1, 66, 0
3, 15288, Note_on_c, 1, 66, 93
3, 15312, Note_off_c, 1, 66, 0
3, 15336, Note_on_c, 1, 66, 93
3, 15360, Note_off_c, 1, 66, 0
3, 15384, Note_on_c, 1, 66, 93
3, 15408, Note_off_c, 1, 66, 0
3, 15432, Note_on_c, 1, 66, 93
3, 15456, Note_off_c, 1, 66, 0
3, 15480, Note_on_c, 1, 66, 93
3, 15504, Note_off_c, 1, 66, 0
3, 15528, Note_on_c, 1, 66, 93
3, 15552, Note_off_c, 1, 66, 0
3, 16152, Note_on_c, 1, 74, 93
3, 16176, Note_off_c, 1, 74, 0
3, 16200, Note_on_c, 1, 74, 93
3, 16224, Note_off_c, 1, 74, 0
3, 16248, Note_on_c, 1, 74, 93
3, 16272, Note_off_c, 1, 74, 0
3, 16296, Note_on_c, 1, 74, 93
3, 16320, Note_off_c, 1, 74, 0
3, 16344, Note_on_c, 1, 74, 93
3, 16368, Note_off_c, 1, 74, 0
3, 16392, Note_on_c, 1, 74, 93
3, 16416, Note_off_c, 1, 74, 0
3, 16440, Note_on_c, 1, 74, 93
3, 16464, Note_off_c, 1, 74, 0
3, 16488, Note_on_c, 1, 74, 93
3, 16512, Note_off_c, 1, 74, 0
3, 16536, Note_on_c, 1, 74, 93
3, 16560, Note_off_c, 1, 74, 0
3, 16584, Note_on_c, 1, 74, 93
3, 16608, Note_off_c, 1, 74, 0
3, 16632, Note_on_c, 1, 74, 93
3, 16656, Note_off_c, 1, 74, 0
3, 16680, Note_on_c, 1, 74, 93
3, 16704, Note_off_c, 1, 74, 0
3, 16824, Note_on_c, 1, 76, 93
3, 16848, Note_off_c, 1, 76, 0
3, 16872, Note_on_c, 1, 76, 93
3, 16896, Note_off_c, 1, 76, 0
3, 16920, Note_on_c, 1, 76, 93
3, 16944, Note_off_c, 1, 76, 0
3, 16968, Note_on_c, 1, 76, 93
3, 16992, Note_off_c, 1, 76, 0
3, 17112, Note_on_c, 1, 69, 93
3, 17136, Note_off_c, 1, 69, 0
3, 17160, Note_on_c, 1, 69, 93
3, 17184, Note_off_c, 1, 69, 0
3, 17208, Note_on_c, 1, 69, 93
3, 17232, Note_off_c, 1, 69, 0
3, 17256, Note_on_c, 1, 69, 93
3, 17280, Note_off_c, 1, 69, 0
3, 17304, Note_on_c, 1, 76, 67
3, 17328, Note_off_c, 1, 76, 0
3, 17352, Note_on_c, 1, 76, 67
3, 17376, Note_off_c, 1, 76, 0
3, 17400, Note_on_c, 1, 76, 67
3, 17424, Note_off_c, 1, 76, 0
3, 17448, Note_on_c, 1, 76, 67
3, 17472, Note_off_c, 1, 76, 0
3, 17496, Note_on_c, 1, 76, 67
3, 17520, Note_off_c, 1, 76, 0
3, 17544, Note_on_c, 1, 76, 67
3, 17568, Note_off_c, 1, 76, 0
3, 17688, Note_on_c, 1, 69, 67
3, 17712, Note_off_c, 1, 69, 0
3, 17736, Note_on_c, 1, 69, 67
3, 17760, Note_off_c, 1, 69, 0
3, 17784, Note_on_c, 1, 69, 67
3, 17808, Note_off_c, 1, 69, 0
3, 17832, Note_on_c, 1, 69, 67
3, 17856, Note_off_c, 1, 69, 0
3, 17880, Note_on_c, 1, 69, 67
3, 17904, Note_off_c, 1, 69, 0
3, 17928, Note_on_c, 1, 69, 93
3, 17952, Note_off_c, 1, 69, 0
3, 17976, Note_on_c, 1, 69, 93
3, 18000, Note_off_c, 1, 69, 0
3, 18024, Note_on_c, 1, 69, 93
3, 18048, Note_off_c, 1, 69, 0
3, 18072, Note_on_c, 1, 69, 93
3, 18096, Note_off_c, 1, 69, 0
3, 18120, Note_on_c, 1, 69, 93
3, 18144, Note_off_c, 1, 69, 0
3, 18168, Note_on_c, 1, 69, 93
3, 18192, Note_off_c, 1, 69, 0
3, 18216, Note_on_c, 1, 69, 93
3, 18240, Note_off_c, 1, 69, 0
3, 18264, Note_on_c, 1, 69, 93
3, 18288, Note_off_c, 1, 69, 0
3, 18312, Note_on_c, 1, 69, 93
3, 18336, Note_off_c, 1, 69, 0
3, 18360, Note_on_c, 1, 69, 93
3, 18384, Note_off_c, 1, 69, 0
3, 18408, Note_on_c, 1, 69, 93
3, 18432, Note_off_c, 1, 69, 0
3, 18456, Note_on_c, 1, 69, 93
3, 18480, Note_off_c, 1, 69, 0
3, 18504, Note_on_c, 1, 69, 67
3, 18528, Note_off_c, 1, 69, 0
3, 18552, Note_on_c, 1, 69, 67
3, 18576, Note_off_c, 1, 69, 0
3, 18600, Note_on_c, 1, 69, 67
3, 18624, Note_off_c, 1, 69, 0
3, 18648, Note_on_c, 1, 69, 67
3, 18672, Note_off_c, 1, 69, 0
3, 18696, Note_on_c, 1, 69, 67
3, 18720, Note_off_c, 1, 69, 0
3, 18744, Note_on_c, 1, 69, 67
3, 18768, Note_off_c, 1, 69, 0
3, 18792, Note_on_c, 1, 69, 67
3, 18816, Note_off_c, 1, 69, 0
3, 18840, Note_on_c, 1, 69, 67
3, 18864, Note_off_c, 1, 69, 0
3, 18888, Note_on_c, 1, 69, 67
3, 18912, Note_off_c, 1, 69, 0
3, 18936, Note_on_c, 1, 69, 67
3, 18960, Note_off_c, 1, 69, 0
3, 18984, Note_on_c, 1, 69, 67
3, 19008, Note_off_c, 1, 69, 0
3, 19032, Note_on_c, 1, 69, 93
3, 19056, Note_off_c, 1, 69, 0
3, 19128, Note_on_c, 1, 69, 93
3, 19152, Note_off_c, 1, 69, 0
3, 19224, Note_on_c, 1, 69, 93
3, 19248, Note_off_c, 1, 69, 0
3, 19320, Note_on_c, 1, 69, 93
3, 19344, Note_off_c, 1, 69, 0
3, 19416, Note_on_c, 1, 69, 93
3, 19440, Note_off_c, 1, 69, 0
3, 19512, Note_on_c, 1, 69, 93
3, 19536, Note_off_c, 1, 69, 0
3, 19608, Note_on_c, 1, 69, 93
3, 19632, Note_off_c, 1, 69, 0
3, 19704, Note_on_c, 1, 69, 93
3, 19728, Note_off_c, 1, 69, 0
3, 19800, Note_on_c, 1, 69, 93
3, 19824, Note_off_c, 1, 69, 0
3, 19896, Note_on_c, 1, 69, 93
3, 19920, Note_off_c, 1, 69, 0
3, 19992, Note_on_c, 1, 69, 93
3, 20016, Note_off_c, 1, 69, 0
3, 20088, Note_on_c, 1, 69, 93
3, 20112, Note_off_c, 1, 69, 0
3, 20184, Note_on_c, 1, 69, 93
3, 20208, Note_off_c, 1, 69, 0
3, 20280, Note_on_c, 1, 69, 93
3, 20304, Note_off_c, 1, 69, 0
3, 20376, Note_on_c, 1, 69, 93
3, 20400, Note_off_c, 1, 69, 0
3, 20472, Note_on_c, 1, 69, 93
3, 20496, Note_off_c, 1, 69, 0
3, 20568, Note_on_c, 1, 69, 93
3, 20592, Note_off_c, 1, 69, 0
3, 20664, Note_on_c, 1, 69, 93
3, 20688, Note_off_c, 1, 69, 0
3, 20760, Note_on_c, 1, 69, 93
3, 20784, Note_off_c, 1, 69, 0
3, 20856, Note_on_c, 1, 69, 93
3, 20880, Note_off_c, 1, 69, 0
3, 20952, Note_on_c, 1, 69, 93
3, 20976, Note_off_c, 1, 69, 0
3, 21048, Note_on_c, 1, 69, 93
3, 21072, Note_off_c, 1, 69, 0
3, 21144, Note_on_c, 1, 69, 93
3, 21168, Note_off_c, 1, 69, 0
3, 21240, Note_on_c, 1, 69, 93
3, 21264, Note_off_c, 1, 69, 0
3, 21336, Note_on_c, 1, 69, 93
3, 21360, Note_off_c, 1, 69, 0
3, 21432, Note_on_c, 1, 69, 93
3, 21456, Note_off_c, 1, 69, 0
3, 21528, Note_on_c, 1, 69, 93
3, 21552, Note_off_c, 1, 69, 0
3, 21624, Note_on_c, 1, 69, 93
3, 21648, Note_off_c, 1, 69, 0
3, 21720, Note_on_c, 1, 69, 93
3, 21744, Note_off_c, 1, 69, 0
3, 21816, Note_on_c, 1, 69, 93
3, 21840, Note_off_c, 1, 69, 0
3, 21912, Note_on_c, 1, 69, 93
3, 21936, Note_off_c, 1, 69, 0
3, 22008, Note_on_c, 1, 69, 93
3, 22032, Note_off_c, 1, 69, 0
3, 22104, Note_on_c, 1, 69, 93
3, 22128, Note_off_c, 1, 69, 0
3, 22200, Note_on_c, 1, 69, 93
3, 22224, Note_off_c, 1, 69, 0
3, 22296, Note_on_c, 1, 69, 93
3, 22320, Note_off_c, 1, 69, 0
3, 22392, Note_on_c, 1, 69, 93
3, 22416, Note_off_c, 1, 69, 0
3, 27768, Note_on_c, 1, 71, 93
3, 27792, Note_off_c, 1, 71, 0
3, 27816, Note_on_c, 1, 71, 93
3, 27840, Note_off_c, 1, 71, 0
3, 27864, Note_on_c, 1, 71, 93
3, 27888, Note_off_c, 1, 71, 0
3, 27912, Note_on_c, 1, 71, 93
3, 27936, Note_off_c, 1, 71, 0
3, 28056, Note_on_c, 1, 65, 93
3, 28080, Note_off_c, 1, 65, 0
3, 28104, Note_on_c, 1, 65, 93
3, 28128, Note_off_c, 1, 65, 0
3, 28152, Note_on_c, 1, 65, 93
3, 28176, Note_off_c, 1, 65, 0
3, 28200, Note_on_c, 1, 65, 93
3, 28224, Note_off_c, 1, 65, 0
3, 28344, Note_on_c, 1, 61, 93
3, 28368, Note_off_c, 1, 61, 0
3, 28392, Note_on_c, 1, 61, 93
3, 28416, Note_off_c, 1, 61, 0
3, 28440, Note_on_c, 1, 61, 93
3, 28464, Note_off_c, 1, 61, 0
3, 28488, Note_on_c, 1, 61, 93
3, 28512, Note_off_c, 1, 61, 0
3, 30840, Note_on_c, 1, 66, 93
3, 30864, Note_off_c, 1, 66, 0
3, 30888, Note_on_c, 1, 66, 93
3, 30912, Note_off_c, 1, 66, 0
3, 30936, Note_on_c, 1, 66, 93
3, 30960, Note_off_c, 1, 66, 0
3, 30984, Note_on_c, 1, 66, 93
3, 31008, Note_off_c, 1, 66, 0
3, 31128, Note_on_c, 1, 69, 93
3, 31152, Note_off_c, 1, 69, 0
3, 31176, Note_on_c, 1, 69, 93
3, 31200, Note_off_c, 1, 69, 0
3, 31224, Note_on_c, 1, 69, 93
3, 31248, Note_off_c, 1, 69, 0
3, 31272, Note_on_c, 1, 69, 93
3, 31296, Note_off_c, 1, 69, 0
3, 31320, Note_on_c, 1, 69, 93
3, 31344, Note_off_c, 1, 69, 0
3, 31368, Note_on_c, 1, 69, 93
3, 31392, Note_off_c, 1, 69, 0
3, 31416, Note_on_c, 1, 69, 93
3, 31440, Note_off_c, 1, 69, 0
3, 31464, Note_on_c, 1, 69, 93
3, 31488, Note_off_c, 1, 69, 0
3, 31512, Note_on_c, 1, 69, 93
3, 31536, Note_off_c, 1, 69, 0
3, 31560, Note_on_c, 1, 69, 93
3, 31584, Note_off_c, 1, 69, 0
3, 31608, Note_on_c, 1, 69, 93
3, 31632, Note_off_c, 1, 69, 0
3, 31656, Note_on_c, 1, 69, 93
3, 31680, Note_off_c, 1, 69, 0
3, 31800, Note_on_c, 1, 76, 93
3, 31824, Note_off_c, 1, 76, 0
3, 31848, Note_on_c, 1, 76, 93
3, 31872, Note_off_c, 1, 76, 0
3, 31896, Note_on_c, 1, 76, 93
3, 31920, Note_off_c, 1, 76, 0
3, 31944, Note_on_c, 1, 76, 93
3, 31968, Note_off_c, 1, 76, 0
3, 31992, Note_on_c, 1, 76, 93
3, 32016, Note_off_c, 1, 76, 0
3, 32040, Note_on_c, 1, 76, 93
3, 32064, Note_off_c, 1, 76, 0
3, 32088, Note_on_c, 1, 76, 93
3, 32112, Note_off_c, 1, 76, 0
3, 32136, Note_on_c, 1, 76, 93
3, 32160, Note_off_c, 1, 76, 0
3, 32184, Note_on_c, 1, 76, 93
3, 32208, Note_off_c, 1, 76, 0
3, 32232, Note_on_c, 1, 76, 93
3, 32256, Note_off_c, 1, 76, 0
3, 32568, Note_on_c, 1, 71, 93
3, 32592, Note_off_c, 1, 71, 0
3, 32616, Note_on_c, 1, 71, 93
3, 32640, Note_off_c, 1, 71, 0
3, 32664, Note_on_c, 1, 71, 93
3, 32688, Note_off_c, 1, 71, 0
3, 32712, Note_on_c, 1, 71, 93
3, 32736, Note_off_c, 1, 71, 0
3, 32760, Note_on_c, 1, 71, 93
3, 32784, Note_off_c, 1, 71, 0
3, 32808, Note_on_c, 1, 71, 93
3, 32832, Note_off_c, 1, 71, 0
3, 33144, Note_on_c, 1, 69, 93
3, 33168, Note_off_c, 1, 69, 0
3, 33192, Note_on_c, 1, 69, 93
3, 33216, Note_off_c, 1, 69, 0
3, 33240, Note_on_c, 1, 69, 93
3, 33264, Note_off_c, 1, 69, 0
3, 33288, Note_on_c, 1, 69, 93
3, 33312, Note_off_c, 1, 69, 0
3, 33336, Note_on_c, 1, 69, 93
3, 33360, Note_off_c, 1, 69, 0
3, 33384, Note_on_c, 1, 69, 93
3, 33408, Note_off_c, 1, 69, 0
3, 33720, Note_on_c, 1, 64, 93
3, 33744, Note_off_c, 1, 64, 0
3, 33768, Note_on_c, 1, 64, 93
3, 33792, Note_off_c, 1, 64, 0
3, 33816, Note_on_c, 1, 64, 93
3, 33840, Note_off_c, 1, 64, 0
3, 33864, Note_on_c, 1, 64, 93
3, 33888, Note_off_c, 1, 64, 0
3, 33912, Note_on_c, 1, 64, 93
3, 33936, Note_off_c, 1, 64, 0
3, 33960, Note_on_c, 1, 64, 93
3, 33984, Note_off_c, 1, 64, 0
3, 37272, Note_on_c, 1, 76, 93
3, 37296, Note_off_c, 1, 76, 0
3, 37320, Note_on_c, 1, 76, 93
3, 37344, Note_off_c, 1, 76, 0
3, 37368, Note_on_c, 1, 76, 93
3, 37392, Note_off_c, 1, 76, 0
3, 37416, Note_on_c, 1, 76, 93
3, 37440, Note_off_c, 1, 76, 0
3, 37464, Note_on_c, 1, 76, 93
3, 37488, Note_off_c, 1, 76, 0
3, 37512, Note_on_c, 1, 76, 93
3, 37536, Note_off_c, 1, 76, 0
3, 37560, Note_on_c, 1, 76, 93
3, 37584, Note_off_c, 1, 76, 0
3, 37608, Note_on_c, 1, 76, 93
3, 37632, Note_off_c, 1, 76, 0
3, 37656, Note_on_c, 1, 76, 93
3, 37680, Note_off_c, 1, 76, 0
3, 37704, Note_on_c, 1, 76, 93
3, 37728, Note_off_c, 1, 76, 0
3, 37752, Note_on_c, 1, 76, 93
3, 37776, Note_off_c, 1, 76, 0
3, 37800, Note_on_c, 1, 76, 93
3, 37824, Note_off_c, 1, 76, 0
3, 37848, Note_on_c, 1, 76, 93
3, 37872, Note_off_c, 1, 76, 0
3, 37896, Note_on_c, 1, 76, 93
3, 37920, Note_off_c, 1, 76, 0
3, 37944, Note_on_c, 1, 76, 93
3, 37968, Note_off_c, 1, 76, 0
3, 37992, Note_on_c, 1, 76, 93
3, 38016, Note_off_c, 1, 76, 0
3, 38040, Note_on_c, 1, 76, 93
3, 38064, Note_off_c, 1, 76, 0
3, 38088, Note_on_c, 1, 76, 93
3, 38112, Note_off_c, 1, 76, 0
3, 38136, Note_on_c, 1, 76, 93
3, 38160, Note_off_c, 1, 76, 0
3, 38184, Note_on_c, 1, 76, 93
3, 38208, Note_off_c, 1, 76, 0
3, 38232, Note_on_c, 1, 76, 93
3, 38256, Note_off_c, 1, 76, 0
3, 38280, Note_on_c, 1, 76, 93
3, 38304, Note_off_c, 1, 76, 0
3, 38304, Note_on_c, 1, 75, 93
3, 38448, Note_off_c, 1, 75, 0
3, 38496, Note_on_c, 1, 71, 93
3, 38592, Note_off_c, 1, 71, 0
3, 39000, Note_on_c, 1, 88, 93
3, 39024, Note_off_c, 1, 88, 0
3, 39048, Note_on_c, 1, 88, 93
3, 39072, Note_off_c, 1, 88, 0
3, 39096, Note_on_c, 1, 88, 93
3, 39120, Note_off_c, 1, 88, 0
3, 39144, Note_on_c, 1, 88, 93
3, 39168, Note_off_c, 1, 88, 0
3, 39288, Note_on_c, 1, 76, 93
3, 39312, Note_off_c, 1, 76, 0
3, 39336, Note_on_c, 1, 76, 93
3, 39360, Note_off_c, 1, 76, 0
3, 39384, Note_on_c, 1, 76, 93
3, 39408, Note_off_c, 1, 76, 0
3, 39432, Note_on_c, 1, 76, 93
3, 39456, Note_off_c, 1, 76, 0
3, 39456, End_track
4, 0, Start_track
4, 0, Title_t, "Track4"
4, 0, Program_c, 2, 40
4, 0, Control_c, 2, 7, 100
4, 0, Control_c, 2, 10, 54
4, 1152, Note_on_c, 2, 64, 67
4, 1176, Note_off_c, 2, 64, 0
4, 1200, Note_on_c, 2, 66, 67
4, 1224, Note_off_c, 2, 66, 0
4, 1248, Note_on_c, 2, 68, 67
4, 1272, Note_off_c, 2, 68, 0
4, 1296, Note_on_c, 2, 69, 67
4, 1320, Note_off_c, 2, 69, 0
4, 1344, Note_on_c, 2, 68, 67
4, 1368, Note_off_c, 2, 68, 0
4, 1392, Note_on_c, 2, 66, 67
4, 1416, Note_off_c, 2, 66, 0
4, 1440, Note_on_c, 2, 64, 67
4, 1464, Note_off_c, 2, 64, 0
4, 1464, Note_on_c, 2, 76, 67
4, 1488, Note_off_c, 2, 76, 0
4, 1488, Note_on_c, 2, 75, 67
4, 1512, Note_off_c, 2, 75, 0
4, 1512, Note_on_c, 2, 73, 67
4, 1536, Note_off_c, 2, 73, 0
4, 1536, Note_on_c, 2, 71, 67
4, 1560, Note_off_c, 2, 71, 0
4, 1560, Note_on_c, 2, 76, 67
4, 1584, Note_off_c, 2, 76, 0
4, 1584, Note_on_c, 2, 75, 67
4, 1608, Note_off_c, 2, 75, 0
4, 1608, Note_on_c, 2, 73, 67
4, 1632, Note_off_c, 2, 73, 0
4, 1632, Note_on_c, 2, 71, 67
4, 1656, Note_off_c, 2, 71, 0
4, 1656, Note_on_c, 2, 69, 67
4, 1680, Note_off_c, 2, 69, 0
4, 1680, Note_on_c, 2, 68, 67
4, 1704, Note_off_c, 2, 68, 0
4, 1704, Note_on_c, 2, 66, 67
4, 1728, Note_off_c, 2, 66, 0
4, 2880, Note_on_c, 2, 80, 67
4, 2904, Note_off_c, 2, 80, 0
4, 2928, Note_on_c, 2, 78, 67
4, 2952, Note_off_c, 2, 78, 0
4, 2976, Note_on_c, 2, 80, 67
4, 3000, Note_off_c, 2, 80, 0
4, 3024, Note_on_c, 2, 81, 67
4, 3048, Note_off_c, 2, 81, 0
4, 3072, Note_on_c, 2, 80, 67
4, 3096, Note_off_c, 2, 80, 0
4, 3120, Note_on_c, 2, 78, 67
4, 3144, Note_off_c, 2, 78, 0
4, 3168, Note_on_c, 2, 76, 67
4, 3192, Note_off_c, 2, 76, 0
4, 3192, Note_on_c, 2, 88, 67
4, 3216, Note_off_c, 2, 88, 0
4, 3216, Note_on_c, 2, 87, 67
4, 3240, Note_off_c, 2, 87, 0
4, 3240, Note_on_c, 2, 85, 67
4, 3264, Note_off_c, 2, 85, 0
4, 3264, Note_on_c, 2, 83, 67
4, 3288, Note_off_c, 2, 83, 0
4, 3312, Note_on_c, 2, 85, 67
4, 3336, Note_off_c, 2, 85, 0
4, 3360, Note_on_c, 2, 83, 67
4, 3384, Note_off_c, 2, 83, 0
4, 3408, Note_on_c, 2, 81, 67
4, 3432, Note_off_c, 2, 81, 0
4, 4680, Note_on_c, 2, 76, 93
4, 4704, Note_off_c, 2, 76, 0
4, 4776, Note_on_c, 2, 76, 93
4, 4800, Note_off_c, 2, 76, 0
4, 4872, Note_on_c, 2, 76, 93
4, 4896, Note_off_c, 2, 76, 0
4, 4968, Note_on_c, 2, 75, 93
4, 4992, Note_off_c, 2, 75, 0
4, 5064, Note_on_c, 2, 75, 93
4, 5088, Note_off_c, 2, 75, 0
4, 5160, Note_on_c, 2, 75, 93
4, 5184, Note_off_c, 2, 75, 0
4, 5256, Note_on_c, 2, 74, 93
4, 5280, Note_off_c, 2, 74, 0
4, 5352, Note_on_c, 2, 74, 93
4, 5376, Note_off_c, 2, 74, 0
4, 5448, Note_on_c, 2, 74, 93
4, 5472, Note_off_c, 2, 74, 0
4, 5544, Note_on_c, 2, 73, 93
4, 5568, Note_off_c, 2, 73, 0
4, 5640, Note_on_c, 2, 73, 93
4, 5664, Note_off_c, 2, 73, 0
4, 5736, Note_on_c, 2, 73, 93
4, 5760, Note_off_c, 2, 73, 0
4, 5832, Note_on_c, 2, 71, 93
4, 5856, Note_off_c, 2, 71, 0
4, 5928, Note_on_c, 2, 71, 93
4, 5952, Note_off_c, 2, 71, 0
4, 6024, Note_on_c, 2, 71, 93
4, 6048, Note_off_c, 2, 71, 0
4, 6120, Note_on_c, 2, 71, 93
4, 6144, Note_off_c, 2, 71, 0
4, 6216, Note_on_c, 2, 71, 93
4, 6240, Note_off_c, 2, 71, 0
4, 6312, Note_on_c, 2, 71, 93
4, 6336, Note_off_c, 2, 71, 0
4, 6408, Note_on_c, 2, 69, 93
4, 6432, Note_off_c, 2, 69, 0
4, 6504, Note_on_c, 2, 69, 93
4, 6528, Note_off_c, 2, 69, 0
4, 6600, Note_on_c, 2, 69, 93
4, 6624, Note_off_c, 2, 69, 0
4, 6696, Note_on_c, 2, 69, 93
4, 6720, Note_off_c, 2, 69, 0
4, 6792, Note_on_c, 2, 69, 93
4, 6816, Note_off_c, 2, 69, 0
4, 6888, Note_on_c, 2, 69, 93
4, 6912, Note_off_c, 2, 69, 0
4, 6984, Note_on_c, 2, 68, 93
4, 7008, Note_off_c, 2, 68, 0
4, 7080, Note_on_c, 2, 68, 93
4, 7104, Note_off_c, 2, 68, 0
4, 7176, Note_on_c, 2, 68, 93
4, 7200, Note_off_c, 2, 68, 0
4, 7272, Note_on_c, 2, 68, 93
4, 7296, Note_off_c, 2, 68, 0
4, 7368, Note_on_c, 2, 68, 93
4, 7392, Note_off_c, 2, 68, 0
4, 7464, Note_on_c, 2, 68, 93
4, 7488, Note_off_c, 2, 68, 0
4, 7560, Note_on_c, 2, 66, 93
4, 7584, Note_off_c, 2, 66, 0
4, 7656, Note_on_c, 2, 66, 93
4, 7680, Note_off_c, 2, 66, 0
4, 7752, Note_on_c, 2, 66, 93
4, 7776, Note_off_c, 2, 66, 0
4, 7848, Note_on_c, 2, 66, 93
4, 7872, Note_off_c, 2, 66, 0
4, 7944, Note_on_c, 2, 66, 93
4, 7968, Note_off_c, 2, 66, 0
4, 8040, Note_on_c, 2, 66, 93
4, 8064, Note_off_c, 2, 66, 0
4, 19080, Note_on_c, 2, 69, 93
4, 19104, Note_off_c, 2, 69, 0
4, 19176, Note_on_c, 2, 69, 93
4, 19200, Note_off_c, 2, 69, 0
4, 19272, Note_on_c, 2, 69, 93
4, 19296, Note_off_c, 2, 69, 0
4, 19368, Note_on_c, 2, 68, 93
4, 19392, Note_off_c, 2, 68, 0
4, 19464, Note_on_c, 2, 68, 93
4, 19488, Note_off_c, 2, 68, 0
4, 19560, Note_on_c, 2, 68, 93
4, 19584, Note_off_c, 2, 68, 0
4, 19656, Note_on_c, 2, 67, 93
4, 19680, Note_off_c, 2, 67, 0
4, 19752, Note_on_c, 2, 67, 93
4, 19776, Note_off_c, 2, 67, 0
4, 19848, Note_on_c, 2, 67, 93
4, 19872, Note_off_c, 2, 67, 0
4, 19944, Note_on_c, 2, 66, 93
4, 19968, Note_off_c, 2, 66, 0
4, 20040, Note_on_c, 2, 66, 93
4, 20064, Note_off_c, 2, 66, 0
4, 20136, Note_on_c, 2, 66, 93
4, 20160, Note_off_c, 2, 66, 0
4, 20232, Note_on_c, 2, 64, 93
4, 20256, Note_off_c, 2, 64, 0
4, 20328, Note_on_c, 2, 64, 93
4, 20352, Note_off_c, 2, 64, 0
4, 20424, Note_on_c, 2, 64, 93
4, 20448, Note_off_c, 2, 64, 0
4, 20520, Note_on_c, 2, 64, 93
4, 20544, Note_off_c, 2, 64, 0
4, 20616, Note_on_c, 2, 64, 93
4, 20640, Note_off_c, 2, 64, 0
4, 20712, Note_on_c, 2, 64, 93
4, 20736, Note_off_c, 2, 64, 0
4, 20808, Note_on_c, 2, 62, 93
4, 20832, Note_off_c, 2, 62, 0
4, 20904, Note_on_c, 2, 62, 93
4, 20928, Note_off_c, 2, 62, 0
4, 21000, Note_on_c, 2, 62, 93
4, 21024, Note_off_c, 2, 62, 0
4, 21096, Note_on_c, 2, 62, 93
4, 21120, Note_off_c, 2, 62, 0
4, 21192, Note_on_c, 2, 62, 93
4, 21216, Note_off_c, 2, 62, 0
4, 21288, Note_on_c, 2, 62, 93
4, 21312, Note_off_c, 2, 62, 0
4, 21384, Note_on_c, 2, 61, 93
4, 21408, Note_off_c, 2, 61, 0
4, 21480, Note_on_c, 2, 61, 93
4, 21504, Note_off_c, 2, 61, 0
4, 21576, Note_on_c, 2, 61, 93
4, 21600, Note_off_c, 2, 61, 0
4, 21672, Note_on_c, 2, 61, 93
4, 21696, Note_off_c, 2, 61, 0
4, 21768, Note_on_c, 2, 61, 93
4, 21792, Note_off_c, 2, 61, 0
4, 21864, Note_on_c, 2, 61, 93
4, 21888, Note_off_c, 2, 61, 0
4, 21960, Note_on_c, 2, 59, 93
4, 21984, Note_off_c, 2, 59, 0
4, 22056, Note_on_c, 2, 59, 93
4, 22080, Note_off_c, 2, 59, 0
4, 22152, Note_on_c, 2, 59, 93
4, 22176, Note_off_c, 2, 59, 0
4, 22248, Note_on_c, 2, 59, 93
4, 22272, Note_off_c, 2, 59, 0
4, 22344, Note_on_c, 2, 59, 93
4, 22368, Note_off_c, 2, 59, 0
4, 22440, Note_on_c, 2, 59, 93
4, 22464, Note_off_c, 2, 59, 0
4, 38304, Note_on_c, 2, 66, 93
4, 38448, Note_off_c, 2, 66, 0
4, 38496, Note_on_c, 2, 64, 93
4, 38592, Note_off_c, 2, 64, 0
4, 38592, Note_on_c, 2, 57, 93
4, 38616, Note_off_c, 2, 57, 0
4, 38616, Note_on_c, 2, 81, 93
4, 38640, Note_off_c, 2, 81, 0
4, 38640, Note_on_c, 2, 80, 93
4, 38664, Note_off_c, 2, 80, 0
4, 38664, Note_on_c, 2, 81, 93
4, 38676, Note_off_c, 2, 81, 0
4, 38676, Note_on_c, 2, 78, 93
4, 38688, Note_off_c, 2, 78, 0
4, 38688, Note_on_c, 2, 78, 93
4, 38832, Note_off_c, 2, 78, 0
4, 38832, Note_on_c, 2, 76, 93
4, 38880, Note_off_c, 2, 76, 0
4, 38880, Note_on_c, 2, 76, 93
4, 38904, Note_off_c, 2, 76, 0
4, 39192, Note_on_c, 2, 76, 93
4, 39216, Note_off_c, 2, 76, 0
4, 39216, Note_on_c, 2, 75, 93
4, 39240, Note_off_c, 2, 75, 0
4, 39240, Note_on_c, 2, 73, 93
4, 39264, Note_off_c, 2, 73, 0
4, 39264, Note_on_c, 2, 71, 93
4, 39288, Note_off_c, 2, 71, 0
4, 39312, Note_on_c, 2, 69, 93
4, 39336, Note_off_c, 2, 69, 0
4, 39360, Note_on_c, 2, 68, 93
4, 39384, Note_off_c, 2, 68, 0
4, 39408, Note_on_c, 2, 66, 93
4, 39432, Note_off_c, 2, 66, 0
4, 39456, Note_on_c, 2, 64, 93
4, 39480, Note_off_c, 2, 64, 0
4, 39480, Note_on_c, 2, 68, 93
4, 39504, Note_off_c, 2, 68, 0
4, 39504, Note_on_c, 2, 71, 93
4, 39528, Note_off_c, 2, 71, 0
4, 39528, Note_on_c, 2, 75, 93
4, 39552, Note_off_c, 2, 75, 0
4, 39552, Note_on_c, 2, 76, 93
4, 39576, Note_off_c, 2, 76, 0
4, 39576, Note_on_c, 2, 80, 93
4, 39600, Note_off_c, 2, 80, 0
4, 39600, Note_on_c, 2, 83, 93
4, 39624, Note_off_c, 2, 83, 0
4, 39624, Note_on_c, 2, 87, 93
4, 39648, Note_off_c, 2, 87, 0
4, 39648, Note_on_c, 2, 88, 93
4, 39696, Note_off_c, 2, 88, 0
4, 39696, End_track
5, 0, Start_track
5, 0, Title_t, "Track5"
5, 0, Program_c, 3, 40
5, 0, Control_c, 3, 7, 100
5, 0, Control_c, 3, 10, 44
5, 38304, Note_on_c, 3, 59, 93
5, 38448, Note_off_c, 3, 59, 0
5, 38448, End_track
0, 0, End_of_file
