0, 0, Header, 1, 3, 96
1, 0, Start_track
1, 0, Time_signature, 4, 2, 24, 8
1, 0, Title_t, "untitled"
1, 0, Title_t, "Track1"
1, 0, Tempo, 240000
1, 288, Tempo, 300000
1, 27840, Tempo, 600000
1, 27840, End_track
2, 0, Start_track
2, 0, Title_t, "Track2"
2, 0, Program_c, 0, 40
2, 0, Control_c, 0, 7, 100
2, 0, Control_c, 0, 10, 69
2, 288, Note_on_c, 0, 71, 93
2, 384, Note_off_c, 0, 71, 0
2, 384, Note_on_c, 0, 73, 93
2, 480, Note_off_c, 0, 73, 0
2, 2688, Note_on_c, 0, 78, 67
2, 2736, Note_off_c, 0, 78, 0
2, 2736, Note_on_c, 0, 75, 67
2, 2784, Note_off_c, 0, 75, 0
2, 2784, Note_on_c, 0, 71, 67
2, 2832, Note_off_c, 0, 71, 0
2, 2832, Note_on_c, 0, 73, 67
2, 2880, Note_off_c, 0, 73, 0
2, 2880, Note_on_c, 0, 75, 67
2, 2928, Note_off_c, 0, 75, 0
2, 2928, Note_on_c, 0, 76, 67
2, 2976, Note_off_c, 0, 76, 0
2, 2976, Note_on_c, 0, 78, 67
2, 3024, Note_off_c, 0, 78, 0
2, 3024, Note_on_c, 0, 81, 67
2, 3072, Note_off_c, 0, 81, 0
2, 3072, Note_on_c, 0, 80, 67
2, 3120, Note_off_c, 0, 80, 0
2, 3120, Note_on_c, 0, 76, 67
2, 3168, Note_off_c, 0, 76, 0
2, 3168, Note_on_c, 0, 71, 67
2, 3216, Note_off_c, 0, 71, 0
2, 3216, Note_on_c, 0, 75, 67
2, 3264, Note_off_c, 0, 75, 0
2, 3264, Note_on_c, 0, 76, 67
2, 3312, Note_off_c, 0, 76, 0
2, 3312, Note_on_c, 0, 78, 67
2, 3360, Note_off_c, 0, 78, 0
2, 3360, Note_on_c, 0, 80, 67
2, 3408, Note_off_c, 0, 80, 0
2, 3408, Note_on_c, 0, 83, 67
2, 3456, Note_off_c, 0, 83, 0
2, 4224, Note_on_c, 0, 76, 67
2, 4272, Note_off_c, 0, 76, 0
2, 4272, Note_on_c, 0, 75, 67
2, 4320, Note_off_c, 0, 75, 0
2, 4320, Note_on_c, 0, 73, 67
2, 4368, Note_off_c, 0, 73, 0
2, 4368, Note_on_c, 0, 75, 67
2, 4416, Note_off_c, 0, 75, 0
2, 4416, Note_on_c, 0, 76, 67
2, 4464, Note_off_c, 0, 76, 0
2, 4464, Note_on_c, 0, 75, 67
2, 4512, Note_off_c, 0, 75, 0
2, 4512, Note_on_c, 0, 73, 67
2, 4560, Note_off_c, 0, 73, 0
2, 4560, Note_on_c, 0, 71, 67
2, 4608, Note_off_c, 0, 71, 0
2, 4608, Note_on_c, 0, 70, 67
2, 4656, Note_off_c, 0, 70, 0
2, 4656, Note_on_c, 0, 68, 67
2, 4704, Note_off_c, 0, 68, 0
2, 4704, Note_on_c, 0, 66, 67
2, 4752, Note_off_c, 0, 66, 0
2, 4752, Note_on_c, 0, 68, 67
2, 4800, Note_off_c, 0, 68, 0
2, 4800, Note_on_c, 0, 70, 67
2, 4848, Note_off_c, 0, 70, 0
2, 4848, Note_on_c, 0, 71, 67
2, 4896, Note_off_c, 0, 71, 0
2, 4896, Note_on_c, 0, 73, 67
2, 4944, Note_off_c, 0, 73, 0
2, 6432, Note_on_c, 0, 71, 93
2, 6528, Note_off_c, 0, 71, 0
2, 6528, Note_on_c, 0, 73, 93
2, 6624, Note_off_c, 0, 73, 0
2, 8832, Note_on_c, 0, 78, 67
2, 8880, Note_off_c, 0, 78, 0
2, 8880, Note_on_c, 0, 75, 67
2, 8928, Note_off_c, 0, 75, 0
2, 8928, Note_on_c, 0, 71, 67
2, 8976, Note_off_c, 0, 71, 0
2, 8976, Note_on_c, 0, 73, 67
2, 9024, Note_off_c, 0, 73, 0
2, 9024, Note_on_c, 0, 75, 67
2, 9072, Note_off_c, 0, 75, 0
2, 9072, Note_on_c, 0, 76, 67
2, 9120, Note_off_c, 0, 76, 0
2, 9120, Note_on_c, 0, 78, 67
2, 9168, Note_off_c, 0, 78, 0
2, 9168, Note_on_c, 0, 81, 67
2, 9216, Note_off_c, 0, 81, 0
2, 9216, Note_on_c, 0, 80, 67
2, 9264, Note_off_c, 0, 80, 0
2, 9264, Note_on_c, 0, 76, 67
2, 9312, Note_off_c, 0, 76, 0
2, 9312, Note_on_c, 0, 71, 67
2, 9360, Note_off_c, 0, 71, 0
2, 9360, Note_on_c, 0, 75, 67
2, 9408, Note_off_c, 0, 75, 0
2, 9408, Note_on_c, 0, 76, 67
2, 9456, Note_off_c, 0, 76, 0
2, 9456, Note_on_c, 0, 78, 67
2, 9504, Note_off_c, 0, 78, 0
2, 9504, Note_on_c, 0, 80, 67
2, 9552, Note_off_c, 0, 80, 0
2, 9552, Note_on_c, 0, 83, 67
2, 9600, Note_off_c, 0, 83, 0
2, 10368, Note_on_c, 0, 76, 67
2, 10416, Note_off_c, 0, 76, 0
2, 10416, Note_on_c, 0, 75, 67
2, 10464, Note_off_c, 0, 75, 0
2, 10464, Note_on_c, 0, 73, 67
2, 10512, Note_off_c, 0, 73, 0
2, 10512, Note_on_c, 0, 75, 67
2, 10560, Note_off_c, 0, 75, 0
2, 10560, Note_on_c, 0, 76, 67
2, 10608, Note_off_c, 0, 76, 0
2, 10608, Note_on_c, 0, 75, 67
2, 10656, Note_off_c, 0, 75, 0
2, 10656, Note_on_c, 0, 73, 67
2, 10704, Note_off_c, 0, 73, 0
2, 10704, Note_on_c, 0, 71, 67
2, 10752, Note_off_c, 0, 71, 0
2, 10752, Note_on_c, 0, 70, 67
2, 10800, Note_off_c, 0, 70, 0
2, 10800, Note_on_c, 0, 68, 67
2, 10848, Note_off_c, 0, 68, 0
2, 10848, Note_on_c, 0, 66, 67
2, 10896, Note_off_c, 0, 66, 0
2, 10896, Note_on_c, 0, 68, 67
2, 10944, Note_off_c, 0, 68, 0
2, 10944, Note_on_c, 0, 70, 67
2, 10992, Note_off_c, 0, 70, 0
2, 10992, Note_on_c, 0, 71, 67
2, 11040, Note_off_c, 0, 71, 0
2, 11040, Note_on_c, 0, 73, 67
2, 11088, Note_off_c, 0, 73, 0
2, 12576, Note_on_c, 0, 78, 93
2, 12672, Note_off_c, 0, 78, 0
2, 12672, Note_on_c, 0, 80, 93
2, 12768, Note_off_c, 0, 80, 0
2, 18720, Note_on_c, 0, 71, 93
2, 18816, Note_off_c, 0, 71, 0
2, 18816, Note_on_c, 0, 73, 93
2, 18912, Note_off_c, 0, 73, 0
2, 19776, Note_on_c, 0, 81, 93
2, 19824, Note_off_c, 0, 81, 0
2, 19824, Note_on_c, 0, 80, 93
2, 19872, Note_off_c, 0, 80, 0
2, 19872, Note_on_c, 0, 78, 93
2, 19920, Note_off_c, 0, 78, 0
2, 19920, Note_on_c, 0, 80, 93
2, 19968, Note_off_c, 0, 80, 0
2, 19968, Note_on_c, 0, 76, 93
2, 20016, Note_off_c, 0, 76, 0
2, 20016, Note_on_c, 0, 71, 93
2, 20064, Note_off_c, 0, 71, 0
2, 20064, Note_on_c, 0, 68, 93
2, 20112, Note_off_c, 0, 68, 0
2, 20112, Note_on_c, 0, 71, 93
2, 20160, Note_off_c, 0, 71, 0
2, 20160, Note_on_c, 0, 64, 93
2, 20256, Note_off_c, 0, 64, 0
2, 20256, Note_on_c, 0, 78, 93
2, 20352, Note_off_c, 0, 78, 0
2, 20352, Note_on_c, 0, 80, 93
2, 20448, Note_off_c, 0, 80, 0
2, 26400, Note_on_c, 0, 71, 93
2, 26496, Note_off_c, 0, 71, 0
2, 26496, Note_on_c, 0, 73, 93
2, 26592, Note_off_c, 0, 73, 0
2, 27456, Note_on_c, 0, 81, 93
2, 27504, Note_off_c, 0, 81, 0
2, 27504, Note_on_c, 0, 80, 93
2, 27552, Note_off_c, 0, 80, 0
2, 27552, Note_on_c, 0, 78, 93
2, 27600, Note_off_c, 0, 78, 0
2, 27600, Note_on_c, 0, 80, 93
2, 27648, Note_off_c, 0, 80, 0
2, 27648, Note_on_c, 0, 76, 93
2, 27696, Note_off_c, 0, 76, 0
2, 27696, Note_on_c, 0, 71, 93
2, 27744, Note_off_c, 0, 71, 0
2, 27744, Note_on_c, 0, 68, 93
2, 27792, Note_off_c, 0, 68, 0
2, 27792, Note_on_c, 0, 71, 93
2, 27840, Note_off_c, 0, 71, 0
2, 27840, Note_on_c, 0, 64, 93
2, 27936, Note_off_c, 0, 64, 0
2, 27936, End_track
3, 0, Start_track
3, 0, Title_t, "Track3"
3, 0, Program_c, 1, 40
3, 0, Control_c, 1, 7, 100
3, 0, Control_c, 1, 10, 59
3, 288, Note_on_c, 1, 64, 93
3, 384, Note_off_c, 1, 64, 0
3, 384, Note_on_c, 1, 69, 93
3, 480, Note_off_c, 1, 69, 0
3, 480, Note_on_c, 1, 69, 93
3, 528, Note_off_c, 1, 69, 0
3, 528, Note_on_c, 1, 71, 93
3, 576, Note_off_c, 1, 71, 0
3, 576, Note_on_c, 1, 73, 93
3, 624, Note_off_c, 1, 73, 0
3, 624, Note_on_c, 1, 75, 93
3, 672, Note_off_c, 1, 75, 0
3, 672, Note_on_c, 1, 76, 93
3, 768, Note_off_c, 1, 76, 0
3, 768, Note_on_c, 1, 68, 93
3, 816, Note_off_c, 1, 68, 0
3, 816, Note_on_c, 1, 71, 93
3, 864, Note_off_c, 1, 71, 0
3, 864, Note_on_c, 1, 76, 93
3, 960, Note_off_c, 1, 76, 0
3, 960, Note_on_c, 1, 76, 93
3, 1008, Note_off_c, 1, 76, 0
3, 1008, Note_on_c, 1, 75, 93
3, 1056, Note_off_c, 1, 75, 0
3, 1056, Note_on_c, 1, 76, 93
3, 1152, Note_off_c, 1, 76, 0
3, 1152, Note_on_c, 1, 66, 93
3, 1200, Note_off_c, 1, 66, 0
3, 1200, Note_on_c, 1, 68, 93
3, 1248, Note_off_c, 1, 68, 0
3, 1248, Note_on_c, 1, 69, 93
3, 1296, Note_off_c, 1, 69, 0
3, 1296, Note_on_c, 1, 71, 93
3, 1344, Note_off_c, 1, 71, 0
3, 1344, Note_on_c, 1, 73, 93
3, 1392, Note_off_c, 1, 73, 0
3, 1392, Note_on_c, 1, 69, 93
3, 1440, Note_off_c, 1, 69, 0
3, 1440, Note_on_c, 1, 71, 93
3, 1536, Note_off_c, 1, 71, 0
3, 1536, Note_on_c, 1, 69, 93
3, 1584, Note_off_c, 1, 69, 0
3, 1584, Note_on_c, 1, 68, 93
3, 1632, Note_off_c, 1, 68, 0
3, 1632, Note_on_c, 1, 66, 93
3, 1680, Note_off_c, 1, 66, 0
3, 1680, Note_on_c, 1, 68, 93
3, 1728, Note_off_c, 1, 68, 0
3, 1728, Note_on_c, 1, 64, 93
3, 1824, Note_off_c, 1, 64, 0
3, 1824, Note_on_c, 1, 80, 93
3, 1872, Note_off_c, 1, 80, 0
3, 1872, Note_on_c, 1, 76, 93
3, 1920, Note_off_c, 1, 76, 0
3, 1920, Note_on_c, 1, 78, 93
3, 1968, Note_off_c, 1, 78, 0
3, 1968, Note_on_c, 1, 75, 93
3, 2016, Note_off_c, 1, 75, 0
3, 2016, Note_on_c, 1, 71, 93
3, 2064, Note_off_c, 1, 71, 0
3, 2064, Note_on_c, 1, 73, 93
3, 2112, Note_off_c, 1, 73, 0
3, 2112, Note_on_c, 1, 75, 93
3, 2160, Note_off_c, 1, 75, 0
3, 2160, Note_on_c, 1, 76, 93
3, 2208, Note_off_c, 1, 76, 0
3, 2208, Note_on_c, 1, 78, 93
3, 2256, Note_off_c, 1, 78, 0
3, 2256, Note_on_c, 1, 81, 93
3, 2304, Note_off_c, 1, 81, 0
3, 2304, Note_on_c, 1, 80, 93
3, 2352, Note_off_c, 1, 80, 0
3, 2352, Note_on_c, 1, 76, 93
3, 2400, Note_off_c, 1, 76, 0
3, 2400, Note_on_c, 1, 71, 93
3, 2448, Note_off_c, 1, 71, 0
3, 2448, Note_on_c, 1, 75, 93
3, 2496, Note_off_c, 1, 75, 0
3, 2496, Note_on_c, 1, 76, 93
3, 2544, Note_off_c, 1, 76, 0
3, 2544, Note_on_c, 1, 78, 93
3, 2592, Note_off_c, 1, 78, 0
3, 2592, Note_on_c, 1, 80, 93
3, 2640, Note_off_c, 1, 80, 0
3, 2640, Note_on_c, 1, 83, 93
3, 2688, Note_off_c, 1, 83, 0
3, 3456, Note_on_c, 1, 76, 93
3, 3504, Note_off_c, 1, 76, 0
3, 3504, Note_on_c, 1, 75, 93
3, 3552, Note_off_c, 1, 75, 0
3, 3552, Note_on_c, 1, 73, 93
3, 3600, Note_off_c, 1, 73, 0
3, 3600, Note_on_c, 1, 75, 93
3, 3648, Note_off_c, 1, 75, 0
3, 3648, Note_on_c, 1, 76, 93
3, 3696, Note_off_c, 1, 76, 0
3, 3696, Note_on_c, 1, 75, 93
3, 3744, Note_off_c, 1, 75, 0
3, 3744, Note_on_c, 1, 73, 93
3, 3792, Note_off_c, 1, 73, 0
3, 3792, Note_on_c, 1, 71, 93
3, 3840, Note_off_c, 1, 71, 0
3, 3840, Note_on_c, 1, 70, 93
3, 3888, Note_off_c, 1, 70, 0
3, 3888, Note_on_c, 1, 68, 93
3, 3936, Note_off_c, 1, 68, 0
3, 3936, Note_on_c, 1, 66, 93
3, 3984, Note_off_c, 1, 66, 0
3, 3984, Note_on_c, 1, 68, 93
3, 4032, Note_off_c, 1, 68, 0
3, 4032, Note_on_c, 1, 70, 93
3, 4080, Note_off_c, 1, 70, 0
3, 4080, Note_on_c, 1, 71, 93
3, 4128, Note_off_c, 1, 71, 0
3, 4128, Note_on_c, 1, 73, 93
3, 4176, Note_off_c, 1, 73, 0
3, 4176, Note_on_c, 1, 75, 93
3, 4224, Note_off_c, 1, 75, 0
3, 4944, Note_on_c, 1, 76, 93
3, 4992, Note_off_c, 1, 76, 0
3, 4992, Note_on_c, 1, 75, 93
3, 5040, Note_off_c, 1, 75, 0
3, 5040, Note_on_c, 1, 73, 93
3, 5088, Note_off_c, 1, 73, 0
3, 5088, Note_on_c, 1, 71, 93
3, 5136, Note_off_c, 1, 71, 0
3, 5136, Note_on_c, 1, 73, 93
3, 5184, Note_off_c, 1, 73, 0
3, 5184, Note_on_c, 1, 75, 93
3, 5232, Note_off_c, 1, 75, 0
3, 5232, Note_on_c, 1, 76, 93
3, 5280, Note_off_c, 1, 76, 0
3, 5280, Note_on_c, 1, 78, 93
3, 5328, Note_off_c, 1, 78, 0
3, 5328, Note_on_c, 1, 69, 93
3, 5376, Note_off_c, 1, 69, 0
3, 5376, Note_on_c, 1, 68, 93
3, 5424, Note_off_c, 1, 68, 0
3, 5424, Note_on_c, 1, 71, 93
3, 5472, Note_off_c, 1, 71, 0
3, 5472, Note_on_c, 1, 76, 93
3, 5520, Note_off_c, 1, 76, 0
3, 5520, Note_on_c, 1, 75, 93
3, 5568, Note_off_c, 1, 75, 0
3, 5568, Note_on_c, 1, 76, 93
3, 5616, Note_off_c, 1, 76, 0
3, 5616, Note_on_c, 1, 82, 93
3, 5664, Note_off_c, 1, 82, 0
3, 5664, Note_on_c, 1, 83, 93
3, 5712, Note_off_c, 1, 83, 0
3, 5712, Note_on_c, 1, 73, 93
3, 5760, Note_off_c, 1, 73, 0
3, 5760, Note_on_c, 1, 64, 93
3, 5808, Note_off_c, 1, 64, 0
3, 5808, Note_on_c, 1, 75, 93
3, 5856, Note_off_c, 1, 75, 0
3, 5856, Note_on_c, 1, 73, 93
3, 5904, Note_off_c, 1, 73, 0
3, 5904, Note_on_c, 1, 71, 93
3, 5952, Note_off_c, 1, 71, 0
3, 5952, Note_on_c, 1, 66, 93
3, 6000, Note_off_c, 1, 66, 0
3, 6000, Note_on_c, 1, 73, 93
3, 6048, Note_off_c, 1, 73, 0
3, 6048, Note_on_c, 1, 71, 93
3, 6096, Note_off_c, 1, 71, 0
3, 6096, Note_on_c, 1, 70, 93
3, 6144, Note_off_c, 1, 70, 0
3, 6144, Note_on_c, 1, 71, 93
3, 6192, Note_off_c, 1, 71, 0
3, 6192, Note_on_c, 1, 66, 93
3, 6240, Note_off_c, 1, 66, 0
3, 6240, Note_on_c, 1, 63, 93
3, 6288, Note_off_c, 1, 63, 0
3, 6288, Note_on_c, 1, 66, 93
3, 6336, Note_off_c, 1, 66, 0
3, 6336, Note_on_c, 1, 59, 93
3, 6432, Note_off_c, 1, 59, 0
3, 6432, Note_on_c, 1, 64, 93
3, 6528, Note_off_c, 1, 64, 0
3, 6528, Note_on_c, 1, 69, 93
3, 6624, Note_off_c, 1, 69, 0
3, 6624, Note_on_c, 1, 69, 93
3, 6672, Note_off_c, 1, 69, 0
3, 6672, Note_on_c, 1, 71, 93
3, 6720, Note_off_c, 1, 71, 0
3, 6720, Note_on_c, 1, 73, 93
3, 6768, Note_off_c, 1, 73, 0
3, 6768, Note_on_c, 1, 75, 93
3, 6816, Note_off_c, 1, 75, 0
3, 6816, Note_on_c, 1, 76, 93
3, 6912, Note_off_c, 1, 76, 0
3, 6912, Note_on_c, 1, 68, 93
3, 6960, Note_off_c, 1, 68, 0
3, 6960, Note_on_c, 1, 71, 93
3, 7008, Note_off_c, 1, 71, 0
3, 7008, Note_on_c, 1, 76, 93
3, 7104, Note_off_c, 1, 76, 0
3, 7104, Note_on_c, 1, 76, 93
3, 7152, Note_off_c, 1, 76, 0
3, 7152, Note_on_c, 1, 75, 93
3, 7200, Note_off_c, 1, 75, 0
3, 7200, Note_on_c, 1, 76, 93
3, 7296, Note_off_c, 1, 76, 0
3, 7296, Note_on_c, 1, 66, 93
3, 7344, Note_off_c, 1, 66, 0
3, 7344, Note_on_c, 1, 68, 93
3, 7392, Note_off_c, 1, 68, 0
3, 7392, Note_on_c, 1, 69, 93
3, 7440, Note_off_c, 1, 69, 0
3, 7440, Note_on_c, 1, 71, 93
3, 7488, Note_off_c, 1, 71, 0
3, 7488, Note_on_c, 1, 73, 93
3, 7536, Note_off_c, 1, 73, 0
3, 7536, Note_on_c, 1, 69, 93
3, 7584, Note_off_c, 1, 69, 0
3, 7584, Note_on_c, 1, 71, 93
3, 7680, Note_off_c, 1, 71, 0
3, 7680, Note_on_c, 1, 69, 93
3, 7728, Note_off_c, 1, 69, 0
3, 7728, Note_on_c, 1, 68, 93
3, 7776, Note_off_c, 1, 68, 0
3, 7776, Note_on_c, 1, 66, 93
3, 7824, Note_off_c, 1, 66, 0
3, 7824, Note_on_c, 1, 68, 93
3, 7872, Note_off_c, 1, 68, 0
3, 7872, Note_on_c, 1, 64, 93
3, 7968, Note_off_c, 1, 64, 0
3, 7968, Note_on_c, 1, 80, 93
3, 8016, Note_off_c, 1, 80, 0
3, 8016, Note_on_c, 1, 76, 93
3, 8064, Note_off_c, 1, 76, 0
3, 8064, Note_on_c, 1, 78, 93
3, 8112, Note_off_c, 1, 78, 0
3, 8112, Note_on_c, 1, 75, 93
3, 8160, Note_off_c, 1, 75, 0
3, 8160, Note_on_c, 1, 71, 93
3, 8208, Note_off_c, 1, 71, 0
3, 8208, Note_on_c, 1, 73, 93
3, 8256, Note_off_c, 1, 73, 0
3, 8256, Note_on_c, 1, 75, 93
3, 8304, Note_off_c, 1, 75, 0
3, 8304, Note_on_c, 1, 76, 93
3, 8352, Note_off_c, 1, 76, 0
3, 8352, Note_on_c, 1, 78, 93
3, 8400, Note_off_c, 1, 78, 0
3, 8400, Note_on_c, 1, 81, 93
3, 8448, Note_off_c, 1, 81, 0
3, 8448, Note_on_c, 1, 80, 93
3, 8496, Note_off_c, 1, 80, 0
3, 8496, Note_on_c, 1, 76, 93
3, 8544, Note_off_c, 1, 76, 0
3, 8544, Note_on_c, 1, 71, 93
3, 8592, Note_off_c, 1, 71, 0
3, 8592, Note_on_c, 1, 75, 93
3, 8640, Note_off_c, 1, 75, 0
3, 8640, Note_on_c, 1, 76, 93
3, 8688, Note_off_c, 1, 76, 0
3, 8688, Note_on_c, 1, 78, 93
3, 8736, Note_off_c, 1, 78, 0
3, 8736, Note_on_c, 1, 80, 93
3, 8784, Note_off_c, 1, 80, 0
3, 8784, Note_on_c, 1, 83, 93
3, 8832, Note_off_c, 1, 83, 0
3, 9600, Note_on_c, 1, 76, 93
3, 9648, Note_off_c, 1, 76, 0
3, 9648, Note_on_c, 1, 75, 93
3, 9696, Note_off_c, 1, 75, 0
3, 9696, Note_on_c, 1, 73, 93
3, 9744, Note_off_c, 1, 73, 0
3, 9744, Note_on_c, 1, 75, 93
3, 9792, Note_off_c, 1, 75, 0
3, 9792, Note_on_c, 1, 76, 93
3, 9840, Note_off_c, 1, 76, 0
3, 9840, Note_on_c, 1, 75, 93
3, 9888, Note_off_c, 1, 75, 0
3, 9888, Note_on_c, 1, 73, 93
3, 9936, Note_off_c, 1, 73, 0
3, 9936, Note_on_c, 1, 71, 93
3, 9984, Note_off_c, 1, 71, 0
3, 9984, Note_on_c, 1, 70, 93
3, 10032, Note_off_c, 1, 70, 0
3, 10032, Note_on_c, 1, 68, 93
3, 10080, Note_off_c, 1, 68, 0
3, 10080, Note_on_c, 1, 66, 93
3, 10128, Note_off_c, 1, 66, 0
3, 10128, Note_on_c, 1, 68, 93
3, 10176, Note_off_c, 1, 68, 0
3, 10176, Note_on_c, 1, 70, 93
3, 10224, Note_off_c, 1, 70, 0
3, 10224, Note_on_c, 1, 71, 93
3, 10272, Note_off_c, 1, 71, 0
3, 10272, Note_on_c, 1, 73, 93
3, 10320, Note_off_c, 1, 73, 0
3, 10320, Note_on_c, 1, 75, 93
3, 10368, Note_off_c, 1, 75, 0
3, 11088, Note_on_c, 1, 76, 93
3, 11136, Note_off_c, 1, 76, 0
3, 11136, Note_on_c, 1, 75, 93
3, 11184, Note_off_c, 1, 75, 0
3, 11184, Note_on_c, 1, 73, 93
3, 11232, Note_off_c, 1, 73, 0
3, 11232, Note_on_c, 1, 71, 93
3, 11280, Note_off_c, 1, 71, 0
3, 11280, Note_on_c, 1, 73, 93
3, 11328, Note_off_c, 1, 73, 0
3, 11328, Note_on_c, 1, 75, 93
3, 11376, Note_off_c, 1, 75, 0
3, 11376, Note_on_c, 1, 76, 93
3, 11424, Note_off_c, 1, 76, 0
3, 11424, Note_on_c, 1, 78, 93
3, 11472, Note_off_c, 1, 78, 0
3, 11472, Note_on_c, 1, 69, 93
3, 11520, Note_off_c, 1, 69, 0
3, 11520, Note_on_c, 1, 68, 93
3, 11568, Note_off_c, 1, 68, 0
3, 11568, Note_on_c, 1, 71, 93
3, 11616, Note_off_c, 1, 71, 0
3, 11616, Note_on_c, 1, 76, 93
3, 11664, Note_off_c, 1, 76, 0
3, 11664, Note_on_c, 1, 75, 93
3, 11712, Note_off_c, 1, 75, 0
3, 11712, Note_on_c, 1, 76, 93
3, 11760, Note_off_c, 1, 76, 0
3, 11760, Note_on_c, 1, 82, 93
3, 11808, Note_off_c, 1, 82, 0
3, 11808, Note_on_c, 1, 83, 93
3, 11856, Note_off_c, 1, 83, 0
3, 11856, Note_on_c, 1, 73, 93
3, 11904, Note_off_c, 1, 73, 0
3, 11904, Note_on_c, 1, 64, 93
3, 11952, Note_off_c, 1, 64, 0
3, 11952, Note_on_c, 1, 75, 93
3, 12000, Note_off_c, 1, 75, 0
3, 12000, Note_on_c, 1, 73, 93
3, 12048, Note_off_c, 1, 73, 0
3, 12048, Note_on_c, 1, 71, 93
3, 12096, Note_off_c, 1, 71, 0
3, 12096, Note_on_c, 1, 66, 93
3, 12144, Note_off_c, 1, 66, 0
3, 12144, Note_on_c, 1, 73, 93
3, 12192, Note_off_c, 1, 73, 0
3, 12192, Note_on_c, 1, 71, 93
3, 12240, Note_off_c, 1, 71, 0
3, 12240, Note_on_c, 1, 70, 93
3, 12288, Note_off_c, 1, 70, 0
3, 12288, Note_on_c, 1, 71, 93
3, 12336, Note_off_c, 1, 71, 0
3, 12336, Note_on_c, 1, 66, 93
3, 12384, Note_off_c, 1, 66, 0
3, 12384, Note_on_c, 1, 63, 93
3, 12432, Note_off_c, 1, 63, 0
3, 12432, Note_on_c, 1, 66, 93
3, 12480, Note_off_c, 1, 66, 0
3, 12480, Note_on_c, 1, 59, 93
3, 12576, Note_off_c, 1, 59, 0
3, 12576, Note_on_c, 1, 71, 93
3, 12672, Note_off_c, 1, 71, 0
3, 12672, Note_on_c, 1, 76, 93
3, 12768, Note_off_c, 1, 76, 0
3, 12768, Note_on_c, 1, 76, 93
3, 12816, Note_off_c, 1, 76, 0
3, 12816, Note_on_c, 1, 78, 93
3, 12864, Note_off_c, 1, 78, 0
3, 12864, Note_on_c, 1, 80, 93
3, 12912, Note_off_c, 1, 80, 0
3, 12912, Note_on_c, 1, 82, 93
3, 12960, Note_off_c, 1, 82, 0
3, 12960, Note_on_c, 1, 83, 93
3, 13056, Note_off_c, 1, 83, 0
3, 13056, Note_on_c, 1, 75, 93
3, 13104, Note_off_c, 1, 75, 0
3, 13104, Note_on_c, 1, 78, 93
3, 13152, Note_off_c, 1, 78, 0
3, 13152, Note_on_c, 1, 83, 93
3, 13248, Note_off_c, 1, 83, 0
3, 13248, Note_on_c, 1, 83, 93
3, 13296, Note_off_c, 1, 83, 0
3, 13296, Note_on_c, 1, 82, 93
3, 13344, Note_off_c, 1, 82, 0
3, 13344, Note_on_c, 1, 83, 93
3, 13440, Note_off_c, 1, 83, 0
3, 13440, Note_on_c, 1, 73, 93
3, 13488, Note_off_c, 1, 73, 0
3, 13488, Note_on_c, 1, 76, 93
3, 13536, Note_off_c, 1, 76, 0
3, 13536, Note_on_c, 1, 81, 93
3, 13584, Note_off_c, 1, 81, 0
3, 13584, Note_on_c, 1, 73, 93
3, 13632, Note_off_c, 1, 73, 0
3, 13632, Note_on_c, 1, 72, 93
3, 13680, Note_off_c, 1, 72, 0
3, 13680, Note_on_c, 1, 75, 93
3, 13728, Note_off_c, 1, 75, 0
3, 13728, Note_on_c, 1, 80, 93
3, 13776, Note_off_c, 1, 80, 0
3, 13776, Note_on_c, 1, 78, 93
3, 13824, Note_off_c, 1, 78, 0
3, 13824, Note_on_c, 1, 78, 93
3, 13872, Note_off_c, 1, 78, 0
3, 13872, Note_on_c, 1, 76, 93
3, 13920, Note_off_c, 1, 76, 0
3, 13920, Note_on_c, 1, 75, 93
3, 13968, Note_off_c, 1, 75, 0
3, 13968, Note_on_c, 1, 76, 93
3, 14016, Note_off_c, 1, 76, 0
3, 14016, Note_on_c, 1, 73, 93
3, 14112, Note_off_c, 1, 73, 0
3, 14112, Note_on_c, 1, 76, 93
3, 14160, Note_off_c, 1, 76, 0
3, 14160, Note_on_c, 1, 73, 93
3, 14208, Note_off_c, 1, 73, 0
3, 14208, Note_on_c, 1, 68, 93
3, 14256, Note_off_c, 1, 68, 0
3, 14256, Note_on_c, 1, 69, 93
3, 14304, Note_off_c, 1, 69, 0
3, 14304, Note_on_c, 1, 71, 93
3, 14352, Note_off_c, 1, 71, 0
3, 14352, Note_on_c, 1, 73, 93
3, 14400, Note_off_c, 1, 73, 0
3, 14400, Note_on_c, 1, 74, 93
3, 14448, Note_off_c, 1, 74, 0
3, 14448, Note_on_c, 1, 80, 93
3, 14496, Note_off_c, 1, 80, 0
3, 14496, Note_on_c, 1, 83, 93
3, 14544, Note_off_c, 1, 83, 0
3, 14544, Note_on_c, 1, 74, 93
3, 14592, Note_off_c, 1, 74, 0
3, 14592, Note_on_c, 1, 73, 93
3, 14640, Note_off_c, 1, 73, 0
3, 14640, Note_on_c, 1, 71, 93
3, 14688, Note_off_c, 1, 71, 0
3, 14688, Note_on_c, 1, 69, 93
3, 14736, Note_off_c, 1, 69, 0
3, 14736, Note_on_c, 1, 71, 93
3, 14784, Note_off_c, 1, 71, 0
3, 14784, Note_on_c, 1, 73, 93
3, 14832, Note_off_c, 1, 73, 0
3, 14832, Note_on_c, 1, 76, 93
3, 14880, Note_off_c, 1, 76, 0
3, 14880, Note_on_c, 1, 81, 93
3, 14928, Note_off_c, 1, 81, 0
3, 14928, Note_on_c, 1, 73, 93
3, 14976, Note_off_c, 1, 73, 0
3, 14976, Note_on_c, 1, 68, 67
3, 15024, Note_off_c, 1, 68, 0
3, 15024, Note_on_c, 1, 69, 67
3, 15072, Note_off_c, 1, 69, 0
3, 15072, Note_on_c, 1, 71, 67
3, 15120, Note_off_c, 1, 71, 0
3, 15120, Note_on_c, 1, 73, 67
3, 15168, Note_off_c, 1, 73, 0
3, 15168, Note_on_c, 1, 74, 67
3, 15216, Note_off_c, 1, 74, 0
3, 15216, Note_on_c, 1, 80, 67
3, 15264, Note_off_c, 1, 80, 0
3, 15264, Note_on_c, 1, 83, 67
3, 15312, Note_off_c, 1, 83, 0
3, 15312, Note_on_c, 1, 74, 67
3, 15360, Note_off_c, 1, 74, 0
3, 15360, Note_on_c, 1, 73, 67
3, 15408, Note_off_c, 1, 73, 0
3, 15408, Note_on_c, 1, 71, 67
3, 15456, Note_off_c, 1, 71, 0
3, 15456, Note_on_c, 1, 69, 67
3, 15504, Note_off_c, 1, 69, 0
3, 15504, Note_on_c, 1, 71, 67
3, 15552, Note_off_c, 1, 71, 0
3, 15552, Note_on_c, 1, 73, 67
3, 15600, Note_off_c, 1, 73, 0
3, 15600, Note_on_c, 1, 76, 67
3, 15648, Note_off_c, 1, 76, 0
3, 15648, Note_on_c, 1, 81, 67
3, 15696, Note_off_c, 1, 81, 0
3, 15696, Note_on_c, 1, 73, 67
3, 15744, Note_off_c, 1, 73, 0
3, 15744, Note_on_c, 1, 74, 93
3, 15792, Note_off_c, 1, 74, 0
3, 15792, Note_on_c, 1, 71, 93
3, 15840, Note_off_c, 1, 71, 0
3, 15840, Note_on_c, 1, 68, 93
3, 15888, Note_off_c, 1, 68, 0
3, 15888, Note_on_c, 1, 66, 93
3, 15936, Note_off_c, 1, 66, 0
3, 15936, Note_on_c, 1, 65, 93
3, 15984, Note_off_c, 1, 65, 0
3, 15984, Note_on_c, 1, 68, 93
3, 16032, Note_off_c, 1, 68, 0
3, 16032, Note_on_c, 1, 71, 93
3, 16080, Note_off_c, 1, 71, 0
3, 16080, Note_on_c, 1, 74, 93
3, 16128, Note_off_c, 1, 74, 0
3, 16128, Note_on_c, 1, 73, 93
3, 16176, Note_off_c, 1, 73, 0
3, 16176, Note_on_c, 1, 69, 93
3, 16224, Note_off_c, 1, 69, 0
3, 16224, Note_on_c, 1, 66, 93
3, 16272, Note_off_c, 1, 66, 0
3, 16272, Note_on_c, 1, 64, 93
3, 16320, Note_off_c, 1, 64, 0
3, 16320, Note_on_c, 1, 62, 93
3, 16368, Note_off_c, 1, 62, 0
3, 16368, Note_on_c, 1, 61, 93
3, 16416, Note_off_c, 1, 61, 0
3, 16416, Note_on_c, 1, 62, 93
3, 16464, Note_off_c, 1, 62, 0
3, 16464, Note_on_c, 1, 73, 93
3, 16512, Note_off_c, 1, 73, 0
3, 16512, Note_on_c, 1, 71, 93
3, 16560, Note_off_c, 1, 71, 0
3, 16560, Note_on_c, 1, 81, 93
3, 16608, Note_off_c, 1, 81, 0
3, 16608, Note_on_c, 1, 80, 93
3, 16656, Note_off_c, 1, 80, 0
3, 16656, Note_on_c, 1, 78, 93
3, 16704, Note_off_c, 1, 78, 0
3, 16704, Note_on_c, 1, 73, 93
3, 16752, Note_off_c, 1, 73, 0
3, 16752, Note_on_c, 1, 80, 93
3, 16800, Note_off_c, 1, 80, 0
3, 16800, Note_on_c, 1, 78, 93
3, 16848, Note_off_c, 1, 78, 0
3, 16848, Note_on_c, 1, 77, 93
3, 16896, Note_off_c, 1, 77, 0
3, 16896, Note_on_c, 1, 78, 93
3, 16944, Note_off_c, 1, 78, 0
3, 16944, Note_on_c, 1, 73, 93
3, 16992, Note_off_c, 1, 73, 0
3, 16992, Note_on_c, 1, 69, 93
3, 17040, Note_off_c, 1, 69, 0
3, 17040, Note_on_c, 1, 73, 93
3, 17088, Note_off_c, 1, 73, 0
3, 17088, Note_on_c, 1, 66, 93
3, 17184, Note_off_c, 1, 66, 0
3, 17184, Note_on_c, 1, 81, 93
3, 17232, Note_off_c, 1, 81, 0
3, 17232, Note_on_c, 1, 80, 93
3, 17280, Note_off_c, 1, 80, 0
3, 17280, Note_on_c, 1, 75, 93
3, 17328, Note_off_c, 1, 75, 0
3, 17328, Note_on_c, 1, 78, 93
3, 17376, Note_off_c, 1, 78, 0
3, 17376, Note_on_c, 1, 71, 93
3, 17424, Note_off_c, 1, 71, 0
3, 17424, Note_on_c, 1, 73, 93
3, 17472, Note_off_c, 1, 73, 0
3, 17472, Note_on_c, 1, 75, 93
3, 17520, Note_off_c, 1, 75, 0
3, 17520, Note_on_c, 1, 76, 93
3, 17568, Note_off_c, 1, 76, 0
3, 17568, Note_on_c, 1, 78, 93
3, 17616, Note_off_c, 1, 78, 0
3, 17616, Note_on_c, 1, 81, 93
3, 17664, Note_off_c, 1, 81, 0
3, 17664, Note_on_c, 1, 80, 93
3, 17712, Note_off_c, 1, 80, 0
3, 17712, Note_on_c, 1, 83, 93
3, 17760, Note_off_c, 1, 83, 0
3, 17760, Note_on_c, 1, 76, 93
3, 17808, Note_off_c, 1, 76, 0
3, 17808, Note_on_c, 1, 78, 93
3, 17856, Note_off_c, 1, 78, 0
3, 17856, Note_on_c, 1, 80, 93
3, 17904, Note_off_c, 1, 80, 0
3, 17904, Note_on_c, 1, 81, 93
3, 17952, Note_off_c, 1, 81, 0
3, 17952, Note_on_c, 1, 83, 93
3, 18000, Note_off_c, 1, 83, 0
3, 18000, Note_on_c, 1, 74, 93
3, 18048, Note_off_c, 1, 74, 0
3, 18048, Note_on_c, 1, 73, 93
3, 18096, Note_off_c, 1, 73, 0
3, 18096, Note_on_c, 1, 76, 93
3, 18144, Note_off_c, 1, 76, 0
3, 18144, Note_on_c, 1, 69, 93
3, 18192, Note_off_c, 1, 69, 0
3, 18192, Note_on_c, 1, 73, 93
3, 18240, Note_off_c, 1, 73, 0
3, 18240, Note_on_c, 1, 78, 93
3, 18288, Note_off_c, 1, 78, 0
3, 18288, Note_on_c, 1, 80, 93
3, 18336, Note_off_c, 1, 80, 0
3, 18336, Note_on_c, 1, 81, 93
3, 18384, Note_off_c, 1, 81, 0
3, 18384, Note_on_c, 1, 78, 93
3, 18432, Note_off_c, 1, 78, 0
3, 18432, Note_on_c, 1, 76, 93
3, 18480, Note_off_c, 1, 76, 0
3, 18480, Note_on_c, 1, 75, 93
3, 18528, Note_off_c, 1, 75, 0
3, 18528, Note_on_c, 1, 73, 93
3, 18576, Note_off_c, 1, 73, 0
3, 18576, Note_on_c, 1, 75, 93
3, 18624, Note_off_c, 1, 75, 0
3, 18624, Note_on_c, 1, 71, 93
3, 18720, Note_off_c, 1, 71, 0
3, 18720, Note_on_c, 1, 64, 93
3, 18816, Note_off_c, 1, 64, 0
3, 18816, Note_on_c, 1, 69, 93
3, 18912, Note_off_c, 1, 69, 0
3, 18912, Note_on_c, 1, 69, 93
3, 18960, Note_off_c, 1, 69, 0
3, 18960, Note_on_c, 1, 71, 93
3, 19008, Note_off_c, 1, 71, 0
3, 19008, Note_on_c, 1, 73, 93
3, 19056, Note_off_c, 1, 73, 0
3, 19056, Note_on_c, 1, 75, 93
3, 19104, Note_off_c, 1, 75, 0
3, 19104, Note_on_c, 1, 76, 93
3, 19152, Note_off_c, 1, 76, 0
3, 19152, Note_on_c, 1, 78, 93
3, 19200, Note_off_c, 1, 78, 0
3, 19200, Note_on_c, 1, 75, 93
3, 19248, Note_off_c, 1, 75, 0
3, 19248, Note_on_c, 1, 78, 93
3, 19296, Note_off_c, 1, 78, 0
3, 19296, Note_on_c, 1, 81, 93
3, 19344, Note_off_c, 1, 81, 0
3, 19344, Note_on_c, 1, 78, 93
3, 19392, Note_off_c, 1, 78, 0
3, 19392, Note_on_c, 1, 75, 93
3, 19440, Note_off_c, 1, 75, 0
3, 19440, Note_on_c, 1, 71, 93
3, 19488, Note_off_c, 1, 71, 0
3, 19488, Note_on_c, 1, 73, 93
3, 19536, Note_off_c, 1, 73, 0
3, 19536, Note_on_c, 1, 69, 93
3, 19584, Note_off_c, 1, 69, 0
3, 19584, Note_on_c, 1, 68, 93
3, 19632, Note_off_c, 1, 68, 0
3, 19632, Note_on_c, 1, 76, 93
3, 19680, Note_off_c, 1, 76, 0
3, 19680, Note_on_c, 1, 83, 93
3, 19776, Note_off_c, 1, 83, 0
3, 19776, Note_on_c, 1, 71, 93
3, 19872, Note_off_c, 1, 71, 0
3, 20256, Note_on_c, 1, 71, 93
3, 20352, Note_off_c, 1, 71, 0
3, 20352, Note_on_c, 1, 76, 93
3, 20448, Note_off_c, 1, 76, 0
3, 20448, Note_on_c, 1, 76, 93
3, 20496, Note_off_c, 1, 76, 0
3, 20496, Note_on_c, 1, 78, 93
3, 20544, Note_off_c, 1, 78, 0
3, 20544, Note_on_c, 1, 80, 93
3, 20592, Note_off_c, 1, 80, 0
3, 20592, Note_on_c, 1, 82, 93
3, 20640, Note_off_c, 1, 82, 0
3, 20640, Note_on_c, 1, 83, 93
3, 20736, Note_off_c, 1, 83, 0
3, 20736, Note_on_c, 1, 75, 93
3, 20784, Note_off_c, 1, 75, 0
3, 20784, Note_on_c, 1, 78, 93
3, 20832, Note_off_c, 1, 78, 0
3, 20832, Note_on_c, 1, 83, 93
3, 20928, Note_off_c, 1, 83, 0
3, 20928, Note_on_c, 1, 83, 93
3, 20976, Note_off_c, 1, 83, 0
3, 20976, Note_on_c, 1, 82, 93
3, 21024, Note_off_c, 1, 82, 0
3, 21024, Note_on_c, 1, 83, 93
3, 21120, Note_off_c, 1, 83, 0
3, 21120, Note_on_c, 1, 73, 93
3, 21168, Note_off_c, 1, 73, 0
3, 21168, Note_on_c, 1, 76, 93
3, 21216, Note_off_c, 1, 76, 0
3, 21216, Note_on_c, 1, 81, 93
3, 21264, Note_off_c, 1, 81, 0
3, 21264, Note_on_c, 1, 73, 93
3, 21312, Note_off_c, 1, 73, 0
3, 21312, Note_on_c, 1, 72, 93
3, 21360, Note_off_c, 1, 72, 0
3, 21360, Note_on_c, 1, 75, 93
3, 21408, Note_off_c, 1, 75, 0
3, 21408, Note_on_c, 1, 80, 93
3, 21456, Note_off_c, 1, 80, 0
3, 21456, Note_on_c, 1, 78, 93
3, 21504, Note_off_c, 1, 78, 0
3, 21504, Note_on_c, 1, 78, 93
3, 21552, Note_off_c, 1, 78, 0
3, 21552, Note_on_c, 1, 76, 93
3, 21600, Note_off_c, 1, 76, 0
3, 21600, Note_on_c, 1, 75, 93
3, 21648, Note_off_c, 1, 75, 0
3, 21648, Note_on_c, 1, 76, 93
3, 21696, Note_off_c, 1, 76, 0
3, 21696, Note_on_c, 1, 73, 93
3, 21792, Note_off_c, 1, 73, 0
3, 21792, Note_on_c, 1, 76, 93
3, 21840, Note_off_c, 1, 76, 0
3, 21840, Note_on_c, 1, 73, 93
3, 21888, Note_off_c, 1, 73, 0
3, 21888, Note_on_c, 1, 68, 93
3, 21936, Note_off_c, 1, 68, 0
3, 21936, Note_on_c, 1, 69, 93
3, 21984, Note_off_c, 1, 69, 0
3, 21984, Note_on_c, 1, 71, 93
3, 22032, Note_off_c, 1, 71, 0
3, 22032, Note_on_c, 1, 73, 93
3, 22080, Note_off_c, 1, 73, 0
3, 22080, Note_on_c, 1, 74, 93
3, 22128, Note_off_c, 1, 74, 0
3, 22128, Note_on_c, 1, 80, 93
3, 22176, Note_off_c, 1, 80, 0
3, 22176, Note_on_c, 1, 83, 93
3, 22224, Note_off_c, 1, 83, 0
3, 22224, Note_on_c, 1, 74, 93
3, 22272, Note_off_c, 1, 74, 0
3, 22272, Note_on_c, 1, 73, 93
3, 22320, Note_off_c, 1, 73, 0
3, 22320, Note_on_c, 1, 71, 93
3, 22368, Note_off_c, 1, 71, 0
3, 22368, Note_on_c, 1, 69, 93
3, 22416, Note_off_c, 1, 69, 0
3, 22416, Note_on_c, 1, 71, 93
3, 22464, Note_off_c, 1, 71, 0
3, 22464, Note_on_c, 1, 73, 93
3, 22512, Note_off_c, 1, 73, 0
3, 22512, Note_on_c, 1, 76, 93
3, 22560, Note_off_c, 1, 76, 0
3, 22560, Note_on_c, 1, 81, 93
3, 22608, Note_off_c, 1, 81, 0
3, 22608, Note_on_c, 1, 73, 93
3, 22656, Note_off_c, 1, 73, 0
3, 22656, Note_on_c, 1, 68, 67
3, 22704, Note_off_c, 1, 68, 0
3, 22704, Note_on_c, 1, 69, 67
3, 22752, Note_off_c, 1, 69, 0
3, 22752, Note_on_c, 1, 71, 67
3, 22800, Note_off_c, 1, 71, 0
3, 22800, Note_on_c, 1, 73, 67
3, 22848, Note_off_c, 1, 73, 0
3, 22848, Note_on_c, 1, 74, 67
3, 22896, Note_off_c, 1, 74, 0
3, 22896, Note_on_c, 1, 80, 67
3, 22944, Note_off_c, 1, 80, 0
3, 22944, Note_on_c, 1, 83, 67
3, 22992, Note_off_c, 1, 83, 0
3, 22992, Note_on_c, 1, 74, 67
3, 23040, Note_off_c, 1, 74, 0
3, 23040, Note_on_c, 1, 73, 67
3, 23088, Note_off_c, 1, 73, 0
3, 23088, Note_on_c, 1, 71, 67
3, 23136, Note_off_c, 1, 71, 0
3, 23136, Note_on_c, 1, 69, 67
3, 23184, Note_off_c, 1, 69, 0
3, 23184, Note_on_c, 1, 71, 67
3, 23232, Note_off_c, 1, 71, 0
3, 23232, Note_on_c, 1, 73, 67
3, 23280, Note_off_c, 1, 73, 0
3, 23280, Note_on_c, 1, 76, 67
3, 23328, Note_off_c, 1, 76, 0
3, 23328, Note_on_c, 1, 81, 67
3, 23376, Note_off_c, 1, 81, 0
3, 23376, Note_on_c, 1, 73, 67
3, 23424, Note_off_c, 1, 73, 0
3, 23424, Note_on_c, 1, 74, 93
3, 23472, Note_off_c, 1, 74, 0
3, 23472, Note_on_c, 1, 71, 93
3, 23520, Note_off_c, 1, 71, 0
3, 23520, Note_on_c, 1, 68, 93
3, 23568, Note_off_c, 1, 68, 0
3, 23568, Note_on_c, 1, 66, 93
3, 23616, Note_off_c, 1, 66, 0
3, 23616, Note_on_c, 1, 65, 93
3, 23664, Note_off_c, 1, 65, 0
3, 23664, Note_on_c, 1, 68, 93
3, 23712, Note_off_c, 1, 68, 0
3, 23712, Note_on_c, 1, 71, 93
3, 23760, Note_off_c, 1, 71, 0
3, 23760, Note_on_c, 1, 74, 93
3, 23808, Note_off_c, 1, 74, 0
3, 23808, Note_on_c, 1, 73, 93
3, 23856, Note_off_c, 1, 73, 0
3, 23856, Note_on_c, 1, 69, 93
3, 23904, Note_off_c, 1, 69, 0
3, 23904, Note_on_c, 1, 66, 93
3, 23952, Note_off_c, 1, 66, 0
3, 23952, Note_on_c, 1, 64, 93
3, 24000, Note_off_c, 1, 64, 0
3, 24000, Note_on_c, 1, 62, 93
3, 24048, Note_off_c, 1, 62, 0
3, 24048, Note_on_c, 1, 61, 93
3, 24096, Note_off_c, 1, 61, 0
3, 24096, Note_on_c, 1, 62, 93
3, 24144, Note_off_c, 1, 62, 0
3, 24144, Note_on_c, 1, 73, 93
3, 24192, Note_off_c, 1, 73, 0
3, 24192, Note_on_c, 1, 71, 93
3, 24240, Note_off_c, 1, 71, 0
3, 24240, Note_on_c, 1, 81, 93
3, 24288, Note_off_c, 1, 81, 0
3, 24288, Note_on_c, 1, 80, 93
3, 24336, Note_off_c, 1, 80, 0
3, 24336, Note_on_c, 1, 78, 93
3, 24384, Note_off_c, 1, 78, 0
3, 24384, Note_on_c, 1, 73, 93
3, 24432, Note_off_c, 1, 73, 0
3, 24432, Note_on_c, 1, 80, 93
3, 24480, Note_off_c, 1, 80, 0
3, 24480, Note_on_c, 1, 78, 93
3, 24528, Note_off_c, 1, 78, 0
3, 24528, Note_on_c, 1, 77, 93
3, 24576, Note_off_c, 1, 77, 0
3, 24576, Note_on_c, 1, 78, 93
3, 24624, Note_off_c, 1, 78, 0
3, 24624, Note_on_c, 1, 73, 93
3, 24672, Note_off_c, 1, 73, 0
3, 24672, Note_on_c, 1, 69, 93
3, 24720, Note_off_c, 1, 69, 0
3, 24720, Note_on_c, 1, 73, 93
3, 24768, Note_off_c, 1, 73, 0
3, 24768, Note_on_c, 1, 66, 93
3, 24864, Note_off_c, 1, 66, 0
3, 24864, Note_on_c, 1, 81, 93
3, 24912, Note_off_c, 1, 81, 0
3, 24912, Note_on_c, 1, 80, 93
3, 24960, Note_off_c, 1, 80, 0
3, 24960, Note_on_c, 1, 75, 93
3, 25008, Note_off_c, 1, 75, 0
3, 25008, Note_on_c, 1, 78, 93
3, 25056, Note_off_c, 1, 78, 0
3, 25056, Note_on_c, 1, 71, 93
3, 25104, Note_off_c, 1, 71, 0
3, 25104, Note_on_c, 1, 73, 93
3, 25152, Note_off_c, 1, 73, 0
3, 25152, Note_on_c, 1, 75, 93
3, 25200, Note_off_c, 1, 75, 0
3, 25200, Note_on_c, 1, 76, 93
3, 25248, Note_off_c, 1, 76, 0
3, 25248, Note_on_c, 1, 78, 93
3, 25296, Note_off_c, 1, 78, 0
3, 25296, Note_on_c, 1, 81, 93
3, 25344, Note_off_c, 1, 81, 0
3, 25344, Note_on_c, 1, 80, 93
3, 25392, Note_off_c, 1, 80, 0
3, 25392, Note_on_c, 1, 83, 93
3, 25440, Note_off_c, 1, 83, 0
3, 25440, Note_on_c, 1, 76, 93
3, 25488, Note_off_c, 1, 76, 0
3, 25488, Note_on_c, 1, 78, 93
3, 25536, Note_off_c, 1, 78, 0
3, 25536, Note_on_c, 1, 80, 93
3, 25584, Note_off_c, 1, 80, 0
3, 25584, Note_on_c, 1, 81, 93
3, 25632, Note_off_c, 1, 81, 0
3, 25632, Note_on_c, 1, 83, 93
3, 25680, Note_off_c, 1, 83, 0
3, 25680, Note_on_c, 1, 74, 93
3, 25728, Note_off_c, 1, 74, 0
3, 25728, Note_on_c, 1, 73, 93
3, 25776, Note_off_c, 1, 73, 0
3, 25776, Note_on_c, 1, 76, 93
3, 25824, Note_off_c, 1, 76, 0
3, 25824, Note_on_c, 1, 69, 93
3, 25872, Note_off_c, 1, 69, 0
3, 25872, Note_on_c, 1, 73, 93
3, 25920, Note_off_c, 1, 73, 0
3, 25920, Note_on_c, 1, 78, 93
3, 25968, Note_off_c, 1, 78, 0
3, 25968, Note_on_c, 1, 80, 93
3, 26016, Note_off_c, 1, 80, 0
3, 26016, Note_on_c, 1, 81, 93
3, 26064, Note_off_c, 1, 81, 0
3, 26064, Note_on_c, 1, 78, 93
3, 26112, Note_off_c, 1, 78, 0
3, 26112, Note_on_c, 1, 76, 93
3, 26160, Note_off_c, 1, 76, 0
3, 26160, Note_on_c, 1, 75, 93
3, 26208, Note_off_c, 1, 75, 0
3, 26208, Note_on_c, 1, 73, 93
3, 26256, Note_off_c, 1, 73, 0
3, 26256, Note_on_c, 1, 75, 93
3, 26304, Note_off_c, 1, 75, 0
3, 26304, Note_on_c, 1, 71, 93
3, 26400, Note_off_c, 1, 71, 0
3, 26400, Note_on_c, 1, 64, 93
3, 26496, Note_off_c, 1, 64, 0
3, 26496, Note_on_c, 1, 69, 93
3, 26592, Note_off_c, 1, 69, 0
3, 26592, Note_on_c, 1, 69, 93
3, 26640, Note_off_c, 1, 69, 0
3, 26640, Note_on_c, 1, 71, 93
3, 26688, Note_off_c, 1, 71, 0
3, 26688, Note_on_c, 1, 73, 93
3, 26736, Note_off_c, 1, 73, 0
3, 26736, Note_on_c, 1, 75, 93
3, 26784, Note_off_c, 1, 75, 0
3, 26784, Note_on_c, 1, 76, 93
3, 26832, Note_off_c, 1, 76, 0
3, 26832, Note_on_c, 1, 78, 93
3, 26880, Note_off_c, 1, 78, 0
3, 26880, Note_on_c, 1, 75, 93
3, 26928, Note_off_c, 1, 75, 0
3, 26928, Note_on_c, 1, 78, 93
3, 26976, Note_off_c, 1, 78, 0
3, 26976, Note_on_c, 1, 81, 93
3, 27024, Note_off_c, 1, 81, 0
3, 27024, Note_on_c, 1, 78, 93
3, 27072, Note_off_c, 1, 78, 0
3, 27072, Note_on_c, 1, 75, 93
3, 27120, Note_off_c, 1, 75, 0
3, 27120, Note_on_c, 1, 71, 93
3, 27168, Note_off_c, 1, 71, 0
3, 27168, Note_on_c, 1, 73, 93
3, 27216, Note_off_c, 1, 73, 0
3, 27216, Note_on_c, 1, 69, 93
3, 27264, Note_off_c, 1, 69, 0
3, 27264, Note_on_c, 1, 68, 93
3, 27312, Note_off_c, 1, 68, 0
3, 27312, Note_on_c, 1, 76, 93
3, 27360, Note_off_c, 1, 76, 0
3, 27360, Note_on_c, 1, 83, 93
3, 27456, Note_off_c, 1, 83, 0
3, 27456, Note_on_c, 1, 71, 93
3, 27552, Note_off_c, 1, 71, 0
3, 27552, End_track
0, 0, End_of_file
