0, 0, Header, 1, 5, 96
1, 0, Start_track
1, 0, Time_signature, 4, 2, 24, 8
1, 0, Title_t, "untitled"
1, 0, Title_t, "Track1"
1, 0, Tempo, 550458
1, 0, End_track
2, 0, Start_track
2, 0, Title_t, "Track2"
2, 0, Program_c, 0, 40
2, 0, Control_c, 0, 7, 100
2, 0, Control_c, 0, 10, 69
2, 0, Note_on_c, 0, 80, 93
2, 96, Note_off_c, 0, 80, 0
2, 96, Note_on_c, 0, 80, 93
2, 144, Note_off_c, 0, 80, 0
2, 144, Note_on_c, 0, 78, 93
2, 192, Note_off_c, 0, 78, 0
2, 192, Note_on_c, 0, 80, 93
2, 288, Note_off_c, 0, 80, 0
2, 288, Note_on_c, 0, 76, 93
2, 384, Note_off_c, 0, 76, 0
2, 576, Note_on_c, 0, 71, 93
2, 672, Note_off_c, 0, 71, 0
2, 672, Note_on_c, 0, 73, 93
2, 768, Note_off_c, 0, 73, 0
2, 768, Note_on_c, 0, 75, 93
2, 864, Note_off_c, 0, 75, 0
2, 864, Note_on_c, 0, 76, 93
2, 912, Note_off_c, 0, 76, 0
2, 912, Note_on_c, 0, 75, 93
2, 960, Note_off_c, 0, 75, 0
2, 960, Note_on_c, 0, 76, 93
2, 1008, Note_off_c, 0, 76, 0
2, 1008, Note_on_c, 0, 78, 93
2, 1056, Note_off_c, 0, 78, 0
2, 1056, Note_on_c, 0, 76, 93
2, 1104, Note_off_c, 0, 76, 0
2, 1104, Note_on_c, 0, 78, 93
2, 1152, Note_off_c, 0, 78, 0
2, 1152, Note_on_c, 0, 80, 93
2, 1248, Note_off_c, 0, 80, 0
2, 1248, Note_on_c, 0, 78, 93
2, 1344, Note_off_c, 0, 78, 0
2, 1344, Note_on_c, 0, 78, 93
2, 1392, Note_off_c, 0, 78, 0
2, 1392, Note_on_c, 0, 80, 93
2, 1416, Note_off_c, 0, 80, 0
2, 1416, Note_on_c, 0, 81, 93
2, 1440, Note_off_c, 0, 81, 0
2, 1440, Note_on_c, 0, 80, 93
2, 1488, Note_off_c, 0, 80, 0
2, 1488, Note_on_c, 0, 78, 93
2, 1536, Note_off_c, 0, 78, 0
2, 1536, Note_on_c, 0, 80, 93
2, 1584, Note_off_c, 0, 80, 0
2, 1584, Note_on_c, 0, 81, 93
2, 1632, Note_off_c, 0, 81, 0
2, 1632, Note_on_c, 0, 83, 93
2, 1680, Note_off_c, 0, 83, 0
2, 1680, Note_on_c, 0, 80, 93
2, 1728, Note_off_c, 0, 80, 0
2, 1728, Note_on_c, 0, 76, 93
2, 1824, Note_off_c, 0, 76, 0
2, 1824, Note_on_c, 0, 81, 93
2, 1920, Note_off_c, 0, 81, 0
2, 1920, Note_on_c, 0, 80, 93
2, 2016, Note_off_c, 0, 80, 0
2, 2016, Note_on_c, 0, 78, 93
2, 2304, Note_off_c, 0, 78, 0
2, 2304, Note_on_c, 0, 80, 93
2, 2400, Note_off_c, 0, 80, 0
2, 2400, Note_on_c, 0, 80, 93
2, 2448, Note_off_c, 0, 80, 0
2, 2448, Note_on_c, 0, 78, 93
2, 2496, Note_off_c, 0, 78, 0
2, 2496, Note_on_c, 0, 80, 93
2, 2592, Note_off_c, 0, 80, 0
2, 2592, Note_on_c, 0, 76, 93
2, 2688, Note_off_c, 0, 76, 0
2, 2880, Note_on_c, 0, 71, 93
2, 2976, Note_off_c, 0, 71, 0
2, 2976, Note_on_c, 0, 73, 93
2, 3072, Note_off_c, 0, 73, 0
2, 3072, Note_on_c, 0, 75, 93
2, 3168, Note_off_c, 0, 75, 0
2, 3168, Note_on_c, 0, 76, 93
2, 3216, Note_off_c, 0, 76, 0
2, 3216, Note_on_c, 0, 75, 93
2, 3264, Note_off_c, 0, 75, 0
2, 3264, Note_on_c, 0, 76, 93
2, 3312, Note_off_c, 0, 76, 0
2, 3312, Note_on_c, 0, 78, 93
2, 3360, Note_off_c, 0, 78, 0
2, 3360, Note_on_c, 0, 76, 93
2, 3408, Note_off_c, 0, 76, 0
2, 3408, Note_on_c, 0, 78, 93
2, 3456, Note_off_c, 0, 78, 0
2, 3456, Note_on_c, 0, 80, 93
2, 3552, Note_off_c, 0, 80, 0
2, 3552, Note_on_c, 0, 78, 93
2, 3648, Note_off_c, 0, 78, 0
2, 3648, Note_on_c, 0, 78, 93
2, 3696, Note_off_c, 0, 78, 0
2, 3696, Note_on_c, 0, 80, 93
2, 3720, Note_off_c, 0, 80, 0
2, 3720, Note_on_c, 0, 81, 93
2, 3744, Note_off_c, 0, 81, 0
2, 3744, Note_on_c, 0, 80, 93
2, 3792, Note_off_c, 0, 80, 0
2, 3792, Note_on_c, 0, 78, 93
2, 3840, Note_off_c, 0, 78, 0
2, 3840, Note_on_c, 0, 80, 93
2, 3888, Note_off_c, 0, 80, 0
2, 3888, Note_on_c, 0, 81, 93
2, 3936, Note_off_c, 0, 81, 0
2, 3936, Note_on_c, 0, 83, 93
2, 3984, Note_off_c, 0, 83, 0
2, 3984, Note_on_c, 0, 80, 93
2, 4032, Note_off_c, 0, 80, 0
2, 4032, Note_on_c, 0, 76, 93
2, 4128, Note_off_c, 0, 76, 0
2, 4128, Note_on_c, 0, 81, 93
2, 4224, Note_off_c, 0, 81, 0
2, 4224, Note_on_c, 0, 80, 93
2, 4320, Note_off_c, 0, 80, 0
2, 4320, Note_on_c, 0, 78, 93
2, 4608, Note_off_c, 0, 78, 0
2, 4608, Note_on_c, 0, 83, 93
2, 4704, Note_off_c, 0, 83, 0
2, 4704, Note_on_c, 0, 83, 93
2, 4752, Note_off_c, 0, 83, 0
2, 4752, Note_on_c, 0, 82, 93
2, 4800, Note_off_c, 0, 82, 0
2, 4800, Note_on_c, 0, 83, 93
2, 4896, Note_off_c, 0, 83, 0
2, 4896, Note_on_c, 0, 75, 93
2, 4992, Note_off_c, 0, 75, 0
2, 4992, Note_on_c, 0, 76, 93
2, 5040, Note_off_c, 0, 76, 0
2, 5040, Note_on_c, 0, 73, 93
2, 5088, Note_off_c, 0, 73, 0
2, 5088, Note_on_c, 0, 75, 93
2, 5184, Note_off_c, 0, 75, 0
2, 5184, Note_on_c, 0, 83, 93
2, 5280, Note_off_c, 0, 83, 0
2, 5280, Note_on_c, 0, 83, 93
2, 5328, Note_off_c, 0, 83, 0
2, 5328, Note_on_c, 0, 82, 93
2, 5376, Note_off_c, 0, 82, 0
2, 5376, Note_on_c, 0, 83, 93
2, 5472, Note_off_c, 0, 83, 0
2, 5760, Note_on_c, 0, 81, 93
2, 5856, Note_off_c, 0, 81, 0
2, 5856, Note_on_c, 0, 80, 93
2, 5952, Note_off_c, 0, 80, 0
2, 5952, Note_on_c, 0, 78, 93
2, 6048, Note_off_c, 0, 78, 0
2, 6048, Note_on_c, 0, 76, 93
2, 6144, Note_off_c, 0, 76, 0
2, 6144, Note_on_c, 0, 76, 93
2, 6192, Note_off_c, 0, 76, 0
2, 6192, Note_on_c, 0, 78, 93
2, 6240, Note_off_c, 0, 78, 0
2, 6240, Note_on_c, 0, 80, 93
2, 6336, Note_off_c, 0, 80, 0
2, 6336, Note_on_c, 0, 80, 93
2, 6384, Note_off_c, 0, 80, 0
2, 6384, Note_on_c, 0, 78, 93
2, 6432, Note_off_c, 0, 78, 0
2, 6432, Note_on_c, 0, 81, 93
2, 6528, Note_off_c, 0, 81, 0
2, 6528, Note_on_c, 0, 80, 93
2, 6624, Note_off_c, 0, 80, 0
2, 6624, Note_on_c, 0, 78, 93
2, 6672, Note_off_c, 0, 78, 0
2, 6672, Note_on_c, 0, 76, 93
2, 6720, Note_off_c, 0, 76, 0
2, 6720, Note_on_c, 0, 78, 93
2, 6768, Note_off_c, 0, 78, 0
2, 6768, Note_on_c, 0, 75, 93
2, 6816, Note_off_c, 0, 75, 0
2, 6816, Note_on_c, 0, 76, 93
2, 6864, Note_off_c, 0, 76, 0
2, 6864, Note_on_c, 0, 78, 93
2, 6912, Note_off_c, 0, 78, 0
2, 6912, Note_on_c, 0, 80, 93
2, 7008, Note_off_c, 0, 80, 0
2, 7200, Note_on_c, 0, 68, 93
2, 7344, Note_off_c, 0, 68, 0
2, 9792, Note_on_c, 0, 80, 93
2, 9888, Note_off_c, 0, 80, 0
2, 9888, Note_on_c, 0, 80, 93
2, 9936, Note_off_c, 0, 80, 0
2, 9936, Note_on_c, 0, 78, 93
2, 9984, Note_off_c, 0, 78, 0
2, 9984, Note_on_c, 0, 80, 93
2, 10080, Note_off_c, 0, 80, 0
2, 10080, Note_on_c, 0, 76, 93
2, 10176, Note_off_c, 0, 76, 0
2, 11424, Note_on_c, 0, 64, 93
2, 11520, Note_off_c, 0, 64, 0
2, 11520, Note_on_c, 0, 69, 93
2, 11616, Note_off_c, 0, 69, 0
2, 11616, Note_on_c, 0, 68, 93
2, 11712, Note_off_c, 0, 68, 0
2, 11712, Note_on_c, 0, 59, 93
2, 11808, Note_off_c, 0, 59, 0
2, 11808, Note_on_c, 0, 64, 93
2, 12096, Note_off_c, 0, 64, 0
2, 12096, Note_on_c, 0, 83, 93
2, 12192, Note_off_c, 0, 83, 0
2, 12192, Note_on_c, 0, 83, 93
2, 12240, Note_off_c, 0, 83, 0
2, 12240, Note_on_c, 0, 82, 93
2, 12288, Note_off_c, 0, 82, 0
2, 12288, Note_on_c, 0, 83, 93
2, 12384, Note_off_c, 0, 83, 0
2, 12384, Note_on_c, 0, 75, 93
2, 12480, Note_off_c, 0, 75, 0
2, 12480, Note_on_c, 0, 76, 93
2, 12528, Note_off_c, 0, 76, 0
2, 12528, Note_on_c, 0, 73, 93
2, 12576, Note_off_c, 0, 73, 0
2, 12576, Note_on_c, 0, 75, 93
2, 12672, Note_off_c, 0, 75, 0
2, 12672, Note_on_c, 0, 83, 93
2, 12768, Note_off_c, 0, 83, 0
2, 12768, Note_on_c, 0, 83, 93
2, 12816, Note_off_c, 0, 83, 0
2, 12816, Note_on_c, 0, 82, 93
2, 12864, Note_off_c, 0, 82, 0
2, 12864, Note_on_c, 0, 83, 93
2, 12960, Note_off_c, 0, 83, 0
2, 13248, Note_on_c, 0, 81, 93
2, 13344, Note_off_c, 0, 81, 0
2, 13344, Note_on_c, 0, 80, 93
2, 13440, Note_off_c, 0, 80, 0
2, 13440, Note_on_c, 0, 78, 93
2, 13536, Note_off_c, 0, 78, 0
2, 13536, Note_on_c, 0, 76, 93
2, 13632, Note_off_c, 0, 76, 0
2, 13632, Note_on_c, 0, 76, 93
2, 13680, Note_off_c, 0, 76, 0
2, 13680, Note_on_c, 0, 78, 93
2, 13728, Note_off_c, 0, 78, 0
2, 13728, Note_on_c, 0, 80, 93
2, 13824, Note_off_c, 0, 80, 0
2, 13824, Note_on_c, 0, 80, 93
2, 13872, Note_off_c, 0, 80, 0
2, 13872, Note_on_c, 0, 78, 93
2, 13920, Note_off_c, 0, 78, 0
2, 13920, Note_on_c, 0, 81, 93
2, 14016, Note_off_c, 0, 81, 0
2, 14016, Note_on_c, 0, 80, 93
2, 14112, Note_off_c, 0, 80, 0
2, 14112, Note_on_c, 0, 78, 93
2, 14160, Note_off_c, 0, 78, 0
2, 14160, Note_on_c, 0, 76, 93
2, 14208, Note_off_c, 0, 76, 0
2, 14208, Note_on_c, 0, 78, 93
2, 14256, Note_off_c, 0, 78, 0
2, 14256, Note_on_c, 0, 75, 93
2, 14304, Note_off_c, 0, 75, 0
2, 14304, Note_on_c, 0, 76, 93
2, 14352, Note_off_c, 0, 76, 0
2, 14352, Note_on_c, 0, 78, 93
2, 14400, Note_off_c, 0, 78, 0
2, 14400, Note_on_c, 0, 80, 93
2, 14496, Note_off_c, 0, 80, 0
2, 14688, Note_on_c, 0, 68, 93
2, 14832, Note_off_c, 0, 68, 0
2, 17280, Note_on_c, 0, 80, 93
2, 17376, Note_off_c, 0, 80, 0
2, 17376, Note_on_c, 0, 80, 93
2, 17424, Note_off_c, 0, 80, 0
2, 17424, Note_on_c, 0, 78, 93
2, 17472, Note_off_c, 0, 78, 0
2, 17472, Note_on_c, 0, 80, 93
2, 17568, Note_off_c, 0, 80, 0
2, 17568, Note_on_c, 0, 76, 93
2, 17664, Note_off_c, 0, 76, 0
2, 18912, Note_on_c, 0, 64, 93
2, 19008, Note_off_c, 0, 64, 0
2, 19008, Note_on_c, 0, 69, 93
2, 19104, Note_off_c, 0, 69, 0
2, 19104, Note_on_c, 0, 68, 93
2, 19200, Note_off_c, 0, 68, 0
2, 19200, Note_on_c, 0, 59, 93
2, 19296, Note_off_c, 0, 59, 0
2, 19296, Note_on_c, 0, 64, 93
2, 19584, Note_off_c, 0, 64, 0
2, 19584, Note_on_c, 0, 71, 93
2, 20448, Note_off_c, 0, 71, 0
2, 20448, Note_on_c, 0, 69, 93
2, 20736, Note_off_c, 0, 69, 0
2, 21888, Note_on_c, 0, 68, 93
2, 21984, Note_off_c, 0, 68, 0
2, 21984, Note_on_c, 0, 69, 93
2, 22032, Note_off_c, 0, 69, 0
2, 22032, Note_on_c, 0, 68, 93
2, 22080, Note_off_c, 0, 68, 0
2, 22080, Note_on_c, 0, 66, 93
2, 22128, Note_off_c, 0, 66, 0
2, 22128, Note_on_c, 0, 64, 93
2, 22176, Note_off_c, 0, 64, 0
2, 22176, Note_on_c, 0, 66, 93
2, 22224, Note_off_c, 0, 66, 0
2, 22224, Note_on_c, 0, 68, 93
2, 22272, Note_off_c, 0, 68, 0
2, 22272, Note_on_c, 0, 69, 93
2, 22464, Note_off_c, 0, 69, 0
2, 22464, Note_on_c, 0, 68, 93
2, 22512, Note_off_c, 0, 68, 0
2, 22512, Note_on_c, 0, 64, 93
2, 22560, Note_off_c, 0, 64, 0
2, 22560, Note_on_c, 0, 64, 93
2, 22608, Note_off_c, 0, 64, 0
2, 22608, Note_on_c, 0, 68, 93
2, 22656, Note_off_c, 0, 68, 0
2, 22656, Note_on_c, 0, 68, 93
2, 22704, Note_off_c, 0, 68, 0
2, 22704, Note_on_c, 0, 71, 93
2, 22752, Note_off_c, 0, 71, 0
2, 22752, Note_on_c, 0, 70, 93
2, 22800, Note_off_c, 0, 70, 0
2, 22800, Note_on_c, 0, 71, 93
2, 22848, Note_off_c, 0, 71, 0
2, 22848, Note_on_c, 0, 73, 93
2, 22944, Note_off_c, 0, 73, 0
2, 22944, Note_on_c, 0, 66, 93
2, 23040, Note_off_c, 0, 66, 0
2, 23040, Note_on_c, 0, 71, 93
2, 23088, Note_off_c, 0, 71, 0
2, 23088, Note_on_c, 0, 75, 93
2, 23136, Note_off_c, 0, 75, 0
2, 23136, Note_on_c, 0, 75, 93
2, 23184, Note_off_c, 0, 75, 0
2, 23184, Note_on_c, 0, 78, 93
2, 23232, Note_off_c, 0, 78, 0
2, 23232, Note_on_c, 0, 78, 93
2, 23280, Note_off_c, 0, 78, 0
2, 23280, Note_on_c, 0, 83, 93
2, 23328, Note_off_c, 0, 83, 0
2, 23328, Note_on_c, 0, 73, 93
2, 23376, Note_off_c, 0, 73, 0
2, 23376, Note_on_c, 0, 75, 93
2, 23424, Note_off_c, 0, 75, 0
2, 23424, Note_on_c, 0, 76, 93
2, 23472, Note_off_c, 0, 76, 0
2, 23472, Note_on_c, 0, 80, 93
2, 23520, Note_off_c, 0, 80, 0
2, 23520, Note_on_c, 0, 70, 93
2, 23568, Note_off_c, 0, 70, 0
2, 23568, Note_on_c, 0, 78, 93
2, 23616, Note_off_c, 0, 78, 0
2, 23616, Note_on_c, 0, 76, 93
2, 23664, Note_off_c, 0, 76, 0
2, 23664, Note_on_c, 0, 75, 93
2, 23712, Note_off_c, 0, 75, 0
2, 23712, Note_on_c, 0, 73, 93
2, 23760, Note_off_c, 0, 73, 0
2, 23760, Note_on_c, 0, 71, 93
2, 23808, Note_off_c, 0, 71, 0
2, 23808, Note_on_c, 0, 66, 93
2, 23856, Note_off_c, 0, 66, 0
2, 23856, Note_on_c, 0, 70, 93
2, 23904, Note_off_c, 0, 70, 0
2, 23904, Note_on_c, 0, 59, 93
2, 24192, Note_off_c, 0, 59, 0
2, 24192, Note_on_c, 0, 71, 93
2, 25056, Note_off_c, 0, 71, 0
2, 25056, Note_on_c, 0, 69, 93
2, 25344, Note_off_c, 0, 69, 0
2, 26496, Note_on_c, 0, 68, 93
2, 26592, Note_off_c, 0, 68, 0
2, 26592, Note_on_c, 0, 69, 93
2, 26640, Note_off_c, 0, 69, 0
2, 26640, Note_on_c, 0, 68, 93
2, 26688, Note_off_c, 0, 68, 0
2, 26688, Note_on_c, 0, 66, 93
2, 26736, Note_off_c, 0, 66, 0
2, 26736, Note_on_c, 0, 64, 93
2, 26784, Note_off_c, 0, 64, 0
2, 26784, Note_on_c, 0, 66, 93
2, 26832, Note_off_c, 0, 66, 0
2, 26832, Note_on_c, 0, 68, 93
2, 26880, Note_off_c, 0, 68, 0
2, 26880, Note_on_c, 0, 69, 93
2, 27072, Note_off_c, 0, 69, 0
2, 27072, Note_on_c, 0, 68, 93
2, 27120, Note_off_c, 0, 68, 0
2, 27120, Note_on_c, 0, 64, 93
2, 27168, Note_off_c, 0, 64, 0
2, 27168, Note_on_c, 0, 64, 93
2, 27216, Note_off_c, 0, 64, 0
2, 27216, Note_on_c, 0, 68, 93
2, 27264, Note_off_c, 0, 68, 0
2, 27264, Note_on_c, 0, 68, 93
2, 27312, Note_off_c, 0, 68, 0
2, 27312, Note_on_c, 0, 71, 93
2, 27360, Note_off_c, 0, 71, 0
2, 27360, Note_on_c, 0, 70, 93
2, 27408, Note_off_c, 0, 70, 0
2, 27408, Note_on_c, 0, 71, 93
2, 27456, Note_off_c, 0, 71, 0
2, 27456, Note_on_c, 0, 73, 93
2, 27552, Note_off_c, 0, 73, 0
2, 27552, Note_on_c, 0, 66, 93
2, 27648, Note_off_c, 0, 66, 0
2, 27648, Note_on_c, 0, 71, 93
2, 27696, Note_off_c, 0, 71, 0
2, 27696, Note_on_c, 0, 75, 93
2, 27744, Note_off_c, 0, 75, 0
2, 27744, Note_on_c, 0, 75, 93
2, 27792, Note_off_c, 0, 75, 0
2, 27792, Note_on_c, 0, 78, 93
2, 27840, Note_off_c, 0, 78, 0
2, 27840, Note_on_c, 0, 78, 93
2, 27888, Note_off_c, 0, 78, 0
2, 27888, Note_on_c, 0, 83, 93
2, 27936, Note_off_c, 0, 83, 0
2, 27936, Note_on_c, 0, 73, 93
2, 27984, Note_off_c, 0, 73, 0
2, 27984, Note_on_c, 0, 75, 93
2, 28032, Note_off_c, 0, 75, 0
2, 28032, Note_on_c, 0, 76, 93
2, 28080, Note_off_c, 0, 76, 0
2, 28080, Note_on_c, 0, 80, 93
2, 28128, Note_off_c, 0, 80, 0
2, 28128, Note_on_c, 0, 70, 93
2, 28176, Note_off_c, 0, 70, 0
2, 28176, Note_on_c, 0, 78, 93
2, 28224, Note_off_c, 0, 78, 0
2, 28224, Note_on_c, 0, 76, 93
2, 28272, Note_off_c, 0, 76, 0
2, 28272, Note_on_c, 0, 75, 93
2, 28320, Note_off_c, 0, 75, 0
2, 28320, Note_on_c, 0, 73, 93
2, 28368, Note_off_c, 0, 73, 0
2, 28368, Note_on_c, 0, 71, 93
2, 28416, Note_off_c, 0, 71, 0
2, 28416, Note_on_c, 0, 66, 93
2, 28464, Note_off_c, 0, 66, 0
2, 28464, Note_on_c, 0, 70, 93
2, 28512, Note_off_c, 0, 70, 0
2, 28512, Note_on_c, 0, 59, 93
2, 28800, Note_off_c, 0, 59, 0
2, 28800, Note_on_c, 0, 69, 93
2, 28896, Note_off_c, 0, 69, 0
2, 29088, Note_on_c, 0, 68, 93
2, 29184, Note_off_c, 0, 68, 0
2, 31104, Note_on_c, 0, 75, 93
2, 31200, Note_off_c, 0, 75, 0
2, 31392, Note_on_c, 0, 76, 93
2, 31488, Note_off_c, 0, 76, 0
2, 32256, Note_on_c, 0, 80, 93
2, 32352, Note_off_c, 0, 80, 0
2, 32352, Note_on_c, 0, 81, 93
2, 32400, Note_off_c, 0, 81, 0
2, 32400, Note_on_c, 0, 80, 93
2, 32448, Note_off_c, 0, 80, 0
2, 32448, Note_on_c, 0, 78, 93
2, 32496, Note_off_c, 0, 78, 0
2, 32496, Note_on_c, 0, 76, 93
2, 32544, Note_off_c, 0, 76, 0
2, 32544, Note_on_c, 0, 78, 93
2, 32592, Note_off_c, 0, 78, 0
2, 32592, Note_on_c, 0, 75, 93
2, 32640, Note_off_c, 0, 75, 0
2, 32640, Note_on_c, 0, 83, 93
2, 32832, Note_off_c, 0, 83, 0
2, 33408, Note_on_c, 0, 69, 93
2, 33504, Note_off_c, 0, 69, 0
2, 33696, Note_on_c, 0, 68, 93
2, 33792, Note_off_c, 0, 68, 0
2, 35712, Note_on_c, 0, 75, 93
2, 35808, Note_off_c, 0, 75, 0
2, 36000, Note_on_c, 0, 76, 93
2, 36096, Note_off_c, 0, 76, 0
2, 36864, Note_on_c, 0, 80, 93
2, 36960, Note_off_c, 0, 80, 0
2, 36960, Note_on_c, 0, 81, 93
2, 37008, Note_off_c, 0, 81, 0
2, 37008, Note_on_c, 0, 80, 93
2, 37056, Note_off_c, 0, 80, 0
2, 37056, Note_on_c, 0, 78, 93
2, 37104, Note_off_c, 0, 78, 0
2, 37104, Note_on_c, 0, 76, 93
2, 37152, Note_off_c, 0, 76, 0
2, 37152, Note_on_c, 0, 78, 93
2, 37200, Note_off_c, 0, 78, 0
2, 37200, Note_on_c, 0, 75, 93
2, 37248, Note_off_c, 0, 75, 0
2, 37248, Note_on_c, 0, 83, 93
2, 37440, Note_off_c, 0, 83, 0
2, 37440, End_track
3, 0, Start_track
3, 0, Title_t, "Track3"
3, 0, Program_c, 1, 40
3, 0, Control_c, 1, 7, 100
3, 0, Control_c, 1, 10, 59
3, 0, Note_on_c, 1, 76, 93
3, 96, Note_off_c, 1, 76, 0
3, 96, Note_on_c, 1, 75, 93
3, 192, Note_off_c, 1, 75, 0
3, 192, Note_on_c, 1, 71, 93
3, 288, Note_off_c, 1, 71, 0
3, 288, Note_on_c, 1, 73, 93
3, 384, Note_off_c, 1, 73, 0
3, 384, Note_on_c, 1, 78, 93
3, 432, Note_off_c, 1, 78, 0
3, 432, Note_on_c, 1, 75, 93
3, 480, Note_off_c, 1, 75, 0
3, 480, Note_on_c, 1, 76, 93
3, 576, Note_off_c, 1, 76, 0
3, 576, Note_on_c, 1, 68, 93
3, 672, Note_off_c, 1, 68, 0
3, 672, Note_on_c, 1, 69, 93
3, 768, Note_off_c, 1, 69, 0
3, 768, Note_on_c, 1, 66, 93
3, 864, Note_off_c, 1, 66, 0
3, 864, Note_on_c, 1, 64, 93
3, 912, Note_off_c, 1, 64, 0
3, 1152, Note_on_c, 1, 76, 93
3, 1248, Note_off_c, 1, 76, 0
3, 1248, Note_on_c, 1, 75, 93
3, 1344, Note_off_c, 1, 75, 0
3, 1344, Note_on_c, 1, 71, 93
3, 1440, Note_off_c, 1, 71, 0
3, 1440, Note_on_c, 1, 76, 93
3, 1488, Note_off_c, 1, 76, 0
3, 1728, Note_on_c, 1, 73, 93
3, 1824, Note_off_c, 1, 73, 0
3, 1824, Note_on_c, 1, 75, 93
3, 1920, Note_off_c, 1, 75, 0
3, 1920, Note_on_c, 1, 76, 93
3, 2016, Note_off_c, 1, 76, 0
3, 2016, Note_on_c, 1, 71, 93
3, 2304, Note_off_c, 1, 71, 0
3, 2304, Note_on_c, 1, 76, 93
3, 2400, Note_off_c, 1, 76, 0
3, 2400, Note_on_c, 1, 75, 93
3, 2496, Note_off_c, 1, 75, 0
3, 2496, Note_on_c, 1, 71, 93
3, 2592, Note_off_c, 1, 71, 0
3, 2592, Note_on_c, 1, 73, 93
3, 2688, Note_off_c, 1, 73, 0
3, 2688, Note_on_c, 1, 78, 93
3, 2736, Note_off_c, 1, 78, 0
3, 2736, Note_on_c, 1, 75, 93
3, 2784, Note_off_c, 1, 75, 0
3, 2784, Note_on_c, 1, 76, 93
3, 2880, Note_off_c, 1, 76, 0
3, 2880, Note_on_c, 1, 68, 93
3, 2976, Note_off_c, 1, 68, 0
3, 2976, Note_on_c, 1, 69, 93
3, 3072, Note_off_c, 1, 69, 0
3, 3072, Note_on_c, 1, 66, 93
3, 3168, Note_off_c, 1, 66, 0
3, 3168, Note_on_c, 1, 64, 93
3, 3216, Note_off_c, 1, 64, 0
3, 3456, Note_on_c, 1, 76, 93
3, 3552, Note_off_c, 1, 76, 0
3, 3552, Note_on_c, 1, 75, 93
3, 3648, Note_off_c, 1, 75, 0
3, 3648, Note_on_c, 1, 71, 93
3, 3744, Note_off_c, 1, 71, 0
3, 3744, Note_on_c, 1, 76, 93
3, 3792, Note_off_c, 1, 76, 0
3, 4032, Note_on_c, 1, 73, 93
3, 4128, Note_off_c, 1, 73, 0
3, 4128, Note_on_c, 1, 75, 93
3, 4224, Note_off_c, 1, 75, 0
3, 4224, Note_on_c, 1, 76, 93
3, 4320, Note_off_c, 1, 76, 0
3, 4320, Note_on_c, 1, 71, 93
3, 4608, Note_off_c, 1, 71, 0
3, 4608, Note_on_c, 1, 75, 93
3, 4704, Note_off_c, 1, 75, 0
3, 4704, Note_on_c, 1, 73, 93
3, 4800, Note_off_c, 1, 73, 0
3, 4800, Note_on_c, 1, 71, 93
3, 4896, Note_off_c, 1, 71, 0
3, 4896, Note_on_c, 1, 69, 93
3, 4992, Note_off_c, 1, 69, 0
3, 5184, Note_on_c, 1, 68, 93
3, 5280, Note_off_c, 1, 68, 0
3, 5280, Note_on_c, 1, 66, 93
3, 5376, Note_off_c, 1, 66, 0
3, 5376, Note_on_c, 1, 64, 93
3, 5472, Note_off_c, 1, 64, 0
3, 5472, Note_on_c, 1, 63, 93
3, 5760, Note_off_c, 1, 63, 0
3, 5760, Note_on_c, 1, 63, 93
3, 5856, Note_off_c, 1, 63, 0
3, 6048, Note_on_c, 1, 61, 93
3, 6144, Note_off_c, 1, 61, 0
3, 7344, Note_on_c, 1, 76, 93
3, 7392, Note_off_c, 1, 76, 0
3, 7392, Note_on_c, 1, 75, 93
3, 7440, Note_off_c, 1, 75, 0
3, 7440, Note_on_c, 1, 78, 93
3, 7488, Note_off_c, 1, 78, 0
3, 7488, Note_on_c, 1, 68, 93
3, 7536, Note_off_c, 1, 68, 0
3, 7536, Note_on_c, 1, 69, 93
3, 7584, Note_off_c, 1, 69, 0
3, 7584, Note_on_c, 1, 71, 93
3, 7632, Note_off_c, 1, 71, 0
3, 7632, Note_on_c, 1, 73, 93
3, 7680, Note_off_c, 1, 73, 0
3, 7680, Note_on_c, 1, 74, 93
3, 7728, Note_off_c, 1, 74, 0
3, 7728, Note_on_c, 1, 64, 93
3, 7776, Note_off_c, 1, 64, 0
3, 7776, Note_on_c, 1, 57, 93
3, 7824, Note_off_c, 1, 57, 0
3, 7824, Note_on_c, 1, 64, 93
3, 7872, Note_off_c, 1, 64, 0
3, 7872, Note_on_c, 1, 74, 93
3, 7920, Note_off_c, 1, 74, 0
3, 7920, Note_on_c, 1, 71, 93
3, 7968, Note_off_c, 1, 71, 0
3, 7968, Note_on_c, 1, 73, 93
3, 8016, Note_off_c, 1, 73, 0
3, 8016, Note_on_c, 1, 69, 93
3, 8064, Note_off_c, 1, 69, 0
3, 8064, Note_on_c, 1, 66, 93
3, 8112, Note_off_c, 1, 66, 0
3, 8112, Note_on_c, 1, 68, 93
3, 8160, Note_off_c, 1, 68, 0
3, 8160, Note_on_c, 1, 69, 93
3, 8208, Note_off_c, 1, 69, 0
3, 8208, Note_on_c, 1, 71, 93
3, 8256, Note_off_c, 1, 71, 0
3, 8256, Note_on_c, 1, 73, 93
3, 8304, Note_off_c, 1, 73, 0
3, 8304, Note_on_c, 1, 69, 93
3, 8352, Note_off_c, 1, 69, 0
3, 8352, Note_on_c, 1, 56, 93
3, 8400, Note_off_c, 1, 56, 0
3, 8400, Note_on_c, 1, 66, 93
3, 8448, Note_off_c, 1, 66, 0
3, 8448, Note_on_c, 1, 73, 93
3, 8496, Note_off_c, 1, 73, 0
3, 8496, Note_on_c, 1, 69, 93
3, 8544, Note_off_c, 1, 69, 0
3, 8544, Note_on_c, 1, 71, 93
3, 8592, Note_off_c, 1, 71, 0
3, 8592, Note_on_c, 1, 68, 93
3, 8640, Note_off_c, 1, 68, 0
3, 8640, Note_on_c, 1, 64, 93
3, 8688, Note_off_c, 1, 64, 0
3, 8688, Note_on_c, 1, 66, 93
3, 8736, Note_off_c, 1, 66, 0
3, 8736, Note_on_c, 1, 68, 93
3, 8784, Note_off_c, 1, 68, 0
3, 8784, Note_on_c, 1, 69, 93
3, 8832, Note_off_c, 1, 69, 0
3, 8832, Note_on_c, 1, 71, 93
3, 8880, Note_off_c, 1, 71, 0
3, 8880, Note_on_c, 1, 68, 93
3, 8928, Note_off_c, 1, 68, 0
3, 8928, Note_on_c, 1, 69, 93
3, 8976, Note_off_c, 1, 69, 0
3, 8976, Note_on_c, 1, 64, 93
3, 9024, Note_off_c, 1, 64, 0
3, 9024, Note_on_c, 1, 66, 93
3, 9072, Note_off_c, 1, 66, 0
3, 9072, Note_on_c, 1, 69, 93
3, 9120, Note_off_c, 1, 69, 0
3, 9120, Note_on_c, 1, 63, 93
3, 9168, Note_off_c, 1, 63, 0
3, 9168, Note_on_c, 1, 66, 93
3, 9216, Note_off_c, 1, 66, 0
3, 9216, Note_on_c, 1, 68, 93
3, 9264, Note_off_c, 1, 68, 0
3, 9264, Note_on_c, 1, 71, 93
3, 9312, Note_off_c, 1, 71, 0
3, 9312, Note_on_c, 1, 73, 93
3, 9360, Note_off_c, 1, 73, 0
3, 9360, Note_on_c, 1, 76, 93
3, 9408, Note_off_c, 1, 76, 0
3, 9408, Note_on_c, 1, 78, 93
3, 9456, Note_off_c, 1, 78, 0
3, 9456, Note_on_c, 1, 81, 93
3, 9504, Note_off_c, 1, 81, 0
3, 9504, Note_on_c, 1, 76, 93
3, 9552, Note_off_c, 1, 76, 0
3, 9552, Note_on_c, 1, 75, 93
3, 9600, Note_off_c, 1, 75, 0
3, 9600, Note_on_c, 1, 76, 93
3, 9648, Note_off_c, 1, 76, 0
3, 9648, Note_on_c, 1, 75, 93
3, 9696, Note_off_c, 1, 75, 0
3, 9696, Note_on_c, 1, 73, 93
3, 9744, Note_off_c, 1, 73, 0
3, 9744, Note_on_c, 1, 71, 93
3, 9792, Note_off_c, 1, 71, 0
3, 9792, Note_on_c, 1, 76, 93
3, 9888, Note_off_c, 1, 76, 0
3, 9888, Note_on_c, 1, 75, 93
3, 9984, Note_off_c, 1, 75, 0
3, 9984, Note_on_c, 1, 71, 93
3, 10080, Note_off_c, 1, 71, 0
3, 10080, Note_on_c, 1, 73, 93
3, 10176, Note_off_c, 1, 73, 0
3, 10176, Note_on_c, 1, 78, 93
3, 10224, Note_off_c, 1, 78, 0
3, 10224, Note_on_c, 1, 75, 93
3, 10272, Note_off_c, 1, 75, 0
3, 10272, Note_on_c, 1, 76, 93
3, 10368, Note_off_c, 1, 76, 0
3, 10368, Note_on_c, 1, 68, 93
3, 10416, Note_off_c, 1, 68, 0
3, 10416, Note_on_c, 1, 71, 93
3, 10464, Note_off_c, 1, 71, 0
3, 10464, Note_on_c, 1, 64, 93
3, 10512, Note_off_c, 1, 64, 0
3, 10512, Note_on_c, 1, 68, 93
3, 10560, Note_off_c, 1, 68, 0
3, 10560, Note_on_c, 1, 71, 93
3, 10608, Note_off_c, 1, 71, 0
3, 10608, Note_on_c, 1, 74, 93
3, 10656, Note_off_c, 1, 74, 0
3, 10656, Note_on_c, 1, 57, 93
3, 10704, Note_off_c, 1, 57, 0
3, 10704, Note_on_c, 1, 64, 93
3, 10752, Note_off_c, 1, 64, 0
3, 10752, Note_on_c, 1, 74, 93
3, 10800, Note_off_c, 1, 74, 0
3, 10800, Note_on_c, 1, 71, 93
3, 10848, Note_off_c, 1, 71, 0
3, 10848, Note_on_c, 1, 73, 93
3, 10896, Note_off_c, 1, 73, 0
3, 10896, Note_on_c, 1, 69, 93
3, 10944, Note_off_c, 1, 69, 0
3, 10944, Note_on_c, 1, 66, 93
3, 10992, Note_off_c, 1, 66, 0
3, 10992, Note_on_c, 1, 76, 93
3, 11040, Note_off_c, 1, 76, 0
3, 11040, Note_on_c, 1, 75, 93
3, 11088, Note_off_c, 1, 75, 0
3, 11088, Note_on_c, 1, 78, 93
3, 11136, Note_off_c, 1, 78, 0
3, 11136, Note_on_c, 1, 81, 93
3, 11184, Note_off_c, 1, 81, 0
3, 11184, Note_on_c, 1, 64, 93
3, 11232, Note_off_c, 1, 64, 0
3, 11232, Note_on_c, 1, 63, 93
3, 11280, Note_off_c, 1, 63, 0
3, 11280, Note_on_c, 1, 71, 93
3, 11328, Note_off_c, 1, 71, 0
3, 11328, Note_on_c, 1, 78, 93
3, 11376, Note_off_c, 1, 78, 0
3, 11376, Note_on_c, 1, 81, 93
3, 11424, Note_off_c, 1, 81, 0
3, 11424, Note_on_c, 1, 80, 93
3, 11520, Note_off_c, 1, 80, 0
3, 11520, Note_on_c, 1, 78, 93
3, 11616, Note_off_c, 1, 78, 0
3, 11712, Note_on_c, 1, 75, 93
3, 11808, Note_off_c, 1, 75, 0
3, 11808, Note_on_c, 1, 76, 93
3, 12096, Note_off_c, 1, 76, 0
3, 12096, Note_on_c, 1, 75, 93
3, 12192, Note_off_c, 1, 75, 0
3, 12192, Note_on_c, 1, 73, 93
3, 12288, Note_off_c, 1, 73, 0
3, 12288, Note_on_c, 1, 71, 93
3, 12384, Note_off_c, 1, 71, 0
3, 12384, Note_on_c, 1, 69, 93
3, 12480, Note_off_c, 1, 69, 0
3, 12672, Note_on_c, 1, 68, 93
3, 12768, Note_off_c, 1, 68, 0
3, 12768, Note_on_c, 1, 66, 93
3, 12864, Note_off_c, 1, 66, 0
3, 12864, Note_on_c, 1, 64, 93
3, 12960, Note_off_c, 1, 64, 0
3, 12960, Note_on_c, 1, 63, 93
3, 13248, Note_off_c, 1, 63, 0
3, 13248, Note_on_c, 1, 63, 93
3, 13344, Note_off_c, 1, 63, 0
3, 13536, Note_on_c, 1, 61, 93
3, 13632, Note_off_c, 1, 61, 0
3, 14832, Note_on_c, 1, 76, 93
3, 14880, Note_off_c, 1, 76, 0
3, 14880, Note_on_c, 1, 75, 93
3, 14928, Note_off_c, 1, 75, 0
3, 14928, Note_on_c, 1, 78, 93
3, 14976, Note_off_c, 1, 78, 0
3, 14976, Note_on_c, 1, 68, 93
3, 15024, Note_off_c, 1, 68, 0
3, 15024, Note_on_c, 1, 69, 93
3, 15072, Note_off_c, 1, 69, 0
3, 15072, Note_on_c, 1, 71, 93
3, 15120, Note_off_c, 1, 71, 0
3, 15120, Note_on_c, 1, 73, 93
3, 15168, Note_off_c, 1, 73, 0
3, 15168, Note_on_c, 1, 74, 93
3, 15216, Note_off_c, 1, 74, 0
3, 15216, Note_on_c, 1, 64, 93
3, 15264, Note_off_c, 1, 64, 0
3, 15264, Note_on_c, 1, 57, 93
3, 15312, Note_off_c, 1, 57, 0
3, 15312, Note_on_c, 1, 64, 93
3, 15360, Note_off_c, 1, 64, 0
3, 15360, Note_on_c, 1, 74, 93
3, 15408, Note_off_c, 1, 74, 0
3, 15408, Note_on_c, 1, 71, 93
3, 15456, Note_off_c, 1, 71, 0
3, 15456, Note_on_c, 1, 73, 93
3, 15504, Note_off_c, 1, 73, 0
3, 15504, Note_on_c, 1, 69, 93
3, 15552, Note_off_c, 1, 69, 0
3, 15552, Note_on_c, 1, 66, 93
3, 15600, Note_off_c, 1, 66, 0
3, 15600, Note_on_c, 1, 68, 93
3, 15648, Note_off_c, 1, 68, 0
3, 15648, Note_on_c, 1, 69, 93
3, 15696, Note_off_c, 1, 69, 0
3, 15696, Note_on_c, 1, 71, 93
3, 15744, Note_off_c, 1, 71, 0
3, 15744, Note_on_c, 1, 73, 93
3, 15792, Note_off_c, 1, 73, 0
3, 15792, Note_on_c, 1, 69, 93
3, 15840, Note_off_c, 1, 69, 0
3, 15840, Note_on_c, 1, 56, 93
3, 15888, Note_off_c, 1, 56, 0
3, 15888, Note_on_c, 1, 66, 93
3, 15936, Note_off_c, 1, 66, 0
3, 15936, Note_on_c, 1, 73, 93
3, 15984, Note_off_c, 1, 73, 0
3, 15984, Note_on_c, 1, 69, 93
3, 16032, Note_off_c, 1, 69, 0
3, 16032, Note_on_c, 1, 71, 93
3, 16080, Note_off_c, 1, 71, 0
3, 16080, Note_on_c, 1, 68, 93
3, 16128, Note_off_c, 1, 68, 0
3, 16128, Note_on_c, 1, 64, 93
3, 16176, Note_off_c, 1, 64, 0
3, 16176, Note_on_c, 1, 66, 93
3, 16224, Note_off_c, 1, 66, 0
3, 16224, Note_on_c, 1, 68, 93
3, 16272, Note_off_c, 1, 68, 0
3, 16272, Note_on_c, 1, 69, 93
3, 16320, Note_off_c, 1, 69, 0
3, 16320, Note_on_c, 1, 71, 93
3, 16368, Note_off_c, 1, 71, 0
3, 16368, Note_on_c, 1, 68, 93
3, 16416, Note_off_c, 1, 68, 0
3, 16416, Note_on_c, 1, 69, 93
3, 16464, Note_off_c, 1, 69, 0
3, 16464, Note_on_c, 1, 64, 93
3, 16512, Note_off_c, 1, 64, 0
3, 16512, Note_on_c, 1, 66, 93
3, 16560, Note_off_c, 1, 66, 0
3, 16560, Note_on_c, 1, 69, 93
3, 16608, Note_off_c, 1, 69, 0
3, 16608, Note_on_c, 1, 63, 93
3, 16656, Note_off_c, 1, 63, 0
3, 16656, Note_on_c, 1, 66, 93
3, 16704, Note_off_c, 1, 66, 0
3, 16704, Note_on_c, 1, 68, 93
3, 16752, Note_off_c, 1, 68, 0
3, 16752, Note_on_c, 1, 71, 93
3, 16800, Note_off_c, 1, 71, 0
3, 16800, Note_on_c, 1, 73, 93
3, 16848, Note_off_c, 1, 73, 0
3, 16848, Note_on_c, 1, 76, 93
3, 16896, Note_off_c, 1, 76, 0
3, 16896, Note_on_c, 1, 78, 93
3, 16944, Note_off_c, 1, 78, 0
3, 16944, Note_on_c, 1, 81, 93
3, 16992, Note_off_c, 1, 81, 0
3, 16992, Note_on_c, 1, 76, 93
3, 17040, Note_off_c, 1, 76, 0
3, 17040, Note_on_c, 1, 75, 93
3, 17088, Note_off_c, 1, 75, 0
3, 17088, Note_on_c, 1, 76, 93
3, 17136, Note_off_c, 1, 76, 0
3, 17136, Note_on_c, 1, 75, 93
3, 17184, Note_off_c, 1, 75, 0
3, 17184, Note_on_c, 1, 73, 93
3, 17232, Note_off_c, 1, 73, 0
3, 17232, Note_on_c, 1, 71, 93
3, 17280, Note_off_c, 1, 71, 0
3, 17280, Note_on_c, 1, 76, 93
3, 17376, Note_off_c, 1, 76, 0
3, 17376, Note_on_c, 1, 75, 93
3, 17472, Note_off_c, 1, 75, 0
3, 17472, Note_on_c, 1, 71, 93
3, 17568, Note_off_c, 1, 71, 0
3, 17568, Note_on_c, 1, 73, 93
3, 17664, Note_off_c, 1, 73, 0
3, 17664, Note_on_c, 1, 78, 93
3, 17712, Note_off_c, 1, 78, 0
3, 17712, Note_on_c, 1, 75, 93
3, 17760, Note_off_c, 1, 75, 0
3, 17760, Note_on_c, 1, 76, 93
3, 17856, Note_off_c, 1, 76, 0
3, 17856, Note_on_c, 1, 68, 93
3, 17904, Note_off_c, 1, 68, 0
3, 17904, Note_on_c, 1, 71, 93
3, 17952, Note_off_c, 1, 71, 0
3, 17952, Note_on_c, 1, 64, 93
3, 18000, Note_off_c, 1, 64, 0
3, 18000, Note_on_c, 1, 68, 93
3, 18048, Note_off_c, 1, 68, 0
3, 18048, Note_on_c, 1, 71, 93
3, 18096, Note_off_c, 1, 71, 0
3, 18096, Note_on_c, 1, 74, 93
3, 18144, Note_off_c, 1, 74, 0
3, 18144, Note_on_c, 1, 57, 93
3, 18192, Note_off_c, 1, 57, 0
3, 18192, Note_on_c, 1, 64, 93
3, 18240, Note_off_c, 1, 64, 0
3, 18240, Note_on_c, 1, 74, 93
3, 18288, Note_off_c, 1, 74, 0
3, 18288, Note_on_c, 1, 71, 93
3, 18336, Note_off_c, 1, 71, 0
3, 18336, Note_on_c, 1, 73, 93
3, 18384, Note_off_c, 1, 73, 0
3, 18384, Note_on_c, 1, 69, 93
3, 18432, Note_off_c, 1, 69, 0
3, 18432, Note_on_c, 1, 66, 93
3, 18480, Note_off_c, 1, 66, 0
3, 18480, Note_on_c, 1, 76, 93
3, 18528, Note_off_c, 1, 76, 0
3, 18528, Note_on_c, 1, 75, 93
3, 18576, Note_off_c, 1, 75, 0
3, 18576, Note_on_c, 1, 78, 93
3, 18624, Note_off_c, 1, 78, 0
3, 18624, Note_on_c, 1, 81, 93
3, 18672, Note_off_c, 1, 81, 0
3, 18672, Note_on_c, 1, 64, 93
3, 18720, Note_off_c, 1, 64, 0
3, 18720, Note_on_c, 1, 63, 93
3, 18768, Note_off_c, 1, 63, 0
3, 18768, Note_on_c, 1, 71, 93
3, 18816, Note_off_c, 1, 71, 0
3, 18816, Note_on_c, 1, 78, 93
3, 18864, Note_off_c, 1, 78, 0
3, 18864, Note_on_c, 1, 81, 93
3, 18912, Note_off_c, 1, 81, 0
3, 18912, Note_on_c, 1, 80, 93
3, 19008, Note_off_c, 1, 80, 0
3, 19008, Note_on_c, 1, 78, 93
3, 19104, Note_off_c, 1, 78, 0
3, 19200, Note_on_c, 1, 75, 93
3, 19296, Note_off_c, 1, 75, 0
3, 19296, Note_on_c, 1, 76, 93
3, 19584, Note_off_c, 1, 76, 0
3, 19584, Note_on_c, 1, 68, 93
3, 19680, Note_off_c, 1, 68, 0
3, 19680, Note_on_c, 1, 69, 93
3, 19728, Note_off_c, 1, 69, 0
3, 19728, Note_on_c, 1, 68, 93
3, 19776, Note_off_c, 1, 68, 0
3, 19776, Note_on_c, 1, 66, 93
3, 19824, Note_off_c, 1, 66, 0
3, 19824, Note_on_c, 1, 64, 93
3, 19872, Note_off_c, 1, 64, 0
3, 19872, Note_on_c, 1, 66, 93
3, 19920, Note_off_c, 1, 66, 0
3, 19920, Note_on_c, 1, 68, 93
3, 19968, Note_off_c, 1, 68, 0
3, 19968, Note_on_c, 1, 69, 93
3, 20160, Note_off_c, 1, 69, 0
3, 20160, Note_on_c, 1, 68, 93
3, 20208, Note_off_c, 1, 68, 0
3, 20208, Note_on_c, 1, 66, 93
3, 20256, Note_off_c, 1, 66, 0
3, 20256, Note_on_c, 1, 69, 93
3, 20304, Note_off_c, 1, 69, 0
3, 20304, Note_on_c, 1, 68, 93
3, 20352, Note_off_c, 1, 68, 0
3, 20352, Note_on_c, 1, 66, 93
3, 20400, Note_off_c, 1, 66, 0
3, 20400, Note_on_c, 1, 64, 93
3, 20448, Note_off_c, 1, 64, 0
3, 20448, Note_on_c, 1, 63, 93
3, 20496, Note_off_c, 1, 63, 0
3, 20496, Note_on_c, 1, 64, 93
3, 20544, Note_off_c, 1, 64, 0
3, 20544, Note_on_c, 1, 66, 93
3, 20640, Note_off_c, 1, 66, 0
3, 20640, Note_on_c, 1, 59, 93
3, 20736, Note_off_c, 1, 59, 0
3, 20736, Note_on_c, 1, 64, 93
3, 20784, Note_off_c, 1, 64, 0
3, 20784, Note_on_c, 1, 68, 93
3, 20832, Note_off_c, 1, 68, 0
3, 20832, Note_on_c, 1, 68, 93
3, 20880, Note_off_c, 1, 68, 0
3, 20880, Note_on_c, 1, 71, 93
3, 20928, Note_off_c, 1, 71, 0
3, 20928, Note_on_c, 1, 71, 93
3, 20976, Note_off_c, 1, 71, 0
3, 20976, Note_on_c, 1, 76, 93
3, 21024, Note_off_c, 1, 76, 0
3, 21024, Note_on_c, 1, 75, 93
3, 21072, Note_off_c, 1, 75, 0
3, 21072, Note_on_c, 1, 71, 93
3, 21120, Note_off_c, 1, 71, 0
3, 21120, Note_on_c, 1, 71, 93
3, 21168, Note_off_c, 1, 71, 0
3, 21168, Note_on_c, 1, 75, 93
3, 21216, Note_off_c, 1, 75, 0
3, 21216, Note_on_c, 1, 75, 93
3, 21264, Note_off_c, 1, 75, 0
3, 21264, Note_on_c, 1, 78, 93
3, 21312, Note_off_c, 1, 78, 0
3, 21312, Note_on_c, 1, 78, 93
3, 21360, Note_off_c, 1, 78, 0
3, 21360, Note_on_c, 1, 80, 93
3, 21408, Note_off_c, 1, 80, 0
3, 21408, Note_on_c, 1, 81, 93
3, 21456, Note_off_c, 1, 81, 0
3, 21456, Note_on_c, 1, 78, 93
3, 21504, Note_off_c, 1, 78, 0
3, 21504, Note_on_c, 1, 83, 93
3, 21600, Note_off_c, 1, 83, 0
3, 21600, Note_on_c, 1, 81, 93
3, 21648, Note_off_c, 1, 81, 0
3, 21648, Note_on_c, 1, 80, 93
3, 21696, Note_off_c, 1, 80, 0
3, 21696, Note_on_c, 1, 81, 93
3, 21744, Note_off_c, 1, 81, 0
3, 21744, Note_on_c, 1, 80, 93
3, 21792, Note_off_c, 1, 80, 0
3, 21792, Note_on_c, 1, 78, 93
3, 21840, Note_off_c, 1, 78, 0
3, 21840, Note_on_c, 1, 76, 93
3, 21888, Note_off_c, 1, 76, 0
3, 21888, Note_on_c, 1, 71, 93
3, 22464, Note_off_c, 1, 71, 0
3, 22464, Note_on_c, 1, 76, 93
3, 23040, Note_off_c, 1, 76, 0
3, 24192, Note_on_c, 1, 68, 93
3, 24288, Note_off_c, 1, 68, 0
3, 24288, Note_on_c, 1, 69, 93
3, 24336, Note_off_c, 1, 69, 0
3, 24336, Note_on_c, 1, 68, 93
3, 24384, Note_off_c, 1, 68, 0
3, 24384, Note_on_c, 1, 66, 93
3, 24432, Note_off_c, 1, 66, 0
3, 24432, Note_on_c, 1, 64, 93
3, 24480, Note_off_c, 1, 64, 0
3, 24480, Note_on_c, 1, 66, 93
3, 24528, Note_off_c, 1, 66, 0
3, 24528, Note_on_c, 1, 68, 93
3, 24576, Note_off_c, 1, 68, 0
3, 24576, Note_on_c, 1, 69, 93
3, 24768, Note_off_c, 1, 69, 0
3, 24768, Note_on_c, 1, 68, 93
3, 24816, Note_off_c, 1, 68, 0
3, 24816, Note_on_c, 1, 66, 93
3, 24864, Note_off_c, 1, 66, 0
3, 24864, Note_on_c, 1, 69, 93
3, 24912, Note_off_c, 1, 69, 0
3, 24912, Note_on_c, 1, 68, 93
3, 24960, Note_off_c, 1, 68, 0
3, 24960, Note_on_c, 1, 66, 93
3, 25008, Note_off_c, 1, 66, 0
3, 25008, Note_on_c, 1, 64, 93
3, 25056, Note_off_c, 1, 64, 0
3, 25056, Note_on_c, 1, 63, 93
3, 25104, Note_off_c, 1, 63, 0
3, 25104, Note_on_c, 1, 64, 93
3, 25152, Note_off_c, 1, 64, 0
3, 25152, Note_on_c, 1, 66, 93
3, 25248, Note_off_c, 1, 66, 0
3, 25248, Note_on_c, 1, 59, 93
3, 25344, Note_off_c, 1, 59, 0
3, 25344, Note_on_c, 1, 64, 93
3, 25392, Note_off_c, 1, 64, 0
3, 25392, Note_on_c, 1, 68, 93
3, 25440, Note_off_c, 1, 68, 0
3, 25440, Note_on_c, 1, 68, 93
3, 25488, Note_off_c, 1, 68, 0
3, 25488, Note_on_c, 1, 71, 93
3, 25536, Note_off_c, 1, 71, 0
3, 25536, Note_on_c, 1, 71, 93
3, 25584, Note_off_c, 1, 71, 0
3, 25584, Note_on_c, 1, 76, 93
3, 25632, Note_off_c, 1, 76, 0
3, 25632, Note_on_c, 1, 75, 93
3, 25680, Note_off_c, 1, 75, 0
3, 25680, Note_on_c, 1, 71, 93
3, 25728, Note_off_c, 1, 71, 0
3, 25728, Note_on_c, 1, 71, 93
3, 25776, Note_off_c, 1, 71, 0
3, 25776, Note_on_c, 1, 75, 93
3, 25824, Note_off_c, 1, 75, 0
3, 25824, Note_on_c, 1, 75, 93
3, 25872, Note_off_c, 1, 75, 0
3, 25872, Note_on_c, 1, 78, 93
3, 25920, Note_off_c, 1, 78, 0
3, 25920, Note_on_c, 1, 78, 93
3, 25968, Note_off_c, 1, 78, 0
3, 25968, Note_on_c, 1, 80, 93
3, 26016, Note_off_c, 1, 80, 0
3, 26016, Note_on_c, 1, 81, 93
3, 26064, Note_off_c, 1, 81, 0
3, 26064, Note_on_c, 1, 78, 93
3, 26112, Note_off_c, 1, 78, 0
3, 26112, Note_on_c, 1, 83, 93
3, 26208, Note_off_c, 1, 83, 0
3, 26208, Note_on_c, 1, 81, 93
3, 26256, Note_off_c, 1, 81, 0
3, 26256, Note_on_c, 1, 80, 93
3, 26304, Note_off_c, 1, 80, 0
3, 26304, Note_on_c, 1, 81, 93
3, 26352, Note_off_c, 1, 81, 0
3, 26352, Note_on_c, 1, 80, 93
3, 26400, Note_off_c, 1, 80, 0
3, 26400, Note_on_c, 1, 78, 93
3, 26448, Note_off_c, 1, 78, 0
3, 26448, Note_on_c, 1, 76, 93
3, 26496, Note_off_c, 1, 76, 0
3, 26496, Note_on_c, 1, 71, 93
3, 27072, Note_off_c, 1, 71, 0
3, 27072, Note_on_c, 1, 76, 93
3, 27648, Note_off_c, 1, 76, 0
3, 28800, Note_on_c, 1, 75, 93
3, 28896, Note_off_c, 1, 75, 0
3, 28896, Note_on_c, 1, 76, 93
3, 28944, Note_off_c, 1, 76, 0
3, 28944, Note_on_c, 1, 75, 93
3, 28992, Note_off_c, 1, 75, 0
3, 28992, Note_on_c, 1, 73, 93
3, 29040, Note_off_c, 1, 73, 0
3, 29040, Note_on_c, 1, 71, 93
3, 29088, Note_off_c, 1, 71, 0
3, 29088, Note_on_c, 1, 76, 93
3, 29136, Note_off_c, 1, 76, 0
3, 29136, Note_on_c, 1, 78, 93
3, 29184, Note_off_c, 1, 78, 0
3, 29184, Note_on_c, 1, 80, 93
3, 29232, Note_off_c, 1, 80, 0
3, 29232, Note_on_c, 1, 81, 93
3, 29280, Note_off_c, 1, 81, 0
3, 29280, Note_on_c, 1, 83, 93
3, 29328, Note_off_c, 1, 83, 0
3, 29328, Note_on_c, 1, 80, 93
3, 29376, Note_off_c, 1, 80, 0
3, 29376, Note_on_c, 1, 78, 93
3, 29424, Note_off_c, 1, 78, 0
3, 29424, Note_on_c, 1, 77, 93
3, 29472, Note_off_c, 1, 77, 0
3, 29472, Note_on_c, 1, 78, 93
3, 29520, Note_off_c, 1, 78, 0
3, 29520, Note_on_c, 1, 77, 93
3, 29568, Note_off_c, 1, 77, 0
3, 29568, Note_on_c, 1, 75, 93
3, 29616, Note_off_c, 1, 75, 0
3, 29616, Note_on_c, 1, 73, 93
3, 29664, Note_off_c, 1, 73, 0
3, 29664, Note_on_c, 1, 78, 93
3, 29712, Note_off_c, 1, 78, 0
3, 29712, Note_on_c, 1, 80, 93
3, 29760, Note_off_c, 1, 80, 0
3, 29760, Note_on_c, 1, 81, 93
3, 29808, Note_off_c, 1, 81, 0
3, 29808, Note_on_c, 1, 73, 93
3, 29856, Note_off_c, 1, 73, 0
3, 29856, Note_on_c, 1, 66, 93
3, 29952, Note_off_c, 1, 66, 0
3, 29952, Note_on_c, 1, 65, 93
3, 30000, Note_off_c, 1, 65, 0
3, 30000, Note_on_c, 1, 73, 93
3, 30048, Note_off_c, 1, 73, 0
3, 30048, Note_on_c, 1, 83, 93
3, 30096, Note_off_c, 1, 83, 0
3, 30096, Note_on_c, 1, 80, 93
3, 30144, Note_off_c, 1, 80, 0
3, 30144, Note_on_c, 1, 81, 93
3, 30192, Note_off_c, 1, 81, 0
3, 30192, Note_on_c, 1, 78, 93
3, 30240, Note_off_c, 1, 78, 0
3, 30240, Note_on_c, 1, 80, 93
3, 30288, Note_off_c, 1, 80, 0
3, 30288, Note_on_c, 1, 73, 93
3, 30336, Note_off_c, 1, 73, 0
3, 30336, Note_on_c, 1, 74, 93
3, 30384, Note_off_c, 1, 74, 0
3, 30384, Note_on_c, 1, 71, 93
3, 30432, Note_off_c, 1, 71, 0
3, 30432, Note_on_c, 1, 65, 93
3, 30480, Note_off_c, 1, 65, 0
3, 30480, Note_on_c, 1, 73, 93
3, 30528, Note_off_c, 1, 73, 0
3, 30528, Note_on_c, 1, 83, 93
3, 30576, Note_off_c, 1, 83, 0
3, 30576, Note_on_c, 1, 80, 93
3, 30624, Note_off_c, 1, 80, 0
3, 30624, Note_on_c, 1, 81, 93
3, 30672, Note_off_c, 1, 81, 0
3, 30672, Note_on_c, 1, 78, 93
3, 30720, Note_off_c, 1, 78, 0
3, 30720, Note_on_c, 1, 73, 93
3, 30768, Note_off_c, 1, 73, 0
3, 30768, Note_on_c, 1, 77, 93
3, 30816, Note_off_c, 1, 77, 0
3, 30816, Note_on_c, 1, 78, 93
3, 30864, Note_off_c, 1, 78, 0
3, 30864, Note_on_c, 1, 73, 93
3, 30912, Note_off_c, 1, 73, 0
3, 30912, Note_on_c, 1, 66, 93
3, 30960, Note_off_c, 1, 66, 0
3, 30960, Note_on_c, 1, 73, 93
3, 31008, Note_off_c, 1, 73, 0
3, 31008, Note_on_c, 1, 78, 93
3, 31056, Note_off_c, 1, 78, 0
3, 31056, Note_on_c, 1, 80, 93
3, 31104, Note_off_c, 1, 80, 0
3, 31104, Note_on_c, 1, 81, 93
3, 31200, Note_off_c, 1, 81, 0
3, 31200, Note_on_c, 1, 83, 93
3, 31248, Note_off_c, 1, 83, 0
3, 31248, Note_on_c, 1, 81, 93
3, 31296, Note_off_c, 1, 81, 0
3, 31296, Note_on_c, 1, 80, 93
3, 31344, Note_off_c, 1, 80, 0
3, 31344, Note_on_c, 1, 78, 93
3, 31392, Note_off_c, 1, 78, 0
3, 31392, Note_on_c, 1, 80, 93
3, 31440, Note_off_c, 1, 80, 0
3, 31440, Note_on_c, 1, 81, 93
3, 31488, Note_off_c, 1, 81, 0
3, 31488, Note_on_c, 1, 83, 93
3, 31536, Note_off_c, 1, 83, 0
3, 31536, Note_on_c, 1, 74, 93
3, 31584, Note_off_c, 1, 74, 0
3, 31584, Note_on_c, 1, 68, 93
3, 31632, Note_off_c, 1, 68, 0
3, 31632, Note_on_c, 1, 74, 93
3, 31680, Note_off_c, 1, 74, 0
3, 31680, Note_on_c, 1, 73, 93
3, 31728, Note_off_c, 1, 73, 0
3, 31728, Note_on_c, 1, 76, 93
3, 31776, Note_off_c, 1, 76, 0
3, 31776, Note_on_c, 1, 81, 93
3, 31824, Note_off_c, 1, 81, 0
3, 31824, Note_on_c, 1, 78, 93
3, 31872, Note_off_c, 1, 78, 0
3, 31872, Note_on_c, 1, 80, 93
3, 31920, Note_off_c, 1, 80, 0
3, 31920, Note_on_c, 1, 76, 93
3, 31968, Note_off_c, 1, 76, 0
3, 31968, Note_on_c, 1, 75, 93
3, 32016, Note_off_c, 1, 75, 0
3, 32016, Note_on_c, 1, 73, 93
3, 32064, Note_off_c, 1, 73, 0
3, 32064, Note_on_c, 1, 76, 93
3, 32112, Note_off_c, 1, 76, 0
3, 32112, Note_on_c, 1, 75, 93
3, 32160, Note_off_c, 1, 75, 0
3, 32160, Note_on_c, 1, 73, 93
3, 32208, Note_off_c, 1, 73, 0
3, 32208, Note_on_c, 1, 71, 93
3, 32256, Note_off_c, 1, 71, 0
3, 32256, Note_on_c, 1, 64, 93
3, 32352, Note_off_c, 1, 64, 0
3, 33408, Note_on_c, 1, 75, 93
3, 33504, Note_off_c, 1, 75, 0
3, 33504, Note_on_c, 1, 76, 93
3, 33552, Note_off_c, 1, 76, 0
3, 33552, Note_on_c, 1, 75, 93
3, 33600, Note_off_c, 1, 75, 0
3, 33600, Note_on_c, 1, 73, 93
3, 33648, Note_off_c, 1, 73, 0
3, 33648, Note_on_c, 1, 71, 93
3, 33696, Note_off_c, 1, 71, 0
3, 33696, Note_on_c, 1, 76, 93
3, 33744, Note_off_c, 1, 76, 0
3, 33744, Note_on_c, 1, 78, 93
3, 33792, Note_off_c, 1, 78, 0
3, 33792, Note_on_c, 1, 80, 93
3, 33840, Note_off_c, 1, 80, 0
3, 33840, Note_on_c, 1, 81, 93
3, 33888, Note_off_c, 1, 81, 0
3, 33888, Note_on_c, 1, 83, 93
3, 33936, Note_off_c, 1, 83, 0
3, 33936, Note_on_c, 1, 80, 93
3, 33984, Note_off_c, 1, 80, 0
3, 33984, Note_on_c, 1, 78, 93
3, 34032, Note_off_c, 1, 78, 0
3, 34032, Note_on_c, 1, 77, 93
3, 34080, Note_off_c, 1, 77, 0
3, 34080, Note_on_c, 1, 78, 93
3, 34128, Note_off_c, 1, 78, 0
3, 34128, Note_on_c, 1, 77, 93
3, 34176, Note_off_c, 1, 77, 0
3, 34176, Note_on_c, 1, 75, 93
3, 34224, Note_off_c, 1, 75, 0
3, 34224, Note_on_c, 1, 73, 93
3, 34272, Note_off_c, 1, 73, 0
3, 34272, Note_on_c, 1, 78, 93
3, 34320, Note_off_c, 1, 78, 0
3, 34320, Note_on_c, 1, 80, 93
3, 34368, Note_off_c, 1, 80, 0
3, 34368, Note_on_c, 1, 81, 93
3, 34416, Note_off_c, 1, 81, 0
3, 34416, Note_on_c, 1, 73, 93
3, 34464, Note_off_c, 1, 73, 0
3, 34464, Note_on_c, 1, 66, 93
3, 34560, Note_off_c, 1, 66, 0
3, 34560, Note_on_c, 1, 65, 93
3, 34608, Note_off_c, 1, 65, 0
3, 34608, Note_on_c, 1, 73, 93
3, 34656, Note_off_c, 1, 73, 0
3, 34656, Note_on_c, 1, 83, 93
3, 34704, Note_off_c, 1, 83, 0
3, 34704, Note_on_c, 1, 80, 93
3, 34752, Note_off_c, 1, 80, 0
3, 34752, Note_on_c, 1, 81, 93
3, 34800, Note_off_c, 1, 81, 0
3, 34800, Note_on_c, 1, 78, 93
3, 34848, Note_off_c, 1, 78, 0
3, 34848, Note_on_c, 1, 80, 93
3, 34896, Note_off_c, 1, 80, 0
3, 34896, Note_on_c, 1, 73, 93
3, 34944, Note_off_c, 1, 73, 0
3, 34944, Note_on_c, 1, 74, 93
3, 34992, Note_off_c, 1, 74, 0
3, 34992, Note_on_c, 1, 71, 93
3, 35040, Note_off_c, 1, 71, 0
3, 35040, Note_on_c, 1, 65, 93
3, 35088, Note_off_c, 1, 65, 0
3, 35088, Note_on_c, 1, 73, 93
3, 35136, Note_off_c, 1, 73, 0
3, 35136, Note_on_c, 1, 83, 93
3, 35184, Note_off_c, 1, 83, 0
3, 35184, Note_on_c, 1, 80, 93
3, 35232, Note_off_c, 1, 80, 0
3, 35232, Note_on_c, 1, 81, 93
3, 35280, Note_off_c, 1, 81, 0
3, 35280, Note_on_c, 1, 78, 93
3, 35328, Note_off_c, 1, 78, 0
3, 35328, Note_on_c, 1, 73, 93
3, 35376, Note_off_c, 1, 73, 0
3, 35376, Note_on_c, 1, 77, 93
3, 35424, Note_off_c, 1, 77, 0
3, 35424, Note_on_c, 1, 78, 93
3, 35472, Note_off_c, 1, 78, 0
3, 35472, Note_on_c, 1, 73, 93
3, 35520, Note_off_c, 1, 73, 0
3, 35520, Note_on_c, 1, 66, 93
3, 35568, Note_off_c, 1, 66, 0
3, 35568, Note_on_c, 1, 73, 93
3, 35616, Note_off_c, 1, 73, 0
3, 35616, Note_on_c, 1, 78, 93
3, 35664, Note_off_c, 1, 78, 0
3, 35664, Note_on_c, 1, 80, 93
3, 35712, Note_off_c, 1, 80, 0
3, 35712, Note_on_c, 1, 81, 93
3, 35808, Note_off_c, 1, 81, 0
3, 35808, Note_on_c, 1, 83, 93
3, 35856, Note_off_c, 1, 83, 0
3, 35856, Note_on_c, 1, 81, 93
3, 35904, Note_off_c, 1, 81, 0
3, 35904, Note_on_c, 1, 80, 93
3, 35952, Note_off_c, 1, 80, 0
3, 35952, Note_on_c, 1, 78, 93
3, 36000, Note_off_c, 1, 78, 0
3, 36000, Note_on_c, 1, 80, 93
3, 36048, Note_off_c, 1, 80, 0
3, 36048, Note_on_c, 1, 81, 93
3, 36096, Note_off_c, 1, 81, 0
3, 36096, Note_on_c, 1, 83, 93
3, 36144, Note_off_c, 1, 83, 0
3, 36144, Note_on_c, 1, 74, 93
3, 36192, Note_off_c, 1, 74, 0
3, 36192, Note_on_c, 1, 68, 93
3, 36240, Note_off_c, 1, 68, 0
3, 36240, Note_on_c, 1, 74, 93
3, 36288, Note_off_c, 1, 74, 0
3, 36288, Note_on_c, 1, 73, 93
3, 36336, Note_off_c, 1, 73, 0
3, 36336, Note_on_c, 1, 76, 93
3, 36384, Note_off_c, 1, 76, 0
3, 36384, Note_on_c, 1, 81, 93
3, 36432, Note_off_c, 1, 81, 0
3, 36432, Note_on_c, 1, 78, 93
3, 36480, Note_off_c, 1, 78, 0
3, 36480, Note_on_c, 1, 80, 93
3, 36528, Note_off_c, 1, 80, 0
3, 36528, Note_on_c, 1, 76, 93
3, 36576, Note_off_c, 1, 76, 0
3, 36576, Note_on_c, 1, 75, 93
3, 36624, Note_off_c, 1, 75, 0
3, 36624, Note_on_c, 1, 73, 93
3, 36672, Note_off_c, 1, 73, 0
3, 36672, Note_on_c, 1, 76, 93
3, 36720, Note_off_c, 1, 76, 0
3, 36720, Note_on_c, 1, 75, 93
3, 36768, Note_off_c, 1, 75, 0
3, 36768, Note_on_c, 1, 73, 93
3, 36816, Note_off_c, 1, 73, 0
3, 36816, Note_on_c, 1, 71, 93
3, 36864, Note_off_c, 1, 71, 0
3, 36864, Note_on_c, 1, 64, 93
3, 36960, Note_off_c, 1, 64, 0
3, 36960, End_track
4, 0, Start_track
4, 0, Title_t, "Track4"
4, 0, Program_c, 2, 40
4, 0, Control_c, 2, 7, 100
4, 0, Control_c, 2, 10, 79
4, 5184, Note_on_c, 2, 76, 93
4, 5280, Note_off_c, 2, 76, 0
4, 5280, Note_on_c, 2, 75, 93
4, 5376, Note_off_c, 2, 75, 0
4, 5376, Note_on_c, 2, 73, 93
4, 5472, Note_off_c, 2, 73, 0
4, 5472, Note_on_c, 2, 71, 93
4, 5760, Note_off_c, 2, 71, 0
4, 5760, Note_on_c, 2, 72, 93
4, 5856, Note_off_c, 2, 72, 0
4, 6048, Note_on_c, 2, 73, 93
4, 6144, Note_off_c, 2, 73, 0
4, 6144, Note_on_c, 2, 73, 93
4, 6192, Note_off_c, 2, 73, 0
4, 6192, Note_on_c, 2, 75, 93
4, 6240, Note_off_c, 2, 75, 0
4, 6240, Note_on_c, 2, 76, 93
4, 6336, Note_off_c, 2, 76, 0
4, 6336, Note_on_c, 2, 75, 93
4, 6432, Note_off_c, 2, 75, 0
4, 6432, Note_on_c, 2, 73, 93
4, 6528, Note_off_c, 2, 73, 0
4, 6528, Note_on_c, 2, 72, 93
4, 6624, Note_off_c, 2, 72, 0
4, 6624, Note_on_c, 2, 73, 93
4, 6720, Note_off_c, 2, 73, 0
4, 6816, Note_on_c, 2, 69, 93
4, 6912, Note_off_c, 2, 69, 0
4, 6912, Note_on_c, 2, 64, 93
4, 7008, Note_off_c, 2, 64, 0
4, 7008, Note_on_c, 2, 66, 93
4, 7104, Note_off_c, 2, 66, 0
4, 7104, Note_on_c, 2, 68, 93
4, 7200, Note_off_c, 2, 68, 0
4, 7200, Note_on_c, 2, 61, 93
4, 7344, Note_off_c, 2, 61, 0
4, 8640, Note_on_c, 2, 61, 93
4, 8736, Note_off_c, 2, 61, 0
4, 11424, Note_on_c, 2, 71, 93
4, 11520, Note_off_c, 2, 71, 0
4, 11520, Note_on_c, 2, 73, 93
4, 11616, Note_off_c, 2, 73, 0
4, 11616, Note_on_c, 2, 71, 93
4, 11712, Note_off_c, 2, 71, 0
4, 11712, Note_on_c, 2, 66, 93
4, 11808, Note_off_c, 2, 66, 0
4, 11808, Note_on_c, 2, 71, 93
4, 12096, Note_off_c, 2, 71, 0
4, 12672, Note_on_c, 2, 76, 93
4, 12768, Note_off_c, 2, 76, 0
4, 12768, Note_on_c, 2, 75, 93
4, 12864, Note_off_c, 2, 75, 0
4, 12864, Note_on_c, 2, 73, 93
4, 12960, Note_off_c, 2, 73, 0
4, 12960, Note_on_c, 2, 71, 93
4, 13248, Note_off_c, 2, 71, 0
4, 13248, Note_on_c, 2, 72, 93
4, 13344, Note_off_c, 2, 72, 0
4, 13536, Note_on_c, 2, 73, 93
4, 13632, Note_off_c, 2, 73, 0
4, 13632, Note_on_c, 2, 73, 93
4, 13680, Note_off_c, 2, 73, 0
4, 13680, Note_on_c, 2, 75, 93
4, 13728, Note_off_c, 2, 75, 0
4, 13728, Note_on_c, 2, 76, 93
4, 13824, Note_off_c, 2, 76, 0
4, 13824, Note_on_c, 2, 75, 93
4, 13920, Note_off_c, 2, 75, 0
4, 13920, Note_on_c, 2, 73, 93
4, 14016, Note_off_c, 2, 73, 0
4, 14016, Note_on_c, 2, 72, 93
4, 14112, Note_off_c, 2, 72, 0
4, 14112, Note_on_c, 2, 73, 93
4, 14208, Note_off_c, 2, 73, 0
4, 14304, Note_on_c, 2, 69, 93
4, 14400, Note_off_c, 2, 69, 0
4, 14400, Note_on_c, 2, 64, 93
4, 14496, Note_off_c, 2, 64, 0
4, 14496, Note_on_c, 2, 66, 93
4, 14592, Note_off_c, 2, 66, 0
4, 14592, Note_on_c, 2, 68, 93
4, 14688, Note_off_c, 2, 68, 0
4, 14688, Note_on_c, 2, 61, 93
4, 14832, Note_off_c, 2, 61, 0
4, 16128, Note_on_c, 2, 61, 93
4, 16224, Note_off_c, 2, 61, 0
4, 18912, Note_on_c, 2, 71, 93
4, 19008, Note_off_c, 2, 71, 0
4, 19008, Note_on_c, 2, 73, 93
4, 19104, Note_off_c, 2, 73, 0
4, 19104, Note_on_c, 2, 71, 93
4, 19200, Note_off_c, 2, 71, 0
4, 19200, Note_on_c, 2, 66, 93
4, 19296, Note_off_c, 2, 66, 0
4, 19296, Note_on_c, 2, 71, 93
4, 19584, Note_off_c, 2, 71, 0
4, 29088, Note_on_c, 2, 71, 93
4, 29184, Note_off_c, 2, 71, 0
4, 29184, Note_on_c, 2, 74, 93
4, 29280, Note_off_c, 2, 74, 0
4, 29376, Note_on_c, 2, 71, 93
4, 29472, Note_off_c, 2, 71, 0
4, 29664, Note_on_c, 2, 69, 93
4, 29760, Note_off_c, 2, 69, 0
4, 32256, Note_on_c, 2, 71, 93
4, 32352, Note_off_c, 2, 71, 0
4, 32544, Note_on_c, 2, 69, 93
4, 32592, Note_off_c, 2, 69, 0
4, 32640, Note_on_c, 2, 69, 93
4, 32832, Note_off_c, 2, 69, 0
4, 32832, Note_on_c, 2, 68, 93
4, 32880, Note_off_c, 2, 68, 0
4, 32880, Note_on_c, 2, 71, 93
4, 32928, Note_off_c, 2, 71, 0
4, 32928, Note_on_c, 2, 73, 93
4, 32976, Note_off_c, 2, 73, 0
4, 32976, Note_on_c, 2, 69, 93
4, 33024, Note_off_c, 2, 69, 0
4, 33024, Note_on_c, 2, 66, 93
4, 33072, Note_off_c, 2, 66, 0
4, 33072, Note_on_c, 2, 75, 93
4, 33120, Note_off_c, 2, 75, 0
4, 33120, Note_on_c, 2, 76, 93
4, 33408, Note_off_c, 2, 76, 0
4, 33696, Note_on_c, 2, 71, 93
4, 33792, Note_off_c, 2, 71, 0
4, 33792, Note_on_c, 2, 74, 93
4, 33888, Note_off_c, 2, 74, 0
4, 33984, Note_on_c, 2, 71, 93
4, 34080, Note_off_c, 2, 71, 0
4, 34272, Note_on_c, 2, 69, 93
4, 34368, Note_off_c, 2, 69, 0
4, 36864, Note_on_c, 2, 71, 93
4, 36960, Note_off_c, 2, 71, 0
4, 37152, Note_on_c, 2, 69, 93
4, 37200, Note_off_c, 2, 69, 0
4, 37248, Note_on_c, 2, 69, 93
4, 37440, Note_off_c, 2, 69, 0
4, 37440, Note_on_c, 2, 68, 93
4, 37488, Note_off_c, 2, 68, 0
4, 37488, Note_on_c, 2, 71, 93
4, 37536, Note_off_c, 2, 71, 0
4, 37536, Note_on_c, 2, 73, 93
4, 37584, Note_off_c, 2, 73, 0
4, 37584, Note_on_c, 2, 69, 93
4, 37632, Note_off_c, 2, 69, 0
4, 37632, Note_on_c, 2, 66, 93
4, 37680, Note_off_c, 2, 66, 0
4, 37680, Note_on_c, 2, 75, 93
4, 37728, Note_off_c, 2, 75, 0
4, 37728, Note_on_c, 2, 76, 93
4, 38016, Note_off_c, 2, 76, 0
4, 38016, End_track
5, 0, Start_track
5, 0, Title_t, "Track5"
5, 0, Program_c, 3, 40
5, 0, Control_c, 3, 7, 100
5, 0, Control_c, 3, 10, 49
5, 6048, Note_on_c, 3, 68, 93
5, 6144, Note_off_c, 3, 68, 0
5, 6816, Note_on_c, 3, 73, 93
5, 6912, Note_off_c, 3, 73, 0
5, 6912, Note_on_c, 3, 73, 93
5, 7008, Note_off_c, 3, 73, 0
5, 7008, Note_on_c, 3, 73, 93
5, 7104, Note_off_c, 3, 73, 0
5, 7104, Note_on_c, 3, 72, 93
5, 7200, Note_off_c, 3, 72, 0
5, 7200, Note_on_c, 3, 73, 93
5, 7344, Note_off_c, 3, 73, 0
5, 13536, Note_on_c, 3, 68, 93
5, 13632, Note_off_c, 3, 68, 0
5, 14304, Note_on_c, 3, 73, 93
5, 14400, Note_off_c, 3, 73, 0
5, 14400, Note_on_c, 3, 73, 93
5, 14496, Note_off_c, 3, 73, 0
5, 14496, Note_on_c, 3, 73, 93
5, 14592, Note_off_c, 3, 73, 0
5, 14592, Note_on_c, 3, 72, 93
5, 14688, Note_off_c, 3, 72, 0
5, 14688, Note_on_c, 3, 73, 93
5, 14832, Note_off_c, 3, 73, 0
5, 14832, End_track
0, 0, End_of_file
