0, 0, Header, 1, 5, 96
1, 0, Start_track
1, 0, Time_signature, 4, 2, 24, 8
1, 0, Title_t, "untitled"
1, 0, Title_t, "Track1"
1, 0, End_track
2, 0, Start_track
2, 0, Title_t, "Track2"
2, 0, Program_c, 0, 40
2, 0, Control_c, 0, 7, 100
2, 0, Control_c, 0, 10, 69
2, 0, Note_on_c, 0, 79, 93
2, 108, Note_off_c, 0, 79, 0
2, 108, Note_on_c, 0, 77, 93
2, 120, Note_off_c, 0, 77, 0
2, 120, Note_on_c, 0, 75, 93
2, 132, Note_off_c, 0, 75, 0
2, 132, Note_on_c, 0, 74, 93
2, 144, Note_off_c, 0, 74, 0
2, 144, Note_on_c, 0, 72, 93
2, 156, Note_off_c, 0, 72, 0
2, 156, Note_on_c, 0, 70, 93
2, 168, Note_off_c, 0, 70, 0
2, 168, Note_on_c, 0, 69, 93
2, 180, Note_off_c, 0, 69, 0
2, 180, Note_on_c, 0, 70, 93
2, 186, Note_off_c, 0, 70, 0
2, 186, Note_on_c, 0, 67, 93
2, 192, Note_off_c, 0, 67, 0
2, 192, Note_on_c, 0, 67, 93
2, 240, Note_off_c, 0, 67, 0
2, 240, Note_on_c, 0, 66, 93
2, 300, Note_off_c, 0, 66, 0
2, 300, Note_on_c, 0, 64, 93
2, 312, Note_off_c, 0, 64, 0
2, 312, Note_on_c, 0, 62, 93
2, 324, Note_off_c, 0, 62, 0
2, 324, Note_on_c, 0, 64, 93
2, 336, Note_off_c, 0, 64, 0
2, 336, Note_on_c, 0, 66, 93
2, 348, Note_off_c, 0, 66, 0
2, 348, Note_on_c, 0, 67, 93
2, 360, Note_off_c, 0, 67, 0
2, 360, Note_on_c, 0, 69, 93
2, 372, Note_off_c, 0, 69, 0
2, 372, Note_on_c, 0, 72, 93
2, 378, Note_off_c, 0, 72, 0
2, 378, Note_on_c, 0, 70, 93
2, 384, Note_off_c, 0, 70, 0
2, 384, Note_on_c, 0, 72, 93
2, 444, Note_off_c, 0, 72, 0
2, 444, Note_on_c, 0, 74, 93
2, 450, Note_off_c, 0, 74, 0
2, 450, Note_on_c, 0, 72, 93
2, 456, Note_off_c, 0, 72, 0
2, 456, Note_on_c, 0, 70, 93
2, 468, Note_off_c, 0, 70, 0
2, 468, Note_on_c, 0, 72, 93
2, 480, Note_off_c, 0, 72, 0
2, 480, Note_on_c, 0, 72, 93
2, 516, Note_off_c, 0, 72, 0
2, 516, Note_on_c, 0, 70, 93
2, 522, Note_off_c, 0, 70, 0
2, 522, Note_on_c, 0, 72, 93
2, 528, Note_off_c, 0, 72, 0
2, 528, Note_on_c, 0, 74, 93
2, 552, Note_off_c, 0, 74, 0
2, 552, Note_on_c, 0, 69, 93
2, 576, Note_off_c, 0, 69, 0
2, 576, Note_on_c, 0, 70, 93
2, 624, Note_off_c, 0, 70, 0
2, 636, Note_on_c, 0, 67, 93
2, 648, Note_off_c, 0, 67, 0
2, 648, Note_on_c, 0, 69, 93
2, 654, Note_off_c, 0, 69, 0
2, 654, Note_on_c, 0, 70, 93
2, 660, Note_off_c, 0, 70, 0
2, 660, Note_on_c, 0, 72, 93
2, 666, Note_off_c, 0, 72, 0
2, 666, Note_on_c, 0, 74, 93
2, 672, Note_off_c, 0, 74, 0
2, 672, Note_on_c, 0, 75, 93
2, 720, Note_off_c, 0, 75, 0
2, 720, Note_on_c, 0, 70, 93
2, 768, Note_off_c, 0, 70, 0
2, 768, Note_on_c, 0, 70, 93
2, 792, Note_off_c, 0, 70, 0
2, 792, Note_on_c, 0, 69, 93
2, 816, Note_off_c, 0, 69, 0
2, 816, Note_on_c, 0, 75, 93
2, 840, Note_off_c, 0, 75, 0
2, 840, Note_on_c, 0, 74, 93
2, 864, Note_off_c, 0, 74, 0
2, 864, Note_on_c, 0, 74, 93
2, 912, Note_off_c, 0, 74, 0
2, 912, Note_on_c, 0, 82, 93
2, 936, Note_off_c, 0, 82, 0
2, 936, Note_on_c, 0, 78, 93
2, 960, Note_off_c, 0, 78, 0
2, 960, Note_on_c, 0, 79, 93
2, 996, Note_off_c, 0, 79, 0
2, 996, Note_on_c, 0, 75, 93
2, 1008, Note_off_c, 0, 75, 0
2, 1008, Note_on_c, 0, 74, 93
2, 1020, Note_off_c, 0, 74, 0
2, 1020, Note_on_c, 0, 72, 93
2, 1032, Note_off_c, 0, 72, 0
2, 1032, Note_on_c, 0, 70, 93
2, 1044, Note_off_c, 0, 70, 0
2, 1044, Note_on_c, 0, 72, 93
2, 1050, Note_off_c, 0, 72, 0
2, 1050, Note_on_c, 0, 69, 93
2, 1056, Note_off_c, 0, 69, 0
2, 1056, Note_on_c, 0, 70, 93
2, 1068, Note_off_c, 0, 70, 0
2, 1068, Note_on_c, 0, 66, 93
2, 1080, Note_off_c, 0, 66, 0
2, 1080, Note_on_c, 0, 67, 93
2, 1092, Note_off_c, 0, 67, 0
2, 1092, Note_on_c, 0, 62, 93
2, 1104, Note_off_c, 0, 62, 0
2, 1104, Note_on_c, 0, 63, 93
2, 1116, Note_off_c, 0, 63, 0
2, 1116, Note_on_c, 0, 74, 93
2, 1122, Note_off_c, 0, 74, 0
2, 1122, Note_on_c, 0, 72, 93
2, 1128, Note_off_c, 0, 72, 0
2, 1128, Note_on_c, 0, 70, 93
2, 1134, Note_off_c, 0, 70, 0
2, 1134, Note_on_c, 0, 72, 93
2, 1140, Note_off_c, 0, 72, 0
2, 1140, Note_on_c, 0, 72, 93
2, 1146, Note_off_c, 0, 72, 0
2, 1146, Note_on_c, 0, 72, 93
2, 1152, Note_off_c, 0, 72, 0
2, 1152, Note_on_c, 0, 79, 93
2, 1200, Note_off_c, 0, 79, 0
2, 1200, Note_on_c, 0, 78, 93
2, 1248, Note_off_c, 0, 78, 0
2, 1248, Note_on_c, 0, 81, 93
2, 1296, Note_off_c, 0, 81, 0
2, 1296, Note_on_c, 0, 72, 93
2, 1344, Note_off_c, 0, 72, 0
2, 1344, Note_on_c, 0, 70, 93
2, 1368, Note_off_c, 0, 70, 0
2, 1368, Note_on_c, 0, 74, 93
2, 1392, Note_off_c, 0, 74, 0
2, 1392, Note_on_c, 0, 78, 93
2, 1416, Note_off_c, 0, 78, 0
2, 1416, Note_on_c, 0, 81, 93
2, 1440, Note_off_c, 0, 81, 0
2, 1440, Note_on_c, 0, 79, 93
2, 1488, Note_off_c, 0, 79, 0
2, 1488, Note_on_c, 0, 70, 93
2, 1536, Note_off_c, 0, 70, 0
2, 1536, Note_on_c, 0, 69, 93
2, 1560, Note_off_c, 0, 69, 0
2, 1560, Note_on_c, 0, 82, 93
2, 1572, Note_off_c, 0, 82, 0
2, 1572, Note_on_c, 0, 81, 93
2, 1578, Note_off_c, 0, 81, 0
2, 1578, Note_on_c, 0, 79, 93
2, 1584, Note_off_c, 0, 79, 0
2, 1584, Note_on_c, 0, 77, 93
2, 1620, Note_off_c, 0, 77, 0
2, 1620, Note_on_c, 0, 76, 93
2, 1632, Note_off_c, 0, 76, 0
2, 1632, Note_on_c, 0, 77, 93
2, 1680, Note_off_c, 0, 77, 0
2, 1680, Note_on_c, 0, 69, 93
2, 1728, Note_off_c, 0, 69, 0
2, 1728, Note_on_c, 0, 77, 93
2, 1752, Note_off_c, 0, 77, 0
2, 1752, Note_on_c, 0, 74, 93
2, 1776, Note_off_c, 0, 74, 0
2, 1776, Note_on_c, 0, 75, 93
2, 1824, Note_off_c, 0, 75, 0
2, 1824, Note_on_c, 0, 82, 93
2, 1848, Note_off_c, 0, 82, 0
2, 1848, Note_on_c, 0, 79, 93
2, 1872, Note_off_c, 0, 79, 0
2, 1872, Note_on_c, 0, 79, 93
2, 1896, Note_off_c, 0, 79, 0
2, 1896, Note_on_c, 0, 75, 93
2, 1920, Note_off_c, 0, 75, 0
2, 1920, Note_on_c, 0, 75, 93
2, 1944, Note_off_c, 0, 75, 0
2, 1944, Note_on_c, 0, 73, 93
2, 1968, Note_off_c, 0, 73, 0
2, 1968, Note_on_c, 0, 81, 93
2, 2016, Note_off_c, 0, 81, 0
2, 2016, Note_on_c, 0, 65, 93
2, 2052, Note_off_c, 0, 65, 0
2, 2052, Note_on_c, 0, 81, 93
2, 2064, Note_off_c, 0, 81, 0
2, 2064, Note_on_c, 0, 79, 93
2, 2076, Note_off_c, 0, 79, 0
2, 2076, Note_on_c, 0, 77, 93
2, 2088, Note_off_c, 0, 77, 0
2, 2088, Note_on_c, 0, 76, 93
2, 2100, Note_off_c, 0, 76, 0
2, 2100, Note_on_c, 0, 74, 93
2, 2112, Note_off_c, 0, 74, 0
2, 2112, Note_on_c, 0, 64, 93
2, 2136, Note_off_c, 0, 64, 0
2, 2136, Note_on_c, 0, 74, 93
2, 2160, Note_off_c, 0, 74, 0
2, 2160, Note_on_c, 0, 79, 93
2, 2184, Note_off_c, 0, 79, 0
2, 2184, Note_on_c, 0, 76, 93
2, 2208, Note_off_c, 0, 76, 0
2, 2208, Note_on_c, 0, 74, 93
2, 2232, Note_off_c, 0, 74, 0
2, 2232, Note_on_c, 0, 73, 93
2, 2256, Note_off_c, 0, 73, 0
2, 2256, Note_on_c, 0, 69, 93
2, 2280, Note_off_c, 0, 69, 0
2, 2280, Note_on_c, 0, 79, 93
2, 2304, Note_off_c, 0, 79, 0
2, 2304, Note_on_c, 0, 62, 93
2, 2328, Note_off_c, 0, 62, 0
2, 2328, Note_on_c, 0, 79, 93
2, 2352, Note_off_c, 0, 79, 0
2, 2352, Note_on_c, 0, 77, 93
2, 2376, Note_off_c, 0, 77, 0
2, 2376, Note_on_c, 0, 79, 93
2, 2388, Note_off_c, 0, 79, 0
2, 2388, Note_on_c, 0, 76, 93
2, 2400, Note_off_c, 0, 76, 0
2, 2400, Note_on_c, 0, 77, 93
2, 2448, Note_off_c, 0, 77, 0
2, 2448, Note_on_c, 0, 69, 93
2, 2496, Note_off_c, 0, 69, 0
2, 2496, Note_on_c, 0, 69, 93
2, 2520, Note_off_c, 0, 69, 0
2, 2520, Note_on_c, 0, 62, 93
2, 2544, Note_off_c, 0, 62, 0
2, 2544, Note_on_c, 0, 67, 93
2, 2568, Note_off_c, 0, 67, 0
2, 2568, Note_on_c, 0, 77, 93
2, 2592, Note_off_c, 0, 77, 0
2, 2592, Note_on_c, 0, 76, 93
2, 2646, Note_off_c, 0, 76, 0
2, 2646, Note_on_c, 0, 77, 93
2, 2652, Note_off_c, 0, 77, 0
2, 2652, Note_on_c, 0, 79, 93
2, 2658, Note_off_c, 0, 79, 0
2, 2658, Note_on_c, 0, 81, 93
2, 2664, Note_off_c, 0, 81, 0
2, 2664, Note_on_c, 0, 82, 93
2, 2670, Note_off_c, 0, 82, 0
2, 2670, Note_on_c, 0, 76, 93
2, 2676, Note_off_c, 0, 76, 0
2, 2676, Note_on_c, 0, 77, 93
2, 2682, Note_off_c, 0, 77, 0
2, 2682, Note_on_c, 0, 79, 93
2, 2688, Note_off_c, 0, 79, 0
2, 2688, Note_on_c, 0, 74, 93
2, 2736, Note_off_c, 0, 74, 0
2, 2736, Note_on_c, 0, 73, 93
2, 2784, Note_off_c, 0, 73, 0
2, 2784, Note_on_c, 0, 67, 93
2, 2796, Note_off_c, 0, 67, 0
2, 2796, Note_on_c, 0, 65, 93
2, 2820, Note_off_c, 0, 65, 0
2, 2820, Note_on_c, 0, 67, 93
2, 2826, Note_off_c, 0, 67, 0
2, 2826, Note_on_c, 0, 64, 93
2, 2832, Note_off_c, 0, 64, 0
2, 2832, Note_on_c, 0, 65, 93
2, 2856, Note_off_c, 0, 65, 0
2, 2856, Note_on_c, 0, 74, 93
2, 2880, Note_off_c, 0, 74, 0
2, 2880, Note_on_c, 0, 74, 93
2, 2898, Note_off_c, 0, 74, 0
2, 2898, Note_on_c, 0, 73, 93
2, 2904, Note_off_c, 0, 73, 0
2, 2904, Note_on_c, 0, 71, 93
2, 2916, Note_off_c, 0, 71, 0
2, 2916, Note_on_c, 0, 73, 93
2, 2928, Note_off_c, 0, 73, 0
2, 2928, Note_on_c, 0, 74, 93
2, 2940, Note_off_c, 0, 74, 0
2, 2940, Note_on_c, 0, 76, 93
2, 2952, Note_off_c, 0, 76, 0
2, 2952, Note_on_c, 0, 77, 93
2, 2964, Note_off_c, 0, 77, 0
2, 2964, Note_on_c, 0, 79, 93
2, 2970, Note_off_c, 0, 79, 0
2, 2970, Note_on_c, 0, 76, 93
2, 2976, Note_off_c, 0, 76, 0
2, 2976, Note_on_c, 0, 73, 93
2, 3048, Note_off_c, 0, 73, 0
2, 3048, Note_on_c, 0, 74, 93
2, 3072, Note_off_c, 0, 74, 0
2, 3072, Note_on_c, 0, 74, 93
2, 3180, Note_off_c, 0, 74, 0
2, 3180, Note_on_c, 0, 74, 93
2, 3192, Note_off_c, 0, 74, 0
2, 3192, Note_on_c, 0, 72, 93
2, 3204, Note_off_c, 0, 72, 0
2, 3204, Note_on_c, 0, 70, 93
2, 3216, Note_off_c, 0, 70, 0
2, 3216, Note_on_c, 0, 69, 93
2, 3222, Note_off_c, 0, 69, 0
2, 3222, Note_on_c, 0, 70, 93
2, 3228, Note_off_c, 0, 70, 0
2, 3228, Note_on_c, 0, 69, 93
2, 3234, Note_off_c, 0, 69, 0
2, 3234, Note_on_c, 0, 70, 93
2, 3240, Note_off_c, 0, 70, 0
2, 3240, Note_on_c, 0, 70, 93
2, 3252, Note_off_c, 0, 70, 0
2, 3252, Note_on_c, 0, 69, 93
2, 3258, Note_off_c, 0, 69, 0
2, 3258, Note_on_c, 0, 70, 93
2, 3264, Note_off_c, 0, 70, 0
2, 3264, Note_on_c, 0, 72, 93
2, 3288, Note_off_c, 0, 72, 0
2, 3288, Note_on_c, 0, 75, 93
2, 3300, Note_off_c, 0, 75, 0
2, 3300, Note_on_c, 0, 74, 93
2, 3312, Note_off_c, 0, 74, 0
2, 3312, Note_on_c, 0, 75, 93
2, 3372, Note_off_c, 0, 75, 0
2, 3372, Note_on_c, 0, 75, 93
2, 3384, Note_off_c, 0, 75, 0
2, 3384, Note_on_c, 0, 74, 93
2, 3396, Note_off_c, 0, 74, 0
2, 3396, Note_on_c, 0, 72, 93
2, 3408, Note_off_c, 0, 72, 0
2, 3408, Note_on_c, 0, 70, 93
2, 3432, Note_off_c, 0, 70, 0
2, 3432, Note_on_c, 0, 72, 93
2, 3444, Note_off_c, 0, 72, 0
2, 3444, Note_on_c, 0, 69, 93
2, 3456, Note_off_c, 0, 69, 0
2, 3456, Note_on_c, 0, 69, 93
2, 3468, Note_off_c, 0, 69, 0
2, 3468, Note_on_c, 0, 70, 93
2, 3516, Note_off_c, 0, 70, 0
2, 3516, Note_on_c, 0, 67, 93
2, 3528, Note_off_c, 0, 67, 0
2, 3528, Note_on_c, 0, 70, 93
2, 3540, Note_off_c, 0, 70, 0
2, 3540, Note_on_c, 0, 74, 93
2, 3552, Note_off_c, 0, 74, 0
2, 3552, Note_on_c, 0, 79, 93
2, 3564, Note_off_c, 0, 79, 0
2, 3564, Note_on_c, 0, 77, 93
2, 3576, Note_off_c, 0, 77, 0
2, 3576, Note_on_c, 0, 75, 93
2, 3588, Note_off_c, 0, 75, 0
2, 3588, Note_on_c, 0, 74, 93
2, 3600, Note_off_c, 0, 74, 0
2, 3600, Note_on_c, 0, 72, 93
2, 3612, Note_off_c, 0, 72, 0
2, 3612, Note_on_c, 0, 70, 93
2, 3624, Note_off_c, 0, 70, 0
2, 3624, Note_on_c, 0, 69, 93
2, 3630, Note_off_c, 0, 69, 0
2, 3630, Note_on_c, 0, 67, 93
2, 3636, Note_off_c, 0, 67, 0
2, 3636, Note_on_c, 0, 66, 93
2, 3642, Note_off_c, 0, 66, 0
2, 3642, Note_on_c, 0, 67, 93
2, 3648, Note_off_c, 0, 67, 0
2, 3648, Note_on_c, 0, 67, 93
2, 3696, Note_off_c, 0, 67, 0
2, 3696, Note_on_c, 0, 66, 93
2, 3744, Note_off_c, 0, 66, 0
2, 3744, Note_on_c, 0, 65, 93
2, 3780, Note_off_c, 0, 65, 0
2, 3780, Note_on_c, 0, 67, 93
2, 3786, Note_off_c, 0, 67, 0
2, 3786, Note_on_c, 0, 68, 93
2, 3792, Note_off_c, 0, 68, 0
2, 3792, Note_on_c, 0, 67, 93
2, 3804, Note_off_c, 0, 67, 0
2, 3804, Note_on_c, 0, 65, 93
2, 3816, Note_off_c, 0, 65, 0
2, 3816, Note_on_c, 0, 63, 93
2, 3828, Note_off_c, 0, 63, 0
2, 3828, Note_on_c, 0, 65, 93
2, 3834, Note_off_c, 0, 65, 0
2, 3834, Note_on_c, 0, 62, 93
2, 3840, Note_off_c, 0, 62, 0
2, 3840, Note_on_c, 0, 71, 93
2, 3864, Note_off_c, 0, 71, 0
2, 3864, Note_on_c, 0, 74, 93
2, 3888, Note_off_c, 0, 74, 0
2, 3888, Note_on_c, 0, 74, 93
2, 3912, Note_off_c, 0, 74, 0
2, 3912, Note_on_c, 0, 72, 93
2, 3936, Note_off_c, 0, 72, 0
2, 3936, Note_on_c, 0, 75, 93
2, 3960, Note_off_c, 0, 75, 0
2, 3960, Note_on_c, 0, 74, 93
2, 3984, Note_off_c, 0, 74, 0
2, 3984, Note_on_c, 0, 74, 93
2, 4008, Note_off_c, 0, 74, 0
2, 4008, Note_on_c, 0, 75, 93
2, 4032, Note_off_c, 0, 75, 0
2, 4032, Note_on_c, 0, 74, 93
2, 4068, Note_off_c, 0, 74, 0
2, 4068, Note_on_c, 0, 70, 93
2, 4080, Note_off_c, 0, 70, 0
2, 4080, Note_on_c, 0, 72, 93
2, 4092, Note_off_c, 0, 72, 0
2, 4092, Note_on_c, 0, 74, 93
2, 4104, Note_off_c, 0, 74, 0
2, 4104, Note_on_c, 0, 75, 93
2, 4116, Note_off_c, 0, 75, 0
2, 4116, Note_on_c, 0, 77, 93
2, 4122, Note_off_c, 0, 77, 0
2, 4122, Note_on_c, 0, 79, 93
2, 4128, Note_off_c, 0, 79, 0
2, 4128, Note_on_c, 0, 80, 93
2, 4152, Note_off_c, 0, 80, 0
2, 4152, Note_on_c, 0, 70, 93
2, 4176, Note_off_c, 0, 70, 0
2, 4176, Note_on_c, 0, 62, 93
2, 4200, Note_off_c, 0, 62, 0
2, 4200, Note_on_c, 0, 80, 93
2, 4224, Note_off_c, 0, 80, 0
2, 4224, Note_on_c, 0, 63, 93
2, 4248, Note_off_c, 0, 63, 0
2, 4248, Note_on_c, 0, 80, 93
2, 4272, Note_off_c, 0, 80, 0
2, 4272, Note_on_c, 0, 79, 93
2, 4320, Note_off_c, 0, 79, 0
2, 4320, Note_on_c, 0, 73, 93
2, 4368, Note_off_c, 0, 73, 0
2, 4368, Note_on_c, 0, 63, 93
2, 4380, Note_off_c, 0, 63, 0
2, 4380, Note_on_c, 0, 67, 93
2, 4392, Note_off_c, 0, 67, 0
2, 4392, Note_on_c, 0, 70, 93
2, 4404, Note_off_c, 0, 70, 0
2, 4404, Note_on_c, 0, 73, 93
2, 4416, Note_off_c, 0, 73, 0
2, 4416, Note_on_c, 0, 56, 93
2, 4440, Note_off_c, 0, 56, 0
2, 4440, Note_on_c, 0, 72, 93
2, 4464, Note_off_c, 0, 72, 0
2, 4464, Note_on_c, 0, 80, 93
2, 4488, Note_off_c, 0, 80, 0
2, 4488, Note_on_c, 0, 79, 93
2, 4500, Note_off_c, 0, 79, 0
2, 4500, Note_on_c, 0, 77, 93
2, 4512, Note_off_c, 0, 77, 0
2, 4512, Note_on_c, 0, 75, 93
2, 4560, Note_off_c, 0, 75, 0
2, 4560, Note_on_c, 0, 74, 93
2, 4596, Note_off_c, 0, 74, 0
2, 4596, Note_on_c, 0, 75, 93
2, 4608, Note_off_c, 0, 75, 0
2, 4608, Note_on_c, 0, 75, 93
2, 4704, Note_off_c, 0, 75, 0
2, 4704, Note_on_c, 0, 59, 93
2, 4716, Note_off_c, 0, 59, 0
2, 4716, Note_on_c, 0, 62, 93
2, 4728, Note_off_c, 0, 62, 0
2, 4728, Note_on_c, 0, 65, 93
2, 4740, Note_off_c, 0, 65, 0
2, 4740, Note_on_c, 0, 68, 93
2, 4752, Note_off_c, 0, 68, 0
2, 4752, Note_on_c, 0, 71, 93
2, 4764, Note_off_c, 0, 71, 0
2, 4764, Note_on_c, 0, 74, 93
2, 4776, Note_off_c, 0, 74, 0
2, 4776, Note_on_c, 0, 77, 93
2, 4788, Note_off_c, 0, 77, 0
2, 4788, Note_on_c, 0, 80, 93
2, 4794, Note_off_c, 0, 80, 0
2, 4794, Note_on_c, 0, 79, 93
2, 4800, Note_off_c, 0, 79, 0
2, 4800, Note_on_c, 0, 79, 93
2, 4836, Note_off_c, 0, 79, 0
2, 4836, Note_on_c, 0, 80, 93
2, 4842, Note_off_c, 0, 80, 0
2, 4842, Note_on_c, 0, 79, 93
2, 4848, Note_off_c, 0, 79, 0
2, 4848, Note_on_c, 0, 78, 93
2, 4854, Note_off_c, 0, 78, 0
2, 4854, Note_on_c, 0, 79, 93
2, 4860, Note_off_c, 0, 79, 0
2, 4860, Note_on_c, 0, 74, 93
2, 4866, Note_off_c, 0, 74, 0
2, 4866, Note_on_c, 0, 75, 93
2, 4872, Note_off_c, 0, 75, 0
2, 4872, Note_on_c, 0, 71, 93
2, 4878, Note_off_c, 0, 71, 0
2, 4878, Note_on_c, 0, 72, 93
2, 4884, Note_off_c, 0, 72, 0
2, 4884, Note_on_c, 0, 66, 93
2, 4896, Note_off_c, 0, 66, 0
2, 4896, Note_on_c, 0, 67, 93
2, 4908, Note_off_c, 0, 67, 0
2, 4908, Note_on_c, 0, 75, 93
2, 4932, Note_off_c, 0, 75, 0
2, 4932, Note_on_c, 0, 74, 93
2, 4956, Note_off_c, 0, 74, 0
2, 4956, Note_on_c, 0, 72, 93
2, 4962, Note_off_c, 0, 72, 0
2, 4962, Note_on_c, 0, 71, 93
2, 4968, Note_off_c, 0, 71, 0
2, 4968, Note_on_c, 0, 72, 93
2, 4992, Note_off_c, 0, 72, 0
2, 4992, Note_on_c, 0, 72, 93
2, 5028, Note_off_c, 0, 72, 0
2, 5028, Note_on_c, 0, 70, 93
2, 5034, Note_off_c, 0, 70, 0
2, 5034, Note_on_c, 0, 68, 93
2, 5040, Note_off_c, 0, 68, 0
2, 5040, Note_on_c, 0, 67, 93
2, 5052, Note_off_c, 0, 67, 0
2, 5052, Note_on_c, 0, 65, 93
2, 5064, Note_off_c, 0, 65, 0
2, 5064, Note_on_c, 0, 63, 93
2, 5076, Note_off_c, 0, 63, 0
2, 5076, Note_on_c, 0, 62, 93
2, 5088, Note_off_c, 0, 62, 0
2, 5088, Note_on_c, 0, 60, 93
2, 5100, Note_off_c, 0, 60, 0
2, 5100, Note_on_c, 0, 59, 93
2, 5112, Note_off_c, 0, 59, 0
2, 5112, Note_on_c, 0, 60, 93
2, 5124, Note_off_c, 0, 60, 0
2, 5124, Note_on_c, 0, 55, 93
2, 5136, Note_off_c, 0, 55, 0
2, 5136, Note_on_c, 0, 60, 93
2, 5148, Note_off_c, 0, 60, 0
2, 5148, Note_on_c, 0, 63, 93
2, 5160, Note_off_c, 0, 63, 0
2, 5160, Note_on_c, 0, 67, 93
2, 5172, Note_off_c, 0, 67, 0
2, 5172, Note_on_c, 0, 72, 93
2, 5184, Note_off_c, 0, 72, 0
2, 5184, Note_on_c, 0, 62, 93
2, 5208, Note_off_c, 0, 62, 0
2, 5208, Note_on_c, 0, 72, 93
2, 5220, Note_off_c, 0, 72, 0
2, 5220, Note_on_c, 0, 77, 93
2, 5232, Note_off_c, 0, 77, 0
2, 5232, Note_on_c, 0, 71, 93
2, 5292, Note_off_c, 0, 71, 0
2, 5292, Note_on_c, 0, 69, 93
2, 5304, Note_off_c, 0, 69, 0
2, 5304, Note_on_c, 0, 67, 93
2, 5316, Note_off_c, 0, 67, 0
2, 5316, Note_on_c, 0, 69, 93
2, 5328, Note_off_c, 0, 69, 0
2, 5328, Note_on_c, 0, 71, 93
2, 5340, Note_off_c, 0, 71, 0
2, 5340, Note_on_c, 0, 72, 93
2, 5352, Note_off_c, 0, 72, 0
2, 5352, Note_on_c, 0, 74, 93
2, 5364, Note_off_c, 0, 74, 0
2, 5364, Note_on_c, 0, 77, 93
2, 5370, Note_off_c, 0, 77, 0
2, 5370, Note_on_c, 0, 75, 93
2, 5376, Note_off_c, 0, 75, 0
2, 5376, Note_on_c, 0, 77, 93
2, 5484, Note_off_c, 0, 77, 0
2, 5484, Note_on_c, 0, 80, 93
2, 5496, Note_off_c, 0, 80, 0
2, 5496, Note_on_c, 0, 79, 93
2, 5508, Note_off_c, 0, 79, 0
2, 5508, Note_on_c, 0, 77, 93
2, 5520, Note_off_c, 0, 77, 0
2, 5520, Note_on_c, 0, 79, 93
2, 5532, Note_off_c, 0, 79, 0
2, 5532, Note_on_c, 0, 77, 93
2, 5544, Note_off_c, 0, 77, 0
2, 5544, Note_on_c, 0, 75, 93
2, 5556, Note_off_c, 0, 75, 0
2, 5556, Note_on_c, 0, 74, 93
2, 5568, Note_off_c, 0, 74, 0
2, 5568, Note_on_c, 0, 75, 93
2, 5616, Note_off_c, 0, 75, 0
2, 5628, Note_on_c, 0, 72, 93
2, 5640, Note_off_c, 0, 72, 0
2, 5640, Note_on_c, 0, 74, 93
2, 5646, Note_off_c, 0, 74, 0
2, 5646, Note_on_c, 0, 75, 93
2, 5652, Note_off_c, 0, 75, 0
2, 5652, Note_on_c, 0, 77, 93
2, 5658, Note_off_c, 0, 77, 0
2, 5658, Note_on_c, 0, 79, 93
2, 5664, Note_off_c, 0, 79, 0
2, 5664, Note_on_c, 0, 80, 93
2, 5712, Note_off_c, 0, 80, 0
2, 5712, Note_on_c, 0, 75, 93
2, 5760, Note_off_c, 0, 75, 0
2, 5760, Note_on_c, 0, 75, 93
2, 5784, Note_off_c, 0, 75, 0
2, 5784, Note_on_c, 0, 74, 93
2, 5808, Note_off_c, 0, 74, 0
2, 5808, Note_on_c, 0, 80, 93
2, 5832, Note_off_c, 0, 80, 0
2, 5832, Note_on_c, 0, 79, 93
2, 5856, Note_off_c, 0, 79, 0
2, 5856, Note_on_c, 0, 79, 93
2, 5904, Note_off_c, 0, 79, 0
2, 5904, Note_on_c, 0, 75, 93
2, 5928, Note_off_c, 0, 75, 0
2, 5928, Note_on_c, 0, 71, 93
2, 5952, Note_off_c, 0, 71, 0
2, 5952, Note_on_c, 0, 72, 93
2, 5988, Note_off_c, 0, 72, 0
2, 5988, Note_on_c, 0, 70, 93
2, 6000, Note_off_c, 0, 70, 0
2, 6000, Note_on_c, 0, 68, 93
2, 6012, Note_off_c, 0, 68, 0
2, 6012, Note_on_c, 0, 67, 93
2, 6024, Note_off_c, 0, 67, 0
2, 6024, Note_on_c, 0, 68, 93
2, 6036, Note_off_c, 0, 68, 0
2, 6036, Note_on_c, 0, 72, 93
2, 6048, Note_off_c, 0, 72, 0
2, 6048, Note_on_c, 0, 77, 93
2, 6060, Note_off_c, 0, 77, 0
2, 6060, Note_on_c, 0, 79, 93
2, 6072, Note_off_c, 0, 79, 0
2, 6072, Note_on_c, 0, 75, 93
2, 6084, Note_off_c, 0, 75, 0
2, 6084, Note_on_c, 0, 77, 93
2, 6096, Note_off_c, 0, 77, 0
2, 6096, Note_on_c, 0, 77, 93
2, 6132, Note_off_c, 0, 77, 0
2, 6132, Note_on_c, 0, 75, 93
2, 6138, Note_off_c, 0, 75, 0
2, 6138, Note_on_c, 0, 77, 93
2, 6144, Note_off_c, 0, 77, 0
2, 6144, Note_on_c, 0, 79, 93
2, 6240, Note_off_c, 0, 79, 0
2, 6240, Note_on_c, 0, 77, 93
2, 6288, Note_off_c, 0, 77, 0
2, 6288, Note_on_c, 0, 77, 93
2, 6336, Note_off_c, 0, 77, 0
2, 6336, Note_on_c, 0, 67, 93
2, 6348, Note_off_c, 0, 67, 0
2, 6348, Note_on_c, 0, 71, 93
2, 6360, Note_off_c, 0, 71, 0
2, 6360, Note_on_c, 0, 74, 93
2, 6372, Note_off_c, 0, 74, 0
2, 6372, Note_on_c, 0, 77, 93
2, 6384, Note_off_c, 0, 77, 0
2, 6384, Note_on_c, 0, 80, 93
2, 6408, Note_off_c, 0, 80, 0
2, 6408, Note_on_c, 0, 79, 93
2, 6432, Note_off_c, 0, 79, 0
2, 6432, Note_on_c, 0, 75, 93
2, 6480, Note_off_c, 0, 75, 0
2, 6480, Note_on_c, 0, 75, 93
2, 6528, Note_off_c, 0, 75, 0
2, 6528, Note_on_c, 0, 75, 93
2, 6564, Note_off_c, 0, 75, 0
2, 6564, Note_on_c, 0, 74, 93
2, 6576, Note_off_c, 0, 74, 0
2, 6576, Note_on_c, 0, 72, 93
2, 6588, Note_off_c, 0, 72, 0
2, 6588, Note_on_c, 0, 74, 93
2, 6600, Note_off_c, 0, 74, 0
2, 6600, Note_on_c, 0, 72, 93
2, 6606, Note_off_c, 0, 72, 0
2, 6606, Note_on_c, 0, 70, 93
2, 6612, Note_off_c, 0, 70, 0
2, 6612, Note_on_c, 0, 72, 93
2, 6618, Note_off_c, 0, 72, 0
2, 6618, Note_on_c, 0, 69, 93
2, 6624, Note_off_c, 0, 69, 0
2, 6624, Note_on_c, 0, 70, 93
2, 6654, Note_off_c, 0, 70, 0
2, 6654, Note_on_c, 0, 69, 93
2, 6660, Note_off_c, 0, 69, 0
2, 6660, Note_on_c, 0, 67, 93
2, 6666, Note_off_c, 0, 67, 0
2, 6666, Note_on_c, 0, 66, 93
2, 6672, Note_off_c, 0, 66, 0
2, 6672, Note_on_c, 0, 67, 93
2, 6684, Note_off_c, 0, 67, 0
2, 6684, Note_on_c, 0, 62, 93
2, 6696, Note_off_c, 0, 62, 0
2, 6696, Note_on_c, 0, 58, 93
2, 6708, Note_off_c, 0, 58, 0
2, 6708, Note_on_c, 0, 55, 93
2, 6720, Note_off_c, 0, 55, 0
2, 6720, Note_on_c, 0, 60, 93
2, 6732, Note_off_c, 0, 60, 0
2, 6732, Note_on_c, 0, 63, 93
2, 6744, Note_off_c, 0, 63, 0
2, 6744, Note_on_c, 0, 70, 93
2, 6756, Note_off_c, 0, 70, 0
2, 6756, Note_on_c, 0, 67, 93
2, 6768, Note_off_c, 0, 67, 0
2, 6768, Note_on_c, 0, 68, 93
2, 6816, Note_off_c, 0, 68, 0
2, 6816, Note_on_c, 0, 75, 93
2, 6840, Note_off_c, 0, 75, 0
2, 6840, Note_on_c, 0, 72, 93
2, 6864, Note_off_c, 0, 72, 0
2, 6864, Note_on_c, 0, 80, 93
2, 6888, Note_off_c, 0, 80, 0
2, 6888, Note_on_c, 0, 78, 93
2, 6912, Note_off_c, 0, 78, 0
2, 6912, Note_on_c, 0, 78, 93
2, 6924, Note_off_c, 0, 78, 0
2, 6924, Note_on_c, 0, 79, 93
2, 6936, Note_off_c, 0, 79, 0
2, 6936, Note_on_c, 0, 81, 93
2, 6948, Note_off_c, 0, 81, 0
2, 6948, Note_on_c, 0, 78, 93
2, 6960, Note_off_c, 0, 78, 0
2, 6960, Note_on_c, 0, 74, 93
2, 7008, Note_off_c, 0, 74, 0
2, 7008, Note_on_c, 0, 58, 93
2, 7044, Note_off_c, 0, 58, 0
2, 7044, Note_on_c, 0, 74, 93
2, 7056, Note_off_c, 0, 74, 0
2, 7056, Note_on_c, 0, 72, 93
2, 7068, Note_off_c, 0, 72, 0
2, 7068, Note_on_c, 0, 70, 93
2, 7080, Note_off_c, 0, 70, 0
2, 7080, Note_on_c, 0, 69, 93
2, 7092, Note_off_c, 0, 69, 0
2, 7092, Note_on_c, 0, 70, 93
2, 7098, Note_off_c, 0, 70, 0
2, 7098, Note_on_c, 0, 67, 93
2, 7104, Note_off_c, 0, 67, 0
2, 7104, Note_on_c, 0, 57, 93
2, 7128, Note_off_c, 0, 57, 0
2, 7128, Note_on_c, 0, 67, 93
2, 7152, Note_off_c, 0, 67, 0
2, 7152, Note_on_c, 0, 72, 93
2, 7176, Note_off_c, 0, 72, 0
2, 7176, Note_on_c, 0, 69, 93
2, 7200, Note_off_c, 0, 69, 0
2, 7200, Note_on_c, 0, 67, 93
2, 7224, Note_off_c, 0, 67, 0
2, 7224, Note_on_c, 0, 66, 93
2, 7248, Note_off_c, 0, 66, 0
2, 7248, Note_on_c, 0, 62, 93
2, 7272, Note_off_c, 0, 62, 0
2, 7272, Note_on_c, 0, 72, 93
2, 7296, Note_off_c, 0, 72, 0
2, 7296, Note_on_c, 0, 55, 93
2, 7332, Note_off_c, 0, 55, 0
2, 7332, Note_on_c, 0, 72, 93
2, 7344, Note_off_c, 0, 72, 0
2, 7344, Note_on_c, 0, 70, 93
2, 7368, Note_off_c, 0, 70, 0
2, 7368, Note_on_c, 0, 72, 93
2, 7380, Note_off_c, 0, 72, 0
2, 7380, Note_on_c, 0, 69, 93
2, 7392, Note_off_c, 0, 69, 0
2, 7392, Note_on_c, 0, 70, 93
2, 7428, Note_off_c, 0, 70, 0
2, 7428, Note_on_c, 0, 55, 93
2, 7440, Note_off_c, 0, 55, 0
2, 7440, Note_on_c, 0, 57, 93
2, 7464, Note_off_c, 0, 57, 0
2, 7464, Note_on_c, 0, 60, 93
2, 7476, Note_off_c, 0, 60, 0
2, 7476, Note_on_c, 0, 58, 93
2, 7488, Note_off_c, 0, 58, 0
2, 7488, Note_on_c, 0, 60, 93
2, 7512, Note_off_c, 0, 60, 0
2, 7512, Note_on_c, 0, 62, 93
2, 7536, Note_off_c, 0, 62, 0
2, 7536, Note_on_c, 0, 63, 93
2, 7560, Note_off_c, 0, 63, 0
2, 7560, Note_on_c, 0, 67, 93
2, 7584, Note_off_c, 0, 67, 0
2, 7584, Note_on_c, 0, 68, 93
2, 7608, Note_off_c, 0, 68, 0
2, 7608, Note_on_c, 0, 71, 93
2, 7632, Note_off_c, 0, 71, 0
2, 7632, Note_on_c, 0, 72, 93
2, 7656, Note_off_c, 0, 72, 0
2, 7656, Note_on_c, 0, 75, 93
2, 7680, Note_off_c, 0, 75, 0
2, 7680, Note_on_c, 0, 79, 93
2, 7728, Note_off_c, 0, 79, 0
2, 7728, Note_on_c, 0, 78, 93
2, 7776, Note_off_c, 0, 78, 0
2, 7776, Note_on_c, 0, 82, 93
2, 7806, Note_off_c, 0, 82, 0
2, 7806, Note_on_c, 0, 81, 93
2, 7812, Note_off_c, 0, 81, 0
2, 7812, Note_on_c, 0, 79, 93
2, 7818, Note_off_c, 0, 79, 0
2, 7818, Note_on_c, 0, 78, 93
2, 7824, Note_off_c, 0, 78, 0
2, 7824, Note_on_c, 0, 79, 93
2, 7872, Note_off_c, 0, 79, 0
2, 7872, Note_on_c, 0, 79, 93
2, 7908, Note_off_c, 0, 79, 0
2, 7908, Note_on_c, 0, 70, 93
2, 7920, Note_off_c, 0, 70, 0
2, 7920, Note_on_c, 0, 72, 93
2, 7932, Note_off_c, 0, 72, 0
2, 7932, Note_on_c, 0, 74, 93
2, 7944, Note_off_c, 0, 74, 0
2, 7944, Note_on_c, 0, 76, 93
2, 7956, Note_off_c, 0, 76, 0
2, 7956, Note_on_c, 0, 78, 93
2, 7968, Note_off_c, 0, 78, 0
2, 7968, Note_on_c, 0, 79, 93
2, 7974, Note_off_c, 0, 79, 0
2, 7974, Note_on_c, 0, 81, 93
2, 7980, Note_off_c, 0, 81, 0
2, 7980, Note_on_c, 0, 82, 93
2, 7986, Note_off_c, 0, 82, 0
2, 7986, Note_on_c, 0, 81, 93
2, 7992, Note_off_c, 0, 81, 0
2, 7992, Note_on_c, 0, 82, 93
2, 7998, Note_off_c, 0, 82, 0
2, 7998, Note_on_c, 0, 79, 93
2, 8004, Note_off_c, 0, 79, 0
2, 8004, Note_on_c, 0, 80, 93
2, 8010, Note_off_c, 0, 80, 0
2, 8010, Note_on_c, 0, 79, 93
2, 8016, Note_off_c, 0, 79, 0
2, 8016, Note_on_c, 0, 79, 93
2, 8040, Note_off_c, 0, 79, 0
2, 8040, Note_on_c, 0, 78, 93
2, 8058, Note_off_c, 0, 78, 0
2, 8058, Note_on_c, 0, 79, 93
2, 8064, Note_off_c, 0, 79, 0
2, 8064, Note_on_c, 0, 79, 93
2, 8448, Note_off_c, 0, 79, 0
2, 8448, End_track
3, 0, Start_track
3, 0, Title_t, "Track3"
3, 0, Program_c, 1, 40
3, 0, Control_c, 1, 7, 100
3, 0, Control_c, 1, 10, 59
3, 0, Note_on_c, 1, 70, 93
3, 96, Note_off_c, 1, 70, 0
3, 192, Note_on_c, 1, 72, 93
3, 288, Note_off_c, 1, 72, 0
3, 384, Note_on_c, 1, 78, 93
3, 480, Note_off_c, 1, 78, 0
3, 576, Note_on_c, 1, 79, 93
3, 624, Note_off_c, 1, 79, 0
3, 720, Note_on_c, 1, 67, 93
3, 768, Note_off_c, 1, 67, 0
3, 768, Note_on_c, 1, 65, 93
3, 816, Note_off_c, 1, 65, 0
3, 912, Note_on_c, 1, 74, 93
3, 960, Note_off_c, 1, 74, 0
3, 960, Note_on_c, 1, 74, 93
3, 1008, Note_off_c, 1, 74, 0
3, 1152, Note_on_c, 1, 74, 93
3, 1248, Note_off_c, 1, 74, 0
3, 1344, Note_on_c, 1, 55, 93
3, 1368, Note_off_c, 1, 55, 0
3, 1488, Note_on_c, 1, 55, 93
3, 1536, Note_off_c, 1, 55, 0
3, 1536, Note_on_c, 1, 61, 93
3, 1584, Note_off_c, 1, 61, 0
3, 1680, Note_on_c, 1, 62, 93
3, 1728, Note_off_c, 1, 62, 0
3, 1728, Note_on_c, 1, 67, 93
3, 1752, Note_off_c, 1, 67, 0
3, 1872, Note_on_c, 1, 70, 93
3, 1896, Note_off_c, 1, 70, 0
3, 1896, Note_on_c, 1, 67, 93
3, 1920, Note_off_c, 1, 67, 0
3, 1920, Note_on_c, 1, 67, 93
3, 1968, Note_off_c, 1, 67, 0
3, 2448, Note_on_c, 1, 60, 93
3, 2496, Note_off_c, 1, 60, 0
3, 2496, Note_on_c, 1, 58, 93
3, 2544, Note_off_c, 1, 58, 0
3, 2688, Note_on_c, 1, 67, 93
3, 2784, Note_off_c, 1, 67, 0
3, 2880, Note_on_c, 1, 64, 93
3, 2928, Note_off_c, 1, 64, 0
3, 3072, Note_on_c, 1, 62, 93
3, 3168, Note_off_c, 1, 62, 0
3, 3264, Note_on_c, 1, 66, 93
3, 3288, Note_off_c, 1, 66, 0
3, 3360, Note_on_c, 1, 78, 93
3, 3408, Note_off_c, 1, 78, 0
3, 3456, Note_on_c, 1, 79, 93
3, 3504, Note_off_c, 1, 79, 0
3, 3648, Note_on_c, 1, 69, 93
3, 3744, Note_off_c, 1, 69, 0
3, 3744, Note_on_c, 1, 71, 93
3, 3792, Note_off_c, 1, 71, 0
3, 3840, Note_on_c, 1, 62, 93
3, 3888, Note_off_c, 1, 62, 0
3, 3888, Note_on_c, 1, 63, 93
3, 3936, Note_off_c, 1, 63, 0
3, 3936, Note_on_c, 1, 65, 93
3, 3984, Note_off_c, 1, 65, 0
3, 3984, Note_on_c, 1, 67, 93
3, 4032, Note_off_c, 1, 67, 0
3, 4032, Note_on_c, 1, 65, 93
3, 4080, Note_off_c, 1, 65, 0
3, 4464, Note_on_c, 1, 72, 93
3, 4512, Note_off_c, 1, 72, 0
3, 4512, Note_on_c, 1, 65, 93
3, 4560, Note_off_c, 1, 65, 0
3, 4608, Note_on_c, 1, 66, 93
3, 4704, Note_off_c, 1, 66, 0
3, 4800, Note_on_c, 1, 72, 93
3, 4824, Note_off_c, 1, 72, 0
3, 5376, Note_on_c, 1, 71, 93
3, 5472, Note_off_c, 1, 71, 0
3, 5568, Note_on_c, 1, 67, 93
3, 5616, Note_off_c, 1, 67, 0
3, 5712, Note_on_c, 1, 68, 93
3, 5760, Note_off_c, 1, 68, 0
3, 5760, Note_on_c, 1, 65, 93
3, 5808, Note_off_c, 1, 65, 0
3, 5904, Note_on_c, 1, 79, 93
3, 5952, Note_off_c, 1, 79, 0
3, 5952, Note_on_c, 1, 79, 93
3, 6000, Note_off_c, 1, 79, 0
3, 6144, Note_on_c, 1, 72, 93
3, 6192, Note_off_c, 1, 72, 0
3, 6192, Note_on_c, 1, 71, 93
3, 6240, Note_off_c, 1, 71, 0
3, 6240, Note_on_c, 1, 74, 93
3, 6288, Note_off_c, 1, 74, 0
3, 6288, Note_on_c, 1, 74, 93
3, 6336, Note_off_c, 1, 74, 0
3, 6480, Note_on_c, 1, 79, 93
3, 6528, Note_off_c, 1, 79, 0
3, 6528, Note_on_c, 1, 81, 93
3, 6624, Note_off_c, 1, 81, 0
3, 6864, Note_on_c, 1, 72, 93
3, 6888, Note_off_c, 1, 72, 0
3, 6888, Note_on_c, 1, 69, 93
3, 6912, Note_off_c, 1, 69, 0
3, 6912, Note_on_c, 1, 69, 93
3, 6960, Note_off_c, 1, 69, 0
3, 7680, Note_on_c, 1, 69, 93
3, 7776, Note_off_c, 1, 69, 0
3, 7824, Note_on_c, 1, 69, 93
3, 7872, Note_off_c, 1, 69, 0
3, 7872, Note_on_c, 1, 69, 93
3, 7920, Note_off_c, 1, 69, 0
3, 8064, Note_on_c, 1, 70, 93
3, 8448, Note_off_c, 1, 70, 0
3, 8448, End_track
4, 0, Start_track
4, 0, Title_t, "Track4"
4, 0, Program_c, 2, 40
4, 0, Control_c, 2, 7, 100
4, 0, Control_c, 2, 10, 79
4, 0, Note_on_c, 2, 62, 93
4, 96, Note_off_c, 2, 62, 0
4, 384, Note_on_c, 2, 62, 93
4, 432, Note_off_c, 2, 62, 0
4, 576, Note_on_c, 2, 62, 93
4, 624, Note_off_c, 2, 62, 0
4, 912, Note_on_c, 2, 62, 93
4, 960, Note_off_c, 2, 62, 0
4, 960, Note_on_c, 2, 63, 93
4, 1008, Note_off_c, 2, 63, 0
4, 1152, Note_on_c, 2, 62, 93
4, 1248, Note_off_c, 2, 62, 0
4, 1296, Note_on_c, 2, 62, 93
4, 1344, Note_off_c, 2, 62, 0
4, 1344, Note_on_c, 2, 62, 93
4, 1368, Note_off_c, 2, 62, 0
4, 1488, Note_on_c, 2, 65, 93
4, 1536, Note_off_c, 2, 65, 0
4, 1536, Note_on_c, 2, 64, 93
4, 1584, Note_off_c, 2, 64, 0
4, 1728, Note_on_c, 2, 70, 93
4, 1752, Note_off_c, 2, 70, 0
4, 2688, Note_on_c, 2, 57, 93
4, 2784, Note_off_c, 2, 57, 0
4, 2880, Note_on_c, 2, 57, 93
4, 2928, Note_off_c, 2, 57, 0
4, 3264, Note_on_c, 2, 57, 93
4, 3288, Note_off_c, 2, 57, 0
4, 3456, Note_on_c, 2, 62, 93
4, 3504, Note_off_c, 2, 62, 0
4, 3648, Note_on_c, 2, 62, 93
4, 3744, Note_off_c, 2, 62, 0
4, 3744, Note_on_c, 2, 55, 93
4, 3792, Note_off_c, 2, 55, 0
4, 3840, Note_on_c, 2, 60, 93
4, 3864, Note_off_c, 2, 60, 0
4, 4032, Note_on_c, 2, 56, 93
4, 4080, Note_off_c, 2, 56, 0
4, 4464, Note_on_c, 2, 65, 93
4, 4512, Note_off_c, 2, 65, 0
4, 4512, Note_on_c, 2, 58, 93
4, 4560, Note_off_c, 2, 58, 0
4, 4608, Note_on_c, 2, 57, 93
4, 4704, Note_off_c, 2, 57, 0
4, 4800, Note_on_c, 2, 63, 93
4, 4824, Note_off_c, 2, 63, 0
4, 5376, Note_on_c, 2, 62, 93
4, 5472, Note_off_c, 2, 62, 0
4, 5568, Note_on_c, 2, 60, 93
4, 5616, Note_off_c, 2, 60, 0
4, 5712, Note_on_c, 2, 60, 93
4, 5760, Note_off_c, 2, 60, 0
4, 5760, Note_on_c, 2, 58, 93
4, 5808, Note_off_c, 2, 58, 0
4, 5904, Note_on_c, 2, 67, 93
4, 5952, Note_off_c, 2, 67, 0
4, 5952, Note_on_c, 2, 63, 93
4, 6000, Note_off_c, 2, 63, 0
4, 6144, Note_on_c, 2, 62, 93
4, 6192, Note_off_c, 2, 62, 0
4, 6288, Note_on_c, 2, 67, 93
4, 6336, Note_off_c, 2, 67, 0
4, 6480, Note_on_c, 2, 67, 93
4, 6528, Note_off_c, 2, 67, 0
4, 6528, Note_on_c, 2, 66, 93
4, 6576, Note_off_c, 2, 66, 0
4, 6912, Note_on_c, 2, 62, 93
4, 6960, Note_off_c, 2, 62, 0
4, 7680, Note_on_c, 2, 62, 93
4, 7776, Note_off_c, 2, 62, 0
4, 7824, Note_on_c, 2, 64, 93
4, 7872, Note_off_c, 2, 64, 0
4, 7872, Note_on_c, 2, 62, 93
4, 7920, Note_off_c, 2, 62, 0
4, 8064, Note_on_c, 2, 62, 93
4, 8448, Note_off_c, 2, 62, 0
4, 8448, End_track
5, 0, Start_track
5, 0, Title_t, "Track5"
5, 0, Program_c, 3, 40
5, 0, Control_c, 3, 7, 100
5, 0, Control_c, 3, 10, 49
5, 0, Note_on_c, 3, 55, 93
5, 96, Note_off_c, 3, 55, 0
5, 192, Note_on_c, 3, 57, 93
5, 288, Note_off_c, 3, 57, 0
5, 576, Note_on_c, 3, 55, 93
5, 624, Note_off_c, 3, 55, 0
5, 3456, Note_on_c, 3, 55, 93
5, 3504, Note_off_c, 3, 55, 0
5, 5376, Note_on_c, 3, 55, 93
5, 5472, Note_off_c, 3, 55, 0
5, 5904, Note_on_c, 3, 55, 93
5, 5952, Note_off_c, 3, 55, 0
5, 5952, Note_on_c, 3, 56, 93
5, 6000, Note_off_c, 3, 56, 0
5, 6144, Note_on_c, 3, 55, 93
5, 6192, Note_off_c, 3, 55, 0
5, 6288, Note_on_c, 3, 59, 93
5, 6336, Note_off_c, 3, 59, 0
5, 6336, Note_on_c, 3, 60, 93
5, 6384, Note_off_c, 3, 60, 0
5, 6480, Note_on_c, 3, 60, 93
5, 6528, Note_off_c, 3, 60, 0
5, 7680, Note_on_c, 3, 60, 93
5, 7776, Note_off_c, 3, 60, 0
5, 7824, Note_on_c, 3, 61, 93
5, 7872, Note_off_c, 3, 61, 0
5, 8064, Note_on_c, 3, 55, 93
5, 8448, Note_off_c, 3, 55, 0
5, 8448, End_track
0, 0, End_of_file
