0, 0, Header, 1, 5, 96
1, 0, Start_track
1, 0, Time_signature, 4, 2, 24, 8
1, 0, Title_t, "untitled"
1, 0, Title_t, "Track1"
1, 0, Tempo, 1500000
1, 10944, Tempo, 1500000
1, 10944, Tempo, 1578947
1, 10950, Tempo, 1578947
1, 10950, Tempo, 1666666
1, 10956, Tempo, 1714285
1, 10956, Tempo, 1764705
1, 10956, Tempo, 1818181
1, 10962, Tempo, 1875000
1, 10962, Tempo, 1875000
1, 10962, End_track
2, 0, Start_track
2, 0, Title_t, "Track2"
2, 0, Program_c, 0, 40
2, 0, Control_c, 0, 7, 100
2, 0, Control_c, 0, 10, 69
2, 0, Note_on_c, 0, 58, 93
2, 72, Note_off_c, 0, 58, 0
2, 72, Note_on_c, 0, 62, 93
2, 96, Note_off_c, 0, 62, 0
2, 96, Note_on_c, 0, 65, 93
2, 144, Note_off_c, 0, 65, 0
2, 144, Note_on_c, 0, 63, 93
2, 168, Note_off_c, 0, 63, 0
2, 168, Note_on_c, 0, 62, 93
2, 192, Note_off_c, 0, 62, 0
2, 192, Note_on_c, 0, 60, 93
2, 216, Note_off_c, 0, 60, 0
2, 216, Note_on_c, 0, 58, 93
2, 240, Note_off_c, 0, 58, 0
2, 288, Note_on_c, 0, 65, 93
2, 336, Note_off_c, 0, 65, 0
2, 528, Note_on_c, 0, 63, 93
2, 576, Note_off_c, 0, 63, 0
2, 576, Note_on_c, 0, 62, 93
2, 624, Note_off_c, 0, 62, 0
2, 720, Note_on_c, 0, 60, 93
2, 768, Note_off_c, 0, 60, 0
2, 816, Note_on_c, 0, 58, 93
2, 864, Note_off_c, 0, 58, 0
2, 864, Note_on_c, 0, 65, 93
2, 912, Note_off_c, 0, 65, 0
2, 1056, Note_on_c, 0, 57, 93
2, 1104, Note_off_c, 0, 57, 0
2, 1104, Note_on_c, 0, 60, 93
2, 1152, Note_off_c, 0, 60, 0
2, 1152, Note_on_c, 0, 65, 93
2, 1200, Note_off_c, 0, 65, 0
2, 1296, Note_on_c, 0, 63, 93
2, 1344, Note_off_c, 0, 63, 0
2, 1392, Note_on_c, 0, 62, 93
2, 1440, Note_off_c, 0, 62, 0
2, 1440, Note_on_c, 0, 60, 93
2, 1488, Note_off_c, 0, 60, 0
2, 1536, Note_on_c, 0, 58, 93
2, 1584, Note_off_c, 0, 58, 0
2, 1584, Note_on_c, 0, 57, 93
2, 1608, Note_off_c, 0, 57, 0
2, 1608, Note_on_c, 0, 60, 93
2, 1632, Note_off_c, 0, 60, 0
2, 1632, Note_on_c, 0, 65, 93
2, 1656, Note_off_c, 0, 65, 0
2, 1656, Note_on_c, 0, 69, 93
2, 1668, Note_off_c, 0, 69, 0
2, 1668, Note_on_c, 0, 72, 93
2, 1680, Note_off_c, 0, 72, 0
2, 1680, Note_on_c, 0, 75, 93
2, 1704, Note_off_c, 0, 75, 0
2, 1704, Note_on_c, 0, 79, 93
2, 1728, Note_off_c, 0, 79, 0
2, 1728, Note_on_c, 0, 77, 93
2, 1776, Note_off_c, 0, 77, 0
2, 1776, Note_on_c, 0, 75, 93
2, 1800, Note_off_c, 0, 75, 0
2, 1800, Note_on_c, 0, 74, 93
2, 1824, Note_off_c, 0, 74, 0
2, 1824, Note_on_c, 0, 72, 93
2, 1848, Note_off_c, 0, 72, 0
2, 1848, Note_on_c, 0, 70, 93
2, 1872, Note_off_c, 0, 70, 0
2, 1872, Note_on_c, 0, 74, 93
2, 1920, Note_off_c, 0, 74, 0
2, 1920, Note_on_c, 0, 72, 93
2, 1932, Note_off_c, 0, 72, 0
2, 1932, Note_on_c, 0, 74, 93
2, 1944, Note_off_c, 0, 74, 0
2, 1944, Note_on_c, 0, 75, 93
2, 1968, Note_off_c, 0, 75, 0
2, 1968, Note_on_c, 0, 74, 93
2, 2016, Note_off_c, 0, 74, 0
2, 2016, Note_on_c, 0, 70, 93
2, 2064, Note_off_c, 0, 70, 0
2, 2256, Note_on_c, 0, 82, 93
2, 2304, Note_off_c, 0, 82, 0
2, 2304, Note_on_c, 0, 82, 93
2, 2352, Note_off_c, 0, 82, 0
2, 2352, Note_on_c, 0, 81, 93
2, 2400, Note_off_c, 0, 81, 0
2, 2544, Note_on_c, 0, 81, 93
2, 2592, Note_off_c, 0, 81, 0
2, 2592, Note_on_c, 0, 81, 93
2, 2640, Note_off_c, 0, 81, 0
2, 2640, Note_on_c, 0, 79, 93
2, 2688, Note_off_c, 0, 79, 0
2, 2784, Note_on_c, 0, 82, 93
2, 2832, Note_off_c, 0, 82, 0
2, 2832, Note_on_c, 0, 81, 93
2, 2880, Note_off_c, 0, 81, 0
2, 2928, Note_on_c, 0, 78, 93
2, 2952, Note_off_c, 0, 78, 0
2, 2952, Note_on_c, 0, 81, 93
2, 2976, Note_off_c, 0, 81, 0
2, 2976, Note_on_c, 0, 79, 93
2, 3024, Note_off_c, 0, 79, 0
2, 3072, Note_on_c, 0, 79, 93
2, 3096, Note_off_c, 0, 79, 0
2, 3096, Note_on_c, 0, 82, 93
2, 3120, Note_off_c, 0, 82, 0
2, 3120, Note_on_c, 0, 81, 93
2, 3168, Note_off_c, 0, 81, 0
2, 3216, Note_on_c, 0, 81, 93
2, 3240, Note_off_c, 0, 81, 0
2, 3240, Note_on_c, 0, 82, 93
2, 3264, Note_off_c, 0, 82, 0
2, 3264, Note_on_c, 0, 82, 93
2, 3288, Note_off_c, 0, 82, 0
2, 3288, Note_on_c, 0, 84, 93
2, 3312, Note_off_c, 0, 84, 0
2, 3312, Note_on_c, 0, 84, 93
2, 3324, Note_off_c, 0, 84, 0
2, 3324, Note_on_c, 0, 82, 93
2, 3336, Note_off_c, 0, 82, 0
2, 3336, Note_on_c, 0, 81, 93
2, 3348, Note_off_c, 0, 81, 0
2, 3348, Note_on_c, 0, 79, 93
2, 3360, Note_off_c, 0, 79, 0
2, 3360, Note_on_c, 0, 78, 93
2, 3372, Note_off_c, 0, 78, 0
2, 3372, Note_on_c, 0, 76, 93
2, 3384, Note_off_c, 0, 76, 0
2, 3384, Note_on_c, 0, 74, 93
2, 3396, Note_off_c, 0, 74, 0
2, 3396, Note_on_c, 0, 72, 93
2, 3408, Note_off_c, 0, 72, 0
2, 3408, Note_on_c, 0, 70, 93
2, 3420, Note_off_c, 0, 70, 0
2, 3420, Note_on_c, 0, 69, 93
2, 3432, Note_off_c, 0, 69, 0
2, 3432, Note_on_c, 0, 70, 93
2, 3444, Note_off_c, 0, 70, 0
2, 3444, Note_on_c, 0, 72, 93
2, 3456, Note_off_c, 0, 72, 0
2, 3456, Note_on_c, 0, 66, 93
2, 3504, Note_off_c, 0, 66, 0
2, 3504, Note_on_c, 0, 86, 93
2, 3528, Note_off_c, 0, 86, 0
2, 3528, Note_on_c, 0, 81, 93
2, 3552, Note_off_c, 0, 81, 0
2, 3552, Note_on_c, 0, 84, 93
2, 3600, Note_off_c, 0, 84, 0
2, 3600, Note_on_c, 0, 67, 93
2, 3624, Note_off_c, 0, 67, 0
2, 3624, Note_on_c, 0, 82, 93
2, 3648, Note_off_c, 0, 82, 0
2, 3648, Note_on_c, 0, 81, 93
2, 3672, Note_off_c, 0, 81, 0
2, 3672, Note_on_c, 0, 78, 93
2, 3696, Note_off_c, 0, 78, 0
2, 3696, Note_on_c, 0, 79, 93
2, 3720, Note_off_c, 0, 79, 0
2, 3720, Note_on_c, 0, 74, 93
2, 3744, Note_off_c, 0, 74, 0
2, 3744, Note_on_c, 0, 75, 93
2, 3792, Note_off_c, 0, 75, 0
2, 3792, Note_on_c, 0, 72, 93
2, 3840, Note_off_c, 0, 72, 0
2, 3984, Note_on_c, 0, 80, 93
2, 4032, Note_off_c, 0, 80, 0
2, 4032, Note_on_c, 0, 78, 93
2, 4080, Note_off_c, 0, 78, 0
2, 4080, Note_on_c, 0, 79, 93
2, 4104, Note_off_c, 0, 79, 0
2, 4104, Note_on_c, 0, 74, 93
2, 4128, Note_off_c, 0, 74, 0
2, 4128, Note_on_c, 0, 75, 93
2, 4152, Note_off_c, 0, 75, 0
2, 4152, Note_on_c, 0, 74, 93
2, 4176, Note_off_c, 0, 74, 0
2, 4200, Note_on_c, 0, 72, 93
2, 4224, Note_off_c, 0, 72, 0
2, 4224, Note_on_c, 0, 70, 93
2, 4248, Note_off_c, 0, 70, 0
2, 4248, Note_on_c, 0, 69, 93
2, 4272, Note_off_c, 0, 69, 0
2, 4272, Note_on_c, 0, 67, 93
2, 4296, Note_off_c, 0, 67, 0
2, 4296, Note_on_c, 0, 66, 93
2, 4320, Note_off_c, 0, 66, 0
2, 5424, Note_on_c, 0, 84, 93
2, 5472, Note_off_c, 0, 84, 0
2, 5472, Note_on_c, 0, 84, 93
2, 5520, Note_off_c, 0, 84, 0
2, 5520, Note_on_c, 0, 82, 93
2, 5568, Note_off_c, 0, 82, 0
2, 5712, Note_on_c, 0, 82, 93
2, 5760, Note_off_c, 0, 82, 0
2, 5760, Note_on_c, 0, 82, 93
2, 5808, Note_off_c, 0, 82, 0
2, 5808, Note_on_c, 0, 81, 93
2, 5856, Note_off_c, 0, 81, 0
2, 6000, Note_on_c, 0, 80, 93
2, 6048, Note_off_c, 0, 80, 0
2, 6048, Note_on_c, 0, 80, 93
2, 6096, Note_off_c, 0, 80, 0
2, 6096, Note_on_c, 0, 79, 93
2, 6144, Note_off_c, 0, 79, 0
2, 6288, Note_on_c, 0, 79, 93
2, 6336, Note_off_c, 0, 79, 0
2, 6336, Note_on_c, 0, 77, 93
2, 6384, Note_off_c, 0, 77, 0
2, 6432, Note_on_c, 0, 74, 93
2, 6480, Note_off_c, 0, 74, 0
2, 6480, Note_on_c, 0, 75, 93
2, 6528, Note_off_c, 0, 75, 0
2, 6576, Note_on_c, 0, 77, 93
2, 6624, Note_off_c, 0, 77, 0
2, 6624, Note_on_c, 0, 75, 93
2, 6648, Note_off_c, 0, 75, 0
2, 6648, Note_on_c, 0, 74, 93
2, 6672, Note_off_c, 0, 74, 0
2, 6672, Note_on_c, 0, 75, 93
2, 6696, Note_off_c, 0, 75, 0
2, 6696, Note_on_c, 0, 74, 93
2, 6720, Note_off_c, 0, 74, 0
2, 6720, Note_on_c, 0, 72, 93
2, 6744, Note_off_c, 0, 72, 0
2, 6744, Note_on_c, 0, 70, 93
2, 6768, Note_off_c, 0, 70, 0
2, 6768, Note_on_c, 0, 70, 93
2, 6792, Note_off_c, 0, 70, 0
2, 6792, Note_on_c, 0, 69, 93
2, 6816, Note_off_c, 0, 69, 0
2, 6816, Note_on_c, 0, 72, 93
2, 6840, Note_off_c, 0, 72, 0
2, 6840, Note_on_c, 0, 70, 93
2, 6864, Note_off_c, 0, 70, 0
2, 6864, Note_on_c, 0, 74, 93
2, 6888, Note_off_c, 0, 74, 0
2, 6888, Note_on_c, 0, 72, 93
2, 6912, Note_off_c, 0, 72, 0
2, 6912, Note_on_c, 0, 75, 93
2, 6960, Note_off_c, 0, 75, 0
2, 6984, Note_on_c, 0, 79, 93
2, 7008, Note_off_c, 0, 79, 0
2, 7008, Note_on_c, 0, 84, 93
2, 7056, Note_off_c, 0, 84, 0
2, 7056, Note_on_c, 0, 82, 93
2, 7080, Note_off_c, 0, 82, 0
2, 7080, Note_on_c, 0, 81, 93
2, 7104, Note_off_c, 0, 81, 0
2, 7104, Note_on_c, 0, 79, 93
2, 7128, Note_off_c, 0, 79, 0
2, 7128, Note_on_c, 0, 77, 93
2, 7152, Note_off_c, 0, 77, 0
2, 7152, Note_on_c, 0, 75, 93
2, 7200, Note_off_c, 0, 75, 0
2, 7200, Note_on_c, 0, 75, 93
2, 7248, Note_off_c, 0, 75, 0
2, 7248, Note_on_c, 0, 74, 93
2, 7272, Note_off_c, 0, 74, 0
2, 7272, Note_on_c, 0, 77, 93
2, 7296, Note_off_c, 0, 77, 0
2, 7296, Note_on_c, 0, 82, 93
2, 7344, Note_off_c, 0, 82, 0
2, 7344, Note_on_c, 0, 80, 93
2, 7368, Note_off_c, 0, 80, 0
2, 7368, Note_on_c, 0, 77, 93
2, 7392, Note_off_c, 0, 77, 0
2, 7392, Note_on_c, 0, 74, 93
2, 7416, Note_off_c, 0, 74, 0
2, 7416, Note_on_c, 0, 70, 93
2, 7440, Note_off_c, 0, 70, 0
2, 7440, Note_on_c, 0, 80, 93
2, 7488, Note_off_c, 0, 80, 0
2, 7488, Note_on_c, 0, 79, 93
2, 7536, Note_off_c, 0, 79, 0
2, 8352, Note_on_c, 0, 77, 93
2, 8424, Note_off_c, 0, 77, 0
2, 8424, Note_on_c, 0, 79, 93
2, 8448, Note_off_c, 0, 79, 0
2, 8448, Note_on_c, 0, 77, 93
2, 8496, Note_off_c, 0, 77, 0
2, 8496, Note_on_c, 0, 77, 93
2, 8544, Note_off_c, 0, 77, 0
2, 8544, Note_on_c, 0, 75, 93
2, 8568, Note_off_c, 0, 75, 0
2, 8568, Note_on_c, 0, 74, 93
2, 8592, Note_off_c, 0, 74, 0
2, 8592, Note_on_c, 0, 72, 93
2, 8616, Note_off_c, 0, 72, 0
2, 8616, Note_on_c, 0, 71, 93
2, 8640, Note_off_c, 0, 71, 0
2, 8640, Note_on_c, 0, 75, 93
2, 8712, Note_off_c, 0, 75, 0
2, 8712, Note_on_c, 0, 77, 93
2, 8736, Note_off_c, 0, 77, 0
2, 8736, Note_on_c, 0, 75, 93
2, 8784, Note_off_c, 0, 75, 0
2, 8784, Note_on_c, 0, 75, 93
2, 8832, Note_off_c, 0, 75, 0
2, 8832, Note_on_c, 0, 74, 93
2, 8856, Note_off_c, 0, 74, 0
2, 8856, Note_on_c, 0, 72, 93
2, 8880, Note_off_c, 0, 72, 0
2, 8880, Note_on_c, 0, 70, 93
2, 8904, Note_off_c, 0, 70, 0
2, 8904, Note_on_c, 0, 69, 93
2, 8928, Note_off_c, 0, 69, 0
2, 8928, Note_on_c, 0, 67, 93
2, 8952, Note_off_c, 0, 67, 0
2, 8952, Note_on_c, 0, 65, 93
2, 8976, Note_off_c, 0, 65, 0
2, 8976, Note_on_c, 0, 63, 93
2, 9000, Note_off_c, 0, 63, 0
2, 9000, Note_on_c, 0, 62, 93
2, 9024, Note_off_c, 0, 62, 0
2, 9024, Note_on_c, 0, 63, 93
2, 9072, Note_off_c, 0, 63, 0
2, 9072, Note_on_c, 0, 62, 93
2, 9120, Note_off_c, 0, 62, 0
2, 9120, Note_on_c, 0, 63, 93
2, 9168, Note_off_c, 0, 63, 0
2, 9168, Note_on_c, 0, 65, 93
2, 9216, Note_off_c, 0, 65, 0
2, 9216, Note_on_c, 0, 67, 93
2, 9288, Note_off_c, 0, 67, 0
2, 9288, Note_on_c, 0, 63, 93
2, 9312, Note_off_c, 0, 63, 0
2, 9312, Note_on_c, 0, 65, 93
2, 9360, Note_off_c, 0, 65, 0
2, 9360, Note_on_c, 0, 63, 93
2, 9408, Note_off_c, 0, 63, 0
2, 9408, Note_on_c, 0, 79, 93
2, 9432, Note_off_c, 0, 79, 0
2, 9432, Note_on_c, 0, 75, 93
2, 9456, Note_off_c, 0, 75, 0
2, 9456, Note_on_c, 0, 70, 93
2, 9504, Note_off_c, 0, 70, 0
2, 9504, Note_on_c, 0, 70, 93
2, 9552, Note_off_c, 0, 70, 0
2, 9648, Note_on_c, 0, 72, 93
2, 9696, Note_off_c, 0, 72, 0
2, 9792, Note_on_c, 0, 77, 93
2, 9864, Note_off_c, 0, 77, 0
2, 9864, Note_on_c, 0, 74, 93
2, 9888, Note_off_c, 0, 74, 0
2, 9888, Note_on_c, 0, 75, 93
2, 9936, Note_off_c, 0, 75, 0
2, 10608, Note_on_c, 0, 82, 93
2, 10656, Note_off_c, 0, 82, 0
2, 10656, Note_on_c, 0, 82, 93
2, 10704, Note_off_c, 0, 82, 0
2, 10704, Note_on_c, 0, 81, 93
2, 10752, Note_off_c, 0, 81, 0
2, 10896, Note_on_c, 0, 81, 93
2, 10944, Note_off_c, 0, 81, 0
2, 10944, Note_on_c, 0, 81, 93
2, 10992, Note_off_c, 0, 81, 0
2, 10992, Note_on_c, 0, 82, 93
2, 11040, Note_off_c, 0, 82, 0
2, 11040, End_track
3, 0, Start_track
3, 0, Title_t, "Track3"
3, 0, Program_c, 1, 40
3, 0, Control_c, 1, 7, 100
3, 0, Control_c, 1, 10, 59
3, 240, Note_on_c, 1, 74, 93
3, 288, Note_off_c, 1, 74, 0
3, 288, Note_on_c, 1, 74, 93
3, 336, Note_off_c, 1, 74, 0
3, 336, Note_on_c, 1, 72, 93
3, 384, Note_off_c, 1, 72, 0
3, 384, Note_on_c, 1, 70, 93
3, 432, Note_off_c, 1, 70, 0
3, 432, Note_on_c, 1, 70, 93
3, 480, Note_off_c, 1, 70, 0
3, 480, Note_on_c, 1, 69, 93
3, 528, Note_off_c, 1, 69, 0
3, 624, Note_on_c, 1, 72, 93
3, 672, Note_off_c, 1, 72, 0
3, 672, Note_on_c, 1, 70, 93
3, 720, Note_off_c, 1, 70, 0
3, 768, Note_on_c, 1, 69, 93
3, 816, Note_off_c, 1, 69, 0
3, 816, Note_on_c, 1, 70, 93
3, 864, Note_off_c, 1, 70, 0
3, 912, Note_on_c, 1, 70, 93
3, 984, Note_off_c, 1, 70, 0
3, 984, Note_on_c, 1, 70, 93
3, 1008, Note_off_c, 1, 70, 0
3, 1008, Note_on_c, 1, 69, 93
3, 1056, Note_off_c, 1, 69, 0
3, 1200, Note_on_c, 1, 69, 93
3, 1224, Note_off_c, 1, 69, 0
3, 1224, Note_on_c, 1, 67, 93
3, 1248, Note_off_c, 1, 67, 0
3, 1248, Note_on_c, 1, 69, 93
3, 1296, Note_off_c, 1, 69, 0
3, 1344, Note_on_c, 1, 69, 93
3, 1392, Note_off_c, 1, 69, 0
3, 1392, Note_on_c, 1, 71, 93
3, 1440, Note_off_c, 1, 71, 0
3, 1488, Note_on_c, 1, 67, 93
3, 1512, Note_off_c, 1, 67, 0
3, 1512, Note_on_c, 1, 65, 93
3, 1536, Note_off_c, 1, 65, 0
3, 1536, Note_on_c, 1, 67, 93
3, 1584, Note_off_c, 1, 67, 0
3, 1728, Note_on_c, 1, 62, 93
3, 1776, Note_off_c, 1, 62, 0
3, 1824, Note_on_c, 1, 63, 93
3, 1872, Note_off_c, 1, 63, 0
3, 1872, Note_on_c, 1, 65, 93
3, 1920, Note_off_c, 1, 65, 0
3, 1920, Note_on_c, 1, 63, 93
3, 1968, Note_off_c, 1, 63, 0
3, 1968, Note_on_c, 1, 65, 93
3, 2016, Note_off_c, 1, 65, 0
3, 2016, Note_on_c, 1, 62, 93
3, 2064, Note_off_c, 1, 62, 0
3, 2256, Note_on_c, 1, 74, 93
3, 2304, Note_off_c, 1, 74, 0
3, 2304, Note_on_c, 1, 74, 93
3, 2352, Note_off_c, 1, 74, 0
3, 2352, Note_on_c, 1, 72, 93
3, 2400, Note_off_c, 1, 72, 0
3, 2544, Note_on_c, 1, 72, 93
3, 2592, Note_off_c, 1, 72, 0
3, 2592, Note_on_c, 1, 72, 93
3, 2640, Note_off_c, 1, 72, 0
3, 2640, Note_on_c, 1, 70, 93
3, 2688, Note_off_c, 1, 70, 0
3, 2784, Note_on_c, 1, 74, 93
3, 2832, Note_off_c, 1, 74, 0
3, 2832, Note_on_c, 1, 72, 93
3, 2880, Note_off_c, 1, 72, 0
3, 3744, Note_on_c, 1, 67, 93
3, 3792, Note_off_c, 1, 67, 0
3, 4032, Note_on_c, 1, 62, 93
3, 4080, Note_off_c, 1, 62, 0
3, 4224, Note_on_c, 1, 67, 93
3, 4272, Note_off_c, 1, 67, 0
3, 4464, Note_on_c, 1, 60, 93
3, 4512, Note_off_c, 1, 60, 0
3, 4512, Note_on_c, 1, 62, 93
3, 4560, Note_off_c, 1, 62, 0
3, 4608, Note_on_c, 1, 55, 93
3, 4680, Note_off_c, 1, 55, 0
3, 4680, Note_on_c, 1, 58, 93
3, 4704, Note_off_c, 1, 58, 0
3, 4704, Note_on_c, 1, 62, 93
3, 4752, Note_off_c, 1, 62, 0
3, 4752, Note_on_c, 1, 60, 93
3, 4776, Note_off_c, 1, 60, 0
3, 4776, Note_on_c, 1, 58, 93
3, 4800, Note_off_c, 1, 58, 0
3, 4800, Note_on_c, 1, 57, 93
3, 4824, Note_off_c, 1, 57, 0
3, 4824, Note_on_c, 1, 55, 93
3, 4848, Note_off_c, 1, 55, 0
3, 4848, Note_on_c, 1, 67, 93
3, 4896, Note_off_c, 1, 67, 0
3, 4896, Note_on_c, 1, 67, 93
3, 4944, Note_off_c, 1, 67, 0
3, 4944, Note_on_c, 1, 66, 93
3, 4992, Note_off_c, 1, 66, 0
3, 5256, Note_on_c, 1, 60, 93
3, 5280, Note_off_c, 1, 60, 0
3, 5280, Note_on_c, 1, 62, 93
3, 5328, Note_off_c, 1, 62, 0
3, 5328, Note_on_c, 1, 65, 93
3, 5352, Note_off_c, 1, 65, 0
3, 5352, Note_on_c, 1, 63, 93
3, 5376, Note_off_c, 1, 63, 0
3, 5376, Note_on_c, 1, 62, 93
3, 5400, Note_off_c, 1, 62, 0
3, 5400, Note_on_c, 1, 60, 93
3, 5424, Note_off_c, 1, 60, 0
3, 5424, Note_on_c, 1, 75, 93
3, 5472, Note_off_c, 1, 75, 0
3, 5472, Note_on_c, 1, 75, 93
3, 5520, Note_off_c, 1, 75, 0
3, 5520, Note_on_c, 1, 74, 93
3, 5568, Note_off_c, 1, 74, 0
3, 7440, Note_on_c, 1, 74, 93
3, 7488, Note_off_c, 1, 74, 0
3, 7488, Note_on_c, 1, 74, 93
3, 7512, Note_off_c, 1, 74, 0
3, 7512, Note_on_c, 1, 70, 93
3, 7536, Note_off_c, 1, 70, 0
3, 7536, Note_on_c, 1, 72, 93
3, 7560, Note_off_c, 1, 72, 0
3, 7560, Note_on_c, 1, 69, 93
3, 7584, Note_off_c, 1, 69, 0
3, 7584, Note_on_c, 1, 62, 93
3, 7608, Note_off_c, 1, 62, 0
3, 7608, Note_on_c, 1, 77, 93
3, 7632, Note_off_c, 1, 77, 0
3, 7632, Note_on_c, 1, 72, 93
3, 7656, Note_off_c, 1, 72, 0
3, 7656, Note_on_c, 1, 69, 93
3, 7680, Note_off_c, 1, 69, 0
3, 7680, Note_on_c, 1, 70, 93
3, 7704, Note_off_c, 1, 70, 0
3, 7704, Note_on_c, 1, 67, 93
3, 7728, Note_off_c, 1, 67, 0
3, 7728, Note_on_c, 1, 60, 93
3, 7752, Note_off_c, 1, 60, 0
3, 7752, Note_on_c, 1, 75, 93
3, 7776, Note_off_c, 1, 75, 0
3, 7776, Note_on_c, 1, 70, 93
3, 7800, Note_off_c, 1, 70, 0
3, 7800, Note_on_c, 1, 67, 93
3, 7824, Note_off_c, 1, 67, 0
3, 7824, Note_on_c, 1, 69, 93
3, 7848, Note_off_c, 1, 69, 0
3, 7848, Note_on_c, 1, 65, 93
3, 7872, Note_off_c, 1, 65, 0
3, 7872, Note_on_c, 1, 58, 93
3, 7896, Note_off_c, 1, 58, 0
3, 7896, Note_on_c, 1, 74, 93
3, 7920, Note_off_c, 1, 74, 0
3, 7920, Note_on_c, 1, 63, 93
3, 7944, Note_off_c, 1, 63, 0
3, 7944, Note_on_c, 1, 74, 93
3, 7968, Note_off_c, 1, 74, 0
3, 7968, Note_on_c, 1, 79, 93
3, 8016, Note_off_c, 1, 79, 0
3, 8016, Note_on_c, 1, 77, 93
3, 8040, Note_off_c, 1, 77, 0
3, 8040, Note_on_c, 1, 75, 93
3, 8064, Note_off_c, 1, 75, 0
3, 8064, Note_on_c, 1, 74, 93
3, 8112, Note_off_c, 1, 74, 0
3, 8112, Note_on_c, 1, 72, 93
3, 8160, Note_off_c, 1, 72, 0
3, 8304, Note_on_c, 1, 72, 93
3, 8352, Note_off_c, 1, 72, 0
3, 8352, Note_on_c, 1, 72, 93
3, 8400, Note_off_c, 1, 72, 0
3, 8496, Note_on_c, 1, 71, 93
3, 8544, Note_off_c, 1, 71, 0
3, 8640, Note_on_c, 1, 67, 93
3, 8688, Note_off_c, 1, 67, 0
3, 8784, Note_on_c, 1, 65, 93
3, 8832, Note_off_c, 1, 65, 0
3, 9024, Note_on_c, 1, 70, 93
3, 9072, Note_off_c, 1, 70, 0
3, 9072, Note_on_c, 1, 70, 93
3, 9120, Note_off_c, 1, 70, 0
3, 9504, Note_on_c, 1, 67, 93
3, 9552, Note_off_c, 1, 67, 0
3, 9648, Note_on_c, 1, 67, 93
3, 9696, Note_off_c, 1, 67, 0
3, 9792, Note_on_c, 1, 65, 93
3, 9840, Note_off_c, 1, 65, 0
3, 9936, Note_on_c, 1, 65, 93
3, 9960, Note_off_c, 1, 65, 0
3, 9960, Note_on_c, 1, 84, 93
3, 9984, Note_off_c, 1, 84, 0
3, 9984, Note_on_c, 1, 82, 93
3, 10008, Note_off_c, 1, 82, 0
3, 10008, Note_on_c, 1, 81, 93
3, 10032, Note_off_c, 1, 81, 0
3, 10032, Note_on_c, 1, 79, 93
3, 10056, Note_off_c, 1, 79, 0
3, 10056, Note_on_c, 1, 77, 93
3, 10080, Note_off_c, 1, 77, 0
3, 10080, Note_on_c, 1, 75, 93
3, 10104, Note_off_c, 1, 75, 0
3, 10104, Note_on_c, 1, 74, 93
3, 10128, Note_off_c, 1, 74, 0
3, 10128, Note_on_c, 1, 79, 93
3, 10176, Note_off_c, 1, 79, 0
3, 10176, Note_on_c, 1, 77, 93
3, 10224, Note_off_c, 1, 77, 0
3, 10368, Note_on_c, 1, 58, 93
3, 10440, Note_off_c, 1, 58, 0
3, 10440, Note_on_c, 1, 62, 93
3, 10464, Note_off_c, 1, 62, 0
3, 10464, Note_on_c, 1, 65, 93
3, 10512, Note_off_c, 1, 65, 0
3, 10512, Note_on_c, 1, 63, 93
3, 10536, Note_off_c, 1, 63, 0
3, 10536, Note_on_c, 1, 62, 93
3, 10560, Note_off_c, 1, 62, 0
3, 10560, Note_on_c, 1, 60, 93
3, 10584, Note_off_c, 1, 60, 0
3, 10584, Note_on_c, 1, 58, 93
3, 10608, Note_off_c, 1, 58, 0
3, 10608, Note_on_c, 1, 74, 93
3, 10656, Note_off_c, 1, 74, 0
3, 10656, Note_on_c, 1, 74, 93
3, 10704, Note_off_c, 1, 74, 0
3, 10704, Note_on_c, 1, 72, 93
3, 10752, Note_off_c, 1, 72, 0
3, 10944, Note_on_c, 1, 65, 93
3, 10992, Note_off_c, 1, 65, 0
3, 10992, End_track
4, 0, Start_track
4, 0, Title_t, "Track4"
4, 0, Program_c, 2, 40
4, 0, Control_c, 2, 7, 100
4, 0, Control_c, 2, 10, 79
4, 240, Note_on_c, 2, 82, 93
4, 288, Note_off_c, 2, 82, 0
4, 288, Note_on_c, 2, 82, 93
4, 336, Note_off_c, 2, 82, 0
4, 336, Note_on_c, 2, 81, 93
4, 384, Note_off_c, 2, 81, 0
4, 384, Note_on_c, 2, 79, 93
4, 432, Note_off_c, 2, 79, 0
4, 432, Note_on_c, 2, 79, 93
4, 480, Note_off_c, 2, 79, 0
4, 480, Note_on_c, 2, 77, 93
4, 528, Note_off_c, 2, 77, 0
4, 624, Note_on_c, 2, 77, 93
4, 672, Note_off_c, 2, 77, 0
4, 672, Note_on_c, 2, 79, 93
4, 720, Note_off_c, 2, 79, 0
4, 768, Note_on_c, 2, 75, 93
4, 792, Note_off_c, 2, 75, 0
4, 792, Note_on_c, 2, 72, 93
4, 816, Note_off_c, 2, 72, 0
4, 816, Note_on_c, 2, 74, 93
4, 864, Note_off_c, 2, 74, 0
4, 912, Note_on_c, 2, 74, 93
4, 936, Note_off_c, 2, 74, 0
4, 936, Note_on_c, 2, 77, 93
4, 960, Note_off_c, 2, 77, 0
4, 960, Note_on_c, 2, 75, 93
4, 984, Note_off_c, 2, 75, 0
4, 984, Note_on_c, 2, 74, 93
4, 1008, Note_off_c, 2, 74, 0
4, 1008, Note_on_c, 2, 72, 93
4, 1056, Note_off_c, 2, 72, 0
4, 1200, Note_on_c, 2, 72, 93
4, 1224, Note_off_c, 2, 72, 0
4, 1224, Note_on_c, 2, 70, 93
4, 1248, Note_off_c, 2, 70, 0
4, 1248, Note_on_c, 2, 72, 93
4, 1296, Note_off_c, 2, 72, 0
4, 1344, Note_on_c, 2, 72, 93
4, 1392, Note_off_c, 2, 72, 0
4, 1392, Note_on_c, 2, 77, 93
4, 1440, Note_off_c, 2, 77, 0
4, 1488, Note_on_c, 2, 75, 93
4, 1512, Note_off_c, 2, 75, 0
4, 1512, Note_on_c, 2, 74, 93
4, 1536, Note_off_c, 2, 74, 0
4, 1536, Note_on_c, 2, 75, 93
4, 1584, Note_off_c, 2, 75, 0
4, 1728, Note_on_c, 2, 70, 93
4, 1776, Note_off_c, 2, 70, 0
4, 2016, Note_on_c, 2, 58, 93
4, 2088, Note_off_c, 2, 58, 0
4, 2088, Note_on_c, 2, 62, 93
4, 2112, Note_off_c, 2, 62, 0
4, 2112, Note_on_c, 2, 65, 93
4, 2160, Note_off_c, 2, 65, 0
4, 2160, Note_on_c, 2, 63, 93
4, 2184, Note_off_c, 2, 63, 0
4, 2184, Note_on_c, 2, 62, 93
4, 2208, Note_off_c, 2, 62, 0
4, 2208, Note_on_c, 2, 60, 93
4, 2232, Note_off_c, 2, 60, 0
4, 2232, Note_on_c, 2, 58, 93
4, 2256, Note_off_c, 2, 58, 0
4, 2304, Note_on_c, 2, 65, 93
4, 2376, Note_off_c, 2, 65, 0
4, 2376, Note_on_c, 2, 70, 93
4, 2400, Note_off_c, 2, 70, 0
4, 2400, Note_on_c, 2, 69, 93
4, 2448, Note_off_c, 2, 69, 0
4, 2448, Note_on_c, 2, 67, 93
4, 2472, Note_off_c, 2, 67, 0
4, 2472, Note_on_c, 2, 66, 93
4, 2496, Note_off_c, 2, 66, 0
4, 2496, Note_on_c, 2, 64, 93
4, 2520, Note_off_c, 2, 64, 0
4, 2520, Note_on_c, 2, 62, 93
4, 2544, Note_off_c, 2, 62, 0
4, 2592, Note_on_c, 2, 62, 93
4, 2640, Note_off_c, 2, 62, 0
4, 3744, Note_on_c, 2, 60, 93
4, 3816, Note_off_c, 2, 60, 0
4, 3816, Note_on_c, 2, 63, 93
4, 3840, Note_off_c, 2, 63, 0
4, 3840, Note_on_c, 2, 67, 93
4, 3888, Note_off_c, 2, 67, 0
4, 3888, Note_on_c, 2, 65, 93
4, 3912, Note_off_c, 2, 65, 0
4, 3912, Note_on_c, 2, 63, 93
4, 3936, Note_off_c, 2, 63, 0
4, 3936, Note_on_c, 2, 62, 93
4, 3960, Note_off_c, 2, 62, 0
4, 3960, Note_on_c, 2, 60, 93
4, 3984, Note_off_c, 2, 60, 0
4, 3984, Note_on_c, 2, 72, 93
4, 4032, Note_off_c, 2, 72, 0
4, 4032, Note_on_c, 2, 72, 93
4, 4080, Note_off_c, 2, 72, 0
4, 4080, Note_on_c, 2, 70, 93
4, 4128, Note_off_c, 2, 70, 0
4, 4128, Note_on_c, 2, 66, 93
4, 4176, Note_off_c, 2, 66, 0
4, 4176, Note_on_c, 2, 67, 93
4, 4224, Note_off_c, 2, 67, 0
4, 4224, Note_on_c, 2, 60, 93
4, 4272, Note_off_c, 2, 60, 0
4, 4272, Note_on_c, 2, 62, 93
4, 4320, Note_off_c, 2, 62, 0
4, 4320, Note_on_c, 2, 58, 93
4, 4332, Note_off_c, 2, 58, 0
4, 4332, Note_on_c, 2, 62, 93
4, 4344, Note_off_c, 2, 62, 0
4, 4344, Note_on_c, 2, 64, 93
4, 4356, Note_off_c, 2, 64, 0
4, 4356, Note_on_c, 2, 66, 93
4, 4368, Note_off_c, 2, 66, 0
4, 4368, Note_on_c, 2, 67, 93
4, 4380, Note_off_c, 2, 67, 0
4, 4380, Note_on_c, 2, 69, 93
4, 4392, Note_off_c, 2, 69, 0
4, 4392, Note_on_c, 2, 70, 93
4, 4404, Note_off_c, 2, 70, 0
4, 4404, Note_on_c, 2, 72, 93
4, 4416, Note_off_c, 2, 72, 0
4, 4416, Note_on_c, 2, 74, 93
4, 4428, Note_off_c, 2, 74, 0
4, 4428, Note_on_c, 2, 72, 93
4, 4440, Note_off_c, 2, 72, 0
4, 4440, Note_on_c, 2, 75, 93
4, 4452, Note_off_c, 2, 75, 0
4, 4452, Note_on_c, 2, 74, 93
4, 4464, Note_off_c, 2, 74, 0
4, 4512, Note_on_c, 2, 72, 93
4, 4536, Note_off_c, 2, 72, 0
4, 4536, Note_on_c, 2, 70, 93
4, 4560, Note_off_c, 2, 70, 0
4, 4560, Note_on_c, 2, 69, 93
4, 4584, Note_off_c, 2, 69, 0
4, 4584, Note_on_c, 2, 67, 93
4, 4608, Note_off_c, 2, 67, 0
4, 4608, Note_on_c, 2, 67, 93
4, 4680, Note_off_c, 2, 67, 0
4, 4848, Note_on_c, 2, 70, 93
4, 4896, Note_off_c, 2, 70, 0
4, 4896, Note_on_c, 2, 70, 93
4, 4944, Note_off_c, 2, 70, 0
4, 4944, Note_on_c, 2, 69, 93
4, 4992, Note_off_c, 2, 69, 0
4, 5136, Note_on_c, 2, 71, 93
4, 5184, Note_off_c, 2, 71, 0
4, 5184, Note_on_c, 2, 71, 93
4, 5232, Note_off_c, 2, 71, 0
4, 5232, Note_on_c, 2, 72, 93
4, 5280, Note_off_c, 2, 72, 0
4, 5832, Note_on_c, 2, 65, 93
4, 5856, Note_off_c, 2, 65, 0
4, 5856, Note_on_c, 2, 77, 93
4, 5904, Note_off_c, 2, 77, 0
4, 5904, Note_on_c, 2, 75, 93
4, 5928, Note_off_c, 2, 75, 0
4, 5928, Note_on_c, 2, 74, 93
4, 5952, Note_off_c, 2, 74, 0
4, 5952, Note_on_c, 2, 72, 93
4, 5976, Note_off_c, 2, 72, 0
4, 5976, Note_on_c, 2, 70, 93
4, 6000, Note_off_c, 2, 70, 0
4, 6000, Note_on_c, 2, 74, 93
4, 6048, Note_off_c, 2, 74, 0
4, 6048, Note_on_c, 2, 74, 93
4, 6096, Note_off_c, 2, 74, 0
4, 6096, Note_on_c, 2, 75, 93
4, 6144, Note_off_c, 2, 75, 0
4, 6288, Note_on_c, 2, 72, 93
4, 6336, Note_off_c, 2, 72, 0
4, 6336, Note_on_c, 2, 72, 93
4, 6384, Note_off_c, 2, 72, 0
4, 6480, Note_on_c, 2, 70, 93
4, 6528, Note_off_c, 2, 70, 0
4, 6624, Note_on_c, 2, 65, 93
4, 6672, Note_off_c, 2, 65, 0
4, 6768, Note_on_c, 2, 65, 93
4, 6816, Note_off_c, 2, 65, 0
4, 6912, Note_on_c, 2, 67, 93
4, 6960, Note_off_c, 2, 67, 0
4, 7152, Note_on_c, 2, 65, 93
4, 7200, Note_off_c, 2, 65, 0
4, 7200, Note_on_c, 2, 65, 93
4, 7248, Note_off_c, 2, 65, 0
4, 7440, Note_on_c, 2, 65, 93
4, 7488, Note_off_c, 2, 65, 0
4, 7488, Note_on_c, 2, 63, 93
4, 7536, Note_off_c, 2, 63, 0
4, 8064, Note_on_c, 2, 65, 93
4, 8136, Note_off_c, 2, 65, 0
4, 8136, Note_on_c, 2, 69, 93
4, 8160, Note_off_c, 2, 69, 0
4, 8160, Note_on_c, 2, 72, 93
4, 8208, Note_off_c, 2, 72, 0
4, 8208, Note_on_c, 2, 70, 93
4, 8232, Note_off_c, 2, 70, 0
4, 8232, Note_on_c, 2, 69, 93
4, 8256, Note_off_c, 2, 69, 0
4, 8256, Note_on_c, 2, 67, 93
4, 8280, Note_off_c, 2, 67, 0
4, 8280, Note_on_c, 2, 65, 93
4, 8304, Note_off_c, 2, 65, 0
4, 8304, Note_on_c, 2, 63, 93
4, 8352, Note_off_c, 2, 63, 0
4, 8352, Note_on_c, 2, 62, 93
4, 8400, Note_off_c, 2, 62, 0
4, 8496, Note_on_c, 2, 62, 93
4, 8544, Note_off_c, 2, 62, 0
4, 8640, Note_on_c, 2, 60, 93
4, 8688, Note_off_c, 2, 60, 0
4, 8784, Note_on_c, 2, 57, 93
4, 8832, Note_off_c, 2, 57, 0
4, 8928, Note_on_c, 2, 58, 93
4, 8976, Note_off_c, 2, 58, 0
4, 8976, Note_on_c, 2, 55, 93
4, 9024, Note_off_c, 2, 55, 0
4, 9456, Note_on_c, 2, 62, 93
4, 9504, Note_off_c, 2, 62, 0
4, 9504, Note_on_c, 2, 60, 93
4, 9552, Note_off_c, 2, 60, 0
4, 9648, Note_on_c, 2, 58, 93
4, 9696, Note_off_c, 2, 58, 0
4, 9792, Note_on_c, 2, 57, 93
4, 9840, Note_off_c, 2, 57, 0
4, 10128, Note_on_c, 2, 63, 93
4, 10176, Note_off_c, 2, 63, 0
4, 10176, Note_on_c, 2, 62, 93
4, 10224, Note_off_c, 2, 62, 0
4, 10224, Note_on_c, 2, 62, 93
4, 10236, Note_off_c, 2, 62, 0
4, 10236, Note_on_c, 2, 63, 93
4, 10248, Note_off_c, 2, 63, 0
4, 10248, Note_on_c, 2, 65, 93
4, 10272, Note_off_c, 2, 65, 0
4, 10272, Note_on_c, 2, 74, 93
4, 10296, Note_off_c, 2, 74, 0
4, 10296, Note_on_c, 2, 70, 93
4, 10320, Note_off_c, 2, 70, 0
4, 10320, Note_on_c, 2, 63, 93
4, 10368, Note_off_c, 2, 63, 0
4, 10368, Note_on_c, 2, 62, 93
4, 10416, Note_off_c, 2, 62, 0
4, 10656, Note_on_c, 2, 65, 93
4, 10728, Note_off_c, 2, 65, 0
4, 10728, Note_on_c, 2, 69, 93
4, 10752, Note_off_c, 2, 69, 0
4, 10752, Note_on_c, 2, 72, 93
4, 10800, Note_off_c, 2, 72, 0
4, 10800, Note_on_c, 2, 70, 93
4, 10824, Note_off_c, 2, 70, 0
4, 10824, Note_on_c, 2, 69, 93
4, 10848, Note_off_c, 2, 69, 0
4, 10848, Note_on_c, 2, 67, 93
4, 10872, Note_off_c, 2, 67, 0
4, 10872, Note_on_c, 2, 65, 93
4, 10896, Note_off_c, 2, 65, 0
4, 10896, Note_on_c, 2, 75, 93
4, 10944, Note_off_c, 2, 75, 0
4, 10944, Note_on_c, 2, 75, 93
4, 10992, Note_off_c, 2, 75, 0
4, 10992, Note_on_c, 2, 74, 93
4, 11040, Note_off_c, 2, 74, 0
4, 11040, End_track
5, 0, Start_track
5, 0, Title_t, "Track5"
5, 0, Program_c, 3, 40
5, 0, Control_c, 3, 7, 100
5, 0, Control_c, 3, 10, 49
5, 2592, Note_on_c, 3, 55, 93
5, 2664, Note_off_c, 3, 55, 0
5, 2664, Note_on_c, 3, 67, 93
5, 2688, Note_off_c, 3, 67, 0
5, 2688, Note_on_c, 3, 65, 93
5, 2736, Note_off_c, 3, 65, 0
5, 2736, Note_on_c, 3, 63, 93
5, 2784, Note_off_c, 3, 63, 0
5, 2880, Note_on_c, 3, 62, 93
5, 2928, Note_off_c, 3, 62, 0
5, 2928, Note_on_c, 3, 72, 93
5, 2976, Note_off_c, 3, 72, 0
5, 2976, Note_on_c, 3, 70, 93
5, 3024, Note_off_c, 3, 70, 0
5, 3024, Note_on_c, 3, 62, 93
5, 3072, Note_off_c, 3, 62, 0
5, 3072, Note_on_c, 3, 70, 93
5, 3120, Note_off_c, 3, 70, 0
5, 3120, Note_on_c, 3, 72, 93
5, 3168, Note_off_c, 3, 72, 0
5, 3168, Note_on_c, 3, 62, 93
5, 3216, Note_off_c, 3, 62, 0
5, 3216, Note_on_c, 3, 72, 93
5, 3264, Note_off_c, 3, 72, 0
5, 3264, Note_on_c, 3, 74, 93
5, 3312, Note_off_c, 3, 74, 0
5, 3312, Note_on_c, 3, 75, 93
5, 3336, Note_off_c, 3, 75, 0
5, 4896, Note_on_c, 3, 62, 93
5, 4968, Note_off_c, 3, 62, 0
5, 4968, Note_on_c, 3, 63, 93
5, 4992, Note_off_c, 3, 63, 0
5, 4992, Note_on_c, 3, 62, 93
5, 5040, Note_off_c, 3, 62, 0
5, 5040, Note_on_c, 3, 60, 93
5, 5064, Note_off_c, 3, 60, 0
5, 5064, Note_on_c, 3, 59, 93
5, 5088, Note_off_c, 3, 59, 0
5, 5088, Note_on_c, 3, 57, 93
5, 5112, Note_off_c, 3, 57, 0
5, 5112, Note_on_c, 3, 55, 93
5, 5136, Note_off_c, 3, 55, 0
5, 5136, Note_on_c, 3, 65, 93
5, 5184, Note_off_c, 3, 65, 0
5, 5184, Note_on_c, 3, 65, 93
5, 5232, Note_off_c, 3, 65, 0
5, 5232, Note_on_c, 3, 63, 93
5, 5280, Note_off_c, 3, 63, 0
5, 5472, Note_on_c, 3, 67, 93
5, 5544, Note_off_c, 3, 67, 0
5, 5544, Note_on_c, 3, 62, 93
5, 5568, Note_off_c, 3, 62, 0
5, 5568, Note_on_c, 3, 67, 93
5, 5616, Note_off_c, 3, 67, 0
5, 5616, Note_on_c, 3, 65, 93
5, 5640, Note_off_c, 3, 65, 0
5, 5640, Note_on_c, 3, 64, 93
5, 5664, Note_off_c, 3, 64, 0
5, 5664, Note_on_c, 3, 62, 93
5, 5688, Note_off_c, 3, 62, 0
5, 5688, Note_on_c, 3, 60, 93
5, 5712, Note_off_c, 3, 60, 0
5, 5712, Note_on_c, 3, 76, 93
5, 5760, Note_off_c, 3, 76, 0
5, 5760, Note_on_c, 3, 76, 93
5, 5808, Note_off_c, 3, 76, 0
5, 5808, Note_on_c, 3, 77, 93
5, 5856, Note_off_c, 3, 77, 0
5, 6120, Note_on_c, 3, 58, 93
5, 6144, Note_off_c, 3, 58, 0
5, 6144, Note_on_c, 3, 63, 93
5, 6192, Note_off_c, 3, 63, 0
5, 6192, Note_on_c, 3, 62, 93
5, 6216, Note_off_c, 3, 62, 0
5, 6216, Note_on_c, 3, 60, 93
5, 6240, Note_off_c, 3, 60, 0
5, 6240, Note_on_c, 3, 58, 93
5, 6264, Note_off_c, 3, 58, 0
5, 6264, Note_on_c, 3, 57, 93
5, 6288, Note_off_c, 3, 57, 0
5, 6288, Note_on_c, 3, 69, 93
5, 6336, Note_off_c, 3, 69, 0
5, 6336, Note_on_c, 3, 62, 93
5, 6384, Note_off_c, 3, 62, 0
5, 6384, Note_on_c, 3, 55, 93
5, 6408, Note_off_c, 3, 55, 0
5, 6408, Note_on_c, 3, 79, 93
5, 6432, Note_off_c, 3, 79, 0
5, 6432, Note_on_c, 3, 70, 93
5, 6480, Note_off_c, 3, 70, 0
5, 6480, Note_on_c, 3, 60, 93
5, 6528, Note_off_c, 3, 60, 0
5, 6528, Note_on_c, 3, 65, 93
5, 6552, Note_off_c, 3, 65, 0
5, 6552, Note_on_c, 3, 72, 93
5, 6576, Note_off_c, 3, 72, 0
5, 6576, Note_on_c, 3, 69, 93
5, 6624, Note_off_c, 3, 69, 0
5, 6624, Note_on_c, 3, 58, 93
5, 6672, Note_off_c, 3, 58, 0
5, 6672, Note_on_c, 3, 67, 93
5, 6720, Note_off_c, 3, 67, 0
5, 6720, Note_on_c, 3, 63, 93
5, 6768, Note_off_c, 3, 63, 0
5, 6912, Note_on_c, 3, 60, 93
5, 6960, Note_off_c, 3, 60, 0
5, 7152, Note_on_c, 3, 57, 93
5, 7200, Note_off_c, 3, 57, 0
5, 7200, Note_on_c, 3, 58, 93
5, 7248, Note_off_c, 3, 58, 0
5, 7440, Note_on_c, 3, 58, 93
5, 7488, Note_off_c, 3, 58, 0
5, 8496, Note_on_c, 3, 55, 93
5, 8544, Note_off_c, 3, 55, 0
5, 9024, Note_on_c, 3, 79, 93
5, 9072, Note_off_c, 3, 79, 0
5, 9072, Note_on_c, 3, 77, 93
5, 9120, Note_off_c, 3, 77, 0
5, 9120, Note_on_c, 3, 75, 93
5, 9144, Note_off_c, 3, 75, 0
5, 9144, Note_on_c, 3, 72, 93
5, 9168, Note_off_c, 3, 72, 0
5, 9168, Note_on_c, 3, 74, 93
5, 9216, Note_off_c, 3, 74, 0
5, 9216, Note_on_c, 3, 72, 93
5, 9240, Note_off_c, 3, 72, 0
5, 9240, Note_on_c, 3, 70, 93
5, 9264, Note_off_c, 3, 70, 0
5, 9264, Note_on_c, 3, 75, 93
5, 9312, Note_off_c, 3, 75, 0
5, 9312, Note_on_c, 3, 74, 93
5, 9360, Note_off_c, 3, 74, 0
5, 9456, Note_on_c, 3, 77, 93
5, 9504, Note_off_c, 3, 77, 0
5, 9504, Note_on_c, 3, 76, 93
5, 9576, Note_off_c, 3, 76, 0
5, 9576, Note_on_c, 3, 77, 93
5, 9600, Note_off_c, 3, 77, 0
5, 9600, Note_on_c, 3, 76, 93
5, 9648, Note_off_c, 3, 76, 0
5, 9648, Note_on_c, 3, 76, 93
5, 9672, Note_off_c, 3, 76, 0
5, 9672, Note_on_c, 3, 79, 93
5, 9696, Note_off_c, 3, 79, 0
5, 9696, Note_on_c, 3, 77, 93
5, 9720, Note_off_c, 3, 77, 0
5, 9720, Note_on_c, 3, 76, 93
5, 9744, Note_off_c, 3, 76, 0
5, 9744, Note_on_c, 3, 74, 93
5, 9768, Note_off_c, 3, 74, 0
5, 9768, Note_on_c, 3, 72, 93
5, 9792, Note_off_c, 3, 72, 0
5, 9792, Note_on_c, 3, 72, 93
5, 9840, Note_off_c, 3, 72, 0
5, 10128, Note_on_c, 3, 69, 93
5, 10176, Note_off_c, 3, 69, 0
5, 10176, Note_on_c, 3, 70, 93
5, 10224, Note_off_c, 3, 70, 0
5, 10320, Note_on_c, 3, 72, 93
5, 10368, Note_off_c, 3, 72, 0
5, 10368, Note_on_c, 3, 70, 93
5, 10416, Note_off_c, 3, 70, 0
5, 10944, Note_on_c, 3, 58, 93
5, 10992, Note_off_c, 3, 58, 0
5, 10992, End_track
0, 0, End_of_file
