0, 0, Header, 1, 5, 96
1, 0, Start_track
1, 0, Time_signature, 4, 2, 24, 8
1, 0, Title_t, "untitled"
1, 0, Title_t, "Track1"
1, 0, End_track
2, 0, Start_track
2, 0, Title_t, "Track2"
2, 0, Program_c, 0, 40
2, 0, Control_c, 0, 7, 100
2, 0, Control_c, 0, 10, 69
2, 0, Note_on_c, 0, 76, 93
2, 96, Note_off_c, 0, 76, 0
2, 108, Note_on_c, 0, 77, 93
2, 120, Note_off_c, 0, 77, 0
2, 120, Note_on_c, 0, 76, 93
2, 132, Note_off_c, 0, 76, 0
2, 132, Note_on_c, 0, 74, 93
2, 138, Note_off_c, 0, 74, 0
2, 138, Note_on_c, 0, 72, 93
2, 144, Note_off_c, 0, 72, 0
2, 144, Note_on_c, 0, 71, 93
2, 168, Note_off_c, 0, 71, 0
2, 168, Note_on_c, 0, 69, 93
2, 192, Note_off_c, 0, 69, 0
2, 192, Note_on_c, 0, 69, 93
2, 216, Note_off_c, 0, 69, 0
2, 216, Note_on_c, 0, 68, 93
2, 240, Note_off_c, 0, 68, 0
2, 240, Note_on_c, 0, 69, 93
2, 312, Note_off_c, 0, 69, 0
2, 312, Note_on_c, 0, 69, 93
2, 324, Note_off_c, 0, 69, 0
2, 324, Note_on_c, 0, 71, 93
2, 336, Note_off_c, 0, 71, 0
2, 336, Note_on_c, 0, 72, 93
2, 348, Note_off_c, 0, 72, 0
2, 348, Note_on_c, 0, 74, 93
2, 360, Note_off_c, 0, 74, 0
2, 360, Note_on_c, 0, 76, 93
2, 384, Note_off_c, 0, 76, 0
2, 384, Note_on_c, 0, 77, 93
2, 420, Note_off_c, 0, 77, 0
2, 420, Note_on_c, 0, 76, 93
2, 432, Note_off_c, 0, 76, 0
2, 432, Note_on_c, 0, 74, 93
2, 456, Note_off_c, 0, 74, 0
2, 456, Note_on_c, 0, 72, 93
2, 468, Note_off_c, 0, 72, 0
2, 468, Note_on_c, 0, 71, 93
2, 480, Note_off_c, 0, 71, 0
2, 480, Note_on_c, 0, 71, 93
2, 528, Note_off_c, 0, 71, 0
2, 528, Note_on_c, 0, 69, 93
2, 540, Note_off_c, 0, 69, 0
2, 540, Note_on_c, 0, 68, 93
2, 552, Note_off_c, 0, 68, 0
2, 552, Note_on_c, 0, 69, 93
2, 576, Note_off_c, 0, 69, 0
2, 576, Note_on_c, 0, 68, 93
2, 624, Note_off_c, 0, 68, 0
2, 624, Note_on_c, 0, 66, 93
2, 648, Note_off_c, 0, 66, 0
2, 648, Note_on_c, 0, 64, 93
2, 672, Note_off_c, 0, 64, 0
2, 672, Note_on_c, 0, 62, 93
2, 708, Note_off_c, 0, 62, 0
2, 708, Note_on_c, 0, 65, 93
2, 720, Note_off_c, 0, 65, 0
2, 720, Note_on_c, 0, 64, 93
2, 732, Note_off_c, 0, 64, 0
2, 732, Note_on_c, 0, 62, 93
2, 744, Note_off_c, 0, 62, 0
2, 744, Note_on_c, 0, 60, 93
2, 756, Note_off_c, 0, 60, 0
2, 756, Note_on_c, 0, 62, 93
2, 762, Note_off_c, 0, 62, 0
2, 762, Note_on_c, 0, 59, 93
2, 768, Note_off_c, 0, 59, 0
2, 768, Note_on_c, 0, 60, 93
2, 780, Note_off_c, 0, 60, 0
2, 780, Note_on_c, 0, 57, 93
2, 792, Note_off_c, 0, 57, 0
2, 792, Note_on_c, 0, 60, 93
2, 804, Note_off_c, 0, 60, 0
2, 804, Note_on_c, 0, 64, 93
2, 816, Note_off_c, 0, 64, 0
2, 816, Note_on_c, 0, 69, 93
2, 828, Note_off_c, 0, 69, 0
2, 828, Note_on_c, 0, 72, 93
2, 840, Note_off_c, 0, 72, 0
2, 840, Note_on_c, 0, 76, 93
2, 852, Note_off_c, 0, 76, 0
2, 852, Note_on_c, 0, 77, 93
2, 864, Note_off_c, 0, 77, 0
2, 864, Note_on_c, 0, 77, 93
2, 936, Note_off_c, 0, 77, 0
2, 936, Note_on_c, 0, 76, 93
2, 948, Note_off_c, 0, 76, 0
2, 948, Note_on_c, 0, 77, 93
2, 960, Note_off_c, 0, 77, 0
2, 960, Note_on_c, 0, 79, 93
2, 996, Note_off_c, 0, 79, 0
2, 996, Note_on_c, 0, 77, 93
2, 1008, Note_off_c, 0, 77, 0
2, 1008, Note_on_c, 0, 76, 93
2, 1032, Note_off_c, 0, 76, 0
2, 1032, Note_on_c, 0, 74, 93
2, 1044, Note_off_c, 0, 74, 0
2, 1044, Note_on_c, 0, 72, 93
2, 1056, Note_off_c, 0, 72, 0
2, 1056, Note_on_c, 0, 72, 93
2, 1104, Note_off_c, 0, 72, 0
2, 1104, Note_on_c, 0, 70, 93
2, 1116, Note_off_c, 0, 70, 0
2, 1116, Note_on_c, 0, 69, 93
2, 1128, Note_off_c, 0, 69, 0
2, 1128, Note_on_c, 0, 70, 93
2, 1152, Note_off_c, 0, 70, 0
2, 1152, Note_on_c, 0, 69, 93
2, 1224, Note_off_c, 0, 69, 0
2, 1224, Note_on_c, 0, 81, 93
2, 1248, Note_off_c, 0, 81, 0
2, 1248, Note_on_c, 0, 79, 93
2, 1260, Note_off_c, 0, 79, 0
2, 1260, Note_on_c, 0, 77, 93
2, 1284, Note_off_c, 0, 77, 0
2, 1284, Note_on_c, 0, 76, 93
2, 1296, Note_off_c, 0, 76, 0
2, 1296, Note_on_c, 0, 74, 93
2, 1320, Note_off_c, 0, 74, 0
2, 1320, Note_on_c, 0, 76, 93
2, 1332, Note_off_c, 0, 76, 0
2, 1332, Note_on_c, 0, 72, 93
2, 1344, Note_off_c, 0, 72, 0
2, 1344, Note_on_c, 0, 71, 93
2, 1362, Note_off_c, 0, 71, 0
2, 1362, Note_on_c, 0, 67, 93
2, 1368, Note_off_c, 0, 67, 0
2, 1368, Note_on_c, 0, 69, 93
2, 1380, Note_off_c, 0, 69, 0
2, 1380, Note_on_c, 0, 71, 93
2, 1392, Note_off_c, 0, 71, 0
2, 1392, Note_on_c, 0, 72, 93
2, 1404, Note_off_c, 0, 72, 0
2, 1404, Note_on_c, 0, 74, 93
2, 1416, Note_off_c, 0, 74, 0
2, 1416, Note_on_c, 0, 76, 93
2, 1422, Note_off_c, 0, 76, 0
2, 1422, Note_on_c, 0, 77, 93
2, 1428, Note_off_c, 0, 77, 0
2, 1428, Note_on_c, 0, 79, 93
2, 1434, Note_off_c, 0, 79, 0
2, 1434, Note_on_c, 0, 71, 93
2, 1440, Note_off_c, 0, 71, 0
2, 1440, Note_on_c, 0, 72, 93
2, 1512, Note_off_c, 0, 72, 0
2, 1512, Note_on_c, 0, 71, 93
2, 1524, Note_off_c, 0, 71, 0
2, 1524, Note_on_c, 0, 72, 93
2, 1536, Note_off_c, 0, 72, 0
2, 1536, Note_on_c, 0, 74, 93
2, 1608, Note_off_c, 0, 74, 0
2, 1608, Note_on_c, 0, 67, 93
2, 1632, Note_off_c, 0, 67, 0
2, 1632, Note_on_c, 0, 65, 93
2, 1650, Note_off_c, 0, 65, 0
2, 1650, Note_on_c, 0, 64, 93
2, 1662, Note_off_c, 0, 64, 0
2, 1662, Note_on_c, 0, 62, 93
2, 1680, Note_off_c, 0, 62, 0
2, 1680, Note_on_c, 0, 69, 93
2, 1698, Note_off_c, 0, 69, 0
2, 1698, Note_on_c, 0, 67, 93
2, 1710, Note_off_c, 0, 67, 0
2, 1710, Note_on_c, 0, 65, 93
2, 1728, Note_off_c, 0, 65, 0
2, 1728, Note_on_c, 0, 64, 93
2, 1758, Note_off_c, 0, 64, 0
2, 1758, Note_on_c, 0, 67, 93
2, 1764, Note_off_c, 0, 67, 0
2, 1764, Note_on_c, 0, 69, 93
2, 1770, Note_off_c, 0, 69, 0
2, 1770, Note_on_c, 0, 71, 93
2, 1776, Note_off_c, 0, 71, 0
2, 1776, Note_on_c, 0, 72, 93
2, 1806, Note_off_c, 0, 72, 0
2, 1806, Note_on_c, 0, 67, 93
2, 1812, Note_off_c, 0, 67, 0
2, 1812, Note_on_c, 0, 69, 93
2, 1818, Note_off_c, 0, 69, 0
2, 1818, Note_on_c, 0, 71, 93
2, 1824, Note_off_c, 0, 71, 0
2, 1824, Note_on_c, 0, 72, 93
2, 1830, Note_off_c, 0, 72, 0
2, 1830, Note_on_c, 0, 74, 93
2, 1836, Note_off_c, 0, 74, 0
2, 1836, Note_on_c, 0, 76, 93
2, 1860, Note_off_c, 0, 76, 0
2, 1860, Note_on_c, 0, 71, 93
2, 1872, Note_off_c, 0, 71, 0
2, 1872, Note_on_c, 0, 72, 93
2, 1884, Note_off_c, 0, 72, 0
2, 1884, Note_on_c, 0, 74, 93
2, 1896, Note_off_c, 0, 74, 0
2, 1896, Note_on_c, 0, 76, 93
2, 1908, Note_off_c, 0, 76, 0
2, 1908, Note_on_c, 0, 79, 93
2, 1914, Note_off_c, 0, 79, 0
2, 1914, Note_on_c, 0, 78, 93
2, 1920, Note_off_c, 0, 78, 0
2, 1920, Note_on_c, 0, 78, 93
2, 1944, Note_off_c, 0, 78, 0
2, 1944, Note_on_c, 0, 81, 93
2, 1968, Note_off_c, 0, 81, 0
2, 1968, Note_on_c, 0, 84, 93
2, 1992, Note_off_c, 0, 84, 0
2, 1992, Note_on_c, 0, 86, 93
2, 2004, Note_off_c, 0, 86, 0
2, 2004, Note_on_c, 0, 83, 93
2, 2016, Note_off_c, 0, 83, 0
2, 2016, Note_on_c, 0, 84, 93
2, 2040, Note_off_c, 0, 84, 0
2, 2040, Note_on_c, 0, 77, 93
2, 2052, Note_off_c, 0, 77, 0
2, 2052, Note_on_c, 0, 76, 93
2, 2064, Note_off_c, 0, 76, 0
2, 2064, Note_on_c, 0, 77, 93
2, 2112, Note_off_c, 0, 77, 0
2, 2112, Note_on_c, 0, 76, 93
2, 2160, Note_off_c, 0, 76, 0
2, 2184, Note_on_c, 0, 81, 93
2, 2208, Note_off_c, 0, 81, 0
2, 4032, Note_on_c, 0, 71, 93
2, 4080, Note_off_c, 0, 71, 0
2, 4608, Note_on_c, 0, 69, 93
2, 4668, Note_off_c, 0, 69, 0
2, 4668, Note_on_c, 0, 64, 93
2, 4680, Note_off_c, 0, 64, 0
2, 4680, Note_on_c, 0, 66, 93
2, 4692, Note_off_c, 0, 66, 0
2, 4692, Note_on_c, 0, 68, 93
2, 4704, Note_off_c, 0, 68, 0
2, 4704, Note_on_c, 0, 69, 93
2, 4716, Note_off_c, 0, 69, 0
2, 4716, Note_on_c, 0, 71, 93
2, 4728, Note_off_c, 0, 71, 0
2, 4728, Note_on_c, 0, 72, 93
2, 4740, Note_off_c, 0, 72, 0
2, 4740, Note_on_c, 0, 74, 93
2, 4752, Note_off_c, 0, 74, 0
2, 4752, Note_on_c, 0, 76, 93
2, 4764, Note_off_c, 0, 76, 0
2, 4764, Note_on_c, 0, 77, 93
2, 4776, Note_off_c, 0, 77, 0
2, 4776, Note_on_c, 0, 79, 93
2, 4788, Note_off_c, 0, 79, 0
2, 4788, Note_on_c, 0, 82, 93
2, 4794, Note_off_c, 0, 82, 0
2, 4794, Note_on_c, 0, 81, 93
2, 4800, Note_off_c, 0, 81, 0
2, 4800, Note_on_c, 0, 82, 93
2, 4824, Note_off_c, 0, 82, 0
2, 4824, Note_on_c, 0, 81, 93
2, 4848, Note_off_c, 0, 81, 0
2, 4848, Note_on_c, 0, 81, 93
2, 4872, Note_off_c, 0, 81, 0
2, 4872, Note_on_c, 0, 79, 93
2, 4896, Note_off_c, 0, 79, 0
2, 4896, Note_on_c, 0, 79, 93
2, 4920, Note_off_c, 0, 79, 0
2, 4920, Note_on_c, 0, 77, 93
2, 4944, Note_off_c, 0, 77, 0
2, 4944, Note_on_c, 0, 79, 93
2, 4968, Note_off_c, 0, 79, 0
2, 4968, Note_on_c, 0, 76, 93
2, 4992, Note_off_c, 0, 76, 0
2, 4992, Note_on_c, 0, 77, 93
2, 5016, Note_off_c, 0, 77, 0
2, 5016, Note_on_c, 0, 81, 93
2, 5028, Note_off_c, 0, 81, 0
2, 5028, Note_on_c, 0, 79, 93
2, 5040, Note_off_c, 0, 79, 0
2, 5040, Note_on_c, 0, 81, 93
2, 5088, Note_off_c, 0, 81, 0
2, 5100, Note_on_c, 0, 82, 93
2, 5112, Note_off_c, 0, 82, 0
2, 5112, Note_on_c, 0, 81, 93
2, 5124, Note_off_c, 0, 81, 0
2, 5124, Note_on_c, 0, 79, 93
2, 5136, Note_off_c, 0, 79, 0
2, 5136, Note_on_c, 0, 77, 93
2, 5148, Note_off_c, 0, 77, 0
2, 5148, Note_on_c, 0, 76, 93
2, 5160, Note_off_c, 0, 76, 0
2, 5160, Note_on_c, 0, 74, 93
2, 5172, Note_off_c, 0, 74, 0
2, 5172, Note_on_c, 0, 76, 93
2, 5178, Note_off_c, 0, 76, 0
2, 5178, Note_on_c, 0, 73, 93
2, 5184, Note_off_c, 0, 73, 0
2, 5184, Note_on_c, 0, 74, 93
2, 5196, Note_off_c, 0, 74, 0
2, 5196, Note_on_c, 0, 69, 93
2, 5208, Note_off_c, 0, 69, 0
2, 5208, Note_on_c, 0, 70, 93
2, 5220, Note_off_c, 0, 70, 0
2, 5220, Note_on_c, 0, 67, 93
2, 5232, Note_off_c, 0, 67, 0
2, 5232, Note_on_c, 0, 64, 93
2, 5244, Note_off_c, 0, 64, 0
2, 5244, Note_on_c, 0, 61, 93
2, 5256, Note_off_c, 0, 61, 0
2, 5256, Note_on_c, 0, 62, 93
2, 5268, Note_off_c, 0, 62, 0
2, 5268, Note_on_c, 0, 58, 93
2, 5280, Note_off_c, 0, 58, 0
2, 5280, Note_on_c, 0, 57, 93
2, 5292, Note_off_c, 0, 57, 0
2, 5292, Note_on_c, 0, 62, 93
2, 5304, Note_off_c, 0, 62, 0
2, 5304, Note_on_c, 0, 66, 93
2, 5316, Note_off_c, 0, 66, 0
2, 5316, Note_on_c, 0, 69, 93
2, 5328, Note_off_c, 0, 69, 0
2, 5328, Note_on_c, 0, 72, 93
2, 5340, Note_off_c, 0, 72, 0
2, 5340, Note_on_c, 0, 75, 93
2, 5352, Note_off_c, 0, 75, 0
2, 5352, Note_on_c, 0, 74, 93
2, 5364, Note_off_c, 0, 74, 0
2, 5364, Note_on_c, 0, 69, 93
2, 5376, Note_off_c, 0, 69, 0
2, 5376, Note_on_c, 0, 70, 93
2, 5388, Note_off_c, 0, 70, 0
2, 5388, Note_on_c, 0, 66, 93
2, 5400, Note_off_c, 0, 66, 0
2, 5400, Note_on_c, 0, 67, 93
2, 5412, Note_off_c, 0, 67, 0
2, 5412, Note_on_c, 0, 70, 93
2, 5424, Note_off_c, 0, 70, 0
2, 5424, Note_on_c, 0, 74, 93
2, 5436, Note_off_c, 0, 74, 0
2, 5436, Note_on_c, 0, 78, 93
2, 5448, Note_off_c, 0, 78, 0
2, 5448, Note_on_c, 0, 79, 93
2, 5460, Note_off_c, 0, 79, 0
2, 5460, Note_on_c, 0, 82, 93
2, 5472, Note_off_c, 0, 82, 0
2, 5472, Note_on_c, 0, 77, 93
2, 5496, Note_off_c, 0, 77, 0
2, 5496, Note_on_c, 0, 76, 93
2, 5520, Note_off_c, 0, 76, 0
2, 5520, Note_on_c, 0, 68, 93
2, 5532, Note_off_c, 0, 68, 0
2, 5532, Note_on_c, 0, 74, 93
2, 5544, Note_off_c, 0, 74, 0
2, 5544, Note_on_c, 0, 73, 93
2, 5556, Note_off_c, 0, 73, 0
2, 5556, Note_on_c, 0, 74, 93
2, 5568, Note_off_c, 0, 74, 0
2, 5568, Note_on_c, 0, 72, 93
2, 5604, Note_off_c, 0, 72, 0
2, 5604, Note_on_c, 0, 74, 93
2, 5616, Note_off_c, 0, 74, 0
2, 5616, Note_on_c, 0, 76, 93
2, 5628, Note_off_c, 0, 76, 0
2, 5628, Note_on_c, 0, 77, 93
2, 5640, Note_off_c, 0, 77, 0
2, 5640, Note_on_c, 0, 79, 93
2, 5652, Note_off_c, 0, 79, 0
2, 5652, Note_on_c, 0, 76, 93
2, 5664, Note_off_c, 0, 76, 0
2, 5664, Note_on_c, 0, 70, 93
2, 5700, Note_off_c, 0, 70, 0
2, 5700, Note_on_c, 0, 61, 93
2, 5706, Note_off_c, 0, 61, 0
2, 5706, Note_on_c, 0, 62, 93
2, 5712, Note_off_c, 0, 62, 0
2, 5712, Note_on_c, 0, 64, 93
2, 5724, Note_off_c, 0, 64, 0
2, 5724, Note_on_c, 0, 65, 93
2, 5736, Note_off_c, 0, 65, 0
2, 5736, Note_on_c, 0, 67, 93
2, 5748, Note_off_c, 0, 67, 0
2, 5748, Note_on_c, 0, 64, 93
2, 5760, Note_off_c, 0, 64, 0
2, 5760, Note_on_c, 0, 65, 93
2, 5772, Note_off_c, 0, 65, 0
2, 5772, Note_on_c, 0, 68, 93
2, 5784, Note_off_c, 0, 68, 0
2, 5784, Note_on_c, 0, 69, 93
2, 5796, Note_off_c, 0, 69, 0
2, 5796, Note_on_c, 0, 74, 93
2, 5808, Note_off_c, 0, 74, 0
2, 5808, Note_on_c, 0, 77, 93
2, 5820, Note_off_c, 0, 77, 0
2, 5820, Note_on_c, 0, 80, 93
2, 5832, Note_off_c, 0, 80, 0
2, 5832, Note_on_c, 0, 81, 93
2, 5844, Note_off_c, 0, 81, 0
2, 5844, Note_on_c, 0, 82, 93
2, 5856, Note_off_c, 0, 82, 0
2, 5856, Note_on_c, 0, 74, 93
2, 5904, Note_off_c, 0, 74, 0
2, 5904, Note_on_c, 0, 73, 93
2, 5940, Note_off_c, 0, 73, 0
2, 5940, Note_on_c, 0, 74, 93
2, 5952, Note_off_c, 0, 74, 0
2, 5952, Note_on_c, 0, 74, 93
2, 5988, Note_off_c, 0, 74, 0
2, 5988, Note_on_c, 0, 72, 93
2, 5994, Note_off_c, 0, 72, 0
2, 5994, Note_on_c, 0, 70, 93
2, 6000, Note_off_c, 0, 70, 0
2, 6000, Note_on_c, 0, 69, 93
2, 6012, Note_off_c, 0, 69, 0
2, 6012, Note_on_c, 0, 67, 93
2, 6024, Note_off_c, 0, 67, 0
2, 6024, Note_on_c, 0, 65, 93
2, 6036, Note_off_c, 0, 65, 0
2, 6036, Note_on_c, 0, 67, 93
2, 6042, Note_off_c, 0, 67, 0
2, 6042, Note_on_c, 0, 69, 93
2, 6048, Note_off_c, 0, 69, 0
2, 6048, Note_on_c, 0, 62, 93
2, 6060, Note_off_c, 0, 62, 0
2, 6060, Note_on_c, 0, 65, 93
2, 6072, Note_off_c, 0, 65, 0
2, 6072, Note_on_c, 0, 69, 93
2, 6084, Note_off_c, 0, 69, 0
2, 6084, Note_on_c, 0, 74, 93
2, 6096, Note_off_c, 0, 74, 0
2, 6096, Note_on_c, 0, 77, 93
2, 6108, Note_off_c, 0, 77, 0
2, 6108, Note_on_c, 0, 81, 93
2, 6120, Note_off_c, 0, 81, 0
2, 6120, Note_on_c, 0, 79, 93
2, 6126, Note_off_c, 0, 79, 0
2, 6126, Note_on_c, 0, 76, 93
2, 6132, Note_off_c, 0, 76, 0
2, 6132, Note_on_c, 0, 77, 93
2, 6144, Note_off_c, 0, 77, 0
2, 6144, Note_on_c, 0, 77, 93
2, 6198, Note_off_c, 0, 77, 0
2, 6198, Note_on_c, 0, 74, 93
2, 6204, Note_off_c, 0, 74, 0
2, 6204, Note_on_c, 0, 76, 93
2, 6210, Note_off_c, 0, 76, 0
2, 6210, Note_on_c, 0, 77, 93
2, 6216, Note_off_c, 0, 77, 0
2, 6216, Note_on_c, 0, 79, 93
2, 6222, Note_off_c, 0, 79, 0
2, 6222, Note_on_c, 0, 81, 93
2, 6228, Note_off_c, 0, 81, 0
2, 6228, Note_on_c, 0, 83, 93
2, 6234, Note_off_c, 0, 83, 0
2, 6234, Note_on_c, 0, 84, 93
2, 6240, Note_off_c, 0, 84, 0
2, 6240, Note_on_c, 0, 86, 93
2, 6264, Note_off_c, 0, 86, 0
2, 6264, Note_on_c, 0, 83, 93
2, 6276, Note_off_c, 0, 83, 0
2, 6276, Note_on_c, 0, 79, 93
2, 6288, Note_off_c, 0, 79, 0
2, 6288, Note_on_c, 0, 77, 93
2, 6312, Note_off_c, 0, 77, 0
2, 6312, Note_on_c, 0, 76, 93
2, 6336, Note_off_c, 0, 76, 0
2, 6336, Note_on_c, 0, 76, 93
2, 6384, Note_off_c, 0, 76, 0
2, 6528, Note_on_c, 0, 74, 93
2, 6552, Note_off_c, 0, 74, 0
2, 6552, Note_on_c, 0, 76, 93
2, 6564, Note_off_c, 0, 76, 0
2, 6564, Note_on_c, 0, 77, 93
2, 6576, Note_off_c, 0, 77, 0
2, 6576, Note_on_c, 0, 68, 93
2, 6600, Note_off_c, 0, 68, 0
2, 6600, Note_on_c, 0, 76, 93
2, 6624, Note_off_c, 0, 76, 0
2, 6624, Note_on_c, 0, 74, 93
2, 6672, Note_off_c, 0, 74, 0
2, 6672, Note_on_c, 0, 72, 93
2, 6708, Note_off_c, 0, 72, 0
2, 6708, Note_on_c, 0, 71, 93
2, 6714, Note_off_c, 0, 71, 0
2, 6714, Note_on_c, 0, 72, 93
2, 6720, Note_off_c, 0, 72, 0
2, 6720, Note_on_c, 0, 71, 93
2, 6774, Note_off_c, 0, 71, 0
2, 6780, Note_on_c, 0, 80, 93
2, 6792, Note_off_c, 0, 80, 0
2, 6792, Note_on_c, 0, 81, 93
2, 6804, Note_off_c, 0, 81, 0
2, 6804, Note_on_c, 0, 83, 93
2, 6816, Note_off_c, 0, 83, 0
2, 6816, Note_on_c, 0, 81, 93
2, 6828, Note_off_c, 0, 81, 0
2, 6828, Note_on_c, 0, 80, 93
2, 6840, Note_off_c, 0, 80, 0
2, 6840, Note_on_c, 0, 78, 93
2, 6852, Note_off_c, 0, 78, 0
2, 6852, Note_on_c, 0, 76, 93
2, 6864, Note_off_c, 0, 76, 0
2, 6864, Note_on_c, 0, 74, 93
2, 6876, Note_off_c, 0, 74, 0
2, 6876, Note_on_c, 0, 71, 93
2, 6888, Note_off_c, 0, 71, 0
2, 6888, Note_on_c, 0, 68, 93
2, 6900, Note_off_c, 0, 68, 0
2, 6900, Note_on_c, 0, 64, 93
2, 6912, Note_off_c, 0, 64, 0
2, 6912, Note_on_c, 0, 61, 93
2, 6936, Note_off_c, 0, 61, 0
2, 6936, Note_on_c, 0, 67, 93
2, 6948, Note_off_c, 0, 67, 0
2, 6948, Note_on_c, 0, 69, 93
2, 6960, Note_off_c, 0, 69, 0
2, 6960, Note_on_c, 0, 70, 93
2, 6984, Note_off_c, 0, 70, 0
2, 6984, Note_on_c, 0, 69, 93
2, 7008, Note_off_c, 0, 69, 0
2, 7008, Note_on_c, 0, 67, 93
2, 7020, Note_off_c, 0, 67, 0
2, 7020, Note_on_c, 0, 66, 93
2, 7032, Note_off_c, 0, 66, 0
2, 7032, Note_on_c, 0, 67, 93
2, 7056, Note_off_c, 0, 67, 0
2, 7056, Note_on_c, 0, 76, 93
2, 7080, Note_off_c, 0, 76, 0
2, 7080, Note_on_c, 0, 67, 93
2, 7104, Note_off_c, 0, 67, 0
2, 7104, Note_on_c, 0, 66, 93
2, 7122, Note_off_c, 0, 66, 0
2, 7122, Note_on_c, 0, 69, 93
2, 7128, Note_off_c, 0, 69, 0
2, 7128, Note_on_c, 0, 71, 93
2, 7140, Note_off_c, 0, 71, 0
2, 7140, Note_on_c, 0, 72, 93
2, 7152, Note_off_c, 0, 72, 0
2, 7152, Note_on_c, 0, 74, 93
2, 7164, Note_off_c, 0, 74, 0
2, 7164, Note_on_c, 0, 76, 93
2, 7176, Note_off_c, 0, 76, 0
2, 7176, Note_on_c, 0, 77, 93
2, 7188, Note_off_c, 0, 77, 0
2, 7188, Note_on_c, 0, 79, 93
2, 7200, Note_off_c, 0, 79, 0
2, 7200, Note_on_c, 0, 77, 93
2, 7212, Note_off_c, 0, 77, 0
2, 7212, Note_on_c, 0, 76, 93
2, 7224, Note_off_c, 0, 76, 0
2, 7224, Note_on_c, 0, 77, 93
2, 7236, Note_off_c, 0, 77, 0
2, 7236, Note_on_c, 0, 74, 93
2, 7248, Note_off_c, 0, 74, 0
2, 7248, Note_on_c, 0, 68, 93
2, 7272, Note_off_c, 0, 68, 0
2, 7272, Note_on_c, 0, 77, 93
2, 7296, Note_off_c, 0, 77, 0
2, 7296, Note_on_c, 0, 76, 93
2, 7368, Note_off_c, 0, 76, 0
2, 7368, Note_on_c, 0, 74, 93
2, 7392, Note_off_c, 0, 74, 0
2, 7392, Note_on_c, 0, 74, 93
2, 7416, Note_off_c, 0, 74, 0
2, 7416, Note_on_c, 0, 72, 93
2, 7440, Note_off_c, 0, 72, 0
2, 7440, Note_on_c, 0, 74, 93
2, 7464, Note_off_c, 0, 74, 0
2, 7464, Note_on_c, 0, 71, 93
2, 7488, Note_off_c, 0, 71, 0
2, 7488, Note_on_c, 0, 72, 93
2, 7560, Note_off_c, 0, 72, 0
2, 7560, End_track
3, 0, Start_track
3, 0, Title_t, "Track3"
3, 0, Program_c, 1, 40
3, 0, Control_c, 1, 7, 100
3, 0, Control_c, 1, 10, 59
3, 0, Note_on_c, 1, 72, 93
3, 96, Note_off_c, 1, 72, 0
3, 1152, Note_on_c, 1, 65, 93
3, 1200, Note_off_c, 1, 65, 0
3, 1344, Note_on_c, 1, 65, 93
3, 1392, Note_off_c, 1, 65, 0
3, 1440, Note_on_c, 1, 64, 93
3, 1536, Note_off_c, 1, 64, 0
3, 1536, Note_on_c, 1, 67, 93
3, 1584, Note_off_c, 1, 67, 0
3, 1920, Note_on_c, 1, 69, 93
3, 1968, Note_off_c, 1, 69, 0
3, 2064, Note_on_c, 1, 69, 93
3, 2112, Note_off_c, 1, 69, 0
3, 2112, Note_on_c, 1, 67, 93
3, 2160, Note_off_c, 1, 67, 0
3, 2160, Note_on_c, 1, 65, 93
3, 2208, Note_off_c, 1, 65, 0
3, 2208, Note_on_c, 1, 67, 93
3, 2304, Note_off_c, 1, 67, 0
3, 2304, Note_on_c, 1, 60, 93
3, 2352, Note_off_c, 1, 60, 0
3, 2496, Note_on_c, 1, 59, 93
3, 2544, Note_off_c, 1, 59, 0
3, 2688, Note_on_c, 1, 57, 93
3, 2736, Note_off_c, 1, 57, 0
3, 2880, Note_on_c, 1, 63, 93
3, 2952, Note_off_c, 1, 63, 0
3, 3024, Note_on_c, 1, 64, 93
3, 3072, Note_off_c, 1, 64, 0
3, 3072, Note_on_c, 1, 59, 93
3, 3120, Note_off_c, 1, 59, 0
3, 3648, Note_on_c, 1, 76, 93
3, 3696, Note_off_c, 1, 76, 0
3, 4032, Note_on_c, 1, 67, 93
3, 4080, Note_off_c, 1, 67, 0
3, 4128, Note_on_c, 1, 66, 93
3, 4176, Note_off_c, 1, 66, 0
3, 4224, Note_on_c, 1, 64, 93
3, 4320, Note_off_c, 1, 64, 0
3, 4416, Note_on_c, 1, 62, 93
3, 4464, Note_off_c, 1, 62, 0
3, 4608, Note_on_c, 1, 64, 93
3, 4656, Note_off_c, 1, 64, 0
3, 4800, Note_on_c, 1, 64, 93
3, 4848, Note_off_c, 1, 64, 0
3, 4944, Note_on_c, 1, 69, 93
3, 4992, Note_off_c, 1, 69, 0
3, 4992, Note_on_c, 1, 69, 93
3, 5040, Note_off_c, 1, 69, 0
3, 5568, Note_on_c, 1, 69, 93
3, 5616, Note_off_c, 1, 69, 0
3, 5856, Note_on_c, 1, 64, 93
3, 5904, Note_off_c, 1, 64, 0
3, 6144, Note_on_c, 1, 62, 93
3, 6192, Note_off_c, 1, 62, 0
3, 7104, Note_on_c, 1, 60, 93
3, 7152, Note_off_c, 1, 60, 0
3, 7248, Note_on_c, 1, 59, 93
3, 7296, Note_off_c, 1, 59, 0
3, 7296, Note_on_c, 1, 60, 93
3, 7344, Note_off_c, 1, 60, 0
3, 7344, Note_on_c, 1, 62, 93
3, 7392, Note_off_c, 1, 62, 0
3, 7392, Note_on_c, 1, 64, 93
3, 7440, Note_off_c, 1, 64, 0
3, 7488, Note_on_c, 1, 63, 93
3, 7560, Note_off_c, 1, 63, 0
3, 7680, Note_on_c, 1, 64, 93
3, 7728, Note_off_c, 1, 64, 0
3, 7728, Note_on_c, 1, 62, 93
3, 7752, Note_off_c, 1, 62, 0
3, 7752, Note_on_c, 1, 74, 93
3, 7776, Note_off_c, 1, 74, 0
3, 7776, Note_on_c, 1, 71, 93
3, 7848, Note_off_c, 1, 71, 0
3, 7848, Note_on_c, 1, 69, 93
3, 7872, Note_off_c, 1, 69, 0
3, 7872, Note_on_c, 1, 57, 93
3, 7896, Note_off_c, 1, 57, 0
3, 7896, Note_on_c, 1, 69, 93
3, 7908, Note_off_c, 1, 69, 0
3, 7908, Note_on_c, 1, 68, 93
3, 7920, Note_off_c, 1, 68, 0
3, 7920, Note_on_c, 1, 69, 93
3, 7932, Note_off_c, 1, 69, 0
3, 7932, Note_on_c, 1, 72, 93
3, 7944, Note_off_c, 1, 72, 0
3, 7944, Note_on_c, 1, 77, 93
3, 7968, Note_off_c, 1, 77, 0
3, 7968, Note_on_c, 1, 55, 93
3, 7992, Note_off_c, 1, 55, 0
3, 7992, Note_on_c, 1, 67, 93
3, 8004, Note_off_c, 1, 67, 0
3, 8004, Note_on_c, 1, 66, 93
3, 8016, Note_off_c, 1, 66, 0
3, 8016, Note_on_c, 1, 67, 93
3, 8028, Note_off_c, 1, 67, 0
3, 8028, Note_on_c, 1, 71, 93
3, 8040, Note_off_c, 1, 71, 0
3, 8040, Note_on_c, 1, 76, 93
3, 8046, Note_off_c, 1, 76, 0
3, 8046, Note_on_c, 1, 75, 93
3, 8052, Note_off_c, 1, 75, 0
3, 8052, Note_on_c, 1, 76, 93
3, 8064, Note_off_c, 1, 76, 0
3, 8064, Note_on_c, 1, 65, 93
3, 8076, Note_off_c, 1, 65, 0
3, 8076, Note_on_c, 1, 76, 93
3, 8088, Note_off_c, 1, 76, 0
3, 8088, Note_on_c, 1, 81, 93
3, 8100, Note_off_c, 1, 81, 0
3, 8100, Note_on_c, 1, 80, 93
3, 8112, Note_off_c, 1, 80, 0
3, 8112, Note_on_c, 1, 81, 93
3, 8124, Note_off_c, 1, 81, 0
3, 8124, Note_on_c, 1, 84, 93
3, 8136, Note_off_c, 1, 84, 0
3, 8136, Note_on_c, 1, 83, 93
3, 8148, Note_off_c, 1, 83, 0
3, 8148, Note_on_c, 1, 86, 93
3, 8160, Note_off_c, 1, 86, 0
3, 8160, Note_on_c, 1, 80, 93
3, 8172, Note_off_c, 1, 80, 0
3, 8172, Note_on_c, 1, 81, 93
3, 8184, Note_off_c, 1, 81, 0
3, 8184, Note_on_c, 1, 76, 93
3, 8196, Note_off_c, 1, 76, 0
3, 8196, Note_on_c, 1, 72, 93
3, 8208, Note_off_c, 1, 72, 0
3, 8208, Note_on_c, 1, 69, 93
3, 8220, Note_off_c, 1, 69, 0
3, 8220, Note_on_c, 1, 65, 93
3, 8232, Note_off_c, 1, 65, 0
3, 8232, Note_on_c, 1, 69, 93
3, 8244, Note_off_c, 1, 69, 0
3, 8244, Note_on_c, 1, 73, 93
3, 8256, Note_off_c, 1, 73, 0
3, 8256, Control_c, 1, 1, 127
3, 8256, Control_c, 1, 1, 127
3, 8256, Note_on_c, 1, 74, 93
3, 8352, Note_off_c, 1, 74, 0
3, 8352, Control_c, 1, 1, 0
3, 8352, Control_c, 1, 1, 0
3, 8352, Note_on_c, 1, 75, 93
3, 8448, Note_off_c, 1, 75, 0
3, 8448, Note_on_c, 1, 76, 93
3, 8832, Note_off_c, 1, 76, 0
3, 8832, End_track
4, 0, Start_track
4, 0, Title_t, "Track4"
4, 0, Program_c, 2, 40
4, 0, Control_c, 2, 7, 100
4, 0, Control_c, 2, 10, 79
4, 0, Note_on_c, 2, 69, 93
4, 96, Note_off_c, 2, 69, 0
4, 384, Note_on_c, 2, 69, 93
4, 432, Note_off_c, 2, 69, 0
4, 960, Note_on_c, 2, 72, 93
4, 1008, Note_off_c, 2, 72, 0
4, 1536, Note_on_c, 2, 59, 93
4, 1584, Note_off_c, 2, 59, 0
4, 1728, Note_on_c, 2, 60, 93
4, 1824, Note_off_c, 2, 60, 0
4, 2064, Note_on_c, 2, 72, 93
4, 2112, Note_off_c, 2, 72, 0
4, 2112, Note_on_c, 2, 72, 93
4, 2160, Note_off_c, 2, 72, 0
4, 2208, Note_on_c, 2, 71, 93
4, 2280, Note_off_c, 2, 71, 0
4, 2280, Note_on_c, 2, 72, 93
4, 2304, Note_off_c, 2, 72, 0
4, 2304, Note_on_c, 2, 72, 93
4, 2364, Note_off_c, 2, 72, 0
4, 2364, Note_on_c, 2, 67, 93
4, 2376, Note_off_c, 2, 67, 0
4, 2376, Note_on_c, 2, 69, 93
4, 2388, Note_off_c, 2, 69, 0
4, 2388, Note_on_c, 2, 71, 93
4, 2400, Note_off_c, 2, 71, 0
4, 2400, Note_on_c, 2, 72, 93
4, 2412, Note_off_c, 2, 72, 0
4, 2412, Note_on_c, 2, 74, 93
4, 2424, Note_off_c, 2, 74, 0
4, 2424, Note_on_c, 2, 76, 93
4, 2436, Note_off_c, 2, 76, 0
4, 2436, Note_on_c, 2, 77, 93
4, 2448, Note_off_c, 2, 77, 0
4, 2448, Note_on_c, 2, 76, 93
4, 2460, Note_off_c, 2, 76, 0
4, 2460, Note_on_c, 2, 74, 93
4, 2472, Note_off_c, 2, 74, 0
4, 2472, Note_on_c, 2, 72, 93
4, 2484, Note_off_c, 2, 72, 0
4, 2484, Note_on_c, 2, 71, 93
4, 2490, Note_off_c, 2, 71, 0
4, 2490, Note_on_c, 2, 69, 93
4, 2496, Note_off_c, 2, 69, 0
4, 2496, Note_on_c, 2, 68, 93
4, 2508, Note_off_c, 2, 68, 0
4, 2508, Note_on_c, 2, 64, 93
4, 2520, Note_off_c, 2, 64, 0
4, 2520, Note_on_c, 2, 68, 93
4, 2532, Note_off_c, 2, 68, 0
4, 2532, Note_on_c, 2, 71, 93
4, 2544, Note_off_c, 2, 71, 0
4, 2544, Note_on_c, 2, 74, 93
4, 2556, Note_off_c, 2, 74, 0
4, 2556, Note_on_c, 2, 69, 93
4, 2568, Note_off_c, 2, 69, 0
4, 2568, Note_on_c, 2, 65, 93
4, 2580, Note_off_c, 2, 65, 0
4, 2580, Note_on_c, 2, 57, 93
4, 2592, Note_off_c, 2, 57, 0
4, 2592, Note_on_c, 2, 56, 93
4, 2628, Note_off_c, 2, 56, 0
4, 2628, Note_on_c, 2, 77, 93
4, 2640, Note_off_c, 2, 77, 0
4, 2640, Note_on_c, 2, 76, 93
4, 2652, Note_off_c, 2, 76, 0
4, 2652, Note_on_c, 2, 74, 93
4, 2664, Note_off_c, 2, 74, 0
4, 2664, Note_on_c, 2, 72, 93
4, 2676, Note_off_c, 2, 72, 0
4, 2676, Note_on_c, 2, 74, 93
4, 2682, Note_off_c, 2, 74, 0
4, 2682, Note_on_c, 2, 71, 93
4, 2688, Note_off_c, 2, 71, 0
4, 2688, Note_on_c, 2, 72, 93
4, 2736, Note_off_c, 2, 72, 0
4, 2736, Note_on_c, 2, 71, 93
4, 2760, Note_off_c, 2, 71, 0
4, 2760, Note_on_c, 2, 69, 93
4, 2784, Note_off_c, 2, 69, 0
4, 2784, Note_on_c, 2, 78, 93
4, 2856, Note_off_c, 2, 78, 0
4, 2856, Note_on_c, 2, 78, 93
4, 2880, Note_off_c, 2, 78, 0
4, 2880, Note_on_c, 2, 78, 93
4, 2952, Note_off_c, 2, 78, 0
4, 2952, Note_on_c, 2, 79, 93
4, 2964, Note_off_c, 2, 79, 0
4, 2964, Note_on_c, 2, 81, 93
4, 2976, Note_off_c, 2, 81, 0
4, 2976, Note_on_c, 2, 79, 93
4, 3000, Note_off_c, 2, 79, 0
4, 3000, Note_on_c, 2, 78, 93
4, 3024, Note_off_c, 2, 78, 0
4, 3024, Note_on_c, 2, 79, 93
4, 3048, Note_off_c, 2, 79, 0
4, 3048, Note_on_c, 2, 76, 93
4, 3072, Note_off_c, 2, 76, 0
4, 3072, Note_on_c, 2, 76, 93
4, 3096, Note_off_c, 2, 76, 0
4, 3096, Note_on_c, 2, 75, 93
4, 3120, Note_off_c, 2, 75, 0
4, 3120, Note_on_c, 2, 73, 93
4, 3144, Note_off_c, 2, 73, 0
4, 3144, Note_on_c, 2, 71, 93
4, 3168, Note_off_c, 2, 71, 0
4, 3168, Note_on_c, 2, 83, 93
4, 3204, Note_off_c, 2, 83, 0
4, 3204, Note_on_c, 2, 71, 93
4, 3210, Note_off_c, 2, 71, 0
4, 3210, Note_on_c, 2, 72, 93
4, 3216, Note_off_c, 2, 72, 0
4, 3216, Note_on_c, 2, 74, 93
4, 3228, Note_off_c, 2, 74, 0
4, 3228, Note_on_c, 2, 76, 93
4, 3240, Note_off_c, 2, 76, 0
4, 3240, Note_on_c, 2, 77, 93
4, 3252, Note_off_c, 2, 77, 0
4, 3252, Note_on_c, 2, 74, 93
4, 3264, Note_off_c, 2, 74, 0
4, 3264, Note_on_c, 2, 68, 93
4, 3288, Note_off_c, 2, 68, 0
4, 3288, Note_on_c, 2, 77, 93
4, 3324, Note_off_c, 2, 77, 0
4, 3324, Note_on_c, 2, 79, 93
4, 3336, Note_off_c, 2, 79, 0
4, 3336, Note_on_c, 2, 77, 93
4, 3348, Note_off_c, 2, 77, 0
4, 3348, Note_on_c, 2, 76, 93
4, 3360, Note_off_c, 2, 76, 0
4, 3360, Note_on_c, 2, 74, 93
4, 3372, Note_off_c, 2, 74, 0
4, 3372, Note_on_c, 2, 73, 93
4, 3384, Note_off_c, 2, 73, 0
4, 3384, Note_on_c, 2, 74, 93
4, 3408, Note_off_c, 2, 74, 0
4, 3408, Note_on_c, 2, 83, 93
4, 3432, Note_off_c, 2, 83, 0
4, 3432, Note_on_c, 2, 74, 93
4, 3456, Note_off_c, 2, 74, 0
4, 3456, Note_on_c, 2, 73, 93
4, 3492, Note_off_c, 2, 73, 0
4, 3492, Note_on_c, 2, 76, 93
4, 3504, Note_off_c, 2, 76, 0
4, 3504, Note_on_c, 2, 78, 93
4, 3516, Note_off_c, 2, 78, 0
4, 3516, Note_on_c, 2, 79, 93
4, 3528, Note_off_c, 2, 79, 0
4, 3528, Note_on_c, 2, 81, 93
4, 3540, Note_off_c, 2, 81, 0
4, 3540, Note_on_c, 2, 83, 93
4, 3552, Note_off_c, 2, 83, 0
4, 3552, Note_on_c, 2, 84, 93
4, 3564, Note_off_c, 2, 84, 0
4, 3564, Note_on_c, 2, 83, 93
4, 3576, Note_off_c, 2, 83, 0
4, 3576, Note_on_c, 2, 84, 93
4, 3600, Note_off_c, 2, 84, 0
4, 3600, Note_on_c, 2, 75, 93
4, 3624, Note_off_c, 2, 75, 0
4, 3624, Note_on_c, 2, 84, 93
4, 3648, Note_off_c, 2, 84, 0
4, 3648, Note_on_c, 2, 83, 93
4, 3720, Note_off_c, 2, 83, 0
4, 3720, Note_on_c, 2, 81, 93
4, 3744, Note_off_c, 2, 81, 0
4, 3744, Note_on_c, 2, 81, 93
4, 3768, Note_off_c, 2, 81, 0
4, 3768, Note_on_c, 2, 79, 93
4, 3792, Note_off_c, 2, 79, 0
4, 3792, Note_on_c, 2, 81, 93
4, 3816, Note_off_c, 2, 81, 0
4, 3816, Note_on_c, 2, 78, 93
4, 3840, Note_off_c, 2, 78, 0
4, 3840, Note_on_c, 2, 76, 93
4, 3888, Note_off_c, 2, 76, 0
4, 4032, Note_on_c, 2, 76, 93
4, 4104, Note_off_c, 2, 76, 0
4, 4104, Note_on_c, 2, 78, 93
4, 4128, Note_off_c, 2, 78, 0
4, 4128, Note_on_c, 2, 75, 93
4, 4200, Note_off_c, 2, 75, 0
4, 4200, Note_on_c, 2, 76, 93
4, 4224, Note_off_c, 2, 76, 0
4, 4224, Note_on_c, 2, 76, 93
4, 4344, Note_off_c, 2, 76, 0
4, 4344, Note_on_c, 2, 77, 93
4, 4356, Note_off_c, 2, 77, 0
4, 4356, Note_on_c, 2, 76, 93
4, 4368, Note_off_c, 2, 76, 0
4, 4368, Note_on_c, 2, 74, 93
4, 4380, Note_off_c, 2, 74, 0
4, 4380, Note_on_c, 2, 72, 93
4, 4392, Note_off_c, 2, 72, 0
4, 4392, Note_on_c, 2, 71, 93
4, 4404, Note_off_c, 2, 71, 0
4, 4404, Note_on_c, 2, 72, 93
4, 4410, Note_off_c, 2, 72, 0
4, 4410, Note_on_c, 2, 69, 93
4, 4416, Note_off_c, 2, 69, 0
4, 4416, Note_on_c, 2, 68, 93
4, 4476, Note_off_c, 2, 68, 0
4, 4476, Note_on_c, 2, 69, 93
4, 4488, Note_off_c, 2, 69, 0
4, 4488, Note_on_c, 2, 71, 93
4, 4500, Note_off_c, 2, 71, 0
4, 4500, Note_on_c, 2, 69, 93
4, 4512, Note_off_c, 2, 69, 0
4, 4512, Note_on_c, 2, 68, 93
4, 4524, Note_off_c, 2, 68, 0
4, 4524, Note_on_c, 2, 66, 93
4, 4536, Note_off_c, 2, 66, 0
4, 4536, Note_on_c, 2, 64, 93
4, 4548, Note_off_c, 2, 64, 0
4, 4548, Note_on_c, 2, 62, 93
4, 4560, Note_off_c, 2, 62, 0
4, 4560, Note_on_c, 2, 60, 93
4, 4584, Note_off_c, 2, 60, 0
4, 4584, Note_on_c, 2, 62, 93
4, 4596, Note_off_c, 2, 62, 0
4, 4596, Note_on_c, 2, 59, 93
4, 4608, Note_off_c, 2, 59, 0
4, 4608, Note_on_c, 2, 60, 93
4, 4656, Note_off_c, 2, 60, 0
4, 4800, Note_on_c, 2, 57, 93
4, 4848, Note_off_c, 2, 57, 0
4, 4992, Note_on_c, 2, 62, 93
4, 5040, Note_off_c, 2, 62, 0
4, 5088, Note_on_c, 2, 60, 93
4, 5100, Note_off_c, 2, 60, 0
4, 5856, Note_on_c, 2, 57, 93
4, 5904, Note_off_c, 2, 57, 0
4, 5952, Note_on_c, 2, 62, 93
4, 6000, Note_off_c, 2, 62, 0
4, 6144, Note_on_c, 2, 55, 93
4, 6192, Note_off_c, 2, 55, 0
4, 6336, Note_on_c, 2, 60, 93
4, 6384, Note_off_c, 2, 60, 0
4, 6528, Note_on_c, 2, 59, 93
4, 6576, Note_off_c, 2, 59, 0
4, 6624, Note_on_c, 2, 57, 93
4, 6672, Note_off_c, 2, 57, 0
4, 7296, Note_on_c, 2, 69, 93
4, 7344, Note_off_c, 2, 69, 0
4, 7488, Note_on_c, 2, 81, 93
4, 7560, Note_off_c, 2, 81, 0
4, 7560, Note_on_c, 2, 83, 93
4, 7572, Note_off_c, 2, 83, 0
4, 7572, Note_on_c, 2, 84, 93
4, 7584, Note_off_c, 2, 84, 0
4, 7584, Note_on_c, 2, 83, 93
4, 7596, Note_off_c, 2, 83, 0
4, 7596, Note_on_c, 2, 80, 93
4, 7608, Note_off_c, 2, 80, 0
4, 7608, Note_on_c, 2, 81, 93
4, 7620, Note_off_c, 2, 81, 0
4, 7620, Note_on_c, 2, 77, 93
4, 7632, Note_off_c, 2, 77, 0
4, 7632, Note_on_c, 2, 76, 93
4, 7644, Note_off_c, 2, 76, 0
4, 7644, Note_on_c, 2, 75, 93
4, 7656, Note_off_c, 2, 75, 0
4, 7656, Note_on_c, 2, 76, 93
4, 7668, Note_off_c, 2, 76, 0
4, 7668, Note_on_c, 2, 69, 93
4, 7680, Note_off_c, 2, 69, 0
4, 7680, Note_on_c, 2, 69, 93
4, 7686, Note_off_c, 2, 69, 0
4, 7686, Note_on_c, 2, 71, 93
4, 7692, Note_off_c, 2, 71, 0
4, 7692, Note_on_c, 2, 72, 93
4, 7728, Note_off_c, 2, 72, 0
4, 7776, Note_on_c, 2, 64, 93
4, 7872, Note_off_c, 2, 64, 0
4, 8256, Note_on_c, 2, 65, 93
4, 8352, Note_off_c, 2, 65, 0
4, 8352, Note_on_c, 2, 65, 93
4, 8448, Note_off_c, 2, 65, 0
4, 8448, Note_on_c, 2, 64, 93
4, 8832, Note_off_c, 2, 64, 0
4, 8832, End_track
5, 0, Start_track
5, 0, Title_t, "Track5"
5, 0, Program_c, 3, 40
5, 0, Control_c, 3, 7, 100
5, 0, Control_c, 3, 10, 49
5, 0, Note_on_c, 3, 57, 93
5, 96, Note_off_c, 3, 57, 0
5, 96, Note_on_c, 3, 55, 93
5, 108, Note_off_c, 3, 55, 0
5, 192, Note_on_c, 3, 65, 93
5, 240, Note_off_c, 3, 65, 0
5, 288, Note_on_c, 3, 64, 93
5, 336, Note_off_c, 3, 64, 0
5, 384, Note_on_c, 3, 62, 93
5, 432, Note_off_c, 3, 62, 0
5, 480, Note_on_c, 3, 63, 93
5, 528, Note_off_c, 3, 63, 0
5, 672, Note_on_c, 3, 56, 93
5, 720, Note_off_c, 3, 56, 0
5, 960, Note_on_c, 3, 64, 93
5, 1008, Note_off_c, 3, 64, 0
5, 2304, Note_on_c, 3, 64, 93
5, 2352, Note_off_c, 3, 64, 0
5, 2688, Note_on_c, 3, 64, 93
5, 2736, Note_off_c, 3, 64, 0
5, 2880, Note_on_c, 3, 72, 93
5, 2952, Note_off_c, 3, 72, 0
5, 3024, Note_on_c, 3, 71, 93
5, 3048, Note_off_c, 3, 71, 0
5, 3048, Note_on_c, 3, 67, 93
5, 3072, Note_off_c, 3, 67, 0
5, 3072, Note_on_c, 3, 66, 93
5, 3120, Note_off_c, 3, 66, 0
5, 3456, Note_on_c, 3, 67, 93
5, 3504, Note_off_c, 3, 67, 0
5, 3600, Note_on_c, 3, 66, 93
5, 3648, Note_off_c, 3, 66, 0
5, 3648, Note_on_c, 3, 67, 93
5, 3696, Note_off_c, 3, 67, 0
5, 3696, Note_on_c, 3, 69, 93
5, 3744, Note_off_c, 3, 69, 0
5, 3744, Note_on_c, 3, 71, 93
5, 3792, Note_off_c, 3, 71, 0
5, 3840, Note_on_c, 3, 70, 93
5, 3900, Note_off_c, 3, 70, 0
5, 3900, Note_on_c, 3, 71, 93
5, 3912, Note_off_c, 3, 71, 0
5, 3912, Note_on_c, 3, 73, 93
5, 3924, Note_off_c, 3, 73, 0
5, 3924, Note_on_c, 3, 75, 93
5, 3936, Note_off_c, 3, 75, 0
5, 3936, Note_on_c, 3, 76, 93
5, 3948, Note_off_c, 3, 76, 0
5, 3948, Note_on_c, 3, 73, 93
5, 3960, Note_off_c, 3, 73, 0
5, 3960, Note_on_c, 3, 70, 93
5, 3972, Note_off_c, 3, 70, 0
5, 3972, Note_on_c, 3, 67, 93
5, 3984, Note_off_c, 3, 67, 0
5, 3984, Note_on_c, 3, 66, 93
5, 3996, Note_off_c, 3, 66, 0
5, 3996, Note_on_c, 3, 64, 93
5, 4008, Note_off_c, 3, 64, 0
5, 4008, Note_on_c, 3, 66, 93
5, 4020, Note_off_c, 3, 66, 0
5, 4020, Note_on_c, 3, 58, 93
5, 4032, Note_off_c, 3, 58, 0
5, 4032, Note_on_c, 3, 59, 93
5, 4080, Note_off_c, 3, 59, 0
5, 4800, Note_on_c, 3, 73, 93
5, 4848, Note_off_c, 3, 73, 0
5, 6144, Note_on_c, 3, 71, 93
5, 6192, Note_off_c, 3, 71, 0
5, 6336, Note_on_c, 3, 71, 93
5, 6396, Note_off_c, 3, 71, 0
5, 6396, Note_on_c, 3, 74, 93
5, 6408, Note_off_c, 3, 74, 0
5, 6408, Note_on_c, 3, 72, 93
5, 6420, Note_off_c, 3, 72, 0
5, 6420, Note_on_c, 3, 71, 93
5, 6432, Note_off_c, 3, 71, 0
5, 6432, Note_on_c, 3, 69, 93
5, 6444, Note_off_c, 3, 69, 0
5, 6444, Note_on_c, 3, 68, 93
5, 6456, Note_off_c, 3, 68, 0
5, 6456, Note_on_c, 3, 69, 93
5, 6468, Note_off_c, 3, 69, 0
5, 6468, Note_on_c, 3, 72, 93
5, 6480, Note_off_c, 3, 72, 0
5, 6480, Note_on_c, 3, 76, 93
5, 6492, Note_off_c, 3, 76, 0
5, 6492, Note_on_c, 3, 72, 93
5, 6504, Note_off_c, 3, 72, 0
5, 6504, Note_on_c, 3, 69, 93
5, 6516, Note_off_c, 3, 69, 0
5, 6516, Note_on_c, 3, 65, 93
5, 6528, Note_off_c, 3, 65, 0
5, 6528, Note_on_c, 3, 69, 93
5, 6576, Note_off_c, 3, 69, 0
5, 6624, Note_on_c, 3, 69, 93
5, 6672, Note_off_c, 3, 69, 0
5, 6720, Note_on_c, 3, 64, 93
5, 6768, Note_off_c, 3, 64, 0
5, 6768, End_track
0, 0, End_of_file
