0, 0, Header, 1, 5, 96
1, 0, Start_track
1, 0, Time_signature, 4, 2, 24, 8
1, 0, Title_t, "untitled"
1, 0, Title_t, "Track1"
1, 0, Tempo, 750000
1, 54528, Tempo, 750000
1, 54552, Tempo, 769230
1, 54576, Tempo, 779220
1, 54600, Tempo, 789473
1, 54624, Tempo, 800000
1, 54648, Tempo, 800000
1, 54672, Tempo, 821917
1, 54696, Tempo, 833333
1, 54720, Tempo, 833333
1, 54744, Tempo, 845070
1, 54768, Tempo, 869565
1, 54792, Tempo, 869565
1, 54816, Tempo, 895522
1, 54840, Tempo, 895522
1, 54864, Tempo, 923076
1, 54888, Tempo, 937500
1, 54906, Tempo, 937500
1, 54930, Tempo, 967741
1, 54954, Tempo, 983606
1, 54978, Tempo, 1000000
1, 55002, Tempo, 1000000
1, 55026, Tempo, 1016949
1, 55050, Tempo, 1052631
1, 55074, Tempo, 1071428
1, 55098, Tempo, 1090909
1, 55122, Tempo, 1090909
1, 55146, Tempo, 1111111
1, 55170, Tempo, 1132075
1, 55194, Tempo, 1153846
1, 55218, Tempo, 1200000
1, 55242, Tempo, 1200000
1, 55266, Tempo, 1250000
1, 55296, Tempo, 1666666
1, 55296, End_track
2, 0, Start_track
2, 0, Title_t, "Track2"
2, 0, Program_c, 0, 40
2, 0, Control_c, 0, 7, 100
2, 0, Control_c, 0, 10, 69
2, 48, Note_on_c, 0, 76, 93
2, 72, Note_off_c, 0, 76, 0
2, 72, Note_on_c, 0, 75, 93
2, 96, Note_off_c, 0, 75, 0
2, 96, Note_on_c, 0, 76, 93
2, 144, Note_off_c, 0, 76, 0
2, 144, Note_on_c, 0, 64, 93
2, 192, Note_off_c, 0, 64, 0
2, 192, Note_on_c, 0, 69, 93
2, 240, Note_off_c, 0, 69, 0
2, 240, Note_on_c, 0, 72, 93
2, 288, Note_off_c, 0, 72, 0
2, 288, Note_on_c, 0, 71, 93
2, 336, Note_off_c, 0, 71, 0
2, 336, Note_on_c, 0, 74, 93
2, 384, Note_off_c, 0, 74, 0
2, 384, Note_on_c, 0, 72, 93
2, 432, Note_off_c, 0, 72, 0
2, 624, Note_on_c, 0, 76, 93
2, 672, Note_off_c, 0, 76, 0
2, 672, Note_on_c, 0, 76, 93
2, 720, Note_off_c, 0, 76, 0
2, 720, Note_on_c, 0, 75, 93
2, 768, Note_off_c, 0, 75, 0
2, 768, Note_on_c, 0, 76, 93
2, 816, Note_off_c, 0, 76, 0
2, 816, Note_on_c, 0, 71, 93
2, 840, Note_off_c, 0, 71, 0
2, 840, Note_on_c, 0, 69, 93
2, 864, Note_off_c, 0, 69, 0
2, 864, Note_on_c, 0, 71, 93
2, 912, Note_off_c, 0, 71, 0
2, 912, Note_on_c, 0, 73, 93
2, 960, Note_off_c, 0, 73, 0
2, 960, Note_on_c, 0, 74, 93
2, 1008, Note_off_c, 0, 74, 0
2, 1008, Note_on_c, 0, 69, 93
2, 1032, Note_off_c, 0, 69, 0
2, 1032, Note_on_c, 0, 68, 93
2, 1056, Note_off_c, 0, 68, 0
2, 1056, Note_on_c, 0, 69, 93
2, 1104, Note_off_c, 0, 69, 0
2, 1104, Note_on_c, 0, 71, 93
2, 1152, Note_off_c, 0, 71, 0
2, 1152, Note_on_c, 0, 72, 93
2, 1248, Note_off_c, 0, 72, 0
2, 2304, Note_on_c, 0, 72, 93
2, 2328, Note_off_c, 0, 72, 0
2, 7488, Note_on_c, 0, 57, 93
2, 7536, Note_off_c, 0, 57, 0
2, 7536, Note_on_c, 0, 61, 93
2, 7584, Note_off_c, 0, 61, 0
2, 7584, Note_on_c, 0, 59, 93
2, 7632, Note_off_c, 0, 59, 0
2, 7632, Note_on_c, 0, 62, 93
2, 7680, Note_off_c, 0, 62, 0
2, 7680, Note_on_c, 0, 61, 93
2, 7728, Note_off_c, 0, 61, 0
2, 7824, Note_on_c, 0, 61, 93
2, 7872, Note_off_c, 0, 61, 0
2, 7872, Note_on_c, 0, 62, 93
2, 7920, Note_off_c, 0, 62, 0
2, 8016, Note_on_c, 0, 62, 93
2, 8064, Note_off_c, 0, 62, 0
2, 8064, Note_on_c, 0, 62, 93
2, 8112, Note_off_c, 0, 62, 0
2, 8112, Note_on_c, 0, 59, 93
2, 8160, Note_off_c, 0, 59, 0
2, 8160, Note_on_c, 0, 60, 93
2, 8208, Note_off_c, 0, 60, 0
2, 8208, Note_on_c, 0, 62, 93
2, 8256, Note_off_c, 0, 62, 0
2, 8256, Note_on_c, 0, 64, 93
2, 8304, Note_off_c, 0, 64, 0
2, 8304, Note_on_c, 0, 62, 93
2, 8352, Note_off_c, 0, 62, 0
2, 8352, Note_on_c, 0, 64, 93
2, 8448, Note_off_c, 0, 64, 0
2, 8448, Note_on_c, 0, 57, 93
2, 8472, Note_off_c, 0, 57, 0
2, 10392, Note_on_c, 0, 83, 67
2, 10416, Note_off_c, 0, 83, 0
2, 10416, Note_on_c, 0, 79, 67
2, 10440, Note_off_c, 0, 79, 0
2, 10440, Note_on_c, 0, 76, 67
2, 10464, Note_off_c, 0, 76, 0
2, 10464, Note_on_c, 0, 75, 67
2, 10488, Note_off_c, 0, 75, 0
2, 10512, Note_on_c, 0, 76, 67
2, 10536, Note_off_c, 0, 76, 0
2, 10560, Note_on_c, 0, 71, 67
2, 10584, Note_off_c, 0, 71, 0
2, 10608, Note_on_c, 0, 72, 67
2, 10632, Note_off_c, 0, 72, 0
2, 10656, Note_on_c, 0, 71, 67
2, 10680, Note_off_c, 0, 71, 0
2, 10704, Note_on_c, 0, 69, 67
2, 10728, Note_off_c, 0, 69, 0
2, 10752, Note_on_c, 0, 71, 67
2, 10776, Note_off_c, 0, 71, 0
2, 10800, Note_on_c, 0, 75, 93
2, 10824, Note_off_c, 0, 75, 0
2, 10848, Note_on_c, 0, 78, 93
2, 10872, Note_off_c, 0, 78, 0
2, 10896, Note_on_c, 0, 75, 93
2, 10920, Note_off_c, 0, 75, 0
2, 10944, Note_on_c, 0, 69, 93
2, 10968, Note_off_c, 0, 69, 0
2, 10992, Note_on_c, 0, 75, 67
2, 11016, Note_off_c, 0, 75, 0
2, 11040, Note_on_c, 0, 78, 67
2, 11064, Note_off_c, 0, 78, 0
2, 11088, Note_on_c, 0, 75, 67
2, 11112, Note_off_c, 0, 75, 0
2, 11136, Note_on_c, 0, 71, 93
2, 11160, Note_off_c, 0, 71, 0
2, 11160, Note_on_c, 0, 83, 93
2, 11184, Note_off_c, 0, 83, 0
2, 11184, Note_on_c, 0, 79, 93
2, 11208, Note_off_c, 0, 79, 0
2, 11208, Note_on_c, 0, 76, 93
2, 11232, Note_off_c, 0, 76, 0
2, 11232, Note_on_c, 0, 75, 93
2, 11256, Note_off_c, 0, 75, 0
2, 11280, Note_on_c, 0, 76, 93
2, 11304, Note_off_c, 0, 76, 0
2, 11328, Note_on_c, 0, 72, 93
2, 11352, Note_off_c, 0, 72, 0
2, 11376, Note_on_c, 0, 71, 93
2, 11400, Note_off_c, 0, 71, 0
2, 11424, Note_on_c, 0, 69, 93
2, 11448, Note_off_c, 0, 69, 0
2, 11472, Note_on_c, 0, 72, 93
2, 11496, Note_off_c, 0, 72, 0
2, 11520, Note_on_c, 0, 71, 93
2, 11568, Note_off_c, 0, 71, 0
2, 11568, Note_on_c, 0, 83, 93
2, 11592, Note_off_c, 0, 83, 0
2, 11592, Note_on_c, 0, 81, 93
2, 11616, Note_off_c, 0, 81, 0
2, 11616, Note_on_c, 0, 83, 93
2, 11664, Note_off_c, 0, 83, 0
2, 11664, Note_on_c, 0, 71, 93
2, 11712, Note_off_c, 0, 71, 0
2, 11712, Note_on_c, 0, 76, 93
2, 11760, Note_off_c, 0, 76, 0
2, 11760, Note_on_c, 0, 79, 93
2, 11808, Note_off_c, 0, 79, 0
2, 11808, Note_on_c, 0, 78, 93
2, 11856, Note_off_c, 0, 78, 0
2, 11856, Note_on_c, 0, 81, 93
2, 11904, Note_off_c, 0, 81, 0
2, 11904, Note_on_c, 0, 79, 93
2, 11952, Note_off_c, 0, 79, 0
2, 12048, Note_on_c, 0, 79, 93
2, 12096, Note_off_c, 0, 79, 0
2, 12096, Note_on_c, 0, 78, 93
2, 12192, Note_off_c, 0, 78, 0
2, 12192, Note_on_c, 0, 77, 93
2, 12288, Note_off_c, 0, 77, 0
2, 12888, Note_on_c, 0, 64, 93
2, 12912, Note_off_c, 0, 64, 0
2, 12936, Note_on_c, 0, 64, 93
2, 12960, Note_off_c, 0, 64, 0
2, 12984, Note_on_c, 0, 64, 93
2, 13008, Note_off_c, 0, 64, 0
2, 13032, Note_on_c, 0, 64, 93
2, 13056, Note_off_c, 0, 64, 0
2, 13056, Note_on_c, 0, 69, 93
2, 13104, Note_off_c, 0, 69, 0
2, 13104, Note_on_c, 0, 78, 93
2, 13128, Note_off_c, 0, 78, 0
2, 13128, Note_on_c, 0, 76, 93
2, 13152, Note_off_c, 0, 76, 0
2, 13152, Note_on_c, 0, 78, 93
2, 13200, Note_off_c, 0, 78, 0
2, 13200, Note_on_c, 0, 66, 93
2, 13248, Note_off_c, 0, 66, 0
2, 13248, Note_on_c, 0, 71, 93
2, 13296, Note_off_c, 0, 71, 0
2, 13296, Note_on_c, 0, 74, 93
2, 13344, Note_off_c, 0, 74, 0
2, 13344, Note_on_c, 0, 73, 93
2, 13392, Note_off_c, 0, 73, 0
2, 13392, Note_on_c, 0, 76, 93
2, 13440, Note_off_c, 0, 76, 0
2, 13440, Note_on_c, 0, 75, 93
2, 13488, Note_off_c, 0, 75, 0
2, 13488, Note_on_c, 0, 78, 93
2, 13536, Note_off_c, 0, 78, 0
2, 13536, Note_on_c, 0, 83, 93
2, 13584, Note_off_c, 0, 83, 0
2, 13584, Note_on_c, 0, 81, 93
2, 13632, Note_off_c, 0, 81, 0
2, 13632, Note_on_c, 0, 79, 93
2, 13704, Note_off_c, 0, 79, 0
2, 13704, Note_on_c, 0, 81, 93
2, 13728, Note_off_c, 0, 81, 0
2, 13728, Note_on_c, 0, 78, 93
2, 13800, Note_off_c, 0, 78, 0
2, 13800, Note_on_c, 0, 76, 93
2, 13824, Note_off_c, 0, 76, 0
2, 13824, Note_on_c, 0, 76, 93
2, 13872, Note_off_c, 0, 76, 0
2, 13920, Note_on_c, 0, 76, 93
2, 14016, Note_off_c, 0, 76, 0
2, 14016, Note_on_c, 0, 75, 93
2, 14112, Note_off_c, 0, 75, 0
2, 14112, Note_on_c, 0, 74, 93
2, 14208, Note_off_c, 0, 74, 0
2, 14208, Note_on_c, 0, 73, 93
2, 14256, Note_off_c, 0, 73, 0
2, 14256, Note_on_c, 0, 72, 93
2, 14280, Note_off_c, 0, 72, 0
2, 14280, Note_on_c, 0, 71, 93
2, 14304, Note_off_c, 0, 71, 0
2, 14304, Note_on_c, 0, 72, 93
2, 14352, Note_off_c, 0, 72, 0
2, 14352, Note_on_c, 0, 74, 93
2, 14400, Note_off_c, 0, 74, 0
2, 14400, Note_on_c, 0, 76, 93
2, 14448, Note_off_c, 0, 76, 0
2, 14448, Note_on_c, 0, 71, 93
2, 14472, Note_off_c, 0, 71, 0
2, 14472, Note_on_c, 0, 69, 93
2, 14496, Note_off_c, 0, 69, 0
2, 14496, Note_on_c, 0, 71, 93
2, 14544, Note_off_c, 0, 71, 0
2, 14544, Note_on_c, 0, 73, 93
2, 14592, Note_off_c, 0, 73, 0
2, 14592, Note_on_c, 0, 74, 93
2, 14688, Note_off_c, 0, 74, 0
2, 14688, Note_on_c, 0, 74, 93
2, 14784, Note_off_c, 0, 74, 0
2, 14784, Note_on_c, 0, 73, 93
2, 14880, Note_off_c, 0, 73, 0
2, 14880, Note_on_c, 0, 72, 93
2, 14976, Note_off_c, 0, 72, 0
2, 14976, Note_on_c, 0, 71, 93
2, 15024, Note_off_c, 0, 71, 0
2, 15024, Note_on_c, 0, 71, 93
2, 15048, Note_off_c, 0, 71, 0
2, 15048, Note_on_c, 0, 69, 93
2, 15072, Note_off_c, 0, 69, 0
2, 15072, Note_on_c, 0, 71, 93
2, 15120, Note_off_c, 0, 71, 0
2, 15120, Note_on_c, 0, 72, 93
2, 15168, Note_off_c, 0, 72, 0
2, 15168, Note_on_c, 0, 74, 93
2, 15216, Note_off_c, 0, 74, 0
2, 15216, Note_on_c, 0, 69, 93
2, 15240, Note_off_c, 0, 69, 0
2, 15240, Note_on_c, 0, 67, 93
2, 15264, Note_off_c, 0, 67, 0
2, 15264, Note_on_c, 0, 69, 93
2, 15312, Note_off_c, 0, 69, 0
2, 15312, Note_on_c, 0, 71, 93
2, 15360, Note_off_c, 0, 71, 0
2, 15360, Note_on_c, 0, 72, 93
2, 15408, Note_off_c, 0, 72, 0
2, 15552, Note_on_c, 0, 67, 93
2, 15600, Note_off_c, 0, 67, 0
2, 15648, Note_on_c, 0, 67, 93
2, 15696, Note_off_c, 0, 67, 0
2, 15744, Note_on_c, 0, 72, 93
2, 15792, Note_off_c, 0, 72, 0
2, 15840, Note_on_c, 0, 71, 93
2, 15888, Note_off_c, 0, 71, 0
2, 15936, Note_on_c, 0, 72, 93
2, 15984, Note_off_c, 0, 72, 0
2, 16128, Note_on_c, 0, 72, 93
2, 16176, Note_off_c, 0, 72, 0
2, 16176, Note_on_c, 0, 77, 93
2, 16200, Note_off_c, 0, 77, 0
2, 16200, Note_on_c, 0, 76, 93
2, 16224, Note_off_c, 0, 76, 0
2, 16224, Note_on_c, 0, 77, 93
2, 16272, Note_off_c, 0, 77, 0
2, 16272, Note_on_c, 0, 72, 93
2, 16320, Note_off_c, 0, 72, 0
2, 16320, Note_on_c, 0, 74, 93
2, 16368, Note_off_c, 0, 74, 0
2, 16512, Note_on_c, 0, 74, 93
2, 16560, Note_off_c, 0, 74, 0
2, 16560, Note_on_c, 0, 79, 93
2, 16584, Note_off_c, 0, 79, 0
2, 16584, Note_on_c, 0, 78, 93
2, 16608, Note_off_c, 0, 78, 0
2, 16608, Note_on_c, 0, 79, 93
2, 16656, Note_off_c, 0, 79, 0
2, 16656, Note_on_c, 0, 67, 93
2, 16704, Note_off_c, 0, 67, 0
2, 16704, Note_on_c, 0, 72, 93
2, 16752, Note_off_c, 0, 72, 0
2, 16752, Note_on_c, 0, 76, 93
2, 16800, Note_off_c, 0, 76, 0
2, 16800, Note_on_c, 0, 74, 93
2, 16848, Note_off_c, 0, 74, 0
2, 16848, Note_on_c, 0, 77, 93
2, 16896, Note_off_c, 0, 77, 0
2, 16896, Note_on_c, 0, 76, 93
2, 16944, Note_off_c, 0, 76, 0
2, 17328, Note_on_c, 0, 67, 93
2, 17352, Note_off_c, 0, 67, 0
2, 17352, Note_on_c, 0, 66, 93
2, 17376, Note_off_c, 0, 66, 0
2, 17376, Note_on_c, 0, 67, 93
2, 17424, Note_off_c, 0, 67, 0
2, 17424, Note_on_c, 0, 55, 93
2, 17472, Note_off_c, 0, 55, 0
2, 17472, Note_on_c, 0, 60, 93
2, 17520, Note_off_c, 0, 60, 0
2, 17520, Note_on_c, 0, 64, 93
2, 17568, Note_off_c, 0, 64, 0
2, 17568, Note_on_c, 0, 62, 93
2, 17616, Note_off_c, 0, 62, 0
2, 17616, Note_on_c, 0, 65, 93
2, 17664, Note_off_c, 0, 65, 0
2, 17664, Note_on_c, 0, 64, 93
2, 17712, Note_off_c, 0, 64, 0
2, 17712, Note_on_c, 0, 67, 93
2, 17760, Note_off_c, 0, 67, 0
2, 17760, Note_on_c, 0, 65, 93
2, 17808, Note_off_c, 0, 65, 0
2, 17808, Note_on_c, 0, 69, 93
2, 17856, Note_off_c, 0, 69, 0
2, 17856, Note_on_c, 0, 67, 93
2, 17904, Note_off_c, 0, 67, 0
2, 18048, Note_on_c, 0, 64, 93
2, 18096, Note_off_c, 0, 64, 0
2, 18240, Note_on_c, 0, 65, 93
2, 18288, Note_off_c, 0, 65, 0
2, 18432, Note_on_c, 0, 69, 93
2, 18480, Note_off_c, 0, 69, 0
2, 18816, Note_on_c, 0, 67, 93
2, 18864, Note_off_c, 0, 67, 0
2, 18960, Note_on_c, 0, 67, 93
2, 19008, Note_off_c, 0, 67, 0
2, 19008, Note_on_c, 0, 65, 93
2, 19056, Note_off_c, 0, 65, 0
2, 19200, Note_on_c, 0, 65, 93
2, 19224, Note_off_c, 0, 65, 0
2, 19584, Note_on_c, 0, 64, 93
2, 19632, Note_off_c, 0, 64, 0
2, 20160, Note_on_c, 0, 64, 93
2, 20208, Note_off_c, 0, 64, 0
2, 20352, Note_on_c, 0, 62, 93
2, 20400, Note_off_c, 0, 62, 0
2, 20544, Note_on_c, 0, 64, 93
2, 20592, Note_off_c, 0, 64, 0
2, 20736, Note_on_c, 0, 64, 93
2, 20784, Note_off_c, 0, 64, 0
2, 20784, Note_on_c, 0, 69, 93
2, 20808, Note_off_c, 0, 69, 0
2, 20808, Note_on_c, 0, 67, 93
2, 20832, Note_off_c, 0, 67, 0
2, 20832, Note_on_c, 0, 69, 93
2, 20856, Note_off_c, 0, 69, 0
2, 20856, Note_on_c, 0, 65, 93
2, 20880, Note_off_c, 0, 65, 0
2, 20880, Note_on_c, 0, 67, 93
2, 20904, Note_off_c, 0, 67, 0
2, 20904, Note_on_c, 0, 64, 93
2, 20928, Note_off_c, 0, 64, 0
2, 20928, Note_on_c, 0, 65, 93
2, 20976, Note_off_c, 0, 65, 0
2, 27504, Note_on_c, 0, 81, 93
2, 27552, Note_off_c, 0, 81, 0
2, 27552, Note_on_c, 0, 81, 93
2, 27600, Note_off_c, 0, 81, 0
2, 27600, Note_on_c, 0, 80, 93
2, 27648, Note_off_c, 0, 80, 0
2, 27648, Note_on_c, 0, 81, 93
2, 27696, Note_off_c, 0, 81, 0
2, 27696, Note_on_c, 0, 72, 93
2, 27720, Note_off_c, 0, 72, 0
2, 27720, Note_on_c, 0, 71, 93
2, 27744, Note_off_c, 0, 71, 0
2, 27744, Note_on_c, 0, 72, 93
2, 27792, Note_off_c, 0, 72, 0
2, 27792, Note_on_c, 0, 72, 93
2, 27840, Note_off_c, 0, 72, 0
2, 27840, Note_on_c, 0, 72, 93
2, 27888, Note_off_c, 0, 72, 0
2, 27888, Note_on_c, 0, 74, 93
2, 27912, Note_off_c, 0, 74, 0
2, 27912, Note_on_c, 0, 72, 93
2, 27936, Note_off_c, 0, 72, 0
2, 27936, Note_on_c, 0, 74, 93
2, 27984, Note_off_c, 0, 74, 0
2, 27984, Note_on_c, 0, 69, 93
2, 28032, Note_off_c, 0, 69, 0
2, 28032, Note_on_c, 0, 71, 93
2, 28080, Note_off_c, 0, 71, 0
2, 28176, Note_on_c, 0, 70, 93
2, 28224, Note_off_c, 0, 70, 0
2, 28224, Note_on_c, 0, 70, 93
2, 28272, Note_off_c, 0, 70, 0
2, 28272, Note_on_c, 0, 72, 93
2, 28296, Note_off_c, 0, 72, 0
2, 28296, Note_on_c, 0, 70, 93
2, 28320, Note_off_c, 0, 70, 0
2, 28320, Note_on_c, 0, 72, 93
2, 28368, Note_off_c, 0, 72, 0
2, 28368, Note_on_c, 0, 67, 93
2, 28416, Note_off_c, 0, 67, 0
2, 28416, Note_on_c, 0, 69, 93
2, 28464, Note_off_c, 0, 69, 0
2, 28464, Note_on_c, 0, 77, 93
2, 28488, Note_off_c, 0, 77, 0
2, 28488, Note_on_c, 0, 79, 93
2, 28512, Note_off_c, 0, 79, 0
2, 28512, Note_on_c, 0, 77, 93
2, 28560, Note_off_c, 0, 77, 0
2, 28560, Note_on_c, 0, 76, 93
2, 28608, Note_off_c, 0, 76, 0
2, 28608, Note_on_c, 0, 74, 93
2, 28656, Note_off_c, 0, 74, 0
2, 28656, Note_on_c, 0, 79, 93
2, 28680, Note_off_c, 0, 79, 0
2, 28680, Note_on_c, 0, 81, 93
2, 28704, Note_off_c, 0, 81, 0
2, 28704, Note_on_c, 0, 79, 93
2, 28752, Note_off_c, 0, 79, 0
2, 28752, Note_on_c, 0, 77, 93
2, 28800, Note_off_c, 0, 77, 0
2, 28800, Note_on_c, 0, 76, 93
2, 28848, Note_off_c, 0, 76, 0
2, 28896, Note_on_c, 0, 79, 93
2, 28944, Note_off_c, 0, 79, 0
2, 28992, Note_on_c, 0, 81, 93
2, 29040, Note_off_c, 0, 81, 0
2, 29088, Note_on_c, 0, 81, 93
2, 29136, Note_off_c, 0, 81, 0
2, 29232, Note_on_c, 0, 79, 93
2, 29256, Note_off_c, 0, 79, 0
2, 29256, Note_on_c, 0, 81, 93
2, 29280, Note_off_c, 0, 81, 0
2, 29280, Note_on_c, 0, 79, 93
2, 29328, Note_off_c, 0, 79, 0
2, 29328, Note_on_c, 0, 77, 93
2, 29376, Note_off_c, 0, 77, 0
2, 29376, Note_on_c, 0, 76, 93
2, 29424, Note_off_c, 0, 76, 0
2, 29424, Note_on_c, 0, 81, 93
2, 29448, Note_off_c, 0, 81, 0
2, 29448, Note_on_c, 0, 82, 93
2, 29472, Note_off_c, 0, 82, 0
2, 29472, Note_on_c, 0, 81, 93
2, 29520, Note_off_c, 0, 81, 0
2, 29520, Note_on_c, 0, 79, 93
2, 29568, Note_off_c, 0, 79, 0
2, 29568, Note_on_c, 0, 77, 93
2, 29616, Note_off_c, 0, 77, 0
2, 29664, Note_on_c, 0, 78, 93
2, 29712, Note_off_c, 0, 78, 0
2, 29760, Note_on_c, 0, 79, 93
2, 29808, Note_off_c, 0, 79, 0
2, 29856, Note_on_c, 0, 80, 93
2, 29904, Note_off_c, 0, 80, 0
2, 29952, Note_on_c, 0, 81, 93
2, 30000, Note_off_c, 0, 81, 0
2, 30000, Note_on_c, 0, 83, 93
2, 30048, Note_off_c, 0, 83, 0
2, 30048, Note_on_c, 0, 84, 93
2, 30096, Note_off_c, 0, 84, 0
2, 30192, Note_on_c, 0, 84, 93
2, 30240, Note_off_c, 0, 84, 0
2, 30240, Note_on_c, 0, 83, 93
2, 30288, Note_off_c, 0, 83, 0
2, 30288, Note_on_c, 0, 81, 93
2, 30336, Note_off_c, 0, 81, 0
2, 30336, Note_on_c, 0, 80, 93
2, 30384, Note_off_c, 0, 80, 0
2, 30384, Note_on_c, 0, 81, 93
2, 30432, Note_off_c, 0, 81, 0
2, 30432, Note_on_c, 0, 83, 93
2, 30480, Note_off_c, 0, 83, 0
2, 30576, Note_on_c, 0, 83, 93
2, 30624, Note_off_c, 0, 83, 0
2, 30624, Note_on_c, 0, 81, 93
2, 30672, Note_off_c, 0, 81, 0
2, 30672, Note_on_c, 0, 79, 93
2, 30720, Note_off_c, 0, 79, 0
2, 30720, Note_on_c, 0, 78, 93
2, 30768, Note_off_c, 0, 78, 0
2, 30768, Note_on_c, 0, 79, 93
2, 30816, Note_off_c, 0, 79, 0
2, 30816, Note_on_c, 0, 81, 93
2, 30864, Note_off_c, 0, 81, 0
2, 30960, Note_on_c, 0, 79, 93
2, 30984, Note_off_c, 0, 79, 0
2, 30984, Note_on_c, 0, 78, 93
2, 31008, Note_off_c, 0, 78, 0
2, 31008, Note_on_c, 0, 79, 93
2, 31056, Note_off_c, 0, 79, 0
2, 31056, Note_on_c, 0, 71, 93
2, 31104, Note_off_c, 0, 71, 0
2, 31104, Note_on_c, 0, 72, 93
2, 31152, Note_off_c, 0, 72, 0
2, 31152, Note_on_c, 0, 76, 93
2, 31200, Note_off_c, 0, 76, 0
2, 31200, Note_on_c, 0, 74, 93
2, 31248, Note_off_c, 0, 74, 0
2, 31248, Note_on_c, 0, 77, 93
2, 31296, Note_off_c, 0, 77, 0
2, 31296, Note_on_c, 0, 76, 93
2, 31344, Note_off_c, 0, 76, 0
2, 31344, Note_on_c, 0, 78, 93
2, 31392, Note_off_c, 0, 78, 0
2, 31392, Note_on_c, 0, 79, 93
2, 31440, Note_off_c, 0, 79, 0
2, 31488, Note_on_c, 0, 79, 93
2, 31560, Note_off_c, 0, 79, 0
2, 31560, Note_on_c, 0, 81, 93
2, 31584, Note_off_c, 0, 81, 0
2, 31584, Note_on_c, 0, 78, 93
2, 31656, Note_off_c, 0, 78, 0
2, 31656, Note_on_c, 0, 79, 93
2, 31680, Note_off_c, 0, 79, 0
2, 31680, Note_on_c, 0, 79, 93
2, 31728, Note_off_c, 0, 79, 0
2, 31728, Note_on_c, 0, 83, 93
2, 31752, Note_off_c, 0, 83, 0
2, 31752, Note_on_c, 0, 81, 93
2, 31776, Note_off_c, 0, 81, 0
2, 31776, Note_on_c, 0, 83, 93
2, 31824, Note_off_c, 0, 83, 0
2, 31824, Note_on_c, 0, 71, 93
2, 31872, Note_off_c, 0, 71, 0
2, 31872, Note_on_c, 0, 73, 93
2, 31896, Note_off_c, 0, 73, 0
2, 31896, Note_on_c, 0, 76, 93
2, 31920, Note_off_c, 0, 76, 0
2, 31920, Note_on_c, 0, 78, 93
2, 31944, Note_off_c, 0, 78, 0
2, 31944, Note_on_c, 0, 79, 93
2, 31968, Note_off_c, 0, 79, 0
2, 31968, Note_on_c, 0, 81, 93
2, 31992, Note_off_c, 0, 81, 0
2, 31992, Note_on_c, 0, 71, 93
2, 32016, Note_off_c, 0, 71, 0
2, 32016, Note_on_c, 0, 69, 93
2, 32040, Note_off_c, 0, 69, 0
2, 32040, Note_on_c, 0, 67, 93
2, 32064, Note_off_c, 0, 67, 0
2, 32064, Note_on_c, 0, 66, 93
2, 32112, Note_off_c, 0, 66, 0
2, 32112, Note_on_c, 0, 81, 93
2, 32136, Note_off_c, 0, 81, 0
2, 32136, Note_on_c, 0, 79, 93
2, 32160, Note_off_c, 0, 79, 0
2, 32160, Note_on_c, 0, 81, 93
2, 32208, Note_off_c, 0, 81, 0
2, 32208, Note_on_c, 0, 73, 93
2, 32256, Note_off_c, 0, 73, 0
2, 32256, Note_on_c, 0, 75, 93
2, 32280, Note_off_c, 0, 75, 0
2, 32280, Note_on_c, 0, 76, 93
2, 32304, Note_off_c, 0, 76, 0
2, 32304, Note_on_c, 0, 75, 93
2, 32328, Note_off_c, 0, 75, 0
2, 32328, Note_on_c, 0, 76, 93
2, 32352, Note_off_c, 0, 76, 0
2, 32352, Note_on_c, 0, 78, 93
2, 32376, Note_off_c, 0, 78, 0
2, 32376, Note_on_c, 0, 79, 93
2, 32400, Note_off_c, 0, 79, 0
2, 32400, Note_on_c, 0, 69, 93
2, 32424, Note_off_c, 0, 69, 0
2, 32424, Note_on_c, 0, 71, 93
2, 32448, Note_off_c, 0, 71, 0
2, 32448, Note_on_c, 0, 72, 93
2, 32472, Note_off_c, 0, 72, 0
2, 32472, Note_on_c, 0, 74, 93
2, 32496, Note_off_c, 0, 74, 0
2, 32496, Note_on_c, 0, 66, 93
2, 32520, Note_off_c, 0, 66, 0
2, 32520, Note_on_c, 0, 67, 93
2, 32544, Note_off_c, 0, 67, 0
2, 32544, Note_on_c, 0, 69, 93
2, 32568, Note_off_c, 0, 69, 0
2, 32568, Note_on_c, 0, 71, 93
2, 32592, Note_off_c, 0, 71, 0
2, 32592, Note_on_c, 0, 63, 93
2, 32616, Note_off_c, 0, 63, 0
2, 32616, Note_on_c, 0, 64, 93
2, 32640, Note_off_c, 0, 64, 0
2, 32640, Note_on_c, 0, 66, 93
2, 32664, Note_off_c, 0, 66, 0
2, 32664, Note_on_c, 0, 67, 93
2, 32688, Note_off_c, 0, 67, 0
2, 32688, Note_on_c, 0, 69, 93
2, 32712, Note_off_c, 0, 69, 0
2, 32712, Note_on_c, 0, 71, 93
2, 32736, Note_off_c, 0, 71, 0
2, 32736, Note_on_c, 0, 73, 93
2, 32760, Note_off_c, 0, 73, 0
2, 32760, Note_on_c, 0, 75, 93
2, 32784, Note_off_c, 0, 75, 0
2, 32784, Note_on_c, 0, 76, 93
2, 32808, Note_off_c, 0, 76, 0
2, 32808, Note_on_c, 0, 78, 93
2, 32832, Note_off_c, 0, 78, 0
2, 32832, Note_on_c, 0, 79, 93
2, 32856, Note_off_c, 0, 79, 0
2, 32856, Note_on_c, 0, 81, 93
2, 32880, Note_off_c, 0, 81, 0
2, 32880, Note_on_c, 0, 79, 93
2, 32904, Note_off_c, 0, 79, 0
2, 32904, Note_on_c, 0, 81, 93
2, 32928, Note_off_c, 0, 81, 0
2, 32928, Note_on_c, 0, 83, 93
2, 32976, Note_off_c, 0, 83, 0
2, 32976, Note_on_c, 0, 71, 93
2, 33024, Note_off_c, 0, 71, 0
2, 33024, Note_on_c, 0, 76, 93
2, 33072, Note_off_c, 0, 76, 0
2, 33216, Note_on_c, 0, 75, 93
2, 33264, Note_off_c, 0, 75, 0
2, 33264, Note_on_c, 0, 71, 93
2, 33288, Note_off_c, 0, 71, 0
2, 33288, Note_on_c, 0, 72, 93
2, 33312, Note_off_c, 0, 72, 0
2, 33312, Note_on_c, 0, 71, 93
2, 33360, Note_off_c, 0, 71, 0
2, 33360, Note_on_c, 0, 83, 93
2, 33408, Note_off_c, 0, 83, 0
2, 33408, Note_on_c, 0, 76, 93
2, 33456, Note_off_c, 0, 76, 0
2, 33456, Note_on_c, 0, 72, 93
2, 33504, Note_off_c, 0, 72, 0
2, 33504, Note_on_c, 0, 74, 93
2, 33552, Note_off_c, 0, 74, 0
2, 33552, Note_on_c, 0, 71, 93
2, 33600, Note_off_c, 0, 71, 0
2, 33600, Note_on_c, 0, 72, 93
2, 33696, Note_off_c, 0, 72, 0
2, 33696, Note_on_c, 0, 71, 93
2, 33792, Note_off_c, 0, 71, 0
2, 33792, Note_on_c, 0, 69, 93
2, 33840, Note_off_c, 0, 69, 0
2, 33840, Note_on_c, 0, 71, 93
2, 33888, Note_off_c, 0, 71, 0
2, 33888, Note_on_c, 0, 72, 93
2, 34032, Note_off_c, 0, 72, 0
2, 34032, Note_on_c, 0, 78, 93
2, 34056, Note_off_c, 0, 78, 0
2, 34056, Note_on_c, 0, 72, 93
2, 34080, Note_off_c, 0, 72, 0
2, 34080, Note_on_c, 0, 71, 93
2, 34104, Note_off_c, 0, 71, 0
2, 34104, Note_on_c, 0, 69, 93
2, 34128, Note_off_c, 0, 69, 0
2, 34128, Note_on_c, 0, 67, 93
2, 34152, Note_off_c, 0, 67, 0
2, 34152, Note_on_c, 0, 66, 93
2, 34176, Note_off_c, 0, 66, 0
2, 34176, Note_on_c, 0, 67, 93
2, 34200, Note_off_c, 0, 67, 0
2, 34200, Note_on_c, 0, 63, 93
2, 34224, Note_off_c, 0, 63, 0
2, 34224, Note_on_c, 0, 64, 93
2, 34248, Note_off_c, 0, 64, 0
2, 34248, Note_on_c, 0, 67, 93
2, 34272, Note_off_c, 0, 67, 0
2, 34272, Note_on_c, 0, 72, 93
2, 34296, Note_off_c, 0, 72, 0
2, 34296, Note_on_c, 0, 64, 93
2, 34320, Note_off_c, 0, 64, 0
2, 34320, Note_on_c, 0, 62, 93
2, 34344, Note_off_c, 0, 62, 0
2, 34344, Note_on_c, 0, 71, 93
2, 34368, Note_off_c, 0, 71, 0
2, 34368, Note_on_c, 0, 69, 93
2, 34392, Note_off_c, 0, 69, 0
2, 34392, Note_on_c, 0, 64, 93
2, 34416, Note_off_c, 0, 64, 0
2, 34416, Note_on_c, 0, 60, 93
2, 34440, Note_off_c, 0, 60, 0
2, 34440, Note_on_c, 0, 64, 93
2, 34464, Note_off_c, 0, 64, 0
2, 34464, Note_on_c, 0, 69, 93
2, 34488, Note_off_c, 0, 69, 0
2, 34488, Note_on_c, 0, 60, 93
2, 34512, Note_off_c, 0, 60, 0
2, 34512, Note_on_c, 0, 59, 93
2, 34536, Note_off_c, 0, 59, 0
2, 34536, Note_on_c, 0, 67, 93
2, 34560, Note_off_c, 0, 67, 0
2, 34560, Note_on_c, 0, 65, 93
2, 34584, Note_off_c, 0, 65, 0
2, 34584, Note_on_c, 0, 60, 93
2, 34608, Note_off_c, 0, 60, 0
2, 34608, Note_on_c, 0, 57, 93
2, 34632, Note_off_c, 0, 57, 0
2, 34632, Note_on_c, 0, 60, 93
2, 34656, Note_off_c, 0, 60, 0
2, 34656, Note_on_c, 0, 65, 93
2, 34680, Note_off_c, 0, 65, 0
2, 34680, Note_on_c, 0, 57, 93
2, 34704, Note_off_c, 0, 57, 0
2, 34704, Note_on_c, 0, 55, 93
2, 34728, Note_off_c, 0, 55, 0
2, 34728, Note_on_c, 0, 64, 93
2, 34752, Note_off_c, 0, 64, 0
2, 34752, Note_on_c, 0, 63, 93
2, 34776, Note_off_c, 0, 63, 0
2, 34776, Note_on_c, 0, 66, 93
2, 34800, Note_off_c, 0, 66, 0
2, 34800, Note_on_c, 0, 69, 93
2, 34824, Note_off_c, 0, 69, 0
2, 34824, Note_on_c, 0, 72, 93
2, 34848, Note_off_c, 0, 72, 0
2, 34848, Note_on_c, 0, 78, 93
2, 34872, Note_off_c, 0, 78, 0
2, 34872, Note_on_c, 0, 71, 93
2, 34896, Note_off_c, 0, 71, 0
2, 34896, Note_on_c, 0, 69, 93
2, 34920, Note_off_c, 0, 69, 0
2, 34920, Note_on_c, 0, 78, 93
2, 34944, Note_off_c, 0, 78, 0
2, 34944, Note_on_c, 0, 67, 93
2, 34968, Note_off_c, 0, 67, 0
2, 34968, Note_on_c, 0, 66, 93
2, 34992, Note_off_c, 0, 66, 0
2, 34992, Note_on_c, 0, 67, 93
2, 35016, Note_off_c, 0, 67, 0
2, 35016, Note_on_c, 0, 71, 93
2, 35040, Note_off_c, 0, 71, 0
2, 35040, Note_on_c, 0, 76, 93
2, 35064, Note_off_c, 0, 76, 0
2, 35064, Note_on_c, 0, 69, 93
2, 35088, Note_off_c, 0, 69, 0
2, 35088, Note_on_c, 0, 68, 93
2, 35112, Note_off_c, 0, 68, 0
2, 35112, Note_on_c, 0, 74, 93
2, 35136, Note_off_c, 0, 74, 0
2, 35136, Note_on_c, 0, 72, 93
2, 35160, Note_off_c, 0, 72, 0
2, 35160, Note_on_c, 0, 71, 93
2, 35184, Note_off_c, 0, 71, 0
2, 35184, Note_on_c, 0, 72, 93
2, 35208, Note_off_c, 0, 72, 0
2, 35208, Note_on_c, 0, 76, 93
2, 35232, Note_off_c, 0, 76, 0
2, 35232, Note_on_c, 0, 77, 93
2, 35256, Note_off_c, 0, 77, 0
2, 35256, Note_on_c, 0, 69, 93
2, 35280, Note_off_c, 0, 69, 0
2, 35280, Note_on_c, 0, 67, 93
2, 35304, Note_off_c, 0, 67, 0
2, 35304, Note_on_c, 0, 76, 93
2, 35328, Note_off_c, 0, 76, 0
2, 35328, Note_on_c, 0, 75, 93
2, 35352, Note_off_c, 0, 75, 0
2, 35352, Note_on_c, 0, 76, 93
2, 35376, Note_off_c, 0, 76, 0
2, 35376, Note_on_c, 0, 78, 93
2, 35400, Note_off_c, 0, 78, 0
2, 35400, Note_on_c, 0, 79, 93
2, 35424, Note_off_c, 0, 79, 0
2, 35424, Note_on_c, 0, 81, 93
2, 35448, Note_off_c, 0, 81, 0
2, 35448, Note_on_c, 0, 66, 93
2, 35472, Note_off_c, 0, 66, 0
2, 35472, Note_on_c, 0, 64, 93
2, 35496, Note_off_c, 0, 64, 0
2, 35496, Note_on_c, 0, 72, 93
2, 35520, Note_off_c, 0, 72, 0
2, 35520, Note_on_c, 0, 63, 93
2, 35544, Note_off_c, 0, 63, 0
2, 35544, Note_on_c, 0, 64, 93
2, 35568, Note_off_c, 0, 64, 0
2, 35568, Note_on_c, 0, 66, 93
2, 35592, Note_off_c, 0, 66, 0
2, 35592, Note_on_c, 0, 67, 93
2, 35616, Note_off_c, 0, 67, 0
2, 35616, Note_on_c, 0, 69, 93
2, 35640, Note_off_c, 0, 69, 0
2, 35640, Note_on_c, 0, 59, 93
2, 35664, Note_off_c, 0, 59, 0
2, 35664, Note_on_c, 0, 63, 93
2, 35688, Note_off_c, 0, 63, 0
2, 35688, Note_on_c, 0, 66, 93
2, 35712, Note_off_c, 0, 66, 0
2, 35712, Note_on_c, 0, 67, 93
2, 35736, Note_off_c, 0, 67, 0
2, 35736, Note_on_c, 0, 72, 93
2, 35760, Note_off_c, 0, 72, 0
2, 35760, Note_on_c, 0, 71, 93
2, 35784, Note_off_c, 0, 71, 0
2, 35784, Note_on_c, 0, 75, 93
2, 35808, Note_off_c, 0, 75, 0
2, 35808, Note_on_c, 0, 76, 93
2, 35832, Note_off_c, 0, 76, 0
2, 35832, Note_on_c, 0, 79, 93
2, 35856, Note_off_c, 0, 79, 0
2, 35856, Note_on_c, 0, 78, 93
2, 35880, Note_off_c, 0, 78, 0
2, 35880, Note_on_c, 0, 82, 93
2, 35904, Note_off_c, 0, 82, 0
2, 35904, Note_on_c, 0, 83, 93
2, 35952, Note_off_c, 0, 83, 0
2, 35952, Note_on_c, 0, 76, 93
2, 36000, Note_off_c, 0, 76, 0
2, 36000, Note_on_c, 0, 79, 93
2, 36024, Note_off_c, 0, 79, 0
2, 36024, Note_on_c, 0, 78, 93
2, 36048, Note_off_c, 0, 78, 0
2, 36048, Note_on_c, 0, 76, 93
2, 36072, Note_off_c, 0, 76, 0
2, 36072, Note_on_c, 0, 75, 93
2, 36096, Note_off_c, 0, 75, 0
2, 36096, Note_on_c, 0, 76, 93
2, 36144, Note_off_c, 0, 76, 0
2, 36144, Note_on_c, 0, 67, 93
2, 36168, Note_off_c, 0, 67, 0
2, 36168, Note_on_c, 0, 69, 93
2, 36192, Note_off_c, 0, 69, 0
2, 36192, Note_on_c, 0, 67, 93
2, 36240, Note_off_c, 0, 67, 0
2, 36240, Note_on_c, 0, 79, 93
2, 36288, Note_off_c, 0, 79, 0
2, 36288, Note_on_c, 0, 79, 93
2, 36336, Note_off_c, 0, 79, 0
2, 36384, Note_on_c, 0, 73, 93
2, 36480, Note_off_c, 0, 73, 0
2, 36480, Note_on_c, 0, 74, 93
2, 36528, Note_off_c, 0, 74, 0
2, 36672, Note_on_c, 0, 71, 93
2, 36720, Note_off_c, 0, 71, 0
2, 36720, Note_on_c, 0, 67, 93
2, 36768, Note_off_c, 0, 67, 0
2, 36768, Note_on_c, 0, 68, 93
2, 36816, Note_off_c, 0, 68, 0
2, 36816, Note_on_c, 0, 65, 93
2, 36864, Note_off_c, 0, 65, 0
2, 36864, Note_on_c, 0, 64, 93
2, 36888, Note_off_c, 0, 64, 0
2, 36888, Note_on_c, 0, 62, 93
2, 36912, Note_off_c, 0, 62, 0
2, 36912, Note_on_c, 0, 60, 93
2, 36936, Note_off_c, 0, 60, 0
2, 36936, Note_on_c, 0, 62, 93
2, 36960, Note_off_c, 0, 62, 0
2, 36960, Note_on_c, 0, 64, 93
2, 36984, Note_off_c, 0, 64, 0
2, 36984, Note_on_c, 0, 66, 93
2, 37008, Note_off_c, 0, 66, 0
2, 37008, Note_on_c, 0, 68, 93
2, 37032, Note_off_c, 0, 68, 0
2, 37032, Note_on_c, 0, 69, 93
2, 37056, Note_off_c, 0, 69, 0
2, 37056, Note_on_c, 0, 71, 93
2, 37104, Note_off_c, 0, 71, 0
2, 38208, Note_on_c, 0, 72, 93
2, 38256, Note_off_c, 0, 72, 0
2, 38352, Note_on_c, 0, 72, 93
2, 38400, Note_off_c, 0, 72, 0
2, 38400, Note_on_c, 0, 72, 93
2, 38448, Note_off_c, 0, 72, 0
2, 38544, Note_on_c, 0, 72, 93
2, 38592, Note_off_c, 0, 72, 0
2, 38592, Note_on_c, 0, 72, 93
2, 38640, Note_off_c, 0, 72, 0
2, 38640, Note_on_c, 0, 70, 93
2, 38664, Note_off_c, 0, 70, 0
2, 38664, Note_on_c, 0, 69, 93
2, 38688, Note_off_c, 0, 69, 0
2, 38688, Note_on_c, 0, 70, 93
2, 38736, Note_off_c, 0, 70, 0
2, 38736, Note_on_c, 0, 72, 93
2, 38784, Note_off_c, 0, 72, 0
2, 38784, Note_on_c, 0, 72, 93
2, 38832, Note_off_c, 0, 72, 0
2, 44112, Note_on_c, 0, 67, 93
2, 44160, Note_off_c, 0, 67, 0
2, 44160, Note_on_c, 0, 65, 93
2, 44208, Note_off_c, 0, 65, 0
2, 49152, Note_on_c, 0, 64, 93
2, 49200, Note_off_c, 0, 64, 0
2, 49248, Note_on_c, 0, 69, 93
2, 49296, Note_off_c, 0, 69, 0
2, 49440, Note_on_c, 0, 69, 93
2, 49488, Note_off_c, 0, 69, 0
2, 53232, Note_on_c, 0, 74, 93
2, 53280, Note_off_c, 0, 74, 0
2, 53280, Note_on_c, 0, 72, 93
2, 53328, Note_off_c, 0, 72, 0
2, 53952, Note_on_c, 0, 64, 93
2, 54000, Note_off_c, 0, 64, 0
2, 54144, Note_on_c, 0, 64, 93
2, 54192, Note_off_c, 0, 64, 0
2, 54528, Note_on_c, 0, 81, 93
2, 54576, Note_off_c, 0, 81, 0
2, 54576, Note_on_c, 0, 77, 93
2, 54624, Note_off_c, 0, 77, 0
2, 54624, Note_on_c, 0, 79, 93
2, 54672, Note_off_c, 0, 79, 0
2, 54672, Note_on_c, 0, 76, 93
2, 54720, Note_off_c, 0, 76, 0
2, 54720, Note_on_c, 0, 77, 93
2, 54732, Note_off_c, 0, 77, 0
2, 54732, Note_on_c, 0, 79, 93
2, 54744, Note_off_c, 0, 79, 0
2, 54744, Note_on_c, 0, 81, 93
2, 54756, Note_off_c, 0, 81, 0
2, 54756, Note_on_c, 0, 79, 93
2, 54768, Note_off_c, 0, 79, 0
2, 54768, Note_on_c, 0, 77, 93
2, 54780, Note_off_c, 0, 77, 0
2, 54780, Note_on_c, 0, 76, 93
2, 54792, Note_off_c, 0, 76, 0
2, 54792, Note_on_c, 0, 74, 93
2, 54804, Note_off_c, 0, 74, 0
2, 54804, Note_on_c, 0, 73, 93
2, 54816, Note_off_c, 0, 73, 0
2, 54816, Note_on_c, 0, 74, 93
2, 54828, Note_off_c, 0, 74, 0
2, 54828, Note_on_c, 0, 76, 93
2, 54840, Note_off_c, 0, 76, 0
2, 54840, Note_on_c, 0, 77, 93
2, 54852, Note_off_c, 0, 77, 0
2, 54852, Note_on_c, 0, 76, 93
2, 54864, Note_off_c, 0, 76, 0
2, 54864, Note_on_c, 0, 74, 93
2, 54876, Note_off_c, 0, 74, 0
2, 54876, Note_on_c, 0, 72, 93
2, 54888, Note_off_c, 0, 72, 0
2, 54888, Note_on_c, 0, 71, 93
2, 54900, Note_off_c, 0, 71, 0
2, 54900, Note_on_c, 0, 69, 93
2, 54912, Note_off_c, 0, 69, 0
2, 54912, Note_on_c, 0, 71, 93
2, 54924, Note_off_c, 0, 71, 0
2, 54924, Note_on_c, 0, 72, 93
2, 54936, Note_off_c, 0, 72, 0
2, 54936, Note_on_c, 0, 74, 93
2, 54948, Note_off_c, 0, 74, 0
2, 54948, Note_on_c, 0, 72, 93
2, 54960, Note_off_c, 0, 72, 0
2, 54960, Note_on_c, 0, 71, 93
2, 54972, Note_off_c, 0, 71, 0
2, 54972, Note_on_c, 0, 69, 93
2, 54984, Note_off_c, 0, 69, 0
2, 54984, Note_on_c, 0, 68, 93
2, 54996, Note_off_c, 0, 68, 0
2, 54996, Note_on_c, 0, 66, 93
2, 55008, Note_off_c, 0, 66, 0
2, 55008, Note_on_c, 0, 68, 93
2, 55020, Note_off_c, 0, 68, 0
2, 55020, Note_on_c, 0, 69, 93
2, 55032, Note_off_c, 0, 69, 0
2, 55032, Note_on_c, 0, 71, 93
2, 55044, Note_off_c, 0, 71, 0
2, 55044, Note_on_c, 0, 69, 93
2, 55056, Note_off_c, 0, 69, 0
2, 55056, Note_on_c, 0, 68, 93
2, 55068, Note_off_c, 0, 68, 0
2, 55068, Note_on_c, 0, 66, 93
2, 55080, Note_off_c, 0, 66, 0
2, 55080, Note_on_c, 0, 64, 93
2, 55092, Note_off_c, 0, 64, 0
2, 55092, Note_on_c, 0, 62, 93
2, 55104, Note_off_c, 0, 62, 0
2, 55104, Note_on_c, 0, 60, 93
2, 55152, Note_off_c, 0, 60, 0
2, 55152, Note_on_c, 0, 57, 93
2, 55200, Note_off_c, 0, 57, 0
2, 55200, Note_on_c, 0, 64, 93
2, 55248, Note_off_c, 0, 64, 0
2, 55248, Note_on_c, 0, 64, 93
2, 55296, Note_off_c, 0, 64, 0
2, 55296, Note_on_c, 0, 57, 93
2, 55488, Note_off_c, 0, 57, 0
2, 55488, End_track
3, 0, Start_track
3, 0, Title_t, "Track3"
3, 0, Program_c, 1, 40
3, 0, Control_c, 1, 7, 100
3, 0, Control_c, 1, 10, 59
3, 432, Note_on_c, 1, 69, 93
3, 456, Note_off_c, 1, 69, 0
3, 456, Note_on_c, 1, 68, 93
3, 480, Note_off_c, 1, 68, 0
3, 480, Note_on_c, 1, 69, 93
3, 528, Note_off_c, 1, 69, 0
3, 528, Note_on_c, 1, 57, 93
3, 576, Note_off_c, 1, 57, 0
3, 576, Note_on_c, 1, 64, 93
3, 624, Note_off_c, 1, 64, 0
3, 624, Note_on_c, 1, 67, 93
3, 672, Note_off_c, 1, 67, 0
3, 672, Note_on_c, 1, 66, 93
3, 720, Note_off_c, 1, 66, 0
3, 720, Note_on_c, 1, 69, 93
3, 768, Note_off_c, 1, 69, 0
3, 768, Note_on_c, 1, 68, 93
3, 864, Note_off_c, 1, 68, 0
3, 864, Note_on_c, 1, 67, 93
3, 960, Note_off_c, 1, 67, 0
3, 960, Note_on_c, 1, 66, 93
3, 1056, Note_off_c, 1, 66, 0
3, 1056, Note_on_c, 1, 65, 93
3, 1152, Note_off_c, 1, 65, 0
3, 1152, Note_on_c, 1, 64, 93
3, 1248, Note_off_c, 1, 64, 0
3, 1296, Note_on_c, 1, 66, 93
3, 1344, Note_off_c, 1, 66, 0
3, 1344, Note_on_c, 1, 67, 93
3, 1440, Note_off_c, 1, 67, 0
3, 1440, Note_on_c, 1, 63, 93
3, 1536, Note_off_c, 1, 63, 0
3, 1536, Note_on_c, 1, 64, 93
3, 1632, Note_off_c, 1, 64, 0
3, 1680, Note_on_c, 1, 64, 93
3, 1728, Note_off_c, 1, 64, 0
3, 1728, Note_on_c, 1, 69, 93
3, 1824, Note_off_c, 1, 69, 0
3, 1872, Note_on_c, 1, 69, 93
3, 1920, Note_off_c, 1, 69, 0
3, 1920, Note_on_c, 1, 69, 93
3, 1968, Note_off_c, 1, 69, 0
3, 1968, Note_on_c, 1, 74, 93
3, 1992, Note_off_c, 1, 74, 0
3, 1992, Note_on_c, 1, 73, 93
3, 2016, Note_off_c, 1, 73, 0
3, 2016, Note_on_c, 1, 74, 93
3, 2064, Note_off_c, 1, 74, 0
3, 2064, Note_on_c, 1, 69, 93
3, 2112, Note_off_c, 1, 69, 0
3, 2112, Note_on_c, 1, 71, 93
3, 2208, Note_off_c, 1, 71, 0
3, 2304, Note_on_c, 1, 60, 93
3, 2328, Note_off_c, 1, 60, 0
3, 2496, Note_on_c, 1, 60, 93
3, 2544, Note_off_c, 1, 60, 0
3, 2640, Note_on_c, 1, 60, 93
3, 2688, Note_off_c, 1, 60, 0
3, 2688, Note_on_c, 1, 59, 93
3, 2736, Note_off_c, 1, 59, 0
3, 2832, Note_on_c, 1, 57, 93
3, 2880, Note_off_c, 1, 57, 0
3, 2880, Note_on_c, 1, 56, 93
3, 2928, Note_off_c, 1, 56, 0
3, 3072, Note_on_c, 1, 57, 93
3, 3096, Note_off_c, 1, 57, 0
3, 5952, Note_on_c, 1, 67, 93
3, 6000, Note_off_c, 1, 67, 0
3, 6000, Note_on_c, 1, 79, 93
3, 6024, Note_off_c, 1, 79, 0
3, 6024, Note_on_c, 1, 78, 93
3, 6048, Note_off_c, 1, 78, 0
3, 6048, Note_on_c, 1, 79, 93
3, 6096, Note_off_c, 1, 79, 0
3, 6096, Note_on_c, 1, 67, 93
3, 6144, Note_off_c, 1, 67, 0
3, 6144, Note_on_c, 1, 60, 93
3, 6192, Note_off_c, 1, 60, 0
3, 6192, Note_on_c, 1, 82, 93
3, 6216, Note_off_c, 1, 82, 0
3, 6216, Note_on_c, 1, 79, 93
3, 6240, Note_off_c, 1, 79, 0
3, 6240, Note_on_c, 1, 77, 93
3, 6264, Note_off_c, 1, 77, 0
3, 6264, Note_on_c, 1, 76, 93
3, 6288, Note_off_c, 1, 76, 0
3, 6288, Note_on_c, 1, 74, 93
3, 6312, Note_off_c, 1, 74, 0
3, 6312, Note_on_c, 1, 72, 93
3, 6336, Note_off_c, 1, 72, 0
3, 6336, Note_on_c, 1, 72, 93
3, 6384, Note_off_c, 1, 72, 0
3, 6528, Note_on_c, 1, 79, 93
3, 6576, Note_off_c, 1, 79, 0
3, 6576, Note_on_c, 1, 79, 93
3, 6600, Note_off_c, 1, 79, 0
3, 6600, Note_on_c, 1, 76, 93
3, 6624, Note_off_c, 1, 76, 0
3, 6624, Note_on_c, 1, 74, 93
3, 6648, Note_off_c, 1, 74, 0
3, 6648, Note_on_c, 1, 73, 93
3, 6672, Note_off_c, 1, 73, 0
3, 6672, Note_on_c, 1, 71, 93
3, 6696, Note_off_c, 1, 71, 0
3, 6696, Note_on_c, 1, 69, 93
3, 6720, Note_off_c, 1, 69, 0
3, 6720, Note_on_c, 1, 77, 93
3, 6744, Note_off_c, 1, 77, 0
3, 6744, Note_on_c, 1, 79, 93
3, 6768, Note_off_c, 1, 79, 0
3, 6768, Note_on_c, 1, 77, 93
3, 6792, Note_off_c, 1, 77, 0
3, 6792, Note_on_c, 1, 76, 93
3, 6816, Note_off_c, 1, 76, 0
3, 6816, Note_on_c, 1, 74, 93
3, 6840, Note_off_c, 1, 74, 0
3, 6840, Note_on_c, 1, 72, 93
3, 6864, Note_off_c, 1, 72, 0
3, 6864, Note_on_c, 1, 70, 93
3, 6888, Note_off_c, 1, 70, 0
3, 6888, Note_on_c, 1, 69, 93
3, 6912, Note_off_c, 1, 69, 0
3, 6912, Note_on_c, 1, 70, 93
3, 6960, Note_off_c, 1, 70, 0
3, 7104, Note_on_c, 1, 80, 93
3, 7152, Note_off_c, 1, 80, 0
3, 7152, Note_on_c, 1, 81, 93
3, 7176, Note_off_c, 1, 81, 0
3, 7176, Note_on_c, 1, 80, 93
3, 7200, Note_off_c, 1, 80, 0
3, 7200, Note_on_c, 1, 81, 93
3, 7248, Note_off_c, 1, 81, 0
3, 7248, Note_on_c, 1, 81, 93
3, 7296, Note_off_c, 1, 81, 0
3, 7296, Note_on_c, 1, 81, 93
3, 7344, Note_off_c, 1, 81, 0
3, 7440, Note_on_c, 1, 80, 93
3, 7488, Note_off_c, 1, 80, 0
3, 7488, Note_on_c, 1, 79, 93
3, 7536, Note_off_c, 1, 79, 0
3, 7584, Note_on_c, 1, 77, 93
3, 7632, Note_off_c, 1, 77, 0
3, 7680, Note_on_c, 1, 76, 93
3, 7728, Note_off_c, 1, 76, 0
3, 7824, Note_on_c, 1, 76, 93
3, 7872, Note_off_c, 1, 76, 0
3, 7872, Note_on_c, 1, 76, 93
3, 7920, Note_off_c, 1, 76, 0
3, 7920, Note_on_c, 1, 74, 93
3, 7944, Note_off_c, 1, 74, 0
3, 7944, Note_on_c, 1, 73, 93
3, 7968, Note_off_c, 1, 73, 0
3, 7968, Note_on_c, 1, 74, 93
3, 8016, Note_off_c, 1, 74, 0
3, 8016, Note_on_c, 1, 70, 93
3, 8064, Note_off_c, 1, 70, 0
3, 8112, Note_on_c, 1, 74, 93
3, 8160, Note_off_c, 1, 74, 0
3, 8160, Note_on_c, 1, 72, 93
3, 8208, Note_off_c, 1, 72, 0
3, 8568, Note_on_c, 1, 69, 93
3, 8592, Note_off_c, 1, 69, 0
3, 8616, Note_on_c, 1, 69, 93
3, 8640, Note_off_c, 1, 69, 0
3, 8664, Note_on_c, 1, 69, 93
3, 8688, Note_off_c, 1, 69, 0
3, 8712, Note_on_c, 1, 69, 93
3, 8736, Note_off_c, 1, 69, 0
3, 8760, Note_on_c, 1, 69, 93
3, 8784, Note_off_c, 1, 69, 0
3, 8808, Note_on_c, 1, 69, 93
3, 8832, Note_off_c, 1, 69, 0
3, 8832, Note_on_c, 1, 69, 67
3, 8856, Note_off_c, 1, 69, 0
3, 8952, Note_on_c, 1, 69, 67
3, 8976, Note_off_c, 1, 69, 0
3, 9000, Note_on_c, 1, 69, 67
3, 9024, Note_off_c, 1, 69, 0
3, 9048, Note_on_c, 1, 69, 67
3, 9072, Note_off_c, 1, 69, 0
3, 9096, Note_on_c, 1, 69, 67
3, 9120, Note_off_c, 1, 69, 0
3, 9144, Note_on_c, 1, 69, 67
3, 9168, Note_off_c, 1, 69, 0
3, 9192, Note_on_c, 1, 69, 67
3, 9216, Note_off_c, 1, 69, 0
3, 9240, Note_on_c, 1, 69, 93
3, 9264, Note_off_c, 1, 69, 0
3, 9288, Note_on_c, 1, 69, 93
3, 9312, Note_off_c, 1, 69, 0
3, 9336, Note_on_c, 1, 69, 93
3, 9360, Note_off_c, 1, 69, 0
3, 9384, Note_on_c, 1, 69, 93
3, 9408, Note_off_c, 1, 69, 0
3, 9432, Note_on_c, 1, 69, 67
3, 9456, Note_off_c, 1, 69, 0
3, 9480, Note_on_c, 1, 69, 67
3, 9504, Note_off_c, 1, 69, 0
3, 9528, Note_on_c, 1, 69, 67
3, 9552, Note_off_c, 1, 69, 0
3, 9576, Note_on_c, 1, 69, 67
3, 9600, Note_off_c, 1, 69, 0
3, 9720, Note_on_c, 1, 69, 93
3, 9744, Note_off_c, 1, 69, 0
3, 9768, Note_on_c, 1, 69, 93
3, 9792, Note_off_c, 1, 69, 0
3, 9912, Note_on_c, 1, 69, 67
3, 9936, Note_off_c, 1, 69, 0
3, 9960, Note_on_c, 1, 69, 67
3, 9984, Note_off_c, 1, 69, 0
3, 10104, Note_on_c, 1, 76, 93
3, 10128, Note_off_c, 1, 76, 0
3, 10152, Note_on_c, 1, 76, 93
3, 10176, Note_off_c, 1, 76, 0
3, 10200, Note_on_c, 1, 76, 93
3, 10224, Note_off_c, 1, 76, 0
3, 10248, Note_on_c, 1, 76, 93
3, 10272, Note_off_c, 1, 76, 0
3, 10296, Note_on_c, 1, 76, 93
3, 10320, Note_off_c, 1, 76, 0
3, 10344, Note_on_c, 1, 76, 93
3, 10368, Note_off_c, 1, 76, 0
3, 10368, Note_on_c, 1, 76, 67
3, 10392, Note_off_c, 1, 76, 0
3, 10488, Note_on_c, 1, 76, 67
3, 10512, Note_off_c, 1, 76, 0
3, 10536, Note_on_c, 1, 76, 67
3, 10560, Note_off_c, 1, 76, 0
3, 10584, Note_on_c, 1, 76, 67
3, 10608, Note_off_c, 1, 76, 0
3, 10632, Note_on_c, 1, 76, 67
3, 10656, Note_off_c, 1, 76, 0
3, 10680, Note_on_c, 1, 76, 67
3, 10704, Note_off_c, 1, 76, 0
3, 10728, Note_on_c, 1, 76, 67
3, 10752, Note_off_c, 1, 76, 0
3, 10776, Note_on_c, 1, 76, 93
3, 10800, Note_off_c, 1, 76, 0
3, 10824, Note_on_c, 1, 76, 93
3, 10848, Note_off_c, 1, 76, 0
3, 10872, Note_on_c, 1, 76, 93
3, 10896, Note_off_c, 1, 76, 0
3, 10920, Note_on_c, 1, 76, 93
3, 10944, Note_off_c, 1, 76, 0
3, 10968, Note_on_c, 1, 76, 67
3, 10992, Note_off_c, 1, 76, 0
3, 11016, Note_on_c, 1, 76, 67
3, 11040, Note_off_c, 1, 76, 0
3, 11064, Note_on_c, 1, 76, 67
3, 11088, Note_off_c, 1, 76, 0
3, 11112, Note_on_c, 1, 76, 67
3, 11136, Note_off_c, 1, 76, 0
3, 11256, Note_on_c, 1, 76, 93
3, 11280, Note_off_c, 1, 76, 0
3, 11304, Note_on_c, 1, 76, 93
3, 11328, Note_off_c, 1, 76, 0
3, 11352, Note_on_c, 1, 76, 93
3, 11376, Note_off_c, 1, 76, 0
3, 11400, Note_on_c, 1, 76, 93
3, 11424, Note_off_c, 1, 76, 0
3, 11448, Note_on_c, 1, 81, 93
3, 11472, Note_off_c, 1, 81, 0
3, 11496, Note_on_c, 1, 81, 93
3, 11520, Note_off_c, 1, 81, 0
3, 11904, Note_on_c, 1, 71, 93
3, 11952, Note_off_c, 1, 71, 0
3, 12048, Note_on_c, 1, 71, 93
3, 12096, Note_off_c, 1, 71, 0
3, 12288, Note_on_c, 1, 76, 93
3, 12336, Note_off_c, 1, 76, 0
3, 12336, Note_on_c, 1, 81, 93
3, 12360, Note_off_c, 1, 81, 0
3, 12360, Note_on_c, 1, 80, 93
3, 12384, Note_off_c, 1, 80, 0
3, 12384, Note_on_c, 1, 81, 93
3, 12408, Note_off_c, 1, 81, 0
3, 12408, Note_on_c, 1, 78, 93
3, 12432, Note_off_c, 1, 78, 0
3, 12432, Note_on_c, 1, 79, 93
3, 12456, Note_off_c, 1, 79, 0
3, 12456, Note_on_c, 1, 76, 93
3, 12480, Note_off_c, 1, 76, 0
3, 12480, Note_on_c, 1, 75, 93
3, 12528, Note_off_c, 1, 75, 0
3, 12624, Note_on_c, 1, 78, 93
3, 12672, Note_off_c, 1, 78, 0
3, 12672, Note_on_c, 1, 71, 93
3, 12720, Note_off_c, 1, 71, 0
3, 12720, Note_on_c, 1, 76, 93
3, 12744, Note_off_c, 1, 76, 0
3, 12744, Note_on_c, 1, 75, 93
3, 12768, Note_off_c, 1, 75, 0
3, 12768, Note_on_c, 1, 76, 93
3, 12792, Note_off_c, 1, 76, 0
3, 12792, Note_on_c, 1, 72, 93
3, 12816, Note_off_c, 1, 72, 0
3, 12816, Note_on_c, 1, 74, 93
3, 12840, Note_off_c, 1, 74, 0
3, 12840, Note_on_c, 1, 71, 93
3, 12864, Note_off_c, 1, 71, 0
3, 12864, Note_on_c, 1, 72, 93
3, 12912, Note_off_c, 1, 72, 0
3, 12912, Note_on_c, 1, 71, 93
3, 12960, Note_off_c, 1, 71, 0
3, 12960, Note_on_c, 1, 70, 93
3, 13008, Note_off_c, 1, 70, 0
3, 13056, Note_on_c, 1, 63, 93
3, 13104, Note_off_c, 1, 63, 0
3, 13200, Note_on_c, 1, 63, 93
3, 13248, Note_off_c, 1, 63, 0
3, 13248, Note_on_c, 1, 64, 93
3, 13296, Note_off_c, 1, 64, 0
3, 13344, Note_on_c, 1, 57, 93
3, 13392, Note_off_c, 1, 57, 0
3, 13440, Note_on_c, 1, 57, 93
3, 13488, Note_off_c, 1, 57, 0
3, 13536, Note_on_c, 1, 55, 93
3, 13584, Note_off_c, 1, 55, 0
3, 13584, Note_on_c, 1, 57, 93
3, 13632, Note_off_c, 1, 57, 0
3, 13632, Note_on_c, 1, 59, 93
3, 13680, Note_off_c, 1, 59, 0
3, 13728, Note_on_c, 1, 63, 93
3, 13776, Note_off_c, 1, 63, 0
3, 13824, Note_on_c, 1, 64, 93
3, 13872, Note_off_c, 1, 64, 0
3, 13872, Note_on_c, 1, 67, 93
3, 13896, Note_off_c, 1, 67, 0
3, 13896, Note_on_c, 1, 66, 93
3, 13920, Note_off_c, 1, 66, 0
3, 13920, Note_on_c, 1, 67, 93
3, 13968, Note_off_c, 1, 67, 0
3, 13968, Note_on_c, 1, 69, 93
3, 14016, Note_off_c, 1, 69, 0
3, 14016, Note_on_c, 1, 71, 93
3, 14064, Note_off_c, 1, 71, 0
3, 14064, Note_on_c, 1, 66, 93
3, 14088, Note_off_c, 1, 66, 0
3, 14088, Note_on_c, 1, 64, 93
3, 14112, Note_off_c, 1, 64, 0
3, 14112, Note_on_c, 1, 66, 93
3, 14160, Note_off_c, 1, 66, 0
3, 14160, Note_on_c, 1, 68, 93
3, 14208, Note_off_c, 1, 68, 0
3, 14208, Note_on_c, 1, 69, 93
3, 14304, Note_off_c, 1, 69, 0
3, 14304, Note_on_c, 1, 69, 93
3, 14400, Note_off_c, 1, 69, 0
3, 14400, Note_on_c, 1, 68, 93
3, 14496, Note_off_c, 1, 68, 0
3, 14496, Note_on_c, 1, 67, 93
3, 14592, Note_off_c, 1, 67, 0
3, 14592, Note_on_c, 1, 66, 93
3, 14640, Note_off_c, 1, 66, 0
3, 14640, Note_on_c, 1, 65, 93
3, 14664, Note_off_c, 1, 65, 0
3, 14664, Note_on_c, 1, 64, 93
3, 14688, Note_off_c, 1, 64, 0
3, 14688, Note_on_c, 1, 65, 93
3, 14736, Note_off_c, 1, 65, 0
3, 14736, Note_on_c, 1, 67, 93
3, 14784, Note_off_c, 1, 67, 0
3, 14784, Note_on_c, 1, 69, 93
3, 14832, Note_off_c, 1, 69, 0
3, 14832, Note_on_c, 1, 64, 93
3, 14856, Note_off_c, 1, 64, 0
3, 14856, Note_on_c, 1, 62, 93
3, 14880, Note_off_c, 1, 62, 0
3, 14880, Note_on_c, 1, 64, 93
3, 14928, Note_off_c, 1, 64, 0
3, 14928, Note_on_c, 1, 66, 93
3, 14976, Note_off_c, 1, 66, 0
3, 14976, Note_on_c, 1, 67, 93
3, 15072, Note_off_c, 1, 67, 0
3, 15072, Note_on_c, 1, 67, 93
3, 15168, Note_off_c, 1, 67, 0
3, 15168, Note_on_c, 1, 66, 93
3, 15264, Note_off_c, 1, 66, 0
3, 15264, Note_on_c, 1, 65, 93
3, 15360, Note_off_c, 1, 65, 0
3, 15360, Note_on_c, 1, 64, 93
3, 15408, Note_off_c, 1, 64, 0
3, 15504, Note_on_c, 1, 60, 93
3, 15552, Note_off_c, 1, 60, 0
3, 15552, Note_on_c, 1, 57, 93
3, 15600, Note_off_c, 1, 57, 0
3, 15648, Note_on_c, 1, 59, 93
3, 15696, Note_off_c, 1, 59, 0
3, 15744, Note_on_c, 1, 60, 93
3, 15792, Note_off_c, 1, 60, 0
3, 15840, Note_on_c, 1, 62, 93
3, 15888, Note_off_c, 1, 62, 0
3, 15936, Note_on_c, 1, 64, 93
3, 15984, Note_off_c, 1, 64, 0
3, 16128, Note_on_c, 1, 65, 93
3, 16176, Note_off_c, 1, 65, 0
3, 16320, Note_on_c, 1, 66, 93
3, 16368, Note_off_c, 1, 66, 0
3, 16512, Note_on_c, 1, 67, 93
3, 16560, Note_off_c, 1, 67, 0
3, 17136, Note_on_c, 1, 79, 93
3, 17184, Note_off_c, 1, 79, 0
3, 17184, Note_on_c, 1, 79, 93
3, 17232, Note_off_c, 1, 79, 0
3, 17232, Note_on_c, 1, 78, 93
3, 17280, Note_off_c, 1, 78, 0
3, 17280, Note_on_c, 1, 79, 93
3, 17328, Note_off_c, 1, 79, 0
3, 17424, Note_on_c, 1, 74, 93
3, 17472, Note_off_c, 1, 74, 0
3, 17472, Note_on_c, 1, 76, 93
3, 17520, Note_off_c, 1, 76, 0
3, 17568, Note_on_c, 1, 77, 93
3, 17616, Note_off_c, 1, 77, 0
3, 18048, Note_on_c, 1, 72, 93
3, 18096, Note_off_c, 1, 72, 0
3, 18432, Note_on_c, 1, 62, 93
3, 18480, Note_off_c, 1, 62, 0
3, 18624, Note_on_c, 1, 59, 93
3, 18672, Note_off_c, 1, 59, 0
3, 18816, Note_on_c, 1, 60, 93
3, 18864, Note_off_c, 1, 60, 0
3, 18864, Note_on_c, 1, 58, 93
3, 18888, Note_off_c, 1, 58, 0
3, 18888, Note_on_c, 1, 57, 93
3, 18912, Note_off_c, 1, 57, 0
3, 18912, Note_on_c, 1, 58, 93
3, 18960, Note_off_c, 1, 58, 0
3, 18960, Note_on_c, 1, 55, 93
3, 19008, Note_off_c, 1, 55, 0
3, 19008, Note_on_c, 1, 57, 93
3, 19056, Note_off_c, 1, 57, 0
3, 19200, Note_on_c, 1, 55, 93
3, 19224, Note_off_c, 1, 55, 0
3, 19584, Note_on_c, 1, 60, 93
3, 19632, Note_off_c, 1, 60, 0
3, 19728, Note_on_c, 1, 60, 93
3, 19776, Note_off_c, 1, 60, 0
3, 19776, Note_on_c, 1, 60, 93
3, 19824, Note_off_c, 1, 60, 0
3, 19872, Note_on_c, 1, 59, 93
3, 19920, Note_off_c, 1, 59, 0
3, 19968, Note_on_c, 1, 57, 93
3, 20016, Note_off_c, 1, 57, 0
3, 20064, Note_on_c, 1, 59, 93
3, 20112, Note_off_c, 1, 59, 0
3, 20160, Note_on_c, 1, 60, 93
3, 20208, Note_off_c, 1, 60, 0
3, 20352, Note_on_c, 1, 60, 93
3, 20400, Note_off_c, 1, 60, 0
3, 20400, Note_on_c, 1, 62, 93
3, 20424, Note_off_c, 1, 62, 0
3, 20424, Note_on_c, 1, 60, 93
3, 20448, Note_off_c, 1, 60, 0
3, 20448, Note_on_c, 1, 62, 93
3, 20472, Note_off_c, 1, 62, 0
3, 20472, Note_on_c, 1, 59, 93
3, 20496, Note_off_c, 1, 59, 0
3, 20496, Note_on_c, 1, 60, 93
3, 20520, Note_off_c, 1, 60, 0
3, 20520, Note_on_c, 1, 57, 93
3, 20544, Note_off_c, 1, 57, 0
3, 20544, Note_on_c, 1, 59, 93
3, 20592, Note_off_c, 1, 59, 0
3, 20736, Note_on_c, 1, 57, 93
3, 20784, Note_off_c, 1, 57, 0
3, 20928, Note_on_c, 1, 57, 93
3, 20976, Note_off_c, 1, 57, 0
3, 25104, Note_on_c, 1, 72, 93
3, 25152, Note_off_c, 1, 72, 0
3, 25152, Note_on_c, 1, 72, 93
3, 25200, Note_off_c, 1, 72, 0
3, 25248, Note_on_c, 1, 55, 93
3, 25296, Note_off_c, 1, 55, 0
3, 25344, Note_on_c, 1, 60, 93
3, 25392, Note_off_c, 1, 60, 0
3, 25776, Note_on_c, 1, 75, 93
3, 25824, Note_off_c, 1, 75, 0
3, 25824, Note_on_c, 1, 76, 93
3, 25872, Note_off_c, 1, 76, 0
3, 27456, Note_on_c, 1, 60, 93
3, 27504, Note_off_c, 1, 60, 0
3, 27648, Note_on_c, 1, 57, 93
3, 27696, Note_off_c, 1, 57, 0
3, 27792, Note_on_c, 1, 57, 93
3, 27840, Note_off_c, 1, 57, 0
3, 27840, Note_on_c, 1, 62, 93
3, 27888, Note_off_c, 1, 62, 0
3, 27984, Note_on_c, 1, 62, 93
3, 28032, Note_off_c, 1, 62, 0
3, 28032, Note_on_c, 1, 55, 93
3, 28080, Note_off_c, 1, 55, 0
3, 28176, Note_on_c, 1, 55, 93
3, 28224, Note_off_c, 1, 55, 0
3, 28224, Note_on_c, 1, 60, 93
3, 28272, Note_off_c, 1, 60, 0
3, 28368, Note_on_c, 1, 60, 93
3, 28416, Note_off_c, 1, 60, 0
3, 28416, Note_on_c, 1, 65, 93
3, 28464, Note_off_c, 1, 65, 0
3, 28512, Note_on_c, 1, 69, 93
3, 28560, Note_off_c, 1, 69, 0
3, 28608, Note_on_c, 1, 70, 93
3, 28656, Note_off_c, 1, 70, 0
3, 28704, Note_on_c, 1, 71, 93
3, 28752, Note_off_c, 1, 71, 0
3, 28800, Note_on_c, 1, 72, 93
3, 28848, Note_off_c, 1, 72, 0
3, 28848, Note_on_c, 1, 72, 93
3, 28872, Note_off_c, 1, 72, 0
3, 28872, Note_on_c, 1, 74, 93
3, 28896, Note_off_c, 1, 74, 0
3, 28896, Note_on_c, 1, 72, 93
3, 28944, Note_off_c, 1, 72, 0
3, 28944, Note_on_c, 1, 71, 93
3, 28992, Note_off_c, 1, 71, 0
3, 28992, Note_on_c, 1, 69, 93
3, 29040, Note_off_c, 1, 69, 0
3, 29040, Note_on_c, 1, 74, 93
3, 29064, Note_off_c, 1, 74, 0
3, 29064, Note_on_c, 1, 76, 93
3, 29088, Note_off_c, 1, 76, 0
3, 29088, Note_on_c, 1, 74, 93
3, 29136, Note_off_c, 1, 74, 0
3, 29136, Note_on_c, 1, 72, 93
3, 29184, Note_off_c, 1, 72, 0
3, 29184, Note_on_c, 1, 71, 93
3, 29232, Note_off_c, 1, 71, 0
3, 29280, Note_on_c, 1, 71, 93
3, 29328, Note_off_c, 1, 71, 0
3, 29376, Note_on_c, 1, 72, 93
3, 29424, Note_off_c, 1, 72, 0
3, 29472, Note_on_c, 1, 73, 93
3, 29520, Note_off_c, 1, 73, 0
3, 29568, Note_on_c, 1, 62, 93
3, 29616, Note_off_c, 1, 62, 0
3, 29664, Note_on_c, 1, 62, 93
3, 29712, Note_off_c, 1, 62, 0
3, 29760, Note_on_c, 1, 64, 93
3, 29808, Note_off_c, 1, 64, 0
3, 29856, Note_on_c, 1, 64, 93
3, 29904, Note_off_c, 1, 64, 0
3, 29952, Note_on_c, 1, 65, 93
3, 30000, Note_off_c, 1, 65, 0
3, 30336, Note_on_c, 1, 64, 93
3, 30384, Note_off_c, 1, 64, 0
3, 30720, Note_on_c, 1, 62, 93
3, 30768, Note_off_c, 1, 62, 0
3, 31200, Note_on_c, 1, 59, 93
3, 31248, Note_off_c, 1, 59, 0
3, 31296, Note_on_c, 1, 60, 93
3, 31344, Note_off_c, 1, 60, 0
3, 31680, Note_on_c, 1, 55, 93
3, 31728, Note_off_c, 1, 55, 0
3, 31824, Note_on_c, 1, 55, 93
3, 31872, Note_off_c, 1, 55, 0
3, 31872, Note_on_c, 1, 57, 93
3, 31920, Note_off_c, 1, 57, 0
3, 32064, Note_on_c, 1, 57, 93
3, 32112, Note_off_c, 1, 57, 0
3, 32256, Note_on_c, 1, 59, 93
3, 32280, Note_off_c, 1, 59, 0
3, 32832, Note_on_c, 1, 64, 93
3, 32880, Note_off_c, 1, 64, 0
3, 32976, Note_on_c, 1, 62, 93
3, 33024, Note_off_c, 1, 62, 0
3, 33024, Note_on_c, 1, 60, 93
3, 33072, Note_off_c, 1, 60, 0
3, 33216, Note_on_c, 1, 59, 93
3, 33264, Note_off_c, 1, 59, 0
3, 33360, Note_on_c, 1, 57, 93
3, 33408, Note_off_c, 1, 57, 0
3, 33408, Note_on_c, 1, 55, 93
3, 33456, Note_off_c, 1, 55, 0
3, 33504, Note_on_c, 1, 56, 93
3, 33552, Note_off_c, 1, 56, 0
3, 33600, Note_on_c, 1, 57, 93
3, 33648, Note_off_c, 1, 57, 0
3, 35952, Note_on_c, 1, 67, 93
3, 36000, Note_off_c, 1, 67, 0
3, 36000, Note_on_c, 1, 69, 93
3, 36048, Note_off_c, 1, 69, 0
3, 36048, Note_on_c, 1, 71, 93
3, 36096, Note_off_c, 1, 71, 0
3, 36096, Note_on_c, 1, 64, 93
3, 36144, Note_off_c, 1, 64, 0
3, 36240, Note_on_c, 1, 64, 93
3, 36288, Note_off_c, 1, 64, 0
3, 36288, Note_on_c, 1, 64, 93
3, 36336, Note_off_c, 1, 64, 0
3, 36672, Note_on_c, 1, 62, 93
3, 36720, Note_off_c, 1, 62, 0
3, 37056, Note_on_c, 1, 64, 93
3, 37080, Note_off_c, 1, 64, 0
3, 37080, Note_on_c, 1, 65, 93
3, 37104, Note_off_c, 1, 65, 0
3, 37104, Note_on_c, 1, 64, 93
3, 37128, Note_off_c, 1, 64, 0
3, 37128, Note_on_c, 1, 60, 93
3, 37152, Note_off_c, 1, 60, 0
3, 37152, Note_on_c, 1, 62, 93
3, 37176, Note_off_c, 1, 62, 0
3, 37176, Note_on_c, 1, 64, 93
3, 37200, Note_off_c, 1, 64, 0
3, 37200, Note_on_c, 1, 62, 93
3, 37224, Note_off_c, 1, 62, 0
3, 37224, Note_on_c, 1, 59, 93
3, 37248, Note_off_c, 1, 59, 0
3, 37248, Note_on_c, 1, 60, 93
3, 37272, Note_off_c, 1, 60, 0
3, 37272, Note_on_c, 1, 62, 93
3, 37296, Note_off_c, 1, 62, 0
3, 37296, Note_on_c, 1, 60, 93
3, 37320, Note_off_c, 1, 60, 0
3, 37320, Note_on_c, 1, 57, 93
3, 37344, Note_off_c, 1, 57, 0
3, 37344, Note_on_c, 1, 64, 93
3, 37368, Note_off_c, 1, 64, 0
3, 37368, Note_on_c, 1, 65, 93
3, 37392, Note_off_c, 1, 65, 0
3, 37392, Note_on_c, 1, 64, 93
3, 37416, Note_off_c, 1, 64, 0
3, 37416, Note_on_c, 1, 60, 93
3, 37440, Note_off_c, 1, 60, 0
3, 37440, Note_on_c, 1, 69, 93
3, 37464, Note_off_c, 1, 69, 0
3, 37464, Note_on_c, 1, 71, 93
3, 37488, Note_off_c, 1, 71, 0
3, 37488, Note_on_c, 1, 69, 93
3, 37512, Note_off_c, 1, 69, 0
3, 37512, Note_on_c, 1, 64, 93
3, 37536, Note_off_c, 1, 64, 0
3, 37536, Note_on_c, 1, 72, 93
3, 37560, Note_off_c, 1, 72, 0
3, 37560, Note_on_c, 1, 74, 93
3, 37584, Note_off_c, 1, 74, 0
3, 37584, Note_on_c, 1, 72, 93
3, 37608, Note_off_c, 1, 72, 0
3, 37608, Note_on_c, 1, 69, 93
3, 37632, Note_off_c, 1, 69, 0
3, 37632, Note_on_c, 1, 70, 93
3, 37680, Note_off_c, 1, 70, 0
3, 37680, Note_on_c, 1, 79, 93
3, 37704, Note_off_c, 1, 79, 0
3, 37704, Note_on_c, 1, 77, 93
3, 37728, Note_off_c, 1, 77, 0
3, 37728, Note_on_c, 1, 79, 93
3, 37776, Note_off_c, 1, 79, 0
3, 37776, Note_on_c, 1, 67, 93
3, 37824, Note_off_c, 1, 67, 0
3, 37824, Note_on_c, 1, 69, 93
3, 37848, Note_off_c, 1, 69, 0
3, 37848, Note_on_c, 1, 72, 93
3, 37872, Note_off_c, 1, 72, 0
3, 37872, Note_on_c, 1, 70, 93
3, 37896, Note_off_c, 1, 70, 0
3, 37896, Note_on_c, 1, 69, 93
3, 37920, Note_off_c, 1, 69, 0
3, 37920, Note_on_c, 1, 70, 93
3, 37944, Note_off_c, 1, 70, 0
3, 37944, Note_on_c, 1, 74, 93
3, 37968, Note_off_c, 1, 74, 0
3, 37968, Note_on_c, 1, 72, 93
3, 37992, Note_off_c, 1, 72, 0
3, 37992, Note_on_c, 1, 70, 93
3, 38016, Note_off_c, 1, 70, 0
3, 38016, Note_on_c, 1, 72, 93
3, 38040, Note_off_c, 1, 72, 0
3, 38040, Note_on_c, 1, 75, 93
3, 38064, Note_off_c, 1, 75, 0
3, 38064, Note_on_c, 1, 74, 93
3, 38088, Note_off_c, 1, 74, 0
3, 38088, Note_on_c, 1, 72, 93
3, 38112, Note_off_c, 1, 72, 0
3, 38112, Note_on_c, 1, 74, 93
3, 38136, Note_off_c, 1, 74, 0
3, 38136, Note_on_c, 1, 77, 93
3, 38160, Note_off_c, 1, 77, 0
3, 38160, Note_on_c, 1, 76, 93
3, 38184, Note_off_c, 1, 76, 0
3, 38184, Note_on_c, 1, 74, 93
3, 38208, Note_off_c, 1, 74, 0
3, 38208, Note_on_c, 1, 76, 93
3, 38256, Note_off_c, 1, 76, 0
3, 38352, Note_on_c, 1, 76, 93
3, 38400, Note_off_c, 1, 76, 0
3, 38400, Note_on_c, 1, 77, 93
3, 38448, Note_off_c, 1, 77, 0
3, 38544, Note_on_c, 1, 77, 93
3, 38592, Note_off_c, 1, 77, 0
3, 38592, Note_on_c, 1, 79, 93
3, 38640, Note_off_c, 1, 79, 0
3, 38736, Note_on_c, 1, 79, 93
3, 38784, Note_off_c, 1, 79, 0
3, 38784, Note_on_c, 1, 81, 93
3, 38832, Note_off_c, 1, 81, 0
3, 38832, Note_on_c, 1, 79, 93
3, 38880, Note_off_c, 1, 79, 0
3, 38880, Note_on_c, 1, 82, 93
3, 38928, Note_off_c, 1, 82, 0
3, 38928, Note_on_c, 1, 81, 93
3, 38976, Note_off_c, 1, 81, 0
3, 38976, Note_on_c, 1, 79, 93
3, 39024, Note_off_c, 1, 79, 0
3, 39024, Note_on_c, 1, 77, 93
3, 39048, Note_off_c, 1, 77, 0
3, 39048, Note_on_c, 1, 76, 93
3, 39072, Note_off_c, 1, 76, 0
3, 39072, Note_on_c, 1, 77, 93
3, 39096, Note_off_c, 1, 77, 0
3, 39096, Note_on_c, 1, 81, 93
3, 39120, Note_off_c, 1, 81, 0
3, 39120, Note_on_c, 1, 79, 93
3, 39144, Note_off_c, 1, 79, 0
3, 39144, Note_on_c, 1, 77, 93
3, 39168, Note_off_c, 1, 77, 0
3, 39168, Note_on_c, 1, 76, 93
3, 39192, Note_off_c, 1, 76, 0
3, 39192, Note_on_c, 1, 79, 93
3, 39216, Note_off_c, 1, 79, 0
3, 39216, Note_on_c, 1, 77, 93
3, 39240, Note_off_c, 1, 77, 0
3, 39240, Note_on_c, 1, 76, 93
3, 39264, Note_off_c, 1, 76, 0
3, 39264, Note_on_c, 1, 74, 93
3, 39288, Note_off_c, 1, 74, 0
3, 39288, Note_on_c, 1, 72, 93
3, 39312, Note_off_c, 1, 72, 0
3, 39312, Note_on_c, 1, 70, 93
3, 39336, Note_off_c, 1, 70, 0
3, 39336, Note_on_c, 1, 69, 93
3, 39360, Note_off_c, 1, 69, 0
3, 39360, Note_on_c, 1, 70, 93
3, 39384, Note_off_c, 1, 70, 0
3, 39384, Note_on_c, 1, 69, 93
3, 39408, Note_off_c, 1, 69, 0
3, 39408, Note_on_c, 1, 70, 93
3, 39432, Note_off_c, 1, 70, 0
3, 39432, Note_on_c, 1, 62, 93
3, 39456, Note_off_c, 1, 62, 0
3, 39456, Note_on_c, 1, 65, 93
3, 39480, Note_off_c, 1, 65, 0
3, 39480, Note_on_c, 1, 70, 93
3, 39504, Note_off_c, 1, 70, 0
3, 39504, Note_on_c, 1, 74, 93
3, 39528, Note_off_c, 1, 74, 0
3, 39528, Note_on_c, 1, 77, 93
3, 39552, Note_off_c, 1, 77, 0
3, 39552, Note_on_c, 1, 82, 93
3, 39576, Note_off_c, 1, 82, 0
3, 39576, Note_on_c, 1, 81, 93
3, 39600, Note_off_c, 1, 81, 0
3, 39600, Note_on_c, 1, 82, 93
3, 39624, Note_off_c, 1, 82, 0
3, 39624, Note_on_c, 1, 77, 93
3, 39648, Note_off_c, 1, 77, 0
3, 39648, Note_on_c, 1, 74, 93
3, 39672, Note_off_c, 1, 74, 0
3, 39672, Note_on_c, 1, 70, 93
3, 39696, Note_off_c, 1, 70, 0
3, 39696, Note_on_c, 1, 65, 93
3, 39720, Note_off_c, 1, 65, 0
3, 39720, Note_on_c, 1, 62, 93
3, 39744, Note_off_c, 1, 62, 0
3, 39744, Note_on_c, 1, 72, 93
3, 39768, Note_off_c, 1, 72, 0
3, 39768, Note_on_c, 1, 70, 93
3, 39792, Note_off_c, 1, 70, 0
3, 39792, Note_on_c, 1, 72, 93
3, 39816, Note_off_c, 1, 72, 0
3, 39816, Note_on_c, 1, 64, 93
3, 39840, Note_off_c, 1, 64, 0
3, 39840, Note_on_c, 1, 67, 93
3, 39864, Note_off_c, 1, 67, 0
3, 39864, Note_on_c, 1, 72, 93
3, 39888, Note_off_c, 1, 72, 0
3, 39888, Note_on_c, 1, 76, 93
3, 39912, Note_off_c, 1, 76, 0
3, 39912, Note_on_c, 1, 79, 93
3, 39936, Note_off_c, 1, 79, 0
3, 39936, Note_on_c, 1, 82, 93
3, 39960, Note_off_c, 1, 82, 0
3, 39960, Note_on_c, 1, 81, 93
3, 39984, Note_off_c, 1, 81, 0
3, 39984, Note_on_c, 1, 82, 93
3, 40008, Note_off_c, 1, 82, 0
3, 40008, Note_on_c, 1, 79, 93
3, 40032, Note_off_c, 1, 79, 0
3, 40032, Note_on_c, 1, 76, 93
3, 40056, Note_off_c, 1, 76, 0
3, 40056, Note_on_c, 1, 72, 93
3, 40080, Note_off_c, 1, 72, 0
3, 40080, Note_on_c, 1, 67, 93
3, 40104, Note_off_c, 1, 67, 0
3, 40104, Note_on_c, 1, 64, 93
3, 40128, Note_off_c, 1, 64, 0
3, 40128, Note_on_c, 1, 72, 93
3, 40152, Note_off_c, 1, 72, 0
3, 40152, Note_on_c, 1, 70, 93
3, 40176, Note_off_c, 1, 70, 0
3, 40176, Note_on_c, 1, 72, 93
3, 40200, Note_off_c, 1, 72, 0
3, 40200, Note_on_c, 1, 65, 93
3, 40224, Note_off_c, 1, 65, 0
3, 40224, Note_on_c, 1, 69, 93
3, 40248, Note_off_c, 1, 69, 0
3, 40248, Note_on_c, 1, 72, 93
3, 40272, Note_off_c, 1, 72, 0
3, 40272, Note_on_c, 1, 77, 93
3, 40296, Note_off_c, 1, 77, 0
3, 40296, Note_on_c, 1, 79, 93
3, 40320, Note_off_c, 1, 79, 0
3, 40320, Note_on_c, 1, 81, 93
3, 40344, Note_off_c, 1, 81, 0
3, 40344, Note_on_c, 1, 79, 93
3, 40368, Note_off_c, 1, 79, 0
3, 40368, Note_on_c, 1, 81, 93
3, 40392, Note_off_c, 1, 81, 0
3, 40392, Note_on_c, 1, 77, 93
3, 40416, Note_off_c, 1, 77, 0
3, 40416, Note_on_c, 1, 72, 93
3, 40440, Note_off_c, 1, 72, 0
3, 40440, Note_on_c, 1, 69, 93
3, 40464, Note_off_c, 1, 69, 0
3, 40464, Note_on_c, 1, 65, 93
3, 40488, Note_off_c, 1, 65, 0
3, 40488, Note_on_c, 1, 69, 93
3, 40512, Note_off_c, 1, 69, 0
3, 40512, Note_on_c, 1, 72, 93
3, 40536, Note_off_c, 1, 72, 0
3, 40536, Note_on_c, 1, 70, 93
3, 40560, Note_off_c, 1, 70, 0
3, 40560, Note_on_c, 1, 72, 93
3, 40584, Note_off_c, 1, 72, 0
3, 40584, Note_on_c, 1, 66, 93
3, 40608, Note_off_c, 1, 66, 0
3, 40608, Note_on_c, 1, 69, 93
3, 40632, Note_off_c, 1, 69, 0
3, 40632, Note_on_c, 1, 72, 93
3, 40656, Note_off_c, 1, 72, 0
3, 40656, Note_on_c, 1, 75, 93
3, 40680, Note_off_c, 1, 75, 0
3, 40680, Note_on_c, 1, 78, 93
3, 40704, Note_off_c, 1, 78, 0
3, 40704, Note_on_c, 1, 81, 93
3, 40728, Note_off_c, 1, 81, 0
3, 40728, Note_on_c, 1, 79, 93
3, 40752, Note_off_c, 1, 79, 0
3, 40752, Note_on_c, 1, 81, 93
3, 40776, Note_off_c, 1, 81, 0
3, 40776, Note_on_c, 1, 75, 93
3, 40800, Note_off_c, 1, 75, 0
3, 40800, Note_on_c, 1, 72, 93
3, 40824, Note_off_c, 1, 72, 0
3, 40824, Note_on_c, 1, 69, 93
3, 40848, Note_off_c, 1, 69, 0
3, 40848, Note_on_c, 1, 66, 93
3, 40872, Note_off_c, 1, 66, 0
3, 40872, Note_on_c, 1, 69, 93
3, 40896, Note_off_c, 1, 69, 0
3, 40896, Note_on_c, 1, 70, 93
3, 40920, Note_off_c, 1, 70, 0
3, 40920, Note_on_c, 1, 69, 93
3, 40944, Note_off_c, 1, 69, 0
3, 40944, Note_on_c, 1, 70, 93
3, 40968, Note_off_c, 1, 70, 0
3, 40968, Note_on_c, 1, 67, 93
3, 40992, Note_off_c, 1, 67, 0
3, 40992, Note_on_c, 1, 70, 93
3, 41016, Note_off_c, 1, 70, 0
3, 41016, Note_on_c, 1, 74, 93
3, 41040, Note_off_c, 1, 74, 0
3, 41040, Note_on_c, 1, 78, 93
3, 41064, Note_off_c, 1, 78, 0
3, 41064, Note_on_c, 1, 81, 93
3, 41088, Note_off_c, 1, 81, 0
3, 41088, Note_on_c, 1, 79, 93
3, 41112, Note_off_c, 1, 79, 0
3, 41112, Note_on_c, 1, 78, 93
3, 41136, Note_off_c, 1, 78, 0
3, 41136, Note_on_c, 1, 79, 93
3, 41160, Note_off_c, 1, 79, 0
3, 41160, Note_on_c, 1, 74, 93
3, 41184, Note_off_c, 1, 74, 0
3, 41184, Note_on_c, 1, 70, 93
3, 41208, Note_off_c, 1, 70, 0
3, 41208, Note_on_c, 1, 67, 93
3, 41232, Note_off_c, 1, 67, 0
3, 41232, Note_on_c, 1, 63, 93
3, 41256, Note_off_c, 1, 63, 0
3, 41256, Note_on_c, 1, 62, 93
3, 41280, Note_off_c, 1, 62, 0
3, 41280, Note_on_c, 1, 61, 93
3, 41304, Note_off_c, 1, 61, 0
3, 41304, Note_on_c, 1, 59, 93
3, 41328, Note_off_c, 1, 59, 0
3, 41328, Note_on_c, 1, 61, 93
3, 41352, Note_off_c, 1, 61, 0
3, 41352, Note_on_c, 1, 64, 93
3, 41376, Note_off_c, 1, 64, 0
3, 41376, Note_on_c, 1, 69, 93
3, 41400, Note_off_c, 1, 69, 0
3, 41400, Note_on_c, 1, 73, 93
3, 41424, Note_off_c, 1, 73, 0
3, 41424, Note_on_c, 1, 76, 93
3, 41448, Note_off_c, 1, 76, 0
3, 41448, Note_on_c, 1, 77, 93
3, 41472, Note_off_c, 1, 77, 0
3, 41472, Note_on_c, 1, 79, 93
3, 41496, Note_off_c, 1, 79, 0
3, 41496, Note_on_c, 1, 77, 93
3, 41520, Note_off_c, 1, 77, 0
3, 41520, Note_on_c, 1, 79, 93
3, 41544, Note_off_c, 1, 79, 0
3, 41544, Note_on_c, 1, 76, 93
3, 41568, Note_off_c, 1, 76, 0
3, 41568, Note_on_c, 1, 73, 93
3, 41592, Note_off_c, 1, 73, 0
3, 41592, Note_on_c, 1, 69, 93
3, 41616, Note_off_c, 1, 69, 0
3, 41616, Note_on_c, 1, 64, 93
3, 41640, Note_off_c, 1, 64, 0
3, 41640, Note_on_c, 1, 61, 93
3, 41664, Note_off_c, 1, 61, 0
3, 41664, Note_on_c, 1, 62, 93
3, 41688, Note_off_c, 1, 62, 0
3, 41688, Note_on_c, 1, 61, 93
3, 41712, Note_off_c, 1, 61, 0
3, 41712, Note_on_c, 1, 62, 93
3, 41736, Note_off_c, 1, 62, 0
3, 41736, Note_on_c, 1, 65, 93
3, 41760, Note_off_c, 1, 65, 0
3, 41760, Note_on_c, 1, 69, 93
3, 41784, Note_off_c, 1, 69, 0
3, 41784, Note_on_c, 1, 74, 93
3, 41808, Note_off_c, 1, 74, 0
3, 41808, Note_on_c, 1, 77, 93
3, 41832, Note_off_c, 1, 77, 0
3, 41832, Note_on_c, 1, 60, 93
3, 41856, Note_off_c, 1, 60, 0
3, 41856, Note_on_c, 1, 58, 93
3, 41880, Note_off_c, 1, 58, 0
3, 41880, Note_on_c, 1, 57, 93
3, 41904, Note_off_c, 1, 57, 0
3, 41904, Note_on_c, 1, 58, 93
3, 41928, Note_off_c, 1, 58, 0
3, 41928, Note_on_c, 1, 65, 93
3, 41952, Note_off_c, 1, 65, 0
3, 41952, Note_on_c, 1, 70, 93
3, 41976, Note_off_c, 1, 70, 0
3, 41976, Note_on_c, 1, 74, 93
3, 42000, Note_off_c, 1, 74, 0
3, 42000, Note_on_c, 1, 77, 93
3, 42024, Note_off_c, 1, 77, 0
3, 42024, Note_on_c, 1, 57, 93
3, 42048, Note_off_c, 1, 57, 0
3, 42048, Note_on_c, 1, 55, 93
3, 42072, Note_off_c, 1, 55, 0
3, 42072, Note_on_c, 1, 62, 93
3, 42096, Note_off_c, 1, 62, 0
3, 42096, Note_on_c, 1, 67, 93
3, 42120, Note_off_c, 1, 67, 0
3, 42120, Note_on_c, 1, 69, 93
3, 42144, Note_off_c, 1, 69, 0
3, 42144, Note_on_c, 1, 70, 93
3, 42168, Note_off_c, 1, 70, 0
3, 42168, Note_on_c, 1, 74, 93
3, 42192, Note_off_c, 1, 74, 0
3, 42192, Note_on_c, 1, 75, 93
3, 42216, Note_off_c, 1, 75, 0
3, 42216, Note_on_c, 1, 79, 93
3, 42240, Note_off_c, 1, 79, 0
3, 42240, Note_on_c, 1, 73, 93
3, 42288, Note_off_c, 1, 73, 0
3, 42288, Note_on_c, 1, 81, 93
3, 42312, Note_off_c, 1, 81, 0
3, 42312, Note_on_c, 1, 79, 93
3, 42336, Note_off_c, 1, 79, 0
3, 42336, Note_on_c, 1, 81, 93
3, 42384, Note_off_c, 1, 81, 0
3, 42384, Note_on_c, 1, 69, 93
3, 42432, Note_off_c, 1, 69, 0
3, 42432, Note_on_c, 1, 74, 93
3, 42480, Note_off_c, 1, 74, 0
3, 42480, Note_on_c, 1, 77, 93
3, 42528, Note_off_c, 1, 77, 0
3, 42528, Note_on_c, 1, 76, 93
3, 42576, Note_off_c, 1, 76, 0
3, 42576, Note_on_c, 1, 79, 93
3, 42624, Note_off_c, 1, 79, 0
3, 42624, Note_on_c, 1, 77, 93
3, 42672, Note_off_c, 1, 77, 0
3, 42768, Note_on_c, 1, 77, 93
3, 42816, Note_off_c, 1, 77, 0
3, 42816, Note_on_c, 1, 76, 93
3, 42864, Note_off_c, 1, 76, 0
3, 42912, Note_on_c, 1, 75, 93
3, 42960, Note_off_c, 1, 75, 0
3, 43008, Note_on_c, 1, 75, 93
3, 43056, Note_off_c, 1, 75, 0
3, 43056, Note_on_c, 1, 74, 93
3, 43080, Note_off_c, 1, 74, 0
3, 43080, Note_on_c, 1, 73, 93
3, 43104, Note_off_c, 1, 73, 0
3, 43104, Note_on_c, 1, 74, 93
3, 43152, Note_off_c, 1, 74, 0
3, 43152, Note_on_c, 1, 86, 93
3, 43200, Note_off_c, 1, 86, 0
3, 43200, Note_on_c, 1, 79, 93
3, 43224, Note_off_c, 1, 79, 0
3, 43224, Note_on_c, 1, 77, 93
3, 43248, Note_off_c, 1, 77, 0
3, 43248, Note_on_c, 1, 76, 93
3, 43272, Note_off_c, 1, 76, 0
3, 43272, Note_on_c, 1, 79, 93
3, 43296, Note_off_c, 1, 79, 0
3, 43296, Note_on_c, 1, 77, 93
3, 43320, Note_off_c, 1, 77, 0
3, 43320, Note_on_c, 1, 76, 93
3, 43344, Note_off_c, 1, 76, 0
3, 43344, Note_on_c, 1, 74, 93
3, 43368, Note_off_c, 1, 74, 0
3, 43368, Note_on_c, 1, 77, 93
3, 43392, Note_off_c, 1, 77, 0
3, 43392, Note_on_c, 1, 75, 93
3, 43416, Note_off_c, 1, 75, 0
3, 43416, Note_on_c, 1, 74, 93
3, 43440, Note_off_c, 1, 74, 0
3, 43440, Note_on_c, 1, 73, 93
3, 43464, Note_off_c, 1, 73, 0
3, 43464, Note_on_c, 1, 74, 93
3, 43488, Note_off_c, 1, 74, 0
3, 43488, Note_on_c, 1, 82, 93
3, 43536, Note_off_c, 1, 82, 0
3, 43536, Note_on_c, 1, 81, 93
3, 43584, Note_off_c, 1, 81, 0
3, 43584, Note_on_c, 1, 75, 93
3, 43608, Note_off_c, 1, 75, 0
3, 43608, Note_on_c, 1, 73, 93
3, 43632, Note_off_c, 1, 73, 0
3, 43632, Note_on_c, 1, 74, 93
3, 43680, Note_off_c, 1, 74, 0
3, 43680, Note_on_c, 1, 82, 93
3, 43728, Note_off_c, 1, 82, 0
3, 43728, Note_on_c, 1, 81, 93
3, 43776, Note_off_c, 1, 81, 0
3, 43776, Note_on_c, 1, 74, 93
3, 43824, Note_off_c, 1, 74, 0
3, 43824, Note_on_c, 1, 73, 93
3, 43872, Note_off_c, 1, 73, 0
3, 43872, Note_on_c, 1, 79, 93
3, 43920, Note_off_c, 1, 79, 0
3, 43920, Note_on_c, 1, 70, 93
3, 43968, Note_off_c, 1, 70, 0
3, 43968, Note_on_c, 1, 69, 93
3, 44016, Note_off_c, 1, 69, 0
3, 44016, Note_on_c, 1, 79, 93
3, 44064, Note_off_c, 1, 79, 0
3, 44064, Note_on_c, 1, 77, 93
3, 44112, Note_off_c, 1, 77, 0
3, 44112, Note_on_c, 1, 76, 93
3, 44160, Note_off_c, 1, 76, 0
3, 44160, Note_on_c, 1, 69, 93
3, 44208, Note_off_c, 1, 69, 0
3, 44208, Note_on_c, 1, 74, 93
3, 44256, Note_off_c, 1, 74, 0
3, 44256, Note_on_c, 1, 64, 93
3, 44304, Note_off_c, 1, 64, 0
3, 44304, Note_on_c, 1, 73, 93
3, 44352, Note_off_c, 1, 73, 0
3, 44352, Note_on_c, 1, 74, 93
3, 44400, Note_off_c, 1, 74, 0
3, 44400, Note_on_c, 1, 65, 93
3, 44424, Note_off_c, 1, 65, 0
3, 44424, Note_on_c, 1, 64, 93
3, 44448, Note_off_c, 1, 64, 0
3, 44448, Note_on_c, 1, 65, 93
3, 44496, Note_off_c, 1, 65, 0
3, 44496, Note_on_c, 1, 67, 93
3, 44544, Note_off_c, 1, 67, 0
3, 44544, Note_on_c, 1, 69, 93
3, 44592, Note_off_c, 1, 69, 0
3, 44592, Note_on_c, 1, 64, 93
3, 44616, Note_off_c, 1, 64, 0
3, 44616, Note_on_c, 1, 62, 93
3, 44640, Note_off_c, 1, 62, 0
3, 44640, Note_on_c, 1, 64, 93
3, 44688, Note_off_c, 1, 64, 0
3, 44688, Note_on_c, 1, 66, 93
3, 44736, Note_off_c, 1, 66, 0
3, 44736, Note_on_c, 1, 67, 93
3, 44832, Note_off_c, 1, 67, 0
3, 44832, Note_on_c, 1, 67, 93
3, 44928, Note_off_c, 1, 67, 0
3, 44928, Note_on_c, 1, 66, 93
3, 45024, Note_off_c, 1, 66, 0
3, 45024, Note_on_c, 1, 65, 93
3, 45120, Note_off_c, 1, 65, 0
3, 45120, Note_on_c, 1, 64, 93
3, 45168, Note_off_c, 1, 64, 0
3, 45168, Note_on_c, 1, 64, 93
3, 45192, Note_off_c, 1, 64, 0
3, 45192, Note_on_c, 1, 62, 93
3, 45216, Note_off_c, 1, 62, 0
3, 45216, Note_on_c, 1, 64, 93
3, 45264, Note_off_c, 1, 64, 0
3, 45264, Note_on_c, 1, 65, 93
3, 45312, Note_off_c, 1, 65, 0
3, 45312, Note_on_c, 1, 67, 93
3, 45360, Note_off_c, 1, 67, 0
3, 45360, Note_on_c, 1, 62, 93
3, 45384, Note_off_c, 1, 62, 0
3, 45384, Note_on_c, 1, 60, 93
3, 45408, Note_off_c, 1, 60, 0
3, 45408, Note_on_c, 1, 62, 93
3, 45456, Note_off_c, 1, 62, 0
3, 45456, Note_on_c, 1, 64, 93
3, 45504, Note_off_c, 1, 64, 0
3, 45504, Note_on_c, 1, 65, 93
3, 45600, Note_off_c, 1, 65, 0
3, 45600, Note_on_c, 1, 65, 93
3, 45696, Note_off_c, 1, 65, 0
3, 45696, Note_on_c, 1, 64, 93
3, 45792, Note_off_c, 1, 64, 0
3, 45792, Note_on_c, 1, 63, 93
3, 45888, Note_off_c, 1, 63, 0
3, 45888, Note_on_c, 1, 62, 93
3, 45936, Note_off_c, 1, 62, 0
3, 45936, Note_on_c, 1, 70, 93
3, 45960, Note_off_c, 1, 70, 0
3, 45960, Note_on_c, 1, 72, 93
3, 45984, Note_off_c, 1, 72, 0
3, 45984, Note_on_c, 1, 70, 93
3, 46032, Note_off_c, 1, 70, 0
3, 46032, Note_on_c, 1, 69, 93
3, 46080, Note_off_c, 1, 69, 0
3, 46080, Note_on_c, 1, 67, 93
3, 46128, Note_off_c, 1, 67, 0
3, 46128, Note_on_c, 1, 72, 93
3, 46152, Note_off_c, 1, 72, 0
3, 46152, Note_on_c, 1, 74, 93
3, 46176, Note_off_c, 1, 74, 0
3, 46176, Note_on_c, 1, 72, 93
3, 46224, Note_off_c, 1, 72, 0
3, 46224, Note_on_c, 1, 70, 93
3, 46272, Note_off_c, 1, 70, 0
3, 46272, Note_on_c, 1, 69, 93
3, 46368, Note_off_c, 1, 69, 0
3, 46368, Note_on_c, 1, 69, 93
3, 46464, Note_off_c, 1, 69, 0
3, 46464, Note_on_c, 1, 70, 93
3, 46560, Note_off_c, 1, 70, 0
3, 46560, Note_on_c, 1, 71, 93
3, 46656, Note_off_c, 1, 71, 0
3, 46656, Note_on_c, 1, 72, 93
3, 46704, Note_off_c, 1, 72, 0
3, 46704, Note_on_c, 1, 72, 93
3, 46728, Note_off_c, 1, 72, 0
3, 46728, Note_on_c, 1, 74, 93
3, 46752, Note_off_c, 1, 74, 0
3, 46752, Note_on_c, 1, 72, 93
3, 46800, Note_off_c, 1, 72, 0
3, 46800, Note_on_c, 1, 70, 93
3, 46848, Note_off_c, 1, 70, 0
3, 46848, Note_on_c, 1, 69, 93
3, 46896, Note_off_c, 1, 69, 0
3, 46896, Note_on_c, 1, 74, 93
3, 46920, Note_off_c, 1, 74, 0
3, 46920, Note_on_c, 1, 76, 93
3, 46944, Note_off_c, 1, 76, 0
3, 46944, Note_on_c, 1, 74, 93
3, 46992, Note_off_c, 1, 74, 0
3, 46992, Note_on_c, 1, 72, 93
3, 47040, Note_off_c, 1, 72, 0
3, 47040, Note_on_c, 1, 70, 93
3, 47136, Note_off_c, 1, 70, 0
3, 47136, Note_on_c, 1, 71, 93
3, 47232, Note_off_c, 1, 71, 0
3, 47232, Note_on_c, 1, 72, 93
3, 47328, Note_off_c, 1, 72, 0
3, 47328, Note_on_c, 1, 73, 93
3, 47424, Note_off_c, 1, 73, 0
3, 47424, Note_on_c, 1, 74, 93
3, 47472, Note_off_c, 1, 74, 0
3, 47472, Note_on_c, 1, 69, 93
3, 47496, Note_off_c, 1, 69, 0
3, 47496, Note_on_c, 1, 70, 93
3, 47520, Note_off_c, 1, 70, 0
3, 47520, Note_on_c, 1, 69, 93
3, 47568, Note_off_c, 1, 69, 0
3, 47568, Note_on_c, 1, 81, 93
3, 47616, Note_off_c, 1, 81, 0
3, 47616, Note_on_c, 1, 74, 93
3, 47664, Note_off_c, 1, 74, 0
3, 47664, Note_on_c, 1, 70, 93
3, 47712, Note_off_c, 1, 70, 0
3, 47712, Note_on_c, 1, 72, 93
3, 47760, Note_off_c, 1, 72, 0
3, 47760, Note_on_c, 1, 69, 93
3, 47808, Note_off_c, 1, 69, 0
3, 47808, Note_on_c, 1, 70, 93
3, 47832, Note_off_c, 1, 70, 0
3, 47832, Note_on_c, 1, 69, 93
3, 47856, Note_off_c, 1, 69, 0
3, 47856, Note_on_c, 1, 67, 93
3, 47880, Note_off_c, 1, 67, 0
3, 47880, Note_on_c, 1, 69, 93
3, 47904, Note_off_c, 1, 69, 0
3, 47904, Note_on_c, 1, 70, 93
3, 47952, Note_off_c, 1, 70, 0
3, 47952, Note_on_c, 1, 79, 93
3, 48000, Note_off_c, 1, 79, 0
3, 48000, Note_on_c, 1, 72, 93
3, 48048, Note_off_c, 1, 72, 0
3, 48048, Note_on_c, 1, 69, 93
3, 48096, Note_off_c, 1, 69, 0
3, 48096, Note_on_c, 1, 70, 93
3, 48144, Note_off_c, 1, 70, 0
3, 48144, Note_on_c, 1, 67, 93
3, 48192, Note_off_c, 1, 67, 0
3, 48192, Note_on_c, 1, 69, 93
3, 48240, Note_off_c, 1, 69, 0
3, 48240, Note_on_c, 1, 72, 93
3, 48264, Note_off_c, 1, 72, 0
3, 48264, Note_on_c, 1, 70, 93
3, 48288, Note_off_c, 1, 70, 0
3, 48288, Note_on_c, 1, 72, 93
3, 48336, Note_off_c, 1, 72, 0
3, 48432, Note_on_c, 1, 77, 93
3, 48480, Note_off_c, 1, 77, 0
3, 48528, Note_on_c, 1, 75, 93
3, 48576, Note_off_c, 1, 75, 0
3, 48624, Note_on_c, 1, 74, 93
3, 48648, Note_off_c, 1, 74, 0
3, 48648, Note_on_c, 1, 72, 93
3, 48672, Note_off_c, 1, 72, 0
3, 48672, Note_on_c, 1, 74, 93
3, 48720, Note_off_c, 1, 74, 0
3, 48816, Note_on_c, 1, 79, 93
3, 48864, Note_off_c, 1, 79, 0
3, 48912, Note_on_c, 1, 77, 93
3, 48960, Note_off_c, 1, 77, 0
3, 49008, Note_on_c, 1, 76, 93
3, 49032, Note_off_c, 1, 76, 0
3, 49032, Note_on_c, 1, 77, 93
3, 49056, Note_off_c, 1, 77, 0
3, 49056, Note_on_c, 1, 79, 93
3, 49104, Note_off_c, 1, 79, 0
3, 49104, Note_on_c, 1, 81, 93
3, 49152, Note_off_c, 1, 81, 0
3, 49152, Note_on_c, 1, 82, 93
3, 49200, Note_off_c, 1, 82, 0
3, 49200, Note_on_c, 1, 81, 93
3, 49248, Note_off_c, 1, 81, 0
3, 49248, Note_on_c, 1, 81, 93
3, 49296, Note_off_c, 1, 81, 0
3, 49296, Note_on_c, 1, 79, 93
3, 49344, Note_off_c, 1, 79, 0
3, 49344, Note_on_c, 1, 79, 93
3, 49392, Note_off_c, 1, 79, 0
3, 49392, Note_on_c, 1, 77, 93
3, 49440, Note_off_c, 1, 77, 0
3, 49440, Note_on_c, 1, 77, 93
3, 49488, Note_off_c, 1, 77, 0
3, 49488, Note_on_c, 1, 76, 93
3, 49536, Note_off_c, 1, 76, 0
3, 49536, Note_on_c, 1, 74, 93
3, 49560, Note_off_c, 1, 74, 0
3, 49560, Note_on_c, 1, 76, 93
3, 49584, Note_off_c, 1, 76, 0
3, 49584, Note_on_c, 1, 74, 93
3, 49608, Note_off_c, 1, 74, 0
3, 49608, Note_on_c, 1, 76, 93
3, 49632, Note_off_c, 1, 76, 0
3, 49632, Note_on_c, 1, 77, 93
3, 49680, Note_off_c, 1, 77, 0
3, 49680, Note_on_c, 1, 57, 93
3, 49728, Note_off_c, 1, 57, 0
3, 49728, Note_on_c, 1, 56, 93
3, 49800, Note_off_c, 1, 56, 0
3, 49800, Note_on_c, 1, 77, 93
3, 49824, Note_off_c, 1, 77, 0
3, 49824, Note_on_c, 1, 76, 93
3, 49848, Note_off_c, 1, 76, 0
3, 49848, Note_on_c, 1, 74, 93
3, 49872, Note_off_c, 1, 74, 0
3, 49872, Note_on_c, 1, 72, 93
3, 49896, Note_off_c, 1, 72, 0
3, 49896, Note_on_c, 1, 71, 93
3, 49920, Note_off_c, 1, 71, 0
3, 49920, Note_on_c, 1, 72, 93
3, 49944, Note_off_c, 1, 72, 0
3, 49944, Note_on_c, 1, 69, 93
3, 49968, Note_off_c, 1, 69, 0
3, 49968, Note_on_c, 1, 65, 93
3, 49992, Note_off_c, 1, 65, 0
3, 49992, Note_on_c, 1, 76, 93
3, 50016, Note_off_c, 1, 76, 0
3, 50016, Note_on_c, 1, 74, 93
3, 50040, Note_off_c, 1, 74, 0
3, 50040, Note_on_c, 1, 72, 93
3, 50064, Note_off_c, 1, 72, 0
3, 50064, Note_on_c, 1, 71, 93
3, 50088, Note_off_c, 1, 71, 0
3, 50088, Note_on_c, 1, 69, 93
3, 50112, Note_off_c, 1, 69, 0
3, 50112, Note_on_c, 1, 68, 93
3, 50160, Note_off_c, 1, 68, 0
3, 50160, Note_on_c, 1, 83, 93
3, 50184, Note_off_c, 1, 83, 0
3, 50184, Note_on_c, 1, 81, 93
3, 50208, Note_off_c, 1, 81, 0
3, 50208, Note_on_c, 1, 83, 93
3, 50256, Note_off_c, 1, 83, 0
3, 50256, Note_on_c, 1, 74, 93
3, 50304, Note_off_c, 1, 74, 0
3, 50304, Note_on_c, 1, 72, 93
3, 50328, Note_off_c, 1, 72, 0
3, 50328, Note_on_c, 1, 83, 93
3, 50352, Note_off_c, 1, 83, 0
3, 50352, Note_on_c, 1, 81, 93
3, 50376, Note_off_c, 1, 81, 0
3, 50376, Note_on_c, 1, 80, 93
3, 50400, Note_off_c, 1, 80, 0
3, 50400, Note_on_c, 1, 81, 93
3, 50448, Note_off_c, 1, 81, 0
3, 50448, Note_on_c, 1, 72, 93
3, 50496, Note_off_c, 1, 72, 0
3, 50496, Note_on_c, 1, 71, 93
3, 50544, Note_off_c, 1, 71, 0
3, 50544, Note_on_c, 1, 81, 93
3, 50592, Note_off_c, 1, 81, 0
3, 50592, Note_on_c, 1, 79, 93
3, 50640, Note_off_c, 1, 79, 0
3, 50640, Note_on_c, 1, 70, 93
3, 50688, Note_off_c, 1, 70, 0
3, 50688, Note_on_c, 1, 69, 93
3, 50712, Note_off_c, 1, 69, 0
3, 50712, Note_on_c, 1, 79, 93
3, 50736, Note_off_c, 1, 79, 0
3, 50736, Note_on_c, 1, 77, 93
3, 50760, Note_off_c, 1, 77, 0
3, 50760, Note_on_c, 1, 76, 93
3, 50784, Note_off_c, 1, 76, 0
3, 50784, Note_on_c, 1, 77, 93
3, 50832, Note_off_c, 1, 77, 0
3, 50832, Note_on_c, 1, 69, 93
3, 50880, Note_off_c, 1, 69, 0
3, 50880, Note_on_c, 1, 67, 93
3, 50928, Note_off_c, 1, 67, 0
3, 50928, Note_on_c, 1, 77, 93
3, 50976, Note_off_c, 1, 77, 0
3, 50976, Note_on_c, 1, 76, 93
3, 51024, Note_off_c, 1, 76, 0
3, 51024, Note_on_c, 1, 67, 93
3, 51072, Note_off_c, 1, 67, 0
3, 51072, Note_on_c, 1, 65, 93
3, 51096, Note_off_c, 1, 65, 0
3, 51096, Note_on_c, 1, 76, 93
3, 51120, Note_off_c, 1, 76, 0
3, 51120, Note_on_c, 1, 74, 93
3, 51144, Note_off_c, 1, 74, 0
3, 51144, Note_on_c, 1, 72, 93
3, 51168, Note_off_c, 1, 72, 0
3, 51168, Note_on_c, 1, 74, 93
3, 51216, Note_off_c, 1, 74, 0
3, 51216, Note_on_c, 1, 65, 93
3, 51264, Note_off_c, 1, 65, 0
3, 51264, Note_on_c, 1, 64, 93
3, 51312, Note_off_c, 1, 64, 0
3, 51312, Note_on_c, 1, 74, 93
3, 51360, Note_off_c, 1, 74, 0
3, 51360, Note_on_c, 1, 72, 93
3, 51408, Note_off_c, 1, 72, 0
3, 51408, Note_on_c, 1, 64, 93
3, 51456, Note_off_c, 1, 64, 0
3, 51456, Note_on_c, 1, 65, 93
3, 51504, Note_off_c, 1, 65, 0
3, 51504, Note_on_c, 1, 70, 93
3, 51528, Note_off_c, 1, 70, 0
3, 51528, Note_on_c, 1, 69, 93
3, 51552, Note_off_c, 1, 69, 0
3, 51552, Note_on_c, 1, 70, 93
3, 51600, Note_off_c, 1, 70, 0
3, 51600, Note_on_c, 1, 74, 93
3, 51648, Note_off_c, 1, 74, 0
3, 51648, Note_on_c, 1, 74, 93
3, 51696, Note_off_c, 1, 74, 0
3, 51696, Note_on_c, 1, 77, 93
3, 51744, Note_off_c, 1, 77, 0
3, 51744, Note_on_c, 1, 77, 93
3, 51792, Note_off_c, 1, 77, 0
3, 51792, Note_on_c, 1, 82, 93
3, 51840, Note_off_c, 1, 82, 0
3, 51840, Note_on_c, 1, 80, 93
3, 51888, Note_off_c, 1, 80, 0
3, 51888, Note_on_c, 1, 77, 93
3, 51912, Note_off_c, 1, 77, 0
3, 51912, Note_on_c, 1, 76, 93
3, 51936, Note_off_c, 1, 76, 0
3, 51936, Note_on_c, 1, 81, 93
3, 51984, Note_off_c, 1, 81, 0
3, 52032, Note_on_c, 1, 81, 93
3, 52080, Note_off_c, 1, 81, 0
3, 52176, Note_on_c, 1, 80, 93
3, 52224, Note_off_c, 1, 80, 0
3, 52224, Note_on_c, 1, 81, 93
3, 52272, Note_off_c, 1, 81, 0
3, 52320, Note_on_c, 1, 76, 93
3, 52368, Note_off_c, 1, 76, 0
3, 52416, Note_on_c, 1, 81, 93
3, 52464, Note_off_c, 1, 81, 0
3, 52512, Note_on_c, 1, 79, 93
3, 52560, Note_off_c, 1, 79, 0
3, 52608, Note_on_c, 1, 77, 93
3, 52656, Note_off_c, 1, 77, 0
3, 52656, Note_on_c, 1, 76, 93
3, 52704, Note_off_c, 1, 76, 0
3, 52704, Note_on_c, 1, 76, 93
3, 52752, Note_off_c, 1, 76, 0
3, 52752, Note_on_c, 1, 74, 93
3, 52800, Note_off_c, 1, 74, 0
3, 52800, Note_on_c, 1, 74, 93
3, 52848, Note_off_c, 1, 74, 0
3, 52944, Note_on_c, 1, 72, 93
3, 52992, Note_off_c, 1, 72, 0
3, 52992, Note_on_c, 1, 70, 93
3, 53016, Note_off_c, 1, 70, 0
3, 53016, Note_on_c, 1, 72, 93
3, 53040, Note_off_c, 1, 72, 0
3, 53040, Note_on_c, 1, 74, 93
3, 53064, Note_off_c, 1, 74, 0
3, 53064, Note_on_c, 1, 76, 93
3, 53088, Note_off_c, 1, 76, 0
3, 53088, Note_on_c, 1, 77, 93
3, 53136, Note_off_c, 1, 77, 0
3, 53136, Note_on_c, 1, 69, 93
3, 53184, Note_off_c, 1, 69, 0
3, 53184, Note_on_c, 1, 68, 93
3, 53232, Note_off_c, 1, 68, 0
3, 53232, Note_on_c, 1, 77, 93
3, 53280, Note_off_c, 1, 77, 0
3, 53280, Note_on_c, 1, 76, 93
3, 53328, Note_off_c, 1, 76, 0
3, 53328, Note_on_c, 1, 74, 93
3, 53376, Note_off_c, 1, 74, 0
3, 53376, Note_on_c, 1, 72, 93
3, 53448, Note_off_c, 1, 72, 0
3, 53448, Note_on_c, 1, 74, 93
3, 53472, Note_off_c, 1, 74, 0
3, 53472, Note_on_c, 1, 71, 93
3, 53544, Note_off_c, 1, 71, 0
3, 53544, Note_on_c, 1, 69, 93
3, 53568, Note_off_c, 1, 69, 0
3, 53568, Note_on_c, 1, 69, 93
3, 53616, Note_off_c, 1, 69, 0
3, 53760, Note_on_c, 1, 72, 93
3, 53808, Note_off_c, 1, 72, 0
3, 53856, Note_on_c, 1, 71, 93
3, 53904, Note_off_c, 1, 71, 0
3, 53952, Note_on_c, 1, 69, 93
3, 54000, Note_off_c, 1, 69, 0
3, 54144, Note_on_c, 1, 69, 93
3, 54192, Note_off_c, 1, 69, 0
3, 54240, Note_on_c, 1, 68, 93
3, 54288, Note_off_c, 1, 68, 0
3, 54336, Note_on_c, 1, 69, 93
3, 54384, Note_off_c, 1, 69, 0
3, 54384, Note_on_c, 1, 65, 93
3, 54432, Note_off_c, 1, 65, 0
3, 54432, Note_on_c, 1, 67, 93
3, 54480, Note_off_c, 1, 67, 0
3, 54480, Note_on_c, 1, 64, 93
3, 54528, Note_off_c, 1, 64, 0
3, 54528, Note_on_c, 1, 65, 93
3, 54576, Note_off_c, 1, 65, 0
3, 54624, Note_on_c, 1, 64, 93
3, 54672, Note_off_c, 1, 64, 0
3, 54720, Note_on_c, 1, 69, 93
3, 54744, Note_off_c, 1, 69, 0
3, 55152, Note_on_c, 1, 81, 93
3, 55200, Note_off_c, 1, 81, 0
3, 55200, Note_on_c, 1, 81, 93
3, 55248, Note_off_c, 1, 81, 0
3, 55248, Note_on_c, 1, 80, 93
3, 55296, Note_off_c, 1, 80, 0
3, 55296, Note_on_c, 1, 81, 93
3, 55488, Note_off_c, 1, 81, 0
3, 55488, End_track
4, 0, Start_track
4, 0, Title_t, "Track4"
4, 0, Program_c, 2, 40
4, 0, Control_c, 2, 7, 100
4, 0, Control_c, 2, 10, 79
4, 1200, Note_on_c, 2, 81, 93
4, 1224, Note_off_c, 2, 81, 0
4, 1224, Note_on_c, 2, 80, 93
4, 1248, Note_off_c, 2, 80, 0
4, 1248, Note_on_c, 2, 81, 93
4, 1296, Note_off_c, 2, 81, 0
4, 1296, Note_on_c, 2, 69, 93
4, 1344, Note_off_c, 2, 69, 0
4, 1344, Note_on_c, 2, 76, 93
4, 1392, Note_off_c, 2, 76, 0
4, 1392, Note_on_c, 2, 79, 93
4, 1440, Note_off_c, 2, 79, 0
4, 1440, Note_on_c, 2, 78, 93
4, 1488, Note_off_c, 2, 78, 0
4, 1488, Note_on_c, 2, 81, 93
4, 1536, Note_off_c, 2, 81, 0
4, 1536, Note_on_c, 2, 79, 93
4, 1632, Note_off_c, 2, 79, 0
4, 1680, Note_on_c, 2, 79, 93
4, 1728, Note_off_c, 2, 79, 0
4, 1728, Note_on_c, 2, 79, 93
4, 1776, Note_off_c, 2, 79, 0
4, 1776, Note_on_c, 2, 81, 93
4, 1800, Note_off_c, 2, 81, 0
4, 1800, Note_on_c, 2, 79, 93
4, 1824, Note_off_c, 2, 79, 0
4, 1824, Note_on_c, 2, 81, 93
4, 1872, Note_off_c, 2, 81, 0
4, 1872, Note_on_c, 2, 76, 93
4, 1920, Note_off_c, 2, 76, 0
4, 1920, Note_on_c, 2, 77, 93
4, 2016, Note_off_c, 2, 77, 0
4, 2064, Note_on_c, 2, 77, 93
4, 2112, Note_off_c, 2, 77, 0
4, 2112, Note_on_c, 2, 77, 93
4, 2160, Note_off_c, 2, 77, 0
4, 2160, Note_on_c, 2, 79, 93
4, 2184, Note_off_c, 2, 79, 0
4, 2184, Note_on_c, 2, 77, 93
4, 2208, Note_off_c, 2, 77, 0
4, 2208, Note_on_c, 2, 79, 93
4, 2256, Note_off_c, 2, 79, 0
4, 2256, Note_on_c, 2, 74, 93
4, 2304, Note_off_c, 2, 74, 0
4, 2304, Note_on_c, 2, 76, 93
4, 2328, Note_off_c, 2, 76, 0
4, 2328, Note_on_c, 2, 77, 93
4, 2352, Note_off_c, 2, 77, 0
4, 2352, Note_on_c, 2, 76, 93
4, 2376, Note_off_c, 2, 76, 0
4, 2376, Note_on_c, 2, 74, 93
4, 2400, Note_off_c, 2, 74, 0
4, 2400, Note_on_c, 2, 72, 93
4, 2424, Note_off_c, 2, 72, 0
4, 2424, Note_on_c, 2, 71, 93
4, 2448, Note_off_c, 2, 71, 0
4, 2448, Note_on_c, 2, 69, 93
4, 2472, Note_off_c, 2, 69, 0
4, 2472, Note_on_c, 2, 67, 93
4, 2496, Note_off_c, 2, 67, 0
4, 2496, Note_on_c, 2, 66, 93
4, 2544, Note_off_c, 2, 66, 0
4, 2544, Note_on_c, 2, 74, 93
4, 2568, Note_off_c, 2, 74, 0
4, 2568, Note_on_c, 2, 72, 93
4, 2592, Note_off_c, 2, 72, 0
4, 2592, Note_on_c, 2, 74, 93
4, 2640, Note_off_c, 2, 74, 0
4, 2640, Note_on_c, 2, 66, 93
4, 2688, Note_off_c, 2, 66, 0
4, 2688, Note_on_c, 2, 68, 93
4, 2712, Note_off_c, 2, 68, 0
4, 2712, Note_on_c, 2, 69, 93
4, 2736, Note_off_c, 2, 69, 0
4, 2736, Note_on_c, 2, 71, 93
4, 2760, Note_off_c, 2, 71, 0
4, 2760, Note_on_c, 2, 72, 93
4, 2784, Note_off_c, 2, 72, 0
4, 2784, Note_on_c, 2, 74, 93
4, 2832, Note_off_c, 2, 74, 0
4, 2832, Note_on_c, 2, 65, 93
4, 2880, Note_off_c, 2, 65, 0
4, 2880, Note_on_c, 2, 64, 93
4, 2928, Note_off_c, 2, 64, 0
4, 2928, Note_on_c, 2, 74, 93
4, 2952, Note_off_c, 2, 74, 0
4, 2952, Note_on_c, 2, 72, 93
4, 2976, Note_off_c, 2, 72, 0
4, 2976, Note_on_c, 2, 74, 93
4, 3000, Note_off_c, 2, 74, 0
4, 3000, Note_on_c, 2, 77, 93
4, 3024, Note_off_c, 2, 77, 0
4, 3024, Note_on_c, 2, 76, 93
4, 3048, Note_off_c, 2, 76, 0
4, 3048, Note_on_c, 2, 74, 93
4, 3072, Note_off_c, 2, 74, 0
4, 3072, Note_on_c, 2, 72, 93
4, 3096, Note_off_c, 2, 72, 0
4, 3096, Note_on_c, 2, 74, 93
4, 3120, Note_off_c, 2, 74, 0
4, 3120, Note_on_c, 2, 72, 93
4, 3144, Note_off_c, 2, 72, 0
4, 3144, Note_on_c, 2, 74, 93
4, 3168, Note_off_c, 2, 74, 0
4, 3168, Note_on_c, 2, 74, 93
4, 3240, Note_off_c, 2, 74, 0
4, 3240, Note_on_c, 2, 72, 93
4, 3252, Note_off_c, 2, 72, 0
4, 3252, Note_on_c, 2, 74, 93
4, 3264, Note_off_c, 2, 74, 0
4, 3264, Note_on_c, 2, 76, 93
4, 3312, Note_off_c, 2, 76, 0
4, 3360, Note_on_c, 2, 79, 93
4, 3456, Note_off_c, 2, 79, 0
4, 3456, Note_on_c, 2, 78, 93
4, 3552, Note_off_c, 2, 78, 0
4, 3552, Note_on_c, 2, 77, 93
4, 3648, Note_off_c, 2, 77, 0
4, 3648, Note_on_c, 2, 76, 93
4, 3744, Note_off_c, 2, 76, 0
4, 3744, Note_on_c, 2, 81, 93
4, 3840, Note_off_c, 2, 81, 0
4, 3840, Note_on_c, 2, 80, 93
4, 3936, Note_off_c, 2, 80, 0
4, 3936, Note_on_c, 2, 79, 93
4, 4032, Note_off_c, 2, 79, 0
4, 4032, Note_on_c, 2, 78, 93
4, 4128, Note_off_c, 2, 78, 0
4, 4128, Note_on_c, 2, 83, 93
4, 4224, Note_off_c, 2, 83, 0
4, 4224, Note_on_c, 2, 82, 93
4, 4320, Note_off_c, 2, 82, 0
4, 4320, Note_on_c, 2, 81, 93
4, 4416, Note_off_c, 2, 81, 0
4, 4416, Note_on_c, 2, 80, 93
4, 4464, Note_off_c, 2, 80, 0
4, 4464, Note_on_c, 2, 79, 93
4, 4488, Note_off_c, 2, 79, 0
4, 4488, Note_on_c, 2, 78, 93
4, 4512, Note_off_c, 2, 78, 0
4, 4512, Note_on_c, 2, 79, 93
4, 4560, Note_off_c, 2, 79, 0
4, 4560, Note_on_c, 2, 81, 93
4, 4608, Note_off_c, 2, 81, 0
4, 4608, Note_on_c, 2, 83, 93
4, 4656, Note_off_c, 2, 83, 0
4, 4656, Note_on_c, 2, 78, 93
4, 4680, Note_off_c, 2, 78, 0
4, 4680, Note_on_c, 2, 76, 93
4, 4704, Note_off_c, 2, 76, 0
4, 4704, Note_on_c, 2, 78, 93
4, 4752, Note_off_c, 2, 78, 0
4, 4752, Note_on_c, 2, 80, 93
4, 4800, Note_off_c, 2, 80, 0
4, 4800, Note_on_c, 2, 81, 93
4, 4848, Note_off_c, 2, 81, 0
4, 4848, Note_on_c, 2, 81, 93
4, 4872, Note_off_c, 2, 81, 0
4, 4872, Note_on_c, 2, 80, 93
4, 4896, Note_off_c, 2, 80, 0
4, 4896, Note_on_c, 2, 81, 93
4, 4944, Note_off_c, 2, 81, 0
4, 4944, Note_on_c, 2, 83, 93
4, 4992, Note_off_c, 2, 83, 0
4, 4992, Note_on_c, 2, 84, 93
4, 5040, Note_off_c, 2, 84, 0
4, 5040, Note_on_c, 2, 79, 93
4, 5064, Note_off_c, 2, 79, 0
4, 5064, Note_on_c, 2, 78, 93
4, 5088, Note_off_c, 2, 78, 0
4, 5088, Note_on_c, 2, 79, 93
4, 5136, Note_off_c, 2, 79, 0
4, 5136, Note_on_c, 2, 81, 93
4, 5184, Note_off_c, 2, 81, 0
4, 5184, Note_on_c, 2, 83, 93
4, 5232, Note_off_c, 2, 83, 0
4, 5232, Note_on_c, 2, 83, 93
4, 5256, Note_off_c, 2, 83, 0
4, 5256, Note_on_c, 2, 81, 93
4, 5280, Note_off_c, 2, 81, 0
4, 5280, Note_on_c, 2, 83, 93
4, 5328, Note_off_c, 2, 83, 0
4, 5328, Note_on_c, 2, 84, 93
4, 5376, Note_off_c, 2, 84, 0
4, 5376, Note_on_c, 2, 86, 93
4, 5424, Note_off_c, 2, 86, 0
4, 5424, Note_on_c, 2, 81, 93
4, 5448, Note_off_c, 2, 81, 0
4, 5448, Note_on_c, 2, 80, 93
4, 5472, Note_off_c, 2, 80, 0
4, 5472, Note_on_c, 2, 81, 93
4, 5520, Note_off_c, 2, 81, 0
4, 5520, Note_on_c, 2, 83, 93
4, 5568, Note_off_c, 2, 83, 0
4, 5568, Note_on_c, 2, 84, 93
4, 5616, Note_off_c, 2, 84, 0
4, 5952, Note_on_c, 2, 83, 93
4, 6000, Note_off_c, 2, 83, 0
4, 6336, Note_on_c, 2, 81, 93
4, 6384, Note_off_c, 2, 81, 0
4, 6384, Note_on_c, 2, 81, 93
4, 6408, Note_off_c, 2, 81, 0
4, 6408, Note_on_c, 2, 77, 93
4, 6432, Note_off_c, 2, 77, 0
4, 6432, Note_on_c, 2, 76, 93
4, 6456, Note_off_c, 2, 76, 0
4, 6456, Note_on_c, 2, 74, 93
4, 6480, Note_off_c, 2, 74, 0
4, 6480, Note_on_c, 2, 73, 93
4, 6504, Note_off_c, 2, 73, 0
4, 6504, Note_on_c, 2, 71, 93
4, 6528, Note_off_c, 2, 71, 0
4, 6528, Note_on_c, 2, 73, 93
4, 6576, Note_off_c, 2, 73, 0
4, 6720, Note_on_c, 2, 74, 93
4, 6744, Note_off_c, 2, 74, 0
4, 6912, Note_on_c, 2, 77, 93
4, 6960, Note_off_c, 2, 77, 0
4, 6960, Note_on_c, 2, 82, 93
4, 6984, Note_off_c, 2, 82, 0
4, 6984, Note_on_c, 2, 77, 93
4, 7008, Note_off_c, 2, 77, 0
4, 7008, Note_on_c, 2, 76, 93
4, 7032, Note_off_c, 2, 76, 0
4, 7032, Note_on_c, 2, 74, 93
4, 7056, Note_off_c, 2, 74, 0
4, 7056, Note_on_c, 2, 72, 93
4, 7080, Note_off_c, 2, 72, 0
4, 7080, Note_on_c, 2, 71, 93
4, 7104, Note_off_c, 2, 71, 0
4, 7104, Note_on_c, 2, 71, 93
4, 7152, Note_off_c, 2, 71, 0
4, 7152, Note_on_c, 2, 72, 93
4, 7176, Note_off_c, 2, 72, 0
4, 7176, Note_on_c, 2, 71, 93
4, 7200, Note_off_c, 2, 71, 0
4, 7200, Note_on_c, 2, 72, 93
4, 7248, Note_off_c, 2, 72, 0
4, 7248, Note_on_c, 2, 72, 93
4, 7296, Note_off_c, 2, 72, 0
4, 7296, Note_on_c, 2, 71, 93
4, 7344, Note_off_c, 2, 71, 0
4, 7440, Note_on_c, 2, 74, 93
4, 7488, Note_off_c, 2, 74, 0
4, 7488, Note_on_c, 2, 73, 93
4, 7536, Note_off_c, 2, 73, 0
4, 7584, Note_on_c, 2, 74, 93
4, 7632, Note_off_c, 2, 74, 0
4, 7680, Note_on_c, 2, 69, 93
4, 7728, Note_off_c, 2, 69, 0
4, 7824, Note_on_c, 2, 69, 93
4, 7872, Note_off_c, 2, 69, 0
4, 7872, Note_on_c, 2, 69, 93
4, 7920, Note_off_c, 2, 69, 0
4, 8112, Note_on_c, 2, 67, 93
4, 8160, Note_off_c, 2, 67, 0
4, 8160, Note_on_c, 2, 69, 93
4, 8208, Note_off_c, 2, 69, 0
4, 8688, Note_on_c, 2, 62, 93
4, 8736, Note_off_c, 2, 62, 0
4, 8736, Note_on_c, 2, 60, 93
4, 8784, Note_off_c, 2, 60, 0
4, 8784, Note_on_c, 2, 59, 93
4, 8832, Note_off_c, 2, 59, 0
4, 8832, Note_on_c, 2, 57, 67
4, 8856, Note_off_c, 2, 57, 0
4, 9072, Note_on_c, 2, 62, 67
4, 9120, Note_off_c, 2, 62, 0
4, 9120, Note_on_c, 2, 60, 67
4, 9168, Note_off_c, 2, 60, 0
4, 9168, Note_on_c, 2, 59, 67
4, 9216, Note_off_c, 2, 59, 0
4, 9216, Note_on_c, 2, 57, 67
4, 9240, Note_off_c, 2, 57, 0
4, 9408, Note_on_c, 2, 59, 93
4, 9432, Note_off_c, 2, 59, 0
4, 9600, Note_on_c, 2, 60, 67
4, 9624, Note_off_c, 2, 60, 0
4, 10224, Note_on_c, 2, 69, 93
4, 10272, Note_off_c, 2, 69, 0
4, 10272, Note_on_c, 2, 67, 93
4, 10320, Note_off_c, 2, 67, 0
4, 10320, Note_on_c, 2, 66, 93
4, 10368, Note_off_c, 2, 66, 0
4, 10368, Note_on_c, 2, 64, 67
4, 10392, Note_off_c, 2, 64, 0
4, 10608, Note_on_c, 2, 69, 67
4, 10656, Note_off_c, 2, 69, 0
4, 10656, Note_on_c, 2, 67, 67
4, 10704, Note_off_c, 2, 67, 0
4, 10704, Note_on_c, 2, 66, 67
4, 10752, Note_off_c, 2, 66, 0
4, 10752, Note_on_c, 2, 64, 67
4, 10800, Note_off_c, 2, 64, 0
4, 10944, Note_on_c, 2, 66, 93
4, 10968, Note_off_c, 2, 66, 0
4, 11136, Note_on_c, 2, 67, 93
4, 11160, Note_off_c, 2, 67, 0
4, 11328, Note_on_c, 2, 69, 93
4, 11376, Note_off_c, 2, 69, 0
4, 11376, Note_on_c, 2, 67, 93
4, 11424, Note_off_c, 2, 67, 0
4, 11424, Note_on_c, 2, 66, 93
4, 11472, Note_off_c, 2, 66, 0
4, 11472, Note_on_c, 2, 64, 93
4, 11520, Note_off_c, 2, 64, 0
4, 11520, Note_on_c, 2, 63, 93
4, 11568, Note_off_c, 2, 63, 0
4, 11664, Note_on_c, 2, 69, 93
4, 11712, Note_off_c, 2, 69, 0
4, 11712, Note_on_c, 2, 67, 93
4, 11760, Note_off_c, 2, 67, 0
4, 11808, Note_on_c, 2, 71, 93
4, 11856, Note_off_c, 2, 71, 0
4, 11904, Note_on_c, 2, 64, 93
4, 11952, Note_off_c, 2, 64, 0
4, 11952, Note_on_c, 2, 76, 93
4, 11976, Note_off_c, 2, 76, 0
4, 11976, Note_on_c, 2, 75, 93
4, 12000, Note_off_c, 2, 75, 0
4, 12000, Note_on_c, 2, 76, 93
4, 12048, Note_off_c, 2, 76, 0
4, 12048, Note_on_c, 2, 64, 93
4, 12096, Note_off_c, 2, 64, 0
4, 12096, Note_on_c, 2, 69, 93
4, 12144, Note_off_c, 2, 69, 0
4, 12144, Note_on_c, 2, 72, 93
4, 12192, Note_off_c, 2, 72, 0
4, 12192, Note_on_c, 2, 71, 93
4, 12240, Note_off_c, 2, 71, 0
4, 12240, Note_on_c, 2, 74, 93
4, 12288, Note_off_c, 2, 74, 0
4, 12288, Note_on_c, 2, 72, 93
4, 12336, Note_off_c, 2, 72, 0
4, 12432, Note_on_c, 2, 69, 93
4, 12480, Note_off_c, 2, 69, 0
4, 12480, Note_on_c, 2, 69, 93
4, 12528, Note_off_c, 2, 69, 0
4, 12528, Note_on_c, 2, 71, 93
4, 12552, Note_off_c, 2, 71, 0
4, 12552, Note_on_c, 2, 69, 93
4, 12576, Note_off_c, 2, 69, 0
4, 12576, Note_on_c, 2, 71, 93
4, 12600, Note_off_c, 2, 71, 0
4, 12600, Note_on_c, 2, 67, 93
4, 12624, Note_off_c, 2, 67, 0
4, 12624, Note_on_c, 2, 69, 93
4, 12648, Note_off_c, 2, 69, 0
4, 12648, Note_on_c, 2, 66, 93
4, 12672, Note_off_c, 2, 66, 0
4, 12672, Note_on_c, 2, 67, 93
4, 12720, Note_off_c, 2, 67, 0
4, 12816, Note_on_c, 2, 68, 93
4, 12864, Note_off_c, 2, 68, 0
4, 12864, Note_on_c, 2, 69, 93
4, 12888, Note_off_c, 2, 69, 0
4, 12912, Note_on_c, 2, 67, 93
4, 12936, Note_off_c, 2, 67, 0
4, 12960, Note_on_c, 2, 66, 93
4, 12984, Note_off_c, 2, 66, 0
4, 13008, Note_on_c, 2, 63, 93
4, 13032, Note_off_c, 2, 63, 0
4, 13248, Note_on_c, 2, 67, 93
4, 13296, Note_off_c, 2, 67, 0
4, 13344, Note_on_c, 2, 67, 93
4, 13392, Note_off_c, 2, 67, 0
4, 13440, Note_on_c, 2, 66, 93
4, 13488, Note_off_c, 2, 66, 0
4, 13536, Note_on_c, 2, 71, 93
4, 13584, Note_off_c, 2, 71, 0
4, 13584, Note_on_c, 2, 72, 93
4, 13632, Note_off_c, 2, 72, 0
4, 13632, Note_on_c, 2, 71, 93
4, 13680, Note_off_c, 2, 71, 0
4, 13728, Note_on_c, 2, 69, 93
4, 13776, Note_off_c, 2, 69, 0
4, 15408, Note_on_c, 2, 79, 93
4, 15432, Note_off_c, 2, 79, 0
4, 15432, Note_on_c, 2, 77, 93
4, 15456, Note_off_c, 2, 77, 0
4, 15456, Note_on_c, 2, 79, 93
4, 15504, Note_off_c, 2, 79, 0
4, 15504, Note_on_c, 2, 67, 93
4, 15552, Note_off_c, 2, 67, 0
4, 15552, Note_on_c, 2, 72, 93
4, 15600, Note_off_c, 2, 72, 0
4, 15600, Note_on_c, 2, 76, 93
4, 15648, Note_off_c, 2, 76, 0
4, 15648, Note_on_c, 2, 74, 93
4, 15696, Note_off_c, 2, 74, 0
4, 15696, Note_on_c, 2, 77, 93
4, 15744, Note_off_c, 2, 77, 0
4, 15744, Note_on_c, 2, 76, 93
4, 15792, Note_off_c, 2, 76, 0
4, 15792, Note_on_c, 2, 79, 93
4, 15840, Note_off_c, 2, 79, 0
4, 15840, Note_on_c, 2, 77, 93
4, 15888, Note_off_c, 2, 77, 0
4, 15888, Note_on_c, 2, 81, 93
4, 15936, Note_off_c, 2, 81, 0
4, 15936, Note_on_c, 2, 79, 93
4, 15984, Note_off_c, 2, 79, 0
4, 15984, Note_on_c, 2, 72, 93
4, 16008, Note_off_c, 2, 72, 0
4, 16008, Note_on_c, 2, 71, 93
4, 16032, Note_off_c, 2, 71, 0
4, 16032, Note_on_c, 2, 72, 93
4, 16056, Note_off_c, 2, 72, 0
4, 16056, Note_on_c, 2, 74, 93
4, 16080, Note_off_c, 2, 74, 0
4, 16080, Note_on_c, 2, 76, 93
4, 16104, Note_off_c, 2, 76, 0
4, 16104, Note_on_c, 2, 77, 93
4, 16116, Note_off_c, 2, 77, 0
4, 16116, Note_on_c, 2, 79, 93
4, 16128, Note_off_c, 2, 79, 0
4, 16128, Note_on_c, 2, 81, 93
4, 16176, Note_off_c, 2, 81, 0
4, 16320, Note_on_c, 2, 81, 93
4, 16368, Note_off_c, 2, 81, 0
4, 16368, Note_on_c, 2, 74, 93
4, 16392, Note_off_c, 2, 74, 0
4, 16392, Note_on_c, 2, 76, 93
4, 16416, Note_off_c, 2, 76, 0
4, 16416, Note_on_c, 2, 78, 93
4, 16440, Note_off_c, 2, 78, 0
4, 16440, Note_on_c, 2, 79, 93
4, 16464, Note_off_c, 2, 79, 0
4, 16464, Note_on_c, 2, 81, 93
4, 16488, Note_off_c, 2, 81, 0
4, 16488, Note_on_c, 2, 83, 93
4, 16500, Note_off_c, 2, 83, 0
4, 16500, Note_on_c, 2, 84, 93
4, 16512, Note_off_c, 2, 84, 0
4, 16512, Note_on_c, 2, 83, 93
4, 16560, Note_off_c, 2, 83, 0
4, 16752, Note_on_c, 2, 84, 93
4, 16800, Note_off_c, 2, 84, 0
4, 16800, Note_on_c, 2, 84, 93
4, 16848, Note_off_c, 2, 84, 0
4, 16848, Note_on_c, 2, 83, 93
4, 16896, Note_off_c, 2, 83, 0
4, 16896, Note_on_c, 2, 84, 93
4, 16944, Note_off_c, 2, 84, 0
4, 16944, Note_on_c, 2, 84, 93
4, 16968, Note_off_c, 2, 84, 0
4, 16968, Note_on_c, 2, 83, 93
4, 16992, Note_off_c, 2, 83, 0
4, 16992, Note_on_c, 2, 84, 93
4, 17016, Note_off_c, 2, 84, 0
4, 17016, Note_on_c, 2, 79, 93
4, 17040, Note_off_c, 2, 79, 0
4, 17040, Note_on_c, 2, 76, 93
4, 17064, Note_off_c, 2, 76, 0
4, 17064, Note_on_c, 2, 72, 93
4, 17088, Note_off_c, 2, 72, 0
4, 17088, Note_on_c, 2, 79, 93
4, 17136, Note_off_c, 2, 79, 0
4, 17136, Note_on_c, 2, 83, 93
4, 17184, Note_off_c, 2, 83, 0
4, 17184, Note_on_c, 2, 81, 93
4, 17232, Note_off_c, 2, 81, 0
4, 17232, Note_on_c, 2, 84, 93
4, 17280, Note_off_c, 2, 84, 0
4, 17280, Note_on_c, 2, 83, 93
4, 17328, Note_off_c, 2, 83, 0
4, 17424, Note_on_c, 2, 83, 93
4, 17472, Note_off_c, 2, 83, 0
4, 17472, Note_on_c, 2, 84, 93
4, 17520, Note_off_c, 2, 84, 0
4, 17568, Note_on_c, 2, 83, 93
4, 17616, Note_off_c, 2, 83, 0
4, 17664, Note_on_c, 2, 82, 93
4, 17712, Note_off_c, 2, 82, 0
4, 17760, Note_on_c, 2, 81, 93
4, 17808, Note_off_c, 2, 81, 0
4, 18816, Note_on_c, 2, 72, 93
4, 18864, Note_off_c, 2, 72, 0
4, 18960, Note_on_c, 2, 72, 93
4, 19008, Note_off_c, 2, 72, 0
4, 19008, Note_on_c, 2, 72, 93
4, 19056, Note_off_c, 2, 72, 0
4, 19776, Note_on_c, 2, 69, 93
4, 19800, Note_off_c, 2, 69, 0
4, 19800, Note_on_c, 2, 71, 93
4, 19824, Note_off_c, 2, 71, 0
4, 19824, Note_on_c, 2, 72, 93
4, 19848, Note_off_c, 2, 72, 0
4, 19848, Note_on_c, 2, 69, 93
4, 19872, Note_off_c, 2, 69, 0
4, 19872, Note_on_c, 2, 71, 93
4, 19896, Note_off_c, 2, 71, 0
4, 19896, Note_on_c, 2, 72, 93
4, 19920, Note_off_c, 2, 72, 0
4, 19920, Note_on_c, 2, 74, 93
4, 19944, Note_off_c, 2, 74, 0
4, 19944, Note_on_c, 2, 71, 93
4, 19968, Note_off_c, 2, 71, 0
4, 19968, Note_on_c, 2, 72, 93
4, 19992, Note_off_c, 2, 72, 0
4, 19992, Note_on_c, 2, 74, 93
4, 20016, Note_off_c, 2, 74, 0
4, 20016, Note_on_c, 2, 76, 93
4, 20040, Note_off_c, 2, 76, 0
4, 20040, Note_on_c, 2, 72, 93
4, 20064, Note_off_c, 2, 72, 0
4, 20064, Note_on_c, 2, 74, 93
4, 20088, Note_off_c, 2, 74, 0
4, 20088, Note_on_c, 2, 76, 93
4, 20112, Note_off_c, 2, 76, 0
4, 20112, Note_on_c, 2, 77, 93
4, 20136, Note_off_c, 2, 77, 0
4, 20136, Note_on_c, 2, 74, 93
4, 20160, Note_off_c, 2, 74, 0
4, 20160, Note_on_c, 2, 76, 93
4, 20208, Note_off_c, 2, 76, 0
4, 20208, Note_on_c, 2, 81, 93
4, 20232, Note_off_c, 2, 81, 0
4, 20232, Note_on_c, 2, 80, 93
4, 20256, Note_off_c, 2, 80, 0
4, 20256, Note_on_c, 2, 81, 93
4, 20280, Note_off_c, 2, 81, 0
4, 20280, Note_on_c, 2, 78, 93
4, 20304, Note_off_c, 2, 78, 0
4, 20304, Note_on_c, 2, 79, 93
4, 20328, Note_off_c, 2, 79, 0
4, 20328, Note_on_c, 2, 76, 93
4, 20352, Note_off_c, 2, 76, 0
4, 20352, Note_on_c, 2, 78, 93
4, 20400, Note_off_c, 2, 78, 0
4, 20544, Note_on_c, 2, 80, 93
4, 20592, Note_off_c, 2, 80, 0
4, 20736, Note_on_c, 2, 81, 93
4, 20784, Note_off_c, 2, 81, 0
4, 20928, Note_on_c, 2, 83, 93
4, 20976, Note_off_c, 2, 83, 0
4, 23808, Note_on_c, 2, 76, 93
4, 23856, Note_off_c, 2, 76, 0
4, 23856, Note_on_c, 2, 64, 93
4, 23880, Note_off_c, 2, 64, 0
4, 23880, Note_on_c, 2, 65, 93
4, 23904, Note_off_c, 2, 65, 0
4, 23904, Note_on_c, 2, 64, 93
4, 23952, Note_off_c, 2, 64, 0
4, 23952, Note_on_c, 2, 76, 93
4, 24000, Note_off_c, 2, 76, 0
4, 24000, Note_on_c, 2, 69, 93
4, 24048, Note_off_c, 2, 69, 0
4, 24048, Note_on_c, 2, 65, 93
4, 24096, Note_off_c, 2, 65, 0
4, 24096, Note_on_c, 2, 67, 93
4, 24144, Note_off_c, 2, 67, 0
4, 24144, Note_on_c, 2, 64, 93
4, 24192, Note_off_c, 2, 64, 0
4, 24192, Note_on_c, 2, 65, 93
4, 24240, Note_off_c, 2, 65, 0
4, 24240, Note_on_c, 2, 62, 93
4, 24264, Note_off_c, 2, 62, 0
4, 24264, Note_on_c, 2, 64, 93
4, 24288, Note_off_c, 2, 64, 0
4, 24288, Note_on_c, 2, 62, 93
4, 24336, Note_off_c, 2, 62, 0
4, 24336, Note_on_c, 2, 74, 93
4, 24384, Note_off_c, 2, 74, 0
4, 24384, Note_on_c, 2, 67, 93
4, 24432, Note_off_c, 2, 67, 0
4, 24432, Note_on_c, 2, 64, 93
4, 24480, Note_off_c, 2, 64, 0
4, 24480, Note_on_c, 2, 65, 93
4, 24528, Note_off_c, 2, 65, 0
4, 24528, Note_on_c, 2, 62, 93
4, 24576, Note_off_c, 2, 62, 0
4, 24576, Note_on_c, 2, 64, 93
4, 24672, Note_off_c, 2, 64, 0
4, 24720, Note_on_c, 2, 76, 93
4, 24816, Note_off_c, 2, 76, 0
4, 24816, Note_on_c, 2, 74, 93
4, 24912, Note_off_c, 2, 74, 0
4, 24912, Note_on_c, 2, 72, 93
4, 24960, Note_off_c, 2, 72, 0
4, 24960, Note_on_c, 2, 65, 93
4, 25008, Note_off_c, 2, 65, 0
4, 25008, Note_on_c, 2, 67, 93
4, 25056, Note_off_c, 2, 67, 0
4, 25056, Note_on_c, 2, 69, 93
4, 25104, Note_off_c, 2, 69, 0
4, 25104, Note_on_c, 2, 65, 93
4, 25152, Note_off_c, 2, 65, 0
4, 25152, Note_on_c, 2, 67, 93
4, 25200, Note_off_c, 2, 67, 0
4, 25248, Note_on_c, 2, 65, 93
4, 25296, Note_off_c, 2, 65, 0
4, 25296, Note_on_c, 2, 62, 93
4, 25344, Note_off_c, 2, 62, 0
4, 25344, Note_on_c, 2, 64, 93
4, 25392, Note_off_c, 2, 64, 0
4, 25536, Note_on_c, 2, 63, 93
4, 25584, Note_off_c, 2, 63, 0
4, 25680, Note_on_c, 2, 69, 93
4, 25728, Note_off_c, 2, 69, 0
4, 25728, Note_on_c, 2, 67, 93
4, 25776, Note_off_c, 2, 67, 0
4, 25776, Note_on_c, 2, 66, 93
4, 25824, Note_off_c, 2, 66, 0
4, 25824, Note_on_c, 2, 67, 93
4, 25872, Note_off_c, 2, 67, 0
4, 25872, Note_on_c, 2, 69, 93
4, 25920, Note_off_c, 2, 69, 0
4, 25920, Note_on_c, 2, 71, 93
4, 25968, Note_off_c, 2, 71, 0
4, 25968, Note_on_c, 2, 69, 93
4, 26016, Note_off_c, 2, 69, 0
4, 26016, Note_on_c, 2, 71, 93
4, 26112, Note_off_c, 2, 71, 0
4, 26112, Note_on_c, 2, 64, 93
4, 26160, Note_off_c, 2, 64, 0
4, 26352, Note_on_c, 2, 76, 93
4, 26400, Note_off_c, 2, 76, 0
4, 26400, Note_on_c, 2, 76, 93
4, 26448, Note_off_c, 2, 76, 0
4, 26448, Note_on_c, 2, 75, 93
4, 26496, Note_off_c, 2, 75, 0
4, 26496, Note_on_c, 2, 76, 93
4, 26544, Note_off_c, 2, 76, 0
4, 26544, Note_on_c, 2, 64, 93
4, 26568, Note_off_c, 2, 64, 0
4, 26568, Note_on_c, 2, 66, 93
4, 26592, Note_off_c, 2, 66, 0
4, 26592, Note_on_c, 2, 64, 93
4, 26640, Note_off_c, 2, 64, 0
4, 26640, Note_on_c, 2, 76, 93
4, 26688, Note_off_c, 2, 76, 0
4, 26688, Note_on_c, 2, 71, 93
4, 26736, Note_off_c, 2, 71, 0
4, 26736, Note_on_c, 2, 67, 93
4, 26784, Note_off_c, 2, 67, 0
4, 26784, Note_on_c, 2, 69, 93
4, 26832, Note_off_c, 2, 69, 0
4, 26832, Note_on_c, 2, 66, 93
4, 26880, Note_off_c, 2, 66, 0
4, 26880, Note_on_c, 2, 67, 93
4, 26928, Note_off_c, 2, 67, 0
4, 27072, Note_on_c, 2, 68, 93
4, 27120, Note_off_c, 2, 68, 0
4, 27168, Note_on_c, 2, 64, 93
4, 27216, Note_off_c, 2, 64, 0
4, 27264, Note_on_c, 2, 69, 93
4, 27312, Note_off_c, 2, 69, 0
4, 27408, Note_on_c, 2, 62, 93
4, 27456, Note_off_c, 2, 62, 0
4, 27456, Note_on_c, 2, 64, 93
4, 27504, Note_off_c, 2, 64, 0
4, 27552, Note_on_c, 2, 64, 93
4, 27600, Note_off_c, 2, 64, 0
4, 27648, Note_on_c, 2, 64, 93
4, 27696, Note_off_c, 2, 64, 0
4, 27696, Note_on_c, 2, 69, 93
4, 27720, Note_off_c, 2, 69, 0
4, 27720, Note_on_c, 2, 68, 93
4, 27744, Note_off_c, 2, 68, 0
4, 27744, Note_on_c, 2, 69, 93
4, 27792, Note_off_c, 2, 69, 0
4, 27792, Note_on_c, 2, 64, 93
4, 27840, Note_off_c, 2, 64, 0
4, 27840, Note_on_c, 2, 66, 93
4, 27888, Note_off_c, 2, 66, 0
4, 27984, Note_on_c, 2, 66, 93
4, 28032, Note_off_c, 2, 66, 0
4, 28032, Note_on_c, 2, 62, 93
4, 28080, Note_off_c, 2, 62, 0
4, 28080, Note_on_c, 2, 67, 93
4, 28104, Note_off_c, 2, 67, 0
4, 28104, Note_on_c, 2, 66, 93
4, 28128, Note_off_c, 2, 66, 0
4, 28128, Note_on_c, 2, 67, 93
4, 28176, Note_off_c, 2, 67, 0
4, 28176, Note_on_c, 2, 62, 93
4, 28224, Note_off_c, 2, 62, 0
4, 28224, Note_on_c, 2, 64, 93
4, 28272, Note_off_c, 2, 64, 0
4, 28896, Note_on_c, 2, 64, 93
4, 28944, Note_off_c, 2, 64, 0
4, 28992, Note_on_c, 2, 65, 93
4, 29040, Note_off_c, 2, 65, 0
4, 29088, Note_on_c, 2, 66, 93
4, 29136, Note_off_c, 2, 66, 0
4, 29184, Note_on_c, 2, 67, 93
4, 29232, Note_off_c, 2, 67, 0
4, 29280, Note_on_c, 2, 64, 93
4, 29328, Note_off_c, 2, 64, 0
4, 29376, Note_on_c, 2, 69, 93
4, 29424, Note_off_c, 2, 69, 0
4, 29472, Note_on_c, 2, 64, 93
4, 29520, Note_off_c, 2, 64, 0
4, 29568, Note_on_c, 2, 69, 93
4, 29616, Note_off_c, 2, 69, 0
4, 29616, Note_on_c, 2, 74, 93
4, 29640, Note_off_c, 2, 74, 0
4, 29640, Note_on_c, 2, 76, 93
4, 29664, Note_off_c, 2, 76, 0
4, 29664, Note_on_c, 2, 74, 93
4, 29712, Note_off_c, 2, 74, 0
4, 29712, Note_on_c, 2, 72, 93
4, 29760, Note_off_c, 2, 72, 0
4, 29760, Note_on_c, 2, 71, 93
4, 29808, Note_off_c, 2, 71, 0
4, 29808, Note_on_c, 2, 76, 93
4, 29832, Note_off_c, 2, 76, 0
4, 29832, Note_on_c, 2, 77, 93
4, 29856, Note_off_c, 2, 77, 0
4, 29856, Note_on_c, 2, 76, 93
4, 29904, Note_off_c, 2, 76, 0
4, 29904, Note_on_c, 2, 74, 93
4, 29952, Note_off_c, 2, 74, 0
4, 29952, Note_on_c, 2, 72, 93
4, 30000, Note_off_c, 2, 72, 0
4, 30000, Note_on_c, 2, 74, 93
4, 30048, Note_off_c, 2, 74, 0
4, 30048, Note_on_c, 2, 76, 93
4, 30096, Note_off_c, 2, 76, 0
4, 30096, Note_on_c, 2, 64, 93
4, 30144, Note_off_c, 2, 64, 0
4, 30144, Note_on_c, 2, 62, 93
4, 30192, Note_off_c, 2, 62, 0
4, 30192, Note_on_c, 2, 76, 93
4, 30240, Note_off_c, 2, 76, 0
4, 30240, Note_on_c, 2, 74, 93
4, 30288, Note_off_c, 2, 74, 0
4, 30288, Note_on_c, 2, 72, 93
4, 30336, Note_off_c, 2, 72, 0
4, 30336, Note_on_c, 2, 71, 93
4, 30384, Note_off_c, 2, 71, 0
4, 30384, Note_on_c, 2, 72, 93
4, 30432, Note_off_c, 2, 72, 0
4, 30432, Note_on_c, 2, 74, 93
4, 30480, Note_off_c, 2, 74, 0
4, 30480, Note_on_c, 2, 64, 93
4, 30528, Note_off_c, 2, 64, 0
4, 30528, Note_on_c, 2, 57, 93
4, 30576, Note_off_c, 2, 57, 0
4, 30576, Note_on_c, 2, 74, 93
4, 30624, Note_off_c, 2, 74, 0
4, 30624, Note_on_c, 2, 72, 93
4, 30672, Note_off_c, 2, 72, 0
4, 30672, Note_on_c, 2, 71, 93
4, 30720, Note_off_c, 2, 71, 0
4, 30720, Note_on_c, 2, 69, 93
4, 30768, Note_off_c, 2, 69, 0
4, 30768, Note_on_c, 2, 71, 93
4, 30816, Note_off_c, 2, 71, 0
4, 30816, Note_on_c, 2, 72, 93
4, 30864, Note_off_c, 2, 72, 0
4, 30864, Note_on_c, 2, 62, 93
4, 30912, Note_off_c, 2, 62, 0
4, 30912, Note_on_c, 2, 55, 93
4, 30960, Note_off_c, 2, 55, 0
4, 30960, Note_on_c, 2, 71, 93
4, 30984, Note_off_c, 2, 71, 0
4, 30984, Note_on_c, 2, 69, 93
4, 31008, Note_off_c, 2, 69, 0
4, 31008, Note_on_c, 2, 71, 93
4, 31056, Note_off_c, 2, 71, 0
4, 31056, Note_on_c, 2, 65, 93
4, 31104, Note_off_c, 2, 65, 0
4, 31104, Note_on_c, 2, 64, 93
4, 31152, Note_off_c, 2, 64, 0
4, 31200, Note_on_c, 2, 67, 93
4, 31248, Note_off_c, 2, 67, 0
4, 31296, Note_on_c, 2, 67, 93
4, 31344, Note_off_c, 2, 67, 0
4, 31344, Note_on_c, 2, 69, 93
4, 31392, Note_off_c, 2, 69, 0
4, 31392, Note_on_c, 2, 70, 93
4, 31440, Note_off_c, 2, 70, 0
4, 31440, Note_on_c, 2, 61, 93
4, 31488, Note_off_c, 2, 61, 0
4, 31488, Note_on_c, 2, 62, 93
4, 31536, Note_off_c, 2, 62, 0
4, 31680, Note_on_c, 2, 62, 93
4, 31728, Note_off_c, 2, 62, 0
4, 31824, Note_on_c, 2, 67, 93
4, 31872, Note_off_c, 2, 67, 0
4, 31872, Note_on_c, 2, 67, 93
4, 31920, Note_off_c, 2, 67, 0
4, 32256, Note_on_c, 2, 66, 93
4, 32280, Note_off_c, 2, 66, 0
4, 32832, Note_on_c, 2, 71, 93
4, 32880, Note_off_c, 2, 71, 0
4, 33024, Note_on_c, 2, 64, 93
4, 33072, Note_off_c, 2, 64, 0
4, 33360, Note_on_c, 2, 75, 93
4, 33408, Note_off_c, 2, 75, 0
4, 33408, Note_on_c, 2, 71, 93
4, 33456, Note_off_c, 2, 71, 0
4, 36240, Note_on_c, 2, 71, 93
4, 36288, Note_off_c, 2, 71, 0
4, 36288, Note_on_c, 2, 73, 93
4, 36336, Note_off_c, 2, 73, 0
4, 36336, Note_on_c, 2, 69, 93
4, 36384, Note_off_c, 2, 69, 0
4, 36384, Note_on_c, 2, 70, 93
4, 36432, Note_off_c, 2, 70, 0
4, 36432, Note_on_c, 2, 67, 93
4, 36480, Note_off_c, 2, 67, 0
4, 36480, Note_on_c, 2, 65, 93
4, 36504, Note_off_c, 2, 65, 0
4, 36504, Note_on_c, 2, 64, 93
4, 36528, Note_off_c, 2, 64, 0
4, 36528, Note_on_c, 2, 62, 93
4, 36552, Note_off_c, 2, 62, 0
4, 36552, Note_on_c, 2, 64, 93
4, 36576, Note_off_c, 2, 64, 0
4, 36576, Note_on_c, 2, 65, 93
4, 36600, Note_off_c, 2, 65, 0
4, 36600, Note_on_c, 2, 69, 93
4, 36624, Note_off_c, 2, 69, 0
4, 36624, Note_on_c, 2, 74, 93
4, 36648, Note_off_c, 2, 74, 0
4, 36648, Note_on_c, 2, 77, 93
4, 36672, Note_off_c, 2, 77, 0
4, 36672, Note_on_c, 2, 77, 93
4, 36720, Note_off_c, 2, 77, 0
4, 36768, Note_on_c, 2, 71, 93
4, 36864, Note_off_c, 2, 71, 0
4, 36864, Note_on_c, 2, 72, 93
4, 36912, Note_off_c, 2, 72, 0
4, 37632, Note_on_c, 2, 64, 93
4, 37680, Note_off_c, 2, 64, 0
4, 37776, Note_on_c, 2, 60, 93
4, 37824, Note_off_c, 2, 60, 0
4, 37824, Note_on_c, 2, 65, 93
4, 37872, Note_off_c, 2, 65, 0
4, 37920, Note_on_c, 2, 65, 93
4, 37968, Note_off_c, 2, 65, 0
4, 38016, Note_on_c, 2, 65, 93
4, 38064, Note_off_c, 2, 65, 0
4, 38112, Note_on_c, 2, 65, 93
4, 38160, Note_off_c, 2, 65, 0
4, 38208, Note_on_c, 2, 67, 93
4, 38256, Note_off_c, 2, 67, 0
4, 38256, Note_on_c, 2, 58, 93
4, 38280, Note_off_c, 2, 58, 0
4, 38280, Note_on_c, 2, 57, 93
4, 38304, Note_off_c, 2, 57, 0
4, 38304, Note_on_c, 2, 58, 93
4, 38352, Note_off_c, 2, 58, 0
4, 38352, Note_on_c, 2, 67, 93
4, 38400, Note_off_c, 2, 67, 0
4, 38400, Note_on_c, 2, 69, 93
4, 38448, Note_off_c, 2, 69, 0
4, 38448, Note_on_c, 2, 57, 93
4, 38472, Note_off_c, 2, 57, 0
4, 38472, Note_on_c, 2, 55, 93
4, 38496, Note_off_c, 2, 55, 0
4, 38496, Note_on_c, 2, 57, 93
4, 38544, Note_off_c, 2, 57, 0
4, 38544, Note_on_c, 2, 69, 93
4, 38592, Note_off_c, 2, 69, 0
4, 38592, Note_on_c, 2, 64, 93
4, 38640, Note_off_c, 2, 64, 0
4, 38736, Note_on_c, 2, 64, 93
4, 38784, Note_off_c, 2, 64, 0
4, 38784, Note_on_c, 2, 65, 93
4, 38832, Note_off_c, 2, 65, 0
4, 38832, Note_on_c, 2, 76, 93
4, 38880, Note_off_c, 2, 76, 0
4, 38880, Note_on_c, 2, 74, 93
4, 38928, Note_off_c, 2, 74, 0
4, 38928, Note_on_c, 2, 72, 93
4, 38976, Note_off_c, 2, 72, 0
4, 38976, Note_on_c, 2, 70, 93
4, 39024, Note_off_c, 2, 70, 0
4, 39072, Note_on_c, 2, 71, 93
4, 39120, Note_off_c, 2, 71, 0
4, 39168, Note_on_c, 2, 72, 93
4, 39216, Note_off_c, 2, 72, 0
4, 42240, Note_on_c, 2, 64, 93
4, 42288, Note_off_c, 2, 64, 0
4, 42384, Note_on_c, 2, 67, 93
4, 42432, Note_off_c, 2, 67, 0
4, 42432, Note_on_c, 2, 65, 93
4, 42480, Note_off_c, 2, 65, 0
4, 42528, Note_on_c, 2, 69, 93
4, 42576, Note_off_c, 2, 69, 0
4, 42624, Note_on_c, 2, 69, 93
4, 42672, Note_off_c, 2, 69, 0
4, 42768, Note_on_c, 2, 69, 93
4, 42816, Note_off_c, 2, 69, 0
4, 42816, Note_on_c, 2, 70, 93
4, 42864, Note_off_c, 2, 70, 0
4, 43008, Note_on_c, 2, 58, 93
4, 43056, Note_off_c, 2, 58, 0
4, 43968, Note_on_c, 2, 61, 93
4, 44016, Note_off_c, 2, 61, 0
4, 44064, Note_on_c, 2, 62, 93
4, 44112, Note_off_c, 2, 62, 0
4, 44112, Note_on_c, 2, 55, 93
4, 44160, Note_off_c, 2, 55, 0
4, 44160, Note_on_c, 2, 57, 93
4, 44208, Note_off_c, 2, 57, 0
4, 44256, Note_on_c, 2, 57, 93
4, 44304, Note_off_c, 2, 57, 0
4, 44352, Note_on_c, 2, 62, 93
4, 44400, Note_off_c, 2, 62, 0
4, 44448, Note_on_c, 2, 62, 93
4, 44544, Note_off_c, 2, 62, 0
4, 44544, Note_on_c, 2, 61, 93
4, 44640, Note_off_c, 2, 61, 0
4, 44640, Note_on_c, 2, 60, 93
4, 44736, Note_off_c, 2, 60, 0
4, 44736, Note_on_c, 2, 59, 93
4, 44784, Note_off_c, 2, 59, 0
4, 44784, Note_on_c, 2, 59, 93
4, 44808, Note_off_c, 2, 59, 0
4, 44808, Note_on_c, 2, 57, 93
4, 44832, Note_off_c, 2, 57, 0
4, 44832, Note_on_c, 2, 59, 93
4, 44880, Note_off_c, 2, 59, 0
4, 44880, Note_on_c, 2, 61, 93
4, 44928, Note_off_c, 2, 61, 0
4, 44928, Note_on_c, 2, 62, 93
4, 44976, Note_off_c, 2, 62, 0
4, 44976, Note_on_c, 2, 57, 93
4, 45000, Note_off_c, 2, 57, 0
4, 45000, Note_on_c, 2, 55, 93
4, 45024, Note_off_c, 2, 55, 0
4, 45024, Note_on_c, 2, 57, 93
4, 45072, Note_off_c, 2, 57, 0
4, 45072, Note_on_c, 2, 59, 93
4, 45120, Note_off_c, 2, 59, 0
4, 45120, Note_on_c, 2, 60, 93
4, 45216, Note_off_c, 2, 60, 0
4, 45216, Note_on_c, 2, 60, 93
4, 45312, Note_off_c, 2, 60, 0
4, 45312, Note_on_c, 2, 59, 93
4, 45408, Note_off_c, 2, 59, 0
4, 45408, Note_on_c, 2, 58, 93
4, 45504, Note_off_c, 2, 58, 0
4, 45504, Note_on_c, 2, 57, 93
4, 45552, Note_off_c, 2, 57, 0
4, 45552, Note_on_c, 2, 57, 93
4, 45576, Note_off_c, 2, 57, 0
4, 45576, Note_on_c, 2, 55, 93
4, 45600, Note_off_c, 2, 55, 0
4, 45600, Note_on_c, 2, 57, 93
4, 45648, Note_off_c, 2, 57, 0
4, 45648, Note_on_c, 2, 59, 93
4, 45696, Note_off_c, 2, 59, 0
4, 45696, Note_on_c, 2, 60, 93
4, 45744, Note_off_c, 2, 60, 0
4, 45744, Note_on_c, 2, 55, 93
4, 45768, Note_off_c, 2, 55, 0
4, 45768, Note_on_c, 2, 57, 93
4, 45792, Note_off_c, 2, 57, 0
4, 45792, Note_on_c, 2, 55, 93
4, 45840, Note_off_c, 2, 55, 0
4, 45840, Note_on_c, 2, 57, 93
4, 45888, Note_off_c, 2, 57, 0
4, 45888, Note_on_c, 2, 58, 93
4, 45936, Note_off_c, 2, 58, 0
4, 45984, Note_on_c, 2, 62, 93
4, 46080, Note_off_c, 2, 62, 0
4, 46080, Note_on_c, 2, 63, 93
4, 46176, Note_off_c, 2, 63, 0
4, 46176, Note_on_c, 2, 64, 93
4, 46272, Note_off_c, 2, 64, 0
4, 46272, Note_on_c, 2, 65, 93
4, 46320, Note_off_c, 2, 65, 0
4, 46320, Note_on_c, 2, 65, 93
4, 46344, Note_off_c, 2, 65, 0
4, 46344, Note_on_c, 2, 67, 93
4, 46368, Note_off_c, 2, 67, 0
4, 46368, Note_on_c, 2, 65, 93
4, 46416, Note_off_c, 2, 65, 0
4, 46416, Note_on_c, 2, 63, 93
4, 46464, Note_off_c, 2, 63, 0
4, 46464, Note_on_c, 2, 62, 93
4, 46512, Note_off_c, 2, 62, 0
4, 46512, Note_on_c, 2, 67, 93
4, 46536, Note_off_c, 2, 67, 0
4, 46536, Note_on_c, 2, 69, 93
4, 46560, Note_off_c, 2, 69, 0
4, 46560, Note_on_c, 2, 67, 93
4, 46608, Note_off_c, 2, 67, 0
4, 46608, Note_on_c, 2, 65, 93
4, 46656, Note_off_c, 2, 65, 0
4, 46656, Note_on_c, 2, 64, 93
4, 46752, Note_off_c, 2, 64, 0
4, 46752, Note_on_c, 2, 64, 93
4, 46848, Note_off_c, 2, 64, 0
4, 46848, Note_on_c, 2, 65, 93
4, 46944, Note_off_c, 2, 65, 0
4, 46944, Note_on_c, 2, 66, 93
4, 47040, Note_off_c, 2, 66, 0
4, 47040, Note_on_c, 2, 67, 93
4, 47088, Note_off_c, 2, 67, 0
4, 47088, Note_on_c, 2, 67, 93
4, 47112, Note_off_c, 2, 67, 0
4, 47112, Note_on_c, 2, 69, 93
4, 47136, Note_off_c, 2, 69, 0
4, 47136, Note_on_c, 2, 67, 93
4, 47184, Note_off_c, 2, 67, 0
4, 47184, Note_on_c, 2, 65, 93
4, 47232, Note_off_c, 2, 65, 0
4, 47232, Note_on_c, 2, 64, 93
4, 47280, Note_off_c, 2, 64, 0
4, 47280, Note_on_c, 2, 69, 93
4, 47304, Note_off_c, 2, 69, 0
4, 47304, Note_on_c, 2, 70, 93
4, 47328, Note_off_c, 2, 70, 0
4, 47328, Note_on_c, 2, 69, 93
4, 47376, Note_off_c, 2, 69, 0
4, 47376, Note_on_c, 2, 67, 93
4, 47424, Note_off_c, 2, 67, 0
4, 47424, Note_on_c, 2, 65, 93
4, 47472, Note_off_c, 2, 65, 0
4, 47616, Note_on_c, 2, 66, 93
4, 47664, Note_off_c, 2, 66, 0
4, 47712, Note_on_c, 2, 62, 93
4, 47760, Note_off_c, 2, 62, 0
4, 47808, Note_on_c, 2, 67, 93
4, 47856, Note_off_c, 2, 67, 0
4, 48000, Note_on_c, 2, 64, 93
4, 48048, Note_off_c, 2, 64, 0
4, 48096, Note_on_c, 2, 60, 93
4, 48144, Note_off_c, 2, 60, 0
4, 48192, Note_on_c, 2, 65, 93
4, 48240, Note_off_c, 2, 65, 0
4, 48240, Note_on_c, 2, 69, 93
4, 48264, Note_off_c, 2, 69, 0
4, 48264, Note_on_c, 2, 67, 93
4, 48288, Note_off_c, 2, 67, 0
4, 48288, Note_on_c, 2, 65, 93
4, 48336, Note_off_c, 2, 65, 0
4, 48336, Note_on_c, 2, 63, 93
4, 48384, Note_off_c, 2, 63, 0
4, 48384, Note_on_c, 2, 62, 93
4, 48432, Note_off_c, 2, 62, 0
4, 48432, Note_on_c, 2, 70, 93
4, 48480, Note_off_c, 2, 70, 0
4, 48480, Note_on_c, 2, 60, 93
4, 48528, Note_off_c, 2, 60, 0
4, 48528, Note_on_c, 2, 69, 93
4, 48576, Note_off_c, 2, 69, 0
4, 48576, Note_on_c, 2, 58, 93
4, 48624, Note_off_c, 2, 58, 0
4, 48624, Note_on_c, 2, 70, 93
4, 48648, Note_off_c, 2, 70, 0
4, 48648, Note_on_c, 2, 69, 93
4, 48672, Note_off_c, 2, 69, 0
4, 48672, Note_on_c, 2, 67, 93
4, 48720, Note_off_c, 2, 67, 0
4, 48720, Note_on_c, 2, 65, 93
4, 48768, Note_off_c, 2, 65, 0
4, 48768, Note_on_c, 2, 64, 93
4, 48816, Note_off_c, 2, 64, 0
4, 48816, Note_on_c, 2, 72, 93
4, 48864, Note_off_c, 2, 72, 0
4, 48864, Note_on_c, 2, 62, 93
4, 48912, Note_off_c, 2, 62, 0
4, 48912, Note_on_c, 2, 71, 93
4, 48960, Note_off_c, 2, 71, 0
4, 48960, Note_on_c, 2, 60, 93
4, 49008, Note_off_c, 2, 60, 0
4, 49008, Note_on_c, 2, 72, 93
4, 49032, Note_off_c, 2, 72, 0
4, 49032, Note_on_c, 2, 74, 93
4, 49056, Note_off_c, 2, 74, 0
4, 49056, Note_on_c, 2, 76, 93
4, 49104, Note_off_c, 2, 76, 0
4, 49104, Note_on_c, 2, 74, 93
4, 49152, Note_off_c, 2, 74, 0
4, 49152, Note_on_c, 2, 73, 93
4, 49200, Note_off_c, 2, 73, 0
4, 49248, Note_on_c, 2, 73, 93
4, 49296, Note_off_c, 2, 73, 0
4, 49344, Note_on_c, 2, 69, 93
4, 49392, Note_off_c, 2, 69, 0
4, 49440, Note_on_c, 2, 69, 93
4, 49488, Note_off_c, 2, 69, 0
4, 49536, Note_on_c, 2, 68, 93
4, 49584, Note_off_c, 2, 68, 0
4, 50112, Note_on_c, 2, 64, 93
4, 50160, Note_off_c, 2, 64, 0
4, 50304, Note_on_c, 2, 64, 93
4, 50352, Note_off_c, 2, 64, 0
4, 50496, Note_on_c, 2, 64, 93
4, 50592, Note_off_c, 2, 64, 0
4, 50640, Note_on_c, 2, 62, 93
4, 50688, Note_off_c, 2, 62, 0
4, 50688, Note_on_c, 2, 61, 93
4, 50712, Note_off_c, 2, 61, 0
4, 50784, Note_on_c, 2, 74, 93
4, 50832, Note_off_c, 2, 74, 0
4, 50832, Note_on_c, 2, 60, 93
4, 50880, Note_off_c, 2, 60, 0
4, 50880, Note_on_c, 2, 59, 93
4, 50928, Note_off_c, 2, 59, 0
4, 50928, Note_on_c, 2, 74, 93
4, 50976, Note_off_c, 2, 74, 0
4, 50976, Note_on_c, 2, 72, 93
4, 51024, Note_off_c, 2, 72, 0
4, 51024, Note_on_c, 2, 59, 93
4, 51072, Note_off_c, 2, 59, 0
4, 51072, Note_on_c, 2, 57, 93
4, 51096, Note_off_c, 2, 57, 0
4, 51216, Note_on_c, 2, 57, 93
4, 51264, Note_off_c, 2, 57, 0
4, 51264, Note_on_c, 2, 56, 93
4, 51312, Note_off_c, 2, 56, 0
4, 51360, Note_on_c, 2, 69, 93
4, 51408, Note_off_c, 2, 69, 0
4, 51408, Note_on_c, 2, 57, 93
4, 51456, Note_off_c, 2, 57, 0
4, 51456, Note_on_c, 2, 62, 93
4, 51504, Note_off_c, 2, 62, 0
4, 51600, Note_on_c, 2, 65, 93
4, 51648, Note_off_c, 2, 65, 0
4, 51648, Note_on_c, 2, 65, 93
4, 51696, Note_off_c, 2, 65, 0
4, 51696, Note_on_c, 2, 70, 93
4, 51744, Note_off_c, 2, 70, 0
4, 51744, Note_on_c, 2, 70, 93
4, 51792, Note_off_c, 2, 70, 0
4, 51792, Note_on_c, 2, 74, 93
4, 51840, Note_off_c, 2, 74, 0
4, 51840, Note_on_c, 2, 74, 93
4, 51888, Note_off_c, 2, 74, 0
4, 51936, Note_on_c, 2, 72, 93
4, 51984, Note_off_c, 2, 72, 0
4, 51984, Note_on_c, 2, 71, 93
4, 52008, Note_off_c, 2, 71, 0
4, 52008, Note_on_c, 2, 69, 93
4, 52032, Note_off_c, 2, 69, 0
4, 52032, Note_on_c, 2, 71, 93
4, 52080, Note_off_c, 2, 71, 0
4, 52176, Note_on_c, 2, 74, 93
4, 52224, Note_off_c, 2, 74, 0
4, 52224, Note_on_c, 2, 72, 93
4, 52272, Note_off_c, 2, 72, 0
4, 52320, Note_on_c, 2, 73, 93
4, 52368, Note_off_c, 2, 73, 0
4, 52416, Note_on_c, 2, 74, 93
4, 52464, Note_off_c, 2, 74, 0
4, 52512, Note_on_c, 2, 73, 93
4, 52560, Note_off_c, 2, 73, 0
4, 52608, Note_on_c, 2, 69, 93
4, 52656, Note_off_c, 2, 69, 0
4, 52656, Note_on_c, 2, 67, 93
4, 52704, Note_off_c, 2, 67, 0
4, 52704, Note_on_c, 2, 67, 93
4, 52752, Note_off_c, 2, 67, 0
4, 52752, Note_on_c, 2, 65, 93
4, 52800, Note_off_c, 2, 65, 0
4, 52800, Note_on_c, 2, 65, 93
4, 52848, Note_off_c, 2, 65, 0
4, 52848, Note_on_c, 2, 69, 93
4, 52872, Note_off_c, 2, 69, 0
4, 52872, Note_on_c, 2, 67, 93
4, 52896, Note_off_c, 2, 67, 0
4, 52896, Note_on_c, 2, 65, 93
4, 52944, Note_off_c, 2, 65, 0
4, 52944, Note_on_c, 2, 64, 93
4, 52992, Note_off_c, 2, 64, 0
4, 52992, Note_on_c, 2, 62, 93
4, 53088, Note_off_c, 2, 62, 0
4, 53136, Note_on_c, 2, 62, 93
4, 53184, Note_off_c, 2, 62, 0
4, 53184, Note_on_c, 2, 62, 93
4, 53232, Note_off_c, 2, 62, 0
4, 53232, Note_on_c, 2, 59, 93
4, 53280, Note_off_c, 2, 59, 0
4, 53280, Note_on_c, 2, 60, 93
4, 53328, Note_off_c, 2, 60, 0
4, 53328, Note_on_c, 2, 62, 93
4, 53376, Note_off_c, 2, 62, 0
4, 53376, Note_on_c, 2, 64, 93
4, 53424, Note_off_c, 2, 64, 0
4, 53424, Note_on_c, 2, 62, 93
4, 53472, Note_off_c, 2, 62, 0
4, 53472, Note_on_c, 2, 64, 93
4, 53568, Note_off_c, 2, 64, 0
4, 53568, Note_on_c, 2, 69, 93
4, 53616, Note_off_c, 2, 69, 0
4, 53616, Note_on_c, 2, 57, 93
4, 53640, Note_off_c, 2, 57, 0
4, 53640, Note_on_c, 2, 59, 93
4, 53664, Note_off_c, 2, 59, 0
4, 53664, Note_on_c, 2, 57, 93
4, 53712, Note_off_c, 2, 57, 0
4, 53712, Note_on_c, 2, 69, 93
4, 53760, Note_off_c, 2, 69, 0
4, 53760, Note_on_c, 2, 64, 93
4, 53808, Note_off_c, 2, 64, 0
4, 53808, Note_on_c, 2, 60, 93
4, 53856, Note_off_c, 2, 60, 0
4, 53856, Note_on_c, 2, 62, 93
4, 53904, Note_off_c, 2, 62, 0
4, 53904, Note_on_c, 2, 59, 93
4, 53952, Note_off_c, 2, 59, 0
4, 53952, Note_on_c, 2, 60, 93
4, 54000, Note_off_c, 2, 60, 0
4, 54144, Note_on_c, 2, 60, 93
4, 54192, Note_off_c, 2, 60, 0
4, 54240, Note_on_c, 2, 59, 93
4, 54288, Note_off_c, 2, 59, 0
4, 54336, Note_on_c, 2, 57, 93
4, 54384, Note_off_c, 2, 57, 0
4, 54528, Note_on_c, 2, 57, 93
4, 54576, Note_off_c, 2, 57, 0
4, 54720, Note_on_c, 2, 62, 93
4, 54744, Note_off_c, 2, 62, 0
4, 55152, Note_on_c, 2, 72, 93
4, 55200, Note_off_c, 2, 72, 0
4, 55200, Note_on_c, 2, 71, 93
4, 55248, Note_off_c, 2, 71, 0
4, 55248, Note_on_c, 2, 74, 93
4, 55296, Note_off_c, 2, 74, 0
4, 55296, Note_on_c, 2, 73, 93
4, 55488, Note_off_c, 2, 73, 0
4, 55488, End_track
5, 0, Start_track
5, 0, Title_t, "Track5"
5, 0, Program_c, 3, 40
5, 0, Control_c, 3, 7, 100
5, 0, Control_c, 3, 10, 49
5, 1344, Note_on_c, 3, 71, 93
5, 1440, Note_off_c, 3, 71, 0
5, 1440, Note_on_c, 3, 71, 93
5, 1536, Note_off_c, 3, 71, 0
5, 1536, Note_on_c, 3, 71, 93
5, 1584, Note_off_c, 3, 71, 0
5, 1584, Note_on_c, 3, 76, 93
5, 1608, Note_off_c, 3, 76, 0
5, 1608, Note_on_c, 3, 75, 93
5, 1632, Note_off_c, 3, 75, 0
5, 1632, Note_on_c, 3, 76, 93
5, 1680, Note_off_c, 3, 76, 0
5, 1680, Note_on_c, 3, 71, 93
5, 1728, Note_off_c, 3, 71, 0
5, 1728, Note_on_c, 3, 73, 93
5, 1824, Note_off_c, 3, 73, 0
5, 1872, Note_on_c, 3, 73, 93
5, 1920, Note_off_c, 3, 73, 0
5, 1920, Note_on_c, 3, 62, 93
5, 2016, Note_off_c, 3, 62, 0
5, 2064, Note_on_c, 3, 62, 93
5, 2112, Note_off_c, 3, 62, 0
5, 2112, Note_on_c, 3, 67, 93
5, 2208, Note_off_c, 3, 67, 0
5, 2256, Note_on_c, 3, 67, 93
5, 2304, Note_off_c, 3, 67, 0
5, 2304, Note_on_c, 3, 67, 93
5, 2328, Note_off_c, 3, 67, 0
5, 3072, Note_on_c, 3, 64, 93
5, 3096, Note_off_c, 3, 64, 0
5, 3168, Note_on_c, 3, 65, 93
5, 3264, Note_off_c, 3, 65, 0
5, 3264, Note_on_c, 3, 64, 93
5, 3312, Note_off_c, 3, 64, 0
5, 3312, Note_on_c, 3, 71, 93
5, 3336, Note_off_c, 3, 71, 0
5, 3336, Note_on_c, 3, 69, 93
5, 3360, Note_off_c, 3, 69, 0
5, 3360, Note_on_c, 3, 71, 93
5, 3408, Note_off_c, 3, 71, 0
5, 3408, Note_on_c, 3, 73, 93
5, 3456, Note_off_c, 3, 73, 0
5, 3456, Note_on_c, 3, 74, 93
5, 3504, Note_off_c, 3, 74, 0
5, 3504, Note_on_c, 3, 69, 93
5, 3528, Note_off_c, 3, 69, 0
5, 3528, Note_on_c, 3, 67, 93
5, 3552, Note_off_c, 3, 67, 0
5, 3552, Note_on_c, 3, 69, 93
5, 3600, Note_off_c, 3, 69, 0
5, 3600, Note_on_c, 3, 71, 93
5, 3648, Note_off_c, 3, 71, 0
5, 3648, Note_on_c, 3, 72, 93
5, 3696, Note_off_c, 3, 72, 0
5, 3696, Note_on_c, 3, 72, 93
5, 3720, Note_off_c, 3, 72, 0
5, 3720, Note_on_c, 3, 71, 93
5, 3744, Note_off_c, 3, 71, 0
5, 3744, Note_on_c, 3, 72, 93
5, 3792, Note_off_c, 3, 72, 0
5, 3792, Note_on_c, 3, 74, 93
5, 3840, Note_off_c, 3, 74, 0
5, 3840, Note_on_c, 3, 76, 93
5, 3888, Note_off_c, 3, 76, 0
5, 3888, Note_on_c, 3, 71, 93
5, 3912, Note_off_c, 3, 71, 0
5, 3912, Note_on_c, 3, 69, 93
5, 3936, Note_off_c, 3, 69, 0
5, 3936, Note_on_c, 3, 71, 93
5, 3984, Note_off_c, 3, 71, 0
5, 3984, Note_on_c, 3, 73, 93
5, 4032, Note_off_c, 3, 73, 0
5, 4032, Note_on_c, 3, 74, 93
5, 4080, Note_off_c, 3, 74, 0
5, 4080, Note_on_c, 3, 74, 93
5, 4104, Note_off_c, 3, 74, 0
5, 4104, Note_on_c, 3, 73, 93
5, 4128, Note_off_c, 3, 73, 0
5, 4128, Note_on_c, 3, 74, 93
5, 4176, Note_off_c, 3, 74, 0
5, 4176, Note_on_c, 3, 76, 93
5, 4224, Note_off_c, 3, 76, 0
5, 4224, Note_on_c, 3, 78, 93
5, 4272, Note_off_c, 3, 78, 0
5, 4272, Note_on_c, 3, 73, 93
5, 4296, Note_off_c, 3, 73, 0
5, 4296, Note_on_c, 3, 71, 93
5, 4320, Note_off_c, 3, 71, 0
5, 4320, Note_on_c, 3, 73, 93
5, 4368, Note_off_c, 3, 73, 0
5, 4368, Note_on_c, 3, 75, 93
5, 4416, Note_off_c, 3, 75, 0
5, 4416, Note_on_c, 3, 76, 93
5, 4512, Note_off_c, 3, 76, 0
5, 4512, Note_on_c, 3, 76, 93
5, 4608, Note_off_c, 3, 76, 0
5, 4608, Note_on_c, 3, 75, 93
5, 4704, Note_off_c, 3, 75, 0
5, 4704, Note_on_c, 3, 74, 93
5, 4800, Note_off_c, 3, 74, 0
5, 4800, Note_on_c, 3, 72, 93
5, 4896, Note_off_c, 3, 72, 0
5, 4896, Note_on_c, 3, 77, 93
5, 4992, Note_off_c, 3, 77, 0
5, 4992, Note_on_c, 3, 76, 93
5, 5088, Note_off_c, 3, 76, 0
5, 5088, Note_on_c, 3, 75, 93
5, 5184, Note_off_c, 3, 75, 0
5, 5184, Note_on_c, 3, 74, 93
5, 5280, Note_off_c, 3, 74, 0
5, 5280, Note_on_c, 3, 79, 93
5, 5376, Note_off_c, 3, 79, 0
5, 5376, Note_on_c, 3, 78, 93
5, 5472, Note_off_c, 3, 78, 0
5, 5472, Note_on_c, 3, 77, 93
5, 5568, Note_off_c, 3, 77, 0
5, 5568, Note_on_c, 3, 76, 93
5, 5616, Note_off_c, 3, 76, 0
5, 5616, Note_on_c, 3, 81, 93
5, 5640, Note_off_c, 3, 81, 0
5, 5640, Note_on_c, 3, 80, 93
5, 5664, Note_off_c, 3, 80, 0
5, 5664, Note_on_c, 3, 81, 93
5, 5712, Note_off_c, 3, 81, 0
5, 5712, Note_on_c, 3, 69, 93
5, 5760, Note_off_c, 3, 69, 0
5, 5760, Note_on_c, 3, 62, 93
5, 5808, Note_off_c, 3, 62, 0
5, 5808, Note_on_c, 3, 84, 93
5, 5832, Note_off_c, 3, 84, 0
5, 5832, Note_on_c, 3, 81, 93
5, 5856, Note_off_c, 3, 81, 0
5, 5856, Note_on_c, 3, 79, 93
5, 5880, Note_off_c, 3, 79, 0
5, 5880, Note_on_c, 3, 78, 93
5, 5904, Note_off_c, 3, 78, 0
5, 5904, Note_on_c, 3, 76, 93
5, 5928, Note_off_c, 3, 76, 0
5, 5928, Note_on_c, 3, 74, 93
5, 5952, Note_off_c, 3, 74, 0
5, 5952, Note_on_c, 3, 74, 93
5, 6000, Note_off_c, 3, 74, 0
5, 6336, Note_on_c, 3, 65, 93
5, 6384, Note_off_c, 3, 65, 0
5, 6528, Note_on_c, 3, 64, 93
5, 6576, Note_off_c, 3, 64, 0
5, 6720, Note_on_c, 3, 62, 93
5, 6744, Note_off_c, 3, 62, 0
5, 6912, Note_on_c, 3, 62, 93
5, 6960, Note_off_c, 3, 62, 0
5, 7104, Note_on_c, 3, 62, 93
5, 7152, Note_off_c, 3, 62, 0
5, 7248, Note_on_c, 3, 63, 93
5, 7296, Note_off_c, 3, 63, 0
5, 7296, Note_on_c, 3, 64, 93
5, 7344, Note_off_c, 3, 64, 0
5, 7344, Note_on_c, 3, 76, 93
5, 7368, Note_off_c, 3, 76, 0
5, 7368, Note_on_c, 3, 75, 93
5, 7392, Note_off_c, 3, 75, 0
5, 7392, Note_on_c, 3, 76, 93
5, 7440, Note_off_c, 3, 76, 0
5, 7440, Note_on_c, 3, 64, 93
5, 7488, Note_off_c, 3, 64, 0
5, 7488, Note_on_c, 3, 64, 93
5, 7536, Note_off_c, 3, 64, 0
5, 7584, Note_on_c, 3, 69, 93
5, 7632, Note_off_c, 3, 69, 0
5, 7680, Note_on_c, 3, 67, 93
5, 7728, Note_off_c, 3, 67, 0
5, 7728, Note_on_c, 3, 67, 93
5, 7752, Note_off_c, 3, 67, 0
5, 7752, Note_on_c, 3, 65, 93
5, 7776, Note_off_c, 3, 65, 0
5, 7776, Note_on_c, 3, 67, 93
5, 7824, Note_off_c, 3, 67, 0
5, 7824, Note_on_c, 3, 64, 93
5, 7872, Note_off_c, 3, 64, 0
5, 7872, Note_on_c, 3, 65, 93
5, 7920, Note_off_c, 3, 65, 0
5, 8016, Note_on_c, 3, 65, 93
5, 8064, Note_off_c, 3, 65, 0
5, 8064, Note_on_c, 3, 68, 93
5, 8112, Note_off_c, 3, 68, 0
5, 8112, Note_on_c, 3, 77, 93
5, 8160, Note_off_c, 3, 77, 0
5, 8160, Note_on_c, 3, 76, 93
5, 8208, Note_off_c, 3, 76, 0
5, 8208, Note_on_c, 3, 74, 93
5, 8256, Note_off_c, 3, 74, 0
5, 8256, Note_on_c, 3, 72, 93
5, 8328, Note_off_c, 3, 72, 0
5, 8328, Note_on_c, 3, 74, 93
5, 8352, Note_off_c, 3, 74, 0
5, 8352, Note_on_c, 3, 71, 93
5, 8424, Note_off_c, 3, 71, 0
5, 8424, Note_on_c, 3, 69, 93
5, 8448, Note_off_c, 3, 69, 0
5, 8448, Note_on_c, 3, 69, 93
5, 8472, Note_off_c, 3, 69, 0
5, 8472, Note_on_c, 3, 76, 93
5, 8496, Note_off_c, 3, 76, 0
5, 8496, Note_on_c, 3, 72, 93
5, 8520, Note_off_c, 3, 72, 0
5, 8520, Note_on_c, 3, 69, 93
5, 8544, Note_off_c, 3, 69, 0
5, 8544, Note_on_c, 3, 68, 93
5, 8568, Note_off_c, 3, 68, 0
5, 8592, Note_on_c, 3, 69, 93
5, 8616, Note_off_c, 3, 69, 0
5, 8640, Note_on_c, 3, 64, 93
5, 8664, Note_off_c, 3, 64, 0
5, 8688, Note_on_c, 3, 65, 93
5, 8712, Note_off_c, 3, 65, 0
5, 8736, Note_on_c, 3, 64, 93
5, 8760, Note_off_c, 3, 64, 0
5, 8784, Note_on_c, 3, 62, 93
5, 8808, Note_off_c, 3, 62, 0
5, 8832, Note_on_c, 3, 64, 67
5, 8856, Note_off_c, 3, 64, 0
5, 8856, Note_on_c, 3, 76, 67
5, 8880, Note_off_c, 3, 76, 0
5, 8880, Note_on_c, 3, 72, 67
5, 8904, Note_off_c, 3, 72, 0
5, 8904, Note_on_c, 3, 69, 67
5, 8928, Note_off_c, 3, 69, 0
5, 8928, Note_on_c, 3, 68, 67
5, 8952, Note_off_c, 3, 68, 0
5, 8976, Note_on_c, 3, 69, 67
5, 9000, Note_off_c, 3, 69, 0
5, 9024, Note_on_c, 3, 64, 67
5, 9048, Note_off_c, 3, 64, 0
5, 9072, Note_on_c, 3, 65, 67
5, 9096, Note_off_c, 3, 65, 0
5, 9120, Note_on_c, 3, 64, 67
5, 9144, Note_off_c, 3, 64, 0
5, 9168, Note_on_c, 3, 62, 67
5, 9192, Note_off_c, 3, 62, 0
5, 9216, Note_on_c, 3, 64, 67
5, 9240, Note_off_c, 3, 64, 0
5, 9264, Note_on_c, 3, 68, 93
5, 9288, Note_off_c, 3, 68, 0
5, 9312, Note_on_c, 3, 71, 93
5, 9336, Note_off_c, 3, 71, 0
5, 9360, Note_on_c, 3, 68, 93
5, 9384, Note_off_c, 3, 68, 0
5, 9408, Note_on_c, 3, 62, 93
5, 9432, Note_off_c, 3, 62, 0
5, 9456, Note_on_c, 3, 68, 67
5, 9480, Note_off_c, 3, 68, 0
5, 9504, Note_on_c, 3, 71, 67
5, 9528, Note_off_c, 3, 71, 0
5, 9552, Note_on_c, 3, 68, 67
5, 9576, Note_off_c, 3, 68, 0
5, 9600, Note_on_c, 3, 64, 67
5, 9624, Note_off_c, 3, 64, 0
5, 9624, Note_on_c, 3, 76, 93
5, 9648, Note_off_c, 3, 76, 0
5, 9648, Note_on_c, 3, 72, 93
5, 9672, Note_off_c, 3, 72, 0
5, 9672, Note_on_c, 3, 69, 93
5, 9696, Note_off_c, 3, 69, 0
5, 9696, Note_on_c, 3, 68, 93
5, 9720, Note_off_c, 3, 68, 0
5, 9744, Note_on_c, 3, 69, 93
5, 9768, Note_off_c, 3, 69, 0
5, 9792, Note_on_c, 3, 63, 67
5, 9816, Note_off_c, 3, 63, 0
5, 9816, Note_on_c, 3, 78, 67
5, 9840, Note_off_c, 3, 78, 0
5, 9840, Note_on_c, 3, 72, 67
5, 9864, Note_off_c, 3, 72, 0
5, 9864, Note_on_c, 3, 69, 67
5, 9888, Note_off_c, 3, 69, 0
5, 9888, Note_on_c, 3, 68, 67
5, 9912, Note_off_c, 3, 68, 0
5, 9936, Note_on_c, 3, 63, 67
5, 9960, Note_off_c, 3, 63, 0
5, 9984, Note_on_c, 3, 64, 67
5, 10008, Note_off_c, 3, 64, 0
5, 10008, Note_on_c, 3, 83, 93
5, 10032, Note_off_c, 3, 83, 0
5, 10032, Note_on_c, 3, 79, 93
5, 10056, Note_off_c, 3, 79, 0
5, 10056, Note_on_c, 3, 76, 93
5, 10080, Note_off_c, 3, 76, 0
5, 10080, Note_on_c, 3, 75, 93
5, 10104, Note_off_c, 3, 75, 0
5, 10128, Note_on_c, 3, 76, 93
5, 10152, Note_off_c, 3, 76, 0
5, 10176, Note_on_c, 3, 71, 93
5, 10200, Note_off_c, 3, 71, 0
5, 10224, Note_on_c, 3, 72, 93
5, 10248, Note_off_c, 3, 72, 0
5, 10272, Note_on_c, 3, 71, 93
5, 10296, Note_off_c, 3, 71, 0
5, 10320, Note_on_c, 3, 69, 93
5, 10344, Note_off_c, 3, 69, 0
5, 10368, Note_on_c, 3, 71, 67
5, 10392, Note_off_c, 3, 71, 0
5, 13536, Note_on_c, 3, 64, 93
5, 13584, Note_off_c, 3, 64, 0
5, 13584, Note_on_c, 3, 64, 93
5, 13632, Note_off_c, 3, 64, 0
5, 13632, Note_on_c, 3, 64, 93
5, 13680, Note_off_c, 3, 64, 0
5, 15744, Note_on_c, 3, 67, 93
5, 15792, Note_off_c, 3, 67, 0
5, 17424, Note_on_c, 3, 67, 93
5, 17472, Note_off_c, 3, 67, 0
5, 17472, Note_on_c, 3, 67, 93
5, 17520, Note_off_c, 3, 67, 0
5, 17664, Note_on_c, 3, 72, 93
5, 17712, Note_off_c, 3, 72, 0
5, 17760, Note_on_c, 3, 72, 93
5, 17808, Note_off_c, 3, 72, 0
5, 17856, Note_on_c, 3, 71, 93
5, 17880, Note_off_c, 3, 71, 0
5, 17880, Note_on_c, 3, 72, 93
5, 17904, Note_off_c, 3, 72, 0
5, 17904, Note_on_c, 3, 74, 93
5, 17928, Note_off_c, 3, 74, 0
5, 17928, Note_on_c, 3, 76, 93
5, 17952, Note_off_c, 3, 76, 0
5, 17952, Note_on_c, 3, 77, 93
5, 17976, Note_off_c, 3, 77, 0
5, 17976, Note_on_c, 3, 79, 93
5, 18000, Note_off_c, 3, 79, 0
5, 18000, Note_on_c, 3, 81, 93
5, 18024, Note_off_c, 3, 81, 0
5, 18024, Note_on_c, 3, 77, 93
5, 18048, Note_off_c, 3, 77, 0
5, 18048, Note_on_c, 3, 79, 93
5, 18072, Note_off_c, 3, 79, 0
5, 18072, Note_on_c, 3, 81, 93
5, 18096, Note_off_c, 3, 81, 0
5, 18096, Note_on_c, 3, 79, 93
5, 18120, Note_off_c, 3, 79, 0
5, 18120, Note_on_c, 3, 77, 93
5, 18144, Note_off_c, 3, 77, 0
5, 18144, Note_on_c, 3, 76, 93
5, 18168, Note_off_c, 3, 76, 0
5, 18168, Note_on_c, 3, 74, 93
5, 18192, Note_off_c, 3, 74, 0
5, 18192, Note_on_c, 3, 72, 93
5, 18216, Note_off_c, 3, 72, 0
5, 18216, Note_on_c, 3, 76, 93
5, 18240, Note_off_c, 3, 76, 0
5, 18240, Note_on_c, 3, 69, 93
5, 18264, Note_off_c, 3, 69, 0
5, 18264, Note_on_c, 3, 71, 93
5, 18288, Note_off_c, 3, 71, 0
5, 18288, Note_on_c, 3, 72, 93
5, 18312, Note_off_c, 3, 72, 0
5, 18312, Note_on_c, 3, 74, 93
5, 18336, Note_off_c, 3, 74, 0
5, 18336, Note_on_c, 3, 76, 93
5, 18360, Note_off_c, 3, 76, 0
5, 18360, Note_on_c, 3, 77, 93
5, 18384, Note_off_c, 3, 77, 0
5, 18384, Note_on_c, 3, 79, 93
5, 18408, Note_off_c, 3, 79, 0
5, 18408, Note_on_c, 3, 76, 93
5, 18432, Note_off_c, 3, 76, 0
5, 18432, Note_on_c, 3, 77, 93
5, 18456, Note_off_c, 3, 77, 0
5, 18456, Note_on_c, 3, 79, 93
5, 18480, Note_off_c, 3, 79, 0
5, 18480, Note_on_c, 3, 77, 93
5, 18504, Note_off_c, 3, 77, 0
5, 18504, Note_on_c, 3, 76, 93
5, 18528, Note_off_c, 3, 76, 0
5, 18528, Note_on_c, 3, 74, 93
5, 18552, Note_off_c, 3, 74, 0
5, 18552, Note_on_c, 3, 72, 93
5, 18576, Note_off_c, 3, 72, 0
5, 18576, Note_on_c, 3, 71, 93
5, 18600, Note_off_c, 3, 71, 0
5, 18600, Note_on_c, 3, 74, 93
5, 18624, Note_off_c, 3, 74, 0
5, 18624, Note_on_c, 3, 67, 93
5, 18648, Note_off_c, 3, 67, 0
5, 18648, Note_on_c, 3, 69, 93
5, 18672, Note_off_c, 3, 69, 0
5, 18672, Note_on_c, 3, 71, 93
5, 18696, Note_off_c, 3, 71, 0
5, 18696, Note_on_c, 3, 72, 93
5, 18720, Note_off_c, 3, 72, 0
5, 18720, Note_on_c, 3, 74, 93
5, 18744, Note_off_c, 3, 74, 0
5, 18744, Note_on_c, 3, 76, 93
5, 18768, Note_off_c, 3, 76, 0
5, 18768, Note_on_c, 3, 77, 93
5, 18792, Note_off_c, 3, 77, 0
5, 18792, Note_on_c, 3, 74, 93
5, 18816, Note_off_c, 3, 74, 0
5, 18816, Note_on_c, 3, 76, 93
5, 18864, Note_off_c, 3, 76, 0
5, 18960, Note_on_c, 3, 76, 93
5, 19008, Note_off_c, 3, 76, 0
5, 19008, Note_on_c, 3, 76, 93
5, 19056, Note_off_c, 3, 76, 0
5, 19056, Note_on_c, 3, 81, 93
5, 19080, Note_off_c, 3, 81, 0
5, 19080, Note_on_c, 3, 79, 93
5, 19104, Note_off_c, 3, 79, 0
5, 19104, Note_on_c, 3, 77, 93
5, 19128, Note_off_c, 3, 77, 0
5, 19128, Note_on_c, 3, 76, 93
5, 19152, Note_off_c, 3, 76, 0
5, 19152, Note_on_c, 3, 74, 93
5, 19176, Note_off_c, 3, 74, 0
5, 19176, Note_on_c, 3, 77, 93
5, 19200, Note_off_c, 3, 77, 0
5, 19200, Note_on_c, 3, 71, 93
5, 19224, Note_off_c, 3, 71, 0
5, 19224, Note_on_c, 3, 74, 93
5, 19248, Note_off_c, 3, 74, 0
5, 19248, Note_on_c, 3, 72, 93
5, 19272, Note_off_c, 3, 72, 0
5, 19272, Note_on_c, 3, 71, 93
5, 19296, Note_off_c, 3, 71, 0
5, 19296, Note_on_c, 3, 69, 93
5, 19320, Note_off_c, 3, 69, 0
5, 19320, Note_on_c, 3, 67, 93
5, 19344, Note_off_c, 3, 67, 0
5, 19344, Note_on_c, 3, 65, 93
5, 19368, Note_off_c, 3, 65, 0
5, 19368, Note_on_c, 3, 74, 93
5, 19392, Note_off_c, 3, 74, 0
5, 19392, Note_on_c, 3, 64, 93
5, 19416, Note_off_c, 3, 64, 0
5, 19416, Note_on_c, 3, 72, 93
5, 19440, Note_off_c, 3, 72, 0
5, 19440, Note_on_c, 3, 62, 93
5, 19464, Note_off_c, 3, 62, 0
5, 19464, Note_on_c, 3, 60, 93
5, 19488, Note_off_c, 3, 60, 0
5, 19488, Note_on_c, 3, 55, 93
5, 19512, Note_off_c, 3, 55, 0
5, 19512, Note_on_c, 3, 62, 93
5, 19536, Note_off_c, 3, 62, 0
5, 19536, Note_on_c, 3, 72, 93
5, 19560, Note_off_c, 3, 72, 0
5, 19560, Note_on_c, 3, 71, 93
5, 19584, Note_off_c, 3, 71, 0
5, 19584, Note_on_c, 3, 72, 93
5, 19632, Note_off_c, 3, 72, 0
5, 19632, Note_on_c, 3, 76, 93
5, 19656, Note_off_c, 3, 76, 0
5, 19656, Note_on_c, 3, 74, 93
5, 19680, Note_off_c, 3, 74, 0
5, 19680, Note_on_c, 3, 76, 93
5, 19728, Note_off_c, 3, 76, 0
5, 19728, Note_on_c, 3, 64, 93
5, 19776, Note_off_c, 3, 64, 0
5, 19776, Note_on_c, 3, 66, 93
5, 19824, Note_off_c, 3, 66, 0
5, 19872, Note_on_c, 3, 68, 93
5, 19920, Note_off_c, 3, 68, 0
5, 19968, Note_on_c, 3, 69, 93
5, 20016, Note_off_c, 3, 69, 0
5, 20064, Note_on_c, 3, 69, 93
5, 20112, Note_off_c, 3, 69, 0
5, 20160, Note_on_c, 3, 69, 93
5, 20208, Note_off_c, 3, 69, 0
5, 20352, Note_on_c, 3, 69, 93
5, 20400, Note_off_c, 3, 69, 0
5, 20544, Note_on_c, 3, 74, 93
5, 20592, Note_off_c, 3, 74, 0
5, 20592, Note_on_c, 3, 76, 93
5, 20616, Note_off_c, 3, 76, 0
5, 20616, Note_on_c, 3, 74, 93
5, 20640, Note_off_c, 3, 74, 0
5, 20640, Note_on_c, 3, 76, 93
5, 20664, Note_off_c, 3, 76, 0
5, 20664, Note_on_c, 3, 72, 93
5, 20688, Note_off_c, 3, 72, 0
5, 20688, Note_on_c, 3, 74, 93
5, 20712, Note_off_c, 3, 74, 0
5, 20712, Note_on_c, 3, 71, 93
5, 20736, Note_off_c, 3, 71, 0
5, 20736, Note_on_c, 3, 72, 93
5, 20784, Note_off_c, 3, 72, 0
5, 20928, Note_on_c, 3, 74, 93
5, 20952, Note_off_c, 3, 74, 0
5, 20952, Note_on_c, 3, 76, 93
5, 20976, Note_off_c, 3, 76, 0
5, 20976, Note_on_c, 3, 77, 93
5, 21000, Note_off_c, 3, 77, 0
5, 21000, Note_on_c, 3, 76, 93
5, 21024, Note_off_c, 3, 76, 0
5, 21024, Note_on_c, 3, 74, 93
5, 21048, Note_off_c, 3, 74, 0
5, 21048, Note_on_c, 3, 72, 93
5, 21072, Note_off_c, 3, 72, 0
5, 21072, Note_on_c, 3, 71, 93
5, 21096, Note_off_c, 3, 71, 0
5, 21096, Note_on_c, 3, 69, 93
5, 21120, Note_off_c, 3, 69, 0
5, 21120, Note_on_c, 3, 68, 93
5, 21144, Note_off_c, 3, 68, 0
5, 21144, Note_on_c, 3, 71, 93
5, 21168, Note_off_c, 3, 71, 0
5, 21168, Note_on_c, 3, 76, 93
5, 21192, Note_off_c, 3, 76, 0
5, 21192, Note_on_c, 3, 80, 93
5, 21216, Note_off_c, 3, 80, 0
5, 21216, Note_on_c, 3, 83, 93
5, 21240, Note_off_c, 3, 83, 0
5, 21240, Note_on_c, 3, 84, 93
5, 21264, Note_off_c, 3, 84, 0
5, 21264, Note_on_c, 3, 86, 93
5, 21288, Note_off_c, 3, 86, 0
5, 21288, Note_on_c, 3, 83, 93
5, 21312, Note_off_c, 3, 83, 0
5, 21312, Note_on_c, 3, 84, 93
5, 21336, Note_off_c, 3, 84, 0
5, 21336, Note_on_c, 3, 81, 93
5, 21360, Note_off_c, 3, 81, 0
5, 21360, Note_on_c, 3, 77, 93
5, 21384, Note_off_c, 3, 77, 0
5, 21384, Note_on_c, 3, 76, 93
5, 21408, Note_off_c, 3, 76, 0
5, 21408, Note_on_c, 3, 77, 93
5, 21432, Note_off_c, 3, 77, 0
5, 21432, Note_on_c, 3, 72, 93
5, 21456, Note_off_c, 3, 72, 0
5, 21456, Note_on_c, 3, 69, 93
5, 21480, Note_off_c, 3, 69, 0
5, 21480, Note_on_c, 3, 72, 93
5, 21504, Note_off_c, 3, 72, 0
5, 21504, Note_on_c, 3, 83, 93
5, 21528, Note_off_c, 3, 83, 0
5, 21528, Note_on_c, 3, 77, 93
5, 21552, Note_off_c, 3, 77, 0
5, 21552, Note_on_c, 3, 74, 93
5, 21576, Note_off_c, 3, 74, 0
5, 21576, Note_on_c, 3, 72, 93
5, 21600, Note_off_c, 3, 72, 0
5, 21600, Note_on_c, 3, 74, 93
5, 21624, Note_off_c, 3, 74, 0
5, 21624, Note_on_c, 3, 71, 93
5, 21648, Note_off_c, 3, 71, 0
5, 21648, Note_on_c, 3, 68, 93
5, 21672, Note_off_c, 3, 68, 0
5, 21672, Note_on_c, 3, 71, 93
5, 21696, Note_off_c, 3, 71, 0
5, 21696, Note_on_c, 3, 72, 93
5, 21720, Note_off_c, 3, 72, 0
5, 21720, Note_on_c, 3, 76, 93
5, 21744, Note_off_c, 3, 76, 0
5, 21744, Note_on_c, 3, 81, 93
5, 21768, Note_off_c, 3, 81, 0
5, 21768, Note_on_c, 3, 80, 93
5, 21792, Note_off_c, 3, 80, 0
5, 21792, Note_on_c, 3, 81, 93
5, 21816, Note_off_c, 3, 81, 0
5, 21816, Note_on_c, 3, 76, 93
5, 21840, Note_off_c, 3, 76, 0
5, 21840, Note_on_c, 3, 72, 93
5, 21864, Note_off_c, 3, 72, 0
5, 21864, Note_on_c, 3, 76, 93
5, 21888, Note_off_c, 3, 76, 0
5, 21888, Note_on_c, 3, 79, 93
5, 21912, Note_off_c, 3, 79, 0
5, 21912, Note_on_c, 3, 76, 93
5, 21936, Note_off_c, 3, 76, 0
5, 21936, Note_on_c, 3, 73, 93
5, 21960, Note_off_c, 3, 73, 0
5, 21960, Note_on_c, 3, 71, 93
5, 21984, Note_off_c, 3, 71, 0
5, 21984, Note_on_c, 3, 73, 93
5, 22008, Note_off_c, 3, 73, 0
5, 22008, Note_on_c, 3, 69, 93
5, 22032, Note_off_c, 3, 69, 0
5, 22032, Note_on_c, 3, 64, 93
5, 22056, Note_off_c, 3, 64, 0
5, 22056, Note_on_c, 3, 67, 93
5, 22080, Note_off_c, 3, 67, 0
5, 22080, Note_on_c, 3, 65, 93
5, 22104, Note_off_c, 3, 65, 0
5, 22104, Note_on_c, 3, 74, 93
5, 22128, Note_off_c, 3, 74, 0
5, 22128, Note_on_c, 3, 69, 93
5, 22152, Note_off_c, 3, 69, 0
5, 22152, Note_on_c, 3, 67, 93
5, 22176, Note_off_c, 3, 67, 0
5, 22176, Note_on_c, 3, 69, 93
5, 22200, Note_off_c, 3, 69, 0
5, 22200, Note_on_c, 3, 65, 93
5, 22224, Note_off_c, 3, 65, 0
5, 22224, Note_on_c, 3, 62, 93
5, 22248, Note_off_c, 3, 62, 0
5, 22248, Note_on_c, 3, 65, 93
5, 22272, Note_off_c, 3, 65, 0
5, 22272, Note_on_c, 3, 59, 93
5, 22296, Note_off_c, 3, 59, 0
5, 22296, Note_on_c, 3, 62, 93
5, 22320, Note_off_c, 3, 62, 0
5, 22320, Note_on_c, 3, 68, 93
5, 22344, Note_off_c, 3, 68, 0
5, 22344, Note_on_c, 3, 66, 93
5, 22368, Note_off_c, 3, 66, 0
5, 22368, Note_on_c, 3, 68, 93
5, 22392, Note_off_c, 3, 68, 0
5, 22392, Note_on_c, 3, 71, 93
5, 22416, Note_off_c, 3, 71, 0
5, 22416, Note_on_c, 3, 74, 93
5, 22440, Note_off_c, 3, 74, 0
5, 22440, Note_on_c, 3, 72, 93
5, 22464, Note_off_c, 3, 72, 0
5, 22464, Note_on_c, 3, 74, 93
5, 22488, Note_off_c, 3, 74, 0
5, 22488, Note_on_c, 3, 77, 93
5, 22512, Note_off_c, 3, 77, 0
5, 22512, Note_on_c, 3, 83, 93
5, 22536, Note_off_c, 3, 83, 0
5, 22536, Note_on_c, 3, 81, 93
5, 22560, Note_off_c, 3, 81, 0
5, 22560, Note_on_c, 3, 83, 93
5, 22584, Note_off_c, 3, 83, 0
5, 22584, Note_on_c, 3, 77, 93
5, 22608, Note_off_c, 3, 77, 0
5, 22608, Note_on_c, 3, 76, 93
5, 22632, Note_off_c, 3, 76, 0
5, 22632, Note_on_c, 3, 74, 93
5, 22656, Note_off_c, 3, 74, 0
5, 22656, Note_on_c, 3, 72, 93
5, 22680, Note_off_c, 3, 72, 0
5, 22680, Note_on_c, 3, 71, 93
5, 22704, Note_off_c, 3, 71, 0
5, 22704, Note_on_c, 3, 69, 93
5, 22728, Note_off_c, 3, 69, 0
5, 22728, Note_on_c, 3, 68, 93
5, 22752, Note_off_c, 3, 68, 0
5, 22752, Note_on_c, 3, 69, 93
5, 22776, Note_off_c, 3, 69, 0
5, 22776, Note_on_c, 3, 72, 93
5, 22800, Note_off_c, 3, 72, 0
5, 22800, Note_on_c, 3, 77, 93
5, 22824, Note_off_c, 3, 77, 0
5, 22824, Note_on_c, 3, 72, 93
5, 22848, Note_off_c, 3, 72, 0
5, 22848, Note_on_c, 3, 71, 93
5, 22872, Note_off_c, 3, 71, 0
5, 22872, Note_on_c, 3, 69, 93
5, 22896, Note_off_c, 3, 69, 0
5, 22896, Note_on_c, 3, 67, 93
5, 22920, Note_off_c, 3, 67, 0
5, 22920, Note_on_c, 3, 66, 93
5, 22944, Note_off_c, 3, 66, 0
5, 22944, Note_on_c, 3, 67, 93
5, 22968, Note_off_c, 3, 67, 0
5, 22968, Note_on_c, 3, 71, 93
5, 22992, Note_off_c, 3, 71, 0
5, 22992, Note_on_c, 3, 76, 93
5, 23016, Note_off_c, 3, 76, 0
5, 23016, Note_on_c, 3, 71, 93
5, 23040, Note_off_c, 3, 71, 0
5, 23040, Note_on_c, 3, 69, 93
5, 23064, Note_off_c, 3, 69, 0
5, 23064, Note_on_c, 3, 67, 93
5, 23088, Note_off_c, 3, 67, 0
5, 23088, Note_on_c, 3, 65, 93
5, 23112, Note_off_c, 3, 65, 0
5, 23112, Note_on_c, 3, 64, 93
5, 23136, Note_off_c, 3, 64, 0
5, 23136, Note_on_c, 3, 65, 93
5, 23160, Note_off_c, 3, 65, 0
5, 23160, Note_on_c, 3, 69, 93
5, 23184, Note_off_c, 3, 69, 0
5, 23184, Note_on_c, 3, 74, 93
5, 23208, Note_off_c, 3, 74, 0
5, 23208, Note_on_c, 3, 69, 93
5, 23232, Note_off_c, 3, 69, 0
5, 23232, Note_on_c, 3, 68, 93
5, 23256, Note_off_c, 3, 68, 0
5, 23256, Note_on_c, 3, 69, 93
5, 23280, Note_off_c, 3, 69, 0
5, 23280, Note_on_c, 3, 71, 93
5, 23304, Note_off_c, 3, 71, 0
5, 23304, Note_on_c, 3, 72, 93
5, 23328, Note_off_c, 3, 72, 0
5, 23328, Note_on_c, 3, 74, 93
5, 23352, Note_off_c, 3, 74, 0
5, 23352, Note_on_c, 3, 76, 93
5, 23376, Note_off_c, 3, 76, 0
5, 23376, Note_on_c, 3, 77, 93
5, 23400, Note_off_c, 3, 77, 0
5, 23400, Note_on_c, 3, 76, 93
5, 23424, Note_off_c, 3, 76, 0
5, 23424, Note_on_c, 3, 77, 93
5, 23448, Note_off_c, 3, 77, 0
5, 23448, Note_on_c, 3, 76, 93
5, 23472, Note_off_c, 3, 76, 0
5, 23472, Note_on_c, 3, 74, 93
5, 23496, Note_off_c, 3, 74, 0
5, 23496, Note_on_c, 3, 73, 93
5, 23520, Note_off_c, 3, 73, 0
5, 23520, Note_on_c, 3, 74, 93
5, 23544, Note_off_c, 3, 74, 0
5, 23544, Note_on_c, 3, 80, 93
5, 23568, Note_off_c, 3, 80, 0
5, 23568, Note_on_c, 3, 81, 93
5, 23592, Note_off_c, 3, 81, 0
5, 23592, Note_on_c, 3, 83, 93
5, 23616, Note_off_c, 3, 83, 0
5, 23616, Note_on_c, 3, 72, 93
5, 23640, Note_off_c, 3, 72, 0
5, 23640, Note_on_c, 3, 71, 93
5, 23664, Note_off_c, 3, 71, 0
5, 23664, Note_on_c, 3, 69, 93
5, 23688, Note_off_c, 3, 69, 0
5, 23688, Note_on_c, 3, 72, 93
5, 23712, Note_off_c, 3, 72, 0
5, 23712, Note_on_c, 3, 65, 93
5, 23736, Note_off_c, 3, 65, 0
5, 23736, Note_on_c, 3, 76, 93
5, 23760, Note_off_c, 3, 76, 0
5, 23760, Note_on_c, 3, 81, 93
5, 23784, Note_off_c, 3, 81, 0
5, 23784, Note_on_c, 3, 74, 93
5, 23808, Note_off_c, 3, 74, 0
5, 23808, Note_on_c, 3, 80, 93
5, 23856, Note_off_c, 3, 80, 0
5, 23952, Note_on_c, 3, 79, 93
5, 24000, Note_off_c, 3, 79, 0
5, 24000, Note_on_c, 3, 72, 93
5, 24096, Note_off_c, 3, 72, 0
5, 24096, Note_on_c, 3, 73, 93
5, 24192, Note_off_c, 3, 73, 0
5, 24192, Note_on_c, 3, 74, 93
5, 24240, Note_off_c, 3, 74, 0
5, 24336, Note_on_c, 3, 77, 93
5, 24384, Note_off_c, 3, 77, 0
5, 24384, Note_on_c, 3, 71, 93
5, 24480, Note_off_c, 3, 71, 0
5, 24480, Note_on_c, 3, 74, 93
5, 24624, Note_off_c, 3, 74, 0
5, 24624, Note_on_c, 3, 72, 93
5, 24648, Note_off_c, 3, 72, 0
5, 24648, Note_on_c, 3, 74, 93
5, 24672, Note_off_c, 3, 74, 0
5, 24672, Note_on_c, 3, 72, 93
5, 24720, Note_off_c, 3, 72, 0
5, 24720, Note_on_c, 3, 84, 93
5, 24768, Note_off_c, 3, 84, 0
5, 24768, Note_on_c, 3, 77, 93
5, 24864, Note_off_c, 3, 77, 0
5, 24864, Note_on_c, 3, 76, 93
5, 24960, Note_off_c, 3, 76, 0
5, 24960, Note_on_c, 3, 74, 93
5, 25008, Note_off_c, 3, 74, 0
5, 25008, Note_on_c, 3, 72, 93
5, 25032, Note_off_c, 3, 72, 0
5, 25032, Note_on_c, 3, 71, 93
5, 25056, Note_off_c, 3, 71, 0
5, 25056, Note_on_c, 3, 72, 93
5, 25104, Note_off_c, 3, 72, 0
5, 25104, Note_on_c, 3, 81, 93
5, 25152, Note_off_c, 3, 81, 0
5, 25152, Note_on_c, 3, 76, 93
5, 25200, Note_off_c, 3, 76, 0
5, 25200, Note_on_c, 3, 74, 93
5, 25224, Note_off_c, 3, 74, 0
5, 25224, Note_on_c, 3, 72, 93
5, 25248, Note_off_c, 3, 72, 0
5, 25248, Note_on_c, 3, 74, 93
5, 25296, Note_off_c, 3, 74, 0
5, 25296, Note_on_c, 3, 71, 93
5, 25344, Note_off_c, 3, 71, 0
5, 25344, Note_on_c, 3, 72, 93
5, 25392, Note_off_c, 3, 72, 0
5, 25392, Note_on_c, 3, 76, 93
5, 25440, Note_off_c, 3, 76, 0
5, 25440, Note_on_c, 3, 81, 93
5, 25488, Note_off_c, 3, 81, 0
5, 25488, Note_on_c, 3, 72, 93
5, 25536, Note_off_c, 3, 72, 0
5, 25536, Note_on_c, 3, 71, 93
5, 25584, Note_off_c, 3, 71, 0
5, 25584, Note_on_c, 3, 81, 93
5, 25608, Note_off_c, 3, 81, 0
5, 25608, Note_on_c, 3, 79, 93
5, 25632, Note_off_c, 3, 79, 0
5, 25632, Note_on_c, 3, 81, 93
5, 25680, Note_off_c, 3, 81, 0
5, 25680, Note_on_c, 3, 75, 93
5, 25728, Note_off_c, 3, 75, 0
5, 25728, Note_on_c, 3, 76, 93
5, 25776, Note_off_c, 3, 76, 0
5, 25776, Note_on_c, 3, 84, 93
5, 25824, Note_off_c, 3, 84, 0
5, 25824, Note_on_c, 3, 83, 93
5, 25872, Note_off_c, 3, 83, 0
5, 25872, Note_on_c, 3, 81, 93
5, 25920, Note_off_c, 3, 81, 0
5, 25920, Note_on_c, 3, 79, 93
5, 25992, Note_off_c, 3, 79, 0
5, 25992, Note_on_c, 3, 81, 93
5, 26016, Note_off_c, 3, 81, 0
5, 26016, Note_on_c, 3, 78, 93
5, 26088, Note_off_c, 3, 78, 0
5, 26088, Note_on_c, 3, 76, 93
5, 26112, Note_off_c, 3, 76, 0
5, 26112, Note_on_c, 3, 76, 93
5, 26160, Note_off_c, 3, 76, 0
5, 26160, Note_on_c, 3, 83, 93
5, 26184, Note_off_c, 3, 83, 0
5, 26184, Note_on_c, 3, 81, 93
5, 26208, Note_off_c, 3, 81, 0
5, 26208, Note_on_c, 3, 83, 93
5, 26256, Note_off_c, 3, 83, 0
5, 26256, Note_on_c, 3, 71, 93
5, 26304, Note_off_c, 3, 71, 0
5, 26304, Note_on_c, 3, 76, 93
5, 26352, Note_off_c, 3, 76, 0
5, 26352, Note_on_c, 3, 79, 93
5, 26400, Note_off_c, 3, 79, 0
5, 26400, Note_on_c, 3, 78, 93
5, 26448, Note_off_c, 3, 78, 0
5, 26448, Note_on_c, 3, 81, 93
5, 26496, Note_off_c, 3, 81, 0
5, 26496, Note_on_c, 3, 79, 93
5, 26544, Note_off_c, 3, 79, 0
5, 26736, Note_on_c, 3, 76, 93
5, 26784, Note_off_c, 3, 76, 0
5, 26784, Note_on_c, 3, 76, 93
5, 26832, Note_off_c, 3, 76, 0
5, 26832, Note_on_c, 3, 75, 93
5, 26880, Note_off_c, 3, 75, 0
5, 26880, Note_on_c, 3, 76, 93
5, 26928, Note_off_c, 3, 76, 0
5, 26928, Note_on_c, 3, 71, 93
5, 26952, Note_off_c, 3, 71, 0
5, 26952, Note_on_c, 3, 72, 93
5, 26976, Note_off_c, 3, 72, 0
5, 26976, Note_on_c, 3, 71, 93
5, 27024, Note_off_c, 3, 71, 0
5, 27024, Note_on_c, 3, 83, 93
5, 27072, Note_off_c, 3, 83, 0
5, 27072, Note_on_c, 3, 76, 93
5, 27120, Note_off_c, 3, 76, 0
5, 27120, Note_on_c, 3, 72, 93
5, 27168, Note_off_c, 3, 72, 0
5, 27168, Note_on_c, 3, 74, 93
5, 27216, Note_off_c, 3, 74, 0
5, 27216, Note_on_c, 3, 71, 93
5, 27264, Note_off_c, 3, 71, 0
5, 27264, Note_on_c, 3, 72, 93
5, 27312, Note_off_c, 3, 72, 0
5, 27312, Note_on_c, 3, 76, 93
5, 27336, Note_off_c, 3, 76, 0
5, 27336, Note_on_c, 3, 75, 93
5, 27360, Note_off_c, 3, 75, 0
5, 27360, Note_on_c, 3, 76, 93
5, 27408, Note_off_c, 3, 76, 0
5, 27408, Note_on_c, 3, 64, 93
5, 27456, Note_off_c, 3, 64, 0
5, 27456, Note_on_c, 3, 69, 93
5, 27504, Note_off_c, 3, 69, 0
5, 27504, Note_on_c, 3, 72, 93
5, 27552, Note_off_c, 3, 72, 0
5, 27552, Note_on_c, 3, 71, 93
5, 27600, Note_off_c, 3, 71, 0
5, 27600, Note_on_c, 3, 74, 93
5, 27648, Note_off_c, 3, 74, 0
5, 27648, Note_on_c, 3, 72, 93
5, 27696, Note_off_c, 3, 72, 0
5, 29472, Note_on_c, 3, 57, 93
5, 29520, Note_off_c, 3, 57, 0
5, 29664, Note_on_c, 3, 59, 93
5, 29712, Note_off_c, 3, 59, 0
5, 31296, Note_on_c, 3, 72, 93
5, 31344, Note_off_c, 3, 72, 0
5, 31488, Note_on_c, 3, 69, 93
5, 31536, Note_off_c, 3, 69, 0
5, 31536, Note_on_c, 3, 71, 93
5, 31584, Note_off_c, 3, 71, 0
5, 31584, Note_on_c, 3, 72, 93
5, 31680, Note_off_c, 3, 72, 0
5, 31680, Note_on_c, 3, 71, 93
5, 31728, Note_off_c, 3, 71, 0
5, 33024, Note_on_c, 3, 71, 93
5, 33072, Note_off_c, 3, 71, 0
5, 33072, Note_on_c, 3, 72, 93
5, 33096, Note_off_c, 3, 72, 0
5, 33096, Note_on_c, 3, 71, 93
5, 33120, Note_off_c, 3, 71, 0
5, 33120, Note_on_c, 3, 69, 93
5, 33144, Note_off_c, 3, 69, 0
5, 33144, Note_on_c, 3, 67, 93
5, 33168, Note_off_c, 3, 67, 0
5, 33168, Note_on_c, 3, 66, 93
5, 33192, Note_off_c, 3, 66, 0
5, 33192, Note_on_c, 3, 64, 93
5, 33216, Note_off_c, 3, 64, 0
5, 33216, Note_on_c, 3, 66, 93
5, 33264, Note_off_c, 3, 66, 0
5, 33360, Note_on_c, 3, 66, 93
5, 33408, Note_off_c, 3, 66, 0
5, 33408, Note_on_c, 3, 64, 93
5, 33456, Note_off_c, 3, 64, 0
5, 33504, Note_on_c, 3, 64, 93
5, 33552, Note_off_c, 3, 64, 0
5, 33600, Note_on_c, 3, 69, 93
5, 33648, Note_off_c, 3, 69, 0
5, 33648, Note_on_c, 3, 66, 93
5, 33696, Note_off_c, 3, 66, 0
5, 33696, Note_on_c, 3, 67, 93
5, 33744, Note_off_c, 3, 67, 0
5, 33744, Note_on_c, 3, 64, 93
5, 33792, Note_off_c, 3, 64, 0
5, 33792, Note_on_c, 3, 66, 93
5, 33936, Note_off_c, 3, 66, 0
5, 33936, Note_on_c, 3, 64, 93
5, 33984, Note_off_c, 3, 64, 0
5, 33984, Note_on_c, 3, 63, 93
5, 34032, Note_off_c, 3, 63, 0
5, 36288, Note_on_c, 3, 57, 93
5, 36336, Note_off_c, 3, 57, 0
5, 36672, Note_on_c, 3, 55, 93
5, 36720, Note_off_c, 3, 55, 0
5, 37056, Note_on_c, 3, 56, 93
5, 37104, Note_off_c, 3, 56, 0
5, 37920, Note_on_c, 3, 62, 93
5, 37968, Note_off_c, 3, 62, 0
5, 38016, Note_on_c, 3, 57, 93
5, 38064, Note_off_c, 3, 57, 0
5, 38112, Note_on_c, 3, 58, 93
5, 38160, Note_off_c, 3, 58, 0
5, 42240, Note_on_c, 3, 55, 93
5, 42288, Note_off_c, 3, 55, 0
5, 42624, Note_on_c, 3, 62, 93
5, 42672, Note_off_c, 3, 62, 0
5, 42672, Note_on_c, 3, 74, 93
5, 42696, Note_off_c, 3, 74, 0
5, 42696, Note_on_c, 3, 73, 93
5, 42720, Note_off_c, 3, 73, 0
5, 42720, Note_on_c, 3, 74, 93
5, 42768, Note_off_c, 3, 74, 0
5, 42768, Note_on_c, 3, 62, 93
5, 42816, Note_off_c, 3, 62, 0
5, 42816, Note_on_c, 3, 67, 93
5, 42864, Note_off_c, 3, 67, 0
5, 42864, Note_on_c, 3, 70, 93
5, 42912, Note_off_c, 3, 70, 0
5, 42912, Note_on_c, 3, 69, 93
5, 42960, Note_off_c, 3, 69, 0
5, 42960, Note_on_c, 3, 72, 93
5, 43008, Note_off_c, 3, 72, 0
5, 43008, Note_on_c, 3, 65, 93
5, 43056, Note_off_c, 3, 65, 0
5, 43200, Note_on_c, 3, 70, 93
5, 43248, Note_off_c, 3, 70, 0
5, 43296, Note_on_c, 3, 69, 93
5, 43344, Note_off_c, 3, 69, 0
5, 43392, Note_on_c, 3, 67, 93
5, 43440, Note_off_c, 3, 67, 0
5, 43584, Note_on_c, 3, 65, 93
5, 43632, Note_off_c, 3, 65, 0
5, 43776, Note_on_c, 3, 64, 93
5, 43824, Note_off_c, 3, 64, 0
5, 43920, Note_on_c, 3, 62, 93
5, 43968, Note_off_c, 3, 62, 0
5, 43968, Note_on_c, 3, 64, 93
5, 44016, Note_off_c, 3, 64, 0
5, 44064, Note_on_c, 3, 69, 93
5, 44112, Note_off_c, 3, 69, 0
5, 44112, Note_on_c, 3, 70, 93
5, 44160, Note_off_c, 3, 70, 0
5, 48096, Note_on_c, 3, 64, 93
5, 48144, Note_off_c, 3, 64, 0
5, 49152, Note_on_c, 3, 57, 93
5, 49200, Note_off_c, 3, 57, 0
5, 49344, Note_on_c, 3, 62, 93
5, 49392, Note_off_c, 3, 62, 0
5, 49440, Note_on_c, 3, 60, 93
5, 49488, Note_off_c, 3, 60, 0
5, 49536, Note_on_c, 3, 59, 93
5, 49584, Note_off_c, 3, 59, 0
5, 51840, Note_on_c, 3, 64, 93
5, 51888, Note_off_c, 3, 64, 0
5, 52080, Note_on_c, 3, 64, 93
5, 52104, Note_off_c, 3, 64, 0
5, 52104, Note_on_c, 3, 65, 93
5, 52128, Note_off_c, 3, 65, 0
5, 52128, Note_on_c, 3, 64, 93
5, 52176, Note_off_c, 3, 64, 0
5, 52176, Note_on_c, 3, 64, 93
5, 52224, Note_off_c, 3, 64, 0
5, 52224, Note_on_c, 3, 69, 93
5, 52272, Note_off_c, 3, 69, 0
5, 52272, Note_on_c, 3, 65, 93
5, 52320, Note_off_c, 3, 65, 0
5, 52320, Note_on_c, 3, 67, 93
5, 52368, Note_off_c, 3, 67, 0
5, 52368, Note_on_c, 3, 64, 93
5, 52416, Note_off_c, 3, 64, 0
5, 52416, Note_on_c, 3, 65, 93
5, 52464, Note_off_c, 3, 65, 0
5, 52464, Note_on_c, 3, 62, 93
5, 52512, Note_off_c, 3, 62, 0
5, 52512, Note_on_c, 3, 64, 93
5, 52560, Note_off_c, 3, 64, 0
5, 52560, Note_on_c, 3, 57, 93
5, 52608, Note_off_c, 3, 57, 0
5, 52608, Note_on_c, 3, 62, 93
5, 52656, Note_off_c, 3, 62, 0
5, 53232, Note_on_c, 3, 68, 93
5, 53280, Note_off_c, 3, 68, 0
5, 53280, Note_on_c, 3, 69, 93
5, 53328, Note_off_c, 3, 69, 0
5, 53760, Note_on_c, 3, 81, 93
5, 53808, Note_off_c, 3, 81, 0
5, 53856, Note_on_c, 3, 80, 93
5, 53904, Note_off_c, 3, 80, 0
5, 53952, Note_on_c, 3, 81, 93
5, 54000, Note_off_c, 3, 81, 0
5, 54000, Note_on_c, 3, 69, 93
5, 54024, Note_off_c, 3, 69, 0
5, 54024, Note_on_c, 3, 71, 93
5, 54048, Note_off_c, 3, 71, 0
5, 54048, Note_on_c, 3, 69, 93
5, 54096, Note_off_c, 3, 69, 0
5, 54096, Note_on_c, 3, 81, 93
5, 54144, Note_off_c, 3, 81, 0
5, 54144, Note_on_c, 3, 76, 93
5, 54192, Note_off_c, 3, 76, 0
5, 54192, Note_on_c, 3, 72, 93
5, 54240, Note_off_c, 3, 72, 0
5, 54240, Note_on_c, 3, 74, 93
5, 54288, Note_off_c, 3, 74, 0
5, 54288, Note_on_c, 3, 71, 93
5, 54336, Note_off_c, 3, 71, 0
5, 54336, Note_on_c, 3, 72, 93
5, 54384, Note_off_c, 3, 72, 0
5, 54432, Note_on_c, 3, 73, 93
5, 54480, Note_off_c, 3, 73, 0
5, 54528, Note_on_c, 3, 74, 93
5, 54576, Note_off_c, 3, 74, 0
5, 54624, Note_on_c, 3, 73, 93
5, 54672, Note_off_c, 3, 73, 0
5, 55152, Note_on_c, 3, 64, 93
5, 55200, Note_off_c, 3, 64, 0
5, 55296, Note_on_c, 3, 64, 93
5, 55488, Note_off_c, 3, 64, 0
5, 55488, End_track
0, 0, End_of_file
