0, 0, Header, 1, 5, 96
1, 0, Start_track
1, 0, Time_signature, 4, 2, 24, 8
1, 0, Title_t, "untitled"
1, 0, Title_t, "Track1"
1, 0, Tempo, 428571
1, 135936, Tempo, 1428571
1, 135936, End_track
2, 0, Start_track
2, 0, Title_t, "Track2"
2, 0, Program_c, 0, 40
2, 0, Control_c, 0, 7, 100
2, 0, Control_c, 0, 10, 69
2, 192, Note_on_c, 0, 67, 93
2, 384, Note_off_c, 0, 67, 0
2, 384, Note_on_c, 0, 69, 93
2, 480, Note_off_c, 0, 69, 0
2, 480, Note_on_c, 0, 67, 93
2, 528, Note_off_c, 0, 67, 0
2, 528, Note_on_c, 0, 65, 93
2, 576, Note_off_c, 0, 65, 0
2, 576, Note_on_c, 0, 64, 93
2, 672, Note_off_c, 0, 64, 0
2, 672, Note_on_c, 0, 65, 93
2, 768, Note_off_c, 0, 65, 0
2, 768, Note_on_c, 0, 67, 93
2, 960, Note_off_c, 0, 67, 0
2, 960, Note_on_c, 0, 62, 93
2, 1056, Note_off_c, 0, 62, 0
2, 1056, Note_on_c, 0, 64, 93
2, 1152, Note_off_c, 0, 64, 0
2, 1152, Note_on_c, 0, 65, 93
2, 1248, Note_off_c, 0, 65, 0
2, 1248, Note_on_c, 0, 64, 93
2, 1344, Note_off_c, 0, 64, 0
2, 1344, Note_on_c, 0, 65, 93
2, 1440, Note_off_c, 0, 65, 0
2, 1440, Note_on_c, 0, 67, 93
2, 1488, Note_off_c, 0, 67, 0
2, 1488, Note_on_c, 0, 65, 93
2, 1536, Note_off_c, 0, 65, 0
2, 1536, Note_on_c, 0, 64, 93
2, 1632, Note_off_c, 0, 64, 0
2, 1632, Note_on_c, 0, 65, 93
2, 1680, Note_off_c, 0, 65, 0
2, 1680, Note_on_c, 0, 67, 93
2, 1728, Note_off_c, 0, 67, 0
2, 1728, Note_on_c, 0, 69, 93
2, 1920, Note_off_c, 0, 69, 0
2, 1920, Note_on_c, 0, 68, 93
2, 2112, Note_off_c, 0, 68, 0
2, 2112, Note_on_c, 0, 67, 93
2, 2304, Note_off_c, 0, 67, 0
2, 2304, Note_on_c, 0, 66, 93
2, 2496, Note_off_c, 0, 66, 0
2, 2496, Note_on_c, 0, 65, 93
2, 2688, Note_off_c, 0, 65, 0
2, 2688, Note_on_c, 0, 64, 93
2, 2784, Note_off_c, 0, 64, 0
2, 2784, Note_on_c, 0, 62, 93
2, 2880, Note_off_c, 0, 62, 0
2, 2880, Note_on_c, 0, 64, 93
2, 2976, Note_off_c, 0, 64, 0
2, 2976, Note_on_c, 0, 66, 93
2, 3072, Note_off_c, 0, 66, 0
2, 3072, Note_on_c, 0, 67, 93
2, 3168, Note_off_c, 0, 67, 0
2, 3168, Note_on_c, 0, 65, 93
2, 3264, Note_off_c, 0, 65, 0
2, 3264, Note_on_c, 0, 67, 93
2, 3360, Note_off_c, 0, 67, 0
2, 3360, Note_on_c, 0, 64, 93
2, 3456, Note_off_c, 0, 64, 0
2, 3456, Note_on_c, 0, 65, 93
2, 3552, Note_off_c, 0, 65, 0
2, 3552, Note_on_c, 0, 64, 93
2, 3648, Note_off_c, 0, 64, 0
2, 3648, Note_on_c, 0, 65, 93
2, 3744, Note_off_c, 0, 65, 0
2, 3744, Note_on_c, 0, 62, 93
2, 3840, Note_off_c, 0, 62, 0
2, 3840, Note_on_c, 0, 64, 93
2, 4032, Note_off_c, 0, 64, 0
2, 4032, Note_on_c, 0, 64, 93
2, 4224, Note_off_c, 0, 64, 0
2, 4224, Note_on_c, 0, 64, 93
2, 4416, Note_off_c, 0, 64, 0
2, 4416, Note_on_c, 0, 69, 93
2, 4608, Note_off_c, 0, 69, 0
2, 4608, Note_on_c, 0, 62, 93
2, 4800, Note_off_c, 0, 62, 0
2, 4992, Note_on_c, 0, 62, 93
2, 5376, Note_off_c, 0, 62, 0
2, 5376, Note_on_c, 0, 64, 93
2, 5568, Note_off_c, 0, 64, 0
2, 5568, Note_on_c, 0, 69, 93
2, 5760, Note_off_c, 0, 69, 0
2, 5760, Note_on_c, 0, 64, 93
2, 5952, Note_off_c, 0, 64, 0
2, 5952, Note_on_c, 0, 64, 93
2, 6144, Note_off_c, 0, 64, 0
2, 6144, Note_on_c, 0, 62, 93
2, 6336, Note_off_c, 0, 62, 0
2, 6336, Note_on_c, 0, 65, 93
2, 6528, Note_off_c, 0, 65, 0
2, 6528, Note_on_c, 0, 64, 93
2, 6720, Note_off_c, 0, 64, 0
2, 6912, Note_on_c, 0, 62, 93
2, 7104, Note_off_c, 0, 62, 0
2, 7296, Note_on_c, 0, 69, 93
2, 7488, Note_off_c, 0, 69, 0
2, 7488, Note_on_c, 0, 62, 93
2, 7680, Note_off_c, 0, 62, 0
2, 7680, Note_on_c, 0, 67, 93
2, 7872, Note_off_c, 0, 67, 0
2, 8064, Note_on_c, 0, 67, 93
2, 8160, Note_off_c, 0, 67, 0
2, 8352, Note_on_c, 0, 67, 93
2, 8448, Note_off_c, 0, 67, 0
2, 8448, Note_on_c, 0, 65, 93
2, 8544, Note_off_c, 0, 65, 0
2, 8832, Note_on_c, 0, 65, 93
2, 8928, Note_off_c, 0, 65, 0
2, 9120, Note_on_c, 0, 65, 93
2, 9216, Note_off_c, 0, 65, 0
2, 9216, Note_on_c, 0, 64, 93
2, 9312, Note_off_c, 0, 64, 0
2, 9312, Note_on_c, 0, 65, 93
2, 9408, Note_off_c, 0, 65, 0
2, 9408, Note_on_c, 0, 67, 93
2, 9600, Note_off_c, 0, 67, 0
2, 9600, Note_on_c, 0, 66, 93
2, 9792, Note_off_c, 0, 66, 0
2, 9792, Note_on_c, 0, 65, 93
2, 9984, Note_off_c, 0, 65, 0
2, 9984, Note_on_c, 0, 64, 93
2, 10176, Note_off_c, 0, 64, 0
2, 10176, Note_on_c, 0, 63, 93
2, 10368, Note_off_c, 0, 63, 0
2, 10368, Note_on_c, 0, 62, 93
2, 10560, Note_off_c, 0, 62, 0
2, 10560, Note_on_c, 0, 64, 93
2, 10752, Note_off_c, 0, 64, 0
2, 10752, Note_on_c, 0, 65, 93
2, 10848, Note_off_c, 0, 65, 0
2, 10848, Note_on_c, 0, 64, 93
2, 10944, Note_off_c, 0, 64, 0
2, 10944, Note_on_c, 0, 65, 93
2, 11040, Note_off_c, 0, 65, 0
2, 11040, Note_on_c, 0, 67, 93
2, 11088, Note_off_c, 0, 67, 0
2, 11088, Note_on_c, 0, 65, 93
2, 11136, Note_off_c, 0, 65, 0
2, 11136, Note_on_c, 0, 64, 93
2, 11328, Note_off_c, 0, 64, 0
2, 11328, Note_on_c, 0, 66, 93
2, 11520, Note_off_c, 0, 66, 0
2, 11520, Note_on_c, 0, 67, 93
2, 11712, Note_off_c, 0, 67, 0
2, 11712, Note_on_c, 0, 67, 93
2, 11904, Note_off_c, 0, 67, 0
2, 11904, Note_on_c, 0, 69, 93
2, 12000, Note_off_c, 0, 69, 0
2, 12000, Note_on_c, 0, 67, 93
2, 12048, Note_off_c, 0, 67, 0
2, 12048, Note_on_c, 0, 65, 93
2, 12096, Note_off_c, 0, 65, 0
2, 12096, Note_on_c, 0, 64, 93
2, 12192, Note_off_c, 0, 64, 0
2, 12192, Note_on_c, 0, 66, 93
2, 12288, Note_off_c, 0, 66, 0
2, 12288, Note_on_c, 0, 67, 93
2, 12480, Note_off_c, 0, 67, 0
2, 12480, Note_on_c, 0, 62, 93
2, 12576, Note_off_c, 0, 62, 0
2, 12576, Note_on_c, 0, 64, 93
2, 12672, Note_off_c, 0, 64, 0
2, 12672, Note_on_c, 0, 65, 93
2, 12768, Note_off_c, 0, 65, 0
2, 12768, Note_on_c, 0, 64, 93
2, 12864, Note_off_c, 0, 64, 0
2, 12864, Note_on_c, 0, 65, 93
2, 12960, Note_off_c, 0, 65, 0
2, 12960, Note_on_c, 0, 67, 93
2, 13008, Note_off_c, 0, 67, 0
2, 13008, Note_on_c, 0, 65, 93
2, 13056, Note_off_c, 0, 65, 0
2, 13056, Note_on_c, 0, 64, 93
2, 13152, Note_off_c, 0, 64, 0
2, 13152, Note_on_c, 0, 72, 93
2, 13200, Note_off_c, 0, 72, 0
2, 13200, Note_on_c, 0, 71, 93
2, 13248, Note_off_c, 0, 71, 0
2, 13248, Note_on_c, 0, 69, 93
2, 13344, Note_off_c, 0, 69, 0
2, 13344, Note_on_c, 0, 67, 93
2, 13440, Note_off_c, 0, 67, 0
2, 13440, Note_on_c, 0, 66, 93
2, 13536, Note_off_c, 0, 66, 0
2, 13536, Note_on_c, 0, 74, 93
2, 13584, Note_off_c, 0, 74, 0
2, 13584, Note_on_c, 0, 72, 93
2, 13632, Note_off_c, 0, 72, 0
2, 13632, Note_on_c, 0, 74, 93
2, 13728, Note_off_c, 0, 74, 0
2, 13728, Note_on_c, 0, 66, 93
2, 13824, Note_off_c, 0, 66, 0
2, 13824, Note_on_c, 0, 67, 93
2, 13920, Note_off_c, 0, 67, 0
2, 13920, Note_on_c, 0, 70, 93
2, 13968, Note_off_c, 0, 70, 0
2, 13968, Note_on_c, 0, 69, 93
2, 14016, Note_off_c, 0, 69, 0
2, 14016, Note_on_c, 0, 67, 93
2, 14112, Note_off_c, 0, 67, 0
2, 14112, Note_on_c, 0, 65, 93
2, 14208, Note_off_c, 0, 65, 0
2, 14208, Note_on_c, 0, 64, 93
2, 14304, Note_off_c, 0, 64, 0
2, 14304, Note_on_c, 0, 72, 93
2, 14352, Note_off_c, 0, 72, 0
2, 14352, Note_on_c, 0, 70, 93
2, 14400, Note_off_c, 0, 70, 0
2, 14400, Note_on_c, 0, 72, 93
2, 14496, Note_off_c, 0, 72, 0
2, 14496, Note_on_c, 0, 64, 93
2, 14592, Note_off_c, 0, 64, 0
2, 14592, Note_on_c, 0, 65, 93
2, 14688, Note_off_c, 0, 65, 0
2, 14688, Note_on_c, 0, 69, 93
2, 14736, Note_off_c, 0, 69, 0
2, 14736, Note_on_c, 0, 67, 93
2, 14784, Note_off_c, 0, 67, 0
2, 14784, Note_on_c, 0, 65, 93
2, 14832, Note_off_c, 0, 65, 0
2, 14832, Note_on_c, 0, 67, 93
2, 14880, Note_off_c, 0, 67, 0
2, 14880, Note_on_c, 0, 64, 93
2, 14928, Note_off_c, 0, 64, 0
2, 14928, Note_on_c, 0, 65, 93
2, 14976, Note_off_c, 0, 65, 0
2, 14976, Note_on_c, 0, 62, 93
2, 15024, Note_off_c, 0, 62, 0
2, 15024, Note_on_c, 0, 69, 93
2, 15072, Note_off_c, 0, 69, 0
2, 15072, Note_on_c, 0, 74, 93
2, 15120, Note_off_c, 0, 74, 0
2, 15120, Note_on_c, 0, 72, 93
2, 15168, Note_off_c, 0, 72, 0
2, 15168, Note_on_c, 0, 71, 93
2, 15216, Note_off_c, 0, 71, 0
2, 15216, Note_on_c, 0, 69, 93
2, 15264, Note_off_c, 0, 69, 0
2, 15264, Note_on_c, 0, 67, 93
2, 15312, Note_off_c, 0, 67, 0
2, 15312, Note_on_c, 0, 65, 93
2, 15360, Note_off_c, 0, 65, 0
2, 15360, Note_on_c, 0, 64, 93
2, 15456, Note_off_c, 0, 64, 0
2, 15456, Note_on_c, 0, 72, 93
2, 15504, Note_off_c, 0, 72, 0
2, 15504, Note_on_c, 0, 71, 93
2, 15552, Note_off_c, 0, 71, 0
2, 15552, Note_on_c, 0, 69, 93
2, 15600, Note_off_c, 0, 69, 0
2, 15600, Note_on_c, 0, 72, 93
2, 15648, Note_off_c, 0, 72, 0
2, 15648, Note_on_c, 0, 76, 93
2, 15696, Note_off_c, 0, 76, 0
2, 15696, Note_on_c, 0, 67, 93
2, 15744, Note_off_c, 0, 67, 0
2, 15744, Note_on_c, 0, 65, 93
2, 15792, Note_off_c, 0, 65, 0
2, 15792, Note_on_c, 0, 69, 93
2, 15840, Note_off_c, 0, 69, 0
2, 15840, Note_on_c, 0, 77, 93
2, 15888, Note_off_c, 0, 77, 0
2, 15888, Note_on_c, 0, 76, 93
2, 15936, Note_off_c, 0, 76, 0
2, 15936, Note_on_c, 0, 74, 93
2, 15984, Note_off_c, 0, 74, 0
2, 15984, Note_on_c, 0, 72, 93
2, 16032, Note_off_c, 0, 72, 0
2, 16032, Note_on_c, 0, 71, 93
2, 16080, Note_off_c, 0, 71, 0
2, 16080, Note_on_c, 0, 69, 93
2, 16128, Note_off_c, 0, 69, 0
2, 16128, Note_on_c, 0, 67, 93
2, 16176, Note_off_c, 0, 67, 0
2, 16176, Note_on_c, 0, 69, 93
2, 16200, Note_off_c, 0, 69, 0
2, 16200, Note_on_c, 0, 71, 93
2, 16224, Note_off_c, 0, 71, 0
2, 16224, Note_on_c, 0, 72, 93
2, 16272, Note_off_c, 0, 72, 0
2, 16272, Note_on_c, 0, 74, 93
2, 16320, Note_off_c, 0, 74, 0
2, 16320, Note_on_c, 0, 76, 93
2, 16368, Note_off_c, 0, 76, 0
2, 16368, Note_on_c, 0, 77, 93
2, 16416, Note_off_c, 0, 77, 0
2, 16416, Note_on_c, 0, 79, 93
2, 16464, Note_off_c, 0, 79, 0
2, 16464, Note_on_c, 0, 70, 93
2, 16512, Note_off_c, 0, 70, 0
2, 16512, Note_on_c, 0, 69, 93
2, 16560, Note_off_c, 0, 69, 0
2, 16560, Note_on_c, 0, 76, 93
2, 16608, Note_off_c, 0, 76, 0
2, 16608, Note_on_c, 0, 81, 93
2, 16656, Note_off_c, 0, 81, 0
2, 16656, Note_on_c, 0, 79, 93
2, 16704, Note_off_c, 0, 79, 0
2, 16704, Note_on_c, 0, 77, 93
2, 16752, Note_off_c, 0, 77, 0
2, 16752, Note_on_c, 0, 79, 93
2, 16776, Note_off_c, 0, 79, 0
2, 16776, Note_on_c, 0, 81, 93
2, 16800, Note_off_c, 0, 81, 0
2, 16800, Note_on_c, 0, 74, 93
2, 16848, Note_off_c, 0, 74, 0
2, 16848, Note_on_c, 0, 76, 93
2, 16872, Note_off_c, 0, 76, 0
2, 16872, Note_on_c, 0, 77, 93
2, 16896, Note_off_c, 0, 77, 0
2, 16896, Note_on_c, 0, 71, 93
2, 16944, Note_off_c, 0, 71, 0
2, 16944, Note_on_c, 0, 74, 93
2, 16992, Note_off_c, 0, 74, 0
2, 16992, Note_on_c, 0, 76, 93
2, 17040, Note_off_c, 0, 76, 0
2, 17040, Note_on_c, 0, 77, 93
2, 17088, Note_off_c, 0, 77, 0
2, 17088, Note_on_c, 0, 79, 93
2, 17280, Note_off_c, 0, 79, 0
2, 17472, Note_on_c, 0, 69, 93
2, 17568, Note_off_c, 0, 69, 0
2, 17664, Note_on_c, 0, 67, 93
2, 17712, Note_off_c, 0, 67, 0
2, 17712, Note_on_c, 0, 79, 93
2, 17760, Note_off_c, 0, 79, 0
2, 17760, Note_on_c, 0, 77, 93
2, 17808, Note_off_c, 0, 77, 0
2, 17808, Note_on_c, 0, 76, 93
2, 17856, Note_off_c, 0, 76, 0
2, 17856, Note_on_c, 0, 74, 93
2, 17952, Note_off_c, 0, 74, 0
2, 17952, Note_on_c, 0, 76, 93
2, 18048, Note_off_c, 0, 76, 0
2, 18048, Note_on_c, 0, 76, 93
2, 18144, Note_off_c, 0, 76, 0
2, 18144, Note_on_c, 0, 77, 93
2, 18192, Note_off_c, 0, 77, 0
2, 18192, Note_on_c, 0, 76, 93
2, 18240, Note_off_c, 0, 76, 0
2, 18240, Note_on_c, 0, 77, 93
2, 18336, Note_off_c, 0, 77, 0
2, 18336, Note_on_c, 0, 79, 93
2, 18384, Note_off_c, 0, 79, 0
2, 18384, Note_on_c, 0, 77, 93
2, 18432, Note_off_c, 0, 77, 0
2, 18432, Note_on_c, 0, 76, 93
2, 18528, Note_off_c, 0, 76, 0
2, 18816, Note_on_c, 0, 76, 93
2, 18912, Note_off_c, 0, 76, 0
2, 19008, Note_on_c, 0, 74, 93
2, 19104, Note_off_c, 0, 74, 0
2, 19200, Note_on_c, 0, 74, 93
2, 19296, Note_off_c, 0, 74, 0
2, 19296, Note_on_c, 0, 72, 93
2, 19344, Note_off_c, 0, 72, 0
2, 19344, Note_on_c, 0, 71, 93
2, 19392, Note_off_c, 0, 71, 0
2, 19392, Note_on_c, 0, 72, 93
2, 19488, Note_off_c, 0, 72, 0
2, 19488, Note_on_c, 0, 74, 93
2, 19536, Note_off_c, 0, 74, 0
2, 19536, Note_on_c, 0, 76, 93
2, 19584, Note_off_c, 0, 76, 0
2, 19584, Note_on_c, 0, 77, 93
2, 19680, Note_off_c, 0, 77, 0
2, 19680, Note_on_c, 0, 77, 93
2, 19728, Note_off_c, 0, 77, 0
2, 19728, Note_on_c, 0, 76, 93
2, 19776, Note_off_c, 0, 76, 0
2, 19776, Note_on_c, 0, 77, 93
2, 19872, Note_off_c, 0, 77, 0
2, 19872, Note_on_c, 0, 79, 93
2, 19920, Note_off_c, 0, 79, 0
2, 19920, Note_on_c, 0, 77, 93
2, 19968, Note_off_c, 0, 77, 0
2, 19968, Note_on_c, 0, 76, 93
2, 20064, Note_off_c, 0, 76, 0
2, 20352, Note_on_c, 0, 76, 93
2, 20448, Note_off_c, 0, 76, 0
2, 20640, Note_on_c, 0, 76, 93
2, 20736, Note_off_c, 0, 76, 0
2, 20736, Note_on_c, 0, 77, 93
2, 20832, Note_off_c, 0, 77, 0
2, 21120, Note_on_c, 0, 78, 93
2, 21216, Note_off_c, 0, 78, 0
2, 21408, Note_on_c, 0, 78, 93
2, 21504, Note_off_c, 0, 78, 0
2, 21504, Note_on_c, 0, 79, 93
2, 21600, Note_off_c, 0, 79, 0
2, 21696, Note_on_c, 0, 79, 93
2, 21888, Note_off_c, 0, 79, 0
2, 21888, Note_on_c, 0, 79, 93
2, 22080, Note_off_c, 0, 79, 0
2, 22080, Note_on_c, 0, 77, 93
2, 22272, Note_off_c, 0, 77, 0
2, 22272, Note_on_c, 0, 77, 93
2, 22464, Note_off_c, 0, 77, 0
2, 22464, Note_on_c, 0, 76, 93
2, 22656, Note_off_c, 0, 76, 0
2, 22656, Note_on_c, 0, 76, 93
2, 22752, Note_off_c, 0, 76, 0
2, 37824, Note_on_c, 0, 81, 93
2, 38016, Note_off_c, 0, 81, 0
2, 38016, Note_on_c, 0, 82, 93
2, 38112, Note_off_c, 0, 82, 0
2, 38112, Note_on_c, 0, 81, 93
2, 38160, Note_off_c, 0, 81, 0
2, 38160, Note_on_c, 0, 79, 93
2, 38208, Note_off_c, 0, 79, 0
2, 38208, Note_on_c, 0, 77, 93
2, 38304, Note_off_c, 0, 77, 0
2, 38304, Note_on_c, 0, 79, 93
2, 38400, Note_off_c, 0, 79, 0
2, 38400, Note_on_c, 0, 81, 93
2, 38592, Note_off_c, 0, 81, 0
2, 38592, Note_on_c, 0, 76, 93
2, 38688, Note_off_c, 0, 76, 0
2, 38688, Note_on_c, 0, 77, 93
2, 38784, Note_off_c, 0, 77, 0
2, 38784, Note_on_c, 0, 79, 93
2, 38880, Note_off_c, 0, 79, 0
2, 38880, Note_on_c, 0, 77, 93
2, 38976, Note_off_c, 0, 77, 0
2, 38976, Note_on_c, 0, 79, 93
2, 39072, Note_off_c, 0, 79, 0
2, 39072, Note_on_c, 0, 81, 93
2, 39120, Note_off_c, 0, 81, 0
2, 39120, Note_on_c, 0, 79, 93
2, 39168, Note_off_c, 0, 79, 0
2, 39168, Note_on_c, 0, 77, 93
2, 39360, Note_off_c, 0, 77, 0
2, 39360, Note_on_c, 0, 82, 93
2, 39648, Note_off_c, 0, 82, 0
2, 39648, Note_on_c, 0, 81, 93
2, 39696, Note_off_c, 0, 81, 0
2, 39696, Note_on_c, 0, 79, 93
2, 39744, Note_off_c, 0, 79, 0
2, 39744, Note_on_c, 0, 81, 93
2, 39792, Note_off_c, 0, 81, 0
2, 39792, Note_on_c, 0, 82, 93
2, 39840, Note_off_c, 0, 82, 0
2, 39840, Note_on_c, 0, 81, 93
2, 39888, Note_off_c, 0, 81, 0
2, 39888, Note_on_c, 0, 79, 93
2, 39936, Note_off_c, 0, 79, 0
2, 39936, Note_on_c, 0, 78, 93
2, 40128, Note_off_c, 0, 78, 0
2, 40128, Note_on_c, 0, 79, 93
2, 40416, Note_off_c, 0, 79, 0
2, 40416, Note_on_c, 0, 77, 93
2, 40464, Note_off_c, 0, 77, 0
2, 40464, Note_on_c, 0, 76, 93
2, 40512, Note_off_c, 0, 76, 0
2, 40512, Note_on_c, 0, 77, 93
2, 40704, Note_off_c, 0, 77, 0
2, 40704, Note_on_c, 0, 76, 93
2, 40896, Note_off_c, 0, 76, 0
2, 40896, Note_on_c, 0, 81, 93
2, 41088, Note_off_c, 0, 81, 0
2, 42048, Note_on_c, 0, 64, 93
2, 42144, Note_off_c, 0, 64, 0
2, 42624, Note_on_c, 0, 66, 93
2, 42816, Note_off_c, 0, 66, 0
2, 42816, Note_on_c, 0, 65, 93
2, 43008, Note_off_c, 0, 65, 0
2, 43008, Note_on_c, 0, 64, 93
2, 43200, Note_off_c, 0, 64, 0
2, 43200, Note_on_c, 0, 66, 93
2, 43392, Note_off_c, 0, 66, 0
2, 43392, Note_on_c, 0, 67, 93
2, 43584, Note_off_c, 0, 67, 0
2, 43584, Note_on_c, 0, 67, 93
2, 43776, Note_off_c, 0, 67, 0
2, 43776, Note_on_c, 0, 69, 93
2, 43872, Note_off_c, 0, 69, 0
2, 43872, Note_on_c, 0, 67, 93
2, 43920, Note_off_c, 0, 67, 0
2, 43920, Note_on_c, 0, 65, 93
2, 43968, Note_off_c, 0, 65, 0
2, 43968, Note_on_c, 0, 64, 93
2, 44064, Note_off_c, 0, 64, 0
2, 44064, Note_on_c, 0, 66, 93
2, 44160, Note_off_c, 0, 66, 0
2, 44160, Note_on_c, 0, 67, 93
2, 44352, Note_off_c, 0, 67, 0
2, 44352, Note_on_c, 0, 62, 93
2, 44448, Note_off_c, 0, 62, 0
2, 44448, Note_on_c, 0, 64, 93
2, 44544, Note_off_c, 0, 64, 0
2, 44544, Note_on_c, 0, 65, 93
2, 44640, Note_off_c, 0, 65, 0
2, 44640, Note_on_c, 0, 64, 93
2, 44736, Note_off_c, 0, 64, 0
2, 44736, Note_on_c, 0, 65, 93
2, 44832, Note_off_c, 0, 65, 0
2, 44832, Note_on_c, 0, 67, 93
2, 44880, Note_off_c, 0, 67, 0
2, 44880, Note_on_c, 0, 65, 93
2, 44928, Note_off_c, 0, 65, 0
2, 44928, Note_on_c, 0, 64, 93
2, 45120, Note_off_c, 0, 64, 0
2, 45120, Note_on_c, 0, 64, 93
2, 45216, Note_off_c, 0, 64, 0
2, 45216, Note_on_c, 0, 66, 93
2, 45312, Note_off_c, 0, 66, 0
2, 45312, Note_on_c, 0, 67, 93
2, 45408, Note_off_c, 0, 67, 0
2, 45408, Note_on_c, 0, 66, 93
2, 45504, Note_off_c, 0, 66, 0
2, 45504, Note_on_c, 0, 67, 93
2, 45600, Note_off_c, 0, 67, 0
2, 45600, Note_on_c, 0, 69, 93
2, 45648, Note_off_c, 0, 69, 0
2, 45648, Note_on_c, 0, 67, 93
2, 45696, Note_off_c, 0, 67, 0
2, 45696, Note_on_c, 0, 65, 93
2, 45888, Note_off_c, 0, 65, 0
2, 45888, Note_on_c, 0, 65, 93
2, 45984, Note_off_c, 0, 65, 0
2, 45984, Note_on_c, 0, 67, 93
2, 46032, Note_off_c, 0, 67, 0
2, 46032, Note_on_c, 0, 65, 93
2, 46080, Note_off_c, 0, 65, 0
2, 46080, Note_on_c, 0, 64, 93
2, 46272, Note_off_c, 0, 64, 0
2, 46272, Note_on_c, 0, 64, 93
2, 46368, Note_off_c, 0, 64, 0
2, 46368, Note_on_c, 0, 65, 93
2, 46416, Note_off_c, 0, 65, 0
2, 46416, Note_on_c, 0, 64, 93
2, 46464, Note_off_c, 0, 64, 0
2, 46464, Note_on_c, 0, 62, 93
2, 46656, Note_off_c, 0, 62, 0
2, 46656, Note_on_c, 0, 67, 93
2, 46848, Note_off_c, 0, 67, 0
2, 46848, Note_on_c, 0, 67, 93
2, 46944, Note_off_c, 0, 67, 0
2, 48384, Note_on_c, 0, 64, 93
2, 48576, Note_off_c, 0, 64, 0
2, 48768, Note_on_c, 0, 68, 93
2, 48960, Note_off_c, 0, 68, 0
2, 48960, Note_on_c, 0, 64, 93
2, 49152, Note_off_c, 0, 64, 0
2, 49152, Note_on_c, 0, 66, 93
2, 49248, Note_off_c, 0, 66, 0
2, 49248, Note_on_c, 0, 64, 93
2, 49344, Note_off_c, 0, 64, 0
2, 49344, Note_on_c, 0, 66, 93
2, 49440, Note_off_c, 0, 66, 0
2, 49440, Note_on_c, 0, 68, 93
2, 49536, Note_off_c, 0, 68, 0
2, 49536, Note_on_c, 0, 69, 93
2, 49728, Note_off_c, 0, 69, 0
2, 49728, Note_on_c, 0, 64, 93
2, 49824, Note_off_c, 0, 64, 0
2, 49824, Note_on_c, 0, 66, 93
2, 49920, Note_off_c, 0, 66, 0
2, 49920, Note_on_c, 0, 67, 93
2, 50016, Note_off_c, 0, 67, 0
2, 50016, Note_on_c, 0, 66, 93
2, 50112, Note_off_c, 0, 66, 0
2, 50112, Note_on_c, 0, 67, 93
2, 50208, Note_off_c, 0, 67, 0
2, 50208, Note_on_c, 0, 69, 93
2, 50256, Note_off_c, 0, 69, 0
2, 50256, Note_on_c, 0, 67, 93
2, 50304, Note_off_c, 0, 67, 0
2, 50304, Note_on_c, 0, 66, 93
2, 50496, Note_off_c, 0, 66, 0
2, 50496, Note_on_c, 0, 65, 93
2, 50688, Note_off_c, 0, 65, 0
2, 50688, Note_on_c, 0, 64, 93
2, 50880, Note_off_c, 0, 64, 0
2, 50880, Note_on_c, 0, 66, 93
2, 51072, Note_off_c, 0, 66, 0
2, 51072, Note_on_c, 0, 67, 93
2, 51168, Note_off_c, 0, 67, 0
2, 51168, Note_on_c, 0, 65, 93
2, 51216, Note_off_c, 0, 65, 0
2, 51216, Note_on_c, 0, 64, 93
2, 51264, Note_off_c, 0, 64, 0
2, 51264, Note_on_c, 0, 62, 93
2, 51360, Note_off_c, 0, 62, 0
2, 51360, Note_on_c, 0, 64, 93
2, 51456, Note_off_c, 0, 64, 0
2, 51456, Note_on_c, 0, 65, 93
2, 51552, Note_off_c, 0, 65, 0
2, 51552, Note_on_c, 0, 64, 93
2, 51648, Note_off_c, 0, 64, 0
2, 51648, Note_on_c, 0, 65, 93
2, 51744, Note_off_c, 0, 65, 0
2, 51744, Note_on_c, 0, 67, 93
2, 51792, Note_off_c, 0, 67, 0
2, 51792, Note_on_c, 0, 65, 93
2, 51840, Note_off_c, 0, 65, 0
2, 51840, Note_on_c, 0, 64, 93
2, 52032, Note_off_c, 0, 64, 0
2, 52032, Note_on_c, 0, 62, 93
2, 52128, Note_off_c, 0, 62, 0
2, 52128, Note_on_c, 0, 64, 93
2, 52224, Note_off_c, 0, 64, 0
2, 52224, Note_on_c, 0, 65, 93
2, 52320, Note_off_c, 0, 65, 0
2, 52320, Note_on_c, 0, 67, 93
2, 52416, Note_off_c, 0, 67, 0
2, 52416, Note_on_c, 0, 69, 93
2, 52608, Note_off_c, 0, 69, 0
2, 52608, Note_on_c, 0, 62, 93
2, 52800, Note_off_c, 0, 62, 0
2, 53184, Note_on_c, 0, 69, 93
2, 53280, Note_off_c, 0, 69, 0
2, 53280, Note_on_c, 0, 71, 93
2, 53376, Note_off_c, 0, 71, 0
2, 53376, Note_on_c, 0, 72, 93
2, 53472, Note_off_c, 0, 72, 0
2, 53472, Note_on_c, 0, 71, 93
2, 53568, Note_off_c, 0, 71, 0
2, 53568, Note_on_c, 0, 64, 93
2, 53664, Note_off_c, 0, 64, 0
2, 53664, Note_on_c, 0, 65, 93
2, 53760, Note_off_c, 0, 65, 0
2, 53760, Note_on_c, 0, 67, 93
2, 53856, Note_off_c, 0, 67, 0
2, 53856, Note_on_c, 0, 65, 93
2, 53952, Note_off_c, 0, 65, 0
2, 53952, Note_on_c, 0, 59, 93
2, 54048, Note_off_c, 0, 59, 0
2, 54048, Note_on_c, 0, 60, 93
2, 54144, Note_off_c, 0, 60, 0
2, 54144, Note_on_c, 0, 62, 93
2, 54240, Note_off_c, 0, 62, 0
2, 54240, Note_on_c, 0, 60, 93
2, 54336, Note_off_c, 0, 60, 0
2, 54336, Note_on_c, 0, 62, 93
2, 54432, Note_off_c, 0, 62, 0
2, 54432, Note_on_c, 0, 64, 93
2, 54480, Note_off_c, 0, 64, 0
2, 54480, Note_on_c, 0, 62, 93
2, 54528, Note_off_c, 0, 62, 0
2, 54528, Note_on_c, 0, 60, 93
2, 54624, Note_off_c, 0, 60, 0
2, 54624, Note_on_c, 0, 58, 93
2, 54720, Note_off_c, 0, 58, 0
2, 54720, Note_on_c, 0, 60, 93
2, 54816, Note_off_c, 0, 60, 0
2, 54816, Note_on_c, 0, 62, 93
2, 54864, Note_off_c, 0, 62, 0
2, 54864, Note_on_c, 0, 60, 93
2, 54912, Note_off_c, 0, 60, 0
2, 54912, Note_on_c, 0, 58, 93
2, 55104, Note_off_c, 0, 58, 0
2, 55104, Note_on_c, 0, 58, 93
2, 55296, Note_off_c, 0, 58, 0
2, 55296, Note_on_c, 0, 57, 93
2, 55488, Note_off_c, 0, 57, 0
2, 55488, Note_on_c, 0, 55, 93
2, 55680, Note_off_c, 0, 55, 0
2, 55680, Note_on_c, 0, 55, 93
2, 55776, Note_off_c, 0, 55, 0
2, 55776, Note_on_c, 0, 57, 93
2, 55872, Note_off_c, 0, 57, 0
2, 55872, Note_on_c, 0, 58, 93
2, 56064, Note_off_c, 0, 58, 0
2, 56064, Note_on_c, 0, 55, 93
2, 56256, Note_off_c, 0, 55, 0
2, 56256, Note_on_c, 0, 57, 93
2, 56448, Note_off_c, 0, 57, 0
2, 56448, Note_on_c, 0, 62, 93
2, 56640, Note_off_c, 0, 62, 0
2, 59328, Note_on_c, 0, 55, 93
2, 59520, Note_off_c, 0, 55, 0
2, 59520, Note_on_c, 0, 62, 93
2, 59712, Note_off_c, 0, 62, 0
2, 59712, Note_on_c, 0, 55, 93
2, 59904, Note_off_c, 0, 55, 0
2, 59904, Note_on_c, 0, 60, 93
2, 60096, Note_off_c, 0, 60, 0
2, 60096, Note_on_c, 0, 60, 93
2, 60288, Note_off_c, 0, 60, 0
2, 60288, Note_on_c, 0, 59, 93
2, 60480, Note_off_c, 0, 59, 0
2, 60480, Note_on_c, 0, 59, 93
2, 60672, Note_off_c, 0, 59, 0
2, 60672, Note_on_c, 0, 57, 93
2, 60864, Note_off_c, 0, 57, 0
2, 60864, Note_on_c, 0, 60, 93
2, 61056, Note_off_c, 0, 60, 0
2, 61056, Note_on_c, 0, 55, 93
2, 61248, Note_off_c, 0, 55, 0
2, 61248, Note_on_c, 0, 59, 93
2, 61440, Note_off_c, 0, 59, 0
2, 61440, Note_on_c, 0, 57, 93
2, 61632, Note_off_c, 0, 57, 0
2, 61632, Note_on_c, 0, 59, 93
2, 61824, Note_off_c, 0, 59, 0
2, 62208, Note_on_c, 0, 64, 93
2, 62400, Note_off_c, 0, 64, 0
2, 62592, Note_on_c, 0, 64, 93
2, 62784, Note_off_c, 0, 64, 0
2, 62880, Note_on_c, 0, 64, 93
2, 62976, Note_off_c, 0, 64, 0
2, 62976, Note_on_c, 0, 64, 93
2, 63168, Note_off_c, 0, 64, 0
2, 71616, Note_on_c, 0, 79, 93
2, 71712, Note_off_c, 0, 79, 0
2, 71712, Note_on_c, 0, 81, 93
2, 71808, Note_off_c, 0, 81, 0
2, 71808, Note_on_c, 0, 83, 93
2, 71904, Note_off_c, 0, 83, 0
2, 71904, Note_on_c, 0, 81, 93
2, 71952, Note_off_c, 0, 81, 0
2, 71952, Note_on_c, 0, 79, 93
2, 72000, Note_off_c, 0, 79, 0
2, 72000, Note_on_c, 0, 78, 93
2, 72096, Note_off_c, 0, 78, 0
2, 72096, Note_on_c, 0, 79, 93
2, 72192, Note_off_c, 0, 79, 0
2, 72192, Note_on_c, 0, 81, 93
2, 72384, Note_off_c, 0, 81, 0
2, 72384, Note_on_c, 0, 76, 93
2, 72480, Note_off_c, 0, 76, 0
2, 72480, Note_on_c, 0, 78, 93
2, 72576, Note_off_c, 0, 78, 0
2, 72576, Note_on_c, 0, 79, 93
2, 72672, Note_off_c, 0, 79, 0
2, 72672, Note_on_c, 0, 78, 93
2, 72768, Note_off_c, 0, 78, 0
2, 72768, Note_on_c, 0, 79, 93
2, 72864, Note_off_c, 0, 79, 0
2, 72864, Note_on_c, 0, 81, 93
2, 72912, Note_off_c, 0, 81, 0
2, 72912, Note_on_c, 0, 79, 93
2, 72960, Note_off_c, 0, 79, 0
2, 72960, Note_on_c, 0, 78, 93
2, 73056, Note_off_c, 0, 78, 0
2, 73056, Note_on_c, 0, 79, 93
2, 73152, Note_off_c, 0, 79, 0
2, 73152, Note_on_c, 0, 81, 93
2, 73248, Note_off_c, 0, 81, 0
2, 73248, Note_on_c, 0, 81, 93
2, 73344, Note_off_c, 0, 81, 0
2, 73344, Note_on_c, 0, 79, 93
2, 73440, Note_off_c, 0, 79, 0
2, 73440, Note_on_c, 0, 81, 93
2, 73536, Note_off_c, 0, 81, 0
2, 73536, Note_on_c, 0, 83, 93
2, 73632, Note_off_c, 0, 83, 0
2, 73632, Note_on_c, 0, 83, 93
2, 73728, Note_off_c, 0, 83, 0
2, 73728, Note_on_c, 0, 81, 93
2, 73824, Note_off_c, 0, 81, 0
2, 73824, Note_on_c, 0, 83, 93
2, 73920, Note_off_c, 0, 83, 0
2, 73920, Note_on_c, 0, 84, 93
2, 74016, Note_off_c, 0, 84, 0
2, 74016, Note_on_c, 0, 84, 93
2, 74112, Note_off_c, 0, 84, 0
2, 74112, Note_on_c, 0, 83, 93
2, 74208, Note_off_c, 0, 83, 0
2, 74208, Note_on_c, 0, 84, 93
2, 74304, Note_off_c, 0, 84, 0
2, 74304, Note_on_c, 0, 86, 93
2, 74400, Note_off_c, 0, 86, 0
2, 74400, Note_on_c, 0, 86, 93
2, 74496, Note_off_c, 0, 86, 0
2, 74496, Note_on_c, 0, 88, 93
2, 74592, Note_off_c, 0, 88, 0
2, 74592, Note_on_c, 0, 86, 93
2, 74640, Note_off_c, 0, 86, 0
2, 74640, Note_on_c, 0, 84, 93
2, 74688, Note_off_c, 0, 84, 0
2, 74688, Note_on_c, 0, 83, 93
2, 74784, Note_off_c, 0, 83, 0
2, 74784, Note_on_c, 0, 85, 93
2, 74880, Note_off_c, 0, 85, 0
2, 74880, Note_on_c, 0, 86, 93
2, 74976, Note_off_c, 0, 86, 0
2, 74976, Note_on_c, 0, 86, 93
2, 75072, Note_off_c, 0, 86, 0
2, 75072, Note_on_c, 0, 81, 93
2, 75168, Note_off_c, 0, 81, 0
2, 75168, Note_on_c, 0, 83, 93
2, 75264, Note_off_c, 0, 83, 0
2, 75264, Note_on_c, 0, 84, 93
2, 75360, Note_off_c, 0, 84, 0
2, 75360, Note_on_c, 0, 83, 93
2, 75456, Note_off_c, 0, 83, 0
2, 75456, Note_on_c, 0, 84, 93
2, 75552, Note_off_c, 0, 84, 0
2, 75552, Note_on_c, 0, 86, 93
2, 75600, Note_off_c, 0, 86, 0
2, 75600, Note_on_c, 0, 84, 93
2, 75648, Note_off_c, 0, 84, 0
2, 75648, Note_on_c, 0, 83, 93
2, 75744, Note_off_c, 0, 83, 0
2, 75744, Note_on_c, 0, 81, 93
2, 75840, Note_off_c, 0, 81, 0
2, 75840, Note_on_c, 0, 83, 93
2, 75936, Note_off_c, 0, 83, 0
2, 75936, Note_on_c, 0, 83, 93
2, 76032, Note_off_c, 0, 83, 0
2, 76032, Note_on_c, 0, 83, 93
2, 76128, Note_off_c, 0, 83, 0
2, 76128, Note_on_c, 0, 83, 93
2, 76224, Note_off_c, 0, 83, 0
2, 76224, Note_on_c, 0, 81, 93
2, 76320, Note_off_c, 0, 81, 0
2, 76320, Note_on_c, 0, 81, 93
2, 76416, Note_off_c, 0, 81, 0
2, 76416, Note_on_c, 0, 81, 93
2, 76512, Note_off_c, 0, 81, 0
2, 76512, Note_on_c, 0, 81, 93
2, 76608, Note_off_c, 0, 81, 0
2, 76608, Note_on_c, 0, 79, 93
2, 76704, Note_off_c, 0, 79, 0
2, 76704, Note_on_c, 0, 79, 93
2, 76800, Note_off_c, 0, 79, 0
2, 76800, Note_on_c, 0, 79, 93
2, 76896, Note_off_c, 0, 79, 0
2, 76896, Note_on_c, 0, 79, 93
2, 76992, Note_off_c, 0, 79, 0
2, 76992, Note_on_c, 0, 78, 93
2, 77088, Note_off_c, 0, 78, 0
2, 77088, Note_on_c, 0, 78, 93
2, 77184, Note_off_c, 0, 78, 0
2, 77184, Note_on_c, 0, 79, 93
2, 77376, Note_off_c, 0, 79, 0
2, 80448, Note_on_c, 0, 79, 93
2, 80640, Note_off_c, 0, 79, 0
2, 80640, Note_on_c, 0, 76, 93
2, 80736, Note_off_c, 0, 76, 0
2, 80736, Note_on_c, 0, 77, 93
2, 80784, Note_off_c, 0, 77, 0
2, 80784, Note_on_c, 0, 79, 93
2, 80832, Note_off_c, 0, 79, 0
2, 80832, Note_on_c, 0, 81, 93
2, 80928, Note_off_c, 0, 81, 0
2, 80928, Note_on_c, 0, 79, 93
2, 81024, Note_off_c, 0, 79, 0
2, 81024, Note_on_c, 0, 77, 93
2, 81216, Note_off_c, 0, 77, 0
2, 81216, Note_on_c, 0, 82, 93
2, 81312, Note_off_c, 0, 82, 0
2, 81312, Note_on_c, 0, 81, 93
2, 81408, Note_off_c, 0, 81, 0
2, 81408, Note_on_c, 0, 79, 93
2, 81504, Note_off_c, 0, 79, 0
2, 81504, Note_on_c, 0, 81, 93
2, 81552, Note_off_c, 0, 81, 0
2, 81552, Note_on_c, 0, 79, 93
2, 81600, Note_off_c, 0, 79, 0
2, 81600, Note_on_c, 0, 77, 93
2, 81696, Note_off_c, 0, 77, 0
2, 81696, Note_on_c, 0, 79, 93
2, 81792, Note_off_c, 0, 79, 0
2, 81792, Note_on_c, 0, 81, 93
2, 81984, Note_off_c, 0, 81, 0
2, 82368, Note_on_c, 0, 79, 93
2, 82560, Note_off_c, 0, 79, 0
2, 82560, Note_on_c, 0, 80, 93
2, 82752, Note_off_c, 0, 80, 0
2, 82752, Note_on_c, 0, 81, 93
2, 82944, Note_off_c, 0, 81, 0
2, 82944, Note_on_c, 0, 82, 93
2, 83136, Note_off_c, 0, 82, 0
2, 83232, Note_on_c, 0, 83, 93
2, 83328, Note_off_c, 0, 83, 0
2, 83328, Note_on_c, 0, 84, 93
2, 83424, Note_off_c, 0, 84, 0
2, 83424, Note_on_c, 0, 82, 93
2, 83520, Note_off_c, 0, 82, 0
2, 83520, Note_on_c, 0, 81, 93
2, 83616, Note_off_c, 0, 81, 0
2, 83616, Note_on_c, 0, 79, 93
2, 83712, Note_off_c, 0, 79, 0
2, 83712, Note_on_c, 0, 78, 93
2, 83808, Note_off_c, 0, 78, 0
2, 83808, Note_on_c, 0, 76, 93
2, 83856, Note_off_c, 0, 76, 0
2, 83856, Note_on_c, 0, 74, 93
2, 83904, Note_off_c, 0, 74, 0
2, 83904, Note_on_c, 0, 79, 93
2, 84096, Note_off_c, 0, 79, 0
2, 84096, Note_on_c, 0, 64, 93
2, 84288, Note_off_c, 0, 64, 0
2, 84384, Note_on_c, 0, 64, 93
2, 84480, Note_off_c, 0, 64, 0
2, 84480, Note_on_c, 0, 62, 93
2, 84672, Note_off_c, 0, 62, 0
2, 84672, Note_on_c, 0, 62, 93
2, 84864, Note_off_c, 0, 62, 0
2, 84864, Note_on_c, 0, 62, 93
2, 85056, Note_off_c, 0, 62, 0
2, 85056, Note_on_c, 0, 60, 93
2, 85152, Note_off_c, 0, 60, 0
2, 85152, Note_on_c, 0, 59, 93
2, 85200, Note_off_c, 0, 59, 0
2, 85200, Note_on_c, 0, 57, 93
2, 85248, Note_off_c, 0, 57, 0
2, 85248, Note_on_c, 0, 63, 93
2, 85440, Note_off_c, 0, 63, 0
2, 85536, Note_on_c, 0, 63, 93
2, 85632, Note_off_c, 0, 63, 0
2, 85632, Note_on_c, 0, 64, 93
2, 85728, Note_off_c, 0, 64, 0
2, 86016, Note_on_c, 0, 64, 93
2, 86208, Note_off_c, 0, 64, 0
2, 86784, Note_on_c, 0, 64, 93
2, 86976, Note_off_c, 0, 64, 0
2, 86976, Note_on_c, 0, 62, 93
2, 87168, Note_off_c, 0, 62, 0
2, 87168, Note_on_c, 0, 59, 93
2, 87360, Note_off_c, 0, 59, 0
2, 87360, Note_on_c, 0, 60, 93
2, 87552, Note_off_c, 0, 60, 0
2, 87744, Note_on_c, 0, 55, 93
2, 87936, Note_off_c, 0, 55, 0
2, 91200, Note_on_c, 0, 79, 93
2, 91296, Note_off_c, 0, 79, 0
2, 91296, Note_on_c, 0, 77, 93
2, 91392, Note_off_c, 0, 77, 0
2, 91392, Note_on_c, 0, 76, 93
2, 91488, Note_off_c, 0, 76, 0
2, 91488, Note_on_c, 0, 77, 93
2, 91536, Note_off_c, 0, 77, 0
2, 91536, Note_on_c, 0, 76, 93
2, 91584, Note_off_c, 0, 76, 0
2, 91584, Note_on_c, 0, 74, 93
2, 91680, Note_off_c, 0, 74, 0
2, 91680, Note_on_c, 0, 76, 93
2, 91776, Note_off_c, 0, 76, 0
2, 91776, Note_on_c, 0, 77, 93
2, 91968, Note_off_c, 0, 77, 0
2, 91968, Note_on_c, 0, 77, 93
2, 92064, Note_off_c, 0, 77, 0
2, 92064, Note_on_c, 0, 77, 93
2, 92160, Note_off_c, 0, 77, 0
2, 92160, Note_on_c, 0, 77, 93
2, 92256, Note_off_c, 0, 77, 0
2, 92352, Note_on_c, 0, 76, 93
2, 92448, Note_off_c, 0, 76, 0
2, 92544, Note_on_c, 0, 75, 93
2, 92640, Note_off_c, 0, 75, 0
2, 92640, Note_on_c, 0, 74, 93
2, 92688, Note_off_c, 0, 74, 0
2, 92688, Note_on_c, 0, 72, 93
2, 92736, Note_off_c, 0, 72, 0
2, 92736, Note_on_c, 0, 81, 93
2, 92832, Note_off_c, 0, 81, 0
2, 92832, Note_on_c, 0, 79, 93
2, 92928, Note_off_c, 0, 79, 0
2, 92928, Note_on_c, 0, 78, 93
2, 93024, Note_off_c, 0, 78, 0
2, 93024, Note_on_c, 0, 79, 93
2, 93072, Note_off_c, 0, 79, 0
2, 93072, Note_on_c, 0, 78, 93
2, 93120, Note_off_c, 0, 78, 0
2, 93120, Note_on_c, 0, 76, 93
2, 93168, Note_off_c, 0, 76, 0
2, 93168, Note_on_c, 0, 79, 93
2, 93216, Note_off_c, 0, 79, 0
2, 93216, Note_on_c, 0, 78, 93
2, 93264, Note_off_c, 0, 78, 0
2, 93264, Note_on_c, 0, 81, 93
2, 93312, Note_off_c, 0, 81, 0
2, 93312, Note_on_c, 0, 79, 93
2, 93408, Note_off_c, 0, 79, 0
2, 93408, Note_on_c, 0, 74, 93
2, 93504, Note_off_c, 0, 74, 0
2, 93504, Note_on_c, 0, 72, 93
2, 93600, Note_off_c, 0, 72, 0
2, 93600, Note_on_c, 0, 72, 93
2, 93696, Note_off_c, 0, 72, 0
2, 93696, Note_on_c, 0, 72, 93
2, 93840, Note_off_c, 0, 72, 0
2, 93840, Note_on_c, 0, 74, 93
2, 93888, Note_off_c, 0, 74, 0
2, 93888, Note_on_c, 0, 71, 93
2, 94032, Note_off_c, 0, 71, 0
2, 94032, Note_on_c, 0, 72, 93
2, 94080, Note_off_c, 0, 72, 0
2, 94080, Note_on_c, 0, 72, 93
2, 94176, Note_off_c, 0, 72, 0
2, 110304, Note_on_c, 0, 79, 93
2, 110400, Note_off_c, 0, 79, 0
2, 110400, Note_on_c, 0, 79, 93
2, 110496, Note_off_c, 0, 79, 0
2, 110496, Note_on_c, 0, 78, 93
2, 110592, Note_off_c, 0, 78, 0
2, 110592, Note_on_c, 0, 79, 93
2, 110784, Note_off_c, 0, 79, 0
2, 112320, Note_on_c, 0, 72, 93
2, 112416, Note_off_c, 0, 72, 0
2, 112416, Note_on_c, 0, 74, 93
2, 112512, Note_off_c, 0, 74, 0
2, 112512, Note_on_c, 0, 76, 93
2, 112608, Note_off_c, 0, 76, 0
2, 112608, Note_on_c, 0, 74, 93
2, 112656, Note_off_c, 0, 74, 0
2, 112656, Note_on_c, 0, 72, 93
2, 112704, Note_off_c, 0, 72, 0
2, 112704, Note_on_c, 0, 71, 93
2, 112800, Note_off_c, 0, 71, 0
2, 112800, Note_on_c, 0, 72, 93
2, 112896, Note_off_c, 0, 72, 0
2, 112896, Note_on_c, 0, 74, 93
2, 113088, Note_off_c, 0, 74, 0
2, 113088, Note_on_c, 0, 69, 93
2, 113184, Note_off_c, 0, 69, 0
2, 113184, Note_on_c, 0, 71, 93
2, 113280, Note_off_c, 0, 71, 0
2, 113280, Note_on_c, 0, 72, 93
2, 113376, Note_off_c, 0, 72, 0
2, 113376, Note_on_c, 0, 71, 93
2, 113472, Note_off_c, 0, 71, 0
2, 113472, Note_on_c, 0, 72, 93
2, 113568, Note_off_c, 0, 72, 0
2, 113568, Note_on_c, 0, 74, 93
2, 113616, Note_off_c, 0, 74, 0
2, 113616, Note_on_c, 0, 72, 93
2, 113664, Note_off_c, 0, 72, 0
2, 113664, Note_on_c, 0, 71, 93
2, 113856, Note_off_c, 0, 71, 0
2, 113856, Note_on_c, 0, 76, 93
2, 114240, Note_off_c, 0, 76, 0
2, 114240, Note_on_c, 0, 74, 93
2, 114528, Note_off_c, 0, 74, 0
2, 114528, Note_on_c, 0, 71, 93
2, 114624, Note_off_c, 0, 71, 0
2, 114624, Note_on_c, 0, 76, 93
2, 114720, Note_off_c, 0, 76, 0
2, 114720, Note_on_c, 0, 74, 93
2, 114816, Note_off_c, 0, 74, 0
2, 114816, Note_on_c, 0, 73, 93
2, 115008, Note_off_c, 0, 73, 0
2, 115008, Note_on_c, 0, 72, 93
2, 115200, Note_off_c, 0, 72, 0
2, 115200, Note_on_c, 0, 71, 93
2, 115392, Note_off_c, 0, 71, 0
2, 115392, Note_on_c, 0, 70, 93
2, 115584, Note_off_c, 0, 70, 0
2, 115584, Note_on_c, 0, 69, 93
2, 115680, Note_off_c, 0, 69, 0
2, 115680, Note_on_c, 0, 67, 93
2, 115776, Note_off_c, 0, 67, 0
2, 115776, Note_on_c, 0, 69, 93
2, 115872, Note_off_c, 0, 69, 0
2, 115872, Note_on_c, 0, 71, 93
2, 115968, Note_off_c, 0, 71, 0
2, 115968, Note_on_c, 0, 72, 93
2, 116160, Note_off_c, 0, 72, 0
2, 116160, Note_on_c, 0, 72, 93
2, 116352, Note_off_c, 0, 72, 0
2, 116352, Note_on_c, 0, 71, 93
2, 116544, Note_off_c, 0, 71, 0
2, 116544, Note_on_c, 0, 73, 93
2, 116736, Note_off_c, 0, 73, 0
2, 116736, Note_on_c, 0, 74, 93
2, 116928, Note_off_c, 0, 74, 0
2, 116928, Note_on_c, 0, 72, 93
2, 117024, Note_off_c, 0, 72, 0
2, 117024, Note_on_c, 0, 74, 93
2, 117120, Note_off_c, 0, 74, 0
2, 117120, Note_on_c, 0, 76, 93
2, 117216, Note_off_c, 0, 76, 0
2, 117216, Note_on_c, 0, 74, 93
2, 117264, Note_off_c, 0, 74, 0
2, 117264, Note_on_c, 0, 72, 93
2, 117312, Note_off_c, 0, 72, 0
2, 117312, Note_on_c, 0, 71, 93
2, 117408, Note_off_c, 0, 71, 0
2, 117408, Note_on_c, 0, 73, 93
2, 117504, Note_off_c, 0, 73, 0
2, 117504, Note_on_c, 0, 74, 93
2, 117696, Note_off_c, 0, 74, 0
2, 117696, Note_on_c, 0, 69, 93
2, 117792, Note_off_c, 0, 69, 0
2, 117792, Note_on_c, 0, 71, 93
2, 117888, Note_off_c, 0, 71, 0
2, 117888, Note_on_c, 0, 72, 93
2, 117984, Note_off_c, 0, 72, 0
2, 117984, Note_on_c, 0, 71, 93
2, 118080, Note_off_c, 0, 71, 0
2, 118080, Note_on_c, 0, 72, 93
2, 118176, Note_off_c, 0, 72, 0
2, 118176, Note_on_c, 0, 74, 93
2, 118224, Note_off_c, 0, 74, 0
2, 118224, Note_on_c, 0, 72, 93
2, 118272, Note_off_c, 0, 72, 0
2, 118272, Note_on_c, 0, 71, 93
2, 118464, Note_off_c, 0, 71, 0
2, 122304, Note_on_c, 0, 74, 93
2, 122496, Note_off_c, 0, 74, 0
2, 122496, Note_on_c, 0, 73, 93
2, 122688, Note_off_c, 0, 73, 0
2, 122688, Note_on_c, 0, 72, 93
2, 122880, Note_off_c, 0, 72, 0
2, 122880, Note_on_c, 0, 71, 93
2, 123072, Note_off_c, 0, 71, 0
2, 123072, Note_on_c, 0, 70, 93
2, 123264, Note_off_c, 0, 70, 0
2, 123264, Note_on_c, 0, 69, 93
2, 123456, Note_off_c, 0, 69, 0
2, 123456, Note_on_c, 0, 71, 93
2, 123648, Note_off_c, 0, 71, 0
2, 127680, Note_on_c, 0, 72, 93
2, 127776, Note_off_c, 0, 72, 0
2, 127776, Note_on_c, 0, 70, 93
2, 127872, Note_off_c, 0, 70, 0
2, 127872, Note_on_c, 0, 69, 93
2, 127920, Note_off_c, 0, 69, 0
2, 127920, Note_on_c, 0, 81, 93
2, 127968, Note_off_c, 0, 81, 0
2, 127968, Note_on_c, 0, 79, 93
2, 128016, Note_off_c, 0, 79, 0
2, 128016, Note_on_c, 0, 77, 93
2, 128064, Note_off_c, 0, 77, 0
2, 128064, Note_on_c, 0, 76, 93
2, 128160, Note_off_c, 0, 76, 0
2, 128160, Note_on_c, 0, 78, 93
2, 128256, Note_off_c, 0, 78, 0
2, 128256, Note_on_c, 0, 74, 93
2, 128304, Note_off_c, 0, 74, 0
2, 128544, Note_on_c, 0, 76, 93
2, 128640, Note_off_c, 0, 76, 0
2, 128640, Note_on_c, 0, 76, 93
2, 128736, Note_off_c, 0, 76, 0
2, 128736, Note_on_c, 0, 77, 93
2, 128784, Note_off_c, 0, 77, 0
2, 128784, Note_on_c, 0, 76, 93
2, 128832, Note_off_c, 0, 76, 0
2, 128832, Note_on_c, 0, 77, 93
2, 128928, Note_off_c, 0, 77, 0
2, 128928, Note_on_c, 0, 79, 93
2, 128976, Note_off_c, 0, 79, 0
2, 128976, Note_on_c, 0, 77, 93
2, 129024, Note_off_c, 0, 77, 0
2, 129024, Note_on_c, 0, 76, 93
2, 129120, Note_off_c, 0, 76, 0
2, 129408, Note_on_c, 0, 76, 93
2, 129504, Note_off_c, 0, 76, 0
2, 129600, Note_on_c, 0, 74, 93
2, 129696, Note_off_c, 0, 74, 0
2, 129792, Note_on_c, 0, 74, 93
2, 129888, Note_off_c, 0, 74, 0
2, 129888, Note_on_c, 0, 72, 93
2, 129936, Note_off_c, 0, 72, 0
2, 129936, Note_on_c, 0, 71, 93
2, 129984, Note_off_c, 0, 71, 0
2, 129984, Note_on_c, 0, 72, 93
2, 130080, Note_off_c, 0, 72, 0
2, 130080, Note_on_c, 0, 74, 93
2, 130128, Note_off_c, 0, 74, 0
2, 130128, Note_on_c, 0, 76, 93
2, 130176, Note_off_c, 0, 76, 0
2, 130176, Note_on_c, 0, 77, 93
2, 130272, Note_off_c, 0, 77, 0
2, 130272, Note_on_c, 0, 77, 93
2, 130320, Note_off_c, 0, 77, 0
2, 130320, Note_on_c, 0, 76, 93
2, 130368, Note_off_c, 0, 76, 0
2, 130368, Note_on_c, 0, 77, 93
2, 130464, Note_off_c, 0, 77, 0
2, 130464, Note_on_c, 0, 79, 93
2, 130512, Note_off_c, 0, 79, 0
2, 130512, Note_on_c, 0, 77, 93
2, 130560, Note_off_c, 0, 77, 0
2, 130560, Note_on_c, 0, 76, 93
2, 130656, Note_off_c, 0, 76, 0
2, 130944, Note_on_c, 0, 76, 93
2, 131040, Note_off_c, 0, 76, 0
2, 131232, Note_on_c, 0, 76, 93
2, 131328, Note_off_c, 0, 76, 0
2, 131328, Note_on_c, 0, 77, 93
2, 131424, Note_off_c, 0, 77, 0
2, 131712, Note_on_c, 0, 78, 93
2, 131808, Note_off_c, 0, 78, 0
2, 132000, Note_on_c, 0, 78, 93
2, 132096, Note_off_c, 0, 78, 0
2, 132096, Note_on_c, 0, 79, 93
2, 132192, Note_off_c, 0, 79, 0
2, 132288, Note_on_c, 0, 79, 93
2, 132480, Note_off_c, 0, 79, 0
2, 132480, Note_on_c, 0, 79, 93
2, 132672, Note_off_c, 0, 79, 0
2, 132672, Note_on_c, 0, 77, 93
2, 132864, Note_off_c, 0, 77, 0
2, 132864, Note_on_c, 0, 77, 93
2, 133056, Note_off_c, 0, 77, 0
2, 133056, Note_on_c, 0, 76, 93
2, 133248, Note_off_c, 0, 76, 0
2, 133248, Note_on_c, 0, 76, 93
2, 133344, Note_off_c, 0, 76, 0
2, 135936, Note_on_c, 0, 79, 93
2, 136128, Note_off_c, 0, 79, 0
2, 136128, End_track
3, 0, Start_track
3, 0, Title_t, "Track3"
3, 0, Program_c, 1, 40
3, 0, Control_c, 1, 7, 100
3, 0, Control_c, 1, 10, 59
3, 1728, Note_on_c, 1, 72, 93
3, 1920, Note_off_c, 1, 72, 0
3, 1920, Note_on_c, 1, 76, 93
3, 2016, Note_off_c, 1, 76, 0
3, 2016, Note_on_c, 1, 74, 93
3, 2064, Note_off_c, 1, 74, 0
3, 2064, Note_on_c, 1, 72, 93
3, 2112, Note_off_c, 1, 72, 0
3, 2112, Note_on_c, 1, 71, 93
3, 2208, Note_off_c, 1, 71, 0
3, 2208, Note_on_c, 1, 73, 93
3, 2304, Note_off_c, 1, 73, 0
3, 2304, Note_on_c, 1, 74, 93
3, 2496, Note_off_c, 1, 74, 0
3, 2496, Note_on_c, 1, 69, 93
3, 2592, Note_off_c, 1, 69, 0
3, 2592, Note_on_c, 1, 71, 93
3, 2688, Note_off_c, 1, 71, 0
3, 2688, Note_on_c, 1, 72, 93
3, 2784, Note_off_c, 1, 72, 0
3, 2784, Note_on_c, 1, 71, 93
3, 2880, Note_off_c, 1, 71, 0
3, 2880, Note_on_c, 1, 72, 93
3, 2976, Note_off_c, 1, 72, 0
3, 2976, Note_on_c, 1, 74, 93
3, 3024, Note_off_c, 1, 74, 0
3, 3024, Note_on_c, 1, 72, 93
3, 3072, Note_off_c, 1, 72, 0
3, 3072, Note_on_c, 1, 71, 93
3, 3168, Note_off_c, 1, 71, 0
3, 3168, Note_on_c, 1, 72, 93
3, 3216, Note_off_c, 1, 72, 0
3, 3216, Note_on_c, 1, 74, 93
3, 3264, Note_off_c, 1, 74, 0
3, 3264, Note_on_c, 1, 76, 93
3, 3648, Note_off_c, 1, 76, 0
3, 3648, Note_on_c, 1, 74, 93
3, 3936, Note_off_c, 1, 74, 0
3, 3936, Note_on_c, 1, 71, 93
3, 4032, Note_off_c, 1, 71, 0
3, 4032, Note_on_c, 1, 76, 93
3, 4128, Note_off_c, 1, 76, 0
3, 4128, Note_on_c, 1, 74, 93
3, 4224, Note_off_c, 1, 74, 0
3, 4224, Note_on_c, 1, 73, 93
3, 4416, Note_off_c, 1, 73, 0
3, 4416, Note_on_c, 1, 72, 93
3, 4608, Note_off_c, 1, 72, 0
3, 4608, Note_on_c, 1, 71, 93
3, 4800, Note_off_c, 1, 71, 0
3, 4800, Note_on_c, 1, 70, 93
3, 4992, Note_off_c, 1, 70, 0
3, 4992, Note_on_c, 1, 69, 93
3, 5088, Note_off_c, 1, 69, 0
3, 5088, Note_on_c, 1, 67, 93
3, 5184, Note_off_c, 1, 67, 0
3, 5184, Note_on_c, 1, 69, 93
3, 5280, Note_off_c, 1, 69, 0
3, 5280, Note_on_c, 1, 71, 93
3, 5376, Note_off_c, 1, 71, 0
3, 5376, Note_on_c, 1, 72, 93
3, 5568, Note_off_c, 1, 72, 0
3, 5568, Note_on_c, 1, 72, 93
3, 5760, Note_off_c, 1, 72, 0
3, 5760, Note_on_c, 1, 71, 93
3, 5952, Note_off_c, 1, 71, 0
3, 5952, Note_on_c, 1, 73, 93
3, 6144, Note_off_c, 1, 73, 0
3, 6144, Note_on_c, 1, 74, 93
3, 6336, Note_off_c, 1, 74, 0
3, 6336, Note_on_c, 1, 72, 93
3, 6432, Note_off_c, 1, 72, 0
3, 6432, Note_on_c, 1, 74, 93
3, 6528, Note_off_c, 1, 74, 0
3, 6528, Note_on_c, 1, 76, 93
3, 6624, Note_off_c, 1, 76, 0
3, 6624, Note_on_c, 1, 74, 93
3, 6672, Note_off_c, 1, 74, 0
3, 6672, Note_on_c, 1, 72, 93
3, 6720, Note_off_c, 1, 72, 0
3, 6720, Note_on_c, 1, 71, 93
3, 6816, Note_off_c, 1, 71, 0
3, 6816, Note_on_c, 1, 73, 93
3, 6912, Note_off_c, 1, 73, 0
3, 6912, Note_on_c, 1, 74, 93
3, 7104, Note_off_c, 1, 74, 0
3, 7104, Note_on_c, 1, 69, 93
3, 7200, Note_off_c, 1, 69, 0
3, 7200, Note_on_c, 1, 71, 93
3, 7296, Note_off_c, 1, 71, 0
3, 7296, Note_on_c, 1, 72, 93
3, 7392, Note_off_c, 1, 72, 0
3, 7392, Note_on_c, 1, 71, 93
3, 7488, Note_off_c, 1, 71, 0
3, 7488, Note_on_c, 1, 72, 93
3, 7584, Note_off_c, 1, 72, 0
3, 7584, Note_on_c, 1, 74, 93
3, 7632, Note_off_c, 1, 74, 0
3, 7632, Note_on_c, 1, 72, 93
3, 7680, Note_off_c, 1, 72, 0
3, 7680, Note_on_c, 1, 71, 93
3, 7872, Note_off_c, 1, 71, 0
3, 9408, Note_on_c, 1, 60, 93
3, 9600, Note_off_c, 1, 60, 0
3, 9600, Note_on_c, 1, 62, 93
3, 9696, Note_off_c, 1, 62, 0
3, 9696, Note_on_c, 1, 60, 93
3, 9744, Note_off_c, 1, 60, 0
3, 9744, Note_on_c, 1, 59, 93
3, 9792, Note_off_c, 1, 59, 0
3, 9792, Note_on_c, 1, 57, 93
3, 9888, Note_off_c, 1, 57, 0
3, 9888, Note_on_c, 1, 59, 93
3, 9984, Note_off_c, 1, 59, 0
3, 9984, Note_on_c, 1, 60, 93
3, 10176, Note_off_c, 1, 60, 0
3, 10176, Note_on_c, 1, 55, 93
3, 10272, Note_off_c, 1, 55, 0
3, 10272, Note_on_c, 1, 57, 93
3, 10368, Note_off_c, 1, 57, 0
3, 10368, Note_on_c, 1, 58, 93
3, 10464, Note_off_c, 1, 58, 0
3, 10464, Note_on_c, 1, 57, 93
3, 10560, Note_off_c, 1, 57, 0
3, 10560, Note_on_c, 1, 58, 93
3, 10656, Note_off_c, 1, 58, 0
3, 10656, Note_on_c, 1, 60, 93
3, 10704, Note_off_c, 1, 60, 0
3, 10704, Note_on_c, 1, 58, 93
3, 10752, Note_off_c, 1, 58, 0
3, 10752, Note_on_c, 1, 57, 93
3, 10944, Note_off_c, 1, 57, 0
3, 10944, Note_on_c, 1, 59, 93
3, 11136, Note_off_c, 1, 59, 0
3, 11136, Note_on_c, 1, 60, 93
3, 11232, Note_off_c, 1, 60, 0
3, 11232, Note_on_c, 1, 59, 93
3, 11328, Note_off_c, 1, 59, 0
3, 11328, Note_on_c, 1, 60, 93
3, 11424, Note_off_c, 1, 60, 0
3, 11424, Note_on_c, 1, 62, 93
3, 11472, Note_off_c, 1, 62, 0
3, 11472, Note_on_c, 1, 60, 93
3, 11520, Note_off_c, 1, 60, 0
3, 11520, Note_on_c, 1, 59, 93
3, 11616, Note_off_c, 1, 59, 0
3, 11616, Note_on_c, 1, 57, 93
3, 11712, Note_off_c, 1, 57, 0
3, 11712, Note_on_c, 1, 58, 93
3, 11904, Note_off_c, 1, 58, 0
3, 11904, Note_on_c, 1, 57, 93
3, 12096, Note_off_c, 1, 57, 0
3, 12288, Note_on_c, 1, 55, 93
3, 12480, Note_off_c, 1, 55, 0
3, 12672, Note_on_c, 1, 62, 93
3, 12864, Note_off_c, 1, 62, 0
3, 12864, Note_on_c, 1, 55, 93
3, 13056, Note_off_c, 1, 55, 0
3, 13056, Note_on_c, 1, 60, 93
3, 13152, Note_off_c, 1, 60, 0
3, 13440, Note_on_c, 1, 60, 93
3, 13536, Note_off_c, 1, 60, 0
3, 13728, Note_on_c, 1, 60, 93
3, 13824, Note_off_c, 1, 60, 0
3, 13824, Note_on_c, 1, 58, 93
3, 13920, Note_off_c, 1, 58, 0
3, 14208, Note_on_c, 1, 58, 93
3, 14304, Note_off_c, 1, 58, 0
3, 14496, Note_on_c, 1, 58, 93
3, 14592, Note_off_c, 1, 58, 0
3, 14592, Note_on_c, 1, 57, 93
3, 14688, Note_off_c, 1, 57, 0
3, 14976, Note_on_c, 1, 59, 93
3, 15024, Note_off_c, 1, 59, 0
3, 15360, Note_on_c, 1, 60, 93
3, 15456, Note_off_c, 1, 60, 0
3, 15744, Note_on_c, 1, 62, 93
3, 15792, Note_off_c, 1, 62, 0
3, 16128, Note_on_c, 1, 64, 93
3, 16176, Note_off_c, 1, 64, 0
3, 16512, Note_on_c, 1, 65, 93
3, 16560, Note_off_c, 1, 65, 0
3, 16896, Note_on_c, 1, 65, 93
3, 16944, Note_off_c, 1, 65, 0
3, 17088, Note_on_c, 1, 64, 93
3, 17184, Note_off_c, 1, 64, 0
3, 17184, Note_on_c, 1, 62, 93
3, 17280, Note_off_c, 1, 62, 0
3, 17280, Note_on_c, 1, 61, 93
3, 17328, Note_off_c, 1, 61, 0
3, 17472, Note_on_c, 1, 60, 93
3, 17568, Note_off_c, 1, 60, 0
3, 17664, Note_on_c, 1, 59, 93
3, 17760, Note_off_c, 1, 59, 0
3, 17856, Note_on_c, 1, 58, 93
3, 17952, Note_off_c, 1, 58, 0
3, 18048, Note_on_c, 1, 57, 93
3, 18144, Note_off_c, 1, 57, 0
3, 18432, Note_on_c, 1, 55, 93
3, 18528, Note_off_c, 1, 55, 0
3, 20064, Note_on_c, 1, 60, 93
3, 20112, Note_off_c, 1, 60, 0
3, 20112, Note_on_c, 1, 62, 93
3, 20160, Note_off_c, 1, 62, 0
3, 20160, Note_on_c, 1, 64, 93
3, 20208, Note_off_c, 1, 64, 0
3, 20208, Note_on_c, 1, 67, 93
3, 20256, Note_off_c, 1, 67, 0
3, 20256, Note_on_c, 1, 65, 93
3, 20304, Note_off_c, 1, 65, 0
3, 20304, Note_on_c, 1, 69, 93
3, 20352, Note_off_c, 1, 69, 0
3, 20352, Note_on_c, 1, 67, 93
3, 20448, Note_off_c, 1, 67, 0
3, 20448, Note_on_c, 1, 58, 93
3, 20496, Note_off_c, 1, 58, 0
3, 20496, Note_on_c, 1, 57, 93
3, 20544, Note_off_c, 1, 57, 0
3, 20544, Note_on_c, 1, 58, 93
3, 20640, Note_off_c, 1, 58, 0
3, 20640, Note_on_c, 1, 67, 93
3, 20736, Note_off_c, 1, 67, 0
3, 20736, Note_on_c, 1, 69, 93
3, 20832, Note_off_c, 1, 69, 0
3, 21600, Note_on_c, 1, 59, 93
3, 21696, Note_off_c, 1, 59, 0
3, 21696, Note_on_c, 1, 64, 93
3, 21792, Note_off_c, 1, 64, 0
3, 21792, Note_on_c, 1, 62, 93
3, 21888, Note_off_c, 1, 62, 0
3, 21888, Note_on_c, 1, 61, 93
3, 21984, Note_off_c, 1, 61, 0
3, 21984, Note_on_c, 1, 57, 93
3, 22080, Note_off_c, 1, 57, 0
3, 22080, Note_on_c, 1, 62, 93
3, 22176, Note_off_c, 1, 62, 0
3, 22176, Note_on_c, 1, 60, 93
3, 22272, Note_off_c, 1, 60, 0
3, 22272, Note_on_c, 1, 59, 93
3, 22368, Note_off_c, 1, 59, 0
3, 22368, Note_on_c, 1, 55, 93
3, 22464, Note_off_c, 1, 55, 0
3, 22464, Note_on_c, 1, 60, 93
3, 22560, Note_off_c, 1, 60, 0
3, 22560, Note_on_c, 1, 58, 93
3, 22656, Note_off_c, 1, 58, 0
3, 22656, Note_on_c, 1, 57, 93
3, 22752, Note_off_c, 1, 57, 0
3, 23040, Note_on_c, 1, 55, 93
3, 23088, Note_off_c, 1, 55, 0
3, 23808, Note_on_c, 1, 56, 93
3, 23856, Note_off_c, 1, 56, 0
3, 25248, Note_on_c, 1, 71, 93
3, 25344, Note_off_c, 1, 71, 0
3, 25344, Note_on_c, 1, 72, 93
3, 25392, Note_off_c, 1, 72, 0
3, 25392, Note_on_c, 1, 79, 93
3, 25416, Note_off_c, 1, 79, 0
3, 25416, Note_on_c, 1, 77, 93
3, 25440, Note_off_c, 1, 77, 0
3, 25440, Note_on_c, 1, 76, 93
3, 25488, Note_off_c, 1, 76, 0
3, 25488, Note_on_c, 1, 79, 93
3, 25536, Note_off_c, 1, 79, 0
3, 25536, Note_on_c, 1, 72, 93
3, 25584, Note_off_c, 1, 72, 0
3, 25584, Note_on_c, 1, 76, 93
3, 25632, Note_off_c, 1, 76, 0
3, 25632, Note_on_c, 1, 67, 93
3, 25680, Note_off_c, 1, 67, 0
3, 25680, Note_on_c, 1, 72, 93
3, 25728, Note_off_c, 1, 72, 0
3, 25728, Note_on_c, 1, 64, 93
3, 25776, Note_off_c, 1, 64, 0
3, 25776, Note_on_c, 1, 67, 93
3, 25824, Note_off_c, 1, 67, 0
3, 25824, Note_on_c, 1, 60, 93
3, 25872, Note_off_c, 1, 60, 0
3, 25872, Note_on_c, 1, 64, 93
3, 25920, Note_off_c, 1, 64, 0
3, 25920, Note_on_c, 1, 55, 93
3, 25968, Note_off_c, 1, 55, 0
3, 25968, Note_on_c, 1, 76, 93
3, 26016, Note_off_c, 1, 76, 0
3, 26016, Note_on_c, 1, 74, 93
3, 26064, Note_off_c, 1, 74, 0
3, 26064, Note_on_c, 1, 72, 93
3, 26112, Note_off_c, 1, 72, 0
3, 26112, Note_on_c, 1, 71, 93
3, 26136, Note_off_c, 1, 71, 0
3, 26136, Note_on_c, 1, 79, 93
3, 26160, Note_off_c, 1, 79, 0
3, 26160, Note_on_c, 1, 78, 93
3, 26184, Note_off_c, 1, 78, 0
3, 26184, Note_on_c, 1, 76, 93
3, 26208, Note_off_c, 1, 76, 0
3, 26208, Note_on_c, 1, 74, 93
3, 26256, Note_off_c, 1, 74, 0
3, 26256, Note_on_c, 1, 79, 93
3, 26304, Note_off_c, 1, 79, 0
3, 26304, Note_on_c, 1, 71, 93
3, 26352, Note_off_c, 1, 71, 0
3, 26352, Note_on_c, 1, 74, 93
3, 26400, Note_off_c, 1, 74, 0
3, 26400, Note_on_c, 1, 67, 93
3, 26448, Note_off_c, 1, 67, 0
3, 26448, Note_on_c, 1, 71, 93
3, 26496, Note_off_c, 1, 71, 0
3, 26496, Note_on_c, 1, 62, 93
3, 26544, Note_off_c, 1, 62, 0
3, 26544, Note_on_c, 1, 67, 93
3, 26592, Note_off_c, 1, 67, 0
3, 26592, Note_on_c, 1, 59, 93
3, 26640, Note_off_c, 1, 59, 0
3, 26640, Note_on_c, 1, 62, 93
3, 26688, Note_off_c, 1, 62, 0
3, 26688, Note_on_c, 1, 55, 93
3, 26736, Note_off_c, 1, 55, 0
3, 26736, Note_on_c, 1, 74, 93
3, 26784, Note_off_c, 1, 74, 0
3, 26784, Note_on_c, 1, 72, 93
3, 26832, Note_off_c, 1, 72, 0
3, 26832, Note_on_c, 1, 71, 93
3, 26880, Note_off_c, 1, 71, 0
3, 26880, Note_on_c, 1, 72, 93
3, 26928, Note_off_c, 1, 72, 0
3, 26928, Note_on_c, 1, 81, 93
3, 26952, Note_off_c, 1, 81, 0
3, 26952, Note_on_c, 1, 79, 93
3, 26976, Note_off_c, 1, 79, 0
3, 26976, Note_on_c, 1, 78, 93
3, 27024, Note_off_c, 1, 78, 0
3, 27024, Note_on_c, 1, 81, 93
3, 27072, Note_off_c, 1, 81, 0
3, 27072, Note_on_c, 1, 72, 93
3, 27120, Note_off_c, 1, 72, 0
3, 27120, Note_on_c, 1, 78, 93
3, 27168, Note_off_c, 1, 78, 0
3, 27168, Note_on_c, 1, 69, 93
3, 27216, Note_off_c, 1, 69, 0
3, 27216, Note_on_c, 1, 72, 93
3, 27264, Note_off_c, 1, 72, 0
3, 27264, Note_on_c, 1, 66, 93
3, 27312, Note_off_c, 1, 66, 0
3, 27312, Note_on_c, 1, 69, 93
3, 27360, Note_off_c, 1, 69, 0
3, 27360, Note_on_c, 1, 62, 93
3, 27408, Note_off_c, 1, 62, 0
3, 27408, Note_on_c, 1, 66, 93
3, 27456, Note_off_c, 1, 66, 0
3, 27456, Note_on_c, 1, 69, 93
3, 27504, Note_off_c, 1, 69, 0
3, 27504, Note_on_c, 1, 72, 93
3, 27552, Note_off_c, 1, 72, 0
3, 27552, Note_on_c, 1, 78, 93
3, 27600, Note_off_c, 1, 78, 0
3, 27600, Note_on_c, 1, 81, 93
3, 27648, Note_off_c, 1, 81, 0
3, 27648, Note_on_c, 1, 55, 93
3, 27696, Note_off_c, 1, 55, 0
3, 27696, Note_on_c, 1, 62, 93
3, 27744, Note_off_c, 1, 62, 0
3, 27744, Note_on_c, 1, 66, 93
3, 27792, Note_off_c, 1, 66, 0
3, 27792, Note_on_c, 1, 72, 93
3, 27840, Note_off_c, 1, 72, 0
3, 27840, Note_on_c, 1, 71, 93
3, 27888, Note_off_c, 1, 71, 0
3, 27888, Note_on_c, 1, 67, 93
3, 27936, Note_off_c, 1, 67, 0
3, 27936, Note_on_c, 1, 64, 93
3, 27984, Note_off_c, 1, 64, 0
3, 27984, Note_on_c, 1, 67, 93
3, 28032, Note_off_c, 1, 67, 0
3, 28032, Note_on_c, 1, 61, 93
3, 28080, Note_off_c, 1, 61, 0
3, 28080, Note_on_c, 1, 64, 93
3, 28104, Note_off_c, 1, 64, 0
3, 28104, Note_on_c, 1, 65, 93
3, 28128, Note_off_c, 1, 65, 0
3, 28128, Note_on_c, 1, 67, 93
3, 28176, Note_off_c, 1, 67, 0
3, 28176, Note_on_c, 1, 64, 93
3, 28224, Note_off_c, 1, 64, 0
3, 28224, Note_on_c, 1, 70, 93
3, 28272, Note_off_c, 1, 70, 0
3, 28272, Note_on_c, 1, 67, 93
3, 28320, Note_off_c, 1, 67, 0
3, 28320, Note_on_c, 1, 73, 93
3, 28368, Note_off_c, 1, 73, 0
3, 28368, Note_on_c, 1, 76, 93
3, 28416, Note_off_c, 1, 76, 0
3, 28416, Note_on_c, 1, 65, 93
3, 28464, Note_off_c, 1, 65, 0
3, 28464, Note_on_c, 1, 69, 93
3, 28512, Note_off_c, 1, 69, 0
3, 28512, Note_on_c, 1, 79, 93
3, 28560, Note_off_c, 1, 79, 0
3, 28560, Note_on_c, 1, 73, 93
3, 28608, Note_off_c, 1, 73, 0
3, 28608, Note_on_c, 1, 74, 93
3, 28656, Note_off_c, 1, 74, 0
3, 28656, Note_on_c, 1, 69, 93
3, 28704, Note_off_c, 1, 69, 0
3, 28704, Note_on_c, 1, 70, 93
3, 28752, Note_off_c, 1, 70, 0
3, 28752, Note_on_c, 1, 74, 93
3, 28800, Note_off_c, 1, 74, 0
3, 28800, Note_on_c, 1, 68, 93
3, 28848, Note_off_c, 1, 68, 0
3, 28848, Note_on_c, 1, 71, 93
3, 28872, Note_off_c, 1, 71, 0
3, 28872, Note_on_c, 1, 72, 93
3, 28896, Note_off_c, 1, 72, 0
3, 28896, Note_on_c, 1, 74, 93
3, 28944, Note_off_c, 1, 74, 0
3, 28944, Note_on_c, 1, 71, 93
3, 28992, Note_off_c, 1, 71, 0
3, 28992, Note_on_c, 1, 77, 93
3, 29040, Note_off_c, 1, 77, 0
3, 29040, Note_on_c, 1, 74, 93
3, 29088, Note_off_c, 1, 74, 0
3, 29088, Note_on_c, 1, 80, 93
3, 29136, Note_off_c, 1, 80, 0
3, 29136, Note_on_c, 1, 83, 93
3, 29184, Note_off_c, 1, 83, 0
3, 29184, Note_on_c, 1, 64, 93
3, 29232, Note_off_c, 1, 64, 0
3, 29232, Note_on_c, 1, 72, 93
3, 29280, Note_off_c, 1, 72, 0
3, 29280, Note_on_c, 1, 76, 93
3, 29328, Note_off_c, 1, 76, 0
3, 29328, Note_on_c, 1, 80, 93
3, 29376, Note_off_c, 1, 80, 0
3, 29376, Note_on_c, 1, 81, 93
3, 29424, Note_off_c, 1, 81, 0
3, 29424, Note_on_c, 1, 84, 93
3, 29472, Note_off_c, 1, 84, 0
3, 29472, Note_on_c, 1, 78, 93
3, 29520, Note_off_c, 1, 78, 0
3, 29520, Note_on_c, 1, 81, 93
3, 29568, Note_off_c, 1, 81, 0
3, 29568, Note_on_c, 1, 75, 93
3, 29616, Note_off_c, 1, 75, 0
3, 29616, Note_on_c, 1, 78, 93
3, 29640, Note_off_c, 1, 78, 0
3, 29640, Note_on_c, 1, 79, 93
3, 29664, Note_off_c, 1, 79, 0
3, 29664, Note_on_c, 1, 81, 93
3, 29712, Note_off_c, 1, 81, 0
3, 29712, Note_on_c, 1, 78, 93
3, 29760, Note_off_c, 1, 78, 0
3, 29760, Note_on_c, 1, 75, 93
3, 29808, Note_off_c, 1, 75, 0
3, 29808, Note_on_c, 1, 71, 93
3, 29856, Note_off_c, 1, 71, 0
3, 29856, Note_on_c, 1, 72, 93
3, 29904, Note_off_c, 1, 72, 0
3, 29904, Note_on_c, 1, 63, 93
3, 29952, Note_off_c, 1, 63, 0
3, 29952, Note_on_c, 1, 64, 93
3, 30000, Note_off_c, 1, 64, 0
3, 30000, Note_on_c, 1, 71, 93
3, 30048, Note_off_c, 1, 71, 0
3, 30048, Note_on_c, 1, 75, 93
3, 30096, Note_off_c, 1, 75, 0
3, 30096, Note_on_c, 1, 81, 93
3, 30144, Note_off_c, 1, 81, 0
3, 30144, Note_on_c, 1, 79, 93
3, 30192, Note_off_c, 1, 79, 0
3, 30192, Note_on_c, 1, 83, 93
3, 30216, Note_off_c, 1, 83, 0
3, 30216, Note_on_c, 1, 81, 93
3, 30240, Note_off_c, 1, 81, 0
3, 30240, Note_on_c, 1, 79, 93
3, 30288, Note_off_c, 1, 79, 0
3, 30288, Note_on_c, 1, 76, 93
3, 30336, Note_off_c, 1, 76, 0
3, 30336, Note_on_c, 1, 73, 93
3, 30384, Note_off_c, 1, 73, 0
3, 30384, Note_on_c, 1, 70, 93
3, 30408, Note_off_c, 1, 70, 0
3, 30408, Note_on_c, 1, 69, 93
3, 30432, Note_off_c, 1, 69, 0
3, 30432, Note_on_c, 1, 67, 93
3, 30480, Note_off_c, 1, 67, 0
3, 30480, Note_on_c, 1, 64, 93
3, 30528, Note_off_c, 1, 64, 0
3, 30528, Note_on_c, 1, 61, 93
3, 30576, Note_off_c, 1, 61, 0
3, 30576, Note_on_c, 1, 62, 93
3, 30600, Note_off_c, 1, 62, 0
3, 30600, Note_on_c, 1, 64, 93
3, 30624, Note_off_c, 1, 64, 0
3, 30624, Note_on_c, 1, 57, 93
3, 30672, Note_off_c, 1, 57, 0
3, 30672, Note_on_c, 1, 59, 93
3, 30696, Note_off_c, 1, 59, 0
3, 30696, Note_on_c, 1, 61, 93
3, 30720, Note_off_c, 1, 61, 0
3, 30720, Note_on_c, 1, 62, 93
3, 30768, Note_off_c, 1, 62, 0
3, 30768, Note_on_c, 1, 69, 93
3, 30816, Note_off_c, 1, 69, 0
3, 30816, Note_on_c, 1, 73, 93
3, 30864, Note_off_c, 1, 73, 0
3, 30864, Note_on_c, 1, 79, 93
3, 30912, Note_off_c, 1, 79, 0
3, 30912, Note_on_c, 1, 77, 93
3, 30960, Note_off_c, 1, 77, 0
3, 30960, Note_on_c, 1, 81, 93
3, 30984, Note_off_c, 1, 81, 0
3, 30984, Note_on_c, 1, 79, 93
3, 31008, Note_off_c, 1, 79, 0
3, 31008, Note_on_c, 1, 77, 93
3, 31056, Note_off_c, 1, 77, 0
3, 31056, Note_on_c, 1, 74, 93
3, 31104, Note_off_c, 1, 74, 0
3, 31104, Note_on_c, 1, 71, 93
3, 31152, Note_off_c, 1, 71, 0
3, 31152, Note_on_c, 1, 68, 93
3, 31176, Note_off_c, 1, 68, 0
3, 31176, Note_on_c, 1, 67, 93
3, 31200, Note_off_c, 1, 67, 0
3, 31200, Note_on_c, 1, 65, 93
3, 31248, Note_off_c, 1, 65, 0
3, 31248, Note_on_c, 1, 62, 93
3, 31296, Note_off_c, 1, 62, 0
3, 31296, Note_on_c, 1, 59, 93
3, 31344, Note_off_c, 1, 59, 0
3, 31344, Note_on_c, 1, 60, 93
3, 31368, Note_off_c, 1, 60, 0
3, 31368, Note_on_c, 1, 62, 93
3, 31392, Note_off_c, 1, 62, 0
3, 31392, Note_on_c, 1, 55, 93
3, 31440, Note_off_c, 1, 55, 0
3, 31440, Note_on_c, 1, 57, 93
3, 31464, Note_off_c, 1, 57, 0
3, 31464, Note_on_c, 1, 59, 93
3, 31488, Note_off_c, 1, 59, 0
3, 31488, Note_on_c, 1, 60, 93
3, 31536, Note_off_c, 1, 60, 0
3, 31536, Note_on_c, 1, 67, 93
3, 31584, Note_off_c, 1, 67, 0
3, 31584, Note_on_c, 1, 71, 93
3, 31632, Note_off_c, 1, 71, 0
3, 31632, Note_on_c, 1, 77, 93
3, 31680, Note_off_c, 1, 77, 0
3, 31680, Note_on_c, 1, 76, 93
3, 31728, Note_off_c, 1, 76, 0
3, 31728, Note_on_c, 1, 79, 93
3, 31752, Note_off_c, 1, 79, 0
3, 31752, Note_on_c, 1, 77, 93
3, 31776, Note_off_c, 1, 77, 0
3, 31776, Note_on_c, 1, 76, 93
3, 31824, Note_off_c, 1, 76, 0
3, 31824, Note_on_c, 1, 72, 93
3, 31872, Note_off_c, 1, 72, 0
3, 31872, Note_on_c, 1, 77, 93
3, 31920, Note_off_c, 1, 77, 0
3, 31920, Note_on_c, 1, 74, 93
3, 31944, Note_off_c, 1, 74, 0
3, 31944, Note_on_c, 1, 72, 93
3, 31968, Note_off_c, 1, 72, 0
3, 31968, Note_on_c, 1, 71, 93
3, 32016, Note_off_c, 1, 71, 0
3, 32016, Note_on_c, 1, 74, 93
3, 32064, Note_off_c, 1, 74, 0
3, 32064, Note_on_c, 1, 68, 93
3, 32112, Note_off_c, 1, 68, 0
3, 32112, Note_on_c, 1, 69, 93
3, 32136, Note_off_c, 1, 69, 0
3, 32136, Note_on_c, 1, 71, 93
3, 32160, Note_off_c, 1, 71, 0
3, 32160, Note_on_c, 1, 64, 93
3, 32208, Note_off_c, 1, 64, 0
3, 32208, Note_on_c, 1, 66, 93
3, 32232, Note_off_c, 1, 66, 0
3, 32232, Note_on_c, 1, 68, 93
3, 32256, Note_off_c, 1, 68, 0
3, 32256, Note_on_c, 1, 57, 93
3, 32304, Note_off_c, 1, 57, 0
3, 32304, Note_on_c, 1, 64, 93
3, 32352, Note_off_c, 1, 64, 0
3, 32352, Note_on_c, 1, 68, 93
3, 32400, Note_off_c, 1, 68, 0
3, 32400, Note_on_c, 1, 74, 93
3, 32448, Note_off_c, 1, 74, 0
3, 32448, Note_on_c, 1, 72, 93
3, 32496, Note_off_c, 1, 72, 0
3, 32496, Note_on_c, 1, 69, 93
3, 32544, Note_off_c, 1, 69, 0
3, 32544, Note_on_c, 1, 65, 93
3, 32592, Note_off_c, 1, 65, 0
3, 32592, Note_on_c, 1, 69, 93
3, 32640, Note_off_c, 1, 69, 0
3, 32640, Note_on_c, 1, 59, 93
3, 32688, Note_off_c, 1, 59, 0
3, 32688, Note_on_c, 1, 62, 93
3, 32736, Note_off_c, 1, 62, 0
3, 32736, Note_on_c, 1, 68, 93
3, 32784, Note_off_c, 1, 68, 0
3, 32784, Note_on_c, 1, 76, 93
3, 32832, Note_off_c, 1, 76, 0
3, 32832, Note_on_c, 1, 74, 93
3, 32880, Note_off_c, 1, 74, 0
3, 32880, Note_on_c, 1, 71, 93
3, 32928, Note_off_c, 1, 71, 0
3, 32928, Note_on_c, 1, 68, 93
3, 32976, Note_off_c, 1, 68, 0
3, 32976, Note_on_c, 1, 71, 93
3, 33024, Note_off_c, 1, 71, 0
3, 33024, Note_on_c, 1, 60, 93
3, 33072, Note_off_c, 1, 60, 0
3, 33072, Note_on_c, 1, 64, 93
3, 33120, Note_off_c, 1, 64, 0
3, 33120, Note_on_c, 1, 68, 93
3, 33168, Note_off_c, 1, 68, 0
3, 33168, Note_on_c, 1, 77, 93
3, 33216, Note_off_c, 1, 77, 0
3, 33216, Note_on_c, 1, 76, 93
3, 33264, Note_off_c, 1, 76, 0
3, 33264, Note_on_c, 1, 72, 93
3, 33312, Note_off_c, 1, 72, 0
3, 33312, Note_on_c, 1, 69, 93
3, 33360, Note_off_c, 1, 69, 0
3, 33360, Note_on_c, 1, 72, 93
3, 33408, Note_off_c, 1, 72, 0
3, 33408, Note_on_c, 1, 62, 93
3, 33456, Note_off_c, 1, 62, 0
3, 33456, Note_on_c, 1, 81, 93
3, 33480, Note_off_c, 1, 81, 0
3, 33480, Note_on_c, 1, 79, 93
3, 33504, Note_off_c, 1, 79, 0
3, 33504, Note_on_c, 1, 77, 93
3, 33552, Note_off_c, 1, 77, 0
3, 33552, Note_on_c, 1, 76, 93
3, 33600, Note_off_c, 1, 76, 0
3, 33600, Note_on_c, 1, 74, 93
3, 33648, Note_off_c, 1, 74, 0
3, 33648, Note_on_c, 1, 82, 93
3, 33672, Note_off_c, 1, 82, 0
3, 33672, Note_on_c, 1, 81, 93
3, 33696, Note_off_c, 1, 81, 0
3, 33696, Note_on_c, 1, 82, 93
3, 33744, Note_off_c, 1, 82, 0
3, 33744, Note_on_c, 1, 74, 93
3, 33792, Note_off_c, 1, 74, 0
3, 33792, Note_on_c, 1, 64, 93
3, 33840, Note_off_c, 1, 64, 0
3, 33840, Note_on_c, 1, 74, 93
3, 33864, Note_off_c, 1, 74, 0
3, 33864, Note_on_c, 1, 76, 93
3, 33888, Note_off_c, 1, 76, 0
3, 33888, Note_on_c, 1, 77, 93
3, 33936, Note_off_c, 1, 77, 0
3, 33936, Note_on_c, 1, 74, 93
3, 33984, Note_off_c, 1, 74, 0
3, 33984, Note_on_c, 1, 80, 93
3, 34032, Note_off_c, 1, 80, 0
3, 34032, Note_on_c, 1, 74, 93
3, 34080, Note_off_c, 1, 74, 0
3, 34080, Note_on_c, 1, 83, 93
3, 34128, Note_off_c, 1, 83, 0
3, 34128, Note_on_c, 1, 74, 93
3, 34176, Note_off_c, 1, 74, 0
3, 34176, Note_on_c, 1, 64, 93
3, 34224, Note_off_c, 1, 64, 0
3, 34224, Note_on_c, 1, 72, 93
3, 34248, Note_off_c, 1, 72, 0
3, 34248, Note_on_c, 1, 74, 93
3, 34272, Note_off_c, 1, 74, 0
3, 34272, Note_on_c, 1, 76, 93
3, 34320, Note_off_c, 1, 76, 0
3, 34320, Note_on_c, 1, 72, 93
3, 34368, Note_off_c, 1, 72, 0
3, 34368, Note_on_c, 1, 81, 93
3, 34416, Note_off_c, 1, 81, 0
3, 34416, Note_on_c, 1, 76, 93
3, 34464, Note_off_c, 1, 76, 0
3, 34464, Note_on_c, 1, 84, 93
3, 34512, Note_off_c, 1, 84, 0
3, 34512, Note_on_c, 1, 76, 93
3, 34560, Note_off_c, 1, 76, 0
3, 34560, Note_on_c, 1, 64, 93
3, 34608, Note_off_c, 1, 64, 0
3, 34608, Note_on_c, 1, 71, 93
3, 34632, Note_off_c, 1, 71, 0
3, 34632, Note_on_c, 1, 72, 93
3, 34656, Note_off_c, 1, 72, 0
3, 34656, Note_on_c, 1, 74, 93
3, 34704, Note_off_c, 1, 74, 0
3, 34704, Note_on_c, 1, 71, 93
3, 34752, Note_off_c, 1, 71, 0
3, 34752, Note_on_c, 1, 80, 93
3, 34800, Note_off_c, 1, 80, 0
3, 34800, Note_on_c, 1, 76, 93
3, 34848, Note_off_c, 1, 76, 0
3, 34848, Note_on_c, 1, 86, 93
3, 34896, Note_off_c, 1, 86, 0
3, 34896, Note_on_c, 1, 76, 93
3, 34944, Note_off_c, 1, 76, 0
3, 34944, Note_on_c, 1, 64, 93
3, 34992, Note_off_c, 1, 64, 0
3, 34992, Note_on_c, 1, 69, 93
3, 35016, Note_off_c, 1, 69, 0
3, 35016, Note_on_c, 1, 71, 93
3, 35040, Note_off_c, 1, 71, 0
3, 35040, Note_on_c, 1, 72, 93
3, 35088, Note_off_c, 1, 72, 0
3, 35088, Note_on_c, 1, 75, 93
3, 35136, Note_off_c, 1, 75, 0
3, 35136, Note_on_c, 1, 78, 93
3, 35184, Note_off_c, 1, 78, 0
3, 35184, Note_on_c, 1, 81, 93
3, 35232, Note_off_c, 1, 81, 0
3, 35232, Note_on_c, 1, 84, 93
3, 35280, Note_off_c, 1, 84, 0
3, 35280, Note_on_c, 1, 87, 93
3, 35328, Note_off_c, 1, 87, 0
3, 35328, Note_on_c, 1, 88, 93
3, 35376, Note_off_c, 1, 88, 0
3, 35376, Note_on_c, 1, 83, 93
3, 35424, Note_off_c, 1, 83, 0
3, 35424, Note_on_c, 1, 80, 93
3, 35472, Note_off_c, 1, 80, 0
3, 35472, Note_on_c, 1, 76, 93
3, 35520, Note_off_c, 1, 76, 0
3, 35520, Note_on_c, 1, 64, 93
3, 35616, Note_off_c, 1, 64, 0
3, 35616, Note_on_c, 1, 76, 93
3, 35712, Note_off_c, 1, 76, 0
3, 35712, Note_on_c, 1, 77, 93
3, 35808, Note_off_c, 1, 77, 0
3, 35808, Note_on_c, 1, 76, 93
3, 35856, Note_off_c, 1, 76, 0
3, 35856, Note_on_c, 1, 74, 93
3, 35904, Note_off_c, 1, 74, 0
3, 35904, Note_on_c, 1, 72, 93
3, 36000, Note_off_c, 1, 72, 0
3, 36000, Note_on_c, 1, 74, 93
3, 36096, Note_off_c, 1, 74, 0
3, 36096, Note_on_c, 1, 76, 93
3, 36288, Note_off_c, 1, 76, 0
3, 36288, Note_on_c, 1, 71, 93
3, 36384, Note_off_c, 1, 71, 0
3, 36384, Note_on_c, 1, 72, 93
3, 36480, Note_off_c, 1, 72, 0
3, 36480, Note_on_c, 1, 74, 93
3, 36576, Note_off_c, 1, 74, 0
3, 36576, Note_on_c, 1, 72, 93
3, 36672, Note_off_c, 1, 72, 0
3, 36672, Note_on_c, 1, 74, 93
3, 36768, Note_off_c, 1, 74, 0
3, 36768, Note_on_c, 1, 76, 93
3, 36816, Note_off_c, 1, 76, 0
3, 36816, Note_on_c, 1, 74, 93
3, 36864, Note_off_c, 1, 74, 0
3, 36864, Note_on_c, 1, 72, 93
3, 37056, Note_off_c, 1, 72, 0
3, 37056, Note_on_c, 1, 77, 93
3, 37344, Note_off_c, 1, 77, 0
3, 37344, Note_on_c, 1, 76, 93
3, 37392, Note_off_c, 1, 76, 0
3, 37392, Note_on_c, 1, 77, 93
3, 37440, Note_off_c, 1, 77, 0
3, 37440, Note_on_c, 1, 79, 93
3, 37488, Note_off_c, 1, 79, 0
3, 37488, Note_on_c, 1, 76, 93
3, 37536, Note_off_c, 1, 76, 0
3, 37536, Note_on_c, 1, 77, 93
3, 37584, Note_off_c, 1, 77, 0
3, 37584, Note_on_c, 1, 79, 93
3, 37632, Note_off_c, 1, 79, 0
3, 37632, Note_on_c, 1, 73, 93
3, 37728, Note_off_c, 1, 73, 0
3, 37728, Note_on_c, 1, 71, 93
3, 37776, Note_off_c, 1, 71, 0
3, 37776, Note_on_c, 1, 69, 93
3, 37824, Note_off_c, 1, 69, 0
3, 37824, Note_on_c, 1, 74, 93
3, 38016, Note_off_c, 1, 74, 0
3, 38016, Note_on_c, 1, 74, 93
3, 38112, Note_off_c, 1, 74, 0
3, 38208, Note_on_c, 1, 62, 93
3, 38400, Note_off_c, 1, 62, 0
3, 38400, Note_on_c, 1, 65, 93
3, 38496, Note_off_c, 1, 65, 0
3, 38496, Note_on_c, 1, 64, 93
3, 38544, Note_off_c, 1, 64, 0
3, 38544, Note_on_c, 1, 62, 93
3, 38592, Note_off_c, 1, 62, 0
3, 38592, Note_on_c, 1, 64, 93
3, 38688, Note_off_c, 1, 64, 0
3, 42048, Note_on_c, 1, 60, 93
3, 42144, Note_off_c, 1, 60, 0
3, 42144, Note_on_c, 1, 62, 93
3, 42240, Note_off_c, 1, 62, 0
3, 42240, Note_on_c, 1, 64, 93
3, 42336, Note_off_c, 1, 64, 0
3, 42336, Note_on_c, 1, 62, 93
3, 42384, Note_off_c, 1, 62, 0
3, 42384, Note_on_c, 1, 60, 93
3, 42432, Note_off_c, 1, 60, 0
3, 42432, Note_on_c, 1, 59, 93
3, 42528, Note_off_c, 1, 59, 0
3, 42528, Note_on_c, 1, 60, 93
3, 42624, Note_off_c, 1, 60, 0
3, 42624, Note_on_c, 1, 62, 93
3, 42816, Note_off_c, 1, 62, 0
3, 42816, Note_on_c, 1, 57, 93
3, 42912, Note_off_c, 1, 57, 0
3, 42912, Note_on_c, 1, 59, 93
3, 43008, Note_off_c, 1, 59, 0
3, 43008, Note_on_c, 1, 60, 93
3, 43104, Note_off_c, 1, 60, 0
3, 43104, Note_on_c, 1, 59, 93
3, 43200, Note_off_c, 1, 59, 0
3, 43200, Note_on_c, 1, 60, 93
3, 43296, Note_off_c, 1, 60, 0
3, 43296, Note_on_c, 1, 62, 93
3, 43344, Note_off_c, 1, 62, 0
3, 43344, Note_on_c, 1, 60, 93
3, 43392, Note_off_c, 1, 60, 0
3, 43392, Note_on_c, 1, 59, 93
3, 43488, Note_off_c, 1, 59, 0
3, 43488, Note_on_c, 1, 60, 93
3, 43536, Note_off_c, 1, 60, 0
3, 43536, Note_on_c, 1, 62, 93
3, 43584, Note_off_c, 1, 62, 0
3, 43584, Note_on_c, 1, 64, 93
3, 43680, Note_off_c, 1, 64, 0
3, 43680, Note_on_c, 1, 62, 93
3, 43776, Note_off_c, 1, 62, 0
3, 43776, Note_on_c, 1, 61, 93
3, 43968, Note_off_c, 1, 61, 0
3, 43968, Note_on_c, 1, 60, 93
3, 44160, Note_off_c, 1, 60, 0
3, 44160, Note_on_c, 1, 59, 93
3, 44352, Note_off_c, 1, 59, 0
3, 44352, Note_on_c, 1, 58, 93
3, 44544, Note_off_c, 1, 58, 0
3, 44544, Note_on_c, 1, 57, 93
3, 44736, Note_off_c, 1, 57, 0
3, 44736, Note_on_c, 1, 62, 93
3, 45024, Note_off_c, 1, 62, 0
3, 45024, Note_on_c, 1, 60, 93
3, 45072, Note_off_c, 1, 60, 0
3, 45072, Note_on_c, 1, 59, 93
3, 45120, Note_off_c, 1, 59, 0
3, 45120, Note_on_c, 1, 60, 93
3, 45312, Note_off_c, 1, 60, 0
3, 45312, Note_on_c, 1, 59, 93
3, 45504, Note_off_c, 1, 59, 0
3, 45504, Note_on_c, 1, 64, 93
3, 45792, Note_off_c, 1, 64, 0
3, 45792, Note_on_c, 1, 62, 93
3, 45840, Note_off_c, 1, 62, 0
3, 45840, Note_on_c, 1, 60, 93
3, 45888, Note_off_c, 1, 60, 0
3, 45888, Note_on_c, 1, 62, 93
3, 46176, Note_off_c, 1, 62, 0
3, 46176, Note_on_c, 1, 60, 93
3, 46224, Note_off_c, 1, 60, 0
3, 46224, Note_on_c, 1, 59, 93
3, 46272, Note_off_c, 1, 59, 0
3, 46272, Note_on_c, 1, 60, 93
3, 46560, Note_off_c, 1, 60, 0
3, 46560, Note_on_c, 1, 59, 93
3, 46608, Note_off_c, 1, 59, 0
3, 46608, Note_on_c, 1, 57, 93
3, 46656, Note_off_c, 1, 57, 0
3, 46656, Note_on_c, 1, 59, 93
3, 46752, Note_off_c, 1, 59, 0
3, 46752, Note_on_c, 1, 55, 93
3, 46848, Note_off_c, 1, 55, 0
3, 46848, Note_on_c, 1, 60, 93
3, 46944, Note_off_c, 1, 60, 0
3, 46944, Note_on_c, 1, 62, 93
3, 47040, Note_off_c, 1, 62, 0
3, 47040, Note_on_c, 1, 64, 93
3, 47232, Note_off_c, 1, 64, 0
3, 47232, Note_on_c, 1, 62, 93
3, 47424, Note_off_c, 1, 62, 0
3, 47616, Note_on_c, 1, 69, 93
3, 47808, Note_off_c, 1, 69, 0
3, 47808, Note_on_c, 1, 62, 93
3, 48000, Note_off_c, 1, 62, 0
3, 48000, Note_on_c, 1, 67, 93
3, 48192, Note_off_c, 1, 67, 0
3, 48192, Note_on_c, 1, 64, 93
3, 48384, Note_off_c, 1, 64, 0
3, 48384, Note_on_c, 1, 61, 93
3, 48576, Note_off_c, 1, 61, 0
3, 48576, Note_on_c, 1, 62, 93
3, 48768, Note_off_c, 1, 62, 0
3, 48768, Note_on_c, 1, 62, 93
3, 48864, Note_off_c, 1, 62, 0
3, 48864, Note_on_c, 1, 60, 93
3, 48912, Note_off_c, 1, 60, 0
3, 48912, Note_on_c, 1, 59, 93
3, 48960, Note_off_c, 1, 59, 0
3, 48960, Note_on_c, 1, 60, 93
3, 49056, Note_off_c, 1, 60, 0
3, 49056, Note_on_c, 1, 62, 93
3, 49104, Note_off_c, 1, 62, 0
3, 49104, Note_on_c, 1, 60, 93
3, 49152, Note_off_c, 1, 60, 0
3, 49152, Note_on_c, 1, 59, 93
3, 49344, Note_off_c, 1, 59, 0
3, 49344, Note_on_c, 1, 59, 93
3, 49536, Note_off_c, 1, 59, 0
3, 49536, Note_on_c, 1, 57, 93
3, 49728, Note_off_c, 1, 57, 0
3, 49728, Note_on_c, 1, 57, 93
3, 49920, Note_off_c, 1, 57, 0
3, 49920, Note_on_c, 1, 55, 93
3, 50112, Note_off_c, 1, 55, 0
3, 50112, Note_on_c, 1, 57, 93
3, 50304, Note_off_c, 1, 57, 0
3, 50304, Note_on_c, 1, 62, 93
3, 50496, Note_off_c, 1, 62, 0
3, 50496, Note_on_c, 1, 62, 93
3, 50688, Note_off_c, 1, 62, 0
3, 50688, Note_on_c, 1, 57, 93
3, 50880, Note_off_c, 1, 57, 0
3, 50880, Note_on_c, 1, 62, 93
3, 51072, Note_off_c, 1, 62, 0
3, 51072, Note_on_c, 1, 55, 93
3, 51264, Note_off_c, 1, 55, 0
3, 51264, Note_on_c, 1, 55, 93
3, 51456, Note_off_c, 1, 55, 0
3, 51456, Note_on_c, 1, 62, 93
3, 51648, Note_off_c, 1, 62, 0
3, 51648, Note_on_c, 1, 55, 93
3, 51840, Note_off_c, 1, 55, 0
3, 51840, Note_on_c, 1, 60, 93
3, 52032, Note_off_c, 1, 60, 0
3, 52032, Note_on_c, 1, 58, 93
3, 52224, Note_off_c, 1, 58, 0
3, 52224, Note_on_c, 1, 57, 93
3, 52320, Note_off_c, 1, 57, 0
3, 52416, Note_on_c, 1, 57, 93
3, 52608, Note_off_c, 1, 57, 0
3, 52608, Note_on_c, 1, 55, 93
3, 52800, Note_off_c, 1, 55, 0
3, 55488, Note_on_c, 1, 62, 93
3, 55680, Note_off_c, 1, 62, 0
3, 55680, Note_on_c, 1, 67, 93
3, 55776, Note_off_c, 1, 67, 0
3, 55776, Note_on_c, 1, 67, 93
3, 55872, Note_off_c, 1, 67, 0
3, 55872, Note_on_c, 1, 65, 93
3, 55968, Note_off_c, 1, 65, 0
3, 55968, Note_on_c, 1, 67, 93
3, 56016, Note_off_c, 1, 67, 0
3, 56016, Note_on_c, 1, 65, 93
3, 56064, Note_off_c, 1, 65, 0
3, 56064, Note_on_c, 1, 64, 93
3, 56160, Note_off_c, 1, 64, 0
3, 56160, Note_on_c, 1, 65, 93
3, 56256, Note_off_c, 1, 65, 0
3, 56256, Note_on_c, 1, 67, 93
3, 56352, Note_off_c, 1, 67, 0
3, 56352, Note_on_c, 1, 69, 93
3, 56400, Note_off_c, 1, 69, 0
3, 56400, Note_on_c, 1, 67, 93
3, 56448, Note_off_c, 1, 67, 0
3, 56448, Note_on_c, 1, 66, 93
3, 56640, Note_off_c, 1, 66, 0
3, 57024, Note_on_c, 1, 79, 93
3, 57216, Note_off_c, 1, 79, 0
3, 57216, Note_on_c, 1, 83, 93
3, 57312, Note_off_c, 1, 83, 0
3, 57312, Note_on_c, 1, 81, 93
3, 57360, Note_off_c, 1, 81, 0
3, 57360, Note_on_c, 1, 79, 93
3, 57408, Note_off_c, 1, 79, 0
3, 57408, Note_on_c, 1, 78, 93
3, 57504, Note_off_c, 1, 78, 0
3, 57504, Note_on_c, 1, 79, 93
3, 57600, Note_off_c, 1, 79, 0
3, 57600, Note_on_c, 1, 81, 93
3, 57792, Note_off_c, 1, 81, 0
3, 57792, Note_on_c, 1, 76, 93
3, 57888, Note_off_c, 1, 76, 0
3, 57888, Note_on_c, 1, 78, 93
3, 57984, Note_off_c, 1, 78, 0
3, 57984, Note_on_c, 1, 79, 93
3, 58080, Note_off_c, 1, 79, 0
3, 58080, Note_on_c, 1, 78, 93
3, 58176, Note_off_c, 1, 78, 0
3, 58176, Note_on_c, 1, 79, 93
3, 58272, Note_off_c, 1, 79, 0
3, 58272, Note_on_c, 1, 81, 93
3, 58320, Note_off_c, 1, 81, 0
3, 58320, Note_on_c, 1, 79, 93
3, 58368, Note_off_c, 1, 79, 0
3, 58368, Note_on_c, 1, 78, 93
3, 58464, Note_off_c, 1, 78, 0
3, 58464, Note_on_c, 1, 79, 93
3, 58512, Note_off_c, 1, 79, 0
3, 58512, Note_on_c, 1, 81, 93
3, 58560, Note_off_c, 1, 81, 0
3, 58560, Note_on_c, 1, 83, 93
3, 58752, Note_off_c, 1, 83, 0
3, 58752, Note_on_c, 1, 76, 93
3, 58944, Note_off_c, 1, 76, 0
3, 58944, Note_on_c, 1, 81, 93
3, 59136, Note_off_c, 1, 81, 0
3, 59184, Note_on_c, 1, 81, 93
3, 59232, Note_off_c, 1, 81, 0
3, 59232, Note_on_c, 1, 79, 93
3, 59280, Note_off_c, 1, 79, 0
3, 59280, Note_on_c, 1, 78, 93
3, 59328, Note_off_c, 1, 78, 0
3, 59328, Note_on_c, 1, 79, 93
3, 59520, Note_off_c, 1, 79, 0
3, 59520, Note_on_c, 1, 77, 93
3, 59712, Note_off_c, 1, 77, 0
3, 59904, Note_on_c, 1, 76, 93
3, 60000, Note_off_c, 1, 76, 0
3, 60000, Note_on_c, 1, 75, 93
3, 60096, Note_off_c, 1, 75, 0
3, 60096, Note_on_c, 1, 76, 93
3, 60192, Note_off_c, 1, 76, 0
3, 60192, Note_on_c, 1, 78, 93
3, 60240, Note_off_c, 1, 78, 0
3, 60240, Note_on_c, 1, 76, 93
3, 60288, Note_off_c, 1, 76, 0
3, 60288, Note_on_c, 1, 75, 93
3, 60480, Note_off_c, 1, 75, 0
3, 60480, Note_on_c, 1, 74, 93
3, 60672, Note_off_c, 1, 74, 0
3, 60672, Note_on_c, 1, 72, 93
3, 60864, Note_off_c, 1, 72, 0
3, 60864, Note_on_c, 1, 72, 93
3, 61056, Note_off_c, 1, 72, 0
3, 61056, Note_on_c, 1, 71, 93
3, 61248, Note_off_c, 1, 71, 0
3, 61248, Note_on_c, 1, 75, 93
3, 61440, Note_off_c, 1, 75, 0
3, 61440, Note_on_c, 1, 73, 93
3, 61632, Note_off_c, 1, 73, 0
3, 61632, Note_on_c, 1, 75, 93
3, 61824, Note_off_c, 1, 75, 0
3, 61824, Note_on_c, 1, 76, 93
3, 61920, Note_off_c, 1, 76, 0
3, 61920, Note_on_c, 1, 74, 93
3, 62016, Note_off_c, 1, 74, 0
3, 62016, Note_on_c, 1, 72, 93
3, 62112, Note_off_c, 1, 72, 0
3, 62112, Note_on_c, 1, 71, 93
3, 62208, Note_off_c, 1, 71, 0
3, 62208, Note_on_c, 1, 69, 93
3, 62400, Note_off_c, 1, 69, 0
3, 62592, Note_on_c, 1, 71, 93
3, 62784, Note_off_c, 1, 71, 0
3, 62880, Note_on_c, 1, 72, 93
3, 62976, Note_off_c, 1, 72, 0
3, 62976, Note_on_c, 1, 71, 93
3, 63168, Note_off_c, 1, 71, 0
3, 63168, Note_on_c, 1, 69, 93
3, 63360, Note_off_c, 1, 69, 0
3, 63456, Note_on_c, 1, 79, 93
3, 63504, Note_off_c, 1, 79, 0
3, 63504, Note_on_c, 1, 77, 93
3, 63552, Note_off_c, 1, 77, 0
3, 63552, Note_on_c, 1, 76, 93
3, 63600, Note_off_c, 1, 76, 0
3, 63600, Note_on_c, 1, 79, 93
3, 63648, Note_off_c, 1, 79, 0
3, 63648, Note_on_c, 1, 74, 93
3, 63696, Note_off_c, 1, 74, 0
3, 63696, Note_on_c, 1, 79, 93
3, 63744, Note_off_c, 1, 79, 0
3, 63744, Note_on_c, 1, 73, 93
3, 63792, Note_off_c, 1, 73, 0
3, 63792, Note_on_c, 1, 83, 93
3, 63840, Note_off_c, 1, 83, 0
3, 63840, Note_on_c, 1, 79, 93
3, 63888, Note_off_c, 1, 79, 0
3, 63888, Note_on_c, 1, 76, 93
3, 63936, Note_off_c, 1, 76, 0
3, 63936, Note_on_c, 1, 73, 93
3, 63984, Note_off_c, 1, 73, 0
3, 63984, Note_on_c, 1, 76, 93
3, 64032, Note_off_c, 1, 76, 0
3, 64032, Note_on_c, 1, 69, 93
3, 64080, Note_off_c, 1, 69, 0
3, 64080, Note_on_c, 1, 73, 93
3, 64128, Note_off_c, 1, 73, 0
3, 64128, Note_on_c, 1, 62, 93
3, 64176, Note_off_c, 1, 62, 0
3, 64176, Note_on_c, 1, 69, 93
3, 64224, Note_off_c, 1, 69, 0
3, 64224, Note_on_c, 1, 73, 93
3, 64272, Note_off_c, 1, 73, 0
3, 64272, Note_on_c, 1, 79, 93
3, 64320, Note_off_c, 1, 79, 0
3, 64320, Note_on_c, 1, 77, 93
3, 64368, Note_off_c, 1, 77, 0
3, 64368, Note_on_c, 1, 76, 93
3, 64416, Note_off_c, 1, 76, 0
3, 64416, Note_on_c, 1, 74, 93
3, 64464, Note_off_c, 1, 74, 0
3, 64464, Note_on_c, 1, 72, 93
3, 64512, Note_off_c, 1, 72, 0
3, 64512, Note_on_c, 1, 71, 93
3, 64560, Note_off_c, 1, 71, 0
3, 64560, Note_on_c, 1, 68, 93
3, 64608, Note_off_c, 1, 68, 0
3, 64608, Note_on_c, 1, 65, 93
3, 64656, Note_off_c, 1, 65, 0
3, 64656, Note_on_c, 1, 62, 93
3, 64704, Note_off_c, 1, 62, 0
3, 64704, Note_on_c, 1, 59, 93
3, 64752, Note_off_c, 1, 59, 0
3, 64752, Note_on_c, 1, 62, 93
3, 64800, Note_off_c, 1, 62, 0
3, 64800, Note_on_c, 1, 55, 93
3, 64848, Note_off_c, 1, 55, 0
3, 64848, Note_on_c, 1, 65, 93
3, 64896, Note_off_c, 1, 65, 0
3, 64896, Note_on_c, 1, 60, 93
3, 64944, Note_off_c, 1, 60, 0
3, 64944, Note_on_c, 1, 64, 93
3, 64992, Note_off_c, 1, 64, 0
3, 64992, Note_on_c, 1, 57, 93
3, 65040, Note_off_c, 1, 57, 0
3, 65040, Note_on_c, 1, 67, 93
3, 65088, Note_off_c, 1, 67, 0
3, 65088, Note_on_c, 1, 62, 93
3, 65136, Note_off_c, 1, 62, 0
3, 65136, Note_on_c, 1, 65, 93
3, 65184, Note_off_c, 1, 65, 0
3, 65184, Note_on_c, 1, 59, 93
3, 65232, Note_off_c, 1, 59, 0
3, 65232, Note_on_c, 1, 69, 93
3, 65280, Note_off_c, 1, 69, 0
3, 65280, Note_on_c, 1, 64, 93
3, 65328, Note_off_c, 1, 64, 0
3, 65328, Note_on_c, 1, 67, 93
3, 65376, Note_off_c, 1, 67, 0
3, 65376, Note_on_c, 1, 60, 93
3, 65424, Note_off_c, 1, 60, 0
3, 65424, Note_on_c, 1, 70, 93
3, 65472, Note_off_c, 1, 70, 0
3, 65472, Note_on_c, 1, 65, 93
3, 65520, Note_off_c, 1, 65, 0
3, 65520, Note_on_c, 1, 69, 93
3, 65568, Note_off_c, 1, 69, 0
3, 65568, Note_on_c, 1, 62, 93
3, 65616, Note_off_c, 1, 62, 0
3, 65616, Note_on_c, 1, 72, 93
3, 65664, Note_off_c, 1, 72, 0
3, 65664, Note_on_c, 1, 67, 93
3, 65712, Note_off_c, 1, 67, 0
3, 65712, Note_on_c, 1, 71, 93
3, 65760, Note_off_c, 1, 71, 0
3, 65760, Note_on_c, 1, 74, 93
3, 65808, Note_off_c, 1, 74, 0
3, 65808, Note_on_c, 1, 79, 93
3, 65856, Note_off_c, 1, 79, 0
3, 65856, Note_on_c, 1, 74, 93
3, 65904, Note_off_c, 1, 74, 0
3, 65904, Note_on_c, 1, 71, 93
3, 65952, Note_off_c, 1, 71, 0
3, 65952, Note_on_c, 1, 67, 93
3, 66000, Note_off_c, 1, 67, 0
3, 66000, Note_on_c, 1, 64, 93
3, 66048, Note_off_c, 1, 64, 0
3, 66048, Note_on_c, 1, 61, 93
3, 66096, Note_off_c, 1, 61, 0
3, 66096, Note_on_c, 1, 69, 93
3, 66144, Note_off_c, 1, 69, 0
3, 66144, Note_on_c, 1, 67, 93
3, 66192, Note_off_c, 1, 67, 0
3, 66192, Note_on_c, 1, 65, 93
3, 66240, Note_off_c, 1, 65, 0
3, 66240, Note_on_c, 1, 64, 93
3, 66288, Note_off_c, 1, 64, 0
3, 66288, Note_on_c, 1, 60, 93
3, 66336, Note_off_c, 1, 60, 0
3, 66336, Note_on_c, 1, 66, 93
3, 66384, Note_off_c, 1, 66, 0
3, 66384, Note_on_c, 1, 60, 93
3, 66432, Note_off_c, 1, 60, 0
3, 66432, Note_on_c, 1, 59, 93
3, 66480, Note_off_c, 1, 59, 0
3, 66480, Note_on_c, 1, 67, 93
3, 66528, Note_off_c, 1, 67, 0
3, 66528, Note_on_c, 1, 65, 93
3, 66576, Note_off_c, 1, 65, 0
3, 66576, Note_on_c, 1, 64, 93
3, 66624, Note_off_c, 1, 64, 0
3, 66624, Note_on_c, 1, 62, 93
3, 66672, Note_off_c, 1, 62, 0
3, 66672, Note_on_c, 1, 58, 93
3, 66720, Note_off_c, 1, 58, 0
3, 66720, Note_on_c, 1, 64, 93
3, 66768, Note_off_c, 1, 64, 0
3, 66768, Note_on_c, 1, 58, 93
3, 66816, Note_off_c, 1, 58, 0
3, 66816, Note_on_c, 1, 57, 93
3, 66864, Note_off_c, 1, 57, 0
3, 66864, Note_on_c, 1, 60, 93
3, 66912, Note_off_c, 1, 60, 0
3, 66912, Note_on_c, 1, 62, 93
3, 66960, Note_off_c, 1, 62, 0
3, 66960, Note_on_c, 1, 64, 93
3, 67008, Note_off_c, 1, 64, 0
3, 67008, Note_on_c, 1, 65, 93
3, 67056, Note_off_c, 1, 65, 0
3, 67056, Note_on_c, 1, 57, 93
3, 67104, Note_off_c, 1, 57, 0
3, 67104, Note_on_c, 1, 59, 93
3, 67152, Note_off_c, 1, 59, 0
3, 67152, Note_on_c, 1, 65, 93
3, 67200, Note_off_c, 1, 65, 0
3, 67200, Note_on_c, 1, 60, 93
3, 67248, Note_off_c, 1, 60, 0
3, 67248, Note_on_c, 1, 64, 93
3, 67296, Note_off_c, 1, 64, 0
3, 67296, Note_on_c, 1, 66, 93
3, 67344, Note_off_c, 1, 66, 0
3, 67344, Note_on_c, 1, 68, 93
3, 67392, Note_off_c, 1, 68, 0
3, 67392, Note_on_c, 1, 69, 93
3, 67440, Note_off_c, 1, 69, 0
3, 67440, Note_on_c, 1, 61, 93
3, 67488, Note_off_c, 1, 61, 0
3, 67488, Note_on_c, 1, 63, 93
3, 67536, Note_off_c, 1, 63, 0
3, 67536, Note_on_c, 1, 69, 93
3, 67584, Note_off_c, 1, 69, 0
3, 67584, Note_on_c, 1, 64, 93
3, 67632, Note_off_c, 1, 64, 0
3, 67632, Note_on_c, 1, 67, 93
3, 67680, Note_off_c, 1, 67, 0
3, 67680, Note_on_c, 1, 69, 93
3, 67728, Note_off_c, 1, 69, 0
3, 67728, Note_on_c, 1, 71, 93
3, 67776, Note_off_c, 1, 71, 0
3, 67776, Note_on_c, 1, 72, 93
3, 67824, Note_off_c, 1, 72, 0
3, 67824, Note_on_c, 1, 64, 93
3, 67872, Note_off_c, 1, 64, 0
3, 67872, Note_on_c, 1, 66, 93
3, 67920, Note_off_c, 1, 66, 0
3, 67920, Note_on_c, 1, 72, 93
3, 67968, Note_off_c, 1, 72, 0
3, 67968, Note_on_c, 1, 67, 93
3, 68016, Note_off_c, 1, 67, 0
3, 68016, Note_on_c, 1, 71, 93
3, 68064, Note_off_c, 1, 71, 0
3, 68064, Note_on_c, 1, 73, 93
3, 68112, Note_off_c, 1, 73, 0
3, 68112, Note_on_c, 1, 75, 93
3, 68160, Note_off_c, 1, 75, 0
3, 68160, Note_on_c, 1, 76, 93
3, 68208, Note_off_c, 1, 76, 0
3, 68208, Note_on_c, 1, 68, 93
3, 68256, Note_off_c, 1, 68, 0
3, 68256, Note_on_c, 1, 70, 93
3, 68304, Note_off_c, 1, 70, 0
3, 68304, Note_on_c, 1, 76, 93
3, 68352, Note_off_c, 1, 76, 0
3, 68352, Note_on_c, 1, 71, 93
3, 68400, Note_off_c, 1, 71, 0
3, 68400, Note_on_c, 1, 74, 93
3, 68448, Note_off_c, 1, 74, 0
3, 68448, Note_on_c, 1, 76, 93
3, 68496, Note_off_c, 1, 76, 0
3, 68496, Note_on_c, 1, 78, 93
3, 68544, Note_off_c, 1, 78, 0
3, 68544, Note_on_c, 1, 79, 93
3, 68592, Note_off_c, 1, 79, 0
3, 68592, Note_on_c, 1, 71, 93
3, 68640, Note_off_c, 1, 71, 0
3, 68640, Note_on_c, 1, 73, 93
3, 68688, Note_off_c, 1, 73, 0
3, 68688, Note_on_c, 1, 79, 93
3, 68736, Note_off_c, 1, 79, 0
3, 68736, Note_on_c, 1, 74, 93
3, 68784, Note_off_c, 1, 74, 0
3, 68784, Note_on_c, 1, 78, 93
3, 68832, Note_off_c, 1, 78, 0
3, 68832, Note_on_c, 1, 81, 93
3, 68880, Note_off_c, 1, 81, 0
3, 68880, Note_on_c, 1, 86, 93
3, 68928, Note_off_c, 1, 86, 0
3, 68928, Note_on_c, 1, 81, 93
3, 68976, Note_off_c, 1, 81, 0
3, 68976, Note_on_c, 1, 78, 93
3, 69024, Note_off_c, 1, 78, 0
3, 69024, Note_on_c, 1, 74, 93
3, 69072, Note_off_c, 1, 74, 0
3, 69072, Note_on_c, 1, 71, 93
3, 69120, Note_off_c, 1, 71, 0
3, 69120, Note_on_c, 1, 68, 93
3, 69168, Note_off_c, 1, 68, 0
3, 69168, Note_on_c, 1, 76, 93
3, 69216, Note_off_c, 1, 76, 0
3, 69216, Note_on_c, 1, 74, 93
3, 69264, Note_off_c, 1, 74, 0
3, 69264, Note_on_c, 1, 72, 93
3, 69312, Note_off_c, 1, 72, 0
3, 69312, Note_on_c, 1, 71, 93
3, 69360, Note_off_c, 1, 71, 0
3, 69360, Note_on_c, 1, 67, 93
3, 69408, Note_off_c, 1, 67, 0
3, 69408, Note_on_c, 1, 73, 93
3, 69456, Note_off_c, 1, 73, 0
3, 69456, Note_on_c, 1, 67, 93
3, 69504, Note_off_c, 1, 67, 0
3, 69504, Note_on_c, 1, 66, 93
3, 69552, Note_off_c, 1, 66, 0
3, 69552, Note_on_c, 1, 74, 93
3, 69600, Note_off_c, 1, 74, 0
3, 69600, Note_on_c, 1, 72, 93
3, 69648, Note_off_c, 1, 72, 0
3, 69648, Note_on_c, 1, 71, 93
3, 69696, Note_off_c, 1, 71, 0
3, 69696, Note_on_c, 1, 69, 93
3, 69744, Note_off_c, 1, 69, 0
3, 69744, Note_on_c, 1, 65, 93
3, 69792, Note_off_c, 1, 65, 0
3, 69792, Note_on_c, 1, 71, 93
3, 69840, Note_off_c, 1, 71, 0
3, 69840, Note_on_c, 1, 65, 93
3, 69888, Note_off_c, 1, 65, 0
3, 69888, Note_on_c, 1, 64, 93
3, 69936, Note_off_c, 1, 64, 0
3, 69936, Note_on_c, 1, 67, 93
3, 69984, Note_off_c, 1, 67, 0
3, 69984, Note_on_c, 1, 69, 93
3, 70032, Note_off_c, 1, 69, 0
3, 70032, Note_on_c, 1, 71, 93
3, 70080, Note_off_c, 1, 71, 0
3, 70080, Note_on_c, 1, 72, 93
3, 70128, Note_off_c, 1, 72, 0
3, 70128, Note_on_c, 1, 64, 93
3, 70176, Note_off_c, 1, 64, 0
3, 70176, Note_on_c, 1, 66, 93
3, 70224, Note_off_c, 1, 66, 0
3, 70224, Note_on_c, 1, 72, 93
3, 70272, Note_off_c, 1, 72, 0
3, 70272, Note_on_c, 1, 67, 93
3, 70320, Note_off_c, 1, 67, 0
3, 70320, Note_on_c, 1, 71, 93
3, 70368, Note_off_c, 1, 71, 0
3, 70368, Note_on_c, 1, 64, 93
3, 70416, Note_off_c, 1, 64, 0
3, 70416, Note_on_c, 1, 74, 93
3, 70464, Note_off_c, 1, 74, 0
3, 70464, Note_on_c, 1, 69, 93
3, 70512, Note_off_c, 1, 69, 0
3, 70512, Note_on_c, 1, 72, 93
3, 70560, Note_off_c, 1, 72, 0
3, 70560, Note_on_c, 1, 66, 93
3, 70608, Note_off_c, 1, 66, 0
3, 70608, Note_on_c, 1, 76, 93
3, 70656, Note_off_c, 1, 76, 0
3, 70656, Note_on_c, 1, 71, 93
3, 70704, Note_off_c, 1, 71, 0
3, 70704, Note_on_c, 1, 74, 93
3, 70752, Note_off_c, 1, 74, 0
3, 70752, Note_on_c, 1, 67, 93
3, 70800, Note_off_c, 1, 67, 0
3, 70800, Note_on_c, 1, 77, 93
3, 70848, Note_off_c, 1, 77, 0
3, 70848, Note_on_c, 1, 72, 93
3, 70896, Note_off_c, 1, 72, 0
3, 70896, Note_on_c, 1, 76, 93
3, 70944, Note_off_c, 1, 76, 0
3, 70944, Note_on_c, 1, 69, 93
3, 70992, Note_off_c, 1, 69, 0
3, 70992, Note_on_c, 1, 79, 93
3, 71040, Note_off_c, 1, 79, 0
3, 71040, Note_on_c, 1, 74, 93
3, 71088, Note_off_c, 1, 74, 0
3, 71088, Note_on_c, 1, 78, 93
3, 71136, Note_off_c, 1, 78, 0
3, 71136, Note_on_c, 1, 69, 93
3, 71184, Note_off_c, 1, 69, 0
3, 71184, Note_on_c, 1, 74, 93
3, 71232, Note_off_c, 1, 74, 0
3, 71232, Note_on_c, 1, 66, 93
3, 71280, Note_off_c, 1, 66, 0
3, 71280, Note_on_c, 1, 69, 93
3, 71328, Note_off_c, 1, 69, 0
3, 71328, Note_on_c, 1, 62, 93
3, 71376, Note_off_c, 1, 62, 0
3, 71376, Note_on_c, 1, 72, 93
3, 71424, Note_off_c, 1, 72, 0
3, 71424, Note_on_c, 1, 71, 93
3, 71472, Note_off_c, 1, 71, 0
3, 71472, Note_on_c, 1, 76, 93
3, 71520, Note_off_c, 1, 76, 0
3, 71520, Note_on_c, 1, 74, 93
3, 71568, Note_off_c, 1, 74, 0
3, 71568, Note_on_c, 1, 72, 93
3, 71616, Note_off_c, 1, 72, 0
3, 71616, Note_on_c, 1, 71, 93
3, 71664, Note_off_c, 1, 71, 0
3, 71712, Note_on_c, 1, 72, 93
3, 71760, Note_off_c, 1, 72, 0
3, 71808, Note_on_c, 1, 74, 93
3, 71856, Note_off_c, 1, 74, 0
3, 71904, Note_on_c, 1, 72, 93
3, 71952, Note_off_c, 1, 72, 0
3, 71952, Note_on_c, 1, 71, 93
3, 72000, Note_off_c, 1, 71, 0
3, 72000, Note_on_c, 1, 69, 93
3, 72048, Note_off_c, 1, 69, 0
3, 72096, Note_on_c, 1, 71, 93
3, 72144, Note_off_c, 1, 71, 0
3, 72192, Note_on_c, 1, 72, 93
3, 72240, Note_off_c, 1, 72, 0
3, 72288, Note_on_c, 1, 71, 93
3, 72336, Note_off_c, 1, 71, 0
3, 72384, Note_on_c, 1, 72, 93
3, 72432, Note_off_c, 1, 72, 0
3, 72480, Note_on_c, 1, 74, 93
3, 72528, Note_off_c, 1, 74, 0
3, 72528, Note_on_c, 1, 72, 93
3, 72576, Note_off_c, 1, 72, 0
3, 72576, Note_on_c, 1, 71, 93
3, 72624, Note_off_c, 1, 71, 0
3, 72672, Note_on_c, 1, 69, 93
3, 72720, Note_off_c, 1, 69, 0
3, 72768, Note_on_c, 1, 71, 93
3, 72816, Note_off_c, 1, 71, 0
3, 72864, Note_on_c, 1, 73, 93
3, 72960, Note_off_c, 1, 73, 0
3, 72960, Note_on_c, 1, 74, 93
3, 73008, Note_off_c, 1, 74, 0
3, 73056, Note_on_c, 1, 74, 93
3, 73104, Note_off_c, 1, 74, 0
3, 73152, Note_on_c, 1, 72, 93
3, 73200, Note_off_c, 1, 72, 0
3, 73248, Note_on_c, 1, 74, 93
3, 73296, Note_off_c, 1, 74, 0
3, 73344, Note_on_c, 1, 76, 93
3, 73392, Note_off_c, 1, 76, 0
3, 73440, Note_on_c, 1, 76, 93
3, 73488, Note_off_c, 1, 76, 0
3, 73536, Note_on_c, 1, 74, 93
3, 73584, Note_off_c, 1, 74, 0
3, 73632, Note_on_c, 1, 76, 93
3, 73680, Note_off_c, 1, 76, 0
3, 73728, Note_on_c, 1, 78, 93
3, 73776, Note_off_c, 1, 78, 0
3, 73824, Note_on_c, 1, 78, 93
3, 73872, Note_off_c, 1, 78, 0
3, 73920, Note_on_c, 1, 76, 93
3, 73968, Note_off_c, 1, 76, 0
3, 74016, Note_on_c, 1, 78, 93
3, 74064, Note_off_c, 1, 78, 0
3, 74112, Note_on_c, 1, 79, 93
3, 74160, Note_off_c, 1, 79, 0
3, 74208, Note_on_c, 1, 79, 93
3, 74256, Note_off_c, 1, 79, 0
3, 74304, Note_on_c, 1, 78, 93
3, 74352, Note_off_c, 1, 78, 0
3, 74400, Note_on_c, 1, 77, 93
3, 74448, Note_off_c, 1, 77, 0
3, 74496, Note_on_c, 1, 76, 93
3, 74544, Note_off_c, 1, 76, 0
3, 74592, Note_on_c, 1, 78, 93
3, 74688, Note_off_c, 1, 78, 0
3, 74688, Note_on_c, 1, 79, 93
3, 74736, Note_off_c, 1, 79, 0
3, 74784, Note_on_c, 1, 79, 93
3, 74832, Note_off_c, 1, 79, 0
3, 74880, Note_on_c, 1, 78, 93
3, 74928, Note_off_c, 1, 78, 0
3, 74976, Note_on_c, 1, 78, 93
3, 75024, Note_off_c, 1, 78, 0
3, 75072, Note_on_c, 1, 77, 93
3, 75120, Note_off_c, 1, 77, 0
3, 75168, Note_on_c, 1, 77, 93
3, 75216, Note_off_c, 1, 77, 0
3, 75264, Note_on_c, 1, 76, 93
3, 75312, Note_off_c, 1, 76, 0
3, 75360, Note_on_c, 1, 76, 93
3, 75408, Note_off_c, 1, 76, 0
3, 75456, Note_on_c, 1, 75, 93
3, 75504, Note_off_c, 1, 75, 0
3, 75552, Note_on_c, 1, 75, 93
3, 75648, Note_off_c, 1, 75, 0
3, 75648, Note_on_c, 1, 74, 93
3, 75696, Note_off_c, 1, 74, 0
3, 75744, Note_on_c, 1, 72, 93
3, 75792, Note_off_c, 1, 72, 0
3, 75840, Note_on_c, 1, 74, 93
3, 75888, Note_off_c, 1, 74, 0
3, 75936, Note_on_c, 1, 76, 93
3, 75984, Note_off_c, 1, 76, 0
3, 75984, Note_on_c, 1, 74, 93
3, 76032, Note_off_c, 1, 74, 0
3, 76032, Note_on_c, 1, 73, 93
3, 76080, Note_off_c, 1, 73, 0
3, 76128, Note_on_c, 1, 71, 93
3, 76176, Note_off_c, 1, 71, 0
3, 76224, Note_on_c, 1, 72, 93
3, 76272, Note_off_c, 1, 72, 0
3, 76320, Note_on_c, 1, 74, 93
3, 76368, Note_off_c, 1, 74, 0
3, 76368, Note_on_c, 1, 72, 93
3, 76416, Note_off_c, 1, 72, 0
3, 76416, Note_on_c, 1, 71, 93
3, 76464, Note_off_c, 1, 71, 0
3, 76512, Note_on_c, 1, 69, 93
3, 76560, Note_off_c, 1, 69, 0
3, 76608, Note_on_c, 1, 70, 93
3, 76656, Note_off_c, 1, 70, 0
3, 76704, Note_on_c, 1, 72, 93
3, 76752, Note_off_c, 1, 72, 0
3, 76752, Note_on_c, 1, 70, 93
3, 76800, Note_off_c, 1, 70, 0
3, 76800, Note_on_c, 1, 69, 93
3, 76848, Note_off_c, 1, 69, 0
3, 76896, Note_on_c, 1, 71, 93
3, 76944, Note_off_c, 1, 71, 0
3, 76992, Note_on_c, 1, 72, 93
3, 77040, Note_off_c, 1, 72, 0
3, 77088, Note_on_c, 1, 74, 93
3, 77136, Note_off_c, 1, 74, 0
3, 77136, Note_on_c, 1, 72, 93
3, 77184, Note_off_c, 1, 72, 0
3, 77184, Note_on_c, 1, 71, 93
3, 77376, Note_off_c, 1, 71, 0
3, 78912, Note_on_c, 1, 67, 93
3, 79104, Note_off_c, 1, 67, 0
3, 79104, Note_on_c, 1, 66, 93
3, 79200, Note_off_c, 1, 66, 0
3, 79200, Note_on_c, 1, 67, 93
3, 79248, Note_off_c, 1, 67, 0
3, 79248, Note_on_c, 1, 69, 93
3, 79296, Note_off_c, 1, 69, 0
3, 79296, Note_on_c, 1, 71, 93
3, 79392, Note_off_c, 1, 71, 0
3, 79392, Note_on_c, 1, 69, 93
3, 79488, Note_off_c, 1, 69, 0
3, 79488, Note_on_c, 1, 67, 93
3, 79680, Note_off_c, 1, 67, 0
3, 79680, Note_on_c, 1, 72, 93
3, 79776, Note_off_c, 1, 72, 0
3, 79776, Note_on_c, 1, 71, 93
3, 79872, Note_off_c, 1, 71, 0
3, 79872, Note_on_c, 1, 69, 93
3, 79968, Note_off_c, 1, 69, 0
3, 79968, Note_on_c, 1, 71, 93
3, 80016, Note_off_c, 1, 71, 0
3, 80016, Note_on_c, 1, 69, 93
3, 80064, Note_off_c, 1, 69, 0
3, 80064, Note_on_c, 1, 67, 93
3, 80160, Note_off_c, 1, 67, 0
3, 80160, Note_on_c, 1, 69, 93
3, 80256, Note_off_c, 1, 69, 0
3, 80256, Note_on_c, 1, 71, 93
3, 80448, Note_off_c, 1, 71, 0
3, 80448, Note_on_c, 1, 71, 93
3, 80640, Note_off_c, 1, 71, 0
3, 80640, Note_on_c, 1, 72, 93
3, 80832, Note_off_c, 1, 72, 0
3, 80832, Note_on_c, 1, 73, 93
3, 81024, Note_off_c, 1, 73, 0
3, 81024, Note_on_c, 1, 74, 93
3, 81216, Note_off_c, 1, 74, 0
3, 81216, Note_on_c, 1, 74, 93
3, 81408, Note_off_c, 1, 74, 0
3, 81408, Note_on_c, 1, 75, 93
3, 81600, Note_off_c, 1, 75, 0
3, 81696, Note_on_c, 1, 76, 93
3, 81792, Note_off_c, 1, 76, 0
3, 81792, Note_on_c, 1, 77, 93
3, 81888, Note_off_c, 1, 77, 0
3, 81888, Note_on_c, 1, 76, 93
3, 81984, Note_off_c, 1, 76, 0
3, 81984, Note_on_c, 1, 74, 93
3, 82080, Note_off_c, 1, 74, 0
3, 82080, Note_on_c, 1, 72, 93
3, 82176, Note_off_c, 1, 72, 0
3, 82176, Note_on_c, 1, 71, 93
3, 82272, Note_off_c, 1, 71, 0
3, 82272, Note_on_c, 1, 72, 93
3, 82320, Note_off_c, 1, 72, 0
3, 82320, Note_on_c, 1, 74, 93
3, 82368, Note_off_c, 1, 74, 0
3, 82368, Note_on_c, 1, 76, 93
3, 82464, Note_off_c, 1, 76, 0
3, 82464, Note_on_c, 1, 74, 93
3, 82560, Note_off_c, 1, 74, 0
3, 82560, Note_on_c, 1, 72, 93
3, 82752, Note_off_c, 1, 72, 0
3, 82752, Note_on_c, 1, 77, 93
3, 82848, Note_off_c, 1, 77, 0
3, 82848, Note_on_c, 1, 76, 93
3, 82944, Note_off_c, 1, 76, 0
3, 82944, Note_on_c, 1, 74, 93
3, 83040, Note_off_c, 1, 74, 0
3, 83040, Note_on_c, 1, 76, 93
3, 83088, Note_off_c, 1, 76, 0
3, 83088, Note_on_c, 1, 74, 93
3, 83136, Note_off_c, 1, 74, 0
3, 83136, Note_on_c, 1, 72, 93
3, 83232, Note_off_c, 1, 72, 0
3, 83232, Note_on_c, 1, 74, 93
3, 83328, Note_off_c, 1, 74, 0
3, 83328, Note_on_c, 1, 76, 93
3, 83520, Note_off_c, 1, 76, 0
3, 83520, Note_on_c, 1, 72, 93
3, 83712, Note_off_c, 1, 72, 0
3, 83712, Note_on_c, 1, 72, 93
3, 83904, Note_off_c, 1, 72, 0
3, 83904, Note_on_c, 1, 70, 93
3, 84000, Note_off_c, 1, 70, 0
3, 84000, Note_on_c, 1, 69, 93
3, 84048, Note_off_c, 1, 69, 0
3, 84048, Note_on_c, 1, 67, 93
3, 84096, Note_off_c, 1, 67, 0
3, 84096, Note_on_c, 1, 73, 93
3, 84288, Note_off_c, 1, 73, 0
3, 84384, Note_on_c, 1, 73, 93
3, 84480, Note_off_c, 1, 73, 0
3, 84480, Note_on_c, 1, 74, 93
3, 84576, Note_off_c, 1, 74, 0
3, 84576, Note_on_c, 1, 72, 93
3, 84672, Note_off_c, 1, 72, 0
3, 84672, Note_on_c, 1, 70, 93
3, 84768, Note_off_c, 1, 70, 0
3, 84768, Note_on_c, 1, 69, 93
3, 84864, Note_off_c, 1, 69, 0
3, 84864, Note_on_c, 1, 68, 93
3, 84960, Note_off_c, 1, 68, 0
3, 84960, Note_on_c, 1, 66, 93
3, 85008, Note_off_c, 1, 66, 0
3, 85008, Note_on_c, 1, 64, 93
3, 85056, Note_off_c, 1, 64, 0
3, 85056, Note_on_c, 1, 69, 93
3, 85248, Note_off_c, 1, 69, 0
3, 85248, Note_on_c, 1, 69, 93
3, 85344, Note_off_c, 1, 69, 0
3, 85344, Note_on_c, 1, 71, 93
3, 85392, Note_off_c, 1, 71, 0
3, 85392, Note_on_c, 1, 72, 93
3, 85440, Note_off_c, 1, 72, 0
3, 85440, Note_on_c, 1, 71, 93
3, 85536, Note_off_c, 1, 71, 0
3, 85536, Note_on_c, 1, 69, 93
3, 85632, Note_off_c, 1, 69, 0
3, 85632, Note_on_c, 1, 67, 93
3, 85728, Note_off_c, 1, 67, 0
3, 85728, Note_on_c, 1, 65, 93
3, 85824, Note_off_c, 1, 65, 0
3, 85824, Note_on_c, 1, 64, 93
3, 85920, Note_off_c, 1, 64, 0
3, 85920, Note_on_c, 1, 62, 93
3, 86016, Note_off_c, 1, 62, 0
3, 86016, Note_on_c, 1, 61, 93
3, 86112, Note_off_c, 1, 61, 0
3, 86112, Note_on_c, 1, 59, 93
3, 86160, Note_off_c, 1, 59, 0
3, 86160, Note_on_c, 1, 57, 93
3, 86208, Note_off_c, 1, 57, 0
3, 86208, Note_on_c, 1, 62, 93
3, 86400, Note_off_c, 1, 62, 0
3, 86400, Note_on_c, 1, 62, 93
3, 86496, Note_off_c, 1, 62, 0
3, 86496, Note_on_c, 1, 64, 93
3, 86544, Note_off_c, 1, 64, 0
3, 86544, Note_on_c, 1, 65, 93
3, 86592, Note_off_c, 1, 65, 0
3, 86592, Note_on_c, 1, 64, 93
3, 86688, Note_off_c, 1, 64, 0
3, 86688, Note_on_c, 1, 62, 93
3, 86784, Note_off_c, 1, 62, 0
3, 86784, Note_on_c, 1, 61, 93
3, 86976, Note_off_c, 1, 61, 0
3, 87168, Note_on_c, 1, 67, 93
3, 87360, Note_off_c, 1, 67, 0
3, 87360, Note_on_c, 1, 67, 93
3, 87552, Note_off_c, 1, 67, 0
3, 87552, Note_on_c, 1, 65, 93
3, 87648, Note_off_c, 1, 65, 0
3, 87648, Note_on_c, 1, 64, 93
3, 87744, Note_off_c, 1, 64, 0
3, 87744, Note_on_c, 1, 62, 93
3, 87936, Note_off_c, 1, 62, 0
3, 87936, Note_on_c, 1, 60, 93
3, 88128, Note_off_c, 1, 60, 0
3, 90432, Note_on_c, 1, 55, 93
3, 90624, Note_off_c, 1, 55, 0
3, 90624, Note_on_c, 1, 56, 93
3, 90816, Note_off_c, 1, 56, 0
3, 90816, Note_on_c, 1, 57, 93
3, 91008, Note_off_c, 1, 57, 0
3, 91008, Note_on_c, 1, 58, 93
3, 91200, Note_off_c, 1, 58, 0
3, 91296, Note_on_c, 1, 59, 93
3, 91392, Note_off_c, 1, 59, 0
3, 91392, Note_on_c, 1, 60, 93
3, 91584, Note_off_c, 1, 60, 0
3, 91680, Note_on_c, 1, 61, 93
3, 91776, Note_off_c, 1, 61, 0
3, 91776, Note_on_c, 1, 62, 93
3, 91968, Note_off_c, 1, 62, 0
3, 91968, Note_on_c, 1, 62, 93
3, 92064, Note_off_c, 1, 62, 0
3, 92064, Note_on_c, 1, 60, 93
3, 92160, Note_off_c, 1, 60, 0
3, 92160, Note_on_c, 1, 59, 93
3, 92256, Note_off_c, 1, 59, 0
3, 92256, Note_on_c, 1, 60, 93
3, 92304, Note_off_c, 1, 60, 0
3, 92304, Note_on_c, 1, 62, 93
3, 92352, Note_off_c, 1, 62, 0
3, 92352, Note_on_c, 1, 60, 93
3, 92448, Note_off_c, 1, 60, 0
3, 92448, Note_on_c, 1, 58, 93
3, 92544, Note_off_c, 1, 58, 0
3, 92544, Note_on_c, 1, 57, 93
3, 92736, Note_off_c, 1, 57, 0
3, 92928, Note_on_c, 1, 60, 93
3, 93120, Note_off_c, 1, 60, 0
3, 93408, Note_on_c, 1, 59, 93
3, 93504, Note_off_c, 1, 59, 0
3, 93504, Note_on_c, 1, 60, 93
3, 93600, Note_off_c, 1, 60, 0
3, 93600, Note_on_c, 1, 57, 93
3, 93696, Note_off_c, 1, 57, 0
3, 93696, Note_on_c, 1, 55, 93
3, 93888, Note_off_c, 1, 55, 0
3, 93888, Note_on_c, 1, 55, 93
3, 94080, Note_off_c, 1, 55, 0
3, 94176, Note_on_c, 1, 60, 93
3, 94224, Note_off_c, 1, 60, 0
3, 94224, Note_on_c, 1, 62, 93
3, 94272, Note_off_c, 1, 62, 0
3, 94272, Note_on_c, 1, 64, 93
3, 94320, Note_off_c, 1, 64, 0
3, 94320, Note_on_c, 1, 60, 93
3, 94368, Note_off_c, 1, 60, 0
3, 94368, Note_on_c, 1, 65, 93
3, 94416, Note_off_c, 1, 65, 0
3, 94416, Note_on_c, 1, 62, 93
3, 94464, Note_off_c, 1, 62, 0
3, 94464, Note_on_c, 1, 67, 93
3, 94512, Note_off_c, 1, 67, 0
3, 94512, Note_on_c, 1, 64, 93
3, 94560, Note_off_c, 1, 64, 0
3, 94560, Note_on_c, 1, 60, 93
3, 94608, Note_off_c, 1, 60, 0
3, 94608, Note_on_c, 1, 64, 93
3, 94656, Note_off_c, 1, 64, 0
3, 94656, Note_on_c, 1, 67, 93
3, 94704, Note_off_c, 1, 67, 0
3, 94704, Note_on_c, 1, 70, 93
3, 94752, Note_off_c, 1, 70, 0
3, 94752, Note_on_c, 1, 69, 93
3, 94800, Note_off_c, 1, 69, 0
3, 94800, Note_on_c, 1, 67, 93
3, 94848, Note_off_c, 1, 67, 0
3, 94848, Note_on_c, 1, 69, 93
3, 94896, Note_off_c, 1, 69, 0
3, 94896, Note_on_c, 1, 65, 93
3, 94944, Note_off_c, 1, 65, 0
3, 94944, Note_on_c, 1, 62, 93
3, 94992, Note_off_c, 1, 62, 0
3, 94992, Note_on_c, 1, 64, 93
3, 95040, Note_off_c, 1, 64, 0
3, 95040, Note_on_c, 1, 66, 93
3, 95088, Note_off_c, 1, 66, 0
3, 95088, Note_on_c, 1, 62, 93
3, 95136, Note_off_c, 1, 62, 0
3, 95136, Note_on_c, 1, 67, 93
3, 95184, Note_off_c, 1, 67, 0
3, 95184, Note_on_c, 1, 64, 93
3, 95232, Note_off_c, 1, 64, 0
3, 95232, Note_on_c, 1, 69, 93
3, 95280, Note_off_c, 1, 69, 0
3, 95280, Note_on_c, 1, 66, 93
3, 95328, Note_off_c, 1, 66, 0
3, 95328, Note_on_c, 1, 62, 93
3, 95376, Note_off_c, 1, 62, 0
3, 95376, Note_on_c, 1, 66, 93
3, 95424, Note_off_c, 1, 66, 0
3, 95424, Note_on_c, 1, 69, 93
3, 95472, Note_off_c, 1, 69, 0
3, 95472, Note_on_c, 1, 72, 93
3, 95520, Note_off_c, 1, 72, 0
3, 95520, Note_on_c, 1, 71, 93
3, 95568, Note_off_c, 1, 71, 0
3, 95568, Note_on_c, 1, 69, 93
3, 95616, Note_off_c, 1, 69, 0
3, 95616, Note_on_c, 1, 71, 93
3, 95664, Note_off_c, 1, 71, 0
3, 95664, Note_on_c, 1, 74, 93
3, 95712, Note_off_c, 1, 74, 0
3, 95712, Note_on_c, 1, 67, 93
3, 95760, Note_off_c, 1, 67, 0
3, 95760, Note_on_c, 1, 69, 93
3, 95808, Note_off_c, 1, 69, 0
3, 95808, Note_on_c, 1, 71, 93
3, 95856, Note_off_c, 1, 71, 0
3, 95856, Note_on_c, 1, 67, 93
3, 95904, Note_off_c, 1, 67, 0
3, 95904, Note_on_c, 1, 72, 93
3, 95952, Note_off_c, 1, 72, 0
3, 95952, Note_on_c, 1, 69, 93
3, 96000, Note_off_c, 1, 69, 0
3, 96000, Note_on_c, 1, 74, 93
3, 96048, Note_off_c, 1, 74, 0
3, 96048, Note_on_c, 1, 71, 93
3, 96096, Note_off_c, 1, 71, 0
3, 96096, Note_on_c, 1, 67, 93
3, 96144, Note_off_c, 1, 67, 0
3, 96144, Note_on_c, 1, 71, 93
3, 96192, Note_off_c, 1, 71, 0
3, 96192, Note_on_c, 1, 74, 93
3, 96240, Note_off_c, 1, 74, 0
3, 96240, Note_on_c, 1, 77, 93
3, 96288, Note_off_c, 1, 77, 0
3, 96288, Note_on_c, 1, 76, 93
3, 96336, Note_off_c, 1, 76, 0
3, 96336, Note_on_c, 1, 74, 93
3, 96384, Note_off_c, 1, 74, 0
3, 96384, Note_on_c, 1, 76, 93
3, 96432, Note_off_c, 1, 76, 0
3, 96432, Note_on_c, 1, 72, 93
3, 96480, Note_off_c, 1, 72, 0
3, 96480, Note_on_c, 1, 67, 93
3, 96528, Note_off_c, 1, 67, 0
3, 96528, Note_on_c, 1, 72, 93
3, 96576, Note_off_c, 1, 72, 0
3, 96576, Note_on_c, 1, 76, 93
3, 96624, Note_off_c, 1, 76, 0
3, 96624, Note_on_c, 1, 79, 93
3, 96672, Note_off_c, 1, 79, 0
3, 96672, Note_on_c, 1, 78, 93
3, 96720, Note_off_c, 1, 78, 0
3, 96720, Note_on_c, 1, 76, 93
3, 96768, Note_off_c, 1, 76, 0
3, 96768, Note_on_c, 1, 78, 93
3, 96816, Note_off_c, 1, 78, 0
3, 96816, Note_on_c, 1, 72, 93
3, 96864, Note_off_c, 1, 72, 0
3, 96864, Note_on_c, 1, 69, 93
3, 96912, Note_off_c, 1, 69, 0
3, 96912, Note_on_c, 1, 72, 93
3, 96960, Note_off_c, 1, 72, 0
3, 96960, Note_on_c, 1, 78, 93
3, 97008, Note_off_c, 1, 78, 0
3, 97008, Note_on_c, 1, 81, 93
3, 97056, Note_off_c, 1, 81, 0
3, 97056, Note_on_c, 1, 79, 93
3, 97104, Note_off_c, 1, 79, 0
3, 97104, Note_on_c, 1, 78, 93
3, 97152, Note_off_c, 1, 78, 0
3, 97152, Note_on_c, 1, 79, 93
3, 97200, Note_off_c, 1, 79, 0
3, 97200, Note_on_c, 1, 74, 93
3, 97248, Note_off_c, 1, 74, 0
3, 97248, Note_on_c, 1, 71, 93
3, 97296, Note_off_c, 1, 71, 0
3, 97296, Note_on_c, 1, 74, 93
3, 97344, Note_off_c, 1, 74, 0
3, 97344, Note_on_c, 1, 79, 93
3, 97392, Note_off_c, 1, 79, 0
3, 97392, Note_on_c, 1, 83, 93
3, 97440, Note_off_c, 1, 83, 0
3, 97440, Note_on_c, 1, 81, 93
3, 97488, Note_off_c, 1, 81, 0
3, 97488, Note_on_c, 1, 79, 93
3, 97536, Note_off_c, 1, 79, 0
3, 97536, Note_on_c, 1, 81, 93
3, 97584, Note_off_c, 1, 81, 0
3, 97584, Note_on_c, 1, 78, 93
3, 97632, Note_off_c, 1, 78, 0
3, 97632, Note_on_c, 1, 72, 93
3, 97680, Note_off_c, 1, 72, 0
3, 97680, Note_on_c, 1, 78, 93
3, 97728, Note_off_c, 1, 78, 0
3, 97728, Note_on_c, 1, 81, 93
3, 97776, Note_off_c, 1, 81, 0
3, 97776, Note_on_c, 1, 84, 93
3, 97824, Note_off_c, 1, 84, 0
3, 97824, Note_on_c, 1, 83, 93
3, 97872, Note_off_c, 1, 83, 0
3, 97872, Note_on_c, 1, 81, 93
3, 97920, Note_off_c, 1, 81, 0
3, 97920, Note_on_c, 1, 83, 93
3, 97968, Note_off_c, 1, 83, 0
3, 97968, Note_on_c, 1, 79, 93
3, 98016, Note_off_c, 1, 79, 0
3, 98016, Note_on_c, 1, 74, 93
3, 98064, Note_off_c, 1, 74, 0
3, 98064, Note_on_c, 1, 79, 93
3, 98112, Note_off_c, 1, 79, 0
3, 98112, Note_on_c, 1, 83, 93
3, 98160, Note_off_c, 1, 83, 0
3, 98160, Note_on_c, 1, 86, 93
3, 98208, Note_off_c, 1, 86, 0
3, 98208, Note_on_c, 1, 79, 93
3, 98256, Note_off_c, 1, 79, 0
3, 98256, Note_on_c, 1, 83, 93
3, 98304, Note_off_c, 1, 83, 0
3, 98304, Note_on_c, 1, 84, 93
3, 98352, Note_off_c, 1, 84, 0
3, 98352, Note_on_c, 1, 81, 93
3, 98400, Note_off_c, 1, 81, 0
3, 98400, Note_on_c, 1, 79, 93
3, 98448, Note_off_c, 1, 79, 0
3, 98448, Note_on_c, 1, 77, 93
3, 98496, Note_off_c, 1, 77, 0
3, 98496, Note_on_c, 1, 76, 93
3, 98544, Note_off_c, 1, 76, 0
3, 98544, Note_on_c, 1, 84, 93
3, 98592, Note_off_c, 1, 84, 0
3, 98592, Note_on_c, 1, 78, 93
3, 98640, Note_off_c, 1, 78, 0
3, 98640, Note_on_c, 1, 84, 93
3, 98688, Note_off_c, 1, 84, 0
3, 98688, Note_on_c, 1, 83, 93
3, 98736, Note_off_c, 1, 83, 0
3, 98736, Note_on_c, 1, 79, 93
3, 98784, Note_off_c, 1, 79, 0
3, 98784, Note_on_c, 1, 77, 93
3, 98832, Note_off_c, 1, 77, 0
3, 98832, Note_on_c, 1, 76, 93
3, 98880, Note_off_c, 1, 76, 0
3, 98880, Note_on_c, 1, 74, 93
3, 98928, Note_off_c, 1, 74, 0
3, 98928, Note_on_c, 1, 82, 93
3, 98976, Note_off_c, 1, 82, 0
3, 98976, Note_on_c, 1, 76, 93
3, 99024, Note_off_c, 1, 76, 0
3, 99024, Note_on_c, 1, 82, 93
3, 99072, Note_off_c, 1, 82, 0
3, 99072, Note_on_c, 1, 77, 93
3, 99120, Note_off_c, 1, 77, 0
3, 99120, Note_on_c, 1, 82, 93
3, 99168, Note_off_c, 1, 82, 0
3, 99168, Note_on_c, 1, 81, 93
3, 99216, Note_off_c, 1, 81, 0
3, 99216, Note_on_c, 1, 79, 93
3, 99264, Note_off_c, 1, 79, 0
3, 99264, Note_on_c, 1, 81, 93
3, 99312, Note_off_c, 1, 81, 0
3, 99312, Note_on_c, 1, 77, 93
3, 99360, Note_off_c, 1, 77, 0
3, 99360, Note_on_c, 1, 83, 93
3, 99408, Note_off_c, 1, 83, 0
3, 99408, Note_on_c, 1, 77, 93
3, 99456, Note_off_c, 1, 77, 0
3, 99456, Note_on_c, 1, 76, 93
3, 99504, Note_off_c, 1, 76, 0
3, 99504, Note_on_c, 1, 79, 93
3, 99552, Note_off_c, 1, 79, 0
3, 99552, Note_on_c, 1, 81, 93
3, 99600, Note_off_c, 1, 81, 0
3, 99600, Note_on_c, 1, 83, 93
3, 99648, Note_off_c, 1, 83, 0
3, 99648, Note_on_c, 1, 84, 93
3, 99696, Note_off_c, 1, 84, 0
3, 99696, Note_on_c, 1, 81, 93
3, 99744, Note_off_c, 1, 81, 0
3, 99744, Note_on_c, 1, 84, 93
3, 99792, Note_off_c, 1, 84, 0
3, 99792, Note_on_c, 1, 79, 93
3, 99840, Note_off_c, 1, 79, 0
3, 99840, Note_on_c, 1, 77, 93
3, 99888, Note_off_c, 1, 77, 0
3, 99888, Note_on_c, 1, 81, 93
3, 99936, Note_off_c, 1, 81, 0
3, 99936, Note_on_c, 1, 83, 93
3, 99984, Note_off_c, 1, 83, 0
3, 99984, Note_on_c, 1, 84, 93
3, 100032, Note_off_c, 1, 84, 0
3, 100032, Note_on_c, 1, 86, 93
3, 100080, Note_off_c, 1, 86, 0
3, 100080, Note_on_c, 1, 83, 93
3, 100128, Note_off_c, 1, 83, 0
3, 100128, Note_on_c, 1, 86, 93
3, 100176, Note_off_c, 1, 86, 0
3, 100176, Note_on_c, 1, 81, 93
3, 100224, Note_off_c, 1, 81, 0
3, 100224, Note_on_c, 1, 79, 93
3, 100272, Note_off_c, 1, 79, 0
3, 100272, Note_on_c, 1, 83, 93
3, 100320, Note_off_c, 1, 83, 0
3, 100320, Note_on_c, 1, 84, 93
3, 100368, Note_off_c, 1, 84, 0
3, 100368, Note_on_c, 1, 86, 93
3, 100416, Note_off_c, 1, 86, 0
3, 100416, Note_on_c, 1, 88, 93
3, 100464, Note_off_c, 1, 88, 0
3, 100464, Note_on_c, 1, 84, 93
3, 100512, Note_off_c, 1, 84, 0
3, 100512, Note_on_c, 1, 88, 93
3, 100560, Note_off_c, 1, 88, 0
3, 100560, Note_on_c, 1, 82, 93
3, 100608, Note_off_c, 1, 82, 0
3, 100608, Note_on_c, 1, 81, 93
3, 100656, Note_off_c, 1, 81, 0
3, 100656, Note_on_c, 1, 84, 93
3, 100704, Note_off_c, 1, 84, 0
3, 100704, Note_on_c, 1, 86, 93
3, 100752, Note_off_c, 1, 86, 0
3, 100752, Note_on_c, 1, 88, 93
3, 100800, Note_off_c, 1, 88, 0
3, 100800, Note_on_c, 1, 89, 93
3, 100848, Note_off_c, 1, 89, 0
3, 100848, Note_on_c, 1, 86, 93
3, 100896, Note_off_c, 1, 86, 0
3, 100896, Note_on_c, 1, 89, 93
3, 100944, Note_off_c, 1, 89, 0
3, 100944, Note_on_c, 1, 84, 93
3, 100992, Note_off_c, 1, 84, 0
3, 100992, Note_on_c, 1, 83, 93
3, 101040, Note_off_c, 1, 83, 0
3, 101040, Note_on_c, 1, 86, 93
3, 101088, Note_off_c, 1, 86, 0
3, 101088, Note_on_c, 1, 88, 93
3, 101136, Note_off_c, 1, 88, 0
3, 101136, Note_on_c, 1, 89, 93
3, 101184, Note_off_c, 1, 89, 0
3, 101184, Note_on_c, 1, 91, 93
3, 101232, Note_off_c, 1, 91, 0
3, 101232, Note_on_c, 1, 88, 93
3, 101280, Note_off_c, 1, 88, 0
3, 101280, Note_on_c, 1, 91, 93
3, 101328, Note_off_c, 1, 91, 0
3, 101328, Note_on_c, 1, 86, 93
3, 101376, Note_off_c, 1, 86, 0
3, 101376, Note_on_c, 1, 84, 93
3, 101424, Note_off_c, 1, 84, 0
3, 101424, Note_on_c, 1, 81, 93
3, 101472, Note_off_c, 1, 81, 0
3, 101472, Note_on_c, 1, 89, 93
3, 101520, Note_off_c, 1, 89, 0
3, 101520, Note_on_c, 1, 86, 93
3, 101568, Note_off_c, 1, 86, 0
3, 101568, Note_on_c, 1, 83, 93
3, 101616, Note_off_c, 1, 83, 0
3, 101616, Note_on_c, 1, 79, 93
3, 101664, Note_off_c, 1, 79, 0
3, 101664, Note_on_c, 1, 88, 93
3, 101712, Note_off_c, 1, 88, 0
3, 101712, Note_on_c, 1, 84, 93
3, 101760, Note_off_c, 1, 84, 0
3, 101760, Note_on_c, 1, 81, 93
3, 101808, Note_off_c, 1, 81, 0
3, 101808, Note_on_c, 1, 77, 93
3, 101856, Note_off_c, 1, 77, 0
3, 101856, Note_on_c, 1, 86, 93
3, 101904, Note_off_c, 1, 86, 0
3, 101904, Note_on_c, 1, 83, 93
3, 101952, Note_off_c, 1, 83, 0
3, 101952, Note_on_c, 1, 79, 93
3, 102000, Note_off_c, 1, 79, 0
3, 102000, Note_on_c, 1, 76, 93
3, 102048, Note_off_c, 1, 76, 0
3, 102048, Note_on_c, 1, 84, 93
3, 102096, Note_off_c, 1, 84, 0
3, 102096, Note_on_c, 1, 81, 93
3, 102144, Note_off_c, 1, 81, 0
3, 102144, Note_on_c, 1, 77, 93
3, 102192, Note_off_c, 1, 77, 0
3, 102192, Note_on_c, 1, 86, 93
3, 102240, Note_off_c, 1, 86, 0
3, 102240, Note_on_c, 1, 84, 93
3, 102288, Note_off_c, 1, 84, 0
3, 102288, Note_on_c, 1, 83, 93
3, 102336, Note_off_c, 1, 83, 0
3, 102336, Note_on_c, 1, 81, 93
3, 102384, Note_off_c, 1, 81, 0
3, 102384, Note_on_c, 1, 77, 93
3, 102432, Note_off_c, 1, 77, 0
3, 102432, Note_on_c, 1, 83, 93
3, 102480, Note_off_c, 1, 83, 0
3, 102480, Note_on_c, 1, 77, 93
3, 102528, Note_off_c, 1, 77, 0
3, 102528, Note_on_c, 1, 76, 93
3, 102576, Note_off_c, 1, 76, 0
3, 102576, Note_on_c, 1, 84, 93
3, 102624, Note_off_c, 1, 84, 0
3, 102624, Note_on_c, 1, 83, 93
3, 102672, Note_off_c, 1, 83, 0
3, 102672, Note_on_c, 1, 81, 93
3, 102720, Note_off_c, 1, 81, 0
3, 102720, Note_on_c, 1, 79, 93
3, 102768, Note_off_c, 1, 79, 0
3, 102768, Note_on_c, 1, 75, 93
3, 102816, Note_off_c, 1, 75, 0
3, 102816, Note_on_c, 1, 81, 93
3, 102864, Note_off_c, 1, 81, 0
3, 102864, Note_on_c, 1, 75, 93
3, 102912, Note_off_c, 1, 75, 0
3, 102912, Note_on_c, 1, 74, 93
3, 102960, Note_off_c, 1, 74, 0
3, 102960, Note_on_c, 1, 82, 93
3, 103008, Note_off_c, 1, 82, 0
3, 103008, Note_on_c, 1, 81, 93
3, 103056, Note_off_c, 1, 81, 0
3, 103056, Note_on_c, 1, 79, 93
3, 103104, Note_off_c, 1, 79, 0
3, 103104, Note_on_c, 1, 78, 93
3, 103152, Note_off_c, 1, 78, 0
3, 103152, Note_on_c, 1, 74, 93
3, 103200, Note_off_c, 1, 74, 0
3, 103200, Note_on_c, 1, 79, 93
3, 103248, Note_off_c, 1, 79, 0
3, 103248, Note_on_c, 1, 74, 93
3, 103296, Note_off_c, 1, 74, 0
3, 103296, Note_on_c, 1, 72, 93
3, 103344, Note_off_c, 1, 72, 0
3, 103344, Note_on_c, 1, 81, 93
3, 103392, Note_off_c, 1, 81, 0
3, 103392, Note_on_c, 1, 79, 93
3, 103440, Note_off_c, 1, 79, 0
3, 103440, Note_on_c, 1, 77, 93
3, 103488, Note_off_c, 1, 77, 0
3, 103488, Note_on_c, 1, 76, 93
3, 103536, Note_off_c, 1, 76, 0
3, 103536, Note_on_c, 1, 72, 93
3, 103584, Note_off_c, 1, 72, 0
3, 103584, Note_on_c, 1, 78, 93
3, 103632, Note_off_c, 1, 78, 0
3, 103632, Note_on_c, 1, 72, 93
3, 103680, Note_off_c, 1, 72, 0
3, 103680, Note_on_c, 1, 71, 93
3, 103728, Note_off_c, 1, 71, 0
3, 103728, Note_on_c, 1, 79, 93
3, 103776, Note_off_c, 1, 79, 0
3, 103776, Note_on_c, 1, 78, 93
3, 103824, Note_off_c, 1, 78, 0
3, 103824, Note_on_c, 1, 76, 93
3, 103872, Note_off_c, 1, 76, 0
3, 103872, Note_on_c, 1, 74, 93
3, 103920, Note_off_c, 1, 74, 0
3, 103920, Note_on_c, 1, 72, 93
3, 103968, Note_off_c, 1, 72, 0
3, 103968, Note_on_c, 1, 71, 93
3, 104016, Note_off_c, 1, 71, 0
3, 104016, Note_on_c, 1, 69, 93
3, 104064, Note_off_c, 1, 69, 0
3, 104064, Note_on_c, 1, 71, 93
3, 104112, Note_off_c, 1, 71, 0
3, 104112, Note_on_c, 1, 67, 93
3, 104160, Note_off_c, 1, 67, 0
3, 104160, Note_on_c, 1, 74, 93
3, 104208, Note_off_c, 1, 74, 0
3, 104208, Note_on_c, 1, 66, 93
3, 104256, Note_off_c, 1, 66, 0
3, 104256, Note_on_c, 1, 67, 93
3, 104304, Note_off_c, 1, 67, 0
3, 104304, Note_on_c, 1, 62, 93
3, 104352, Note_off_c, 1, 62, 0
3, 104352, Note_on_c, 1, 71, 93
3, 104400, Note_off_c, 1, 71, 0
3, 104400, Note_on_c, 1, 67, 93
3, 104448, Note_off_c, 1, 67, 0
3, 104448, Note_on_c, 1, 74, 93
3, 104496, Note_off_c, 1, 74, 0
3, 104496, Note_on_c, 1, 71, 93
3, 104544, Note_off_c, 1, 71, 0
3, 104544, Note_on_c, 1, 79, 93
3, 104592, Note_off_c, 1, 79, 0
3, 104592, Note_on_c, 1, 74, 93
3, 104640, Note_off_c, 1, 74, 0
3, 104640, Note_on_c, 1, 71, 93
3, 104688, Note_off_c, 1, 71, 0
3, 104688, Note_on_c, 1, 67, 93
3, 104736, Note_off_c, 1, 67, 0
3, 104736, Note_on_c, 1, 62, 93
3, 104784, Note_off_c, 1, 62, 0
3, 104784, Note_on_c, 1, 59, 93
3, 104832, Note_off_c, 1, 59, 0
3, 104832, Note_on_c, 1, 55, 93
3, 104880, Note_off_c, 1, 55, 0
3, 105072, Note_on_c, 1, 55, 93
3, 105120, Note_off_c, 1, 55, 0
3, 105168, Note_on_c, 1, 55, 93
3, 105216, Note_off_c, 1, 55, 0
3, 105264, Note_on_c, 1, 55, 93
3, 105312, Note_off_c, 1, 55, 0
3, 105456, Note_on_c, 1, 55, 93
3, 105504, Note_off_c, 1, 55, 0
3, 105552, Note_on_c, 1, 55, 93
3, 105600, Note_off_c, 1, 55, 0
3, 105648, Note_on_c, 1, 55, 93
3, 105696, Note_off_c, 1, 55, 0
3, 105744, Note_on_c, 1, 55, 93
3, 105792, Note_off_c, 1, 55, 0
3, 105840, Note_on_c, 1, 55, 93
3, 105888, Note_off_c, 1, 55, 0
3, 106032, Note_on_c, 1, 55, 93
3, 106080, Note_off_c, 1, 55, 0
3, 106128, Note_on_c, 1, 55, 93
3, 106176, Note_off_c, 1, 55, 0
3, 106224, Note_on_c, 1, 55, 93
3, 106272, Note_off_c, 1, 55, 0
3, 106416, Note_on_c, 1, 55, 93
3, 106464, Note_off_c, 1, 55, 0
3, 106512, Note_on_c, 1, 55, 93
3, 106560, Note_off_c, 1, 55, 0
3, 106608, Note_on_c, 1, 55, 93
3, 106656, Note_off_c, 1, 55, 0
3, 106704, Note_on_c, 1, 55, 93
3, 106752, Note_off_c, 1, 55, 0
3, 106800, Note_on_c, 1, 55, 93
3, 106848, Note_off_c, 1, 55, 0
3, 106896, Note_on_c, 1, 55, 93
3, 106944, Note_off_c, 1, 55, 0
3, 106992, Note_on_c, 1, 55, 93
3, 107040, Note_off_c, 1, 55, 0
3, 107088, Note_on_c, 1, 55, 93
3, 107136, Note_off_c, 1, 55, 0
3, 107184, Note_on_c, 1, 55, 93
3, 107232, Note_off_c, 1, 55, 0
3, 107280, Note_on_c, 1, 55, 93
3, 107328, Note_off_c, 1, 55, 0
3, 107376, Note_on_c, 1, 55, 93
3, 107424, Note_off_c, 1, 55, 0
3, 107472, Note_on_c, 1, 55, 93
3, 107520, Note_off_c, 1, 55, 0
3, 107568, Note_on_c, 1, 55, 93
3, 107616, Note_off_c, 1, 55, 0
3, 107664, Note_on_c, 1, 55, 93
3, 107712, Note_off_c, 1, 55, 0
3, 107760, Note_on_c, 1, 55, 93
3, 107808, Note_off_c, 1, 55, 0
3, 107856, Note_on_c, 1, 55, 93
3, 107904, Note_off_c, 1, 55, 0
3, 107952, Note_on_c, 1, 55, 93
3, 108000, Note_off_c, 1, 55, 0
3, 108144, Note_on_c, 1, 55, 93
3, 108192, Note_off_c, 1, 55, 0
3, 108240, Note_on_c, 1, 55, 93
3, 108288, Note_off_c, 1, 55, 0
3, 108336, Note_on_c, 1, 55, 93
3, 108384, Note_off_c, 1, 55, 0
3, 108432, Note_on_c, 1, 55, 93
3, 108480, Note_off_c, 1, 55, 0
3, 108528, Note_on_c, 1, 55, 93
3, 108576, Note_off_c, 1, 55, 0
3, 108624, Note_on_c, 1, 55, 93
3, 108672, Note_off_c, 1, 55, 0
3, 108720, Note_on_c, 1, 55, 93
3, 108768, Note_off_c, 1, 55, 0
3, 108816, Note_on_c, 1, 55, 93
3, 108864, Note_off_c, 1, 55, 0
3, 108912, Note_on_c, 1, 55, 93
3, 108960, Note_off_c, 1, 55, 0
3, 109104, Note_on_c, 1, 55, 93
3, 109152, Note_off_c, 1, 55, 0
3, 109200, Note_on_c, 1, 55, 93
3, 109248, Note_off_c, 1, 55, 0
3, 109296, Note_on_c, 1, 55, 93
3, 109344, Note_off_c, 1, 55, 0
3, 109488, Note_on_c, 1, 55, 93
3, 109536, Note_off_c, 1, 55, 0
3, 109584, Note_on_c, 1, 55, 93
3, 109632, Note_off_c, 1, 55, 0
3, 109680, Note_on_c, 1, 55, 93
3, 109728, Note_off_c, 1, 55, 0
3, 109872, Note_on_c, 1, 55, 93
3, 109920, Note_off_c, 1, 55, 0
3, 109968, Note_on_c, 1, 55, 93
3, 110016, Note_off_c, 1, 55, 0
3, 110064, Note_on_c, 1, 55, 93
3, 110112, Note_off_c, 1, 55, 0
3, 110256, Note_on_c, 1, 55, 93
3, 110304, Note_off_c, 1, 55, 0
3, 110352, Note_on_c, 1, 55, 93
3, 110400, Note_off_c, 1, 55, 0
3, 110448, Note_on_c, 1, 55, 93
3, 110496, Note_off_c, 1, 55, 0
3, 110544, Note_on_c, 1, 55, 93
3, 110592, Note_off_c, 1, 55, 0
3, 110592, Note_on_c, 1, 55, 93
3, 110784, Note_off_c, 1, 55, 0
3, 111168, Note_on_c, 1, 60, 93
3, 111360, Note_off_c, 1, 60, 0
3, 111360, Note_on_c, 1, 59, 93
3, 111552, Note_off_c, 1, 59, 0
3, 111552, Note_on_c, 1, 58, 93
3, 111744, Note_off_c, 1, 58, 0
3, 111744, Note_on_c, 1, 57, 93
3, 111840, Note_off_c, 1, 57, 0
3, 111840, Note_on_c, 1, 55, 93
3, 111936, Note_off_c, 1, 55, 0
3, 111936, Note_on_c, 1, 57, 93
3, 112032, Note_off_c, 1, 57, 0
3, 112032, Note_on_c, 1, 59, 93
3, 112128, Note_off_c, 1, 59, 0
3, 112128, Note_on_c, 1, 60, 93
3, 112224, Note_off_c, 1, 60, 0
3, 112224, Note_on_c, 1, 59, 93
3, 112320, Note_off_c, 1, 59, 0
3, 112320, Note_on_c, 1, 57, 93
3, 112512, Note_off_c, 1, 57, 0
3, 112512, Note_on_c, 1, 55, 93
3, 112704, Note_off_c, 1, 55, 0
3, 112704, Note_on_c, 1, 55, 93
3, 112800, Note_off_c, 1, 55, 0
3, 112800, Note_on_c, 1, 57, 93
3, 112896, Note_off_c, 1, 57, 0
3, 112896, Note_on_c, 1, 59, 93
3, 112992, Note_off_c, 1, 59, 0
3, 112992, Note_on_c, 1, 60, 93
3, 113088, Note_off_c, 1, 60, 0
3, 113088, Note_on_c, 1, 62, 93
3, 113280, Note_off_c, 1, 62, 0
3, 113280, Note_on_c, 1, 57, 93
3, 113472, Note_off_c, 1, 57, 0
3, 113472, Note_on_c, 1, 57, 93
3, 113664, Note_off_c, 1, 57, 0
3, 113664, Note_on_c, 1, 55, 93
3, 113856, Note_off_c, 1, 55, 0
3, 114816, Note_on_c, 1, 57, 93
3, 115008, Note_off_c, 1, 57, 0
3, 115008, Note_on_c, 1, 57, 93
3, 115200, Note_off_c, 1, 57, 0
3, 115200, Note_on_c, 1, 55, 93
3, 115392, Note_off_c, 1, 55, 0
3, 115392, Note_on_c, 1, 55, 93
3, 115584, Note_off_c, 1, 55, 0
3, 115968, Note_on_c, 1, 57, 93
3, 116160, Note_off_c, 1, 57, 0
3, 116544, Note_on_c, 1, 64, 93
3, 116736, Note_off_c, 1, 64, 0
3, 120000, Note_on_c, 1, 67, 93
3, 120192, Note_off_c, 1, 67, 0
3, 120192, Note_on_c, 1, 66, 93
3, 120384, Note_off_c, 1, 66, 0
3, 120384, Note_on_c, 1, 65, 93
3, 120576, Note_off_c, 1, 65, 0
3, 120576, Note_on_c, 1, 64, 93
3, 120768, Note_off_c, 1, 64, 0
3, 120768, Note_on_c, 1, 63, 93
3, 120960, Note_off_c, 1, 63, 0
3, 120960, Note_on_c, 1, 62, 93
3, 121152, Note_off_c, 1, 62, 0
3, 121152, Note_on_c, 1, 64, 93
3, 121344, Note_off_c, 1, 64, 0
3, 121344, Note_on_c, 1, 65, 93
3, 121440, Note_off_c, 1, 65, 0
3, 121440, Note_on_c, 1, 64, 93
3, 121536, Note_off_c, 1, 64, 0
3, 121536, Note_on_c, 1, 65, 93
3, 121632, Note_off_c, 1, 65, 0
3, 121632, Note_on_c, 1, 67, 93
3, 121680, Note_off_c, 1, 67, 0
3, 121680, Note_on_c, 1, 65, 93
3, 121728, Note_off_c, 1, 65, 0
3, 121728, Note_on_c, 1, 64, 93
3, 121920, Note_off_c, 1, 64, 0
3, 121920, Note_on_c, 1, 66, 93
3, 122112, Note_off_c, 1, 66, 0
3, 122112, Note_on_c, 1, 67, 93
3, 122304, Note_off_c, 1, 67, 0
3, 122304, Note_on_c, 1, 67, 93
3, 122496, Note_off_c, 1, 67, 0
3, 122496, Note_on_c, 1, 69, 93
3, 122592, Note_off_c, 1, 69, 0
3, 122592, Note_on_c, 1, 67, 93
3, 122640, Note_off_c, 1, 67, 0
3, 122640, Note_on_c, 1, 65, 93
3, 122688, Note_off_c, 1, 65, 0
3, 122688, Note_on_c, 1, 64, 93
3, 122784, Note_off_c, 1, 64, 0
3, 122784, Note_on_c, 1, 66, 93
3, 122880, Note_off_c, 1, 66, 0
3, 122880, Note_on_c, 1, 67, 93
3, 123072, Note_off_c, 1, 67, 0
3, 123264, Note_on_c, 1, 65, 93
3, 123360, Note_off_c, 1, 65, 0
3, 123360, Note_on_c, 1, 64, 93
3, 123456, Note_off_c, 1, 64, 0
3, 123456, Note_on_c, 1, 65, 93
3, 123552, Note_off_c, 1, 65, 0
3, 123552, Note_on_c, 1, 67, 93
3, 123600, Note_off_c, 1, 67, 0
3, 123600, Note_on_c, 1, 65, 93
3, 123648, Note_off_c, 1, 65, 0
3, 123648, Note_on_c, 1, 64, 93
3, 123744, Note_off_c, 1, 64, 0
3, 123744, Note_on_c, 1, 72, 93
3, 123792, Note_off_c, 1, 72, 0
3, 123792, Note_on_c, 1, 71, 93
3, 123840, Note_off_c, 1, 71, 0
3, 123840, Note_on_c, 1, 69, 93
3, 123936, Note_off_c, 1, 69, 0
3, 123936, Note_on_c, 1, 67, 93
3, 124032, Note_off_c, 1, 67, 0
3, 124032, Note_on_c, 1, 66, 93
3, 124128, Note_off_c, 1, 66, 0
3, 124128, Note_on_c, 1, 74, 93
3, 124176, Note_off_c, 1, 74, 0
3, 124176, Note_on_c, 1, 72, 93
3, 124224, Note_off_c, 1, 72, 0
3, 124224, Note_on_c, 1, 74, 93
3, 124320, Note_off_c, 1, 74, 0
3, 124320, Note_on_c, 1, 66, 93
3, 124416, Note_off_c, 1, 66, 0
3, 124416, Note_on_c, 1, 67, 93
3, 124512, Note_off_c, 1, 67, 0
3, 124512, Note_on_c, 1, 70, 93
3, 124560, Note_off_c, 1, 70, 0
3, 124560, Note_on_c, 1, 69, 93
3, 124608, Note_off_c, 1, 69, 0
3, 124608, Note_on_c, 1, 67, 93
3, 124704, Note_off_c, 1, 67, 0
3, 124704, Note_on_c, 1, 65, 93
3, 124800, Note_off_c, 1, 65, 0
3, 124800, Note_on_c, 1, 64, 93
3, 124896, Note_off_c, 1, 64, 0
3, 124896, Note_on_c, 1, 72, 93
3, 124944, Note_off_c, 1, 72, 0
3, 124944, Note_on_c, 1, 70, 93
3, 124992, Note_off_c, 1, 70, 0
3, 124992, Note_on_c, 1, 72, 93
3, 125088, Note_off_c, 1, 72, 0
3, 125088, Note_on_c, 1, 64, 93
3, 125184, Note_off_c, 1, 64, 0
3, 125184, Note_on_c, 1, 65, 93
3, 125280, Note_off_c, 1, 65, 0
3, 125280, Note_on_c, 1, 69, 93
3, 125328, Note_off_c, 1, 69, 0
3, 125328, Note_on_c, 1, 67, 93
3, 125376, Note_off_c, 1, 67, 0
3, 125376, Note_on_c, 1, 65, 93
3, 125424, Note_off_c, 1, 65, 0
3, 125424, Note_on_c, 1, 67, 93
3, 125472, Note_off_c, 1, 67, 0
3, 125472, Note_on_c, 1, 64, 93
3, 125520, Note_off_c, 1, 64, 0
3, 125520, Note_on_c, 1, 65, 93
3, 125568, Note_off_c, 1, 65, 0
3, 125568, Note_on_c, 1, 62, 93
3, 125616, Note_off_c, 1, 62, 0
3, 125616, Note_on_c, 1, 69, 93
3, 125664, Note_off_c, 1, 69, 0
3, 125664, Note_on_c, 1, 74, 93
3, 125712, Note_off_c, 1, 74, 0
3, 125712, Note_on_c, 1, 72, 93
3, 125760, Note_off_c, 1, 72, 0
3, 125760, Note_on_c, 1, 71, 93
3, 125808, Note_off_c, 1, 71, 0
3, 125808, Note_on_c, 1, 69, 93
3, 125856, Note_off_c, 1, 69, 0
3, 125856, Note_on_c, 1, 67, 93
3, 125904, Note_off_c, 1, 67, 0
3, 125904, Note_on_c, 1, 65, 93
3, 125952, Note_off_c, 1, 65, 0
3, 125952, Note_on_c, 1, 64, 93
3, 126048, Note_off_c, 1, 64, 0
3, 126048, Note_on_c, 1, 72, 93
3, 126096, Note_off_c, 1, 72, 0
3, 126096, Note_on_c, 1, 71, 93
3, 126144, Note_off_c, 1, 71, 0
3, 126144, Note_on_c, 1, 69, 93
3, 126192, Note_off_c, 1, 69, 0
3, 126192, Note_on_c, 1, 72, 93
3, 126240, Note_off_c, 1, 72, 0
3, 126240, Note_on_c, 1, 76, 93
3, 126288, Note_off_c, 1, 76, 0
3, 126288, Note_on_c, 1, 67, 93
3, 126336, Note_off_c, 1, 67, 0
3, 126336, Note_on_c, 1, 65, 93
3, 126384, Note_off_c, 1, 65, 0
3, 126384, Note_on_c, 1, 69, 93
3, 126432, Note_off_c, 1, 69, 0
3, 126432, Note_on_c, 1, 77, 93
3, 126480, Note_off_c, 1, 77, 0
3, 126480, Note_on_c, 1, 76, 93
3, 126528, Note_off_c, 1, 76, 0
3, 126528, Note_on_c, 1, 74, 93
3, 126576, Note_off_c, 1, 74, 0
3, 126576, Note_on_c, 1, 72, 93
3, 126624, Note_off_c, 1, 72, 0
3, 126624, Note_on_c, 1, 71, 93
3, 126672, Note_off_c, 1, 71, 0
3, 126672, Note_on_c, 1, 69, 93
3, 126720, Note_off_c, 1, 69, 0
3, 126720, Note_on_c, 1, 67, 93
3, 126768, Note_off_c, 1, 67, 0
3, 126768, Note_on_c, 1, 69, 93
3, 126792, Note_off_c, 1, 69, 0
3, 126792, Note_on_c, 1, 71, 93
3, 126816, Note_off_c, 1, 71, 0
3, 126816, Note_on_c, 1, 72, 93
3, 126864, Note_off_c, 1, 72, 0
3, 126864, Note_on_c, 1, 74, 93
3, 126912, Note_off_c, 1, 74, 0
3, 126912, Note_on_c, 1, 76, 93
3, 126960, Note_off_c, 1, 76, 0
3, 126960, Note_on_c, 1, 77, 93
3, 127008, Note_off_c, 1, 77, 0
3, 127008, Note_on_c, 1, 79, 93
3, 127056, Note_off_c, 1, 79, 0
3, 127056, Note_on_c, 1, 70, 93
3, 127104, Note_off_c, 1, 70, 0
3, 127104, Note_on_c, 1, 69, 93
3, 127152, Note_off_c, 1, 69, 0
3, 127152, Note_on_c, 1, 76, 93
3, 127200, Note_off_c, 1, 76, 0
3, 127200, Note_on_c, 1, 81, 93
3, 127248, Note_off_c, 1, 81, 0
3, 127248, Note_on_c, 1, 79, 93
3, 127296, Note_off_c, 1, 79, 0
3, 127296, Note_on_c, 1, 77, 93
3, 127344, Note_off_c, 1, 77, 0
3, 127344, Note_on_c, 1, 79, 93
3, 127368, Note_off_c, 1, 79, 0
3, 127368, Note_on_c, 1, 81, 93
3, 127392, Note_off_c, 1, 81, 0
3, 127392, Note_on_c, 1, 74, 93
3, 127440, Note_off_c, 1, 74, 0
3, 127440, Note_on_c, 1, 76, 93
3, 127464, Note_off_c, 1, 76, 0
3, 127464, Note_on_c, 1, 77, 93
3, 127488, Note_off_c, 1, 77, 0
3, 127488, Note_on_c, 1, 71, 93
3, 127536, Note_off_c, 1, 71, 0
3, 127536, Note_on_c, 1, 74, 93
3, 127584, Note_off_c, 1, 74, 0
3, 127584, Note_on_c, 1, 76, 93
3, 127632, Note_off_c, 1, 76, 0
3, 127632, Note_on_c, 1, 77, 93
3, 127680, Note_off_c, 1, 77, 0
3, 127680, Note_on_c, 1, 79, 93
3, 127872, Note_off_c, 1, 79, 0
3, 128064, Note_on_c, 1, 69, 93
3, 128160, Note_off_c, 1, 69, 0
3, 128256, Note_on_c, 1, 67, 93
3, 128304, Note_off_c, 1, 67, 0
3, 128304, Note_on_c, 1, 79, 93
3, 128352, Note_off_c, 1, 79, 0
3, 128352, Note_on_c, 1, 77, 93
3, 128400, Note_off_c, 1, 77, 0
3, 128400, Note_on_c, 1, 76, 93
3, 128448, Note_off_c, 1, 76, 0
3, 128448, Note_on_c, 1, 74, 93
3, 128544, Note_off_c, 1, 74, 0
3, 128640, Note_on_c, 1, 72, 93
3, 128736, Note_off_c, 1, 72, 0
3, 129024, Note_on_c, 1, 72, 93
3, 129120, Note_off_c, 1, 72, 0
3, 130656, Note_on_c, 1, 60, 93
3, 130704, Note_off_c, 1, 60, 0
3, 130704, Note_on_c, 1, 62, 93
3, 130752, Note_off_c, 1, 62, 0
3, 130752, Note_on_c, 1, 64, 93
3, 130800, Note_off_c, 1, 64, 0
3, 130800, Note_on_c, 1, 67, 93
3, 130848, Note_off_c, 1, 67, 0
3, 130848, Note_on_c, 1, 65, 93
3, 130896, Note_off_c, 1, 65, 0
3, 130896, Note_on_c, 1, 69, 93
3, 130944, Note_off_c, 1, 69, 0
3, 130944, Note_on_c, 1, 67, 93
3, 131040, Note_off_c, 1, 67, 0
3, 131040, Note_on_c, 1, 58, 93
3, 131088, Note_off_c, 1, 58, 0
3, 131088, Note_on_c, 1, 57, 93
3, 131136, Note_off_c, 1, 57, 0
3, 131136, Note_on_c, 1, 58, 93
3, 131232, Note_off_c, 1, 58, 0
3, 131232, Note_on_c, 1, 67, 93
3, 131328, Note_off_c, 1, 67, 0
3, 131328, Note_on_c, 1, 69, 93
3, 131424, Note_off_c, 1, 69, 0
3, 132192, Note_on_c, 1, 59, 93
3, 132288, Note_off_c, 1, 59, 0
3, 132288, Note_on_c, 1, 64, 93
3, 132384, Note_off_c, 1, 64, 0
3, 132384, Note_on_c, 1, 62, 93
3, 132480, Note_off_c, 1, 62, 0
3, 132480, Note_on_c, 1, 61, 93
3, 132576, Note_off_c, 1, 61, 0
3, 132576, Note_on_c, 1, 57, 93
3, 132672, Note_off_c, 1, 57, 0
3, 132672, Note_on_c, 1, 62, 93
3, 132768, Note_off_c, 1, 62, 0
3, 132768, Note_on_c, 1, 60, 93
3, 132864, Note_off_c, 1, 60, 0
3, 132864, Note_on_c, 1, 59, 93
3, 132960, Note_off_c, 1, 59, 0
3, 132960, Note_on_c, 1, 55, 93
3, 133056, Note_off_c, 1, 55, 0
3, 133056, Note_on_c, 1, 60, 93
3, 133152, Note_off_c, 1, 60, 0
3, 133152, Note_on_c, 1, 58, 93
3, 133248, Note_off_c, 1, 58, 0
3, 133248, Note_on_c, 1, 57, 93
3, 133344, Note_off_c, 1, 57, 0
3, 133632, Note_on_c, 1, 55, 93
3, 133680, Note_off_c, 1, 55, 0
3, 134400, Note_on_c, 1, 56, 93
3, 134448, Note_off_c, 1, 56, 0
3, 135936, Note_on_c, 1, 60, 93
3, 136128, Note_off_c, 1, 60, 0
3, 136128, End_track
4, 0, Start_track
4, 0, Title_t, "Track4"
4, 0, Program_c, 2, 40
4, 0, Control_c, 2, 7, 100
4, 0, Control_c, 2, 10, 79
4, 4032, Note_on_c, 2, 79, 93
4, 4224, Note_off_c, 2, 79, 0
4, 4224, Note_on_c, 2, 81, 93
4, 4320, Note_off_c, 2, 81, 0
4, 4320, Note_on_c, 2, 79, 93
4, 4368, Note_off_c, 2, 79, 0
4, 4368, Note_on_c, 2, 77, 93
4, 4416, Note_off_c, 2, 77, 0
4, 4416, Note_on_c, 2, 76, 93
4, 4512, Note_off_c, 2, 76, 0
4, 4512, Note_on_c, 2, 78, 93
4, 4608, Note_off_c, 2, 78, 0
4, 4608, Note_on_c, 2, 79, 93
4, 4800, Note_off_c, 2, 79, 0
4, 4800, Note_on_c, 2, 74, 93
4, 4896, Note_off_c, 2, 74, 0
4, 4896, Note_on_c, 2, 76, 93
4, 4992, Note_off_c, 2, 76, 0
4, 4992, Note_on_c, 2, 77, 93
4, 5088, Note_off_c, 2, 77, 0
4, 5088, Note_on_c, 2, 76, 93
4, 5184, Note_off_c, 2, 76, 0
4, 5184, Note_on_c, 2, 77, 93
4, 5280, Note_off_c, 2, 77, 0
4, 5280, Note_on_c, 2, 79, 93
4, 5328, Note_off_c, 2, 79, 0
4, 5328, Note_on_c, 2, 77, 93
4, 5376, Note_off_c, 2, 77, 0
4, 5376, Note_on_c, 2, 76, 93
4, 5472, Note_off_c, 2, 76, 0
4, 5472, Note_on_c, 2, 74, 93
4, 5568, Note_off_c, 2, 74, 0
4, 5568, Note_on_c, 2, 76, 93
4, 5664, Note_off_c, 2, 76, 0
4, 5664, Note_on_c, 2, 77, 93
4, 5760, Note_off_c, 2, 77, 0
4, 5760, Note_on_c, 2, 79, 93
4, 5856, Note_off_c, 2, 79, 0
4, 5856, Note_on_c, 2, 77, 93
4, 5952, Note_off_c, 2, 77, 0
4, 5952, Note_on_c, 2, 79, 93
4, 6048, Note_off_c, 2, 79, 0
4, 6048, Note_on_c, 2, 81, 93
4, 6096, Note_off_c, 2, 81, 0
4, 6096, Note_on_c, 2, 79, 93
4, 6144, Note_off_c, 2, 79, 0
4, 6144, Note_on_c, 2, 77, 93
4, 6240, Note_off_c, 2, 77, 0
4, 6240, Note_on_c, 2, 79, 93
4, 6336, Note_off_c, 2, 79, 0
4, 6336, Note_on_c, 2, 81, 93
4, 6528, Note_off_c, 2, 81, 0
4, 6528, Note_on_c, 2, 80, 93
4, 6720, Note_off_c, 2, 80, 0
4, 6720, Note_on_c, 2, 79, 93
4, 6912, Note_off_c, 2, 79, 0
4, 6912, Note_on_c, 2, 78, 93
4, 7104, Note_off_c, 2, 78, 0
4, 7104, Note_on_c, 2, 77, 93
4, 7296, Note_off_c, 2, 77, 0
4, 7296, Note_on_c, 2, 76, 93
4, 7488, Note_off_c, 2, 76, 0
4, 7488, Note_on_c, 2, 78, 93
4, 7680, Note_off_c, 2, 78, 0
4, 7776, Note_on_c, 2, 79, 93
4, 7824, Note_off_c, 2, 79, 0
4, 7824, Note_on_c, 2, 77, 93
4, 7872, Note_off_c, 2, 77, 0
4, 7872, Note_on_c, 2, 76, 93
4, 7968, Note_off_c, 2, 76, 0
4, 7968, Note_on_c, 2, 74, 93
4, 8064, Note_off_c, 2, 74, 0
4, 8064, Note_on_c, 2, 73, 93
4, 8160, Note_off_c, 2, 73, 0
4, 8160, Note_on_c, 2, 81, 93
4, 8208, Note_off_c, 2, 81, 0
4, 8208, Note_on_c, 2, 79, 93
4, 8256, Note_off_c, 2, 79, 0
4, 8256, Note_on_c, 2, 81, 93
4, 8352, Note_off_c, 2, 81, 0
4, 8352, Note_on_c, 2, 73, 93
4, 8448, Note_off_c, 2, 73, 0
4, 8448, Note_on_c, 2, 74, 93
4, 8544, Note_off_c, 2, 74, 0
4, 8544, Note_on_c, 2, 77, 93
4, 8592, Note_off_c, 2, 77, 0
4, 8592, Note_on_c, 2, 76, 93
4, 8640, Note_off_c, 2, 76, 0
4, 8640, Note_on_c, 2, 74, 93
4, 8736, Note_off_c, 2, 74, 0
4, 8736, Note_on_c, 2, 72, 93
4, 8832, Note_off_c, 2, 72, 0
4, 8832, Note_on_c, 2, 71, 93
4, 8928, Note_off_c, 2, 71, 0
4, 8928, Note_on_c, 2, 79, 93
4, 8976, Note_off_c, 2, 79, 0
4, 8976, Note_on_c, 2, 77, 93
4, 9024, Note_off_c, 2, 77, 0
4, 9024, Note_on_c, 2, 79, 93
4, 9120, Note_off_c, 2, 79, 0
4, 9120, Note_on_c, 2, 71, 93
4, 9216, Note_off_c, 2, 71, 0
4, 9216, Note_on_c, 2, 72, 93
4, 9312, Note_off_c, 2, 72, 0
4, 9312, Note_on_c, 2, 74, 93
4, 9408, Note_off_c, 2, 74, 0
4, 9408, Note_on_c, 2, 76, 93
4, 9600, Note_off_c, 2, 76, 0
4, 9600, Note_on_c, 2, 69, 93
4, 9792, Note_off_c, 2, 69, 0
4, 9792, Note_on_c, 2, 74, 93
4, 9984, Note_off_c, 2, 74, 0
4, 10032, Note_on_c, 2, 67, 93
4, 10080, Note_off_c, 2, 67, 0
4, 10080, Note_on_c, 2, 69, 93
4, 10128, Note_off_c, 2, 69, 0
4, 10128, Note_on_c, 2, 71, 93
4, 10176, Note_off_c, 2, 71, 0
4, 10176, Note_on_c, 2, 72, 93
4, 10368, Note_off_c, 2, 72, 0
4, 11712, Note_on_c, 2, 74, 93
4, 11904, Note_off_c, 2, 74, 0
4, 11904, Note_on_c, 2, 73, 93
4, 12096, Note_off_c, 2, 73, 0
4, 12096, Note_on_c, 2, 72, 93
4, 12288, Note_off_c, 2, 72, 0
4, 12288, Note_on_c, 2, 71, 93
4, 12480, Note_off_c, 2, 71, 0
4, 12480, Note_on_c, 2, 70, 93
4, 12672, Note_off_c, 2, 70, 0
4, 12672, Note_on_c, 2, 69, 93
4, 12864, Note_off_c, 2, 69, 0
4, 12864, Note_on_c, 2, 71, 93
4, 13056, Note_off_c, 2, 71, 0
4, 17088, Note_on_c, 2, 72, 93
4, 17184, Note_off_c, 2, 72, 0
4, 17184, Note_on_c, 2, 70, 93
4, 17280, Note_off_c, 2, 70, 0
4, 17280, Note_on_c, 2, 69, 93
4, 17328, Note_off_c, 2, 69, 0
4, 17328, Note_on_c, 2, 81, 93
4, 17376, Note_off_c, 2, 81, 0
4, 17376, Note_on_c, 2, 79, 93
4, 17424, Note_off_c, 2, 79, 0
4, 17424, Note_on_c, 2, 77, 93
4, 17472, Note_off_c, 2, 77, 0
4, 17472, Note_on_c, 2, 76, 93
4, 17568, Note_off_c, 2, 76, 0
4, 17568, Note_on_c, 2, 78, 93
4, 17664, Note_off_c, 2, 78, 0
4, 17664, Note_on_c, 2, 74, 93
4, 17712, Note_off_c, 2, 74, 0
4, 17856, Note_on_c, 2, 67, 93
4, 17952, Note_off_c, 2, 67, 0
4, 18048, Note_on_c, 2, 65, 93
4, 18144, Note_off_c, 2, 65, 0
4, 18432, Note_on_c, 2, 67, 93
4, 18528, Note_off_c, 2, 67, 0
4, 18528, Note_on_c, 2, 67, 93
4, 18576, Note_off_c, 2, 67, 0
4, 18576, Note_on_c, 2, 65, 93
4, 18624, Note_off_c, 2, 65, 0
4, 18624, Note_on_c, 2, 67, 93
4, 18720, Note_off_c, 2, 67, 0
4, 18720, Note_on_c, 2, 69, 93
4, 18768, Note_off_c, 2, 69, 0
4, 18768, Note_on_c, 2, 67, 93
4, 18816, Note_off_c, 2, 67, 0
4, 18816, Note_on_c, 2, 65, 93
4, 18912, Note_off_c, 2, 65, 0
4, 18912, Note_on_c, 2, 65, 93
4, 18960, Note_off_c, 2, 65, 0
4, 18960, Note_on_c, 2, 64, 93
4, 19008, Note_off_c, 2, 64, 0
4, 19008, Note_on_c, 2, 65, 93
4, 19104, Note_off_c, 2, 65, 0
4, 19104, Note_on_c, 2, 67, 93
4, 19152, Note_off_c, 2, 67, 0
4, 19152, Note_on_c, 2, 65, 93
4, 19200, Note_off_c, 2, 65, 0
4, 19200, Note_on_c, 2, 64, 93
4, 19296, Note_off_c, 2, 64, 0
4, 19584, Note_on_c, 2, 62, 93
4, 19680, Note_off_c, 2, 62, 0
4, 19776, Note_on_c, 2, 67, 93
4, 19872, Note_off_c, 2, 67, 0
4, 20736, Note_on_c, 2, 57, 93
4, 20832, Note_off_c, 2, 57, 0
4, 20832, Note_on_c, 2, 62, 93
4, 20880, Note_off_c, 2, 62, 0
4, 20880, Note_on_c, 2, 64, 93
4, 20928, Note_off_c, 2, 64, 0
4, 20928, Note_on_c, 2, 65, 93
4, 20976, Note_off_c, 2, 65, 0
4, 20976, Note_on_c, 2, 67, 93
4, 21024, Note_off_c, 2, 67, 0
4, 21024, Note_on_c, 2, 65, 93
4, 21072, Note_off_c, 2, 65, 0
4, 21072, Note_on_c, 2, 67, 93
4, 21120, Note_off_c, 2, 67, 0
4, 21120, Note_on_c, 2, 69, 93
4, 21216, Note_off_c, 2, 69, 0
4, 21216, Note_on_c, 2, 60, 93
4, 21264, Note_off_c, 2, 60, 0
4, 21264, Note_on_c, 2, 59, 93
4, 21312, Note_off_c, 2, 59, 0
4, 21312, Note_on_c, 2, 60, 93
4, 21408, Note_off_c, 2, 60, 0
4, 21408, Note_on_c, 2, 69, 93
4, 21504, Note_off_c, 2, 69, 0
4, 21504, Note_on_c, 2, 71, 93
4, 21600, Note_off_c, 2, 71, 0
4, 21696, Note_on_c, 2, 71, 93
4, 21888, Note_off_c, 2, 71, 0
4, 21888, Note_on_c, 2, 69, 93
4, 22080, Note_off_c, 2, 69, 0
4, 22080, Note_on_c, 2, 69, 93
4, 22272, Note_off_c, 2, 69, 0
4, 22272, Note_on_c, 2, 67, 93
4, 22464, Note_off_c, 2, 67, 0
4, 22464, Note_on_c, 2, 67, 93
4, 22656, Note_off_c, 2, 67, 0
4, 22656, Note_on_c, 2, 65, 93
4, 22752, Note_off_c, 2, 65, 0
4, 23040, Note_on_c, 2, 65, 93
4, 23088, Note_off_c, 2, 65, 0
4, 23808, Note_on_c, 2, 63, 93
4, 23856, Note_off_c, 2, 63, 0
4, 25248, Note_on_c, 2, 65, 93
4, 25344, Note_off_c, 2, 65, 0
4, 25344, Note_on_c, 2, 64, 93
4, 25392, Note_off_c, 2, 64, 0
4, 35904, Note_on_c, 2, 69, 93
4, 36096, Note_off_c, 2, 69, 0
4, 36096, Note_on_c, 2, 72, 93
4, 36192, Note_off_c, 2, 72, 0
4, 36192, Note_on_c, 2, 71, 93
4, 36240, Note_off_c, 2, 71, 0
4, 36240, Note_on_c, 2, 69, 93
4, 36288, Note_off_c, 2, 69, 0
4, 36288, Note_on_c, 2, 68, 93
4, 36384, Note_off_c, 2, 68, 0
4, 36384, Note_on_c, 2, 69, 93
4, 36480, Note_off_c, 2, 69, 0
4, 36480, Note_on_c, 2, 71, 93
4, 36672, Note_off_c, 2, 71, 0
4, 36672, Note_on_c, 2, 66, 93
4, 36768, Note_off_c, 2, 66, 0
4, 36768, Note_on_c, 2, 68, 93
4, 36864, Note_off_c, 2, 68, 0
4, 36864, Note_on_c, 2, 69, 93
4, 36960, Note_off_c, 2, 69, 0
4, 36960, Note_on_c, 2, 67, 93
4, 37056, Note_off_c, 2, 67, 0
4, 37056, Note_on_c, 2, 69, 93
4, 37152, Note_off_c, 2, 69, 0
4, 37152, Note_on_c, 2, 70, 93
4, 37200, Note_off_c, 2, 70, 0
4, 37200, Note_on_c, 2, 69, 93
4, 37248, Note_off_c, 2, 69, 0
4, 37248, Note_on_c, 2, 67, 93
4, 37344, Note_off_c, 2, 67, 0
4, 37632, Note_on_c, 2, 67, 93
4, 37824, Note_off_c, 2, 67, 0
4, 37824, Note_on_c, 2, 65, 93
4, 37920, Note_off_c, 2, 65, 0
4, 37920, Note_on_c, 2, 64, 93
4, 37968, Note_off_c, 2, 64, 0
4, 37968, Note_on_c, 2, 62, 93
4, 38016, Note_off_c, 2, 62, 0
4, 38016, Note_on_c, 2, 67, 93
4, 38112, Note_off_c, 2, 67, 0
4, 38112, Note_on_c, 2, 69, 93
4, 38208, Note_off_c, 2, 69, 0
4, 38208, Note_on_c, 2, 70, 93
4, 38400, Note_off_c, 2, 70, 0
4, 38400, Note_on_c, 2, 69, 93
4, 38592, Note_off_c, 2, 69, 0
4, 38592, Note_on_c, 2, 69, 93
4, 38688, Note_off_c, 2, 69, 0
4, 38688, Note_on_c, 2, 69, 93
4, 38784, Note_off_c, 2, 69, 0
4, 38784, Note_on_c, 2, 73, 93
4, 38880, Note_off_c, 2, 73, 0
4, 38880, Note_on_c, 2, 74, 93
4, 38928, Note_off_c, 2, 74, 0
4, 38928, Note_on_c, 2, 73, 93
4, 38976, Note_off_c, 2, 73, 0
4, 38976, Note_on_c, 2, 71, 93
4, 39072, Note_off_c, 2, 71, 0
4, 39072, Note_on_c, 2, 73, 93
4, 39168, Note_off_c, 2, 73, 0
4, 39168, Note_on_c, 2, 74, 93
4, 39264, Note_off_c, 2, 74, 0
4, 39264, Note_on_c, 2, 72, 93
4, 39360, Note_off_c, 2, 72, 0
4, 39360, Note_on_c, 2, 74, 93
4, 39456, Note_off_c, 2, 74, 0
4, 39456, Note_on_c, 2, 75, 93
4, 39504, Note_off_c, 2, 75, 0
4, 39504, Note_on_c, 2, 74, 93
4, 39552, Note_off_c, 2, 74, 0
4, 39552, Note_on_c, 2, 73, 93
4, 39744, Note_off_c, 2, 73, 0
4, 39744, Note_on_c, 2, 72, 93
4, 39936, Note_off_c, 2, 72, 0
4, 39936, Note_on_c, 2, 72, 93
4, 40032, Note_off_c, 2, 72, 0
4, 40032, Note_on_c, 2, 70, 93
4, 40080, Note_off_c, 2, 70, 0
4, 40080, Note_on_c, 2, 69, 93
4, 40128, Note_off_c, 2, 69, 0
4, 40128, Note_on_c, 2, 70, 93
4, 40176, Note_off_c, 2, 70, 0
4, 40176, Note_on_c, 2, 74, 93
4, 40224, Note_off_c, 2, 74, 0
4, 40224, Note_on_c, 2, 72, 93
4, 40272, Note_off_c, 2, 72, 0
4, 40272, Note_on_c, 2, 70, 93
4, 40320, Note_off_c, 2, 70, 0
4, 40320, Note_on_c, 2, 69, 93
4, 40512, Note_off_c, 2, 69, 0
4, 40512, Note_on_c, 2, 69, 93
4, 40608, Note_off_c, 2, 69, 0
4, 40608, Note_on_c, 2, 71, 93
4, 40704, Note_off_c, 2, 71, 0
4, 40704, Note_on_c, 2, 72, 93
4, 40800, Note_off_c, 2, 72, 0
4, 40800, Note_on_c, 2, 71, 93
4, 40896, Note_off_c, 2, 71, 0
4, 40896, Note_on_c, 2, 72, 93
4, 40992, Note_off_c, 2, 72, 0
4, 40992, Note_on_c, 2, 74, 93
4, 41040, Note_off_c, 2, 74, 0
4, 41040, Note_on_c, 2, 72, 93
4, 41088, Note_off_c, 2, 72, 0
4, 41088, Note_on_c, 2, 71, 93
4, 41184, Note_off_c, 2, 71, 0
4, 41184, Note_on_c, 2, 72, 93
4, 41280, Note_off_c, 2, 72, 0
4, 41280, Note_on_c, 2, 74, 93
4, 41376, Note_off_c, 2, 74, 0
4, 41376, Note_on_c, 2, 76, 93
4, 41472, Note_off_c, 2, 76, 0
4, 41472, Note_on_c, 2, 77, 93
4, 41568, Note_off_c, 2, 77, 0
4, 41568, Note_on_c, 2, 76, 93
4, 41664, Note_off_c, 2, 76, 0
4, 41664, Note_on_c, 2, 77, 93
4, 41760, Note_off_c, 2, 77, 0
4, 41760, Note_on_c, 2, 79, 93
4, 41808, Note_off_c, 2, 79, 0
4, 41808, Note_on_c, 2, 77, 93
4, 41856, Note_off_c, 2, 77, 0
4, 41856, Note_on_c, 2, 76, 93
4, 42048, Note_off_c, 2, 76, 0
4, 42048, Note_on_c, 2, 76, 93
4, 42144, Note_off_c, 2, 76, 0
4, 42144, Note_on_c, 2, 74, 93
4, 42192, Note_off_c, 2, 74, 0
4, 42192, Note_on_c, 2, 72, 93
4, 42240, Note_off_c, 2, 72, 0
4, 42240, Note_on_c, 2, 71, 93
4, 42336, Note_off_c, 2, 71, 0
4, 42336, Note_on_c, 2, 72, 93
4, 42432, Note_off_c, 2, 72, 0
4, 42432, Note_on_c, 2, 74, 93
4, 42624, Note_off_c, 2, 74, 0
4, 46656, Note_on_c, 2, 74, 93
4, 46848, Note_off_c, 2, 74, 0
4, 46848, Note_on_c, 2, 76, 93
4, 46944, Note_off_c, 2, 76, 0
4, 46944, Note_on_c, 2, 74, 93
4, 46992, Note_off_c, 2, 74, 0
4, 46992, Note_on_c, 2, 72, 93
4, 47040, Note_off_c, 2, 72, 0
4, 47040, Note_on_c, 2, 71, 93
4, 47136, Note_off_c, 2, 71, 0
4, 47136, Note_on_c, 2, 72, 93
4, 47232, Note_off_c, 2, 72, 0
4, 47232, Note_on_c, 2, 74, 93
4, 47424, Note_off_c, 2, 74, 0
4, 47424, Note_on_c, 2, 69, 93
4, 47520, Note_off_c, 2, 69, 0
4, 47520, Note_on_c, 2, 71, 93
4, 47616, Note_off_c, 2, 71, 0
4, 47616, Note_on_c, 2, 72, 93
4, 47712, Note_off_c, 2, 72, 0
4, 47712, Note_on_c, 2, 71, 93
4, 47808, Note_off_c, 2, 71, 0
4, 47808, Note_on_c, 2, 72, 93
4, 47904, Note_off_c, 2, 72, 0
4, 47904, Note_on_c, 2, 74, 93
4, 47952, Note_off_c, 2, 74, 0
4, 47952, Note_on_c, 2, 72, 93
4, 48000, Note_off_c, 2, 72, 0
4, 48000, Note_on_c, 2, 71, 93
4, 48096, Note_off_c, 2, 71, 0
4, 48096, Note_on_c, 2, 69, 93
4, 48192, Note_off_c, 2, 69, 0
4, 48192, Note_on_c, 2, 71, 93
4, 48288, Note_off_c, 2, 71, 0
4, 48288, Note_on_c, 2, 72, 93
4, 48336, Note_off_c, 2, 72, 0
4, 48336, Note_on_c, 2, 71, 93
4, 48384, Note_off_c, 2, 71, 0
4, 48384, Note_on_c, 2, 69, 93
4, 48576, Note_off_c, 2, 69, 0
4, 48576, Note_on_c, 2, 69, 93
4, 48768, Note_off_c, 2, 69, 0
4, 48768, Note_on_c, 2, 71, 93
4, 48960, Note_off_c, 2, 71, 0
4, 48960, Note_on_c, 2, 69, 93
4, 49152, Note_off_c, 2, 69, 0
4, 52032, Note_on_c, 2, 79, 93
4, 52224, Note_off_c, 2, 79, 0
4, 52224, Note_on_c, 2, 81, 93
4, 52320, Note_off_c, 2, 81, 0
4, 52320, Note_on_c, 2, 79, 93
4, 52368, Note_off_c, 2, 79, 0
4, 52368, Note_on_c, 2, 77, 93
4, 52416, Note_off_c, 2, 77, 0
4, 52416, Note_on_c, 2, 76, 93
4, 52512, Note_off_c, 2, 76, 0
4, 52512, Note_on_c, 2, 78, 93
4, 52608, Note_off_c, 2, 78, 0
4, 52608, Note_on_c, 2, 79, 93
4, 52800, Note_off_c, 2, 79, 0
4, 55104, Note_on_c, 2, 74, 93
4, 55200, Note_off_c, 2, 74, 0
4, 55200, Note_on_c, 2, 76, 93
4, 55296, Note_off_c, 2, 76, 0
4, 55296, Note_on_c, 2, 77, 93
4, 55392, Note_off_c, 2, 77, 0
4, 55392, Note_on_c, 2, 76, 93
4, 55488, Note_off_c, 2, 76, 0
4, 55488, Note_on_c, 2, 77, 93
4, 55584, Note_off_c, 2, 77, 0
4, 55584, Note_on_c, 2, 79, 93
4, 55632, Note_off_c, 2, 79, 0
4, 55632, Note_on_c, 2, 77, 93
4, 55680, Note_off_c, 2, 77, 0
4, 55680, Note_on_c, 2, 76, 93
4, 55776, Note_off_c, 2, 76, 0
4, 56640, Note_on_c, 2, 74, 93
4, 56832, Note_off_c, 2, 74, 0
4, 56832, Note_on_c, 2, 76, 93
4, 56928, Note_off_c, 2, 76, 0
4, 56928, Note_on_c, 2, 74, 93
4, 56976, Note_off_c, 2, 74, 0
4, 56976, Note_on_c, 2, 72, 93
4, 57024, Note_off_c, 2, 72, 0
4, 57024, Note_on_c, 2, 71, 93
4, 57120, Note_off_c, 2, 71, 0
4, 57120, Note_on_c, 2, 72, 93
4, 57216, Note_off_c, 2, 72, 0
4, 57216, Note_on_c, 2, 74, 93
4, 57408, Note_off_c, 2, 74, 0
4, 57408, Note_on_c, 2, 69, 93
4, 57504, Note_off_c, 2, 69, 0
4, 57504, Note_on_c, 2, 71, 93
4, 57600, Note_off_c, 2, 71, 0
4, 57600, Note_on_c, 2, 72, 93
4, 57696, Note_off_c, 2, 72, 0
4, 57696, Note_on_c, 2, 71, 93
4, 57792, Note_off_c, 2, 71, 0
4, 57792, Note_on_c, 2, 72, 93
4, 57888, Note_off_c, 2, 72, 0
4, 57888, Note_on_c, 2, 74, 93
4, 57936, Note_off_c, 2, 74, 0
4, 57936, Note_on_c, 2, 72, 93
4, 57984, Note_off_c, 2, 72, 0
4, 57984, Note_on_c, 2, 71, 93
4, 58176, Note_off_c, 2, 71, 0
4, 58176, Note_on_c, 2, 76, 93
4, 58560, Note_off_c, 2, 76, 0
4, 58560, Note_on_c, 2, 74, 93
4, 58752, Note_off_c, 2, 74, 0
4, 58752, Note_on_c, 2, 73, 93
4, 58944, Note_off_c, 2, 73, 0
4, 58944, Note_on_c, 2, 72, 93
4, 59136, Note_off_c, 2, 72, 0
4, 59136, Note_on_c, 2, 71, 93
4, 59328, Note_off_c, 2, 71, 0
4, 59328, Note_on_c, 2, 70, 93
4, 59520, Note_off_c, 2, 70, 0
4, 59520, Note_on_c, 2, 69, 93
4, 59712, Note_off_c, 2, 69, 0
4, 59712, Note_on_c, 2, 71, 93
4, 59904, Note_off_c, 2, 71, 0
4, 59904, Note_on_c, 2, 71, 93
4, 60096, Note_off_c, 2, 71, 0
4, 60096, Note_on_c, 2, 69, 93
4, 60288, Note_off_c, 2, 69, 0
4, 60480, Note_on_c, 2, 83, 93
4, 60672, Note_off_c, 2, 83, 0
4, 60672, Note_on_c, 2, 84, 93
4, 60768, Note_off_c, 2, 84, 0
4, 60768, Note_on_c, 2, 83, 93
4, 60816, Note_off_c, 2, 83, 0
4, 60816, Note_on_c, 2, 81, 93
4, 60864, Note_off_c, 2, 81, 0
4, 60864, Note_on_c, 2, 79, 93
4, 60960, Note_off_c, 2, 79, 0
4, 60960, Note_on_c, 2, 81, 93
4, 61056, Note_off_c, 2, 81, 0
4, 61056, Note_on_c, 2, 83, 93
4, 61248, Note_off_c, 2, 83, 0
4, 61248, Note_on_c, 2, 78, 93
4, 61344, Note_off_c, 2, 78, 0
4, 61344, Note_on_c, 2, 79, 93
4, 61440, Note_off_c, 2, 79, 0
4, 61440, Note_on_c, 2, 81, 93
4, 61536, Note_off_c, 2, 81, 0
4, 61536, Note_on_c, 2, 79, 93
4, 61632, Note_off_c, 2, 79, 0
4, 61632, Note_on_c, 2, 81, 93
4, 61728, Note_off_c, 2, 81, 0
4, 61728, Note_on_c, 2, 83, 93
4, 61776, Note_off_c, 2, 83, 0
4, 61776, Note_on_c, 2, 81, 93
4, 61824, Note_off_c, 2, 81, 0
4, 61824, Note_on_c, 2, 79, 93
4, 62016, Note_off_c, 2, 79, 0
4, 62016, Note_on_c, 2, 79, 93
4, 62304, Note_off_c, 2, 79, 0
4, 62304, Note_on_c, 2, 81, 93
4, 62352, Note_off_c, 2, 81, 0
4, 62352, Note_on_c, 2, 79, 93
4, 62400, Note_off_c, 2, 79, 0
4, 62400, Note_on_c, 2, 78, 93
4, 62496, Note_off_c, 2, 78, 0
4, 62496, Note_on_c, 2, 79, 93
4, 62544, Note_off_c, 2, 79, 0
4, 62544, Note_on_c, 2, 76, 93
4, 62592, Note_off_c, 2, 76, 0
4, 62592, Note_on_c, 2, 83, 93
4, 62736, Note_off_c, 2, 83, 0
4, 62736, Note_on_c, 2, 84, 93
4, 62784, Note_off_c, 2, 84, 0
4, 62784, Note_on_c, 2, 83, 93
4, 62880, Note_off_c, 2, 83, 0
4, 62880, Note_on_c, 2, 81, 93
4, 62976, Note_off_c, 2, 81, 0
4, 62976, Note_on_c, 2, 79, 93
4, 63168, Note_off_c, 2, 79, 0
4, 63168, Note_on_c, 2, 78, 93
4, 63360, Note_off_c, 2, 78, 0
4, 63360, Note_on_c, 2, 76, 93
4, 63456, Note_off_c, 2, 76, 0
4, 77184, Note_on_c, 2, 62, 93
4, 77376, Note_off_c, 2, 62, 0
4, 77376, Note_on_c, 2, 62, 93
4, 77568, Note_off_c, 2, 62, 0
4, 77568, Note_on_c, 2, 59, 93
4, 77664, Note_off_c, 2, 59, 0
4, 77664, Note_on_c, 2, 60, 93
4, 77712, Note_off_c, 2, 60, 0
4, 77712, Note_on_c, 2, 62, 93
4, 77760, Note_off_c, 2, 62, 0
4, 77760, Note_on_c, 2, 64, 93
4, 77856, Note_off_c, 2, 64, 0
4, 77856, Note_on_c, 2, 62, 93
4, 77952, Note_off_c, 2, 62, 0
4, 77952, Note_on_c, 2, 60, 93
4, 78144, Note_off_c, 2, 60, 0
4, 78144, Note_on_c, 2, 65, 93
4, 78240, Note_off_c, 2, 65, 0
4, 78240, Note_on_c, 2, 64, 93
4, 78336, Note_off_c, 2, 64, 0
4, 78336, Note_on_c, 2, 62, 93
4, 78432, Note_off_c, 2, 62, 0
4, 78432, Note_on_c, 2, 64, 93
4, 78480, Note_off_c, 2, 64, 0
4, 78480, Note_on_c, 2, 62, 93
4, 78528, Note_off_c, 2, 62, 0
4, 78528, Note_on_c, 2, 60, 93
4, 78624, Note_off_c, 2, 60, 0
4, 78624, Note_on_c, 2, 62, 93
4, 78720, Note_off_c, 2, 62, 0
4, 78720, Note_on_c, 2, 64, 93
4, 78816, Note_off_c, 2, 64, 0
4, 78816, Note_on_c, 2, 62, 93
4, 78864, Note_off_c, 2, 62, 0
4, 78864, Note_on_c, 2, 60, 93
4, 78912, Note_off_c, 2, 60, 0
4, 78912, Note_on_c, 2, 59, 93
4, 79008, Note_off_c, 2, 59, 0
4, 79008, Note_on_c, 2, 60, 93
4, 79104, Note_off_c, 2, 60, 0
4, 79104, Note_on_c, 2, 62, 93
4, 79296, Note_off_c, 2, 62, 0
4, 79296, Note_on_c, 2, 63, 93
4, 79488, Note_off_c, 2, 63, 0
4, 79488, Note_on_c, 2, 64, 93
4, 79680, Note_off_c, 2, 64, 0
4, 79680, Note_on_c, 2, 64, 93
4, 79872, Note_off_c, 2, 64, 0
4, 79872, Note_on_c, 2, 65, 93
4, 80064, Note_off_c, 2, 65, 0
4, 80160, Note_on_c, 2, 66, 93
4, 80256, Note_off_c, 2, 66, 0
4, 80256, Note_on_c, 2, 67, 93
4, 80352, Note_off_c, 2, 67, 0
4, 80352, Note_on_c, 2, 65, 93
4, 80448, Note_off_c, 2, 65, 0
4, 80448, Note_on_c, 2, 64, 93
4, 80544, Note_off_c, 2, 64, 0
4, 80544, Note_on_c, 2, 62, 93
4, 80640, Note_off_c, 2, 62, 0
4, 80640, Note_on_c, 2, 60, 93
4, 80832, Note_off_c, 2, 60, 0
4, 80832, Note_on_c, 2, 57, 93
4, 81024, Note_off_c, 2, 57, 0
4, 81024, Note_on_c, 2, 62, 93
4, 81216, Note_off_c, 2, 62, 0
4, 81216, Note_on_c, 2, 55, 93
4, 81408, Note_off_c, 2, 55, 0
4, 81408, Note_on_c, 2, 60, 93
4, 81600, Note_off_c, 2, 60, 0
4, 81696, Note_on_c, 2, 60, 93
4, 81792, Note_off_c, 2, 60, 0
4, 82368, Note_on_c, 2, 60, 93
4, 82560, Note_off_c, 2, 60, 0
4, 83328, Note_on_c, 2, 60, 93
4, 83520, Note_off_c, 2, 60, 0
4, 84096, Note_on_c, 2, 79, 93
4, 84192, Note_off_c, 2, 79, 0
4, 84192, Note_on_c, 2, 81, 93
4, 84240, Note_off_c, 2, 81, 0
4, 84240, Note_on_c, 2, 82, 93
4, 84288, Note_off_c, 2, 82, 0
4, 84288, Note_on_c, 2, 81, 93
4, 84384, Note_off_c, 2, 81, 0
4, 84384, Note_on_c, 2, 79, 93
4, 84480, Note_off_c, 2, 79, 0
4, 84480, Note_on_c, 2, 77, 93
4, 84672, Note_off_c, 2, 77, 0
4, 84672, Note_on_c, 2, 77, 93
4, 84864, Note_off_c, 2, 77, 0
4, 84864, Note_on_c, 2, 76, 93
4, 85056, Note_off_c, 2, 76, 0
4, 85056, Note_on_c, 2, 76, 93
4, 85248, Note_off_c, 2, 76, 0
4, 85248, Note_on_c, 2, 78, 93
4, 85440, Note_off_c, 2, 78, 0
4, 85824, Note_on_c, 2, 71, 93
4, 86016, Note_off_c, 2, 71, 0
4, 86016, Note_on_c, 2, 69, 93
4, 86208, Note_off_c, 2, 69, 0
4, 86208, Note_on_c, 2, 69, 93
4, 86400, Note_off_c, 2, 69, 0
4, 86400, Note_on_c, 2, 71, 93
4, 86592, Note_off_c, 2, 71, 0
4, 86688, Note_on_c, 2, 70, 93
4, 86784, Note_off_c, 2, 70, 0
4, 86784, Note_on_c, 2, 69, 93
4, 86976, Note_off_c, 2, 69, 0
4, 86976, Note_on_c, 2, 69, 93
4, 87072, Note_off_c, 2, 69, 0
4, 87072, Note_on_c, 2, 71, 93
4, 87120, Note_off_c, 2, 71, 0
4, 87120, Note_on_c, 2, 72, 93
4, 87168, Note_off_c, 2, 72, 0
4, 87168, Note_on_c, 2, 74, 93
4, 87360, Note_off_c, 2, 74, 0
4, 87360, Note_on_c, 2, 72, 93
4, 87552, Note_off_c, 2, 72, 0
4, 87744, Note_on_c, 2, 71, 93
4, 87936, Note_off_c, 2, 71, 0
4, 87936, Note_on_c, 2, 67, 93
4, 88032, Note_off_c, 2, 67, 0
4, 88032, Note_on_c, 2, 69, 93
4, 88080, Note_off_c, 2, 69, 0
4, 88080, Note_on_c, 2, 71, 93
4, 88128, Note_off_c, 2, 71, 0
4, 88128, Note_on_c, 2, 72, 93
4, 88224, Note_off_c, 2, 72, 0
4, 88224, Note_on_c, 2, 71, 93
4, 88320, Note_off_c, 2, 71, 0
4, 88320, Note_on_c, 2, 69, 93
4, 88512, Note_off_c, 2, 69, 0
4, 88512, Note_on_c, 2, 74, 93
4, 88608, Note_off_c, 2, 74, 0
4, 88608, Note_on_c, 2, 72, 93
4, 88704, Note_off_c, 2, 72, 0
4, 88704, Note_on_c, 2, 71, 93
4, 88800, Note_off_c, 2, 71, 0
4, 88800, Note_on_c, 2, 72, 93
4, 88848, Note_off_c, 2, 72, 0
4, 88848, Note_on_c, 2, 71, 93
4, 88896, Note_off_c, 2, 71, 0
4, 88896, Note_on_c, 2, 69, 93
4, 88992, Note_off_c, 2, 69, 0
4, 88992, Note_on_c, 2, 71, 93
4, 89088, Note_off_c, 2, 71, 0
4, 89088, Note_on_c, 2, 72, 93
4, 89280, Note_off_c, 2, 72, 0
4, 89376, Note_on_c, 2, 70, 93
4, 89472, Note_off_c, 2, 70, 0
4, 89472, Note_on_c, 2, 69, 93
4, 89568, Note_off_c, 2, 69, 0
4, 89568, Note_on_c, 2, 70, 93
4, 89616, Note_off_c, 2, 70, 0
4, 89616, Note_on_c, 2, 69, 93
4, 89664, Note_off_c, 2, 69, 0
4, 89664, Note_on_c, 2, 67, 93
4, 89760, Note_off_c, 2, 67, 0
4, 89760, Note_on_c, 2, 69, 93
4, 89808, Note_off_c, 2, 69, 0
4, 89808, Note_on_c, 2, 67, 93
4, 89856, Note_off_c, 2, 67, 0
4, 89856, Note_on_c, 2, 65, 93
4, 89952, Note_off_c, 2, 65, 0
4, 89952, Note_on_c, 2, 67, 93
4, 90000, Note_off_c, 2, 67, 0
4, 90000, Note_on_c, 2, 65, 93
4, 90048, Note_off_c, 2, 65, 0
4, 90048, Note_on_c, 2, 64, 93
4, 90144, Note_off_c, 2, 64, 0
4, 90144, Note_on_c, 2, 65, 93
4, 90192, Note_off_c, 2, 65, 0
4, 90192, Note_on_c, 2, 64, 93
4, 90240, Note_off_c, 2, 64, 0
4, 90240, Note_on_c, 2, 62, 93
4, 90432, Note_off_c, 2, 62, 0
4, 90432, Note_on_c, 2, 67, 93
4, 90624, Note_off_c, 2, 67, 0
4, 90624, Note_on_c, 2, 67, 93
4, 90816, Note_off_c, 2, 67, 0
4, 90816, Note_on_c, 2, 65, 93
4, 91008, Note_off_c, 2, 65, 0
4, 91008, Note_on_c, 2, 65, 93
4, 91200, Note_off_c, 2, 65, 0
4, 91296, Note_on_c, 2, 67, 93
4, 91392, Note_off_c, 2, 67, 0
4, 91392, Note_on_c, 2, 67, 93
4, 91584, Note_off_c, 2, 67, 0
4, 91680, Note_on_c, 2, 67, 93
4, 91776, Note_off_c, 2, 67, 0
4, 91776, Note_on_c, 2, 65, 93
4, 91968, Note_off_c, 2, 65, 0
4, 92064, Note_on_c, 2, 62, 93
4, 92160, Note_off_c, 2, 62, 0
4, 92160, Note_on_c, 2, 67, 93
4, 92256, Note_off_c, 2, 67, 0
4, 92352, Note_on_c, 2, 67, 93
4, 92448, Note_off_c, 2, 67, 0
4, 92544, Note_on_c, 2, 66, 93
4, 92736, Note_off_c, 2, 66, 0
4, 92928, Note_on_c, 2, 69, 93
4, 93120, Note_off_c, 2, 69, 0
4, 93408, Note_on_c, 2, 67, 93
4, 93504, Note_off_c, 2, 67, 0
4, 93504, Note_on_c, 2, 67, 93
4, 93600, Note_off_c, 2, 67, 0
4, 93600, Note_on_c, 2, 66, 93
4, 93696, Note_off_c, 2, 66, 0
4, 93696, Note_on_c, 2, 67, 93
4, 93888, Note_off_c, 2, 67, 0
4, 93888, Note_on_c, 2, 62, 93
4, 94080, Note_off_c, 2, 62, 0
4, 105024, Note_on_c, 2, 72, 93
4, 105120, Note_off_c, 2, 72, 0
4, 105120, Note_on_c, 2, 74, 93
4, 105216, Note_off_c, 2, 74, 0
4, 105216, Note_on_c, 2, 76, 93
4, 105312, Note_off_c, 2, 76, 0
4, 105312, Note_on_c, 2, 74, 93
4, 105360, Note_off_c, 2, 74, 0
4, 105360, Note_on_c, 2, 72, 93
4, 105408, Note_off_c, 2, 72, 0
4, 105408, Note_on_c, 2, 71, 93
4, 105504, Note_off_c, 2, 71, 0
4, 105504, Note_on_c, 2, 72, 93
4, 105600, Note_off_c, 2, 72, 0
4, 105600, Note_on_c, 2, 74, 93
4, 105792, Note_off_c, 2, 74, 0
4, 105792, Note_on_c, 2, 69, 93
4, 105888, Note_off_c, 2, 69, 0
4, 105888, Note_on_c, 2, 71, 93
4, 105984, Note_off_c, 2, 71, 0
4, 105984, Note_on_c, 2, 72, 93
4, 106080, Note_off_c, 2, 72, 0
4, 106080, Note_on_c, 2, 71, 93
4, 106176, Note_off_c, 2, 71, 0
4, 106176, Note_on_c, 2, 72, 93
4, 106272, Note_off_c, 2, 72, 0
4, 106272, Note_on_c, 2, 74, 93
4, 106320, Note_off_c, 2, 74, 0
4, 106320, Note_on_c, 2, 72, 93
4, 106368, Note_off_c, 2, 72, 0
4, 106368, Note_on_c, 2, 71, 93
4, 106464, Note_off_c, 2, 71, 0
4, 106464, Note_on_c, 2, 72, 93
4, 106560, Note_off_c, 2, 72, 0
4, 106560, Note_on_c, 2, 74, 93
4, 106656, Note_off_c, 2, 74, 0
4, 106656, Note_on_c, 2, 74, 93
4, 106752, Note_off_c, 2, 74, 0
4, 106752, Note_on_c, 2, 72, 93
4, 106848, Note_off_c, 2, 72, 0
4, 106848, Note_on_c, 2, 74, 93
4, 106944, Note_off_c, 2, 74, 0
4, 106944, Note_on_c, 2, 76, 93
4, 107040, Note_off_c, 2, 76, 0
4, 107040, Note_on_c, 2, 76, 93
4, 107136, Note_off_c, 2, 76, 0
4, 107136, Note_on_c, 2, 74, 93
4, 107232, Note_off_c, 2, 74, 0
4, 107232, Note_on_c, 2, 76, 93
4, 107328, Note_off_c, 2, 76, 0
4, 107328, Note_on_c, 2, 77, 93
4, 107424, Note_off_c, 2, 77, 0
4, 107424, Note_on_c, 2, 77, 93
4, 107520, Note_off_c, 2, 77, 0
4, 107520, Note_on_c, 2, 76, 93
4, 107616, Note_off_c, 2, 76, 0
4, 107616, Note_on_c, 2, 78, 93
4, 107712, Note_off_c, 2, 78, 0
4, 107712, Note_on_c, 2, 79, 93
4, 107808, Note_off_c, 2, 79, 0
4, 107808, Note_on_c, 2, 79, 93
4, 107904, Note_off_c, 2, 79, 0
4, 107904, Note_on_c, 2, 81, 93
4, 108000, Note_off_c, 2, 81, 0
4, 108000, Note_on_c, 2, 79, 93
4, 108048, Note_off_c, 2, 79, 0
4, 108048, Note_on_c, 2, 77, 93
4, 108096, Note_off_c, 2, 77, 0
4, 108096, Note_on_c, 2, 76, 93
4, 108192, Note_off_c, 2, 76, 0
4, 108192, Note_on_c, 2, 78, 93
4, 108288, Note_off_c, 2, 78, 0
4, 108288, Note_on_c, 2, 79, 93
4, 108384, Note_off_c, 2, 79, 0
4, 108384, Note_on_c, 2, 79, 93
4, 108480, Note_off_c, 2, 79, 0
4, 108480, Note_on_c, 2, 74, 93
4, 108576, Note_off_c, 2, 74, 0
4, 108576, Note_on_c, 2, 76, 93
4, 108672, Note_off_c, 2, 76, 0
4, 108672, Note_on_c, 2, 77, 93
4, 108768, Note_off_c, 2, 77, 0
4, 108768, Note_on_c, 2, 76, 93
4, 108864, Note_off_c, 2, 76, 0
4, 108864, Note_on_c, 2, 77, 93
4, 108960, Note_off_c, 2, 77, 0
4, 108960, Note_on_c, 2, 79, 93
4, 109008, Note_off_c, 2, 79, 0
4, 109008, Note_on_c, 2, 77, 93
4, 109056, Note_off_c, 2, 77, 0
4, 109056, Note_on_c, 2, 76, 93
4, 109152, Note_off_c, 2, 76, 0
4, 109152, Note_on_c, 2, 74, 93
4, 109248, Note_off_c, 2, 74, 0
4, 109248, Note_on_c, 2, 76, 93
4, 109344, Note_off_c, 2, 76, 0
4, 109344, Note_on_c, 2, 76, 93
4, 109440, Note_off_c, 2, 76, 0
4, 109440, Note_on_c, 2, 76, 93
4, 109536, Note_off_c, 2, 76, 0
4, 109536, Note_on_c, 2, 76, 93
4, 109632, Note_off_c, 2, 76, 0
4, 109632, Note_on_c, 2, 74, 93
4, 109728, Note_off_c, 2, 74, 0
4, 109728, Note_on_c, 2, 74, 93
4, 109824, Note_off_c, 2, 74, 0
4, 109824, Note_on_c, 2, 74, 93
4, 109920, Note_off_c, 2, 74, 0
4, 109920, Note_on_c, 2, 74, 93
4, 110016, Note_off_c, 2, 74, 0
4, 110016, Note_on_c, 2, 72, 93
4, 110112, Note_off_c, 2, 72, 0
4, 110112, Note_on_c, 2, 76, 93
4, 110160, Note_off_c, 2, 76, 0
4, 110160, Note_on_c, 2, 74, 93
4, 110208, Note_off_c, 2, 74, 0
4, 110208, Note_on_c, 2, 72, 93
4, 110304, Note_off_c, 2, 72, 0
4, 110304, Note_on_c, 2, 71, 93
4, 110400, Note_off_c, 2, 71, 0
4, 110400, Note_on_c, 2, 72, 93
4, 110496, Note_off_c, 2, 72, 0
4, 110496, Note_on_c, 2, 69, 93
4, 110592, Note_off_c, 2, 69, 0
4, 110592, Note_on_c, 2, 71, 93
4, 110784, Note_off_c, 2, 71, 0
4, 110784, Note_on_c, 2, 67, 93
4, 110976, Note_off_c, 2, 67, 0
4, 110976, Note_on_c, 2, 69, 93
4, 111072, Note_off_c, 2, 69, 0
4, 111072, Note_on_c, 2, 67, 93
4, 111120, Note_off_c, 2, 67, 0
4, 111120, Note_on_c, 2, 65, 93
4, 111168, Note_off_c, 2, 65, 0
4, 111168, Note_on_c, 2, 64, 93
4, 111264, Note_off_c, 2, 64, 0
4, 111264, Note_on_c, 2, 65, 93
4, 111360, Note_off_c, 2, 65, 0
4, 111360, Note_on_c, 2, 67, 93
4, 111552, Note_off_c, 2, 67, 0
4, 111552, Note_on_c, 2, 62, 93
4, 111648, Note_off_c, 2, 62, 0
4, 111648, Note_on_c, 2, 64, 93
4, 111744, Note_off_c, 2, 64, 0
4, 111744, Note_on_c, 2, 65, 93
4, 111840, Note_off_c, 2, 65, 0
4, 111840, Note_on_c, 2, 64, 93
4, 111936, Note_off_c, 2, 64, 0
4, 111936, Note_on_c, 2, 65, 93
4, 112032, Note_off_c, 2, 65, 0
4, 112032, Note_on_c, 2, 67, 93
4, 112080, Note_off_c, 2, 67, 0
4, 112080, Note_on_c, 2, 65, 93
4, 112128, Note_off_c, 2, 65, 0
4, 112128, Note_on_c, 2, 64, 93
4, 112224, Note_off_c, 2, 64, 0
4, 112224, Note_on_c, 2, 62, 93
4, 112320, Note_off_c, 2, 62, 0
4, 112320, Note_on_c, 2, 64, 93
4, 112416, Note_off_c, 2, 64, 0
4, 112416, Note_on_c, 2, 66, 93
4, 112512, Note_off_c, 2, 66, 0
4, 112512, Note_on_c, 2, 67, 93
4, 112704, Note_off_c, 2, 67, 0
4, 112704, Note_on_c, 2, 67, 93
4, 112800, Note_off_c, 2, 67, 0
4, 112800, Note_on_c, 2, 67, 93
4, 112896, Note_off_c, 2, 67, 0
4, 112896, Note_on_c, 2, 66, 93
4, 113088, Note_off_c, 2, 66, 0
4, 113088, Note_on_c, 2, 65, 93
4, 113280, Note_off_c, 2, 65, 0
4, 113280, Note_on_c, 2, 64, 93
4, 113376, Note_off_c, 2, 64, 0
4, 113376, Note_on_c, 2, 62, 93
4, 113472, Note_off_c, 2, 62, 0
4, 113472, Note_on_c, 2, 64, 93
4, 113568, Note_off_c, 2, 64, 0
4, 113568, Note_on_c, 2, 66, 93
4, 113664, Note_off_c, 2, 66, 0
4, 113664, Note_on_c, 2, 67, 93
4, 113760, Note_off_c, 2, 67, 0
4, 113760, Note_on_c, 2, 65, 93
4, 113856, Note_off_c, 2, 65, 0
4, 113856, Note_on_c, 2, 67, 93
4, 113952, Note_off_c, 2, 67, 0
4, 113952, Note_on_c, 2, 64, 93
4, 114048, Note_off_c, 2, 64, 0
4, 114048, Note_on_c, 2, 65, 93
4, 114144, Note_off_c, 2, 65, 0
4, 114144, Note_on_c, 2, 64, 93
4, 114240, Note_off_c, 2, 64, 0
4, 114240, Note_on_c, 2, 65, 93
4, 114336, Note_off_c, 2, 65, 0
4, 114336, Note_on_c, 2, 62, 93
4, 114432, Note_off_c, 2, 62, 0
4, 114432, Note_on_c, 2, 64, 93
4, 114624, Note_off_c, 2, 64, 0
4, 114624, Note_on_c, 2, 64, 93
4, 114816, Note_off_c, 2, 64, 0
4, 114816, Note_on_c, 2, 64, 93
4, 115008, Note_off_c, 2, 64, 0
4, 115008, Note_on_c, 2, 69, 93
4, 115200, Note_off_c, 2, 69, 0
4, 115200, Note_on_c, 2, 62, 93
4, 115392, Note_off_c, 2, 62, 0
4, 115584, Note_on_c, 2, 62, 93
4, 115968, Note_off_c, 2, 62, 0
4, 115968, Note_on_c, 2, 64, 93
4, 116160, Note_off_c, 2, 64, 0
4, 116160, Note_on_c, 2, 69, 93
4, 116352, Note_off_c, 2, 69, 0
4, 116352, Note_on_c, 2, 64, 93
4, 116544, Note_off_c, 2, 64, 0
4, 116544, Note_on_c, 2, 57, 93
4, 116736, Note_off_c, 2, 57, 0
4, 116736, Note_on_c, 2, 62, 93
4, 116928, Note_off_c, 2, 62, 0
4, 116928, Note_on_c, 2, 65, 93
4, 117120, Note_off_c, 2, 65, 0
4, 117120, Note_on_c, 2, 64, 93
4, 117312, Note_off_c, 2, 64, 0
4, 117504, Note_on_c, 2, 62, 93
4, 117696, Note_off_c, 2, 62, 0
4, 117888, Note_on_c, 2, 69, 93
4, 118080, Note_off_c, 2, 69, 0
4, 118080, Note_on_c, 2, 62, 93
4, 118272, Note_off_c, 2, 62, 0
4, 118272, Note_on_c, 2, 67, 93
4, 118464, Note_off_c, 2, 67, 0
4, 118656, Note_on_c, 2, 67, 93
4, 118752, Note_off_c, 2, 67, 0
4, 118944, Note_on_c, 2, 67, 93
4, 119040, Note_off_c, 2, 67, 0
4, 119040, Note_on_c, 2, 65, 93
4, 119136, Note_off_c, 2, 65, 0
4, 119424, Note_on_c, 2, 65, 93
4, 119520, Note_off_c, 2, 65, 0
4, 119712, Note_on_c, 2, 65, 93
4, 119808, Note_off_c, 2, 65, 0
4, 119808, Note_on_c, 2, 64, 93
4, 119904, Note_off_c, 2, 64, 0
4, 119904, Note_on_c, 2, 65, 93
4, 120000, Note_off_c, 2, 65, 0
4, 120000, Note_on_c, 2, 60, 93
4, 120192, Note_off_c, 2, 60, 0
4, 120192, Note_on_c, 2, 62, 93
4, 120288, Note_off_c, 2, 62, 0
4, 120288, Note_on_c, 2, 60, 93
4, 120336, Note_off_c, 2, 60, 0
4, 120336, Note_on_c, 2, 59, 93
4, 120384, Note_off_c, 2, 59, 0
4, 120384, Note_on_c, 2, 57, 93
4, 120480, Note_off_c, 2, 57, 0
4, 120480, Note_on_c, 2, 59, 93
4, 120576, Note_off_c, 2, 59, 0
4, 120576, Note_on_c, 2, 60, 93
4, 120768, Note_off_c, 2, 60, 0
4, 120768, Note_on_c, 2, 55, 93
4, 120864, Note_off_c, 2, 55, 0
4, 120864, Note_on_c, 2, 57, 93
4, 120960, Note_off_c, 2, 57, 0
4, 120960, Note_on_c, 2, 58, 93
4, 121056, Note_off_c, 2, 58, 0
4, 121056, Note_on_c, 2, 57, 93
4, 121152, Note_off_c, 2, 57, 0
4, 121152, Note_on_c, 2, 58, 93
4, 121248, Note_off_c, 2, 58, 0
4, 121248, Note_on_c, 2, 60, 93
4, 121296, Note_off_c, 2, 60, 0
4, 121296, Note_on_c, 2, 58, 93
4, 121344, Note_off_c, 2, 58, 0
4, 121344, Note_on_c, 2, 57, 93
4, 121536, Note_off_c, 2, 57, 0
4, 121536, Note_on_c, 2, 59, 93
4, 121728, Note_off_c, 2, 59, 0
4, 121728, Note_on_c, 2, 60, 93
4, 121824, Note_off_c, 2, 60, 0
4, 121824, Note_on_c, 2, 59, 93
4, 121920, Note_off_c, 2, 59, 0
4, 121920, Note_on_c, 2, 60, 93
4, 122016, Note_off_c, 2, 60, 0
4, 122016, Note_on_c, 2, 62, 93
4, 122064, Note_off_c, 2, 62, 0
4, 122064, Note_on_c, 2, 60, 93
4, 122112, Note_off_c, 2, 60, 0
4, 122112, Note_on_c, 2, 59, 93
4, 122208, Note_off_c, 2, 59, 0
4, 122208, Note_on_c, 2, 57, 93
4, 122304, Note_off_c, 2, 57, 0
4, 122304, Note_on_c, 2, 58, 93
4, 122496, Note_off_c, 2, 58, 0
4, 122496, Note_on_c, 2, 57, 93
4, 122688, Note_off_c, 2, 57, 0
4, 122880, Note_on_c, 2, 55, 93
4, 123072, Note_off_c, 2, 55, 0
4, 123072, Note_on_c, 2, 62, 93
4, 123168, Note_off_c, 2, 62, 0
4, 123168, Note_on_c, 2, 64, 93
4, 123264, Note_off_c, 2, 64, 0
4, 123264, Note_on_c, 2, 62, 93
4, 123456, Note_off_c, 2, 62, 0
4, 123456, Note_on_c, 2, 55, 93
4, 123648, Note_off_c, 2, 55, 0
4, 123648, Note_on_c, 2, 60, 93
4, 123744, Note_off_c, 2, 60, 0
4, 124032, Note_on_c, 2, 60, 93
4, 124128, Note_off_c, 2, 60, 0
4, 124320, Note_on_c, 2, 60, 93
4, 124416, Note_off_c, 2, 60, 0
4, 124416, Note_on_c, 2, 58, 93
4, 124512, Note_off_c, 2, 58, 0
4, 124800, Note_on_c, 2, 58, 93
4, 124896, Note_off_c, 2, 58, 0
4, 125088, Note_on_c, 2, 58, 93
4, 125184, Note_off_c, 2, 58, 0
4, 125184, Note_on_c, 2, 57, 93
4, 125280, Note_off_c, 2, 57, 0
4, 125568, Note_on_c, 2, 59, 93
4, 125616, Note_off_c, 2, 59, 0
4, 125952, Note_on_c, 2, 60, 93
4, 126048, Note_off_c, 2, 60, 0
4, 126336, Note_on_c, 2, 62, 93
4, 126384, Note_off_c, 2, 62, 0
4, 126720, Note_on_c, 2, 64, 93
4, 126768, Note_off_c, 2, 64, 0
4, 127104, Note_on_c, 2, 65, 93
4, 127152, Note_off_c, 2, 65, 0
4, 127488, Note_on_c, 2, 65, 93
4, 127536, Note_off_c, 2, 65, 0
4, 127680, Note_on_c, 2, 64, 93
4, 127776, Note_off_c, 2, 64, 0
4, 127776, Note_on_c, 2, 62, 93
4, 127872, Note_off_c, 2, 62, 0
4, 127872, Note_on_c, 2, 61, 93
4, 127920, Note_off_c, 2, 61, 0
4, 128064, Note_on_c, 2, 60, 93
4, 128160, Note_off_c, 2, 60, 0
4, 128256, Note_on_c, 2, 59, 93
4, 128304, Note_off_c, 2, 59, 0
4, 128448, Note_on_c, 2, 58, 93
4, 128544, Note_off_c, 2, 58, 0
4, 128640, Note_on_c, 2, 57, 93
4, 128736, Note_off_c, 2, 57, 0
4, 129024, Note_on_c, 2, 55, 93
4, 129120, Note_off_c, 2, 55, 0
4, 129408, Note_on_c, 2, 65, 93
4, 129504, Note_off_c, 2, 65, 0
4, 129504, Note_on_c, 2, 65, 93
4, 129552, Note_off_c, 2, 65, 0
4, 129552, Note_on_c, 2, 64, 93
4, 129600, Note_off_c, 2, 64, 0
4, 129600, Note_on_c, 2, 65, 93
4, 129696, Note_off_c, 2, 65, 0
4, 129696, Note_on_c, 2, 67, 93
4, 129744, Note_off_c, 2, 67, 0
4, 129744, Note_on_c, 2, 65, 93
4, 129792, Note_off_c, 2, 65, 0
4, 129792, Note_on_c, 2, 64, 93
4, 129888, Note_off_c, 2, 64, 0
4, 129984, Note_on_c, 2, 69, 93
4, 130080, Note_off_c, 2, 69, 0
4, 130176, Note_on_c, 2, 72, 93
4, 130272, Note_off_c, 2, 72, 0
4, 130368, Note_on_c, 2, 71, 93
4, 130464, Note_off_c, 2, 71, 0
4, 130560, Note_on_c, 2, 72, 93
4, 130656, Note_off_c, 2, 72, 0
4, 130944, Note_on_c, 2, 72, 93
4, 131040, Note_off_c, 2, 72, 0
4, 131232, Note_on_c, 2, 72, 93
4, 131328, Note_off_c, 2, 72, 0
4, 131328, Note_on_c, 2, 72, 93
4, 131424, Note_off_c, 2, 72, 0
4, 131712, Note_on_c, 2, 74, 93
4, 131808, Note_off_c, 2, 74, 0
4, 132000, Note_on_c, 2, 72, 93
4, 132096, Note_off_c, 2, 72, 0
4, 132480, Note_on_c, 2, 64, 93
4, 132672, Note_off_c, 2, 64, 0
4, 132864, Note_on_c, 2, 67, 93
4, 133056, Note_off_c, 2, 67, 0
4, 133056, Note_on_c, 2, 67, 93
4, 133248, Note_off_c, 2, 67, 0
4, 133248, Note_on_c, 2, 65, 93
4, 133344, Note_off_c, 2, 65, 0
4, 133632, Note_on_c, 2, 65, 93
4, 133680, Note_off_c, 2, 65, 0
4, 134400, Note_on_c, 2, 63, 93
4, 134448, Note_off_c, 2, 63, 0
4, 135840, Note_on_c, 2, 71, 93
4, 135936, Note_off_c, 2, 71, 0
4, 135936, Note_on_c, 2, 72, 93
4, 136128, Note_off_c, 2, 72, 0
4, 136128, End_track
5, 0, Start_track
5, 0, Title_t, "Track5"
5, 0, Program_c, 3, 40
5, 0, Control_c, 3, 7, 100
5, 0, Control_c, 3, 10, 49
5, 4224, Note_on_c, 3, 57, 93
5, 4416, Note_off_c, 3, 57, 0
5, 4416, Note_on_c, 3, 57, 93
5, 4608, Note_off_c, 3, 57, 0
5, 4608, Note_on_c, 3, 55, 93
5, 4800, Note_off_c, 3, 55, 0
5, 4800, Note_on_c, 3, 55, 93
5, 4992, Note_off_c, 3, 55, 0
5, 5376, Note_on_c, 3, 57, 93
5, 5568, Note_off_c, 3, 57, 0
5, 5952, Note_on_c, 3, 57, 93
5, 6144, Note_off_c, 3, 57, 0
5, 17280, Note_on_c, 3, 64, 93
5, 17328, Note_off_c, 3, 64, 0
5, 17472, Note_on_c, 3, 64, 93
5, 17568, Note_off_c, 3, 64, 0
5, 18048, Note_on_c, 3, 72, 93
5, 18144, Note_off_c, 3, 72, 0
5, 18432, Note_on_c, 3, 72, 93
5, 18528, Note_off_c, 3, 72, 0
5, 18816, Note_on_c, 3, 69, 93
5, 18912, Note_off_c, 3, 69, 0
5, 19392, Note_on_c, 3, 69, 93
5, 19488, Note_off_c, 3, 69, 0
5, 19584, Note_on_c, 3, 72, 93
5, 19680, Note_off_c, 3, 72, 0
5, 19776, Note_on_c, 3, 71, 93
5, 19872, Note_off_c, 3, 71, 0
5, 19968, Note_on_c, 3, 72, 93
5, 20064, Note_off_c, 3, 72, 0
5, 20352, Note_on_c, 3, 72, 93
5, 20448, Note_off_c, 3, 72, 0
5, 20640, Note_on_c, 3, 72, 93
5, 20736, Note_off_c, 3, 72, 0
5, 20736, Note_on_c, 3, 72, 93
5, 20832, Note_off_c, 3, 72, 0
5, 21120, Note_on_c, 3, 74, 93
5, 21216, Note_off_c, 3, 74, 0
5, 21408, Note_on_c, 3, 72, 93
5, 21504, Note_off_c, 3, 72, 0
5, 21888, Note_on_c, 3, 64, 93
5, 22080, Note_off_c, 3, 64, 0
5, 22272, Note_on_c, 3, 74, 93
5, 22464, Note_off_c, 3, 74, 0
5, 22464, Note_on_c, 3, 72, 93
5, 22656, Note_off_c, 3, 72, 0
5, 22656, Note_on_c, 3, 72, 93
5, 22752, Note_off_c, 3, 72, 0
5, 22752, Note_on_c, 3, 74, 93
5, 22800, Note_off_c, 3, 74, 0
5, 22800, Note_on_c, 3, 76, 93
5, 22848, Note_off_c, 3, 76, 0
5, 22848, Note_on_c, 3, 77, 93
5, 22896, Note_off_c, 3, 77, 0
5, 22896, Note_on_c, 3, 79, 93
5, 22944, Note_off_c, 3, 79, 0
5, 22944, Note_on_c, 3, 81, 93
5, 22992, Note_off_c, 3, 81, 0
5, 22992, Note_on_c, 3, 72, 93
5, 23040, Note_off_c, 3, 72, 0
5, 23040, Note_on_c, 3, 71, 93
5, 23088, Note_off_c, 3, 71, 0
5, 23088, Note_on_c, 3, 74, 93
5, 23136, Note_off_c, 3, 74, 0
5, 23136, Note_on_c, 3, 72, 93
5, 23184, Note_off_c, 3, 72, 0
5, 23184, Note_on_c, 3, 71, 93
5, 23232, Note_off_c, 3, 71, 0
5, 23232, Note_on_c, 3, 69, 93
5, 23280, Note_off_c, 3, 69, 0
5, 23280, Note_on_c, 3, 67, 93
5, 23328, Note_off_c, 3, 67, 0
5, 23328, Note_on_c, 3, 65, 93
5, 23376, Note_off_c, 3, 65, 0
5, 23376, Note_on_c, 3, 74, 93
5, 23424, Note_off_c, 3, 74, 0
5, 23424, Note_on_c, 3, 79, 93
5, 23472, Note_off_c, 3, 79, 0
5, 23472, Note_on_c, 3, 71, 93
5, 23520, Note_off_c, 3, 71, 0
5, 23520, Note_on_c, 3, 72, 93
5, 23568, Note_off_c, 3, 72, 0
5, 23568, Note_on_c, 3, 64, 93
5, 23616, Note_off_c, 3, 64, 0
5, 23616, Note_on_c, 3, 62, 93
5, 23664, Note_off_c, 3, 62, 0
5, 23664, Note_on_c, 3, 72, 93
5, 23712, Note_off_c, 3, 72, 0
5, 23712, Note_on_c, 3, 77, 93
5, 23760, Note_off_c, 3, 77, 0
5, 23760, Note_on_c, 3, 71, 93
5, 23808, Note_off_c, 3, 71, 0
5, 23808, Note_on_c, 3, 72, 93
5, 23856, Note_off_c, 3, 72, 0
5, 23856, Note_on_c, 3, 74, 93
5, 23904, Note_off_c, 3, 74, 0
5, 23904, Note_on_c, 3, 75, 93
5, 23952, Note_off_c, 3, 75, 0
5, 23952, Note_on_c, 3, 77, 93
5, 24000, Note_off_c, 3, 77, 0
5, 24000, Note_on_c, 3, 79, 93
5, 24048, Note_off_c, 3, 79, 0
5, 24048, Note_on_c, 3, 81, 93
5, 24096, Note_off_c, 3, 81, 0
5, 24096, Note_on_c, 3, 83, 93
5, 24144, Note_off_c, 3, 83, 0
5, 24144, Note_on_c, 3, 84, 93
5, 24192, Note_off_c, 3, 84, 0
5, 24192, Note_on_c, 3, 78, 93
5, 24240, Note_off_c, 3, 78, 0
5, 24240, Note_on_c, 3, 75, 93
5, 24288, Note_off_c, 3, 75, 0
5, 24288, Note_on_c, 3, 74, 93
5, 24336, Note_off_c, 3, 74, 0
5, 24336, Note_on_c, 3, 72, 93
5, 24384, Note_off_c, 3, 72, 0
5, 24384, Note_on_c, 3, 71, 93
5, 24432, Note_off_c, 3, 71, 0
5, 24432, Note_on_c, 3, 72, 93
5, 24480, Note_off_c, 3, 72, 0
5, 24480, Note_on_c, 3, 66, 93
5, 24528, Note_off_c, 3, 66, 0
5, 24528, Note_on_c, 3, 57, 93
5, 24576, Note_off_c, 3, 57, 0
5, 24576, Note_on_c, 3, 55, 93
5, 24624, Note_off_c, 3, 55, 0
5, 24624, Note_on_c, 3, 60, 93
5, 24672, Note_off_c, 3, 60, 0
5, 24672, Note_on_c, 3, 64, 93
5, 24720, Note_off_c, 3, 64, 0
5, 24720, Note_on_c, 3, 67, 93
5, 24768, Note_off_c, 3, 67, 0
5, 24768, Note_on_c, 3, 72, 93
5, 24816, Note_off_c, 3, 72, 0
5, 24816, Note_on_c, 3, 76, 93
5, 24864, Note_off_c, 3, 76, 0
5, 24864, Note_on_c, 3, 79, 93
5, 24912, Note_off_c, 3, 79, 0
5, 24912, Note_on_c, 3, 76, 93
5, 24960, Note_off_c, 3, 76, 0
5, 24960, Note_on_c, 3, 72, 93
5, 25008, Note_off_c, 3, 72, 0
5, 25008, Note_on_c, 3, 67, 93
5, 25056, Note_off_c, 3, 67, 0
5, 25056, Note_on_c, 3, 64, 93
5, 25104, Note_off_c, 3, 64, 0
5, 25104, Note_on_c, 3, 60, 93
5, 25152, Note_off_c, 3, 60, 0
5, 25152, Note_on_c, 3, 55, 93
5, 25248, Note_off_c, 3, 55, 0
5, 25344, Note_on_c, 3, 60, 93
5, 25392, Note_off_c, 3, 60, 0
5, 38592, Note_on_c, 3, 61, 93
5, 38688, Note_off_c, 3, 61, 0
5, 38688, Note_on_c, 3, 62, 93
5, 38784, Note_off_c, 3, 62, 0
5, 38784, Note_on_c, 3, 64, 93
5, 38976, Note_off_c, 3, 64, 0
5, 38976, Note_on_c, 3, 64, 93
5, 39168, Note_off_c, 3, 64, 0
5, 39168, Note_on_c, 3, 62, 93
5, 39360, Note_off_c, 3, 62, 0
5, 39360, Note_on_c, 3, 67, 93
5, 39552, Note_off_c, 3, 67, 0
5, 39552, Note_on_c, 3, 64, 93
5, 39744, Note_off_c, 3, 64, 0
5, 39744, Note_on_c, 3, 63, 93
5, 39936, Note_off_c, 3, 63, 0
5, 39936, Note_on_c, 3, 62, 93
5, 40128, Note_off_c, 3, 62, 0
5, 40320, Note_on_c, 3, 62, 93
5, 40512, Note_off_c, 3, 62, 0
5, 40512, Note_on_c, 3, 62, 93
5, 40704, Note_off_c, 3, 62, 0
5, 40704, Note_on_c, 3, 64, 93
5, 40800, Note_off_c, 3, 64, 0
5, 40800, Note_on_c, 3, 62, 93
5, 40896, Note_off_c, 3, 62, 0
5, 40896, Note_on_c, 3, 64, 93
5, 40992, Note_off_c, 3, 64, 0
5, 40992, Note_on_c, 3, 66, 93
5, 41088, Note_off_c, 3, 66, 0
5, 41088, Note_on_c, 3, 67, 93
5, 41280, Note_off_c, 3, 67, 0
5, 41376, Note_on_c, 3, 67, 93
5, 41472, Note_off_c, 3, 67, 0
5, 41472, Note_on_c, 3, 69, 93
5, 41568, Note_off_c, 3, 69, 0
5, 41568, Note_on_c, 3, 67, 93
5, 41664, Note_off_c, 3, 67, 0
5, 41664, Note_on_c, 3, 69, 93
5, 41760, Note_off_c, 3, 69, 0
5, 41760, Note_on_c, 3, 71, 93
5, 41856, Note_off_c, 3, 71, 0
5, 41856, Note_on_c, 3, 72, 93
5, 41952, Note_off_c, 3, 72, 0
5, 41952, Note_on_c, 3, 71, 93
5, 42048, Note_off_c, 3, 71, 0
5, 42048, Note_on_c, 3, 69, 93
5, 42144, Note_off_c, 3, 69, 0
5, 42240, Note_on_c, 3, 68, 93
5, 42336, Note_off_c, 3, 68, 0
5, 42432, Note_on_c, 3, 67, 93
5, 42624, Note_off_c, 3, 67, 0
5, 42624, Note_on_c, 3, 69, 93
5, 42816, Note_off_c, 3, 69, 0
5, 47040, Note_on_c, 3, 79, 93
5, 47232, Note_off_c, 3, 79, 0
5, 47232, Note_on_c, 3, 78, 93
5, 47424, Note_off_c, 3, 78, 0
5, 47424, Note_on_c, 3, 77, 93
5, 47616, Note_off_c, 3, 77, 0
5, 47616, Note_on_c, 3, 76, 93
5, 47808, Note_off_c, 3, 76, 0
5, 47808, Note_on_c, 3, 78, 93
5, 48000, Note_off_c, 3, 78, 0
5, 48000, Note_on_c, 3, 79, 93
5, 48192, Note_off_c, 3, 79, 0
5, 48192, Note_on_c, 3, 79, 93
5, 48384, Note_off_c, 3, 79, 0
5, 48384, Note_on_c, 3, 79, 93
5, 48480, Note_off_c, 3, 79, 0
5, 48480, Note_on_c, 3, 77, 93
5, 48528, Note_off_c, 3, 77, 0
5, 48528, Note_on_c, 3, 76, 93
5, 48576, Note_off_c, 3, 76, 0
5, 48576, Note_on_c, 3, 77, 93
5, 48672, Note_off_c, 3, 77, 0
5, 48672, Note_on_c, 3, 79, 93
5, 48720, Note_off_c, 3, 79, 0
5, 48720, Note_on_c, 3, 77, 93
5, 48768, Note_off_c, 3, 77, 0
5, 48768, Note_on_c, 3, 76, 93
5, 48960, Note_off_c, 3, 76, 0
5, 48960, Note_on_c, 3, 76, 93
5, 49152, Note_off_c, 3, 76, 0
5, 49152, Note_on_c, 3, 75, 93
5, 49344, Note_off_c, 3, 75, 0
5, 49344, Note_on_c, 3, 74, 93
5, 49536, Note_off_c, 3, 74, 0
5, 49536, Note_on_c, 3, 73, 93
5, 49728, Note_off_c, 3, 73, 0
5, 49728, Note_on_c, 3, 72, 93
5, 49920, Note_off_c, 3, 72, 0
5, 49920, Note_on_c, 3, 71, 93
5, 50112, Note_off_c, 3, 71, 0
5, 50112, Note_on_c, 3, 73, 93
5, 50304, Note_off_c, 3, 73, 0
5, 50304, Note_on_c, 3, 74, 93
5, 50400, Note_off_c, 3, 74, 0
5, 50400, Note_on_c, 3, 72, 93
5, 50448, Note_off_c, 3, 72, 0
5, 50448, Note_on_c, 3, 71, 93
5, 50496, Note_off_c, 3, 71, 0
5, 50496, Note_on_c, 3, 69, 93
5, 50592, Note_off_c, 3, 69, 0
5, 50592, Note_on_c, 3, 71, 93
5, 50688, Note_off_c, 3, 71, 0
5, 50688, Note_on_c, 3, 72, 93
5, 50784, Note_off_c, 3, 72, 0
5, 50784, Note_on_c, 3, 71, 93
5, 50880, Note_off_c, 3, 71, 0
5, 50880, Note_on_c, 3, 72, 93
5, 50976, Note_off_c, 3, 72, 0
5, 50976, Note_on_c, 3, 74, 93
5, 51024, Note_off_c, 3, 74, 0
5, 51024, Note_on_c, 3, 72, 93
5, 51072, Note_off_c, 3, 72, 0
5, 51072, Note_on_c, 3, 71, 93
5, 51264, Note_off_c, 3, 71, 0
5, 51264, Note_on_c, 3, 70, 93
5, 51456, Note_off_c, 3, 70, 0
5, 51456, Note_on_c, 3, 69, 93
5, 51648, Note_off_c, 3, 69, 0
5, 51648, Note_on_c, 3, 71, 93
5, 51840, Note_off_c, 3, 71, 0
5, 51840, Note_on_c, 3, 72, 93
5, 52032, Note_off_c, 3, 72, 0
5, 52032, Note_on_c, 3, 74, 93
5, 52224, Note_off_c, 3, 74, 0
5, 52224, Note_on_c, 3, 74, 93
5, 52320, Note_off_c, 3, 74, 0
5, 52320, Note_on_c, 3, 74, 93
5, 52416, Note_off_c, 3, 74, 0
5, 52416, Note_on_c, 3, 72, 93
5, 52608, Note_off_c, 3, 72, 0
5, 52608, Note_on_c, 3, 71, 93
5, 52800, Note_off_c, 3, 71, 0
5, 52800, Note_on_c, 3, 74, 93
5, 52896, Note_off_c, 3, 74, 0
5, 52896, Note_on_c, 3, 76, 93
5, 52992, Note_off_c, 3, 76, 0
5, 52992, Note_on_c, 3, 77, 93
5, 53088, Note_off_c, 3, 77, 0
5, 53088, Note_on_c, 3, 76, 93
5, 53184, Note_off_c, 3, 76, 0
5, 53184, Note_on_c, 3, 77, 93
5, 53280, Note_off_c, 3, 77, 0
5, 53280, Note_on_c, 3, 79, 93
5, 53328, Note_off_c, 3, 79, 0
5, 53328, Note_on_c, 3, 77, 93
5, 53376, Note_off_c, 3, 77, 0
5, 53376, Note_on_c, 3, 76, 93
5, 53568, Note_off_c, 3, 76, 0
5, 53568, Note_on_c, 3, 72, 93
5, 53664, Note_off_c, 3, 72, 0
5, 53664, Note_on_c, 3, 74, 93
5, 53712, Note_off_c, 3, 74, 0
5, 53712, Note_on_c, 3, 72, 93
5, 53760, Note_off_c, 3, 72, 0
5, 53760, Note_on_c, 3, 71, 93
5, 53952, Note_off_c, 3, 71, 0
5, 53952, Note_on_c, 3, 67, 93
5, 54048, Note_off_c, 3, 67, 0
5, 54048, Note_on_c, 3, 69, 93
5, 54096, Note_off_c, 3, 69, 0
5, 54096, Note_on_c, 3, 67, 93
5, 54144, Note_off_c, 3, 67, 0
5, 54144, Note_on_c, 3, 65, 93
5, 54336, Note_off_c, 3, 65, 0
5, 54336, Note_on_c, 3, 70, 93
5, 54720, Note_off_c, 3, 70, 0
5, 54720, Note_on_c, 3, 69, 93
5, 55104, Note_off_c, 3, 69, 0
5, 55104, Note_on_c, 3, 67, 93
5, 55296, Note_off_c, 3, 67, 0
5, 55296, Note_on_c, 3, 69, 93
5, 55488, Note_off_c, 3, 69, 0
5, 55488, Note_on_c, 3, 70, 93
5, 55680, Note_off_c, 3, 70, 0
5, 55680, Note_on_c, 3, 70, 93
5, 55776, Note_off_c, 3, 70, 0
5, 55776, Note_on_c, 3, 73, 93
5, 55872, Note_off_c, 3, 73, 0
5, 55872, Note_on_c, 3, 74, 93
5, 56064, Note_off_c, 3, 74, 0
5, 56064, Note_on_c, 3, 74, 93
5, 56256, Note_off_c, 3, 74, 0
5, 56256, Note_on_c, 3, 73, 93
5, 56448, Note_off_c, 3, 73, 0
5, 56448, Note_on_c, 3, 74, 93
5, 56640, Note_off_c, 3, 74, 0
5, 58560, Note_on_c, 3, 67, 93
5, 58752, Note_off_c, 3, 67, 0
5, 58752, Note_on_c, 3, 69, 93
5, 58848, Note_off_c, 3, 69, 0
5, 58848, Note_on_c, 3, 67, 93
5, 58896, Note_off_c, 3, 67, 0
5, 58896, Note_on_c, 3, 65, 93
5, 58944, Note_off_c, 3, 65, 0
5, 58944, Note_on_c, 3, 64, 93
5, 59040, Note_off_c, 3, 64, 0
5, 59040, Note_on_c, 3, 66, 93
5, 59136, Note_off_c, 3, 66, 0
5, 59136, Note_on_c, 3, 67, 93
5, 59328, Note_off_c, 3, 67, 0
5, 59328, Note_on_c, 3, 62, 93
5, 59424, Note_off_c, 3, 62, 0
5, 59424, Note_on_c, 3, 64, 93
5, 59520, Note_off_c, 3, 64, 0
5, 59520, Note_on_c, 3, 65, 93
5, 59616, Note_off_c, 3, 65, 0
5, 59616, Note_on_c, 3, 64, 93
5, 59712, Note_off_c, 3, 64, 0
5, 59712, Note_on_c, 3, 65, 93
5, 59808, Note_off_c, 3, 65, 0
5, 59808, Note_on_c, 3, 67, 93
5, 59856, Note_off_c, 3, 67, 0
5, 59856, Note_on_c, 3, 65, 93
5, 59904, Note_off_c, 3, 65, 0
5, 59904, Note_on_c, 3, 64, 93
5, 60096, Note_off_c, 3, 64, 0
5, 60096, Note_on_c, 3, 64, 93
5, 60288, Note_off_c, 3, 64, 0
5, 60288, Note_on_c, 3, 66, 93
5, 60384, Note_off_c, 3, 66, 0
5, 60384, Note_on_c, 3, 64, 93
5, 60480, Note_off_c, 3, 64, 0
5, 60480, Note_on_c, 3, 66, 93
5, 60576, Note_off_c, 3, 66, 0
5, 60576, Note_on_c, 3, 68, 93
5, 60672, Note_off_c, 3, 68, 0
5, 60672, Note_on_c, 3, 69, 93
5, 60864, Note_off_c, 3, 69, 0
5, 60864, Note_on_c, 3, 64, 93
5, 61056, Note_off_c, 3, 64, 0
5, 61056, Note_on_c, 3, 64, 93
5, 61248, Note_off_c, 3, 64, 0
5, 61248, Note_on_c, 3, 66, 93
5, 61440, Note_off_c, 3, 66, 0
5, 61440, Note_on_c, 3, 66, 93
5, 61632, Note_off_c, 3, 66, 0
5, 61632, Note_on_c, 3, 66, 93
5, 61824, Note_off_c, 3, 66, 0
5, 61824, Note_on_c, 3, 64, 93
5, 62016, Note_off_c, 3, 64, 0
5, 62016, Note_on_c, 3, 64, 93
5, 62112, Note_off_c, 3, 64, 0
5, 62112, Note_on_c, 3, 62, 93
5, 62208, Note_off_c, 3, 62, 0
5, 62208, Note_on_c, 3, 60, 93
5, 62400, Note_off_c, 3, 60, 0
5, 62592, Note_on_c, 3, 55, 93
5, 62784, Note_off_c, 3, 55, 0
5, 62880, Note_on_c, 3, 57, 93
5, 62976, Note_off_c, 3, 57, 0
5, 62976, Note_on_c, 3, 59, 93
5, 63168, Note_off_c, 3, 59, 0
5, 63168, Note_on_c, 3, 63, 93
5, 63360, Note_off_c, 3, 63, 0
5, 63360, Note_on_c, 3, 64, 93
5, 63456, Note_off_c, 3, 64, 0
5, 71664, Note_on_c, 3, 62, 93
5, 71712, Note_off_c, 3, 62, 0
5, 71760, Note_on_c, 3, 62, 93
5, 71808, Note_off_c, 3, 62, 0
5, 71856, Note_on_c, 3, 62, 93
5, 71904, Note_off_c, 3, 62, 0
5, 72048, Note_on_c, 3, 62, 93
5, 72096, Note_off_c, 3, 62, 0
5, 72144, Note_on_c, 3, 62, 93
5, 72192, Note_off_c, 3, 62, 0
5, 72240, Note_on_c, 3, 62, 93
5, 72288, Note_off_c, 3, 62, 0
5, 72336, Note_on_c, 3, 62, 93
5, 72384, Note_off_c, 3, 62, 0
5, 72432, Note_on_c, 3, 62, 93
5, 72480, Note_off_c, 3, 62, 0
5, 72624, Note_on_c, 3, 62, 93
5, 72672, Note_off_c, 3, 62, 0
5, 72720, Note_on_c, 3, 62, 93
5, 72768, Note_off_c, 3, 62, 0
5, 72816, Note_on_c, 3, 62, 93
5, 72864, Note_off_c, 3, 62, 0
5, 73008, Note_on_c, 3, 62, 93
5, 73056, Note_off_c, 3, 62, 0
5, 73104, Note_on_c, 3, 62, 93
5, 73152, Note_off_c, 3, 62, 0
5, 73200, Note_on_c, 3, 62, 93
5, 73248, Note_off_c, 3, 62, 0
5, 73296, Note_on_c, 3, 62, 93
5, 73344, Note_off_c, 3, 62, 0
5, 73392, Note_on_c, 3, 62, 93
5, 73440, Note_off_c, 3, 62, 0
5, 73488, Note_on_c, 3, 62, 93
5, 73536, Note_off_c, 3, 62, 0
5, 73584, Note_on_c, 3, 62, 93
5, 73632, Note_off_c, 3, 62, 0
5, 73680, Note_on_c, 3, 62, 93
5, 73728, Note_off_c, 3, 62, 0
5, 73776, Note_on_c, 3, 62, 93
5, 73824, Note_off_c, 3, 62, 0
5, 73872, Note_on_c, 3, 62, 93
5, 73920, Note_off_c, 3, 62, 0
5, 73968, Note_on_c, 3, 62, 93
5, 74016, Note_off_c, 3, 62, 0
5, 74064, Note_on_c, 3, 62, 93
5, 74112, Note_off_c, 3, 62, 0
5, 74160, Note_on_c, 3, 62, 93
5, 74208, Note_off_c, 3, 62, 0
5, 74256, Note_on_c, 3, 62, 93
5, 74304, Note_off_c, 3, 62, 0
5, 74352, Note_on_c, 3, 62, 93
5, 74400, Note_off_c, 3, 62, 0
5, 74448, Note_on_c, 3, 62, 93
5, 74496, Note_off_c, 3, 62, 0
5, 74544, Note_on_c, 3, 62, 93
5, 74592, Note_off_c, 3, 62, 0
5, 74736, Note_on_c, 3, 62, 93
5, 74784, Note_off_c, 3, 62, 0
5, 74832, Note_on_c, 3, 62, 93
5, 74880, Note_off_c, 3, 62, 0
5, 74928, Note_on_c, 3, 62, 93
5, 74976, Note_off_c, 3, 62, 0
5, 75024, Note_on_c, 3, 62, 93
5, 75072, Note_off_c, 3, 62, 0
5, 75120, Note_on_c, 3, 62, 93
5, 75168, Note_off_c, 3, 62, 0
5, 75216, Note_on_c, 3, 62, 93
5, 75264, Note_off_c, 3, 62, 0
5, 75312, Note_on_c, 3, 62, 93
5, 75360, Note_off_c, 3, 62, 0
5, 75408, Note_on_c, 3, 62, 93
5, 75456, Note_off_c, 3, 62, 0
5, 75504, Note_on_c, 3, 62, 93
5, 75552, Note_off_c, 3, 62, 0
5, 75696, Note_on_c, 3, 62, 93
5, 75744, Note_off_c, 3, 62, 0
5, 75792, Note_on_c, 3, 62, 93
5, 75840, Note_off_c, 3, 62, 0
5, 75888, Note_on_c, 3, 62, 93
5, 75936, Note_off_c, 3, 62, 0
5, 76080, Note_on_c, 3, 62, 93
5, 76128, Note_off_c, 3, 62, 0
5, 76176, Note_on_c, 3, 62, 93
5, 76224, Note_off_c, 3, 62, 0
5, 76272, Note_on_c, 3, 62, 93
5, 76320, Note_off_c, 3, 62, 0
5, 76464, Note_on_c, 3, 62, 93
5, 76512, Note_off_c, 3, 62, 0
5, 76560, Note_on_c, 3, 62, 93
5, 76608, Note_off_c, 3, 62, 0
5, 76656, Note_on_c, 3, 62, 93
5, 76704, Note_off_c, 3, 62, 0
5, 76848, Note_on_c, 3, 62, 93
5, 76896, Note_off_c, 3, 62, 0
5, 76944, Note_on_c, 3, 62, 93
5, 76992, Note_off_c, 3, 62, 0
5, 77040, Note_on_c, 3, 62, 93
5, 77088, Note_off_c, 3, 62, 0
5, 77184, Note_on_c, 3, 55, 93
5, 77376, Note_off_c, 3, 55, 0
5, 80640, Note_on_c, 3, 64, 93
5, 80832, Note_off_c, 3, 64, 0
5, 80832, Note_on_c, 3, 64, 93
5, 81024, Note_off_c, 3, 64, 0
5, 81216, Note_on_c, 3, 67, 93
5, 81408, Note_off_c, 3, 67, 0
5, 81408, Note_on_c, 3, 67, 93
5, 81600, Note_off_c, 3, 67, 0
5, 81696, Note_on_c, 3, 67, 93
5, 81792, Note_off_c, 3, 67, 0
5, 81792, Note_on_c, 3, 65, 93
5, 81984, Note_off_c, 3, 65, 0
5, 81984, Note_on_c, 3, 66, 93
5, 82176, Note_off_c, 3, 66, 0
5, 82176, Note_on_c, 3, 67, 93
5, 82368, Note_off_c, 3, 67, 0
5, 82368, Note_on_c, 3, 67, 93
5, 82560, Note_off_c, 3, 67, 0
5, 82560, Note_on_c, 3, 65, 93
5, 82752, Note_off_c, 3, 65, 0
5, 82752, Note_on_c, 3, 62, 93
5, 82944, Note_off_c, 3, 62, 0
5, 82944, Note_on_c, 3, 67, 93
5, 83136, Note_off_c, 3, 67, 0
5, 83328, Note_on_c, 3, 67, 93
5, 83520, Note_off_c, 3, 67, 0
5, 83520, Note_on_c, 3, 63, 93
5, 83712, Note_off_c, 3, 63, 0
5, 83712, Note_on_c, 3, 62, 93
5, 83904, Note_off_c, 3, 62, 0
5, 84384, Note_on_c, 3, 57, 93
5, 84480, Note_off_c, 3, 57, 0
5, 84864, Note_on_c, 3, 71, 93
5, 85056, Note_off_c, 3, 71, 0
5, 85056, Note_on_c, 3, 69, 93
5, 85248, Note_off_c, 3, 69, 0
5, 85824, Note_on_c, 3, 79, 93
5, 86016, Note_off_c, 3, 79, 0
5, 86016, Note_on_c, 3, 79, 93
5, 86208, Note_off_c, 3, 79, 0
5, 86208, Note_on_c, 3, 77, 93
5, 86304, Note_off_c, 3, 77, 0
5, 86304, Note_on_c, 3, 76, 93
5, 86352, Note_off_c, 3, 76, 0
5, 86352, Note_on_c, 3, 74, 93
5, 86400, Note_off_c, 3, 74, 0
5, 86400, Note_on_c, 3, 80, 93
5, 86592, Note_off_c, 3, 80, 0
5, 86688, Note_on_c, 3, 79, 93
5, 86784, Note_off_c, 3, 79, 0
5, 86784, Note_on_c, 3, 79, 93
5, 86880, Note_off_c, 3, 79, 0
5, 86880, Note_on_c, 3, 77, 93
5, 86928, Note_off_c, 3, 77, 0
5, 86928, Note_on_c, 3, 76, 93
5, 86976, Note_off_c, 3, 76, 0
5, 86976, Note_on_c, 3, 77, 93
5, 87168, Note_off_c, 3, 77, 0
5, 87168, Note_on_c, 3, 77, 93
5, 87264, Note_off_c, 3, 77, 0
5, 87264, Note_on_c, 3, 76, 93
5, 87312, Note_off_c, 3, 76, 0
5, 87312, Note_on_c, 3, 74, 93
5, 87360, Note_off_c, 3, 74, 0
5, 87360, Note_on_c, 3, 76, 93
5, 87456, Note_off_c, 3, 76, 0
5, 87456, Note_on_c, 3, 77, 93
5, 87504, Note_off_c, 3, 77, 0
5, 87504, Note_on_c, 3, 76, 93
5, 87552, Note_off_c, 3, 76, 0
5, 87552, Note_on_c, 3, 74, 93
5, 87648, Note_off_c, 3, 74, 0
5, 87648, Note_on_c, 3, 76, 93
5, 87696, Note_off_c, 3, 76, 0
5, 87696, Note_on_c, 3, 77, 93
5, 87744, Note_off_c, 3, 77, 0
5, 87744, Note_on_c, 3, 79, 93
5, 87840, Note_off_c, 3, 79, 0
5, 87840, Note_on_c, 3, 77, 93
5, 87936, Note_off_c, 3, 77, 0
5, 87936, Note_on_c, 3, 76, 93
5, 88128, Note_off_c, 3, 76, 0
5, 88128, Note_on_c, 3, 81, 93
5, 88224, Note_off_c, 3, 81, 0
5, 88224, Note_on_c, 3, 79, 93
5, 88320, Note_off_c, 3, 79, 0
5, 88320, Note_on_c, 3, 78, 93
5, 88416, Note_off_c, 3, 78, 0
5, 88416, Note_on_c, 3, 79, 93
5, 88464, Note_off_c, 3, 79, 0
5, 88464, Note_on_c, 3, 78, 93
5, 88512, Note_off_c, 3, 78, 0
5, 88512, Note_on_c, 3, 76, 93
5, 88608, Note_off_c, 3, 76, 0
5, 88608, Note_on_c, 3, 78, 93
5, 88704, Note_off_c, 3, 78, 0
5, 88704, Note_on_c, 3, 79, 93
5, 88896, Note_off_c, 3, 79, 0
5, 88896, Note_on_c, 3, 79, 93
5, 88992, Note_off_c, 3, 79, 0
5, 88992, Note_on_c, 3, 77, 93
5, 89088, Note_off_c, 3, 77, 0
5, 89088, Note_on_c, 3, 76, 93
5, 89184, Note_off_c, 3, 76, 0
5, 89184, Note_on_c, 3, 77, 93
5, 89232, Note_off_c, 3, 77, 0
5, 89232, Note_on_c, 3, 76, 93
5, 89280, Note_off_c, 3, 76, 0
5, 89280, Note_on_c, 3, 74, 93
5, 89376, Note_off_c, 3, 74, 0
5, 89376, Note_on_c, 3, 76, 93
5, 89472, Note_off_c, 3, 76, 0
5, 89472, Note_on_c, 3, 77, 93
5, 89568, Note_off_c, 3, 77, 0
5, 89568, Note_on_c, 3, 79, 93
5, 89616, Note_off_c, 3, 79, 0
5, 89616, Note_on_c, 3, 77, 93
5, 89664, Note_off_c, 3, 77, 0
5, 89664, Note_on_c, 3, 76, 93
5, 89760, Note_off_c, 3, 76, 0
5, 89760, Note_on_c, 3, 77, 93
5, 89808, Note_off_c, 3, 77, 0
5, 89808, Note_on_c, 3, 76, 93
5, 89856, Note_off_c, 3, 76, 0
5, 89856, Note_on_c, 3, 74, 93
5, 89952, Note_off_c, 3, 74, 0
5, 89952, Note_on_c, 3, 76, 93
5, 90000, Note_off_c, 3, 76, 0
5, 90000, Note_on_c, 3, 74, 93
5, 90048, Note_off_c, 3, 74, 0
5, 90048, Note_on_c, 3, 72, 93
5, 90336, Note_off_c, 3, 72, 0
5, 90336, Note_on_c, 3, 74, 93
5, 90384, Note_off_c, 3, 74, 0
5, 90384, Note_on_c, 3, 72, 93
5, 90432, Note_off_c, 3, 72, 0
5, 90432, Note_on_c, 3, 71, 93
5, 90528, Note_off_c, 3, 71, 0
5, 90528, Note_on_c, 3, 69, 93
5, 90576, Note_off_c, 3, 69, 0
5, 90576, Note_on_c, 3, 71, 93
5, 90624, Note_off_c, 3, 71, 0
5, 90624, Note_on_c, 3, 72, 93
5, 90720, Note_off_c, 3, 72, 0
5, 90720, Note_on_c, 3, 74, 93
5, 90768, Note_off_c, 3, 74, 0
5, 90768, Note_on_c, 3, 75, 93
5, 90816, Note_off_c, 3, 75, 0
5, 90816, Note_on_c, 3, 77, 93
5, 90912, Note_off_c, 3, 77, 0
5, 90912, Note_on_c, 3, 75, 93
5, 91008, Note_off_c, 3, 75, 0
5, 91008, Note_on_c, 3, 74, 93
5, 91200, Note_off_c, 3, 74, 0
5, 91296, Note_on_c, 3, 74, 93
5, 91392, Note_off_c, 3, 74, 0
5, 91392, Note_on_c, 3, 72, 93
5, 91584, Note_off_c, 3, 72, 0
5, 91680, Note_on_c, 3, 70, 93
5, 91776, Note_off_c, 3, 70, 0
5, 91776, Note_on_c, 3, 69, 93
5, 91872, Note_off_c, 3, 69, 0
5, 91872, Note_on_c, 3, 71, 93
5, 91920, Note_off_c, 3, 71, 0
5, 91920, Note_on_c, 3, 72, 93
5, 91968, Note_off_c, 3, 72, 0
5, 91968, Note_on_c, 3, 71, 93
5, 92064, Note_off_c, 3, 71, 0
5, 92064, Note_on_c, 3, 69, 93
5, 92160, Note_off_c, 3, 69, 0
5, 92160, Note_on_c, 3, 74, 93
5, 92256, Note_off_c, 3, 74, 0
5, 92352, Note_on_c, 3, 72, 93
5, 92448, Note_off_c, 3, 72, 0
5, 92928, Note_on_c, 3, 62, 93
5, 93120, Note_off_c, 3, 62, 0
5, 93504, Note_on_c, 3, 76, 93
5, 93600, Note_off_c, 3, 76, 0
5, 104880, Note_on_c, 3, 69, 93
5, 104928, Note_off_c, 3, 69, 0
5, 104928, Note_on_c, 3, 67, 93
5, 104976, Note_off_c, 3, 67, 0
5, 104976, Note_on_c, 3, 65, 93
5, 105024, Note_off_c, 3, 65, 0
5, 105024, Note_on_c, 3, 64, 93
5, 105072, Note_off_c, 3, 64, 0
5, 105120, Note_on_c, 3, 65, 93
5, 105168, Note_off_c, 3, 65, 0
5, 105216, Note_on_c, 3, 67, 93
5, 105264, Note_off_c, 3, 67, 0
5, 105312, Note_on_c, 3, 65, 93
5, 105360, Note_off_c, 3, 65, 0
5, 105360, Note_on_c, 3, 64, 93
5, 105408, Note_off_c, 3, 64, 0
5, 105408, Note_on_c, 3, 62, 93
5, 105456, Note_off_c, 3, 62, 0
5, 105504, Note_on_c, 3, 64, 93
5, 105552, Note_off_c, 3, 64, 0
5, 105600, Note_on_c, 3, 65, 93
5, 105648, Note_off_c, 3, 65, 0
5, 105696, Note_on_c, 3, 64, 93
5, 105744, Note_off_c, 3, 64, 0
5, 105792, Note_on_c, 3, 65, 93
5, 105840, Note_off_c, 3, 65, 0
5, 105888, Note_on_c, 3, 67, 93
5, 105936, Note_off_c, 3, 67, 0
5, 105936, Note_on_c, 3, 65, 93
5, 105984, Note_off_c, 3, 65, 0
5, 105984, Note_on_c, 3, 64, 93
5, 106032, Note_off_c, 3, 64, 0
5, 106080, Note_on_c, 3, 62, 93
5, 106128, Note_off_c, 3, 62, 0
5, 106176, Note_on_c, 3, 64, 93
5, 106224, Note_off_c, 3, 64, 0
5, 106272, Note_on_c, 3, 66, 93
5, 106368, Note_off_c, 3, 66, 0
5, 106368, Note_on_c, 3, 67, 93
5, 106416, Note_off_c, 3, 67, 0
5, 106464, Note_on_c, 3, 67, 93
5, 106512, Note_off_c, 3, 67, 0
5, 106560, Note_on_c, 3, 65, 93
5, 106608, Note_off_c, 3, 65, 0
5, 106656, Note_on_c, 3, 67, 93
5, 106704, Note_off_c, 3, 67, 0
5, 106752, Note_on_c, 3, 69, 93
5, 106800, Note_off_c, 3, 69, 0
5, 106848, Note_on_c, 3, 69, 93
5, 106896, Note_off_c, 3, 69, 0
5, 106944, Note_on_c, 3, 67, 93
5, 106992, Note_off_c, 3, 67, 0
5, 107040, Note_on_c, 3, 69, 93
5, 107088, Note_off_c, 3, 69, 0
5, 107136, Note_on_c, 3, 71, 93
5, 107184, Note_off_c, 3, 71, 0
5, 107232, Note_on_c, 3, 70, 93
5, 107280, Note_off_c, 3, 70, 0
5, 107328, Note_on_c, 3, 69, 93
5, 107376, Note_off_c, 3, 69, 0
5, 107424, Note_on_c, 3, 71, 93
5, 107472, Note_off_c, 3, 71, 0
5, 107520, Note_on_c, 3, 72, 93
5, 107568, Note_off_c, 3, 72, 0
5, 107616, Note_on_c, 3, 72, 93
5, 107664, Note_off_c, 3, 72, 0
5, 107712, Note_on_c, 3, 71, 93
5, 107760, Note_off_c, 3, 71, 0
5, 107808, Note_on_c, 3, 70, 93
5, 107856, Note_off_c, 3, 70, 0
5, 107904, Note_on_c, 3, 69, 93
5, 107952, Note_off_c, 3, 69, 0
5, 108000, Note_on_c, 3, 71, 93
5, 108096, Note_off_c, 3, 71, 0
5, 108096, Note_on_c, 3, 72, 93
5, 108144, Note_off_c, 3, 72, 0
5, 108192, Note_on_c, 3, 72, 93
5, 108240, Note_off_c, 3, 72, 0
5, 108288, Note_on_c, 3, 71, 93
5, 108336, Note_off_c, 3, 71, 0
5, 108384, Note_on_c, 3, 71, 93
5, 108432, Note_off_c, 3, 71, 0
5, 108480, Note_on_c, 3, 70, 93
5, 108528, Note_off_c, 3, 70, 0
5, 108576, Note_on_c, 3, 70, 93
5, 108624, Note_off_c, 3, 70, 0
5, 108672, Note_on_c, 3, 69, 93
5, 108720, Note_off_c, 3, 69, 0
5, 108768, Note_on_c, 3, 69, 93
5, 108816, Note_off_c, 3, 69, 0
5, 108864, Note_on_c, 3, 68, 93
5, 108912, Note_off_c, 3, 68, 0
5, 108960, Note_on_c, 3, 68, 93
5, 109056, Note_off_c, 3, 68, 0
5, 109056, Note_on_c, 3, 67, 93
5, 109104, Note_off_c, 3, 67, 0
5, 109152, Note_on_c, 3, 65, 93
5, 109200, Note_off_c, 3, 65, 0
5, 109248, Note_on_c, 3, 67, 93
5, 109296, Note_off_c, 3, 67, 0
5, 109344, Note_on_c, 3, 69, 93
5, 109392, Note_off_c, 3, 69, 0
5, 109392, Note_on_c, 3, 67, 93
5, 109440, Note_off_c, 3, 67, 0
5, 109440, Note_on_c, 3, 65, 93
5, 109488, Note_off_c, 3, 65, 0
5, 109536, Note_on_c, 3, 64, 93
5, 109584, Note_off_c, 3, 64, 0
5, 109632, Note_on_c, 3, 65, 93
5, 109680, Note_off_c, 3, 65, 0
5, 109728, Note_on_c, 3, 67, 93
5, 109776, Note_off_c, 3, 67, 0
5, 109776, Note_on_c, 3, 65, 93
5, 109824, Note_off_c, 3, 65, 0
5, 109824, Note_on_c, 3, 64, 93
5, 109872, Note_off_c, 3, 64, 0
5, 109920, Note_on_c, 3, 62, 93
5, 109968, Note_off_c, 3, 62, 0
5, 110016, Note_on_c, 3, 64, 93
5, 110064, Note_off_c, 3, 64, 0
5, 110112, Note_on_c, 3, 67, 93
5, 110160, Note_off_c, 3, 67, 0
5, 110160, Note_on_c, 3, 65, 93
5, 110208, Note_off_c, 3, 65, 0
5, 110208, Note_on_c, 3, 64, 93
5, 110256, Note_off_c, 3, 64, 0
5, 110304, Note_on_c, 3, 62, 93
5, 110352, Note_off_c, 3, 62, 0
5, 110400, Note_on_c, 3, 64, 93
5, 110448, Note_off_c, 3, 64, 0
5, 110496, Note_on_c, 3, 63, 93
5, 110544, Note_off_c, 3, 63, 0
5, 110592, Note_on_c, 3, 62, 93
5, 110784, Note_off_c, 3, 62, 0
5, 114624, Note_on_c, 3, 79, 93
5, 114816, Note_off_c, 3, 79, 0
5, 114816, Note_on_c, 3, 81, 93
5, 114912, Note_off_c, 3, 81, 0
5, 114912, Note_on_c, 3, 79, 93
5, 114960, Note_off_c, 3, 79, 0
5, 114960, Note_on_c, 3, 77, 93
5, 115008, Note_off_c, 3, 77, 0
5, 115008, Note_on_c, 3, 76, 93
5, 115104, Note_off_c, 3, 76, 0
5, 115104, Note_on_c, 3, 78, 93
5, 115200, Note_off_c, 3, 78, 0
5, 115200, Note_on_c, 3, 79, 93
5, 115392, Note_off_c, 3, 79, 0
5, 115392, Note_on_c, 3, 74, 93
5, 115488, Note_off_c, 3, 74, 0
5, 115488, Note_on_c, 3, 76, 93
5, 115584, Note_off_c, 3, 76, 0
5, 115584, Note_on_c, 3, 77, 93
5, 115680, Note_off_c, 3, 77, 0
5, 115680, Note_on_c, 3, 76, 93
5, 115776, Note_off_c, 3, 76, 0
5, 115776, Note_on_c, 3, 77, 93
5, 115872, Note_off_c, 3, 77, 0
5, 115872, Note_on_c, 3, 79, 93
5, 115920, Note_off_c, 3, 79, 0
5, 115920, Note_on_c, 3, 77, 93
5, 115968, Note_off_c, 3, 77, 0
5, 115968, Note_on_c, 3, 76, 93
5, 116064, Note_off_c, 3, 76, 0
5, 116064, Note_on_c, 3, 74, 93
5, 116160, Note_off_c, 3, 74, 0
5, 116160, Note_on_c, 3, 76, 93
5, 116256, Note_off_c, 3, 76, 0
5, 116256, Note_on_c, 3, 77, 93
5, 116352, Note_off_c, 3, 77, 0
5, 116352, Note_on_c, 3, 79, 93
5, 116448, Note_off_c, 3, 79, 0
5, 116448, Note_on_c, 3, 77, 93
5, 116544, Note_off_c, 3, 77, 0
5, 116544, Note_on_c, 3, 79, 93
5, 116640, Note_off_c, 3, 79, 0
5, 116640, Note_on_c, 3, 81, 93
5, 116688, Note_off_c, 3, 81, 0
5, 116688, Note_on_c, 3, 79, 93
5, 116736, Note_off_c, 3, 79, 0
5, 116736, Note_on_c, 3, 77, 93
5, 116832, Note_off_c, 3, 77, 0
5, 116832, Note_on_c, 3, 79, 93
5, 116928, Note_off_c, 3, 79, 0
5, 116928, Note_on_c, 3, 81, 93
5, 117120, Note_off_c, 3, 81, 0
5, 117120, Note_on_c, 3, 80, 93
5, 117312, Note_off_c, 3, 80, 0
5, 117312, Note_on_c, 3, 79, 93
5, 117504, Note_off_c, 3, 79, 0
5, 117504, Note_on_c, 3, 78, 93
5, 117696, Note_off_c, 3, 78, 0
5, 117696, Note_on_c, 3, 77, 93
5, 117888, Note_off_c, 3, 77, 0
5, 117888, Note_on_c, 3, 76, 93
5, 118080, Note_off_c, 3, 76, 0
5, 118080, Note_on_c, 3, 78, 93
5, 118272, Note_off_c, 3, 78, 0
5, 118368, Note_on_c, 3, 79, 93
5, 118416, Note_off_c, 3, 79, 0
5, 118416, Note_on_c, 3, 77, 93
5, 118464, Note_off_c, 3, 77, 0
5, 118464, Note_on_c, 3, 76, 93
5, 118560, Note_off_c, 3, 76, 0
5, 118560, Note_on_c, 3, 74, 93
5, 118656, Note_off_c, 3, 74, 0
5, 118656, Note_on_c, 3, 73, 93
5, 118752, Note_off_c, 3, 73, 0
5, 118752, Note_on_c, 3, 81, 93
5, 118800, Note_off_c, 3, 81, 0
5, 118800, Note_on_c, 3, 79, 93
5, 118848, Note_off_c, 3, 79, 0
5, 118848, Note_on_c, 3, 81, 93
5, 118944, Note_off_c, 3, 81, 0
5, 118944, Note_on_c, 3, 73, 93
5, 119040, Note_off_c, 3, 73, 0
5, 119040, Note_on_c, 3, 74, 93
5, 119136, Note_off_c, 3, 74, 0
5, 119136, Note_on_c, 3, 77, 93
5, 119184, Note_off_c, 3, 77, 0
5, 119184, Note_on_c, 3, 76, 93
5, 119232, Note_off_c, 3, 76, 0
5, 119232, Note_on_c, 3, 74, 93
5, 119328, Note_off_c, 3, 74, 0
5, 119328, Note_on_c, 3, 72, 93
5, 119424, Note_off_c, 3, 72, 0
5, 119424, Note_on_c, 3, 71, 93
5, 119520, Note_off_c, 3, 71, 0
5, 119520, Note_on_c, 3, 79, 93
5, 119568, Note_off_c, 3, 79, 0
5, 119568, Note_on_c, 3, 77, 93
5, 119616, Note_off_c, 3, 77, 0
5, 119616, Note_on_c, 3, 79, 93
5, 119712, Note_off_c, 3, 79, 0
5, 119712, Note_on_c, 3, 71, 93
5, 119808, Note_off_c, 3, 71, 0
5, 119808, Note_on_c, 3, 72, 93
5, 119904, Note_off_c, 3, 72, 0
5, 119904, Note_on_c, 3, 74, 93
5, 120000, Note_off_c, 3, 74, 0
5, 120000, Note_on_c, 3, 76, 93
5, 120192, Note_off_c, 3, 76, 0
5, 120192, Note_on_c, 3, 69, 93
5, 120384, Note_off_c, 3, 69, 0
5, 120384, Note_on_c, 3, 74, 93
5, 120576, Note_off_c, 3, 74, 0
5, 120624, Note_on_c, 3, 67, 93
5, 120672, Note_off_c, 3, 67, 0
5, 120672, Note_on_c, 3, 69, 93
5, 120720, Note_off_c, 3, 69, 0
5, 120720, Note_on_c, 3, 71, 93
5, 120768, Note_off_c, 3, 71, 0
5, 120768, Note_on_c, 3, 72, 93
5, 120960, Note_off_c, 3, 72, 0
5, 127872, Note_on_c, 3, 64, 93
5, 127920, Note_off_c, 3, 64, 0
5, 128064, Note_on_c, 3, 64, 93
5, 128160, Note_off_c, 3, 64, 0
5, 128448, Note_on_c, 3, 67, 93
5, 128544, Note_off_c, 3, 67, 0
5, 128640, Note_on_c, 3, 65, 93
5, 128736, Note_off_c, 3, 65, 0
5, 129024, Note_on_c, 3, 67, 93
5, 129120, Note_off_c, 3, 67, 0
5, 129120, Note_on_c, 3, 67, 93
5, 129168, Note_off_c, 3, 67, 0
5, 129168, Note_on_c, 3, 65, 93
5, 129216, Note_off_c, 3, 65, 0
5, 129216, Note_on_c, 3, 67, 93
5, 129312, Note_off_c, 3, 67, 0
5, 129312, Note_on_c, 3, 69, 93
5, 129360, Note_off_c, 3, 69, 0
5, 129360, Note_on_c, 3, 67, 93
5, 129408, Note_off_c, 3, 67, 0
5, 129408, Note_on_c, 3, 69, 93
5, 129504, Note_off_c, 3, 69, 0
5, 130176, Note_on_c, 3, 62, 93
5, 130272, Note_off_c, 3, 62, 0
5, 130368, Note_on_c, 3, 67, 93
5, 130464, Note_off_c, 3, 67, 0
5, 131328, Note_on_c, 3, 57, 93
5, 131424, Note_off_c, 3, 57, 0
5, 131424, Note_on_c, 3, 62, 93
5, 131472, Note_off_c, 3, 62, 0
5, 131472, Note_on_c, 3, 64, 93
5, 131520, Note_off_c, 3, 64, 0
5, 131520, Note_on_c, 3, 65, 93
5, 131568, Note_off_c, 3, 65, 0
5, 131568, Note_on_c, 3, 67, 93
5, 131616, Note_off_c, 3, 67, 0
5, 131616, Note_on_c, 3, 65, 93
5, 131664, Note_off_c, 3, 65, 0
5, 131664, Note_on_c, 3, 67, 93
5, 131712, Note_off_c, 3, 67, 0
5, 131712, Note_on_c, 3, 69, 93
5, 131808, Note_off_c, 3, 69, 0
5, 131808, Note_on_c, 3, 60, 93
5, 131856, Note_off_c, 3, 60, 0
5, 131856, Note_on_c, 3, 59, 93
5, 131904, Note_off_c, 3, 59, 0
5, 131904, Note_on_c, 3, 60, 93
5, 132000, Note_off_c, 3, 60, 0
5, 132000, Note_on_c, 3, 69, 93
5, 132096, Note_off_c, 3, 69, 0
5, 132096, Note_on_c, 3, 71, 93
5, 132192, Note_off_c, 3, 71, 0
5, 132288, Note_on_c, 3, 71, 93
5, 132480, Note_off_c, 3, 71, 0
5, 132480, Note_on_c, 3, 69, 93
5, 132672, Note_off_c, 3, 69, 0
5, 132672, Note_on_c, 3, 69, 93
5, 132864, Note_off_c, 3, 69, 0
5, 132864, Note_on_c, 3, 74, 93
5, 133056, Note_off_c, 3, 74, 0
5, 133056, Note_on_c, 3, 72, 93
5, 133248, Note_off_c, 3, 72, 0
5, 133248, Note_on_c, 3, 72, 93
5, 133344, Note_off_c, 3, 72, 0
5, 133344, Note_on_c, 3, 74, 93
5, 133392, Note_off_c, 3, 74, 0
5, 133392, Note_on_c, 3, 76, 93
5, 133440, Note_off_c, 3, 76, 0
5, 133440, Note_on_c, 3, 77, 93
5, 133488, Note_off_c, 3, 77, 0
5, 133488, Note_on_c, 3, 79, 93
5, 133536, Note_off_c, 3, 79, 0
5, 133536, Note_on_c, 3, 81, 93
5, 133584, Note_off_c, 3, 81, 0
5, 133584, Note_on_c, 3, 72, 93
5, 133632, Note_off_c, 3, 72, 0
5, 133632, Note_on_c, 3, 71, 93
5, 133680, Note_off_c, 3, 71, 0
5, 133680, Note_on_c, 3, 74, 93
5, 133728, Note_off_c, 3, 74, 0
5, 133728, Note_on_c, 3, 72, 93
5, 133776, Note_off_c, 3, 72, 0
5, 133776, Note_on_c, 3, 71, 93
5, 133824, Note_off_c, 3, 71, 0
5, 133824, Note_on_c, 3, 69, 93
5, 133872, Note_off_c, 3, 69, 0
5, 133872, Note_on_c, 3, 67, 93
5, 133920, Note_off_c, 3, 67, 0
5, 133920, Note_on_c, 3, 65, 93
5, 133968, Note_off_c, 3, 65, 0
5, 133968, Note_on_c, 3, 74, 93
5, 134016, Note_off_c, 3, 74, 0
5, 134016, Note_on_c, 3, 79, 93
5, 134064, Note_off_c, 3, 79, 0
5, 134064, Note_on_c, 3, 71, 93
5, 134112, Note_off_c, 3, 71, 0
5, 134112, Note_on_c, 3, 72, 93
5, 134160, Note_off_c, 3, 72, 0
5, 134160, Note_on_c, 3, 64, 93
5, 134208, Note_off_c, 3, 64, 0
5, 134208, Note_on_c, 3, 62, 93
5, 134256, Note_off_c, 3, 62, 0
5, 134256, Note_on_c, 3, 72, 93
5, 134304, Note_off_c, 3, 72, 0
5, 134304, Note_on_c, 3, 77, 93
5, 134352, Note_off_c, 3, 77, 0
5, 134352, Note_on_c, 3, 71, 93
5, 134400, Note_off_c, 3, 71, 0
5, 134400, Note_on_c, 3, 72, 93
5, 134448, Note_off_c, 3, 72, 0
5, 134448, Note_on_c, 3, 74, 93
5, 134496, Note_off_c, 3, 74, 0
5, 134496, Note_on_c, 3, 75, 93
5, 134544, Note_off_c, 3, 75, 0
5, 134544, Note_on_c, 3, 77, 93
5, 134592, Note_off_c, 3, 77, 0
5, 134592, Note_on_c, 3, 79, 93
5, 134640, Note_off_c, 3, 79, 0
5, 134640, Note_on_c, 3, 81, 93
5, 134688, Note_off_c, 3, 81, 0
5, 134688, Note_on_c, 3, 83, 93
5, 134736, Note_off_c, 3, 83, 0
5, 134736, Note_on_c, 3, 84, 93
5, 134784, Note_off_c, 3, 84, 0
5, 134784, Note_on_c, 3, 78, 93
5, 134832, Note_off_c, 3, 78, 0
5, 134832, Note_on_c, 3, 75, 93
5, 134880, Note_off_c, 3, 75, 0
5, 134880, Note_on_c, 3, 74, 93
5, 134928, Note_off_c, 3, 74, 0
5, 134928, Note_on_c, 3, 72, 93
5, 134976, Note_off_c, 3, 72, 0
5, 134976, Note_on_c, 3, 71, 93
5, 135024, Note_off_c, 3, 71, 0
5, 135024, Note_on_c, 3, 72, 93
5, 135072, Note_off_c, 3, 72, 0
5, 135072, Note_on_c, 3, 66, 93
5, 135120, Note_off_c, 3, 66, 0
5, 135120, Note_on_c, 3, 57, 93
5, 135168, Note_off_c, 3, 57, 0
5, 135168, Note_on_c, 3, 55, 93
5, 135216, Note_off_c, 3, 55, 0
5, 135216, Note_on_c, 3, 60, 93
5, 135264, Note_off_c, 3, 60, 0
5, 135264, Note_on_c, 3, 64, 93
5, 135312, Note_off_c, 3, 64, 0
5, 135312, Note_on_c, 3, 67, 93
5, 135360, Note_off_c, 3, 67, 0
5, 135360, Note_on_c, 3, 72, 93
5, 135408, Note_off_c, 3, 72, 0
5, 135408, Note_on_c, 3, 76, 93
5, 135456, Note_off_c, 3, 76, 0
5, 135456, Note_on_c, 3, 79, 93
5, 135504, Note_off_c, 3, 79, 0
5, 135504, Note_on_c, 3, 76, 93
5, 135552, Note_off_c, 3, 76, 0
5, 135552, Note_on_c, 3, 72, 93
5, 135600, Note_off_c, 3, 72, 0
5, 135600, Note_on_c, 3, 67, 93
5, 135648, Note_off_c, 3, 67, 0
5, 135648, Note_on_c, 3, 64, 93
5, 135696, Note_off_c, 3, 64, 0
5, 135696, Note_on_c, 3, 60, 93
5, 135744, Note_off_c, 3, 60, 0
5, 135744, Note_on_c, 3, 55, 93
5, 135840, Note_off_c, 3, 55, 0
5, 135840, Note_on_c, 3, 65, 93
5, 135936, Note_off_c, 3, 65, 0
5, 135936, Note_on_c, 3, 64, 93
5, 136128, Note_off_c, 3, 64, 0
5, 136128, End_track
0, 0, End_of_file
