0, 0, Header, 1, 5, 96
1, 0, Start_track
1, 0, Time_signature, 4, 2, 24, 8
1, 0, Title_t, "untitled"
1, 0, Title_t, "Track1"
1, 0, Tempo, 521739
1, 28800, Tempo, 521739
1, 28824, Tempo, 530973
1, 28842, Tempo, 530973
1, 28860, Tempo, 535714
1, 28884, Tempo, 545454
1, 28908, Tempo, 550458
1, 28926, Tempo, 555555
1, 28944, Tempo, 560747
1, 28968, Tempo, 566037
1, 28992, Tempo, 571428
1, 29010, Tempo, 576923
1, 29028, Tempo, 576923
1, 29052, Tempo, 582524
1, 29070, Tempo, 588235
1, 29094, Tempo, 594059
1, 29112, Tempo, 600000
1, 29136, Tempo, 612244
1, 29154, Tempo, 618556
1, 29178, Tempo, 625000
1, 29196, Tempo, 625000
1, 29220, Tempo, 638297
1, 29238, Tempo, 645161
1, 29256, Tempo, 645161
1, 29280, Tempo, 659340
1, 29304, Tempo, 666666
1, 29322, Tempo, 674157
1, 29340, Tempo, 674157
1, 29364, Tempo, 681818
1, 29388, Tempo, 689655
1, 29406, Tempo, 697674
1, 29424, Tempo, 705882
1, 29448, Tempo, 722891
1, 29466, Tempo, 731707
1, 29490, Tempo, 731707
1, 29508, Tempo, 750000
1, 29532, Tempo, 750000
1, 29550, Tempo, 769230
1, 29574, Tempo, 779220
1, 29598, Tempo, 1578947
1, 29598, End_track
2, 0, Start_track
2, 0, Title_t, "Track2"
2, 0, Program_c, 0, 40
2, 0, Control_c, 0, 7, 100
2, 0, Control_c, 0, 10, 94
2, 1530, Note_on_c, 0, 69, 93
2, 1722, Note_off_c, 0, 69, 0
2, 1722, Note_on_c, 0, 74, 93
2, 1911, Note_off_c, 0, 74, 0
2, 1911, Note_on_c, 0, 72, 93
2, 2100, Note_off_c, 0, 72, 0
2, 2100, Note_on_c, 0, 69, 93
2, 2289, Note_off_c, 0, 69, 0
2, 2289, Note_on_c, 0, 68, 93
2, 2481, Note_off_c, 0, 68, 0
2, 2481, Note_on_c, 0, 69, 93
2, 2577, Note_off_c, 0, 69, 0
2, 2577, Note_on_c, 0, 71, 93
2, 2673, Note_off_c, 0, 71, 0
2, 2673, Note_on_c, 0, 72, 93
2, 2913, Note_off_c, 0, 72, 0
2, 2913, Note_on_c, 0, 74, 93
2, 2958, Note_off_c, 0, 74, 0
2, 2958, Note_on_c, 0, 72, 93
2, 3006, Note_off_c, 0, 72, 0
2, 3006, Note_on_c, 0, 70, 93
2, 3054, Note_off_c, 0, 70, 0
2, 3054, Note_on_c, 0, 69, 93
2, 3099, Note_off_c, 0, 69, 0
2, 3099, Note_on_c, 0, 62, 93
2, 3147, Note_off_c, 0, 62, 0
2, 3147, Note_on_c, 0, 74, 93
2, 3336, Note_off_c, 0, 74, 0
2, 3336, Note_on_c, 0, 73, 93
2, 3432, Note_off_c, 0, 73, 0
2, 3432, Note_on_c, 0, 74, 93
2, 3480, Note_off_c, 0, 74, 0
2, 3480, Note_on_c, 0, 69, 93
2, 3525, Note_off_c, 0, 69, 0
2, 3525, Note_on_c, 0, 72, 93
2, 3669, Note_off_c, 0, 72, 0
2, 3669, Note_on_c, 0, 69, 93
2, 3717, Note_off_c, 0, 69, 0
2, 3717, Note_on_c, 0, 70, 93
2, 3858, Note_off_c, 0, 70, 0
2, 3858, Note_on_c, 0, 64, 93
2, 3906, Note_off_c, 0, 64, 0
2, 3906, Note_on_c, 0, 69, 93
2, 4188, Note_off_c, 0, 69, 0
2, 4188, Note_on_c, 0, 69, 93
2, 4236, Note_off_c, 0, 69, 0
2, 4236, Note_on_c, 0, 72, 93
2, 4332, Note_off_c, 0, 72, 0
2, 4332, Note_on_c, 0, 71, 93
2, 4380, Note_off_c, 0, 71, 0
2, 4380, Note_on_c, 0, 72, 93
2, 4614, Note_off_c, 0, 72, 0
2, 4614, Note_on_c, 0, 62, 93
2, 4662, Note_off_c, 0, 62, 0
2, 4662, Note_on_c, 0, 72, 93
2, 4806, Note_off_c, 0, 72, 0
2, 4806, Note_on_c, 0, 69, 93
2, 4851, Note_off_c, 0, 69, 0
2, 4851, Note_on_c, 0, 71, 93
2, 5043, Note_off_c, 0, 71, 0
2, 5043, Note_on_c, 0, 69, 93
2, 5088, Note_off_c, 0, 69, 0
2, 5088, Note_on_c, 0, 68, 93
2, 5136, Note_off_c, 0, 68, 0
2, 5136, Note_on_c, 0, 69, 93
2, 5325, Note_off_c, 0, 69, 0
2, 5325, Note_on_c, 0, 71, 93
2, 5514, Note_off_c, 0, 71, 0
2, 5514, Note_on_c, 0, 72, 93
2, 5610, Note_off_c, 0, 72, 0
2, 5610, Note_on_c, 0, 74, 93
2, 5706, Note_off_c, 0, 74, 0
2, 5706, Note_on_c, 0, 67, 93
2, 5751, Note_off_c, 0, 67, 0
2, 5751, Note_on_c, 0, 70, 93
2, 5799, Note_off_c, 0, 70, 0
2, 5799, Note_on_c, 0, 69, 93
2, 5940, Note_off_c, 0, 69, 0
2, 5940, Note_on_c, 0, 70, 93
2, 5988, Note_off_c, 0, 70, 0
2, 5988, Note_on_c, 0, 69, 93
2, 6036, Note_off_c, 0, 69, 0
2, 6036, Note_on_c, 0, 67, 93
2, 6132, Note_off_c, 0, 67, 0
2, 6132, Note_on_c, 0, 64, 93
2, 6177, Note_off_c, 0, 64, 0
2, 6177, Note_on_c, 0, 65, 93
2, 6225, Note_off_c, 0, 65, 0
2, 6225, Note_on_c, 0, 62, 93
2, 6270, Note_off_c, 0, 62, 0
2, 6270, Note_on_c, 0, 70, 93
2, 6510, Note_off_c, 0, 70, 0
2, 6510, Note_on_c, 0, 67, 93
2, 6558, Note_off_c, 0, 67, 0
2, 6558, Note_on_c, 0, 69, 93
2, 6654, Note_off_c, 0, 69, 0
2, 6654, Note_on_c, 0, 74, 93
2, 6894, Note_off_c, 0, 74, 0
2, 6894, Note_on_c, 0, 71, 93
2, 6939, Note_off_c, 0, 71, 0
2, 6939, Note_on_c, 0, 72, 93
2, 7035, Note_off_c, 0, 72, 0
2, 7035, Note_on_c, 0, 77, 93
2, 7269, Note_off_c, 0, 77, 0
2, 7269, Note_on_c, 0, 74, 93
2, 7317, Note_off_c, 0, 74, 0
2, 7317, Note_on_c, 0, 76, 93
2, 7413, Note_off_c, 0, 76, 0
2, 7413, Note_on_c, 0, 69, 93
2, 7509, Note_off_c, 0, 69, 0
2, 7509, Note_on_c, 0, 74, 93
2, 7653, Note_off_c, 0, 74, 0
2, 7653, Note_on_c, 0, 71, 93
2, 7701, Note_off_c, 0, 71, 0
2, 7701, Note_on_c, 0, 72, 93
2, 7797, Note_off_c, 0, 72, 0
2, 7797, Note_on_c, 0, 65, 93
2, 7893, Note_off_c, 0, 65, 0
2, 7893, Note_on_c, 0, 70, 93
2, 7989, Note_off_c, 0, 70, 0
2, 7989, Note_on_c, 0, 69, 93
2, 8178, Note_off_c, 0, 69, 0
2, 8178, Note_on_c, 0, 62, 93
2, 8274, Note_off_c, 0, 62, 0
2, 8274, Note_on_c, 0, 67, 93
2, 8418, Note_off_c, 0, 67, 0
2, 8418, Note_on_c, 0, 64, 93
2, 8466, Note_off_c, 0, 64, 0
2, 8466, Note_on_c, 0, 65, 93
2, 8511, Note_off_c, 0, 65, 0
2, 8511, Note_on_c, 0, 74, 93
2, 8559, Note_off_c, 0, 74, 0
2, 8559, Note_on_c, 0, 64, 93
2, 8799, Note_off_c, 0, 64, 0
2, 8799, Note_on_c, 0, 62, 93
2, 8844, Note_off_c, 0, 62, 0
2, 8844, Note_on_c, 0, 69, 93
2, 9036, Note_off_c, 0, 69, 0
2, 9036, Note_on_c, 0, 67, 93
2, 9132, Note_off_c, 0, 67, 0
2, 9132, Note_on_c, 0, 69, 93
2, 9321, Note_off_c, 0, 69, 0
2, 10665, Note_on_c, 0, 69, 93
2, 10854, Note_off_c, 0, 69, 0
2, 10854, Note_on_c, 0, 76, 93
2, 11046, Note_off_c, 0, 76, 0
2, 11046, Note_on_c, 0, 72, 93
2, 11235, Note_off_c, 0, 72, 0
2, 11235, Note_on_c, 0, 69, 93
2, 11424, Note_off_c, 0, 69, 0
2, 11424, Note_on_c, 0, 68, 93
2, 11613, Note_off_c, 0, 68, 0
2, 11613, Note_on_c, 0, 69, 93
2, 11709, Note_off_c, 0, 69, 0
2, 11709, Note_on_c, 0, 71, 93
2, 11805, Note_off_c, 0, 71, 0
2, 11805, Note_on_c, 0, 72, 93
2, 12045, Note_off_c, 0, 72, 0
2, 12045, Note_on_c, 0, 74, 93
2, 12090, Note_off_c, 0, 74, 0
2, 12090, Note_on_c, 0, 72, 93
2, 12138, Note_off_c, 0, 72, 0
2, 12138, Note_on_c, 0, 70, 93
2, 12183, Note_off_c, 0, 70, 0
2, 12183, Note_on_c, 0, 69, 93
2, 12279, Note_off_c, 0, 69, 0
2, 12471, Note_on_c, 0, 69, 93
2, 12612, Note_off_c, 0, 69, 0
2, 12612, Note_on_c, 0, 72, 93
2, 12660, Note_off_c, 0, 72, 0
2, 12660, Note_on_c, 0, 70, 93
2, 12708, Note_off_c, 0, 70, 0
2, 12708, Note_on_c, 0, 69, 93
2, 12753, Note_off_c, 0, 69, 0
2, 12753, Note_on_c, 0, 70, 93
2, 12801, Note_off_c, 0, 70, 0
2, 12801, Note_on_c, 0, 69, 93
2, 12846, Note_off_c, 0, 69, 0
2, 12846, Note_on_c, 0, 67, 93
2, 12894, Note_off_c, 0, 67, 0
2, 12894, Note_on_c, 0, 66, 93
2, 12939, Note_off_c, 0, 66, 0
2, 12939, Note_on_c, 0, 67, 93
2, 13083, Note_off_c, 0, 67, 0
2, 13083, Note_on_c, 0, 70, 93
2, 13131, Note_off_c, 0, 70, 0
2, 13131, Note_on_c, 0, 64, 93
2, 13272, Note_off_c, 0, 64, 0
2, 13272, Note_on_c, 0, 66, 93
2, 13320, Note_off_c, 0, 66, 0
2, 13320, Note_on_c, 0, 67, 93
2, 13464, Note_off_c, 0, 67, 0
2, 13464, Note_on_c, 0, 64, 93
2, 13509, Note_off_c, 0, 64, 0
2, 13509, Note_on_c, 0, 61, 93
2, 13653, Note_off_c, 0, 61, 0
2, 13653, Note_on_c, 0, 69, 93
2, 13701, Note_off_c, 0, 69, 0
2, 13701, Note_on_c, 0, 62, 93
2, 13842, Note_off_c, 0, 62, 0
2, 13842, Note_on_c, 0, 65, 93
2, 13890, Note_off_c, 0, 65, 0
2, 13890, Note_on_c, 0, 64, 93
2, 14034, Note_off_c, 0, 64, 0
2, 14034, Note_on_c, 0, 72, 93
2, 14079, Note_off_c, 0, 72, 0
2, 14079, Note_on_c, 0, 65, 93
2, 14223, Note_off_c, 0, 65, 0
2, 14223, Note_on_c, 0, 69, 93
2, 14268, Note_off_c, 0, 69, 0
2, 14268, Note_on_c, 0, 67, 93
2, 14412, Note_off_c, 0, 67, 0
2, 14412, Note_on_c, 0, 76, 93
2, 14460, Note_off_c, 0, 76, 0
2, 14460, Note_on_c, 0, 69, 93
2, 14601, Note_off_c, 0, 69, 0
2, 14601, Note_on_c, 0, 72, 93
2, 14649, Note_off_c, 0, 72, 0
2, 14649, Note_on_c, 0, 71, 93
2, 14793, Note_off_c, 0, 71, 0
2, 14793, Note_on_c, 0, 79, 93
2, 14838, Note_off_c, 0, 79, 0
2, 14838, Note_on_c, 0, 73, 93
2, 15030, Note_off_c, 0, 73, 0
2, 15030, Note_on_c, 0, 74, 93
2, 15126, Note_off_c, 0, 74, 0
2, 15126, Note_on_c, 0, 76, 93
2, 15267, Note_off_c, 0, 76, 0
2, 15267, Note_on_c, 0, 73, 93
2, 15315, Note_off_c, 0, 73, 0
2, 15315, Note_on_c, 0, 74, 93
2, 15555, Note_off_c, 0, 74, 0
2, 15555, Note_on_c, 0, 76, 93
2, 15600, Note_off_c, 0, 76, 0
2, 15600, Note_on_c, 0, 77, 93
2, 15648, Note_off_c, 0, 77, 0
2, 15648, Note_on_c, 0, 76, 93
2, 15696, Note_off_c, 0, 76, 0
2, 15696, Note_on_c, 0, 79, 93
2, 15837, Note_off_c, 0, 79, 0
2, 15837, Note_on_c, 0, 77, 93
2, 15885, Note_off_c, 0, 77, 0
2, 15885, Note_on_c, 0, 76, 93
2, 15930, Note_off_c, 0, 76, 0
2, 15930, Note_on_c, 0, 74, 93
2, 15978, Note_off_c, 0, 74, 0
2, 15978, Note_on_c, 0, 73, 93
2, 16026, Note_off_c, 0, 73, 0
2, 16026, Note_on_c, 0, 69, 93
2, 16071, Note_off_c, 0, 69, 0
2, 16071, Note_on_c, 0, 74, 93
2, 16215, Note_off_c, 0, 74, 0
2, 16215, Note_on_c, 0, 71, 93
2, 16260, Note_off_c, 0, 71, 0
2, 16260, Note_on_c, 0, 72, 93
2, 16356, Note_off_c, 0, 72, 0
2, 16356, Note_on_c, 0, 72, 93
2, 16452, Note_off_c, 0, 72, 0
2, 16452, Note_on_c, 0, 70, 93
2, 16548, Note_off_c, 0, 70, 0
2, 16548, Note_on_c, 0, 69, 93
2, 16644, Note_off_c, 0, 69, 0
2, 18270, Note_on_c, 0, 76, 93
2, 18462, Note_off_c, 0, 76, 0
2, 18462, Note_on_c, 0, 81, 93
2, 18651, Note_off_c, 0, 81, 0
2, 18651, Note_on_c, 0, 77, 93
2, 18840, Note_off_c, 0, 77, 0
2, 18840, Note_on_c, 0, 74, 93
2, 19032, Note_off_c, 0, 74, 0
2, 19032, Note_on_c, 0, 73, 93
2, 19221, Note_off_c, 0, 73, 0
2, 19221, Note_on_c, 0, 74, 93
2, 19317, Note_off_c, 0, 74, 0
2, 19317, Note_on_c, 0, 76, 93
2, 19413, Note_off_c, 0, 76, 0
2, 19413, Note_on_c, 0, 77, 93
2, 19653, Note_off_c, 0, 77, 0
2, 19653, Note_on_c, 0, 79, 93
2, 19701, Note_off_c, 0, 79, 0
2, 19701, Note_on_c, 0, 77, 93
2, 19746, Note_off_c, 0, 77, 0
2, 19746, Note_on_c, 0, 76, 93
2, 19794, Note_off_c, 0, 76, 0
2, 19794, Note_on_c, 0, 74, 93
2, 19935, Note_off_c, 0, 74, 0
2, 19935, Note_on_c, 0, 76, 93
2, 19983, Note_off_c, 0, 76, 0
2, 19983, Note_on_c, 0, 73, 93
2, 20079, Note_off_c, 0, 73, 0
2, 20079, Note_on_c, 0, 74, 93
2, 20127, Note_off_c, 0, 74, 0
2, 20127, Note_on_c, 0, 77, 93
2, 20172, Note_off_c, 0, 77, 0
2, 20172, Note_on_c, 0, 70, 93
2, 20412, Note_off_c, 0, 70, 0
2, 20412, Note_on_c, 0, 70, 93
2, 20460, Note_off_c, 0, 70, 0
2, 20460, Note_on_c, 0, 69, 93
2, 20505, Note_off_c, 0, 69, 0
2, 20505, Note_on_c, 0, 67, 93
2, 20553, Note_off_c, 0, 67, 0
2, 20553, Note_on_c, 0, 65, 93
2, 20742, Note_off_c, 0, 65, 0
2, 20742, Note_on_c, 0, 70, 93
2, 20931, Note_off_c, 0, 70, 0
2, 20931, Note_on_c, 0, 69, 93
2, 21219, Note_off_c, 0, 69, 0
2, 21219, Note_on_c, 0, 76, 93
2, 21363, Note_off_c, 0, 76, 0
2, 21363, Note_on_c, 0, 73, 93
2, 21408, Note_off_c, 0, 73, 0
2, 21408, Note_on_c, 0, 74, 93
2, 21456, Note_off_c, 0, 74, 0
2, 21456, Note_on_c, 0, 76, 93
2, 21501, Note_off_c, 0, 76, 0
2, 21501, Note_on_c, 0, 77, 93
2, 21549, Note_off_c, 0, 77, 0
2, 21549, Note_on_c, 0, 74, 93
2, 21594, Note_off_c, 0, 74, 0
2, 21594, Note_on_c, 0, 79, 93
2, 21738, Note_off_c, 0, 79, 0
2, 21738, Note_on_c, 0, 76, 93
2, 21786, Note_off_c, 0, 76, 0
2, 21786, Note_on_c, 0, 81, 93
2, 21831, Note_off_c, 0, 81, 0
2, 21831, Note_on_c, 0, 79, 93
2, 21879, Note_off_c, 0, 79, 0
2, 21879, Note_on_c, 0, 77, 93
2, 21924, Note_off_c, 0, 77, 0
2, 21924, Note_on_c, 0, 76, 93
2, 21972, Note_off_c, 0, 76, 0
2, 21972, Note_on_c, 0, 74, 93
2, 22020, Note_off_c, 0, 74, 0
2, 22020, Note_on_c, 0, 73, 93
2, 22065, Note_off_c, 0, 73, 0
2, 22065, Note_on_c, 0, 74, 93
2, 22113, Note_off_c, 0, 74, 0
2, 22113, Note_on_c, 0, 72, 93
2, 22158, Note_off_c, 0, 72, 0
2, 22158, Note_on_c, 0, 70, 93
2, 22206, Note_off_c, 0, 70, 0
2, 22206, Note_on_c, 0, 69, 93
2, 22251, Note_off_c, 0, 69, 0
2, 22251, Note_on_c, 0, 67, 93
2, 22491, Note_off_c, 0, 67, 0
2, 22491, Note_on_c, 0, 64, 93
2, 22539, Note_off_c, 0, 64, 0
2, 22539, Note_on_c, 0, 65, 93
2, 22584, Note_off_c, 0, 65, 0
2, 22584, Note_on_c, 0, 62, 93
2, 22632, Note_off_c, 0, 62, 0
2, 22632, Note_on_c, 0, 69, 93
2, 22872, Note_off_c, 0, 69, 0
2, 22872, Note_on_c, 0, 66, 93
2, 22917, Note_off_c, 0, 66, 0
2, 22917, Note_on_c, 0, 67, 93
2, 22965, Note_off_c, 0, 67, 0
2, 22965, Note_on_c, 0, 70, 93
2, 23013, Note_off_c, 0, 70, 0
2, 23013, Note_on_c, 0, 72, 93
2, 23247, Note_off_c, 0, 72, 0
2, 23247, Note_on_c, 0, 69, 93
2, 23295, Note_off_c, 0, 69, 0
2, 23295, Note_on_c, 0, 70, 93
2, 23343, Note_off_c, 0, 70, 0
2, 23343, Note_on_c, 0, 74, 93
2, 23388, Note_off_c, 0, 74, 0
2, 23388, Note_on_c, 0, 75, 93
2, 23484, Note_off_c, 0, 75, 0
2, 23484, Note_on_c, 0, 74, 93
2, 23580, Note_off_c, 0, 74, 0
2, 23580, Note_on_c, 0, 73, 93
2, 23676, Note_off_c, 0, 73, 0
2, 23676, Note_on_c, 0, 81, 93
2, 23817, Note_off_c, 0, 81, 0
2, 23817, Note_on_c, 0, 74, 93
2, 23865, Note_off_c, 0, 74, 0
2, 23865, Note_on_c, 0, 79, 93
2, 24009, Note_off_c, 0, 79, 0
2, 24009, Note_on_c, 0, 73, 93
2, 24054, Note_off_c, 0, 73, 0
2, 24054, Note_on_c, 0, 77, 93
2, 24198, Note_off_c, 0, 77, 0
2, 24198, Note_on_c, 0, 74, 93
2, 24243, Note_off_c, 0, 74, 0
2, 24243, Note_on_c, 0, 76, 93
2, 24387, Note_off_c, 0, 76, 0
2, 24387, Note_on_c, 0, 73, 93
2, 24435, Note_off_c, 0, 73, 0
2, 24435, Note_on_c, 0, 74, 93
2, 24576, Note_off_c, 0, 74, 0
2, 24576, Note_on_c, 0, 71, 93
2, 24624, Note_off_c, 0, 71, 0
2, 24624, Note_on_c, 0, 72, 93
2, 24813, Note_off_c, 0, 72, 0
2, 24813, Note_on_c, 0, 70, 93
2, 24909, Note_off_c, 0, 70, 0
2, 24909, Note_on_c, 0, 69, 93
2, 25053, Note_off_c, 0, 69, 0
2, 25053, Note_on_c, 0, 69, 93
2, 25101, Note_off_c, 0, 69, 0
2, 25101, Note_on_c, 0, 74, 93
2, 25146, Note_off_c, 0, 74, 0
2, 25146, Note_on_c, 0, 77, 93
2, 25194, Note_off_c, 0, 77, 0
2, 25194, Note_on_c, 0, 76, 93
2, 25239, Note_off_c, 0, 76, 0
2, 25239, Note_on_c, 0, 79, 93
2, 25287, Note_off_c, 0, 79, 0
2, 25287, Note_on_c, 0, 77, 93
2, 25335, Note_off_c, 0, 77, 0
2, 25335, Note_on_c, 0, 76, 93
2, 25380, Note_off_c, 0, 76, 0
2, 25380, Note_on_c, 0, 74, 93
2, 25524, Note_off_c, 0, 74, 0
2, 25524, Note_on_c, 0, 77, 93
2, 25620, Note_off_c, 0, 77, 0
2, 25620, Note_on_c, 0, 76, 93
2, 25668, Note_off_c, 0, 76, 0
2, 25668, Note_on_c, 0, 77, 93
2, 25713, Note_off_c, 0, 77, 0
2, 25713, Note_on_c, 0, 74, 93
2, 25761, Note_off_c, 0, 74, 0
2, 25761, Note_on_c, 0, 76, 93
2, 25902, Note_off_c, 0, 76, 0
2, 25902, Note_on_c, 0, 74, 93
2, 25950, Note_off_c, 0, 74, 0
2, 25950, Note_on_c, 0, 72, 93
2, 25998, Note_off_c, 0, 72, 0
2, 25998, Note_on_c, 0, 71, 93
2, 26043, Note_off_c, 0, 71, 0
2, 26043, Note_on_c, 0, 72, 93
2, 26187, Note_off_c, 0, 72, 0
2, 26187, Note_on_c, 0, 81, 93
2, 26232, Note_off_c, 0, 81, 0
2, 26232, Note_on_c, 0, 79, 93
2, 26280, Note_off_c, 0, 79, 0
2, 26280, Note_on_c, 0, 78, 93
2, 26328, Note_off_c, 0, 78, 0
2, 26328, Note_on_c, 0, 79, 93
2, 26373, Note_off_c, 0, 79, 0
2, 26373, Note_on_c, 0, 82, 93
2, 26421, Note_off_c, 0, 82, 0
2, 26421, Note_on_c, 0, 73, 93
2, 26517, Note_off_c, 0, 73, 0
2, 26799, Note_on_c, 0, 74, 93
2, 26895, Note_off_c, 0, 74, 0
2, 27183, Note_on_c, 0, 74, 93
2, 27612, Note_off_c, 0, 74, 0
2, 27612, Note_on_c, 0, 71, 93
2, 27660, Note_off_c, 0, 71, 0
2, 27660, Note_on_c, 0, 73, 93
2, 27756, Note_off_c, 0, 73, 0
2, 27756, Note_on_c, 0, 74, 93
2, 27897, Note_off_c, 0, 74, 0
2, 27897, Note_on_c, 0, 72, 93
2, 27945, Note_off_c, 0, 72, 0
2, 27945, Note_on_c, 0, 70, 93
2, 28089, Note_off_c, 0, 70, 0
2, 28089, Note_on_c, 0, 69, 93
2, 28134, Note_off_c, 0, 69, 0
2, 28134, Note_on_c, 0, 62, 93
2, 28326, Note_off_c, 0, 62, 0
2, 28371, Note_on_c, 0, 67, 93
2, 28419, Note_off_c, 0, 67, 0
2, 28419, Note_on_c, 0, 69, 93
2, 28464, Note_off_c, 0, 69, 0
2, 28464, Note_on_c, 0, 72, 93
2, 28560, Note_off_c, 0, 72, 0
2, 28560, Note_on_c, 0, 70, 93
2, 28608, Note_off_c, 0, 70, 0
2, 28608, Note_on_c, 0, 72, 93
2, 28656, Note_off_c, 0, 72, 0
2, 28656, Note_on_c, 0, 75, 93
2, 28752, Note_off_c, 0, 75, 0
2, 28752, Note_on_c, 0, 74, 93
2, 28797, Note_off_c, 0, 74, 0
2, 28797, Note_on_c, 0, 78, 93
2, 28845, Note_off_c, 0, 78, 0
2, 28845, Note_on_c, 0, 81, 93
2, 28941, Note_off_c, 0, 81, 0
2, 28941, Note_on_c, 0, 79, 93
2, 28959, Note_off_c, 0, 79, 0
2, 28959, Note_on_c, 0, 81, 93
2, 28983, Note_off_c, 0, 81, 0
2, 28983, Note_on_c, 0, 82, 93
2, 29028, Note_off_c, 0, 82, 0
2, 29028, Note_on_c, 0, 73, 93
2, 29076, Note_off_c, 0, 73, 0
2, 29076, Note_on_c, 0, 74, 93
2, 29652, Note_off_c, 0, 74, 0
2, 29652, End_track
3, 0, Start_track
3, 0, Title_t, "Track3"
3, 0, Program_c, 1, 40
3, 0, Control_c, 1, 7, 100
3, 0, Control_c, 1, 10, 74
3, 0, Note_on_c, 1, 62, 93
3, 189, Note_off_c, 1, 62, 0
3, 189, Note_on_c, 1, 69, 93
3, 381, Note_off_c, 1, 69, 0
3, 381, Note_on_c, 1, 65, 93
3, 570, Note_off_c, 1, 65, 0
3, 570, Note_on_c, 1, 62, 93
3, 759, Note_off_c, 1, 62, 0
3, 759, Note_on_c, 1, 61, 93
3, 948, Note_off_c, 1, 61, 0
3, 948, Note_on_c, 1, 62, 93
3, 1044, Note_off_c, 1, 62, 0
3, 1044, Note_on_c, 1, 64, 93
3, 1140, Note_off_c, 1, 64, 0
3, 1140, Note_on_c, 1, 65, 93
3, 1380, Note_off_c, 1, 65, 0
3, 1380, Note_on_c, 1, 67, 93
3, 1425, Note_off_c, 1, 67, 0
3, 1425, Note_on_c, 1, 65, 93
3, 1473, Note_off_c, 1, 65, 0
3, 1473, Note_on_c, 1, 64, 93
3, 1518, Note_off_c, 1, 64, 0
3, 1518, Note_on_c, 1, 62, 93
3, 1614, Note_off_c, 1, 62, 0
3, 1614, Note_on_c, 1, 64, 93
3, 1710, Note_off_c, 1, 64, 0
3, 1710, Note_on_c, 1, 65, 93
3, 1806, Note_off_c, 1, 65, 0
3, 1806, Note_on_c, 1, 67, 93
3, 1902, Note_off_c, 1, 67, 0
3, 1902, Note_on_c, 1, 69, 93
3, 1998, Note_off_c, 1, 69, 0
3, 1998, Note_on_c, 1, 57, 93
3, 2046, Note_off_c, 1, 57, 0
3, 2046, Note_on_c, 1, 59, 93
3, 2091, Note_off_c, 1, 59, 0
3, 2091, Note_on_c, 1, 60, 93
3, 2139, Note_off_c, 1, 60, 0
3, 2139, Note_on_c, 1, 57, 93
3, 2184, Note_off_c, 1, 57, 0
3, 2184, Note_on_c, 1, 65, 93
3, 2328, Note_off_c, 1, 65, 0
3, 2328, Note_on_c, 1, 59, 93
3, 2376, Note_off_c, 1, 59, 0
3, 2376, Note_on_c, 1, 64, 93
3, 2517, Note_off_c, 1, 64, 0
3, 2517, Note_on_c, 1, 65, 93
3, 2565, Note_off_c, 1, 65, 0
3, 2565, Note_on_c, 1, 64, 93
3, 2610, Note_off_c, 1, 64, 0
3, 2610, Note_on_c, 1, 62, 93
3, 2658, Note_off_c, 1, 62, 0
3, 2658, Note_on_c, 1, 64, 93
3, 2754, Note_off_c, 1, 64, 0
3, 2754, Note_on_c, 1, 66, 93
3, 2850, Note_off_c, 1, 66, 0
3, 2850, Note_on_c, 1, 67, 93
3, 3138, Note_off_c, 1, 67, 0
3, 3138, Note_on_c, 1, 65, 93
3, 3234, Note_off_c, 1, 65, 0
3, 3234, Note_on_c, 1, 64, 93
3, 3423, Note_off_c, 1, 64, 0
3, 3423, Note_on_c, 1, 62, 93
3, 3567, Note_off_c, 1, 62, 0
3, 3567, Note_on_c, 1, 64, 93
3, 3612, Note_off_c, 1, 64, 0
3, 3612, Note_on_c, 1, 65, 93
3, 3756, Note_off_c, 1, 65, 0
3, 3756, Note_on_c, 1, 62, 93
3, 3804, Note_off_c, 1, 62, 0
3, 3804, Note_on_c, 1, 67, 93
3, 3945, Note_off_c, 1, 67, 0
3, 3945, Note_on_c, 1, 67, 93
3, 3993, Note_off_c, 1, 67, 0
3, 3993, Note_on_c, 1, 65, 93
3, 4041, Note_off_c, 1, 65, 0
3, 4041, Note_on_c, 1, 64, 93
3, 4086, Note_off_c, 1, 64, 0
3, 4086, Note_on_c, 1, 62, 93
3, 4134, Note_off_c, 1, 62, 0
3, 4134, Note_on_c, 1, 61, 93
3, 4179, Note_off_c, 1, 61, 0
3, 4179, Note_on_c, 1, 62, 93
3, 4275, Note_off_c, 1, 62, 0
3, 4275, Note_on_c, 1, 67, 93
3, 4467, Note_off_c, 1, 67, 0
3, 4467, Note_on_c, 1, 60, 93
3, 4563, Note_off_c, 1, 60, 0
3, 4563, Note_on_c, 1, 65, 93
3, 4707, Note_off_c, 1, 65, 0
3, 4707, Note_on_c, 1, 64, 93
3, 4752, Note_off_c, 1, 64, 0
3, 4752, Note_on_c, 1, 65, 93
3, 4896, Note_off_c, 1, 65, 0
3, 4896, Note_on_c, 1, 56, 93
3, 4941, Note_off_c, 1, 56, 0
3, 4941, Note_on_c, 1, 64, 93
3, 5229, Note_off_c, 1, 64, 0
3, 5229, Note_on_c, 1, 62, 93
3, 5274, Note_off_c, 1, 62, 0
3, 5274, Note_on_c, 1, 60, 93
3, 5322, Note_off_c, 1, 60, 0
3, 5322, Note_on_c, 1, 62, 93
3, 5370, Note_off_c, 1, 62, 0
3, 5370, Note_on_c, 1, 65, 93
3, 5415, Note_off_c, 1, 65, 0
3, 5415, Note_on_c, 1, 64, 93
3, 5463, Note_off_c, 1, 64, 0
3, 5463, Note_on_c, 1, 62, 93
3, 5508, Note_off_c, 1, 62, 0
3, 5508, Note_on_c, 1, 60, 93
3, 5604, Note_off_c, 1, 60, 0
3, 8388, Note_on_c, 1, 62, 93
3, 8577, Note_off_c, 1, 62, 0
3, 8577, Note_on_c, 1, 69, 93
3, 8766, Note_off_c, 1, 69, 0
3, 8766, Note_on_c, 1, 65, 93
3, 8955, Note_off_c, 1, 65, 0
3, 8955, Note_on_c, 1, 62, 93
3, 9147, Note_off_c, 1, 62, 0
3, 9147, Note_on_c, 1, 61, 93
3, 9336, Note_off_c, 1, 61, 0
3, 9336, Note_on_c, 1, 62, 93
3, 9432, Note_off_c, 1, 62, 0
3, 9432, Note_on_c, 1, 64, 93
3, 9528, Note_off_c, 1, 64, 0
3, 9528, Note_on_c, 1, 65, 93
3, 9768, Note_off_c, 1, 65, 0
3, 9768, Note_on_c, 1, 67, 93
3, 9816, Note_off_c, 1, 67, 0
3, 9816, Note_on_c, 1, 65, 93
3, 9861, Note_off_c, 1, 65, 0
3, 9861, Note_on_c, 1, 64, 93
3, 9909, Note_off_c, 1, 64, 0
3, 9909, Note_on_c, 1, 62, 93
3, 10005, Note_off_c, 1, 62, 0
3, 10005, Note_on_c, 1, 67, 93
3, 10149, Note_off_c, 1, 67, 0
3, 10149, Note_on_c, 1, 64, 93
3, 10194, Note_off_c, 1, 64, 0
3, 10194, Note_on_c, 1, 65, 93
3, 10290, Note_off_c, 1, 65, 0
3, 10290, Note_on_c, 1, 64, 93
3, 10386, Note_off_c, 1, 64, 0
3, 10386, Note_on_c, 1, 69, 93
3, 10527, Note_off_c, 1, 69, 0
3, 10527, Note_on_c, 1, 66, 93
3, 10575, Note_off_c, 1, 66, 0
3, 10575, Note_on_c, 1, 67, 93
3, 10671, Note_off_c, 1, 67, 0
3, 10671, Note_on_c, 1, 66, 93
3, 10815, Note_off_c, 1, 66, 0
3, 10815, Note_on_c, 1, 74, 93
3, 10860, Note_off_c, 1, 74, 0
3, 10860, Note_on_c, 1, 68, 93
3, 11052, Note_off_c, 1, 68, 0
3, 11052, Note_on_c, 1, 69, 93
3, 11148, Note_off_c, 1, 69, 0
3, 11193, Note_on_c, 1, 57, 93
3, 11241, Note_off_c, 1, 57, 0
3, 11241, Note_on_c, 1, 60, 93
3, 11337, Note_off_c, 1, 60, 0
3, 11337, Note_on_c, 1, 57, 93
3, 11433, Note_off_c, 1, 57, 0
3, 11433, Note_on_c, 1, 62, 93
3, 11529, Note_off_c, 1, 62, 0
3, 11529, Note_on_c, 1, 65, 93
3, 11625, Note_off_c, 1, 65, 0
3, 11625, Note_on_c, 1, 64, 93
3, 11721, Note_off_c, 1, 64, 0
3, 11721, Note_on_c, 1, 62, 93
3, 11817, Note_off_c, 1, 62, 0
3, 11817, Note_on_c, 1, 60, 93
3, 11913, Note_off_c, 1, 60, 0
3, 11913, Note_on_c, 1, 69, 93
3, 12102, Note_off_c, 1, 69, 0
3, 12102, Note_on_c, 1, 62, 93
3, 12198, Note_off_c, 1, 62, 0
3, 12198, Note_on_c, 1, 64, 93
3, 12294, Note_off_c, 1, 64, 0
3, 12294, Note_on_c, 1, 69, 93
3, 12438, Note_off_c, 1, 69, 0
3, 12438, Note_on_c, 1, 67, 93
3, 12486, Note_off_c, 1, 67, 0
3, 12486, Note_on_c, 1, 65, 93
3, 12531, Note_off_c, 1, 65, 0
3, 12531, Note_on_c, 1, 64, 93
3, 12579, Note_off_c, 1, 64, 0
3, 12579, Note_on_c, 1, 62, 93
3, 13008, Note_off_c, 1, 62, 0
3, 13008, Note_on_c, 1, 62, 93
3, 13056, Note_off_c, 1, 62, 0
3, 13056, Note_on_c, 1, 67, 93
3, 13197, Note_off_c, 1, 67, 0
3, 13197, Note_on_c, 1, 67, 93
3, 13245, Note_off_c, 1, 67, 0
3, 13245, Note_on_c, 1, 60, 93
3, 13389, Note_off_c, 1, 60, 0
3, 13389, Note_on_c, 1, 57, 93
3, 13434, Note_off_c, 1, 57, 0
3, 13434, Note_on_c, 1, 58, 93
3, 13530, Note_off_c, 1, 58, 0
3, 13530, Note_on_c, 1, 57, 93
3, 13770, Note_off_c, 1, 57, 0
3, 13770, Note_on_c, 1, 53, 93
3, 13818, Note_off_c, 1, 53, 0
3, 13818, Note_on_c, 1, 55, 93
3, 13914, Note_off_c, 1, 55, 0
3, 13914, Note_on_c, 1, 60, 93
3, 14154, Note_off_c, 1, 60, 0
3, 14154, Note_on_c, 1, 57, 93
3, 14199, Note_off_c, 1, 57, 0
3, 14199, Note_on_c, 1, 59, 93
3, 14295, Note_off_c, 1, 59, 0
3, 14295, Note_on_c, 1, 64, 93
3, 14535, Note_off_c, 1, 64, 0
3, 14535, Note_on_c, 1, 61, 93
3, 14583, Note_off_c, 1, 61, 0
3, 14583, Note_on_c, 1, 62, 93
3, 14679, Note_off_c, 1, 62, 0
3, 14679, Note_on_c, 1, 67, 93
3, 14919, Note_off_c, 1, 67, 0
3, 14919, Note_on_c, 1, 69, 93
3, 14964, Note_off_c, 1, 69, 0
3, 14964, Note_on_c, 1, 70, 93
3, 15060, Note_off_c, 1, 70, 0
3, 15060, Note_on_c, 1, 69, 93
3, 15489, Note_off_c, 1, 69, 0
3, 15489, Note_on_c, 1, 65, 93
3, 15534, Note_off_c, 1, 65, 0
3, 15534, Note_on_c, 1, 67, 93
3, 15630, Note_off_c, 1, 67, 0
3, 15630, Note_on_c, 1, 69, 93
3, 15774, Note_off_c, 1, 69, 0
3, 15774, Note_on_c, 1, 70, 93
3, 15822, Note_off_c, 1, 70, 0
3, 15822, Note_on_c, 1, 69, 93
3, 15918, Note_off_c, 1, 69, 0
3, 15918, Note_on_c, 1, 67, 93
3, 16107, Note_off_c, 1, 67, 0
3, 16107, Note_on_c, 1, 65, 93
3, 16155, Note_off_c, 1, 65, 0
3, 16155, Note_on_c, 1, 62, 93
3, 16200, Note_off_c, 1, 62, 0
3, 16200, Note_on_c, 1, 69, 93
3, 16344, Note_off_c, 1, 69, 0
3, 16344, Note_on_c, 1, 67, 93
3, 16392, Note_off_c, 1, 67, 0
3, 16392, Note_on_c, 1, 66, 93
3, 16437, Note_off_c, 1, 66, 0
3, 16437, Note_on_c, 1, 62, 93
3, 16485, Note_off_c, 1, 62, 0
3, 16485, Note_on_c, 1, 67, 93
3, 16626, Note_off_c, 1, 67, 0
3, 16626, Note_on_c, 1, 64, 93
3, 16674, Note_off_c, 1, 64, 0
3, 16674, Note_on_c, 1, 65, 93
3, 16818, Note_off_c, 1, 65, 0
3, 16818, Note_on_c, 1, 62, 93
3, 16863, Note_off_c, 1, 62, 0
3, 16863, Note_on_c, 1, 67, 93
3, 17007, Note_off_c, 1, 67, 0
3, 17007, Note_on_c, 1, 64, 93
3, 17055, Note_off_c, 1, 64, 0
3, 17055, Note_on_c, 1, 69, 93
3, 17196, Note_off_c, 1, 69, 0
3, 17196, Note_on_c, 1, 65, 93
3, 17244, Note_off_c, 1, 65, 0
3, 17244, Note_on_c, 1, 70, 93
3, 17388, Note_off_c, 1, 70, 0
3, 17388, Note_on_c, 1, 67, 93
3, 17433, Note_off_c, 1, 67, 0
3, 17433, Note_on_c, 1, 69, 93
3, 17577, Note_off_c, 1, 69, 0
3, 17577, Note_on_c, 1, 65, 93
3, 17622, Note_off_c, 1, 65, 0
3, 17622, Note_on_c, 1, 67, 93
3, 17814, Note_off_c, 1, 67, 0
3, 17814, Note_on_c, 1, 65, 93
3, 17859, Note_off_c, 1, 65, 0
3, 17859, Note_on_c, 1, 62, 93
3, 17907, Note_off_c, 1, 62, 0
3, 17907, Note_on_c, 1, 69, 93
3, 18096, Note_off_c, 1, 69, 0
3, 18096, Note_on_c, 1, 74, 93
3, 18336, Note_off_c, 1, 74, 0
3, 18336, Note_on_c, 1, 73, 93
3, 18384, Note_off_c, 1, 73, 0
3, 18384, Note_on_c, 1, 71, 93
3, 18429, Note_off_c, 1, 71, 0
3, 18429, Note_on_c, 1, 73, 93
3, 18477, Note_off_c, 1, 73, 0
3, 18477, Note_on_c, 1, 74, 93
3, 18522, Note_off_c, 1, 74, 0
3, 18522, Note_on_c, 1, 69, 93
3, 18570, Note_off_c, 1, 69, 0
3, 18570, Note_on_c, 1, 76, 93
3, 18714, Note_off_c, 1, 76, 0
3, 18714, Note_on_c, 1, 69, 93
3, 18759, Note_off_c, 1, 69, 0
3, 18759, Note_on_c, 1, 74, 93
3, 18855, Note_off_c, 1, 74, 0
3, 18903, Note_on_c, 1, 65, 93
3, 18948, Note_off_c, 1, 65, 0
3, 18948, Note_on_c, 1, 70, 93
3, 19092, Note_off_c, 1, 70, 0
3, 19092, Note_on_c, 1, 64, 93
3, 19140, Note_off_c, 1, 64, 0
3, 19140, Note_on_c, 1, 69, 93
3, 19281, Note_off_c, 1, 69, 0
3, 19281, Note_on_c, 1, 67, 93
3, 19329, Note_off_c, 1, 67, 0
3, 19329, Note_on_c, 1, 65, 93
3, 19377, Note_off_c, 1, 65, 0
3, 19377, Note_on_c, 1, 64, 93
3, 19422, Note_off_c, 1, 64, 0
3, 19422, Note_on_c, 1, 62, 93
3, 19470, Note_off_c, 1, 62, 0
3, 19470, Note_on_c, 1, 69, 93
3, 19515, Note_off_c, 1, 69, 0
3, 19515, Note_on_c, 1, 74, 93
3, 19563, Note_off_c, 1, 74, 0
3, 19563, Note_on_c, 1, 71, 93
3, 19608, Note_off_c, 1, 71, 0
3, 19608, Note_on_c, 1, 67, 93
3, 19656, Note_off_c, 1, 67, 0
3, 19656, Note_on_c, 1, 64, 93
3, 19704, Note_off_c, 1, 64, 0
3, 19704, Note_on_c, 1, 72, 93
3, 19893, Note_off_c, 1, 72, 0
3, 19893, Note_on_c, 1, 70, 93
3, 19989, Note_off_c, 1, 70, 0
3, 19989, Note_on_c, 1, 69, 93
3, 20178, Note_off_c, 1, 69, 0
3, 20178, Note_on_c, 1, 67, 93
3, 20322, Note_off_c, 1, 67, 0
3, 20322, Note_on_c, 1, 65, 93
3, 20370, Note_off_c, 1, 65, 0
3, 20370, Note_on_c, 1, 64, 93
3, 20652, Note_off_c, 1, 64, 0
3, 20652, Note_on_c, 1, 62, 93
3, 20700, Note_off_c, 1, 62, 0
3, 20700, Note_on_c, 1, 61, 93
3, 20745, Note_off_c, 1, 61, 0
3, 20745, Note_on_c, 1, 62, 93
3, 20841, Note_off_c, 1, 62, 0
3, 20841, Note_on_c, 1, 67, 93
3, 21081, Note_off_c, 1, 67, 0
3, 21081, Note_on_c, 1, 65, 93
3, 21129, Note_off_c, 1, 65, 0
3, 21129, Note_on_c, 1, 64, 93
3, 21270, Note_off_c, 1, 64, 0
3, 21270, Note_on_c, 1, 64, 93
3, 21318, Note_off_c, 1, 64, 0
3, 21318, Note_on_c, 1, 69, 93
3, 21600, Note_off_c, 1, 69, 0
3, 21600, Note_on_c, 1, 67, 93
3, 21648, Note_off_c, 1, 67, 0
3, 21648, Note_on_c, 1, 70, 93
3, 21696, Note_off_c, 1, 70, 0
3, 21696, Note_on_c, 1, 69, 93
3, 21930, Note_off_c, 1, 69, 0
3, 21930, Note_on_c, 1, 67, 93
3, 21978, Note_off_c, 1, 67, 0
3, 21978, Note_on_c, 1, 65, 93
3, 22026, Note_off_c, 1, 65, 0
3, 22026, Note_on_c, 1, 64, 93
3, 22071, Note_off_c, 1, 64, 0
3, 22071, Note_on_c, 1, 62, 93
3, 22359, Note_off_c, 1, 62, 0
3, 22359, Note_on_c, 1, 64, 93
3, 22455, Note_off_c, 1, 64, 0
3, 22455, Note_on_c, 1, 57, 93
3, 22551, Note_off_c, 1, 57, 0
3, 22740, Note_on_c, 1, 63, 93
3, 22836, Note_off_c, 1, 63, 0
3, 22836, Note_on_c, 1, 62, 93
3, 23028, Note_off_c, 1, 62, 0
3, 23124, Note_on_c, 1, 66, 93
3, 23220, Note_off_c, 1, 66, 0
3, 23220, Note_on_c, 1, 67, 93
3, 23265, Note_off_c, 1, 67, 0
3, 23265, Note_on_c, 1, 66, 93
3, 23313, Note_off_c, 1, 66, 0
3, 23313, Note_on_c, 1, 67, 93
3, 23409, Note_off_c, 1, 67, 0
3, 23505, Note_on_c, 1, 70, 93
3, 23649, Note_off_c, 1, 70, 0
3, 23649, Note_on_c, 1, 69, 93
3, 23697, Note_off_c, 1, 69, 0
3, 23697, Note_on_c, 1, 77, 93
3, 23742, Note_off_c, 1, 77, 0
3, 23742, Note_on_c, 1, 74, 93
3, 23790, Note_off_c, 1, 74, 0
3, 23790, Note_on_c, 1, 71, 93
3, 23886, Note_off_c, 1, 71, 0
3, 23886, Note_on_c, 1, 76, 93
3, 23931, Note_off_c, 1, 76, 0
3, 23931, Note_on_c, 1, 73, 93
3, 23979, Note_off_c, 1, 73, 0
3, 23979, Note_on_c, 1, 69, 93
3, 24075, Note_off_c, 1, 69, 0
3, 24075, Note_on_c, 1, 74, 93
3, 24123, Note_off_c, 1, 74, 0
3, 24123, Note_on_c, 1, 69, 93
3, 24168, Note_off_c, 1, 69, 0
3, 24168, Note_on_c, 1, 70, 93
3, 24312, Note_off_c, 1, 70, 0
3, 24312, Note_on_c, 1, 67, 93
3, 24360, Note_off_c, 1, 67, 0
3, 24360, Note_on_c, 1, 69, 93
3, 24501, Note_off_c, 1, 69, 0
3, 24501, Note_on_c, 1, 65, 93
3, 24549, Note_off_c, 1, 65, 0
3, 24549, Note_on_c, 1, 64, 93
3, 24693, Note_off_c, 1, 64, 0
3, 24693, Note_on_c, 1, 67, 93
3, 24738, Note_off_c, 1, 67, 0
3, 24738, Note_on_c, 1, 66, 93
3, 24786, Note_off_c, 1, 66, 0
3, 24786, Note_on_c, 1, 62, 93
3, 24831, Note_off_c, 1, 62, 0
3, 24831, Note_on_c, 1, 67, 93
3, 24975, Note_off_c, 1, 67, 0
3, 24975, Note_on_c, 1, 64, 93
3, 25023, Note_off_c, 1, 64, 0
3, 25023, Note_on_c, 1, 65, 93
3, 25164, Note_off_c, 1, 65, 0
3, 25164, Note_on_c, 1, 74, 93
3, 25212, Note_off_c, 1, 74, 0
3, 25212, Note_on_c, 1, 72, 93
3, 25452, Note_off_c, 1, 72, 0
3, 25452, Note_on_c, 1, 72, 93
3, 25497, Note_off_c, 1, 72, 0
3, 25497, Note_on_c, 1, 70, 93
3, 25545, Note_off_c, 1, 70, 0
3, 25545, Note_on_c, 1, 69, 93
3, 25590, Note_off_c, 1, 69, 0
3, 25590, Note_on_c, 1, 68, 93
3, 25686, Note_off_c, 1, 68, 0
3, 25686, Note_on_c, 1, 69, 93
3, 25827, Note_off_c, 1, 69, 0
3, 25827, Note_on_c, 1, 64, 93
3, 25875, Note_off_c, 1, 64, 0
3, 25875, Note_on_c, 1, 69, 93
3, 25971, Note_off_c, 1, 69, 0
3, 25971, Note_on_c, 1, 67, 93
3, 26211, Note_off_c, 1, 67, 0
3, 26211, Note_on_c, 1, 72, 93
3, 26256, Note_off_c, 1, 72, 0
3, 26256, Note_on_c, 1, 69, 93
3, 26352, Note_off_c, 1, 69, 0
3, 26352, Note_on_c, 1, 67, 93
3, 26541, Note_off_c, 1, 67, 0
3, 26823, Note_on_c, 1, 69, 93
3, 26919, Note_off_c, 1, 69, 0
3, 27207, Note_on_c, 1, 71, 93
3, 27396, Note_off_c, 1, 71, 0
3, 27396, Note_on_c, 1, 69, 93
3, 27732, Note_off_c, 1, 69, 0
3, 27732, Note_on_c, 1, 67, 93
3, 27780, Note_off_c, 1, 67, 0
3, 27780, Note_on_c, 1, 66, 93
3, 27825, Note_off_c, 1, 66, 0
3, 27825, Note_on_c, 1, 67, 93
3, 27873, Note_off_c, 1, 67, 0
3, 27873, Note_on_c, 1, 69, 93
3, 28017, Note_off_c, 1, 69, 0
3, 28017, Note_on_c, 1, 67, 93
3, 28062, Note_off_c, 1, 67, 0
3, 28062, Note_on_c, 1, 72, 93
3, 28206, Note_off_c, 1, 72, 0
3, 28206, Note_on_c, 1, 66, 93
3, 28251, Note_off_c, 1, 66, 0
3, 28251, Note_on_c, 1, 67, 93
3, 28299, Note_off_c, 1, 67, 0
3, 28299, Note_on_c, 1, 70, 93
3, 28347, Note_off_c, 1, 70, 0
3, 28347, Note_on_c, 1, 63, 93
3, 28536, Note_off_c, 1, 63, 0
3, 28536, Note_on_c, 1, 62, 93
3, 28632, Note_off_c, 1, 62, 0
3, 28632, Note_on_c, 1, 57, 93
3, 28728, Note_off_c, 1, 57, 0
3, 28728, Note_on_c, 1, 58, 93
3, 28824, Note_off_c, 1, 58, 0
3, 28824, Note_on_c, 1, 60, 93
3, 28920, Note_off_c, 1, 60, 0
3, 28920, Note_on_c, 1, 62, 93
3, 29016, Note_off_c, 1, 62, 0
3, 29016, Note_on_c, 1, 55, 93
3, 29157, Note_off_c, 1, 55, 0
3, 29157, Note_on_c, 1, 70, 93
3, 29205, Note_off_c, 1, 70, 0
3, 29205, Note_on_c, 1, 69, 93
3, 29250, Note_off_c, 1, 69, 0
3, 29250, Note_on_c, 1, 67, 93
3, 29346, Note_off_c, 1, 67, 0
3, 29346, Note_on_c, 1, 66, 93
3, 29391, Note_off_c, 1, 66, 0
3, 29391, Note_on_c, 1, 64, 93
3, 29439, Note_off_c, 1, 64, 0
3, 29439, Note_on_c, 1, 67, 93
3, 29484, Note_off_c, 1, 67, 0
3, 29484, Note_on_c, 1, 66, 93
3, 29676, Note_off_c, 1, 66, 0
3, 29676, End_track
4, 0, Start_track
4, 0, Title_t, "Track4"
4, 0, Program_c, 2, 41
4, 0, Control_c, 2, 7, 100
4, 0, Control_c, 2, 10, 54
4, 4608, Note_on_c, 2, 57, 93
4, 4797, Note_off_c, 2, 57, 0
4, 4797, Note_on_c, 2, 62, 93
4, 4986, Note_off_c, 2, 62, 0
4, 4986, Note_on_c, 2, 60, 93
4, 5178, Note_off_c, 2, 60, 0
4, 5178, Note_on_c, 2, 57, 93
4, 5367, Note_off_c, 2, 57, 0
4, 5367, Note_on_c, 2, 56, 93
4, 5556, Note_off_c, 2, 56, 0
4, 5556, Note_on_c, 2, 57, 93
4, 5652, Note_off_c, 2, 57, 0
4, 5652, Note_on_c, 2, 59, 93
4, 5748, Note_off_c, 2, 59, 0
4, 5748, Note_on_c, 2, 60, 93
4, 5982, Note_off_c, 2, 60, 0
4, 5982, Note_on_c, 2, 62, 93
4, 6030, Note_off_c, 2, 62, 0
4, 6030, Note_on_c, 2, 60, 93
4, 6078, Note_off_c, 2, 60, 0
4, 6078, Note_on_c, 2, 58, 93
4, 6123, Note_off_c, 2, 58, 0
4, 6123, Note_on_c, 2, 57, 93
4, 6363, Note_off_c, 2, 57, 0
4, 6363, Note_on_c, 2, 53, 93
4, 6411, Note_off_c, 2, 53, 0
4, 6411, Note_on_c, 2, 55, 93
4, 6507, Note_off_c, 2, 55, 0
4, 6507, Note_on_c, 2, 60, 93
4, 6747, Note_off_c, 2, 60, 0
4, 6747, Note_on_c, 2, 57, 93
4, 6792, Note_off_c, 2, 57, 0
4, 6792, Note_on_c, 2, 59, 93
4, 6888, Note_off_c, 2, 59, 0
4, 6888, Note_on_c, 2, 64, 93
4, 7128, Note_off_c, 2, 64, 0
4, 7128, Note_on_c, 2, 61, 93
4, 7176, Note_off_c, 2, 61, 0
4, 7176, Note_on_c, 2, 62, 93
4, 7272, Note_off_c, 2, 62, 0
4, 7272, Note_on_c, 2, 67, 93
4, 7512, Note_off_c, 2, 67, 0
4, 7512, Note_on_c, 2, 64, 93
4, 7557, Note_off_c, 2, 64, 0
4, 7557, Note_on_c, 2, 65, 93
4, 7653, Note_off_c, 2, 65, 0
4, 7653, Note_on_c, 2, 64, 93
4, 7797, Note_off_c, 2, 64, 0
4, 7797, Note_on_c, 2, 69, 93
4, 7845, Note_off_c, 2, 69, 0
4, 7845, Note_on_c, 2, 62, 93
4, 7986, Note_off_c, 2, 62, 0
4, 7986, Note_on_c, 2, 64, 93
4, 8034, Note_off_c, 2, 64, 0
4, 8034, Note_on_c, 2, 61, 93
4, 8130, Note_off_c, 2, 61, 0
4, 8130, Note_on_c, 2, 62, 93
4, 8178, Note_off_c, 2, 62, 0
4, 8178, Note_on_c, 2, 57, 93
4, 8223, Note_off_c, 2, 57, 0
4, 8223, Note_on_c, 2, 59, 93
4, 8367, Note_off_c, 2, 59, 0
4, 8367, Note_on_c, 2, 61, 93
4, 8415, Note_off_c, 2, 61, 0
4, 8415, Note_on_c, 2, 62, 93
4, 8511, Note_off_c, 2, 62, 0
4, 8511, Note_on_c, 2, 57, 93
4, 8985, Note_off_c, 2, 57, 0
4, 8985, Note_on_c, 2, 58, 93
4, 9177, Note_off_c, 2, 58, 0
4, 9222, Note_on_c, 2, 52, 93
4, 9270, Note_off_c, 2, 52, 0
4, 9270, Note_on_c, 2, 57, 93
4, 9414, Note_off_c, 2, 57, 0
4, 9414, Note_on_c, 2, 58, 93
4, 9459, Note_off_c, 2, 58, 0
4, 9459, Note_on_c, 2, 57, 93
4, 9507, Note_off_c, 2, 57, 0
4, 9507, Note_on_c, 2, 55, 93
4, 9552, Note_off_c, 2, 55, 0
4, 9552, Note_on_c, 2, 57, 93
4, 9648, Note_off_c, 2, 57, 0
4, 9648, Note_on_c, 2, 59, 93
4, 9744, Note_off_c, 2, 59, 0
4, 9744, Note_on_c, 2, 60, 93
4, 9978, Note_off_c, 2, 60, 0
4, 9978, Note_on_c, 2, 57, 93
4, 10026, Note_off_c, 2, 57, 0
4, 10026, Note_on_c, 2, 58, 93
4, 10122, Note_off_c, 2, 58, 0
4, 10122, Note_on_c, 2, 57, 93
4, 10218, Note_off_c, 2, 57, 0
4, 10218, Note_on_c, 2, 62, 93
4, 10362, Note_off_c, 2, 62, 0
4, 10362, Note_on_c, 2, 59, 93
4, 10410, Note_off_c, 2, 59, 0
4, 10410, Note_on_c, 2, 60, 93
4, 10506, Note_off_c, 2, 60, 0
4, 10506, Note_on_c, 2, 59, 93
4, 10602, Note_off_c, 2, 59, 0
4, 10602, Note_on_c, 2, 64, 93
4, 10746, Note_off_c, 2, 64, 0
4, 10746, Note_on_c, 2, 57, 93
4, 10791, Note_off_c, 2, 57, 0
4, 10791, Note_on_c, 2, 62, 93
4, 10935, Note_off_c, 2, 62, 0
4, 10935, Note_on_c, 2, 62, 93
4, 10980, Note_off_c, 2, 62, 0
4, 10980, Note_on_c, 2, 60, 93
4, 11028, Note_off_c, 2, 60, 0
4, 11028, Note_on_c, 2, 59, 93
4, 11076, Note_off_c, 2, 59, 0
4, 11076, Note_on_c, 2, 60, 93
4, 11121, Note_off_c, 2, 60, 0
4, 11121, Note_on_c, 2, 62, 93
4, 11169, Note_off_c, 2, 62, 0
4, 11169, Note_on_c, 2, 64, 93
4, 11310, Note_off_c, 2, 64, 0
4, 11310, Note_on_c, 2, 64, 93
4, 11358, Note_off_c, 2, 64, 0
4, 11358, Note_on_c, 2, 62, 93
4, 11406, Note_off_c, 2, 62, 0
4, 11406, Note_on_c, 2, 60, 93
4, 11451, Note_off_c, 2, 60, 0
4, 11451, Note_on_c, 2, 59, 93
4, 11640, Note_off_c, 2, 59, 0
4, 11640, Note_on_c, 2, 60, 93
4, 11736, Note_off_c, 2, 60, 0
4, 11736, Note_on_c, 2, 56, 93
4, 11832, Note_off_c, 2, 56, 0
4, 11832, Note_on_c, 2, 57, 93
4, 11877, Note_off_c, 2, 57, 0
4, 11877, Note_on_c, 2, 55, 93
4, 11925, Note_off_c, 2, 55, 0
4, 11925, Note_on_c, 2, 54, 93
4, 11970, Note_off_c, 2, 54, 0
4, 11970, Note_on_c, 2, 52, 93
4, 12018, Note_off_c, 2, 52, 0
4, 12018, Note_on_c, 2, 54, 93
4, 12114, Note_off_c, 2, 54, 0
4, 12114, Note_on_c, 2, 55, 93
4, 12258, Note_off_c, 2, 55, 0
4, 12258, Note_on_c, 2, 55, 93
4, 12303, Note_off_c, 2, 55, 0
4, 12303, Note_on_c, 2, 53, 93
4, 12351, Note_off_c, 2, 53, 0
4, 12351, Note_on_c, 2, 52, 93
4, 12399, Note_off_c, 2, 52, 0
4, 12399, Note_on_c, 2, 53, 93
4, 12444, Note_off_c, 2, 53, 0
4, 12444, Note_on_c, 2, 52, 93
4, 12492, Note_off_c, 2, 52, 0
4, 12492, Note_on_c, 2, 50, 93
4, 12537, Note_off_c, 2, 50, 0
4, 12537, Note_on_c, 2, 49, 93
4, 12585, Note_off_c, 2, 49, 0
4, 12585, Note_on_c, 2, 50, 93
4, 12681, Note_off_c, 2, 50, 0
4, 14883, Note_on_c, 2, 52, 93
4, 15075, Note_off_c, 2, 52, 0
4, 15075, Note_on_c, 2, 57, 93
4, 15264, Note_off_c, 2, 57, 0
4, 15264, Note_on_c, 2, 53, 93
4, 15453, Note_off_c, 2, 53, 0
4, 15453, Note_on_c, 2, 50, 93
4, 15642, Note_off_c, 2, 50, 0
4, 15642, Note_on_c, 2, 49, 93
4, 15834, Note_off_c, 2, 49, 0
4, 15834, Note_on_c, 2, 50, 93
4, 15930, Note_off_c, 2, 50, 0
4, 15930, Note_on_c, 2, 52, 93
4, 16026, Note_off_c, 2, 52, 0
4, 16026, Note_on_c, 2, 53, 93
4, 16266, Note_off_c, 2, 53, 0
4, 16266, Note_on_c, 2, 55, 93
4, 16311, Note_off_c, 2, 55, 0
4, 16311, Note_on_c, 2, 53, 93
4, 16359, Note_off_c, 2, 53, 0
4, 16359, Note_on_c, 2, 52, 93
4, 16407, Note_off_c, 2, 52, 0
4, 16407, Note_on_c, 2, 50, 93
4, 16689, Note_off_c, 2, 50, 0
4, 16689, Note_on_c, 2, 57, 93
4, 16737, Note_off_c, 2, 57, 0
4, 16737, Note_on_c, 2, 53, 93
4, 16782, Note_off_c, 2, 53, 0
4, 16782, Note_on_c, 2, 58, 93
4, 16926, Note_off_c, 2, 58, 0
4, 16926, Note_on_c, 2, 55, 93
4, 16971, Note_off_c, 2, 55, 0
4, 16971, Note_on_c, 2, 60, 93
4, 17115, Note_off_c, 2, 60, 0
4, 17115, Note_on_c, 2, 57, 93
4, 17163, Note_off_c, 2, 57, 0
4, 17163, Note_on_c, 2, 62, 93
4, 17259, Note_off_c, 2, 62, 0
4, 17259, Note_on_c, 2, 55, 93
4, 17355, Note_off_c, 2, 55, 0
4, 17355, Note_on_c, 2, 60, 93
4, 17451, Note_off_c, 2, 60, 0
4, 17451, Note_on_c, 2, 53, 93
4, 17547, Note_off_c, 2, 53, 0
4, 17547, Note_on_c, 2, 58, 93
4, 17643, Note_off_c, 2, 58, 0
4, 17643, Note_on_c, 2, 52, 93
4, 17739, Note_off_c, 2, 52, 0
4, 17739, Note_on_c, 2, 57, 93
4, 17928, Note_off_c, 2, 57, 0
4, 17928, Note_on_c, 2, 52, 93
4, 18024, Note_off_c, 2, 52, 0
4, 18024, Note_on_c, 2, 57, 93
4, 18168, Note_off_c, 2, 57, 0
4, 18168, Note_on_c, 2, 56, 93
4, 18213, Note_off_c, 2, 56, 0
4, 18213, Note_on_c, 2, 54, 93
4, 18261, Note_off_c, 2, 54, 0
4, 18261, Note_on_c, 2, 56, 93
4, 18306, Note_off_c, 2, 56, 0
4, 18306, Note_on_c, 2, 57, 93
4, 18450, Note_off_c, 2, 57, 0
4, 18450, Note_on_c, 2, 55, 93
4, 18498, Note_off_c, 2, 55, 0
4, 18498, Note_on_c, 2, 53, 93
4, 18543, Note_off_c, 2, 53, 0
4, 18543, Note_on_c, 2, 52, 93
4, 18591, Note_off_c, 2, 52, 0
4, 18591, Note_on_c, 2, 50, 93
4, 18636, Note_off_c, 2, 50, 0
4, 18636, Note_on_c, 2, 49, 93
4, 18684, Note_off_c, 2, 49, 0
4, 18684, Note_on_c, 2, 50, 93
4, 18780, Note_off_c, 2, 50, 0
4, 18780, Note_on_c, 2, 53, 93
4, 18828, Note_off_c, 2, 53, 0
4, 18828, Note_on_c, 2, 50, 93
4, 18873, Note_off_c, 2, 50, 0
4, 18873, Note_on_c, 2, 58, 93
4, 18969, Note_off_c, 2, 58, 0
4, 18969, Note_on_c, 2, 55, 93
4, 19017, Note_off_c, 2, 55, 0
4, 19017, Note_on_c, 2, 52, 93
4, 19065, Note_off_c, 2, 52, 0
4, 19065, Note_on_c, 2, 57, 93
4, 19206, Note_off_c, 2, 57, 0
4, 19206, Note_on_c, 2, 65, 93
4, 19254, Note_off_c, 2, 65, 0
4, 19254, Note_on_c, 2, 59, 93
4, 19350, Note_off_c, 2, 59, 0
4, 19350, Note_on_c, 2, 61, 93
4, 19446, Note_off_c, 2, 61, 0
4, 19446, Note_on_c, 2, 62, 93
4, 19542, Note_off_c, 2, 62, 0
4, 19542, Note_on_c, 2, 59, 93
4, 19590, Note_off_c, 2, 59, 0
4, 19590, Note_on_c, 2, 55, 93
4, 19635, Note_off_c, 2, 55, 0
4, 19635, Note_on_c, 2, 60, 93
4, 19731, Note_off_c, 2, 60, 0
4, 19731, Note_on_c, 2, 57, 93
4, 19776, Note_off_c, 2, 57, 0
4, 19776, Note_on_c, 2, 53, 93
4, 19824, Note_off_c, 2, 53, 0
4, 19824, Note_on_c, 2, 58, 93
4, 19869, Note_off_c, 2, 58, 0
4, 19869, Note_on_c, 2, 62, 93
4, 19917, Note_off_c, 2, 62, 0
4, 19917, Note_on_c, 2, 67, 93
4, 20061, Note_off_c, 2, 67, 0
4, 20061, Note_on_c, 2, 64, 93
4, 20106, Note_off_c, 2, 64, 0
4, 20106, Note_on_c, 2, 65, 93
4, 20250, Note_off_c, 2, 65, 0
4, 20250, Note_on_c, 2, 65, 93
4, 20295, Note_off_c, 2, 65, 0
4, 20295, Note_on_c, 2, 64, 93
4, 20343, Note_off_c, 2, 64, 0
4, 20343, Note_on_c, 2, 62, 93
4, 20391, Note_off_c, 2, 62, 0
4, 20391, Note_on_c, 2, 61, 93
4, 20580, Note_off_c, 2, 61, 0
4, 20580, Note_on_c, 2, 62, 93
4, 20625, Note_off_c, 2, 62, 0
4, 20625, Note_on_c, 2, 60, 93
4, 20673, Note_off_c, 2, 60, 0
4, 20673, Note_on_c, 2, 58, 93
4, 20721, Note_off_c, 2, 58, 0
4, 20721, Note_on_c, 2, 57, 93
4, 20766, Note_off_c, 2, 57, 0
4, 20766, Note_on_c, 2, 55, 93
4, 20814, Note_off_c, 2, 55, 0
4, 20814, Note_on_c, 2, 57, 93
4, 20859, Note_off_c, 2, 57, 0
4, 20859, Note_on_c, 2, 58, 93
4, 20907, Note_off_c, 2, 58, 0
4, 20907, Note_on_c, 2, 60, 93
4, 20952, Note_off_c, 2, 60, 0
4, 20952, Note_on_c, 2, 62, 93
4, 21000, Note_off_c, 2, 62, 0
4, 21000, Note_on_c, 2, 57, 93
4, 21048, Note_off_c, 2, 57, 0
4, 21048, Note_on_c, 2, 62, 93
4, 21189, Note_off_c, 2, 62, 0
4, 21189, Note_on_c, 2, 59, 93
4, 21237, Note_off_c, 2, 59, 0
4, 21237, Note_on_c, 2, 61, 93
4, 21381, Note_off_c, 2, 61, 0
4, 21381, Note_on_c, 2, 64, 93
4, 21426, Note_off_c, 2, 64, 0
4, 21426, Note_on_c, 2, 57, 93
4, 21474, Note_off_c, 2, 57, 0
4, 21474, Note_on_c, 2, 61, 93
4, 21519, Note_off_c, 2, 61, 0
4, 21519, Note_on_c, 2, 62, 93
4, 21615, Note_off_c, 2, 62, 0
4, 21615, Note_on_c, 2, 58, 93
4, 21663, Note_off_c, 2, 58, 0
4, 21663, Note_on_c, 2, 55, 93
4, 21711, Note_off_c, 2, 55, 0
4, 21711, Note_on_c, 2, 52, 93
4, 21900, Note_off_c, 2, 52, 0
4, 21900, Note_on_c, 2, 53, 93
4, 21996, Note_off_c, 2, 53, 0
4, 21996, Note_on_c, 2, 55, 93
4, 22092, Note_off_c, 2, 55, 0
4, 22092, Note_on_c, 2, 57, 93
4, 22281, Note_off_c, 2, 57, 0
4, 22281, Note_on_c, 2, 59, 93
4, 22377, Note_off_c, 2, 59, 0
4, 22377, Note_on_c, 2, 61, 93
4, 22473, Note_off_c, 2, 61, 0
4, 22473, Note_on_c, 2, 62, 93
4, 22569, Note_off_c, 2, 62, 0
4, 22758, Note_on_c, 2, 54, 93
4, 22854, Note_off_c, 2, 54, 0
4, 22854, Note_on_c, 2, 55, 93
4, 22902, Note_off_c, 2, 55, 0
4, 22902, Note_on_c, 2, 57, 93
4, 22947, Note_off_c, 2, 57, 0
4, 22947, Note_on_c, 2, 58, 93
4, 23043, Note_off_c, 2, 58, 0
4, 23139, Note_on_c, 2, 60, 93
4, 23235, Note_off_c, 2, 60, 0
4, 23235, Note_on_c, 2, 62, 93
4, 23424, Note_off_c, 2, 62, 0
4, 23472, Note_on_c, 2, 55, 93
4, 23568, Note_off_c, 2, 55, 0
4, 23568, Note_on_c, 2, 53, 93
4, 23613, Note_off_c, 2, 53, 0
4, 23613, Note_on_c, 2, 52, 93
4, 23805, Note_off_c, 2, 52, 0
4, 24087, Note_on_c, 2, 53, 93
4, 24135, Note_off_c, 2, 53, 0
4, 24135, Note_on_c, 2, 50, 93
4, 24180, Note_off_c, 2, 50, 0
4, 24180, Note_on_c, 2, 55, 93
4, 24324, Note_off_c, 2, 55, 0
4, 24324, Note_on_c, 2, 49, 93
4, 24372, Note_off_c, 2, 49, 0
4, 24372, Note_on_c, 2, 53, 93
4, 24513, Note_off_c, 2, 53, 0
4, 24513, Note_on_c, 2, 50, 93
4, 24561, Note_off_c, 2, 50, 0
4, 24561, Note_on_c, 2, 57, 93
4, 24750, Note_off_c, 2, 57, 0
4, 24750, Note_on_c, 2, 50, 93
4, 24846, Note_off_c, 2, 50, 0
4, 24846, Note_on_c, 2, 62, 93
4, 25038, Note_off_c, 2, 62, 0
4, 25038, Note_on_c, 2, 57, 93
4, 25083, Note_off_c, 2, 57, 0
4, 25083, Note_on_c, 2, 53, 93
4, 25131, Note_off_c, 2, 53, 0
4, 25131, Note_on_c, 2, 58, 93
4, 25371, Note_off_c, 2, 58, 0
4, 25371, Note_on_c, 2, 56, 93
4, 25416, Note_off_c, 2, 56, 0
4, 25416, Note_on_c, 2, 57, 93
4, 25512, Note_off_c, 2, 57, 0
4, 25512, Note_on_c, 2, 62, 93
4, 25752, Note_off_c, 2, 62, 0
4, 25752, Note_on_c, 2, 59, 93
4, 25800, Note_off_c, 2, 59, 0
4, 25800, Note_on_c, 2, 60, 93
4, 25896, Note_off_c, 2, 60, 0
4, 25896, Note_on_c, 2, 65, 93
4, 26136, Note_off_c, 2, 65, 0
4, 26136, Note_on_c, 2, 62, 93
4, 26181, Note_off_c, 2, 62, 0
4, 26181, Note_on_c, 2, 63, 93
4, 26277, Note_off_c, 2, 63, 0
4, 26277, Note_on_c, 2, 62, 93
4, 26469, Note_off_c, 2, 62, 0
4, 26469, Note_on_c, 2, 64, 93
4, 26565, Note_off_c, 2, 64, 0
4, 26847, Note_on_c, 2, 65, 93
4, 26943, Note_off_c, 2, 65, 0
4, 27231, Note_on_c, 2, 65, 93
4, 27513, Note_off_c, 2, 65, 0
4, 27513, Note_on_c, 2, 64, 93
4, 27561, Note_off_c, 2, 64, 0
4, 27561, Note_on_c, 2, 62, 93
4, 27606, Note_off_c, 2, 62, 0
4, 27606, Note_on_c, 2, 64, 93
4, 27702, Note_off_c, 2, 64, 0
4, 27798, Note_on_c, 2, 57, 93
4, 27987, Note_off_c, 2, 57, 0
4, 27987, Note_on_c, 2, 62, 93
4, 28176, Note_off_c, 2, 62, 0
4, 28176, Note_on_c, 2, 58, 93
4, 28368, Note_off_c, 2, 58, 0
4, 28368, Note_on_c, 2, 55, 93
4, 28557, Note_off_c, 2, 55, 0
4, 28557, Note_on_c, 2, 54, 93
4, 28746, Note_off_c, 2, 54, 0
4, 28746, Note_on_c, 2, 55, 93
4, 28842, Note_off_c, 2, 55, 0
4, 28842, Note_on_c, 2, 57, 93
4, 28938, Note_off_c, 2, 57, 0
4, 28938, Note_on_c, 2, 58, 93
4, 29178, Note_off_c, 2, 58, 0
4, 29178, Note_on_c, 2, 62, 93
4, 29226, Note_off_c, 2, 62, 0
4, 29226, Note_on_c, 2, 60, 93
4, 29271, Note_off_c, 2, 60, 0
4, 29271, Note_on_c, 2, 58, 93
4, 29319, Note_off_c, 2, 58, 0
4, 29319, Note_on_c, 2, 57, 93
4, 29415, Note_off_c, 2, 57, 0
4, 29415, Note_on_c, 2, 57, 93
4, 29703, Note_off_c, 2, 57, 0
4, 29703, End_track
5, 0, Start_track
5, 0, Title_t, "Track5"
5, 0, Program_c, 3, 42
5, 0, Control_c, 3, 7, 100
5, 0, Control_c, 3, 10, 34
5, 3072, Note_on_c, 3, 50, 93
5, 3261, Note_off_c, 3, 50, 0
5, 3261, Note_on_c, 3, 57, 93
5, 3450, Note_off_c, 3, 57, 0
5, 3450, Note_on_c, 3, 53, 93
5, 3639, Note_off_c, 3, 53, 0
5, 3639, Note_on_c, 3, 50, 93
5, 3831, Note_off_c, 3, 50, 0
5, 3831, Note_on_c, 3, 49, 93
5, 4020, Note_off_c, 3, 49, 0
5, 4020, Note_on_c, 3, 50, 93
5, 4116, Note_off_c, 3, 50, 0
5, 4116, Note_on_c, 3, 52, 93
5, 4212, Note_off_c, 3, 52, 0
5, 4212, Note_on_c, 3, 53, 93
5, 4452, Note_off_c, 3, 53, 0
5, 4452, Note_on_c, 3, 55, 93
5, 4500, Note_off_c, 3, 55, 0
5, 4500, Note_on_c, 3, 53, 93
5, 4545, Note_off_c, 3, 53, 0
5, 4545, Note_on_c, 3, 52, 93
5, 4593, Note_off_c, 3, 52, 0
5, 4593, Note_on_c, 3, 50, 93
5, 4782, Note_off_c, 3, 50, 0
5, 5070, Note_on_c, 3, 45, 93
5, 5115, Note_off_c, 3, 45, 0
5, 5115, Note_on_c, 3, 47, 93
5, 5163, Note_off_c, 3, 47, 0
5, 5163, Note_on_c, 3, 48, 93
5, 5208, Note_off_c, 3, 48, 0
5, 5208, Note_on_c, 3, 45, 93
5, 5256, Note_off_c, 3, 45, 0
5, 5256, Note_on_c, 3, 53, 93
5, 5400, Note_off_c, 3, 53, 0
5, 5400, Note_on_c, 3, 47, 93
5, 5445, Note_off_c, 3, 47, 0
5, 5445, Note_on_c, 3, 52, 93
5, 5589, Note_off_c, 3, 52, 0
5, 5589, Note_on_c, 3, 53, 93
5, 5634, Note_off_c, 3, 53, 0
5, 5634, Note_on_c, 3, 52, 93
5, 5682, Note_off_c, 3, 52, 0
5, 5682, Note_on_c, 3, 50, 93
5, 5730, Note_off_c, 3, 50, 0
5, 5730, Note_on_c, 3, 52, 93
5, 5775, Note_off_c, 3, 52, 0
5, 5775, Note_on_c, 3, 55, 93
5, 5823, Note_off_c, 3, 55, 0
5, 5823, Note_on_c, 3, 54, 93
5, 5868, Note_off_c, 3, 54, 0
5, 5868, Note_on_c, 3, 57, 93
5, 5916, Note_off_c, 3, 57, 0
5, 5916, Note_on_c, 3, 55, 93
5, 6105, Note_off_c, 3, 55, 0
5, 6105, Note_on_c, 3, 50, 93
5, 6393, Note_off_c, 3, 50, 0
5, 6393, Note_on_c, 3, 52, 93
5, 6438, Note_off_c, 3, 52, 0
5, 6438, Note_on_c, 3, 50, 93
5, 6486, Note_off_c, 3, 50, 0
5, 6486, Note_on_c, 3, 52, 93
5, 6582, Note_off_c, 3, 52, 0
5, 6582, Note_on_c, 3, 53, 93
5, 6627, Note_off_c, 3, 53, 0
5, 6627, Note_on_c, 3, 52, 93
5, 6675, Note_off_c, 3, 52, 0
5, 6675, Note_on_c, 3, 54, 93
5, 6771, Note_off_c, 3, 54, 0
5, 6771, Note_on_c, 3, 55, 93
5, 6819, Note_off_c, 3, 55, 0
5, 6819, Note_on_c, 3, 54, 93
5, 6864, Note_off_c, 3, 54, 0
5, 6864, Note_on_c, 3, 56, 93
5, 6960, Note_off_c, 3, 56, 0
5, 6960, Note_on_c, 3, 57, 93
5, 7008, Note_off_c, 3, 57, 0
5, 7008, Note_on_c, 3, 56, 93
5, 7056, Note_off_c, 3, 56, 0
5, 7056, Note_on_c, 3, 57, 93
5, 7152, Note_off_c, 3, 57, 0
5, 7152, Note_on_c, 3, 58, 93
5, 7197, Note_off_c, 3, 58, 0
5, 7197, Note_on_c, 3, 57, 93
5, 7245, Note_off_c, 3, 57, 0
5, 7245, Note_on_c, 3, 59, 93
5, 7341, Note_off_c, 3, 59, 0
5, 7341, Note_on_c, 3, 60, 93
5, 7389, Note_off_c, 3, 60, 0
5, 7389, Note_on_c, 3, 59, 93
5, 7434, Note_off_c, 3, 59, 0
5, 7434, Note_on_c, 3, 61, 93
5, 7530, Note_off_c, 3, 61, 0
5, 7530, Note_on_c, 3, 62, 93
5, 7578, Note_off_c, 3, 62, 0
5, 7578, Note_on_c, 3, 56, 93
5, 7623, Note_off_c, 3, 56, 0
5, 7623, Note_on_c, 3, 57, 93
5, 7863, Note_off_c, 3, 57, 0
5, 7863, Note_on_c, 3, 53, 93
5, 7911, Note_off_c, 3, 53, 0
5, 7911, Note_on_c, 3, 55, 93
5, 8055, Note_off_c, 3, 55, 0
5, 8055, Note_on_c, 3, 52, 93
5, 8100, Note_off_c, 3, 52, 0
5, 8100, Note_on_c, 3, 53, 93
5, 8244, Note_off_c, 3, 53, 0
5, 8244, Note_on_c, 3, 50, 93
5, 8289, Note_off_c, 3, 50, 0
5, 8289, Note_on_c, 3, 52, 93
5, 8385, Note_off_c, 3, 52, 0
5, 8385, Note_on_c, 3, 50, 93
5, 8619, Note_off_c, 3, 50, 0
5, 8619, Note_on_c, 3, 47, 93
5, 8667, Note_off_c, 3, 47, 0
5, 8667, Note_on_c, 3, 49, 93
5, 8763, Note_off_c, 3, 49, 0
5, 8763, Note_on_c, 3, 50, 93
5, 8907, Note_off_c, 3, 50, 0
5, 8907, Note_on_c, 3, 48, 93
5, 8952, Note_off_c, 3, 48, 0
5, 8952, Note_on_c, 3, 46, 93
5, 9144, Note_off_c, 3, 46, 0
5, 9144, Note_on_c, 3, 45, 93
5, 9285, Note_off_c, 3, 45, 0
5, 9285, Note_on_c, 3, 43, 93
5, 9333, Note_off_c, 3, 43, 0
5, 9333, Note_on_c, 3, 41, 93
5, 9381, Note_off_c, 3, 41, 0
5, 9381, Note_on_c, 3, 43, 93
5, 9426, Note_off_c, 3, 43, 0
5, 9426, Note_on_c, 3, 41, 93
5, 9474, Note_off_c, 3, 41, 0
5, 9474, Note_on_c, 3, 40, 93
5, 9519, Note_off_c, 3, 40, 0
5, 9519, Note_on_c, 3, 38, 93
5, 9567, Note_off_c, 3, 38, 0
5, 9567, Note_on_c, 3, 41, 93
5, 9612, Note_off_c, 3, 41, 0
5, 9612, Note_on_c, 3, 40, 93
5, 9660, Note_off_c, 3, 40, 0
5, 9660, Note_on_c, 3, 38, 93
5, 9708, Note_off_c, 3, 38, 0
5, 9708, Note_on_c, 3, 45, 93
5, 9849, Note_off_c, 3, 45, 0
5, 9849, Note_on_c, 3, 41, 93
5, 9897, Note_off_c, 3, 41, 0
5, 9897, Note_on_c, 3, 46, 93
5, 10041, Note_off_c, 3, 46, 0
5, 10041, Note_on_c, 3, 43, 93
5, 10086, Note_off_c, 3, 43, 0
5, 10086, Note_on_c, 3, 50, 93
5, 10230, Note_off_c, 3, 50, 0
5, 10230, Note_on_c, 3, 53, 93
5, 10275, Note_off_c, 3, 53, 0
5, 10275, Note_on_c, 3, 57, 93
5, 10419, Note_off_c, 3, 57, 0
5, 10419, Note_on_c, 3, 45, 93
5, 10467, Note_off_c, 3, 45, 0
5, 10467, Note_on_c, 3, 40, 93
5, 10656, Note_off_c, 3, 40, 0
5, 10845, Note_on_c, 3, 52, 93
5, 11037, Note_off_c, 3, 52, 0
5, 11037, Note_on_c, 3, 57, 93
5, 11226, Note_off_c, 3, 57, 0
5, 11226, Note_on_c, 3, 53, 93
5, 11466, Note_off_c, 3, 53, 0
5, 11466, Note_on_c, 3, 53, 93
5, 11511, Note_off_c, 3, 53, 0
5, 11511, Note_on_c, 3, 52, 93
5, 11559, Note_off_c, 3, 52, 0
5, 11559, Note_on_c, 3, 50, 93
5, 11604, Note_off_c, 3, 50, 0
5, 11604, Note_on_c, 3, 48, 93
5, 11652, Note_off_c, 3, 48, 0
5, 11652, Note_on_c, 3, 50, 93
5, 11700, Note_off_c, 3, 50, 0
5, 11700, Note_on_c, 3, 48, 93
5, 11745, Note_off_c, 3, 48, 0
5, 11745, Note_on_c, 3, 47, 93
5, 11793, Note_off_c, 3, 47, 0
5, 11793, Note_on_c, 3, 45, 93
5, 11982, Note_off_c, 3, 45, 0
5, 11982, Note_on_c, 3, 50, 93
5, 12171, Note_off_c, 3, 50, 0
5, 12171, Note_on_c, 3, 49, 93
5, 12363, Note_off_c, 3, 49, 0
5, 12363, Note_on_c, 3, 45, 93
5, 12552, Note_off_c, 3, 45, 0
5, 12552, Note_on_c, 3, 42, 93
5, 12741, Note_off_c, 3, 42, 0
5, 12741, Note_on_c, 3, 43, 93
5, 12837, Note_off_c, 3, 43, 0
5, 12837, Note_on_c, 3, 45, 93
5, 12933, Note_off_c, 3, 45, 0
5, 12933, Note_on_c, 3, 46, 93
5, 13173, Note_off_c, 3, 46, 0
5, 13173, Note_on_c, 3, 48, 93
5, 13221, Note_off_c, 3, 48, 0
5, 13221, Note_on_c, 3, 46, 93
5, 13266, Note_off_c, 3, 46, 0
5, 13266, Note_on_c, 3, 45, 93
5, 13314, Note_off_c, 3, 45, 0
5, 13314, Note_on_c, 3, 43, 93
5, 13554, Note_off_c, 3, 43, 0
5, 13554, Note_on_c, 3, 40, 93
5, 13599, Note_off_c, 3, 40, 0
5, 13599, Note_on_c, 3, 41, 93
5, 13695, Note_off_c, 3, 41, 0
5, 13695, Note_on_c, 3, 46, 93
5, 13929, Note_off_c, 3, 46, 0
5, 13929, Note_on_c, 3, 43, 93
5, 13977, Note_off_c, 3, 43, 0
5, 13977, Note_on_c, 3, 45, 93
5, 14073, Note_off_c, 3, 45, 0
5, 14073, Note_on_c, 3, 50, 93
5, 14313, Note_off_c, 3, 50, 0
5, 14313, Note_on_c, 3, 47, 93
5, 14361, Note_off_c, 3, 47, 0
5, 14361, Note_on_c, 3, 48, 93
5, 14457, Note_off_c, 3, 48, 0
5, 14457, Note_on_c, 3, 53, 93
5, 14697, Note_off_c, 3, 53, 0
5, 14697, Note_on_c, 3, 50, 93
5, 14742, Note_off_c, 3, 50, 0
5, 14742, Note_on_c, 3, 52, 93
5, 14838, Note_off_c, 3, 52, 0
5, 14838, Note_on_c, 3, 45, 93
5, 14982, Note_off_c, 3, 45, 0
5, 14982, Note_on_c, 3, 55, 93
5, 15030, Note_off_c, 3, 55, 0
5, 15030, Note_on_c, 3, 53, 93
5, 15075, Note_off_c, 3, 53, 0
5, 15075, Note_on_c, 3, 52, 93
5, 15123, Note_off_c, 3, 52, 0
5, 15123, Note_on_c, 3, 50, 93
5, 15168, Note_off_c, 3, 50, 0
5, 15168, Note_on_c, 3, 49, 93
5, 15216, Note_off_c, 3, 49, 0
5, 15216, Note_on_c, 3, 50, 93
5, 15360, Note_off_c, 3, 50, 0
5, 15360, Note_on_c, 3, 41, 93
5, 15405, Note_off_c, 3, 41, 0
5, 15405, Note_on_c, 3, 46, 93
5, 15594, Note_off_c, 3, 46, 0
5, 15594, Note_on_c, 3, 45, 93
5, 16122, Note_off_c, 3, 45, 0
5, 16122, Note_on_c, 3, 46, 93
5, 16167, Note_off_c, 3, 46, 0
5, 16167, Note_on_c, 3, 45, 93
5, 16215, Note_off_c, 3, 45, 0
5, 16215, Note_on_c, 3, 43, 93
5, 16260, Note_off_c, 3, 43, 0
5, 16260, Note_on_c, 3, 45, 93
5, 16356, Note_off_c, 3, 45, 0
5, 16356, Note_on_c, 3, 46, 93
5, 16497, Note_off_c, 3, 46, 0
5, 16497, Note_on_c, 3, 43, 93
5, 16545, Note_off_c, 3, 43, 0
5, 16545, Note_on_c, 3, 50, 93
5, 16827, Note_off_c, 3, 50, 0
5, 16827, Note_on_c, 3, 52, 93
5, 17019, Note_off_c, 3, 52, 0
5, 17019, Note_on_c, 3, 53, 93
5, 17253, Note_off_c, 3, 53, 0
5, 17253, Note_on_c, 3, 50, 93
5, 17301, Note_off_c, 3, 50, 0
5, 17301, Note_on_c, 3, 52, 93
5, 17445, Note_off_c, 3, 52, 0
5, 17445, Note_on_c, 3, 49, 93
5, 17490, Note_off_c, 3, 49, 0
5, 17490, Note_on_c, 3, 50, 93
5, 17634, Note_off_c, 3, 50, 0
5, 17634, Note_on_c, 3, 47, 93
5, 17682, Note_off_c, 3, 47, 0
5, 17682, Note_on_c, 3, 49, 93
5, 17727, Note_off_c, 3, 49, 0
5, 17727, Note_on_c, 3, 45, 93
5, 17775, Note_off_c, 3, 45, 0
5, 17775, Note_on_c, 3, 50, 93
5, 17916, Note_off_c, 3, 50, 0
5, 17916, Note_on_c, 3, 48, 93
5, 17964, Note_off_c, 3, 48, 0
5, 17964, Note_on_c, 3, 47, 93
5, 18012, Note_off_c, 3, 47, 0
5, 18012, Note_on_c, 3, 45, 93
5, 18057, Note_off_c, 3, 45, 0
5, 18057, Note_on_c, 3, 47, 93
5, 18246, Note_off_c, 3, 47, 0
5, 18246, Note_on_c, 3, 45, 93
5, 18342, Note_off_c, 3, 45, 0
5, 20928, Note_on_c, 3, 50, 93
5, 21120, Note_off_c, 3, 50, 0
5, 21120, Note_on_c, 3, 57, 93
5, 21309, Note_off_c, 3, 57, 0
5, 21309, Note_on_c, 3, 53, 93
5, 21498, Note_off_c, 3, 53, 0
5, 21498, Note_on_c, 3, 50, 93
5, 21690, Note_off_c, 3, 50, 0
5, 21690, Note_on_c, 3, 49, 93
5, 21879, Note_off_c, 3, 49, 0
5, 21879, Note_on_c, 3, 50, 93
5, 21975, Note_off_c, 3, 50, 0
5, 21975, Note_on_c, 3, 52, 93
5, 22071, Note_off_c, 3, 52, 0
5, 22071, Note_on_c, 3, 53, 93
5, 22311, Note_off_c, 3, 53, 0
5, 22311, Note_on_c, 3, 55, 93
5, 22359, Note_off_c, 3, 55, 0
5, 22359, Note_on_c, 3, 53, 93
5, 22404, Note_off_c, 3, 53, 0
5, 22404, Note_on_c, 3, 52, 93
5, 22452, Note_off_c, 3, 52, 0
5, 22452, Note_on_c, 3, 50, 93
5, 22692, Note_off_c, 3, 50, 0
5, 22692, Note_on_c, 3, 51, 93
5, 22737, Note_off_c, 3, 51, 0
5, 22737, Note_on_c, 3, 50, 93
5, 22785, Note_off_c, 3, 50, 0
5, 22785, Note_on_c, 3, 48, 93
5, 22830, Note_off_c, 3, 48, 0
5, 22830, Note_on_c, 3, 46, 93
5, 23070, Note_off_c, 3, 46, 0
5, 23070, Note_on_c, 3, 48, 93
5, 23118, Note_off_c, 3, 48, 0
5, 23118, Note_on_c, 3, 46, 93
5, 23163, Note_off_c, 3, 46, 0
5, 23163, Note_on_c, 3, 45, 93
5, 23211, Note_off_c, 3, 45, 0
5, 23211, Note_on_c, 3, 43, 93
5, 23493, Note_off_c, 3, 43, 0
5, 23493, Note_on_c, 3, 43, 93
5, 24645, Note_off_c, 3, 43, 0
5, 24645, Note_on_c, 3, 45, 93
5, 24741, Note_off_c, 3, 45, 0
5, 24741, Note_on_c, 3, 46, 93
5, 24885, Note_off_c, 3, 46, 0
5, 24885, Note_on_c, 3, 43, 93
5, 24930, Note_off_c, 3, 43, 0
5, 24930, Note_on_c, 3, 50, 93
5, 25170, Note_off_c, 3, 50, 0
5, 25170, Note_on_c, 3, 46, 93
5, 25218, Note_off_c, 3, 46, 0
5, 25218, Note_on_c, 3, 48, 93
5, 25314, Note_off_c, 3, 48, 0
5, 25314, Note_on_c, 3, 53, 93
5, 25554, Note_off_c, 3, 53, 0
5, 25554, Note_on_c, 3, 50, 93
5, 25599, Note_off_c, 3, 50, 0
5, 25599, Note_on_c, 3, 52, 93
5, 25695, Note_off_c, 3, 52, 0
5, 25695, Note_on_c, 3, 57, 93
5, 25929, Note_off_c, 3, 57, 0
5, 25929, Note_on_c, 3, 53, 93
5, 25977, Note_off_c, 3, 53, 0
5, 25977, Note_on_c, 3, 55, 93
5, 26073, Note_off_c, 3, 55, 0
5, 26073, Note_on_c, 3, 60, 93
5, 26313, Note_off_c, 3, 60, 0
5, 26313, Note_on_c, 3, 57, 93
5, 26361, Note_off_c, 3, 57, 0
5, 26361, Note_on_c, 3, 58, 93
5, 26550, Note_off_c, 3, 58, 0
5, 26832, Note_on_c, 3, 57, 93
5, 26928, Note_off_c, 3, 57, 0
5, 27216, Note_on_c, 3, 56, 93
5, 27405, Note_off_c, 3, 56, 0
5, 27405, Note_on_c, 3, 57, 93
5, 27693, Note_off_c, 3, 57, 0
5, 27693, Note_on_c, 3, 45, 93
5, 27789, Note_off_c, 3, 45, 0
5, 27789, Note_on_c, 3, 50, 93
5, 29709, Note_off_c, 3, 50, 0
5, 29709, End_track
0, 0, End_of_file
