0, 0, Header, 1, 3, 96
1, 0, Start_track
1, 0, Time_signature, 4, 2, 24, 8
1, 0, Title_t, "untitled"
1, 0, Title_t, "Track1"
1, 0, Tempo, 600000
1, 38448, Tempo, 1200000
1, 38448, End_track
2, 0, Start_track
2, 0, Title_t, "Track2"
2, 0, Program_c, 0, 56
2, 0, Control_c, 0, 7, 100
2, 0, Control_c, 0, 10, 96
2, 0, Note_on_c, 0, 69, 93
2, 72, Note_off_c, 0, 69, 0
2, 72, Note_on_c, 0, 62, 93
2, 96, Note_off_c, 0, 62, 0
2, 96, Note_on_c, 0, 61, 93
2, 120, Note_off_c, 0, 61, 0
2, 120, Note_on_c, 0, 62, 93
2, 144, Note_off_c, 0, 62, 0
2, 144, Note_on_c, 0, 64, 93
2, 168, Note_off_c, 0, 64, 0
2, 168, Note_on_c, 0, 62, 93
2, 192, Note_off_c, 0, 62, 0
2, 192, Note_on_c, 0, 64, 93
2, 216, Note_off_c, 0, 64, 0
2, 216, Note_on_c, 0, 65, 93
2, 240, Note_off_c, 0, 65, 0
2, 240, Note_on_c, 0, 64, 93
2, 264, Note_off_c, 0, 64, 0
2, 264, Note_on_c, 0, 65, 93
2, 288, Note_off_c, 0, 65, 0
2, 288, Note_on_c, 0, 67, 93
2, 312, Note_off_c, 0, 67, 0
2, 312, Note_on_c, 0, 65, 93
2, 336, Note_off_c, 0, 65, 0
2, 336, Note_on_c, 0, 67, 93
2, 360, Note_off_c, 0, 67, 0
2, 360, Note_on_c, 0, 69, 93
2, 384, Note_off_c, 0, 69, 0
2, 384, Note_on_c, 0, 67, 93
2, 408, Note_off_c, 0, 67, 0
2, 408, Note_on_c, 0, 69, 93
2, 432, Note_off_c, 0, 69, 0
2, 432, Note_on_c, 0, 70, 93
2, 456, Note_off_c, 0, 70, 0
2, 504, Note_on_c, 0, 69, 93
2, 528, Note_off_c, 0, 69, 0
2, 576, Note_on_c, 0, 67, 93
2, 600, Note_off_c, 0, 67, 0
2, 648, Note_on_c, 0, 67, 93
2, 672, Note_off_c, 0, 67, 0
2, 672, Note_on_c, 0, 65, 93
2, 768, Note_off_c, 0, 65, 0
2, 768, Note_on_c, 0, 64, 93
2, 792, Note_off_c, 0, 64, 0
2, 792, Note_on_c, 0, 65, 93
2, 840, Note_off_c, 0, 65, 0
2, 840, Note_on_c, 0, 67, 93
2, 864, Note_off_c, 0, 67, 0
2, 864, Note_on_c, 0, 69, 93
2, 912, Note_off_c, 0, 69, 0
2, 912, Note_on_c, 0, 79, 93
2, 936, Note_off_c, 0, 79, 0
2, 936, Note_on_c, 0, 77, 93
2, 984, Note_off_c, 0, 77, 0
2, 984, Note_on_c, 0, 69, 93
2, 1008, Note_off_c, 0, 69, 0
2, 1008, Note_on_c, 0, 67, 93
2, 1056, Note_off_c, 0, 67, 0
2, 1056, Note_on_c, 0, 76, 93
2, 1080, Note_off_c, 0, 76, 0
2, 1080, Note_on_c, 0, 74, 93
2, 1128, Note_off_c, 0, 74, 0
2, 1128, Note_on_c, 0, 65, 93
2, 1152, Note_off_c, 0, 65, 0
2, 1152, Note_on_c, 0, 64, 93
2, 1200, Note_off_c, 0, 64, 0
2, 1200, Note_on_c, 0, 74, 93
2, 1224, Note_off_c, 0, 74, 0
2, 1224, Note_on_c, 0, 73, 93
2, 1272, Note_off_c, 0, 73, 0
2, 1272, Note_on_c, 0, 64, 93
2, 1296, Note_off_c, 0, 64, 0
2, 1296, Note_on_c, 0, 64, 93
2, 1320, Note_off_c, 0, 64, 0
2, 1320, Note_on_c, 0, 62, 93
2, 1344, Note_off_c, 0, 62, 0
2, 1344, Note_on_c, 0, 61, 93
2, 1368, Note_off_c, 0, 61, 0
2, 1368, Note_on_c, 0, 62, 93
2, 1392, Note_off_c, 0, 62, 0
2, 1392, Note_on_c, 0, 64, 93
2, 1416, Note_off_c, 0, 64, 0
2, 1416, Note_on_c, 0, 65, 93
2, 1440, Note_off_c, 0, 65, 0
2, 1440, Note_on_c, 0, 67, 93
2, 1464, Note_off_c, 0, 67, 0
2, 1464, Note_on_c, 0, 69, 93
2, 1488, Note_off_c, 0, 69, 0
2, 1488, Note_on_c, 0, 70, 93
2, 1512, Note_off_c, 0, 70, 0
2, 1512, Note_on_c, 0, 70, 93
2, 1536, Note_off_c, 0, 70, 0
2, 1536, Note_on_c, 0, 69, 93
2, 1560, Note_off_c, 0, 69, 0
2, 1560, Note_on_c, 0, 67, 93
2, 1584, Note_off_c, 0, 67, 0
2, 1584, Note_on_c, 0, 69, 93
2, 1608, Note_off_c, 0, 69, 0
2, 1608, Note_on_c, 0, 71, 93
2, 1632, Note_off_c, 0, 71, 0
2, 1632, Note_on_c, 0, 73, 93
2, 1656, Note_off_c, 0, 73, 0
2, 1656, Note_on_c, 0, 74, 93
2, 1680, Note_off_c, 0, 74, 0
2, 1680, Note_on_c, 0, 76, 93
2, 1704, Note_off_c, 0, 76, 0
2, 1704, Note_on_c, 0, 77, 93
2, 1728, Note_off_c, 0, 77, 0
2, 1728, Note_on_c, 0, 77, 93
2, 1752, Note_off_c, 0, 77, 0
2, 1752, Note_on_c, 0, 74, 93
2, 1776, Note_off_c, 0, 74, 0
2, 1776, Note_on_c, 0, 76, 93
2, 1800, Note_off_c, 0, 76, 0
2, 1800, Note_on_c, 0, 76, 93
2, 1824, Note_off_c, 0, 76, 0
2, 1824, Note_on_c, 0, 73, 93
2, 1848, Note_off_c, 0, 73, 0
2, 1848, Note_on_c, 0, 74, 93
2, 1872, Note_off_c, 0, 74, 0
2, 1872, Note_on_c, 0, 74, 93
2, 1896, Note_off_c, 0, 74, 0
2, 1896, Note_on_c, 0, 71, 93
2, 1920, Note_off_c, 0, 71, 0
2, 1920, Note_on_c, 0, 72, 93
2, 1944, Note_off_c, 0, 72, 0
2, 1944, Note_on_c, 0, 72, 93
2, 1968, Note_off_c, 0, 72, 0
2, 1968, Note_on_c, 0, 69, 93
2, 1992, Note_off_c, 0, 69, 0
2, 1992, Note_on_c, 0, 70, 93
2, 2016, Note_off_c, 0, 70, 0
2, 2016, Note_on_c, 0, 70, 93
2, 2040, Note_off_c, 0, 70, 0
2, 2040, Note_on_c, 0, 67, 93
2, 2064, Note_off_c, 0, 67, 0
2, 2064, Note_on_c, 0, 69, 93
2, 2088, Note_off_c, 0, 69, 0
2, 2088, Note_on_c, 0, 69, 93
2, 2112, Note_off_c, 0, 69, 0
2, 2112, Note_on_c, 0, 65, 93
2, 2136, Note_off_c, 0, 65, 0
2, 2136, Note_on_c, 0, 67, 93
2, 2160, Note_off_c, 0, 67, 0
2, 2160, Note_on_c, 0, 67, 93
2, 2184, Note_off_c, 0, 67, 0
2, 2184, Note_on_c, 0, 65, 93
2, 2256, Note_off_c, 0, 65, 0
2, 2256, Note_on_c, 0, 67, 93
2, 2280, Note_off_c, 0, 67, 0
2, 2280, Note_on_c, 0, 69, 93
2, 2304, Note_off_c, 0, 69, 0
2, 2304, Note_on_c, 0, 70, 93
2, 2328, Note_off_c, 0, 70, 0
2, 2328, Note_on_c, 0, 69, 93
2, 2352, Note_off_c, 0, 69, 0
2, 2352, Note_on_c, 0, 67, 93
2, 2376, Note_off_c, 0, 67, 0
2, 2376, Note_on_c, 0, 74, 93
2, 2400, Note_off_c, 0, 74, 0
2, 2400, Note_on_c, 0, 73, 93
2, 2472, Note_off_c, 0, 73, 0
2, 2472, Note_on_c, 0, 74, 93
2, 2496, Note_off_c, 0, 74, 0
2, 2496, Note_on_c, 0, 76, 93
2, 2520, Note_off_c, 0, 76, 0
2, 2520, Note_on_c, 0, 77, 93
2, 2544, Note_off_c, 0, 77, 0
2, 2544, Note_on_c, 0, 76, 93
2, 2568, Note_off_c, 0, 76, 0
2, 2568, Note_on_c, 0, 74, 93
2, 2592, Note_off_c, 0, 74, 0
2, 2592, Note_on_c, 0, 81, 93
2, 2604, Note_off_c, 0, 81, 0
2, 2604, Note_on_c, 0, 80, 93
2, 2616, Note_off_c, 0, 80, 0
2, 2616, Note_on_c, 0, 78, 93
2, 2628, Note_off_c, 0, 78, 0
2, 2628, Note_on_c, 0, 80, 93
2, 2640, Note_off_c, 0, 80, 0
2, 2640, Note_on_c, 0, 81, 93
2, 2652, Note_off_c, 0, 81, 0
2, 2652, Note_on_c, 0, 80, 93
2, 2664, Note_off_c, 0, 80, 0
2, 2664, Note_on_c, 0, 81, 93
2, 2676, Note_off_c, 0, 81, 0
2, 2676, Note_on_c, 0, 80, 93
2, 2688, Note_off_c, 0, 80, 0
2, 2688, Note_on_c, 0, 81, 93
2, 2700, Note_off_c, 0, 81, 0
2, 2700, Note_on_c, 0, 80, 93
2, 2712, Note_off_c, 0, 80, 0
2, 2712, Note_on_c, 0, 81, 93
2, 2724, Note_off_c, 0, 81, 0
2, 2724, Note_on_c, 0, 80, 93
2, 2736, Note_off_c, 0, 80, 0
2, 2736, Note_on_c, 0, 81, 93
2, 2748, Note_off_c, 0, 81, 0
2, 2748, Note_on_c, 0, 80, 93
2, 2760, Note_off_c, 0, 80, 0
2, 2760, Note_on_c, 0, 81, 93
2, 2772, Note_off_c, 0, 81, 0
2, 2772, Note_on_c, 0, 80, 93
2, 2784, Note_off_c, 0, 80, 0
2, 2784, Note_on_c, 0, 81, 93
2, 2796, Note_off_c, 0, 81, 0
2, 2796, Note_on_c, 0, 80, 93
2, 2808, Note_off_c, 0, 80, 0
2, 2808, Note_on_c, 0, 81, 93
2, 2856, Note_off_c, 0, 81, 0
2, 2928, Note_on_c, 0, 73, 93
2, 2952, Note_off_c, 0, 73, 0
2, 2952, Note_on_c, 0, 74, 93
2, 3000, Note_off_c, 0, 74, 0
2, 3000, Note_on_c, 0, 76, 93
2, 3024, Note_off_c, 0, 76, 0
2, 3024, Note_on_c, 0, 69, 93
2, 3048, Note_off_c, 0, 69, 0
2, 3048, Note_on_c, 0, 71, 93
2, 3072, Note_off_c, 0, 71, 0
2, 3072, Note_on_c, 0, 73, 93
2, 3096, Note_off_c, 0, 73, 0
2, 3096, Note_on_c, 0, 74, 93
2, 3120, Note_off_c, 0, 74, 0
2, 3120, Note_on_c, 0, 76, 93
2, 3144, Note_off_c, 0, 76, 0
2, 3144, Note_on_c, 0, 77, 93
2, 3168, Note_off_c, 0, 77, 0
2, 3168, Note_on_c, 0, 67, 93
2, 3264, Note_off_c, 0, 67, 0
2, 3264, Note_on_c, 0, 79, 93
2, 3288, Note_off_c, 0, 79, 0
2, 3288, Note_on_c, 0, 77, 93
2, 3312, Note_off_c, 0, 77, 0
2, 3312, Note_on_c, 0, 76, 93
2, 3336, Note_off_c, 0, 76, 0
2, 3336, Note_on_c, 0, 74, 93
2, 3360, Note_off_c, 0, 74, 0
2, 3360, Note_on_c, 0, 73, 93
2, 3384, Note_off_c, 0, 73, 0
2, 3384, Note_on_c, 0, 74, 93
2, 3480, Note_off_c, 0, 74, 0
2, 3480, Note_on_c, 0, 71, 93
2, 3504, Note_off_c, 0, 71, 0
2, 3504, Note_on_c, 0, 73, 93
2, 3528, Note_off_c, 0, 73, 0
2, 3528, Note_on_c, 0, 74, 93
2, 3552, Note_off_c, 0, 74, 0
2, 3552, Note_on_c, 0, 76, 93
2, 3576, Note_off_c, 0, 76, 0
2, 3576, Note_on_c, 0, 77, 93
2, 3600, Note_off_c, 0, 77, 0
2, 3600, Note_on_c, 0, 76, 93
2, 3624, Note_off_c, 0, 76, 0
2, 3624, Note_on_c, 0, 77, 93
2, 3648, Note_off_c, 0, 77, 0
2, 3648, Note_on_c, 0, 74, 93
2, 3672, Note_off_c, 0, 74, 0
2, 3672, Note_on_c, 0, 73, 93
2, 3696, Note_off_c, 0, 73, 0
2, 3696, Note_on_c, 0, 74, 93
2, 3720, Note_off_c, 0, 74, 0
2, 3720, Note_on_c, 0, 76, 93
2, 3744, Note_off_c, 0, 76, 0
2, 3744, Note_on_c, 0, 69, 93
2, 3840, Note_off_c, 0, 69, 0
2, 3840, Note_on_c, 0, 70, 93
2, 3864, Note_off_c, 0, 70, 0
2, 3864, Note_on_c, 0, 67, 93
2, 3888, Note_off_c, 0, 67, 0
2, 3888, Note_on_c, 0, 65, 93
2, 3912, Note_off_c, 0, 65, 0
2, 3912, Note_on_c, 0, 67, 93
2, 3936, Note_off_c, 0, 67, 0
2, 3936, Note_on_c, 0, 64, 93
2, 3960, Note_off_c, 0, 64, 0
2, 3960, Note_on_c, 0, 65, 93
2, 3984, Note_off_c, 0, 65, 0
2, 3984, Note_on_c, 0, 69, 93
2, 4008, Note_off_c, 0, 69, 0
2, 4008, Note_on_c, 0, 74, 93
2, 4032, Note_off_c, 0, 74, 0
2, 4032, Note_on_c, 0, 72, 93
2, 4056, Note_off_c, 0, 72, 0
2, 4056, Note_on_c, 0, 70, 93
2, 4080, Note_off_c, 0, 70, 0
2, 4080, Note_on_c, 0, 69, 93
2, 4104, Note_off_c, 0, 69, 0
2, 4104, Note_on_c, 0, 70, 93
2, 4128, Note_off_c, 0, 70, 0
2, 4128, Note_on_c, 0, 74, 93
2, 4152, Note_off_c, 0, 74, 0
2, 4152, Note_on_c, 0, 79, 93
2, 4176, Note_off_c, 0, 79, 0
2, 4176, Note_on_c, 0, 73, 93
2, 4200, Note_off_c, 0, 73, 0
2, 4200, Note_on_c, 0, 76, 93
2, 4224, Note_off_c, 0, 76, 0
2, 4224, Note_on_c, 0, 69, 93
2, 4248, Note_off_c, 0, 69, 0
2, 4248, Note_on_c, 0, 70, 93
2, 4272, Note_off_c, 0, 70, 0
2, 4272, Note_on_c, 0, 69, 93
2, 4296, Note_off_c, 0, 69, 0
2, 4296, Note_on_c, 0, 67, 93
2, 4320, Note_off_c, 0, 67, 0
2, 4320, Note_on_c, 0, 65, 93
2, 4344, Note_off_c, 0, 65, 0
2, 4344, Note_on_c, 0, 67, 93
2, 4368, Note_off_c, 0, 67, 0
2, 4368, Note_on_c, 0, 64, 93
2, 4392, Note_off_c, 0, 64, 0
2, 4392, Note_on_c, 0, 65, 93
2, 4440, Note_off_c, 0, 65, 0
2, 4440, Note_on_c, 0, 74, 93
2, 4464, Note_off_c, 0, 74, 0
2, 4464, Note_on_c, 0, 67, 93
2, 4512, Note_off_c, 0, 67, 0
2, 4512, Note_on_c, 0, 65, 93
2, 4536, Note_off_c, 0, 65, 0
2, 4536, Note_on_c, 0, 64, 93
2, 4560, Note_off_c, 0, 64, 0
2, 4560, Note_on_c, 0, 69, 93
2, 4584, Note_off_c, 0, 69, 0
2, 4584, Note_on_c, 0, 67, 93
2, 4608, Note_off_c, 0, 67, 0
2, 4608, Note_on_c, 0, 65, 93
2, 4632, Note_off_c, 0, 65, 0
2, 4632, Note_on_c, 0, 64, 93
2, 4656, Note_off_c, 0, 64, 0
2, 4656, Note_on_c, 0, 62, 93
2, 4680, Note_off_c, 0, 62, 0
2, 4680, Note_on_c, 0, 62, 93
2, 4692, Note_off_c, 0, 62, 0
2, 4692, Note_on_c, 0, 61, 93
2, 4704, Note_off_c, 0, 61, 0
2, 4704, Note_on_c, 0, 62, 93
2, 4716, Note_off_c, 0, 62, 0
2, 4716, Note_on_c, 0, 61, 93
2, 4728, Note_off_c, 0, 61, 0
2, 4728, Note_on_c, 0, 62, 93
2, 4740, Note_off_c, 0, 62, 0
2, 4740, Note_on_c, 0, 61, 93
2, 4752, Note_off_c, 0, 61, 0
2, 4752, Note_on_c, 0, 62, 93
2, 4800, Note_off_c, 0, 62, 0
2, 5184, Note_on_c, 0, 74, 93
2, 5256, Note_off_c, 0, 74, 0
2, 5256, Note_on_c, 0, 69, 93
2, 5280, Note_off_c, 0, 69, 0
2, 5280, Note_on_c, 0, 68, 93
2, 5304, Note_off_c, 0, 68, 0
2, 5304, Note_on_c, 0, 69, 93
2, 5328, Note_off_c, 0, 69, 0
2, 5328, Note_on_c, 0, 71, 93
2, 5352, Note_off_c, 0, 71, 0
2, 5352, Note_on_c, 0, 69, 93
2, 5376, Note_off_c, 0, 69, 0
2, 5376, Note_on_c, 0, 71, 93
2, 5400, Note_off_c, 0, 71, 0
2, 5400, Note_on_c, 0, 72, 93
2, 5424, Note_off_c, 0, 72, 0
2, 5424, Note_on_c, 0, 71, 93
2, 5448, Note_off_c, 0, 71, 0
2, 5448, Note_on_c, 0, 73, 93
2, 5472, Note_off_c, 0, 73, 0
2, 5472, Note_on_c, 0, 74, 93
2, 5496, Note_off_c, 0, 74, 0
2, 5496, Note_on_c, 0, 73, 93
2, 5520, Note_off_c, 0, 73, 0
2, 5520, Note_on_c, 0, 74, 93
2, 5544, Note_off_c, 0, 74, 0
2, 5544, Note_on_c, 0, 76, 93
2, 5568, Note_off_c, 0, 76, 0
2, 5568, Note_on_c, 0, 74, 93
2, 5592, Note_off_c, 0, 74, 0
2, 5592, Note_on_c, 0, 76, 93
2, 5616, Note_off_c, 0, 76, 0
2, 5616, Note_on_c, 0, 77, 93
2, 5640, Note_off_c, 0, 77, 0
2, 5688, Note_on_c, 0, 76, 93
2, 5712, Note_off_c, 0, 76, 0
2, 5760, Note_on_c, 0, 74, 93
2, 5784, Note_off_c, 0, 74, 0
2, 5832, Note_on_c, 0, 74, 93
2, 5856, Note_off_c, 0, 74, 0
2, 5856, Note_on_c, 0, 73, 93
2, 5952, Note_off_c, 0, 73, 0
2, 5952, Note_on_c, 0, 69, 93
2, 5976, Note_off_c, 0, 69, 0
2, 5976, Note_on_c, 0, 71, 93
2, 6024, Note_off_c, 0, 71, 0
2, 6024, Note_on_c, 0, 73, 93
2, 6048, Note_off_c, 0, 73, 0
2, 6048, Note_on_c, 0, 74, 93
2, 6072, Note_off_c, 0, 74, 0
2, 6072, Note_on_c, 0, 72, 93
2, 6096, Note_off_c, 0, 72, 0
2, 6096, Note_on_c, 0, 71, 93
2, 6120, Note_off_c, 0, 71, 0
2, 6120, Note_on_c, 0, 72, 93
2, 6168, Note_off_c, 0, 72, 0
2, 6168, Note_on_c, 0, 81, 93
2, 6192, Note_off_c, 0, 81, 0
2, 6192, Note_on_c, 0, 80, 93
2, 6240, Note_off_c, 0, 80, 0
2, 6240, Note_on_c, 0, 74, 93
2, 6264, Note_off_c, 0, 74, 0
2, 6264, Note_on_c, 0, 76, 93
2, 6312, Note_off_c, 0, 76, 0
2, 6312, Note_on_c, 0, 79, 93
2, 6336, Note_off_c, 0, 79, 0
2, 6336, Note_on_c, 0, 77, 93
2, 6360, Note_off_c, 0, 77, 0
2, 6360, Note_on_c, 0, 76, 93
2, 6384, Note_off_c, 0, 76, 0
2, 6384, Note_on_c, 0, 74, 93
2, 6408, Note_off_c, 0, 74, 0
2, 6408, Note_on_c, 0, 73, 93
2, 6456, Note_off_c, 0, 73, 0
2, 6456, Note_on_c, 0, 82, 93
2, 6480, Note_off_c, 0, 82, 0
2, 6480, Note_on_c, 0, 81, 93
2, 6504, Note_off_c, 0, 81, 0
2, 6504, Note_on_c, 0, 77, 93
2, 6528, Note_off_c, 0, 77, 0
2, 6528, Note_on_c, 0, 74, 93
2, 6552, Note_off_c, 0, 74, 0
2, 6552, Note_on_c, 0, 74, 93
2, 6576, Note_off_c, 0, 74, 0
2, 6576, Note_on_c, 0, 79, 93
2, 6600, Note_off_c, 0, 79, 0
2, 6600, Note_on_c, 0, 72, 93
2, 6624, Note_off_c, 0, 72, 0
2, 6624, Note_on_c, 0, 72, 93
2, 6648, Note_off_c, 0, 72, 0
2, 6648, Note_on_c, 0, 77, 93
2, 6672, Note_off_c, 0, 77, 0
2, 6672, Note_on_c, 0, 70, 93
2, 6696, Note_off_c, 0, 70, 0
2, 6696, Note_on_c, 0, 70, 93
2, 6720, Note_off_c, 0, 70, 0
2, 6720, Note_on_c, 0, 69, 93
2, 6744, Note_off_c, 0, 69, 0
2, 6744, Note_on_c, 0, 67, 93
2, 6768, Note_off_c, 0, 67, 0
2, 6768, Note_on_c, 0, 69, 93
2, 6792, Note_off_c, 0, 69, 0
2, 6792, Note_on_c, 0, 73, 93
2, 6816, Note_off_c, 0, 73, 0
2, 6816, Note_on_c, 0, 76, 93
2, 6840, Note_off_c, 0, 76, 0
2, 6840, Note_on_c, 0, 79, 93
2, 6864, Note_off_c, 0, 79, 0
2, 6864, Note_on_c, 0, 77, 93
2, 6888, Note_off_c, 0, 77, 0
2, 6888, Note_on_c, 0, 76, 93
2, 6912, Note_off_c, 0, 76, 0
2, 6912, Note_on_c, 0, 77, 93
2, 6936, Note_off_c, 0, 77, 0
2, 6936, Note_on_c, 0, 76, 93
2, 6960, Note_off_c, 0, 76, 0
2, 6960, Note_on_c, 0, 74, 93
2, 6984, Note_off_c, 0, 74, 0
2, 6984, Note_on_c, 0, 76, 93
2, 7008, Note_off_c, 0, 76, 0
2, 7008, Note_on_c, 0, 74, 93
2, 7032, Note_off_c, 0, 74, 0
2, 7032, Note_on_c, 0, 72, 93
2, 7056, Note_off_c, 0, 72, 0
2, 7056, Note_on_c, 0, 74, 93
2, 7080, Note_off_c, 0, 74, 0
2, 7080, Note_on_c, 0, 72, 93
2, 7104, Note_off_c, 0, 72, 0
2, 7104, Note_on_c, 0, 71, 93
2, 7128, Note_off_c, 0, 71, 0
2, 7128, Note_on_c, 0, 72, 93
2, 7152, Note_off_c, 0, 72, 0
2, 7152, Note_on_c, 0, 74, 93
2, 7176, Note_off_c, 0, 74, 0
2, 7176, Note_on_c, 0, 76, 93
2, 7200, Note_off_c, 0, 76, 0
2, 7200, Note_on_c, 0, 74, 93
2, 7224, Note_off_c, 0, 74, 0
2, 7224, Note_on_c, 0, 76, 93
2, 7248, Note_off_c, 0, 76, 0
2, 7248, Note_on_c, 0, 77, 93
2, 7272, Note_off_c, 0, 77, 0
2, 7272, Note_on_c, 0, 76, 93
2, 7296, Note_off_c, 0, 76, 0
2, 7296, Note_on_c, 0, 77, 93
2, 7320, Note_off_c, 0, 77, 0
2, 7320, Note_on_c, 0, 79, 93
2, 7344, Note_off_c, 0, 79, 0
2, 7344, Note_on_c, 0, 77, 93
2, 7368, Note_off_c, 0, 77, 0
2, 7368, Note_on_c, 0, 74, 93
2, 7392, Note_off_c, 0, 74, 0
2, 7392, Note_on_c, 0, 81, 93
2, 7416, Note_off_c, 0, 81, 0
2, 7416, Note_on_c, 0, 70, 93
2, 7440, Note_off_c, 0, 70, 0
2, 7440, Note_on_c, 0, 76, 93
2, 7464, Note_off_c, 0, 76, 0
2, 7464, Note_on_c, 0, 79, 93
2, 7488, Note_off_c, 0, 79, 0
2, 7488, Note_on_c, 0, 69, 93
2, 7512, Note_off_c, 0, 69, 0
2, 7512, Note_on_c, 0, 74, 93
2, 7536, Note_off_c, 0, 74, 0
2, 7536, Note_on_c, 0, 77, 93
2, 7560, Note_off_c, 0, 77, 0
2, 7560, Note_on_c, 0, 67, 93
2, 7584, Note_off_c, 0, 67, 0
2, 7584, Note_on_c, 0, 73, 93
2, 7608, Note_off_c, 0, 73, 0
2, 7608, Note_on_c, 0, 76, 93
2, 7632, Note_off_c, 0, 76, 0
2, 7632, Note_on_c, 0, 65, 93
2, 7656, Note_off_c, 0, 65, 0
2, 7656, Note_on_c, 0, 69, 93
2, 7680, Note_off_c, 0, 69, 0
2, 7680, Note_on_c, 0, 67, 93
2, 7704, Note_off_c, 0, 67, 0
2, 7704, Note_on_c, 0, 70, 93
2, 7728, Note_off_c, 0, 70, 0
2, 7728, Note_on_c, 0, 69, 93
2, 7752, Note_off_c, 0, 69, 0
2, 7752, Note_on_c, 0, 73, 93
2, 7776, Note_off_c, 0, 73, 0
2, 7776, Note_on_c, 0, 74, 93
2, 7800, Note_off_c, 0, 74, 0
2, 7800, Note_on_c, 0, 76, 93
2, 7824, Note_off_c, 0, 76, 0
2, 7824, Note_on_c, 0, 77, 93
2, 7848, Note_off_c, 0, 77, 0
2, 7848, Note_on_c, 0, 69, 93
2, 7860, Note_off_c, 0, 69, 0
2, 7860, Note_on_c, 0, 68, 93
2, 7872, Note_off_c, 0, 68, 0
2, 7872, Note_on_c, 0, 65, 93
2, 7884, Note_off_c, 0, 65, 0
2, 7884, Note_on_c, 0, 68, 93
2, 7896, Note_off_c, 0, 68, 0
2, 7896, Note_on_c, 0, 69, 93
2, 7908, Note_off_c, 0, 69, 0
2, 7908, Note_on_c, 0, 68, 93
2, 7920, Note_off_c, 0, 68, 0
2, 7920, Note_on_c, 0, 69, 93
2, 7932, Note_off_c, 0, 69, 0
2, 7932, Note_on_c, 0, 68, 93
2, 7944, Note_off_c, 0, 68, 0
2, 7944, Note_on_c, 0, 69, 93
2, 7956, Note_off_c, 0, 69, 0
2, 7956, Note_on_c, 0, 68, 93
2, 7968, Note_off_c, 0, 68, 0
2, 7968, Note_on_c, 0, 65, 93
2, 7980, Note_off_c, 0, 65, 0
2, 7980, Note_on_c, 0, 68, 93
2, 7992, Note_off_c, 0, 68, 0
2, 7992, Note_on_c, 0, 69, 93
2, 8040, Note_off_c, 0, 69, 0
2, 8112, Note_on_c, 0, 71, 93
2, 8136, Note_off_c, 0, 71, 0
2, 8136, Note_on_c, 0, 72, 93
2, 8184, Note_off_c, 0, 72, 0
2, 8184, Note_on_c, 0, 69, 93
2, 8208, Note_off_c, 0, 69, 0
2, 8208, Note_on_c, 0, 74, 93
2, 8256, Note_off_c, 0, 74, 0
2, 8256, Note_on_c, 0, 77, 93
2, 8280, Note_off_c, 0, 77, 0
2, 8280, Note_on_c, 0, 77, 93
2, 8304, Note_off_c, 0, 77, 0
2, 8304, Note_on_c, 0, 76, 93
2, 8328, Note_off_c, 0, 76, 0
2, 8328, Note_on_c, 0, 74, 93
2, 8352, Note_off_c, 0, 74, 0
2, 8352, Note_on_c, 0, 72, 93
2, 8376, Note_off_c, 0, 72, 0
2, 8376, Note_on_c, 0, 74, 93
2, 8400, Note_off_c, 0, 74, 0
2, 8400, Note_on_c, 0, 71, 93
2, 8424, Note_off_c, 0, 71, 0
2, 8424, Note_on_c, 0, 76, 93
2, 8496, Note_off_c, 0, 76, 0
2, 8496, Note_on_c, 0, 69, 93
2, 8568, Note_off_c, 0, 69, 0
2, 8640, Note_on_c, 0, 69, 93
2, 8712, Note_off_c, 0, 69, 0
2, 8712, Note_on_c, 0, 76, 93
2, 8736, Note_off_c, 0, 76, 0
2, 8736, Note_on_c, 0, 77, 93
2, 8760, Note_off_c, 0, 77, 0
2, 8760, Note_on_c, 0, 76, 93
2, 8784, Note_off_c, 0, 76, 0
2, 8784, Note_on_c, 0, 74, 93
2, 8808, Note_off_c, 0, 74, 0
2, 8808, Note_on_c, 0, 76, 93
2, 8832, Note_off_c, 0, 76, 0
2, 8832, Note_on_c, 0, 74, 93
2, 8856, Note_off_c, 0, 74, 0
2, 8856, Note_on_c, 0, 72, 93
2, 8880, Note_off_c, 0, 72, 0
2, 8880, Note_on_c, 0, 74, 93
2, 8904, Note_off_c, 0, 74, 0
2, 8904, Note_on_c, 0, 72, 93
2, 8928, Note_off_c, 0, 72, 0
2, 8928, Note_on_c, 0, 71, 93
2, 8952, Note_off_c, 0, 71, 0
2, 8952, Note_on_c, 0, 72, 93
2, 8976, Note_off_c, 0, 72, 0
2, 8976, Note_on_c, 0, 71, 93
2, 9000, Note_off_c, 0, 71, 0
2, 9000, Note_on_c, 0, 69, 93
2, 9024, Note_off_c, 0, 69, 0
2, 9024, Note_on_c, 0, 71, 93
2, 9048, Note_off_c, 0, 71, 0
2, 9048, Note_on_c, 0, 69, 93
2, 9072, Note_off_c, 0, 69, 0
2, 9072, Note_on_c, 0, 68, 93
2, 9096, Note_off_c, 0, 68, 0
2, 9144, Note_on_c, 0, 69, 93
2, 9168, Note_off_c, 0, 69, 0
2, 9216, Note_on_c, 0, 71, 93
2, 9240, Note_off_c, 0, 71, 0
2, 9288, Note_on_c, 0, 71, 93
2, 9312, Note_off_c, 0, 71, 0
2, 9312, Note_on_c, 0, 72, 93
2, 9408, Note_off_c, 0, 72, 0
2, 9408, Note_on_c, 0, 74, 93
2, 9432, Note_off_c, 0, 74, 0
2, 9432, Note_on_c, 0, 72, 93
2, 9480, Note_off_c, 0, 72, 0
2, 9480, Note_on_c, 0, 71, 93
2, 9504, Note_off_c, 0, 71, 0
2, 9504, Note_on_c, 0, 69, 93
2, 9528, Note_off_c, 0, 69, 0
2, 9528, Note_on_c, 0, 64, 93
2, 9552, Note_off_c, 0, 64, 0
2, 9552, Note_on_c, 0, 69, 93
2, 9576, Note_off_c, 0, 69, 0
2, 9576, Note_on_c, 0, 72, 93
2, 9600, Note_off_c, 0, 72, 0
2, 9600, Note_on_c, 0, 69, 93
2, 9624, Note_off_c, 0, 69, 0
2, 9624, Note_on_c, 0, 72, 93
2, 9648, Note_off_c, 0, 72, 0
2, 9648, Note_on_c, 0, 76, 93
2, 9696, Note_off_c, 0, 76, 0
2, 9696, Note_on_c, 0, 68, 93
2, 9720, Note_off_c, 0, 68, 0
2, 9720, Note_on_c, 0, 69, 93
2, 9768, Note_off_c, 0, 69, 0
2, 9768, Note_on_c, 0, 77, 93
2, 9792, Note_off_c, 0, 77, 0
2, 9792, Note_on_c, 0, 67, 93
2, 9840, Note_off_c, 0, 67, 0
2, 9840, Note_on_c, 0, 76, 93
2, 9864, Note_off_c, 0, 76, 0
2, 9864, Note_on_c, 0, 65, 93
2, 9912, Note_off_c, 0, 65, 0
2, 9912, Note_on_c, 0, 74, 93
2, 9936, Note_off_c, 0, 74, 0
2, 9936, Note_on_c, 0, 64, 93
2, 9960, Note_off_c, 0, 64, 0
2, 9960, Note_on_c, 0, 71, 93
2, 9984, Note_off_c, 0, 71, 0
2, 9984, Note_on_c, 0, 74, 93
2, 10008, Note_off_c, 0, 74, 0
2, 10008, Note_on_c, 0, 72, 93
2, 10032, Note_off_c, 0, 72, 0
2, 10032, Note_on_c, 0, 71, 93
2, 10056, Note_off_c, 0, 71, 0
2, 10056, Note_on_c, 0, 69, 93
2, 10080, Note_off_c, 0, 69, 0
2, 10080, Note_on_c, 0, 68, 93
2, 10104, Note_off_c, 0, 68, 0
2, 10104, Note_on_c, 0, 74, 93
2, 10128, Note_off_c, 0, 74, 0
2, 10128, Note_on_c, 0, 77, 93
2, 10152, Note_off_c, 0, 77, 0
2, 10152, Note_on_c, 0, 76, 93
2, 10176, Note_off_c, 0, 76, 0
2, 10176, Note_on_c, 0, 74, 93
2, 10200, Note_off_c, 0, 74, 0
2, 10200, Note_on_c, 0, 72, 93
2, 10224, Note_off_c, 0, 72, 0
2, 10224, Note_on_c, 0, 71, 93
2, 10248, Note_off_c, 0, 71, 0
2, 10248, Note_on_c, 0, 69, 93
2, 10272, Note_off_c, 0, 69, 0
2, 10272, Note_on_c, 0, 68, 93
2, 10296, Note_off_c, 0, 68, 0
2, 10296, Note_on_c, 0, 69, 93
2, 10320, Note_off_c, 0, 69, 0
2, 10320, Note_on_c, 0, 64, 93
2, 10344, Note_off_c, 0, 64, 0
2, 10344, Note_on_c, 0, 71, 93
2, 10368, Note_off_c, 0, 71, 0
2, 10368, Note_on_c, 0, 72, 93
2, 10392, Note_off_c, 0, 72, 0
2, 10392, Note_on_c, 0, 71, 93
2, 10416, Note_off_c, 0, 71, 0
2, 10416, Note_on_c, 0, 69, 93
2, 10440, Note_off_c, 0, 69, 0
2, 10440, Note_on_c, 0, 76, 93
2, 10536, Note_off_c, 0, 76, 0
2, 10536, Note_on_c, 0, 71, 93
2, 10560, Note_off_c, 0, 71, 0
2, 10560, Note_on_c, 0, 74, 93
2, 10584, Note_off_c, 0, 74, 0
2, 10584, Note_on_c, 0, 74, 93
2, 10608, Note_off_c, 0, 74, 0
2, 10608, Note_on_c, 0, 72, 93
2, 10632, Note_off_c, 0, 72, 0
2, 10632, Note_on_c, 0, 81, 93
2, 10650, Note_off_c, 0, 81, 0
2, 10656, Note_on_c, 0, 72, 93
2, 10680, Note_off_c, 0, 72, 0
2, 10680, Note_on_c, 0, 71, 93
2, 10704, Note_off_c, 0, 71, 0
2, 10704, Note_on_c, 0, 79, 93
2, 10722, Note_off_c, 0, 79, 0
2, 10728, Note_on_c, 0, 71, 93
2, 10752, Note_off_c, 0, 71, 0
2, 10752, Note_on_c, 0, 69, 93
2, 10776, Note_off_c, 0, 69, 0
2, 10776, Note_on_c, 0, 77, 93
2, 10794, Note_off_c, 0, 77, 0
2, 10800, Note_on_c, 0, 69, 93
2, 10824, Note_off_c, 0, 69, 0
2, 10824, Note_on_c, 0, 68, 93
2, 10848, Note_off_c, 0, 68, 0
2, 10848, Note_on_c, 0, 71, 93
2, 10866, Note_off_c, 0, 71, 0
2, 10872, Note_on_c, 0, 64, 93
2, 10920, Note_off_c, 0, 64, 0
2, 11088, Note_on_c, 0, 74, 93
2, 11184, Note_off_c, 0, 74, 0
2, 11184, Note_on_c, 0, 72, 93
2, 11208, Note_off_c, 0, 72, 0
2, 11208, Note_on_c, 0, 74, 93
2, 11232, Note_off_c, 0, 74, 0
2, 11232, Note_on_c, 0, 76, 93
2, 11256, Note_off_c, 0, 76, 0
2, 11256, Note_on_c, 0, 74, 93
2, 11280, Note_off_c, 0, 74, 0
2, 11280, Note_on_c, 0, 72, 93
2, 11304, Note_off_c, 0, 72, 0
2, 11304, Note_on_c, 0, 71, 93
2, 11328, Note_off_c, 0, 71, 0
2, 11328, Note_on_c, 0, 72, 93
2, 11352, Note_off_c, 0, 72, 0
2, 11352, Note_on_c, 0, 74, 93
2, 11376, Note_off_c, 0, 74, 0
2, 11376, Note_on_c, 0, 76, 93
2, 11400, Note_off_c, 0, 76, 0
2, 11400, Note_on_c, 0, 78, 93
2, 11424, Note_off_c, 0, 78, 0
2, 11424, Note_on_c, 0, 80, 93
2, 11448, Note_off_c, 0, 80, 0
2, 11448, Note_on_c, 0, 81, 93
2, 11472, Note_off_c, 0, 81, 0
2, 11472, Note_on_c, 0, 76, 93
2, 11496, Note_off_c, 0, 76, 0
2, 11496, Note_on_c, 0, 72, 93
2, 11520, Note_off_c, 0, 72, 0
2, 11520, Note_on_c, 0, 74, 93
2, 11544, Note_off_c, 0, 74, 0
2, 11544, Note_on_c, 0, 79, 93
2, 11568, Note_off_c, 0, 79, 0
2, 11568, Note_on_c, 0, 71, 93
2, 11592, Note_off_c, 0, 71, 0
2, 11592, Note_on_c, 0, 72, 93
2, 11616, Note_off_c, 0, 72, 0
2, 11616, Note_on_c, 0, 77, 93
2, 11640, Note_off_c, 0, 77, 0
2, 11640, Note_on_c, 0, 69, 93
2, 11664, Note_off_c, 0, 69, 0
2, 11664, Note_on_c, 0, 71, 93
2, 11688, Note_off_c, 0, 71, 0
2, 11688, Note_on_c, 0, 76, 93
2, 11712, Note_off_c, 0, 76, 0
2, 11712, Note_on_c, 0, 74, 93
2, 11736, Note_off_c, 0, 74, 0
2, 11736, Note_on_c, 0, 72, 93
2, 11760, Note_off_c, 0, 72, 0
2, 11760, Note_on_c, 0, 71, 93
2, 11784, Note_off_c, 0, 71, 0
2, 11784, Note_on_c, 0, 69, 93
2, 11808, Note_off_c, 0, 69, 0
2, 11808, Note_on_c, 0, 71, 93
2, 11832, Note_off_c, 0, 71, 0
2, 11832, Note_on_c, 0, 69, 93
2, 11856, Note_off_c, 0, 69, 0
2, 11856, Note_on_c, 0, 68, 93
2, 11880, Note_off_c, 0, 68, 0
2, 11880, Note_on_c, 0, 69, 93
2, 11904, Note_off_c, 0, 69, 0
2, 11904, Note_on_c, 0, 68, 93
2, 11928, Note_off_c, 0, 68, 0
2, 11928, Note_on_c, 0, 66, 93
2, 11952, Note_off_c, 0, 66, 0
2, 11952, Note_on_c, 0, 68, 93
2, 11976, Note_off_c, 0, 68, 0
2, 11976, Note_on_c, 0, 64, 93
2, 12000, Note_off_c, 0, 64, 0
2, 12000, Note_on_c, 0, 68, 93
2, 12024, Note_off_c, 0, 68, 0
2, 12024, Note_on_c, 0, 71, 93
2, 12048, Note_off_c, 0, 71, 0
2, 12048, Note_on_c, 0, 76, 93
2, 12072, Note_off_c, 0, 76, 0
2, 12072, Note_on_c, 0, 74, 93
2, 12096, Note_off_c, 0, 74, 0
2, 12096, Note_on_c, 0, 72, 93
2, 12120, Note_off_c, 0, 72, 0
2, 12120, Note_on_c, 0, 71, 93
2, 12144, Note_off_c, 0, 71, 0
2, 12144, Note_on_c, 0, 69, 93
2, 12168, Note_off_c, 0, 69, 0
2, 12168, Note_on_c, 0, 74, 93
2, 12264, Note_off_c, 0, 74, 0
2, 12264, Note_on_c, 0, 72, 93
2, 12288, Note_off_c, 0, 72, 0
2, 12288, Note_on_c, 0, 71, 93
2, 12312, Note_off_c, 0, 71, 0
2, 12312, Note_on_c, 0, 72, 93
2, 12336, Note_off_c, 0, 72, 0
2, 12384, Note_on_c, 0, 77, 93
2, 12408, Note_off_c, 0, 77, 0
2, 12456, Note_on_c, 0, 76, 93
2, 12480, Note_off_c, 0, 76, 0
2, 12528, Note_on_c, 0, 74, 93
2, 12576, Note_off_c, 0, 74, 0
2, 12576, Note_on_c, 0, 68, 93
2, 12600, Note_off_c, 0, 68, 0
2, 12600, Note_on_c, 0, 69, 93
2, 12648, Note_off_c, 0, 69, 0
2, 12648, Note_on_c, 0, 72, 93
2, 12672, Note_off_c, 0, 72, 0
2, 12672, Note_on_c, 0, 68, 93
2, 12684, Note_off_c, 0, 68, 0
2, 12684, Note_on_c, 0, 65, 93
2, 12696, Note_off_c, 0, 65, 0
2, 12696, Note_on_c, 0, 68, 93
2, 12708, Note_off_c, 0, 68, 0
2, 12708, Note_on_c, 0, 65, 93
2, 12720, Note_off_c, 0, 65, 0
2, 12720, Note_on_c, 0, 64, 93
2, 12732, Note_off_c, 0, 64, 0
2, 12732, Note_on_c, 0, 65, 93
2, 12744, Note_off_c, 0, 65, 0
2, 12744, Note_on_c, 0, 64, 93
2, 12792, Note_off_c, 0, 64, 0
2, 12984, Note_on_c, 0, 62, 93
2, 13008, Note_off_c, 0, 62, 0
2, 13008, Note_on_c, 0, 64, 93
2, 13032, Note_off_c, 0, 64, 0
2, 13032, Note_on_c, 0, 65, 93
2, 13056, Note_off_c, 0, 65, 0
2, 13056, Note_on_c, 0, 67, 93
2, 13080, Note_off_c, 0, 67, 0
2, 13080, Note_on_c, 0, 65, 93
2, 13104, Note_off_c, 0, 65, 0
2, 13104, Note_on_c, 0, 64, 93
2, 13200, Note_off_c, 0, 64, 0
2, 13200, Note_on_c, 0, 65, 93
2, 13224, Note_off_c, 0, 65, 0
2, 13224, Note_on_c, 0, 67, 93
2, 13248, Note_off_c, 0, 67, 0
2, 13248, Note_on_c, 0, 69, 93
2, 13272, Note_off_c, 0, 69, 0
2, 13272, Note_on_c, 0, 70, 93
2, 13296, Note_off_c, 0, 70, 0
2, 13296, Note_on_c, 0, 69, 93
2, 13320, Note_off_c, 0, 69, 0
2, 13320, Note_on_c, 0, 67, 93
2, 13344, Note_off_c, 0, 67, 0
2, 13344, Note_on_c, 0, 69, 93
2, 13368, Note_off_c, 0, 69, 0
2, 13368, Note_on_c, 0, 67, 93
2, 13392, Note_off_c, 0, 67, 0
2, 13392, Note_on_c, 0, 65, 93
2, 13416, Note_off_c, 0, 65, 0
2, 13416, Note_on_c, 0, 67, 93
2, 13440, Note_off_c, 0, 67, 0
2, 13440, Note_on_c, 0, 65, 93
2, 13464, Note_off_c, 0, 65, 0
2, 13464, Note_on_c, 0, 64, 93
2, 13488, Note_off_c, 0, 64, 0
2, 13488, Note_on_c, 0, 65, 93
2, 13512, Note_off_c, 0, 65, 0
2, 13512, Note_on_c, 0, 64, 93
2, 13536, Note_off_c, 0, 64, 0
2, 13536, Note_on_c, 0, 62, 93
2, 13560, Note_off_c, 0, 62, 0
2, 13560, Note_on_c, 0, 64, 93
2, 13584, Note_off_c, 0, 64, 0
2, 13584, Note_on_c, 0, 62, 93
2, 13608, Note_off_c, 0, 62, 0
2, 13608, Note_on_c, 0, 61, 93
2, 13632, Note_off_c, 0, 61, 0
2, 13680, Note_on_c, 0, 62, 93
2, 13704, Note_off_c, 0, 62, 0
2, 13752, Note_on_c, 0, 64, 93
2, 13776, Note_off_c, 0, 64, 0
2, 13824, Note_on_c, 0, 65, 93
2, 13944, Note_off_c, 0, 65, 0
2, 13944, Note_on_c, 0, 69, 93
2, 13968, Note_off_c, 0, 69, 0
2, 13968, Note_on_c, 0, 69, 93
2, 13980, Note_off_c, 0, 69, 0
2, 13980, Note_on_c, 0, 67, 93
2, 13992, Note_off_c, 0, 67, 0
2, 13992, Note_on_c, 0, 69, 93
2, 14004, Note_off_c, 0, 69, 0
2, 14004, Note_on_c, 0, 67, 93
2, 14016, Note_off_c, 0, 67, 0
2, 14016, Note_on_c, 0, 65, 93
2, 14040, Note_off_c, 0, 65, 0
2, 14040, Note_on_c, 0, 67, 93
2, 14064, Note_off_c, 0, 67, 0
2, 14064, Note_on_c, 0, 65, 93
2, 14088, Note_off_c, 0, 65, 0
2, 14088, Note_on_c, 0, 64, 93
2, 14112, Note_off_c, 0, 64, 0
2, 14112, Note_on_c, 0, 74, 93
2, 14124, Note_off_c, 0, 74, 0
2, 14124, Note_on_c, 0, 73, 93
2, 14136, Note_off_c, 0, 73, 0
2, 14136, Note_on_c, 0, 70, 93
2, 14148, Note_off_c, 0, 70, 0
2, 14148, Note_on_c, 0, 73, 93
2, 14160, Note_off_c, 0, 73, 0
2, 14160, Note_on_c, 0, 74, 93
2, 14172, Note_off_c, 0, 74, 0
2, 14172, Note_on_c, 0, 73, 93
2, 14184, Note_off_c, 0, 73, 0
2, 14184, Note_on_c, 0, 74, 93
2, 14196, Note_off_c, 0, 74, 0
2, 14196, Note_on_c, 0, 73, 93
2, 14208, Note_off_c, 0, 73, 0
2, 14208, Note_on_c, 0, 74, 93
2, 14220, Note_off_c, 0, 74, 0
2, 14220, Note_on_c, 0, 73, 93
2, 14232, Note_off_c, 0, 73, 0
2, 14232, Note_on_c, 0, 70, 93
2, 14244, Note_off_c, 0, 70, 0
2, 14244, Note_on_c, 0, 73, 93
2, 14256, Note_off_c, 0, 73, 0
2, 14256, Note_on_c, 0, 74, 93
2, 14280, Note_off_c, 0, 74, 0
2, 14280, Note_on_c, 0, 70, 93
2, 14304, Note_off_c, 0, 70, 0
2, 14304, Note_on_c, 0, 79, 93
2, 14328, Note_off_c, 0, 79, 0
2, 14328, Note_on_c, 0, 72, 93
2, 14352, Note_off_c, 0, 72, 0
2, 14352, Note_on_c, 0, 69, 93
2, 14376, Note_off_c, 0, 69, 0
2, 14376, Note_on_c, 0, 77, 93
2, 14400, Note_off_c, 0, 77, 0
2, 14400, Note_on_c, 0, 70, 93
2, 14424, Note_off_c, 0, 70, 0
2, 14424, Note_on_c, 0, 67, 93
2, 14448, Note_off_c, 0, 67, 0
2, 14448, Note_on_c, 0, 76, 93
2, 14472, Note_off_c, 0, 76, 0
2, 14472, Note_on_c, 0, 69, 93
2, 14496, Note_off_c, 0, 69, 0
2, 14496, Note_on_c, 0, 67, 93
2, 14520, Note_off_c, 0, 67, 0
2, 14520, Note_on_c, 0, 76, 93
2, 14544, Note_off_c, 0, 76, 0
2, 14544, Note_on_c, 0, 69, 93
2, 14568, Note_off_c, 0, 69, 0
2, 14568, Note_on_c, 0, 65, 93
2, 14592, Note_off_c, 0, 65, 0
2, 14592, Note_on_c, 0, 74, 93
2, 14616, Note_off_c, 0, 74, 0
2, 14616, Note_on_c, 0, 67, 93
2, 14640, Note_off_c, 0, 67, 0
2, 14640, Note_on_c, 0, 64, 93
2, 14664, Note_off_c, 0, 64, 0
2, 14664, Note_on_c, 0, 73, 93
2, 14688, Note_off_c, 0, 73, 0
2, 14688, Note_on_c, 0, 74, 93
2, 14712, Note_off_c, 0, 74, 0
2, 14712, Note_on_c, 0, 69, 93
2, 14736, Note_off_c, 0, 69, 0
2, 14736, Note_on_c, 0, 65, 93
2, 14760, Note_off_c, 0, 65, 0
2, 14760, Note_on_c, 0, 62, 93
2, 14784, Note_off_c, 0, 62, 0
2, 14784, Note_on_c, 0, 64, 93
2, 14808, Note_off_c, 0, 64, 0
2, 14808, Note_on_c, 0, 65, 93
2, 14832, Note_off_c, 0, 65, 0
2, 14832, Note_on_c, 0, 64, 93
2, 14856, Note_off_c, 0, 64, 0
2, 14856, Note_on_c, 0, 65, 93
2, 14880, Note_off_c, 0, 65, 0
2, 14880, Note_on_c, 0, 62, 93
2, 14904, Note_off_c, 0, 62, 0
2, 14904, Note_on_c, 0, 64, 93
2, 15000, Note_off_c, 0, 64, 0
2, 15000, Note_on_c, 0, 65, 93
2, 15024, Note_off_c, 0, 65, 0
2, 15024, Note_on_c, 0, 67, 93
2, 15048, Note_off_c, 0, 67, 0
2, 15048, Note_on_c, 0, 65, 93
2, 15072, Note_off_c, 0, 65, 0
2, 15072, Note_on_c, 0, 67, 93
2, 15096, Note_off_c, 0, 67, 0
2, 15096, Note_on_c, 0, 64, 93
2, 15120, Note_off_c, 0, 64, 0
2, 15120, Note_on_c, 0, 65, 93
2, 15144, Note_off_c, 0, 65, 0
2, 15192, Note_on_c, 0, 64, 93
2, 15216, Note_off_c, 0, 64, 0
2, 15264, Note_on_c, 0, 62, 93
2, 15288, Note_off_c, 0, 62, 0
2, 15336, Note_on_c, 0, 61, 93
2, 15360, Note_off_c, 0, 61, 0
2, 15408, Note_on_c, 0, 62, 93
2, 15432, Note_off_c, 0, 62, 0
2, 15480, Note_on_c, 0, 64, 93
2, 15504, Note_off_c, 0, 64, 0
2, 15552, Note_on_c, 0, 65, 93
2, 15576, Note_off_c, 0, 65, 0
2, 15576, Note_on_c, 0, 64, 93
2, 15600, Note_off_c, 0, 64, 0
2, 15600, Note_on_c, 0, 62, 93
2, 15624, Note_off_c, 0, 62, 0
2, 15624, Note_on_c, 0, 70, 93
2, 15648, Note_off_c, 0, 70, 0
2, 15648, Note_on_c, 0, 69, 93
2, 15672, Note_off_c, 0, 69, 0
2, 15672, Note_on_c, 0, 67, 93
2, 15696, Note_off_c, 0, 67, 0
2, 15696, Note_on_c, 0, 73, 93
2, 15744, Note_off_c, 0, 73, 0
2, 15792, Note_on_c, 0, 67, 93
2, 15816, Note_off_c, 0, 67, 0
2, 15816, Note_on_c, 0, 62, 93
2, 15840, Note_off_c, 0, 62, 0
2, 15840, Note_on_c, 0, 61, 93
2, 15864, Note_off_c, 0, 61, 0
2, 15864, Note_on_c, 0, 62, 93
2, 15888, Note_off_c, 0, 62, 0
2, 15888, Note_on_c, 0, 64, 93
2, 15912, Note_off_c, 0, 64, 0
2, 15912, Note_on_c, 0, 57, 93
2, 15936, Note_off_c, 0, 57, 0
2, 15936, Note_on_c, 0, 59, 93
2, 15960, Note_off_c, 0, 59, 0
2, 15960, Note_on_c, 0, 61, 93
2, 15984, Note_off_c, 0, 61, 0
2, 15984, Note_on_c, 0, 62, 93
2, 16008, Note_off_c, 0, 62, 0
2, 16008, Note_on_c, 0, 55, 93
2, 16032, Note_off_c, 0, 55, 0
2, 16032, Note_on_c, 0, 58, 93
2, 16056, Note_off_c, 0, 58, 0
2, 16056, Note_on_c, 0, 60, 93
2, 16080, Note_off_c, 0, 60, 0
2, 16080, Note_on_c, 0, 53, 93
2, 16104, Note_off_c, 0, 53, 0
2, 16104, Note_on_c, 0, 57, 93
2, 16128, Note_off_c, 0, 57, 0
2, 16128, Note_on_c, 0, 58, 93
2, 16152, Note_off_c, 0, 58, 0
2, 16152, Note_on_c, 0, 52, 93
2, 16176, Note_off_c, 0, 52, 0
2, 16176, Note_on_c, 0, 55, 93
2, 16200, Note_off_c, 0, 55, 0
2, 16200, Note_on_c, 0, 57, 93
2, 16224, Note_off_c, 0, 57, 0
2, 16224, Note_on_c, 0, 69, 93
2, 16248, Note_off_c, 0, 69, 0
2, 16248, Note_on_c, 0, 67, 93
2, 16272, Note_off_c, 0, 67, 0
2, 16272, Note_on_c, 0, 65, 93
2, 16296, Note_off_c, 0, 65, 0
2, 16296, Note_on_c, 0, 74, 93
2, 16320, Note_off_c, 0, 74, 0
2, 16320, Note_on_c, 0, 72, 93
2, 16344, Note_off_c, 0, 72, 0
2, 16344, Note_on_c, 0, 70, 93
2, 16368, Note_off_c, 0, 70, 0
2, 16368, Note_on_c, 0, 69, 93
2, 16392, Note_off_c, 0, 69, 0
2, 16392, Note_on_c, 0, 70, 93
2, 16416, Note_off_c, 0, 70, 0
2, 16416, Note_on_c, 0, 69, 93
2, 16488, Note_off_c, 0, 69, 0
2, 16488, Note_on_c, 0, 62, 93
2, 16512, Note_off_c, 0, 62, 0
2, 16512, Note_on_c, 0, 61, 93
2, 16536, Note_off_c, 0, 61, 0
2, 16536, Note_on_c, 0, 62, 93
2, 16560, Note_off_c, 0, 62, 0
2, 16560, Note_on_c, 0, 64, 93
2, 16584, Note_off_c, 0, 64, 0
2, 16584, Note_on_c, 0, 62, 93
2, 16608, Note_off_c, 0, 62, 0
2, 16608, Note_on_c, 0, 64, 93
2, 16632, Note_off_c, 0, 64, 0
2, 16632, Note_on_c, 0, 65, 93
2, 16656, Note_off_c, 0, 65, 0
2, 16656, Note_on_c, 0, 64, 93
2, 16680, Note_off_c, 0, 64, 0
2, 16680, Note_on_c, 0, 65, 93
2, 16704, Note_off_c, 0, 65, 0
2, 16704, Note_on_c, 0, 67, 93
2, 16728, Note_off_c, 0, 67, 0
2, 16728, Note_on_c, 0, 65, 93
2, 16752, Note_off_c, 0, 65, 0
2, 16752, Note_on_c, 0, 67, 93
2, 16776, Note_off_c, 0, 67, 0
2, 16776, Note_on_c, 0, 69, 93
2, 16800, Note_off_c, 0, 69, 0
2, 16800, Note_on_c, 0, 67, 93
2, 16824, Note_off_c, 0, 67, 0
2, 16824, Note_on_c, 0, 69, 93
2, 16848, Note_off_c, 0, 69, 0
2, 16848, Note_on_c, 0, 70, 93
2, 16872, Note_off_c, 0, 70, 0
2, 16920, Note_on_c, 0, 69, 93
2, 16944, Note_off_c, 0, 69, 0
2, 16992, Note_on_c, 0, 67, 93
2, 17016, Note_off_c, 0, 67, 0
2, 17064, Note_on_c, 0, 67, 93
2, 17088, Note_off_c, 0, 67, 0
2, 17088, Note_on_c, 0, 65, 93
2, 17184, Note_off_c, 0, 65, 0
2, 17184, Note_on_c, 0, 64, 93
2, 17208, Note_off_c, 0, 64, 0
2, 17208, Note_on_c, 0, 65, 93
2, 17256, Note_off_c, 0, 65, 0
2, 17256, Note_on_c, 0, 67, 93
2, 17280, Note_off_c, 0, 67, 0
2, 17280, Note_on_c, 0, 69, 93
2, 17328, Note_off_c, 0, 69, 0
2, 17328, Note_on_c, 0, 79, 93
2, 17352, Note_off_c, 0, 79, 0
2, 17352, Note_on_c, 0, 77, 93
2, 17400, Note_off_c, 0, 77, 0
2, 17400, Note_on_c, 0, 69, 93
2, 17424, Note_off_c, 0, 69, 0
2, 17424, Note_on_c, 0, 67, 93
2, 17472, Note_off_c, 0, 67, 0
2, 17472, Note_on_c, 0, 76, 93
2, 17496, Note_off_c, 0, 76, 0
2, 17496, Note_on_c, 0, 74, 93
2, 17544, Note_off_c, 0, 74, 0
2, 17544, Note_on_c, 0, 65, 93
2, 17568, Note_off_c, 0, 65, 0
2, 17568, Note_on_c, 0, 64, 93
2, 17616, Note_off_c, 0, 64, 0
2, 17616, Note_on_c, 0, 74, 93
2, 17640, Note_off_c, 0, 74, 0
2, 17640, Note_on_c, 0, 73, 93
2, 17688, Note_off_c, 0, 73, 0
2, 17688, Note_on_c, 0, 64, 93
2, 17712, Note_off_c, 0, 64, 0
2, 17712, Note_on_c, 0, 64, 93
2, 17736, Note_off_c, 0, 64, 0
2, 17736, Note_on_c, 0, 62, 93
2, 17760, Note_off_c, 0, 62, 0
2, 17760, Note_on_c, 0, 61, 93
2, 17784, Note_off_c, 0, 61, 0
2, 17784, Note_on_c, 0, 62, 93
2, 17808, Note_off_c, 0, 62, 0
2, 17808, Note_on_c, 0, 64, 93
2, 17832, Note_off_c, 0, 64, 0
2, 17832, Note_on_c, 0, 65, 93
2, 17856, Note_off_c, 0, 65, 0
2, 17856, Note_on_c, 0, 67, 93
2, 17880, Note_off_c, 0, 67, 0
2, 17880, Note_on_c, 0, 69, 93
2, 17904, Note_off_c, 0, 69, 0
2, 17904, Note_on_c, 0, 70, 93
2, 17928, Note_off_c, 0, 70, 0
2, 17928, Note_on_c, 0, 70, 93
2, 17952, Note_off_c, 0, 70, 0
2, 17952, Note_on_c, 0, 69, 93
2, 17976, Note_off_c, 0, 69, 0
2, 17976, Note_on_c, 0, 67, 93
2, 18000, Note_off_c, 0, 67, 0
2, 18000, Note_on_c, 0, 69, 93
2, 18024, Note_off_c, 0, 69, 0
2, 18024, Note_on_c, 0, 71, 93
2, 18048, Note_off_c, 0, 71, 0
2, 18048, Note_on_c, 0, 73, 93
2, 18072, Note_off_c, 0, 73, 0
2, 18072, Note_on_c, 0, 74, 93
2, 18096, Note_off_c, 0, 74, 0
2, 18096, Note_on_c, 0, 76, 93
2, 18120, Note_off_c, 0, 76, 0
2, 18120, Note_on_c, 0, 77, 93
2, 18144, Note_off_c, 0, 77, 0
2, 18144, Note_on_c, 0, 77, 93
2, 18168, Note_off_c, 0, 77, 0
2, 18168, Note_on_c, 0, 74, 93
2, 18192, Note_off_c, 0, 74, 0
2, 18192, Note_on_c, 0, 76, 93
2, 18216, Note_off_c, 0, 76, 0
2, 18216, Note_on_c, 0, 76, 93
2, 18240, Note_off_c, 0, 76, 0
2, 18240, Note_on_c, 0, 73, 93
2, 18264, Note_off_c, 0, 73, 0
2, 18264, Note_on_c, 0, 74, 93
2, 18288, Note_off_c, 0, 74, 0
2, 18288, Note_on_c, 0, 74, 93
2, 18312, Note_off_c, 0, 74, 0
2, 18312, Note_on_c, 0, 71, 93
2, 18336, Note_off_c, 0, 71, 0
2, 18336, Note_on_c, 0, 72, 93
2, 18360, Note_off_c, 0, 72, 0
2, 18360, Note_on_c, 0, 72, 93
2, 18384, Note_off_c, 0, 72, 0
2, 18384, Note_on_c, 0, 69, 93
2, 18408, Note_off_c, 0, 69, 0
2, 18408, Note_on_c, 0, 70, 93
2, 18432, Note_off_c, 0, 70, 0
2, 18432, Note_on_c, 0, 70, 93
2, 18456, Note_off_c, 0, 70, 0
2, 18456, Note_on_c, 0, 67, 93
2, 18480, Note_off_c, 0, 67, 0
2, 18480, Note_on_c, 0, 69, 93
2, 18504, Note_off_c, 0, 69, 0
2, 18504, Note_on_c, 0, 69, 93
2, 18528, Note_off_c, 0, 69, 0
2, 18528, Note_on_c, 0, 65, 93
2, 18552, Note_off_c, 0, 65, 0
2, 18552, Note_on_c, 0, 67, 93
2, 18576, Note_off_c, 0, 67, 0
2, 18576, Note_on_c, 0, 67, 93
2, 18600, Note_off_c, 0, 67, 0
2, 18600, Note_on_c, 0, 65, 93
2, 18672, Note_off_c, 0, 65, 0
2, 18672, Note_on_c, 0, 67, 93
2, 18696, Note_off_c, 0, 67, 0
2, 18696, Note_on_c, 0, 69, 93
2, 18720, Note_off_c, 0, 69, 0
2, 18720, Note_on_c, 0, 70, 93
2, 18744, Note_off_c, 0, 70, 0
2, 18744, Note_on_c, 0, 69, 93
2, 18768, Note_off_c, 0, 69, 0
2, 18768, Note_on_c, 0, 67, 93
2, 18792, Note_off_c, 0, 67, 0
2, 18792, Note_on_c, 0, 74, 93
2, 18816, Note_off_c, 0, 74, 0
2, 18816, Note_on_c, 0, 73, 93
2, 18888, Note_off_c, 0, 73, 0
2, 18888, Note_on_c, 0, 74, 93
2, 18912, Note_off_c, 0, 74, 0
2, 18912, Note_on_c, 0, 76, 93
2, 18936, Note_off_c, 0, 76, 0
2, 18936, Note_on_c, 0, 77, 93
2, 18960, Note_off_c, 0, 77, 0
2, 18960, Note_on_c, 0, 76, 93
2, 18984, Note_off_c, 0, 76, 0
2, 18984, Note_on_c, 0, 74, 93
2, 19008, Note_off_c, 0, 74, 0
2, 19008, Note_on_c, 0, 81, 93
2, 19020, Note_off_c, 0, 81, 0
2, 19020, Note_on_c, 0, 80, 93
2, 19032, Note_off_c, 0, 80, 0
2, 19032, Note_on_c, 0, 78, 93
2, 19044, Note_off_c, 0, 78, 0
2, 19044, Note_on_c, 0, 80, 93
2, 19056, Note_off_c, 0, 80, 0
2, 19056, Note_on_c, 0, 81, 93
2, 19068, Note_off_c, 0, 81, 0
2, 19068, Note_on_c, 0, 80, 93
2, 19080, Note_off_c, 0, 80, 0
2, 19080, Note_on_c, 0, 81, 93
2, 19092, Note_off_c, 0, 81, 0
2, 19092, Note_on_c, 0, 80, 93
2, 19104, Note_off_c, 0, 80, 0
2, 19104, Note_on_c, 0, 81, 93
2, 19116, Note_off_c, 0, 81, 0
2, 19116, Note_on_c, 0, 80, 93
2, 19128, Note_off_c, 0, 80, 0
2, 19128, Note_on_c, 0, 81, 93
2, 19140, Note_off_c, 0, 81, 0
2, 19140, Note_on_c, 0, 80, 93
2, 19152, Note_off_c, 0, 80, 0
2, 19152, Note_on_c, 0, 81, 93
2, 19164, Note_off_c, 0, 81, 0
2, 19164, Note_on_c, 0, 80, 93
2, 19176, Note_off_c, 0, 80, 0
2, 19176, Note_on_c, 0, 81, 93
2, 19188, Note_off_c, 0, 81, 0
2, 19188, Note_on_c, 0, 80, 93
2, 19200, Note_off_c, 0, 80, 0
2, 19200, Note_on_c, 0, 81, 93
2, 19212, Note_off_c, 0, 81, 0
2, 19212, Note_on_c, 0, 80, 93
2, 19224, Note_off_c, 0, 80, 0
2, 19224, Note_on_c, 0, 81, 93
2, 19272, Note_off_c, 0, 81, 0
2, 19344, Note_on_c, 0, 73, 93
2, 19368, Note_off_c, 0, 73, 0
2, 19368, Note_on_c, 0, 74, 93
2, 19416, Note_off_c, 0, 74, 0
2, 19416, Note_on_c, 0, 76, 93
2, 19440, Note_off_c, 0, 76, 0
2, 19440, Note_on_c, 0, 69, 93
2, 19464, Note_off_c, 0, 69, 0
2, 19464, Note_on_c, 0, 71, 93
2, 19488, Note_off_c, 0, 71, 0
2, 19488, Note_on_c, 0, 73, 93
2, 19512, Note_off_c, 0, 73, 0
2, 19512, Note_on_c, 0, 74, 93
2, 19536, Note_off_c, 0, 74, 0
2, 19536, Note_on_c, 0, 76, 93
2, 19560, Note_off_c, 0, 76, 0
2, 19560, Note_on_c, 0, 77, 93
2, 19584, Note_off_c, 0, 77, 0
2, 19584, Note_on_c, 0, 67, 93
2, 19680, Note_off_c, 0, 67, 0
2, 19680, Note_on_c, 0, 79, 93
2, 19704, Note_off_c, 0, 79, 0
2, 19704, Note_on_c, 0, 77, 93
2, 19728, Note_off_c, 0, 77, 0
2, 19728, Note_on_c, 0, 76, 93
2, 19752, Note_off_c, 0, 76, 0
2, 19752, Note_on_c, 0, 74, 93
2, 19776, Note_off_c, 0, 74, 0
2, 19776, Note_on_c, 0, 73, 93
2, 19800, Note_off_c, 0, 73, 0
2, 19800, Note_on_c, 0, 74, 93
2, 19896, Note_off_c, 0, 74, 0
2, 19896, Note_on_c, 0, 71, 93
2, 19920, Note_off_c, 0, 71, 0
2, 19920, Note_on_c, 0, 73, 93
2, 19944, Note_off_c, 0, 73, 0
2, 19944, Note_on_c, 0, 74, 93
2, 19968, Note_off_c, 0, 74, 0
2, 19968, Note_on_c, 0, 76, 93
2, 19992, Note_off_c, 0, 76, 0
2, 19992, Note_on_c, 0, 77, 93
2, 20016, Note_off_c, 0, 77, 0
2, 20016, Note_on_c, 0, 76, 93
2, 20040, Note_off_c, 0, 76, 0
2, 20040, Note_on_c, 0, 77, 93
2, 20064, Note_off_c, 0, 77, 0
2, 20064, Note_on_c, 0, 74, 93
2, 20088, Note_off_c, 0, 74, 0
2, 20088, Note_on_c, 0, 73, 93
2, 20112, Note_off_c, 0, 73, 0
2, 20112, Note_on_c, 0, 74, 93
2, 20136, Note_off_c, 0, 74, 0
2, 20136, Note_on_c, 0, 76, 93
2, 20160, Note_off_c, 0, 76, 0
2, 20160, Note_on_c, 0, 69, 93
2, 20256, Note_off_c, 0, 69, 0
2, 20256, Note_on_c, 0, 70, 93
2, 20280, Note_off_c, 0, 70, 0
2, 20280, Note_on_c, 0, 67, 93
2, 20304, Note_off_c, 0, 67, 0
2, 20304, Note_on_c, 0, 65, 93
2, 20328, Note_off_c, 0, 65, 0
2, 20328, Note_on_c, 0, 67, 93
2, 20352, Note_off_c, 0, 67, 0
2, 20352, Note_on_c, 0, 64, 93
2, 20376, Note_off_c, 0, 64, 0
2, 20376, Note_on_c, 0, 65, 93
2, 20400, Note_off_c, 0, 65, 0
2, 20400, Note_on_c, 0, 69, 93
2, 20424, Note_off_c, 0, 69, 0
2, 20424, Note_on_c, 0, 74, 93
2, 20448, Note_off_c, 0, 74, 0
2, 20448, Note_on_c, 0, 72, 93
2, 20472, Note_off_c, 0, 72, 0
2, 20472, Note_on_c, 0, 70, 93
2, 20496, Note_off_c, 0, 70, 0
2, 20496, Note_on_c, 0, 69, 93
2, 20520, Note_off_c, 0, 69, 0
2, 20520, Note_on_c, 0, 70, 93
2, 20544, Note_off_c, 0, 70, 0
2, 20544, Note_on_c, 0, 74, 93
2, 20568, Note_off_c, 0, 74, 0
2, 20568, Note_on_c, 0, 79, 93
2, 20592, Note_off_c, 0, 79, 0
2, 20592, Note_on_c, 0, 73, 93
2, 20616, Note_off_c, 0, 73, 0
2, 20616, Note_on_c, 0, 76, 93
2, 20640, Note_off_c, 0, 76, 0
2, 20640, Note_on_c, 0, 69, 93
2, 20664, Note_off_c, 0, 69, 0
2, 20664, Note_on_c, 0, 70, 93
2, 20688, Note_off_c, 0, 70, 0
2, 20688, Note_on_c, 0, 69, 93
2, 20712, Note_off_c, 0, 69, 0
2, 20712, Note_on_c, 0, 67, 93
2, 20736, Note_off_c, 0, 67, 0
2, 20736, Note_on_c, 0, 65, 93
2, 20760, Note_off_c, 0, 65, 0
2, 20760, Note_on_c, 0, 67, 93
2, 20784, Note_off_c, 0, 67, 0
2, 20784, Note_on_c, 0, 64, 93
2, 20808, Note_off_c, 0, 64, 0
2, 20808, Note_on_c, 0, 65, 93
2, 20856, Note_off_c, 0, 65, 0
2, 20856, Note_on_c, 0, 74, 93
2, 20880, Note_off_c, 0, 74, 0
2, 20880, Note_on_c, 0, 67, 93
2, 20928, Note_off_c, 0, 67, 0
2, 20928, Note_on_c, 0, 65, 93
2, 20952, Note_off_c, 0, 65, 0
2, 20952, Note_on_c, 0, 64, 93
2, 20976, Note_off_c, 0, 64, 0
2, 20976, Note_on_c, 0, 69, 93
2, 21000, Note_off_c, 0, 69, 0
2, 21000, Note_on_c, 0, 67, 93
2, 21024, Note_off_c, 0, 67, 0
2, 21024, Note_on_c, 0, 65, 93
2, 21048, Note_off_c, 0, 65, 0
2, 21048, Note_on_c, 0, 64, 93
2, 21072, Note_off_c, 0, 64, 0
2, 21072, Note_on_c, 0, 62, 93
2, 21096, Note_off_c, 0, 62, 0
2, 21096, Note_on_c, 0, 62, 93
2, 21108, Note_off_c, 0, 62, 0
2, 21108, Note_on_c, 0, 61, 93
2, 21120, Note_off_c, 0, 61, 0
2, 21120, Note_on_c, 0, 62, 93
2, 21132, Note_off_c, 0, 62, 0
2, 21132, Note_on_c, 0, 61, 93
2, 21144, Note_off_c, 0, 61, 0
2, 21144, Note_on_c, 0, 62, 93
2, 21156, Note_off_c, 0, 62, 0
2, 21156, Note_on_c, 0, 61, 93
2, 21168, Note_off_c, 0, 61, 0
2, 21168, Note_on_c, 0, 62, 93
2, 21216, Note_off_c, 0, 62, 0
2, 21600, Note_on_c, 0, 74, 93
2, 21672, Note_off_c, 0, 74, 0
2, 21672, Note_on_c, 0, 69, 93
2, 21696, Note_off_c, 0, 69, 0
2, 21696, Note_on_c, 0, 68, 93
2, 21720, Note_off_c, 0, 68, 0
2, 21720, Note_on_c, 0, 69, 93
2, 21744, Note_off_c, 0, 69, 0
2, 21744, Note_on_c, 0, 71, 93
2, 21768, Note_off_c, 0, 71, 0
2, 21768, Note_on_c, 0, 69, 93
2, 21792, Note_off_c, 0, 69, 0
2, 21792, Note_on_c, 0, 71, 93
2, 21816, Note_off_c, 0, 71, 0
2, 21816, Note_on_c, 0, 72, 93
2, 21840, Note_off_c, 0, 72, 0
2, 21840, Note_on_c, 0, 71, 93
2, 21864, Note_off_c, 0, 71, 0
2, 21864, Note_on_c, 0, 73, 93
2, 21888, Note_off_c, 0, 73, 0
2, 21888, Note_on_c, 0, 74, 93
2, 21912, Note_off_c, 0, 74, 0
2, 21912, Note_on_c, 0, 73, 93
2, 21936, Note_off_c, 0, 73, 0
2, 21936, Note_on_c, 0, 74, 93
2, 21960, Note_off_c, 0, 74, 0
2, 21960, Note_on_c, 0, 76, 93
2, 21984, Note_off_c, 0, 76, 0
2, 21984, Note_on_c, 0, 74, 93
2, 22008, Note_off_c, 0, 74, 0
2, 22008, Note_on_c, 0, 76, 93
2, 22032, Note_off_c, 0, 76, 0
2, 22032, Note_on_c, 0, 77, 93
2, 22056, Note_off_c, 0, 77, 0
2, 22104, Note_on_c, 0, 76, 93
2, 22128, Note_off_c, 0, 76, 0
2, 22176, Note_on_c, 0, 74, 93
2, 22200, Note_off_c, 0, 74, 0
2, 22248, Note_on_c, 0, 74, 93
2, 22272, Note_off_c, 0, 74, 0
2, 22272, Note_on_c, 0, 73, 93
2, 22368, Note_off_c, 0, 73, 0
2, 22368, Note_on_c, 0, 69, 93
2, 22392, Note_off_c, 0, 69, 0
2, 22392, Note_on_c, 0, 71, 93
2, 22440, Note_off_c, 0, 71, 0
2, 22440, Note_on_c, 0, 73, 93
2, 22464, Note_off_c, 0, 73, 0
2, 22464, Note_on_c, 0, 74, 93
2, 22488, Note_off_c, 0, 74, 0
2, 22488, Note_on_c, 0, 72, 93
2, 22512, Note_off_c, 0, 72, 0
2, 22512, Note_on_c, 0, 71, 93
2, 22536, Note_off_c, 0, 71, 0
2, 22536, Note_on_c, 0, 72, 93
2, 22584, Note_off_c, 0, 72, 0
2, 22584, Note_on_c, 0, 81, 93
2, 22608, Note_off_c, 0, 81, 0
2, 22608, Note_on_c, 0, 80, 93
2, 22656, Note_off_c, 0, 80, 0
2, 22656, Note_on_c, 0, 74, 93
2, 22680, Note_off_c, 0, 74, 0
2, 22680, Note_on_c, 0, 76, 93
2, 22728, Note_off_c, 0, 76, 0
2, 22728, Note_on_c, 0, 79, 93
2, 22752, Note_off_c, 0, 79, 0
2, 22752, Note_on_c, 0, 77, 93
2, 22776, Note_off_c, 0, 77, 0
2, 22776, Note_on_c, 0, 76, 93
2, 22800, Note_off_c, 0, 76, 0
2, 22800, Note_on_c, 0, 74, 93
2, 22824, Note_off_c, 0, 74, 0
2, 22824, Note_on_c, 0, 73, 93
2, 22872, Note_off_c, 0, 73, 0
2, 22872, Note_on_c, 0, 82, 93
2, 22896, Note_off_c, 0, 82, 0
2, 22896, Note_on_c, 0, 81, 93
2, 22920, Note_off_c, 0, 81, 0
2, 22920, Note_on_c, 0, 77, 93
2, 22944, Note_off_c, 0, 77, 0
2, 22944, Note_on_c, 0, 74, 93
2, 22968, Note_off_c, 0, 74, 0
2, 22968, Note_on_c, 0, 74, 93
2, 22992, Note_off_c, 0, 74, 0
2, 22992, Note_on_c, 0, 79, 93
2, 23016, Note_off_c, 0, 79, 0
2, 23016, Note_on_c, 0, 72, 93
2, 23040, Note_off_c, 0, 72, 0
2, 23040, Note_on_c, 0, 72, 93
2, 23064, Note_off_c, 0, 72, 0
2, 23064, Note_on_c, 0, 77, 93
2, 23088, Note_off_c, 0, 77, 0
2, 23088, Note_on_c, 0, 70, 93
2, 23112, Note_off_c, 0, 70, 0
2, 23112, Note_on_c, 0, 70, 93
2, 23136, Note_off_c, 0, 70, 0
2, 23136, Note_on_c, 0, 69, 93
2, 23160, Note_off_c, 0, 69, 0
2, 23160, Note_on_c, 0, 67, 93
2, 23184, Note_off_c, 0, 67, 0
2, 23184, Note_on_c, 0, 69, 93
2, 23208, Note_off_c, 0, 69, 0
2, 23208, Note_on_c, 0, 73, 93
2, 23232, Note_off_c, 0, 73, 0
2, 23232, Note_on_c, 0, 76, 93
2, 23256, Note_off_c, 0, 76, 0
2, 23256, Note_on_c, 0, 79, 93
2, 23280, Note_off_c, 0, 79, 0
2, 23280, Note_on_c, 0, 77, 93
2, 23304, Note_off_c, 0, 77, 0
2, 23304, Note_on_c, 0, 76, 93
2, 23328, Note_off_c, 0, 76, 0
2, 23328, Note_on_c, 0, 77, 93
2, 23352, Note_off_c, 0, 77, 0
2, 23352, Note_on_c, 0, 76, 93
2, 23376, Note_off_c, 0, 76, 0
2, 23376, Note_on_c, 0, 74, 93
2, 23400, Note_off_c, 0, 74, 0
2, 23400, Note_on_c, 0, 76, 93
2, 23424, Note_off_c, 0, 76, 0
2, 23424, Note_on_c, 0, 74, 93
2, 23448, Note_off_c, 0, 74, 0
2, 23448, Note_on_c, 0, 72, 93
2, 23472, Note_off_c, 0, 72, 0
2, 23472, Note_on_c, 0, 74, 93
2, 23496, Note_off_c, 0, 74, 0
2, 23496, Note_on_c, 0, 72, 93
2, 23520, Note_off_c, 0, 72, 0
2, 23520, Note_on_c, 0, 71, 93
2, 23544, Note_off_c, 0, 71, 0
2, 23544, Note_on_c, 0, 72, 93
2, 23568, Note_off_c, 0, 72, 0
2, 23568, Note_on_c, 0, 74, 93
2, 23592, Note_off_c, 0, 74, 0
2, 23592, Note_on_c, 0, 76, 93
2, 23616, Note_off_c, 0, 76, 0
2, 23616, Note_on_c, 0, 74, 93
2, 23640, Note_off_c, 0, 74, 0
2, 23640, Note_on_c, 0, 76, 93
2, 23664, Note_off_c, 0, 76, 0
2, 23664, Note_on_c, 0, 77, 93
2, 23688, Note_off_c, 0, 77, 0
2, 23688, Note_on_c, 0, 76, 93
2, 23712, Note_off_c, 0, 76, 0
2, 23712, Note_on_c, 0, 77, 93
2, 23736, Note_off_c, 0, 77, 0
2, 23736, Note_on_c, 0, 79, 93
2, 23760, Note_off_c, 0, 79, 0
2, 23760, Note_on_c, 0, 77, 93
2, 23784, Note_off_c, 0, 77, 0
2, 23784, Note_on_c, 0, 74, 93
2, 23808, Note_off_c, 0, 74, 0
2, 23808, Note_on_c, 0, 81, 93
2, 23832, Note_off_c, 0, 81, 0
2, 23832, Note_on_c, 0, 70, 93
2, 23856, Note_off_c, 0, 70, 0
2, 23856, Note_on_c, 0, 76, 93
2, 23880, Note_off_c, 0, 76, 0
2, 23880, Note_on_c, 0, 79, 93
2, 23904, Note_off_c, 0, 79, 0
2, 23904, Note_on_c, 0, 69, 93
2, 23928, Note_off_c, 0, 69, 0
2, 23928, Note_on_c, 0, 74, 93
2, 23952, Note_off_c, 0, 74, 0
2, 23952, Note_on_c, 0, 77, 93
2, 23976, Note_off_c, 0, 77, 0
2, 23976, Note_on_c, 0, 67, 93
2, 24000, Note_off_c, 0, 67, 0
2, 24000, Note_on_c, 0, 73, 93
2, 24024, Note_off_c, 0, 73, 0
2, 24024, Note_on_c, 0, 76, 93
2, 24048, Note_off_c, 0, 76, 0
2, 24048, Note_on_c, 0, 65, 93
2, 24072, Note_off_c, 0, 65, 0
2, 24072, Note_on_c, 0, 69, 93
2, 24096, Note_off_c, 0, 69, 0
2, 24096, Note_on_c, 0, 67, 93
2, 24120, Note_off_c, 0, 67, 0
2, 24120, Note_on_c, 0, 70, 93
2, 24144, Note_off_c, 0, 70, 0
2, 24144, Note_on_c, 0, 69, 93
2, 24168, Note_off_c, 0, 69, 0
2, 24168, Note_on_c, 0, 73, 93
2, 24192, Note_off_c, 0, 73, 0
2, 24192, Note_on_c, 0, 74, 93
2, 24216, Note_off_c, 0, 74, 0
2, 24216, Note_on_c, 0, 76, 93
2, 24240, Note_off_c, 0, 76, 0
2, 24240, Note_on_c, 0, 77, 93
2, 24264, Note_off_c, 0, 77, 0
2, 24264, Note_on_c, 0, 69, 93
2, 24276, Note_off_c, 0, 69, 0
2, 24276, Note_on_c, 0, 68, 93
2, 24288, Note_off_c, 0, 68, 0
2, 24288, Note_on_c, 0, 65, 93
2, 24300, Note_off_c, 0, 65, 0
2, 24300, Note_on_c, 0, 68, 93
2, 24312, Note_off_c, 0, 68, 0
2, 24312, Note_on_c, 0, 69, 93
2, 24324, Note_off_c, 0, 69, 0
2, 24324, Note_on_c, 0, 68, 93
2, 24336, Note_off_c, 0, 68, 0
2, 24336, Note_on_c, 0, 69, 93
2, 24348, Note_off_c, 0, 69, 0
2, 24348, Note_on_c, 0, 68, 93
2, 24360, Note_off_c, 0, 68, 0
2, 24360, Note_on_c, 0, 69, 93
2, 24372, Note_off_c, 0, 69, 0
2, 24372, Note_on_c, 0, 68, 93
2, 24384, Note_off_c, 0, 68, 0
2, 24384, Note_on_c, 0, 65, 93
2, 24396, Note_off_c, 0, 65, 0
2, 24396, Note_on_c, 0, 68, 93
2, 24408, Note_off_c, 0, 68, 0
2, 24408, Note_on_c, 0, 69, 93
2, 24456, Note_off_c, 0, 69, 0
2, 24528, Note_on_c, 0, 71, 93
2, 24552, Note_off_c, 0, 71, 0
2, 24552, Note_on_c, 0, 72, 93
2, 24600, Note_off_c, 0, 72, 0
2, 24600, Note_on_c, 0, 69, 93
2, 24624, Note_off_c, 0, 69, 0
2, 24624, Note_on_c, 0, 74, 93
2, 24672, Note_off_c, 0, 74, 0
2, 24672, Note_on_c, 0, 77, 93
2, 24696, Note_off_c, 0, 77, 0
2, 24696, Note_on_c, 0, 77, 93
2, 24720, Note_off_c, 0, 77, 0
2, 24720, Note_on_c, 0, 76, 93
2, 24744, Note_off_c, 0, 76, 0
2, 24744, Note_on_c, 0, 74, 93
2, 24768, Note_off_c, 0, 74, 0
2, 24768, Note_on_c, 0, 72, 93
2, 24792, Note_off_c, 0, 72, 0
2, 24792, Note_on_c, 0, 74, 93
2, 24816, Note_off_c, 0, 74, 0
2, 24816, Note_on_c, 0, 71, 93
2, 24840, Note_off_c, 0, 71, 0
2, 24840, Note_on_c, 0, 76, 93
2, 24912, Note_off_c, 0, 76, 0
2, 24912, Note_on_c, 0, 69, 93
2, 24984, Note_off_c, 0, 69, 0
2, 25056, Note_on_c, 0, 69, 93
2, 25128, Note_off_c, 0, 69, 0
2, 25128, Note_on_c, 0, 76, 93
2, 25152, Note_off_c, 0, 76, 0
2, 25152, Note_on_c, 0, 77, 93
2, 25176, Note_off_c, 0, 77, 0
2, 25176, Note_on_c, 0, 76, 93
2, 25200, Note_off_c, 0, 76, 0
2, 25200, Note_on_c, 0, 74, 93
2, 25224, Note_off_c, 0, 74, 0
2, 25224, Note_on_c, 0, 76, 93
2, 25248, Note_off_c, 0, 76, 0
2, 25248, Note_on_c, 0, 74, 93
2, 25272, Note_off_c, 0, 74, 0
2, 25272, Note_on_c, 0, 72, 93
2, 25296, Note_off_c, 0, 72, 0
2, 25296, Note_on_c, 0, 74, 93
2, 25320, Note_off_c, 0, 74, 0
2, 25320, Note_on_c, 0, 72, 93
2, 25344, Note_off_c, 0, 72, 0
2, 25344, Note_on_c, 0, 71, 93
2, 25368, Note_off_c, 0, 71, 0
2, 25368, Note_on_c, 0, 72, 93
2, 25392, Note_off_c, 0, 72, 0
2, 25392, Note_on_c, 0, 71, 93
2, 25416, Note_off_c, 0, 71, 0
2, 25416, Note_on_c, 0, 69, 93
2, 25440, Note_off_c, 0, 69, 0
2, 25440, Note_on_c, 0, 71, 93
2, 25464, Note_off_c, 0, 71, 0
2, 25464, Note_on_c, 0, 69, 93
2, 25488, Note_off_c, 0, 69, 0
2, 25488, Note_on_c, 0, 68, 93
2, 25512, Note_off_c, 0, 68, 0
2, 25560, Note_on_c, 0, 69, 93
2, 25584, Note_off_c, 0, 69, 0
2, 25632, Note_on_c, 0, 71, 93
2, 25656, Note_off_c, 0, 71, 0
2, 25704, Note_on_c, 0, 71, 93
2, 25728, Note_off_c, 0, 71, 0
2, 25728, Note_on_c, 0, 72, 93
2, 25824, Note_off_c, 0, 72, 0
2, 25824, Note_on_c, 0, 74, 93
2, 25848, Note_off_c, 0, 74, 0
2, 25848, Note_on_c, 0, 72, 93
2, 25896, Note_off_c, 0, 72, 0
2, 25896, Note_on_c, 0, 71, 93
2, 25920, Note_off_c, 0, 71, 0
2, 25920, Note_on_c, 0, 69, 93
2, 25944, Note_off_c, 0, 69, 0
2, 25944, Note_on_c, 0, 64, 93
2, 25968, Note_off_c, 0, 64, 0
2, 25968, Note_on_c, 0, 69, 93
2, 25992, Note_off_c, 0, 69, 0
2, 25992, Note_on_c, 0, 72, 93
2, 26016, Note_off_c, 0, 72, 0
2, 26016, Note_on_c, 0, 69, 93
2, 26040, Note_off_c, 0, 69, 0
2, 26040, Note_on_c, 0, 72, 93
2, 26064, Note_off_c, 0, 72, 0
2, 26064, Note_on_c, 0, 76, 93
2, 26112, Note_off_c, 0, 76, 0
2, 26112, Note_on_c, 0, 68, 93
2, 26136, Note_off_c, 0, 68, 0
2, 26136, Note_on_c, 0, 69, 93
2, 26184, Note_off_c, 0, 69, 0
2, 26184, Note_on_c, 0, 77, 93
2, 26208, Note_off_c, 0, 77, 0
2, 26208, Note_on_c, 0, 67, 93
2, 26256, Note_off_c, 0, 67, 0
2, 26256, Note_on_c, 0, 76, 93
2, 26280, Note_off_c, 0, 76, 0
2, 26280, Note_on_c, 0, 65, 93
2, 26328, Note_off_c, 0, 65, 0
2, 26328, Note_on_c, 0, 74, 93
2, 26352, Note_off_c, 0, 74, 0
2, 26352, Note_on_c, 0, 64, 93
2, 26376, Note_off_c, 0, 64, 0
2, 26376, Note_on_c, 0, 71, 93
2, 26400, Note_off_c, 0, 71, 0
2, 26400, Note_on_c, 0, 74, 93
2, 26424, Note_off_c, 0, 74, 0
2, 26424, Note_on_c, 0, 72, 93
2, 26448, Note_off_c, 0, 72, 0
2, 26448, Note_on_c, 0, 71, 93
2, 26472, Note_off_c, 0, 71, 0
2, 26472, Note_on_c, 0, 69, 93
2, 26496, Note_off_c, 0, 69, 0
2, 26496, Note_on_c, 0, 68, 93
2, 26520, Note_off_c, 0, 68, 0
2, 26520, Note_on_c, 0, 74, 93
2, 26544, Note_off_c, 0, 74, 0
2, 26544, Note_on_c, 0, 77, 93
2, 26568, Note_off_c, 0, 77, 0
2, 26568, Note_on_c, 0, 76, 93
2, 26592, Note_off_c, 0, 76, 0
2, 26592, Note_on_c, 0, 74, 93
2, 26616, Note_off_c, 0, 74, 0
2, 26616, Note_on_c, 0, 72, 93
2, 26640, Note_off_c, 0, 72, 0
2, 26640, Note_on_c, 0, 71, 93
2, 26664, Note_off_c, 0, 71, 0
2, 26664, Note_on_c, 0, 69, 93
2, 26688, Note_off_c, 0, 69, 0
2, 26688, Note_on_c, 0, 68, 93
2, 26712, Note_off_c, 0, 68, 0
2, 26712, Note_on_c, 0, 69, 93
2, 26736, Note_off_c, 0, 69, 0
2, 26736, Note_on_c, 0, 64, 93
2, 26760, Note_off_c, 0, 64, 0
2, 26760, Note_on_c, 0, 71, 93
2, 26784, Note_off_c, 0, 71, 0
2, 26784, Note_on_c, 0, 72, 93
2, 26808, Note_off_c, 0, 72, 0
2, 26808, Note_on_c, 0, 71, 93
2, 26832, Note_off_c, 0, 71, 0
2, 26832, Note_on_c, 0, 69, 93
2, 26856, Note_off_c, 0, 69, 0
2, 26856, Note_on_c, 0, 76, 93
2, 26952, Note_off_c, 0, 76, 0
2, 26952, Note_on_c, 0, 71, 93
2, 26976, Note_off_c, 0, 71, 0
2, 26976, Note_on_c, 0, 74, 93
2, 27000, Note_off_c, 0, 74, 0
2, 27000, Note_on_c, 0, 74, 93
2, 27024, Note_off_c, 0, 74, 0
2, 27024, Note_on_c, 0, 72, 93
2, 27048, Note_off_c, 0, 72, 0
2, 27048, Note_on_c, 0, 81, 93
2, 27066, Note_off_c, 0, 81, 0
2, 27072, Note_on_c, 0, 72, 93
2, 27096, Note_off_c, 0, 72, 0
2, 27096, Note_on_c, 0, 71, 93
2, 27120, Note_off_c, 0, 71, 0
2, 27120, Note_on_c, 0, 79, 93
2, 27138, Note_off_c, 0, 79, 0
2, 27144, Note_on_c, 0, 71, 93
2, 27168, Note_off_c, 0, 71, 0
2, 27168, Note_on_c, 0, 69, 93
2, 27192, Note_off_c, 0, 69, 0
2, 27192, Note_on_c, 0, 77, 93
2, 27210, Note_off_c, 0, 77, 0
2, 27216, Note_on_c, 0, 69, 93
2, 27240, Note_off_c, 0, 69, 0
2, 27240, Note_on_c, 0, 68, 93
2, 27264, Note_off_c, 0, 68, 0
2, 27264, Note_on_c, 0, 71, 93
2, 27282, Note_off_c, 0, 71, 0
2, 27288, Note_on_c, 0, 64, 93
2, 27336, Note_off_c, 0, 64, 0
2, 27504, Note_on_c, 0, 74, 93
2, 27600, Note_off_c, 0, 74, 0
2, 27600, Note_on_c, 0, 72, 93
2, 27624, Note_off_c, 0, 72, 0
2, 27624, Note_on_c, 0, 74, 93
2, 27648, Note_off_c, 0, 74, 0
2, 27648, Note_on_c, 0, 76, 93
2, 27672, Note_off_c, 0, 76, 0
2, 27672, Note_on_c, 0, 74, 93
2, 27696, Note_off_c, 0, 74, 0
2, 27696, Note_on_c, 0, 72, 93
2, 27720, Note_off_c, 0, 72, 0
2, 27720, Note_on_c, 0, 71, 93
2, 27744, Note_off_c, 0, 71, 0
2, 27744, Note_on_c, 0, 72, 93
2, 27768, Note_off_c, 0, 72, 0
2, 27768, Note_on_c, 0, 74, 93
2, 27792, Note_off_c, 0, 74, 0
2, 27792, Note_on_c, 0, 76, 93
2, 27816, Note_off_c, 0, 76, 0
2, 27816, Note_on_c, 0, 78, 93
2, 27840, Note_off_c, 0, 78, 0
2, 27840, Note_on_c, 0, 80, 93
2, 27864, Note_off_c, 0, 80, 0
2, 27864, Note_on_c, 0, 81, 93
2, 27888, Note_off_c, 0, 81, 0
2, 27888, Note_on_c, 0, 76, 93
2, 27912, Note_off_c, 0, 76, 0
2, 27912, Note_on_c, 0, 72, 93
2, 27936, Note_off_c, 0, 72, 0
2, 27936, Note_on_c, 0, 74, 93
2, 27960, Note_off_c, 0, 74, 0
2, 27960, Note_on_c, 0, 79, 93
2, 27984, Note_off_c, 0, 79, 0
2, 27984, Note_on_c, 0, 71, 93
2, 28008, Note_off_c, 0, 71, 0
2, 28008, Note_on_c, 0, 72, 93
2, 28032, Note_off_c, 0, 72, 0
2, 28032, Note_on_c, 0, 77, 93
2, 28056, Note_off_c, 0, 77, 0
2, 28056, Note_on_c, 0, 69, 93
2, 28080, Note_off_c, 0, 69, 0
2, 28080, Note_on_c, 0, 71, 93
2, 28104, Note_off_c, 0, 71, 0
2, 28104, Note_on_c, 0, 76, 93
2, 28128, Note_off_c, 0, 76, 0
2, 28128, Note_on_c, 0, 74, 93
2, 28152, Note_off_c, 0, 74, 0
2, 28152, Note_on_c, 0, 72, 93
2, 28176, Note_off_c, 0, 72, 0
2, 28176, Note_on_c, 0, 71, 93
2, 28200, Note_off_c, 0, 71, 0
2, 28200, Note_on_c, 0, 69, 93
2, 28224, Note_off_c, 0, 69, 0
2, 28224, Note_on_c, 0, 71, 93
2, 28248, Note_off_c, 0, 71, 0
2, 28248, Note_on_c, 0, 69, 93
2, 28272, Note_off_c, 0, 69, 0
2, 28272, Note_on_c, 0, 68, 93
2, 28296, Note_off_c, 0, 68, 0
2, 28296, Note_on_c, 0, 69, 93
2, 28320, Note_off_c, 0, 69, 0
2, 28320, Note_on_c, 0, 68, 93
2, 28344, Note_off_c, 0, 68, 0
2, 28344, Note_on_c, 0, 66, 93
2, 28368, Note_off_c, 0, 66, 0
2, 28368, Note_on_c, 0, 68, 93
2, 28392, Note_off_c, 0, 68, 0
2, 28392, Note_on_c, 0, 64, 93
2, 28416, Note_off_c, 0, 64, 0
2, 28416, Note_on_c, 0, 68, 93
2, 28440, Note_off_c, 0, 68, 0
2, 28440, Note_on_c, 0, 71, 93
2, 28464, Note_off_c, 0, 71, 0
2, 28464, Note_on_c, 0, 76, 93
2, 28488, Note_off_c, 0, 76, 0
2, 28488, Note_on_c, 0, 74, 93
2, 28512, Note_off_c, 0, 74, 0
2, 28512, Note_on_c, 0, 72, 93
2, 28536, Note_off_c, 0, 72, 0
2, 28536, Note_on_c, 0, 71, 93
2, 28560, Note_off_c, 0, 71, 0
2, 28560, Note_on_c, 0, 69, 93
2, 28584, Note_off_c, 0, 69, 0
2, 28584, Note_on_c, 0, 74, 93
2, 28680, Note_off_c, 0, 74, 0
2, 28680, Note_on_c, 0, 72, 93
2, 28704, Note_off_c, 0, 72, 0
2, 28704, Note_on_c, 0, 71, 93
2, 28728, Note_off_c, 0, 71, 0
2, 28728, Note_on_c, 0, 72, 93
2, 28752, Note_off_c, 0, 72, 0
2, 28800, Note_on_c, 0, 77, 93
2, 28824, Note_off_c, 0, 77, 0
2, 28872, Note_on_c, 0, 76, 93
2, 28896, Note_off_c, 0, 76, 0
2, 28944, Note_on_c, 0, 74, 93
2, 28992, Note_off_c, 0, 74, 0
2, 28992, Note_on_c, 0, 68, 93
2, 29016, Note_off_c, 0, 68, 0
2, 29016, Note_on_c, 0, 69, 93
2, 29064, Note_off_c, 0, 69, 0
2, 29064, Note_on_c, 0, 72, 93
2, 29088, Note_off_c, 0, 72, 0
2, 29088, Note_on_c, 0, 68, 93
2, 29100, Note_off_c, 0, 68, 0
2, 29100, Note_on_c, 0, 65, 93
2, 29112, Note_off_c, 0, 65, 0
2, 29112, Note_on_c, 0, 68, 93
2, 29124, Note_off_c, 0, 68, 0
2, 29124, Note_on_c, 0, 65, 93
2, 29136, Note_off_c, 0, 65, 0
2, 29136, Note_on_c, 0, 64, 93
2, 29148, Note_off_c, 0, 64, 0
2, 29148, Note_on_c, 0, 65, 93
2, 29160, Note_off_c, 0, 65, 0
2, 29160, Note_on_c, 0, 64, 93
2, 29208, Note_off_c, 0, 64, 0
2, 29400, Note_on_c, 0, 62, 93
2, 29424, Note_off_c, 0, 62, 0
2, 29424, Note_on_c, 0, 64, 93
2, 29448, Note_off_c, 0, 64, 0
2, 29448, Note_on_c, 0, 65, 93
2, 29472, Note_off_c, 0, 65, 0
2, 29472, Note_on_c, 0, 67, 93
2, 29496, Note_off_c, 0, 67, 0
2, 29496, Note_on_c, 0, 65, 93
2, 29520, Note_off_c, 0, 65, 0
2, 29520, Note_on_c, 0, 64, 93
2, 29616, Note_off_c, 0, 64, 0
2, 29616, Note_on_c, 0, 65, 93
2, 29640, Note_off_c, 0, 65, 0
2, 29640, Note_on_c, 0, 67, 93
2, 29664, Note_off_c, 0, 67, 0
2, 29664, Note_on_c, 0, 69, 93
2, 29688, Note_off_c, 0, 69, 0
2, 29688, Note_on_c, 0, 70, 93
2, 29712, Note_off_c, 0, 70, 0
2, 29712, Note_on_c, 0, 69, 93
2, 29736, Note_off_c, 0, 69, 0
2, 29736, Note_on_c, 0, 67, 93
2, 29760, Note_off_c, 0, 67, 0
2, 29760, Note_on_c, 0, 69, 93
2, 29784, Note_off_c, 0, 69, 0
2, 29784, Note_on_c, 0, 67, 93
2, 29808, Note_off_c, 0, 67, 0
2, 29808, Note_on_c, 0, 65, 93
2, 29832, Note_off_c, 0, 65, 0
2, 29832, Note_on_c, 0, 67, 93
2, 29856, Note_off_c, 0, 67, 0
2, 29856, Note_on_c, 0, 65, 93
2, 29880, Note_off_c, 0, 65, 0
2, 29880, Note_on_c, 0, 64, 93
2, 29904, Note_off_c, 0, 64, 0
2, 29904, Note_on_c, 0, 65, 93
2, 29928, Note_off_c, 0, 65, 0
2, 29928, Note_on_c, 0, 64, 93
2, 29952, Note_off_c, 0, 64, 0
2, 29952, Note_on_c, 0, 62, 93
2, 29976, Note_off_c, 0, 62, 0
2, 29976, Note_on_c, 0, 64, 93
2, 30000, Note_off_c, 0, 64, 0
2, 30000, Note_on_c, 0, 62, 93
2, 30024, Note_off_c, 0, 62, 0
2, 30024, Note_on_c, 0, 61, 93
2, 30048, Note_off_c, 0, 61, 0
2, 30096, Note_on_c, 0, 62, 93
2, 30120, Note_off_c, 0, 62, 0
2, 30168, Note_on_c, 0, 64, 93
2, 30192, Note_off_c, 0, 64, 0
2, 30240, Note_on_c, 0, 65, 93
2, 30360, Note_off_c, 0, 65, 0
2, 30360, Note_on_c, 0, 69, 93
2, 30384, Note_off_c, 0, 69, 0
2, 30384, Note_on_c, 0, 69, 93
2, 30396, Note_off_c, 0, 69, 0
2, 30396, Note_on_c, 0, 67, 93
2, 30408, Note_off_c, 0, 67, 0
2, 30408, Note_on_c, 0, 69, 93
2, 30420, Note_off_c, 0, 69, 0
2, 30420, Note_on_c, 0, 67, 93
2, 30432, Note_off_c, 0, 67, 0
2, 30432, Note_on_c, 0, 65, 93
2, 30456, Note_off_c, 0, 65, 0
2, 30456, Note_on_c, 0, 67, 93
2, 30480, Note_off_c, 0, 67, 0
2, 30480, Note_on_c, 0, 65, 93
2, 30504, Note_off_c, 0, 65, 0
2, 30504, Note_on_c, 0, 64, 93
2, 30528, Note_off_c, 0, 64, 0
2, 30528, Note_on_c, 0, 74, 93
2, 30540, Note_off_c, 0, 74, 0
2, 30540, Note_on_c, 0, 73, 93
2, 30552, Note_off_c, 0, 73, 0
2, 30552, Note_on_c, 0, 70, 93
2, 30564, Note_off_c, 0, 70, 0
2, 30564, Note_on_c, 0, 73, 93
2, 30576, Note_off_c, 0, 73, 0
2, 30576, Note_on_c, 0, 74, 93
2, 30588, Note_off_c, 0, 74, 0
2, 30588, Note_on_c, 0, 73, 93
2, 30600, Note_off_c, 0, 73, 0
2, 30600, Note_on_c, 0, 74, 93
2, 30612, Note_off_c, 0, 74, 0
2, 30612, Note_on_c, 0, 73, 93
2, 30624, Note_off_c, 0, 73, 0
2, 30624, Note_on_c, 0, 74, 93
2, 30636, Note_off_c, 0, 74, 0
2, 30636, Note_on_c, 0, 73, 93
2, 30648, Note_off_c, 0, 73, 0
2, 30648, Note_on_c, 0, 70, 93
2, 30660, Note_off_c, 0, 70, 0
2, 30660, Note_on_c, 0, 73, 93
2, 30672, Note_off_c, 0, 73, 0
2, 30672, Note_on_c, 0, 74, 93
2, 30696, Note_off_c, 0, 74, 0
2, 30696, Note_on_c, 0, 70, 93
2, 30720, Note_off_c, 0, 70, 0
2, 30720, Note_on_c, 0, 79, 93
2, 30744, Note_off_c, 0, 79, 0
2, 30744, Note_on_c, 0, 72, 93
2, 30768, Note_off_c, 0, 72, 0
2, 30768, Note_on_c, 0, 69, 93
2, 30792, Note_off_c, 0, 69, 0
2, 30792, Note_on_c, 0, 77, 93
2, 30816, Note_off_c, 0, 77, 0
2, 30816, Note_on_c, 0, 70, 93
2, 30840, Note_off_c, 0, 70, 0
2, 30840, Note_on_c, 0, 67, 93
2, 30864, Note_off_c, 0, 67, 0
2, 30864, Note_on_c, 0, 76, 93
2, 30888, Note_off_c, 0, 76, 0
2, 30888, Note_on_c, 0, 69, 93
2, 30912, Note_off_c, 0, 69, 0
2, 30912, Note_on_c, 0, 67, 93
2, 30936, Note_off_c, 0, 67, 0
2, 30936, Note_on_c, 0, 76, 93
2, 30960, Note_off_c, 0, 76, 0
2, 30960, Note_on_c, 0, 69, 93
2, 30984, Note_off_c, 0, 69, 0
2, 30984, Note_on_c, 0, 65, 93
2, 31008, Note_off_c, 0, 65, 0
2, 31008, Note_on_c, 0, 74, 93
2, 31032, Note_off_c, 0, 74, 0
2, 31032, Note_on_c, 0, 67, 93
2, 31056, Note_off_c, 0, 67, 0
2, 31056, Note_on_c, 0, 64, 93
2, 31080, Note_off_c, 0, 64, 0
2, 31080, Note_on_c, 0, 73, 93
2, 31104, Note_off_c, 0, 73, 0
2, 31104, Note_on_c, 0, 74, 93
2, 31128, Note_off_c, 0, 74, 0
2, 31128, Note_on_c, 0, 69, 93
2, 31152, Note_off_c, 0, 69, 0
2, 31152, Note_on_c, 0, 65, 93
2, 31176, Note_off_c, 0, 65, 0
2, 31176, Note_on_c, 0, 62, 93
2, 31200, Note_off_c, 0, 62, 0
2, 31200, Note_on_c, 0, 64, 93
2, 31224, Note_off_c, 0, 64, 0
2, 31224, Note_on_c, 0, 65, 93
2, 31248, Note_off_c, 0, 65, 0
2, 31248, Note_on_c, 0, 64, 93
2, 31272, Note_off_c, 0, 64, 0
2, 31272, Note_on_c, 0, 65, 93
2, 31296, Note_off_c, 0, 65, 0
2, 31296, Note_on_c, 0, 62, 93
2, 31320, Note_off_c, 0, 62, 0
2, 31320, Note_on_c, 0, 64, 93
2, 31416, Note_off_c, 0, 64, 0
2, 31416, Note_on_c, 0, 65, 93
2, 31440, Note_off_c, 0, 65, 0
2, 31440, Note_on_c, 0, 67, 93
2, 31464, Note_off_c, 0, 67, 0
2, 31464, Note_on_c, 0, 65, 93
2, 31488, Note_off_c, 0, 65, 0
2, 31488, Note_on_c, 0, 67, 93
2, 31512, Note_off_c, 0, 67, 0
2, 31512, Note_on_c, 0, 64, 93
2, 31536, Note_off_c, 0, 64, 0
2, 31536, Note_on_c, 0, 65, 93
2, 31560, Note_off_c, 0, 65, 0
2, 31608, Note_on_c, 0, 64, 93
2, 31632, Note_off_c, 0, 64, 0
2, 31680, Note_on_c, 0, 62, 93
2, 31704, Note_off_c, 0, 62, 0
2, 31752, Note_on_c, 0, 61, 93
2, 31776, Note_off_c, 0, 61, 0
2, 31824, Note_on_c, 0, 62, 93
2, 31848, Note_off_c, 0, 62, 0
2, 31896, Note_on_c, 0, 64, 93
2, 31920, Note_off_c, 0, 64, 0
2, 31968, Note_on_c, 0, 65, 93
2, 31992, Note_off_c, 0, 65, 0
2, 31992, Note_on_c, 0, 64, 93
2, 32016, Note_off_c, 0, 64, 0
2, 32016, Note_on_c, 0, 62, 93
2, 32040, Note_off_c, 0, 62, 0
2, 32040, Note_on_c, 0, 70, 93
2, 32064, Note_off_c, 0, 70, 0
2, 32064, Note_on_c, 0, 69, 93
2, 32088, Note_off_c, 0, 69, 0
2, 32088, Note_on_c, 0, 67, 93
2, 32112, Note_off_c, 0, 67, 0
2, 32112, Note_on_c, 0, 73, 93
2, 32160, Note_off_c, 0, 73, 0
2, 32208, Note_on_c, 0, 67, 93
2, 32232, Note_off_c, 0, 67, 0
2, 32232, Note_on_c, 0, 62, 93
2, 32256, Note_off_c, 0, 62, 0
2, 32256, Note_on_c, 0, 61, 93
2, 32280, Note_off_c, 0, 61, 0
2, 32280, Note_on_c, 0, 62, 93
2, 32304, Note_off_c, 0, 62, 0
2, 32304, Note_on_c, 0, 64, 93
2, 32328, Note_off_c, 0, 64, 0
2, 32328, Note_on_c, 0, 57, 93
2, 32352, Note_off_c, 0, 57, 0
2, 32352, Note_on_c, 0, 59, 93
2, 32376, Note_off_c, 0, 59, 0
2, 32376, Note_on_c, 0, 61, 93
2, 32400, Note_off_c, 0, 61, 0
2, 32400, Note_on_c, 0, 62, 93
2, 32424, Note_off_c, 0, 62, 0
2, 32424, Note_on_c, 0, 55, 93
2, 32448, Note_off_c, 0, 55, 0
2, 32448, Note_on_c, 0, 58, 93
2, 32472, Note_off_c, 0, 58, 0
2, 32472, Note_on_c, 0, 60, 93
2, 32496, Note_off_c, 0, 60, 0
2, 32496, Note_on_c, 0, 53, 93
2, 32520, Note_off_c, 0, 53, 0
2, 32520, Note_on_c, 0, 57, 93
2, 32544, Note_off_c, 0, 57, 0
2, 32544, Note_on_c, 0, 58, 93
2, 32568, Note_off_c, 0, 58, 0
2, 32568, Note_on_c, 0, 52, 93
2, 32592, Note_off_c, 0, 52, 0
2, 32592, Note_on_c, 0, 55, 93
2, 32616, Note_off_c, 0, 55, 0
2, 32616, Note_on_c, 0, 57, 93
2, 32640, Note_off_c, 0, 57, 0
2, 32640, Note_on_c, 0, 69, 93
2, 32664, Note_off_c, 0, 69, 0
2, 32664, Note_on_c, 0, 67, 93
2, 32688, Note_off_c, 0, 67, 0
2, 32688, Note_on_c, 0, 65, 93
2, 32712, Note_off_c, 0, 65, 0
2, 32712, Note_on_c, 0, 74, 93
2, 32736, Note_off_c, 0, 74, 0
2, 32736, Note_on_c, 0, 72, 93
2, 32760, Note_off_c, 0, 72, 0
2, 32760, Note_on_c, 0, 70, 93
2, 32784, Note_off_c, 0, 70, 0
2, 32784, Note_on_c, 0, 69, 93
2, 32808, Note_off_c, 0, 69, 0
2, 32808, Note_on_c, 0, 70, 93
2, 32832, Note_off_c, 0, 70, 0
2, 32832, Note_on_c, 0, 69, 93
2, 32904, Note_off_c, 0, 69, 0
2, 32904, Note_on_c, 0, 62, 93
2, 32928, Note_off_c, 0, 62, 0
2, 32928, Note_on_c, 0, 61, 93
2, 32952, Note_off_c, 0, 61, 0
2, 32952, Note_on_c, 0, 62, 93
2, 32976, Note_off_c, 0, 62, 0
2, 32976, Note_on_c, 0, 64, 93
2, 33000, Note_off_c, 0, 64, 0
2, 33000, Note_on_c, 0, 62, 93
2, 33024, Note_off_c, 0, 62, 0
2, 33024, Note_on_c, 0, 64, 93
2, 33048, Note_off_c, 0, 64, 0
2, 33048, Note_on_c, 0, 65, 93
2, 33072, Note_off_c, 0, 65, 0
2, 33072, Note_on_c, 0, 64, 93
2, 33096, Note_off_c, 0, 64, 0
2, 33096, Note_on_c, 0, 65, 93
2, 33120, Note_off_c, 0, 65, 0
2, 33120, Note_on_c, 0, 67, 93
2, 33144, Note_off_c, 0, 67, 0
2, 33144, Note_on_c, 0, 65, 93
2, 33168, Note_off_c, 0, 65, 0
2, 33168, Note_on_c, 0, 67, 93
2, 33192, Note_off_c, 0, 67, 0
2, 33192, Note_on_c, 0, 69, 93
2, 33216, Note_off_c, 0, 69, 0
2, 33216, Note_on_c, 0, 67, 93
2, 33240, Note_off_c, 0, 67, 0
2, 33240, Note_on_c, 0, 69, 93
2, 33264, Note_off_c, 0, 69, 0
2, 33264, Note_on_c, 0, 70, 93
2, 33288, Note_off_c, 0, 70, 0
2, 33336, Note_on_c, 0, 69, 93
2, 33360, Note_off_c, 0, 69, 0
2, 33408, Note_on_c, 0, 67, 93
2, 33432, Note_off_c, 0, 67, 0
2, 33480, Note_on_c, 0, 67, 93
2, 33504, Note_off_c, 0, 67, 0
2, 33504, Note_on_c, 0, 65, 93
2, 33600, Note_off_c, 0, 65, 0
2, 33600, Note_on_c, 0, 64, 93
2, 33624, Note_off_c, 0, 64, 0
2, 33624, Note_on_c, 0, 65, 93
2, 33672, Note_off_c, 0, 65, 0
2, 33672, Note_on_c, 0, 67, 93
2, 33696, Note_off_c, 0, 67, 0
2, 33696, Note_on_c, 0, 69, 93
2, 33744, Note_off_c, 0, 69, 0
2, 33744, Note_on_c, 0, 79, 93
2, 33768, Note_off_c, 0, 79, 0
2, 33768, Note_on_c, 0, 77, 93
2, 33816, Note_off_c, 0, 77, 0
2, 33816, Note_on_c, 0, 69, 93
2, 33840, Note_off_c, 0, 69, 0
2, 33840, Note_on_c, 0, 67, 93
2, 33888, Note_off_c, 0, 67, 0
2, 33888, Note_on_c, 0, 76, 93
2, 33912, Note_off_c, 0, 76, 0
2, 33912, Note_on_c, 0, 74, 93
2, 33960, Note_off_c, 0, 74, 0
2, 33960, Note_on_c, 0, 65, 93
2, 33984, Note_off_c, 0, 65, 0
2, 33984, Note_on_c, 0, 64, 93
2, 34032, Note_off_c, 0, 64, 0
2, 34032, Note_on_c, 0, 74, 93
2, 34056, Note_off_c, 0, 74, 0
2, 34056, Note_on_c, 0, 73, 93
2, 34104, Note_off_c, 0, 73, 0
2, 34104, Note_on_c, 0, 64, 93
2, 34128, Note_off_c, 0, 64, 0
2, 34128, Note_on_c, 0, 64, 93
2, 34152, Note_off_c, 0, 64, 0
2, 34152, Note_on_c, 0, 62, 93
2, 34176, Note_off_c, 0, 62, 0
2, 34176, Note_on_c, 0, 61, 93
2, 34200, Note_off_c, 0, 61, 0
2, 34200, Note_on_c, 0, 62, 93
2, 34224, Note_off_c, 0, 62, 0
2, 34224, Note_on_c, 0, 64, 93
2, 34248, Note_off_c, 0, 64, 0
2, 34248, Note_on_c, 0, 65, 93
2, 34272, Note_off_c, 0, 65, 0
2, 34272, Note_on_c, 0, 67, 93
2, 34296, Note_off_c, 0, 67, 0
2, 34296, Note_on_c, 0, 69, 93
2, 34320, Note_off_c, 0, 69, 0
2, 34320, Note_on_c, 0, 70, 93
2, 34344, Note_off_c, 0, 70, 0
2, 34344, Note_on_c, 0, 70, 93
2, 34368, Note_off_c, 0, 70, 0
2, 34368, Note_on_c, 0, 69, 93
2, 34392, Note_off_c, 0, 69, 0
2, 34392, Note_on_c, 0, 67, 93
2, 34416, Note_off_c, 0, 67, 0
2, 34416, Note_on_c, 0, 69, 93
2, 34440, Note_off_c, 0, 69, 0
2, 34440, Note_on_c, 0, 71, 93
2, 34464, Note_off_c, 0, 71, 0
2, 34464, Note_on_c, 0, 73, 93
2, 34488, Note_off_c, 0, 73, 0
2, 34488, Note_on_c, 0, 74, 93
2, 34512, Note_off_c, 0, 74, 0
2, 34512, Note_on_c, 0, 76, 93
2, 34536, Note_off_c, 0, 76, 0
2, 34536, Note_on_c, 0, 77, 93
2, 34560, Note_off_c, 0, 77, 0
2, 34560, Note_on_c, 0, 77, 93
2, 34584, Note_off_c, 0, 77, 0
2, 34584, Note_on_c, 0, 74, 93
2, 34608, Note_off_c, 0, 74, 0
2, 34608, Note_on_c, 0, 76, 93
2, 34632, Note_off_c, 0, 76, 0
2, 34632, Note_on_c, 0, 76, 93
2, 34656, Note_off_c, 0, 76, 0
2, 34656, Note_on_c, 0, 73, 93
2, 34680, Note_off_c, 0, 73, 0
2, 34680, Note_on_c, 0, 74, 93
2, 34704, Note_off_c, 0, 74, 0
2, 34704, Note_on_c, 0, 74, 93
2, 34728, Note_off_c, 0, 74, 0
2, 34728, Note_on_c, 0, 71, 93
2, 34752, Note_off_c, 0, 71, 0
2, 34752, Note_on_c, 0, 72, 93
2, 34776, Note_off_c, 0, 72, 0
2, 34776, Note_on_c, 0, 72, 93
2, 34800, Note_off_c, 0, 72, 0
2, 34800, Note_on_c, 0, 69, 93
2, 34824, Note_off_c, 0, 69, 0
2, 34824, Note_on_c, 0, 70, 93
2, 34848, Note_off_c, 0, 70, 0
2, 34848, Note_on_c, 0, 70, 93
2, 34872, Note_off_c, 0, 70, 0
2, 34872, Note_on_c, 0, 67, 93
2, 34896, Note_off_c, 0, 67, 0
2, 34896, Note_on_c, 0, 69, 93
2, 34920, Note_off_c, 0, 69, 0
2, 34920, Note_on_c, 0, 69, 93
2, 34944, Note_off_c, 0, 69, 0
2, 34944, Note_on_c, 0, 65, 93
2, 34968, Note_off_c, 0, 65, 0
2, 34968, Note_on_c, 0, 67, 93
2, 34992, Note_off_c, 0, 67, 0
2, 34992, Note_on_c, 0, 67, 93
2, 35016, Note_off_c, 0, 67, 0
2, 35016, Note_on_c, 0, 65, 93
2, 35088, Note_off_c, 0, 65, 0
2, 35088, Note_on_c, 0, 67, 93
2, 35112, Note_off_c, 0, 67, 0
2, 35112, Note_on_c, 0, 69, 93
2, 35136, Note_off_c, 0, 69, 0
2, 35136, Note_on_c, 0, 70, 93
2, 35160, Note_off_c, 0, 70, 0
2, 35160, Note_on_c, 0, 69, 93
2, 35184, Note_off_c, 0, 69, 0
2, 35184, Note_on_c, 0, 67, 93
2, 35208, Note_off_c, 0, 67, 0
2, 35208, Note_on_c, 0, 74, 93
2, 35232, Note_off_c, 0, 74, 0
2, 35232, Note_on_c, 0, 73, 93
2, 35304, Note_off_c, 0, 73, 0
2, 35304, Note_on_c, 0, 74, 93
2, 35328, Note_off_c, 0, 74, 0
2, 35328, Note_on_c, 0, 76, 93
2, 35352, Note_off_c, 0, 76, 0
2, 35352, Note_on_c, 0, 77, 93
2, 35376, Note_off_c, 0, 77, 0
2, 35376, Note_on_c, 0, 76, 93
2, 35400, Note_off_c, 0, 76, 0
2, 35400, Note_on_c, 0, 74, 93
2, 35424, Note_off_c, 0, 74, 0
2, 35424, Note_on_c, 0, 81, 93
2, 35436, Note_off_c, 0, 81, 0
2, 35436, Note_on_c, 0, 80, 93
2, 35448, Note_off_c, 0, 80, 0
2, 35448, Note_on_c, 0, 78, 93
2, 35460, Note_off_c, 0, 78, 0
2, 35460, Note_on_c, 0, 80, 93
2, 35472, Note_off_c, 0, 80, 0
2, 35472, Note_on_c, 0, 81, 93
2, 35484, Note_off_c, 0, 81, 0
2, 35484, Note_on_c, 0, 80, 93
2, 35496, Note_off_c, 0, 80, 0
2, 35496, Note_on_c, 0, 81, 93
2, 35508, Note_off_c, 0, 81, 0
2, 35508, Note_on_c, 0, 80, 93
2, 35520, Note_off_c, 0, 80, 0
2, 35520, Note_on_c, 0, 81, 93
2, 35532, Note_off_c, 0, 81, 0
2, 35532, Note_on_c, 0, 80, 93
2, 35544, Note_off_c, 0, 80, 0
2, 35544, Note_on_c, 0, 81, 93
2, 35556, Note_off_c, 0, 81, 0
2, 35556, Note_on_c, 0, 80, 93
2, 35568, Note_off_c, 0, 80, 0
2, 35568, Note_on_c, 0, 81, 93
2, 35580, Note_off_c, 0, 81, 0
2, 35580, Note_on_c, 0, 80, 93
2, 35592, Note_off_c, 0, 80, 0
2, 35592, Note_on_c, 0, 81, 93
2, 35604, Note_off_c, 0, 81, 0
2, 35604, Note_on_c, 0, 80, 93
2, 35616, Note_off_c, 0, 80, 0
2, 35616, Note_on_c, 0, 81, 93
2, 35628, Note_off_c, 0, 81, 0
2, 35628, Note_on_c, 0, 80, 93
2, 35640, Note_off_c, 0, 80, 0
2, 35640, Note_on_c, 0, 81, 93
2, 35688, Note_off_c, 0, 81, 0
2, 35760, Note_on_c, 0, 73, 93
2, 35784, Note_off_c, 0, 73, 0
2, 35784, Note_on_c, 0, 74, 93
2, 35832, Note_off_c, 0, 74, 0
2, 35832, Note_on_c, 0, 76, 93
2, 35856, Note_off_c, 0, 76, 0
2, 35856, Note_on_c, 0, 69, 93
2, 35880, Note_off_c, 0, 69, 0
2, 35880, Note_on_c, 0, 71, 93
2, 35904, Note_off_c, 0, 71, 0
2, 35904, Note_on_c, 0, 73, 93
2, 35928, Note_off_c, 0, 73, 0
2, 35928, Note_on_c, 0, 74, 93
2, 35952, Note_off_c, 0, 74, 0
2, 35952, Note_on_c, 0, 76, 93
2, 35976, Note_off_c, 0, 76, 0
2, 35976, Note_on_c, 0, 77, 93
2, 36000, Note_off_c, 0, 77, 0
2, 36000, Note_on_c, 0, 67, 93
2, 36096, Note_off_c, 0, 67, 0
2, 36096, Note_on_c, 0, 79, 93
2, 36120, Note_off_c, 0, 79, 0
2, 36120, Note_on_c, 0, 77, 93
2, 36144, Note_off_c, 0, 77, 0
2, 36144, Note_on_c, 0, 76, 93
2, 36168, Note_off_c, 0, 76, 0
2, 36168, Note_on_c, 0, 74, 93
2, 36192, Note_off_c, 0, 74, 0
2, 36192, Note_on_c, 0, 73, 93
2, 36216, Note_off_c, 0, 73, 0
2, 36216, Note_on_c, 0, 74, 93
2, 36312, Note_off_c, 0, 74, 0
2, 36312, Note_on_c, 0, 71, 93
2, 36336, Note_off_c, 0, 71, 0
2, 36336, Note_on_c, 0, 73, 93
2, 36360, Note_off_c, 0, 73, 0
2, 36360, Note_on_c, 0, 74, 93
2, 36384, Note_off_c, 0, 74, 0
2, 36384, Note_on_c, 0, 76, 93
2, 36408, Note_off_c, 0, 76, 0
2, 36408, Note_on_c, 0, 77, 93
2, 36432, Note_off_c, 0, 77, 0
2, 36432, Note_on_c, 0, 76, 93
2, 36456, Note_off_c, 0, 76, 0
2, 36456, Note_on_c, 0, 77, 93
2, 36480, Note_off_c, 0, 77, 0
2, 36480, Note_on_c, 0, 74, 93
2, 36504, Note_off_c, 0, 74, 0
2, 36504, Note_on_c, 0, 73, 93
2, 36528, Note_off_c, 0, 73, 0
2, 36528, Note_on_c, 0, 74, 93
2, 36552, Note_off_c, 0, 74, 0
2, 36552, Note_on_c, 0, 76, 93
2, 36576, Note_off_c, 0, 76, 0
2, 36576, Note_on_c, 0, 69, 93
2, 36672, Note_off_c, 0, 69, 0
2, 36672, Note_on_c, 0, 70, 93
2, 36696, Note_off_c, 0, 70, 0
2, 36696, Note_on_c, 0, 67, 93
2, 36720, Note_off_c, 0, 67, 0
2, 36720, Note_on_c, 0, 65, 93
2, 36744, Note_off_c, 0, 65, 0
2, 36744, Note_on_c, 0, 67, 93
2, 36768, Note_off_c, 0, 67, 0
2, 36768, Note_on_c, 0, 64, 93
2, 36792, Note_off_c, 0, 64, 0
2, 36792, Note_on_c, 0, 65, 93
2, 36816, Note_off_c, 0, 65, 0
2, 36816, Note_on_c, 0, 69, 93
2, 36840, Note_off_c, 0, 69, 0
2, 36840, Note_on_c, 0, 74, 93
2, 36864, Note_off_c, 0, 74, 0
2, 36864, Note_on_c, 0, 72, 93
2, 36888, Note_off_c, 0, 72, 0
2, 36888, Note_on_c, 0, 70, 93
2, 36912, Note_off_c, 0, 70, 0
2, 36912, Note_on_c, 0, 69, 93
2, 36936, Note_off_c, 0, 69, 0
2, 36936, Note_on_c, 0, 70, 93
2, 36960, Note_off_c, 0, 70, 0
2, 36960, Note_on_c, 0, 74, 93
2, 36984, Note_off_c, 0, 74, 0
2, 36984, Note_on_c, 0, 79, 93
2, 37008, Note_off_c, 0, 79, 0
2, 37008, Note_on_c, 0, 73, 93
2, 37032, Note_off_c, 0, 73, 0
2, 37032, Note_on_c, 0, 76, 93
2, 37056, Note_off_c, 0, 76, 0
2, 37056, Note_on_c, 0, 69, 93
2, 37080, Note_off_c, 0, 69, 0
2, 37080, Note_on_c, 0, 70, 93
2, 37104, Note_off_c, 0, 70, 0
2, 37104, Note_on_c, 0, 69, 93
2, 37128, Note_off_c, 0, 69, 0
2, 37128, Note_on_c, 0, 67, 93
2, 37152, Note_off_c, 0, 67, 0
2, 37152, Note_on_c, 0, 65, 93
2, 37176, Note_off_c, 0, 65, 0
2, 37176, Note_on_c, 0, 67, 93
2, 37200, Note_off_c, 0, 67, 0
2, 37200, Note_on_c, 0, 64, 93
2, 37224, Note_off_c, 0, 64, 0
2, 37224, Note_on_c, 0, 65, 93
2, 37272, Note_off_c, 0, 65, 0
2, 37272, Note_on_c, 0, 74, 93
2, 37296, Note_off_c, 0, 74, 0
2, 37296, Note_on_c, 0, 67, 93
2, 37344, Note_off_c, 0, 67, 0
2, 37344, Note_on_c, 0, 65, 93
2, 37368, Note_off_c, 0, 65, 0
2, 37368, Note_on_c, 0, 64, 93
2, 37392, Note_off_c, 0, 64, 0
2, 37392, Note_on_c, 0, 69, 93
2, 37416, Note_off_c, 0, 69, 0
2, 37416, Note_on_c, 0, 67, 93
2, 37440, Note_off_c, 0, 67, 0
2, 37440, Note_on_c, 0, 65, 93
2, 37464, Note_off_c, 0, 65, 0
2, 37464, Note_on_c, 0, 64, 93
2, 37488, Note_off_c, 0, 64, 0
2, 37488, Note_on_c, 0, 62, 93
2, 37512, Note_off_c, 0, 62, 0
2, 37512, Note_on_c, 0, 62, 93
2, 37524, Note_off_c, 0, 62, 0
2, 37524, Note_on_c, 0, 61, 93
2, 37536, Note_off_c, 0, 61, 0
2, 37536, Note_on_c, 0, 62, 93
2, 37548, Note_off_c, 0, 62, 0
2, 37548, Note_on_c, 0, 61, 93
2, 37560, Note_off_c, 0, 61, 0
2, 37560, Note_on_c, 0, 62, 93
2, 37572, Note_off_c, 0, 62, 0
2, 37572, Note_on_c, 0, 61, 93
2, 37584, Note_off_c, 0, 61, 0
2, 37584, Note_on_c, 0, 62, 93
2, 37632, Note_off_c, 0, 62, 0
2, 37704, Note_on_c, 0, 70, 93
2, 37728, Note_off_c, 0, 70, 0
2, 37728, Note_on_c, 0, 69, 93
2, 37776, Note_off_c, 0, 69, 0
2, 37776, Note_on_c, 0, 77, 93
2, 37800, Note_off_c, 0, 77, 0
2, 37800, Note_on_c, 0, 67, 93
2, 37824, Note_off_c, 0, 67, 0
2, 37824, Note_on_c, 0, 69, 93
2, 37848, Note_off_c, 0, 69, 0
2, 37848, Note_on_c, 0, 70, 93
2, 37872, Note_off_c, 0, 70, 0
2, 37872, Note_on_c, 0, 69, 93
2, 37896, Note_off_c, 0, 69, 0
2, 37896, Note_on_c, 0, 73, 93
2, 37920, Note_off_c, 0, 73, 0
2, 37920, Note_on_c, 0, 76, 93
2, 37944, Note_off_c, 0, 76, 0
2, 37944, Note_on_c, 0, 79, 93
2, 37968, Note_off_c, 0, 79, 0
2, 37968, Note_on_c, 0, 77, 93
2, 37992, Note_off_c, 0, 77, 0
2, 37992, Note_on_c, 0, 76, 93
2, 38016, Note_off_c, 0, 76, 0
2, 38016, Note_on_c, 0, 81, 93
2, 38064, Note_off_c, 0, 81, 0
2, 38064, Note_on_c, 0, 73, 93
2, 38088, Note_off_c, 0, 73, 0
2, 38088, Note_on_c, 0, 74, 93
2, 38112, Note_off_c, 0, 74, 0
2, 38112, Note_on_c, 0, 76, 93
2, 38136, Note_off_c, 0, 76, 0
2, 38136, Note_on_c, 0, 77, 93
2, 38160, Note_off_c, 0, 77, 0
2, 38160, Note_on_c, 0, 70, 93
2, 38184, Note_off_c, 0, 70, 0
2, 38184, Note_on_c, 0, 75, 93
2, 38208, Note_off_c, 0, 75, 0
2, 38208, Note_on_c, 0, 74, 93
2, 38232, Note_off_c, 0, 74, 0
2, 38232, Note_on_c, 0, 73, 93
2, 38256, Note_off_c, 0, 73, 0
2, 38256, Note_on_c, 0, 74, 93
2, 38280, Note_off_c, 0, 74, 0
2, 38280, Note_on_c, 0, 76, 93
2, 38304, Note_off_c, 0, 76, 0
2, 38304, Note_on_c, 0, 69, 93
2, 38352, Note_off_c, 0, 69, 0
2, 38376, Note_on_c, 0, 45, 93
2, 38424, Note_off_c, 0, 45, 0
2, 38448, Note_on_c, 0, 38, 93
2, 38592, Note_off_c, 0, 38, 0
2, 38592, End_track
3, 0, Start_track
3, 0, Title_t, "Track3"
3, 0, Program_c, 1, 56
3, 0, Control_c, 1, 7, 100
3, 0, Control_c, 1, 10, 32
3, 864, Note_on_c, 1, 57, 93
3, 936, Note_off_c, 1, 57, 0
3, 936, Note_on_c, 1, 50, 93
3, 960, Note_off_c, 1, 50, 0
3, 960, Note_on_c, 1, 49, 93
3, 984, Note_off_c, 1, 49, 0
3, 984, Note_on_c, 1, 50, 93
3, 1008, Note_off_c, 1, 50, 0
3, 1008, Note_on_c, 1, 52, 93
3, 1032, Note_off_c, 1, 52, 0
3, 1032, Note_on_c, 1, 50, 93
3, 1056, Note_off_c, 1, 50, 0
3, 1056, Note_on_c, 1, 52, 93
3, 1080, Note_off_c, 1, 52, 0
3, 1080, Note_on_c, 1, 53, 93
3, 1104, Note_off_c, 1, 53, 0
3, 1104, Note_on_c, 1, 52, 93
3, 1128, Note_off_c, 1, 52, 0
3, 1128, Note_on_c, 1, 53, 93
3, 1152, Note_off_c, 1, 53, 0
3, 1152, Note_on_c, 1, 55, 93
3, 1176, Note_off_c, 1, 55, 0
3, 1176, Note_on_c, 1, 53, 93
3, 1200, Note_off_c, 1, 53, 0
3, 1200, Note_on_c, 1, 55, 93
3, 1224, Note_off_c, 1, 55, 0
3, 1224, Note_on_c, 1, 57, 93
3, 1248, Note_off_c, 1, 57, 0
3, 1248, Note_on_c, 1, 55, 93
3, 1272, Note_off_c, 1, 55, 0
3, 1272, Note_on_c, 1, 57, 93
3, 1296, Note_off_c, 1, 57, 0
3, 1296, Note_on_c, 1, 58, 93
3, 1320, Note_off_c, 1, 58, 0
3, 1368, Note_on_c, 1, 57, 93
3, 1392, Note_off_c, 1, 57, 0
3, 1440, Note_on_c, 1, 55, 93
3, 1464, Note_off_c, 1, 55, 0
3, 1512, Note_on_c, 1, 55, 93
3, 1536, Note_off_c, 1, 55, 0
3, 1536, Note_on_c, 1, 53, 93
3, 1632, Note_off_c, 1, 53, 0
3, 1632, Note_on_c, 1, 52, 93
3, 1656, Note_off_c, 1, 52, 0
3, 1656, Note_on_c, 1, 53, 93
3, 1704, Note_off_c, 1, 53, 0
3, 1704, Note_on_c, 1, 55, 93
3, 1728, Note_off_c, 1, 55, 0
3, 1728, Note_on_c, 1, 57, 93
3, 1776, Note_off_c, 1, 57, 0
3, 1776, Note_on_c, 1, 67, 93
3, 1800, Note_off_c, 1, 67, 0
3, 1800, Note_on_c, 1, 65, 93
3, 1848, Note_off_c, 1, 65, 0
3, 1848, Note_on_c, 1, 57, 93
3, 1872, Note_off_c, 1, 57, 0
3, 1872, Note_on_c, 1, 55, 93
3, 1920, Note_off_c, 1, 55, 0
3, 1920, Note_on_c, 1, 64, 93
3, 1944, Note_off_c, 1, 64, 0
3, 1944, Note_on_c, 1, 62, 93
3, 1992, Note_off_c, 1, 62, 0
3, 1992, Note_on_c, 1, 53, 93
3, 2016, Note_off_c, 1, 53, 0
3, 2016, Note_on_c, 1, 52, 93
3, 2064, Note_off_c, 1, 52, 0
3, 2064, Note_on_c, 1, 62, 93
3, 2088, Note_off_c, 1, 62, 0
3, 2088, Note_on_c, 1, 61, 93
3, 2136, Note_off_c, 1, 61, 0
3, 2136, Note_on_c, 1, 52, 93
3, 2160, Note_off_c, 1, 52, 0
3, 2160, Note_on_c, 1, 52, 93
3, 2184, Note_off_c, 1, 52, 0
3, 2184, Note_on_c, 1, 50, 93
3, 2208, Note_off_c, 1, 50, 0
3, 2208, Note_on_c, 1, 49, 93
3, 2232, Note_off_c, 1, 49, 0
3, 2232, Note_on_c, 1, 50, 93
3, 2256, Note_off_c, 1, 50, 0
3, 2256, Note_on_c, 1, 52, 93
3, 2280, Note_off_c, 1, 52, 0
3, 2280, Note_on_c, 1, 53, 93
3, 2304, Note_off_c, 1, 53, 0
3, 2304, Note_on_c, 1, 55, 93
3, 2328, Note_off_c, 1, 55, 0
3, 2328, Note_on_c, 1, 57, 93
3, 2352, Note_off_c, 1, 57, 0
3, 2352, Note_on_c, 1, 58, 93
3, 2376, Note_off_c, 1, 58, 0
3, 2376, Note_on_c, 1, 58, 93
3, 2400, Note_off_c, 1, 58, 0
3, 2400, Note_on_c, 1, 57, 93
3, 2424, Note_off_c, 1, 57, 0
3, 2424, Note_on_c, 1, 55, 93
3, 2448, Note_off_c, 1, 55, 0
3, 2448, Note_on_c, 1, 57, 93
3, 2472, Note_off_c, 1, 57, 0
3, 2472, Note_on_c, 1, 59, 93
3, 2496, Note_off_c, 1, 59, 0
3, 2496, Note_on_c, 1, 61, 93
3, 2520, Note_off_c, 1, 61, 0
3, 2520, Note_on_c, 1, 62, 93
3, 2544, Note_off_c, 1, 62, 0
3, 2544, Note_on_c, 1, 64, 93
3, 2568, Note_off_c, 1, 64, 0
3, 2568, Note_on_c, 1, 65, 93
3, 2592, Note_off_c, 1, 65, 0
3, 2592, Note_on_c, 1, 65, 93
3, 2616, Note_off_c, 1, 65, 0
3, 2616, Note_on_c, 1, 62, 93
3, 2640, Note_off_c, 1, 62, 0
3, 2640, Note_on_c, 1, 64, 93
3, 2664, Note_off_c, 1, 64, 0
3, 2664, Note_on_c, 1, 64, 93
3, 2688, Note_off_c, 1, 64, 0
3, 2688, Note_on_c, 1, 61, 93
3, 2712, Note_off_c, 1, 61, 0
3, 2712, Note_on_c, 1, 62, 93
3, 2736, Note_off_c, 1, 62, 0
3, 2736, Note_on_c, 1, 62, 93
3, 2760, Note_off_c, 1, 62, 0
3, 2760, Note_on_c, 1, 59, 93
3, 2784, Note_off_c, 1, 59, 0
3, 2784, Note_on_c, 1, 60, 93
3, 2808, Note_off_c, 1, 60, 0
3, 2808, Note_on_c, 1, 60, 93
3, 2832, Note_off_c, 1, 60, 0
3, 2832, Note_on_c, 1, 57, 93
3, 2856, Note_off_c, 1, 57, 0
3, 2856, Note_on_c, 1, 58, 93
3, 2880, Note_off_c, 1, 58, 0
3, 2880, Note_on_c, 1, 58, 93
3, 2904, Note_off_c, 1, 58, 0
3, 2904, Note_on_c, 1, 55, 93
3, 2928, Note_off_c, 1, 55, 0
3, 2928, Note_on_c, 1, 57, 93
3, 2952, Note_off_c, 1, 57, 0
3, 2952, Note_on_c, 1, 57, 93
3, 2976, Note_off_c, 1, 57, 0
3, 2976, Note_on_c, 1, 53, 93
3, 3000, Note_off_c, 1, 53, 0
3, 3000, Note_on_c, 1, 55, 93
3, 3024, Note_off_c, 1, 55, 0
3, 3024, Note_on_c, 1, 55, 93
3, 3048, Note_off_c, 1, 55, 0
3, 3048, Note_on_c, 1, 53, 93
3, 3120, Note_off_c, 1, 53, 0
3, 3120, Note_on_c, 1, 55, 93
3, 3144, Note_off_c, 1, 55, 0
3, 3144, Note_on_c, 1, 57, 93
3, 3168, Note_off_c, 1, 57, 0
3, 3168, Note_on_c, 1, 58, 93
3, 3192, Note_off_c, 1, 58, 0
3, 3192, Note_on_c, 1, 57, 93
3, 3216, Note_off_c, 1, 57, 0
3, 3216, Note_on_c, 1, 55, 93
3, 3240, Note_off_c, 1, 55, 0
3, 3240, Note_on_c, 1, 62, 93
3, 3264, Note_off_c, 1, 62, 0
3, 3264, Note_on_c, 1, 61, 93
3, 3336, Note_off_c, 1, 61, 0
3, 3336, Note_on_c, 1, 62, 93
3, 3360, Note_off_c, 1, 62, 0
3, 3360, Note_on_c, 1, 64, 93
3, 3384, Note_off_c, 1, 64, 0
3, 3384, Note_on_c, 1, 65, 93
3, 3408, Note_off_c, 1, 65, 0
3, 3408, Note_on_c, 1, 64, 93
3, 3432, Note_off_c, 1, 64, 0
3, 3432, Note_on_c, 1, 62, 93
3, 3456, Note_off_c, 1, 62, 0
3, 3456, Note_on_c, 1, 69, 93
3, 3468, Note_off_c, 1, 69, 0
3, 3468, Note_on_c, 1, 68, 93
3, 3480, Note_off_c, 1, 68, 0
3, 3480, Note_on_c, 1, 66, 93
3, 3492, Note_off_c, 1, 66, 0
3, 3492, Note_on_c, 1, 68, 93
3, 3504, Note_off_c, 1, 68, 0
3, 3504, Note_on_c, 1, 69, 93
3, 3516, Note_off_c, 1, 69, 0
3, 3516, Note_on_c, 1, 68, 93
3, 3528, Note_off_c, 1, 68, 0
3, 3528, Note_on_c, 1, 69, 93
3, 3540, Note_off_c, 1, 69, 0
3, 3540, Note_on_c, 1, 68, 93
3, 3552, Note_off_c, 1, 68, 0
3, 3552, Note_on_c, 1, 69, 93
3, 3564, Note_off_c, 1, 69, 0
3, 3564, Note_on_c, 1, 68, 93
3, 3576, Note_off_c, 1, 68, 0
3, 3576, Note_on_c, 1, 69, 93
3, 3588, Note_off_c, 1, 69, 0
3, 3588, Note_on_c, 1, 68, 93
3, 3600, Note_off_c, 1, 68, 0
3, 3600, Note_on_c, 1, 69, 93
3, 3612, Note_off_c, 1, 69, 0
3, 3612, Note_on_c, 1, 68, 93
3, 3624, Note_off_c, 1, 68, 0
3, 3624, Note_on_c, 1, 69, 93
3, 3636, Note_off_c, 1, 69, 0
3, 3636, Note_on_c, 1, 68, 93
3, 3648, Note_off_c, 1, 68, 0
3, 3648, Note_on_c, 1, 69, 93
3, 3660, Note_off_c, 1, 69, 0
3, 3660, Note_on_c, 1, 68, 93
3, 3672, Note_off_c, 1, 68, 0
3, 3672, Note_on_c, 1, 69, 93
3, 3720, Note_off_c, 1, 69, 0
3, 3792, Note_on_c, 1, 61, 93
3, 3816, Note_off_c, 1, 61, 0
3, 3816, Note_on_c, 1, 62, 93
3, 3864, Note_off_c, 1, 62, 0
3, 3864, Note_on_c, 1, 64, 93
3, 3888, Note_off_c, 1, 64, 0
3, 3888, Note_on_c, 1, 57, 93
3, 3912, Note_off_c, 1, 57, 0
3, 3912, Note_on_c, 1, 59, 93
3, 3936, Note_off_c, 1, 59, 0
3, 3936, Note_on_c, 1, 61, 93
3, 3960, Note_off_c, 1, 61, 0
3, 3960, Note_on_c, 1, 62, 93
3, 3984, Note_off_c, 1, 62, 0
3, 3984, Note_on_c, 1, 64, 93
3, 4008, Note_off_c, 1, 64, 0
3, 4008, Note_on_c, 1, 65, 93
3, 4032, Note_off_c, 1, 65, 0
3, 4032, Note_on_c, 1, 55, 93
3, 4128, Note_off_c, 1, 55, 0
3, 4128, Note_on_c, 1, 67, 93
3, 4152, Note_off_c, 1, 67, 0
3, 4152, Note_on_c, 1, 65, 93
3, 4176, Note_off_c, 1, 65, 0
3, 4176, Note_on_c, 1, 64, 93
3, 4200, Note_off_c, 1, 64, 0
3, 4200, Note_on_c, 1, 62, 93
3, 4224, Note_off_c, 1, 62, 0
3, 4224, Note_on_c, 1, 61, 93
3, 4248, Note_off_c, 1, 61, 0
3, 4248, Note_on_c, 1, 62, 93
3, 4344, Note_off_c, 1, 62, 0
3, 4344, Note_on_c, 1, 59, 93
3, 4368, Note_off_c, 1, 59, 0
3, 4368, Note_on_c, 1, 61, 93
3, 4392, Note_off_c, 1, 61, 0
3, 4392, Note_on_c, 1, 62, 93
3, 4416, Note_off_c, 1, 62, 0
3, 4416, Note_on_c, 1, 64, 93
3, 4440, Note_off_c, 1, 64, 0
3, 4440, Note_on_c, 1, 65, 93
3, 4464, Note_off_c, 1, 65, 0
3, 4464, Note_on_c, 1, 64, 93
3, 4488, Note_off_c, 1, 64, 0
3, 4488, Note_on_c, 1, 65, 93
3, 4512, Note_off_c, 1, 65, 0
3, 4512, Note_on_c, 1, 62, 93
3, 4536, Note_off_c, 1, 62, 0
3, 4536, Note_on_c, 1, 61, 93
3, 4560, Note_off_c, 1, 61, 0
3, 4560, Note_on_c, 1, 62, 93
3, 4584, Note_off_c, 1, 62, 0
3, 4584, Note_on_c, 1, 64, 93
3, 4608, Note_off_c, 1, 64, 0
3, 4608, Note_on_c, 1, 57, 93
3, 4704, Note_off_c, 1, 57, 0
3, 4704, Note_on_c, 1, 58, 93
3, 4728, Note_off_c, 1, 58, 0
3, 4728, Note_on_c, 1, 55, 93
3, 4752, Note_off_c, 1, 55, 0
3, 4752, Note_on_c, 1, 53, 93
3, 4776, Note_off_c, 1, 53, 0
3, 4776, Note_on_c, 1, 55, 93
3, 4800, Note_off_c, 1, 55, 0
3, 4800, Note_on_c, 1, 52, 93
3, 4824, Note_off_c, 1, 52, 0
3, 4824, Note_on_c, 1, 53, 93
3, 4848, Note_off_c, 1, 53, 0
3, 4848, Note_on_c, 1, 57, 93
3, 4872, Note_off_c, 1, 57, 0
3, 4872, Note_on_c, 1, 62, 93
3, 4896, Note_off_c, 1, 62, 0
3, 4896, Note_on_c, 1, 60, 93
3, 4920, Note_off_c, 1, 60, 0
3, 4920, Note_on_c, 1, 58, 93
3, 4944, Note_off_c, 1, 58, 0
3, 4944, Note_on_c, 1, 57, 93
3, 4968, Note_off_c, 1, 57, 0
3, 4968, Note_on_c, 1, 58, 93
3, 4992, Note_off_c, 1, 58, 0
3, 4992, Note_on_c, 1, 62, 93
3, 5016, Note_off_c, 1, 62, 0
3, 5016, Note_on_c, 1, 67, 93
3, 5040, Note_off_c, 1, 67, 0
3, 5040, Note_on_c, 1, 61, 93
3, 5064, Note_off_c, 1, 61, 0
3, 5064, Note_on_c, 1, 64, 93
3, 5088, Note_off_c, 1, 64, 0
3, 5088, Note_on_c, 1, 57, 93
3, 5112, Note_off_c, 1, 57, 0
3, 5112, Note_on_c, 1, 58, 93
3, 5136, Note_off_c, 1, 58, 0
3, 5136, Note_on_c, 1, 57, 93
3, 5160, Note_off_c, 1, 57, 0
3, 5160, Note_on_c, 1, 55, 93
3, 5184, Note_off_c, 1, 55, 0
3, 5184, Note_on_c, 1, 53, 93
3, 5208, Note_off_c, 1, 53, 0
3, 5208, Note_on_c, 1, 55, 93
3, 5232, Note_off_c, 1, 55, 0
3, 5232, Note_on_c, 1, 52, 93
3, 5256, Note_off_c, 1, 52, 0
3, 5256, Note_on_c, 1, 53, 93
3, 5304, Note_off_c, 1, 53, 0
3, 5304, Note_on_c, 1, 62, 93
3, 5328, Note_off_c, 1, 62, 0
3, 5328, Note_on_c, 1, 55, 93
3, 5376, Note_off_c, 1, 55, 0
3, 5376, Note_on_c, 1, 53, 93
3, 5400, Note_off_c, 1, 53, 0
3, 5400, Note_on_c, 1, 52, 93
3, 5424, Note_off_c, 1, 52, 0
3, 5424, Note_on_c, 1, 57, 93
3, 5448, Note_off_c, 1, 57, 0
3, 5448, Note_on_c, 1, 55, 93
3, 5472, Note_off_c, 1, 55, 0
3, 5472, Note_on_c, 1, 53, 93
3, 5496, Note_off_c, 1, 53, 0
3, 5496, Note_on_c, 1, 52, 93
3, 5520, Note_off_c, 1, 52, 0
3, 5520, Note_on_c, 1, 50, 93
3, 5544, Note_off_c, 1, 50, 0
3, 5544, Note_on_c, 1, 50, 93
3, 5556, Note_off_c, 1, 50, 0
3, 5556, Note_on_c, 1, 49, 93
3, 5568, Note_off_c, 1, 49, 0
3, 5568, Note_on_c, 1, 50, 93
3, 5580, Note_off_c, 1, 50, 0
3, 5580, Note_on_c, 1, 49, 93
3, 5592, Note_off_c, 1, 49, 0
3, 5592, Note_on_c, 1, 50, 93
3, 5604, Note_off_c, 1, 50, 0
3, 5604, Note_on_c, 1, 49, 93
3, 5616, Note_off_c, 1, 49, 0
3, 5616, Note_on_c, 1, 50, 93
3, 5664, Note_off_c, 1, 50, 0
3, 6048, Note_on_c, 1, 62, 93
3, 6120, Note_off_c, 1, 62, 0
3, 6120, Note_on_c, 1, 57, 93
3, 6144, Note_off_c, 1, 57, 0
3, 6144, Note_on_c, 1, 56, 93
3, 6168, Note_off_c, 1, 56, 0
3, 6168, Note_on_c, 1, 57, 93
3, 6192, Note_off_c, 1, 57, 0
3, 6192, Note_on_c, 1, 59, 93
3, 6216, Note_off_c, 1, 59, 0
3, 6216, Note_on_c, 1, 57, 93
3, 6240, Note_off_c, 1, 57, 0
3, 6240, Note_on_c, 1, 59, 93
3, 6264, Note_off_c, 1, 59, 0
3, 6264, Note_on_c, 1, 60, 93
3, 6288, Note_off_c, 1, 60, 0
3, 6288, Note_on_c, 1, 59, 93
3, 6312, Note_off_c, 1, 59, 0
3, 6312, Note_on_c, 1, 61, 93
3, 6336, Note_off_c, 1, 61, 0
3, 6336, Note_on_c, 1, 62, 93
3, 6360, Note_off_c, 1, 62, 0
3, 6360, Note_on_c, 1, 61, 93
3, 6384, Note_off_c, 1, 61, 0
3, 6384, Note_on_c, 1, 62, 93
3, 6408, Note_off_c, 1, 62, 0
3, 6408, Note_on_c, 1, 64, 93
3, 6432, Note_off_c, 1, 64, 0
3, 6432, Note_on_c, 1, 62, 93
3, 6456, Note_off_c, 1, 62, 0
3, 6456, Note_on_c, 1, 64, 93
3, 6480, Note_off_c, 1, 64, 0
3, 6480, Note_on_c, 1, 65, 93
3, 6504, Note_off_c, 1, 65, 0
3, 6552, Note_on_c, 1, 64, 93
3, 6576, Note_off_c, 1, 64, 0
3, 6624, Note_on_c, 1, 62, 93
3, 6648, Note_off_c, 1, 62, 0
3, 6696, Note_on_c, 1, 62, 93
3, 6720, Note_off_c, 1, 62, 0
3, 6720, Note_on_c, 1, 61, 93
3, 6816, Note_off_c, 1, 61, 0
3, 6816, Note_on_c, 1, 57, 93
3, 6840, Note_off_c, 1, 57, 0
3, 6840, Note_on_c, 1, 59, 93
3, 6888, Note_off_c, 1, 59, 0
3, 6888, Note_on_c, 1, 61, 93
3, 6912, Note_off_c, 1, 61, 0
3, 6912, Note_on_c, 1, 62, 93
3, 6936, Note_off_c, 1, 62, 0
3, 6936, Note_on_c, 1, 60, 93
3, 6960, Note_off_c, 1, 60, 0
3, 6960, Note_on_c, 1, 59, 93
3, 6984, Note_off_c, 1, 59, 0
3, 6984, Note_on_c, 1, 60, 93
3, 7032, Note_off_c, 1, 60, 0
3, 7032, Note_on_c, 1, 69, 93
3, 7056, Note_off_c, 1, 69, 0
3, 7056, Note_on_c, 1, 68, 93
3, 7104, Note_off_c, 1, 68, 0
3, 7104, Note_on_c, 1, 62, 93
3, 7128, Note_off_c, 1, 62, 0
3, 7128, Note_on_c, 1, 64, 93
3, 7176, Note_off_c, 1, 64, 0
3, 7176, Note_on_c, 1, 67, 93
3, 7200, Note_off_c, 1, 67, 0
3, 7200, Note_on_c, 1, 65, 93
3, 7224, Note_off_c, 1, 65, 0
3, 7224, Note_on_c, 1, 64, 93
3, 7248, Note_off_c, 1, 64, 0
3, 7248, Note_on_c, 1, 62, 93
3, 7272, Note_off_c, 1, 62, 0
3, 7272, Note_on_c, 1, 61, 93
3, 7320, Note_off_c, 1, 61, 0
3, 7320, Note_on_c, 1, 70, 93
3, 7344, Note_off_c, 1, 70, 0
3, 7344, Note_on_c, 1, 69, 93
3, 7368, Note_off_c, 1, 69, 0
3, 7368, Note_on_c, 1, 65, 93
3, 7392, Note_off_c, 1, 65, 0
3, 7392, Note_on_c, 1, 62, 93
3, 7416, Note_off_c, 1, 62, 0
3, 7416, Note_on_c, 1, 62, 93
3, 7440, Note_off_c, 1, 62, 0
3, 7440, Note_on_c, 1, 67, 93
3, 7464, Note_off_c, 1, 67, 0
3, 7464, Note_on_c, 1, 60, 93
3, 7488, Note_off_c, 1, 60, 0
3, 7488, Note_on_c, 1, 60, 93
3, 7512, Note_off_c, 1, 60, 0
3, 7512, Note_on_c, 1, 65, 93
3, 7536, Note_off_c, 1, 65, 0
3, 7536, Note_on_c, 1, 58, 93
3, 7560, Note_off_c, 1, 58, 0
3, 7560, Note_on_c, 1, 58, 93
3, 7584, Note_off_c, 1, 58, 0
3, 7584, Note_on_c, 1, 57, 93
3, 7608, Note_off_c, 1, 57, 0
3, 7608, Note_on_c, 1, 55, 93
3, 7632, Note_off_c, 1, 55, 0
3, 7632, Note_on_c, 1, 57, 93
3, 7656, Note_off_c, 1, 57, 0
3, 7656, Note_on_c, 1, 61, 93
3, 7680, Note_off_c, 1, 61, 0
3, 7680, Note_on_c, 1, 64, 93
3, 7704, Note_off_c, 1, 64, 0
3, 7704, Note_on_c, 1, 67, 93
3, 7728, Note_off_c, 1, 67, 0
3, 7728, Note_on_c, 1, 65, 93
3, 7752, Note_off_c, 1, 65, 0
3, 7752, Note_on_c, 1, 64, 93
3, 7776, Note_off_c, 1, 64, 0
3, 7776, Note_on_c, 1, 65, 93
3, 7800, Note_off_c, 1, 65, 0
3, 7800, Note_on_c, 1, 64, 93
3, 7824, Note_off_c, 1, 64, 0
3, 7824, Note_on_c, 1, 62, 93
3, 7848, Note_off_c, 1, 62, 0
3, 7848, Note_on_c, 1, 64, 93
3, 7872, Note_off_c, 1, 64, 0
3, 7872, Note_on_c, 1, 62, 93
3, 7896, Note_off_c, 1, 62, 0
3, 7896, Note_on_c, 1, 60, 93
3, 7920, Note_off_c, 1, 60, 0
3, 7920, Note_on_c, 1, 62, 93
3, 7944, Note_off_c, 1, 62, 0
3, 7944, Note_on_c, 1, 60, 93
3, 7968, Note_off_c, 1, 60, 0
3, 7968, Note_on_c, 1, 59, 93
3, 7992, Note_off_c, 1, 59, 0
3, 7992, Note_on_c, 1, 60, 93
3, 8016, Note_off_c, 1, 60, 0
3, 8016, Note_on_c, 1, 62, 93
3, 8040, Note_off_c, 1, 62, 0
3, 8040, Note_on_c, 1, 64, 93
3, 8064, Note_off_c, 1, 64, 0
3, 8064, Note_on_c, 1, 62, 93
3, 8088, Note_off_c, 1, 62, 0
3, 8088, Note_on_c, 1, 64, 93
3, 8112, Note_off_c, 1, 64, 0
3, 8112, Note_on_c, 1, 65, 93
3, 8136, Note_off_c, 1, 65, 0
3, 8136, Note_on_c, 1, 64, 93
3, 8160, Note_off_c, 1, 64, 0
3, 8160, Note_on_c, 1, 65, 93
3, 8184, Note_off_c, 1, 65, 0
3, 8184, Note_on_c, 1, 67, 93
3, 8208, Note_off_c, 1, 67, 0
3, 8208, Note_on_c, 1, 65, 93
3, 8232, Note_off_c, 1, 65, 0
3, 8232, Note_on_c, 1, 62, 93
3, 8256, Note_off_c, 1, 62, 0
3, 8256, Note_on_c, 1, 69, 93
3, 8280, Note_off_c, 1, 69, 0
3, 8280, Note_on_c, 1, 58, 93
3, 8304, Note_off_c, 1, 58, 0
3, 8304, Note_on_c, 1, 64, 93
3, 8328, Note_off_c, 1, 64, 0
3, 8328, Note_on_c, 1, 67, 93
3, 8352, Note_off_c, 1, 67, 0
3, 8352, Note_on_c, 1, 57, 93
3, 8376, Note_off_c, 1, 57, 0
3, 8376, Note_on_c, 1, 62, 93
3, 8400, Note_off_c, 1, 62, 0
3, 8400, Note_on_c, 1, 65, 93
3, 8424, Note_off_c, 1, 65, 0
3, 8424, Note_on_c, 1, 55, 93
3, 8448, Note_off_c, 1, 55, 0
3, 8448, Note_on_c, 1, 61, 93
3, 8472, Note_off_c, 1, 61, 0
3, 8472, Note_on_c, 1, 64, 93
3, 8496, Note_off_c, 1, 64, 0
3, 8496, Note_on_c, 1, 53, 93
3, 8520, Note_off_c, 1, 53, 0
3, 8520, Note_on_c, 1, 57, 93
3, 8544, Note_off_c, 1, 57, 0
3, 8544, Note_on_c, 1, 55, 93
3, 8568, Note_off_c, 1, 55, 0
3, 8568, Note_on_c, 1, 58, 93
3, 8592, Note_off_c, 1, 58, 0
3, 8592, Note_on_c, 1, 57, 93
3, 8616, Note_off_c, 1, 57, 0
3, 8616, Note_on_c, 1, 61, 93
3, 8640, Note_off_c, 1, 61, 0
3, 8640, Note_on_c, 1, 62, 93
3, 8664, Note_off_c, 1, 62, 0
3, 8664, Note_on_c, 1, 64, 93
3, 8688, Note_off_c, 1, 64, 0
3, 8688, Note_on_c, 1, 65, 93
3, 8712, Note_off_c, 1, 65, 0
3, 8712, Note_on_c, 1, 57, 93
3, 8724, Note_off_c, 1, 57, 0
3, 8724, Note_on_c, 1, 56, 93
3, 8736, Note_off_c, 1, 56, 0
3, 8736, Note_on_c, 1, 53, 93
3, 8748, Note_off_c, 1, 53, 0
3, 8748, Note_on_c, 1, 56, 93
3, 8760, Note_off_c, 1, 56, 0
3, 8760, Note_on_c, 1, 57, 93
3, 8772, Note_off_c, 1, 57, 0
3, 8772, Note_on_c, 1, 56, 93
3, 8784, Note_off_c, 1, 56, 0
3, 8784, Note_on_c, 1, 57, 93
3, 8796, Note_off_c, 1, 57, 0
3, 8796, Note_on_c, 1, 56, 93
3, 8808, Note_off_c, 1, 56, 0
3, 8808, Note_on_c, 1, 57, 93
3, 8820, Note_off_c, 1, 57, 0
3, 8820, Note_on_c, 1, 56, 93
3, 8832, Note_off_c, 1, 56, 0
3, 8832, Note_on_c, 1, 53, 93
3, 8844, Note_off_c, 1, 53, 0
3, 8844, Note_on_c, 1, 56, 93
3, 8856, Note_off_c, 1, 56, 0
3, 8856, Note_on_c, 1, 57, 93
3, 8904, Note_off_c, 1, 57, 0
3, 8976, Note_on_c, 1, 59, 93
3, 9000, Note_off_c, 1, 59, 0
3, 9000, Note_on_c, 1, 60, 93
3, 9048, Note_off_c, 1, 60, 0
3, 9048, Note_on_c, 1, 57, 93
3, 9072, Note_off_c, 1, 57, 0
3, 9072, Note_on_c, 1, 62, 93
3, 9120, Note_off_c, 1, 62, 0
3, 9120, Note_on_c, 1, 65, 93
3, 9144, Note_off_c, 1, 65, 0
3, 9144, Note_on_c, 1, 65, 93
3, 9168, Note_off_c, 1, 65, 0
3, 9168, Note_on_c, 1, 64, 93
3, 9192, Note_off_c, 1, 64, 0
3, 9192, Note_on_c, 1, 62, 93
3, 9216, Note_off_c, 1, 62, 0
3, 9216, Note_on_c, 1, 60, 93
3, 9240, Note_off_c, 1, 60, 0
3, 9240, Note_on_c, 1, 62, 93
3, 9264, Note_off_c, 1, 62, 0
3, 9264, Note_on_c, 1, 59, 93
3, 9288, Note_off_c, 1, 59, 0
3, 9288, Note_on_c, 1, 64, 93
3, 9360, Note_off_c, 1, 64, 0
3, 9360, Note_on_c, 1, 57, 93
3, 9432, Note_off_c, 1, 57, 0
3, 9504, Note_on_c, 1, 57, 93
3, 9576, Note_off_c, 1, 57, 0
3, 9576, Note_on_c, 1, 64, 93
3, 9600, Note_off_c, 1, 64, 0
3, 9600, Note_on_c, 1, 65, 93
3, 9624, Note_off_c, 1, 65, 0
3, 9624, Note_on_c, 1, 64, 93
3, 9648, Note_off_c, 1, 64, 0
3, 9648, Note_on_c, 1, 62, 93
3, 9672, Note_off_c, 1, 62, 0
3, 9672, Note_on_c, 1, 64, 93
3, 9696, Note_off_c, 1, 64, 0
3, 9696, Note_on_c, 1, 62, 93
3, 9720, Note_off_c, 1, 62, 0
3, 9720, Note_on_c, 1, 60, 93
3, 9744, Note_off_c, 1, 60, 0
3, 9744, Note_on_c, 1, 62, 93
3, 9768, Note_off_c, 1, 62, 0
3, 9768, Note_on_c, 1, 60, 93
3, 9792, Note_off_c, 1, 60, 0
3, 9792, Note_on_c, 1, 59, 93
3, 9816, Note_off_c, 1, 59, 0
3, 9816, Note_on_c, 1, 60, 93
3, 9840, Note_off_c, 1, 60, 0
3, 9840, Note_on_c, 1, 59, 93
3, 9864, Note_off_c, 1, 59, 0
3, 9864, Note_on_c, 1, 57, 93
3, 9888, Note_off_c, 1, 57, 0
3, 9888, Note_on_c, 1, 59, 93
3, 9912, Note_off_c, 1, 59, 0
3, 9912, Note_on_c, 1, 57, 93
3, 9936, Note_off_c, 1, 57, 0
3, 9936, Note_on_c, 1, 56, 93
3, 9960, Note_off_c, 1, 56, 0
3, 10008, Note_on_c, 1, 57, 93
3, 10032, Note_off_c, 1, 57, 0
3, 10080, Note_on_c, 1, 59, 93
3, 10104, Note_off_c, 1, 59, 0
3, 10152, Note_on_c, 1, 59, 93
3, 10176, Note_off_c, 1, 59, 0
3, 10176, Note_on_c, 1, 60, 93
3, 10272, Note_off_c, 1, 60, 0
3, 10272, Note_on_c, 1, 62, 93
3, 10296, Note_off_c, 1, 62, 0
3, 10296, Note_on_c, 1, 60, 93
3, 10344, Note_off_c, 1, 60, 0
3, 10344, Note_on_c, 1, 59, 93
3, 10368, Note_off_c, 1, 59, 0
3, 10368, Note_on_c, 1, 57, 93
3, 10392, Note_off_c, 1, 57, 0
3, 10392, Note_on_c, 1, 52, 93
3, 10416, Note_off_c, 1, 52, 0
3, 10416, Note_on_c, 1, 57, 93
3, 10440, Note_off_c, 1, 57, 0
3, 10440, Note_on_c, 1, 60, 93
3, 10464, Note_off_c, 1, 60, 0
3, 10464, Note_on_c, 1, 57, 93
3, 10488, Note_off_c, 1, 57, 0
3, 10488, Note_on_c, 1, 60, 93
3, 10512, Note_off_c, 1, 60, 0
3, 10512, Note_on_c, 1, 64, 93
3, 10560, Note_off_c, 1, 64, 0
3, 10560, Note_on_c, 1, 56, 93
3, 10584, Note_off_c, 1, 56, 0
3, 10584, Note_on_c, 1, 57, 93
3, 10632, Note_off_c, 1, 57, 0
3, 10632, Note_on_c, 1, 65, 93
3, 10656, Note_off_c, 1, 65, 0
3, 10656, Note_on_c, 1, 55, 93
3, 10704, Note_off_c, 1, 55, 0
3, 10704, Note_on_c, 1, 64, 93
3, 10728, Note_off_c, 1, 64, 0
3, 10728, Note_on_c, 1, 53, 93
3, 10776, Note_off_c, 1, 53, 0
3, 10776, Note_on_c, 1, 62, 93
3, 10800, Note_off_c, 1, 62, 0
3, 10800, Note_on_c, 1, 52, 93
3, 10824, Note_off_c, 1, 52, 0
3, 10824, Note_on_c, 1, 59, 93
3, 10848, Note_off_c, 1, 59, 0
3, 10848, Note_on_c, 1, 62, 93
3, 10872, Note_off_c, 1, 62, 0
3, 10872, Note_on_c, 1, 60, 93
3, 10896, Note_off_c, 1, 60, 0
3, 10896, Note_on_c, 1, 59, 93
3, 10920, Note_off_c, 1, 59, 0
3, 10920, Note_on_c, 1, 57, 93
3, 10944, Note_off_c, 1, 57, 0
3, 10944, Note_on_c, 1, 56, 93
3, 10968, Note_off_c, 1, 56, 0
3, 10968, Note_on_c, 1, 62, 93
3, 10992, Note_off_c, 1, 62, 0
3, 10992, Note_on_c, 1, 65, 93
3, 11016, Note_off_c, 1, 65, 0
3, 11016, Note_on_c, 1, 64, 93
3, 11040, Note_off_c, 1, 64, 0
3, 11040, Note_on_c, 1, 62, 93
3, 11064, Note_off_c, 1, 62, 0
3, 11064, Note_on_c, 1, 60, 93
3, 11088, Note_off_c, 1, 60, 0
3, 11088, Note_on_c, 1, 59, 93
3, 11112, Note_off_c, 1, 59, 0
3, 11112, Note_on_c, 1, 57, 93
3, 11136, Note_off_c, 1, 57, 0
3, 11136, Note_on_c, 1, 56, 93
3, 11160, Note_off_c, 1, 56, 0
3, 11160, Note_on_c, 1, 57, 93
3, 11184, Note_off_c, 1, 57, 0
3, 11184, Note_on_c, 1, 52, 93
3, 11208, Note_off_c, 1, 52, 0
3, 11208, Note_on_c, 1, 59, 93
3, 11232, Note_off_c, 1, 59, 0
3, 11232, Note_on_c, 1, 60, 93
3, 11256, Note_off_c, 1, 60, 0
3, 11256, Note_on_c, 1, 59, 93
3, 11280, Note_off_c, 1, 59, 0
3, 11280, Note_on_c, 1, 57, 93
3, 11304, Note_off_c, 1, 57, 0
3, 11304, Note_on_c, 1, 64, 93
3, 11400, Note_off_c, 1, 64, 0
3, 11400, Note_on_c, 1, 59, 93
3, 11424, Note_off_c, 1, 59, 0
3, 11424, Note_on_c, 1, 62, 93
3, 11448, Note_off_c, 1, 62, 0
3, 11448, Note_on_c, 1, 62, 93
3, 11472, Note_off_c, 1, 62, 0
3, 11472, Note_on_c, 1, 60, 93
3, 11496, Note_off_c, 1, 60, 0
3, 11496, Note_on_c, 1, 69, 93
3, 11514, Note_off_c, 1, 69, 0
3, 11520, Note_on_c, 1, 60, 93
3, 11544, Note_off_c, 1, 60, 0
3, 11544, Note_on_c, 1, 59, 93
3, 11568, Note_off_c, 1, 59, 0
3, 11568, Note_on_c, 1, 67, 93
3, 11586, Note_off_c, 1, 67, 0
3, 11592, Note_on_c, 1, 59, 93
3, 11616, Note_off_c, 1, 59, 0
3, 11616, Note_on_c, 1, 57, 93
3, 11640, Note_off_c, 1, 57, 0
3, 11640, Note_on_c, 1, 65, 93
3, 11658, Note_off_c, 1, 65, 0
3, 11664, Note_on_c, 1, 57, 93
3, 11688, Note_off_c, 1, 57, 0
3, 11688, Note_on_c, 1, 56, 93
3, 11712, Note_off_c, 1, 56, 0
3, 11712, Note_on_c, 1, 59, 93
3, 11730, Note_off_c, 1, 59, 0
3, 11736, Note_on_c, 1, 52, 93
3, 11784, Note_off_c, 1, 52, 0
3, 11952, Note_on_c, 1, 62, 93
3, 12048, Note_off_c, 1, 62, 0
3, 12048, Note_on_c, 1, 60, 93
3, 12072, Note_off_c, 1, 60, 0
3, 12072, Note_on_c, 1, 62, 93
3, 12096, Note_off_c, 1, 62, 0
3, 12096, Note_on_c, 1, 64, 93
3, 12120, Note_off_c, 1, 64, 0
3, 12120, Note_on_c, 1, 62, 93
3, 12144, Note_off_c, 1, 62, 0
3, 12144, Note_on_c, 1, 60, 93
3, 12168, Note_off_c, 1, 60, 0
3, 12168, Note_on_c, 1, 59, 93
3, 12192, Note_off_c, 1, 59, 0
3, 12192, Note_on_c, 1, 60, 93
3, 12216, Note_off_c, 1, 60, 0
3, 12216, Note_on_c, 1, 62, 93
3, 12240, Note_off_c, 1, 62, 0
3, 12240, Note_on_c, 1, 64, 93
3, 12264, Note_off_c, 1, 64, 0
3, 12264, Note_on_c, 1, 66, 93
3, 12288, Note_off_c, 1, 66, 0
3, 12288, Note_on_c, 1, 68, 93
3, 12312, Note_off_c, 1, 68, 0
3, 12312, Note_on_c, 1, 69, 93
3, 12336, Note_off_c, 1, 69, 0
3, 12336, Note_on_c, 1, 64, 93
3, 12360, Note_off_c, 1, 64, 0
3, 12360, Note_on_c, 1, 60, 93
3, 12384, Note_off_c, 1, 60, 0
3, 12384, Note_on_c, 1, 62, 93
3, 12408, Note_off_c, 1, 62, 0
3, 12408, Note_on_c, 1, 67, 93
3, 12432, Note_off_c, 1, 67, 0
3, 12432, Note_on_c, 1, 59, 93
3, 12456, Note_off_c, 1, 59, 0
3, 12456, Note_on_c, 1, 60, 93
3, 12480, Note_off_c, 1, 60, 0
3, 12480, Note_on_c, 1, 65, 93
3, 12504, Note_off_c, 1, 65, 0
3, 12504, Note_on_c, 1, 57, 93
3, 12528, Note_off_c, 1, 57, 0
3, 12528, Note_on_c, 1, 59, 93
3, 12552, Note_off_c, 1, 59, 0
3, 12552, Note_on_c, 1, 64, 93
3, 12576, Note_off_c, 1, 64, 0
3, 12576, Note_on_c, 1, 62, 93
3, 12600, Note_off_c, 1, 62, 0
3, 12600, Note_on_c, 1, 60, 93
3, 12624, Note_off_c, 1, 60, 0
3, 12624, Note_on_c, 1, 59, 93
3, 12648, Note_off_c, 1, 59, 0
3, 12648, Note_on_c, 1, 57, 93
3, 12672, Note_off_c, 1, 57, 0
3, 12672, Note_on_c, 1, 59, 93
3, 12696, Note_off_c, 1, 59, 0
3, 12696, Note_on_c, 1, 57, 93
3, 12720, Note_off_c, 1, 57, 0
3, 12720, Note_on_c, 1, 56, 93
3, 12744, Note_off_c, 1, 56, 0
3, 12744, Note_on_c, 1, 57, 93
3, 12768, Note_off_c, 1, 57, 0
3, 12768, Note_on_c, 1, 56, 93
3, 12792, Note_off_c, 1, 56, 0
3, 12792, Note_on_c, 1, 54, 93
3, 12816, Note_off_c, 1, 54, 0
3, 12816, Note_on_c, 1, 56, 93
3, 12840, Note_off_c, 1, 56, 0
3, 12840, Note_on_c, 1, 52, 93
3, 12864, Note_off_c, 1, 52, 0
3, 12864, Note_on_c, 1, 56, 93
3, 12888, Note_off_c, 1, 56, 0
3, 12888, Note_on_c, 1, 59, 93
3, 12912, Note_off_c, 1, 59, 0
3, 12912, Note_on_c, 1, 64, 93
3, 12936, Note_off_c, 1, 64, 0
3, 12936, Note_on_c, 1, 62, 93
3, 12960, Note_off_c, 1, 62, 0
3, 12960, Note_on_c, 1, 60, 93
3, 12984, Note_off_c, 1, 60, 0
3, 12984, Note_on_c, 1, 59, 93
3, 13008, Note_off_c, 1, 59, 0
3, 13008, Note_on_c, 1, 57, 93
3, 13032, Note_off_c, 1, 57, 0
3, 13032, Note_on_c, 1, 62, 93
3, 13128, Note_off_c, 1, 62, 0
3, 13128, Note_on_c, 1, 60, 93
3, 13152, Note_off_c, 1, 60, 0
3, 13152, Note_on_c, 1, 59, 93
3, 13176, Note_off_c, 1, 59, 0
3, 13176, Note_on_c, 1, 60, 93
3, 13200, Note_off_c, 1, 60, 0
3, 13248, Note_on_c, 1, 65, 93
3, 13272, Note_off_c, 1, 65, 0
3, 13320, Note_on_c, 1, 64, 93
3, 13344, Note_off_c, 1, 64, 0
3, 13392, Note_on_c, 1, 62, 93
3, 13440, Note_off_c, 1, 62, 0
3, 13440, Note_on_c, 1, 56, 93
3, 13464, Note_off_c, 1, 56, 0
3, 13464, Note_on_c, 1, 57, 93
3, 13512, Note_off_c, 1, 57, 0
3, 13512, Note_on_c, 1, 60, 93
3, 13536, Note_off_c, 1, 60, 0
3, 13536, Note_on_c, 1, 56, 93
3, 13548, Note_off_c, 1, 56, 0
3, 13548, Note_on_c, 1, 53, 93
3, 13560, Note_off_c, 1, 53, 0
3, 13560, Note_on_c, 1, 56, 93
3, 13572, Note_off_c, 1, 56, 0
3, 13572, Note_on_c, 1, 53, 93
3, 13584, Note_off_c, 1, 53, 0
3, 13584, Note_on_c, 1, 52, 93
3, 13596, Note_off_c, 1, 52, 0
3, 13596, Note_on_c, 1, 53, 93
3, 13608, Note_off_c, 1, 53, 0
3, 13608, Note_on_c, 1, 52, 93
3, 13656, Note_off_c, 1, 52, 0
3, 13848, Note_on_c, 1, 50, 93
3, 13872, Note_off_c, 1, 50, 0
3, 13872, Note_on_c, 1, 52, 93
3, 13896, Note_off_c, 1, 52, 0
3, 13896, Note_on_c, 1, 53, 93
3, 13920, Note_off_c, 1, 53, 0
3, 13920, Note_on_c, 1, 55, 93
3, 13944, Note_off_c, 1, 55, 0
3, 13944, Note_on_c, 1, 53, 93
3, 13968, Note_off_c, 1, 53, 0
3, 13968, Note_on_c, 1, 52, 93
3, 14064, Note_off_c, 1, 52, 0
3, 14064, Note_on_c, 1, 53, 93
3, 14088, Note_off_c, 1, 53, 0
3, 14088, Note_on_c, 1, 55, 93
3, 14112, Note_off_c, 1, 55, 0
3, 14112, Note_on_c, 1, 57, 93
3, 14136, Note_off_c, 1, 57, 0
3, 14136, Note_on_c, 1, 58, 93
3, 14160, Note_off_c, 1, 58, 0
3, 14160, Note_on_c, 1, 57, 93
3, 14184, Note_off_c, 1, 57, 0
3, 14184, Note_on_c, 1, 55, 93
3, 14208, Note_off_c, 1, 55, 0
3, 14208, Note_on_c, 1, 57, 93
3, 14232, Note_off_c, 1, 57, 0
3, 14232, Note_on_c, 1, 55, 93
3, 14256, Note_off_c, 1, 55, 0
3, 14256, Note_on_c, 1, 53, 93
3, 14280, Note_off_c, 1, 53, 0
3, 14280, Note_on_c, 1, 55, 93
3, 14304, Note_off_c, 1, 55, 0
3, 14304, Note_on_c, 1, 53, 93
3, 14328, Note_off_c, 1, 53, 0
3, 14328, Note_on_c, 1, 52, 93
3, 14352, Note_off_c, 1, 52, 0
3, 14352, Note_on_c, 1, 53, 93
3, 14376, Note_off_c, 1, 53, 0
3, 14376, Note_on_c, 1, 52, 93
3, 14400, Note_off_c, 1, 52, 0
3, 14400, Note_on_c, 1, 50, 93
3, 14424, Note_off_c, 1, 50, 0
3, 14424, Note_on_c, 1, 52, 93
3, 14448, Note_off_c, 1, 52, 0
3, 14448, Note_on_c, 1, 50, 93
3, 14472, Note_off_c, 1, 50, 0
3, 14472, Note_on_c, 1, 49, 93
3, 14496, Note_off_c, 1, 49, 0
3, 14544, Note_on_c, 1, 50, 93
3, 14568, Note_off_c, 1, 50, 0
3, 14616, Note_on_c, 1, 52, 93
3, 14640, Note_off_c, 1, 52, 0
3, 14688, Note_on_c, 1, 53, 93
3, 14808, Note_off_c, 1, 53, 0
3, 14808, Note_on_c, 1, 57, 93
3, 14832, Note_off_c, 1, 57, 0
3, 14832, Note_on_c, 1, 57, 93
3, 14844, Note_off_c, 1, 57, 0
3, 14844, Note_on_c, 1, 55, 93
3, 14856, Note_off_c, 1, 55, 0
3, 14856, Note_on_c, 1, 57, 93
3, 14868, Note_off_c, 1, 57, 0
3, 14868, Note_on_c, 1, 55, 93
3, 14880, Note_off_c, 1, 55, 0
3, 14880, Note_on_c, 1, 53, 93
3, 14904, Note_off_c, 1, 53, 0
3, 14904, Note_on_c, 1, 55, 93
3, 14928, Note_off_c, 1, 55, 0
3, 14928, Note_on_c, 1, 53, 93
3, 14952, Note_off_c, 1, 53, 0
3, 14952, Note_on_c, 1, 52, 93
3, 14976, Note_off_c, 1, 52, 0
3, 14976, Note_on_c, 1, 62, 93
3, 14988, Note_off_c, 1, 62, 0
3, 14988, Note_on_c, 1, 61, 93
3, 15000, Note_off_c, 1, 61, 0
3, 15000, Note_on_c, 1, 58, 93
3, 15012, Note_off_c, 1, 58, 0
3, 15012, Note_on_c, 1, 61, 93
3, 15024, Note_off_c, 1, 61, 0
3, 15024, Note_on_c, 1, 62, 93
3, 15036, Note_off_c, 1, 62, 0
3, 15036, Note_on_c, 1, 61, 93
3, 15048, Note_off_c, 1, 61, 0
3, 15048, Note_on_c, 1, 62, 93
3, 15060, Note_off_c, 1, 62, 0
3, 15060, Note_on_c, 1, 61, 93
3, 15072, Note_off_c, 1, 61, 0
3, 15072, Note_on_c, 1, 62, 93
3, 15084, Note_off_c, 1, 62, 0
3, 15084, Note_on_c, 1, 61, 93
3, 15096, Note_off_c, 1, 61, 0
3, 15096, Note_on_c, 1, 58, 93
3, 15108, Note_off_c, 1, 58, 0
3, 15108, Note_on_c, 1, 61, 93
3, 15120, Note_off_c, 1, 61, 0
3, 15120, Note_on_c, 1, 62, 93
3, 15144, Note_off_c, 1, 62, 0
3, 15144, Note_on_c, 1, 58, 93
3, 15168, Note_off_c, 1, 58, 0
3, 15168, Note_on_c, 1, 67, 93
3, 15192, Note_off_c, 1, 67, 0
3, 15192, Note_on_c, 1, 60, 93
3, 15216, Note_off_c, 1, 60, 0
3, 15216, Note_on_c, 1, 57, 93
3, 15240, Note_off_c, 1, 57, 0
3, 15240, Note_on_c, 1, 65, 93
3, 15264, Note_off_c, 1, 65, 0
3, 15264, Note_on_c, 1, 58, 93
3, 15288, Note_off_c, 1, 58, 0
3, 15288, Note_on_c, 1, 55, 93
3, 15312, Note_off_c, 1, 55, 0
3, 15312, Note_on_c, 1, 64, 93
3, 15336, Note_off_c, 1, 64, 0
3, 15336, Note_on_c, 1, 57, 93
3, 15360, Note_off_c, 1, 57, 0
3, 15360, Note_on_c, 1, 55, 93
3, 15384, Note_off_c, 1, 55, 0
3, 15384, Note_on_c, 1, 64, 93
3, 15408, Note_off_c, 1, 64, 0
3, 15408, Note_on_c, 1, 57, 93
3, 15432, Note_off_c, 1, 57, 0
3, 15432, Note_on_c, 1, 53, 93
3, 15456, Note_off_c, 1, 53, 0
3, 15456, Note_on_c, 1, 62, 93
3, 15480, Note_off_c, 1, 62, 0
3, 15480, Note_on_c, 1, 55, 93
3, 15504, Note_off_c, 1, 55, 0
3, 15504, Note_on_c, 1, 52, 93
3, 15528, Note_off_c, 1, 52, 0
3, 15528, Note_on_c, 1, 61, 93
3, 15552, Note_off_c, 1, 61, 0
3, 15552, Note_on_c, 1, 62, 93
3, 15576, Note_off_c, 1, 62, 0
3, 15576, Note_on_c, 1, 57, 93
3, 15600, Note_off_c, 1, 57, 0
3, 15600, Note_on_c, 1, 53, 93
3, 15624, Note_off_c, 1, 53, 0
3, 15624, Note_on_c, 1, 50, 93
3, 15648, Note_off_c, 1, 50, 0
3, 15648, Note_on_c, 1, 52, 93
3, 15672, Note_off_c, 1, 52, 0
3, 15672, Note_on_c, 1, 53, 93
3, 15696, Note_off_c, 1, 53, 0
3, 15696, Note_on_c, 1, 52, 93
3, 15720, Note_off_c, 1, 52, 0
3, 15720, Note_on_c, 1, 53, 93
3, 15744, Note_off_c, 1, 53, 0
3, 15744, Note_on_c, 1, 50, 93
3, 15768, Note_off_c, 1, 50, 0
3, 15768, Note_on_c, 1, 52, 93
3, 15864, Note_off_c, 1, 52, 0
3, 15864, Note_on_c, 1, 53, 93
3, 15888, Note_off_c, 1, 53, 0
3, 15888, Note_on_c, 1, 55, 93
3, 15912, Note_off_c, 1, 55, 0
3, 15912, Note_on_c, 1, 53, 93
3, 15936, Note_off_c, 1, 53, 0
3, 15936, Note_on_c, 1, 55, 93
3, 15960, Note_off_c, 1, 55, 0
3, 15960, Note_on_c, 1, 52, 93
3, 15984, Note_off_c, 1, 52, 0
3, 15984, Note_on_c, 1, 53, 93
3, 16008, Note_off_c, 1, 53, 0
3, 16056, Note_on_c, 1, 52, 93
3, 16080, Note_off_c, 1, 52, 0
3, 16128, Note_on_c, 1, 50, 93
3, 16152, Note_off_c, 1, 50, 0
3, 16200, Note_on_c, 1, 49, 93
3, 16224, Note_off_c, 1, 49, 0
3, 16272, Note_on_c, 1, 50, 93
3, 16296, Note_off_c, 1, 50, 0
3, 16344, Note_on_c, 1, 52, 93
3, 16368, Note_off_c, 1, 52, 0
3, 16416, Note_on_c, 1, 53, 93
3, 16440, Note_off_c, 1, 53, 0
3, 16440, Note_on_c, 1, 52, 93
3, 16464, Note_off_c, 1, 52, 0
3, 16464, Note_on_c, 1, 50, 93
3, 16488, Note_off_c, 1, 50, 0
3, 16488, Note_on_c, 1, 58, 93
3, 16512, Note_off_c, 1, 58, 0
3, 16512, Note_on_c, 1, 57, 93
3, 16536, Note_off_c, 1, 57, 0
3, 16536, Note_on_c, 1, 55, 93
3, 16560, Note_off_c, 1, 55, 0
3, 16560, Note_on_c, 1, 61, 93
3, 16608, Note_off_c, 1, 61, 0
3, 16656, Note_on_c, 1, 55, 93
3, 16680, Note_off_c, 1, 55, 0
3, 16680, Note_on_c, 1, 50, 93
3, 16704, Note_off_c, 1, 50, 0
3, 16704, Note_on_c, 1, 49, 93
3, 16728, Note_off_c, 1, 49, 0
3, 16728, Note_on_c, 1, 50, 93
3, 16752, Note_off_c, 1, 50, 0
3, 16752, Note_on_c, 1, 52, 93
3, 16776, Note_off_c, 1, 52, 0
3, 16776, Note_on_c, 1, 45, 93
3, 16800, Note_off_c, 1, 45, 0
3, 16800, Note_on_c, 1, 47, 93
3, 16824, Note_off_c, 1, 47, 0
3, 16824, Note_on_c, 1, 49, 93
3, 16848, Note_off_c, 1, 49, 0
3, 16848, Note_on_c, 1, 50, 93
3, 16872, Note_off_c, 1, 50, 0
3, 16872, Note_on_c, 1, 43, 93
3, 16896, Note_off_c, 1, 43, 0
3, 16896, Note_on_c, 1, 46, 93
3, 16920, Note_off_c, 1, 46, 0
3, 16920, Note_on_c, 1, 48, 93
3, 16944, Note_off_c, 1, 48, 0
3, 16944, Note_on_c, 1, 41, 93
3, 16968, Note_off_c, 1, 41, 0
3, 16968, Note_on_c, 1, 45, 93
3, 16992, Note_off_c, 1, 45, 0
3, 16992, Note_on_c, 1, 46, 93
3, 17016, Note_off_c, 1, 46, 0
3, 17016, Note_on_c, 1, 40, 93
3, 17040, Note_off_c, 1, 40, 0
3, 17040, Note_on_c, 1, 43, 93
3, 17064, Note_off_c, 1, 43, 0
3, 17064, Note_on_c, 1, 45, 93
3, 17088, Note_off_c, 1, 45, 0
3, 17088, Note_on_c, 1, 57, 93
3, 17112, Note_off_c, 1, 57, 0
3, 17112, Note_on_c, 1, 55, 93
3, 17136, Note_off_c, 1, 55, 0
3, 17136, Note_on_c, 1, 53, 93
3, 17160, Note_off_c, 1, 53, 0
3, 17160, Note_on_c, 1, 62, 93
3, 17184, Note_off_c, 1, 62, 0
3, 17184, Note_on_c, 1, 60, 93
3, 17208, Note_off_c, 1, 60, 0
3, 17208, Note_on_c, 1, 58, 93
3, 17232, Note_off_c, 1, 58, 0
3, 17232, Note_on_c, 1, 57, 93
3, 17256, Note_off_c, 1, 57, 0
3, 17256, Note_on_c, 1, 58, 93
3, 17280, Note_off_c, 1, 58, 0
3, 17280, Note_on_c, 1, 57, 93
3, 17352, Note_off_c, 1, 57, 0
3, 17352, Note_on_c, 1, 50, 93
3, 17376, Note_off_c, 1, 50, 0
3, 17376, Note_on_c, 1, 49, 93
3, 17400, Note_off_c, 1, 49, 0
3, 17400, Note_on_c, 1, 50, 93
3, 17424, Note_off_c, 1, 50, 0
3, 17424, Note_on_c, 1, 52, 93
3, 17448, Note_off_c, 1, 52, 0
3, 17448, Note_on_c, 1, 50, 93
3, 17472, Note_off_c, 1, 50, 0
3, 17472, Note_on_c, 1, 52, 93
3, 17496, Note_off_c, 1, 52, 0
3, 17496, Note_on_c, 1, 53, 93
3, 17520, Note_off_c, 1, 53, 0
3, 17520, Note_on_c, 1, 52, 93
3, 17544, Note_off_c, 1, 52, 0
3, 17544, Note_on_c, 1, 53, 93
3, 17568, Note_off_c, 1, 53, 0
3, 17568, Note_on_c, 1, 55, 93
3, 17592, Note_off_c, 1, 55, 0
3, 17592, Note_on_c, 1, 53, 93
3, 17616, Note_off_c, 1, 53, 0
3, 17616, Note_on_c, 1, 55, 93
3, 17640, Note_off_c, 1, 55, 0
3, 17640, Note_on_c, 1, 57, 93
3, 17664, Note_off_c, 1, 57, 0
3, 17664, Note_on_c, 1, 55, 93
3, 17688, Note_off_c, 1, 55, 0
3, 17688, Note_on_c, 1, 57, 93
3, 17712, Note_off_c, 1, 57, 0
3, 17712, Note_on_c, 1, 58, 93
3, 17736, Note_off_c, 1, 58, 0
3, 17784, Note_on_c, 1, 57, 93
3, 17808, Note_off_c, 1, 57, 0
3, 17856, Note_on_c, 1, 55, 93
3, 17880, Note_off_c, 1, 55, 0
3, 17928, Note_on_c, 1, 55, 93
3, 17952, Note_off_c, 1, 55, 0
3, 17952, Note_on_c, 1, 53, 93
3, 18048, Note_off_c, 1, 53, 0
3, 18048, Note_on_c, 1, 52, 93
3, 18072, Note_off_c, 1, 52, 0
3, 18072, Note_on_c, 1, 53, 93
3, 18120, Note_off_c, 1, 53, 0
3, 18120, Note_on_c, 1, 55, 93
3, 18144, Note_off_c, 1, 55, 0
3, 18144, Note_on_c, 1, 57, 93
3, 18192, Note_off_c, 1, 57, 0
3, 18192, Note_on_c, 1, 67, 93
3, 18216, Note_off_c, 1, 67, 0
3, 18216, Note_on_c, 1, 65, 93
3, 18264, Note_off_c, 1, 65, 0
3, 18264, Note_on_c, 1, 57, 93
3, 18288, Note_off_c, 1, 57, 0
3, 18288, Note_on_c, 1, 55, 93
3, 18336, Note_off_c, 1, 55, 0
3, 18336, Note_on_c, 1, 64, 93
3, 18360, Note_off_c, 1, 64, 0
3, 18360, Note_on_c, 1, 62, 93
3, 18408, Note_off_c, 1, 62, 0
3, 18408, Note_on_c, 1, 53, 93
3, 18432, Note_off_c, 1, 53, 0
3, 18432, Note_on_c, 1, 52, 93
3, 18480, Note_off_c, 1, 52, 0
3, 18480, Note_on_c, 1, 62, 93
3, 18504, Note_off_c, 1, 62, 0
3, 18504, Note_on_c, 1, 61, 93
3, 18552, Note_off_c, 1, 61, 0
3, 18552, Note_on_c, 1, 52, 93
3, 18576, Note_off_c, 1, 52, 0
3, 18576, Note_on_c, 1, 52, 93
3, 18600, Note_off_c, 1, 52, 0
3, 18600, Note_on_c, 1, 50, 93
3, 18624, Note_off_c, 1, 50, 0
3, 18624, Note_on_c, 1, 49, 93
3, 18648, Note_off_c, 1, 49, 0
3, 18648, Note_on_c, 1, 50, 93
3, 18672, Note_off_c, 1, 50, 0
3, 18672, Note_on_c, 1, 52, 93
3, 18696, Note_off_c, 1, 52, 0
3, 18696, Note_on_c, 1, 53, 93
3, 18720, Note_off_c, 1, 53, 0
3, 18720, Note_on_c, 1, 55, 93
3, 18744, Note_off_c, 1, 55, 0
3, 18744, Note_on_c, 1, 57, 93
3, 18768, Note_off_c, 1, 57, 0
3, 18768, Note_on_c, 1, 58, 93
3, 18792, Note_off_c, 1, 58, 0
3, 18792, Note_on_c, 1, 58, 93
3, 18816, Note_off_c, 1, 58, 0
3, 18816, Note_on_c, 1, 57, 93
3, 18840, Note_off_c, 1, 57, 0
3, 18840, Note_on_c, 1, 55, 93
3, 18864, Note_off_c, 1, 55, 0
3, 18864, Note_on_c, 1, 57, 93
3, 18888, Note_off_c, 1, 57, 0
3, 18888, Note_on_c, 1, 59, 93
3, 18912, Note_off_c, 1, 59, 0
3, 18912, Note_on_c, 1, 61, 93
3, 18936, Note_off_c, 1, 61, 0
3, 18936, Note_on_c, 1, 62, 93
3, 18960, Note_off_c, 1, 62, 0
3, 18960, Note_on_c, 1, 64, 93
3, 18984, Note_off_c, 1, 64, 0
3, 18984, Note_on_c, 1, 65, 93
3, 19008, Note_off_c, 1, 65, 0
3, 19008, Note_on_c, 1, 65, 93
3, 19032, Note_off_c, 1, 65, 0
3, 19032, Note_on_c, 1, 62, 93
3, 19056, Note_off_c, 1, 62, 0
3, 19056, Note_on_c, 1, 64, 93
3, 19080, Note_off_c, 1, 64, 0
3, 19080, Note_on_c, 1, 64, 93
3, 19104, Note_off_c, 1, 64, 0
3, 19104, Note_on_c, 1, 61, 93
3, 19128, Note_off_c, 1, 61, 0
3, 19128, Note_on_c, 1, 62, 93
3, 19152, Note_off_c, 1, 62, 0
3, 19152, Note_on_c, 1, 62, 93
3, 19176, Note_off_c, 1, 62, 0
3, 19176, Note_on_c, 1, 59, 93
3, 19200, Note_off_c, 1, 59, 0
3, 19200, Note_on_c, 1, 60, 93
3, 19224, Note_off_c, 1, 60, 0
3, 19224, Note_on_c, 1, 60, 93
3, 19248, Note_off_c, 1, 60, 0
3, 19248, Note_on_c, 1, 57, 93
3, 19272, Note_off_c, 1, 57, 0
3, 19272, Note_on_c, 1, 58, 93
3, 19296, Note_off_c, 1, 58, 0
3, 19296, Note_on_c, 1, 58, 93
3, 19320, Note_off_c, 1, 58, 0
3, 19320, Note_on_c, 1, 55, 93
3, 19344, Note_off_c, 1, 55, 0
3, 19344, Note_on_c, 1, 57, 93
3, 19368, Note_off_c, 1, 57, 0
3, 19368, Note_on_c, 1, 57, 93
3, 19392, Note_off_c, 1, 57, 0
3, 19392, Note_on_c, 1, 53, 93
3, 19416, Note_off_c, 1, 53, 0
3, 19416, Note_on_c, 1, 55, 93
3, 19440, Note_off_c, 1, 55, 0
3, 19440, Note_on_c, 1, 55, 93
3, 19464, Note_off_c, 1, 55, 0
3, 19464, Note_on_c, 1, 53, 93
3, 19536, Note_off_c, 1, 53, 0
3, 19536, Note_on_c, 1, 55, 93
3, 19560, Note_off_c, 1, 55, 0
3, 19560, Note_on_c, 1, 57, 93
3, 19584, Note_off_c, 1, 57, 0
3, 19584, Note_on_c, 1, 58, 93
3, 19608, Note_off_c, 1, 58, 0
3, 19608, Note_on_c, 1, 57, 93
3, 19632, Note_off_c, 1, 57, 0
3, 19632, Note_on_c, 1, 55, 93
3, 19656, Note_off_c, 1, 55, 0
3, 19656, Note_on_c, 1, 62, 93
3, 19680, Note_off_c, 1, 62, 0
3, 19680, Note_on_c, 1, 61, 93
3, 19752, Note_off_c, 1, 61, 0
3, 19752, Note_on_c, 1, 62, 93
3, 19776, Note_off_c, 1, 62, 0
3, 19776, Note_on_c, 1, 64, 93
3, 19800, Note_off_c, 1, 64, 0
3, 19800, Note_on_c, 1, 65, 93
3, 19824, Note_off_c, 1, 65, 0
3, 19824, Note_on_c, 1, 64, 93
3, 19848, Note_off_c, 1, 64, 0
3, 19848, Note_on_c, 1, 62, 93
3, 19872, Note_off_c, 1, 62, 0
3, 19872, Note_on_c, 1, 69, 93
3, 19884, Note_off_c, 1, 69, 0
3, 19884, Note_on_c, 1, 68, 93
3, 19896, Note_off_c, 1, 68, 0
3, 19896, Note_on_c, 1, 66, 93
3, 19908, Note_off_c, 1, 66, 0
3, 19908, Note_on_c, 1, 68, 93
3, 19920, Note_off_c, 1, 68, 0
3, 19920, Note_on_c, 1, 69, 93
3, 19932, Note_off_c, 1, 69, 0
3, 19932, Note_on_c, 1, 68, 93
3, 19944, Note_off_c, 1, 68, 0
3, 19944, Note_on_c, 1, 69, 93
3, 19956, Note_off_c, 1, 69, 0
3, 19956, Note_on_c, 1, 68, 93
3, 19968, Note_off_c, 1, 68, 0
3, 19968, Note_on_c, 1, 69, 93
3, 19980, Note_off_c, 1, 69, 0
3, 19980, Note_on_c, 1, 68, 93
3, 19992, Note_off_c, 1, 68, 0
3, 19992, Note_on_c, 1, 69, 93
3, 20004, Note_off_c, 1, 69, 0
3, 20004, Note_on_c, 1, 68, 93
3, 20016, Note_off_c, 1, 68, 0
3, 20016, Note_on_c, 1, 69, 93
3, 20028, Note_off_c, 1, 69, 0
3, 20028, Note_on_c, 1, 68, 93
3, 20040, Note_off_c, 1, 68, 0
3, 20040, Note_on_c, 1, 69, 93
3, 20052, Note_off_c, 1, 69, 0
3, 20052, Note_on_c, 1, 68, 93
3, 20064, Note_off_c, 1, 68, 0
3, 20064, Note_on_c, 1, 69, 93
3, 20076, Note_off_c, 1, 69, 0
3, 20076, Note_on_c, 1, 68, 93
3, 20088, Note_off_c, 1, 68, 0
3, 20088, Note_on_c, 1, 69, 93
3, 20136, Note_off_c, 1, 69, 0
3, 20208, Note_on_c, 1, 61, 93
3, 20232, Note_off_c, 1, 61, 0
3, 20232, Note_on_c, 1, 62, 93
3, 20280, Note_off_c, 1, 62, 0
3, 20280, Note_on_c, 1, 64, 93
3, 20304, Note_off_c, 1, 64, 0
3, 20304, Note_on_c, 1, 57, 93
3, 20328, Note_off_c, 1, 57, 0
3, 20328, Note_on_c, 1, 59, 93
3, 20352, Note_off_c, 1, 59, 0
3, 20352, Note_on_c, 1, 61, 93
3, 20376, Note_off_c, 1, 61, 0
3, 20376, Note_on_c, 1, 62, 93
3, 20400, Note_off_c, 1, 62, 0
3, 20400, Note_on_c, 1, 64, 93
3, 20424, Note_off_c, 1, 64, 0
3, 20424, Note_on_c, 1, 65, 93
3, 20448, Note_off_c, 1, 65, 0
3, 20448, Note_on_c, 1, 55, 93
3, 20544, Note_off_c, 1, 55, 0
3, 20544, Note_on_c, 1, 67, 93
3, 20568, Note_off_c, 1, 67, 0
3, 20568, Note_on_c, 1, 65, 93
3, 20592, Note_off_c, 1, 65, 0
3, 20592, Note_on_c, 1, 64, 93
3, 20616, Note_off_c, 1, 64, 0
3, 20616, Note_on_c, 1, 62, 93
3, 20640, Note_off_c, 1, 62, 0
3, 20640, Note_on_c, 1, 61, 93
3, 20664, Note_off_c, 1, 61, 0
3, 20664, Note_on_c, 1, 62, 93
3, 20760, Note_off_c, 1, 62, 0
3, 20760, Note_on_c, 1, 59, 93
3, 20784, Note_off_c, 1, 59, 0
3, 20784, Note_on_c, 1, 61, 93
3, 20808, Note_off_c, 1, 61, 0
3, 20808, Note_on_c, 1, 62, 93
3, 20832, Note_off_c, 1, 62, 0
3, 20832, Note_on_c, 1, 64, 93
3, 20856, Note_off_c, 1, 64, 0
3, 20856, Note_on_c, 1, 65, 93
3, 20880, Note_off_c, 1, 65, 0
3, 20880, Note_on_c, 1, 64, 93
3, 20904, Note_off_c, 1, 64, 0
3, 20904, Note_on_c, 1, 65, 93
3, 20928, Note_off_c, 1, 65, 0
3, 20928, Note_on_c, 1, 62, 93
3, 20952, Note_off_c, 1, 62, 0
3, 20952, Note_on_c, 1, 61, 93
3, 20976, Note_off_c, 1, 61, 0
3, 20976, Note_on_c, 1, 62, 93
3, 21000, Note_off_c, 1, 62, 0
3, 21000, Note_on_c, 1, 64, 93
3, 21024, Note_off_c, 1, 64, 0
3, 21024, Note_on_c, 1, 57, 93
3, 21120, Note_off_c, 1, 57, 0
3, 21120, Note_on_c, 1, 58, 93
3, 21144, Note_off_c, 1, 58, 0
3, 21144, Note_on_c, 1, 55, 93
3, 21168, Note_off_c, 1, 55, 0
3, 21168, Note_on_c, 1, 53, 93
3, 21192, Note_off_c, 1, 53, 0
3, 21192, Note_on_c, 1, 55, 93
3, 21216, Note_off_c, 1, 55, 0
3, 21216, Note_on_c, 1, 52, 93
3, 21240, Note_off_c, 1, 52, 0
3, 21240, Note_on_c, 1, 53, 93
3, 21264, Note_off_c, 1, 53, 0
3, 21264, Note_on_c, 1, 57, 93
3, 21288, Note_off_c, 1, 57, 0
3, 21288, Note_on_c, 1, 62, 93
3, 21312, Note_off_c, 1, 62, 0
3, 21312, Note_on_c, 1, 60, 93
3, 21336, Note_off_c, 1, 60, 0
3, 21336, Note_on_c, 1, 58, 93
3, 21360, Note_off_c, 1, 58, 0
3, 21360, Note_on_c, 1, 57, 93
3, 21384, Note_off_c, 1, 57, 0
3, 21384, Note_on_c, 1, 58, 93
3, 21408, Note_off_c, 1, 58, 0
3, 21408, Note_on_c, 1, 62, 93
3, 21432, Note_off_c, 1, 62, 0
3, 21432, Note_on_c, 1, 67, 93
3, 21456, Note_off_c, 1, 67, 0
3, 21456, Note_on_c, 1, 61, 93
3, 21480, Note_off_c, 1, 61, 0
3, 21480, Note_on_c, 1, 64, 93
3, 21504, Note_off_c, 1, 64, 0
3, 21504, Note_on_c, 1, 57, 93
3, 21528, Note_off_c, 1, 57, 0
3, 21528, Note_on_c, 1, 58, 93
3, 21552, Note_off_c, 1, 58, 0
3, 21552, Note_on_c, 1, 57, 93
3, 21576, Note_off_c, 1, 57, 0
3, 21576, Note_on_c, 1, 55, 93
3, 21600, Note_off_c, 1, 55, 0
3, 21600, Note_on_c, 1, 53, 93
3, 21624, Note_off_c, 1, 53, 0
3, 21624, Note_on_c, 1, 55, 93
3, 21648, Note_off_c, 1, 55, 0
3, 21648, Note_on_c, 1, 52, 93
3, 21672, Note_off_c, 1, 52, 0
3, 21672, Note_on_c, 1, 53, 93
3, 21720, Note_off_c, 1, 53, 0
3, 21720, Note_on_c, 1, 62, 93
3, 21744, Note_off_c, 1, 62, 0
3, 21744, Note_on_c, 1, 55, 93
3, 21792, Note_off_c, 1, 55, 0
3, 21792, Note_on_c, 1, 53, 93
3, 21816, Note_off_c, 1, 53, 0
3, 21816, Note_on_c, 1, 52, 93
3, 21840, Note_off_c, 1, 52, 0
3, 21840, Note_on_c, 1, 57, 93
3, 21864, Note_off_c, 1, 57, 0
3, 21864, Note_on_c, 1, 55, 93
3, 21888, Note_off_c, 1, 55, 0
3, 21888, Note_on_c, 1, 53, 93
3, 21912, Note_off_c, 1, 53, 0
3, 21912, Note_on_c, 1, 52, 93
3, 21936, Note_off_c, 1, 52, 0
3, 21936, Note_on_c, 1, 50, 93
3, 21960, Note_off_c, 1, 50, 0
3, 21960, Note_on_c, 1, 50, 93
3, 21972, Note_off_c, 1, 50, 0
3, 21972, Note_on_c, 1, 49, 93
3, 21984, Note_off_c, 1, 49, 0
3, 21984, Note_on_c, 1, 50, 93
3, 21996, Note_off_c, 1, 50, 0
3, 21996, Note_on_c, 1, 49, 93
3, 22008, Note_off_c, 1, 49, 0
3, 22008, Note_on_c, 1, 50, 93
3, 22020, Note_off_c, 1, 50, 0
3, 22020, Note_on_c, 1, 49, 93
3, 22032, Note_off_c, 1, 49, 0
3, 22032, Note_on_c, 1, 50, 93
3, 22080, Note_off_c, 1, 50, 0
3, 22464, Note_on_c, 1, 62, 93
3, 22536, Note_off_c, 1, 62, 0
3, 22536, Note_on_c, 1, 57, 93
3, 22560, Note_off_c, 1, 57, 0
3, 22560, Note_on_c, 1, 56, 93
3, 22584, Note_off_c, 1, 56, 0
3, 22584, Note_on_c, 1, 57, 93
3, 22608, Note_off_c, 1, 57, 0
3, 22608, Note_on_c, 1, 59, 93
3, 22632, Note_off_c, 1, 59, 0
3, 22632, Note_on_c, 1, 57, 93
3, 22656, Note_off_c, 1, 57, 0
3, 22656, Note_on_c, 1, 59, 93
3, 22680, Note_off_c, 1, 59, 0
3, 22680, Note_on_c, 1, 60, 93
3, 22704, Note_off_c, 1, 60, 0
3, 22704, Note_on_c, 1, 59, 93
3, 22728, Note_off_c, 1, 59, 0
3, 22728, Note_on_c, 1, 61, 93
3, 22752, Note_off_c, 1, 61, 0
3, 22752, Note_on_c, 1, 62, 93
3, 22776, Note_off_c, 1, 62, 0
3, 22776, Note_on_c, 1, 61, 93
3, 22800, Note_off_c, 1, 61, 0
3, 22800, Note_on_c, 1, 62, 93
3, 22824, Note_off_c, 1, 62, 0
3, 22824, Note_on_c, 1, 64, 93
3, 22848, Note_off_c, 1, 64, 0
3, 22848, Note_on_c, 1, 62, 93
3, 22872, Note_off_c, 1, 62, 0
3, 22872, Note_on_c, 1, 64, 93
3, 22896, Note_off_c, 1, 64, 0
3, 22896, Note_on_c, 1, 65, 93
3, 22920, Note_off_c, 1, 65, 0
3, 22968, Note_on_c, 1, 64, 93
3, 22992, Note_off_c, 1, 64, 0
3, 23040, Note_on_c, 1, 62, 93
3, 23064, Note_off_c, 1, 62, 0
3, 23112, Note_on_c, 1, 62, 93
3, 23136, Note_off_c, 1, 62, 0
3, 23136, Note_on_c, 1, 61, 93
3, 23232, Note_off_c, 1, 61, 0
3, 23232, Note_on_c, 1, 57, 93
3, 23256, Note_off_c, 1, 57, 0
3, 23256, Note_on_c, 1, 59, 93
3, 23304, Note_off_c, 1, 59, 0
3, 23304, Note_on_c, 1, 61, 93
3, 23328, Note_off_c, 1, 61, 0
3, 23328, Note_on_c, 1, 62, 93
3, 23352, Note_off_c, 1, 62, 0
3, 23352, Note_on_c, 1, 60, 93
3, 23376, Note_off_c, 1, 60, 0
3, 23376, Note_on_c, 1, 59, 93
3, 23400, Note_off_c, 1, 59, 0
3, 23400, Note_on_c, 1, 60, 93
3, 23448, Note_off_c, 1, 60, 0
3, 23448, Note_on_c, 1, 69, 93
3, 23472, Note_off_c, 1, 69, 0
3, 23472, Note_on_c, 1, 68, 93
3, 23520, Note_off_c, 1, 68, 0
3, 23520, Note_on_c, 1, 62, 93
3, 23544, Note_off_c, 1, 62, 0
3, 23544, Note_on_c, 1, 64, 93
3, 23592, Note_off_c, 1, 64, 0
3, 23592, Note_on_c, 1, 67, 93
3, 23616, Note_off_c, 1, 67, 0
3, 23616, Note_on_c, 1, 65, 93
3, 23640, Note_off_c, 1, 65, 0
3, 23640, Note_on_c, 1, 64, 93
3, 23664, Note_off_c, 1, 64, 0
3, 23664, Note_on_c, 1, 62, 93
3, 23688, Note_off_c, 1, 62, 0
3, 23688, Note_on_c, 1, 61, 93
3, 23736, Note_off_c, 1, 61, 0
3, 23736, Note_on_c, 1, 70, 93
3, 23760, Note_off_c, 1, 70, 0
3, 23760, Note_on_c, 1, 69, 93
3, 23784, Note_off_c, 1, 69, 0
3, 23784, Note_on_c, 1, 65, 93
3, 23808, Note_off_c, 1, 65, 0
3, 23808, Note_on_c, 1, 62, 93
3, 23832, Note_off_c, 1, 62, 0
3, 23832, Note_on_c, 1, 62, 93
3, 23856, Note_off_c, 1, 62, 0
3, 23856, Note_on_c, 1, 67, 93
3, 23880, Note_off_c, 1, 67, 0
3, 23880, Note_on_c, 1, 60, 93
3, 23904, Note_off_c, 1, 60, 0
3, 23904, Note_on_c, 1, 60, 93
3, 23928, Note_off_c, 1, 60, 0
3, 23928, Note_on_c, 1, 65, 93
3, 23952, Note_off_c, 1, 65, 0
3, 23952, Note_on_c, 1, 58, 93
3, 23976, Note_off_c, 1, 58, 0
3, 23976, Note_on_c, 1, 58, 93
3, 24000, Note_off_c, 1, 58, 0
3, 24000, Note_on_c, 1, 57, 93
3, 24024, Note_off_c, 1, 57, 0
3, 24024, Note_on_c, 1, 55, 93
3, 24048, Note_off_c, 1, 55, 0
3, 24048, Note_on_c, 1, 57, 93
3, 24072, Note_off_c, 1, 57, 0
3, 24072, Note_on_c, 1, 61, 93
3, 24096, Note_off_c, 1, 61, 0
3, 24096, Note_on_c, 1, 64, 93
3, 24120, Note_off_c, 1, 64, 0
3, 24120, Note_on_c, 1, 67, 93
3, 24144, Note_off_c, 1, 67, 0
3, 24144, Note_on_c, 1, 65, 93
3, 24168, Note_off_c, 1, 65, 0
3, 24168, Note_on_c, 1, 64, 93
3, 24192, Note_off_c, 1, 64, 0
3, 24192, Note_on_c, 1, 65, 93
3, 24216, Note_off_c, 1, 65, 0
3, 24216, Note_on_c, 1, 64, 93
3, 24240, Note_off_c, 1, 64, 0
3, 24240, Note_on_c, 1, 62, 93
3, 24264, Note_off_c, 1, 62, 0
3, 24264, Note_on_c, 1, 64, 93
3, 24288, Note_off_c, 1, 64, 0
3, 24288, Note_on_c, 1, 62, 93
3, 24312, Note_off_c, 1, 62, 0
3, 24312, Note_on_c, 1, 60, 93
3, 24336, Note_off_c, 1, 60, 0
3, 24336, Note_on_c, 1, 62, 93
3, 24360, Note_off_c, 1, 62, 0
3, 24360, Note_on_c, 1, 60, 93
3, 24384, Note_off_c, 1, 60, 0
3, 24384, Note_on_c, 1, 59, 93
3, 24408, Note_off_c, 1, 59, 0
3, 24408, Note_on_c, 1, 60, 93
3, 24432, Note_off_c, 1, 60, 0
3, 24432, Note_on_c, 1, 62, 93
3, 24456, Note_off_c, 1, 62, 0
3, 24456, Note_on_c, 1, 64, 93
3, 24480, Note_off_c, 1, 64, 0
3, 24480, Note_on_c, 1, 62, 93
3, 24504, Note_off_c, 1, 62, 0
3, 24504, Note_on_c, 1, 64, 93
3, 24528, Note_off_c, 1, 64, 0
3, 24528, Note_on_c, 1, 65, 93
3, 24552, Note_off_c, 1, 65, 0
3, 24552, Note_on_c, 1, 64, 93
3, 24576, Note_off_c, 1, 64, 0
3, 24576, Note_on_c, 1, 65, 93
3, 24600, Note_off_c, 1, 65, 0
3, 24600, Note_on_c, 1, 67, 93
3, 24624, Note_off_c, 1, 67, 0
3, 24624, Note_on_c, 1, 65, 93
3, 24648, Note_off_c, 1, 65, 0
3, 24648, Note_on_c, 1, 62, 93
3, 24672, Note_off_c, 1, 62, 0
3, 24672, Note_on_c, 1, 69, 93
3, 24696, Note_off_c, 1, 69, 0
3, 24696, Note_on_c, 1, 58, 93
3, 24720, Note_off_c, 1, 58, 0
3, 24720, Note_on_c, 1, 64, 93
3, 24744, Note_off_c, 1, 64, 0
3, 24744, Note_on_c, 1, 67, 93
3, 24768, Note_off_c, 1, 67, 0
3, 24768, Note_on_c, 1, 57, 93
3, 24792, Note_off_c, 1, 57, 0
3, 24792, Note_on_c, 1, 62, 93
3, 24816, Note_off_c, 1, 62, 0
3, 24816, Note_on_c, 1, 65, 93
3, 24840, Note_off_c, 1, 65, 0
3, 24840, Note_on_c, 1, 55, 93
3, 24864, Note_off_c, 1, 55, 0
3, 24864, Note_on_c, 1, 61, 93
3, 24888, Note_off_c, 1, 61, 0
3, 24888, Note_on_c, 1, 64, 93
3, 24912, Note_off_c, 1, 64, 0
3, 24912, Note_on_c, 1, 53, 93
3, 24936, Note_off_c, 1, 53, 0
3, 24936, Note_on_c, 1, 57, 93
3, 24960, Note_off_c, 1, 57, 0
3, 24960, Note_on_c, 1, 55, 93
3, 24984, Note_off_c, 1, 55, 0
3, 24984, Note_on_c, 1, 58, 93
3, 25008, Note_off_c, 1, 58, 0
3, 25008, Note_on_c, 1, 57, 93
3, 25032, Note_off_c, 1, 57, 0
3, 25032, Note_on_c, 1, 61, 93
3, 25056, Note_off_c, 1, 61, 0
3, 25056, Note_on_c, 1, 62, 93
3, 25080, Note_off_c, 1, 62, 0
3, 25080, Note_on_c, 1, 64, 93
3, 25104, Note_off_c, 1, 64, 0
3, 25104, Note_on_c, 1, 65, 93
3, 25128, Note_off_c, 1, 65, 0
3, 25128, Note_on_c, 1, 57, 93
3, 25140, Note_off_c, 1, 57, 0
3, 25140, Note_on_c, 1, 56, 93
3, 25152, Note_off_c, 1, 56, 0
3, 25152, Note_on_c, 1, 53, 93
3, 25164, Note_off_c, 1, 53, 0
3, 25164, Note_on_c, 1, 56, 93
3, 25176, Note_off_c, 1, 56, 0
3, 25176, Note_on_c, 1, 57, 93
3, 25188, Note_off_c, 1, 57, 0
3, 25188, Note_on_c, 1, 56, 93
3, 25200, Note_off_c, 1, 56, 0
3, 25200, Note_on_c, 1, 57, 93
3, 25212, Note_off_c, 1, 57, 0
3, 25212, Note_on_c, 1, 56, 93
3, 25224, Note_off_c, 1, 56, 0
3, 25224, Note_on_c, 1, 57, 93
3, 25236, Note_off_c, 1, 57, 0
3, 25236, Note_on_c, 1, 56, 93
3, 25248, Note_off_c, 1, 56, 0
3, 25248, Note_on_c, 1, 53, 93
3, 25260, Note_off_c, 1, 53, 0
3, 25260, Note_on_c, 1, 56, 93
3, 25272, Note_off_c, 1, 56, 0
3, 25272, Note_on_c, 1, 57, 93
3, 25320, Note_off_c, 1, 57, 0
3, 25392, Note_on_c, 1, 59, 93
3, 25416, Note_off_c, 1, 59, 0
3, 25416, Note_on_c, 1, 60, 93
3, 25464, Note_off_c, 1, 60, 0
3, 25464, Note_on_c, 1, 57, 93
3, 25488, Note_off_c, 1, 57, 0
3, 25488, Note_on_c, 1, 62, 93
3, 25536, Note_off_c, 1, 62, 0
3, 25536, Note_on_c, 1, 65, 93
3, 25560, Note_off_c, 1, 65, 0
3, 25560, Note_on_c, 1, 65, 93
3, 25584, Note_off_c, 1, 65, 0
3, 25584, Note_on_c, 1, 64, 93
3, 25608, Note_off_c, 1, 64, 0
3, 25608, Note_on_c, 1, 62, 93
3, 25632, Note_off_c, 1, 62, 0
3, 25632, Note_on_c, 1, 60, 93
3, 25656, Note_off_c, 1, 60, 0
3, 25656, Note_on_c, 1, 62, 93
3, 25680, Note_off_c, 1, 62, 0
3, 25680, Note_on_c, 1, 59, 93
3, 25704, Note_off_c, 1, 59, 0
3, 25704, Note_on_c, 1, 64, 93
3, 25776, Note_off_c, 1, 64, 0
3, 25776, Note_on_c, 1, 57, 93
3, 25848, Note_off_c, 1, 57, 0
3, 25920, Note_on_c, 1, 57, 93
3, 25992, Note_off_c, 1, 57, 0
3, 25992, Note_on_c, 1, 64, 93
3, 26016, Note_off_c, 1, 64, 0
3, 26016, Note_on_c, 1, 65, 93
3, 26040, Note_off_c, 1, 65, 0
3, 26040, Note_on_c, 1, 64, 93
3, 26064, Note_off_c, 1, 64, 0
3, 26064, Note_on_c, 1, 62, 93
3, 26088, Note_off_c, 1, 62, 0
3, 26088, Note_on_c, 1, 64, 93
3, 26112, Note_off_c, 1, 64, 0
3, 26112, Note_on_c, 1, 62, 93
3, 26136, Note_off_c, 1, 62, 0
3, 26136, Note_on_c, 1, 60, 93
3, 26160, Note_off_c, 1, 60, 0
3, 26160, Note_on_c, 1, 62, 93
3, 26184, Note_off_c, 1, 62, 0
3, 26184, Note_on_c, 1, 60, 93
3, 26208, Note_off_c, 1, 60, 0
3, 26208, Note_on_c, 1, 59, 93
3, 26232, Note_off_c, 1, 59, 0
3, 26232, Note_on_c, 1, 60, 93
3, 26256, Note_off_c, 1, 60, 0
3, 26256, Note_on_c, 1, 59, 93
3, 26280, Note_off_c, 1, 59, 0
3, 26280, Note_on_c, 1, 57, 93
3, 26304, Note_off_c, 1, 57, 0
3, 26304, Note_on_c, 1, 59, 93
3, 26328, Note_off_c, 1, 59, 0
3, 26328, Note_on_c, 1, 57, 93
3, 26352, Note_off_c, 1, 57, 0
3, 26352, Note_on_c, 1, 56, 93
3, 26376, Note_off_c, 1, 56, 0
3, 26424, Note_on_c, 1, 57, 93
3, 26448, Note_off_c, 1, 57, 0
3, 26496, Note_on_c, 1, 59, 93
3, 26520, Note_off_c, 1, 59, 0
3, 26568, Note_on_c, 1, 59, 93
3, 26592, Note_off_c, 1, 59, 0
3, 26592, Note_on_c, 1, 60, 93
3, 26688, Note_off_c, 1, 60, 0
3, 26688, Note_on_c, 1, 62, 93
3, 26712, Note_off_c, 1, 62, 0
3, 26712, Note_on_c, 1, 60, 93
3, 26760, Note_off_c, 1, 60, 0
3, 26760, Note_on_c, 1, 59, 93
3, 26784, Note_off_c, 1, 59, 0
3, 26784, Note_on_c, 1, 57, 93
3, 26808, Note_off_c, 1, 57, 0
3, 26808, Note_on_c, 1, 52, 93
3, 26832, Note_off_c, 1, 52, 0
3, 26832, Note_on_c, 1, 57, 93
3, 26856, Note_off_c, 1, 57, 0
3, 26856, Note_on_c, 1, 60, 93
3, 26880, Note_off_c, 1, 60, 0
3, 26880, Note_on_c, 1, 57, 93
3, 26904, Note_off_c, 1, 57, 0
3, 26904, Note_on_c, 1, 60, 93
3, 26928, Note_off_c, 1, 60, 0
3, 26928, Note_on_c, 1, 64, 93
3, 26976, Note_off_c, 1, 64, 0
3, 26976, Note_on_c, 1, 56, 93
3, 27000, Note_off_c, 1, 56, 0
3, 27000, Note_on_c, 1, 57, 93
3, 27048, Note_off_c, 1, 57, 0
3, 27048, Note_on_c, 1, 65, 93
3, 27072, Note_off_c, 1, 65, 0
3, 27072, Note_on_c, 1, 55, 93
3, 27120, Note_off_c, 1, 55, 0
3, 27120, Note_on_c, 1, 64, 93
3, 27144, Note_off_c, 1, 64, 0
3, 27144, Note_on_c, 1, 53, 93
3, 27192, Note_off_c, 1, 53, 0
3, 27192, Note_on_c, 1, 62, 93
3, 27216, Note_off_c, 1, 62, 0
3, 27216, Note_on_c, 1, 52, 93
3, 27240, Note_off_c, 1, 52, 0
3, 27240, Note_on_c, 1, 59, 93
3, 27264, Note_off_c, 1, 59, 0
3, 27264, Note_on_c, 1, 62, 93
3, 27288, Note_off_c, 1, 62, 0
3, 27288, Note_on_c, 1, 60, 93
3, 27312, Note_off_c, 1, 60, 0
3, 27312, Note_on_c, 1, 59, 93
3, 27336, Note_off_c, 1, 59, 0
3, 27336, Note_on_c, 1, 57, 93
3, 27360, Note_off_c, 1, 57, 0
3, 27360, Note_on_c, 1, 56, 93
3, 27384, Note_off_c, 1, 56, 0
3, 27384, Note_on_c, 1, 62, 93
3, 27408, Note_off_c, 1, 62, 0
3, 27408, Note_on_c, 1, 65, 93
3, 27432, Note_off_c, 1, 65, 0
3, 27432, Note_on_c, 1, 64, 93
3, 27456, Note_off_c, 1, 64, 0
3, 27456, Note_on_c, 1, 62, 93
3, 27480, Note_off_c, 1, 62, 0
3, 27480, Note_on_c, 1, 60, 93
3, 27504, Note_off_c, 1, 60, 0
3, 27504, Note_on_c, 1, 59, 93
3, 27528, Note_off_c, 1, 59, 0
3, 27528, Note_on_c, 1, 57, 93
3, 27552, Note_off_c, 1, 57, 0
3, 27552, Note_on_c, 1, 56, 93
3, 27576, Note_off_c, 1, 56, 0
3, 27576, Note_on_c, 1, 57, 93
3, 27600, Note_off_c, 1, 57, 0
3, 27600, Note_on_c, 1, 52, 93
3, 27624, Note_off_c, 1, 52, 0
3, 27624, Note_on_c, 1, 59, 93
3, 27648, Note_off_c, 1, 59, 0
3, 27648, Note_on_c, 1, 60, 93
3, 27672, Note_off_c, 1, 60, 0
3, 27672, Note_on_c, 1, 59, 93
3, 27696, Note_off_c, 1, 59, 0
3, 27696, Note_on_c, 1, 57, 93
3, 27720, Note_off_c, 1, 57, 0
3, 27720, Note_on_c, 1, 64, 93
3, 27816, Note_off_c, 1, 64, 0
3, 27816, Note_on_c, 1, 59, 93
3, 27840, Note_off_c, 1, 59, 0
3, 27840, Note_on_c, 1, 62, 93
3, 27864, Note_off_c, 1, 62, 0
3, 27864, Note_on_c, 1, 62, 93
3, 27888, Note_off_c, 1, 62, 0
3, 27888, Note_on_c, 1, 60, 93
3, 27912, Note_off_c, 1, 60, 0
3, 27912, Note_on_c, 1, 69, 93
3, 27930, Note_off_c, 1, 69, 0
3, 27936, Note_on_c, 1, 60, 93
3, 27960, Note_off_c, 1, 60, 0
3, 27960, Note_on_c, 1, 59, 93
3, 27984, Note_off_c, 1, 59, 0
3, 27984, Note_on_c, 1, 67, 93
3, 28002, Note_off_c, 1, 67, 0
3, 28008, Note_on_c, 1, 59, 93
3, 28032, Note_off_c, 1, 59, 0
3, 28032, Note_on_c, 1, 57, 93
3, 28056, Note_off_c, 1, 57, 0
3, 28056, Note_on_c, 1, 65, 93
3, 28074, Note_off_c, 1, 65, 0
3, 28080, Note_on_c, 1, 57, 93
3, 28104, Note_off_c, 1, 57, 0
3, 28104, Note_on_c, 1, 56, 93
3, 28128, Note_off_c, 1, 56, 0
3, 28128, Note_on_c, 1, 59, 93
3, 28146, Note_off_c, 1, 59, 0
3, 28152, Note_on_c, 1, 52, 93
3, 28200, Note_off_c, 1, 52, 0
3, 28368, Note_on_c, 1, 62, 93
3, 28464, Note_off_c, 1, 62, 0
3, 28464, Note_on_c, 1, 60, 93
3, 28488, Note_off_c, 1, 60, 0
3, 28488, Note_on_c, 1, 62, 93
3, 28512, Note_off_c, 1, 62, 0
3, 28512, Note_on_c, 1, 64, 93
3, 28536, Note_off_c, 1, 64, 0
3, 28536, Note_on_c, 1, 62, 93
3, 28560, Note_off_c, 1, 62, 0
3, 28560, Note_on_c, 1, 60, 93
3, 28584, Note_off_c, 1, 60, 0
3, 28584, Note_on_c, 1, 59, 93
3, 28608, Note_off_c, 1, 59, 0
3, 28608, Note_on_c, 1, 60, 93
3, 28632, Note_off_c, 1, 60, 0
3, 28632, Note_on_c, 1, 62, 93
3, 28656, Note_off_c, 1, 62, 0
3, 28656, Note_on_c, 1, 64, 93
3, 28680, Note_off_c, 1, 64, 0
3, 28680, Note_on_c, 1, 66, 93
3, 28704, Note_off_c, 1, 66, 0
3, 28704, Note_on_c, 1, 68, 93
3, 28728, Note_off_c, 1, 68, 0
3, 28728, Note_on_c, 1, 69, 93
3, 28752, Note_off_c, 1, 69, 0
3, 28752, Note_on_c, 1, 64, 93
3, 28776, Note_off_c, 1, 64, 0
3, 28776, Note_on_c, 1, 60, 93
3, 28800, Note_off_c, 1, 60, 0
3, 28800, Note_on_c, 1, 62, 93
3, 28824, Note_off_c, 1, 62, 0
3, 28824, Note_on_c, 1, 67, 93
3, 28848, Note_off_c, 1, 67, 0
3, 28848, Note_on_c, 1, 59, 93
3, 28872, Note_off_c, 1, 59, 0
3, 28872, Note_on_c, 1, 60, 93
3, 28896, Note_off_c, 1, 60, 0
3, 28896, Note_on_c, 1, 65, 93
3, 28920, Note_off_c, 1, 65, 0
3, 28920, Note_on_c, 1, 57, 93
3, 28944, Note_off_c, 1, 57, 0
3, 28944, Note_on_c, 1, 59, 93
3, 28968, Note_off_c, 1, 59, 0
3, 28968, Note_on_c, 1, 64, 93
3, 28992, Note_off_c, 1, 64, 0
3, 28992, Note_on_c, 1, 62, 93
3, 29016, Note_off_c, 1, 62, 0
3, 29016, Note_on_c, 1, 60, 93
3, 29040, Note_off_c, 1, 60, 0
3, 29040, Note_on_c, 1, 59, 93
3, 29064, Note_off_c, 1, 59, 0
3, 29064, Note_on_c, 1, 57, 93
3, 29088, Note_off_c, 1, 57, 0
3, 29088, Note_on_c, 1, 59, 93
3, 29112, Note_off_c, 1, 59, 0
3, 29112, Note_on_c, 1, 57, 93
3, 29136, Note_off_c, 1, 57, 0
3, 29136, Note_on_c, 1, 56, 93
3, 29160, Note_off_c, 1, 56, 0
3, 29160, Note_on_c, 1, 57, 93
3, 29184, Note_off_c, 1, 57, 0
3, 29184, Note_on_c, 1, 56, 93
3, 29208, Note_off_c, 1, 56, 0
3, 29208, Note_on_c, 1, 54, 93
3, 29232, Note_off_c, 1, 54, 0
3, 29232, Note_on_c, 1, 56, 93
3, 29256, Note_off_c, 1, 56, 0
3, 29256, Note_on_c, 1, 52, 93
3, 29280, Note_off_c, 1, 52, 0
3, 29280, Note_on_c, 1, 56, 93
3, 29304, Note_off_c, 1, 56, 0
3, 29304, Note_on_c, 1, 59, 93
3, 29328, Note_off_c, 1, 59, 0
3, 29328, Note_on_c, 1, 64, 93
3, 29352, Note_off_c, 1, 64, 0
3, 29352, Note_on_c, 1, 62, 93
3, 29376, Note_off_c, 1, 62, 0
3, 29376, Note_on_c, 1, 60, 93
3, 29400, Note_off_c, 1, 60, 0
3, 29400, Note_on_c, 1, 59, 93
3, 29424, Note_off_c, 1, 59, 0
3, 29424, Note_on_c, 1, 57, 93
3, 29448, Note_off_c, 1, 57, 0
3, 29448, Note_on_c, 1, 62, 93
3, 29544, Note_off_c, 1, 62, 0
3, 29544, Note_on_c, 1, 60, 93
3, 29568, Note_off_c, 1, 60, 0
3, 29568, Note_on_c, 1, 59, 93
3, 29592, Note_off_c, 1, 59, 0
3, 29592, Note_on_c, 1, 60, 93
3, 29616, Note_off_c, 1, 60, 0
3, 29664, Note_on_c, 1, 65, 93
3, 29688, Note_off_c, 1, 65, 0
3, 29736, Note_on_c, 1, 64, 93
3, 29760, Note_off_c, 1, 64, 0
3, 29808, Note_on_c, 1, 62, 93
3, 29856, Note_off_c, 1, 62, 0
3, 29856, Note_on_c, 1, 56, 93
3, 29880, Note_off_c, 1, 56, 0
3, 29880, Note_on_c, 1, 57, 93
3, 29928, Note_off_c, 1, 57, 0
3, 29928, Note_on_c, 1, 60, 93
3, 29952, Note_off_c, 1, 60, 0
3, 29952, Note_on_c, 1, 56, 93
3, 29964, Note_off_c, 1, 56, 0
3, 29964, Note_on_c, 1, 53, 93
3, 29976, Note_off_c, 1, 53, 0
3, 29976, Note_on_c, 1, 56, 93
3, 29988, Note_off_c, 1, 56, 0
3, 29988, Note_on_c, 1, 53, 93
3, 30000, Note_off_c, 1, 53, 0
3, 30000, Note_on_c, 1, 52, 93
3, 30012, Note_off_c, 1, 52, 0
3, 30012, Note_on_c, 1, 53, 93
3, 30024, Note_off_c, 1, 53, 0
3, 30024, Note_on_c, 1, 52, 93
3, 30072, Note_off_c, 1, 52, 0
3, 30264, Note_on_c, 1, 50, 93
3, 30288, Note_off_c, 1, 50, 0
3, 30288, Note_on_c, 1, 52, 93
3, 30312, Note_off_c, 1, 52, 0
3, 30312, Note_on_c, 1, 53, 93
3, 30336, Note_off_c, 1, 53, 0
3, 30336, Note_on_c, 1, 55, 93
3, 30360, Note_off_c, 1, 55, 0
3, 30360, Note_on_c, 1, 53, 93
3, 30384, Note_off_c, 1, 53, 0
3, 30384, Note_on_c, 1, 52, 93
3, 30480, Note_off_c, 1, 52, 0
3, 30480, Note_on_c, 1, 53, 93
3, 30504, Note_off_c, 1, 53, 0
3, 30504, Note_on_c, 1, 55, 93
3, 30528, Note_off_c, 1, 55, 0
3, 30528, Note_on_c, 1, 57, 93
3, 30552, Note_off_c, 1, 57, 0
3, 30552, Note_on_c, 1, 58, 93
3, 30576, Note_off_c, 1, 58, 0
3, 30576, Note_on_c, 1, 57, 93
3, 30600, Note_off_c, 1, 57, 0
3, 30600, Note_on_c, 1, 55, 93
3, 30624, Note_off_c, 1, 55, 0
3, 30624, Note_on_c, 1, 57, 93
3, 30648, Note_off_c, 1, 57, 0
3, 30648, Note_on_c, 1, 55, 93
3, 30672, Note_off_c, 1, 55, 0
3, 30672, Note_on_c, 1, 53, 93
3, 30696, Note_off_c, 1, 53, 0
3, 30696, Note_on_c, 1, 55, 93
3, 30720, Note_off_c, 1, 55, 0
3, 30720, Note_on_c, 1, 53, 93
3, 30744, Note_off_c, 1, 53, 0
3, 30744, Note_on_c, 1, 52, 93
3, 30768, Note_off_c, 1, 52, 0
3, 30768, Note_on_c, 1, 53, 93
3, 30792, Note_off_c, 1, 53, 0
3, 30792, Note_on_c, 1, 52, 93
3, 30816, Note_off_c, 1, 52, 0
3, 30816, Note_on_c, 1, 50, 93
3, 30840, Note_off_c, 1, 50, 0
3, 30840, Note_on_c, 1, 52, 93
3, 30864, Note_off_c, 1, 52, 0
3, 30864, Note_on_c, 1, 50, 93
3, 30888, Note_off_c, 1, 50, 0
3, 30888, Note_on_c, 1, 49, 93
3, 30912, Note_off_c, 1, 49, 0
3, 30960, Note_on_c, 1, 50, 93
3, 30984, Note_off_c, 1, 50, 0
3, 31032, Note_on_c, 1, 52, 93
3, 31056, Note_off_c, 1, 52, 0
3, 31104, Note_on_c, 1, 53, 93
3, 31224, Note_off_c, 1, 53, 0
3, 31224, Note_on_c, 1, 57, 93
3, 31248, Note_off_c, 1, 57, 0
3, 31248, Note_on_c, 1, 57, 93
3, 31260, Note_off_c, 1, 57, 0
3, 31260, Note_on_c, 1, 55, 93
3, 31272, Note_off_c, 1, 55, 0
3, 31272, Note_on_c, 1, 57, 93
3, 31284, Note_off_c, 1, 57, 0
3, 31284, Note_on_c, 1, 55, 93
3, 31296, Note_off_c, 1, 55, 0
3, 31296, Note_on_c, 1, 53, 93
3, 31320, Note_off_c, 1, 53, 0
3, 31320, Note_on_c, 1, 55, 93
3, 31344, Note_off_c, 1, 55, 0
3, 31344, Note_on_c, 1, 53, 93
3, 31368, Note_off_c, 1, 53, 0
3, 31368, Note_on_c, 1, 52, 93
3, 31392, Note_off_c, 1, 52, 0
3, 31392, Note_on_c, 1, 62, 93
3, 31404, Note_off_c, 1, 62, 0
3, 31404, Note_on_c, 1, 61, 93
3, 31416, Note_off_c, 1, 61, 0
3, 31416, Note_on_c, 1, 58, 93
3, 31428, Note_off_c, 1, 58, 0
3, 31428, Note_on_c, 1, 61, 93
3, 31440, Note_off_c, 1, 61, 0
3, 31440, Note_on_c, 1, 62, 93
3, 31452, Note_off_c, 1, 62, 0
3, 31452, Note_on_c, 1, 61, 93
3, 31464, Note_off_c, 1, 61, 0
3, 31464, Note_on_c, 1, 62, 93
3, 31476, Note_off_c, 1, 62, 0
3, 31476, Note_on_c, 1, 61, 93
3, 31488, Note_off_c, 1, 61, 0
3, 31488, Note_on_c, 1, 62, 93
3, 31500, Note_off_c, 1, 62, 0
3, 31500, Note_on_c, 1, 61, 93
3, 31512, Note_off_c, 1, 61, 0
3, 31512, Note_on_c, 1, 58, 93
3, 31524, Note_off_c, 1, 58, 0
3, 31524, Note_on_c, 1, 61, 93
3, 31536, Note_off_c, 1, 61, 0
3, 31536, Note_on_c, 1, 62, 93
3, 31560, Note_off_c, 1, 62, 0
3, 31560, Note_on_c, 1, 58, 93
3, 31584, Note_off_c, 1, 58, 0
3, 31584, Note_on_c, 1, 67, 93
3, 31608, Note_off_c, 1, 67, 0
3, 31608, Note_on_c, 1, 60, 93
3, 31632, Note_off_c, 1, 60, 0
3, 31632, Note_on_c, 1, 57, 93
3, 31656, Note_off_c, 1, 57, 0
3, 31656, Note_on_c, 1, 65, 93
3, 31680, Note_off_c, 1, 65, 0
3, 31680, Note_on_c, 1, 58, 93
3, 31704, Note_off_c, 1, 58, 0
3, 31704, Note_on_c, 1, 55, 93
3, 31728, Note_off_c, 1, 55, 0
3, 31728, Note_on_c, 1, 64, 93
3, 31752, Note_off_c, 1, 64, 0
3, 31752, Note_on_c, 1, 57, 93
3, 31776, Note_off_c, 1, 57, 0
3, 31776, Note_on_c, 1, 55, 93
3, 31800, Note_off_c, 1, 55, 0
3, 31800, Note_on_c, 1, 64, 93
3, 31824, Note_off_c, 1, 64, 0
3, 31824, Note_on_c, 1, 57, 93
3, 31848, Note_off_c, 1, 57, 0
3, 31848, Note_on_c, 1, 53, 93
3, 31872, Note_off_c, 1, 53, 0
3, 31872, Note_on_c, 1, 62, 93
3, 31896, Note_off_c, 1, 62, 0
3, 31896, Note_on_c, 1, 55, 93
3, 31920, Note_off_c, 1, 55, 0
3, 31920, Note_on_c, 1, 52, 93
3, 31944, Note_off_c, 1, 52, 0
3, 31944, Note_on_c, 1, 61, 93
3, 31968, Note_off_c, 1, 61, 0
3, 31968, Note_on_c, 1, 62, 93
3, 31992, Note_off_c, 1, 62, 0
3, 31992, Note_on_c, 1, 57, 93
3, 32016, Note_off_c, 1, 57, 0
3, 32016, Note_on_c, 1, 53, 93
3, 32040, Note_off_c, 1, 53, 0
3, 32040, Note_on_c, 1, 50, 93
3, 32064, Note_off_c, 1, 50, 0
3, 32064, Note_on_c, 1, 52, 93
3, 32088, Note_off_c, 1, 52, 0
3, 32088, Note_on_c, 1, 53, 93
3, 32112, Note_off_c, 1, 53, 0
3, 32112, Note_on_c, 1, 52, 93
3, 32136, Note_off_c, 1, 52, 0
3, 32136, Note_on_c, 1, 53, 93
3, 32160, Note_off_c, 1, 53, 0
3, 32160, Note_on_c, 1, 50, 93
3, 32184, Note_off_c, 1, 50, 0
3, 32184, Note_on_c, 1, 52, 93
3, 32280, Note_off_c, 1, 52, 0
3, 32280, Note_on_c, 1, 53, 93
3, 32304, Note_off_c, 1, 53, 0
3, 32304, Note_on_c, 1, 55, 93
3, 32328, Note_off_c, 1, 55, 0
3, 32328, Note_on_c, 1, 53, 93
3, 32352, Note_off_c, 1, 53, 0
3, 32352, Note_on_c, 1, 55, 93
3, 32376, Note_off_c, 1, 55, 0
3, 32376, Note_on_c, 1, 52, 93
3, 32400, Note_off_c, 1, 52, 0
3, 32400, Note_on_c, 1, 53, 93
3, 32424, Note_off_c, 1, 53, 0
3, 32472, Note_on_c, 1, 52, 93
3, 32496, Note_off_c, 1, 52, 0
3, 32544, Note_on_c, 1, 50, 93
3, 32568, Note_off_c, 1, 50, 0
3, 32616, Note_on_c, 1, 49, 93
3, 32640, Note_off_c, 1, 49, 0
3, 32688, Note_on_c, 1, 50, 93
3, 32712, Note_off_c, 1, 50, 0
3, 32760, Note_on_c, 1, 52, 93
3, 32784, Note_off_c, 1, 52, 0
3, 32832, Note_on_c, 1, 53, 93
3, 32856, Note_off_c, 1, 53, 0
3, 32856, Note_on_c, 1, 52, 93
3, 32880, Note_off_c, 1, 52, 0
3, 32880, Note_on_c, 1, 50, 93
3, 32904, Note_off_c, 1, 50, 0
3, 32904, Note_on_c, 1, 58, 93
3, 32928, Note_off_c, 1, 58, 0
3, 32928, Note_on_c, 1, 57, 93
3, 32952, Note_off_c, 1, 57, 0
3, 32952, Note_on_c, 1, 55, 93
3, 32976, Note_off_c, 1, 55, 0
3, 32976, Note_on_c, 1, 61, 93
3, 33024, Note_off_c, 1, 61, 0
3, 33072, Note_on_c, 1, 55, 93
3, 33096, Note_off_c, 1, 55, 0
3, 33096, Note_on_c, 1, 50, 93
3, 33120, Note_off_c, 1, 50, 0
3, 33120, Note_on_c, 1, 49, 93
3, 33144, Note_off_c, 1, 49, 0
3, 33144, Note_on_c, 1, 50, 93
3, 33168, Note_off_c, 1, 50, 0
3, 33168, Note_on_c, 1, 52, 93
3, 33192, Note_off_c, 1, 52, 0
3, 33192, Note_on_c, 1, 45, 93
3, 33216, Note_off_c, 1, 45, 0
3, 33216, Note_on_c, 1, 47, 93
3, 33240, Note_off_c, 1, 47, 0
3, 33240, Note_on_c, 1, 49, 93
3, 33264, Note_off_c, 1, 49, 0
3, 33264, Note_on_c, 1, 50, 93
3, 33288, Note_off_c, 1, 50, 0
3, 33288, Note_on_c, 1, 43, 93
3, 33312, Note_off_c, 1, 43, 0
3, 33312, Note_on_c, 1, 46, 93
3, 33336, Note_off_c, 1, 46, 0
3, 33336, Note_on_c, 1, 48, 93
3, 33360, Note_off_c, 1, 48, 0
3, 33360, Note_on_c, 1, 41, 93
3, 33384, Note_off_c, 1, 41, 0
3, 33384, Note_on_c, 1, 45, 93
3, 33408, Note_off_c, 1, 45, 0
3, 33408, Note_on_c, 1, 46, 93
3, 33432, Note_off_c, 1, 46, 0
3, 33432, Note_on_c, 1, 40, 93
3, 33456, Note_off_c, 1, 40, 0
3, 33456, Note_on_c, 1, 43, 93
3, 33480, Note_off_c, 1, 43, 0
3, 33480, Note_on_c, 1, 45, 93
3, 33504, Note_off_c, 1, 45, 0
3, 33504, Note_on_c, 1, 57, 93
3, 33528, Note_off_c, 1, 57, 0
3, 33528, Note_on_c, 1, 55, 93
3, 33552, Note_off_c, 1, 55, 0
3, 33552, Note_on_c, 1, 53, 93
3, 33576, Note_off_c, 1, 53, 0
3, 33576, Note_on_c, 1, 62, 93
3, 33600, Note_off_c, 1, 62, 0
3, 33600, Note_on_c, 1, 60, 93
3, 33624, Note_off_c, 1, 60, 0
3, 33624, Note_on_c, 1, 58, 93
3, 33648, Note_off_c, 1, 58, 0
3, 33648, Note_on_c, 1, 57, 93
3, 33672, Note_off_c, 1, 57, 0
3, 33672, Note_on_c, 1, 58, 93
3, 33696, Note_off_c, 1, 58, 0
3, 33696, Note_on_c, 1, 57, 93
3, 33768, Note_off_c, 1, 57, 0
3, 33768, Note_on_c, 1, 50, 93
3, 33792, Note_off_c, 1, 50, 0
3, 33792, Note_on_c, 1, 49, 93
3, 33816, Note_off_c, 1, 49, 0
3, 33816, Note_on_c, 1, 50, 93
3, 33840, Note_off_c, 1, 50, 0
3, 33840, Note_on_c, 1, 52, 93
3, 33864, Note_off_c, 1, 52, 0
3, 33864, Note_on_c, 1, 50, 93
3, 33888, Note_off_c, 1, 50, 0
3, 33888, Note_on_c, 1, 52, 93
3, 33912, Note_off_c, 1, 52, 0
3, 33912, Note_on_c, 1, 53, 93
3, 33936, Note_off_c, 1, 53, 0
3, 33936, Note_on_c, 1, 52, 93
3, 33960, Note_off_c, 1, 52, 0
3, 33960, Note_on_c, 1, 53, 93
3, 33984, Note_off_c, 1, 53, 0
3, 33984, Note_on_c, 1, 55, 93
3, 34008, Note_off_c, 1, 55, 0
3, 34008, Note_on_c, 1, 53, 93
3, 34032, Note_off_c, 1, 53, 0
3, 34032, Note_on_c, 1, 55, 93
3, 34056, Note_off_c, 1, 55, 0
3, 34056, Note_on_c, 1, 57, 93
3, 34080, Note_off_c, 1, 57, 0
3, 34080, Note_on_c, 1, 55, 93
3, 34104, Note_off_c, 1, 55, 0
3, 34104, Note_on_c, 1, 57, 93
3, 34128, Note_off_c, 1, 57, 0
3, 34128, Note_on_c, 1, 58, 93
3, 34152, Note_off_c, 1, 58, 0
3, 34200, Note_on_c, 1, 57, 93
3, 34224, Note_off_c, 1, 57, 0
3, 34272, Note_on_c, 1, 55, 93
3, 34296, Note_off_c, 1, 55, 0
3, 34344, Note_on_c, 1, 55, 93
3, 34368, Note_off_c, 1, 55, 0
3, 34368, Note_on_c, 1, 53, 93
3, 34464, Note_off_c, 1, 53, 0
3, 34464, Note_on_c, 1, 52, 93
3, 34488, Note_off_c, 1, 52, 0
3, 34488, Note_on_c, 1, 53, 93
3, 34536, Note_off_c, 1, 53, 0
3, 34536, Note_on_c, 1, 55, 93
3, 34560, Note_off_c, 1, 55, 0
3, 34560, Note_on_c, 1, 57, 93
3, 34608, Note_off_c, 1, 57, 0
3, 34608, Note_on_c, 1, 67, 93
3, 34632, Note_off_c, 1, 67, 0
3, 34632, Note_on_c, 1, 65, 93
3, 34680, Note_off_c, 1, 65, 0
3, 34680, Note_on_c, 1, 57, 93
3, 34704, Note_off_c, 1, 57, 0
3, 34704, Note_on_c, 1, 55, 93
3, 34752, Note_off_c, 1, 55, 0
3, 34752, Note_on_c, 1, 64, 93
3, 34776, Note_off_c, 1, 64, 0
3, 34776, Note_on_c, 1, 62, 93
3, 34824, Note_off_c, 1, 62, 0
3, 34824, Note_on_c, 1, 53, 93
3, 34848, Note_off_c, 1, 53, 0
3, 34848, Note_on_c, 1, 52, 93
3, 34896, Note_off_c, 1, 52, 0
3, 34896, Note_on_c, 1, 62, 93
3, 34920, Note_off_c, 1, 62, 0
3, 34920, Note_on_c, 1, 61, 93
3, 34968, Note_off_c, 1, 61, 0
3, 34968, Note_on_c, 1, 52, 93
3, 34992, Note_off_c, 1, 52, 0
3, 34992, Note_on_c, 1, 52, 93
3, 35016, Note_off_c, 1, 52, 0
3, 35016, Note_on_c, 1, 50, 93
3, 35040, Note_off_c, 1, 50, 0
3, 35040, Note_on_c, 1, 49, 93
3, 35064, Note_off_c, 1, 49, 0
3, 35064, Note_on_c, 1, 50, 93
3, 35088, Note_off_c, 1, 50, 0
3, 35088, Note_on_c, 1, 52, 93
3, 35112, Note_off_c, 1, 52, 0
3, 35112, Note_on_c, 1, 53, 93
3, 35136, Note_off_c, 1, 53, 0
3, 35136, Note_on_c, 1, 55, 93
3, 35160, Note_off_c, 1, 55, 0
3, 35160, Note_on_c, 1, 57, 93
3, 35184, Note_off_c, 1, 57, 0
3, 35184, Note_on_c, 1, 58, 93
3, 35208, Note_off_c, 1, 58, 0
3, 35208, Note_on_c, 1, 58, 93
3, 35232, Note_off_c, 1, 58, 0
3, 35232, Note_on_c, 1, 57, 93
3, 35256, Note_off_c, 1, 57, 0
3, 35256, Note_on_c, 1, 55, 93
3, 35280, Note_off_c, 1, 55, 0
3, 35280, Note_on_c, 1, 57, 93
3, 35304, Note_off_c, 1, 57, 0
3, 35304, Note_on_c, 1, 59, 93
3, 35328, Note_off_c, 1, 59, 0
3, 35328, Note_on_c, 1, 61, 93
3, 35352, Note_off_c, 1, 61, 0
3, 35352, Note_on_c, 1, 62, 93
3, 35376, Note_off_c, 1, 62, 0
3, 35376, Note_on_c, 1, 64, 93
3, 35400, Note_off_c, 1, 64, 0
3, 35400, Note_on_c, 1, 65, 93
3, 35424, Note_off_c, 1, 65, 0
3, 35424, Note_on_c, 1, 65, 93
3, 35448, Note_off_c, 1, 65, 0
3, 35448, Note_on_c, 1, 62, 93
3, 35472, Note_off_c, 1, 62, 0
3, 35472, Note_on_c, 1, 64, 93
3, 35496, Note_off_c, 1, 64, 0
3, 35496, Note_on_c, 1, 64, 93
3, 35520, Note_off_c, 1, 64, 0
3, 35520, Note_on_c, 1, 61, 93
3, 35544, Note_off_c, 1, 61, 0
3, 35544, Note_on_c, 1, 62, 93
3, 35568, Note_off_c, 1, 62, 0
3, 35568, Note_on_c, 1, 62, 93
3, 35592, Note_off_c, 1, 62, 0
3, 35592, Note_on_c, 1, 59, 93
3, 35616, Note_off_c, 1, 59, 0
3, 35616, Note_on_c, 1, 60, 93
3, 35640, Note_off_c, 1, 60, 0
3, 35640, Note_on_c, 1, 60, 93
3, 35664, Note_off_c, 1, 60, 0
3, 35664, Note_on_c, 1, 57, 93
3, 35688, Note_off_c, 1, 57, 0
3, 35688, Note_on_c, 1, 58, 93
3, 35712, Note_off_c, 1, 58, 0
3, 35712, Note_on_c, 1, 58, 93
3, 35736, Note_off_c, 1, 58, 0
3, 35736, Note_on_c, 1, 55, 93
3, 35760, Note_off_c, 1, 55, 0
3, 35760, Note_on_c, 1, 57, 93
3, 35784, Note_off_c, 1, 57, 0
3, 35784, Note_on_c, 1, 57, 93
3, 35808, Note_off_c, 1, 57, 0
3, 35808, Note_on_c, 1, 53, 93
3, 35832, Note_off_c, 1, 53, 0
3, 35832, Note_on_c, 1, 55, 93
3, 35856, Note_off_c, 1, 55, 0
3, 35856, Note_on_c, 1, 55, 93
3, 35880, Note_off_c, 1, 55, 0
3, 35880, Note_on_c, 1, 53, 93
3, 35952, Note_off_c, 1, 53, 0
3, 35952, Note_on_c, 1, 55, 93
3, 35976, Note_off_c, 1, 55, 0
3, 35976, Note_on_c, 1, 57, 93
3, 36000, Note_off_c, 1, 57, 0
3, 36000, Note_on_c, 1, 58, 93
3, 36024, Note_off_c, 1, 58, 0
3, 36024, Note_on_c, 1, 57, 93
3, 36048, Note_off_c, 1, 57, 0
3, 36048, Note_on_c, 1, 55, 93
3, 36072, Note_off_c, 1, 55, 0
3, 36072, Note_on_c, 1, 62, 93
3, 36096, Note_off_c, 1, 62, 0
3, 36096, Note_on_c, 1, 61, 93
3, 36168, Note_off_c, 1, 61, 0
3, 36168, Note_on_c, 1, 62, 93
3, 36192, Note_off_c, 1, 62, 0
3, 36192, Note_on_c, 1, 64, 93
3, 36216, Note_off_c, 1, 64, 0
3, 36216, Note_on_c, 1, 65, 93
3, 36240, Note_off_c, 1, 65, 0
3, 36240, Note_on_c, 1, 64, 93
3, 36264, Note_off_c, 1, 64, 0
3, 36264, Note_on_c, 1, 62, 93
3, 36288, Note_off_c, 1, 62, 0
3, 36288, Note_on_c, 1, 69, 93
3, 36300, Note_off_c, 1, 69, 0
3, 36300, Note_on_c, 1, 68, 93
3, 36312, Note_off_c, 1, 68, 0
3, 36312, Note_on_c, 1, 66, 93
3, 36324, Note_off_c, 1, 66, 0
3, 36324, Note_on_c, 1, 68, 93
3, 36336, Note_off_c, 1, 68, 0
3, 36336, Note_on_c, 1, 69, 93
3, 36348, Note_off_c, 1, 69, 0
3, 36348, Note_on_c, 1, 68, 93
3, 36360, Note_off_c, 1, 68, 0
3, 36360, Note_on_c, 1, 69, 93
3, 36372, Note_off_c, 1, 69, 0
3, 36372, Note_on_c, 1, 68, 93
3, 36384, Note_off_c, 1, 68, 0
3, 36384, Note_on_c, 1, 69, 93
3, 36396, Note_off_c, 1, 69, 0
3, 36396, Note_on_c, 1, 68, 93
3, 36408, Note_off_c, 1, 68, 0
3, 36408, Note_on_c, 1, 69, 93
3, 36420, Note_off_c, 1, 69, 0
3, 36420, Note_on_c, 1, 68, 93
3, 36432, Note_off_c, 1, 68, 0
3, 36432, Note_on_c, 1, 69, 93
3, 36444, Note_off_c, 1, 69, 0
3, 36444, Note_on_c, 1, 68, 93
3, 36456, Note_off_c, 1, 68, 0
3, 36456, Note_on_c, 1, 69, 93
3, 36468, Note_off_c, 1, 69, 0
3, 36468, Note_on_c, 1, 68, 93
3, 36480, Note_off_c, 1, 68, 0
3, 36480, Note_on_c, 1, 69, 93
3, 36492, Note_off_c, 1, 69, 0
3, 36492, Note_on_c, 1, 68, 93
3, 36504, Note_off_c, 1, 68, 0
3, 36504, Note_on_c, 1, 69, 93
3, 36552, Note_off_c, 1, 69, 0
3, 36624, Note_on_c, 1, 61, 93
3, 36648, Note_off_c, 1, 61, 0
3, 36648, Note_on_c, 1, 62, 93
3, 36696, Note_off_c, 1, 62, 0
3, 36696, Note_on_c, 1, 64, 93
3, 36720, Note_off_c, 1, 64, 0
3, 36720, Note_on_c, 1, 57, 93
3, 36744, Note_off_c, 1, 57, 0
3, 36744, Note_on_c, 1, 59, 93
3, 36768, Note_off_c, 1, 59, 0
3, 36768, Note_on_c, 1, 61, 93
3, 36792, Note_off_c, 1, 61, 0
3, 36792, Note_on_c, 1, 62, 93
3, 36816, Note_off_c, 1, 62, 0
3, 36816, Note_on_c, 1, 64, 93
3, 36840, Note_off_c, 1, 64, 0
3, 36840, Note_on_c, 1, 65, 93
3, 36864, Note_off_c, 1, 65, 0
3, 36864, Note_on_c, 1, 55, 93
3, 36960, Note_off_c, 1, 55, 0
3, 36960, Note_on_c, 1, 67, 93
3, 36984, Note_off_c, 1, 67, 0
3, 36984, Note_on_c, 1, 65, 93
3, 37008, Note_off_c, 1, 65, 0
3, 37008, Note_on_c, 1, 64, 93
3, 37032, Note_off_c, 1, 64, 0
3, 37032, Note_on_c, 1, 62, 93
3, 37056, Note_off_c, 1, 62, 0
3, 37056, Note_on_c, 1, 61, 93
3, 37080, Note_off_c, 1, 61, 0
3, 37080, Note_on_c, 1, 62, 93
3, 37176, Note_off_c, 1, 62, 0
3, 37176, Note_on_c, 1, 59, 93
3, 37200, Note_off_c, 1, 59, 0
3, 37200, Note_on_c, 1, 61, 93
3, 37224, Note_off_c, 1, 61, 0
3, 37224, Note_on_c, 1, 62, 93
3, 37248, Note_off_c, 1, 62, 0
3, 37248, Note_on_c, 1, 64, 93
3, 37272, Note_off_c, 1, 64, 0
3, 37272, Note_on_c, 1, 65, 93
3, 37296, Note_off_c, 1, 65, 0
3, 37296, Note_on_c, 1, 64, 93
3, 37320, Note_off_c, 1, 64, 0
3, 37320, Note_on_c, 1, 65, 93
3, 37344, Note_off_c, 1, 65, 0
3, 37344, Note_on_c, 1, 62, 93
3, 37368, Note_off_c, 1, 62, 0
3, 37368, Note_on_c, 1, 61, 93
3, 37392, Note_off_c, 1, 61, 0
3, 37392, Note_on_c, 1, 62, 93
3, 37416, Note_off_c, 1, 62, 0
3, 37416, Note_on_c, 1, 64, 93
3, 37440, Note_off_c, 1, 64, 0
3, 37440, Note_on_c, 1, 57, 93
3, 37536, Note_off_c, 1, 57, 0
3, 37536, Note_on_c, 1, 58, 93
3, 37560, Note_off_c, 1, 58, 0
3, 37560, Note_on_c, 1, 55, 93
3, 37584, Note_off_c, 1, 55, 0
3, 37584, Note_on_c, 1, 53, 93
3, 37608, Note_off_c, 1, 53, 0
3, 37608, Note_on_c, 1, 55, 93
3, 37632, Note_off_c, 1, 55, 0
3, 37632, Note_on_c, 1, 52, 93
3, 37656, Note_off_c, 1, 52, 0
3, 37656, Note_on_c, 1, 53, 93
3, 37680, Note_off_c, 1, 53, 0
3, 37680, Note_on_c, 1, 57, 93
3, 37704, Note_off_c, 1, 57, 0
3, 37704, Note_on_c, 1, 62, 93
3, 37728, Note_off_c, 1, 62, 0
3, 37728, Note_on_c, 1, 60, 93
3, 37752, Note_off_c, 1, 60, 0
3, 37752, Note_on_c, 1, 58, 93
3, 37776, Note_off_c, 1, 58, 0
3, 37776, Note_on_c, 1, 57, 93
3, 37800, Note_off_c, 1, 57, 0
3, 37800, Note_on_c, 1, 58, 93
3, 37824, Note_off_c, 1, 58, 0
3, 37824, Note_on_c, 1, 62, 93
3, 37848, Note_off_c, 1, 62, 0
3, 37848, Note_on_c, 1, 67, 93
3, 37872, Note_off_c, 1, 67, 0
3, 37872, Note_on_c, 1, 61, 93
3, 37896, Note_off_c, 1, 61, 0
3, 37896, Note_on_c, 1, 64, 93
3, 37920, Note_off_c, 1, 64, 0
3, 37920, Note_on_c, 1, 57, 93
3, 37944, Note_off_c, 1, 57, 0
3, 37944, Note_on_c, 1, 58, 93
3, 37968, Note_off_c, 1, 58, 0
3, 37968, Note_on_c, 1, 57, 93
3, 37992, Note_off_c, 1, 57, 0
3, 37992, Note_on_c, 1, 55, 93
3, 38016, Note_off_c, 1, 55, 0
3, 38016, Note_on_c, 1, 53, 93
3, 38040, Note_off_c, 1, 53, 0
3, 38040, Note_on_c, 1, 55, 93
3, 38064, Note_off_c, 1, 55, 0
3, 38064, Note_on_c, 1, 52, 93
3, 38088, Note_off_c, 1, 52, 0
3, 38088, Note_on_c, 1, 53, 93
3, 38136, Note_off_c, 1, 53, 0
3, 38136, Note_on_c, 1, 62, 93
3, 38160, Note_off_c, 1, 62, 0
3, 38160, Note_on_c, 1, 55, 93
3, 38208, Note_off_c, 1, 55, 0
3, 38208, Note_on_c, 1, 53, 93
3, 38232, Note_off_c, 1, 53, 0
3, 38232, Note_on_c, 1, 52, 93
3, 38256, Note_off_c, 1, 52, 0
3, 38256, Note_on_c, 1, 57, 93
3, 38280, Note_off_c, 1, 57, 0
3, 38280, Note_on_c, 1, 55, 93
3, 38304, Note_off_c, 1, 55, 0
3, 38304, Note_on_c, 1, 53, 93
3, 38328, Note_off_c, 1, 53, 0
3, 38328, Note_on_c, 1, 52, 93
3, 38352, Note_off_c, 1, 52, 0
3, 38352, Note_on_c, 1, 50, 93
3, 38376, Note_off_c, 1, 50, 0
3, 38376, Note_on_c, 1, 50, 93
3, 38388, Note_off_c, 1, 50, 0
3, 38388, Note_on_c, 1, 49, 93
3, 38400, Note_off_c, 1, 49, 0
3, 38400, Note_on_c, 1, 50, 93
3, 38412, Note_off_c, 1, 50, 0
3, 38412, Note_on_c, 1, 49, 93
3, 38424, Note_off_c, 1, 49, 0
3, 38424, Note_on_c, 1, 50, 93
3, 38436, Note_off_c, 1, 50, 0
3, 38436, Note_on_c, 1, 49, 93
3, 38448, Note_off_c, 1, 49, 0
3, 38448, Note_on_c, 1, 50, 93
3, 38592, Note_off_c, 1, 50, 0
3, 38592, End_track
0, 0, End_of_file
