0, 0, Header, 1, 5, 96
1, 0, Start_track
1, 0, Time_signature, 4, 2, 24, 8
1, 0, Title_t, "untitled"
1, 0, Title_t, "Track1"
1, 0, Tempo, 600000
1, 31488, Tempo, 600000
1, 31494, Tempo, 606060
1, 31500, Tempo, 612244
1, 31506, Tempo, 612244
1, 31512, Tempo, 618556
1, 31518, Tempo, 618556
1, 31530, Tempo, 625000
1, 31536, Tempo, 625000
1, 31542, Tempo, 625000
1, 31548, Tempo, 631578
1, 31554, Tempo, 638297
1, 31560, Tempo, 638297
1, 31566, Tempo, 645161
1, 31572, Tempo, 645161
1, 31578, Tempo, 645161
1, 31584, Tempo, 652173
1, 31590, Tempo, 659340
1, 31596, Tempo, 659340
1, 31602, Tempo, 666666
1, 31608, Tempo, 666666
1, 31614, Tempo, 674157
1, 31626, Tempo, 674157
1, 31632, Tempo, 674157
1, 31638, Tempo, 681818
1, 31644, Tempo, 681818
1, 31650, Tempo, 689655
1, 31656, Tempo, 689655
1, 31662, Tempo, 697674
1, 31668, Tempo, 697674
1, 31674, Tempo, 705882
1, 31680, Tempo, 705882
1, 31686, Tempo, 714285
1, 31692, Tempo, 722891
1, 31698, Tempo, 722891
1, 31704, Tempo, 731707
1, 31710, Tempo, 731707
1, 31722, Tempo, 731707
1, 31728, Tempo, 740740
1, 31734, Tempo, 750000
1, 31740, Tempo, 750000
1, 31746, Tempo, 750000
1, 31752, Tempo, 759493
1, 31758, Tempo, 769230
1, 31764, Tempo, 769230
1, 31770, Tempo, 779220
1, 31776, Tempo, 779220
1, 31782, Tempo, 789473
1, 31788, Tempo, 789473
1, 31794, Tempo, 800000
1, 31800, Tempo, 800000
1, 31806, Tempo, 800000
1, 31818, Tempo, 810810
1, 31824, Tempo, 821917
1, 31830, Tempo, 821917
1, 31836, Tempo, 833333
1, 31842, Tempo, 833333
1, 31848, Tempo, 833333
1, 31854, Tempo, 845070
1, 31860, Tempo, 845070
1, 31866, Tempo, 857142
1, 31872, Tempo, 869565
1, 31878, Tempo, 869565
1, 31878, Tempo, 869565
1, 31884, Tempo, 882352
1, 31884, Tempo, 895522
1, 31890, Tempo, 895522
1, 31890, Tempo, 895522
1, 31896, Tempo, 909090
1, 31896, Tempo, 923076
1, 31902, Tempo, 923076
1, 31902, Tempo, 937500
1, 31908, Tempo, 937500
1, 31914, Tempo, 937500
1, 31914, Tempo, 952380
1, 31920, Tempo, 967741
1, 31920, Tempo, 967741
1, 31926, Tempo, 983606
1, 31926, Tempo, 983606
1, 31932, Tempo, 1000000
1, 31932, Tempo, 1000000
1, 31938, Tempo, 1000000
1, 31938, Tempo, 1016949
1, 31944, Tempo, 1016949
1, 31944, Tempo, 1034482
1, 31950, Tempo, 1052631
1, 31950, Tempo, 1052631
1, 31956, Tempo, 1071428
1, 31962, Tempo, 1071428
1, 31962, Tempo, 1090909
1, 31968, Tempo, 1090909
1, 31968, Tempo, 1090909
1, 31974, Tempo, 1111111
1, 31974, Tempo, 1111111
1, 31980, Tempo, 1132075
1, 31980, Tempo, 1132075
1, 31986, Tempo, 1153846
1, 31986, Tempo, 1153846
1, 31992, Tempo, 1176470
1, 31992, Tempo, 1200000
1, 31998, Tempo, 1200000
1, 31998, Tempo, 1200000
1, 32004, Tempo, 1224489
1, 32010, Tempo, 1250000
1, 32010, Tempo, 1250000
1, 32016, Tempo, 1250000
1, 32016, Tempo, 1276595
1, 32022, Tempo, 1304347
1, 32022, Tempo, 1304347
1, 32028, Tempo, 1333333
1, 32028, Tempo, 1333333
1, 32034, Tempo, 1333333
1, 32034, Tempo, 1363636
1, 32040, Tempo, 1363636
1, 32040, Tempo, 1395348
1, 32046, Tempo, 1428571
1, 32046, Tempo, 1428571
1, 32052, Tempo, 1428571
1, 32058, Tempo, 1463414
1, 32058, Tempo, 1500000
1, 32064, Tempo, 1500000
1, 32064, Tempo, 1500000
1, 32064, End_track
2, 0, Start_track
2, 0, Title_t, "Track2"
2, 0, Program_c, 0, 40
2, 0, Control_c, 0, 7, 100
2, 0, Control_c, 0, 10, 94
2, 4608, Note_on_c, 0, 69, 93
2, 4800, Note_off_c, 0, 69, 0
2, 4800, Note_on_c, 0, 74, 93
2, 4992, Note_off_c, 0, 74, 0
2, 4992, Note_on_c, 0, 72, 93
2, 5184, Note_off_c, 0, 72, 0
2, 5184, Note_on_c, 0, 69, 93
2, 5376, Note_off_c, 0, 69, 0
2, 5376, Note_on_c, 0, 68, 93
2, 5568, Note_off_c, 0, 68, 0
2, 5568, Note_on_c, 0, 69, 93
2, 5664, Note_off_c, 0, 69, 0
2, 5664, Note_on_c, 0, 71, 93
2, 5760, Note_off_c, 0, 71, 0
2, 5760, Note_on_c, 0, 72, 93
2, 6018, Note_off_c, 0, 72, 0
2, 6018, Note_on_c, 0, 74, 93
2, 6048, Note_off_c, 0, 74, 0
2, 6048, Note_on_c, 0, 72, 93
2, 6114, Note_off_c, 0, 72, 0
2, 6114, Note_on_c, 0, 71, 93
2, 6144, Note_off_c, 0, 71, 0
2, 6144, Note_on_c, 0, 69, 93
2, 6912, Note_off_c, 0, 69, 0
2, 6912, Note_on_c, 0, 62, 93
2, 7746, Note_off_c, 0, 62, 0
2, 7746, Note_on_c, 0, 61, 93
2, 7776, Note_off_c, 0, 61, 0
2, 7776, Note_on_c, 0, 62, 93
2, 7842, Note_off_c, 0, 62, 0
2, 7842, Note_on_c, 0, 65, 93
2, 7872, Note_off_c, 0, 65, 0
2, 7872, Note_on_c, 0, 64, 93
2, 7938, Note_off_c, 0, 64, 0
2, 7938, Note_on_c, 0, 62, 93
2, 7968, Note_off_c, 0, 62, 0
2, 7968, Note_on_c, 0, 68, 93
2, 8034, Note_off_c, 0, 68, 0
2, 8034, Note_on_c, 0, 69, 93
2, 8064, Note_off_c, 0, 69, 0
2, 8064, Note_on_c, 0, 71, 93
2, 8130, Note_off_c, 0, 71, 0
2, 8130, Note_on_c, 0, 72, 93
2, 8160, Note_off_c, 0, 72, 0
2, 8160, Note_on_c, 0, 74, 93
2, 8226, Note_off_c, 0, 74, 0
2, 8226, Note_on_c, 0, 65, 93
2, 8322, Note_off_c, 0, 65, 0
2, 8322, Note_on_c, 0, 64, 93
2, 8334, Note_off_c, 0, 64, 0
2, 8334, Note_on_c, 0, 62, 93
2, 8352, Note_off_c, 0, 62, 0
2, 8352, Note_on_c, 0, 61, 93
2, 8418, Note_off_c, 0, 61, 0
2, 8418, Note_on_c, 0, 62, 93
2, 8448, Note_off_c, 0, 62, 0
2, 8448, Note_on_c, 0, 61, 93
2, 8544, Note_off_c, 0, 61, 0
2, 9600, Note_on_c, 0, 69, 93
2, 9792, Note_off_c, 0, 69, 0
2, 9792, Note_on_c, 0, 74, 93
2, 9984, Note_off_c, 0, 74, 0
2, 9984, Note_on_c, 0, 72, 93
2, 10176, Note_off_c, 0, 72, 0
2, 10176, Note_on_c, 0, 69, 93
2, 10368, Note_off_c, 0, 69, 0
2, 10368, Note_on_c, 0, 68, 93
2, 10560, Note_off_c, 0, 68, 0
2, 10560, Note_on_c, 0, 69, 93
2, 10656, Note_off_c, 0, 69, 0
2, 10656, Note_on_c, 0, 71, 93
2, 10752, Note_off_c, 0, 71, 0
2, 10752, Note_on_c, 0, 72, 93
2, 11010, Note_off_c, 0, 72, 0
2, 11010, Note_on_c, 0, 74, 93
2, 11040, Note_off_c, 0, 74, 0
2, 11040, Note_on_c, 0, 72, 93
2, 11106, Note_off_c, 0, 72, 0
2, 11106, Note_on_c, 0, 71, 93
2, 11136, Note_off_c, 0, 71, 0
2, 11136, Note_on_c, 0, 72, 93
2, 11232, Note_off_c, 0, 72, 0
2, 11232, Note_on_c, 0, 81, 93
2, 11394, Note_off_c, 0, 81, 0
2, 11394, Note_on_c, 0, 79, 93
2, 11424, Note_off_c, 0, 79, 0
2, 11424, Note_on_c, 0, 77, 93
2, 11490, Note_off_c, 0, 77, 0
2, 11490, Note_on_c, 0, 76, 93
2, 11586, Note_off_c, 0, 76, 0
2, 11586, Note_on_c, 0, 77, 93
2, 11616, Note_off_c, 0, 77, 0
2, 11616, Note_on_c, 0, 76, 93
2, 11682, Note_off_c, 0, 76, 0
2, 11682, Note_on_c, 0, 74, 93
2, 11778, Note_off_c, 0, 74, 0
2, 11778, Note_on_c, 0, 76, 93
2, 11808, Note_off_c, 0, 76, 0
2, 11808, Note_on_c, 0, 74, 93
2, 11874, Note_off_c, 0, 74, 0
2, 11874, Note_on_c, 0, 73, 93
2, 11904, Note_off_c, 0, 73, 0
2, 11904, Note_on_c, 0, 74, 93
2, 12096, Note_off_c, 0, 74, 0
2, 12738, Note_on_c, 0, 81, 93
2, 12768, Note_off_c, 0, 81, 0
2, 12768, Note_on_c, 0, 80, 93
2, 12834, Note_off_c, 0, 80, 0
2, 12834, Note_on_c, 0, 81, 93
2, 12864, Note_off_c, 0, 81, 0
2, 12864, Note_on_c, 0, 74, 93
2, 12960, Note_off_c, 0, 74, 0
2, 12960, Note_on_c, 0, 79, 93
2, 13056, Note_off_c, 0, 79, 0
2, 13056, Note_on_c, 0, 79, 93
2, 13122, Note_off_c, 0, 79, 0
2, 13122, Note_on_c, 0, 77, 93
2, 13152, Note_off_c, 0, 77, 0
2, 13152, Note_on_c, 0, 76, 93
2, 13218, Note_off_c, 0, 76, 0
2, 13218, Note_on_c, 0, 74, 93
2, 13248, Note_off_c, 0, 74, 0
2, 13248, Note_on_c, 0, 76, 93
2, 13344, Note_off_c, 0, 76, 0
2, 13344, Note_on_c, 0, 81, 93
2, 13440, Note_off_c, 0, 81, 0
2, 13440, Note_on_c, 0, 74, 93
2, 13536, Note_off_c, 0, 74, 0
2, 13536, Note_on_c, 0, 76, 93
2, 13632, Note_off_c, 0, 76, 0
2, 13632, Note_on_c, 0, 64, 93
2, 13728, Note_off_c, 0, 64, 0
2, 13728, Note_on_c, 0, 65, 93
2, 13824, Note_off_c, 0, 65, 0
2, 13824, Note_on_c, 0, 64, 93
2, 13920, Note_off_c, 0, 64, 0
2, 13920, Note_on_c, 0, 76, 93
2, 14082, Note_off_c, 0, 76, 0
2, 14082, Note_on_c, 0, 74, 93
2, 14112, Note_off_c, 0, 74, 0
2, 14112, Note_on_c, 0, 72, 93
2, 14178, Note_off_c, 0, 72, 0
2, 14178, Note_on_c, 0, 71, 93
2, 14208, Note_off_c, 0, 71, 0
2, 14208, Note_on_c, 0, 72, 93
2, 14274, Note_off_c, 0, 72, 0
2, 14274, Note_on_c, 0, 74, 93
2, 14304, Note_off_c, 0, 74, 0
2, 14304, Note_on_c, 0, 76, 93
2, 14466, Note_off_c, 0, 76, 0
2, 14466, Note_on_c, 0, 77, 93
2, 14496, Note_off_c, 0, 77, 0
2, 14496, Note_on_c, 0, 76, 93
2, 14562, Note_off_c, 0, 76, 0
2, 14562, Note_on_c, 0, 74, 93
2, 14592, Note_off_c, 0, 74, 0
2, 14592, Note_on_c, 0, 81, 93
2, 14688, Note_off_c, 0, 81, 0
2, 15426, Note_on_c, 0, 76, 93
2, 15456, Note_off_c, 0, 76, 0
2, 15456, Note_on_c, 0, 75, 93
2, 15522, Note_off_c, 0, 75, 0
2, 15522, Note_on_c, 0, 76, 93
2, 15552, Note_off_c, 0, 76, 0
2, 15552, Note_on_c, 0, 69, 93
2, 15648, Note_off_c, 0, 69, 0
2, 15648, Note_on_c, 0, 74, 93
2, 15810, Note_off_c, 0, 74, 0
2, 15810, Note_on_c, 0, 72, 93
2, 15840, Note_off_c, 0, 72, 0
2, 15840, Note_on_c, 0, 70, 93
2, 15906, Note_off_c, 0, 70, 0
2, 15906, Note_on_c, 0, 69, 93
2, 15936, Note_off_c, 0, 69, 0
2, 15936, Note_on_c, 0, 70, 93
2, 16194, Note_off_c, 0, 70, 0
2, 16194, Note_on_c, 0, 69, 93
2, 16224, Note_off_c, 0, 69, 0
2, 16224, Note_on_c, 0, 67, 93
2, 16290, Note_off_c, 0, 67, 0
2, 16290, Note_on_c, 0, 65, 93
2, 16320, Note_off_c, 0, 65, 0
2, 16320, Note_on_c, 0, 67, 93
2, 16578, Note_off_c, 0, 67, 0
2, 16578, Note_on_c, 0, 65, 93
2, 16608, Note_off_c, 0, 65, 0
2, 16608, Note_on_c, 0, 67, 93
2, 16674, Note_off_c, 0, 67, 0
2, 16674, Note_on_c, 0, 69, 93
2, 16704, Note_off_c, 0, 69, 0
2, 16704, Note_on_c, 0, 70, 93
2, 16770, Note_off_c, 0, 70, 0
2, 16770, Note_on_c, 0, 72, 93
2, 16800, Note_off_c, 0, 72, 0
2, 16800, Note_on_c, 0, 74, 93
2, 16866, Note_off_c, 0, 74, 0
2, 16866, Note_on_c, 0, 76, 93
2, 16896, Note_off_c, 0, 76, 0
2, 16896, Note_on_c, 0, 77, 93
2, 17088, Note_off_c, 0, 77, 0
2, 17088, Note_on_c, 0, 84, 93
2, 17280, Note_off_c, 0, 84, 0
2, 17280, Note_on_c, 0, 81, 93
2, 17472, Note_off_c, 0, 81, 0
2, 17472, Note_on_c, 0, 77, 93
2, 17664, Note_off_c, 0, 77, 0
2, 17664, Note_on_c, 0, 76, 93
2, 17856, Note_off_c, 0, 76, 0
2, 17856, Note_on_c, 0, 77, 93
2, 17952, Note_off_c, 0, 77, 0
2, 17952, Note_on_c, 0, 79, 93
2, 18048, Note_off_c, 0, 79, 0
2, 18048, Note_on_c, 0, 81, 93
2, 18306, Note_off_c, 0, 81, 0
2, 18306, Note_on_c, 0, 82, 93
2, 18336, Note_off_c, 0, 82, 0
2, 18336, Note_on_c, 0, 81, 93
2, 18402, Note_off_c, 0, 81, 0
2, 18402, Note_on_c, 0, 79, 93
2, 18432, Note_off_c, 0, 79, 0
2, 18432, Note_on_c, 0, 78, 93
2, 18624, Note_off_c, 0, 78, 0
2, 18624, Note_on_c, 0, 79, 93
2, 18720, Note_off_c, 0, 79, 0
2, 18720, Note_on_c, 0, 81, 93
2, 18882, Note_off_c, 0, 81, 0
2, 18882, Note_on_c, 0, 74, 93
2, 18912, Note_off_c, 0, 74, 0
2, 18912, Note_on_c, 0, 79, 93
2, 18978, Note_off_c, 0, 79, 0
2, 18978, Note_on_c, 0, 77, 93
2, 19008, Note_off_c, 0, 77, 0
2, 19008, Note_on_c, 0, 75, 93
2, 19074, Note_off_c, 0, 75, 0
2, 19074, Note_on_c, 0, 74, 93
2, 19104, Note_off_c, 0, 74, 0
2, 19104, Note_on_c, 0, 72, 93
2, 19170, Note_off_c, 0, 72, 0
2, 19170, Note_on_c, 0, 70, 93
2, 19200, Note_off_c, 0, 70, 0
2, 19200, Note_on_c, 0, 69, 93
2, 19392, Note_off_c, 0, 69, 0
2, 20802, Note_on_c, 0, 79, 93
2, 20832, Note_off_c, 0, 79, 0
2, 20832, Note_on_c, 0, 77, 93
2, 20898, Note_off_c, 0, 77, 0
2, 20898, Note_on_c, 0, 75, 93
2, 20928, Note_off_c, 0, 75, 0
2, 20928, Note_on_c, 0, 74, 93
2, 20994, Note_off_c, 0, 74, 0
2, 20994, Note_on_c, 0, 72, 93
2, 21024, Note_off_c, 0, 72, 0
2, 21024, Note_on_c, 0, 70, 93
2, 21090, Note_off_c, 0, 70, 0
2, 21090, Note_on_c, 0, 69, 93
2, 21120, Note_off_c, 0, 69, 0
2, 21120, Note_on_c, 0, 70, 93
2, 21312, Note_off_c, 0, 70, 0
2, 21312, Note_on_c, 0, 75, 93
2, 21570, Note_off_c, 0, 75, 0
2, 21570, Note_on_c, 0, 74, 93
2, 21600, Note_off_c, 0, 74, 0
2, 21600, Note_on_c, 0, 73, 93
2, 21666, Note_off_c, 0, 73, 0
2, 21666, Note_on_c, 0, 74, 93
2, 21696, Note_off_c, 0, 74, 0
2, 21696, Note_on_c, 0, 67, 93
2, 21792, Note_off_c, 0, 67, 0
2, 21792, Note_on_c, 0, 72, 93
2, 21984, Note_off_c, 0, 72, 0
2, 21984, Note_on_c, 0, 70, 93
2, 22080, Note_off_c, 0, 70, 0
2, 22080, Note_on_c, 0, 69, 93
2, 22338, Note_off_c, 0, 69, 0
2, 22338, Note_on_c, 0, 77, 93
2, 22368, Note_off_c, 0, 77, 0
2, 22368, Note_on_c, 0, 79, 93
2, 22434, Note_off_c, 0, 79, 0
2, 22434, Note_on_c, 0, 77, 93
2, 22464, Note_off_c, 0, 77, 0
2, 22464, Note_on_c, 0, 76, 93
2, 22530, Note_off_c, 0, 76, 0
2, 22530, Note_on_c, 0, 74, 93
2, 22560, Note_off_c, 0, 74, 0
2, 22560, Note_on_c, 0, 73, 93
2, 22626, Note_off_c, 0, 73, 0
2, 22626, Note_on_c, 0, 74, 93
2, 22656, Note_off_c, 0, 74, 0
2, 22656, Note_on_c, 0, 73, 93
2, 22722, Note_off_c, 0, 73, 0
2, 22722, Note_on_c, 0, 81, 93
2, 22752, Note_off_c, 0, 81, 0
2, 22752, Note_on_c, 0, 82, 93
2, 22818, Note_off_c, 0, 82, 0
2, 22818, Note_on_c, 0, 81, 93
2, 22848, Note_off_c, 0, 81, 0
2, 22848, Note_on_c, 0, 79, 93
2, 22914, Note_off_c, 0, 79, 0
2, 22914, Note_on_c, 0, 77, 93
2, 22944, Note_off_c, 0, 77, 0
2, 22944, Note_on_c, 0, 76, 93
2, 23010, Note_off_c, 0, 76, 0
2, 23010, Note_on_c, 0, 77, 93
2, 23040, Note_off_c, 0, 77, 0
2, 23040, Note_on_c, 0, 79, 93
2, 23106, Note_off_c, 0, 79, 0
2, 23106, Note_on_c, 0, 77, 93
2, 23136, Note_off_c, 0, 77, 0
2, 23136, Note_on_c, 0, 76, 93
2, 23202, Note_off_c, 0, 76, 0
2, 23202, Note_on_c, 0, 74, 93
2, 23298, Note_off_c, 0, 74, 0
2, 23298, Note_on_c, 0, 76, 93
2, 23328, Note_off_c, 0, 76, 0
2, 23328, Note_on_c, 0, 74, 93
2, 23394, Note_off_c, 0, 74, 0
2, 23394, Note_on_c, 0, 73, 93
2, 23424, Note_off_c, 0, 73, 0
2, 23424, Note_on_c, 0, 74, 93
2, 23520, Note_off_c, 0, 74, 0
2, 23712, Note_on_c, 0, 70, 93
2, 23874, Note_off_c, 0, 70, 0
2, 23874, Note_on_c, 0, 70, 93
2, 23904, Note_off_c, 0, 70, 0
2, 23904, Note_on_c, 0, 69, 93
2, 23970, Note_off_c, 0, 69, 0
2, 23970, Note_on_c, 0, 67, 93
2, 24000, Note_off_c, 0, 67, 0
2, 24000, Note_on_c, 0, 65, 93
2, 24066, Note_off_c, 0, 65, 0
2, 24066, Note_on_c, 0, 64, 93
2, 24096, Note_off_c, 0, 64, 0
2, 24096, Note_on_c, 0, 62, 93
2, 24162, Note_off_c, 0, 62, 0
2, 24162, Note_on_c, 0, 61, 93
2, 24192, Note_off_c, 0, 61, 0
2, 24192, Note_on_c, 0, 62, 93
2, 24258, Note_off_c, 0, 62, 0
2, 24258, Note_on_c, 0, 74, 93
2, 24288, Note_off_c, 0, 74, 0
2, 24288, Note_on_c, 0, 76, 93
2, 24354, Note_off_c, 0, 76, 0
2, 24354, Note_on_c, 0, 77, 93
2, 24384, Note_off_c, 0, 77, 0
2, 24384, Note_on_c, 0, 79, 93
2, 24672, Note_off_c, 0, 79, 0
2, 24672, Note_on_c, 0, 77, 93
2, 24738, Note_off_c, 0, 77, 0
2, 24738, Note_on_c, 0, 76, 93
2, 24768, Note_off_c, 0, 76, 0
2, 24768, Note_on_c, 0, 77, 93
2, 24864, Note_off_c, 0, 77, 0
2, 24864, Note_on_c, 0, 81, 93
2, 24960, Note_off_c, 0, 81, 0
2, 24960, Note_on_c, 0, 74, 93
2, 25152, Note_off_c, 0, 74, 0
2, 25152, Note_on_c, 0, 76, 93
2, 25248, Note_off_c, 0, 76, 0
2, 25248, Note_on_c, 0, 78, 93
2, 25344, Note_off_c, 0, 78, 0
2, 25344, Note_on_c, 0, 79, 93
2, 25632, Note_off_c, 0, 79, 0
2, 25632, Note_on_c, 0, 74, 93
2, 25794, Note_off_c, 0, 74, 0
2, 25794, Note_on_c, 0, 76, 93
2, 25824, Note_off_c, 0, 76, 0
2, 25824, Note_on_c, 0, 74, 93
2, 25890, Note_off_c, 0, 74, 0
2, 25890, Note_on_c, 0, 72, 93
2, 25986, Note_off_c, 0, 72, 0
2, 25986, Note_on_c, 0, 74, 93
2, 26016, Note_off_c, 0, 74, 0
2, 26016, Note_on_c, 0, 72, 93
2, 26082, Note_off_c, 0, 72, 0
2, 26082, Note_on_c, 0, 70, 93
2, 26178, Note_off_c, 0, 70, 0
2, 26178, Note_on_c, 0, 70, 93
2, 26208, Note_off_c, 0, 70, 0
2, 26208, Note_on_c, 0, 69, 93
2, 26274, Note_off_c, 0, 69, 0
2, 26274, Note_on_c, 0, 67, 93
2, 26304, Note_off_c, 0, 67, 0
2, 26304, Note_on_c, 0, 65, 93
2, 26370, Note_off_c, 0, 65, 0
2, 26370, Note_on_c, 0, 72, 93
2, 26400, Note_off_c, 0, 72, 0
2, 26400, Note_on_c, 0, 70, 93
2, 26466, Note_off_c, 0, 70, 0
2, 26466, Note_on_c, 0, 69, 93
2, 26496, Note_off_c, 0, 69, 0
2, 26496, Note_on_c, 0, 68, 93
2, 26658, Note_off_c, 0, 68, 0
2, 26658, Note_on_c, 0, 68, 93
2, 26688, Note_off_c, 0, 68, 0
2, 26688, Note_on_c, 0, 69, 93
2, 26850, Note_off_c, 0, 69, 0
2, 26850, Note_on_c, 0, 69, 93
2, 26880, Note_off_c, 0, 69, 0
2, 26880, Note_on_c, 0, 74, 93
2, 26946, Note_off_c, 0, 74, 0
2, 26946, Note_on_c, 0, 76, 93
2, 26976, Note_off_c, 0, 76, 0
2, 26976, Note_on_c, 0, 77, 93
2, 27072, Note_off_c, 0, 77, 0
2, 27072, Note_on_c, 0, 76, 93
2, 27330, Note_off_c, 0, 76, 0
2, 27330, Note_on_c, 0, 81, 93
2, 27360, Note_off_c, 0, 81, 0
2, 27360, Note_on_c, 0, 80, 93
2, 27426, Note_off_c, 0, 80, 0
2, 27426, Note_on_c, 0, 81, 93
2, 27456, Note_off_c, 0, 81, 0
2, 27456, Note_on_c, 0, 76, 93
2, 27522, Note_off_c, 0, 76, 0
2, 27522, Note_on_c, 0, 78, 93
2, 27552, Note_off_c, 0, 78, 0
2, 27552, Note_on_c, 0, 79, 93
2, 27744, Note_off_c, 0, 79, 0
2, 27744, Note_on_c, 0, 77, 93
2, 27936, Note_off_c, 0, 77, 0
2, 27936, Note_on_c, 0, 76, 93
2, 28002, Note_off_c, 0, 76, 0
2, 28002, Note_on_c, 0, 74, 93
2, 28032, Note_off_c, 0, 74, 0
2, 28032, Note_on_c, 0, 73, 93
2, 28128, Note_off_c, 0, 73, 0
2, 28128, Note_on_c, 0, 76, 93
2, 28224, Note_off_c, 0, 76, 0
2, 28224, Note_on_c, 0, 69, 93
2, 28512, Note_off_c, 0, 69, 0
2, 28512, Note_on_c, 0, 62, 93
2, 28704, Note_off_c, 0, 62, 0
2, 28704, Note_on_c, 0, 67, 93
2, 28866, Note_off_c, 0, 67, 0
2, 28866, Note_on_c, 0, 70, 93
2, 28896, Note_off_c, 0, 70, 0
2, 28896, Note_on_c, 0, 69, 93
2, 28962, Note_off_c, 0, 69, 0
2, 28962, Note_on_c, 0, 67, 93
2, 29058, Note_off_c, 0, 67, 0
2, 29058, Note_on_c, 0, 69, 93
2, 29088, Note_off_c, 0, 69, 0
2, 29088, Note_on_c, 0, 67, 93
2, 29154, Note_off_c, 0, 67, 0
2, 29154, Note_on_c, 0, 65, 93
2, 29250, Note_off_c, 0, 65, 0
2, 29250, Note_on_c, 0, 67, 93
2, 29280, Note_off_c, 0, 67, 0
2, 29280, Note_on_c, 0, 65, 93
2, 29346, Note_off_c, 0, 65, 0
2, 29346, Note_on_c, 0, 64, 93
2, 29442, Note_off_c, 0, 64, 0
2, 29442, Note_on_c, 0, 65, 93
2, 29472, Note_off_c, 0, 65, 0
2, 29472, Note_on_c, 0, 64, 93
2, 29538, Note_off_c, 0, 64, 0
2, 29538, Note_on_c, 0, 62, 93
2, 29634, Note_off_c, 0, 62, 0
2, 29634, Note_on_c, 0, 59, 93
2, 29664, Note_off_c, 0, 59, 0
2, 29664, Note_on_c, 0, 61, 93
2, 29730, Note_off_c, 0, 61, 0
2, 29730, Note_on_c, 0, 64, 93
2, 29760, Note_off_c, 0, 64, 0
2, 29760, Note_on_c, 0, 57, 93
2, 29826, Note_off_c, 0, 57, 0
2, 29826, Note_on_c, 0, 67, 93
2, 29856, Note_off_c, 0, 67, 0
2, 29856, Note_on_c, 0, 65, 93
2, 29922, Note_off_c, 0, 65, 0
2, 29922, Note_on_c, 0, 64, 93
2, 29952, Note_off_c, 0, 64, 0
2, 29952, Note_on_c, 0, 62, 93
2, 30144, Note_off_c, 0, 62, 0
2, 30144, Note_on_c, 0, 69, 93
2, 30336, Note_off_c, 0, 69, 0
2, 30336, Note_on_c, 0, 65, 93
2, 30528, Note_off_c, 0, 65, 0
2, 30528, Note_on_c, 0, 62, 93
2, 30720, Note_off_c, 0, 62, 0
2, 30720, Note_on_c, 0, 61, 93
2, 30912, Note_off_c, 0, 61, 0
2, 30912, Note_on_c, 0, 62, 93
2, 31008, Note_off_c, 0, 62, 0
2, 31008, Note_on_c, 0, 64, 93
2, 31104, Note_off_c, 0, 64, 0
2, 31104, Note_on_c, 0, 65, 93
2, 31362, Note_off_c, 0, 65, 0
2, 31362, Note_on_c, 0, 67, 93
2, 31392, Note_off_c, 0, 67, 0
2, 31392, Note_on_c, 0, 65, 93
2, 31458, Note_off_c, 0, 65, 0
2, 31458, Note_on_c, 0, 64, 93
2, 31488, Note_off_c, 0, 64, 0
2, 31488, Note_on_c, 0, 62, 93
2, 32256, Note_off_c, 0, 62, 0
2, 32256, End_track
3, 0, Start_track
3, 0, Title_t, "Track3"
3, 0, Program_c, 1, 40
3, 0, Control_c, 1, 7, 100
3, 0, Control_c, 1, 10, 74
3, 3072, Note_on_c, 1, 62, 93
3, 3264, Note_off_c, 1, 62, 0
3, 3264, Note_on_c, 1, 69, 93
3, 3456, Note_off_c, 1, 69, 0
3, 3456, Note_on_c, 1, 65, 93
3, 3648, Note_off_c, 1, 65, 0
3, 3648, Note_on_c, 1, 62, 93
3, 3840, Note_off_c, 1, 62, 0
3, 3840, Note_on_c, 1, 61, 93
3, 4032, Note_off_c, 1, 61, 0
3, 4032, Note_on_c, 1, 62, 93
3, 4128, Note_off_c, 1, 62, 0
3, 4128, Note_on_c, 1, 64, 93
3, 4224, Note_off_c, 1, 64, 0
3, 4224, Note_on_c, 1, 65, 93
3, 4482, Note_off_c, 1, 65, 0
3, 4482, Note_on_c, 1, 67, 93
3, 4512, Note_off_c, 1, 67, 0
3, 4512, Note_on_c, 1, 65, 93
3, 4578, Note_off_c, 1, 65, 0
3, 4578, Note_on_c, 1, 64, 93
3, 4608, Note_off_c, 1, 64, 0
3, 4608, Note_on_c, 1, 62, 93
3, 4674, Note_off_c, 1, 62, 0
3, 4674, Note_on_c, 1, 64, 93
3, 4704, Note_off_c, 1, 64, 0
3, 4704, Note_on_c, 1, 65, 93
3, 4770, Note_off_c, 1, 65, 0
3, 4770, Note_on_c, 1, 67, 93
3, 4800, Note_off_c, 1, 67, 0
3, 4800, Note_on_c, 1, 69, 93
3, 5058, Note_off_c, 1, 69, 0
3, 5058, Note_on_c, 1, 67, 93
3, 5088, Note_off_c, 1, 67, 0
3, 5088, Note_on_c, 1, 65, 93
3, 5154, Note_off_c, 1, 65, 0
3, 5154, Note_on_c, 1, 64, 93
3, 5250, Note_off_c, 1, 64, 0
3, 5250, Note_on_c, 1, 65, 93
3, 5280, Note_off_c, 1, 65, 0
3, 5280, Note_on_c, 1, 64, 93
3, 5346, Note_off_c, 1, 64, 0
3, 5346, Note_on_c, 1, 62, 93
3, 5442, Note_off_c, 1, 62, 0
3, 5442, Note_on_c, 1, 62, 93
3, 5472, Note_off_c, 1, 62, 0
3, 5472, Note_on_c, 1, 64, 93
3, 5538, Note_off_c, 1, 64, 0
3, 5538, Note_on_c, 1, 65, 93
3, 5568, Note_off_c, 1, 65, 0
3, 5568, Note_on_c, 1, 64, 93
3, 5664, Note_off_c, 1, 64, 0
3, 5664, Note_on_c, 1, 62, 93
3, 5760, Note_off_c, 1, 62, 0
3, 5760, Note_on_c, 1, 60, 93
3, 5856, Note_off_c, 1, 60, 0
3, 5856, Note_on_c, 1, 64, 93
3, 5952, Note_off_c, 1, 64, 0
3, 5952, Note_on_c, 1, 65, 93
3, 6048, Note_off_c, 1, 65, 0
3, 6048, Note_on_c, 1, 64, 93
3, 6210, Note_off_c, 1, 64, 0
3, 6210, Note_on_c, 1, 61, 93
3, 6240, Note_off_c, 1, 61, 0
3, 6240, Note_on_c, 1, 62, 93
3, 6306, Note_off_c, 1, 62, 0
3, 6306, Note_on_c, 1, 64, 93
3, 6336, Note_off_c, 1, 64, 0
3, 6336, Note_on_c, 1, 65, 93
3, 6432, Note_off_c, 1, 65, 0
3, 6432, Note_on_c, 1, 64, 93
3, 6594, Note_off_c, 1, 64, 0
3, 6594, Note_on_c, 1, 64, 93
3, 6624, Note_off_c, 1, 64, 0
3, 6624, Note_on_c, 1, 62, 93
3, 6690, Note_off_c, 1, 62, 0
3, 6690, Note_on_c, 1, 61, 93
3, 6720, Note_off_c, 1, 61, 0
3, 6720, Note_on_c, 1, 62, 93
3, 6816, Note_off_c, 1, 62, 0
3, 6816, Note_on_c, 1, 60, 93
3, 7008, Note_off_c, 1, 60, 0
3, 7008, Note_on_c, 1, 58, 93
3, 7074, Note_off_c, 1, 58, 0
3, 7074, Note_on_c, 1, 57, 93
3, 7104, Note_off_c, 1, 57, 0
3, 7104, Note_on_c, 1, 58, 93
3, 7200, Note_off_c, 1, 58, 0
3, 7200, Note_on_c, 1, 57, 93
3, 7362, Note_off_c, 1, 57, 0
3, 7362, Note_on_c, 1, 54, 93
3, 7392, Note_off_c, 1, 54, 0
3, 7392, Note_on_c, 1, 55, 93
3, 7458, Note_off_c, 1, 55, 0
3, 7458, Note_on_c, 1, 57, 93
3, 7488, Note_off_c, 1, 57, 0
3, 7488, Note_on_c, 1, 58, 93
3, 7584, Note_off_c, 1, 58, 0
3, 7584, Note_on_c, 1, 57, 93
3, 7680, Note_off_c, 1, 57, 0
3, 7680, Note_on_c, 1, 56, 93
3, 7776, Note_off_c, 1, 56, 0
3, 8256, Note_on_c, 1, 59, 93
3, 8448, Note_off_c, 1, 59, 0
3, 8448, Note_on_c, 1, 57, 93
3, 8514, Note_off_c, 1, 57, 0
3, 8514, Note_on_c, 1, 64, 93
3, 8544, Note_off_c, 1, 64, 0
3, 8544, Note_on_c, 1, 65, 93
3, 8610, Note_off_c, 1, 65, 0
3, 8610, Note_on_c, 1, 67, 93
3, 8640, Note_off_c, 1, 67, 0
3, 8640, Note_on_c, 1, 69, 93
3, 8832, Note_off_c, 1, 69, 0
3, 8832, Note_on_c, 1, 65, 93
3, 9024, Note_off_c, 1, 65, 0
3, 9024, Note_on_c, 1, 62, 93
3, 9216, Note_off_c, 1, 62, 0
3, 9216, Note_on_c, 1, 61, 93
3, 9408, Note_off_c, 1, 61, 0
3, 9408, Note_on_c, 1, 62, 93
3, 9504, Note_off_c, 1, 62, 0
3, 9504, Note_on_c, 1, 64, 93
3, 9600, Note_off_c, 1, 64, 0
3, 9600, Note_on_c, 1, 65, 93
3, 9858, Note_off_c, 1, 65, 0
3, 9858, Note_on_c, 1, 69, 93
3, 9888, Note_off_c, 1, 69, 0
3, 9888, Note_on_c, 1, 68, 93
3, 9954, Note_off_c, 1, 68, 0
3, 9954, Note_on_c, 1, 66, 93
3, 9984, Note_off_c, 1, 66, 0
3, 9984, Note_on_c, 1, 64, 93
3, 10242, Note_off_c, 1, 64, 0
3, 10242, Note_on_c, 1, 57, 93
3, 10272, Note_off_c, 1, 57, 0
3, 10272, Note_on_c, 1, 62, 93
3, 10338, Note_off_c, 1, 62, 0
3, 10338, Note_on_c, 1, 60, 93
3, 10368, Note_off_c, 1, 60, 0
3, 10368, Note_on_c, 1, 59, 93
3, 10560, Note_off_c, 1, 59, 0
3, 10626, Note_on_c, 1, 64, 93
3, 10656, Note_off_c, 1, 64, 0
3, 10656, Note_on_c, 1, 66, 93
3, 10722, Note_off_c, 1, 66, 0
3, 10722, Note_on_c, 1, 68, 93
3, 10752, Note_off_c, 1, 68, 0
3, 10752, Note_on_c, 1, 69, 93
3, 11040, Note_off_c, 1, 69, 0
3, 11040, Note_on_c, 1, 68, 93
3, 11136, Note_off_c, 1, 68, 0
3, 11136, Note_on_c, 1, 69, 93
3, 11202, Note_off_c, 1, 69, 0
3, 11202, Note_on_c, 1, 67, 93
3, 11232, Note_off_c, 1, 67, 0
3, 11232, Note_on_c, 1, 65, 93
3, 11298, Note_off_c, 1, 65, 0
3, 11298, Note_on_c, 1, 64, 93
3, 11328, Note_off_c, 1, 64, 0
3, 11328, Note_on_c, 1, 62, 93
3, 11424, Note_off_c, 1, 62, 0
3, 11424, Note_on_c, 1, 67, 93
3, 11520, Note_off_c, 1, 67, 0
3, 11520, Note_on_c, 1, 65, 93
3, 11712, Note_off_c, 1, 65, 0
3, 11712, Note_on_c, 1, 64, 93
3, 11904, Note_off_c, 1, 64, 0
3, 11904, Note_on_c, 1, 62, 93
3, 12096, Note_off_c, 1, 62, 0
3, 12354, Note_on_c, 1, 70, 93
3, 12384, Note_off_c, 1, 70, 0
3, 12384, Note_on_c, 1, 69, 93
3, 12450, Note_off_c, 1, 69, 0
3, 12450, Note_on_c, 1, 67, 93
3, 12480, Note_off_c, 1, 67, 0
3, 12480, Note_on_c, 1, 65, 93
3, 12546, Note_off_c, 1, 65, 0
3, 12546, Note_on_c, 1, 64, 93
3, 12576, Note_off_c, 1, 64, 0
3, 12576, Note_on_c, 1, 62, 93
3, 12642, Note_off_c, 1, 62, 0
3, 12642, Note_on_c, 1, 61, 93
3, 12672, Note_off_c, 1, 61, 0
3, 12672, Note_on_c, 1, 62, 93
3, 12768, Note_off_c, 1, 62, 0
3, 12768, Note_on_c, 1, 74, 93
3, 12864, Note_off_c, 1, 74, 0
3, 12864, Note_on_c, 1, 71, 93
3, 12960, Note_off_c, 1, 71, 0
3, 12960, Note_on_c, 1, 73, 93
3, 13056, Note_off_c, 1, 73, 0
3, 13056, Note_on_c, 1, 74, 93
3, 13152, Note_off_c, 1, 74, 0
3, 13344, Note_on_c, 1, 72, 93
3, 13506, Note_off_c, 1, 72, 0
3, 13506, Note_on_c, 1, 70, 93
3, 13536, Note_off_c, 1, 70, 0
3, 13536, Note_on_c, 1, 69, 93
3, 13602, Note_off_c, 1, 69, 0
3, 13602, Note_on_c, 1, 67, 93
3, 13632, Note_off_c, 1, 67, 0
3, 13632, Note_on_c, 1, 69, 93
3, 13824, Note_off_c, 1, 69, 0
3, 13824, Note_on_c, 1, 68, 93
3, 13920, Note_off_c, 1, 68, 0
3, 13920, Note_on_c, 1, 72, 93
3, 14016, Note_off_c, 1, 72, 0
3, 14016, Note_on_c, 1, 66, 93
3, 14112, Note_off_c, 1, 66, 0
3, 14112, Note_on_c, 1, 68, 93
3, 14208, Note_off_c, 1, 68, 0
3, 14208, Note_on_c, 1, 69, 93
3, 14274, Note_off_c, 1, 69, 0
3, 14274, Note_on_c, 1, 70, 93
3, 14304, Note_off_c, 1, 70, 0
3, 14304, Note_on_c, 1, 69, 93
3, 14370, Note_off_c, 1, 69, 0
3, 14370, Note_on_c, 1, 67, 93
3, 14400, Note_off_c, 1, 67, 0
3, 14400, Note_on_c, 1, 65, 93
3, 14466, Note_off_c, 1, 65, 0
3, 14466, Note_on_c, 1, 69, 93
3, 14496, Note_off_c, 1, 69, 0
3, 14496, Note_on_c, 1, 67, 93
3, 14562, Note_off_c, 1, 67, 0
3, 14562, Note_on_c, 1, 65, 93
3, 14658, Note_off_c, 1, 65, 0
3, 14658, Note_on_c, 1, 64, 93
3, 14688, Note_off_c, 1, 64, 0
3, 14688, Note_on_c, 1, 66, 93
3, 14754, Note_off_c, 1, 66, 0
3, 14754, Note_on_c, 1, 68, 93
3, 14784, Note_off_c, 1, 68, 0
3, 14784, Note_on_c, 1, 69, 93
3, 14850, Note_off_c, 1, 69, 0
3, 14850, Note_on_c, 1, 71, 93
3, 14880, Note_off_c, 1, 71, 0
3, 14880, Note_on_c, 1, 72, 93
3, 14946, Note_off_c, 1, 72, 0
3, 14946, Note_on_c, 1, 69, 93
3, 14976, Note_off_c, 1, 69, 0
3, 14976, Note_on_c, 1, 71, 93
3, 15234, Note_off_c, 1, 71, 0
3, 15234, Note_on_c, 1, 69, 93
3, 15264, Note_off_c, 1, 69, 0
3, 15264, Note_on_c, 1, 68, 93
3, 15330, Note_off_c, 1, 68, 0
3, 15330, Note_on_c, 1, 69, 93
3, 15360, Note_off_c, 1, 69, 0
3, 15360, Note_on_c, 1, 63, 93
3, 15426, Note_off_c, 1, 63, 0
3, 15426, Note_on_c, 1, 57, 93
3, 15456, Note_off_c, 1, 57, 0
3, 15456, Note_on_c, 1, 69, 93
3, 15648, Note_off_c, 1, 69, 0
3, 15648, Note_on_c, 1, 64, 93
3, 15840, Note_off_c, 1, 64, 0
3, 15840, Note_on_c, 1, 65, 93
3, 15936, Note_off_c, 1, 65, 0
3, 15936, Note_on_c, 1, 62, 93
3, 16032, Note_off_c, 1, 62, 0
3, 16032, Note_on_c, 1, 67, 93
3, 16128, Note_off_c, 1, 67, 0
3, 16128, Note_on_c, 1, 60, 93
3, 16194, Note_off_c, 1, 60, 0
3, 16194, Note_on_c, 1, 65, 93
3, 16224, Note_off_c, 1, 65, 0
3, 16224, Note_on_c, 1, 64, 93
3, 16290, Note_off_c, 1, 64, 0
3, 16290, Note_on_c, 1, 62, 93
3, 16386, Note_off_c, 1, 62, 0
3, 16386, Note_on_c, 1, 64, 93
3, 16416, Note_off_c, 1, 64, 0
3, 16416, Note_on_c, 1, 62, 93
3, 16482, Note_off_c, 1, 62, 0
3, 16482, Note_on_c, 1, 61, 93
3, 16512, Note_off_c, 1, 61, 0
3, 16512, Note_on_c, 1, 62, 93
3, 16800, Note_off_c, 1, 62, 0
3, 16800, Note_on_c, 1, 67, 93
3, 16896, Note_off_c, 1, 67, 0
3, 16896, Note_on_c, 1, 60, 93
3, 17154, Note_off_c, 1, 60, 0
3, 17154, Note_on_c, 1, 58, 93
3, 17184, Note_off_c, 1, 58, 0
3, 17184, Note_on_c, 1, 57, 93
3, 17250, Note_off_c, 1, 57, 0
3, 17250, Note_on_c, 1, 55, 93
3, 17280, Note_off_c, 1, 55, 0
3, 17280, Note_on_c, 1, 53, 93
3, 17346, Note_off_c, 1, 53, 0
3, 17346, Note_on_c, 1, 65, 93
3, 17376, Note_off_c, 1, 65, 0
3, 17376, Note_on_c, 1, 67, 93
3, 17442, Note_off_c, 1, 67, 0
3, 17442, Note_on_c, 1, 69, 93
3, 17472, Note_off_c, 1, 69, 0
3, 17472, Note_on_c, 1, 70, 93
3, 17538, Note_off_c, 1, 70, 0
3, 17538, Note_on_c, 1, 72, 93
3, 17568, Note_off_c, 1, 72, 0
3, 17568, Note_on_c, 1, 74, 93
3, 17634, Note_off_c, 1, 74, 0
3, 17634, Note_on_c, 1, 70, 93
3, 17664, Note_off_c, 1, 70, 0
3, 17664, Note_on_c, 1, 72, 93
3, 17760, Note_off_c, 1, 72, 0
3, 17760, Note_on_c, 1, 67, 93
3, 17856, Note_off_c, 1, 67, 0
3, 17856, Note_on_c, 1, 72, 93
3, 18240, Note_off_c, 1, 72, 0
3, 18240, Note_on_c, 1, 74, 93
3, 18336, Note_off_c, 1, 74, 0
3, 18336, Note_on_c, 1, 72, 93
3, 18402, Note_off_c, 1, 72, 0
3, 18402, Note_on_c, 1, 70, 93
3, 18432, Note_off_c, 1, 70, 0
3, 18432, Note_on_c, 1, 69, 93
3, 18624, Note_off_c, 1, 69, 0
3, 18624, Note_on_c, 1, 74, 93
3, 18816, Note_off_c, 1, 74, 0
3, 18816, Note_on_c, 1, 70, 93
3, 19008, Note_off_c, 1, 70, 0
3, 19008, Note_on_c, 1, 67, 93
3, 19200, Note_off_c, 1, 67, 0
3, 19200, Note_on_c, 1, 66, 93
3, 19392, Note_off_c, 1, 66, 0
3, 19392, Note_on_c, 1, 67, 93
3, 19488, Note_off_c, 1, 67, 0
3, 19488, Note_on_c, 1, 69, 93
3, 19584, Note_off_c, 1, 69, 0
3, 19584, Note_on_c, 1, 70, 93
3, 19842, Note_off_c, 1, 70, 0
3, 19842, Note_on_c, 1, 72, 93
3, 19872, Note_off_c, 1, 72, 0
3, 19872, Note_on_c, 1, 70, 93
3, 19938, Note_off_c, 1, 70, 0
3, 19938, Note_on_c, 1, 69, 93
3, 19968, Note_off_c, 1, 69, 0
3, 19968, Note_on_c, 1, 67, 93
3, 20064, Note_off_c, 1, 67, 0
3, 20064, Note_on_c, 1, 70, 93
3, 20160, Note_off_c, 1, 70, 0
3, 20160, Note_on_c, 1, 69, 93
3, 20256, Note_off_c, 1, 69, 0
3, 20256, Note_on_c, 1, 72, 93
3, 20418, Note_off_c, 1, 72, 0
3, 20418, Note_on_c, 1, 65, 93
3, 20448, Note_off_c, 1, 65, 0
3, 20448, Note_on_c, 1, 67, 93
3, 20514, Note_off_c, 1, 67, 0
3, 20514, Note_on_c, 1, 69, 93
3, 20544, Note_off_c, 1, 69, 0
3, 20544, Note_on_c, 1, 70, 93
3, 20610, Note_off_c, 1, 70, 0
3, 20610, Note_on_c, 1, 72, 93
3, 20640, Note_off_c, 1, 72, 0
3, 20640, Note_on_c, 1, 74, 93
3, 20706, Note_off_c, 1, 74, 0
3, 20706, Note_on_c, 1, 70, 93
3, 20736, Note_off_c, 1, 70, 0
3, 20736, Note_on_c, 1, 72, 93
3, 20928, Note_off_c, 1, 72, 0
3, 20928, Note_on_c, 1, 65, 93
3, 21186, Note_off_c, 1, 65, 0
3, 21186, Note_on_c, 1, 68, 93
3, 21216, Note_off_c, 1, 68, 0
3, 21216, Note_on_c, 1, 67, 93
3, 21282, Note_off_c, 1, 67, 0
3, 21282, Note_on_c, 1, 65, 93
3, 21312, Note_off_c, 1, 65, 0
3, 21312, Note_on_c, 1, 67, 93
3, 21408, Note_off_c, 1, 67, 0
3, 21408, Note_on_c, 1, 69, 93
3, 21504, Note_off_c, 1, 69, 0
3, 21504, Note_on_c, 1, 70, 93
3, 21696, Note_off_c, 1, 70, 0
3, 21954, Note_on_c, 1, 67, 93
3, 21984, Note_off_c, 1, 67, 0
3, 21984, Note_on_c, 1, 66, 93
3, 22050, Note_off_c, 1, 66, 0
3, 22050, Note_on_c, 1, 67, 93
3, 22080, Note_off_c, 1, 67, 0
3, 22080, Note_on_c, 1, 64, 93
3, 22176, Note_off_c, 1, 64, 0
3, 22176, Note_on_c, 1, 65, 93
3, 22338, Note_off_c, 1, 65, 0
3, 22338, Note_on_c, 1, 62, 93
3, 22368, Note_off_c, 1, 62, 0
3, 22368, Note_on_c, 1, 61, 93
3, 22434, Note_off_c, 1, 61, 0
3, 22434, Note_on_c, 1, 62, 93
3, 22464, Note_off_c, 1, 62, 0
3, 22464, Note_on_c, 1, 67, 93
3, 22752, Note_off_c, 1, 67, 0
3, 22752, Note_on_c, 1, 65, 93
3, 22848, Note_off_c, 1, 65, 0
3, 22848, Note_on_c, 1, 64, 93
3, 22944, Note_off_c, 1, 64, 0
3, 22944, Note_on_c, 1, 69, 93
3, 23136, Note_off_c, 1, 69, 0
3, 23490, Note_on_c, 1, 70, 93
3, 23520, Note_off_c, 1, 70, 0
3, 23520, Note_on_c, 1, 69, 93
3, 23586, Note_off_c, 1, 69, 0
3, 23586, Note_on_c, 1, 67, 93
3, 23682, Note_off_c, 1, 67, 0
3, 23682, Note_on_c, 1, 69, 93
3, 23712, Note_off_c, 1, 69, 0
3, 23712, Note_on_c, 1, 67, 93
3, 23778, Note_off_c, 1, 67, 0
3, 23778, Note_on_c, 1, 65, 93
3, 23808, Note_off_c, 1, 65, 0
3, 23808, Note_on_c, 1, 64, 93
3, 23904, Note_off_c, 1, 64, 0
3, 23904, Note_on_c, 1, 57, 93
3, 24000, Note_off_c, 1, 57, 0
3, 24000, Note_on_c, 1, 58, 93
3, 24192, Note_off_c, 1, 58, 0
3, 24192, Note_on_c, 1, 57, 93
3, 24288, Note_off_c, 1, 57, 0
3, 24288, Note_on_c, 1, 69, 93
3, 24384, Note_off_c, 1, 69, 0
3, 24384, Note_on_c, 1, 71, 93
3, 24480, Note_off_c, 1, 71, 0
3, 24480, Note_on_c, 1, 73, 93
3, 24576, Note_off_c, 1, 73, 0
3, 24576, Note_on_c, 1, 74, 93
3, 24672, Note_off_c, 1, 74, 0
3, 25026, Note_on_c, 1, 67, 93
3, 25056, Note_off_c, 1, 67, 0
3, 25056, Note_on_c, 1, 69, 93
3, 25122, Note_off_c, 1, 69, 0
3, 25122, Note_on_c, 1, 70, 93
3, 25152, Note_off_c, 1, 70, 0
3, 25152, Note_on_c, 1, 72, 93
3, 25440, Note_off_c, 1, 72, 0
3, 25440, Note_on_c, 1, 70, 93
3, 25506, Note_off_c, 1, 70, 0
3, 25506, Note_on_c, 1, 69, 93
3, 25536, Note_off_c, 1, 69, 0
3, 25536, Note_on_c, 1, 70, 93
3, 25632, Note_off_c, 1, 70, 0
3, 25632, Note_on_c, 1, 69, 93
3, 25728, Note_off_c, 1, 69, 0
3, 25728, Note_on_c, 1, 67, 93
3, 25920, Note_off_c, 1, 67, 0
3, 25920, Note_on_c, 1, 65, 93
3, 26112, Note_off_c, 1, 65, 0
3, 26112, Note_on_c, 1, 64, 93
3, 26304, Note_off_c, 1, 64, 0
3, 26304, Note_on_c, 1, 62, 93
3, 26400, Note_off_c, 1, 62, 0
3, 26400, Note_on_c, 1, 65, 93
3, 26562, Note_off_c, 1, 65, 0
3, 26562, Note_on_c, 1, 65, 93
3, 26592, Note_off_c, 1, 65, 0
3, 26592, Note_on_c, 1, 64, 93
3, 26754, Note_off_c, 1, 64, 0
3, 26754, Note_on_c, 1, 64, 93
3, 26784, Note_off_c, 1, 64, 0
3, 26784, Note_on_c, 1, 62, 93
3, 26880, Note_off_c, 1, 62, 0
3, 27042, Note_on_c, 1, 74, 93
3, 27072, Note_off_c, 1, 74, 0
3, 27072, Note_on_c, 1, 72, 93
3, 27138, Note_off_c, 1, 72, 0
3, 27138, Note_on_c, 1, 71, 93
3, 27168, Note_off_c, 1, 71, 0
3, 27168, Note_on_c, 1, 69, 93
3, 27234, Note_off_c, 1, 69, 0
3, 27234, Note_on_c, 1, 68, 93
3, 27264, Note_off_c, 1, 68, 0
3, 27264, Note_on_c, 1, 69, 93
3, 27456, Note_off_c, 1, 69, 0
3, 27552, Note_on_c, 1, 76, 93
3, 27714, Note_off_c, 1, 76, 0
3, 27714, Note_on_c, 1, 69, 93
3, 27744, Note_off_c, 1, 69, 0
3, 27744, Note_on_c, 1, 74, 93
3, 27810, Note_off_c, 1, 74, 0
3, 27810, Note_on_c, 1, 72, 93
3, 27840, Note_off_c, 1, 72, 0
3, 27840, Note_on_c, 1, 70, 93
3, 27906, Note_off_c, 1, 70, 0
3, 27906, Note_on_c, 1, 69, 93
3, 27936, Note_off_c, 1, 69, 0
3, 27936, Note_on_c, 1, 67, 93
3, 28002, Note_off_c, 1, 67, 0
3, 28002, Note_on_c, 1, 65, 93
3, 28032, Note_off_c, 1, 65, 0
3, 28032, Note_on_c, 1, 64, 93
3, 28290, Note_off_c, 1, 64, 0
3, 28290, Note_on_c, 1, 67, 93
3, 28320, Note_off_c, 1, 67, 0
3, 28320, Note_on_c, 1, 65, 93
3, 28386, Note_off_c, 1, 65, 0
3, 28386, Note_on_c, 1, 64, 93
3, 28416, Note_off_c, 1, 64, 0
3, 28416, Note_on_c, 1, 62, 93
3, 28482, Note_off_c, 1, 62, 0
3, 28482, Note_on_c, 1, 60, 93
3, 28512, Note_off_c, 1, 60, 0
3, 28512, Note_on_c, 1, 58, 93
3, 28578, Note_off_c, 1, 58, 0
3, 28578, Note_on_c, 1, 57, 93
3, 28608, Note_off_c, 1, 57, 0
3, 28608, Note_on_c, 1, 58, 93
3, 28800, Note_off_c, 1, 58, 0
3, 28800, Note_on_c, 1, 57, 93
3, 29088, Note_off_c, 1, 57, 0
3, 29088, Note_on_c, 1, 59, 93
3, 29184, Note_off_c, 1, 59, 0
3, 29184, Note_on_c, 1, 61, 93
3, 29376, Note_off_c, 1, 61, 0
3, 29376, Note_on_c, 1, 56, 93
3, 29568, Note_off_c, 1, 56, 0
3, 29568, Note_on_c, 1, 57, 93
3, 29760, Note_off_c, 1, 57, 0
3, 29856, Note_on_c, 1, 61, 93
3, 29952, Note_off_c, 1, 61, 0
3, 29952, Note_on_c, 1, 62, 93
3, 30018, Note_off_c, 1, 62, 0
3, 30018, Note_on_c, 1, 65, 93
3, 30048, Note_off_c, 1, 65, 0
3, 30048, Note_on_c, 1, 64, 93
3, 30114, Note_off_c, 1, 64, 0
3, 30114, Note_on_c, 1, 62, 93
3, 30144, Note_off_c, 1, 62, 0
3, 30144, Note_on_c, 1, 61, 93
3, 30210, Note_off_c, 1, 61, 0
3, 30210, Note_on_c, 1, 57, 93
3, 30240, Note_off_c, 1, 57, 0
3, 30240, Note_on_c, 1, 59, 93
3, 30306, Note_off_c, 1, 59, 0
3, 30306, Note_on_c, 1, 61, 93
3, 30336, Note_off_c, 1, 61, 0
3, 30336, Note_on_c, 1, 62, 93
3, 30432, Note_off_c, 1, 62, 0
3, 30432, Note_on_c, 1, 60, 93
3, 30624, Note_off_c, 1, 60, 0
3, 30624, Note_on_c, 1, 58, 93
3, 30786, Note_off_c, 1, 58, 0
3, 30786, Note_on_c, 1, 58, 93
3, 30816, Note_off_c, 1, 58, 0
3, 30816, Note_on_c, 1, 57, 93
3, 30882, Note_off_c, 1, 57, 0
3, 30882, Note_on_c, 1, 55, 93
3, 30912, Note_off_c, 1, 55, 0
3, 30912, Note_on_c, 1, 53, 93
3, 31008, Note_off_c, 1, 53, 0
3, 31008, Note_on_c, 1, 58, 93
3, 31104, Note_off_c, 1, 58, 0
3, 31104, Note_on_c, 1, 57, 93
3, 31296, Note_off_c, 1, 57, 0
3, 31296, Note_on_c, 1, 58, 93
3, 31392, Note_off_c, 1, 58, 0
3, 31392, Note_on_c, 1, 57, 93
3, 31554, Note_off_c, 1, 57, 0
3, 31554, Note_on_c, 1, 54, 93
3, 31584, Note_off_c, 1, 54, 0
3, 31584, Note_on_c, 1, 55, 93
3, 31650, Note_off_c, 1, 55, 0
3, 31650, Note_on_c, 1, 57, 93
3, 31680, Note_off_c, 1, 57, 0
3, 31680, Note_on_c, 1, 58, 93
3, 31938, Note_off_c, 1, 58, 0
3, 31938, Note_on_c, 1, 57, 93
3, 31968, Note_off_c, 1, 57, 0
3, 31968, Note_on_c, 1, 58, 93
3, 32034, Note_off_c, 1, 58, 0
3, 32034, Note_on_c, 1, 55, 93
3, 32064, Note_off_c, 1, 55, 0
3, 32064, Note_on_c, 1, 57, 93
3, 32256, Note_off_c, 1, 57, 0
3, 32256, End_track
4, 0, Start_track
4, 0, Title_t, "Track4"
4, 0, Program_c, 2, 41
4, 0, Control_c, 2, 7, 100
4, 0, Control_c, 2, 10, 54
4, 1536, Note_on_c, 2, 57, 93
4, 1728, Note_off_c, 2, 57, 0
4, 1728, Note_on_c, 2, 62, 93
4, 1920, Note_off_c, 2, 62, 0
4, 1920, Note_on_c, 2, 60, 93
4, 2112, Note_off_c, 2, 60, 0
4, 2112, Note_on_c, 2, 57, 93
4, 2304, Note_off_c, 2, 57, 0
4, 2304, Note_on_c, 2, 56, 93
4, 2496, Note_off_c, 2, 56, 0
4, 2496, Note_on_c, 2, 57, 93
4, 2592, Note_off_c, 2, 57, 0
4, 2592, Note_on_c, 2, 59, 93
4, 2688, Note_off_c, 2, 59, 0
4, 2688, Note_on_c, 2, 60, 93
4, 2946, Note_off_c, 2, 60, 0
4, 2946, Note_on_c, 2, 62, 93
4, 2976, Note_off_c, 2, 62, 0
4, 2976, Note_on_c, 2, 60, 93
4, 3042, Note_off_c, 2, 60, 0
4, 3042, Note_on_c, 2, 58, 93
4, 3072, Note_off_c, 2, 58, 0
4, 3072, Note_on_c, 2, 57, 93
4, 3330, Note_off_c, 2, 57, 0
4, 3330, Note_on_c, 2, 67, 93
4, 3360, Note_off_c, 2, 67, 0
4, 3360, Note_on_c, 2, 65, 93
4, 3426, Note_off_c, 2, 65, 0
4, 3426, Note_on_c, 2, 64, 93
4, 3456, Note_off_c, 2, 64, 0
4, 3456, Note_on_c, 2, 62, 93
4, 3522, Note_off_c, 2, 62, 0
4, 3522, Note_on_c, 2, 60, 93
4, 3552, Note_off_c, 2, 60, 0
4, 3552, Note_on_c, 2, 58, 93
4, 3618, Note_off_c, 2, 58, 0
4, 3618, Note_on_c, 2, 57, 93
4, 3648, Note_off_c, 2, 57, 0
4, 3648, Note_on_c, 2, 58, 93
4, 3714, Note_off_c, 2, 58, 0
4, 3714, Note_on_c, 2, 57, 93
4, 3744, Note_off_c, 2, 57, 0
4, 3744, Note_on_c, 2, 55, 93
4, 3810, Note_off_c, 2, 55, 0
4, 3810, Note_on_c, 2, 53, 93
4, 3840, Note_off_c, 2, 53, 0
4, 3840, Note_on_c, 2, 52, 93
4, 4032, Note_off_c, 2, 52, 0
4, 4098, Note_on_c, 2, 57, 93
4, 4128, Note_off_c, 2, 57, 0
4, 4128, Note_on_c, 2, 59, 93
4, 4194, Note_off_c, 2, 59, 0
4, 4194, Note_on_c, 2, 61, 93
4, 4224, Note_off_c, 2, 61, 0
4, 4224, Note_on_c, 2, 62, 93
4, 4512, Note_off_c, 2, 62, 0
4, 4512, Note_on_c, 2, 61, 93
4, 4608, Note_off_c, 2, 61, 0
4, 4608, Note_on_c, 2, 62, 93
4, 4770, Note_off_c, 2, 62, 0
4, 4770, Note_on_c, 2, 64, 93
4, 4800, Note_off_c, 2, 64, 0
4, 4800, Note_on_c, 2, 65, 93
4, 4992, Note_off_c, 2, 65, 0
4, 4992, Note_on_c, 2, 64, 93
4, 5088, Note_off_c, 2, 64, 0
4, 5088, Note_on_c, 2, 60, 93
4, 5280, Note_off_c, 2, 60, 0
4, 5280, Note_on_c, 2, 57, 93
4, 5376, Note_off_c, 2, 57, 0
4, 5376, Note_on_c, 2, 59, 93
4, 5568, Note_off_c, 2, 59, 0
4, 5634, Note_on_c, 2, 52, 93
4, 5664, Note_off_c, 2, 52, 0
4, 5664, Note_on_c, 2, 54, 93
4, 5730, Note_off_c, 2, 54, 0
4, 5730, Note_on_c, 2, 56, 93
4, 5760, Note_off_c, 2, 56, 0
4, 5760, Note_on_c, 2, 57, 93
4, 6048, Note_off_c, 2, 57, 0
4, 6048, Note_on_c, 2, 56, 93
4, 6144, Note_off_c, 2, 56, 0
4, 6144, Note_on_c, 2, 57, 93
4, 6240, Note_off_c, 2, 57, 0
4, 6240, Note_on_c, 2, 59, 93
4, 6306, Note_off_c, 2, 59, 0
4, 6306, Note_on_c, 2, 61, 93
4, 6336, Note_off_c, 2, 61, 0
4, 6336, Note_on_c, 2, 62, 93
4, 6432, Note_off_c, 2, 62, 0
4, 6432, Note_on_c, 2, 55, 93
4, 6594, Note_off_c, 2, 55, 0
4, 6594, Note_on_c, 2, 55, 93
4, 6624, Note_off_c, 2, 55, 0
4, 6624, Note_on_c, 2, 53, 93
4, 6690, Note_off_c, 2, 53, 0
4, 6690, Note_on_c, 2, 52, 93
4, 6720, Note_off_c, 2, 52, 0
4, 6720, Note_on_c, 2, 53, 93
4, 6816, Note_off_c, 2, 53, 0
4, 6816, Note_on_c, 2, 54, 93
4, 6978, Note_off_c, 2, 54, 0
4, 6978, Note_on_c, 2, 50, 93
4, 7008, Note_off_c, 2, 50, 0
4, 7008, Note_on_c, 2, 52, 93
4, 7074, Note_off_c, 2, 52, 0
4, 7074, Note_on_c, 2, 54, 93
4, 7104, Note_off_c, 2, 54, 0
4, 7104, Note_on_c, 2, 55, 93
4, 7200, Note_off_c, 2, 55, 0
4, 7200, Note_on_c, 2, 48, 93
4, 7362, Note_off_c, 2, 48, 0
4, 7362, Note_on_c, 2, 45, 93
4, 7392, Note_off_c, 2, 45, 0
4, 7392, Note_on_c, 2, 46, 93
4, 7458, Note_off_c, 2, 46, 0
4, 7458, Note_on_c, 2, 48, 93
4, 7488, Note_off_c, 2, 48, 0
4, 7488, Note_on_c, 2, 50, 93
4, 7554, Note_off_c, 2, 50, 0
4, 7554, Note_on_c, 2, 49, 93
4, 7584, Note_off_c, 2, 49, 0
4, 7584, Note_on_c, 2, 50, 93
4, 7680, Note_off_c, 2, 50, 0
4, 7680, Note_on_c, 2, 52, 93
4, 7776, Note_off_c, 2, 52, 0
4, 8256, Note_on_c, 2, 56, 93
4, 8448, Note_off_c, 2, 56, 0
4, 8448, Note_on_c, 2, 52, 93
4, 8544, Note_off_c, 2, 52, 0
4, 8706, Note_on_c, 2, 57, 93
4, 8736, Note_off_c, 2, 57, 0
4, 8736, Note_on_c, 2, 59, 93
4, 8802, Note_off_c, 2, 59, 0
4, 8802, Note_on_c, 2, 61, 93
4, 8832, Note_off_c, 2, 61, 0
4, 8832, Note_on_c, 2, 62, 93
4, 8928, Note_off_c, 2, 62, 0
4, 8928, Note_on_c, 2, 60, 93
4, 9120, Note_off_c, 2, 60, 0
4, 9120, Note_on_c, 2, 58, 93
4, 9282, Note_off_c, 2, 58, 0
4, 9282, Note_on_c, 2, 55, 93
4, 9312, Note_off_c, 2, 55, 0
4, 9312, Note_on_c, 2, 53, 93
4, 9378, Note_off_c, 2, 53, 0
4, 9378, Note_on_c, 2, 52, 93
4, 9408, Note_off_c, 2, 52, 0
4, 9408, Note_on_c, 2, 57, 93
4, 9666, Note_off_c, 2, 57, 0
4, 9666, Note_on_c, 2, 62, 93
4, 9696, Note_off_c, 2, 62, 0
4, 9696, Note_on_c, 2, 61, 93
4, 9762, Note_off_c, 2, 61, 0
4, 9762, Note_on_c, 2, 62, 93
4, 9792, Note_off_c, 2, 62, 0
4, 9792, Note_on_c, 2, 56, 93
4, 9888, Note_off_c, 2, 56, 0
4, 9888, Note_on_c, 2, 59, 93
4, 10050, Note_off_c, 2, 59, 0
4, 10050, Note_on_c, 2, 52, 93
4, 10080, Note_off_c, 2, 52, 0
4, 10080, Note_on_c, 2, 57, 93
4, 10146, Note_off_c, 2, 57, 0
4, 10146, Note_on_c, 2, 55, 93
4, 10176, Note_off_c, 2, 55, 0
4, 10176, Note_on_c, 2, 53, 93
4, 10464, Note_off_c, 2, 53, 0
4, 10464, Note_on_c, 2, 52, 93
4, 10560, Note_off_c, 2, 52, 0
4, 10818, Note_on_c, 2, 67, 93
4, 10848, Note_off_c, 2, 67, 0
4, 10848, Note_on_c, 2, 65, 93
4, 10914, Note_off_c, 2, 65, 0
4, 10914, Note_on_c, 2, 64, 93
4, 10944, Note_off_c, 2, 64, 0
4, 10944, Note_on_c, 2, 63, 93
4, 11040, Note_off_c, 2, 63, 0
4, 11040, Note_on_c, 2, 64, 93
4, 11136, Note_off_c, 2, 64, 0
4, 11136, Note_on_c, 2, 57, 93
4, 11328, Note_off_c, 2, 57, 0
4, 11328, Note_on_c, 2, 59, 93
4, 11424, Note_off_c, 2, 59, 0
4, 11424, Note_on_c, 2, 61, 93
4, 11520, Note_off_c, 2, 61, 0
4, 11520, Note_on_c, 2, 62, 93
4, 11712, Note_off_c, 2, 62, 0
4, 11970, Note_on_c, 2, 57, 93
4, 12000, Note_off_c, 2, 57, 0
4, 12000, Note_on_c, 2, 59, 93
4, 12066, Note_off_c, 2, 59, 0
4, 12066, Note_on_c, 2, 61, 93
4, 12096, Note_off_c, 2, 61, 0
4, 12096, Note_on_c, 2, 62, 93
4, 12162, Note_off_c, 2, 62, 0
4, 12162, Note_on_c, 2, 64, 93
4, 12192, Note_off_c, 2, 64, 0
4, 12192, Note_on_c, 2, 65, 93
4, 12258, Note_off_c, 2, 65, 0
4, 12258, Note_on_c, 2, 62, 93
4, 12288, Note_off_c, 2, 62, 0
4, 12288, Note_on_c, 2, 64, 93
4, 12384, Note_off_c, 2, 64, 0
4, 12384, Note_on_c, 2, 52, 93
4, 12480, Note_off_c, 2, 52, 0
4, 12480, Note_on_c, 2, 53, 93
4, 12576, Note_off_c, 2, 53, 0
4, 12576, Note_on_c, 2, 55, 93
4, 12672, Note_off_c, 2, 55, 0
4, 12672, Note_on_c, 2, 57, 93
4, 12768, Note_off_c, 2, 57, 0
4, 13152, Note_on_c, 2, 62, 93
4, 13314, Note_off_c, 2, 62, 0
4, 13314, Note_on_c, 2, 60, 93
4, 13344, Note_off_c, 2, 60, 0
4, 13344, Note_on_c, 2, 58, 93
4, 13410, Note_off_c, 2, 58, 0
4, 13410, Note_on_c, 2, 57, 93
4, 13440, Note_off_c, 2, 57, 0
4, 13440, Note_on_c, 2, 58, 93
4, 13536, Note_off_c, 2, 58, 0
4, 13536, Note_on_c, 2, 59, 93
4, 13632, Note_off_c, 2, 59, 0
4, 13632, Note_on_c, 2, 61, 93
4, 13728, Note_off_c, 2, 61, 0
4, 13728, Note_on_c, 2, 62, 93
4, 13890, Note_off_c, 2, 62, 0
4, 13890, Note_on_c, 2, 60, 93
4, 13920, Note_off_c, 2, 60, 0
4, 13920, Note_on_c, 2, 59, 93
4, 13986, Note_off_c, 2, 59, 0
4, 13986, Note_on_c, 2, 57, 93
4, 14016, Note_off_c, 2, 57, 0
4, 14016, Note_on_c, 2, 59, 93
4, 14112, Note_off_c, 2, 59, 0
4, 14112, Note_on_c, 2, 64, 93
4, 14208, Note_off_c, 2, 64, 0
4, 14208, Note_on_c, 2, 57, 93
4, 14400, Note_off_c, 2, 57, 0
4, 14400, Note_on_c, 2, 62, 93
4, 14592, Note_off_c, 2, 62, 0
4, 14592, Note_on_c, 2, 60, 93
4, 14784, Note_off_c, 2, 60, 0
4, 14784, Note_on_c, 2, 57, 93
4, 14976, Note_off_c, 2, 57, 0
4, 14976, Note_on_c, 2, 56, 93
4, 15168, Note_off_c, 2, 56, 0
4, 15168, Note_on_c, 2, 57, 93
4, 15264, Note_off_c, 2, 57, 0
4, 15264, Note_on_c, 2, 59, 93
4, 15360, Note_off_c, 2, 59, 0
4, 15360, Note_on_c, 2, 60, 93
4, 15618, Note_off_c, 2, 60, 0
4, 15618, Note_on_c, 2, 62, 93
4, 15648, Note_off_c, 2, 62, 0
4, 15648, Note_on_c, 2, 60, 93
4, 15714, Note_off_c, 2, 60, 0
4, 15714, Note_on_c, 2, 59, 93
4, 15744, Note_off_c, 2, 59, 0
4, 15744, Note_on_c, 2, 57, 93
4, 16002, Note_off_c, 2, 57, 0
4, 16002, Note_on_c, 2, 55, 93
4, 16032, Note_off_c, 2, 55, 0
4, 16032, Note_on_c, 2, 53, 93
4, 16098, Note_off_c, 2, 53, 0
4, 16098, Note_on_c, 2, 52, 93
4, 16128, Note_off_c, 2, 52, 0
4, 16128, Note_on_c, 2, 53, 93
4, 16224, Note_off_c, 2, 53, 0
4, 16224, Note_on_c, 2, 58, 93
4, 16320, Note_off_c, 2, 58, 0
4, 16320, Note_on_c, 2, 52, 93
4, 16416, Note_off_c, 2, 52, 0
4, 16416, Note_on_c, 2, 57, 93
4, 16512, Note_off_c, 2, 57, 0
4, 16512, Note_on_c, 2, 50, 93
4, 16608, Note_off_c, 2, 50, 0
4, 16608, Note_on_c, 2, 52, 93
4, 16674, Note_off_c, 2, 52, 0
4, 16674, Note_on_c, 2, 53, 93
4, 16704, Note_off_c, 2, 53, 0
4, 16704, Note_on_c, 2, 55, 93
4, 16770, Note_off_c, 2, 55, 0
4, 16770, Note_on_c, 2, 57, 93
4, 16800, Note_off_c, 2, 57, 0
4, 16800, Note_on_c, 2, 58, 93
4, 16962, Note_off_c, 2, 58, 0
4, 16962, Note_on_c, 2, 57, 93
4, 16992, Note_off_c, 2, 57, 0
4, 16992, Note_on_c, 2, 55, 93
4, 17058, Note_off_c, 2, 55, 0
4, 17058, Note_on_c, 2, 53, 93
4, 17088, Note_off_c, 2, 53, 0
4, 17088, Note_on_c, 2, 52, 93
4, 17280, Note_off_c, 2, 52, 0
4, 17280, Note_on_c, 2, 53, 93
4, 17376, Note_off_c, 2, 53, 0
4, 17568, Note_on_c, 2, 58, 93
4, 17730, Note_off_c, 2, 58, 0
4, 17730, Note_on_c, 2, 62, 93
4, 17760, Note_off_c, 2, 62, 0
4, 17760, Note_on_c, 2, 60, 93
4, 17826, Note_off_c, 2, 60, 0
4, 17826, Note_on_c, 2, 58, 93
4, 17856, Note_off_c, 2, 58, 0
4, 17856, Note_on_c, 2, 57, 93
4, 17922, Note_off_c, 2, 57, 0
4, 17922, Note_on_c, 2, 55, 93
4, 17952, Note_off_c, 2, 55, 0
4, 17952, Note_on_c, 2, 53, 93
4, 18018, Note_off_c, 2, 53, 0
4, 18018, Note_on_c, 2, 52, 93
4, 18048, Note_off_c, 2, 52, 0
4, 18048, Note_on_c, 2, 53, 93
4, 18114, Note_off_c, 2, 53, 0
4, 18114, Note_on_c, 2, 65, 93
4, 18144, Note_off_c, 2, 65, 0
4, 18144, Note_on_c, 2, 64, 93
4, 18210, Note_off_c, 2, 64, 0
4, 18210, Note_on_c, 2, 65, 93
4, 18240, Note_off_c, 2, 65, 0
4, 18240, Note_on_c, 2, 58, 93
4, 18336, Note_off_c, 2, 58, 0
4, 18336, Note_on_c, 2, 63, 93
4, 18498, Note_off_c, 2, 63, 0
4, 18498, Note_on_c, 2, 63, 93
4, 18528, Note_off_c, 2, 63, 0
4, 18528, Note_on_c, 2, 62, 93
4, 18594, Note_off_c, 2, 62, 0
4, 18594, Note_on_c, 2, 60, 93
4, 18624, Note_off_c, 2, 60, 0
4, 18624, Note_on_c, 2, 58, 93
4, 18690, Note_off_c, 2, 58, 0
4, 18690, Note_on_c, 2, 57, 93
4, 18720, Note_off_c, 2, 57, 0
4, 18720, Note_on_c, 2, 55, 93
4, 18786, Note_off_c, 2, 55, 0
4, 18786, Note_on_c, 2, 54, 93
4, 18816, Note_off_c, 2, 54, 0
4, 18816, Note_on_c, 2, 55, 93
4, 18882, Note_off_c, 2, 55, 0
4, 18882, Note_on_c, 2, 57, 93
4, 18912, Note_off_c, 2, 57, 0
4, 18912, Note_on_c, 2, 58, 93
4, 19104, Note_off_c, 2, 58, 0
4, 19104, Note_on_c, 2, 57, 93
4, 19170, Note_off_c, 2, 57, 0
4, 19170, Note_on_c, 2, 58, 93
4, 19200, Note_off_c, 2, 58, 0
4, 19200, Note_on_c, 2, 60, 93
4, 19296, Note_off_c, 2, 60, 0
4, 19296, Note_on_c, 2, 63, 93
4, 19392, Note_off_c, 2, 63, 0
4, 19392, Note_on_c, 2, 62, 93
4, 19680, Note_off_c, 2, 62, 0
4, 19680, Note_on_c, 2, 62, 93
4, 19776, Note_off_c, 2, 62, 0
4, 19776, Note_on_c, 2, 64, 93
4, 19872, Note_off_c, 2, 64, 0
4, 19872, Note_on_c, 2, 65, 93
4, 20034, Note_off_c, 2, 65, 0
4, 20034, Note_on_c, 2, 65, 93
4, 20064, Note_off_c, 2, 65, 0
4, 20064, Note_on_c, 2, 63, 93
4, 20130, Note_off_c, 2, 63, 0
4, 20130, Note_on_c, 2, 62, 93
4, 20160, Note_off_c, 2, 62, 0
4, 20160, Note_on_c, 2, 60, 93
4, 20226, Note_off_c, 2, 60, 0
4, 20226, Note_on_c, 2, 58, 93
4, 20256, Note_off_c, 2, 58, 0
4, 20256, Note_on_c, 2, 57, 93
4, 20322, Note_off_c, 2, 57, 0
4, 20322, Note_on_c, 2, 55, 93
4, 20352, Note_off_c, 2, 55, 0
4, 20352, Note_on_c, 2, 53, 93
4, 20448, Note_off_c, 2, 53, 0
4, 20832, Note_on_c, 2, 48, 93
4, 20928, Note_off_c, 2, 48, 0
4, 20928, Note_on_c, 2, 50, 93
4, 21024, Note_off_c, 2, 50, 0
4, 21024, Note_on_c, 2, 51, 93
4, 21120, Note_off_c, 2, 51, 0
4, 21120, Note_on_c, 2, 53, 93
4, 21216, Note_off_c, 2, 53, 0
4, 21216, Note_on_c, 2, 58, 93
4, 21408, Note_off_c, 2, 58, 0
4, 21408, Note_on_c, 2, 63, 93
4, 21504, Note_off_c, 2, 63, 0
4, 21504, Note_on_c, 2, 65, 93
4, 21696, Note_off_c, 2, 65, 0
4, 21762, Note_on_c, 2, 60, 93
4, 21792, Note_off_c, 2, 60, 0
4, 21792, Note_on_c, 2, 58, 93
4, 21858, Note_off_c, 2, 58, 0
4, 21858, Note_on_c, 2, 57, 93
4, 21888, Note_off_c, 2, 57, 0
4, 21888, Note_on_c, 2, 55, 93
4, 21984, Note_off_c, 2, 55, 0
4, 21984, Note_on_c, 2, 63, 93
4, 22080, Note_off_c, 2, 63, 0
4, 22080, Note_on_c, 2, 61, 93
4, 22176, Note_off_c, 2, 61, 0
4, 22176, Note_on_c, 2, 62, 93
4, 22338, Note_off_c, 2, 62, 0
4, 22752, Note_on_c, 2, 62, 93
4, 22944, Note_off_c, 2, 62, 0
4, 22944, Note_on_c, 2, 61, 93
4, 23040, Note_off_c, 2, 61, 0
4, 23040, Note_on_c, 2, 62, 93
4, 23232, Note_off_c, 2, 62, 0
4, 23232, Note_on_c, 2, 64, 93
4, 23424, Note_off_c, 2, 64, 0
4, 23424, Note_on_c, 2, 57, 93
4, 23520, Note_off_c, 2, 57, 0
4, 23520, Note_on_c, 2, 59, 93
4, 23586, Note_off_c, 2, 59, 0
4, 23586, Note_on_c, 2, 61, 93
4, 23616, Note_off_c, 2, 61, 0
4, 23616, Note_on_c, 2, 62, 93
4, 23712, Note_off_c, 2, 62, 0
4, 23904, Note_on_c, 2, 52, 93
4, 24000, Note_off_c, 2, 52, 0
4, 24000, Note_on_c, 2, 53, 93
4, 24096, Note_off_c, 2, 53, 0
4, 24096, Note_on_c, 2, 55, 93
4, 24192, Note_off_c, 2, 55, 0
4, 24192, Note_on_c, 2, 57, 93
4, 24384, Note_off_c, 2, 57, 0
4, 24642, Note_on_c, 2, 57, 93
4, 24672, Note_off_c, 2, 57, 0
4, 24672, Note_on_c, 2, 59, 93
4, 24738, Note_off_c, 2, 59, 0
4, 24738, Note_on_c, 2, 61, 93
4, 24768, Note_off_c, 2, 61, 0
4, 24768, Note_on_c, 2, 62, 93
4, 24864, Note_off_c, 2, 62, 0
4, 24864, Note_on_c, 2, 54, 93
4, 24960, Note_off_c, 2, 54, 0
4, 24960, Note_on_c, 2, 55, 93
4, 25056, Note_off_c, 2, 55, 0
4, 26208, Note_on_c, 2, 57, 93
4, 26400, Note_off_c, 2, 57, 0
4, 26400, Note_on_c, 2, 62, 93
4, 26592, Note_off_c, 2, 62, 0
4, 26592, Note_on_c, 2, 60, 93
4, 26784, Note_off_c, 2, 60, 0
4, 26784, Note_on_c, 2, 57, 93
4, 26976, Note_off_c, 2, 57, 0
4, 26976, Note_on_c, 2, 56, 93
4, 27072, Note_off_c, 2, 56, 0
4, 27072, Note_on_c, 2, 57, 93
4, 27168, Note_off_c, 2, 57, 0
4, 27168, Note_on_c, 2, 59, 93
4, 27264, Note_off_c, 2, 59, 0
4, 27264, Note_on_c, 2, 60, 93
4, 27522, Note_off_c, 2, 60, 0
4, 27522, Note_on_c, 2, 62, 93
4, 27552, Note_off_c, 2, 62, 0
4, 27552, Note_on_c, 2, 61, 93
4, 27618, Note_off_c, 2, 61, 0
4, 27618, Note_on_c, 2, 59, 93
4, 27648, Note_off_c, 2, 59, 0
4, 27648, Note_on_c, 2, 57, 93
4, 27840, Note_off_c, 2, 57, 0
4, 27840, Note_on_c, 2, 58, 93
4, 28098, Note_off_c, 2, 58, 0
4, 28098, Note_on_c, 2, 58, 93
4, 28128, Note_off_c, 2, 58, 0
4, 28128, Note_on_c, 2, 57, 93
4, 28194, Note_off_c, 2, 57, 0
4, 28194, Note_on_c, 2, 55, 93
4, 28224, Note_off_c, 2, 55, 0
4, 28224, Note_on_c, 2, 53, 93
4, 28290, Note_off_c, 2, 53, 0
4, 28290, Note_on_c, 2, 52, 93
4, 28320, Note_off_c, 2, 52, 0
4, 28320, Note_on_c, 2, 50, 93
4, 28386, Note_off_c, 2, 50, 0
4, 28386, Note_on_c, 2, 49, 93
4, 28416, Note_off_c, 2, 49, 0
4, 28416, Note_on_c, 2, 50, 93
4, 28512, Note_off_c, 2, 50, 0
4, 28512, Note_on_c, 2, 52, 93
4, 28578, Note_off_c, 2, 52, 0
4, 28578, Note_on_c, 2, 54, 93
4, 28608, Note_off_c, 2, 54, 0
4, 28608, Note_on_c, 2, 55, 93
4, 28674, Note_off_c, 2, 55, 0
4, 28674, Note_on_c, 2, 53, 93
4, 28704, Note_off_c, 2, 53, 0
4, 28704, Note_on_c, 2, 52, 93
4, 28770, Note_off_c, 2, 52, 0
4, 28770, Note_on_c, 2, 50, 93
4, 28800, Note_off_c, 2, 50, 0
4, 28800, Note_on_c, 2, 49, 93
4, 28992, Note_off_c, 2, 49, 0
4, 28992, Note_on_c, 2, 50, 93
4, 29184, Note_off_c, 2, 50, 0
4, 29184, Note_on_c, 2, 52, 93
4, 29376, Note_off_c, 2, 52, 0
4, 29376, Note_on_c, 2, 53, 93
4, 29568, Note_off_c, 2, 53, 0
4, 29568, Note_on_c, 2, 52, 93
4, 29760, Note_off_c, 2, 52, 0
4, 29856, Note_on_c, 2, 57, 93
4, 29952, Note_off_c, 2, 57, 0
4, 29952, Note_on_c, 2, 57, 93
4, 30144, Note_off_c, 2, 57, 0
4, 30402, Note_on_c, 2, 50, 93
4, 30432, Note_off_c, 2, 50, 0
4, 30432, Note_on_c, 2, 52, 93
4, 30498, Note_off_c, 2, 52, 0
4, 30498, Note_on_c, 2, 53, 93
4, 30528, Note_off_c, 2, 53, 0
4, 30528, Note_on_c, 2, 55, 93
4, 30594, Note_off_c, 2, 55, 0
4, 30594, Note_on_c, 2, 57, 93
4, 30624, Note_off_c, 2, 57, 0
4, 30624, Note_on_c, 2, 55, 93
4, 30690, Note_off_c, 2, 55, 0
4, 30690, Note_on_c, 2, 53, 93
4, 30720, Note_off_c, 2, 53, 0
4, 30720, Note_on_c, 2, 52, 93
4, 30786, Note_off_c, 2, 52, 0
4, 30786, Note_on_c, 2, 55, 93
4, 30816, Note_off_c, 2, 55, 0
4, 30816, Note_on_c, 2, 53, 93
4, 30882, Note_off_c, 2, 53, 0
4, 30882, Note_on_c, 2, 52, 93
4, 30912, Note_off_c, 2, 52, 0
4, 30912, Note_on_c, 2, 50, 93
4, 31104, Note_off_c, 2, 50, 0
4, 31104, Note_on_c, 2, 49, 93
4, 31200, Note_off_c, 2, 49, 0
4, 31200, Note_on_c, 2, 50, 93
4, 31392, Note_off_c, 2, 50, 0
4, 31392, Note_on_c, 2, 49, 93
4, 31488, Note_off_c, 2, 49, 0
4, 31488, Note_on_c, 2, 50, 93
4, 31584, Note_off_c, 2, 50, 0
4, 31584, Note_on_c, 2, 52, 93
4, 31650, Note_off_c, 2, 52, 0
4, 31650, Note_on_c, 2, 54, 93
4, 31680, Note_off_c, 2, 54, 0
4, 31680, Note_on_c, 2, 55, 93
4, 31938, Note_off_c, 2, 55, 0
4, 31938, Note_on_c, 2, 54, 93
4, 31968, Note_off_c, 2, 54, 0
4, 31968, Note_on_c, 2, 55, 93
4, 32034, Note_off_c, 2, 55, 0
4, 32034, Note_on_c, 2, 52, 93
4, 32064, Note_off_c, 2, 52, 0
4, 32064, Note_on_c, 2, 54, 93
4, 32256, Note_off_c, 2, 54, 0
4, 32256, End_track
5, 0, Start_track
5, 0, Title_t, "Track5"
5, 0, Program_c, 3, 42
5, 0, Control_c, 3, 7, 100
5, 0, Control_c, 3, 10, 34
5, 0, Note_on_c, 3, 50, 93
5, 192, Note_off_c, 3, 50, 0
5, 192, Note_on_c, 3, 57, 93
5, 384, Note_off_c, 3, 57, 0
5, 384, Note_on_c, 3, 53, 93
5, 576, Note_off_c, 3, 53, 0
5, 576, Note_on_c, 3, 50, 93
5, 768, Note_off_c, 3, 50, 0
5, 768, Note_on_c, 3, 49, 93
5, 960, Note_off_c, 3, 49, 0
5, 960, Note_on_c, 3, 50, 93
5, 1056, Note_off_c, 3, 50, 0
5, 1056, Note_on_c, 3, 52, 93
5, 1152, Note_off_c, 3, 52, 0
5, 1152, Note_on_c, 3, 53, 93
5, 1410, Note_off_c, 3, 53, 0
5, 1410, Note_on_c, 3, 55, 93
5, 1440, Note_off_c, 3, 55, 0
5, 1440, Note_on_c, 3, 53, 93
5, 1506, Note_off_c, 3, 53, 0
5, 1506, Note_on_c, 3, 52, 93
5, 1536, Note_off_c, 3, 52, 0
5, 1536, Note_on_c, 3, 50, 93
5, 1602, Note_off_c, 3, 50, 0
5, 1602, Note_on_c, 3, 52, 93
5, 1632, Note_off_c, 3, 52, 0
5, 1632, Note_on_c, 3, 50, 93
5, 1698, Note_off_c, 3, 50, 0
5, 1698, Note_on_c, 3, 48, 93
5, 1794, Note_off_c, 3, 48, 0
5, 1794, Note_on_c, 3, 50, 93
5, 1824, Note_off_c, 3, 50, 0
5, 1824, Note_on_c, 3, 48, 93
5, 1890, Note_off_c, 3, 48, 0
5, 1890, Note_on_c, 3, 47, 93
5, 1986, Note_off_c, 3, 47, 0
5, 1986, Note_on_c, 3, 45, 93
5, 2016, Note_off_c, 3, 45, 0
5, 2016, Note_on_c, 3, 47, 93
5, 2082, Note_off_c, 3, 47, 0
5, 2082, Note_on_c, 3, 48, 93
5, 2112, Note_off_c, 3, 48, 0
5, 2112, Note_on_c, 3, 50, 93
5, 2178, Note_off_c, 3, 50, 0
5, 2178, Note_on_c, 3, 52, 93
5, 2208, Note_off_c, 3, 52, 0
5, 2208, Note_on_c, 3, 53, 93
5, 2274, Note_off_c, 3, 53, 0
5, 2274, Note_on_c, 3, 50, 93
5, 2304, Note_off_c, 3, 50, 0
5, 2304, Note_on_c, 3, 52, 93
5, 2370, Note_off_c, 3, 52, 0
5, 2370, Note_on_c, 3, 53, 93
5, 2400, Note_off_c, 3, 53, 0
5, 2400, Note_on_c, 3, 52, 93
5, 2466, Note_off_c, 3, 52, 0
5, 2466, Note_on_c, 3, 50, 93
5, 2496, Note_off_c, 3, 50, 0
5, 2496, Note_on_c, 3, 48, 93
5, 2562, Note_off_c, 3, 48, 0
5, 2562, Note_on_c, 3, 47, 93
5, 2592, Note_off_c, 3, 47, 0
5, 2592, Note_on_c, 3, 45, 93
5, 2658, Note_off_c, 3, 45, 0
5, 2658, Note_on_c, 3, 44, 93
5, 2688, Note_off_c, 3, 44, 0
5, 2688, Note_on_c, 3, 45, 93
5, 2754, Note_off_c, 3, 45, 0
5, 2754, Note_on_c, 3, 57, 93
5, 2784, Note_off_c, 3, 57, 0
5, 2784, Note_on_c, 3, 56, 93
5, 2850, Note_off_c, 3, 56, 0
5, 2850, Note_on_c, 3, 57, 93
5, 2880, Note_off_c, 3, 57, 0
5, 2880, Note_on_c, 3, 50, 93
5, 2976, Note_off_c, 3, 50, 0
5, 2976, Note_on_c, 3, 55, 93
5, 3138, Note_off_c, 3, 55, 0
5, 3138, Note_on_c, 3, 53, 93
5, 3168, Note_off_c, 3, 53, 0
5, 3168, Note_on_c, 3, 52, 93
5, 3234, Note_off_c, 3, 52, 0
5, 3234, Note_on_c, 3, 50, 93
5, 3264, Note_off_c, 3, 50, 0
5, 3264, Note_on_c, 3, 49, 93
5, 3456, Note_off_c, 3, 49, 0
5, 3456, Note_on_c, 3, 50, 93
5, 3552, Note_off_c, 3, 50, 0
5, 3552, Note_on_c, 3, 38, 93
5, 3648, Note_off_c, 3, 38, 0
5, 3648, Note_on_c, 3, 43, 93
5, 3714, Note_off_c, 3, 43, 0
5, 3714, Note_on_c, 3, 45, 93
5, 3744, Note_off_c, 3, 45, 0
5, 3744, Note_on_c, 3, 46, 93
5, 3906, Note_off_c, 3, 46, 0
5, 3906, Note_on_c, 3, 46, 93
5, 3936, Note_off_c, 3, 46, 0
5, 3936, Note_on_c, 3, 45, 93
5, 4002, Note_off_c, 3, 45, 0
5, 4002, Note_on_c, 3, 43, 93
5, 4032, Note_off_c, 3, 43, 0
5, 4032, Note_on_c, 3, 41, 93
5, 4128, Note_off_c, 3, 41, 0
5, 4128, Note_on_c, 3, 40, 93
5, 4224, Note_off_c, 3, 40, 0
5, 4224, Note_on_c, 3, 38, 93
5, 4290, Note_off_c, 3, 38, 0
5, 4290, Note_on_c, 3, 50, 93
5, 4320, Note_off_c, 3, 50, 0
5, 4320, Note_on_c, 3, 52, 93
5, 4386, Note_off_c, 3, 52, 0
5, 4386, Note_on_c, 3, 53, 93
5, 4416, Note_off_c, 3, 53, 0
5, 4416, Note_on_c, 3, 55, 93
5, 4482, Note_off_c, 3, 55, 0
5, 4482, Note_on_c, 3, 58, 93
5, 4512, Note_off_c, 3, 58, 0
5, 4512, Note_on_c, 3, 57, 93
5, 4578, Note_off_c, 3, 57, 0
5, 4578, Note_on_c, 3, 55, 93
5, 4608, Note_off_c, 3, 55, 0
5, 4608, Note_on_c, 3, 53, 93
5, 4674, Note_off_c, 3, 53, 0
5, 4674, Note_on_c, 3, 55, 93
5, 4704, Note_off_c, 3, 55, 0
5, 4704, Note_on_c, 3, 53, 93
5, 4770, Note_off_c, 3, 53, 0
5, 4770, Note_on_c, 3, 52, 93
5, 4800, Note_off_c, 3, 52, 0
5, 4800, Note_on_c, 3, 50, 93
5, 4866, Note_off_c, 3, 50, 0
5, 4866, Note_on_c, 3, 52, 93
5, 4896, Note_off_c, 3, 52, 0
5, 4896, Note_on_c, 3, 53, 93
5, 4962, Note_off_c, 3, 53, 0
5, 4962, Note_on_c, 3, 55, 93
5, 4992, Note_off_c, 3, 55, 0
5, 4992, Note_on_c, 3, 57, 93
5, 5184, Note_off_c, 3, 57, 0
5, 5184, Note_on_c, 3, 53, 93
5, 5442, Note_off_c, 3, 53, 0
5, 5442, Note_on_c, 3, 53, 93
5, 5472, Note_off_c, 3, 53, 0
5, 5472, Note_on_c, 3, 52, 93
5, 5538, Note_off_c, 3, 52, 0
5, 5538, Note_on_c, 3, 50, 93
5, 5568, Note_off_c, 3, 50, 0
5, 5568, Note_on_c, 3, 48, 93
5, 5664, Note_off_c, 3, 48, 0
5, 5664, Note_on_c, 3, 47, 93
5, 5760, Note_off_c, 3, 47, 0
5, 5826, Note_on_c, 3, 45, 93
5, 5856, Note_off_c, 3, 45, 0
5, 5856, Note_on_c, 3, 47, 93
5, 5922, Note_off_c, 3, 47, 0
5, 5922, Note_on_c, 3, 48, 93
5, 5952, Note_off_c, 3, 48, 0
5, 5952, Note_on_c, 3, 50, 93
5, 6048, Note_off_c, 3, 50, 0
5, 6048, Note_on_c, 3, 52, 93
5, 6144, Note_off_c, 3, 52, 0
5, 6144, Note_on_c, 3, 53, 93
5, 6402, Note_off_c, 3, 53, 0
5, 6402, Note_on_c, 3, 52, 93
5, 6432, Note_off_c, 3, 52, 0
5, 6432, Note_on_c, 3, 50, 93
5, 6498, Note_off_c, 3, 50, 0
5, 6498, Note_on_c, 3, 49, 93
5, 6528, Note_off_c, 3, 49, 0
5, 6528, Note_on_c, 3, 50, 93
5, 6720, Note_off_c, 3, 50, 0
5, 6720, Note_on_c, 3, 50, 93
5, 6786, Note_off_c, 3, 50, 0
5, 6786, Note_on_c, 3, 48, 93
5, 6816, Note_off_c, 3, 48, 0
5, 6816, Note_on_c, 3, 46, 93
5, 6882, Note_off_c, 3, 46, 0
5, 6882, Note_on_c, 3, 45, 93
5, 6912, Note_off_c, 3, 45, 0
5, 6912, Note_on_c, 3, 46, 93
5, 7170, Note_off_c, 3, 46, 0
5, 7170, Note_on_c, 3, 45, 93
5, 7200, Note_off_c, 3, 45, 0
5, 7200, Note_on_c, 3, 43, 93
5, 7266, Note_off_c, 3, 43, 0
5, 7266, Note_on_c, 3, 42, 93
5, 7296, Note_off_c, 3, 42, 0
5, 7296, Note_on_c, 3, 43, 93
5, 7650, Note_off_c, 3, 43, 0
5, 7650, Note_on_c, 3, 41, 93
5, 7680, Note_off_c, 3, 41, 0
5, 7680, Note_on_c, 3, 40, 93
5, 8256, Note_off_c, 3, 40, 0
5, 8256, Note_on_c, 3, 52, 93
5, 8448, Note_off_c, 3, 52, 0
5, 8448, Note_on_c, 3, 45, 93
5, 8544, Note_off_c, 3, 45, 0
5, 8898, Note_on_c, 3, 50, 93
5, 8928, Note_off_c, 3, 50, 0
5, 8928, Note_on_c, 3, 52, 93
5, 8994, Note_off_c, 3, 52, 0
5, 8994, Note_on_c, 3, 53, 93
5, 9024, Note_off_c, 3, 53, 0
5, 9024, Note_on_c, 3, 55, 93
5, 9090, Note_off_c, 3, 55, 0
5, 9090, Note_on_c, 3, 57, 93
5, 9120, Note_off_c, 3, 57, 0
5, 9120, Note_on_c, 3, 55, 93
5, 9186, Note_off_c, 3, 55, 0
5, 9186, Note_on_c, 3, 53, 93
5, 9216, Note_off_c, 3, 53, 0
5, 9216, Note_on_c, 3, 52, 93
5, 9282, Note_off_c, 3, 52, 0
5, 9282, Note_on_c, 3, 58, 93
5, 9312, Note_off_c, 3, 58, 0
5, 9312, Note_on_c, 3, 57, 93
5, 9378, Note_off_c, 3, 57, 0
5, 9378, Note_on_c, 3, 55, 93
5, 9408, Note_off_c, 3, 55, 0
5, 9408, Note_on_c, 3, 53, 93
5, 9474, Note_off_c, 3, 53, 0
5, 9474, Note_on_c, 3, 52, 93
5, 9504, Note_off_c, 3, 52, 0
5, 9504, Note_on_c, 3, 50, 93
5, 9570, Note_off_c, 3, 50, 0
5, 9570, Note_on_c, 3, 49, 93
5, 9600, Note_off_c, 3, 49, 0
5, 9600, Note_on_c, 3, 50, 93
5, 9696, Note_off_c, 3, 50, 0
5, 9696, Note_on_c, 3, 53, 93
5, 9792, Note_off_c, 3, 53, 0
5, 9792, Note_on_c, 3, 47, 93
5, 9888, Note_off_c, 3, 47, 0
5, 9888, Note_on_c, 3, 52, 93
5, 9984, Note_off_c, 3, 52, 0
5, 9984, Note_on_c, 3, 45, 93
5, 10176, Note_off_c, 3, 45, 0
5, 10176, Note_on_c, 3, 50, 93
5, 10434, Note_off_c, 3, 50, 0
5, 10434, Note_on_c, 3, 47, 93
5, 10464, Note_off_c, 3, 47, 0
5, 10464, Note_on_c, 3, 52, 93
5, 10530, Note_off_c, 3, 52, 0
5, 10530, Note_on_c, 3, 50, 93
5, 10560, Note_off_c, 3, 50, 0
5, 10560, Note_on_c, 3, 48, 93
5, 10656, Note_off_c, 3, 48, 0
5, 10656, Note_on_c, 3, 47, 93
5, 10752, Note_off_c, 3, 47, 0
5, 10752, Note_on_c, 3, 45, 93
5, 10848, Note_off_c, 3, 45, 0
5, 11520, Note_on_c, 3, 50, 93
5, 11712, Note_off_c, 3, 50, 0
5, 11712, Note_on_c, 3, 57, 93
5, 11904, Note_off_c, 3, 57, 0
5, 11904, Note_on_c, 3, 53, 93
5, 12096, Note_off_c, 3, 53, 0
5, 12096, Note_on_c, 3, 50, 93
5, 12288, Note_off_c, 3, 50, 0
5, 12288, Note_on_c, 3, 49, 93
5, 12480, Note_off_c, 3, 49, 0
5, 12480, Note_on_c, 3, 50, 93
5, 12576, Note_off_c, 3, 50, 0
5, 12576, Note_on_c, 3, 52, 93
5, 12672, Note_off_c, 3, 52, 0
5, 12672, Note_on_c, 3, 53, 93
5, 12930, Note_off_c, 3, 53, 0
5, 12930, Note_on_c, 3, 55, 93
5, 12960, Note_off_c, 3, 55, 0
5, 12960, Note_on_c, 3, 53, 93
5, 13026, Note_off_c, 3, 53, 0
5, 13026, Note_on_c, 3, 52, 93
5, 13056, Note_off_c, 3, 52, 0
5, 13056, Note_on_c, 3, 50, 93
5, 13152, Note_off_c, 3, 50, 0
5, 13536, Note_on_c, 3, 55, 93
5, 13698, Note_off_c, 3, 55, 0
5, 13698, Note_on_c, 3, 53, 93
5, 13728, Note_off_c, 3, 53, 0
5, 13728, Note_on_c, 3, 52, 93
5, 13794, Note_off_c, 3, 52, 0
5, 13794, Note_on_c, 3, 50, 93
5, 13824, Note_off_c, 3, 50, 0
5, 13824, Note_on_c, 3, 52, 93
5, 14016, Note_off_c, 3, 52, 0
5, 15042, Note_on_c, 3, 53, 93
5, 15072, Note_off_c, 3, 53, 0
5, 15072, Note_on_c, 3, 52, 93
5, 15138, Note_off_c, 3, 52, 0
5, 15138, Note_on_c, 3, 50, 93
5, 15168, Note_off_c, 3, 50, 0
5, 15168, Note_on_c, 3, 48, 93
5, 15264, Note_off_c, 3, 48, 0
5, 15264, Note_on_c, 3, 53, 93
5, 15456, Note_off_c, 3, 53, 0
5, 15456, Note_on_c, 3, 54, 93
5, 15648, Note_off_c, 3, 54, 0
5, 15648, Note_on_c, 3, 56, 93
5, 15744, Note_off_c, 3, 56, 0
5, 15744, Note_on_c, 3, 57, 93
5, 15936, Note_off_c, 3, 57, 0
5, 19266, Note_on_c, 3, 51, 93
5, 19296, Note_off_c, 3, 51, 0
5, 19296, Note_on_c, 3, 50, 93
5, 19362, Note_off_c, 3, 50, 0
5, 19362, Note_on_c, 3, 48, 93
5, 19392, Note_off_c, 3, 48, 0
5, 19392, Note_on_c, 3, 46, 93
5, 19458, Note_off_c, 3, 46, 0
5, 19458, Note_on_c, 3, 45, 93
5, 19488, Note_off_c, 3, 45, 0
5, 19488, Note_on_c, 3, 43, 93
5, 19554, Note_off_c, 3, 43, 0
5, 19554, Note_on_c, 3, 42, 93
5, 19584, Note_off_c, 3, 42, 0
5, 19584, Note_on_c, 3, 43, 93
5, 19650, Note_off_c, 3, 43, 0
5, 19650, Note_on_c, 3, 55, 93
5, 19680, Note_off_c, 3, 55, 0
5, 19680, Note_on_c, 3, 54, 93
5, 19746, Note_off_c, 3, 54, 0
5, 19746, Note_on_c, 3, 55, 93
5, 19776, Note_off_c, 3, 55, 0
5, 19776, Note_on_c, 3, 48, 93
5, 20160, Note_off_c, 3, 48, 0
5, 20160, Note_on_c, 3, 53, 93
5, 20352, Note_off_c, 3, 53, 0
5, 20352, Note_on_c, 3, 50, 93
5, 20544, Note_off_c, 3, 50, 0
5, 20544, Note_on_c, 3, 46, 93
5, 20736, Note_off_c, 3, 46, 0
5, 20736, Note_on_c, 3, 45, 93
5, 20928, Note_off_c, 3, 45, 0
5, 20928, Note_on_c, 3, 46, 93
5, 21024, Note_off_c, 3, 46, 0
5, 21024, Note_on_c, 3, 48, 93
5, 21120, Note_off_c, 3, 48, 0
5, 21120, Note_on_c, 3, 50, 93
5, 21378, Note_off_c, 3, 50, 0
5, 21378, Note_on_c, 3, 51, 93
5, 21408, Note_off_c, 3, 51, 0
5, 21408, Note_on_c, 3, 50, 93
5, 21474, Note_off_c, 3, 50, 0
5, 21474, Note_on_c, 3, 48, 93
5, 21504, Note_off_c, 3, 48, 0
5, 21504, Note_on_c, 3, 46, 93
5, 21570, Note_off_c, 3, 46, 0
5, 21570, Note_on_c, 3, 58, 93
5, 21600, Note_off_c, 3, 58, 0
5, 21600, Note_on_c, 3, 57, 93
5, 21666, Note_off_c, 3, 57, 0
5, 21666, Note_on_c, 3, 58, 93
5, 21696, Note_off_c, 3, 58, 0
5, 21696, Note_on_c, 3, 52, 93
5, 21792, Note_off_c, 3, 52, 0
5, 21792, Note_on_c, 3, 54, 93
5, 21888, Note_off_c, 3, 54, 0
5, 21888, Note_on_c, 3, 55, 93
5, 22146, Note_off_c, 3, 55, 0
5, 22146, Note_on_c, 3, 53, 93
5, 22176, Note_off_c, 3, 53, 0
5, 22176, Note_on_c, 3, 52, 93
5, 22242, Note_off_c, 3, 52, 0
5, 22242, Note_on_c, 3, 50, 93
5, 22272, Note_off_c, 3, 50, 0
5, 22272, Note_on_c, 3, 58, 93
5, 22656, Note_off_c, 3, 58, 0
5, 22656, Note_on_c, 3, 57, 93
5, 22752, Note_off_c, 3, 57, 0
5, 23040, Note_on_c, 3, 50, 93
5, 23232, Note_off_c, 3, 50, 0
5, 23232, Note_on_c, 3, 57, 93
5, 23424, Note_off_c, 3, 57, 0
5, 23424, Note_on_c, 3, 53, 93
5, 23616, Note_off_c, 3, 53, 0
5, 23616, Note_on_c, 3, 50, 93
5, 23808, Note_off_c, 3, 50, 0
5, 23808, Note_on_c, 3, 49, 93
5, 24000, Note_off_c, 3, 49, 0
5, 24000, Note_on_c, 3, 50, 93
5, 24096, Note_off_c, 3, 50, 0
5, 24096, Note_on_c, 3, 52, 93
5, 24192, Note_off_c, 3, 52, 0
5, 24192, Note_on_c, 3, 53, 93
5, 24450, Note_off_c, 3, 53, 0
5, 24450, Note_on_c, 3, 55, 93
5, 24480, Note_off_c, 3, 55, 0
5, 24480, Note_on_c, 3, 53, 93
5, 24546, Note_off_c, 3, 53, 0
5, 24546, Note_on_c, 3, 52, 93
5, 24576, Note_off_c, 3, 52, 0
5, 24576, Note_on_c, 3, 50, 93
5, 24834, Note_off_c, 3, 50, 0
5, 24834, Note_on_c, 3, 51, 93
5, 24864, Note_off_c, 3, 51, 0
5, 24864, Note_on_c, 3, 50, 93
5, 24930, Note_off_c, 3, 50, 0
5, 24930, Note_on_c, 3, 48, 93
5, 24960, Note_off_c, 3, 48, 0
5, 24960, Note_on_c, 3, 46, 93
5, 25218, Note_off_c, 3, 46, 0
5, 25218, Note_on_c, 3, 48, 93
5, 25248, Note_off_c, 3, 48, 0
5, 25248, Note_on_c, 3, 46, 93
5, 25314, Note_off_c, 3, 46, 0
5, 25314, Note_on_c, 3, 45, 93
5, 25344, Note_off_c, 3, 45, 0
5, 25344, Note_on_c, 3, 43, 93
5, 25410, Note_off_c, 3, 43, 0
5, 25410, Note_on_c, 3, 50, 93
5, 25440, Note_off_c, 3, 50, 0
5, 25440, Note_on_c, 3, 52, 93
5, 25506, Note_off_c, 3, 52, 0
5, 25506, Note_on_c, 3, 54, 93
5, 25536, Note_off_c, 3, 54, 0
5, 25536, Note_on_c, 3, 55, 93
5, 25602, Note_off_c, 3, 55, 0
5, 25602, Note_on_c, 3, 57, 93
5, 25632, Note_off_c, 3, 57, 0
5, 25632, Note_on_c, 3, 55, 93
5, 25698, Note_off_c, 3, 55, 0
5, 25698, Note_on_c, 3, 53, 93
5, 25728, Note_off_c, 3, 53, 0
5, 25728, Note_on_c, 3, 52, 93
5, 25824, Note_off_c, 3, 52, 0
5, 25824, Note_on_c, 3, 57, 93
5, 25920, Note_off_c, 3, 57, 0
5, 25920, Note_on_c, 3, 50, 93
5, 26016, Note_off_c, 3, 50, 0
5, 26016, Note_on_c, 3, 55, 93
5, 26112, Note_off_c, 3, 55, 0
5, 26112, Note_on_c, 3, 49, 93
5, 26304, Note_off_c, 3, 49, 0
5, 26304, Note_on_c, 3, 50, 93
5, 26496, Note_off_c, 3, 50, 0
5, 26496, Note_on_c, 3, 52, 93
5, 26688, Note_off_c, 3, 52, 0
5, 26688, Note_on_c, 3, 53, 93
5, 26880, Note_off_c, 3, 53, 0
5, 26880, Note_on_c, 3, 47, 93
5, 27072, Note_off_c, 3, 47, 0
5, 27072, Note_on_c, 3, 48, 93
5, 27360, Note_off_c, 3, 48, 0
5, 27360, Note_on_c, 3, 50, 93
5, 27456, Note_off_c, 3, 50, 0
5, 27456, Note_on_c, 3, 52, 93
5, 27648, Note_off_c, 3, 52, 0
5, 27648, Note_on_c, 3, 53, 93
5, 27744, Note_off_c, 3, 53, 0
5, 27744, Note_on_c, 3, 50, 93
5, 27840, Note_off_c, 3, 50, 0
5, 27840, Note_on_c, 3, 55, 93
5, 28128, Note_off_c, 3, 55, 0
5, 28128, Note_on_c, 3, 49, 93
5, 28224, Note_off_c, 3, 49, 0
5, 28224, Note_on_c, 3, 50, 93
5, 28320, Note_off_c, 3, 50, 0
5, 28320, Note_on_c, 3, 45, 93
5, 28416, Note_off_c, 3, 45, 0
5, 28416, Note_on_c, 3, 46, 93
5, 28704, Note_off_c, 3, 46, 0
5, 28704, Note_on_c, 3, 43, 93
5, 28800, Note_off_c, 3, 43, 0
5, 28800, Note_on_c, 3, 45, 93
5, 29826, Note_off_c, 3, 45, 0
5, 29826, Note_on_c, 3, 46, 93
5, 29856, Note_off_c, 3, 46, 0
5, 29856, Note_on_c, 3, 45, 93
5, 29922, Note_off_c, 3, 45, 0
5, 29922, Note_on_c, 3, 43, 93
5, 30018, Note_off_c, 3, 43, 0
5, 30018, Note_on_c, 3, 45, 93
5, 30048, Note_off_c, 3, 45, 0
5, 30048, Note_on_c, 3, 43, 93
5, 30114, Note_off_c, 3, 43, 0
5, 30114, Note_on_c, 3, 41, 93
5, 30210, Note_off_c, 3, 41, 0
5, 30210, Note_on_c, 3, 43, 93
5, 30240, Note_off_c, 3, 43, 0
5, 30240, Note_on_c, 3, 41, 93
5, 30306, Note_off_c, 3, 41, 0
5, 30306, Note_on_c, 3, 40, 93
5, 30336, Note_off_c, 3, 40, 0
5, 30336, Note_on_c, 3, 38, 93
5, 30432, Note_off_c, 3, 38, 0
5, 30594, Note_on_c, 3, 40, 93
5, 30624, Note_off_c, 3, 40, 0
5, 30624, Note_on_c, 3, 41, 93
5, 30690, Note_off_c, 3, 41, 0
5, 30690, Note_on_c, 3, 43, 93
5, 30720, Note_off_c, 3, 43, 0
5, 30720, Note_on_c, 3, 45, 93
5, 30912, Note_off_c, 3, 45, 0
5, 30978, Note_on_c, 3, 46, 93
5, 31008, Note_off_c, 3, 46, 0
5, 31008, Note_on_c, 3, 45, 93
5, 31074, Note_off_c, 3, 45, 0
5, 31074, Note_on_c, 3, 43, 93
5, 31104, Note_off_c, 3, 43, 0
5, 31104, Note_on_c, 3, 45, 93
5, 31170, Note_off_c, 3, 45, 0
5, 31170, Note_on_c, 3, 41, 93
5, 31200, Note_off_c, 3, 41, 0
5, 31200, Note_on_c, 3, 40, 93
5, 31266, Note_off_c, 3, 40, 0
5, 31266, Note_on_c, 3, 38, 93
5, 31296, Note_off_c, 3, 38, 0
5, 31296, Note_on_c, 3, 43, 93
5, 31392, Note_off_c, 3, 43, 0
5, 31392, Note_on_c, 3, 45, 93
5, 31488, Note_off_c, 3, 45, 0
5, 31488, Note_on_c, 3, 46, 93
5, 31554, Note_off_c, 3, 46, 0
5, 31554, Note_on_c, 3, 48, 93
5, 31584, Note_off_c, 3, 48, 0
5, 31584, Note_on_c, 3, 46, 93
5, 31650, Note_off_c, 3, 46, 0
5, 31650, Note_on_c, 3, 45, 93
5, 31680, Note_off_c, 3, 45, 0
5, 31680, Note_on_c, 3, 43, 93
5, 31746, Note_off_c, 3, 43, 0
5, 31746, Note_on_c, 3, 45, 93
5, 31776, Note_off_c, 3, 45, 0
5, 31776, Note_on_c, 3, 46, 93
5, 31842, Note_off_c, 3, 46, 0
5, 31842, Note_on_c, 3, 43, 93
5, 31872, Note_off_c, 3, 43, 0
5, 31872, Note_on_c, 3, 50, 93
5, 32064, Note_off_c, 3, 50, 0
5, 32064, Note_on_c, 3, 38, 93
5, 32256, Note_off_c, 3, 38, 0
5, 32256, End_track
0, 0, End_of_file
