0, 0, Header, 1, 4, 96
1, 0, Start_track
1, 0, Time_signature, 4, 2, 24, 8
1, 0, Title_t, "untitled"
1, 0, Title_t, "Track1"
1, 0, Tempo, 1200000
1, 0, End_track
2, 0, Start_track
2, 0, Title_t, "Track2"
2, 0, Program_c, 0, 6
2, 0, Control_c, 0, 7, 100
2, 0, Control_c, 0, 10, 74
2, 0, Note_on_c, 0, 71, 93
2, 12, Note_off_c, 0, 71, 0
2, 12, Note_on_c, 0, 72, 93
2, 24, Note_off_c, 0, 72, 0
2, 24, Note_on_c, 0, 71, 93
2, 36, Note_off_c, 0, 71, 0
2, 36, Note_on_c, 0, 69, 93
2, 48, Note_off_c, 0, 69, 0
2, 48, Note_on_c, 0, 71, 93
2, 108, Note_off_c, 0, 71, 0
2, 108, Note_on_c, 0, 66, 93
2, 120, Note_off_c, 0, 66, 0
2, 120, Note_on_c, 0, 67, 93
2, 132, Note_off_c, 0, 67, 0
2, 132, Note_on_c, 0, 69, 93
2, 144, Note_off_c, 0, 69, 0
2, 144, Note_on_c, 0, 71, 93
2, 168, Note_off_c, 0, 71, 0
2, 168, Note_on_c, 0, 72, 93
2, 192, Note_off_c, 0, 72, 0
2, 192, Note_on_c, 0, 74, 93
2, 198, Note_off_c, 0, 74, 0
2, 198, Note_on_c, 0, 72, 93
2, 216, Note_off_c, 0, 72, 0
2, 216, Note_on_c, 0, 71, 93
2, 240, Note_off_c, 0, 71, 0
2, 240, Note_on_c, 0, 69, 93
2, 264, Note_off_c, 0, 69, 0
2, 264, Note_on_c, 0, 67, 93
2, 288, Note_off_c, 0, 67, 0
2, 288, Note_on_c, 0, 74, 93
2, 300, Note_off_c, 0, 74, 0
2, 300, Note_on_c, 0, 76, 93
2, 312, Note_off_c, 0, 76, 0
2, 312, Note_on_c, 0, 74, 93
2, 324, Note_off_c, 0, 74, 0
2, 324, Note_on_c, 0, 73, 93
2, 336, Note_off_c, 0, 73, 0
2, 336, Note_on_c, 0, 74, 93
2, 396, Note_off_c, 0, 74, 0
2, 396, Note_on_c, 0, 73, 93
2, 408, Note_off_c, 0, 73, 0
2, 408, Note_on_c, 0, 74, 93
2, 420, Note_off_c, 0, 74, 0
2, 420, Note_on_c, 0, 76, 93
2, 432, Note_off_c, 0, 76, 0
2, 432, Note_on_c, 0, 78, 93
2, 456, Note_off_c, 0, 78, 0
2, 456, Note_on_c, 0, 79, 93
2, 480, Note_off_c, 0, 79, 0
2, 480, Note_on_c, 0, 81, 93
2, 486, Note_off_c, 0, 81, 0
2, 486, Note_on_c, 0, 79, 93
2, 504, Note_off_c, 0, 79, 0
2, 504, Note_on_c, 0, 78, 93
2, 528, Note_off_c, 0, 78, 0
2, 528, Note_on_c, 0, 76, 93
2, 552, Note_off_c, 0, 76, 0
2, 552, Note_on_c, 0, 74, 93
2, 576, Note_off_c, 0, 74, 0
2, 576, Note_on_c, 0, 79, 93
2, 588, Note_off_c, 0, 79, 0
2, 588, Note_on_c, 0, 81, 93
2, 600, Note_off_c, 0, 81, 0
2, 600, Note_on_c, 0, 79, 93
2, 612, Note_off_c, 0, 79, 0
2, 612, Note_on_c, 0, 78, 93
2, 624, Note_off_c, 0, 78, 0
2, 624, Note_on_c, 0, 79, 93
2, 684, Note_off_c, 0, 79, 0
2, 684, Note_on_c, 0, 78, 93
2, 696, Note_off_c, 0, 78, 0
2, 696, Note_on_c, 0, 76, 93
2, 708, Note_off_c, 0, 76, 0
2, 708, Note_on_c, 0, 78, 93
2, 720, Note_off_c, 0, 78, 0
2, 720, Note_on_c, 0, 79, 93
2, 744, Note_off_c, 0, 79, 0
2, 744, Note_on_c, 0, 76, 93
2, 768, Note_off_c, 0, 76, 0
2, 768, Note_on_c, 0, 69, 93
2, 792, Note_off_c, 0, 69, 0
2, 792, Note_on_c, 0, 83, 93
2, 816, Note_off_c, 0, 83, 0
2, 816, Note_on_c, 0, 81, 93
2, 840, Note_off_c, 0, 81, 0
2, 840, Note_on_c, 0, 79, 93
2, 864, Note_off_c, 0, 79, 0
2, 864, Note_on_c, 0, 78, 93
2, 876, Note_off_c, 0, 78, 0
2, 876, Note_on_c, 0, 76, 93
2, 888, Note_off_c, 0, 76, 0
2, 888, Note_on_c, 0, 78, 93
2, 900, Note_off_c, 0, 78, 0
2, 900, Note_on_c, 0, 76, 93
2, 912, Note_off_c, 0, 76, 0
2, 912, Note_on_c, 0, 74, 93
2, 972, Note_off_c, 0, 74, 0
2, 972, Note_on_c, 0, 73, 93
2, 984, Note_off_c, 0, 73, 0
2, 984, Note_on_c, 0, 74, 93
2, 996, Note_off_c, 0, 74, 0
2, 996, Note_on_c, 0, 76, 93
2, 1008, Note_off_c, 0, 76, 0
2, 1008, Note_on_c, 0, 78, 93
2, 1032, Note_off_c, 0, 78, 0
2, 1032, Note_on_c, 0, 79, 93
2, 1056, Note_off_c, 0, 79, 0
2, 1056, Note_on_c, 0, 81, 93
2, 1080, Note_off_c, 0, 81, 0
2, 1080, Note_on_c, 0, 83, 93
2, 1092, Note_off_c, 0, 83, 0
2, 1092, Note_on_c, 0, 84, 93
2, 1104, Note_off_c, 0, 84, 0
2, 1104, Note_on_c, 0, 83, 93
2, 1128, Note_off_c, 0, 83, 0
2, 1128, Note_on_c, 0, 81, 93
2, 1152, Note_off_c, 0, 81, 0
2, 1152, Note_on_c, 0, 79, 93
2, 1164, Note_off_c, 0, 79, 0
2, 1164, Note_on_c, 0, 77, 93
2, 1176, Note_off_c, 0, 77, 0
2, 1176, Note_on_c, 0, 76, 93
2, 1200, Note_off_c, 0, 76, 0
2, 1200, Note_on_c, 0, 77, 93
2, 1206, Note_off_c, 0, 77, 0
2, 1206, Note_on_c, 0, 76, 93
2, 1212, Note_off_c, 0, 76, 0
2, 1212, Note_on_c, 0, 77, 93
2, 1260, Note_off_c, 0, 77, 0
2, 1260, Note_on_c, 0, 74, 93
2, 1272, Note_off_c, 0, 74, 0
2, 1272, Note_on_c, 0, 79, 93
2, 1284, Note_off_c, 0, 79, 0
2, 1284, Note_on_c, 0, 81, 93
2, 1296, Note_off_c, 0, 81, 0
2, 1296, Note_on_c, 0, 83, 93
2, 1308, Note_off_c, 0, 83, 0
2, 1308, Note_on_c, 0, 84, 93
2, 1320, Note_off_c, 0, 84, 0
2, 1320, Note_on_c, 0, 86, 93
2, 1344, Note_off_c, 0, 86, 0
2, 1344, Note_on_c, 0, 84, 93
2, 1368, Note_off_c, 0, 84, 0
2, 1368, Note_on_c, 0, 83, 93
2, 1392, Note_off_c, 0, 83, 0
2, 1392, Note_on_c, 0, 81, 93
2, 1416, Note_off_c, 0, 81, 0
2, 1416, Note_on_c, 0, 79, 93
2, 1440, Note_off_c, 0, 79, 0
2, 1440, Note_on_c, 0, 77, 93
2, 1452, Note_off_c, 0, 77, 0
2, 1452, Note_on_c, 0, 76, 93
2, 1464, Note_off_c, 0, 76, 0
2, 1464, Note_on_c, 0, 74, 93
2, 1488, Note_off_c, 0, 74, 0
2, 1488, Note_on_c, 0, 74, 93
2, 1500, Note_off_c, 0, 74, 0
2, 1500, Note_on_c, 0, 76, 93
2, 1548, Note_off_c, 0, 76, 0
2, 1548, Note_on_c, 0, 74, 93
2, 1560, Note_off_c, 0, 74, 0
2, 1560, Note_on_c, 0, 72, 93
2, 1572, Note_off_c, 0, 72, 0
2, 1572, Note_on_c, 0, 71, 93
2, 1584, Note_off_c, 0, 71, 0
2, 1584, Note_on_c, 0, 72, 93
2, 1596, Note_off_c, 0, 72, 0
2, 1596, Note_on_c, 0, 74, 93
2, 1608, Note_off_c, 0, 74, 0
2, 1608, Note_on_c, 0, 76, 93
2, 1632, Note_off_c, 0, 76, 0
2, 1632, Note_on_c, 0, 74, 93
2, 1656, Note_off_c, 0, 74, 0
2, 1656, Note_on_c, 0, 79, 93
2, 1680, Note_off_c, 0, 79, 0
2, 1680, Note_on_c, 0, 76, 93
2, 1704, Note_off_c, 0, 76, 0
2, 1704, Note_on_c, 0, 72, 93
2, 1728, Note_off_c, 0, 72, 0
2, 1728, Note_on_c, 0, 71, 93
2, 1740, Note_off_c, 0, 71, 0
2, 1740, Note_on_c, 0, 69, 93
2, 1752, Note_off_c, 0, 69, 0
2, 1752, Note_on_c, 0, 67, 93
2, 1776, Note_off_c, 0, 67, 0
2, 1776, Note_on_c, 0, 69, 93
2, 1836, Note_off_c, 0, 69, 0
2, 1836, Note_on_c, 0, 67, 93
2, 1848, Note_off_c, 0, 67, 0
2, 1848, Note_on_c, 0, 69, 93
2, 1860, Note_off_c, 0, 69, 0
2, 1860, Note_on_c, 0, 71, 93
2, 1872, Note_off_c, 0, 71, 0
2, 1872, Note_on_c, 0, 72, 93
2, 1884, Note_off_c, 0, 72, 0
2, 1884, Note_on_c, 0, 66, 93
2, 1896, Note_off_c, 0, 66, 0
2, 1896, Note_on_c, 0, 67, 93
2, 1908, Note_off_c, 0, 67, 0
2, 1908, Note_on_c, 0, 69, 93
2, 1920, Note_off_c, 0, 69, 0
2, 1920, Note_on_c, 0, 62, 93
2, 1932, Note_off_c, 0, 62, 0
2, 1932, Note_on_c, 0, 66, 93
2, 1944, Note_off_c, 0, 66, 0
2, 1944, Note_on_c, 0, 64, 93
2, 1956, Note_off_c, 0, 64, 0
2, 1956, Note_on_c, 0, 62, 93
2, 1968, Note_off_c, 0, 62, 0
2, 1968, Note_on_c, 0, 69, 93
2, 1980, Note_off_c, 0, 69, 0
2, 1980, Note_on_c, 0, 67, 93
2, 1992, Note_off_c, 0, 67, 0
2, 1992, Note_on_c, 0, 66, 93
2, 2004, Note_off_c, 0, 66, 0
2, 2004, Note_on_c, 0, 72, 93
2, 2016, Note_off_c, 0, 72, 0
2, 2016, Note_on_c, 0, 72, 93
2, 2028, Note_off_c, 0, 72, 0
2, 2028, Note_on_c, 0, 71, 93
2, 2040, Note_off_c, 0, 71, 0
2, 2040, Note_on_c, 0, 69, 93
2, 2064, Note_off_c, 0, 69, 0
2, 2064, Note_on_c, 0, 71, 93
2, 2124, Note_off_c, 0, 71, 0
2, 2124, Note_on_c, 0, 69, 93
2, 2136, Note_off_c, 0, 69, 0
2, 2136, Note_on_c, 0, 67, 93
2, 2148, Note_off_c, 0, 67, 0
2, 2148, Note_on_c, 0, 66, 93
2, 2160, Note_off_c, 0, 66, 0
2, 2160, Note_on_c, 0, 67, 93
2, 2172, Note_off_c, 0, 67, 0
2, 2172, Note_on_c, 0, 71, 93
2, 2184, Note_off_c, 0, 71, 0
2, 2184, Note_on_c, 0, 74, 93
2, 2196, Note_off_c, 0, 74, 0
2, 2196, Note_on_c, 0, 78, 93
2, 2208, Note_off_c, 0, 78, 0
2, 2208, Note_on_c, 0, 79, 93
2, 2220, Note_off_c, 0, 79, 0
2, 2220, Note_on_c, 0, 78, 93
2, 2232, Note_off_c, 0, 78, 0
2, 2232, Note_on_c, 0, 76, 93
2, 2244, Note_off_c, 0, 76, 0
2, 2244, Note_on_c, 0, 74, 93
2, 2256, Note_off_c, 0, 74, 0
2, 2256, Note_on_c, 0, 78, 93
2, 2268, Note_off_c, 0, 78, 0
2, 2268, Note_on_c, 0, 81, 93
2, 2280, Note_off_c, 0, 81, 0
2, 2280, Note_on_c, 0, 83, 93
2, 2292, Note_off_c, 0, 83, 0
2, 2292, Note_on_c, 0, 84, 93
2, 2304, Note_off_c, 0, 84, 0
2, 2304, Note_on_c, 0, 83, 93
2, 2316, Note_off_c, 0, 83, 0
2, 2316, Note_on_c, 0, 81, 93
2, 2328, Note_off_c, 0, 81, 0
2, 2328, Note_on_c, 0, 79, 93
2, 2364, Note_off_c, 0, 79, 0
2, 2364, Note_on_c, 0, 78, 93
2, 2376, Note_off_c, 0, 78, 0
2, 2376, Note_on_c, 0, 76, 93
2, 2412, Note_off_c, 0, 76, 0
2, 2412, Note_on_c, 0, 75, 93
2, 2424, Note_off_c, 0, 75, 0
2, 2424, Note_on_c, 0, 76, 93
2, 2460, Note_off_c, 0, 76, 0
2, 2460, Note_on_c, 0, 78, 93
2, 2472, Note_off_c, 0, 78, 0
2, 2472, Note_on_c, 0, 79, 93
2, 2508, Note_off_c, 0, 79, 0
2, 2508, Note_on_c, 0, 81, 93
2, 2520, Note_off_c, 0, 81, 0
2, 2520, Note_on_c, 0, 83, 93
2, 2556, Note_off_c, 0, 83, 0
2, 2556, Note_on_c, 0, 79, 93
2, 2568, Note_off_c, 0, 79, 0
2, 2568, Note_on_c, 0, 78, 93
2, 2580, Note_off_c, 0, 78, 0
2, 2580, Note_on_c, 0, 76, 93
2, 2592, Note_off_c, 0, 76, 0
2, 2592, Note_on_c, 0, 81, 93
2, 2604, Note_off_c, 0, 81, 0
2, 2604, Note_on_c, 0, 79, 93
2, 2616, Note_off_c, 0, 79, 0
2, 2616, Note_on_c, 0, 78, 93
2, 2652, Note_off_c, 0, 78, 0
2, 2652, Note_on_c, 0, 76, 93
2, 2664, Note_off_c, 0, 76, 0
2, 2664, Note_on_c, 0, 74, 93
2, 2700, Note_off_c, 0, 74, 0
2, 2700, Note_on_c, 0, 73, 93
2, 2712, Note_off_c, 0, 73, 0
2, 2712, Note_on_c, 0, 74, 93
2, 2748, Note_off_c, 0, 74, 0
2, 2748, Note_on_c, 0, 76, 93
2, 2760, Note_off_c, 0, 76, 0
2, 2760, Note_on_c, 0, 78, 93
2, 2796, Note_off_c, 0, 78, 0
2, 2796, Note_on_c, 0, 79, 93
2, 2808, Note_off_c, 0, 79, 0
2, 2808, Note_on_c, 0, 81, 93
2, 2844, Note_off_c, 0, 81, 0
2, 2844, Note_on_c, 0, 78, 93
2, 2856, Note_off_c, 0, 78, 0
2, 2856, Note_on_c, 0, 76, 93
2, 2868, Note_off_c, 0, 76, 0
2, 2868, Note_on_c, 0, 74, 93
2, 2880, Note_off_c, 0, 74, 0
2, 2880, Note_on_c, 0, 79, 93
2, 2892, Note_off_c, 0, 79, 0
2, 2892, Note_on_c, 0, 81, 93
2, 2904, Note_off_c, 0, 81, 0
2, 2904, Note_on_c, 0, 83, 93
2, 2916, Note_off_c, 0, 83, 0
2, 2916, Note_on_c, 0, 81, 93
2, 2928, Note_off_c, 0, 81, 0
2, 2928, Note_on_c, 0, 79, 93
2, 2952, Note_off_c, 0, 79, 0
2, 2952, Note_on_c, 0, 78, 93
2, 2976, Note_off_c, 0, 78, 0
2, 2976, Note_on_c, 0, 76, 93
2, 2988, Note_off_c, 0, 76, 0
2, 2988, Note_on_c, 0, 78, 93
2, 3000, Note_off_c, 0, 78, 0
2, 3000, Note_on_c, 0, 79, 93
2, 3012, Note_off_c, 0, 79, 0
2, 3012, Note_on_c, 0, 78, 93
2, 3024, Note_off_c, 0, 78, 0
2, 3024, Note_on_c, 0, 76, 93
2, 3048, Note_off_c, 0, 76, 0
2, 3048, Note_on_c, 0, 74, 93
2, 3072, Note_off_c, 0, 74, 0
2, 3072, Note_on_c, 0, 73, 93
2, 3084, Note_off_c, 0, 73, 0
2, 3084, Note_on_c, 0, 74, 93
2, 3096, Note_off_c, 0, 74, 0
2, 3096, Note_on_c, 0, 76, 93
2, 3108, Note_off_c, 0, 76, 0
2, 3108, Note_on_c, 0, 74, 93
2, 3120, Note_off_c, 0, 74, 0
2, 3120, Note_on_c, 0, 73, 93
2, 3144, Note_off_c, 0, 73, 0
2, 3144, Note_on_c, 0, 71, 93
2, 3168, Note_off_c, 0, 71, 0
2, 3168, Note_on_c, 0, 71, 93
2, 3174, Note_off_c, 0, 71, 0
2, 3174, Note_on_c, 0, 69, 93
2, 3186, Note_off_c, 0, 69, 0
2, 3186, Note_on_c, 0, 71, 93
2, 3192, Note_off_c, 0, 71, 0
2, 3192, Note_on_c, 0, 69, 93
2, 3198, Note_off_c, 0, 69, 0
2, 3198, Note_on_c, 0, 71, 93
2, 3210, Note_off_c, 0, 71, 0
2, 3210, Note_on_c, 0, 69, 93
2, 3216, Note_off_c, 0, 69, 0
2, 3216, Note_on_c, 0, 71, 93
2, 3222, Note_off_c, 0, 71, 0
2, 3222, Note_on_c, 0, 69, 93
2, 3234, Note_off_c, 0, 69, 0
2, 3234, Note_on_c, 0, 71, 93
2, 3240, Note_off_c, 0, 71, 0
2, 3240, Note_on_c, 0, 69, 93
2, 3246, Note_off_c, 0, 69, 0
2, 3246, Note_on_c, 0, 71, 93
2, 3258, Note_off_c, 0, 71, 0
2, 3258, Note_on_c, 0, 69, 93
2, 3264, Note_off_c, 0, 69, 0
2, 3264, Note_on_c, 0, 71, 93
2, 3270, Note_off_c, 0, 71, 0
2, 3270, Note_on_c, 0, 69, 93
2, 3282, Note_off_c, 0, 69, 0
2, 3282, Note_on_c, 0, 71, 93
2, 3288, Note_off_c, 0, 71, 0
2, 3288, Note_on_c, 0, 69, 93
2, 3324, Note_off_c, 0, 69, 0
2, 3324, Note_on_c, 0, 73, 93
2, 3336, Note_off_c, 0, 73, 0
2, 3336, Note_on_c, 0, 71, 93
2, 3348, Note_off_c, 0, 71, 0
2, 3348, Note_on_c, 0, 69, 93
2, 3360, Note_off_c, 0, 69, 0
2, 3360, Note_on_c, 0, 71, 93
2, 3372, Note_off_c, 0, 71, 0
2, 3372, Note_on_c, 0, 73, 93
2, 3384, Note_off_c, 0, 73, 0
2, 3384, Note_on_c, 0, 74, 93
2, 3396, Note_off_c, 0, 74, 0
2, 3396, Note_on_c, 0, 76, 93
2, 3408, Note_off_c, 0, 76, 0
2, 3408, Note_on_c, 0, 78, 93
2, 3432, Note_off_c, 0, 78, 0
2, 3432, Note_on_c, 0, 81, 93
2, 3438, Note_off_c, 0, 81, 0
2, 3438, Note_on_c, 0, 79, 93
2, 3444, Note_off_c, 0, 79, 0
2, 3444, Note_on_c, 0, 78, 93
2, 3450, Note_off_c, 0, 78, 0
2, 3450, Note_on_c, 0, 79, 93
2, 3456, Note_off_c, 0, 79, 0
2, 3456, Note_on_c, 0, 81, 93
2, 3468, Note_off_c, 0, 81, 0
2, 3468, Note_on_c, 0, 74, 93
2, 3480, Note_off_c, 0, 74, 0
2, 3480, Note_on_c, 0, 73, 93
2, 3492, Note_off_c, 0, 73, 0
2, 3492, Note_on_c, 0, 74, 93
2, 3504, Note_off_c, 0, 74, 0
2, 3504, Note_on_c, 0, 76, 93
2, 3516, Note_off_c, 0, 76, 0
2, 3516, Note_on_c, 0, 74, 93
2, 3528, Note_off_c, 0, 74, 0
2, 3528, Note_on_c, 0, 73, 93
2, 3540, Note_off_c, 0, 73, 0
2, 3540, Note_on_c, 0, 74, 93
2, 3552, Note_off_c, 0, 74, 0
2, 3552, Note_on_c, 0, 69, 93
2, 3564, Note_off_c, 0, 69, 0
2, 3564, Note_on_c, 0, 74, 93
2, 3576, Note_off_c, 0, 74, 0
2, 3576, Note_on_c, 0, 67, 93
2, 3588, Note_off_c, 0, 67, 0
2, 3588, Note_on_c, 0, 74, 93
2, 3600, Note_off_c, 0, 74, 0
2, 3600, Note_on_c, 0, 66, 93
2, 3612, Note_off_c, 0, 66, 0
2, 3612, Note_on_c, 0, 74, 93
2, 3624, Note_off_c, 0, 74, 0
2, 3624, Note_on_c, 0, 64, 93
2, 3636, Note_off_c, 0, 64, 0
2, 3636, Note_on_c, 0, 74, 93
2, 3648, Note_off_c, 0, 74, 0
2, 3648, Note_on_c, 0, 66, 93
2, 3660, Note_off_c, 0, 66, 0
2, 3660, Note_on_c, 0, 74, 93
2, 3672, Note_off_c, 0, 74, 0
2, 3672, Note_on_c, 0, 69, 93
2, 3684, Note_off_c, 0, 69, 0
2, 3684, Note_on_c, 0, 74, 93
2, 3696, Note_off_c, 0, 74, 0
2, 3696, Note_on_c, 0, 66, 93
2, 3708, Note_off_c, 0, 66, 0
2, 3708, Note_on_c, 0, 74, 93
2, 3720, Note_off_c, 0, 74, 0
2, 3720, Note_on_c, 0, 62, 93
2, 3732, Note_off_c, 0, 62, 0
2, 3732, Note_on_c, 0, 72, 93
2, 3744, Note_off_c, 0, 72, 0
2, 3744, Note_on_c, 0, 71, 93
2, 3756, Note_off_c, 0, 71, 0
2, 3756, Note_on_c, 0, 74, 93
2, 3768, Note_off_c, 0, 74, 0
2, 3768, Note_on_c, 0, 73, 93
2, 3780, Note_off_c, 0, 73, 0
2, 3780, Note_on_c, 0, 74, 93
2, 3792, Note_off_c, 0, 74, 0
2, 3792, Note_on_c, 0, 76, 93
2, 3804, Note_off_c, 0, 76, 0
2, 3804, Note_on_c, 0, 74, 93
2, 3816, Note_off_c, 0, 74, 0
2, 3816, Note_on_c, 0, 73, 93
2, 3828, Note_off_c, 0, 73, 0
2, 3828, Note_on_c, 0, 74, 93
2, 3840, Note_off_c, 0, 74, 0
2, 3840, Note_on_c, 0, 71, 93
2, 3852, Note_off_c, 0, 71, 0
2, 3852, Note_on_c, 0, 74, 93
2, 3864, Note_off_c, 0, 74, 0
2, 3864, Note_on_c, 0, 69, 93
2, 3876, Note_off_c, 0, 69, 0
2, 3876, Note_on_c, 0, 74, 93
2, 3888, Note_off_c, 0, 74, 0
2, 3888, Note_on_c, 0, 67, 93
2, 3900, Note_off_c, 0, 67, 0
2, 3900, Note_on_c, 0, 74, 93
2, 3912, Note_off_c, 0, 74, 0
2, 3912, Note_on_c, 0, 66, 93
2, 3924, Note_off_c, 0, 66, 0
2, 3924, Note_on_c, 0, 74, 93
2, 3936, Note_off_c, 0, 74, 0
2, 3936, Note_on_c, 0, 67, 93
2, 3948, Note_off_c, 0, 67, 0
2, 3948, Note_on_c, 0, 74, 93
2, 3960, Note_off_c, 0, 74, 0
2, 3960, Note_on_c, 0, 71, 93
2, 3972, Note_off_c, 0, 71, 0
2, 3972, Note_on_c, 0, 74, 93
2, 3984, Note_off_c, 0, 74, 0
2, 3984, Note_on_c, 0, 67, 93
2, 3996, Note_off_c, 0, 67, 0
2, 3996, Note_on_c, 0, 74, 93
2, 4008, Note_off_c, 0, 74, 0
2, 4008, Note_on_c, 0, 64, 93
2, 4020, Note_off_c, 0, 64, 0
2, 4020, Note_on_c, 0, 74, 93
2, 4032, Note_off_c, 0, 74, 0
2, 4032, Note_on_c, 0, 73, 93
2, 4044, Note_off_c, 0, 73, 0
2, 4044, Note_on_c, 0, 67, 93
2, 4056, Note_off_c, 0, 67, 0
2, 4056, Note_on_c, 0, 66, 93
2, 4068, Note_off_c, 0, 66, 0
2, 4068, Note_on_c, 0, 67, 93
2, 4080, Note_off_c, 0, 67, 0
2, 4080, Note_on_c, 0, 69, 93
2, 4092, Note_off_c, 0, 69, 0
2, 4092, Note_on_c, 0, 67, 93
2, 4104, Note_off_c, 0, 67, 0
2, 4104, Note_on_c, 0, 66, 93
2, 4116, Note_off_c, 0, 66, 0
2, 4116, Note_on_c, 0, 67, 93
2, 4128, Note_off_c, 0, 67, 0
2, 4128, Note_on_c, 0, 76, 93
2, 4140, Note_off_c, 0, 76, 0
2, 4140, Note_on_c, 0, 73, 93
2, 4152, Note_off_c, 0, 73, 0
2, 4152, Note_on_c, 0, 71, 93
2, 4164, Note_off_c, 0, 71, 0
2, 4164, Note_on_c, 0, 73, 93
2, 4176, Note_off_c, 0, 73, 0
2, 4176, Note_on_c, 0, 74, 93
2, 4188, Note_off_c, 0, 74, 0
2, 4188, Note_on_c, 0, 73, 93
2, 4200, Note_off_c, 0, 73, 0
2, 4200, Note_on_c, 0, 71, 93
2, 4212, Note_off_c, 0, 71, 0
2, 4212, Note_on_c, 0, 73, 93
2, 4224, Note_off_c, 0, 73, 0
2, 4224, Note_on_c, 0, 79, 93
2, 4236, Note_off_c, 0, 79, 0
2, 4236, Note_on_c, 0, 76, 93
2, 4248, Note_off_c, 0, 76, 0
2, 4248, Note_on_c, 0, 74, 93
2, 4260, Note_off_c, 0, 74, 0
2, 4260, Note_on_c, 0, 76, 93
2, 4272, Note_off_c, 0, 76, 0
2, 4272, Note_on_c, 0, 81, 93
2, 4284, Note_off_c, 0, 81, 0
2, 4284, Note_on_c, 0, 79, 93
2, 4296, Note_off_c, 0, 79, 0
2, 4296, Note_on_c, 0, 78, 93
2, 4308, Note_off_c, 0, 78, 0
2, 4308, Note_on_c, 0, 76, 93
2, 4320, Note_off_c, 0, 76, 0
2, 4320, Note_on_c, 0, 78, 93
2, 4344, Note_off_c, 0, 78, 0
2, 4344, Note_on_c, 0, 73, 93
2, 4368, Note_off_c, 0, 73, 0
2, 4368, Note_on_c, 0, 73, 93
2, 4392, Note_off_c, 0, 73, 0
2, 4392, Note_on_c, 0, 74, 93
2, 4416, Note_off_c, 0, 74, 0
2, 4416, Note_on_c, 0, 74, 93
2, 4440, Note_off_c, 0, 74, 0
2, 4440, Note_on_c, 0, 67, 93
2, 4464, Note_off_c, 0, 67, 0
2, 4464, Note_on_c, 0, 67, 93
2, 4488, Note_off_c, 0, 67, 0
2, 4488, Note_on_c, 0, 66, 93
2, 4512, Note_off_c, 0, 66, 0
2, 4512, Note_on_c, 0, 66, 93
2, 4608, Note_off_c, 0, 66, 0
2, 4608, Note_on_c, 0, 71, 93
2, 4620, Note_off_c, 0, 71, 0
2, 4620, Note_on_c, 0, 72, 93
2, 4632, Note_off_c, 0, 72, 0
2, 4632, Note_on_c, 0, 71, 93
2, 4644, Note_off_c, 0, 71, 0
2, 4644, Note_on_c, 0, 69, 93
2, 4656, Note_off_c, 0, 69, 0
2, 4656, Note_on_c, 0, 71, 93
2, 4716, Note_off_c, 0, 71, 0
2, 4716, Note_on_c, 0, 66, 93
2, 4728, Note_off_c, 0, 66, 0
2, 4728, Note_on_c, 0, 67, 93
2, 4740, Note_off_c, 0, 67, 0
2, 4740, Note_on_c, 0, 69, 93
2, 4752, Note_off_c, 0, 69, 0
2, 4752, Note_on_c, 0, 71, 93
2, 4776, Note_off_c, 0, 71, 0
2, 4776, Note_on_c, 0, 72, 93
2, 4800, Note_off_c, 0, 72, 0
2, 4800, Note_on_c, 0, 74, 93
2, 4806, Note_off_c, 0, 74, 0
2, 4806, Note_on_c, 0, 72, 93
2, 4824, Note_off_c, 0, 72, 0
2, 4824, Note_on_c, 0, 71, 93
2, 4848, Note_off_c, 0, 71, 0
2, 4848, Note_on_c, 0, 69, 93
2, 4872, Note_off_c, 0, 69, 0
2, 4872, Note_on_c, 0, 67, 93
2, 4896, Note_off_c, 0, 67, 0
2, 4896, Note_on_c, 0, 74, 93
2, 4908, Note_off_c, 0, 74, 0
2, 4908, Note_on_c, 0, 76, 93
2, 4920, Note_off_c, 0, 76, 0
2, 4920, Note_on_c, 0, 74, 93
2, 4932, Note_off_c, 0, 74, 0
2, 4932, Note_on_c, 0, 73, 93
2, 4944, Note_off_c, 0, 73, 0
2, 4944, Note_on_c, 0, 74, 93
2, 5004, Note_off_c, 0, 74, 0
2, 5004, Note_on_c, 0, 73, 93
2, 5016, Note_off_c, 0, 73, 0
2, 5016, Note_on_c, 0, 74, 93
2, 5028, Note_off_c, 0, 74, 0
2, 5028, Note_on_c, 0, 76, 93
2, 5040, Note_off_c, 0, 76, 0
2, 5040, Note_on_c, 0, 78, 93
2, 5064, Note_off_c, 0, 78, 0
2, 5064, Note_on_c, 0, 79, 93
2, 5088, Note_off_c, 0, 79, 0
2, 5088, Note_on_c, 0, 81, 93
2, 5094, Note_off_c, 0, 81, 0
2, 5094, Note_on_c, 0, 79, 93
2, 5112, Note_off_c, 0, 79, 0
2, 5112, Note_on_c, 0, 78, 93
2, 5136, Note_off_c, 0, 78, 0
2, 5136, Note_on_c, 0, 76, 93
2, 5160, Note_off_c, 0, 76, 0
2, 5160, Note_on_c, 0, 74, 93
2, 5184, Note_off_c, 0, 74, 0
2, 5184, Note_on_c, 0, 79, 93
2, 5196, Note_off_c, 0, 79, 0
2, 5196, Note_on_c, 0, 81, 93
2, 5208, Note_off_c, 0, 81, 0
2, 5208, Note_on_c, 0, 79, 93
2, 5220, Note_off_c, 0, 79, 0
2, 5220, Note_on_c, 0, 78, 93
2, 5232, Note_off_c, 0, 78, 0
2, 5232, Note_on_c, 0, 79, 93
2, 5292, Note_off_c, 0, 79, 0
2, 5292, Note_on_c, 0, 78, 93
2, 5304, Note_off_c, 0, 78, 0
2, 5304, Note_on_c, 0, 76, 93
2, 5316, Note_off_c, 0, 76, 0
2, 5316, Note_on_c, 0, 78, 93
2, 5328, Note_off_c, 0, 78, 0
2, 5328, Note_on_c, 0, 79, 93
2, 5352, Note_off_c, 0, 79, 0
2, 5352, Note_on_c, 0, 76, 93
2, 5376, Note_off_c, 0, 76, 0
2, 5376, Note_on_c, 0, 69, 93
2, 5400, Note_off_c, 0, 69, 0
2, 5400, Note_on_c, 0, 83, 93
2, 5424, Note_off_c, 0, 83, 0
2, 5424, Note_on_c, 0, 81, 93
2, 5448, Note_off_c, 0, 81, 0
2, 5448, Note_on_c, 0, 79, 93
2, 5472, Note_off_c, 0, 79, 0
2, 5472, Note_on_c, 0, 78, 93
2, 5484, Note_off_c, 0, 78, 0
2, 5484, Note_on_c, 0, 76, 93
2, 5496, Note_off_c, 0, 76, 0
2, 5496, Note_on_c, 0, 78, 93
2, 5508, Note_off_c, 0, 78, 0
2, 5508, Note_on_c, 0, 76, 93
2, 5520, Note_off_c, 0, 76, 0
2, 5520, Note_on_c, 0, 74, 93
2, 5580, Note_off_c, 0, 74, 0
2, 5580, Note_on_c, 0, 73, 93
2, 5592, Note_off_c, 0, 73, 0
2, 5592, Note_on_c, 0, 74, 93
2, 5604, Note_off_c, 0, 74, 0
2, 5604, Note_on_c, 0, 76, 93
2, 5616, Note_off_c, 0, 76, 0
2, 5616, Note_on_c, 0, 78, 93
2, 5640, Note_off_c, 0, 78, 0
2, 5640, Note_on_c, 0, 79, 93
2, 5664, Note_off_c, 0, 79, 0
2, 5664, Note_on_c, 0, 81, 93
2, 5688, Note_off_c, 0, 81, 0
2, 5688, Note_on_c, 0, 83, 93
2, 5700, Note_off_c, 0, 83, 0
2, 5700, Note_on_c, 0, 84, 93
2, 5712, Note_off_c, 0, 84, 0
2, 5712, Note_on_c, 0, 83, 93
2, 5736, Note_off_c, 0, 83, 0
2, 5736, Note_on_c, 0, 81, 93
2, 5760, Note_off_c, 0, 81, 0
2, 5760, Note_on_c, 0, 79, 93
2, 5772, Note_off_c, 0, 79, 0
2, 5772, Note_on_c, 0, 77, 93
2, 5784, Note_off_c, 0, 77, 0
2, 5784, Note_on_c, 0, 76, 93
2, 5808, Note_off_c, 0, 76, 0
2, 5808, Note_on_c, 0, 77, 93
2, 5814, Note_off_c, 0, 77, 0
2, 5814, Note_on_c, 0, 76, 93
2, 5820, Note_off_c, 0, 76, 0
2, 5820, Note_on_c, 0, 77, 93
2, 5868, Note_off_c, 0, 77, 0
2, 5868, Note_on_c, 0, 74, 93
2, 5880, Note_off_c, 0, 74, 0
2, 5880, Note_on_c, 0, 79, 93
2, 5892, Note_off_c, 0, 79, 0
2, 5892, Note_on_c, 0, 81, 93
2, 5904, Note_off_c, 0, 81, 0
2, 5904, Note_on_c, 0, 83, 93
2, 5916, Note_off_c, 0, 83, 0
2, 5916, Note_on_c, 0, 84, 93
2, 5928, Note_off_c, 0, 84, 0
2, 5928, Note_on_c, 0, 86, 93
2, 5952, Note_off_c, 0, 86, 0
2, 5952, Note_on_c, 0, 84, 93
2, 5976, Note_off_c, 0, 84, 0
2, 5976, Note_on_c, 0, 83, 93
2, 6000, Note_off_c, 0, 83, 0
2, 6000, Note_on_c, 0, 81, 93
2, 6024, Note_off_c, 0, 81, 0
2, 6024, Note_on_c, 0, 79, 93
2, 6048, Note_off_c, 0, 79, 0
2, 6048, Note_on_c, 0, 77, 93
2, 6060, Note_off_c, 0, 77, 0
2, 6060, Note_on_c, 0, 76, 93
2, 6072, Note_off_c, 0, 76, 0
2, 6072, Note_on_c, 0, 74, 93
2, 6096, Note_off_c, 0, 74, 0
2, 6096, Note_on_c, 0, 74, 93
2, 6108, Note_off_c, 0, 74, 0
2, 6108, Note_on_c, 0, 76, 93
2, 6156, Note_off_c, 0, 76, 0
2, 6156, Note_on_c, 0, 74, 93
2, 6168, Note_off_c, 0, 74, 0
2, 6168, Note_on_c, 0, 72, 93
2, 6180, Note_off_c, 0, 72, 0
2, 6180, Note_on_c, 0, 71, 93
2, 6192, Note_off_c, 0, 71, 0
2, 6192, Note_on_c, 0, 72, 93
2, 6204, Note_off_c, 0, 72, 0
2, 6204, Note_on_c, 0, 74, 93
2, 6216, Note_off_c, 0, 74, 0
2, 6216, Note_on_c, 0, 76, 93
2, 6240, Note_off_c, 0, 76, 0
2, 6240, Note_on_c, 0, 74, 93
2, 6264, Note_off_c, 0, 74, 0
2, 6264, Note_on_c, 0, 79, 93
2, 6288, Note_off_c, 0, 79, 0
2, 6288, Note_on_c, 0, 76, 93
2, 6312, Note_off_c, 0, 76, 0
2, 6312, Note_on_c, 0, 72, 93
2, 6336, Note_off_c, 0, 72, 0
2, 6336, Note_on_c, 0, 71, 93
2, 6348, Note_off_c, 0, 71, 0
2, 6348, Note_on_c, 0, 69, 93
2, 6360, Note_off_c, 0, 69, 0
2, 6360, Note_on_c, 0, 67, 93
2, 6384, Note_off_c, 0, 67, 0
2, 6384, Note_on_c, 0, 69, 93
2, 6444, Note_off_c, 0, 69, 0
2, 6444, Note_on_c, 0, 67, 93
2, 6456, Note_off_c, 0, 67, 0
2, 6456, Note_on_c, 0, 69, 93
2, 6468, Note_off_c, 0, 69, 0
2, 6468, Note_on_c, 0, 71, 93
2, 6480, Note_off_c, 0, 71, 0
2, 6480, Note_on_c, 0, 72, 93
2, 6492, Note_off_c, 0, 72, 0
2, 6492, Note_on_c, 0, 66, 93
2, 6504, Note_off_c, 0, 66, 0
2, 6504, Note_on_c, 0, 67, 93
2, 6516, Note_off_c, 0, 67, 0
2, 6516, Note_on_c, 0, 69, 93
2, 6528, Note_off_c, 0, 69, 0
2, 6528, Note_on_c, 0, 62, 93
2, 6540, Note_off_c, 0, 62, 0
2, 6540, Note_on_c, 0, 66, 93
2, 6552, Note_off_c, 0, 66, 0
2, 6552, Note_on_c, 0, 64, 93
2, 6564, Note_off_c, 0, 64, 0
2, 6564, Note_on_c, 0, 62, 93
2, 6576, Note_off_c, 0, 62, 0
2, 6576, Note_on_c, 0, 69, 93
2, 6588, Note_off_c, 0, 69, 0
2, 6588, Note_on_c, 0, 67, 93
2, 6600, Note_off_c, 0, 67, 0
2, 6600, Note_on_c, 0, 66, 93
2, 6612, Note_off_c, 0, 66, 0
2, 6612, Note_on_c, 0, 72, 93
2, 6624, Note_off_c, 0, 72, 0
2, 6624, Note_on_c, 0, 72, 93
2, 6636, Note_off_c, 0, 72, 0
2, 6636, Note_on_c, 0, 71, 93
2, 6648, Note_off_c, 0, 71, 0
2, 6648, Note_on_c, 0, 69, 93
2, 6672, Note_off_c, 0, 69, 0
2, 6672, Note_on_c, 0, 71, 93
2, 6732, Note_off_c, 0, 71, 0
2, 6732, Note_on_c, 0, 69, 93
2, 6744, Note_off_c, 0, 69, 0
2, 6744, Note_on_c, 0, 67, 93
2, 6756, Note_off_c, 0, 67, 0
2, 6756, Note_on_c, 0, 66, 93
2, 6768, Note_off_c, 0, 66, 0
2, 6768, Note_on_c, 0, 67, 93
2, 6780, Note_off_c, 0, 67, 0
2, 6780, Note_on_c, 0, 71, 93
2, 6792, Note_off_c, 0, 71, 0
2, 6792, Note_on_c, 0, 74, 93
2, 6804, Note_off_c, 0, 74, 0
2, 6804, Note_on_c, 0, 78, 93
2, 6816, Note_off_c, 0, 78, 0
2, 6816, Note_on_c, 0, 79, 93
2, 6828, Note_off_c, 0, 79, 0
2, 6828, Note_on_c, 0, 78, 93
2, 6840, Note_off_c, 0, 78, 0
2, 6840, Note_on_c, 0, 76, 93
2, 6852, Note_off_c, 0, 76, 0
2, 6852, Note_on_c, 0, 74, 93
2, 6864, Note_off_c, 0, 74, 0
2, 6864, Note_on_c, 0, 78, 93
2, 6876, Note_off_c, 0, 78, 0
2, 6876, Note_on_c, 0, 81, 93
2, 6888, Note_off_c, 0, 81, 0
2, 6888, Note_on_c, 0, 83, 93
2, 6900, Note_off_c, 0, 83, 0
2, 6900, Note_on_c, 0, 84, 93
2, 6912, Note_off_c, 0, 84, 0
2, 6912, Note_on_c, 0, 83, 93
2, 6924, Note_off_c, 0, 83, 0
2, 6924, Note_on_c, 0, 81, 93
2, 6936, Note_off_c, 0, 81, 0
2, 6936, Note_on_c, 0, 79, 93
2, 6972, Note_off_c, 0, 79, 0
2, 6972, Note_on_c, 0, 78, 93
2, 6984, Note_off_c, 0, 78, 0
2, 6984, Note_on_c, 0, 76, 93
2, 7020, Note_off_c, 0, 76, 0
2, 7020, Note_on_c, 0, 75, 93
2, 7032, Note_off_c, 0, 75, 0
2, 7032, Note_on_c, 0, 76, 93
2, 7068, Note_off_c, 0, 76, 0
2, 7068, Note_on_c, 0, 78, 93
2, 7080, Note_off_c, 0, 78, 0
2, 7080, Note_on_c, 0, 79, 93
2, 7116, Note_off_c, 0, 79, 0
2, 7116, Note_on_c, 0, 81, 93
2, 7128, Note_off_c, 0, 81, 0
2, 7128, Note_on_c, 0, 83, 93
2, 7164, Note_off_c, 0, 83, 0
2, 7164, Note_on_c, 0, 79, 93
2, 7176, Note_off_c, 0, 79, 0
2, 7176, Note_on_c, 0, 78, 93
2, 7188, Note_off_c, 0, 78, 0
2, 7188, Note_on_c, 0, 76, 93
2, 7200, Note_off_c, 0, 76, 0
2, 7200, Note_on_c, 0, 81, 93
2, 7212, Note_off_c, 0, 81, 0
2, 7212, Note_on_c, 0, 79, 93
2, 7224, Note_off_c, 0, 79, 0
2, 7224, Note_on_c, 0, 78, 93
2, 7260, Note_off_c, 0, 78, 0
2, 7260, Note_on_c, 0, 76, 93
2, 7272, Note_off_c, 0, 76, 0
2, 7272, Note_on_c, 0, 74, 93
2, 7308, Note_off_c, 0, 74, 0
2, 7308, Note_on_c, 0, 73, 93
2, 7320, Note_off_c, 0, 73, 0
2, 7320, Note_on_c, 0, 74, 93
2, 7356, Note_off_c, 0, 74, 0
2, 7356, Note_on_c, 0, 76, 93
2, 7368, Note_off_c, 0, 76, 0
2, 7368, Note_on_c, 0, 78, 93
2, 7404, Note_off_c, 0, 78, 0
2, 7404, Note_on_c, 0, 79, 93
2, 7416, Note_off_c, 0, 79, 0
2, 7416, Note_on_c, 0, 81, 93
2, 7452, Note_off_c, 0, 81, 0
2, 7452, Note_on_c, 0, 78, 93
2, 7464, Note_off_c, 0, 78, 0
2, 7464, Note_on_c, 0, 76, 93
2, 7476, Note_off_c, 0, 76, 0
2, 7476, Note_on_c, 0, 74, 93
2, 7488, Note_off_c, 0, 74, 0
2, 7488, Note_on_c, 0, 79, 93
2, 7500, Note_off_c, 0, 79, 0
2, 7500, Note_on_c, 0, 81, 93
2, 7512, Note_off_c, 0, 81, 0
2, 7512, Note_on_c, 0, 83, 93
2, 7524, Note_off_c, 0, 83, 0
2, 7524, Note_on_c, 0, 81, 93
2, 7536, Note_off_c, 0, 81, 0
2, 7536, Note_on_c, 0, 79, 93
2, 7560, Note_off_c, 0, 79, 0
2, 7560, Note_on_c, 0, 78, 93
2, 7584, Note_off_c, 0, 78, 0
2, 7584, Note_on_c, 0, 76, 93
2, 7596, Note_off_c, 0, 76, 0
2, 7596, Note_on_c, 0, 78, 93
2, 7608, Note_off_c, 0, 78, 0
2, 7608, Note_on_c, 0, 79, 93
2, 7620, Note_off_c, 0, 79, 0
2, 7620, Note_on_c, 0, 78, 93
2, 7632, Note_off_c, 0, 78, 0
2, 7632, Note_on_c, 0, 76, 93
2, 7656, Note_off_c, 0, 76, 0
2, 7656, Note_on_c, 0, 74, 93
2, 7680, Note_off_c, 0, 74, 0
2, 7680, Note_on_c, 0, 73, 93
2, 7692, Note_off_c, 0, 73, 0
2, 7692, Note_on_c, 0, 74, 93
2, 7704, Note_off_c, 0, 74, 0
2, 7704, Note_on_c, 0, 76, 93
2, 7716, Note_off_c, 0, 76, 0
2, 7716, Note_on_c, 0, 74, 93
2, 7728, Note_off_c, 0, 74, 0
2, 7728, Note_on_c, 0, 73, 93
2, 7752, Note_off_c, 0, 73, 0
2, 7752, Note_on_c, 0, 71, 93
2, 7776, Note_off_c, 0, 71, 0
2, 7776, Note_on_c, 0, 71, 93
2, 7782, Note_off_c, 0, 71, 0
2, 7782, Note_on_c, 0, 69, 93
2, 7794, Note_off_c, 0, 69, 0
2, 7794, Note_on_c, 0, 71, 93
2, 7800, Note_off_c, 0, 71, 0
2, 7800, Note_on_c, 0, 69, 93
2, 7806, Note_off_c, 0, 69, 0
2, 7806, Note_on_c, 0, 71, 93
2, 7818, Note_off_c, 0, 71, 0
2, 7818, Note_on_c, 0, 69, 93
2, 7824, Note_off_c, 0, 69, 0
2, 7824, Note_on_c, 0, 71, 93
2, 7830, Note_off_c, 0, 71, 0
2, 7830, Note_on_c, 0, 69, 93
2, 7842, Note_off_c, 0, 69, 0
2, 7842, Note_on_c, 0, 71, 93
2, 7848, Note_off_c, 0, 71, 0
2, 7848, Note_on_c, 0, 69, 93
2, 7854, Note_off_c, 0, 69, 0
2, 7854, Note_on_c, 0, 71, 93
2, 7866, Note_off_c, 0, 71, 0
2, 7866, Note_on_c, 0, 69, 93
2, 7872, Note_off_c, 0, 69, 0
2, 7872, Note_on_c, 0, 71, 93
2, 7878, Note_off_c, 0, 71, 0
2, 7878, Note_on_c, 0, 69, 93
2, 7890, Note_off_c, 0, 69, 0
2, 7890, Note_on_c, 0, 71, 93
2, 7896, Note_off_c, 0, 71, 0
2, 7896, Note_on_c, 0, 69, 93
2, 7932, Note_off_c, 0, 69, 0
2, 7932, Note_on_c, 0, 73, 93
2, 7944, Note_off_c, 0, 73, 0
2, 7944, Note_on_c, 0, 71, 93
2, 7956, Note_off_c, 0, 71, 0
2, 7956, Note_on_c, 0, 69, 93
2, 7968, Note_off_c, 0, 69, 0
2, 7968, Note_on_c, 0, 71, 93
2, 7980, Note_off_c, 0, 71, 0
2, 7980, Note_on_c, 0, 73, 93
2, 7992, Note_off_c, 0, 73, 0
2, 7992, Note_on_c, 0, 74, 93
2, 8004, Note_off_c, 0, 74, 0
2, 8004, Note_on_c, 0, 76, 93
2, 8016, Note_off_c, 0, 76, 0
2, 8016, Note_on_c, 0, 78, 93
2, 8040, Note_off_c, 0, 78, 0
2, 8040, Note_on_c, 0, 81, 93
2, 8046, Note_off_c, 0, 81, 0
2, 8046, Note_on_c, 0, 79, 93
2, 8052, Note_off_c, 0, 79, 0
2, 8052, Note_on_c, 0, 78, 93
2, 8058, Note_off_c, 0, 78, 0
2, 8058, Note_on_c, 0, 79, 93
2, 8064, Note_off_c, 0, 79, 0
2, 8064, Note_on_c, 0, 81, 93
2, 8076, Note_off_c, 0, 81, 0
2, 8076, Note_on_c, 0, 74, 93
2, 8088, Note_off_c, 0, 74, 0
2, 8088, Note_on_c, 0, 73, 93
2, 8100, Note_off_c, 0, 73, 0
2, 8100, Note_on_c, 0, 74, 93
2, 8112, Note_off_c, 0, 74, 0
2, 8112, Note_on_c, 0, 76, 93
2, 8124, Note_off_c, 0, 76, 0
2, 8124, Note_on_c, 0, 74, 93
2, 8136, Note_off_c, 0, 74, 0
2, 8136, Note_on_c, 0, 73, 93
2, 8148, Note_off_c, 0, 73, 0
2, 8148, Note_on_c, 0, 74, 93
2, 8160, Note_off_c, 0, 74, 0
2, 8160, Note_on_c, 0, 69, 93
2, 8172, Note_off_c, 0, 69, 0
2, 8172, Note_on_c, 0, 74, 93
2, 8184, Note_off_c, 0, 74, 0
2, 8184, Note_on_c, 0, 67, 93
2, 8196, Note_off_c, 0, 67, 0
2, 8196, Note_on_c, 0, 74, 93
2, 8208, Note_off_c, 0, 74, 0
2, 8208, Note_on_c, 0, 66, 93
2, 8220, Note_off_c, 0, 66, 0
2, 8220, Note_on_c, 0, 74, 93
2, 8232, Note_off_c, 0, 74, 0
2, 8232, Note_on_c, 0, 64, 93
2, 8244, Note_off_c, 0, 64, 0
2, 8244, Note_on_c, 0, 74, 93
2, 8256, Note_off_c, 0, 74, 0
2, 8256, Note_on_c, 0, 66, 93
2, 8268, Note_off_c, 0, 66, 0
2, 8268, Note_on_c, 0, 74, 93
2, 8280, Note_off_c, 0, 74, 0
2, 8280, Note_on_c, 0, 69, 93
2, 8292, Note_off_c, 0, 69, 0
2, 8292, Note_on_c, 0, 74, 93
2, 8304, Note_off_c, 0, 74, 0
2, 8304, Note_on_c, 0, 66, 93
2, 8316, Note_off_c, 0, 66, 0
2, 8316, Note_on_c, 0, 74, 93
2, 8328, Note_off_c, 0, 74, 0
2, 8328, Note_on_c, 0, 62, 93
2, 8340, Note_off_c, 0, 62, 0
2, 8340, Note_on_c, 0, 72, 93
2, 8352, Note_off_c, 0, 72, 0
2, 8352, Note_on_c, 0, 71, 93
2, 8364, Note_off_c, 0, 71, 0
2, 8364, Note_on_c, 0, 74, 93
2, 8376, Note_off_c, 0, 74, 0
2, 8376, Note_on_c, 0, 73, 93
2, 8388, Note_off_c, 0, 73, 0
2, 8388, Note_on_c, 0, 74, 93
2, 8400, Note_off_c, 0, 74, 0
2, 8400, Note_on_c, 0, 76, 93
2, 8412, Note_off_c, 0, 76, 0
2, 8412, Note_on_c, 0, 74, 93
2, 8424, Note_off_c, 0, 74, 0
2, 8424, Note_on_c, 0, 73, 93
2, 8436, Note_off_c, 0, 73, 0
2, 8436, Note_on_c, 0, 74, 93
2, 8448, Note_off_c, 0, 74, 0
2, 8448, Note_on_c, 0, 71, 93
2, 8460, Note_off_c, 0, 71, 0
2, 8460, Note_on_c, 0, 74, 93
2, 8472, Note_off_c, 0, 74, 0
2, 8472, Note_on_c, 0, 69, 93
2, 8484, Note_off_c, 0, 69, 0
2, 8484, Note_on_c, 0, 74, 93
2, 8496, Note_off_c, 0, 74, 0
2, 8496, Note_on_c, 0, 67, 93
2, 8508, Note_off_c, 0, 67, 0
2, 8508, Note_on_c, 0, 74, 93
2, 8520, Note_off_c, 0, 74, 0
2, 8520, Note_on_c, 0, 66, 93
2, 8532, Note_off_c, 0, 66, 0
2, 8532, Note_on_c, 0, 74, 93
2, 8544, Note_off_c, 0, 74, 0
2, 8544, Note_on_c, 0, 67, 93
2, 8556, Note_off_c, 0, 67, 0
2, 8556, Note_on_c, 0, 74, 93
2, 8568, Note_off_c, 0, 74, 0
2, 8568, Note_on_c, 0, 71, 93
2, 8580, Note_off_c, 0, 71, 0
2, 8580, Note_on_c, 0, 74, 93
2, 8592, Note_off_c, 0, 74, 0
2, 8592, Note_on_c, 0, 67, 93
2, 8604, Note_off_c, 0, 67, 0
2, 8604, Note_on_c, 0, 74, 93
2, 8616, Note_off_c, 0, 74, 0
2, 8616, Note_on_c, 0, 64, 93
2, 8628, Note_off_c, 0, 64, 0
2, 8628, Note_on_c, 0, 74, 93
2, 8640, Note_off_c, 0, 74, 0
2, 8640, Note_on_c, 0, 73, 93
2, 8652, Note_off_c, 0, 73, 0
2, 8652, Note_on_c, 0, 67, 93
2, 8664, Note_off_c, 0, 67, 0
2, 8664, Note_on_c, 0, 66, 93
2, 8676, Note_off_c, 0, 66, 0
2, 8676, Note_on_c, 0, 67, 93
2, 8688, Note_off_c, 0, 67, 0
2, 8688, Note_on_c, 0, 69, 93
2, 8700, Note_off_c, 0, 69, 0
2, 8700, Note_on_c, 0, 67, 93
2, 8712, Note_off_c, 0, 67, 0
2, 8712, Note_on_c, 0, 66, 93
2, 8724, Note_off_c, 0, 66, 0
2, 8724, Note_on_c, 0, 67, 93
2, 8736, Note_off_c, 0, 67, 0
2, 8736, Note_on_c, 0, 76, 93
2, 8748, Note_off_c, 0, 76, 0
2, 8748, Note_on_c, 0, 73, 93
2, 8760, Note_off_c, 0, 73, 0
2, 8760, Note_on_c, 0, 71, 93
2, 8772, Note_off_c, 0, 71, 0
2, 8772, Note_on_c, 0, 73, 93
2, 8784, Note_off_c, 0, 73, 0
2, 8784, Note_on_c, 0, 74, 93
2, 8796, Note_off_c, 0, 74, 0
2, 8796, Note_on_c, 0, 73, 93
2, 8808, Note_off_c, 0, 73, 0
2, 8808, Note_on_c, 0, 71, 93
2, 8820, Note_off_c, 0, 71, 0
2, 8820, Note_on_c, 0, 73, 93
2, 8832, Note_off_c, 0, 73, 0
2, 8832, Note_on_c, 0, 79, 93
2, 8844, Note_off_c, 0, 79, 0
2, 8844, Note_on_c, 0, 76, 93
2, 8856, Note_off_c, 0, 76, 0
2, 8856, Note_on_c, 0, 74, 93
2, 8868, Note_off_c, 0, 74, 0
2, 8868, Note_on_c, 0, 76, 93
2, 8880, Note_off_c, 0, 76, 0
2, 8880, Note_on_c, 0, 81, 93
2, 8892, Note_off_c, 0, 81, 0
2, 8892, Note_on_c, 0, 79, 93
2, 8904, Note_off_c, 0, 79, 0
2, 8904, Note_on_c, 0, 78, 93
2, 8916, Note_off_c, 0, 78, 0
2, 8916, Note_on_c, 0, 76, 93
2, 8928, Note_off_c, 0, 76, 0
2, 8928, Note_on_c, 0, 78, 93
2, 8952, Note_off_c, 0, 78, 0
2, 8952, Note_on_c, 0, 73, 93
2, 8976, Note_off_c, 0, 73, 0
2, 8976, Note_on_c, 0, 73, 93
2, 9000, Note_off_c, 0, 73, 0
2, 9000, Note_on_c, 0, 74, 93
2, 9024, Note_off_c, 0, 74, 0
2, 9024, Note_on_c, 0, 74, 93
2, 9048, Note_off_c, 0, 74, 0
2, 9048, Note_on_c, 0, 67, 93
2, 9072, Note_off_c, 0, 67, 0
2, 9072, Note_on_c, 0, 67, 93
2, 9096, Note_off_c, 0, 67, 0
2, 9096, Note_on_c, 0, 66, 93
2, 9120, Note_off_c, 0, 66, 0
2, 9120, Note_on_c, 0, 66, 93
2, 9216, Note_off_c, 0, 66, 0
2, 9216, Note_on_c, 0, 78, 93
2, 9228, Note_off_c, 0, 78, 0
2, 9228, Note_on_c, 0, 79, 93
2, 9240, Note_off_c, 0, 79, 0
2, 9240, Note_on_c, 0, 78, 93
2, 9252, Note_off_c, 0, 78, 0
2, 9252, Note_on_c, 0, 76, 93
2, 9264, Note_off_c, 0, 76, 0
2, 9264, Note_on_c, 0, 78, 93
2, 9324, Note_off_c, 0, 78, 0
2, 9324, Note_on_c, 0, 76, 93
2, 9336, Note_off_c, 0, 76, 0
2, 9336, Note_on_c, 0, 78, 93
2, 9348, Note_off_c, 0, 78, 0
2, 9348, Note_on_c, 0, 79, 93
2, 9360, Note_off_c, 0, 79, 0
2, 9360, Note_on_c, 0, 81, 93
2, 9384, Note_off_c, 0, 81, 0
2, 9384, Note_on_c, 0, 83, 93
2, 9408, Note_off_c, 0, 83, 0
2, 9408, Note_on_c, 0, 84, 93
2, 9414, Note_off_c, 0, 84, 0
2, 9414, Note_on_c, 0, 83, 93
2, 9432, Note_off_c, 0, 83, 0
2, 9432, Note_on_c, 0, 81, 93
2, 9456, Note_off_c, 0, 81, 0
2, 9456, Note_on_c, 0, 79, 93
2, 9480, Note_off_c, 0, 79, 0
2, 9480, Note_on_c, 0, 78, 93
2, 9504, Note_off_c, 0, 78, 0
2, 9504, Note_on_c, 0, 79, 93
2, 9516, Note_off_c, 0, 79, 0
2, 9516, Note_on_c, 0, 81, 93
2, 9528, Note_off_c, 0, 81, 0
2, 9528, Note_on_c, 0, 79, 93
2, 9540, Note_off_c, 0, 79, 0
2, 9540, Note_on_c, 0, 78, 93
2, 9552, Note_off_c, 0, 78, 0
2, 9552, Note_on_c, 0, 79, 93
2, 9612, Note_off_c, 0, 79, 0
2, 9612, Note_on_c, 0, 66, 93
2, 9624, Note_off_c, 0, 66, 0
2, 9624, Note_on_c, 0, 67, 93
2, 9636, Note_off_c, 0, 67, 0
2, 9636, Note_on_c, 0, 69, 93
2, 9648, Note_off_c, 0, 69, 0
2, 9648, Note_on_c, 0, 71, 93
2, 9672, Note_off_c, 0, 71, 0
2, 9672, Note_on_c, 0, 72, 93
2, 9696, Note_off_c, 0, 72, 0
2, 9696, Note_on_c, 0, 74, 93
2, 9702, Note_off_c, 0, 74, 0
2, 9702, Note_on_c, 0, 72, 93
2, 9720, Note_off_c, 0, 72, 0
2, 9720, Note_on_c, 0, 71, 93
2, 9744, Note_off_c, 0, 71, 0
2, 9744, Note_on_c, 0, 69, 93
2, 9768, Note_off_c, 0, 69, 0
2, 9768, Note_on_c, 0, 67, 93
2, 9792, Note_off_c, 0, 67, 0
2, 9792, Note_on_c, 0, 76, 93
2, 9804, Note_off_c, 0, 76, 0
2, 9804, Note_on_c, 0, 78, 93
2, 9816, Note_off_c, 0, 78, 0
2, 9816, Note_on_c, 0, 76, 93
2, 9828, Note_off_c, 0, 76, 0
2, 9828, Note_on_c, 0, 75, 93
2, 9840, Note_off_c, 0, 75, 0
2, 9840, Note_on_c, 0, 76, 93
2, 9912, Note_off_c, 0, 76, 0
2, 9912, Note_on_c, 0, 80, 93
2, 9936, Note_off_c, 0, 80, 0
2, 9936, Note_on_c, 0, 80, 93
2, 9960, Note_off_c, 0, 80, 0
2, 9960, Note_on_c, 0, 81, 93
2, 9984, Note_off_c, 0, 81, 0
2, 9984, Note_on_c, 0, 81, 93
2, 10008, Note_off_c, 0, 81, 0
2, 10008, Note_on_c, 0, 83, 93
2, 10032, Note_off_c, 0, 83, 0
2, 10032, Note_on_c, 0, 83, 93
2, 10056, Note_off_c, 0, 83, 0
2, 10056, Note_on_c, 0, 84, 93
2, 10080, Note_off_c, 0, 84, 0
2, 10080, Note_on_c, 0, 76, 93
2, 10092, Note_off_c, 0, 76, 0
2, 10092, Note_on_c, 0, 75, 93
2, 10104, Note_off_c, 0, 75, 0
2, 10104, Note_on_c, 0, 73, 93
2, 10128, Note_off_c, 0, 73, 0
2, 10128, Note_on_c, 0, 75, 93
2, 10134, Note_off_c, 0, 75, 0
2, 10134, Note_on_c, 0, 73, 93
2, 10140, Note_off_c, 0, 73, 0
2, 10140, Note_on_c, 0, 75, 93
2, 10236, Note_off_c, 0, 75, 0
2, 10236, Note_on_c, 0, 75, 93
2, 10248, Note_off_c, 0, 75, 0
2, 10248, Note_on_c, 0, 76, 93
2, 10260, Note_off_c, 0, 76, 0
2, 10260, Note_on_c, 0, 78, 93
2, 10272, Note_off_c, 0, 78, 0
2, 10272, Note_on_c, 0, 76, 93
2, 10284, Note_off_c, 0, 76, 0
2, 10284, Note_on_c, 0, 75, 93
2, 10296, Note_off_c, 0, 75, 0
2, 10296, Note_on_c, 0, 73, 93
2, 10308, Note_off_c, 0, 73, 0
2, 10308, Note_on_c, 0, 71, 93
2, 10320, Note_off_c, 0, 71, 0
2, 10320, Note_on_c, 0, 69, 93
2, 10332, Note_off_c, 0, 69, 0
2, 10332, Note_on_c, 0, 67, 93
2, 10344, Note_off_c, 0, 67, 0
2, 10344, Note_on_c, 0, 69, 93
2, 10356, Note_off_c, 0, 69, 0
2, 10356, Note_on_c, 0, 78, 93
2, 10368, Note_off_c, 0, 78, 0
2, 10368, Note_on_c, 0, 67, 93
2, 10380, Note_off_c, 0, 67, 0
2, 10380, Note_on_c, 0, 76, 93
2, 10392, Note_off_c, 0, 76, 0
2, 10392, Note_on_c, 0, 75, 93
2, 10404, Note_off_c, 0, 75, 0
2, 10404, Note_on_c, 0, 76, 93
2, 10416, Note_off_c, 0, 76, 0
2, 10416, Note_on_c, 0, 77, 93
2, 10428, Note_off_c, 0, 77, 0
2, 10428, Note_on_c, 0, 76, 93
2, 10440, Note_off_c, 0, 76, 0
2, 10440, Note_on_c, 0, 75, 93
2, 10452, Note_off_c, 0, 75, 0
2, 10452, Note_on_c, 0, 76, 93
2, 10464, Note_off_c, 0, 76, 0
2, 10464, Note_on_c, 0, 78, 93
2, 10476, Note_off_c, 0, 78, 0
2, 10476, Note_on_c, 0, 76, 93
2, 10488, Note_off_c, 0, 76, 0
2, 10488, Note_on_c, 0, 79, 93
2, 10500, Note_off_c, 0, 79, 0
2, 10500, Note_on_c, 0, 76, 93
2, 10512, Note_off_c, 0, 76, 0
2, 10512, Note_on_c, 0, 81, 93
2, 10524, Note_off_c, 0, 81, 0
2, 10524, Note_on_c, 0, 76, 93
2, 10536, Note_off_c, 0, 76, 0
2, 10536, Note_on_c, 0, 83, 93
2, 10548, Note_off_c, 0, 83, 0
2, 10548, Note_on_c, 0, 76, 93
2, 10560, Note_off_c, 0, 76, 0
2, 10560, Note_on_c, 0, 84, 93
2, 10572, Note_off_c, 0, 84, 0
2, 10572, Note_on_c, 0, 76, 93
2, 10584, Note_off_c, 0, 76, 0
2, 10584, Note_on_c, 0, 86, 93
2, 10596, Note_off_c, 0, 86, 0
2, 10596, Note_on_c, 0, 76, 93
2, 10608, Note_off_c, 0, 76, 0
2, 10608, Note_on_c, 0, 84, 93
2, 10620, Note_off_c, 0, 84, 0
2, 10620, Note_on_c, 0, 76, 93
2, 10632, Note_off_c, 0, 76, 0
2, 10632, Note_on_c, 0, 83, 93
2, 10644, Note_off_c, 0, 83, 0
2, 10644, Note_on_c, 0, 76, 93
2, 10656, Note_off_c, 0, 76, 0
2, 10656, Note_on_c, 0, 84, 93
2, 10668, Note_off_c, 0, 84, 0
2, 10668, Note_on_c, 0, 76, 93
2, 10680, Note_off_c, 0, 76, 0
2, 10680, Note_on_c, 0, 75, 93
2, 10692, Note_off_c, 0, 75, 0
2, 10692, Note_on_c, 0, 76, 93
2, 10704, Note_off_c, 0, 76, 0
2, 10704, Note_on_c, 0, 77, 93
2, 10716, Note_off_c, 0, 77, 0
2, 10716, Note_on_c, 0, 76, 93
2, 10728, Note_off_c, 0, 76, 0
2, 10728, Note_on_c, 0, 75, 93
2, 10740, Note_off_c, 0, 75, 0
2, 10740, Note_on_c, 0, 76, 93
2, 10752, Note_off_c, 0, 76, 0
2, 10752, Note_on_c, 0, 84, 93
2, 10764, Note_off_c, 0, 84, 0
2, 10764, Note_on_c, 0, 76, 93
2, 10776, Note_off_c, 0, 76, 0
2, 10776, Note_on_c, 0, 83, 93
2, 10788, Note_off_c, 0, 83, 0
2, 10788, Note_on_c, 0, 76, 93
2, 10800, Note_off_c, 0, 76, 0
2, 10800, Note_on_c, 0, 81, 93
2, 10812, Note_off_c, 0, 81, 0
2, 10812, Note_on_c, 0, 76, 93
2, 10824, Note_off_c, 0, 76, 0
2, 10824, Note_on_c, 0, 79, 93
2, 10836, Note_off_c, 0, 79, 0
2, 10836, Note_on_c, 0, 76, 93
2, 10848, Note_off_c, 0, 76, 0
2, 10848, Note_on_c, 0, 78, 93
2, 10860, Note_off_c, 0, 78, 0
2, 10860, Note_on_c, 0, 76, 93
2, 10872, Note_off_c, 0, 76, 0
2, 10872, Note_on_c, 0, 79, 93
2, 10884, Note_off_c, 0, 79, 0
2, 10884, Note_on_c, 0, 76, 93
2, 10896, Note_off_c, 0, 76, 0
2, 10896, Note_on_c, 0, 81, 93
2, 10908, Note_off_c, 0, 81, 0
2, 10908, Note_on_c, 0, 76, 93
2, 10920, Note_off_c, 0, 76, 0
2, 10920, Note_on_c, 0, 75, 93
2, 10932, Note_off_c, 0, 75, 0
2, 10932, Note_on_c, 0, 73, 93
2, 10944, Note_off_c, 0, 73, 0
2, 10944, Note_on_c, 0, 75, 93
2, 10956, Note_off_c, 0, 75, 0
2, 10956, Note_on_c, 0, 81, 93
2, 10968, Note_off_c, 0, 81, 0
2, 10968, Note_on_c, 0, 79, 93
2, 10980, Note_off_c, 0, 79, 0
2, 10980, Note_on_c, 0, 81, 93
2, 10992, Note_off_c, 0, 81, 0
2, 10992, Note_on_c, 0, 83, 93
2, 11004, Note_off_c, 0, 83, 0
2, 11004, Note_on_c, 0, 81, 93
2, 11016, Note_off_c, 0, 81, 0
2, 11016, Note_on_c, 0, 79, 93
2, 11028, Note_off_c, 0, 79, 0
2, 11028, Note_on_c, 0, 81, 93
2, 11040, Note_off_c, 0, 81, 0
2, 11040, Note_on_c, 0, 71, 93
2, 11052, Note_off_c, 0, 71, 0
2, 11052, Note_on_c, 0, 79, 93
2, 11064, Note_off_c, 0, 79, 0
2, 11064, Note_on_c, 0, 78, 93
2, 11076, Note_off_c, 0, 78, 0
2, 11076, Note_on_c, 0, 79, 93
2, 11088, Note_off_c, 0, 79, 0
2, 11088, Note_on_c, 0, 81, 93
2, 11100, Note_off_c, 0, 81, 0
2, 11100, Note_on_c, 0, 79, 93
2, 11112, Note_off_c, 0, 79, 0
2, 11112, Note_on_c, 0, 78, 93
2, 11124, Note_off_c, 0, 78, 0
2, 11124, Note_on_c, 0, 79, 93
2, 11136, Note_off_c, 0, 79, 0
2, 11136, Note_on_c, 0, 69, 93
2, 11148, Note_off_c, 0, 69, 0
2, 11148, Note_on_c, 0, 78, 93
2, 11160, Note_off_c, 0, 78, 0
2, 11160, Note_on_c, 0, 76, 93
2, 11172, Note_off_c, 0, 76, 0
2, 11172, Note_on_c, 0, 78, 93
2, 11184, Note_off_c, 0, 78, 0
2, 11184, Note_on_c, 0, 79, 93
2, 11196, Note_off_c, 0, 79, 0
2, 11196, Note_on_c, 0, 81, 93
2, 11208, Note_off_c, 0, 81, 0
2, 11208, Note_on_c, 0, 79, 93
2, 11220, Note_off_c, 0, 79, 0
2, 11220, Note_on_c, 0, 78, 93
2, 11232, Note_off_c, 0, 78, 0
2, 11232, Note_on_c, 0, 79, 93
2, 11256, Note_off_c, 0, 79, 0
2, 11256, Note_on_c, 0, 75, 93
2, 11280, Note_off_c, 0, 75, 0
2, 11280, Note_on_c, 0, 75, 93
2, 11304, Note_off_c, 0, 75, 0
2, 11304, Note_on_c, 0, 76, 93
2, 11328, Note_off_c, 0, 76, 0
2, 11328, Note_on_c, 0, 76, 93
2, 11352, Note_off_c, 0, 76, 0
2, 11352, Note_on_c, 0, 69, 93
2, 11376, Note_off_c, 0, 69, 0
2, 11376, Note_on_c, 0, 69, 93
2, 11400, Note_off_c, 0, 69, 0
2, 11400, Note_on_c, 0, 67, 93
2, 11424, Note_off_c, 0, 67, 0
2, 11424, Note_on_c, 0, 67, 93
2, 11436, Note_off_c, 0, 67, 0
2, 11436, Note_on_c, 0, 66, 93
2, 11448, Note_off_c, 0, 66, 0
2, 11448, Note_on_c, 0, 67, 93
2, 11484, Note_off_c, 0, 67, 0
2, 11484, Note_on_c, 0, 71, 93
2, 11496, Note_off_c, 0, 71, 0
2, 11496, Note_on_c, 0, 72, 93
2, 11508, Note_off_c, 0, 72, 0
2, 11508, Note_on_c, 0, 74, 93
2, 11520, Note_off_c, 0, 74, 0
2, 11520, Note_on_c, 0, 76, 93
2, 11532, Note_off_c, 0, 76, 0
2, 11532, Note_on_c, 0, 77, 93
2, 11544, Note_off_c, 0, 77, 0
2, 11544, Note_on_c, 0, 76, 93
2, 11556, Note_off_c, 0, 76, 0
2, 11556, Note_on_c, 0, 75, 93
2, 11568, Note_off_c, 0, 75, 0
2, 11568, Note_on_c, 0, 76, 93
2, 11640, Note_off_c, 0, 76, 0
2, 11640, Note_on_c, 0, 69, 93
2, 11664, Note_off_c, 0, 69, 0
2, 11664, Note_on_c, 0, 71, 93
2, 11670, Note_off_c, 0, 71, 0
2, 11670, Note_on_c, 0, 69, 93
2, 11688, Note_off_c, 0, 69, 0
2, 11688, Note_on_c, 0, 67, 93
2, 11712, Note_off_c, 0, 67, 0
2, 11712, Note_on_c, 0, 69, 93
2, 11718, Note_off_c, 0, 69, 0
2, 11718, Note_on_c, 0, 67, 93
2, 11736, Note_off_c, 0, 67, 0
2, 11736, Note_on_c, 0, 66, 93
2, 11760, Note_off_c, 0, 66, 0
2, 11760, Note_on_c, 0, 66, 93
2, 11784, Note_off_c, 0, 66, 0
2, 11784, Note_on_c, 0, 76, 93
2, 11808, Note_off_c, 0, 76, 0
2, 11808, Note_on_c, 0, 74, 93
2, 11820, Note_off_c, 0, 74, 0
2, 11820, Note_on_c, 0, 76, 93
2, 11832, Note_off_c, 0, 76, 0
2, 11832, Note_on_c, 0, 74, 93
2, 11844, Note_off_c, 0, 74, 0
2, 11844, Note_on_c, 0, 73, 93
2, 11856, Note_off_c, 0, 73, 0
2, 11856, Note_on_c, 0, 74, 93
2, 11928, Note_off_c, 0, 74, 0
2, 11928, Note_on_c, 0, 67, 93
2, 11952, Note_off_c, 0, 67, 0
2, 11952, Note_on_c, 0, 69, 93
2, 11958, Note_off_c, 0, 69, 0
2, 11958, Note_on_c, 0, 67, 93
2, 11976, Note_off_c, 0, 67, 0
2, 11976, Note_on_c, 0, 65, 93
2, 12000, Note_off_c, 0, 65, 0
2, 12000, Note_on_c, 0, 67, 93
2, 12006, Note_off_c, 0, 67, 0
2, 12006, Note_on_c, 0, 65, 93
2, 12024, Note_off_c, 0, 65, 0
2, 12024, Note_on_c, 0, 64, 93
2, 12048, Note_off_c, 0, 64, 0
2, 12048, Note_on_c, 0, 64, 93
2, 12072, Note_off_c, 0, 64, 0
2, 12072, Note_on_c, 0, 74, 93
2, 12096, Note_off_c, 0, 74, 0
2, 12096, Note_on_c, 0, 72, 93
2, 12108, Note_off_c, 0, 72, 0
2, 12108, Note_on_c, 0, 71, 93
2, 12120, Note_off_c, 0, 71, 0
2, 12120, Note_on_c, 0, 69, 93
2, 12156, Note_off_c, 0, 69, 0
2, 12156, Note_on_c, 0, 67, 93
2, 12168, Note_off_c, 0, 67, 0
2, 12168, Note_on_c, 0, 66, 93
2, 12204, Note_off_c, 0, 66, 0
2, 12204, Note_on_c, 0, 64, 93
2, 12216, Note_off_c, 0, 64, 0
2, 12216, Note_on_c, 0, 62, 93
2, 12252, Note_off_c, 0, 62, 0
2, 12252, Note_on_c, 0, 64, 93
2, 12264, Note_off_c, 0, 64, 0
2, 12264, Note_on_c, 0, 66, 93
2, 12300, Note_off_c, 0, 66, 0
2, 12300, Note_on_c, 0, 67, 93
2, 12312, Note_off_c, 0, 67, 0
2, 12312, Note_on_c, 0, 69, 93
2, 12348, Note_off_c, 0, 69, 0
2, 12348, Note_on_c, 0, 71, 93
2, 12360, Note_off_c, 0, 71, 0
2, 12360, Note_on_c, 0, 72, 93
2, 12396, Note_off_c, 0, 72, 0
2, 12396, Note_on_c, 0, 74, 93
2, 12408, Note_off_c, 0, 74, 0
2, 12408, Note_on_c, 0, 72, 93
2, 12420, Note_off_c, 0, 72, 0
2, 12420, Note_on_c, 0, 71, 93
2, 12432, Note_off_c, 0, 71, 0
2, 12432, Note_on_c, 0, 72, 93
2, 12444, Note_off_c, 0, 72, 0
2, 12444, Note_on_c, 0, 79, 93
2, 12456, Note_off_c, 0, 79, 0
2, 12456, Note_on_c, 0, 78, 93
2, 12468, Note_off_c, 0, 78, 0
2, 12468, Note_on_c, 0, 76, 93
2, 12480, Note_off_c, 0, 76, 0
2, 12480, Note_on_c, 0, 78, 93
2, 12492, Note_off_c, 0, 78, 0
2, 12492, Note_on_c, 0, 83, 93
2, 12504, Note_off_c, 0, 83, 0
2, 12504, Note_on_c, 0, 81, 93
2, 12516, Note_off_c, 0, 81, 0
2, 12516, Note_on_c, 0, 79, 93
2, 12528, Note_off_c, 0, 79, 0
2, 12528, Note_on_c, 0, 81, 93
2, 12540, Note_off_c, 0, 81, 0
2, 12540, Note_on_c, 0, 86, 93
2, 12552, Note_off_c, 0, 86, 0
2, 12552, Note_on_c, 0, 84, 93
2, 12564, Note_off_c, 0, 84, 0
2, 12564, Note_on_c, 0, 83, 93
2, 12576, Note_off_c, 0, 83, 0
2, 12576, Note_on_c, 0, 84, 93
2, 12588, Note_off_c, 0, 84, 0
2, 12588, Note_on_c, 0, 83, 93
2, 12600, Note_off_c, 0, 83, 0
2, 12600, Note_on_c, 0, 81, 93
2, 12612, Note_off_c, 0, 81, 0
2, 12612, Note_on_c, 0, 79, 93
2, 12624, Note_off_c, 0, 79, 0
2, 12624, Note_on_c, 0, 78, 93
2, 12636, Note_off_c, 0, 78, 0
2, 12636, Note_on_c, 0, 76, 93
2, 12648, Note_off_c, 0, 76, 0
2, 12648, Note_on_c, 0, 74, 93
2, 12660, Note_off_c, 0, 74, 0
2, 12660, Note_on_c, 0, 72, 93
2, 12672, Note_off_c, 0, 72, 0
2, 12672, Note_on_c, 0, 71, 93
2, 12684, Note_off_c, 0, 71, 0
2, 12684, Note_on_c, 0, 79, 93
2, 12696, Note_off_c, 0, 79, 0
2, 12696, Note_on_c, 0, 78, 93
2, 12708, Note_off_c, 0, 78, 0
2, 12708, Note_on_c, 0, 79, 93
2, 12720, Note_off_c, 0, 79, 0
2, 12720, Note_on_c, 0, 81, 93
2, 12732, Note_off_c, 0, 81, 0
2, 12732, Note_on_c, 0, 79, 93
2, 12744, Note_off_c, 0, 79, 0
2, 12744, Note_on_c, 0, 78, 93
2, 12756, Note_off_c, 0, 78, 0
2, 12756, Note_on_c, 0, 79, 93
2, 12768, Note_off_c, 0, 79, 0
2, 12768, Note_on_c, 0, 72, 93
2, 12780, Note_off_c, 0, 72, 0
2, 12780, Note_on_c, 0, 78, 93
2, 12792, Note_off_c, 0, 78, 0
2, 12792, Note_on_c, 0, 76, 93
2, 12804, Note_off_c, 0, 76, 0
2, 12804, Note_on_c, 0, 78, 93
2, 12816, Note_off_c, 0, 78, 0
2, 12816, Note_on_c, 0, 79, 93
2, 12828, Note_off_c, 0, 79, 0
2, 12828, Note_on_c, 0, 78, 93
2, 12840, Note_off_c, 0, 78, 0
2, 12840, Note_on_c, 0, 76, 93
2, 12852, Note_off_c, 0, 76, 0
2, 12852, Note_on_c, 0, 78, 93
2, 12864, Note_off_c, 0, 78, 0
2, 12864, Note_on_c, 0, 74, 93
2, 12876, Note_off_c, 0, 74, 0
2, 12876, Note_on_c, 0, 77, 93
2, 12888, Note_off_c, 0, 77, 0
2, 12888, Note_on_c, 0, 76, 93
2, 12900, Note_off_c, 0, 76, 0
2, 12900, Note_on_c, 0, 77, 93
2, 12912, Note_off_c, 0, 77, 0
2, 12912, Note_on_c, 0, 79, 93
2, 12924, Note_off_c, 0, 79, 0
2, 12924, Note_on_c, 0, 77, 93
2, 12936, Note_off_c, 0, 77, 0
2, 12936, Note_on_c, 0, 76, 93
2, 12948, Note_off_c, 0, 76, 0
2, 12948, Note_on_c, 0, 74, 93
2, 12960, Note_off_c, 0, 74, 0
2, 12960, Note_on_c, 0, 76, 93
2, 12972, Note_off_c, 0, 76, 0
2, 12972, Note_on_c, 0, 72, 93
2, 12984, Note_off_c, 0, 72, 0
2, 12984, Note_on_c, 0, 71, 93
2, 12996, Note_off_c, 0, 71, 0
2, 12996, Note_on_c, 0, 72, 93
2, 13008, Note_off_c, 0, 72, 0
2, 13008, Note_on_c, 0, 74, 93
2, 13020, Note_off_c, 0, 74, 0
2, 13020, Note_on_c, 0, 72, 93
2, 13032, Note_off_c, 0, 72, 0
2, 13032, Note_on_c, 0, 71, 93
2, 13044, Note_off_c, 0, 71, 0
2, 13044, Note_on_c, 0, 72, 93
2, 13056, Note_off_c, 0, 72, 0
2, 13056, Note_on_c, 0, 74, 93
2, 13068, Note_off_c, 0, 74, 0
2, 13068, Note_on_c, 0, 71, 93
2, 13080, Note_off_c, 0, 71, 0
2, 13080, Note_on_c, 0, 69, 93
2, 13092, Note_off_c, 0, 69, 0
2, 13092, Note_on_c, 0, 71, 93
2, 13104, Note_off_c, 0, 71, 0
2, 13104, Note_on_c, 0, 72, 93
2, 13116, Note_off_c, 0, 72, 0
2, 13116, Note_on_c, 0, 71, 93
2, 13128, Note_off_c, 0, 71, 0
2, 13128, Note_on_c, 0, 69, 93
2, 13140, Note_off_c, 0, 69, 0
2, 13140, Note_on_c, 0, 71, 93
2, 13152, Note_off_c, 0, 71, 0
2, 13152, Note_on_c, 0, 73, 93
2, 13164, Note_off_c, 0, 73, 0
2, 13164, Note_on_c, 0, 70, 93
2, 13176, Note_off_c, 0, 70, 0
2, 13176, Note_on_c, 0, 69, 93
2, 13188, Note_off_c, 0, 69, 0
2, 13188, Note_on_c, 0, 70, 93
2, 13200, Note_off_c, 0, 70, 0
2, 13200, Note_on_c, 0, 72, 93
2, 13212, Note_off_c, 0, 72, 0
2, 13212, Note_on_c, 0, 70, 93
2, 13224, Note_off_c, 0, 70, 0
2, 13224, Note_on_c, 0, 69, 93
2, 13236, Note_off_c, 0, 69, 0
2, 13236, Note_on_c, 0, 67, 93
2, 13248, Note_off_c, 0, 67, 0
2, 13248, Note_on_c, 0, 66, 93
2, 13260, Note_off_c, 0, 66, 0
2, 13260, Note_on_c, 0, 72, 93
2, 13272, Note_off_c, 0, 72, 0
2, 13272, Note_on_c, 0, 71, 93
2, 13284, Note_off_c, 0, 71, 0
2, 13284, Note_on_c, 0, 72, 93
2, 13296, Note_off_c, 0, 72, 0
2, 13296, Note_on_c, 0, 74, 93
2, 13308, Note_off_c, 0, 74, 0
2, 13308, Note_on_c, 0, 72, 93
2, 13320, Note_off_c, 0, 72, 0
2, 13320, Note_on_c, 0, 71, 93
2, 13332, Note_off_c, 0, 71, 0
2, 13332, Note_on_c, 0, 72, 93
2, 13344, Note_off_c, 0, 72, 0
2, 13344, Note_on_c, 0, 78, 93
2, 13356, Note_off_c, 0, 78, 0
2, 13356, Note_on_c, 0, 72, 93
2, 13368, Note_off_c, 0, 72, 0
2, 13368, Note_on_c, 0, 71, 93
2, 13380, Note_off_c, 0, 71, 0
2, 13380, Note_on_c, 0, 72, 93
2, 13392, Note_off_c, 0, 72, 0
2, 13392, Note_on_c, 0, 74, 93
2, 13404, Note_off_c, 0, 74, 0
2, 13404, Note_on_c, 0, 72, 93
2, 13416, Note_off_c, 0, 72, 0
2, 13416, Note_on_c, 0, 71, 93
2, 13428, Note_off_c, 0, 71, 0
2, 13428, Note_on_c, 0, 72, 93
2, 13440, Note_off_c, 0, 72, 0
2, 13440, Note_on_c, 0, 81, 93
2, 13452, Note_off_c, 0, 81, 0
2, 13452, Note_on_c, 0, 72, 93
2, 13464, Note_off_c, 0, 72, 0
2, 13464, Note_on_c, 0, 71, 93
2, 13476, Note_off_c, 0, 71, 0
2, 13476, Note_on_c, 0, 72, 93
2, 13488, Note_off_c, 0, 72, 0
2, 13488, Note_on_c, 0, 74, 93
2, 13500, Note_off_c, 0, 74, 0
2, 13500, Note_on_c, 0, 72, 93
2, 13512, Note_off_c, 0, 72, 0
2, 13512, Note_on_c, 0, 71, 93
2, 13524, Note_off_c, 0, 71, 0
2, 13524, Note_on_c, 0, 69, 93
2, 13536, Note_off_c, 0, 69, 0
2, 13536, Note_on_c, 0, 71, 93
2, 13560, Note_off_c, 0, 71, 0
2, 13560, Note_on_c, 0, 66, 93
2, 13584, Note_off_c, 0, 66, 0
2, 13584, Note_on_c, 0, 66, 93
2, 13608, Note_off_c, 0, 66, 0
2, 13608, Note_on_c, 0, 67, 93
2, 13632, Note_off_c, 0, 67, 0
2, 13632, Note_on_c, 0, 67, 93
2, 13656, Note_off_c, 0, 67, 0
2, 13656, Note_on_c, 0, 60, 93
2, 13680, Note_off_c, 0, 60, 0
2, 13680, Note_on_c, 0, 60, 93
2, 13704, Note_off_c, 0, 60, 0
2, 13704, Note_on_c, 0, 59, 93
2, 13728, Note_off_c, 0, 59, 0
2, 13728, Note_on_c, 0, 59, 93
2, 13824, Note_off_c, 0, 59, 0
2, 13824, Note_on_c, 0, 78, 93
2, 13836, Note_off_c, 0, 78, 0
2, 13836, Note_on_c, 0, 79, 93
2, 13848, Note_off_c, 0, 79, 0
2, 13848, Note_on_c, 0, 78, 93
2, 13860, Note_off_c, 0, 78, 0
2, 13860, Note_on_c, 0, 76, 93
2, 13872, Note_off_c, 0, 76, 0
2, 13872, Note_on_c, 0, 78, 93
2, 13932, Note_off_c, 0, 78, 0
2, 13932, Note_on_c, 0, 76, 93
2, 13944, Note_off_c, 0, 76, 0
2, 13944, Note_on_c, 0, 78, 93
2, 13956, Note_off_c, 0, 78, 0
2, 13956, Note_on_c, 0, 79, 93
2, 13968, Note_off_c, 0, 79, 0
2, 13968, Note_on_c, 0, 81, 93
2, 13992, Note_off_c, 0, 81, 0
2, 13992, Note_on_c, 0, 83, 93
2, 14016, Note_off_c, 0, 83, 0
2, 14016, Note_on_c, 0, 84, 93
2, 14022, Note_off_c, 0, 84, 0
2, 14022, Note_on_c, 0, 83, 93
2, 14040, Note_off_c, 0, 83, 0
2, 14040, Note_on_c, 0, 81, 93
2, 14064, Note_off_c, 0, 81, 0
2, 14064, Note_on_c, 0, 79, 93
2, 14088, Note_off_c, 0, 79, 0
2, 14088, Note_on_c, 0, 78, 93
2, 14112, Note_off_c, 0, 78, 0
2, 14112, Note_on_c, 0, 79, 93
2, 14124, Note_off_c, 0, 79, 0
2, 14124, Note_on_c, 0, 81, 93
2, 14136, Note_off_c, 0, 81, 0
2, 14136, Note_on_c, 0, 79, 93
2, 14148, Note_off_c, 0, 79, 0
2, 14148, Note_on_c, 0, 78, 93
2, 14160, Note_off_c, 0, 78, 0
2, 14160, Note_on_c, 0, 79, 93
2, 14220, Note_off_c, 0, 79, 0
2, 14220, Note_on_c, 0, 66, 93
2, 14232, Note_off_c, 0, 66, 0
2, 14232, Note_on_c, 0, 67, 93
2, 14244, Note_off_c, 0, 67, 0
2, 14244, Note_on_c, 0, 69, 93
2, 14256, Note_off_c, 0, 69, 0
2, 14256, Note_on_c, 0, 71, 93
2, 14280, Note_off_c, 0, 71, 0
2, 14280, Note_on_c, 0, 72, 93
2, 14304, Note_off_c, 0, 72, 0
2, 14304, Note_on_c, 0, 74, 93
2, 14310, Note_off_c, 0, 74, 0
2, 14310, Note_on_c, 0, 72, 93
2, 14328, Note_off_c, 0, 72, 0
2, 14328, Note_on_c, 0, 71, 93
2, 14352, Note_off_c, 0, 71, 0
2, 14352, Note_on_c, 0, 69, 93
2, 14376, Note_off_c, 0, 69, 0
2, 14376, Note_on_c, 0, 67, 93
2, 14400, Note_off_c, 0, 67, 0
2, 14400, Note_on_c, 0, 76, 93
2, 14412, Note_off_c, 0, 76, 0
2, 14412, Note_on_c, 0, 78, 93
2, 14424, Note_off_c, 0, 78, 0
2, 14424, Note_on_c, 0, 76, 93
2, 14436, Note_off_c, 0, 76, 0
2, 14436, Note_on_c, 0, 75, 93
2, 14448, Note_off_c, 0, 75, 0
2, 14448, Note_on_c, 0, 76, 93
2, 14520, Note_off_c, 0, 76, 0
2, 14520, Note_on_c, 0, 80, 93
2, 14544, Note_off_c, 0, 80, 0
2, 14544, Note_on_c, 0, 80, 93
2, 14568, Note_off_c, 0, 80, 0
2, 14568, Note_on_c, 0, 81, 93
2, 14592, Note_off_c, 0, 81, 0
2, 14592, Note_on_c, 0, 81, 93
2, 14616, Note_off_c, 0, 81, 0
2, 14616, Note_on_c, 0, 83, 93
2, 14640, Note_off_c, 0, 83, 0
2, 14640, Note_on_c, 0, 83, 93
2, 14664, Note_off_c, 0, 83, 0
2, 14664, Note_on_c, 0, 84, 93
2, 14688, Note_off_c, 0, 84, 0
2, 14688, Note_on_c, 0, 76, 93
2, 14700, Note_off_c, 0, 76, 0
2, 14700, Note_on_c, 0, 75, 93
2, 14712, Note_off_c, 0, 75, 0
2, 14712, Note_on_c, 0, 73, 93
2, 14736, Note_off_c, 0, 73, 0
2, 14736, Note_on_c, 0, 75, 93
2, 14742, Note_off_c, 0, 75, 0
2, 14742, Note_on_c, 0, 73, 93
2, 14748, Note_off_c, 0, 73, 0
2, 14748, Note_on_c, 0, 75, 93
2, 14844, Note_off_c, 0, 75, 0
2, 14844, Note_on_c, 0, 75, 93
2, 14856, Note_off_c, 0, 75, 0
2, 14856, Note_on_c, 0, 76, 93
2, 14868, Note_off_c, 0, 76, 0
2, 14868, Note_on_c, 0, 78, 93
2, 14880, Note_off_c, 0, 78, 0
2, 14880, Note_on_c, 0, 76, 93
2, 14892, Note_off_c, 0, 76, 0
2, 14892, Note_on_c, 0, 75, 93
2, 14904, Note_off_c, 0, 75, 0
2, 14904, Note_on_c, 0, 73, 93
2, 14916, Note_off_c, 0, 73, 0
2, 14916, Note_on_c, 0, 71, 93
2, 14928, Note_off_c, 0, 71, 0
2, 14928, Note_on_c, 0, 69, 93
2, 14940, Note_off_c, 0, 69, 0
2, 14940, Note_on_c, 0, 67, 93
2, 14952, Note_off_c, 0, 67, 0
2, 14952, Note_on_c, 0, 69, 93
2, 14964, Note_off_c, 0, 69, 0
2, 14964, Note_on_c, 0, 78, 93
2, 14976, Note_off_c, 0, 78, 0
2, 14976, Note_on_c, 0, 67, 93
2, 14988, Note_off_c, 0, 67, 0
2, 14988, Note_on_c, 0, 76, 93
2, 15000, Note_off_c, 0, 76, 0
2, 15000, Note_on_c, 0, 75, 93
2, 15012, Note_off_c, 0, 75, 0
2, 15012, Note_on_c, 0, 76, 93
2, 15024, Note_off_c, 0, 76, 0
2, 15024, Note_on_c, 0, 77, 93
2, 15036, Note_off_c, 0, 77, 0
2, 15036, Note_on_c, 0, 76, 93
2, 15048, Note_off_c, 0, 76, 0
2, 15048, Note_on_c, 0, 75, 93
2, 15060, Note_off_c, 0, 75, 0
2, 15060, Note_on_c, 0, 76, 93
2, 15072, Note_off_c, 0, 76, 0
2, 15072, Note_on_c, 0, 78, 93
2, 15084, Note_off_c, 0, 78, 0
2, 15084, Note_on_c, 0, 76, 93
2, 15096, Note_off_c, 0, 76, 0
2, 15096, Note_on_c, 0, 79, 93
2, 15108, Note_off_c, 0, 79, 0
2, 15108, Note_on_c, 0, 76, 93
2, 15120, Note_off_c, 0, 76, 0
2, 15120, Note_on_c, 0, 81, 93
2, 15132, Note_off_c, 0, 81, 0
2, 15132, Note_on_c, 0, 76, 93
2, 15144, Note_off_c, 0, 76, 0
2, 15144, Note_on_c, 0, 83, 93
2, 15156, Note_off_c, 0, 83, 0
2, 15156, Note_on_c, 0, 76, 93
2, 15168, Note_off_c, 0, 76, 0
2, 15168, Note_on_c, 0, 84, 93
2, 15180, Note_off_c, 0, 84, 0
2, 15180, Note_on_c, 0, 76, 93
2, 15192, Note_off_c, 0, 76, 0
2, 15192, Note_on_c, 0, 86, 93
2, 15204, Note_off_c, 0, 86, 0
2, 15204, Note_on_c, 0, 76, 93
2, 15216, Note_off_c, 0, 76, 0
2, 15216, Note_on_c, 0, 84, 93
2, 15228, Note_off_c, 0, 84, 0
2, 15228, Note_on_c, 0, 76, 93
2, 15240, Note_off_c, 0, 76, 0
2, 15240, Note_on_c, 0, 83, 93
2, 15252, Note_off_c, 0, 83, 0
2, 15252, Note_on_c, 0, 76, 93
2, 15264, Note_off_c, 0, 76, 0
2, 15264, Note_on_c, 0, 84, 93
2, 15276, Note_off_c, 0, 84, 0
2, 15276, Note_on_c, 0, 76, 93
2, 15288, Note_off_c, 0, 76, 0
2, 15288, Note_on_c, 0, 75, 93
2, 15300, Note_off_c, 0, 75, 0
2, 15300, Note_on_c, 0, 76, 93
2, 15312, Note_off_c, 0, 76, 0
2, 15312, Note_on_c, 0, 77, 93
2, 15324, Note_off_c, 0, 77, 0
2, 15324, Note_on_c, 0, 76, 93
2, 15336, Note_off_c, 0, 76, 0
2, 15336, Note_on_c, 0, 75, 93
2, 15348, Note_off_c, 0, 75, 0
2, 15348, Note_on_c, 0, 76, 93
2, 15360, Note_off_c, 0, 76, 0
2, 15360, Note_on_c, 0, 84, 93
2, 15372, Note_off_c, 0, 84, 0
2, 15372, Note_on_c, 0, 76, 93
2, 15384, Note_off_c, 0, 76, 0
2, 15384, Note_on_c, 0, 83, 93
2, 15396, Note_off_c, 0, 83, 0
2, 15396, Note_on_c, 0, 76, 93
2, 15408, Note_off_c, 0, 76, 0
2, 15408, Note_on_c, 0, 81, 93
2, 15420, Note_off_c, 0, 81, 0
2, 15420, Note_on_c, 0, 76, 93
2, 15432, Note_off_c, 0, 76, 0
2, 15432, Note_on_c, 0, 79, 93
2, 15444, Note_off_c, 0, 79, 0
2, 15444, Note_on_c, 0, 76, 93
2, 15456, Note_off_c, 0, 76, 0
2, 15456, Note_on_c, 0, 78, 93
2, 15468, Note_off_c, 0, 78, 0
2, 15468, Note_on_c, 0, 76, 93
2, 15480, Note_off_c, 0, 76, 0
2, 15480, Note_on_c, 0, 79, 93
2, 15492, Note_off_c, 0, 79, 0
2, 15492, Note_on_c, 0, 76, 93
2, 15504, Note_off_c, 0, 76, 0
2, 15504, Note_on_c, 0, 81, 93
2, 15516, Note_off_c, 0, 81, 0
2, 15516, Note_on_c, 0, 76, 93
2, 15528, Note_off_c, 0, 76, 0
2, 15528, Note_on_c, 0, 75, 93
2, 15540, Note_off_c, 0, 75, 0
2, 15540, Note_on_c, 0, 73, 93
2, 15552, Note_off_c, 0, 73, 0
2, 15552, Note_on_c, 0, 75, 93
2, 15564, Note_off_c, 0, 75, 0
2, 15564, Note_on_c, 0, 81, 93
2, 15576, Note_off_c, 0, 81, 0
2, 15576, Note_on_c, 0, 79, 93
2, 15588, Note_off_c, 0, 79, 0
2, 15588, Note_on_c, 0, 81, 93
2, 15600, Note_off_c, 0, 81, 0
2, 15600, Note_on_c, 0, 83, 93
2, 15612, Note_off_c, 0, 83, 0
2, 15612, Note_on_c, 0, 81, 93
2, 15624, Note_off_c, 0, 81, 0
2, 15624, Note_on_c, 0, 79, 93
2, 15636, Note_off_c, 0, 79, 0
2, 15636, Note_on_c, 0, 81, 93
2, 15648, Note_off_c, 0, 81, 0
2, 15648, Note_on_c, 0, 71, 93
2, 15660, Note_off_c, 0, 71, 0
2, 15660, Note_on_c, 0, 79, 93
2, 15672, Note_off_c, 0, 79, 0
2, 15672, Note_on_c, 0, 78, 93
2, 15684, Note_off_c, 0, 78, 0
2, 15684, Note_on_c, 0, 79, 93
2, 15696, Note_off_c, 0, 79, 0
2, 15696, Note_on_c, 0, 81, 93
2, 15708, Note_off_c, 0, 81, 0
2, 15708, Note_on_c, 0, 79, 93
2, 15720, Note_off_c, 0, 79, 0
2, 15720, Note_on_c, 0, 78, 93
2, 15732, Note_off_c, 0, 78, 0
2, 15732, Note_on_c, 0, 79, 93
2, 15744, Note_off_c, 0, 79, 0
2, 15744, Note_on_c, 0, 69, 93
2, 15756, Note_off_c, 0, 69, 0
2, 15756, Note_on_c, 0, 78, 93
2, 15768, Note_off_c, 0, 78, 0
2, 15768, Note_on_c, 0, 76, 93
2, 15780, Note_off_c, 0, 76, 0
2, 15780, Note_on_c, 0, 78, 93
2, 15792, Note_off_c, 0, 78, 0
2, 15792, Note_on_c, 0, 79, 93
2, 15804, Note_off_c, 0, 79, 0
2, 15804, Note_on_c, 0, 81, 93
2, 15816, Note_off_c, 0, 81, 0
2, 15816, Note_on_c, 0, 79, 93
2, 15828, Note_off_c, 0, 79, 0
2, 15828, Note_on_c, 0, 78, 93
2, 15840, Note_off_c, 0, 78, 0
2, 15840, Note_on_c, 0, 79, 93
2, 15864, Note_off_c, 0, 79, 0
2, 15864, Note_on_c, 0, 75, 93
2, 15888, Note_off_c, 0, 75, 0
2, 15888, Note_on_c, 0, 75, 93
2, 15912, Note_off_c, 0, 75, 0
2, 15912, Note_on_c, 0, 76, 93
2, 15936, Note_off_c, 0, 76, 0
2, 15936, Note_on_c, 0, 76, 93
2, 15960, Note_off_c, 0, 76, 0
2, 15960, Note_on_c, 0, 69, 93
2, 15984, Note_off_c, 0, 69, 0
2, 15984, Note_on_c, 0, 69, 93
2, 16008, Note_off_c, 0, 69, 0
2, 16008, Note_on_c, 0, 67, 93
2, 16032, Note_off_c, 0, 67, 0
2, 16032, Note_on_c, 0, 67, 93
2, 16044, Note_off_c, 0, 67, 0
2, 16044, Note_on_c, 0, 66, 93
2, 16056, Note_off_c, 0, 66, 0
2, 16056, Note_on_c, 0, 67, 93
2, 16092, Note_off_c, 0, 67, 0
2, 16092, Note_on_c, 0, 71, 93
2, 16104, Note_off_c, 0, 71, 0
2, 16104, Note_on_c, 0, 72, 93
2, 16116, Note_off_c, 0, 72, 0
2, 16116, Note_on_c, 0, 74, 93
2, 16128, Note_off_c, 0, 74, 0
2, 16128, Note_on_c, 0, 76, 93
2, 16140, Note_off_c, 0, 76, 0
2, 16140, Note_on_c, 0, 77, 93
2, 16152, Note_off_c, 0, 77, 0
2, 16152, Note_on_c, 0, 76, 93
2, 16164, Note_off_c, 0, 76, 0
2, 16164, Note_on_c, 0, 75, 93
2, 16176, Note_off_c, 0, 75, 0
2, 16176, Note_on_c, 0, 76, 93
2, 16248, Note_off_c, 0, 76, 0
2, 16248, Note_on_c, 0, 69, 93
2, 16272, Note_off_c, 0, 69, 0
2, 16272, Note_on_c, 0, 71, 93
2, 16278, Note_off_c, 0, 71, 0
2, 16278, Note_on_c, 0, 69, 93
2, 16296, Note_off_c, 0, 69, 0
2, 16296, Note_on_c, 0, 67, 93
2, 16320, Note_off_c, 0, 67, 0
2, 16320, Note_on_c, 0, 69, 93
2, 16326, Note_off_c, 0, 69, 0
2, 16326, Note_on_c, 0, 67, 93
2, 16344, Note_off_c, 0, 67, 0
2, 16344, Note_on_c, 0, 66, 93
2, 16368, Note_off_c, 0, 66, 0
2, 16368, Note_on_c, 0, 66, 93
2, 16392, Note_off_c, 0, 66, 0
2, 16392, Note_on_c, 0, 76, 93
2, 16416, Note_off_c, 0, 76, 0
2, 16416, Note_on_c, 0, 74, 93
2, 16428, Note_off_c, 0, 74, 0
2, 16428, Note_on_c, 0, 76, 93
2, 16440, Note_off_c, 0, 76, 0
2, 16440, Note_on_c, 0, 74, 93
2, 16452, Note_off_c, 0, 74, 0
2, 16452, Note_on_c, 0, 73, 93
2, 16464, Note_off_c, 0, 73, 0
2, 16464, Note_on_c, 0, 74, 93
2, 16536, Note_off_c, 0, 74, 0
2, 16536, Note_on_c, 0, 67, 93
2, 16560, Note_off_c, 0, 67, 0
2, 16560, Note_on_c, 0, 69, 93
2, 16566, Note_off_c, 0, 69, 0
2, 16566, Note_on_c, 0, 67, 93
2, 16584, Note_off_c, 0, 67, 0
2, 16584, Note_on_c, 0, 65, 93
2, 16608, Note_off_c, 0, 65, 0
2, 16608, Note_on_c, 0, 67, 93
2, 16614, Note_off_c, 0, 67, 0
2, 16614, Note_on_c, 0, 65, 93
2, 16632, Note_off_c, 0, 65, 0
2, 16632, Note_on_c, 0, 64, 93
2, 16656, Note_off_c, 0, 64, 0
2, 16656, Note_on_c, 0, 64, 93
2, 16680, Note_off_c, 0, 64, 0
2, 16680, Note_on_c, 0, 74, 93
2, 16704, Note_off_c, 0, 74, 0
2, 16704, Note_on_c, 0, 72, 93
2, 16716, Note_off_c, 0, 72, 0
2, 16716, Note_on_c, 0, 71, 93
2, 16728, Note_off_c, 0, 71, 0
2, 16728, Note_on_c, 0, 69, 93
2, 16764, Note_off_c, 0, 69, 0
2, 16764, Note_on_c, 0, 67, 93
2, 16776, Note_off_c, 0, 67, 0
2, 16776, Note_on_c, 0, 66, 93
2, 16812, Note_off_c, 0, 66, 0
2, 16812, Note_on_c, 0, 64, 93
2, 16824, Note_off_c, 0, 64, 0
2, 16824, Note_on_c, 0, 62, 93
2, 16860, Note_off_c, 0, 62, 0
2, 16860, Note_on_c, 0, 64, 93
2, 16872, Note_off_c, 0, 64, 0
2, 16872, Note_on_c, 0, 66, 93
2, 16908, Note_off_c, 0, 66, 0
2, 16908, Note_on_c, 0, 67, 93
2, 16920, Note_off_c, 0, 67, 0
2, 16920, Note_on_c, 0, 69, 93
2, 16956, Note_off_c, 0, 69, 0
2, 16956, Note_on_c, 0, 71, 93
2, 16968, Note_off_c, 0, 71, 0
2, 16968, Note_on_c, 0, 72, 93
2, 17004, Note_off_c, 0, 72, 0
2, 17004, Note_on_c, 0, 74, 93
2, 17016, Note_off_c, 0, 74, 0
2, 17016, Note_on_c, 0, 72, 93
2, 17028, Note_off_c, 0, 72, 0
2, 17028, Note_on_c, 0, 71, 93
2, 17040, Note_off_c, 0, 71, 0
2, 17040, Note_on_c, 0, 72, 93
2, 17052, Note_off_c, 0, 72, 0
2, 17052, Note_on_c, 0, 79, 93
2, 17064, Note_off_c, 0, 79, 0
2, 17064, Note_on_c, 0, 78, 93
2, 17076, Note_off_c, 0, 78, 0
2, 17076, Note_on_c, 0, 76, 93
2, 17088, Note_off_c, 0, 76, 0
2, 17088, Note_on_c, 0, 78, 93
2, 17100, Note_off_c, 0, 78, 0
2, 17100, Note_on_c, 0, 83, 93
2, 17112, Note_off_c, 0, 83, 0
2, 17112, Note_on_c, 0, 81, 93
2, 17124, Note_off_c, 0, 81, 0
2, 17124, Note_on_c, 0, 79, 93
2, 17136, Note_off_c, 0, 79, 0
2, 17136, Note_on_c, 0, 81, 93
2, 17148, Note_off_c, 0, 81, 0
2, 17148, Note_on_c, 0, 86, 93
2, 17160, Note_off_c, 0, 86, 0
2, 17160, Note_on_c, 0, 84, 93
2, 17172, Note_off_c, 0, 84, 0
2, 17172, Note_on_c, 0, 83, 93
2, 17184, Note_off_c, 0, 83, 0
2, 17184, Note_on_c, 0, 84, 93
2, 17196, Note_off_c, 0, 84, 0
2, 17196, Note_on_c, 0, 83, 93
2, 17208, Note_off_c, 0, 83, 0
2, 17208, Note_on_c, 0, 81, 93
2, 17220, Note_off_c, 0, 81, 0
2, 17220, Note_on_c, 0, 79, 93
2, 17232, Note_off_c, 0, 79, 0
2, 17232, Note_on_c, 0, 78, 93
2, 17244, Note_off_c, 0, 78, 0
2, 17244, Note_on_c, 0, 76, 93
2, 17256, Note_off_c, 0, 76, 0
2, 17256, Note_on_c, 0, 74, 93
2, 17268, Note_off_c, 0, 74, 0
2, 17268, Note_on_c, 0, 72, 93
2, 17280, Note_off_c, 0, 72, 0
2, 17280, Note_on_c, 0, 71, 93
2, 17292, Note_off_c, 0, 71, 0
2, 17292, Note_on_c, 0, 79, 93
2, 17304, Note_off_c, 0, 79, 0
2, 17304, Note_on_c, 0, 78, 93
2, 17316, Note_off_c, 0, 78, 0
2, 17316, Note_on_c, 0, 79, 93
2, 17328, Note_off_c, 0, 79, 0
2, 17328, Note_on_c, 0, 81, 93
2, 17340, Note_off_c, 0, 81, 0
2, 17340, Note_on_c, 0, 79, 93
2, 17352, Note_off_c, 0, 79, 0
2, 17352, Note_on_c, 0, 78, 93
2, 17364, Note_off_c, 0, 78, 0
2, 17364, Note_on_c, 0, 79, 93
2, 17376, Note_off_c, 0, 79, 0
2, 17376, Note_on_c, 0, 72, 93
2, 17388, Note_off_c, 0, 72, 0
2, 17388, Note_on_c, 0, 78, 93
2, 17400, Note_off_c, 0, 78, 0
2, 17400, Note_on_c, 0, 76, 93
2, 17412, Note_off_c, 0, 76, 0
2, 17412, Note_on_c, 0, 78, 93
2, 17424, Note_off_c, 0, 78, 0
2, 17424, Note_on_c, 0, 79, 93
2, 17436, Note_off_c, 0, 79, 0
2, 17436, Note_on_c, 0, 78, 93
2, 17448, Note_off_c, 0, 78, 0
2, 17448, Note_on_c, 0, 76, 93
2, 17460, Note_off_c, 0, 76, 0
2, 17460, Note_on_c, 0, 78, 93
2, 17472, Note_off_c, 0, 78, 0
2, 17472, Note_on_c, 0, 74, 93
2, 17484, Note_off_c, 0, 74, 0
2, 17484, Note_on_c, 0, 77, 93
2, 17496, Note_off_c, 0, 77, 0
2, 17496, Note_on_c, 0, 76, 93
2, 17508, Note_off_c, 0, 76, 0
2, 17508, Note_on_c, 0, 77, 93
2, 17520, Note_off_c, 0, 77, 0
2, 17520, Note_on_c, 0, 79, 93
2, 17532, Note_off_c, 0, 79, 0
2, 17532, Note_on_c, 0, 77, 93
2, 17544, Note_off_c, 0, 77, 0
2, 17544, Note_on_c, 0, 76, 93
2, 17556, Note_off_c, 0, 76, 0
2, 17556, Note_on_c, 0, 74, 93
2, 17568, Note_off_c, 0, 74, 0
2, 17568, Note_on_c, 0, 76, 93
2, 17580, Note_off_c, 0, 76, 0
2, 17580, Note_on_c, 0, 72, 93
2, 17592, Note_off_c, 0, 72, 0
2, 17592, Note_on_c, 0, 71, 93
2, 17604, Note_off_c, 0, 71, 0
2, 17604, Note_on_c, 0, 72, 93
2, 17616, Note_off_c, 0, 72, 0
2, 17616, Note_on_c, 0, 74, 93
2, 17628, Note_off_c, 0, 74, 0
2, 17628, Note_on_c, 0, 72, 93
2, 17640, Note_off_c, 0, 72, 0
2, 17640, Note_on_c, 0, 71, 93
2, 17652, Note_off_c, 0, 71, 0
2, 17652, Note_on_c, 0, 72, 93
2, 17664, Note_off_c, 0, 72, 0
2, 17664, Note_on_c, 0, 74, 93
2, 17676, Note_off_c, 0, 74, 0
2, 17676, Note_on_c, 0, 71, 93
2, 17688, Note_off_c, 0, 71, 0
2, 17688, Note_on_c, 0, 69, 93
2, 17700, Note_off_c, 0, 69, 0
2, 17700, Note_on_c, 0, 71, 93
2, 17712, Note_off_c, 0, 71, 0
2, 17712, Note_on_c, 0, 72, 93
2, 17724, Note_off_c, 0, 72, 0
2, 17724, Note_on_c, 0, 71, 93
2, 17736, Note_off_c, 0, 71, 0
2, 17736, Note_on_c, 0, 69, 93
2, 17748, Note_off_c, 0, 69, 0
2, 17748, Note_on_c, 0, 71, 93
2, 17760, Note_off_c, 0, 71, 0
2, 17760, Note_on_c, 0, 73, 93
2, 17772, Note_off_c, 0, 73, 0
2, 17772, Note_on_c, 0, 70, 93
2, 17784, Note_off_c, 0, 70, 0
2, 17784, Note_on_c, 0, 69, 93
2, 17796, Note_off_c, 0, 69, 0
2, 17796, Note_on_c, 0, 70, 93
2, 17808, Note_off_c, 0, 70, 0
2, 17808, Note_on_c, 0, 72, 93
2, 17820, Note_off_c, 0, 72, 0
2, 17820, Note_on_c, 0, 70, 93
2, 17832, Note_off_c, 0, 70, 0
2, 17832, Note_on_c, 0, 69, 93
2, 17844, Note_off_c, 0, 69, 0
2, 17844, Note_on_c, 0, 67, 93
2, 17856, Note_off_c, 0, 67, 0
2, 17856, Note_on_c, 0, 66, 93
2, 17868, Note_off_c, 0, 66, 0
2, 17868, Note_on_c, 0, 72, 93
2, 17880, Note_off_c, 0, 72, 0
2, 17880, Note_on_c, 0, 71, 93
2, 17892, Note_off_c, 0, 71, 0
2, 17892, Note_on_c, 0, 72, 93
2, 17904, Note_off_c, 0, 72, 0
2, 17904, Note_on_c, 0, 74, 93
2, 17916, Note_off_c, 0, 74, 0
2, 17916, Note_on_c, 0, 72, 93
2, 17928, Note_off_c, 0, 72, 0
2, 17928, Note_on_c, 0, 71, 93
2, 17940, Note_off_c, 0, 71, 0
2, 17940, Note_on_c, 0, 72, 93
2, 17952, Note_off_c, 0, 72, 0
2, 17952, Note_on_c, 0, 78, 93
2, 17964, Note_off_c, 0, 78, 0
2, 17964, Note_on_c, 0, 72, 93
2, 17976, Note_off_c, 0, 72, 0
2, 17976, Note_on_c, 0, 71, 93
2, 17988, Note_off_c, 0, 71, 0
2, 17988, Note_on_c, 0, 72, 93
2, 18000, Note_off_c, 0, 72, 0
2, 18000, Note_on_c, 0, 74, 93
2, 18012, Note_off_c, 0, 74, 0
2, 18012, Note_on_c, 0, 72, 93
2, 18024, Note_off_c, 0, 72, 0
2, 18024, Note_on_c, 0, 71, 93
2, 18036, Note_off_c, 0, 71, 0
2, 18036, Note_on_c, 0, 72, 93
2, 18048, Note_off_c, 0, 72, 0
2, 18048, Note_on_c, 0, 81, 93
2, 18060, Note_off_c, 0, 81, 0
2, 18060, Note_on_c, 0, 72, 93
2, 18072, Note_off_c, 0, 72, 0
2, 18072, Note_on_c, 0, 71, 93
2, 18084, Note_off_c, 0, 71, 0
2, 18084, Note_on_c, 0, 72, 93
2, 18096, Note_off_c, 0, 72, 0
2, 18096, Note_on_c, 0, 74, 93
2, 18108, Note_off_c, 0, 74, 0
2, 18108, Note_on_c, 0, 72, 93
2, 18120, Note_off_c, 0, 72, 0
2, 18120, Note_on_c, 0, 71, 93
2, 18132, Note_off_c, 0, 71, 0
2, 18132, Note_on_c, 0, 69, 93
2, 18144, Note_off_c, 0, 69, 0
2, 18144, Note_on_c, 0, 71, 93
2, 18168, Note_off_c, 0, 71, 0
2, 18168, Note_on_c, 0, 66, 93
2, 18192, Note_off_c, 0, 66, 0
2, 18192, Note_on_c, 0, 66, 93
2, 18216, Note_off_c, 0, 66, 0
2, 18216, Note_on_c, 0, 67, 93
2, 18240, Note_off_c, 0, 67, 0
2, 18240, Note_on_c, 0, 67, 93
2, 18264, Note_off_c, 0, 67, 0
2, 18264, Note_on_c, 0, 60, 93
2, 18288, Note_off_c, 0, 60, 0
2, 18288, Note_on_c, 0, 60, 93
2, 18312, Note_off_c, 0, 60, 0
2, 18312, Note_on_c, 0, 59, 93
2, 18336, Note_off_c, 0, 59, 0
2, 18336, Note_on_c, 0, 59, 93
2, 18432, Note_off_c, 0, 59, 0
2, 18432, End_track
3, 0, Start_track
3, 0, Title_t, "Track3"
3, 0, Program_c, 1, 6
3, 0, Control_c, 1, 7, 100
3, 0, Control_c, 1, 10, 64
3, 72, Note_on_c, 1, 59, 93
3, 96, Note_off_c, 1, 59, 0
3, 96, Note_on_c, 1, 62, 93
3, 360, Note_off_c, 1, 62, 0
3, 360, Note_on_c, 1, 57, 93
3, 384, Note_off_c, 1, 57, 0
3, 384, Note_on_c, 1, 62, 93
3, 648, Note_off_c, 1, 62, 0
3, 648, Note_on_c, 1, 59, 93
3, 672, Note_off_c, 1, 59, 0
3, 672, Note_on_c, 1, 61, 93
3, 864, Note_off_c, 1, 61, 0
3, 936, Note_on_c, 1, 54, 93
3, 960, Note_off_c, 1, 54, 0
3, 960, Note_on_c, 1, 57, 93
3, 1152, Note_off_c, 1, 57, 0
3, 1224, Note_on_c, 1, 50, 93
3, 1248, Note_off_c, 1, 50, 0
3, 1248, Note_on_c, 1, 55, 93
3, 1512, Note_off_c, 1, 55, 0
3, 1512, Note_on_c, 1, 54, 93
3, 1536, Note_off_c, 1, 54, 0
3, 1536, Note_on_c, 1, 55, 93
3, 1800, Note_off_c, 1, 55, 0
3, 1800, Note_on_c, 1, 52, 93
3, 1824, Note_off_c, 1, 52, 0
3, 1824, Note_on_c, 1, 54, 93
3, 2016, Note_off_c, 1, 54, 0
3, 2088, Note_on_c, 1, 50, 93
3, 2112, Note_off_c, 1, 50, 0
3, 2112, Note_on_c, 1, 55, 93
3, 2208, Note_off_c, 1, 55, 0
3, 2352, Note_on_c, 1, 59, 93
3, 2400, Note_off_c, 1, 59, 0
3, 2400, Note_on_c, 1, 64, 93
3, 2640, Note_off_c, 1, 64, 0
3, 2640, Note_on_c, 1, 57, 93
3, 2688, Note_off_c, 1, 57, 0
3, 2688, Note_on_c, 1, 62, 93
3, 2928, Note_off_c, 1, 62, 0
3, 2928, Note_on_c, 1, 59, 93
3, 2976, Note_off_c, 1, 59, 0
3, 2976, Note_on_c, 1, 55, 93
3, 3192, Note_off_c, 1, 55, 0
3, 3192, Note_on_c, 1, 57, 93
3, 3216, Note_off_c, 1, 57, 0
3, 3216, Note_on_c, 1, 55, 93
3, 3240, Note_off_c, 1, 55, 0
3, 3240, Note_on_c, 1, 54, 93
3, 3264, Note_off_c, 1, 54, 0
3, 3264, Note_on_c, 1, 55, 93
3, 3312, Note_off_c, 1, 55, 0
3, 3504, Note_on_c, 1, 57, 93
3, 3552, Note_off_c, 1, 57, 0
3, 3552, Note_on_c, 1, 62, 93
3, 3696, Note_off_c, 1, 62, 0
3, 3696, Note_on_c, 1, 57, 93
3, 3744, Note_off_c, 1, 57, 0
3, 3744, Note_on_c, 1, 55, 93
3, 3792, Note_off_c, 1, 55, 0
3, 3792, Note_on_c, 1, 59, 93
3, 3840, Note_off_c, 1, 59, 0
3, 3840, Note_on_c, 1, 64, 93
3, 3984, Note_off_c, 1, 64, 0
3, 3984, Note_on_c, 1, 59, 93
3, 4032, Note_off_c, 1, 59, 0
3, 4032, Note_on_c, 1, 57, 93
3, 4080, Note_off_c, 1, 57, 0
3, 4080, Note_on_c, 1, 61, 93
3, 4128, Note_off_c, 1, 61, 0
3, 4128, Note_on_c, 1, 67, 93
3, 4176, Note_off_c, 1, 67, 0
3, 4176, Note_on_c, 1, 64, 93
3, 4224, Note_off_c, 1, 64, 0
3, 4224, Note_on_c, 1, 61, 93
3, 4320, Note_off_c, 1, 61, 0
3, 4320, Note_on_c, 1, 62, 93
3, 4368, Note_off_c, 1, 62, 0
3, 4368, Note_on_c, 1, 52, 93
3, 4416, Note_off_c, 1, 52, 0
3, 4416, Note_on_c, 1, 54, 93
3, 4464, Note_off_c, 1, 54, 0
3, 4464, Note_on_c, 1, 58, 93
3, 4512, Note_off_c, 1, 58, 0
3, 4512, Note_on_c, 1, 57, 93
3, 4608, Note_off_c, 1, 57, 0
3, 4680, Note_on_c, 1, 59, 93
3, 4704, Note_off_c, 1, 59, 0
3, 4704, Note_on_c, 1, 62, 93
3, 4968, Note_off_c, 1, 62, 0
3, 4968, Note_on_c, 1, 57, 93
3, 4992, Note_off_c, 1, 57, 0
3, 4992, Note_on_c, 1, 62, 93
3, 5256, Note_off_c, 1, 62, 0
3, 5256, Note_on_c, 1, 59, 93
3, 5280, Note_off_c, 1, 59, 0
3, 5280, Note_on_c, 1, 61, 93
3, 5472, Note_off_c, 1, 61, 0
3, 5544, Note_on_c, 1, 54, 93
3, 5568, Note_off_c, 1, 54, 0
3, 5568, Note_on_c, 1, 57, 93
3, 5760, Note_off_c, 1, 57, 0
3, 5832, Note_on_c, 1, 50, 93
3, 5856, Note_off_c, 1, 50, 0
3, 5856, Note_on_c, 1, 55, 93
3, 6120, Note_off_c, 1, 55, 0
3, 6120, Note_on_c, 1, 54, 93
3, 6144, Note_off_c, 1, 54, 0
3, 6144, Note_on_c, 1, 55, 93
3, 6408, Note_off_c, 1, 55, 0
3, 6408, Note_on_c, 1, 52, 93
3, 6432, Note_off_c, 1, 52, 0
3, 6432, Note_on_c, 1, 54, 93
3, 6624, Note_off_c, 1, 54, 0
3, 6696, Note_on_c, 1, 50, 93
3, 6720, Note_off_c, 1, 50, 0
3, 6720, Note_on_c, 1, 55, 93
3, 6816, Note_off_c, 1, 55, 0
3, 6960, Note_on_c, 1, 59, 93
3, 7008, Note_off_c, 1, 59, 0
3, 7008, Note_on_c, 1, 64, 93
3, 7248, Note_off_c, 1, 64, 0
3, 7248, Note_on_c, 1, 57, 93
3, 7296, Note_off_c, 1, 57, 0
3, 7296, Note_on_c, 1, 62, 93
3, 7536, Note_off_c, 1, 62, 0
3, 7536, Note_on_c, 1, 59, 93
3, 7584, Note_off_c, 1, 59, 0
3, 7584, Note_on_c, 1, 55, 93
3, 7800, Note_off_c, 1, 55, 0
3, 7800, Note_on_c, 1, 57, 93
3, 7824, Note_off_c, 1, 57, 0
3, 7824, Note_on_c, 1, 55, 93
3, 7848, Note_off_c, 1, 55, 0
3, 7848, Note_on_c, 1, 54, 93
3, 7872, Note_off_c, 1, 54, 0
3, 7872, Note_on_c, 1, 55, 93
3, 7920, Note_off_c, 1, 55, 0
3, 8112, Note_on_c, 1, 57, 93
3, 8160, Note_off_c, 1, 57, 0
3, 8160, Note_on_c, 1, 62, 93
3, 8304, Note_off_c, 1, 62, 0
3, 8304, Note_on_c, 1, 57, 93
3, 8352, Note_off_c, 1, 57, 0
3, 8352, Note_on_c, 1, 55, 93
3, 8400, Note_off_c, 1, 55, 0
3, 8400, Note_on_c, 1, 59, 93
3, 8448, Note_off_c, 1, 59, 0
3, 8448, Note_on_c, 1, 64, 93
3, 8592, Note_off_c, 1, 64, 0
3, 8592, Note_on_c, 1, 59, 93
3, 8640, Note_off_c, 1, 59, 0
3, 8640, Note_on_c, 1, 57, 93
3, 8688, Note_off_c, 1, 57, 0
3, 8688, Note_on_c, 1, 61, 93
3, 8736, Note_off_c, 1, 61, 0
3, 8736, Note_on_c, 1, 67, 93
3, 8784, Note_off_c, 1, 67, 0
3, 8784, Note_on_c, 1, 64, 93
3, 8832, Note_off_c, 1, 64, 0
3, 8832, Note_on_c, 1, 61, 93
3, 8928, Note_off_c, 1, 61, 0
3, 8928, Note_on_c, 1, 62, 93
3, 8976, Note_off_c, 1, 62, 0
3, 8976, Note_on_c, 1, 52, 93
3, 9024, Note_off_c, 1, 52, 0
3, 9024, Note_on_c, 1, 54, 93
3, 9072, Note_off_c, 1, 54, 0
3, 9072, Note_on_c, 1, 58, 93
3, 9120, Note_off_c, 1, 58, 0
3, 9120, Note_on_c, 1, 57, 93
3, 9216, Note_off_c, 1, 57, 0
3, 9288, Note_on_c, 1, 66, 93
3, 9312, Note_off_c, 1, 66, 0
3, 9312, Note_on_c, 1, 69, 93
3, 9504, Note_off_c, 1, 69, 0
3, 9576, Note_on_c, 1, 62, 93
3, 9600, Note_off_c, 1, 62, 0
3, 9600, Note_on_c, 1, 67, 93
3, 9864, Note_off_c, 1, 67, 0
3, 9864, Note_on_c, 1, 68, 93
3, 9888, Note_off_c, 1, 68, 0
3, 9888, Note_on_c, 1, 69, 93
3, 9936, Note_off_c, 1, 69, 0
3, 9936, Note_on_c, 1, 62, 93
3, 9984, Note_off_c, 1, 62, 0
3, 9984, Note_on_c, 1, 64, 93
3, 10032, Note_off_c, 1, 64, 0
3, 10032, Note_on_c, 1, 67, 93
3, 10128, Note_off_c, 1, 67, 0
3, 10128, Note_on_c, 1, 66, 93
3, 10152, Note_off_c, 1, 66, 0
3, 10152, Note_on_c, 1, 64, 93
3, 10176, Note_off_c, 1, 64, 0
3, 10176, Note_on_c, 1, 66, 93
3, 10224, Note_off_c, 1, 66, 0
3, 10416, Note_on_c, 1, 59, 93
3, 10512, Note_off_c, 1, 59, 0
3, 10512, Note_on_c, 1, 57, 93
3, 10608, Note_off_c, 1, 57, 0
3, 10608, Note_on_c, 1, 56, 93
3, 10656, Note_off_c, 1, 56, 0
3, 10704, Note_on_c, 1, 60, 93
3, 10800, Note_off_c, 1, 60, 0
3, 10800, Note_on_c, 1, 64, 93
3, 10848, Note_off_c, 1, 64, 0
3, 10848, Note_on_c, 1, 60, 93
3, 10896, Note_off_c, 1, 60, 0
3, 10896, Note_on_c, 1, 57, 93
3, 10944, Note_off_c, 1, 57, 0
3, 10992, Note_on_c, 1, 54, 93
3, 11040, Note_off_c, 1, 54, 0
3, 11040, Note_on_c, 1, 55, 93
3, 11088, Note_off_c, 1, 55, 0
3, 11088, Note_on_c, 1, 64, 93
3, 11184, Note_off_c, 1, 64, 0
3, 11184, Note_on_c, 1, 63, 93
3, 11232, Note_off_c, 1, 63, 0
3, 11232, Note_on_c, 1, 64, 93
3, 11280, Note_off_c, 1, 64, 0
3, 11280, Note_on_c, 1, 54, 93
3, 11328, Note_off_c, 1, 54, 0
3, 11328, Note_on_c, 1, 55, 93
3, 11376, Note_off_c, 1, 55, 0
3, 11376, Note_on_c, 1, 63, 93
3, 11424, Note_off_c, 1, 63, 0
3, 11424, Note_on_c, 1, 64, 93
3, 11472, Note_off_c, 1, 64, 0
3, 11592, Note_on_c, 1, 55, 93
3, 11616, Note_off_c, 1, 55, 0
3, 11616, Note_on_c, 1, 60, 93
3, 11640, Note_off_c, 1, 60, 0
3, 11640, Note_on_c, 1, 62, 93
3, 11664, Note_off_c, 1, 62, 0
3, 11664, Note_on_c, 1, 64, 93
3, 11712, Note_off_c, 1, 64, 0
3, 11712, Note_on_c, 1, 62, 93
3, 11760, Note_off_c, 1, 62, 0
3, 11760, Note_on_c, 1, 61, 93
3, 11808, Note_off_c, 1, 61, 0
3, 11808, Note_on_c, 1, 59, 93
3, 11880, Note_off_c, 1, 59, 0
3, 11880, Note_on_c, 1, 54, 93
3, 11904, Note_off_c, 1, 54, 0
3, 11904, Note_on_c, 1, 59, 93
3, 11928, Note_off_c, 1, 59, 0
3, 11928, Note_on_c, 1, 60, 93
3, 11952, Note_off_c, 1, 60, 0
3, 11952, Note_on_c, 1, 62, 93
3, 12000, Note_off_c, 1, 62, 0
3, 12000, Note_on_c, 1, 60, 93
3, 12048, Note_off_c, 1, 60, 0
3, 12048, Note_on_c, 1, 59, 93
3, 12096, Note_off_c, 1, 59, 0
3, 12096, Note_on_c, 1, 57, 93
3, 12144, Note_off_c, 1, 57, 0
3, 12144, Note_on_c, 1, 52, 93
3, 12192, Note_off_c, 1, 52, 0
3, 12192, Note_on_c, 1, 57, 93
3, 12240, Note_off_c, 1, 57, 0
3, 12240, Note_on_c, 1, 60, 93
3, 12288, Note_off_c, 1, 60, 0
3, 12288, Note_on_c, 1, 57, 93
3, 12336, Note_off_c, 1, 57, 0
3, 12336, Note_on_c, 1, 54, 93
3, 12384, Note_off_c, 1, 54, 0
3, 12384, Note_on_c, 1, 50, 93
3, 12480, Note_off_c, 1, 50, 0
3, 12720, Note_on_c, 1, 64, 93
3, 12768, Note_off_c, 1, 64, 0
3, 12768, Note_on_c, 1, 63, 93
3, 12816, Note_off_c, 1, 63, 0
3, 12816, Note_on_c, 1, 62, 93
3, 12864, Note_off_c, 1, 62, 0
3, 12864, Note_on_c, 1, 67, 93
3, 12912, Note_off_c, 1, 67, 0
3, 12912, Note_on_c, 1, 59, 93
3, 12960, Note_off_c, 1, 59, 0
3, 12960, Note_on_c, 1, 60, 93
3, 13008, Note_off_c, 1, 60, 0
3, 13008, Note_on_c, 1, 55, 93
3, 13056, Note_off_c, 1, 55, 0
3, 13056, Note_on_c, 1, 57, 93
3, 13104, Note_off_c, 1, 57, 0
3, 13104, Note_on_c, 1, 62, 93
3, 13152, Note_off_c, 1, 62, 0
3, 13152, Note_on_c, 1, 64, 93
3, 13200, Note_off_c, 1, 64, 0
3, 13200, Note_on_c, 1, 57, 93
3, 13296, Note_off_c, 1, 57, 0
3, 13296, Note_on_c, 1, 57, 93
3, 13320, Note_off_c, 1, 57, 0
3, 13320, Note_on_c, 1, 55, 93
3, 13344, Note_off_c, 1, 55, 0
3, 13344, Note_on_c, 1, 57, 93
3, 13440, Note_off_c, 1, 57, 0
3, 13440, Note_on_c, 1, 55, 93
3, 13488, Note_off_c, 1, 55, 0
3, 13488, Note_on_c, 1, 54, 93
3, 13536, Note_off_c, 1, 54, 0
3, 13536, Note_on_c, 1, 55, 93
3, 13584, Note_off_c, 1, 55, 0
3, 13584, Note_on_c, 1, 57, 93
3, 13632, Note_off_c, 1, 57, 0
3, 13632, Note_on_c, 1, 59, 93
3, 13680, Note_off_c, 1, 59, 0
3, 13680, Note_on_c, 1, 54, 93
3, 13728, Note_off_c, 1, 54, 0
3, 13728, Note_on_c, 1, 55, 93
3, 13824, Note_off_c, 1, 55, 0
3, 13896, Note_on_c, 1, 66, 93
3, 13920, Note_off_c, 1, 66, 0
3, 13920, Note_on_c, 1, 69, 93
3, 14112, Note_off_c, 1, 69, 0
3, 14184, Note_on_c, 1, 62, 93
3, 14208, Note_off_c, 1, 62, 0
3, 14208, Note_on_c, 1, 67, 93
3, 14472, Note_off_c, 1, 67, 0
3, 14472, Note_on_c, 1, 68, 93
3, 14496, Note_off_c, 1, 68, 0
3, 14496, Note_on_c, 1, 69, 93
3, 14544, Note_off_c, 1, 69, 0
3, 14544, Note_on_c, 1, 62, 93
3, 14592, Note_off_c, 1, 62, 0
3, 14592, Note_on_c, 1, 64, 93
3, 14640, Note_off_c, 1, 64, 0
3, 14640, Note_on_c, 1, 67, 93
3, 14736, Note_off_c, 1, 67, 0
3, 14736, Note_on_c, 1, 66, 93
3, 14760, Note_off_c, 1, 66, 0
3, 14760, Note_on_c, 1, 64, 93
3, 14784, Note_off_c, 1, 64, 0
3, 14784, Note_on_c, 1, 66, 93
3, 14832, Note_off_c, 1, 66, 0
3, 15024, Note_on_c, 1, 59, 93
3, 15120, Note_off_c, 1, 59, 0
3, 15120, Note_on_c, 1, 57, 93
3, 15216, Note_off_c, 1, 57, 0
3, 15216, Note_on_c, 1, 56, 93
3, 15264, Note_off_c, 1, 56, 0
3, 15312, Note_on_c, 1, 60, 93
3, 15408, Note_off_c, 1, 60, 0
3, 15408, Note_on_c, 1, 64, 93
3, 15456, Note_off_c, 1, 64, 0
3, 15456, Note_on_c, 1, 60, 93
3, 15504, Note_off_c, 1, 60, 0
3, 15504, Note_on_c, 1, 57, 93
3, 15552, Note_off_c, 1, 57, 0
3, 15600, Note_on_c, 1, 54, 93
3, 15648, Note_off_c, 1, 54, 0
3, 15648, Note_on_c, 1, 55, 93
3, 15696, Note_off_c, 1, 55, 0
3, 15696, Note_on_c, 1, 64, 93
3, 15792, Note_off_c, 1, 64, 0
3, 15792, Note_on_c, 1, 63, 93
3, 15840, Note_off_c, 1, 63, 0
3, 15840, Note_on_c, 1, 64, 93
3, 15888, Note_off_c, 1, 64, 0
3, 15888, Note_on_c, 1, 54, 93
3, 15936, Note_off_c, 1, 54, 0
3, 15936, Note_on_c, 1, 55, 93
3, 15984, Note_off_c, 1, 55, 0
3, 15984, Note_on_c, 1, 63, 93
3, 16032, Note_off_c, 1, 63, 0
3, 16032, Note_on_c, 1, 64, 93
3, 16080, Note_off_c, 1, 64, 0
3, 16200, Note_on_c, 1, 55, 93
3, 16224, Note_off_c, 1, 55, 0
3, 16224, Note_on_c, 1, 60, 93
3, 16248, Note_off_c, 1, 60, 0
3, 16248, Note_on_c, 1, 62, 93
3, 16272, Note_off_c, 1, 62, 0
3, 16272, Note_on_c, 1, 64, 93
3, 16320, Note_off_c, 1, 64, 0
3, 16320, Note_on_c, 1, 62, 93
3, 16368, Note_off_c, 1, 62, 0
3, 16368, Note_on_c, 1, 61, 93
3, 16416, Note_off_c, 1, 61, 0
3, 16416, Note_on_c, 1, 59, 93
3, 16488, Note_off_c, 1, 59, 0
3, 16488, Note_on_c, 1, 54, 93
3, 16512, Note_off_c, 1, 54, 0
3, 16512, Note_on_c, 1, 59, 93
3, 16536, Note_off_c, 1, 59, 0
3, 16536, Note_on_c, 1, 60, 93
3, 16560, Note_off_c, 1, 60, 0
3, 16560, Note_on_c, 1, 62, 93
3, 16608, Note_off_c, 1, 62, 0
3, 16608, Note_on_c, 1, 60, 93
3, 16656, Note_off_c, 1, 60, 0
3, 16656, Note_on_c, 1, 59, 93
3, 16704, Note_off_c, 1, 59, 0
3, 16704, Note_on_c, 1, 57, 93
3, 16752, Note_off_c, 1, 57, 0
3, 16752, Note_on_c, 1, 52, 93
3, 16800, Note_off_c, 1, 52, 0
3, 16800, Note_on_c, 1, 57, 93
3, 16848, Note_off_c, 1, 57, 0
3, 16848, Note_on_c, 1, 60, 93
3, 16896, Note_off_c, 1, 60, 0
3, 16896, Note_on_c, 1, 57, 93
3, 16944, Note_off_c, 1, 57, 0
3, 16944, Note_on_c, 1, 54, 93
3, 16992, Note_off_c, 1, 54, 0
3, 16992, Note_on_c, 1, 50, 93
3, 17088, Note_off_c, 1, 50, 0
3, 17328, Note_on_c, 1, 64, 93
3, 17376, Note_off_c, 1, 64, 0
3, 17376, Note_on_c, 1, 63, 93
3, 17424, Note_off_c, 1, 63, 0
3, 17424, Note_on_c, 1, 62, 93
3, 17472, Note_off_c, 1, 62, 0
3, 17472, Note_on_c, 1, 67, 93
3, 17520, Note_off_c, 1, 67, 0
3, 17520, Note_on_c, 1, 59, 93
3, 17568, Note_off_c, 1, 59, 0
3, 17568, Note_on_c, 1, 60, 93
3, 17616, Note_off_c, 1, 60, 0
3, 17616, Note_on_c, 1, 55, 93
3, 17664, Note_off_c, 1, 55, 0
3, 17664, Note_on_c, 1, 57, 93
3, 17712, Note_off_c, 1, 57, 0
3, 17712, Note_on_c, 1, 62, 93
3, 17760, Note_off_c, 1, 62, 0
3, 17760, Note_on_c, 1, 64, 93
3, 17808, Note_off_c, 1, 64, 0
3, 17808, Note_on_c, 1, 57, 93
3, 17904, Note_off_c, 1, 57, 0
3, 17904, Note_on_c, 1, 57, 93
3, 17928, Note_off_c, 1, 57, 0
3, 17928, Note_on_c, 1, 55, 93
3, 17952, Note_off_c, 1, 55, 0
3, 17952, Note_on_c, 1, 57, 93
3, 18048, Note_off_c, 1, 57, 0
3, 18048, Note_on_c, 1, 55, 93
3, 18096, Note_off_c, 1, 55, 0
3, 18096, Note_on_c, 1, 54, 93
3, 18144, Note_off_c, 1, 54, 0
3, 18144, Note_on_c, 1, 55, 93
3, 18192, Note_off_c, 1, 55, 0
3, 18192, Note_on_c, 1, 57, 93
3, 18240, Note_off_c, 1, 57, 0
3, 18240, Note_on_c, 1, 59, 93
3, 18288, Note_off_c, 1, 59, 0
3, 18288, Note_on_c, 1, 54, 93
3, 18336, Note_off_c, 1, 54, 0
3, 18336, Note_on_c, 1, 55, 93
3, 18432, Note_off_c, 1, 55, 0
3, 18432, End_track
4, 0, Start_track
4, 0, Title_t, "Track4"
4, 0, Program_c, 2, 6
4, 0, Control_c, 2, 7, 100
4, 0, Control_c, 2, 10, 54
4, 0, Note_on_c, 2, 55, 93
4, 144, Note_off_c, 2, 55, 0
4, 144, Note_on_c, 2, 55, 93
4, 192, Note_off_c, 2, 55, 0
4, 192, Note_on_c, 2, 54, 93
4, 240, Note_off_c, 2, 54, 0
4, 240, Note_on_c, 2, 52, 93
4, 288, Note_off_c, 2, 52, 0
4, 288, Note_on_c, 2, 54, 93
4, 432, Note_off_c, 2, 54, 0
4, 432, Note_on_c, 2, 59, 93
4, 480, Note_off_c, 2, 59, 0
4, 480, Note_on_c, 2, 57, 93
4, 528, Note_off_c, 2, 57, 0
4, 528, Note_on_c, 2, 59, 93
4, 576, Note_off_c, 2, 59, 0
4, 576, Note_on_c, 2, 52, 93
4, 720, Note_off_c, 2, 52, 0
4, 720, Note_on_c, 2, 57, 93
4, 768, Note_off_c, 2, 57, 0
4, 768, Note_on_c, 2, 55, 93
4, 816, Note_off_c, 2, 55, 0
4, 816, Note_on_c, 2, 57, 93
4, 864, Note_off_c, 2, 57, 0
4, 864, Note_on_c, 2, 50, 93
4, 1008, Note_off_c, 2, 50, 0
4, 1008, Note_on_c, 2, 52, 93
4, 1056, Note_off_c, 2, 52, 0
4, 1056, Note_on_c, 2, 50, 93
4, 1104, Note_off_c, 2, 50, 0
4, 1104, Note_on_c, 2, 48, 93
4, 1152, Note_off_c, 2, 48, 0
4, 1152, Note_on_c, 2, 47, 93
4, 1296, Note_off_c, 2, 47, 0
4, 1296, Note_on_c, 2, 43, 93
4, 1344, Note_off_c, 2, 43, 0
4, 1344, Note_on_c, 2, 45, 93
4, 1392, Note_off_c, 2, 45, 0
4, 1392, Note_on_c, 2, 47, 93
4, 1440, Note_off_c, 2, 47, 0
4, 1440, Note_on_c, 2, 48, 93
4, 1584, Note_off_c, 2, 48, 0
4, 1584, Note_on_c, 2, 45, 93
4, 1632, Note_off_c, 2, 45, 0
4, 1632, Note_on_c, 2, 47, 93
4, 1680, Note_off_c, 2, 47, 0
4, 1680, Note_on_c, 2, 48, 93
4, 1728, Note_off_c, 2, 48, 0
4, 1728, Note_on_c, 2, 50, 93
4, 1872, Note_off_c, 2, 50, 0
4, 1872, Note_on_c, 2, 50, 93
4, 1920, Note_off_c, 2, 50, 0
4, 1920, Note_on_c, 2, 48, 93
4, 1968, Note_off_c, 2, 48, 0
4, 1968, Note_on_c, 2, 50, 93
4, 2016, Note_off_c, 2, 50, 0
4, 2016, Note_on_c, 2, 43, 93
4, 2160, Note_off_c, 2, 43, 0
4, 2160, Note_on_c, 2, 43, 93
4, 2208, Note_off_c, 2, 43, 0
4, 2208, Note_on_c, 2, 47, 93
4, 2256, Note_off_c, 2, 47, 0
4, 2256, Note_on_c, 2, 50, 93
4, 2304, Note_off_c, 2, 50, 0
4, 2304, Note_on_c, 2, 55, 93
4, 2448, Note_off_c, 2, 55, 0
4, 2448, Note_on_c, 2, 55, 93
4, 2496, Note_off_c, 2, 55, 0
4, 2496, Note_on_c, 2, 54, 93
4, 2544, Note_off_c, 2, 54, 0
4, 2544, Note_on_c, 2, 52, 93
4, 2592, Note_off_c, 2, 52, 0
4, 2592, Note_on_c, 2, 54, 93
4, 2736, Note_off_c, 2, 54, 0
4, 2736, Note_on_c, 2, 59, 93
4, 2784, Note_off_c, 2, 59, 0
4, 2784, Note_on_c, 2, 57, 93
4, 2832, Note_off_c, 2, 57, 0
4, 2832, Note_on_c, 2, 59, 93
4, 2880, Note_off_c, 2, 59, 0
4, 2880, Note_on_c, 2, 52, 93
4, 3024, Note_off_c, 2, 52, 0
4, 3024, Note_on_c, 2, 54, 93
4, 3072, Note_off_c, 2, 54, 0
4, 3072, Note_on_c, 2, 52, 93
4, 3120, Note_off_c, 2, 52, 0
4, 3120, Note_on_c, 2, 50, 93
4, 3168, Note_off_c, 2, 50, 0
4, 3168, Note_on_c, 2, 49, 93
4, 3312, Note_off_c, 2, 49, 0
4, 3312, Note_on_c, 2, 52, 93
4, 3360, Note_off_c, 2, 52, 0
4, 3360, Note_on_c, 2, 45, 93
4, 3408, Note_off_c, 2, 45, 0
4, 3408, Note_on_c, 2, 43, 93
4, 3456, Note_off_c, 2, 43, 0
4, 3456, Note_on_c, 2, 42, 93
4, 3504, Note_off_c, 2, 42, 0
4, 3504, Note_on_c, 2, 54, 93
4, 3540, Note_off_c, 2, 54, 0
4, 3540, Note_on_c, 2, 52, 93
4, 3552, Note_off_c, 2, 52, 0
4, 3552, Note_on_c, 2, 54, 93
4, 3600, Note_off_c, 2, 54, 0
4, 3600, Note_on_c, 2, 57, 93
4, 3648, Note_off_c, 2, 57, 0
4, 3648, Note_on_c, 2, 50, 93
4, 3696, Note_off_c, 2, 50, 0
4, 3696, Note_on_c, 2, 54, 93
4, 3744, Note_off_c, 2, 54, 0
4, 3744, Note_on_c, 2, 43, 93
4, 3792, Note_off_c, 2, 43, 0
4, 3792, Note_on_c, 2, 55, 93
4, 3828, Note_off_c, 2, 55, 0
4, 3828, Note_on_c, 2, 54, 93
4, 3840, Note_off_c, 2, 54, 0
4, 3840, Note_on_c, 2, 55, 93
4, 3888, Note_off_c, 2, 55, 0
4, 3888, Note_on_c, 2, 59, 93
4, 3936, Note_off_c, 2, 59, 0
4, 3936, Note_on_c, 2, 52, 93
4, 3984, Note_off_c, 2, 52, 0
4, 3984, Note_on_c, 2, 55, 93
4, 4032, Note_off_c, 2, 55, 0
4, 4032, Note_on_c, 2, 45, 93
4, 4080, Note_off_c, 2, 45, 0
4, 4080, Note_on_c, 2, 57, 93
4, 4116, Note_off_c, 2, 57, 0
4, 4116, Note_on_c, 2, 55, 93
4, 4128, Note_off_c, 2, 55, 0
4, 4128, Note_on_c, 2, 57, 93
4, 4272, Note_off_c, 2, 57, 0
4, 4272, Note_on_c, 2, 57, 93
4, 4320, Note_off_c, 2, 57, 0
4, 4320, Note_on_c, 2, 50, 93
4, 4608, Note_off_c, 2, 50, 0
4, 4608, Note_on_c, 2, 55, 93
4, 4752, Note_off_c, 2, 55, 0
4, 4752, Note_on_c, 2, 55, 93
4, 4800, Note_off_c, 2, 55, 0
4, 4800, Note_on_c, 2, 54, 93
4, 4848, Note_off_c, 2, 54, 0
4, 4848, Note_on_c, 2, 52, 93
4, 4896, Note_off_c, 2, 52, 0
4, 4896, Note_on_c, 2, 54, 93
4, 5040, Note_off_c, 2, 54, 0
4, 5040, Note_on_c, 2, 59, 93
4, 5088, Note_off_c, 2, 59, 0
4, 5088, Note_on_c, 2, 57, 93
4, 5136, Note_off_c, 2, 57, 0
4, 5136, Note_on_c, 2, 59, 93
4, 5184, Note_off_c, 2, 59, 0
4, 5184, Note_on_c, 2, 52, 93
4, 5328, Note_off_c, 2, 52, 0
4, 5328, Note_on_c, 2, 57, 93
4, 5376, Note_off_c, 2, 57, 0
4, 5376, Note_on_c, 2, 55, 93
4, 5424, Note_off_c, 2, 55, 0
4, 5424, Note_on_c, 2, 57, 93
4, 5472, Note_off_c, 2, 57, 0
4, 5472, Note_on_c, 2, 50, 93
4, 5616, Note_off_c, 2, 50, 0
4, 5616, Note_on_c, 2, 52, 93
4, 5664, Note_off_c, 2, 52, 0
4, 5664, Note_on_c, 2, 50, 93
4, 5712, Note_off_c, 2, 50, 0
4, 5712, Note_on_c, 2, 48, 93
4, 5760, Note_off_c, 2, 48, 0
4, 5760, Note_on_c, 2, 47, 93
4, 5904, Note_off_c, 2, 47, 0
4, 5904, Note_on_c, 2, 43, 93
4, 5952, Note_off_c, 2, 43, 0
4, 5952, Note_on_c, 2, 45, 93
4, 6000, Note_off_c, 2, 45, 0
4, 6000, Note_on_c, 2, 47, 93
4, 6048, Note_off_c, 2, 47, 0
4, 6048, Note_on_c, 2, 48, 93
4, 6192, Note_off_c, 2, 48, 0
4, 6192, Note_on_c, 2, 45, 93
4, 6240, Note_off_c, 2, 45, 0
4, 6240, Note_on_c, 2, 47, 93
4, 6288, Note_off_c, 2, 47, 0
4, 6288, Note_on_c, 2, 48, 93
4, 6336, Note_off_c, 2, 48, 0
4, 6336, Note_on_c, 2, 50, 93
4, 6480, Note_off_c, 2, 50, 0
4, 6480, Note_on_c, 2, 50, 93
4, 6528, Note_off_c, 2, 50, 0
4, 6528, Note_on_c, 2, 48, 93
4, 6576, Note_off_c, 2, 48, 0
4, 6576, Note_on_c, 2, 50, 93
4, 6624, Note_off_c, 2, 50, 0
4, 6624, Note_on_c, 2, 43, 93
4, 6768, Note_off_c, 2, 43, 0
4, 6768, Note_on_c, 2, 43, 93
4, 6816, Note_off_c, 2, 43, 0
4, 6816, Note_on_c, 2, 47, 93
4, 6864, Note_off_c, 2, 47, 0
4, 6864, Note_on_c, 2, 50, 93
4, 6912, Note_off_c, 2, 50, 0
4, 6912, Note_on_c, 2, 55, 93
4, 7056, Note_off_c, 2, 55, 0
4, 7056, Note_on_c, 2, 55, 93
4, 7104, Note_off_c, 2, 55, 0
4, 7104, Note_on_c, 2, 54, 93
4, 7152, Note_off_c, 2, 54, 0
4, 7152, Note_on_c, 2, 52, 93
4, 7200, Note_off_c, 2, 52, 0
4, 7200, Note_on_c, 2, 54, 93
4, 7344, Note_off_c, 2, 54, 0
4, 7344, Note_on_c, 2, 59, 93
4, 7392, Note_off_c, 2, 59, 0
4, 7392, Note_on_c, 2, 57, 93
4, 7440, Note_off_c, 2, 57, 0
4, 7440, Note_on_c, 2, 59, 93
4, 7488, Note_off_c, 2, 59, 0
4, 7488, Note_on_c, 2, 52, 93
4, 7632, Note_off_c, 2, 52, 0
4, 7632, Note_on_c, 2, 54, 93
4, 7680, Note_off_c, 2, 54, 0
4, 7680, Note_on_c, 2, 52, 93
4, 7728, Note_off_c, 2, 52, 0
4, 7728, Note_on_c, 2, 50, 93
4, 7776, Note_off_c, 2, 50, 0
4, 7776, Note_on_c, 2, 49, 93
4, 7920, Note_off_c, 2, 49, 0
4, 7920, Note_on_c, 2, 52, 93
4, 7968, Note_off_c, 2, 52, 0
4, 7968, Note_on_c, 2, 45, 93
4, 8016, Note_off_c, 2, 45, 0
4, 8016, Note_on_c, 2, 43, 93
4, 8064, Note_off_c, 2, 43, 0
4, 8064, Note_on_c, 2, 42, 93
4, 8112, Note_off_c, 2, 42, 0
4, 8112, Note_on_c, 2, 54, 93
4, 8148, Note_off_c, 2, 54, 0
4, 8148, Note_on_c, 2, 52, 93
4, 8160, Note_off_c, 2, 52, 0
4, 8160, Note_on_c, 2, 54, 93
4, 8208, Note_off_c, 2, 54, 0
4, 8208, Note_on_c, 2, 57, 93
4, 8256, Note_off_c, 2, 57, 0
4, 8256, Note_on_c, 2, 50, 93
4, 8304, Note_off_c, 2, 50, 0
4, 8304, Note_on_c, 2, 54, 93
4, 8352, Note_off_c, 2, 54, 0
4, 8352, Note_on_c, 2, 43, 93
4, 8400, Note_off_c, 2, 43, 0
4, 8400, Note_on_c, 2, 55, 93
4, 8436, Note_off_c, 2, 55, 0
4, 8436, Note_on_c, 2, 54, 93
4, 8448, Note_off_c, 2, 54, 0
4, 8448, Note_on_c, 2, 55, 93
4, 8496, Note_off_c, 2, 55, 0
4, 8496, Note_on_c, 2, 59, 93
4, 8544, Note_off_c, 2, 59, 0
4, 8544, Note_on_c, 2, 52, 93
4, 8592, Note_off_c, 2, 52, 0
4, 8592, Note_on_c, 2, 55, 93
4, 8640, Note_off_c, 2, 55, 0
4, 8640, Note_on_c, 2, 45, 93
4, 8688, Note_off_c, 2, 45, 0
4, 8688, Note_on_c, 2, 57, 93
4, 8724, Note_off_c, 2, 57, 0
4, 8724, Note_on_c, 2, 55, 93
4, 8736, Note_off_c, 2, 55, 0
4, 8736, Note_on_c, 2, 57, 93
4, 8880, Note_off_c, 2, 57, 0
4, 8880, Note_on_c, 2, 57, 93
4, 8928, Note_off_c, 2, 57, 0
4, 8928, Note_on_c, 2, 50, 93
4, 9216, Note_off_c, 2, 50, 0
4, 9216, Note_on_c, 2, 62, 93
4, 9360, Note_off_c, 2, 62, 0
4, 9360, Note_on_c, 2, 60, 93
4, 9384, Note_off_c, 2, 60, 0
4, 9384, Note_on_c, 2, 59, 93
4, 9408, Note_off_c, 2, 59, 0
4, 9408, Note_on_c, 2, 60, 93
4, 9456, Note_off_c, 2, 60, 0
4, 9456, Note_on_c, 2, 57, 93
4, 9504, Note_off_c, 2, 57, 0
4, 9504, Note_on_c, 2, 59, 93
4, 9648, Note_off_c, 2, 59, 0
4, 9648, Note_on_c, 2, 62, 93
4, 9696, Note_off_c, 2, 62, 0
4, 9696, Note_on_c, 2, 55, 93
4, 9744, Note_off_c, 2, 55, 0
4, 9744, Note_on_c, 2, 59, 93
4, 9792, Note_off_c, 2, 59, 0
4, 9792, Note_on_c, 2, 60, 93
4, 9936, Note_off_c, 2, 60, 0
4, 9936, Note_on_c, 2, 59, 93
4, 9984, Note_off_c, 2, 59, 0
4, 9984, Note_on_c, 2, 60, 93
4, 10032, Note_off_c, 2, 60, 0
4, 10032, Note_on_c, 2, 57, 93
4, 10080, Note_off_c, 2, 57, 0
4, 10080, Note_on_c, 2, 59, 93
4, 10224, Note_off_c, 2, 59, 0
4, 10224, Note_on_c, 2, 47, 93
4, 10272, Note_off_c, 2, 47, 0
4, 10272, Note_on_c, 2, 49, 93
4, 10320, Note_off_c, 2, 49, 0
4, 10320, Note_on_c, 2, 51, 93
4, 10368, Note_off_c, 2, 51, 0
4, 10368, Note_on_c, 2, 40, 93
4, 10416, Note_off_c, 2, 40, 0
4, 10416, Note_on_c, 2, 55, 93
4, 10440, Note_off_c, 2, 55, 0
4, 10440, Note_on_c, 2, 57, 93
4, 10464, Note_off_c, 2, 57, 0
4, 10464, Note_on_c, 2, 55, 93
4, 10512, Note_off_c, 2, 55, 0
4, 10512, Note_on_c, 2, 54, 93
4, 10560, Note_off_c, 2, 54, 0
4, 10560, Note_on_c, 2, 52, 93
4, 10656, Note_off_c, 2, 52, 0
4, 10656, Note_on_c, 2, 45, 93
4, 10704, Note_off_c, 2, 45, 0
4, 10704, Note_on_c, 2, 57, 93
4, 10728, Note_off_c, 2, 57, 0
4, 10728, Note_on_c, 2, 55, 93
4, 10752, Note_off_c, 2, 55, 0
4, 10752, Note_on_c, 2, 57, 93
4, 10800, Note_off_c, 2, 57, 0
4, 10800, Note_on_c, 2, 60, 93
4, 10848, Note_off_c, 2, 60, 0
4, 10848, Note_on_c, 2, 57, 93
4, 10896, Note_off_c, 2, 57, 0
4, 10896, Note_on_c, 2, 54, 93
4, 10944, Note_off_c, 2, 54, 0
4, 10944, Note_on_c, 2, 47, 93
4, 10992, Note_off_c, 2, 47, 0
4, 10992, Note_on_c, 2, 51, 93
4, 11040, Note_off_c, 2, 51, 0
4, 11040, Note_on_c, 2, 52, 93
4, 11088, Note_off_c, 2, 52, 0
4, 11088, Note_on_c, 2, 55, 93
4, 11136, Note_off_c, 2, 55, 0
4, 11136, Note_on_c, 2, 59, 93
4, 11232, Note_off_c, 2, 59, 0
4, 11232, Note_on_c, 2, 52, 93
4, 11472, Note_off_c, 2, 52, 0
4, 11472, Note_on_c, 2, 50, 93
4, 11520, Note_off_c, 2, 50, 0
4, 11520, Note_on_c, 2, 48, 93
4, 11616, Note_off_c, 2, 48, 0
4, 11664, Note_on_c, 2, 60, 93
4, 11712, Note_off_c, 2, 60, 0
4, 11712, Note_on_c, 2, 59, 93
4, 11760, Note_off_c, 2, 59, 0
4, 11760, Note_on_c, 2, 58, 93
4, 11808, Note_off_c, 2, 58, 0
4, 11808, Note_on_c, 2, 59, 93
4, 11856, Note_off_c, 2, 59, 0
4, 11856, Note_on_c, 2, 47, 93
4, 11904, Note_off_c, 2, 47, 0
4, 11952, Note_on_c, 2, 59, 93
4, 12000, Note_off_c, 2, 59, 0
4, 12000, Note_on_c, 2, 57, 93
4, 12048, Note_off_c, 2, 57, 0
4, 12048, Note_on_c, 2, 56, 93
4, 12096, Note_off_c, 2, 56, 0
4, 12096, Note_on_c, 2, 57, 93
4, 12144, Note_off_c, 2, 57, 0
4, 12144, Note_on_c, 2, 45, 93
4, 12192, Note_off_c, 2, 45, 0
4, 12432, Note_on_c, 2, 45, 93
4, 12480, Note_off_c, 2, 45, 0
4, 12480, Note_on_c, 2, 38, 93
4, 12528, Note_off_c, 2, 38, 0
4, 12528, Note_on_c, 2, 42, 93
4, 12576, Note_off_c, 2, 42, 0
4, 12576, Note_on_c, 2, 45, 93
4, 12624, Note_off_c, 2, 45, 0
4, 12624, Note_on_c, 2, 50, 93
4, 12672, Note_off_c, 2, 50, 0
4, 12672, Note_on_c, 2, 43, 93
4, 12720, Note_off_c, 2, 43, 0
4, 12720, Note_on_c, 2, 55, 93
4, 12768, Note_off_c, 2, 55, 0
4, 12768, Note_on_c, 2, 57, 93
4, 12816, Note_off_c, 2, 57, 0
4, 12816, Note_on_c, 2, 59, 93
4, 12864, Note_off_c, 2, 59, 0
4, 12912, Note_on_c, 2, 55, 93
4, 12960, Note_off_c, 2, 55, 0
4, 12960, Note_on_c, 2, 48, 93
4, 13008, Note_off_c, 2, 48, 0
4, 13008, Note_on_c, 2, 52, 93
4, 13056, Note_off_c, 2, 52, 0
4, 13056, Note_on_c, 2, 53, 93
4, 13104, Note_off_c, 2, 53, 0
4, 13104, Note_on_c, 2, 54, 93
4, 13152, Note_off_c, 2, 54, 0
4, 13152, Note_on_c, 2, 55, 93
4, 13200, Note_off_c, 2, 55, 0
4, 13200, Note_on_c, 2, 54, 93
4, 13224, Note_off_c, 2, 54, 0
4, 13224, Note_on_c, 2, 52, 93
4, 13248, Note_off_c, 2, 52, 0
4, 13248, Note_on_c, 2, 50, 93
4, 13392, Note_off_c, 2, 50, 0
4, 13392, Note_on_c, 2, 54, 93
4, 13440, Note_off_c, 2, 54, 0
4, 13440, Note_on_c, 2, 52, 93
4, 13488, Note_off_c, 2, 52, 0
4, 13488, Note_on_c, 2, 50, 93
4, 13536, Note_off_c, 2, 50, 0
4, 13536, Note_on_c, 2, 43, 93
4, 13632, Note_off_c, 2, 43, 0
4, 13680, Note_on_c, 2, 51, 93
4, 13728, Note_off_c, 2, 51, 0
4, 13728, Note_on_c, 2, 43, 93
4, 13824, Note_off_c, 2, 43, 0
4, 13824, Note_on_c, 2, 62, 93
4, 13968, Note_off_c, 2, 62, 0
4, 13968, Note_on_c, 2, 60, 93
4, 13992, Note_off_c, 2, 60, 0
4, 13992, Note_on_c, 2, 59, 93
4, 14016, Note_off_c, 2, 59, 0
4, 14016, Note_on_c, 2, 60, 93
4, 14064, Note_off_c, 2, 60, 0
4, 14064, Note_on_c, 2, 57, 93
4, 14112, Note_off_c, 2, 57, 0
4, 14112, Note_on_c, 2, 59, 93
4, 14256, Note_off_c, 2, 59, 0
4, 14256, Note_on_c, 2, 62, 93
4, 14304, Note_off_c, 2, 62, 0
4, 14304, Note_on_c, 2, 55, 93
4, 14352, Note_off_c, 2, 55, 0
4, 14352, Note_on_c, 2, 59, 93
4, 14400, Note_off_c, 2, 59, 0
4, 14400, Note_on_c, 2, 60, 93
4, 14544, Note_off_c, 2, 60, 0
4, 14544, Note_on_c, 2, 59, 93
4, 14592, Note_off_c, 2, 59, 0
4, 14592, Note_on_c, 2, 60, 93
4, 14640, Note_off_c, 2, 60, 0
4, 14640, Note_on_c, 2, 57, 93
4, 14688, Note_off_c, 2, 57, 0
4, 14688, Note_on_c, 2, 59, 93
4, 14832, Note_off_c, 2, 59, 0
4, 14832, Note_on_c, 2, 47, 93
4, 14880, Note_off_c, 2, 47, 0
4, 14880, Note_on_c, 2, 49, 93
4, 14928, Note_off_c, 2, 49, 0
4, 14928, Note_on_c, 2, 51, 93
4, 14976, Note_off_c, 2, 51, 0
4, 14976, Note_on_c, 2, 40, 93
4, 15024, Note_off_c, 2, 40, 0
4, 15024, Note_on_c, 2, 55, 93
4, 15048, Note_off_c, 2, 55, 0
4, 15048, Note_on_c, 2, 57, 93
4, 15072, Note_off_c, 2, 57, 0
4, 15072, Note_on_c, 2, 55, 93
4, 15120, Note_off_c, 2, 55, 0
4, 15120, Note_on_c, 2, 54, 93
4, 15168, Note_off_c, 2, 54, 0
4, 15168, Note_on_c, 2, 52, 93
4, 15264, Note_off_c, 2, 52, 0
4, 15264, Note_on_c, 2, 45, 93
4, 15312, Note_off_c, 2, 45, 0
4, 15312, Note_on_c, 2, 57, 93
4, 15336, Note_off_c, 2, 57, 0
4, 15336, Note_on_c, 2, 55, 93
4, 15360, Note_off_c, 2, 55, 0
4, 15360, Note_on_c, 2, 57, 93
4, 15408, Note_off_c, 2, 57, 0
4, 15408, Note_on_c, 2, 60, 93
4, 15456, Note_off_c, 2, 60, 0
4, 15456, Note_on_c, 2, 57, 93
4, 15504, Note_off_c, 2, 57, 0
4, 15504, Note_on_c, 2, 54, 93
4, 15552, Note_off_c, 2, 54, 0
4, 15552, Note_on_c, 2, 47, 93
4, 15600, Note_off_c, 2, 47, 0
4, 15600, Note_on_c, 2, 51, 93
4, 15648, Note_off_c, 2, 51, 0
4, 15648, Note_on_c, 2, 52, 93
4, 15696, Note_off_c, 2, 52, 0
4, 15696, Note_on_c, 2, 55, 93
4, 15744, Note_off_c, 2, 55, 0
4, 15744, Note_on_c, 2, 59, 93
4, 15840, Note_off_c, 2, 59, 0
4, 15840, Note_on_c, 2, 52, 93
4, 16080, Note_off_c, 2, 52, 0
4, 16080, Note_on_c, 2, 50, 93
4, 16128, Note_off_c, 2, 50, 0
4, 16128, Note_on_c, 2, 48, 93
4, 16224, Note_off_c, 2, 48, 0
4, 16272, Note_on_c, 2, 60, 93
4, 16320, Note_off_c, 2, 60, 0
4, 16320, Note_on_c, 2, 59, 93
4, 16368, Note_off_c, 2, 59, 0
4, 16368, Note_on_c, 2, 58, 93
4, 16416, Note_off_c, 2, 58, 0
4, 16416, Note_on_c, 2, 59, 93
4, 16464, Note_off_c, 2, 59, 0
4, 16464, Note_on_c, 2, 47, 93
4, 16512, Note_off_c, 2, 47, 0
4, 16560, Note_on_c, 2, 59, 93
4, 16608, Note_off_c, 2, 59, 0
4, 16608, Note_on_c, 2, 57, 93
4, 16656, Note_off_c, 2, 57, 0
4, 16656, Note_on_c, 2, 56, 93
4, 16704, Note_off_c, 2, 56, 0
4, 16704, Note_on_c, 2, 57, 93
4, 16752, Note_off_c, 2, 57, 0
4, 16752, Note_on_c, 2, 45, 93
4, 16800, Note_off_c, 2, 45, 0
4, 17040, Note_on_c, 2, 45, 93
4, 17088, Note_off_c, 2, 45, 0
4, 17088, Note_on_c, 2, 38, 93
4, 17136, Note_off_c, 2, 38, 0
4, 17136, Note_on_c, 2, 42, 93
4, 17184, Note_off_c, 2, 42, 0
4, 17184, Note_on_c, 2, 45, 93
4, 17232, Note_off_c, 2, 45, 0
4, 17232, Note_on_c, 2, 50, 93
4, 17280, Note_off_c, 2, 50, 0
4, 17280, Note_on_c, 2, 43, 93
4, 17328, Note_off_c, 2, 43, 0
4, 17328, Note_on_c, 2, 55, 93
4, 17376, Note_off_c, 2, 55, 0
4, 17376, Note_on_c, 2, 57, 93
4, 17424, Note_off_c, 2, 57, 0
4, 17424, Note_on_c, 2, 59, 93
4, 17472, Note_off_c, 2, 59, 0
4, 17520, Note_on_c, 2, 55, 93
4, 17568, Note_off_c, 2, 55, 0
4, 17568, Note_on_c, 2, 48, 93
4, 17616, Note_off_c, 2, 48, 0
4, 17616, Note_on_c, 2, 52, 93
4, 17664, Note_off_c, 2, 52, 0
4, 17664, Note_on_c, 2, 53, 93
4, 17712, Note_off_c, 2, 53, 0
4, 17712, Note_on_c, 2, 54, 93
4, 17760, Note_off_c, 2, 54, 0
4, 17760, Note_on_c, 2, 55, 93
4, 17808, Note_off_c, 2, 55, 0
4, 17808, Note_on_c, 2, 54, 93
4, 17832, Note_off_c, 2, 54, 0
4, 17832, Note_on_c, 2, 52, 93
4, 17856, Note_off_c, 2, 52, 0
4, 17856, Note_on_c, 2, 50, 93
4, 18000, Note_off_c, 2, 50, 0
4, 18000, Note_on_c, 2, 54, 93
4, 18048, Note_off_c, 2, 54, 0
4, 18048, Note_on_c, 2, 52, 93
4, 18096, Note_off_c, 2, 52, 0
4, 18096, Note_on_c, 2, 50, 93
4, 18144, Note_off_c, 2, 50, 0
4, 18144, Note_on_c, 2, 43, 93
4, 18240, Note_off_c, 2, 43, 0
4, 18288, Note_on_c, 2, 51, 93
4, 18336, Note_off_c, 2, 51, 0
4, 18336, Note_on_c, 2, 43, 93
4, 18432, Note_off_c, 2, 43, 0
4, 18432, End_track
0, 0, End_of_file
