0, 0, Header, 1, 4, 96
1, 0, Start_track
1, 0, Time_signature, 4, 2, 24, 8
1, 0, Title_t, "untitled"
1, 0, Title_t, "Track1"
1, 0, Tempo, 600000
1, 9168, Tempo, 1875000
1, 18336, Tempo, 1250000
1, 18336, End_track
2, 0, Start_track
2, 0, Title_t, "Track2"
2, 0, Program_c, 0, 6
2, 0, Control_c, 0, 7, 100
2, 0, Control_c, 0, 10, 74
2, 0, Note_on_c, 0, 79, 93
2, 192, Note_off_c, 0, 79, 0
2, 192, Note_on_c, 0, 78, 93
2, 216, Note_off_c, 0, 78, 0
2, 216, Note_on_c, 0, 76, 93
2, 240, Note_off_c, 0, 76, 0
2, 240, Note_on_c, 0, 74, 93
2, 264, Note_off_c, 0, 74, 0
2, 264, Note_on_c, 0, 72, 93
2, 288, Note_off_c, 0, 72, 0
2, 288, Note_on_c, 0, 71, 93
2, 480, Note_off_c, 0, 71, 0
2, 480, Note_on_c, 0, 69, 93
2, 504, Note_off_c, 0, 69, 0
2, 504, Note_on_c, 0, 67, 93
2, 528, Note_off_c, 0, 67, 0
2, 528, Note_on_c, 0, 66, 93
2, 552, Note_off_c, 0, 66, 0
2, 552, Note_on_c, 0, 64, 93
2, 576, Note_off_c, 0, 64, 0
2, 576, Note_on_c, 0, 62, 93
2, 768, Note_off_c, 0, 62, 0
2, 768, Note_on_c, 0, 60, 93
2, 792, Note_off_c, 0, 60, 0
2, 792, Note_on_c, 0, 59, 93
2, 816, Note_off_c, 0, 59, 0
2, 816, Note_on_c, 0, 57, 93
2, 840, Note_off_c, 0, 57, 0
2, 840, Note_on_c, 0, 55, 93
2, 864, Note_off_c, 0, 55, 0
2, 864, Note_on_c, 0, 57, 93
2, 1032, Note_off_c, 0, 57, 0
2, 1032, Note_on_c, 0, 55, 93
2, 1056, Note_off_c, 0, 55, 0
2, 1056, Note_on_c, 0, 59, 93
2, 1080, Note_off_c, 0, 59, 0
2, 1080, Note_on_c, 0, 57, 93
2, 1104, Note_off_c, 0, 57, 0
2, 1104, Note_on_c, 0, 55, 93
2, 1128, Note_off_c, 0, 55, 0
2, 1128, Note_on_c, 0, 54, 93
2, 1152, Note_off_c, 0, 54, 0
2, 1152, Note_on_c, 0, 55, 93
2, 1200, Note_off_c, 0, 55, 0
2, 1200, Note_on_c, 0, 67, 93
2, 1344, Note_off_c, 0, 67, 0
2, 1344, Note_on_c, 0, 66, 93
2, 1368, Note_off_c, 0, 66, 0
2, 1368, Note_on_c, 0, 64, 93
2, 1392, Note_off_c, 0, 64, 0
2, 1392, Note_on_c, 0, 62, 93
2, 1416, Note_off_c, 0, 62, 0
2, 1416, Note_on_c, 0, 60, 93
2, 1440, Note_off_c, 0, 60, 0
2, 1440, Note_on_c, 0, 59, 93
2, 1464, Note_off_c, 0, 59, 0
2, 1464, Note_on_c, 0, 62, 93
2, 1488, Note_off_c, 0, 62, 0
2, 1488, Note_on_c, 0, 67, 93
2, 1512, Note_off_c, 0, 67, 0
2, 1512, Note_on_c, 0, 69, 93
2, 1536, Note_off_c, 0, 69, 0
2, 1536, Note_on_c, 0, 70, 93
2, 1632, Note_off_c, 0, 70, 0
2, 1632, Note_on_c, 0, 69, 93
2, 1656, Note_off_c, 0, 69, 0
2, 1656, Note_on_c, 0, 67, 93
2, 1680, Note_off_c, 0, 67, 0
2, 1680, Note_on_c, 0, 66, 93
2, 1704, Note_off_c, 0, 66, 0
2, 1704, Note_on_c, 0, 64, 93
2, 1728, Note_off_c, 0, 64, 0
2, 1728, Note_on_c, 0, 62, 93
2, 1896, Note_off_c, 0, 62, 0
2, 1896, Note_on_c, 0, 61, 93
2, 1920, Note_off_c, 0, 61, 0
2, 1920, Note_on_c, 0, 59, 93
2, 1944, Note_off_c, 0, 59, 0
2, 1944, Note_on_c, 0, 62, 93
2, 1968, Note_off_c, 0, 62, 0
2, 1968, Note_on_c, 0, 61, 93
2, 1992, Note_off_c, 0, 61, 0
2, 1992, Note_on_c, 0, 59, 93
2, 2016, Note_off_c, 0, 59, 0
2, 2016, Note_on_c, 0, 61, 93
2, 2040, Note_off_c, 0, 61, 0
2, 2040, Note_on_c, 0, 59, 93
2, 2064, Note_off_c, 0, 59, 0
2, 2064, Note_on_c, 0, 57, 93
2, 2088, Note_off_c, 0, 57, 0
2, 2088, Note_on_c, 0, 55, 93
2, 2112, Note_off_c, 0, 55, 0
2, 2112, Note_on_c, 0, 54, 93
2, 2136, Note_off_c, 0, 54, 0
2, 2136, Note_on_c, 0, 52, 93
2, 2160, Note_off_c, 0, 52, 0
2, 2160, Note_on_c, 0, 54, 93
2, 2208, Note_off_c, 0, 54, 0
2, 2304, Note_on_c, 0, 79, 93
2, 2496, Note_off_c, 0, 79, 0
2, 2496, Note_on_c, 0, 78, 93
2, 2520, Note_off_c, 0, 78, 0
2, 2520, Note_on_c, 0, 76, 93
2, 2544, Note_off_c, 0, 76, 0
2, 2544, Note_on_c, 0, 74, 93
2, 2568, Note_off_c, 0, 74, 0
2, 2568, Note_on_c, 0, 72, 93
2, 2592, Note_off_c, 0, 72, 0
2, 2592, Note_on_c, 0, 71, 93
2, 2784, Note_off_c, 0, 71, 0
2, 2784, Note_on_c, 0, 69, 93
2, 2808, Note_off_c, 0, 69, 0
2, 2808, Note_on_c, 0, 67, 93
2, 2832, Note_off_c, 0, 67, 0
2, 2832, Note_on_c, 0, 66, 93
2, 2856, Note_off_c, 0, 66, 0
2, 2856, Note_on_c, 0, 64, 93
2, 2880, Note_off_c, 0, 64, 0
2, 2880, Note_on_c, 0, 62, 93
2, 3072, Note_off_c, 0, 62, 0
2, 3072, Note_on_c, 0, 60, 93
2, 3096, Note_off_c, 0, 60, 0
2, 3096, Note_on_c, 0, 59, 93
2, 3120, Note_off_c, 0, 59, 0
2, 3120, Note_on_c, 0, 57, 93
2, 3144, Note_off_c, 0, 57, 0
2, 3144, Note_on_c, 0, 55, 93
2, 3168, Note_off_c, 0, 55, 0
2, 3168, Note_on_c, 0, 57, 93
2, 3336, Note_off_c, 0, 57, 0
2, 3336, Note_on_c, 0, 55, 93
2, 3360, Note_off_c, 0, 55, 0
2, 3360, Note_on_c, 0, 59, 93
2, 3384, Note_off_c, 0, 59, 0
2, 3384, Note_on_c, 0, 57, 93
2, 3408, Note_off_c, 0, 57, 0
2, 3408, Note_on_c, 0, 55, 93
2, 3432, Note_off_c, 0, 55, 0
2, 3432, Note_on_c, 0, 54, 93
2, 3456, Note_off_c, 0, 54, 0
2, 3456, Note_on_c, 0, 55, 93
2, 3504, Note_off_c, 0, 55, 0
2, 3504, Note_on_c, 0, 67, 93
2, 3648, Note_off_c, 0, 67, 0
2, 3648, Note_on_c, 0, 66, 93
2, 3672, Note_off_c, 0, 66, 0
2, 3672, Note_on_c, 0, 64, 93
2, 3696, Note_off_c, 0, 64, 0
2, 3696, Note_on_c, 0, 62, 93
2, 3720, Note_off_c, 0, 62, 0
2, 3720, Note_on_c, 0, 60, 93
2, 3744, Note_off_c, 0, 60, 0
2, 3744, Note_on_c, 0, 59, 93
2, 3768, Note_off_c, 0, 59, 0
2, 3768, Note_on_c, 0, 62, 93
2, 3792, Note_off_c, 0, 62, 0
2, 3792, Note_on_c, 0, 67, 93
2, 3816, Note_off_c, 0, 67, 0
2, 3816, Note_on_c, 0, 69, 93
2, 3840, Note_off_c, 0, 69, 0
2, 3840, Note_on_c, 0, 70, 93
2, 3936, Note_off_c, 0, 70, 0
2, 3936, Note_on_c, 0, 69, 93
2, 3960, Note_off_c, 0, 69, 0
2, 3960, Note_on_c, 0, 67, 93
2, 3984, Note_off_c, 0, 67, 0
2, 3984, Note_on_c, 0, 66, 93
2, 4008, Note_off_c, 0, 66, 0
2, 4008, Note_on_c, 0, 64, 93
2, 4032, Note_off_c, 0, 64, 0
2, 4032, Note_on_c, 0, 62, 93
2, 4200, Note_off_c, 0, 62, 0
2, 4200, Note_on_c, 0, 61, 93
2, 4224, Note_off_c, 0, 61, 0
2, 4224, Note_on_c, 0, 59, 93
2, 4248, Note_off_c, 0, 59, 0
2, 4248, Note_on_c, 0, 62, 93
2, 4272, Note_off_c, 0, 62, 0
2, 4272, Note_on_c, 0, 61, 93
2, 4296, Note_off_c, 0, 61, 0
2, 4296, Note_on_c, 0, 59, 93
2, 4320, Note_off_c, 0, 59, 0
2, 4320, Note_on_c, 0, 61, 93
2, 4344, Note_off_c, 0, 61, 0
2, 4344, Note_on_c, 0, 59, 93
2, 4368, Note_off_c, 0, 59, 0
2, 4368, Note_on_c, 0, 57, 93
2, 4392, Note_off_c, 0, 57, 0
2, 4392, Note_on_c, 0, 55, 93
2, 4416, Note_off_c, 0, 55, 0
2, 4416, Note_on_c, 0, 54, 93
2, 4440, Note_off_c, 0, 54, 0
2, 4440, Note_on_c, 0, 52, 93
2, 4464, Note_off_c, 0, 52, 0
2, 4464, Note_on_c, 0, 54, 93
2, 4608, Note_off_c, 0, 54, 0
2, 4608, Note_on_c, 0, 81, 93
2, 4800, Note_off_c, 0, 81, 0
2, 4800, Note_on_c, 0, 79, 93
2, 4824, Note_off_c, 0, 79, 0
2, 4824, Note_on_c, 0, 78, 93
2, 4848, Note_off_c, 0, 78, 0
2, 4848, Note_on_c, 0, 76, 93
2, 4872, Note_off_c, 0, 76, 0
2, 4872, Note_on_c, 0, 74, 93
2, 4896, Note_off_c, 0, 74, 0
2, 4896, Note_on_c, 0, 73, 93
2, 4944, Note_off_c, 0, 73, 0
2, 4944, Note_on_c, 0, 72, 93
2, 5088, Note_off_c, 0, 72, 0
2, 5088, Note_on_c, 0, 71, 93
2, 5112, Note_off_c, 0, 71, 0
2, 5112, Note_on_c, 0, 69, 93
2, 5136, Note_off_c, 0, 69, 0
2, 5136, Note_on_c, 0, 68, 93
2, 5160, Note_off_c, 0, 68, 0
2, 5160, Note_on_c, 0, 66, 93
2, 5184, Note_off_c, 0, 66, 0
2, 5184, Note_on_c, 0, 64, 93
2, 5352, Note_off_c, 0, 64, 0
2, 5352, Note_on_c, 0, 63, 93
2, 5376, Note_off_c, 0, 63, 0
2, 5376, Note_on_c, 0, 61, 93
2, 5400, Note_off_c, 0, 61, 0
2, 5400, Note_on_c, 0, 64, 93
2, 5424, Note_off_c, 0, 64, 0
2, 5424, Note_on_c, 0, 63, 93
2, 5448, Note_off_c, 0, 63, 0
2, 5448, Note_on_c, 0, 61, 93
2, 5472, Note_off_c, 0, 61, 0
2, 5472, Note_on_c, 0, 63, 93
2, 5496, Note_off_c, 0, 63, 0
2, 5496, Note_on_c, 0, 61, 93
2, 5520, Note_off_c, 0, 61, 0
2, 5520, Note_on_c, 0, 59, 93
2, 5544, Note_off_c, 0, 59, 0
2, 5544, Note_on_c, 0, 57, 93
2, 5568, Note_off_c, 0, 57, 0
2, 5568, Note_on_c, 0, 55, 93
2, 5592, Note_off_c, 0, 55, 0
2, 5592, Note_on_c, 0, 54, 93
2, 5616, Note_off_c, 0, 54, 0
2, 5616, Note_on_c, 0, 55, 93
2, 5664, Note_off_c, 0, 55, 0
2, 5760, Note_on_c, 0, 60, 93
2, 5928, Note_off_c, 0, 60, 0
2, 5928, Note_on_c, 0, 57, 93
2, 5952, Note_off_c, 0, 57, 0
2, 5952, Note_on_c, 0, 59, 93
2, 5976, Note_off_c, 0, 59, 0
2, 5976, Note_on_c, 0, 55, 93
2, 6000, Note_off_c, 0, 55, 0
2, 6000, Note_on_c, 0, 59, 93
2, 6024, Note_off_c, 0, 59, 0
2, 6024, Note_on_c, 0, 62, 93
2, 6048, Note_off_c, 0, 62, 0
2, 6048, Note_on_c, 0, 64, 93
2, 6216, Note_off_c, 0, 64, 0
2, 6216, Note_on_c, 0, 61, 93
2, 6240, Note_off_c, 0, 61, 0
2, 6240, Note_on_c, 0, 62, 93
2, 6264, Note_off_c, 0, 62, 0
2, 6264, Note_on_c, 0, 59, 93
2, 6288, Note_off_c, 0, 59, 0
2, 6288, Note_on_c, 0, 62, 93
2, 6312, Note_off_c, 0, 62, 0
2, 6312, Note_on_c, 0, 66, 93
2, 6336, Note_off_c, 0, 66, 0
2, 6336, Note_on_c, 0, 67, 93
2, 6504, Note_off_c, 0, 67, 0
2, 6504, Note_on_c, 0, 66, 93
2, 6528, Note_off_c, 0, 66, 0
2, 6528, Note_on_c, 0, 64, 93
2, 6552, Note_off_c, 0, 64, 0
2, 6552, Note_on_c, 0, 67, 93
2, 6576, Note_off_c, 0, 67, 0
2, 6576, Note_on_c, 0, 66, 93
2, 6600, Note_off_c, 0, 66, 0
2, 6600, Note_on_c, 0, 64, 93
2, 6624, Note_off_c, 0, 64, 0
2, 6624, Note_on_c, 0, 66, 93
2, 6648, Note_off_c, 0, 66, 0
2, 6648, Note_on_c, 0, 64, 93
2, 6672, Note_off_c, 0, 64, 0
2, 6672, Note_on_c, 0, 62, 93
2, 6696, Note_off_c, 0, 62, 0
2, 6696, Note_on_c, 0, 60, 93
2, 6720, Note_off_c, 0, 60, 0
2, 6720, Note_on_c, 0, 59, 93
2, 6744, Note_off_c, 0, 59, 0
2, 6744, Note_on_c, 0, 57, 93
2, 6768, Note_off_c, 0, 57, 0
2, 6768, Note_on_c, 0, 55, 93
2, 6816, Note_off_c, 0, 55, 0
2, 6912, Note_on_c, 0, 81, 93
2, 7104, Note_off_c, 0, 81, 0
2, 7104, Note_on_c, 0, 79, 93
2, 7128, Note_off_c, 0, 79, 0
2, 7128, Note_on_c, 0, 78, 93
2, 7152, Note_off_c, 0, 78, 0
2, 7152, Note_on_c, 0, 76, 93
2, 7176, Note_off_c, 0, 76, 0
2, 7176, Note_on_c, 0, 74, 93
2, 7200, Note_off_c, 0, 74, 0
2, 7200, Note_on_c, 0, 73, 93
2, 7248, Note_off_c, 0, 73, 0
2, 7248, Note_on_c, 0, 72, 93
2, 7392, Note_off_c, 0, 72, 0
2, 7392, Note_on_c, 0, 71, 93
2, 7416, Note_off_c, 0, 71, 0
2, 7416, Note_on_c, 0, 69, 93
2, 7440, Note_off_c, 0, 69, 0
2, 7440, Note_on_c, 0, 68, 93
2, 7464, Note_off_c, 0, 68, 0
2, 7464, Note_on_c, 0, 66, 93
2, 7488, Note_off_c, 0, 66, 0
2, 7488, Note_on_c, 0, 64, 93
2, 7656, Note_off_c, 0, 64, 0
2, 7656, Note_on_c, 0, 63, 93
2, 7680, Note_off_c, 0, 63, 0
2, 7680, Note_on_c, 0, 61, 93
2, 7704, Note_off_c, 0, 61, 0
2, 7704, Note_on_c, 0, 64, 93
2, 7728, Note_off_c, 0, 64, 0
2, 7728, Note_on_c, 0, 63, 93
2, 7752, Note_off_c, 0, 63, 0
2, 7752, Note_on_c, 0, 61, 93
2, 7776, Note_off_c, 0, 61, 0
2, 7776, Note_on_c, 0, 63, 93
2, 7800, Note_off_c, 0, 63, 0
2, 7800, Note_on_c, 0, 61, 93
2, 7824, Note_off_c, 0, 61, 0
2, 7824, Note_on_c, 0, 59, 93
2, 7848, Note_off_c, 0, 59, 0
2, 7848, Note_on_c, 0, 57, 93
2, 7872, Note_off_c, 0, 57, 0
2, 7872, Note_on_c, 0, 55, 93
2, 7896, Note_off_c, 0, 55, 0
2, 7896, Note_on_c, 0, 54, 93
2, 7920, Note_off_c, 0, 54, 0
2, 7920, Note_on_c, 0, 55, 93
2, 7968, Note_off_c, 0, 55, 0
2, 8064, Note_on_c, 0, 60, 93
2, 8232, Note_off_c, 0, 60, 0
2, 8232, Note_on_c, 0, 57, 93
2, 8256, Note_off_c, 0, 57, 0
2, 8256, Note_on_c, 0, 59, 93
2, 8280, Note_off_c, 0, 59, 0
2, 8280, Note_on_c, 0, 55, 93
2, 8304, Note_off_c, 0, 55, 0
2, 8304, Note_on_c, 0, 59, 93
2, 8328, Note_off_c, 0, 59, 0
2, 8328, Note_on_c, 0, 62, 93
2, 8352, Note_off_c, 0, 62, 0
2, 8352, Note_on_c, 0, 64, 93
2, 8520, Note_off_c, 0, 64, 0
2, 8520, Note_on_c, 0, 61, 93
2, 8544, Note_off_c, 0, 61, 0
2, 8544, Note_on_c, 0, 62, 93
2, 8568, Note_off_c, 0, 62, 0
2, 8568, Note_on_c, 0, 59, 93
2, 8592, Note_off_c, 0, 59, 0
2, 8592, Note_on_c, 0, 62, 93
2, 8616, Note_off_c, 0, 62, 0
2, 8616, Note_on_c, 0, 66, 93
2, 8640, Note_off_c, 0, 66, 0
2, 8640, Note_on_c, 0, 67, 93
2, 8808, Note_off_c, 0, 67, 0
2, 8808, Note_on_c, 0, 66, 93
2, 8832, Note_off_c, 0, 66, 0
2, 8832, Note_on_c, 0, 64, 93
2, 8856, Note_off_c, 0, 64, 0
2, 8856, Note_on_c, 0, 67, 93
2, 8880, Note_off_c, 0, 67, 0
2, 8880, Note_on_c, 0, 66, 93
2, 8904, Note_off_c, 0, 66, 0
2, 8904, Note_on_c, 0, 64, 93
2, 8928, Note_off_c, 0, 64, 0
2, 8928, Note_on_c, 0, 66, 93
2, 8952, Note_off_c, 0, 66, 0
2, 8952, Note_on_c, 0, 64, 93
2, 8976, Note_off_c, 0, 64, 0
2, 8976, Note_on_c, 0, 62, 93
2, 9000, Note_off_c, 0, 62, 0
2, 9000, Note_on_c, 0, 60, 93
2, 9024, Note_off_c, 0, 60, 0
2, 9024, Note_on_c, 0, 59, 93
2, 9048, Note_off_c, 0, 59, 0
2, 9048, Note_on_c, 0, 57, 93
2, 9072, Note_off_c, 0, 57, 0
2, 9072, Note_on_c, 0, 59, 93
2, 9216, Note_off_c, 0, 59, 0
2, 9216, End_track
3, 0, Start_track
3, 0, Title_t, "Track3"
3, 0, Program_c, 1, 6
3, 0, Control_c, 1, 7, 100
3, 0, Control_c, 1, 10, 64
3, 144, Note_on_c, 1, 81, 93
3, 336, Note_off_c, 1, 81, 0
3, 336, Note_on_c, 1, 79, 93
3, 360, Note_off_c, 1, 79, 0
3, 360, Note_on_c, 1, 78, 93
3, 384, Note_off_c, 1, 78, 0
3, 384, Note_on_c, 1, 76, 93
3, 408, Note_off_c, 1, 76, 0
3, 408, Note_on_c, 1, 74, 93
3, 432, Note_off_c, 1, 74, 0
3, 432, Note_on_c, 1, 72, 93
3, 624, Note_off_c, 1, 72, 0
3, 624, Note_on_c, 1, 71, 93
3, 648, Note_off_c, 1, 71, 0
3, 648, Note_on_c, 1, 69, 93
3, 672, Note_off_c, 1, 69, 0
3, 672, Note_on_c, 1, 67, 93
3, 696, Note_off_c, 1, 67, 0
3, 696, Note_on_c, 1, 66, 93
3, 720, Note_off_c, 1, 66, 0
3, 720, Note_on_c, 1, 64, 93
3, 912, Note_off_c, 1, 64, 0
3, 912, Note_on_c, 1, 62, 93
3, 936, Note_off_c, 1, 62, 0
3, 936, Note_on_c, 1, 60, 93
3, 960, Note_off_c, 1, 60, 0
3, 960, Note_on_c, 1, 59, 93
3, 984, Note_off_c, 1, 59, 0
3, 984, Note_on_c, 1, 57, 93
3, 1008, Note_off_c, 1, 57, 0
3, 1008, Note_on_c, 1, 59, 93
3, 1176, Note_off_c, 1, 59, 0
3, 1176, Note_on_c, 1, 57, 93
3, 1200, Note_off_c, 1, 57, 0
3, 1200, Note_on_c, 1, 60, 93
3, 1224, Note_off_c, 1, 60, 0
3, 1224, Note_on_c, 1, 59, 93
3, 1248, Note_off_c, 1, 59, 0
3, 1248, Note_on_c, 1, 57, 93
3, 1272, Note_off_c, 1, 57, 0
3, 1272, Note_on_c, 1, 55, 93
3, 1296, Note_off_c, 1, 55, 0
3, 1296, Note_on_c, 1, 57, 93
3, 1344, Note_off_c, 1, 57, 0
3, 1344, Note_on_c, 1, 69, 93
3, 1488, Note_off_c, 1, 69, 0
3, 1488, Note_on_c, 1, 67, 93
3, 1512, Note_off_c, 1, 67, 0
3, 1512, Note_on_c, 1, 66, 93
3, 1536, Note_off_c, 1, 66, 0
3, 1536, Note_on_c, 1, 64, 93
3, 1560, Note_off_c, 1, 64, 0
3, 1560, Note_on_c, 1, 62, 93
3, 1584, Note_off_c, 1, 62, 0
3, 1584, Note_on_c, 1, 61, 93
3, 1608, Note_off_c, 1, 61, 0
3, 1608, Note_on_c, 1, 64, 93
3, 1632, Note_off_c, 1, 64, 0
3, 1632, Note_on_c, 1, 69, 93
3, 1656, Note_off_c, 1, 69, 0
3, 1656, Note_on_c, 1, 71, 93
3, 1680, Note_off_c, 1, 71, 0
3, 1680, Note_on_c, 1, 72, 93
3, 1776, Note_off_c, 1, 72, 0
3, 1776, Note_on_c, 1, 71, 93
3, 1800, Note_off_c, 1, 71, 0
3, 1800, Note_on_c, 1, 69, 93
3, 1824, Note_off_c, 1, 69, 0
3, 1824, Note_on_c, 1, 67, 93
3, 1848, Note_off_c, 1, 67, 0
3, 1848, Note_on_c, 1, 66, 93
3, 1872, Note_off_c, 1, 66, 0
3, 1872, Note_on_c, 1, 64, 93
3, 2040, Note_off_c, 1, 64, 0
3, 2040, Note_on_c, 1, 62, 93
3, 2064, Note_off_c, 1, 62, 0
3, 2064, Note_on_c, 1, 61, 93
3, 2088, Note_off_c, 1, 61, 0
3, 2088, Note_on_c, 1, 64, 93
3, 2112, Note_off_c, 1, 64, 0
3, 2112, Note_on_c, 1, 62, 93
3, 2136, Note_off_c, 1, 62, 0
3, 2136, Note_on_c, 1, 61, 93
3, 2160, Note_off_c, 1, 61, 0
3, 2160, Note_on_c, 1, 62, 93
3, 2184, Note_off_c, 1, 62, 0
3, 2184, Note_on_c, 1, 60, 93
3, 2208, Note_off_c, 1, 60, 0
3, 2208, Note_on_c, 1, 59, 93
3, 2232, Note_off_c, 1, 59, 0
3, 2232, Note_on_c, 1, 57, 93
3, 2256, Note_off_c, 1, 57, 0
3, 2256, Note_on_c, 1, 55, 93
3, 2280, Note_off_c, 1, 55, 0
3, 2280, Note_on_c, 1, 54, 93
3, 2304, Note_off_c, 1, 54, 0
3, 2304, Note_on_c, 1, 55, 93
3, 2352, Note_off_c, 1, 55, 0
3, 2448, Note_on_c, 1, 81, 93
3, 2640, Note_off_c, 1, 81, 0
3, 2640, Note_on_c, 1, 79, 93
3, 2664, Note_off_c, 1, 79, 0
3, 2664, Note_on_c, 1, 78, 93
3, 2688, Note_off_c, 1, 78, 0
3, 2688, Note_on_c, 1, 76, 93
3, 2712, Note_off_c, 1, 76, 0
3, 2712, Note_on_c, 1, 74, 93
3, 2736, Note_off_c, 1, 74, 0
3, 2736, Note_on_c, 1, 72, 93
3, 2928, Note_off_c, 1, 72, 0
3, 2928, Note_on_c, 1, 71, 93
3, 2952, Note_off_c, 1, 71, 0
3, 2952, Note_on_c, 1, 69, 93
3, 2976, Note_off_c, 1, 69, 0
3, 2976, Note_on_c, 1, 67, 93
3, 3000, Note_off_c, 1, 67, 0
3, 3000, Note_on_c, 1, 66, 93
3, 3024, Note_off_c, 1, 66, 0
3, 3024, Note_on_c, 1, 64, 93
3, 3216, Note_off_c, 1, 64, 0
3, 3216, Note_on_c, 1, 62, 93
3, 3240, Note_off_c, 1, 62, 0
3, 3240, Note_on_c, 1, 60, 93
3, 3264, Note_off_c, 1, 60, 0
3, 3264, Note_on_c, 1, 59, 93
3, 3288, Note_off_c, 1, 59, 0
3, 3288, Note_on_c, 1, 57, 93
3, 3312, Note_off_c, 1, 57, 0
3, 3312, Note_on_c, 1, 59, 93
3, 3480, Note_off_c, 1, 59, 0
3, 3480, Note_on_c, 1, 57, 93
3, 3504, Note_off_c, 1, 57, 0
3, 3504, Note_on_c, 1, 60, 93
3, 3528, Note_off_c, 1, 60, 0
3, 3528, Note_on_c, 1, 59, 93
3, 3552, Note_off_c, 1, 59, 0
3, 3552, Note_on_c, 1, 57, 93
3, 3576, Note_off_c, 1, 57, 0
3, 3576, Note_on_c, 1, 55, 93
3, 3600, Note_off_c, 1, 55, 0
3, 3600, Note_on_c, 1, 57, 93
3, 3648, Note_off_c, 1, 57, 0
3, 3648, Note_on_c, 1, 69, 93
3, 3792, Note_off_c, 1, 69, 0
3, 3792, Note_on_c, 1, 67, 93
3, 3816, Note_off_c, 1, 67, 0
3, 3816, Note_on_c, 1, 66, 93
3, 3840, Note_off_c, 1, 66, 0
3, 3840, Note_on_c, 1, 64, 93
3, 3864, Note_off_c, 1, 64, 0
3, 3864, Note_on_c, 1, 62, 93
3, 3888, Note_off_c, 1, 62, 0
3, 3888, Note_on_c, 1, 61, 93
3, 3912, Note_off_c, 1, 61, 0
3, 3912, Note_on_c, 1, 64, 93
3, 3936, Note_off_c, 1, 64, 0
3, 3936, Note_on_c, 1, 69, 93
3, 3960, Note_off_c, 1, 69, 0
3, 3960, Note_on_c, 1, 71, 93
3, 3984, Note_off_c, 1, 71, 0
3, 3984, Note_on_c, 1, 72, 93
3, 4080, Note_off_c, 1, 72, 0
3, 4080, Note_on_c, 1, 71, 93
3, 4104, Note_off_c, 1, 71, 0
3, 4104, Note_on_c, 1, 69, 93
3, 4128, Note_off_c, 1, 69, 0
3, 4128, Note_on_c, 1, 67, 93
3, 4152, Note_off_c, 1, 67, 0
3, 4152, Note_on_c, 1, 66, 93
3, 4176, Note_off_c, 1, 66, 0
3, 4176, Note_on_c, 1, 64, 93
3, 4344, Note_off_c, 1, 64, 0
3, 4344, Note_on_c, 1, 62, 93
3, 4368, Note_off_c, 1, 62, 0
3, 4368, Note_on_c, 1, 61, 93
3, 4392, Note_off_c, 1, 61, 0
3, 4392, Note_on_c, 1, 64, 93
3, 4416, Note_off_c, 1, 64, 0
3, 4416, Note_on_c, 1, 62, 93
3, 4440, Note_off_c, 1, 62, 0
3, 4440, Note_on_c, 1, 61, 93
3, 4464, Note_off_c, 1, 61, 0
3, 4464, Note_on_c, 1, 62, 93
3, 4608, Note_off_c, 1, 62, 0
3, 4752, Note_on_c, 1, 83, 93
3, 4944, Note_off_c, 1, 83, 0
3, 4944, Note_on_c, 1, 81, 93
3, 4968, Note_off_c, 1, 81, 0
3, 4968, Note_on_c, 1, 79, 93
3, 4992, Note_off_c, 1, 79, 0
3, 4992, Note_on_c, 1, 78, 93
3, 5016, Note_off_c, 1, 78, 0
3, 5016, Note_on_c, 1, 76, 93
3, 5040, Note_off_c, 1, 76, 0
3, 5040, Note_on_c, 1, 75, 93
3, 5088, Note_off_c, 1, 75, 0
3, 5088, Note_on_c, 1, 74, 93
3, 5232, Note_off_c, 1, 74, 0
3, 5232, Note_on_c, 1, 72, 93
3, 5256, Note_off_c, 1, 72, 0
3, 5256, Note_on_c, 1, 71, 93
3, 5280, Note_off_c, 1, 71, 0
3, 5280, Note_on_c, 1, 69, 93
3, 5304, Note_off_c, 1, 69, 0
3, 5304, Note_on_c, 1, 67, 93
3, 5328, Note_off_c, 1, 67, 0
3, 5328, Note_on_c, 1, 66, 93
3, 5496, Note_off_c, 1, 66, 0
3, 5496, Note_on_c, 1, 64, 93
3, 5520, Note_off_c, 1, 64, 0
3, 5520, Note_on_c, 1, 63, 93
3, 5544, Note_off_c, 1, 63, 0
3, 5544, Note_on_c, 1, 66, 93
3, 5568, Note_off_c, 1, 66, 0
3, 5568, Note_on_c, 1, 64, 93
3, 5592, Note_off_c, 1, 64, 0
3, 5592, Note_on_c, 1, 63, 93
3, 5616, Note_off_c, 1, 63, 0
3, 5616, Note_on_c, 1, 64, 93
3, 5640, Note_off_c, 1, 64, 0
3, 5640, Note_on_c, 1, 62, 93
3, 5664, Note_off_c, 1, 62, 0
3, 5664, Note_on_c, 1, 60, 93
3, 5688, Note_off_c, 1, 60, 0
3, 5688, Note_on_c, 1, 59, 93
3, 5712, Note_off_c, 1, 59, 0
3, 5712, Note_on_c, 1, 57, 93
3, 5736, Note_off_c, 1, 57, 0
3, 5736, Note_on_c, 1, 56, 93
3, 5760, Note_off_c, 1, 56, 0
3, 5760, Note_on_c, 1, 57, 93
3, 5808, Note_off_c, 1, 57, 0
3, 5904, Note_on_c, 1, 62, 93
3, 6072, Note_off_c, 1, 62, 0
3, 6072, Note_on_c, 1, 59, 93
3, 6096, Note_off_c, 1, 59, 0
3, 6096, Note_on_c, 1, 60, 93
3, 6120, Note_off_c, 1, 60, 0
3, 6120, Note_on_c, 1, 57, 93
3, 6144, Note_off_c, 1, 57, 0
3, 6144, Note_on_c, 1, 60, 93
3, 6168, Note_off_c, 1, 60, 0
3, 6168, Note_on_c, 1, 64, 93
3, 6192, Note_off_c, 1, 64, 0
3, 6192, Note_on_c, 1, 66, 93
3, 6360, Note_off_c, 1, 66, 0
3, 6360, Note_on_c, 1, 63, 93
3, 6384, Note_off_c, 1, 63, 0
3, 6384, Note_on_c, 1, 64, 93
3, 6408, Note_off_c, 1, 64, 0
3, 6408, Note_on_c, 1, 60, 93
3, 6432, Note_off_c, 1, 60, 0
3, 6432, Note_on_c, 1, 64, 93
3, 6456, Note_off_c, 1, 64, 0
3, 6456, Note_on_c, 1, 67, 93
3, 6480, Note_off_c, 1, 67, 0
3, 6480, Note_on_c, 1, 69, 93
3, 6648, Note_off_c, 1, 69, 0
3, 6648, Note_on_c, 1, 67, 93
3, 6672, Note_off_c, 1, 67, 0
3, 6672, Note_on_c, 1, 66, 93
3, 6696, Note_off_c, 1, 66, 0
3, 6696, Note_on_c, 1, 69, 93
3, 6720, Note_off_c, 1, 69, 0
3, 6720, Note_on_c, 1, 67, 93
3, 6744, Note_off_c, 1, 67, 0
3, 6744, Note_on_c, 1, 66, 93
3, 6768, Note_off_c, 1, 66, 0
3, 6768, Note_on_c, 1, 67, 93
3, 6792, Note_off_c, 1, 67, 0
3, 6792, Note_on_c, 1, 66, 93
3, 6816, Note_off_c, 1, 66, 0
3, 6816, Note_on_c, 1, 64, 93
3, 6840, Note_off_c, 1, 64, 0
3, 6840, Note_on_c, 1, 62, 93
3, 6864, Note_off_c, 1, 62, 0
3, 6864, Note_on_c, 1, 60, 93
3, 6888, Note_off_c, 1, 60, 0
3, 6888, Note_on_c, 1, 59, 93
3, 6912, Note_off_c, 1, 59, 0
3, 6912, Note_on_c, 1, 57, 93
3, 6960, Note_off_c, 1, 57, 0
3, 7056, Note_on_c, 1, 83, 93
3, 7248, Note_off_c, 1, 83, 0
3, 7248, Note_on_c, 1, 81, 93
3, 7272, Note_off_c, 1, 81, 0
3, 7272, Note_on_c, 1, 79, 93
3, 7296, Note_off_c, 1, 79, 0
3, 7296, Note_on_c, 1, 78, 93
3, 7320, Note_off_c, 1, 78, 0
3, 7320, Note_on_c, 1, 76, 93
3, 7344, Note_off_c, 1, 76, 0
3, 7344, Note_on_c, 1, 75, 93
3, 7392, Note_off_c, 1, 75, 0
3, 7392, Note_on_c, 1, 74, 93
3, 7536, Note_off_c, 1, 74, 0
3, 7536, Note_on_c, 1, 72, 93
3, 7560, Note_off_c, 1, 72, 0
3, 7560, Note_on_c, 1, 71, 93
3, 7584, Note_off_c, 1, 71, 0
3, 7584, Note_on_c, 1, 69, 93
3, 7608, Note_off_c, 1, 69, 0
3, 7608, Note_on_c, 1, 67, 93
3, 7632, Note_off_c, 1, 67, 0
3, 7632, Note_on_c, 1, 66, 93
3, 7800, Note_off_c, 1, 66, 0
3, 7800, Note_on_c, 1, 64, 93
3, 7824, Note_off_c, 1, 64, 0
3, 7824, Note_on_c, 1, 63, 93
3, 7848, Note_off_c, 1, 63, 0
3, 7848, Note_on_c, 1, 66, 93
3, 7872, Note_off_c, 1, 66, 0
3, 7872, Note_on_c, 1, 64, 93
3, 7896, Note_off_c, 1, 64, 0
3, 7896, Note_on_c, 1, 63, 93
3, 7920, Note_off_c, 1, 63, 0
3, 7920, Note_on_c, 1, 64, 93
3, 7944, Note_off_c, 1, 64, 0
3, 7944, Note_on_c, 1, 62, 93
3, 7968, Note_off_c, 1, 62, 0
3, 7968, Note_on_c, 1, 60, 93
3, 7992, Note_off_c, 1, 60, 0
3, 7992, Note_on_c, 1, 59, 93
3, 8016, Note_off_c, 1, 59, 0
3, 8016, Note_on_c, 1, 57, 93
3, 8040, Note_off_c, 1, 57, 0
3, 8040, Note_on_c, 1, 56, 93
3, 8064, Note_off_c, 1, 56, 0
3, 8064, Note_on_c, 1, 57, 93
3, 8112, Note_off_c, 1, 57, 0
3, 8208, Note_on_c, 1, 62, 93
3, 8376, Note_off_c, 1, 62, 0
3, 8376, Note_on_c, 1, 59, 93
3, 8400, Note_off_c, 1, 59, 0
3, 8400, Note_on_c, 1, 60, 93
3, 8424, Note_off_c, 1, 60, 0
3, 8424, Note_on_c, 1, 57, 93
3, 8448, Note_off_c, 1, 57, 0
3, 8448, Note_on_c, 1, 60, 93
3, 8472, Note_off_c, 1, 60, 0
3, 8472, Note_on_c, 1, 64, 93
3, 8496, Note_off_c, 1, 64, 0
3, 8496, Note_on_c, 1, 66, 93
3, 8664, Note_off_c, 1, 66, 0
3, 8664, Note_on_c, 1, 63, 93
3, 8688, Note_off_c, 1, 63, 0
3, 8688, Note_on_c, 1, 64, 93
3, 8712, Note_off_c, 1, 64, 0
3, 8712, Note_on_c, 1, 60, 93
3, 8736, Note_off_c, 1, 60, 0
3, 8736, Note_on_c, 1, 64, 93
3, 8760, Note_off_c, 1, 64, 0
3, 8760, Note_on_c, 1, 67, 93
3, 8784, Note_off_c, 1, 67, 0
3, 8784, Note_on_c, 1, 69, 93
3, 8952, Note_off_c, 1, 69, 0
3, 8952, Note_on_c, 1, 67, 93
3, 8976, Note_off_c, 1, 67, 0
3, 8976, Note_on_c, 1, 66, 93
3, 9000, Note_off_c, 1, 66, 0
3, 9000, Note_on_c, 1, 69, 93
3, 9024, Note_off_c, 1, 69, 0
3, 9024, Note_on_c, 1, 67, 93
3, 9048, Note_off_c, 1, 67, 0
3, 9048, Note_on_c, 1, 66, 93
3, 9072, Note_off_c, 1, 66, 0
3, 9072, Note_on_c, 1, 67, 93
3, 9216, Note_off_c, 1, 67, 0
3, 9216, End_track
4, 0, Start_track
4, 0, Title_t, "Track4"
4, 0, Program_c, 2, 6
4, 0, Control_c, 2, 7, 100
4, 0, Control_c, 2, 10, 54
4, 0, Note_on_c, 2, 43, 93
4, 24, Note_off_c, 2, 43, 0
4, 24, Note_on_c, 2, 42, 93
4, 48, Note_off_c, 2, 42, 0
4, 48, Note_on_c, 2, 43, 93
4, 72, Note_off_c, 2, 43, 0
4, 72, Note_on_c, 2, 45, 93
4, 96, Note_off_c, 2, 45, 0
4, 96, Note_on_c, 2, 47, 93
4, 120, Note_off_c, 2, 47, 0
4, 120, Note_on_c, 2, 43, 93
4, 144, Note_off_c, 2, 43, 0
4, 144, Note_on_c, 2, 50, 93
4, 168, Note_off_c, 2, 50, 0
4, 168, Note_on_c, 2, 48, 93
4, 192, Note_off_c, 2, 48, 0
4, 192, Note_on_c, 2, 50, 93
4, 216, Note_off_c, 2, 50, 0
4, 216, Note_on_c, 2, 52, 93
4, 240, Note_off_c, 2, 52, 0
4, 240, Note_on_c, 2, 54, 93
4, 264, Note_off_c, 2, 54, 0
4, 264, Note_on_c, 2, 50, 93
4, 288, Note_off_c, 2, 50, 0
4, 288, Note_on_c, 2, 55, 93
4, 312, Note_off_c, 2, 55, 0
4, 312, Note_on_c, 2, 54, 93
4, 336, Note_off_c, 2, 54, 0
4, 336, Note_on_c, 2, 52, 93
4, 360, Note_off_c, 2, 52, 0
4, 360, Note_on_c, 2, 54, 93
4, 384, Note_off_c, 2, 54, 0
4, 384, Note_on_c, 2, 55, 93
4, 408, Note_off_c, 2, 55, 0
4, 408, Note_on_c, 2, 52, 93
4, 432, Note_off_c, 2, 52, 0
4, 432, Note_on_c, 2, 57, 93
4, 456, Note_off_c, 2, 57, 0
4, 456, Note_on_c, 2, 55, 93
4, 480, Note_off_c, 2, 55, 0
4, 480, Note_on_c, 2, 54, 93
4, 504, Note_off_c, 2, 54, 0
4, 504, Note_on_c, 2, 55, 93
4, 528, Note_off_c, 2, 55, 0
4, 528, Note_on_c, 2, 57, 93
4, 552, Note_off_c, 2, 57, 0
4, 552, Note_on_c, 2, 54, 93
4, 576, Note_off_c, 2, 54, 0
4, 576, Note_on_c, 2, 59, 93
4, 600, Note_off_c, 2, 59, 0
4, 600, Note_on_c, 2, 57, 93
4, 624, Note_off_c, 2, 57, 0
4, 624, Note_on_c, 2, 55, 93
4, 648, Note_off_c, 2, 55, 0
4, 648, Note_on_c, 2, 57, 93
4, 672, Note_off_c, 2, 57, 0
4, 672, Note_on_c, 2, 59, 93
4, 696, Note_off_c, 2, 59, 0
4, 696, Note_on_c, 2, 55, 93
4, 720, Note_off_c, 2, 55, 0
4, 720, Note_on_c, 2, 60, 93
4, 744, Note_off_c, 2, 60, 0
4, 744, Note_on_c, 2, 59, 93
4, 768, Note_off_c, 2, 59, 0
4, 768, Note_on_c, 2, 57, 93
4, 792, Note_off_c, 2, 57, 0
4, 792, Note_on_c, 2, 55, 93
4, 816, Note_off_c, 2, 55, 0
4, 816, Note_on_c, 2, 54, 93
4, 840, Note_off_c, 2, 54, 0
4, 840, Note_on_c, 2, 52, 93
4, 864, Note_off_c, 2, 52, 0
4, 864, Note_on_c, 2, 54, 93
4, 888, Note_off_c, 2, 54, 0
4, 888, Note_on_c, 2, 52, 93
4, 912, Note_off_c, 2, 52, 0
4, 912, Note_on_c, 2, 54, 93
4, 936, Note_off_c, 2, 54, 0
4, 936, Note_on_c, 2, 50, 93
4, 960, Note_off_c, 2, 50, 0
4, 960, Note_on_c, 2, 52, 93
4, 984, Note_off_c, 2, 52, 0
4, 984, Note_on_c, 2, 54, 93
4, 1008, Note_off_c, 2, 54, 0
4, 1008, Note_on_c, 2, 55, 93
4, 1032, Note_off_c, 2, 55, 0
4, 1032, Note_on_c, 2, 52, 93
4, 1056, Note_off_c, 2, 52, 0
4, 1056, Note_on_c, 2, 50, 93
4, 1080, Note_off_c, 2, 50, 0
4, 1080, Note_on_c, 2, 48, 93
4, 1104, Note_off_c, 2, 48, 0
4, 1104, Note_on_c, 2, 47, 93
4, 1128, Note_off_c, 2, 47, 0
4, 1128, Note_on_c, 2, 45, 93
4, 1152, Note_off_c, 2, 45, 0
4, 1152, Note_on_c, 2, 43, 93
4, 1176, Note_off_c, 2, 43, 0
4, 1176, Note_on_c, 2, 54, 93
4, 1200, Note_off_c, 2, 54, 0
4, 1200, Note_on_c, 2, 52, 93
4, 1224, Note_off_c, 2, 52, 0
4, 1224, Note_on_c, 2, 50, 93
4, 1248, Note_off_c, 2, 50, 0
4, 1248, Note_on_c, 2, 48, 93
4, 1272, Note_off_c, 2, 48, 0
4, 1272, Note_on_c, 2, 47, 93
4, 1296, Note_off_c, 2, 47, 0
4, 1296, Note_on_c, 2, 49, 93
4, 1320, Note_off_c, 2, 49, 0
4, 1320, Note_on_c, 2, 45, 93
4, 1344, Note_off_c, 2, 45, 0
4, 1344, Note_on_c, 2, 50, 93
4, 1368, Note_off_c, 2, 50, 0
4, 1368, Note_on_c, 2, 52, 93
4, 1392, Note_off_c, 2, 52, 0
4, 1392, Note_on_c, 2, 54, 93
4, 1416, Note_off_c, 2, 54, 0
4, 1416, Note_on_c, 2, 50, 93
4, 1440, Note_off_c, 2, 50, 0
4, 1440, Note_on_c, 2, 55, 93
4, 1464, Note_off_c, 2, 55, 0
4, 1464, Note_on_c, 2, 54, 93
4, 1488, Note_off_c, 2, 54, 0
4, 1488, Note_on_c, 2, 52, 93
4, 1512, Note_off_c, 2, 52, 0
4, 1512, Note_on_c, 2, 54, 93
4, 1536, Note_off_c, 2, 54, 0
4, 1536, Note_on_c, 2, 55, 93
4, 1560, Note_off_c, 2, 55, 0
4, 1560, Note_on_c, 2, 52, 93
4, 1584, Note_off_c, 2, 52, 0
4, 1584, Note_on_c, 2, 57, 93
4, 1608, Note_off_c, 2, 57, 0
4, 1608, Note_on_c, 2, 55, 93
4, 1632, Note_off_c, 2, 55, 0
4, 1632, Note_on_c, 2, 54, 93
4, 1656, Note_off_c, 2, 54, 0
4, 1656, Note_on_c, 2, 55, 93
4, 1680, Note_off_c, 2, 55, 0
4, 1680, Note_on_c, 2, 57, 93
4, 1704, Note_off_c, 2, 57, 0
4, 1704, Note_on_c, 2, 54, 93
4, 1728, Note_off_c, 2, 54, 0
4, 1728, Note_on_c, 2, 59, 93
4, 1752, Note_off_c, 2, 59, 0
4, 1752, Note_on_c, 2, 57, 93
4, 1776, Note_off_c, 2, 57, 0
4, 1776, Note_on_c, 2, 55, 93
4, 1800, Note_off_c, 2, 55, 0
4, 1800, Note_on_c, 2, 57, 93
4, 1824, Note_off_c, 2, 57, 0
4, 1824, Note_on_c, 2, 59, 93
4, 1848, Note_off_c, 2, 59, 0
4, 1848, Note_on_c, 2, 57, 93
4, 1872, Note_off_c, 2, 57, 0
4, 1872, Note_on_c, 2, 56, 93
4, 1920, Note_off_c, 2, 56, 0
4, 1920, Note_on_c, 2, 44, 93
4, 1968, Note_off_c, 2, 44, 0
4, 2016, Note_on_c, 2, 45, 93
4, 2064, Note_off_c, 2, 45, 0
4, 2064, Note_on_c, 2, 33, 93
4, 2112, Note_off_c, 2, 33, 0
4, 2160, Note_on_c, 2, 38, 93
4, 2208, Note_off_c, 2, 38, 0
4, 2208, Note_on_c, 2, 50, 93
4, 2232, Note_off_c, 2, 50, 0
4, 2232, Note_on_c, 2, 48, 93
4, 2256, Note_off_c, 2, 48, 0
4, 2256, Note_on_c, 2, 47, 93
4, 2280, Note_off_c, 2, 47, 0
4, 2280, Note_on_c, 2, 45, 93
4, 2304, Note_off_c, 2, 45, 0
4, 2304, Note_on_c, 2, 43, 93
4, 2328, Note_off_c, 2, 43, 0
4, 2328, Note_on_c, 2, 42, 93
4, 2352, Note_off_c, 2, 42, 0
4, 2352, Note_on_c, 2, 43, 93
4, 2376, Note_off_c, 2, 43, 0
4, 2376, Note_on_c, 2, 45, 93
4, 2400, Note_off_c, 2, 45, 0
4, 2400, Note_on_c, 2, 47, 93
4, 2424, Note_off_c, 2, 47, 0
4, 2424, Note_on_c, 2, 43, 93
4, 2448, Note_off_c, 2, 43, 0
4, 2448, Note_on_c, 2, 50, 93
4, 2472, Note_off_c, 2, 50, 0
4, 2472, Note_on_c, 2, 48, 93
4, 2496, Note_off_c, 2, 48, 0
4, 2496, Note_on_c, 2, 50, 93
4, 2520, Note_off_c, 2, 50, 0
4, 2520, Note_on_c, 2, 52, 93
4, 2544, Note_off_c, 2, 52, 0
4, 2544, Note_on_c, 2, 54, 93
4, 2568, Note_off_c, 2, 54, 0
4, 2568, Note_on_c, 2, 50, 93
4, 2592, Note_off_c, 2, 50, 0
4, 2592, Note_on_c, 2, 55, 93
4, 2616, Note_off_c, 2, 55, 0
4, 2616, Note_on_c, 2, 54, 93
4, 2640, Note_off_c, 2, 54, 0
4, 2640, Note_on_c, 2, 52, 93
4, 2664, Note_off_c, 2, 52, 0
4, 2664, Note_on_c, 2, 54, 93
4, 2688, Note_off_c, 2, 54, 0
4, 2688, Note_on_c, 2, 55, 93
4, 2712, Note_off_c, 2, 55, 0
4, 2712, Note_on_c, 2, 52, 93
4, 2736, Note_off_c, 2, 52, 0
4, 2736, Note_on_c, 2, 57, 93
4, 2760, Note_off_c, 2, 57, 0
4, 2760, Note_on_c, 2, 55, 93
4, 2784, Note_off_c, 2, 55, 0
4, 2784, Note_on_c, 2, 54, 93
4, 2808, Note_off_c, 2, 54, 0
4, 2808, Note_on_c, 2, 55, 93
4, 2832, Note_off_c, 2, 55, 0
4, 2832, Note_on_c, 2, 57, 93
4, 2856, Note_off_c, 2, 57, 0
4, 2856, Note_on_c, 2, 54, 93
4, 2880, Note_off_c, 2, 54, 0
4, 2880, Note_on_c, 2, 59, 93
4, 2904, Note_off_c, 2, 59, 0
4, 2904, Note_on_c, 2, 57, 93
4, 2928, Note_off_c, 2, 57, 0
4, 2928, Note_on_c, 2, 55, 93
4, 2952, Note_off_c, 2, 55, 0
4, 2952, Note_on_c, 2, 57, 93
4, 2976, Note_off_c, 2, 57, 0
4, 2976, Note_on_c, 2, 59, 93
4, 3000, Note_off_c, 2, 59, 0
4, 3000, Note_on_c, 2, 55, 93
4, 3024, Note_off_c, 2, 55, 0
4, 3024, Note_on_c, 2, 60, 93
4, 3048, Note_off_c, 2, 60, 0
4, 3048, Note_on_c, 2, 59, 93
4, 3072, Note_off_c, 2, 59, 0
4, 3072, Note_on_c, 2, 57, 93
4, 3096, Note_off_c, 2, 57, 0
4, 3096, Note_on_c, 2, 55, 93
4, 3120, Note_off_c, 2, 55, 0
4, 3120, Note_on_c, 2, 54, 93
4, 3144, Note_off_c, 2, 54, 0
4, 3144, Note_on_c, 2, 52, 93
4, 3168, Note_off_c, 2, 52, 0
4, 3168, Note_on_c, 2, 54, 93
4, 3192, Note_off_c, 2, 54, 0
4, 3192, Note_on_c, 2, 52, 93
4, 3216, Note_off_c, 2, 52, 0
4, 3216, Note_on_c, 2, 54, 93
4, 3240, Note_off_c, 2, 54, 0
4, 3240, Note_on_c, 2, 50, 93
4, 3264, Note_off_c, 2, 50, 0
4, 3264, Note_on_c, 2, 52, 93
4, 3288, Note_off_c, 2, 52, 0
4, 3288, Note_on_c, 2, 54, 93
4, 3312, Note_off_c, 2, 54, 0
4, 3312, Note_on_c, 2, 55, 93
4, 3336, Note_off_c, 2, 55, 0
4, 3336, Note_on_c, 2, 52, 93
4, 3360, Note_off_c, 2, 52, 0
4, 3360, Note_on_c, 2, 50, 93
4, 3384, Note_off_c, 2, 50, 0
4, 3384, Note_on_c, 2, 48, 93
4, 3408, Note_off_c, 2, 48, 0
4, 3408, Note_on_c, 2, 47, 93
4, 3432, Note_off_c, 2, 47, 0
4, 3432, Note_on_c, 2, 45, 93
4, 3456, Note_off_c, 2, 45, 0
4, 3456, Note_on_c, 2, 43, 93
4, 3480, Note_off_c, 2, 43, 0
4, 3480, Note_on_c, 2, 54, 93
4, 3504, Note_off_c, 2, 54, 0
4, 3504, Note_on_c, 2, 52, 93
4, 3528, Note_off_c, 2, 52, 0
4, 3528, Note_on_c, 2, 50, 93
4, 3552, Note_off_c, 2, 50, 0
4, 3552, Note_on_c, 2, 48, 93
4, 3576, Note_off_c, 2, 48, 0
4, 3576, Note_on_c, 2, 47, 93
4, 3600, Note_off_c, 2, 47, 0
4, 3600, Note_on_c, 2, 49, 93
4, 3624, Note_off_c, 2, 49, 0
4, 3624, Note_on_c, 2, 45, 93
4, 3648, Note_off_c, 2, 45, 0
4, 3648, Note_on_c, 2, 50, 93
4, 3672, Note_off_c, 2, 50, 0
4, 3672, Note_on_c, 2, 52, 93
4, 3696, Note_off_c, 2, 52, 0
4, 3696, Note_on_c, 2, 54, 93
4, 3720, Note_off_c, 2, 54, 0
4, 3720, Note_on_c, 2, 50, 93
4, 3744, Note_off_c, 2, 50, 0
4, 3744, Note_on_c, 2, 55, 93
4, 3768, Note_off_c, 2, 55, 0
4, 3768, Note_on_c, 2, 54, 93
4, 3792, Note_off_c, 2, 54, 0
4, 3792, Note_on_c, 2, 52, 93
4, 3816, Note_off_c, 2, 52, 0
4, 3816, Note_on_c, 2, 54, 93
4, 3840, Note_off_c, 2, 54, 0
4, 3840, Note_on_c, 2, 55, 93
4, 3864, Note_off_c, 2, 55, 0
4, 3864, Note_on_c, 2, 52, 93
4, 3888, Note_off_c, 2, 52, 0
4, 3888, Note_on_c, 2, 57, 93
4, 3912, Note_off_c, 2, 57, 0
4, 3912, Note_on_c, 2, 55, 93
4, 3936, Note_off_c, 2, 55, 0
4, 3936, Note_on_c, 2, 54, 93
4, 3960, Note_off_c, 2, 54, 0
4, 3960, Note_on_c, 2, 55, 93
4, 3984, Note_off_c, 2, 55, 0
4, 3984, Note_on_c, 2, 57, 93
4, 4008, Note_off_c, 2, 57, 0
4, 4008, Note_on_c, 2, 54, 93
4, 4032, Note_off_c, 2, 54, 0
4, 4032, Note_on_c, 2, 59, 93
4, 4056, Note_off_c, 2, 59, 0
4, 4056, Note_on_c, 2, 57, 93
4, 4080, Note_off_c, 2, 57, 0
4, 4080, Note_on_c, 2, 55, 93
4, 4104, Note_off_c, 2, 55, 0
4, 4104, Note_on_c, 2, 57, 93
4, 4128, Note_off_c, 2, 57, 0
4, 4128, Note_on_c, 2, 59, 93
4, 4152, Note_off_c, 2, 59, 0
4, 4152, Note_on_c, 2, 57, 93
4, 4176, Note_off_c, 2, 57, 0
4, 4176, Note_on_c, 2, 56, 93
4, 4224, Note_off_c, 2, 56, 0
4, 4224, Note_on_c, 2, 44, 93
4, 4272, Note_off_c, 2, 44, 0
4, 4320, Note_on_c, 2, 45, 93
4, 4368, Note_off_c, 2, 45, 0
4, 4368, Note_on_c, 2, 33, 93
4, 4416, Note_off_c, 2, 33, 0
4, 4464, Note_on_c, 2, 38, 93
4, 4512, Note_off_c, 2, 38, 0
4, 4512, Note_on_c, 2, 42, 93
4, 4560, Note_off_c, 2, 42, 0
4, 4560, Note_on_c, 2, 45, 93
4, 4608, Note_off_c, 2, 45, 0
4, 4608, Note_on_c, 2, 50, 93
4, 4632, Note_off_c, 2, 50, 0
4, 4632, Note_on_c, 2, 49, 93
4, 4656, Note_off_c, 2, 49, 0
4, 4656, Note_on_c, 2, 50, 93
4, 4680, Note_off_c, 2, 50, 0
4, 4680, Note_on_c, 2, 52, 93
4, 4704, Note_off_c, 2, 52, 0
4, 4704, Note_on_c, 2, 54, 93
4, 4728, Note_off_c, 2, 54, 0
4, 4728, Note_on_c, 2, 50, 93
4, 4752, Note_off_c, 2, 50, 0
4, 4752, Note_on_c, 2, 55, 93
4, 4776, Note_off_c, 2, 55, 0
4, 4776, Note_on_c, 2, 54, 93
4, 4800, Note_off_c, 2, 54, 0
4, 4800, Note_on_c, 2, 52, 93
4, 4824, Note_off_c, 2, 52, 0
4, 4824, Note_on_c, 2, 54, 93
4, 4848, Note_off_c, 2, 54, 0
4, 4848, Note_on_c, 2, 55, 93
4, 4872, Note_off_c, 2, 55, 0
4, 4872, Note_on_c, 2, 52, 93
4, 4896, Note_off_c, 2, 52, 0
4, 4896, Note_on_c, 2, 57, 93
4, 4920, Note_off_c, 2, 57, 0
4, 4920, Note_on_c, 2, 55, 93
4, 4944, Note_off_c, 2, 55, 0
4, 4944, Note_on_c, 2, 54, 93
4, 4968, Note_off_c, 2, 54, 0
4, 4968, Note_on_c, 2, 55, 93
4, 4992, Note_off_c, 2, 55, 0
4, 4992, Note_on_c, 2, 57, 93
4, 5016, Note_off_c, 2, 57, 0
4, 5016, Note_on_c, 2, 54, 93
4, 5040, Note_off_c, 2, 54, 0
4, 5040, Note_on_c, 2, 59, 93
4, 5064, Note_off_c, 2, 59, 0
4, 5064, Note_on_c, 2, 57, 93
4, 5088, Note_off_c, 2, 57, 0
4, 5088, Note_on_c, 2, 56, 93
4, 5112, Note_off_c, 2, 56, 0
4, 5112, Note_on_c, 2, 57, 93
4, 5136, Note_off_c, 2, 57, 0
4, 5136, Note_on_c, 2, 59, 93
4, 5160, Note_off_c, 2, 59, 0
4, 5160, Note_on_c, 2, 56, 93
4, 5184, Note_off_c, 2, 56, 0
4, 5184, Note_on_c, 2, 60, 93
4, 5208, Note_off_c, 2, 60, 0
4, 5208, Note_on_c, 2, 59, 93
4, 5232, Note_off_c, 2, 59, 0
4, 5232, Note_on_c, 2, 57, 93
4, 5256, Note_off_c, 2, 57, 0
4, 5256, Note_on_c, 2, 59, 93
4, 5280, Note_off_c, 2, 59, 0
4, 5280, Note_on_c, 2, 60, 93
4, 5304, Note_off_c, 2, 60, 0
4, 5304, Note_on_c, 2, 59, 93
4, 5328, Note_off_c, 2, 59, 0
4, 5328, Note_on_c, 2, 58, 93
4, 5376, Note_off_c, 2, 58, 0
4, 5376, Note_on_c, 2, 46, 93
4, 5424, Note_off_c, 2, 46, 0
4, 5472, Note_on_c, 2, 47, 93
4, 5520, Note_off_c, 2, 47, 0
4, 5520, Note_on_c, 2, 35, 93
4, 5568, Note_off_c, 2, 35, 0
4, 5616, Note_on_c, 2, 40, 93
4, 5664, Note_off_c, 2, 40, 0
4, 5664, Note_on_c, 2, 52, 93
4, 5688, Note_off_c, 2, 52, 0
4, 5688, Note_on_c, 2, 50, 93
4, 5712, Note_off_c, 2, 50, 0
4, 5712, Note_on_c, 2, 48, 93
4, 5736, Note_off_c, 2, 48, 0
4, 5736, Note_on_c, 2, 47, 93
4, 5760, Note_off_c, 2, 47, 0
4, 5760, Note_on_c, 2, 45, 93
4, 5784, Note_off_c, 2, 45, 0
4, 5784, Note_on_c, 2, 48, 93
4, 5808, Note_off_c, 2, 48, 0
4, 5808, Note_on_c, 2, 52, 93
4, 5832, Note_off_c, 2, 52, 0
4, 5832, Note_on_c, 2, 55, 93
4, 5856, Note_off_c, 2, 55, 0
4, 5856, Note_on_c, 2, 54, 93
4, 5880, Note_off_c, 2, 54, 0
4, 5880, Note_on_c, 2, 52, 93
4, 5904, Note_off_c, 2, 52, 0
4, 5904, Note_on_c, 2, 54, 93
4, 5952, Note_off_c, 2, 54, 0
4, 5952, Note_on_c, 2, 43, 93
4, 6000, Note_off_c, 2, 43, 0
4, 6048, Note_on_c, 2, 55, 93
4, 6096, Note_off_c, 2, 55, 0
4, 6096, Note_on_c, 2, 45, 93
4, 6144, Note_off_c, 2, 45, 0
4, 6192, Note_on_c, 2, 57, 93
4, 6240, Note_off_c, 2, 57, 0
4, 6240, Note_on_c, 2, 47, 93
4, 6288, Note_off_c, 2, 47, 0
4, 6336, Note_on_c, 2, 59, 93
4, 6384, Note_off_c, 2, 59, 0
4, 6384, Note_on_c, 2, 48, 93
4, 6432, Note_off_c, 2, 48, 0
4, 6480, Note_on_c, 2, 49, 93
4, 6528, Note_off_c, 2, 49, 0
4, 6528, Note_on_c, 2, 37, 93
4, 6576, Note_off_c, 2, 37, 0
4, 6576, Note_on_c, 2, 49, 93
4, 6624, Note_off_c, 2, 49, 0
4, 6624, Note_on_c, 2, 50, 93
4, 6672, Note_off_c, 2, 50, 0
4, 6672, Note_on_c, 2, 38, 93
4, 6720, Note_off_c, 2, 38, 0
4, 6720, Note_on_c, 2, 50, 93
4, 6768, Note_off_c, 2, 50, 0
4, 6768, Note_on_c, 2, 43, 93
4, 6816, Note_off_c, 2, 43, 0
4, 6816, Note_on_c, 2, 55, 93
4, 6840, Note_off_c, 2, 55, 0
4, 6840, Note_on_c, 2, 54, 93
4, 6864, Note_off_c, 2, 54, 0
4, 6864, Note_on_c, 2, 52, 93
4, 6888, Note_off_c, 2, 52, 0
4, 6888, Note_on_c, 2, 55, 93
4, 6912, Note_off_c, 2, 55, 0
4, 6912, Note_on_c, 2, 54, 93
4, 6936, Note_off_c, 2, 54, 0
4, 6936, Note_on_c, 2, 52, 93
4, 6960, Note_off_c, 2, 52, 0
4, 6960, Note_on_c, 2, 50, 93
4, 6984, Note_off_c, 2, 50, 0
4, 6984, Note_on_c, 2, 52, 93
4, 7008, Note_off_c, 2, 52, 0
4, 7008, Note_on_c, 2, 54, 93
4, 7032, Note_off_c, 2, 54, 0
4, 7032, Note_on_c, 2, 50, 93
4, 7056, Note_off_c, 2, 50, 0
4, 7056, Note_on_c, 2, 55, 93
4, 7080, Note_off_c, 2, 55, 0
4, 7080, Note_on_c, 2, 54, 93
4, 7104, Note_off_c, 2, 54, 0
4, 7104, Note_on_c, 2, 52, 93
4, 7128, Note_off_c, 2, 52, 0
4, 7128, Note_on_c, 2, 54, 93
4, 7152, Note_off_c, 2, 54, 0
4, 7152, Note_on_c, 2, 55, 93
4, 7176, Note_off_c, 2, 55, 0
4, 7176, Note_on_c, 2, 52, 93
4, 7200, Note_off_c, 2, 52, 0
4, 7200, Note_on_c, 2, 57, 93
4, 7224, Note_off_c, 2, 57, 0
4, 7224, Note_on_c, 2, 55, 93
4, 7248, Note_off_c, 2, 55, 0
4, 7248, Note_on_c, 2, 54, 93
4, 7272, Note_off_c, 2, 54, 0
4, 7272, Note_on_c, 2, 55, 93
4, 7296, Note_off_c, 2, 55, 0
4, 7296, Note_on_c, 2, 57, 93
4, 7320, Note_off_c, 2, 57, 0
4, 7320, Note_on_c, 2, 54, 93
4, 7344, Note_off_c, 2, 54, 0
4, 7344, Note_on_c, 2, 59, 93
4, 7368, Note_off_c, 2, 59, 0
4, 7368, Note_on_c, 2, 57, 93
4, 7392, Note_off_c, 2, 57, 0
4, 7392, Note_on_c, 2, 56, 93
4, 7416, Note_off_c, 2, 56, 0
4, 7416, Note_on_c, 2, 57, 93
4, 7440, Note_off_c, 2, 57, 0
4, 7440, Note_on_c, 2, 59, 93
4, 7464, Note_off_c, 2, 59, 0
4, 7464, Note_on_c, 2, 56, 93
4, 7488, Note_off_c, 2, 56, 0
4, 7488, Note_on_c, 2, 60, 93
4, 7512, Note_off_c, 2, 60, 0
4, 7512, Note_on_c, 2, 59, 93
4, 7536, Note_off_c, 2, 59, 0
4, 7536, Note_on_c, 2, 57, 93
4, 7560, Note_off_c, 2, 57, 0
4, 7560, Note_on_c, 2, 59, 93
4, 7584, Note_off_c, 2, 59, 0
4, 7584, Note_on_c, 2, 60, 93
4, 7608, Note_off_c, 2, 60, 0
4, 7608, Note_on_c, 2, 59, 93
4, 7632, Note_off_c, 2, 59, 0
4, 7632, Note_on_c, 2, 58, 93
4, 7680, Note_off_c, 2, 58, 0
4, 7680, Note_on_c, 2, 46, 93
4, 7728, Note_off_c, 2, 46, 0
4, 7776, Note_on_c, 2, 47, 93
4, 7824, Note_off_c, 2, 47, 0
4, 7824, Note_on_c, 2, 35, 93
4, 7872, Note_off_c, 2, 35, 0
4, 7920, Note_on_c, 2, 40, 93
4, 7968, Note_off_c, 2, 40, 0
4, 7968, Note_on_c, 2, 52, 93
4, 7992, Note_off_c, 2, 52, 0
4, 7992, Note_on_c, 2, 50, 93
4, 8016, Note_off_c, 2, 50, 0
4, 8016, Note_on_c, 2, 48, 93
4, 8040, Note_off_c, 2, 48, 0
4, 8040, Note_on_c, 2, 47, 93
4, 8064, Note_off_c, 2, 47, 0
4, 8064, Note_on_c, 2, 45, 93
4, 8088, Note_off_c, 2, 45, 0
4, 8088, Note_on_c, 2, 48, 93
4, 8112, Note_off_c, 2, 48, 0
4, 8112, Note_on_c, 2, 52, 93
4, 8136, Note_off_c, 2, 52, 0
4, 8136, Note_on_c, 2, 55, 93
4, 8160, Note_off_c, 2, 55, 0
4, 8160, Note_on_c, 2, 54, 93
4, 8184, Note_off_c, 2, 54, 0
4, 8184, Note_on_c, 2, 52, 93
4, 8208, Note_off_c, 2, 52, 0
4, 8208, Note_on_c, 2, 54, 93
4, 8256, Note_off_c, 2, 54, 0
4, 8256, Note_on_c, 2, 43, 93
4, 8304, Note_off_c, 2, 43, 0
4, 8352, Note_on_c, 2, 55, 93
4, 8400, Note_off_c, 2, 55, 0
4, 8400, Note_on_c, 2, 45, 93
4, 8448, Note_off_c, 2, 45, 0
4, 8496, Note_on_c, 2, 57, 93
4, 8544, Note_off_c, 2, 57, 0
4, 8544, Note_on_c, 2, 47, 93
4, 8592, Note_off_c, 2, 47, 0
4, 8640, Note_on_c, 2, 59, 93
4, 8688, Note_off_c, 2, 59, 0
4, 8688, Note_on_c, 2, 48, 93
4, 8736, Note_off_c, 2, 48, 0
4, 8784, Note_on_c, 2, 49, 93
4, 8832, Note_off_c, 2, 49, 0
4, 8832, Note_on_c, 2, 37, 93
4, 8880, Note_off_c, 2, 37, 0
4, 8880, Note_on_c, 2, 49, 93
4, 8928, Note_off_c, 2, 49, 0
4, 8928, Note_on_c, 2, 50, 93
4, 8976, Note_off_c, 2, 50, 0
4, 8976, Note_on_c, 2, 38, 93
4, 9024, Note_off_c, 2, 38, 0
4, 9024, Note_on_c, 2, 50, 93
4, 9072, Note_off_c, 2, 50, 0
4, 9072, Note_on_c, 2, 43, 93
4, 9120, Note_off_c, 2, 43, 0
4, 9120, Note_on_c, 2, 50, 93
4, 9168, Note_off_c, 2, 50, 0
4, 9168, Note_on_c, 2, 55, 93
4, 9216, Note_off_c, 2, 55, 0
4, 9216, End_track
0, 0, End_of_file
