0, 0, Header, 1, 5, 96
1, 0, Start_track
1, 0, Time_signature, 4, 2, 24, 8
1, 0, Title_t, "untitled"
1, 0, Title_t, "Track1"
1, 0, Tempo, 240000
1, 288, Tempo, 359281
1, 64512, Tempo, 722891
1, 64512, End_track
2, 0, Start_track
2, 0, Title_t, "Track2"
2, 0, Program_c, 0, 42
2, 0, Control_c, 0, 7, 100
2, 0, Control_c, 0, 10, 64
2, 288, Note_on_c, 0, 51, 93
2, 312, Note_off_c, 0, 51, 0
2, 312, Note_on_c, 0, 53, 93
2, 336, Note_off_c, 0, 53, 0
2, 336, Note_on_c, 0, 55, 93
2, 360, Note_off_c, 0, 55, 0
2, 360, Note_on_c, 0, 56, 93
2, 384, Note_off_c, 0, 56, 0
2, 384, Note_on_c, 0, 58, 93
2, 480, Note_off_c, 0, 58, 0
2, 480, Note_on_c, 0, 60, 93
2, 528, Note_off_c, 0, 60, 0
2, 528, Note_on_c, 0, 56, 93
2, 576, Note_off_c, 0, 56, 0
2, 576, Note_on_c, 0, 58, 93
2, 672, Note_off_c, 0, 58, 0
2, 672, Note_on_c, 0, 60, 93
2, 720, Note_off_c, 0, 60, 0
2, 720, Note_on_c, 0, 55, 93
2, 768, Note_off_c, 0, 55, 0
2, 768, Note_on_c, 0, 56, 93
2, 864, Note_off_c, 0, 56, 0
2, 864, Note_on_c, 0, 53, 93
2, 960, Note_off_c, 0, 53, 0
2, 960, Note_on_c, 0, 41, 93
2, 1056, Note_off_c, 0, 41, 0
2, 1056, Note_on_c, 0, 50, 93
2, 1080, Note_off_c, 0, 50, 0
2, 1080, Note_on_c, 0, 51, 93
2, 1104, Note_off_c, 0, 51, 0
2, 1104, Note_on_c, 0, 53, 93
2, 1128, Note_off_c, 0, 53, 0
2, 1128, Note_on_c, 0, 55, 93
2, 1152, Note_off_c, 0, 55, 0
2, 1152, Note_on_c, 0, 56, 93
2, 1248, Note_off_c, 0, 56, 0
2, 1248, Note_on_c, 0, 58, 93
2, 1296, Note_off_c, 0, 58, 0
2, 1296, Note_on_c, 0, 55, 93
2, 1344, Note_off_c, 0, 55, 0
2, 1344, Note_on_c, 0, 56, 93
2, 1440, Note_off_c, 0, 56, 0
2, 1440, Note_on_c, 0, 58, 93
2, 1488, Note_off_c, 0, 58, 0
2, 1488, Note_on_c, 0, 53, 93
2, 1536, Note_off_c, 0, 53, 0
2, 1536, Note_on_c, 0, 55, 93
2, 1632, Note_off_c, 0, 55, 0
2, 1632, Note_on_c, 0, 51, 93
2, 1728, Note_off_c, 0, 51, 0
2, 1728, Note_on_c, 0, 39, 93
2, 1824, Note_off_c, 0, 39, 0
2, 1824, Note_on_c, 0, 51, 93
2, 1848, Note_off_c, 0, 51, 0
2, 1848, Note_on_c, 0, 53, 93
2, 1872, Note_off_c, 0, 53, 0
2, 1872, Note_on_c, 0, 55, 93
2, 1896, Note_off_c, 0, 55, 0
2, 1896, Note_on_c, 0, 56, 93
2, 1920, Note_off_c, 0, 56, 0
2, 1920, Note_on_c, 0, 58, 93
2, 2016, Note_off_c, 0, 58, 0
2, 2016, Note_on_c, 0, 46, 93
2, 2040, Note_off_c, 0, 46, 0
2, 2040, Note_on_c, 0, 48, 93
2, 2064, Note_off_c, 0, 48, 0
2, 2064, Note_on_c, 0, 50, 93
2, 2088, Note_off_c, 0, 50, 0
2, 2088, Note_on_c, 0, 51, 93
2, 2112, Note_off_c, 0, 51, 0
2, 2112, Note_on_c, 0, 53, 93
2, 2208, Note_off_c, 0, 53, 0
2, 2208, Note_on_c, 0, 56, 93
2, 2304, Note_off_c, 0, 56, 0
2, 2304, Note_on_c, 0, 56, 93
2, 2352, Note_off_c, 0, 56, 0
2, 2352, Note_on_c, 0, 55, 93
2, 2400, Note_off_c, 0, 55, 0
2, 2400, Note_on_c, 0, 53, 93
2, 2448, Note_off_c, 0, 53, 0
2, 2448, Note_on_c, 0, 51, 93
2, 2496, Note_off_c, 0, 51, 0
2, 2496, Note_on_c, 0, 53, 93
2, 2592, Note_off_c, 0, 53, 0
2, 2592, Note_on_c, 0, 51, 93
2, 2616, Note_off_c, 0, 51, 0
2, 2616, Note_on_c, 0, 53, 93
2, 2640, Note_off_c, 0, 53, 0
2, 2640, Note_on_c, 0, 55, 93
2, 2664, Note_off_c, 0, 55, 0
2, 2664, Note_on_c, 0, 56, 93
2, 2688, Note_off_c, 0, 56, 0
2, 2688, Note_on_c, 0, 58, 93
2, 2784, Note_off_c, 0, 58, 0
2, 2784, Note_on_c, 0, 46, 93
2, 2808, Note_off_c, 0, 46, 0
2, 2808, Note_on_c, 0, 48, 93
2, 2832, Note_off_c, 0, 48, 0
2, 2832, Note_on_c, 0, 50, 93
2, 2856, Note_off_c, 0, 50, 0
2, 2856, Note_on_c, 0, 51, 93
2, 2880, Note_off_c, 0, 51, 0
2, 2880, Note_on_c, 0, 53, 93
2, 2976, Note_off_c, 0, 53, 0
2, 2976, Note_on_c, 0, 56, 93
2, 3072, Note_off_c, 0, 56, 0
2, 3072, Note_on_c, 0, 56, 93
2, 3120, Note_off_c, 0, 56, 0
2, 3120, Note_on_c, 0, 55, 93
2, 3168, Note_off_c, 0, 55, 0
2, 3168, Note_on_c, 0, 53, 93
2, 3216, Note_off_c, 0, 53, 0
2, 3216, Note_on_c, 0, 51, 93
2, 3264, Note_off_c, 0, 51, 0
2, 3264, Note_on_c, 0, 53, 93
2, 3360, Note_off_c, 0, 53, 0
2, 3360, Note_on_c, 0, 53, 93
2, 3384, Note_off_c, 0, 53, 0
2, 3384, Note_on_c, 0, 55, 93
2, 3408, Note_off_c, 0, 55, 0
2, 3408, Note_on_c, 0, 57, 93
2, 3432, Note_off_c, 0, 57, 0
2, 3432, Note_on_c, 0, 58, 93
2, 3456, Note_off_c, 0, 58, 0
2, 3456, Note_on_c, 0, 60, 93
2, 3552, Note_off_c, 0, 60, 0
2, 3552, Note_on_c, 0, 57, 93
2, 3576, Note_off_c, 0, 57, 0
2, 3576, Note_on_c, 0, 58, 93
2, 3600, Note_off_c, 0, 58, 0
2, 3600, Note_on_c, 0, 60, 93
2, 3624, Note_off_c, 0, 60, 0
2, 3624, Note_on_c, 0, 62, 93
2, 3648, Note_off_c, 0, 62, 0
2, 3648, Note_on_c, 0, 63, 93
2, 3744, Note_off_c, 0, 63, 0
2, 3744, Note_on_c, 0, 53, 93
2, 3768, Note_off_c, 0, 53, 0
2, 3768, Note_on_c, 0, 55, 93
2, 3792, Note_off_c, 0, 55, 0
2, 3792, Note_on_c, 0, 57, 93
2, 3816, Note_off_c, 0, 57, 0
2, 3816, Note_on_c, 0, 58, 93
2, 3840, Note_off_c, 0, 58, 0
2, 3840, Note_on_c, 0, 60, 93
2, 3936, Note_off_c, 0, 60, 0
2, 3936, Note_on_c, 0, 57, 93
2, 3960, Note_off_c, 0, 57, 0
2, 3960, Note_on_c, 0, 58, 93
2, 3984, Note_off_c, 0, 58, 0
2, 3984, Note_on_c, 0, 60, 93
2, 4008, Note_off_c, 0, 60, 0
2, 4008, Note_on_c, 0, 62, 93
2, 4032, Note_off_c, 0, 62, 0
2, 4032, Note_on_c, 0, 63, 93
2, 4128, Note_off_c, 0, 63, 0
2, 4128, Note_on_c, 0, 62, 93
2, 4176, Note_off_c, 0, 62, 0
2, 4176, Note_on_c, 0, 60, 93
2, 4224, Note_off_c, 0, 60, 0
2, 4224, Note_on_c, 0, 62, 93
2, 4272, Note_off_c, 0, 62, 0
2, 4272, Note_on_c, 0, 58, 93
2, 4320, Note_off_c, 0, 58, 0
2, 4320, Note_on_c, 0, 55, 93
2, 4368, Note_off_c, 0, 55, 0
2, 4368, Note_on_c, 0, 58, 93
2, 4416, Note_off_c, 0, 58, 0
2, 4416, Note_on_c, 0, 51, 93
2, 4464, Note_off_c, 0, 51, 0
2, 4464, Note_on_c, 0, 60, 93
2, 4512, Note_off_c, 0, 60, 0
2, 4512, Note_on_c, 0, 53, 93
2, 4560, Note_off_c, 0, 53, 0
2, 4560, Note_on_c, 0, 57, 93
2, 4608, Note_off_c, 0, 57, 0
2, 4608, Note_on_c, 0, 58, 93
2, 4704, Note_off_c, 0, 58, 0
2, 4704, Note_on_c, 0, 53, 93
2, 4800, Note_off_c, 0, 53, 0
2, 4800, Note_on_c, 0, 46, 93
2, 4896, Note_off_c, 0, 46, 0
2, 4896, Note_on_c, 0, 51, 93
2, 4920, Note_off_c, 0, 51, 0
2, 4920, Note_on_c, 0, 53, 93
2, 4944, Note_off_c, 0, 53, 0
2, 4944, Note_on_c, 0, 55, 93
2, 4968, Note_off_c, 0, 55, 0
2, 4968, Note_on_c, 0, 56, 93
2, 4992, Note_off_c, 0, 56, 0
2, 4992, Note_on_c, 0, 58, 93
2, 5088, Note_off_c, 0, 58, 0
2, 5088, Note_on_c, 0, 60, 93
2, 5136, Note_off_c, 0, 60, 0
2, 5136, Note_on_c, 0, 56, 93
2, 5184, Note_off_c, 0, 56, 0
2, 5184, Note_on_c, 0, 58, 93
2, 5280, Note_off_c, 0, 58, 0
2, 5280, Note_on_c, 0, 60, 93
2, 5328, Note_off_c, 0, 60, 0
2, 5328, Note_on_c, 0, 55, 93
2, 5376, Note_off_c, 0, 55, 0
2, 5376, Note_on_c, 0, 56, 93
2, 5472, Note_off_c, 0, 56, 0
2, 5472, Note_on_c, 0, 53, 93
2, 5568, Note_off_c, 0, 53, 0
2, 5568, Note_on_c, 0, 41, 93
2, 5664, Note_off_c, 0, 41, 0
2, 5664, Note_on_c, 0, 50, 93
2, 5688, Note_off_c, 0, 50, 0
2, 5688, Note_on_c, 0, 51, 93
2, 5712, Note_off_c, 0, 51, 0
2, 5712, Note_on_c, 0, 53, 93
2, 5736, Note_off_c, 0, 53, 0
2, 5736, Note_on_c, 0, 55, 93
2, 5760, Note_off_c, 0, 55, 0
2, 5760, Note_on_c, 0, 56, 93
2, 5856, Note_off_c, 0, 56, 0
2, 5856, Note_on_c, 0, 58, 93
2, 5904, Note_off_c, 0, 58, 0
2, 5904, Note_on_c, 0, 55, 93
2, 5952, Note_off_c, 0, 55, 0
2, 5952, Note_on_c, 0, 56, 93
2, 6048, Note_off_c, 0, 56, 0
2, 6048, Note_on_c, 0, 58, 93
2, 6096, Note_off_c, 0, 58, 0
2, 6096, Note_on_c, 0, 53, 93
2, 6144, Note_off_c, 0, 53, 0
2, 6144, Note_on_c, 0, 55, 93
2, 6240, Note_off_c, 0, 55, 0
2, 6240, Note_on_c, 0, 51, 93
2, 6336, Note_off_c, 0, 51, 0
2, 6336, Note_on_c, 0, 39, 93
2, 6432, Note_off_c, 0, 39, 0
2, 6432, Note_on_c, 0, 51, 93
2, 6456, Note_off_c, 0, 51, 0
2, 6456, Note_on_c, 0, 53, 93
2, 6480, Note_off_c, 0, 53, 0
2, 6480, Note_on_c, 0, 55, 93
2, 6504, Note_off_c, 0, 55, 0
2, 6504, Note_on_c, 0, 56, 93
2, 6528, Note_off_c, 0, 56, 0
2, 6528, Note_on_c, 0, 58, 93
2, 6624, Note_off_c, 0, 58, 0
2, 6624, Note_on_c, 0, 46, 93
2, 6648, Note_off_c, 0, 46, 0
2, 6648, Note_on_c, 0, 48, 93
2, 6672, Note_off_c, 0, 48, 0
2, 6672, Note_on_c, 0, 50, 93
2, 6696, Note_off_c, 0, 50, 0
2, 6696, Note_on_c, 0, 51, 93
2, 6720, Note_off_c, 0, 51, 0
2, 6720, Note_on_c, 0, 53, 93
2, 6816, Note_off_c, 0, 53, 0
2, 6816, Note_on_c, 0, 56, 93
2, 6912, Note_off_c, 0, 56, 0
2, 6912, Note_on_c, 0, 56, 93
2, 6960, Note_off_c, 0, 56, 0
2, 6960, Note_on_c, 0, 55, 93
2, 7008, Note_off_c, 0, 55, 0
2, 7008, Note_on_c, 0, 53, 93
2, 7056, Note_off_c, 0, 53, 0
2, 7056, Note_on_c, 0, 51, 93
2, 7104, Note_off_c, 0, 51, 0
2, 7104, Note_on_c, 0, 53, 93
2, 7200, Note_off_c, 0, 53, 0
2, 7200, Note_on_c, 0, 51, 93
2, 7224, Note_off_c, 0, 51, 0
2, 7224, Note_on_c, 0, 53, 93
2, 7248, Note_off_c, 0, 53, 0
2, 7248, Note_on_c, 0, 55, 93
2, 7272, Note_off_c, 0, 55, 0
2, 7272, Note_on_c, 0, 56, 93
2, 7296, Note_off_c, 0, 56, 0
2, 7296, Note_on_c, 0, 58, 93
2, 7392, Note_off_c, 0, 58, 0
2, 7392, Note_on_c, 0, 46, 93
2, 7416, Note_off_c, 0, 46, 0
2, 7416, Note_on_c, 0, 48, 93
2, 7440, Note_off_c, 0, 48, 0
2, 7440, Note_on_c, 0, 50, 93
2, 7464, Note_off_c, 0, 50, 0
2, 7464, Note_on_c, 0, 51, 93
2, 7488, Note_off_c, 0, 51, 0
2, 7488, Note_on_c, 0, 53, 93
2, 7584, Note_off_c, 0, 53, 0
2, 7584, Note_on_c, 0, 56, 93
2, 7680, Note_off_c, 0, 56, 0
2, 7680, Note_on_c, 0, 56, 93
2, 7728, Note_off_c, 0, 56, 0
2, 7728, Note_on_c, 0, 55, 93
2, 7776, Note_off_c, 0, 55, 0
2, 7776, Note_on_c, 0, 53, 93
2, 7824, Note_off_c, 0, 53, 0
2, 7824, Note_on_c, 0, 51, 93
2, 7872, Note_off_c, 0, 51, 0
2, 7872, Note_on_c, 0, 53, 93
2, 7968, Note_off_c, 0, 53, 0
2, 7968, Note_on_c, 0, 53, 93
2, 7992, Note_off_c, 0, 53, 0
2, 7992, Note_on_c, 0, 55, 93
2, 8016, Note_off_c, 0, 55, 0
2, 8016, Note_on_c, 0, 57, 93
2, 8040, Note_off_c, 0, 57, 0
2, 8040, Note_on_c, 0, 58, 93
2, 8064, Note_off_c, 0, 58, 0
2, 8064, Note_on_c, 0, 60, 93
2, 8160, Note_off_c, 0, 60, 0
2, 8160, Note_on_c, 0, 57, 93
2, 8184, Note_off_c, 0, 57, 0
2, 8184, Note_on_c, 0, 58, 93
2, 8208, Note_off_c, 0, 58, 0
2, 8208, Note_on_c, 0, 60, 93
2, 8232, Note_off_c, 0, 60, 0
2, 8232, Note_on_c, 0, 62, 93
2, 8256, Note_off_c, 0, 62, 0
2, 8256, Note_on_c, 0, 63, 93
2, 8352, Note_off_c, 0, 63, 0
2, 8352, Note_on_c, 0, 53, 93
2, 8376, Note_off_c, 0, 53, 0
2, 8376, Note_on_c, 0, 55, 93
2, 8400, Note_off_c, 0, 55, 0
2, 8400, Note_on_c, 0, 57, 93
2, 8424, Note_off_c, 0, 57, 0
2, 8424, Note_on_c, 0, 58, 93
2, 8448, Note_off_c, 0, 58, 0
2, 8448, Note_on_c, 0, 60, 93
2, 8544, Note_off_c, 0, 60, 0
2, 8544, Note_on_c, 0, 57, 93
2, 8568, Note_off_c, 0, 57, 0
2, 8568, Note_on_c, 0, 58, 93
2, 8592, Note_off_c, 0, 58, 0
2, 8592, Note_on_c, 0, 60, 93
2, 8616, Note_off_c, 0, 60, 0
2, 8616, Note_on_c, 0, 62, 93
2, 8640, Note_off_c, 0, 62, 0
2, 8640, Note_on_c, 0, 63, 93
2, 8736, Note_off_c, 0, 63, 0
2, 8736, Note_on_c, 0, 62, 93
2, 8784, Note_off_c, 0, 62, 0
2, 8784, Note_on_c, 0, 60, 93
2, 8832, Note_off_c, 0, 60, 0
2, 8832, Note_on_c, 0, 62, 93
2, 8880, Note_off_c, 0, 62, 0
2, 8880, Note_on_c, 0, 58, 93
2, 8928, Note_off_c, 0, 58, 0
2, 8928, Note_on_c, 0, 55, 93
2, 8976, Note_off_c, 0, 55, 0
2, 8976, Note_on_c, 0, 58, 93
2, 9024, Note_off_c, 0, 58, 0
2, 9024, Note_on_c, 0, 51, 93
2, 9072, Note_off_c, 0, 51, 0
2, 9072, Note_on_c, 0, 60, 93
2, 9120, Note_off_c, 0, 60, 0
2, 9120, Note_on_c, 0, 53, 93
2, 9168, Note_off_c, 0, 53, 0
2, 9168, Note_on_c, 0, 57, 93
2, 9216, Note_off_c, 0, 57, 0
2, 9216, Note_on_c, 0, 58, 93
2, 9312, Note_off_c, 0, 58, 0
2, 9312, Note_on_c, 0, 53, 93
2, 9408, Note_off_c, 0, 53, 0
2, 9408, Note_on_c, 0, 46, 93
2, 9504, Note_off_c, 0, 46, 0
2, 9504, Note_on_c, 0, 46, 93
2, 9528, Note_off_c, 0, 46, 0
2, 9528, Note_on_c, 0, 48, 93
2, 9552, Note_off_c, 0, 48, 0
2, 9552, Note_on_c, 0, 50, 93
2, 9576, Note_off_c, 0, 50, 0
2, 9576, Note_on_c, 0, 51, 93
2, 9600, Note_off_c, 0, 51, 0
2, 9600, Note_on_c, 0, 53, 93
2, 9696, Note_off_c, 0, 53, 0
2, 9696, Note_on_c, 0, 55, 93
2, 9744, Note_off_c, 0, 55, 0
2, 9744, Note_on_c, 0, 51, 93
2, 9792, Note_off_c, 0, 51, 0
2, 9792, Note_on_c, 0, 53, 93
2, 9888, Note_off_c, 0, 53, 0
2, 9888, Note_on_c, 0, 58, 93
2, 9936, Note_off_c, 0, 58, 0
2, 9936, Note_on_c, 0, 53, 93
2, 9984, Note_off_c, 0, 53, 0
2, 9984, Note_on_c, 0, 55, 93
2, 10080, Note_off_c, 0, 55, 0
2, 10080, Note_on_c, 0, 51, 93
2, 10176, Note_off_c, 0, 51, 0
2, 10176, Note_on_c, 0, 39, 93
2, 10272, Note_off_c, 0, 39, 0
2, 10272, Note_on_c, 0, 56, 93
2, 10296, Note_off_c, 0, 56, 0
2, 10296, Note_on_c, 0, 55, 93
2, 10320, Note_off_c, 0, 55, 0
2, 10320, Note_on_c, 0, 53, 93
2, 10344, Note_off_c, 0, 53, 0
2, 10344, Note_on_c, 0, 51, 93
2, 10368, Note_off_c, 0, 51, 0
2, 10368, Note_on_c, 0, 50, 93
2, 10464, Note_off_c, 0, 50, 0
2, 10464, Note_on_c, 0, 53, 93
2, 10488, Note_off_c, 0, 53, 0
2, 10488, Note_on_c, 0, 51, 93
2, 10512, Note_off_c, 0, 51, 0
2, 10512, Note_on_c, 0, 50, 93
2, 10536, Note_off_c, 0, 50, 0
2, 10536, Note_on_c, 0, 48, 93
2, 10560, Note_off_c, 0, 48, 0
2, 10560, Note_on_c, 0, 47, 93
2, 10656, Note_off_c, 0, 47, 0
2, 10656, Note_on_c, 0, 50, 93
2, 10680, Note_off_c, 0, 50, 0
2, 10680, Note_on_c, 0, 48, 93
2, 10704, Note_off_c, 0, 48, 0
2, 10704, Note_on_c, 0, 47, 93
2, 10728, Note_off_c, 0, 47, 0
2, 10728, Note_on_c, 0, 45, 93
2, 10752, Note_off_c, 0, 45, 0
2, 10752, Note_on_c, 0, 43, 93
2, 10800, Note_off_c, 0, 43, 0
2, 10800, Note_on_c, 0, 50, 93
2, 10848, Note_off_c, 0, 50, 0
2, 10848, Note_on_c, 0, 53, 93
2, 10896, Note_off_c, 0, 53, 0
2, 10896, Note_on_c, 0, 59, 93
2, 10944, Note_off_c, 0, 59, 0
2, 10944, Note_on_c, 0, 62, 93
2, 11040, Note_off_c, 0, 62, 0
2, 11040, Note_on_c, 0, 55, 93
2, 11064, Note_off_c, 0, 55, 0
2, 11064, Note_on_c, 0, 53, 93
2, 11088, Note_off_c, 0, 53, 0
2, 11088, Note_on_c, 0, 51, 93
2, 11112, Note_off_c, 0, 51, 0
2, 11112, Note_on_c, 0, 50, 93
2, 11136, Note_off_c, 0, 50, 0
2, 11136, Note_on_c, 0, 51, 93
2, 11232, Note_off_c, 0, 51, 0
2, 11232, Note_on_c, 0, 36, 93
2, 11256, Note_off_c, 0, 36, 0
2, 11256, Note_on_c, 0, 38, 93
2, 11280, Note_off_c, 0, 38, 0
2, 11280, Note_on_c, 0, 39, 93
2, 11304, Note_off_c, 0, 39, 0
2, 11304, Note_on_c, 0, 41, 93
2, 11328, Note_off_c, 0, 41, 0
2, 11328, Note_on_c, 0, 43, 93
2, 11424, Note_off_c, 0, 43, 0
2, 11424, Note_on_c, 0, 62, 93
2, 11448, Note_off_c, 0, 62, 0
2, 11448, Note_on_c, 0, 60, 93
2, 11472, Note_off_c, 0, 60, 0
2, 11472, Note_on_c, 0, 59, 93
2, 11496, Note_off_c, 0, 59, 0
2, 11496, Note_on_c, 0, 57, 93
2, 11520, Note_off_c, 0, 57, 0
2, 11520, Note_on_c, 0, 59, 93
2, 11616, Note_off_c, 0, 59, 0
2, 11616, Note_on_c, 0, 43, 93
2, 11640, Note_off_c, 0, 43, 0
2, 11640, Note_on_c, 0, 45, 93
2, 11664, Note_off_c, 0, 45, 0
2, 11664, Note_on_c, 0, 47, 93
2, 11688, Note_off_c, 0, 47, 0
2, 11688, Note_on_c, 0, 48, 93
2, 11712, Note_off_c, 0, 48, 0
2, 11712, Note_on_c, 0, 50, 93
2, 11808, Note_off_c, 0, 50, 0
2, 11808, Note_on_c, 0, 67, 93
2, 11832, Note_off_c, 0, 67, 0
2, 11832, Note_on_c, 0, 65, 93
2, 11856, Note_off_c, 0, 65, 0
2, 11856, Note_on_c, 0, 63, 93
2, 11880, Note_off_c, 0, 63, 0
2, 11880, Note_on_c, 0, 62, 93
2, 11904, Note_off_c, 0, 62, 0
2, 11904, Note_on_c, 0, 63, 93
2, 12000, Note_off_c, 0, 63, 0
2, 12000, Note_on_c, 0, 63, 93
2, 12024, Note_off_c, 0, 63, 0
2, 12024, Note_on_c, 0, 62, 93
2, 12048, Note_off_c, 0, 62, 0
2, 12048, Note_on_c, 0, 60, 93
2, 12072, Note_off_c, 0, 60, 0
2, 12072, Note_on_c, 0, 59, 93
2, 12096, Note_off_c, 0, 59, 0
2, 12096, Note_on_c, 0, 60, 93
2, 12192, Note_off_c, 0, 60, 0
2, 12192, Note_on_c, 0, 60, 93
2, 12216, Note_off_c, 0, 60, 0
2, 12216, Note_on_c, 0, 58, 93
2, 12240, Note_off_c, 0, 58, 0
2, 12240, Note_on_c, 0, 56, 93
2, 12264, Note_off_c, 0, 56, 0
2, 12264, Note_on_c, 0, 55, 93
2, 12288, Note_off_c, 0, 55, 0
2, 12288, Note_on_c, 0, 56, 93
2, 12384, Note_off_c, 0, 56, 0
2, 12384, Note_on_c, 0, 56, 93
2, 12408, Note_off_c, 0, 56, 0
2, 12408, Note_on_c, 0, 55, 93
2, 12432, Note_off_c, 0, 55, 0
2, 12432, Note_on_c, 0, 53, 93
2, 12456, Note_off_c, 0, 53, 0
2, 12456, Note_on_c, 0, 51, 93
2, 12480, Note_off_c, 0, 51, 0
2, 12480, Note_on_c, 0, 50, 93
2, 12576, Note_off_c, 0, 50, 0
2, 12576, Note_on_c, 0, 60, 93
2, 12624, Note_off_c, 0, 60, 0
2, 12624, Note_on_c, 0, 59, 93
2, 12672, Note_off_c, 0, 59, 0
2, 12672, Note_on_c, 0, 60, 93
2, 12720, Note_off_c, 0, 60, 0
2, 12720, Note_on_c, 0, 56, 93
2, 12768, Note_off_c, 0, 56, 0
2, 12768, Note_on_c, 0, 53, 93
2, 12816, Note_off_c, 0, 53, 0
2, 12816, Note_on_c, 0, 56, 93
2, 12864, Note_off_c, 0, 56, 0
2, 12864, Note_on_c, 0, 50, 93
2, 12912, Note_off_c, 0, 50, 0
2, 12912, Note_on_c, 0, 60, 93
2, 12960, Note_off_c, 0, 60, 0
2, 12960, Note_on_c, 0, 55, 93
2, 13008, Note_off_c, 0, 55, 0
2, 13008, Note_on_c, 0, 59, 93
2, 13056, Note_off_c, 0, 59, 0
2, 13056, Note_on_c, 0, 60, 93
2, 13152, Note_off_c, 0, 60, 0
2, 13152, Note_on_c, 0, 43, 93
2, 13248, Note_off_c, 0, 43, 0
2, 13248, Note_on_c, 0, 36, 93
2, 13344, Note_off_c, 0, 36, 0
2, 13344, Note_on_c, 0, 48, 93
2, 13368, Note_off_c, 0, 48, 0
2, 13368, Note_on_c, 0, 50, 93
2, 13392, Note_off_c, 0, 50, 0
2, 13392, Note_on_c, 0, 52, 93
2, 13416, Note_off_c, 0, 52, 0
2, 13416, Note_on_c, 0, 53, 93
2, 13440, Note_off_c, 0, 53, 0
2, 13440, Note_on_c, 0, 55, 93
2, 13536, Note_off_c, 0, 55, 0
2, 13536, Note_on_c, 0, 56, 93
2, 13584, Note_off_c, 0, 56, 0
2, 13584, Note_on_c, 0, 53, 93
2, 13632, Note_off_c, 0, 53, 0
2, 13632, Note_on_c, 0, 55, 93
2, 13728, Note_off_c, 0, 55, 0
2, 13728, Note_on_c, 0, 60, 93
2, 13776, Note_off_c, 0, 60, 0
2, 13776, Note_on_c, 0, 55, 93
2, 13824, Note_off_c, 0, 55, 0
2, 13824, Note_on_c, 0, 58, 93
2, 13872, Note_off_c, 0, 58, 0
2, 13872, Note_on_c, 0, 56, 93
2, 13920, Note_off_c, 0, 56, 0
2, 13920, Note_on_c, 0, 55, 93
2, 13968, Note_off_c, 0, 55, 0
2, 13968, Note_on_c, 0, 53, 93
2, 14016, Note_off_c, 0, 53, 0
2, 14016, Note_on_c, 0, 63, 93
2, 14064, Note_off_c, 0, 63, 0
2, 14064, Note_on_c, 0, 62, 93
2, 14112, Note_off_c, 0, 62, 0
2, 14112, Note_on_c, 0, 60, 93
2, 14160, Note_off_c, 0, 60, 0
2, 14160, Note_on_c, 0, 58, 93
2, 14208, Note_off_c, 0, 58, 0
2, 14208, Note_on_c, 0, 63, 93
2, 14304, Note_off_c, 0, 63, 0
2, 14304, Note_on_c, 0, 51, 93
2, 14328, Note_off_c, 0, 51, 0
2, 14328, Note_on_c, 0, 53, 93
2, 14352, Note_off_c, 0, 53, 0
2, 14352, Note_on_c, 0, 55, 93
2, 14376, Note_off_c, 0, 55, 0
2, 14376, Note_on_c, 0, 56, 93
2, 14400, Note_off_c, 0, 56, 0
2, 14400, Note_on_c, 0, 58, 93
2, 14496, Note_off_c, 0, 58, 0
2, 14496, Note_on_c, 0, 60, 93
2, 14592, Note_off_c, 0, 60, 0
2, 14592, Note_on_c, 0, 51, 93
2, 14640, Note_off_c, 0, 51, 0
2, 14640, Note_on_c, 0, 50, 93
2, 14688, Note_off_c, 0, 50, 0
2, 14688, Note_on_c, 0, 48, 93
2, 14736, Note_off_c, 0, 48, 0
2, 14736, Note_on_c, 0, 50, 93
2, 14784, Note_off_c, 0, 50, 0
2, 14784, Note_on_c, 0, 46, 93
2, 14880, Note_off_c, 0, 46, 0
2, 14880, Note_on_c, 0, 46, 93
2, 14904, Note_off_c, 0, 46, 0
2, 14904, Note_on_c, 0, 48, 93
2, 14928, Note_off_c, 0, 48, 0
2, 14928, Note_on_c, 0, 50, 93
2, 14952, Note_off_c, 0, 50, 0
2, 14952, Note_on_c, 0, 51, 93
2, 14976, Note_off_c, 0, 51, 0
2, 14976, Note_on_c, 0, 53, 93
2, 15072, Note_off_c, 0, 53, 0
2, 15072, Note_on_c, 0, 50, 93
2, 15096, Note_off_c, 0, 50, 0
2, 15096, Note_on_c, 0, 51, 93
2, 15120, Note_off_c, 0, 51, 0
2, 15120, Note_on_c, 0, 53, 93
2, 15144, Note_off_c, 0, 53, 0
2, 15144, Note_on_c, 0, 55, 93
2, 15168, Note_off_c, 0, 55, 0
2, 15168, Note_on_c, 0, 56, 93
2, 15264, Note_off_c, 0, 56, 0
2, 15264, Note_on_c, 0, 46, 93
2, 15288, Note_off_c, 0, 46, 0
2, 15288, Note_on_c, 0, 48, 93
2, 15312, Note_off_c, 0, 48, 0
2, 15312, Note_on_c, 0, 50, 93
2, 15336, Note_off_c, 0, 50, 0
2, 15336, Note_on_c, 0, 51, 93
2, 15360, Note_off_c, 0, 51, 0
2, 15360, Note_on_c, 0, 53, 93
2, 15456, Note_off_c, 0, 53, 0
2, 15456, Note_on_c, 0, 50, 93
2, 15480, Note_off_c, 0, 50, 0
2, 15480, Note_on_c, 0, 51, 93
2, 15504, Note_off_c, 0, 51, 0
2, 15504, Note_on_c, 0, 53, 93
2, 15528, Note_off_c, 0, 53, 0
2, 15528, Note_on_c, 0, 55, 93
2, 15552, Note_off_c, 0, 55, 0
2, 15552, Note_on_c, 0, 56, 93
2, 15648, Note_off_c, 0, 56, 0
2, 15648, Note_on_c, 0, 51, 93
2, 15672, Note_off_c, 0, 51, 0
2, 15672, Note_on_c, 0, 53, 93
2, 15696, Note_off_c, 0, 53, 0
2, 15696, Note_on_c, 0, 55, 93
2, 15720, Note_off_c, 0, 55, 0
2, 15720, Note_on_c, 0, 56, 93
2, 15744, Note_off_c, 0, 56, 0
2, 15744, Note_on_c, 0, 58, 93
2, 15840, Note_off_c, 0, 58, 0
2, 15840, Note_on_c, 0, 55, 93
2, 15864, Note_off_c, 0, 55, 0
2, 15864, Note_on_c, 0, 56, 93
2, 15888, Note_off_c, 0, 56, 0
2, 15888, Note_on_c, 0, 58, 93
2, 15912, Note_off_c, 0, 58, 0
2, 15912, Note_on_c, 0, 60, 93
2, 15936, Note_off_c, 0, 60, 0
2, 15936, Note_on_c, 0, 61, 93
2, 16032, Note_off_c, 0, 61, 0
2, 16032, Note_on_c, 0, 51, 93
2, 16056, Note_off_c, 0, 51, 0
2, 16056, Note_on_c, 0, 53, 93
2, 16080, Note_off_c, 0, 53, 0
2, 16080, Note_on_c, 0, 55, 93
2, 16104, Note_off_c, 0, 55, 0
2, 16104, Note_on_c, 0, 56, 93
2, 16128, Note_off_c, 0, 56, 0
2, 16128, Note_on_c, 0, 58, 93
2, 16224, Note_off_c, 0, 58, 0
2, 16224, Note_on_c, 0, 55, 93
2, 16248, Note_off_c, 0, 55, 0
2, 16248, Note_on_c, 0, 56, 93
2, 16272, Note_off_c, 0, 56, 0
2, 16272, Note_on_c, 0, 58, 93
2, 16296, Note_off_c, 0, 58, 0
2, 16296, Note_on_c, 0, 60, 93
2, 16320, Note_off_c, 0, 60, 0
2, 16320, Note_on_c, 0, 61, 93
2, 16416, Note_off_c, 0, 61, 0
2, 16416, Note_on_c, 0, 60, 93
2, 16464, Note_off_c, 0, 60, 0
2, 16464, Note_on_c, 0, 58, 93
2, 16512, Note_off_c, 0, 58, 0
2, 16512, Note_on_c, 0, 60, 93
2, 16560, Note_off_c, 0, 60, 0
2, 16560, Note_on_c, 0, 58, 93
2, 16608, Note_off_c, 0, 58, 0
2, 16608, Note_on_c, 0, 58, 93
2, 16656, Note_off_c, 0, 58, 0
2, 16656, Note_on_c, 0, 56, 93
2, 16704, Note_off_c, 0, 56, 0
2, 16704, Note_on_c, 0, 58, 93
2, 16752, Note_off_c, 0, 58, 0
2, 16752, Note_on_c, 0, 55, 93
2, 16800, Note_off_c, 0, 55, 0
2, 16800, Note_on_c, 0, 43, 93
2, 16848, Note_off_c, 0, 43, 0
2, 16848, Note_on_c, 0, 55, 93
2, 16872, Note_off_c, 0, 55, 0
2, 16872, Note_on_c, 0, 56, 93
2, 16896, Note_off_c, 0, 56, 0
2, 16896, Note_on_c, 0, 58, 93
2, 16944, Note_off_c, 0, 58, 0
2, 16944, Note_on_c, 0, 55, 93
2, 16968, Note_off_c, 0, 55, 0
2, 16968, Note_on_c, 0, 56, 93
2, 16992, Note_off_c, 0, 56, 0
2, 16992, Note_on_c, 0, 58, 93
2, 17040, Note_off_c, 0, 58, 0
2, 17040, Note_on_c, 0, 56, 93
2, 17064, Note_off_c, 0, 56, 0
2, 17064, Note_on_c, 0, 55, 93
2, 17088, Note_off_c, 0, 55, 0
2, 17088, Note_on_c, 0, 56, 93
2, 17136, Note_off_c, 0, 56, 0
2, 17136, Note_on_c, 0, 53, 93
2, 17184, Note_off_c, 0, 53, 0
2, 17184, Note_on_c, 0, 41, 93
2, 17232, Note_off_c, 0, 41, 0
2, 17232, Note_on_c, 0, 56, 93
2, 17280, Note_off_c, 0, 56, 0
2, 17280, Note_on_c, 0, 55, 93
2, 17304, Note_off_c, 0, 55, 0
2, 17304, Note_on_c, 0, 53, 93
2, 17328, Note_off_c, 0, 53, 0
2, 17328, Note_on_c, 0, 51, 93
2, 17352, Note_off_c, 0, 51, 0
2, 17352, Note_on_c, 0, 50, 93
2, 17376, Note_off_c, 0, 50, 0
2, 17376, Note_on_c, 0, 51, 93
2, 17424, Note_off_c, 0, 51, 0
2, 17424, Note_on_c, 0, 58, 93
2, 17472, Note_off_c, 0, 58, 0
2, 17472, Note_on_c, 0, 55, 93
2, 17496, Note_off_c, 0, 55, 0
2, 17496, Note_on_c, 0, 53, 93
2, 17520, Note_off_c, 0, 53, 0
2, 17520, Note_on_c, 0, 51, 93
2, 17544, Note_off_c, 0, 51, 0
2, 17544, Note_on_c, 0, 50, 93
2, 17568, Note_off_c, 0, 50, 0
2, 17568, Note_on_c, 0, 51, 93
2, 17616, Note_off_c, 0, 51, 0
2, 17616, Note_on_c, 0, 63, 93
2, 17664, Note_off_c, 0, 63, 0
2, 17664, Note_on_c, 0, 56, 93
2, 17688, Note_off_c, 0, 56, 0
2, 17688, Note_on_c, 0, 55, 93
2, 17712, Note_off_c, 0, 55, 0
2, 17712, Note_on_c, 0, 53, 93
2, 17736, Note_off_c, 0, 53, 0
2, 17736, Note_on_c, 0, 55, 93
2, 17760, Note_off_c, 0, 55, 0
2, 17760, Note_on_c, 0, 56, 93
2, 17784, Note_off_c, 0, 56, 0
2, 17784, Note_on_c, 0, 55, 93
2, 17808, Note_off_c, 0, 55, 0
2, 17808, Note_on_c, 0, 53, 93
2, 17832, Note_off_c, 0, 53, 0
2, 17832, Note_on_c, 0, 55, 93
2, 17856, Note_off_c, 0, 55, 0
2, 17856, Note_on_c, 0, 56, 93
2, 17880, Note_off_c, 0, 56, 0
2, 17880, Note_on_c, 0, 55, 93
2, 17904, Note_off_c, 0, 55, 0
2, 17904, Note_on_c, 0, 53, 93
2, 17928, Note_off_c, 0, 53, 0
2, 17928, Note_on_c, 0, 51, 93
2, 17952, Note_off_c, 0, 51, 0
2, 17952, Note_on_c, 0, 50, 93
2, 17976, Note_off_c, 0, 50, 0
2, 17976, Note_on_c, 0, 48, 93
2, 18000, Note_off_c, 0, 48, 0
2, 18000, Note_on_c, 0, 46, 93
2, 18024, Note_off_c, 0, 46, 0
2, 18024, Note_on_c, 0, 44, 93
2, 18048, Note_off_c, 0, 44, 0
2, 18048, Note_on_c, 0, 43, 93
2, 18096, Note_off_c, 0, 43, 0
2, 18096, Note_on_c, 0, 51, 93
2, 18144, Note_off_c, 0, 51, 0
2, 18144, Note_on_c, 0, 60, 93
2, 18192, Note_off_c, 0, 60, 0
2, 18192, Note_on_c, 0, 56, 93
2, 18240, Note_off_c, 0, 56, 0
2, 18240, Note_on_c, 0, 58, 93
2, 18336, Note_off_c, 0, 58, 0
2, 18336, Note_on_c, 0, 60, 93
2, 18384, Note_off_c, 0, 60, 0
2, 18384, Note_on_c, 0, 55, 93
2, 18432, Note_off_c, 0, 55, 0
2, 18432, Note_on_c, 0, 56, 93
2, 18528, Note_off_c, 0, 56, 0
2, 18528, Note_on_c, 0, 53, 93
2, 18624, Note_off_c, 0, 53, 0
2, 18624, Note_on_c, 0, 41, 93
2, 18720, Note_off_c, 0, 41, 0
2, 18720, Note_on_c, 0, 60, 93
2, 18744, Note_off_c, 0, 60, 0
2, 18744, Note_on_c, 0, 58, 93
2, 18768, Note_off_c, 0, 58, 0
2, 18768, Note_on_c, 0, 56, 93
2, 18792, Note_off_c, 0, 56, 0
2, 18792, Note_on_c, 0, 55, 93
2, 18816, Note_off_c, 0, 55, 0
2, 18816, Note_on_c, 0, 53, 93
2, 18912, Note_off_c, 0, 53, 0
2, 18912, Note_on_c, 0, 56, 93
2, 18936, Note_off_c, 0, 56, 0
2, 18936, Note_on_c, 0, 55, 93
2, 18960, Note_off_c, 0, 55, 0
2, 18960, Note_on_c, 0, 53, 93
2, 18984, Note_off_c, 0, 53, 0
2, 18984, Note_on_c, 0, 51, 93
2, 19008, Note_off_c, 0, 51, 0
2, 19008, Note_on_c, 0, 50, 93
2, 19104, Note_off_c, 0, 50, 0
2, 19104, Note_on_c, 0, 53, 93
2, 19128, Note_off_c, 0, 53, 0
2, 19128, Note_on_c, 0, 51, 93
2, 19152, Note_off_c, 0, 51, 0
2, 19152, Note_on_c, 0, 50, 93
2, 19176, Note_off_c, 0, 50, 0
2, 19176, Note_on_c, 0, 48, 93
2, 19200, Note_off_c, 0, 48, 0
2, 19200, Note_on_c, 0, 46, 93
2, 19248, Note_off_c, 0, 46, 0
2, 19248, Note_on_c, 0, 50, 93
2, 19296, Note_off_c, 0, 50, 0
2, 19296, Note_on_c, 0, 53, 93
2, 19344, Note_off_c, 0, 53, 0
2, 19344, Note_on_c, 0, 56, 93
2, 19392, Note_off_c, 0, 56, 0
2, 19392, Note_on_c, 0, 65, 93
2, 19488, Note_off_c, 0, 65, 0
2, 19488, Note_on_c, 0, 63, 93
2, 19512, Note_off_c, 0, 63, 0
2, 19512, Note_on_c, 0, 62, 93
2, 19536, Note_off_c, 0, 62, 0
2, 19536, Note_on_c, 0, 60, 93
2, 19560, Note_off_c, 0, 60, 0
2, 19560, Note_on_c, 0, 58, 93
2, 19584, Note_off_c, 0, 58, 0
2, 19584, Note_on_c, 0, 63, 93
2, 19680, Note_off_c, 0, 63, 0
2, 19680, Note_on_c, 0, 51, 93
2, 19704, Note_off_c, 0, 51, 0
2, 19704, Note_on_c, 0, 53, 93
2, 19728, Note_off_c, 0, 53, 0
2, 19728, Note_on_c, 0, 55, 93
2, 19752, Note_off_c, 0, 55, 0
2, 19752, Note_on_c, 0, 56, 93
2, 19776, Note_off_c, 0, 56, 0
2, 19776, Note_on_c, 0, 58, 93
2, 19872, Note_off_c, 0, 58, 0
2, 19872, Note_on_c, 0, 60, 93
2, 19968, Note_off_c, 0, 60, 0
2, 19968, Note_on_c, 0, 51, 93
2, 20016, Note_off_c, 0, 51, 0
2, 20016, Note_on_c, 0, 50, 93
2, 20064, Note_off_c, 0, 50, 0
2, 20064, Note_on_c, 0, 48, 93
2, 20112, Note_off_c, 0, 48, 0
2, 20112, Note_on_c, 0, 50, 93
2, 20160, Note_off_c, 0, 50, 0
2, 20160, Note_on_c, 0, 46, 93
2, 20256, Note_off_c, 0, 46, 0
2, 20256, Note_on_c, 0, 63, 93
2, 20280, Note_off_c, 0, 63, 0
2, 20280, Note_on_c, 0, 62, 93
2, 20304, Note_off_c, 0, 62, 0
2, 20304, Note_on_c, 0, 60, 93
2, 20328, Note_off_c, 0, 60, 0
2, 20328, Note_on_c, 0, 58, 93
2, 20352, Note_off_c, 0, 58, 0
2, 20352, Note_on_c, 0, 63, 93
2, 20448, Note_off_c, 0, 63, 0
2, 20448, Note_on_c, 0, 51, 93
2, 20472, Note_off_c, 0, 51, 0
2, 20472, Note_on_c, 0, 53, 93
2, 20496, Note_off_c, 0, 53, 0
2, 20496, Note_on_c, 0, 55, 93
2, 20520, Note_off_c, 0, 55, 0
2, 20520, Note_on_c, 0, 56, 93
2, 20544, Note_off_c, 0, 56, 0
2, 20544, Note_on_c, 0, 58, 93
2, 20640, Note_off_c, 0, 58, 0
2, 20640, Note_on_c, 0, 60, 93
2, 20736, Note_off_c, 0, 60, 0
2, 20736, Note_on_c, 0, 61, 93
2, 20760, Note_off_c, 0, 61, 0
2, 20760, Note_on_c, 0, 60, 93
2, 20784, Note_off_c, 0, 60, 0
2, 20784, Note_on_c, 0, 58, 93
2, 20832, Note_off_c, 0, 58, 0
2, 20832, Note_on_c, 0, 60, 93
2, 20976, Note_off_c, 0, 60, 0
2, 20976, Note_on_c, 0, 58, 93
2, 21000, Note_off_c, 0, 58, 0
2, 21000, Note_on_c, 0, 56, 93
2, 21024, Note_off_c, 0, 56, 0
2, 21024, Note_on_c, 0, 58, 93
2, 21048, Note_off_c, 0, 58, 0
2, 21048, Note_on_c, 0, 56, 93
2, 21072, Note_off_c, 0, 56, 0
2, 21072, Note_on_c, 0, 55, 93
2, 21120, Note_off_c, 0, 55, 0
2, 21120, Note_on_c, 0, 56, 93
2, 21144, Note_off_c, 0, 56, 0
2, 21144, Note_on_c, 0, 55, 93
2, 21168, Note_off_c, 0, 55, 0
2, 21168, Note_on_c, 0, 53, 93
2, 21216, Note_off_c, 0, 53, 0
2, 21216, Note_on_c, 0, 55, 93
2, 21360, Note_off_c, 0, 55, 0
2, 21360, Note_on_c, 0, 53, 93
2, 21384, Note_off_c, 0, 53, 0
2, 21384, Note_on_c, 0, 51, 93
2, 21408, Note_off_c, 0, 51, 0
2, 21408, Note_on_c, 0, 53, 93
2, 21432, Note_off_c, 0, 53, 0
2, 21432, Note_on_c, 0, 51, 93
2, 21456, Note_off_c, 0, 51, 0
2, 21456, Note_on_c, 0, 50, 93
2, 21504, Note_off_c, 0, 50, 0
2, 21504, Note_on_c, 0, 51, 93
2, 21552, Note_off_c, 0, 51, 0
2, 21552, Note_on_c, 0, 46, 93
2, 21600, Note_off_c, 0, 46, 0
2, 21600, Note_on_c, 0, 43, 93
2, 21648, Note_off_c, 0, 43, 0
2, 21648, Note_on_c, 0, 46, 93
2, 21696, Note_off_c, 0, 46, 0
2, 21696, Note_on_c, 0, 39, 93
2, 21792, Note_off_c, 0, 39, 0
2, 21792, Note_on_c, 0, 46, 93
2, 21816, Note_off_c, 0, 46, 0
2, 21816, Note_on_c, 0, 48, 93
2, 21840, Note_off_c, 0, 48, 0
2, 21840, Note_on_c, 0, 50, 93
2, 21864, Note_off_c, 0, 50, 0
2, 21864, Note_on_c, 0, 51, 93
2, 21888, Note_off_c, 0, 51, 0
2, 21888, Note_on_c, 0, 53, 93
2, 21984, Note_off_c, 0, 53, 0
2, 21984, Note_on_c, 0, 50, 93
2, 22008, Note_off_c, 0, 50, 0
2, 22008, Note_on_c, 0, 51, 93
2, 22032, Note_off_c, 0, 51, 0
2, 22032, Note_on_c, 0, 53, 93
2, 22056, Note_off_c, 0, 53, 0
2, 22056, Note_on_c, 0, 55, 93
2, 22080, Note_off_c, 0, 55, 0
2, 22080, Note_on_c, 0, 56, 93
2, 22176, Note_off_c, 0, 56, 0
2, 22176, Note_on_c, 0, 46, 93
2, 22200, Note_off_c, 0, 46, 0
2, 22200, Note_on_c, 0, 48, 93
2, 22224, Note_off_c, 0, 48, 0
2, 22224, Note_on_c, 0, 50, 93
2, 22248, Note_off_c, 0, 50, 0
2, 22248, Note_on_c, 0, 51, 93
2, 22272, Note_off_c, 0, 51, 0
2, 22272, Note_on_c, 0, 53, 93
2, 22368, Note_off_c, 0, 53, 0
2, 22368, Note_on_c, 0, 50, 93
2, 22392, Note_off_c, 0, 50, 0
2, 22392, Note_on_c, 0, 51, 93
2, 22416, Note_off_c, 0, 51, 0
2, 22416, Note_on_c, 0, 53, 93
2, 22440, Note_off_c, 0, 53, 0
2, 22440, Note_on_c, 0, 55, 93
2, 22464, Note_off_c, 0, 55, 0
2, 22464, Note_on_c, 0, 56, 93
2, 22560, Note_off_c, 0, 56, 0
2, 22560, Note_on_c, 0, 55, 93
2, 22608, Note_off_c, 0, 55, 0
2, 22608, Note_on_c, 0, 53, 93
2, 22656, Note_off_c, 0, 53, 0
2, 22656, Note_on_c, 0, 55, 93
2, 22704, Note_off_c, 0, 55, 0
2, 22704, Note_on_c, 0, 58, 93
2, 22752, Note_off_c, 0, 58, 0
2, 22752, Note_on_c, 0, 63, 93
2, 22800, Note_off_c, 0, 63, 0
2, 22800, Note_on_c, 0, 55, 93
2, 22848, Note_off_c, 0, 55, 0
2, 22848, Note_on_c, 0, 53, 93
2, 22896, Note_off_c, 0, 53, 0
2, 22896, Note_on_c, 0, 51, 93
2, 22944, Note_off_c, 0, 51, 0
2, 22944, Note_on_c, 0, 46, 93
2, 22992, Note_off_c, 0, 46, 0
2, 22992, Note_on_c, 0, 62, 93
2, 23040, Note_off_c, 0, 62, 0
2, 23040, Note_on_c, 0, 63, 93
2, 23328, Note_off_c, 0, 63, 0
2, 23328, Note_on_c, 0, 46, 93
2, 23352, Note_off_c, 0, 46, 0
2, 23352, Note_on_c, 0, 48, 93
2, 23376, Note_off_c, 0, 48, 0
2, 23376, Note_on_c, 0, 50, 93
2, 23400, Note_off_c, 0, 50, 0
2, 23400, Note_on_c, 0, 51, 93
2, 23424, Note_off_c, 0, 51, 0
2, 23424, Note_on_c, 0, 53, 93
2, 23520, Note_off_c, 0, 53, 0
2, 23520, Note_on_c, 0, 55, 93
2, 23568, Note_off_c, 0, 55, 0
2, 23568, Note_on_c, 0, 51, 93
2, 23616, Note_off_c, 0, 51, 0
2, 23616, Note_on_c, 0, 53, 93
2, 23712, Note_off_c, 0, 53, 0
2, 23712, Note_on_c, 0, 58, 93
2, 23760, Note_off_c, 0, 58, 0
2, 23760, Note_on_c, 0, 53, 93
2, 23808, Note_off_c, 0, 53, 0
2, 23808, Note_on_c, 0, 55, 93
2, 23904, Note_off_c, 0, 55, 0
2, 23904, Note_on_c, 0, 51, 93
2, 24000, Note_off_c, 0, 51, 0
2, 24000, Note_on_c, 0, 39, 93
2, 24096, Note_off_c, 0, 39, 0
2, 24096, Note_on_c, 0, 56, 93
2, 24120, Note_off_c, 0, 56, 0
2, 24120, Note_on_c, 0, 55, 93
2, 24144, Note_off_c, 0, 55, 0
2, 24144, Note_on_c, 0, 53, 93
2, 24168, Note_off_c, 0, 53, 0
2, 24168, Note_on_c, 0, 51, 93
2, 24192, Note_off_c, 0, 51, 0
2, 24192, Note_on_c, 0, 50, 93
2, 24288, Note_off_c, 0, 50, 0
2, 24288, Note_on_c, 0, 53, 93
2, 24312, Note_off_c, 0, 53, 0
2, 24312, Note_on_c, 0, 51, 93
2, 24336, Note_off_c, 0, 51, 0
2, 24336, Note_on_c, 0, 50, 93
2, 24360, Note_off_c, 0, 50, 0
2, 24360, Note_on_c, 0, 48, 93
2, 24384, Note_off_c, 0, 48, 0
2, 24384, Note_on_c, 0, 47, 93
2, 24480, Note_off_c, 0, 47, 0
2, 24480, Note_on_c, 0, 50, 93
2, 24504, Note_off_c, 0, 50, 0
2, 24504, Note_on_c, 0, 48, 93
2, 24528, Note_off_c, 0, 48, 0
2, 24528, Note_on_c, 0, 47, 93
2, 24552, Note_off_c, 0, 47, 0
2, 24552, Note_on_c, 0, 45, 93
2, 24576, Note_off_c, 0, 45, 0
2, 24576, Note_on_c, 0, 43, 93
2, 24624, Note_off_c, 0, 43, 0
2, 24624, Note_on_c, 0, 50, 93
2, 24672, Note_off_c, 0, 50, 0
2, 24672, Note_on_c, 0, 53, 93
2, 24720, Note_off_c, 0, 53, 0
2, 24720, Note_on_c, 0, 59, 93
2, 24768, Note_off_c, 0, 59, 0
2, 24768, Note_on_c, 0, 62, 93
2, 24864, Note_off_c, 0, 62, 0
2, 24864, Note_on_c, 0, 55, 93
2, 24888, Note_off_c, 0, 55, 0
2, 24888, Note_on_c, 0, 53, 93
2, 24912, Note_off_c, 0, 53, 0
2, 24912, Note_on_c, 0, 51, 93
2, 24936, Note_off_c, 0, 51, 0
2, 24936, Note_on_c, 0, 50, 93
2, 24960, Note_off_c, 0, 50, 0
2, 24960, Note_on_c, 0, 51, 93
2, 25056, Note_off_c, 0, 51, 0
2, 25056, Note_on_c, 0, 36, 93
2, 25080, Note_off_c, 0, 36, 0
2, 25080, Note_on_c, 0, 38, 93
2, 25104, Note_off_c, 0, 38, 0
2, 25104, Note_on_c, 0, 39, 93
2, 25128, Note_off_c, 0, 39, 0
2, 25128, Note_on_c, 0, 41, 93
2, 25152, Note_off_c, 0, 41, 0
2, 25152, Note_on_c, 0, 43, 93
2, 25248, Note_off_c, 0, 43, 0
2, 25248, Note_on_c, 0, 62, 93
2, 25272, Note_off_c, 0, 62, 0
2, 25272, Note_on_c, 0, 60, 93
2, 25296, Note_off_c, 0, 60, 0
2, 25296, Note_on_c, 0, 59, 93
2, 25320, Note_off_c, 0, 59, 0
2, 25320, Note_on_c, 0, 57, 93
2, 25344, Note_off_c, 0, 57, 0
2, 25344, Note_on_c, 0, 59, 93
2, 25440, Note_off_c, 0, 59, 0
2, 25440, Note_on_c, 0, 43, 93
2, 25464, Note_off_c, 0, 43, 0
2, 25464, Note_on_c, 0, 45, 93
2, 25488, Note_off_c, 0, 45, 0
2, 25488, Note_on_c, 0, 47, 93
2, 25512, Note_off_c, 0, 47, 0
2, 25512, Note_on_c, 0, 48, 93
2, 25536, Note_off_c, 0, 48, 0
2, 25536, Note_on_c, 0, 50, 93
2, 25632, Note_off_c, 0, 50, 0
2, 25632, Note_on_c, 0, 67, 93
2, 25656, Note_off_c, 0, 67, 0
2, 25656, Note_on_c, 0, 65, 93
2, 25680, Note_off_c, 0, 65, 0
2, 25680, Note_on_c, 0, 63, 93
2, 25704, Note_off_c, 0, 63, 0
2, 25704, Note_on_c, 0, 62, 93
2, 25728, Note_off_c, 0, 62, 0
2, 25728, Note_on_c, 0, 63, 93
2, 25824, Note_off_c, 0, 63, 0
2, 25824, Note_on_c, 0, 63, 93
2, 25848, Note_off_c, 0, 63, 0
2, 25848, Note_on_c, 0, 62, 93
2, 25872, Note_off_c, 0, 62, 0
2, 25872, Note_on_c, 0, 60, 93
2, 25896, Note_off_c, 0, 60, 0
2, 25896, Note_on_c, 0, 59, 93
2, 25920, Note_off_c, 0, 59, 0
2, 25920, Note_on_c, 0, 60, 93
2, 26016, Note_off_c, 0, 60, 0
2, 26016, Note_on_c, 0, 60, 93
2, 26040, Note_off_c, 0, 60, 0
2, 26040, Note_on_c, 0, 58, 93
2, 26064, Note_off_c, 0, 58, 0
2, 26064, Note_on_c, 0, 56, 93
2, 26088, Note_off_c, 0, 56, 0
2, 26088, Note_on_c, 0, 55, 93
2, 26112, Note_off_c, 0, 55, 0
2, 26112, Note_on_c, 0, 56, 93
2, 26208, Note_off_c, 0, 56, 0
2, 26208, Note_on_c, 0, 56, 93
2, 26232, Note_off_c, 0, 56, 0
2, 26232, Note_on_c, 0, 55, 93
2, 26256, Note_off_c, 0, 55, 0
2, 26256, Note_on_c, 0, 53, 93
2, 26280, Note_off_c, 0, 53, 0
2, 26280, Note_on_c, 0, 51, 93
2, 26304, Note_off_c, 0, 51, 0
2, 26304, Note_on_c, 0, 50, 93
2, 26400, Note_off_c, 0, 50, 0
2, 26400, Note_on_c, 0, 60, 93
2, 26448, Note_off_c, 0, 60, 0
2, 26448, Note_on_c, 0, 59, 93
2, 26496, Note_off_c, 0, 59, 0
2, 26496, Note_on_c, 0, 60, 93
2, 26544, Note_off_c, 0, 60, 0
2, 26544, Note_on_c, 0, 56, 93
2, 26592, Note_off_c, 0, 56, 0
2, 26592, Note_on_c, 0, 53, 93
2, 26640, Note_off_c, 0, 53, 0
2, 26640, Note_on_c, 0, 56, 93
2, 26688, Note_off_c, 0, 56, 0
2, 26688, Note_on_c, 0, 50, 93
2, 26736, Note_off_c, 0, 50, 0
2, 26736, Note_on_c, 0, 60, 93
2, 26784, Note_off_c, 0, 60, 0
2, 26784, Note_on_c, 0, 55, 93
2, 26832, Note_off_c, 0, 55, 0
2, 26832, Note_on_c, 0, 59, 93
2, 26880, Note_off_c, 0, 59, 0
2, 26880, Note_on_c, 0, 60, 93
2, 26976, Note_off_c, 0, 60, 0
2, 26976, Note_on_c, 0, 43, 93
2, 27072, Note_off_c, 0, 43, 0
2, 27072, Note_on_c, 0, 36, 93
2, 27168, Note_off_c, 0, 36, 0
2, 27168, Note_on_c, 0, 48, 93
2, 27192, Note_off_c, 0, 48, 0
2, 27192, Note_on_c, 0, 50, 93
2, 27216, Note_off_c, 0, 50, 0
2, 27216, Note_on_c, 0, 52, 93
2, 27240, Note_off_c, 0, 52, 0
2, 27240, Note_on_c, 0, 53, 93
2, 27264, Note_off_c, 0, 53, 0
2, 27264, Note_on_c, 0, 55, 93
2, 27360, Note_off_c, 0, 55, 0
2, 27360, Note_on_c, 0, 56, 93
2, 27408, Note_off_c, 0, 56, 0
2, 27408, Note_on_c, 0, 53, 93
2, 27456, Note_off_c, 0, 53, 0
2, 27456, Note_on_c, 0, 55, 93
2, 27552, Note_off_c, 0, 55, 0
2, 27552, Note_on_c, 0, 60, 93
2, 27600, Note_off_c, 0, 60, 0
2, 27600, Note_on_c, 0, 55, 93
2, 27648, Note_off_c, 0, 55, 0
2, 27648, Note_on_c, 0, 58, 93
2, 27696, Note_off_c, 0, 58, 0
2, 27696, Note_on_c, 0, 56, 93
2, 27744, Note_off_c, 0, 56, 0
2, 27744, Note_on_c, 0, 55, 93
2, 27792, Note_off_c, 0, 55, 0
2, 27792, Note_on_c, 0, 53, 93
2, 27840, Note_off_c, 0, 53, 0
2, 27840, Note_on_c, 0, 63, 93
2, 27888, Note_off_c, 0, 63, 0
2, 27888, Note_on_c, 0, 62, 93
2, 27936, Note_off_c, 0, 62, 0
2, 27936, Note_on_c, 0, 60, 93
2, 27984, Note_off_c, 0, 60, 0
2, 27984, Note_on_c, 0, 58, 93
2, 28032, Note_off_c, 0, 58, 0
2, 28032, Note_on_c, 0, 63, 93
2, 28128, Note_off_c, 0, 63, 0
2, 28128, Note_on_c, 0, 51, 93
2, 28152, Note_off_c, 0, 51, 0
2, 28152, Note_on_c, 0, 53, 93
2, 28176, Note_off_c, 0, 53, 0
2, 28176, Note_on_c, 0, 55, 93
2, 28200, Note_off_c, 0, 55, 0
2, 28200, Note_on_c, 0, 56, 93
2, 28224, Note_off_c, 0, 56, 0
2, 28224, Note_on_c, 0, 58, 93
2, 28320, Note_off_c, 0, 58, 0
2, 28320, Note_on_c, 0, 60, 93
2, 28416, Note_off_c, 0, 60, 0
2, 28416, Note_on_c, 0, 51, 93
2, 28464, Note_off_c, 0, 51, 0
2, 28464, Note_on_c, 0, 50, 93
2, 28512, Note_off_c, 0, 50, 0
2, 28512, Note_on_c, 0, 48, 93
2, 28560, Note_off_c, 0, 48, 0
2, 28560, Note_on_c, 0, 50, 93
2, 28608, Note_off_c, 0, 50, 0
2, 28608, Note_on_c, 0, 46, 93
2, 28704, Note_off_c, 0, 46, 0
2, 28704, Note_on_c, 0, 46, 93
2, 28728, Note_off_c, 0, 46, 0
2, 28728, Note_on_c, 0, 48, 93
2, 28752, Note_off_c, 0, 48, 0
2, 28752, Note_on_c, 0, 50, 93
2, 28776, Note_off_c, 0, 50, 0
2, 28776, Note_on_c, 0, 51, 93
2, 28800, Note_off_c, 0, 51, 0
2, 28800, Note_on_c, 0, 53, 93
2, 28896, Note_off_c, 0, 53, 0
2, 28896, Note_on_c, 0, 50, 93
2, 28920, Note_off_c, 0, 50, 0
2, 28920, Note_on_c, 0, 51, 93
2, 28944, Note_off_c, 0, 51, 0
2, 28944, Note_on_c, 0, 53, 93
2, 28968, Note_off_c, 0, 53, 0
2, 28968, Note_on_c, 0, 55, 93
2, 28992, Note_off_c, 0, 55, 0
2, 28992, Note_on_c, 0, 56, 93
2, 29088, Note_off_c, 0, 56, 0
2, 29088, Note_on_c, 0, 46, 93
2, 29112, Note_off_c, 0, 46, 0
2, 29112, Note_on_c, 0, 48, 93
2, 29136, Note_off_c, 0, 48, 0
2, 29136, Note_on_c, 0, 50, 93
2, 29160, Note_off_c, 0, 50, 0
2, 29160, Note_on_c, 0, 51, 93
2, 29184, Note_off_c, 0, 51, 0
2, 29184, Note_on_c, 0, 53, 93
2, 29280, Note_off_c, 0, 53, 0
2, 29280, Note_on_c, 0, 50, 93
2, 29304, Note_off_c, 0, 50, 0
2, 29304, Note_on_c, 0, 51, 93
2, 29328, Note_off_c, 0, 51, 0
2, 29328, Note_on_c, 0, 53, 93
2, 29352, Note_off_c, 0, 53, 0
2, 29352, Note_on_c, 0, 55, 93
2, 29376, Note_off_c, 0, 55, 0
2, 29376, Note_on_c, 0, 56, 93
2, 29472, Note_off_c, 0, 56, 0
2, 29472, Note_on_c, 0, 51, 93
2, 29496, Note_off_c, 0, 51, 0
2, 29496, Note_on_c, 0, 53, 93
2, 29520, Note_off_c, 0, 53, 0
2, 29520, Note_on_c, 0, 55, 93
2, 29544, Note_off_c, 0, 55, 0
2, 29544, Note_on_c, 0, 56, 93
2, 29568, Note_off_c, 0, 56, 0
2, 29568, Note_on_c, 0, 58, 93
2, 29664, Note_off_c, 0, 58, 0
2, 29664, Note_on_c, 0, 55, 93
2, 29688, Note_off_c, 0, 55, 0
2, 29688, Note_on_c, 0, 56, 93
2, 29712, Note_off_c, 0, 56, 0
2, 29712, Note_on_c, 0, 58, 93
2, 29736, Note_off_c, 0, 58, 0
2, 29736, Note_on_c, 0, 60, 93
2, 29760, Note_off_c, 0, 60, 0
2, 29760, Note_on_c, 0, 61, 93
2, 29856, Note_off_c, 0, 61, 0
2, 29856, Note_on_c, 0, 51, 93
2, 29880, Note_off_c, 0, 51, 0
2, 29880, Note_on_c, 0, 53, 93
2, 29904, Note_off_c, 0, 53, 0
2, 29904, Note_on_c, 0, 55, 93
2, 29928, Note_off_c, 0, 55, 0
2, 29928, Note_on_c, 0, 56, 93
2, 29952, Note_off_c, 0, 56, 0
2, 29952, Note_on_c, 0, 58, 93
2, 30048, Note_off_c, 0, 58, 0
2, 30048, Note_on_c, 0, 55, 93
2, 30072, Note_off_c, 0, 55, 0
2, 30072, Note_on_c, 0, 56, 93
2, 30096, Note_off_c, 0, 56, 0
2, 30096, Note_on_c, 0, 58, 93
2, 30120, Note_off_c, 0, 58, 0
2, 30120, Note_on_c, 0, 60, 93
2, 30144, Note_off_c, 0, 60, 0
2, 30144, Note_on_c, 0, 61, 93
2, 30240, Note_off_c, 0, 61, 0
2, 30240, Note_on_c, 0, 60, 93
2, 30288, Note_off_c, 0, 60, 0
2, 30288, Note_on_c, 0, 58, 93
2, 30336, Note_off_c, 0, 58, 0
2, 30336, Note_on_c, 0, 60, 93
2, 30384, Note_off_c, 0, 60, 0
2, 30384, Note_on_c, 0, 58, 93
2, 30432, Note_off_c, 0, 58, 0
2, 30432, Note_on_c, 0, 58, 93
2, 30480, Note_off_c, 0, 58, 0
2, 30480, Note_on_c, 0, 56, 93
2, 30528, Note_off_c, 0, 56, 0
2, 30528, Note_on_c, 0, 58, 93
2, 30576, Note_off_c, 0, 58, 0
2, 30576, Note_on_c, 0, 55, 93
2, 30624, Note_off_c, 0, 55, 0
2, 30624, Note_on_c, 0, 43, 93
2, 30672, Note_off_c, 0, 43, 0
2, 30672, Note_on_c, 0, 55, 93
2, 30696, Note_off_c, 0, 55, 0
2, 30696, Note_on_c, 0, 56, 93
2, 30720, Note_off_c, 0, 56, 0
2, 30720, Note_on_c, 0, 58, 93
2, 30768, Note_off_c, 0, 58, 0
2, 30768, Note_on_c, 0, 55, 93
2, 30792, Note_off_c, 0, 55, 0
2, 30792, Note_on_c, 0, 56, 93
2, 30816, Note_off_c, 0, 56, 0
2, 30816, Note_on_c, 0, 58, 93
2, 30864, Note_off_c, 0, 58, 0
2, 30864, Note_on_c, 0, 56, 93
2, 30888, Note_off_c, 0, 56, 0
2, 30888, Note_on_c, 0, 55, 93
2, 30912, Note_off_c, 0, 55, 0
2, 30912, Note_on_c, 0, 56, 93
2, 30960, Note_off_c, 0, 56, 0
2, 30960, Note_on_c, 0, 53, 93
2, 31008, Note_off_c, 0, 53, 0
2, 31008, Note_on_c, 0, 41, 93
2, 31056, Note_off_c, 0, 41, 0
2, 31056, Note_on_c, 0, 56, 93
2, 31104, Note_off_c, 0, 56, 0
2, 31104, Note_on_c, 0, 55, 93
2, 31128, Note_off_c, 0, 55, 0
2, 31128, Note_on_c, 0, 53, 93
2, 31152, Note_off_c, 0, 53, 0
2, 31152, Note_on_c, 0, 51, 93
2, 31176, Note_off_c, 0, 51, 0
2, 31176, Note_on_c, 0, 50, 93
2, 31200, Note_off_c, 0, 50, 0
2, 31200, Note_on_c, 0, 51, 93
2, 31248, Note_off_c, 0, 51, 0
2, 31248, Note_on_c, 0, 58, 93
2, 31296, Note_off_c, 0, 58, 0
2, 31296, Note_on_c, 0, 55, 93
2, 31320, Note_off_c, 0, 55, 0
2, 31320, Note_on_c, 0, 53, 93
2, 31344, Note_off_c, 0, 53, 0
2, 31344, Note_on_c, 0, 51, 93
2, 31368, Note_off_c, 0, 51, 0
2, 31368, Note_on_c, 0, 50, 93
2, 31392, Note_off_c, 0, 50, 0
2, 31392, Note_on_c, 0, 51, 93
2, 31440, Note_off_c, 0, 51, 0
2, 31440, Note_on_c, 0, 63, 93
2, 31488, Note_off_c, 0, 63, 0
2, 31488, Note_on_c, 0, 56, 93
2, 31512, Note_off_c, 0, 56, 0
2, 31512, Note_on_c, 0, 55, 93
2, 31536, Note_off_c, 0, 55, 0
2, 31536, Note_on_c, 0, 53, 93
2, 31560, Note_off_c, 0, 53, 0
2, 31560, Note_on_c, 0, 55, 93
2, 31584, Note_off_c, 0, 55, 0
2, 31584, Note_on_c, 0, 56, 93
2, 31608, Note_off_c, 0, 56, 0
2, 31608, Note_on_c, 0, 55, 93
2, 31632, Note_off_c, 0, 55, 0
2, 31632, Note_on_c, 0, 53, 93
2, 31656, Note_off_c, 0, 53, 0
2, 31656, Note_on_c, 0, 55, 93
2, 31680, Note_off_c, 0, 55, 0
2, 31680, Note_on_c, 0, 56, 93
2, 31704, Note_off_c, 0, 56, 0
2, 31704, Note_on_c, 0, 55, 93
2, 31728, Note_off_c, 0, 55, 0
2, 31728, Note_on_c, 0, 53, 93
2, 31752, Note_off_c, 0, 53, 0
2, 31752, Note_on_c, 0, 51, 93
2, 31776, Note_off_c, 0, 51, 0
2, 31776, Note_on_c, 0, 50, 93
2, 31800, Note_off_c, 0, 50, 0
2, 31800, Note_on_c, 0, 48, 93
2, 31824, Note_off_c, 0, 48, 0
2, 31824, Note_on_c, 0, 46, 93
2, 31848, Note_off_c, 0, 46, 0
2, 31848, Note_on_c, 0, 44, 93
2, 31872, Note_off_c, 0, 44, 0
2, 31872, Note_on_c, 0, 43, 93
2, 31920, Note_off_c, 0, 43, 0
2, 31920, Note_on_c, 0, 51, 93
2, 31968, Note_off_c, 0, 51, 0
2, 31968, Note_on_c, 0, 60, 93
2, 32016, Note_off_c, 0, 60, 0
2, 32016, Note_on_c, 0, 56, 93
2, 32064, Note_off_c, 0, 56, 0
2, 32064, Note_on_c, 0, 58, 93
2, 32160, Note_off_c, 0, 58, 0
2, 32160, Note_on_c, 0, 60, 93
2, 32208, Note_off_c, 0, 60, 0
2, 32208, Note_on_c, 0, 55, 93
2, 32256, Note_off_c, 0, 55, 0
2, 32256, Note_on_c, 0, 56, 93
2, 32352, Note_off_c, 0, 56, 0
2, 32352, Note_on_c, 0, 53, 93
2, 32448, Note_off_c, 0, 53, 0
2, 32448, Note_on_c, 0, 41, 93
2, 32544, Note_off_c, 0, 41, 0
2, 32544, Note_on_c, 0, 60, 93
2, 32568, Note_off_c, 0, 60, 0
2, 32568, Note_on_c, 0, 58, 93
2, 32592, Note_off_c, 0, 58, 0
2, 32592, Note_on_c, 0, 56, 93
2, 32616, Note_off_c, 0, 56, 0
2, 32616, Note_on_c, 0, 55, 93
2, 32640, Note_off_c, 0, 55, 0
2, 32640, Note_on_c, 0, 53, 93
2, 32736, Note_off_c, 0, 53, 0
2, 32736, Note_on_c, 0, 56, 93
2, 32760, Note_off_c, 0, 56, 0
2, 32760, Note_on_c, 0, 55, 93
2, 32784, Note_off_c, 0, 55, 0
2, 32784, Note_on_c, 0, 53, 93
2, 32808, Note_off_c, 0, 53, 0
2, 32808, Note_on_c, 0, 51, 93
2, 32832, Note_off_c, 0, 51, 0
2, 32832, Note_on_c, 0, 50, 93
2, 32928, Note_off_c, 0, 50, 0
2, 32928, Note_on_c, 0, 53, 93
2, 32952, Note_off_c, 0, 53, 0
2, 32952, Note_on_c, 0, 51, 93
2, 32976, Note_off_c, 0, 51, 0
2, 32976, Note_on_c, 0, 50, 93
2, 33000, Note_off_c, 0, 50, 0
2, 33000, Note_on_c, 0, 48, 93
2, 33024, Note_off_c, 0, 48, 0
2, 33024, Note_on_c, 0, 46, 93
2, 33072, Note_off_c, 0, 46, 0
2, 33072, Note_on_c, 0, 50, 93
2, 33120, Note_off_c, 0, 50, 0
2, 33120, Note_on_c, 0, 53, 93
2, 33168, Note_off_c, 0, 53, 0
2, 33168, Note_on_c, 0, 56, 93
2, 33216, Note_off_c, 0, 56, 0
2, 33216, Note_on_c, 0, 65, 93
2, 33312, Note_off_c, 0, 65, 0
2, 33312, Note_on_c, 0, 63, 93
2, 33336, Note_off_c, 0, 63, 0
2, 33336, Note_on_c, 0, 62, 93
2, 33360, Note_off_c, 0, 62, 0
2, 33360, Note_on_c, 0, 60, 93
2, 33384, Note_off_c, 0, 60, 0
2, 33384, Note_on_c, 0, 58, 93
2, 33408, Note_off_c, 0, 58, 0
2, 33408, Note_on_c, 0, 63, 93
2, 33504, Note_off_c, 0, 63, 0
2, 33504, Note_on_c, 0, 51, 93
2, 33528, Note_off_c, 0, 51, 0
2, 33528, Note_on_c, 0, 53, 93
2, 33552, Note_off_c, 0, 53, 0
2, 33552, Note_on_c, 0, 55, 93
2, 33576, Note_off_c, 0, 55, 0
2, 33576, Note_on_c, 0, 56, 93
2, 33600, Note_off_c, 0, 56, 0
2, 33600, Note_on_c, 0, 58, 93
2, 33696, Note_off_c, 0, 58, 0
2, 33696, Note_on_c, 0, 60, 93
2, 33792, Note_off_c, 0, 60, 0
2, 33792, Note_on_c, 0, 51, 93
2, 33840, Note_off_c, 0, 51, 0
2, 33840, Note_on_c, 0, 50, 93
2, 33888, Note_off_c, 0, 50, 0
2, 33888, Note_on_c, 0, 48, 93
2, 33936, Note_off_c, 0, 48, 0
2, 33936, Note_on_c, 0, 50, 93
2, 33984, Note_off_c, 0, 50, 0
2, 33984, Note_on_c, 0, 46, 93
2, 34080, Note_off_c, 0, 46, 0
2, 34080, Note_on_c, 0, 63, 93
2, 34104, Note_off_c, 0, 63, 0
2, 34104, Note_on_c, 0, 62, 93
2, 34128, Note_off_c, 0, 62, 0
2, 34128, Note_on_c, 0, 60, 93
2, 34152, Note_off_c, 0, 60, 0
2, 34152, Note_on_c, 0, 58, 93
2, 34176, Note_off_c, 0, 58, 0
2, 34176, Note_on_c, 0, 63, 93
2, 34272, Note_off_c, 0, 63, 0
2, 34272, Note_on_c, 0, 51, 93
2, 34296, Note_off_c, 0, 51, 0
2, 34296, Note_on_c, 0, 53, 93
2, 34320, Note_off_c, 0, 53, 0
2, 34320, Note_on_c, 0, 55, 93
2, 34344, Note_off_c, 0, 55, 0
2, 34344, Note_on_c, 0, 56, 93
2, 34368, Note_off_c, 0, 56, 0
2, 34368, Note_on_c, 0, 58, 93
2, 34464, Note_off_c, 0, 58, 0
2, 34464, Note_on_c, 0, 60, 93
2, 34560, Note_off_c, 0, 60, 0
2, 34560, Note_on_c, 0, 61, 93
2, 34584, Note_off_c, 0, 61, 0
2, 34584, Note_on_c, 0, 60, 93
2, 34608, Note_off_c, 0, 60, 0
2, 34608, Note_on_c, 0, 58, 93
2, 34656, Note_off_c, 0, 58, 0
2, 34656, Note_on_c, 0, 60, 93
2, 34800, Note_off_c, 0, 60, 0
2, 34800, Note_on_c, 0, 58, 93
2, 34824, Note_off_c, 0, 58, 0
2, 34824, Note_on_c, 0, 56, 93
2, 34848, Note_off_c, 0, 56, 0
2, 34848, Note_on_c, 0, 58, 93
2, 34872, Note_off_c, 0, 58, 0
2, 34872, Note_on_c, 0, 56, 93
2, 34896, Note_off_c, 0, 56, 0
2, 34896, Note_on_c, 0, 55, 93
2, 34944, Note_off_c, 0, 55, 0
2, 34944, Note_on_c, 0, 56, 93
2, 34968, Note_off_c, 0, 56, 0
2, 34968, Note_on_c, 0, 55, 93
2, 34992, Note_off_c, 0, 55, 0
2, 34992, Note_on_c, 0, 53, 93
2, 35040, Note_off_c, 0, 53, 0
2, 35040, Note_on_c, 0, 55, 93
2, 35184, Note_off_c, 0, 55, 0
2, 35184, Note_on_c, 0, 53, 93
2, 35208, Note_off_c, 0, 53, 0
2, 35208, Note_on_c, 0, 51, 93
2, 35232, Note_off_c, 0, 51, 0
2, 35232, Note_on_c, 0, 53, 93
2, 35256, Note_off_c, 0, 53, 0
2, 35256, Note_on_c, 0, 51, 93
2, 35280, Note_off_c, 0, 51, 0
2, 35280, Note_on_c, 0, 50, 93
2, 35328, Note_off_c, 0, 50, 0
2, 35328, Note_on_c, 0, 51, 93
2, 35376, Note_off_c, 0, 51, 0
2, 35376, Note_on_c, 0, 46, 93
2, 35424, Note_off_c, 0, 46, 0
2, 35424, Note_on_c, 0, 43, 93
2, 35472, Note_off_c, 0, 43, 0
2, 35472, Note_on_c, 0, 46, 93
2, 35520, Note_off_c, 0, 46, 0
2, 35520, Note_on_c, 0, 39, 93
2, 35616, Note_off_c, 0, 39, 0
2, 35616, Note_on_c, 0, 46, 93
2, 35640, Note_off_c, 0, 46, 0
2, 35640, Note_on_c, 0, 48, 93
2, 35664, Note_off_c, 0, 48, 0
2, 35664, Note_on_c, 0, 50, 93
2, 35688, Note_off_c, 0, 50, 0
2, 35688, Note_on_c, 0, 51, 93
2, 35712, Note_off_c, 0, 51, 0
2, 35712, Note_on_c, 0, 53, 93
2, 35808, Note_off_c, 0, 53, 0
2, 35808, Note_on_c, 0, 50, 93
2, 35832, Note_off_c, 0, 50, 0
2, 35832, Note_on_c, 0, 51, 93
2, 35856, Note_off_c, 0, 51, 0
2, 35856, Note_on_c, 0, 53, 93
2, 35880, Note_off_c, 0, 53, 0
2, 35880, Note_on_c, 0, 55, 93
2, 35904, Note_off_c, 0, 55, 0
2, 35904, Note_on_c, 0, 56, 93
2, 36000, Note_off_c, 0, 56, 0
2, 36000, Note_on_c, 0, 46, 93
2, 36024, Note_off_c, 0, 46, 0
2, 36024, Note_on_c, 0, 48, 93
2, 36048, Note_off_c, 0, 48, 0
2, 36048, Note_on_c, 0, 50, 93
2, 36072, Note_off_c, 0, 50, 0
2, 36072, Note_on_c, 0, 51, 93
2, 36096, Note_off_c, 0, 51, 0
2, 36096, Note_on_c, 0, 53, 93
2, 36192, Note_off_c, 0, 53, 0
2, 36192, Note_on_c, 0, 50, 93
2, 36216, Note_off_c, 0, 50, 0
2, 36216, Note_on_c, 0, 51, 93
2, 36240, Note_off_c, 0, 51, 0
2, 36240, Note_on_c, 0, 53, 93
2, 36264, Note_off_c, 0, 53, 0
2, 36264, Note_on_c, 0, 55, 93
2, 36288, Note_off_c, 0, 55, 0
2, 36288, Note_on_c, 0, 56, 93
2, 36384, Note_off_c, 0, 56, 0
2, 36384, Note_on_c, 0, 55, 93
2, 36432, Note_off_c, 0, 55, 0
2, 36432, Note_on_c, 0, 53, 93
2, 36480, Note_off_c, 0, 53, 0
2, 36480, Note_on_c, 0, 55, 93
2, 36528, Note_off_c, 0, 55, 0
2, 36528, Note_on_c, 0, 58, 93
2, 36576, Note_off_c, 0, 58, 0
2, 36576, Note_on_c, 0, 63, 93
2, 36624, Note_off_c, 0, 63, 0
2, 36624, Note_on_c, 0, 55, 93
2, 36672, Note_off_c, 0, 55, 0
2, 36672, Note_on_c, 0, 53, 93
2, 36720, Note_off_c, 0, 53, 0
2, 36720, Note_on_c, 0, 51, 93
2, 36768, Note_off_c, 0, 51, 0
2, 36768, Note_on_c, 0, 46, 93
2, 36816, Note_off_c, 0, 46, 0
2, 36816, Note_on_c, 0, 62, 93
2, 36864, Note_off_c, 0, 62, 0
2, 36864, Note_on_c, 0, 63, 93
2, 37152, Note_off_c, 0, 63, 0
2, 37152, Note_on_c, 0, 51, 93
2, 37248, Note_off_c, 0, 51, 0
2, 37248, Note_on_c, 0, 51, 93
2, 37344, Note_off_c, 0, 51, 0
2, 37344, Note_on_c, 0, 53, 93
2, 37536, Note_off_c, 0, 53, 0
2, 37536, Note_on_c, 0, 50, 93
2, 37632, Note_off_c, 0, 50, 0
2, 37632, Note_on_c, 0, 51, 93
2, 37680, Note_off_c, 0, 51, 0
2, 37680, Note_on_c, 0, 53, 93
2, 37728, Note_off_c, 0, 53, 0
2, 37728, Note_on_c, 0, 55, 93
2, 37920, Note_off_c, 0, 55, 0
2, 37920, Note_on_c, 0, 51, 93
2, 38016, Note_off_c, 0, 51, 0
2, 38016, Note_on_c, 0, 44, 93
2, 38112, Note_off_c, 0, 44, 0
2, 38112, Note_on_c, 0, 53, 93
2, 38208, Note_off_c, 0, 53, 0
2, 38208, Note_on_c, 0, 46, 93
2, 38304, Note_off_c, 0, 46, 0
2, 38304, Note_on_c, 0, 50, 93
2, 38400, Note_off_c, 0, 50, 0
2, 38400, Note_on_c, 0, 51, 93
2, 38496, Note_off_c, 0, 51, 0
2, 38496, Note_on_c, 0, 46, 93
2, 38592, Note_off_c, 0, 46, 0
2, 38592, Note_on_c, 0, 39, 93
2, 38688, Note_off_c, 0, 39, 0
2, 38688, Note_on_c, 0, 51, 93
2, 38784, Note_off_c, 0, 51, 0
2, 38784, Note_on_c, 0, 51, 93
2, 38880, Note_off_c, 0, 51, 0
2, 38880, Note_on_c, 0, 53, 93
2, 39072, Note_off_c, 0, 53, 0
2, 39072, Note_on_c, 0, 50, 93
2, 39168, Note_off_c, 0, 50, 0
2, 39168, Note_on_c, 0, 51, 93
2, 39216, Note_off_c, 0, 51, 0
2, 39216, Note_on_c, 0, 53, 93
2, 39264, Note_off_c, 0, 53, 0
2, 39264, Note_on_c, 0, 55, 93
2, 39456, Note_off_c, 0, 55, 0
2, 39456, Note_on_c, 0, 51, 93
2, 39552, Note_off_c, 0, 51, 0
2, 39552, Note_on_c, 0, 44, 93
2, 39648, Note_off_c, 0, 44, 0
2, 39648, Note_on_c, 0, 53, 93
2, 39744, Note_off_c, 0, 53, 0
2, 39744, Note_on_c, 0, 46, 93
2, 39840, Note_off_c, 0, 46, 0
2, 39840, Note_on_c, 0, 50, 93
2, 39936, Note_off_c, 0, 50, 0
2, 39936, Note_on_c, 0, 51, 93
2, 40032, Note_off_c, 0, 51, 0
2, 40032, Note_on_c, 0, 46, 93
2, 40128, Note_off_c, 0, 46, 0
2, 40128, Note_on_c, 0, 39, 93
2, 40224, Note_off_c, 0, 39, 0
2, 40224, Note_on_c, 0, 58, 93
2, 40320, Note_off_c, 0, 58, 0
2, 40320, Note_on_c, 0, 58, 93
2, 40416, Note_off_c, 0, 58, 0
2, 40416, Note_on_c, 0, 60, 93
2, 40608, Note_off_c, 0, 60, 0
2, 40608, Note_on_c, 0, 58, 93
2, 40704, Note_off_c, 0, 58, 0
2, 40704, Note_on_c, 0, 56, 93
2, 40752, Note_off_c, 0, 56, 0
2, 40752, Note_on_c, 0, 55, 93
2, 40800, Note_off_c, 0, 55, 0
2, 40800, Note_on_c, 0, 56, 93
2, 40896, Note_off_c, 0, 56, 0
2, 40896, Note_on_c, 0, 53, 93
2, 40992, Note_off_c, 0, 53, 0
2, 40992, Note_on_c, 0, 56, 93
2, 41088, Note_off_c, 0, 56, 0
2, 41088, Note_on_c, 0, 58, 93
2, 41184, Note_off_c, 0, 58, 0
2, 41184, Note_on_c, 0, 56, 93
2, 41376, Note_off_c, 0, 56, 0
2, 41376, Note_on_c, 0, 55, 93
2, 41472, Note_off_c, 0, 55, 0
2, 41472, Note_on_c, 0, 53, 93
2, 41520, Note_off_c, 0, 53, 0
2, 41520, Note_on_c, 0, 51, 93
2, 41568, Note_off_c, 0, 51, 0
2, 41568, Note_on_c, 0, 50, 93
2, 41616, Note_off_c, 0, 50, 0
2, 41616, Note_on_c, 0, 48, 93
2, 41664, Note_off_c, 0, 48, 0
2, 41664, Note_on_c, 0, 46, 93
2, 41712, Note_off_c, 0, 46, 0
2, 41712, Note_on_c, 0, 44, 93
2, 41760, Note_off_c, 0, 44, 0
2, 41760, Note_on_c, 0, 43, 93
2, 41856, Note_off_c, 0, 43, 0
2, 41856, Note_on_c, 0, 44, 93
2, 41952, Note_off_c, 0, 44, 0
2, 42048, Note_on_c, 0, 46, 93
2, 42144, Note_off_c, 0, 46, 0
2, 42240, Note_on_c, 0, 48, 93
2, 42336, Note_off_c, 0, 48, 0
2, 42432, Note_on_c, 0, 43, 93
2, 42528, Note_off_c, 0, 43, 0
2, 43008, Note_on_c, 0, 46, 93
2, 43296, Note_off_c, 0, 46, 0
2, 43296, Note_on_c, 0, 58, 93
2, 43392, Note_off_c, 0, 58, 0
2, 43392, Note_on_c, 0, 58, 93
2, 43488, Note_off_c, 0, 58, 0
2, 43488, Note_on_c, 0, 60, 93
2, 43680, Note_off_c, 0, 60, 0
2, 43680, Note_on_c, 0, 58, 93
2, 43776, Note_off_c, 0, 58, 0
2, 43776, Note_on_c, 0, 56, 93
2, 43824, Note_off_c, 0, 56, 0
2, 43824, Note_on_c, 0, 55, 93
2, 43872, Note_off_c, 0, 55, 0
2, 43872, Note_on_c, 0, 56, 93
2, 43968, Note_off_c, 0, 56, 0
2, 43968, Note_on_c, 0, 53, 93
2, 44064, Note_off_c, 0, 53, 0
2, 44064, Note_on_c, 0, 56, 93
2, 44160, Note_off_c, 0, 56, 0
2, 44160, Note_on_c, 0, 58, 93
2, 44256, Note_off_c, 0, 58, 0
2, 44256, Note_on_c, 0, 56, 93
2, 44448, Note_off_c, 0, 56, 0
2, 44448, Note_on_c, 0, 55, 93
2, 44544, Note_off_c, 0, 55, 0
2, 44544, Note_on_c, 0, 53, 93
2, 44592, Note_off_c, 0, 53, 0
2, 44592, Note_on_c, 0, 51, 93
2, 44640, Note_off_c, 0, 51, 0
2, 44640, Note_on_c, 0, 50, 93
2, 44688, Note_off_c, 0, 50, 0
2, 44688, Note_on_c, 0, 48, 93
2, 44736, Note_off_c, 0, 48, 0
2, 44736, Note_on_c, 0, 46, 93
2, 44784, Note_off_c, 0, 46, 0
2, 44784, Note_on_c, 0, 44, 93
2, 44832, Note_off_c, 0, 44, 0
2, 44832, Note_on_c, 0, 43, 93
2, 44928, Note_off_c, 0, 43, 0
2, 44928, Note_on_c, 0, 44, 93
2, 45024, Note_off_c, 0, 44, 0
2, 45120, Note_on_c, 0, 46, 93
2, 45216, Note_off_c, 0, 46, 0
2, 45312, Note_on_c, 0, 48, 93
2, 45408, Note_off_c, 0, 48, 0
2, 45504, Note_on_c, 0, 43, 93
2, 45600, Note_off_c, 0, 43, 0
2, 46080, Note_on_c, 0, 46, 93
2, 46368, Note_off_c, 0, 46, 0
2, 46368, Note_on_c, 0, 51, 93
2, 46392, Note_off_c, 0, 51, 0
2, 46392, Note_on_c, 0, 53, 93
2, 46416, Note_off_c, 0, 53, 0
2, 46416, Note_on_c, 0, 55, 93
2, 46440, Note_off_c, 0, 55, 0
2, 46440, Note_on_c, 0, 56, 93
2, 46464, Note_off_c, 0, 56, 0
2, 46464, Note_on_c, 0, 58, 93
2, 46560, Note_off_c, 0, 58, 0
2, 46560, Note_on_c, 0, 60, 93
2, 46608, Note_off_c, 0, 60, 0
2, 46608, Note_on_c, 0, 56, 93
2, 46656, Note_off_c, 0, 56, 0
2, 46656, Note_on_c, 0, 58, 93
2, 46752, Note_off_c, 0, 58, 0
2, 46752, Note_on_c, 0, 60, 93
2, 46800, Note_off_c, 0, 60, 0
2, 46800, Note_on_c, 0, 55, 93
2, 46848, Note_off_c, 0, 55, 0
2, 46848, Note_on_c, 0, 56, 93
2, 46944, Note_off_c, 0, 56, 0
2, 46944, Note_on_c, 0, 53, 93
2, 47040, Note_off_c, 0, 53, 0
2, 47040, Note_on_c, 0, 41, 93
2, 47136, Note_off_c, 0, 41, 0
2, 47136, Note_on_c, 0, 50, 93
2, 47160, Note_off_c, 0, 50, 0
2, 47160, Note_on_c, 0, 51, 93
2, 47184, Note_off_c, 0, 51, 0
2, 47184, Note_on_c, 0, 53, 93
2, 47208, Note_off_c, 0, 53, 0
2, 47208, Note_on_c, 0, 55, 93
2, 47232, Note_off_c, 0, 55, 0
2, 47232, Note_on_c, 0, 56, 93
2, 47328, Note_off_c, 0, 56, 0
2, 47328, Note_on_c, 0, 58, 93
2, 47376, Note_off_c, 0, 58, 0
2, 47376, Note_on_c, 0, 55, 93
2, 47424, Note_off_c, 0, 55, 0
2, 47424, Note_on_c, 0, 56, 93
2, 47520, Note_off_c, 0, 56, 0
2, 47520, Note_on_c, 0, 58, 93
2, 47568, Note_off_c, 0, 58, 0
2, 47568, Note_on_c, 0, 53, 93
2, 47616, Note_off_c, 0, 53, 0
2, 47616, Note_on_c, 0, 55, 93
2, 47712, Note_off_c, 0, 55, 0
2, 47712, Note_on_c, 0, 51, 93
2, 47808, Note_off_c, 0, 51, 0
2, 47808, Note_on_c, 0, 39, 93
2, 47904, Note_off_c, 0, 39, 0
2, 47904, Note_on_c, 0, 51, 93
2, 47928, Note_off_c, 0, 51, 0
2, 47928, Note_on_c, 0, 53, 93
2, 47952, Note_off_c, 0, 53, 0
2, 47952, Note_on_c, 0, 55, 93
2, 47976, Note_off_c, 0, 55, 0
2, 47976, Note_on_c, 0, 56, 93
2, 48000, Note_off_c, 0, 56, 0
2, 48000, Note_on_c, 0, 58, 93
2, 48096, Note_off_c, 0, 58, 0
2, 48096, Note_on_c, 0, 46, 93
2, 48120, Note_off_c, 0, 46, 0
2, 48120, Note_on_c, 0, 48, 93
2, 48144, Note_off_c, 0, 48, 0
2, 48144, Note_on_c, 0, 50, 93
2, 48168, Note_off_c, 0, 50, 0
2, 48168, Note_on_c, 0, 51, 93
2, 48192, Note_off_c, 0, 51, 0
2, 48192, Note_on_c, 0, 53, 93
2, 48288, Note_off_c, 0, 53, 0
2, 48288, Note_on_c, 0, 56, 93
2, 48384, Note_off_c, 0, 56, 0
2, 48384, Note_on_c, 0, 56, 93
2, 48432, Note_off_c, 0, 56, 0
2, 48432, Note_on_c, 0, 55, 93
2, 48480, Note_off_c, 0, 55, 0
2, 48480, Note_on_c, 0, 53, 93
2, 48528, Note_off_c, 0, 53, 0
2, 48528, Note_on_c, 0, 51, 93
2, 48576, Note_off_c, 0, 51, 0
2, 48576, Note_on_c, 0, 53, 93
2, 48672, Note_off_c, 0, 53, 0
2, 48672, Note_on_c, 0, 51, 93
2, 48696, Note_off_c, 0, 51, 0
2, 48696, Note_on_c, 0, 53, 93
2, 48720, Note_off_c, 0, 53, 0
2, 48720, Note_on_c, 0, 55, 93
2, 48744, Note_off_c, 0, 55, 0
2, 48744, Note_on_c, 0, 56, 93
2, 48768, Note_off_c, 0, 56, 0
2, 48768, Note_on_c, 0, 58, 93
2, 48864, Note_off_c, 0, 58, 0
2, 48864, Note_on_c, 0, 46, 93
2, 48888, Note_off_c, 0, 46, 0
2, 48888, Note_on_c, 0, 48, 93
2, 48912, Note_off_c, 0, 48, 0
2, 48912, Note_on_c, 0, 50, 93
2, 48936, Note_off_c, 0, 50, 0
2, 48936, Note_on_c, 0, 51, 93
2, 48960, Note_off_c, 0, 51, 0
2, 48960, Note_on_c, 0, 53, 93
2, 49056, Note_off_c, 0, 53, 0
2, 49056, Note_on_c, 0, 56, 93
2, 49152, Note_off_c, 0, 56, 0
2, 49152, Note_on_c, 0, 56, 93
2, 49200, Note_off_c, 0, 56, 0
2, 49200, Note_on_c, 0, 55, 93
2, 49248, Note_off_c, 0, 55, 0
2, 49248, Note_on_c, 0, 53, 93
2, 49296, Note_off_c, 0, 53, 0
2, 49296, Note_on_c, 0, 51, 93
2, 49344, Note_off_c, 0, 51, 0
2, 49344, Note_on_c, 0, 53, 93
2, 49440, Note_off_c, 0, 53, 0
2, 49440, Note_on_c, 0, 53, 93
2, 49464, Note_off_c, 0, 53, 0
2, 49464, Note_on_c, 0, 55, 93
2, 49488, Note_off_c, 0, 55, 0
2, 49488, Note_on_c, 0, 57, 93
2, 49512, Note_off_c, 0, 57, 0
2, 49512, Note_on_c, 0, 58, 93
2, 49536, Note_off_c, 0, 58, 0
2, 49536, Note_on_c, 0, 60, 93
2, 49632, Note_off_c, 0, 60, 0
2, 49632, Note_on_c, 0, 57, 93
2, 49656, Note_off_c, 0, 57, 0
2, 49656, Note_on_c, 0, 58, 93
2, 49680, Note_off_c, 0, 58, 0
2, 49680, Note_on_c, 0, 60, 93
2, 49704, Note_off_c, 0, 60, 0
2, 49704, Note_on_c, 0, 62, 93
2, 49728, Note_off_c, 0, 62, 0
2, 49728, Note_on_c, 0, 63, 93
2, 49824, Note_off_c, 0, 63, 0
2, 49824, Note_on_c, 0, 53, 93
2, 49848, Note_off_c, 0, 53, 0
2, 49848, Note_on_c, 0, 55, 93
2, 49872, Note_off_c, 0, 55, 0
2, 49872, Note_on_c, 0, 57, 93
2, 49896, Note_off_c, 0, 57, 0
2, 49896, Note_on_c, 0, 58, 93
2, 49920, Note_off_c, 0, 58, 0
2, 49920, Note_on_c, 0, 60, 93
2, 50016, Note_off_c, 0, 60, 0
2, 50016, Note_on_c, 0, 57, 93
2, 50040, Note_off_c, 0, 57, 0
2, 50040, Note_on_c, 0, 58, 93
2, 50064, Note_off_c, 0, 58, 0
2, 50064, Note_on_c, 0, 60, 93
2, 50088, Note_off_c, 0, 60, 0
2, 50088, Note_on_c, 0, 62, 93
2, 50112, Note_off_c, 0, 62, 0
2, 50112, Note_on_c, 0, 63, 93
2, 50208, Note_off_c, 0, 63, 0
2, 50208, Note_on_c, 0, 62, 93
2, 50256, Note_off_c, 0, 62, 0
2, 50256, Note_on_c, 0, 60, 93
2, 50304, Note_off_c, 0, 60, 0
2, 50304, Note_on_c, 0, 62, 93
2, 50352, Note_off_c, 0, 62, 0
2, 50352, Note_on_c, 0, 58, 93
2, 50400, Note_off_c, 0, 58, 0
2, 50400, Note_on_c, 0, 55, 93
2, 50448, Note_off_c, 0, 55, 0
2, 50448, Note_on_c, 0, 58, 93
2, 50496, Note_off_c, 0, 58, 0
2, 50496, Note_on_c, 0, 51, 93
2, 50544, Note_off_c, 0, 51, 0
2, 50544, Note_on_c, 0, 60, 93
2, 50592, Note_off_c, 0, 60, 0
2, 50592, Note_on_c, 0, 53, 93
2, 50640, Note_off_c, 0, 53, 0
2, 50640, Note_on_c, 0, 57, 93
2, 50688, Note_off_c, 0, 57, 0
2, 50688, Note_on_c, 0, 58, 93
2, 50784, Note_off_c, 0, 58, 0
2, 50784, Note_on_c, 0, 53, 93
2, 50880, Note_off_c, 0, 53, 0
2, 50880, Note_on_c, 0, 46, 93
2, 50976, Note_off_c, 0, 46, 0
2, 50976, Note_on_c, 0, 46, 93
2, 51000, Note_off_c, 0, 46, 0
2, 51000, Note_on_c, 0, 48, 93
2, 51024, Note_off_c, 0, 48, 0
2, 51024, Note_on_c, 0, 50, 93
2, 51048, Note_off_c, 0, 50, 0
2, 51048, Note_on_c, 0, 51, 93
2, 51072, Note_off_c, 0, 51, 0
2, 51072, Note_on_c, 0, 53, 93
2, 51168, Note_off_c, 0, 53, 0
2, 51168, Note_on_c, 0, 55, 93
2, 51216, Note_off_c, 0, 55, 0
2, 51216, Note_on_c, 0, 51, 93
2, 51264, Note_off_c, 0, 51, 0
2, 51264, Note_on_c, 0, 53, 93
2, 51360, Note_off_c, 0, 53, 0
2, 51360, Note_on_c, 0, 58, 93
2, 51408, Note_off_c, 0, 58, 0
2, 51408, Note_on_c, 0, 53, 93
2, 51456, Note_off_c, 0, 53, 0
2, 51456, Note_on_c, 0, 55, 93
2, 51552, Note_off_c, 0, 55, 0
2, 51552, Note_on_c, 0, 51, 93
2, 51648, Note_off_c, 0, 51, 0
2, 51648, Note_on_c, 0, 39, 93
2, 51744, Note_off_c, 0, 39, 0
2, 51744, Note_on_c, 0, 56, 93
2, 51768, Note_off_c, 0, 56, 0
2, 51768, Note_on_c, 0, 55, 93
2, 51792, Note_off_c, 0, 55, 0
2, 51792, Note_on_c, 0, 53, 93
2, 51816, Note_off_c, 0, 53, 0
2, 51816, Note_on_c, 0, 51, 93
2, 51840, Note_off_c, 0, 51, 0
2, 51840, Note_on_c, 0, 50, 93
2, 51936, Note_off_c, 0, 50, 0
2, 51936, Note_on_c, 0, 53, 93
2, 51960, Note_off_c, 0, 53, 0
2, 51960, Note_on_c, 0, 51, 93
2, 51984, Note_off_c, 0, 51, 0
2, 51984, Note_on_c, 0, 50, 93
2, 52008, Note_off_c, 0, 50, 0
2, 52008, Note_on_c, 0, 48, 93
2, 52032, Note_off_c, 0, 48, 0
2, 52032, Note_on_c, 0, 47, 93
2, 52128, Note_off_c, 0, 47, 0
2, 52128, Note_on_c, 0, 50, 93
2, 52152, Note_off_c, 0, 50, 0
2, 52152, Note_on_c, 0, 48, 93
2, 52176, Note_off_c, 0, 48, 0
2, 52176, Note_on_c, 0, 47, 93
2, 52200, Note_off_c, 0, 47, 0
2, 52200, Note_on_c, 0, 45, 93
2, 52224, Note_off_c, 0, 45, 0
2, 52224, Note_on_c, 0, 43, 93
2, 52272, Note_off_c, 0, 43, 0
2, 52272, Note_on_c, 0, 50, 93
2, 52320, Note_off_c, 0, 50, 0
2, 52320, Note_on_c, 0, 53, 93
2, 52368, Note_off_c, 0, 53, 0
2, 52368, Note_on_c, 0, 59, 93
2, 52416, Note_off_c, 0, 59, 0
2, 52416, Note_on_c, 0, 62, 93
2, 52512, Note_off_c, 0, 62, 0
2, 52512, Note_on_c, 0, 55, 93
2, 52536, Note_off_c, 0, 55, 0
2, 52536, Note_on_c, 0, 53, 93
2, 52560, Note_off_c, 0, 53, 0
2, 52560, Note_on_c, 0, 51, 93
2, 52584, Note_off_c, 0, 51, 0
2, 52584, Note_on_c, 0, 50, 93
2, 52608, Note_off_c, 0, 50, 0
2, 52608, Note_on_c, 0, 51, 93
2, 52704, Note_off_c, 0, 51, 0
2, 52704, Note_on_c, 0, 36, 93
2, 52728, Note_off_c, 0, 36, 0
2, 52728, Note_on_c, 0, 38, 93
2, 52752, Note_off_c, 0, 38, 0
2, 52752, Note_on_c, 0, 39, 93
2, 52776, Note_off_c, 0, 39, 0
2, 52776, Note_on_c, 0, 41, 93
2, 52800, Note_off_c, 0, 41, 0
2, 52800, Note_on_c, 0, 43, 93
2, 52896, Note_off_c, 0, 43, 0
2, 52896, Note_on_c, 0, 62, 93
2, 52920, Note_off_c, 0, 62, 0
2, 52920, Note_on_c, 0, 60, 93
2, 52944, Note_off_c, 0, 60, 0
2, 52944, Note_on_c, 0, 59, 93
2, 52968, Note_off_c, 0, 59, 0
2, 52968, Note_on_c, 0, 57, 93
2, 52992, Note_off_c, 0, 57, 0
2, 52992, Note_on_c, 0, 59, 93
2, 53088, Note_off_c, 0, 59, 0
2, 53088, Note_on_c, 0, 43, 93
2, 53112, Note_off_c, 0, 43, 0
2, 53112, Note_on_c, 0, 45, 93
2, 53136, Note_off_c, 0, 45, 0
2, 53136, Note_on_c, 0, 47, 93
2, 53160, Note_off_c, 0, 47, 0
2, 53160, Note_on_c, 0, 48, 93
2, 53184, Note_off_c, 0, 48, 0
2, 53184, Note_on_c, 0, 50, 93
2, 53280, Note_off_c, 0, 50, 0
2, 53280, Note_on_c, 0, 67, 93
2, 53304, Note_off_c, 0, 67, 0
2, 53304, Note_on_c, 0, 65, 93
2, 53328, Note_off_c, 0, 65, 0
2, 53328, Note_on_c, 0, 63, 93
2, 53352, Note_off_c, 0, 63, 0
2, 53352, Note_on_c, 0, 62, 93
2, 53376, Note_off_c, 0, 62, 0
2, 53376, Note_on_c, 0, 63, 93
2, 53472, Note_off_c, 0, 63, 0
2, 53472, Note_on_c, 0, 63, 93
2, 53496, Note_off_c, 0, 63, 0
2, 53496, Note_on_c, 0, 62, 93
2, 53520, Note_off_c, 0, 62, 0
2, 53520, Note_on_c, 0, 60, 93
2, 53544, Note_off_c, 0, 60, 0
2, 53544, Note_on_c, 0, 59, 93
2, 53568, Note_off_c, 0, 59, 0
2, 53568, Note_on_c, 0, 60, 93
2, 53664, Note_off_c, 0, 60, 0
2, 53664, Note_on_c, 0, 60, 93
2, 53688, Note_off_c, 0, 60, 0
2, 53688, Note_on_c, 0, 58, 93
2, 53712, Note_off_c, 0, 58, 0
2, 53712, Note_on_c, 0, 56, 93
2, 53736, Note_off_c, 0, 56, 0
2, 53736, Note_on_c, 0, 55, 93
2, 53760, Note_off_c, 0, 55, 0
2, 53760, Note_on_c, 0, 56, 93
2, 53856, Note_off_c, 0, 56, 0
2, 53856, Note_on_c, 0, 56, 93
2, 53880, Note_off_c, 0, 56, 0
2, 53880, Note_on_c, 0, 55, 93
2, 53904, Note_off_c, 0, 55, 0
2, 53904, Note_on_c, 0, 53, 93
2, 53928, Note_off_c, 0, 53, 0
2, 53928, Note_on_c, 0, 51, 93
2, 53952, Note_off_c, 0, 51, 0
2, 53952, Note_on_c, 0, 50, 93
2, 54048, Note_off_c, 0, 50, 0
2, 54048, Note_on_c, 0, 60, 93
2, 54096, Note_off_c, 0, 60, 0
2, 54096, Note_on_c, 0, 59, 93
2, 54144, Note_off_c, 0, 59, 0
2, 54144, Note_on_c, 0, 60, 93
2, 54192, Note_off_c, 0, 60, 0
2, 54192, Note_on_c, 0, 56, 93
2, 54240, Note_off_c, 0, 56, 0
2, 54240, Note_on_c, 0, 53, 93
2, 54288, Note_off_c, 0, 53, 0
2, 54288, Note_on_c, 0, 56, 93
2, 54336, Note_off_c, 0, 56, 0
2, 54336, Note_on_c, 0, 50, 93
2, 54384, Note_off_c, 0, 50, 0
2, 54384, Note_on_c, 0, 60, 93
2, 54432, Note_off_c, 0, 60, 0
2, 54432, Note_on_c, 0, 55, 93
2, 54480, Note_off_c, 0, 55, 0
2, 54480, Note_on_c, 0, 59, 93
2, 54528, Note_off_c, 0, 59, 0
2, 54528, Note_on_c, 0, 60, 93
2, 54624, Note_off_c, 0, 60, 0
2, 54624, Note_on_c, 0, 43, 93
2, 54720, Note_off_c, 0, 43, 0
2, 54720, Note_on_c, 0, 36, 93
2, 54816, Note_off_c, 0, 36, 0
2, 54816, Note_on_c, 0, 48, 93
2, 54840, Note_off_c, 0, 48, 0
2, 54840, Note_on_c, 0, 50, 93
2, 54864, Note_off_c, 0, 50, 0
2, 54864, Note_on_c, 0, 52, 93
2, 54888, Note_off_c, 0, 52, 0
2, 54888, Note_on_c, 0, 53, 93
2, 54912, Note_off_c, 0, 53, 0
2, 54912, Note_on_c, 0, 55, 93
2, 55008, Note_off_c, 0, 55, 0
2, 55008, Note_on_c, 0, 56, 93
2, 55056, Note_off_c, 0, 56, 0
2, 55056, Note_on_c, 0, 53, 93
2, 55104, Note_off_c, 0, 53, 0
2, 55104, Note_on_c, 0, 55, 93
2, 55200, Note_off_c, 0, 55, 0
2, 55200, Note_on_c, 0, 60, 93
2, 55248, Note_off_c, 0, 60, 0
2, 55248, Note_on_c, 0, 55, 93
2, 55296, Note_off_c, 0, 55, 0
2, 55296, Note_on_c, 0, 58, 93
2, 55344, Note_off_c, 0, 58, 0
2, 55344, Note_on_c, 0, 56, 93
2, 55392, Note_off_c, 0, 56, 0
2, 55392, Note_on_c, 0, 55, 93
2, 55440, Note_off_c, 0, 55, 0
2, 55440, Note_on_c, 0, 53, 93
2, 55488, Note_off_c, 0, 53, 0
2, 55488, Note_on_c, 0, 63, 93
2, 55536, Note_off_c, 0, 63, 0
2, 55536, Note_on_c, 0, 62, 93
2, 55584, Note_off_c, 0, 62, 0
2, 55584, Note_on_c, 0, 60, 93
2, 55632, Note_off_c, 0, 60, 0
2, 55632, Note_on_c, 0, 58, 93
2, 55680, Note_off_c, 0, 58, 0
2, 55680, Note_on_c, 0, 63, 93
2, 55776, Note_off_c, 0, 63, 0
2, 55776, Note_on_c, 0, 51, 93
2, 55800, Note_off_c, 0, 51, 0
2, 55800, Note_on_c, 0, 53, 93
2, 55824, Note_off_c, 0, 53, 0
2, 55824, Note_on_c, 0, 55, 93
2, 55848, Note_off_c, 0, 55, 0
2, 55848, Note_on_c, 0, 56, 93
2, 55872, Note_off_c, 0, 56, 0
2, 55872, Note_on_c, 0, 58, 93
2, 55968, Note_off_c, 0, 58, 0
2, 55968, Note_on_c, 0, 60, 93
2, 56064, Note_off_c, 0, 60, 0
2, 56064, Note_on_c, 0, 51, 93
2, 56112, Note_off_c, 0, 51, 0
2, 56112, Note_on_c, 0, 50, 93
2, 56160, Note_off_c, 0, 50, 0
2, 56160, Note_on_c, 0, 48, 93
2, 56208, Note_off_c, 0, 48, 0
2, 56208, Note_on_c, 0, 50, 93
2, 56256, Note_off_c, 0, 50, 0
2, 56256, Note_on_c, 0, 46, 93
2, 56352, Note_off_c, 0, 46, 0
2, 56352, Note_on_c, 0, 46, 93
2, 56376, Note_off_c, 0, 46, 0
2, 56376, Note_on_c, 0, 48, 93
2, 56400, Note_off_c, 0, 48, 0
2, 56400, Note_on_c, 0, 50, 93
2, 56424, Note_off_c, 0, 50, 0
2, 56424, Note_on_c, 0, 51, 93
2, 56448, Note_off_c, 0, 51, 0
2, 56448, Note_on_c, 0, 53, 93
2, 56544, Note_off_c, 0, 53, 0
2, 56544, Note_on_c, 0, 50, 93
2, 56568, Note_off_c, 0, 50, 0
2, 56568, Note_on_c, 0, 51, 93
2, 56592, Note_off_c, 0, 51, 0
2, 56592, Note_on_c, 0, 53, 93
2, 56616, Note_off_c, 0, 53, 0
2, 56616, Note_on_c, 0, 55, 93
2, 56640, Note_off_c, 0, 55, 0
2, 56640, Note_on_c, 0, 56, 93
2, 56736, Note_off_c, 0, 56, 0
2, 56736, Note_on_c, 0, 46, 93
2, 56760, Note_off_c, 0, 46, 0
2, 56760, Note_on_c, 0, 48, 93
2, 56784, Note_off_c, 0, 48, 0
2, 56784, Note_on_c, 0, 50, 93
2, 56808, Note_off_c, 0, 50, 0
2, 56808, Note_on_c, 0, 51, 93
2, 56832, Note_off_c, 0, 51, 0
2, 56832, Note_on_c, 0, 53, 93
2, 56928, Note_off_c, 0, 53, 0
2, 56928, Note_on_c, 0, 50, 93
2, 56952, Note_off_c, 0, 50, 0
2, 56952, Note_on_c, 0, 51, 93
2, 56976, Note_off_c, 0, 51, 0
2, 56976, Note_on_c, 0, 53, 93
2, 57000, Note_off_c, 0, 53, 0
2, 57000, Note_on_c, 0, 55, 93
2, 57024, Note_off_c, 0, 55, 0
2, 57024, Note_on_c, 0, 56, 93
2, 57120, Note_off_c, 0, 56, 0
2, 57120, Note_on_c, 0, 51, 93
2, 57144, Note_off_c, 0, 51, 0
2, 57144, Note_on_c, 0, 53, 93
2, 57168, Note_off_c, 0, 53, 0
2, 57168, Note_on_c, 0, 55, 93
2, 57192, Note_off_c, 0, 55, 0
2, 57192, Note_on_c, 0, 56, 93
2, 57216, Note_off_c, 0, 56, 0
2, 57216, Note_on_c, 0, 58, 93
2, 57312, Note_off_c, 0, 58, 0
2, 57312, Note_on_c, 0, 55, 93
2, 57336, Note_off_c, 0, 55, 0
2, 57336, Note_on_c, 0, 56, 93
2, 57360, Note_off_c, 0, 56, 0
2, 57360, Note_on_c, 0, 58, 93
2, 57384, Note_off_c, 0, 58, 0
2, 57384, Note_on_c, 0, 60, 93
2, 57408, Note_off_c, 0, 60, 0
2, 57408, Note_on_c, 0, 61, 93
2, 57504, Note_off_c, 0, 61, 0
2, 57504, Note_on_c, 0, 51, 93
2, 57528, Note_off_c, 0, 51, 0
2, 57528, Note_on_c, 0, 53, 93
2, 57552, Note_off_c, 0, 53, 0
2, 57552, Note_on_c, 0, 55, 93
2, 57576, Note_off_c, 0, 55, 0
2, 57576, Note_on_c, 0, 56, 93
2, 57600, Note_off_c, 0, 56, 0
2, 57600, Note_on_c, 0, 58, 93
2, 57696, Note_off_c, 0, 58, 0
2, 57696, Note_on_c, 0, 55, 93
2, 57720, Note_off_c, 0, 55, 0
2, 57720, Note_on_c, 0, 56, 93
2, 57744, Note_off_c, 0, 56, 0
2, 57744, Note_on_c, 0, 58, 93
2, 57768, Note_off_c, 0, 58, 0
2, 57768, Note_on_c, 0, 60, 93
2, 57792, Note_off_c, 0, 60, 0
2, 57792, Note_on_c, 0, 61, 93
2, 57888, Note_off_c, 0, 61, 0
2, 57888, Note_on_c, 0, 60, 93
2, 57936, Note_off_c, 0, 60, 0
2, 57936, Note_on_c, 0, 58, 93
2, 57984, Note_off_c, 0, 58, 0
2, 57984, Note_on_c, 0, 60, 93
2, 58032, Note_off_c, 0, 60, 0
2, 58032, Note_on_c, 0, 58, 93
2, 58080, Note_off_c, 0, 58, 0
2, 58080, Note_on_c, 0, 58, 93
2, 58128, Note_off_c, 0, 58, 0
2, 58128, Note_on_c, 0, 56, 93
2, 58176, Note_off_c, 0, 56, 0
2, 58176, Note_on_c, 0, 58, 93
2, 58224, Note_off_c, 0, 58, 0
2, 58224, Note_on_c, 0, 55, 93
2, 58272, Note_off_c, 0, 55, 0
2, 58272, Note_on_c, 0, 43, 93
2, 58320, Note_off_c, 0, 43, 0
2, 58320, Note_on_c, 0, 55, 93
2, 58344, Note_off_c, 0, 55, 0
2, 58344, Note_on_c, 0, 56, 93
2, 58368, Note_off_c, 0, 56, 0
2, 58368, Note_on_c, 0, 58, 93
2, 58416, Note_off_c, 0, 58, 0
2, 58416, Note_on_c, 0, 55, 93
2, 58440, Note_off_c, 0, 55, 0
2, 58440, Note_on_c, 0, 56, 93
2, 58464, Note_off_c, 0, 56, 0
2, 58464, Note_on_c, 0, 58, 93
2, 58512, Note_off_c, 0, 58, 0
2, 58512, Note_on_c, 0, 56, 93
2, 58536, Note_off_c, 0, 56, 0
2, 58536, Note_on_c, 0, 55, 93
2, 58560, Note_off_c, 0, 55, 0
2, 58560, Note_on_c, 0, 56, 93
2, 58608, Note_off_c, 0, 56, 0
2, 58608, Note_on_c, 0, 53, 93
2, 58656, Note_off_c, 0, 53, 0
2, 58656, Note_on_c, 0, 41, 93
2, 58704, Note_off_c, 0, 41, 0
2, 58704, Note_on_c, 0, 56, 93
2, 58752, Note_off_c, 0, 56, 0
2, 58752, Note_on_c, 0, 55, 93
2, 58776, Note_off_c, 0, 55, 0
2, 58776, Note_on_c, 0, 53, 93
2, 58800, Note_off_c, 0, 53, 0
2, 58800, Note_on_c, 0, 51, 93
2, 58824, Note_off_c, 0, 51, 0
2, 58824, Note_on_c, 0, 50, 93
2, 58848, Note_off_c, 0, 50, 0
2, 58848, Note_on_c, 0, 51, 93
2, 58896, Note_off_c, 0, 51, 0
2, 58896, Note_on_c, 0, 58, 93
2, 58944, Note_off_c, 0, 58, 0
2, 58944, Note_on_c, 0, 55, 93
2, 58968, Note_off_c, 0, 55, 0
2, 58968, Note_on_c, 0, 53, 93
2, 58992, Note_off_c, 0, 53, 0
2, 58992, Note_on_c, 0, 51, 93
2, 59016, Note_off_c, 0, 51, 0
2, 59016, Note_on_c, 0, 50, 93
2, 59040, Note_off_c, 0, 50, 0
2, 59040, Note_on_c, 0, 51, 93
2, 59088, Note_off_c, 0, 51, 0
2, 59088, Note_on_c, 0, 63, 93
2, 59136, Note_off_c, 0, 63, 0
2, 59136, Note_on_c, 0, 56, 93
2, 59160, Note_off_c, 0, 56, 0
2, 59160, Note_on_c, 0, 55, 93
2, 59184, Note_off_c, 0, 55, 0
2, 59184, Note_on_c, 0, 53, 93
2, 59208, Note_off_c, 0, 53, 0
2, 59208, Note_on_c, 0, 55, 93
2, 59232, Note_off_c, 0, 55, 0
2, 59232, Note_on_c, 0, 56, 93
2, 59256, Note_off_c, 0, 56, 0
2, 59256, Note_on_c, 0, 55, 93
2, 59280, Note_off_c, 0, 55, 0
2, 59280, Note_on_c, 0, 53, 93
2, 59304, Note_off_c, 0, 53, 0
2, 59304, Note_on_c, 0, 55, 93
2, 59328, Note_off_c, 0, 55, 0
2, 59328, Note_on_c, 0, 56, 93
2, 59352, Note_off_c, 0, 56, 0
2, 59352, Note_on_c, 0, 55, 93
2, 59376, Note_off_c, 0, 55, 0
2, 59376, Note_on_c, 0, 53, 93
2, 59400, Note_off_c, 0, 53, 0
2, 59400, Note_on_c, 0, 51, 93
2, 59424, Note_off_c, 0, 51, 0
2, 59424, Note_on_c, 0, 50, 93
2, 59448, Note_off_c, 0, 50, 0
2, 59448, Note_on_c, 0, 48, 93
2, 59472, Note_off_c, 0, 48, 0
2, 59472, Note_on_c, 0, 46, 93
2, 59496, Note_off_c, 0, 46, 0
2, 59496, Note_on_c, 0, 44, 93
2, 59520, Note_off_c, 0, 44, 0
2, 59520, Note_on_c, 0, 43, 93
2, 59568, Note_off_c, 0, 43, 0
2, 59568, Note_on_c, 0, 51, 93
2, 59616, Note_off_c, 0, 51, 0
2, 59616, Note_on_c, 0, 60, 93
2, 59664, Note_off_c, 0, 60, 0
2, 59664, Note_on_c, 0, 56, 93
2, 59712, Note_off_c, 0, 56, 0
2, 59712, Note_on_c, 0, 58, 93
2, 59808, Note_off_c, 0, 58, 0
2, 59808, Note_on_c, 0, 60, 93
2, 59856, Note_off_c, 0, 60, 0
2, 59856, Note_on_c, 0, 55, 93
2, 59904, Note_off_c, 0, 55, 0
2, 59904, Note_on_c, 0, 56, 93
2, 60000, Note_off_c, 0, 56, 0
2, 60000, Note_on_c, 0, 53, 93
2, 60096, Note_off_c, 0, 53, 0
2, 60096, Note_on_c, 0, 41, 93
2, 60192, Note_off_c, 0, 41, 0
2, 60192, Note_on_c, 0, 60, 93
2, 60216, Note_off_c, 0, 60, 0
2, 60216, Note_on_c, 0, 58, 93
2, 60240, Note_off_c, 0, 58, 0
2, 60240, Note_on_c, 0, 56, 93
2, 60264, Note_off_c, 0, 56, 0
2, 60264, Note_on_c, 0, 55, 93
2, 60288, Note_off_c, 0, 55, 0
2, 60288, Note_on_c, 0, 53, 93
2, 60384, Note_off_c, 0, 53, 0
2, 60384, Note_on_c, 0, 56, 93
2, 60408, Note_off_c, 0, 56, 0
2, 60408, Note_on_c, 0, 55, 93
2, 60432, Note_off_c, 0, 55, 0
2, 60432, Note_on_c, 0, 53, 93
2, 60456, Note_off_c, 0, 53, 0
2, 60456, Note_on_c, 0, 51, 93
2, 60480, Note_off_c, 0, 51, 0
2, 60480, Note_on_c, 0, 50, 93
2, 60576, Note_off_c, 0, 50, 0
2, 60576, Note_on_c, 0, 53, 93
2, 60600, Note_off_c, 0, 53, 0
2, 60600, Note_on_c, 0, 51, 93
2, 60624, Note_off_c, 0, 51, 0
2, 60624, Note_on_c, 0, 50, 93
2, 60648, Note_off_c, 0, 50, 0
2, 60648, Note_on_c, 0, 48, 93
2, 60672, Note_off_c, 0, 48, 0
2, 60672, Note_on_c, 0, 46, 93
2, 60720, Note_off_c, 0, 46, 0
2, 60720, Note_on_c, 0, 50, 93
2, 60768, Note_off_c, 0, 50, 0
2, 60768, Note_on_c, 0, 53, 93
2, 60816, Note_off_c, 0, 53, 0
2, 60816, Note_on_c, 0, 56, 93
2, 60864, Note_off_c, 0, 56, 0
2, 60864, Note_on_c, 0, 65, 93
2, 60960, Note_off_c, 0, 65, 0
2, 60960, Note_on_c, 0, 63, 93
2, 60984, Note_off_c, 0, 63, 0
2, 60984, Note_on_c, 0, 62, 93
2, 61008, Note_off_c, 0, 62, 0
2, 61008, Note_on_c, 0, 60, 93
2, 61032, Note_off_c, 0, 60, 0
2, 61032, Note_on_c, 0, 58, 93
2, 61056, Note_off_c, 0, 58, 0
2, 61056, Note_on_c, 0, 63, 93
2, 61152, Note_off_c, 0, 63, 0
2, 61152, Note_on_c, 0, 51, 93
2, 61176, Note_off_c, 0, 51, 0
2, 61176, Note_on_c, 0, 53, 93
2, 61200, Note_off_c, 0, 53, 0
2, 61200, Note_on_c, 0, 55, 93
2, 61224, Note_off_c, 0, 55, 0
2, 61224, Note_on_c, 0, 56, 93
2, 61248, Note_off_c, 0, 56, 0
2, 61248, Note_on_c, 0, 58, 93
2, 61344, Note_off_c, 0, 58, 0
2, 61344, Note_on_c, 0, 60, 93
2, 61440, Note_off_c, 0, 60, 0
2, 61440, Note_on_c, 0, 51, 93
2, 61488, Note_off_c, 0, 51, 0
2, 61488, Note_on_c, 0, 50, 93
2, 61536, Note_off_c, 0, 50, 0
2, 61536, Note_on_c, 0, 48, 93
2, 61584, Note_off_c, 0, 48, 0
2, 61584, Note_on_c, 0, 50, 93
2, 61632, Note_off_c, 0, 50, 0
2, 61632, Note_on_c, 0, 46, 93
2, 61728, Note_off_c, 0, 46, 0
2, 61728, Note_on_c, 0, 63, 93
2, 61752, Note_off_c, 0, 63, 0
2, 61752, Note_on_c, 0, 62, 93
2, 61776, Note_off_c, 0, 62, 0
2, 61776, Note_on_c, 0, 60, 93
2, 61800, Note_off_c, 0, 60, 0
2, 61800, Note_on_c, 0, 58, 93
2, 61824, Note_off_c, 0, 58, 0
2, 61824, Note_on_c, 0, 63, 93
2, 61920, Note_off_c, 0, 63, 0
2, 61920, Note_on_c, 0, 51, 93
2, 61944, Note_off_c, 0, 51, 0
2, 61944, Note_on_c, 0, 53, 93
2, 61968, Note_off_c, 0, 53, 0
2, 61968, Note_on_c, 0, 55, 93
2, 61992, Note_off_c, 0, 55, 0
2, 61992, Note_on_c, 0, 56, 93
2, 62016, Note_off_c, 0, 56, 0
2, 62016, Note_on_c, 0, 58, 93
2, 62112, Note_off_c, 0, 58, 0
2, 62112, Note_on_c, 0, 60, 93
2, 62208, Note_off_c, 0, 60, 0
2, 62208, Note_on_c, 0, 61, 93
2, 62232, Note_off_c, 0, 61, 0
2, 62232, Note_on_c, 0, 60, 93
2, 62256, Note_off_c, 0, 60, 0
2, 62256, Note_on_c, 0, 58, 93
2, 62304, Note_off_c, 0, 58, 0
2, 62304, Note_on_c, 0, 60, 93
2, 62448, Note_off_c, 0, 60, 0
2, 62448, Note_on_c, 0, 58, 93
2, 62472, Note_off_c, 0, 58, 0
2, 62472, Note_on_c, 0, 56, 93
2, 62496, Note_off_c, 0, 56, 0
2, 62496, Note_on_c, 0, 58, 93
2, 62520, Note_off_c, 0, 58, 0
2, 62520, Note_on_c, 0, 56, 93
2, 62544, Note_off_c, 0, 56, 0
2, 62544, Note_on_c, 0, 55, 93
2, 62592, Note_off_c, 0, 55, 0
2, 62592, Note_on_c, 0, 56, 93
2, 62616, Note_off_c, 0, 56, 0
2, 62616, Note_on_c, 0, 55, 93
2, 62640, Note_off_c, 0, 55, 0
2, 62640, Note_on_c, 0, 53, 93
2, 62688, Note_off_c, 0, 53, 0
2, 62688, Note_on_c, 0, 55, 93
2, 62832, Note_off_c, 0, 55, 0
2, 62832, Note_on_c, 0, 53, 93
2, 62856, Note_off_c, 0, 53, 0
2, 62856, Note_on_c, 0, 51, 93
2, 62880, Note_off_c, 0, 51, 0
2, 62880, Note_on_c, 0, 53, 93
2, 62904, Note_off_c, 0, 53, 0
2, 62904, Note_on_c, 0, 51, 93
2, 62928, Note_off_c, 0, 51, 0
2, 62928, Note_on_c, 0, 50, 93
2, 62976, Note_off_c, 0, 50, 0
2, 62976, Note_on_c, 0, 51, 93
2, 63024, Note_off_c, 0, 51, 0
2, 63024, Note_on_c, 0, 46, 93
2, 63072, Note_off_c, 0, 46, 0
2, 63072, Note_on_c, 0, 43, 93
2, 63120, Note_off_c, 0, 43, 0
2, 63120, Note_on_c, 0, 46, 93
2, 63168, Note_off_c, 0, 46, 0
2, 63168, Note_on_c, 0, 39, 93
2, 63264, Note_off_c, 0, 39, 0
2, 63264, Note_on_c, 0, 46, 93
2, 63288, Note_off_c, 0, 46, 0
2, 63288, Note_on_c, 0, 48, 93
2, 63312, Note_off_c, 0, 48, 0
2, 63312, Note_on_c, 0, 50, 93
2, 63336, Note_off_c, 0, 50, 0
2, 63336, Note_on_c, 0, 51, 93
2, 63360, Note_off_c, 0, 51, 0
2, 63360, Note_on_c, 0, 53, 93
2, 63456, Note_off_c, 0, 53, 0
2, 63456, Note_on_c, 0, 50, 93
2, 63480, Note_off_c, 0, 50, 0
2, 63480, Note_on_c, 0, 51, 93
2, 63504, Note_off_c, 0, 51, 0
2, 63504, Note_on_c, 0, 53, 93
2, 63528, Note_off_c, 0, 53, 0
2, 63528, Note_on_c, 0, 55, 93
2, 63552, Note_off_c, 0, 55, 0
2, 63552, Note_on_c, 0, 56, 93
2, 63648, Note_off_c, 0, 56, 0
2, 63648, Note_on_c, 0, 46, 93
2, 63672, Note_off_c, 0, 46, 0
2, 63672, Note_on_c, 0, 48, 93
2, 63696, Note_off_c, 0, 48, 0
2, 63696, Note_on_c, 0, 50, 93
2, 63720, Note_off_c, 0, 50, 0
2, 63720, Note_on_c, 0, 51, 93
2, 63744, Note_off_c, 0, 51, 0
2, 63744, Note_on_c, 0, 53, 93
2, 63840, Note_off_c, 0, 53, 0
2, 63840, Note_on_c, 0, 50, 93
2, 63864, Note_off_c, 0, 50, 0
2, 63864, Note_on_c, 0, 51, 93
2, 63888, Note_off_c, 0, 51, 0
2, 63888, Note_on_c, 0, 53, 93
2, 63912, Note_off_c, 0, 53, 0
2, 63912, Note_on_c, 0, 55, 93
2, 63936, Note_off_c, 0, 55, 0
2, 63936, Note_on_c, 0, 56, 93
2, 64032, Note_off_c, 0, 56, 0
2, 64032, Note_on_c, 0, 55, 93
2, 64080, Note_off_c, 0, 55, 0
2, 64080, Note_on_c, 0, 53, 93
2, 64128, Note_off_c, 0, 53, 0
2, 64128, Note_on_c, 0, 55, 93
2, 64176, Note_off_c, 0, 55, 0
2, 64176, Note_on_c, 0, 58, 93
2, 64224, Note_off_c, 0, 58, 0
2, 64224, Note_on_c, 0, 63, 93
2, 64272, Note_off_c, 0, 63, 0
2, 64272, Note_on_c, 0, 55, 93
2, 64320, Note_off_c, 0, 55, 0
2, 64320, Note_on_c, 0, 53, 93
2, 64368, Note_off_c, 0, 53, 0
2, 64368, Note_on_c, 0, 51, 93
2, 64416, Note_off_c, 0, 51, 0
2, 64416, Note_on_c, 0, 46, 93
2, 64464, Note_off_c, 0, 46, 0
2, 64464, Note_on_c, 0, 62, 93
2, 64512, Note_off_c, 0, 62, 0
2, 64512, Note_on_c, 0, 63, 93
2, 64800, Note_off_c, 0, 63, 0
2, 64800, End_track
3, 0, Start_track
3, 0, Title_t, "Track3"
3, 0, Program_c, 1, 42
3, 0, Control_c, 1, 7, 100
3, 0, Control_c, 1, 10, 74
3, 23040, Note_on_c, 1, 55, 93
3, 23328, Note_off_c, 1, 55, 0
3, 36864, Note_on_c, 1, 55, 93
3, 37152, Note_off_c, 1, 55, 0
3, 37152, Note_on_c, 1, 43, 93
3, 37248, Note_off_c, 1, 43, 0
3, 37248, Note_on_c, 1, 44, 93
3, 37344, Note_off_c, 1, 44, 0
3, 37440, Note_on_c, 1, 46, 93
3, 37536, Note_off_c, 1, 46, 0
3, 37632, Note_on_c, 1, 48, 93
3, 37728, Note_off_c, 1, 48, 0
3, 37824, Note_on_c, 1, 43, 93
3, 37920, Note_off_c, 1, 43, 0
3, 38688, Note_on_c, 1, 43, 93
3, 38784, Note_off_c, 1, 43, 0
3, 38784, Note_on_c, 1, 44, 93
3, 38880, Note_off_c, 1, 44, 0
3, 38976, Note_on_c, 1, 46, 93
3, 39072, Note_off_c, 1, 46, 0
3, 39168, Note_on_c, 1, 48, 93
3, 39264, Note_off_c, 1, 48, 0
3, 39360, Note_on_c, 1, 43, 93
3, 39456, Note_off_c, 1, 43, 0
3, 40224, Note_on_c, 1, 51, 93
3, 40320, Note_off_c, 1, 51, 0
3, 40320, Note_on_c, 1, 56, 93
3, 40416, Note_off_c, 1, 56, 0
3, 40512, Note_on_c, 1, 55, 93
3, 40608, Note_off_c, 1, 55, 0
3, 41088, Note_on_c, 1, 50, 93
3, 41184, Note_off_c, 1, 50, 0
3, 41280, Note_on_c, 1, 51, 93
3, 41376, Note_off_c, 1, 51, 0
3, 41760, Note_on_c, 1, 51, 93
3, 41856, Note_off_c, 1, 51, 0
3, 41856, Note_on_c, 1, 51, 93
3, 41952, Note_off_c, 1, 51, 0
3, 41952, Note_on_c, 1, 53, 93
3, 42144, Note_off_c, 1, 53, 0
3, 42144, Note_on_c, 1, 50, 93
3, 42240, Note_off_c, 1, 50, 0
3, 42240, Note_on_c, 1, 51, 93
3, 42288, Note_off_c, 1, 51, 0
3, 42288, Note_on_c, 1, 53, 93
3, 42336, Note_off_c, 1, 53, 0
3, 42336, Note_on_c, 1, 55, 93
3, 42528, Note_off_c, 1, 55, 0
3, 42528, Note_on_c, 1, 51, 93
3, 42624, Note_off_c, 1, 51, 0
3, 42624, Note_on_c, 1, 44, 93
3, 42720, Note_off_c, 1, 44, 0
3, 42720, Note_on_c, 1, 53, 93
3, 42816, Note_off_c, 1, 53, 0
3, 42816, Note_on_c, 1, 46, 93
3, 42912, Note_off_c, 1, 46, 0
3, 42912, Note_on_c, 1, 50, 93
3, 43008, Note_off_c, 1, 50, 0
3, 43008, Note_on_c, 1, 51, 93
3, 43296, Note_off_c, 1, 51, 0
3, 43296, Note_on_c, 1, 51, 93
3, 43392, Note_off_c, 1, 51, 0
3, 43392, Note_on_c, 1, 56, 93
3, 43488, Note_off_c, 1, 56, 0
3, 43584, Note_on_c, 1, 55, 93
3, 43680, Note_off_c, 1, 55, 0
3, 44160, Note_on_c, 1, 50, 93
3, 44256, Note_off_c, 1, 50, 0
3, 44352, Note_on_c, 1, 51, 93
3, 44448, Note_off_c, 1, 51, 0
3, 44832, Note_on_c, 1, 51, 93
3, 44928, Note_off_c, 1, 51, 0
3, 44928, Note_on_c, 1, 51, 93
3, 45024, Note_off_c, 1, 51, 0
3, 45024, Note_on_c, 1, 53, 93
3, 45216, Note_off_c, 1, 53, 0
3, 45216, Note_on_c, 1, 50, 93
3, 45312, Note_off_c, 1, 50, 0
3, 45312, Note_on_c, 1, 51, 93
3, 45360, Note_off_c, 1, 51, 0
3, 45360, Note_on_c, 1, 53, 93
3, 45408, Note_off_c, 1, 53, 0
3, 45408, Note_on_c, 1, 55, 93
3, 45600, Note_off_c, 1, 55, 0
3, 45600, Note_on_c, 1, 51, 93
3, 45696, Note_off_c, 1, 51, 0
3, 45696, Note_on_c, 1, 44, 93
3, 45792, Note_off_c, 1, 44, 0
3, 45792, Note_on_c, 1, 53, 93
3, 45888, Note_off_c, 1, 53, 0
3, 45888, Note_on_c, 1, 46, 93
3, 45984, Note_off_c, 1, 46, 0
3, 45984, Note_on_c, 1, 50, 93
3, 46080, Note_off_c, 1, 50, 0
3, 46080, Note_on_c, 1, 51, 93
3, 46368, Note_off_c, 1, 51, 0
3, 64512, Note_on_c, 1, 55, 93
3, 64800, Note_off_c, 1, 55, 0
3, 64800, End_track
4, 0, Start_track
4, 0, Title_t, "Track4"
4, 0, Program_c, 2, 42
4, 0, Control_c, 2, 7, 100
4, 0, Control_c, 2, 10, 54
4, 23040, Note_on_c, 2, 46, 93
4, 23328, Note_off_c, 2, 46, 0
4, 36864, Note_on_c, 2, 46, 93
4, 37152, Note_off_c, 2, 46, 0
4, 43008, Note_on_c, 2, 39, 93
4, 43296, Note_off_c, 2, 39, 0
4, 46080, Note_on_c, 2, 39, 93
4, 46368, Note_off_c, 2, 39, 0
4, 64512, Note_on_c, 2, 46, 93
4, 64800, Note_off_c, 2, 46, 0
4, 64800, End_track
5, 0, Start_track
5, 0, Title_t, "Track5"
5, 0, Program_c, 3, 42
5, 0, Control_c, 3, 7, 100
5, 0, Control_c, 3, 10, 44
5, 23040, Note_on_c, 3, 39, 93
5, 23328, Note_off_c, 3, 39, 0
5, 36864, Note_on_c, 3, 39, 93
5, 37152, Note_off_c, 3, 39, 0
5, 64512, Note_on_c, 3, 39, 93
5, 64800, Note_off_c, 3, 39, 0
5, 64800, End_track
0, 0, End_of_file
