0, 0, Header, 1, 3, 96
1, 0, Start_track
1, 0, Time_signature, 4, 2, 24, 8
1, 0, Title_t, "untitled"
1, 0, Title_t, "Track1"
1, 0, Tempo, 240000
1, 360, Tempo, 705882
1, 360, End_track
2, 0, Start_track
2, 0, Title_t, "Track2"
2, 0, Program_c, 0, 42
2, 0, Control_c, 0, 7, 100
2, 0, Control_c, 0, 10, 59
2, 360, Note_on_c, 0, 60, 93
2, 384, Note_off_c, 0, 60, 0
2, 384, Note_on_c, 0, 60, 93
2, 504, Note_off_c, 0, 60, 0
2, 504, Note_on_c, 0, 58, 93
2, 528, Note_off_c, 0, 58, 0
2, 528, Note_on_c, 0, 56, 93
2, 552, Note_off_c, 0, 56, 0
2, 552, Note_on_c, 0, 55, 93
2, 576, Note_off_c, 0, 55, 0
2, 576, Note_on_c, 0, 56, 93
2, 648, Note_off_c, 0, 56, 0
2, 648, Note_on_c, 0, 53, 93
2, 672, Note_off_c, 0, 53, 0
2, 672, Note_on_c, 0, 55, 93
2, 744, Note_off_c, 0, 55, 0
2, 744, Note_on_c, 0, 50, 93
2, 768, Note_off_c, 0, 50, 0
2, 768, Note_on_c, 0, 51, 93
2, 864, Note_off_c, 0, 51, 0
2, 1152, Note_on_c, 0, 43, 93
2, 1200, Note_off_c, 0, 43, 0
2, 1920, Note_on_c, 0, 36, 93
2, 1968, Note_off_c, 0, 36, 0
2, 2304, Note_on_c, 0, 51, 93
2, 2400, Note_off_c, 0, 51, 0
2, 2688, Note_on_c, 0, 51, 93
2, 2784, Note_off_c, 0, 51, 0
2, 3072, Note_on_c, 0, 48, 93
2, 3168, Note_off_c, 0, 48, 0
2, 3456, Note_on_c, 0, 48, 93
2, 3552, Note_off_c, 0, 48, 0
2, 4224, Note_on_c, 0, 56, 93
2, 4344, Note_off_c, 0, 56, 0
2, 4344, Note_on_c, 0, 55, 93
2, 4368, Note_off_c, 0, 55, 0
2, 4368, Note_on_c, 0, 56, 93
2, 4392, Note_off_c, 0, 56, 0
2, 4392, Note_on_c, 0, 53, 93
2, 4416, Note_off_c, 0, 53, 0
2, 4416, Note_on_c, 0, 62, 93
2, 4536, Note_off_c, 0, 62, 0
2, 4536, Note_on_c, 0, 60, 93
2, 4560, Note_off_c, 0, 60, 0
2, 4560, Note_on_c, 0, 62, 93
2, 4584, Note_off_c, 0, 62, 0
2, 4584, Note_on_c, 0, 58, 93
2, 4608, Note_off_c, 0, 58, 0
2, 4608, Note_on_c, 0, 65, 93
2, 4728, Note_off_c, 0, 65, 0
2, 4728, Note_on_c, 0, 63, 93
2, 4752, Note_off_c, 0, 63, 0
2, 4752, Note_on_c, 0, 62, 93
2, 4776, Note_off_c, 0, 62, 0
2, 4776, Note_on_c, 0, 60, 93
2, 4800, Note_off_c, 0, 60, 0
2, 4800, Note_on_c, 0, 58, 93
2, 4872, Note_off_c, 0, 58, 0
2, 4872, Note_on_c, 0, 55, 93
2, 4896, Note_off_c, 0, 55, 0
2, 4896, Note_on_c, 0, 56, 93
2, 4968, Note_off_c, 0, 56, 0
2, 4968, Note_on_c, 0, 65, 93
2, 4992, Note_off_c, 0, 65, 0
2, 4992, Note_on_c, 0, 55, 93
2, 5052, Note_off_c, 0, 55, 0
2, 5052, Note_on_c, 0, 56, 93
2, 5064, Note_off_c, 0, 56, 0
2, 5064, Note_on_c, 0, 55, 93
2, 5076, Note_off_c, 0, 55, 0
2, 5076, Note_on_c, 0, 53, 93
2, 5088, Note_off_c, 0, 53, 0
2, 5088, Note_on_c, 0, 55, 93
2, 5160, Note_off_c, 0, 55, 0
2, 5160, Note_on_c, 0, 56, 93
2, 5184, Note_off_c, 0, 56, 0
2, 5184, Note_on_c, 0, 55, 93
2, 5280, Note_off_c, 0, 55, 0
2, 5280, Note_on_c, 0, 53, 93
2, 5352, Note_off_c, 0, 53, 0
2, 5352, Note_on_c, 0, 51, 93
2, 5364, Note_off_c, 0, 51, 0
2, 5364, Note_on_c, 0, 50, 93
2, 5376, Note_off_c, 0, 50, 0
2, 5376, Note_on_c, 0, 51, 93
2, 5472, Note_off_c, 0, 51, 0
2, 5760, Note_on_c, 0, 62, 93
2, 5880, Note_off_c, 0, 62, 0
2, 5880, Note_on_c, 0, 51, 93
2, 5904, Note_off_c, 0, 51, 0
2, 5904, Note_on_c, 0, 50, 93
2, 5928, Note_off_c, 0, 50, 0
2, 5928, Note_on_c, 0, 48, 93
2, 5952, Note_off_c, 0, 48, 0
2, 5952, Note_on_c, 0, 46, 93
2, 6024, Note_off_c, 0, 46, 0
2, 6024, Note_on_c, 0, 48, 93
2, 6048, Note_off_c, 0, 48, 0
2, 6048, Note_on_c, 0, 50, 93
2, 6072, Note_off_c, 0, 50, 0
2, 6072, Note_on_c, 0, 52, 93
2, 6096, Note_off_c, 0, 52, 0
2, 6096, Note_on_c, 0, 54, 93
2, 6120, Note_off_c, 0, 54, 0
2, 6120, Note_on_c, 0, 55, 93
2, 6144, Note_off_c, 0, 55, 0
2, 6144, Note_on_c, 0, 57, 93
2, 6168, Note_off_c, 0, 57, 0
2, 6168, Note_on_c, 0, 55, 93
2, 6192, Note_off_c, 0, 55, 0
2, 6192, Note_on_c, 0, 54, 93
2, 6216, Note_off_c, 0, 54, 0
2, 6216, Note_on_c, 0, 55, 93
2, 6240, Note_off_c, 0, 55, 0
2, 6240, Note_on_c, 0, 57, 93
2, 6264, Note_off_c, 0, 57, 0
2, 6264, Note_on_c, 0, 58, 93
2, 6288, Note_off_c, 0, 58, 0
2, 6288, Note_on_c, 0, 60, 93
2, 6312, Note_off_c, 0, 60, 0
2, 6312, Note_on_c, 0, 62, 93
2, 6336, Note_off_c, 0, 62, 0
2, 6336, Note_on_c, 0, 63, 93
2, 6408, Note_off_c, 0, 63, 0
2, 6408, Note_on_c, 0, 62, 93
2, 6420, Note_off_c, 0, 62, 0
2, 6420, Note_on_c, 0, 60, 93
2, 6432, Note_off_c, 0, 60, 0
2, 6432, Note_on_c, 0, 62, 93
2, 6504, Note_off_c, 0, 62, 0
2, 6504, Note_on_c, 0, 54, 93
2, 6528, Note_off_c, 0, 54, 0
2, 6528, Note_on_c, 0, 55, 93
2, 6624, Note_off_c, 0, 55, 0
2, 6720, Note_on_c, 0, 50, 93
2, 6912, Note_off_c, 0, 50, 0
2, 7272, Note_on_c, 0, 60, 93
2, 7296, Note_off_c, 0, 60, 0
2, 7296, Note_on_c, 0, 60, 93
2, 7416, Note_off_c, 0, 60, 0
2, 7416, Note_on_c, 0, 58, 93
2, 7440, Note_off_c, 0, 58, 0
2, 7440, Note_on_c, 0, 56, 93
2, 7464, Note_off_c, 0, 56, 0
2, 7464, Note_on_c, 0, 55, 93
2, 7488, Note_off_c, 0, 55, 0
2, 7488, Note_on_c, 0, 56, 93
2, 7560, Note_off_c, 0, 56, 0
2, 7560, Note_on_c, 0, 53, 93
2, 7584, Note_off_c, 0, 53, 0
2, 7584, Note_on_c, 0, 55, 93
2, 7656, Note_off_c, 0, 55, 0
2, 7656, Note_on_c, 0, 50, 93
2, 7680, Note_off_c, 0, 50, 0
2, 7680, Note_on_c, 0, 51, 93
2, 7776, Note_off_c, 0, 51, 0
2, 8064, Note_on_c, 0, 43, 93
2, 8112, Note_off_c, 0, 43, 0
2, 8832, Note_on_c, 0, 36, 93
2, 8880, Note_off_c, 0, 36, 0
2, 9216, Note_on_c, 0, 51, 93
2, 9312, Note_off_c, 0, 51, 0
2, 9600, Note_on_c, 0, 51, 93
2, 9696, Note_off_c, 0, 51, 0
2, 9984, Note_on_c, 0, 48, 93
2, 10080, Note_off_c, 0, 48, 0
2, 10368, Note_on_c, 0, 48, 93
2, 10464, Note_off_c, 0, 48, 0
2, 11136, Note_on_c, 0, 56, 93
2, 11256, Note_off_c, 0, 56, 0
2, 11256, Note_on_c, 0, 55, 93
2, 11280, Note_off_c, 0, 55, 0
2, 11280, Note_on_c, 0, 56, 93
2, 11304, Note_off_c, 0, 56, 0
2, 11304, Note_on_c, 0, 53, 93
2, 11328, Note_off_c, 0, 53, 0
2, 11328, Note_on_c, 0, 62, 93
2, 11448, Note_off_c, 0, 62, 0
2, 11448, Note_on_c, 0, 60, 93
2, 11472, Note_off_c, 0, 60, 0
2, 11472, Note_on_c, 0, 62, 93
2, 11496, Note_off_c, 0, 62, 0
2, 11496, Note_on_c, 0, 58, 93
2, 11520, Note_off_c, 0, 58, 0
2, 11520, Note_on_c, 0, 65, 93
2, 11640, Note_off_c, 0, 65, 0
2, 11640, Note_on_c, 0, 63, 93
2, 11664, Note_off_c, 0, 63, 0
2, 11664, Note_on_c, 0, 62, 93
2, 11688, Note_off_c, 0, 62, 0
2, 11688, Note_on_c, 0, 60, 93
2, 11712, Note_off_c, 0, 60, 0
2, 11712, Note_on_c, 0, 58, 93
2, 11784, Note_off_c, 0, 58, 0
2, 11784, Note_on_c, 0, 55, 93
2, 11808, Note_off_c, 0, 55, 0
2, 11808, Note_on_c, 0, 56, 93
2, 11880, Note_off_c, 0, 56, 0
2, 11880, Note_on_c, 0, 65, 93
2, 11904, Note_off_c, 0, 65, 0
2, 11904, Note_on_c, 0, 55, 93
2, 11964, Note_off_c, 0, 55, 0
2, 11964, Note_on_c, 0, 56, 93
2, 11976, Note_off_c, 0, 56, 0
2, 11976, Note_on_c, 0, 55, 93
2, 11988, Note_off_c, 0, 55, 0
2, 11988, Note_on_c, 0, 53, 93
2, 12000, Note_off_c, 0, 53, 0
2, 12000, Note_on_c, 0, 55, 93
2, 12072, Note_off_c, 0, 55, 0
2, 12072, Note_on_c, 0, 56, 93
2, 12096, Note_off_c, 0, 56, 0
2, 12096, Note_on_c, 0, 55, 93
2, 12192, Note_off_c, 0, 55, 0
2, 12192, Note_on_c, 0, 53, 93
2, 12264, Note_off_c, 0, 53, 0
2, 12264, Note_on_c, 0, 51, 93
2, 12276, Note_off_c, 0, 51, 0
2, 12276, Note_on_c, 0, 50, 93
2, 12288, Note_off_c, 0, 50, 0
2, 12288, Note_on_c, 0, 51, 93
2, 12384, Note_off_c, 0, 51, 0
2, 12672, Note_on_c, 0, 62, 93
2, 12792, Note_off_c, 0, 62, 0
2, 12792, Note_on_c, 0, 51, 93
2, 12816, Note_off_c, 0, 51, 0
2, 12816, Note_on_c, 0, 50, 93
2, 12840, Note_off_c, 0, 50, 0
2, 12840, Note_on_c, 0, 48, 93
2, 12864, Note_off_c, 0, 48, 0
2, 12864, Note_on_c, 0, 46, 93
2, 12936, Note_off_c, 0, 46, 0
2, 12936, Note_on_c, 0, 48, 93
2, 12960, Note_off_c, 0, 48, 0
2, 12960, Note_on_c, 0, 50, 93
2, 12984, Note_off_c, 0, 50, 0
2, 12984, Note_on_c, 0, 52, 93
2, 13008, Note_off_c, 0, 52, 0
2, 13008, Note_on_c, 0, 54, 93
2, 13032, Note_off_c, 0, 54, 0
2, 13032, Note_on_c, 0, 55, 93
2, 13056, Note_off_c, 0, 55, 0
2, 13056, Note_on_c, 0, 57, 93
2, 13080, Note_off_c, 0, 57, 0
2, 13080, Note_on_c, 0, 55, 93
2, 13104, Note_off_c, 0, 55, 0
2, 13104, Note_on_c, 0, 54, 93
2, 13128, Note_off_c, 0, 54, 0
2, 13128, Note_on_c, 0, 55, 93
2, 13152, Note_off_c, 0, 55, 0
2, 13152, Note_on_c, 0, 57, 93
2, 13176, Note_off_c, 0, 57, 0
2, 13176, Note_on_c, 0, 58, 93
2, 13200, Note_off_c, 0, 58, 0
2, 13200, Note_on_c, 0, 60, 93
2, 13224, Note_off_c, 0, 60, 0
2, 13224, Note_on_c, 0, 62, 93
2, 13248, Note_off_c, 0, 62, 0
2, 13248, Note_on_c, 0, 63, 93
2, 13320, Note_off_c, 0, 63, 0
2, 13320, Note_on_c, 0, 62, 93
2, 13332, Note_off_c, 0, 62, 0
2, 13332, Note_on_c, 0, 60, 93
2, 13344, Note_off_c, 0, 60, 0
2, 13344, Note_on_c, 0, 62, 93
2, 13416, Note_off_c, 0, 62, 0
2, 13416, Note_on_c, 0, 54, 93
2, 13440, Note_off_c, 0, 54, 0
2, 13440, Note_on_c, 0, 55, 93
2, 13536, Note_off_c, 0, 55, 0
2, 13632, Note_on_c, 0, 50, 93
2, 13824, Note_off_c, 0, 50, 0
2, 14184, Note_on_c, 0, 62, 93
2, 14208, Note_off_c, 0, 62, 0
2, 14208, Note_on_c, 0, 62, 93
2, 14328, Note_off_c, 0, 62, 0
2, 14328, Note_on_c, 0, 60, 93
2, 14352, Note_off_c, 0, 60, 0
2, 14352, Note_on_c, 0, 62, 93
2, 14376, Note_off_c, 0, 62, 0
2, 14376, Note_on_c, 0, 63, 93
2, 14400, Note_off_c, 0, 63, 0
2, 14400, Note_on_c, 0, 59, 93
2, 14472, Note_off_c, 0, 59, 0
2, 14472, Note_on_c, 0, 56, 93
2, 14496, Note_off_c, 0, 56, 0
2, 14496, Note_on_c, 0, 55, 93
2, 14568, Note_off_c, 0, 55, 0
2, 14568, Note_on_c, 0, 53, 93
2, 14592, Note_off_c, 0, 53, 0
2, 14592, Note_on_c, 0, 51, 93
2, 14664, Note_off_c, 0, 51, 0
2, 14664, Note_on_c, 0, 55, 93
2, 14688, Note_off_c, 0, 55, 0
2, 14688, Note_on_c, 0, 60, 93
2, 14712, Note_off_c, 0, 60, 0
2, 14712, Note_on_c, 0, 50, 93
2, 14736, Note_off_c, 0, 50, 0
2, 14736, Note_on_c, 0, 51, 93
2, 14760, Note_off_c, 0, 51, 0
2, 14760, Note_on_c, 0, 53, 93
2, 14784, Note_off_c, 0, 53, 0
2, 14784, Note_on_c, 0, 47, 93
2, 14856, Note_off_c, 0, 47, 0
2, 14856, Note_on_c, 0, 55, 93
2, 14880, Note_off_c, 0, 55, 0
2, 14880, Note_on_c, 0, 62, 93
2, 14952, Note_off_c, 0, 62, 0
2, 14952, Note_on_c, 0, 63, 93
2, 14964, Note_off_c, 0, 63, 0
2, 14964, Note_on_c, 0, 65, 93
2, 14976, Note_off_c, 0, 65, 0
2, 14976, Note_on_c, 0, 63, 93
2, 15072, Note_off_c, 0, 63, 0
2, 15072, Note_on_c, 0, 36, 93
2, 15144, Note_off_c, 0, 36, 0
2, 15144, Note_on_c, 0, 62, 93
2, 15168, Note_off_c, 0, 62, 0
2, 15168, Note_on_c, 0, 60, 93
2, 15240, Note_off_c, 0, 60, 0
2, 15240, Note_on_c, 0, 58, 93
2, 15252, Note_off_c, 0, 58, 0
2, 15252, Note_on_c, 0, 57, 93
2, 15264, Note_off_c, 0, 57, 0
2, 15264, Note_on_c, 0, 58, 93
2, 15336, Note_off_c, 0, 58, 0
2, 15336, Note_on_c, 0, 60, 93
2, 15360, Note_off_c, 0, 60, 0
2, 15360, Note_on_c, 0, 57, 93
2, 15480, Note_off_c, 0, 57, 0
2, 15480, Note_on_c, 0, 57, 93
2, 15504, Note_off_c, 0, 57, 0
2, 15504, Note_on_c, 0, 58, 93
2, 15528, Note_off_c, 0, 58, 0
2, 15528, Note_on_c, 0, 60, 93
2, 15552, Note_off_c, 0, 60, 0
2, 15552, Note_on_c, 0, 53, 93
2, 15624, Note_off_c, 0, 53, 0
2, 15624, Note_on_c, 0, 55, 93
2, 15636, Note_off_c, 0, 55, 0
2, 15636, Note_on_c, 0, 57, 93
2, 15648, Note_off_c, 0, 57, 0
2, 15648, Note_on_c, 0, 57, 93
2, 15720, Note_off_c, 0, 57, 0
2, 15720, Note_on_c, 0, 55, 93
2, 15732, Note_off_c, 0, 55, 0
2, 15732, Note_on_c, 0, 57, 93
2, 15744, Note_off_c, 0, 57, 0
2, 15744, Note_on_c, 0, 58, 93
2, 15840, Note_off_c, 0, 58, 0
2, 15840, Note_on_c, 0, 38, 93
2, 15864, Note_off_c, 0, 38, 0
2, 15864, Note_on_c, 0, 58, 93
2, 15888, Note_off_c, 0, 58, 0
2, 15888, Note_on_c, 0, 56, 93
2, 15912, Note_off_c, 0, 56, 0
2, 15912, Note_on_c, 0, 55, 93
2, 15936, Note_off_c, 0, 55, 0
2, 15936, Note_on_c, 0, 53, 93
2, 16008, Note_off_c, 0, 53, 0
2, 16008, Note_on_c, 0, 51, 93
2, 16032, Note_off_c, 0, 51, 0
2, 16032, Note_on_c, 0, 53, 93
2, 16104, Note_off_c, 0, 53, 0
2, 16104, Note_on_c, 0, 55, 93
2, 16128, Note_off_c, 0, 55, 0
2, 16128, Note_on_c, 0, 56, 93
2, 16224, Note_off_c, 0, 56, 0
2, 16320, Note_on_c, 0, 56, 93
2, 16416, Note_off_c, 0, 56, 0
2, 16512, Note_on_c, 0, 46, 93
2, 16608, Note_off_c, 0, 46, 0
2, 16704, Note_on_c, 0, 51, 93
2, 16752, Note_off_c, 0, 51, 0
2, 17280, Note_on_c, 0, 46, 93
2, 17400, Note_off_c, 0, 46, 0
2, 17400, Note_on_c, 0, 46, 93
2, 17424, Note_off_c, 0, 46, 0
2, 17424, Note_on_c, 0, 44, 93
2, 17448, Note_off_c, 0, 44, 0
2, 17448, Note_on_c, 0, 43, 93
2, 17472, Note_off_c, 0, 43, 0
2, 17472, Note_on_c, 0, 44, 93
2, 17544, Note_off_c, 0, 44, 0
2, 17544, Note_on_c, 0, 53, 93
2, 17568, Note_off_c, 0, 53, 0
2, 17568, Note_on_c, 0, 55, 93
2, 17640, Note_off_c, 0, 55, 0
2, 17640, Note_on_c, 0, 56, 93
2, 17664, Note_off_c, 0, 56, 0
2, 17664, Note_on_c, 0, 52, 93
2, 17736, Note_off_c, 0, 52, 0
2, 17736, Note_on_c, 0, 58, 93
2, 17760, Note_off_c, 0, 58, 0
2, 17760, Note_on_c, 0, 56, 93
2, 17808, Note_off_c, 0, 56, 0
2, 17808, Note_on_c, 0, 58, 93
2, 17832, Note_off_c, 0, 58, 0
2, 17832, Note_on_c, 0, 55, 93
2, 17856, Note_off_c, 0, 55, 0
2, 17856, Note_on_c, 0, 55, 93
2, 18000, Note_off_c, 0, 55, 0
2, 18000, Note_on_c, 0, 53, 93
2, 18048, Note_off_c, 0, 53, 0
2, 18048, Note_on_c, 0, 53, 93
2, 18168, Note_off_c, 0, 53, 0
2, 18168, Note_on_c, 0, 53, 93
2, 18192, Note_off_c, 0, 53, 0
2, 18192, Note_on_c, 0, 51, 93
2, 18216, Note_off_c, 0, 51, 0
2, 18216, Note_on_c, 0, 50, 93
2, 18240, Note_off_c, 0, 50, 0
2, 18240, Note_on_c, 0, 51, 93
2, 18312, Note_off_c, 0, 51, 0
2, 18312, Note_on_c, 0, 60, 93
2, 18336, Note_off_c, 0, 60, 0
2, 18336, Note_on_c, 0, 58, 93
2, 18360, Note_off_c, 0, 58, 0
2, 18360, Note_on_c, 0, 57, 93
2, 18384, Note_off_c, 0, 57, 0
2, 18384, Note_on_c, 0, 55, 93
2, 18408, Note_off_c, 0, 55, 0
2, 18408, Note_on_c, 0, 53, 93
2, 18432, Note_off_c, 0, 53, 0
2, 18432, Note_on_c, 0, 58, 93
2, 18504, Note_off_c, 0, 58, 0
2, 18504, Note_on_c, 0, 56, 93
2, 18516, Note_off_c, 0, 56, 0
2, 18516, Note_on_c, 0, 55, 93
2, 18528, Note_off_c, 0, 55, 0
2, 18528, Note_on_c, 0, 53, 93
2, 18600, Note_off_c, 0, 53, 0
2, 18600, Note_on_c, 0, 55, 93
2, 18624, Note_off_c, 0, 55, 0
2, 18624, Note_on_c, 0, 56, 93
2, 18696, Note_off_c, 0, 56, 0
2, 18696, Note_on_c, 0, 55, 93
2, 18720, Note_off_c, 0, 55, 0
2, 18720, Note_on_c, 0, 53, 93
2, 18744, Note_off_c, 0, 53, 0
2, 18744, Note_on_c, 0, 51, 93
2, 18768, Note_off_c, 0, 51, 0
2, 18768, Note_on_c, 0, 50, 93
2, 18792, Note_off_c, 0, 50, 0
2, 18792, Note_on_c, 0, 51, 93
2, 18804, Note_off_c, 0, 51, 0
2, 18804, Note_on_c, 0, 53, 93
2, 18816, Note_off_c, 0, 53, 0
2, 18816, Note_on_c, 0, 47, 93
2, 18888, Note_off_c, 0, 47, 0
2, 18888, Note_on_c, 0, 55, 93
2, 18912, Note_off_c, 0, 55, 0
2, 18912, Note_on_c, 0, 62, 93
2, 18960, Note_off_c, 0, 62, 0
2, 18960, Note_on_c, 0, 63, 93
2, 18972, Note_off_c, 0, 63, 0
2, 18972, Note_on_c, 0, 62, 93
2, 18984, Note_off_c, 0, 62, 0
2, 18984, Note_on_c, 0, 60, 93
2, 18996, Note_off_c, 0, 60, 0
2, 18996, Note_on_c, 0, 62, 93
2, 19008, Note_off_c, 0, 62, 0
2, 19008, Note_on_c, 0, 63, 93
2, 19080, Note_off_c, 0, 63, 0
2, 19080, Note_on_c, 0, 48, 93
2, 19104, Note_off_c, 0, 48, 0
2, 19104, Note_on_c, 0, 43, 93
2, 19176, Note_off_c, 0, 43, 0
2, 19176, Note_on_c, 0, 44, 93
2, 19188, Note_off_c, 0, 44, 0
2, 19188, Note_on_c, 0, 46, 93
2, 19200, Note_off_c, 0, 46, 0
2, 19200, Note_on_c, 0, 44, 93
2, 19272, Note_off_c, 0, 44, 0
2, 19272, Note_on_c, 0, 55, 93
2, 19296, Note_off_c, 0, 55, 0
2, 19296, Note_on_c, 0, 53, 93
2, 19368, Note_off_c, 0, 53, 0
2, 19368, Note_on_c, 0, 63, 93
2, 19392, Note_off_c, 0, 63, 0
2, 19392, Note_on_c, 0, 62, 93
2, 19464, Note_off_c, 0, 62, 0
2, 19464, Note_on_c, 0, 60, 93
2, 19488, Note_off_c, 0, 60, 0
2, 19488, Note_on_c, 0, 62, 93
2, 19512, Note_off_c, 0, 62, 0
2, 19512, Note_on_c, 0, 59, 93
2, 19536, Note_off_c, 0, 59, 0
2, 19536, Note_on_c, 0, 60, 93
2, 19584, Note_off_c, 0, 60, 0
2, 19584, Note_on_c, 0, 59, 93
2, 19632, Note_off_c, 0, 59, 0
2, 20544, Note_on_c, 0, 50, 93
2, 20736, Note_off_c, 0, 50, 0
2, 21096, Note_on_c, 0, 62, 93
2, 21120, Note_off_c, 0, 62, 0
2, 21120, Note_on_c, 0, 62, 93
2, 21240, Note_off_c, 0, 62, 0
2, 21240, Note_on_c, 0, 60, 93
2, 21264, Note_off_c, 0, 60, 0
2, 21264, Note_on_c, 0, 62, 93
2, 21288, Note_off_c, 0, 62, 0
2, 21288, Note_on_c, 0, 63, 93
2, 21312, Note_off_c, 0, 63, 0
2, 21312, Note_on_c, 0, 59, 93
2, 21384, Note_off_c, 0, 59, 0
2, 21384, Note_on_c, 0, 56, 93
2, 21408, Note_off_c, 0, 56, 0
2, 21408, Note_on_c, 0, 55, 93
2, 21480, Note_off_c, 0, 55, 0
2, 21480, Note_on_c, 0, 53, 93
2, 21504, Note_off_c, 0, 53, 0
2, 21504, Note_on_c, 0, 51, 93
2, 21576, Note_off_c, 0, 51, 0
2, 21576, Note_on_c, 0, 55, 93
2, 21600, Note_off_c, 0, 55, 0
2, 21600, Note_on_c, 0, 60, 93
2, 21624, Note_off_c, 0, 60, 0
2, 21624, Note_on_c, 0, 50, 93
2, 21648, Note_off_c, 0, 50, 0
2, 21648, Note_on_c, 0, 51, 93
2, 21672, Note_off_c, 0, 51, 0
2, 21672, Note_on_c, 0, 53, 93
2, 21696, Note_off_c, 0, 53, 0
2, 21696, Note_on_c, 0, 47, 93
2, 21768, Note_off_c, 0, 47, 0
2, 21768, Note_on_c, 0, 55, 93
2, 21792, Note_off_c, 0, 55, 0
2, 21792, Note_on_c, 0, 62, 93
2, 21864, Note_off_c, 0, 62, 0
2, 21864, Note_on_c, 0, 63, 93
2, 21876, Note_off_c, 0, 63, 0
2, 21876, Note_on_c, 0, 65, 93
2, 21888, Note_off_c, 0, 65, 0
2, 21888, Note_on_c, 0, 63, 93
2, 21984, Note_off_c, 0, 63, 0
2, 21984, Note_on_c, 0, 36, 93
2, 22056, Note_off_c, 0, 36, 0
2, 22056, Note_on_c, 0, 62, 93
2, 22080, Note_off_c, 0, 62, 0
2, 22080, Note_on_c, 0, 60, 93
2, 22152, Note_off_c, 0, 60, 0
2, 22152, Note_on_c, 0, 58, 93
2, 22164, Note_off_c, 0, 58, 0
2, 22164, Note_on_c, 0, 57, 93
2, 22176, Note_off_c, 0, 57, 0
2, 22176, Note_on_c, 0, 58, 93
2, 22248, Note_off_c, 0, 58, 0
2, 22248, Note_on_c, 0, 60, 93
2, 22272, Note_off_c, 0, 60, 0
2, 22272, Note_on_c, 0, 57, 93
2, 22392, Note_off_c, 0, 57, 0
2, 22392, Note_on_c, 0, 57, 93
2, 22416, Note_off_c, 0, 57, 0
2, 22416, Note_on_c, 0, 58, 93
2, 22440, Note_off_c, 0, 58, 0
2, 22440, Note_on_c, 0, 60, 93
2, 22464, Note_off_c, 0, 60, 0
2, 22464, Note_on_c, 0, 53, 93
2, 22536, Note_off_c, 0, 53, 0
2, 22536, Note_on_c, 0, 55, 93
2, 22548, Note_off_c, 0, 55, 0
2, 22548, Note_on_c, 0, 57, 93
2, 22560, Note_off_c, 0, 57, 0
2, 22560, Note_on_c, 0, 57, 93
2, 22632, Note_off_c, 0, 57, 0
2, 22632, Note_on_c, 0, 55, 93
2, 22644, Note_off_c, 0, 55, 0
2, 22644, Note_on_c, 0, 57, 93
2, 22656, Note_off_c, 0, 57, 0
2, 22656, Note_on_c, 0, 58, 93
2, 22752, Note_off_c, 0, 58, 0
2, 22752, Note_on_c, 0, 38, 93
2, 22776, Note_off_c, 0, 38, 0
2, 22776, Note_on_c, 0, 58, 93
2, 22800, Note_off_c, 0, 58, 0
2, 22800, Note_on_c, 0, 56, 93
2, 22824, Note_off_c, 0, 56, 0
2, 22824, Note_on_c, 0, 55, 93
2, 22848, Note_off_c, 0, 55, 0
2, 22848, Note_on_c, 0, 53, 93
2, 22920, Note_off_c, 0, 53, 0
2, 22920, Note_on_c, 0, 51, 93
2, 22944, Note_off_c, 0, 51, 0
2, 22944, Note_on_c, 0, 53, 93
2, 23016, Note_off_c, 0, 53, 0
2, 23016, Note_on_c, 0, 55, 93
2, 23040, Note_off_c, 0, 55, 0
2, 23040, Note_on_c, 0, 56, 93
2, 23136, Note_off_c, 0, 56, 0
2, 23232, Note_on_c, 0, 56, 93
2, 23328, Note_off_c, 0, 56, 0
2, 23424, Note_on_c, 0, 46, 93
2, 23520, Note_off_c, 0, 46, 0
2, 23616, Note_on_c, 0, 51, 93
2, 23664, Note_off_c, 0, 51, 0
2, 24192, Note_on_c, 0, 46, 93
2, 24312, Note_off_c, 0, 46, 0
2, 24312, Note_on_c, 0, 46, 93
2, 24336, Note_off_c, 0, 46, 0
2, 24336, Note_on_c, 0, 44, 93
2, 24360, Note_off_c, 0, 44, 0
2, 24360, Note_on_c, 0, 43, 93
2, 24384, Note_off_c, 0, 43, 0
2, 24384, Note_on_c, 0, 44, 93
2, 24456, Note_off_c, 0, 44, 0
2, 24456, Note_on_c, 0, 53, 93
2, 24480, Note_off_c, 0, 53, 0
2, 24480, Note_on_c, 0, 55, 93
2, 24552, Note_off_c, 0, 55, 0
2, 24552, Note_on_c, 0, 56, 93
2, 24576, Note_off_c, 0, 56, 0
2, 24576, Note_on_c, 0, 52, 93
2, 24648, Note_off_c, 0, 52, 0
2, 24648, Note_on_c, 0, 58, 93
2, 24672, Note_off_c, 0, 58, 0
2, 24672, Note_on_c, 0, 56, 93
2, 24720, Note_off_c, 0, 56, 0
2, 24720, Note_on_c, 0, 58, 93
2, 24744, Note_off_c, 0, 58, 0
2, 24744, Note_on_c, 0, 55, 93
2, 24768, Note_off_c, 0, 55, 0
2, 24768, Note_on_c, 0, 55, 93
2, 24912, Note_off_c, 0, 55, 0
2, 24912, Note_on_c, 0, 53, 93
2, 24960, Note_off_c, 0, 53, 0
2, 24960, Note_on_c, 0, 53, 93
2, 25080, Note_off_c, 0, 53, 0
2, 25080, Note_on_c, 0, 53, 93
2, 25104, Note_off_c, 0, 53, 0
2, 25104, Note_on_c, 0, 51, 93
2, 25128, Note_off_c, 0, 51, 0
2, 25128, Note_on_c, 0, 50, 93
2, 25152, Note_off_c, 0, 50, 0
2, 25152, Note_on_c, 0, 51, 93
2, 25224, Note_off_c, 0, 51, 0
2, 25224, Note_on_c, 0, 60, 93
2, 25248, Note_off_c, 0, 60, 0
2, 25248, Note_on_c, 0, 58, 93
2, 25272, Note_off_c, 0, 58, 0
2, 25272, Note_on_c, 0, 57, 93
2, 25296, Note_off_c, 0, 57, 0
2, 25296, Note_on_c, 0, 55, 93
2, 25320, Note_off_c, 0, 55, 0
2, 25320, Note_on_c, 0, 53, 93
2, 25344, Note_off_c, 0, 53, 0
2, 25344, Note_on_c, 0, 58, 93
2, 25416, Note_off_c, 0, 58, 0
2, 25416, Note_on_c, 0, 56, 93
2, 25428, Note_off_c, 0, 56, 0
2, 25428, Note_on_c, 0, 55, 93
2, 25440, Note_off_c, 0, 55, 0
2, 25440, Note_on_c, 0, 53, 93
2, 25512, Note_off_c, 0, 53, 0
2, 25512, Note_on_c, 0, 55, 93
2, 25536, Note_off_c, 0, 55, 0
2, 25536, Note_on_c, 0, 56, 93
2, 25608, Note_off_c, 0, 56, 0
2, 25608, Note_on_c, 0, 55, 93
2, 25632, Note_off_c, 0, 55, 0
2, 25632, Note_on_c, 0, 53, 93
2, 25656, Note_off_c, 0, 53, 0
2, 25656, Note_on_c, 0, 51, 93
2, 25680, Note_off_c, 0, 51, 0
2, 25680, Note_on_c, 0, 50, 93
2, 25704, Note_off_c, 0, 50, 0
2, 25704, Note_on_c, 0, 51, 93
2, 25716, Note_off_c, 0, 51, 0
2, 25716, Note_on_c, 0, 53, 93
2, 25728, Note_off_c, 0, 53, 0
2, 25728, Note_on_c, 0, 47, 93
2, 25800, Note_off_c, 0, 47, 0
2, 25800, Note_on_c, 0, 55, 93
2, 25824, Note_off_c, 0, 55, 0
2, 25824, Note_on_c, 0, 62, 93
2, 25872, Note_off_c, 0, 62, 0
2, 25872, Note_on_c, 0, 63, 93
2, 25884, Note_off_c, 0, 63, 0
2, 25884, Note_on_c, 0, 62, 93
2, 25896, Note_off_c, 0, 62, 0
2, 25896, Note_on_c, 0, 60, 93
2, 25908, Note_off_c, 0, 60, 0
2, 25908, Note_on_c, 0, 62, 93
2, 25920, Note_off_c, 0, 62, 0
2, 25920, Note_on_c, 0, 63, 93
2, 25992, Note_off_c, 0, 63, 0
2, 25992, Note_on_c, 0, 48, 93
2, 26016, Note_off_c, 0, 48, 0
2, 26016, Note_on_c, 0, 43, 93
2, 26088, Note_off_c, 0, 43, 0
2, 26088, Note_on_c, 0, 44, 93
2, 26100, Note_off_c, 0, 44, 0
2, 26100, Note_on_c, 0, 46, 93
2, 26112, Note_off_c, 0, 46, 0
2, 26112, Note_on_c, 0, 44, 93
2, 26184, Note_off_c, 0, 44, 0
2, 26184, Note_on_c, 0, 55, 93
2, 26208, Note_off_c, 0, 55, 0
2, 26208, Note_on_c, 0, 53, 93
2, 26280, Note_off_c, 0, 53, 0
2, 26280, Note_on_c, 0, 63, 93
2, 26304, Note_off_c, 0, 63, 0
2, 26304, Note_on_c, 0, 62, 93
2, 26376, Note_off_c, 0, 62, 0
2, 26376, Note_on_c, 0, 60, 93
2, 26400, Note_off_c, 0, 60, 0
2, 26400, Note_on_c, 0, 62, 93
2, 26424, Note_off_c, 0, 62, 0
2, 26424, Note_on_c, 0, 59, 93
2, 26448, Note_off_c, 0, 59, 0
2, 26448, Note_on_c, 0, 60, 93
2, 26496, Note_off_c, 0, 60, 0
2, 26496, Note_on_c, 0, 59, 93
2, 26544, Note_off_c, 0, 59, 0
2, 27456, Note_on_c, 0, 50, 93
2, 27648, Note_off_c, 0, 50, 0
2, 27648, End_track
3, 0, Start_track
3, 0, Title_t, "Track3"
3, 0, Program_c, 1, 42
3, 0, Control_c, 1, 7, 100
3, 0, Control_c, 1, 10, 69
3, 384, Note_on_c, 1, 36, 93
3, 480, Note_off_c, 1, 36, 0
3, 672, Note_on_c, 1, 47, 93
3, 768, Note_off_c, 1, 47, 0
3, 768, Note_on_c, 1, 48, 93
3, 888, Note_off_c, 1, 48, 0
3, 888, Note_on_c, 1, 46, 93
3, 912, Note_off_c, 1, 46, 0
3, 912, Note_on_c, 1, 44, 93
3, 936, Note_off_c, 1, 44, 0
3, 936, Note_on_c, 1, 43, 93
3, 960, Note_off_c, 1, 43, 0
3, 960, Note_on_c, 1, 44, 93
3, 1032, Note_off_c, 1, 44, 0
3, 1032, Note_on_c, 1, 41, 93
3, 1056, Note_off_c, 1, 41, 0
3, 1056, Note_on_c, 1, 43, 93
3, 1128, Note_off_c, 1, 43, 0
3, 1128, Note_on_c, 1, 50, 93
3, 1152, Note_off_c, 1, 50, 0
3, 1152, Note_on_c, 1, 50, 93
3, 1224, Note_off_c, 1, 50, 0
3, 1224, Note_on_c, 1, 48, 93
3, 1236, Note_off_c, 1, 48, 0
3, 1236, Note_on_c, 1, 47, 93
3, 1248, Note_off_c, 1, 47, 0
3, 1248, Note_on_c, 1, 48, 93
3, 1320, Note_off_c, 1, 48, 0
3, 1320, Note_on_c, 1, 55, 93
3, 1344, Note_off_c, 1, 55, 0
3, 1344, Note_on_c, 1, 44, 93
3, 1416, Note_off_c, 1, 44, 0
3, 1416, Note_on_c, 1, 55, 93
3, 1440, Note_off_c, 1, 55, 0
3, 1440, Note_on_c, 1, 53, 93
3, 1464, Note_off_c, 1, 53, 0
3, 1464, Note_on_c, 1, 51, 93
3, 1488, Note_off_c, 1, 51, 0
3, 1488, Note_on_c, 1, 50, 93
3, 1512, Note_off_c, 1, 50, 0
3, 1512, Note_on_c, 1, 48, 93
3, 1536, Note_off_c, 1, 48, 0
3, 1536, Note_on_c, 1, 47, 93
3, 1608, Note_off_c, 1, 47, 0
3, 1608, Note_on_c, 1, 44, 93
3, 1632, Note_off_c, 1, 44, 0
3, 1632, Note_on_c, 1, 43, 93
3, 1656, Note_off_c, 1, 43, 0
3, 1656, Note_on_c, 1, 47, 93
3, 1680, Note_off_c, 1, 47, 0
3, 1680, Note_on_c, 1, 50, 93
3, 1704, Note_off_c, 1, 50, 0
3, 1704, Note_on_c, 1, 53, 93
3, 1728, Note_off_c, 1, 53, 0
3, 1728, Note_on_c, 1, 56, 93
3, 1800, Note_off_c, 1, 56, 0
3, 1800, Note_on_c, 1, 55, 93
3, 1824, Note_off_c, 1, 55, 0
3, 1824, Note_on_c, 1, 53, 93
3, 1848, Note_off_c, 1, 53, 0
3, 1848, Note_on_c, 1, 51, 93
3, 1872, Note_off_c, 1, 51, 0
3, 1872, Note_on_c, 1, 53, 93
3, 1896, Note_off_c, 1, 53, 0
3, 1896, Note_on_c, 1, 50, 93
3, 1920, Note_off_c, 1, 50, 0
3, 1920, Note_on_c, 1, 51, 93
3, 1992, Note_off_c, 1, 51, 0
3, 1992, Note_on_c, 1, 50, 93
3, 2016, Note_off_c, 1, 50, 0
3, 2016, Note_on_c, 1, 48, 93
3, 2040, Note_off_c, 1, 48, 0
3, 2040, Note_on_c, 1, 47, 93
3, 2064, Note_off_c, 1, 47, 0
3, 2064, Note_on_c, 1, 48, 93
3, 2088, Note_off_c, 1, 48, 0
3, 2088, Note_on_c, 1, 50, 93
3, 2112, Note_off_c, 1, 50, 0
3, 2112, Note_on_c, 1, 51, 93
3, 2136, Note_off_c, 1, 51, 0
3, 2136, Note_on_c, 1, 50, 93
3, 2160, Note_off_c, 1, 50, 0
3, 2160, Note_on_c, 1, 51, 93
3, 2184, Note_off_c, 1, 51, 0
3, 2184, Note_on_c, 1, 53, 93
3, 2208, Note_off_c, 1, 53, 0
3, 2208, Note_on_c, 1, 55, 93
3, 2232, Note_off_c, 1, 55, 0
3, 2232, Note_on_c, 1, 53, 93
3, 2256, Note_off_c, 1, 53, 0
3, 2256, Note_on_c, 1, 55, 93
3, 2280, Note_off_c, 1, 55, 0
3, 2280, Note_on_c, 1, 56, 93
3, 2304, Note_off_c, 1, 56, 0
3, 2304, Note_on_c, 1, 58, 93
3, 2424, Note_off_c, 1, 58, 0
3, 2424, Note_on_c, 1, 56, 93
3, 2448, Note_off_c, 1, 56, 0
3, 2448, Note_on_c, 1, 55, 93
3, 2472, Note_off_c, 1, 55, 0
3, 2472, Note_on_c, 1, 53, 93
3, 2496, Note_off_c, 1, 53, 0
3, 2496, Note_on_c, 1, 55, 93
3, 2568, Note_off_c, 1, 55, 0
3, 2568, Note_on_c, 1, 53, 93
3, 2580, Note_off_c, 1, 53, 0
3, 2580, Note_on_c, 1, 51, 93
3, 2592, Note_off_c, 1, 51, 0
3, 2592, Note_on_c, 1, 61, 93
3, 2664, Note_off_c, 1, 61, 0
3, 2664, Note_on_c, 1, 58, 93
3, 2688, Note_off_c, 1, 58, 0
3, 2688, Note_on_c, 1, 60, 93
3, 2808, Note_off_c, 1, 60, 0
3, 2808, Note_on_c, 1, 58, 93
3, 2832, Note_off_c, 1, 58, 0
3, 2832, Note_on_c, 1, 56, 93
3, 2856, Note_off_c, 1, 56, 0
3, 2856, Note_on_c, 1, 55, 93
3, 2880, Note_off_c, 1, 55, 0
3, 2880, Note_on_c, 1, 56, 93
3, 2952, Note_off_c, 1, 56, 0
3, 2952, Note_on_c, 1, 60, 93
3, 2976, Note_off_c, 1, 60, 0
3, 2976, Note_on_c, 1, 52, 93
3, 3048, Note_off_c, 1, 52, 0
3, 3048, Note_on_c, 1, 53, 93
3, 3072, Note_off_c, 1, 53, 0
3, 3072, Note_on_c, 1, 55, 93
3, 3192, Note_off_c, 1, 55, 0
3, 3192, Note_on_c, 1, 53, 93
3, 3216, Note_off_c, 1, 53, 0
3, 3216, Note_on_c, 1, 52, 93
3, 3240, Note_off_c, 1, 52, 0
3, 3240, Note_on_c, 1, 53, 93
3, 3252, Note_off_c, 1, 53, 0
3, 3252, Note_on_c, 1, 55, 93
3, 3264, Note_off_c, 1, 55, 0
3, 3264, Note_on_c, 1, 48, 93
3, 3336, Note_off_c, 1, 48, 0
3, 3336, Note_on_c, 1, 58, 93
3, 3360, Note_off_c, 1, 58, 0
3, 3360, Note_on_c, 1, 56, 93
3, 3432, Note_off_c, 1, 56, 0
3, 3432, Note_on_c, 1, 58, 93
3, 3444, Note_off_c, 1, 58, 0
3, 3444, Note_on_c, 1, 55, 93
3, 3456, Note_off_c, 1, 55, 0
3, 3456, Note_on_c, 1, 56, 93
3, 3600, Note_off_c, 1, 56, 0
3, 3600, Note_on_c, 1, 60, 93
3, 3624, Note_off_c, 1, 60, 0
3, 3624, Note_on_c, 1, 58, 93
3, 3648, Note_off_c, 1, 58, 0
3, 3648, Note_on_c, 1, 56, 93
3, 3672, Note_off_c, 1, 56, 0
3, 3672, Note_on_c, 1, 55, 93
3, 3696, Note_off_c, 1, 55, 0
3, 3696, Note_on_c, 1, 53, 93
3, 3720, Note_off_c, 1, 53, 0
3, 3720, Note_on_c, 1, 51, 93
3, 3744, Note_off_c, 1, 51, 0
3, 3744, Note_on_c, 1, 50, 93
3, 3768, Note_off_c, 1, 50, 0
3, 3768, Note_on_c, 1, 51, 93
3, 3792, Note_off_c, 1, 51, 0
3, 3792, Note_on_c, 1, 53, 93
3, 3816, Note_off_c, 1, 53, 0
3, 3816, Note_on_c, 1, 50, 93
3, 3840, Note_off_c, 1, 50, 0
3, 3840, Note_on_c, 1, 44, 93
3, 3960, Note_off_c, 1, 44, 0
3, 3960, Note_on_c, 1, 53, 93
3, 3984, Note_off_c, 1, 53, 0
3, 3984, Note_on_c, 1, 51, 93
3, 4008, Note_off_c, 1, 51, 0
3, 4008, Note_on_c, 1, 50, 93
3, 4032, Note_off_c, 1, 50, 0
3, 4032, Note_on_c, 1, 48, 93
3, 4056, Note_off_c, 1, 48, 0
3, 4056, Note_on_c, 1, 46, 93
3, 4080, Note_off_c, 1, 46, 0
3, 4080, Note_on_c, 1, 44, 93
3, 4104, Note_off_c, 1, 44, 0
3, 4104, Note_on_c, 1, 43, 93
3, 4128, Note_off_c, 1, 43, 0
3, 4128, Note_on_c, 1, 41, 93
3, 4152, Note_off_c, 1, 41, 0
3, 4152, Note_on_c, 1, 43, 93
3, 4176, Note_off_c, 1, 43, 0
3, 4176, Note_on_c, 1, 44, 93
3, 4200, Note_off_c, 1, 44, 0
3, 4200, Note_on_c, 1, 41, 93
3, 4224, Note_off_c, 1, 41, 0
3, 4224, Note_on_c, 1, 38, 93
3, 4320, Note_off_c, 1, 38, 0
3, 4608, Note_on_c, 1, 56, 93
3, 4704, Note_off_c, 1, 56, 0
3, 4992, Note_on_c, 1, 51, 93
3, 5088, Note_off_c, 1, 51, 0
3, 5184, Note_on_c, 1, 47, 93
3, 5280, Note_off_c, 1, 47, 0
3, 5376, Note_on_c, 1, 48, 93
3, 5472, Note_off_c, 1, 48, 0
3, 5472, Note_on_c, 1, 36, 93
3, 5544, Note_off_c, 1, 36, 0
3, 5544, Note_on_c, 1, 58, 93
3, 5568, Note_off_c, 1, 58, 0
3, 5568, Note_on_c, 1, 57, 93
3, 5664, Note_off_c, 1, 57, 0
3, 5664, Note_on_c, 1, 55, 93
3, 5688, Note_off_c, 1, 55, 0
3, 5688, Note_on_c, 1, 54, 93
3, 5712, Note_off_c, 1, 54, 0
3, 5712, Note_on_c, 1, 55, 93
3, 5760, Note_off_c, 1, 55, 0
3, 5760, Note_on_c, 1, 54, 93
3, 5856, Note_off_c, 1, 54, 0
3, 6528, Note_on_c, 1, 46, 93
3, 6624, Note_off_c, 1, 46, 0
3, 6624, Note_on_c, 1, 48, 93
3, 6648, Note_off_c, 1, 48, 0
3, 6648, Note_on_c, 1, 57, 93
3, 6672, Note_off_c, 1, 57, 0
3, 6672, Note_on_c, 1, 55, 93
3, 6696, Note_off_c, 1, 55, 0
3, 6696, Note_on_c, 1, 57, 93
3, 6720, Note_off_c, 1, 57, 0
3, 6720, Note_on_c, 1, 57, 93
3, 6864, Note_off_c, 1, 57, 0
3, 6864, Note_on_c, 1, 55, 93
3, 6912, Note_off_c, 1, 55, 0
3, 6912, Note_on_c, 1, 55, 93
3, 6984, Note_off_c, 1, 55, 0
3, 6984, Note_on_c, 1, 50, 93
3, 7008, Note_off_c, 1, 50, 0
3, 7008, Note_on_c, 1, 47, 93
3, 7080, Note_off_c, 1, 47, 0
3, 7080, Note_on_c, 1, 50, 93
3, 7104, Note_off_c, 1, 50, 0
3, 7104, Note_on_c, 1, 43, 93
3, 7248, Note_off_c, 1, 43, 0
3, 7296, Note_on_c, 1, 36, 93
3, 7392, Note_off_c, 1, 36, 0
3, 7584, Note_on_c, 1, 47, 93
3, 7680, Note_off_c, 1, 47, 0
3, 7680, Note_on_c, 1, 48, 93
3, 7800, Note_off_c, 1, 48, 0
3, 7800, Note_on_c, 1, 46, 93
3, 7824, Note_off_c, 1, 46, 0
3, 7824, Note_on_c, 1, 44, 93
3, 7848, Note_off_c, 1, 44, 0
3, 7848, Note_on_c, 1, 43, 93
3, 7872, Note_off_c, 1, 43, 0
3, 7872, Note_on_c, 1, 44, 93
3, 7944, Note_off_c, 1, 44, 0
3, 7944, Note_on_c, 1, 41, 93
3, 7968, Note_off_c, 1, 41, 0
3, 7968, Note_on_c, 1, 43, 93
3, 8040, Note_off_c, 1, 43, 0
3, 8040, Note_on_c, 1, 50, 93
3, 8064, Note_off_c, 1, 50, 0
3, 8064, Note_on_c, 1, 50, 93
3, 8136, Note_off_c, 1, 50, 0
3, 8136, Note_on_c, 1, 48, 93
3, 8148, Note_off_c, 1, 48, 0
3, 8148, Note_on_c, 1, 47, 93
3, 8160, Note_off_c, 1, 47, 0
3, 8160, Note_on_c, 1, 48, 93
3, 8232, Note_off_c, 1, 48, 0
3, 8232, Note_on_c, 1, 55, 93
3, 8256, Note_off_c, 1, 55, 0
3, 8256, Note_on_c, 1, 44, 93
3, 8328, Note_off_c, 1, 44, 0
3, 8328, Note_on_c, 1, 55, 93
3, 8352, Note_off_c, 1, 55, 0
3, 8352, Note_on_c, 1, 53, 93
3, 8376, Note_off_c, 1, 53, 0
3, 8376, Note_on_c, 1, 51, 93
3, 8400, Note_off_c, 1, 51, 0
3, 8400, Note_on_c, 1, 50, 93
3, 8424, Note_off_c, 1, 50, 0
3, 8424, Note_on_c, 1, 48, 93
3, 8448, Note_off_c, 1, 48, 0
3, 8448, Note_on_c, 1, 47, 93
3, 8520, Note_off_c, 1, 47, 0
3, 8520, Note_on_c, 1, 44, 93
3, 8544, Note_off_c, 1, 44, 0
3, 8544, Note_on_c, 1, 43, 93
3, 8568, Note_off_c, 1, 43, 0
3, 8568, Note_on_c, 1, 47, 93
3, 8592, Note_off_c, 1, 47, 0
3, 8592, Note_on_c, 1, 50, 93
3, 8616, Note_off_c, 1, 50, 0
3, 8616, Note_on_c, 1, 53, 93
3, 8640, Note_off_c, 1, 53, 0
3, 8640, Note_on_c, 1, 56, 93
3, 8712, Note_off_c, 1, 56, 0
3, 8712, Note_on_c, 1, 55, 93
3, 8736, Note_off_c, 1, 55, 0
3, 8736, Note_on_c, 1, 53, 93
3, 8760, Note_off_c, 1, 53, 0
3, 8760, Note_on_c, 1, 51, 93
3, 8784, Note_off_c, 1, 51, 0
3, 8784, Note_on_c, 1, 53, 93
3, 8808, Note_off_c, 1, 53, 0
3, 8808, Note_on_c, 1, 50, 93
3, 8832, Note_off_c, 1, 50, 0
3, 8832, Note_on_c, 1, 51, 93
3, 8904, Note_off_c, 1, 51, 0
3, 8904, Note_on_c, 1, 50, 93
3, 8928, Note_off_c, 1, 50, 0
3, 8928, Note_on_c, 1, 48, 93
3, 8952, Note_off_c, 1, 48, 0
3, 8952, Note_on_c, 1, 47, 93
3, 8976, Note_off_c, 1, 47, 0
3, 8976, Note_on_c, 1, 48, 93
3, 9000, Note_off_c, 1, 48, 0
3, 9000, Note_on_c, 1, 50, 93
3, 9024, Note_off_c, 1, 50, 0
3, 9024, Note_on_c, 1, 51, 93
3, 9048, Note_off_c, 1, 51, 0
3, 9048, Note_on_c, 1, 50, 93
3, 9072, Note_off_c, 1, 50, 0
3, 9072, Note_on_c, 1, 51, 93
3, 9096, Note_off_c, 1, 51, 0
3, 9096, Note_on_c, 1, 53, 93
3, 9120, Note_off_c, 1, 53, 0
3, 9120, Note_on_c, 1, 55, 93
3, 9144, Note_off_c, 1, 55, 0
3, 9144, Note_on_c, 1, 53, 93
3, 9168, Note_off_c, 1, 53, 0
3, 9168, Note_on_c, 1, 55, 93
3, 9192, Note_off_c, 1, 55, 0
3, 9192, Note_on_c, 1, 56, 93
3, 9216, Note_off_c, 1, 56, 0
3, 9216, Note_on_c, 1, 58, 93
3, 9336, Note_off_c, 1, 58, 0
3, 9336, Note_on_c, 1, 56, 93
3, 9360, Note_off_c, 1, 56, 0
3, 9360, Note_on_c, 1, 55, 93
3, 9384, Note_off_c, 1, 55, 0
3, 9384, Note_on_c, 1, 53, 93
3, 9408, Note_off_c, 1, 53, 0
3, 9408, Note_on_c, 1, 55, 93
3, 9480, Note_off_c, 1, 55, 0
3, 9480, Note_on_c, 1, 53, 93
3, 9492, Note_off_c, 1, 53, 0
3, 9492, Note_on_c, 1, 51, 93
3, 9504, Note_off_c, 1, 51, 0
3, 9504, Note_on_c, 1, 61, 93
3, 9576, Note_off_c, 1, 61, 0
3, 9576, Note_on_c, 1, 58, 93
3, 9600, Note_off_c, 1, 58, 0
3, 9600, Note_on_c, 1, 60, 93
3, 9720, Note_off_c, 1, 60, 0
3, 9720, Note_on_c, 1, 58, 93
3, 9744, Note_off_c, 1, 58, 0
3, 9744, Note_on_c, 1, 56, 93
3, 9768, Note_off_c, 1, 56, 0
3, 9768, Note_on_c, 1, 55, 93
3, 9792, Note_off_c, 1, 55, 0
3, 9792, Note_on_c, 1, 56, 93
3, 9864, Note_off_c, 1, 56, 0
3, 9864, Note_on_c, 1, 60, 93
3, 9888, Note_off_c, 1, 60, 0
3, 9888, Note_on_c, 1, 52, 93
3, 9960, Note_off_c, 1, 52, 0
3, 9960, Note_on_c, 1, 53, 93
3, 9984, Note_off_c, 1, 53, 0
3, 9984, Note_on_c, 1, 55, 93
3, 10104, Note_off_c, 1, 55, 0
3, 10104, Note_on_c, 1, 53, 93
3, 10128, Note_off_c, 1, 53, 0
3, 10128, Note_on_c, 1, 52, 93
3, 10152, Note_off_c, 1, 52, 0
3, 10152, Note_on_c, 1, 53, 93
3, 10164, Note_off_c, 1, 53, 0
3, 10164, Note_on_c, 1, 55, 93
3, 10176, Note_off_c, 1, 55, 0
3, 10176, Note_on_c, 1, 48, 93
3, 10248, Note_off_c, 1, 48, 0
3, 10248, Note_on_c, 1, 58, 93
3, 10272, Note_off_c, 1, 58, 0
3, 10272, Note_on_c, 1, 56, 93
3, 10344, Note_off_c, 1, 56, 0
3, 10344, Note_on_c, 1, 58, 93
3, 10356, Note_off_c, 1, 58, 0
3, 10356, Note_on_c, 1, 55, 93
3, 10368, Note_off_c, 1, 55, 0
3, 10368, Note_on_c, 1, 56, 93
3, 10512, Note_off_c, 1, 56, 0
3, 10512, Note_on_c, 1, 60, 93
3, 10536, Note_off_c, 1, 60, 0
3, 10536, Note_on_c, 1, 58, 93
3, 10560, Note_off_c, 1, 58, 0
3, 10560, Note_on_c, 1, 56, 93
3, 10584, Note_off_c, 1, 56, 0
3, 10584, Note_on_c, 1, 55, 93
3, 10608, Note_off_c, 1, 55, 0
3, 10608, Note_on_c, 1, 53, 93
3, 10632, Note_off_c, 1, 53, 0
3, 10632, Note_on_c, 1, 51, 93
3, 10656, Note_off_c, 1, 51, 0
3, 10656, Note_on_c, 1, 50, 93
3, 10680, Note_off_c, 1, 50, 0
3, 10680, Note_on_c, 1, 51, 93
3, 10704, Note_off_c, 1, 51, 0
3, 10704, Note_on_c, 1, 53, 93
3, 10728, Note_off_c, 1, 53, 0
3, 10728, Note_on_c, 1, 50, 93
3, 10752, Note_off_c, 1, 50, 0
3, 10752, Note_on_c, 1, 44, 93
3, 10872, Note_off_c, 1, 44, 0
3, 10872, Note_on_c, 1, 53, 93
3, 10896, Note_off_c, 1, 53, 0
3, 10896, Note_on_c, 1, 51, 93
3, 10920, Note_off_c, 1, 51, 0
3, 10920, Note_on_c, 1, 50, 93
3, 10944, Note_off_c, 1, 50, 0
3, 10944, Note_on_c, 1, 48, 93
3, 10968, Note_off_c, 1, 48, 0
3, 10968, Note_on_c, 1, 46, 93
3, 10992, Note_off_c, 1, 46, 0
3, 10992, Note_on_c, 1, 44, 93
3, 11016, Note_off_c, 1, 44, 0
3, 11016, Note_on_c, 1, 43, 93
3, 11040, Note_off_c, 1, 43, 0
3, 11040, Note_on_c, 1, 41, 93
3, 11064, Note_off_c, 1, 41, 0
3, 11064, Note_on_c, 1, 43, 93
3, 11088, Note_off_c, 1, 43, 0
3, 11088, Note_on_c, 1, 44, 93
3, 11112, Note_off_c, 1, 44, 0
3, 11112, Note_on_c, 1, 41, 93
3, 11136, Note_off_c, 1, 41, 0
3, 11136, Note_on_c, 1, 38, 93
3, 11232, Note_off_c, 1, 38, 0
3, 11520, Note_on_c, 1, 56, 93
3, 11616, Note_off_c, 1, 56, 0
3, 11904, Note_on_c, 1, 51, 93
3, 12000, Note_off_c, 1, 51, 0
3, 12096, Note_on_c, 1, 47, 93
3, 12192, Note_off_c, 1, 47, 0
3, 12288, Note_on_c, 1, 48, 93
3, 12384, Note_off_c, 1, 48, 0
3, 12384, Note_on_c, 1, 36, 93
3, 12456, Note_off_c, 1, 36, 0
3, 12456, Note_on_c, 1, 58, 93
3, 12480, Note_off_c, 1, 58, 0
3, 12480, Note_on_c, 1, 57, 93
3, 12576, Note_off_c, 1, 57, 0
3, 12576, Note_on_c, 1, 55, 93
3, 12600, Note_off_c, 1, 55, 0
3, 12600, Note_on_c, 1, 54, 93
3, 12624, Note_off_c, 1, 54, 0
3, 12624, Note_on_c, 1, 55, 93
3, 12672, Note_off_c, 1, 55, 0
3, 12672, Note_on_c, 1, 54, 93
3, 12768, Note_off_c, 1, 54, 0
3, 13440, Note_on_c, 1, 46, 93
3, 13536, Note_off_c, 1, 46, 0
3, 13536, Note_on_c, 1, 48, 93
3, 13560, Note_off_c, 1, 48, 0
3, 13560, Note_on_c, 1, 57, 93
3, 13584, Note_off_c, 1, 57, 0
3, 13584, Note_on_c, 1, 55, 93
3, 13608, Note_off_c, 1, 55, 0
3, 13608, Note_on_c, 1, 57, 93
3, 13632, Note_off_c, 1, 57, 0
3, 13632, Note_on_c, 1, 57, 93
3, 13776, Note_off_c, 1, 57, 0
3, 13776, Note_on_c, 1, 55, 93
3, 13824, Note_off_c, 1, 55, 0
3, 13824, Note_on_c, 1, 55, 93
3, 13896, Note_off_c, 1, 55, 0
3, 13896, Note_on_c, 1, 50, 93
3, 13920, Note_off_c, 1, 50, 0
3, 13920, Note_on_c, 1, 47, 93
3, 13992, Note_off_c, 1, 47, 0
3, 13992, Note_on_c, 1, 50, 93
3, 14016, Note_off_c, 1, 50, 0
3, 14016, Note_on_c, 1, 43, 93
3, 14160, Note_off_c, 1, 43, 0
3, 14208, Note_on_c, 1, 59, 93
3, 14304, Note_off_c, 1, 59, 0
3, 15360, Note_on_c, 1, 51, 93
3, 15456, Note_off_c, 1, 51, 0
3, 15744, Note_on_c, 1, 50, 93
3, 15840, Note_off_c, 1, 50, 0
3, 16128, Note_on_c, 1, 48, 93
3, 16248, Note_off_c, 1, 48, 0
3, 16248, Note_on_c, 1, 48, 93
3, 16272, Note_off_c, 1, 48, 0
3, 16272, Note_on_c, 1, 50, 93
3, 16296, Note_off_c, 1, 50, 0
3, 16296, Note_on_c, 1, 51, 93
3, 16320, Note_off_c, 1, 51, 0
3, 16320, Note_on_c, 1, 50, 93
3, 16392, Note_off_c, 1, 50, 0
3, 16392, Note_on_c, 1, 50, 93
3, 16416, Note_off_c, 1, 50, 0
3, 16416, Note_on_c, 1, 51, 93
3, 16488, Note_off_c, 1, 51, 0
3, 16488, Note_on_c, 1, 53, 93
3, 16512, Note_off_c, 1, 53, 0
3, 16512, Note_on_c, 1, 50, 93
3, 16584, Note_off_c, 1, 50, 0
3, 16584, Note_on_c, 1, 51, 93
3, 16596, Note_off_c, 1, 51, 0
3, 16596, Note_on_c, 1, 50, 93
3, 16608, Note_off_c, 1, 50, 0
3, 16608, Note_on_c, 1, 48, 93
3, 16656, Note_off_c, 1, 48, 0
3, 16656, Note_on_c, 1, 50, 93
3, 16680, Note_off_c, 1, 50, 0
3, 16680, Note_on_c, 1, 46, 93
3, 16704, Note_off_c, 1, 46, 0
3, 16704, Note_on_c, 1, 55, 93
3, 16764, Note_off_c, 1, 55, 0
3, 16764, Note_on_c, 1, 53, 93
3, 16776, Note_off_c, 1, 53, 0
3, 16776, Note_on_c, 1, 51, 93
3, 16788, Note_off_c, 1, 51, 0
3, 16788, Note_on_c, 1, 50, 93
3, 16800, Note_off_c, 1, 50, 0
3, 16800, Note_on_c, 1, 51, 93
3, 16872, Note_off_c, 1, 51, 0
3, 16872, Note_on_c, 1, 55, 93
3, 16896, Note_off_c, 1, 55, 0
3, 16896, Note_on_c, 1, 37, 93
3, 16956, Note_off_c, 1, 37, 0
3, 16956, Note_on_c, 1, 43, 93
3, 16968, Note_off_c, 1, 43, 0
3, 16968, Note_on_c, 1, 44, 93
3, 16980, Note_off_c, 1, 44, 0
3, 16980, Note_on_c, 1, 46, 93
3, 16992, Note_off_c, 1, 46, 0
3, 16992, Note_on_c, 1, 48, 93
3, 17016, Note_off_c, 1, 48, 0
3, 17016, Note_on_c, 1, 46, 93
3, 17040, Note_off_c, 1, 46, 0
3, 17040, Note_on_c, 1, 56, 93
3, 17088, Note_off_c, 1, 56, 0
3, 17088, Note_on_c, 1, 55, 93
3, 17184, Note_off_c, 1, 55, 0
3, 17184, Note_on_c, 1, 53, 93
3, 17208, Note_off_c, 1, 53, 0
3, 17208, Note_on_c, 1, 52, 93
3, 17232, Note_off_c, 1, 52, 0
3, 17232, Note_on_c, 1, 53, 93
3, 17280, Note_off_c, 1, 53, 0
3, 17280, Note_on_c, 1, 36, 93
3, 17376, Note_off_c, 1, 36, 0
3, 17856, Note_on_c, 1, 48, 93
3, 18000, Note_off_c, 1, 48, 0
3, 18048, Note_on_c, 1, 45, 93
3, 18144, Note_off_c, 1, 45, 0
3, 18432, Note_on_c, 1, 50, 93
3, 18528, Note_off_c, 1, 50, 0
3, 19584, Note_on_c, 1, 43, 93
3, 19656, Note_off_c, 1, 43, 0
3, 19656, Note_on_c, 1, 55, 93
3, 19680, Note_off_c, 1, 55, 0
3, 19680, Note_on_c, 1, 56, 93
3, 19704, Note_off_c, 1, 56, 0
3, 19704, Note_on_c, 1, 55, 93
3, 19728, Note_off_c, 1, 55, 0
3, 19728, Note_on_c, 1, 53, 93
3, 19752, Note_off_c, 1, 53, 0
3, 19752, Note_on_c, 1, 51, 93
3, 19776, Note_off_c, 1, 51, 0
3, 19776, Note_on_c, 1, 50, 93
3, 19800, Note_off_c, 1, 50, 0
3, 19800, Note_on_c, 1, 48, 93
3, 19824, Note_off_c, 1, 48, 0
3, 19824, Note_on_c, 1, 47, 93
3, 19848, Note_off_c, 1, 47, 0
3, 19848, Note_on_c, 1, 48, 93
3, 19872, Note_off_c, 1, 48, 0
3, 19872, Note_on_c, 1, 50, 93
3, 19896, Note_off_c, 1, 50, 0
3, 19896, Note_on_c, 1, 51, 93
3, 19920, Note_off_c, 1, 51, 0
3, 19920, Note_on_c, 1, 53, 93
3, 19944, Note_off_c, 1, 53, 0
3, 19944, Note_on_c, 1, 50, 93
3, 19968, Note_off_c, 1, 50, 0
3, 19968, Note_on_c, 1, 44, 93
3, 20040, Note_off_c, 1, 44, 0
3, 20040, Note_on_c, 1, 59, 93
3, 20064, Note_off_c, 1, 59, 0
3, 20064, Note_on_c, 1, 60, 93
3, 20088, Note_off_c, 1, 60, 0
3, 20088, Note_on_c, 1, 59, 93
3, 20112, Note_off_c, 1, 59, 0
3, 20112, Note_on_c, 1, 57, 93
3, 20136, Note_off_c, 1, 57, 0
3, 20136, Note_on_c, 1, 55, 93
3, 20160, Note_off_c, 1, 55, 0
3, 20160, Note_on_c, 1, 60, 93
3, 20304, Note_off_c, 1, 60, 0
3, 20304, Note_on_c, 1, 45, 93
3, 20352, Note_off_c, 1, 45, 0
3, 20352, Note_on_c, 1, 55, 93
3, 20424, Note_off_c, 1, 55, 0
3, 20424, Note_on_c, 1, 63, 93
3, 20448, Note_off_c, 1, 63, 0
3, 20448, Note_on_c, 1, 62, 93
3, 20472, Note_off_c, 1, 62, 0
3, 20472, Note_on_c, 1, 63, 93
3, 20496, Note_off_c, 1, 63, 0
3, 20496, Note_on_c, 1, 65, 93
3, 20520, Note_off_c, 1, 65, 0
3, 20520, Note_on_c, 1, 62, 93
3, 20544, Note_off_c, 1, 62, 0
3, 20544, Note_on_c, 1, 59, 93
3, 20688, Note_off_c, 1, 59, 0
3, 20688, Note_on_c, 1, 60, 93
3, 20736, Note_off_c, 1, 60, 0
3, 20736, Note_on_c, 1, 60, 93
3, 20808, Note_off_c, 1, 60, 0
3, 20808, Note_on_c, 1, 55, 93
3, 20832, Note_off_c, 1, 55, 0
3, 20832, Note_on_c, 1, 51, 93
3, 20904, Note_off_c, 1, 51, 0
3, 20904, Note_on_c, 1, 48, 93
3, 20928, Note_off_c, 1, 48, 0
3, 20928, Note_on_c, 1, 36, 93
3, 21072, Note_off_c, 1, 36, 0
3, 21120, Note_on_c, 1, 59, 93
3, 21216, Note_off_c, 1, 59, 0
3, 22272, Note_on_c, 1, 51, 93
3, 22368, Note_off_c, 1, 51, 0
3, 22656, Note_on_c, 1, 50, 93
3, 22752, Note_off_c, 1, 50, 0
3, 23040, Note_on_c, 1, 48, 93
3, 23160, Note_off_c, 1, 48, 0
3, 23160, Note_on_c, 1, 48, 93
3, 23184, Note_off_c, 1, 48, 0
3, 23184, Note_on_c, 1, 50, 93
3, 23208, Note_off_c, 1, 50, 0
3, 23208, Note_on_c, 1, 51, 93
3, 23232, Note_off_c, 1, 51, 0
3, 23232, Note_on_c, 1, 50, 93
3, 23304, Note_off_c, 1, 50, 0
3, 23304, Note_on_c, 1, 50, 93
3, 23328, Note_off_c, 1, 50, 0
3, 23328, Note_on_c, 1, 51, 93
3, 23400, Note_off_c, 1, 51, 0
3, 23400, Note_on_c, 1, 53, 93
3, 23424, Note_off_c, 1, 53, 0
3, 23424, Note_on_c, 1, 50, 93
3, 23496, Note_off_c, 1, 50, 0
3, 23496, Note_on_c, 1, 51, 93
3, 23508, Note_off_c, 1, 51, 0
3, 23508, Note_on_c, 1, 50, 93
3, 23520, Note_off_c, 1, 50, 0
3, 23520, Note_on_c, 1, 48, 93
3, 23568, Note_off_c, 1, 48, 0
3, 23568, Note_on_c, 1, 50, 93
3, 23592, Note_off_c, 1, 50, 0
3, 23592, Note_on_c, 1, 46, 93
3, 23616, Note_off_c, 1, 46, 0
3, 23616, Note_on_c, 1, 55, 93
3, 23676, Note_off_c, 1, 55, 0
3, 23676, Note_on_c, 1, 53, 93
3, 23688, Note_off_c, 1, 53, 0
3, 23688, Note_on_c, 1, 51, 93
3, 23700, Note_off_c, 1, 51, 0
3, 23700, Note_on_c, 1, 50, 93
3, 23712, Note_off_c, 1, 50, 0
3, 23712, Note_on_c, 1, 51, 93
3, 23784, Note_off_c, 1, 51, 0
3, 23784, Note_on_c, 1, 55, 93
3, 23808, Note_off_c, 1, 55, 0
3, 23808, Note_on_c, 1, 37, 93
3, 23868, Note_off_c, 1, 37, 0
3, 23868, Note_on_c, 1, 43, 93
3, 23880, Note_off_c, 1, 43, 0
3, 23880, Note_on_c, 1, 44, 93
3, 23892, Note_off_c, 1, 44, 0
3, 23892, Note_on_c, 1, 46, 93
3, 23904, Note_off_c, 1, 46, 0
3, 23904, Note_on_c, 1, 48, 93
3, 23928, Note_off_c, 1, 48, 0
3, 23928, Note_on_c, 1, 46, 93
3, 23952, Note_off_c, 1, 46, 0
3, 23952, Note_on_c, 1, 56, 93
3, 24000, Note_off_c, 1, 56, 0
3, 24000, Note_on_c, 1, 55, 93
3, 24096, Note_off_c, 1, 55, 0
3, 24096, Note_on_c, 1, 53, 93
3, 24120, Note_off_c, 1, 53, 0
3, 24120, Note_on_c, 1, 52, 93
3, 24144, Note_off_c, 1, 52, 0
3, 24144, Note_on_c, 1, 53, 93
3, 24192, Note_off_c, 1, 53, 0
3, 24192, Note_on_c, 1, 36, 93
3, 24288, Note_off_c, 1, 36, 0
3, 24768, Note_on_c, 1, 48, 93
3, 24912, Note_off_c, 1, 48, 0
3, 24960, Note_on_c, 1, 45, 93
3, 25056, Note_off_c, 1, 45, 0
3, 25344, Note_on_c, 1, 50, 93
3, 25440, Note_off_c, 1, 50, 0
3, 26496, Note_on_c, 1, 43, 93
3, 26568, Note_off_c, 1, 43, 0
3, 26568, Note_on_c, 1, 55, 93
3, 26592, Note_off_c, 1, 55, 0
3, 26592, Note_on_c, 1, 56, 93
3, 26616, Note_off_c, 1, 56, 0
3, 26616, Note_on_c, 1, 55, 93
3, 26640, Note_off_c, 1, 55, 0
3, 26640, Note_on_c, 1, 53, 93
3, 26664, Note_off_c, 1, 53, 0
3, 26664, Note_on_c, 1, 51, 93
3, 26688, Note_off_c, 1, 51, 0
3, 26688, Note_on_c, 1, 50, 93
3, 26712, Note_off_c, 1, 50, 0
3, 26712, Note_on_c, 1, 48, 93
3, 26736, Note_off_c, 1, 48, 0
3, 26736, Note_on_c, 1, 47, 93
3, 26760, Note_off_c, 1, 47, 0
3, 26760, Note_on_c, 1, 48, 93
3, 26784, Note_off_c, 1, 48, 0
3, 26784, Note_on_c, 1, 50, 93
3, 26808, Note_off_c, 1, 50, 0
3, 26808, Note_on_c, 1, 51, 93
3, 26832, Note_off_c, 1, 51, 0
3, 26832, Note_on_c, 1, 53, 93
3, 26856, Note_off_c, 1, 53, 0
3, 26856, Note_on_c, 1, 50, 93
3, 26880, Note_off_c, 1, 50, 0
3, 26880, Note_on_c, 1, 44, 93
3, 26952, Note_off_c, 1, 44, 0
3, 26952, Note_on_c, 1, 59, 93
3, 26976, Note_off_c, 1, 59, 0
3, 26976, Note_on_c, 1, 60, 93
3, 27000, Note_off_c, 1, 60, 0
3, 27000, Note_on_c, 1, 59, 93
3, 27024, Note_off_c, 1, 59, 0
3, 27024, Note_on_c, 1, 57, 93
3, 27048, Note_off_c, 1, 57, 0
3, 27048, Note_on_c, 1, 55, 93
3, 27072, Note_off_c, 1, 55, 0
3, 27072, Note_on_c, 1, 60, 93
3, 27216, Note_off_c, 1, 60, 0
3, 27216, Note_on_c, 1, 45, 93
3, 27264, Note_off_c, 1, 45, 0
3, 27264, Note_on_c, 1, 55, 93
3, 27336, Note_off_c, 1, 55, 0
3, 27336, Note_on_c, 1, 63, 93
3, 27360, Note_off_c, 1, 63, 0
3, 27360, Note_on_c, 1, 62, 93
3, 27384, Note_off_c, 1, 62, 0
3, 27384, Note_on_c, 1, 63, 93
3, 27408, Note_off_c, 1, 63, 0
3, 27408, Note_on_c, 1, 65, 93
3, 27432, Note_off_c, 1, 65, 0
3, 27432, Note_on_c, 1, 62, 93
3, 27456, Note_off_c, 1, 62, 0
3, 27456, Note_on_c, 1, 59, 93
3, 27600, Note_off_c, 1, 59, 0
3, 27600, Note_on_c, 1, 60, 93
3, 27648, Note_off_c, 1, 60, 0
3, 27648, Note_on_c, 1, 60, 93
3, 27720, Note_off_c, 1, 60, 0
3, 27720, Note_on_c, 1, 55, 93
3, 27744, Note_off_c, 1, 55, 0
3, 27744, Note_on_c, 1, 51, 93
3, 27816, Note_off_c, 1, 51, 0
3, 27816, Note_on_c, 1, 48, 93
3, 27840, Note_off_c, 1, 48, 0
3, 27840, Note_on_c, 1, 36, 93
3, 27984, Note_off_c, 1, 36, 0
3, 27984, End_track
0, 0, End_of_file
