0, 0, Header, 1, 5, 96
1, 0, Start_track
1, 0, Time_signature, 4, 2, 24, 8
1, 0, Title_t, "untitled"
1, 0, Title_t, "Track1"
1, 0, Control_c, 0, 0, 0
1, 0, Control_c, 0, 32, 0
1, 0, Program_c, 0, 105
1, 0, Control_c, 0, 7, 100
1, 0, Control_c, 0, 10, 64
1, 0, Tempo, 240000
1, 192, Tempo, 461538
1, 50688, Tempo, 937500
1, 50688, End_track
2, 0, Start_track
2, 0, Title_t, "Track2"
2, 0, Program_c, 0, 42
2, 0, Control_c, 0, 7, 100
2, 0, Control_c, 0, 10, 59
2, 192, Note_on_c, 0, 66, 93
2, 288, Note_off_c, 0, 66, 0
2, 288, Note_on_c, 0, 66, 93
2, 384, Note_off_c, 0, 66, 0
2, 384, Note_on_c, 0, 66, 93
2, 480, Note_off_c, 0, 66, 0
2, 480, Note_on_c, 0, 64, 93
2, 528, Note_off_c, 0, 64, 0
2, 528, Note_on_c, 0, 62, 93
2, 576, Note_off_c, 0, 62, 0
2, 576, Note_on_c, 0, 64, 93
2, 624, Note_off_c, 0, 64, 0
2, 624, Note_on_c, 0, 66, 93
2, 672, Note_off_c, 0, 66, 0
2, 672, Note_on_c, 0, 67, 93
2, 768, Note_off_c, 0, 67, 0
2, 768, Note_on_c, 0, 62, 93
2, 816, Note_off_c, 0, 62, 0
2, 816, Note_on_c, 0, 61, 93
2, 864, Note_off_c, 0, 61, 0
2, 864, Note_on_c, 0, 59, 93
2, 912, Note_off_c, 0, 59, 0
2, 912, Note_on_c, 0, 57, 93
2, 960, Note_off_c, 0, 57, 0
2, 960, Note_on_c, 0, 69, 93
2, 1056, Note_off_c, 0, 69, 0
2, 1056, Note_on_c, 0, 69, 93
2, 1152, Note_off_c, 0, 69, 0
2, 1152, Note_on_c, 0, 69, 93
2, 1248, Note_off_c, 0, 69, 0
2, 1248, Note_on_c, 0, 71, 93
2, 1296, Note_off_c, 0, 71, 0
2, 1296, Note_on_c, 0, 69, 93
2, 1344, Note_off_c, 0, 69, 0
2, 1344, Note_on_c, 0, 67, 93
2, 1392, Note_off_c, 0, 67, 0
2, 1392, Note_on_c, 0, 66, 93
2, 1440, Note_off_c, 0, 66, 0
2, 1440, Note_on_c, 0, 64, 93
2, 1488, Note_off_c, 0, 64, 0
2, 1488, Note_on_c, 0, 66, 93
2, 1536, Note_off_c, 0, 66, 0
2, 1536, Note_on_c, 0, 67, 93
2, 1584, Note_off_c, 0, 67, 0
2, 1584, Note_on_c, 0, 66, 93
2, 1632, Note_off_c, 0, 66, 0
2, 1632, Note_on_c, 0, 64, 93
2, 1680, Note_off_c, 0, 64, 0
2, 1680, Note_on_c, 0, 62, 93
2, 1728, Note_off_c, 0, 62, 0
2, 1728, Note_on_c, 0, 66, 93
2, 1824, Note_off_c, 0, 66, 0
2, 1824, Note_on_c, 0, 66, 93
2, 1920, Note_off_c, 0, 66, 0
2, 1920, Note_on_c, 0, 66, 93
2, 2016, Note_off_c, 0, 66, 0
2, 2016, Note_on_c, 0, 64, 93
2, 2064, Note_off_c, 0, 64, 0
2, 2064, Note_on_c, 0, 62, 93
2, 2112, Note_off_c, 0, 62, 0
2, 2112, Note_on_c, 0, 64, 93
2, 2160, Note_off_c, 0, 64, 0
2, 2160, Note_on_c, 0, 66, 93
2, 2208, Note_off_c, 0, 66, 0
2, 2208, Note_on_c, 0, 67, 93
2, 2304, Note_off_c, 0, 67, 0
2, 2304, Note_on_c, 0, 62, 93
2, 2352, Note_off_c, 0, 62, 0
2, 2352, Note_on_c, 0, 61, 93
2, 2400, Note_off_c, 0, 61, 0
2, 2400, Note_on_c, 0, 59, 93
2, 2448, Note_off_c, 0, 59, 0
2, 2448, Note_on_c, 0, 57, 93
2, 2496, Note_off_c, 0, 57, 0
2, 2496, Note_on_c, 0, 62, 93
2, 2592, Note_off_c, 0, 62, 0
2, 2592, Note_on_c, 0, 62, 93
2, 2688, Note_off_c, 0, 62, 0
2, 2688, Note_on_c, 0, 62, 93
2, 2784, Note_off_c, 0, 62, 0
2, 2784, Note_on_c, 0, 61, 93
2, 2832, Note_off_c, 0, 61, 0
2, 2832, Note_on_c, 0, 62, 93
2, 2880, Note_off_c, 0, 62, 0
2, 2880, Note_on_c, 0, 61, 93
2, 2928, Note_off_c, 0, 61, 0
2, 2928, Note_on_c, 0, 59, 93
2, 2976, Note_off_c, 0, 59, 0
2, 2976, Note_on_c, 0, 64, 93
2, 3072, Note_off_c, 0, 64, 0
2, 3072, Note_on_c, 0, 61, 93
2, 3264, Note_off_c, 0, 61, 0
2, 3264, Note_on_c, 0, 66, 93
2, 3360, Note_off_c, 0, 66, 0
2, 3360, Note_on_c, 0, 66, 93
2, 3456, Note_off_c, 0, 66, 0
2, 3456, Note_on_c, 0, 66, 93
2, 3552, Note_off_c, 0, 66, 0
2, 3552, Note_on_c, 0, 64, 93
2, 3600, Note_off_c, 0, 64, 0
2, 3600, Note_on_c, 0, 62, 93
2, 3648, Note_off_c, 0, 62, 0
2, 3648, Note_on_c, 0, 64, 93
2, 3696, Note_off_c, 0, 64, 0
2, 3696, Note_on_c, 0, 66, 93
2, 3744, Note_off_c, 0, 66, 0
2, 3744, Note_on_c, 0, 67, 93
2, 3840, Note_off_c, 0, 67, 0
2, 3840, Note_on_c, 0, 62, 93
2, 3888, Note_off_c, 0, 62, 0
2, 3888, Note_on_c, 0, 61, 93
2, 3936, Note_off_c, 0, 61, 0
2, 3936, Note_on_c, 0, 59, 93
2, 3984, Note_off_c, 0, 59, 0
2, 3984, Note_on_c, 0, 57, 93
2, 4032, Note_off_c, 0, 57, 0
2, 4032, Note_on_c, 0, 69, 93
2, 4128, Note_off_c, 0, 69, 0
2, 4128, Note_on_c, 0, 69, 93
2, 4224, Note_off_c, 0, 69, 0
2, 4224, Note_on_c, 0, 69, 93
2, 4320, Note_off_c, 0, 69, 0
2, 4320, Note_on_c, 0, 71, 93
2, 4368, Note_off_c, 0, 71, 0
2, 4368, Note_on_c, 0, 69, 93
2, 4416, Note_off_c, 0, 69, 0
2, 4416, Note_on_c, 0, 67, 93
2, 4464, Note_off_c, 0, 67, 0
2, 4464, Note_on_c, 0, 66, 93
2, 4512, Note_off_c, 0, 66, 0
2, 4512, Note_on_c, 0, 64, 93
2, 4560, Note_off_c, 0, 64, 0
2, 4560, Note_on_c, 0, 66, 93
2, 4608, Note_off_c, 0, 66, 0
2, 4608, Note_on_c, 0, 67, 93
2, 4656, Note_off_c, 0, 67, 0
2, 4656, Note_on_c, 0, 66, 93
2, 4704, Note_off_c, 0, 66, 0
2, 4704, Note_on_c, 0, 64, 93
2, 4752, Note_off_c, 0, 64, 0
2, 4752, Note_on_c, 0, 62, 93
2, 4800, Note_off_c, 0, 62, 0
2, 4800, Note_on_c, 0, 66, 93
2, 4896, Note_off_c, 0, 66, 0
2, 4896, Note_on_c, 0, 66, 93
2, 4992, Note_off_c, 0, 66, 0
2, 4992, Note_on_c, 0, 66, 93
2, 5088, Note_off_c, 0, 66, 0
2, 5088, Note_on_c, 0, 64, 93
2, 5136, Note_off_c, 0, 64, 0
2, 5136, Note_on_c, 0, 62, 93
2, 5184, Note_off_c, 0, 62, 0
2, 5184, Note_on_c, 0, 64, 93
2, 5232, Note_off_c, 0, 64, 0
2, 5232, Note_on_c, 0, 66, 93
2, 5280, Note_off_c, 0, 66, 0
2, 5280, Note_on_c, 0, 67, 93
2, 5376, Note_off_c, 0, 67, 0
2, 5376, Note_on_c, 0, 62, 93
2, 5424, Note_off_c, 0, 62, 0
2, 5424, Note_on_c, 0, 61, 93
2, 5472, Note_off_c, 0, 61, 0
2, 5472, Note_on_c, 0, 59, 93
2, 5520, Note_off_c, 0, 59, 0
2, 5520, Note_on_c, 0, 57, 93
2, 5568, Note_off_c, 0, 57, 0
2, 5568, Note_on_c, 0, 62, 93
2, 5664, Note_off_c, 0, 62, 0
2, 5664, Note_on_c, 0, 62, 93
2, 5760, Note_off_c, 0, 62, 0
2, 5760, Note_on_c, 0, 62, 93
2, 5856, Note_off_c, 0, 62, 0
2, 5856, Note_on_c, 0, 61, 93
2, 5904, Note_off_c, 0, 61, 0
2, 5904, Note_on_c, 0, 62, 93
2, 5952, Note_off_c, 0, 62, 0
2, 5952, Note_on_c, 0, 61, 93
2, 6000, Note_off_c, 0, 61, 0
2, 6000, Note_on_c, 0, 59, 93
2, 6048, Note_off_c, 0, 59, 0
2, 6048, Note_on_c, 0, 64, 93
2, 6144, Note_off_c, 0, 64, 0
2, 6144, Note_on_c, 0, 61, 93
2, 6336, Note_off_c, 0, 61, 0
2, 6336, Note_on_c, 0, 69, 93
2, 6432, Note_off_c, 0, 69, 0
2, 6432, Note_on_c, 0, 69, 93
2, 6528, Note_off_c, 0, 69, 0
2, 6528, Note_on_c, 0, 69, 93
2, 6624, Note_off_c, 0, 69, 0
2, 6624, Note_on_c, 0, 71, 93
2, 6672, Note_off_c, 0, 71, 0
2, 6672, Note_on_c, 0, 69, 93
2, 6720, Note_off_c, 0, 69, 0
2, 6720, Note_on_c, 0, 67, 93
2, 6768, Note_off_c, 0, 67, 0
2, 6768, Note_on_c, 0, 66, 93
2, 6816, Note_off_c, 0, 66, 0
2, 6816, Note_on_c, 0, 71, 93
2, 6912, Note_off_c, 0, 71, 0
2, 6912, Note_on_c, 0, 69, 93
2, 6960, Note_off_c, 0, 69, 0
2, 6960, Note_on_c, 0, 67, 93
2, 7008, Note_off_c, 0, 67, 0
2, 7008, Note_on_c, 0, 66, 93
2, 7056, Note_off_c, 0, 66, 0
2, 7056, Note_on_c, 0, 64, 93
2, 7104, Note_off_c, 0, 64, 0
2, 7104, Note_on_c, 0, 57, 93
2, 7152, Note_off_c, 0, 57, 0
2, 7152, Note_on_c, 0, 67, 93
2, 7200, Note_off_c, 0, 67, 0
2, 7200, Note_on_c, 0, 66, 93
2, 7248, Note_off_c, 0, 66, 0
2, 7248, Note_on_c, 0, 64, 93
2, 7296, Note_off_c, 0, 64, 0
2, 7296, Note_on_c, 0, 55, 93
2, 7344, Note_off_c, 0, 55, 0
2, 7344, Note_on_c, 0, 63, 93
2, 7392, Note_off_c, 0, 63, 0
2, 7392, Note_on_c, 0, 64, 93
2, 7440, Note_off_c, 0, 64, 0
2, 7440, Note_on_c, 0, 67, 93
2, 7488, Note_off_c, 0, 67, 0
2, 7488, Note_on_c, 0, 57, 93
2, 7536, Note_off_c, 0, 57, 0
2, 7536, Note_on_c, 0, 66, 93
2, 7584, Note_off_c, 0, 66, 0
2, 7584, Note_on_c, 0, 59, 93
2, 7632, Note_off_c, 0, 59, 0
2, 7632, Note_on_c, 0, 63, 93
2, 7680, Note_off_c, 0, 63, 0
2, 7680, Note_on_c, 0, 52, 93
2, 7728, Note_off_c, 0, 52, 0
2, 7728, Note_on_c, 0, 59, 93
2, 7776, Note_off_c, 0, 59, 0
2, 7776, Note_on_c, 0, 64, 93
2, 7824, Note_off_c, 0, 64, 0
2, 7824, Note_on_c, 0, 66, 93
2, 7872, Note_off_c, 0, 66, 0
2, 7872, Note_on_c, 0, 67, 93
2, 7968, Note_off_c, 0, 67, 0
2, 7968, Note_on_c, 0, 67, 93
2, 8064, Note_off_c, 0, 67, 0
2, 8064, Note_on_c, 0, 49, 93
2, 8112, Note_off_c, 0, 49, 0
2, 8112, Note_on_c, 0, 52, 93
2, 8160, Note_off_c, 0, 52, 0
2, 8160, Note_on_c, 0, 57, 93
2, 8208, Note_off_c, 0, 57, 0
2, 8208, Note_on_c, 0, 59, 93
2, 8256, Note_off_c, 0, 59, 0
2, 8256, Note_on_c, 0, 61, 93
2, 8304, Note_off_c, 0, 61, 0
2, 8304, Note_on_c, 0, 62, 93
2, 8352, Note_off_c, 0, 62, 0
2, 8352, Note_on_c, 0, 64, 93
2, 8400, Note_off_c, 0, 64, 0
2, 8400, Note_on_c, 0, 66, 93
2, 8448, Note_off_c, 0, 66, 0
2, 8448, Note_on_c, 0, 67, 93
2, 8496, Note_off_c, 0, 67, 0
2, 8496, Note_on_c, 0, 66, 93
2, 8544, Note_off_c, 0, 66, 0
2, 8544, Note_on_c, 0, 64, 93
2, 8592, Note_off_c, 0, 64, 0
2, 8592, Note_on_c, 0, 62, 93
2, 8640, Note_off_c, 0, 62, 0
2, 8640, Note_on_c, 0, 61, 93
2, 8688, Note_off_c, 0, 61, 0
2, 8688, Note_on_c, 0, 62, 93
2, 8736, Note_off_c, 0, 62, 0
2, 8736, Note_on_c, 0, 64, 93
2, 8784, Note_off_c, 0, 64, 0
2, 8784, Note_on_c, 0, 59, 93
2, 8832, Note_off_c, 0, 59, 0
2, 8832, Note_on_c, 0, 58, 93
2, 8880, Note_off_c, 0, 58, 0
2, 8880, Note_on_c, 0, 64, 93
2, 8928, Note_off_c, 0, 64, 0
2, 8928, Note_on_c, 0, 59, 93
2, 8976, Note_off_c, 0, 59, 0
2, 8976, Note_on_c, 0, 62, 93
2, 9024, Note_off_c, 0, 62, 0
2, 9024, Note_on_c, 0, 52, 93
2, 9072, Note_off_c, 0, 52, 0
2, 9072, Note_on_c, 0, 61, 93
2, 9120, Note_off_c, 0, 61, 0
2, 9120, Note_on_c, 0, 54, 93
2, 9168, Note_off_c, 0, 54, 0
2, 9168, Note_on_c, 0, 58, 93
2, 9216, Note_off_c, 0, 58, 0
2, 9216, Note_on_c, 0, 59, 93
2, 9408, Note_off_c, 0, 59, 0
2, 9408, Note_on_c, 0, 62, 93
2, 9504, Note_off_c, 0, 62, 0
2, 9504, Note_on_c, 0, 62, 93
2, 9600, Note_off_c, 0, 62, 0
2, 9600, Note_on_c, 0, 62, 93
2, 9696, Note_off_c, 0, 62, 0
2, 9696, Note_on_c, 0, 61, 93
2, 9744, Note_off_c, 0, 61, 0
2, 9744, Note_on_c, 0, 59, 93
2, 9792, Note_off_c, 0, 59, 0
2, 9792, Note_on_c, 0, 61, 93
2, 9840, Note_off_c, 0, 61, 0
2, 9840, Note_on_c, 0, 62, 93
2, 9888, Note_off_c, 0, 62, 0
2, 9888, Note_on_c, 0, 64, 93
2, 9984, Note_off_c, 0, 64, 0
2, 9984, Note_on_c, 0, 62, 93
2, 10032, Note_off_c, 0, 62, 0
2, 10032, Note_on_c, 0, 61, 93
2, 10080, Note_off_c, 0, 61, 0
2, 10080, Note_on_c, 0, 59, 93
2, 10128, Note_off_c, 0, 59, 0
2, 10128, Note_on_c, 0, 57, 93
2, 10176, Note_off_c, 0, 57, 0
2, 10176, Note_on_c, 0, 59, 93
2, 10224, Note_off_c, 0, 59, 0
2, 10224, Note_on_c, 0, 61, 93
2, 10272, Note_off_c, 0, 61, 0
2, 10272, Note_on_c, 0, 62, 93
2, 10320, Note_off_c, 0, 62, 0
2, 10320, Note_on_c, 0, 61, 93
2, 10368, Note_off_c, 0, 61, 0
2, 10368, Note_on_c, 0, 64, 93
2, 10416, Note_off_c, 0, 64, 0
2, 10416, Note_on_c, 0, 62, 93
2, 10464, Note_off_c, 0, 62, 0
2, 10464, Note_on_c, 0, 66, 93
2, 10512, Note_off_c, 0, 66, 0
2, 10512, Note_on_c, 0, 64, 93
2, 10560, Note_off_c, 0, 64, 0
2, 10560, Note_on_c, 0, 67, 93
2, 10608, Note_off_c, 0, 67, 0
2, 10608, Note_on_c, 0, 66, 93
2, 10656, Note_off_c, 0, 66, 0
2, 10656, Note_on_c, 0, 69, 93
2, 10752, Note_off_c, 0, 69, 0
2, 10752, Note_on_c, 0, 64, 93
2, 10944, Note_off_c, 0, 64, 0
2, 10944, Note_on_c, 0, 66, 93
2, 11040, Note_off_c, 0, 66, 0
2, 11040, Note_on_c, 0, 66, 93
2, 11136, Note_off_c, 0, 66, 0
2, 11136, Note_on_c, 0, 66, 93
2, 11232, Note_off_c, 0, 66, 0
2, 11232, Note_on_c, 0, 64, 93
2, 11280, Note_off_c, 0, 64, 0
2, 11280, Note_on_c, 0, 62, 93
2, 11328, Note_off_c, 0, 62, 0
2, 11328, Note_on_c, 0, 64, 93
2, 11376, Note_off_c, 0, 64, 0
2, 11376, Note_on_c, 0, 66, 93
2, 11424, Note_off_c, 0, 66, 0
2, 11424, Note_on_c, 0, 67, 93
2, 11520, Note_off_c, 0, 67, 0
2, 11520, Note_on_c, 0, 62, 93
2, 11568, Note_off_c, 0, 62, 0
2, 11568, Note_on_c, 0, 61, 93
2, 11616, Note_off_c, 0, 61, 0
2, 11616, Note_on_c, 0, 59, 93
2, 11664, Note_off_c, 0, 59, 0
2, 11664, Note_on_c, 0, 57, 93
2, 11712, Note_off_c, 0, 57, 0
2, 11712, Note_on_c, 0, 69, 93
2, 11808, Note_off_c, 0, 69, 0
2, 11808, Note_on_c, 0, 69, 93
2, 11904, Note_off_c, 0, 69, 0
2, 11904, Note_on_c, 0, 69, 93
2, 12000, Note_off_c, 0, 69, 0
2, 12000, Note_on_c, 0, 71, 93
2, 12048, Note_off_c, 0, 71, 0
2, 12048, Note_on_c, 0, 69, 93
2, 12096, Note_off_c, 0, 69, 0
2, 12096, Note_on_c, 0, 67, 93
2, 12144, Note_off_c, 0, 67, 0
2, 12144, Note_on_c, 0, 66, 93
2, 12192, Note_off_c, 0, 66, 0
2, 12192, Note_on_c, 0, 64, 93
2, 12240, Note_off_c, 0, 64, 0
2, 12240, Note_on_c, 0, 66, 93
2, 12288, Note_off_c, 0, 66, 0
2, 12288, Note_on_c, 0, 67, 93
2, 12336, Note_off_c, 0, 67, 0
2, 12336, Note_on_c, 0, 66, 93
2, 12384, Note_off_c, 0, 66, 0
2, 12384, Note_on_c, 0, 64, 93
2, 12432, Note_off_c, 0, 64, 0
2, 12432, Note_on_c, 0, 62, 93
2, 12480, Note_off_c, 0, 62, 0
2, 12480, Note_on_c, 0, 66, 93
2, 12576, Note_off_c, 0, 66, 0
2, 12576, Note_on_c, 0, 66, 93
2, 12672, Note_off_c, 0, 66, 0
2, 12672, Note_on_c, 0, 66, 93
2, 12720, Note_off_c, 0, 66, 0
2, 12720, Note_on_c, 0, 69, 93
2, 12768, Note_off_c, 0, 69, 0
2, 12768, Note_on_c, 0, 67, 93
2, 12816, Note_off_c, 0, 67, 0
2, 12816, Note_on_c, 0, 66, 93
2, 12864, Note_off_c, 0, 66, 0
2, 12864, Note_on_c, 0, 64, 93
2, 12912, Note_off_c, 0, 64, 0
2, 12912, Note_on_c, 0, 62, 93
2, 12960, Note_off_c, 0, 62, 0
2, 12960, Note_on_c, 0, 61, 93
2, 13008, Note_off_c, 0, 61, 0
2, 13008, Note_on_c, 0, 59, 93
2, 13056, Note_off_c, 0, 59, 0
2, 13056, Note_on_c, 0, 61, 93
2, 13104, Note_off_c, 0, 61, 0
2, 13104, Note_on_c, 0, 71, 93
2, 13152, Note_off_c, 0, 71, 0
2, 13152, Note_on_c, 0, 69, 93
2, 13200, Note_off_c, 0, 69, 0
2, 13200, Note_on_c, 0, 67, 93
2, 13248, Note_off_c, 0, 67, 0
2, 13248, Note_on_c, 0, 66, 93
2, 13296, Note_off_c, 0, 66, 0
2, 13296, Note_on_c, 0, 64, 93
2, 13344, Note_off_c, 0, 64, 0
2, 13344, Note_on_c, 0, 62, 93
2, 13392, Note_off_c, 0, 62, 0
2, 13392, Note_on_c, 0, 61, 93
2, 13440, Note_off_c, 0, 61, 0
2, 13440, Note_on_c, 0, 59, 93
2, 13488, Note_off_c, 0, 59, 0
2, 13488, Note_on_c, 0, 57, 93
2, 13536, Note_off_c, 0, 57, 0
2, 13536, Note_on_c, 0, 69, 93
2, 13632, Note_off_c, 0, 69, 0
2, 13632, Note_on_c, 0, 66, 93
2, 13728, Note_off_c, 0, 66, 0
2, 13728, Note_on_c, 0, 64, 93
2, 13776, Note_off_c, 0, 64, 0
2, 13776, Note_on_c, 0, 62, 93
2, 13824, Note_off_c, 0, 62, 0
2, 13824, Note_on_c, 0, 62, 93
2, 14016, Note_off_c, 0, 62, 0
2, 14016, Note_on_c, 0, 69, 93
2, 14112, Note_off_c, 0, 69, 0
2, 14112, Note_on_c, 0, 69, 93
2, 14208, Note_off_c, 0, 69, 0
2, 14208, Note_on_c, 0, 69, 93
2, 14304, Note_off_c, 0, 69, 0
2, 14304, Note_on_c, 0, 71, 93
2, 14352, Note_off_c, 0, 71, 0
2, 14352, Note_on_c, 0, 69, 93
2, 14400, Note_off_c, 0, 69, 0
2, 14400, Note_on_c, 0, 67, 93
2, 14448, Note_off_c, 0, 67, 0
2, 14448, Note_on_c, 0, 66, 93
2, 14496, Note_off_c, 0, 66, 0
2, 14496, Note_on_c, 0, 71, 93
2, 14592, Note_off_c, 0, 71, 0
2, 14592, Note_on_c, 0, 69, 93
2, 14640, Note_off_c, 0, 69, 0
2, 14640, Note_on_c, 0, 67, 93
2, 14688, Note_off_c, 0, 67, 0
2, 14688, Note_on_c, 0, 66, 93
2, 14736, Note_off_c, 0, 66, 0
2, 14736, Note_on_c, 0, 64, 93
2, 14784, Note_off_c, 0, 64, 0
2, 14784, Note_on_c, 0, 57, 93
2, 14832, Note_off_c, 0, 57, 0
2, 14832, Note_on_c, 0, 67, 93
2, 14880, Note_off_c, 0, 67, 0
2, 14880, Note_on_c, 0, 66, 93
2, 14928, Note_off_c, 0, 66, 0
2, 14928, Note_on_c, 0, 64, 93
2, 14976, Note_off_c, 0, 64, 0
2, 14976, Note_on_c, 0, 55, 93
2, 15024, Note_off_c, 0, 55, 0
2, 15024, Note_on_c, 0, 63, 93
2, 15072, Note_off_c, 0, 63, 0
2, 15072, Note_on_c, 0, 64, 93
2, 15120, Note_off_c, 0, 64, 0
2, 15120, Note_on_c, 0, 67, 93
2, 15168, Note_off_c, 0, 67, 0
2, 15168, Note_on_c, 0, 57, 93
2, 15216, Note_off_c, 0, 57, 0
2, 15216, Note_on_c, 0, 66, 93
2, 15264, Note_off_c, 0, 66, 0
2, 15264, Note_on_c, 0, 59, 93
2, 15312, Note_off_c, 0, 59, 0
2, 15312, Note_on_c, 0, 63, 93
2, 15360, Note_off_c, 0, 63, 0
2, 15360, Note_on_c, 0, 52, 93
2, 15408, Note_off_c, 0, 52, 0
2, 15408, Note_on_c, 0, 59, 93
2, 15456, Note_off_c, 0, 59, 0
2, 15456, Note_on_c, 0, 64, 93
2, 15504, Note_off_c, 0, 64, 0
2, 15504, Note_on_c, 0, 66, 93
2, 15552, Note_off_c, 0, 66, 0
2, 15552, Note_on_c, 0, 67, 93
2, 15648, Note_off_c, 0, 67, 0
2, 15648, Note_on_c, 0, 67, 93
2, 15744, Note_off_c, 0, 67, 0
2, 15744, Note_on_c, 0, 49, 93
2, 15792, Note_off_c, 0, 49, 0
2, 15792, Note_on_c, 0, 52, 93
2, 15840, Note_off_c, 0, 52, 0
2, 15840, Note_on_c, 0, 57, 93
2, 15888, Note_off_c, 0, 57, 0
2, 15888, Note_on_c, 0, 59, 93
2, 15936, Note_off_c, 0, 59, 0
2, 15936, Note_on_c, 0, 61, 93
2, 15984, Note_off_c, 0, 61, 0
2, 15984, Note_on_c, 0, 62, 93
2, 16032, Note_off_c, 0, 62, 0
2, 16032, Note_on_c, 0, 64, 93
2, 16080, Note_off_c, 0, 64, 0
2, 16080, Note_on_c, 0, 66, 93
2, 16128, Note_off_c, 0, 66, 0
2, 16128, Note_on_c, 0, 67, 93
2, 16176, Note_off_c, 0, 67, 0
2, 16176, Note_on_c, 0, 66, 93
2, 16224, Note_off_c, 0, 66, 0
2, 16224, Note_on_c, 0, 64, 93
2, 16272, Note_off_c, 0, 64, 0
2, 16272, Note_on_c, 0, 62, 93
2, 16320, Note_off_c, 0, 62, 0
2, 16320, Note_on_c, 0, 61, 93
2, 16368, Note_off_c, 0, 61, 0
2, 16368, Note_on_c, 0, 62, 93
2, 16416, Note_off_c, 0, 62, 0
2, 16416, Note_on_c, 0, 64, 93
2, 16464, Note_off_c, 0, 64, 0
2, 16464, Note_on_c, 0, 59, 93
2, 16512, Note_off_c, 0, 59, 0
2, 16512, Note_on_c, 0, 58, 93
2, 16560, Note_off_c, 0, 58, 0
2, 16560, Note_on_c, 0, 64, 93
2, 16608, Note_off_c, 0, 64, 0
2, 16608, Note_on_c, 0, 59, 93
2, 16656, Note_off_c, 0, 59, 0
2, 16656, Note_on_c, 0, 62, 93
2, 16704, Note_off_c, 0, 62, 0
2, 16704, Note_on_c, 0, 52, 93
2, 16752, Note_off_c, 0, 52, 0
2, 16752, Note_on_c, 0, 61, 93
2, 16800, Note_off_c, 0, 61, 0
2, 16800, Note_on_c, 0, 54, 93
2, 16848, Note_off_c, 0, 54, 0
2, 16848, Note_on_c, 0, 58, 93
2, 16896, Note_off_c, 0, 58, 0
2, 16896, Note_on_c, 0, 59, 93
2, 17088, Note_off_c, 0, 59, 0
2, 17088, Note_on_c, 0, 62, 93
2, 17184, Note_off_c, 0, 62, 0
2, 17184, Note_on_c, 0, 62, 93
2, 17280, Note_off_c, 0, 62, 0
2, 17280, Note_on_c, 0, 62, 93
2, 17376, Note_off_c, 0, 62, 0
2, 17376, Note_on_c, 0, 61, 93
2, 17424, Note_off_c, 0, 61, 0
2, 17424, Note_on_c, 0, 59, 93
2, 17472, Note_off_c, 0, 59, 0
2, 17472, Note_on_c, 0, 61, 93
2, 17520, Note_off_c, 0, 61, 0
2, 17520, Note_on_c, 0, 62, 93
2, 17568, Note_off_c, 0, 62, 0
2, 17568, Note_on_c, 0, 64, 93
2, 17664, Note_off_c, 0, 64, 0
2, 17664, Note_on_c, 0, 62, 93
2, 17712, Note_off_c, 0, 62, 0
2, 17712, Note_on_c, 0, 61, 93
2, 17760, Note_off_c, 0, 61, 0
2, 17760, Note_on_c, 0, 59, 93
2, 17808, Note_off_c, 0, 59, 0
2, 17808, Note_on_c, 0, 57, 93
2, 17856, Note_off_c, 0, 57, 0
2, 17856, Note_on_c, 0, 59, 93
2, 17904, Note_off_c, 0, 59, 0
2, 17904, Note_on_c, 0, 61, 93
2, 17952, Note_off_c, 0, 61, 0
2, 17952, Note_on_c, 0, 62, 93
2, 18000, Note_off_c, 0, 62, 0
2, 18000, Note_on_c, 0, 61, 93
2, 18048, Note_off_c, 0, 61, 0
2, 18048, Note_on_c, 0, 64, 93
2, 18096, Note_off_c, 0, 64, 0
2, 18096, Note_on_c, 0, 62, 93
2, 18144, Note_off_c, 0, 62, 0
2, 18144, Note_on_c, 0, 66, 93
2, 18192, Note_off_c, 0, 66, 0
2, 18192, Note_on_c, 0, 64, 93
2, 18240, Note_off_c, 0, 64, 0
2, 18240, Note_on_c, 0, 67, 93
2, 18288, Note_off_c, 0, 67, 0
2, 18288, Note_on_c, 0, 66, 93
2, 18336, Note_off_c, 0, 66, 0
2, 18336, Note_on_c, 0, 69, 93
2, 18432, Note_off_c, 0, 69, 0
2, 18432, Note_on_c, 0, 64, 93
2, 18624, Note_off_c, 0, 64, 0
2, 18624, Note_on_c, 0, 66, 93
2, 18720, Note_off_c, 0, 66, 0
2, 18720, Note_on_c, 0, 66, 93
2, 18816, Note_off_c, 0, 66, 0
2, 18816, Note_on_c, 0, 66, 93
2, 18912, Note_off_c, 0, 66, 0
2, 18912, Note_on_c, 0, 64, 93
2, 18960, Note_off_c, 0, 64, 0
2, 18960, Note_on_c, 0, 62, 93
2, 19008, Note_off_c, 0, 62, 0
2, 19008, Note_on_c, 0, 64, 93
2, 19056, Note_off_c, 0, 64, 0
2, 19056, Note_on_c, 0, 66, 93
2, 19104, Note_off_c, 0, 66, 0
2, 19104, Note_on_c, 0, 67, 93
2, 19200, Note_off_c, 0, 67, 0
2, 19200, Note_on_c, 0, 62, 93
2, 19248, Note_off_c, 0, 62, 0
2, 19248, Note_on_c, 0, 61, 93
2, 19296, Note_off_c, 0, 61, 0
2, 19296, Note_on_c, 0, 59, 93
2, 19344, Note_off_c, 0, 59, 0
2, 19344, Note_on_c, 0, 57, 93
2, 19392, Note_off_c, 0, 57, 0
2, 19392, Note_on_c, 0, 69, 93
2, 19488, Note_off_c, 0, 69, 0
2, 19488, Note_on_c, 0, 69, 93
2, 19584, Note_off_c, 0, 69, 0
2, 19584, Note_on_c, 0, 69, 93
2, 19680, Note_off_c, 0, 69, 0
2, 19680, Note_on_c, 0, 71, 93
2, 19728, Note_off_c, 0, 71, 0
2, 19728, Note_on_c, 0, 69, 93
2, 19776, Note_off_c, 0, 69, 0
2, 19776, Note_on_c, 0, 67, 93
2, 19824, Note_off_c, 0, 67, 0
2, 19824, Note_on_c, 0, 66, 93
2, 19872, Note_off_c, 0, 66, 0
2, 19872, Note_on_c, 0, 64, 93
2, 19920, Note_off_c, 0, 64, 0
2, 19920, Note_on_c, 0, 66, 93
2, 19968, Note_off_c, 0, 66, 0
2, 19968, Note_on_c, 0, 67, 93
2, 20016, Note_off_c, 0, 67, 0
2, 20016, Note_on_c, 0, 66, 93
2, 20064, Note_off_c, 0, 66, 0
2, 20064, Note_on_c, 0, 64, 93
2, 20112, Note_off_c, 0, 64, 0
2, 20112, Note_on_c, 0, 62, 93
2, 20160, Note_off_c, 0, 62, 0
2, 20160, Note_on_c, 0, 66, 93
2, 20256, Note_off_c, 0, 66, 0
2, 20256, Note_on_c, 0, 66, 93
2, 20352, Note_off_c, 0, 66, 0
2, 20352, Note_on_c, 0, 66, 93
2, 20400, Note_off_c, 0, 66, 0
2, 20400, Note_on_c, 0, 69, 93
2, 20448, Note_off_c, 0, 69, 0
2, 20448, Note_on_c, 0, 67, 93
2, 20496, Note_off_c, 0, 67, 0
2, 20496, Note_on_c, 0, 66, 93
2, 20544, Note_off_c, 0, 66, 0
2, 20544, Note_on_c, 0, 64, 93
2, 20592, Note_off_c, 0, 64, 0
2, 20592, Note_on_c, 0, 62, 93
2, 20640, Note_off_c, 0, 62, 0
2, 20640, Note_on_c, 0, 61, 93
2, 20688, Note_off_c, 0, 61, 0
2, 20688, Note_on_c, 0, 59, 93
2, 20736, Note_off_c, 0, 59, 0
2, 20736, Note_on_c, 0, 61, 93
2, 20784, Note_off_c, 0, 61, 0
2, 20784, Note_on_c, 0, 71, 93
2, 20832, Note_off_c, 0, 71, 0
2, 20832, Note_on_c, 0, 69, 93
2, 20880, Note_off_c, 0, 69, 0
2, 20880, Note_on_c, 0, 67, 93
2, 20928, Note_off_c, 0, 67, 0
2, 20928, Note_on_c, 0, 66, 93
2, 20976, Note_off_c, 0, 66, 0
2, 20976, Note_on_c, 0, 64, 93
2, 21024, Note_off_c, 0, 64, 0
2, 21024, Note_on_c, 0, 62, 93
2, 21072, Note_off_c, 0, 62, 0
2, 21072, Note_on_c, 0, 61, 93
2, 21120, Note_off_c, 0, 61, 0
2, 21120, Note_on_c, 0, 59, 93
2, 21168, Note_off_c, 0, 59, 0
2, 21168, Note_on_c, 0, 57, 93
2, 21216, Note_off_c, 0, 57, 0
2, 21216, Note_on_c, 0, 69, 93
2, 21312, Note_off_c, 0, 69, 0
2, 21312, Note_on_c, 0, 66, 93
2, 21408, Note_off_c, 0, 66, 0
2, 21408, Note_on_c, 0, 64, 93
2, 21456, Note_off_c, 0, 64, 0
2, 21456, Note_on_c, 0, 62, 93
2, 21504, Note_off_c, 0, 62, 0
2, 21504, Note_on_c, 0, 62, 93
2, 21696, Note_off_c, 0, 62, 0
2, 21696, Note_on_c, 0, 66, 93
2, 21744, Note_off_c, 0, 66, 0
2, 21744, Note_on_c, 0, 64, 93
2, 21792, Note_off_c, 0, 64, 0
2, 21792, Note_on_c, 0, 66, 93
2, 21888, Note_off_c, 0, 66, 0
2, 21888, Note_on_c, 0, 57, 93
2, 21984, Note_off_c, 0, 57, 0
2, 21984, Note_on_c, 0, 57, 93
2, 22080, Note_off_c, 0, 57, 0
2, 22080, Note_on_c, 0, 59, 93
2, 22176, Note_off_c, 0, 59, 0
2, 22176, Note_on_c, 0, 61, 93
2, 22272, Note_off_c, 0, 61, 0
2, 22272, Note_on_c, 0, 62, 93
2, 22320, Note_off_c, 0, 62, 0
2, 22320, Note_on_c, 0, 61, 93
2, 22368, Note_off_c, 0, 61, 0
2, 22368, Note_on_c, 0, 62, 93
2, 22416, Note_off_c, 0, 62, 0
2, 22416, Note_on_c, 0, 64, 93
2, 22464, Note_off_c, 0, 64, 0
2, 22464, Note_on_c, 0, 62, 93
2, 22512, Note_off_c, 0, 62, 0
2, 22512, Note_on_c, 0, 64, 93
2, 22560, Note_off_c, 0, 64, 0
2, 22560, Note_on_c, 0, 66, 93
2, 22656, Note_off_c, 0, 66, 0
2, 22656, Note_on_c, 0, 57, 93
2, 22752, Note_off_c, 0, 57, 0
2, 22752, Note_on_c, 0, 57, 93
2, 22848, Note_off_c, 0, 57, 0
2, 22848, Note_on_c, 0, 59, 93
2, 22944, Note_off_c, 0, 59, 0
2, 22944, Note_on_c, 0, 61, 93
2, 23040, Note_off_c, 0, 61, 0
2, 23040, Note_on_c, 0, 62, 93
2, 23232, Note_off_c, 0, 62, 0
2, 23232, Note_on_c, 0, 66, 93
2, 23280, Note_off_c, 0, 66, 0
2, 23280, Note_on_c, 0, 64, 93
2, 23328, Note_off_c, 0, 64, 0
2, 23328, Note_on_c, 0, 66, 93
2, 23424, Note_off_c, 0, 66, 0
2, 23424, Note_on_c, 0, 57, 93
2, 23520, Note_off_c, 0, 57, 0
2, 23520, Note_on_c, 0, 57, 93
2, 23616, Note_off_c, 0, 57, 0
2, 23616, Note_on_c, 0, 59, 93
2, 23712, Note_off_c, 0, 59, 0
2, 23712, Note_on_c, 0, 61, 93
2, 23808, Note_off_c, 0, 61, 0
2, 23808, Note_on_c, 0, 62, 93
2, 23856, Note_off_c, 0, 62, 0
2, 23856, Note_on_c, 0, 61, 93
2, 23904, Note_off_c, 0, 61, 0
2, 23904, Note_on_c, 0, 62, 93
2, 23952, Note_off_c, 0, 62, 0
2, 23952, Note_on_c, 0, 64, 93
2, 24000, Note_off_c, 0, 64, 0
2, 24000, Note_on_c, 0, 62, 93
2, 24048, Note_off_c, 0, 62, 0
2, 24048, Note_on_c, 0, 64, 93
2, 24096, Note_off_c, 0, 64, 0
2, 24096, Note_on_c, 0, 66, 93
2, 24192, Note_off_c, 0, 66, 0
2, 24192, Note_on_c, 0, 57, 93
2, 24288, Note_off_c, 0, 57, 0
2, 24288, Note_on_c, 0, 57, 93
2, 24384, Note_off_c, 0, 57, 0
2, 24384, Note_on_c, 0, 59, 93
2, 24480, Note_off_c, 0, 59, 0
2, 24480, Note_on_c, 0, 61, 93
2, 24576, Note_off_c, 0, 61, 0
2, 24576, Note_on_c, 0, 62, 93
2, 24768, Note_off_c, 0, 62, 0
2, 24768, Note_on_c, 0, 57, 93
2, 24816, Note_off_c, 0, 57, 0
2, 24816, Note_on_c, 0, 55, 93
2, 24864, Note_off_c, 0, 55, 0
2, 24864, Note_on_c, 0, 57, 93
2, 24960, Note_off_c, 0, 57, 0
2, 24960, Note_on_c, 0, 59, 93
2, 25056, Note_off_c, 0, 59, 0
2, 25056, Note_on_c, 0, 62, 93
2, 25152, Note_off_c, 0, 62, 0
2, 25152, Note_on_c, 0, 62, 93
2, 25200, Note_off_c, 0, 62, 0
2, 25200, Note_on_c, 0, 60, 93
2, 25248, Note_off_c, 0, 60, 0
2, 25248, Note_on_c, 0, 59, 93
2, 25296, Note_off_c, 0, 59, 0
2, 25296, Note_on_c, 0, 57, 93
2, 25344, Note_off_c, 0, 57, 0
2, 25344, Note_on_c, 0, 59, 93
2, 25536, Note_off_c, 0, 59, 0
2, 25536, Note_on_c, 0, 57, 93
2, 25632, Note_off_c, 0, 57, 0
2, 25632, Note_on_c, 0, 62, 93
2, 25728, Note_off_c, 0, 62, 0
2, 25728, Note_on_c, 0, 59, 93
2, 25824, Note_off_c, 0, 59, 0
2, 25824, Note_on_c, 0, 62, 93
2, 25920, Note_off_c, 0, 62, 0
2, 25920, Note_on_c, 0, 61, 93
2, 25968, Note_off_c, 0, 61, 0
2, 25968, Note_on_c, 0, 59, 93
2, 26016, Note_off_c, 0, 59, 0
2, 26016, Note_on_c, 0, 61, 93
2, 26064, Note_off_c, 0, 61, 0
2, 26064, Note_on_c, 0, 62, 93
2, 26112, Note_off_c, 0, 62, 0
2, 26112, Note_on_c, 0, 64, 93
2, 26304, Note_off_c, 0, 64, 0
2, 26304, Note_on_c, 0, 66, 93
2, 26352, Note_off_c, 0, 66, 0
2, 26352, Note_on_c, 0, 64, 93
2, 26400, Note_off_c, 0, 64, 0
2, 26400, Note_on_c, 0, 66, 93
2, 26496, Note_off_c, 0, 66, 0
2, 26496, Note_on_c, 0, 57, 93
2, 26592, Note_off_c, 0, 57, 0
2, 26592, Note_on_c, 0, 57, 93
2, 26688, Note_off_c, 0, 57, 0
2, 26688, Note_on_c, 0, 59, 93
2, 26784, Note_off_c, 0, 59, 0
2, 26784, Note_on_c, 0, 61, 93
2, 26880, Note_off_c, 0, 61, 0
2, 26880, Note_on_c, 0, 62, 93
2, 26928, Note_off_c, 0, 62, 0
2, 26928, Note_on_c, 0, 61, 93
2, 26976, Note_off_c, 0, 61, 0
2, 26976, Note_on_c, 0, 62, 93
2, 27024, Note_off_c, 0, 62, 0
2, 27024, Note_on_c, 0, 64, 93
2, 27072, Note_off_c, 0, 64, 0
2, 27072, Note_on_c, 0, 62, 93
2, 27120, Note_off_c, 0, 62, 0
2, 27120, Note_on_c, 0, 64, 93
2, 27168, Note_off_c, 0, 64, 0
2, 27168, Note_on_c, 0, 66, 93
2, 27264, Note_off_c, 0, 66, 0
2, 27264, Note_on_c, 0, 57, 93
2, 27360, Note_off_c, 0, 57, 0
2, 27360, Note_on_c, 0, 57, 93
2, 27456, Note_off_c, 0, 57, 0
2, 27456, Note_on_c, 0, 59, 93
2, 27552, Note_off_c, 0, 59, 0
2, 27552, Note_on_c, 0, 61, 93
2, 27648, Note_off_c, 0, 61, 0
2, 27648, Note_on_c, 0, 62, 93
2, 27840, Note_off_c, 0, 62, 0
2, 27840, Note_on_c, 0, 62, 93
2, 27888, Note_off_c, 0, 62, 0
2, 27936, Note_on_c, 0, 62, 93
2, 27984, Note_off_c, 0, 62, 0
2, 27984, Note_on_c, 0, 64, 93
2, 28032, Note_off_c, 0, 64, 0
2, 28032, Note_on_c, 0, 66, 93
2, 28080, Note_off_c, 0, 66, 0
2, 28128, Note_on_c, 0, 67, 93
2, 28176, Note_off_c, 0, 67, 0
2, 28224, Note_on_c, 0, 66, 93
2, 28272, Note_off_c, 0, 66, 0
2, 28320, Note_on_c, 0, 64, 93
2, 28368, Note_off_c, 0, 64, 0
2, 28416, Note_on_c, 0, 66, 93
2, 28464, Note_off_c, 0, 66, 0
2, 28512, Note_on_c, 0, 69, 93
2, 28560, Note_off_c, 0, 69, 0
2, 28608, Note_on_c, 0, 67, 93
2, 28656, Note_off_c, 0, 67, 0
2, 28704, Note_on_c, 0, 64, 93
2, 28752, Note_off_c, 0, 64, 0
2, 28800, Note_on_c, 0, 66, 93
2, 28848, Note_off_c, 0, 66, 0
2, 28896, Note_on_c, 0, 64, 93
2, 28944, Note_off_c, 0, 64, 0
2, 28944, Note_on_c, 0, 62, 93
2, 28992, Note_off_c, 0, 62, 0
2, 28992, Note_on_c, 0, 61, 93
2, 29040, Note_off_c, 0, 61, 0
2, 29040, Note_on_c, 0, 62, 93
2, 29088, Note_off_c, 0, 62, 0
2, 29088, Note_on_c, 0, 64, 93
2, 29136, Note_off_c, 0, 64, 0
2, 29136, Note_on_c, 0, 61, 93
2, 29184, Note_off_c, 0, 61, 0
2, 29184, Note_on_c, 0, 62, 93
2, 29232, Note_off_c, 0, 62, 0
2, 29280, Note_on_c, 0, 62, 93
2, 29328, Note_off_c, 0, 62, 0
2, 29376, Note_on_c, 0, 62, 93
2, 29424, Note_off_c, 0, 62, 0
2, 29472, Note_on_c, 0, 62, 93
2, 29520, Note_off_c, 0, 62, 0
2, 29520, Note_on_c, 0, 64, 93
2, 29568, Note_off_c, 0, 64, 0
2, 29568, Note_on_c, 0, 66, 93
2, 29616, Note_off_c, 0, 66, 0
2, 29664, Note_on_c, 0, 67, 93
2, 29712, Note_off_c, 0, 67, 0
2, 29760, Note_on_c, 0, 66, 93
2, 29808, Note_off_c, 0, 66, 0
2, 29856, Note_on_c, 0, 64, 93
2, 29904, Note_off_c, 0, 64, 0
2, 29952, Note_on_c, 0, 66, 93
2, 30000, Note_off_c, 0, 66, 0
2, 30048, Note_on_c, 0, 69, 93
2, 30096, Note_off_c, 0, 69, 0
2, 30144, Note_on_c, 0, 67, 93
2, 30192, Note_off_c, 0, 67, 0
2, 30240, Note_on_c, 0, 64, 93
2, 30288, Note_off_c, 0, 64, 0
2, 30336, Note_on_c, 0, 66, 93
2, 30384, Note_off_c, 0, 66, 0
2, 30432, Note_on_c, 0, 64, 93
2, 30480, Note_off_c, 0, 64, 0
2, 30480, Note_on_c, 0, 62, 93
2, 30528, Note_off_c, 0, 62, 0
2, 30528, Note_on_c, 0, 61, 93
2, 30576, Note_off_c, 0, 61, 0
2, 30576, Note_on_c, 0, 62, 93
2, 30624, Note_off_c, 0, 62, 0
2, 30624, Note_on_c, 0, 64, 93
2, 30672, Note_off_c, 0, 64, 0
2, 30672, Note_on_c, 0, 61, 93
2, 30720, Note_off_c, 0, 61, 0
2, 30720, Note_on_c, 0, 57, 93
2, 30912, Note_off_c, 0, 57, 0
2, 30912, Note_on_c, 0, 66, 93
2, 30960, Note_off_c, 0, 66, 0
2, 30960, Note_on_c, 0, 64, 93
2, 31008, Note_off_c, 0, 64, 0
2, 31008, Note_on_c, 0, 66, 93
2, 31104, Note_off_c, 0, 66, 0
2, 31104, Note_on_c, 0, 57, 93
2, 31200, Note_off_c, 0, 57, 0
2, 31200, Note_on_c, 0, 57, 93
2, 31296, Note_off_c, 0, 57, 0
2, 31296, Note_on_c, 0, 59, 93
2, 31392, Note_off_c, 0, 59, 0
2, 31392, Note_on_c, 0, 61, 93
2, 31488, Note_off_c, 0, 61, 0
2, 31488, Note_on_c, 0, 62, 93
2, 31536, Note_off_c, 0, 62, 0
2, 31536, Note_on_c, 0, 61, 93
2, 31584, Note_off_c, 0, 61, 0
2, 31584, Note_on_c, 0, 62, 93
2, 31632, Note_off_c, 0, 62, 0
2, 31632, Note_on_c, 0, 64, 93
2, 31680, Note_off_c, 0, 64, 0
2, 31680, Note_on_c, 0, 62, 93
2, 31728, Note_off_c, 0, 62, 0
2, 31728, Note_on_c, 0, 64, 93
2, 31776, Note_off_c, 0, 64, 0
2, 31776, Note_on_c, 0, 66, 93
2, 31872, Note_off_c, 0, 66, 0
2, 31872, Note_on_c, 0, 57, 93
2, 31968, Note_off_c, 0, 57, 0
2, 31968, Note_on_c, 0, 57, 93
2, 32064, Note_off_c, 0, 57, 0
2, 32064, Note_on_c, 0, 59, 93
2, 32160, Note_off_c, 0, 59, 0
2, 32160, Note_on_c, 0, 61, 93
2, 32256, Note_off_c, 0, 61, 0
2, 32256, Note_on_c, 0, 62, 93
2, 32448, Note_off_c, 0, 62, 0
2, 32448, Note_on_c, 0, 57, 93
2, 32496, Note_off_c, 0, 57, 0
2, 32496, Note_on_c, 0, 55, 93
2, 32544, Note_off_c, 0, 55, 0
2, 32544, Note_on_c, 0, 57, 93
2, 32640, Note_off_c, 0, 57, 0
2, 32640, Note_on_c, 0, 59, 93
2, 32736, Note_off_c, 0, 59, 0
2, 32736, Note_on_c, 0, 62, 93
2, 32832, Note_off_c, 0, 62, 0
2, 32832, Note_on_c, 0, 62, 93
2, 32880, Note_off_c, 0, 62, 0
2, 32880, Note_on_c, 0, 60, 93
2, 32928, Note_off_c, 0, 60, 0
2, 32928, Note_on_c, 0, 59, 93
2, 32976, Note_off_c, 0, 59, 0
2, 32976, Note_on_c, 0, 57, 93
2, 33024, Note_off_c, 0, 57, 0
2, 33024, Note_on_c, 0, 59, 93
2, 33216, Note_off_c, 0, 59, 0
2, 33216, Note_on_c, 0, 57, 93
2, 33312, Note_off_c, 0, 57, 0
2, 33312, Note_on_c, 0, 62, 93
2, 33408, Note_off_c, 0, 62, 0
2, 33408, Note_on_c, 0, 59, 93
2, 33504, Note_off_c, 0, 59, 0
2, 33504, Note_on_c, 0, 62, 93
2, 33600, Note_off_c, 0, 62, 0
2, 33600, Note_on_c, 0, 61, 93
2, 33648, Note_off_c, 0, 61, 0
2, 33648, Note_on_c, 0, 59, 93
2, 33696, Note_off_c, 0, 59, 0
2, 33696, Note_on_c, 0, 61, 93
2, 33744, Note_off_c, 0, 61, 0
2, 33744, Note_on_c, 0, 62, 93
2, 33792, Note_off_c, 0, 62, 0
2, 33792, Note_on_c, 0, 64, 93
2, 33984, Note_off_c, 0, 64, 0
2, 33984, Note_on_c, 0, 66, 93
2, 34032, Note_off_c, 0, 66, 0
2, 34032, Note_on_c, 0, 64, 93
2, 34080, Note_off_c, 0, 64, 0
2, 34080, Note_on_c, 0, 66, 93
2, 34176, Note_off_c, 0, 66, 0
2, 34176, Note_on_c, 0, 57, 93
2, 34272, Note_off_c, 0, 57, 0
2, 34272, Note_on_c, 0, 57, 93
2, 34368, Note_off_c, 0, 57, 0
2, 34368, Note_on_c, 0, 59, 93
2, 34464, Note_off_c, 0, 59, 0
2, 34464, Note_on_c, 0, 61, 93
2, 34560, Note_off_c, 0, 61, 0
2, 34560, Note_on_c, 0, 62, 93
2, 34608, Note_off_c, 0, 62, 0
2, 34608, Note_on_c, 0, 61, 93
2, 34656, Note_off_c, 0, 61, 0
2, 34656, Note_on_c, 0, 62, 93
2, 34704, Note_off_c, 0, 62, 0
2, 34704, Note_on_c, 0, 64, 93
2, 34752, Note_off_c, 0, 64, 0
2, 34752, Note_on_c, 0, 62, 93
2, 34800, Note_off_c, 0, 62, 0
2, 34800, Note_on_c, 0, 64, 93
2, 34848, Note_off_c, 0, 64, 0
2, 34848, Note_on_c, 0, 66, 93
2, 34944, Note_off_c, 0, 66, 0
2, 34944, Note_on_c, 0, 57, 93
2, 35040, Note_off_c, 0, 57, 0
2, 35040, Note_on_c, 0, 57, 93
2, 35136, Note_off_c, 0, 57, 0
2, 35136, Note_on_c, 0, 59, 93
2, 35232, Note_off_c, 0, 59, 0
2, 35232, Note_on_c, 0, 61, 93
2, 35328, Note_off_c, 0, 61, 0
2, 35328, Note_on_c, 0, 62, 93
2, 35520, Note_off_c, 0, 62, 0
2, 35520, Note_on_c, 0, 62, 93
2, 35568, Note_off_c, 0, 62, 0
2, 35616, Note_on_c, 0, 62, 93
2, 35664, Note_off_c, 0, 62, 0
2, 35664, Note_on_c, 0, 64, 93
2, 35712, Note_off_c, 0, 64, 0
2, 35712, Note_on_c, 0, 66, 93
2, 35760, Note_off_c, 0, 66, 0
2, 35808, Note_on_c, 0, 67, 93
2, 35856, Note_off_c, 0, 67, 0
2, 35904, Note_on_c, 0, 66, 93
2, 35952, Note_off_c, 0, 66, 0
2, 36000, Note_on_c, 0, 64, 93
2, 36048, Note_off_c, 0, 64, 0
2, 36096, Note_on_c, 0, 66, 93
2, 36144, Note_off_c, 0, 66, 0
2, 36192, Note_on_c, 0, 69, 93
2, 36240, Note_off_c, 0, 69, 0
2, 36288, Note_on_c, 0, 67, 93
2, 36336, Note_off_c, 0, 67, 0
2, 36384, Note_on_c, 0, 64, 93
2, 36432, Note_off_c, 0, 64, 0
2, 36480, Note_on_c, 0, 66, 93
2, 36528, Note_off_c, 0, 66, 0
2, 36576, Note_on_c, 0, 64, 93
2, 36624, Note_off_c, 0, 64, 0
2, 36624, Note_on_c, 0, 62, 93
2, 36672, Note_off_c, 0, 62, 0
2, 36672, Note_on_c, 0, 61, 93
2, 36720, Note_off_c, 0, 61, 0
2, 36720, Note_on_c, 0, 62, 93
2, 36768, Note_off_c, 0, 62, 0
2, 36768, Note_on_c, 0, 64, 93
2, 36816, Note_off_c, 0, 64, 0
2, 36816, Note_on_c, 0, 61, 93
2, 36864, Note_off_c, 0, 61, 0
2, 36864, Note_on_c, 0, 62, 93
2, 36912, Note_off_c, 0, 62, 0
2, 36960, Note_on_c, 0, 62, 93
2, 37008, Note_off_c, 0, 62, 0
2, 37056, Note_on_c, 0, 62, 93
2, 37104, Note_off_c, 0, 62, 0
2, 37152, Note_on_c, 0, 62, 93
2, 37200, Note_off_c, 0, 62, 0
2, 37200, Note_on_c, 0, 64, 93
2, 37248, Note_off_c, 0, 64, 0
2, 37248, Note_on_c, 0, 66, 93
2, 37296, Note_off_c, 0, 66, 0
2, 37344, Note_on_c, 0, 67, 93
2, 37392, Note_off_c, 0, 67, 0
2, 37440, Note_on_c, 0, 66, 93
2, 37488, Note_off_c, 0, 66, 0
2, 37536, Note_on_c, 0, 64, 93
2, 37584, Note_off_c, 0, 64, 0
2, 37632, Note_on_c, 0, 66, 93
2, 37680, Note_off_c, 0, 66, 0
2, 37728, Note_on_c, 0, 69, 93
2, 37776, Note_off_c, 0, 69, 0
2, 37824, Note_on_c, 0, 67, 93
2, 37872, Note_off_c, 0, 67, 0
2, 37920, Note_on_c, 0, 64, 93
2, 37968, Note_off_c, 0, 64, 0
2, 38016, Note_on_c, 0, 66, 93
2, 38064, Note_off_c, 0, 66, 0
2, 38112, Note_on_c, 0, 64, 93
2, 38160, Note_off_c, 0, 64, 0
2, 38160, Note_on_c, 0, 62, 93
2, 38208, Note_off_c, 0, 62, 0
2, 38208, Note_on_c, 0, 61, 93
2, 38256, Note_off_c, 0, 61, 0
2, 38256, Note_on_c, 0, 62, 93
2, 38304, Note_off_c, 0, 62, 0
2, 38304, Note_on_c, 0, 64, 93
2, 38352, Note_off_c, 0, 64, 0
2, 38352, Note_on_c, 0, 61, 93
2, 38400, Note_off_c, 0, 61, 0
2, 38400, Note_on_c, 0, 57, 93
2, 38592, Note_off_c, 0, 57, 0
2, 38592, Note_on_c, 0, 66, 93
2, 38640, Note_off_c, 0, 66, 0
2, 38640, Note_on_c, 0, 64, 93
2, 38688, Note_off_c, 0, 64, 0
2, 38688, Note_on_c, 0, 66, 93
2, 38784, Note_off_c, 0, 66, 0
2, 38784, Note_on_c, 0, 57, 93
2, 38880, Note_off_c, 0, 57, 0
2, 38880, Note_on_c, 0, 57, 93
2, 38976, Note_off_c, 0, 57, 0
2, 38976, Note_on_c, 0, 59, 93
2, 39072, Note_off_c, 0, 59, 0
2, 39072, Note_on_c, 0, 61, 93
2, 39168, Note_off_c, 0, 61, 0
2, 39168, Note_on_c, 0, 62, 93
2, 39216, Note_off_c, 0, 62, 0
2, 39216, Note_on_c, 0, 61, 93
2, 39264, Note_off_c, 0, 61, 0
2, 39264, Note_on_c, 0, 62, 93
2, 39312, Note_off_c, 0, 62, 0
2, 39312, Note_on_c, 0, 64, 93
2, 39360, Note_off_c, 0, 64, 0
2, 39360, Note_on_c, 0, 62, 93
2, 39408, Note_off_c, 0, 62, 0
2, 39408, Note_on_c, 0, 64, 93
2, 39456, Note_off_c, 0, 64, 0
2, 39456, Note_on_c, 0, 66, 93
2, 39552, Note_off_c, 0, 66, 0
2, 39552, Note_on_c, 0, 57, 93
2, 39648, Note_off_c, 0, 57, 0
2, 39648, Note_on_c, 0, 57, 93
2, 39744, Note_off_c, 0, 57, 0
2, 39744, Note_on_c, 0, 59, 93
2, 39840, Note_off_c, 0, 59, 0
2, 39840, Note_on_c, 0, 61, 93
2, 39936, Note_off_c, 0, 61, 0
2, 39936, Note_on_c, 0, 62, 93
2, 40128, Note_off_c, 0, 62, 0
2, 40128, Note_on_c, 0, 66, 93
2, 40224, Note_off_c, 0, 66, 0
2, 40224, Note_on_c, 0, 66, 93
2, 40320, Note_off_c, 0, 66, 0
2, 40320, Note_on_c, 0, 66, 93
2, 40416, Note_off_c, 0, 66, 0
2, 40416, Note_on_c, 0, 64, 93
2, 40464, Note_off_c, 0, 64, 0
2, 40464, Note_on_c, 0, 62, 93
2, 40512, Note_off_c, 0, 62, 0
2, 40512, Note_on_c, 0, 64, 93
2, 40560, Note_off_c, 0, 64, 0
2, 40560, Note_on_c, 0, 66, 93
2, 40608, Note_off_c, 0, 66, 0
2, 40608, Note_on_c, 0, 67, 93
2, 40704, Note_off_c, 0, 67, 0
2, 40704, Note_on_c, 0, 62, 93
2, 40752, Note_off_c, 0, 62, 0
2, 40752, Note_on_c, 0, 61, 93
2, 40800, Note_off_c, 0, 61, 0
2, 40800, Note_on_c, 0, 59, 93
2, 40848, Note_off_c, 0, 59, 0
2, 40848, Note_on_c, 0, 57, 93
2, 40896, Note_off_c, 0, 57, 0
2, 40896, Note_on_c, 0, 69, 93
2, 40992, Note_off_c, 0, 69, 0
2, 40992, Note_on_c, 0, 69, 93
2, 41088, Note_off_c, 0, 69, 0
2, 41088, Note_on_c, 0, 69, 93
2, 41184, Note_off_c, 0, 69, 0
2, 41184, Note_on_c, 0, 71, 93
2, 41232, Note_off_c, 0, 71, 0
2, 41232, Note_on_c, 0, 69, 93
2, 41280, Note_off_c, 0, 69, 0
2, 41280, Note_on_c, 0, 67, 93
2, 41328, Note_off_c, 0, 67, 0
2, 41328, Note_on_c, 0, 66, 93
2, 41376, Note_off_c, 0, 66, 0
2, 41376, Note_on_c, 0, 64, 93
2, 41424, Note_off_c, 0, 64, 0
2, 41424, Note_on_c, 0, 66, 93
2, 41472, Note_off_c, 0, 66, 0
2, 41472, Note_on_c, 0, 67, 93
2, 41520, Note_off_c, 0, 67, 0
2, 41520, Note_on_c, 0, 66, 93
2, 41568, Note_off_c, 0, 66, 0
2, 41568, Note_on_c, 0, 64, 93
2, 41616, Note_off_c, 0, 64, 0
2, 41616, Note_on_c, 0, 62, 93
2, 41664, Note_off_c, 0, 62, 0
2, 41664, Note_on_c, 0, 66, 93
2, 41760, Note_off_c, 0, 66, 0
2, 41760, Note_on_c, 0, 66, 93
2, 41856, Note_off_c, 0, 66, 0
2, 41856, Note_on_c, 0, 66, 93
2, 41952, Note_off_c, 0, 66, 0
2, 41952, Note_on_c, 0, 64, 93
2, 42000, Note_off_c, 0, 64, 0
2, 42000, Note_on_c, 0, 62, 93
2, 42048, Note_off_c, 0, 62, 0
2, 42048, Note_on_c, 0, 64, 93
2, 42096, Note_off_c, 0, 64, 0
2, 42096, Note_on_c, 0, 66, 93
2, 42144, Note_off_c, 0, 66, 0
2, 42144, Note_on_c, 0, 67, 93
2, 42240, Note_off_c, 0, 67, 0
2, 42240, Note_on_c, 0, 62, 93
2, 42288, Note_off_c, 0, 62, 0
2, 42288, Note_on_c, 0, 61, 93
2, 42336, Note_off_c, 0, 61, 0
2, 42336, Note_on_c, 0, 59, 93
2, 42384, Note_off_c, 0, 59, 0
2, 42384, Note_on_c, 0, 57, 93
2, 42432, Note_off_c, 0, 57, 0
2, 42432, Note_on_c, 0, 62, 93
2, 42528, Note_off_c, 0, 62, 0
2, 42528, Note_on_c, 0, 62, 93
2, 42624, Note_off_c, 0, 62, 0
2, 42624, Note_on_c, 0, 62, 93
2, 42720, Note_off_c, 0, 62, 0
2, 42720, Note_on_c, 0, 61, 93
2, 42768, Note_off_c, 0, 61, 0
2, 42768, Note_on_c, 0, 62, 93
2, 42816, Note_off_c, 0, 62, 0
2, 42816, Note_on_c, 0, 61, 93
2, 42864, Note_off_c, 0, 61, 0
2, 42864, Note_on_c, 0, 59, 93
2, 42912, Note_off_c, 0, 59, 0
2, 42912, Note_on_c, 0, 64, 93
2, 43008, Note_off_c, 0, 64, 0
2, 43008, Note_on_c, 0, 61, 93
2, 43200, Note_off_c, 0, 61, 0
2, 43200, Note_on_c, 0, 69, 93
2, 43296, Note_off_c, 0, 69, 0
2, 43296, Note_on_c, 0, 69, 93
2, 43392, Note_off_c, 0, 69, 0
2, 43392, Note_on_c, 0, 69, 93
2, 43488, Note_off_c, 0, 69, 0
2, 43488, Note_on_c, 0, 71, 93
2, 43536, Note_off_c, 0, 71, 0
2, 43536, Note_on_c, 0, 69, 93
2, 43584, Note_off_c, 0, 69, 0
2, 43584, Note_on_c, 0, 67, 93
2, 43632, Note_off_c, 0, 67, 0
2, 43632, Note_on_c, 0, 66, 93
2, 43680, Note_off_c, 0, 66, 0
2, 43680, Note_on_c, 0, 71, 93
2, 43776, Note_off_c, 0, 71, 0
2, 43776, Note_on_c, 0, 69, 93
2, 43824, Note_off_c, 0, 69, 0
2, 43824, Note_on_c, 0, 67, 93
2, 43872, Note_off_c, 0, 67, 0
2, 43872, Note_on_c, 0, 66, 93
2, 43920, Note_off_c, 0, 66, 0
2, 43920, Note_on_c, 0, 64, 93
2, 43968, Note_off_c, 0, 64, 0
2, 43968, Note_on_c, 0, 57, 93
2, 44016, Note_off_c, 0, 57, 0
2, 44016, Note_on_c, 0, 67, 93
2, 44064, Note_off_c, 0, 67, 0
2, 44064, Note_on_c, 0, 66, 93
2, 44112, Note_off_c, 0, 66, 0
2, 44112, Note_on_c, 0, 64, 93
2, 44160, Note_off_c, 0, 64, 0
2, 44160, Note_on_c, 0, 55, 93
2, 44208, Note_off_c, 0, 55, 0
2, 44208, Note_on_c, 0, 63, 93
2, 44256, Note_off_c, 0, 63, 0
2, 44256, Note_on_c, 0, 64, 93
2, 44304, Note_off_c, 0, 64, 0
2, 44304, Note_on_c, 0, 67, 93
2, 44352, Note_off_c, 0, 67, 0
2, 44352, Note_on_c, 0, 57, 93
2, 44400, Note_off_c, 0, 57, 0
2, 44400, Note_on_c, 0, 66, 93
2, 44448, Note_off_c, 0, 66, 0
2, 44448, Note_on_c, 0, 59, 93
2, 44496, Note_off_c, 0, 59, 0
2, 44496, Note_on_c, 0, 63, 93
2, 44544, Note_off_c, 0, 63, 0
2, 44544, Note_on_c, 0, 52, 93
2, 44592, Note_off_c, 0, 52, 0
2, 44592, Note_on_c, 0, 59, 93
2, 44640, Note_off_c, 0, 59, 0
2, 44640, Note_on_c, 0, 64, 93
2, 44688, Note_off_c, 0, 64, 0
2, 44688, Note_on_c, 0, 66, 93
2, 44736, Note_off_c, 0, 66, 0
2, 44736, Note_on_c, 0, 67, 93
2, 44832, Note_off_c, 0, 67, 0
2, 44832, Note_on_c, 0, 67, 93
2, 44928, Note_off_c, 0, 67, 0
2, 44928, Note_on_c, 0, 49, 93
2, 44976, Note_off_c, 0, 49, 0
2, 44976, Note_on_c, 0, 52, 93
2, 45024, Note_off_c, 0, 52, 0
2, 45024, Note_on_c, 0, 57, 93
2, 45072, Note_off_c, 0, 57, 0
2, 45072, Note_on_c, 0, 59, 93
2, 45120, Note_off_c, 0, 59, 0
2, 45120, Note_on_c, 0, 61, 93
2, 45168, Note_off_c, 0, 61, 0
2, 45168, Note_on_c, 0, 62, 93
2, 45216, Note_off_c, 0, 62, 0
2, 45216, Note_on_c, 0, 64, 93
2, 45264, Note_off_c, 0, 64, 0
2, 45264, Note_on_c, 0, 66, 93
2, 45312, Note_off_c, 0, 66, 0
2, 45312, Note_on_c, 0, 67, 93
2, 45360, Note_off_c, 0, 67, 0
2, 45360, Note_on_c, 0, 66, 93
2, 45408, Note_off_c, 0, 66, 0
2, 45408, Note_on_c, 0, 64, 93
2, 45456, Note_off_c, 0, 64, 0
2, 45456, Note_on_c, 0, 62, 93
2, 45504, Note_off_c, 0, 62, 0
2, 45504, Note_on_c, 0, 61, 93
2, 45552, Note_off_c, 0, 61, 0
2, 45552, Note_on_c, 0, 62, 93
2, 45600, Note_off_c, 0, 62, 0
2, 45600, Note_on_c, 0, 64, 93
2, 45648, Note_off_c, 0, 64, 0
2, 45648, Note_on_c, 0, 59, 93
2, 45696, Note_off_c, 0, 59, 0
2, 45696, Note_on_c, 0, 58, 93
2, 45744, Note_off_c, 0, 58, 0
2, 45744, Note_on_c, 0, 64, 93
2, 45792, Note_off_c, 0, 64, 0
2, 45792, Note_on_c, 0, 59, 93
2, 45840, Note_off_c, 0, 59, 0
2, 45840, Note_on_c, 0, 62, 93
2, 45888, Note_off_c, 0, 62, 0
2, 45888, Note_on_c, 0, 52, 93
2, 45936, Note_off_c, 0, 52, 0
2, 45936, Note_on_c, 0, 61, 93
2, 45984, Note_off_c, 0, 61, 0
2, 45984, Note_on_c, 0, 54, 93
2, 46032, Note_off_c, 0, 54, 0
2, 46032, Note_on_c, 0, 58, 93
2, 46080, Note_off_c, 0, 58, 0
2, 46080, Note_on_c, 0, 59, 93
2, 46272, Note_off_c, 0, 59, 0
2, 46272, Note_on_c, 0, 62, 93
2, 46368, Note_off_c, 0, 62, 0
2, 46368, Note_on_c, 0, 62, 93
2, 46464, Note_off_c, 0, 62, 0
2, 46464, Note_on_c, 0, 62, 93
2, 46560, Note_off_c, 0, 62, 0
2, 46560, Note_on_c, 0, 61, 93
2, 46608, Note_off_c, 0, 61, 0
2, 46608, Note_on_c, 0, 59, 93
2, 46656, Note_off_c, 0, 59, 0
2, 46656, Note_on_c, 0, 61, 93
2, 46704, Note_off_c, 0, 61, 0
2, 46704, Note_on_c, 0, 62, 93
2, 46752, Note_off_c, 0, 62, 0
2, 46752, Note_on_c, 0, 64, 93
2, 46848, Note_off_c, 0, 64, 0
2, 46848, Note_on_c, 0, 62, 93
2, 46896, Note_off_c, 0, 62, 0
2, 46896, Note_on_c, 0, 61, 93
2, 46944, Note_off_c, 0, 61, 0
2, 46944, Note_on_c, 0, 59, 93
2, 46992, Note_off_c, 0, 59, 0
2, 46992, Note_on_c, 0, 57, 93
2, 47040, Note_off_c, 0, 57, 0
2, 47040, Note_on_c, 0, 59, 93
2, 47088, Note_off_c, 0, 59, 0
2, 47088, Note_on_c, 0, 61, 93
2, 47136, Note_off_c, 0, 61, 0
2, 47136, Note_on_c, 0, 62, 93
2, 47184, Note_off_c, 0, 62, 0
2, 47184, Note_on_c, 0, 61, 93
2, 47232, Note_off_c, 0, 61, 0
2, 47232, Note_on_c, 0, 64, 93
2, 47280, Note_off_c, 0, 64, 0
2, 47280, Note_on_c, 0, 62, 93
2, 47328, Note_off_c, 0, 62, 0
2, 47328, Note_on_c, 0, 66, 93
2, 47376, Note_off_c, 0, 66, 0
2, 47376, Note_on_c, 0, 64, 93
2, 47424, Note_off_c, 0, 64, 0
2, 47424, Note_on_c, 0, 67, 93
2, 47472, Note_off_c, 0, 67, 0
2, 47472, Note_on_c, 0, 66, 93
2, 47520, Note_off_c, 0, 66, 0
2, 47520, Note_on_c, 0, 69, 93
2, 47616, Note_off_c, 0, 69, 0
2, 47616, Note_on_c, 0, 64, 93
2, 47808, Note_off_c, 0, 64, 0
2, 47808, Note_on_c, 0, 66, 93
2, 47904, Note_off_c, 0, 66, 0
2, 47904, Note_on_c, 0, 66, 93
2, 48000, Note_off_c, 0, 66, 0
2, 48000, Note_on_c, 0, 66, 93
2, 48096, Note_off_c, 0, 66, 0
2, 48096, Note_on_c, 0, 64, 93
2, 48144, Note_off_c, 0, 64, 0
2, 48144, Note_on_c, 0, 62, 93
2, 48192, Note_off_c, 0, 62, 0
2, 48192, Note_on_c, 0, 64, 93
2, 48240, Note_off_c, 0, 64, 0
2, 48240, Note_on_c, 0, 66, 93
2, 48288, Note_off_c, 0, 66, 0
2, 48288, Note_on_c, 0, 67, 93
2, 48384, Note_off_c, 0, 67, 0
2, 48384, Note_on_c, 0, 62, 93
2, 48432, Note_off_c, 0, 62, 0
2, 48432, Note_on_c, 0, 61, 93
2, 48480, Note_off_c, 0, 61, 0
2, 48480, Note_on_c, 0, 59, 93
2, 48528, Note_off_c, 0, 59, 0
2, 48528, Note_on_c, 0, 57, 93
2, 48576, Note_off_c, 0, 57, 0
2, 48576, Note_on_c, 0, 69, 93
2, 48672, Note_off_c, 0, 69, 0
2, 48672, Note_on_c, 0, 69, 93
2, 48768, Note_off_c, 0, 69, 0
2, 48768, Note_on_c, 0, 69, 93
2, 48864, Note_off_c, 0, 69, 0
2, 48864, Note_on_c, 0, 71, 93
2, 48912, Note_off_c, 0, 71, 0
2, 48912, Note_on_c, 0, 69, 93
2, 48960, Note_off_c, 0, 69, 0
2, 48960, Note_on_c, 0, 67, 93
2, 49008, Note_off_c, 0, 67, 0
2, 49008, Note_on_c, 0, 66, 93
2, 49056, Note_off_c, 0, 66, 0
2, 49056, Note_on_c, 0, 64, 93
2, 49104, Note_off_c, 0, 64, 0
2, 49104, Note_on_c, 0, 66, 93
2, 49152, Note_off_c, 0, 66, 0
2, 49152, Note_on_c, 0, 67, 93
2, 49200, Note_off_c, 0, 67, 0
2, 49200, Note_on_c, 0, 66, 93
2, 49248, Note_off_c, 0, 66, 0
2, 49248, Note_on_c, 0, 64, 93
2, 49296, Note_off_c, 0, 64, 0
2, 49296, Note_on_c, 0, 62, 93
2, 49344, Note_off_c, 0, 62, 0
2, 49344, Note_on_c, 0, 66, 93
2, 49440, Note_off_c, 0, 66, 0
2, 49440, Note_on_c, 0, 66, 93
2, 49536, Note_off_c, 0, 66, 0
2, 49536, Note_on_c, 0, 66, 93
2, 49584, Note_off_c, 0, 66, 0
2, 49584, Note_on_c, 0, 69, 93
2, 49632, Note_off_c, 0, 69, 0
2, 49632, Note_on_c, 0, 67, 93
2, 49680, Note_off_c, 0, 67, 0
2, 49680, Note_on_c, 0, 66, 93
2, 49728, Note_off_c, 0, 66, 0
2, 49728, Note_on_c, 0, 64, 93
2, 49776, Note_off_c, 0, 64, 0
2, 49776, Note_on_c, 0, 62, 93
2, 49824, Note_off_c, 0, 62, 0
2, 49824, Note_on_c, 0, 61, 93
2, 49872, Note_off_c, 0, 61, 0
2, 49872, Note_on_c, 0, 59, 93
2, 49920, Note_off_c, 0, 59, 0
2, 49920, Note_on_c, 0, 61, 93
2, 49968, Note_off_c, 0, 61, 0
2, 49968, Note_on_c, 0, 71, 93
2, 50016, Note_off_c, 0, 71, 0
2, 50016, Note_on_c, 0, 69, 93
2, 50064, Note_off_c, 0, 69, 0
2, 50064, Note_on_c, 0, 67, 93
2, 50112, Note_off_c, 0, 67, 0
2, 50112, Note_on_c, 0, 66, 93
2, 50160, Note_off_c, 0, 66, 0
2, 50160, Note_on_c, 0, 64, 93
2, 50208, Note_off_c, 0, 64, 0
2, 50208, Note_on_c, 0, 62, 93
2, 50256, Note_off_c, 0, 62, 0
2, 50256, Note_on_c, 0, 61, 93
2, 50304, Note_off_c, 0, 61, 0
2, 50304, Note_on_c, 0, 59, 93
2, 50352, Note_off_c, 0, 59, 0
2, 50352, Note_on_c, 0, 57, 93
2, 50400, Note_off_c, 0, 57, 0
2, 50400, Note_on_c, 0, 69, 93
2, 50496, Note_off_c, 0, 69, 0
2, 50496, Note_on_c, 0, 66, 93
2, 50592, Note_off_c, 0, 66, 0
2, 50592, Note_on_c, 0, 64, 93
2, 50640, Note_off_c, 0, 64, 0
2, 50640, Note_on_c, 0, 62, 93
2, 50688, Note_off_c, 0, 62, 0
2, 50688, Note_on_c, 0, 62, 93
2, 50880, Note_off_c, 0, 62, 0
2, 50880, End_track
3, 0, Start_track
3, 0, Title_t, "Track3"
3, 0, Program_c, 1, 42
3, 0, Control_c, 1, 7, 100
3, 0, Control_c, 1, 10, 69
3, 192, Note_on_c, 1, 57, 93
3, 288, Note_off_c, 1, 57, 0
3, 384, Note_on_c, 1, 59, 93
3, 480, Note_off_c, 1, 59, 0
3, 576, Note_on_c, 1, 59, 93
3, 672, Note_off_c, 1, 59, 0
3, 960, Note_on_c, 1, 61, 93
3, 1056, Note_off_c, 1, 61, 0
3, 1152, Note_on_c, 1, 62, 93
3, 1248, Note_off_c, 1, 62, 0
3, 1536, Note_on_c, 1, 57, 93
3, 1632, Note_off_c, 1, 57, 0
3, 1728, Note_on_c, 1, 57, 93
3, 1824, Note_off_c, 1, 57, 0
3, 1920, Note_on_c, 1, 59, 93
3, 2016, Note_off_c, 1, 59, 0
3, 2112, Note_on_c, 1, 59, 93
3, 2208, Note_off_c, 1, 59, 0
3, 2496, Note_on_c, 1, 54, 93
3, 2592, Note_off_c, 1, 54, 0
3, 2688, Note_on_c, 1, 52, 93
3, 2784, Note_off_c, 1, 52, 0
3, 2880, Note_on_c, 1, 52, 93
3, 2976, Note_off_c, 1, 52, 0
3, 3072, Note_on_c, 1, 52, 93
3, 3264, Note_off_c, 1, 52, 0
3, 3264, Note_on_c, 1, 57, 93
3, 3360, Note_off_c, 1, 57, 0
3, 3456, Note_on_c, 1, 59, 93
3, 3552, Note_off_c, 1, 59, 0
3, 3648, Note_on_c, 1, 59, 93
3, 3744, Note_off_c, 1, 59, 0
3, 4032, Note_on_c, 1, 61, 93
3, 4128, Note_off_c, 1, 61, 0
3, 4224, Note_on_c, 1, 62, 93
3, 4320, Note_off_c, 1, 62, 0
3, 4608, Note_on_c, 1, 57, 93
3, 4704, Note_off_c, 1, 57, 0
3, 4800, Note_on_c, 1, 57, 93
3, 4896, Note_off_c, 1, 57, 0
3, 4992, Note_on_c, 1, 59, 93
3, 5088, Note_off_c, 1, 59, 0
3, 5184, Note_on_c, 1, 59, 93
3, 5280, Note_off_c, 1, 59, 0
3, 5568, Note_on_c, 1, 54, 93
3, 5664, Note_off_c, 1, 54, 0
3, 5760, Note_on_c, 1, 52, 93
3, 5856, Note_off_c, 1, 52, 0
3, 5952, Note_on_c, 1, 52, 93
3, 6048, Note_off_c, 1, 52, 0
3, 6144, Note_on_c, 1, 52, 93
3, 6336, Note_off_c, 1, 52, 0
3, 6336, Note_on_c, 1, 61, 93
3, 6432, Note_off_c, 1, 61, 0
3, 6528, Note_on_c, 1, 63, 93
3, 6624, Note_off_c, 1, 63, 0
3, 6720, Note_on_c, 1, 59, 93
3, 6816, Note_off_c, 1, 59, 0
3, 6912, Note_on_c, 1, 59, 93
3, 7008, Note_off_c, 1, 59, 0
3, 7872, Note_on_c, 1, 59, 93
3, 7968, Note_off_c, 1, 59, 0
3, 7968, Note_on_c, 1, 59, 93
3, 8064, Note_off_c, 1, 59, 0
3, 8448, Note_on_c, 1, 57, 93
3, 8544, Note_off_c, 1, 57, 0
3, 9216, Note_on_c, 1, 54, 93
3, 9408, Note_off_c, 1, 54, 0
3, 9408, Note_on_c, 1, 54, 93
3, 9504, Note_off_c, 1, 54, 0
3, 9504, Note_on_c, 1, 54, 93
3, 9600, Note_off_c, 1, 54, 0
3, 9600, Note_on_c, 1, 52, 93
3, 9696, Note_off_c, 1, 52, 0
3, 9984, Note_on_c, 1, 52, 93
3, 10080, Note_off_c, 1, 52, 0
3, 10752, Note_on_c, 1, 57, 93
3, 10944, Note_off_c, 1, 57, 0
3, 10944, Note_on_c, 1, 57, 93
3, 11040, Note_off_c, 1, 57, 0
3, 11136, Note_on_c, 1, 59, 93
3, 11232, Note_off_c, 1, 59, 0
3, 11328, Note_on_c, 1, 59, 93
3, 11424, Note_off_c, 1, 59, 0
3, 11520, Note_on_c, 1, 52, 93
3, 11712, Note_off_c, 1, 52, 0
3, 11712, Note_on_c, 1, 61, 93
3, 11808, Note_off_c, 1, 61, 0
3, 11904, Note_on_c, 1, 62, 93
3, 12000, Note_off_c, 1, 62, 0
3, 12096, Note_on_c, 1, 57, 93
3, 12192, Note_off_c, 1, 57, 0
3, 12288, Note_on_c, 1, 57, 93
3, 12384, Note_off_c, 1, 57, 0
3, 12480, Note_on_c, 1, 59, 93
3, 12576, Note_off_c, 1, 59, 0
3, 12672, Note_on_c, 1, 59, 93
3, 12768, Note_off_c, 1, 59, 0
3, 13056, Note_on_c, 1, 52, 93
3, 13104, Note_off_c, 1, 52, 0
3, 13536, Note_on_c, 1, 62, 93
3, 13632, Note_off_c, 1, 62, 0
3, 13632, Note_on_c, 1, 57, 93
3, 13824, Note_off_c, 1, 57, 0
3, 13824, Note_on_c, 1, 54, 93
3, 14016, Note_off_c, 1, 54, 0
3, 14016, Note_on_c, 1, 61, 93
3, 14112, Note_off_c, 1, 61, 0
3, 14208, Note_on_c, 1, 63, 93
3, 14304, Note_off_c, 1, 63, 0
3, 14400, Note_on_c, 1, 59, 93
3, 14496, Note_off_c, 1, 59, 0
3, 14592, Note_on_c, 1, 59, 93
3, 14688, Note_off_c, 1, 59, 0
3, 15552, Note_on_c, 1, 59, 93
3, 15648, Note_off_c, 1, 59, 0
3, 15648, Note_on_c, 1, 59, 93
3, 15744, Note_off_c, 1, 59, 0
3, 16128, Note_on_c, 1, 57, 93
3, 16224, Note_off_c, 1, 57, 0
3, 16896, Note_on_c, 1, 54, 93
3, 17088, Note_off_c, 1, 54, 0
3, 17088, Note_on_c, 1, 54, 93
3, 17184, Note_off_c, 1, 54, 0
3, 17184, Note_on_c, 1, 54, 93
3, 17280, Note_off_c, 1, 54, 0
3, 17280, Note_on_c, 1, 52, 93
3, 17376, Note_off_c, 1, 52, 0
3, 17664, Note_on_c, 1, 52, 93
3, 17760, Note_off_c, 1, 52, 0
3, 18432, Note_on_c, 1, 57, 93
3, 18624, Note_off_c, 1, 57, 0
3, 18624, Note_on_c, 1, 57, 93
3, 18720, Note_off_c, 1, 57, 0
3, 18816, Note_on_c, 1, 59, 93
3, 18912, Note_off_c, 1, 59, 0
3, 19008, Note_on_c, 1, 59, 93
3, 19104, Note_off_c, 1, 59, 0
3, 19200, Note_on_c, 1, 52, 93
3, 19392, Note_off_c, 1, 52, 0
3, 19392, Note_on_c, 1, 61, 93
3, 19488, Note_off_c, 1, 61, 0
3, 19584, Note_on_c, 1, 62, 93
3, 19680, Note_off_c, 1, 62, 0
3, 19776, Note_on_c, 1, 57, 93
3, 19872, Note_off_c, 1, 57, 0
3, 19968, Note_on_c, 1, 57, 93
3, 20064, Note_off_c, 1, 57, 0
3, 20160, Note_on_c, 1, 59, 93
3, 20256, Note_off_c, 1, 59, 0
3, 20352, Note_on_c, 1, 59, 93
3, 20448, Note_off_c, 1, 59, 0
3, 20736, Note_on_c, 1, 52, 93
3, 20784, Note_off_c, 1, 52, 0
3, 21216, Note_on_c, 1, 62, 93
3, 21312, Note_off_c, 1, 62, 0
3, 21312, Note_on_c, 1, 57, 93
3, 21504, Note_off_c, 1, 57, 0
3, 21504, Note_on_c, 1, 54, 93
3, 21696, Note_off_c, 1, 54, 0
3, 21696, Note_on_c, 1, 57, 93
3, 21744, Note_off_c, 1, 57, 0
3, 21984, Note_on_c, 1, 54, 93
3, 22080, Note_off_c, 1, 54, 0
3, 22080, Note_on_c, 1, 55, 93
3, 22176, Note_off_c, 1, 55, 0
3, 22176, Note_on_c, 1, 52, 93
3, 22272, Note_off_c, 1, 52, 0
3, 22272, Note_on_c, 1, 50, 93
3, 22320, Note_off_c, 1, 50, 0
3, 22464, Note_on_c, 1, 54, 93
3, 22512, Note_off_c, 1, 54, 0
3, 22752, Note_on_c, 1, 54, 93
3, 22848, Note_off_c, 1, 54, 0
3, 22848, Note_on_c, 1, 55, 93
3, 22944, Note_off_c, 1, 55, 0
3, 22944, Note_on_c, 1, 52, 93
3, 23040, Note_off_c, 1, 52, 0
3, 23040, Note_on_c, 1, 50, 93
3, 23232, Note_off_c, 1, 50, 0
3, 23232, Note_on_c, 1, 57, 93
3, 23280, Note_off_c, 1, 57, 0
3, 23520, Note_on_c, 1, 54, 93
3, 23616, Note_off_c, 1, 54, 0
3, 23616, Note_on_c, 1, 55, 93
3, 23712, Note_off_c, 1, 55, 0
3, 23712, Note_on_c, 1, 52, 93
3, 23808, Note_off_c, 1, 52, 0
3, 23808, Note_on_c, 1, 50, 93
3, 23856, Note_off_c, 1, 50, 0
3, 24000, Note_on_c, 1, 54, 93
3, 24048, Note_off_c, 1, 54, 0
3, 24288, Note_on_c, 1, 54, 93
3, 24384, Note_off_c, 1, 54, 0
3, 24384, Note_on_c, 1, 55, 93
3, 24480, Note_off_c, 1, 55, 0
3, 24480, Note_on_c, 1, 52, 93
3, 24576, Note_off_c, 1, 52, 0
3, 24576, Note_on_c, 1, 50, 93
3, 24768, Note_off_c, 1, 50, 0
3, 26112, Note_on_c, 1, 61, 93
3, 26304, Note_off_c, 1, 61, 0
3, 26304, Note_on_c, 1, 57, 93
3, 26352, Note_off_c, 1, 57, 0
3, 26592, Note_on_c, 1, 54, 93
3, 26688, Note_off_c, 1, 54, 0
3, 26688, Note_on_c, 1, 55, 93
3, 26784, Note_off_c, 1, 55, 0
3, 26784, Note_on_c, 1, 52, 93
3, 26880, Note_off_c, 1, 52, 0
3, 26880, Note_on_c, 1, 50, 93
3, 26928, Note_off_c, 1, 50, 0
3, 27072, Note_on_c, 1, 54, 93
3, 27120, Note_off_c, 1, 54, 0
3, 27360, Note_on_c, 1, 54, 93
3, 27456, Note_off_c, 1, 54, 0
3, 27456, Note_on_c, 1, 55, 93
3, 27552, Note_off_c, 1, 55, 0
3, 27552, Note_on_c, 1, 52, 93
3, 27648, Note_off_c, 1, 52, 0
3, 27648, Note_on_c, 1, 50, 93
3, 27840, Note_off_c, 1, 50, 0
3, 27840, Note_on_c, 1, 50, 93
3, 28032, Note_off_c, 1, 50, 0
3, 28032, Note_on_c, 1, 50, 93
3, 28128, Note_off_c, 1, 50, 0
3, 28128, Note_on_c, 1, 50, 93
3, 28224, Note_off_c, 1, 50, 0
3, 28224, Note_on_c, 1, 50, 93
3, 28320, Note_off_c, 1, 50, 0
3, 28320, Note_on_c, 1, 50, 93
3, 28416, Note_off_c, 1, 50, 0
3, 28416, Note_on_c, 1, 50, 93
3, 28512, Note_off_c, 1, 50, 0
3, 28512, Note_on_c, 1, 50, 93
3, 28608, Note_off_c, 1, 50, 0
3, 28608, Note_on_c, 1, 50, 93
3, 28704, Note_off_c, 1, 50, 0
3, 28704, Note_on_c, 1, 50, 93
3, 28800, Note_off_c, 1, 50, 0
3, 28800, Note_on_c, 1, 50, 93
3, 28992, Note_off_c, 1, 50, 0
3, 28992, Note_on_c, 1, 50, 93
3, 29184, Note_off_c, 1, 50, 0
3, 29184, Note_on_c, 1, 50, 93
3, 29568, Note_off_c, 1, 50, 0
3, 29568, Note_on_c, 1, 50, 93
3, 29664, Note_off_c, 1, 50, 0
3, 29664, Note_on_c, 1, 50, 93
3, 29760, Note_off_c, 1, 50, 0
3, 29760, Note_on_c, 1, 50, 93
3, 29856, Note_off_c, 1, 50, 0
3, 29856, Note_on_c, 1, 50, 93
3, 29952, Note_off_c, 1, 50, 0
3, 29952, Note_on_c, 1, 50, 93
3, 30048, Note_off_c, 1, 50, 0
3, 30048, Note_on_c, 1, 50, 93
3, 30144, Note_off_c, 1, 50, 0
3, 30144, Note_on_c, 1, 50, 93
3, 30240, Note_off_c, 1, 50, 0
3, 30240, Note_on_c, 1, 50, 93
3, 30336, Note_off_c, 1, 50, 0
3, 30336, Note_on_c, 1, 50, 93
3, 30528, Note_off_c, 1, 50, 0
3, 30528, Note_on_c, 1, 50, 93
3, 30720, Note_off_c, 1, 50, 0
3, 30720, Note_on_c, 1, 50, 93
3, 30912, Note_off_c, 1, 50, 0
3, 30912, Note_on_c, 1, 57, 93
3, 30960, Note_off_c, 1, 57, 0
3, 31200, Note_on_c, 1, 54, 93
3, 31296, Note_off_c, 1, 54, 0
3, 31296, Note_on_c, 1, 55, 93
3, 31392, Note_off_c, 1, 55, 0
3, 31392, Note_on_c, 1, 52, 93
3, 31488, Note_off_c, 1, 52, 0
3, 31488, Note_on_c, 1, 50, 93
3, 31536, Note_off_c, 1, 50, 0
3, 31680, Note_on_c, 1, 54, 93
3, 31728, Note_off_c, 1, 54, 0
3, 31968, Note_on_c, 1, 54, 93
3, 32064, Note_off_c, 1, 54, 0
3, 32064, Note_on_c, 1, 55, 93
3, 32160, Note_off_c, 1, 55, 0
3, 32160, Note_on_c, 1, 52, 93
3, 32256, Note_off_c, 1, 52, 0
3, 32256, Note_on_c, 1, 50, 93
3, 32448, Note_off_c, 1, 50, 0
3, 33792, Note_on_c, 1, 61, 93
3, 33984, Note_off_c, 1, 61, 0
3, 33984, Note_on_c, 1, 57, 93
3, 34032, Note_off_c, 1, 57, 0
3, 34272, Note_on_c, 1, 54, 93
3, 34368, Note_off_c, 1, 54, 0
3, 34368, Note_on_c, 1, 55, 93
3, 34464, Note_off_c, 1, 55, 0
3, 34464, Note_on_c, 1, 52, 93
3, 34560, Note_off_c, 1, 52, 0
3, 34560, Note_on_c, 1, 50, 93
3, 34608, Note_off_c, 1, 50, 0
3, 34752, Note_on_c, 1, 54, 93
3, 34800, Note_off_c, 1, 54, 0
3, 35040, Note_on_c, 1, 54, 93
3, 35136, Note_off_c, 1, 54, 0
3, 35136, Note_on_c, 1, 55, 93
3, 35232, Note_off_c, 1, 55, 0
3, 35232, Note_on_c, 1, 52, 93
3, 35328, Note_off_c, 1, 52, 0
3, 35328, Note_on_c, 1, 50, 93
3, 35520, Note_off_c, 1, 50, 0
3, 35520, Note_on_c, 1, 50, 93
3, 35712, Note_off_c, 1, 50, 0
3, 35712, Note_on_c, 1, 50, 93
3, 35808, Note_off_c, 1, 50, 0
3, 35808, Note_on_c, 1, 50, 93
3, 35904, Note_off_c, 1, 50, 0
3, 35904, Note_on_c, 1, 50, 93
3, 36000, Note_off_c, 1, 50, 0
3, 36000, Note_on_c, 1, 50, 93
3, 36096, Note_off_c, 1, 50, 0
3, 36096, Note_on_c, 1, 50, 93
3, 36192, Note_off_c, 1, 50, 0
3, 36192, Note_on_c, 1, 50, 93
3, 36288, Note_off_c, 1, 50, 0
3, 36288, Note_on_c, 1, 50, 93
3, 36384, Note_off_c, 1, 50, 0
3, 36384, Note_on_c, 1, 50, 93
3, 36480, Note_off_c, 1, 50, 0
3, 36480, Note_on_c, 1, 50, 93
3, 36672, Note_off_c, 1, 50, 0
3, 36672, Note_on_c, 1, 50, 93
3, 36864, Note_off_c, 1, 50, 0
3, 36864, Note_on_c, 1, 50, 93
3, 37248, Note_off_c, 1, 50, 0
3, 37248, Note_on_c, 1, 50, 93
3, 37344, Note_off_c, 1, 50, 0
3, 37344, Note_on_c, 1, 50, 93
3, 37440, Note_off_c, 1, 50, 0
3, 37440, Note_on_c, 1, 50, 93
3, 37536, Note_off_c, 1, 50, 0
3, 37536, Note_on_c, 1, 50, 93
3, 37632, Note_off_c, 1, 50, 0
3, 37632, Note_on_c, 1, 50, 93
3, 37728, Note_off_c, 1, 50, 0
3, 37728, Note_on_c, 1, 50, 93
3, 37824, Note_off_c, 1, 50, 0
3, 37824, Note_on_c, 1, 50, 93
3, 37920, Note_off_c, 1, 50, 0
3, 37920, Note_on_c, 1, 50, 93
3, 38016, Note_off_c, 1, 50, 0
3, 38016, Note_on_c, 1, 50, 93
3, 38208, Note_off_c, 1, 50, 0
3, 38208, Note_on_c, 1, 50, 93
3, 38400, Note_off_c, 1, 50, 0
3, 38400, Note_on_c, 1, 50, 93
3, 38592, Note_off_c, 1, 50, 0
3, 38592, Note_on_c, 1, 57, 93
3, 38640, Note_off_c, 1, 57, 0
3, 38880, Note_on_c, 1, 54, 93
3, 38976, Note_off_c, 1, 54, 0
3, 38976, Note_on_c, 1, 55, 93
3, 39072, Note_off_c, 1, 55, 0
3, 39072, Note_on_c, 1, 52, 93
3, 39168, Note_off_c, 1, 52, 0
3, 39168, Note_on_c, 1, 50, 93
3, 39216, Note_off_c, 1, 50, 0
3, 39360, Note_on_c, 1, 54, 93
3, 39408, Note_off_c, 1, 54, 0
3, 39648, Note_on_c, 1, 54, 93
3, 39744, Note_off_c, 1, 54, 0
3, 39744, Note_on_c, 1, 55, 93
3, 39840, Note_off_c, 1, 55, 0
3, 39840, Note_on_c, 1, 52, 93
3, 39936, Note_off_c, 1, 52, 0
3, 39936, Note_on_c, 1, 50, 93
3, 40128, Note_off_c, 1, 50, 0
3, 40128, Note_on_c, 1, 57, 93
3, 40224, Note_off_c, 1, 57, 0
3, 40320, Note_on_c, 1, 59, 93
3, 40416, Note_off_c, 1, 59, 0
3, 40512, Note_on_c, 1, 59, 93
3, 40608, Note_off_c, 1, 59, 0
3, 40896, Note_on_c, 1, 61, 93
3, 40992, Note_off_c, 1, 61, 0
3, 41088, Note_on_c, 1, 62, 93
3, 41184, Note_off_c, 1, 62, 0
3, 41472, Note_on_c, 1, 57, 93
3, 41568, Note_off_c, 1, 57, 0
3, 41664, Note_on_c, 1, 57, 93
3, 41760, Note_off_c, 1, 57, 0
3, 41856, Note_on_c, 1, 59, 93
3, 41952, Note_off_c, 1, 59, 0
3, 42048, Note_on_c, 1, 59, 93
3, 42144, Note_off_c, 1, 59, 0
3, 42432, Note_on_c, 1, 54, 93
3, 42528, Note_off_c, 1, 54, 0
3, 42624, Note_on_c, 1, 52, 93
3, 42720, Note_off_c, 1, 52, 0
3, 42816, Note_on_c, 1, 52, 93
3, 42912, Note_off_c, 1, 52, 0
3, 43008, Note_on_c, 1, 52, 93
3, 43200, Note_off_c, 1, 52, 0
3, 43200, Note_on_c, 1, 61, 93
3, 43296, Note_off_c, 1, 61, 0
3, 43392, Note_on_c, 1, 63, 93
3, 43488, Note_off_c, 1, 63, 0
3, 43584, Note_on_c, 1, 59, 93
3, 43680, Note_off_c, 1, 59, 0
3, 43776, Note_on_c, 1, 59, 93
3, 43872, Note_off_c, 1, 59, 0
3, 44736, Note_on_c, 1, 59, 93
3, 44832, Note_off_c, 1, 59, 0
3, 44832, Note_on_c, 1, 59, 93
3, 44928, Note_off_c, 1, 59, 0
3, 45312, Note_on_c, 1, 57, 93
3, 45408, Note_off_c, 1, 57, 0
3, 46080, Note_on_c, 1, 54, 93
3, 46272, Note_off_c, 1, 54, 0
3, 46272, Note_on_c, 1, 54, 93
3, 46368, Note_off_c, 1, 54, 0
3, 46368, Note_on_c, 1, 54, 93
3, 46464, Note_off_c, 1, 54, 0
3, 46464, Note_on_c, 1, 52, 93
3, 46560, Note_off_c, 1, 52, 0
3, 46848, Note_on_c, 1, 52, 93
3, 46944, Note_off_c, 1, 52, 0
3, 47616, Note_on_c, 1, 57, 93
3, 47808, Note_off_c, 1, 57, 0
3, 47808, Note_on_c, 1, 57, 93
3, 47904, Note_off_c, 1, 57, 0
3, 48000, Note_on_c, 1, 59, 93
3, 48096, Note_off_c, 1, 59, 0
3, 48192, Note_on_c, 1, 59, 93
3, 48288, Note_off_c, 1, 59, 0
3, 48384, Note_on_c, 1, 52, 93
3, 48576, Note_off_c, 1, 52, 0
3, 48576, Note_on_c, 1, 61, 93
3, 48672, Note_off_c, 1, 61, 0
3, 48768, Note_on_c, 1, 62, 93
3, 48864, Note_off_c, 1, 62, 0
3, 48960, Note_on_c, 1, 57, 93
3, 49056, Note_off_c, 1, 57, 0
3, 49152, Note_on_c, 1, 57, 93
3, 49248, Note_off_c, 1, 57, 0
3, 49344, Note_on_c, 1, 59, 93
3, 49440, Note_off_c, 1, 59, 0
3, 49536, Note_on_c, 1, 59, 93
3, 49632, Note_off_c, 1, 59, 0
3, 49920, Note_on_c, 1, 52, 93
3, 49968, Note_off_c, 1, 52, 0
3, 50400, Note_on_c, 1, 62, 93
3, 50496, Note_off_c, 1, 62, 0
3, 50496, Note_on_c, 1, 57, 93
3, 50688, Note_off_c, 1, 57, 0
3, 50688, Note_on_c, 1, 54, 93
3, 50880, Note_off_c, 1, 54, 0
3, 50880, End_track
4, 0, Start_track
4, 0, Title_t, "Track4"
4, 0, Program_c, 2, 42
4, 0, Control_c, 2, 7, 100
4, 0, Control_c, 2, 10, 49
4, 192, Note_on_c, 2, 50, 93
4, 288, Note_off_c, 2, 50, 0
4, 384, Note_on_c, 2, 50, 93
4, 480, Note_off_c, 2, 50, 0
4, 576, Note_on_c, 2, 55, 93
4, 672, Note_off_c, 2, 55, 0
4, 768, Note_on_c, 2, 52, 93
4, 960, Note_off_c, 2, 52, 0
4, 960, Note_on_c, 2, 52, 93
4, 1056, Note_off_c, 2, 52, 0
4, 1152, Note_on_c, 2, 54, 93
4, 1248, Note_off_c, 2, 54, 0
4, 1344, Note_on_c, 2, 57, 93
4, 1440, Note_off_c, 2, 57, 0
4, 1536, Note_on_c, 2, 50, 93
4, 1632, Note_off_c, 2, 50, 0
4, 1728, Note_on_c, 2, 50, 93
4, 1824, Note_off_c, 2, 50, 0
4, 1920, Note_on_c, 2, 50, 93
4, 2016, Note_off_c, 2, 50, 0
4, 2112, Note_on_c, 2, 55, 93
4, 2208, Note_off_c, 2, 55, 0
4, 3072, Note_on_c, 2, 45, 93
4, 3264, Note_off_c, 2, 45, 0
4, 3264, Note_on_c, 2, 50, 93
4, 3360, Note_off_c, 2, 50, 0
4, 3456, Note_on_c, 2, 50, 93
4, 3552, Note_off_c, 2, 50, 0
4, 3648, Note_on_c, 2, 55, 93
4, 3744, Note_off_c, 2, 55, 0
4, 3840, Note_on_c, 2, 52, 93
4, 4032, Note_off_c, 2, 52, 0
4, 4032, Note_on_c, 2, 52, 93
4, 4128, Note_off_c, 2, 52, 0
4, 4224, Note_on_c, 2, 54, 93
4, 4320, Note_off_c, 2, 54, 0
4, 4416, Note_on_c, 2, 57, 93
4, 4512, Note_off_c, 2, 57, 0
4, 4608, Note_on_c, 2, 50, 93
4, 4704, Note_off_c, 2, 50, 0
4, 4800, Note_on_c, 2, 50, 93
4, 4896, Note_off_c, 2, 50, 0
4, 4992, Note_on_c, 2, 50, 93
4, 5088, Note_off_c, 2, 50, 0
4, 5184, Note_on_c, 2, 55, 93
4, 5280, Note_off_c, 2, 55, 0
4, 6144, Note_on_c, 2, 45, 93
4, 6336, Note_off_c, 2, 45, 0
4, 6336, Note_on_c, 2, 54, 93
4, 6432, Note_off_c, 2, 54, 0
4, 6528, Note_on_c, 2, 54, 93
4, 6624, Note_off_c, 2, 54, 0
4, 6912, Note_on_c, 2, 52, 93
4, 7008, Note_off_c, 2, 52, 0
4, 7872, Note_on_c, 2, 52, 93
4, 7968, Note_off_c, 2, 52, 0
4, 7968, Note_on_c, 2, 50, 93
4, 8064, Note_off_c, 2, 50, 0
4, 8448, Note_on_c, 2, 50, 93
4, 8544, Note_off_c, 2, 50, 0
4, 9216, Note_on_c, 2, 47, 93
4, 9408, Note_off_c, 2, 47, 0
4, 9408, Note_on_c, 2, 47, 93
4, 9504, Note_off_c, 2, 47, 0
4, 9504, Note_on_c, 2, 45, 93
4, 9600, Note_off_c, 2, 45, 0
4, 9600, Note_on_c, 2, 44, 93
4, 9696, Note_off_c, 2, 44, 0
4, 9984, Note_on_c, 2, 45, 93
4, 10080, Note_off_c, 2, 45, 0
4, 10944, Note_on_c, 2, 50, 93
4, 11040, Note_off_c, 2, 50, 0
4, 11136, Note_on_c, 2, 50, 93
4, 11232, Note_off_c, 2, 50, 0
4, 11328, Note_on_c, 2, 55, 93
4, 11424, Note_off_c, 2, 55, 0
4, 11712, Note_on_c, 2, 52, 93
4, 11808, Note_off_c, 2, 52, 0
4, 11904, Note_on_c, 2, 54, 93
4, 12000, Note_off_c, 2, 54, 0
4, 12288, Note_on_c, 2, 50, 93
4, 12384, Note_off_c, 2, 50, 0
4, 12480, Note_on_c, 2, 50, 93
4, 12576, Note_off_c, 2, 50, 0
4, 12672, Note_on_c, 2, 50, 93
4, 12768, Note_off_c, 2, 50, 0
4, 13536, Note_on_c, 2, 54, 93
4, 13632, Note_off_c, 2, 54, 0
4, 13824, Note_on_c, 2, 45, 93
4, 14016, Note_off_c, 2, 45, 0
4, 14016, Note_on_c, 2, 54, 93
4, 14112, Note_off_c, 2, 54, 0
4, 14208, Note_on_c, 2, 54, 93
4, 14304, Note_off_c, 2, 54, 0
4, 14592, Note_on_c, 2, 52, 93
4, 14688, Note_off_c, 2, 52, 0
4, 15552, Note_on_c, 2, 52, 93
4, 15648, Note_off_c, 2, 52, 0
4, 15648, Note_on_c, 2, 50, 93
4, 15744, Note_off_c, 2, 50, 0
4, 16128, Note_on_c, 2, 50, 93
4, 16224, Note_off_c, 2, 50, 0
4, 16896, Note_on_c, 2, 47, 93
4, 17088, Note_off_c, 2, 47, 0
4, 17088, Note_on_c, 2, 47, 93
4, 17184, Note_off_c, 2, 47, 0
4, 17184, Note_on_c, 2, 45, 93
4, 17280, Note_off_c, 2, 45, 0
4, 17280, Note_on_c, 2, 44, 93
4, 17376, Note_off_c, 2, 44, 0
4, 17664, Note_on_c, 2, 45, 93
4, 17760, Note_off_c, 2, 45, 0
4, 18624, Note_on_c, 2, 50, 93
4, 18720, Note_off_c, 2, 50, 0
4, 18816, Note_on_c, 2, 50, 93
4, 18912, Note_off_c, 2, 50, 0
4, 19008, Note_on_c, 2, 55, 93
4, 19104, Note_off_c, 2, 55, 0
4, 19392, Note_on_c, 2, 52, 93
4, 19488, Note_off_c, 2, 52, 0
4, 19584, Note_on_c, 2, 54, 93
4, 19680, Note_off_c, 2, 54, 0
4, 19968, Note_on_c, 2, 50, 93
4, 20064, Note_off_c, 2, 50, 0
4, 20160, Note_on_c, 2, 50, 93
4, 20256, Note_off_c, 2, 50, 0
4, 20352, Note_on_c, 2, 50, 93
4, 20448, Note_off_c, 2, 50, 0
4, 21216, Note_on_c, 2, 54, 93
4, 21312, Note_off_c, 2, 54, 0
4, 21504, Note_on_c, 2, 45, 93
4, 21696, Note_off_c, 2, 45, 0
4, 21696, Note_on_c, 2, 50, 93
4, 21744, Note_off_c, 2, 50, 0
4, 22464, Note_on_c, 2, 45, 93
4, 22512, Note_off_c, 2, 45, 0
4, 23232, Note_on_c, 2, 50, 93
4, 23280, Note_off_c, 2, 50, 0
4, 24000, Note_on_c, 2, 45, 93
4, 24048, Note_off_c, 2, 45, 0
4, 24768, Note_on_c, 2, 54, 93
4, 24864, Note_off_c, 2, 54, 0
4, 24864, Note_on_c, 2, 50, 93
4, 24960, Note_off_c, 2, 50, 0
4, 24960, Note_on_c, 2, 55, 93
4, 25056, Note_off_c, 2, 55, 0
4, 25056, Note_on_c, 2, 50, 93
4, 25152, Note_off_c, 2, 50, 0
4, 25152, Note_on_c, 2, 54, 93
4, 25248, Note_off_c, 2, 54, 0
4, 25248, Note_on_c, 2, 50, 93
4, 25344, Note_off_c, 2, 50, 0
4, 25344, Note_on_c, 2, 55, 93
4, 25440, Note_off_c, 2, 55, 0
4, 25440, Note_on_c, 2, 50, 93
4, 25536, Note_off_c, 2, 50, 0
4, 25536, Note_on_c, 2, 54, 93
4, 25632, Note_off_c, 2, 54, 0
4, 25632, Note_on_c, 2, 50, 93
4, 25728, Note_off_c, 2, 50, 0
4, 25728, Note_on_c, 2, 55, 93
4, 25824, Note_off_c, 2, 55, 0
4, 25824, Note_on_c, 2, 54, 93
4, 25920, Note_off_c, 2, 54, 0
4, 25920, Note_on_c, 2, 52, 93
4, 26016, Note_off_c, 2, 52, 0
4, 26016, Note_on_c, 2, 50, 93
4, 26112, Note_off_c, 2, 50, 0
4, 26112, Note_on_c, 2, 50, 93
4, 26304, Note_off_c, 2, 50, 0
4, 26304, Note_on_c, 2, 50, 93
4, 26352, Note_off_c, 2, 50, 0
4, 27072, Note_on_c, 2, 45, 93
4, 27120, Note_off_c, 2, 45, 0
4, 27888, Note_on_c, 2, 57, 93
4, 27936, Note_off_c, 2, 57, 0
4, 28080, Note_on_c, 2, 57, 93
4, 28128, Note_off_c, 2, 57, 0
4, 28176, Note_on_c, 2, 57, 93
4, 28224, Note_off_c, 2, 57, 0
4, 28272, Note_on_c, 2, 57, 93
4, 28320, Note_off_c, 2, 57, 0
4, 28368, Note_on_c, 2, 57, 93
4, 28416, Note_off_c, 2, 57, 0
4, 28464, Note_on_c, 2, 57, 93
4, 28512, Note_off_c, 2, 57, 0
4, 28560, Note_on_c, 2, 57, 93
4, 28608, Note_off_c, 2, 57, 0
4, 28656, Note_on_c, 2, 57, 93
4, 28704, Note_off_c, 2, 57, 0
4, 28752, Note_on_c, 2, 57, 93
4, 28800, Note_off_c, 2, 57, 0
4, 28848, Note_on_c, 2, 57, 93
4, 28896, Note_off_c, 2, 57, 0
4, 29232, Note_on_c, 2, 57, 93
4, 29280, Note_off_c, 2, 57, 0
4, 29328, Note_on_c, 2, 57, 93
4, 29376, Note_off_c, 2, 57, 0
4, 29424, Note_on_c, 2, 57, 93
4, 29472, Note_off_c, 2, 57, 0
4, 29616, Note_on_c, 2, 57, 93
4, 29664, Note_off_c, 2, 57, 0
4, 29712, Note_on_c, 2, 57, 93
4, 29760, Note_off_c, 2, 57, 0
4, 29808, Note_on_c, 2, 57, 93
4, 29856, Note_off_c, 2, 57, 0
4, 29904, Note_on_c, 2, 57, 93
4, 29952, Note_off_c, 2, 57, 0
4, 30000, Note_on_c, 2, 57, 93
4, 30048, Note_off_c, 2, 57, 0
4, 30096, Note_on_c, 2, 57, 93
4, 30144, Note_off_c, 2, 57, 0
4, 30192, Note_on_c, 2, 57, 93
4, 30240, Note_off_c, 2, 57, 0
4, 30288, Note_on_c, 2, 57, 93
4, 30336, Note_off_c, 2, 57, 0
4, 30384, Note_on_c, 2, 57, 93
4, 30432, Note_off_c, 2, 57, 0
4, 30912, Note_on_c, 2, 50, 93
4, 30960, Note_off_c, 2, 50, 0
4, 31680, Note_on_c, 2, 45, 93
4, 31728, Note_off_c, 2, 45, 0
4, 32448, Note_on_c, 2, 54, 93
4, 32544, Note_off_c, 2, 54, 0
4, 32544, Note_on_c, 2, 50, 93
4, 32640, Note_off_c, 2, 50, 0
4, 32640, Note_on_c, 2, 55, 93
4, 32736, Note_off_c, 2, 55, 0
4, 32736, Note_on_c, 2, 50, 93
4, 32832, Note_off_c, 2, 50, 0
4, 32832, Note_on_c, 2, 54, 93
4, 32928, Note_off_c, 2, 54, 0
4, 32928, Note_on_c, 2, 50, 93
4, 33024, Note_off_c, 2, 50, 0
4, 33024, Note_on_c, 2, 55, 93
4, 33120, Note_off_c, 2, 55, 0
4, 33120, Note_on_c, 2, 50, 93
4, 33216, Note_off_c, 2, 50, 0
4, 33216, Note_on_c, 2, 54, 93
4, 33312, Note_off_c, 2, 54, 0
4, 33312, Note_on_c, 2, 50, 93
4, 33408, Note_off_c, 2, 50, 0
4, 33408, Note_on_c, 2, 55, 93
4, 33504, Note_off_c, 2, 55, 0
4, 33504, Note_on_c, 2, 54, 93
4, 33600, Note_off_c, 2, 54, 0
4, 33600, Note_on_c, 2, 52, 93
4, 33696, Note_off_c, 2, 52, 0
4, 33696, Note_on_c, 2, 50, 93
4, 33792, Note_off_c, 2, 50, 0
4, 33792, Note_on_c, 2, 50, 93
4, 33984, Note_off_c, 2, 50, 0
4, 33984, Note_on_c, 2, 50, 93
4, 34032, Note_off_c, 2, 50, 0
4, 34752, Note_on_c, 2, 45, 93
4, 34800, Note_off_c, 2, 45, 0
4, 35568, Note_on_c, 2, 57, 93
4, 35616, Note_off_c, 2, 57, 0
4, 35760, Note_on_c, 2, 57, 93
4, 35808, Note_off_c, 2, 57, 0
4, 35856, Note_on_c, 2, 57, 93
4, 35904, Note_off_c, 2, 57, 0
4, 35952, Note_on_c, 2, 57, 93
4, 36000, Note_off_c, 2, 57, 0
4, 36048, Note_on_c, 2, 57, 93
4, 36096, Note_off_c, 2, 57, 0
4, 36144, Note_on_c, 2, 57, 93
4, 36192, Note_off_c, 2, 57, 0
4, 36240, Note_on_c, 2, 57, 93
4, 36288, Note_off_c, 2, 57, 0
4, 36336, Note_on_c, 2, 57, 93
4, 36384, Note_off_c, 2, 57, 0
4, 36432, Note_on_c, 2, 57, 93
4, 36480, Note_off_c, 2, 57, 0
4, 36528, Note_on_c, 2, 57, 93
4, 36576, Note_off_c, 2, 57, 0
4, 36912, Note_on_c, 2, 57, 93
4, 36960, Note_off_c, 2, 57, 0
4, 37008, Note_on_c, 2, 57, 93
4, 37056, Note_off_c, 2, 57, 0
4, 37104, Note_on_c, 2, 57, 93
4, 37152, Note_off_c, 2, 57, 0
4, 37296, Note_on_c, 2, 57, 93
4, 37344, Note_off_c, 2, 57, 0
4, 37392, Note_on_c, 2, 57, 93
4, 37440, Note_off_c, 2, 57, 0
4, 37488, Note_on_c, 2, 57, 93
4, 37536, Note_off_c, 2, 57, 0
4, 37584, Note_on_c, 2, 57, 93
4, 37632, Note_off_c, 2, 57, 0
4, 37680, Note_on_c, 2, 57, 93
4, 37728, Note_off_c, 2, 57, 0
4, 37776, Note_on_c, 2, 57, 93
4, 37824, Note_off_c, 2, 57, 0
4, 37872, Note_on_c, 2, 57, 93
4, 37920, Note_off_c, 2, 57, 0
4, 37968, Note_on_c, 2, 57, 93
4, 38016, Note_off_c, 2, 57, 0
4, 38064, Note_on_c, 2, 57, 93
4, 38112, Note_off_c, 2, 57, 0
4, 38592, Note_on_c, 2, 50, 93
4, 38640, Note_off_c, 2, 50, 0
4, 39360, Note_on_c, 2, 45, 93
4, 39408, Note_off_c, 2, 45, 0
4, 40128, Note_on_c, 2, 50, 93
4, 40224, Note_off_c, 2, 50, 0
4, 40320, Note_on_c, 2, 50, 93
4, 40416, Note_off_c, 2, 50, 0
4, 40512, Note_on_c, 2, 55, 93
4, 40608, Note_off_c, 2, 55, 0
4, 40704, Note_on_c, 2, 52, 93
4, 40896, Note_off_c, 2, 52, 0
4, 40896, Note_on_c, 2, 52, 93
4, 40992, Note_off_c, 2, 52, 0
4, 41088, Note_on_c, 2, 54, 93
4, 41184, Note_off_c, 2, 54, 0
4, 41280, Note_on_c, 2, 57, 93
4, 41376, Note_off_c, 2, 57, 0
4, 41472, Note_on_c, 2, 50, 93
4, 41568, Note_off_c, 2, 50, 0
4, 41664, Note_on_c, 2, 50, 93
4, 41760, Note_off_c, 2, 50, 0
4, 41856, Note_on_c, 2, 50, 93
4, 41952, Note_off_c, 2, 50, 0
4, 42048, Note_on_c, 2, 55, 93
4, 42144, Note_off_c, 2, 55, 0
4, 43008, Note_on_c, 2, 45, 93
4, 43200, Note_off_c, 2, 45, 0
4, 43200, Note_on_c, 2, 54, 93
4, 43296, Note_off_c, 2, 54, 0
4, 43392, Note_on_c, 2, 54, 93
4, 43488, Note_off_c, 2, 54, 0
4, 43776, Note_on_c, 2, 52, 93
4, 43872, Note_off_c, 2, 52, 0
4, 44736, Note_on_c, 2, 52, 93
4, 44832, Note_off_c, 2, 52, 0
4, 44832, Note_on_c, 2, 50, 93
4, 44928, Note_off_c, 2, 50, 0
4, 45312, Note_on_c, 2, 50, 93
4, 45408, Note_off_c, 2, 50, 0
4, 46080, Note_on_c, 2, 47, 93
4, 46272, Note_off_c, 2, 47, 0
4, 46272, Note_on_c, 2, 47, 93
4, 46368, Note_off_c, 2, 47, 0
4, 46368, Note_on_c, 2, 45, 93
4, 46464, Note_off_c, 2, 45, 0
4, 46464, Note_on_c, 2, 44, 93
4, 46560, Note_off_c, 2, 44, 0
4, 46848, Note_on_c, 2, 45, 93
4, 46944, Note_off_c, 2, 45, 0
4, 47808, Note_on_c, 2, 50, 93
4, 47904, Note_off_c, 2, 50, 0
4, 48000, Note_on_c, 2, 50, 93
4, 48096, Note_off_c, 2, 50, 0
4, 48192, Note_on_c, 2, 55, 93
4, 48288, Note_off_c, 2, 55, 0
4, 48576, Note_on_c, 2, 52, 93
4, 48672, Note_off_c, 2, 52, 0
4, 48768, Note_on_c, 2, 54, 93
4, 48864, Note_off_c, 2, 54, 0
4, 49152, Note_on_c, 2, 50, 93
4, 49248, Note_off_c, 2, 50, 0
4, 49344, Note_on_c, 2, 50, 93
4, 49440, Note_off_c, 2, 50, 0
4, 49536, Note_on_c, 2, 50, 93
4, 49632, Note_off_c, 2, 50, 0
4, 50400, Note_on_c, 2, 54, 93
4, 50496, Note_off_c, 2, 54, 0
4, 50688, Note_on_c, 2, 45, 93
4, 50880, Note_off_c, 2, 45, 0
4, 50880, End_track
5, 0, Start_track
5, 0, Title_t, "Track5"
5, 0, Program_c, 3, 42
5, 0, Control_c, 3, 7, 100
5, 0, Control_c, 3, 10, 79
5, 384, Note_on_c, 3, 43, 93
5, 480, Note_off_c, 3, 43, 0
5, 960, Note_on_c, 3, 43, 93
5, 1056, Note_off_c, 3, 43, 0
5, 1920, Note_on_c, 3, 43, 93
5, 2016, Note_off_c, 3, 43, 0
5, 3456, Note_on_c, 3, 43, 93
5, 3552, Note_off_c, 3, 43, 0
5, 4032, Note_on_c, 3, 43, 93
5, 4128, Note_off_c, 3, 43, 0
5, 4992, Note_on_c, 3, 43, 93
5, 5088, Note_off_c, 3, 43, 0
5, 6528, Note_on_c, 3, 47, 93
5, 6624, Note_off_c, 3, 47, 0
5, 11136, Note_on_c, 3, 43, 93
5, 11232, Note_off_c, 3, 43, 0
5, 11712, Note_on_c, 3, 43, 93
5, 11808, Note_off_c, 3, 43, 0
5, 12480, Note_on_c, 3, 47, 93
5, 12576, Note_off_c, 3, 47, 0
5, 12672, Note_on_c, 3, 43, 93
5, 12768, Note_off_c, 3, 43, 0
5, 13824, Note_on_c, 3, 38, 93
5, 14016, Note_off_c, 3, 38, 0
5, 14208, Note_on_c, 3, 47, 93
5, 14304, Note_off_c, 3, 47, 0
5, 18816, Note_on_c, 3, 43, 93
5, 18912, Note_off_c, 3, 43, 0
5, 19392, Note_on_c, 3, 43, 93
5, 19488, Note_off_c, 3, 43, 0
5, 20160, Note_on_c, 3, 47, 93
5, 20256, Note_off_c, 3, 47, 0
5, 20352, Note_on_c, 3, 43, 93
5, 20448, Note_off_c, 3, 43, 0
5, 21504, Note_on_c, 3, 38, 93
5, 21696, Note_off_c, 3, 38, 0
5, 22464, Note_on_c, 3, 38, 93
5, 22512, Note_off_c, 3, 38, 0
5, 24000, Note_on_c, 3, 38, 93
5, 24048, Note_off_c, 3, 38, 0
5, 27072, Note_on_c, 3, 38, 93
5, 27120, Note_off_c, 3, 38, 0
5, 31680, Note_on_c, 3, 38, 93
5, 31728, Note_off_c, 3, 38, 0
5, 34752, Note_on_c, 3, 38, 93
5, 34800, Note_off_c, 3, 38, 0
5, 39360, Note_on_c, 3, 38, 93
5, 39408, Note_off_c, 3, 38, 0
5, 40320, Note_on_c, 3, 43, 93
5, 40416, Note_off_c, 3, 43, 0
5, 40896, Note_on_c, 3, 43, 93
5, 40992, Note_off_c, 3, 43, 0
5, 41856, Note_on_c, 3, 43, 93
5, 41952, Note_off_c, 3, 43, 0
5, 43392, Note_on_c, 3, 47, 93
5, 43488, Note_off_c, 3, 47, 0
5, 48000, Note_on_c, 3, 43, 93
5, 48096, Note_off_c, 3, 43, 0
5, 48576, Note_on_c, 3, 43, 93
5, 48672, Note_off_c, 3, 43, 0
5, 49344, Note_on_c, 3, 47, 93
5, 49440, Note_off_c, 3, 47, 0
5, 49536, Note_on_c, 3, 43, 93
5, 49632, Note_off_c, 3, 43, 0
5, 50688, Note_on_c, 3, 38, 93
5, 50880, Note_off_c, 3, 38, 0
5, 50880, End_track
0, 0, End_of_file
