0, 0, Header, 1, 2, 96
1, 0, Start_track
1, 0, Time_signature, 4, 2, 24, 8
1, 0, Title_t, "untitled"
1, 0, Title_t, "Track1"
1, 0, Tempo, 240000
1, 240, Tempo, 500000
1, 240, End_track
2, 0, Start_track
2, 0, Title_t, "Track2"
2, 0, Program_c, 0, 42
2, 0, Control_c, 0, 7, 100
2, 0, Control_c, 0, 10, 64
2, 240, Note_on_c, 0, 62, 93
2, 288, Note_off_c, 0, 62, 0
2, 288, Note_on_c, 0, 62, 93
2, 336, Note_off_c, 0, 62, 0
2, 336, Note_on_c, 0, 50, 93
2, 360, Note_off_c, 0, 50, 0
2, 360, Note_on_c, 0, 52, 93
2, 384, Note_off_c, 0, 52, 0
2, 384, Note_on_c, 0, 54, 93
2, 432, Note_off_c, 0, 54, 0
2, 432, Note_on_c, 0, 50, 93
2, 480, Note_off_c, 0, 50, 0
2, 480, Note_on_c, 0, 57, 93
2, 528, Note_off_c, 0, 57, 0
2, 528, Note_on_c, 0, 54, 93
2, 576, Note_off_c, 0, 54, 0
2, 576, Note_on_c, 0, 62, 93
2, 624, Note_off_c, 0, 62, 0
2, 624, Note_on_c, 0, 57, 93
2, 672, Note_off_c, 0, 57, 0
2, 672, Note_on_c, 0, 66, 93
2, 720, Note_off_c, 0, 66, 0
2, 720, Note_on_c, 0, 62, 93
2, 768, Note_off_c, 0, 62, 0
2, 768, Note_on_c, 0, 69, 93
2, 816, Note_off_c, 0, 69, 0
2, 816, Note_on_c, 0, 60, 93
2, 864, Note_off_c, 0, 60, 0
2, 864, Note_on_c, 0, 59, 93
2, 912, Note_off_c, 0, 59, 0
2, 912, Note_on_c, 0, 64, 93
2, 936, Note_off_c, 0, 64, 0
2, 936, Note_on_c, 0, 66, 93
2, 960, Note_off_c, 0, 66, 0
2, 960, Note_on_c, 0, 67, 93
2, 1008, Note_off_c, 0, 67, 0
2, 1008, Note_on_c, 0, 64, 93
2, 1056, Note_off_c, 0, 64, 0
2, 1056, Note_on_c, 0, 71, 93
2, 1104, Note_off_c, 0, 71, 0
2, 1104, Note_on_c, 0, 62, 93
2, 1152, Note_off_c, 0, 62, 0
2, 1152, Note_on_c, 0, 61, 93
2, 1200, Note_off_c, 0, 61, 0
2, 1200, Note_on_c, 0, 57, 93
2, 1224, Note_off_c, 0, 57, 0
2, 1224, Note_on_c, 0, 59, 93
2, 1248, Note_off_c, 0, 59, 0
2, 1248, Note_on_c, 0, 61, 93
2, 1296, Note_off_c, 0, 61, 0
2, 1296, Note_on_c, 0, 57, 93
2, 1344, Note_off_c, 0, 57, 0
2, 1344, Note_on_c, 0, 64, 93
2, 1392, Note_off_c, 0, 64, 0
2, 1392, Note_on_c, 0, 55, 93
2, 1440, Note_off_c, 0, 55, 0
2, 1440, Note_on_c, 0, 54, 93
2, 1488, Note_off_c, 0, 54, 0
2, 1488, Note_on_c, 0, 50, 93
2, 1512, Note_off_c, 0, 50, 0
2, 1512, Note_on_c, 0, 52, 93
2, 1536, Note_off_c, 0, 52, 0
2, 1536, Note_on_c, 0, 54, 93
2, 1584, Note_off_c, 0, 54, 0
2, 1584, Note_on_c, 0, 50, 93
2, 1632, Note_off_c, 0, 50, 0
2, 1632, Note_on_c, 0, 57, 93
2, 1680, Note_off_c, 0, 57, 0
2, 1680, Note_on_c, 0, 48, 93
2, 1728, Note_off_c, 0, 48, 0
2, 1728, Note_on_c, 0, 47, 93
2, 1776, Note_off_c, 0, 47, 0
2, 1776, Note_on_c, 0, 43, 93
2, 1800, Note_off_c, 0, 43, 0
2, 1800, Note_on_c, 0, 45, 93
2, 1824, Note_off_c, 0, 45, 0
2, 1824, Note_on_c, 0, 47, 93
2, 1872, Note_off_c, 0, 47, 0
2, 1872, Note_on_c, 0, 43, 93
2, 1920, Note_off_c, 0, 43, 0
2, 1920, Note_on_c, 0, 52, 93
2, 1968, Note_off_c, 0, 52, 0
2, 1968, Note_on_c, 0, 43, 93
2, 2016, Note_off_c, 0, 43, 0
2, 2016, Note_on_c, 0, 42, 93
2, 2064, Note_off_c, 0, 42, 0
2, 2064, Note_on_c, 0, 45, 93
2, 2112, Note_off_c, 0, 45, 0
2, 2112, Note_on_c, 0, 50, 93
2, 2160, Note_off_c, 0, 50, 0
2, 2160, Note_on_c, 0, 43, 93
2, 2208, Note_off_c, 0, 43, 0
2, 2208, Note_on_c, 0, 45, 93
2, 2256, Note_off_c, 0, 45, 0
2, 2256, Note_on_c, 0, 49, 93
2, 2304, Note_off_c, 0, 49, 0
2, 2304, Note_on_c, 0, 50, 93
2, 2400, Note_off_c, 0, 50, 0
2, 2400, Note_on_c, 0, 38, 93
2, 2448, Note_off_c, 0, 38, 0
2, 2448, Note_on_c, 0, 54, 93
2, 2496, Note_off_c, 0, 54, 0
2, 2496, Note_on_c, 0, 55, 93
2, 2520, Note_off_c, 0, 55, 0
2, 2520, Note_on_c, 0, 54, 93
2, 2544, Note_off_c, 0, 54, 0
2, 2544, Note_on_c, 0, 52, 93
2, 2568, Note_off_c, 0, 52, 0
2, 2568, Note_on_c, 0, 50, 93
2, 2592, Note_off_c, 0, 50, 0
2, 2592, Note_on_c, 0, 52, 93
2, 2640, Note_off_c, 0, 52, 0
2, 2640, Note_on_c, 0, 49, 93
2, 2664, Note_off_c, 0, 49, 0
2, 2664, Note_on_c, 0, 50, 93
2, 2688, Note_off_c, 0, 50, 0
2, 2688, Note_on_c, 0, 52, 93
2, 2736, Note_off_c, 0, 52, 0
2, 2736, Note_on_c, 0, 45, 93
2, 2784, Note_off_c, 0, 45, 0
2, 2784, Note_on_c, 0, 57, 93
2, 2832, Note_off_c, 0, 57, 0
2, 2832, Note_on_c, 0, 52, 93
2, 2880, Note_off_c, 0, 52, 0
2, 2880, Note_on_c, 0, 54, 93
2, 2928, Note_off_c, 0, 54, 0
2, 2928, Note_on_c, 0, 50, 93
2, 2952, Note_off_c, 0, 50, 0
2, 2952, Note_on_c, 0, 52, 93
2, 2976, Note_off_c, 0, 52, 0
2, 2976, Note_on_c, 0, 54, 93
2, 3024, Note_off_c, 0, 54, 0
2, 3024, Note_on_c, 0, 50, 93
2, 3072, Note_off_c, 0, 50, 0
2, 3072, Note_on_c, 0, 57, 93
2, 3120, Note_off_c, 0, 57, 0
2, 3120, Note_on_c, 0, 54, 93
2, 3168, Note_off_c, 0, 54, 0
2, 3168, Note_on_c, 0, 62, 93
2, 3216, Note_off_c, 0, 62, 0
2, 3216, Note_on_c, 0, 59, 93
2, 3240, Note_off_c, 0, 59, 0
2, 3240, Note_on_c, 0, 61, 93
2, 3264, Note_off_c, 0, 61, 0
2, 3264, Note_on_c, 0, 62, 93
2, 3312, Note_off_c, 0, 62, 0
2, 3312, Note_on_c, 0, 59, 93
2, 3360, Note_off_c, 0, 59, 0
2, 3360, Note_on_c, 0, 66, 93
2, 3408, Note_off_c, 0, 66, 0
2, 3408, Note_on_c, 0, 57, 93
2, 3456, Note_off_c, 0, 57, 0
2, 3456, Note_on_c, 0, 56, 93
2, 3504, Note_off_c, 0, 56, 0
2, 3504, Note_on_c, 0, 59, 93
2, 3552, Note_off_c, 0, 59, 0
2, 3552, Note_on_c, 0, 52, 93
2, 3600, Note_off_c, 0, 52, 0
2, 3600, Note_on_c, 0, 61, 93
2, 3624, Note_off_c, 0, 61, 0
2, 3624, Note_on_c, 0, 62, 93
2, 3648, Note_off_c, 0, 62, 0
2, 3648, Note_on_c, 0, 64, 93
2, 3672, Note_off_c, 0, 64, 0
2, 3672, Note_on_c, 0, 62, 93
2, 3696, Note_off_c, 0, 62, 0
2, 3696, Note_on_c, 0, 61, 93
2, 3720, Note_off_c, 0, 61, 0
2, 3720, Note_on_c, 0, 59, 93
2, 3744, Note_off_c, 0, 59, 0
2, 3744, Note_on_c, 0, 61, 93
2, 3792, Note_off_c, 0, 61, 0
2, 3792, Note_on_c, 0, 57, 93
2, 3840, Note_off_c, 0, 57, 0
2, 3840, Note_on_c, 0, 40, 93
2, 3888, Note_off_c, 0, 40, 0
2, 3888, Note_on_c, 0, 62, 93
2, 3912, Note_off_c, 0, 62, 0
2, 3912, Note_on_c, 0, 64, 93
2, 3936, Note_off_c, 0, 64, 0
2, 3936, Note_on_c, 0, 66, 93
2, 3960, Note_off_c, 0, 66, 0
2, 3960, Note_on_c, 0, 64, 93
2, 3984, Note_off_c, 0, 64, 0
2, 3984, Note_on_c, 0, 62, 93
2, 4008, Note_off_c, 0, 62, 0
2, 4008, Note_on_c, 0, 61, 93
2, 4032, Note_off_c, 0, 61, 0
2, 4032, Note_on_c, 0, 62, 93
2, 4080, Note_off_c, 0, 62, 0
2, 4080, Note_on_c, 0, 59, 93
2, 4128, Note_off_c, 0, 59, 0
2, 4128, Note_on_c, 0, 40, 93
2, 4176, Note_off_c, 0, 40, 0
2, 4176, Note_on_c, 0, 61, 93
2, 4200, Note_off_c, 0, 61, 0
2, 4200, Note_on_c, 0, 62, 93
2, 4224, Note_off_c, 0, 62, 0
2, 4224, Note_on_c, 0, 64, 93
2, 4248, Note_off_c, 0, 64, 0
2, 4248, Note_on_c, 0, 62, 93
2, 4272, Note_off_c, 0, 62, 0
2, 4272, Note_on_c, 0, 61, 93
2, 4296, Note_off_c, 0, 61, 0
2, 4296, Note_on_c, 0, 59, 93
2, 4320, Note_off_c, 0, 59, 0
2, 4320, Note_on_c, 0, 61, 93
2, 4344, Note_off_c, 0, 61, 0
2, 4344, Note_on_c, 0, 59, 93
2, 4368, Note_off_c, 0, 59, 0
2, 4368, Note_on_c, 0, 57, 93
2, 4392, Note_off_c, 0, 57, 0
2, 4392, Note_on_c, 0, 56, 93
2, 4416, Note_off_c, 0, 56, 0
2, 4416, Note_on_c, 0, 57, 93
2, 4440, Note_off_c, 0, 57, 0
2, 4440, Note_on_c, 0, 56, 93
2, 4464, Note_off_c, 0, 56, 0
2, 4464, Note_on_c, 0, 57, 93
2, 4488, Note_off_c, 0, 57, 0
2, 4488, Note_on_c, 0, 59, 93
2, 4512, Note_off_c, 0, 59, 0
2, 4512, Note_on_c, 0, 61, 93
2, 4536, Note_off_c, 0, 61, 0
2, 4536, Note_on_c, 0, 59, 93
2, 4560, Note_off_c, 0, 59, 0
2, 4560, Note_on_c, 0, 57, 93
2, 4584, Note_off_c, 0, 57, 0
2, 4584, Note_on_c, 0, 56, 93
2, 4608, Note_off_c, 0, 56, 0
2, 4608, Note_on_c, 0, 57, 93
2, 4632, Note_off_c, 0, 57, 0
2, 4632, Note_on_c, 0, 56, 93
2, 4656, Note_off_c, 0, 56, 0
2, 4656, Note_on_c, 0, 54, 93
2, 4680, Note_off_c, 0, 54, 0
2, 4680, Note_on_c, 0, 52, 93
2, 4704, Note_off_c, 0, 52, 0
2, 4704, Note_on_c, 0, 54, 93
2, 4728, Note_off_c, 0, 54, 0
2, 4728, Note_on_c, 0, 52, 93
2, 4752, Note_off_c, 0, 52, 0
2, 4752, Note_on_c, 0, 54, 93
2, 4776, Note_off_c, 0, 54, 0
2, 4776, Note_on_c, 0, 56, 93
2, 4800, Note_off_c, 0, 56, 0
2, 4800, Note_on_c, 0, 57, 93
2, 4824, Note_off_c, 0, 57, 0
2, 4824, Note_on_c, 0, 56, 93
2, 4848, Note_off_c, 0, 56, 0
2, 4848, Note_on_c, 0, 54, 93
2, 4872, Note_off_c, 0, 54, 0
2, 4872, Note_on_c, 0, 52, 93
2, 4896, Note_off_c, 0, 52, 0
2, 4896, Note_on_c, 0, 54, 93
2, 4920, Note_off_c, 0, 54, 0
2, 4920, Note_on_c, 0, 52, 93
2, 4944, Note_off_c, 0, 52, 0
2, 4944, Note_on_c, 0, 50, 93
2, 4968, Note_off_c, 0, 50, 0
2, 4968, Note_on_c, 0, 49, 93
2, 4992, Note_off_c, 0, 49, 0
2, 4992, Note_on_c, 0, 50, 93
2, 5016, Note_off_c, 0, 50, 0
2, 5016, Note_on_c, 0, 49, 93
2, 5040, Note_off_c, 0, 49, 0
2, 5040, Note_on_c, 0, 50, 93
2, 5064, Note_off_c, 0, 50, 0
2, 5064, Note_on_c, 0, 52, 93
2, 5088, Note_off_c, 0, 52, 0
2, 5088, Note_on_c, 0, 54, 93
2, 5112, Note_off_c, 0, 54, 0
2, 5112, Note_on_c, 0, 52, 93
2, 5136, Note_off_c, 0, 52, 0
2, 5136, Note_on_c, 0, 50, 93
2, 5160, Note_off_c, 0, 50, 0
2, 5160, Note_on_c, 0, 49, 93
2, 5184, Note_off_c, 0, 49, 0
2, 5184, Note_on_c, 0, 50, 93
2, 5208, Note_off_c, 0, 50, 0
2, 5208, Note_on_c, 0, 49, 93
2, 5232, Note_off_c, 0, 49, 0
2, 5232, Note_on_c, 0, 47, 93
2, 5256, Note_off_c, 0, 47, 0
2, 5256, Note_on_c, 0, 45, 93
2, 5280, Note_off_c, 0, 45, 0
2, 5280, Note_on_c, 0, 47, 93
2, 5304, Note_off_c, 0, 47, 0
2, 5304, Note_on_c, 0, 49, 93
2, 5328, Note_off_c, 0, 49, 0
2, 5328, Note_on_c, 0, 50, 93
2, 5352, Note_off_c, 0, 50, 0
2, 5352, Note_on_c, 0, 52, 93
2, 5376, Note_off_c, 0, 52, 0
2, 5376, Note_on_c, 0, 54, 93
2, 5400, Note_off_c, 0, 54, 0
2, 5400, Note_on_c, 0, 56, 93
2, 5424, Note_off_c, 0, 56, 0
2, 5424, Note_on_c, 0, 57, 93
2, 5448, Note_off_c, 0, 57, 0
2, 5448, Note_on_c, 0, 54, 93
2, 5472, Note_off_c, 0, 54, 0
2, 5472, Note_on_c, 0, 56, 93
2, 5496, Note_off_c, 0, 56, 0
2, 5496, Note_on_c, 0, 54, 93
2, 5520, Note_off_c, 0, 54, 0
2, 5520, Note_on_c, 0, 52, 93
2, 5544, Note_off_c, 0, 52, 0
2, 5544, Note_on_c, 0, 50, 93
2, 5568, Note_off_c, 0, 50, 0
2, 5568, Note_on_c, 0, 52, 93
2, 5592, Note_off_c, 0, 52, 0
2, 5592, Note_on_c, 0, 54, 93
2, 5616, Note_off_c, 0, 54, 0
2, 5616, Note_on_c, 0, 56, 93
2, 5640, Note_off_c, 0, 56, 0
2, 5640, Note_on_c, 0, 57, 93
2, 5664, Note_off_c, 0, 57, 0
2, 5664, Note_on_c, 0, 59, 93
2, 5688, Note_off_c, 0, 59, 0
2, 5688, Note_on_c, 0, 61, 93
2, 5712, Note_off_c, 0, 61, 0
2, 5712, Note_on_c, 0, 62, 93
2, 5736, Note_off_c, 0, 62, 0
2, 5736, Note_on_c, 0, 59, 93
2, 5760, Note_off_c, 0, 59, 0
2, 5760, Note_on_c, 0, 61, 93
2, 5808, Note_off_c, 0, 61, 0
2, 5808, Note_on_c, 0, 57, 93
2, 5832, Note_off_c, 0, 57, 0
2, 5832, Note_on_c, 0, 59, 93
2, 5856, Note_off_c, 0, 59, 0
2, 5856, Note_on_c, 0, 61, 93
2, 5904, Note_off_c, 0, 61, 0
2, 5904, Note_on_c, 0, 57, 93
2, 5952, Note_off_c, 0, 57, 0
2, 5952, Note_on_c, 0, 64, 93
2, 6000, Note_off_c, 0, 64, 0
2, 6000, Note_on_c, 0, 61, 93
2, 6048, Note_off_c, 0, 61, 0
2, 6048, Note_on_c, 0, 69, 93
2, 6096, Note_off_c, 0, 69, 0
2, 6096, Note_on_c, 0, 54, 93
2, 6120, Note_off_c, 0, 54, 0
2, 6120, Note_on_c, 0, 56, 93
2, 6144, Note_off_c, 0, 56, 0
2, 6144, Note_on_c, 0, 57, 93
2, 6192, Note_off_c, 0, 57, 0
2, 6192, Note_on_c, 0, 54, 93
2, 6240, Note_off_c, 0, 54, 0
2, 6240, Note_on_c, 0, 61, 93
2, 6288, Note_off_c, 0, 61, 0
2, 6288, Note_on_c, 0, 57, 93
2, 6336, Note_off_c, 0, 57, 0
2, 6336, Note_on_c, 0, 69, 93
2, 6384, Note_off_c, 0, 69, 0
2, 6384, Note_on_c, 0, 49, 93
2, 6408, Note_off_c, 0, 49, 0
2, 6408, Note_on_c, 0, 50, 93
2, 6432, Note_off_c, 0, 50, 0
2, 6432, Note_on_c, 0, 52, 93
2, 6480, Note_off_c, 0, 52, 0
2, 6480, Note_on_c, 0, 49, 93
2, 6528, Note_off_c, 0, 49, 0
2, 6528, Note_on_c, 0, 57, 93
2, 6576, Note_off_c, 0, 57, 0
2, 6576, Note_on_c, 0, 52, 93
2, 6624, Note_off_c, 0, 52, 0
2, 6624, Note_on_c, 0, 54, 93
2, 6648, Note_off_c, 0, 54, 0
2, 6648, Note_on_c, 0, 52, 93
2, 6672, Note_off_c, 0, 52, 0
2, 6672, Note_on_c, 0, 50, 93
2, 6696, Note_off_c, 0, 50, 0
2, 6696, Note_on_c, 0, 49, 93
2, 6720, Note_off_c, 0, 49, 0
2, 6720, Note_on_c, 0, 50, 93
2, 6744, Note_off_c, 0, 50, 0
2, 6744, Note_on_c, 0, 47, 93
2, 6768, Note_off_c, 0, 47, 0
2, 6768, Note_on_c, 0, 56, 93
2, 6792, Note_off_c, 0, 56, 0
2, 6792, Note_on_c, 0, 54, 93
2, 6816, Note_off_c, 0, 54, 0
2, 6816, Note_on_c, 0, 57, 93
2, 6840, Note_off_c, 0, 57, 0
2, 6840, Note_on_c, 0, 56, 93
2, 6864, Note_off_c, 0, 56, 0
2, 6864, Note_on_c, 0, 54, 93
2, 6888, Note_off_c, 0, 54, 0
2, 6888, Note_on_c, 0, 52, 93
2, 6912, Note_off_c, 0, 52, 0
2, 6912, Note_on_c, 0, 59, 93
2, 6936, Note_off_c, 0, 59, 0
2, 6936, Note_on_c, 0, 57, 93
2, 6960, Note_off_c, 0, 57, 0
2, 6960, Note_on_c, 0, 56, 93
2, 6984, Note_off_c, 0, 56, 0
2, 6984, Note_on_c, 0, 54, 93
2, 7008, Note_off_c, 0, 54, 0
2, 7008, Note_on_c, 0, 56, 93
2, 7032, Note_off_c, 0, 56, 0
2, 7032, Note_on_c, 0, 52, 93
2, 7056, Note_off_c, 0, 52, 0
2, 7056, Note_on_c, 0, 61, 93
2, 7080, Note_off_c, 0, 61, 0
2, 7080, Note_on_c, 0, 59, 93
2, 7104, Note_off_c, 0, 59, 0
2, 7104, Note_on_c, 0, 62, 93
2, 7128, Note_off_c, 0, 62, 0
2, 7128, Note_on_c, 0, 61, 93
2, 7152, Note_off_c, 0, 61, 0
2, 7152, Note_on_c, 0, 59, 93
2, 7176, Note_off_c, 0, 59, 0
2, 7176, Note_on_c, 0, 57, 93
2, 7200, Note_off_c, 0, 57, 0
2, 7200, Note_on_c, 0, 64, 93
2, 7224, Note_off_c, 0, 64, 0
2, 7224, Note_on_c, 0, 62, 93
2, 7248, Note_off_c, 0, 62, 0
2, 7248, Note_on_c, 0, 61, 93
2, 7272, Note_off_c, 0, 61, 0
2, 7272, Note_on_c, 0, 59, 93
2, 7296, Note_off_c, 0, 59, 0
2, 7296, Note_on_c, 0, 61, 93
2, 7320, Note_off_c, 0, 61, 0
2, 7320, Note_on_c, 0, 57, 93
2, 7344, Note_off_c, 0, 57, 0
2, 7344, Note_on_c, 0, 66, 93
2, 7368, Note_off_c, 0, 66, 0
2, 7368, Note_on_c, 0, 64, 93
2, 7392, Note_off_c, 0, 64, 0
2, 7392, Note_on_c, 0, 67, 93
2, 7416, Note_off_c, 0, 67, 0
2, 7416, Note_on_c, 0, 66, 93
2, 7440, Note_off_c, 0, 66, 0
2, 7440, Note_on_c, 0, 64, 93
2, 7464, Note_off_c, 0, 64, 0
2, 7464, Note_on_c, 0, 62, 93
2, 7488, Note_off_c, 0, 62, 0
2, 7488, Note_on_c, 0, 71, 93
2, 7536, Note_off_c, 0, 71, 0
2, 7536, Note_on_c, 0, 68, 93
2, 7560, Note_off_c, 0, 68, 0
2, 7560, Note_on_c, 0, 69, 93
2, 7584, Note_off_c, 0, 69, 0
2, 7584, Note_on_c, 0, 71, 93
2, 7632, Note_off_c, 0, 71, 0
2, 7632, Note_on_c, 0, 64, 93
2, 7680, Note_off_c, 0, 64, 0
2, 7680, Note_on_c, 0, 68, 93
2, 7728, Note_off_c, 0, 68, 0
2, 7728, Note_on_c, 0, 62, 93
2, 7776, Note_off_c, 0, 62, 0
2, 7776, Note_on_c, 0, 61, 93
2, 7824, Note_off_c, 0, 61, 0
2, 7824, Note_on_c, 0, 57, 93
2, 7848, Note_off_c, 0, 57, 0
2, 7848, Note_on_c, 0, 59, 93
2, 7872, Note_off_c, 0, 59, 0
2, 7872, Note_on_c, 0, 61, 93
2, 7920, Note_off_c, 0, 61, 0
2, 7920, Note_on_c, 0, 52, 93
2, 7968, Note_off_c, 0, 52, 0
2, 7968, Note_on_c, 0, 56, 93
2, 8016, Note_off_c, 0, 56, 0
2, 8016, Note_on_c, 0, 50, 93
2, 8064, Note_off_c, 0, 50, 0
2, 8064, Note_on_c, 0, 45, 93
2, 8256, Note_off_c, 0, 45, 0
2, 8304, Note_on_c, 0, 62, 93
2, 8352, Note_off_c, 0, 62, 0
2, 8352, Note_on_c, 0, 62, 93
2, 8400, Note_off_c, 0, 62, 0
2, 8400, Note_on_c, 0, 50, 93
2, 8424, Note_off_c, 0, 50, 0
2, 8424, Note_on_c, 0, 52, 93
2, 8448, Note_off_c, 0, 52, 0
2, 8448, Note_on_c, 0, 54, 93
2, 8496, Note_off_c, 0, 54, 0
2, 8496, Note_on_c, 0, 50, 93
2, 8544, Note_off_c, 0, 50, 0
2, 8544, Note_on_c, 0, 57, 93
2, 8592, Note_off_c, 0, 57, 0
2, 8592, Note_on_c, 0, 54, 93
2, 8640, Note_off_c, 0, 54, 0
2, 8640, Note_on_c, 0, 62, 93
2, 8688, Note_off_c, 0, 62, 0
2, 8688, Note_on_c, 0, 57, 93
2, 8736, Note_off_c, 0, 57, 0
2, 8736, Note_on_c, 0, 66, 93
2, 8784, Note_off_c, 0, 66, 0
2, 8784, Note_on_c, 0, 62, 93
2, 8832, Note_off_c, 0, 62, 0
2, 8832, Note_on_c, 0, 69, 93
2, 8880, Note_off_c, 0, 69, 0
2, 8880, Note_on_c, 0, 60, 93
2, 8928, Note_off_c, 0, 60, 0
2, 8928, Note_on_c, 0, 59, 93
2, 8976, Note_off_c, 0, 59, 0
2, 8976, Note_on_c, 0, 64, 93
2, 9000, Note_off_c, 0, 64, 0
2, 9000, Note_on_c, 0, 66, 93
2, 9024, Note_off_c, 0, 66, 0
2, 9024, Note_on_c, 0, 67, 93
2, 9072, Note_off_c, 0, 67, 0
2, 9072, Note_on_c, 0, 64, 93
2, 9120, Note_off_c, 0, 64, 0
2, 9120, Note_on_c, 0, 71, 93
2, 9168, Note_off_c, 0, 71, 0
2, 9168, Note_on_c, 0, 62, 93
2, 9216, Note_off_c, 0, 62, 0
2, 9216, Note_on_c, 0, 61, 93
2, 9264, Note_off_c, 0, 61, 0
2, 9264, Note_on_c, 0, 57, 93
2, 9288, Note_off_c, 0, 57, 0
2, 9288, Note_on_c, 0, 59, 93
2, 9312, Note_off_c, 0, 59, 0
2, 9312, Note_on_c, 0, 61, 93
2, 9360, Note_off_c, 0, 61, 0
2, 9360, Note_on_c, 0, 57, 93
2, 9408, Note_off_c, 0, 57, 0
2, 9408, Note_on_c, 0, 64, 93
2, 9456, Note_off_c, 0, 64, 0
2, 9456, Note_on_c, 0, 55, 93
2, 9504, Note_off_c, 0, 55, 0
2, 9504, Note_on_c, 0, 54, 93
2, 9552, Note_off_c, 0, 54, 0
2, 9552, Note_on_c, 0, 50, 93
2, 9576, Note_off_c, 0, 50, 0
2, 9576, Note_on_c, 0, 52, 93
2, 9600, Note_off_c, 0, 52, 0
2, 9600, Note_on_c, 0, 54, 93
2, 9648, Note_off_c, 0, 54, 0
2, 9648, Note_on_c, 0, 50, 93
2, 9696, Note_off_c, 0, 50, 0
2, 9696, Note_on_c, 0, 57, 93
2, 9744, Note_off_c, 0, 57, 0
2, 9744, Note_on_c, 0, 48, 93
2, 9792, Note_off_c, 0, 48, 0
2, 9792, Note_on_c, 0, 47, 93
2, 9840, Note_off_c, 0, 47, 0
2, 9840, Note_on_c, 0, 43, 93
2, 9864, Note_off_c, 0, 43, 0
2, 9864, Note_on_c, 0, 45, 93
2, 9888, Note_off_c, 0, 45, 0
2, 9888, Note_on_c, 0, 47, 93
2, 9936, Note_off_c, 0, 47, 0
2, 9936, Note_on_c, 0, 43, 93
2, 9984, Note_off_c, 0, 43, 0
2, 9984, Note_on_c, 0, 52, 93
2, 10032, Note_off_c, 0, 52, 0
2, 10032, Note_on_c, 0, 43, 93
2, 10080, Note_off_c, 0, 43, 0
2, 10080, Note_on_c, 0, 42, 93
2, 10128, Note_off_c, 0, 42, 0
2, 10128, Note_on_c, 0, 45, 93
2, 10176, Note_off_c, 0, 45, 0
2, 10176, Note_on_c, 0, 50, 93
2, 10224, Note_off_c, 0, 50, 0
2, 10224, Note_on_c, 0, 43, 93
2, 10272, Note_off_c, 0, 43, 0
2, 10272, Note_on_c, 0, 45, 93
2, 10320, Note_off_c, 0, 45, 0
2, 10320, Note_on_c, 0, 49, 93
2, 10368, Note_off_c, 0, 49, 0
2, 10368, Note_on_c, 0, 50, 93
2, 10464, Note_off_c, 0, 50, 0
2, 10464, Note_on_c, 0, 38, 93
2, 10512, Note_off_c, 0, 38, 0
2, 10512, Note_on_c, 0, 54, 93
2, 10560, Note_off_c, 0, 54, 0
2, 10560, Note_on_c, 0, 55, 93
2, 10584, Note_off_c, 0, 55, 0
2, 10584, Note_on_c, 0, 54, 93
2, 10608, Note_off_c, 0, 54, 0
2, 10608, Note_on_c, 0, 52, 93
2, 10632, Note_off_c, 0, 52, 0
2, 10632, Note_on_c, 0, 50, 93
2, 10656, Note_off_c, 0, 50, 0
2, 10656, Note_on_c, 0, 52, 93
2, 10704, Note_off_c, 0, 52, 0
2, 10704, Note_on_c, 0, 49, 93
2, 10728, Note_off_c, 0, 49, 0
2, 10728, Note_on_c, 0, 50, 93
2, 10752, Note_off_c, 0, 50, 0
2, 10752, Note_on_c, 0, 52, 93
2, 10800, Note_off_c, 0, 52, 0
2, 10800, Note_on_c, 0, 45, 93
2, 10848, Note_off_c, 0, 45, 0
2, 10848, Note_on_c, 0, 57, 93
2, 10896, Note_off_c, 0, 57, 0
2, 10896, Note_on_c, 0, 52, 93
2, 10944, Note_off_c, 0, 52, 0
2, 10944, Note_on_c, 0, 54, 93
2, 10992, Note_off_c, 0, 54, 0
2, 10992, Note_on_c, 0, 50, 93
2, 11016, Note_off_c, 0, 50, 0
2, 11016, Note_on_c, 0, 52, 93
2, 11040, Note_off_c, 0, 52, 0
2, 11040, Note_on_c, 0, 54, 93
2, 11088, Note_off_c, 0, 54, 0
2, 11088, Note_on_c, 0, 50, 93
2, 11136, Note_off_c, 0, 50, 0
2, 11136, Note_on_c, 0, 57, 93
2, 11184, Note_off_c, 0, 57, 0
2, 11184, Note_on_c, 0, 54, 93
2, 11232, Note_off_c, 0, 54, 0
2, 11232, Note_on_c, 0, 62, 93
2, 11280, Note_off_c, 0, 62, 0
2, 11280, Note_on_c, 0, 59, 93
2, 11304, Note_off_c, 0, 59, 0
2, 11304, Note_on_c, 0, 61, 93
2, 11328, Note_off_c, 0, 61, 0
2, 11328, Note_on_c, 0, 62, 93
2, 11376, Note_off_c, 0, 62, 0
2, 11376, Note_on_c, 0, 59, 93
2, 11424, Note_off_c, 0, 59, 0
2, 11424, Note_on_c, 0, 66, 93
2, 11472, Note_off_c, 0, 66, 0
2, 11472, Note_on_c, 0, 57, 93
2, 11520, Note_off_c, 0, 57, 0
2, 11520, Note_on_c, 0, 56, 93
2, 11568, Note_off_c, 0, 56, 0
2, 11568, Note_on_c, 0, 59, 93
2, 11616, Note_off_c, 0, 59, 0
2, 11616, Note_on_c, 0, 52, 93
2, 11664, Note_off_c, 0, 52, 0
2, 11664, Note_on_c, 0, 61, 93
2, 11688, Note_off_c, 0, 61, 0
2, 11688, Note_on_c, 0, 62, 93
2, 11712, Note_off_c, 0, 62, 0
2, 11712, Note_on_c, 0, 64, 93
2, 11736, Note_off_c, 0, 64, 0
2, 11736, Note_on_c, 0, 62, 93
2, 11760, Note_off_c, 0, 62, 0
2, 11760, Note_on_c, 0, 61, 93
2, 11784, Note_off_c, 0, 61, 0
2, 11784, Note_on_c, 0, 59, 93
2, 11808, Note_off_c, 0, 59, 0
2, 11808, Note_on_c, 0, 61, 93
2, 11856, Note_off_c, 0, 61, 0
2, 11856, Note_on_c, 0, 57, 93
2, 11904, Note_off_c, 0, 57, 0
2, 11904, Note_on_c, 0, 40, 93
2, 11952, Note_off_c, 0, 40, 0
2, 11952, Note_on_c, 0, 62, 93
2, 11976, Note_off_c, 0, 62, 0
2, 11976, Note_on_c, 0, 64, 93
2, 12000, Note_off_c, 0, 64, 0
2, 12000, Note_on_c, 0, 66, 93
2, 12024, Note_off_c, 0, 66, 0
2, 12024, Note_on_c, 0, 64, 93
2, 12048, Note_off_c, 0, 64, 0
2, 12048, Note_on_c, 0, 62, 93
2, 12072, Note_off_c, 0, 62, 0
2, 12072, Note_on_c, 0, 61, 93
2, 12096, Note_off_c, 0, 61, 0
2, 12096, Note_on_c, 0, 62, 93
2, 12144, Note_off_c, 0, 62, 0
2, 12144, Note_on_c, 0, 59, 93
2, 12192, Note_off_c, 0, 59, 0
2, 12192, Note_on_c, 0, 40, 93
2, 12240, Note_off_c, 0, 40, 0
2, 12240, Note_on_c, 0, 61, 93
2, 12264, Note_off_c, 0, 61, 0
2, 12264, Note_on_c, 0, 62, 93
2, 12288, Note_off_c, 0, 62, 0
2, 12288, Note_on_c, 0, 64, 93
2, 12312, Note_off_c, 0, 64, 0
2, 12312, Note_on_c, 0, 62, 93
2, 12336, Note_off_c, 0, 62, 0
2, 12336, Note_on_c, 0, 61, 93
2, 12360, Note_off_c, 0, 61, 0
2, 12360, Note_on_c, 0, 59, 93
2, 12384, Note_off_c, 0, 59, 0
2, 12384, Note_on_c, 0, 61, 93
2, 12408, Note_off_c, 0, 61, 0
2, 12408, Note_on_c, 0, 59, 93
2, 12432, Note_off_c, 0, 59, 0
2, 12432, Note_on_c, 0, 57, 93
2, 12456, Note_off_c, 0, 57, 0
2, 12456, Note_on_c, 0, 56, 93
2, 12480, Note_off_c, 0, 56, 0
2, 12480, Note_on_c, 0, 57, 93
2, 12504, Note_off_c, 0, 57, 0
2, 12504, Note_on_c, 0, 56, 93
2, 12528, Note_off_c, 0, 56, 0
2, 12528, Note_on_c, 0, 57, 93
2, 12552, Note_off_c, 0, 57, 0
2, 12552, Note_on_c, 0, 59, 93
2, 12576, Note_off_c, 0, 59, 0
2, 12576, Note_on_c, 0, 61, 93
2, 12600, Note_off_c, 0, 61, 0
2, 12600, Note_on_c, 0, 59, 93
2, 12624, Note_off_c, 0, 59, 0
2, 12624, Note_on_c, 0, 57, 93
2, 12648, Note_off_c, 0, 57, 0
2, 12648, Note_on_c, 0, 56, 93
2, 12672, Note_off_c, 0, 56, 0
2, 12672, Note_on_c, 0, 57, 93
2, 12696, Note_off_c, 0, 57, 0
2, 12696, Note_on_c, 0, 56, 93
2, 12720, Note_off_c, 0, 56, 0
2, 12720, Note_on_c, 0, 54, 93
2, 12744, Note_off_c, 0, 54, 0
2, 12744, Note_on_c, 0, 52, 93
2, 12768, Note_off_c, 0, 52, 0
2, 12768, Note_on_c, 0, 54, 93
2, 12792, Note_off_c, 0, 54, 0
2, 12792, Note_on_c, 0, 52, 93
2, 12816, Note_off_c, 0, 52, 0
2, 12816, Note_on_c, 0, 54, 93
2, 12840, Note_off_c, 0, 54, 0
2, 12840, Note_on_c, 0, 56, 93
2, 12864, Note_off_c, 0, 56, 0
2, 12864, Note_on_c, 0, 57, 93
2, 12888, Note_off_c, 0, 57, 0
2, 12888, Note_on_c, 0, 56, 93
2, 12912, Note_off_c, 0, 56, 0
2, 12912, Note_on_c, 0, 54, 93
2, 12936, Note_off_c, 0, 54, 0
2, 12936, Note_on_c, 0, 52, 93
2, 12960, Note_off_c, 0, 52, 0
2, 12960, Note_on_c, 0, 54, 93
2, 12984, Note_off_c, 0, 54, 0
2, 12984, Note_on_c, 0, 52, 93
2, 13008, Note_off_c, 0, 52, 0
2, 13008, Note_on_c, 0, 50, 93
2, 13032, Note_off_c, 0, 50, 0
2, 13032, Note_on_c, 0, 49, 93
2, 13056, Note_off_c, 0, 49, 0
2, 13056, Note_on_c, 0, 50, 93
2, 13080, Note_off_c, 0, 50, 0
2, 13080, Note_on_c, 0, 49, 93
2, 13104, Note_off_c, 0, 49, 0
2, 13104, Note_on_c, 0, 50, 93
2, 13128, Note_off_c, 0, 50, 0
2, 13128, Note_on_c, 0, 52, 93
2, 13152, Note_off_c, 0, 52, 0
2, 13152, Note_on_c, 0, 54, 93
2, 13176, Note_off_c, 0, 54, 0
2, 13176, Note_on_c, 0, 52, 93
2, 13200, Note_off_c, 0, 52, 0
2, 13200, Note_on_c, 0, 50, 93
2, 13224, Note_off_c, 0, 50, 0
2, 13224, Note_on_c, 0, 49, 93
2, 13248, Note_off_c, 0, 49, 0
2, 13248, Note_on_c, 0, 50, 93
2, 13272, Note_off_c, 0, 50, 0
2, 13272, Note_on_c, 0, 49, 93
2, 13296, Note_off_c, 0, 49, 0
2, 13296, Note_on_c, 0, 47, 93
2, 13320, Note_off_c, 0, 47, 0
2, 13320, Note_on_c, 0, 45, 93
2, 13344, Note_off_c, 0, 45, 0
2, 13344, Note_on_c, 0, 47, 93
2, 13368, Note_off_c, 0, 47, 0
2, 13368, Note_on_c, 0, 49, 93
2, 13392, Note_off_c, 0, 49, 0
2, 13392, Note_on_c, 0, 50, 93
2, 13416, Note_off_c, 0, 50, 0
2, 13416, Note_on_c, 0, 52, 93
2, 13440, Note_off_c, 0, 52, 0
2, 13440, Note_on_c, 0, 54, 93
2, 13464, Note_off_c, 0, 54, 0
2, 13464, Note_on_c, 0, 56, 93
2, 13488, Note_off_c, 0, 56, 0
2, 13488, Note_on_c, 0, 57, 93
2, 13512, Note_off_c, 0, 57, 0
2, 13512, Note_on_c, 0, 54, 93
2, 13536, Note_off_c, 0, 54, 0
2, 13536, Note_on_c, 0, 56, 93
2, 13560, Note_off_c, 0, 56, 0
2, 13560, Note_on_c, 0, 54, 93
2, 13584, Note_off_c, 0, 54, 0
2, 13584, Note_on_c, 0, 52, 93
2, 13608, Note_off_c, 0, 52, 0
2, 13608, Note_on_c, 0, 50, 93
2, 13632, Note_off_c, 0, 50, 0
2, 13632, Note_on_c, 0, 52, 93
2, 13656, Note_off_c, 0, 52, 0
2, 13656, Note_on_c, 0, 54, 93
2, 13680, Note_off_c, 0, 54, 0
2, 13680, Note_on_c, 0, 56, 93
2, 13704, Note_off_c, 0, 56, 0
2, 13704, Note_on_c, 0, 57, 93
2, 13728, Note_off_c, 0, 57, 0
2, 13728, Note_on_c, 0, 59, 93
2, 13752, Note_off_c, 0, 59, 0
2, 13752, Note_on_c, 0, 61, 93
2, 13776, Note_off_c, 0, 61, 0
2, 13776, Note_on_c, 0, 62, 93
2, 13800, Note_off_c, 0, 62, 0
2, 13800, Note_on_c, 0, 59, 93
2, 13824, Note_off_c, 0, 59, 0
2, 13824, Note_on_c, 0, 61, 93
2, 13872, Note_off_c, 0, 61, 0
2, 13872, Note_on_c, 0, 57, 93
2, 13896, Note_off_c, 0, 57, 0
2, 13896, Note_on_c, 0, 59, 93
2, 13920, Note_off_c, 0, 59, 0
2, 13920, Note_on_c, 0, 61, 93
2, 13968, Note_off_c, 0, 61, 0
2, 13968, Note_on_c, 0, 57, 93
2, 14016, Note_off_c, 0, 57, 0
2, 14016, Note_on_c, 0, 64, 93
2, 14064, Note_off_c, 0, 64, 0
2, 14064, Note_on_c, 0, 61, 93
2, 14112, Note_off_c, 0, 61, 0
2, 14112, Note_on_c, 0, 69, 93
2, 14160, Note_off_c, 0, 69, 0
2, 14160, Note_on_c, 0, 54, 93
2, 14184, Note_off_c, 0, 54, 0
2, 14184, Note_on_c, 0, 56, 93
2, 14208, Note_off_c, 0, 56, 0
2, 14208, Note_on_c, 0, 57, 93
2, 14256, Note_off_c, 0, 57, 0
2, 14256, Note_on_c, 0, 54, 93
2, 14304, Note_off_c, 0, 54, 0
2, 14304, Note_on_c, 0, 61, 93
2, 14352, Note_off_c, 0, 61, 0
2, 14352, Note_on_c, 0, 57, 93
2, 14400, Note_off_c, 0, 57, 0
2, 14400, Note_on_c, 0, 69, 93
2, 14448, Note_off_c, 0, 69, 0
2, 14448, Note_on_c, 0, 49, 93
2, 14472, Note_off_c, 0, 49, 0
2, 14472, Note_on_c, 0, 50, 93
2, 14496, Note_off_c, 0, 50, 0
2, 14496, Note_on_c, 0, 52, 93
2, 14544, Note_off_c, 0, 52, 0
2, 14544, Note_on_c, 0, 49, 93
2, 14592, Note_off_c, 0, 49, 0
2, 14592, Note_on_c, 0, 57, 93
2, 14640, Note_off_c, 0, 57, 0
2, 14640, Note_on_c, 0, 52, 93
2, 14688, Note_off_c, 0, 52, 0
2, 14688, Note_on_c, 0, 54, 93
2, 14712, Note_off_c, 0, 54, 0
2, 14712, Note_on_c, 0, 52, 93
2, 14736, Note_off_c, 0, 52, 0
2, 14736, Note_on_c, 0, 50, 93
2, 14760, Note_off_c, 0, 50, 0
2, 14760, Note_on_c, 0, 49, 93
2, 14784, Note_off_c, 0, 49, 0
2, 14784, Note_on_c, 0, 50, 93
2, 14808, Note_off_c, 0, 50, 0
2, 14808, Note_on_c, 0, 47, 93
2, 14832, Note_off_c, 0, 47, 0
2, 14832, Note_on_c, 0, 56, 93
2, 14856, Note_off_c, 0, 56, 0
2, 14856, Note_on_c, 0, 54, 93
2, 14880, Note_off_c, 0, 54, 0
2, 14880, Note_on_c, 0, 57, 93
2, 14904, Note_off_c, 0, 57, 0
2, 14904, Note_on_c, 0, 56, 93
2, 14928, Note_off_c, 0, 56, 0
2, 14928, Note_on_c, 0, 54, 93
2, 14952, Note_off_c, 0, 54, 0
2, 14952, Note_on_c, 0, 52, 93
2, 14976, Note_off_c, 0, 52, 0
2, 14976, Note_on_c, 0, 59, 93
2, 15000, Note_off_c, 0, 59, 0
2, 15000, Note_on_c, 0, 57, 93
2, 15024, Note_off_c, 0, 57, 0
2, 15024, Note_on_c, 0, 56, 93
2, 15048, Note_off_c, 0, 56, 0
2, 15048, Note_on_c, 0, 54, 93
2, 15072, Note_off_c, 0, 54, 0
2, 15072, Note_on_c, 0, 56, 93
2, 15096, Note_off_c, 0, 56, 0
2, 15096, Note_on_c, 0, 52, 93
2, 15120, Note_off_c, 0, 52, 0
2, 15120, Note_on_c, 0, 61, 93
2, 15144, Note_off_c, 0, 61, 0
2, 15144, Note_on_c, 0, 59, 93
2, 15168, Note_off_c, 0, 59, 0
2, 15168, Note_on_c, 0, 62, 93
2, 15192, Note_off_c, 0, 62, 0
2, 15192, Note_on_c, 0, 61, 93
2, 15216, Note_off_c, 0, 61, 0
2, 15216, Note_on_c, 0, 59, 93
2, 15240, Note_off_c, 0, 59, 0
2, 15240, Note_on_c, 0, 57, 93
2, 15264, Note_off_c, 0, 57, 0
2, 15264, Note_on_c, 0, 64, 93
2, 15288, Note_off_c, 0, 64, 0
2, 15288, Note_on_c, 0, 62, 93
2, 15312, Note_off_c, 0, 62, 0
2, 15312, Note_on_c, 0, 61, 93
2, 15336, Note_off_c, 0, 61, 0
2, 15336, Note_on_c, 0, 59, 93
2, 15360, Note_off_c, 0, 59, 0
2, 15360, Note_on_c, 0, 61, 93
2, 15384, Note_off_c, 0, 61, 0
2, 15384, Note_on_c, 0, 57, 93
2, 15408, Note_off_c, 0, 57, 0
2, 15408, Note_on_c, 0, 66, 93
2, 15432, Note_off_c, 0, 66, 0
2, 15432, Note_on_c, 0, 64, 93
2, 15456, Note_off_c, 0, 64, 0
2, 15456, Note_on_c, 0, 67, 93
2, 15480, Note_off_c, 0, 67, 0
2, 15480, Note_on_c, 0, 66, 93
2, 15504, Note_off_c, 0, 66, 0
2, 15504, Note_on_c, 0, 64, 93
2, 15528, Note_off_c, 0, 64, 0
2, 15528, Note_on_c, 0, 62, 93
2, 15552, Note_off_c, 0, 62, 0
2, 15552, Note_on_c, 0, 71, 93
2, 15600, Note_off_c, 0, 71, 0
2, 15600, Note_on_c, 0, 68, 93
2, 15624, Note_off_c, 0, 68, 0
2, 15624, Note_on_c, 0, 69, 93
2, 15648, Note_off_c, 0, 69, 0
2, 15648, Note_on_c, 0, 71, 93
2, 15696, Note_off_c, 0, 71, 0
2, 15696, Note_on_c, 0, 64, 93
2, 15744, Note_off_c, 0, 64, 0
2, 15744, Note_on_c, 0, 68, 93
2, 15792, Note_off_c, 0, 68, 0
2, 15792, Note_on_c, 0, 62, 93
2, 15840, Note_off_c, 0, 62, 0
2, 15840, Note_on_c, 0, 61, 93
2, 15888, Note_off_c, 0, 61, 0
2, 15888, Note_on_c, 0, 57, 93
2, 15912, Note_off_c, 0, 57, 0
2, 15912, Note_on_c, 0, 59, 93
2, 15936, Note_off_c, 0, 59, 0
2, 15936, Note_on_c, 0, 61, 93
2, 15984, Note_off_c, 0, 61, 0
2, 15984, Note_on_c, 0, 52, 93
2, 16032, Note_off_c, 0, 52, 0
2, 16032, Note_on_c, 0, 56, 93
2, 16080, Note_off_c, 0, 56, 0
2, 16080, Note_on_c, 0, 50, 93
2, 16128, Note_off_c, 0, 50, 0
2, 16128, Note_on_c, 0, 45, 93
2, 16320, Note_off_c, 0, 45, 0
2, 16368, Note_on_c, 0, 69, 93
2, 16416, Note_off_c, 0, 69, 0
2, 16416, Note_on_c, 0, 69, 93
2, 16464, Note_off_c, 0, 69, 0
2, 16464, Note_on_c, 0, 64, 93
2, 16488, Note_off_c, 0, 64, 0
2, 16488, Note_on_c, 0, 62, 93
2, 16512, Note_off_c, 0, 62, 0
2, 16512, Note_on_c, 0, 61, 93
2, 16560, Note_off_c, 0, 61, 0
2, 16560, Note_on_c, 0, 64, 93
2, 16608, Note_off_c, 0, 64, 0
2, 16608, Note_on_c, 0, 57, 93
2, 16656, Note_off_c, 0, 57, 0
2, 16656, Note_on_c, 0, 61, 93
2, 16704, Note_off_c, 0, 61, 0
2, 16704, Note_on_c, 0, 52, 93
2, 16752, Note_off_c, 0, 52, 0
2, 16752, Note_on_c, 0, 57, 93
2, 16800, Note_off_c, 0, 57, 0
2, 16800, Note_on_c, 0, 49, 93
2, 16848, Note_off_c, 0, 49, 0
2, 16848, Note_on_c, 0, 52, 93
2, 16896, Note_off_c, 0, 52, 0
2, 16896, Note_on_c, 0, 45, 93
2, 16944, Note_off_c, 0, 45, 0
2, 16944, Note_on_c, 0, 43, 93
2, 16992, Note_off_c, 0, 43, 0
2, 16992, Note_on_c, 0, 42, 93
2, 17040, Note_off_c, 0, 42, 0
2, 17040, Note_on_c, 0, 55, 93
2, 17064, Note_off_c, 0, 55, 0
2, 17064, Note_on_c, 0, 54, 93
2, 17088, Note_off_c, 0, 54, 0
2, 17088, Note_on_c, 0, 52, 93
2, 17136, Note_off_c, 0, 52, 0
2, 17136, Note_on_c, 0, 62, 93
2, 17184, Note_off_c, 0, 62, 0
2, 17184, Note_on_c, 0, 61, 93
2, 17232, Note_off_c, 0, 61, 0
2, 17232, Note_on_c, 0, 67, 93
2, 17280, Note_off_c, 0, 67, 0
2, 17280, Note_on_c, 0, 66, 93
2, 17328, Note_off_c, 0, 66, 0
2, 17328, Note_on_c, 0, 62, 93
2, 17376, Note_off_c, 0, 62, 0
2, 17376, Note_on_c, 0, 50, 93
2, 17424, Note_off_c, 0, 50, 0
2, 17424, Note_on_c, 0, 66, 93
2, 17448, Note_off_c, 0, 66, 0
2, 17448, Note_on_c, 0, 64, 93
2, 17472, Note_off_c, 0, 64, 0
2, 17472, Note_on_c, 0, 67, 93
2, 17496, Note_off_c, 0, 67, 0
2, 17496, Note_on_c, 0, 66, 93
2, 17520, Note_off_c, 0, 66, 0
2, 17520, Note_on_c, 0, 64, 93
2, 17544, Note_off_c, 0, 64, 0
2, 17544, Note_on_c, 0, 62, 93
2, 17568, Note_off_c, 0, 62, 0
2, 17568, Note_on_c, 0, 64, 93
2, 17616, Note_off_c, 0, 64, 0
2, 17616, Note_on_c, 0, 61, 93
2, 17664, Note_off_c, 0, 61, 0
2, 17664, Note_on_c, 0, 45, 93
2, 17712, Note_off_c, 0, 45, 0
2, 17712, Note_on_c, 0, 64, 93
2, 17736, Note_off_c, 0, 64, 0
2, 17736, Note_on_c, 0, 62, 93
2, 17760, Note_off_c, 0, 62, 0
2, 17760, Note_on_c, 0, 66, 93
2, 17784, Note_off_c, 0, 66, 0
2, 17784, Note_on_c, 0, 64, 93
2, 17808, Note_off_c, 0, 64, 0
2, 17808, Note_on_c, 0, 62, 93
2, 17832, Note_off_c, 0, 62, 0
2, 17832, Note_on_c, 0, 61, 93
2, 17856, Note_off_c, 0, 61, 0
2, 17856, Note_on_c, 0, 62, 93
2, 17904, Note_off_c, 0, 62, 0
2, 17904, Note_on_c, 0, 54, 93
2, 17952, Note_off_c, 0, 54, 0
2, 17952, Note_on_c, 0, 47, 93
2, 18000, Note_off_c, 0, 47, 0
2, 18000, Note_on_c, 0, 49, 93
2, 18024, Note_off_c, 0, 49, 0
2, 18024, Note_on_c, 0, 50, 93
2, 18048, Note_off_c, 0, 50, 0
2, 18048, Note_on_c, 0, 52, 93
2, 18072, Note_off_c, 0, 52, 0
2, 18072, Note_on_c, 0, 50, 93
2, 18096, Note_off_c, 0, 50, 0
2, 18096, Note_on_c, 0, 52, 93
2, 18120, Note_off_c, 0, 52, 0
2, 18120, Note_on_c, 0, 54, 93
2, 18144, Note_off_c, 0, 54, 0
2, 18144, Note_on_c, 0, 52, 93
2, 18168, Note_off_c, 0, 52, 0
2, 18168, Note_on_c, 0, 54, 93
2, 18192, Note_off_c, 0, 54, 0
2, 18192, Note_on_c, 0, 55, 93
2, 18216, Note_off_c, 0, 55, 0
2, 18216, Note_on_c, 0, 54, 93
2, 18240, Note_off_c, 0, 54, 0
2, 18240, Note_on_c, 0, 55, 93
2, 18264, Note_off_c, 0, 55, 0
2, 18264, Note_on_c, 0, 57, 93
2, 18288, Note_off_c, 0, 57, 0
2, 18288, Note_on_c, 0, 55, 93
2, 18312, Note_off_c, 0, 55, 0
2, 18312, Note_on_c, 0, 57, 93
2, 18336, Note_off_c, 0, 57, 0
2, 18336, Note_on_c, 0, 59, 93
2, 18360, Note_off_c, 0, 59, 0
2, 18360, Note_on_c, 0, 61, 93
2, 18384, Note_off_c, 0, 61, 0
2, 18384, Note_on_c, 0, 62, 93
2, 18408, Note_off_c, 0, 62, 0
2, 18408, Note_on_c, 0, 59, 93
2, 18432, Note_off_c, 0, 59, 0
2, 18432, Note_on_c, 0, 61, 93
2, 18480, Note_off_c, 0, 61, 0
2, 18480, Note_on_c, 0, 55, 93
2, 18528, Note_off_c, 0, 55, 0
2, 18528, Note_on_c, 0, 45, 93
2, 18576, Note_off_c, 0, 45, 0
2, 18576, Note_on_c, 0, 47, 93
2, 18600, Note_off_c, 0, 47, 0
2, 18600, Note_on_c, 0, 49, 93
2, 18624, Note_off_c, 0, 49, 0
2, 18624, Note_on_c, 0, 50, 93
2, 18648, Note_off_c, 0, 50, 0
2, 18648, Note_on_c, 0, 49, 93
2, 18672, Note_off_c, 0, 49, 0
2, 18672, Note_on_c, 0, 50, 93
2, 18696, Note_off_c, 0, 50, 0
2, 18696, Note_on_c, 0, 52, 93
2, 18720, Note_off_c, 0, 52, 0
2, 18720, Note_on_c, 0, 50, 93
2, 18744, Note_off_c, 0, 50, 0
2, 18744, Note_on_c, 0, 52, 93
2, 18768, Note_off_c, 0, 52, 0
2, 18768, Note_on_c, 0, 54, 93
2, 18792, Note_off_c, 0, 54, 0
2, 18792, Note_on_c, 0, 52, 93
2, 18816, Note_off_c, 0, 52, 0
2, 18816, Note_on_c, 0, 54, 93
2, 18840, Note_off_c, 0, 54, 0
2, 18840, Note_on_c, 0, 55, 93
2, 18864, Note_off_c, 0, 55, 0
2, 18864, Note_on_c, 0, 54, 93
2, 18888, Note_off_c, 0, 54, 0
2, 18888, Note_on_c, 0, 55, 93
2, 18912, Note_off_c, 0, 55, 0
2, 18912, Note_on_c, 0, 57, 93
2, 18936, Note_off_c, 0, 57, 0
2, 18936, Note_on_c, 0, 59, 93
2, 18960, Note_off_c, 0, 59, 0
2, 18960, Note_on_c, 0, 61, 93
2, 18984, Note_off_c, 0, 61, 0
2, 18984, Note_on_c, 0, 57, 93
2, 19008, Note_off_c, 0, 57, 0
2, 19008, Note_on_c, 0, 59, 93
2, 19056, Note_off_c, 0, 59, 0
2, 19056, Note_on_c, 0, 54, 93
2, 19104, Note_off_c, 0, 54, 0
2, 19104, Note_on_c, 0, 43, 93
2, 19152, Note_off_c, 0, 43, 0
2, 19152, Note_on_c, 0, 45, 93
2, 19176, Note_off_c, 0, 45, 0
2, 19176, Note_on_c, 0, 47, 93
2, 19200, Note_off_c, 0, 47, 0
2, 19200, Note_on_c, 0, 49, 93
2, 19224, Note_off_c, 0, 49, 0
2, 19224, Note_on_c, 0, 47, 93
2, 19248, Note_off_c, 0, 47, 0
2, 19248, Note_on_c, 0, 49, 93
2, 19272, Note_off_c, 0, 49, 0
2, 19272, Note_on_c, 0, 50, 93
2, 19296, Note_off_c, 0, 50, 0
2, 19296, Note_on_c, 0, 49, 93
2, 19320, Note_off_c, 0, 49, 0
2, 19320, Note_on_c, 0, 50, 93
2, 19344, Note_off_c, 0, 50, 0
2, 19344, Note_on_c, 0, 52, 93
2, 19368, Note_off_c, 0, 52, 0
2, 19368, Note_on_c, 0, 50, 93
2, 19392, Note_off_c, 0, 50, 0
2, 19392, Note_on_c, 0, 52, 93
2, 19416, Note_off_c, 0, 52, 0
2, 19416, Note_on_c, 0, 54, 93
2, 19440, Note_off_c, 0, 54, 0
2, 19440, Note_on_c, 0, 52, 93
2, 19464, Note_off_c, 0, 52, 0
2, 19464, Note_on_c, 0, 54, 93
2, 19488, Note_off_c, 0, 54, 0
2, 19488, Note_on_c, 0, 55, 93
2, 19512, Note_off_c, 0, 55, 0
2, 19512, Note_on_c, 0, 57, 93
2, 19536, Note_off_c, 0, 57, 0
2, 19536, Note_on_c, 0, 59, 93
2, 19560, Note_off_c, 0, 59, 0
2, 19560, Note_on_c, 0, 55, 93
2, 19584, Note_off_c, 0, 55, 0
2, 19584, Note_on_c, 0, 52, 93
2, 19608, Note_off_c, 0, 52, 0
2, 19608, Note_on_c, 0, 62, 93
2, 19632, Note_off_c, 0, 62, 0
2, 19632, Note_on_c, 0, 61, 93
2, 19656, Note_off_c, 0, 61, 0
2, 19656, Note_on_c, 0, 59, 93
2, 19680, Note_off_c, 0, 59, 0
2, 19680, Note_on_c, 0, 58, 93
2, 19704, Note_off_c, 0, 58, 0
2, 19704, Note_on_c, 0, 67, 93
2, 19728, Note_off_c, 0, 67, 0
2, 19728, Note_on_c, 0, 66, 93
2, 19752, Note_off_c, 0, 66, 0
2, 19752, Note_on_c, 0, 64, 93
2, 19776, Note_off_c, 0, 64, 0
2, 19776, Note_on_c, 0, 71, 93
2, 19800, Note_off_c, 0, 71, 0
2, 19800, Note_on_c, 0, 70, 93
2, 19824, Note_off_c, 0, 70, 0
2, 19824, Note_on_c, 0, 68, 93
2, 19848, Note_off_c, 0, 68, 0
2, 19848, Note_on_c, 0, 66, 93
2, 19872, Note_off_c, 0, 66, 0
2, 19872, Note_on_c, 0, 71, 93
2, 19920, Note_off_c, 0, 71, 0
2, 19920, Note_on_c, 0, 69, 93
2, 19944, Note_off_c, 0, 69, 0
2, 19944, Note_on_c, 0, 67, 93
2, 19968, Note_off_c, 0, 67, 0
2, 19968, Note_on_c, 0, 66, 93
2, 19992, Note_off_c, 0, 66, 0
2, 19992, Note_on_c, 0, 64, 93
2, 20016, Note_off_c, 0, 64, 0
2, 20016, Note_on_c, 0, 62, 93
2, 20040, Note_off_c, 0, 62, 0
2, 20040, Note_on_c, 0, 61, 93
2, 20064, Note_off_c, 0, 61, 0
2, 20064, Note_on_c, 0, 62, 93
2, 20088, Note_off_c, 0, 62, 0
2, 20088, Note_on_c, 0, 61, 93
2, 20112, Note_off_c, 0, 61, 0
2, 20112, Note_on_c, 0, 64, 93
2, 20136, Note_off_c, 0, 64, 0
2, 20136, Note_on_c, 0, 58, 93
2, 20160, Note_off_c, 0, 58, 0
2, 20160, Note_on_c, 0, 59, 93
2, 20256, Note_off_c, 0, 59, 0
2, 20256, Note_on_c, 0, 47, 93
2, 20304, Note_off_c, 0, 47, 0
2, 20304, Note_on_c, 0, 59, 93
2, 20328, Note_off_c, 0, 59, 0
2, 20328, Note_on_c, 0, 61, 93
2, 20352, Note_off_c, 0, 61, 0
2, 20352, Note_on_c, 0, 62, 93
2, 20400, Note_off_c, 0, 62, 0
2, 20400, Note_on_c, 0, 59, 93
2, 20448, Note_off_c, 0, 59, 0
2, 20448, Note_on_c, 0, 68, 93
2, 20496, Note_off_c, 0, 68, 0
2, 20496, Note_on_c, 0, 62, 93
2, 20544, Note_off_c, 0, 62, 0
2, 20544, Note_on_c, 0, 71, 93
2, 20592, Note_off_c, 0, 71, 0
2, 20592, Note_on_c, 0, 69, 93
2, 20616, Note_off_c, 0, 69, 0
2, 20616, Note_on_c, 0, 68, 93
2, 20640, Note_off_c, 0, 68, 0
2, 20640, Note_on_c, 0, 69, 93
2, 20664, Note_off_c, 0, 69, 0
2, 20664, Note_on_c, 0, 68, 93
2, 20688, Note_off_c, 0, 68, 0
2, 20688, Note_on_c, 0, 66, 93
2, 20712, Note_off_c, 0, 66, 0
2, 20712, Note_on_c, 0, 64, 93
2, 20736, Note_off_c, 0, 64, 0
2, 20736, Note_on_c, 0, 69, 93
2, 20784, Note_off_c, 0, 69, 0
2, 20784, Note_on_c, 0, 61, 93
2, 20808, Note_off_c, 0, 61, 0
2, 20808, Note_on_c, 0, 62, 93
2, 20832, Note_off_c, 0, 62, 0
2, 20832, Note_on_c, 0, 64, 93
2, 20880, Note_off_c, 0, 64, 0
2, 20880, Note_on_c, 0, 57, 93
2, 20928, Note_off_c, 0, 57, 0
2, 20928, Note_on_c, 0, 67, 93
2, 20976, Note_off_c, 0, 67, 0
2, 20976, Note_on_c, 0, 61, 93
2, 21024, Note_off_c, 0, 61, 0
2, 21024, Note_on_c, 0, 66, 93
2, 21072, Note_off_c, 0, 66, 0
2, 21072, Note_on_c, 0, 60, 93
2, 21120, Note_off_c, 0, 60, 0
2, 21120, Note_on_c, 0, 69, 93
2, 21168, Note_off_c, 0, 69, 0
2, 21168, Note_on_c, 0, 67, 93
2, 21192, Note_off_c, 0, 67, 0
2, 21192, Note_on_c, 0, 66, 93
2, 21216, Note_off_c, 0, 66, 0
2, 21216, Note_on_c, 0, 67, 93
2, 21240, Note_off_c, 0, 67, 0
2, 21240, Note_on_c, 0, 66, 93
2, 21264, Note_off_c, 0, 66, 0
2, 21264, Note_on_c, 0, 64, 93
2, 21288, Note_off_c, 0, 64, 0
2, 21288, Note_on_c, 0, 62, 93
2, 21312, Note_off_c, 0, 62, 0
2, 21312, Note_on_c, 0, 67, 93
2, 21360, Note_off_c, 0, 67, 0
2, 21360, Note_on_c, 0, 59, 93
2, 21384, Note_off_c, 0, 59, 0
2, 21384, Note_on_c, 0, 60, 93
2, 21408, Note_off_c, 0, 60, 0
2, 21408, Note_on_c, 0, 62, 93
2, 21456, Note_off_c, 0, 62, 0
2, 21456, Note_on_c, 0, 55, 93
2, 21504, Note_off_c, 0, 55, 0
2, 21504, Note_on_c, 0, 59, 93
2, 21552, Note_off_c, 0, 59, 0
2, 21552, Note_on_c, 0, 54, 93
2, 21600, Note_off_c, 0, 54, 0
2, 21600, Note_on_c, 0, 52, 93
2, 21648, Note_off_c, 0, 52, 0
2, 21648, Note_on_c, 0, 61, 93
2, 21672, Note_off_c, 0, 61, 0
2, 21672, Note_on_c, 0, 62, 93
2, 21696, Note_off_c, 0, 62, 0
2, 21696, Note_on_c, 0, 64, 93
2, 21744, Note_off_c, 0, 64, 0
2, 21744, Note_on_c, 0, 57, 93
2, 21792, Note_off_c, 0, 57, 0
2, 21792, Note_on_c, 0, 67, 93
2, 21840, Note_off_c, 0, 67, 0
2, 21840, Note_on_c, 0, 50, 93
2, 21888, Note_off_c, 0, 50, 0
2, 21888, Note_on_c, 0, 49, 93
2, 21936, Note_off_c, 0, 49, 0
2, 21936, Note_on_c, 0, 61, 93
2, 21960, Note_off_c, 0, 61, 0
2, 21960, Note_on_c, 0, 62, 93
2, 21984, Note_off_c, 0, 62, 0
2, 21984, Note_on_c, 0, 64, 93
2, 22032, Note_off_c, 0, 64, 0
2, 22032, Note_on_c, 0, 57, 93
2, 22080, Note_off_c, 0, 57, 0
2, 22080, Note_on_c, 0, 67, 93
2, 22128, Note_off_c, 0, 67, 0
2, 22128, Note_on_c, 0, 45, 93
2, 22176, Note_off_c, 0, 45, 0
2, 22176, Note_on_c, 0, 50, 93
2, 22224, Note_off_c, 0, 50, 0
2, 22224, Note_on_c, 0, 66, 93
2, 22248, Note_off_c, 0, 66, 0
2, 22248, Note_on_c, 0, 64, 93
2, 22272, Note_off_c, 0, 64, 0
2, 22272, Note_on_c, 0, 67, 93
2, 22296, Note_off_c, 0, 67, 0
2, 22296, Note_on_c, 0, 66, 93
2, 22320, Note_off_c, 0, 66, 0
2, 22320, Note_on_c, 0, 64, 93
2, 22344, Note_off_c, 0, 64, 0
2, 22344, Note_on_c, 0, 62, 93
2, 22368, Note_off_c, 0, 62, 0
2, 22368, Note_on_c, 0, 64, 93
2, 22392, Note_off_c, 0, 64, 0
2, 22392, Note_on_c, 0, 62, 93
2, 22416, Note_off_c, 0, 62, 0
2, 22416, Note_on_c, 0, 61, 93
2, 22440, Note_off_c, 0, 61, 0
2, 22440, Note_on_c, 0, 59, 93
2, 22464, Note_off_c, 0, 59, 0
2, 22464, Note_on_c, 0, 61, 93
2, 22488, Note_off_c, 0, 61, 0
2, 22488, Note_on_c, 0, 59, 93
2, 22512, Note_off_c, 0, 59, 0
2, 22512, Note_on_c, 0, 57, 93
2, 22536, Note_off_c, 0, 57, 0
2, 22536, Note_on_c, 0, 55, 93
2, 22560, Note_off_c, 0, 55, 0
2, 22560, Note_on_c, 0, 57, 93
2, 22584, Note_off_c, 0, 57, 0
2, 22584, Note_on_c, 0, 55, 93
2, 22608, Note_off_c, 0, 55, 0
2, 22608, Note_on_c, 0, 54, 93
2, 22632, Note_off_c, 0, 54, 0
2, 22632, Note_on_c, 0, 52, 93
2, 22656, Note_off_c, 0, 52, 0
2, 22656, Note_on_c, 0, 54, 93
2, 22680, Note_off_c, 0, 54, 0
2, 22680, Note_on_c, 0, 52, 93
2, 22704, Note_off_c, 0, 52, 0
2, 22704, Note_on_c, 0, 50, 93
2, 22728, Note_off_c, 0, 50, 0
2, 22728, Note_on_c, 0, 49, 93
2, 22752, Note_off_c, 0, 49, 0
2, 22752, Note_on_c, 0, 50, 93
2, 22800, Note_off_c, 0, 50, 0
2, 22800, Note_on_c, 0, 47, 93
2, 22824, Note_off_c, 0, 47, 0
2, 22824, Note_on_c, 0, 49, 93
2, 22848, Note_off_c, 0, 49, 0
2, 22848, Note_on_c, 0, 50, 93
2, 22872, Note_off_c, 0, 50, 0
2, 22872, Note_on_c, 0, 52, 93
2, 22896, Note_off_c, 0, 52, 0
2, 22896, Note_on_c, 0, 54, 93
2, 22920, Note_off_c, 0, 54, 0
2, 22920, Note_on_c, 0, 52, 93
2, 22944, Note_off_c, 0, 52, 0
2, 22944, Note_on_c, 0, 55, 93
2, 22968, Note_off_c, 0, 55, 0
2, 22968, Note_on_c, 0, 54, 93
2, 22992, Note_off_c, 0, 54, 0
2, 22992, Note_on_c, 0, 57, 93
2, 23016, Note_off_c, 0, 57, 0
2, 23016, Note_on_c, 0, 56, 93
2, 23040, Note_off_c, 0, 56, 0
2, 23040, Note_on_c, 0, 57, 93
2, 23088, Note_off_c, 0, 57, 0
2, 23088, Note_on_c, 0, 49, 93
2, 23112, Note_off_c, 0, 49, 0
2, 23112, Note_on_c, 0, 50, 93
2, 23136, Note_off_c, 0, 50, 0
2, 23136, Note_on_c, 0, 52, 93
2, 23160, Note_off_c, 0, 52, 0
2, 23160, Note_on_c, 0, 54, 93
2, 23184, Note_off_c, 0, 54, 0
2, 23184, Note_on_c, 0, 55, 93
2, 23208, Note_off_c, 0, 55, 0
2, 23208, Note_on_c, 0, 54, 93
2, 23232, Note_off_c, 0, 54, 0
2, 23232, Note_on_c, 0, 57, 93
2, 23256, Note_off_c, 0, 57, 0
2, 23256, Note_on_c, 0, 56, 93
2, 23280, Note_off_c, 0, 56, 0
2, 23280, Note_on_c, 0, 59, 93
2, 23304, Note_off_c, 0, 59, 0
2, 23304, Note_on_c, 0, 58, 93
2, 23328, Note_off_c, 0, 58, 0
2, 23328, Note_on_c, 0, 59, 93
2, 23376, Note_off_c, 0, 59, 0
2, 23376, Note_on_c, 0, 50, 93
2, 23400, Note_off_c, 0, 50, 0
2, 23400, Note_on_c, 0, 52, 93
2, 23424, Note_off_c, 0, 52, 0
2, 23424, Note_on_c, 0, 54, 93
2, 23472, Note_off_c, 0, 54, 0
2, 23472, Note_on_c, 0, 59, 93
2, 23520, Note_off_c, 0, 59, 0
2, 23520, Note_on_c, 0, 51, 93
2, 23568, Note_off_c, 0, 51, 0
2, 23568, Note_on_c, 0, 59, 93
2, 23616, Note_off_c, 0, 59, 0
2, 23616, Note_on_c, 0, 60, 93
2, 23664, Note_off_c, 0, 60, 0
2, 23664, Note_on_c, 0, 52, 93
2, 23688, Note_off_c, 0, 52, 0
2, 23688, Note_on_c, 0, 54, 93
2, 23712, Note_off_c, 0, 54, 0
2, 23712, Note_on_c, 0, 55, 93
2, 23760, Note_off_c, 0, 55, 0
2, 23760, Note_on_c, 0, 60, 93
2, 23808, Note_off_c, 0, 60, 0
2, 23808, Note_on_c, 0, 52, 93
2, 23856, Note_off_c, 0, 52, 0
2, 23856, Note_on_c, 0, 61, 93
2, 23904, Note_off_c, 0, 61, 0
2, 23904, Note_on_c, 0, 62, 93
2, 23952, Note_off_c, 0, 62, 0
2, 23952, Note_on_c, 0, 54, 93
2, 23976, Note_off_c, 0, 54, 0
2, 23976, Note_on_c, 0, 55, 93
2, 24000, Note_off_c, 0, 55, 0
2, 24000, Note_on_c, 0, 57, 93
2, 24048, Note_off_c, 0, 57, 0
2, 24048, Note_on_c, 0, 57, 93
2, 24072, Note_off_c, 0, 57, 0
2, 24072, Note_on_c, 0, 59, 93
2, 24096, Note_off_c, 0, 59, 0
2, 24096, Note_on_c, 0, 60, 93
2, 24144, Note_off_c, 0, 60, 0
2, 24144, Note_on_c, 0, 69, 93
2, 24168, Note_off_c, 0, 69, 0
2, 24168, Note_on_c, 0, 60, 93
2, 24192, Note_off_c, 0, 60, 0
2, 24192, Note_on_c, 0, 43, 93
2, 24240, Note_off_c, 0, 43, 0
2, 24240, Note_on_c, 0, 59, 93
2, 24264, Note_off_c, 0, 59, 0
2, 24264, Note_on_c, 0, 57, 93
2, 24288, Note_off_c, 0, 57, 0
2, 24288, Note_on_c, 0, 59, 93
2, 24336, Note_off_c, 0, 59, 0
2, 24336, Note_on_c, 0, 59, 93
2, 24360, Note_off_c, 0, 59, 0
2, 24360, Note_on_c, 0, 61, 93
2, 24384, Note_off_c, 0, 61, 0
2, 24384, Note_on_c, 0, 62, 93
2, 24432, Note_off_c, 0, 62, 0
2, 24432, Note_on_c, 0, 71, 93
2, 24456, Note_off_c, 0, 71, 0
2, 24456, Note_on_c, 0, 62, 93
2, 24480, Note_off_c, 0, 62, 0
2, 24480, Note_on_c, 0, 61, 93
2, 24504, Note_off_c, 0, 61, 0
2, 24504, Note_on_c, 0, 55, 93
2, 24528, Note_off_c, 0, 55, 0
2, 24528, Note_on_c, 0, 61, 93
2, 24552, Note_off_c, 0, 61, 0
2, 24552, Note_on_c, 0, 64, 93
2, 24576, Note_off_c, 0, 64, 0
2, 24576, Note_on_c, 0, 69, 93
2, 24624, Note_off_c, 0, 69, 0
2, 24624, Note_on_c, 0, 55, 93
2, 24648, Note_off_c, 0, 55, 0
2, 24648, Note_on_c, 0, 54, 93
2, 24672, Note_off_c, 0, 54, 0
2, 24672, Note_on_c, 0, 57, 93
2, 24696, Note_off_c, 0, 57, 0
2, 24696, Note_on_c, 0, 55, 93
2, 24720, Note_off_c, 0, 55, 0
2, 24720, Note_on_c, 0, 54, 93
2, 24744, Note_off_c, 0, 54, 0
2, 24744, Note_on_c, 0, 52, 93
2, 24768, Note_off_c, 0, 52, 0
2, 24768, Note_on_c, 0, 54, 93
2, 24816, Note_off_c, 0, 54, 0
2, 24816, Note_on_c, 0, 62, 93
2, 24864, Note_off_c, 0, 62, 0
2, 24864, Note_on_c, 0, 69, 93
2, 24912, Note_off_c, 0, 69, 0
2, 24912, Note_on_c, 0, 54, 93
2, 24936, Note_off_c, 0, 54, 0
2, 24936, Note_on_c, 0, 52, 93
2, 24960, Note_off_c, 0, 52, 0
2, 24960, Note_on_c, 0, 55, 93
2, 24984, Note_off_c, 0, 55, 0
2, 24984, Note_on_c, 0, 54, 93
2, 25008, Note_off_c, 0, 54, 0
2, 25008, Note_on_c, 0, 52, 93
2, 25032, Note_off_c, 0, 52, 0
2, 25032, Note_on_c, 0, 50, 93
2, 25056, Note_off_c, 0, 50, 0
2, 25056, Note_on_c, 0, 52, 93
2, 25104, Note_off_c, 0, 52, 0
2, 25104, Note_on_c, 0, 61, 93
2, 25152, Note_off_c, 0, 61, 0
2, 25152, Note_on_c, 0, 69, 93
2, 25176, Note_off_c, 0, 69, 0
2, 25176, Note_on_c, 0, 55, 93
2, 25200, Note_off_c, 0, 55, 0
2, 25200, Note_on_c, 0, 54, 93
2, 25224, Note_off_c, 0, 54, 0
2, 25224, Note_on_c, 0, 52, 93
2, 25248, Note_off_c, 0, 52, 0
2, 25248, Note_on_c, 0, 50, 93
2, 25272, Note_off_c, 0, 50, 0
2, 25272, Note_on_c, 0, 52, 93
2, 25296, Note_off_c, 0, 52, 0
2, 25296, Note_on_c, 0, 54, 93
2, 25320, Note_off_c, 0, 54, 0
2, 25320, Note_on_c, 0, 55, 93
2, 25344, Note_off_c, 0, 55, 0
2, 25344, Note_on_c, 0, 54, 93
2, 25368, Note_off_c, 0, 54, 0
2, 25368, Note_on_c, 0, 55, 93
2, 25392, Note_off_c, 0, 55, 0
2, 25392, Note_on_c, 0, 57, 93
2, 25416, Note_off_c, 0, 57, 0
2, 25416, Note_on_c, 0, 59, 93
2, 25440, Note_off_c, 0, 59, 0
2, 25440, Note_on_c, 0, 57, 93
2, 25464, Note_off_c, 0, 57, 0
2, 25464, Note_on_c, 0, 59, 93
2, 25488, Note_off_c, 0, 59, 0
2, 25488, Note_on_c, 0, 57, 93
2, 25512, Note_off_c, 0, 57, 0
2, 25512, Note_on_c, 0, 55, 93
2, 25536, Note_off_c, 0, 55, 0
2, 25536, Note_on_c, 0, 54, 93
2, 25560, Note_off_c, 0, 54, 0
2, 25560, Note_on_c, 0, 55, 93
2, 25584, Note_off_c, 0, 55, 0
2, 25584, Note_on_c, 0, 57, 93
2, 25608, Note_off_c, 0, 57, 0
2, 25608, Note_on_c, 0, 59, 93
2, 25632, Note_off_c, 0, 59, 0
2, 25632, Note_on_c, 0, 57, 93
2, 25656, Note_off_c, 0, 57, 0
2, 25656, Note_on_c, 0, 59, 93
2, 25680, Note_off_c, 0, 59, 0
2, 25680, Note_on_c, 0, 61, 93
2, 25704, Note_off_c, 0, 61, 0
2, 25704, Note_on_c, 0, 62, 93
2, 25728, Note_off_c, 0, 62, 0
2, 25728, Note_on_c, 0, 61, 93
2, 25752, Note_off_c, 0, 61, 0
2, 25752, Note_on_c, 0, 62, 93
2, 25776, Note_off_c, 0, 62, 0
2, 25776, Note_on_c, 0, 61, 93
2, 25800, Note_off_c, 0, 61, 0
2, 25800, Note_on_c, 0, 59, 93
2, 25824, Note_off_c, 0, 59, 0
2, 25824, Note_on_c, 0, 57, 93
2, 25848, Note_off_c, 0, 57, 0
2, 25848, Note_on_c, 0, 59, 93
2, 25872, Note_off_c, 0, 59, 0
2, 25872, Note_on_c, 0, 61, 93
2, 25896, Note_off_c, 0, 61, 0
2, 25896, Note_on_c, 0, 62, 93
2, 25920, Note_off_c, 0, 62, 0
2, 25920, Note_on_c, 0, 61, 93
2, 25944, Note_off_c, 0, 61, 0
2, 25944, Note_on_c, 0, 62, 93
2, 25968, Note_off_c, 0, 62, 0
2, 25968, Note_on_c, 0, 64, 93
2, 25992, Note_off_c, 0, 64, 0
2, 25992, Note_on_c, 0, 66, 93
2, 26016, Note_off_c, 0, 66, 0
2, 26016, Note_on_c, 0, 64, 93
2, 26040, Note_off_c, 0, 64, 0
2, 26040, Note_on_c, 0, 66, 93
2, 26064, Note_off_c, 0, 66, 0
2, 26064, Note_on_c, 0, 64, 93
2, 26088, Note_off_c, 0, 64, 0
2, 26088, Note_on_c, 0, 62, 93
2, 26112, Note_off_c, 0, 62, 0
2, 26112, Note_on_c, 0, 61, 93
2, 26136, Note_off_c, 0, 61, 0
2, 26136, Note_on_c, 0, 62, 93
2, 26160, Note_off_c, 0, 62, 0
2, 26160, Note_on_c, 0, 64, 93
2, 26184, Note_off_c, 0, 64, 0
2, 26184, Note_on_c, 0, 66, 93
2, 26208, Note_off_c, 0, 66, 0
2, 26208, Note_on_c, 0, 64, 93
2, 26232, Note_off_c, 0, 64, 0
2, 26232, Note_on_c, 0, 66, 93
2, 26256, Note_off_c, 0, 66, 0
2, 26256, Note_on_c, 0, 67, 93
2, 26280, Note_off_c, 0, 67, 0
2, 26280, Note_on_c, 0, 69, 93
2, 26304, Note_off_c, 0, 69, 0
2, 26304, Note_on_c, 0, 67, 93
2, 26328, Note_off_c, 0, 67, 0
2, 26328, Note_on_c, 0, 66, 93
2, 26352, Note_off_c, 0, 66, 0
2, 26352, Note_on_c, 0, 64, 93
2, 26376, Note_off_c, 0, 64, 0
2, 26376, Note_on_c, 0, 62, 93
2, 26400, Note_off_c, 0, 62, 0
2, 26400, Note_on_c, 0, 61, 93
2, 26424, Note_off_c, 0, 61, 0
2, 26424, Note_on_c, 0, 59, 93
2, 26448, Note_off_c, 0, 59, 0
2, 26448, Note_on_c, 0, 57, 93
2, 26472, Note_off_c, 0, 57, 0
2, 26472, Note_on_c, 0, 55, 93
2, 26496, Note_off_c, 0, 55, 0
2, 26496, Note_on_c, 0, 54, 93
2, 26544, Note_off_c, 0, 54, 0
2, 26544, Note_on_c, 0, 50, 93
2, 26568, Note_off_c, 0, 50, 0
2, 26568, Note_on_c, 0, 52, 93
2, 26592, Note_off_c, 0, 52, 0
2, 26592, Note_on_c, 0, 54, 93
2, 26640, Note_off_c, 0, 54, 0
2, 26640, Note_on_c, 0, 50, 93
2, 26688, Note_off_c, 0, 50, 0
2, 26688, Note_on_c, 0, 57, 93
2, 26736, Note_off_c, 0, 57, 0
2, 26736, Note_on_c, 0, 54, 93
2, 26784, Note_off_c, 0, 54, 0
2, 26784, Note_on_c, 0, 62, 93
2, 26832, Note_off_c, 0, 62, 0
2, 26832, Note_on_c, 0, 47, 93
2, 26856, Note_off_c, 0, 47, 0
2, 26856, Note_on_c, 0, 49, 93
2, 26880, Note_off_c, 0, 49, 0
2, 26880, Note_on_c, 0, 50, 93
2, 26928, Note_off_c, 0, 50, 0
2, 26928, Note_on_c, 0, 47, 93
2, 26976, Note_off_c, 0, 47, 0
2, 26976, Note_on_c, 0, 54, 93
2, 27024, Note_off_c, 0, 54, 0
2, 27024, Note_on_c, 0, 50, 93
2, 27072, Note_off_c, 0, 50, 0
2, 27072, Note_on_c, 0, 62, 93
2, 27120, Note_off_c, 0, 62, 0
2, 27120, Note_on_c, 0, 42, 93
2, 27144, Note_off_c, 0, 42, 0
2, 27144, Note_on_c, 0, 43, 93
2, 27168, Note_off_c, 0, 43, 0
2, 27168, Note_on_c, 0, 45, 93
2, 27216, Note_off_c, 0, 45, 0
2, 27216, Note_on_c, 0, 42, 93
2, 27264, Note_off_c, 0, 42, 0
2, 27264, Note_on_c, 0, 50, 93
2, 27312, Note_off_c, 0, 50, 0
2, 27312, Note_on_c, 0, 45, 93
2, 27360, Note_off_c, 0, 45, 0
2, 27360, Note_on_c, 0, 47, 93
2, 27384, Note_off_c, 0, 47, 0
2, 27384, Note_on_c, 0, 45, 93
2, 27408, Note_off_c, 0, 45, 0
2, 27408, Note_on_c, 0, 43, 93
2, 27432, Note_off_c, 0, 43, 0
2, 27432, Note_on_c, 0, 42, 93
2, 27456, Note_off_c, 0, 42, 0
2, 27456, Note_on_c, 0, 43, 93
2, 27480, Note_off_c, 0, 43, 0
2, 27480, Note_on_c, 0, 40, 93
2, 27504, Note_off_c, 0, 40, 0
2, 27504, Note_on_c, 0, 49, 93
2, 27528, Note_off_c, 0, 49, 0
2, 27528, Note_on_c, 0, 47, 93
2, 27552, Note_off_c, 0, 47, 0
2, 27552, Note_on_c, 0, 50, 93
2, 27576, Note_off_c, 0, 50, 0
2, 27576, Note_on_c, 0, 49, 93
2, 27600, Note_off_c, 0, 49, 0
2, 27600, Note_on_c, 0, 47, 93
2, 27624, Note_off_c, 0, 47, 0
2, 27624, Note_on_c, 0, 45, 93
2, 27648, Note_off_c, 0, 45, 0
2, 27648, Note_on_c, 0, 52, 93
2, 27672, Note_off_c, 0, 52, 0
2, 27672, Note_on_c, 0, 50, 93
2, 27696, Note_off_c, 0, 50, 0
2, 27696, Note_on_c, 0, 49, 93
2, 27720, Note_off_c, 0, 49, 0
2, 27720, Note_on_c, 0, 47, 93
2, 27744, Note_off_c, 0, 47, 0
2, 27744, Note_on_c, 0, 49, 93
2, 27768, Note_off_c, 0, 49, 0
2, 27768, Note_on_c, 0, 45, 93
2, 27792, Note_off_c, 0, 45, 0
2, 27792, Note_on_c, 0, 54, 93
2, 27816, Note_off_c, 0, 54, 0
2, 27816, Note_on_c, 0, 52, 93
2, 27840, Note_off_c, 0, 52, 0
2, 27840, Note_on_c, 0, 55, 93
2, 27864, Note_off_c, 0, 55, 0
2, 27864, Note_on_c, 0, 54, 93
2, 27888, Note_off_c, 0, 54, 0
2, 27888, Note_on_c, 0, 52, 93
2, 27912, Note_off_c, 0, 52, 0
2, 27912, Note_on_c, 0, 50, 93
2, 27936, Note_off_c, 0, 50, 0
2, 27936, Note_on_c, 0, 57, 93
2, 27960, Note_off_c, 0, 57, 0
2, 27960, Note_on_c, 0, 55, 93
2, 27984, Note_off_c, 0, 55, 0
2, 27984, Note_on_c, 0, 54, 93
2, 28008, Note_off_c, 0, 54, 0
2, 28008, Note_on_c, 0, 52, 93
2, 28032, Note_off_c, 0, 52, 0
2, 28032, Note_on_c, 0, 54, 93
2, 28056, Note_off_c, 0, 54, 0
2, 28056, Note_on_c, 0, 50, 93
2, 28080, Note_off_c, 0, 50, 0
2, 28080, Note_on_c, 0, 59, 93
2, 28104, Note_off_c, 0, 59, 0
2, 28104, Note_on_c, 0, 57, 93
2, 28128, Note_off_c, 0, 57, 0
2, 28128, Note_on_c, 0, 60, 93
2, 28152, Note_off_c, 0, 60, 0
2, 28152, Note_on_c, 0, 59, 93
2, 28176, Note_off_c, 0, 59, 0
2, 28176, Note_on_c, 0, 57, 93
2, 28200, Note_off_c, 0, 57, 0
2, 28200, Note_on_c, 0, 55, 93
2, 28224, Note_off_c, 0, 55, 0
2, 28224, Note_on_c, 0, 64, 93
2, 28272, Note_off_c, 0, 64, 0
2, 28272, Note_on_c, 0, 61, 93
2, 28296, Note_off_c, 0, 61, 0
2, 28296, Note_on_c, 0, 62, 93
2, 28320, Note_off_c, 0, 62, 0
2, 28320, Note_on_c, 0, 64, 93
2, 28368, Note_off_c, 0, 64, 0
2, 28368, Note_on_c, 0, 57, 93
2, 28416, Note_off_c, 0, 57, 0
2, 28416, Note_on_c, 0, 61, 93
2, 28464, Note_off_c, 0, 61, 0
2, 28464, Note_on_c, 0, 55, 93
2, 28512, Note_off_c, 0, 55, 0
2, 28512, Note_on_c, 0, 54, 93
2, 28560, Note_off_c, 0, 54, 0
2, 28560, Note_on_c, 0, 50, 93
2, 28584, Note_off_c, 0, 50, 0
2, 28584, Note_on_c, 0, 52, 93
2, 28608, Note_off_c, 0, 52, 0
2, 28608, Note_on_c, 0, 54, 93
2, 28656, Note_off_c, 0, 54, 0
2, 28656, Note_on_c, 0, 45, 93
2, 28704, Note_off_c, 0, 45, 0
2, 28704, Note_on_c, 0, 49, 93
2, 28752, Note_off_c, 0, 49, 0
2, 28752, Note_on_c, 0, 43, 93
2, 28800, Note_off_c, 0, 43, 0
2, 28800, Note_on_c, 0, 38, 93
2, 28992, Note_off_c, 0, 38, 0
2, 29040, Note_on_c, 0, 69, 93
2, 29088, Note_off_c, 0, 69, 0
2, 29088, Note_on_c, 0, 69, 93
2, 29136, Note_off_c, 0, 69, 0
2, 29136, Note_on_c, 0, 64, 93
2, 29160, Note_off_c, 0, 64, 0
2, 29160, Note_on_c, 0, 62, 93
2, 29184, Note_off_c, 0, 62, 0
2, 29184, Note_on_c, 0, 61, 93
2, 29232, Note_off_c, 0, 61, 0
2, 29232, Note_on_c, 0, 64, 93
2, 29280, Note_off_c, 0, 64, 0
2, 29280, Note_on_c, 0, 57, 93
2, 29328, Note_off_c, 0, 57, 0
2, 29328, Note_on_c, 0, 61, 93
2, 29376, Note_off_c, 0, 61, 0
2, 29376, Note_on_c, 0, 52, 93
2, 29424, Note_off_c, 0, 52, 0
2, 29424, Note_on_c, 0, 57, 93
2, 29472, Note_off_c, 0, 57, 0
2, 29472, Note_on_c, 0, 49, 93
2, 29520, Note_off_c, 0, 49, 0
2, 29520, Note_on_c, 0, 52, 93
2, 29568, Note_off_c, 0, 52, 0
2, 29568, Note_on_c, 0, 45, 93
2, 29616, Note_off_c, 0, 45, 0
2, 29616, Note_on_c, 0, 43, 93
2, 29664, Note_off_c, 0, 43, 0
2, 29664, Note_on_c, 0, 42, 93
2, 29712, Note_off_c, 0, 42, 0
2, 29712, Note_on_c, 0, 55, 93
2, 29736, Note_off_c, 0, 55, 0
2, 29736, Note_on_c, 0, 54, 93
2, 29760, Note_off_c, 0, 54, 0
2, 29760, Note_on_c, 0, 52, 93
2, 29808, Note_off_c, 0, 52, 0
2, 29808, Note_on_c, 0, 62, 93
2, 29856, Note_off_c, 0, 62, 0
2, 29856, Note_on_c, 0, 61, 93
2, 29904, Note_off_c, 0, 61, 0
2, 29904, Note_on_c, 0, 67, 93
2, 29952, Note_off_c, 0, 67, 0
2, 29952, Note_on_c, 0, 66, 93
2, 30000, Note_off_c, 0, 66, 0
2, 30000, Note_on_c, 0, 62, 93
2, 30048, Note_off_c, 0, 62, 0
2, 30048, Note_on_c, 0, 50, 93
2, 30096, Note_off_c, 0, 50, 0
2, 30096, Note_on_c, 0, 66, 93
2, 30120, Note_off_c, 0, 66, 0
2, 30120, Note_on_c, 0, 64, 93
2, 30144, Note_off_c, 0, 64, 0
2, 30144, Note_on_c, 0, 67, 93
2, 30168, Note_off_c, 0, 67, 0
2, 30168, Note_on_c, 0, 66, 93
2, 30192, Note_off_c, 0, 66, 0
2, 30192, Note_on_c, 0, 64, 93
2, 30216, Note_off_c, 0, 64, 0
2, 30216, Note_on_c, 0, 62, 93
2, 30240, Note_off_c, 0, 62, 0
2, 30240, Note_on_c, 0, 64, 93
2, 30288, Note_off_c, 0, 64, 0
2, 30288, Note_on_c, 0, 61, 93
2, 30336, Note_off_c, 0, 61, 0
2, 30336, Note_on_c, 0, 45, 93
2, 30384, Note_off_c, 0, 45, 0
2, 30384, Note_on_c, 0, 64, 93
2, 30408, Note_off_c, 0, 64, 0
2, 30408, Note_on_c, 0, 62, 93
2, 30432, Note_off_c, 0, 62, 0
2, 30432, Note_on_c, 0, 66, 93
2, 30456, Note_off_c, 0, 66, 0
2, 30456, Note_on_c, 0, 64, 93
2, 30480, Note_off_c, 0, 64, 0
2, 30480, Note_on_c, 0, 62, 93
2, 30504, Note_off_c, 0, 62, 0
2, 30504, Note_on_c, 0, 61, 93
2, 30528, Note_off_c, 0, 61, 0
2, 30528, Note_on_c, 0, 62, 93
2, 30576, Note_off_c, 0, 62, 0
2, 30576, Note_on_c, 0, 54, 93
2, 30624, Note_off_c, 0, 54, 0
2, 30624, Note_on_c, 0, 47, 93
2, 30672, Note_off_c, 0, 47, 0
2, 30672, Note_on_c, 0, 49, 93
2, 30696, Note_off_c, 0, 49, 0
2, 30696, Note_on_c, 0, 50, 93
2, 30720, Note_off_c, 0, 50, 0
2, 30720, Note_on_c, 0, 52, 93
2, 30744, Note_off_c, 0, 52, 0
2, 30744, Note_on_c, 0, 50, 93
2, 30768, Note_off_c, 0, 50, 0
2, 30768, Note_on_c, 0, 52, 93
2, 30792, Note_off_c, 0, 52, 0
2, 30792, Note_on_c, 0, 54, 93
2, 30816, Note_off_c, 0, 54, 0
2, 30816, Note_on_c, 0, 52, 93
2, 30840, Note_off_c, 0, 52, 0
2, 30840, Note_on_c, 0, 54, 93
2, 30864, Note_off_c, 0, 54, 0
2, 30864, Note_on_c, 0, 55, 93
2, 30888, Note_off_c, 0, 55, 0
2, 30888, Note_on_c, 0, 54, 93
2, 30912, Note_off_c, 0, 54, 0
2, 30912, Note_on_c, 0, 55, 93
2, 30936, Note_off_c, 0, 55, 0
2, 30936, Note_on_c, 0, 57, 93
2, 30960, Note_off_c, 0, 57, 0
2, 30960, Note_on_c, 0, 55, 93
2, 30984, Note_off_c, 0, 55, 0
2, 30984, Note_on_c, 0, 57, 93
2, 31008, Note_off_c, 0, 57, 0
2, 31008, Note_on_c, 0, 59, 93
2, 31032, Note_off_c, 0, 59, 0
2, 31032, Note_on_c, 0, 61, 93
2, 31056, Note_off_c, 0, 61, 0
2, 31056, Note_on_c, 0, 62, 93
2, 31080, Note_off_c, 0, 62, 0
2, 31080, Note_on_c, 0, 59, 93
2, 31104, Note_off_c, 0, 59, 0
2, 31104, Note_on_c, 0, 61, 93
2, 31152, Note_off_c, 0, 61, 0
2, 31152, Note_on_c, 0, 55, 93
2, 31200, Note_off_c, 0, 55, 0
2, 31200, Note_on_c, 0, 45, 93
2, 31248, Note_off_c, 0, 45, 0
2, 31248, Note_on_c, 0, 47, 93
2, 31272, Note_off_c, 0, 47, 0
2, 31272, Note_on_c, 0, 49, 93
2, 31296, Note_off_c, 0, 49, 0
2, 31296, Note_on_c, 0, 50, 93
2, 31320, Note_off_c, 0, 50, 0
2, 31320, Note_on_c, 0, 49, 93
2, 31344, Note_off_c, 0, 49, 0
2, 31344, Note_on_c, 0, 50, 93
2, 31368, Note_off_c, 0, 50, 0
2, 31368, Note_on_c, 0, 52, 93
2, 31392, Note_off_c, 0, 52, 0
2, 31392, Note_on_c, 0, 50, 93
2, 31416, Note_off_c, 0, 50, 0
2, 31416, Note_on_c, 0, 52, 93
2, 31440, Note_off_c, 0, 52, 0
2, 31440, Note_on_c, 0, 54, 93
2, 31464, Note_off_c, 0, 54, 0
2, 31464, Note_on_c, 0, 52, 93
2, 31488, Note_off_c, 0, 52, 0
2, 31488, Note_on_c, 0, 54, 93
2, 31512, Note_off_c, 0, 54, 0
2, 31512, Note_on_c, 0, 55, 93
2, 31536, Note_off_c, 0, 55, 0
2, 31536, Note_on_c, 0, 54, 93
2, 31560, Note_off_c, 0, 54, 0
2, 31560, Note_on_c, 0, 55, 93
2, 31584, Note_off_c, 0, 55, 0
2, 31584, Note_on_c, 0, 57, 93
2, 31608, Note_off_c, 0, 57, 0
2, 31608, Note_on_c, 0, 59, 93
2, 31632, Note_off_c, 0, 59, 0
2, 31632, Note_on_c, 0, 61, 93
2, 31656, Note_off_c, 0, 61, 0
2, 31656, Note_on_c, 0, 57, 93
2, 31680, Note_off_c, 0, 57, 0
2, 31680, Note_on_c, 0, 59, 93
2, 31728, Note_off_c, 0, 59, 0
2, 31728, Note_on_c, 0, 54, 93
2, 31776, Note_off_c, 0, 54, 0
2, 31776, Note_on_c, 0, 43, 93
2, 31824, Note_off_c, 0, 43, 0
2, 31824, Note_on_c, 0, 45, 93
2, 31848, Note_off_c, 0, 45, 0
2, 31848, Note_on_c, 0, 47, 93
2, 31872, Note_off_c, 0, 47, 0
2, 31872, Note_on_c, 0, 49, 93
2, 31896, Note_off_c, 0, 49, 0
2, 31896, Note_on_c, 0, 47, 93
2, 31920, Note_off_c, 0, 47, 0
2, 31920, Note_on_c, 0, 49, 93
2, 31944, Note_off_c, 0, 49, 0
2, 31944, Note_on_c, 0, 50, 93
2, 31968, Note_off_c, 0, 50, 0
2, 31968, Note_on_c, 0, 49, 93
2, 31992, Note_off_c, 0, 49, 0
2, 31992, Note_on_c, 0, 50, 93
2, 32016, Note_off_c, 0, 50, 0
2, 32016, Note_on_c, 0, 52, 93
2, 32040, Note_off_c, 0, 52, 0
2, 32040, Note_on_c, 0, 50, 93
2, 32064, Note_off_c, 0, 50, 0
2, 32064, Note_on_c, 0, 52, 93
2, 32088, Note_off_c, 0, 52, 0
2, 32088, Note_on_c, 0, 54, 93
2, 32112, Note_off_c, 0, 54, 0
2, 32112, Note_on_c, 0, 52, 93
2, 32136, Note_off_c, 0, 52, 0
2, 32136, Note_on_c, 0, 54, 93
2, 32160, Note_off_c, 0, 54, 0
2, 32160, Note_on_c, 0, 55, 93
2, 32184, Note_off_c, 0, 55, 0
2, 32184, Note_on_c, 0, 57, 93
2, 32208, Note_off_c, 0, 57, 0
2, 32208, Note_on_c, 0, 59, 93
2, 32232, Note_off_c, 0, 59, 0
2, 32232, Note_on_c, 0, 55, 93
2, 32256, Note_off_c, 0, 55, 0
2, 32256, Note_on_c, 0, 52, 93
2, 32280, Note_off_c, 0, 52, 0
2, 32280, Note_on_c, 0, 62, 93
2, 32304, Note_off_c, 0, 62, 0
2, 32304, Note_on_c, 0, 61, 93
2, 32328, Note_off_c, 0, 61, 0
2, 32328, Note_on_c, 0, 59, 93
2, 32352, Note_off_c, 0, 59, 0
2, 32352, Note_on_c, 0, 58, 93
2, 32376, Note_off_c, 0, 58, 0
2, 32376, Note_on_c, 0, 67, 93
2, 32400, Note_off_c, 0, 67, 0
2, 32400, Note_on_c, 0, 66, 93
2, 32424, Note_off_c, 0, 66, 0
2, 32424, Note_on_c, 0, 64, 93
2, 32448, Note_off_c, 0, 64, 0
2, 32448, Note_on_c, 0, 71, 93
2, 32472, Note_off_c, 0, 71, 0
2, 32472, Note_on_c, 0, 70, 93
2, 32496, Note_off_c, 0, 70, 0
2, 32496, Note_on_c, 0, 68, 93
2, 32520, Note_off_c, 0, 68, 0
2, 32520, Note_on_c, 0, 66, 93
2, 32544, Note_off_c, 0, 66, 0
2, 32544, Note_on_c, 0, 71, 93
2, 32592, Note_off_c, 0, 71, 0
2, 32592, Note_on_c, 0, 69, 93
2, 32616, Note_off_c, 0, 69, 0
2, 32616, Note_on_c, 0, 67, 93
2, 32640, Note_off_c, 0, 67, 0
2, 32640, Note_on_c, 0, 66, 93
2, 32664, Note_off_c, 0, 66, 0
2, 32664, Note_on_c, 0, 64, 93
2, 32688, Note_off_c, 0, 64, 0
2, 32688, Note_on_c, 0, 62, 93
2, 32712, Note_off_c, 0, 62, 0
2, 32712, Note_on_c, 0, 61, 93
2, 32736, Note_off_c, 0, 61, 0
2, 32736, Note_on_c, 0, 62, 93
2, 32760, Note_off_c, 0, 62, 0
2, 32760, Note_on_c, 0, 61, 93
2, 32784, Note_off_c, 0, 61, 0
2, 32784, Note_on_c, 0, 64, 93
2, 32808, Note_off_c, 0, 64, 0
2, 32808, Note_on_c, 0, 58, 93
2, 32832, Note_off_c, 0, 58, 0
2, 32832, Note_on_c, 0, 59, 93
2, 32928, Note_off_c, 0, 59, 0
2, 32928, Note_on_c, 0, 47, 93
2, 32976, Note_off_c, 0, 47, 0
2, 32976, Note_on_c, 0, 59, 93
2, 33000, Note_off_c, 0, 59, 0
2, 33000, Note_on_c, 0, 61, 93
2, 33024, Note_off_c, 0, 61, 0
2, 33024, Note_on_c, 0, 62, 93
2, 33072, Note_off_c, 0, 62, 0
2, 33072, Note_on_c, 0, 59, 93
2, 33120, Note_off_c, 0, 59, 0
2, 33120, Note_on_c, 0, 68, 93
2, 33168, Note_off_c, 0, 68, 0
2, 33168, Note_on_c, 0, 62, 93
2, 33216, Note_off_c, 0, 62, 0
2, 33216, Note_on_c, 0, 71, 93
2, 33264, Note_off_c, 0, 71, 0
2, 33264, Note_on_c, 0, 69, 93
2, 33288, Note_off_c, 0, 69, 0
2, 33288, Note_on_c, 0, 68, 93
2, 33312, Note_off_c, 0, 68, 0
2, 33312, Note_on_c, 0, 69, 93
2, 33336, Note_off_c, 0, 69, 0
2, 33336, Note_on_c, 0, 68, 93
2, 33360, Note_off_c, 0, 68, 0
2, 33360, Note_on_c, 0, 66, 93
2, 33384, Note_off_c, 0, 66, 0
2, 33384, Note_on_c, 0, 64, 93
2, 33408, Note_off_c, 0, 64, 0
2, 33408, Note_on_c, 0, 69, 93
2, 33456, Note_off_c, 0, 69, 0
2, 33456, Note_on_c, 0, 61, 93
2, 33480, Note_off_c, 0, 61, 0
2, 33480, Note_on_c, 0, 62, 93
2, 33504, Note_off_c, 0, 62, 0
2, 33504, Note_on_c, 0, 64, 93
2, 33552, Note_off_c, 0, 64, 0
2, 33552, Note_on_c, 0, 57, 93
2, 33600, Note_off_c, 0, 57, 0
2, 33600, Note_on_c, 0, 67, 93
2, 33648, Note_off_c, 0, 67, 0
2, 33648, Note_on_c, 0, 61, 93
2, 33696, Note_off_c, 0, 61, 0
2, 33696, Note_on_c, 0, 66, 93
2, 33744, Note_off_c, 0, 66, 0
2, 33744, Note_on_c, 0, 60, 93
2, 33792, Note_off_c, 0, 60, 0
2, 33792, Note_on_c, 0, 69, 93
2, 33840, Note_off_c, 0, 69, 0
2, 33840, Note_on_c, 0, 67, 93
2, 33864, Note_off_c, 0, 67, 0
2, 33864, Note_on_c, 0, 66, 93
2, 33888, Note_off_c, 0, 66, 0
2, 33888, Note_on_c, 0, 67, 93
2, 33912, Note_off_c, 0, 67, 0
2, 33912, Note_on_c, 0, 66, 93
2, 33936, Note_off_c, 0, 66, 0
2, 33936, Note_on_c, 0, 64, 93
2, 33960, Note_off_c, 0, 64, 0
2, 33960, Note_on_c, 0, 62, 93
2, 33984, Note_off_c, 0, 62, 0
2, 33984, Note_on_c, 0, 67, 93
2, 34032, Note_off_c, 0, 67, 0
2, 34032, Note_on_c, 0, 59, 93
2, 34056, Note_off_c, 0, 59, 0
2, 34056, Note_on_c, 0, 60, 93
2, 34080, Note_off_c, 0, 60, 0
2, 34080, Note_on_c, 0, 62, 93
2, 34128, Note_off_c, 0, 62, 0
2, 34128, Note_on_c, 0, 55, 93
2, 34176, Note_off_c, 0, 55, 0
2, 34176, Note_on_c, 0, 59, 93
2, 34224, Note_off_c, 0, 59, 0
2, 34224, Note_on_c, 0, 54, 93
2, 34272, Note_off_c, 0, 54, 0
2, 34272, Note_on_c, 0, 52, 93
2, 34320, Note_off_c, 0, 52, 0
2, 34320, Note_on_c, 0, 61, 93
2, 34344, Note_off_c, 0, 61, 0
2, 34344, Note_on_c, 0, 62, 93
2, 34368, Note_off_c, 0, 62, 0
2, 34368, Note_on_c, 0, 64, 93
2, 34416, Note_off_c, 0, 64, 0
2, 34416, Note_on_c, 0, 57, 93
2, 34464, Note_off_c, 0, 57, 0
2, 34464, Note_on_c, 0, 67, 93
2, 34512, Note_off_c, 0, 67, 0
2, 34512, Note_on_c, 0, 50, 93
2, 34560, Note_off_c, 0, 50, 0
2, 34560, Note_on_c, 0, 49, 93
2, 34608, Note_off_c, 0, 49, 0
2, 34608, Note_on_c, 0, 61, 93
2, 34632, Note_off_c, 0, 61, 0
2, 34632, Note_on_c, 0, 62, 93
2, 34656, Note_off_c, 0, 62, 0
2, 34656, Note_on_c, 0, 64, 93
2, 34704, Note_off_c, 0, 64, 0
2, 34704, Note_on_c, 0, 57, 93
2, 34752, Note_off_c, 0, 57, 0
2, 34752, Note_on_c, 0, 67, 93
2, 34800, Note_off_c, 0, 67, 0
2, 34800, Note_on_c, 0, 45, 93
2, 34848, Note_off_c, 0, 45, 0
2, 34848, Note_on_c, 0, 50, 93
2, 34896, Note_off_c, 0, 50, 0
2, 34896, Note_on_c, 0, 66, 93
2, 34920, Note_off_c, 0, 66, 0
2, 34920, Note_on_c, 0, 64, 93
2, 34944, Note_off_c, 0, 64, 0
2, 34944, Note_on_c, 0, 67, 93
2, 34968, Note_off_c, 0, 67, 0
2, 34968, Note_on_c, 0, 66, 93
2, 34992, Note_off_c, 0, 66, 0
2, 34992, Note_on_c, 0, 64, 93
2, 35016, Note_off_c, 0, 64, 0
2, 35016, Note_on_c, 0, 62, 93
2, 35040, Note_off_c, 0, 62, 0
2, 35040, Note_on_c, 0, 64, 93
2, 35064, Note_off_c, 0, 64, 0
2, 35064, Note_on_c, 0, 62, 93
2, 35088, Note_off_c, 0, 62, 0
2, 35088, Note_on_c, 0, 61, 93
2, 35112, Note_off_c, 0, 61, 0
2, 35112, Note_on_c, 0, 59, 93
2, 35136, Note_off_c, 0, 59, 0
2, 35136, Note_on_c, 0, 61, 93
2, 35160, Note_off_c, 0, 61, 0
2, 35160, Note_on_c, 0, 59, 93
2, 35184, Note_off_c, 0, 59, 0
2, 35184, Note_on_c, 0, 57, 93
2, 35208, Note_off_c, 0, 57, 0
2, 35208, Note_on_c, 0, 55, 93
2, 35232, Note_off_c, 0, 55, 0
2, 35232, Note_on_c, 0, 57, 93
2, 35256, Note_off_c, 0, 57, 0
2, 35256, Note_on_c, 0, 55, 93
2, 35280, Note_off_c, 0, 55, 0
2, 35280, Note_on_c, 0, 54, 93
2, 35304, Note_off_c, 0, 54, 0
2, 35304, Note_on_c, 0, 52, 93
2, 35328, Note_off_c, 0, 52, 0
2, 35328, Note_on_c, 0, 54, 93
2, 35352, Note_off_c, 0, 54, 0
2, 35352, Note_on_c, 0, 52, 93
2, 35376, Note_off_c, 0, 52, 0
2, 35376, Note_on_c, 0, 50, 93
2, 35400, Note_off_c, 0, 50, 0
2, 35400, Note_on_c, 0, 49, 93
2, 35424, Note_off_c, 0, 49, 0
2, 35424, Note_on_c, 0, 50, 93
2, 35472, Note_off_c, 0, 50, 0
2, 35472, Note_on_c, 0, 47, 93
2, 35496, Note_off_c, 0, 47, 0
2, 35496, Note_on_c, 0, 49, 93
2, 35520, Note_off_c, 0, 49, 0
2, 35520, Note_on_c, 0, 50, 93
2, 35544, Note_off_c, 0, 50, 0
2, 35544, Note_on_c, 0, 52, 93
2, 35568, Note_off_c, 0, 52, 0
2, 35568, Note_on_c, 0, 54, 93
2, 35592, Note_off_c, 0, 54, 0
2, 35592, Note_on_c, 0, 52, 93
2, 35616, Note_off_c, 0, 52, 0
2, 35616, Note_on_c, 0, 55, 93
2, 35640, Note_off_c, 0, 55, 0
2, 35640, Note_on_c, 0, 54, 93
2, 35664, Note_off_c, 0, 54, 0
2, 35664, Note_on_c, 0, 57, 93
2, 35688, Note_off_c, 0, 57, 0
2, 35688, Note_on_c, 0, 56, 93
2, 35712, Note_off_c, 0, 56, 0
2, 35712, Note_on_c, 0, 57, 93
2, 35760, Note_off_c, 0, 57, 0
2, 35760, Note_on_c, 0, 49, 93
2, 35784, Note_off_c, 0, 49, 0
2, 35784, Note_on_c, 0, 50, 93
2, 35808, Note_off_c, 0, 50, 0
2, 35808, Note_on_c, 0, 52, 93
2, 35832, Note_off_c, 0, 52, 0
2, 35832, Note_on_c, 0, 54, 93
2, 35856, Note_off_c, 0, 54, 0
2, 35856, Note_on_c, 0, 55, 93
2, 35880, Note_off_c, 0, 55, 0
2, 35880, Note_on_c, 0, 54, 93
2, 35904, Note_off_c, 0, 54, 0
2, 35904, Note_on_c, 0, 57, 93
2, 35928, Note_off_c, 0, 57, 0
2, 35928, Note_on_c, 0, 56, 93
2, 35952, Note_off_c, 0, 56, 0
2, 35952, Note_on_c, 0, 59, 93
2, 35976, Note_off_c, 0, 59, 0
2, 35976, Note_on_c, 0, 58, 93
2, 36000, Note_off_c, 0, 58, 0
2, 36000, Note_on_c, 0, 59, 93
2, 36048, Note_off_c, 0, 59, 0
2, 36048, Note_on_c, 0, 50, 93
2, 36072, Note_off_c, 0, 50, 0
2, 36072, Note_on_c, 0, 52, 93
2, 36096, Note_off_c, 0, 52, 0
2, 36096, Note_on_c, 0, 54, 93
2, 36144, Note_off_c, 0, 54, 0
2, 36144, Note_on_c, 0, 59, 93
2, 36192, Note_off_c, 0, 59, 0
2, 36192, Note_on_c, 0, 51, 93
2, 36240, Note_off_c, 0, 51, 0
2, 36240, Note_on_c, 0, 59, 93
2, 36288, Note_off_c, 0, 59, 0
2, 36288, Note_on_c, 0, 60, 93
2, 36336, Note_off_c, 0, 60, 0
2, 36336, Note_on_c, 0, 52, 93
2, 36360, Note_off_c, 0, 52, 0
2, 36360, Note_on_c, 0, 54, 93
2, 36384, Note_off_c, 0, 54, 0
2, 36384, Note_on_c, 0, 55, 93
2, 36432, Note_off_c, 0, 55, 0
2, 36432, Note_on_c, 0, 60, 93
2, 36480, Note_off_c, 0, 60, 0
2, 36480, Note_on_c, 0, 52, 93
2, 36528, Note_off_c, 0, 52, 0
2, 36528, Note_on_c, 0, 61, 93
2, 36576, Note_off_c, 0, 61, 0
2, 36576, Note_on_c, 0, 62, 93
2, 36624, Note_off_c, 0, 62, 0
2, 36624, Note_on_c, 0, 54, 93
2, 36648, Note_off_c, 0, 54, 0
2, 36648, Note_on_c, 0, 55, 93
2, 36672, Note_off_c, 0, 55, 0
2, 36672, Note_on_c, 0, 57, 93
2, 36720, Note_off_c, 0, 57, 0
2, 36720, Note_on_c, 0, 57, 93
2, 36744, Note_off_c, 0, 57, 0
2, 36744, Note_on_c, 0, 59, 93
2, 36768, Note_off_c, 0, 59, 0
2, 36768, Note_on_c, 0, 60, 93
2, 36816, Note_off_c, 0, 60, 0
2, 36816, Note_on_c, 0, 69, 93
2, 36840, Note_off_c, 0, 69, 0
2, 36840, Note_on_c, 0, 60, 93
2, 36864, Note_off_c, 0, 60, 0
2, 36864, Note_on_c, 0, 43, 93
2, 36912, Note_off_c, 0, 43, 0
2, 36912, Note_on_c, 0, 59, 93
2, 36936, Note_off_c, 0, 59, 0
2, 36936, Note_on_c, 0, 57, 93
2, 36960, Note_off_c, 0, 57, 0
2, 36960, Note_on_c, 0, 59, 93
2, 37008, Note_off_c, 0, 59, 0
2, 37008, Note_on_c, 0, 59, 93
2, 37032, Note_off_c, 0, 59, 0
2, 37032, Note_on_c, 0, 61, 93
2, 37056, Note_off_c, 0, 61, 0
2, 37056, Note_on_c, 0, 62, 93
2, 37104, Note_off_c, 0, 62, 0
2, 37104, Note_on_c, 0, 71, 93
2, 37128, Note_off_c, 0, 71, 0
2, 37128, Note_on_c, 0, 62, 93
2, 37152, Note_off_c, 0, 62, 0
2, 37152, Note_on_c, 0, 61, 93
2, 37176, Note_off_c, 0, 61, 0
2, 37176, Note_on_c, 0, 55, 93
2, 37200, Note_off_c, 0, 55, 0
2, 37200, Note_on_c, 0, 61, 93
2, 37224, Note_off_c, 0, 61, 0
2, 37224, Note_on_c, 0, 64, 93
2, 37248, Note_off_c, 0, 64, 0
2, 37248, Note_on_c, 0, 69, 93
2, 37296, Note_off_c, 0, 69, 0
2, 37296, Note_on_c, 0, 55, 93
2, 37320, Note_off_c, 0, 55, 0
2, 37320, Note_on_c, 0, 54, 93
2, 37344, Note_off_c, 0, 54, 0
2, 37344, Note_on_c, 0, 57, 93
2, 37368, Note_off_c, 0, 57, 0
2, 37368, Note_on_c, 0, 55, 93
2, 37392, Note_off_c, 0, 55, 0
2, 37392, Note_on_c, 0, 54, 93
2, 37416, Note_off_c, 0, 54, 0
2, 37416, Note_on_c, 0, 52, 93
2, 37440, Note_off_c, 0, 52, 0
2, 37440, Note_on_c, 0, 54, 93
2, 37488, Note_off_c, 0, 54, 0
2, 37488, Note_on_c, 0, 62, 93
2, 37536, Note_off_c, 0, 62, 0
2, 37536, Note_on_c, 0, 69, 93
2, 37584, Note_off_c, 0, 69, 0
2, 37584, Note_on_c, 0, 54, 93
2, 37608, Note_off_c, 0, 54, 0
2, 37608, Note_on_c, 0, 52, 93
2, 37632, Note_off_c, 0, 52, 0
2, 37632, Note_on_c, 0, 55, 93
2, 37656, Note_off_c, 0, 55, 0
2, 37656, Note_on_c, 0, 54, 93
2, 37680, Note_off_c, 0, 54, 0
2, 37680, Note_on_c, 0, 52, 93
2, 37704, Note_off_c, 0, 52, 0
2, 37704, Note_on_c, 0, 50, 93
2, 37728, Note_off_c, 0, 50, 0
2, 37728, Note_on_c, 0, 52, 93
2, 37776, Note_off_c, 0, 52, 0
2, 37776, Note_on_c, 0, 61, 93
2, 37824, Note_off_c, 0, 61, 0
2, 37824, Note_on_c, 0, 69, 93
2, 37848, Note_off_c, 0, 69, 0
2, 37848, Note_on_c, 0, 55, 93
2, 37872, Note_off_c, 0, 55, 0
2, 37872, Note_on_c, 0, 54, 93
2, 37896, Note_off_c, 0, 54, 0
2, 37896, Note_on_c, 0, 52, 93
2, 37920, Note_off_c, 0, 52, 0
2, 37920, Note_on_c, 0, 50, 93
2, 37944, Note_off_c, 0, 50, 0
2, 37944, Note_on_c, 0, 52, 93
2, 37968, Note_off_c, 0, 52, 0
2, 37968, Note_on_c, 0, 54, 93
2, 37992, Note_off_c, 0, 54, 0
2, 37992, Note_on_c, 0, 55, 93
2, 38016, Note_off_c, 0, 55, 0
2, 38016, Note_on_c, 0, 54, 93
2, 38040, Note_off_c, 0, 54, 0
2, 38040, Note_on_c, 0, 55, 93
2, 38064, Note_off_c, 0, 55, 0
2, 38064, Note_on_c, 0, 57, 93
2, 38088, Note_off_c, 0, 57, 0
2, 38088, Note_on_c, 0, 59, 93
2, 38112, Note_off_c, 0, 59, 0
2, 38112, Note_on_c, 0, 57, 93
2, 38136, Note_off_c, 0, 57, 0
2, 38136, Note_on_c, 0, 59, 93
2, 38160, Note_off_c, 0, 59, 0
2, 38160, Note_on_c, 0, 57, 93
2, 38184, Note_off_c, 0, 57, 0
2, 38184, Note_on_c, 0, 55, 93
2, 38208, Note_off_c, 0, 55, 0
2, 38208, Note_on_c, 0, 54, 93
2, 38232, Note_off_c, 0, 54, 0
2, 38232, Note_on_c, 0, 55, 93
2, 38256, Note_off_c, 0, 55, 0
2, 38256, Note_on_c, 0, 57, 93
2, 38280, Note_off_c, 0, 57, 0
2, 38280, Note_on_c, 0, 59, 93
2, 38304, Note_off_c, 0, 59, 0
2, 38304, Note_on_c, 0, 57, 93
2, 38328, Note_off_c, 0, 57, 0
2, 38328, Note_on_c, 0, 59, 93
2, 38352, Note_off_c, 0, 59, 0
2, 38352, Note_on_c, 0, 61, 93
2, 38376, Note_off_c, 0, 61, 0
2, 38376, Note_on_c, 0, 62, 93
2, 38400, Note_off_c, 0, 62, 0
2, 38400, Note_on_c, 0, 61, 93
2, 38424, Note_off_c, 0, 61, 0
2, 38424, Note_on_c, 0, 62, 93
2, 38448, Note_off_c, 0, 62, 0
2, 38448, Note_on_c, 0, 61, 93
2, 38472, Note_off_c, 0, 61, 0
2, 38472, Note_on_c, 0, 59, 93
2, 38496, Note_off_c, 0, 59, 0
2, 38496, Note_on_c, 0, 57, 93
2, 38520, Note_off_c, 0, 57, 0
2, 38520, Note_on_c, 0, 59, 93
2, 38544, Note_off_c, 0, 59, 0
2, 38544, Note_on_c, 0, 61, 93
2, 38568, Note_off_c, 0, 61, 0
2, 38568, Note_on_c, 0, 62, 93
2, 38592, Note_off_c, 0, 62, 0
2, 38592, Note_on_c, 0, 61, 93
2, 38616, Note_off_c, 0, 61, 0
2, 38616, Note_on_c, 0, 62, 93
2, 38640, Note_off_c, 0, 62, 0
2, 38640, Note_on_c, 0, 64, 93
2, 38664, Note_off_c, 0, 64, 0
2, 38664, Note_on_c, 0, 66, 93
2, 38688, Note_off_c, 0, 66, 0
2, 38688, Note_on_c, 0, 64, 93
2, 38712, Note_off_c, 0, 64, 0
2, 38712, Note_on_c, 0, 66, 93
2, 38736, Note_off_c, 0, 66, 0
2, 38736, Note_on_c, 0, 64, 93
2, 38760, Note_off_c, 0, 64, 0
2, 38760, Note_on_c, 0, 62, 93
2, 38784, Note_off_c, 0, 62, 0
2, 38784, Note_on_c, 0, 61, 93
2, 38808, Note_off_c, 0, 61, 0
2, 38808, Note_on_c, 0, 62, 93
2, 38832, Note_off_c, 0, 62, 0
2, 38832, Note_on_c, 0, 64, 93
2, 38856, Note_off_c, 0, 64, 0
2, 38856, Note_on_c, 0, 66, 93
2, 38880, Note_off_c, 0, 66, 0
2, 38880, Note_on_c, 0, 64, 93
2, 38904, Note_off_c, 0, 64, 0
2, 38904, Note_on_c, 0, 66, 93
2, 38928, Note_off_c, 0, 66, 0
2, 38928, Note_on_c, 0, 67, 93
2, 38952, Note_off_c, 0, 67, 0
2, 38952, Note_on_c, 0, 69, 93
2, 38976, Note_off_c, 0, 69, 0
2, 38976, Note_on_c, 0, 67, 93
2, 39000, Note_off_c, 0, 67, 0
2, 39000, Note_on_c, 0, 66, 93
2, 39024, Note_off_c, 0, 66, 0
2, 39024, Note_on_c, 0, 64, 93
2, 39048, Note_off_c, 0, 64, 0
2, 39048, Note_on_c, 0, 62, 93
2, 39072, Note_off_c, 0, 62, 0
2, 39072, Note_on_c, 0, 61, 93
2, 39096, Note_off_c, 0, 61, 0
2, 39096, Note_on_c, 0, 59, 93
2, 39120, Note_off_c, 0, 59, 0
2, 39120, Note_on_c, 0, 57, 93
2, 39144, Note_off_c, 0, 57, 0
2, 39144, Note_on_c, 0, 55, 93
2, 39168, Note_off_c, 0, 55, 0
2, 39168, Note_on_c, 0, 54, 93
2, 39216, Note_off_c, 0, 54, 0
2, 39216, Note_on_c, 0, 50, 93
2, 39240, Note_off_c, 0, 50, 0
2, 39240, Note_on_c, 0, 52, 93
2, 39264, Note_off_c, 0, 52, 0
2, 39264, Note_on_c, 0, 54, 93
2, 39312, Note_off_c, 0, 54, 0
2, 39312, Note_on_c, 0, 50, 93
2, 39360, Note_off_c, 0, 50, 0
2, 39360, Note_on_c, 0, 57, 93
2, 39408, Note_off_c, 0, 57, 0
2, 39408, Note_on_c, 0, 54, 93
2, 39456, Note_off_c, 0, 54, 0
2, 39456, Note_on_c, 0, 62, 93
2, 39504, Note_off_c, 0, 62, 0
2, 39504, Note_on_c, 0, 47, 93
2, 39528, Note_off_c, 0, 47, 0
2, 39528, Note_on_c, 0, 49, 93
2, 39552, Note_off_c, 0, 49, 0
2, 39552, Note_on_c, 0, 50, 93
2, 39600, Note_off_c, 0, 50, 0
2, 39600, Note_on_c, 0, 47, 93
2, 39648, Note_off_c, 0, 47, 0
2, 39648, Note_on_c, 0, 54, 93
2, 39696, Note_off_c, 0, 54, 0
2, 39696, Note_on_c, 0, 50, 93
2, 39744, Note_off_c, 0, 50, 0
2, 39744, Note_on_c, 0, 62, 93
2, 39792, Note_off_c, 0, 62, 0
2, 39792, Note_on_c, 0, 42, 93
2, 39816, Note_off_c, 0, 42, 0
2, 39816, Note_on_c, 0, 43, 93
2, 39840, Note_off_c, 0, 43, 0
2, 39840, Note_on_c, 0, 45, 93
2, 39888, Note_off_c, 0, 45, 0
2, 39888, Note_on_c, 0, 42, 93
2, 39936, Note_off_c, 0, 42, 0
2, 39936, Note_on_c, 0, 50, 93
2, 39984, Note_off_c, 0, 50, 0
2, 39984, Note_on_c, 0, 45, 93
2, 40032, Note_off_c, 0, 45, 0
2, 40032, Note_on_c, 0, 47, 93
2, 40056, Note_off_c, 0, 47, 0
2, 40056, Note_on_c, 0, 45, 93
2, 40080, Note_off_c, 0, 45, 0
2, 40080, Note_on_c, 0, 43, 93
2, 40104, Note_off_c, 0, 43, 0
2, 40104, Note_on_c, 0, 42, 93
2, 40128, Note_off_c, 0, 42, 0
2, 40128, Note_on_c, 0, 43, 93
2, 40152, Note_off_c, 0, 43, 0
2, 40152, Note_on_c, 0, 40, 93
2, 40176, Note_off_c, 0, 40, 0
2, 40176, Note_on_c, 0, 49, 93
2, 40200, Note_off_c, 0, 49, 0
2, 40200, Note_on_c, 0, 47, 93
2, 40224, Note_off_c, 0, 47, 0
2, 40224, Note_on_c, 0, 50, 93
2, 40248, Note_off_c, 0, 50, 0
2, 40248, Note_on_c, 0, 49, 93
2, 40272, Note_off_c, 0, 49, 0
2, 40272, Note_on_c, 0, 47, 93
2, 40296, Note_off_c, 0, 47, 0
2, 40296, Note_on_c, 0, 45, 93
2, 40320, Note_off_c, 0, 45, 0
2, 40320, Note_on_c, 0, 52, 93
2, 40344, Note_off_c, 0, 52, 0
2, 40344, Note_on_c, 0, 50, 93
2, 40368, Note_off_c, 0, 50, 0
2, 40368, Note_on_c, 0, 49, 93
2, 40392, Note_off_c, 0, 49, 0
2, 40392, Note_on_c, 0, 47, 93
2, 40416, Note_off_c, 0, 47, 0
2, 40416, Note_on_c, 0, 49, 93
2, 40440, Note_off_c, 0, 49, 0
2, 40440, Note_on_c, 0, 45, 93
2, 40464, Note_off_c, 0, 45, 0
2, 40464, Note_on_c, 0, 54, 93
2, 40488, Note_off_c, 0, 54, 0
2, 40488, Note_on_c, 0, 52, 93
2, 40512, Note_off_c, 0, 52, 0
2, 40512, Note_on_c, 0, 55, 93
2, 40536, Note_off_c, 0, 55, 0
2, 40536, Note_on_c, 0, 54, 93
2, 40560, Note_off_c, 0, 54, 0
2, 40560, Note_on_c, 0, 52, 93
2, 40584, Note_off_c, 0, 52, 0
2, 40584, Note_on_c, 0, 50, 93
2, 40608, Note_off_c, 0, 50, 0
2, 40608, Note_on_c, 0, 57, 93
2, 40632, Note_off_c, 0, 57, 0
2, 40632, Note_on_c, 0, 55, 93
2, 40656, Note_off_c, 0, 55, 0
2, 40656, Note_on_c, 0, 54, 93
2, 40680, Note_off_c, 0, 54, 0
2, 40680, Note_on_c, 0, 52, 93
2, 40704, Note_off_c, 0, 52, 0
2, 40704, Note_on_c, 0, 54, 93
2, 40728, Note_off_c, 0, 54, 0
2, 40728, Note_on_c, 0, 50, 93
2, 40752, Note_off_c, 0, 50, 0
2, 40752, Note_on_c, 0, 59, 93
2, 40776, Note_off_c, 0, 59, 0
2, 40776, Note_on_c, 0, 57, 93
2, 40800, Note_off_c, 0, 57, 0
2, 40800, Note_on_c, 0, 60, 93
2, 40824, Note_off_c, 0, 60, 0
2, 40824, Note_on_c, 0, 59, 93
2, 40848, Note_off_c, 0, 59, 0
2, 40848, Note_on_c, 0, 57, 93
2, 40872, Note_off_c, 0, 57, 0
2, 40872, Note_on_c, 0, 55, 93
2, 40896, Note_off_c, 0, 55, 0
2, 40896, Note_on_c, 0, 64, 93
2, 40944, Note_off_c, 0, 64, 0
2, 40944, Note_on_c, 0, 61, 93
2, 40968, Note_off_c, 0, 61, 0
2, 40968, Note_on_c, 0, 62, 93
2, 40992, Note_off_c, 0, 62, 0
2, 40992, Note_on_c, 0, 64, 93
2, 41040, Note_off_c, 0, 64, 0
2, 41040, Note_on_c, 0, 57, 93
2, 41088, Note_off_c, 0, 57, 0
2, 41088, Note_on_c, 0, 61, 93
2, 41136, Note_off_c, 0, 61, 0
2, 41136, Note_on_c, 0, 55, 93
2, 41184, Note_off_c, 0, 55, 0
2, 41184, Note_on_c, 0, 54, 93
2, 41232, Note_off_c, 0, 54, 0
2, 41232, Note_on_c, 0, 50, 93
2, 41256, Note_off_c, 0, 50, 0
2, 41256, Note_on_c, 0, 52, 93
2, 41280, Note_off_c, 0, 52, 0
2, 41280, Note_on_c, 0, 54, 93
2, 41328, Note_off_c, 0, 54, 0
2, 41328, Note_on_c, 0, 45, 93
2, 41376, Note_off_c, 0, 45, 0
2, 41376, Note_on_c, 0, 49, 93
2, 41424, Note_off_c, 0, 49, 0
2, 41424, Note_on_c, 0, 43, 93
2, 41472, Note_off_c, 0, 43, 0
2, 41472, Note_on_c, 0, 38, 93
2, 41664, Note_off_c, 0, 38, 0
2, 41664, End_track
0, 0, End_of_file
