0, 0, Header, 1, 5, 96
1, 0, Start_track
1, 0, Time_signature, 4, 2, 24, 8
1, 0, Title_t, "untitled"
1, 0, Title_t, "Track1"
1, 0, Tempo, 240000
1, 0, End_track
2, 0, Start_track
2, 0, Title_t, "Track2"
2, 0, Program_c, 0, 42
2, 0, Control_c, 0, 7, 100
2, 0, Control_c, 0, 10, 59
2, 360, Note_on_c, 0, 66, 93
2, 384, Note_off_c, 0, 66, 0
2, 384, Note_on_c, 0, 66, 93
2, 492, Note_off_c, 0, 66, 0
2, 492, Note_on_c, 0, 64, 93
2, 504, Note_off_c, 0, 64, 0
2, 504, Note_on_c, 0, 67, 93
2, 516, Note_off_c, 0, 67, 0
2, 516, Note_on_c, 0, 66, 93
2, 528, Note_off_c, 0, 66, 0
2, 528, Note_on_c, 0, 64, 93
2, 540, Note_off_c, 0, 64, 0
2, 540, Note_on_c, 0, 62, 93
2, 552, Note_off_c, 0, 62, 0
2, 552, Note_on_c, 0, 64, 93
2, 558, Note_off_c, 0, 64, 0
2, 558, Note_on_c, 0, 61, 93
2, 564, Note_off_c, 0, 61, 0
2, 564, Note_on_c, 0, 62, 93
2, 576, Note_off_c, 0, 62, 0
2, 576, Note_on_c, 0, 62, 93
2, 624, Note_off_c, 0, 62, 0
2, 624, Note_on_c, 0, 61, 93
2, 660, Note_off_c, 0, 61, 0
2, 660, Note_on_c, 0, 62, 93
2, 666, Note_off_c, 0, 62, 0
2, 666, Note_on_c, 0, 64, 93
2, 672, Note_off_c, 0, 64, 0
2, 672, Note_on_c, 0, 62, 93
2, 684, Note_off_c, 0, 62, 0
2, 684, Note_on_c, 0, 61, 93
2, 696, Note_off_c, 0, 61, 0
2, 696, Note_on_c, 0, 59, 93
2, 708, Note_off_c, 0, 59, 0
2, 708, Note_on_c, 0, 57, 93
2, 720, Note_off_c, 0, 57, 0
2, 720, Note_on_c, 0, 59, 93
2, 726, Note_off_c, 0, 59, 0
2, 726, Note_on_c, 0, 61, 93
2, 732, Note_off_c, 0, 61, 0
2, 732, Note_on_c, 0, 59, 93
2, 738, Note_off_c, 0, 59, 0
2, 738, Note_on_c, 0, 61, 93
2, 744, Note_off_c, 0, 61, 0
2, 744, Note_on_c, 0, 61, 93
2, 756, Note_off_c, 0, 61, 0
2, 756, Note_on_c, 0, 59, 93
2, 762, Note_off_c, 0, 59, 0
2, 762, Note_on_c, 0, 61, 93
2, 768, Note_off_c, 0, 61, 0
2, 768, Note_on_c, 0, 62, 93
2, 840, Note_off_c, 0, 62, 0
2, 840, Note_on_c, 0, 69, 93
2, 876, Note_off_c, 0, 69, 0
2, 876, Note_on_c, 0, 67, 93
2, 888, Note_off_c, 0, 67, 0
2, 888, Note_on_c, 0, 66, 93
2, 900, Note_off_c, 0, 66, 0
2, 900, Note_on_c, 0, 64, 93
2, 912, Note_off_c, 0, 64, 0
2, 912, Note_on_c, 0, 62, 93
2, 918, Note_off_c, 0, 62, 0
2, 918, Note_on_c, 0, 61, 93
2, 924, Note_off_c, 0, 61, 0
2, 924, Note_on_c, 0, 62, 93
2, 930, Note_off_c, 0, 62, 0
2, 930, Note_on_c, 0, 64, 93
2, 936, Note_off_c, 0, 64, 0
2, 936, Note_on_c, 0, 66, 93
2, 942, Note_off_c, 0, 66, 0
2, 942, Note_on_c, 0, 64, 93
2, 948, Note_off_c, 0, 64, 0
2, 948, Note_on_c, 0, 67, 93
2, 954, Note_off_c, 0, 67, 0
2, 954, Note_on_c, 0, 66, 93
2, 960, Note_off_c, 0, 66, 0
2, 960, Note_on_c, 0, 67, 93
2, 996, Note_off_c, 0, 67, 0
2, 996, Note_on_c, 0, 66, 93
2, 1002, Note_off_c, 0, 66, 0
2, 1002, Note_on_c, 0, 66, 93
2, 1008, Note_off_c, 0, 66, 0
2, 1008, Note_on_c, 0, 67, 93
2, 1020, Note_off_c, 0, 67, 0
2, 1020, Note_on_c, 0, 66, 93
2, 1032, Note_off_c, 0, 66, 0
2, 1032, Note_on_c, 0, 67, 93
2, 1044, Note_off_c, 0, 67, 0
2, 1044, Note_on_c, 0, 71, 93
2, 1056, Note_off_c, 0, 71, 0
2, 1056, Note_on_c, 0, 67, 93
2, 1128, Note_off_c, 0, 67, 0
2, 1128, Note_on_c, 0, 66, 93
2, 1140, Note_off_c, 0, 66, 0
2, 1140, Note_on_c, 0, 67, 93
2, 1152, Note_off_c, 0, 67, 0
2, 1152, Note_on_c, 0, 66, 93
2, 1200, Note_off_c, 0, 66, 0
2, 1200, Note_on_c, 0, 64, 93
2, 1224, Note_off_c, 0, 64, 0
2, 1224, Note_on_c, 0, 66, 93
2, 1236, Note_off_c, 0, 66, 0
2, 1236, Note_on_c, 0, 62, 93
2, 1248, Note_off_c, 0, 62, 0
2, 1248, Note_on_c, 0, 66, 93
2, 1320, Note_off_c, 0, 66, 0
2, 1320, Note_on_c, 0, 66, 93
2, 1344, Note_off_c, 0, 66, 0
2, 1344, Note_on_c, 0, 56, 93
2, 1356, Note_off_c, 0, 56, 0
2, 1356, Note_on_c, 0, 64, 93
2, 1368, Note_off_c, 0, 64, 0
2, 1368, Note_on_c, 0, 71, 93
2, 1380, Note_off_c, 0, 71, 0
2, 1380, Note_on_c, 0, 74, 93
2, 1392, Note_off_c, 0, 74, 0
2, 1392, Note_on_c, 0, 73, 93
2, 1404, Note_off_c, 0, 73, 0
2, 1404, Note_on_c, 0, 71, 93
2, 1416, Note_off_c, 0, 71, 0
2, 1416, Note_on_c, 0, 70, 93
2, 1422, Note_off_c, 0, 70, 0
2, 1422, Note_on_c, 0, 71, 93
2, 1428, Note_off_c, 0, 71, 0
2, 1428, Note_on_c, 0, 74, 93
2, 1434, Note_off_c, 0, 74, 0
2, 1434, Note_on_c, 0, 73, 93
2, 1440, Note_off_c, 0, 73, 0
2, 1440, Note_on_c, 0, 73, 93
2, 1488, Note_off_c, 0, 73, 0
2, 1488, Note_on_c, 0, 58, 93
2, 1524, Note_off_c, 0, 58, 0
2, 1524, Note_on_c, 0, 64, 93
2, 1536, Note_off_c, 0, 64, 0
2, 1536, Note_on_c, 0, 59, 93
2, 1560, Note_off_c, 0, 59, 0
2, 1560, Note_on_c, 0, 64, 93
2, 1572, Note_off_c, 0, 64, 0
2, 1572, Note_on_c, 0, 67, 93
2, 1584, Note_off_c, 0, 67, 0
2, 1584, Note_on_c, 0, 66, 93
2, 1596, Note_off_c, 0, 66, 0
2, 1596, Note_on_c, 0, 64, 93
2, 1608, Note_off_c, 0, 64, 0
2, 1608, Note_on_c, 0, 62, 93
2, 1620, Note_off_c, 0, 62, 0
2, 1620, Note_on_c, 0, 64, 93
2, 1626, Note_off_c, 0, 64, 0
2, 1626, Note_on_c, 0, 61, 93
2, 1632, Note_off_c, 0, 61, 0
2, 1632, Note_on_c, 0, 62, 93
2, 1668, Note_off_c, 0, 62, 0
2, 1668, Note_on_c, 0, 59, 93
2, 1674, Note_off_c, 0, 59, 0
2, 1674, Note_on_c, 0, 61, 93
2, 1680, Note_off_c, 0, 61, 0
2, 1680, Note_on_c, 0, 62, 93
2, 1692, Note_off_c, 0, 62, 0
2, 1692, Note_on_c, 0, 64, 93
2, 1704, Note_off_c, 0, 64, 0
2, 1704, Note_on_c, 0, 66, 93
2, 1716, Note_off_c, 0, 66, 0
2, 1716, Note_on_c, 0, 69, 93
2, 1722, Note_off_c, 0, 69, 0
2, 1722, Note_on_c, 0, 68, 93
2, 1728, Note_off_c, 0, 68, 0
2, 1728, Note_on_c, 0, 69, 93
2, 1752, Note_off_c, 0, 69, 0
2, 1860, Note_on_c, 0, 69, 93
2, 1872, Note_off_c, 0, 69, 0
2, 1872, Note_on_c, 0, 71, 93
2, 1884, Note_off_c, 0, 71, 0
2, 1884, Note_on_c, 0, 69, 93
2, 1896, Note_off_c, 0, 69, 0
2, 1896, Note_on_c, 0, 68, 93
2, 1908, Note_off_c, 0, 68, 0
2, 1908, Note_on_c, 0, 69, 93
2, 1920, Note_off_c, 0, 69, 0
2, 1920, Note_on_c, 0, 69, 93
2, 1944, Note_off_c, 0, 69, 0
2, 1944, Note_on_c, 0, 68, 93
2, 1968, Note_off_c, 0, 68, 0
2, 1968, Note_on_c, 0, 66, 93
2, 1992, Note_off_c, 0, 66, 0
2, 1992, Note_on_c, 0, 64, 93
2, 2016, Note_off_c, 0, 64, 0
2, 2016, Note_on_c, 0, 64, 93
2, 2088, Note_off_c, 0, 64, 0
2, 2088, Note_on_c, 0, 64, 93
2, 2112, Note_off_c, 0, 64, 0
2, 2112, Note_on_c, 0, 64, 93
2, 2136, Note_off_c, 0, 64, 0
2, 2136, Note_on_c, 0, 66, 93
2, 2148, Note_off_c, 0, 66, 0
2, 2148, Note_on_c, 0, 68, 93
2, 2160, Note_off_c, 0, 68, 0
2, 2160, Note_on_c, 0, 69, 93
2, 2172, Note_off_c, 0, 69, 0
2, 2172, Note_on_c, 0, 68, 93
2, 2184, Note_off_c, 0, 68, 0
2, 2184, Note_on_c, 0, 69, 93
2, 2196, Note_off_c, 0, 69, 0
2, 2196, Note_on_c, 0, 66, 93
2, 2208, Note_off_c, 0, 66, 0
2, 2208, Note_on_c, 0, 62, 93
2, 2244, Note_off_c, 0, 62, 0
2, 2244, Note_on_c, 0, 61, 93
2, 2256, Note_off_c, 0, 61, 0
2, 2256, Note_on_c, 0, 59, 93
2, 2268, Note_off_c, 0, 59, 0
2, 2268, Note_on_c, 0, 62, 93
2, 2280, Note_off_c, 0, 62, 0
2, 2280, Note_on_c, 0, 66, 93
2, 2292, Note_off_c, 0, 66, 0
2, 2292, Note_on_c, 0, 69, 93
2, 2304, Note_off_c, 0, 69, 0
2, 2304, Note_on_c, 0, 68, 93
2, 2316, Note_off_c, 0, 68, 0
2, 2316, Note_on_c, 0, 69, 93
2, 2328, Note_off_c, 0, 69, 0
2, 2328, Note_on_c, 0, 71, 93
2, 2340, Note_off_c, 0, 71, 0
2, 2340, Note_on_c, 0, 69, 93
2, 2352, Note_off_c, 0, 69, 0
2, 2352, Note_on_c, 0, 68, 93
2, 2364, Note_off_c, 0, 68, 0
2, 2364, Note_on_c, 0, 66, 93
2, 2376, Note_off_c, 0, 66, 0
2, 2376, Note_on_c, 0, 64, 93
2, 2388, Note_off_c, 0, 64, 0
2, 2388, Note_on_c, 0, 66, 93
2, 2394, Note_off_c, 0, 66, 0
2, 2394, Note_on_c, 0, 62, 93
2, 2400, Note_off_c, 0, 62, 0
2, 2400, Note_on_c, 0, 61, 93
2, 2436, Note_off_c, 0, 61, 0
2, 2436, Note_on_c, 0, 59, 93
2, 2448, Note_off_c, 0, 59, 0
2, 2448, Note_on_c, 0, 57, 93
2, 2460, Note_off_c, 0, 57, 0
2, 2460, Note_on_c, 0, 56, 93
2, 2472, Note_off_c, 0, 56, 0
2, 2472, Note_on_c, 0, 57, 93
2, 2484, Note_off_c, 0, 57, 0
2, 2484, Note_on_c, 0, 61, 93
2, 2496, Note_off_c, 0, 61, 0
2, 2496, Note_on_c, 0, 66, 93
2, 2532, Note_off_c, 0, 66, 0
2, 2532, Note_on_c, 0, 64, 93
2, 2544, Note_off_c, 0, 64, 0
2, 2544, Note_on_c, 0, 62, 93
2, 2556, Note_off_c, 0, 62, 0
2, 2556, Note_on_c, 0, 61, 93
2, 2568, Note_off_c, 0, 61, 0
2, 2568, Note_on_c, 0, 62, 93
2, 2580, Note_off_c, 0, 62, 0
2, 2580, Note_on_c, 0, 66, 93
2, 2592, Note_off_c, 0, 66, 0
2, 2592, Note_on_c, 0, 71, 93
2, 2604, Note_off_c, 0, 71, 0
2, 2604, Note_on_c, 0, 68, 93
2, 2616, Note_off_c, 0, 68, 0
2, 2616, Note_on_c, 0, 69, 93
2, 2628, Note_off_c, 0, 69, 0
2, 2628, Note_on_c, 0, 66, 93
2, 2640, Note_off_c, 0, 66, 0
2, 2640, Note_on_c, 0, 64, 93
2, 2652, Note_off_c, 0, 64, 0
2, 2652, Note_on_c, 0, 61, 93
2, 2664, Note_off_c, 0, 61, 0
2, 2664, Note_on_c, 0, 62, 93
2, 2676, Note_off_c, 0, 62, 0
2, 2676, Note_on_c, 0, 59, 93
2, 2688, Note_off_c, 0, 59, 0
2, 2688, Note_on_c, 0, 57, 93
2, 2700, Note_off_c, 0, 57, 0
2, 2700, Note_on_c, 0, 54, 93
2, 2712, Note_off_c, 0, 54, 0
2, 2712, Note_on_c, 0, 56, 93
2, 2724, Note_off_c, 0, 56, 0
2, 2724, Note_on_c, 0, 59, 93
2, 2736, Note_off_c, 0, 59, 0
2, 2736, Note_on_c, 0, 64, 93
2, 2772, Note_off_c, 0, 64, 0
2, 2772, Note_on_c, 0, 50, 93
2, 2784, Note_off_c, 0, 50, 0
2, 2784, Note_on_c, 0, 49, 93
2, 2820, Note_off_c, 0, 49, 0
2, 2820, Note_on_c, 0, 64, 93
2, 2832, Note_off_c, 0, 64, 0
2, 2832, Note_on_c, 0, 62, 93
2, 2844, Note_off_c, 0, 62, 0
2, 2844, Note_on_c, 0, 61, 93
2, 2856, Note_off_c, 0, 61, 0
2, 2856, Note_on_c, 0, 59, 93
2, 2868, Note_off_c, 0, 59, 0
2, 2868, Note_on_c, 0, 57, 93
2, 2880, Note_off_c, 0, 57, 0
2, 2880, Note_on_c, 0, 50, 93
2, 2892, Note_off_c, 0, 50, 0
2, 2892, Note_on_c, 0, 66, 93
2, 2904, Note_off_c, 0, 66, 0
2, 2904, Note_on_c, 0, 64, 93
2, 2916, Note_off_c, 0, 64, 0
2, 2916, Note_on_c, 0, 62, 93
2, 2928, Note_off_c, 0, 62, 0
2, 2928, Note_on_c, 0, 61, 93
2, 2940, Note_off_c, 0, 61, 0
2, 2940, Note_on_c, 0, 56, 93
2, 2952, Note_off_c, 0, 56, 0
2, 2952, Note_on_c, 0, 57, 93
2, 2964, Note_off_c, 0, 57, 0
2, 2964, Note_on_c, 0, 62, 93
2, 2976, Note_off_c, 0, 62, 0
2, 2976, Note_on_c, 0, 59, 93
2, 3048, Note_off_c, 0, 59, 0
2, 3048, Note_on_c, 0, 57, 93
2, 3072, Note_off_c, 0, 57, 0
2, 3072, Note_on_c, 0, 57, 93
2, 3108, Note_off_c, 0, 57, 0
2, 3108, Note_on_c, 0, 59, 93
2, 3120, Note_off_c, 0, 59, 0
2, 3120, Note_on_c, 0, 61, 93
2, 3132, Note_off_c, 0, 61, 0
2, 3132, Note_on_c, 0, 62, 93
2, 3144, Note_off_c, 0, 62, 0
2, 3144, Note_on_c, 0, 64, 93
2, 3156, Note_off_c, 0, 64, 0
2, 3156, Note_on_c, 0, 67, 93
2, 3168, Note_off_c, 0, 67, 0
2, 3168, Note_on_c, 0, 66, 93
2, 3180, Note_off_c, 0, 66, 0
2, 3180, Note_on_c, 0, 64, 93
2, 3192, Note_off_c, 0, 64, 0
2, 3192, Note_on_c, 0, 62, 93
2, 3204, Note_off_c, 0, 62, 0
2, 3204, Note_on_c, 0, 61, 93
2, 3216, Note_off_c, 0, 61, 0
2, 3216, Note_on_c, 0, 62, 93
2, 3228, Note_off_c, 0, 62, 0
2, 3228, Note_on_c, 0, 59, 93
2, 3240, Note_off_c, 0, 59, 0
2, 3240, Note_on_c, 0, 69, 93
2, 3252, Note_off_c, 0, 69, 0
2, 3252, Note_on_c, 0, 68, 93
2, 3264, Note_off_c, 0, 68, 0
2, 3264, Note_on_c, 0, 69, 93
2, 3300, Note_off_c, 0, 69, 0
2, 3300, Note_on_c, 0, 64, 93
2, 3312, Note_off_c, 0, 64, 0
2, 3312, Note_on_c, 0, 61, 93
2, 3336, Note_off_c, 0, 61, 0
2, 3336, Note_on_c, 0, 59, 93
2, 3348, Note_off_c, 0, 59, 0
2, 3348, Note_on_c, 0, 57, 93
2, 3360, Note_off_c, 0, 57, 0
2, 3360, Note_on_c, 0, 45, 93
2, 3432, Note_off_c, 0, 45, 0
2, 3432, Note_on_c, 0, 66, 93
2, 3456, Note_off_c, 0, 66, 0
2, 3456, Note_on_c, 0, 66, 93
2, 3564, Note_off_c, 0, 66, 0
2, 3564, Note_on_c, 0, 64, 93
2, 3576, Note_off_c, 0, 64, 0
2, 3576, Note_on_c, 0, 67, 93
2, 3588, Note_off_c, 0, 67, 0
2, 3588, Note_on_c, 0, 66, 93
2, 3600, Note_off_c, 0, 66, 0
2, 3600, Note_on_c, 0, 64, 93
2, 3612, Note_off_c, 0, 64, 0
2, 3612, Note_on_c, 0, 62, 93
2, 3624, Note_off_c, 0, 62, 0
2, 3624, Note_on_c, 0, 64, 93
2, 3630, Note_off_c, 0, 64, 0
2, 3630, Note_on_c, 0, 61, 93
2, 3636, Note_off_c, 0, 61, 0
2, 3636, Note_on_c, 0, 62, 93
2, 3648, Note_off_c, 0, 62, 0
2, 3648, Note_on_c, 0, 62, 93
2, 3696, Note_off_c, 0, 62, 0
2, 3696, Note_on_c, 0, 61, 93
2, 3732, Note_off_c, 0, 61, 0
2, 3732, Note_on_c, 0, 62, 93
2, 3738, Note_off_c, 0, 62, 0
2, 3738, Note_on_c, 0, 64, 93
2, 3744, Note_off_c, 0, 64, 0
2, 3744, Note_on_c, 0, 62, 93
2, 3756, Note_off_c, 0, 62, 0
2, 3756, Note_on_c, 0, 61, 93
2, 3768, Note_off_c, 0, 61, 0
2, 3768, Note_on_c, 0, 59, 93
2, 3780, Note_off_c, 0, 59, 0
2, 3780, Note_on_c, 0, 57, 93
2, 3792, Note_off_c, 0, 57, 0
2, 3792, Note_on_c, 0, 59, 93
2, 3798, Note_off_c, 0, 59, 0
2, 3798, Note_on_c, 0, 61, 93
2, 3804, Note_off_c, 0, 61, 0
2, 3804, Note_on_c, 0, 59, 93
2, 3810, Note_off_c, 0, 59, 0
2, 3810, Note_on_c, 0, 61, 93
2, 3816, Note_off_c, 0, 61, 0
2, 3816, Note_on_c, 0, 61, 93
2, 3828, Note_off_c, 0, 61, 0
2, 3828, Note_on_c, 0, 59, 93
2, 3834, Note_off_c, 0, 59, 0
2, 3834, Note_on_c, 0, 61, 93
2, 3840, Note_off_c, 0, 61, 0
2, 3840, Note_on_c, 0, 62, 93
2, 3912, Note_off_c, 0, 62, 0
2, 3912, Note_on_c, 0, 69, 93
2, 3948, Note_off_c, 0, 69, 0
2, 3948, Note_on_c, 0, 67, 93
2, 3960, Note_off_c, 0, 67, 0
2, 3960, Note_on_c, 0, 66, 93
2, 3972, Note_off_c, 0, 66, 0
2, 3972, Note_on_c, 0, 64, 93
2, 3984, Note_off_c, 0, 64, 0
2, 3984, Note_on_c, 0, 62, 93
2, 3990, Note_off_c, 0, 62, 0
2, 3990, Note_on_c, 0, 61, 93
2, 3996, Note_off_c, 0, 61, 0
2, 3996, Note_on_c, 0, 62, 93
2, 4002, Note_off_c, 0, 62, 0
2, 4002, Note_on_c, 0, 64, 93
2, 4008, Note_off_c, 0, 64, 0
2, 4008, Note_on_c, 0, 66, 93
2, 4014, Note_off_c, 0, 66, 0
2, 4014, Note_on_c, 0, 64, 93
2, 4020, Note_off_c, 0, 64, 0
2, 4020, Note_on_c, 0, 67, 93
2, 4026, Note_off_c, 0, 67, 0
2, 4026, Note_on_c, 0, 66, 93
2, 4032, Note_off_c, 0, 66, 0
2, 4032, Note_on_c, 0, 67, 93
2, 4068, Note_off_c, 0, 67, 0
2, 4068, Note_on_c, 0, 66, 93
2, 4074, Note_off_c, 0, 66, 0
2, 4074, Note_on_c, 0, 66, 93
2, 4080, Note_off_c, 0, 66, 0
2, 4080, Note_on_c, 0, 67, 93
2, 4092, Note_off_c, 0, 67, 0
2, 4092, Note_on_c, 0, 66, 93
2, 4104, Note_off_c, 0, 66, 0
2, 4104, Note_on_c, 0, 67, 93
2, 4116, Note_off_c, 0, 67, 0
2, 4116, Note_on_c, 0, 71, 93
2, 4128, Note_off_c, 0, 71, 0
2, 4128, Note_on_c, 0, 67, 93
2, 4200, Note_off_c, 0, 67, 0
2, 4200, Note_on_c, 0, 66, 93
2, 4212, Note_off_c, 0, 66, 0
2, 4212, Note_on_c, 0, 67, 93
2, 4224, Note_off_c, 0, 67, 0
2, 4224, Note_on_c, 0, 66, 93
2, 4272, Note_off_c, 0, 66, 0
2, 4272, Note_on_c, 0, 64, 93
2, 4296, Note_off_c, 0, 64, 0
2, 4296, Note_on_c, 0, 66, 93
2, 4308, Note_off_c, 0, 66, 0
2, 4308, Note_on_c, 0, 62, 93
2, 4320, Note_off_c, 0, 62, 0
2, 4320, Note_on_c, 0, 66, 93
2, 4392, Note_off_c, 0, 66, 0
2, 4392, Note_on_c, 0, 66, 93
2, 4416, Note_off_c, 0, 66, 0
2, 4416, Note_on_c, 0, 56, 93
2, 4428, Note_off_c, 0, 56, 0
2, 4428, Note_on_c, 0, 64, 93
2, 4440, Note_off_c, 0, 64, 0
2, 4440, Note_on_c, 0, 71, 93
2, 4452, Note_off_c, 0, 71, 0
2, 4452, Note_on_c, 0, 74, 93
2, 4464, Note_off_c, 0, 74, 0
2, 4464, Note_on_c, 0, 73, 93
2, 4476, Note_off_c, 0, 73, 0
2, 4476, Note_on_c, 0, 71, 93
2, 4488, Note_off_c, 0, 71, 0
2, 4488, Note_on_c, 0, 70, 93
2, 4494, Note_off_c, 0, 70, 0
2, 4494, Note_on_c, 0, 71, 93
2, 4500, Note_off_c, 0, 71, 0
2, 4500, Note_on_c, 0, 74, 93
2, 4506, Note_off_c, 0, 74, 0
2, 4506, Note_on_c, 0, 73, 93
2, 4512, Note_off_c, 0, 73, 0
2, 4512, Note_on_c, 0, 73, 93
2, 4560, Note_off_c, 0, 73, 0
2, 4560, Note_on_c, 0, 58, 93
2, 4596, Note_off_c, 0, 58, 0
2, 4596, Note_on_c, 0, 64, 93
2, 4608, Note_off_c, 0, 64, 0
2, 4608, Note_on_c, 0, 59, 93
2, 4632, Note_off_c, 0, 59, 0
2, 4632, Note_on_c, 0, 64, 93
2, 4644, Note_off_c, 0, 64, 0
2, 4644, Note_on_c, 0, 67, 93
2, 4656, Note_off_c, 0, 67, 0
2, 4656, Note_on_c, 0, 66, 93
2, 4668, Note_off_c, 0, 66, 0
2, 4668, Note_on_c, 0, 64, 93
2, 4680, Note_off_c, 0, 64, 0
2, 4680, Note_on_c, 0, 62, 93
2, 4692, Note_off_c, 0, 62, 0
2, 4692, Note_on_c, 0, 64, 93
2, 4698, Note_off_c, 0, 64, 0
2, 4698, Note_on_c, 0, 61, 93
2, 4704, Note_off_c, 0, 61, 0
2, 4704, Note_on_c, 0, 62, 93
2, 4740, Note_off_c, 0, 62, 0
2, 4740, Note_on_c, 0, 59, 93
2, 4746, Note_off_c, 0, 59, 0
2, 4746, Note_on_c, 0, 61, 93
2, 4752, Note_off_c, 0, 61, 0
2, 4752, Note_on_c, 0, 62, 93
2, 4764, Note_off_c, 0, 62, 0
2, 4764, Note_on_c, 0, 64, 93
2, 4776, Note_off_c, 0, 64, 0
2, 4776, Note_on_c, 0, 66, 93
2, 4788, Note_off_c, 0, 66, 0
2, 4788, Note_on_c, 0, 69, 93
2, 4794, Note_off_c, 0, 69, 0
2, 4794, Note_on_c, 0, 68, 93
2, 4800, Note_off_c, 0, 68, 0
2, 4800, Note_on_c, 0, 69, 93
2, 4824, Note_off_c, 0, 69, 0
2, 4932, Note_on_c, 0, 69, 93
2, 4944, Note_off_c, 0, 69, 0
2, 4944, Note_on_c, 0, 71, 93
2, 4956, Note_off_c, 0, 71, 0
2, 4956, Note_on_c, 0, 69, 93
2, 4968, Note_off_c, 0, 69, 0
2, 4968, Note_on_c, 0, 68, 93
2, 4980, Note_off_c, 0, 68, 0
2, 4980, Note_on_c, 0, 69, 93
2, 4992, Note_off_c, 0, 69, 0
2, 4992, Note_on_c, 0, 69, 93
2, 5016, Note_off_c, 0, 69, 0
2, 5016, Note_on_c, 0, 68, 93
2, 5040, Note_off_c, 0, 68, 0
2, 5040, Note_on_c, 0, 66, 93
2, 5064, Note_off_c, 0, 66, 0
2, 5064, Note_on_c, 0, 64, 93
2, 5088, Note_off_c, 0, 64, 0
2, 5088, Note_on_c, 0, 64, 93
2, 5160, Note_off_c, 0, 64, 0
2, 5160, Note_on_c, 0, 64, 93
2, 5184, Note_off_c, 0, 64, 0
2, 5184, Note_on_c, 0, 64, 93
2, 5208, Note_off_c, 0, 64, 0
2, 5208, Note_on_c, 0, 66, 93
2, 5220, Note_off_c, 0, 66, 0
2, 5220, Note_on_c, 0, 68, 93
2, 5232, Note_off_c, 0, 68, 0
2, 5232, Note_on_c, 0, 69, 93
2, 5244, Note_off_c, 0, 69, 0
2, 5244, Note_on_c, 0, 68, 93
2, 5256, Note_off_c, 0, 68, 0
2, 5256, Note_on_c, 0, 69, 93
2, 5268, Note_off_c, 0, 69, 0
2, 5268, Note_on_c, 0, 66, 93
2, 5280, Note_off_c, 0, 66, 0
2, 5280, Note_on_c, 0, 62, 93
2, 5316, Note_off_c, 0, 62, 0
2, 5316, Note_on_c, 0, 61, 93
2, 5328, Note_off_c, 0, 61, 0
2, 5328, Note_on_c, 0, 59, 93
2, 5340, Note_off_c, 0, 59, 0
2, 5340, Note_on_c, 0, 62, 93
2, 5352, Note_off_c, 0, 62, 0
2, 5352, Note_on_c, 0, 66, 93
2, 5364, Note_off_c, 0, 66, 0
2, 5364, Note_on_c, 0, 69, 93
2, 5376, Note_off_c, 0, 69, 0
2, 5376, Note_on_c, 0, 68, 93
2, 5388, Note_off_c, 0, 68, 0
2, 5388, Note_on_c, 0, 69, 93
2, 5400, Note_off_c, 0, 69, 0
2, 5400, Note_on_c, 0, 71, 93
2, 5412, Note_off_c, 0, 71, 0
2, 5412, Note_on_c, 0, 69, 93
2, 5424, Note_off_c, 0, 69, 0
2, 5424, Note_on_c, 0, 68, 93
2, 5436, Note_off_c, 0, 68, 0
2, 5436, Note_on_c, 0, 66, 93
2, 5448, Note_off_c, 0, 66, 0
2, 5448, Note_on_c, 0, 64, 93
2, 5460, Note_off_c, 0, 64, 0
2, 5460, Note_on_c, 0, 66, 93
2, 5466, Note_off_c, 0, 66, 0
2, 5466, Note_on_c, 0, 62, 93
2, 5472, Note_off_c, 0, 62, 0
2, 5472, Note_on_c, 0, 61, 93
2, 5508, Note_off_c, 0, 61, 0
2, 5508, Note_on_c, 0, 59, 93
2, 5520, Note_off_c, 0, 59, 0
2, 5520, Note_on_c, 0, 57, 93
2, 5532, Note_off_c, 0, 57, 0
2, 5532, Note_on_c, 0, 56, 93
2, 5544, Note_off_c, 0, 56, 0
2, 5544, Note_on_c, 0, 57, 93
2, 5556, Note_off_c, 0, 57, 0
2, 5556, Note_on_c, 0, 61, 93
2, 5568, Note_off_c, 0, 61, 0
2, 5568, Note_on_c, 0, 66, 93
2, 5604, Note_off_c, 0, 66, 0
2, 5604, Note_on_c, 0, 64, 93
2, 5616, Note_off_c, 0, 64, 0
2, 5616, Note_on_c, 0, 62, 93
2, 5628, Note_off_c, 0, 62, 0
2, 5628, Note_on_c, 0, 61, 93
2, 5640, Note_off_c, 0, 61, 0
2, 5640, Note_on_c, 0, 62, 93
2, 5652, Note_off_c, 0, 62, 0
2, 5652, Note_on_c, 0, 66, 93
2, 5664, Note_off_c, 0, 66, 0
2, 5664, Note_on_c, 0, 71, 93
2, 5676, Note_off_c, 0, 71, 0
2, 5676, Note_on_c, 0, 68, 93
2, 5688, Note_off_c, 0, 68, 0
2, 5688, Note_on_c, 0, 69, 93
2, 5700, Note_off_c, 0, 69, 0
2, 5700, Note_on_c, 0, 66, 93
2, 5712, Note_off_c, 0, 66, 0
2, 5712, Note_on_c, 0, 64, 93
2, 5724, Note_off_c, 0, 64, 0
2, 5724, Note_on_c, 0, 61, 93
2, 5736, Note_off_c, 0, 61, 0
2, 5736, Note_on_c, 0, 62, 93
2, 5748, Note_off_c, 0, 62, 0
2, 5748, Note_on_c, 0, 59, 93
2, 5760, Note_off_c, 0, 59, 0
2, 5760, Note_on_c, 0, 57, 93
2, 5772, Note_off_c, 0, 57, 0
2, 5772, Note_on_c, 0, 54, 93
2, 5784, Note_off_c, 0, 54, 0
2, 5784, Note_on_c, 0, 56, 93
2, 5796, Note_off_c, 0, 56, 0
2, 5796, Note_on_c, 0, 59, 93
2, 5808, Note_off_c, 0, 59, 0
2, 5808, Note_on_c, 0, 64, 93
2, 5844, Note_off_c, 0, 64, 0
2, 5844, Note_on_c, 0, 50, 93
2, 5856, Note_off_c, 0, 50, 0
2, 5856, Note_on_c, 0, 49, 93
2, 5892, Note_off_c, 0, 49, 0
2, 5892, Note_on_c, 0, 64, 93
2, 5904, Note_off_c, 0, 64, 0
2, 5904, Note_on_c, 0, 62, 93
2, 5916, Note_off_c, 0, 62, 0
2, 5916, Note_on_c, 0, 61, 93
2, 5928, Note_off_c, 0, 61, 0
2, 5928, Note_on_c, 0, 59, 93
2, 5940, Note_off_c, 0, 59, 0
2, 5940, Note_on_c, 0, 57, 93
2, 5952, Note_off_c, 0, 57, 0
2, 5952, Note_on_c, 0, 50, 93
2, 5964, Note_off_c, 0, 50, 0
2, 5964, Note_on_c, 0, 66, 93
2, 5976, Note_off_c, 0, 66, 0
2, 5976, Note_on_c, 0, 64, 93
2, 5988, Note_off_c, 0, 64, 0
2, 5988, Note_on_c, 0, 62, 93
2, 6000, Note_off_c, 0, 62, 0
2, 6000, Note_on_c, 0, 61, 93
2, 6012, Note_off_c, 0, 61, 0
2, 6012, Note_on_c, 0, 56, 93
2, 6024, Note_off_c, 0, 56, 0
2, 6024, Note_on_c, 0, 57, 93
2, 6036, Note_off_c, 0, 57, 0
2, 6036, Note_on_c, 0, 62, 93
2, 6048, Note_off_c, 0, 62, 0
2, 6048, Note_on_c, 0, 59, 93
2, 6120, Note_off_c, 0, 59, 0
2, 6120, Note_on_c, 0, 57, 93
2, 6144, Note_off_c, 0, 57, 0
2, 6144, Note_on_c, 0, 57, 93
2, 6180, Note_off_c, 0, 57, 0
2, 6180, Note_on_c, 0, 59, 93
2, 6192, Note_off_c, 0, 59, 0
2, 6192, Note_on_c, 0, 61, 93
2, 6204, Note_off_c, 0, 61, 0
2, 6204, Note_on_c, 0, 62, 93
2, 6216, Note_off_c, 0, 62, 0
2, 6216, Note_on_c, 0, 64, 93
2, 6228, Note_off_c, 0, 64, 0
2, 6228, Note_on_c, 0, 67, 93
2, 6240, Note_off_c, 0, 67, 0
2, 6240, Note_on_c, 0, 66, 93
2, 6252, Note_off_c, 0, 66, 0
2, 6252, Note_on_c, 0, 64, 93
2, 6264, Note_off_c, 0, 64, 0
2, 6264, Note_on_c, 0, 62, 93
2, 6276, Note_off_c, 0, 62, 0
2, 6276, Note_on_c, 0, 61, 93
2, 6288, Note_off_c, 0, 61, 0
2, 6288, Note_on_c, 0, 62, 93
2, 6300, Note_off_c, 0, 62, 0
2, 6300, Note_on_c, 0, 59, 93
2, 6312, Note_off_c, 0, 59, 0
2, 6312, Note_on_c, 0, 69, 93
2, 6324, Note_off_c, 0, 69, 0
2, 6324, Note_on_c, 0, 68, 93
2, 6336, Note_off_c, 0, 68, 0
2, 6336, Note_on_c, 0, 69, 93
2, 6372, Note_off_c, 0, 69, 0
2, 6372, Note_on_c, 0, 64, 93
2, 6384, Note_off_c, 0, 64, 0
2, 6384, Note_on_c, 0, 61, 93
2, 6408, Note_off_c, 0, 61, 0
2, 6408, Note_on_c, 0, 59, 93
2, 6420, Note_off_c, 0, 59, 0
2, 6420, Note_on_c, 0, 57, 93
2, 6432, Note_off_c, 0, 57, 0
2, 6432, Note_on_c, 0, 45, 93
2, 6504, Note_off_c, 0, 45, 0
2, 6528, Note_on_c, 0, 61, 93
2, 6576, Note_off_c, 0, 61, 0
2, 6720, Note_on_c, 0, 69, 93
2, 6792, Note_off_c, 0, 69, 0
2, 6792, Note_on_c, 0, 67, 93
2, 6804, Note_off_c, 0, 67, 0
2, 6804, Note_on_c, 0, 66, 93
2, 6816, Note_off_c, 0, 66, 0
2, 6816, Note_on_c, 0, 64, 93
2, 6828, Note_off_c, 0, 64, 0
2, 6828, Note_on_c, 0, 62, 93
2, 6840, Note_off_c, 0, 62, 0
2, 6840, Note_on_c, 0, 61, 93
2, 6852, Note_off_c, 0, 61, 0
2, 6852, Note_on_c, 0, 59, 93
2, 6864, Note_off_c, 0, 59, 0
2, 6864, Note_on_c, 0, 57, 93
2, 6876, Note_off_c, 0, 57, 0
2, 6876, Note_on_c, 0, 55, 93
2, 6888, Note_off_c, 0, 55, 0
2, 6888, Note_on_c, 0, 54, 93
2, 6900, Note_off_c, 0, 54, 0
2, 6900, Note_on_c, 0, 55, 93
2, 6912, Note_off_c, 0, 55, 0
2, 6912, Note_on_c, 0, 54, 93
2, 6948, Note_off_c, 0, 54, 0
2, 6948, Note_on_c, 0, 57, 93
2, 6954, Note_off_c, 0, 57, 0
2, 6954, Note_on_c, 0, 61, 93
2, 6960, Note_off_c, 0, 61, 0
2, 6960, Note_on_c, 0, 62, 93
2, 6972, Note_off_c, 0, 62, 0
2, 6972, Note_on_c, 0, 59, 93
2, 6984, Note_off_c, 0, 59, 0
2, 6984, Note_on_c, 0, 55, 93
2, 6996, Note_off_c, 0, 55, 0
2, 6996, Note_on_c, 0, 54, 93
2, 7008, Note_off_c, 0, 54, 0
2, 7008, Note_on_c, 0, 52, 93
2, 7032, Note_off_c, 0, 52, 0
2, 7032, Note_on_c, 0, 67, 93
2, 7044, Note_off_c, 0, 67, 0
2, 7044, Note_on_c, 0, 66, 93
2, 7056, Note_off_c, 0, 66, 0
2, 7056, Note_on_c, 0, 67, 93
2, 7068, Note_off_c, 0, 67, 0
2, 7068, Note_on_c, 0, 64, 93
2, 7080, Note_off_c, 0, 64, 0
2, 7080, Note_on_c, 0, 61, 93
2, 7092, Note_off_c, 0, 61, 0
2, 7092, Note_on_c, 0, 57, 93
2, 7104, Note_off_c, 0, 57, 0
2, 7104, Note_on_c, 0, 50, 93
2, 7128, Note_off_c, 0, 50, 0
2, 7128, Note_on_c, 0, 57, 93
2, 7140, Note_off_c, 0, 57, 0
2, 7140, Note_on_c, 0, 59, 93
2, 7152, Note_off_c, 0, 59, 0
2, 7152, Note_on_c, 0, 61, 93
2, 7164, Note_off_c, 0, 61, 0
2, 7164, Note_on_c, 0, 62, 93
2, 7176, Note_off_c, 0, 62, 0
2, 7176, Note_on_c, 0, 64, 93
2, 7188, Note_off_c, 0, 64, 0
2, 7188, Note_on_c, 0, 66, 93
2, 7194, Note_off_c, 0, 66, 0
2, 7194, Note_on_c, 0, 67, 93
2, 7200, Note_off_c, 0, 67, 0
2, 7200, Note_on_c, 0, 66, 93
2, 7236, Note_off_c, 0, 66, 0
2, 7236, Note_on_c, 0, 50, 93
2, 7242, Note_off_c, 0, 50, 0
2, 7242, Note_on_c, 0, 52, 93
2, 7248, Note_off_c, 0, 52, 0
2, 7248, Note_on_c, 0, 54, 93
2, 7260, Note_off_c, 0, 54, 0
2, 7260, Note_on_c, 0, 50, 93
2, 7272, Note_off_c, 0, 50, 0
2, 7272, Note_on_c, 0, 52, 93
2, 7284, Note_off_c, 0, 52, 0
2, 7284, Note_on_c, 0, 54, 93
2, 7296, Note_off_c, 0, 54, 0
2, 7296, Note_on_c, 0, 36, 93
2, 7368, Note_off_c, 0, 36, 0
2, 7368, Note_on_c, 0, 57, 93
2, 7392, Note_off_c, 0, 57, 0
2, 7392, Note_on_c, 0, 59, 93
2, 7404, Note_off_c, 0, 59, 0
2, 7404, Note_on_c, 0, 57, 93
2, 7416, Note_off_c, 0, 57, 0
2, 7416, Note_on_c, 0, 59, 93
2, 7428, Note_off_c, 0, 59, 0
2, 7428, Note_on_c, 0, 60, 93
2, 7440, Note_off_c, 0, 60, 0
2, 7440, Note_on_c, 0, 59, 93
2, 7452, Note_off_c, 0, 59, 0
2, 7452, Note_on_c, 0, 60, 93
2, 7464, Note_off_c, 0, 60, 0
2, 7464, Note_on_c, 0, 60, 93
2, 7476, Note_off_c, 0, 60, 0
2, 7476, Note_on_c, 0, 59, 93
2, 7482, Note_off_c, 0, 59, 0
2, 7482, Note_on_c, 0, 60, 93
2, 7488, Note_off_c, 0, 60, 0
2, 7488, Note_on_c, 0, 62, 93
2, 7560, Note_off_c, 0, 62, 0
2, 7680, Note_on_c, 0, 45, 93
2, 7728, Note_off_c, 0, 45, 0
2, 7728, Note_on_c, 0, 44, 93
2, 7764, Note_off_c, 0, 44, 0
2, 7764, Note_on_c, 0, 66, 93
2, 7776, Note_off_c, 0, 66, 0
2, 7776, Note_on_c, 0, 66, 93
2, 7788, Note_off_c, 0, 66, 0
2, 7788, Note_on_c, 0, 65, 93
2, 7800, Note_off_c, 0, 65, 0
2, 7800, Note_on_c, 0, 68, 93
2, 7812, Note_off_c, 0, 68, 0
2, 7812, Note_on_c, 0, 66, 93
2, 7824, Note_off_c, 0, 66, 0
2, 7824, Note_on_c, 0, 69, 93
2, 7836, Note_off_c, 0, 69, 0
2, 7836, Note_on_c, 0, 68, 93
2, 7848, Note_off_c, 0, 68, 0
2, 7848, Note_on_c, 0, 71, 93
2, 7860, Note_off_c, 0, 71, 0
2, 7860, Note_on_c, 0, 62, 93
2, 7872, Note_off_c, 0, 62, 0
2, 7872, Note_on_c, 0, 53, 93
2, 7896, Note_off_c, 0, 53, 0
2, 7896, Note_on_c, 0, 61, 93
2, 7908, Note_off_c, 0, 61, 0
2, 7908, Note_on_c, 0, 71, 93
2, 7920, Note_off_c, 0, 71, 0
2, 7920, Note_on_c, 0, 69, 93
2, 7932, Note_off_c, 0, 69, 0
2, 7932, Note_on_c, 0, 71, 93
2, 7944, Note_off_c, 0, 71, 0
2, 7944, Note_on_c, 0, 68, 93
2, 7968, Note_off_c, 0, 68, 0
2, 7968, Note_on_c, 0, 69, 93
2, 8004, Note_off_c, 0, 69, 0
2, 8004, Note_on_c, 0, 68, 93
2, 8016, Note_off_c, 0, 68, 0
2, 8016, Note_on_c, 0, 66, 93
2, 8028, Note_off_c, 0, 66, 0
2, 8028, Note_on_c, 0, 64, 93
2, 8040, Note_off_c, 0, 64, 0
2, 8040, Note_on_c, 0, 62, 93
2, 8052, Note_off_c, 0, 62, 0
2, 8052, Note_on_c, 0, 64, 93
2, 8058, Note_off_c, 0, 64, 0
2, 8058, Note_on_c, 0, 61, 93
2, 8064, Note_off_c, 0, 61, 0
2, 8064, Note_on_c, 0, 62, 93
2, 8100, Note_off_c, 0, 62, 0
2, 8100, Note_on_c, 0, 61, 93
2, 8112, Note_off_c, 0, 61, 0
2, 8112, Note_on_c, 0, 59, 93
2, 8124, Note_off_c, 0, 59, 0
2, 8124, Note_on_c, 0, 57, 93
2, 8136, Note_off_c, 0, 57, 0
2, 8136, Note_on_c, 0, 55, 93
2, 8148, Note_off_c, 0, 55, 0
2, 8148, Note_on_c, 0, 57, 93
2, 8154, Note_off_c, 0, 57, 0
2, 8154, Note_on_c, 0, 54, 93
2, 8160, Note_off_c, 0, 54, 0
2, 8160, Note_on_c, 0, 55, 93
2, 8196, Note_off_c, 0, 55, 0
2, 8196, Note_on_c, 0, 50, 93
2, 8202, Note_off_c, 0, 50, 0
2, 8202, Note_on_c, 0, 54, 93
2, 8208, Note_off_c, 0, 54, 0
2, 8208, Note_on_c, 0, 55, 93
2, 8220, Note_off_c, 0, 55, 0
2, 8220, Note_on_c, 0, 57, 93
2, 8232, Note_off_c, 0, 57, 0
2, 8232, Note_on_c, 0, 59, 93
2, 8244, Note_off_c, 0, 59, 0
2, 8244, Note_on_c, 0, 61, 93
2, 8250, Note_off_c, 0, 61, 0
2, 8250, Note_on_c, 0, 62, 93
2, 8256, Note_off_c, 0, 62, 0
2, 8256, Note_on_c, 0, 62, 93
2, 8280, Note_off_c, 0, 62, 0
2, 8280, Note_on_c, 0, 53, 93
2, 8328, Note_off_c, 0, 53, 0
2, 8328, Note_on_c, 0, 54, 93
2, 8340, Note_off_c, 0, 54, 0
2, 8340, Note_on_c, 0, 56, 93
2, 8352, Note_off_c, 0, 56, 0
2, 8352, Note_on_c, 0, 49, 93
2, 8364, Note_off_c, 0, 49, 0
2, 8364, Note_on_c, 0, 47, 93
2, 8388, Note_off_c, 0, 47, 0
2, 8388, Note_on_c, 0, 50, 93
2, 8400, Note_off_c, 0, 50, 0
2, 8400, Note_on_c, 0, 49, 93
2, 8424, Note_off_c, 0, 49, 0
2, 8424, Note_on_c, 0, 50, 93
2, 8436, Note_off_c, 0, 50, 0
2, 8436, Note_on_c, 0, 47, 93
2, 8448, Note_off_c, 0, 47, 0
2, 8448, Note_on_c, 0, 45, 93
2, 8460, Note_off_c, 0, 45, 0
2, 8460, Note_on_c, 0, 66, 93
2, 8472, Note_off_c, 0, 66, 0
2, 8472, Note_on_c, 0, 68, 93
2, 8484, Note_off_c, 0, 68, 0
2, 8484, Note_on_c, 0, 69, 93
2, 8496, Note_off_c, 0, 69, 0
2, 8496, Note_on_c, 0, 59, 93
2, 8508, Note_off_c, 0, 59, 0
2, 8508, Note_on_c, 0, 69, 93
2, 8520, Note_off_c, 0, 69, 0
2, 8520, Note_on_c, 0, 68, 93
2, 8532, Note_off_c, 0, 68, 0
2, 8532, Note_on_c, 0, 71, 93
2, 8544, Note_off_c, 0, 71, 0
2, 8544, Note_on_c, 0, 66, 93
2, 8592, Note_off_c, 0, 66, 0
2, 8592, Note_on_c, 0, 65, 93
2, 8628, Note_off_c, 0, 65, 0
2, 8628, Note_on_c, 0, 66, 93
2, 8640, Note_off_c, 0, 66, 0
2, 8640, Note_on_c, 0, 66, 93
2, 8676, Note_off_c, 0, 66, 0
2, 8676, Note_on_c, 0, 61, 93
2, 8688, Note_off_c, 0, 61, 0
2, 8688, Note_on_c, 0, 66, 93
2, 8700, Note_off_c, 0, 66, 0
2, 8700, Note_on_c, 0, 68, 93
2, 8712, Note_off_c, 0, 68, 0
2, 8712, Note_on_c, 0, 69, 93
2, 8724, Note_off_c, 0, 69, 0
2, 8724, Note_on_c, 0, 68, 93
2, 8736, Note_off_c, 0, 68, 0
2, 8736, Note_on_c, 0, 69, 93
2, 8748, Note_off_c, 0, 69, 0
2, 8748, Note_on_c, 0, 71, 93
2, 8760, Note_off_c, 0, 71, 0
2, 8760, Note_on_c, 0, 72, 93
2, 8772, Note_off_c, 0, 72, 0
2, 8772, Note_on_c, 0, 69, 93
2, 8784, Note_off_c, 0, 69, 0
2, 8784, Note_on_c, 0, 63, 93
2, 8796, Note_off_c, 0, 63, 0
2, 8796, Note_on_c, 0, 64, 93
2, 8808, Note_off_c, 0, 64, 0
2, 8808, Note_on_c, 0, 63, 93
2, 8820, Note_off_c, 0, 63, 0
2, 8820, Note_on_c, 0, 64, 93
2, 8832, Note_off_c, 0, 64, 0
2, 8832, Note_on_c, 0, 63, 93
2, 8868, Note_off_c, 0, 63, 0
2, 8868, Note_on_c, 0, 57, 93
2, 8874, Note_off_c, 0, 57, 0
2, 8874, Note_on_c, 0, 60, 93
2, 8880, Note_off_c, 0, 60, 0
2, 8880, Note_on_c, 0, 60, 93
2, 8916, Note_off_c, 0, 60, 0
2, 8916, Note_on_c, 0, 57, 93
2, 8922, Note_off_c, 0, 57, 0
2, 8922, Note_on_c, 0, 60, 93
2, 8928, Note_off_c, 0, 60, 0
2, 8928, Note_on_c, 0, 60, 93
2, 8952, Note_off_c, 0, 60, 0
2, 8952, Note_on_c, 0, 59, 93
2, 8964, Note_off_c, 0, 59, 0
2, 8964, Note_on_c, 0, 69, 93
2, 8976, Note_off_c, 0, 69, 0
2, 8976, Note_on_c, 0, 67, 93
2, 8994, Note_off_c, 0, 67, 0
2, 8994, Note_on_c, 0, 67, 93
2, 9000, Note_off_c, 0, 67, 0
2, 9000, Note_on_c, 0, 69, 93
2, 9012, Note_off_c, 0, 69, 0
2, 9012, Note_on_c, 0, 66, 93
2, 9024, Note_off_c, 0, 66, 0
2, 9024, Note_on_c, 0, 67, 93
2, 9096, Note_off_c, 0, 67, 0
2, 9096, Note_on_c, 0, 69, 93
2, 9108, Note_off_c, 0, 69, 0
2, 9108, Note_on_c, 0, 71, 93
2, 9120, Note_off_c, 0, 71, 0
2, 9120, Note_on_c, 0, 69, 93
2, 9132, Note_off_c, 0, 69, 0
2, 9132, Note_on_c, 0, 67, 93
2, 9144, Note_off_c, 0, 67, 0
2, 9144, Note_on_c, 0, 66, 93
2, 9156, Note_off_c, 0, 66, 0
2, 9156, Note_on_c, 0, 64, 93
2, 9168, Note_off_c, 0, 64, 0
2, 9168, Note_on_c, 0, 62, 93
2, 9180, Note_off_c, 0, 62, 0
2, 9180, Note_on_c, 0, 61, 93
2, 9192, Note_off_c, 0, 61, 0
2, 9192, Note_on_c, 0, 64, 93
2, 9204, Note_off_c, 0, 64, 0
2, 9204, Note_on_c, 0, 62, 93
2, 9216, Note_off_c, 0, 62, 0
2, 9216, Note_on_c, 0, 62, 93
2, 9240, Note_off_c, 0, 62, 0
2, 9240, Note_on_c, 0, 47, 93
2, 9252, Note_off_c, 0, 47, 0
2, 9252, Note_on_c, 0, 49, 93
2, 9264, Note_off_c, 0, 49, 0
2, 9264, Note_on_c, 0, 50, 93
2, 9276, Note_off_c, 0, 50, 0
2, 9276, Note_on_c, 0, 52, 93
2, 9288, Note_off_c, 0, 52, 0
2, 9288, Note_on_c, 0, 54, 93
2, 9300, Note_off_c, 0, 54, 0
2, 9300, Note_on_c, 0, 50, 93
2, 9312, Note_off_c, 0, 50, 0
2, 9312, Note_on_c, 0, 56, 93
2, 9324, Note_off_c, 0, 56, 0
2, 9324, Note_on_c, 0, 59, 93
2, 9336, Note_off_c, 0, 59, 0
2, 9336, Note_on_c, 0, 52, 93
2, 9348, Note_off_c, 0, 52, 0
2, 9348, Note_on_c, 0, 54, 93
2, 9360, Note_off_c, 0, 54, 0
2, 9360, Note_on_c, 0, 56, 93
2, 9372, Note_off_c, 0, 56, 0
2, 9372, Note_on_c, 0, 57, 93
2, 9384, Note_off_c, 0, 57, 0
2, 9384, Note_on_c, 0, 59, 93
2, 9396, Note_off_c, 0, 59, 0
2, 9396, Note_on_c, 0, 61, 93
2, 9408, Note_off_c, 0, 61, 0
2, 9408, Note_on_c, 0, 62, 93
2, 9420, Note_off_c, 0, 62, 0
2, 9420, Note_on_c, 0, 61, 93
2, 9432, Note_off_c, 0, 61, 0
2, 9432, Note_on_c, 0, 59, 93
2, 9444, Note_off_c, 0, 59, 0
2, 9444, Note_on_c, 0, 61, 93
2, 9456, Note_off_c, 0, 61, 0
2, 9456, Note_on_c, 0, 62, 93
2, 9468, Note_off_c, 0, 62, 0
2, 9468, Note_on_c, 0, 59, 93
2, 9480, Note_off_c, 0, 59, 0
2, 9480, Note_on_c, 0, 61, 93
2, 9492, Note_off_c, 0, 61, 0
2, 9492, Note_on_c, 0, 57, 93
2, 9504, Note_off_c, 0, 57, 0
2, 9504, Note_on_c, 0, 69, 93
2, 9540, Note_off_c, 0, 69, 0
2, 9540, Note_on_c, 0, 55, 93
2, 9552, Note_off_c, 0, 55, 0
2, 9552, Note_on_c, 0, 57, 93
2, 9564, Note_off_c, 0, 57, 0
2, 9564, Note_on_c, 0, 55, 93
2, 9576, Note_off_c, 0, 55, 0
2, 9576, Note_on_c, 0, 54, 93
2, 9588, Note_off_c, 0, 54, 0
2, 9588, Note_on_c, 0, 55, 93
2, 9600, Note_off_c, 0, 55, 0
2, 9600, Note_on_c, 0, 54, 93
2, 9636, Note_off_c, 0, 54, 0
2, 9636, Note_on_c, 0, 69, 93
2, 9648, Note_off_c, 0, 69, 0
2, 9648, Note_on_c, 0, 67, 93
2, 9660, Note_off_c, 0, 67, 0
2, 9660, Note_on_c, 0, 66, 93
2, 9672, Note_off_c, 0, 66, 0
2, 9672, Note_on_c, 0, 64, 93
2, 9684, Note_off_c, 0, 64, 0
2, 9684, Note_on_c, 0, 62, 93
2, 9696, Note_off_c, 0, 62, 0
2, 9696, Note_on_c, 0, 60, 93
2, 9708, Note_off_c, 0, 60, 0
2, 9708, Note_on_c, 0, 59, 93
2, 9720, Note_off_c, 0, 59, 0
2, 9720, Note_on_c, 0, 60, 93
2, 9732, Note_off_c, 0, 60, 0
2, 9732, Note_on_c, 0, 69, 93
2, 9744, Note_off_c, 0, 69, 0
2, 9744, Note_on_c, 0, 60, 93
2, 9756, Note_off_c, 0, 60, 0
2, 9756, Note_on_c, 0, 59, 93
2, 9768, Note_off_c, 0, 59, 0
2, 9768, Note_on_c, 0, 60, 93
2, 9780, Note_off_c, 0, 60, 0
2, 9780, Note_on_c, 0, 57, 93
2, 9792, Note_off_c, 0, 57, 0
2, 9792, Note_on_c, 0, 51, 93
2, 9804, Note_off_c, 0, 51, 0
2, 9804, Note_on_c, 0, 54, 93
2, 9816, Note_off_c, 0, 54, 0
2, 9816, Note_on_c, 0, 59, 93
2, 9828, Note_off_c, 0, 59, 0
2, 9828, Note_on_c, 0, 63, 93
2, 9840, Note_off_c, 0, 63, 0
2, 9840, Note_on_c, 0, 66, 93
2, 9852, Note_off_c, 0, 66, 0
2, 9852, Note_on_c, 0, 69, 93
2, 9864, Note_off_c, 0, 69, 0
2, 9864, Note_on_c, 0, 67, 93
2, 9876, Note_off_c, 0, 67, 0
2, 9876, Note_on_c, 0, 66, 93
2, 9888, Note_off_c, 0, 66, 0
2, 9888, Note_on_c, 0, 67, 93
2, 9912, Note_off_c, 0, 67, 0
2, 9912, Note_on_c, 0, 52, 93
2, 9924, Note_off_c, 0, 52, 0
2, 9924, Note_on_c, 0, 54, 93
2, 9936, Note_off_c, 0, 54, 0
2, 9936, Note_on_c, 0, 55, 93
2, 9948, Note_off_c, 0, 55, 0
2, 9948, Note_on_c, 0, 57, 93
2, 9960, Note_off_c, 0, 57, 0
2, 9960, Note_on_c, 0, 59, 93
2, 9972, Note_off_c, 0, 59, 0
2, 9972, Note_on_c, 0, 62, 93
2, 9984, Note_off_c, 0, 62, 0
2, 9984, Note_on_c, 0, 61, 93
2, 9996, Note_off_c, 0, 61, 0
2, 9996, Note_on_c, 0, 64, 93
2, 10008, Note_off_c, 0, 64, 0
2, 10008, Note_on_c, 0, 57, 93
2, 10020, Note_off_c, 0, 57, 0
2, 10020, Note_on_c, 0, 61, 93
2, 10032, Note_off_c, 0, 61, 0
2, 10032, Note_on_c, 0, 64, 93
2, 10044, Note_off_c, 0, 64, 0
2, 10044, Note_on_c, 0, 67, 93
2, 10056, Note_off_c, 0, 67, 0
2, 10056, Note_on_c, 0, 66, 93
2, 10068, Note_off_c, 0, 66, 0
2, 10068, Note_on_c, 0, 64, 93
2, 10080, Note_off_c, 0, 64, 0
2, 10080, Note_on_c, 0, 66, 93
2, 10104, Note_off_c, 0, 66, 0
2, 10104, Note_on_c, 0, 50, 93
2, 10116, Note_off_c, 0, 50, 0
2, 10116, Note_on_c, 0, 52, 93
2, 10128, Note_off_c, 0, 52, 0
2, 10128, Note_on_c, 0, 54, 93
2, 10140, Note_off_c, 0, 54, 0
2, 10140, Note_on_c, 0, 55, 93
2, 10152, Note_off_c, 0, 55, 0
2, 10152, Note_on_c, 0, 57, 93
2, 10164, Note_off_c, 0, 57, 0
2, 10164, Note_on_c, 0, 48, 93
2, 10176, Note_off_c, 0, 48, 0
2, 10176, Note_on_c, 0, 43, 93
2, 10212, Note_off_c, 0, 43, 0
2, 10212, Note_on_c, 0, 66, 93
2, 10224, Note_off_c, 0, 66, 0
2, 10224, Note_on_c, 0, 71, 93
2, 10236, Note_off_c, 0, 71, 0
2, 10236, Note_on_c, 0, 69, 93
2, 10248, Note_off_c, 0, 69, 0
2, 10248, Note_on_c, 0, 67, 93
2, 10260, Note_off_c, 0, 67, 0
2, 10260, Note_on_c, 0, 66, 93
2, 10272, Note_off_c, 0, 66, 0
2, 10272, Note_on_c, 0, 64, 93
2, 10284, Note_off_c, 0, 64, 0
2, 10284, Note_on_c, 0, 61, 93
2, 10296, Note_off_c, 0, 61, 0
2, 10296, Note_on_c, 0, 62, 93
2, 10308, Note_off_c, 0, 62, 0
2, 10308, Note_on_c, 0, 59, 93
2, 10320, Note_off_c, 0, 59, 0
2, 10320, Note_on_c, 0, 57, 93
2, 10332, Note_off_c, 0, 57, 0
2, 10332, Note_on_c, 0, 54, 93
2, 10344, Note_off_c, 0, 54, 0
2, 10344, Note_on_c, 0, 55, 93
2, 10356, Note_off_c, 0, 55, 0
2, 10356, Note_on_c, 0, 52, 93
2, 10368, Note_off_c, 0, 52, 0
2, 10368, Note_on_c, 0, 50, 93
2, 10380, Note_off_c, 0, 50, 0
2, 10380, Note_on_c, 0, 47, 93
2, 10392, Note_off_c, 0, 47, 0
2, 10392, Note_on_c, 0, 49, 93
2, 10404, Note_off_c, 0, 49, 0
2, 10404, Note_on_c, 0, 52, 93
2, 10416, Note_off_c, 0, 52, 0
2, 10416, Note_on_c, 0, 57, 93
2, 10428, Note_off_c, 0, 57, 0
2, 10428, Note_on_c, 0, 61, 93
2, 10440, Note_off_c, 0, 61, 0
2, 10440, Note_on_c, 0, 64, 93
2, 10452, Note_off_c, 0, 64, 0
2, 10452, Note_on_c, 0, 68, 93
2, 10464, Note_off_c, 0, 68, 0
2, 10464, Note_on_c, 0, 69, 93
2, 10488, Note_off_c, 0, 69, 0
2, 10488, Note_on_c, 0, 42, 93
2, 10500, Note_off_c, 0, 42, 0
2, 10500, Note_on_c, 0, 57, 93
2, 10512, Note_off_c, 0, 57, 0
2, 10512, Note_on_c, 0, 55, 93
2, 10524, Note_off_c, 0, 55, 0
2, 10524, Note_on_c, 0, 54, 93
2, 10536, Note_off_c, 0, 54, 0
2, 10536, Note_on_c, 0, 52, 93
2, 10548, Note_off_c, 0, 52, 0
2, 10548, Note_on_c, 0, 50, 93
2, 10560, Note_off_c, 0, 50, 0
2, 10560, Note_on_c, 0, 43, 93
2, 10572, Note_off_c, 0, 43, 0
2, 10572, Note_on_c, 0, 59, 93
2, 10584, Note_off_c, 0, 59, 0
2, 10584, Note_on_c, 0, 57, 93
2, 10596, Note_off_c, 0, 57, 0
2, 10596, Note_on_c, 0, 55, 93
2, 10608, Note_off_c, 0, 55, 0
2, 10608, Note_on_c, 0, 54, 93
2, 10620, Note_off_c, 0, 54, 0
2, 10620, Note_on_c, 0, 49, 93
2, 10632, Note_off_c, 0, 49, 0
2, 10632, Note_on_c, 0, 50, 93
2, 10644, Note_off_c, 0, 50, 0
2, 10644, Note_on_c, 0, 55, 93
2, 10656, Note_off_c, 0, 55, 0
2, 10656, Note_on_c, 0, 52, 93
2, 10728, Note_off_c, 0, 52, 0
2, 10728, Note_on_c, 0, 50, 93
2, 10752, Note_off_c, 0, 50, 0
2, 10752, Note_on_c, 0, 50, 93
2, 10788, Note_off_c, 0, 50, 0
2, 10788, Note_on_c, 0, 52, 93
2, 10800, Note_off_c, 0, 52, 0
2, 10800, Note_on_c, 0, 54, 93
2, 10812, Note_off_c, 0, 54, 0
2, 10812, Note_on_c, 0, 55, 93
2, 10824, Note_off_c, 0, 55, 0
2, 10824, Note_on_c, 0, 57, 93
2, 10836, Note_off_c, 0, 57, 0
2, 10836, Note_on_c, 0, 60, 93
2, 10848, Note_off_c, 0, 60, 0
2, 10848, Note_on_c, 0, 59, 93
2, 10860, Note_off_c, 0, 59, 0
2, 10860, Note_on_c, 0, 57, 93
2, 10872, Note_off_c, 0, 57, 0
2, 10872, Note_on_c, 0, 55, 93
2, 10884, Note_off_c, 0, 55, 0
2, 10884, Note_on_c, 0, 54, 93
2, 10896, Note_off_c, 0, 54, 0
2, 10896, Note_on_c, 0, 55, 93
2, 10908, Note_off_c, 0, 55, 0
2, 10908, Note_on_c, 0, 52, 93
2, 10920, Note_off_c, 0, 52, 0
2, 10920, Note_on_c, 0, 62, 93
2, 10932, Note_off_c, 0, 62, 0
2, 10932, Note_on_c, 0, 61, 93
2, 10944, Note_off_c, 0, 61, 0
2, 10944, Note_on_c, 0, 62, 93
2, 10980, Note_off_c, 0, 62, 0
2, 10980, Note_on_c, 0, 57, 93
2, 10992, Note_off_c, 0, 57, 0
2, 10992, Note_on_c, 0, 54, 93
2, 11016, Note_off_c, 0, 54, 0
2, 11016, Note_on_c, 0, 52, 93
2, 11028, Note_off_c, 0, 52, 0
2, 11028, Note_on_c, 0, 50, 93
2, 11040, Note_off_c, 0, 50, 0
2, 11040, Note_on_c, 0, 38, 93
2, 11112, Note_off_c, 0, 38, 0
2, 11136, Note_on_c, 0, 61, 93
2, 11184, Note_off_c, 0, 61, 0
2, 11328, Note_on_c, 0, 69, 93
2, 11400, Note_off_c, 0, 69, 0
2, 11400, Note_on_c, 0, 67, 93
2, 11412, Note_off_c, 0, 67, 0
2, 11412, Note_on_c, 0, 66, 93
2, 11424, Note_off_c, 0, 66, 0
2, 11424, Note_on_c, 0, 64, 93
2, 11436, Note_off_c, 0, 64, 0
2, 11436, Note_on_c, 0, 62, 93
2, 11448, Note_off_c, 0, 62, 0
2, 11448, Note_on_c, 0, 61, 93
2, 11460, Note_off_c, 0, 61, 0
2, 11460, Note_on_c, 0, 59, 93
2, 11472, Note_off_c, 0, 59, 0
2, 11472, Note_on_c, 0, 57, 93
2, 11484, Note_off_c, 0, 57, 0
2, 11484, Note_on_c, 0, 55, 93
2, 11496, Note_off_c, 0, 55, 0
2, 11496, Note_on_c, 0, 54, 93
2, 11508, Note_off_c, 0, 54, 0
2, 11508, Note_on_c, 0, 55, 93
2, 11520, Note_off_c, 0, 55, 0
2, 11520, Note_on_c, 0, 54, 93
2, 11556, Note_off_c, 0, 54, 0
2, 11556, Note_on_c, 0, 57, 93
2, 11562, Note_off_c, 0, 57, 0
2, 11562, Note_on_c, 0, 61, 93
2, 11568, Note_off_c, 0, 61, 0
2, 11568, Note_on_c, 0, 62, 93
2, 11580, Note_off_c, 0, 62, 0
2, 11580, Note_on_c, 0, 59, 93
2, 11592, Note_off_c, 0, 59, 0
2, 11592, Note_on_c, 0, 55, 93
2, 11604, Note_off_c, 0, 55, 0
2, 11604, Note_on_c, 0, 54, 93
2, 11616, Note_off_c, 0, 54, 0
2, 11616, Note_on_c, 0, 52, 93
2, 11640, Note_off_c, 0, 52, 0
2, 11640, Note_on_c, 0, 67, 93
2, 11652, Note_off_c, 0, 67, 0
2, 11652, Note_on_c, 0, 66, 93
2, 11664, Note_off_c, 0, 66, 0
2, 11664, Note_on_c, 0, 67, 93
2, 11676, Note_off_c, 0, 67, 0
2, 11676, Note_on_c, 0, 64, 93
2, 11688, Note_off_c, 0, 64, 0
2, 11688, Note_on_c, 0, 61, 93
2, 11700, Note_off_c, 0, 61, 0
2, 11700, Note_on_c, 0, 57, 93
2, 11712, Note_off_c, 0, 57, 0
2, 11712, Note_on_c, 0, 50, 93
2, 11736, Note_off_c, 0, 50, 0
2, 11736, Note_on_c, 0, 57, 93
2, 11748, Note_off_c, 0, 57, 0
2, 11748, Note_on_c, 0, 59, 93
2, 11760, Note_off_c, 0, 59, 0
2, 11760, Note_on_c, 0, 61, 93
2, 11772, Note_off_c, 0, 61, 0
2, 11772, Note_on_c, 0, 62, 93
2, 11784, Note_off_c, 0, 62, 0
2, 11784, Note_on_c, 0, 64, 93
2, 11796, Note_off_c, 0, 64, 0
2, 11796, Note_on_c, 0, 66, 93
2, 11802, Note_off_c, 0, 66, 0
2, 11802, Note_on_c, 0, 67, 93
2, 11808, Note_off_c, 0, 67, 0
2, 11808, Note_on_c, 0, 66, 93
2, 11844, Note_off_c, 0, 66, 0
2, 11844, Note_on_c, 0, 50, 93
2, 11850, Note_off_c, 0, 50, 0
2, 11850, Note_on_c, 0, 52, 93
2, 11856, Note_off_c, 0, 52, 0
2, 11856, Note_on_c, 0, 54, 93
2, 11868, Note_off_c, 0, 54, 0
2, 11868, Note_on_c, 0, 50, 93
2, 11880, Note_off_c, 0, 50, 0
2, 11880, Note_on_c, 0, 52, 93
2, 11892, Note_off_c, 0, 52, 0
2, 11892, Note_on_c, 0, 54, 93
2, 11904, Note_off_c, 0, 54, 0
2, 11904, Note_on_c, 0, 36, 93
2, 11976, Note_off_c, 0, 36, 0
2, 11976, Note_on_c, 0, 57, 93
2, 12000, Note_off_c, 0, 57, 0
2, 12000, Note_on_c, 0, 59, 93
2, 12012, Note_off_c, 0, 59, 0
2, 12012, Note_on_c, 0, 57, 93
2, 12024, Note_off_c, 0, 57, 0
2, 12024, Note_on_c, 0, 59, 93
2, 12036, Note_off_c, 0, 59, 0
2, 12036, Note_on_c, 0, 60, 93
2, 12048, Note_off_c, 0, 60, 0
2, 12048, Note_on_c, 0, 59, 93
2, 12060, Note_off_c, 0, 59, 0
2, 12060, Note_on_c, 0, 60, 93
2, 12072, Note_off_c, 0, 60, 0
2, 12072, Note_on_c, 0, 60, 93
2, 12084, Note_off_c, 0, 60, 0
2, 12084, Note_on_c, 0, 59, 93
2, 12090, Note_off_c, 0, 59, 0
2, 12090, Note_on_c, 0, 60, 93
2, 12096, Note_off_c, 0, 60, 0
2, 12096, Note_on_c, 0, 62, 93
2, 12168, Note_off_c, 0, 62, 0
2, 12288, Note_on_c, 0, 45, 93
2, 12336, Note_off_c, 0, 45, 0
2, 12336, Note_on_c, 0, 44, 93
2, 12372, Note_off_c, 0, 44, 0
2, 12372, Note_on_c, 0, 66, 93
2, 12384, Note_off_c, 0, 66, 0
2, 12384, Note_on_c, 0, 66, 93
2, 12396, Note_off_c, 0, 66, 0
2, 12396, Note_on_c, 0, 65, 93
2, 12408, Note_off_c, 0, 65, 0
2, 12408, Note_on_c, 0, 68, 93
2, 12420, Note_off_c, 0, 68, 0
2, 12420, Note_on_c, 0, 66, 93
2, 12432, Note_off_c, 0, 66, 0
2, 12432, Note_on_c, 0, 69, 93
2, 12444, Note_off_c, 0, 69, 0
2, 12444, Note_on_c, 0, 68, 93
2, 12456, Note_off_c, 0, 68, 0
2, 12456, Note_on_c, 0, 71, 93
2, 12468, Note_off_c, 0, 71, 0
2, 12468, Note_on_c, 0, 62, 93
2, 12480, Note_off_c, 0, 62, 0
2, 12480, Note_on_c, 0, 53, 93
2, 12504, Note_off_c, 0, 53, 0
2, 12504, Note_on_c, 0, 61, 93
2, 12516, Note_off_c, 0, 61, 0
2, 12516, Note_on_c, 0, 71, 93
2, 12528, Note_off_c, 0, 71, 0
2, 12528, Note_on_c, 0, 69, 93
2, 12540, Note_off_c, 0, 69, 0
2, 12540, Note_on_c, 0, 71, 93
2, 12552, Note_off_c, 0, 71, 0
2, 12552, Note_on_c, 0, 68, 93
2, 12576, Note_off_c, 0, 68, 0
2, 12576, Note_on_c, 0, 69, 93
2, 12612, Note_off_c, 0, 69, 0
2, 12612, Note_on_c, 0, 68, 93
2, 12624, Note_off_c, 0, 68, 0
2, 12624, Note_on_c, 0, 66, 93
2, 12636, Note_off_c, 0, 66, 0
2, 12636, Note_on_c, 0, 64, 93
2, 12648, Note_off_c, 0, 64, 0
2, 12648, Note_on_c, 0, 62, 93
2, 12660, Note_off_c, 0, 62, 0
2, 12660, Note_on_c, 0, 64, 93
2, 12666, Note_off_c, 0, 64, 0
2, 12666, Note_on_c, 0, 61, 93
2, 12672, Note_off_c, 0, 61, 0
2, 12672, Note_on_c, 0, 62, 93
2, 12708, Note_off_c, 0, 62, 0
2, 12708, Note_on_c, 0, 61, 93
2, 12720, Note_off_c, 0, 61, 0
2, 12720, Note_on_c, 0, 59, 93
2, 12732, Note_off_c, 0, 59, 0
2, 12732, Note_on_c, 0, 57, 93
2, 12744, Note_off_c, 0, 57, 0
2, 12744, Note_on_c, 0, 55, 93
2, 12756, Note_off_c, 0, 55, 0
2, 12756, Note_on_c, 0, 57, 93
2, 12762, Note_off_c, 0, 57, 0
2, 12762, Note_on_c, 0, 54, 93
2, 12768, Note_off_c, 0, 54, 0
2, 12768, Note_on_c, 0, 55, 93
2, 12804, Note_off_c, 0, 55, 0
2, 12804, Note_on_c, 0, 50, 93
2, 12810, Note_off_c, 0, 50, 0
2, 12810, Note_on_c, 0, 54, 93
2, 12816, Note_off_c, 0, 54, 0
2, 12816, Note_on_c, 0, 55, 93
2, 12828, Note_off_c, 0, 55, 0
2, 12828, Note_on_c, 0, 57, 93
2, 12840, Note_off_c, 0, 57, 0
2, 12840, Note_on_c, 0, 59, 93
2, 12852, Note_off_c, 0, 59, 0
2, 12852, Note_on_c, 0, 61, 93
2, 12858, Note_off_c, 0, 61, 0
2, 12858, Note_on_c, 0, 62, 93
2, 12864, Note_off_c, 0, 62, 0
2, 12864, Note_on_c, 0, 62, 93
2, 12888, Note_off_c, 0, 62, 0
2, 12888, Note_on_c, 0, 53, 93
2, 12936, Note_off_c, 0, 53, 0
2, 12936, Note_on_c, 0, 54, 93
2, 12948, Note_off_c, 0, 54, 0
2, 12948, Note_on_c, 0, 56, 93
2, 12960, Note_off_c, 0, 56, 0
2, 12960, Note_on_c, 0, 49, 93
2, 12972, Note_off_c, 0, 49, 0
2, 12972, Note_on_c, 0, 47, 93
2, 12996, Note_off_c, 0, 47, 0
2, 12996, Note_on_c, 0, 50, 93
2, 13008, Note_off_c, 0, 50, 0
2, 13008, Note_on_c, 0, 49, 93
2, 13032, Note_off_c, 0, 49, 0
2, 13032, Note_on_c, 0, 50, 93
2, 13044, Note_off_c, 0, 50, 0
2, 13044, Note_on_c, 0, 47, 93
2, 13056, Note_off_c, 0, 47, 0
2, 13056, Note_on_c, 0, 45, 93
2, 13068, Note_off_c, 0, 45, 0
2, 13068, Note_on_c, 0, 66, 93
2, 13080, Note_off_c, 0, 66, 0
2, 13080, Note_on_c, 0, 68, 93
2, 13092, Note_off_c, 0, 68, 0
2, 13092, Note_on_c, 0, 69, 93
2, 13104, Note_off_c, 0, 69, 0
2, 13104, Note_on_c, 0, 59, 93
2, 13116, Note_off_c, 0, 59, 0
2, 13116, Note_on_c, 0, 69, 93
2, 13128, Note_off_c, 0, 69, 0
2, 13128, Note_on_c, 0, 68, 93
2, 13140, Note_off_c, 0, 68, 0
2, 13140, Note_on_c, 0, 71, 93
2, 13152, Note_off_c, 0, 71, 0
2, 13152, Note_on_c, 0, 66, 93
2, 13200, Note_off_c, 0, 66, 0
2, 13200, Note_on_c, 0, 65, 93
2, 13236, Note_off_c, 0, 65, 0
2, 13236, Note_on_c, 0, 66, 93
2, 13248, Note_off_c, 0, 66, 0
2, 13248, Note_on_c, 0, 66, 93
2, 13284, Note_off_c, 0, 66, 0
2, 13284, Note_on_c, 0, 61, 93
2, 13296, Note_off_c, 0, 61, 0
2, 13296, Note_on_c, 0, 66, 93
2, 13308, Note_off_c, 0, 66, 0
2, 13308, Note_on_c, 0, 68, 93
2, 13320, Note_off_c, 0, 68, 0
2, 13320, Note_on_c, 0, 69, 93
2, 13332, Note_off_c, 0, 69, 0
2, 13332, Note_on_c, 0, 68, 93
2, 13344, Note_off_c, 0, 68, 0
2, 13344, Note_on_c, 0, 69, 93
2, 13356, Note_off_c, 0, 69, 0
2, 13356, Note_on_c, 0, 71, 93
2, 13368, Note_off_c, 0, 71, 0
2, 13368, Note_on_c, 0, 72, 93
2, 13380, Note_off_c, 0, 72, 0
2, 13380, Note_on_c, 0, 69, 93
2, 13392, Note_off_c, 0, 69, 0
2, 13392, Note_on_c, 0, 63, 93
2, 13404, Note_off_c, 0, 63, 0
2, 13404, Note_on_c, 0, 64, 93
2, 13416, Note_off_c, 0, 64, 0
2, 13416, Note_on_c, 0, 63, 93
2, 13428, Note_off_c, 0, 63, 0
2, 13428, Note_on_c, 0, 64, 93
2, 13440, Note_off_c, 0, 64, 0
2, 13440, Note_on_c, 0, 63, 93
2, 13476, Note_off_c, 0, 63, 0
2, 13476, Note_on_c, 0, 57, 93
2, 13482, Note_off_c, 0, 57, 0
2, 13482, Note_on_c, 0, 60, 93
2, 13488, Note_off_c, 0, 60, 0
2, 13488, Note_on_c, 0, 60, 93
2, 13524, Note_off_c, 0, 60, 0
2, 13524, Note_on_c, 0, 57, 93
2, 13530, Note_off_c, 0, 57, 0
2, 13530, Note_on_c, 0, 60, 93
2, 13536, Note_off_c, 0, 60, 0
2, 13536, Note_on_c, 0, 60, 93
2, 13560, Note_off_c, 0, 60, 0
2, 13560, Note_on_c, 0, 59, 93
2, 13572, Note_off_c, 0, 59, 0
2, 13572, Note_on_c, 0, 69, 93
2, 13584, Note_off_c, 0, 69, 0
2, 13584, Note_on_c, 0, 67, 93
2, 13602, Note_off_c, 0, 67, 0
2, 13602, Note_on_c, 0, 67, 93
2, 13608, Note_off_c, 0, 67, 0
2, 13608, Note_on_c, 0, 69, 93
2, 13620, Note_off_c, 0, 69, 0
2, 13620, Note_on_c, 0, 66, 93
2, 13632, Note_off_c, 0, 66, 0
2, 13632, Note_on_c, 0, 67, 93
2, 13704, Note_off_c, 0, 67, 0
2, 13704, Note_on_c, 0, 69, 93
2, 13716, Note_off_c, 0, 69, 0
2, 13716, Note_on_c, 0, 71, 93
2, 13728, Note_off_c, 0, 71, 0
2, 13728, Note_on_c, 0, 69, 93
2, 13740, Note_off_c, 0, 69, 0
2, 13740, Note_on_c, 0, 67, 93
2, 13752, Note_off_c, 0, 67, 0
2, 13752, Note_on_c, 0, 66, 93
2, 13764, Note_off_c, 0, 66, 0
2, 13764, Note_on_c, 0, 64, 93
2, 13776, Note_off_c, 0, 64, 0
2, 13776, Note_on_c, 0, 62, 93
2, 13788, Note_off_c, 0, 62, 0
2, 13788, Note_on_c, 0, 61, 93
2, 13800, Note_off_c, 0, 61, 0
2, 13800, Note_on_c, 0, 64, 93
2, 13812, Note_off_c, 0, 64, 0
2, 13812, Note_on_c, 0, 62, 93
2, 13824, Note_off_c, 0, 62, 0
2, 13824, Note_on_c, 0, 62, 93
2, 13848, Note_off_c, 0, 62, 0
2, 13848, Note_on_c, 0, 47, 93
2, 13860, Note_off_c, 0, 47, 0
2, 13860, Note_on_c, 0, 49, 93
2, 13872, Note_off_c, 0, 49, 0
2, 13872, Note_on_c, 0, 50, 93
2, 13884, Note_off_c, 0, 50, 0
2, 13884, Note_on_c, 0, 52, 93
2, 13896, Note_off_c, 0, 52, 0
2, 13896, Note_on_c, 0, 54, 93
2, 13908, Note_off_c, 0, 54, 0
2, 13908, Note_on_c, 0, 50, 93
2, 13920, Note_off_c, 0, 50, 0
2, 13920, Note_on_c, 0, 56, 93
2, 13932, Note_off_c, 0, 56, 0
2, 13932, Note_on_c, 0, 59, 93
2, 13944, Note_off_c, 0, 59, 0
2, 13944, Note_on_c, 0, 52, 93
2, 13956, Note_off_c, 0, 52, 0
2, 13956, Note_on_c, 0, 54, 93
2, 13968, Note_off_c, 0, 54, 0
2, 13968, Note_on_c, 0, 56, 93
2, 13980, Note_off_c, 0, 56, 0
2, 13980, Note_on_c, 0, 57, 93
2, 13992, Note_off_c, 0, 57, 0
2, 13992, Note_on_c, 0, 59, 93
2, 14004, Note_off_c, 0, 59, 0
2, 14004, Note_on_c, 0, 61, 93
2, 14016, Note_off_c, 0, 61, 0
2, 14016, Note_on_c, 0, 62, 93
2, 14028, Note_off_c, 0, 62, 0
2, 14028, Note_on_c, 0, 61, 93
2, 14040, Note_off_c, 0, 61, 0
2, 14040, Note_on_c, 0, 59, 93
2, 14052, Note_off_c, 0, 59, 0
2, 14052, Note_on_c, 0, 61, 93
2, 14064, Note_off_c, 0, 61, 0
2, 14064, Note_on_c, 0, 62, 93
2, 14076, Note_off_c, 0, 62, 0
2, 14076, Note_on_c, 0, 59, 93
2, 14088, Note_off_c, 0, 59, 0
2, 14088, Note_on_c, 0, 61, 93
2, 14100, Note_off_c, 0, 61, 0
2, 14100, Note_on_c, 0, 57, 93
2, 14112, Note_off_c, 0, 57, 0
2, 14112, Note_on_c, 0, 69, 93
2, 14148, Note_off_c, 0, 69, 0
2, 14148, Note_on_c, 0, 55, 93
2, 14160, Note_off_c, 0, 55, 0
2, 14160, Note_on_c, 0, 57, 93
2, 14172, Note_off_c, 0, 57, 0
2, 14172, Note_on_c, 0, 55, 93
2, 14184, Note_off_c, 0, 55, 0
2, 14184, Note_on_c, 0, 54, 93
2, 14196, Note_off_c, 0, 54, 0
2, 14196, Note_on_c, 0, 55, 93
2, 14208, Note_off_c, 0, 55, 0
2, 14208, Note_on_c, 0, 54, 93
2, 14244, Note_off_c, 0, 54, 0
2, 14244, Note_on_c, 0, 69, 93
2, 14256, Note_off_c, 0, 69, 0
2, 14256, Note_on_c, 0, 67, 93
2, 14268, Note_off_c, 0, 67, 0
2, 14268, Note_on_c, 0, 66, 93
2, 14280, Note_off_c, 0, 66, 0
2, 14280, Note_on_c, 0, 64, 93
2, 14292, Note_off_c, 0, 64, 0
2, 14292, Note_on_c, 0, 62, 93
2, 14304, Note_off_c, 0, 62, 0
2, 14304, Note_on_c, 0, 60, 93
2, 14316, Note_off_c, 0, 60, 0
2, 14316, Note_on_c, 0, 59, 93
2, 14328, Note_off_c, 0, 59, 0
2, 14328, Note_on_c, 0, 60, 93
2, 14340, Note_off_c, 0, 60, 0
2, 14340, Note_on_c, 0, 69, 93
2, 14352, Note_off_c, 0, 69, 0
2, 14352, Note_on_c, 0, 60, 93
2, 14364, Note_off_c, 0, 60, 0
2, 14364, Note_on_c, 0, 59, 93
2, 14376, Note_off_c, 0, 59, 0
2, 14376, Note_on_c, 0, 60, 93
2, 14388, Note_off_c, 0, 60, 0
2, 14388, Note_on_c, 0, 57, 93
2, 14400, Note_off_c, 0, 57, 0
2, 14400, Note_on_c, 0, 51, 93
2, 14412, Note_off_c, 0, 51, 0
2, 14412, Note_on_c, 0, 54, 93
2, 14424, Note_off_c, 0, 54, 0
2, 14424, Note_on_c, 0, 59, 93
2, 14436, Note_off_c, 0, 59, 0
2, 14436, Note_on_c, 0, 63, 93
2, 14448, Note_off_c, 0, 63, 0
2, 14448, Note_on_c, 0, 66, 93
2, 14460, Note_off_c, 0, 66, 0
2, 14460, Note_on_c, 0, 69, 93
2, 14472, Note_off_c, 0, 69, 0
2, 14472, Note_on_c, 0, 67, 93
2, 14484, Note_off_c, 0, 67, 0
2, 14484, Note_on_c, 0, 66, 93
2, 14496, Note_off_c, 0, 66, 0
2, 14496, Note_on_c, 0, 67, 93
2, 14520, Note_off_c, 0, 67, 0
2, 14520, Note_on_c, 0, 52, 93
2, 14532, Note_off_c, 0, 52, 0
2, 14532, Note_on_c, 0, 54, 93
2, 14544, Note_off_c, 0, 54, 0
2, 14544, Note_on_c, 0, 55, 93
2, 14556, Note_off_c, 0, 55, 0
2, 14556, Note_on_c, 0, 57, 93
2, 14568, Note_off_c, 0, 57, 0
2, 14568, Note_on_c, 0, 59, 93
2, 14580, Note_off_c, 0, 59, 0
2, 14580, Note_on_c, 0, 62, 93
2, 14592, Note_off_c, 0, 62, 0
2, 14592, Note_on_c, 0, 61, 93
2, 14604, Note_off_c, 0, 61, 0
2, 14604, Note_on_c, 0, 64, 93
2, 14616, Note_off_c, 0, 64, 0
2, 14616, Note_on_c, 0, 57, 93
2, 14628, Note_off_c, 0, 57, 0
2, 14628, Note_on_c, 0, 61, 93
2, 14640, Note_off_c, 0, 61, 0
2, 14640, Note_on_c, 0, 64, 93
2, 14652, Note_off_c, 0, 64, 0
2, 14652, Note_on_c, 0, 67, 93
2, 14664, Note_off_c, 0, 67, 0
2, 14664, Note_on_c, 0, 66, 93
2, 14676, Note_off_c, 0, 66, 0
2, 14676, Note_on_c, 0, 64, 93
2, 14688, Note_off_c, 0, 64, 0
2, 14688, Note_on_c, 0, 66, 93
2, 14712, Note_off_c, 0, 66, 0
2, 14712, Note_on_c, 0, 50, 93
2, 14724, Note_off_c, 0, 50, 0
2, 14724, Note_on_c, 0, 52, 93
2, 14736, Note_off_c, 0, 52, 0
2, 14736, Note_on_c, 0, 54, 93
2, 14748, Note_off_c, 0, 54, 0
2, 14748, Note_on_c, 0, 55, 93
2, 14760, Note_off_c, 0, 55, 0
2, 14760, Note_on_c, 0, 57, 93
2, 14772, Note_off_c, 0, 57, 0
2, 14772, Note_on_c, 0, 48, 93
2, 14784, Note_off_c, 0, 48, 0
2, 14784, Note_on_c, 0, 43, 93
2, 14820, Note_off_c, 0, 43, 0
2, 14820, Note_on_c, 0, 66, 93
2, 14832, Note_off_c, 0, 66, 0
2, 14832, Note_on_c, 0, 71, 93
2, 14844, Note_off_c, 0, 71, 0
2, 14844, Note_on_c, 0, 69, 93
2, 14856, Note_off_c, 0, 69, 0
2, 14856, Note_on_c, 0, 67, 93
2, 14868, Note_off_c, 0, 67, 0
2, 14868, Note_on_c, 0, 66, 93
2, 14880, Note_off_c, 0, 66, 0
2, 14880, Note_on_c, 0, 64, 93
2, 14892, Note_off_c, 0, 64, 0
2, 14892, Note_on_c, 0, 61, 93
2, 14904, Note_off_c, 0, 61, 0
2, 14904, Note_on_c, 0, 62, 93
2, 14916, Note_off_c, 0, 62, 0
2, 14916, Note_on_c, 0, 59, 93
2, 14928, Note_off_c, 0, 59, 0
2, 14928, Note_on_c, 0, 57, 93
2, 14940, Note_off_c, 0, 57, 0
2, 14940, Note_on_c, 0, 54, 93
2, 14952, Note_off_c, 0, 54, 0
2, 14952, Note_on_c, 0, 55, 93
2, 14964, Note_off_c, 0, 55, 0
2, 14964, Note_on_c, 0, 52, 93
2, 14976, Note_off_c, 0, 52, 0
2, 14976, Note_on_c, 0, 50, 93
2, 14988, Note_off_c, 0, 50, 0
2, 14988, Note_on_c, 0, 47, 93
2, 15000, Note_off_c, 0, 47, 0
2, 15000, Note_on_c, 0, 49, 93
2, 15012, Note_off_c, 0, 49, 0
2, 15012, Note_on_c, 0, 52, 93
2, 15024, Note_off_c, 0, 52, 0
2, 15024, Note_on_c, 0, 57, 93
2, 15036, Note_off_c, 0, 57, 0
2, 15036, Note_on_c, 0, 61, 93
2, 15048, Note_off_c, 0, 61, 0
2, 15048, Note_on_c, 0, 64, 93
2, 15060, Note_off_c, 0, 64, 0
2, 15060, Note_on_c, 0, 68, 93
2, 15072, Note_off_c, 0, 68, 0
2, 15072, Note_on_c, 0, 69, 93
2, 15096, Note_off_c, 0, 69, 0
2, 15096, Note_on_c, 0, 42, 93
2, 15108, Note_off_c, 0, 42, 0
2, 15108, Note_on_c, 0, 57, 93
2, 15120, Note_off_c, 0, 57, 0
2, 15120, Note_on_c, 0, 55, 93
2, 15132, Note_off_c, 0, 55, 0
2, 15132, Note_on_c, 0, 54, 93
2, 15144, Note_off_c, 0, 54, 0
2, 15144, Note_on_c, 0, 52, 93
2, 15156, Note_off_c, 0, 52, 0
2, 15156, Note_on_c, 0, 50, 93
2, 15168, Note_off_c, 0, 50, 0
2, 15168, Note_on_c, 0, 43, 93
2, 15180, Note_off_c, 0, 43, 0
2, 15180, Note_on_c, 0, 59, 93
2, 15192, Note_off_c, 0, 59, 0
2, 15192, Note_on_c, 0, 57, 93
2, 15204, Note_off_c, 0, 57, 0
2, 15204, Note_on_c, 0, 55, 93
2, 15216, Note_off_c, 0, 55, 0
2, 15216, Note_on_c, 0, 54, 93
2, 15228, Note_off_c, 0, 54, 0
2, 15228, Note_on_c, 0, 49, 93
2, 15240, Note_off_c, 0, 49, 0
2, 15240, Note_on_c, 0, 50, 93
2, 15252, Note_off_c, 0, 50, 0
2, 15252, Note_on_c, 0, 55, 93
2, 15264, Note_off_c, 0, 55, 0
2, 15264, Note_on_c, 0, 52, 93
2, 15336, Note_off_c, 0, 52, 0
2, 15336, Note_on_c, 0, 50, 93
2, 15360, Note_off_c, 0, 50, 0
2, 15360, Note_on_c, 0, 50, 93
2, 15396, Note_off_c, 0, 50, 0
2, 15396, Note_on_c, 0, 52, 93
2, 15408, Note_off_c, 0, 52, 0
2, 15408, Note_on_c, 0, 54, 93
2, 15420, Note_off_c, 0, 54, 0
2, 15420, Note_on_c, 0, 55, 93
2, 15432, Note_off_c, 0, 55, 0
2, 15432, Note_on_c, 0, 57, 93
2, 15444, Note_off_c, 0, 57, 0
2, 15444, Note_on_c, 0, 60, 93
2, 15456, Note_off_c, 0, 60, 0
2, 15456, Note_on_c, 0, 59, 93
2, 15468, Note_off_c, 0, 59, 0
2, 15468, Note_on_c, 0, 57, 93
2, 15480, Note_off_c, 0, 57, 0
2, 15480, Note_on_c, 0, 55, 93
2, 15492, Note_off_c, 0, 55, 0
2, 15492, Note_on_c, 0, 54, 93
2, 15504, Note_off_c, 0, 54, 0
2, 15504, Note_on_c, 0, 55, 93
2, 15516, Note_off_c, 0, 55, 0
2, 15516, Note_on_c, 0, 52, 93
2, 15528, Note_off_c, 0, 52, 0
2, 15528, Note_on_c, 0, 62, 93
2, 15540, Note_off_c, 0, 62, 0
2, 15540, Note_on_c, 0, 61, 93
2, 15552, Note_off_c, 0, 61, 0
2, 15552, Note_on_c, 0, 62, 93
2, 15588, Note_off_c, 0, 62, 0
2, 15588, Note_on_c, 0, 57, 93
2, 15600, Note_off_c, 0, 57, 0
2, 15600, Note_on_c, 0, 54, 93
2, 15624, Note_off_c, 0, 54, 0
2, 15624, Note_on_c, 0, 52, 93
2, 15636, Note_off_c, 0, 52, 0
2, 15636, Note_on_c, 0, 50, 93
2, 15648, Note_off_c, 0, 50, 0
2, 15648, Note_on_c, 0, 38, 93
2, 15720, Note_off_c, 0, 38, 0
2, 15720, End_track
3, 0, Start_track
3, 0, Title_t, "Track3"
3, 0, Program_c, 1, 42
3, 0, Control_c, 1, 7, 100
3, 0, Control_c, 1, 10, 69
3, 384, Note_on_c, 1, 57, 93
3, 480, Note_off_c, 1, 57, 0
3, 768, Note_on_c, 1, 54, 93
3, 840, Note_off_c, 1, 54, 0
3, 864, Note_on_c, 1, 59, 93
3, 912, Note_off_c, 1, 59, 0
3, 960, Note_on_c, 1, 59, 93
3, 984, Note_off_c, 1, 59, 0
3, 1056, Note_on_c, 1, 57, 93
3, 1152, Note_off_c, 1, 57, 0
3, 1152, Note_on_c, 1, 57, 93
3, 1200, Note_off_c, 1, 57, 0
3, 1248, Note_on_c, 1, 74, 93
3, 1320, Note_off_c, 1, 74, 0
3, 1320, Note_on_c, 1, 74, 93
3, 1344, Note_off_c, 1, 74, 0
3, 1728, Note_on_c, 1, 54, 93
3, 1764, Note_off_c, 1, 54, 0
3, 1764, Note_on_c, 1, 56, 93
3, 1776, Note_off_c, 1, 56, 0
3, 1776, Note_on_c, 1, 57, 93
3, 1788, Note_off_c, 1, 57, 0
3, 1788, Note_on_c, 1, 59, 93
3, 1800, Note_off_c, 1, 59, 0
3, 1800, Note_on_c, 1, 61, 93
3, 1812, Note_off_c, 1, 61, 0
3, 1812, Note_on_c, 1, 57, 93
3, 1824, Note_off_c, 1, 57, 0
3, 1824, Note_on_c, 1, 51, 93
3, 1860, Note_off_c, 1, 51, 0
3, 1920, Note_on_c, 1, 59, 93
3, 1944, Note_off_c, 1, 59, 0
3, 2016, Note_on_c, 1, 61, 93
3, 2088, Note_off_c, 1, 61, 0
3, 2088, Note_on_c, 1, 61, 93
3, 2112, Note_off_c, 1, 61, 0
3, 2112, Note_on_c, 1, 61, 93
3, 2136, Note_off_c, 1, 61, 0
3, 2304, Note_on_c, 1, 62, 93
3, 2328, Note_off_c, 1, 62, 0
3, 2496, Note_on_c, 1, 61, 93
3, 2520, Note_off_c, 1, 61, 0
3, 2976, Note_on_c, 1, 52, 93
3, 3072, Note_off_c, 1, 52, 0
3, 3072, Note_on_c, 1, 57, 93
3, 3108, Note_off_c, 1, 57, 0
3, 3456, Note_on_c, 1, 57, 93
3, 3552, Note_off_c, 1, 57, 0
3, 3840, Note_on_c, 1, 54, 93
3, 3912, Note_off_c, 1, 54, 0
3, 3936, Note_on_c, 1, 59, 93
3, 3984, Note_off_c, 1, 59, 0
3, 4032, Note_on_c, 1, 59, 93
3, 4056, Note_off_c, 1, 59, 0
3, 4128, Note_on_c, 1, 57, 93
3, 4224, Note_off_c, 1, 57, 0
3, 4224, Note_on_c, 1, 57, 93
3, 4272, Note_off_c, 1, 57, 0
3, 4320, Note_on_c, 1, 74, 93
3, 4392, Note_off_c, 1, 74, 0
3, 4392, Note_on_c, 1, 74, 93
3, 4416, Note_off_c, 1, 74, 0
3, 4800, Note_on_c, 1, 54, 93
3, 4836, Note_off_c, 1, 54, 0
3, 4836, Note_on_c, 1, 56, 93
3, 4848, Note_off_c, 1, 56, 0
3, 4848, Note_on_c, 1, 57, 93
3, 4860, Note_off_c, 1, 57, 0
3, 4860, Note_on_c, 1, 59, 93
3, 4872, Note_off_c, 1, 59, 0
3, 4872, Note_on_c, 1, 61, 93
3, 4884, Note_off_c, 1, 61, 0
3, 4884, Note_on_c, 1, 57, 93
3, 4896, Note_off_c, 1, 57, 0
3, 4896, Note_on_c, 1, 51, 93
3, 4932, Note_off_c, 1, 51, 0
3, 4992, Note_on_c, 1, 59, 93
3, 5016, Note_off_c, 1, 59, 0
3, 5088, Note_on_c, 1, 61, 93
3, 5160, Note_off_c, 1, 61, 0
3, 5160, Note_on_c, 1, 61, 93
3, 5184, Note_off_c, 1, 61, 0
3, 5184, Note_on_c, 1, 61, 93
3, 5208, Note_off_c, 1, 61, 0
3, 5376, Note_on_c, 1, 62, 93
3, 5400, Note_off_c, 1, 62, 0
3, 5568, Note_on_c, 1, 61, 93
3, 5592, Note_off_c, 1, 61, 0
3, 6048, Note_on_c, 1, 52, 93
3, 6144, Note_off_c, 1, 52, 0
3, 6144, Note_on_c, 1, 57, 93
3, 6180, Note_off_c, 1, 57, 0
3, 6504, Note_on_c, 1, 64, 93
3, 6528, Note_off_c, 1, 64, 0
3, 6528, Note_on_c, 1, 64, 93
3, 6588, Note_off_c, 1, 64, 0
3, 6588, Note_on_c, 1, 67, 93
3, 6600, Note_off_c, 1, 67, 0
3, 6600, Note_on_c, 1, 66, 93
3, 6612, Note_off_c, 1, 66, 0
3, 6612, Note_on_c, 1, 64, 93
3, 6624, Note_off_c, 1, 64, 0
3, 6624, Note_on_c, 1, 62, 93
3, 6636, Note_off_c, 1, 62, 0
3, 6636, Note_on_c, 1, 61, 93
3, 6648, Note_off_c, 1, 61, 0
3, 6648, Note_on_c, 1, 59, 93
3, 6660, Note_off_c, 1, 59, 0
3, 6660, Note_on_c, 1, 61, 93
3, 6672, Note_off_c, 1, 61, 0
3, 6672, Note_on_c, 1, 62, 93
3, 6684, Note_off_c, 1, 62, 0
3, 6684, Note_on_c, 1, 61, 93
3, 6696, Note_off_c, 1, 61, 0
3, 6696, Note_on_c, 1, 59, 93
3, 6708, Note_off_c, 1, 59, 0
3, 6708, Note_on_c, 1, 61, 93
3, 6714, Note_off_c, 1, 61, 0
3, 6714, Note_on_c, 1, 57, 93
3, 6720, Note_off_c, 1, 57, 0
3, 6720, Note_on_c, 1, 61, 93
3, 6792, Note_off_c, 1, 61, 0
3, 7488, Note_on_c, 1, 47, 93
3, 7560, Note_off_c, 1, 47, 0
3, 7560, Note_on_c, 1, 47, 93
3, 7584, Note_off_c, 1, 47, 0
3, 7584, Note_on_c, 1, 48, 93
3, 7596, Note_off_c, 1, 48, 0
3, 7596, Note_on_c, 1, 47, 93
3, 7608, Note_off_c, 1, 47, 0
3, 7608, Note_on_c, 1, 48, 93
3, 7620, Note_off_c, 1, 48, 0
3, 7620, Note_on_c, 1, 50, 93
3, 7632, Note_off_c, 1, 50, 0
3, 7632, Note_on_c, 1, 48, 93
3, 7638, Note_off_c, 1, 48, 0
3, 7638, Note_on_c, 1, 50, 93
3, 7644, Note_off_c, 1, 50, 0
3, 7644, Note_on_c, 1, 50, 93
3, 7662, Note_off_c, 1, 50, 0
3, 7662, Note_on_c, 1, 48, 93
3, 7668, Note_off_c, 1, 48, 0
3, 7668, Note_on_c, 1, 50, 93
3, 7674, Note_off_c, 1, 50, 0
3, 7674, Note_on_c, 1, 52, 93
3, 7680, Note_off_c, 1, 52, 0
3, 7968, Note_on_c, 1, 54, 93
3, 8004, Note_off_c, 1, 54, 0
3, 8064, Note_on_c, 1, 54, 93
3, 8100, Note_off_c, 1, 54, 0
3, 8544, Note_on_c, 1, 61, 93
3, 8592, Note_off_c, 1, 61, 0
3, 8832, Note_on_c, 1, 54, 93
3, 8904, Note_off_c, 1, 54, 0
3, 9024, Note_on_c, 1, 59, 93
3, 9096, Note_off_c, 1, 59, 0
3, 10656, Note_on_c, 1, 45, 93
3, 10752, Note_off_c, 1, 45, 0
3, 11112, Note_on_c, 1, 64, 93
3, 11136, Note_off_c, 1, 64, 0
3, 11136, Note_on_c, 1, 64, 93
3, 11196, Note_off_c, 1, 64, 0
3, 11196, Note_on_c, 1, 67, 93
3, 11208, Note_off_c, 1, 67, 0
3, 11208, Note_on_c, 1, 66, 93
3, 11220, Note_off_c, 1, 66, 0
3, 11220, Note_on_c, 1, 64, 93
3, 11232, Note_off_c, 1, 64, 0
3, 11232, Note_on_c, 1, 62, 93
3, 11244, Note_off_c, 1, 62, 0
3, 11244, Note_on_c, 1, 61, 93
3, 11256, Note_off_c, 1, 61, 0
3, 11256, Note_on_c, 1, 59, 93
3, 11268, Note_off_c, 1, 59, 0
3, 11268, Note_on_c, 1, 61, 93
3, 11280, Note_off_c, 1, 61, 0
3, 11280, Note_on_c, 1, 62, 93
3, 11292, Note_off_c, 1, 62, 0
3, 11292, Note_on_c, 1, 61, 93
3, 11304, Note_off_c, 1, 61, 0
3, 11304, Note_on_c, 1, 59, 93
3, 11316, Note_off_c, 1, 59, 0
3, 11316, Note_on_c, 1, 61, 93
3, 11322, Note_off_c, 1, 61, 0
3, 11322, Note_on_c, 1, 57, 93
3, 11328, Note_off_c, 1, 57, 0
3, 11328, Note_on_c, 1, 61, 93
3, 11400, Note_off_c, 1, 61, 0
3, 12096, Note_on_c, 1, 47, 93
3, 12168, Note_off_c, 1, 47, 0
3, 12168, Note_on_c, 1, 47, 93
3, 12192, Note_off_c, 1, 47, 0
3, 12192, Note_on_c, 1, 48, 93
3, 12204, Note_off_c, 1, 48, 0
3, 12204, Note_on_c, 1, 47, 93
3, 12216, Note_off_c, 1, 47, 0
3, 12216, Note_on_c, 1, 48, 93
3, 12228, Note_off_c, 1, 48, 0
3, 12228, Note_on_c, 1, 50, 93
3, 12240, Note_off_c, 1, 50, 0
3, 12240, Note_on_c, 1, 48, 93
3, 12246, Note_off_c, 1, 48, 0
3, 12246, Note_on_c, 1, 50, 93
3, 12252, Note_off_c, 1, 50, 0
3, 12252, Note_on_c, 1, 50, 93
3, 12270, Note_off_c, 1, 50, 0
3, 12270, Note_on_c, 1, 48, 93
3, 12276, Note_off_c, 1, 48, 0
3, 12276, Note_on_c, 1, 50, 93
3, 12282, Note_off_c, 1, 50, 0
3, 12282, Note_on_c, 1, 52, 93
3, 12288, Note_off_c, 1, 52, 0
3, 12576, Note_on_c, 1, 54, 93
3, 12612, Note_off_c, 1, 54, 0
3, 12672, Note_on_c, 1, 54, 93
3, 12708, Note_off_c, 1, 54, 0
3, 13152, Note_on_c, 1, 61, 93
3, 13200, Note_off_c, 1, 61, 0
3, 13440, Note_on_c, 1, 54, 93
3, 13512, Note_off_c, 1, 54, 0
3, 13632, Note_on_c, 1, 59, 93
3, 13704, Note_off_c, 1, 59, 0
3, 15264, Note_on_c, 1, 45, 93
3, 15360, Note_off_c, 1, 45, 0
3, 15360, End_track
4, 0, Start_track
4, 0, Title_t, "Track4"
4, 0, Program_c, 2, 42
4, 0, Control_c, 2, 7, 100
4, 0, Control_c, 2, 10, 49
4, 384, Note_on_c, 2, 50, 93
4, 480, Note_off_c, 2, 50, 0
4, 576, Note_on_c, 2, 52, 93
4, 672, Note_off_c, 2, 52, 0
4, 960, Note_on_c, 2, 52, 93
4, 984, Note_off_c, 2, 52, 0
4, 1152, Note_on_c, 2, 50, 93
4, 1200, Note_off_c, 2, 50, 0
4, 1728, Note_on_c, 2, 61, 93
4, 1752, Note_off_c, 2, 61, 0
4, 1920, Note_on_c, 2, 52, 93
4, 1944, Note_off_c, 2, 52, 0
4, 2112, Note_on_c, 2, 54, 93
4, 2136, Note_off_c, 2, 54, 0
4, 2304, Note_on_c, 2, 52, 93
4, 2328, Note_off_c, 2, 52, 0
4, 2496, Note_on_c, 2, 50, 93
4, 2520, Note_off_c, 2, 50, 0
4, 3456, Note_on_c, 2, 50, 93
4, 3552, Note_off_c, 2, 50, 0
4, 3648, Note_on_c, 2, 52, 93
4, 3744, Note_off_c, 2, 52, 0
4, 4032, Note_on_c, 2, 52, 93
4, 4056, Note_off_c, 2, 52, 0
4, 4224, Note_on_c, 2, 50, 93
4, 4272, Note_off_c, 2, 50, 0
4, 4800, Note_on_c, 2, 61, 93
4, 4824, Note_off_c, 2, 61, 0
4, 4992, Note_on_c, 2, 52, 93
4, 5016, Note_off_c, 2, 52, 0
4, 5184, Note_on_c, 2, 54, 93
4, 5208, Note_off_c, 2, 54, 0
4, 5376, Note_on_c, 2, 52, 93
4, 5400, Note_off_c, 2, 52, 0
4, 5568, Note_on_c, 2, 50, 93
4, 5592, Note_off_c, 2, 50, 0
4, 6528, Note_on_c, 2, 52, 93
4, 6576, Note_off_c, 2, 52, 0
4, 6720, Note_on_c, 2, 52, 93
4, 6792, Note_off_c, 2, 52, 0
4, 7488, Note_on_c, 2, 55, 93
4, 7560, Note_off_c, 2, 55, 0
4, 7968, Note_on_c, 2, 61, 93
4, 8004, Note_off_c, 2, 61, 0
4, 8064, Note_on_c, 2, 47, 93
4, 8100, Note_off_c, 2, 47, 0
4, 8832, Note_on_c, 2, 47, 93
4, 8904, Note_off_c, 2, 47, 0
4, 9024, Note_on_c, 2, 52, 93
4, 9096, Note_off_c, 2, 52, 0
4, 11136, Note_on_c, 2, 52, 93
4, 11184, Note_off_c, 2, 52, 0
4, 11328, Note_on_c, 2, 52, 93
4, 11400, Note_off_c, 2, 52, 0
4, 12096, Note_on_c, 2, 55, 93
4, 12168, Note_off_c, 2, 55, 0
4, 12576, Note_on_c, 2, 61, 93
4, 12612, Note_off_c, 2, 61, 0
4, 12672, Note_on_c, 2, 47, 93
4, 12708, Note_off_c, 2, 47, 0
4, 13440, Note_on_c, 2, 47, 93
4, 13512, Note_off_c, 2, 47, 0
4, 13632, Note_on_c, 2, 52, 93
4, 13704, Note_off_c, 2, 52, 0
4, 13704, End_track
5, 0, Start_track
5, 0, Title_t, "Track5"
5, 0, Program_c, 3, 42
5, 0, Control_c, 3, 7, 100
5, 0, Control_c, 3, 10, 79
5, 6528, Note_on_c, 3, 45, 93
5, 6576, Note_off_c, 3, 45, 0
5, 6720, Note_on_c, 3, 43, 93
5, 6792, Note_off_c, 3, 43, 0
5, 11136, Note_on_c, 3, 45, 93
5, 11184, Note_off_c, 3, 45, 0
5, 11328, Note_on_c, 3, 43, 93
5, 11400, Note_off_c, 3, 43, 0
5, 11400, End_track
0, 0, End_of_file
