0, 0, Header, 1, 7, 96
1, 0, Start_track
1, 0, Time_signature, 4, 2, 24, 8
1, 0, Title_t, "untitled"
1, 0, Title_t, "Track1"
1, 0, Tempo, 300000
1, 2304, Tempo, 480000
1, 3804, Tempo, 491803
1, 3804, Tempo, 512820
1, 3804, Tempo, 517241
1, 3810, Tempo, 530973
1, 3810, Tempo, 550458
1, 3810, Tempo, 566037
1, 3810, Tempo, 576923
1, 3816, Tempo, 582524
1, 3816, Tempo, 594059
1, 3816, Tempo, 625000
1, 3816, Tempo, 645161
1, 3822, Tempo, 674157
1, 3822, Tempo, 1428571
1, 3828, Tempo, 1428571
1, 3828, Tempo, 1428571
1, 3828, Tempo, 1500000
1, 3828, Tempo, 1578947
1, 3834, Tempo, 1428571
1, 3840, Tempo, 666666
1, 3840, Tempo, 618556
1, 3840, Tempo, 1200000
1, 3846, Tempo, 618556
1, 3852, Tempo, 1500000
1, 3858, Tempo, 618556
1, 3870, Tempo, 625000
1, 3894, Tempo, 618556
1, 3894, Tempo, 600000
1, 3900, Tempo, 594059
1, 3900, Tempo, 588235
1, 3906, Tempo, 594059
1, 3906, Tempo, 618556
1, 3918, Tempo, 600000
1, 6144, Tempo, 491803
1, 9024, Tempo, 645161
1, 9888, Tempo, 645161
1, 9912, Tempo, 645161
1, 9918, Tempo, 666666
1, 9924, Tempo, 674157
1, 9930, Tempo, 674157
1, 9930, Tempo, 681818
1, 9936, Tempo, 689655
1, 9948, Tempo, 705882
1, 9954, Tempo, 731707
1, 9960, Tempo, 731707
1, 9972, Tempo, 750000
1, 9978, Tempo, 750000
1, 9990, Tempo, 779220
1, 9990, Tempo, 789473
1, 9996, Tempo, 800000
1, 10008, Tempo, 800000
1, 10020, Tempo, 800000
1, 10026, Tempo, 800000
1, 10038, Tempo, 800000
1, 10050, Tempo, 789473
1, 10050, Tempo, 779220
1, 10056, Tempo, 750000
1, 10062, Tempo, 750000
1, 10068, Tempo, 731707
1, 10074, Tempo, 731707
1, 10086, Tempo, 731707
1, 10098, Tempo, 705882
1, 10098, Tempo, 697674
1, 10104, Tempo, 689655
1, 10110, Tempo, 681818
1, 10116, Tempo, 674157
1, 10122, Tempo, 674157
1, 10122, Tempo, 666666
1, 10128, Tempo, 645161
1, 10134, Tempo, 645161
1, 10134, Tempo, 645161
1, 10146, Tempo, 625000
1, 10152, Tempo, 625000
1, 10170, Tempo, 625000
1, 11040, Tempo, 625000
1, 11046, Tempo, 625000
1, 11046, Tempo, 645161
1, 11052, Tempo, 645161
1, 11076, Tempo, 666666
1, 11082, Tempo, 674157
1, 11094, Tempo, 674157
1, 11106, Tempo, 674157
1, 11118, Tempo, 681818
1, 11118, Tempo, 689655
1, 11124, Tempo, 697674
1, 11130, Tempo, 705882
1, 11142, Tempo, 731707
1, 11154, Tempo, 731707
1, 11154, Tempo, 731707
1, 11166, Tempo, 750000
1, 11166, Tempo, 750000
1, 11178, Tempo, 779220
1, 11190, Tempo, 789473
1, 11208, Tempo, 779220
1, 11214, Tempo, 750000
1, 11220, Tempo, 750000
1, 11226, Tempo, 731707
1, 11244, Tempo, 731707
1, 11244, Tempo, 731707
1, 11250, Tempo, 705882
1, 11262, Tempo, 697674
1, 11286, Tempo, 689655
1, 11292, Tempo, 681818
1, 11292, Tempo, 674157
1, 11292, Tempo, 674157
1, 11292, Tempo, 666666
1, 11298, Tempo, 645161
1, 11304, Tempo, 645161
1, 11310, Tempo, 645161
1, 11310, Tempo, 625000
1, 11316, Tempo, 625000
1, 12192, Tempo, 625000
1, 12198, Tempo, 645161
1, 12198, Tempo, 645161
1, 12198, Tempo, 645161
1, 12204, Tempo, 666666
1, 12204, Tempo, 674157
1, 12210, Tempo, 674157
1, 12210, Tempo, 681818
1, 12216, Tempo, 689655
1, 12216, Tempo, 697674
1, 12216, Tempo, 705882
1, 12222, Tempo, 731707
1, 12228, Tempo, 731707
1, 12234, Tempo, 731707
1, 12246, Tempo, 750000
1, 12258, Tempo, 750000
1, 12264, Tempo, 779220
1, 12378, Tempo, 750000
1, 12384, Tempo, 750000
1, 12390, Tempo, 731707
1, 12402, Tempo, 731707
1, 12414, Tempo, 731707
1, 12432, Tempo, 705882
1, 12432, Tempo, 697674
1, 12438, Tempo, 689655
1, 12444, Tempo, 681818
1, 12450, Tempo, 674157
1, 12450, Tempo, 674157
1, 12456, Tempo, 674157
1, 12456, Tempo, 666666
1, 12462, Tempo, 645161
1, 12462, Tempo, 645161
1, 12462, Tempo, 645161
1, 12468, Tempo, 625000
1, 12474, Tempo, 625000
1, 12474, Tempo, 625000
1, 12474, Tempo, 618556
1, 13248, Tempo, 625000
1, 13266, Tempo, 681818
1, 13266, Tempo, 697674
1, 13266, Tempo, 705882
1, 13272, Tempo, 731707
1, 13272, Tempo, 731707
1, 13278, Tempo, 731707
1, 13278, Tempo, 750000
1, 13284, Tempo, 750000
1, 13284, Tempo, 779220
1, 13290, Tempo, 789473
1, 13290, Tempo, 800000
1, 13296, Tempo, 800000
1, 13302, Tempo, 800000
1, 13302, Tempo, 833333
1, 13308, Tempo, 833333
1, 13314, Tempo, 833333
1, 13326, Tempo, 845070
1, 13332, Tempo, 869565
1, 13338, Tempo, 869565
1, 13350, Tempo, 895522
1, 13356, Tempo, 895522
1, 13356, Tempo, 937500
1, 13362, Tempo, 937500
1, 13374, Tempo, 983606
1, 13380, Tempo, 1000000
1, 13386, Tempo, 1000000
1, 13386, Tempo, 1000000
1, 13404, Tempo, 1016949
1, 13404, Tempo, 1071428
1, 13416, Tempo, 1090909
1, 13428, Tempo, 1090909
1, 13434, Tempo, 1111111
1, 13440, Tempo, 1132075
1, 13446, Tempo, 1153846
1, 13476, Tempo, 1200000
1, 13512, Tempo, 1200000
1, 13626, Tempo, 500000
1, 13626, Tempo, 500000
1, 13626, Tempo, 491803
1, 13632, Tempo, 491803
1, 13638, Tempo, 491803
1, 13680, Tempo, 491803
1, 13698, Tempo, 491803
1, 13704, Tempo, 500000
1, 13710, Tempo, 491803
1, 14976, Tempo, 300000
1, 21786, Tempo, 303030
1, 21792, Tempo, 306122
1, 21792, Tempo, 306122
1, 21792, Tempo, 307692
1, 21798, Tempo, 309278
1, 21798, Tempo, 312500
1, 21804, Tempo, 314136
1, 21804, Tempo, 315789
1, 21804, Tempo, 317460
1, 21804, Tempo, 322580
1, 21810, Tempo, 324324
1, 21810, Tempo, 324324
1, 21816, Tempo, 324324
1, 21816, Tempo, 329670
1, 21822, Tempo, 329670
1, 21822, Tempo, 329670
1, 21822, Tempo, 333333
1, 21828, Tempo, 333333
1, 21834, Tempo, 338983
1, 21840, Tempo, 338983
1, 21846, Tempo, 340909
1, 21846, Tempo, 342857
1, 21846, Tempo, 348837
1, 21852, Tempo, 348837
1, 21858, Tempo, 348837
1, 21864, Tempo, 350877
1, 21864, Tempo, 352941
1, 21870, Tempo, 359281
1, 21876, Tempo, 359281
1, 21882, Tempo, 359281
1, 21882, Tempo, 363636
1, 21888, Tempo, 363636
1, 21900, Tempo, 368098
1, 21906, Tempo, 368098
1, 21906, Tempo, 370370
1, 21906, Tempo, 375000
1, 21912, Tempo, 375000
1, 21918, Tempo, 377358
1, 21930, Tempo, 384615
1, 21936, Tempo, 384615
1, 21942, Tempo, 384615
1, 21948, Tempo, 389610
1, 21954, Tempo, 397350
1, 21960, Tempo, 400000
1, 21966, Tempo, 400000
1, 21972, Tempo, 405405
1, 21972, Tempo, 405405
1, 21972, Tempo, 413793
1, 21978, Tempo, 413793
1, 21978, Tempo, 419580
1, 21984, Tempo, 422535
1, 21990, Tempo, 428571
1, 21990, Tempo, 428571
1, 21990, Tempo, 437956
1, 21996, Tempo, 437956
1, 21996, Tempo, 444444
1, 21996, Tempo, 447761
1, 22002, Tempo, 454545
1, 22008, Tempo, 454545
1, 22008, Tempo, 458015
1, 22014, Tempo, 461538
1, 22014, Tempo, 465116
1, 22026, Tempo, 468750
1, 22026, End_track
2, 0, Start_track
2, 0, Title_t, "Track2"
2, 0, Control_c, 0, 0, 0
2, 0, Control_c, 0, 32, 0
2, 0, Program_c, 0, 40
2, 0, Control_c, 0, 7, 122
2, 0, Control_c, 0, 10, 42
2, 144, Note_on_c, 0, 64, 93
2, 174, Note_off_c, 0, 64, 0
2, 192, Note_on_c, 0, 66, 93
2, 222, Note_off_c, 0, 66, 0
2, 240, Note_on_c, 0, 68, 93
2, 270, Note_off_c, 0, 68, 0
2, 288, Note_on_c, 0, 69, 93
2, 336, Note_off_c, 0, 69, 0
2, 336, Note_on_c, 0, 68, 93
2, 384, Note_off_c, 0, 68, 0
2, 384, Note_on_c, 0, 69, 93
2, 414, Note_off_c, 0, 69, 0
2, 432, Note_on_c, 0, 64, 93
2, 462, Note_off_c, 0, 64, 0
2, 480, Note_on_c, 0, 66, 93
2, 510, Note_off_c, 0, 66, 0
2, 528, Note_on_c, 0, 68, 93
2, 558, Note_off_c, 0, 68, 0
2, 576, Note_on_c, 0, 69, 93
2, 624, Note_off_c, 0, 69, 0
2, 624, Note_on_c, 0, 68, 93
2, 672, Note_off_c, 0, 68, 0
2, 672, Note_on_c, 0, 69, 93
2, 702, Note_off_c, 0, 69, 0
2, 720, Note_on_c, 0, 64, 93
2, 750, Note_off_c, 0, 64, 0
2, 768, Note_on_c, 0, 66, 93
2, 798, Note_off_c, 0, 66, 0
2, 816, Note_on_c, 0, 68, 93
2, 846, Note_off_c, 0, 68, 0
2, 864, Note_on_c, 0, 69, 93
2, 912, Note_off_c, 0, 69, 0
2, 912, Note_on_c, 0, 68, 93
2, 960, Note_off_c, 0, 68, 0
2, 960, Note_on_c, 0, 69, 93
2, 1008, Note_off_c, 0, 69, 0
2, 1008, Note_on_c, 0, 71, 93
2, 1056, Note_off_c, 0, 71, 0
2, 1056, Note_on_c, 0, 73, 93
2, 1104, Note_off_c, 0, 73, 0
2, 1104, Note_on_c, 0, 74, 93
2, 1152, Note_off_c, 0, 74, 0
2, 1152, Note_on_c, 0, 76, 93
2, 1248, Note_off_c, 0, 76, 0
2, 1296, Note_on_c, 0, 64, 76
2, 1326, Note_off_c, 0, 64, 0
2, 1344, Note_on_c, 0, 66, 76
2, 1374, Note_off_c, 0, 66, 0
2, 1392, Note_on_c, 0, 68, 67
2, 1422, Note_off_c, 0, 68, 0
2, 1440, Note_on_c, 0, 69, 67
2, 1488, Note_off_c, 0, 69, 0
2, 1488, Note_on_c, 0, 68, 67
2, 1536, Note_off_c, 0, 68, 0
2, 1536, Note_on_c, 0, 69, 67
2, 1566, Note_off_c, 0, 69, 0
2, 1584, Note_on_c, 0, 64, 67
2, 1614, Note_off_c, 0, 64, 0
2, 1632, Note_on_c, 0, 66, 67
2, 1662, Note_off_c, 0, 66, 0
2, 1680, Note_on_c, 0, 68, 67
2, 1710, Note_off_c, 0, 68, 0
2, 1728, Note_on_c, 0, 69, 67
2, 1776, Note_off_c, 0, 69, 0
2, 1776, Note_on_c, 0, 68, 67
2, 1824, Note_off_c, 0, 68, 0
2, 1824, Note_on_c, 0, 69, 67
2, 1854, Note_off_c, 0, 69, 0
2, 1872, Note_on_c, 0, 64, 67
2, 1902, Note_off_c, 0, 64, 0
2, 1920, Note_on_c, 0, 66, 67
2, 1950, Note_off_c, 0, 66, 0
2, 1968, Note_on_c, 0, 68, 67
2, 1998, Note_off_c, 0, 68, 0
2, 2016, Note_on_c, 0, 69, 67
2, 2064, Note_off_c, 0, 69, 0
2, 2064, Note_on_c, 0, 68, 67
2, 2112, Note_off_c, 0, 68, 0
2, 2112, Note_on_c, 0, 69, 67
2, 2160, Note_off_c, 0, 69, 0
2, 2160, Note_on_c, 0, 71, 67
2, 2208, Note_off_c, 0, 71, 0
2, 2208, Note_on_c, 0, 73, 67
2, 2256, Note_off_c, 0, 73, 0
2, 2256, Note_on_c, 0, 74, 67
2, 2304, Note_off_c, 0, 74, 0
2, 2304, Note_on_c, 0, 76, 93
2, 2352, Note_off_c, 0, 76, 0
2, 2352, Note_on_c, 0, 73, 93
2, 2382, Note_off_c, 0, 73, 0
2, 2400, Note_on_c, 0, 73, 93
2, 2448, Note_off_c, 0, 73, 0
2, 2448, Note_on_c, 0, 69, 93
2, 2478, Note_off_c, 0, 69, 0
2, 2496, Note_on_c, 0, 76, 93
2, 2544, Note_off_c, 0, 76, 0
2, 2544, Note_on_c, 0, 74, 93
2, 2574, Note_off_c, 0, 74, 0
2, 2592, Note_on_c, 0, 73, 93
2, 2658, Note_off_c, 0, 73, 0
2, 2688, Note_on_c, 0, 73, 93
2, 2718, Note_off_c, 0, 73, 0
2, 2736, Note_on_c, 0, 71, 93
2, 2754, Note_off_c, 0, 71, 0
2, 2760, Note_on_c, 0, 73, 93
2, 2778, Note_off_c, 0, 73, 0
2, 2784, Note_on_c, 0, 74, 93
2, 2814, Note_off_c, 0, 74, 0
2, 2832, Note_on_c, 0, 73, 93
2, 2862, Note_off_c, 0, 73, 0
2, 2880, Note_on_c, 0, 71, 93
2, 2976, Note_off_c, 0, 71, 0
2, 2976, Note_on_c, 0, 69, 93
2, 3042, Note_off_c, 0, 69, 0
2, 3072, Note_on_c, 0, 73, 93
2, 3102, Note_off_c, 0, 73, 0
2, 3120, Note_on_c, 0, 73, 93
2, 3138, Note_off_c, 0, 73, 0
2, 3144, Note_on_c, 0, 73, 93
2, 3162, Note_off_c, 0, 73, 0
2, 3168, Note_on_c, 0, 73, 93
2, 3216, Note_off_c, 0, 73, 0
2, 3216, Note_on_c, 0, 69, 93
2, 3246, Note_off_c, 0, 69, 0
2, 3264, Note_on_c, 0, 76, 93
2, 3312, Note_off_c, 0, 76, 0
2, 3312, Note_on_c, 0, 74, 93
2, 3342, Note_off_c, 0, 74, 0
2, 3360, Note_on_c, 0, 73, 93
2, 3426, Note_off_c, 0, 73, 0
2, 3456, Note_on_c, 0, 73, 93
2, 3486, Note_off_c, 0, 73, 0
2, 3504, Note_on_c, 0, 71, 93
2, 3522, Note_off_c, 0, 71, 0
2, 3528, Note_on_c, 0, 73, 93
2, 3546, Note_off_c, 0, 73, 0
2, 3552, Note_on_c, 0, 74, 93
2, 3582, Note_off_c, 0, 74, 0
2, 3600, Note_on_c, 0, 73, 93
2, 3630, Note_off_c, 0, 73, 0
2, 3648, Note_on_c, 0, 71, 93
2, 3744, Note_off_c, 0, 71, 0
2, 3744, Note_on_c, 0, 69, 93
2, 3810, Note_off_c, 0, 69, 0
2, 3840, Note_on_c, 0, 73, 93
2, 3936, Note_off_c, 0, 73, 0
2, 3936, Note_on_c, 0, 74, 93
2, 3984, Note_off_c, 0, 74, 0
2, 3984, Note_on_c, 0, 76, 93
2, 4032, Note_off_c, 0, 76, 0
2, 4032, Note_on_c, 0, 73, 93
2, 4080, Note_off_c, 0, 73, 0
2, 4080, Note_on_c, 0, 74, 93
2, 4128, Note_off_c, 0, 74, 0
2, 4128, Note_on_c, 0, 76, 93
2, 4176, Note_off_c, 0, 76, 0
2, 4176, Note_on_c, 0, 69, 93
2, 4224, Note_off_c, 0, 69, 0
2, 4224, Note_on_c, 0, 78, 93
2, 4272, Note_off_c, 0, 78, 0
2, 4272, Note_on_c, 0, 76, 93
2, 4344, Note_off_c, 0, 76, 0
2, 4368, Note_on_c, 0, 69, 93
2, 4392, Note_off_c, 0, 69, 0
2, 4392, Note_on_c, 0, 71, 93
2, 4416, Note_off_c, 0, 71, 0
2, 4416, Note_on_c, 0, 73, 67
2, 4512, Note_off_c, 0, 73, 0
2, 4512, Note_on_c, 0, 74, 67
2, 4560, Note_off_c, 0, 74, 0
2, 4560, Note_on_c, 0, 76, 67
2, 4608, Note_off_c, 0, 76, 0
2, 4608, Note_on_c, 0, 73, 67
2, 4656, Note_off_c, 0, 73, 0
2, 4656, Note_on_c, 0, 74, 67
2, 4704, Note_off_c, 0, 74, 0
2, 4704, Note_on_c, 0, 76, 67
2, 4752, Note_off_c, 0, 76, 0
2, 4752, Note_on_c, 0, 69, 67
2, 4800, Note_off_c, 0, 69, 0
2, 4800, Note_on_c, 0, 78, 67
2, 4848, Note_off_c, 0, 78, 0
2, 4848, Note_on_c, 0, 76, 67
2, 4920, Note_off_c, 0, 76, 0
2, 4944, Note_on_c, 0, 73, 93
2, 4968, Note_off_c, 0, 73, 0
2, 4968, Note_on_c, 0, 76, 93
2, 4992, Note_off_c, 0, 76, 0
2, 4992, Note_on_c, 0, 74, 93
2, 5088, Note_off_c, 0, 74, 0
2, 5088, Note_on_c, 0, 71, 93
2, 5112, Note_off_c, 0, 71, 0
2, 5112, Note_on_c, 0, 74, 93
2, 5136, Note_off_c, 0, 74, 0
2, 5136, Note_on_c, 0, 73, 93
2, 5232, Note_off_c, 0, 73, 0
2, 5232, Note_on_c, 0, 69, 93
2, 5256, Note_off_c, 0, 69, 0
2, 5256, Note_on_c, 0, 73, 93
2, 5280, Note_off_c, 0, 73, 0
2, 5280, Note_on_c, 0, 71, 93
2, 5328, Note_off_c, 0, 71, 0
2, 5328, Note_on_c, 0, 69, 93
2, 5376, Note_off_c, 0, 69, 0
2, 5376, Note_on_c, 0, 68, 93
2, 5424, Note_off_c, 0, 68, 0
2, 5424, Note_on_c, 0, 69, 93
2, 5496, Note_off_c, 0, 69, 0
2, 5520, Note_on_c, 0, 73, 67
2, 5544, Note_off_c, 0, 73, 0
2, 5544, Note_on_c, 0, 76, 67
2, 5568, Note_off_c, 0, 76, 0
2, 5568, Note_on_c, 0, 74, 67
2, 5664, Note_off_c, 0, 74, 0
2, 5664, Note_on_c, 0, 71, 67
2, 5688, Note_off_c, 0, 71, 0
2, 5688, Note_on_c, 0, 74, 67
2, 5712, Note_off_c, 0, 74, 0
2, 5712, Note_on_c, 0, 73, 67
2, 5808, Note_off_c, 0, 73, 0
2, 5808, Note_on_c, 0, 69, 67
2, 5832, Note_off_c, 0, 69, 0
2, 5832, Note_on_c, 0, 73, 67
2, 5856, Note_off_c, 0, 73, 0
2, 5856, Note_on_c, 0, 71, 67
2, 5904, Note_off_c, 0, 71, 0
2, 5904, Note_on_c, 0, 69, 67
2, 5952, Note_off_c, 0, 69, 0
2, 5952, Note_on_c, 0, 68, 67
2, 6000, Note_off_c, 0, 68, 0
2, 6000, Note_on_c, 0, 69, 67
2, 6072, Note_off_c, 0, 69, 0
2, 6096, Note_on_c, 0, 80, 93
2, 6114, Note_off_c, 0, 80, 0
2, 6120, Note_on_c, 0, 81, 93
2, 6138, Note_off_c, 0, 81, 0
2, 6144, Note_on_c, 0, 83, 93
2, 6174, Note_off_c, 0, 83, 0
2, 6192, Note_on_c, 0, 80, 93
2, 6222, Note_off_c, 0, 80, 0
2, 6240, Note_on_c, 0, 76, 93
2, 6270, Note_off_c, 0, 76, 0
2, 6288, Note_on_c, 0, 78, 93
2, 6306, Note_off_c, 0, 78, 0
2, 6312, Note_on_c, 0, 75, 93
2, 6330, Note_off_c, 0, 75, 0
2, 6336, Note_on_c, 0, 76, 93
2, 6366, Note_off_c, 0, 76, 0
2, 6384, Note_on_c, 0, 71, 93
2, 6414, Note_off_c, 0, 71, 0
2, 6432, Note_on_c, 0, 64, 93
2, 6462, Note_off_c, 0, 64, 0
2, 6480, Note_on_c, 0, 80, 93
2, 6498, Note_off_c, 0, 80, 0
2, 6504, Note_on_c, 0, 81, 93
2, 6522, Note_off_c, 0, 81, 0
2, 6528, Note_on_c, 0, 83, 93
2, 6558, Note_off_c, 0, 83, 0
2, 6576, Note_on_c, 0, 80, 93
2, 6606, Note_off_c, 0, 80, 0
2, 6624, Note_on_c, 0, 76, 93
2, 6654, Note_off_c, 0, 76, 0
2, 6672, Note_on_c, 0, 78, 93
2, 6690, Note_off_c, 0, 78, 0
2, 6696, Note_on_c, 0, 75, 93
2, 6714, Note_off_c, 0, 75, 0
2, 6720, Note_on_c, 0, 76, 93
2, 6816, Note_off_c, 0, 76, 0
2, 6816, Note_on_c, 0, 64, 93
2, 6846, Note_off_c, 0, 64, 0
2, 6864, Note_on_c, 0, 80, 93
2, 6882, Note_off_c, 0, 80, 0
2, 6888, Note_on_c, 0, 81, 93
2, 6906, Note_off_c, 0, 81, 0
2, 6912, Note_on_c, 0, 83, 93
2, 6942, Note_off_c, 0, 83, 0
2, 6960, Note_on_c, 0, 80, 93
2, 6990, Note_off_c, 0, 80, 0
2, 7008, Note_on_c, 0, 76, 93
2, 7038, Note_off_c, 0, 76, 0
2, 7056, Note_on_c, 0, 78, 93
2, 7074, Note_off_c, 0, 78, 0
2, 7080, Note_on_c, 0, 75, 93
2, 7098, Note_off_c, 0, 75, 0
2, 7104, Note_on_c, 0, 76, 93
2, 7134, Note_off_c, 0, 76, 0
2, 7152, Note_on_c, 0, 71, 93
2, 7182, Note_off_c, 0, 71, 0
2, 7200, Note_on_c, 0, 64, 93
2, 7230, Note_off_c, 0, 64, 0
2, 7248, Note_on_c, 0, 80, 93
2, 7266, Note_off_c, 0, 80, 0
2, 7272, Note_on_c, 0, 81, 93
2, 7290, Note_off_c, 0, 81, 0
2, 7296, Note_on_c, 0, 83, 93
2, 7326, Note_off_c, 0, 83, 0
2, 7344, Note_on_c, 0, 80, 93
2, 7374, Note_off_c, 0, 80, 0
2, 7392, Note_on_c, 0, 76, 93
2, 7422, Note_off_c, 0, 76, 0
2, 7440, Note_on_c, 0, 78, 93
2, 7458, Note_off_c, 0, 78, 0
2, 7464, Note_on_c, 0, 75, 93
2, 7482, Note_off_c, 0, 75, 0
2, 7488, Note_on_c, 0, 76, 93
2, 7584, Note_off_c, 0, 76, 0
2, 7584, Note_on_c, 0, 64, 93
2, 7614, Note_off_c, 0, 64, 0
2, 7632, Note_on_c, 0, 71, 93
2, 7650, Note_off_c, 0, 71, 0
2, 7656, Note_on_c, 0, 73, 93
2, 7674, Note_off_c, 0, 73, 0
2, 7680, Note_on_c, 0, 74, 93
2, 7710, Note_off_c, 0, 74, 0
2, 7728, Note_on_c, 0, 71, 93
2, 7746, Note_off_c, 0, 71, 0
2, 7752, Note_on_c, 0, 69, 93
2, 7770, Note_off_c, 0, 69, 0
2, 7776, Note_on_c, 0, 71, 93
2, 7842, Note_off_c, 0, 71, 0
2, 7872, Note_on_c, 0, 83, 93
2, 7902, Note_off_c, 0, 83, 0
2, 7920, Note_on_c, 0, 71, 93
2, 7938, Note_off_c, 0, 71, 0
2, 7944, Note_on_c, 0, 69, 93
2, 7962, Note_off_c, 0, 69, 0
2, 7968, Note_on_c, 0, 71, 93
2, 7998, Note_off_c, 0, 71, 0
2, 8016, Note_on_c, 0, 74, 93
2, 8046, Note_off_c, 0, 74, 0
2, 8064, Note_on_c, 0, 73, 93
2, 8094, Note_off_c, 0, 73, 0
2, 8112, Note_on_c, 0, 71, 93
2, 8130, Note_off_c, 0, 71, 0
2, 8136, Note_on_c, 0, 69, 93
2, 8154, Note_off_c, 0, 69, 0
2, 8160, Note_on_c, 0, 71, 93
2, 8190, Note_off_c, 0, 71, 0
2, 8208, Note_on_c, 0, 68, 93
2, 8238, Note_off_c, 0, 68, 0
2, 8256, Note_on_c, 0, 69, 93
2, 8352, Note_off_c, 0, 69, 0
2, 8352, Note_on_c, 0, 57, 93
2, 8382, Note_off_c, 0, 57, 0
2, 8400, Note_on_c, 0, 68, 93
2, 8418, Note_off_c, 0, 68, 0
2, 8424, Note_on_c, 0, 69, 93
2, 8442, Note_off_c, 0, 69, 0
2, 8448, Note_on_c, 0, 71, 93
2, 8478, Note_off_c, 0, 71, 0
2, 8496, Note_on_c, 0, 71, 93
2, 8514, Note_off_c, 0, 71, 0
2, 8520, Note_on_c, 0, 69, 93
2, 8538, Note_off_c, 0, 69, 0
2, 8544, Note_on_c, 0, 71, 93
2, 8610, Note_off_c, 0, 71, 0
2, 8640, Note_on_c, 0, 74, 93
2, 8670, Note_off_c, 0, 74, 0
2, 8688, Note_on_c, 0, 71, 93
2, 8706, Note_off_c, 0, 71, 0
2, 8712, Note_on_c, 0, 69, 93
2, 8730, Note_off_c, 0, 69, 0
2, 8736, Note_on_c, 0, 71, 93
2, 8766, Note_off_c, 0, 71, 0
2, 8784, Note_on_c, 0, 76, 93
2, 8814, Note_off_c, 0, 76, 0
2, 8832, Note_on_c, 0, 73, 93
2, 8862, Note_off_c, 0, 73, 0
2, 8880, Note_on_c, 0, 71, 93
2, 8898, Note_off_c, 0, 71, 0
2, 8904, Note_on_c, 0, 69, 93
2, 8922, Note_off_c, 0, 69, 0
2, 8928, Note_on_c, 0, 71, 93
2, 8958, Note_off_c, 0, 71, 0
2, 8976, Note_on_c, 0, 68, 93
2, 9006, Note_off_c, 0, 68, 0
2, 9024, Note_on_c, 0, 69, 93
2, 9054, Note_off_c, 0, 69, 0
2, 9072, Note_on_c, 0, 69, 93
2, 9096, Note_off_c, 0, 69, 0
2, 9096, Note_on_c, 0, 71, 93
2, 9120, Note_off_c, 0, 71, 0
2, 9120, Note_on_c, 0, 72, 93
2, 9168, Note_off_c, 0, 72, 0
2, 9168, Note_on_c, 0, 71, 93
2, 9216, Note_off_c, 0, 71, 0
2, 9216, Note_on_c, 0, 69, 93
2, 9264, Note_off_c, 0, 69, 0
2, 9264, Note_on_c, 0, 67, 93
2, 9312, Note_off_c, 0, 67, 0
2, 9312, Note_on_c, 0, 65, 93
2, 9360, Note_off_c, 0, 65, 0
2, 9360, Note_on_c, 0, 64, 93
2, 9390, Note_off_c, 0, 64, 0
2, 9408, Note_on_c, 0, 64, 93
2, 9558, Note_off_c, 0, 64, 0
2, 9600, Note_on_c, 0, 62, 93
2, 9648, Note_off_c, 0, 62, 0
2, 9648, Note_on_c, 0, 64, 93
2, 9696, Note_off_c, 0, 64, 0
2, 9696, Note_on_c, 0, 65, 93
2, 9744, Note_off_c, 0, 65, 0
2, 9744, Note_on_c, 0, 64, 93
2, 9792, Note_off_c, 0, 64, 0
2, 9792, Note_on_c, 0, 62, 93
2, 9840, Note_off_c, 0, 62, 0
2, 9840, Note_on_c, 0, 60, 93
2, 9888, Note_off_c, 0, 60, 0
2, 9888, Note_on_c, 0, 59, 93
2, 9936, Note_off_c, 0, 59, 0
2, 9936, Note_on_c, 0, 57, 93
2, 9966, Note_off_c, 0, 57, 0
2, 9984, Note_on_c, 0, 57, 93
2, 10110, Note_off_c, 0, 57, 0
2, 10176, Note_on_c, 0, 69, 67
2, 10224, Note_off_c, 0, 69, 0
2, 10224, Note_on_c, 0, 71, 67
2, 10272, Note_off_c, 0, 71, 0
2, 10272, Note_on_c, 0, 72, 67
2, 10320, Note_off_c, 0, 72, 0
2, 10320, Note_on_c, 0, 71, 67
2, 10368, Note_off_c, 0, 71, 0
2, 10368, Note_on_c, 0, 69, 67
2, 10416, Note_off_c, 0, 69, 0
2, 10416, Note_on_c, 0, 67, 67
2, 10464, Note_off_c, 0, 67, 0
2, 10464, Note_on_c, 0, 65, 67
2, 10512, Note_off_c, 0, 65, 0
2, 10512, Note_on_c, 0, 64, 67
2, 10542, Note_off_c, 0, 64, 0
2, 10560, Note_on_c, 0, 64, 67
2, 10710, Note_off_c, 0, 64, 0
2, 10752, Note_on_c, 0, 62, 67
2, 10800, Note_off_c, 0, 62, 0
2, 10800, Note_on_c, 0, 64, 67
2, 10848, Note_off_c, 0, 64, 0
2, 10848, Note_on_c, 0, 65, 67
2, 10896, Note_off_c, 0, 65, 0
2, 10896, Note_on_c, 0, 64, 67
2, 10944, Note_off_c, 0, 64, 0
2, 10944, Note_on_c, 0, 62, 67
2, 10992, Note_off_c, 0, 62, 0
2, 10992, Note_on_c, 0, 60, 67
2, 11040, Note_off_c, 0, 60, 0
2, 11040, Note_on_c, 0, 59, 67
2, 11088, Note_off_c, 0, 59, 0
2, 11088, Note_on_c, 0, 57, 67
2, 11118, Note_off_c, 0, 57, 0
2, 11136, Note_on_c, 0, 57, 67
2, 11262, Note_off_c, 0, 57, 0
2, 11328, Note_on_c, 0, 65, 93
2, 11376, Note_off_c, 0, 65, 0
2, 11376, Note_on_c, 0, 64, 93
2, 11406, Note_off_c, 0, 64, 0
2, 11424, Note_on_c, 0, 64, 93
2, 11574, Note_off_c, 0, 64, 0
2, 11616, Note_on_c, 0, 58, 93
2, 11664, Note_off_c, 0, 58, 0
2, 11664, Note_on_c, 0, 57, 93
2, 11694, Note_off_c, 0, 57, 0
2, 11712, Note_on_c, 0, 57, 93
2, 11838, Note_off_c, 0, 57, 0
2, 11904, Note_on_c, 0, 62, 93
2, 11952, Note_off_c, 0, 62, 0
2, 11952, Note_on_c, 0, 64, 93
2, 12000, Note_off_c, 0, 64, 0
2, 12000, Note_on_c, 0, 65, 93
2, 12048, Note_off_c, 0, 65, 0
2, 12048, Note_on_c, 0, 64, 93
2, 12096, Note_off_c, 0, 64, 0
2, 12096, Note_on_c, 0, 62, 93
2, 12144, Note_off_c, 0, 62, 0
2, 12144, Note_on_c, 0, 60, 93
2, 12192, Note_off_c, 0, 60, 0
2, 12192, Note_on_c, 0, 59, 93
2, 12240, Note_off_c, 0, 59, 0
2, 12240, Note_on_c, 0, 57, 93
2, 12270, Note_off_c, 0, 57, 0
2, 12288, Note_on_c, 0, 57, 93
2, 12414, Note_off_c, 0, 57, 0
2, 12480, Note_on_c, 0, 65, 67
2, 12528, Note_off_c, 0, 65, 0
2, 12528, Note_on_c, 0, 64, 67
2, 12558, Note_off_c, 0, 64, 0
2, 12576, Note_on_c, 0, 64, 67
2, 12726, Note_off_c, 0, 64, 0
2, 12768, Note_on_c, 0, 58, 67
2, 12816, Note_off_c, 0, 58, 0
2, 12816, Note_on_c, 0, 57, 67
2, 12846, Note_off_c, 0, 57, 0
2, 12864, Note_on_c, 0, 57, 67
2, 12990, Note_off_c, 0, 57, 0
2, 13056, Note_on_c, 0, 62, 67
2, 13104, Note_off_c, 0, 62, 0
2, 13104, Note_on_c, 0, 64, 67
2, 13152, Note_off_c, 0, 64, 0
2, 13152, Note_on_c, 0, 65, 67
2, 13200, Note_off_c, 0, 65, 0
2, 13200, Note_on_c, 0, 64, 67
2, 13248, Note_off_c, 0, 64, 0
2, 13248, Note_on_c, 0, 62, 67
2, 13296, Note_off_c, 0, 62, 0
2, 13296, Note_on_c, 0, 60, 67
2, 13344, Note_off_c, 0, 60, 0
2, 13344, Note_on_c, 0, 59, 67
2, 13392, Note_off_c, 0, 59, 0
2, 13392, Note_on_c, 0, 57, 67
2, 13422, Note_off_c, 0, 57, 0
2, 13440, Note_on_c, 0, 57, 67
2, 13566, Note_off_c, 0, 57, 0
2, 13632, Note_on_c, 0, 69, 93
2, 13656, Note_off_c, 0, 69, 0
2, 13656, Note_on_c, 0, 76, 93
2, 13680, Note_off_c, 0, 76, 0
2, 13680, Note_on_c, 0, 74, 93
2, 13704, Note_off_c, 0, 74, 0
2, 13704, Note_on_c, 0, 76, 93
2, 13728, Note_off_c, 0, 76, 0
2, 13728, Note_on_c, 0, 77, 93
2, 13758, Note_off_c, 0, 77, 0
2, 13776, Note_on_c, 0, 76, 93
2, 13806, Note_off_c, 0, 76, 0
2, 13824, Note_on_c, 0, 74, 93
2, 13854, Note_off_c, 0, 74, 0
2, 13872, Note_on_c, 0, 71, 93
2, 13902, Note_off_c, 0, 71, 0
2, 13920, Note_on_c, 0, 72, 93
2, 13986, Note_off_c, 0, 72, 0
2, 14016, Note_on_c, 0, 70, 93
2, 14064, Note_off_c, 0, 70, 0
2, 14064, Note_on_c, 0, 69, 93
2, 14094, Note_off_c, 0, 69, 0
2, 14112, Note_on_c, 0, 69, 93
2, 14160, Note_off_c, 0, 69, 0
2, 14160, Note_on_c, 0, 68, 93
2, 14190, Note_off_c, 0, 68, 0
2, 14208, Note_on_c, 0, 69, 93
2, 14232, Note_off_c, 0, 69, 0
2, 14232, Note_on_c, 0, 68, 93
2, 14256, Note_off_c, 0, 68, 0
2, 14256, Note_on_c, 0, 69, 93
2, 14280, Note_off_c, 0, 69, 0
2, 14280, Note_on_c, 0, 71, 93
2, 14304, Note_off_c, 0, 71, 0
2, 14304, Note_on_c, 0, 69, 93
2, 14328, Note_off_c, 0, 69, 0
2, 14328, Note_on_c, 0, 71, 93
2, 14352, Note_off_c, 0, 71, 0
2, 14352, Note_on_c, 0, 72, 93
2, 14376, Note_off_c, 0, 72, 0
2, 14376, Note_on_c, 0, 74, 93
2, 14400, Note_off_c, 0, 74, 0
2, 14400, Note_on_c, 0, 76, 93
2, 14430, Note_off_c, 0, 76, 0
2, 14448, Note_on_c, 0, 74, 93
2, 14472, Note_off_c, 0, 74, 0
2, 14472, Note_on_c, 0, 76, 93
2, 14496, Note_off_c, 0, 76, 0
2, 14496, Note_on_c, 0, 77, 93
2, 14526, Note_off_c, 0, 77, 0
2, 14544, Note_on_c, 0, 76, 93
2, 14574, Note_off_c, 0, 76, 0
2, 14592, Note_on_c, 0, 74, 93
2, 14622, Note_off_c, 0, 74, 0
2, 14640, Note_on_c, 0, 71, 93
2, 14670, Note_off_c, 0, 71, 0
2, 14688, Note_on_c, 0, 72, 93
2, 14754, Note_off_c, 0, 72, 0
2, 14784, Note_on_c, 0, 70, 93
2, 14832, Note_off_c, 0, 70, 0
2, 14832, Note_on_c, 0, 69, 93
2, 14862, Note_off_c, 0, 69, 0
2, 14880, Note_on_c, 0, 69, 93
2, 14928, Note_off_c, 0, 69, 0
2, 14928, Note_on_c, 0, 68, 93
2, 14958, Note_off_c, 0, 68, 0
2, 14976, Note_on_c, 0, 69, 93
2, 15024, Note_off_c, 0, 69, 0
2, 15024, Note_on_c, 0, 68, 93
2, 15072, Note_off_c, 0, 68, 0
2, 15072, Note_on_c, 0, 69, 93
2, 15102, Note_off_c, 0, 69, 0
2, 15120, Note_on_c, 0, 64, 93
2, 15150, Note_off_c, 0, 64, 0
2, 15168, Note_on_c, 0, 66, 93
2, 15198, Note_off_c, 0, 66, 0
2, 15216, Note_on_c, 0, 68, 93
2, 15246, Note_off_c, 0, 68, 0
2, 15264, Note_on_c, 0, 69, 93
2, 15312, Note_off_c, 0, 69, 0
2, 15312, Note_on_c, 0, 68, 93
2, 15360, Note_off_c, 0, 68, 0
2, 15360, Note_on_c, 0, 69, 93
2, 15390, Note_off_c, 0, 69, 0
2, 15408, Note_on_c, 0, 64, 93
2, 15438, Note_off_c, 0, 64, 0
2, 15456, Note_on_c, 0, 66, 93
2, 15486, Note_off_c, 0, 66, 0
2, 15504, Note_on_c, 0, 68, 93
2, 15534, Note_off_c, 0, 68, 0
2, 15552, Note_on_c, 0, 69, 93
2, 15600, Note_off_c, 0, 69, 0
2, 15600, Note_on_c, 0, 68, 93
2, 15648, Note_off_c, 0, 68, 0
2, 15648, Note_on_c, 0, 69, 93
2, 15696, Note_off_c, 0, 69, 0
2, 15696, Note_on_c, 0, 71, 93
2, 15744, Note_off_c, 0, 71, 0
2, 15744, Note_on_c, 0, 73, 93
2, 15792, Note_off_c, 0, 73, 0
2, 15792, Note_on_c, 0, 74, 93
2, 15840, Note_off_c, 0, 74, 0
2, 15840, Note_on_c, 0, 76, 93
2, 15936, Note_off_c, 0, 76, 0
2, 15984, Note_on_c, 0, 64, 76
2, 16014, Note_off_c, 0, 64, 0
2, 16032, Note_on_c, 0, 66, 76
2, 16062, Note_off_c, 0, 66, 0
2, 16080, Note_on_c, 0, 68, 67
2, 16110, Note_off_c, 0, 68, 0
2, 16128, Note_on_c, 0, 69, 67
2, 16176, Note_off_c, 0, 69, 0
2, 16176, Note_on_c, 0, 68, 67
2, 16224, Note_off_c, 0, 68, 0
2, 16224, Note_on_c, 0, 69, 67
2, 16254, Note_off_c, 0, 69, 0
2, 16272, Note_on_c, 0, 64, 67
2, 16302, Note_off_c, 0, 64, 0
2, 16320, Note_on_c, 0, 66, 67
2, 16350, Note_off_c, 0, 66, 0
2, 16368, Note_on_c, 0, 68, 67
2, 16398, Note_off_c, 0, 68, 0
2, 16416, Note_on_c, 0, 69, 67
2, 16464, Note_off_c, 0, 69, 0
2, 16464, Note_on_c, 0, 68, 67
2, 16512, Note_off_c, 0, 68, 0
2, 16512, Note_on_c, 0, 69, 67
2, 16542, Note_off_c, 0, 69, 0
2, 16560, Note_on_c, 0, 64, 67
2, 16590, Note_off_c, 0, 64, 0
2, 16608, Note_on_c, 0, 66, 67
2, 16638, Note_off_c, 0, 66, 0
2, 16656, Note_on_c, 0, 68, 67
2, 16686, Note_off_c, 0, 68, 0
2, 16704, Note_on_c, 0, 69, 67
2, 16752, Note_off_c, 0, 69, 0
2, 16752, Note_on_c, 0, 68, 67
2, 16800, Note_off_c, 0, 68, 0
2, 16800, Note_on_c, 0, 69, 67
2, 16848, Note_off_c, 0, 69, 0
2, 16848, Note_on_c, 0, 71, 67
2, 16896, Note_off_c, 0, 71, 0
2, 16896, Note_on_c, 0, 73, 67
2, 16944, Note_off_c, 0, 73, 0
2, 16944, Note_on_c, 0, 74, 67
2, 16992, Note_off_c, 0, 74, 0
2, 16992, Note_on_c, 0, 76, 67
2, 17142, Note_off_c, 0, 76, 0
2, 17184, Note_on_c, 0, 78, 93
2, 17232, Note_off_c, 0, 78, 0
2, 17232, Note_on_c, 0, 76, 93
2, 17262, Note_off_c, 0, 76, 0
2, 17280, Note_on_c, 0, 76, 93
2, 17328, Note_off_c, 0, 76, 0
2, 17328, Note_on_c, 0, 74, 93
2, 17358, Note_off_c, 0, 74, 0
2, 17376, Note_on_c, 0, 62, 93
2, 17424, Note_off_c, 0, 62, 0
2, 17424, Note_on_c, 0, 61, 93
2, 17454, Note_off_c, 0, 61, 0
2, 17472, Note_on_c, 0, 62, 93
2, 17520, Note_off_c, 0, 62, 0
2, 17520, Note_on_c, 0, 61, 93
2, 17550, Note_off_c, 0, 61, 0
2, 17568, Note_on_c, 0, 62, 93
2, 17760, Note_off_c, 0, 62, 0
2, 17760, Note_on_c, 0, 76, 93
2, 17808, Note_off_c, 0, 76, 0
2, 17808, Note_on_c, 0, 74, 93
2, 17838, Note_off_c, 0, 74, 0
2, 17856, Note_on_c, 0, 74, 93
2, 17904, Note_off_c, 0, 74, 0
2, 17904, Note_on_c, 0, 73, 93
2, 17934, Note_off_c, 0, 73, 0
2, 17952, Note_on_c, 0, 61, 93
2, 18000, Note_off_c, 0, 61, 0
2, 18000, Note_on_c, 0, 59, 93
2, 18030, Note_off_c, 0, 59, 0
2, 18048, Note_on_c, 0, 61, 93
2, 18096, Note_off_c, 0, 61, 0
2, 18096, Note_on_c, 0, 59, 93
2, 18126, Note_off_c, 0, 59, 0
2, 18144, Note_on_c, 0, 61, 93
2, 18336, Note_off_c, 0, 61, 0
2, 18336, Note_on_c, 0, 69, 93
2, 18366, Note_off_c, 0, 69, 0
2, 18384, Note_on_c, 0, 73, 93
2, 18414, Note_off_c, 0, 73, 0
2, 18432, Note_on_c, 0, 71, 93
2, 18528, Note_off_c, 0, 71, 0
2, 18528, Note_on_c, 0, 69, 93
2, 18594, Note_off_c, 0, 69, 0
2, 18624, Note_on_c, 0, 61, 93
2, 18654, Note_off_c, 0, 61, 0
2, 18672, Note_on_c, 0, 64, 93
2, 18702, Note_off_c, 0, 64, 0
2, 18720, Note_on_c, 0, 62, 93
2, 18816, Note_off_c, 0, 62, 0
2, 18816, Note_on_c, 0, 61, 93
2, 18882, Note_off_c, 0, 61, 0
2, 18912, Note_on_c, 0, 81, 93
2, 18960, Note_off_c, 0, 81, 0
2, 18960, Note_on_c, 0, 80, 93
2, 19008, Note_off_c, 0, 80, 0
2, 19008, Note_on_c, 0, 78, 93
2, 19056, Note_off_c, 0, 78, 0
2, 19056, Note_on_c, 0, 76, 93
2, 19104, Note_off_c, 0, 76, 0
2, 19104, Note_on_c, 0, 74, 93
2, 19152, Note_off_c, 0, 74, 0
2, 19152, Note_on_c, 0, 73, 93
2, 19200, Note_off_c, 0, 73, 0
2, 19200, Note_on_c, 0, 71, 93
2, 19248, Note_off_c, 0, 71, 0
2, 19248, Note_on_c, 0, 76, 93
2, 19296, Note_off_c, 0, 76, 0
2, 19296, Note_on_c, 0, 69, 93
2, 19362, Note_off_c, 0, 69, 0
2, 19488, Note_on_c, 0, 66, 93
2, 19536, Note_off_c, 0, 66, 0
2, 19536, Note_on_c, 0, 64, 93
2, 19566, Note_off_c, 0, 64, 0
2, 19584, Note_on_c, 0, 64, 93
2, 19632, Note_off_c, 0, 64, 0
2, 19632, Note_on_c, 0, 62, 93
2, 19662, Note_off_c, 0, 62, 0
2, 19680, Note_on_c, 0, 74, 93
2, 19728, Note_off_c, 0, 74, 0
2, 19728, Note_on_c, 0, 73, 93
2, 19758, Note_off_c, 0, 73, 0
2, 19776, Note_on_c, 0, 74, 93
2, 19824, Note_off_c, 0, 74, 0
2, 19824, Note_on_c, 0, 73, 93
2, 19854, Note_off_c, 0, 73, 0
2, 19872, Note_on_c, 0, 74, 93
2, 20016, Note_off_c, 0, 74, 0
2, 20064, Note_on_c, 0, 64, 93
2, 20112, Note_off_c, 0, 64, 0
2, 20112, Note_on_c, 0, 62, 93
2, 20142, Note_off_c, 0, 62, 0
2, 20160, Note_on_c, 0, 62, 93
2, 20208, Note_off_c, 0, 62, 0
2, 20208, Note_on_c, 0, 61, 93
2, 20238, Note_off_c, 0, 61, 0
2, 20256, Note_on_c, 0, 73, 93
2, 20304, Note_off_c, 0, 73, 0
2, 20304, Note_on_c, 0, 71, 93
2, 20334, Note_off_c, 0, 71, 0
2, 20352, Note_on_c, 0, 73, 93
2, 20400, Note_off_c, 0, 73, 0
2, 20400, Note_on_c, 0, 71, 93
2, 20430, Note_off_c, 0, 71, 0
2, 20448, Note_on_c, 0, 73, 93
2, 20592, Note_off_c, 0, 73, 0
2, 20640, Note_on_c, 0, 61, 93
2, 20670, Note_off_c, 0, 61, 0
2, 20688, Note_on_c, 0, 64, 93
2, 20718, Note_off_c, 0, 64, 0
2, 20736, Note_on_c, 0, 62, 93
2, 20832, Note_off_c, 0, 62, 0
2, 20832, Note_on_c, 0, 61, 93
2, 20898, Note_off_c, 0, 61, 0
2, 20928, Note_on_c, 0, 73, 93
2, 20958, Note_off_c, 0, 73, 0
2, 20976, Note_on_c, 0, 76, 93
2, 21006, Note_off_c, 0, 76, 0
2, 21024, Note_on_c, 0, 74, 93
2, 21120, Note_off_c, 0, 74, 0
2, 21120, Note_on_c, 0, 73, 93
2, 21186, Note_off_c, 0, 73, 0
2, 21216, Note_on_c, 0, 81, 93
2, 21264, Note_off_c, 0, 81, 0
2, 21264, Note_on_c, 0, 80, 93
2, 21312, Note_off_c, 0, 80, 0
2, 21312, Note_on_c, 0, 78, 93
2, 21360, Note_off_c, 0, 78, 0
2, 21360, Note_on_c, 0, 76, 93
2, 21408, Note_off_c, 0, 76, 0
2, 21408, Note_on_c, 0, 74, 93
2, 21456, Note_off_c, 0, 74, 0
2, 21456, Note_on_c, 0, 73, 93
2, 21504, Note_off_c, 0, 73, 0
2, 21504, Note_on_c, 0, 71, 93
2, 21552, Note_off_c, 0, 71, 0
2, 21552, Note_on_c, 0, 76, 93
2, 21600, Note_off_c, 0, 76, 0
2, 21600, Note_on_c, 0, 69, 93
2, 21726, Note_off_c, 0, 69, 0
2, 21792, Note_on_c, 0, 69, 93
2, 21822, Note_off_c, 0, 69, 0
2, 21840, Note_on_c, 0, 68, 93
2, 21870, Note_off_c, 0, 68, 0
2, 21888, Note_on_c, 0, 66, 93
2, 21918, Note_off_c, 0, 66, 0
2, 21936, Note_on_c, 0, 64, 93
2, 21966, Note_off_c, 0, 64, 0
2, 21984, Note_on_c, 0, 62, 93
2, 22014, Note_off_c, 0, 62, 0
2, 22032, Note_on_c, 0, 61, 93
2, 22062, Note_off_c, 0, 61, 0
2, 22080, Note_on_c, 0, 59, 93
2, 22110, Note_off_c, 0, 59, 0
2, 22128, Note_on_c, 0, 64, 93
2, 22158, Note_off_c, 0, 64, 0
2, 22176, Note_on_c, 0, 57, 93
2, 22560, Note_off_c, 0, 57, 0
2, 22560, End_track
3, 0, Start_track
3, 0, Title_t, "Track3"
3, 0, Control_c, 1, 0, 0
3, 0, Control_c, 1, 32, 0
3, 0, Program_c, 1, 41
3, 0, Control_c, 1, 7, 97
3, 0, Control_c, 1, 10, 91
3, 288, Note_on_c, 1, 61, 93
3, 354, Note_off_c, 1, 61, 0
3, 384, Note_on_c, 1, 61, 93
3, 450, Note_off_c, 1, 61, 0
3, 480, Note_on_c, 1, 62, 93
3, 546, Note_off_c, 1, 62, 0
3, 576, Note_on_c, 1, 61, 93
3, 642, Note_off_c, 1, 61, 0
3, 672, Note_on_c, 1, 61, 93
3, 738, Note_off_c, 1, 61, 0
3, 768, Note_on_c, 1, 59, 93
3, 834, Note_off_c, 1, 59, 0
3, 864, Note_on_c, 1, 61, 93
3, 912, Note_off_c, 1, 61, 0
3, 912, Note_on_c, 1, 62, 93
3, 960, Note_off_c, 1, 62, 0
3, 960, Note_on_c, 1, 61, 93
3, 1008, Note_off_c, 1, 61, 0
3, 1008, Note_on_c, 1, 59, 93
3, 1056, Note_off_c, 1, 59, 0
3, 1056, Note_on_c, 1, 57, 93
3, 1104, Note_off_c, 1, 57, 0
3, 1104, Note_on_c, 1, 59, 93
3, 1152, Note_off_c, 1, 59, 0
3, 1152, Note_on_c, 1, 61, 93
3, 1200, Note_off_c, 1, 61, 0
3, 1200, Note_on_c, 1, 62, 93
3, 1248, Note_off_c, 1, 62, 0
3, 1248, Note_on_c, 1, 64, 93
3, 1278, Note_off_c, 1, 64, 0
3, 1296, Note_on_c, 1, 62, 93
3, 1326, Note_off_c, 1, 62, 0
3, 1344, Note_on_c, 1, 61, 67
3, 1374, Note_off_c, 1, 61, 0
3, 1392, Note_on_c, 1, 59, 67
3, 1422, Note_off_c, 1, 59, 0
3, 1440, Note_on_c, 1, 61, 67
3, 1506, Note_off_c, 1, 61, 0
3, 1536, Note_on_c, 1, 61, 67
3, 1602, Note_off_c, 1, 61, 0
3, 1632, Note_on_c, 1, 62, 67
3, 1698, Note_off_c, 1, 62, 0
3, 1728, Note_on_c, 1, 61, 67
3, 1794, Note_off_c, 1, 61, 0
3, 1824, Note_on_c, 1, 61, 67
3, 1890, Note_off_c, 1, 61, 0
3, 1920, Note_on_c, 1, 59, 67
3, 1986, Note_off_c, 1, 59, 0
3, 2016, Note_on_c, 1, 61, 67
3, 2064, Note_off_c, 1, 61, 0
3, 2064, Note_on_c, 1, 62, 67
3, 2112, Note_off_c, 1, 62, 0
3, 2112, Note_on_c, 1, 61, 67
3, 2160, Note_off_c, 1, 61, 0
3, 2160, Note_on_c, 1, 59, 67
3, 2208, Note_off_c, 1, 59, 0
3, 2208, Note_on_c, 1, 57, 67
3, 2256, Note_off_c, 1, 57, 0
3, 2256, Note_on_c, 1, 59, 67
3, 2304, Note_off_c, 1, 59, 0
3, 2304, Note_on_c, 1, 61, 93
3, 2352, Note_off_c, 1, 61, 0
3, 2352, Note_on_c, 1, 64, 93
3, 2382, Note_off_c, 1, 64, 0
3, 2400, Note_on_c, 1, 61, 93
3, 2448, Note_off_c, 1, 61, 0
3, 2448, Note_on_c, 1, 57, 93
3, 2478, Note_off_c, 1, 57, 0
3, 2496, Note_on_c, 1, 64, 93
3, 2544, Note_off_c, 1, 64, 0
3, 2544, Note_on_c, 1, 62, 93
3, 2574, Note_off_c, 1, 62, 0
3, 2592, Note_on_c, 1, 61, 93
3, 2658, Note_off_c, 1, 61, 0
3, 2688, Note_on_c, 1, 61, 93
3, 2718, Note_off_c, 1, 61, 0
3, 2736, Note_on_c, 1, 59, 93
3, 2754, Note_off_c, 1, 59, 0
3, 2760, Note_on_c, 1, 61, 93
3, 2778, Note_off_c, 1, 61, 0
3, 2784, Note_on_c, 1, 62, 93
3, 2814, Note_off_c, 1, 62, 0
3, 2832, Note_on_c, 1, 61, 93
3, 2862, Note_off_c, 1, 61, 0
3, 2880, Note_on_c, 1, 59, 93
3, 2976, Note_off_c, 1, 59, 0
3, 2976, Note_on_c, 1, 57, 93
3, 3042, Note_off_c, 1, 57, 0
3, 3072, Note_on_c, 1, 61, 93
3, 3102, Note_off_c, 1, 61, 0
3, 3120, Note_on_c, 1, 61, 93
3, 3138, Note_off_c, 1, 61, 0
3, 3144, Note_on_c, 1, 61, 93
3, 3162, Note_off_c, 1, 61, 0
3, 3168, Note_on_c, 1, 61, 93
3, 3216, Note_off_c, 1, 61, 0
3, 3216, Note_on_c, 1, 57, 93
3, 3246, Note_off_c, 1, 57, 0
3, 3264, Note_on_c, 1, 64, 93
3, 3312, Note_off_c, 1, 64, 0
3, 3312, Note_on_c, 1, 62, 93
3, 3342, Note_off_c, 1, 62, 0
3, 3360, Note_on_c, 1, 61, 93
3, 3426, Note_off_c, 1, 61, 0
3, 3456, Note_on_c, 1, 61, 93
3, 3486, Note_off_c, 1, 61, 0
3, 3504, Note_on_c, 1, 59, 93
3, 3522, Note_off_c, 1, 59, 0
3, 3528, Note_on_c, 1, 61, 93
3, 3546, Note_off_c, 1, 61, 0
3, 3552, Note_on_c, 1, 62, 93
3, 3582, Note_off_c, 1, 62, 0
3, 3600, Note_on_c, 1, 61, 93
3, 3630, Note_off_c, 1, 61, 0
3, 3648, Note_on_c, 1, 59, 93
3, 3744, Note_off_c, 1, 59, 0
3, 3744, Note_on_c, 1, 57, 93
3, 3810, Note_off_c, 1, 57, 0
3, 3840, Note_on_c, 1, 69, 93
3, 4050, Note_off_c, 1, 69, 0
3, 4080, Note_on_c, 1, 69, 93
3, 4116, Note_off_c, 1, 69, 0
3, 4128, Note_on_c, 1, 69, 93
3, 4194, Note_off_c, 1, 69, 0
3, 4224, Note_on_c, 1, 69, 93
3, 4254, Note_off_c, 1, 69, 0
3, 4272, Note_on_c, 1, 69, 93
3, 4302, Note_off_c, 1, 69, 0
3, 4320, Note_on_c, 1, 64, 93
3, 4344, Note_off_c, 1, 64, 0
3, 4344, Note_on_c, 1, 62, 93
3, 4368, Note_off_c, 1, 62, 0
3, 4368, Note_on_c, 1, 61, 93
3, 4392, Note_off_c, 1, 61, 0
3, 4392, Note_on_c, 1, 59, 93
3, 4416, Note_off_c, 1, 59, 0
3, 4416, Note_on_c, 1, 57, 67
3, 4626, Note_off_c, 1, 57, 0
3, 4656, Note_on_c, 1, 57, 67
3, 4686, Note_off_c, 1, 57, 0
3, 4704, Note_on_c, 1, 57, 67
3, 4770, Note_off_c, 1, 57, 0
3, 4800, Note_on_c, 1, 57, 67
3, 4830, Note_off_c, 1, 57, 0
3, 4848, Note_on_c, 1, 57, 67
3, 4896, Note_off_c, 1, 57, 0
3, 4896, Note_on_c, 1, 61, 67
3, 4944, Note_off_c, 1, 61, 0
3, 4944, Note_on_c, 1, 64, 93
3, 4992, Note_off_c, 1, 64, 0
3, 4992, Note_on_c, 1, 56, 93
3, 5040, Note_off_c, 1, 56, 0
3, 5040, Note_on_c, 1, 59, 93
3, 5088, Note_off_c, 1, 59, 0
3, 5088, Note_on_c, 1, 64, 93
3, 5136, Note_off_c, 1, 64, 0
3, 5136, Note_on_c, 1, 57, 93
3, 5184, Note_off_c, 1, 57, 0
3, 5184, Note_on_c, 1, 61, 93
3, 5232, Note_off_c, 1, 61, 0
3, 5232, Note_on_c, 1, 64, 93
3, 5280, Note_off_c, 1, 64, 0
3, 5280, Note_on_c, 1, 66, 93
3, 5328, Note_off_c, 1, 66, 0
3, 5328, Note_on_c, 1, 64, 93
3, 5376, Note_off_c, 1, 64, 0
3, 5376, Note_on_c, 1, 62, 93
3, 5424, Note_off_c, 1, 62, 0
3, 5424, Note_on_c, 1, 61, 93
3, 5472, Note_off_c, 1, 61, 0
3, 5472, Note_on_c, 1, 59, 93
3, 5520, Note_off_c, 1, 59, 0
3, 5520, Note_on_c, 1, 57, 67
3, 5568, Note_off_c, 1, 57, 0
3, 5568, Note_on_c, 1, 56, 67
3, 5616, Note_off_c, 1, 56, 0
3, 5616, Note_on_c, 1, 59, 67
3, 5664, Note_off_c, 1, 59, 0
3, 5664, Note_on_c, 1, 64, 67
3, 5712, Note_off_c, 1, 64, 0
3, 5712, Note_on_c, 1, 57, 67
3, 5760, Note_off_c, 1, 57, 0
3, 5760, Note_on_c, 1, 61, 67
3, 5808, Note_off_c, 1, 61, 0
3, 5808, Note_on_c, 1, 64, 67
3, 5856, Note_off_c, 1, 64, 0
3, 5856, Note_on_c, 1, 66, 67
3, 5904, Note_off_c, 1, 66, 0
3, 5904, Note_on_c, 1, 64, 67
3, 5952, Note_off_c, 1, 64, 0
3, 5952, Note_on_c, 1, 62, 67
3, 6000, Note_off_c, 1, 62, 0
3, 6000, Note_on_c, 1, 61, 67
3, 6066, Note_off_c, 1, 61, 0
3, 6192, Note_on_c, 1, 64, 93
3, 6210, Note_off_c, 1, 64, 0
3, 6216, Note_on_c, 1, 66, 93
3, 6234, Note_off_c, 1, 66, 0
3, 6240, Note_on_c, 1, 68, 93
3, 6258, Note_off_c, 1, 68, 0
3, 6264, Note_on_c, 1, 69, 93
3, 6282, Note_off_c, 1, 69, 0
3, 6288, Note_on_c, 1, 66, 93
3, 6306, Note_off_c, 1, 66, 0
3, 6312, Note_on_c, 1, 69, 93
3, 6330, Note_off_c, 1, 69, 0
3, 6336, Note_on_c, 1, 68, 93
3, 6354, Note_off_c, 1, 68, 0
3, 6360, Note_on_c, 1, 69, 93
3, 6378, Note_off_c, 1, 69, 0
3, 6384, Note_on_c, 1, 71, 93
3, 6402, Note_off_c, 1, 71, 0
3, 6408, Note_on_c, 1, 69, 93
3, 6426, Note_off_c, 1, 69, 0
3, 6432, Note_on_c, 1, 68, 93
3, 6450, Note_off_c, 1, 68, 0
3, 6456, Note_on_c, 1, 66, 93
3, 6474, Note_off_c, 1, 66, 0
3, 6480, Note_on_c, 1, 64, 93
3, 6498, Note_off_c, 1, 64, 0
3, 6504, Note_on_c, 1, 66, 93
3, 6522, Note_off_c, 1, 66, 0
3, 6528, Note_on_c, 1, 68, 93
3, 6546, Note_off_c, 1, 68, 0
3, 6552, Note_on_c, 1, 66, 93
3, 6570, Note_off_c, 1, 66, 0
3, 6576, Note_on_c, 1, 64, 93
3, 6594, Note_off_c, 1, 64, 0
3, 6600, Note_on_c, 1, 66, 93
3, 6618, Note_off_c, 1, 66, 0
3, 6624, Note_on_c, 1, 68, 93
3, 6642, Note_off_c, 1, 68, 0
3, 6648, Note_on_c, 1, 69, 93
3, 6666, Note_off_c, 1, 69, 0
3, 6672, Note_on_c, 1, 66, 93
3, 6690, Note_off_c, 1, 66, 0
3, 6696, Note_on_c, 1, 69, 93
3, 6714, Note_off_c, 1, 69, 0
3, 6720, Note_on_c, 1, 68, 93
3, 6798, Note_off_c, 1, 68, 0
3, 6840, Note_on_c, 1, 66, 93
3, 6858, Note_off_c, 1, 66, 0
3, 6864, Note_on_c, 1, 64, 93
3, 6882, Note_off_c, 1, 64, 0
3, 6888, Note_on_c, 1, 66, 93
3, 6906, Note_off_c, 1, 66, 0
3, 6912, Note_on_c, 1, 68, 93
3, 6942, Note_off_c, 1, 68, 0
3, 6960, Note_on_c, 1, 71, 93
3, 6990, Note_off_c, 1, 71, 0
3, 7008, Note_on_c, 1, 68, 93
3, 7038, Note_off_c, 1, 68, 0
3, 7056, Note_on_c, 1, 69, 93
3, 7074, Note_off_c, 1, 69, 0
3, 7080, Note_on_c, 1, 66, 93
3, 7098, Note_off_c, 1, 66, 0
3, 7104, Note_on_c, 1, 68, 93
3, 7134, Note_off_c, 1, 68, 0
3, 7152, Note_on_c, 1, 69, 93
3, 7170, Note_off_c, 1, 69, 0
3, 7176, Note_on_c, 1, 66, 93
3, 7194, Note_off_c, 1, 66, 0
3, 7200, Note_on_c, 1, 68, 93
3, 7230, Note_off_c, 1, 68, 0
3, 7248, Note_on_c, 1, 71, 93
3, 7278, Note_off_c, 1, 71, 0
3, 7296, Note_on_c, 1, 68, 93
3, 7326, Note_off_c, 1, 68, 0
3, 7344, Note_on_c, 1, 71, 93
3, 7374, Note_off_c, 1, 71, 0
3, 7392, Note_on_c, 1, 68, 93
3, 7422, Note_off_c, 1, 68, 0
3, 7440, Note_on_c, 1, 69, 93
3, 7458, Note_off_c, 1, 69, 0
3, 7464, Note_on_c, 1, 66, 93
3, 7482, Note_off_c, 1, 66, 0
3, 7488, Note_on_c, 1, 68, 93
3, 7584, Note_off_c, 1, 68, 0
3, 7728, Note_on_c, 1, 68, 93
3, 7746, Note_off_c, 1, 68, 0
3, 7752, Note_on_c, 1, 66, 93
3, 7770, Note_off_c, 1, 66, 0
3, 7776, Note_on_c, 1, 68, 93
3, 7806, Note_off_c, 1, 68, 0
3, 7824, Note_on_c, 1, 59, 93
3, 7842, Note_off_c, 1, 59, 0
3, 7848, Note_on_c, 1, 61, 93
3, 7866, Note_off_c, 1, 61, 0
3, 7872, Note_on_c, 1, 62, 93
3, 7902, Note_off_c, 1, 62, 0
3, 7920, Note_on_c, 1, 56, 93
3, 7938, Note_off_c, 1, 56, 0
3, 7944, Note_on_c, 1, 54, 93
3, 7962, Note_off_c, 1, 54, 0
3, 7968, Note_on_c, 1, 56, 93
3, 7998, Note_off_c, 1, 56, 0
3, 8016, Note_on_c, 1, 52, 93
3, 8046, Note_off_c, 1, 52, 0
3, 8064, Note_on_c, 1, 64, 93
3, 8094, Note_off_c, 1, 64, 0
3, 8112, Note_on_c, 1, 62, 93
3, 8130, Note_off_c, 1, 62, 0
3, 8136, Note_on_c, 1, 61, 93
3, 8154, Note_off_c, 1, 61, 0
3, 8160, Note_on_c, 1, 62, 93
3, 8190, Note_off_c, 1, 62, 0
3, 8208, Note_on_c, 1, 59, 93
3, 8238, Note_off_c, 1, 59, 0
3, 8256, Note_on_c, 1, 61, 93
3, 8286, Note_off_c, 1, 61, 0
3, 8304, Note_on_c, 1, 62, 93
3, 8322, Note_off_c, 1, 62, 0
3, 8328, Note_on_c, 1, 59, 93
3, 8346, Note_off_c, 1, 59, 0
3, 8352, Note_on_c, 1, 61, 93
3, 8382, Note_off_c, 1, 61, 0
3, 8496, Note_on_c, 1, 68, 93
3, 8514, Note_off_c, 1, 68, 0
3, 8520, Note_on_c, 1, 66, 93
3, 8538, Note_off_c, 1, 66, 0
3, 8544, Note_on_c, 1, 68, 93
3, 8574, Note_off_c, 1, 68, 0
3, 8592, Note_on_c, 1, 71, 93
3, 8610, Note_off_c, 1, 71, 0
3, 8616, Note_on_c, 1, 69, 93
3, 8634, Note_off_c, 1, 69, 0
3, 8640, Note_on_c, 1, 71, 93
3, 8670, Note_off_c, 1, 71, 0
3, 8688, Note_on_c, 1, 74, 93
3, 8706, Note_off_c, 1, 74, 0
3, 8712, Note_on_c, 1, 73, 93
3, 8730, Note_off_c, 1, 73, 0
3, 8736, Note_on_c, 1, 74, 93
3, 8766, Note_off_c, 1, 74, 0
3, 8784, Note_on_c, 1, 68, 93
3, 8814, Note_off_c, 1, 68, 0
3, 8832, Note_on_c, 1, 64, 93
3, 8862, Note_off_c, 1, 64, 0
3, 8880, Note_on_c, 1, 62, 93
3, 8898, Note_off_c, 1, 62, 0
3, 8904, Note_on_c, 1, 61, 93
3, 8922, Note_off_c, 1, 61, 0
3, 8928, Note_on_c, 1, 62, 93
3, 8958, Note_off_c, 1, 62, 0
3, 8976, Note_on_c, 1, 59, 93
3, 9006, Note_off_c, 1, 59, 0
3, 9024, Note_on_c, 1, 57, 93
3, 9054, Note_off_c, 1, 57, 0
3, 9072, Note_on_c, 1, 69, 93
3, 9096, Note_off_c, 1, 69, 0
3, 9096, Note_on_c, 1, 71, 93
3, 9120, Note_off_c, 1, 71, 0
3, 9120, Note_on_c, 1, 72, 93
3, 9168, Note_off_c, 1, 72, 0
3, 9168, Note_on_c, 1, 71, 93
3, 9216, Note_off_c, 1, 71, 0
3, 9216, Note_on_c, 1, 69, 93
3, 9264, Note_off_c, 1, 69, 0
3, 9264, Note_on_c, 1, 67, 93
3, 9312, Note_off_c, 1, 67, 0
3, 9312, Note_on_c, 1, 65, 93
3, 9360, Note_off_c, 1, 65, 0
3, 9360, Note_on_c, 1, 64, 93
3, 9390, Note_off_c, 1, 64, 0
3, 9408, Note_on_c, 1, 64, 93
3, 9558, Note_off_c, 1, 64, 0
3, 9600, Note_on_c, 1, 62, 93
3, 9648, Note_off_c, 1, 62, 0
3, 9648, Note_on_c, 1, 64, 93
3, 9696, Note_off_c, 1, 64, 0
3, 9696, Note_on_c, 1, 65, 93
3, 9744, Note_off_c, 1, 65, 0
3, 9744, Note_on_c, 1, 64, 93
3, 9792, Note_off_c, 1, 64, 0
3, 9792, Note_on_c, 1, 62, 93
3, 9840, Note_off_c, 1, 62, 0
3, 9840, Note_on_c, 1, 60, 93
3, 9888, Note_off_c, 1, 60, 0
3, 9888, Note_on_c, 1, 59, 93
3, 9936, Note_off_c, 1, 59, 0
3, 9936, Note_on_c, 1, 57, 93
3, 9966, Note_off_c, 1, 57, 0
3, 9984, Note_on_c, 1, 57, 93
3, 10110, Note_off_c, 1, 57, 0
3, 10176, Note_on_c, 1, 57, 67
3, 10224, Note_off_c, 1, 57, 0
3, 10224, Note_on_c, 1, 59, 67
3, 10272, Note_off_c, 1, 59, 0
3, 10272, Note_on_c, 1, 60, 67
3, 10320, Note_off_c, 1, 60, 0
3, 10320, Note_on_c, 1, 59, 67
3, 10368, Note_off_c, 1, 59, 0
3, 10368, Note_on_c, 1, 57, 67
3, 10416, Note_off_c, 1, 57, 0
3, 10416, Note_on_c, 1, 55, 67
3, 10464, Note_off_c, 1, 55, 0
3, 10464, Note_on_c, 1, 65, 67
3, 10512, Note_off_c, 1, 65, 0
3, 10512, Note_on_c, 1, 64, 67
3, 10542, Note_off_c, 1, 64, 0
3, 10560, Note_on_c, 1, 64, 67
3, 10710, Note_off_c, 1, 64, 0
3, 10752, Note_on_c, 1, 62, 67
3, 10800, Note_off_c, 1, 62, 0
3, 10800, Note_on_c, 1, 64, 67
3, 10848, Note_off_c, 1, 64, 0
3, 10848, Note_on_c, 1, 65, 67
3, 10896, Note_off_c, 1, 65, 0
3, 10896, Note_on_c, 1, 64, 67
3, 10944, Note_off_c, 1, 64, 0
3, 10944, Note_on_c, 1, 62, 67
3, 10992, Note_off_c, 1, 62, 0
3, 10992, Note_on_c, 1, 60, 67
3, 11040, Note_off_c, 1, 60, 0
3, 11040, Note_on_c, 1, 59, 67
3, 11088, Note_off_c, 1, 59, 0
3, 11088, Note_on_c, 1, 57, 67
3, 11118, Note_off_c, 1, 57, 0
3, 11136, Note_on_c, 1, 57, 67
3, 11262, Note_off_c, 1, 57, 0
3, 11328, Note_on_c, 1, 65, 93
3, 11376, Note_off_c, 1, 65, 0
3, 11376, Note_on_c, 1, 64, 93
3, 11406, Note_off_c, 1, 64, 0
3, 11424, Note_on_c, 1, 64, 93
3, 11574, Note_off_c, 1, 64, 0
3, 11616, Note_on_c, 1, 58, 93
3, 11664, Note_off_c, 1, 58, 0
3, 11664, Note_on_c, 1, 57, 93
3, 11694, Note_off_c, 1, 57, 0
3, 11712, Note_on_c, 1, 57, 93
3, 11838, Note_off_c, 1, 57, 0
3, 11904, Note_on_c, 1, 62, 93
3, 11952, Note_off_c, 1, 62, 0
3, 11952, Note_on_c, 1, 64, 93
3, 12000, Note_off_c, 1, 64, 0
3, 12000, Note_on_c, 1, 65, 93
3, 12048, Note_off_c, 1, 65, 0
3, 12048, Note_on_c, 1, 64, 93
3, 12096, Note_off_c, 1, 64, 0
3, 12096, Note_on_c, 1, 62, 93
3, 12144, Note_off_c, 1, 62, 0
3, 12144, Note_on_c, 1, 60, 93
3, 12192, Note_off_c, 1, 60, 0
3, 12192, Note_on_c, 1, 59, 93
3, 12240, Note_off_c, 1, 59, 0
3, 12240, Note_on_c, 1, 57, 93
3, 12270, Note_off_c, 1, 57, 0
3, 12288, Note_on_c, 1, 57, 93
3, 12414, Note_off_c, 1, 57, 0
3, 12480, Note_on_c, 1, 65, 67
3, 12528, Note_off_c, 1, 65, 0
3, 12528, Note_on_c, 1, 64, 67
3, 12558, Note_off_c, 1, 64, 0
3, 12576, Note_on_c, 1, 64, 67
3, 12726, Note_off_c, 1, 64, 0
3, 12768, Note_on_c, 1, 58, 67
3, 12816, Note_off_c, 1, 58, 0
3, 12816, Note_on_c, 1, 57, 67
3, 12846, Note_off_c, 1, 57, 0
3, 12864, Note_on_c, 1, 57, 67
3, 12990, Note_off_c, 1, 57, 0
3, 13056, Note_on_c, 1, 62, 67
3, 13104, Note_off_c, 1, 62, 0
3, 13104, Note_on_c, 1, 64, 67
3, 13152, Note_off_c, 1, 64, 0
3, 13152, Note_on_c, 1, 65, 67
3, 13200, Note_off_c, 1, 65, 0
3, 13200, Note_on_c, 1, 64, 67
3, 13248, Note_off_c, 1, 64, 0
3, 13248, Note_on_c, 1, 62, 67
3, 13296, Note_off_c, 1, 62, 0
3, 13296, Note_on_c, 1, 60, 67
3, 13344, Note_off_c, 1, 60, 0
3, 13344, Note_on_c, 1, 59, 67
3, 13392, Note_off_c, 1, 59, 0
3, 13392, Note_on_c, 1, 57, 67
3, 13422, Note_off_c, 1, 57, 0
3, 13440, Note_on_c, 1, 57, 67
3, 13566, Note_off_c, 1, 57, 0
3, 13872, Note_on_c, 1, 64, 93
3, 13890, Note_off_c, 1, 64, 0
3, 13896, Note_on_c, 1, 65, 93
3, 13914, Note_off_c, 1, 65, 0
3, 13920, Note_on_c, 1, 64, 93
3, 13950, Note_off_c, 1, 64, 0
3, 13968, Note_on_c, 1, 64, 93
3, 13986, Note_off_c, 1, 64, 0
3, 13992, Note_on_c, 1, 67, 93
3, 14010, Note_off_c, 1, 67, 0
3, 14016, Note_on_c, 1, 65, 93
3, 14046, Note_off_c, 1, 65, 0
3, 14256, Note_on_c, 1, 60, 93
3, 14274, Note_off_c, 1, 60, 0
3, 14280, Note_on_c, 1, 62, 93
3, 14298, Note_off_c, 1, 62, 0
3, 14304, Note_on_c, 1, 60, 93
3, 14334, Note_off_c, 1, 60, 0
3, 14352, Note_on_c, 1, 60, 93
3, 14370, Note_off_c, 1, 60, 0
3, 14376, Note_on_c, 1, 64, 93
3, 14394, Note_off_c, 1, 64, 0
3, 14400, Note_on_c, 1, 57, 93
3, 14430, Note_off_c, 1, 57, 0
3, 14640, Note_on_c, 1, 64, 93
3, 14658, Note_off_c, 1, 64, 0
3, 14664, Note_on_c, 1, 65, 93
3, 14682, Note_off_c, 1, 65, 0
3, 14688, Note_on_c, 1, 64, 93
3, 14718, Note_off_c, 1, 64, 0
3, 14736, Note_on_c, 1, 64, 93
3, 14754, Note_off_c, 1, 64, 0
3, 14760, Note_on_c, 1, 67, 93
3, 14778, Note_off_c, 1, 67, 0
3, 14784, Note_on_c, 1, 65, 93
3, 14814, Note_off_c, 1, 65, 0
3, 14832, Note_on_c, 1, 59, 93
3, 14898, Note_off_c, 1, 59, 0
3, 14928, Note_on_c, 1, 61, 93
3, 14946, Note_off_c, 1, 61, 0
3, 14952, Note_on_c, 1, 62, 93
3, 14970, Note_off_c, 1, 62, 0
3, 14976, Note_on_c, 1, 61, 93
3, 15042, Note_off_c, 1, 61, 0
3, 15072, Note_on_c, 1, 61, 93
3, 15138, Note_off_c, 1, 61, 0
3, 15168, Note_on_c, 1, 62, 93
3, 15234, Note_off_c, 1, 62, 0
3, 15264, Note_on_c, 1, 61, 93
3, 15330, Note_off_c, 1, 61, 0
3, 15360, Note_on_c, 1, 61, 93
3, 15426, Note_off_c, 1, 61, 0
3, 15456, Note_on_c, 1, 59, 93
3, 15522, Note_off_c, 1, 59, 0
3, 15552, Note_on_c, 1, 61, 93
3, 15600, Note_off_c, 1, 61, 0
3, 15600, Note_on_c, 1, 62, 93
3, 15648, Note_off_c, 1, 62, 0
3, 15648, Note_on_c, 1, 61, 93
3, 15696, Note_off_c, 1, 61, 0
3, 15696, Note_on_c, 1, 59, 93
3, 15744, Note_off_c, 1, 59, 0
3, 15744, Note_on_c, 1, 57, 93
3, 15792, Note_off_c, 1, 57, 0
3, 15792, Note_on_c, 1, 59, 93
3, 15840, Note_off_c, 1, 59, 0
3, 15840, Note_on_c, 1, 61, 93
3, 15888, Note_off_c, 1, 61, 0
3, 15888, Note_on_c, 1, 62, 93
3, 15936, Note_off_c, 1, 62, 0
3, 15936, Note_on_c, 1, 64, 93
3, 15966, Note_off_c, 1, 64, 0
3, 15984, Note_on_c, 1, 62, 93
3, 16014, Note_off_c, 1, 62, 0
3, 16032, Note_on_c, 1, 61, 67
3, 16062, Note_off_c, 1, 61, 0
3, 16080, Note_on_c, 1, 59, 67
3, 16110, Note_off_c, 1, 59, 0
3, 16128, Note_on_c, 1, 61, 67
3, 16194, Note_off_c, 1, 61, 0
3, 16224, Note_on_c, 1, 61, 67
3, 16290, Note_off_c, 1, 61, 0
3, 16320, Note_on_c, 1, 62, 67
3, 16386, Note_off_c, 1, 62, 0
3, 16416, Note_on_c, 1, 61, 67
3, 16482, Note_off_c, 1, 61, 0
3, 16512, Note_on_c, 1, 61, 67
3, 16578, Note_off_c, 1, 61, 0
3, 16608, Note_on_c, 1, 59, 67
3, 16674, Note_off_c, 1, 59, 0
3, 16704, Note_on_c, 1, 61, 67
3, 16752, Note_off_c, 1, 61, 0
3, 16752, Note_on_c, 1, 62, 67
3, 16800, Note_off_c, 1, 62, 0
3, 16800, Note_on_c, 1, 61, 67
3, 16848, Note_off_c, 1, 61, 0
3, 16848, Note_on_c, 1, 59, 67
3, 16896, Note_off_c, 1, 59, 0
3, 16896, Note_on_c, 1, 57, 67
3, 16944, Note_off_c, 1, 57, 0
3, 16944, Note_on_c, 1, 59, 67
3, 16992, Note_off_c, 1, 59, 0
3, 16992, Note_on_c, 1, 61, 67
3, 17142, Note_off_c, 1, 61, 0
3, 17376, Note_on_c, 1, 62, 93
3, 17424, Note_off_c, 1, 62, 0
3, 17424, Note_on_c, 1, 61, 93
3, 17454, Note_off_c, 1, 61, 0
3, 17472, Note_on_c, 1, 62, 93
3, 17520, Note_off_c, 1, 62, 0
3, 17520, Note_on_c, 1, 61, 93
3, 17550, Note_off_c, 1, 61, 0
3, 17568, Note_on_c, 1, 62, 93
3, 17760, Note_off_c, 1, 62, 0
3, 17952, Note_on_c, 1, 61, 93
3, 18000, Note_off_c, 1, 61, 0
3, 18000, Note_on_c, 1, 59, 93
3, 18030, Note_off_c, 1, 59, 0
3, 18048, Note_on_c, 1, 61, 93
3, 18096, Note_off_c, 1, 61, 0
3, 18096, Note_on_c, 1, 59, 93
3, 18126, Note_off_c, 1, 59, 0
3, 18144, Note_on_c, 1, 61, 93
3, 18336, Note_off_c, 1, 61, 0
3, 18336, Note_on_c, 1, 61, 93
3, 18366, Note_off_c, 1, 61, 0
3, 18384, Note_on_c, 1, 64, 93
3, 18414, Note_off_c, 1, 64, 0
3, 18432, Note_on_c, 1, 62, 93
3, 18528, Note_off_c, 1, 62, 0
3, 18528, Note_on_c, 1, 61, 93
3, 18594, Note_off_c, 1, 61, 0
3, 18624, Note_on_c, 1, 69, 93
3, 18690, Note_off_c, 1, 69, 0
3, 18720, Note_on_c, 1, 68, 93
3, 18816, Note_off_c, 1, 68, 0
3, 18816, Note_on_c, 1, 69, 93
3, 18882, Note_off_c, 1, 69, 0
3, 18912, Note_on_c, 1, 69, 93
3, 18960, Note_off_c, 1, 69, 0
3, 18960, Note_on_c, 1, 68, 93
3, 19008, Note_off_c, 1, 68, 0
3, 19008, Note_on_c, 1, 66, 93
3, 19056, Note_off_c, 1, 66, 0
3, 19056, Note_on_c, 1, 64, 93
3, 19104, Note_off_c, 1, 64, 0
3, 19104, Note_on_c, 1, 62, 93
3, 19152, Note_off_c, 1, 62, 0
3, 19152, Note_on_c, 1, 61, 93
3, 19200, Note_off_c, 1, 61, 0
3, 19200, Note_on_c, 1, 59, 93
3, 19248, Note_off_c, 1, 59, 0
3, 19248, Note_on_c, 1, 64, 93
3, 19296, Note_off_c, 1, 64, 0
3, 19296, Note_on_c, 1, 57, 93
3, 19362, Note_off_c, 1, 57, 0
3, 19680, Note_on_c, 1, 62, 93
3, 19728, Note_off_c, 1, 62, 0
3, 19728, Note_on_c, 1, 61, 93
3, 19758, Note_off_c, 1, 61, 0
3, 19776, Note_on_c, 1, 62, 93
3, 19824, Note_off_c, 1, 62, 0
3, 19824, Note_on_c, 1, 61, 93
3, 19854, Note_off_c, 1, 61, 0
3, 19872, Note_on_c, 1, 62, 93
3, 20016, Note_off_c, 1, 62, 0
3, 20256, Note_on_c, 1, 61, 93
3, 20304, Note_off_c, 1, 61, 0
3, 20304, Note_on_c, 1, 59, 93
3, 20334, Note_off_c, 1, 59, 0
3, 20352, Note_on_c, 1, 61, 93
3, 20400, Note_off_c, 1, 61, 0
3, 20400, Note_on_c, 1, 59, 93
3, 20430, Note_off_c, 1, 59, 0
3, 20448, Note_on_c, 1, 61, 93
3, 20592, Note_off_c, 1, 61, 0
3, 20640, Note_on_c, 1, 57, 93
3, 20670, Note_off_c, 1, 57, 0
3, 20688, Note_on_c, 1, 61, 93
3, 20718, Note_off_c, 1, 61, 0
3, 20736, Note_on_c, 1, 59, 93
3, 20832, Note_off_c, 1, 59, 0
3, 20832, Note_on_c, 1, 57, 93
3, 20898, Note_off_c, 1, 57, 0
3, 20928, Note_on_c, 1, 64, 93
3, 20994, Note_off_c, 1, 64, 0
3, 21024, Note_on_c, 1, 68, 93
3, 21120, Note_off_c, 1, 68, 0
3, 21120, Note_on_c, 1, 69, 93
3, 21186, Note_off_c, 1, 69, 0
3, 21216, Note_on_c, 1, 69, 93
3, 21264, Note_off_c, 1, 69, 0
3, 21264, Note_on_c, 1, 68, 93
3, 21312, Note_off_c, 1, 68, 0
3, 21312, Note_on_c, 1, 66, 93
3, 21360, Note_off_c, 1, 66, 0
3, 21360, Note_on_c, 1, 64, 93
3, 21408, Note_off_c, 1, 64, 0
3, 21408, Note_on_c, 1, 62, 93
3, 21456, Note_off_c, 1, 62, 0
3, 21456, Note_on_c, 1, 61, 93
3, 21504, Note_off_c, 1, 61, 0
3, 21504, Note_on_c, 1, 59, 93
3, 21552, Note_off_c, 1, 59, 0
3, 21552, Note_on_c, 1, 64, 93
3, 21600, Note_off_c, 1, 64, 0
3, 21600, Note_on_c, 1, 57, 93
3, 21648, Note_off_c, 1, 57, 0
3, 21648, Note_on_c, 1, 64, 93
3, 21696, Note_off_c, 1, 64, 0
3, 21696, Note_on_c, 1, 69, 93
3, 21744, Note_off_c, 1, 69, 0
3, 21744, Note_on_c, 1, 68, 93
3, 21792, Note_off_c, 1, 68, 0
3, 21792, Note_on_c, 1, 69, 93
3, 21984, Note_off_c, 1, 69, 0
3, 21984, Note_on_c, 1, 57, 93
3, 22050, Note_off_c, 1, 57, 0
3, 22080, Note_on_c, 1, 56, 93
3, 22146, Note_off_c, 1, 56, 0
3, 22176, Note_on_c, 1, 57, 93
3, 22560, Note_off_c, 1, 57, 0
3, 22560, End_track
4, 0, Start_track
4, 0, Title_t, "Track4"
4, 0, Control_c, 2, 0, 0
4, 0, Control_c, 2, 32, 0
4, 0, Program_c, 2, 6
4, 0, Control_c, 2, 7, 93
4, 0, Control_c, 2, 10, 47
4, 288, Note_on_c, 2, 61, 93
4, 480, Note_off_c, 2, 61, 0
4, 480, Note_on_c, 2, 68, 93
4, 576, Note_off_c, 2, 68, 0
4, 576, Note_on_c, 2, 61, 93
4, 768, Note_off_c, 2, 61, 0
4, 768, Note_on_c, 2, 64, 93
4, 864, Note_off_c, 2, 64, 0
4, 864, Note_on_c, 2, 61, 93
4, 960, Note_off_c, 2, 61, 0
4, 960, Note_on_c, 2, 64, 93
4, 1056, Note_off_c, 2, 64, 0
4, 1056, Note_on_c, 2, 61, 93
4, 1152, Note_off_c, 2, 61, 0
4, 1152, Note_on_c, 2, 64, 93
4, 1248, Note_off_c, 2, 64, 0
4, 1248, Note_on_c, 2, 73, 93
4, 1296, Note_off_c, 2, 73, 0
4, 1296, Note_on_c, 2, 71, 93
4, 1344, Note_off_c, 2, 71, 0
4, 1344, Note_on_c, 2, 69, 67
4, 1392, Note_off_c, 2, 69, 0
4, 1392, Note_on_c, 2, 68, 67
4, 1440, Note_off_c, 2, 68, 0
4, 1440, Note_on_c, 2, 61, 67
4, 1632, Note_off_c, 2, 61, 0
4, 1632, Note_on_c, 2, 68, 67
4, 1728, Note_off_c, 2, 68, 0
4, 1728, Note_on_c, 2, 61, 67
4, 1920, Note_off_c, 2, 61, 0
4, 1920, Note_on_c, 2, 64, 67
4, 2016, Note_off_c, 2, 64, 0
4, 2016, Note_on_c, 2, 61, 67
4, 2142, Note_off_c, 2, 61, 0
4, 2208, Note_on_c, 2, 64, 67
4, 2304, Note_off_c, 2, 64, 0
4, 2304, Note_on_c, 2, 61, 93
4, 2334, Note_off_c, 2, 61, 0
4, 2400, Note_on_c, 2, 69, 93
4, 2466, Note_off_c, 2, 69, 0
4, 2496, Note_on_c, 2, 76, 93
4, 2544, Note_off_c, 2, 76, 0
4, 2544, Note_on_c, 2, 74, 93
4, 2574, Note_off_c, 2, 74, 0
4, 2592, Note_on_c, 2, 73, 93
4, 2658, Note_off_c, 2, 73, 0
4, 2688, Note_on_c, 2, 69, 93
4, 2718, Note_off_c, 2, 69, 0
4, 2736, Note_on_c, 2, 68, 93
4, 2754, Note_off_c, 2, 68, 0
4, 2760, Note_on_c, 2, 69, 93
4, 2778, Note_off_c, 2, 69, 0
4, 2784, Note_on_c, 2, 71, 93
4, 2814, Note_off_c, 2, 71, 0
4, 2832, Note_on_c, 2, 69, 93
4, 2862, Note_off_c, 2, 69, 0
4, 2880, Note_on_c, 2, 71, 93
4, 2946, Note_off_c, 2, 71, 0
4, 2976, Note_on_c, 2, 73, 93
4, 2994, Note_off_c, 2, 73, 0
4, 3000, Note_on_c, 2, 71, 93
4, 3018, Note_off_c, 2, 71, 0
4, 3024, Note_on_c, 2, 73, 93
4, 3042, Note_off_c, 2, 73, 0
4, 3048, Note_on_c, 2, 74, 93
4, 3066, Note_off_c, 2, 74, 0
4, 3264, Note_on_c, 2, 76, 93
4, 3312, Note_off_c, 2, 76, 0
4, 3312, Note_on_c, 2, 74, 93
4, 3342, Note_off_c, 2, 74, 0
4, 3360, Note_on_c, 2, 73, 93
4, 3426, Note_off_c, 2, 73, 0
4, 3456, Note_on_c, 2, 69, 93
4, 3486, Note_off_c, 2, 69, 0
4, 3504, Note_on_c, 2, 68, 93
4, 3522, Note_off_c, 2, 68, 0
4, 3528, Note_on_c, 2, 69, 93
4, 3546, Note_off_c, 2, 69, 0
4, 3552, Note_on_c, 2, 71, 93
4, 3582, Note_off_c, 2, 71, 0
4, 3600, Note_on_c, 2, 69, 93
4, 3630, Note_off_c, 2, 69, 0
4, 3648, Note_on_c, 2, 71, 93
4, 3714, Note_off_c, 2, 71, 0
4, 3744, Note_on_c, 2, 61, 93
4, 3810, Note_off_c, 2, 61, 0
4, 3840, Note_on_c, 2, 69, 93
4, 3936, Note_off_c, 2, 69, 0
4, 3936, Note_on_c, 2, 64, 93
4, 3984, Note_off_c, 2, 64, 0
4, 3984, Note_on_c, 2, 61, 93
4, 4080, Note_off_c, 2, 61, 0
4, 4080, Note_on_c, 2, 69, 93
4, 4128, Note_off_c, 2, 69, 0
4, 4128, Note_on_c, 2, 69, 93
4, 4224, Note_off_c, 2, 69, 0
4, 4224, Note_on_c, 2, 66, 93
4, 4272, Note_off_c, 2, 66, 0
4, 4272, Note_on_c, 2, 64, 93
4, 4368, Note_off_c, 2, 64, 0
4, 4368, Note_on_c, 2, 64, 93
4, 4416, Note_off_c, 2, 64, 0
4, 4416, Note_on_c, 2, 69, 67
4, 4512, Note_off_c, 2, 69, 0
4, 4512, Note_on_c, 2, 64, 67
4, 4560, Note_off_c, 2, 64, 0
4, 4560, Note_on_c, 2, 61, 67
4, 4656, Note_off_c, 2, 61, 0
4, 4656, Note_on_c, 2, 69, 67
4, 4704, Note_off_c, 2, 69, 0
4, 4704, Note_on_c, 2, 69, 67
4, 4800, Note_off_c, 2, 69, 0
4, 4800, Note_on_c, 2, 66, 67
4, 4848, Note_off_c, 2, 66, 0
4, 4848, Note_on_c, 2, 64, 67
4, 4944, Note_off_c, 2, 64, 0
4, 4944, Note_on_c, 2, 64, 93
4, 4992, Note_off_c, 2, 64, 0
4, 4992, Note_on_c, 2, 68, 93
4, 5058, Note_off_c, 2, 68, 0
4, 5088, Note_on_c, 2, 64, 93
4, 5118, Note_off_c, 2, 64, 0
4, 5136, Note_on_c, 2, 69, 93
4, 5202, Note_off_c, 2, 69, 0
4, 5232, Note_on_c, 2, 61, 93
4, 5262, Note_off_c, 2, 61, 0
4, 5280, Note_on_c, 2, 66, 93
4, 5310, Note_off_c, 2, 66, 0
4, 5328, Note_on_c, 2, 64, 93
4, 5358, Note_off_c, 2, 64, 0
4, 5376, Note_on_c, 2, 62, 93
4, 5406, Note_off_c, 2, 62, 0
4, 5424, Note_on_c, 2, 64, 93
4, 5454, Note_off_c, 2, 64, 0
4, 5472, Note_on_c, 2, 73, 93
4, 5490, Note_off_c, 2, 73, 0
4, 5496, Note_on_c, 2, 76, 93
4, 5514, Note_off_c, 2, 76, 0
4, 5520, Note_on_c, 2, 81, 67
4, 5550, Note_off_c, 2, 81, 0
4, 5568, Note_on_c, 2, 68, 67
4, 5634, Note_off_c, 2, 68, 0
4, 5664, Note_on_c, 2, 64, 67
4, 5694, Note_off_c, 2, 64, 0
4, 5712, Note_on_c, 2, 69, 67
4, 5778, Note_off_c, 2, 69, 0
4, 5808, Note_on_c, 2, 61, 67
4, 5838, Note_off_c, 2, 61, 0
4, 5856, Note_on_c, 2, 66, 67
4, 5886, Note_off_c, 2, 66, 0
4, 5904, Note_on_c, 2, 64, 67
4, 5934, Note_off_c, 2, 64, 0
4, 5952, Note_on_c, 2, 62, 67
4, 5982, Note_off_c, 2, 62, 0
4, 6000, Note_on_c, 2, 64, 67
4, 6030, Note_off_c, 2, 64, 0
4, 6096, Note_on_c, 2, 64, 93
4, 6126, Note_off_c, 2, 64, 0
4, 6144, Note_on_c, 2, 68, 93
4, 6210, Note_off_c, 2, 68, 0
4, 6240, Note_on_c, 2, 69, 93
4, 6306, Note_off_c, 2, 69, 0
4, 6336, Note_on_c, 2, 64, 93
4, 6402, Note_off_c, 2, 64, 0
4, 6480, Note_on_c, 2, 68, 93
4, 6510, Note_off_c, 2, 68, 0
4, 6528, Note_on_c, 2, 71, 93
4, 6594, Note_off_c, 2, 71, 0
4, 6624, Note_on_c, 2, 69, 93
4, 6690, Note_off_c, 2, 69, 0
4, 6720, Note_on_c, 2, 64, 93
4, 6786, Note_off_c, 2, 64, 0
4, 6816, Note_on_c, 2, 83, 93
4, 6834, Note_off_c, 2, 83, 0
4, 6840, Note_on_c, 2, 81, 93
4, 6858, Note_off_c, 2, 81, 0
4, 6864, Note_on_c, 2, 80, 93
4, 6882, Note_off_c, 2, 80, 0
4, 6888, Note_on_c, 2, 78, 93
4, 6906, Note_off_c, 2, 78, 0
4, 6912, Note_on_c, 2, 68, 93
4, 6978, Note_off_c, 2, 68, 0
4, 7008, Note_on_c, 2, 69, 93
4, 7074, Note_off_c, 2, 69, 0
4, 7104, Note_on_c, 2, 64, 93
4, 7170, Note_off_c, 2, 64, 0
4, 7248, Note_on_c, 2, 68, 93
4, 7278, Note_off_c, 2, 68, 0
4, 7296, Note_on_c, 2, 71, 93
4, 7362, Note_off_c, 2, 71, 0
4, 7392, Note_on_c, 2, 69, 93
4, 7458, Note_off_c, 2, 69, 0
4, 7488, Note_on_c, 2, 64, 93
4, 7554, Note_off_c, 2, 64, 0
4, 7584, Note_on_c, 2, 64, 93
4, 7614, Note_off_c, 2, 64, 0
4, 7680, Note_on_c, 2, 71, 93
4, 7710, Note_off_c, 2, 71, 0
4, 7776, Note_on_c, 2, 68, 93
4, 7806, Note_off_c, 2, 68, 0
4, 7872, Note_on_c, 2, 68, 93
4, 7902, Note_off_c, 2, 68, 0
4, 7968, Note_on_c, 2, 64, 93
4, 7998, Note_off_c, 2, 64, 0
4, 8064, Note_on_c, 2, 64, 93
4, 8130, Note_off_c, 2, 64, 0
4, 8160, Note_on_c, 2, 59, 93
4, 8226, Note_off_c, 2, 59, 0
4, 8256, Note_on_c, 2, 61, 93
4, 8352, Note_off_c, 2, 61, 0
4, 8448, Note_on_c, 2, 71, 93
4, 8478, Note_off_c, 2, 71, 0
4, 8544, Note_on_c, 2, 68, 93
4, 8574, Note_off_c, 2, 68, 0
4, 8640, Note_on_c, 2, 68, 93
4, 8670, Note_off_c, 2, 68, 0
4, 8736, Note_on_c, 2, 64, 93
4, 8766, Note_off_c, 2, 64, 0
4, 8832, Note_on_c, 2, 64, 93
4, 8898, Note_off_c, 2, 64, 0
4, 8928, Note_on_c, 2, 59, 93
4, 8994, Note_off_c, 2, 59, 0
4, 9024, Note_on_c, 2, 64, 93
4, 9054, Note_off_c, 2, 64, 0
4, 9072, Note_on_c, 2, 69, 93
4, 9096, Note_off_c, 2, 69, 0
4, 9096, Note_on_c, 2, 71, 93
4, 9120, Note_off_c, 2, 71, 0
4, 9120, Note_on_c, 2, 72, 93
4, 9168, Note_off_c, 2, 72, 0
4, 9168, Note_on_c, 2, 71, 93
4, 9216, Note_off_c, 2, 71, 0
4, 9216, Note_on_c, 2, 69, 93
4, 9264, Note_off_c, 2, 69, 0
4, 9264, Note_on_c, 2, 67, 93
4, 9312, Note_off_c, 2, 67, 0
4, 9312, Note_on_c, 2, 65, 93
4, 9360, Note_off_c, 2, 65, 0
4, 9360, Note_on_c, 2, 64, 93
4, 9390, Note_off_c, 2, 64, 0
4, 9408, Note_on_c, 2, 64, 93
4, 9558, Note_off_c, 2, 64, 0
4, 9600, Note_on_c, 2, 62, 93
4, 9648, Note_off_c, 2, 62, 0
4, 9648, Note_on_c, 2, 64, 93
4, 9696, Note_off_c, 2, 64, 0
4, 9696, Note_on_c, 2, 65, 93
4, 9744, Note_off_c, 2, 65, 0
4, 9744, Note_on_c, 2, 64, 93
4, 9792, Note_off_c, 2, 64, 0
4, 9792, Note_on_c, 2, 62, 93
4, 9840, Note_off_c, 2, 62, 0
4, 9840, Note_on_c, 2, 60, 93
4, 9888, Note_off_c, 2, 60, 0
4, 9888, Note_on_c, 2, 59, 93
4, 9936, Note_off_c, 2, 59, 0
4, 9936, Note_on_c, 2, 57, 93
4, 9966, Note_off_c, 2, 57, 0
4, 9984, Note_on_c, 2, 57, 93
4, 10110, Note_off_c, 2, 57, 0
4, 10176, Note_on_c, 2, 69, 67
4, 10224, Note_off_c, 2, 69, 0
4, 10224, Note_on_c, 2, 71, 67
4, 10272, Note_off_c, 2, 71, 0
4, 10272, Note_on_c, 2, 72, 67
4, 10320, Note_off_c, 2, 72, 0
4, 10320, Note_on_c, 2, 71, 67
4, 10368, Note_off_c, 2, 71, 0
4, 10368, Note_on_c, 2, 69, 67
4, 10416, Note_off_c, 2, 69, 0
4, 10416, Note_on_c, 2, 67, 67
4, 10464, Note_off_c, 2, 67, 0
4, 10464, Note_on_c, 2, 65, 67
4, 10512, Note_off_c, 2, 65, 0
4, 10512, Note_on_c, 2, 64, 67
4, 10542, Note_off_c, 2, 64, 0
4, 10560, Note_on_c, 2, 64, 67
4, 10710, Note_off_c, 2, 64, 0
4, 10752, Note_on_c, 2, 62, 67
4, 10800, Note_off_c, 2, 62, 0
4, 10800, Note_on_c, 2, 64, 67
4, 10848, Note_off_c, 2, 64, 0
4, 10848, Note_on_c, 2, 65, 67
4, 10896, Note_off_c, 2, 65, 0
4, 10896, Note_on_c, 2, 64, 67
4, 10944, Note_off_c, 2, 64, 0
4, 10944, Note_on_c, 2, 62, 67
4, 10992, Note_off_c, 2, 62, 0
4, 10992, Note_on_c, 2, 60, 67
4, 11040, Note_off_c, 2, 60, 0
4, 11040, Note_on_c, 2, 59, 67
4, 11088, Note_off_c, 2, 59, 0
4, 11088, Note_on_c, 2, 57, 67
4, 11118, Note_off_c, 2, 57, 0
4, 11136, Note_on_c, 2, 57, 67
4, 11262, Note_off_c, 2, 57, 0
4, 11328, Note_on_c, 2, 65, 93
4, 11376, Note_off_c, 2, 65, 0
4, 11376, Note_on_c, 2, 64, 93
4, 11406, Note_off_c, 2, 64, 0
4, 11424, Note_on_c, 2, 64, 93
4, 11574, Note_off_c, 2, 64, 0
4, 11616, Note_on_c, 2, 58, 93
4, 11664, Note_off_c, 2, 58, 0
4, 11664, Note_on_c, 2, 57, 93
4, 11694, Note_off_c, 2, 57, 0
4, 11712, Note_on_c, 2, 57, 93
4, 11838, Note_off_c, 2, 57, 0
4, 11904, Note_on_c, 2, 62, 93
4, 11952, Note_off_c, 2, 62, 0
4, 11952, Note_on_c, 2, 64, 93
4, 12000, Note_off_c, 2, 64, 0
4, 12000, Note_on_c, 2, 65, 93
4, 12048, Note_off_c, 2, 65, 0
4, 12048, Note_on_c, 2, 64, 93
4, 12096, Note_off_c, 2, 64, 0
4, 12096, Note_on_c, 2, 62, 93
4, 12144, Note_off_c, 2, 62, 0
4, 12144, Note_on_c, 2, 60, 93
4, 12192, Note_off_c, 2, 60, 0
4, 12192, Note_on_c, 2, 59, 93
4, 12240, Note_off_c, 2, 59, 0
4, 12240, Note_on_c, 2, 57, 93
4, 12270, Note_off_c, 2, 57, 0
4, 12288, Note_on_c, 2, 57, 93
4, 12414, Note_off_c, 2, 57, 0
4, 12480, Note_on_c, 2, 65, 67
4, 12528, Note_off_c, 2, 65, 0
4, 12528, Note_on_c, 2, 64, 67
4, 12558, Note_off_c, 2, 64, 0
4, 12576, Note_on_c, 2, 64, 67
4, 12726, Note_off_c, 2, 64, 0
4, 12768, Note_on_c, 2, 58, 67
4, 12816, Note_off_c, 2, 58, 0
4, 12816, Note_on_c, 2, 57, 67
4, 12846, Note_off_c, 2, 57, 0
4, 12864, Note_on_c, 2, 57, 67
4, 12990, Note_off_c, 2, 57, 0
4, 13056, Note_on_c, 2, 62, 67
4, 13104, Note_off_c, 2, 62, 0
4, 13104, Note_on_c, 2, 64, 67
4, 13152, Note_off_c, 2, 64, 0
4, 13152, Note_on_c, 2, 65, 67
4, 13200, Note_off_c, 2, 65, 0
4, 13200, Note_on_c, 2, 64, 67
4, 13248, Note_off_c, 2, 64, 0
4, 13248, Note_on_c, 2, 62, 67
4, 13296, Note_off_c, 2, 62, 0
4, 13296, Note_on_c, 2, 60, 67
4, 13344, Note_off_c, 2, 60, 0
4, 13344, Note_on_c, 2, 59, 67
4, 13392, Note_off_c, 2, 59, 0
4, 13392, Note_on_c, 2, 57, 67
4, 13422, Note_off_c, 2, 57, 0
4, 13440, Note_on_c, 2, 57, 67
4, 13566, Note_off_c, 2, 57, 0
4, 13632, Note_on_c, 2, 72, 93
4, 13698, Note_off_c, 2, 72, 0
4, 13728, Note_on_c, 2, 77, 93
4, 13758, Note_off_c, 2, 77, 0
4, 13776, Note_on_c, 2, 76, 93
4, 13806, Note_off_c, 2, 76, 0
4, 13824, Note_on_c, 2, 68, 93
4, 13890, Note_off_c, 2, 68, 0
4, 13920, Note_on_c, 2, 64, 93
4, 13986, Note_off_c, 2, 64, 0
4, 14016, Note_on_c, 2, 65, 93
4, 14082, Note_off_c, 2, 65, 0
4, 14112, Note_on_c, 2, 59, 93
4, 14178, Note_off_c, 2, 59, 0
4, 14208, Note_on_c, 2, 64, 93
4, 14274, Note_off_c, 2, 64, 0
4, 14352, Note_on_c, 2, 69, 93
4, 14382, Note_off_c, 2, 69, 0
4, 14400, Note_on_c, 2, 64, 93
4, 14466, Note_off_c, 2, 64, 0
4, 14496, Note_on_c, 2, 77, 93
4, 14526, Note_off_c, 2, 77, 0
4, 14544, Note_on_c, 2, 76, 93
4, 14574, Note_off_c, 2, 76, 0
4, 14592, Note_on_c, 2, 68, 93
4, 14658, Note_off_c, 2, 68, 0
4, 14688, Note_on_c, 2, 64, 93
4, 14754, Note_off_c, 2, 64, 0
4, 14784, Note_on_c, 2, 65, 93
4, 14850, Note_off_c, 2, 65, 0
4, 14880, Note_on_c, 2, 59, 93
4, 14946, Note_off_c, 2, 59, 0
4, 14976, Note_on_c, 2, 61, 93
4, 15168, Note_off_c, 2, 61, 0
4, 15168, Note_on_c, 2, 68, 93
4, 15264, Note_off_c, 2, 68, 0
4, 15264, Note_on_c, 2, 61, 93
4, 15456, Note_off_c, 2, 61, 0
4, 15456, Note_on_c, 2, 64, 93
4, 15552, Note_off_c, 2, 64, 0
4, 15552, Note_on_c, 2, 61, 93
4, 15648, Note_off_c, 2, 61, 0
4, 15648, Note_on_c, 2, 64, 93
4, 15744, Note_off_c, 2, 64, 0
4, 15744, Note_on_c, 2, 61, 93
4, 15840, Note_off_c, 2, 61, 0
4, 15840, Note_on_c, 2, 64, 93
4, 15936, Note_off_c, 2, 64, 0
4, 15936, Note_on_c, 2, 73, 93
4, 15984, Note_off_c, 2, 73, 0
4, 15984, Note_on_c, 2, 71, 93
4, 16032, Note_off_c, 2, 71, 0
4, 16032, Note_on_c, 2, 69, 67
4, 16080, Note_off_c, 2, 69, 0
4, 16080, Note_on_c, 2, 68, 67
4, 16128, Note_off_c, 2, 68, 0
4, 16128, Note_on_c, 2, 61, 67
4, 16320, Note_off_c, 2, 61, 0
4, 16320, Note_on_c, 2, 68, 67
4, 16416, Note_off_c, 2, 68, 0
4, 16416, Note_on_c, 2, 61, 67
4, 16608, Note_off_c, 2, 61, 0
4, 16608, Note_on_c, 2, 64, 67
4, 16704, Note_off_c, 2, 64, 0
4, 16704, Note_on_c, 2, 61, 67
4, 16830, Note_off_c, 2, 61, 0
4, 16896, Note_on_c, 2, 64, 67
4, 16992, Note_off_c, 2, 64, 0
4, 16992, Note_on_c, 2, 69, 67
4, 17142, Note_off_c, 2, 69, 0
4, 17376, Note_on_c, 2, 64, 93
4, 17442, Note_off_c, 2, 64, 0
4, 17472, Note_on_c, 2, 68, 93
4, 17538, Note_off_c, 2, 68, 0
4, 17568, Note_on_c, 2, 64, 93
4, 17634, Note_off_c, 2, 64, 0
4, 17664, Note_on_c, 2, 64, 93
4, 17730, Note_off_c, 2, 64, 0
4, 17952, Note_on_c, 2, 64, 93
4, 18018, Note_off_c, 2, 64, 0
4, 18048, Note_on_c, 2, 64, 93
4, 18114, Note_off_c, 2, 64, 0
4, 18144, Note_on_c, 2, 69, 93
4, 18210, Note_off_c, 2, 69, 0
4, 18240, Note_on_c, 2, 73, 93
4, 18306, Note_off_c, 2, 73, 0
4, 18624, Note_on_c, 2, 69, 93
4, 18690, Note_off_c, 2, 69, 0
4, 18720, Note_on_c, 2, 68, 93
4, 18786, Note_off_c, 2, 68, 0
4, 18816, Note_on_c, 2, 69, 93
4, 18882, Note_off_c, 2, 69, 0
4, 18912, Note_on_c, 2, 69, 93
4, 18960, Note_off_c, 2, 69, 0
4, 18960, Note_on_c, 2, 68, 93
4, 19008, Note_off_c, 2, 68, 0
4, 19008, Note_on_c, 2, 66, 93
4, 19056, Note_off_c, 2, 66, 0
4, 19056, Note_on_c, 2, 64, 93
4, 19104, Note_off_c, 2, 64, 0
4, 19104, Note_on_c, 2, 62, 93
4, 19152, Note_off_c, 2, 62, 0
4, 19152, Note_on_c, 2, 61, 93
4, 19200, Note_off_c, 2, 61, 0
4, 19200, Note_on_c, 2, 59, 93
4, 19248, Note_off_c, 2, 59, 0
4, 19248, Note_on_c, 2, 64, 93
4, 19296, Note_off_c, 2, 64, 0
4, 19296, Note_on_c, 2, 57, 93
4, 19362, Note_off_c, 2, 57, 0
4, 19680, Note_on_c, 2, 64, 93
4, 19746, Note_off_c, 2, 64, 0
4, 19776, Note_on_c, 2, 68, 93
4, 19842, Note_off_c, 2, 68, 0
4, 19872, Note_on_c, 2, 64, 93
4, 19938, Note_off_c, 2, 64, 0
4, 19968, Note_on_c, 2, 64, 93
4, 20034, Note_off_c, 2, 64, 0
4, 20256, Note_on_c, 2, 64, 93
4, 20322, Note_off_c, 2, 64, 0
4, 20352, Note_on_c, 2, 64, 93
4, 20418, Note_off_c, 2, 64, 0
4, 20448, Note_on_c, 2, 69, 93
4, 20514, Note_off_c, 2, 69, 0
4, 20544, Note_on_c, 2, 73, 93
4, 20610, Note_off_c, 2, 73, 0
4, 20928, Note_on_c, 2, 69, 93
4, 20994, Note_off_c, 2, 69, 0
4, 21024, Note_on_c, 2, 68, 93
4, 21090, Note_off_c, 2, 68, 0
4, 21120, Note_on_c, 2, 69, 93
4, 21186, Note_off_c, 2, 69, 0
4, 21696, Note_on_c, 2, 69, 93
4, 21726, Note_off_c, 2, 69, 0
4, 21792, Note_on_c, 2, 69, 93
4, 21822, Note_off_c, 2, 69, 0
4, 21840, Note_on_c, 2, 68, 93
4, 21870, Note_off_c, 2, 68, 0
4, 21888, Note_on_c, 2, 66, 93
4, 21918, Note_off_c, 2, 66, 0
4, 21936, Note_on_c, 2, 64, 93
4, 21966, Note_off_c, 2, 64, 0
4, 21984, Note_on_c, 2, 62, 93
4, 22014, Note_off_c, 2, 62, 0
4, 22032, Note_on_c, 2, 61, 93
4, 22062, Note_off_c, 2, 61, 0
4, 22080, Note_on_c, 2, 59, 93
4, 22110, Note_off_c, 2, 59, 0
4, 22128, Note_on_c, 2, 64, 93
4, 22158, Note_off_c, 2, 64, 0
4, 22188, Note_on_c, 2, 57, 84
4, 22632, Note_off_c, 2, 57, 0
4, 22632, End_track
5, 0, Start_track
5, 0, Title_t, "Track5"
5, 0, Control_c, 3, 0, 0
5, 0, Control_c, 3, 32, 0
5, 0, Program_c, 3, 6
5, 0, Control_c, 3, 7, 93
5, 0, Control_c, 3, 10, 47
5, 288, Note_on_c, 3, 45, 93
5, 354, Note_off_c, 3, 45, 0
5, 384, Note_on_c, 3, 45, 93
5, 450, Note_off_c, 3, 45, 0
5, 480, Note_on_c, 3, 45, 93
5, 546, Note_off_c, 3, 45, 0
5, 576, Note_on_c, 3, 45, 93
5, 642, Note_off_c, 3, 45, 0
5, 672, Note_on_c, 3, 45, 93
5, 738, Note_off_c, 3, 45, 0
5, 768, Note_on_c, 3, 45, 93
5, 834, Note_off_c, 3, 45, 0
5, 864, Note_on_c, 3, 45, 93
5, 930, Note_off_c, 3, 45, 0
5, 960, Note_on_c, 3, 45, 93
5, 1026, Note_off_c, 3, 45, 0
5, 1056, Note_on_c, 3, 45, 93
5, 1122, Note_off_c, 3, 45, 0
5, 1152, Note_on_c, 3, 45, 93
5, 1218, Note_off_c, 3, 45, 0
5, 1248, Note_on_c, 3, 45, 93
5, 1314, Note_off_c, 3, 45, 0
5, 1344, Note_on_c, 3, 45, 67
5, 1410, Note_off_c, 3, 45, 0
5, 1440, Note_on_c, 3, 45, 67
5, 1506, Note_off_c, 3, 45, 0
5, 1536, Note_on_c, 3, 45, 67
5, 1602, Note_off_c, 3, 45, 0
5, 1632, Note_on_c, 3, 45, 67
5, 1698, Note_off_c, 3, 45, 0
5, 1728, Note_on_c, 3, 45, 67
5, 1794, Note_off_c, 3, 45, 0
5, 1824, Note_on_c, 3, 45, 67
5, 1890, Note_off_c, 3, 45, 0
5, 1920, Note_on_c, 3, 45, 67
5, 1986, Note_off_c, 3, 45, 0
5, 2016, Note_on_c, 3, 45, 67
5, 2082, Note_off_c, 3, 45, 0
5, 2112, Note_on_c, 3, 45, 67
5, 2178, Note_off_c, 3, 45, 0
5, 2208, Note_on_c, 3, 45, 67
5, 2274, Note_off_c, 3, 45, 0
5, 2304, Note_on_c, 3, 45, 93
5, 2334, Note_off_c, 3, 45, 0
5, 2352, Note_on_c, 3, 57, 93
5, 2370, Note_off_c, 3, 57, 0
5, 2376, Note_on_c, 3, 59, 93
5, 2394, Note_off_c, 3, 59, 0
5, 2400, Note_on_c, 3, 61, 93
5, 2430, Note_off_c, 3, 61, 0
5, 2448, Note_on_c, 3, 62, 93
5, 2478, Note_off_c, 3, 62, 0
5, 2496, Note_on_c, 3, 61, 93
5, 2544, Note_off_c, 3, 61, 0
5, 2544, Note_on_c, 3, 59, 93
5, 2574, Note_off_c, 3, 59, 0
5, 2592, Note_on_c, 3, 57, 93
5, 2658, Note_off_c, 3, 57, 0
5, 2688, Note_on_c, 3, 57, 93
5, 2754, Note_off_c, 3, 57, 0
5, 2784, Note_on_c, 3, 59, 93
5, 2814, Note_off_c, 3, 59, 0
5, 2832, Note_on_c, 3, 57, 93
5, 2862, Note_off_c, 3, 57, 0
5, 2880, Note_on_c, 3, 52, 93
5, 2910, Note_off_c, 3, 52, 0
5, 2928, Note_on_c, 3, 56, 93
5, 2958, Note_off_c, 3, 56, 0
5, 2976, Note_on_c, 3, 57, 93
5, 3042, Note_off_c, 3, 57, 0
5, 3072, Note_on_c, 3, 45, 93
5, 3102, Note_off_c, 3, 45, 0
5, 3120, Note_on_c, 3, 57, 93
5, 3138, Note_off_c, 3, 57, 0
5, 3144, Note_on_c, 3, 59, 93
5, 3162, Note_off_c, 3, 59, 0
5, 3168, Note_on_c, 3, 61, 93
5, 3198, Note_off_c, 3, 61, 0
5, 3216, Note_on_c, 3, 62, 93
5, 3246, Note_off_c, 3, 62, 0
5, 3264, Note_on_c, 3, 61, 93
5, 3312, Note_off_c, 3, 61, 0
5, 3312, Note_on_c, 3, 59, 93
5, 3342, Note_off_c, 3, 59, 0
5, 3360, Note_on_c, 3, 57, 93
5, 3426, Note_off_c, 3, 57, 0
5, 3456, Note_on_c, 3, 45, 93
5, 3486, Note_off_c, 3, 45, 0
5, 3504, Note_on_c, 3, 57, 93
5, 3534, Note_off_c, 3, 57, 0
5, 3552, Note_on_c, 3, 59, 93
5, 3582, Note_off_c, 3, 59, 0
5, 3600, Note_on_c, 3, 57, 93
5, 3630, Note_off_c, 3, 57, 0
5, 3648, Note_on_c, 3, 56, 93
5, 3696, Note_off_c, 3, 56, 0
5, 3696, Note_on_c, 3, 52, 93
5, 3726, Note_off_c, 3, 52, 0
5, 3744, Note_on_c, 3, 57, 93
5, 3810, Note_off_c, 3, 57, 0
5, 3840, Note_on_c, 3, 45, 93
5, 3870, Note_off_c, 3, 45, 0
5, 3888, Note_on_c, 3, 57, 93
5, 3936, Note_off_c, 3, 57, 0
5, 3936, Note_on_c, 3, 59, 93
5, 3984, Note_off_c, 3, 59, 0
5, 3984, Note_on_c, 3, 61, 93
5, 4032, Note_off_c, 3, 61, 0
5, 4032, Note_on_c, 3, 57, 93
5, 4080, Note_off_c, 3, 57, 0
5, 4080, Note_on_c, 3, 59, 93
5, 4128, Note_off_c, 3, 59, 0
5, 4128, Note_on_c, 3, 61, 93
5, 4224, Note_off_c, 3, 61, 0
5, 4224, Note_on_c, 3, 62, 93
5, 4272, Note_off_c, 3, 62, 0
5, 4272, Note_on_c, 3, 61, 93
5, 4302, Note_off_c, 3, 61, 0
5, 4320, Note_on_c, 3, 57, 93
5, 4350, Note_off_c, 3, 57, 0
5, 4368, Note_on_c, 3, 45, 93
5, 4398, Note_off_c, 3, 45, 0
5, 4416, Note_on_c, 3, 45, 67
5, 4446, Note_off_c, 3, 45, 0
5, 4464, Note_on_c, 3, 57, 67
5, 4512, Note_off_c, 3, 57, 0
5, 4512, Note_on_c, 3, 59, 67
5, 4560, Note_off_c, 3, 59, 0
5, 4560, Note_on_c, 3, 61, 67
5, 4608, Note_off_c, 3, 61, 0
5, 4608, Note_on_c, 3, 57, 67
5, 4656, Note_off_c, 3, 57, 0
5, 4656, Note_on_c, 3, 59, 67
5, 4704, Note_off_c, 3, 59, 0
5, 4704, Note_on_c, 3, 61, 67
5, 4800, Note_off_c, 3, 61, 0
5, 4800, Note_on_c, 3, 62, 67
5, 4848, Note_off_c, 3, 62, 0
5, 4848, Note_on_c, 3, 61, 67
5, 4878, Note_off_c, 3, 61, 0
5, 4896, Note_on_c, 3, 57, 67
5, 4926, Note_off_c, 3, 57, 0
5, 4944, Note_on_c, 3, 57, 93
5, 4974, Note_off_c, 3, 57, 0
5, 4992, Note_on_c, 3, 59, 93
5, 5040, Note_off_c, 3, 59, 0
5, 5040, Note_on_c, 3, 56, 93
5, 5070, Note_off_c, 3, 56, 0
5, 5088, Note_on_c, 3, 56, 93
5, 5118, Note_off_c, 3, 56, 0
5, 5136, Note_on_c, 3, 57, 93
5, 5184, Note_off_c, 3, 57, 0
5, 5184, Note_on_c, 3, 45, 93
5, 5232, Note_off_c, 3, 45, 0
5, 5232, Note_on_c, 3, 49, 93
5, 5280, Note_off_c, 3, 49, 0
5, 5280, Note_on_c, 3, 50, 93
5, 5328, Note_off_c, 3, 50, 0
5, 5328, Note_on_c, 3, 49, 93
5, 5352, Note_off_c, 3, 49, 0
5, 5352, Note_on_c, 3, 50, 93
5, 5376, Note_off_c, 3, 50, 0
5, 5376, Note_on_c, 3, 52, 93
5, 5424, Note_off_c, 3, 52, 0
5, 5424, Note_on_c, 3, 45, 93
5, 5490, Note_off_c, 3, 45, 0
5, 5520, Note_on_c, 3, 57, 67
5, 5550, Note_off_c, 3, 57, 0
5, 5568, Note_on_c, 3, 59, 67
5, 5616, Note_off_c, 3, 59, 0
5, 5616, Note_on_c, 3, 56, 67
5, 5646, Note_off_c, 3, 56, 0
5, 5664, Note_on_c, 3, 56, 67
5, 5694, Note_off_c, 3, 56, 0
5, 5712, Note_on_c, 3, 57, 67
5, 5760, Note_off_c, 3, 57, 0
5, 5760, Note_on_c, 3, 45, 67
5, 5808, Note_off_c, 3, 45, 0
5, 5808, Note_on_c, 3, 49, 67
5, 5856, Note_off_c, 3, 49, 0
5, 5856, Note_on_c, 3, 50, 67
5, 5904, Note_off_c, 3, 50, 0
5, 5904, Note_on_c, 3, 49, 67
5, 5928, Note_off_c, 3, 49, 0
5, 5928, Note_on_c, 3, 50, 67
5, 5952, Note_off_c, 3, 50, 0
5, 5952, Note_on_c, 3, 52, 67
5, 6000, Note_off_c, 3, 52, 0
5, 6000, Note_on_c, 3, 45, 67
5, 6066, Note_off_c, 3, 45, 0
5, 6096, Note_on_c, 3, 52, 93
5, 6126, Note_off_c, 3, 52, 0
5, 6144, Note_on_c, 3, 52, 93
5, 6174, Note_off_c, 3, 52, 0
5, 6192, Note_on_c, 3, 52, 93
5, 6222, Note_off_c, 3, 52, 0
5, 6240, Note_on_c, 3, 47, 93
5, 6270, Note_off_c, 3, 47, 0
5, 6288, Note_on_c, 3, 47, 93
5, 6318, Note_off_c, 3, 47, 0
5, 6336, Note_on_c, 3, 52, 93
5, 6402, Note_off_c, 3, 52, 0
5, 6480, Note_on_c, 3, 52, 93
5, 6510, Note_off_c, 3, 52, 0
5, 6528, Note_on_c, 3, 52, 93
5, 6558, Note_off_c, 3, 52, 0
5, 6576, Note_on_c, 3, 52, 93
5, 6606, Note_off_c, 3, 52, 0
5, 6624, Note_on_c, 3, 47, 93
5, 6654, Note_off_c, 3, 47, 0
5, 6672, Note_on_c, 3, 47, 93
5, 6702, Note_off_c, 3, 47, 0
5, 6720, Note_on_c, 3, 52, 93
5, 6750, Note_off_c, 3, 52, 0
5, 6768, Note_on_c, 3, 52, 93
5, 6798, Note_off_c, 3, 52, 0
5, 6816, Note_on_c, 3, 52, 93
5, 6846, Note_off_c, 3, 52, 0
5, 6864, Note_on_c, 3, 52, 93
5, 6894, Note_off_c, 3, 52, 0
5, 6912, Note_on_c, 3, 52, 93
5, 6942, Note_off_c, 3, 52, 0
5, 6960, Note_on_c, 3, 52, 93
5, 6990, Note_off_c, 3, 52, 0
5, 7008, Note_on_c, 3, 47, 93
5, 7038, Note_off_c, 3, 47, 0
5, 7056, Note_on_c, 3, 47, 93
5, 7086, Note_off_c, 3, 47, 0
5, 7104, Note_on_c, 3, 52, 93
5, 7170, Note_off_c, 3, 52, 0
5, 7248, Note_on_c, 3, 52, 93
5, 7278, Note_off_c, 3, 52, 0
5, 7296, Note_on_c, 3, 52, 93
5, 7326, Note_off_c, 3, 52, 0
5, 7344, Note_on_c, 3, 52, 93
5, 7374, Note_off_c, 3, 52, 0
5, 7392, Note_on_c, 3, 47, 93
5, 7422, Note_off_c, 3, 47, 0
5, 7440, Note_on_c, 3, 47, 93
5, 7470, Note_off_c, 3, 47, 0
5, 7488, Note_on_c, 3, 52, 93
5, 7518, Note_off_c, 3, 52, 0
5, 7536, Note_on_c, 3, 40, 93
5, 7566, Note_off_c, 3, 40, 0
5, 7584, Note_on_c, 3, 52, 93
5, 7614, Note_off_c, 3, 52, 0
5, 7680, Note_on_c, 3, 52, 93
5, 7710, Note_off_c, 3, 52, 0
5, 7728, Note_on_c, 3, 52, 93
5, 7758, Note_off_c, 3, 52, 0
5, 7776, Note_on_c, 3, 52, 93
5, 7806, Note_off_c, 3, 52, 0
5, 7872, Note_on_c, 3, 52, 93
5, 7902, Note_off_c, 3, 52, 0
5, 7920, Note_on_c, 3, 52, 93
5, 7950, Note_off_c, 3, 52, 0
5, 7968, Note_on_c, 3, 52, 93
5, 7998, Note_off_c, 3, 52, 0
5, 8064, Note_on_c, 3, 57, 93
5, 8130, Note_off_c, 3, 57, 0
5, 8160, Note_on_c, 3, 52, 93
5, 8226, Note_off_c, 3, 52, 0
5, 8256, Note_on_c, 3, 45, 93
5, 8286, Note_off_c, 3, 45, 0
5, 8304, Note_on_c, 3, 45, 93
5, 8334, Note_off_c, 3, 45, 0
5, 8352, Note_on_c, 3, 45, 93
5, 8382, Note_off_c, 3, 45, 0
5, 8448, Note_on_c, 3, 52, 93
5, 8478, Note_off_c, 3, 52, 0
5, 8496, Note_on_c, 3, 52, 93
5, 8526, Note_off_c, 3, 52, 0
5, 8544, Note_on_c, 3, 52, 93
5, 8574, Note_off_c, 3, 52, 0
5, 8640, Note_on_c, 3, 52, 93
5, 8670, Note_off_c, 3, 52, 0
5, 8688, Note_on_c, 3, 52, 93
5, 8718, Note_off_c, 3, 52, 0
5, 8736, Note_on_c, 3, 52, 93
5, 8766, Note_off_c, 3, 52, 0
5, 8832, Note_on_c, 3, 57, 93
5, 8898, Note_off_c, 3, 57, 0
5, 8928, Note_on_c, 3, 52, 93
5, 8994, Note_off_c, 3, 52, 0
5, 9024, Note_on_c, 3, 45, 93
5, 9054, Note_off_c, 3, 45, 0
5, 9072, Note_on_c, 3, 57, 93
5, 9096, Note_off_c, 3, 57, 0
5, 9096, Note_on_c, 3, 59, 93
5, 9120, Note_off_c, 3, 59, 0
5, 9120, Note_on_c, 3, 60, 93
5, 9168, Note_off_c, 3, 60, 0
5, 9168, Note_on_c, 3, 59, 93
5, 9216, Note_off_c, 3, 59, 0
5, 9216, Note_on_c, 3, 57, 93
5, 9264, Note_off_c, 3, 57, 0
5, 9264, Note_on_c, 3, 55, 93
5, 9312, Note_off_c, 3, 55, 0
5, 9312, Note_on_c, 3, 53, 93
5, 9360, Note_off_c, 3, 53, 0
5, 9360, Note_on_c, 3, 52, 93
5, 9390, Note_off_c, 3, 52, 0
5, 9408, Note_on_c, 3, 52, 93
5, 9558, Note_off_c, 3, 52, 0
5, 9600, Note_on_c, 3, 50, 93
5, 9648, Note_off_c, 3, 50, 0
5, 9648, Note_on_c, 3, 52, 93
5, 9696, Note_off_c, 3, 52, 0
5, 9696, Note_on_c, 3, 53, 93
5, 9744, Note_off_c, 3, 53, 0
5, 9744, Note_on_c, 3, 52, 93
5, 9792, Note_off_c, 3, 52, 0
5, 9792, Note_on_c, 3, 50, 93
5, 9840, Note_off_c, 3, 50, 0
5, 9840, Note_on_c, 3, 48, 93
5, 9888, Note_off_c, 3, 48, 0
5, 9888, Note_on_c, 3, 47, 93
5, 9936, Note_off_c, 3, 47, 0
5, 9936, Note_on_c, 3, 45, 93
5, 9966, Note_off_c, 3, 45, 0
5, 9984, Note_on_c, 3, 45, 93
5, 10110, Note_off_c, 3, 45, 0
5, 10176, Note_on_c, 3, 45, 67
5, 10206, Note_off_c, 3, 45, 0
5, 10224, Note_on_c, 3, 57, 67
5, 10248, Note_off_c, 3, 57, 0
5, 10248, Note_on_c, 3, 59, 67
5, 10272, Note_off_c, 3, 59, 0
5, 10272, Note_on_c, 3, 60, 67
5, 10320, Note_off_c, 3, 60, 0
5, 10320, Note_on_c, 3, 59, 67
5, 10368, Note_off_c, 3, 59, 0
5, 10368, Note_on_c, 3, 57, 67
5, 10416, Note_off_c, 3, 57, 0
5, 10416, Note_on_c, 3, 55, 67
5, 10464, Note_off_c, 3, 55, 0
5, 10464, Note_on_c, 3, 53, 67
5, 10512, Note_off_c, 3, 53, 0
5, 10512, Note_on_c, 3, 52, 67
5, 10542, Note_off_c, 3, 52, 0
5, 10560, Note_on_c, 3, 52, 67
5, 10710, Note_off_c, 3, 52, 0
5, 10752, Note_on_c, 3, 50, 67
5, 10800, Note_off_c, 3, 50, 0
5, 10800, Note_on_c, 3, 52, 67
5, 10848, Note_off_c, 3, 52, 0
5, 10848, Note_on_c, 3, 53, 67
5, 10896, Note_off_c, 3, 53, 0
5, 10896, Note_on_c, 3, 52, 67
5, 10944, Note_off_c, 3, 52, 0
5, 10944, Note_on_c, 3, 50, 67
5, 10992, Note_off_c, 3, 50, 0
5, 10992, Note_on_c, 3, 48, 67
5, 11040, Note_off_c, 3, 48, 0
5, 11040, Note_on_c, 3, 47, 67
5, 11088, Note_off_c, 3, 47, 0
5, 11088, Note_on_c, 3, 45, 67
5, 11118, Note_off_c, 3, 45, 0
5, 11136, Note_on_c, 3, 45, 67
5, 11262, Note_off_c, 3, 45, 0
5, 11328, Note_on_c, 3, 53, 93
5, 11376, Note_off_c, 3, 53, 0
5, 11376, Note_on_c, 3, 52, 93
5, 11406, Note_off_c, 3, 52, 0
5, 11424, Note_on_c, 3, 52, 93
5, 11574, Note_off_c, 3, 52, 0
5, 11616, Note_on_c, 3, 46, 93
5, 11664, Note_off_c, 3, 46, 0
5, 11664, Note_on_c, 3, 45, 93
5, 11694, Note_off_c, 3, 45, 0
5, 11712, Note_on_c, 3, 45, 93
5, 11838, Note_off_c, 3, 45, 0
5, 11904, Note_on_c, 3, 50, 93
5, 11952, Note_off_c, 3, 50, 0
5, 11952, Note_on_c, 3, 52, 93
5, 12000, Note_off_c, 3, 52, 0
5, 12000, Note_on_c, 3, 53, 93
5, 12048, Note_off_c, 3, 53, 0
5, 12048, Note_on_c, 3, 52, 93
5, 12096, Note_off_c, 3, 52, 0
5, 12096, Note_on_c, 3, 50, 93
5, 12144, Note_off_c, 3, 50, 0
5, 12144, Note_on_c, 3, 48, 93
5, 12192, Note_off_c, 3, 48, 0
5, 12192, Note_on_c, 3, 47, 93
5, 12240, Note_off_c, 3, 47, 0
5, 12240, Note_on_c, 3, 45, 93
5, 12270, Note_off_c, 3, 45, 0
5, 12288, Note_on_c, 3, 45, 93
5, 12414, Note_off_c, 3, 45, 0
5, 12480, Note_on_c, 3, 53, 67
5, 12528, Note_off_c, 3, 53, 0
5, 12528, Note_on_c, 3, 52, 67
5, 12558, Note_off_c, 3, 52, 0
5, 12576, Note_on_c, 3, 52, 67
5, 12726, Note_off_c, 3, 52, 0
5, 12768, Note_on_c, 3, 46, 67
5, 12816, Note_off_c, 3, 46, 0
5, 12816, Note_on_c, 3, 45, 67
5, 12846, Note_off_c, 3, 45, 0
5, 12864, Note_on_c, 3, 45, 67
5, 12990, Note_off_c, 3, 45, 0
5, 13056, Note_on_c, 3, 50, 67
5, 13104, Note_off_c, 3, 50, 0
5, 13104, Note_on_c, 3, 52, 67
5, 13152, Note_off_c, 3, 52, 0
5, 13152, Note_on_c, 3, 53, 67
5, 13200, Note_off_c, 3, 53, 0
5, 13200, Note_on_c, 3, 52, 67
5, 13248, Note_off_c, 3, 52, 0
5, 13248, Note_on_c, 3, 50, 67
5, 13296, Note_off_c, 3, 50, 0
5, 13296, Note_on_c, 3, 48, 67
5, 13344, Note_off_c, 3, 48, 0
5, 13344, Note_on_c, 3, 47, 67
5, 13392, Note_off_c, 3, 47, 0
5, 13392, Note_on_c, 3, 45, 67
5, 13422, Note_off_c, 3, 45, 0
5, 13440, Note_on_c, 3, 45, 67
5, 13566, Note_off_c, 3, 45, 0
5, 13632, Note_on_c, 3, 57, 93
5, 13656, Note_off_c, 3, 57, 0
5, 13656, Note_on_c, 3, 60, 93
5, 13680, Note_off_c, 3, 60, 0
5, 13680, Note_on_c, 3, 59, 93
5, 13704, Note_off_c, 3, 59, 0
5, 13704, Note_on_c, 3, 60, 93
5, 13728, Note_off_c, 3, 60, 0
5, 13728, Note_on_c, 3, 62, 93
5, 13758, Note_off_c, 3, 62, 0
5, 13776, Note_on_c, 3, 60, 93
5, 13806, Note_off_c, 3, 60, 0
5, 13824, Note_on_c, 3, 59, 93
5, 13854, Note_off_c, 3, 59, 0
5, 13872, Note_on_c, 3, 56, 93
5, 13902, Note_off_c, 3, 56, 0
5, 13920, Note_on_c, 3, 57, 93
5, 13950, Note_off_c, 3, 57, 0
5, 13968, Note_on_c, 3, 45, 93
5, 13998, Note_off_c, 3, 45, 0
5, 14016, Note_on_c, 3, 50, 93
5, 14064, Note_off_c, 3, 50, 0
5, 14064, Note_on_c, 3, 52, 93
5, 14088, Note_off_c, 3, 52, 0
5, 14088, Note_on_c, 3, 53, 93
5, 14112, Note_off_c, 3, 53, 0
5, 14112, Note_on_c, 3, 52, 93
5, 14142, Note_off_c, 3, 52, 0
5, 14160, Note_on_c, 3, 40, 93
5, 14190, Note_off_c, 3, 40, 0
5, 14208, Note_on_c, 3, 45, 93
5, 14274, Note_off_c, 3, 45, 0
5, 14352, Note_on_c, 3, 57, 93
5, 14370, Note_off_c, 3, 57, 0
5, 14376, Note_on_c, 3, 59, 93
5, 14394, Note_off_c, 3, 59, 0
5, 14400, Note_on_c, 3, 60, 93
5, 14430, Note_off_c, 3, 60, 0
5, 14448, Note_on_c, 3, 59, 93
5, 14472, Note_off_c, 3, 59, 0
5, 14472, Note_on_c, 3, 60, 93
5, 14496, Note_off_c, 3, 60, 0
5, 14496, Note_on_c, 3, 62, 93
5, 14526, Note_off_c, 3, 62, 0
5, 14544, Note_on_c, 3, 60, 93
5, 14574, Note_off_c, 3, 60, 0
5, 14592, Note_on_c, 3, 59, 93
5, 14622, Note_off_c, 3, 59, 0
5, 14640, Note_on_c, 3, 56, 93
5, 14670, Note_off_c, 3, 56, 0
5, 14688, Note_on_c, 3, 57, 93
5, 14718, Note_off_c, 3, 57, 0
5, 14736, Note_on_c, 3, 45, 93
5, 14766, Note_off_c, 3, 45, 0
5, 14784, Note_on_c, 3, 50, 93
5, 14832, Note_off_c, 3, 50, 0
5, 14832, Note_on_c, 3, 52, 93
5, 14856, Note_off_c, 3, 52, 0
5, 14856, Note_on_c, 3, 53, 93
5, 14880, Note_off_c, 3, 53, 0
5, 14880, Note_on_c, 3, 52, 93
5, 14910, Note_off_c, 3, 52, 0
5, 14928, Note_on_c, 3, 40, 93
5, 14958, Note_off_c, 3, 40, 0
5, 14976, Note_on_c, 3, 45, 93
5, 15042, Note_off_c, 3, 45, 0
5, 15072, Note_on_c, 3, 45, 93
5, 15138, Note_off_c, 3, 45, 0
5, 15168, Note_on_c, 3, 45, 93
5, 15234, Note_off_c, 3, 45, 0
5, 15264, Note_on_c, 3, 45, 93
5, 15330, Note_off_c, 3, 45, 0
5, 15360, Note_on_c, 3, 45, 93
5, 15426, Note_off_c, 3, 45, 0
5, 15456, Note_on_c, 3, 45, 93
5, 15522, Note_off_c, 3, 45, 0
5, 15552, Note_on_c, 3, 45, 93
5, 15618, Note_off_c, 3, 45, 0
5, 15648, Note_on_c, 3, 45, 93
5, 15714, Note_off_c, 3, 45, 0
5, 15744, Note_on_c, 3, 45, 93
5, 15810, Note_off_c, 3, 45, 0
5, 15840, Note_on_c, 3, 45, 93
5, 15906, Note_off_c, 3, 45, 0
5, 15936, Note_on_c, 3, 45, 93
5, 16002, Note_off_c, 3, 45, 0
5, 16032, Note_on_c, 3, 45, 67
5, 16098, Note_off_c, 3, 45, 0
5, 16128, Note_on_c, 3, 45, 67
5, 16194, Note_off_c, 3, 45, 0
5, 16224, Note_on_c, 3, 45, 67
5, 16290, Note_off_c, 3, 45, 0
5, 16320, Note_on_c, 3, 45, 67
5, 16386, Note_off_c, 3, 45, 0
5, 16416, Note_on_c, 3, 45, 67
5, 16482, Note_off_c, 3, 45, 0
5, 16512, Note_on_c, 3, 45, 67
5, 16578, Note_off_c, 3, 45, 0
5, 16608, Note_on_c, 3, 45, 67
5, 16674, Note_off_c, 3, 45, 0
5, 16704, Note_on_c, 3, 45, 67
5, 16770, Note_off_c, 3, 45, 0
5, 16800, Note_on_c, 3, 45, 67
5, 16866, Note_off_c, 3, 45, 0
5, 16896, Note_on_c, 3, 45, 67
5, 16962, Note_off_c, 3, 45, 0
5, 16992, Note_on_c, 3, 45, 67
5, 17142, Note_off_c, 3, 45, 0
5, 17184, Note_on_c, 3, 62, 93
5, 17232, Note_off_c, 3, 62, 0
5, 17232, Note_on_c, 3, 61, 93
5, 17262, Note_off_c, 3, 61, 0
5, 17280, Note_on_c, 3, 61, 93
5, 17328, Note_off_c, 3, 61, 0
5, 17328, Note_on_c, 3, 59, 93
5, 17358, Note_off_c, 3, 59, 0
5, 17376, Note_on_c, 3, 59, 93
5, 17424, Note_off_c, 3, 59, 0
5, 17424, Note_on_c, 3, 57, 93
5, 17454, Note_off_c, 3, 57, 0
5, 17472, Note_on_c, 3, 59, 93
5, 17520, Note_off_c, 3, 59, 0
5, 17520, Note_on_c, 3, 57, 93
5, 17550, Note_off_c, 3, 57, 0
5, 17568, Note_on_c, 3, 59, 93
5, 17634, Note_off_c, 3, 59, 0
5, 17664, Note_on_c, 3, 52, 93
5, 17730, Note_off_c, 3, 52, 0
5, 17760, Note_on_c, 3, 61, 93
5, 17808, Note_off_c, 3, 61, 0
5, 17808, Note_on_c, 3, 59, 93
5, 17838, Note_off_c, 3, 59, 0
5, 17856, Note_on_c, 3, 59, 93
5, 17904, Note_off_c, 3, 59, 0
5, 17904, Note_on_c, 3, 57, 93
5, 17934, Note_off_c, 3, 57, 0
5, 17952, Note_on_c, 3, 57, 93
5, 18000, Note_off_c, 3, 57, 0
5, 18000, Note_on_c, 3, 56, 93
5, 18030, Note_off_c, 3, 56, 0
5, 18048, Note_on_c, 3, 57, 93
5, 18096, Note_off_c, 3, 57, 0
5, 18096, Note_on_c, 3, 56, 93
5, 18126, Note_off_c, 3, 56, 0
5, 18144, Note_on_c, 3, 57, 93
5, 18210, Note_off_c, 3, 57, 0
5, 18240, Note_on_c, 3, 45, 93
5, 18306, Note_off_c, 3, 45, 0
5, 18624, Note_on_c, 3, 57, 93
5, 18654, Note_off_c, 3, 57, 0
5, 18672, Note_on_c, 3, 61, 93
5, 18702, Note_off_c, 3, 61, 0
5, 18720, Note_on_c, 3, 59, 93
5, 18816, Note_off_c, 3, 59, 0
5, 18816, Note_on_c, 3, 57, 93
5, 18882, Note_off_c, 3, 57, 0
5, 18912, Note_on_c, 3, 57, 93
5, 18960, Note_off_c, 3, 57, 0
5, 18960, Note_on_c, 3, 56, 93
5, 19008, Note_off_c, 3, 56, 0
5, 19008, Note_on_c, 3, 54, 93
5, 19056, Note_off_c, 3, 54, 0
5, 19056, Note_on_c, 3, 52, 93
5, 19104, Note_off_c, 3, 52, 0
5, 19104, Note_on_c, 3, 50, 93
5, 19152, Note_off_c, 3, 50, 0
5, 19152, Note_on_c, 3, 49, 93
5, 19200, Note_off_c, 3, 49, 0
5, 19200, Note_on_c, 3, 47, 93
5, 19248, Note_off_c, 3, 47, 0
5, 19248, Note_on_c, 3, 52, 93
5, 19296, Note_off_c, 3, 52, 0
5, 19296, Note_on_c, 3, 45, 93
5, 19422, Note_off_c, 3, 45, 0
5, 19488, Note_on_c, 3, 62, 93
5, 19536, Note_off_c, 3, 62, 0
5, 19536, Note_on_c, 3, 61, 93
5, 19566, Note_off_c, 3, 61, 0
5, 19584, Note_on_c, 3, 61, 93
5, 19632, Note_off_c, 3, 61, 0
5, 19632, Note_on_c, 3, 59, 93
5, 19662, Note_off_c, 3, 59, 0
5, 19680, Note_on_c, 3, 59, 93
5, 19728, Note_off_c, 3, 59, 0
5, 19728, Note_on_c, 3, 57, 93
5, 19758, Note_off_c, 3, 57, 0
5, 19776, Note_on_c, 3, 59, 93
5, 19824, Note_off_c, 3, 59, 0
5, 19824, Note_on_c, 3, 57, 93
5, 19854, Note_off_c, 3, 57, 0
5, 19872, Note_on_c, 3, 59, 93
5, 19938, Note_off_c, 3, 59, 0
5, 19968, Note_on_c, 3, 52, 93
5, 20034, Note_off_c, 3, 52, 0
5, 20064, Note_on_c, 3, 61, 93
5, 20112, Note_off_c, 3, 61, 0
5, 20112, Note_on_c, 3, 59, 93
5, 20142, Note_off_c, 3, 59, 0
5, 20160, Note_on_c, 3, 59, 93
5, 20208, Note_off_c, 3, 59, 0
5, 20208, Note_on_c, 3, 57, 93
5, 20238, Note_off_c, 3, 57, 0
5, 20256, Note_on_c, 3, 57, 93
5, 20304, Note_off_c, 3, 57, 0
5, 20304, Note_on_c, 3, 56, 93
5, 20334, Note_off_c, 3, 56, 0
5, 20352, Note_on_c, 3, 57, 93
5, 20400, Note_off_c, 3, 57, 0
5, 20400, Note_on_c, 3, 56, 93
5, 20430, Note_off_c, 3, 56, 0
5, 20448, Note_on_c, 3, 57, 93
5, 20514, Note_off_c, 3, 57, 0
5, 20544, Note_on_c, 3, 45, 93
5, 20610, Note_off_c, 3, 45, 0
5, 20928, Note_on_c, 3, 57, 93
5, 20958, Note_off_c, 3, 57, 0
5, 20976, Note_on_c, 3, 61, 93
5, 21006, Note_off_c, 3, 61, 0
5, 21024, Note_on_c, 3, 59, 93
5, 21120, Note_off_c, 3, 59, 0
5, 21120, Note_on_c, 3, 57, 93
5, 21186, Note_off_c, 3, 57, 0
5, 21648, Note_on_c, 3, 45, 93
5, 21696, Note_off_c, 3, 45, 0
5, 21696, Note_on_c, 3, 49, 93
5, 21744, Note_off_c, 3, 49, 0
5, 21744, Note_on_c, 3, 52, 93
5, 21792, Note_off_c, 3, 52, 0
5, 21792, Note_on_c, 3, 57, 93
5, 21822, Note_off_c, 3, 57, 0
5, 21840, Note_on_c, 3, 56, 93
5, 21870, Note_off_c, 3, 56, 0
5, 21888, Note_on_c, 3, 54, 93
5, 21918, Note_off_c, 3, 54, 0
5, 21936, Note_on_c, 3, 52, 93
5, 21966, Note_off_c, 3, 52, 0
5, 21984, Note_on_c, 3, 50, 93
5, 22014, Note_off_c, 3, 50, 0
5, 22032, Note_on_c, 3, 49, 93
5, 22062, Note_off_c, 3, 49, 0
5, 22080, Note_on_c, 3, 47, 93
5, 22110, Note_off_c, 3, 47, 0
5, 22128, Note_on_c, 3, 52, 93
5, 22158, Note_off_c, 3, 52, 0
5, 22176, Note_on_c, 3, 45, 93
5, 22560, Note_off_c, 3, 45, 0
5, 22560, End_track
6, 0, Start_track
6, 0, Title_t, "Track6"
6, 0, Control_c, 4, 0, 0
6, 0, Control_c, 4, 32, 0
6, 0, Program_c, 4, 42
6, 0, Control_c, 4, 7, 97
6, 0, Control_c, 4, 10, 93
6, 288, Note_on_c, 4, 45, 93
6, 354, Note_off_c, 4, 45, 0
6, 384, Note_on_c, 4, 45, 93
6, 450, Note_off_c, 4, 45, 0
6, 480, Note_on_c, 4, 45, 93
6, 546, Note_off_c, 4, 45, 0
6, 576, Note_on_c, 4, 45, 93
6, 642, Note_off_c, 4, 45, 0
6, 672, Note_on_c, 4, 45, 93
6, 738, Note_off_c, 4, 45, 0
6, 768, Note_on_c, 4, 45, 93
6, 834, Note_off_c, 4, 45, 0
6, 864, Note_on_c, 4, 45, 93
6, 930, Note_off_c, 4, 45, 0
6, 960, Note_on_c, 4, 45, 93
6, 1026, Note_off_c, 4, 45, 0
6, 1056, Note_on_c, 4, 45, 93
6, 1122, Note_off_c, 4, 45, 0
6, 1152, Note_on_c, 4, 45, 93
6, 1218, Note_off_c, 4, 45, 0
6, 1248, Note_on_c, 4, 45, 93
6, 1314, Note_off_c, 4, 45, 0
6, 1344, Note_on_c, 4, 45, 67
6, 1410, Note_off_c, 4, 45, 0
6, 1440, Note_on_c, 4, 45, 67
6, 1506, Note_off_c, 4, 45, 0
6, 1536, Note_on_c, 4, 45, 67
6, 1602, Note_off_c, 4, 45, 0
6, 1632, Note_on_c, 4, 45, 67
6, 1698, Note_off_c, 4, 45, 0
6, 1728, Note_on_c, 4, 45, 67
6, 1794, Note_off_c, 4, 45, 0
6, 1824, Note_on_c, 4, 45, 67
6, 1890, Note_off_c, 4, 45, 0
6, 1920, Note_on_c, 4, 45, 67
6, 1986, Note_off_c, 4, 45, 0
6, 2016, Note_on_c, 4, 45, 67
6, 2082, Note_off_c, 4, 45, 0
6, 2112, Note_on_c, 4, 45, 67
6, 2178, Note_off_c, 4, 45, 0
6, 2208, Note_on_c, 4, 45, 67
6, 2274, Note_off_c, 4, 45, 0
6, 2304, Note_on_c, 4, 45, 93
6, 2334, Note_off_c, 4, 45, 0
6, 2352, Note_on_c, 4, 57, 93
6, 2370, Note_off_c, 4, 57, 0
6, 2376, Note_on_c, 4, 59, 93
6, 2394, Note_off_c, 4, 59, 0
6, 2400, Note_on_c, 4, 61, 93
6, 2430, Note_off_c, 4, 61, 0
6, 2448, Note_on_c, 4, 62, 93
6, 2478, Note_off_c, 4, 62, 0
6, 2496, Note_on_c, 4, 61, 93
6, 2544, Note_off_c, 4, 61, 0
6, 2544, Note_on_c, 4, 59, 93
6, 2574, Note_off_c, 4, 59, 0
6, 2592, Note_on_c, 4, 57, 93
6, 2658, Note_off_c, 4, 57, 0
6, 2688, Note_on_c, 4, 57, 93
6, 2754, Note_off_c, 4, 57, 0
6, 2784, Note_on_c, 4, 59, 93
6, 2814, Note_off_c, 4, 59, 0
6, 2832, Note_on_c, 4, 57, 93
6, 2862, Note_off_c, 4, 57, 0
6, 2880, Note_on_c, 4, 52, 93
6, 2910, Note_off_c, 4, 52, 0
6, 2928, Note_on_c, 4, 56, 93
6, 2958, Note_off_c, 4, 56, 0
6, 2976, Note_on_c, 4, 57, 93
6, 3042, Note_off_c, 4, 57, 0
6, 3072, Note_on_c, 4, 45, 93
6, 3102, Note_off_c, 4, 45, 0
6, 3120, Note_on_c, 4, 57, 93
6, 3138, Note_off_c, 4, 57, 0
6, 3144, Note_on_c, 4, 59, 93
6, 3162, Note_off_c, 4, 59, 0
6, 3168, Note_on_c, 4, 61, 93
6, 3198, Note_off_c, 4, 61, 0
6, 3216, Note_on_c, 4, 62, 93
6, 3246, Note_off_c, 4, 62, 0
6, 3264, Note_on_c, 4, 61, 93
6, 3312, Note_off_c, 4, 61, 0
6, 3312, Note_on_c, 4, 59, 93
6, 3342, Note_off_c, 4, 59, 0
6, 3360, Note_on_c, 4, 57, 93
6, 3426, Note_off_c, 4, 57, 0
6, 3456, Note_on_c, 4, 45, 93
6, 3486, Note_off_c, 4, 45, 0
6, 3504, Note_on_c, 4, 57, 93
6, 3534, Note_off_c, 4, 57, 0
6, 3552, Note_on_c, 4, 59, 93
6, 3582, Note_off_c, 4, 59, 0
6, 3600, Note_on_c, 4, 57, 93
6, 3630, Note_off_c, 4, 57, 0
6, 3648, Note_on_c, 4, 56, 93
6, 3696, Note_off_c, 4, 56, 0
6, 3696, Note_on_c, 4, 52, 93
6, 3726, Note_off_c, 4, 52, 0
6, 3744, Note_on_c, 4, 57, 93
6, 3810, Note_off_c, 4, 57, 0
6, 3840, Note_on_c, 4, 45, 93
6, 3870, Note_off_c, 4, 45, 0
6, 3888, Note_on_c, 4, 57, 93
6, 3936, Note_off_c, 4, 57, 0
6, 3936, Note_on_c, 4, 59, 93
6, 3984, Note_off_c, 4, 59, 0
6, 3984, Note_on_c, 4, 61, 93
6, 4032, Note_off_c, 4, 61, 0
6, 4032, Note_on_c, 4, 57, 93
6, 4080, Note_off_c, 4, 57, 0
6, 4080, Note_on_c, 4, 59, 93
6, 4128, Note_off_c, 4, 59, 0
6, 4128, Note_on_c, 4, 61, 93
6, 4224, Note_off_c, 4, 61, 0
6, 4224, Note_on_c, 4, 62, 93
6, 4272, Note_off_c, 4, 62, 0
6, 4272, Note_on_c, 4, 61, 93
6, 4302, Note_off_c, 4, 61, 0
6, 4320, Note_on_c, 4, 57, 93
6, 4350, Note_off_c, 4, 57, 0
6, 4368, Note_on_c, 4, 45, 93
6, 4398, Note_off_c, 4, 45, 0
6, 4416, Note_on_c, 4, 45, 67
6, 4446, Note_off_c, 4, 45, 0
6, 4464, Note_on_c, 4, 57, 67
6, 4512, Note_off_c, 4, 57, 0
6, 4512, Note_on_c, 4, 59, 67
6, 4560, Note_off_c, 4, 59, 0
6, 4560, Note_on_c, 4, 61, 67
6, 4608, Note_off_c, 4, 61, 0
6, 4608, Note_on_c, 4, 57, 67
6, 4656, Note_off_c, 4, 57, 0
6, 4656, Note_on_c, 4, 59, 67
6, 4704, Note_off_c, 4, 59, 0
6, 4704, Note_on_c, 4, 61, 67
6, 4800, Note_off_c, 4, 61, 0
6, 4800, Note_on_c, 4, 62, 67
6, 4848, Note_off_c, 4, 62, 0
6, 4848, Note_on_c, 4, 61, 67
6, 4878, Note_off_c, 4, 61, 0
6, 4896, Note_on_c, 4, 57, 67
6, 4926, Note_off_c, 4, 57, 0
6, 4944, Note_on_c, 4, 57, 93
6, 4974, Note_off_c, 4, 57, 0
6, 4992, Note_on_c, 4, 59, 93
6, 5040, Note_off_c, 4, 59, 0
6, 5040, Note_on_c, 4, 56, 93
6, 5070, Note_off_c, 4, 56, 0
6, 5088, Note_on_c, 4, 56, 93
6, 5118, Note_off_c, 4, 56, 0
6, 5136, Note_on_c, 4, 57, 93
6, 5184, Note_off_c, 4, 57, 0
6, 5184, Note_on_c, 4, 45, 93
6, 5232, Note_off_c, 4, 45, 0
6, 5232, Note_on_c, 4, 49, 93
6, 5280, Note_off_c, 4, 49, 0
6, 5280, Note_on_c, 4, 50, 93
6, 5328, Note_off_c, 4, 50, 0
6, 5328, Note_on_c, 4, 49, 93
6, 5352, Note_off_c, 4, 49, 0
6, 5352, Note_on_c, 4, 50, 93
6, 5376, Note_off_c, 4, 50, 0
6, 5376, Note_on_c, 4, 52, 93
6, 5424, Note_off_c, 4, 52, 0
6, 5424, Note_on_c, 4, 45, 93
6, 5490, Note_off_c, 4, 45, 0
6, 5520, Note_on_c, 4, 57, 67
6, 5550, Note_off_c, 4, 57, 0
6, 5568, Note_on_c, 4, 59, 67
6, 5616, Note_off_c, 4, 59, 0
6, 5616, Note_on_c, 4, 56, 67
6, 5646, Note_off_c, 4, 56, 0
6, 5664, Note_on_c, 4, 56, 67
6, 5694, Note_off_c, 4, 56, 0
6, 5712, Note_on_c, 4, 57, 67
6, 5760, Note_off_c, 4, 57, 0
6, 5760, Note_on_c, 4, 45, 67
6, 5808, Note_off_c, 4, 45, 0
6, 5808, Note_on_c, 4, 49, 67
6, 5856, Note_off_c, 4, 49, 0
6, 5856, Note_on_c, 4, 50, 67
6, 5904, Note_off_c, 4, 50, 0
6, 5904, Note_on_c, 4, 49, 67
6, 5928, Note_off_c, 4, 49, 0
6, 5928, Note_on_c, 4, 50, 67
6, 5952, Note_off_c, 4, 50, 0
6, 5952, Note_on_c, 4, 52, 67
6, 6000, Note_off_c, 4, 52, 0
6, 6000, Note_on_c, 4, 45, 67
6, 6066, Note_off_c, 4, 45, 0
6, 6096, Note_on_c, 4, 52, 93
6, 6126, Note_off_c, 4, 52, 0
6, 6144, Note_on_c, 4, 52, 93
6, 6174, Note_off_c, 4, 52, 0
6, 6192, Note_on_c, 4, 52, 93
6, 6222, Note_off_c, 4, 52, 0
6, 6240, Note_on_c, 4, 47, 93
6, 6270, Note_off_c, 4, 47, 0
6, 6288, Note_on_c, 4, 47, 93
6, 6318, Note_off_c, 4, 47, 0
6, 6336, Note_on_c, 4, 52, 93
6, 6402, Note_off_c, 4, 52, 0
6, 6480, Note_on_c, 4, 52, 93
6, 6510, Note_off_c, 4, 52, 0
6, 6528, Note_on_c, 4, 52, 93
6, 6558, Note_off_c, 4, 52, 0
6, 6576, Note_on_c, 4, 52, 93
6, 6606, Note_off_c, 4, 52, 0
6, 6624, Note_on_c, 4, 47, 93
6, 6654, Note_off_c, 4, 47, 0
6, 6672, Note_on_c, 4, 47, 93
6, 6702, Note_off_c, 4, 47, 0
6, 6720, Note_on_c, 4, 52, 93
6, 6750, Note_off_c, 4, 52, 0
6, 6768, Note_on_c, 4, 52, 93
6, 6798, Note_off_c, 4, 52, 0
6, 6816, Note_on_c, 4, 52, 93
6, 6846, Note_off_c, 4, 52, 0
6, 6864, Note_on_c, 4, 52, 93
6, 6894, Note_off_c, 4, 52, 0
6, 6912, Note_on_c, 4, 52, 93
6, 6942, Note_off_c, 4, 52, 0
6, 6960, Note_on_c, 4, 52, 93
6, 6990, Note_off_c, 4, 52, 0
6, 7008, Note_on_c, 4, 47, 93
6, 7038, Note_off_c, 4, 47, 0
6, 7056, Note_on_c, 4, 47, 93
6, 7086, Note_off_c, 4, 47, 0
6, 7104, Note_on_c, 4, 52, 93
6, 7170, Note_off_c, 4, 52, 0
6, 7248, Note_on_c, 4, 52, 93
6, 7278, Note_off_c, 4, 52, 0
6, 7296, Note_on_c, 4, 52, 93
6, 7326, Note_off_c, 4, 52, 0
6, 7344, Note_on_c, 4, 52, 93
6, 7374, Note_off_c, 4, 52, 0
6, 7392, Note_on_c, 4, 47, 93
6, 7422, Note_off_c, 4, 47, 0
6, 7440, Note_on_c, 4, 47, 93
6, 7470, Note_off_c, 4, 47, 0
6, 7488, Note_on_c, 4, 52, 93
6, 7518, Note_off_c, 4, 52, 0
6, 7536, Note_on_c, 4, 40, 93
6, 7566, Note_off_c, 4, 40, 0
6, 7584, Note_on_c, 4, 52, 93
6, 7614, Note_off_c, 4, 52, 0
6, 7680, Note_on_c, 4, 52, 93
6, 7710, Note_off_c, 4, 52, 0
6, 7728, Note_on_c, 4, 52, 93
6, 7758, Note_off_c, 4, 52, 0
6, 7776, Note_on_c, 4, 52, 93
6, 7806, Note_off_c, 4, 52, 0
6, 7872, Note_on_c, 4, 52, 93
6, 7902, Note_off_c, 4, 52, 0
6, 7920, Note_on_c, 4, 52, 93
6, 7950, Note_off_c, 4, 52, 0
6, 7968, Note_on_c, 4, 52, 93
6, 7998, Note_off_c, 4, 52, 0
6, 8064, Note_on_c, 4, 57, 93
6, 8130, Note_off_c, 4, 57, 0
6, 8160, Note_on_c, 4, 52, 93
6, 8226, Note_off_c, 4, 52, 0
6, 8256, Note_on_c, 4, 45, 93
6, 8286, Note_off_c, 4, 45, 0
6, 8304, Note_on_c, 4, 45, 93
6, 8334, Note_off_c, 4, 45, 0
6, 8352, Note_on_c, 4, 45, 93
6, 8382, Note_off_c, 4, 45, 0
6, 8448, Note_on_c, 4, 52, 93
6, 8478, Note_off_c, 4, 52, 0
6, 8496, Note_on_c, 4, 52, 93
6, 8526, Note_off_c, 4, 52, 0
6, 8544, Note_on_c, 4, 52, 93
6, 8574, Note_off_c, 4, 52, 0
6, 8640, Note_on_c, 4, 52, 93
6, 8670, Note_off_c, 4, 52, 0
6, 8688, Note_on_c, 4, 52, 93
6, 8718, Note_off_c, 4, 52, 0
6, 8736, Note_on_c, 4, 52, 93
6, 8766, Note_off_c, 4, 52, 0
6, 8832, Note_on_c, 4, 57, 93
6, 8898, Note_off_c, 4, 57, 0
6, 8928, Note_on_c, 4, 52, 93
6, 8994, Note_off_c, 4, 52, 0
6, 9024, Note_on_c, 4, 45, 93
6, 9054, Note_off_c, 4, 45, 0
6, 9072, Note_on_c, 4, 57, 93
6, 9096, Note_off_c, 4, 57, 0
6, 9096, Note_on_c, 4, 59, 93
6, 9120, Note_off_c, 4, 59, 0
6, 9120, Note_on_c, 4, 60, 93
6, 9168, Note_off_c, 4, 60, 0
6, 9168, Note_on_c, 4, 59, 93
6, 9216, Note_off_c, 4, 59, 0
6, 9216, Note_on_c, 4, 57, 93
6, 9264, Note_off_c, 4, 57, 0
6, 9264, Note_on_c, 4, 55, 93
6, 9312, Note_off_c, 4, 55, 0
6, 9312, Note_on_c, 4, 53, 93
6, 9360, Note_off_c, 4, 53, 0
6, 9360, Note_on_c, 4, 52, 93
6, 9390, Note_off_c, 4, 52, 0
6, 9408, Note_on_c, 4, 52, 93
6, 9558, Note_off_c, 4, 52, 0
6, 9600, Note_on_c, 4, 50, 93
6, 9648, Note_off_c, 4, 50, 0
6, 9648, Note_on_c, 4, 52, 93
6, 9696, Note_off_c, 4, 52, 0
6, 9696, Note_on_c, 4, 53, 93
6, 9744, Note_off_c, 4, 53, 0
6, 9744, Note_on_c, 4, 52, 93
6, 9792, Note_off_c, 4, 52, 0
6, 9792, Note_on_c, 4, 50, 93
6, 9840, Note_off_c, 4, 50, 0
6, 9840, Note_on_c, 4, 48, 93
6, 9888, Note_off_c, 4, 48, 0
6, 9888, Note_on_c, 4, 47, 93
6, 9936, Note_off_c, 4, 47, 0
6, 9936, Note_on_c, 4, 45, 93
6, 9966, Note_off_c, 4, 45, 0
6, 9984, Note_on_c, 4, 45, 93
6, 10110, Note_off_c, 4, 45, 0
6, 10176, Note_on_c, 4, 45, 67
6, 10206, Note_off_c, 4, 45, 0
6, 10224, Note_on_c, 4, 57, 67
6, 10248, Note_off_c, 4, 57, 0
6, 10248, Note_on_c, 4, 59, 67
6, 10272, Note_off_c, 4, 59, 0
6, 10272, Note_on_c, 4, 60, 67
6, 10320, Note_off_c, 4, 60, 0
6, 10320, Note_on_c, 4, 59, 67
6, 10368, Note_off_c, 4, 59, 0
6, 10368, Note_on_c, 4, 57, 67
6, 10416, Note_off_c, 4, 57, 0
6, 10416, Note_on_c, 4, 55, 67
6, 10464, Note_off_c, 4, 55, 0
6, 10464, Note_on_c, 4, 53, 67
6, 10512, Note_off_c, 4, 53, 0
6, 10512, Note_on_c, 4, 52, 67
6, 10542, Note_off_c, 4, 52, 0
6, 10560, Note_on_c, 4, 52, 67
6, 10710, Note_off_c, 4, 52, 0
6, 10752, Note_on_c, 4, 50, 67
6, 10800, Note_off_c, 4, 50, 0
6, 10800, Note_on_c, 4, 52, 67
6, 10848, Note_off_c, 4, 52, 0
6, 10848, Note_on_c, 4, 53, 67
6, 10896, Note_off_c, 4, 53, 0
6, 10896, Note_on_c, 4, 52, 67
6, 10944, Note_off_c, 4, 52, 0
6, 10944, Note_on_c, 4, 50, 67
6, 10992, Note_off_c, 4, 50, 0
6, 10992, Note_on_c, 4, 48, 67
6, 11040, Note_off_c, 4, 48, 0
6, 11040, Note_on_c, 4, 47, 67
6, 11088, Note_off_c, 4, 47, 0
6, 11088, Note_on_c, 4, 45, 67
6, 11118, Note_off_c, 4, 45, 0
6, 11136, Note_on_c, 4, 45, 67
6, 11262, Note_off_c, 4, 45, 0
6, 11328, Note_on_c, 4, 53, 93
6, 11376, Note_off_c, 4, 53, 0
6, 11376, Note_on_c, 4, 52, 93
6, 11406, Note_off_c, 4, 52, 0
6, 11424, Note_on_c, 4, 52, 93
6, 11574, Note_off_c, 4, 52, 0
6, 11616, Note_on_c, 4, 46, 93
6, 11664, Note_off_c, 4, 46, 0
6, 11664, Note_on_c, 4, 45, 93
6, 11694, Note_off_c, 4, 45, 0
6, 11712, Note_on_c, 4, 45, 93
6, 11838, Note_off_c, 4, 45, 0
6, 11904, Note_on_c, 4, 50, 93
6, 11952, Note_off_c, 4, 50, 0
6, 11952, Note_on_c, 4, 52, 93
6, 12000, Note_off_c, 4, 52, 0
6, 12000, Note_on_c, 4, 53, 93
6, 12048, Note_off_c, 4, 53, 0
6, 12048, Note_on_c, 4, 52, 93
6, 12096, Note_off_c, 4, 52, 0
6, 12096, Note_on_c, 4, 50, 93
6, 12144, Note_off_c, 4, 50, 0
6, 12144, Note_on_c, 4, 48, 93
6, 12192, Note_off_c, 4, 48, 0
6, 12192, Note_on_c, 4, 47, 93
6, 12240, Note_off_c, 4, 47, 0
6, 12240, Note_on_c, 4, 45, 93
6, 12270, Note_off_c, 4, 45, 0
6, 12288, Note_on_c, 4, 45, 93
6, 12414, Note_off_c, 4, 45, 0
6, 12480, Note_on_c, 4, 53, 67
6, 12528, Note_off_c, 4, 53, 0
6, 12528, Note_on_c, 4, 52, 67
6, 12558, Note_off_c, 4, 52, 0
6, 12576, Note_on_c, 4, 52, 67
6, 12726, Note_off_c, 4, 52, 0
6, 12768, Note_on_c, 4, 46, 67
6, 12816, Note_off_c, 4, 46, 0
6, 12816, Note_on_c, 4, 45, 67
6, 12846, Note_off_c, 4, 45, 0
6, 12864, Note_on_c, 4, 45, 67
6, 12990, Note_off_c, 4, 45, 0
6, 13056, Note_on_c, 4, 50, 67
6, 13104, Note_off_c, 4, 50, 0
6, 13104, Note_on_c, 4, 52, 67
6, 13152, Note_off_c, 4, 52, 0
6, 13152, Note_on_c, 4, 53, 67
6, 13200, Note_off_c, 4, 53, 0
6, 13200, Note_on_c, 4, 52, 67
6, 13248, Note_off_c, 4, 52, 0
6, 13248, Note_on_c, 4, 50, 67
6, 13296, Note_off_c, 4, 50, 0
6, 13296, Note_on_c, 4, 48, 67
6, 13344, Note_off_c, 4, 48, 0
6, 13344, Note_on_c, 4, 47, 67
6, 13392, Note_off_c, 4, 47, 0
6, 13392, Note_on_c, 4, 45, 67
6, 13422, Note_off_c, 4, 45, 0
6, 13440, Note_on_c, 4, 45, 67
6, 13566, Note_off_c, 4, 45, 0
6, 13632, Note_on_c, 4, 57, 93
6, 13656, Note_off_c, 4, 57, 0
6, 13656, Note_on_c, 4, 60, 93
6, 13680, Note_off_c, 4, 60, 0
6, 13680, Note_on_c, 4, 59, 93
6, 13704, Note_off_c, 4, 59, 0
6, 13704, Note_on_c, 4, 60, 93
6, 13728, Note_off_c, 4, 60, 0
6, 13728, Note_on_c, 4, 62, 93
6, 13758, Note_off_c, 4, 62, 0
6, 13776, Note_on_c, 4, 60, 93
6, 13806, Note_off_c, 4, 60, 0
6, 13824, Note_on_c, 4, 59, 93
6, 13854, Note_off_c, 4, 59, 0
6, 13872, Note_on_c, 4, 56, 93
6, 13902, Note_off_c, 4, 56, 0
6, 13920, Note_on_c, 4, 57, 93
6, 13950, Note_off_c, 4, 57, 0
6, 13968, Note_on_c, 4, 45, 93
6, 13998, Note_off_c, 4, 45, 0
6, 14016, Note_on_c, 4, 50, 93
6, 14064, Note_off_c, 4, 50, 0
6, 14064, Note_on_c, 4, 52, 93
6, 14088, Note_off_c, 4, 52, 0
6, 14088, Note_on_c, 4, 53, 93
6, 14112, Note_off_c, 4, 53, 0
6, 14112, Note_on_c, 4, 52, 93
6, 14142, Note_off_c, 4, 52, 0
6, 14160, Note_on_c, 4, 40, 93
6, 14190, Note_off_c, 4, 40, 0
6, 14208, Note_on_c, 4, 45, 93
6, 14274, Note_off_c, 4, 45, 0
6, 14352, Note_on_c, 4, 57, 93
6, 14370, Note_off_c, 4, 57, 0
6, 14376, Note_on_c, 4, 59, 93
6, 14394, Note_off_c, 4, 59, 0
6, 14400, Note_on_c, 4, 60, 93
6, 14430, Note_off_c, 4, 60, 0
6, 14448, Note_on_c, 4, 59, 93
6, 14472, Note_off_c, 4, 59, 0
6, 14472, Note_on_c, 4, 60, 93
6, 14496, Note_off_c, 4, 60, 0
6, 14496, Note_on_c, 4, 62, 93
6, 14526, Note_off_c, 4, 62, 0
6, 14544, Note_on_c, 4, 60, 93
6, 14574, Note_off_c, 4, 60, 0
6, 14592, Note_on_c, 4, 59, 93
6, 14622, Note_off_c, 4, 59, 0
6, 14640, Note_on_c, 4, 56, 93
6, 14670, Note_off_c, 4, 56, 0
6, 14688, Note_on_c, 4, 57, 93
6, 14718, Note_off_c, 4, 57, 0
6, 14736, Note_on_c, 4, 45, 93
6, 14766, Note_off_c, 4, 45, 0
6, 14784, Note_on_c, 4, 50, 93
6, 14832, Note_off_c, 4, 50, 0
6, 14832, Note_on_c, 4, 52, 93
6, 14856, Note_off_c, 4, 52, 0
6, 14856, Note_on_c, 4, 53, 93
6, 14880, Note_off_c, 4, 53, 0
6, 14880, Note_on_c, 4, 52, 93
6, 14910, Note_off_c, 4, 52, 0
6, 14928, Note_on_c, 4, 40, 93
6, 14958, Note_off_c, 4, 40, 0
6, 14976, Note_on_c, 4, 45, 93
6, 15042, Note_off_c, 4, 45, 0
6, 15072, Note_on_c, 4, 45, 93
6, 15138, Note_off_c, 4, 45, 0
6, 15168, Note_on_c, 4, 45, 93
6, 15234, Note_off_c, 4, 45, 0
6, 15264, Note_on_c, 4, 45, 93
6, 15330, Note_off_c, 4, 45, 0
6, 15360, Note_on_c, 4, 45, 93
6, 15426, Note_off_c, 4, 45, 0
6, 15456, Note_on_c, 4, 45, 93
6, 15522, Note_off_c, 4, 45, 0
6, 15552, Note_on_c, 4, 45, 93
6, 15618, Note_off_c, 4, 45, 0
6, 15648, Note_on_c, 4, 45, 93
6, 15714, Note_off_c, 4, 45, 0
6, 15744, Note_on_c, 4, 45, 93
6, 15810, Note_off_c, 4, 45, 0
6, 15840, Note_on_c, 4, 45, 93
6, 15906, Note_off_c, 4, 45, 0
6, 15936, Note_on_c, 4, 45, 93
6, 16002, Note_off_c, 4, 45, 0
6, 16032, Note_on_c, 4, 45, 67
6, 16098, Note_off_c, 4, 45, 0
6, 16128, Note_on_c, 4, 45, 67
6, 16194, Note_off_c, 4, 45, 0
6, 16224, Note_on_c, 4, 45, 67
6, 16290, Note_off_c, 4, 45, 0
6, 16320, Note_on_c, 4, 45, 67
6, 16386, Note_off_c, 4, 45, 0
6, 16416, Note_on_c, 4, 45, 67
6, 16482, Note_off_c, 4, 45, 0
6, 16512, Note_on_c, 4, 45, 67
6, 16578, Note_off_c, 4, 45, 0
6, 16608, Note_on_c, 4, 45, 67
6, 16674, Note_off_c, 4, 45, 0
6, 16704, Note_on_c, 4, 45, 67
6, 16770, Note_off_c, 4, 45, 0
6, 16800, Note_on_c, 4, 45, 67
6, 16866, Note_off_c, 4, 45, 0
6, 16896, Note_on_c, 4, 45, 67
6, 16962, Note_off_c, 4, 45, 0
6, 16992, Note_on_c, 4, 45, 67
6, 17142, Note_off_c, 4, 45, 0
6, 17184, Note_on_c, 4, 62, 93
6, 17232, Note_off_c, 4, 62, 0
6, 17232, Note_on_c, 4, 61, 93
6, 17262, Note_off_c, 4, 61, 0
6, 17280, Note_on_c, 4, 61, 93
6, 17328, Note_off_c, 4, 61, 0
6, 17328, Note_on_c, 4, 59, 93
6, 17358, Note_off_c, 4, 59, 0
6, 17376, Note_on_c, 4, 59, 93
6, 17424, Note_off_c, 4, 59, 0
6, 17424, Note_on_c, 4, 57, 93
6, 17454, Note_off_c, 4, 57, 0
6, 17472, Note_on_c, 4, 59, 93
6, 17520, Note_off_c, 4, 59, 0
6, 17520, Note_on_c, 4, 57, 93
6, 17550, Note_off_c, 4, 57, 0
6, 17568, Note_on_c, 4, 59, 93
6, 17634, Note_off_c, 4, 59, 0
6, 17664, Note_on_c, 4, 52, 93
6, 17730, Note_off_c, 4, 52, 0
6, 17760, Note_on_c, 4, 61, 93
6, 17808, Note_off_c, 4, 61, 0
6, 17808, Note_on_c, 4, 59, 93
6, 17838, Note_off_c, 4, 59, 0
6, 17856, Note_on_c, 4, 59, 93
6, 17904, Note_off_c, 4, 59, 0
6, 17904, Note_on_c, 4, 57, 93
6, 17934, Note_off_c, 4, 57, 0
6, 17952, Note_on_c, 4, 57, 93
6, 18000, Note_off_c, 4, 57, 0
6, 18000, Note_on_c, 4, 56, 93
6, 18030, Note_off_c, 4, 56, 0
6, 18048, Note_on_c, 4, 57, 93
6, 18096, Note_off_c, 4, 57, 0
6, 18096, Note_on_c, 4, 56, 93
6, 18126, Note_off_c, 4, 56, 0
6, 18144, Note_on_c, 4, 57, 93
6, 18210, Note_off_c, 4, 57, 0
6, 18240, Note_on_c, 4, 45, 93
6, 18306, Note_off_c, 4, 45, 0
6, 18624, Note_on_c, 4, 57, 93
6, 18654, Note_off_c, 4, 57, 0
6, 18672, Note_on_c, 4, 61, 93
6, 18702, Note_off_c, 4, 61, 0
6, 18720, Note_on_c, 4, 59, 93
6, 18816, Note_off_c, 4, 59, 0
6, 18816, Note_on_c, 4, 57, 93
6, 18882, Note_off_c, 4, 57, 0
6, 18912, Note_on_c, 4, 57, 93
6, 18960, Note_off_c, 4, 57, 0
6, 18960, Note_on_c, 4, 56, 93
6, 19008, Note_off_c, 4, 56, 0
6, 19008, Note_on_c, 4, 54, 93
6, 19056, Note_off_c, 4, 54, 0
6, 19056, Note_on_c, 4, 52, 93
6, 19104, Note_off_c, 4, 52, 0
6, 19104, Note_on_c, 4, 50, 93
6, 19152, Note_off_c, 4, 50, 0
6, 19152, Note_on_c, 4, 49, 93
6, 19200, Note_off_c, 4, 49, 0
6, 19200, Note_on_c, 4, 47, 93
6, 19248, Note_off_c, 4, 47, 0
6, 19248, Note_on_c, 4, 52, 93
6, 19296, Note_off_c, 4, 52, 0
6, 19296, Note_on_c, 4, 45, 93
6, 19422, Note_off_c, 4, 45, 0
6, 19488, Note_on_c, 4, 62, 93
6, 19536, Note_off_c, 4, 62, 0
6, 19536, Note_on_c, 4, 61, 93
6, 19566, Note_off_c, 4, 61, 0
6, 19584, Note_on_c, 4, 61, 93
6, 19632, Note_off_c, 4, 61, 0
6, 19632, Note_on_c, 4, 59, 93
6, 19662, Note_off_c, 4, 59, 0
6, 19680, Note_on_c, 4, 59, 93
6, 19728, Note_off_c, 4, 59, 0
6, 19728, Note_on_c, 4, 57, 93
6, 19758, Note_off_c, 4, 57, 0
6, 19776, Note_on_c, 4, 59, 93
6, 19824, Note_off_c, 4, 59, 0
6, 19824, Note_on_c, 4, 57, 93
6, 19854, Note_off_c, 4, 57, 0
6, 19872, Note_on_c, 4, 59, 93
6, 19938, Note_off_c, 4, 59, 0
6, 19968, Note_on_c, 4, 52, 93
6, 20034, Note_off_c, 4, 52, 0
6, 20064, Note_on_c, 4, 61, 93
6, 20112, Note_off_c, 4, 61, 0
6, 20112, Note_on_c, 4, 59, 93
6, 20142, Note_off_c, 4, 59, 0
6, 20160, Note_on_c, 4, 59, 93
6, 20208, Note_off_c, 4, 59, 0
6, 20208, Note_on_c, 4, 57, 93
6, 20238, Note_off_c, 4, 57, 0
6, 20256, Note_on_c, 4, 57, 93
6, 20304, Note_off_c, 4, 57, 0
6, 20304, Note_on_c, 4, 56, 93
6, 20334, Note_off_c, 4, 56, 0
6, 20352, Note_on_c, 4, 57, 93
6, 20400, Note_off_c, 4, 57, 0
6, 20400, Note_on_c, 4, 56, 93
6, 20430, Note_off_c, 4, 56, 0
6, 20448, Note_on_c, 4, 57, 93
6, 20514, Note_off_c, 4, 57, 0
6, 20544, Note_on_c, 4, 45, 93
6, 20610, Note_off_c, 4, 45, 0
6, 20928, Note_on_c, 4, 57, 93
6, 20958, Note_off_c, 4, 57, 0
6, 20976, Note_on_c, 4, 61, 93
6, 21006, Note_off_c, 4, 61, 0
6, 21024, Note_on_c, 4, 59, 93
6, 21120, Note_off_c, 4, 59, 0
6, 21120, Note_on_c, 4, 57, 93
6, 21186, Note_off_c, 4, 57, 0
6, 21648, Note_on_c, 4, 45, 93
6, 21696, Note_off_c, 4, 45, 0
6, 21696, Note_on_c, 4, 49, 93
6, 21744, Note_off_c, 4, 49, 0
6, 21744, Note_on_c, 4, 52, 93
6, 21792, Note_off_c, 4, 52, 0
6, 21792, Note_on_c, 4, 57, 93
6, 21822, Note_off_c, 4, 57, 0
6, 21840, Note_on_c, 4, 56, 93
6, 21870, Note_off_c, 4, 56, 0
6, 21888, Note_on_c, 4, 54, 93
6, 21918, Note_off_c, 4, 54, 0
6, 21936, Note_on_c, 4, 52, 93
6, 21966, Note_off_c, 4, 52, 0
6, 21984, Note_on_c, 4, 50, 93
6, 22014, Note_off_c, 4, 50, 0
6, 22032, Note_on_c, 4, 49, 93
6, 22062, Note_off_c, 4, 49, 0
6, 22080, Note_on_c, 4, 47, 93
6, 22110, Note_off_c, 4, 47, 0
6, 22128, Note_on_c, 4, 52, 93
6, 22158, Note_off_c, 4, 52, 0
6, 22176, Note_on_c, 4, 45, 93
6, 22560, Note_off_c, 4, 45, 0
6, 22560, End_track
7, 0, Start_track
7, 0, Title_t, "Track7"
7, 0, Control_c, 5, 0, 0
7, 0, Control_c, 5, 32, 0
7, 0, Program_c, 5, 43
7, 0, Control_c, 5, 7, 97
7, 0, Control_c, 5, 10, 93
7, 288, Note_on_c, 5, 33, 93
7, 354, Note_off_c, 5, 33, 0
7, 384, Note_on_c, 5, 33, 93
7, 450, Note_off_c, 5, 33, 0
7, 480, Note_on_c, 5, 33, 93
7, 546, Note_off_c, 5, 33, 0
7, 576, Note_on_c, 5, 33, 93
7, 642, Note_off_c, 5, 33, 0
7, 672, Note_on_c, 5, 33, 93
7, 738, Note_off_c, 5, 33, 0
7, 768, Note_on_c, 5, 33, 93
7, 834, Note_off_c, 5, 33, 0
7, 864, Note_on_c, 5, 33, 93
7, 930, Note_off_c, 5, 33, 0
7, 960, Note_on_c, 5, 33, 93
7, 1026, Note_off_c, 5, 33, 0
7, 1056, Note_on_c, 5, 33, 93
7, 1122, Note_off_c, 5, 33, 0
7, 1152, Note_on_c, 5, 33, 93
7, 1218, Note_off_c, 5, 33, 0
7, 1248, Note_on_c, 5, 33, 93
7, 1314, Note_off_c, 5, 33, 0
7, 1344, Note_on_c, 5, 33, 67
7, 1410, Note_off_c, 5, 33, 0
7, 1440, Note_on_c, 5, 33, 67
7, 1506, Note_off_c, 5, 33, 0
7, 1536, Note_on_c, 5, 33, 67
7, 1602, Note_off_c, 5, 33, 0
7, 1632, Note_on_c, 5, 33, 67
7, 1698, Note_off_c, 5, 33, 0
7, 1728, Note_on_c, 5, 33, 67
7, 1794, Note_off_c, 5, 33, 0
7, 1824, Note_on_c, 5, 33, 67
7, 1890, Note_off_c, 5, 33, 0
7, 1920, Note_on_c, 5, 33, 67
7, 1986, Note_off_c, 5, 33, 0
7, 2016, Note_on_c, 5, 33, 67
7, 2082, Note_off_c, 5, 33, 0
7, 2112, Note_on_c, 5, 33, 67
7, 2178, Note_off_c, 5, 33, 0
7, 2208, Note_on_c, 5, 33, 67
7, 2274, Note_off_c, 5, 33, 0
7, 2304, Note_on_c, 5, 33, 93
7, 2334, Note_off_c, 5, 33, 0
7, 2352, Note_on_c, 5, 45, 93
7, 2370, Note_off_c, 5, 45, 0
7, 2376, Note_on_c, 5, 47, 93
7, 2394, Note_off_c, 5, 47, 0
7, 2400, Note_on_c, 5, 49, 93
7, 2430, Note_off_c, 5, 49, 0
7, 2448, Note_on_c, 5, 50, 93
7, 2478, Note_off_c, 5, 50, 0
7, 2496, Note_on_c, 5, 49, 93
7, 2544, Note_off_c, 5, 49, 0
7, 2544, Note_on_c, 5, 47, 93
7, 2574, Note_off_c, 5, 47, 0
7, 2592, Note_on_c, 5, 45, 93
7, 2658, Note_off_c, 5, 45, 0
7, 2688, Note_on_c, 5, 45, 93
7, 2754, Note_off_c, 5, 45, 0
7, 2784, Note_on_c, 5, 47, 93
7, 2814, Note_off_c, 5, 47, 0
7, 2832, Note_on_c, 5, 45, 93
7, 2862, Note_off_c, 5, 45, 0
7, 2880, Note_on_c, 5, 40, 93
7, 2910, Note_off_c, 5, 40, 0
7, 2928, Note_on_c, 5, 44, 93
7, 2958, Note_off_c, 5, 44, 0
7, 2976, Note_on_c, 5, 45, 93
7, 3042, Note_off_c, 5, 45, 0
7, 3072, Note_on_c, 5, 33, 93
7, 3102, Note_off_c, 5, 33, 0
7, 3120, Note_on_c, 5, 45, 93
7, 3138, Note_off_c, 5, 45, 0
7, 3144, Note_on_c, 5, 47, 93
7, 3162, Note_off_c, 5, 47, 0
7, 3168, Note_on_c, 5, 49, 93
7, 3198, Note_off_c, 5, 49, 0
7, 3216, Note_on_c, 5, 50, 93
7, 3246, Note_off_c, 5, 50, 0
7, 3264, Note_on_c, 5, 49, 93
7, 3312, Note_off_c, 5, 49, 0
7, 3312, Note_on_c, 5, 47, 93
7, 3342, Note_off_c, 5, 47, 0
7, 3360, Note_on_c, 5, 45, 93
7, 3426, Note_off_c, 5, 45, 0
7, 3456, Note_on_c, 5, 33, 93
7, 3486, Note_off_c, 5, 33, 0
7, 3504, Note_on_c, 5, 45, 93
7, 3534, Note_off_c, 5, 45, 0
7, 3552, Note_on_c, 5, 47, 93
7, 3582, Note_off_c, 5, 47, 0
7, 3600, Note_on_c, 5, 45, 93
7, 3630, Note_off_c, 5, 45, 0
7, 3648, Note_on_c, 5, 44, 93
7, 3696, Note_off_c, 5, 44, 0
7, 3696, Note_on_c, 5, 40, 93
7, 3726, Note_off_c, 5, 40, 0
7, 3744, Note_on_c, 5, 45, 93
7, 3810, Note_off_c, 5, 45, 0
7, 3840, Note_on_c, 5, 33, 93
7, 3870, Note_off_c, 5, 33, 0
7, 3888, Note_on_c, 5, 45, 93
7, 3936, Note_off_c, 5, 45, 0
7, 3936, Note_on_c, 5, 47, 93
7, 3984, Note_off_c, 5, 47, 0
7, 3984, Note_on_c, 5, 49, 93
7, 4032, Note_off_c, 5, 49, 0
7, 4032, Note_on_c, 5, 45, 93
7, 4080, Note_off_c, 5, 45, 0
7, 4080, Note_on_c, 5, 47, 93
7, 4128, Note_off_c, 5, 47, 0
7, 4128, Note_on_c, 5, 49, 93
7, 4224, Note_off_c, 5, 49, 0
7, 4224, Note_on_c, 5, 50, 93
7, 4272, Note_off_c, 5, 50, 0
7, 4272, Note_on_c, 5, 49, 93
7, 4302, Note_off_c, 5, 49, 0
7, 4320, Note_on_c, 5, 45, 93
7, 4350, Note_off_c, 5, 45, 0
7, 4368, Note_on_c, 5, 33, 93
7, 4398, Note_off_c, 5, 33, 0
7, 4416, Note_on_c, 5, 33, 67
7, 4446, Note_off_c, 5, 33, 0
7, 4464, Note_on_c, 5, 45, 67
7, 4512, Note_off_c, 5, 45, 0
7, 4512, Note_on_c, 5, 47, 67
7, 4560, Note_off_c, 5, 47, 0
7, 4560, Note_on_c, 5, 49, 67
7, 4608, Note_off_c, 5, 49, 0
7, 4608, Note_on_c, 5, 45, 67
7, 4656, Note_off_c, 5, 45, 0
7, 4656, Note_on_c, 5, 47, 67
7, 4704, Note_off_c, 5, 47, 0
7, 4704, Note_on_c, 5, 49, 67
7, 4800, Note_off_c, 5, 49, 0
7, 4800, Note_on_c, 5, 50, 67
7, 4848, Note_off_c, 5, 50, 0
7, 4848, Note_on_c, 5, 49, 67
7, 4878, Note_off_c, 5, 49, 0
7, 4896, Note_on_c, 5, 45, 67
7, 4926, Note_off_c, 5, 45, 0
7, 4944, Note_on_c, 5, 45, 93
7, 4974, Note_off_c, 5, 45, 0
7, 4992, Note_on_c, 5, 47, 93
7, 5040, Note_off_c, 5, 47, 0
7, 5040, Note_on_c, 5, 44, 93
7, 5070, Note_off_c, 5, 44, 0
7, 5088, Note_on_c, 5, 44, 93
7, 5118, Note_off_c, 5, 44, 0
7, 5136, Note_on_c, 5, 45, 93
7, 5184, Note_off_c, 5, 45, 0
7, 5184, Note_on_c, 5, 33, 93
7, 5232, Note_off_c, 5, 33, 0
7, 5232, Note_on_c, 5, 37, 93
7, 5280, Note_off_c, 5, 37, 0
7, 5280, Note_on_c, 5, 38, 93
7, 5328, Note_off_c, 5, 38, 0
7, 5328, Note_on_c, 5, 37, 93
7, 5352, Note_off_c, 5, 37, 0
7, 5352, Note_on_c, 5, 38, 93
7, 5376, Note_off_c, 5, 38, 0
7, 5376, Note_on_c, 5, 40, 93
7, 5424, Note_off_c, 5, 40, 0
7, 5424, Note_on_c, 5, 33, 93
7, 5490, Note_off_c, 5, 33, 0
7, 5520, Note_on_c, 5, 45, 67
7, 5550, Note_off_c, 5, 45, 0
7, 5568, Note_on_c, 5, 47, 67
7, 5616, Note_off_c, 5, 47, 0
7, 5616, Note_on_c, 5, 44, 67
7, 5646, Note_off_c, 5, 44, 0
7, 5664, Note_on_c, 5, 44, 67
7, 5694, Note_off_c, 5, 44, 0
7, 5712, Note_on_c, 5, 45, 67
7, 5760, Note_off_c, 5, 45, 0
7, 5760, Note_on_c, 5, 33, 67
7, 5808, Note_off_c, 5, 33, 0
7, 5808, Note_on_c, 5, 37, 67
7, 5856, Note_off_c, 5, 37, 0
7, 5856, Note_on_c, 5, 38, 67
7, 5904, Note_off_c, 5, 38, 0
7, 5904, Note_on_c, 5, 37, 67
7, 5928, Note_off_c, 5, 37, 0
7, 5928, Note_on_c, 5, 38, 67
7, 5952, Note_off_c, 5, 38, 0
7, 5952, Note_on_c, 5, 40, 67
7, 6000, Note_off_c, 5, 40, 0
7, 6000, Note_on_c, 5, 33, 67
7, 6066, Note_off_c, 5, 33, 0
7, 6096, Note_on_c, 5, 40, 93
7, 6126, Note_off_c, 5, 40, 0
7, 6144, Note_on_c, 5, 40, 93
7, 6174, Note_off_c, 5, 40, 0
7, 6192, Note_on_c, 5, 40, 93
7, 6222, Note_off_c, 5, 40, 0
7, 6240, Note_on_c, 5, 35, 93
7, 6270, Note_off_c, 5, 35, 0
7, 6288, Note_on_c, 5, 35, 93
7, 6318, Note_off_c, 5, 35, 0
7, 6336, Note_on_c, 5, 40, 93
7, 6402, Note_off_c, 5, 40, 0
7, 6480, Note_on_c, 5, 40, 93
7, 6510, Note_off_c, 5, 40, 0
7, 6528, Note_on_c, 5, 40, 93
7, 6558, Note_off_c, 5, 40, 0
7, 6576, Note_on_c, 5, 40, 93
7, 6606, Note_off_c, 5, 40, 0
7, 6624, Note_on_c, 5, 35, 93
7, 6654, Note_off_c, 5, 35, 0
7, 6672, Note_on_c, 5, 35, 93
7, 6702, Note_off_c, 5, 35, 0
7, 6720, Note_on_c, 5, 40, 93
7, 6750, Note_off_c, 5, 40, 0
7, 6768, Note_on_c, 5, 40, 93
7, 6798, Note_off_c, 5, 40, 0
7, 6816, Note_on_c, 5, 40, 93
7, 6846, Note_off_c, 5, 40, 0
7, 6864, Note_on_c, 5, 40, 93
7, 6894, Note_off_c, 5, 40, 0
7, 6912, Note_on_c, 5, 40, 93
7, 6942, Note_off_c, 5, 40, 0
7, 6960, Note_on_c, 5, 40, 93
7, 6990, Note_off_c, 5, 40, 0
7, 7008, Note_on_c, 5, 35, 93
7, 7038, Note_off_c, 5, 35, 0
7, 7056, Note_on_c, 5, 35, 93
7, 7086, Note_off_c, 5, 35, 0
7, 7104, Note_on_c, 5, 40, 93
7, 7170, Note_off_c, 5, 40, 0
7, 7248, Note_on_c, 5, 40, 93
7, 7278, Note_off_c, 5, 40, 0
7, 7296, Note_on_c, 5, 40, 93
7, 7326, Note_off_c, 5, 40, 0
7, 7344, Note_on_c, 5, 40, 93
7, 7374, Note_off_c, 5, 40, 0
7, 7392, Note_on_c, 5, 35, 93
7, 7422, Note_off_c, 5, 35, 0
7, 7440, Note_on_c, 5, 35, 93
7, 7470, Note_off_c, 5, 35, 0
7, 7488, Note_on_c, 5, 40, 93
7, 7518, Note_off_c, 5, 40, 0
7, 7536, Note_on_c, 5, 28, 93
7, 7566, Note_off_c, 5, 28, 0
7, 7584, Note_on_c, 5, 40, 93
7, 7614, Note_off_c, 5, 40, 0
7, 7680, Note_on_c, 5, 40, 93
7, 7710, Note_off_c, 5, 40, 0
7, 7728, Note_on_c, 5, 40, 93
7, 7758, Note_off_c, 5, 40, 0
7, 7776, Note_on_c, 5, 40, 93
7, 7806, Note_off_c, 5, 40, 0
7, 7872, Note_on_c, 5, 40, 93
7, 7902, Note_off_c, 5, 40, 0
7, 7920, Note_on_c, 5, 40, 93
7, 7950, Note_off_c, 5, 40, 0
7, 7968, Note_on_c, 5, 40, 93
7, 7998, Note_off_c, 5, 40, 0
7, 8064, Note_on_c, 5, 45, 93
7, 8130, Note_off_c, 5, 45, 0
7, 8160, Note_on_c, 5, 40, 93
7, 8226, Note_off_c, 5, 40, 0
7, 8256, Note_on_c, 5, 33, 93
7, 8286, Note_off_c, 5, 33, 0
7, 8304, Note_on_c, 5, 33, 93
7, 8334, Note_off_c, 5, 33, 0
7, 8352, Note_on_c, 5, 33, 93
7, 8382, Note_off_c, 5, 33, 0
7, 8448, Note_on_c, 5, 40, 93
7, 8478, Note_off_c, 5, 40, 0
7, 8496, Note_on_c, 5, 40, 93
7, 8526, Note_off_c, 5, 40, 0
7, 8544, Note_on_c, 5, 40, 93
7, 8574, Note_off_c, 5, 40, 0
7, 8640, Note_on_c, 5, 40, 93
7, 8670, Note_off_c, 5, 40, 0
7, 8688, Note_on_c, 5, 40, 93
7, 8718, Note_off_c, 5, 40, 0
7, 8736, Note_on_c, 5, 40, 93
7, 8766, Note_off_c, 5, 40, 0
7, 8832, Note_on_c, 5, 45, 93
7, 8898, Note_off_c, 5, 45, 0
7, 8928, Note_on_c, 5, 40, 93
7, 8994, Note_off_c, 5, 40, 0
7, 9024, Note_on_c, 5, 33, 93
7, 9054, Note_off_c, 5, 33, 0
7, 9072, Note_on_c, 5, 45, 93
7, 9096, Note_off_c, 5, 45, 0
7, 9096, Note_on_c, 5, 47, 93
7, 9120, Note_off_c, 5, 47, 0
7, 9120, Note_on_c, 5, 48, 93
7, 9168, Note_off_c, 5, 48, 0
7, 9168, Note_on_c, 5, 47, 93
7, 9216, Note_off_c, 5, 47, 0
7, 9216, Note_on_c, 5, 45, 93
7, 9264, Note_off_c, 5, 45, 0
7, 9264, Note_on_c, 5, 43, 93
7, 9312, Note_off_c, 5, 43, 0
7, 9312, Note_on_c, 5, 41, 93
7, 9360, Note_off_c, 5, 41, 0
7, 9360, Note_on_c, 5, 40, 93
7, 9390, Note_off_c, 5, 40, 0
7, 9408, Note_on_c, 5, 40, 93
7, 9558, Note_off_c, 5, 40, 0
7, 9600, Note_on_c, 5, 38, 93
7, 9648, Note_off_c, 5, 38, 0
7, 9648, Note_on_c, 5, 40, 93
7, 9696, Note_off_c, 5, 40, 0
7, 9696, Note_on_c, 5, 41, 93
7, 9744, Note_off_c, 5, 41, 0
7, 9744, Note_on_c, 5, 40, 93
7, 9792, Note_off_c, 5, 40, 0
7, 9792, Note_on_c, 5, 38, 93
7, 9840, Note_off_c, 5, 38, 0
7, 9840, Note_on_c, 5, 36, 93
7, 9888, Note_off_c, 5, 36, 0
7, 9888, Note_on_c, 5, 35, 93
7, 9936, Note_off_c, 5, 35, 0
7, 9936, Note_on_c, 5, 33, 93
7, 9966, Note_off_c, 5, 33, 0
7, 9984, Note_on_c, 5, 33, 93
7, 10110, Note_off_c, 5, 33, 0
7, 10176, Note_on_c, 5, 33, 67
7, 10206, Note_off_c, 5, 33, 0
7, 10224, Note_on_c, 5, 45, 67
7, 10248, Note_off_c, 5, 45, 0
7, 10248, Note_on_c, 5, 47, 67
7, 10272, Note_off_c, 5, 47, 0
7, 10272, Note_on_c, 5, 48, 67
7, 10320, Note_off_c, 5, 48, 0
7, 10320, Note_on_c, 5, 47, 67
7, 10368, Note_off_c, 5, 47, 0
7, 10368, Note_on_c, 5, 45, 67
7, 10416, Note_off_c, 5, 45, 0
7, 10416, Note_on_c, 5, 43, 67
7, 10464, Note_off_c, 5, 43, 0
7, 10464, Note_on_c, 5, 41, 67
7, 10512, Note_off_c, 5, 41, 0
7, 10512, Note_on_c, 5, 40, 67
7, 10542, Note_off_c, 5, 40, 0
7, 10560, Note_on_c, 5, 40, 67
7, 10710, Note_off_c, 5, 40, 0
7, 10752, Note_on_c, 5, 38, 67
7, 10800, Note_off_c, 5, 38, 0
7, 10800, Note_on_c, 5, 40, 67
7, 10848, Note_off_c, 5, 40, 0
7, 10848, Note_on_c, 5, 41, 67
7, 10896, Note_off_c, 5, 41, 0
7, 10896, Note_on_c, 5, 40, 67
7, 10944, Note_off_c, 5, 40, 0
7, 10944, Note_on_c, 5, 38, 67
7, 10992, Note_off_c, 5, 38, 0
7, 10992, Note_on_c, 5, 36, 67
7, 11040, Note_off_c, 5, 36, 0
7, 11040, Note_on_c, 5, 35, 67
7, 11088, Note_off_c, 5, 35, 0
7, 11088, Note_on_c, 5, 33, 67
7, 11118, Note_off_c, 5, 33, 0
7, 11136, Note_on_c, 5, 33, 67
7, 11262, Note_off_c, 5, 33, 0
7, 11328, Note_on_c, 5, 41, 93
7, 11376, Note_off_c, 5, 41, 0
7, 11376, Note_on_c, 5, 40, 93
7, 11406, Note_off_c, 5, 40, 0
7, 11424, Note_on_c, 5, 40, 93
7, 11574, Note_off_c, 5, 40, 0
7, 11616, Note_on_c, 5, 34, 93
7, 11664, Note_off_c, 5, 34, 0
7, 11664, Note_on_c, 5, 33, 93
7, 11694, Note_off_c, 5, 33, 0
7, 11712, Note_on_c, 5, 33, 93
7, 11838, Note_off_c, 5, 33, 0
7, 11904, Note_on_c, 5, 38, 93
7, 11952, Note_off_c, 5, 38, 0
7, 11952, Note_on_c, 5, 40, 93
7, 12000, Note_off_c, 5, 40, 0
7, 12000, Note_on_c, 5, 41, 93
7, 12048, Note_off_c, 5, 41, 0
7, 12048, Note_on_c, 5, 40, 93
7, 12096, Note_off_c, 5, 40, 0
7, 12096, Note_on_c, 5, 38, 93
7, 12144, Note_off_c, 5, 38, 0
7, 12144, Note_on_c, 5, 36, 93
7, 12192, Note_off_c, 5, 36, 0
7, 12192, Note_on_c, 5, 35, 93
7, 12240, Note_off_c, 5, 35, 0
7, 12240, Note_on_c, 5, 33, 93
7, 12270, Note_off_c, 5, 33, 0
7, 12288, Note_on_c, 5, 33, 93
7, 12414, Note_off_c, 5, 33, 0
7, 12480, Note_on_c, 5, 41, 67
7, 12528, Note_off_c, 5, 41, 0
7, 12528, Note_on_c, 5, 40, 67
7, 12558, Note_off_c, 5, 40, 0
7, 12576, Note_on_c, 5, 40, 67
7, 12726, Note_off_c, 5, 40, 0
7, 12768, Note_on_c, 5, 34, 67
7, 12816, Note_off_c, 5, 34, 0
7, 12816, Note_on_c, 5, 33, 67
7, 12846, Note_off_c, 5, 33, 0
7, 12864, Note_on_c, 5, 33, 67
7, 12990, Note_off_c, 5, 33, 0
7, 13056, Note_on_c, 5, 38, 67
7, 13104, Note_off_c, 5, 38, 0
7, 13104, Note_on_c, 5, 40, 67
7, 13152, Note_off_c, 5, 40, 0
7, 13152, Note_on_c, 5, 41, 67
7, 13200, Note_off_c, 5, 41, 0
7, 13200, Note_on_c, 5, 40, 67
7, 13248, Note_off_c, 5, 40, 0
7, 13248, Note_on_c, 5, 38, 67
7, 13296, Note_off_c, 5, 38, 0
7, 13296, Note_on_c, 5, 36, 67
7, 13344, Note_off_c, 5, 36, 0
7, 13344, Note_on_c, 5, 35, 67
7, 13392, Note_off_c, 5, 35, 0
7, 13392, Note_on_c, 5, 33, 67
7, 13422, Note_off_c, 5, 33, 0
7, 13440, Note_on_c, 5, 33, 67
7, 13566, Note_off_c, 5, 33, 0
7, 13632, Note_on_c, 5, 45, 93
7, 13656, Note_off_c, 5, 45, 0
7, 13656, Note_on_c, 5, 48, 93
7, 13680, Note_off_c, 5, 48, 0
7, 13680, Note_on_c, 5, 47, 93
7, 13704, Note_off_c, 5, 47, 0
7, 13704, Note_on_c, 5, 48, 93
7, 13728, Note_off_c, 5, 48, 0
7, 13728, Note_on_c, 5, 50, 93
7, 13758, Note_off_c, 5, 50, 0
7, 13776, Note_on_c, 5, 48, 93
7, 13806, Note_off_c, 5, 48, 0
7, 13824, Note_on_c, 5, 47, 93
7, 13854, Note_off_c, 5, 47, 0
7, 13872, Note_on_c, 5, 44, 93
7, 13902, Note_off_c, 5, 44, 0
7, 13920, Note_on_c, 5, 45, 93
7, 13950, Note_off_c, 5, 45, 0
7, 13968, Note_on_c, 5, 33, 93
7, 13998, Note_off_c, 5, 33, 0
7, 14016, Note_on_c, 5, 38, 93
7, 14064, Note_off_c, 5, 38, 0
7, 14064, Note_on_c, 5, 40, 93
7, 14088, Note_off_c, 5, 40, 0
7, 14088, Note_on_c, 5, 41, 93
7, 14112, Note_off_c, 5, 41, 0
7, 14112, Note_on_c, 5, 40, 93
7, 14142, Note_off_c, 5, 40, 0
7, 14160, Note_on_c, 5, 28, 93
7, 14190, Note_off_c, 5, 28, 0
7, 14208, Note_on_c, 5, 33, 93
7, 14274, Note_off_c, 5, 33, 0
7, 14352, Note_on_c, 5, 45, 93
7, 14370, Note_off_c, 5, 45, 0
7, 14376, Note_on_c, 5, 47, 93
7, 14394, Note_off_c, 5, 47, 0
7, 14400, Note_on_c, 5, 48, 93
7, 14430, Note_off_c, 5, 48, 0
7, 14448, Note_on_c, 5, 47, 93
7, 14472, Note_off_c, 5, 47, 0
7, 14472, Note_on_c, 5, 48, 93
7, 14496, Note_off_c, 5, 48, 0
7, 14496, Note_on_c, 5, 50, 93
7, 14526, Note_off_c, 5, 50, 0
7, 14544, Note_on_c, 5, 48, 93
7, 14574, Note_off_c, 5, 48, 0
7, 14592, Note_on_c, 5, 47, 93
7, 14622, Note_off_c, 5, 47, 0
7, 14640, Note_on_c, 5, 44, 93
7, 14670, Note_off_c, 5, 44, 0
7, 14688, Note_on_c, 5, 45, 93
7, 14718, Note_off_c, 5, 45, 0
7, 14736, Note_on_c, 5, 33, 93
7, 14766, Note_off_c, 5, 33, 0
7, 14784, Note_on_c, 5, 38, 93
7, 14832, Note_off_c, 5, 38, 0
7, 14832, Note_on_c, 5, 40, 93
7, 14856, Note_off_c, 5, 40, 0
7, 14856, Note_on_c, 5, 41, 93
7, 14880, Note_off_c, 5, 41, 0
7, 14880, Note_on_c, 5, 40, 93
7, 14910, Note_off_c, 5, 40, 0
7, 14928, Note_on_c, 5, 28, 93
7, 14958, Note_off_c, 5, 28, 0
7, 14976, Note_on_c, 5, 33, 93
7, 15042, Note_off_c, 5, 33, 0
7, 15072, Note_on_c, 5, 33, 93
7, 15138, Note_off_c, 5, 33, 0
7, 15168, Note_on_c, 5, 33, 93
7, 15234, Note_off_c, 5, 33, 0
7, 15264, Note_on_c, 5, 33, 93
7, 15330, Note_off_c, 5, 33, 0
7, 15360, Note_on_c, 5, 33, 93
7, 15426, Note_off_c, 5, 33, 0
7, 15456, Note_on_c, 5, 33, 93
7, 15522, Note_off_c, 5, 33, 0
7, 15552, Note_on_c, 5, 33, 93
7, 15618, Note_off_c, 5, 33, 0
7, 15648, Note_on_c, 5, 33, 93
7, 15714, Note_off_c, 5, 33, 0
7, 15744, Note_on_c, 5, 33, 93
7, 15810, Note_off_c, 5, 33, 0
7, 15840, Note_on_c, 5, 33, 93
7, 15906, Note_off_c, 5, 33, 0
7, 15936, Note_on_c, 5, 33, 93
7, 16002, Note_off_c, 5, 33, 0
7, 16032, Note_on_c, 5, 33, 67
7, 16098, Note_off_c, 5, 33, 0
7, 16128, Note_on_c, 5, 33, 67
7, 16194, Note_off_c, 5, 33, 0
7, 16224, Note_on_c, 5, 33, 67
7, 16290, Note_off_c, 5, 33, 0
7, 16320, Note_on_c, 5, 33, 67
7, 16386, Note_off_c, 5, 33, 0
7, 16416, Note_on_c, 5, 33, 67
7, 16482, Note_off_c, 5, 33, 0
7, 16512, Note_on_c, 5, 33, 67
7, 16578, Note_off_c, 5, 33, 0
7, 16608, Note_on_c, 5, 33, 67
7, 16674, Note_off_c, 5, 33, 0
7, 16704, Note_on_c, 5, 33, 67
7, 16770, Note_off_c, 5, 33, 0
7, 16800, Note_on_c, 5, 33, 67
7, 16866, Note_off_c, 5, 33, 0
7, 16896, Note_on_c, 5, 33, 67
7, 16962, Note_off_c, 5, 33, 0
7, 16992, Note_on_c, 5, 33, 67
7, 17142, Note_off_c, 5, 33, 0
7, 17184, Note_on_c, 5, 50, 93
7, 17232, Note_off_c, 5, 50, 0
7, 17232, Note_on_c, 5, 49, 93
7, 17262, Note_off_c, 5, 49, 0
7, 17280, Note_on_c, 5, 49, 93
7, 17328, Note_off_c, 5, 49, 0
7, 17328, Note_on_c, 5, 47, 93
7, 17358, Note_off_c, 5, 47, 0
7, 17376, Note_on_c, 5, 47, 93
7, 17424, Note_off_c, 5, 47, 0
7, 17424, Note_on_c, 5, 45, 93
7, 17454, Note_off_c, 5, 45, 0
7, 17472, Note_on_c, 5, 47, 93
7, 17520, Note_off_c, 5, 47, 0
7, 17520, Note_on_c, 5, 45, 93
7, 17550, Note_off_c, 5, 45, 0
7, 17568, Note_on_c, 5, 47, 93
7, 17634, Note_off_c, 5, 47, 0
7, 17664, Note_on_c, 5, 40, 93
7, 17730, Note_off_c, 5, 40, 0
7, 17760, Note_on_c, 5, 49, 93
7, 17808, Note_off_c, 5, 49, 0
7, 17808, Note_on_c, 5, 47, 93
7, 17838, Note_off_c, 5, 47, 0
7, 17856, Note_on_c, 5, 47, 93
7, 17904, Note_off_c, 5, 47, 0
7, 17904, Note_on_c, 5, 45, 93
7, 17934, Note_off_c, 5, 45, 0
7, 17952, Note_on_c, 5, 45, 93
7, 18000, Note_off_c, 5, 45, 0
7, 18000, Note_on_c, 5, 44, 93
7, 18030, Note_off_c, 5, 44, 0
7, 18048, Note_on_c, 5, 45, 93
7, 18096, Note_off_c, 5, 45, 0
7, 18096, Note_on_c, 5, 44, 93
7, 18126, Note_off_c, 5, 44, 0
7, 18144, Note_on_c, 5, 45, 93
7, 18210, Note_off_c, 5, 45, 0
7, 18240, Note_on_c, 5, 33, 93
7, 18306, Note_off_c, 5, 33, 0
7, 18624, Note_on_c, 5, 45, 93
7, 18654, Note_off_c, 5, 45, 0
7, 18672, Note_on_c, 5, 49, 93
7, 18702, Note_off_c, 5, 49, 0
7, 18720, Note_on_c, 5, 47, 93
7, 18816, Note_off_c, 5, 47, 0
7, 18816, Note_on_c, 5, 45, 93
7, 18882, Note_off_c, 5, 45, 0
7, 18912, Note_on_c, 5, 45, 93
7, 18960, Note_off_c, 5, 45, 0
7, 18960, Note_on_c, 5, 44, 93
7, 19008, Note_off_c, 5, 44, 0
7, 19008, Note_on_c, 5, 42, 93
7, 19056, Note_off_c, 5, 42, 0
7, 19056, Note_on_c, 5, 40, 93
7, 19104, Note_off_c, 5, 40, 0
7, 19104, Note_on_c, 5, 38, 93
7, 19152, Note_off_c, 5, 38, 0
7, 19152, Note_on_c, 5, 37, 93
7, 19200, Note_off_c, 5, 37, 0
7, 19200, Note_on_c, 5, 35, 93
7, 19248, Note_off_c, 5, 35, 0
7, 19248, Note_on_c, 5, 40, 93
7, 19296, Note_off_c, 5, 40, 0
7, 19296, Note_on_c, 5, 33, 93
7, 19422, Note_off_c, 5, 33, 0
7, 19488, Note_on_c, 5, 50, 93
7, 19536, Note_off_c, 5, 50, 0
7, 19536, Note_on_c, 5, 49, 93
7, 19566, Note_off_c, 5, 49, 0
7, 19584, Note_on_c, 5, 49, 93
7, 19632, Note_off_c, 5, 49, 0
7, 19632, Note_on_c, 5, 47, 93
7, 19662, Note_off_c, 5, 47, 0
7, 19680, Note_on_c, 5, 47, 93
7, 19728, Note_off_c, 5, 47, 0
7, 19728, Note_on_c, 5, 45, 93
7, 19758, Note_off_c, 5, 45, 0
7, 19776, Note_on_c, 5, 47, 93
7, 19824, Note_off_c, 5, 47, 0
7, 19824, Note_on_c, 5, 45, 93
7, 19854, Note_off_c, 5, 45, 0
7, 19872, Note_on_c, 5, 47, 93
7, 19938, Note_off_c, 5, 47, 0
7, 19968, Note_on_c, 5, 40, 93
7, 20034, Note_off_c, 5, 40, 0
7, 20064, Note_on_c, 5, 49, 93
7, 20112, Note_off_c, 5, 49, 0
7, 20112, Note_on_c, 5, 47, 93
7, 20142, Note_off_c, 5, 47, 0
7, 20160, Note_on_c, 5, 47, 93
7, 20208, Note_off_c, 5, 47, 0
7, 20208, Note_on_c, 5, 45, 93
7, 20238, Note_off_c, 5, 45, 0
7, 20256, Note_on_c, 5, 45, 93
7, 20304, Note_off_c, 5, 45, 0
7, 20304, Note_on_c, 5, 44, 93
7, 20334, Note_off_c, 5, 44, 0
7, 20352, Note_on_c, 5, 45, 93
7, 20400, Note_off_c, 5, 45, 0
7, 20400, Note_on_c, 5, 44, 93
7, 20430, Note_off_c, 5, 44, 0
7, 20448, Note_on_c, 5, 45, 93
7, 20514, Note_off_c, 5, 45, 0
7, 20544, Note_on_c, 5, 33, 93
7, 20610, Note_off_c, 5, 33, 0
7, 20928, Note_on_c, 5, 45, 93
7, 20958, Note_off_c, 5, 45, 0
7, 20976, Note_on_c, 5, 49, 93
7, 21006, Note_off_c, 5, 49, 0
7, 21024, Note_on_c, 5, 47, 93
7, 21120, Note_off_c, 5, 47, 0
7, 21120, Note_on_c, 5, 45, 93
7, 21186, Note_off_c, 5, 45, 0
7, 21648, Note_on_c, 5, 33, 93
7, 21696, Note_off_c, 5, 33, 0
7, 21696, Note_on_c, 5, 37, 93
7, 21744, Note_off_c, 5, 37, 0
7, 21744, Note_on_c, 5, 40, 93
7, 21792, Note_off_c, 5, 40, 0
7, 21792, Note_on_c, 5, 45, 93
7, 21822, Note_off_c, 5, 45, 0
7, 21840, Note_on_c, 5, 44, 93
7, 21870, Note_off_c, 5, 44, 0
7, 21888, Note_on_c, 5, 42, 93
7, 21918, Note_off_c, 5, 42, 0
7, 21936, Note_on_c, 5, 40, 93
7, 21966, Note_off_c, 5, 40, 0
7, 21984, Note_on_c, 5, 38, 93
7, 22014, Note_off_c, 5, 38, 0
7, 22032, Note_on_c, 5, 37, 93
7, 22062, Note_off_c, 5, 37, 0
7, 22080, Note_on_c, 5, 35, 93
7, 22110, Note_off_c, 5, 35, 0
7, 22128, Note_on_c, 5, 40, 93
7, 22158, Note_off_c, 5, 40, 0
7, 22176, Note_on_c, 5, 33, 93
7, 22560, Note_off_c, 5, 33, 0
7, 22560, End_track
0, 0, End_of_file
