0, 0, Header, 1, 4, 96
1, 0, Start_track
1, 0, Time_signature, 4, 2, 24, 8
1, 0, Title_t, "untitled"
1, 0, Title_t, "Track1"
1, 0, Tempo, 731707
1, 3168, Tempo, 750000
1, 12672, Tempo, 845070
1, 12816, Tempo, 895522
1, 12900, Tempo, 923076
1, 12960, Tempo, 750000
1, 22752, Tempo, 937500
1, 23040, Tempo, 1200000
1, 23178, Tempo, 1333333
1, 23274, Tempo, 1578947
1, 23328, Tempo, 1000000
1, 23616, Tempo, 750000
1, 50598, Tempo, 821917
1, 50700, Tempo, 895522
1, 50742, Tempo, 1132075
1, 50790, Tempo, 1153846
1, 50880, Tempo, 750000
1, 50886, Tempo, 869565
1, 50916, Tempo, 750000
1, 54822, Tempo, 800000
1, 54912, Tempo, 983606
1, 55014, Tempo, 1111111
1, 55014, Tempo, 1090909
1, 55098, Tempo, 1333333
1, 55104, Tempo, 1363636
1, 55104, Tempo, 1090909
1, 55104, Tempo, 1333333
1, 55206, Tempo, 1500000
1, 55206, End_track
2, 0, Start_track
2, 0, Title_t, "Track2"
2, 0, Program_c, 0, 19
2, 0, Control_c, 0, 7, 100
2, 0, Control_c, 0, 10, 64
2, 0, Control_c, 0, 91, 127
2, 24, Note_on_c, 0, 67, 110
2, 48, Note_off_c, 0, 67, 0
2, 48, Note_on_c, 0, 71, 110
2, 72, Note_off_c, 0, 71, 0
2, 72, Note_on_c, 0, 74, 110
2, 96, Note_off_c, 0, 74, 0
2, 96, Note_on_c, 0, 79, 110
2, 144, Note_off_c, 0, 79, 0
2, 144, Note_on_c, 0, 78, 110
2, 168, Note_off_c, 0, 78, 0
2, 168, Note_on_c, 0, 76, 110
2, 192, Note_off_c, 0, 76, 0
2, 192, Note_on_c, 0, 74, 110
2, 216, Note_off_c, 0, 74, 0
2, 216, Note_on_c, 0, 72, 110
2, 240, Note_off_c, 0, 72, 0
2, 240, Note_on_c, 0, 71, 110
2, 264, Note_off_c, 0, 71, 0
2, 264, Note_on_c, 0, 69, 110
2, 288, Note_off_c, 0, 69, 0
2, 288, Note_on_c, 0, 71, 110
2, 312, Note_off_c, 0, 71, 0
2, 312, Note_on_c, 0, 74, 110
2, 336, Note_off_c, 0, 74, 0
2, 336, Note_on_c, 0, 67, 110
2, 360, Note_off_c, 0, 67, 0
2, 360, Note_on_c, 0, 71, 110
2, 384, Note_off_c, 0, 71, 0
2, 384, Note_on_c, 0, 62, 110
2, 408, Note_off_c, 0, 62, 0
2, 408, Note_on_c, 0, 71, 110
2, 432, Note_off_c, 0, 71, 0
2, 432, Note_on_c, 0, 69, 110
2, 456, Note_off_c, 0, 69, 0
2, 456, Note_on_c, 0, 67, 110
2, 480, Note_off_c, 0, 67, 0
2, 480, Note_on_c, 0, 66, 110
2, 504, Note_off_c, 0, 66, 0
2, 504, Note_on_c, 0, 64, 110
2, 528, Note_off_c, 0, 64, 0
2, 528, Note_on_c, 0, 62, 110
2, 552, Note_off_c, 0, 62, 0
2, 552, Note_on_c, 0, 60, 110
2, 576, Note_off_c, 0, 60, 0
2, 576, Note_on_c, 0, 62, 110
2, 600, Note_off_c, 0, 62, 0
2, 600, Note_on_c, 0, 67, 110
2, 624, Note_off_c, 0, 67, 0
2, 624, Note_on_c, 0, 59, 110
2, 648, Note_off_c, 0, 59, 0
2, 648, Note_on_c, 0, 62, 110
2, 672, Note_off_c, 0, 62, 0
2, 1824, Note_on_c, 0, 62, 110
2, 1848, Note_off_c, 0, 62, 0
2, 1848, Note_on_c, 0, 67, 110
2, 1872, Note_off_c, 0, 67, 0
2, 1872, Note_on_c, 0, 59, 110
2, 1896, Note_off_c, 0, 59, 0
2, 1896, Note_on_c, 0, 62, 110
2, 1920, Note_off_c, 0, 62, 0
2, 2880, Note_on_c, 0, 62, 110
2, 2904, Note_off_c, 0, 62, 0
2, 2904, Note_on_c, 0, 59, 110
2, 2928, Note_off_c, 0, 59, 0
2, 2928, Note_on_c, 0, 62, 110
2, 2952, Note_off_c, 0, 62, 0
2, 2952, Note_on_c, 0, 67, 110
2, 2976, Note_off_c, 0, 67, 0
2, 2976, Note_on_c, 0, 62, 110
2, 3000, Note_off_c, 0, 62, 0
2, 3000, Note_on_c, 0, 67, 110
2, 3024, Note_off_c, 0, 67, 0
2, 3024, Note_on_c, 0, 71, 110
2, 3048, Note_off_c, 0, 71, 0
2, 3048, Note_on_c, 0, 67, 110
2, 3072, Note_off_c, 0, 67, 0
2, 3072, Note_on_c, 0, 71, 110
2, 3096, Note_off_c, 0, 71, 0
2, 3096, Note_on_c, 0, 74, 110
2, 3120, Note_off_c, 0, 74, 0
2, 3120, Note_on_c, 0, 71, 110
2, 3144, Note_off_c, 0, 71, 0
2, 3144, Note_on_c, 0, 74, 110
2, 3168, Note_off_c, 0, 74, 0
2, 3168, Note_on_c, 0, 79, 110
2, 3480, Note_off_c, 0, 79, 0
2, 3480, Note_on_c, 0, 83, 110
2, 3504, Note_off_c, 0, 83, 0
2, 3504, Note_on_c, 0, 81, 110
2, 3528, Note_off_c, 0, 81, 0
2, 3528, Note_on_c, 0, 79, 110
2, 3552, Note_off_c, 0, 79, 0
2, 3552, Note_on_c, 0, 78, 110
2, 3576, Note_off_c, 0, 78, 0
2, 3576, Note_on_c, 0, 76, 110
2, 3600, Note_off_c, 0, 76, 0
2, 3600, Note_on_c, 0, 74, 110
2, 3624, Note_off_c, 0, 74, 0
2, 3624, Note_on_c, 0, 72, 110
2, 3648, Note_off_c, 0, 72, 0
2, 3648, Note_on_c, 0, 71, 110
2, 3672, Note_off_c, 0, 71, 0
2, 3672, Note_on_c, 0, 69, 110
2, 3696, Note_off_c, 0, 69, 0
2, 3696, Note_on_c, 0, 72, 110
2, 3720, Note_off_c, 0, 72, 0
2, 3720, Note_on_c, 0, 71, 110
2, 3744, Note_off_c, 0, 71, 0
2, 3744, Note_on_c, 0, 72, 110
2, 4056, Note_off_c, 0, 72, 0
2, 4056, Note_on_c, 0, 76, 110
2, 4080, Note_off_c, 0, 76, 0
2, 4080, Note_on_c, 0, 74, 110
2, 4128, Note_off_c, 0, 74, 0
2, 4128, Note_on_c, 0, 71, 110
2, 4152, Note_off_c, 0, 71, 0
2, 4152, Note_on_c, 0, 69, 110
2, 4176, Note_off_c, 0, 69, 0
2, 4176, Note_on_c, 0, 67, 110
2, 4200, Note_off_c, 0, 67, 0
2, 4200, Note_on_c, 0, 66, 110
2, 4224, Note_off_c, 0, 66, 0
2, 4224, Note_on_c, 0, 64, 110
2, 4248, Note_off_c, 0, 64, 0
2, 4248, Note_on_c, 0, 62, 110
2, 4272, Note_off_c, 0, 62, 0
2, 4272, Note_on_c, 0, 65, 110
2, 4296, Note_off_c, 0, 65, 0
2, 4296, Note_on_c, 0, 64, 110
2, 4320, Note_off_c, 0, 64, 0
2, 4320, Note_on_c, 0, 65, 110
2, 4608, Note_off_c, 0, 65, 0
2, 4608, Note_on_c, 0, 76, 110
2, 4656, Note_off_c, 0, 76, 0
2, 4656, Note_on_c, 0, 67, 110
2, 4704, Note_off_c, 0, 67, 0
2, 4704, Note_on_c, 0, 76, 110
2, 4752, Note_off_c, 0, 76, 0
2, 4752, Note_on_c, 0, 69, 110
2, 4800, Note_off_c, 0, 69, 0
2, 4800, Note_on_c, 0, 69, 110
2, 4848, Note_off_c, 0, 69, 0
2, 4848, Note_on_c, 0, 69, 110
2, 4896, Note_off_c, 0, 69, 0
2, 4896, Note_on_c, 0, 69, 110
2, 4944, Note_off_c, 0, 69, 0
2, 4944, Note_on_c, 0, 72, 110
2, 4992, Note_off_c, 0, 72, 0
2, 4992, Note_on_c, 0, 71, 110
2, 5040, Note_off_c, 0, 71, 0
2, 5040, Note_on_c, 0, 69, 110
2, 5088, Note_off_c, 0, 69, 0
2, 5088, Note_on_c, 0, 67, 110
2, 5136, Note_off_c, 0, 67, 0
2, 5136, Note_on_c, 0, 66, 110
2, 5184, Note_off_c, 0, 66, 0
2, 5184, Note_on_c, 0, 74, 110
2, 5232, Note_off_c, 0, 74, 0
2, 5232, Note_on_c, 0, 79, 110
2, 5256, Note_off_c, 0, 79, 0
2, 5256, Note_on_c, 0, 81, 110
2, 5280, Note_off_c, 0, 81, 0
2, 5280, Note_on_c, 0, 79, 110
2, 5304, Note_off_c, 0, 79, 0
2, 5304, Note_on_c, 0, 83, 110
2, 5328, Note_off_c, 0, 83, 0
2, 5328, Note_on_c, 0, 67, 110
2, 5376, Note_off_c, 0, 67, 0
2, 5376, Note_on_c, 0, 66, 110
2, 5424, Note_off_c, 0, 66, 0
2, 5424, Note_on_c, 0, 64, 110
2, 5472, Note_off_c, 0, 64, 0
2, 5472, Note_on_c, 0, 62, 110
2, 5568, Note_off_c, 0, 62, 0
2, 5568, Note_on_c, 0, 81, 110
2, 5592, Note_off_c, 0, 81, 0
2, 5592, Note_on_c, 0, 84, 110
2, 5616, Note_off_c, 0, 84, 0
2, 5616, Note_on_c, 0, 66, 110
2, 5664, Note_off_c, 0, 66, 0
2, 5664, Note_on_c, 0, 67, 110
2, 5712, Note_off_c, 0, 67, 0
2, 5712, Note_on_c, 0, 69, 110
2, 5760, Note_off_c, 0, 69, 0
2, 5760, Note_on_c, 0, 74, 110
2, 5808, Note_off_c, 0, 74, 0
2, 5808, Note_on_c, 0, 83, 110
2, 5856, Note_off_c, 0, 83, 0
2, 5856, Note_on_c, 0, 83, 110
2, 5904, Note_off_c, 0, 83, 0
2, 5904, Note_on_c, 0, 83, 110
2, 5952, Note_off_c, 0, 83, 0
2, 5952, Note_on_c, 0, 83, 110
2, 6000, Note_off_c, 0, 83, 0
2, 6000, Note_on_c, 0, 83, 110
2, 6048, Note_off_c, 0, 83, 0
2, 6048, Note_on_c, 0, 83, 110
2, 6096, Note_off_c, 0, 83, 0
2, 6096, Note_on_c, 0, 81, 110
2, 6144, Note_off_c, 0, 81, 0
2, 6144, Note_on_c, 0, 81, 110
2, 6192, Note_off_c, 0, 81, 0
2, 6192, Note_on_c, 0, 81, 110
2, 6240, Note_off_c, 0, 81, 0
2, 6240, Note_on_c, 0, 81, 110
2, 6288, Note_off_c, 0, 81, 0
2, 6288, Note_on_c, 0, 81, 110
2, 6336, Note_off_c, 0, 81, 0
2, 6336, Note_on_c, 0, 81, 110
2, 6384, Note_off_c, 0, 81, 0
2, 6384, Note_on_c, 0, 79, 110
2, 6432, Note_off_c, 0, 79, 0
2, 6432, Note_on_c, 0, 79, 110
2, 6480, Note_off_c, 0, 79, 0
2, 6480, Note_on_c, 0, 79, 110
2, 6528, Note_off_c, 0, 79, 0
2, 6528, Note_on_c, 0, 79, 110
2, 6576, Note_off_c, 0, 79, 0
2, 6576, Note_on_c, 0, 79, 110
2, 6624, Note_off_c, 0, 79, 0
2, 6624, Note_on_c, 0, 79, 110
2, 6648, Note_off_c, 0, 79, 0
2, 6648, Note_on_c, 0, 83, 110
2, 6672, Note_off_c, 0, 83, 0
2, 6672, Note_on_c, 0, 76, 110
2, 6696, Note_off_c, 0, 76, 0
2, 6696, Note_on_c, 0, 79, 110
2, 6720, Note_off_c, 0, 79, 0
2, 6720, Note_on_c, 0, 73, 110
2, 6744, Note_off_c, 0, 73, 0
2, 6744, Note_on_c, 0, 78, 110
2, 6768, Note_off_c, 0, 78, 0
2, 6768, Note_on_c, 0, 76, 110
2, 6792, Note_off_c, 0, 76, 0
2, 6792, Note_on_c, 0, 74, 110
2, 6816, Note_off_c, 0, 74, 0
2, 6816, Note_on_c, 0, 73, 110
2, 6840, Note_off_c, 0, 73, 0
2, 6840, Note_on_c, 0, 71, 110
2, 6864, Note_off_c, 0, 71, 0
2, 6864, Note_on_c, 0, 69, 110
2, 6888, Note_off_c, 0, 69, 0
2, 6888, Note_on_c, 0, 67, 110
2, 6912, Note_off_c, 0, 67, 0
2, 6912, Note_on_c, 0, 81, 110
2, 6960, Note_off_c, 0, 81, 0
2, 7200, Note_on_c, 0, 74, 110
2, 7248, Note_off_c, 0, 74, 0
2, 7536, Note_on_c, 0, 83, 110
2, 7584, Note_off_c, 0, 83, 0
2, 7584, Note_on_c, 0, 81, 110
2, 7632, Note_off_c, 0, 81, 0
2, 7632, Note_on_c, 0, 79, 110
2, 7680, Note_off_c, 0, 79, 0
2, 7680, Note_on_c, 0, 78, 110
2, 7728, Note_off_c, 0, 78, 0
2, 7728, Note_on_c, 0, 76, 110
2, 7776, Note_off_c, 0, 76, 0
2, 7776, Note_on_c, 0, 74, 110
2, 7800, Note_off_c, 0, 74, 0
2, 7800, Note_on_c, 0, 71, 110
2, 7824, Note_off_c, 0, 71, 0
2, 7824, Note_on_c, 0, 69, 110
2, 7848, Note_off_c, 0, 69, 0
2, 7848, Note_on_c, 0, 67, 110
2, 7872, Note_off_c, 0, 67, 0
2, 7872, Note_on_c, 0, 66, 110
2, 7944, Note_off_c, 0, 66, 0
2, 7944, Note_on_c, 0, 66, 110
2, 7968, Note_off_c, 0, 66, 0
2, 7968, Note_on_c, 0, 64, 110
2, 8016, Note_off_c, 0, 64, 0
2, 8016, Note_on_c, 0, 67, 110
2, 8064, Note_off_c, 0, 67, 0
2, 8064, Note_on_c, 0, 66, 110
2, 8112, Note_off_c, 0, 66, 0
2, 8112, Note_on_c, 0, 73, 110
2, 8136, Note_off_c, 0, 73, 0
2, 8136, Note_on_c, 0, 71, 110
2, 8160, Note_off_c, 0, 71, 0
2, 8160, Note_on_c, 0, 69, 110
2, 8184, Note_off_c, 0, 69, 0
2, 8184, Note_on_c, 0, 67, 110
2, 8208, Note_off_c, 0, 67, 0
2, 8208, Note_on_c, 0, 66, 110
2, 8232, Note_off_c, 0, 66, 0
2, 8232, Note_on_c, 0, 64, 110
2, 8256, Note_off_c, 0, 64, 0
2, 8256, Note_on_c, 0, 66, 110
2, 8280, Note_off_c, 0, 66, 0
2, 8280, Note_on_c, 0, 69, 110
2, 8304, Note_off_c, 0, 69, 0
2, 8304, Note_on_c, 0, 62, 110
2, 8328, Note_off_c, 0, 62, 0
2, 8328, Note_on_c, 0, 66, 110
2, 8352, Note_off_c, 0, 66, 0
2, 8736, Note_on_c, 0, 62, 110
2, 8760, Note_off_c, 0, 62, 0
2, 8760, Note_on_c, 0, 66, 110
2, 8784, Note_off_c, 0, 66, 0
2, 8784, Note_on_c, 0, 57, 110
2, 8808, Note_off_c, 0, 57, 0
2, 8808, Note_on_c, 0, 62, 110
2, 8832, Note_off_c, 0, 62, 0
2, 8832, Note_on_c, 0, 66, 110
2, 8856, Note_off_c, 0, 66, 0
2, 8856, Note_on_c, 0, 69, 110
2, 8880, Note_off_c, 0, 69, 0
2, 8880, Note_on_c, 0, 62, 110
2, 8904, Note_off_c, 0, 62, 0
2, 8904, Note_on_c, 0, 66, 110
2, 8928, Note_off_c, 0, 66, 0
2, 8928, Note_on_c, 0, 69, 110
2, 9240, Note_off_c, 0, 69, 0
2, 9240, Note_on_c, 0, 67, 110
2, 9264, Note_off_c, 0, 67, 0
2, 9264, Note_on_c, 0, 66, 110
2, 9288, Note_off_c, 0, 66, 0
2, 9288, Note_on_c, 0, 64, 110
2, 9312, Note_off_c, 0, 64, 0
2, 9312, Note_on_c, 0, 63, 110
2, 9336, Note_off_c, 0, 63, 0
2, 9336, Note_on_c, 0, 64, 110
2, 9360, Note_off_c, 0, 64, 0
2, 9360, Note_on_c, 0, 66, 110
2, 9384, Note_off_c, 0, 66, 0
2, 9384, Note_on_c, 0, 67, 110
2, 9408, Note_off_c, 0, 67, 0
2, 9408, Note_on_c, 0, 69, 110
2, 9432, Note_off_c, 0, 69, 0
2, 9432, Note_on_c, 0, 67, 110
2, 9456, Note_off_c, 0, 67, 0
2, 9456, Note_on_c, 0, 69, 110
2, 9480, Note_off_c, 0, 69, 0
2, 9480, Note_on_c, 0, 66, 110
2, 9504, Note_off_c, 0, 66, 0
2, 9504, Note_on_c, 0, 67, 110
2, 9816, Note_off_c, 0, 67, 0
2, 9816, Note_on_c, 0, 67, 110
2, 9840, Note_off_c, 0, 67, 0
2, 9840, Note_on_c, 0, 66, 110
2, 9864, Note_off_c, 0, 66, 0
2, 9864, Note_on_c, 0, 64, 110
2, 9888, Note_off_c, 0, 64, 0
2, 9888, Note_on_c, 0, 62, 110
2, 9912, Note_off_c, 0, 62, 0
2, 9912, Note_on_c, 0, 60, 110
2, 9936, Note_off_c, 0, 60, 0
2, 9936, Note_on_c, 0, 59, 110
2, 9960, Note_off_c, 0, 59, 0
2, 9960, Note_on_c, 0, 57, 110
2, 9984, Note_off_c, 0, 57, 0
2, 9984, Note_on_c, 0, 55, 110
2, 10008, Note_off_c, 0, 55, 0
2, 10008, Note_on_c, 0, 54, 110
2, 10032, Note_off_c, 0, 54, 0
2, 10032, Note_on_c, 0, 52, 110
2, 10056, Note_off_c, 0, 52, 0
2, 10056, Note_on_c, 0, 50, 110
2, 10080, Note_off_c, 0, 50, 0
2, 10080, Note_on_c, 0, 72, 110
2, 10416, Note_off_c, 0, 72, 0
2, 10656, Note_on_c, 0, 62, 110
2, 10704, Note_off_c, 0, 62, 0
2, 10704, Note_on_c, 0, 62, 110
2, 10752, Note_off_c, 0, 62, 0
2, 10752, Note_on_c, 0, 67, 110
2, 10896, Note_off_c, 0, 67, 0
2, 10896, Note_on_c, 0, 67, 110
2, 10944, Note_off_c, 0, 67, 0
2, 10968, Note_on_c, 0, 79, 110
2, 10992, Note_off_c, 0, 79, 0
2, 10992, Note_on_c, 0, 78, 110
2, 11016, Note_off_c, 0, 78, 0
2, 11016, Note_on_c, 0, 79, 110
2, 11040, Note_off_c, 0, 79, 0
2, 11040, Note_on_c, 0, 76, 110
2, 11064, Note_off_c, 0, 76, 0
2, 11064, Note_on_c, 0, 79, 110
2, 11088, Note_off_c, 0, 79, 0
2, 11088, Note_on_c, 0, 74, 110
2, 11112, Note_off_c, 0, 74, 0
2, 11112, Note_on_c, 0, 79, 110
2, 11136, Note_off_c, 0, 79, 0
2, 11136, Note_on_c, 0, 73, 110
2, 11160, Note_off_c, 0, 73, 0
2, 11160, Note_on_c, 0, 79, 110
2, 11184, Note_off_c, 0, 79, 0
2, 11184, Note_on_c, 0, 71, 110
2, 11208, Note_off_c, 0, 71, 0
2, 11208, Note_on_c, 0, 79, 110
2, 11232, Note_off_c, 0, 79, 0
2, 11232, Note_on_c, 0, 70, 110
2, 11256, Note_off_c, 0, 70, 0
2, 11256, Note_on_c, 0, 67, 110
2, 11280, Note_off_c, 0, 67, 0
2, 11280, Note_on_c, 0, 66, 110
2, 11304, Note_off_c, 0, 66, 0
2, 11304, Note_on_c, 0, 67, 110
2, 11328, Note_off_c, 0, 67, 0
2, 11328, Note_on_c, 0, 64, 110
2, 11352, Note_off_c, 0, 64, 0
2, 11352, Note_on_c, 0, 67, 110
2, 11376, Note_off_c, 0, 67, 0
2, 11376, Note_on_c, 0, 62, 110
2, 11400, Note_off_c, 0, 62, 0
2, 11400, Note_on_c, 0, 67, 110
2, 11424, Note_off_c, 0, 67, 0
2, 11424, Note_on_c, 0, 61, 110
2, 11448, Note_off_c, 0, 61, 0
2, 11448, Note_on_c, 0, 67, 110
2, 11472, Note_off_c, 0, 67, 0
2, 11472, Note_on_c, 0, 59, 110
2, 11496, Note_off_c, 0, 59, 0
2, 11496, Note_on_c, 0, 67, 110
2, 11520, Note_off_c, 0, 67, 0
2, 11520, Note_on_c, 0, 66, 110
2, 11544, Note_off_c, 0, 66, 0
2, 11544, Note_on_c, 0, 64, 110
2, 11568, Note_off_c, 0, 64, 0
2, 11568, Note_on_c, 0, 67, 110
2, 11592, Note_off_c, 0, 67, 0
2, 11592, Note_on_c, 0, 66, 110
2, 11616, Note_off_c, 0, 66, 0
2, 11616, Note_on_c, 0, 64, 110
2, 11640, Note_off_c, 0, 64, 0
2, 11640, Note_on_c, 0, 62, 110
2, 11664, Note_off_c, 0, 62, 0
2, 11664, Note_on_c, 0, 61, 110
2, 11688, Note_off_c, 0, 61, 0
2, 11688, Note_on_c, 0, 59, 110
2, 11712, Note_off_c, 0, 59, 0
2, 11856, Note_on_c, 0, 66, 110
2, 11904, Note_off_c, 0, 66, 0
2, 11904, Note_on_c, 0, 71, 110
2, 11952, Note_off_c, 0, 71, 0
2, 11952, Note_on_c, 0, 67, 110
2, 12000, Note_off_c, 0, 67, 0
2, 12000, Note_on_c, 0, 66, 110
2, 12048, Note_off_c, 0, 66, 0
2, 12048, Note_on_c, 0, 66, 110
2, 12096, Note_off_c, 0, 66, 0
2, 12096, Note_on_c, 0, 71, 110
2, 12120, Note_off_c, 0, 71, 0
2, 12120, Note_on_c, 0, 70, 110
2, 12144, Note_off_c, 0, 70, 0
2, 12144, Note_on_c, 0, 71, 110
2, 12168, Note_off_c, 0, 71, 0
2, 12168, Note_on_c, 0, 79, 110
2, 12192, Note_off_c, 0, 79, 0
2, 12192, Note_on_c, 0, 71, 110
2, 12216, Note_off_c, 0, 71, 0
2, 12216, Note_on_c, 0, 78, 110
2, 12240, Note_off_c, 0, 78, 0
2, 12240, Note_on_c, 0, 66, 110
2, 12264, Note_off_c, 0, 66, 0
2, 12264, Note_on_c, 0, 76, 110
2, 12288, Note_off_c, 0, 76, 0
2, 12288, Note_on_c, 0, 68, 110
2, 12312, Note_off_c, 0, 68, 0
2, 12312, Note_on_c, 0, 74, 110
2, 12336, Note_off_c, 0, 74, 0
2, 12336, Note_on_c, 0, 64, 110
2, 12384, Note_off_c, 0, 64, 0
2, 12384, Note_on_c, 0, 66, 110
2, 12432, Note_off_c, 0, 66, 0
2, 12432, Note_on_c, 0, 64, 110
2, 12480, Note_off_c, 0, 64, 0
2, 12480, Note_on_c, 0, 66, 110
2, 12528, Note_off_c, 0, 66, 0
2, 12528, Note_on_c, 0, 70, 110
2, 12552, Note_off_c, 0, 70, 0
2, 12552, Note_on_c, 0, 78, 110
2, 12576, Note_off_c, 0, 78, 0
2, 12576, Note_on_c, 0, 71, 110
2, 12600, Note_off_c, 0, 71, 0
2, 12600, Note_on_c, 0, 80, 110
2, 12624, Note_off_c, 0, 80, 0
2, 12624, Note_on_c, 0, 73, 110
2, 12648, Note_off_c, 0, 73, 0
2, 12648, Note_on_c, 0, 82, 110
2, 12672, Note_off_c, 0, 82, 0
2, 12672, Note_on_c, 0, 74, 110
2, 12720, Note_off_c, 0, 74, 0
2, 12720, Note_on_c, 0, 66, 110
2, 12768, Note_off_c, 0, 66, 0
2, 12768, Note_on_c, 0, 67, 110
2, 12816, Note_off_c, 0, 67, 0
2, 12816, Note_on_c, 0, 67, 110
2, 12864, Note_off_c, 0, 67, 0
2, 12864, Note_on_c, 0, 66, 110
2, 12912, Note_off_c, 0, 66, 0
2, 12912, Note_on_c, 0, 64, 110
2, 12954, Note_off_c, 0, 64, 0
2, 12960, Note_on_c, 0, 71, 110
2, 13008, Note_off_c, 0, 71, 0
2, 13008, Note_on_c, 0, 74, 110
2, 13032, Note_off_c, 0, 74, 0
2, 13032, Note_on_c, 0, 73, 110
2, 13056, Note_off_c, 0, 73, 0
2, 13056, Note_on_c, 0, 74, 110
2, 13080, Note_off_c, 0, 74, 0
2, 13080, Note_on_c, 0, 77, 110
2, 13104, Note_off_c, 0, 77, 0
2, 13104, Note_on_c, 0, 71, 110
2, 13128, Note_off_c, 0, 71, 0
2, 13128, Note_on_c, 0, 74, 110
2, 13152, Note_off_c, 0, 74, 0
2, 13152, Note_on_c, 0, 68, 110
2, 13176, Note_off_c, 0, 68, 0
2, 13176, Note_on_c, 0, 71, 110
2, 13200, Note_off_c, 0, 71, 0
2, 13200, Note_on_c, 0, 62, 110
2, 13224, Note_off_c, 0, 62, 0
2, 13224, Note_on_c, 0, 65, 110
2, 13248, Note_off_c, 0, 65, 0
2, 13248, Note_on_c, 0, 74, 110
2, 13560, Note_off_c, 0, 74, 0
2, 13560, Note_on_c, 0, 72, 110
2, 13584, Note_off_c, 0, 72, 0
2, 13584, Note_on_c, 0, 71, 110
2, 13608, Note_off_c, 0, 71, 0
2, 13608, Note_on_c, 0, 72, 110
2, 13632, Note_off_c, 0, 72, 0
2, 13632, Note_on_c, 0, 74, 110
2, 13656, Note_off_c, 0, 74, 0
2, 13656, Note_on_c, 0, 76, 110
2, 13680, Note_off_c, 0, 76, 0
2, 13680, Note_on_c, 0, 77, 110
2, 13704, Note_off_c, 0, 77, 0
2, 13704, Note_on_c, 0, 76, 110
2, 13728, Note_off_c, 0, 76, 0
2, 13728, Note_on_c, 0, 74, 110
2, 13752, Note_off_c, 0, 74, 0
2, 13752, Note_on_c, 0, 72, 110
2, 13776, Note_off_c, 0, 72, 0
2, 13776, Note_on_c, 0, 74, 110
2, 13800, Note_off_c, 0, 74, 0
2, 13800, Note_on_c, 0, 71, 110
2, 13824, Note_off_c, 0, 71, 0
2, 13824, Note_on_c, 0, 72, 110
2, 14136, Note_off_c, 0, 72, 0
2, 14136, Note_on_c, 0, 71, 110
2, 14160, Note_off_c, 0, 71, 0
2, 14160, Note_on_c, 0, 72, 110
2, 14184, Note_off_c, 0, 72, 0
2, 14184, Note_on_c, 0, 81, 110
2, 14208, Note_off_c, 0, 81, 0
2, 14208, Note_on_c, 0, 78, 110
2, 14232, Note_off_c, 0, 78, 0
2, 14232, Note_on_c, 0, 81, 110
2, 14256, Note_off_c, 0, 81, 0
2, 14256, Note_on_c, 0, 74, 110
2, 14280, Note_off_c, 0, 74, 0
2, 14280, Note_on_c, 0, 78, 110
2, 14304, Note_off_c, 0, 78, 0
2, 14304, Note_on_c, 0, 69, 110
2, 14328, Note_off_c, 0, 69, 0
2, 14328, Note_on_c, 0, 74, 110
2, 14352, Note_off_c, 0, 74, 0
2, 14352, Note_on_c, 0, 66, 110
2, 14376, Note_off_c, 0, 66, 0
2, 14376, Note_on_c, 0, 69, 110
2, 14400, Note_off_c, 0, 69, 0
2, 14400, Note_on_c, 0, 72, 110
2, 14712, Note_off_c, 0, 72, 0
2, 14712, Note_on_c, 0, 71, 110
2, 14736, Note_off_c, 0, 71, 0
2, 14736, Note_on_c, 0, 69, 110
2, 14760, Note_off_c, 0, 69, 0
2, 14760, Note_on_c, 0, 71, 110
2, 14784, Note_off_c, 0, 71, 0
2, 14784, Note_on_c, 0, 72, 110
2, 14808, Note_off_c, 0, 72, 0
2, 14808, Note_on_c, 0, 74, 110
2, 14832, Note_off_c, 0, 74, 0
2, 14832, Note_on_c, 0, 76, 110
2, 14856, Note_off_c, 0, 76, 0
2, 14856, Note_on_c, 0, 74, 110
2, 14880, Note_off_c, 0, 74, 0
2, 14880, Note_on_c, 0, 72, 110
2, 14904, Note_off_c, 0, 72, 0
2, 14904, Note_on_c, 0, 71, 110
2, 14928, Note_off_c, 0, 71, 0
2, 14928, Note_on_c, 0, 72, 110
2, 14952, Note_off_c, 0, 72, 0
2, 14952, Note_on_c, 0, 69, 110
2, 14976, Note_off_c, 0, 69, 0
2, 14976, Note_on_c, 0, 71, 110
2, 15024, Note_off_c, 0, 71, 0
2, 15024, Note_on_c, 0, 67, 110
2, 15048, Note_off_c, 0, 67, 0
2, 15048, Note_on_c, 0, 66, 110
2, 15072, Note_off_c, 0, 66, 0
2, 15072, Note_on_c, 0, 67, 110
2, 15120, Note_off_c, 0, 67, 0
2, 15120, Note_on_c, 0, 62, 110
2, 15168, Note_off_c, 0, 62, 0
2, 15168, Note_on_c, 0, 71, 110
2, 15216, Note_off_c, 0, 71, 0
2, 15216, Note_on_c, 0, 67, 110
2, 15264, Note_off_c, 0, 67, 0
2, 15264, Note_on_c, 0, 64, 110
2, 15360, Note_off_c, 0, 64, 0
2, 15360, Note_on_c, 0, 69, 110
2, 15408, Note_off_c, 0, 69, 0
2, 15408, Note_on_c, 0, 62, 110
2, 15456, Note_off_c, 0, 62, 0
2, 15456, Note_on_c, 0, 72, 110
2, 15504, Note_off_c, 0, 72, 0
2, 15504, Note_on_c, 0, 66, 110
2, 15552, Note_off_c, 0, 66, 0
2, 15552, Note_on_c, 0, 71, 110
2, 15600, Note_off_c, 0, 71, 0
2, 15600, Note_on_c, 0, 71, 110
2, 15624, Note_off_c, 0, 71, 0
2, 15624, Note_on_c, 0, 69, 110
2, 15648, Note_off_c, 0, 69, 0
2, 15648, Note_on_c, 0, 71, 110
2, 15696, Note_off_c, 0, 71, 0
2, 15696, Note_on_c, 0, 67, 110
2, 15744, Note_off_c, 0, 67, 0
2, 15744, Note_on_c, 0, 74, 110
2, 15792, Note_off_c, 0, 74, 0
2, 15792, Note_on_c, 0, 71, 110
2, 15840, Note_off_c, 0, 71, 0
2, 15840, Note_on_c, 0, 73, 110
2, 15888, Note_off_c, 0, 73, 0
2, 15888, Note_on_c, 0, 73, 110
2, 15912, Note_off_c, 0, 73, 0
2, 15912, Note_on_c, 0, 71, 110
2, 15936, Note_off_c, 0, 71, 0
2, 15936, Note_on_c, 0, 73, 110
2, 15984, Note_off_c, 0, 73, 0
2, 15984, Note_on_c, 0, 67, 110
2, 16032, Note_off_c, 0, 67, 0
2, 16032, Note_on_c, 0, 76, 110
2, 16080, Note_off_c, 0, 76, 0
2, 16080, Note_on_c, 0, 73, 110
2, 16128, Note_off_c, 0, 73, 0
2, 16128, Note_on_c, 0, 74, 110
2, 16152, Note_off_c, 0, 74, 0
2, 16152, Note_on_c, 0, 69, 110
2, 16176, Note_off_c, 0, 69, 0
2, 16176, Note_on_c, 0, 72, 110
2, 16200, Note_off_c, 0, 72, 0
2, 16200, Note_on_c, 0, 71, 110
2, 16224, Note_off_c, 0, 71, 0
2, 16224, Note_on_c, 0, 69, 110
2, 16248, Note_off_c, 0, 69, 0
2, 16248, Note_on_c, 0, 83, 110
2, 16272, Note_off_c, 0, 83, 0
2, 16272, Note_on_c, 0, 81, 110
2, 16296, Note_off_c, 0, 81, 0
2, 16296, Note_on_c, 0, 79, 110
2, 16320, Note_off_c, 0, 79, 0
2, 16320, Note_on_c, 0, 78, 110
2, 16344, Note_off_c, 0, 78, 0
2, 16344, Note_on_c, 0, 76, 110
2, 16368, Note_off_c, 0, 76, 0
2, 16368, Note_on_c, 0, 74, 110
2, 16392, Note_off_c, 0, 74, 0
2, 16392, Note_on_c, 0, 72, 110
2, 16416, Note_off_c, 0, 72, 0
2, 16416, Note_on_c, 0, 71, 110
2, 16536, Note_off_c, 0, 71, 0
2, 16536, Note_on_c, 0, 71, 110
2, 16560, Note_off_c, 0, 71, 0
2, 16560, Note_on_c, 0, 69, 110
2, 16584, Note_off_c, 0, 69, 0
2, 16584, Note_on_c, 0, 67, 110
2, 16608, Note_off_c, 0, 67, 0
2, 16608, Note_on_c, 0, 66, 110
2, 16632, Note_off_c, 0, 66, 0
2, 16632, Note_on_c, 0, 69, 110
2, 16656, Note_off_c, 0, 69, 0
2, 16656, Note_on_c, 0, 67, 110
2, 16680, Note_off_c, 0, 67, 0
2, 16680, Note_on_c, 0, 66, 110
2, 16704, Note_off_c, 0, 66, 0
2, 16704, Note_on_c, 0, 67, 110
2, 16728, Note_off_c, 0, 67, 0
2, 16728, Note_on_c, 0, 66, 110
2, 16752, Note_off_c, 0, 66, 0
2, 16752, Note_on_c, 0, 67, 110
2, 16776, Note_off_c, 0, 67, 0
2, 16776, Note_on_c, 0, 69, 110
2, 16800, Note_off_c, 0, 69, 0
2, 16800, Note_on_c, 0, 67, 110
2, 16824, Note_off_c, 0, 67, 0
2, 16824, Note_on_c, 0, 71, 110
2, 16848, Note_off_c, 0, 71, 0
2, 16848, Note_on_c, 0, 62, 110
2, 16872, Note_off_c, 0, 62, 0
2, 16872, Note_on_c, 0, 71, 110
2, 16896, Note_off_c, 0, 71, 0
2, 16896, Note_on_c, 0, 67, 110
2, 16920, Note_off_c, 0, 67, 0
2, 16920, Note_on_c, 0, 71, 110
2, 16944, Note_off_c, 0, 71, 0
2, 16944, Note_on_c, 0, 62, 110
2, 16968, Note_off_c, 0, 62, 0
2, 16968, Note_on_c, 0, 71, 110
2, 16992, Note_off_c, 0, 71, 0
2, 16992, Note_on_c, 0, 69, 110
2, 17016, Note_off_c, 0, 69, 0
2, 17016, Note_on_c, 0, 67, 110
2, 17040, Note_off_c, 0, 67, 0
2, 17040, Note_on_c, 0, 69, 110
2, 17064, Note_off_c, 0, 69, 0
2, 17064, Note_on_c, 0, 71, 110
2, 17088, Note_off_c, 0, 71, 0
2, 17088, Note_on_c, 0, 69, 110
2, 17112, Note_off_c, 0, 69, 0
2, 17112, Note_on_c, 0, 72, 110
2, 17136, Note_off_c, 0, 72, 0
2, 17136, Note_on_c, 0, 62, 110
2, 17160, Note_off_c, 0, 62, 0
2, 17160, Note_on_c, 0, 72, 110
2, 17184, Note_off_c, 0, 72, 0
2, 17184, Note_on_c, 0, 69, 110
2, 17208, Note_off_c, 0, 69, 0
2, 17208, Note_on_c, 0, 72, 110
2, 17232, Note_off_c, 0, 72, 0
2, 17232, Note_on_c, 0, 62, 110
2, 17256, Note_off_c, 0, 62, 0
2, 17256, Note_on_c, 0, 72, 110
2, 17280, Note_off_c, 0, 72, 0
2, 17280, Note_on_c, 0, 71, 110
2, 17328, Note_off_c, 0, 71, 0
2, 17328, Note_on_c, 0, 74, 110
2, 17376, Note_off_c, 0, 74, 0
2, 17376, Note_on_c, 0, 74, 110
2, 17424, Note_off_c, 0, 74, 0
2, 17424, Note_on_c, 0, 74, 110
2, 17472, Note_off_c, 0, 74, 0
2, 17472, Note_on_c, 0, 74, 110
2, 17520, Note_off_c, 0, 74, 0
2, 17520, Note_on_c, 0, 74, 110
2, 17568, Note_off_c, 0, 74, 0
2, 17568, Note_on_c, 0, 74, 110
2, 17616, Note_off_c, 0, 74, 0
2, 17616, Note_on_c, 0, 72, 110
2, 17664, Note_off_c, 0, 72, 0
2, 17664, Note_on_c, 0, 72, 110
2, 17712, Note_off_c, 0, 72, 0
2, 17712, Note_on_c, 0, 72, 110
2, 17760, Note_off_c, 0, 72, 0
2, 17760, Note_on_c, 0, 72, 110
2, 17808, Note_off_c, 0, 72, 0
2, 17808, Note_on_c, 0, 72, 110
2, 17856, Note_off_c, 0, 72, 0
2, 17856, Note_on_c, 0, 72, 110
2, 17952, Note_off_c, 0, 72, 0
2, 18000, Note_on_c, 0, 78, 110
2, 18048, Note_off_c, 0, 78, 0
2, 18048, Note_on_c, 0, 79, 110
2, 18096, Note_off_c, 0, 79, 0
2, 18096, Note_on_c, 0, 81, 110
2, 18144, Note_off_c, 0, 81, 0
2, 18144, Note_on_c, 0, 74, 110
2, 18240, Note_off_c, 0, 74, 0
2, 18288, Note_on_c, 0, 79, 110
2, 18336, Note_off_c, 0, 79, 0
2, 18336, Note_on_c, 0, 81, 110
2, 18384, Note_off_c, 0, 81, 0
2, 18384, Note_on_c, 0, 83, 110
2, 18432, Note_off_c, 0, 83, 0
2, 18432, Note_on_c, 0, 78, 110
2, 18456, Note_off_c, 0, 78, 0
2, 18456, Note_on_c, 0, 76, 110
2, 18480, Note_off_c, 0, 76, 0
2, 18480, Note_on_c, 0, 78, 110
2, 18504, Note_off_c, 0, 78, 0
2, 18504, Note_on_c, 0, 79, 110
2, 18528, Note_off_c, 0, 79, 0
2, 18528, Note_on_c, 0, 78, 110
2, 18552, Note_off_c, 0, 78, 0
2, 18552, Note_on_c, 0, 81, 110
2, 18576, Note_off_c, 0, 81, 0
2, 18576, Note_on_c, 0, 76, 110
2, 18600, Note_off_c, 0, 76, 0
2, 18600, Note_on_c, 0, 81, 110
2, 18624, Note_off_c, 0, 81, 0
2, 18624, Note_on_c, 0, 74, 110
2, 18648, Note_off_c, 0, 74, 0
2, 18648, Note_on_c, 0, 81, 110
2, 18672, Note_off_c, 0, 81, 0
2, 18672, Note_on_c, 0, 72, 110
2, 18696, Note_off_c, 0, 72, 0
2, 18696, Note_on_c, 0, 81, 110
2, 18720, Note_off_c, 0, 81, 0
2, 18720, Note_on_c, 0, 71, 110
2, 18744, Note_off_c, 0, 71, 0
2, 18744, Note_on_c, 0, 79, 110
2, 18768, Note_off_c, 0, 79, 0
2, 18768, Note_on_c, 0, 78, 110
2, 18792, Note_off_c, 0, 78, 0
2, 18792, Note_on_c, 0, 79, 110
2, 18816, Note_off_c, 0, 79, 0
2, 18816, Note_on_c, 0, 76, 110
2, 18840, Note_off_c, 0, 76, 0
2, 18840, Note_on_c, 0, 79, 110
2, 18864, Note_off_c, 0, 79, 0
2, 18864, Note_on_c, 0, 74, 110
2, 18888, Note_off_c, 0, 74, 0
2, 18888, Note_on_c, 0, 79, 110
2, 18912, Note_off_c, 0, 79, 0
2, 18912, Note_on_c, 0, 73, 110
2, 18936, Note_off_c, 0, 73, 0
2, 18936, Note_on_c, 0, 79, 110
2, 18960, Note_off_c, 0, 79, 0
2, 18960, Note_on_c, 0, 71, 110
2, 18984, Note_off_c, 0, 71, 0
2, 18984, Note_on_c, 0, 79, 110
2, 19008, Note_off_c, 0, 79, 0
2, 19008, Note_on_c, 0, 69, 110
2, 19032, Note_off_c, 0, 69, 0
2, 19032, Note_on_c, 0, 78, 110
2, 19056, Note_off_c, 0, 78, 0
2, 19056, Note_on_c, 0, 76, 110
2, 19080, Note_off_c, 0, 76, 0
2, 19080, Note_on_c, 0, 78, 110
2, 19104, Note_off_c, 0, 78, 0
2, 19104, Note_on_c, 0, 74, 110
2, 19128, Note_off_c, 0, 74, 0
2, 19128, Note_on_c, 0, 78, 110
2, 19152, Note_off_c, 0, 78, 0
2, 19152, Note_on_c, 0, 72, 110
2, 19176, Note_off_c, 0, 72, 0
2, 19176, Note_on_c, 0, 78, 110
2, 19200, Note_off_c, 0, 78, 0
2, 19200, Note_on_c, 0, 71, 110
2, 19224, Note_off_c, 0, 71, 0
2, 19224, Note_on_c, 0, 78, 110
2, 19248, Note_off_c, 0, 78, 0
2, 19248, Note_on_c, 0, 69, 110
2, 19272, Note_off_c, 0, 69, 0
2, 19272, Note_on_c, 0, 78, 110
2, 19296, Note_off_c, 0, 78, 0
2, 19296, Note_on_c, 0, 67, 110
2, 19320, Note_off_c, 0, 67, 0
2, 19320, Note_on_c, 0, 76, 110
2, 19344, Note_off_c, 0, 76, 0
2, 19344, Note_on_c, 0, 74, 110
2, 19368, Note_off_c, 0, 74, 0
2, 19368, Note_on_c, 0, 76, 110
2, 19392, Note_off_c, 0, 76, 0
2, 19392, Note_on_c, 0, 73, 110
2, 19416, Note_off_c, 0, 73, 0
2, 19416, Note_on_c, 0, 76, 110
2, 19440, Note_off_c, 0, 76, 0
2, 19440, Note_on_c, 0, 70, 110
2, 19464, Note_off_c, 0, 70, 0
2, 19464, Note_on_c, 0, 76, 110
2, 19488, Note_off_c, 0, 76, 0
2, 19488, Note_on_c, 0, 69, 110
2, 19512, Note_off_c, 0, 69, 0
2, 19512, Note_on_c, 0, 76, 110
2, 19536, Note_off_c, 0, 76, 0
2, 19536, Note_on_c, 0, 67, 110
2, 19560, Note_off_c, 0, 67, 0
2, 19560, Note_on_c, 0, 76, 110
2, 19584, Note_off_c, 0, 76, 0
2, 19584, Note_on_c, 0, 66, 110
2, 19608, Note_off_c, 0, 66, 0
2, 19608, Note_on_c, 0, 75, 110
2, 19632, Note_off_c, 0, 75, 0
2, 19632, Note_on_c, 0, 72, 110
2, 19656, Note_off_c, 0, 72, 0
2, 19656, Note_on_c, 0, 69, 110
2, 19680, Note_off_c, 0, 69, 0
2, 19680, Note_on_c, 0, 66, 110
2, 19704, Note_off_c, 0, 66, 0
2, 19800, Note_on_c, 0, 64, 110
2, 19824, Note_off_c, 0, 64, 0
2, 19824, Note_on_c, 0, 62, 110
2, 19848, Note_off_c, 0, 62, 0
2, 19848, Note_on_c, 0, 60, 110
2, 19872, Note_off_c, 0, 60, 0
2, 19872, Note_on_c, 0, 59, 110
2, 19896, Note_off_c, 0, 59, 0
2, 19896, Note_on_c, 0, 67, 110
2, 19920, Note_off_c, 0, 67, 0
2, 19920, Note_on_c, 0, 66, 110
2, 19944, Note_off_c, 0, 66, 0
2, 19944, Note_on_c, 0, 64, 110
2, 19968, Note_off_c, 0, 64, 0
2, 19968, Note_on_c, 0, 62, 110
2, 19992, Note_off_c, 0, 62, 0
2, 19992, Note_on_c, 0, 71, 110
2, 20016, Note_off_c, 0, 71, 0
2, 20016, Note_on_c, 0, 69, 110
2, 20040, Note_off_c, 0, 69, 0
2, 20040, Note_on_c, 0, 67, 110
2, 20064, Note_off_c, 0, 67, 0
2, 20064, Note_on_c, 0, 66, 110
2, 20088, Note_off_c, 0, 66, 0
2, 20088, Note_on_c, 0, 76, 110
2, 20112, Note_off_c, 0, 76, 0
2, 20112, Note_on_c, 0, 74, 110
2, 20136, Note_off_c, 0, 74, 0
2, 20136, Note_on_c, 0, 72, 110
2, 20160, Note_off_c, 0, 72, 0
2, 20160, Note_on_c, 0, 71, 110
2, 20184, Note_off_c, 0, 71, 0
2, 20184, Note_on_c, 0, 81, 110
2, 20208, Note_off_c, 0, 81, 0
2, 20208, Note_on_c, 0, 79, 110
2, 20232, Note_off_c, 0, 79, 0
2, 20232, Note_on_c, 0, 77, 110
2, 20256, Note_off_c, 0, 77, 0
2, 20256, Note_on_c, 0, 76, 110
2, 20544, Note_off_c, 0, 76, 0
2, 20592, Note_on_c, 0, 74, 110
2, 20640, Note_off_c, 0, 74, 0
2, 20640, Note_on_c, 0, 76, 110
2, 20688, Note_off_c, 0, 76, 0
2, 20688, Note_on_c, 0, 78, 110
2, 20736, Note_off_c, 0, 78, 0
2, 20736, Note_on_c, 0, 79, 110
2, 20832, Note_off_c, 0, 79, 0
2, 20832, Note_on_c, 0, 69, 110
2, 21120, Note_off_c, 0, 69, 0
2, 21120, Note_on_c, 0, 84, 110
2, 21144, Note_off_c, 0, 84, 0
2, 21144, Note_on_c, 0, 83, 110
2, 21168, Note_off_c, 0, 83, 0
2, 21168, Note_on_c, 0, 81, 110
2, 21192, Note_off_c, 0, 81, 0
2, 21192, Note_on_c, 0, 79, 110
2, 21216, Note_off_c, 0, 79, 0
2, 21216, Note_on_c, 0, 78, 110
2, 21240, Note_off_c, 0, 78, 0
2, 21240, Note_on_c, 0, 76, 110
2, 21264, Note_off_c, 0, 76, 0
2, 21264, Note_on_c, 0, 74, 110
2, 21288, Note_off_c, 0, 74, 0
2, 21288, Note_on_c, 0, 72, 110
2, 21312, Note_off_c, 0, 72, 0
2, 21312, Note_on_c, 0, 79, 110
2, 21360, Note_off_c, 0, 79, 0
2, 21360, Note_on_c, 0, 67, 110
2, 21384, Note_off_c, 0, 67, 0
2, 21384, Note_on_c, 0, 71, 110
2, 21408, Note_off_c, 0, 71, 0
2, 21408, Note_on_c, 0, 62, 110
2, 21432, Note_off_c, 0, 62, 0
2, 21432, Note_on_c, 0, 72, 110
2, 21456, Note_off_c, 0, 72, 0
2, 21456, Note_on_c, 0, 71, 110
2, 21480, Note_off_c, 0, 71, 0
2, 21480, Note_on_c, 0, 69, 110
2, 21504, Note_off_c, 0, 69, 0
2, 21504, Note_on_c, 0, 67, 110
2, 21528, Note_off_c, 0, 67, 0
2, 21528, Note_on_c, 0, 66, 110
2, 21552, Note_off_c, 0, 66, 0
2, 21552, Note_on_c, 0, 64, 110
2, 21576, Note_off_c, 0, 64, 0
2, 21576, Note_on_c, 0, 62, 110
2, 21600, Note_off_c, 0, 62, 0
2, 21600, Note_on_c, 0, 79, 110
2, 21648, Note_off_c, 0, 79, 0
2, 21912, Note_on_c, 0, 62, 110
2, 21936, Note_off_c, 0, 62, 0
2, 21936, Note_on_c, 0, 64, 110
2, 21960, Note_off_c, 0, 64, 0
2, 21960, Note_on_c, 0, 66, 110
2, 21984, Note_off_c, 0, 66, 0
2, 21984, Note_on_c, 0, 67, 110
2, 22008, Note_off_c, 0, 67, 0
2, 22008, Note_on_c, 0, 69, 110
2, 22032, Note_off_c, 0, 69, 0
2, 22032, Note_on_c, 0, 67, 110
2, 22056, Note_off_c, 0, 67, 0
2, 22056, Note_on_c, 0, 69, 110
2, 22080, Note_off_c, 0, 69, 0
2, 22080, Note_on_c, 0, 71, 110
2, 22104, Note_off_c, 0, 71, 0
2, 22104, Note_on_c, 0, 74, 110
2, 22128, Note_off_c, 0, 74, 0
2, 22128, Note_on_c, 0, 72, 110
2, 22152, Note_off_c, 0, 72, 0
2, 22152, Note_on_c, 0, 76, 110
2, 22176, Note_off_c, 0, 76, 0
2, 22176, Note_on_c, 0, 74, 110
2, 22200, Note_off_c, 0, 74, 0
2, 22200, Note_on_c, 0, 78, 110
2, 22224, Note_off_c, 0, 78, 0
2, 22224, Note_on_c, 0, 76, 110
2, 22248, Note_off_c, 0, 76, 0
2, 22248, Note_on_c, 0, 79, 110
2, 22272, Note_off_c, 0, 79, 0
2, 22272, Note_on_c, 0, 78, 110
2, 22296, Note_off_c, 0, 78, 0
2, 22296, Note_on_c, 0, 74, 110
2, 22320, Note_off_c, 0, 74, 0
2, 22320, Note_on_c, 0, 79, 110
2, 22344, Note_off_c, 0, 79, 0
2, 22344, Note_on_c, 0, 71, 110
2, 22368, Note_off_c, 0, 71, 0
2, 22368, Note_on_c, 0, 69, 110
2, 22392, Note_off_c, 0, 69, 0
2, 22392, Note_on_c, 0, 79, 110
2, 22416, Note_off_c, 0, 79, 0
2, 22416, Note_on_c, 0, 72, 110
2, 22440, Note_off_c, 0, 72, 0
2, 22440, Note_on_c, 0, 78, 110
2, 22464, Note_off_c, 0, 78, 0
2, 22464, Note_on_c, 0, 79, 110
2, 22560, Note_off_c, 0, 79, 0
2, 22608, Note_on_c, 0, 66, 110
2, 22656, Note_off_c, 0, 66, 0
2, 22656, Note_on_c, 0, 67, 110
2, 22704, Note_off_c, 0, 67, 0
2, 22704, Note_on_c, 0, 69, 110
2, 22752, Note_off_c, 0, 69, 0
2, 22752, Note_on_c, 0, 71, 110
2, 22776, Note_off_c, 0, 71, 0
2, 22776, Note_on_c, 0, 69, 110
2, 22800, Note_off_c, 0, 69, 0
2, 22800, Note_on_c, 0, 71, 110
2, 22824, Note_off_c, 0, 71, 0
2, 22824, Note_on_c, 0, 72, 110
2, 22848, Note_off_c, 0, 72, 0
2, 22848, Note_on_c, 0, 71, 110
2, 22872, Note_off_c, 0, 71, 0
2, 22872, Note_on_c, 0, 76, 110
2, 22896, Note_off_c, 0, 76, 0
2, 22896, Note_on_c, 0, 69, 110
2, 22920, Note_off_c, 0, 69, 0
2, 22920, Note_on_c, 0, 78, 110
2, 22944, Note_off_c, 0, 78, 0
2, 22944, Note_on_c, 0, 71, 110
2, 22968, Note_off_c, 0, 71, 0
2, 22968, Note_on_c, 0, 79, 110
2, 22992, Note_off_c, 0, 79, 0
2, 22992, Note_on_c, 0, 72, 110
2, 23016, Note_off_c, 0, 72, 0
2, 23016, Note_on_c, 0, 81, 110
2, 23040, Note_off_c, 0, 81, 0
2, 23040, Note_on_c, 0, 83, 127
2, 23076, Note_off_c, 0, 83, 0
2, 23088, Note_on_c, 0, 74, 127
2, 23124, Note_off_c, 0, 74, 0
2, 23136, Note_on_c, 0, 72, 127
2, 23160, Note_off_c, 0, 72, 0
2, 23160, Note_on_c, 0, 71, 127
2, 23184, Note_off_c, 0, 71, 0
2, 23184, Note_on_c, 0, 69, 127
2, 23208, Note_off_c, 0, 69, 0
2, 23208, Note_on_c, 0, 67, 127
2, 23226, Note_off_c, 0, 67, 0
2, 23232, Note_on_c, 0, 62, 127
2, 23268, Note_off_c, 0, 62, 0
2, 23280, Note_on_c, 0, 67, 127
2, 23298, Note_off_c, 0, 67, 0
2, 23304, Note_on_c, 0, 66, 127
2, 23328, Note_off_c, 0, 66, 0
2, 23328, Note_on_c, 0, 67, 110
2, 23520, Note_off_c, 0, 67, 0
2, 23664, Note_on_c, 0, 62, 101
2, 23712, Note_off_c, 0, 62, 0
2, 23712, Note_on_c, 0, 62, 101
2, 23760, Note_off_c, 0, 62, 0
2, 23760, Note_on_c, 0, 62, 101
2, 23808, Note_off_c, 0, 62, 0
2, 23808, Note_on_c, 0, 67, 101
2, 23856, Note_off_c, 0, 67, 0
2, 23856, Note_on_c, 0, 67, 101
2, 23904, Note_off_c, 0, 67, 0
2, 23904, Note_on_c, 0, 67, 101
2, 23952, Note_off_c, 0, 67, 0
2, 23952, Note_on_c, 0, 67, 101
2, 24000, Note_off_c, 0, 67, 0
2, 24000, Note_on_c, 0, 67, 101
2, 24048, Note_off_c, 0, 67, 0
2, 24048, Note_on_c, 0, 66, 101
2, 24072, Note_off_c, 0, 66, 0
2, 24072, Note_on_c, 0, 64, 101
2, 24096, Note_off_c, 0, 64, 0
2, 24096, Note_on_c, 0, 66, 101
2, 24144, Note_off_c, 0, 66, 0
2, 24144, Note_on_c, 0, 62, 101
2, 24192, Note_off_c, 0, 62, 0
2, 24192, Note_on_c, 0, 71, 101
2, 24240, Note_off_c, 0, 71, 0
2, 24240, Note_on_c, 0, 71, 101
2, 24288, Note_off_c, 0, 71, 0
2, 24288, Note_on_c, 0, 71, 101
2, 24336, Note_off_c, 0, 71, 0
2, 24336, Note_on_c, 0, 71, 101
2, 24384, Note_off_c, 0, 71, 0
2, 24384, Note_on_c, 0, 71, 101
2, 24432, Note_off_c, 0, 71, 0
2, 24432, Note_on_c, 0, 69, 101
2, 24456, Note_off_c, 0, 69, 0
2, 24456, Note_on_c, 0, 67, 101
2, 24480, Note_off_c, 0, 67, 0
2, 24480, Note_on_c, 0, 69, 101
2, 24528, Note_off_c, 0, 69, 0
2, 24528, Note_on_c, 0, 69, 101
2, 24576, Note_off_c, 0, 69, 0
2, 24576, Note_on_c, 0, 69, 101
2, 24624, Note_off_c, 0, 69, 0
2, 24624, Note_on_c, 0, 62, 101
2, 24672, Note_off_c, 0, 62, 0
2, 24672, Note_on_c, 0, 67, 101
2, 24816, Note_off_c, 0, 67, 0
2, 24816, Note_on_c, 0, 69, 101
2, 24840, Note_off_c, 0, 69, 0
2, 24840, Note_on_c, 0, 67, 101
2, 24864, Note_off_c, 0, 67, 0
2, 24864, Note_on_c, 0, 66, 101
2, 24888, Note_off_c, 0, 66, 0
2, 24888, Note_on_c, 0, 67, 101
2, 24912, Note_off_c, 0, 67, 0
2, 24912, Note_on_c, 0, 64, 101
2, 24936, Note_off_c, 0, 64, 0
2, 24936, Note_on_c, 0, 66, 101
2, 24960, Note_off_c, 0, 66, 0
2, 24960, Note_on_c, 0, 67, 101
2, 24984, Note_off_c, 0, 67, 0
2, 24984, Note_on_c, 0, 66, 101
2, 25008, Note_off_c, 0, 66, 0
2, 25008, Note_on_c, 0, 67, 101
2, 25032, Note_off_c, 0, 67, 0
2, 25032, Note_on_c, 0, 69, 101
2, 25056, Note_off_c, 0, 69, 0
2, 25056, Note_on_c, 0, 67, 101
2, 25080, Note_off_c, 0, 67, 0
2, 25080, Note_on_c, 0, 71, 101
2, 25104, Note_off_c, 0, 71, 0
2, 25104, Note_on_c, 0, 69, 101
2, 25128, Note_off_c, 0, 69, 0
2, 25128, Note_on_c, 0, 67, 101
2, 25152, Note_off_c, 0, 67, 0
2, 25152, Note_on_c, 0, 66, 101
2, 25176, Note_off_c, 0, 66, 0
2, 25176, Note_on_c, 0, 64, 101
2, 25200, Note_off_c, 0, 64, 0
2, 25200, Note_on_c, 0, 66, 101
2, 25224, Note_off_c, 0, 66, 0
2, 25224, Note_on_c, 0, 67, 101
2, 25248, Note_off_c, 0, 67, 0
2, 25248, Note_on_c, 0, 66, 101
2, 25272, Note_off_c, 0, 66, 0
2, 25272, Note_on_c, 0, 69, 101
2, 25296, Note_off_c, 0, 69, 0
2, 25296, Note_on_c, 0, 67, 101
2, 25320, Note_off_c, 0, 67, 0
2, 25320, Note_on_c, 0, 66, 101
2, 25344, Note_off_c, 0, 66, 0
2, 25344, Note_on_c, 0, 64, 101
2, 25440, Note_off_c, 0, 64, 0
2, 25440, Note_on_c, 0, 76, 101
2, 25560, Note_off_c, 0, 76, 0
2, 25560, Note_on_c, 0, 69, 101
2, 25584, Note_off_c, 0, 69, 0
2, 25584, Note_on_c, 0, 71, 101
2, 25608, Note_off_c, 0, 71, 0
2, 25608, Note_on_c, 0, 73, 101
2, 25632, Note_off_c, 0, 73, 0
2, 25632, Note_on_c, 0, 74, 101
2, 25656, Note_off_c, 0, 74, 0
2, 25656, Note_on_c, 0, 76, 101
2, 25680, Note_off_c, 0, 76, 0
2, 25680, Note_on_c, 0, 73, 101
2, 25704, Note_off_c, 0, 73, 0
2, 25704, Note_on_c, 0, 74, 101
2, 25728, Note_off_c, 0, 74, 0
2, 25728, Note_on_c, 0, 67, 101
2, 25848, Note_off_c, 0, 67, 0
2, 25848, Note_on_c, 0, 71, 101
2, 25872, Note_off_c, 0, 71, 0
2, 25872, Note_on_c, 0, 69, 101
2, 25896, Note_off_c, 0, 69, 0
2, 25896, Note_on_c, 0, 67, 101
2, 25920, Note_off_c, 0, 67, 0
2, 25920, Note_on_c, 0, 66, 101
2, 26040, Note_off_c, 0, 66, 0
2, 26040, Note_on_c, 0, 67, 101
2, 26064, Note_off_c, 0, 67, 0
2, 26064, Note_on_c, 0, 69, 101
2, 26088, Note_off_c, 0, 69, 0
2, 26088, Note_on_c, 0, 71, 101
2, 26112, Note_off_c, 0, 71, 0
2, 26112, Note_on_c, 0, 73, 101
2, 26136, Note_off_c, 0, 73, 0
2, 26136, Note_on_c, 0, 74, 101
2, 26160, Note_off_c, 0, 74, 0
2, 26160, Note_on_c, 0, 73, 101
2, 26184, Note_off_c, 0, 73, 0
2, 26184, Note_on_c, 0, 74, 101
2, 26208, Note_off_c, 0, 74, 0
2, 26208, Note_on_c, 0, 64, 101
2, 26256, Note_off_c, 0, 64, 0
2, 26256, Note_on_c, 0, 69, 101
2, 26304, Note_off_c, 0, 69, 0
2, 26304, Note_on_c, 0, 66, 101
2, 26328, Note_off_c, 0, 66, 0
2, 26328, Note_on_c, 0, 64, 101
2, 26352, Note_off_c, 0, 64, 0
2, 26352, Note_on_c, 0, 66, 101
2, 26376, Note_off_c, 0, 66, 0
2, 26376, Note_on_c, 0, 67, 101
2, 26400, Note_off_c, 0, 67, 0
2, 26400, Note_on_c, 0, 66, 101
2, 26424, Note_off_c, 0, 66, 0
2, 26424, Note_on_c, 0, 67, 101
2, 26448, Note_off_c, 0, 67, 0
2, 26448, Note_on_c, 0, 69, 101
2, 26544, Note_off_c, 0, 69, 0
2, 26544, Note_on_c, 0, 67, 101
2, 26592, Note_off_c, 0, 67, 0
2, 26640, Note_on_c, 0, 67, 101
2, 26688, Note_off_c, 0, 67, 0
2, 26688, Note_on_c, 0, 72, 101
2, 26712, Note_off_c, 0, 72, 0
2, 26712, Note_on_c, 0, 71, 101
2, 26736, Note_off_c, 0, 71, 0
2, 26736, Note_on_c, 0, 69, 101
2, 26760, Note_off_c, 0, 69, 0
2, 26760, Note_on_c, 0, 71, 101
2, 26784, Note_off_c, 0, 71, 0
2, 26784, Note_on_c, 0, 72, 101
2, 26808, Note_off_c, 0, 72, 0
2, 26808, Note_on_c, 0, 74, 101
2, 26832, Note_off_c, 0, 74, 0
2, 26832, Note_on_c, 0, 71, 101
2, 26856, Note_off_c, 0, 71, 0
2, 26856, Note_on_c, 0, 72, 101
2, 26880, Note_off_c, 0, 72, 0
2, 26880, Note_on_c, 0, 74, 101
2, 26976, Note_off_c, 0, 74, 0
2, 27024, Note_on_c, 0, 74, 101
2, 27072, Note_off_c, 0, 74, 0
2, 27072, Note_on_c, 0, 76, 101
2, 27096, Note_off_c, 0, 76, 0
2, 27096, Note_on_c, 0, 74, 101
2, 27120, Note_off_c, 0, 74, 0
2, 27120, Note_on_c, 0, 76, 101
2, 27144, Note_off_c, 0, 76, 0
2, 27144, Note_on_c, 0, 77, 101
2, 27168, Note_off_c, 0, 77, 0
2, 27168, Note_on_c, 0, 76, 101
2, 27192, Note_off_c, 0, 76, 0
2, 27192, Note_on_c, 0, 79, 101
2, 27216, Note_off_c, 0, 79, 0
2, 27216, Note_on_c, 0, 78, 101
2, 27240, Note_off_c, 0, 78, 0
2, 27240, Note_on_c, 0, 81, 101
2, 27264, Note_off_c, 0, 81, 0
2, 27264, Note_on_c, 0, 74, 101
2, 27288, Note_off_c, 0, 74, 0
2, 27288, Note_on_c, 0, 72, 101
2, 27312, Note_off_c, 0, 72, 0
2, 27312, Note_on_c, 0, 74, 101
2, 27336, Note_off_c, 0, 74, 0
2, 27336, Note_on_c, 0, 76, 101
2, 27360, Note_off_c, 0, 76, 0
2, 27360, Note_on_c, 0, 74, 101
2, 27384, Note_off_c, 0, 74, 0
2, 27384, Note_on_c, 0, 79, 101
2, 27408, Note_off_c, 0, 79, 0
2, 27408, Note_on_c, 0, 78, 101
2, 27432, Note_off_c, 0, 78, 0
2, 27432, Note_on_c, 0, 79, 101
2, 27456, Note_off_c, 0, 79, 0
2, 27456, Note_on_c, 0, 69, 101
2, 27480, Note_off_c, 0, 69, 0
2, 27480, Note_on_c, 0, 71, 101
2, 27504, Note_off_c, 0, 71, 0
2, 27504, Note_on_c, 0, 69, 101
2, 27528, Note_off_c, 0, 69, 0
2, 27528, Note_on_c, 0, 71, 101
2, 27552, Note_off_c, 0, 71, 0
2, 27552, Note_on_c, 0, 72, 101
2, 27576, Note_off_c, 0, 72, 0
2, 27576, Note_on_c, 0, 74, 101
2, 27600, Note_off_c, 0, 74, 0
2, 27600, Note_on_c, 0, 72, 101
2, 27624, Note_off_c, 0, 72, 0
2, 27624, Note_on_c, 0, 74, 101
2, 27648, Note_off_c, 0, 74, 0
2, 27648, Note_on_c, 0, 71, 101
2, 27672, Note_off_c, 0, 71, 0
2, 27672, Note_on_c, 0, 72, 101
2, 27696, Note_off_c, 0, 72, 0
2, 27696, Note_on_c, 0, 71, 101
2, 27720, Note_off_c, 0, 71, 0
2, 27720, Note_on_c, 0, 69, 101
2, 27744, Note_off_c, 0, 69, 0
2, 27744, Note_on_c, 0, 67, 101
2, 27768, Note_off_c, 0, 67, 0
2, 27768, Note_on_c, 0, 71, 101
2, 27792, Note_off_c, 0, 71, 0
2, 27792, Note_on_c, 0, 76, 101
2, 27816, Note_off_c, 0, 76, 0
2, 27816, Note_on_c, 0, 74, 101
2, 27840, Note_off_c, 0, 74, 0
2, 27840, Note_on_c, 0, 73, 101
2, 27864, Note_off_c, 0, 73, 0
2, 27864, Note_on_c, 0, 71, 101
2, 27888, Note_off_c, 0, 71, 0
2, 27888, Note_on_c, 0, 69, 101
2, 27912, Note_off_c, 0, 69, 0
2, 27912, Note_on_c, 0, 67, 101
2, 27936, Note_off_c, 0, 67, 0
2, 27936, Note_on_c, 0, 66, 101
2, 28056, Note_off_c, 0, 66, 0
2, 28056, Note_on_c, 0, 66, 101
2, 28080, Note_off_c, 0, 66, 0
2, 28080, Note_on_c, 0, 67, 101
2, 28104, Note_off_c, 0, 67, 0
2, 28104, Note_on_c, 0, 69, 101
2, 28128, Note_off_c, 0, 69, 0
2, 28128, Note_on_c, 0, 71, 101
2, 28152, Note_off_c, 0, 71, 0
2, 28152, Note_on_c, 0, 72, 101
2, 28176, Note_off_c, 0, 72, 0
2, 28176, Note_on_c, 0, 71, 101
2, 28200, Note_off_c, 0, 71, 0
2, 28200, Note_on_c, 0, 69, 101
2, 28224, Note_off_c, 0, 69, 0
2, 28224, Note_on_c, 0, 67, 101
2, 28440, Note_off_c, 0, 67, 0
2, 28440, Note_on_c, 0, 64, 101
2, 28464, Note_off_c, 0, 64, 0
2, 28464, Note_on_c, 0, 66, 101
2, 28488, Note_off_c, 0, 66, 0
2, 28488, Note_on_c, 0, 67, 101
2, 28512, Note_off_c, 0, 67, 0
2, 28512, Note_on_c, 0, 69, 101
2, 28536, Note_off_c, 0, 69, 0
2, 28536, Note_on_c, 0, 71, 101
2, 28560, Note_off_c, 0, 71, 0
2, 28560, Note_on_c, 0, 69, 101
2, 28584, Note_off_c, 0, 69, 0
2, 28584, Note_on_c, 0, 67, 101
2, 28608, Note_off_c, 0, 67, 0
2, 28608, Note_on_c, 0, 66, 101
2, 28704, Note_off_c, 0, 66, 0
2, 28704, Note_on_c, 0, 69, 101
2, 28752, Note_off_c, 0, 69, 0
2, 28752, Note_on_c, 0, 69, 101
2, 28800, Note_off_c, 0, 69, 0
2, 28800, Note_on_c, 0, 74, 101
2, 28848, Note_off_c, 0, 74, 0
2, 28848, Note_on_c, 0, 74, 101
2, 28896, Note_off_c, 0, 74, 0
2, 28896, Note_on_c, 0, 74, 101
2, 28944, Note_off_c, 0, 74, 0
2, 28944, Note_on_c, 0, 74, 101
2, 28992, Note_off_c, 0, 74, 0
2, 28992, Note_on_c, 0, 74, 101
2, 29040, Note_off_c, 0, 74, 0
2, 29040, Note_on_c, 0, 73, 101
2, 29064, Note_off_c, 0, 73, 0
2, 29064, Note_on_c, 0, 71, 101
2, 29088, Note_off_c, 0, 71, 0
2, 29088, Note_on_c, 0, 73, 101
2, 29136, Note_off_c, 0, 73, 0
2, 29136, Note_on_c, 0, 69, 101
2, 29184, Note_off_c, 0, 69, 0
2, 29184, Note_on_c, 0, 78, 101
2, 29232, Note_off_c, 0, 78, 0
2, 29232, Note_on_c, 0, 78, 101
2, 29280, Note_off_c, 0, 78, 0
2, 29280, Note_on_c, 0, 78, 101
2, 29328, Note_off_c, 0, 78, 0
2, 29328, Note_on_c, 0, 78, 101
2, 29376, Note_off_c, 0, 78, 0
2, 29376, Note_on_c, 0, 71, 101
2, 29568, Note_off_c, 0, 71, 0
2, 29568, Note_on_c, 0, 76, 101
2, 29616, Note_off_c, 0, 76, 0
2, 29616, Note_on_c, 0, 66, 101
2, 29640, Note_off_c, 0, 66, 0
2, 29640, Note_on_c, 0, 64, 101
2, 29664, Note_off_c, 0, 64, 0
2, 29664, Note_on_c, 0, 74, 101
2, 29808, Note_off_c, 0, 74, 0
2, 29808, Note_on_c, 0, 67, 101
2, 29856, Note_off_c, 0, 67, 0
2, 29856, Note_on_c, 0, 64, 101
2, 29952, Note_off_c, 0, 64, 0
2, 29952, Note_on_c, 0, 62, 101
2, 30048, Note_off_c, 0, 62, 0
2, 30048, Note_on_c, 0, 69, 101
2, 30072, Note_off_c, 0, 69, 0
2, 30072, Note_on_c, 0, 72, 101
2, 30096, Note_off_c, 0, 72, 0
2, 30096, Note_on_c, 0, 71, 101
2, 30120, Note_off_c, 0, 71, 0
2, 30120, Note_on_c, 0, 74, 101
2, 30144, Note_off_c, 0, 74, 0
2, 30144, Note_on_c, 0, 72, 101
2, 30336, Note_off_c, 0, 72, 0
2, 30336, Note_on_c, 0, 67, 101
2, 30528, Note_off_c, 0, 67, 0
2, 30528, Note_on_c, 0, 74, 101
2, 30768, Note_off_c, 0, 74, 0
2, 30768, Note_on_c, 0, 64, 101
2, 30864, Note_off_c, 0, 64, 0
2, 30864, Note_on_c, 0, 60, 101
2, 30912, Note_off_c, 0, 60, 0
2, 30912, Note_on_c, 0, 60, 101
2, 31008, Note_off_c, 0, 60, 0
2, 31008, Note_on_c, 0, 77, 101
2, 31056, Note_off_c, 0, 77, 0
2, 31056, Note_on_c, 0, 59, 101
2, 31152, Note_off_c, 0, 59, 0
2, 31152, Note_on_c, 0, 72, 101
2, 31176, Note_off_c, 0, 72, 0
2, 31176, Note_on_c, 0, 71, 101
2, 31200, Note_off_c, 0, 71, 0
2, 31200, Note_on_c, 0, 69, 101
2, 31224, Note_off_c, 0, 69, 0
2, 31224, Note_on_c, 0, 67, 101
2, 31248, Note_off_c, 0, 67, 0
2, 31248, Note_on_c, 0, 76, 101
2, 31296, Note_off_c, 0, 76, 0
2, 31296, Note_on_c, 0, 66, 101
2, 31392, Note_off_c, 0, 66, 0
2, 31392, Note_on_c, 0, 68, 101
2, 31488, Note_off_c, 0, 68, 0
2, 31488, Note_on_c, 0, 64, 101
2, 31584, Note_off_c, 0, 64, 0
2, 31584, Note_on_c, 0, 72, 101
2, 31632, Note_off_c, 0, 72, 0
2, 31632, Note_on_c, 0, 69, 101
2, 31680, Note_off_c, 0, 69, 0
2, 31680, Note_on_c, 0, 71, 101
2, 31728, Note_off_c, 0, 71, 0
2, 31728, Note_on_c, 0, 73, 101
2, 31776, Note_off_c, 0, 73, 0
2, 31776, Note_on_c, 0, 74, 101
2, 31824, Note_off_c, 0, 74, 0
2, 31824, Note_on_c, 0, 76, 101
2, 31872, Note_off_c, 0, 76, 0
2, 31872, Note_on_c, 0, 73, 101
2, 31920, Note_off_c, 0, 73, 0
2, 31920, Note_on_c, 0, 69, 101
2, 31968, Note_off_c, 0, 69, 0
2, 31968, Note_on_c, 0, 81, 101
2, 32016, Note_off_c, 0, 81, 0
2, 32016, Note_on_c, 0, 81, 101
2, 32064, Note_off_c, 0, 81, 0
2, 32064, Note_on_c, 0, 81, 101
2, 32112, Note_off_c, 0, 81, 0
2, 32112, Note_on_c, 0, 79, 101
2, 32136, Note_off_c, 0, 79, 0
2, 32136, Note_on_c, 0, 78, 101
2, 32160, Note_off_c, 0, 78, 0
2, 32160, Note_on_c, 0, 79, 101
2, 32184, Note_off_c, 0, 79, 0
2, 32184, Note_on_c, 0, 78, 101
2, 32208, Note_off_c, 0, 78, 0
2, 32208, Note_on_c, 0, 76, 101
2, 32232, Note_off_c, 0, 76, 0
2, 32232, Note_on_c, 0, 79, 101
2, 32256, Note_off_c, 0, 79, 0
2, 32256, Note_on_c, 0, 78, 101
2, 32280, Note_off_c, 0, 78, 0
2, 32280, Note_on_c, 0, 76, 101
2, 32304, Note_off_c, 0, 76, 0
2, 32304, Note_on_c, 0, 74, 101
2, 32328, Note_off_c, 0, 74, 0
2, 32328, Note_on_c, 0, 78, 101
2, 32352, Note_off_c, 0, 78, 0
2, 32352, Note_on_c, 0, 76, 101
2, 32376, Note_off_c, 0, 76, 0
2, 32376, Note_on_c, 0, 79, 101
2, 32400, Note_off_c, 0, 79, 0
2, 32400, Note_on_c, 0, 78, 101
2, 32424, Note_off_c, 0, 78, 0
2, 32424, Note_on_c, 0, 81, 101
2, 32448, Note_off_c, 0, 81, 0
2, 32448, Note_on_c, 0, 79, 101
2, 32472, Note_off_c, 0, 79, 0
2, 32472, Note_on_c, 0, 76, 101
2, 32496, Note_off_c, 0, 76, 0
2, 32496, Note_on_c, 0, 78, 101
2, 32520, Note_off_c, 0, 78, 0
2, 32520, Note_on_c, 0, 79, 101
2, 32544, Note_off_c, 0, 79, 0
2, 32544, Note_on_c, 0, 81, 101
2, 32568, Note_off_c, 0, 81, 0
2, 32568, Note_on_c, 0, 79, 101
2, 32592, Note_off_c, 0, 79, 0
2, 32592, Note_on_c, 0, 78, 101
2, 32616, Note_off_c, 0, 78, 0
2, 32616, Note_on_c, 0, 76, 101
2, 32640, Note_off_c, 0, 76, 0
2, 32640, Note_on_c, 0, 74, 101
2, 32688, Note_off_c, 0, 74, 0
2, 32688, Note_on_c, 0, 79, 101
2, 32736, Note_off_c, 0, 79, 0
2, 32736, Note_on_c, 0, 79, 101
2, 32784, Note_off_c, 0, 79, 0
2, 32784, Note_on_c, 0, 79, 101
2, 32832, Note_off_c, 0, 79, 0
2, 32832, Note_on_c, 0, 79, 101
2, 32880, Note_off_c, 0, 79, 0
2, 32880, Note_on_c, 0, 77, 101
2, 32904, Note_off_c, 0, 77, 0
2, 32904, Note_on_c, 0, 76, 101
2, 32928, Note_off_c, 0, 76, 0
2, 32928, Note_on_c, 0, 77, 101
2, 32952, Note_off_c, 0, 77, 0
2, 32952, Note_on_c, 0, 76, 101
2, 32976, Note_off_c, 0, 76, 0
2, 32976, Note_on_c, 0, 74, 101
2, 33000, Note_off_c, 0, 74, 0
2, 33000, Note_on_c, 0, 77, 101
2, 33024, Note_off_c, 0, 77, 0
2, 33024, Note_on_c, 0, 76, 101
2, 33048, Note_off_c, 0, 76, 0
2, 33048, Note_on_c, 0, 77, 101
2, 33072, Note_off_c, 0, 77, 0
2, 33072, Note_on_c, 0, 76, 101
2, 33096, Note_off_c, 0, 76, 0
2, 33096, Note_on_c, 0, 74, 101
2, 33120, Note_off_c, 0, 74, 0
2, 33120, Note_on_c, 0, 72, 101
2, 33144, Note_off_c, 0, 72, 0
2, 33144, Note_on_c, 0, 71, 101
2, 33168, Note_off_c, 0, 71, 0
2, 33168, Note_on_c, 0, 69, 101
2, 33192, Note_off_c, 0, 69, 0
2, 33192, Note_on_c, 0, 67, 101
2, 33216, Note_off_c, 0, 67, 0
2, 33216, Note_on_c, 0, 66, 101
2, 33240, Note_off_c, 0, 66, 0
2, 33240, Note_on_c, 0, 64, 101
2, 33264, Note_off_c, 0, 64, 0
2, 33264, Note_on_c, 0, 62, 101
2, 33312, Note_off_c, 0, 62, 0
2, 33312, Note_on_c, 0, 62, 101
2, 33360, Note_off_c, 0, 62, 0
2, 33360, Note_on_c, 0, 62, 101
2, 33408, Note_off_c, 0, 62, 0
2, 33408, Note_on_c, 0, 67, 101
2, 33456, Note_off_c, 0, 67, 0
2, 33456, Note_on_c, 0, 67, 101
2, 33504, Note_off_c, 0, 67, 0
2, 33504, Note_on_c, 0, 73, 101
2, 33600, Note_off_c, 0, 73, 0
2, 33600, Note_on_c, 0, 67, 101
2, 33648, Note_off_c, 0, 67, 0
2, 33648, Note_on_c, 0, 66, 101
2, 33672, Note_off_c, 0, 66, 0
2, 33672, Note_on_c, 0, 64, 101
2, 33696, Note_off_c, 0, 64, 0
2, 33696, Note_on_c, 0, 66, 101
2, 33744, Note_off_c, 0, 66, 0
2, 33744, Note_on_c, 0, 62, 101
2, 33792, Note_off_c, 0, 62, 0
2, 33792, Note_on_c, 0, 71, 101
2, 33840, Note_off_c, 0, 71, 0
2, 33840, Note_on_c, 0, 71, 101
2, 33888, Note_off_c, 0, 71, 0
2, 33888, Note_on_c, 0, 71, 101
2, 33936, Note_off_c, 0, 71, 0
2, 33936, Note_on_c, 0, 71, 101
2, 33984, Note_off_c, 0, 71, 0
2, 33984, Note_on_c, 0, 71, 101
2, 34032, Note_off_c, 0, 71, 0
2, 34032, Note_on_c, 0, 69, 101
2, 34056, Note_off_c, 0, 69, 0
2, 34056, Note_on_c, 0, 67, 101
2, 34080, Note_off_c, 0, 67, 0
2, 34080, Note_on_c, 0, 69, 101
2, 34128, Note_off_c, 0, 69, 0
2, 34128, Note_on_c, 0, 69, 101
2, 34176, Note_off_c, 0, 69, 0
2, 34176, Note_on_c, 0, 69, 101
2, 34224, Note_off_c, 0, 69, 0
2, 34224, Note_on_c, 0, 62, 101
2, 34272, Note_off_c, 0, 62, 0
2, 34272, Note_on_c, 0, 67, 101
2, 34464, Note_off_c, 0, 67, 0
2, 34464, Note_on_c, 0, 66, 101
2, 34584, Note_off_c, 0, 66, 0
2, 34584, Note_on_c, 0, 59, 101
2, 34608, Note_off_c, 0, 59, 0
2, 34608, Note_on_c, 0, 61, 101
2, 34632, Note_off_c, 0, 61, 0
2, 34632, Note_on_c, 0, 63, 101
2, 34656, Note_off_c, 0, 63, 0
2, 34656, Note_on_c, 0, 64, 101
2, 34848, Note_off_c, 0, 64, 0
2, 34848, Note_on_c, 0, 63, 101
2, 34944, Note_off_c, 0, 63, 0
2, 34944, Note_on_c, 0, 64, 101
2, 34968, Note_off_c, 0, 64, 0
2, 34968, Note_on_c, 0, 59, 101
2, 34992, Note_off_c, 0, 59, 0
2, 34992, Note_on_c, 0, 83, 101
2, 35040, Note_off_c, 0, 83, 0
2, 35040, Note_on_c, 0, 83, 101
2, 35088, Note_off_c, 0, 83, 0
2, 35088, Note_on_c, 0, 83, 101
2, 35136, Note_off_c, 0, 83, 0
2, 35136, Note_on_c, 0, 72, 101
2, 35160, Note_off_c, 0, 72, 0
2, 35160, Note_on_c, 0, 57, 101
2, 35184, Note_off_c, 0, 57, 0
2, 35184, Note_on_c, 0, 81, 101
2, 35208, Note_off_c, 0, 81, 0
2, 35208, Note_on_c, 0, 79, 101
2, 35232, Note_off_c, 0, 79, 0
2, 35232, Note_on_c, 0, 81, 101
2, 35280, Note_off_c, 0, 81, 0
2, 35280, Note_on_c, 0, 81, 101
2, 35328, Note_off_c, 0, 81, 0
2, 35328, Note_on_c, 0, 81, 101
2, 35376, Note_off_c, 0, 81, 0
2, 35376, Note_on_c, 0, 74, 101
2, 35424, Note_off_c, 0, 74, 0
2, 35424, Note_on_c, 0, 79, 101
2, 35472, Note_off_c, 0, 79, 0
2, 35472, Note_on_c, 0, 79, 101
2, 35520, Note_off_c, 0, 79, 0
2, 35520, Note_on_c, 0, 57, 101
2, 35544, Note_off_c, 0, 57, 0
2, 35544, Note_on_c, 0, 71, 101
2, 35568, Note_off_c, 0, 71, 0
2, 35568, Note_on_c, 0, 69, 101
2, 35592, Note_off_c, 0, 69, 0
2, 35592, Note_on_c, 0, 67, 101
2, 35616, Note_off_c, 0, 67, 0
2, 35616, Note_on_c, 0, 66, 101
2, 35640, Note_off_c, 0, 66, 0
2, 35640, Note_on_c, 0, 64, 101
2, 35664, Note_off_c, 0, 64, 0
2, 35664, Note_on_c, 0, 63, 101
2, 35688, Note_off_c, 0, 63, 0
2, 35688, Note_on_c, 0, 61, 101
2, 35712, Note_off_c, 0, 61, 0
2, 35712, Note_on_c, 0, 59, 101
2, 35808, Note_off_c, 0, 59, 0
2, 35808, Note_on_c, 0, 71, 101
2, 35904, Note_off_c, 0, 71, 0
2, 35904, Note_on_c, 0, 72, 101
2, 36120, Note_off_c, 0, 72, 0
2, 36120, Note_on_c, 0, 71, 101
2, 36144, Note_off_c, 0, 71, 0
2, 36144, Note_on_c, 0, 69, 101
2, 36168, Note_off_c, 0, 69, 0
2, 36168, Note_on_c, 0, 72, 101
2, 36192, Note_off_c, 0, 72, 0
2, 36192, Note_on_c, 0, 71, 101
2, 36216, Note_off_c, 0, 71, 0
2, 36216, Note_on_c, 0, 69, 101
2, 36240, Note_off_c, 0, 69, 0
2, 36240, Note_on_c, 0, 67, 101
2, 36264, Note_off_c, 0, 67, 0
2, 36264, Note_on_c, 0, 66, 101
2, 36288, Note_off_c, 0, 66, 0
2, 36288, Note_on_c, 0, 64, 101
2, 36336, Note_off_c, 0, 64, 0
2, 36336, Note_on_c, 0, 59, 101
2, 36360, Note_off_c, 0, 59, 0
2, 36360, Note_on_c, 0, 64, 101
2, 36384, Note_off_c, 0, 64, 0
2, 36384, Note_on_c, 0, 67, 101
2, 36432, Note_off_c, 0, 67, 0
2, 36432, Note_on_c, 0, 64, 101
2, 36456, Note_off_c, 0, 64, 0
2, 36456, Note_on_c, 0, 67, 101
2, 36480, Note_off_c, 0, 67, 0
2, 36480, Note_on_c, 0, 72, 101
2, 36504, Note_off_c, 0, 72, 0
2, 36504, Note_on_c, 0, 71, 101
2, 36528, Note_off_c, 0, 71, 0
2, 36528, Note_on_c, 0, 69, 101
2, 36552, Note_off_c, 0, 69, 0
2, 36552, Note_on_c, 0, 67, 101
2, 36576, Note_off_c, 0, 67, 0
2, 36576, Note_on_c, 0, 66, 101
2, 36600, Note_off_c, 0, 66, 0
2, 36600, Note_on_c, 0, 72, 101
2, 36624, Note_off_c, 0, 72, 0
2, 36624, Note_on_c, 0, 71, 101
2, 36648, Note_off_c, 0, 71, 0
2, 36648, Note_on_c, 0, 69, 101
2, 36672, Note_off_c, 0, 69, 0
2, 36672, Note_on_c, 0, 67, 101
2, 36720, Note_off_c, 0, 67, 0
2, 36720, Note_on_c, 0, 66, 101
2, 36768, Note_off_c, 0, 66, 0
2, 36768, Note_on_c, 0, 67, 101
2, 36816, Note_off_c, 0, 67, 0
2, 36816, Note_on_c, 0, 69, 101
2, 36864, Note_off_c, 0, 69, 0
2, 36864, Note_on_c, 0, 71, 101
2, 37152, Note_off_c, 0, 71, 0
2, 37152, Note_on_c, 0, 78, 101
2, 37200, Note_off_c, 0, 78, 0
2, 37200, Note_on_c, 0, 74, 101
2, 37248, Note_off_c, 0, 74, 0
2, 37248, Note_on_c, 0, 74, 101
2, 37344, Note_off_c, 0, 74, 0
2, 37344, Note_on_c, 0, 83, 101
2, 37392, Note_off_c, 0, 83, 0
2, 37392, Note_on_c, 0, 67, 101
2, 37440, Note_off_c, 0, 67, 0
2, 37440, Note_on_c, 0, 74, 101
2, 37536, Note_off_c, 0, 74, 0
2, 37536, Note_on_c, 0, 81, 101
2, 37584, Note_off_c, 0, 81, 0
2, 37584, Note_on_c, 0, 71, 101
2, 37632, Note_off_c, 0, 71, 0
2, 37632, Note_on_c, 0, 71, 101
2, 37728, Note_off_c, 0, 71, 0
2, 37728, Note_on_c, 0, 79, 101
2, 37776, Note_off_c, 0, 79, 0
2, 37776, Note_on_c, 0, 71, 101
2, 37824, Note_off_c, 0, 71, 0
2, 37824, Note_on_c, 0, 69, 101
2, 37920, Note_off_c, 0, 69, 0
2, 37920, Note_on_c, 0, 78, 101
2, 37944, Note_off_c, 0, 78, 0
2, 37944, Note_on_c, 0, 83, 101
2, 37968, Note_off_c, 0, 83, 0
2, 37968, Note_on_c, 0, 81, 101
2, 37992, Note_off_c, 0, 81, 0
2, 37992, Note_on_c, 0, 83, 101
2, 38016, Note_off_c, 0, 83, 0
2, 38016, Note_on_c, 0, 79, 101
2, 38400, Note_off_c, 0, 79, 0
2, 38400, Note_on_c, 0, 78, 101
2, 38784, Note_off_c, 0, 78, 0
2, 38784, Note_on_c, 0, 76, 101
2, 39168, Note_off_c, 0, 76, 0
2, 39168, Note_on_c, 0, 71, 101
2, 39192, Note_off_c, 0, 71, 0
2, 39192, Note_on_c, 0, 66, 101
2, 39216, Note_off_c, 0, 66, 0
2, 39216, Note_on_c, 0, 71, 101
2, 39240, Note_off_c, 0, 71, 0
2, 39240, Note_on_c, 0, 74, 101
2, 39264, Note_off_c, 0, 74, 0
2, 39264, Note_on_c, 0, 68, 101
2, 39360, Note_off_c, 0, 68, 0
2, 39360, Note_on_c, 0, 72, 101
2, 39456, Note_off_c, 0, 72, 0
2, 39456, Note_on_c, 0, 66, 101
2, 39552, Note_off_c, 0, 66, 0
2, 39552, Note_on_c, 0, 67, 101
2, 39600, Note_off_c, 0, 67, 0
2, 39600, Note_on_c, 0, 66, 101
2, 39648, Note_off_c, 0, 66, 0
2, 39648, Note_on_c, 0, 64, 101
2, 39744, Note_off_c, 0, 64, 0
2, 39744, Note_on_c, 0, 66, 101
2, 39792, Note_off_c, 0, 66, 0
2, 39792, Note_on_c, 0, 64, 101
2, 39840, Note_off_c, 0, 64, 0
2, 39840, Note_on_c, 0, 63, 101
2, 39936, Note_off_c, 0, 63, 0
2, 39936, Note_on_c, 0, 64, 101
2, 40032, Note_off_c, 0, 64, 0
2, 40032, Note_on_c, 0, 64, 101
2, 40056, Note_off_c, 0, 64, 0
2, 40056, Note_on_c, 0, 71, 101
2, 40080, Note_off_c, 0, 71, 0
2, 40080, Note_on_c, 0, 67, 101
2, 40104, Note_off_c, 0, 67, 0
2, 40104, Note_on_c, 0, 64, 101
2, 40128, Note_off_c, 0, 64, 0
2, 40128, Note_on_c, 0, 62, 101
2, 40152, Note_off_c, 0, 62, 0
2, 40152, Note_on_c, 0, 71, 101
2, 40176, Note_off_c, 0, 71, 0
2, 40176, Note_on_c, 0, 68, 101
2, 40200, Note_off_c, 0, 68, 0
2, 40200, Note_on_c, 0, 62, 101
2, 40224, Note_off_c, 0, 62, 0
2, 40224, Note_on_c, 0, 71, 101
2, 40248, Note_off_c, 0, 71, 0
2, 40248, Note_on_c, 0, 66, 101
2, 40272, Note_off_c, 0, 66, 0
2, 40272, Note_on_c, 0, 64, 101
2, 40296, Note_off_c, 0, 64, 0
2, 40296, Note_on_c, 0, 62, 101
2, 40320, Note_off_c, 0, 62, 0
2, 40320, Note_on_c, 0, 60, 101
2, 40344, Note_off_c, 0, 60, 0
2, 40344, Note_on_c, 0, 62, 101
2, 40368, Note_off_c, 0, 62, 0
2, 40368, Note_on_c, 0, 64, 101
2, 40392, Note_off_c, 0, 64, 0
2, 40392, Note_on_c, 0, 60, 101
2, 40416, Note_off_c, 0, 60, 0
2, 40416, Note_on_c, 0, 57, 101
2, 40464, Note_off_c, 0, 57, 0
2, 40464, Note_on_c, 0, 69, 101
2, 40512, Note_off_c, 0, 69, 0
2, 40512, Note_on_c, 0, 73, 101
2, 40560, Note_off_c, 0, 73, 0
2, 40560, Note_on_c, 0, 76, 101
2, 40608, Note_off_c, 0, 76, 0
2, 40608, Note_on_c, 0, 73, 101
2, 40656, Note_off_c, 0, 73, 0
2, 40656, Note_on_c, 0, 69, 101
2, 40704, Note_off_c, 0, 69, 0
2, 40704, Note_on_c, 0, 74, 101
2, 40728, Note_off_c, 0, 74, 0
2, 40728, Note_on_c, 0, 76, 101
2, 40752, Note_off_c, 0, 76, 0
2, 40752, Note_on_c, 0, 78, 101
2, 40776, Note_off_c, 0, 78, 0
2, 40776, Note_on_c, 0, 74, 101
2, 40800, Note_off_c, 0, 74, 0
2, 40800, Note_on_c, 0, 81, 101
2, 40824, Note_off_c, 0, 81, 0
2, 40824, Note_on_c, 0, 78, 101
2, 40848, Note_off_c, 0, 78, 0
2, 40848, Note_on_c, 0, 74, 101
2, 40872, Note_off_c, 0, 74, 0
2, 40872, Note_on_c, 0, 69, 101
2, 40896, Note_off_c, 0, 69, 0
2, 40896, Note_on_c, 0, 75, 101
2, 40920, Note_off_c, 0, 75, 0
2, 40920, Note_on_c, 0, 72, 101
2, 40944, Note_off_c, 0, 72, 0
2, 40944, Note_on_c, 0, 69, 101
2, 40968, Note_off_c, 0, 69, 0
2, 40968, Note_on_c, 0, 66, 101
2, 40992, Note_off_c, 0, 66, 0
2, 40992, Note_on_c, 0, 78, 101
2, 41016, Note_off_c, 0, 78, 0
2, 41016, Note_on_c, 0, 72, 101
2, 41040, Note_off_c, 0, 72, 0
2, 41040, Note_on_c, 0, 71, 101
2, 41064, Note_off_c, 0, 71, 0
2, 41064, Note_on_c, 0, 69, 101
2, 41088, Note_off_c, 0, 69, 0
2, 41088, Note_on_c, 0, 67, 101
2, 41112, Note_off_c, 0, 67, 0
2, 41112, Note_on_c, 0, 74, 101
2, 41136, Note_off_c, 0, 74, 0
2, 41136, Note_on_c, 0, 71, 101
2, 41160, Note_off_c, 0, 71, 0
2, 41160, Note_on_c, 0, 67, 101
2, 41184, Note_off_c, 0, 67, 0
2, 41184, Note_on_c, 0, 76, 101
2, 41208, Note_off_c, 0, 76, 0
2, 41208, Note_on_c, 0, 71, 101
2, 41232, Note_off_c, 0, 71, 0
2, 41232, Note_on_c, 0, 69, 101
2, 41256, Note_off_c, 0, 69, 0
2, 41256, Note_on_c, 0, 67, 101
2, 41280, Note_off_c, 0, 67, 0
2, 41280, Note_on_c, 0, 66, 101
2, 41304, Note_off_c, 0, 66, 0
2, 41304, Note_on_c, 0, 73, 101
2, 41328, Note_off_c, 0, 73, 0
2, 41328, Note_on_c, 0, 69, 101
2, 41352, Note_off_c, 0, 69, 0
2, 41352, Note_on_c, 0, 66, 101
2, 41376, Note_off_c, 0, 66, 0
2, 41376, Note_on_c, 0, 74, 101
2, 41400, Note_off_c, 0, 74, 0
2, 41400, Note_on_c, 0, 69, 101
2, 41424, Note_off_c, 0, 69, 0
2, 41424, Note_on_c, 0, 67, 101
2, 41448, Note_off_c, 0, 67, 0
2, 41448, Note_on_c, 0, 66, 101
2, 41472, Note_off_c, 0, 66, 0
2, 41472, Note_on_c, 0, 64, 101
2, 41496, Note_off_c, 0, 64, 0
2, 41496, Note_on_c, 0, 71, 101
2, 41520, Note_off_c, 0, 71, 0
2, 41520, Note_on_c, 0, 67, 101
2, 41544, Note_off_c, 0, 67, 0
2, 41544, Note_on_c, 0, 64, 101
2, 41568, Note_off_c, 0, 64, 0
2, 41568, Note_on_c, 0, 73, 101
2, 41592, Note_off_c, 0, 73, 0
2, 41592, Note_on_c, 0, 67, 101
2, 41616, Note_off_c, 0, 67, 0
2, 41616, Note_on_c, 0, 66, 101
2, 41640, Note_off_c, 0, 66, 0
2, 41640, Note_on_c, 0, 64, 101
2, 41664, Note_off_c, 0, 64, 0
2, 41664, Note_on_c, 0, 62, 101
2, 41688, Note_off_c, 0, 62, 0
2, 41688, Note_on_c, 0, 69, 101
2, 41712, Note_off_c, 0, 69, 0
2, 41712, Note_on_c, 0, 66, 101
2, 41736, Note_off_c, 0, 66, 0
2, 41736, Note_on_c, 0, 62, 101
2, 41760, Note_off_c, 0, 62, 0
2, 41760, Note_on_c, 0, 74, 101
2, 41784, Note_off_c, 0, 74, 0
2, 41784, Note_on_c, 0, 69, 101
2, 41808, Note_off_c, 0, 69, 0
2, 41808, Note_on_c, 0, 67, 101
2, 41832, Note_off_c, 0, 67, 0
2, 41832, Note_on_c, 0, 66, 101
2, 41856, Note_off_c, 0, 66, 0
2, 41856, Note_on_c, 0, 64, 101
2, 41880, Note_off_c, 0, 64, 0
2, 41880, Note_on_c, 0, 71, 101
2, 41904, Note_off_c, 0, 71, 0
2, 41904, Note_on_c, 0, 67, 101
2, 41928, Note_off_c, 0, 67, 0
2, 41928, Note_on_c, 0, 64, 101
2, 41952, Note_off_c, 0, 64, 0
2, 41952, Note_on_c, 0, 76, 101
2, 41976, Note_off_c, 0, 76, 0
2, 41976, Note_on_c, 0, 71, 101
2, 42000, Note_off_c, 0, 71, 0
2, 42000, Note_on_c, 0, 69, 101
2, 42024, Note_off_c, 0, 69, 0
2, 42024, Note_on_c, 0, 67, 101
2, 42048, Note_off_c, 0, 67, 0
2, 42048, Note_on_c, 0, 66, 101
2, 42072, Note_off_c, 0, 66, 0
2, 42072, Note_on_c, 0, 73, 101
2, 42096, Note_off_c, 0, 73, 0
2, 42096, Note_on_c, 0, 69, 101
2, 42120, Note_off_c, 0, 69, 0
2, 42120, Note_on_c, 0, 66, 101
2, 42144, Note_off_c, 0, 66, 0
2, 42144, Note_on_c, 0, 78, 101
2, 42168, Note_off_c, 0, 78, 0
2, 42168, Note_on_c, 0, 72, 101
2, 42192, Note_off_c, 0, 72, 0
2, 42192, Note_on_c, 0, 71, 101
2, 42216, Note_off_c, 0, 71, 0
2, 42216, Note_on_c, 0, 69, 101
2, 42240, Note_off_c, 0, 69, 0
2, 42240, Note_on_c, 0, 67, 101
2, 42264, Note_off_c, 0, 67, 0
2, 42264, Note_on_c, 0, 74, 101
2, 42288, Note_off_c, 0, 74, 0
2, 42288, Note_on_c, 0, 71, 101
2, 42312, Note_off_c, 0, 71, 0
2, 42312, Note_on_c, 0, 67, 101
2, 42336, Note_off_c, 0, 67, 0
2, 42336, Note_on_c, 0, 79, 101
2, 42360, Note_off_c, 0, 79, 0
2, 42360, Note_on_c, 0, 78, 101
2, 42384, Note_off_c, 0, 78, 0
2, 42384, Note_on_c, 0, 76, 101
2, 42408, Note_off_c, 0, 76, 0
2, 42408, Note_on_c, 0, 74, 101
2, 42432, Note_off_c, 0, 74, 0
2, 42432, Note_on_c, 0, 73, 101
2, 42456, Note_off_c, 0, 73, 0
2, 42456, Note_on_c, 0, 76, 101
2, 42480, Note_off_c, 0, 76, 0
2, 42480, Note_on_c, 0, 73, 101
2, 42504, Note_off_c, 0, 73, 0
2, 42504, Note_on_c, 0, 69, 101
2, 42528, Note_off_c, 0, 69, 0
2, 42528, Note_on_c, 0, 81, 101
2, 42552, Note_off_c, 0, 81, 0
2, 42552, Note_on_c, 0, 76, 101
2, 42576, Note_off_c, 0, 76, 0
2, 42576, Note_on_c, 0, 73, 101
2, 42600, Note_off_c, 0, 73, 0
2, 42600, Note_on_c, 0, 69, 101
2, 42624, Note_off_c, 0, 69, 0
2, 42624, Note_on_c, 0, 74, 101
2, 42648, Note_off_c, 0, 74, 0
2, 42648, Note_on_c, 0, 78, 101
2, 42672, Note_off_c, 0, 78, 0
2, 42672, Note_on_c, 0, 74, 101
2, 42696, Note_off_c, 0, 74, 0
2, 42696, Note_on_c, 0, 69, 101
2, 42720, Note_off_c, 0, 69, 0
2, 42720, Note_on_c, 0, 81, 101
2, 42744, Note_off_c, 0, 81, 0
2, 42744, Note_on_c, 0, 78, 101
2, 42768, Note_off_c, 0, 78, 0
2, 42768, Note_on_c, 0, 74, 101
2, 42792, Note_off_c, 0, 74, 0
2, 42792, Note_on_c, 0, 69, 101
2, 42816, Note_off_c, 0, 69, 0
2, 42816, Note_on_c, 0, 76, 101
2, 42840, Note_off_c, 0, 76, 0
2, 42840, Note_on_c, 0, 79, 101
2, 42864, Note_off_c, 0, 79, 0
2, 42864, Note_on_c, 0, 76, 101
2, 42888, Note_off_c, 0, 76, 0
2, 42888, Note_on_c, 0, 73, 101
2, 42912, Note_off_c, 0, 73, 0
2, 42912, Note_on_c, 0, 81, 101
2, 42936, Note_off_c, 0, 81, 0
2, 42936, Note_on_c, 0, 76, 101
2, 42960, Note_off_c, 0, 76, 0
2, 42960, Note_on_c, 0, 73, 101
2, 42984, Note_off_c, 0, 73, 0
2, 42984, Note_on_c, 0, 69, 101
2, 43008, Note_off_c, 0, 69, 0
2, 43008, Note_on_c, 0, 78, 101
2, 43032, Note_off_c, 0, 78, 0
2, 43032, Note_on_c, 0, 81, 101
2, 43056, Note_off_c, 0, 81, 0
2, 43056, Note_on_c, 0, 78, 101
2, 43080, Note_off_c, 0, 78, 0
2, 43080, Note_on_c, 0, 74, 101
2, 43104, Note_off_c, 0, 74, 0
2, 43104, Note_on_c, 0, 79, 101
2, 43128, Note_off_c, 0, 79, 0
2, 43128, Note_on_c, 0, 76, 101
2, 43152, Note_off_c, 0, 76, 0
2, 43152, Note_on_c, 0, 73, 101
2, 43176, Note_off_c, 0, 73, 0
2, 43176, Note_on_c, 0, 69, 101
2, 43200, Note_off_c, 0, 69, 0
2, 43200, Note_on_c, 0, 78, 101
2, 43224, Note_off_c, 0, 78, 0
2, 43224, Note_on_c, 0, 74, 101
2, 43248, Note_off_c, 0, 74, 0
2, 43248, Note_on_c, 0, 71, 101
2, 43272, Note_off_c, 0, 71, 0
2, 43272, Note_on_c, 0, 69, 101
2, 43296, Note_off_c, 0, 69, 0
2, 43296, Note_on_c, 0, 67, 101
2, 43320, Note_off_c, 0, 67, 0
2, 43320, Note_on_c, 0, 76, 101
2, 43344, Note_off_c, 0, 76, 0
2, 43344, Note_on_c, 0, 73, 101
2, 43368, Note_off_c, 0, 73, 0
2, 43368, Note_on_c, 0, 67, 101
2, 43392, Note_off_c, 0, 67, 0
2, 43392, Note_on_c, 0, 66, 101
2, 43416, Note_off_c, 0, 66, 0
2, 43416, Note_on_c, 0, 69, 101
2, 43440, Note_off_c, 0, 69, 0
2, 43440, Note_on_c, 0, 74, 101
2, 43464, Note_off_c, 0, 74, 0
2, 43464, Note_on_c, 0, 66, 101
2, 43488, Note_off_c, 0, 66, 0
2, 43488, Note_on_c, 0, 64, 101
2, 43512, Note_off_c, 0, 64, 0
2, 43512, Note_on_c, 0, 74, 101
2, 43536, Note_off_c, 0, 74, 0
2, 43536, Note_on_c, 0, 67, 101
2, 43560, Note_off_c, 0, 67, 0
2, 43560, Note_on_c, 0, 73, 101
2, 43584, Note_off_c, 0, 73, 0
2, 43584, Note_on_c, 0, 67, 101
2, 43608, Note_off_c, 0, 67, 0
2, 43608, Note_on_c, 0, 67, 101
2, 43632, Note_off_c, 0, 67, 0
2, 43632, Note_on_c, 0, 66, 101
2, 43656, Note_off_c, 0, 66, 0
2, 43656, Note_on_c, 0, 64, 101
2, 43680, Note_off_c, 0, 64, 0
2, 43680, Note_on_c, 0, 66, 101
2, 43704, Note_off_c, 0, 66, 0
2, 43704, Note_on_c, 0, 69, 101
2, 43728, Note_off_c, 0, 69, 0
2, 43728, Note_on_c, 0, 67, 101
2, 43752, Note_off_c, 0, 67, 0
2, 43752, Note_on_c, 0, 66, 101
2, 43776, Note_off_c, 0, 66, 0
2, 43776, Note_on_c, 0, 64, 101
2, 43824, Note_off_c, 0, 64, 0
2, 43872, Note_on_c, 0, 76, 101
2, 43992, Note_off_c, 0, 76, 0
2, 43992, Note_on_c, 0, 69, 101
2, 44016, Note_off_c, 0, 69, 0
2, 44016, Note_on_c, 0, 71, 101
2, 44040, Note_off_c, 0, 71, 0
2, 44040, Note_on_c, 0, 73, 101
2, 44064, Note_off_c, 0, 73, 0
2, 44064, Note_on_c, 0, 74, 101
2, 44088, Note_off_c, 0, 74, 0
2, 44088, Note_on_c, 0, 76, 101
2, 44112, Note_off_c, 0, 76, 0
2, 44112, Note_on_c, 0, 73, 101
2, 44136, Note_off_c, 0, 73, 0
2, 44136, Note_on_c, 0, 74, 101
2, 44160, Note_off_c, 0, 74, 0
2, 44160, Note_on_c, 0, 67, 101
2, 44280, Note_off_c, 0, 67, 0
2, 44280, Note_on_c, 0, 71, 101
2, 44304, Note_off_c, 0, 71, 0
2, 44304, Note_on_c, 0, 69, 101
2, 44328, Note_off_c, 0, 69, 0
2, 44328, Note_on_c, 0, 67, 101
2, 44352, Note_off_c, 0, 67, 0
2, 44352, Note_on_c, 0, 66, 101
2, 44472, Note_off_c, 0, 66, 0
2, 44472, Note_on_c, 0, 67, 101
2, 44496, Note_off_c, 0, 67, 0
2, 44496, Note_on_c, 0, 69, 101
2, 44520, Note_off_c, 0, 69, 0
2, 44520, Note_on_c, 0, 71, 101
2, 44544, Note_off_c, 0, 71, 0
2, 44544, Note_on_c, 0, 73, 101
2, 44568, Note_off_c, 0, 73, 0
2, 44568, Note_on_c, 0, 74, 101
2, 44592, Note_off_c, 0, 74, 0
2, 44592, Note_on_c, 0, 72, 101
2, 44616, Note_off_c, 0, 72, 0
2, 44616, Note_on_c, 0, 74, 101
2, 44640, Note_off_c, 0, 74, 0
2, 44640, Note_on_c, 0, 64, 101
2, 44688, Note_off_c, 0, 64, 0
2, 44688, Note_on_c, 0, 69, 101
2, 44736, Note_off_c, 0, 69, 0
2, 44736, Note_on_c, 0, 66, 101
2, 44760, Note_off_c, 0, 66, 0
2, 44760, Note_on_c, 0, 64, 101
2, 44784, Note_off_c, 0, 64, 0
2, 44784, Note_on_c, 0, 66, 101
2, 44808, Note_off_c, 0, 66, 0
2, 44808, Note_on_c, 0, 69, 101
2, 44832, Note_off_c, 0, 69, 0
2, 44832, Note_on_c, 0, 74, 101
2, 44880, Note_off_c, 0, 74, 0
2, 44880, Note_on_c, 0, 74, 101
2, 44928, Note_off_c, 0, 74, 0
2, 44928, Note_on_c, 0, 74, 101
2, 44976, Note_off_c, 0, 74, 0
2, 44976, Note_on_c, 0, 72, 101
2, 45000, Note_off_c, 0, 72, 0
2, 45000, Note_on_c, 0, 71, 101
2, 45024, Note_off_c, 0, 71, 0
2, 45024, Note_on_c, 0, 72, 101
2, 45048, Note_off_c, 0, 72, 0
2, 45048, Note_on_c, 0, 71, 101
2, 45072, Note_off_c, 0, 71, 0
2, 45072, Note_on_c, 0, 69, 101
2, 45096, Note_off_c, 0, 69, 0
2, 45096, Note_on_c, 0, 72, 101
2, 45120, Note_off_c, 0, 72, 0
2, 45120, Note_on_c, 0, 71, 101
2, 45144, Note_off_c, 0, 71, 0
2, 45144, Note_on_c, 0, 69, 101
2, 45168, Note_off_c, 0, 69, 0
2, 45168, Note_on_c, 0, 67, 101
2, 45192, Note_off_c, 0, 67, 0
2, 45192, Note_on_c, 0, 71, 101
2, 45216, Note_off_c, 0, 71, 0
2, 45216, Note_on_c, 0, 69, 101
2, 45240, Note_off_c, 0, 69, 0
2, 45240, Note_on_c, 0, 72, 101
2, 45264, Note_off_c, 0, 72, 0
2, 45264, Note_on_c, 0, 71, 101
2, 45288, Note_off_c, 0, 71, 0
2, 45288, Note_on_c, 0, 74, 101
2, 45312, Note_off_c, 0, 74, 0
2, 45312, Note_on_c, 0, 72, 101
2, 45336, Note_off_c, 0, 72, 0
2, 45336, Note_on_c, 0, 69, 101
2, 45360, Note_off_c, 0, 69, 0
2, 45360, Note_on_c, 0, 71, 101
2, 45384, Note_off_c, 0, 71, 0
2, 45384, Note_on_c, 0, 72, 101
2, 45408, Note_off_c, 0, 72, 0
2, 45408, Note_on_c, 0, 74, 101
2, 45432, Note_off_c, 0, 74, 0
2, 45432, Note_on_c, 0, 72, 101
2, 45456, Note_off_c, 0, 72, 0
2, 45456, Note_on_c, 0, 71, 101
2, 45480, Note_off_c, 0, 71, 0
2, 45480, Note_on_c, 0, 69, 101
2, 45504, Note_off_c, 0, 69, 0
2, 45504, Note_on_c, 0, 67, 101
2, 45552, Note_off_c, 0, 67, 0
2, 45552, Note_on_c, 0, 72, 101
2, 45600, Note_off_c, 0, 72, 0
2, 45600, Note_on_c, 0, 72, 101
2, 45648, Note_off_c, 0, 72, 0
2, 45648, Note_on_c, 0, 72, 101
2, 45696, Note_off_c, 0, 72, 0
2, 45696, Note_on_c, 0, 72, 101
2, 45744, Note_off_c, 0, 72, 0
2, 45744, Note_on_c, 0, 70, 101
2, 45768, Note_off_c, 0, 70, 0
2, 45768, Note_on_c, 0, 69, 101
2, 45792, Note_off_c, 0, 69, 0
2, 45792, Note_on_c, 0, 70, 101
2, 45816, Note_off_c, 0, 70, 0
2, 45816, Note_on_c, 0, 69, 101
2, 45840, Note_off_c, 0, 69, 0
2, 45840, Note_on_c, 0, 67, 101
2, 45864, Note_off_c, 0, 67, 0
2, 45864, Note_on_c, 0, 70, 101
2, 45888, Note_off_c, 0, 70, 0
2, 45888, Note_on_c, 0, 69, 101
2, 45912, Note_off_c, 0, 69, 0
2, 45912, Note_on_c, 0, 68, 101
2, 45936, Note_off_c, 0, 68, 0
2, 45936, Note_on_c, 0, 69, 101
2, 45960, Note_off_c, 0, 69, 0
2, 45960, Note_on_c, 0, 71, 101
2, 45984, Note_off_c, 0, 71, 0
2, 45984, Note_on_c, 0, 69, 101
2, 46008, Note_off_c, 0, 69, 0
2, 46008, Note_on_c, 0, 72, 101
2, 46032, Note_off_c, 0, 72, 0
2, 46032, Note_on_c, 0, 71, 101
2, 46056, Note_off_c, 0, 71, 0
2, 46056, Note_on_c, 0, 69, 101
2, 46080, Note_off_c, 0, 69, 0
2, 46080, Note_on_c, 0, 68, 101
2, 46104, Note_off_c, 0, 68, 0
2, 46104, Note_on_c, 0, 71, 101
2, 46128, Note_off_c, 0, 71, 0
2, 46128, Note_on_c, 0, 76, 101
2, 46176, Note_off_c, 0, 76, 0
2, 46176, Note_on_c, 0, 76, 101
2, 46224, Note_off_c, 0, 76, 0
2, 46224, Note_on_c, 0, 76, 101
2, 46272, Note_off_c, 0, 76, 0
2, 46272, Note_on_c, 0, 81, 101
2, 46320, Note_off_c, 0, 81, 0
2, 46320, Note_on_c, 0, 81, 101
2, 46368, Note_off_c, 0, 81, 0
2, 46368, Note_on_c, 0, 81, 101
2, 46416, Note_off_c, 0, 81, 0
2, 46416, Note_on_c, 0, 81, 101
2, 46464, Note_off_c, 0, 81, 0
2, 46464, Note_on_c, 0, 81, 101
2, 46512, Note_off_c, 0, 81, 0
2, 46512, Note_on_c, 0, 80, 101
2, 46536, Note_off_c, 0, 80, 0
2, 46536, Note_on_c, 0, 78, 101
2, 46560, Note_off_c, 0, 78, 0
2, 46560, Note_on_c, 0, 80, 101
2, 46608, Note_off_c, 0, 80, 0
2, 46608, Note_on_c, 0, 76, 101
2, 46656, Note_off_c, 0, 76, 0
2, 46656, Note_on_c, 0, 84, 101
2, 46704, Note_off_c, 0, 84, 0
2, 46704, Note_on_c, 0, 84, 101
2, 46752, Note_off_c, 0, 84, 0
2, 46752, Note_on_c, 0, 84, 101
2, 46800, Note_off_c, 0, 84, 0
2, 46800, Note_on_c, 0, 84, 101
2, 46848, Note_off_c, 0, 84, 0
2, 46848, Note_on_c, 0, 84, 101
2, 46896, Note_off_c, 0, 84, 0
2, 46896, Note_on_c, 0, 83, 101
2, 46920, Note_off_c, 0, 83, 0
2, 46920, Note_on_c, 0, 81, 101
2, 46944, Note_off_c, 0, 81, 0
2, 46944, Note_on_c, 0, 83, 101
2, 46992, Note_off_c, 0, 83, 0
2, 46992, Note_on_c, 0, 83, 101
2, 47040, Note_off_c, 0, 83, 0
2, 47040, Note_on_c, 0, 83, 101
2, 47088, Note_off_c, 0, 83, 0
2, 47088, Note_on_c, 0, 76, 101
2, 47136, Note_off_c, 0, 76, 0
2, 47136, Note_on_c, 0, 81, 101
2, 47232, Note_off_c, 0, 81, 0
2, 47232, Note_on_c, 0, 81, 101
2, 47280, Note_off_c, 0, 81, 0
2, 47280, Note_on_c, 0, 83, 101
2, 47304, Note_off_c, 0, 83, 0
2, 47304, Note_on_c, 0, 81, 101
2, 47328, Note_off_c, 0, 81, 0
2, 47328, Note_on_c, 0, 80, 101
2, 47352, Note_off_c, 0, 80, 0
2, 47352, Note_on_c, 0, 81, 101
2, 47376, Note_off_c, 0, 81, 0
2, 47376, Note_on_c, 0, 78, 101
2, 47400, Note_off_c, 0, 78, 0
2, 47400, Note_on_c, 0, 80, 101
2, 47424, Note_off_c, 0, 80, 0
2, 47424, Note_on_c, 0, 81, 101
2, 47520, Note_off_c, 0, 81, 0
2, 47856, Note_on_c, 0, 69, 101
2, 47904, Note_off_c, 0, 69, 0
2, 47904, Note_on_c, 0, 74, 101
2, 47952, Note_off_c, 0, 74, 0
2, 47952, Note_on_c, 0, 74, 101
2, 48000, Note_off_c, 0, 74, 0
2, 48000, Note_on_c, 0, 74, 101
2, 48048, Note_off_c, 0, 74, 0
2, 48048, Note_on_c, 0, 72, 101
2, 48072, Note_off_c, 0, 72, 0
2, 48072, Note_on_c, 0, 71, 101
2, 48096, Note_off_c, 0, 71, 0
2, 48096, Note_on_c, 0, 72, 101
2, 48144, Note_off_c, 0, 72, 0
2, 48144, Note_on_c, 0, 72, 101
2, 48192, Note_off_c, 0, 72, 0
2, 48192, Note_on_c, 0, 72, 101
2, 48240, Note_off_c, 0, 72, 0
2, 48240, Note_on_c, 0, 74, 101
2, 48288, Note_off_c, 0, 74, 0
2, 48288, Note_on_c, 0, 79, 101
2, 48336, Note_off_c, 0, 79, 0
2, 48336, Note_on_c, 0, 79, 101
2, 48384, Note_off_c, 0, 79, 0
2, 48384, Note_on_c, 0, 79, 101
2, 48432, Note_off_c, 0, 79, 0
2, 48432, Note_on_c, 0, 77, 101
2, 48456, Note_off_c, 0, 77, 0
2, 48456, Note_on_c, 0, 76, 101
2, 48480, Note_off_c, 0, 76, 0
2, 48480, Note_on_c, 0, 77, 101
2, 48528, Note_off_c, 0, 77, 0
2, 48528, Note_on_c, 0, 77, 101
2, 48576, Note_off_c, 0, 77, 0
2, 48576, Note_on_c, 0, 67, 101
2, 48960, Note_off_c, 0, 67, 0
2, 48960, Note_on_c, 0, 73, 101
2, 49008, Note_off_c, 0, 73, 0
2, 49008, Note_on_c, 0, 69, 101
2, 49056, Note_off_c, 0, 69, 0
2, 49056, Note_on_c, 0, 81, 101
2, 49200, Note_off_c, 0, 81, 0
2, 49200, Note_on_c, 0, 79, 101
2, 49224, Note_off_c, 0, 79, 0
2, 49224, Note_on_c, 0, 78, 101
2, 49248, Note_off_c, 0, 78, 0
2, 49248, Note_on_c, 0, 79, 101
2, 49296, Note_off_c, 0, 79, 0
2, 49296, Note_on_c, 0, 74, 101
2, 49344, Note_off_c, 0, 74, 0
2, 49344, Note_on_c, 0, 75, 101
2, 49488, Note_off_c, 0, 75, 0
2, 49488, Note_on_c, 0, 74, 101
2, 49512, Note_off_c, 0, 74, 0
2, 49512, Note_on_c, 0, 72, 101
2, 49536, Note_off_c, 0, 72, 0
2, 49536, Note_on_c, 0, 74, 101
2, 49656, Note_off_c, 0, 74, 0
2, 49656, Note_on_c, 0, 77, 101
2, 49680, Note_off_c, 0, 77, 0
2, 49680, Note_on_c, 0, 75, 101
2, 49704, Note_off_c, 0, 75, 0
2, 49704, Note_on_c, 0, 74, 101
2, 49728, Note_off_c, 0, 74, 0
2, 49728, Note_on_c, 0, 72, 101
2, 49752, Note_off_c, 0, 72, 0
2, 49752, Note_on_c, 0, 71, 101
2, 49776, Note_off_c, 0, 71, 0
2, 49776, Note_on_c, 0, 72, 101
2, 49800, Note_off_c, 0, 72, 0
2, 49800, Note_on_c, 0, 74, 101
2, 49824, Note_off_c, 0, 74, 0
2, 49824, Note_on_c, 0, 72, 101
2, 49848, Note_off_c, 0, 72, 0
2, 49848, Note_on_c, 0, 75, 101
2, 49872, Note_off_c, 0, 75, 0
2, 49872, Note_on_c, 0, 74, 101
2, 49896, Note_off_c, 0, 74, 0
2, 49896, Note_on_c, 0, 72, 101
2, 49920, Note_off_c, 0, 72, 0
2, 49920, Note_on_c, 0, 71, 101
2, 49944, Note_off_c, 0, 71, 0
2, 49944, Note_on_c, 0, 69, 101
2, 49968, Note_off_c, 0, 69, 0
2, 49968, Note_on_c, 0, 67, 101
2, 49992, Note_off_c, 0, 67, 0
2, 49992, Note_on_c, 0, 74, 101
2, 50136, Note_off_c, 0, 74, 0
2, 50136, Note_on_c, 0, 72, 101
2, 50148, Note_off_c, 0, 72, 0
2, 50148, Note_on_c, 0, 71, 101
2, 50160, Note_off_c, 0, 71, 0
2, 50160, Note_on_c, 0, 69, 101
2, 50184, Note_off_c, 0, 69, 0
2, 50184, Note_on_c, 0, 72, 101
2, 50400, Note_off_c, 0, 72, 0
2, 50448, Note_on_c, 0, 62, 101
2, 50496, Note_off_c, 0, 62, 0
2, 50496, Note_on_c, 0, 62, 101
2, 50592, Note_off_c, 0, 62, 0
2, 50640, Note_on_c, 0, 67, 101
2, 50688, Note_off_c, 0, 67, 0
2, 50688, Note_on_c, 0, 67, 101
2, 50784, Note_off_c, 0, 67, 0
2, 50808, Note_on_c, 0, 69, 101
2, 50832, Note_off_c, 0, 69, 0
2, 50832, Note_on_c, 0, 70, 101
2, 50856, Note_off_c, 0, 70, 0
2, 50856, Note_on_c, 0, 67, 101
2, 50880, Note_off_c, 0, 67, 0
2, 50880, Note_on_c, 0, 62, 101
2, 50928, Note_off_c, 0, 62, 0
2, 50928, Note_on_c, 0, 69, 101
2, 50952, Note_off_c, 0, 69, 0
2, 50952, Note_on_c, 0, 67, 101
2, 50976, Note_off_c, 0, 67, 0
2, 50976, Note_on_c, 0, 66, 101
2, 51000, Note_off_c, 0, 66, 0
2, 51000, Note_on_c, 0, 64, 101
2, 51024, Note_off_c, 0, 64, 0
2, 51024, Note_on_c, 0, 62, 101
2, 51048, Note_off_c, 0, 62, 0
2, 51048, Note_on_c, 0, 60, 101
2, 51072, Note_off_c, 0, 60, 0
2, 51120, Note_on_c, 0, 62, 101
2, 51168, Note_off_c, 0, 62, 0
2, 51168, Note_on_c, 0, 62, 101
2, 51216, Note_off_c, 0, 62, 0
2, 51216, Note_on_c, 0, 62, 101
2, 51264, Note_off_c, 0, 62, 0
2, 51264, Note_on_c, 0, 69, 101
2, 51312, Note_off_c, 0, 69, 0
2, 51312, Note_on_c, 0, 69, 101
2, 51360, Note_off_c, 0, 69, 0
2, 51360, Note_on_c, 0, 69, 101
2, 51408, Note_off_c, 0, 69, 0
2, 51408, Note_on_c, 0, 69, 101
2, 51456, Note_off_c, 0, 69, 0
2, 51456, Note_on_c, 0, 69, 101
2, 51504, Note_off_c, 0, 69, 0
2, 51504, Note_on_c, 0, 67, 101
2, 51528, Note_off_c, 0, 67, 0
2, 51528, Note_on_c, 0, 66, 101
2, 51552, Note_off_c, 0, 66, 0
2, 51552, Note_on_c, 0, 67, 101
2, 51600, Note_off_c, 0, 67, 0
2, 51600, Note_on_c, 0, 64, 101
2, 51648, Note_off_c, 0, 64, 0
2, 51648, Note_on_c, 0, 72, 101
2, 51696, Note_off_c, 0, 72, 0
2, 51696, Note_on_c, 0, 72, 101
2, 51744, Note_off_c, 0, 72, 0
2, 51744, Note_on_c, 0, 72, 101
2, 51792, Note_off_c, 0, 72, 0
2, 51792, Note_on_c, 0, 72, 101
2, 51840, Note_off_c, 0, 72, 0
2, 51840, Note_on_c, 0, 72, 101
2, 51888, Note_off_c, 0, 72, 0
2, 51888, Note_on_c, 0, 71, 101
2, 51912, Note_off_c, 0, 71, 0
2, 51912, Note_on_c, 0, 69, 101
2, 51936, Note_off_c, 0, 69, 0
2, 51936, Note_on_c, 0, 71, 101
2, 51984, Note_off_c, 0, 71, 0
2, 51984, Note_on_c, 0, 71, 101
2, 52032, Note_off_c, 0, 71, 0
2, 52032, Note_on_c, 0, 71, 101
2, 52080, Note_off_c, 0, 71, 0
2, 52080, Note_on_c, 0, 64, 101
2, 52128, Note_off_c, 0, 64, 0
2, 52128, Note_on_c, 0, 69, 101
2, 52224, Note_off_c, 0, 69, 0
2, 52224, Note_on_c, 0, 69, 101
2, 52272, Note_off_c, 0, 69, 0
2, 52272, Note_on_c, 0, 74, 101
2, 52320, Note_off_c, 0, 74, 0
2, 52320, Note_on_c, 0, 74, 101
2, 52368, Note_off_c, 0, 74, 0
2, 52368, Note_on_c, 0, 74, 101
2, 52416, Note_off_c, 0, 74, 0
2, 52416, Note_on_c, 0, 79, 101
2, 52464, Note_off_c, 0, 79, 0
2, 52464, Note_on_c, 0, 67, 101
2, 52512, Note_off_c, 0, 67, 0
2, 52512, Note_on_c, 0, 67, 101
2, 52560, Note_off_c, 0, 67, 0
2, 52560, Note_on_c, 0, 67, 101
2, 52608, Note_off_c, 0, 67, 0
2, 52608, Note_on_c, 0, 74, 101
2, 52656, Note_off_c, 0, 74, 0
2, 52656, Note_on_c, 0, 74, 101
2, 52704, Note_off_c, 0, 74, 0
2, 52704, Note_on_c, 0, 74, 101
2, 52752, Note_off_c, 0, 74, 0
2, 52752, Note_on_c, 0, 74, 101
2, 52800, Note_off_c, 0, 74, 0
2, 52800, Note_on_c, 0, 74, 101
2, 52848, Note_off_c, 0, 74, 0
2, 52848, Note_on_c, 0, 71, 101
2, 52872, Note_off_c, 0, 71, 0
2, 52872, Note_on_c, 0, 69, 101
2, 52896, Note_off_c, 0, 69, 0
2, 52896, Note_on_c, 0, 71, 101
2, 52944, Note_off_c, 0, 71, 0
2, 52944, Note_on_c, 0, 67, 101
2, 52992, Note_off_c, 0, 67, 0
2, 52992, Note_on_c, 0, 76, 101
2, 53040, Note_off_c, 0, 76, 0
2, 53040, Note_on_c, 0, 76, 101
2, 53088, Note_off_c, 0, 76, 0
2, 53088, Note_on_c, 0, 76, 101
2, 53136, Note_off_c, 0, 76, 0
2, 53136, Note_on_c, 0, 76, 101
2, 53184, Note_off_c, 0, 76, 0
2, 53184, Note_on_c, 0, 76, 101
2, 53232, Note_off_c, 0, 76, 0
2, 53232, Note_on_c, 0, 74, 101
2, 53256, Note_off_c, 0, 74, 0
2, 53256, Note_on_c, 0, 72, 101
2, 53280, Note_off_c, 0, 72, 0
2, 53280, Note_on_c, 0, 74, 101
2, 53328, Note_off_c, 0, 74, 0
2, 53328, Note_on_c, 0, 74, 101
2, 53376, Note_off_c, 0, 74, 0
2, 53376, Note_on_c, 0, 74, 101
2, 53424, Note_off_c, 0, 74, 0
2, 53424, Note_on_c, 0, 67, 101
2, 53472, Note_off_c, 0, 67, 0
2, 53472, Note_on_c, 0, 72, 101
2, 53616, Note_off_c, 0, 72, 0
2, 53616, Note_on_c, 0, 74, 101
2, 53640, Note_off_c, 0, 74, 0
2, 53640, Note_on_c, 0, 72, 101
2, 53664, Note_off_c, 0, 72, 0
2, 53664, Note_on_c, 0, 71, 101
2, 53688, Note_off_c, 0, 71, 0
2, 53688, Note_on_c, 0, 72, 101
2, 53712, Note_off_c, 0, 72, 0
2, 53712, Note_on_c, 0, 69, 101
2, 53736, Note_off_c, 0, 69, 0
2, 53736, Note_on_c, 0, 71, 101
2, 53760, Note_off_c, 0, 71, 0
2, 53760, Note_on_c, 0, 72, 101
2, 53784, Note_off_c, 0, 72, 0
2, 53784, Note_on_c, 0, 71, 101
2, 53808, Note_off_c, 0, 71, 0
2, 53808, Note_on_c, 0, 72, 101
2, 53832, Note_off_c, 0, 72, 0
2, 53832, Note_on_c, 0, 74, 101
2, 53856, Note_off_c, 0, 74, 0
2, 53856, Note_on_c, 0, 72, 101
2, 53880, Note_off_c, 0, 72, 0
2, 53880, Note_on_c, 0, 74, 101
2, 53904, Note_off_c, 0, 74, 0
2, 53904, Note_on_c, 0, 71, 101
2, 53928, Note_off_c, 0, 71, 0
2, 53928, Note_on_c, 0, 72, 101
2, 53952, Note_off_c, 0, 72, 0
2, 53952, Note_on_c, 0, 74, 101
2, 53976, Note_off_c, 0, 74, 0
2, 53976, Note_on_c, 0, 72, 101
2, 54000, Note_off_c, 0, 72, 0
2, 54000, Note_on_c, 0, 74, 101
2, 54024, Note_off_c, 0, 74, 0
2, 54024, Note_on_c, 0, 76, 101
2, 54048, Note_off_c, 0, 76, 0
2, 54048, Note_on_c, 0, 74, 101
2, 54072, Note_off_c, 0, 74, 0
2, 54072, Note_on_c, 0, 76, 101
2, 54096, Note_off_c, 0, 76, 0
2, 54096, Note_on_c, 0, 72, 101
2, 54120, Note_off_c, 0, 72, 0
2, 54120, Note_on_c, 0, 74, 101
2, 54144, Note_off_c, 0, 74, 0
2, 54144, Note_on_c, 0, 76, 101
2, 54168, Note_off_c, 0, 76, 0
2, 54168, Note_on_c, 0, 74, 101
2, 54192, Note_off_c, 0, 74, 0
2, 54192, Note_on_c, 0, 72, 101
2, 54216, Note_off_c, 0, 72, 0
2, 54216, Note_on_c, 0, 71, 101
2, 54240, Note_off_c, 0, 71, 0
2, 54240, Note_on_c, 0, 72, 101
2, 54384, Note_off_c, 0, 72, 0
2, 54384, Note_on_c, 0, 71, 101
2, 54408, Note_off_c, 0, 71, 0
2, 54408, Note_on_c, 0, 69, 101
2, 54432, Note_off_c, 0, 69, 0
2, 54432, Note_on_c, 0, 71, 101
2, 54480, Note_off_c, 0, 71, 0
2, 54480, Note_on_c, 0, 72, 101
2, 54504, Note_off_c, 0, 72, 0
2, 54504, Note_on_c, 0, 74, 101
2, 54528, Note_off_c, 0, 74, 0
2, 54528, Note_on_c, 0, 76, 101
2, 54552, Note_off_c, 0, 76, 0
2, 54552, Note_on_c, 0, 74, 101
2, 54576, Note_off_c, 0, 74, 0
2, 54576, Note_on_c, 0, 76, 101
2, 54600, Note_off_c, 0, 76, 0
2, 54600, Note_on_c, 0, 77, 101
2, 54624, Note_off_c, 0, 77, 0
2, 54624, Note_on_c, 0, 76, 101
2, 54648, Note_off_c, 0, 76, 0
2, 54648, Note_on_c, 0, 79, 101
2, 54960, Note_off_c, 0, 79, 0
2, 54960, Note_on_c, 0, 81, 101
2, 54984, Note_off_c, 0, 81, 0
2, 54984, Note_on_c, 0, 79, 101
2, 55008, Note_off_c, 0, 79, 0
2, 55008, Note_on_c, 0, 78, 101
2, 55032, Note_off_c, 0, 78, 0
2, 55032, Note_on_c, 0, 79, 101
2, 55056, Note_off_c, 0, 79, 0
2, 55056, Note_on_c, 0, 76, 101
2, 55080, Note_off_c, 0, 76, 0
2, 55080, Note_on_c, 0, 78, 101
2, 55104, Note_off_c, 0, 78, 0
2, 55104, Note_on_c, 0, 79, 101
2, 55488, Note_off_c, 0, 79, 0
2, 55488, End_track
3, 0, Start_track
3, 0, Title_t, "Track3"
3, 0, Program_c, 1, 19
3, 0, Control_c, 1, 7, 100
3, 0, Control_c, 1, 10, 64
3, 672, Note_on_c, 1, 55, 110
3, 696, Note_off_c, 1, 55, 0
3, 696, Note_on_c, 1, 62, 110
3, 720, Note_off_c, 1, 62, 0
3, 720, Note_on_c, 1, 60, 110
3, 744, Note_off_c, 1, 60, 0
3, 744, Note_on_c, 1, 59, 110
3, 768, Note_off_c, 1, 59, 0
3, 768, Note_on_c, 1, 57, 110
3, 792, Note_off_c, 1, 57, 0
3, 792, Note_on_c, 1, 55, 110
3, 816, Note_off_c, 1, 55, 0
3, 816, Note_on_c, 1, 54, 110
3, 840, Note_off_c, 1, 54, 0
3, 840, Note_on_c, 1, 52, 110
3, 864, Note_off_c, 1, 52, 0
3, 864, Note_on_c, 1, 54, 110
3, 888, Note_off_c, 1, 54, 0
3, 888, Note_on_c, 1, 57, 110
3, 912, Note_off_c, 1, 57, 0
3, 912, Note_on_c, 1, 50, 110
3, 936, Note_off_c, 1, 50, 0
3, 936, Note_on_c, 1, 54, 110
3, 960, Note_off_c, 1, 54, 0
3, 960, Note_on_c, 1, 57, 110
3, 984, Note_off_c, 1, 57, 0
3, 984, Note_on_c, 1, 60, 110
3, 1008, Note_off_c, 1, 60, 0
3, 1008, Note_on_c, 1, 54, 110
3, 1032, Note_off_c, 1, 54, 0
3, 1032, Note_on_c, 1, 57, 110
3, 1056, Note_off_c, 1, 57, 0
3, 1056, Note_on_c, 1, 50, 110
3, 1080, Note_off_c, 1, 50, 0
3, 1080, Note_on_c, 1, 60, 110
3, 1104, Note_off_c, 1, 60, 0
3, 1104, Note_on_c, 1, 59, 110
3, 1128, Note_off_c, 1, 59, 0
3, 1128, Note_on_c, 1, 57, 110
3, 1152, Note_off_c, 1, 57, 0
3, 1152, Note_on_c, 1, 55, 110
3, 1176, Note_off_c, 1, 55, 0
3, 1176, Note_on_c, 1, 59, 110
3, 1200, Note_off_c, 1, 59, 0
3, 1200, Note_on_c, 1, 50, 110
3, 1224, Note_off_c, 1, 50, 0
3, 1224, Note_on_c, 1, 55, 110
3, 1248, Note_off_c, 1, 55, 0
3, 1248, Note_on_c, 1, 59, 110
3, 1272, Note_off_c, 1, 59, 0
3, 1272, Note_on_c, 1, 62, 110
3, 1296, Note_off_c, 1, 62, 0
3, 1296, Note_on_c, 1, 55, 110
3, 1320, Note_off_c, 1, 55, 0
3, 1320, Note_on_c, 1, 59, 110
3, 1344, Note_off_c, 1, 59, 0
3, 1344, Note_on_c, 1, 50, 110
3, 1368, Note_off_c, 1, 50, 0
3, 1368, Note_on_c, 1, 62, 110
3, 1392, Note_off_c, 1, 62, 0
3, 1392, Note_on_c, 1, 60, 110
3, 1416, Note_off_c, 1, 60, 0
3, 1416, Note_on_c, 1, 59, 110
3, 1440, Note_off_c, 1, 59, 0
3, 1440, Note_on_c, 1, 57, 110
3, 1464, Note_off_c, 1, 57, 0
3, 1464, Note_on_c, 1, 60, 110
3, 1488, Note_off_c, 1, 60, 0
3, 1488, Note_on_c, 1, 54, 110
3, 1512, Note_off_c, 1, 54, 0
3, 1512, Note_on_c, 1, 57, 110
3, 1536, Note_off_c, 1, 57, 0
3, 1536, Note_on_c, 1, 60, 110
3, 1560, Note_off_c, 1, 60, 0
3, 1560, Note_on_c, 1, 66, 110
3, 1584, Note_off_c, 1, 66, 0
3, 1584, Note_on_c, 1, 57, 110
3, 1608, Note_off_c, 1, 57, 0
3, 1608, Note_on_c, 1, 60, 110
3, 1632, Note_off_c, 1, 60, 0
3, 1632, Note_on_c, 1, 50, 110
3, 1656, Note_off_c, 1, 50, 0
3, 1656, Note_on_c, 1, 64, 110
3, 1680, Note_off_c, 1, 64, 0
3, 1680, Note_on_c, 1, 62, 110
3, 1704, Note_off_c, 1, 62, 0
3, 1704, Note_on_c, 1, 60, 110
3, 1728, Note_off_c, 1, 60, 0
3, 1728, Note_on_c, 1, 59, 110
3, 1752, Note_off_c, 1, 59, 0
3, 1752, Note_on_c, 1, 62, 110
3, 1776, Note_off_c, 1, 62, 0
3, 1776, Note_on_c, 1, 55, 110
3, 1800, Note_off_c, 1, 55, 0
3, 1800, Note_on_c, 1, 59, 110
3, 1824, Note_off_c, 1, 59, 0
3, 1920, Note_on_c, 1, 55, 110
3, 1944, Note_off_c, 1, 55, 0
3, 1944, Note_on_c, 1, 59, 110
3, 1968, Note_off_c, 1, 59, 0
3, 1968, Note_on_c, 1, 50, 110
3, 1992, Note_off_c, 1, 50, 0
3, 1992, Note_on_c, 1, 55, 110
3, 2016, Note_off_c, 1, 55, 0
3, 2016, Note_on_c, 1, 59, 110
3, 2040, Note_off_c, 1, 59, 0
3, 2040, Note_on_c, 1, 62, 110
3, 2064, Note_off_c, 1, 62, 0
3, 2064, Note_on_c, 1, 55, 110
3, 2088, Note_off_c, 1, 55, 0
3, 2088, Note_on_c, 1, 59, 110
3, 2112, Note_off_c, 1, 59, 0
3, 2112, Note_on_c, 1, 50, 110
3, 2136, Note_off_c, 1, 50, 0
3, 2136, Note_on_c, 1, 55, 110
3, 2160, Note_off_c, 1, 55, 0
3, 2160, Note_on_c, 1, 47, 110
3, 2184, Note_off_c, 1, 47, 0
3, 2184, Note_on_c, 1, 50, 110
3, 2208, Note_off_c, 1, 50, 0
3, 2208, Note_on_c, 1, 55, 110
3, 2232, Note_off_c, 1, 55, 0
3, 2232, Note_on_c, 1, 59, 110
3, 2256, Note_off_c, 1, 59, 0
3, 2256, Note_on_c, 1, 50, 110
3, 2280, Note_off_c, 1, 50, 0
3, 2280, Note_on_c, 1, 55, 110
3, 2304, Note_off_c, 1, 55, 0
3, 2304, Note_on_c, 1, 47, 110
3, 2328, Note_off_c, 1, 47, 0
3, 2328, Note_on_c, 1, 50, 110
3, 2352, Note_off_c, 1, 50, 0
3, 2352, Note_on_c, 1, 43, 110
3, 2376, Note_off_c, 1, 43, 0
3, 2376, Note_on_c, 1, 47, 110
3, 2400, Note_off_c, 1, 47, 0
3, 2400, Note_on_c, 1, 50, 110
3, 2424, Note_off_c, 1, 50, 0
3, 2424, Note_on_c, 1, 55, 110
3, 2448, Note_off_c, 1, 55, 0
3, 2448, Note_on_c, 1, 47, 110
3, 2472, Note_off_c, 1, 47, 0
3, 2472, Note_on_c, 1, 50, 110
3, 2496, Note_off_c, 1, 50, 0
3, 2496, Note_on_c, 1, 43, 110
3, 2520, Note_off_c, 1, 43, 0
3, 2520, Note_on_c, 1, 47, 110
3, 2544, Note_off_c, 1, 47, 0
3, 2544, Note_on_c, 1, 38, 110
3, 2568, Note_off_c, 1, 38, 0
3, 2568, Note_on_c, 1, 43, 110
3, 2592, Note_off_c, 1, 43, 0
3, 2592, Note_on_c, 1, 47, 110
3, 2616, Note_off_c, 1, 47, 0
3, 2616, Note_on_c, 1, 43, 110
3, 2640, Note_off_c, 1, 43, 0
3, 2640, Note_on_c, 1, 47, 110
3, 2664, Note_off_c, 1, 47, 0
3, 2664, Note_on_c, 1, 50, 110
3, 2688, Note_off_c, 1, 50, 0
3, 2688, Note_on_c, 1, 47, 110
3, 2712, Note_off_c, 1, 47, 0
3, 2712, Note_on_c, 1, 50, 110
3, 2736, Note_off_c, 1, 50, 0
3, 2736, Note_on_c, 1, 55, 110
3, 2760, Note_off_c, 1, 55, 0
3, 2760, Note_on_c, 1, 50, 110
3, 2784, Note_off_c, 1, 50, 0
3, 2784, Note_on_c, 1, 55, 110
3, 2808, Note_off_c, 1, 55, 0
3, 2808, Note_on_c, 1, 59, 110
3, 2832, Note_off_c, 1, 59, 0
3, 2832, Note_on_c, 1, 55, 110
3, 2856, Note_off_c, 1, 55, 0
3, 2856, Note_on_c, 1, 59, 110
3, 2880, Note_off_c, 1, 59, 0
3, 3216, Note_on_c, 1, 59, 110
3, 3240, Note_off_c, 1, 59, 0
3, 3240, Note_on_c, 1, 57, 110
3, 3264, Note_off_c, 1, 57, 0
3, 3264, Note_on_c, 1, 59, 110
3, 3288, Note_off_c, 1, 59, 0
3, 3288, Note_on_c, 1, 60, 110
3, 3312, Note_off_c, 1, 60, 0
3, 3312, Note_on_c, 1, 59, 110
3, 3336, Note_off_c, 1, 59, 0
3, 3336, Note_on_c, 1, 60, 110
3, 3360, Note_off_c, 1, 60, 0
3, 3360, Note_on_c, 1, 62, 110
3, 3384, Note_off_c, 1, 62, 0
3, 3384, Note_on_c, 1, 64, 110
3, 3408, Note_off_c, 1, 64, 0
3, 3408, Note_on_c, 1, 62, 110
3, 3432, Note_off_c, 1, 62, 0
3, 3432, Note_on_c, 1, 64, 110
3, 3456, Note_off_c, 1, 64, 0
3, 3456, Note_on_c, 1, 60, 110
3, 3552, Note_off_c, 1, 60, 0
3, 3552, Note_on_c, 1, 60, 110
3, 3648, Note_off_c, 1, 60, 0
3, 3792, Note_on_c, 1, 62, 110
3, 3840, Note_off_c, 1, 62, 0
3, 3840, Note_on_c, 1, 62, 110
3, 3888, Note_off_c, 1, 62, 0
3, 3888, Note_on_c, 1, 62, 110
3, 3936, Note_off_c, 1, 62, 0
3, 3936, Note_on_c, 1, 62, 110
3, 3984, Note_off_c, 1, 62, 0
3, 3984, Note_on_c, 1, 62, 110
3, 4032, Note_off_c, 1, 62, 0
3, 4032, Note_on_c, 1, 62, 110
3, 4128, Note_off_c, 1, 62, 0
3, 4128, Note_on_c, 1, 62, 110
3, 4224, Note_off_c, 1, 62, 0
3, 4608, Note_on_c, 1, 64, 110
3, 4944, Note_off_c, 1, 64, 0
3, 4944, Note_on_c, 1, 64, 110
3, 4992, Note_off_c, 1, 64, 0
3, 4992, Note_on_c, 1, 62, 110
3, 5040, Note_off_c, 1, 62, 0
3, 5040, Note_on_c, 1, 66, 110
3, 5088, Note_off_c, 1, 66, 0
3, 5088, Note_on_c, 1, 62, 110
3, 5136, Note_off_c, 1, 62, 0
3, 5136, Note_on_c, 1, 60, 110
3, 5184, Note_off_c, 1, 60, 0
3, 5184, Note_on_c, 1, 62, 110
3, 5232, Note_off_c, 1, 62, 0
3, 5232, Note_on_c, 1, 60, 110
3, 5280, Note_off_c, 1, 60, 0
3, 5280, Note_on_c, 1, 62, 110
3, 5328, Note_off_c, 1, 62, 0
3, 5328, Note_on_c, 1, 62, 110
3, 5376, Note_off_c, 1, 62, 0
3, 5376, Note_on_c, 1, 57, 110
3, 5424, Note_off_c, 1, 57, 0
3, 5424, Note_on_c, 1, 55, 110
3, 5472, Note_off_c, 1, 55, 0
3, 5472, Note_on_c, 1, 54, 110
3, 5520, Note_off_c, 1, 54, 0
3, 5520, Note_on_c, 1, 57, 110
3, 5568, Note_off_c, 1, 57, 0
3, 5568, Note_on_c, 1, 62, 110
3, 5760, Note_off_c, 1, 62, 0
3, 5760, Note_on_c, 1, 67, 110
3, 5808, Note_off_c, 1, 67, 0
3, 5808, Note_on_c, 1, 67, 110
3, 5856, Note_off_c, 1, 67, 0
3, 5856, Note_on_c, 1, 67, 110
3, 5904, Note_off_c, 1, 67, 0
3, 5904, Note_on_c, 1, 67, 110
3, 5952, Note_off_c, 1, 67, 0
3, 5952, Note_on_c, 1, 67, 110
3, 6000, Note_off_c, 1, 67, 0
3, 6000, Note_on_c, 1, 66, 110
3, 6048, Note_off_c, 1, 66, 0
3, 6048, Note_on_c, 1, 67, 110
3, 6096, Note_off_c, 1, 67, 0
3, 6096, Note_on_c, 1, 64, 110
3, 6144, Note_off_c, 1, 64, 0
3, 6144, Note_on_c, 1, 61, 110
3, 6192, Note_off_c, 1, 61, 0
3, 6192, Note_on_c, 1, 61, 110
3, 6240, Note_off_c, 1, 61, 0
3, 6240, Note_on_c, 1, 69, 110
3, 6288, Note_off_c, 1, 69, 0
3, 6288, Note_on_c, 1, 69, 110
3, 6336, Note_off_c, 1, 69, 0
3, 6336, Note_on_c, 1, 62, 110
3, 6384, Note_off_c, 1, 62, 0
3, 6384, Note_on_c, 1, 67, 110
3, 6432, Note_off_c, 1, 67, 0
3, 6432, Note_on_c, 1, 67, 110
3, 6480, Note_off_c, 1, 67, 0
3, 6480, Note_on_c, 1, 67, 110
3, 6528, Note_off_c, 1, 67, 0
3, 6528, Note_on_c, 1, 67, 110
3, 6576, Note_off_c, 1, 67, 0
3, 6576, Note_on_c, 1, 67, 110
3, 6624, Note_off_c, 1, 67, 0
3, 6624, Note_on_c, 1, 69, 110
3, 6672, Note_off_c, 1, 69, 0
3, 6912, Note_on_c, 1, 66, 110
3, 6936, Note_off_c, 1, 66, 0
3, 6936, Note_on_c, 1, 69, 110
3, 6960, Note_off_c, 1, 69, 0
3, 6960, Note_on_c, 1, 62, 110
3, 6984, Note_off_c, 1, 62, 0
3, 6984, Note_on_c, 1, 66, 110
3, 7008, Note_off_c, 1, 66, 0
3, 7008, Note_on_c, 1, 57, 110
3, 7032, Note_off_c, 1, 57, 0
3, 7032, Note_on_c, 1, 67, 110
3, 7056, Note_off_c, 1, 67, 0
3, 7056, Note_on_c, 1, 66, 110
3, 7080, Note_off_c, 1, 66, 0
3, 7080, Note_on_c, 1, 64, 110
3, 7104, Note_off_c, 1, 64, 0
3, 7104, Note_on_c, 1, 62, 110
3, 7128, Note_off_c, 1, 62, 0
3, 7128, Note_on_c, 1, 61, 110
3, 7152, Note_off_c, 1, 61, 0
3, 7152, Note_on_c, 1, 59, 110
3, 7176, Note_off_c, 1, 59, 0
3, 7176, Note_on_c, 1, 57, 110
3, 7200, Note_off_c, 1, 57, 0
3, 7200, Note_on_c, 1, 56, 110
3, 7224, Note_off_c, 1, 56, 0
3, 7224, Note_on_c, 1, 59, 110
3, 7248, Note_off_c, 1, 59, 0
3, 7248, Note_on_c, 1, 50, 110
3, 7272, Note_off_c, 1, 50, 0
3, 7272, Note_on_c, 1, 53, 110
3, 7296, Note_off_c, 1, 53, 0
3, 7296, Note_on_c, 1, 47, 110
3, 7320, Note_off_c, 1, 47, 0
3, 7320, Note_on_c, 1, 50, 110
3, 7344, Note_off_c, 1, 50, 0
3, 7344, Note_on_c, 1, 53, 110
3, 7368, Note_off_c, 1, 53, 0
3, 7368, Note_on_c, 1, 57, 110
3, 7392, Note_off_c, 1, 57, 0
3, 7392, Note_on_c, 1, 56, 110
3, 7416, Note_off_c, 1, 56, 0
3, 7416, Note_on_c, 1, 59, 110
3, 7440, Note_off_c, 1, 59, 0
3, 7440, Note_on_c, 1, 52, 110
3, 7464, Note_off_c, 1, 52, 0
3, 7464, Note_on_c, 1, 50, 110
3, 7488, Note_off_c, 1, 50, 0
3, 7488, Note_on_c, 1, 49, 110
3, 7512, Note_off_c, 1, 49, 0
3, 7512, Note_on_c, 1, 45, 110
3, 7536, Note_off_c, 1, 45, 0
3, 7536, Note_on_c, 1, 47, 110
3, 7560, Note_off_c, 1, 47, 0
3, 7560, Note_on_c, 1, 49, 110
3, 7584, Note_off_c, 1, 49, 0
3, 7584, Note_on_c, 1, 50, 110
3, 7608, Note_off_c, 1, 50, 0
3, 7608, Note_on_c, 1, 52, 110
3, 7632, Note_off_c, 1, 52, 0
3, 7632, Note_on_c, 1, 50, 110
3, 7656, Note_off_c, 1, 50, 0
3, 7656, Note_on_c, 1, 52, 110
3, 7680, Note_off_c, 1, 52, 0
3, 7680, Note_on_c, 1, 54, 110
3, 7704, Note_off_c, 1, 54, 0
3, 7704, Note_on_c, 1, 57, 110
3, 7728, Note_off_c, 1, 57, 0
3, 7728, Note_on_c, 1, 55, 110
3, 7752, Note_off_c, 1, 55, 0
3, 7752, Note_on_c, 1, 59, 110
3, 7776, Note_off_c, 1, 59, 0
3, 7776, Note_on_c, 1, 57, 110
3, 7824, Note_off_c, 1, 57, 0
3, 7824, Note_on_c, 1, 59, 110
3, 7872, Note_off_c, 1, 59, 0
3, 7872, Note_on_c, 1, 61, 110
3, 7920, Note_off_c, 1, 61, 0
3, 7920, Note_on_c, 1, 62, 110
3, 7968, Note_off_c, 1, 62, 0
3, 7968, Note_on_c, 1, 57, 110
3, 8016, Note_off_c, 1, 57, 0
3, 8016, Note_on_c, 1, 57, 110
3, 8064, Note_off_c, 1, 57, 0
3, 8064, Note_on_c, 1, 57, 110
3, 8112, Note_off_c, 1, 57, 0
3, 8352, Note_on_c, 1, 57, 110
3, 8376, Note_off_c, 1, 57, 0
3, 8376, Note_on_c, 1, 62, 110
3, 8400, Note_off_c, 1, 62, 0
3, 8400, Note_on_c, 1, 61, 110
3, 8424, Note_off_c, 1, 61, 0
3, 8424, Note_on_c, 1, 59, 110
3, 8448, Note_off_c, 1, 59, 0
3, 8448, Note_on_c, 1, 57, 110
3, 8472, Note_off_c, 1, 57, 0
3, 8472, Note_on_c, 1, 55, 110
3, 8496, Note_off_c, 1, 55, 0
3, 8496, Note_on_c, 1, 54, 110
3, 8520, Note_off_c, 1, 54, 0
3, 8520, Note_on_c, 1, 52, 110
3, 8544, Note_off_c, 1, 52, 0
3, 8544, Note_on_c, 1, 54, 110
3, 8568, Note_off_c, 1, 54, 0
3, 8568, Note_on_c, 1, 57, 110
3, 8592, Note_off_c, 1, 57, 0
3, 8592, Note_on_c, 1, 50, 110
3, 8616, Note_off_c, 1, 50, 0
3, 8616, Note_on_c, 1, 54, 110
3, 8640, Note_off_c, 1, 54, 0
3, 8640, Note_on_c, 1, 57, 110
3, 8664, Note_off_c, 1, 57, 0
3, 8664, Note_on_c, 1, 62, 110
3, 8688, Note_off_c, 1, 62, 0
3, 8688, Note_on_c, 1, 54, 110
3, 8712, Note_off_c, 1, 54, 0
3, 8712, Note_on_c, 1, 57, 110
3, 8736, Note_off_c, 1, 57, 0
3, 8976, Note_on_c, 1, 66, 110
3, 9024, Note_off_c, 1, 66, 0
3, 9024, Note_on_c, 1, 66, 110
3, 9072, Note_off_c, 1, 66, 0
3, 9072, Note_on_c, 1, 66, 110
3, 9120, Note_off_c, 1, 66, 0
3, 9120, Note_on_c, 1, 66, 110
3, 9168, Note_off_c, 1, 66, 0
3, 9168, Note_on_c, 1, 66, 110
3, 9216, Note_off_c, 1, 66, 0
3, 9216, Note_on_c, 1, 64, 110
3, 9264, Note_off_c, 1, 64, 0
3, 9552, Note_on_c, 1, 64, 110
3, 9600, Note_off_c, 1, 64, 0
3, 9600, Note_on_c, 1, 64, 110
3, 9648, Note_off_c, 1, 64, 0
3, 9648, Note_on_c, 1, 64, 110
3, 9696, Note_off_c, 1, 64, 0
3, 9696, Note_on_c, 1, 64, 110
3, 9744, Note_off_c, 1, 64, 0
3, 9744, Note_on_c, 1, 64, 110
3, 9792, Note_off_c, 1, 64, 0
3, 9792, Note_on_c, 1, 64, 110
3, 9840, Note_off_c, 1, 64, 0
3, 10128, Note_on_c, 1, 62, 110
3, 10176, Note_off_c, 1, 62, 0
3, 10176, Note_on_c, 1, 62, 110
3, 10224, Note_off_c, 1, 62, 0
3, 10224, Note_on_c, 1, 62, 110
3, 10272, Note_off_c, 1, 62, 0
3, 10272, Note_on_c, 1, 62, 110
3, 10416, Note_off_c, 1, 62, 0
3, 10416, Note_on_c, 1, 59, 110
3, 10440, Note_off_c, 1, 59, 0
3, 10440, Note_on_c, 1, 60, 110
3, 10464, Note_off_c, 1, 60, 0
3, 10464, Note_on_c, 1, 62, 110
3, 10488, Note_off_c, 1, 62, 0
3, 10488, Note_on_c, 1, 64, 110
3, 10512, Note_off_c, 1, 64, 0
3, 10512, Note_on_c, 1, 66, 110
3, 10536, Note_off_c, 1, 66, 0
3, 10536, Note_on_c, 1, 67, 110
3, 10560, Note_off_c, 1, 67, 0
3, 10560, Note_on_c, 1, 69, 110
3, 10584, Note_off_c, 1, 69, 0
3, 10584, Note_on_c, 1, 71, 110
3, 10608, Note_off_c, 1, 71, 0
3, 10608, Note_on_c, 1, 72, 110
3, 10632, Note_off_c, 1, 72, 0
3, 10632, Note_on_c, 1, 66, 110
3, 10656, Note_off_c, 1, 66, 0
3, 10656, Note_on_c, 1, 55, 110
3, 10752, Note_off_c, 1, 55, 0
3, 10800, Note_on_c, 1, 66, 110
3, 10848, Note_off_c, 1, 66, 0
3, 10848, Note_on_c, 1, 64, 110
3, 10896, Note_off_c, 1, 64, 0
3, 10896, Note_on_c, 1, 62, 110
3, 10944, Note_off_c, 1, 62, 0
3, 10944, Note_on_c, 1, 61, 110
3, 11040, Note_off_c, 1, 61, 0
3, 11520, Note_on_c, 1, 58, 110
3, 11616, Note_off_c, 1, 58, 0
3, 11712, Note_on_c, 1, 58, 110
3, 11736, Note_off_c, 1, 58, 0
3, 11736, Note_on_c, 1, 55, 110
3, 11760, Note_off_c, 1, 55, 0
3, 11760, Note_on_c, 1, 54, 110
3, 11784, Note_off_c, 1, 54, 0
3, 11784, Note_on_c, 1, 52, 110
3, 11808, Note_off_c, 1, 52, 0
3, 11808, Note_on_c, 1, 50, 110
3, 11856, Note_off_c, 1, 50, 0
3, 11856, Note_on_c, 1, 62, 110
3, 11904, Note_off_c, 1, 62, 0
3, 11904, Note_on_c, 1, 64, 110
3, 11952, Note_off_c, 1, 64, 0
3, 11952, Note_on_c, 1, 64, 110
3, 12000, Note_off_c, 1, 64, 0
3, 12000, Note_on_c, 1, 62, 110
3, 12048, Note_off_c, 1, 62, 0
3, 12048, Note_on_c, 1, 64, 110
3, 12096, Note_off_c, 1, 64, 0
3, 12096, Note_on_c, 1, 62, 110
3, 12144, Note_off_c, 1, 62, 0
3, 12144, Note_on_c, 1, 61, 110
3, 12192, Note_off_c, 1, 61, 0
3, 12192, Note_on_c, 1, 62, 110
3, 12240, Note_off_c, 1, 62, 0
3, 12240, Note_on_c, 1, 58, 110
3, 12288, Note_off_c, 1, 58, 0
3, 12288, Note_on_c, 1, 59, 110
3, 12336, Note_off_c, 1, 59, 0
3, 12336, Note_on_c, 1, 61, 110
3, 12384, Note_off_c, 1, 61, 0
3, 12384, Note_on_c, 1, 62, 110
3, 12432, Note_off_c, 1, 62, 0
3, 12432, Note_on_c, 1, 61, 110
3, 12480, Note_off_c, 1, 61, 0
3, 12480, Note_on_c, 1, 62, 110
3, 12528, Note_off_c, 1, 62, 0
3, 12528, Note_on_c, 1, 61, 110
3, 12576, Note_off_c, 1, 61, 0
3, 12576, Note_on_c, 1, 62, 110
3, 12624, Note_off_c, 1, 62, 0
3, 12624, Note_on_c, 1, 64, 110
3, 12672, Note_off_c, 1, 64, 0
3, 12672, Note_on_c, 1, 66, 110
3, 12720, Note_off_c, 1, 66, 0
3, 12720, Note_on_c, 1, 62, 110
3, 12768, Note_off_c, 1, 62, 0
3, 12768, Note_on_c, 1, 64, 110
3, 12816, Note_off_c, 1, 64, 0
3, 12816, Note_on_c, 1, 64, 110
3, 12864, Note_off_c, 1, 64, 0
3, 12864, Note_on_c, 1, 62, 110
3, 12912, Note_off_c, 1, 62, 0
3, 12912, Note_on_c, 1, 61, 110
3, 12954, Note_off_c, 1, 61, 0
3, 12960, Note_on_c, 1, 62, 110
3, 13008, Note_off_c, 1, 62, 0
3, 13248, Note_on_c, 1, 59, 110
3, 13560, Note_off_c, 1, 59, 0
3, 13560, Note_on_c, 1, 57, 110
3, 13584, Note_off_c, 1, 57, 0
3, 13584, Note_on_c, 1, 56, 110
3, 13608, Note_off_c, 1, 56, 0
3, 13608, Note_on_c, 1, 57, 110
3, 13632, Note_off_c, 1, 57, 0
3, 13632, Note_on_c, 1, 59, 110
3, 13656, Note_off_c, 1, 59, 0
3, 13656, Note_on_c, 1, 60, 110
3, 13680, Note_off_c, 1, 60, 0
3, 13680, Note_on_c, 1, 62, 110
3, 13704, Note_off_c, 1, 62, 0
3, 13704, Note_on_c, 1, 60, 110
3, 13728, Note_off_c, 1, 60, 0
3, 13728, Note_on_c, 1, 59, 110
3, 13752, Note_off_c, 1, 59, 0
3, 13752, Note_on_c, 1, 57, 110
3, 13776, Note_off_c, 1, 57, 0
3, 13776, Note_on_c, 1, 59, 110
3, 13800, Note_off_c, 1, 59, 0
3, 13800, Note_on_c, 1, 56, 110
3, 13824, Note_off_c, 1, 56, 0
3, 13824, Note_on_c, 1, 64, 110
3, 13920, Note_off_c, 1, 64, 0
3, 13968, Note_on_c, 1, 57, 110
3, 14016, Note_off_c, 1, 57, 0
3, 14016, Note_on_c, 1, 57, 110
3, 14064, Note_off_c, 1, 57, 0
3, 14064, Note_on_c, 1, 57, 110
3, 14112, Note_off_c, 1, 57, 0
3, 14112, Note_on_c, 1, 62, 110
3, 14208, Note_off_c, 1, 62, 0
3, 14400, Note_on_c, 1, 57, 110
3, 14688, Note_off_c, 1, 57, 0
3, 14688, Note_on_c, 1, 62, 110
3, 14784, Note_off_c, 1, 62, 0
3, 14784, Note_on_c, 1, 57, 110
3, 14808, Note_off_c, 1, 57, 0
3, 14808, Note_on_c, 1, 59, 110
3, 14832, Note_off_c, 1, 59, 0
3, 14832, Note_on_c, 1, 60, 110
3, 14856, Note_off_c, 1, 60, 0
3, 14856, Note_on_c, 1, 59, 110
3, 14880, Note_off_c, 1, 59, 0
3, 14880, Note_on_c, 1, 57, 110
3, 14904, Note_off_c, 1, 57, 0
3, 14904, Note_on_c, 1, 55, 110
3, 14928, Note_off_c, 1, 55, 0
3, 14928, Note_on_c, 1, 57, 110
3, 14952, Note_off_c, 1, 57, 0
3, 14952, Note_on_c, 1, 54, 110
3, 14976, Note_off_c, 1, 54, 0
3, 14976, Note_on_c, 1, 55, 110
3, 15000, Note_off_c, 1, 55, 0
3, 15000, Note_on_c, 1, 50, 110
3, 15024, Note_off_c, 1, 50, 0
3, 15024, Note_on_c, 1, 47, 110
3, 15048, Note_off_c, 1, 47, 0
3, 15048, Note_on_c, 1, 50, 110
3, 15072, Note_off_c, 1, 50, 0
3, 15096, Note_on_c, 1, 50, 110
3, 15120, Note_off_c, 1, 50, 0
3, 15120, Note_on_c, 1, 52, 110
3, 15144, Note_off_c, 1, 52, 0
3, 15144, Note_on_c, 1, 54, 110
3, 15168, Note_off_c, 1, 54, 0
3, 15168, Note_on_c, 1, 55, 110
3, 15192, Note_off_c, 1, 55, 0
3, 15192, Note_on_c, 1, 57, 110
3, 15216, Note_off_c, 1, 57, 0
3, 15216, Note_on_c, 1, 59, 110
3, 15240, Note_off_c, 1, 59, 0
3, 15240, Note_on_c, 1, 55, 110
3, 15264, Note_off_c, 1, 55, 0
3, 15264, Note_on_c, 1, 60, 110
3, 15288, Note_off_c, 1, 60, 0
3, 15288, Note_on_c, 1, 62, 110
3, 15312, Note_off_c, 1, 62, 0
3, 15312, Note_on_c, 1, 60, 110
3, 15336, Note_off_c, 1, 60, 0
3, 15336, Note_on_c, 1, 59, 110
3, 15360, Note_off_c, 1, 59, 0
3, 15360, Note_on_c, 1, 57, 110
3, 15384, Note_off_c, 1, 57, 0
3, 15384, Note_on_c, 1, 55, 110
3, 15408, Note_off_c, 1, 55, 0
3, 15408, Note_on_c, 1, 54, 110
3, 15432, Note_off_c, 1, 54, 0
3, 15432, Note_on_c, 1, 52, 110
3, 15456, Note_off_c, 1, 52, 0
3, 15456, Note_on_c, 1, 50, 110
3, 15480, Note_off_c, 1, 50, 0
3, 15480, Note_on_c, 1, 48, 110
3, 15504, Note_off_c, 1, 48, 0
3, 15504, Note_on_c, 1, 47, 110
3, 15528, Note_off_c, 1, 47, 0
3, 15528, Note_on_c, 1, 45, 110
3, 15552, Note_off_c, 1, 45, 0
3, 15552, Note_on_c, 1, 43, 110
3, 15576, Note_off_c, 1, 43, 0
3, 15576, Note_on_c, 1, 50, 110
3, 15600, Note_off_c, 1, 50, 0
3, 15600, Note_on_c, 1, 52, 110
3, 15624, Note_off_c, 1, 52, 0
3, 15624, Note_on_c, 1, 53, 110
3, 15648, Note_off_c, 1, 53, 0
3, 15648, Note_on_c, 1, 55, 110
3, 15672, Note_off_c, 1, 55, 0
3, 15672, Note_on_c, 1, 57, 110
3, 15696, Note_off_c, 1, 57, 0
3, 15696, Note_on_c, 1, 59, 110
3, 15720, Note_off_c, 1, 59, 0
3, 15720, Note_on_c, 1, 60, 110
3, 15744, Note_off_c, 1, 60, 0
3, 15744, Note_on_c, 1, 59, 110
3, 15768, Note_off_c, 1, 59, 0
3, 15768, Note_on_c, 1, 57, 110
3, 15792, Note_off_c, 1, 57, 0
3, 15792, Note_on_c, 1, 55, 110
3, 15816, Note_off_c, 1, 55, 0
3, 15816, Note_on_c, 1, 57, 110
3, 15840, Note_off_c, 1, 57, 0
3, 15840, Note_on_c, 1, 58, 110
3, 15864, Note_off_c, 1, 58, 0
3, 15864, Note_on_c, 1, 57, 110
3, 15888, Note_off_c, 1, 57, 0
3, 15888, Note_on_c, 1, 55, 110
3, 15912, Note_off_c, 1, 55, 0
3, 15912, Note_on_c, 1, 54, 110
3, 15936, Note_off_c, 1, 54, 0
3, 15936, Note_on_c, 1, 55, 110
3, 15960, Note_off_c, 1, 55, 0
3, 15960, Note_on_c, 1, 57, 110
3, 15984, Note_off_c, 1, 57, 0
3, 15984, Note_on_c, 1, 58, 110
3, 16008, Note_off_c, 1, 58, 0
3, 16008, Note_on_c, 1, 57, 110
3, 16032, Note_off_c, 1, 57, 0
3, 16032, Note_on_c, 1, 55, 110
3, 16056, Note_off_c, 1, 55, 0
3, 16056, Note_on_c, 1, 58, 110
3, 16080, Note_off_c, 1, 58, 0
3, 16080, Note_on_c, 1, 57, 110
3, 16104, Note_off_c, 1, 57, 0
3, 16104, Note_on_c, 1, 55, 110
3, 16128, Note_off_c, 1, 55, 0
3, 16128, Note_on_c, 1, 57, 110
3, 16176, Note_off_c, 1, 57, 0
3, 16176, Note_on_c, 1, 50, 110
3, 16224, Note_off_c, 1, 50, 0
3, 16416, Note_on_c, 1, 55, 110
3, 16512, Note_off_c, 1, 55, 0
3, 16536, Note_on_c, 1, 62, 110
3, 16560, Note_off_c, 1, 62, 0
3, 16560, Note_on_c, 1, 60, 110
3, 16584, Note_off_c, 1, 60, 0
3, 16584, Note_on_c, 1, 59, 110
3, 16608, Note_off_c, 1, 59, 0
3, 16608, Note_on_c, 1, 57, 110
3, 16632, Note_off_c, 1, 57, 0
3, 16632, Note_on_c, 1, 60, 110
3, 16656, Note_off_c, 1, 60, 0
3, 16656, Note_on_c, 1, 59, 110
3, 16680, Note_off_c, 1, 59, 0
3, 16680, Note_on_c, 1, 57, 110
3, 16704, Note_off_c, 1, 57, 0
3, 16704, Note_on_c, 1, 59, 110
3, 16800, Note_off_c, 1, 59, 0
3, 16848, Note_on_c, 1, 55, 110
3, 16896, Note_off_c, 1, 55, 0
3, 16896, Note_on_c, 1, 55, 110
3, 16944, Note_off_c, 1, 55, 0
3, 16944, Note_on_c, 1, 55, 110
3, 16992, Note_off_c, 1, 55, 0
3, 16992, Note_on_c, 1, 54, 110
3, 17088, Note_off_c, 1, 54, 0
3, 17136, Note_on_c, 1, 54, 110
3, 17184, Note_off_c, 1, 54, 0
3, 17184, Note_on_c, 1, 57, 110
3, 17232, Note_off_c, 1, 57, 0
3, 17232, Note_on_c, 1, 54, 110
3, 17280, Note_off_c, 1, 54, 0
3, 17280, Note_on_c, 1, 55, 110
3, 17328, Note_off_c, 1, 55, 0
3, 17424, Note_on_c, 1, 62, 110
3, 17472, Note_off_c, 1, 62, 0
3, 17472, Note_on_c, 1, 67, 110
3, 17520, Note_off_c, 1, 67, 0
3, 17520, Note_on_c, 1, 65, 110
3, 17568, Note_off_c, 1, 65, 0
3, 17568, Note_on_c, 1, 64, 110
3, 17664, Note_off_c, 1, 64, 0
3, 17712, Note_on_c, 1, 64, 110
3, 17760, Note_off_c, 1, 64, 0
3, 17760, Note_on_c, 1, 62, 110
3, 17808, Note_off_c, 1, 62, 0
3, 17808, Note_on_c, 1, 64, 110
3, 17856, Note_off_c, 1, 64, 0
3, 17856, Note_on_c, 1, 66, 110
3, 17880, Note_off_c, 1, 66, 0
3, 17880, Note_on_c, 1, 64, 110
3, 17904, Note_off_c, 1, 64, 0
3, 17904, Note_on_c, 1, 66, 110
3, 17928, Note_off_c, 1, 66, 0
3, 17928, Note_on_c, 1, 67, 110
3, 17952, Note_off_c, 1, 67, 0
3, 17952, Note_on_c, 1, 66, 110
3, 17976, Note_off_c, 1, 66, 0
3, 17976, Note_on_c, 1, 69, 110
3, 18000, Note_off_c, 1, 69, 0
3, 18000, Note_on_c, 1, 62, 110
3, 18024, Note_off_c, 1, 62, 0
3, 18024, Note_on_c, 1, 69, 110
3, 18048, Note_off_c, 1, 69, 0
3, 18048, Note_on_c, 1, 64, 110
3, 18072, Note_off_c, 1, 64, 0
3, 18072, Note_on_c, 1, 69, 110
3, 18096, Note_off_c, 1, 69, 0
3, 18096, Note_on_c, 1, 66, 110
3, 18120, Note_off_c, 1, 66, 0
3, 18120, Note_on_c, 1, 69, 110
3, 18144, Note_off_c, 1, 69, 0
3, 18144, Note_on_c, 1, 67, 110
3, 18168, Note_off_c, 1, 67, 0
3, 18168, Note_on_c, 1, 66, 110
3, 18192, Note_off_c, 1, 66, 0
3, 18192, Note_on_c, 1, 67, 110
3, 18216, Note_off_c, 1, 67, 0
3, 18216, Note_on_c, 1, 69, 110
3, 18240, Note_off_c, 1, 69, 0
3, 18240, Note_on_c, 1, 67, 110
3, 18264, Note_off_c, 1, 67, 0
3, 18264, Note_on_c, 1, 71, 110
3, 18288, Note_off_c, 1, 71, 0
3, 18288, Note_on_c, 1, 64, 110
3, 18312, Note_off_c, 1, 64, 0
3, 18312, Note_on_c, 1, 71, 110
3, 18336, Note_off_c, 1, 71, 0
3, 18336, Note_on_c, 1, 66, 110
3, 18360, Note_off_c, 1, 66, 0
3, 18360, Note_on_c, 1, 71, 110
3, 18384, Note_off_c, 1, 71, 0
3, 18384, Note_on_c, 1, 67, 110
3, 18408, Note_off_c, 1, 67, 0
3, 18408, Note_on_c, 1, 71, 110
3, 18432, Note_off_c, 1, 71, 0
3, 18432, Note_on_c, 1, 69, 110
3, 18456, Note_off_c, 1, 69, 0
3, 18456, Note_on_c, 1, 67, 110
3, 18480, Note_off_c, 1, 67, 0
3, 18480, Note_on_c, 1, 69, 110
3, 18504, Note_off_c, 1, 69, 0
3, 18504, Note_on_c, 1, 71, 110
3, 18528, Note_off_c, 1, 71, 0
3, 18528, Note_on_c, 1, 69, 110
3, 18552, Note_off_c, 1, 69, 0
3, 18552, Note_on_c, 1, 72, 110
3, 18576, Note_off_c, 1, 72, 0
3, 18576, Note_on_c, 1, 67, 110
3, 18600, Note_off_c, 1, 67, 0
3, 18600, Note_on_c, 1, 72, 110
3, 18624, Note_off_c, 1, 72, 0
3, 18624, Note_on_c, 1, 66, 110
3, 18648, Note_off_c, 1, 66, 0
3, 18648, Note_on_c, 1, 72, 110
3, 18672, Note_off_c, 1, 72, 0
3, 18672, Note_on_c, 1, 64, 110
3, 18696, Note_off_c, 1, 64, 0
3, 18696, Note_on_c, 1, 72, 110
3, 18720, Note_off_c, 1, 72, 0
3, 18720, Note_on_c, 1, 62, 110
3, 18744, Note_off_c, 1, 62, 0
3, 18744, Note_on_c, 1, 71, 110
3, 18768, Note_off_c, 1, 71, 0
3, 18768, Note_on_c, 1, 69, 110
3, 18792, Note_off_c, 1, 69, 0
3, 18792, Note_on_c, 1, 71, 110
3, 18816, Note_off_c, 1, 71, 0
3, 18816, Note_on_c, 1, 67, 110
3, 18840, Note_off_c, 1, 67, 0
3, 18840, Note_on_c, 1, 71, 110
3, 18864, Note_off_c, 1, 71, 0
3, 18864, Note_on_c, 1, 66, 110
3, 18888, Note_off_c, 1, 66, 0
3, 18888, Note_on_c, 1, 71, 110
3, 18912, Note_off_c, 1, 71, 0
3, 18912, Note_on_c, 1, 66, 110
3, 18936, Note_off_c, 1, 66, 0
3, 18936, Note_on_c, 1, 71, 110
3, 18960, Note_off_c, 1, 71, 0
3, 18960, Note_on_c, 1, 64, 110
3, 18984, Note_off_c, 1, 64, 0
3, 18984, Note_on_c, 1, 71, 110
3, 19008, Note_off_c, 1, 71, 0
3, 19008, Note_on_c, 1, 62, 110
3, 19032, Note_off_c, 1, 62, 0
3, 19032, Note_on_c, 1, 69, 110
3, 19056, Note_off_c, 1, 69, 0
3, 19056, Note_on_c, 1, 67, 110
3, 19080, Note_off_c, 1, 67, 0
3, 19080, Note_on_c, 1, 69, 110
3, 19104, Note_off_c, 1, 69, 0
3, 19104, Note_on_c, 1, 66, 110
3, 19128, Note_off_c, 1, 66, 0
3, 19128, Note_on_c, 1, 69, 110
3, 19152, Note_off_c, 1, 69, 0
3, 19152, Note_on_c, 1, 64, 110
3, 19176, Note_off_c, 1, 64, 0
3, 19176, Note_on_c, 1, 69, 110
3, 19200, Note_off_c, 1, 69, 0
3, 19200, Note_on_c, 1, 62, 110
3, 19224, Note_off_c, 1, 62, 0
3, 19224, Note_on_c, 1, 69, 110
3, 19248, Note_off_c, 1, 69, 0
3, 19248, Note_on_c, 1, 60, 110
3, 19272, Note_off_c, 1, 60, 0
3, 19272, Note_on_c, 1, 69, 110
3, 19296, Note_off_c, 1, 69, 0
3, 19296, Note_on_c, 1, 58, 110
3, 19320, Note_off_c, 1, 58, 0
3, 19320, Note_on_c, 1, 67, 110
3, 19344, Note_off_c, 1, 67, 0
3, 19344, Note_on_c, 1, 66, 110
3, 19368, Note_off_c, 1, 66, 0
3, 19368, Note_on_c, 1, 67, 110
3, 19392, Note_off_c, 1, 67, 0
3, 19392, Note_on_c, 1, 64, 110
3, 19416, Note_off_c, 1, 64, 0
3, 19416, Note_on_c, 1, 67, 110
3, 19440, Note_off_c, 1, 67, 0
3, 19440, Note_on_c, 1, 62, 110
3, 19464, Note_off_c, 1, 62, 0
3, 19464, Note_on_c, 1, 67, 110
3, 19488, Note_off_c, 1, 67, 0
3, 19488, Note_on_c, 1, 61, 110
3, 19512, Note_off_c, 1, 61, 0
3, 19512, Note_on_c, 1, 67, 110
3, 19536, Note_off_c, 1, 67, 0
3, 19536, Note_on_c, 1, 58, 110
3, 19560, Note_off_c, 1, 58, 0
3, 19560, Note_on_c, 1, 61, 110
3, 19584, Note_off_c, 1, 61, 0
3, 19584, Note_on_c, 1, 57, 110
3, 19632, Note_off_c, 1, 57, 0
3, 19704, Note_on_c, 1, 60, 110
3, 19728, Note_off_c, 1, 60, 0
3, 19728, Note_on_c, 1, 57, 110
3, 19752, Note_off_c, 1, 57, 0
3, 19752, Note_on_c, 1, 54, 110
3, 19776, Note_off_c, 1, 54, 0
3, 19776, Note_on_c, 1, 50, 110
3, 19824, Note_off_c, 1, 50, 0
3, 19824, Note_on_c, 1, 52, 110
3, 19848, Note_off_c, 1, 52, 0
3, 19848, Note_on_c, 1, 54, 110
3, 19872, Note_off_c, 1, 54, 0
3, 19872, Note_on_c, 1, 55, 110
3, 19896, Note_off_c, 1, 55, 0
3, 19896, Note_on_c, 1, 54, 110
3, 19920, Note_off_c, 1, 54, 0
3, 19920, Note_on_c, 1, 55, 110
3, 19944, Note_off_c, 1, 55, 0
3, 19944, Note_on_c, 1, 57, 110
3, 19968, Note_off_c, 1, 57, 0
3, 19968, Note_on_c, 1, 59, 110
3, 19992, Note_off_c, 1, 59, 0
3, 19992, Note_on_c, 1, 57, 110
3, 20016, Note_off_c, 1, 57, 0
3, 20016, Note_on_c, 1, 59, 110
3, 20040, Note_off_c, 1, 59, 0
3, 20040, Note_on_c, 1, 60, 110
3, 20064, Note_off_c, 1, 60, 0
3, 20064, Note_on_c, 1, 62, 110
3, 20088, Note_off_c, 1, 62, 0
3, 20088, Note_on_c, 1, 60, 110
3, 20112, Note_off_c, 1, 60, 0
3, 20112, Note_on_c, 1, 59, 110
3, 20136, Note_off_c, 1, 59, 0
3, 20136, Note_on_c, 1, 57, 110
3, 20160, Note_off_c, 1, 57, 0
3, 20160, Note_on_c, 1, 55, 110
3, 20184, Note_off_c, 1, 55, 0
3, 20184, Note_on_c, 1, 65, 110
3, 20208, Note_off_c, 1, 65, 0
3, 20208, Note_on_c, 1, 64, 110
3, 20232, Note_off_c, 1, 64, 0
3, 20232, Note_on_c, 1, 62, 110
3, 20256, Note_off_c, 1, 62, 0
3, 20256, Note_on_c, 1, 60, 110
3, 20472, Note_off_c, 1, 60, 0
3, 20472, Note_on_c, 1, 67, 110
3, 20496, Note_off_c, 1, 67, 0
3, 20496, Note_on_c, 1, 66, 110
3, 20520, Note_off_c, 1, 66, 0
3, 20520, Note_on_c, 1, 64, 110
3, 20544, Note_off_c, 1, 64, 0
3, 20544, Note_on_c, 1, 59, 110
3, 20784, Note_off_c, 1, 59, 0
3, 20784, Note_on_c, 1, 52, 110
3, 20832, Note_off_c, 1, 52, 0
3, 20832, Note_on_c, 1, 57, 110
3, 21120, Note_off_c, 1, 57, 0
3, 21600, Note_on_c, 1, 61, 110
3, 21624, Note_off_c, 1, 61, 0
3, 21624, Note_on_c, 1, 64, 110
3, 21648, Note_off_c, 1, 64, 0
3, 21648, Note_on_c, 1, 55, 110
3, 21672, Note_off_c, 1, 55, 0
3, 21672, Note_on_c, 1, 58, 110
3, 21696, Note_off_c, 1, 58, 0
3, 21696, Note_on_c, 1, 52, 110
3, 21720, Note_off_c, 1, 52, 0
3, 21720, Note_on_c, 1, 55, 110
3, 21744, Note_off_c, 1, 55, 0
3, 21744, Note_on_c, 1, 58, 110
3, 21768, Note_off_c, 1, 58, 0
3, 21768, Note_on_c, 1, 62, 110
3, 21792, Note_off_c, 1, 62, 0
3, 21792, Note_on_c, 1, 61, 110
3, 21816, Note_off_c, 1, 61, 0
3, 21816, Note_on_c, 1, 64, 110
3, 21840, Note_off_c, 1, 64, 0
3, 21840, Note_on_c, 1, 57, 110
3, 21864, Note_off_c, 1, 57, 0
3, 21864, Note_on_c, 1, 55, 110
3, 21888, Note_off_c, 1, 55, 0
3, 21888, Note_on_c, 1, 54, 110
3, 21936, Note_off_c, 1, 54, 0
3, 21936, Note_on_c, 1, 60, 110
3, 21984, Note_off_c, 1, 60, 0
3, 21984, Note_on_c, 1, 59, 110
3, 22032, Note_off_c, 1, 59, 0
3, 22032, Note_on_c, 1, 60, 110
3, 22080, Note_off_c, 1, 60, 0
3, 22080, Note_on_c, 1, 59, 110
3, 22128, Note_off_c, 1, 59, 0
3, 22128, Note_on_c, 1, 57, 110
3, 22176, Note_off_c, 1, 57, 0
3, 22176, Note_on_c, 1, 55, 110
3, 22272, Note_off_c, 1, 55, 0
3, 22320, Note_on_c, 1, 55, 110
3, 22368, Note_off_c, 1, 55, 0
3, 22368, Note_on_c, 1, 62, 110
3, 22416, Note_off_c, 1, 62, 0
3, 22416, Note_on_c, 1, 57, 110
3, 22464, Note_off_c, 1, 57, 0
3, 22464, Note_on_c, 1, 55, 110
3, 22488, Note_off_c, 1, 55, 0
3, 22488, Note_on_c, 1, 54, 110
3, 22512, Note_off_c, 1, 54, 0
3, 22512, Note_on_c, 1, 55, 110
3, 22536, Note_off_c, 1, 55, 0
3, 22536, Note_on_c, 1, 57, 110
3, 22560, Note_off_c, 1, 57, 0
3, 22560, Note_on_c, 1, 55, 110
3, 22584, Note_off_c, 1, 55, 0
3, 22584, Note_on_c, 1, 59, 110
3, 22608, Note_off_c, 1, 59, 0
3, 22608, Note_on_c, 1, 50, 110
3, 22632, Note_off_c, 1, 50, 0
3, 22632, Note_on_c, 1, 59, 110
3, 22656, Note_off_c, 1, 59, 0
3, 22656, Note_on_c, 1, 52, 110
3, 22680, Note_off_c, 1, 52, 0
3, 22680, Note_on_c, 1, 59, 110
3, 22704, Note_off_c, 1, 59, 0
3, 22704, Note_on_c, 1, 54, 110
3, 22728, Note_off_c, 1, 54, 0
3, 22728, Note_on_c, 1, 59, 110
3, 22752, Note_off_c, 1, 59, 0
3, 22752, Note_on_c, 1, 55, 110
3, 22776, Note_off_c, 1, 55, 0
3, 22776, Note_on_c, 1, 54, 110
3, 22800, Note_off_c, 1, 54, 0
3, 22800, Note_on_c, 1, 55, 110
3, 22824, Note_off_c, 1, 55, 0
3, 22824, Note_on_c, 1, 57, 110
3, 22848, Note_off_c, 1, 57, 0
3, 22848, Note_on_c, 1, 55, 110
3, 22872, Note_off_c, 1, 55, 0
3, 22872, Note_on_c, 1, 60, 110
3, 22896, Note_off_c, 1, 60, 0
3, 22896, Note_on_c, 1, 54, 110
3, 22920, Note_off_c, 1, 54, 0
3, 22920, Note_on_c, 1, 62, 118
3, 22944, Note_off_c, 1, 62, 0
3, 22944, Note_on_c, 1, 55, 110
3, 22968, Note_off_c, 1, 55, 0
3, 22968, Note_on_c, 1, 64, 118
3, 22992, Note_off_c, 1, 64, 0
3, 22992, Note_on_c, 1, 57, 110
3, 23016, Note_off_c, 1, 57, 0
3, 23016, Note_on_c, 1, 66, 127
3, 23040, Note_off_c, 1, 66, 0
3, 23088, Note_on_c, 1, 55, 110
3, 23124, Note_off_c, 1, 55, 0
3, 23136, Note_on_c, 1, 55, 110
3, 23178, Note_off_c, 1, 55, 0
3, 23184, Note_on_c, 1, 60, 110
3, 23226, Note_off_c, 1, 60, 0
3, 23232, Note_on_c, 1, 59, 110
3, 23268, Note_off_c, 1, 59, 0
3, 23280, Note_on_c, 1, 57, 110
3, 23316, Note_off_c, 1, 57, 0
3, 23328, Note_on_c, 1, 55, 110
3, 23520, Note_off_c, 1, 55, 0
3, 25008, Note_on_c, 1, 55, 93
3, 25056, Note_off_c, 1, 55, 0
3, 25056, Note_on_c, 1, 55, 93
3, 25104, Note_off_c, 1, 55, 0
3, 25104, Note_on_c, 1, 55, 93
3, 25152, Note_off_c, 1, 55, 0
3, 25152, Note_on_c, 1, 62, 93
3, 25200, Note_off_c, 1, 62, 0
3, 25200, Note_on_c, 1, 62, 93
3, 25248, Note_off_c, 1, 62, 0
3, 25248, Note_on_c, 1, 62, 93
3, 25296, Note_off_c, 1, 62, 0
3, 25296, Note_on_c, 1, 62, 93
3, 25344, Note_off_c, 1, 62, 0
3, 25344, Note_on_c, 1, 62, 93
3, 25392, Note_off_c, 1, 62, 0
3, 25392, Note_on_c, 1, 61, 93
3, 25416, Note_off_c, 1, 61, 0
3, 25416, Note_on_c, 1, 59, 93
3, 25440, Note_off_c, 1, 59, 0
3, 25440, Note_on_c, 1, 61, 93
3, 25488, Note_off_c, 1, 61, 0
3, 25488, Note_on_c, 1, 57, 93
3, 25536, Note_off_c, 1, 57, 0
3, 25536, Note_on_c, 1, 66, 93
3, 25584, Note_off_c, 1, 66, 0
3, 25584, Note_on_c, 1, 66, 93
3, 25632, Note_off_c, 1, 66, 0
3, 25632, Note_on_c, 1, 66, 93
3, 25680, Note_off_c, 1, 66, 0
3, 25680, Note_on_c, 1, 66, 93
3, 25728, Note_off_c, 1, 66, 0
3, 25728, Note_on_c, 1, 66, 93
3, 25776, Note_off_c, 1, 66, 0
3, 25776, Note_on_c, 1, 64, 93
3, 25800, Note_off_c, 1, 64, 0
3, 25800, Note_on_c, 1, 62, 93
3, 25824, Note_off_c, 1, 62, 0
3, 25824, Note_on_c, 1, 64, 93
3, 25872, Note_off_c, 1, 64, 0
3, 25872, Note_on_c, 1, 64, 93
3, 25920, Note_off_c, 1, 64, 0
3, 25920, Note_on_c, 1, 64, 93
3, 25968, Note_off_c, 1, 64, 0
3, 25968, Note_on_c, 1, 57, 93
3, 26016, Note_off_c, 1, 57, 0
3, 26016, Note_on_c, 1, 62, 93
3, 26160, Note_off_c, 1, 62, 0
3, 26160, Note_on_c, 1, 64, 93
3, 26184, Note_off_c, 1, 64, 0
3, 26184, Note_on_c, 1, 62, 93
3, 26208, Note_off_c, 1, 62, 0
3, 26208, Note_on_c, 1, 61, 93
3, 26232, Note_off_c, 1, 61, 0
3, 26232, Note_on_c, 1, 62, 93
3, 26256, Note_off_c, 1, 62, 0
3, 26256, Note_on_c, 1, 59, 93
3, 26280, Note_off_c, 1, 59, 0
3, 26280, Note_on_c, 1, 61, 93
3, 26304, Note_off_c, 1, 61, 0
3, 26304, Note_on_c, 1, 62, 93
3, 26328, Note_off_c, 1, 62, 0
3, 26328, Note_on_c, 1, 61, 93
3, 26352, Note_off_c, 1, 61, 0
3, 26352, Note_on_c, 1, 62, 93
3, 26376, Note_off_c, 1, 62, 0
3, 26376, Note_on_c, 1, 64, 93
3, 26400, Note_off_c, 1, 64, 0
3, 26400, Note_on_c, 1, 62, 93
3, 26424, Note_off_c, 1, 62, 0
3, 26424, Note_on_c, 1, 64, 93
3, 26448, Note_off_c, 1, 64, 0
3, 26448, Note_on_c, 1, 62, 93
3, 26472, Note_off_c, 1, 62, 0
3, 26472, Note_on_c, 1, 60, 93
3, 26496, Note_off_c, 1, 60, 0
3, 26496, Note_on_c, 1, 59, 93
3, 26520, Note_off_c, 1, 59, 0
3, 26520, Note_on_c, 1, 57, 93
3, 26544, Note_off_c, 1, 57, 0
3, 26544, Note_on_c, 1, 59, 93
3, 26568, Note_off_c, 1, 59, 0
3, 26568, Note_on_c, 1, 60, 93
3, 26592, Note_off_c, 1, 60, 0
3, 26592, Note_on_c, 1, 59, 93
3, 26616, Note_off_c, 1, 59, 0
3, 26616, Note_on_c, 1, 62, 93
3, 26640, Note_off_c, 1, 62, 0
3, 26640, Note_on_c, 1, 60, 93
3, 26664, Note_off_c, 1, 60, 0
3, 26664, Note_on_c, 1, 59, 93
3, 26688, Note_off_c, 1, 59, 0
3, 26688, Note_on_c, 1, 57, 93
3, 26784, Note_off_c, 1, 57, 0
3, 26784, Note_on_c, 1, 69, 93
3, 26904, Note_off_c, 1, 69, 0
3, 26904, Note_on_c, 1, 62, 93
3, 26928, Note_off_c, 1, 62, 0
3, 26928, Note_on_c, 1, 64, 93
3, 26952, Note_off_c, 1, 64, 0
3, 26952, Note_on_c, 1, 66, 93
3, 26976, Note_off_c, 1, 66, 0
3, 26976, Note_on_c, 1, 67, 93
3, 27000, Note_off_c, 1, 67, 0
3, 27000, Note_on_c, 1, 69, 93
3, 27024, Note_off_c, 1, 69, 0
3, 27024, Note_on_c, 1, 66, 93
3, 27048, Note_off_c, 1, 66, 0
3, 27048, Note_on_c, 1, 67, 93
3, 27072, Note_off_c, 1, 67, 0
3, 27072, Note_on_c, 1, 60, 93
3, 27192, Note_off_c, 1, 60, 0
3, 27192, Note_on_c, 1, 64, 93
3, 27216, Note_off_c, 1, 64, 0
3, 27216, Note_on_c, 1, 62, 93
3, 27240, Note_off_c, 1, 62, 0
3, 27240, Note_on_c, 1, 60, 93
3, 27264, Note_off_c, 1, 60, 0
3, 27264, Note_on_c, 1, 59, 93
3, 27384, Note_off_c, 1, 59, 0
3, 27384, Note_on_c, 1, 60, 93
3, 27408, Note_off_c, 1, 60, 0
3, 27408, Note_on_c, 1, 62, 93
3, 27432, Note_off_c, 1, 62, 0
3, 27432, Note_on_c, 1, 64, 93
3, 27456, Note_off_c, 1, 64, 0
3, 27456, Note_on_c, 1, 66, 93
3, 27480, Note_off_c, 1, 66, 0
3, 27480, Note_on_c, 1, 67, 93
3, 27504, Note_off_c, 1, 67, 0
3, 27504, Note_on_c, 1, 66, 93
3, 27528, Note_off_c, 1, 66, 0
3, 27528, Note_on_c, 1, 67, 93
3, 27552, Note_off_c, 1, 67, 0
3, 27552, Note_on_c, 1, 57, 93
3, 27600, Note_off_c, 1, 57, 0
3, 27600, Note_on_c, 1, 62, 93
3, 27696, Note_off_c, 1, 62, 0
3, 27696, Note_on_c, 1, 59, 93
3, 27744, Note_off_c, 1, 59, 0
3, 27744, Note_on_c, 1, 64, 93
3, 27960, Note_off_c, 1, 64, 0
3, 27960, Note_on_c, 1, 64, 93
3, 27984, Note_off_c, 1, 64, 0
3, 27984, Note_on_c, 1, 62, 93
3, 28008, Note_off_c, 1, 62, 0
3, 28008, Note_on_c, 1, 61, 93
3, 28032, Note_off_c, 1, 61, 0
3, 28032, Note_on_c, 1, 62, 93
3, 28248, Note_off_c, 1, 62, 0
3, 28248, Note_on_c, 1, 59, 93
3, 28272, Note_off_c, 1, 59, 0
3, 28272, Note_on_c, 1, 61, 93
3, 28296, Note_off_c, 1, 61, 0
3, 28296, Note_on_c, 1, 62, 93
3, 28320, Note_off_c, 1, 62, 0
3, 28320, Note_on_c, 1, 64, 93
3, 28344, Note_off_c, 1, 64, 0
3, 28344, Note_on_c, 1, 66, 93
3, 28368, Note_off_c, 1, 66, 0
3, 28368, Note_on_c, 1, 64, 93
3, 28392, Note_off_c, 1, 64, 0
3, 28392, Note_on_c, 1, 62, 93
3, 28416, Note_off_c, 1, 62, 0
3, 28416, Note_on_c, 1, 61, 93
3, 28536, Note_off_c, 1, 61, 0
3, 28536, Note_on_c, 1, 57, 93
3, 28560, Note_off_c, 1, 57, 0
3, 28560, Note_on_c, 1, 59, 93
3, 28584, Note_off_c, 1, 59, 0
3, 28584, Note_on_c, 1, 61, 93
3, 28608, Note_off_c, 1, 61, 0
3, 28608, Note_on_c, 1, 62, 93
3, 28704, Note_off_c, 1, 62, 0
3, 28752, Note_on_c, 1, 57, 93
3, 28800, Note_off_c, 1, 57, 0
3, 28800, Note_on_c, 1, 57, 93
3, 28848, Note_off_c, 1, 57, 0
3, 28848, Note_on_c, 1, 56, 93
3, 28872, Note_off_c, 1, 56, 0
3, 28872, Note_on_c, 1, 54, 93
3, 28896, Note_off_c, 1, 54, 0
3, 28896, Note_on_c, 1, 56, 93
3, 28992, Note_off_c, 1, 56, 0
3, 28992, Note_on_c, 1, 57, 93
3, 29088, Note_off_c, 1, 57, 0
3, 29328, Note_on_c, 1, 62, 93
3, 29376, Note_off_c, 1, 62, 0
3, 29376, Note_on_c, 1, 67, 93
3, 29400, Note_off_c, 1, 67, 0
3, 29400, Note_on_c, 1, 69, 93
3, 29424, Note_off_c, 1, 69, 0
3, 29424, Note_on_c, 1, 67, 93
3, 29448, Note_off_c, 1, 67, 0
3, 29448, Note_on_c, 1, 66, 93
3, 29472, Note_off_c, 1, 66, 0
3, 29472, Note_on_c, 1, 64, 93
3, 29496, Note_off_c, 1, 64, 0
3, 29496, Note_on_c, 1, 62, 93
3, 29520, Note_off_c, 1, 62, 0
3, 29520, Note_on_c, 1, 61, 93
3, 29544, Note_off_c, 1, 61, 0
3, 29544, Note_on_c, 1, 59, 93
3, 29568, Note_off_c, 1, 59, 0
3, 29568, Note_on_c, 1, 57, 93
3, 29688, Note_off_c, 1, 57, 0
3, 29688, Note_on_c, 1, 55, 93
3, 29712, Note_off_c, 1, 55, 0
3, 29712, Note_on_c, 1, 57, 93
3, 29736, Note_off_c, 1, 57, 0
3, 29736, Note_on_c, 1, 54, 93
3, 29760, Note_off_c, 1, 54, 0
3, 29760, Note_on_c, 1, 55, 93
3, 29784, Note_off_c, 1, 55, 0
3, 29784, Note_on_c, 1, 54, 93
3, 29808, Note_off_c, 1, 54, 0
3, 29808, Note_on_c, 1, 55, 93
3, 29832, Note_off_c, 1, 55, 0
3, 29832, Note_on_c, 1, 57, 93
3, 29856, Note_off_c, 1, 57, 0
3, 29856, Note_on_c, 1, 55, 93
3, 29880, Note_off_c, 1, 55, 0
3, 29880, Note_on_c, 1, 59, 93
3, 29904, Note_off_c, 1, 59, 0
3, 29904, Note_on_c, 1, 57, 93
3, 29928, Note_off_c, 1, 57, 0
3, 29928, Note_on_c, 1, 55, 93
3, 29952, Note_off_c, 1, 55, 0
3, 29952, Note_on_c, 1, 54, 93
3, 30000, Note_off_c, 1, 54, 0
3, 30000, Note_on_c, 1, 52, 93
3, 30048, Note_off_c, 1, 52, 0
3, 30048, Note_on_c, 1, 54, 93
3, 30096, Note_off_c, 1, 54, 0
3, 30096, Note_on_c, 1, 56, 93
3, 30144, Note_off_c, 1, 56, 0
3, 30144, Note_on_c, 1, 57, 93
3, 30336, Note_off_c, 1, 57, 0
3, 30384, Note_on_c, 1, 54, 93
3, 30432, Note_off_c, 1, 54, 0
3, 30432, Note_on_c, 1, 55, 93
3, 30480, Note_off_c, 1, 55, 0
3, 30480, Note_on_c, 1, 57, 93
3, 30528, Note_off_c, 1, 57, 0
3, 30528, Note_on_c, 1, 59, 93
3, 30720, Note_off_c, 1, 59, 0
3, 30768, Note_on_c, 1, 59, 93
3, 30864, Note_off_c, 1, 59, 0
3, 30864, Note_on_c, 1, 57, 93
3, 30888, Note_off_c, 1, 57, 0
3, 30888, Note_on_c, 1, 56, 93
3, 30912, Note_off_c, 1, 56, 0
3, 30912, Note_on_c, 1, 57, 93
3, 30960, Note_off_c, 1, 57, 0
3, 30960, Note_on_c, 1, 57, 93
3, 31008, Note_off_c, 1, 57, 0
3, 31008, Note_on_c, 1, 62, 93
3, 31056, Note_off_c, 1, 62, 0
3, 31056, Note_on_c, 1, 62, 93
3, 31104, Note_off_c, 1, 62, 0
3, 31104, Note_on_c, 1, 62, 93
3, 31152, Note_off_c, 1, 62, 0
3, 31152, Note_on_c, 1, 55, 93
3, 31200, Note_off_c, 1, 55, 0
3, 31200, Note_on_c, 1, 60, 93
3, 31296, Note_off_c, 1, 60, 0
3, 31296, Note_on_c, 1, 57, 93
3, 31392, Note_off_c, 1, 57, 0
3, 31392, Note_on_c, 1, 59, 93
3, 31536, Note_off_c, 1, 59, 0
3, 31536, Note_on_c, 1, 57, 93
3, 31560, Note_off_c, 1, 57, 0
3, 31560, Note_on_c, 1, 56, 93
3, 31584, Note_off_c, 1, 56, 0
3, 31584, Note_on_c, 1, 57, 93
3, 31632, Note_off_c, 1, 57, 0
3, 31632, Note_on_c, 1, 60, 93
3, 31680, Note_off_c, 1, 60, 0
3, 31680, Note_on_c, 1, 59, 93
3, 31776, Note_off_c, 1, 59, 0
3, 31776, Note_on_c, 1, 52, 93
3, 31920, Note_off_c, 1, 52, 0
3, 31920, Note_on_c, 1, 50, 93
3, 31968, Note_off_c, 1, 50, 0
3, 31992, Note_on_c, 1, 57, 93
3, 32016, Note_off_c, 1, 57, 0
3, 32016, Note_on_c, 1, 59, 93
3, 32040, Note_off_c, 1, 59, 0
3, 32040, Note_on_c, 1, 61, 93
3, 32064, Note_off_c, 1, 61, 0
3, 32064, Note_on_c, 1, 62, 93
3, 32088, Note_off_c, 1, 62, 0
3, 32088, Note_on_c, 1, 64, 93
3, 32112, Note_off_c, 1, 64, 0
3, 32112, Note_on_c, 1, 61, 93
3, 32136, Note_off_c, 1, 61, 0
3, 32136, Note_on_c, 1, 62, 93
3, 32160, Note_off_c, 1, 62, 0
3, 32160, Note_on_c, 1, 64, 93
3, 32184, Note_off_c, 1, 64, 0
3, 32184, Note_on_c, 1, 62, 93
3, 32208, Note_off_c, 1, 62, 0
3, 32208, Note_on_c, 1, 61, 93
3, 32232, Note_off_c, 1, 61, 0
3, 32232, Note_on_c, 1, 59, 93
3, 32256, Note_off_c, 1, 59, 0
3, 32256, Note_on_c, 1, 57, 93
3, 32304, Note_off_c, 1, 57, 0
3, 32304, Note_on_c, 1, 62, 93
3, 32352, Note_off_c, 1, 62, 0
3, 32352, Note_on_c, 1, 62, 93
3, 32400, Note_off_c, 1, 62, 0
3, 32400, Note_on_c, 1, 62, 93
3, 32448, Note_off_c, 1, 62, 0
3, 32448, Note_on_c, 1, 62, 93
3, 32496, Note_off_c, 1, 62, 0
3, 32496, Note_on_c, 1, 60, 93
3, 32520, Note_off_c, 1, 60, 0
3, 32520, Note_on_c, 1, 59, 93
3, 32544, Note_off_c, 1, 59, 0
3, 32544, Note_on_c, 1, 60, 93
3, 32568, Note_off_c, 1, 60, 0
3, 32568, Note_on_c, 1, 59, 93
3, 32592, Note_off_c, 1, 59, 0
3, 32592, Note_on_c, 1, 57, 93
3, 32616, Note_off_c, 1, 57, 0
3, 32616, Note_on_c, 1, 60, 93
3, 32640, Note_off_c, 1, 60, 0
3, 32640, Note_on_c, 1, 59, 93
3, 32664, Note_off_c, 1, 59, 0
3, 32664, Note_on_c, 1, 57, 93
3, 32688, Note_off_c, 1, 57, 0
3, 32688, Note_on_c, 1, 55, 93
3, 32712, Note_off_c, 1, 55, 0
3, 32712, Note_on_c, 1, 59, 93
3, 32736, Note_off_c, 1, 59, 0
3, 32736, Note_on_c, 1, 57, 93
3, 32760, Note_off_c, 1, 57, 0
3, 32760, Note_on_c, 1, 60, 93
3, 32784, Note_off_c, 1, 60, 0
3, 32784, Note_on_c, 1, 59, 93
3, 32808, Note_off_c, 1, 59, 0
3, 32808, Note_on_c, 1, 62, 93
3, 32832, Note_off_c, 1, 62, 0
3, 32832, Note_on_c, 1, 60, 93
3, 32856, Note_off_c, 1, 60, 0
3, 32856, Note_on_c, 1, 57, 93
3, 32880, Note_off_c, 1, 57, 0
3, 32880, Note_on_c, 1, 59, 93
3, 32904, Note_off_c, 1, 59, 0
3, 32904, Note_on_c, 1, 60, 93
3, 32928, Note_off_c, 1, 60, 0
3, 32928, Note_on_c, 1, 62, 93
3, 32952, Note_off_c, 1, 62, 0
3, 32952, Note_on_c, 1, 60, 93
3, 32976, Note_off_c, 1, 60, 0
3, 32976, Note_on_c, 1, 59, 93
3, 33000, Note_off_c, 1, 59, 0
3, 33000, Note_on_c, 1, 57, 93
3, 33024, Note_off_c, 1, 57, 0
3, 33024, Note_on_c, 1, 55, 93
3, 33072, Note_off_c, 1, 55, 0
3, 33072, Note_on_c, 1, 55, 93
3, 33120, Note_off_c, 1, 55, 0
3, 33120, Note_on_c, 1, 57, 93
3, 33264, Note_off_c, 1, 57, 0
3, 33264, Note_on_c, 1, 57, 93
3, 33312, Note_off_c, 1, 57, 0
3, 33312, Note_on_c, 1, 59, 93
3, 33336, Note_off_c, 1, 59, 0
3, 33336, Note_on_c, 1, 60, 93
3, 33360, Note_off_c, 1, 60, 0
3, 33360, Note_on_c, 1, 59, 93
3, 33384, Note_off_c, 1, 59, 0
3, 33384, Note_on_c, 1, 57, 93
3, 33408, Note_off_c, 1, 57, 0
3, 33408, Note_on_c, 1, 55, 93
3, 33432, Note_off_c, 1, 55, 0
3, 33432, Note_on_c, 1, 57, 93
3, 33456, Note_off_c, 1, 57, 0
3, 33456, Note_on_c, 1, 55, 93
3, 33480, Note_off_c, 1, 55, 0
3, 33480, Note_on_c, 1, 54, 93
3, 33504, Note_off_c, 1, 54, 0
3, 33504, Note_on_c, 1, 52, 93
3, 33528, Note_off_c, 1, 52, 0
3, 33528, Note_on_c, 1, 55, 93
3, 33552, Note_off_c, 1, 55, 0
3, 33552, Note_on_c, 1, 54, 93
3, 33576, Note_off_c, 1, 54, 0
3, 33576, Note_on_c, 1, 52, 93
3, 33600, Note_off_c, 1, 52, 0
3, 33600, Note_on_c, 1, 50, 93
3, 33696, Note_off_c, 1, 50, 0
3, 36672, Note_on_c, 1, 59, 93
3, 36720, Note_off_c, 1, 59, 0
3, 36720, Note_on_c, 1, 59, 93
3, 36768, Note_off_c, 1, 59, 0
3, 36768, Note_on_c, 1, 59, 93
3, 36816, Note_off_c, 1, 59, 0
3, 36816, Note_on_c, 1, 64, 93
3, 36864, Note_off_c, 1, 64, 0
3, 36864, Note_on_c, 1, 64, 93
3, 36912, Note_off_c, 1, 64, 0
3, 36912, Note_on_c, 1, 64, 93
3, 36960, Note_off_c, 1, 64, 0
3, 36960, Note_on_c, 1, 64, 93
3, 37008, Note_off_c, 1, 64, 0
3, 37008, Note_on_c, 1, 64, 93
3, 37056, Note_off_c, 1, 64, 0
3, 37056, Note_on_c, 1, 64, 93
3, 37104, Note_off_c, 1, 64, 0
3, 37104, Note_on_c, 1, 62, 93
3, 37128, Note_off_c, 1, 62, 0
3, 37128, Note_on_c, 1, 61, 93
3, 37152, Note_off_c, 1, 61, 0
3, 37152, Note_on_c, 1, 62, 93
3, 37200, Note_off_c, 1, 62, 0
3, 37200, Note_on_c, 1, 59, 93
3, 37248, Note_off_c, 1, 59, 0
3, 37248, Note_on_c, 1, 67, 93
3, 37296, Note_off_c, 1, 67, 0
3, 37296, Note_on_c, 1, 67, 93
3, 37344, Note_off_c, 1, 67, 0
3, 37344, Note_on_c, 1, 67, 93
3, 37392, Note_off_c, 1, 67, 0
3, 37392, Note_on_c, 1, 67, 93
3, 37440, Note_off_c, 1, 67, 0
3, 37440, Note_on_c, 1, 67, 93
3, 37488, Note_off_c, 1, 67, 0
3, 37488, Note_on_c, 1, 66, 93
3, 37512, Note_off_c, 1, 66, 0
3, 37512, Note_on_c, 1, 64, 93
3, 37536, Note_off_c, 1, 64, 0
3, 37536, Note_on_c, 1, 66, 93
3, 37584, Note_off_c, 1, 66, 0
3, 37584, Note_on_c, 1, 66, 93
3, 37632, Note_off_c, 1, 66, 0
3, 37632, Note_on_c, 1, 66, 93
3, 37680, Note_off_c, 1, 66, 0
3, 37680, Note_on_c, 1, 64, 93
3, 37704, Note_off_c, 1, 64, 0
3, 37704, Note_on_c, 1, 63, 93
3, 37728, Note_off_c, 1, 63, 0
3, 37728, Note_on_c, 1, 64, 93
3, 37824, Note_off_c, 1, 64, 0
3, 37824, Note_on_c, 1, 64, 93
3, 37872, Note_off_c, 1, 64, 0
3, 37872, Note_on_c, 1, 66, 93
3, 37896, Note_off_c, 1, 66, 0
3, 37896, Note_on_c, 1, 64, 93
3, 37920, Note_off_c, 1, 64, 0
3, 37920, Note_on_c, 1, 62, 93
3, 37944, Note_off_c, 1, 62, 0
3, 37944, Note_on_c, 1, 64, 93
3, 37968, Note_off_c, 1, 64, 0
3, 37968, Note_on_c, 1, 61, 93
3, 37992, Note_off_c, 1, 61, 0
3, 37992, Note_on_c, 1, 62, 93
3, 38016, Note_off_c, 1, 62, 0
3, 38016, Note_on_c, 1, 64, 93
3, 38112, Note_off_c, 1, 64, 0
3, 38160, Note_on_c, 1, 64, 93
3, 38208, Note_off_c, 1, 64, 0
3, 38208, Note_on_c, 1, 69, 93
3, 38232, Note_off_c, 1, 69, 0
3, 38232, Note_on_c, 1, 67, 93
3, 38256, Note_off_c, 1, 67, 0
3, 38256, Note_on_c, 1, 66, 93
3, 38280, Note_off_c, 1, 66, 0
3, 38280, Note_on_c, 1, 64, 93
3, 38304, Note_off_c, 1, 64, 0
3, 38304, Note_on_c, 1, 62, 93
3, 38328, Note_off_c, 1, 62, 0
3, 38328, Note_on_c, 1, 61, 93
3, 38352, Note_off_c, 1, 61, 0
3, 38352, Note_on_c, 1, 59, 93
3, 38376, Note_off_c, 1, 59, 0
3, 38376, Note_on_c, 1, 57, 93
3, 38400, Note_off_c, 1, 57, 0
3, 38400, Note_on_c, 1, 62, 93
3, 38496, Note_off_c, 1, 62, 0
3, 38544, Note_on_c, 1, 62, 93
3, 38592, Note_off_c, 1, 62, 0
3, 38592, Note_on_c, 1, 67, 93
3, 38616, Note_off_c, 1, 67, 0
3, 38616, Note_on_c, 1, 66, 93
3, 38640, Note_off_c, 1, 66, 0
3, 38640, Note_on_c, 1, 64, 93
3, 38664, Note_off_c, 1, 64, 0
3, 38664, Note_on_c, 1, 62, 93
3, 38688, Note_off_c, 1, 62, 0
3, 38688, Note_on_c, 1, 60, 93
3, 38712, Note_off_c, 1, 60, 0
3, 38712, Note_on_c, 1, 59, 93
3, 38736, Note_off_c, 1, 59, 0
3, 38736, Note_on_c, 1, 57, 93
3, 38760, Note_off_c, 1, 57, 0
3, 38760, Note_on_c, 1, 55, 93
3, 38784, Note_off_c, 1, 55, 0
3, 38784, Note_on_c, 1, 61, 93
3, 38880, Note_off_c, 1, 61, 0
3, 38928, Note_on_c, 1, 61, 93
3, 38976, Note_off_c, 1, 61, 0
3, 38976, Note_on_c, 1, 66, 93
3, 39000, Note_off_c, 1, 66, 0
3, 39000, Note_on_c, 1, 64, 93
3, 39024, Note_off_c, 1, 64, 0
3, 39024, Note_on_c, 1, 62, 93
3, 39048, Note_off_c, 1, 62, 0
3, 39048, Note_on_c, 1, 61, 93
3, 39072, Note_off_c, 1, 61, 0
3, 39072, Note_on_c, 1, 59, 93
3, 39096, Note_off_c, 1, 59, 0
3, 39096, Note_on_c, 1, 58, 93
3, 39120, Note_off_c, 1, 58, 0
3, 39120, Note_on_c, 1, 56, 93
3, 39144, Note_off_c, 1, 56, 0
3, 39144, Note_on_c, 1, 54, 93
3, 39168, Note_off_c, 1, 54, 0
3, 39168, Note_on_c, 1, 59, 93
3, 39216, Note_off_c, 1, 59, 0
3, 39216, Note_on_c, 1, 62, 93
3, 39264, Note_off_c, 1, 62, 0
3, 39264, Note_on_c, 1, 64, 93
3, 39312, Note_off_c, 1, 64, 0
3, 39312, Note_on_c, 1, 52, 93
3, 39360, Note_off_c, 1, 52, 0
3, 39360, Note_on_c, 1, 57, 93
3, 39408, Note_off_c, 1, 57, 0
3, 39408, Note_on_c, 1, 60, 93
3, 39456, Note_off_c, 1, 60, 0
3, 39456, Note_on_c, 1, 62, 93
3, 39504, Note_off_c, 1, 62, 0
3, 39504, Note_on_c, 1, 50, 93
3, 39552, Note_off_c, 1, 50, 0
3, 39576, Note_on_c, 1, 55, 93
3, 39600, Note_off_c, 1, 55, 0
3, 39600, Note_on_c, 1, 59, 93
3, 39624, Note_off_c, 1, 59, 0
3, 39624, Note_on_c, 1, 62, 93
3, 39648, Note_off_c, 1, 62, 0
3, 39648, Note_on_c, 1, 48, 93
3, 39672, Note_off_c, 1, 48, 0
3, 39672, Note_on_c, 1, 55, 93
3, 39696, Note_off_c, 1, 55, 0
3, 39696, Note_on_c, 1, 52, 93
3, 39720, Note_off_c, 1, 52, 0
3, 39720, Note_on_c, 1, 48, 93
3, 39744, Note_off_c, 1, 48, 0
3, 39768, Note_on_c, 1, 54, 93
3, 39792, Note_off_c, 1, 54, 0
3, 39792, Note_on_c, 1, 57, 93
3, 39816, Note_off_c, 1, 57, 0
3, 39816, Note_on_c, 1, 60, 93
3, 39840, Note_off_c, 1, 60, 0
3, 39840, Note_on_c, 1, 47, 93
3, 39864, Note_off_c, 1, 47, 0
3, 39864, Note_on_c, 1, 54, 93
3, 39888, Note_off_c, 1, 54, 0
3, 39888, Note_on_c, 1, 51, 93
3, 39912, Note_off_c, 1, 51, 0
3, 39912, Note_on_c, 1, 47, 93
3, 39936, Note_off_c, 1, 47, 0
3, 39936, Note_on_c, 1, 52, 93
3, 39984, Note_off_c, 1, 52, 0
3, 39984, Note_on_c, 1, 40, 93
3, 40032, Note_off_c, 1, 40, 0
3, 40080, Note_on_c, 1, 52, 93
3, 40128, Note_off_c, 1, 52, 0
3, 40128, Note_on_c, 1, 56, 93
3, 40176, Note_off_c, 1, 56, 0
3, 40176, Note_on_c, 1, 59, 93
3, 40224, Note_off_c, 1, 59, 0
3, 40224, Note_on_c, 1, 56, 93
3, 40272, Note_off_c, 1, 56, 0
3, 40272, Note_on_c, 1, 52, 93
3, 40320, Note_off_c, 1, 52, 0
3, 40320, Note_on_c, 1, 57, 93
3, 40368, Note_off_c, 1, 57, 0
3, 40368, Note_on_c, 1, 45, 93
3, 40416, Note_off_c, 1, 45, 0
3, 40512, Note_on_c, 1, 55, 93
3, 40536, Note_off_c, 1, 55, 0
3, 40536, Note_on_c, 1, 64, 93
3, 40560, Note_off_c, 1, 64, 0
3, 40560, Note_on_c, 1, 61, 93
3, 40584, Note_off_c, 1, 61, 0
3, 40584, Note_on_c, 1, 55, 93
3, 40608, Note_off_c, 1, 55, 0
3, 40608, Note_on_c, 1, 64, 93
3, 40632, Note_off_c, 1, 64, 0
3, 40632, Note_on_c, 1, 58, 93
3, 40656, Note_off_c, 1, 58, 0
3, 40656, Note_on_c, 1, 57, 93
3, 40680, Note_off_c, 1, 57, 0
3, 40680, Note_on_c, 1, 55, 93
3, 40704, Note_off_c, 1, 55, 0
3, 40704, Note_on_c, 1, 54, 93
3, 40728, Note_off_c, 1, 54, 0
3, 40728, Note_on_c, 1, 55, 93
3, 40752, Note_off_c, 1, 55, 0
3, 40752, Note_on_c, 1, 57, 93
3, 40776, Note_off_c, 1, 57, 0
3, 40776, Note_on_c, 1, 54, 93
3, 40800, Note_off_c, 1, 54, 0
3, 40800, Note_on_c, 1, 50, 93
3, 40848, Note_off_c, 1, 50, 0
3, 40848, Note_on_c, 1, 54, 93
3, 40872, Note_off_c, 1, 54, 0
3, 40872, Note_on_c, 1, 50, 93
3, 40896, Note_off_c, 1, 50, 0
3, 40896, Note_on_c, 1, 48, 93
3, 40920, Note_off_c, 1, 48, 0
3, 40920, Note_on_c, 1, 57, 93
3, 40944, Note_off_c, 1, 57, 0
3, 40944, Note_on_c, 1, 54, 93
3, 40968, Note_off_c, 1, 54, 0
3, 40968, Note_on_c, 1, 48, 93
3, 40992, Note_off_c, 1, 48, 0
3, 40992, Note_on_c, 1, 57, 93
3, 41016, Note_off_c, 1, 57, 0
3, 41016, Note_on_c, 1, 51, 93
3, 41040, Note_off_c, 1, 51, 0
3, 41040, Note_on_c, 1, 50, 93
3, 41064, Note_off_c, 1, 50, 0
3, 41064, Note_on_c, 1, 48, 93
3, 41088, Note_off_c, 1, 48, 0
3, 41088, Note_on_c, 1, 47, 93
3, 41184, Note_off_c, 1, 47, 0
3, 41184, Note_on_c, 1, 49, 93
3, 41280, Note_off_c, 1, 49, 0
3, 41280, Note_on_c, 1, 57, 93
3, 41328, Note_off_c, 1, 57, 0
3, 41328, Note_on_c, 1, 54, 93
3, 41376, Note_off_c, 1, 54, 0
3, 41376, Note_on_c, 1, 47, 93
3, 41424, Note_off_c, 1, 47, 0
3, 41424, Note_on_c, 1, 52, 93
3, 41448, Note_off_c, 1, 52, 0
3, 41448, Note_on_c, 1, 50, 93
3, 41472, Note_off_c, 1, 50, 0
3, 41472, Note_on_c, 1, 55, 93
3, 41520, Note_off_c, 1, 55, 0
3, 41520, Note_on_c, 1, 52, 93
3, 41568, Note_off_c, 1, 52, 0
3, 41568, Note_on_c, 1, 45, 93
3, 41616, Note_off_c, 1, 45, 0
3, 41616, Note_on_c, 1, 50, 93
3, 41640, Note_off_c, 1, 50, 0
3, 41640, Note_on_c, 1, 49, 93
3, 41664, Note_off_c, 1, 49, 0
3, 41664, Note_on_c, 1, 42, 93
3, 41760, Note_off_c, 1, 42, 0
3, 41760, Note_on_c, 1, 54, 93
3, 41808, Note_off_c, 1, 54, 0
3, 41808, Note_on_c, 1, 50, 93
3, 41856, Note_off_c, 1, 50, 0
3, 41856, Note_on_c, 1, 43, 93
3, 41952, Note_off_c, 1, 43, 0
3, 41952, Note_on_c, 1, 55, 93
3, 42000, Note_off_c, 1, 55, 0
3, 42000, Note_on_c, 1, 52, 93
3, 42048, Note_off_c, 1, 52, 0
3, 42048, Note_on_c, 1, 45, 93
3, 42144, Note_off_c, 1, 45, 0
3, 42144, Note_on_c, 1, 57, 93
3, 42192, Note_off_c, 1, 57, 0
3, 42192, Note_on_c, 1, 54, 93
3, 42240, Note_off_c, 1, 54, 0
3, 42240, Note_on_c, 1, 47, 93
3, 42336, Note_off_c, 1, 47, 0
3, 42336, Note_on_c, 1, 59, 93
3, 42384, Note_off_c, 1, 59, 0
3, 42384, Note_on_c, 1, 55, 93
3, 42432, Note_off_c, 1, 55, 0
3, 42432, Note_on_c, 1, 45, 93
3, 42528, Note_off_c, 1, 45, 0
3, 42528, Note_on_c, 1, 52, 93
3, 42576, Note_off_c, 1, 52, 0
3, 42576, Note_on_c, 1, 55, 93
3, 42624, Note_off_c, 1, 55, 0
3, 42624, Note_on_c, 1, 45, 93
3, 42720, Note_off_c, 1, 45, 0
3, 42720, Note_on_c, 1, 50, 93
3, 42768, Note_off_c, 1, 50, 0
3, 42768, Note_on_c, 1, 54, 93
3, 42816, Note_off_c, 1, 54, 0
3, 42816, Note_on_c, 1, 45, 93
3, 42912, Note_off_c, 1, 45, 0
3, 42912, Note_on_c, 1, 49, 93
3, 42960, Note_off_c, 1, 49, 0
3, 42960, Note_on_c, 1, 52, 93
3, 43008, Note_off_c, 1, 52, 0
3, 43008, Note_on_c, 1, 45, 93
3, 43056, Note_off_c, 1, 45, 0
3, 43056, Note_on_c, 1, 50, 93
3, 43068, Note_off_c, 1, 50, 0
3, 43068, Note_on_c, 1, 49, 93
3, 43080, Note_off_c, 1, 49, 0
3, 43080, Note_on_c, 1, 50, 93
3, 43104, Note_off_c, 1, 50, 0
3, 43104, Note_on_c, 1, 45, 93
3, 43152, Note_off_c, 1, 45, 0
3, 43152, Note_on_c, 1, 52, 93
3, 43164, Note_off_c, 1, 52, 0
3, 43164, Note_on_c, 1, 50, 93
3, 43176, Note_off_c, 1, 50, 0
3, 43176, Note_on_c, 1, 52, 93
3, 43200, Note_off_c, 1, 52, 0
3, 43200, Note_on_c, 1, 45, 93
3, 43248, Note_off_c, 1, 45, 0
3, 43248, Note_on_c, 1, 54, 93
3, 43260, Note_off_c, 1, 54, 0
3, 43260, Note_on_c, 1, 52, 93
3, 43272, Note_off_c, 1, 52, 0
3, 43272, Note_on_c, 1, 54, 93
3, 43296, Note_off_c, 1, 54, 0
3, 43296, Note_on_c, 1, 45, 93
3, 43344, Note_off_c, 1, 45, 0
3, 43344, Note_on_c, 1, 55, 93
3, 43356, Note_off_c, 1, 55, 0
3, 43356, Note_on_c, 1, 54, 93
3, 43368, Note_off_c, 1, 54, 0
3, 43368, Note_on_c, 1, 55, 93
3, 43392, Note_off_c, 1, 55, 0
3, 43392, Note_on_c, 1, 57, 93
3, 43440, Note_off_c, 1, 57, 0
3, 43440, Note_on_c, 1, 54, 93
3, 43464, Note_off_c, 1, 54, 0
3, 43464, Note_on_c, 1, 55, 93
3, 43488, Note_off_c, 1, 55, 0
3, 43488, Note_on_c, 1, 57, 93
3, 43584, Note_off_c, 1, 57, 0
3, 43584, Note_on_c, 1, 57, 93
3, 43800, Note_off_c, 1, 57, 0
3, 43800, Note_on_c, 1, 62, 93
3, 43824, Note_off_c, 1, 62, 0
3, 43824, Note_on_c, 1, 64, 93
3, 43848, Note_off_c, 1, 64, 0
3, 43848, Note_on_c, 1, 66, 93
3, 43872, Note_off_c, 1, 66, 0
3, 43872, Note_on_c, 1, 64, 93
3, 43896, Note_off_c, 1, 64, 0
3, 43896, Note_on_c, 1, 62, 93
3, 43920, Note_off_c, 1, 62, 0
3, 43920, Note_on_c, 1, 61, 93
3, 43944, Note_off_c, 1, 61, 0
3, 43944, Note_on_c, 1, 59, 93
3, 43968, Note_off_c, 1, 59, 0
3, 43968, Note_on_c, 1, 57, 93
3, 44064, Note_off_c, 1, 57, 0
3, 44112, Note_on_c, 1, 57, 93
3, 44160, Note_off_c, 1, 57, 0
3, 44160, Note_on_c, 1, 59, 93
3, 44184, Note_off_c, 1, 59, 0
3, 44184, Note_on_c, 1, 57, 93
3, 44208, Note_off_c, 1, 57, 0
3, 44208, Note_on_c, 1, 59, 93
3, 44232, Note_off_c, 1, 59, 0
3, 44232, Note_on_c, 1, 62, 93
3, 44256, Note_off_c, 1, 62, 0
3, 44256, Note_on_c, 1, 61, 93
3, 44280, Note_off_c, 1, 61, 0
3, 44280, Note_on_c, 1, 62, 93
3, 44304, Note_off_c, 1, 62, 0
3, 44304, Note_on_c, 1, 61, 93
3, 44328, Note_off_c, 1, 61, 0
3, 44328, Note_on_c, 1, 59, 93
3, 44352, Note_off_c, 1, 59, 0
3, 44352, Note_on_c, 1, 57, 93
3, 44376, Note_off_c, 1, 57, 0
3, 44376, Note_on_c, 1, 55, 93
3, 44400, Note_off_c, 1, 55, 0
3, 44400, Note_on_c, 1, 54, 93
3, 44424, Note_off_c, 1, 54, 0
3, 44424, Note_on_c, 1, 52, 93
3, 44448, Note_off_c, 1, 52, 0
3, 44448, Note_on_c, 1, 50, 93
3, 44472, Note_off_c, 1, 50, 0
3, 44472, Note_on_c, 1, 52, 93
3, 44496, Note_off_c, 1, 52, 0
3, 44496, Note_on_c, 1, 54, 93
3, 44520, Note_off_c, 1, 54, 0
3, 44520, Note_on_c, 1, 55, 93
3, 44544, Note_off_c, 1, 55, 0
3, 44544, Note_on_c, 1, 57, 93
3, 44568, Note_off_c, 1, 57, 0
3, 44568, Note_on_c, 1, 55, 93
3, 44592, Note_off_c, 1, 55, 0
3, 44592, Note_on_c, 1, 57, 93
3, 44616, Note_off_c, 1, 57, 0
3, 44616, Note_on_c, 1, 59, 93
3, 44640, Note_off_c, 1, 59, 0
3, 44640, Note_on_c, 1, 57, 93
3, 44664, Note_off_c, 1, 57, 0
3, 44664, Note_on_c, 1, 55, 93
3, 44688, Note_off_c, 1, 55, 0
3, 44688, Note_on_c, 1, 54, 93
3, 44712, Note_off_c, 1, 54, 0
3, 44712, Note_on_c, 1, 52, 93
3, 44736, Note_off_c, 1, 52, 0
3, 44736, Note_on_c, 1, 50, 93
3, 44784, Note_off_c, 1, 50, 0
3, 44856, Note_on_c, 1, 57, 93
3, 44880, Note_off_c, 1, 57, 0
3, 44880, Note_on_c, 1, 62, 93
3, 44904, Note_off_c, 1, 62, 0
3, 44904, Note_on_c, 1, 66, 93
3, 44928, Note_off_c, 1, 66, 0
3, 44928, Note_on_c, 1, 67, 93
3, 44952, Note_off_c, 1, 67, 0
3, 44952, Note_on_c, 1, 64, 93
3, 44976, Note_off_c, 1, 64, 0
3, 44976, Note_on_c, 1, 66, 93
3, 45000, Note_off_c, 1, 66, 0
3, 45000, Note_on_c, 1, 67, 93
3, 45024, Note_off_c, 1, 67, 0
3, 45024, Note_on_c, 1, 69, 93
3, 45048, Note_off_c, 1, 69, 0
3, 45048, Note_on_c, 1, 67, 93
3, 45072, Note_off_c, 1, 67, 0
3, 45072, Note_on_c, 1, 66, 93
3, 45096, Note_off_c, 1, 66, 0
3, 45096, Note_on_c, 1, 64, 93
3, 45120, Note_off_c, 1, 64, 0
3, 45120, Note_on_c, 1, 62, 93
3, 45168, Note_off_c, 1, 62, 0
3, 45168, Note_on_c, 1, 67, 93
3, 45216, Note_off_c, 1, 67, 0
3, 45216, Note_on_c, 1, 67, 93
3, 45264, Note_off_c, 1, 67, 0
3, 45264, Note_on_c, 1, 67, 93
3, 45312, Note_off_c, 1, 67, 0
3, 45312, Note_on_c, 1, 67, 93
3, 45360, Note_off_c, 1, 67, 0
3, 45360, Note_on_c, 1, 66, 93
3, 45384, Note_off_c, 1, 66, 0
3, 45384, Note_on_c, 1, 64, 93
3, 45408, Note_off_c, 1, 64, 0
3, 45408, Note_on_c, 1, 66, 93
3, 45432, Note_off_c, 1, 66, 0
3, 45432, Note_on_c, 1, 64, 93
3, 45456, Note_off_c, 1, 64, 0
3, 45456, Note_on_c, 1, 62, 93
3, 45480, Note_off_c, 1, 62, 0
3, 45480, Note_on_c, 1, 66, 93
3, 45504, Note_off_c, 1, 66, 0
3, 45504, Note_on_c, 1, 64, 93
3, 45528, Note_off_c, 1, 64, 0
3, 45528, Note_on_c, 1, 62, 93
3, 45552, Note_off_c, 1, 62, 0
3, 45552, Note_on_c, 1, 60, 93
3, 45576, Note_off_c, 1, 60, 0
3, 45576, Note_on_c, 1, 64, 93
3, 45600, Note_off_c, 1, 64, 0
3, 45600, Note_on_c, 1, 62, 93
3, 45624, Note_off_c, 1, 62, 0
3, 45624, Note_on_c, 1, 65, 93
3, 45648, Note_off_c, 1, 65, 0
3, 45648, Note_on_c, 1, 64, 93
3, 45672, Note_off_c, 1, 64, 0
3, 45672, Note_on_c, 1, 67, 93
3, 45696, Note_off_c, 1, 67, 0
3, 45696, Note_on_c, 1, 65, 93
3, 45720, Note_off_c, 1, 65, 0
3, 45720, Note_on_c, 1, 62, 93
3, 45744, Note_off_c, 1, 62, 0
3, 45744, Note_on_c, 1, 64, 93
3, 45768, Note_off_c, 1, 64, 0
3, 45768, Note_on_c, 1, 65, 93
3, 45792, Note_off_c, 1, 65, 0
3, 45792, Note_on_c, 1, 67, 93
3, 45816, Note_off_c, 1, 67, 0
3, 45816, Note_on_c, 1, 65, 93
3, 45840, Note_off_c, 1, 65, 0
3, 45840, Note_on_c, 1, 64, 93
3, 45864, Note_off_c, 1, 64, 0
3, 45864, Note_on_c, 1, 62, 93
3, 45888, Note_off_c, 1, 62, 0
3, 45888, Note_on_c, 1, 60, 93
3, 45912, Note_off_c, 1, 60, 0
3, 45912, Note_on_c, 1, 59, 93
3, 45936, Note_off_c, 1, 59, 0
3, 45936, Note_on_c, 1, 60, 93
3, 45960, Note_off_c, 1, 60, 0
3, 45960, Note_on_c, 1, 62, 93
3, 45984, Note_off_c, 1, 62, 0
3, 45984, Note_on_c, 1, 60, 93
3, 46008, Note_off_c, 1, 60, 0
3, 46008, Note_on_c, 1, 64, 93
3, 46032, Note_off_c, 1, 64, 0
3, 46032, Note_on_c, 1, 62, 93
3, 46056, Note_off_c, 1, 62, 0
3, 46056, Note_on_c, 1, 60, 93
3, 46080, Note_off_c, 1, 60, 0
3, 46080, Note_on_c, 1, 59, 93
3, 46104, Note_off_c, 1, 59, 0
3, 46104, Note_on_c, 1, 62, 93
3, 46128, Note_off_c, 1, 62, 0
3, 46128, Note_on_c, 1, 56, 93
3, 46152, Note_off_c, 1, 56, 0
3, 46152, Note_on_c, 1, 59, 93
3, 46176, Note_off_c, 1, 59, 0
3, 46176, Note_on_c, 1, 60, 93
3, 46200, Note_off_c, 1, 60, 0
3, 46200, Note_on_c, 1, 64, 93
3, 46224, Note_off_c, 1, 64, 0
3, 46224, Note_on_c, 1, 62, 93
3, 46248, Note_off_c, 1, 62, 0
3, 46248, Note_on_c, 1, 59, 93
3, 46272, Note_off_c, 1, 59, 0
3, 46272, Note_on_c, 1, 64, 93
3, 46296, Note_off_c, 1, 64, 0
3, 46296, Note_on_c, 1, 62, 93
3, 46320, Note_off_c, 1, 62, 0
3, 46320, Note_on_c, 1, 60, 93
3, 46344, Note_off_c, 1, 60, 0
3, 46344, Note_on_c, 1, 62, 93
3, 46368, Note_off_c, 1, 62, 0
3, 46368, Note_on_c, 1, 64, 93
3, 46392, Note_off_c, 1, 64, 0
3, 46392, Note_on_c, 1, 60, 93
3, 46416, Note_off_c, 1, 60, 0
3, 46416, Note_on_c, 1, 59, 93
3, 46440, Note_off_c, 1, 59, 0
3, 46440, Note_on_c, 1, 57, 93
3, 46464, Note_off_c, 1, 57, 0
3, 46464, Note_on_c, 1, 64, 93
3, 46512, Note_off_c, 1, 64, 0
3, 46512, Note_on_c, 1, 59, 93
3, 46560, Note_off_c, 1, 59, 0
3, 46560, Note_on_c, 1, 64, 93
3, 46680, Note_off_c, 1, 64, 0
3, 46680, Note_on_c, 1, 64, 93
3, 46704, Note_off_c, 1, 64, 0
3, 46704, Note_on_c, 1, 68, 93
3, 46728, Note_off_c, 1, 68, 0
3, 46728, Note_on_c, 1, 64, 93
3, 46752, Note_off_c, 1, 64, 0
3, 46752, Note_on_c, 1, 69, 93
3, 46872, Note_off_c, 1, 69, 0
3, 46872, Note_on_c, 1, 69, 93
3, 46896, Note_off_c, 1, 69, 0
3, 46896, Note_on_c, 1, 65, 93
3, 46920, Note_off_c, 1, 65, 0
3, 46920, Note_on_c, 1, 69, 93
3, 46944, Note_off_c, 1, 69, 0
3, 46944, Note_on_c, 1, 62, 93
3, 47064, Note_off_c, 1, 62, 0
3, 47064, Note_on_c, 1, 66, 93
3, 47088, Note_off_c, 1, 66, 0
3, 47088, Note_on_c, 1, 59, 93
3, 47112, Note_off_c, 1, 59, 0
3, 47112, Note_on_c, 1, 62, 93
3, 47136, Note_off_c, 1, 62, 0
3, 47136, Note_on_c, 1, 60, 93
3, 47280, Note_off_c, 1, 60, 0
3, 47280, Note_on_c, 1, 66, 93
3, 47328, Note_off_c, 1, 66, 0
3, 47328, Note_on_c, 1, 64, 93
3, 47472, Note_off_c, 1, 64, 0
3, 47472, Note_on_c, 1, 64, 93
3, 47520, Note_off_c, 1, 64, 0
3, 47520, Note_on_c, 1, 69, 93
3, 47568, Note_off_c, 1, 69, 0
3, 47568, Note_on_c, 1, 69, 93
3, 47616, Note_off_c, 1, 69, 0
3, 47616, Note_on_c, 1, 69, 93
3, 47664, Note_off_c, 1, 69, 0
3, 47664, Note_on_c, 1, 67, 93
3, 47688, Note_off_c, 1, 67, 0
3, 47688, Note_on_c, 1, 66, 93
3, 47712, Note_off_c, 1, 66, 0
3, 47712, Note_on_c, 1, 67, 93
3, 47760, Note_off_c, 1, 67, 0
3, 47760, Note_on_c, 1, 67, 93
3, 47808, Note_off_c, 1, 67, 0
3, 47808, Note_on_c, 1, 67, 93
3, 47856, Note_off_c, 1, 67, 0
3, 47856, Note_on_c, 1, 66, 93
3, 47880, Note_off_c, 1, 66, 0
3, 47880, Note_on_c, 1, 64, 93
3, 47904, Note_off_c, 1, 64, 0
3, 47904, Note_on_c, 1, 66, 93
3, 47952, Note_off_c, 1, 66, 0
3, 47952, Note_on_c, 1, 71, 93
3, 48000, Note_off_c, 1, 71, 0
3, 48000, Note_on_c, 1, 67, 93
3, 48048, Note_off_c, 1, 67, 0
3, 48048, Note_on_c, 1, 64, 93
3, 48096, Note_off_c, 1, 64, 0
3, 48096, Note_on_c, 1, 69, 93
3, 48144, Note_off_c, 1, 69, 0
3, 48144, Note_on_c, 1, 66, 93
3, 48192, Note_off_c, 1, 66, 0
3, 48192, Note_on_c, 1, 62, 93
3, 48240, Note_off_c, 1, 62, 0
3, 48240, Note_on_c, 1, 67, 93
3, 48264, Note_off_c, 1, 67, 0
3, 48264, Note_on_c, 1, 66, 93
3, 48288, Note_off_c, 1, 66, 0
3, 48288, Note_on_c, 1, 67, 93
3, 48336, Note_off_c, 1, 67, 0
3, 48336, Note_on_c, 1, 67, 93
3, 48384, Note_off_c, 1, 67, 0
3, 48384, Note_on_c, 1, 64, 93
3, 48432, Note_off_c, 1, 64, 0
3, 48432, Note_on_c, 1, 60, 93
3, 48480, Note_off_c, 1, 60, 0
3, 48480, Note_on_c, 1, 59, 93
3, 48528, Note_off_c, 1, 59, 0
3, 48528, Note_on_c, 1, 55, 93
3, 48576, Note_off_c, 1, 55, 0
3, 48576, Note_on_c, 1, 55, 93
3, 48624, Note_off_c, 1, 55, 0
3, 48624, Note_on_c, 1, 55, 93
3, 48672, Note_off_c, 1, 55, 0
3, 48672, Note_on_c, 1, 60, 93
3, 48816, Note_off_c, 1, 60, 0
3, 48816, Note_on_c, 1, 59, 93
3, 48840, Note_off_c, 1, 59, 0
3, 48840, Note_on_c, 1, 57, 93
3, 48864, Note_off_c, 1, 57, 0
3, 48864, Note_on_c, 1, 59, 93
3, 48912, Note_off_c, 1, 59, 0
3, 48912, Note_on_c, 1, 58, 93
3, 48960, Note_off_c, 1, 58, 0
3, 48960, Note_on_c, 1, 57, 93
3, 48984, Note_off_c, 1, 57, 0
3, 48984, Note_on_c, 1, 55, 93
3, 49008, Note_off_c, 1, 55, 0
3, 49008, Note_on_c, 1, 57, 93
3, 49032, Note_off_c, 1, 57, 0
3, 49032, Note_on_c, 1, 58, 93
3, 49056, Note_off_c, 1, 58, 0
3, 49056, Note_on_c, 1, 57, 93
3, 49080, Note_off_c, 1, 57, 0
3, 49080, Note_on_c, 1, 55, 93
3, 49104, Note_off_c, 1, 55, 0
3, 49104, Note_on_c, 1, 54, 93
3, 49128, Note_off_c, 1, 54, 0
3, 49128, Note_on_c, 1, 52, 93
3, 49152, Note_off_c, 1, 52, 0
3, 49152, Note_on_c, 1, 50, 93
3, 49176, Note_off_c, 1, 50, 0
3, 49176, Note_on_c, 1, 54, 93
3, 49200, Note_off_c, 1, 54, 0
3, 49200, Note_on_c, 1, 55, 93
3, 49224, Note_off_c, 1, 55, 0
3, 49224, Note_on_c, 1, 57, 93
3, 49248, Note_off_c, 1, 57, 0
3, 49248, Note_on_c, 1, 58, 93
3, 49272, Note_off_c, 1, 58, 0
3, 49272, Note_on_c, 1, 55, 93
3, 49296, Note_off_c, 1, 55, 0
3, 49296, Note_on_c, 1, 57, 93
3, 49320, Note_off_c, 1, 57, 0
3, 49320, Note_on_c, 1, 58, 93
3, 49344, Note_off_c, 1, 58, 0
3, 49344, Note_on_c, 1, 60, 93
3, 49560, Note_off_c, 1, 60, 0
3, 49560, Note_on_c, 1, 63, 93
3, 49584, Note_off_c, 1, 63, 0
3, 49584, Note_on_c, 1, 62, 93
3, 49608, Note_off_c, 1, 62, 0
3, 49608, Note_on_c, 1, 60, 93
3, 49632, Note_off_c, 1, 60, 0
3, 49632, Note_on_c, 1, 59, 93
3, 49656, Note_off_c, 1, 59, 0
3, 49656, Note_on_c, 1, 62, 93
3, 49680, Note_off_c, 1, 62, 0
3, 49680, Note_on_c, 1, 60, 93
3, 49704, Note_off_c, 1, 60, 0
3, 49704, Note_on_c, 1, 59, 93
3, 49728, Note_off_c, 1, 59, 0
3, 49728, Note_on_c, 1, 57, 93
3, 49824, Note_off_c, 1, 57, 0
3, 49824, Note_on_c, 1, 62, 93
3, 49920, Note_off_c, 1, 62, 0
3, 49920, Note_on_c, 1, 62, 93
3, 50016, Note_off_c, 1, 62, 0
3, 50064, Note_on_c, 1, 55, 93
3, 50112, Note_off_c, 1, 55, 0
3, 50112, Note_on_c, 1, 55, 93
3, 50208, Note_off_c, 1, 55, 0
3, 50256, Note_on_c, 1, 60, 93
3, 50304, Note_off_c, 1, 60, 0
3, 50304, Note_on_c, 1, 57, 93
3, 50400, Note_off_c, 1, 57, 0
3, 50400, Note_on_c, 1, 57, 93
3, 50424, Note_off_c, 1, 57, 0
3, 50424, Note_on_c, 1, 60, 93
3, 50448, Note_off_c, 1, 60, 0
3, 50448, Note_on_c, 1, 58, 93
3, 50472, Note_off_c, 1, 58, 0
3, 50472, Note_on_c, 1, 57, 93
3, 50496, Note_off_c, 1, 57, 0
3, 50496, Note_on_c, 1, 55, 93
3, 50520, Note_off_c, 1, 55, 0
3, 50520, Note_on_c, 1, 53, 93
3, 50544, Note_off_c, 1, 53, 0
3, 50544, Note_on_c, 1, 51, 93
3, 50568, Note_off_c, 1, 51, 0
3, 50568, Note_on_c, 1, 55, 93
3, 50592, Note_off_c, 1, 55, 0
3, 50592, Note_on_c, 1, 50, 93
3, 50616, Note_off_c, 1, 50, 0
3, 50616, Note_on_c, 1, 54, 93
3, 50640, Note_off_c, 1, 54, 0
3, 50640, Note_on_c, 1, 51, 93
3, 50664, Note_off_c, 1, 51, 0
3, 50664, Note_on_c, 1, 50, 93
3, 50688, Note_off_c, 1, 50, 0
3, 50688, Note_on_c, 1, 49, 93
3, 50784, Note_off_c, 1, 49, 0
3, 50880, Note_on_c, 1, 57, 93
3, 50928, Note_off_c, 1, 57, 0
3, 51072, Note_on_c, 1, 59, 93
3, 51096, Note_off_c, 1, 59, 0
3, 51096, Note_on_c, 1, 57, 93
3, 51120, Note_off_c, 1, 57, 0
3, 51120, Note_on_c, 1, 59, 93
3, 51144, Note_off_c, 1, 59, 0
3, 51144, Note_on_c, 1, 60, 93
3, 51168, Note_off_c, 1, 60, 0
3, 51168, Note_on_c, 1, 59, 93
3, 51192, Note_off_c, 1, 59, 0
3, 51192, Note_on_c, 1, 60, 93
3, 51216, Note_off_c, 1, 60, 0
3, 51216, Note_on_c, 1, 57, 93
3, 51240, Note_off_c, 1, 57, 0
3, 51240, Note_on_c, 1, 59, 93
3, 51264, Note_off_c, 1, 59, 0
3, 51264, Note_on_c, 1, 60, 93
3, 51288, Note_off_c, 1, 60, 0
3, 51288, Note_on_c, 1, 59, 93
3, 51312, Note_off_c, 1, 59, 0
3, 51312, Note_on_c, 1, 60, 93
3, 51336, Note_off_c, 1, 60, 0
3, 51336, Note_on_c, 1, 62, 93
3, 51360, Note_off_c, 1, 62, 0
3, 51360, Note_on_c, 1, 60, 93
3, 51384, Note_off_c, 1, 60, 0
3, 51384, Note_on_c, 1, 62, 93
3, 51408, Note_off_c, 1, 62, 0
3, 51408, Note_on_c, 1, 59, 93
3, 51432, Note_off_c, 1, 59, 0
3, 51432, Note_on_c, 1, 60, 93
3, 51456, Note_off_c, 1, 60, 0
3, 51456, Note_on_c, 1, 62, 93
3, 51480, Note_off_c, 1, 62, 0
3, 51480, Note_on_c, 1, 60, 93
3, 51504, Note_off_c, 1, 60, 0
3, 51504, Note_on_c, 1, 62, 93
3, 51528, Note_off_c, 1, 62, 0
3, 51528, Note_on_c, 1, 64, 93
3, 51552, Note_off_c, 1, 64, 0
3, 51552, Note_on_c, 1, 62, 93
3, 51576, Note_off_c, 1, 62, 0
3, 51576, Note_on_c, 1, 64, 93
3, 51600, Note_off_c, 1, 64, 0
3, 51600, Note_on_c, 1, 60, 93
3, 51624, Note_off_c, 1, 60, 0
3, 51624, Note_on_c, 1, 62, 93
3, 51648, Note_off_c, 1, 62, 0
3, 51648, Note_on_c, 1, 64, 93
3, 51672, Note_off_c, 1, 64, 0
3, 51672, Note_on_c, 1, 62, 93
3, 51696, Note_off_c, 1, 62, 0
3, 51696, Note_on_c, 1, 64, 93
3, 51720, Note_off_c, 1, 64, 0
3, 51720, Note_on_c, 1, 66, 93
3, 51744, Note_off_c, 1, 66, 0
3, 51744, Note_on_c, 1, 64, 93
3, 51768, Note_off_c, 1, 64, 0
3, 51768, Note_on_c, 1, 66, 93
3, 51792, Note_off_c, 1, 66, 0
3, 51792, Note_on_c, 1, 62, 93
3, 51816, Note_off_c, 1, 62, 0
3, 51816, Note_on_c, 1, 64, 93
3, 51840, Note_off_c, 1, 64, 0
3, 51840, Note_on_c, 1, 66, 93
3, 51864, Note_off_c, 1, 66, 0
3, 51864, Note_on_c, 1, 69, 93
3, 51888, Note_off_c, 1, 69, 0
3, 51888, Note_on_c, 1, 67, 93
3, 51912, Note_off_c, 1, 67, 0
3, 51912, Note_on_c, 1, 66, 93
3, 51936, Note_off_c, 1, 66, 0
3, 51936, Note_on_c, 1, 64, 93
3, 51960, Note_off_c, 1, 64, 0
3, 51960, Note_on_c, 1, 62, 93
3, 51984, Note_off_c, 1, 62, 0
3, 51984, Note_on_c, 1, 60, 93
3, 52008, Note_off_c, 1, 60, 0
3, 52008, Note_on_c, 1, 59, 93
3, 52032, Note_off_c, 1, 59, 0
3, 52032, Note_on_c, 1, 60, 93
3, 52056, Note_off_c, 1, 60, 0
3, 52056, Note_on_c, 1, 59, 93
3, 52080, Note_off_c, 1, 59, 0
3, 52080, Note_on_c, 1, 60, 93
3, 52104, Note_off_c, 1, 60, 0
3, 52104, Note_on_c, 1, 62, 93
3, 52128, Note_off_c, 1, 62, 0
3, 52128, Note_on_c, 1, 60, 93
3, 52152, Note_off_c, 1, 60, 0
3, 52152, Note_on_c, 1, 64, 93
3, 52176, Note_off_c, 1, 64, 0
3, 52176, Note_on_c, 1, 62, 93
3, 52200, Note_off_c, 1, 62, 0
3, 52200, Note_on_c, 1, 60, 93
3, 52224, Note_off_c, 1, 60, 0
3, 52224, Note_on_c, 1, 59, 93
3, 52248, Note_off_c, 1, 59, 0
3, 52248, Note_on_c, 1, 57, 93
3, 52272, Note_off_c, 1, 57, 0
3, 52272, Note_on_c, 1, 59, 93
3, 52296, Note_off_c, 1, 59, 0
3, 52296, Note_on_c, 1, 60, 93
3, 52320, Note_off_c, 1, 60, 0
3, 52320, Note_on_c, 1, 59, 93
3, 52344, Note_off_c, 1, 59, 0
3, 52344, Note_on_c, 1, 60, 93
3, 52368, Note_off_c, 1, 60, 0
3, 52368, Note_on_c, 1, 57, 93
3, 52392, Note_off_c, 1, 57, 0
3, 52392, Note_on_c, 1, 59, 93
3, 52416, Note_off_c, 1, 59, 0
3, 52416, Note_on_c, 1, 61, 93
3, 52440, Note_off_c, 1, 61, 0
3, 52440, Note_on_c, 1, 59, 93
3, 52464, Note_off_c, 1, 59, 0
3, 52464, Note_on_c, 1, 61, 93
3, 52488, Note_off_c, 1, 61, 0
3, 52488, Note_on_c, 1, 62, 93
3, 52512, Note_off_c, 1, 62, 0
3, 52512, Note_on_c, 1, 61, 93
3, 52536, Note_off_c, 1, 61, 0
3, 52536, Note_on_c, 1, 62, 93
3, 52560, Note_off_c, 1, 62, 0
3, 52560, Note_on_c, 1, 59, 93
3, 52584, Note_off_c, 1, 59, 0
3, 52584, Note_on_c, 1, 61, 93
3, 52608, Note_off_c, 1, 61, 0
3, 52608, Note_on_c, 1, 62, 93
3, 52632, Note_off_c, 1, 62, 0
3, 52632, Note_on_c, 1, 61, 93
3, 52656, Note_off_c, 1, 61, 0
3, 52656, Note_on_c, 1, 62, 93
3, 52680, Note_off_c, 1, 62, 0
3, 52680, Note_on_c, 1, 64, 93
3, 52704, Note_off_c, 1, 64, 0
3, 52704, Note_on_c, 1, 62, 93
3, 52728, Note_off_c, 1, 62, 0
3, 52728, Note_on_c, 1, 64, 93
3, 52752, Note_off_c, 1, 64, 0
3, 52752, Note_on_c, 1, 66, 93
3, 52776, Note_off_c, 1, 66, 0
3, 52776, Note_on_c, 1, 62, 93
3, 52800, Note_off_c, 1, 62, 0
3, 52800, Note_on_c, 1, 67, 93
3, 53016, Note_off_c, 1, 67, 0
3, 53016, Note_on_c, 1, 67, 93
3, 53040, Note_off_c, 1, 67, 0
3, 53040, Note_on_c, 1, 69, 93
3, 53064, Note_off_c, 1, 69, 0
3, 53064, Note_on_c, 1, 71, 93
3, 53088, Note_off_c, 1, 71, 0
3, 53088, Note_on_c, 1, 72, 93
3, 53136, Note_off_c, 1, 72, 0
3, 53136, Note_on_c, 1, 72, 93
3, 53184, Note_off_c, 1, 72, 0
3, 53184, Note_on_c, 1, 72, 93
3, 53232, Note_off_c, 1, 72, 0
3, 53232, Note_on_c, 1, 71, 93
3, 53256, Note_off_c, 1, 71, 0
3, 53256, Note_on_c, 1, 69, 93
3, 53280, Note_off_c, 1, 69, 0
3, 53280, Note_on_c, 1, 67, 93
3, 53328, Note_off_c, 1, 67, 0
3, 53328, Note_on_c, 1, 71, 93
3, 53424, Note_off_c, 1, 71, 0
3, 53424, Note_on_c, 1, 72, 93
3, 53448, Note_off_c, 1, 72, 0
3, 53448, Note_on_c, 1, 71, 93
3, 53472, Note_off_c, 1, 71, 0
3, 53472, Note_on_c, 1, 69, 93
3, 53568, Note_off_c, 1, 69, 0
3, 53568, Note_on_c, 1, 67, 93
3, 53664, Note_off_c, 1, 67, 0
3, 53664, Note_on_c, 1, 55, 93
3, 53712, Note_off_c, 1, 55, 0
3, 53712, Note_on_c, 1, 55, 93
3, 53760, Note_off_c, 1, 55, 0
3, 53760, Note_on_c, 1, 60, 93
3, 53808, Note_off_c, 1, 60, 0
3, 53808, Note_on_c, 1, 60, 93
3, 53856, Note_off_c, 1, 60, 0
3, 53856, Note_on_c, 1, 60, 93
3, 53904, Note_off_c, 1, 60, 0
3, 53904, Note_on_c, 1, 60, 93
3, 53952, Note_off_c, 1, 60, 0
3, 53952, Note_on_c, 1, 60, 93
3, 54000, Note_off_c, 1, 60, 0
3, 54000, Note_on_c, 1, 59, 93
3, 54024, Note_off_c, 1, 59, 0
3, 54024, Note_on_c, 1, 57, 93
3, 54048, Note_off_c, 1, 57, 0
3, 54048, Note_on_c, 1, 59, 93
3, 54096, Note_off_c, 1, 59, 0
3, 54096, Note_on_c, 1, 55, 93
3, 54144, Note_off_c, 1, 55, 0
3, 54144, Note_on_c, 1, 64, 93
3, 54192, Note_off_c, 1, 64, 0
3, 54192, Note_on_c, 1, 64, 93
3, 54240, Note_off_c, 1, 64, 0
3, 54240, Note_on_c, 1, 64, 93
3, 54288, Note_off_c, 1, 64, 0
3, 54288, Note_on_c, 1, 64, 93
3, 54336, Note_off_c, 1, 64, 0
3, 54336, Note_on_c, 1, 64, 93
3, 54384, Note_off_c, 1, 64, 0
3, 54384, Note_on_c, 1, 62, 93
3, 54408, Note_off_c, 1, 62, 0
3, 54408, Note_on_c, 1, 60, 93
3, 54432, Note_off_c, 1, 60, 0
3, 54432, Note_on_c, 1, 62, 93
3, 54480, Note_off_c, 1, 62, 0
3, 54480, Note_on_c, 1, 62, 93
3, 54528, Note_off_c, 1, 62, 0
3, 54528, Note_on_c, 1, 62, 93
3, 54576, Note_off_c, 1, 62, 0
3, 54576, Note_on_c, 1, 55, 93
3, 54624, Note_off_c, 1, 55, 0
3, 54624, Note_on_c, 1, 60, 93
3, 54768, Note_off_c, 1, 60, 0
3, 54768, Note_on_c, 1, 62, 93
3, 54792, Note_off_c, 1, 62, 0
3, 54792, Note_on_c, 1, 60, 93
3, 54816, Note_off_c, 1, 60, 0
3, 54816, Note_on_c, 1, 62, 93
3, 54912, Note_off_c, 1, 62, 0
3, 54912, Note_on_c, 1, 60, 93
3, 55104, Note_off_c, 1, 60, 0
3, 55104, Note_on_c, 1, 55, 93
3, 55488, Note_off_c, 1, 55, 0
3, 55488, End_track
4, 0, Start_track
4, 0, Title_t, "Track4"
4, 0, Program_c, 2, 19
4, 0, Control_c, 2, 7, 100
4, 0, Control_c, 2, 10, 64
4, 3216, Note_on_c, 2, 43, 118
4, 3240, Note_off_c, 2, 43, 0
4, 3240, Note_on_c, 2, 42, 118
4, 3264, Note_off_c, 2, 42, 0
4, 3264, Note_on_c, 2, 43, 118
4, 3312, Note_off_c, 2, 43, 0
4, 3312, Note_on_c, 2, 38, 118
4, 3360, Note_off_c, 2, 38, 0
4, 3360, Note_on_c, 2, 47, 118
4, 3408, Note_off_c, 2, 47, 0
4, 3408, Note_on_c, 2, 43, 118
4, 3456, Note_off_c, 2, 43, 0
4, 3456, Note_on_c, 2, 45, 118
4, 3552, Note_off_c, 2, 45, 0
4, 3552, Note_on_c, 2, 38, 118
4, 3648, Note_off_c, 2, 38, 0
4, 3792, Note_on_c, 2, 45, 118
4, 3816, Note_off_c, 2, 45, 0
4, 3816, Note_on_c, 2, 43, 118
4, 3840, Note_off_c, 2, 43, 0
4, 3840, Note_on_c, 2, 45, 118
4, 3888, Note_off_c, 2, 45, 0
4, 3888, Note_on_c, 2, 38, 118
4, 3936, Note_off_c, 2, 38, 0
4, 3936, Note_on_c, 2, 48, 118
4, 3984, Note_off_c, 2, 48, 0
4, 3984, Note_on_c, 2, 45, 118
4, 4032, Note_off_c, 2, 45, 0
4, 4032, Note_on_c, 2, 47, 118
4, 4128, Note_off_c, 2, 47, 0
4, 4128, Note_on_c, 2, 38, 118
4, 4224, Note_off_c, 2, 38, 0
4, 4344, Note_on_c, 2, 47, 118
4, 4368, Note_off_c, 2, 47, 0
4, 4368, Note_on_c, 2, 45, 118
4, 4392, Note_off_c, 2, 45, 0
4, 4392, Note_on_c, 2, 47, 118
4, 4416, Note_off_c, 2, 47, 0
4, 4416, Note_on_c, 2, 43, 118
4, 4440, Note_off_c, 2, 43, 0
4, 4440, Note_on_c, 2, 45, 118
4, 4464, Note_off_c, 2, 45, 0
4, 4464, Note_on_c, 2, 41, 118
4, 4488, Note_off_c, 2, 41, 0
4, 4488, Note_on_c, 2, 43, 118
4, 4512, Note_off_c, 2, 43, 0
4, 4512, Note_on_c, 2, 40, 118
4, 4536, Note_off_c, 2, 40, 0
4, 4536, Note_on_c, 2, 41, 118
4, 4560, Note_off_c, 2, 41, 0
4, 4560, Note_on_c, 2, 38, 118
4, 4584, Note_off_c, 2, 38, 0
4, 4584, Note_on_c, 2, 40, 118
4, 4608, Note_off_c, 2, 40, 0
4, 4608, Note_on_c, 2, 36, 118
4, 4632, Note_off_c, 2, 36, 0
4, 4632, Note_on_c, 2, 48, 118
4, 4656, Note_off_c, 2, 48, 0
4, 4656, Note_on_c, 2, 47, 118
4, 4680, Note_off_c, 2, 47, 0
4, 4680, Note_on_c, 2, 48, 118
4, 4704, Note_off_c, 2, 48, 0
4, 4704, Note_on_c, 2, 45, 118
4, 4728, Note_off_c, 2, 45, 0
4, 4728, Note_on_c, 2, 47, 118
4, 4752, Note_off_c, 2, 47, 0
4, 4752, Note_on_c, 2, 43, 118
4, 4776, Note_off_c, 2, 43, 0
4, 4776, Note_on_c, 2, 45, 118
4, 4800, Note_off_c, 2, 45, 0
4, 4800, Note_on_c, 2, 42, 118
4, 4824, Note_off_c, 2, 42, 0
4, 4824, Note_on_c, 2, 43, 118
4, 4848, Note_off_c, 2, 43, 0
4, 4848, Note_on_c, 2, 40, 118
4, 4872, Note_off_c, 2, 40, 0
4, 4872, Note_on_c, 2, 42, 118
4, 4896, Note_off_c, 2, 42, 0
4, 4896, Note_on_c, 2, 38, 118
4, 4992, Note_off_c, 2, 38, 0
4, 5040, Note_on_c, 2, 38, 118
4, 5088, Note_off_c, 2, 38, 0
4, 5088, Note_on_c, 2, 38, 118
4, 5136, Note_off_c, 2, 38, 0
4, 5136, Note_on_c, 2, 38, 118
4, 5184, Note_off_c, 2, 38, 0
4, 5184, Note_on_c, 2, 38, 118
4, 5280, Note_off_c, 2, 38, 0
4, 5328, Note_on_c, 2, 38, 118
4, 5376, Note_off_c, 2, 38, 0
4, 5376, Note_on_c, 2, 38, 118
4, 5424, Note_off_c, 2, 38, 0
4, 5424, Note_on_c, 2, 38, 118
4, 5472, Note_off_c, 2, 38, 0
4, 5472, Note_on_c, 2, 38, 118
4, 5568, Note_off_c, 2, 38, 0
4, 5616, Note_on_c, 2, 38, 118
4, 5664, Note_off_c, 2, 38, 0
4, 5664, Note_on_c, 2, 38, 118
4, 5712, Note_off_c, 2, 38, 0
4, 5712, Note_on_c, 2, 38, 118
4, 5760, Note_off_c, 2, 38, 0
4, 5760, Note_on_c, 2, 31, 118
4, 5784, Note_off_c, 2, 31, 0
4, 5784, Note_on_c, 2, 47, 118
4, 5808, Note_off_c, 2, 47, 0
4, 5808, Note_on_c, 2, 45, 118
4, 5832, Note_off_c, 2, 45, 0
4, 5832, Note_on_c, 2, 47, 118
4, 5856, Note_off_c, 2, 47, 0
4, 5856, Note_on_c, 2, 43, 118
4, 5880, Note_off_c, 2, 43, 0
4, 5880, Note_on_c, 2, 47, 118
4, 5904, Note_off_c, 2, 47, 0
4, 5904, Note_on_c, 2, 42, 118
4, 5928, Note_off_c, 2, 42, 0
4, 5928, Note_on_c, 2, 47, 118
4, 5952, Note_off_c, 2, 47, 0
4, 5952, Note_on_c, 2, 40, 118
4, 5976, Note_off_c, 2, 40, 0
4, 5976, Note_on_c, 2, 47, 118
4, 6000, Note_off_c, 2, 47, 0
4, 6000, Note_on_c, 2, 38, 118
4, 6024, Note_off_c, 2, 38, 0
4, 6024, Note_on_c, 2, 47, 118
4, 6048, Note_off_c, 2, 47, 0
4, 6048, Note_on_c, 2, 37, 118
4, 6072, Note_off_c, 2, 37, 0
4, 6072, Note_on_c, 2, 45, 118
4, 6096, Note_off_c, 2, 45, 0
4, 6096, Note_on_c, 2, 43, 118
4, 6120, Note_off_c, 2, 43, 0
4, 6120, Note_on_c, 2, 45, 118
4, 6144, Note_off_c, 2, 45, 0
4, 6144, Note_on_c, 2, 42, 118
4, 6168, Note_off_c, 2, 42, 0
4, 6168, Note_on_c, 2, 45, 118
4, 6192, Note_off_c, 2, 45, 0
4, 6192, Note_on_c, 2, 40, 118
4, 6216, Note_off_c, 2, 40, 0
4, 6216, Note_on_c, 2, 45, 118
4, 6240, Note_off_c, 2, 45, 0
4, 6240, Note_on_c, 2, 38, 118
4, 6264, Note_off_c, 2, 38, 0
4, 6264, Note_on_c, 2, 45, 118
4, 6288, Note_off_c, 2, 45, 0
4, 6288, Note_on_c, 2, 37, 118
4, 6312, Note_off_c, 2, 37, 0
4, 6312, Note_on_c, 2, 45, 118
4, 6336, Note_off_c, 2, 45, 0
4, 6336, Note_on_c, 2, 35, 118
4, 6360, Note_off_c, 2, 35, 0
4, 6360, Note_on_c, 2, 43, 118
4, 6384, Note_off_c, 2, 43, 0
4, 6384, Note_on_c, 2, 42, 118
4, 6408, Note_off_c, 2, 42, 0
4, 6408, Note_on_c, 2, 43, 118
4, 6432, Note_off_c, 2, 43, 0
4, 6432, Note_on_c, 2, 40, 118
4, 6456, Note_off_c, 2, 40, 0
4, 6456, Note_on_c, 2, 43, 118
4, 6480, Note_off_c, 2, 43, 0
4, 6480, Note_on_c, 2, 38, 118
4, 6504, Note_off_c, 2, 38, 0
4, 6504, Note_on_c, 2, 43, 118
4, 6528, Note_off_c, 2, 43, 0
4, 6528, Note_on_c, 2, 37, 118
4, 6552, Note_off_c, 2, 37, 0
4, 6552, Note_on_c, 2, 43, 118
4, 6576, Note_off_c, 2, 43, 0
4, 6576, Note_on_c, 2, 35, 118
4, 6600, Note_off_c, 2, 35, 0
4, 6600, Note_on_c, 2, 43, 118
4, 6624, Note_off_c, 2, 43, 0
4, 6624, Note_on_c, 2, 33, 118
4, 6672, Note_off_c, 2, 33, 0
4, 6912, Note_on_c, 2, 33, 118
4, 6960, Note_off_c, 2, 33, 0
4, 7200, Note_on_c, 2, 33, 118
4, 7248, Note_off_c, 2, 33, 0
4, 7536, Note_on_c, 2, 33, 118
4, 7584, Note_off_c, 2, 33, 0
4, 7584, Note_on_c, 2, 35, 118
4, 7632, Note_off_c, 2, 35, 0
4, 7632, Note_on_c, 2, 37, 118
4, 7680, Note_off_c, 2, 37, 0
4, 7680, Note_on_c, 2, 38, 118
4, 7728, Note_off_c, 2, 38, 0
4, 7728, Note_on_c, 2, 40, 118
4, 7776, Note_off_c, 2, 40, 0
4, 7776, Note_on_c, 2, 42, 118
4, 7824, Note_off_c, 2, 42, 0
4, 7824, Note_on_c, 2, 43, 118
4, 7872, Note_off_c, 2, 43, 0
4, 7872, Note_on_c, 2, 45, 118
4, 7920, Note_off_c, 2, 45, 0
4, 7920, Note_on_c, 2, 44, 118
4, 7968, Note_off_c, 2, 44, 0
4, 7968, Note_on_c, 2, 45, 118
4, 8016, Note_off_c, 2, 45, 0
4, 8016, Note_on_c, 2, 33, 118
4, 8064, Note_off_c, 2, 33, 0
4, 8064, Note_on_c, 2, 38, 118
4, 8160, Note_off_c, 2, 38, 0
4, 8976, Note_on_c, 2, 39, 118
4, 9000, Note_off_c, 2, 39, 0
4, 9000, Note_on_c, 2, 37, 118
4, 9024, Note_off_c, 2, 37, 0
4, 9024, Note_on_c, 2, 39, 118
4, 9072, Note_off_c, 2, 39, 0
4, 9072, Note_on_c, 2, 35, 118
4, 9120, Note_off_c, 2, 35, 0
4, 9120, Note_on_c, 2, 42, 118
4, 9168, Note_off_c, 2, 42, 0
4, 9168, Note_on_c, 2, 39, 118
4, 9216, Note_off_c, 2, 39, 0
4, 9216, Note_on_c, 2, 40, 118
4, 9312, Note_off_c, 2, 40, 0
4, 9312, Note_on_c, 2, 28, 118
4, 9408, Note_off_c, 2, 28, 0
4, 9552, Note_on_c, 2, 40, 118
4, 9576, Note_off_c, 2, 40, 0
4, 9576, Note_on_c, 2, 39, 118
4, 9600, Note_off_c, 2, 39, 0
4, 9600, Note_on_c, 2, 40, 118
4, 9648, Note_off_c, 2, 40, 0
4, 9648, Note_on_c, 2, 35, 118
4, 9696, Note_off_c, 2, 35, 0
4, 9696, Note_on_c, 2, 43, 118
4, 9744, Note_off_c, 2, 43, 0
4, 9744, Note_on_c, 2, 40, 118
4, 9792, Note_off_c, 2, 40, 0
4, 9792, Note_on_c, 2, 42, 118
4, 9888, Note_off_c, 2, 42, 0
4, 9888, Note_on_c, 2, 30, 118
4, 9984, Note_off_c, 2, 30, 0
4, 10128, Note_on_c, 2, 42, 118
4, 10152, Note_off_c, 2, 42, 0
4, 10152, Note_on_c, 2, 40, 118
4, 10176, Note_off_c, 2, 40, 0
4, 10176, Note_on_c, 2, 42, 118
4, 10224, Note_off_c, 2, 42, 0
4, 10224, Note_on_c, 2, 38, 118
4, 10272, Note_off_c, 2, 38, 0
4, 10272, Note_on_c, 2, 45, 118
4, 10320, Note_off_c, 2, 45, 0
4, 10320, Note_on_c, 2, 42, 118
4, 10368, Note_off_c, 2, 42, 0
4, 10368, Note_on_c, 2, 43, 118
4, 10464, Note_off_c, 2, 43, 0
4, 10464, Note_on_c, 2, 31, 118
4, 10560, Note_off_c, 2, 31, 0
4, 10680, Note_on_c, 2, 43, 118
4, 10704, Note_off_c, 2, 43, 0
4, 10704, Note_on_c, 2, 42, 118
4, 10728, Note_off_c, 2, 42, 0
4, 10728, Note_on_c, 2, 43, 118
4, 10752, Note_off_c, 2, 43, 0
4, 10752, Note_on_c, 2, 40, 118
4, 10776, Note_off_c, 2, 40, 0
4, 10776, Note_on_c, 2, 43, 118
4, 10800, Note_off_c, 2, 43, 0
4, 10800, Note_on_c, 2, 38, 118
4, 10824, Note_off_c, 2, 38, 0
4, 10824, Note_on_c, 2, 43, 118
4, 10848, Note_off_c, 2, 43, 0
4, 10848, Note_on_c, 2, 37, 118
4, 10872, Note_off_c, 2, 37, 0
4, 10872, Note_on_c, 2, 43, 118
4, 10896, Note_off_c, 2, 43, 0
4, 10896, Note_on_c, 2, 35, 118
4, 10920, Note_off_c, 2, 35, 0
4, 10920, Note_on_c, 2, 43, 118
4, 10944, Note_off_c, 2, 43, 0
4, 10944, Note_on_c, 2, 34, 118
4, 11040, Note_off_c, 2, 34, 0
4, 11232, Note_on_c, 2, 37, 118
4, 11328, Note_off_c, 2, 37, 0
4, 11520, Note_on_c, 2, 40, 118
4, 11616, Note_off_c, 2, 40, 0
4, 11856, Note_on_c, 2, 38, 118
4, 11904, Note_off_c, 2, 38, 0
4, 11904, Note_on_c, 2, 43, 118
4, 11952, Note_off_c, 2, 43, 0
4, 11952, Note_on_c, 2, 40, 118
4, 12000, Note_off_c, 2, 40, 0
4, 12000, Note_on_c, 2, 42, 118
4, 12048, Note_off_c, 2, 42, 0
4, 12048, Note_on_c, 2, 30, 118
4, 12096, Note_off_c, 2, 30, 0
4, 12096, Note_on_c, 2, 35, 118
4, 12192, Note_off_c, 2, 35, 0
4, 12384, Note_on_c, 2, 35, 118
4, 12480, Note_off_c, 2, 35, 0
4, 12720, Note_on_c, 2, 38, 118
4, 12768, Note_off_c, 2, 38, 0
4, 12768, Note_on_c, 2, 43, 118
4, 12816, Note_off_c, 2, 43, 0
4, 12816, Note_on_c, 2, 40, 118
4, 12864, Note_off_c, 2, 40, 0
4, 12864, Note_on_c, 2, 42, 118
4, 12912, Note_off_c, 2, 42, 0
4, 12912, Note_on_c, 2, 30, 118
4, 12954, Note_off_c, 2, 30, 0
4, 12960, Note_on_c, 2, 35, 118
4, 13056, Note_off_c, 2, 35, 0
4, 13296, Note_on_c, 2, 44, 118
4, 13320, Note_off_c, 2, 44, 0
4, 13320, Note_on_c, 2, 42, 118
4, 13344, Note_off_c, 2, 42, 0
4, 13344, Note_on_c, 2, 44, 118
4, 13392, Note_off_c, 2, 44, 0
4, 13392, Note_on_c, 2, 40, 118
4, 13440, Note_off_c, 2, 40, 0
4, 13440, Note_on_c, 2, 47, 118
4, 13488, Note_off_c, 2, 47, 0
4, 13488, Note_on_c, 2, 44, 118
4, 13536, Note_off_c, 2, 44, 0
4, 13536, Note_on_c, 2, 45, 118
4, 13632, Note_off_c, 2, 45, 0
4, 13632, Note_on_c, 2, 33, 118
4, 13728, Note_off_c, 2, 33, 0
4, 13848, Note_on_c, 2, 48, 118
4, 13872, Note_off_c, 2, 48, 0
4, 13872, Note_on_c, 2, 47, 118
4, 13896, Note_off_c, 2, 47, 0
4, 13896, Note_on_c, 2, 48, 118
4, 13920, Note_off_c, 2, 48, 0
4, 13920, Note_on_c, 2, 45, 118
4, 13944, Note_off_c, 2, 45, 0
4, 13944, Note_on_c, 2, 48, 118
4, 13968, Note_off_c, 2, 48, 0
4, 13968, Note_on_c, 2, 43, 118
4, 13992, Note_off_c, 2, 43, 0
4, 13992, Note_on_c, 2, 48, 118
4, 14016, Note_off_c, 2, 48, 0
4, 14016, Note_on_c, 2, 42, 118
4, 14040, Note_off_c, 2, 42, 0
4, 14040, Note_on_c, 2, 48, 118
4, 14064, Note_off_c, 2, 48, 0
4, 14064, Note_on_c, 2, 40, 118
4, 14088, Note_off_c, 2, 40, 0
4, 14088, Note_on_c, 2, 48, 118
4, 14112, Note_off_c, 2, 48, 0
4, 14112, Note_on_c, 2, 38, 118
4, 14208, Note_off_c, 2, 38, 0
4, 14208, Note_on_c, 2, 50, 118
4, 14304, Note_off_c, 2, 50, 0
4, 14448, Note_on_c, 2, 42, 118
4, 14472, Note_off_c, 2, 42, 0
4, 14472, Note_on_c, 2, 40, 118
4, 14496, Note_off_c, 2, 40, 0
4, 14496, Note_on_c, 2, 42, 118
4, 14544, Note_off_c, 2, 42, 0
4, 14544, Note_on_c, 2, 38, 118
4, 14592, Note_off_c, 2, 38, 0
4, 14592, Note_on_c, 2, 45, 118
4, 14640, Note_off_c, 2, 45, 0
4, 14640, Note_on_c, 2, 42, 118
4, 14688, Note_off_c, 2, 42, 0
4, 14688, Note_on_c, 2, 43, 118
4, 14784, Note_off_c, 2, 43, 0
4, 14784, Note_on_c, 2, 31, 118
4, 14880, Note_off_c, 2, 31, 0
4, 15072, Note_on_c, 2, 43, 118
4, 15360, Note_off_c, 2, 43, 0
4, 15360, Note_on_c, 2, 42, 118
4, 15552, Note_off_c, 2, 42, 0
4, 15552, Note_on_c, 2, 41, 118
4, 15840, Note_off_c, 2, 41, 0
4, 15840, Note_on_c, 2, 40, 118
4, 16128, Note_off_c, 2, 40, 0
4, 16128, Note_on_c, 2, 42, 118
4, 16224, Note_off_c, 2, 42, 0
4, 16464, Note_on_c, 2, 35, 118
4, 16512, Note_off_c, 2, 35, 0
4, 16512, Note_on_c, 2, 36, 118
4, 16560, Note_off_c, 2, 36, 0
4, 16560, Note_on_c, 2, 33, 118
4, 16608, Note_off_c, 2, 33, 0
4, 16608, Note_on_c, 2, 38, 118
4, 16656, Note_off_c, 2, 38, 0
4, 16656, Note_on_c, 2, 26, 118
4, 16704, Note_off_c, 2, 26, 0
4, 16704, Note_on_c, 2, 31, 118
4, 16800, Note_off_c, 2, 31, 0
4, 16848, Note_on_c, 2, 31, 118
4, 16896, Note_off_c, 2, 31, 0
4, 16896, Note_on_c, 2, 35, 118
4, 16944, Note_off_c, 2, 35, 0
4, 16944, Note_on_c, 2, 31, 118
4, 16992, Note_off_c, 2, 31, 0
4, 16992, Note_on_c, 2, 38, 118
4, 17088, Note_off_c, 2, 38, 0
4, 17136, Note_on_c, 2, 38, 118
4, 17184, Note_off_c, 2, 38, 0
4, 17184, Note_on_c, 2, 42, 118
4, 17232, Note_off_c, 2, 42, 0
4, 17232, Note_on_c, 2, 38, 118
4, 17280, Note_off_c, 2, 38, 0
4, 17280, Note_on_c, 2, 43, 118
4, 17304, Note_off_c, 2, 43, 0
4, 17304, Note_on_c, 2, 47, 118
4, 17328, Note_off_c, 2, 47, 0
4, 17328, Note_on_c, 2, 45, 118
4, 17352, Note_off_c, 2, 45, 0
4, 17352, Note_on_c, 2, 47, 118
4, 17376, Note_off_c, 2, 47, 0
4, 17376, Note_on_c, 2, 43, 118
4, 17400, Note_off_c, 2, 43, 0
4, 17400, Note_on_c, 2, 45, 118
4, 17424, Note_off_c, 2, 45, 0
4, 17424, Note_on_c, 2, 41, 118
4, 17448, Note_off_c, 2, 41, 0
4, 17448, Note_on_c, 2, 43, 118
4, 17472, Note_off_c, 2, 43, 0
4, 17472, Note_on_c, 2, 40, 118
4, 17496, Note_off_c, 2, 40, 0
4, 17496, Note_on_c, 2, 41, 118
4, 17520, Note_off_c, 2, 41, 0
4, 17520, Note_on_c, 2, 38, 118
4, 17544, Note_off_c, 2, 38, 0
4, 17544, Note_on_c, 2, 40, 118
4, 17568, Note_off_c, 2, 40, 0
4, 17568, Note_on_c, 2, 36, 118
4, 17592, Note_off_c, 2, 36, 0
4, 17592, Note_on_c, 2, 48, 118
4, 17616, Note_off_c, 2, 48, 0
4, 17616, Note_on_c, 2, 47, 118
4, 17640, Note_off_c, 2, 47, 0
4, 17640, Note_on_c, 2, 48, 118
4, 17664, Note_off_c, 2, 48, 0
4, 17664, Note_on_c, 2, 45, 118
4, 17688, Note_off_c, 2, 45, 0
4, 17688, Note_on_c, 2, 47, 118
4, 17712, Note_off_c, 2, 47, 0
4, 17712, Note_on_c, 2, 43, 118
4, 17736, Note_off_c, 2, 43, 0
4, 17736, Note_on_c, 2, 45, 118
4, 17760, Note_off_c, 2, 45, 0
4, 17760, Note_on_c, 2, 42, 118
4, 17784, Note_off_c, 2, 42, 0
4, 17784, Note_on_c, 2, 43, 118
4, 17808, Note_off_c, 2, 43, 0
4, 17808, Note_on_c, 2, 40, 118
4, 17832, Note_off_c, 2, 40, 0
4, 17832, Note_on_c, 2, 42, 118
4, 17856, Note_off_c, 2, 42, 0
4, 17856, Note_on_c, 2, 38, 118
4, 17952, Note_off_c, 2, 38, 0
4, 18000, Note_on_c, 2, 38, 118
4, 18048, Note_off_c, 2, 38, 0
4, 18048, Note_on_c, 2, 38, 118
4, 18096, Note_off_c, 2, 38, 0
4, 18096, Note_on_c, 2, 38, 118
4, 18144, Note_off_c, 2, 38, 0
4, 18144, Note_on_c, 2, 38, 118
4, 18240, Note_off_c, 2, 38, 0
4, 18288, Note_on_c, 2, 38, 118
4, 18336, Note_off_c, 2, 38, 0
4, 18336, Note_on_c, 2, 38, 118
4, 18384, Note_off_c, 2, 38, 0
4, 18384, Note_on_c, 2, 38, 118
4, 18432, Note_off_c, 2, 38, 0
4, 18432, Note_on_c, 2, 38, 118
4, 18528, Note_off_c, 2, 38, 0
4, 18576, Note_on_c, 2, 38, 118
4, 18624, Note_off_c, 2, 38, 0
4, 18624, Note_on_c, 2, 38, 118
4, 18672, Note_off_c, 2, 38, 0
4, 18672, Note_on_c, 2, 38, 118
4, 18720, Note_off_c, 2, 38, 0
4, 18720, Note_on_c, 2, 38, 118
4, 18816, Note_off_c, 2, 38, 0
4, 18864, Note_on_c, 2, 38, 118
4, 18912, Note_off_c, 2, 38, 0
4, 18912, Note_on_c, 2, 38, 118
4, 18960, Note_off_c, 2, 38, 0
4, 18960, Note_on_c, 2, 38, 118
4, 19008, Note_off_c, 2, 38, 0
4, 19008, Note_on_c, 2, 38, 118
4, 19104, Note_off_c, 2, 38, 0
4, 19152, Note_on_c, 2, 38, 118
4, 19200, Note_off_c, 2, 38, 0
4, 19200, Note_on_c, 2, 38, 118
4, 19248, Note_off_c, 2, 38, 0
4, 19248, Note_on_c, 2, 38, 118
4, 19296, Note_off_c, 2, 38, 0
4, 19296, Note_on_c, 2, 38, 118
4, 19392, Note_off_c, 2, 38, 0
4, 19440, Note_on_c, 2, 38, 118
4, 19488, Note_off_c, 2, 38, 0
4, 19488, Note_on_c, 2, 38, 118
4, 19536, Note_off_c, 2, 38, 0
4, 19536, Note_on_c, 2, 38, 118
4, 19584, Note_off_c, 2, 38, 0
4, 19584, Note_on_c, 2, 38, 118
4, 19680, Note_off_c, 2, 38, 0
4, 19728, Note_on_c, 2, 38, 118
4, 19776, Note_off_c, 2, 38, 0
4, 19776, Note_on_c, 2, 38, 118
4, 19824, Note_off_c, 2, 38, 0
4, 19824, Note_on_c, 2, 38, 118
4, 19872, Note_off_c, 2, 38, 0
4, 19872, Note_on_c, 2, 38, 118
4, 19920, Note_off_c, 2, 38, 0
4, 19920, Note_on_c, 2, 38, 118
4, 19968, Note_off_c, 2, 38, 0
4, 19968, Note_on_c, 2, 38, 118
4, 20016, Note_off_c, 2, 38, 0
4, 20016, Note_on_c, 2, 38, 118
4, 20064, Note_off_c, 2, 38, 0
4, 20064, Note_on_c, 2, 38, 118
4, 20112, Note_off_c, 2, 38, 0
4, 20112, Note_on_c, 2, 38, 118
4, 20160, Note_off_c, 2, 38, 0
4, 20160, Note_on_c, 2, 40, 118
4, 20208, Note_off_c, 2, 40, 0
4, 20208, Note_on_c, 2, 43, 118
4, 20256, Note_off_c, 2, 43, 0
4, 20256, Note_on_c, 2, 36, 118
4, 20280, Note_off_c, 2, 36, 0
4, 20280, Note_on_c, 2, 48, 118
4, 20304, Note_off_c, 2, 48, 0
4, 20304, Note_on_c, 2, 47, 118
4, 20328, Note_off_c, 2, 47, 0
4, 20328, Note_on_c, 2, 48, 118
4, 20352, Note_off_c, 2, 48, 0
4, 20352, Note_on_c, 2, 45, 118
4, 20376, Note_off_c, 2, 45, 0
4, 20376, Note_on_c, 2, 48, 118
4, 20400, Note_off_c, 2, 48, 0
4, 20400, Note_on_c, 2, 43, 118
4, 20424, Note_off_c, 2, 43, 0
4, 20424, Note_on_c, 2, 48, 118
4, 20448, Note_off_c, 2, 48, 0
4, 20448, Note_on_c, 2, 42, 118
4, 20544, Note_off_c, 2, 42, 0
4, 20568, Note_on_c, 2, 47, 118
4, 20592, Note_off_c, 2, 47, 0
4, 20592, Note_on_c, 2, 45, 118
4, 20616, Note_off_c, 2, 45, 0
4, 20616, Note_on_c, 2, 47, 118
4, 20640, Note_off_c, 2, 47, 0
4, 20640, Note_on_c, 2, 43, 118
4, 20664, Note_off_c, 2, 43, 0
4, 20664, Note_on_c, 2, 47, 118
4, 20688, Note_off_c, 2, 47, 0
4, 20688, Note_on_c, 2, 42, 118
4, 20712, Note_off_c, 2, 42, 0
4, 20712, Note_on_c, 2, 47, 118
4, 20736, Note_off_c, 2, 47, 0
4, 20736, Note_on_c, 2, 40, 118
4, 20832, Note_off_c, 2, 40, 0
4, 20856, Note_on_c, 2, 45, 118
4, 20880, Note_off_c, 2, 45, 0
4, 20880, Note_on_c, 2, 43, 118
4, 20904, Note_off_c, 2, 43, 0
4, 20904, Note_on_c, 2, 45, 118
4, 20928, Note_off_c, 2, 45, 0
4, 20928, Note_on_c, 2, 42, 118
4, 20952, Note_off_c, 2, 42, 0
4, 20952, Note_on_c, 2, 45, 118
4, 20976, Note_off_c, 2, 45, 0
4, 20976, Note_on_c, 2, 40, 118
4, 21000, Note_off_c, 2, 40, 0
4, 21000, Note_on_c, 2, 45, 118
4, 21024, Note_off_c, 2, 45, 0
4, 21024, Note_on_c, 2, 38, 118
4, 21120, Note_off_c, 2, 38, 0
4, 21312, Note_on_c, 2, 38, 118
4, 21408, Note_off_c, 2, 38, 0
4, 21600, Note_on_c, 2, 38, 118
4, 21696, Note_off_c, 2, 38, 0
4, 21936, Note_on_c, 2, 26, 118
4, 21984, Note_off_c, 2, 26, 0
4, 21984, Note_on_c, 2, 28, 118
4, 22032, Note_off_c, 2, 28, 0
4, 22032, Note_on_c, 2, 30, 118
4, 22080, Note_off_c, 2, 30, 0
4, 22080, Note_on_c, 2, 31, 118
4, 22128, Note_off_c, 2, 31, 0
4, 22128, Note_on_c, 2, 33, 118
4, 22176, Note_off_c, 2, 33, 0
4, 22176, Note_on_c, 2, 35, 118
4, 22224, Note_off_c, 2, 35, 0
4, 22224, Note_on_c, 2, 36, 118
4, 22272, Note_off_c, 2, 36, 0
4, 22272, Note_on_c, 2, 38, 118
4, 22320, Note_off_c, 2, 38, 0
4, 22320, Note_on_c, 2, 36, 118
4, 22368, Note_off_c, 2, 36, 0
4, 22368, Note_on_c, 2, 38, 118
4, 22416, Note_off_c, 2, 38, 0
4, 22416, Note_on_c, 2, 26, 118
4, 22464, Note_off_c, 2, 26, 0
4, 22464, Note_on_c, 2, 31, 118
4, 22560, Note_off_c, 2, 31, 0
4, 22752, Note_on_c, 2, 31, 118
4, 22848, Note_off_c, 2, 31, 0
4, 23088, Note_on_c, 2, 35, 118
4, 23136, Note_off_c, 2, 35, 0
4, 23136, Note_on_c, 2, 40, 118
4, 23184, Note_off_c, 2, 40, 0
4, 23184, Note_on_c, 2, 36, 118
4, 23232, Note_off_c, 2, 36, 0
4, 23232, Note_on_c, 2, 38, 118
4, 23268, Note_off_c, 2, 38, 0
4, 23280, Note_on_c, 2, 26, 118
4, 23316, Note_off_c, 2, 26, 0
4, 23328, Note_on_c, 2, 31, 118
4, 23520, Note_off_c, 2, 31, 0
4, 26352, Note_on_c, 2, 38, 93
4, 26400, Note_off_c, 2, 38, 0
4, 26400, Note_on_c, 2, 38, 93
4, 26448, Note_off_c, 2, 38, 0
4, 26448, Note_on_c, 2, 38, 93
4, 26496, Note_off_c, 2, 38, 0
4, 26496, Note_on_c, 2, 43, 93
4, 26544, Note_off_c, 2, 43, 0
4, 26544, Note_on_c, 2, 43, 93
4, 26592, Note_off_c, 2, 43, 0
4, 26592, Note_on_c, 2, 43, 93
4, 26640, Note_off_c, 2, 43, 0
4, 26640, Note_on_c, 2, 43, 93
4, 26688, Note_off_c, 2, 43, 0
4, 26688, Note_on_c, 2, 43, 93
4, 26736, Note_off_c, 2, 43, 0
4, 26736, Note_on_c, 2, 42, 93
4, 26760, Note_off_c, 2, 42, 0
4, 26760, Note_on_c, 2, 40, 93
4, 26784, Note_off_c, 2, 40, 0
4, 26784, Note_on_c, 2, 42, 93
4, 26832, Note_off_c, 2, 42, 0
4, 26832, Note_on_c, 2, 38, 93
4, 26880, Note_off_c, 2, 38, 0
4, 26880, Note_on_c, 2, 47, 93
4, 26928, Note_off_c, 2, 47, 0
4, 26928, Note_on_c, 2, 47, 93
4, 26976, Note_off_c, 2, 47, 0
4, 26976, Note_on_c, 2, 47, 93
4, 27024, Note_off_c, 2, 47, 0
4, 27024, Note_on_c, 2, 47, 93
4, 27072, Note_off_c, 2, 47, 0
4, 27072, Note_on_c, 2, 47, 93
4, 27120, Note_off_c, 2, 47, 0
4, 27120, Note_on_c, 2, 45, 93
4, 27144, Note_off_c, 2, 45, 0
4, 27144, Note_on_c, 2, 43, 93
4, 27168, Note_off_c, 2, 43, 0
4, 27168, Note_on_c, 2, 45, 93
4, 27216, Note_off_c, 2, 45, 0
4, 27216, Note_on_c, 2, 45, 93
4, 27264, Note_off_c, 2, 45, 0
4, 27264, Note_on_c, 2, 45, 93
4, 27312, Note_off_c, 2, 45, 0
4, 27312, Note_on_c, 2, 38, 93
4, 27360, Note_off_c, 2, 38, 0
4, 27360, Note_on_c, 2, 43, 93
4, 27552, Note_off_c, 2, 43, 0
4, 27552, Note_on_c, 2, 42, 93
4, 27648, Note_off_c, 2, 42, 0
4, 27648, Note_on_c, 2, 43, 93
4, 27744, Note_off_c, 2, 43, 0
4, 27792, Note_on_c, 2, 43, 93
4, 27840, Note_off_c, 2, 43, 0
4, 27840, Note_on_c, 2, 45, 93
4, 27888, Note_off_c, 2, 45, 0
4, 27888, Note_on_c, 2, 43, 93
4, 27936, Note_off_c, 2, 43, 0
4, 27936, Note_on_c, 2, 45, 93
4, 27984, Note_off_c, 2, 45, 0
4, 27984, Note_on_c, 2, 42, 93
4, 28032, Note_off_c, 2, 42, 0
4, 28032, Note_on_c, 2, 47, 93
4, 28080, Note_off_c, 2, 47, 0
4, 28080, Note_on_c, 2, 45, 93
4, 28128, Note_off_c, 2, 45, 0
4, 28128, Note_on_c, 2, 43, 93
4, 28176, Note_off_c, 2, 43, 0
4, 28176, Note_on_c, 2, 42, 93
4, 28224, Note_off_c, 2, 42, 0
4, 28224, Note_on_c, 2, 40, 93
4, 28272, Note_off_c, 2, 40, 0
4, 28272, Note_on_c, 2, 38, 93
4, 28320, Note_off_c, 2, 38, 0
4, 28320, Note_on_c, 2, 37, 93
4, 28368, Note_off_c, 2, 37, 0
4, 28368, Note_on_c, 2, 35, 93
4, 28416, Note_off_c, 2, 35, 0
4, 28416, Note_on_c, 2, 33, 93
4, 28464, Note_off_c, 2, 33, 0
4, 28464, Note_on_c, 2, 43, 93
4, 28512, Note_off_c, 2, 43, 0
4, 28512, Note_on_c, 2, 42, 93
4, 28560, Note_off_c, 2, 42, 0
4, 28560, Note_on_c, 2, 40, 93
4, 28608, Note_off_c, 2, 40, 0
4, 28608, Note_on_c, 2, 38, 93
4, 28632, Note_off_c, 2, 38, 0
4, 28632, Note_on_c, 2, 42, 93
4, 28656, Note_off_c, 2, 42, 0
4, 28656, Note_on_c, 2, 40, 93
4, 28680, Note_off_c, 2, 40, 0
4, 28680, Note_on_c, 2, 42, 93
4, 28704, Note_off_c, 2, 42, 0
4, 28704, Note_on_c, 2, 38, 93
4, 28728, Note_off_c, 2, 38, 0
4, 28728, Note_on_c, 2, 40, 93
4, 28752, Note_off_c, 2, 40, 0
4, 28752, Note_on_c, 2, 37, 93
4, 28776, Note_off_c, 2, 37, 0
4, 28776, Note_on_c, 2, 38, 93
4, 28800, Note_off_c, 2, 38, 0
4, 28800, Note_on_c, 2, 35, 93
4, 28824, Note_off_c, 2, 35, 0
4, 28824, Note_on_c, 2, 40, 93
4, 28848, Note_off_c, 2, 40, 0
4, 28848, Note_on_c, 2, 38, 93
4, 28872, Note_off_c, 2, 38, 0
4, 28872, Note_on_c, 2, 40, 93
4, 28896, Note_off_c, 2, 40, 0
4, 28896, Note_on_c, 2, 37, 93
4, 28920, Note_off_c, 2, 37, 0
4, 28920, Note_on_c, 2, 38, 93
4, 28944, Note_off_c, 2, 38, 0
4, 28944, Note_on_c, 2, 35, 93
4, 28968, Note_off_c, 2, 35, 0
4, 28968, Note_on_c, 2, 37, 93
4, 28992, Note_off_c, 2, 37, 0
4, 28992, Note_on_c, 2, 33, 93
4, 29016, Note_off_c, 2, 33, 0
4, 29016, Note_on_c, 2, 45, 93
4, 29040, Note_off_c, 2, 45, 0
4, 29040, Note_on_c, 2, 43, 93
4, 29064, Note_off_c, 2, 43, 0
4, 29064, Note_on_c, 2, 45, 93
4, 29088, Note_off_c, 2, 45, 0
4, 29088, Note_on_c, 2, 42, 93
4, 29112, Note_off_c, 2, 42, 0
4, 29112, Note_on_c, 2, 43, 93
4, 29136, Note_off_c, 2, 43, 0
4, 29136, Note_on_c, 2, 40, 93
4, 29160, Note_off_c, 2, 40, 0
4, 29160, Note_on_c, 2, 42, 93
4, 29184, Note_off_c, 2, 42, 0
4, 29184, Note_on_c, 2, 38, 93
4, 29208, Note_off_c, 2, 38, 0
4, 29208, Note_on_c, 2, 40, 93
4, 29232, Note_off_c, 2, 40, 0
4, 29232, Note_on_c, 2, 37, 93
4, 29256, Note_off_c, 2, 37, 0
4, 29256, Note_on_c, 2, 38, 93
4, 29280, Note_off_c, 2, 38, 0
4, 29280, Note_on_c, 2, 35, 93
4, 29304, Note_off_c, 2, 35, 0
4, 29304, Note_on_c, 2, 36, 93
4, 29328, Note_off_c, 2, 36, 0
4, 29328, Note_on_c, 2, 33, 93
4, 29352, Note_off_c, 2, 33, 0
4, 29352, Note_on_c, 2, 35, 93
4, 29376, Note_off_c, 2, 35, 0
4, 29376, Note_on_c, 2, 31, 93
4, 29424, Note_off_c, 2, 31, 0
4, 29424, Note_on_c, 2, 43, 93
4, 29496, Note_off_c, 2, 43, 0
4, 29496, Note_on_c, 2, 42, 93
4, 29520, Note_off_c, 2, 42, 0
4, 29520, Note_on_c, 2, 43, 93
4, 29544, Note_off_c, 2, 43, 0
4, 29544, Note_on_c, 2, 40, 93
4, 29568, Note_off_c, 2, 40, 0
4, 29568, Note_on_c, 2, 42, 93
4, 29688, Note_off_c, 2, 42, 0
4, 29688, Note_on_c, 2, 40, 93
4, 29712, Note_off_c, 2, 40, 0
4, 29712, Note_on_c, 2, 42, 93
4, 29736, Note_off_c, 2, 42, 0
4, 29736, Note_on_c, 2, 38, 93
4, 29760, Note_off_c, 2, 38, 0
4, 29760, Note_on_c, 2, 40, 93
4, 29856, Note_off_c, 2, 40, 0
4, 29856, Note_on_c, 2, 33, 93
4, 29952, Note_off_c, 2, 33, 0
4, 29952, Note_on_c, 2, 38, 93
4, 30048, Note_off_c, 2, 38, 0
4, 30144, Note_on_c, 2, 33, 93
4, 30192, Note_off_c, 2, 33, 0
4, 30192, Note_on_c, 2, 35, 93
4, 30240, Note_off_c, 2, 35, 0
4, 30240, Note_on_c, 2, 36, 93
4, 30288, Note_off_c, 2, 36, 0
4, 30288, Note_on_c, 2, 38, 93
4, 30336, Note_off_c, 2, 38, 0
4, 30336, Note_on_c, 2, 40, 93
4, 30432, Note_off_c, 2, 40, 0
4, 30528, Note_on_c, 2, 35, 93
4, 30576, Note_off_c, 2, 35, 0
4, 30576, Note_on_c, 2, 36, 93
4, 30624, Note_off_c, 2, 36, 0
4, 30624, Note_on_c, 2, 38, 93
4, 30672, Note_off_c, 2, 38, 0
4, 30672, Note_on_c, 2, 40, 93
4, 30720, Note_off_c, 2, 40, 0
4, 30720, Note_on_c, 2, 42, 93
4, 30768, Note_off_c, 2, 42, 0
4, 30768, Note_on_c, 2, 44, 93
4, 30816, Note_off_c, 2, 44, 0
4, 30816, Note_on_c, 2, 45, 93
4, 30864, Note_off_c, 2, 45, 0
4, 30864, Note_on_c, 2, 33, 93
4, 30912, Note_off_c, 2, 33, 0
4, 30912, Note_on_c, 2, 38, 93
4, 30936, Note_off_c, 2, 38, 0
4, 30936, Note_on_c, 2, 41, 93
4, 30960, Note_off_c, 2, 41, 0
4, 30960, Note_on_c, 2, 40, 93
4, 30984, Note_off_c, 2, 40, 0
4, 30984, Note_on_c, 2, 43, 93
4, 31008, Note_off_c, 2, 43, 0
4, 31008, Note_on_c, 2, 41, 93
4, 31032, Note_off_c, 2, 41, 0
4, 31032, Note_on_c, 2, 45, 93
4, 31056, Note_off_c, 2, 45, 0
4, 31056, Note_on_c, 2, 43, 93
4, 31080, Note_off_c, 2, 43, 0
4, 31080, Note_on_c, 2, 47, 93
4, 31104, Note_off_c, 2, 47, 0
4, 31104, Note_on_c, 2, 36, 93
4, 31200, Note_off_c, 2, 36, 0
4, 31248, Note_on_c, 2, 36, 93
4, 31296, Note_off_c, 2, 36, 0
4, 31296, Note_on_c, 2, 38, 93
4, 31320, Note_off_c, 2, 38, 0
4, 31320, Note_on_c, 2, 40, 93
4, 31344, Note_off_c, 2, 40, 0
4, 31344, Note_on_c, 2, 36, 93
4, 31368, Note_off_c, 2, 36, 0
4, 31368, Note_on_c, 2, 38, 93
4, 31392, Note_off_c, 2, 38, 0
4, 31392, Note_on_c, 2, 35, 93
4, 31416, Note_off_c, 2, 35, 0
4, 31416, Note_on_c, 2, 40, 93
4, 31440, Note_off_c, 2, 40, 0
4, 31440, Note_on_c, 2, 38, 93
4, 31464, Note_off_c, 2, 38, 0
4, 31464, Note_on_c, 2, 40, 93
4, 31488, Note_off_c, 2, 40, 0
4, 31488, Note_on_c, 2, 33, 93
4, 31584, Note_off_c, 2, 33, 0
4, 31584, Note_on_c, 2, 45, 93
4, 31776, Note_off_c, 2, 45, 0
4, 31776, Note_on_c, 2, 43, 93
4, 31920, Note_off_c, 2, 43, 0
4, 31920, Note_on_c, 2, 42, 93
4, 31944, Note_off_c, 2, 42, 0
4, 31944, Note_on_c, 2, 40, 93
4, 31968, Note_off_c, 2, 40, 0
4, 31968, Note_on_c, 2, 42, 93
4, 32016, Note_off_c, 2, 42, 0
4, 32016, Note_on_c, 2, 33, 93
4, 32064, Note_off_c, 2, 33, 0
4, 32064, Note_on_c, 2, 35, 93
4, 32112, Note_off_c, 2, 35, 0
4, 32112, Note_on_c, 2, 35, 93
4, 32160, Note_off_c, 2, 35, 0
4, 32160, Note_on_c, 2, 37, 93
4, 32208, Note_off_c, 2, 37, 0
4, 32208, Note_on_c, 2, 37, 93
4, 32256, Note_off_c, 2, 37, 0
4, 32256, Note_on_c, 2, 38, 93
4, 32352, Note_off_c, 2, 38, 0
4, 32400, Note_on_c, 2, 38, 93
4, 32448, Note_off_c, 2, 38, 0
4, 32448, Note_on_c, 2, 40, 93
4, 32496, Note_off_c, 2, 40, 0
4, 32496, Note_on_c, 2, 40, 93
4, 32544, Note_off_c, 2, 40, 0
4, 32544, Note_on_c, 2, 42, 93
4, 32592, Note_off_c, 2, 42, 0
4, 32592, Note_on_c, 2, 42, 93
4, 32640, Note_off_c, 2, 42, 0
4, 32640, Note_on_c, 2, 43, 93
4, 32736, Note_off_c, 2, 43, 0
4, 32784, Note_on_c, 2, 31, 93
4, 32832, Note_off_c, 2, 31, 0
4, 32832, Note_on_c, 2, 33, 93
4, 32880, Note_off_c, 2, 33, 0
4, 32880, Note_on_c, 2, 33, 93
4, 32928, Note_off_c, 2, 33, 0
4, 32928, Note_on_c, 2, 35, 93
4, 32976, Note_off_c, 2, 35, 0
4, 32976, Note_on_c, 2, 35, 93
4, 33024, Note_off_c, 2, 35, 0
4, 33024, Note_on_c, 2, 36, 93
4, 33120, Note_off_c, 2, 36, 0
4, 33168, Note_on_c, 2, 37, 93
4, 33216, Note_off_c, 2, 37, 0
4, 33216, Note_on_c, 2, 38, 93
4, 33312, Note_off_c, 2, 38, 0
4, 33360, Note_on_c, 2, 35, 93
4, 33408, Note_off_c, 2, 35, 0
4, 33408, Note_on_c, 2, 40, 93
4, 33504, Note_off_c, 2, 40, 0
4, 33504, Note_on_c, 2, 33, 93
4, 33600, Note_off_c, 2, 33, 0
4, 33600, Note_on_c, 2, 38, 93
4, 33648, Note_off_c, 2, 38, 0
4, 33648, Note_on_c, 2, 26, 93
4, 33696, Note_off_c, 2, 26, 0
4, 33720, Note_on_c, 2, 38, 93
4, 33744, Note_off_c, 2, 38, 0
4, 33744, Note_on_c, 2, 42, 93
4, 33768, Note_off_c, 2, 42, 0
4, 33768, Note_on_c, 2, 38, 93
4, 33792, Note_off_c, 2, 38, 0
4, 33792, Note_on_c, 2, 43, 93
4, 33840, Note_off_c, 2, 43, 0
4, 33840, Note_on_c, 2, 31, 93
4, 33888, Note_off_c, 2, 31, 0
4, 33912, Note_on_c, 2, 40, 93
4, 33936, Note_off_c, 2, 40, 0
4, 33936, Note_on_c, 2, 43, 93
4, 33960, Note_off_c, 2, 43, 0
4, 33960, Note_on_c, 2, 40, 93
4, 33984, Note_off_c, 2, 40, 0
4, 33984, Note_on_c, 2, 45, 93
4, 34032, Note_off_c, 2, 45, 0
4, 34032, Note_on_c, 2, 43, 93
4, 34080, Note_off_c, 2, 43, 0
4, 34080, Note_on_c, 2, 42, 93
4, 34128, Note_off_c, 2, 42, 0
4, 34128, Note_on_c, 2, 38, 93
4, 34176, Note_off_c, 2, 38, 0
4, 34176, Note_on_c, 2, 43, 93
4, 34224, Note_off_c, 2, 43, 0
4, 34224, Note_on_c, 2, 42, 93
4, 34272, Note_off_c, 2, 42, 0
4, 34272, Note_on_c, 2, 40, 93
4, 34320, Note_off_c, 2, 40, 0
4, 34320, Note_on_c, 2, 38, 93
4, 34368, Note_off_c, 2, 38, 0
4, 34368, Note_on_c, 2, 36, 93
4, 34416, Note_off_c, 2, 36, 0
4, 34416, Note_on_c, 2, 33, 93
4, 34464, Note_off_c, 2, 33, 0
4, 34464, Note_on_c, 2, 38, 93
4, 34512, Note_off_c, 2, 38, 0
4, 34512, Note_on_c, 2, 26, 93
4, 34560, Note_off_c, 2, 26, 0
4, 34560, Note_on_c, 2, 31, 93
4, 34656, Note_off_c, 2, 31, 0
4, 34704, Note_on_c, 2, 43, 93
4, 34752, Note_off_c, 2, 43, 0
4, 34752, Note_on_c, 2, 48, 93
4, 34800, Note_off_c, 2, 48, 0
4, 34800, Note_on_c, 2, 45, 93
4, 34848, Note_off_c, 2, 45, 0
4, 34848, Note_on_c, 2, 47, 93
4, 34896, Note_off_c, 2, 47, 0
4, 34896, Note_on_c, 2, 35, 93
4, 34944, Note_off_c, 2, 35, 0
4, 34944, Note_on_c, 2, 40, 93
4, 35040, Note_off_c, 2, 40, 0
4, 35088, Note_on_c, 2, 40, 93
4, 35136, Note_off_c, 2, 40, 0
4, 35136, Note_on_c, 2, 45, 93
4, 35184, Note_off_c, 2, 45, 0
4, 35184, Note_on_c, 2, 43, 93
4, 35232, Note_off_c, 2, 43, 0
4, 35232, Note_on_c, 2, 42, 93
4, 35280, Note_off_c, 2, 42, 0
4, 35280, Note_on_c, 2, 38, 93
4, 35328, Note_off_c, 2, 38, 0
4, 35328, Note_on_c, 2, 43, 93
4, 35424, Note_off_c, 2, 43, 0
4, 35472, Note_on_c, 2, 40, 93
4, 35520, Note_off_c, 2, 40, 0
4, 35520, Note_on_c, 2, 42, 93
4, 35568, Note_off_c, 2, 42, 0
4, 35568, Note_on_c, 2, 40, 93
4, 35616, Note_off_c, 2, 40, 0
4, 35616, Note_on_c, 2, 38, 93
4, 35664, Note_off_c, 2, 38, 0
4, 35664, Note_on_c, 2, 35, 93
4, 35712, Note_off_c, 2, 35, 0
4, 35712, Note_on_c, 2, 31, 93
4, 35760, Note_off_c, 2, 31, 0
4, 35760, Note_on_c, 2, 43, 93
4, 35784, Note_off_c, 2, 43, 0
4, 35784, Note_on_c, 2, 42, 93
4, 35808, Note_off_c, 2, 42, 0
4, 35808, Note_on_c, 2, 43, 93
4, 35856, Note_off_c, 2, 43, 0
4, 35856, Note_on_c, 2, 40, 93
4, 35904, Note_off_c, 2, 40, 0
4, 35904, Note_on_c, 2, 45, 93
4, 35952, Note_off_c, 2, 45, 0
4, 35952, Note_on_c, 2, 40, 93
4, 36000, Note_off_c, 2, 40, 0
4, 36000, Note_on_c, 2, 36, 93
4, 36048, Note_off_c, 2, 36, 0
4, 36048, Note_on_c, 2, 33, 93
4, 36096, Note_off_c, 2, 33, 0
4, 36096, Note_on_c, 2, 35, 93
4, 36144, Note_off_c, 2, 35, 0
4, 36144, Note_on_c, 2, 47, 93
4, 36168, Note_off_c, 2, 47, 0
4, 36168, Note_on_c, 2, 45, 93
4, 36192, Note_off_c, 2, 45, 0
4, 36192, Note_on_c, 2, 47, 93
4, 36240, Note_off_c, 2, 47, 0
4, 36240, Note_on_c, 2, 35, 93
4, 36288, Note_off_c, 2, 35, 0
4, 36288, Note_on_c, 2, 40, 93
4, 36336, Note_off_c, 2, 40, 0
4, 36336, Note_on_c, 2, 38, 93
4, 36384, Note_off_c, 2, 38, 0
4, 36384, Note_on_c, 2, 36, 93
4, 36432, Note_off_c, 2, 36, 0
4, 36432, Note_on_c, 2, 35, 93
4, 36480, Note_off_c, 2, 35, 0
4, 36480, Note_on_c, 2, 33, 93
4, 36528, Note_off_c, 2, 33, 0
4, 36528, Note_on_c, 2, 45, 93
4, 36576, Note_off_c, 2, 45, 0
4, 36576, Note_on_c, 2, 47, 93
4, 36624, Note_off_c, 2, 47, 0
4, 36624, Note_on_c, 2, 35, 93
4, 36672, Note_off_c, 2, 35, 0
4, 36672, Note_on_c, 2, 40, 93
4, 36696, Note_off_c, 2, 40, 0
4, 36696, Note_on_c, 2, 42, 93
4, 36720, Note_off_c, 2, 42, 0
4, 36720, Note_on_c, 2, 39, 93
4, 36744, Note_off_c, 2, 39, 0
4, 36744, Note_on_c, 2, 42, 93
4, 36768, Note_off_c, 2, 42, 0
4, 36768, Note_on_c, 2, 40, 93
4, 36792, Note_off_c, 2, 40, 0
4, 36792, Note_on_c, 2, 43, 93
4, 36816, Note_off_c, 2, 43, 0
4, 36816, Note_on_c, 2, 42, 93
4, 36840, Note_off_c, 2, 42, 0
4, 36840, Note_on_c, 2, 45, 93
4, 36864, Note_off_c, 2, 45, 0
4, 36864, Note_on_c, 2, 43, 93
4, 36888, Note_off_c, 2, 43, 0
4, 36888, Note_on_c, 2, 45, 93
4, 36912, Note_off_c, 2, 45, 0
4, 36912, Note_on_c, 2, 42, 93
4, 36936, Note_off_c, 2, 42, 0
4, 36936, Note_on_c, 2, 45, 93
4, 36960, Note_off_c, 2, 45, 0
4, 36960, Note_on_c, 2, 43, 93
4, 36984, Note_off_c, 2, 43, 0
4, 36984, Note_on_c, 2, 47, 93
4, 37008, Note_off_c, 2, 47, 0
4, 37008, Note_on_c, 2, 45, 93
4, 37032, Note_off_c, 2, 45, 0
4, 37032, Note_on_c, 2, 48, 93
4, 37056, Note_off_c, 2, 48, 0
4, 37056, Note_on_c, 2, 47, 93
4, 37104, Note_off_c, 2, 47, 0
4, 37104, Note_on_c, 2, 35, 93
4, 37152, Note_off_c, 2, 35, 0
4, 37176, Note_on_c, 2, 35, 93
4, 37200, Note_off_c, 2, 35, 0
4, 37200, Note_on_c, 2, 33, 93
4, 37224, Note_off_c, 2, 33, 0
4, 37224, Note_on_c, 2, 35, 93
4, 37248, Note_off_c, 2, 35, 0
4, 37248, Note_on_c, 2, 31, 93
4, 37272, Note_off_c, 2, 31, 0
4, 37272, Note_on_c, 2, 35, 93
4, 37296, Note_off_c, 2, 35, 0
4, 37296, Note_on_c, 2, 33, 93
4, 37320, Note_off_c, 2, 33, 0
4, 37320, Note_on_c, 2, 36, 93
4, 37344, Note_off_c, 2, 36, 0
4, 37344, Note_on_c, 2, 35, 93
4, 37368, Note_off_c, 2, 35, 0
4, 37368, Note_on_c, 2, 38, 93
4, 37392, Note_off_c, 2, 38, 0
4, 37392, Note_on_c, 2, 37, 93
4, 37416, Note_off_c, 2, 37, 0
4, 37416, Note_on_c, 2, 40, 93
4, 37440, Note_off_c, 2, 40, 0
4, 37440, Note_on_c, 2, 38, 93
4, 37488, Note_off_c, 2, 38, 0
4, 37488, Note_on_c, 2, 26, 93
4, 37536, Note_off_c, 2, 26, 0
4, 37560, Note_on_c, 2, 38, 93
4, 37584, Note_off_c, 2, 38, 0
4, 37584, Note_on_c, 2, 39, 93
4, 37608, Note_off_c, 2, 39, 0
4, 37608, Note_on_c, 2, 35, 93
4, 37632, Note_off_c, 2, 35, 0
4, 37632, Note_on_c, 2, 40, 93
4, 37680, Note_off_c, 2, 40, 0
4, 37680, Note_on_c, 2, 28, 93
4, 37728, Note_off_c, 2, 28, 0
4, 37752, Note_on_c, 2, 40, 93
4, 37776, Note_off_c, 2, 40, 0
4, 37776, Note_on_c, 2, 43, 93
4, 37800, Note_off_c, 2, 43, 0
4, 37800, Note_on_c, 2, 40, 93
4, 37824, Note_off_c, 2, 40, 0
4, 37824, Note_on_c, 2, 45, 93
4, 37872, Note_off_c, 2, 45, 0
4, 37872, Note_on_c, 2, 42, 93
4, 37920, Note_off_c, 2, 42, 0
4, 37920, Note_on_c, 2, 47, 93
4, 37968, Note_off_c, 2, 47, 0
4, 37968, Note_on_c, 2, 35, 93
4, 38016, Note_off_c, 2, 35, 0
4, 38016, Note_on_c, 2, 28, 93
4, 38094, Note_off_c, 2, 28, 0
4, 43440, Note_on_c, 2, 33, 93
4, 43488, Note_off_c, 2, 33, 0
4, 43488, Note_on_c, 2, 33, 93
4, 43536, Note_off_c, 2, 33, 0
4, 43536, Note_on_c, 2, 33, 93
4, 43584, Note_off_c, 2, 33, 0
4, 43584, Note_on_c, 2, 38, 93
4, 43632, Note_off_c, 2, 38, 0
4, 43632, Note_on_c, 2, 38, 93
4, 43680, Note_off_c, 2, 38, 0
4, 43680, Note_on_c, 2, 38, 93
4, 43728, Note_off_c, 2, 38, 0
4, 43728, Note_on_c, 2, 38, 93
4, 43776, Note_off_c, 2, 38, 0
4, 43776, Note_on_c, 2, 38, 93
4, 43824, Note_off_c, 2, 38, 0
4, 43824, Note_on_c, 2, 37, 93
4, 43848, Note_off_c, 2, 37, 0
4, 43848, Note_on_c, 2, 35, 93
4, 43872, Note_off_c, 2, 35, 0
4, 43872, Note_on_c, 2, 37, 93
4, 43920, Note_off_c, 2, 37, 0
4, 43920, Note_on_c, 2, 33, 93
4, 43968, Note_off_c, 2, 33, 0
4, 43968, Note_on_c, 2, 42, 93
4, 44016, Note_off_c, 2, 42, 0
4, 44016, Note_on_c, 2, 42, 93
4, 44064, Note_off_c, 2, 42, 0
4, 44064, Note_on_c, 2, 42, 93
4, 44112, Note_off_c, 2, 42, 0
4, 44112, Note_on_c, 2, 42, 93
4, 44160, Note_off_c, 2, 42, 0
4, 44160, Note_on_c, 2, 42, 93
4, 44208, Note_off_c, 2, 42, 0
4, 44208, Note_on_c, 2, 40, 93
4, 44232, Note_off_c, 2, 40, 0
4, 44232, Note_on_c, 2, 38, 93
4, 44256, Note_off_c, 2, 38, 0
4, 44256, Note_on_c, 2, 40, 93
4, 44304, Note_off_c, 2, 40, 0
4, 44304, Note_on_c, 2, 40, 93
4, 44352, Note_off_c, 2, 40, 0
4, 44352, Note_on_c, 2, 40, 93
4, 44400, Note_off_c, 2, 40, 0
4, 44400, Note_on_c, 2, 33, 93
4, 44448, Note_off_c, 2, 33, 0
4, 44448, Note_on_c, 2, 38, 93
4, 44640, Note_off_c, 2, 38, 0
4, 44640, Note_on_c, 2, 37, 93
4, 44736, Note_off_c, 2, 37, 0
4, 44736, Note_on_c, 2, 38, 93
4, 44784, Note_off_c, 2, 38, 0
4, 44784, Note_on_c, 2, 40, 93
4, 44832, Note_off_c, 2, 40, 0
4, 44832, Note_on_c, 2, 42, 93
4, 44880, Note_off_c, 2, 42, 0
4, 44880, Note_on_c, 2, 38, 93
4, 44928, Note_off_c, 2, 38, 0
4, 44928, Note_on_c, 2, 40, 93
4, 44976, Note_off_c, 2, 40, 0
4, 44976, Note_on_c, 2, 40, 93
4, 45024, Note_off_c, 2, 40, 0
4, 45024, Note_on_c, 2, 42, 93
4, 45072, Note_off_c, 2, 42, 0
4, 45072, Note_on_c, 2, 42, 93
4, 45120, Note_off_c, 2, 42, 0
4, 45120, Note_on_c, 2, 43, 93
4, 45216, Note_off_c, 2, 43, 0
4, 45264, Note_on_c, 2, 31, 93
4, 45312, Note_off_c, 2, 31, 0
4, 45312, Note_on_c, 2, 33, 93
4, 45360, Note_off_c, 2, 33, 0
4, 45360, Note_on_c, 2, 33, 93
4, 45408, Note_off_c, 2, 33, 0
4, 45408, Note_on_c, 2, 35, 93
4, 45456, Note_off_c, 2, 35, 0
4, 45456, Note_on_c, 2, 35, 93
4, 45504, Note_off_c, 2, 35, 0
4, 45504, Note_on_c, 2, 36, 93
4, 45600, Note_off_c, 2, 36, 0
4, 45648, Note_on_c, 2, 36, 93
4, 45696, Note_off_c, 2, 36, 0
4, 45696, Note_on_c, 2, 38, 93
4, 45744, Note_off_c, 2, 38, 0
4, 45744, Note_on_c, 2, 38, 93
4, 45792, Note_off_c, 2, 38, 0
4, 45792, Note_on_c, 2, 40, 93
4, 45840, Note_off_c, 2, 40, 0
4, 45840, Note_on_c, 2, 40, 93
4, 45888, Note_off_c, 2, 40, 0
4, 45888, Note_on_c, 2, 41, 93
4, 45936, Note_off_c, 2, 41, 0
4, 45936, Note_on_c, 2, 40, 93
4, 45984, Note_off_c, 2, 40, 0
4, 45984, Note_on_c, 2, 41, 93
4, 46032, Note_off_c, 2, 41, 0
4, 46032, Note_on_c, 2, 38, 93
4, 46080, Note_off_c, 2, 38, 0
4, 46080, Note_on_c, 2, 40, 93
4, 46128, Note_off_c, 2, 40, 0
4, 46128, Note_on_c, 2, 38, 93
4, 46176, Note_off_c, 2, 38, 0
4, 46176, Note_on_c, 2, 36, 93
4, 46224, Note_off_c, 2, 36, 0
4, 46224, Note_on_c, 2, 35, 93
4, 46272, Note_off_c, 2, 35, 0
4, 46272, Note_on_c, 2, 33, 93
4, 46320, Note_off_c, 2, 33, 0
4, 46320, Note_on_c, 2, 31, 93
4, 46368, Note_off_c, 2, 31, 0
4, 46368, Note_on_c, 2, 29, 93
4, 46464, Note_off_c, 2, 29, 0
4, 46464, Note_on_c, 2, 28, 93
4, 46512, Note_off_c, 2, 28, 0
4, 46512, Note_on_c, 2, 40, 93
4, 46560, Note_off_c, 2, 40, 0
4, 46584, Note_on_c, 2, 40, 93
4, 46608, Note_off_c, 2, 40, 0
4, 46608, Note_on_c, 2, 44, 93
4, 46632, Note_off_c, 2, 44, 0
4, 46632, Note_on_c, 2, 40, 93
4, 46656, Note_off_c, 2, 40, 0
4, 46656, Note_on_c, 2, 45, 93
4, 46704, Note_off_c, 2, 45, 0
4, 46704, Note_on_c, 2, 33, 93
4, 46752, Note_off_c, 2, 33, 0
4, 46776, Note_on_c, 2, 33, 93
4, 46800, Note_off_c, 2, 33, 0
4, 46800, Note_on_c, 2, 36, 93
4, 46824, Note_off_c, 2, 36, 0
4, 46824, Note_on_c, 2, 33, 93
4, 46848, Note_off_c, 2, 33, 0
4, 46848, Note_on_c, 2, 38, 93
4, 46896, Note_off_c, 2, 38, 0
4, 46896, Note_on_c, 2, 26, 93
4, 46944, Note_off_c, 2, 26, 0
4, 46968, Note_on_c, 2, 35, 93
4, 46992, Note_off_c, 2, 35, 0
4, 46992, Note_on_c, 2, 38, 93
4, 47016, Note_off_c, 2, 38, 0
4, 47016, Note_on_c, 2, 35, 93
4, 47040, Note_off_c, 2, 35, 0
4, 47040, Note_on_c, 2, 36, 93
4, 47088, Note_off_c, 2, 36, 0
4, 47088, Note_on_c, 2, 24, 93
4, 47136, Note_off_c, 2, 24, 0
4, 47160, Note_on_c, 2, 36, 93
4, 47184, Note_off_c, 2, 36, 0
4, 47184, Note_on_c, 2, 40, 93
4, 47208, Note_off_c, 2, 40, 0
4, 47208, Note_on_c, 2, 36, 93
4, 47232, Note_off_c, 2, 36, 0
4, 47232, Note_on_c, 2, 41, 93
4, 47280, Note_off_c, 2, 41, 0
4, 47280, Note_on_c, 2, 38, 93
4, 47328, Note_off_c, 2, 38, 0
4, 47328, Note_on_c, 2, 40, 93
4, 47376, Note_off_c, 2, 40, 0
4, 47376, Note_on_c, 2, 28, 93
4, 47424, Note_off_c, 2, 28, 0
4, 47424, Note_on_c, 2, 33, 93
4, 47520, Note_off_c, 2, 33, 0
4, 47544, Note_on_c, 2, 33, 93
4, 47568, Note_off_c, 2, 33, 0
4, 47568, Note_on_c, 2, 36, 93
4, 47592, Note_off_c, 2, 36, 0
4, 47592, Note_on_c, 2, 33, 93
4, 47616, Note_off_c, 2, 33, 0
4, 47616, Note_on_c, 2, 35, 93
4, 47712, Note_off_c, 2, 35, 0
4, 47736, Note_on_c, 2, 37, 93
4, 47760, Note_off_c, 2, 37, 0
4, 47760, Note_on_c, 2, 40, 93
4, 47784, Note_off_c, 2, 40, 0
4, 47784, Note_on_c, 2, 37, 93
4, 47808, Note_off_c, 2, 37, 0
4, 47808, Note_on_c, 2, 38, 93
4, 47904, Note_off_c, 2, 38, 0
4, 47928, Note_on_c, 2, 38, 93
4, 47952, Note_off_c, 2, 38, 0
4, 47952, Note_on_c, 2, 42, 93
4, 47976, Note_off_c, 2, 42, 0
4, 47976, Note_on_c, 2, 38, 93
4, 48000, Note_off_c, 2, 38, 0
4, 48000, Note_on_c, 2, 40, 93
4, 48096, Note_off_c, 2, 40, 0
4, 48120, Note_on_c, 2, 42, 93
4, 48144, Note_off_c, 2, 42, 0
4, 48144, Note_on_c, 2, 45, 93
4, 48168, Note_off_c, 2, 45, 0
4, 48168, Note_on_c, 2, 42, 93
4, 48192, Note_off_c, 2, 42, 0
4, 48192, Note_on_c, 2, 43, 93
4, 48288, Note_off_c, 2, 43, 0
4, 48312, Note_on_c, 2, 43, 93
4, 48336, Note_off_c, 2, 43, 0
4, 48336, Note_on_c, 2, 47, 93
4, 48360, Note_off_c, 2, 47, 0
4, 48360, Note_on_c, 2, 43, 93
4, 48384, Note_off_c, 2, 43, 0
4, 48384, Note_on_c, 2, 45, 93
4, 48480, Note_off_c, 2, 45, 0
4, 48504, Note_on_c, 2, 47, 93
4, 48528, Note_off_c, 2, 47, 0
4, 48528, Note_on_c, 2, 50, 93
4, 48552, Note_off_c, 2, 50, 0
4, 48552, Note_on_c, 2, 47, 93
4, 48576, Note_off_c, 2, 47, 0
4, 48576, Note_on_c, 2, 48, 93
4, 48624, Note_off_c, 2, 48, 0
4, 48624, Note_on_c, 2, 36, 93
4, 48672, Note_off_c, 2, 36, 0
4, 48672, Note_on_c, 2, 36, 93
4, 48720, Note_off_c, 2, 36, 0
4, 48720, Note_on_c, 2, 36, 93
4, 48768, Note_off_c, 2, 36, 0
4, 48768, Note_on_c, 2, 43, 93
4, 48816, Note_off_c, 2, 43, 0
4, 48816, Note_on_c, 2, 43, 93
4, 48864, Note_off_c, 2, 43, 0
4, 48864, Note_on_c, 2, 43, 93
4, 48912, Note_off_c, 2, 43, 0
4, 48912, Note_on_c, 2, 43, 93
4, 48960, Note_off_c, 2, 43, 0
4, 48960, Note_on_c, 2, 43, 93
4, 49008, Note_off_c, 2, 43, 0
4, 49008, Note_on_c, 2, 42, 93
4, 49032, Note_off_c, 2, 42, 0
4, 49032, Note_on_c, 2, 40, 93
4, 49056, Note_off_c, 2, 40, 0
4, 49056, Note_on_c, 2, 42, 93
4, 49104, Note_off_c, 2, 42, 0
4, 49104, Note_on_c, 2, 38, 93
4, 49152, Note_off_c, 2, 38, 0
4, 49152, Note_on_c, 2, 46, 93
4, 49200, Note_off_c, 2, 46, 0
4, 49200, Note_on_c, 2, 46, 93
4, 49248, Note_off_c, 2, 46, 0
4, 49248, Note_on_c, 2, 46, 93
4, 49296, Note_off_c, 2, 46, 0
4, 49296, Note_on_c, 2, 46, 93
4, 49344, Note_off_c, 2, 46, 0
4, 49344, Note_on_c, 2, 46, 93
4, 49392, Note_off_c, 2, 46, 0
4, 49392, Note_on_c, 2, 45, 93
4, 49416, Note_off_c, 2, 45, 0
4, 49416, Note_on_c, 2, 43, 93
4, 49440, Note_off_c, 2, 43, 0
4, 49440, Note_on_c, 2, 45, 93
4, 49488, Note_off_c, 2, 45, 0
4, 49488, Note_on_c, 2, 45, 93
4, 49536, Note_off_c, 2, 45, 0
4, 49536, Note_on_c, 2, 45, 93
4, 49584, Note_off_c, 2, 45, 0
4, 49584, Note_on_c, 2, 38, 93
4, 49632, Note_off_c, 2, 38, 0
4, 49632, Note_on_c, 2, 43, 93
4, 49824, Note_off_c, 2, 43, 0
4, 49824, Note_on_c, 2, 42, 93
4, 49920, Note_off_c, 2, 42, 0
4, 49920, Note_on_c, 2, 43, 93
4, 50016, Note_off_c, 2, 43, 0
4, 50064, Note_on_c, 2, 31, 93
4, 50112, Note_off_c, 2, 31, 0
4, 50112, Note_on_c, 2, 36, 93
4, 50208, Note_off_c, 2, 36, 0
4, 50256, Note_on_c, 2, 36, 93
4, 50304, Note_off_c, 2, 36, 0
4, 50304, Note_on_c, 2, 38, 93
4, 50400, Note_off_c, 2, 38, 0
4, 50496, Note_on_c, 2, 38, 93
4, 50592, Note_off_c, 2, 38, 0
4, 50688, Note_on_c, 2, 26, 93
4, 50784, Note_off_c, 2, 26, 0
4, 50880, Note_on_c, 2, 26, 93
4, 50928, Note_off_c, 2, 26, 0
4, 50928, Note_on_c, 2, 38, 93
4, 50976, Note_off_c, 2, 38, 0
4, 50976, Note_on_c, 2, 38, 93
4, 51024, Note_off_c, 2, 38, 0
4, 51024, Note_on_c, 2, 38, 93
4, 51072, Note_off_c, 2, 38, 0
4, 51072, Note_on_c, 2, 43, 93
4, 51120, Note_off_c, 2, 43, 0
4, 51120, Note_on_c, 2, 43, 93
4, 51168, Note_off_c, 2, 43, 0
4, 51168, Note_on_c, 2, 43, 93
4, 51216, Note_off_c, 2, 43, 0
4, 51216, Note_on_c, 2, 43, 93
4, 51264, Note_off_c, 2, 43, 0
4, 51264, Note_on_c, 2, 43, 93
4, 51312, Note_off_c, 2, 43, 0
4, 51312, Note_on_c, 2, 42, 93
4, 51336, Note_off_c, 2, 42, 0
4, 51336, Note_on_c, 2, 40, 93
4, 51360, Note_off_c, 2, 40, 0
4, 51360, Note_on_c, 2, 42, 93
4, 51408, Note_off_c, 2, 42, 0
4, 51408, Note_on_c, 2, 38, 93
4, 51456, Note_off_c, 2, 38, 0
4, 51456, Note_on_c, 2, 47, 93
4, 51504, Note_off_c, 2, 47, 0
4, 51504, Note_on_c, 2, 47, 93
4, 51552, Note_off_c, 2, 47, 0
4, 51552, Note_on_c, 2, 47, 93
4, 51600, Note_off_c, 2, 47, 0
4, 51600, Note_on_c, 2, 47, 93
4, 51648, Note_off_c, 2, 47, 0
4, 51648, Note_on_c, 2, 47, 93
4, 51696, Note_off_c, 2, 47, 0
4, 51696, Note_on_c, 2, 45, 93
4, 51720, Note_off_c, 2, 45, 0
4, 51720, Note_on_c, 2, 43, 93
4, 51744, Note_off_c, 2, 43, 0
4, 51744, Note_on_c, 2, 45, 93
4, 51792, Note_off_c, 2, 45, 0
4, 51792, Note_on_c, 2, 45, 93
4, 51840, Note_off_c, 2, 45, 0
4, 51840, Note_on_c, 2, 45, 93
4, 51888, Note_off_c, 2, 45, 0
4, 51888, Note_on_c, 2, 38, 93
4, 51936, Note_off_c, 2, 38, 0
4, 51936, Note_on_c, 2, 43, 93
4, 52128, Note_off_c, 2, 43, 0
4, 52128, Note_on_c, 2, 42, 93
4, 52224, Note_off_c, 2, 42, 0
4, 52224, Note_on_c, 2, 43, 93
4, 52320, Note_off_c, 2, 43, 0
4, 52368, Note_on_c, 2, 42, 93
4, 52416, Note_off_c, 2, 42, 0
4, 52416, Note_on_c, 2, 40, 93
4, 52608, Note_off_c, 2, 40, 0
4, 52608, Note_on_c, 2, 38, 93
4, 52656, Note_off_c, 2, 38, 0
4, 52656, Note_on_c, 2, 36, 93
4, 52704, Note_off_c, 2, 36, 0
4, 52704, Note_on_c, 2, 35, 93
4, 52752, Note_off_c, 2, 35, 0
4, 52752, Note_on_c, 2, 33, 93
4, 52800, Note_off_c, 2, 33, 0
4, 52800, Note_on_c, 2, 31, 93
4, 52824, Note_off_c, 2, 31, 0
4, 52824, Note_on_c, 2, 43, 93
4, 52848, Note_off_c, 2, 43, 0
4, 52848, Note_on_c, 2, 42, 93
4, 52872, Note_off_c, 2, 42, 0
4, 52872, Note_on_c, 2, 43, 93
4, 52896, Note_off_c, 2, 43, 0
4, 52896, Note_on_c, 2, 40, 93
4, 52920, Note_off_c, 2, 40, 0
4, 52920, Note_on_c, 2, 42, 93
4, 52944, Note_off_c, 2, 42, 0
4, 52944, Note_on_c, 2, 38, 93
4, 52968, Note_off_c, 2, 38, 0
4, 52968, Note_on_c, 2, 40, 93
4, 52992, Note_off_c, 2, 40, 0
4, 52992, Note_on_c, 2, 36, 93
4, 53088, Note_off_c, 2, 36, 0
4, 53112, Note_on_c, 2, 48, 93
4, 53136, Note_off_c, 2, 48, 0
4, 53136, Note_on_c, 2, 47, 93
4, 53160, Note_off_c, 2, 47, 0
4, 53160, Note_on_c, 2, 48, 93
4, 53184, Note_off_c, 2, 48, 0
4, 53184, Note_on_c, 2, 42, 93
4, 53208, Note_off_c, 2, 42, 0
4, 53208, Note_on_c, 2, 43, 93
4, 53232, Note_off_c, 2, 43, 0
4, 53232, Note_on_c, 2, 42, 93
4, 53256, Note_off_c, 2, 42, 0
4, 53256, Note_on_c, 2, 45, 93
4, 53280, Note_off_c, 2, 45, 0
4, 53280, Note_on_c, 2, 35, 93
4, 53304, Note_off_c, 2, 35, 0
4, 53304, Note_on_c, 2, 36, 93
4, 53328, Note_off_c, 2, 36, 0
4, 53328, Note_on_c, 2, 35, 93
4, 53352, Note_off_c, 2, 35, 0
4, 53352, Note_on_c, 2, 38, 93
4, 53376, Note_off_c, 2, 38, 0
4, 53376, Note_on_c, 2, 28, 93
4, 53424, Note_off_c, 2, 28, 0
4, 53424, Note_on_c, 2, 40, 93
4, 53472, Note_off_c, 2, 40, 0
4, 53472, Note_on_c, 2, 33, 93
4, 53520, Note_off_c, 2, 33, 0
4, 53520, Note_on_c, 2, 38, 93
4, 53568, Note_off_c, 2, 38, 0
4, 53568, Note_on_c, 2, 31, 93
4, 53664, Note_off_c, 2, 31, 0
4, 53712, Note_on_c, 2, 29, 93
4, 53760, Note_off_c, 2, 29, 0
4, 53760, Note_on_c, 2, 28, 93
4, 53856, Note_off_c, 2, 28, 0
4, 53904, Note_on_c, 2, 28, 93
4, 53952, Note_off_c, 2, 28, 0
4, 53952, Note_on_c, 2, 26, 93
4, 54048, Note_off_c, 2, 26, 0
4, 54096, Note_on_c, 2, 26, 93
4, 54144, Note_off_c, 2, 26, 0
4, 54144, Note_on_c, 2, 24, 93
4, 54240, Note_off_c, 2, 24, 0
4, 54288, Note_on_c, 2, 24, 93
4, 54336, Note_off_c, 2, 24, 0
4, 54336, Note_on_c, 2, 31, 93
4, 55488, Note_off_c, 2, 31, 0
4, 55488, End_track
0, 0, End_of_file
