0, 0, Header, 1, 2, 96
1, 0, Start_track
1, 0, Time_signature, 4, 2, 24, 8
1, 0, Title_t, "untitled"
1, 0, Title_t, "Track1"
1, 0, Tempo, 240000
1, 360, Tempo, 789473
1, 18720, Tempo, 1578947
1, 18720, End_track
2, 0, Start_track
2, 0, Title_t, "Track2"
2, 0, Program_c, 0, 40
2, 0, Control_c, 0, 7, 100
2, 0, Control_c, 0, 10, 64
2, 360, Note_on_c, 0, 78, 93
2, 384, Note_off_c, 0, 78, 0
2, 384, Note_on_c, 0, 71, 93
2, 408, Note_off_c, 0, 71, 0
2, 408, Note_on_c, 0, 74, 93
2, 432, Note_off_c, 0, 74, 0
2, 432, Note_on_c, 0, 78, 93
2, 456, Note_off_c, 0, 78, 0
2, 456, Note_on_c, 0, 83, 93
2, 480, Note_off_c, 0, 83, 0
2, 480, Note_on_c, 0, 79, 93
2, 504, Note_off_c, 0, 79, 0
2, 504, Note_on_c, 0, 76, 93
2, 528, Note_off_c, 0, 76, 0
2, 528, Note_on_c, 0, 73, 93
2, 552, Note_off_c, 0, 73, 0
2, 552, Note_on_c, 0, 76, 93
2, 576, Note_off_c, 0, 76, 0
2, 576, Note_on_c, 0, 70, 93
2, 600, Note_off_c, 0, 70, 0
2, 600, Note_on_c, 0, 79, 93
2, 624, Note_off_c, 0, 79, 0
2, 624, Note_on_c, 0, 78, 93
2, 648, Note_off_c, 0, 78, 0
2, 648, Note_on_c, 0, 76, 93
2, 672, Note_off_c, 0, 76, 0
2, 672, Note_on_c, 0, 74, 93
2, 696, Note_off_c, 0, 74, 0
2, 696, Note_on_c, 0, 71, 93
2, 720, Note_off_c, 0, 71, 0
2, 720, Note_on_c, 0, 66, 93
2, 744, Note_off_c, 0, 66, 0
2, 744, Note_on_c, 0, 69, 93
2, 768, Note_off_c, 0, 69, 0
2, 768, Note_on_c, 0, 67, 93
2, 792, Note_off_c, 0, 67, 0
2, 792, Note_on_c, 0, 78, 93
2, 816, Note_off_c, 0, 78, 0
2, 816, Note_on_c, 0, 76, 93
2, 840, Note_off_c, 0, 76, 0
2, 840, Note_on_c, 0, 74, 93
2, 864, Note_off_c, 0, 74, 0
2, 864, Note_on_c, 0, 73, 93
2, 888, Note_off_c, 0, 73, 0
2, 888, Note_on_c, 0, 76, 93
2, 912, Note_off_c, 0, 76, 0
2, 912, Note_on_c, 0, 79, 93
2, 936, Note_off_c, 0, 79, 0
2, 936, Note_on_c, 0, 71, 93
2, 960, Note_off_c, 0, 71, 0
2, 960, Note_on_c, 0, 70, 93
2, 984, Note_off_c, 0, 70, 0
2, 984, Note_on_c, 0, 73, 93
2, 1008, Note_off_c, 0, 73, 0
2, 1008, Note_on_c, 0, 66, 93
2, 1032, Note_off_c, 0, 66, 0
2, 1032, Note_on_c, 0, 64, 93
2, 1056, Note_off_c, 0, 64, 0
2, 1056, Note_on_c, 0, 62, 93
2, 1080, Note_off_c, 0, 62, 0
2, 1080, Note_on_c, 0, 71, 93
2, 1104, Note_off_c, 0, 71, 0
2, 1104, Note_on_c, 0, 61, 93
2, 1128, Note_off_c, 0, 61, 0
2, 1128, Note_on_c, 0, 73, 93
2, 1152, Note_off_c, 0, 73, 0
2, 1152, Note_on_c, 0, 74, 93
2, 1176, Note_off_c, 0, 74, 0
2, 1176, Note_on_c, 0, 66, 93
2, 1200, Note_off_c, 0, 66, 0
2, 1200, Note_on_c, 0, 59, 93
2, 1224, Note_off_c, 0, 59, 0
2, 1224, Note_on_c, 0, 61, 93
2, 1248, Note_off_c, 0, 61, 0
2, 1248, Note_on_c, 0, 62, 93
2, 1272, Note_off_c, 0, 62, 0
2, 1272, Note_on_c, 0, 64, 93
2, 1296, Note_off_c, 0, 64, 0
2, 1296, Note_on_c, 0, 66, 93
2, 1320, Note_off_c, 0, 66, 0
2, 1320, Note_on_c, 0, 67, 93
2, 1344, Note_off_c, 0, 67, 0
2, 1344, Note_on_c, 0, 69, 93
2, 1368, Note_off_c, 0, 69, 0
2, 1368, Note_on_c, 0, 62, 93
2, 1392, Note_off_c, 0, 62, 0
2, 1392, Note_on_c, 0, 66, 93
2, 1416, Note_off_c, 0, 66, 0
2, 1416, Note_on_c, 0, 69, 93
2, 1440, Note_off_c, 0, 69, 0
2, 1440, Note_on_c, 0, 74, 93
2, 1464, Note_off_c, 0, 74, 0
2, 1464, Note_on_c, 0, 76, 93
2, 1488, Note_off_c, 0, 76, 0
2, 1488, Note_on_c, 0, 78, 93
2, 1512, Note_off_c, 0, 78, 0
2, 1512, Note_on_c, 0, 69, 93
2, 1536, Note_off_c, 0, 69, 0
2, 1536, Note_on_c, 0, 71, 93
2, 1560, Note_off_c, 0, 71, 0
2, 1560, Note_on_c, 0, 67, 93
2, 1584, Note_off_c, 0, 67, 0
2, 1584, Note_on_c, 0, 71, 93
2, 1608, Note_off_c, 0, 71, 0
2, 1608, Note_on_c, 0, 74, 93
2, 1632, Note_off_c, 0, 74, 0
2, 1632, Note_on_c, 0, 79, 93
2, 1656, Note_off_c, 0, 79, 0
2, 1656, Note_on_c, 0, 71, 93
2, 1680, Note_off_c, 0, 71, 0
2, 1680, Note_on_c, 0, 67, 93
2, 1704, Note_off_c, 0, 67, 0
2, 1704, Note_on_c, 0, 64, 93
2, 1728, Note_off_c, 0, 64, 0
2, 1728, Note_on_c, 0, 61, 93
2, 1752, Note_off_c, 0, 61, 0
2, 1752, Note_on_c, 0, 64, 93
2, 1776, Note_off_c, 0, 64, 0
2, 1776, Note_on_c, 0, 69, 93
2, 1800, Note_off_c, 0, 69, 0
2, 1800, Note_on_c, 0, 79, 93
2, 1824, Note_off_c, 0, 79, 0
2, 1824, Note_on_c, 0, 78, 93
2, 1848, Note_off_c, 0, 78, 0
2, 1848, Note_on_c, 0, 62, 93
2, 1872, Note_off_c, 0, 62, 0
2, 1872, Note_on_c, 0, 67, 93
2, 1896, Note_off_c, 0, 67, 0
2, 1896, Note_on_c, 0, 76, 93
2, 1920, Note_off_c, 0, 76, 0
2, 1920, Note_on_c, 0, 73, 93
2, 1944, Note_off_c, 0, 73, 0
2, 1944, Note_on_c, 0, 69, 93
2, 1968, Note_off_c, 0, 69, 0
2, 1968, Note_on_c, 0, 73, 93
2, 1992, Note_off_c, 0, 73, 0
2, 1992, Note_on_c, 0, 76, 93
2, 2016, Note_off_c, 0, 76, 0
2, 2016, Note_on_c, 0, 81, 93
2, 2040, Note_off_c, 0, 81, 0
2, 2040, Note_on_c, 0, 72, 93
2, 2064, Note_off_c, 0, 72, 0
2, 2064, Note_on_c, 0, 69, 93
2, 2088, Note_off_c, 0, 69, 0
2, 2088, Note_on_c, 0, 66, 93
2, 2112, Note_off_c, 0, 66, 0
2, 2112, Note_on_c, 0, 63, 93
2, 2136, Note_off_c, 0, 63, 0
2, 2136, Note_on_c, 0, 66, 93
2, 2160, Note_off_c, 0, 66, 0
2, 2160, Note_on_c, 0, 71, 93
2, 2184, Note_off_c, 0, 71, 0
2, 2184, Note_on_c, 0, 78, 93
2, 2208, Note_off_c, 0, 78, 0
2, 2208, Note_on_c, 0, 81, 93
2, 2232, Note_off_c, 0, 81, 0
2, 2232, Note_on_c, 0, 84, 93
2, 2256, Note_off_c, 0, 84, 0
2, 2256, Note_on_c, 0, 83, 93
2, 2280, Note_off_c, 0, 83, 0
2, 2280, Note_on_c, 0, 81, 93
2, 2304, Note_off_c, 0, 81, 0
2, 2304, Note_on_c, 0, 79, 93
2, 2328, Note_off_c, 0, 79, 0
2, 2328, Note_on_c, 0, 83, 93
2, 2352, Note_off_c, 0, 83, 0
2, 2352, Note_on_c, 0, 79, 93
2, 2376, Note_off_c, 0, 79, 0
2, 2376, Note_on_c, 0, 76, 93
2, 2400, Note_off_c, 0, 76, 0
2, 2400, Note_on_c, 0, 71, 93
2, 2424, Note_off_c, 0, 71, 0
2, 2424, Note_on_c, 0, 74, 93
2, 2448, Note_off_c, 0, 74, 0
2, 2448, Note_on_c, 0, 73, 93
2, 2472, Note_off_c, 0, 73, 0
2, 2472, Note_on_c, 0, 71, 93
2, 2496, Note_off_c, 0, 71, 0
2, 2496, Note_on_c, 0, 70, 93
2, 2520, Note_off_c, 0, 70, 0
2, 2520, Note_on_c, 0, 79, 93
2, 2544, Note_off_c, 0, 79, 0
2, 2544, Note_on_c, 0, 78, 93
2, 2568, Note_off_c, 0, 78, 0
2, 2568, Note_on_c, 0, 64, 93
2, 2592, Note_off_c, 0, 64, 0
2, 2592, Note_on_c, 0, 62, 93
2, 2616, Note_off_c, 0, 62, 0
2, 2616, Note_on_c, 0, 66, 93
2, 2640, Note_off_c, 0, 66, 0
2, 2640, Note_on_c, 0, 71, 93
2, 2664, Note_off_c, 0, 71, 0
2, 2664, Note_on_c, 0, 74, 93
2, 2688, Note_off_c, 0, 74, 0
2, 2688, Note_on_c, 0, 68, 93
2, 2712, Note_off_c, 0, 68, 0
2, 2712, Note_on_c, 0, 78, 93
2, 2736, Note_off_c, 0, 78, 0
2, 2736, Note_on_c, 0, 76, 93
2, 2760, Note_off_c, 0, 76, 0
2, 2760, Note_on_c, 0, 62, 93
2, 2784, Note_off_c, 0, 62, 0
2, 2784, Note_on_c, 0, 61, 93
2, 2808, Note_off_c, 0, 61, 0
2, 2808, Note_on_c, 0, 64, 93
2, 2832, Note_off_c, 0, 64, 0
2, 2832, Note_on_c, 0, 67, 93
2, 2856, Note_off_c, 0, 67, 0
2, 2856, Note_on_c, 0, 59, 93
2, 2880, Note_off_c, 0, 59, 0
2, 2880, Note_on_c, 0, 58, 93
2, 2904, Note_off_c, 0, 58, 0
2, 2904, Note_on_c, 0, 66, 93
2, 2928, Note_off_c, 0, 66, 0
2, 2928, Note_on_c, 0, 73, 93
2, 2952, Note_off_c, 0, 73, 0
2, 2952, Note_on_c, 0, 76, 93
2, 2976, Note_off_c, 0, 76, 0
2, 2976, Note_on_c, 0, 74, 93
2, 3000, Note_off_c, 0, 74, 0
2, 3000, Note_on_c, 0, 66, 93
2, 3024, Note_off_c, 0, 66, 0
2, 3024, Note_on_c, 0, 59, 93
2, 3048, Note_off_c, 0, 59, 0
2, 3048, Note_on_c, 0, 74, 93
2, 3072, Note_off_c, 0, 74, 0
2, 3072, Note_on_c, 0, 73, 93
2, 3096, Note_off_c, 0, 73, 0
2, 3096, Note_on_c, 0, 78, 93
2, 3120, Note_off_c, 0, 78, 0
2, 3120, Note_on_c, 0, 73, 93
2, 3144, Note_off_c, 0, 73, 0
2, 3144, Note_on_c, 0, 70, 93
2, 3168, Note_off_c, 0, 70, 0
2, 3168, Note_on_c, 0, 66, 93
2, 3192, Note_off_c, 0, 66, 0
2, 3192, Note_on_c, 0, 70, 93
2, 3216, Note_off_c, 0, 70, 0
2, 3216, Note_on_c, 0, 73, 93
2, 3240, Note_off_c, 0, 73, 0
2, 3240, Note_on_c, 0, 64, 93
2, 3264, Note_off_c, 0, 64, 0
2, 3264, Note_on_c, 0, 62, 93
2, 3288, Note_off_c, 0, 62, 0
2, 3288, Note_on_c, 0, 78, 93
2, 3312, Note_off_c, 0, 78, 0
2, 3312, Note_on_c, 0, 74, 93
2, 3336, Note_off_c, 0, 74, 0
2, 3336, Note_on_c, 0, 71, 93
2, 3360, Note_off_c, 0, 71, 0
2, 3360, Note_on_c, 0, 68, 93
2, 3384, Note_off_c, 0, 68, 0
2, 3384, Note_on_c, 0, 71, 93
2, 3408, Note_off_c, 0, 71, 0
2, 3408, Note_on_c, 0, 76, 93
2, 3432, Note_off_c, 0, 76, 0
2, 3432, Note_on_c, 0, 70, 93
2, 3456, Note_off_c, 0, 70, 0
2, 3456, Note_on_c, 0, 71, 93
2, 3480, Note_off_c, 0, 71, 0
2, 3480, Note_on_c, 0, 76, 93
2, 3504, Note_off_c, 0, 76, 0
2, 3504, Note_on_c, 0, 78, 93
2, 3528, Note_off_c, 0, 78, 0
2, 3528, Note_on_c, 0, 73, 93
2, 3552, Note_off_c, 0, 73, 0
2, 3552, Note_on_c, 0, 74, 93
2, 3576, Note_off_c, 0, 74, 0
2, 3576, Note_on_c, 0, 71, 93
2, 3600, Note_off_c, 0, 71, 0
2, 3600, Note_on_c, 0, 80, 93
2, 3624, Note_off_c, 0, 80, 0
2, 3624, Note_on_c, 0, 71, 93
2, 3648, Note_off_c, 0, 71, 0
2, 3648, Note_on_c, 0, 65, 93
2, 3672, Note_off_c, 0, 65, 0
2, 3672, Note_on_c, 0, 73, 93
2, 3696, Note_off_c, 0, 73, 0
2, 3696, Note_on_c, 0, 83, 93
2, 3720, Note_off_c, 0, 83, 0
2, 3720, Note_on_c, 0, 80, 93
2, 3744, Note_off_c, 0, 80, 0
2, 3744, Note_on_c, 0, 81, 93
2, 3768, Note_off_c, 0, 81, 0
2, 3768, Note_on_c, 0, 73, 93
2, 3792, Note_off_c, 0, 73, 0
2, 3792, Note_on_c, 0, 66, 93
2, 3816, Note_off_c, 0, 66, 0
2, 3816, Note_on_c, 0, 81, 93
2, 3840, Note_off_c, 0, 81, 0
2, 3840, Note_on_c, 0, 80, 93
2, 3864, Note_off_c, 0, 80, 0
2, 3864, Note_on_c, 0, 73, 93
2, 3888, Note_off_c, 0, 73, 0
2, 3888, Note_on_c, 0, 77, 93
2, 3912, Note_off_c, 0, 77, 0
2, 3912, Note_on_c, 0, 80, 93
2, 3936, Note_off_c, 0, 80, 0
2, 3936, Note_on_c, 0, 85, 93
2, 3960, Note_off_c, 0, 85, 0
2, 3960, Note_on_c, 0, 76, 93
2, 3984, Note_off_c, 0, 76, 0
2, 3984, Note_on_c, 0, 70, 93
2, 4008, Note_off_c, 0, 70, 0
2, 4008, Note_on_c, 0, 76, 93
2, 4032, Note_off_c, 0, 76, 0
2, 4032, Note_on_c, 0, 59, 93
2, 4056, Note_off_c, 0, 59, 0
2, 4056, Note_on_c, 0, 66, 93
2, 4080, Note_off_c, 0, 66, 0
2, 4080, Note_on_c, 0, 76, 93
2, 4104, Note_off_c, 0, 76, 0
2, 4104, Note_on_c, 0, 73, 93
2, 4128, Note_off_c, 0, 73, 0
2, 4128, Note_on_c, 0, 74, 93
2, 4152, Note_off_c, 0, 74, 0
2, 4152, Note_on_c, 0, 78, 93
2, 4176, Note_off_c, 0, 78, 0
2, 4176, Note_on_c, 0, 83, 93
2, 4200, Note_off_c, 0, 83, 0
2, 4200, Note_on_c, 0, 85, 93
2, 4224, Note_off_c, 0, 85, 0
2, 4224, Note_on_c, 0, 86, 93
2, 4248, Note_off_c, 0, 86, 0
2, 4248, Note_on_c, 0, 77, 93
2, 4272, Note_off_c, 0, 77, 0
2, 4272, Note_on_c, 0, 68, 93
2, 4296, Note_off_c, 0, 68, 0
2, 4296, Note_on_c, 0, 77, 93
2, 4320, Note_off_c, 0, 77, 0
2, 4320, Note_on_c, 0, 61, 93
2, 4344, Note_off_c, 0, 61, 0
2, 4344, Note_on_c, 0, 86, 93
2, 4368, Note_off_c, 0, 86, 0
2, 4368, Note_on_c, 0, 77, 93
2, 4392, Note_off_c, 0, 77, 0
2, 4392, Note_on_c, 0, 85, 93
2, 4416, Note_off_c, 0, 85, 0
2, 4416, Note_on_c, 0, 83, 93
2, 4440, Note_off_c, 0, 83, 0
2, 4440, Note_on_c, 0, 81, 93
2, 4464, Note_off_c, 0, 81, 0
2, 4464, Note_on_c, 0, 80, 93
2, 4488, Note_off_c, 0, 80, 0
2, 4488, Note_on_c, 0, 78, 93
2, 4512, Note_off_c, 0, 78, 0
2, 4512, Note_on_c, 0, 73, 93
2, 4536, Note_off_c, 0, 73, 0
2, 4536, Note_on_c, 0, 78, 93
2, 4560, Note_off_c, 0, 78, 0
2, 4560, Note_on_c, 0, 80, 93
2, 4584, Note_off_c, 0, 80, 0
2, 4584, Note_on_c, 0, 77, 93
2, 4608, Note_off_c, 0, 77, 0
2, 4608, Note_on_c, 0, 78, 93
2, 4632, Note_off_c, 0, 78, 0
2, 4632, Note_on_c, 0, 73, 93
2, 4656, Note_off_c, 0, 73, 0
2, 4656, Note_on_c, 0, 70, 93
2, 4680, Note_off_c, 0, 70, 0
2, 4680, Note_on_c, 0, 76, 93
2, 4704, Note_off_c, 0, 76, 0
2, 4704, Note_on_c, 0, 74, 93
2, 4728, Note_off_c, 0, 74, 0
2, 4728, Note_on_c, 0, 65, 93
2, 4752, Note_off_c, 0, 65, 0
2, 4752, Note_on_c, 0, 68, 93
2, 4776, Note_off_c, 0, 68, 0
2, 4776, Note_on_c, 0, 71, 93
2, 4800, Note_off_c, 0, 71, 0
2, 4800, Note_on_c, 0, 70, 93
2, 4824, Note_off_c, 0, 70, 0
2, 4824, Note_on_c, 0, 66, 93
2, 4848, Note_off_c, 0, 66, 0
2, 4848, Note_on_c, 0, 70, 93
2, 4872, Note_off_c, 0, 70, 0
2, 4872, Note_on_c, 0, 73, 93
2, 4896, Note_off_c, 0, 73, 0
2, 4896, Note_on_c, 0, 78, 93
2, 4968, Note_off_c, 0, 78, 0
2, 4968, Note_on_c, 0, 78, 93
2, 4992, Note_off_c, 0, 78, 0
2, 4992, Note_on_c, 0, 71, 93
2, 5016, Note_off_c, 0, 71, 0
2, 5016, Note_on_c, 0, 74, 93
2, 5040, Note_off_c, 0, 74, 0
2, 5040, Note_on_c, 0, 78, 93
2, 5064, Note_off_c, 0, 78, 0
2, 5064, Note_on_c, 0, 83, 93
2, 5088, Note_off_c, 0, 83, 0
2, 5088, Note_on_c, 0, 79, 93
2, 5112, Note_off_c, 0, 79, 0
2, 5112, Note_on_c, 0, 76, 93
2, 5136, Note_off_c, 0, 76, 0
2, 5136, Note_on_c, 0, 73, 93
2, 5160, Note_off_c, 0, 73, 0
2, 5160, Note_on_c, 0, 76, 93
2, 5184, Note_off_c, 0, 76, 0
2, 5184, Note_on_c, 0, 70, 93
2, 5208, Note_off_c, 0, 70, 0
2, 5208, Note_on_c, 0, 79, 93
2, 5232, Note_off_c, 0, 79, 0
2, 5232, Note_on_c, 0, 78, 93
2, 5256, Note_off_c, 0, 78, 0
2, 5256, Note_on_c, 0, 76, 93
2, 5280, Note_off_c, 0, 76, 0
2, 5280, Note_on_c, 0, 74, 93
2, 5304, Note_off_c, 0, 74, 0
2, 5304, Note_on_c, 0, 71, 93
2, 5328, Note_off_c, 0, 71, 0
2, 5328, Note_on_c, 0, 66, 93
2, 5352, Note_off_c, 0, 66, 0
2, 5352, Note_on_c, 0, 69, 93
2, 5376, Note_off_c, 0, 69, 0
2, 5376, Note_on_c, 0, 67, 93
2, 5400, Note_off_c, 0, 67, 0
2, 5400, Note_on_c, 0, 78, 93
2, 5424, Note_off_c, 0, 78, 0
2, 5424, Note_on_c, 0, 76, 93
2, 5448, Note_off_c, 0, 76, 0
2, 5448, Note_on_c, 0, 74, 93
2, 5472, Note_off_c, 0, 74, 0
2, 5472, Note_on_c, 0, 73, 93
2, 5496, Note_off_c, 0, 73, 0
2, 5496, Note_on_c, 0, 76, 93
2, 5520, Note_off_c, 0, 76, 0
2, 5520, Note_on_c, 0, 79, 93
2, 5544, Note_off_c, 0, 79, 0
2, 5544, Note_on_c, 0, 71, 93
2, 5568, Note_off_c, 0, 71, 0
2, 5568, Note_on_c, 0, 70, 93
2, 5592, Note_off_c, 0, 70, 0
2, 5592, Note_on_c, 0, 73, 93
2, 5616, Note_off_c, 0, 73, 0
2, 5616, Note_on_c, 0, 66, 93
2, 5640, Note_off_c, 0, 66, 0
2, 5640, Note_on_c, 0, 64, 93
2, 5664, Note_off_c, 0, 64, 0
2, 5664, Note_on_c, 0, 62, 93
2, 5688, Note_off_c, 0, 62, 0
2, 5688, Note_on_c, 0, 71, 93
2, 5712, Note_off_c, 0, 71, 0
2, 5712, Note_on_c, 0, 61, 93
2, 5736, Note_off_c, 0, 61, 0
2, 5736, Note_on_c, 0, 73, 93
2, 5760, Note_off_c, 0, 73, 0
2, 5760, Note_on_c, 0, 74, 93
2, 5784, Note_off_c, 0, 74, 0
2, 5784, Note_on_c, 0, 66, 93
2, 5808, Note_off_c, 0, 66, 0
2, 5808, Note_on_c, 0, 59, 93
2, 5832, Note_off_c, 0, 59, 0
2, 5832, Note_on_c, 0, 61, 93
2, 5856, Note_off_c, 0, 61, 0
2, 5856, Note_on_c, 0, 62, 93
2, 5880, Note_off_c, 0, 62, 0
2, 5880, Note_on_c, 0, 64, 93
2, 5904, Note_off_c, 0, 64, 0
2, 5904, Note_on_c, 0, 66, 93
2, 5928, Note_off_c, 0, 66, 0
2, 5928, Note_on_c, 0, 67, 93
2, 5952, Note_off_c, 0, 67, 0
2, 5952, Note_on_c, 0, 69, 93
2, 5976, Note_off_c, 0, 69, 0
2, 5976, Note_on_c, 0, 62, 93
2, 6000, Note_off_c, 0, 62, 0
2, 6000, Note_on_c, 0, 66, 93
2, 6024, Note_off_c, 0, 66, 0
2, 6024, Note_on_c, 0, 69, 93
2, 6048, Note_off_c, 0, 69, 0
2, 6048, Note_on_c, 0, 74, 93
2, 6072, Note_off_c, 0, 74, 0
2, 6072, Note_on_c, 0, 76, 93
2, 6096, Note_off_c, 0, 76, 0
2, 6096, Note_on_c, 0, 78, 93
2, 6120, Note_off_c, 0, 78, 0
2, 6120, Note_on_c, 0, 69, 93
2, 6144, Note_off_c, 0, 69, 0
2, 6144, Note_on_c, 0, 71, 93
2, 6168, Note_off_c, 0, 71, 0
2, 6168, Note_on_c, 0, 67, 93
2, 6192, Note_off_c, 0, 67, 0
2, 6192, Note_on_c, 0, 71, 93
2, 6216, Note_off_c, 0, 71, 0
2, 6216, Note_on_c, 0, 74, 93
2, 6240, Note_off_c, 0, 74, 0
2, 6240, Note_on_c, 0, 79, 93
2, 6264, Note_off_c, 0, 79, 0
2, 6264, Note_on_c, 0, 71, 93
2, 6288, Note_off_c, 0, 71, 0
2, 6288, Note_on_c, 0, 67, 93
2, 6312, Note_off_c, 0, 67, 0
2, 6312, Note_on_c, 0, 64, 93
2, 6336, Note_off_c, 0, 64, 0
2, 6336, Note_on_c, 0, 61, 93
2, 6360, Note_off_c, 0, 61, 0
2, 6360, Note_on_c, 0, 64, 93
2, 6384, Note_off_c, 0, 64, 0
2, 6384, Note_on_c, 0, 69, 93
2, 6408, Note_off_c, 0, 69, 0
2, 6408, Note_on_c, 0, 79, 93
2, 6432, Note_off_c, 0, 79, 0
2, 6432, Note_on_c, 0, 78, 93
2, 6456, Note_off_c, 0, 78, 0
2, 6456, Note_on_c, 0, 62, 93
2, 6480, Note_off_c, 0, 62, 0
2, 6480, Note_on_c, 0, 67, 93
2, 6504, Note_off_c, 0, 67, 0
2, 6504, Note_on_c, 0, 76, 93
2, 6528, Note_off_c, 0, 76, 0
2, 6528, Note_on_c, 0, 73, 93
2, 6552, Note_off_c, 0, 73, 0
2, 6552, Note_on_c, 0, 69, 93
2, 6576, Note_off_c, 0, 69, 0
2, 6576, Note_on_c, 0, 73, 93
2, 6600, Note_off_c, 0, 73, 0
2, 6600, Note_on_c, 0, 76, 93
2, 6624, Note_off_c, 0, 76, 0
2, 6624, Note_on_c, 0, 81, 93
2, 6648, Note_off_c, 0, 81, 0
2, 6648, Note_on_c, 0, 72, 93
2, 6672, Note_off_c, 0, 72, 0
2, 6672, Note_on_c, 0, 69, 93
2, 6696, Note_off_c, 0, 69, 0
2, 6696, Note_on_c, 0, 66, 93
2, 6720, Note_off_c, 0, 66, 0
2, 6720, Note_on_c, 0, 63, 93
2, 6744, Note_off_c, 0, 63, 0
2, 6744, Note_on_c, 0, 66, 93
2, 6768, Note_off_c, 0, 66, 0
2, 6768, Note_on_c, 0, 71, 93
2, 6792, Note_off_c, 0, 71, 0
2, 6792, Note_on_c, 0, 78, 93
2, 6816, Note_off_c, 0, 78, 0
2, 6816, Note_on_c, 0, 81, 93
2, 6840, Note_off_c, 0, 81, 0
2, 6840, Note_on_c, 0, 84, 93
2, 6864, Note_off_c, 0, 84, 0
2, 6864, Note_on_c, 0, 83, 93
2, 6888, Note_off_c, 0, 83, 0
2, 6888, Note_on_c, 0, 81, 93
2, 6912, Note_off_c, 0, 81, 0
2, 6912, Note_on_c, 0, 79, 93
2, 6936, Note_off_c, 0, 79, 0
2, 6936, Note_on_c, 0, 83, 93
2, 6960, Note_off_c, 0, 83, 0
2, 6960, Note_on_c, 0, 79, 93
2, 6984, Note_off_c, 0, 79, 0
2, 6984, Note_on_c, 0, 76, 93
2, 7008, Note_off_c, 0, 76, 0
2, 7008, Note_on_c, 0, 71, 93
2, 7032, Note_off_c, 0, 71, 0
2, 7032, Note_on_c, 0, 74, 93
2, 7056, Note_off_c, 0, 74, 0
2, 7056, Note_on_c, 0, 73, 93
2, 7080, Note_off_c, 0, 73, 0
2, 7080, Note_on_c, 0, 71, 93
2, 7104, Note_off_c, 0, 71, 0
2, 7104, Note_on_c, 0, 70, 93
2, 7128, Note_off_c, 0, 70, 0
2, 7128, Note_on_c, 0, 79, 93
2, 7152, Note_off_c, 0, 79, 0
2, 7152, Note_on_c, 0, 78, 93
2, 7176, Note_off_c, 0, 78, 0
2, 7176, Note_on_c, 0, 64, 93
2, 7200, Note_off_c, 0, 64, 0
2, 7200, Note_on_c, 0, 62, 93
2, 7224, Note_off_c, 0, 62, 0
2, 7224, Note_on_c, 0, 66, 93
2, 7248, Note_off_c, 0, 66, 0
2, 7248, Note_on_c, 0, 71, 93
2, 7272, Note_off_c, 0, 71, 0
2, 7272, Note_on_c, 0, 74, 93
2, 7296, Note_off_c, 0, 74, 0
2, 7296, Note_on_c, 0, 68, 93
2, 7320, Note_off_c, 0, 68, 0
2, 7320, Note_on_c, 0, 78, 93
2, 7344, Note_off_c, 0, 78, 0
2, 7344, Note_on_c, 0, 76, 93
2, 7368, Note_off_c, 0, 76, 0
2, 7368, Note_on_c, 0, 62, 93
2, 7392, Note_off_c, 0, 62, 0
2, 7392, Note_on_c, 0, 61, 93
2, 7416, Note_off_c, 0, 61, 0
2, 7416, Note_on_c, 0, 64, 93
2, 7440, Note_off_c, 0, 64, 0
2, 7440, Note_on_c, 0, 67, 93
2, 7464, Note_off_c, 0, 67, 0
2, 7464, Note_on_c, 0, 59, 93
2, 7488, Note_off_c, 0, 59, 0
2, 7488, Note_on_c, 0, 58, 93
2, 7512, Note_off_c, 0, 58, 0
2, 7512, Note_on_c, 0, 66, 93
2, 7536, Note_off_c, 0, 66, 0
2, 7536, Note_on_c, 0, 73, 93
2, 7560, Note_off_c, 0, 73, 0
2, 7560, Note_on_c, 0, 76, 93
2, 7584, Note_off_c, 0, 76, 0
2, 7584, Note_on_c, 0, 74, 93
2, 7608, Note_off_c, 0, 74, 0
2, 7608, Note_on_c, 0, 66, 93
2, 7632, Note_off_c, 0, 66, 0
2, 7632, Note_on_c, 0, 59, 93
2, 7656, Note_off_c, 0, 59, 0
2, 7656, Note_on_c, 0, 74, 93
2, 7680, Note_off_c, 0, 74, 0
2, 7680, Note_on_c, 0, 73, 93
2, 7704, Note_off_c, 0, 73, 0
2, 7704, Note_on_c, 0, 78, 93
2, 7728, Note_off_c, 0, 78, 0
2, 7728, Note_on_c, 0, 73, 93
2, 7752, Note_off_c, 0, 73, 0
2, 7752, Note_on_c, 0, 70, 93
2, 7776, Note_off_c, 0, 70, 0
2, 7776, Note_on_c, 0, 66, 93
2, 7800, Note_off_c, 0, 66, 0
2, 7800, Note_on_c, 0, 70, 93
2, 7824, Note_off_c, 0, 70, 0
2, 7824, Note_on_c, 0, 73, 93
2, 7848, Note_off_c, 0, 73, 0
2, 7848, Note_on_c, 0, 64, 93
2, 7872, Note_off_c, 0, 64, 0
2, 7872, Note_on_c, 0, 62, 93
2, 7896, Note_off_c, 0, 62, 0
2, 7896, Note_on_c, 0, 78, 93
2, 7920, Note_off_c, 0, 78, 0
2, 7920, Note_on_c, 0, 74, 93
2, 7944, Note_off_c, 0, 74, 0
2, 7944, Note_on_c, 0, 71, 93
2, 7968, Note_off_c, 0, 71, 0
2, 7968, Note_on_c, 0, 68, 93
2, 7992, Note_off_c, 0, 68, 0
2, 7992, Note_on_c, 0, 71, 93
2, 8016, Note_off_c, 0, 71, 0
2, 8016, Note_on_c, 0, 76, 93
2, 8040, Note_off_c, 0, 76, 0
2, 8040, Note_on_c, 0, 70, 93
2, 8064, Note_off_c, 0, 70, 0
2, 8064, Note_on_c, 0, 71, 93
2, 8088, Note_off_c, 0, 71, 0
2, 8088, Note_on_c, 0, 76, 93
2, 8112, Note_off_c, 0, 76, 0
2, 8112, Note_on_c, 0, 78, 93
2, 8136, Note_off_c, 0, 78, 0
2, 8136, Note_on_c, 0, 73, 93
2, 8160, Note_off_c, 0, 73, 0
2, 8160, Note_on_c, 0, 74, 93
2, 8184, Note_off_c, 0, 74, 0
2, 8184, Note_on_c, 0, 71, 93
2, 8208, Note_off_c, 0, 71, 0
2, 8208, Note_on_c, 0, 80, 93
2, 8232, Note_off_c, 0, 80, 0
2, 8232, Note_on_c, 0, 71, 93
2, 8256, Note_off_c, 0, 71, 0
2, 8256, Note_on_c, 0, 65, 93
2, 8280, Note_off_c, 0, 65, 0
2, 8280, Note_on_c, 0, 73, 93
2, 8304, Note_off_c, 0, 73, 0
2, 8304, Note_on_c, 0, 83, 93
2, 8328, Note_off_c, 0, 83, 0
2, 8328, Note_on_c, 0, 80, 93
2, 8352, Note_off_c, 0, 80, 0
2, 8352, Note_on_c, 0, 81, 93
2, 8376, Note_off_c, 0, 81, 0
2, 8376, Note_on_c, 0, 73, 93
2, 8400, Note_off_c, 0, 73, 0
2, 8400, Note_on_c, 0, 66, 93
2, 8424, Note_off_c, 0, 66, 0
2, 8424, Note_on_c, 0, 81, 93
2, 8448, Note_off_c, 0, 81, 0
2, 8448, Note_on_c, 0, 80, 93
2, 8472, Note_off_c, 0, 80, 0
2, 8472, Note_on_c, 0, 73, 93
2, 8496, Note_off_c, 0, 73, 0
2, 8496, Note_on_c, 0, 77, 93
2, 8520, Note_off_c, 0, 77, 0
2, 8520, Note_on_c, 0, 80, 93
2, 8544, Note_off_c, 0, 80, 0
2, 8544, Note_on_c, 0, 85, 93
2, 8568, Note_off_c, 0, 85, 0
2, 8568, Note_on_c, 0, 76, 93
2, 8592, Note_off_c, 0, 76, 0
2, 8592, Note_on_c, 0, 70, 93
2, 8616, Note_off_c, 0, 70, 0
2, 8616, Note_on_c, 0, 76, 93
2, 8640, Note_off_c, 0, 76, 0
2, 8640, Note_on_c, 0, 59, 93
2, 8664, Note_off_c, 0, 59, 0
2, 8664, Note_on_c, 0, 66, 93
2, 8688, Note_off_c, 0, 66, 0
2, 8688, Note_on_c, 0, 76, 93
2, 8712, Note_off_c, 0, 76, 0
2, 8712, Note_on_c, 0, 73, 93
2, 8736, Note_off_c, 0, 73, 0
2, 8736, Note_on_c, 0, 74, 93
2, 8760, Note_off_c, 0, 74, 0
2, 8760, Note_on_c, 0, 78, 93
2, 8784, Note_off_c, 0, 78, 0
2, 8784, Note_on_c, 0, 83, 93
2, 8808, Note_off_c, 0, 83, 0
2, 8808, Note_on_c, 0, 85, 93
2, 8832, Note_off_c, 0, 85, 0
2, 8832, Note_on_c, 0, 86, 93
2, 8856, Note_off_c, 0, 86, 0
2, 8856, Note_on_c, 0, 77, 93
2, 8880, Note_off_c, 0, 77, 0
2, 8880, Note_on_c, 0, 68, 93
2, 8904, Note_off_c, 0, 68, 0
2, 8904, Note_on_c, 0, 77, 93
2, 8928, Note_off_c, 0, 77, 0
2, 8928, Note_on_c, 0, 61, 93
2, 8952, Note_off_c, 0, 61, 0
2, 8952, Note_on_c, 0, 86, 93
2, 8976, Note_off_c, 0, 86, 0
2, 8976, Note_on_c, 0, 77, 93
2, 9000, Note_off_c, 0, 77, 0
2, 9000, Note_on_c, 0, 85, 93
2, 9024, Note_off_c, 0, 85, 0
2, 9024, Note_on_c, 0, 83, 93
2, 9048, Note_off_c, 0, 83, 0
2, 9048, Note_on_c, 0, 81, 93
2, 9072, Note_off_c, 0, 81, 0
2, 9072, Note_on_c, 0, 80, 93
2, 9096, Note_off_c, 0, 80, 0
2, 9096, Note_on_c, 0, 78, 93
2, 9120, Note_off_c, 0, 78, 0
2, 9120, Note_on_c, 0, 73, 93
2, 9144, Note_off_c, 0, 73, 0
2, 9144, Note_on_c, 0, 78, 93
2, 9168, Note_off_c, 0, 78, 0
2, 9168, Note_on_c, 0, 80, 93
2, 9192, Note_off_c, 0, 80, 0
2, 9192, Note_on_c, 0, 77, 93
2, 9216, Note_off_c, 0, 77, 0
2, 9216, Note_on_c, 0, 78, 93
2, 9240, Note_off_c, 0, 78, 0
2, 9240, Note_on_c, 0, 73, 93
2, 9264, Note_off_c, 0, 73, 0
2, 9264, Note_on_c, 0, 70, 93
2, 9288, Note_off_c, 0, 70, 0
2, 9288, Note_on_c, 0, 76, 93
2, 9312, Note_off_c, 0, 76, 0
2, 9312, Note_on_c, 0, 74, 93
2, 9336, Note_off_c, 0, 74, 0
2, 9336, Note_on_c, 0, 65, 93
2, 9360, Note_off_c, 0, 65, 0
2, 9360, Note_on_c, 0, 68, 93
2, 9384, Note_off_c, 0, 68, 0
2, 9384, Note_on_c, 0, 71, 93
2, 9408, Note_off_c, 0, 71, 0
2, 9408, Note_on_c, 0, 70, 93
2, 9432, Note_off_c, 0, 70, 0
2, 9432, Note_on_c, 0, 66, 93
2, 9456, Note_off_c, 0, 66, 0
2, 9456, Note_on_c, 0, 70, 93
2, 9480, Note_off_c, 0, 70, 0
2, 9480, Note_on_c, 0, 73, 93
2, 9504, Note_off_c, 0, 73, 0
2, 9504, Note_on_c, 0, 78, 93
2, 9576, Note_off_c, 0, 78, 0
2, 9576, Note_on_c, 0, 73, 93
2, 9600, Note_off_c, 0, 73, 0
2, 9600, Note_on_c, 0, 73, 93
2, 9624, Note_off_c, 0, 73, 0
2, 9624, Note_on_c, 0, 79, 93
2, 9648, Note_off_c, 0, 79, 0
2, 9648, Note_on_c, 0, 76, 93
2, 9672, Note_off_c, 0, 76, 0
2, 9672, Note_on_c, 0, 73, 93
2, 9696, Note_off_c, 0, 73, 0
2, 9696, Note_on_c, 0, 70, 93
2, 9720, Note_off_c, 0, 70, 0
2, 9720, Note_on_c, 0, 66, 93
2, 9744, Note_off_c, 0, 66, 0
2, 9744, Note_on_c, 0, 73, 93
2, 9768, Note_off_c, 0, 73, 0
2, 9768, Note_on_c, 0, 64, 93
2, 9792, Note_off_c, 0, 64, 0
2, 9792, Note_on_c, 0, 62, 93
2, 9816, Note_off_c, 0, 62, 0
2, 9816, Note_on_c, 0, 66, 93
2, 9840, Note_off_c, 0, 66, 0
2, 9840, Note_on_c, 0, 71, 93
2, 9864, Note_off_c, 0, 71, 0
2, 9864, Note_on_c, 0, 62, 93
2, 9888, Note_off_c, 0, 62, 0
2, 9888, Note_on_c, 0, 61, 93
2, 9912, Note_off_c, 0, 61, 0
2, 9912, Note_on_c, 0, 59, 93
2, 9936, Note_off_c, 0, 59, 0
2, 9936, Note_on_c, 0, 58, 93
2, 9960, Note_off_c, 0, 58, 0
2, 9960, Note_on_c, 0, 64, 93
2, 9984, Note_off_c, 0, 64, 0
2, 9984, Note_on_c, 0, 62, 93
2, 10008, Note_off_c, 0, 62, 0
2, 10008, Note_on_c, 0, 59, 93
2, 10032, Note_off_c, 0, 59, 0
2, 10032, Note_on_c, 0, 62, 93
2, 10056, Note_off_c, 0, 62, 0
2, 10056, Note_on_c, 0, 66, 93
2, 10080, Note_off_c, 0, 66, 0
2, 10080, Note_on_c, 0, 71, 93
2, 10104, Note_off_c, 0, 71, 0
2, 10104, Note_on_c, 0, 67, 93
2, 10128, Note_off_c, 0, 67, 0
2, 10128, Note_on_c, 0, 66, 93
2, 10152, Note_off_c, 0, 66, 0
2, 10152, Note_on_c, 0, 64, 93
2, 10176, Note_off_c, 0, 64, 0
2, 10176, Note_on_c, 0, 63, 93
2, 10200, Note_off_c, 0, 63, 0
2, 10200, Note_on_c, 0, 66, 93
2, 10224, Note_off_c, 0, 66, 0
2, 10224, Note_on_c, 0, 69, 93
2, 10248, Note_off_c, 0, 69, 0
2, 10248, Note_on_c, 0, 72, 93
2, 10272, Note_off_c, 0, 72, 0
2, 10272, Note_on_c, 0, 71, 93
2, 10296, Note_off_c, 0, 71, 0
2, 10296, Note_on_c, 0, 69, 93
2, 10320, Note_off_c, 0, 69, 0
2, 10320, Note_on_c, 0, 78, 93
2, 10344, Note_off_c, 0, 78, 0
2, 10344, Note_on_c, 0, 69, 93
2, 10368, Note_off_c, 0, 69, 0
2, 10368, Note_on_c, 0, 67, 93
2, 10392, Note_off_c, 0, 67, 0
2, 10392, Note_on_c, 0, 71, 93
2, 10416, Note_off_c, 0, 71, 0
2, 10416, Note_on_c, 0, 76, 93
2, 10440, Note_off_c, 0, 76, 0
2, 10440, Note_on_c, 0, 79, 93
2, 10464, Note_off_c, 0, 79, 0
2, 10464, Note_on_c, 0, 78, 93
2, 10488, Note_off_c, 0, 78, 0
2, 10488, Note_on_c, 0, 81, 93
2, 10512, Note_off_c, 0, 81, 0
2, 10512, Note_on_c, 0, 75, 93
2, 10536, Note_off_c, 0, 75, 0
2, 10536, Note_on_c, 0, 76, 93
2, 10560, Note_off_c, 0, 76, 0
2, 10560, Note_on_c, 0, 71, 93
2, 10584, Note_off_c, 0, 71, 0
2, 10584, Note_on_c, 0, 76, 93
2, 10608, Note_off_c, 0, 76, 0
2, 10608, Note_on_c, 0, 75, 93
2, 10632, Note_off_c, 0, 75, 0
2, 10632, Note_on_c, 0, 78, 93
2, 10656, Note_off_c, 0, 78, 0
2, 10656, Note_on_c, 0, 83, 93
2, 10680, Note_off_c, 0, 83, 0
2, 10680, Note_on_c, 0, 78, 93
2, 10704, Note_off_c, 0, 78, 0
2, 10704, Note_on_c, 0, 75, 93
2, 10728, Note_off_c, 0, 75, 0
2, 10728, Note_on_c, 0, 69, 93
2, 10752, Note_off_c, 0, 69, 0
2, 10752, Note_on_c, 0, 68, 93
2, 10776, Note_off_c, 0, 68, 0
2, 10776, Note_on_c, 0, 71, 93
2, 10800, Note_off_c, 0, 71, 0
2, 10800, Note_on_c, 0, 76, 93
2, 10824, Note_off_c, 0, 76, 0
2, 10824, Note_on_c, 0, 80, 93
2, 10848, Note_off_c, 0, 80, 0
2, 10848, Note_on_c, 0, 83, 93
2, 10872, Note_off_c, 0, 83, 0
2, 10872, Note_on_c, 0, 86, 93
2, 10896, Note_off_c, 0, 86, 0
2, 10896, Note_on_c, 0, 84, 93
2, 10920, Note_off_c, 0, 84, 0
2, 10920, Note_on_c, 0, 83, 93
2, 10944, Note_off_c, 0, 83, 0
2, 10944, Note_on_c, 0, 84, 93
2, 10968, Note_off_c, 0, 84, 0
2, 10968, Note_on_c, 0, 81, 93
2, 10992, Note_off_c, 0, 81, 0
2, 10992, Note_on_c, 0, 76, 93
2, 11016, Note_off_c, 0, 76, 0
2, 11016, Note_on_c, 0, 72, 93
2, 11040, Note_off_c, 0, 72, 0
2, 11040, Note_on_c, 0, 69, 93
2, 11064, Note_off_c, 0, 69, 0
2, 11064, Note_on_c, 0, 79, 93
2, 11088, Note_off_c, 0, 79, 0
2, 11088, Note_on_c, 0, 78, 93
2, 11112, Note_off_c, 0, 78, 0
2, 11112, Note_on_c, 0, 76, 93
2, 11136, Note_off_c, 0, 76, 0
2, 11136, Note_on_c, 0, 75, 93
2, 11160, Note_off_c, 0, 75, 0
2, 11160, Note_on_c, 0, 78, 93
2, 11184, Note_off_c, 0, 78, 0
2, 11184, Note_on_c, 0, 81, 93
2, 11208, Note_off_c, 0, 81, 0
2, 11208, Note_on_c, 0, 84, 93
2, 11232, Note_off_c, 0, 84, 0
2, 11232, Note_on_c, 0, 83, 93
2, 11256, Note_off_c, 0, 83, 0
2, 11256, Note_on_c, 0, 81, 93
2, 11280, Note_off_c, 0, 81, 0
2, 11280, Note_on_c, 0, 75, 93
2, 11304, Note_off_c, 0, 75, 0
2, 11304, Note_on_c, 0, 81, 93
2, 11328, Note_off_c, 0, 81, 0
2, 11328, Note_on_c, 0, 79, 93
2, 11352, Note_off_c, 0, 79, 0
2, 11352, Note_on_c, 0, 83, 93
2, 11376, Note_off_c, 0, 83, 0
2, 11376, Note_on_c, 0, 79, 93
2, 11400, Note_off_c, 0, 79, 0
2, 11400, Note_on_c, 0, 76, 93
2, 11424, Note_off_c, 0, 76, 0
2, 11424, Note_on_c, 0, 71, 93
2, 11448, Note_off_c, 0, 71, 0
2, 11448, Note_on_c, 0, 79, 93
2, 11472, Note_off_c, 0, 79, 0
2, 11472, Note_on_c, 0, 86, 93
2, 11496, Note_off_c, 0, 86, 0
2, 11496, Note_on_c, 0, 77, 93
2, 11520, Note_off_c, 0, 77, 0
2, 11520, Note_on_c, 0, 76, 93
2, 11544, Note_off_c, 0, 76, 0
2, 11544, Note_on_c, 0, 71, 93
2, 11568, Note_off_c, 0, 71, 0
2, 11568, Note_on_c, 0, 72, 93
2, 11592, Note_off_c, 0, 72, 0
2, 11592, Note_on_c, 0, 76, 93
2, 11616, Note_off_c, 0, 76, 0
2, 11616, Note_on_c, 0, 70, 93
2, 11640, Note_off_c, 0, 70, 0
2, 11640, Note_on_c, 0, 71, 93
2, 11664, Note_off_c, 0, 71, 0
2, 11664, Note_on_c, 0, 63, 93
2, 11688, Note_off_c, 0, 63, 0
2, 11688, Note_on_c, 0, 64, 93
2, 11712, Note_off_c, 0, 64, 0
2, 11712, Note_on_c, 0, 55, 93
2, 11736, Note_off_c, 0, 55, 0
2, 11736, Note_on_c, 0, 64, 93
2, 11760, Note_off_c, 0, 64, 0
2, 11760, Note_on_c, 0, 71, 93
2, 11784, Note_off_c, 0, 71, 0
2, 11784, Note_on_c, 0, 79, 93
2, 11808, Note_off_c, 0, 79, 0
2, 11808, Note_on_c, 0, 78, 93
2, 11832, Note_off_c, 0, 78, 0
2, 11832, Note_on_c, 0, 76, 93
2, 11856, Note_off_c, 0, 76, 0
2, 11856, Note_on_c, 0, 71, 93
2, 11880, Note_off_c, 0, 71, 0
2, 11880, Note_on_c, 0, 75, 93
2, 11904, Note_off_c, 0, 75, 0
2, 11904, Note_on_c, 0, 64, 93
2, 11928, Note_off_c, 0, 64, 0
2, 11928, Note_on_c, 0, 67, 93
2, 11952, Note_off_c, 0, 67, 0
2, 11952, Note_on_c, 0, 71, 93
2, 11976, Note_off_c, 0, 71, 0
2, 11976, Note_on_c, 0, 76, 93
2, 12000, Note_off_c, 0, 76, 0
2, 12000, Note_on_c, 0, 71, 93
2, 12024, Note_off_c, 0, 71, 0
2, 12024, Note_on_c, 0, 67, 93
2, 12048, Note_off_c, 0, 67, 0
2, 12048, Note_on_c, 0, 64, 93
2, 12072, Note_off_c, 0, 64, 0
2, 12072, Note_on_c, 0, 67, 93
2, 12096, Note_off_c, 0, 67, 0
2, 12096, Note_on_c, 0, 61, 93
2, 12120, Note_off_c, 0, 61, 0
2, 12120, Note_on_c, 0, 69, 93
2, 12144, Note_off_c, 0, 69, 0
2, 12144, Note_on_c, 0, 76, 93
2, 12168, Note_off_c, 0, 76, 0
2, 12168, Note_on_c, 0, 67, 93
2, 12192, Note_off_c, 0, 67, 0
2, 12192, Note_on_c, 0, 66, 93
2, 12216, Note_off_c, 0, 66, 0
2, 12216, Note_on_c, 0, 81, 93
2, 12240, Note_off_c, 0, 81, 0
2, 12240, Note_on_c, 0, 64, 93
2, 12264, Note_off_c, 0, 64, 0
2, 12264, Note_on_c, 0, 79, 93
2, 12288, Note_off_c, 0, 79, 0
2, 12288, Note_on_c, 0, 62, 93
2, 12312, Note_off_c, 0, 62, 0
2, 12312, Note_on_c, 0, 79, 93
2, 12336, Note_off_c, 0, 79, 0
2, 12336, Note_on_c, 0, 78, 93
2, 12360, Note_off_c, 0, 78, 0
2, 12360, Note_on_c, 0, 76, 93
2, 12384, Note_off_c, 0, 76, 0
2, 12384, Note_on_c, 0, 74, 93
2, 12408, Note_off_c, 0, 74, 0
2, 12408, Note_on_c, 0, 78, 93
2, 12432, Note_off_c, 0, 78, 0
2, 12432, Note_on_c, 0, 82, 93
2, 12456, Note_off_c, 0, 82, 0
2, 12456, Note_on_c, 0, 83, 93
2, 12480, Note_off_c, 0, 83, 0
2, 12480, Note_on_c, 0, 76, 93
2, 12504, Note_off_c, 0, 76, 0
2, 12504, Note_on_c, 0, 73, 93
2, 12528, Note_off_c, 0, 73, 0
2, 12528, Note_on_c, 0, 70, 93
2, 12552, Note_off_c, 0, 70, 0
2, 12552, Note_on_c, 0, 73, 93
2, 12576, Note_off_c, 0, 73, 0
2, 12576, Note_on_c, 0, 62, 93
2, 12600, Note_off_c, 0, 62, 0
2, 12600, Note_on_c, 0, 78, 93
2, 12624, Note_off_c, 0, 78, 0
2, 12624, Note_on_c, 0, 61, 93
2, 12648, Note_off_c, 0, 61, 0
2, 12648, Note_on_c, 0, 76, 93
2, 12672, Note_off_c, 0, 76, 0
2, 12672, Note_on_c, 0, 59, 93
2, 12696, Note_off_c, 0, 59, 0
2, 12696, Note_on_c, 0, 76, 93
2, 12720, Note_off_c, 0, 76, 0
2, 12720, Note_on_c, 0, 74, 93
2, 12744, Note_off_c, 0, 74, 0
2, 12744, Note_on_c, 0, 73, 93
2, 12768, Note_off_c, 0, 73, 0
2, 12768, Note_on_c, 0, 71, 93
2, 12792, Note_off_c, 0, 71, 0
2, 12792, Note_on_c, 0, 74, 93
2, 12816, Note_off_c, 0, 74, 0
2, 12816, Note_on_c, 0, 78, 93
2, 12840, Note_off_c, 0, 78, 0
2, 12840, Note_on_c, 0, 79, 93
2, 12864, Note_off_c, 0, 79, 0
2, 12864, Note_on_c, 0, 72, 93
2, 12888, Note_off_c, 0, 72, 0
2, 12888, Note_on_c, 0, 69, 93
2, 12912, Note_off_c, 0, 69, 0
2, 12912, Note_on_c, 0, 66, 93
2, 12936, Note_off_c, 0, 66, 0
2, 12936, Note_on_c, 0, 69, 93
2, 12960, Note_off_c, 0, 69, 0
2, 12960, Note_on_c, 0, 62, 93
2, 12984, Note_off_c, 0, 62, 0
2, 12984, Note_on_c, 0, 66, 93
2, 13008, Note_off_c, 0, 66, 0
2, 13008, Note_on_c, 0, 69, 93
2, 13032, Note_off_c, 0, 69, 0
2, 13032, Note_on_c, 0, 72, 93
2, 13056, Note_off_c, 0, 72, 0
2, 13056, Note_on_c, 0, 78, 93
2, 13080, Note_off_c, 0, 78, 0
2, 13080, Note_on_c, 0, 71, 93
2, 13104, Note_off_c, 0, 71, 0
2, 13104, Note_on_c, 0, 63, 93
2, 13128, Note_off_c, 0, 63, 0
2, 13128, Note_on_c, 0, 66, 93
2, 13152, Note_off_c, 0, 66, 0
2, 13152, Note_on_c, 0, 71, 93
2, 13176, Note_off_c, 0, 71, 0
2, 13176, Note_on_c, 0, 75, 93
2, 13200, Note_off_c, 0, 75, 0
2, 13200, Note_on_c, 0, 78, 93
2, 13224, Note_off_c, 0, 78, 0
2, 13224, Note_on_c, 0, 81, 93
2, 13248, Note_off_c, 0, 81, 0
2, 13248, Note_on_c, 0, 79, 93
2, 13272, Note_off_c, 0, 79, 0
2, 13272, Note_on_c, 0, 76, 93
2, 13296, Note_off_c, 0, 76, 0
2, 13296, Note_on_c, 0, 71, 93
2, 13320, Note_off_c, 0, 71, 0
2, 13320, Note_on_c, 0, 74, 93
2, 13344, Note_off_c, 0, 74, 0
2, 13344, Note_on_c, 0, 72, 93
2, 13368, Note_off_c, 0, 72, 0
2, 13368, Note_on_c, 0, 76, 93
2, 13392, Note_off_c, 0, 76, 0
2, 13392, Note_on_c, 0, 79, 93
2, 13416, Note_off_c, 0, 79, 0
2, 13416, Note_on_c, 0, 71, 93
2, 13440, Note_off_c, 0, 71, 0
2, 13440, Note_on_c, 0, 70, 93
2, 13464, Note_off_c, 0, 70, 0
2, 13464, Note_on_c, 0, 79, 93
2, 13488, Note_off_c, 0, 79, 0
2, 13488, Note_on_c, 0, 78, 93
2, 13512, Note_off_c, 0, 78, 0
2, 13512, Note_on_c, 0, 64, 93
2, 13536, Note_off_c, 0, 64, 0
2, 13536, Note_on_c, 0, 62, 93
2, 13560, Note_off_c, 0, 62, 0
2, 13560, Note_on_c, 0, 83, 93
2, 13584, Note_off_c, 0, 83, 0
2, 13584, Note_on_c, 0, 82, 93
2, 13608, Note_off_c, 0, 82, 0
2, 13608, Note_on_c, 0, 83, 93
2, 13632, Note_off_c, 0, 83, 0
2, 13632, Note_on_c, 0, 77, 93
2, 13656, Note_off_c, 0, 77, 0
2, 13656, Note_on_c, 0, 78, 93
2, 13680, Note_off_c, 0, 78, 0
2, 13680, Note_on_c, 0, 70, 93
2, 13704, Note_off_c, 0, 70, 0
2, 13704, Note_on_c, 0, 71, 93
2, 13728, Note_off_c, 0, 71, 0
2, 13728, Note_on_c, 0, 66, 93
2, 13752, Note_off_c, 0, 66, 0
2, 13752, Note_on_c, 0, 74, 93
2, 13776, Note_off_c, 0, 74, 0
2, 13776, Note_on_c, 0, 73, 93
2, 13800, Note_off_c, 0, 73, 0
2, 13800, Note_on_c, 0, 70, 93
2, 13824, Note_off_c, 0, 70, 0
2, 13824, Note_on_c, 0, 71, 93
2, 13848, Note_off_c, 0, 71, 0
2, 13848, Note_on_c, 0, 59, 93
2, 13872, Note_off_c, 0, 59, 0
2, 13872, Note_on_c, 0, 62, 93
2, 13896, Note_off_c, 0, 62, 0
2, 13896, Note_on_c, 0, 66, 93
2, 13920, Note_off_c, 0, 66, 0
2, 13920, Note_on_c, 0, 71, 93
2, 13944, Note_off_c, 0, 71, 0
2, 13944, Note_on_c, 0, 74, 93
2, 13968, Note_off_c, 0, 74, 0
2, 13968, Note_on_c, 0, 78, 93
2, 13992, Note_off_c, 0, 78, 0
2, 13992, Note_on_c, 0, 82, 93
2, 14016, Note_off_c, 0, 82, 0
2, 14016, Note_on_c, 0, 83, 93
2, 14040, Note_off_c, 0, 83, 0
2, 14040, Note_on_c, 0, 78, 93
2, 14064, Note_off_c, 0, 78, 0
2, 14064, Note_on_c, 0, 74, 93
2, 14088, Note_off_c, 0, 74, 0
2, 14088, Note_on_c, 0, 71, 93
2, 14112, Note_off_c, 0, 71, 0
2, 14112, Note_on_c, 0, 59, 93
2, 14184, Note_off_c, 0, 59, 0
2, 14184, Note_on_c, 0, 73, 93
2, 14208, Note_off_c, 0, 73, 0
2, 14208, Note_on_c, 0, 73, 93
2, 14232, Note_off_c, 0, 73, 0
2, 14232, Note_on_c, 0, 79, 93
2, 14256, Note_off_c, 0, 79, 0
2, 14256, Note_on_c, 0, 76, 93
2, 14280, Note_off_c, 0, 76, 0
2, 14280, Note_on_c, 0, 73, 93
2, 14304, Note_off_c, 0, 73, 0
2, 14304, Note_on_c, 0, 70, 93
2, 14328, Note_off_c, 0, 70, 0
2, 14328, Note_on_c, 0, 66, 93
2, 14352, Note_off_c, 0, 66, 0
2, 14352, Note_on_c, 0, 73, 93
2, 14376, Note_off_c, 0, 73, 0
2, 14376, Note_on_c, 0, 64, 93
2, 14400, Note_off_c, 0, 64, 0
2, 14400, Note_on_c, 0, 62, 93
2, 14424, Note_off_c, 0, 62, 0
2, 14424, Note_on_c, 0, 66, 93
2, 14448, Note_off_c, 0, 66, 0
2, 14448, Note_on_c, 0, 71, 93
2, 14472, Note_off_c, 0, 71, 0
2, 14472, Note_on_c, 0, 62, 93
2, 14496, Note_off_c, 0, 62, 0
2, 14496, Note_on_c, 0, 61, 93
2, 14520, Note_off_c, 0, 61, 0
2, 14520, Note_on_c, 0, 59, 93
2, 14544, Note_off_c, 0, 59, 0
2, 14544, Note_on_c, 0, 58, 93
2, 14568, Note_off_c, 0, 58, 0
2, 14568, Note_on_c, 0, 64, 93
2, 14592, Note_off_c, 0, 64, 0
2, 14592, Note_on_c, 0, 62, 93
2, 14616, Note_off_c, 0, 62, 0
2, 14616, Note_on_c, 0, 59, 93
2, 14640, Note_off_c, 0, 59, 0
2, 14640, Note_on_c, 0, 62, 93
2, 14664, Note_off_c, 0, 62, 0
2, 14664, Note_on_c, 0, 66, 93
2, 14688, Note_off_c, 0, 66, 0
2, 14688, Note_on_c, 0, 71, 93
2, 14712, Note_off_c, 0, 71, 0
2, 14712, Note_on_c, 0, 67, 93
2, 14736, Note_off_c, 0, 67, 0
2, 14736, Note_on_c, 0, 66, 93
2, 14760, Note_off_c, 0, 66, 0
2, 14760, Note_on_c, 0, 64, 93
2, 14784, Note_off_c, 0, 64, 0
2, 14784, Note_on_c, 0, 63, 93
2, 14808, Note_off_c, 0, 63, 0
2, 14808, Note_on_c, 0, 66, 93
2, 14832, Note_off_c, 0, 66, 0
2, 14832, Note_on_c, 0, 69, 93
2, 14856, Note_off_c, 0, 69, 0
2, 14856, Note_on_c, 0, 72, 93
2, 14880, Note_off_c, 0, 72, 0
2, 14880, Note_on_c, 0, 71, 93
2, 14904, Note_off_c, 0, 71, 0
2, 14904, Note_on_c, 0, 69, 93
2, 14928, Note_off_c, 0, 69, 0
2, 14928, Note_on_c, 0, 78, 93
2, 14952, Note_off_c, 0, 78, 0
2, 14952, Note_on_c, 0, 69, 93
2, 14976, Note_off_c, 0, 69, 0
2, 14976, Note_on_c, 0, 67, 93
2, 15000, Note_off_c, 0, 67, 0
2, 15000, Note_on_c, 0, 71, 93
2, 15024, Note_off_c, 0, 71, 0
2, 15024, Note_on_c, 0, 76, 93
2, 15048, Note_off_c, 0, 76, 0
2, 15048, Note_on_c, 0, 79, 93
2, 15072, Note_off_c, 0, 79, 0
2, 15072, Note_on_c, 0, 78, 93
2, 15096, Note_off_c, 0, 78, 0
2, 15096, Note_on_c, 0, 81, 93
2, 15120, Note_off_c, 0, 81, 0
2, 15120, Note_on_c, 0, 75, 93
2, 15144, Note_off_c, 0, 75, 0
2, 15144, Note_on_c, 0, 76, 93
2, 15168, Note_off_c, 0, 76, 0
2, 15168, Note_on_c, 0, 71, 93
2, 15192, Note_off_c, 0, 71, 0
2, 15192, Note_on_c, 0, 76, 93
2, 15216, Note_off_c, 0, 76, 0
2, 15216, Note_on_c, 0, 75, 93
2, 15240, Note_off_c, 0, 75, 0
2, 15240, Note_on_c, 0, 78, 93
2, 15264, Note_off_c, 0, 78, 0
2, 15264, Note_on_c, 0, 83, 93
2, 15288, Note_off_c, 0, 83, 0
2, 15288, Note_on_c, 0, 78, 93
2, 15312, Note_off_c, 0, 78, 0
2, 15312, Note_on_c, 0, 75, 93
2, 15336, Note_off_c, 0, 75, 0
2, 15336, Note_on_c, 0, 69, 93
2, 15360, Note_off_c, 0, 69, 0
2, 15360, Note_on_c, 0, 68, 93
2, 15384, Note_off_c, 0, 68, 0
2, 15384, Note_on_c, 0, 71, 93
2, 15408, Note_off_c, 0, 71, 0
2, 15408, Note_on_c, 0, 76, 93
2, 15432, Note_off_c, 0, 76, 0
2, 15432, Note_on_c, 0, 80, 93
2, 15456, Note_off_c, 0, 80, 0
2, 15456, Note_on_c, 0, 83, 93
2, 15480, Note_off_c, 0, 83, 0
2, 15480, Note_on_c, 0, 86, 93
2, 15504, Note_off_c, 0, 86, 0
2, 15504, Note_on_c, 0, 84, 93
2, 15528, Note_off_c, 0, 84, 0
2, 15528, Note_on_c, 0, 83, 93
2, 15552, Note_off_c, 0, 83, 0
2, 15552, Note_on_c, 0, 84, 93
2, 15576, Note_off_c, 0, 84, 0
2, 15576, Note_on_c, 0, 81, 93
2, 15600, Note_off_c, 0, 81, 0
2, 15600, Note_on_c, 0, 76, 93
2, 15624, Note_off_c, 0, 76, 0
2, 15624, Note_on_c, 0, 72, 93
2, 15648, Note_off_c, 0, 72, 0
2, 15648, Note_on_c, 0, 69, 93
2, 15672, Note_off_c, 0, 69, 0
2, 15672, Note_on_c, 0, 79, 93
2, 15696, Note_off_c, 0, 79, 0
2, 15696, Note_on_c, 0, 78, 93
2, 15720, Note_off_c, 0, 78, 0
2, 15720, Note_on_c, 0, 76, 93
2, 15744, Note_off_c, 0, 76, 0
2, 15744, Note_on_c, 0, 75, 93
2, 15768, Note_off_c, 0, 75, 0
2, 15768, Note_on_c, 0, 78, 93
2, 15792, Note_off_c, 0, 78, 0
2, 15792, Note_on_c, 0, 81, 93
2, 15816, Note_off_c, 0, 81, 0
2, 15816, Note_on_c, 0, 84, 93
2, 15840, Note_off_c, 0, 84, 0
2, 15840, Note_on_c, 0, 83, 93
2, 15864, Note_off_c, 0, 83, 0
2, 15864, Note_on_c, 0, 81, 93
2, 15888, Note_off_c, 0, 81, 0
2, 15888, Note_on_c, 0, 75, 93
2, 15912, Note_off_c, 0, 75, 0
2, 15912, Note_on_c, 0, 81, 93
2, 15936, Note_off_c, 0, 81, 0
2, 15936, Note_on_c, 0, 79, 93
2, 15960, Note_off_c, 0, 79, 0
2, 15960, Note_on_c, 0, 83, 93
2, 15984, Note_off_c, 0, 83, 0
2, 15984, Note_on_c, 0, 79, 93
2, 16008, Note_off_c, 0, 79, 0
2, 16008, Note_on_c, 0, 76, 93
2, 16032, Note_off_c, 0, 76, 0
2, 16032, Note_on_c, 0, 71, 93
2, 16056, Note_off_c, 0, 71, 0
2, 16056, Note_on_c, 0, 79, 93
2, 16080, Note_off_c, 0, 79, 0
2, 16080, Note_on_c, 0, 86, 93
2, 16104, Note_off_c, 0, 86, 0
2, 16104, Note_on_c, 0, 77, 93
2, 16128, Note_off_c, 0, 77, 0
2, 16128, Note_on_c, 0, 76, 93
2, 16152, Note_off_c, 0, 76, 0
2, 16152, Note_on_c, 0, 71, 93
2, 16176, Note_off_c, 0, 71, 0
2, 16176, Note_on_c, 0, 72, 93
2, 16200, Note_off_c, 0, 72, 0
2, 16200, Note_on_c, 0, 76, 93
2, 16224, Note_off_c, 0, 76, 0
2, 16224, Note_on_c, 0, 70, 93
2, 16248, Note_off_c, 0, 70, 0
2, 16248, Note_on_c, 0, 71, 93
2, 16272, Note_off_c, 0, 71, 0
2, 16272, Note_on_c, 0, 63, 93
2, 16296, Note_off_c, 0, 63, 0
2, 16296, Note_on_c, 0, 64, 93
2, 16320, Note_off_c, 0, 64, 0
2, 16320, Note_on_c, 0, 55, 93
2, 16344, Note_off_c, 0, 55, 0
2, 16344, Note_on_c, 0, 64, 93
2, 16368, Note_off_c, 0, 64, 0
2, 16368, Note_on_c, 0, 71, 93
2, 16392, Note_off_c, 0, 71, 0
2, 16392, Note_on_c, 0, 79, 93
2, 16416, Note_off_c, 0, 79, 0
2, 16416, Note_on_c, 0, 78, 93
2, 16440, Note_off_c, 0, 78, 0
2, 16440, Note_on_c, 0, 76, 93
2, 16464, Note_off_c, 0, 76, 0
2, 16464, Note_on_c, 0, 71, 93
2, 16488, Note_off_c, 0, 71, 0
2, 16488, Note_on_c, 0, 75, 93
2, 16512, Note_off_c, 0, 75, 0
2, 16512, Note_on_c, 0, 64, 93
2, 16536, Note_off_c, 0, 64, 0
2, 16536, Note_on_c, 0, 67, 93
2, 16560, Note_off_c, 0, 67, 0
2, 16560, Note_on_c, 0, 71, 93
2, 16584, Note_off_c, 0, 71, 0
2, 16584, Note_on_c, 0, 76, 93
2, 16608, Note_off_c, 0, 76, 0
2, 16608, Note_on_c, 0, 71, 93
2, 16632, Note_off_c, 0, 71, 0
2, 16632, Note_on_c, 0, 67, 93
2, 16656, Note_off_c, 0, 67, 0
2, 16656, Note_on_c, 0, 64, 93
2, 16680, Note_off_c, 0, 64, 0
2, 16680, Note_on_c, 0, 67, 93
2, 16704, Note_off_c, 0, 67, 0
2, 16704, Note_on_c, 0, 61, 93
2, 16728, Note_off_c, 0, 61, 0
2, 16728, Note_on_c, 0, 69, 93
2, 16752, Note_off_c, 0, 69, 0
2, 16752, Note_on_c, 0, 76, 93
2, 16776, Note_off_c, 0, 76, 0
2, 16776, Note_on_c, 0, 67, 93
2, 16800, Note_off_c, 0, 67, 0
2, 16800, Note_on_c, 0, 66, 93
2, 16824, Note_off_c, 0, 66, 0
2, 16824, Note_on_c, 0, 81, 93
2, 16848, Note_off_c, 0, 81, 0
2, 16848, Note_on_c, 0, 64, 93
2, 16872, Note_off_c, 0, 64, 0
2, 16872, Note_on_c, 0, 79, 93
2, 16896, Note_off_c, 0, 79, 0
2, 16896, Note_on_c, 0, 62, 93
2, 16920, Note_off_c, 0, 62, 0
2, 16920, Note_on_c, 0, 79, 93
2, 16944, Note_off_c, 0, 79, 0
2, 16944, Note_on_c, 0, 78, 93
2, 16968, Note_off_c, 0, 78, 0
2, 16968, Note_on_c, 0, 76, 93
2, 16992, Note_off_c, 0, 76, 0
2, 16992, Note_on_c, 0, 74, 93
2, 17016, Note_off_c, 0, 74, 0
2, 17016, Note_on_c, 0, 78, 93
2, 17040, Note_off_c, 0, 78, 0
2, 17040, Note_on_c, 0, 82, 93
2, 17064, Note_off_c, 0, 82, 0
2, 17064, Note_on_c, 0, 83, 93
2, 17088, Note_off_c, 0, 83, 0
2, 17088, Note_on_c, 0, 76, 93
2, 17112, Note_off_c, 0, 76, 0
2, 17112, Note_on_c, 0, 73, 93
2, 17136, Note_off_c, 0, 73, 0
2, 17136, Note_on_c, 0, 70, 93
2, 17160, Note_off_c, 0, 70, 0
2, 17160, Note_on_c, 0, 73, 93
2, 17184, Note_off_c, 0, 73, 0
2, 17184, Note_on_c, 0, 62, 93
2, 17208, Note_off_c, 0, 62, 0
2, 17208, Note_on_c, 0, 78, 93
2, 17232, Note_off_c, 0, 78, 0
2, 17232, Note_on_c, 0, 61, 93
2, 17256, Note_off_c, 0, 61, 0
2, 17256, Note_on_c, 0, 76, 93
2, 17280, Note_off_c, 0, 76, 0
2, 17280, Note_on_c, 0, 59, 93
2, 17304, Note_off_c, 0, 59, 0
2, 17304, Note_on_c, 0, 76, 93
2, 17328, Note_off_c, 0, 76, 0
2, 17328, Note_on_c, 0, 74, 93
2, 17352, Note_off_c, 0, 74, 0
2, 17352, Note_on_c, 0, 73, 93
2, 17376, Note_off_c, 0, 73, 0
2, 17376, Note_on_c, 0, 71, 93
2, 17400, Note_off_c, 0, 71, 0
2, 17400, Note_on_c, 0, 74, 93
2, 17424, Note_off_c, 0, 74, 0
2, 17424, Note_on_c, 0, 78, 93
2, 17448, Note_off_c, 0, 78, 0
2, 17448, Note_on_c, 0, 79, 93
2, 17472, Note_off_c, 0, 79, 0
2, 17472, Note_on_c, 0, 72, 93
2, 17496, Note_off_c, 0, 72, 0
2, 17496, Note_on_c, 0, 69, 93
2, 17520, Note_off_c, 0, 69, 0
2, 17520, Note_on_c, 0, 66, 93
2, 17544, Note_off_c, 0, 66, 0
2, 17544, Note_on_c, 0, 69, 93
2, 17568, Note_off_c, 0, 69, 0
2, 17568, Note_on_c, 0, 62, 93
2, 17592, Note_off_c, 0, 62, 0
2, 17592, Note_on_c, 0, 66, 93
2, 17616, Note_off_c, 0, 66, 0
2, 17616, Note_on_c, 0, 69, 93
2, 17640, Note_off_c, 0, 69, 0
2, 17640, Note_on_c, 0, 72, 93
2, 17664, Note_off_c, 0, 72, 0
2, 17664, Note_on_c, 0, 78, 93
2, 17688, Note_off_c, 0, 78, 0
2, 17688, Note_on_c, 0, 71, 93
2, 17712, Note_off_c, 0, 71, 0
2, 17712, Note_on_c, 0, 63, 93
2, 17736, Note_off_c, 0, 63, 0
2, 17736, Note_on_c, 0, 66, 93
2, 17760, Note_off_c, 0, 66, 0
2, 17760, Note_on_c, 0, 71, 93
2, 17784, Note_off_c, 0, 71, 0
2, 17784, Note_on_c, 0, 75, 93
2, 17808, Note_off_c, 0, 75, 0
2, 17808, Note_on_c, 0, 78, 93
2, 17832, Note_off_c, 0, 78, 0
2, 17832, Note_on_c, 0, 81, 93
2, 17856, Note_off_c, 0, 81, 0
2, 17856, Note_on_c, 0, 79, 93
2, 17880, Note_off_c, 0, 79, 0
2, 17880, Note_on_c, 0, 76, 93
2, 17904, Note_off_c, 0, 76, 0
2, 17904, Note_on_c, 0, 71, 93
2, 17928, Note_off_c, 0, 71, 0
2, 17928, Note_on_c, 0, 74, 93
2, 17952, Note_off_c, 0, 74, 0
2, 17952, Note_on_c, 0, 72, 93
2, 17976, Note_off_c, 0, 72, 0
2, 17976, Note_on_c, 0, 76, 93
2, 18000, Note_off_c, 0, 76, 0
2, 18000, Note_on_c, 0, 79, 93
2, 18024, Note_off_c, 0, 79, 0
2, 18024, Note_on_c, 0, 71, 93
2, 18048, Note_off_c, 0, 71, 0
2, 18048, Note_on_c, 0, 70, 93
2, 18072, Note_off_c, 0, 70, 0
2, 18072, Note_on_c, 0, 79, 93
2, 18096, Note_off_c, 0, 79, 0
2, 18096, Note_on_c, 0, 78, 93
2, 18120, Note_off_c, 0, 78, 0
2, 18120, Note_on_c, 0, 64, 93
2, 18144, Note_off_c, 0, 64, 0
2, 18144, Note_on_c, 0, 62, 93
2, 18168, Note_off_c, 0, 62, 0
2, 18168, Note_on_c, 0, 83, 93
2, 18192, Note_off_c, 0, 83, 0
2, 18192, Note_on_c, 0, 82, 93
2, 18216, Note_off_c, 0, 82, 0
2, 18216, Note_on_c, 0, 83, 93
2, 18240, Note_off_c, 0, 83, 0
2, 18240, Note_on_c, 0, 77, 93
2, 18264, Note_off_c, 0, 77, 0
2, 18264, Note_on_c, 0, 78, 93
2, 18288, Note_off_c, 0, 78, 0
2, 18288, Note_on_c, 0, 70, 93
2, 18312, Note_off_c, 0, 70, 0
2, 18312, Note_on_c, 0, 71, 93
2, 18336, Note_off_c, 0, 71, 0
2, 18336, Note_on_c, 0, 66, 93
2, 18360, Note_off_c, 0, 66, 0
2, 18360, Note_on_c, 0, 74, 93
2, 18384, Note_off_c, 0, 74, 0
2, 18384, Note_on_c, 0, 73, 93
2, 18408, Note_off_c, 0, 73, 0
2, 18408, Note_on_c, 0, 70, 93
2, 18432, Note_off_c, 0, 70, 0
2, 18432, Note_on_c, 0, 71, 93
2, 18456, Note_off_c, 0, 71, 0
2, 18456, Note_on_c, 0, 59, 93
2, 18480, Note_off_c, 0, 59, 0
2, 18480, Note_on_c, 0, 62, 93
2, 18504, Note_off_c, 0, 62, 0
2, 18504, Note_on_c, 0, 66, 93
2, 18528, Note_off_c, 0, 66, 0
2, 18528, Note_on_c, 0, 71, 93
2, 18552, Note_off_c, 0, 71, 0
2, 18552, Note_on_c, 0, 74, 93
2, 18576, Note_off_c, 0, 74, 0
2, 18576, Note_on_c, 0, 78, 93
2, 18600, Note_off_c, 0, 78, 0
2, 18600, Note_on_c, 0, 82, 93
2, 18624, Note_off_c, 0, 82, 0
2, 18624, Note_on_c, 0, 83, 93
2, 18648, Note_off_c, 0, 83, 0
2, 18648, Note_on_c, 0, 78, 93
2, 18672, Note_off_c, 0, 78, 0
2, 18672, Note_on_c, 0, 74, 93
2, 18696, Note_off_c, 0, 74, 0
2, 18696, Note_on_c, 0, 71, 93
2, 18720, Note_off_c, 0, 71, 0
2, 18720, Note_on_c, 0, 59, 93
2, 18792, Note_off_c, 0, 59, 0
2, 18792, End_track
0, 0, End_of_file
