0, 0, Header, 1, 5, 96
1, 0, Start_track
1, 0, Time_signature, 4, 2, 24, 8
1, 0, Title_t, "untitled"
1, 0, Title_t, "Track1"
1, 0, Tempo, 400000
1, 41472, Tempo, 800000
1, 41472, End_track
2, 0, Start_track
2, 0, Title_t, "Track2"
2, 0, Program_c, 0, 40
2, 0, Control_c, 0, 7, 100
2, 0, Control_c, 0, 10, 69
2, 192, Note_on_c, 0, 71, 93
2, 288, Note_off_c, 0, 71, 0
2, 288, Note_on_c, 0, 80, 93
2, 384, Note_off_c, 0, 80, 0
2, 384, Note_on_c, 0, 80, 93
2, 480, Note_off_c, 0, 80, 0
2, 480, Note_on_c, 0, 78, 93
2, 528, Note_off_c, 0, 78, 0
2, 528, Note_on_c, 0, 76, 93
2, 576, Note_off_c, 0, 76, 0
2, 576, Note_on_c, 0, 78, 93
2, 672, Note_off_c, 0, 78, 0
2, 672, Note_on_c, 0, 81, 93
2, 768, Note_off_c, 0, 81, 0
2, 768, Note_on_c, 0, 81, 93
2, 960, Note_off_c, 0, 81, 0
2, 960, Note_on_c, 0, 83, 93
2, 1008, Note_off_c, 0, 83, 0
2, 1008, Note_on_c, 0, 80, 93
2, 1056, Note_off_c, 0, 80, 0
2, 1056, Note_on_c, 0, 81, 93
2, 1104, Note_off_c, 0, 81, 0
2, 1104, Note_on_c, 0, 78, 93
2, 1152, Note_off_c, 0, 78, 0
2, 1152, Note_on_c, 0, 71, 93
2, 1200, Note_off_c, 0, 71, 0
2, 1200, Note_on_c, 0, 78, 93
2, 1224, Note_off_c, 0, 78, 0
2, 1224, Note_on_c, 0, 80, 93
2, 1248, Note_off_c, 0, 80, 0
2, 1248, Note_on_c, 0, 81, 93
2, 1296, Note_off_c, 0, 81, 0
2, 1296, Note_on_c, 0, 78, 93
2, 1344, Note_off_c, 0, 78, 0
2, 1344, Note_on_c, 0, 80, 93
2, 1392, Note_off_c, 0, 80, 0
2, 1392, Note_on_c, 0, 76, 93
2, 1440, Note_off_c, 0, 76, 0
2, 1440, Note_on_c, 0, 78, 93
2, 1488, Note_off_c, 0, 78, 0
2, 1488, Note_on_c, 0, 75, 93
2, 1536, Note_off_c, 0, 75, 0
2, 1536, Note_on_c, 0, 76, 93
2, 1584, Note_off_c, 0, 76, 0
2, 1584, Note_on_c, 0, 71, 93
2, 1632, Note_off_c, 0, 71, 0
2, 1632, Note_on_c, 0, 68, 93
2, 1680, Note_off_c, 0, 68, 0
2, 1680, Note_on_c, 0, 64, 93
2, 1728, Note_off_c, 0, 64, 0
2, 1728, Note_on_c, 0, 68, 93
2, 1776, Note_off_c, 0, 68, 0
2, 1776, Note_on_c, 0, 71, 93
2, 1824, Note_off_c, 0, 71, 0
2, 1824, Note_on_c, 0, 76, 93
2, 1872, Note_off_c, 0, 76, 0
2, 1872, Note_on_c, 0, 80, 93
2, 1920, Note_off_c, 0, 80, 0
2, 1920, Note_on_c, 0, 69, 93
2, 1968, Note_off_c, 0, 69, 0
2, 1968, Note_on_c, 0, 80, 93
2, 2016, Note_off_c, 0, 80, 0
2, 2016, Note_on_c, 0, 78, 93
2, 2064, Note_off_c, 0, 78, 0
2, 2064, Note_on_c, 0, 76, 93
2, 2112, Note_off_c, 0, 76, 0
2, 2112, Note_on_c, 0, 78, 93
2, 2160, Note_off_c, 0, 78, 0
2, 2160, Note_on_c, 0, 80, 93
2, 2208, Note_off_c, 0, 80, 0
2, 2208, Note_on_c, 0, 81, 93
2, 2256, Note_off_c, 0, 81, 0
2, 2256, Note_on_c, 0, 78, 93
2, 2304, Note_off_c, 0, 78, 0
2, 2304, Note_on_c, 0, 81, 93
2, 2496, Note_off_c, 0, 81, 0
2, 2496, Note_on_c, 0, 71, 93
2, 2592, Note_off_c, 0, 71, 0
2, 2592, Note_on_c, 0, 80, 93
2, 2688, Note_off_c, 0, 80, 0
2, 2688, Note_on_c, 0, 73, 93
2, 2784, Note_off_c, 0, 73, 0
2, 2784, Note_on_c, 0, 78, 93
2, 2880, Note_off_c, 0, 78, 0
2, 2880, Note_on_c, 0, 66, 93
2, 2976, Note_off_c, 0, 66, 0
2, 2976, Note_on_c, 0, 75, 93
2, 3072, Note_off_c, 0, 75, 0
2, 3072, Note_on_c, 0, 76, 93
2, 3264, Note_off_c, 0, 76, 0
2, 3264, Note_on_c, 0, 71, 93
2, 3360, Note_off_c, 0, 71, 0
2, 3360, Note_on_c, 0, 80, 93
2, 3456, Note_off_c, 0, 80, 0
2, 3456, Note_on_c, 0, 80, 93
2, 3552, Note_off_c, 0, 80, 0
2, 3552, Note_on_c, 0, 78, 93
2, 3600, Note_off_c, 0, 78, 0
2, 3600, Note_on_c, 0, 76, 93
2, 3648, Note_off_c, 0, 76, 0
2, 3648, Note_on_c, 0, 78, 93
2, 3744, Note_off_c, 0, 78, 0
2, 3744, Note_on_c, 0, 81, 93
2, 3840, Note_off_c, 0, 81, 0
2, 3840, Note_on_c, 0, 81, 93
2, 4032, Note_off_c, 0, 81, 0
2, 4032, Note_on_c, 0, 83, 93
2, 4080, Note_off_c, 0, 83, 0
2, 4080, Note_on_c, 0, 80, 93
2, 4128, Note_off_c, 0, 80, 0
2, 4128, Note_on_c, 0, 81, 93
2, 4176, Note_off_c, 0, 81, 0
2, 4176, Note_on_c, 0, 78, 93
2, 4224, Note_off_c, 0, 78, 0
2, 4224, Note_on_c, 0, 71, 93
2, 4272, Note_off_c, 0, 71, 0
2, 4272, Note_on_c, 0, 78, 93
2, 4296, Note_off_c, 0, 78, 0
2, 4296, Note_on_c, 0, 80, 93
2, 4320, Note_off_c, 0, 80, 0
2, 4320, Note_on_c, 0, 81, 93
2, 4368, Note_off_c, 0, 81, 0
2, 4368, Note_on_c, 0, 78, 93
2, 4416, Note_off_c, 0, 78, 0
2, 4416, Note_on_c, 0, 80, 93
2, 4464, Note_off_c, 0, 80, 0
2, 4464, Note_on_c, 0, 76, 93
2, 4512, Note_off_c, 0, 76, 0
2, 4512, Note_on_c, 0, 78, 93
2, 4560, Note_off_c, 0, 78, 0
2, 4560, Note_on_c, 0, 75, 93
2, 4608, Note_off_c, 0, 75, 0
2, 4608, Note_on_c, 0, 76, 93
2, 4656, Note_off_c, 0, 76, 0
2, 4656, Note_on_c, 0, 71, 93
2, 4704, Note_off_c, 0, 71, 0
2, 4704, Note_on_c, 0, 68, 93
2, 4752, Note_off_c, 0, 68, 0
2, 4752, Note_on_c, 0, 64, 93
2, 4800, Note_off_c, 0, 64, 0
2, 4800, Note_on_c, 0, 68, 93
2, 4848, Note_off_c, 0, 68, 0
2, 4848, Note_on_c, 0, 71, 93
2, 4896, Note_off_c, 0, 71, 0
2, 4896, Note_on_c, 0, 76, 93
2, 4944, Note_off_c, 0, 76, 0
2, 4944, Note_on_c, 0, 80, 93
2, 4992, Note_off_c, 0, 80, 0
2, 4992, Note_on_c, 0, 69, 93
2, 5040, Note_off_c, 0, 69, 0
2, 5040, Note_on_c, 0, 80, 93
2, 5088, Note_off_c, 0, 80, 0
2, 5088, Note_on_c, 0, 78, 93
2, 5136, Note_off_c, 0, 78, 0
2, 5136, Note_on_c, 0, 76, 93
2, 5184, Note_off_c, 0, 76, 0
2, 5184, Note_on_c, 0, 78, 93
2, 5232, Note_off_c, 0, 78, 0
2, 5232, Note_on_c, 0, 80, 93
2, 5280, Note_off_c, 0, 80, 0
2, 5280, Note_on_c, 0, 81, 93
2, 5328, Note_off_c, 0, 81, 0
2, 5328, Note_on_c, 0, 78, 93
2, 5376, Note_off_c, 0, 78, 0
2, 5376, Note_on_c, 0, 81, 93
2, 5568, Note_off_c, 0, 81, 0
2, 5568, Note_on_c, 0, 71, 93
2, 5664, Note_off_c, 0, 71, 0
2, 5664, Note_on_c, 0, 80, 93
2, 5760, Note_off_c, 0, 80, 0
2, 5760, Note_on_c, 0, 73, 93
2, 5856, Note_off_c, 0, 73, 0
2, 5856, Note_on_c, 0, 78, 93
2, 5952, Note_off_c, 0, 78, 0
2, 5952, Note_on_c, 0, 66, 93
2, 6048, Note_off_c, 0, 66, 0
2, 6048, Note_on_c, 0, 75, 93
2, 6144, Note_off_c, 0, 75, 0
2, 6144, Note_on_c, 0, 76, 93
2, 6336, Note_off_c, 0, 76, 0
2, 6336, Note_on_c, 0, 71, 93
2, 6432, Note_off_c, 0, 71, 0
2, 6432, Note_on_c, 0, 80, 93
2, 6528, Note_off_c, 0, 80, 0
2, 6528, Note_on_c, 0, 73, 93
2, 6624, Note_off_c, 0, 73, 0
2, 6624, Note_on_c, 0, 73, 93
2, 6672, Note_off_c, 0, 73, 0
2, 6672, Note_on_c, 0, 72, 93
2, 6720, Note_off_c, 0, 72, 0
2, 6720, Note_on_c, 0, 73, 93
2, 6768, Note_off_c, 0, 73, 0
2, 6768, Note_on_c, 0, 76, 93
2, 6816, Note_off_c, 0, 76, 0
2, 6816, Note_on_c, 0, 75, 93
2, 6864, Note_off_c, 0, 75, 0
2, 6864, Note_on_c, 0, 72, 93
2, 6912, Note_off_c, 0, 72, 0
2, 6912, Note_on_c, 0, 72, 93
2, 7008, Note_off_c, 0, 72, 0
2, 7008, Note_on_c, 0, 73, 93
2, 7104, Note_off_c, 0, 73, 0
2, 7104, Note_on_c, 0, 73, 93
2, 7152, Note_off_c, 0, 73, 0
2, 7152, Note_on_c, 0, 75, 93
2, 7200, Note_off_c, 0, 75, 0
2, 7200, Note_on_c, 0, 76, 93
2, 7248, Note_off_c, 0, 76, 0
2, 7248, Note_on_c, 0, 80, 93
2, 7296, Note_off_c, 0, 80, 0
2, 7296, Note_on_c, 0, 73, 93
2, 7344, Note_off_c, 0, 73, 0
2, 7344, Note_on_c, 0, 75, 93
2, 7392, Note_off_c, 0, 75, 0
2, 7392, Note_on_c, 0, 76, 93
2, 7440, Note_off_c, 0, 76, 0
2, 7440, Note_on_c, 0, 81, 93
2, 7488, Note_off_c, 0, 81, 0
2, 7488, Note_on_c, 0, 75, 93
2, 7536, Note_off_c, 0, 75, 0
2, 7536, Note_on_c, 0, 78, 93
2, 7584, Note_off_c, 0, 78, 0
2, 7584, Note_on_c, 0, 76, 93
2, 7632, Note_off_c, 0, 76, 0
2, 7632, Note_on_c, 0, 73, 93
2, 7680, Note_off_c, 0, 73, 0
2, 7680, Note_on_c, 0, 72, 93
2, 7728, Note_off_c, 0, 72, 0
2, 7728, Note_on_c, 0, 75, 93
2, 7776, Note_off_c, 0, 75, 0
2, 7776, Note_on_c, 0, 68, 93
2, 7824, Note_off_c, 0, 68, 0
2, 7824, Note_on_c, 0, 66, 93
2, 7872, Note_off_c, 0, 66, 0
2, 7872, Note_on_c, 0, 64, 93
2, 7920, Note_off_c, 0, 64, 0
2, 7920, Note_on_c, 0, 68, 93
2, 7968, Note_off_c, 0, 68, 0
2, 7968, Note_on_c, 0, 73, 93
2, 8016, Note_off_c, 0, 73, 0
2, 8016, Note_on_c, 0, 76, 93
2, 8064, Note_off_c, 0, 76, 0
2, 8064, Note_on_c, 0, 80, 93
2, 8112, Note_off_c, 0, 80, 0
2, 8112, Note_on_c, 0, 81, 93
2, 8160, Note_off_c, 0, 81, 0
2, 8160, Note_on_c, 0, 83, 93
2, 8208, Note_off_c, 0, 83, 0
2, 8208, Note_on_c, 0, 73, 93
2, 8256, Note_off_c, 0, 73, 0
2, 8256, Note_on_c, 0, 65, 93
2, 8304, Note_off_c, 0, 65, 0
2, 8304, Note_on_c, 0, 73, 93
2, 8352, Note_off_c, 0, 73, 0
2, 8352, Note_on_c, 0, 80, 93
2, 8400, Note_off_c, 0, 80, 0
2, 8400, Note_on_c, 0, 83, 93
2, 8448, Note_off_c, 0, 83, 0
2, 8448, Note_on_c, 0, 83, 93
2, 8496, Note_off_c, 0, 83, 0
2, 8496, Note_on_c, 0, 80, 93
2, 8544, Note_off_c, 0, 80, 0
2, 8544, Note_on_c, 0, 81, 93
2, 8592, Note_off_c, 0, 81, 0
2, 8592, Note_on_c, 0, 78, 93
2, 8640, Note_off_c, 0, 78, 0
2, 8640, Note_on_c, 0, 69, 93
2, 8688, Note_off_c, 0, 69, 0
2, 8688, Note_on_c, 0, 72, 93
2, 8736, Note_off_c, 0, 72, 0
2, 8736, Note_on_c, 0, 75, 93
2, 8784, Note_off_c, 0, 75, 0
2, 8784, Note_on_c, 0, 78, 93
2, 8832, Note_off_c, 0, 78, 0
2, 8832, Note_on_c, 0, 78, 93
2, 8880, Note_off_c, 0, 78, 0
2, 8880, Note_on_c, 0, 76, 93
2, 8928, Note_off_c, 0, 76, 0
2, 8928, Note_on_c, 0, 78, 93
2, 8976, Note_off_c, 0, 78, 0
2, 8976, Note_on_c, 0, 75, 93
2, 9024, Note_off_c, 0, 75, 0
2, 9024, Note_on_c, 0, 68, 93
2, 9120, Note_off_c, 0, 68, 0
2, 9120, Note_on_c, 0, 72, 93
2, 9216, Note_off_c, 0, 72, 0
2, 9216, Note_on_c, 0, 61, 93
2, 9408, Note_off_c, 0, 61, 0
2, 9408, Note_on_c, 0, 71, 93
2, 9504, Note_off_c, 0, 71, 0
2, 9504, Note_on_c, 0, 80, 93
2, 9600, Note_off_c, 0, 80, 0
2, 9600, Note_on_c, 0, 80, 93
2, 9696, Note_off_c, 0, 80, 0
2, 9696, Note_on_c, 0, 78, 93
2, 9744, Note_off_c, 0, 78, 0
2, 9744, Note_on_c, 0, 76, 93
2, 9792, Note_off_c, 0, 76, 0
2, 9792, Note_on_c, 0, 78, 93
2, 9888, Note_off_c, 0, 78, 0
2, 9888, Note_on_c, 0, 81, 93
2, 9984, Note_off_c, 0, 81, 0
2, 9984, Note_on_c, 0, 81, 93
2, 10176, Note_off_c, 0, 81, 0
2, 10176, Note_on_c, 0, 83, 93
2, 10224, Note_off_c, 0, 83, 0
2, 10224, Note_on_c, 0, 80, 93
2, 10272, Note_off_c, 0, 80, 0
2, 10272, Note_on_c, 0, 81, 93
2, 10320, Note_off_c, 0, 81, 0
2, 10320, Note_on_c, 0, 78, 93
2, 10368, Note_off_c, 0, 78, 0
2, 10368, Note_on_c, 0, 71, 93
2, 10416, Note_off_c, 0, 71, 0
2, 10416, Note_on_c, 0, 78, 93
2, 10440, Note_off_c, 0, 78, 0
2, 10440, Note_on_c, 0, 80, 93
2, 10464, Note_off_c, 0, 80, 0
2, 10464, Note_on_c, 0, 81, 93
2, 10512, Note_off_c, 0, 81, 0
2, 10512, Note_on_c, 0, 78, 93
2, 10560, Note_off_c, 0, 78, 0
2, 10560, Note_on_c, 0, 80, 93
2, 10608, Note_off_c, 0, 80, 0
2, 10608, Note_on_c, 0, 76, 93
2, 10656, Note_off_c, 0, 76, 0
2, 10656, Note_on_c, 0, 78, 93
2, 10704, Note_off_c, 0, 78, 0
2, 10704, Note_on_c, 0, 75, 93
2, 10752, Note_off_c, 0, 75, 0
2, 10752, Note_on_c, 0, 76, 93
2, 10800, Note_off_c, 0, 76, 0
2, 10800, Note_on_c, 0, 71, 93
2, 10848, Note_off_c, 0, 71, 0
2, 10848, Note_on_c, 0, 68, 93
2, 10896, Note_off_c, 0, 68, 0
2, 10896, Note_on_c, 0, 64, 93
2, 10944, Note_off_c, 0, 64, 0
2, 10944, Note_on_c, 0, 68, 93
2, 10992, Note_off_c, 0, 68, 0
2, 10992, Note_on_c, 0, 71, 93
2, 11040, Note_off_c, 0, 71, 0
2, 11040, Note_on_c, 0, 76, 93
2, 11088, Note_off_c, 0, 76, 0
2, 11088, Note_on_c, 0, 80, 93
2, 11136, Note_off_c, 0, 80, 0
2, 11136, Note_on_c, 0, 69, 93
2, 11184, Note_off_c, 0, 69, 0
2, 11184, Note_on_c, 0, 80, 93
2, 11232, Note_off_c, 0, 80, 0
2, 11232, Note_on_c, 0, 78, 93
2, 11280, Note_off_c, 0, 78, 0
2, 11280, Note_on_c, 0, 76, 93
2, 11328, Note_off_c, 0, 76, 0
2, 11328, Note_on_c, 0, 78, 93
2, 11376, Note_off_c, 0, 78, 0
2, 11376, Note_on_c, 0, 80, 93
2, 11424, Note_off_c, 0, 80, 0
2, 11424, Note_on_c, 0, 81, 93
2, 11472, Note_off_c, 0, 81, 0
2, 11472, Note_on_c, 0, 78, 93
2, 11520, Note_off_c, 0, 78, 0
2, 11520, Note_on_c, 0, 81, 93
2, 11712, Note_off_c, 0, 81, 0
2, 11712, Note_on_c, 0, 71, 93
2, 11808, Note_off_c, 0, 71, 0
2, 11808, Note_on_c, 0, 80, 93
2, 11904, Note_off_c, 0, 80, 0
2, 11904, Note_on_c, 0, 73, 93
2, 12000, Note_off_c, 0, 73, 0
2, 12000, Note_on_c, 0, 78, 93
2, 12096, Note_off_c, 0, 78, 0
2, 12096, Note_on_c, 0, 66, 93
2, 12192, Note_off_c, 0, 66, 0
2, 12192, Note_on_c, 0, 75, 93
2, 12288, Note_off_c, 0, 75, 0
2, 12288, Note_on_c, 0, 76, 93
2, 12480, Note_off_c, 0, 76, 0
2, 12480, Note_on_c, 0, 64, 93
2, 12528, Note_off_c, 0, 64, 0
2, 12528, Note_on_c, 0, 66, 93
2, 12576, Note_off_c, 0, 66, 0
2, 12576, Note_on_c, 0, 68, 93
2, 12624, Note_off_c, 0, 68, 0
2, 12624, Note_on_c, 0, 69, 93
2, 12672, Note_off_c, 0, 69, 0
2, 12672, Note_on_c, 0, 71, 93
2, 12768, Note_off_c, 0, 71, 0
2, 12768, Note_on_c, 0, 71, 93
2, 12864, Note_off_c, 0, 71, 0
2, 12864, Note_on_c, 0, 71, 93
2, 12960, Note_off_c, 0, 71, 0
2, 12960, Note_on_c, 0, 76, 93
2, 13056, Note_off_c, 0, 76, 0
2, 13056, Note_on_c, 0, 71, 93
2, 13248, Note_off_c, 0, 71, 0
2, 13248, Note_on_c, 0, 73, 93
2, 13296, Note_off_c, 0, 73, 0
2, 13296, Note_on_c, 0, 69, 93
2, 13344, Note_off_c, 0, 69, 0
2, 13344, Note_on_c, 0, 75, 93
2, 13392, Note_off_c, 0, 75, 0
2, 13392, Note_on_c, 0, 76, 93
2, 13440, Note_off_c, 0, 76, 0
2, 13440, Note_on_c, 0, 71, 93
2, 13488, Note_off_c, 0, 71, 0
2, 13488, Note_on_c, 0, 68, 93
2, 13536, Note_off_c, 0, 68, 0
2, 13536, Note_on_c, 0, 75, 93
2, 13584, Note_off_c, 0, 75, 0
2, 13584, Note_on_c, 0, 76, 93
2, 13632, Note_off_c, 0, 76, 0
2, 13632, Note_on_c, 0, 69, 93
2, 13680, Note_off_c, 0, 69, 0
2, 13680, Note_on_c, 0, 66, 93
2, 13728, Note_off_c, 0, 66, 0
2, 13728, Note_on_c, 0, 75, 93
2, 13776, Note_off_c, 0, 75, 0
2, 13776, Note_on_c, 0, 76, 93
2, 13824, Note_off_c, 0, 76, 0
2, 13824, Note_on_c, 0, 68, 93
2, 13872, Note_off_c, 0, 68, 0
2, 13872, Note_on_c, 0, 66, 93
2, 13920, Note_off_c, 0, 66, 0
2, 13920, Note_on_c, 0, 64, 93
2, 13968, Note_off_c, 0, 64, 0
2, 13968, Note_on_c, 0, 66, 93
2, 14016, Note_off_c, 0, 66, 0
2, 14016, Note_on_c, 0, 68, 93
2, 14064, Note_off_c, 0, 68, 0
2, 14064, Note_on_c, 0, 71, 93
2, 14112, Note_off_c, 0, 71, 0
2, 14112, Note_on_c, 0, 76, 93
2, 14160, Note_off_c, 0, 76, 0
2, 14160, Note_on_c, 0, 80, 93
2, 14208, Note_off_c, 0, 80, 0
2, 14208, Note_on_c, 0, 78, 93
2, 14304, Note_off_c, 0, 78, 0
2, 14304, Note_on_c, 0, 78, 93
2, 14400, Note_off_c, 0, 78, 0
2, 14400, Note_on_c, 0, 78, 93
2, 14496, Note_off_c, 0, 78, 0
2, 14496, Note_on_c, 0, 83, 93
2, 14592, Note_off_c, 0, 83, 0
2, 14592, Note_on_c, 0, 78, 93
2, 14784, Note_off_c, 0, 78, 0
2, 14784, Note_on_c, 0, 80, 93
2, 14832, Note_off_c, 0, 80, 0
2, 14832, Note_on_c, 0, 76, 93
2, 14880, Note_off_c, 0, 76, 0
2, 14880, Note_on_c, 0, 82, 93
2, 14928, Note_off_c, 0, 82, 0
2, 14928, Note_on_c, 0, 83, 93
2, 14976, Note_off_c, 0, 83, 0
2, 14976, Note_on_c, 0, 78, 93
2, 15024, Note_off_c, 0, 78, 0
2, 15024, Note_on_c, 0, 75, 93
2, 15072, Note_off_c, 0, 75, 0
2, 15072, Note_on_c, 0, 82, 93
2, 15120, Note_off_c, 0, 82, 0
2, 15120, Note_on_c, 0, 83, 93
2, 15168, Note_off_c, 0, 83, 0
2, 15168, Note_on_c, 0, 76, 93
2, 15216, Note_off_c, 0, 76, 0
2, 15216, Note_on_c, 0, 73, 93
2, 15264, Note_off_c, 0, 73, 0
2, 15264, Note_on_c, 0, 82, 93
2, 15312, Note_off_c, 0, 82, 0
2, 15312, Note_on_c, 0, 83, 93
2, 15360, Note_off_c, 0, 83, 0
2, 15360, Note_on_c, 0, 76, 93
2, 15408, Note_off_c, 0, 76, 0
2, 15408, Note_on_c, 0, 75, 93
2, 15456, Note_off_c, 0, 75, 0
2, 15456, Note_on_c, 0, 73, 93
2, 15504, Note_off_c, 0, 73, 0
2, 15504, Note_on_c, 0, 71, 93
2, 15552, Note_off_c, 0, 71, 0
2, 15552, Note_on_c, 0, 73, 93
2, 15600, Note_off_c, 0, 73, 0
2, 15600, Note_on_c, 0, 75, 93
2, 15648, Note_off_c, 0, 75, 0
2, 15648, Note_on_c, 0, 76, 93
2, 15696, Note_off_c, 0, 76, 0
2, 15696, Note_on_c, 0, 75, 93
2, 15744, Note_off_c, 0, 75, 0
2, 15744, Note_on_c, 0, 73, 93
2, 15792, Note_off_c, 0, 73, 0
2, 15792, Note_on_c, 0, 71, 93
2, 15840, Note_off_c, 0, 71, 0
2, 15840, Note_on_c, 0, 70, 93
2, 15888, Note_off_c, 0, 70, 0
2, 15888, Note_on_c, 0, 71, 93
2, 15936, Note_off_c, 0, 71, 0
2, 15936, Note_on_c, 0, 73, 93
2, 15984, Note_off_c, 0, 73, 0
2, 15984, Note_on_c, 0, 75, 93
2, 16032, Note_off_c, 0, 75, 0
2, 16032, Note_on_c, 0, 76, 93
2, 16080, Note_off_c, 0, 76, 0
2, 16080, Note_on_c, 0, 73, 93
2, 16128, Note_off_c, 0, 73, 0
2, 16128, Note_on_c, 0, 66, 93
2, 16320, Note_off_c, 0, 66, 0
2, 16320, Note_on_c, 0, 82, 93
2, 16368, Note_off_c, 0, 82, 0
2, 16368, Note_on_c, 0, 76, 93
2, 16416, Note_off_c, 0, 76, 0
2, 16416, Note_on_c, 0, 85, 93
2, 16464, Note_off_c, 0, 85, 0
2, 16464, Note_on_c, 0, 76, 93
2, 16512, Note_off_c, 0, 76, 0
2, 16512, Note_on_c, 0, 66, 93
2, 16560, Note_off_c, 0, 66, 0
2, 16560, Note_on_c, 0, 76, 93
2, 16608, Note_off_c, 0, 76, 0
2, 16608, Note_on_c, 0, 82, 93
2, 16656, Note_off_c, 0, 82, 0
2, 16656, Note_on_c, 0, 76, 93
2, 16704, Note_off_c, 0, 76, 0
2, 16704, Note_on_c, 0, 82, 93
2, 16752, Note_off_c, 0, 82, 0
2, 16752, Note_on_c, 0, 76, 93
2, 16800, Note_off_c, 0, 76, 0
2, 16800, Note_on_c, 0, 85, 93
2, 16848, Note_off_c, 0, 85, 0
2, 16848, Note_on_c, 0, 76, 93
2, 16896, Note_off_c, 0, 76, 0
2, 16896, Note_on_c, 0, 76, 93
2, 17088, Note_off_c, 0, 76, 0
2, 17088, Note_on_c, 0, 66, 93
2, 17184, Note_off_c, 0, 66, 0
2, 17184, Note_on_c, 0, 75, 93
2, 17280, Note_off_c, 0, 75, 0
2, 17280, Note_on_c, 0, 75, 93
2, 17376, Note_off_c, 0, 75, 0
2, 17376, Note_on_c, 0, 73, 93
2, 17424, Note_off_c, 0, 73, 0
2, 17424, Note_on_c, 0, 71, 93
2, 17472, Note_off_c, 0, 71, 0
2, 17472, Note_on_c, 0, 73, 93
2, 17568, Note_off_c, 0, 73, 0
2, 17568, Note_on_c, 0, 76, 93
2, 17664, Note_off_c, 0, 76, 0
2, 17664, Note_on_c, 0, 76, 93
2, 17760, Note_off_c, 0, 76, 0
2, 17760, Note_on_c, 0, 75, 93
2, 17808, Note_off_c, 0, 75, 0
2, 17808, Note_on_c, 0, 73, 93
2, 17856, Note_off_c, 0, 73, 0
2, 17856, Note_on_c, 0, 75, 93
2, 17904, Note_off_c, 0, 75, 0
2, 17904, Note_on_c, 0, 76, 93
2, 17952, Note_off_c, 0, 76, 0
2, 17952, Note_on_c, 0, 78, 93
2, 18000, Note_off_c, 0, 78, 0
2, 18000, Note_on_c, 0, 75, 93
2, 18048, Note_off_c, 0, 75, 0
2, 18048, Note_on_c, 0, 71, 93
2, 18096, Note_off_c, 0, 71, 0
2, 18096, Note_on_c, 0, 68, 93
2, 18144, Note_off_c, 0, 68, 0
2, 18144, Note_on_c, 0, 64, 93
2, 18192, Note_off_c, 0, 64, 0
2, 18192, Note_on_c, 0, 76, 93
2, 18240, Note_off_c, 0, 76, 0
2, 18240, Note_on_c, 0, 73, 93
2, 18384, Note_off_c, 0, 73, 0
2, 18384, Note_on_c, 0, 71, 93
2, 18432, Note_off_c, 0, 71, 0
2, 18432, Note_on_c, 0, 71, 93
2, 18624, Note_off_c, 0, 71, 0
2, 18624, Note_on_c, 0, 71, 93
2, 18720, Note_off_c, 0, 71, 0
2, 18720, Note_on_c, 0, 80, 93
2, 18816, Note_off_c, 0, 80, 0
2, 18816, Note_on_c, 0, 80, 93
2, 18912, Note_off_c, 0, 80, 0
2, 18912, Note_on_c, 0, 78, 93
2, 18960, Note_off_c, 0, 78, 0
2, 18960, Note_on_c, 0, 76, 93
2, 19008, Note_off_c, 0, 76, 0
2, 19008, Note_on_c, 0, 78, 93
2, 19104, Note_off_c, 0, 78, 0
2, 19104, Note_on_c, 0, 81, 93
2, 19200, Note_off_c, 0, 81, 0
2, 19200, Note_on_c, 0, 81, 93
2, 19392, Note_off_c, 0, 81, 0
2, 19392, Note_on_c, 0, 83, 93
2, 19440, Note_off_c, 0, 83, 0
2, 19440, Note_on_c, 0, 80, 93
2, 19488, Note_off_c, 0, 80, 0
2, 19488, Note_on_c, 0, 81, 93
2, 19536, Note_off_c, 0, 81, 0
2, 19536, Note_on_c, 0, 78, 93
2, 19584, Note_off_c, 0, 78, 0
2, 19584, Note_on_c, 0, 71, 93
2, 19632, Note_off_c, 0, 71, 0
2, 19632, Note_on_c, 0, 78, 93
2, 19656, Note_off_c, 0, 78, 0
2, 19656, Note_on_c, 0, 80, 93
2, 19680, Note_off_c, 0, 80, 0
2, 19680, Note_on_c, 0, 81, 93
2, 19728, Note_off_c, 0, 81, 0
2, 19728, Note_on_c, 0, 78, 93
2, 19776, Note_off_c, 0, 78, 0
2, 19776, Note_on_c, 0, 80, 93
2, 19824, Note_off_c, 0, 80, 0
2, 19824, Note_on_c, 0, 76, 93
2, 19872, Note_off_c, 0, 76, 0
2, 19872, Note_on_c, 0, 78, 93
2, 19920, Note_off_c, 0, 78, 0
2, 19920, Note_on_c, 0, 75, 93
2, 19968, Note_off_c, 0, 75, 0
2, 19968, Note_on_c, 0, 76, 93
2, 20016, Note_off_c, 0, 76, 0
2, 20016, Note_on_c, 0, 71, 93
2, 20064, Note_off_c, 0, 71, 0
2, 20064, Note_on_c, 0, 68, 93
2, 20112, Note_off_c, 0, 68, 0
2, 20112, Note_on_c, 0, 64, 93
2, 20160, Note_off_c, 0, 64, 0
2, 20160, Note_on_c, 0, 68, 93
2, 20208, Note_off_c, 0, 68, 0
2, 20208, Note_on_c, 0, 71, 93
2, 20256, Note_off_c, 0, 71, 0
2, 20256, Note_on_c, 0, 76, 93
2, 20304, Note_off_c, 0, 76, 0
2, 20304, Note_on_c, 0, 80, 93
2, 20352, Note_off_c, 0, 80, 0
2, 20352, Note_on_c, 0, 69, 93
2, 20400, Note_off_c, 0, 69, 0
2, 20400, Note_on_c, 0, 80, 93
2, 20448, Note_off_c, 0, 80, 0
2, 20448, Note_on_c, 0, 78, 93
2, 20496, Note_off_c, 0, 78, 0
2, 20496, Note_on_c, 0, 76, 93
2, 20544, Note_off_c, 0, 76, 0
2, 20544, Note_on_c, 0, 78, 93
2, 20592, Note_off_c, 0, 78, 0
2, 20592, Note_on_c, 0, 80, 93
2, 20640, Note_off_c, 0, 80, 0
2, 20640, Note_on_c, 0, 81, 93
2, 20688, Note_off_c, 0, 81, 0
2, 20688, Note_on_c, 0, 78, 93
2, 20736, Note_off_c, 0, 78, 0
2, 20736, Note_on_c, 0, 81, 93
2, 20928, Note_off_c, 0, 81, 0
2, 20928, Note_on_c, 0, 71, 93
2, 21024, Note_off_c, 0, 71, 0
2, 21024, Note_on_c, 0, 80, 93
2, 21120, Note_off_c, 0, 80, 0
2, 21120, Note_on_c, 0, 73, 93
2, 21216, Note_off_c, 0, 73, 0
2, 21216, Note_on_c, 0, 78, 93
2, 21312, Note_off_c, 0, 78, 0
2, 21312, Note_on_c, 0, 66, 93
2, 21408, Note_off_c, 0, 66, 0
2, 21408, Note_on_c, 0, 75, 93
2, 21504, Note_off_c, 0, 75, 0
2, 21504, Note_on_c, 0, 76, 93
2, 21696, Note_off_c, 0, 76, 0
2, 21696, Note_on_c, 0, 64, 93
2, 21744, Note_off_c, 0, 64, 0
2, 21744, Note_on_c, 0, 68, 93
2, 21792, Note_off_c, 0, 68, 0
2, 21792, Note_on_c, 0, 71, 93
2, 21840, Note_off_c, 0, 71, 0
2, 21840, Note_on_c, 0, 76, 93
2, 21888, Note_off_c, 0, 76, 0
2, 21888, Note_on_c, 0, 66, 93
2, 21936, Note_off_c, 0, 66, 0
2, 21936, Note_on_c, 0, 76, 93
2, 21984, Note_off_c, 0, 76, 0
2, 21984, Note_on_c, 0, 74, 93
2, 22032, Note_off_c, 0, 74, 0
2, 22032, Note_on_c, 0, 73, 93
2, 22080, Note_off_c, 0, 73, 0
2, 22080, Note_on_c, 0, 74, 93
2, 22128, Note_off_c, 0, 74, 0
2, 22128, Note_on_c, 0, 66, 93
2, 22176, Note_off_c, 0, 66, 0
2, 22176, Note_on_c, 0, 68, 93
2, 22224, Note_off_c, 0, 68, 0
2, 22224, Note_on_c, 0, 74, 93
2, 22272, Note_off_c, 0, 74, 0
2, 22272, Note_on_c, 0, 73, 93
2, 22320, Note_off_c, 0, 73, 0
2, 22320, Note_on_c, 0, 71, 93
2, 22368, Note_off_c, 0, 71, 0
2, 22368, Note_on_c, 0, 69, 93
2, 22416, Note_off_c, 0, 69, 0
2, 22416, Note_on_c, 0, 68, 93
2, 22464, Note_off_c, 0, 68, 0
2, 22464, Note_on_c, 0, 66, 93
2, 22512, Note_off_c, 0, 66, 0
2, 22512, Note_on_c, 0, 73, 93
2, 22560, Note_off_c, 0, 73, 0
2, 22560, Note_on_c, 0, 78, 93
2, 22608, Note_off_c, 0, 78, 0
2, 22608, Note_on_c, 0, 81, 93
2, 22656, Note_off_c, 0, 81, 0
2, 22656, Note_on_c, 0, 71, 93
2, 22704, Note_off_c, 0, 71, 0
2, 22704, Note_on_c, 0, 81, 93
2, 22752, Note_off_c, 0, 81, 0
2, 22752, Note_on_c, 0, 80, 93
2, 22800, Note_off_c, 0, 80, 0
2, 22800, Note_on_c, 0, 78, 93
2, 22848, Note_off_c, 0, 78, 0
2, 22848, Note_on_c, 0, 80, 93
2, 22896, Note_off_c, 0, 80, 0
2, 22896, Note_on_c, 0, 77, 93
2, 22944, Note_off_c, 0, 77, 0
2, 22944, Note_on_c, 0, 78, 93
2, 22992, Note_off_c, 0, 78, 0
2, 22992, Note_on_c, 0, 72, 93
2, 23040, Note_off_c, 0, 72, 0
2, 23040, Note_on_c, 0, 73, 93
2, 23088, Note_off_c, 0, 73, 0
2, 23088, Note_on_c, 0, 78, 93
2, 23136, Note_off_c, 0, 78, 0
2, 23136, Note_on_c, 0, 77, 93
2, 23184, Note_off_c, 0, 77, 0
2, 23184, Note_on_c, 0, 78, 93
2, 23232, Note_off_c, 0, 78, 0
2, 23232, Note_on_c, 0, 80, 93
2, 23280, Note_off_c, 0, 80, 0
2, 23280, Note_on_c, 0, 81, 93
2, 23328, Note_off_c, 0, 81, 0
2, 23328, Note_on_c, 0, 83, 93
2, 23376, Note_off_c, 0, 83, 0
2, 23376, Note_on_c, 0, 80, 93
2, 23424, Note_off_c, 0, 80, 0
2, 23424, Note_on_c, 0, 81, 93
2, 23472, Note_off_c, 0, 81, 0
2, 23472, Note_on_c, 0, 73, 93
2, 23520, Note_off_c, 0, 73, 0
2, 23520, Note_on_c, 0, 66, 93
2, 23568, Note_off_c, 0, 66, 0
2, 23568, Note_on_c, 0, 68, 93
2, 23616, Note_off_c, 0, 68, 0
2, 23616, Note_on_c, 0, 69, 93
2, 23664, Note_off_c, 0, 69, 0
2, 23664, Note_on_c, 0, 71, 93
2, 23712, Note_off_c, 0, 71, 0
2, 23712, Note_on_c, 0, 73, 93
2, 23760, Note_off_c, 0, 73, 0
2, 23760, Note_on_c, 0, 76, 93
2, 23808, Note_off_c, 0, 76, 0
2, 23808, Note_on_c, 0, 74, 93
2, 23856, Note_off_c, 0, 74, 0
2, 23856, Note_on_c, 0, 66, 93
2, 23904, Note_off_c, 0, 66, 0
2, 23904, Note_on_c, 0, 59, 93
2, 23952, Note_off_c, 0, 59, 0
2, 23952, Note_on_c, 0, 61, 93
2, 24000, Note_off_c, 0, 61, 0
2, 24000, Note_on_c, 0, 62, 93
2, 24048, Note_off_c, 0, 62, 0
2, 24048, Note_on_c, 0, 64, 93
2, 24096, Note_off_c, 0, 64, 0
2, 24096, Note_on_c, 0, 66, 93
2, 24144, Note_off_c, 0, 66, 0
2, 24144, Note_on_c, 0, 69, 93
2, 24192, Note_off_c, 0, 69, 0
2, 24192, Note_on_c, 0, 68, 93
2, 24240, Note_off_c, 0, 68, 0
2, 24240, Note_on_c, 0, 71, 93
2, 24288, Note_off_c, 0, 71, 0
2, 24288, Note_on_c, 0, 64, 93
2, 24336, Note_off_c, 0, 64, 0
2, 24336, Note_on_c, 0, 66, 93
2, 24384, Note_off_c, 0, 66, 0
2, 24384, Note_on_c, 0, 68, 93
2, 24432, Note_off_c, 0, 68, 0
2, 24432, Note_on_c, 0, 69, 93
2, 24480, Note_off_c, 0, 69, 0
2, 24480, Note_on_c, 0, 71, 93
2, 24528, Note_off_c, 0, 71, 0
2, 24528, Note_on_c, 0, 74, 93
2, 24576, Note_off_c, 0, 74, 0
2, 24576, Note_on_c, 0, 73, 93
2, 24624, Note_off_c, 0, 73, 0
2, 24624, Note_on_c, 0, 71, 93
2, 24672, Note_off_c, 0, 71, 0
2, 24672, Note_on_c, 0, 69, 93
2, 24720, Note_off_c, 0, 69, 0
2, 24720, Note_on_c, 0, 73, 93
2, 24768, Note_off_c, 0, 73, 0
2, 24768, Note_on_c, 0, 78, 93
2, 24816, Note_off_c, 0, 78, 0
2, 24816, Note_on_c, 0, 77, 93
2, 24864, Note_off_c, 0, 77, 0
2, 24864, Note_on_c, 0, 78, 93
2, 24912, Note_off_c, 0, 78, 0
2, 24912, Note_on_c, 0, 73, 93
2, 24960, Note_off_c, 0, 73, 0
2, 24960, Note_on_c, 0, 70, 93
2, 25008, Note_off_c, 0, 70, 0
2, 25008, Note_on_c, 0, 73, 93
2, 25056, Note_off_c, 0, 73, 0
2, 25056, Note_on_c, 0, 76, 93
2, 25104, Note_off_c, 0, 76, 0
2, 25104, Note_on_c, 0, 79, 93
2, 25152, Note_off_c, 0, 79, 0
2, 25152, Note_on_c, 0, 78, 93
2, 25200, Note_off_c, 0, 78, 0
2, 25200, Note_on_c, 0, 76, 93
2, 25248, Note_off_c, 0, 76, 0
2, 25248, Note_on_c, 0, 74, 93
2, 25296, Note_off_c, 0, 74, 0
2, 25296, Note_on_c, 0, 73, 93
2, 25344, Note_off_c, 0, 73, 0
2, 25344, Note_on_c, 0, 74, 93
2, 25392, Note_off_c, 0, 74, 0
2, 25392, Note_on_c, 0, 73, 93
2, 25440, Note_off_c, 0, 73, 0
2, 25440, Note_on_c, 0, 71, 93
2, 25488, Note_off_c, 0, 71, 0
2, 25488, Note_on_c, 0, 78, 93
2, 25536, Note_off_c, 0, 78, 0
2, 25536, Note_on_c, 0, 83, 93
2, 25584, Note_off_c, 0, 83, 0
2, 25584, Note_on_c, 0, 82, 93
2, 25632, Note_off_c, 0, 82, 0
2, 25632, Note_on_c, 0, 83, 93
2, 25680, Note_off_c, 0, 83, 0
2, 25680, Note_on_c, 0, 74, 93
2, 25728, Note_off_c, 0, 74, 0
2, 25728, Note_on_c, 0, 65, 93
2, 25776, Note_off_c, 0, 65, 0
2, 25776, Note_on_c, 0, 73, 93
2, 25824, Note_off_c, 0, 73, 0
2, 25824, Note_on_c, 0, 83, 93
2, 25872, Note_off_c, 0, 83, 0
2, 25872, Note_on_c, 0, 86, 93
2, 25920, Note_off_c, 0, 86, 0
2, 25920, Note_on_c, 0, 85, 93
2, 25968, Note_off_c, 0, 85, 0
2, 25968, Note_on_c, 0, 83, 93
2, 26016, Note_off_c, 0, 83, 0
2, 26016, Note_on_c, 0, 81, 93
2, 26064, Note_off_c, 0, 81, 0
2, 26064, Note_on_c, 0, 80, 93
2, 26112, Note_off_c, 0, 80, 0
2, 26112, Note_on_c, 0, 81, 93
2, 26160, Note_off_c, 0, 81, 0
2, 26160, Note_on_c, 0, 80, 93
2, 26208, Note_off_c, 0, 80, 0
2, 26208, Note_on_c, 0, 78, 93
2, 26256, Note_off_c, 0, 78, 0
2, 26256, Note_on_c, 0, 81, 93
2, 26304, Note_off_c, 0, 81, 0
2, 26304, Note_on_c, 0, 71, 93
2, 26352, Note_off_c, 0, 71, 0
2, 26352, Note_on_c, 0, 74, 93
2, 26400, Note_off_c, 0, 74, 0
2, 26400, Note_on_c, 0, 81, 93
2, 26448, Note_off_c, 0, 81, 0
2, 26448, Note_on_c, 0, 80, 93
2, 26496, Note_off_c, 0, 80, 0
2, 26496, Note_on_c, 0, 69, 93
2, 26544, Note_off_c, 0, 69, 0
2, 26544, Note_on_c, 0, 73, 93
2, 26592, Note_off_c, 0, 73, 0
2, 26592, Note_on_c, 0, 80, 93
2, 26640, Note_off_c, 0, 80, 0
2, 26640, Note_on_c, 0, 78, 93
2, 26688, Note_off_c, 0, 78, 0
2, 26688, Note_on_c, 0, 68, 93
2, 26736, Note_off_c, 0, 68, 0
2, 26736, Note_on_c, 0, 71, 93
2, 26784, Note_off_c, 0, 71, 0
2, 26784, Note_on_c, 0, 78, 93
2, 26832, Note_off_c, 0, 78, 0
2, 26832, Note_on_c, 0, 76, 93
2, 26880, Note_off_c, 0, 76, 0
2, 26880, Note_on_c, 0, 66, 93
2, 26928, Note_off_c, 0, 66, 0
2, 26928, Note_on_c, 0, 69, 93
2, 26976, Note_off_c, 0, 69, 0
2, 26976, Note_on_c, 0, 76, 93
2, 27024, Note_off_c, 0, 76, 0
2, 27024, Note_on_c, 0, 74, 93
2, 27072, Note_off_c, 0, 74, 0
2, 27072, Note_on_c, 0, 65, 93
2, 27120, Note_off_c, 0, 65, 0
2, 27120, Note_on_c, 0, 74, 93
2, 27168, Note_off_c, 0, 74, 0
2, 27168, Note_on_c, 0, 73, 93
2, 27216, Note_off_c, 0, 73, 0
2, 27216, Note_on_c, 0, 71, 93
2, 27264, Note_off_c, 0, 71, 0
2, 27264, Note_on_c, 0, 69, 93
2, 27312, Note_off_c, 0, 69, 0
2, 27312, Note_on_c, 0, 73, 93
2, 27360, Note_off_c, 0, 73, 0
2, 27360, Note_on_c, 0, 78, 93
2, 27408, Note_off_c, 0, 78, 0
2, 27408, Note_on_c, 0, 80, 93
2, 27456, Note_off_c, 0, 80, 0
2, 27456, Note_on_c, 0, 80, 93
2, 27600, Note_off_c, 0, 80, 0
2, 27600, Note_on_c, 0, 78, 93
2, 27648, Note_off_c, 0, 78, 0
2, 27648, Note_on_c, 0, 78, 93
2, 27840, Note_off_c, 0, 78, 0
2, 27840, Note_on_c, 0, 76, 93
2, 27936, Note_off_c, 0, 76, 0
2, 27936, Note_on_c, 0, 80, 93
2, 28032, Note_off_c, 0, 80, 0
2, 28032, Note_on_c, 0, 80, 93
2, 28128, Note_off_c, 0, 80, 0
2, 28128, Note_on_c, 0, 78, 93
2, 28176, Note_off_c, 0, 78, 0
2, 28176, Note_on_c, 0, 76, 93
2, 28224, Note_off_c, 0, 76, 0
2, 28224, Note_on_c, 0, 78, 93
2, 28320, Note_off_c, 0, 78, 0
2, 28320, Note_on_c, 0, 81, 93
2, 28416, Note_off_c, 0, 81, 0
2, 28416, Note_on_c, 0, 81, 93
2, 28608, Note_off_c, 0, 81, 0
2, 28608, Note_on_c, 0, 83, 93
2, 28656, Note_off_c, 0, 83, 0
2, 28656, Note_on_c, 0, 80, 93
2, 28704, Note_off_c, 0, 80, 0
2, 28704, Note_on_c, 0, 81, 93
2, 28752, Note_off_c, 0, 81, 0
2, 28752, Note_on_c, 0, 78, 93
2, 28800, Note_off_c, 0, 78, 0
2, 28800, Note_on_c, 0, 71, 93
2, 28848, Note_off_c, 0, 71, 0
2, 28848, Note_on_c, 0, 78, 93
2, 28872, Note_off_c, 0, 78, 0
2, 28872, Note_on_c, 0, 80, 93
2, 28896, Note_off_c, 0, 80, 0
2, 28896, Note_on_c, 0, 81, 93
2, 28944, Note_off_c, 0, 81, 0
2, 28944, Note_on_c, 0, 78, 93
2, 28992, Note_off_c, 0, 78, 0
2, 28992, Note_on_c, 0, 80, 93
2, 29040, Note_off_c, 0, 80, 0
2, 29040, Note_on_c, 0, 76, 93
2, 29088, Note_off_c, 0, 76, 0
2, 29088, Note_on_c, 0, 78, 93
2, 29136, Note_off_c, 0, 78, 0
2, 29136, Note_on_c, 0, 75, 93
2, 29184, Note_off_c, 0, 75, 0
2, 29184, Note_on_c, 0, 76, 93
2, 29232, Note_off_c, 0, 76, 0
2, 29232, Note_on_c, 0, 71, 93
2, 29280, Note_off_c, 0, 71, 0
2, 29280, Note_on_c, 0, 68, 93
2, 29328, Note_off_c, 0, 68, 0
2, 29328, Note_on_c, 0, 64, 93
2, 29376, Note_off_c, 0, 64, 0
2, 29376, Note_on_c, 0, 68, 93
2, 29424, Note_off_c, 0, 68, 0
2, 29424, Note_on_c, 0, 71, 93
2, 29472, Note_off_c, 0, 71, 0
2, 29472, Note_on_c, 0, 76, 93
2, 29520, Note_off_c, 0, 76, 0
2, 29520, Note_on_c, 0, 80, 93
2, 29568, Note_off_c, 0, 80, 0
2, 29568, Note_on_c, 0, 69, 93
2, 29616, Note_off_c, 0, 69, 0
2, 29616, Note_on_c, 0, 80, 93
2, 29664, Note_off_c, 0, 80, 0
2, 29664, Note_on_c, 0, 78, 93
2, 29712, Note_off_c, 0, 78, 0
2, 29712, Note_on_c, 0, 76, 93
2, 29760, Note_off_c, 0, 76, 0
2, 29760, Note_on_c, 0, 78, 93
2, 29808, Note_off_c, 0, 78, 0
2, 29808, Note_on_c, 0, 80, 93
2, 29856, Note_off_c, 0, 80, 0
2, 29856, Note_on_c, 0, 81, 93
2, 29904, Note_off_c, 0, 81, 0
2, 29904, Note_on_c, 0, 78, 93
2, 29952, Note_off_c, 0, 78, 0
2, 29952, Note_on_c, 0, 81, 93
2, 30144, Note_off_c, 0, 81, 0
2, 30144, Note_on_c, 0, 71, 93
2, 30240, Note_off_c, 0, 71, 0
2, 30240, Note_on_c, 0, 80, 93
2, 30336, Note_off_c, 0, 80, 0
2, 30336, Note_on_c, 0, 73, 93
2, 30432, Note_off_c, 0, 73, 0
2, 30432, Note_on_c, 0, 78, 93
2, 30528, Note_off_c, 0, 78, 0
2, 30528, Note_on_c, 0, 66, 93
2, 30624, Note_off_c, 0, 66, 0
2, 30624, Note_on_c, 0, 75, 93
2, 30720, Note_off_c, 0, 75, 0
2, 30720, Note_on_c, 0, 76, 93
2, 30912, Note_off_c, 0, 76, 0
2, 30912, Note_on_c, 0, 80, 93
2, 30960, Note_off_c, 0, 80, 0
2, 30960, Note_on_c, 0, 78, 93
2, 31008, Note_off_c, 0, 78, 0
2, 31008, Note_on_c, 0, 80, 93
2, 31104, Note_off_c, 0, 80, 0
2, 31104, Note_on_c, 0, 73, 93
2, 31152, Note_off_c, 0, 73, 0
2, 31152, Note_on_c, 0, 72, 93
2, 31200, Note_off_c, 0, 72, 0
2, 31200, Note_on_c, 0, 73, 93
2, 31296, Note_off_c, 0, 73, 0
2, 31296, Note_on_c, 0, 78, 93
2, 31344, Note_off_c, 0, 78, 0
2, 31344, Note_on_c, 0, 76, 93
2, 31392, Note_off_c, 0, 76, 0
2, 31392, Note_on_c, 0, 78, 93
2, 31488, Note_off_c, 0, 78, 0
2, 31488, Note_on_c, 0, 72, 93
2, 31680, Note_off_c, 0, 72, 0
2, 31680, Note_on_c, 0, 64, 93
2, 31728, Note_off_c, 0, 64, 0
2, 31728, Note_on_c, 0, 68, 93
2, 31776, Note_off_c, 0, 68, 0
2, 31776, Note_on_c, 0, 73, 93
2, 31824, Note_off_c, 0, 73, 0
2, 31824, Note_on_c, 0, 76, 93
2, 31872, Note_off_c, 0, 76, 0
2, 31872, Note_on_c, 0, 66, 93
2, 31920, Note_off_c, 0, 66, 0
2, 31920, Note_on_c, 0, 69, 93
2, 31968, Note_off_c, 0, 69, 0
2, 31968, Note_on_c, 0, 75, 93
2, 32016, Note_off_c, 0, 75, 0
2, 32016, Note_on_c, 0, 78, 93
2, 32064, Note_off_c, 0, 78, 0
2, 32064, Note_on_c, 0, 68, 93
2, 32112, Note_off_c, 0, 68, 0
2, 32112, Note_on_c, 0, 71, 93
2, 32160, Note_off_c, 0, 71, 0
2, 32160, Note_on_c, 0, 77, 93
2, 32208, Note_off_c, 0, 77, 0
2, 32208, Note_on_c, 0, 80, 93
2, 32256, Note_off_c, 0, 80, 0
2, 32256, Note_on_c, 0, 80, 93
2, 32352, Note_off_c, 0, 80, 0
2, 32352, Note_on_c, 0, 78, 93
2, 32448, Note_off_c, 0, 78, 0
2, 32448, Note_on_c, 0, 76, 93
2, 32496, Note_off_c, 0, 76, 0
2, 32496, Note_on_c, 0, 75, 93
2, 32544, Note_off_c, 0, 75, 0
2, 32544, Note_on_c, 0, 76, 93
2, 32592, Note_off_c, 0, 76, 0
2, 32592, Note_on_c, 0, 73, 93
2, 32640, Note_off_c, 0, 73, 0
2, 32640, Note_on_c, 0, 75, 93
2, 32688, Note_off_c, 0, 75, 0
2, 32688, Note_on_c, 0, 71, 93
2, 32736, Note_off_c, 0, 71, 0
2, 32736, Note_on_c, 0, 76, 93
2, 32832, Note_off_c, 0, 76, 0
2, 32832, Note_on_c, 0, 75, 93
2, 32880, Note_off_c, 0, 75, 0
2, 32880, Note_on_c, 0, 73, 93
2, 32928, Note_off_c, 0, 73, 0
2, 32928, Note_on_c, 0, 78, 93
2, 33024, Note_off_c, 0, 78, 0
2, 33024, Note_on_c, 0, 76, 93
2, 33072, Note_off_c, 0, 76, 0
2, 33072, Note_on_c, 0, 75, 93
2, 33120, Note_off_c, 0, 75, 0
2, 33120, Note_on_c, 0, 73, 93
2, 33168, Note_off_c, 0, 73, 0
2, 33168, Note_on_c, 0, 71, 93
2, 33216, Note_off_c, 0, 71, 0
2, 33216, Note_on_c, 0, 75, 93
2, 33264, Note_off_c, 0, 75, 0
2, 33264, Note_on_c, 0, 73, 93
2, 33312, Note_off_c, 0, 73, 0
2, 33312, Note_on_c, 0, 75, 93
2, 33408, Note_off_c, 0, 75, 0
2, 33408, Note_on_c, 0, 80, 93
2, 33456, Note_off_c, 0, 80, 0
2, 33456, Note_on_c, 0, 79, 93
2, 33504, Note_off_c, 0, 79, 0
2, 33504, Note_on_c, 0, 80, 93
2, 33600, Note_off_c, 0, 80, 0
2, 33600, Note_on_c, 0, 73, 93
2, 33648, Note_off_c, 0, 73, 0
2, 33648, Note_on_c, 0, 72, 93
2, 33696, Note_off_c, 0, 72, 0
2, 33696, Note_on_c, 0, 73, 93
2, 33792, Note_off_c, 0, 73, 0
2, 33792, Note_on_c, 0, 82, 93
2, 33984, Note_off_c, 0, 82, 0
2, 33984, Note_on_c, 0, 80, 93
2, 34032, Note_off_c, 0, 80, 0
2, 34032, Note_on_c, 0, 79, 93
2, 34080, Note_off_c, 0, 79, 0
2, 34080, Note_on_c, 0, 80, 93
2, 34128, Note_off_c, 0, 80, 0
2, 34128, Note_on_c, 0, 83, 93
2, 34176, Note_off_c, 0, 83, 0
2, 34176, Note_on_c, 0, 80, 93
2, 34224, Note_off_c, 0, 80, 0
2, 34224, Note_on_c, 0, 79, 93
2, 34272, Note_off_c, 0, 79, 0
2, 34272, Note_on_c, 0, 80, 93
2, 34320, Note_off_c, 0, 80, 0
2, 34320, Note_on_c, 0, 83, 93
2, 34368, Note_off_c, 0, 83, 0
2, 34368, Note_on_c, 0, 80, 93
2, 34416, Note_off_c, 0, 80, 0
2, 34416, Note_on_c, 0, 79, 93
2, 34464, Note_off_c, 0, 79, 0
2, 34464, Note_on_c, 0, 80, 93
2, 34512, Note_off_c, 0, 80, 0
2, 34512, Note_on_c, 0, 83, 93
2, 34560, Note_off_c, 0, 83, 0
2, 34560, Note_on_c, 0, 80, 93
2, 34752, Note_off_c, 0, 80, 0
2, 34848, Note_on_c, 0, 80, 93
2, 34944, Note_off_c, 0, 80, 0
2, 34944, Note_on_c, 0, 80, 93
2, 35136, Note_off_c, 0, 80, 0
2, 35232, Note_on_c, 0, 80, 93
2, 35328, Note_off_c, 0, 80, 0
2, 35328, Note_on_c, 0, 80, 93
2, 35520, Note_off_c, 0, 80, 0
2, 35616, Note_on_c, 0, 80, 93
2, 35712, Note_off_c, 0, 80, 0
2, 35712, Note_on_c, 0, 80, 93
2, 35904, Note_off_c, 0, 80, 0
2, 36000, Note_on_c, 0, 80, 93
2, 36096, Note_off_c, 0, 80, 0
2, 36096, Note_on_c, 0, 76, 93
2, 36672, Note_off_c, 0, 76, 0
2, 36864, Note_on_c, 0, 63, 93
2, 36912, Note_off_c, 0, 63, 0
2, 36912, Note_on_c, 0, 65, 93
2, 36960, Note_off_c, 0, 65, 0
2, 36960, Note_on_c, 0, 67, 93
2, 37008, Note_off_c, 0, 67, 0
2, 37008, Note_on_c, 0, 68, 93
2, 37056, Note_off_c, 0, 68, 0
2, 37056, Note_on_c, 0, 70, 93
2, 37104, Note_off_c, 0, 70, 0
2, 37104, Note_on_c, 0, 71, 93
2, 37152, Note_off_c, 0, 71, 0
2, 37152, Note_on_c, 0, 73, 93
2, 37200, Note_off_c, 0, 73, 0
2, 37200, Note_on_c, 0, 75, 93
2, 37248, Note_off_c, 0, 75, 0
2, 37248, Note_on_c, 0, 76, 93
2, 37296, Note_off_c, 0, 76, 0
2, 37296, Note_on_c, 0, 75, 93
2, 37344, Note_off_c, 0, 75, 0
2, 37344, Note_on_c, 0, 74, 93
2, 37392, Note_off_c, 0, 74, 0
2, 37392, Note_on_c, 0, 75, 93
2, 37440, Note_off_c, 0, 75, 0
2, 37440, Note_on_c, 0, 76, 93
2, 37488, Note_off_c, 0, 76, 0
2, 37488, Note_on_c, 0, 75, 93
2, 37536, Note_off_c, 0, 75, 0
2, 37536, Note_on_c, 0, 74, 93
2, 37584, Note_off_c, 0, 74, 0
2, 37584, Note_on_c, 0, 75, 93
2, 37632, Note_off_c, 0, 75, 0
2, 37632, Note_on_c, 0, 67, 93
2, 37680, Note_off_c, 0, 67, 0
2, 37680, Note_on_c, 0, 70, 93
2, 37728, Note_off_c, 0, 70, 0
2, 37728, Note_on_c, 0, 73, 93
2, 37776, Note_off_c, 0, 73, 0
2, 37776, Note_on_c, 0, 76, 93
2, 37824, Note_off_c, 0, 76, 0
2, 37824, Note_on_c, 0, 75, 93
2, 37872, Note_off_c, 0, 75, 0
2, 37872, Note_on_c, 0, 79, 93
2, 37920, Note_off_c, 0, 79, 0
2, 37920, Note_on_c, 0, 82, 93
2, 37968, Note_off_c, 0, 82, 0
2, 37968, Note_on_c, 0, 85, 93
2, 38016, Note_off_c, 0, 85, 0
2, 38016, Note_on_c, 0, 83, 93
2, 38064, Note_off_c, 0, 83, 0
2, 38064, Note_on_c, 0, 82, 93
2, 38088, Note_off_c, 0, 82, 0
2, 38088, Note_on_c, 0, 80, 93
2, 38112, Note_off_c, 0, 80, 0
2, 38112, Note_on_c, 0, 79, 93
2, 38160, Note_off_c, 0, 79, 0
2, 38160, Note_on_c, 0, 80, 93
2, 38208, Note_off_c, 0, 80, 0
2, 38208, Note_on_c, 0, 71, 93
2, 38238, Note_off_c, 0, 71, 0
2, 38238, Note_on_c, 0, 73, 93
2, 38274, Note_off_c, 0, 73, 0
2, 38274, Note_on_c, 0, 75, 93
2, 38304, Note_off_c, 0, 75, 0
2, 38304, Note_on_c, 0, 73, 93
2, 38334, Note_off_c, 0, 73, 0
2, 38334, Note_on_c, 0, 71, 93
2, 38370, Note_off_c, 0, 71, 0
2, 38370, Note_on_c, 0, 70, 93
2, 38400, Note_off_c, 0, 70, 0
2, 38400, Note_on_c, 0, 68, 93
2, 38592, Note_off_c, 0, 68, 0
2, 38592, Note_on_c, 0, 71, 93
2, 38688, Note_off_c, 0, 71, 0
2, 38688, Note_on_c, 0, 80, 93
2, 38784, Note_off_c, 0, 80, 0
2, 38784, Note_on_c, 0, 80, 93
2, 38880, Note_off_c, 0, 80, 0
2, 38880, Note_on_c, 0, 78, 93
2, 38928, Note_off_c, 0, 78, 0
2, 38928, Note_on_c, 0, 76, 93
2, 38976, Note_off_c, 0, 76, 0
2, 38976, Note_on_c, 0, 78, 93
2, 39072, Note_off_c, 0, 78, 0
2, 39072, Note_on_c, 0, 81, 93
2, 39168, Note_off_c, 0, 81, 0
2, 39168, Note_on_c, 0, 81, 93
2, 39360, Note_off_c, 0, 81, 0
2, 39360, Note_on_c, 0, 83, 93
2, 39408, Note_off_c, 0, 83, 0
2, 39408, Note_on_c, 0, 80, 93
2, 39456, Note_off_c, 0, 80, 0
2, 39456, Note_on_c, 0, 81, 93
2, 39504, Note_off_c, 0, 81, 0
2, 39504, Note_on_c, 0, 78, 93
2, 39552, Note_off_c, 0, 78, 0
2, 39552, Note_on_c, 0, 71, 93
2, 39600, Note_off_c, 0, 71, 0
2, 39600, Note_on_c, 0, 78, 93
2, 39624, Note_off_c, 0, 78, 0
2, 39624, Note_on_c, 0, 80, 93
2, 39648, Note_off_c, 0, 80, 0
2, 39648, Note_on_c, 0, 81, 93
2, 39696, Note_off_c, 0, 81, 0
2, 39696, Note_on_c, 0, 78, 93
2, 39744, Note_off_c, 0, 78, 0
2, 39744, Note_on_c, 0, 80, 93
2, 39792, Note_off_c, 0, 80, 0
2, 39792, Note_on_c, 0, 76, 93
2, 39840, Note_off_c, 0, 76, 0
2, 39840, Note_on_c, 0, 78, 93
2, 39888, Note_off_c, 0, 78, 0
2, 39888, Note_on_c, 0, 75, 93
2, 39936, Note_off_c, 0, 75, 0
2, 39936, Note_on_c, 0, 76, 93
2, 39984, Note_off_c, 0, 76, 0
2, 39984, Note_on_c, 0, 71, 93
2, 40032, Note_off_c, 0, 71, 0
2, 40032, Note_on_c, 0, 68, 93
2, 40080, Note_off_c, 0, 68, 0
2, 40080, Note_on_c, 0, 64, 93
2, 40128, Note_off_c, 0, 64, 0
2, 40128, Note_on_c, 0, 68, 93
2, 40176, Note_off_c, 0, 68, 0
2, 40176, Note_on_c, 0, 71, 93
2, 40224, Note_off_c, 0, 71, 0
2, 40224, Note_on_c, 0, 76, 93
2, 40272, Note_off_c, 0, 76, 0
2, 40272, Note_on_c, 0, 80, 93
2, 40320, Note_off_c, 0, 80, 0
2, 40320, Note_on_c, 0, 69, 93
2, 40368, Note_off_c, 0, 69, 0
2, 40368, Note_on_c, 0, 80, 93
2, 40416, Note_off_c, 0, 80, 0
2, 40416, Note_on_c, 0, 78, 93
2, 40464, Note_off_c, 0, 78, 0
2, 40464, Note_on_c, 0, 76, 93
2, 40512, Note_off_c, 0, 76, 0
2, 40512, Note_on_c, 0, 78, 93
2, 40560, Note_off_c, 0, 78, 0
2, 40560, Note_on_c, 0, 80, 93
2, 40608, Note_off_c, 0, 80, 0
2, 40608, Note_on_c, 0, 81, 93
2, 40656, Note_off_c, 0, 81, 0
2, 40656, Note_on_c, 0, 78, 93
2, 40704, Note_off_c, 0, 78, 0
2, 40704, Note_on_c, 0, 81, 93
2, 40896, Note_off_c, 0, 81, 0
2, 40896, Note_on_c, 0, 71, 93
2, 40992, Note_off_c, 0, 71, 0
2, 40992, Note_on_c, 0, 80, 93
2, 41088, Note_off_c, 0, 80, 0
2, 41088, Note_on_c, 0, 73, 93
2, 41184, Note_off_c, 0, 73, 0
2, 41184, Note_on_c, 0, 78, 93
2, 41280, Note_off_c, 0, 78, 0
2, 41280, Note_on_c, 0, 66, 93
2, 41376, Note_off_c, 0, 66, 0
2, 41376, Note_on_c, 0, 75, 93
2, 41472, Note_off_c, 0, 75, 0
2, 41472, Note_on_c, 0, 76, 93
2, 41664, Note_off_c, 0, 76, 0
2, 41664, End_track
3, 0, Start_track
3, 0, Title_t, "Track3"
3, 0, Program_c, 1, 40
3, 0, Control_c, 1, 7, 100
3, 0, Control_c, 1, 10, 59
3, 192, Note_on_c, 1, 64, 93
3, 288, Note_off_c, 1, 64, 0
3, 384, Note_on_c, 1, 69, 93
3, 480, Note_off_c, 1, 69, 0
3, 768, Note_on_c, 1, 71, 93
3, 960, Note_off_c, 1, 71, 0
3, 2304, Note_on_c, 1, 71, 93
3, 2496, Note_off_c, 1, 71, 0
3, 2496, Note_on_c, 1, 64, 93
3, 2592, Note_off_c, 1, 64, 0
3, 2688, Note_on_c, 1, 69, 93
3, 2784, Note_off_c, 1, 69, 0
3, 2880, Note_on_c, 1, 59, 93
3, 2976, Note_off_c, 1, 59, 0
3, 3072, Note_on_c, 1, 64, 93
3, 3264, Note_off_c, 1, 64, 0
3, 3264, Note_on_c, 1, 64, 93
3, 3360, Note_off_c, 1, 64, 0
3, 3456, Note_on_c, 1, 69, 93
3, 3552, Note_off_c, 1, 69, 0
3, 3840, Note_on_c, 1, 71, 93
3, 4032, Note_off_c, 1, 71, 0
3, 5376, Note_on_c, 1, 71, 93
3, 5568, Note_off_c, 1, 71, 0
3, 5568, Note_on_c, 1, 64, 93
3, 5664, Note_off_c, 1, 64, 0
3, 5760, Note_on_c, 1, 69, 93
3, 5856, Note_off_c, 1, 69, 0
3, 5952, Note_on_c, 1, 59, 93
3, 6048, Note_off_c, 1, 59, 0
3, 6144, Note_on_c, 1, 64, 93
3, 6336, Note_off_c, 1, 64, 0
3, 6336, Note_on_c, 1, 64, 93
3, 6432, Note_off_c, 1, 64, 0
3, 6528, Note_on_c, 1, 69, 93
3, 6624, Note_off_c, 1, 69, 0
3, 6720, Note_on_c, 1, 68, 93
3, 6816, Note_off_c, 1, 68, 0
3, 6912, Note_on_c, 1, 66, 93
3, 7104, Note_off_c, 1, 66, 0
3, 7104, Note_on_c, 1, 64, 93
3, 7200, Note_off_c, 1, 64, 0
3, 7296, Note_on_c, 1, 66, 93
3, 7392, Note_off_c, 1, 66, 0
3, 9408, Note_on_c, 1, 64, 93
3, 9504, Note_off_c, 1, 64, 0
3, 9600, Note_on_c, 1, 69, 93
3, 9696, Note_off_c, 1, 69, 0
3, 9984, Note_on_c, 1, 71, 93
3, 10176, Note_off_c, 1, 71, 0
3, 11520, Note_on_c, 1, 71, 93
3, 11712, Note_off_c, 1, 71, 0
3, 11712, Note_on_c, 1, 64, 93
3, 11808, Note_off_c, 1, 64, 0
3, 11904, Note_on_c, 1, 69, 93
3, 12000, Note_off_c, 1, 69, 0
3, 12096, Note_on_c, 1, 59, 93
3, 12192, Note_off_c, 1, 59, 0
3, 12288, Note_on_c, 1, 64, 93
3, 12480, Note_off_c, 1, 64, 0
3, 12768, Note_on_c, 1, 64, 93
3, 12816, Note_off_c, 1, 64, 0
3, 12816, Note_on_c, 1, 66, 93
3, 12864, Note_off_c, 1, 66, 0
3, 12864, Note_on_c, 1, 68, 93
3, 12912, Note_off_c, 1, 68, 0
3, 12912, Note_on_c, 1, 66, 93
3, 12960, Note_off_c, 1, 66, 0
3, 12960, Note_on_c, 1, 68, 93
3, 13008, Note_off_c, 1, 68, 0
3, 13008, Note_on_c, 1, 66, 93
3, 13056, Note_off_c, 1, 66, 0
3, 13056, Note_on_c, 1, 68, 93
3, 13104, Note_off_c, 1, 68, 0
3, 13104, Note_on_c, 1, 66, 93
3, 13152, Note_off_c, 1, 66, 0
3, 13152, Note_on_c, 1, 68, 93
3, 13200, Note_off_c, 1, 68, 0
3, 13200, Note_on_c, 1, 64, 93
3, 13248, Note_off_c, 1, 64, 0
3, 14304, Note_on_c, 1, 71, 93
3, 14352, Note_off_c, 1, 71, 0
3, 14352, Note_on_c, 1, 73, 93
3, 14400, Note_off_c, 1, 73, 0
3, 14400, Note_on_c, 1, 75, 93
3, 14448, Note_off_c, 1, 75, 0
3, 14448, Note_on_c, 1, 73, 93
3, 14496, Note_off_c, 1, 73, 0
3, 14496, Note_on_c, 1, 75, 93
3, 14544, Note_off_c, 1, 75, 0
3, 14544, Note_on_c, 1, 73, 93
3, 14592, Note_off_c, 1, 73, 0
3, 14592, Note_on_c, 1, 75, 93
3, 14640, Note_off_c, 1, 75, 0
3, 14640, Note_on_c, 1, 73, 93
3, 14688, Note_off_c, 1, 73, 0
3, 14688, Note_on_c, 1, 75, 93
3, 14736, Note_off_c, 1, 75, 0
3, 14736, Note_on_c, 1, 71, 93
3, 14784, Note_off_c, 1, 71, 0
3, 15552, Note_on_c, 1, 76, 93
3, 15648, Note_off_c, 1, 76, 0
3, 15648, Note_on_c, 1, 76, 93
3, 15744, Note_off_c, 1, 76, 0
3, 15744, Note_on_c, 1, 76, 93
3, 15936, Note_off_c, 1, 76, 0
3, 15936, Note_on_c, 1, 76, 93
3, 16032, Note_off_c, 1, 76, 0
3, 16032, Note_on_c, 1, 76, 93
3, 16128, Note_off_c, 1, 76, 0
3, 16128, Note_on_c, 1, 76, 93
3, 16320, Note_off_c, 1, 76, 0
3, 16896, Note_on_c, 1, 66, 93
3, 17088, Note_off_c, 1, 66, 0
3, 17088, Note_on_c, 1, 59, 93
3, 17184, Note_off_c, 1, 59, 0
3, 17280, Note_on_c, 1, 64, 93
3, 17376, Note_off_c, 1, 64, 0
3, 17664, Note_on_c, 1, 66, 93
3, 17760, Note_off_c, 1, 66, 0
3, 18240, Note_on_c, 1, 66, 93
3, 18432, Note_off_c, 1, 66, 0
3, 18432, Note_on_c, 1, 59, 93
3, 18624, Note_off_c, 1, 59, 0
3, 18624, Note_on_c, 1, 64, 93
3, 18720, Note_off_c, 1, 64, 0
3, 18816, Note_on_c, 1, 69, 93
3, 18912, Note_off_c, 1, 69, 0
3, 19200, Note_on_c, 1, 71, 93
3, 19392, Note_off_c, 1, 71, 0
3, 20736, Note_on_c, 1, 71, 93
3, 20928, Note_off_c, 1, 71, 0
3, 20928, Note_on_c, 1, 64, 93
3, 21024, Note_off_c, 1, 64, 0
3, 21120, Note_on_c, 1, 69, 93
3, 21216, Note_off_c, 1, 69, 0
3, 21312, Note_on_c, 1, 59, 93
3, 21408, Note_off_c, 1, 59, 0
3, 21504, Note_on_c, 1, 64, 93
3, 21696, Note_off_c, 1, 64, 0
3, 27456, Note_on_c, 1, 73, 93
3, 27648, Note_off_c, 1, 73, 0
3, 27648, Note_on_c, 1, 66, 93
3, 27840, Note_off_c, 1, 66, 0
3, 27840, Note_on_c, 1, 68, 93
3, 27936, Note_off_c, 1, 68, 0
3, 28032, Note_on_c, 1, 69, 93
3, 28128, Note_off_c, 1, 69, 0
3, 28416, Note_on_c, 1, 71, 93
3, 28608, Note_off_c, 1, 71, 0
3, 29952, Note_on_c, 1, 71, 93
3, 30144, Note_off_c, 1, 71, 0
3, 30144, Note_on_c, 1, 64, 93
3, 30240, Note_off_c, 1, 64, 0
3, 30336, Note_on_c, 1, 69, 93
3, 30432, Note_off_c, 1, 69, 0
3, 30528, Note_on_c, 1, 59, 93
3, 30624, Note_off_c, 1, 59, 0
3, 30720, Note_on_c, 1, 64, 93
3, 30912, Note_off_c, 1, 64, 0
3, 30912, Note_on_c, 1, 76, 93
3, 30960, Note_off_c, 1, 76, 0
3, 30960, Note_on_c, 1, 75, 93
3, 31008, Note_off_c, 1, 75, 0
3, 31008, Note_on_c, 1, 76, 93
3, 31104, Note_off_c, 1, 76, 0
3, 31104, Note_on_c, 1, 69, 93
3, 31152, Note_off_c, 1, 69, 0
3, 31152, Note_on_c, 1, 68, 93
3, 31200, Note_off_c, 1, 68, 0
3, 31200, Note_on_c, 1, 69, 93
3, 31296, Note_off_c, 1, 69, 0
3, 31296, Note_on_c, 1, 75, 93
3, 31344, Note_off_c, 1, 75, 0
3, 31344, Note_on_c, 1, 73, 93
3, 31392, Note_off_c, 1, 73, 0
3, 31392, Note_on_c, 1, 75, 93
3, 31488, Note_off_c, 1, 75, 0
3, 31488, Note_on_c, 1, 68, 93
3, 31680, Note_off_c, 1, 68, 0
3, 32256, Note_on_c, 1, 69, 93
3, 32448, Note_off_c, 1, 69, 0
3, 32448, Note_on_c, 1, 70, 93
3, 32496, Note_off_c, 1, 70, 0
3, 32736, Note_on_c, 1, 68, 93
3, 32832, Note_off_c, 1, 68, 0
3, 32832, Note_on_c, 1, 64, 93
3, 32928, Note_off_c, 1, 64, 0
3, 32928, Note_on_c, 1, 66, 93
3, 33024, Note_off_c, 1, 66, 0
3, 33024, Note_on_c, 1, 59, 93
3, 33120, Note_off_c, 1, 59, 0
3, 33216, Note_on_c, 1, 59, 93
3, 33264, Note_off_c, 1, 59, 0
3, 38592, Note_on_c, 1, 64, 93
3, 38688, Note_off_c, 1, 64, 0
3, 38784, Note_on_c, 1, 69, 93
3, 38880, Note_off_c, 1, 69, 0
3, 39168, Note_on_c, 1, 71, 93
3, 39360, Note_off_c, 1, 71, 0
3, 40704, Note_on_c, 1, 71, 93
3, 40896, Note_off_c, 1, 71, 0
3, 40896, Note_on_c, 1, 64, 93
3, 40992, Note_off_c, 1, 64, 0
3, 41088, Note_on_c, 1, 69, 93
3, 41184, Note_off_c, 1, 69, 0
3, 41280, Note_on_c, 1, 59, 93
3, 41376, Note_off_c, 1, 59, 0
3, 41472, Note_on_c, 1, 64, 93
3, 41664, Note_off_c, 1, 64, 0
3, 41664, End_track
4, 0, Start_track
4, 0, Title_t, "Track4"
4, 0, Program_c, 2, 40
4, 0, Control_c, 2, 7, 100
4, 0, Control_c, 2, 10, 79
4, 18432, Note_on_c, 2, 66, 93
4, 18624, Note_off_c, 2, 66, 0
4, 27648, Note_on_c, 2, 73, 93
4, 27840, Note_off_c, 2, 73, 0
4, 27840, Note_on_c, 2, 71, 93
4, 27936, Note_off_c, 2, 71, 0
4, 32928, Note_on_c, 2, 73, 93
4, 33024, Note_off_c, 2, 73, 0
4, 33024, Note_on_c, 2, 66, 93
4, 33120, Note_off_c, 2, 66, 0
4, 33216, Note_on_c, 2, 66, 93
4, 33264, Note_off_c, 2, 66, 0
4, 33408, Note_on_c, 2, 64, 93
4, 33456, Note_off_c, 2, 64, 0
4, 33600, Note_on_c, 2, 64, 93
4, 33648, Note_off_c, 2, 64, 0
4, 33792, Note_on_c, 2, 63, 93
4, 33984, Note_off_c, 2, 63, 0
4, 33984, End_track
5, 0, Start_track
5, 0, Title_t, "Track5"
5, 0, Program_c, 3, 40
5, 0, Control_c, 3, 7, 100
5, 0, Control_c, 3, 10, 49
5, 33024, Note_on_c, 3, 71, 93
5, 33120, Note_off_c, 3, 71, 0
5, 33408, Note_on_c, 3, 75, 93
5, 33456, Note_off_c, 3, 75, 0
5, 33792, Note_on_c, 3, 73, 93
5, 33984, Note_off_c, 3, 73, 0
5, 33984, Note_on_c, 3, 71, 93
5, 34032, Note_off_c, 3, 71, 0
5, 34176, Note_on_c, 3, 73, 93
5, 34224, Note_off_c, 3, 73, 0
5, 34368, Note_on_c, 3, 75, 93
5, 34416, Note_off_c, 3, 75, 0
5, 34560, Note_on_c, 3, 76, 93
5, 34608, Note_off_c, 3, 76, 0
5, 34608, Note_on_c, 3, 73, 93
5, 34656, Note_off_c, 3, 73, 0
5, 34656, Note_on_c, 3, 76, 93
5, 34704, Note_off_c, 3, 76, 0
5, 34704, Note_on_c, 3, 73, 93
5, 34752, Note_off_c, 3, 73, 0
5, 34752, Note_on_c, 3, 68, 93
5, 34800, Note_off_c, 3, 68, 0
5, 34800, Note_on_c, 3, 73, 93
5, 34848, Note_off_c, 3, 73, 0
5, 34848, Note_on_c, 3, 76, 93
5, 34896, Note_off_c, 3, 76, 0
5, 34896, Note_on_c, 3, 73, 93
5, 34944, Note_off_c, 3, 73, 0
5, 34944, Note_on_c, 3, 75, 93
5, 34992, Note_off_c, 3, 75, 0
5, 34992, Note_on_c, 3, 71, 93
5, 35040, Note_off_c, 3, 71, 0
5, 35040, Note_on_c, 3, 75, 93
5, 35088, Note_off_c, 3, 75, 0
5, 35088, Note_on_c, 3, 71, 93
5, 35136, Note_off_c, 3, 71, 0
5, 35136, Note_on_c, 3, 68, 93
5, 35184, Note_off_c, 3, 68, 0
5, 35184, Note_on_c, 3, 71, 93
5, 35232, Note_off_c, 3, 71, 0
5, 35232, Note_on_c, 3, 75, 93
5, 35280, Note_off_c, 3, 75, 0
5, 35280, Note_on_c, 3, 71, 93
5, 35328, Note_off_c, 3, 71, 0
5, 35328, Note_on_c, 3, 76, 93
5, 35376, Note_off_c, 3, 76, 0
5, 35376, Note_on_c, 3, 73, 93
5, 35424, Note_off_c, 3, 73, 0
5, 35424, Note_on_c, 3, 76, 93
5, 35472, Note_off_c, 3, 76, 0
5, 35472, Note_on_c, 3, 73, 93
5, 35520, Note_off_c, 3, 73, 0
5, 35520, Note_on_c, 3, 68, 93
5, 35568, Note_off_c, 3, 68, 0
5, 35568, Note_on_c, 3, 73, 93
5, 35616, Note_off_c, 3, 73, 0
5, 35616, Note_on_c, 3, 76, 93
5, 35664, Note_off_c, 3, 76, 0
5, 35664, Note_on_c, 3, 73, 93
5, 35712, Note_off_c, 3, 73, 0
5, 35712, Note_on_c, 3, 75, 93
5, 35760, Note_off_c, 3, 75, 0
5, 35760, Note_on_c, 3, 71, 93
5, 35808, Note_off_c, 3, 71, 0
5, 35808, Note_on_c, 3, 75, 93
5, 35856, Note_off_c, 3, 75, 0
5, 35856, Note_on_c, 3, 71, 93
5, 35904, Note_off_c, 3, 71, 0
5, 35904, Note_on_c, 3, 68, 93
5, 35952, Note_off_c, 3, 68, 0
5, 35952, Note_on_c, 3, 71, 93
5, 36000, Note_off_c, 3, 71, 0
5, 36000, Note_on_c, 3, 75, 93
5, 36048, Note_off_c, 3, 75, 0
5, 36048, Note_on_c, 3, 71, 93
5, 36096, Note_off_c, 3, 71, 0
5, 36096, Note_on_c, 3, 75, 93
5, 36144, Note_off_c, 3, 75, 0
5, 36144, Note_on_c, 3, 71, 93
5, 36192, Note_off_c, 3, 71, 0
5, 36192, Note_on_c, 3, 75, 93
5, 36240, Note_off_c, 3, 75, 0
5, 36240, Note_on_c, 3, 71, 93
5, 36288, Note_off_c, 3, 71, 0
5, 36288, Note_on_c, 3, 73, 93
5, 36336, Note_off_c, 3, 73, 0
5, 36336, Note_on_c, 3, 71, 93
5, 36384, Note_off_c, 3, 71, 0
5, 36384, Note_on_c, 3, 73, 93
5, 36432, Note_off_c, 3, 73, 0
5, 36432, Note_on_c, 3, 71, 93
5, 36480, Note_off_c, 3, 71, 0
5, 36480, Note_on_c, 3, 70, 93
5, 36528, Note_off_c, 3, 70, 0
5, 36528, Note_on_c, 3, 73, 93
5, 36576, Note_off_c, 3, 73, 0
5, 36576, Note_on_c, 3, 70, 93
5, 36624, Note_off_c, 3, 70, 0
5, 36624, Note_on_c, 3, 73, 93
5, 36672, Note_off_c, 3, 73, 0
5, 36672, Note_on_c, 3, 67, 93
5, 36720, Note_off_c, 3, 67, 0
5, 36720, Note_on_c, 3, 70, 93
5, 36768, Note_off_c, 3, 70, 0
5, 36768, Note_on_c, 3, 67, 93
5, 36816, Note_off_c, 3, 67, 0
5, 36816, Note_on_c, 3, 70, 93
5, 36864, Note_off_c, 3, 70, 0
5, 36864, End_track
0, 0, End_of_file
