0, 0, Header, 1, 6, 96
1, 0, Start_track
1, 0, Time_signature, 4, 2, 24, 8
1, 0, Title_t, "untitled"
1, 0, Title_t, "Track1"
1, 0, Tempo, 750000
1, 35328, Tempo, 512820
1, 35406, Tempo, 517241
1, 35406, Tempo, 545454
1, 35406, Tempo, 576923
1, 35412, Tempo, 612244
1, 35412, Tempo, 645161
1, 35412, Tempo, 689655
1, 35418, Tempo, 750000
1, 35418, Tempo, 800000
1, 35418, Tempo, 869565
1, 35418, Tempo, 967741
1, 35424, Tempo, 1071428
1, 35424, Tempo, 1153846
1, 35454, Tempo, 1200000
1, 35484, Tempo, 1200000
1, 35514, Tempo, 1250000
1, 35544, Tempo, 1250000
1, 35574, Tempo, 1304347
1, 35604, Tempo, 1333333
1, 35634, Tempo, 1333333
1, 35664, Tempo, 1363636
1, 35694, Tempo, 1428571
1, 35724, Tempo, 1428571
1, 35754, Tempo, 1500000
1, 35784, Tempo, 1500000
1, 35814, Tempo, 1578947
1, 35844, Tempo, 1578947
1, 35874, Tempo, 1666666
1, 35994, Tempo, 1875000
1, 35994, Tempo, 1875000
1, 36000, Tempo, 1818181
1, 36000, Tempo, 1764705
1, 36006, Tempo, 1714285
1, 36006, Tempo, 1666666
1, 36012, Tempo, 1578947
1, 36018, Tempo, 1578947
1, 36018, Tempo, 1500000
1, 36024, Tempo, 1500000
1, 36030, Tempo, 1428571
1, 36030, Tempo, 1428571
1, 36036, Tempo, 1363636
1, 36042, Tempo, 1333333
1, 36042, Tempo, 1333333
1, 36048, Tempo, 1304347
1, 36048, Tempo, 1250000
1, 36054, Tempo, 1250000
1, 36060, Tempo, 1200000
1, 36060, Tempo, 1200000
1, 36066, Tempo, 1153846
1, 36072, Tempo, 1132075
1, 36072, Tempo, 1111111
1, 36078, Tempo, 1090909
1, 36078, Tempo, 1090909
1, 36084, Tempo, 1071428
1, 36090, Tempo, 1052631
1, 36090, Tempo, 1016949
1, 36096, Tempo, 1000000
1, 36096, End_track
2, 0, Start_track
2, 0, Title_t, "Track2"
2, 0, Program_c, 0, 40
2, 0, Control_c, 0, 7, 100
2, 0, Control_c, 0, 10, 69
2, 816, Note_on_c, 0, 79, 93
2, 864, Note_off_c, 0, 79, 0
2, 864, Note_on_c, 0, 79, 93
2, 912, Note_off_c, 0, 79, 0
2, 912, Note_on_c, 0, 79, 93
2, 960, Note_off_c, 0, 79, 0
2, 960, Note_on_c, 0, 79, 93
2, 1008, Note_off_c, 0, 79, 0
2, 1008, Note_on_c, 0, 77, 93
2, 1032, Note_off_c, 0, 77, 0
2, 1032, Note_on_c, 0, 75, 93
2, 1056, Note_off_c, 0, 75, 0
2, 1056, Note_on_c, 0, 77, 93
2, 1104, Note_off_c, 0, 77, 0
2, 1104, Note_on_c, 0, 74, 93
2, 1152, Note_off_c, 0, 74, 0
2, 1152, Note_on_c, 0, 75, 93
2, 1200, Note_off_c, 0, 75, 0
2, 1392, Note_on_c, 0, 74, 93
2, 1440, Note_off_c, 0, 74, 0
2, 1440, Note_on_c, 0, 74, 93
2, 1488, Note_off_c, 0, 74, 0
2, 1488, Note_on_c, 0, 74, 93
2, 1536, Note_off_c, 0, 74, 0
2, 1536, Note_on_c, 0, 74, 93
2, 1584, Note_off_c, 0, 74, 0
2, 1584, Note_on_c, 0, 72, 93
2, 1608, Note_off_c, 0, 72, 0
2, 1608, Note_on_c, 0, 70, 93
2, 1632, Note_off_c, 0, 70, 0
2, 1632, Note_on_c, 0, 72, 93
2, 1680, Note_off_c, 0, 72, 0
2, 1680, Note_on_c, 0, 69, 93
2, 1728, Note_off_c, 0, 69, 0
2, 1728, Note_on_c, 0, 70, 93
2, 1776, Note_off_c, 0, 70, 0
2, 1824, Note_on_c, 0, 82, 93
2, 1872, Note_off_c, 0, 82, 0
2, 1920, Note_on_c, 0, 82, 93
2, 1968, Note_off_c, 0, 82, 0
2, 1968, Note_on_c, 0, 81, 93
2, 1992, Note_off_c, 0, 81, 0
2, 1992, Note_on_c, 0, 79, 93
2, 2016, Note_off_c, 0, 79, 0
2, 2016, Note_on_c, 0, 81, 93
2, 2040, Note_off_c, 0, 81, 0
2, 2040, Note_on_c, 0, 78, 93
2, 2064, Note_off_c, 0, 78, 0
2, 2064, Note_on_c, 0, 79, 93
2, 2112, Note_off_c, 0, 79, 0
2, 2112, Note_on_c, 0, 78, 93
2, 2136, Note_off_c, 0, 78, 0
2, 3936, Note_on_c, 0, 82, 93
2, 3984, Note_off_c, 0, 82, 0
2, 3984, Note_on_c, 0, 82, 93
2, 4032, Note_off_c, 0, 82, 0
2, 4032, Note_on_c, 0, 82, 93
2, 4080, Note_off_c, 0, 82, 0
2, 4080, Note_on_c, 0, 81, 93
2, 4104, Note_off_c, 0, 81, 0
2, 4104, Note_on_c, 0, 79, 93
2, 4128, Note_off_c, 0, 79, 0
2, 4128, Note_on_c, 0, 81, 93
2, 4176, Note_off_c, 0, 81, 0
2, 4176, Note_on_c, 0, 81, 93
2, 4224, Note_off_c, 0, 81, 0
2, 4224, Note_on_c, 0, 80, 93
2, 4248, Note_off_c, 0, 80, 0
2, 4248, Note_on_c, 0, 79, 93
2, 4272, Note_off_c, 0, 79, 0
2, 4272, Note_on_c, 0, 80, 93
2, 4296, Note_off_c, 0, 80, 0
2, 4296, Note_on_c, 0, 78, 93
2, 4320, Note_off_c, 0, 78, 0
2, 4320, Note_on_c, 0, 79, 93
2, 4368, Note_off_c, 0, 79, 0
2, 4368, Note_on_c, 0, 77, 93
2, 4416, Note_off_c, 0, 77, 0
2, 4416, Note_on_c, 0, 75, 93
2, 4464, Note_off_c, 0, 75, 0
2, 4464, Note_on_c, 0, 74, 93
2, 4512, Note_off_c, 0, 74, 0
2, 4512, Note_on_c, 0, 72, 93
2, 4560, Note_off_c, 0, 72, 0
2, 4560, Note_on_c, 0, 70, 93
2, 4608, Note_off_c, 0, 70, 0
2, 4608, Note_on_c, 0, 68, 93
2, 4632, Note_off_c, 0, 68, 0
2, 4632, Note_on_c, 0, 66, 93
2, 4656, Note_off_c, 0, 66, 0
2, 4656, Note_on_c, 0, 66, 93
2, 4680, Note_off_c, 0, 66, 0
2, 4680, Note_on_c, 0, 67, 93
2, 4704, Note_off_c, 0, 67, 0
2, 4704, Note_on_c, 0, 67, 93
2, 4728, Note_off_c, 0, 67, 0
2, 4728, Note_on_c, 0, 58, 93
2, 4752, Note_off_c, 0, 58, 0
2, 4752, Note_on_c, 0, 57, 93
2, 4776, Note_off_c, 0, 57, 0
2, 4776, Note_on_c, 0, 55, 93
2, 4800, Note_off_c, 0, 55, 0
2, 4800, Note_on_c, 0, 57, 93
2, 4824, Note_off_c, 0, 57, 0
2, 4824, Note_on_c, 0, 67, 93
2, 4848, Note_off_c, 0, 67, 0
2, 4848, Note_on_c, 0, 72, 93
2, 4872, Note_off_c, 0, 72, 0
2, 4872, Note_on_c, 0, 75, 93
2, 4896, Note_off_c, 0, 75, 0
2, 4896, Note_on_c, 0, 62, 93
2, 4920, Note_off_c, 0, 62, 0
2, 4920, Note_on_c, 0, 67, 93
2, 4944, Note_off_c, 0, 67, 0
2, 4944, Note_on_c, 0, 69, 93
2, 4968, Note_off_c, 0, 69, 0
2, 4968, Note_on_c, 0, 66, 93
2, 4992, Note_off_c, 0, 66, 0
2, 4992, Note_on_c, 0, 67, 93
2, 5040, Note_off_c, 0, 67, 0
2, 5040, Note_on_c, 0, 86, 93
2, 5088, Note_off_c, 0, 86, 0
2, 5088, Note_on_c, 0, 86, 93
2, 5136, Note_off_c, 0, 86, 0
2, 5136, Note_on_c, 0, 86, 93
2, 5184, Note_off_c, 0, 86, 0
2, 5184, Note_on_c, 0, 86, 93
2, 5232, Note_off_c, 0, 86, 0
2, 5232, Note_on_c, 0, 84, 93
2, 5256, Note_off_c, 0, 84, 0
2, 5256, Note_on_c, 0, 82, 93
2, 5280, Note_off_c, 0, 82, 0
2, 5280, Note_on_c, 0, 84, 93
2, 5328, Note_off_c, 0, 84, 0
2, 5328, Note_on_c, 0, 81, 93
2, 5376, Note_off_c, 0, 81, 0
2, 5376, Note_on_c, 0, 82, 93
2, 5424, Note_off_c, 0, 82, 0
2, 5472, Note_on_c, 0, 87, 93
2, 5520, Note_off_c, 0, 87, 0
2, 5568, Note_on_c, 0, 81, 93
2, 5616, Note_off_c, 0, 81, 0
2, 5664, Note_on_c, 0, 86, 93
2, 5808, Note_off_c, 0, 86, 0
2, 5808, Note_on_c, 0, 84, 93
2, 5856, Note_off_c, 0, 84, 0
2, 5856, Note_on_c, 0, 84, 93
2, 5904, Note_off_c, 0, 84, 0
2, 5904, Note_on_c, 0, 84, 93
2, 5952, Note_off_c, 0, 84, 0
2, 5952, Note_on_c, 0, 84, 93
2, 6000, Note_off_c, 0, 84, 0
2, 6000, Note_on_c, 0, 82, 93
2, 6024, Note_off_c, 0, 82, 0
2, 6024, Note_on_c, 0, 81, 93
2, 6048, Note_off_c, 0, 81, 0
2, 6048, Note_on_c, 0, 82, 93
2, 6096, Note_off_c, 0, 82, 0
2, 6096, Note_on_c, 0, 79, 93
2, 6144, Note_off_c, 0, 79, 0
2, 6144, Note_on_c, 0, 81, 93
2, 6192, Note_off_c, 0, 81, 0
2, 6240, Note_on_c, 0, 86, 93
2, 6288, Note_off_c, 0, 86, 0
2, 6336, Note_on_c, 0, 79, 93
2, 6384, Note_off_c, 0, 79, 0
2, 6432, Note_on_c, 0, 84, 93
2, 6576, Note_off_c, 0, 84, 0
2, 6576, Note_on_c, 0, 82, 93
2, 6624, Note_off_c, 0, 82, 0
2, 6624, Note_on_c, 0, 82, 93
2, 6672, Note_off_c, 0, 82, 0
2, 6672, Note_on_c, 0, 82, 93
2, 6720, Note_off_c, 0, 82, 0
2, 6720, Note_on_c, 0, 82, 93
2, 6768, Note_off_c, 0, 82, 0
2, 6768, Note_on_c, 0, 81, 93
2, 6792, Note_off_c, 0, 81, 0
2, 6792, Note_on_c, 0, 79, 93
2, 6816, Note_off_c, 0, 79, 0
2, 6816, Note_on_c, 0, 81, 93
2, 6864, Note_off_c, 0, 81, 0
2, 6864, Note_on_c, 0, 82, 93
2, 6888, Note_off_c, 0, 82, 0
2, 6888, Note_on_c, 0, 81, 93
2, 6912, Note_off_c, 0, 81, 0
2, 6912, Note_on_c, 0, 79, 93
2, 6960, Note_off_c, 0, 79, 0
2, 7008, Note_on_c, 0, 84, 93
2, 7056, Note_off_c, 0, 84, 0
2, 7104, Note_on_c, 0, 84, 93
2, 7152, Note_off_c, 0, 84, 0
2, 7152, Note_on_c, 0, 82, 93
2, 7176, Note_off_c, 0, 82, 0
2, 7176, Note_on_c, 0, 81, 93
2, 7200, Note_off_c, 0, 81, 0
2, 7200, Note_on_c, 0, 82, 93
2, 7248, Note_off_c, 0, 82, 0
2, 7248, Note_on_c, 0, 84, 93
2, 7272, Note_off_c, 0, 84, 0
2, 7272, Note_on_c, 0, 82, 93
2, 7296, Note_off_c, 0, 82, 0
2, 7296, Note_on_c, 0, 81, 93
2, 7344, Note_off_c, 0, 81, 0
2, 7392, Note_on_c, 0, 86, 93
2, 7440, Note_off_c, 0, 86, 0
2, 7488, Note_on_c, 0, 86, 93
2, 7536, Note_off_c, 0, 86, 0
2, 7584, Note_on_c, 0, 84, 93
2, 7632, Note_off_c, 0, 84, 0
2, 7680, Note_on_c, 0, 77, 93
2, 7728, Note_off_c, 0, 77, 0
2, 7776, Note_on_c, 0, 82, 93
2, 7824, Note_off_c, 0, 82, 0
2, 7872, Note_on_c, 0, 81, 93
2, 7920, Note_off_c, 0, 81, 0
2, 7920, Note_on_c, 0, 77, 93
2, 7968, Note_off_c, 0, 77, 0
2, 7968, Note_on_c, 0, 79, 93
2, 8016, Note_off_c, 0, 79, 0
2, 8016, Note_on_c, 0, 81, 93
2, 8064, Note_off_c, 0, 81, 0
2, 8064, Note_on_c, 0, 82, 93
2, 8112, Note_off_c, 0, 82, 0
2, 8112, Note_on_c, 0, 81, 93
2, 8160, Note_off_c, 0, 81, 0
2, 8160, Note_on_c, 0, 79, 93
2, 8208, Note_off_c, 0, 79, 0
2, 8256, Note_on_c, 0, 79, 93
2, 8304, Note_off_c, 0, 79, 0
2, 8304, Note_on_c, 0, 77, 93
2, 8328, Note_off_c, 0, 77, 0
2, 8328, Note_on_c, 0, 76, 93
2, 8352, Note_off_c, 0, 76, 0
2, 8352, Note_on_c, 0, 77, 93
2, 8400, Note_off_c, 0, 77, 0
2, 8400, Note_on_c, 0, 77, 93
2, 8448, Note_off_c, 0, 77, 0
2, 8448, Note_on_c, 0, 77, 93
2, 8496, Note_off_c, 0, 77, 0
2, 8496, Note_on_c, 0, 76, 93
2, 8520, Note_off_c, 0, 76, 0
2, 8520, Note_on_c, 0, 74, 93
2, 8544, Note_off_c, 0, 74, 0
2, 8544, Note_on_c, 0, 76, 93
2, 8592, Note_off_c, 0, 76, 0
2, 8592, Note_on_c, 0, 73, 93
2, 8640, Note_off_c, 0, 73, 0
2, 8640, Note_on_c, 0, 74, 93
2, 8688, Note_off_c, 0, 74, 0
2, 8784, Note_on_c, 0, 74, 93
2, 8832, Note_off_c, 0, 74, 0
2, 8832, Note_on_c, 0, 74, 93
2, 8880, Note_off_c, 0, 74, 0
2, 8928, Note_on_c, 0, 73, 93
2, 9000, Note_off_c, 0, 73, 0
2, 9000, Note_on_c, 0, 74, 93
2, 9024, Note_off_c, 0, 74, 0
2, 9024, Note_on_c, 0, 74, 93
2, 9072, Note_off_c, 0, 74, 0
2, 9840, Note_on_c, 0, 72, 93
2, 9888, Note_off_c, 0, 72, 0
2, 9888, Note_on_c, 0, 72, 93
2, 9936, Note_off_c, 0, 72, 0
2, 9936, Note_on_c, 0, 72, 93
2, 9984, Note_off_c, 0, 72, 0
2, 9984, Note_on_c, 0, 72, 93
2, 10032, Note_off_c, 0, 72, 0
2, 10032, Note_on_c, 0, 70, 93
2, 10056, Note_off_c, 0, 70, 0
2, 10056, Note_on_c, 0, 69, 93
2, 10080, Note_off_c, 0, 69, 0
2, 10080, Note_on_c, 0, 70, 93
2, 10128, Note_off_c, 0, 70, 0
2, 10128, Note_on_c, 0, 72, 93
2, 10152, Note_off_c, 0, 72, 0
2, 10152, Note_on_c, 0, 70, 93
2, 10176, Note_off_c, 0, 70, 0
2, 10176, Note_on_c, 0, 69, 93
2, 10224, Note_off_c, 0, 69, 0
2, 10272, Note_on_c, 0, 74, 93
2, 10320, Note_off_c, 0, 74, 0
2, 10368, Note_on_c, 0, 74, 93
2, 10416, Note_off_c, 0, 74, 0
2, 10416, Note_on_c, 0, 76, 93
2, 10440, Note_off_c, 0, 76, 0
2, 10440, Note_on_c, 0, 77, 93
2, 10464, Note_off_c, 0, 77, 0
2, 10464, Note_on_c, 0, 76, 93
2, 10488, Note_off_c, 0, 76, 0
2, 10488, Note_on_c, 0, 74, 93
2, 10512, Note_off_c, 0, 74, 0
2, 10512, Note_on_c, 0, 73, 93
2, 10536, Note_off_c, 0, 73, 0
2, 10536, Note_on_c, 0, 74, 93
2, 10560, Note_off_c, 0, 74, 0
2, 10560, Note_on_c, 0, 73, 93
2, 10608, Note_off_c, 0, 73, 0
2, 10608, Note_on_c, 0, 81, 93
2, 10656, Note_off_c, 0, 81, 0
2, 10656, Note_on_c, 0, 81, 93
2, 10704, Note_off_c, 0, 81, 0
2, 10704, Note_on_c, 0, 81, 93
2, 10752, Note_off_c, 0, 81, 0
2, 10752, Note_on_c, 0, 81, 93
2, 10800, Note_off_c, 0, 81, 0
2, 10800, Note_on_c, 0, 79, 93
2, 10824, Note_off_c, 0, 79, 0
2, 10824, Note_on_c, 0, 77, 93
2, 10848, Note_off_c, 0, 77, 0
2, 10848, Note_on_c, 0, 79, 93
2, 10896, Note_off_c, 0, 79, 0
2, 10896, Note_on_c, 0, 79, 93
2, 10944, Note_off_c, 0, 79, 0
2, 10944, Note_on_c, 0, 79, 93
2, 10992, Note_off_c, 0, 79, 0
2, 10992, Note_on_c, 0, 77, 93
2, 11016, Note_off_c, 0, 77, 0
2, 11016, Note_on_c, 0, 76, 93
2, 11040, Note_off_c, 0, 76, 0
2, 11040, Note_on_c, 0, 77, 93
2, 11088, Note_off_c, 0, 77, 0
2, 11088, Note_on_c, 0, 77, 93
2, 11136, Note_off_c, 0, 77, 0
2, 11136, Note_on_c, 0, 82, 93
2, 11184, Note_off_c, 0, 82, 0
2, 11184, Note_on_c, 0, 81, 93
2, 11232, Note_off_c, 0, 81, 0
2, 11232, Note_on_c, 0, 81, 93
2, 11280, Note_off_c, 0, 81, 0
2, 11280, Note_on_c, 0, 80, 93
2, 11328, Note_off_c, 0, 80, 0
2, 11328, Note_on_c, 0, 80, 93
2, 11376, Note_off_c, 0, 80, 0
2, 11376, Note_on_c, 0, 81, 93
2, 11424, Note_off_c, 0, 81, 0
2, 11424, Note_on_c, 0, 81, 93
2, 11472, Note_off_c, 0, 81, 0
2, 11472, Note_on_c, 0, 78, 93
2, 11520, Note_off_c, 0, 78, 0
2, 11520, Note_on_c, 0, 78, 93
2, 11568, Note_off_c, 0, 78, 0
2, 11568, Note_on_c, 0, 79, 93
2, 11616, Note_off_c, 0, 79, 0
2, 11616, Note_on_c, 0, 79, 93
2, 11664, Note_off_c, 0, 79, 0
2, 11664, Note_on_c, 0, 76, 93
2, 11712, Note_off_c, 0, 76, 0
2, 11712, Note_on_c, 0, 76, 93
2, 11760, Note_off_c, 0, 76, 0
2, 11760, Note_on_c, 0, 77, 93
2, 11808, Note_off_c, 0, 77, 0
2, 11808, Note_on_c, 0, 77, 93
2, 11856, Note_off_c, 0, 77, 0
2, 11856, Note_on_c, 0, 74, 93
2, 11904, Note_off_c, 0, 74, 0
2, 11904, Note_on_c, 0, 74, 93
2, 11952, Note_off_c, 0, 74, 0
2, 11952, Note_on_c, 0, 75, 93
2, 12000, Note_off_c, 0, 75, 0
2, 12000, Note_on_c, 0, 75, 93
2, 12048, Note_off_c, 0, 75, 0
2, 12048, Note_on_c, 0, 73, 93
2, 12096, Note_off_c, 0, 73, 0
2, 12096, Note_on_c, 0, 73, 93
2, 12144, Note_off_c, 0, 73, 0
2, 12144, Note_on_c, 0, 82, 93
2, 12168, Note_off_c, 0, 82, 0
2, 12168, Note_on_c, 0, 80, 93
2, 12192, Note_off_c, 0, 80, 0
2, 12192, Note_on_c, 0, 81, 93
2, 12240, Note_off_c, 0, 81, 0
2, 12240, Note_on_c, 0, 73, 93
2, 12288, Note_off_c, 0, 73, 0
2, 12288, Note_on_c, 0, 74, 93
2, 12336, Note_off_c, 0, 74, 0
2, 12336, Note_on_c, 0, 82, 93
2, 12360, Note_off_c, 0, 82, 0
2, 12360, Note_on_c, 0, 80, 93
2, 12384, Note_off_c, 0, 80, 0
2, 12384, Note_on_c, 0, 81, 93
2, 12432, Note_off_c, 0, 81, 0
2, 12432, Note_on_c, 0, 85, 93
2, 12480, Note_off_c, 0, 85, 0
2, 12480, Note_on_c, 0, 86, 93
2, 12528, Note_off_c, 0, 86, 0
2, 12528, Note_on_c, 0, 84, 93
2, 12576, Note_off_c, 0, 84, 0
2, 12576, Note_on_c, 0, 84, 93
2, 12624, Note_off_c, 0, 84, 0
2, 12624, Note_on_c, 0, 82, 93
2, 12672, Note_off_c, 0, 82, 0
2, 12672, Note_on_c, 0, 82, 93
2, 12720, Note_off_c, 0, 82, 0
2, 12720, Note_on_c, 0, 81, 93
2, 12768, Note_off_c, 0, 81, 0
2, 12768, Note_on_c, 0, 81, 93
2, 12816, Note_off_c, 0, 81, 0
2, 12816, Note_on_c, 0, 85, 93
2, 12864, Note_off_c, 0, 85, 0
2, 12864, Note_on_c, 0, 85, 93
2, 12912, Note_off_c, 0, 85, 0
2, 12912, Note_on_c, 0, 86, 93
2, 12960, Note_off_c, 0, 86, 0
2, 12960, Note_on_c, 0, 86, 93
2, 13008, Note_off_c, 0, 86, 0
2, 13008, Note_on_c, 0, 79, 93
2, 13056, Note_off_c, 0, 79, 0
2, 13056, Note_on_c, 0, 79, 93
2, 13128, Note_off_c, 0, 79, 0
2, 13128, Note_on_c, 0, 81, 93
2, 13152, Note_off_c, 0, 81, 0
2, 13152, Note_on_c, 0, 77, 93
2, 13200, Note_off_c, 0, 77, 0
2, 13200, Note_on_c, 0, 76, 93
2, 13248, Note_off_c, 0, 76, 0
2, 13248, Note_on_c, 0, 76, 93
2, 13440, Note_off_c, 0, 76, 0
2, 13440, Note_on_c, 0, 76, 93
2, 13632, Note_off_c, 0, 76, 0
2, 13632, Note_on_c, 0, 81, 93
2, 13680, Note_off_c, 0, 81, 0
2, 13680, Note_on_c, 0, 79, 93
2, 13728, Note_off_c, 0, 79, 0
2, 13728, Note_on_c, 0, 81, 93
2, 13776, Note_off_c, 0, 81, 0
2, 13776, Note_on_c, 0, 77, 93
2, 13824, Note_off_c, 0, 77, 0
2, 13824, Note_on_c, 0, 79, 93
2, 14016, Note_off_c, 0, 79, 0
2, 14016, Note_on_c, 0, 79, 93
2, 14064, Note_off_c, 0, 79, 0
2, 14064, Note_on_c, 0, 77, 93
2, 14112, Note_off_c, 0, 77, 0
2, 14112, Note_on_c, 0, 79, 93
2, 14160, Note_off_c, 0, 79, 0
2, 14160, Note_on_c, 0, 76, 93
2, 14208, Note_off_c, 0, 76, 0
2, 14208, Note_on_c, 0, 62, 93
2, 14400, Note_off_c, 0, 62, 0
2, 14400, Note_on_c, 0, 62, 93
2, 14592, Note_off_c, 0, 62, 0
2, 14592, Note_on_c, 0, 62, 93
2, 14784, Note_off_c, 0, 62, 0
2, 14784, Note_on_c, 0, 62, 93
2, 14976, Note_off_c, 0, 62, 0
2, 14976, Note_on_c, 0, 62, 93
2, 15168, Note_off_c, 0, 62, 0
2, 15168, Note_on_c, 0, 62, 93
2, 15360, Note_off_c, 0, 62, 0
2, 15360, Note_on_c, 0, 62, 93
2, 15552, Note_off_c, 0, 62, 0
2, 15552, Note_on_c, 0, 62, 93
2, 15744, Note_off_c, 0, 62, 0
2, 19584, Note_on_c, 0, 71, 93
2, 19632, Note_off_c, 0, 71, 0
2, 19680, Note_on_c, 0, 75, 93
2, 19728, Note_off_c, 0, 75, 0
2, 19776, Note_on_c, 0, 74, 93
2, 19824, Note_off_c, 0, 74, 0
2, 19872, Note_on_c, 0, 74, 93
2, 19920, Note_off_c, 0, 74, 0
2, 19920, Note_on_c, 0, 77, 93
2, 19968, Note_off_c, 0, 77, 0
2, 20064, Note_on_c, 0, 72, 93
2, 20112, Note_off_c, 0, 72, 0
2, 20112, Note_on_c, 0, 72, 93
2, 20160, Note_off_c, 0, 72, 0
2, 20160, Note_on_c, 0, 72, 93
2, 20208, Note_off_c, 0, 72, 0
2, 20256, Note_on_c, 0, 71, 93
2, 20304, Note_off_c, 0, 71, 0
2, 20352, Note_on_c, 0, 67, 93
2, 20400, Note_off_c, 0, 67, 0
2, 20448, Note_on_c, 0, 65, 93
2, 20496, Note_off_c, 0, 65, 0
2, 20544, Note_on_c, 0, 66, 93
2, 20592, Note_off_c, 0, 66, 0
2, 20640, Note_on_c, 0, 62, 93
2, 20688, Note_off_c, 0, 62, 0
2, 20736, Note_on_c, 0, 63, 93
2, 20784, Note_off_c, 0, 63, 0
2, 20928, Note_on_c, 0, 62, 93
2, 20976, Note_off_c, 0, 62, 0
2, 21072, Note_on_c, 0, 64, 93
2, 21120, Note_off_c, 0, 64, 0
2, 21120, Note_on_c, 0, 65, 93
2, 21168, Note_off_c, 0, 65, 0
2, 21168, Note_on_c, 0, 65, 93
2, 21216, Note_off_c, 0, 65, 0
2, 21216, Note_on_c, 0, 69, 93
2, 21264, Note_off_c, 0, 69, 0
2, 21312, Note_on_c, 0, 70, 93
2, 21360, Note_off_c, 0, 70, 0
2, 21408, Note_on_c, 0, 72, 93
2, 21456, Note_off_c, 0, 72, 0
2, 21504, Note_on_c, 0, 72, 93
2, 21552, Note_off_c, 0, 72, 0
2, 21552, Note_on_c, 0, 70, 93
2, 21576, Note_off_c, 0, 70, 0
2, 21576, Note_on_c, 0, 69, 93
2, 21600, Note_off_c, 0, 69, 0
2, 21600, Note_on_c, 0, 70, 93
2, 21648, Note_off_c, 0, 70, 0
2, 21696, Note_on_c, 0, 70, 93
2, 21744, Note_off_c, 0, 70, 0
2, 21888, Note_on_c, 0, 70, 93
2, 21936, Note_off_c, 0, 70, 0
2, 21936, Note_on_c, 0, 58, 93
2, 21984, Note_off_c, 0, 58, 0
2, 21984, Note_on_c, 0, 58, 93
2, 22032, Note_off_c, 0, 58, 0
2, 22032, Note_on_c, 0, 58, 93
2, 22080, Note_off_c, 0, 58, 0
2, 22320, Note_on_c, 0, 60, 93
2, 22368, Note_off_c, 0, 60, 0
2, 22368, Note_on_c, 0, 60, 93
2, 22416, Note_off_c, 0, 60, 0
2, 22416, Note_on_c, 0, 60, 93
2, 22464, Note_off_c, 0, 60, 0
2, 22656, Note_on_c, 0, 75, 93
2, 22704, Note_off_c, 0, 75, 0
2, 22704, Note_on_c, 0, 74, 93
2, 22752, Note_off_c, 0, 74, 0
2, 22752, Note_on_c, 0, 74, 93
2, 22800, Note_off_c, 0, 74, 0
2, 22800, Note_on_c, 0, 72, 93
2, 22848, Note_off_c, 0, 72, 0
2, 22848, Note_on_c, 0, 72, 93
2, 22896, Note_off_c, 0, 72, 0
2, 22896, Note_on_c, 0, 70, 93
2, 22944, Note_off_c, 0, 70, 0
2, 23088, Note_on_c, 0, 65, 93
2, 23136, Note_off_c, 0, 65, 0
2, 23136, Note_on_c, 0, 65, 93
2, 23184, Note_off_c, 0, 65, 0
2, 23184, Note_on_c, 0, 65, 93
2, 23232, Note_off_c, 0, 65, 0
2, 23232, Note_on_c, 0, 65, 93
2, 23280, Note_off_c, 0, 65, 0
2, 23280, Note_on_c, 0, 67, 93
2, 23304, Note_off_c, 0, 67, 0
2, 23304, Note_on_c, 0, 65, 93
2, 23328, Note_off_c, 0, 65, 0
2, 23328, Note_on_c, 0, 63, 93
2, 23376, Note_off_c, 0, 63, 0
2, 23376, Note_on_c, 0, 62, 93
2, 23424, Note_off_c, 0, 62, 0
2, 23424, Note_on_c, 0, 63, 93
2, 23472, Note_off_c, 0, 63, 0
2, 23472, Note_on_c, 0, 70, 93
2, 23520, Note_off_c, 0, 70, 0
2, 23520, Note_on_c, 0, 70, 93
2, 23568, Note_off_c, 0, 70, 0
2, 23568, Note_on_c, 0, 70, 93
2, 23616, Note_off_c, 0, 70, 0
2, 23616, Note_on_c, 0, 70, 93
2, 23664, Note_off_c, 0, 70, 0
2, 23808, Note_on_c, 0, 74, 93
2, 23856, Note_off_c, 0, 74, 0
2, 24048, Note_on_c, 0, 70, 93
2, 24096, Note_off_c, 0, 70, 0
2, 28992, Note_on_c, 0, 67, 93
2, 29040, Note_off_c, 0, 67, 0
2, 29088, Note_on_c, 0, 69, 93
2, 29136, Note_off_c, 0, 69, 0
2, 29184, Note_on_c, 0, 69, 93
2, 29232, Note_off_c, 0, 69, 0
2, 29280, Note_on_c, 0, 67, 93
2, 29304, Note_off_c, 0, 67, 0
2, 29376, Note_on_c, 0, 67, 93
2, 29400, Note_off_c, 0, 67, 0
2, 29472, Note_on_c, 0, 65, 93
2, 29520, Note_off_c, 0, 65, 0
2, 29568, Note_on_c, 0, 65, 93
2, 29592, Note_off_c, 0, 65, 0
2, 29760, Note_on_c, 0, 63, 93
2, 29784, Note_off_c, 0, 63, 0
2, 30384, Note_on_c, 0, 74, 93
2, 30432, Note_off_c, 0, 74, 0
2, 30432, Note_on_c, 0, 74, 93
2, 30480, Note_off_c, 0, 74, 0
2, 30480, Note_on_c, 0, 74, 93
2, 30528, Note_off_c, 0, 74, 0
2, 30528, Note_on_c, 0, 74, 93
2, 30576, Note_off_c, 0, 74, 0
2, 30576, Note_on_c, 0, 72, 93
2, 30600, Note_off_c, 0, 72, 0
2, 30600, Note_on_c, 0, 71, 93
2, 30624, Note_off_c, 0, 71, 0
2, 30624, Note_on_c, 0, 72, 93
2, 30672, Note_off_c, 0, 72, 0
2, 30672, Note_on_c, 0, 81, 93
2, 30720, Note_off_c, 0, 81, 0
2, 30720, Note_on_c, 0, 72, 93
2, 30768, Note_off_c, 0, 72, 0
2, 30768, Note_on_c, 0, 72, 93
2, 30792, Note_off_c, 0, 72, 0
2, 30792, Note_on_c, 0, 70, 93
2, 30816, Note_off_c, 0, 70, 0
2, 30816, Note_on_c, 0, 72, 93
2, 30864, Note_off_c, 0, 72, 0
2, 30864, Note_on_c, 0, 81, 93
2, 30912, Note_off_c, 0, 81, 0
2, 30912, Note_on_c, 0, 70, 93
2, 30960, Note_off_c, 0, 70, 0
2, 30960, Note_on_c, 0, 70, 93
2, 30984, Note_off_c, 0, 70, 0
2, 30984, Note_on_c, 0, 69, 93
2, 31008, Note_off_c, 0, 69, 0
2, 31008, Note_on_c, 0, 70, 93
2, 31056, Note_off_c, 0, 70, 0
2, 31056, Note_on_c, 0, 79, 93
2, 31104, Note_off_c, 0, 79, 0
2, 31104, Note_on_c, 0, 82, 93
2, 31176, Note_off_c, 0, 82, 0
2, 31176, Note_on_c, 0, 81, 93
2, 31200, Note_off_c, 0, 81, 0
2, 31200, Note_on_c, 0, 79, 93
2, 31224, Note_off_c, 0, 79, 0
2, 31224, Note_on_c, 0, 78, 93
2, 31248, Note_off_c, 0, 78, 0
2, 31248, Note_on_c, 0, 79, 93
2, 31272, Note_off_c, 0, 79, 0
2, 31272, Note_on_c, 0, 81, 93
2, 31296, Note_off_c, 0, 81, 0
2, 31296, Note_on_c, 0, 78, 93
2, 31344, Note_off_c, 0, 78, 0
2, 31344, Note_on_c, 0, 79, 93
2, 31392, Note_off_c, 0, 79, 0
2, 31392, Note_on_c, 0, 79, 93
2, 31440, Note_off_c, 0, 79, 0
2, 31440, Note_on_c, 0, 79, 93
2, 31488, Note_off_c, 0, 79, 0
2, 31488, Note_on_c, 0, 79, 93
2, 31536, Note_off_c, 0, 79, 0
2, 31584, Note_on_c, 0, 78, 93
2, 31632, Note_off_c, 0, 78, 0
2, 31680, Note_on_c, 0, 77, 93
2, 31728, Note_off_c, 0, 77, 0
2, 31776, Note_on_c, 0, 75, 93
2, 31824, Note_off_c, 0, 75, 0
2, 31872, Note_on_c, 0, 75, 93
2, 31920, Note_off_c, 0, 75, 0
2, 31968, Note_on_c, 0, 74, 93
2, 32016, Note_off_c, 0, 74, 0
2, 32016, Note_on_c, 0, 82, 93
2, 32064, Note_off_c, 0, 82, 0
2, 32064, Note_on_c, 0, 79, 93
2, 32112, Note_off_c, 0, 79, 0
2, 32112, Note_on_c, 0, 80, 93
2, 32136, Note_off_c, 0, 80, 0
2, 32136, Note_on_c, 0, 79, 93
2, 32160, Note_off_c, 0, 79, 0
2, 32160, Note_on_c, 0, 80, 93
2, 32184, Note_off_c, 0, 80, 0
2, 32184, Note_on_c, 0, 78, 93
2, 32208, Note_off_c, 0, 78, 0
2, 32208, Note_on_c, 0, 79, 93
2, 32256, Note_off_c, 0, 79, 0
2, 32256, Note_on_c, 0, 78, 93
2, 32304, Note_off_c, 0, 78, 0
2, 32400, Note_on_c, 0, 78, 93
2, 32448, Note_off_c, 0, 78, 0
2, 32448, Note_on_c, 0, 79, 93
2, 32496, Note_off_c, 0, 79, 0
2, 32496, Note_on_c, 0, 81, 93
2, 32544, Note_off_c, 0, 81, 0
2, 32544, Note_on_c, 0, 82, 93
2, 32592, Note_off_c, 0, 82, 0
2, 32592, Note_on_c, 0, 78, 93
2, 32640, Note_off_c, 0, 78, 0
2, 32640, Note_on_c, 0, 78, 93
2, 32688, Note_off_c, 0, 78, 0
2, 32688, Note_on_c, 0, 79, 93
2, 32736, Note_off_c, 0, 79, 0
2, 32736, Note_on_c, 0, 79, 93
2, 32784, Note_off_c, 0, 79, 0
2, 32784, Note_on_c, 0, 79, 93
2, 32832, Note_off_c, 0, 79, 0
2, 32832, Note_on_c, 0, 79, 93
2, 32904, Note_off_c, 0, 79, 0
2, 32904, Note_on_c, 0, 81, 93
2, 32928, Note_off_c, 0, 81, 0
2, 32928, Note_on_c, 0, 78, 93
2, 33000, Note_off_c, 0, 78, 0
2, 33000, Note_on_c, 0, 79, 93
2, 33024, Note_off_c, 0, 79, 0
2, 35328, Note_on_c, 0, 78, 93
2, 35478, Note_off_c, 0, 78, 0
2, 35478, Note_on_c, 0, 79, 93
2, 35484, Note_off_c, 0, 79, 0
2, 35484, Note_on_c, 0, 81, 93
2, 35490, Note_off_c, 0, 81, 0
2, 35490, Note_on_c, 0, 78, 93
2, 35496, Note_off_c, 0, 78, 0
2, 35496, Note_on_c, 0, 79, 93
2, 35502, Note_off_c, 0, 79, 0
2, 35502, Note_on_c, 0, 81, 93
2, 35508, Note_off_c, 0, 81, 0
2, 35508, Note_on_c, 0, 72, 93
2, 35514, Note_off_c, 0, 72, 0
2, 35514, Note_on_c, 0, 74, 93
2, 35520, Note_off_c, 0, 74, 0
2, 35520, Note_on_c, 0, 75, 93
2, 35526, Note_off_c, 0, 75, 0
2, 35526, Note_on_c, 0, 72, 93
2, 35532, Note_off_c, 0, 72, 0
2, 35532, Note_on_c, 0, 74, 93
2, 35538, Note_off_c, 0, 74, 0
2, 35538, Note_on_c, 0, 75, 93
2, 35544, Note_off_c, 0, 75, 0
2, 35544, Note_on_c, 0, 69, 93
2, 35550, Note_off_c, 0, 69, 0
2, 35550, Note_on_c, 0, 70, 93
2, 35556, Note_off_c, 0, 70, 0
2, 35556, Note_on_c, 0, 72, 93
2, 35562, Note_off_c, 0, 72, 0
2, 35562, Note_on_c, 0, 69, 93
2, 35568, Note_off_c, 0, 69, 0
2, 35568, Note_on_c, 0, 70, 93
2, 35574, Note_off_c, 0, 70, 0
2, 35574, Note_on_c, 0, 72, 93
2, 35580, Note_off_c, 0, 72, 0
2, 35580, Note_on_c, 0, 66, 93
2, 35586, Note_off_c, 0, 66, 0
2, 35586, Note_on_c, 0, 67, 93
2, 35592, Note_off_c, 0, 67, 0
2, 35592, Note_on_c, 0, 69, 93
2, 35598, Note_off_c, 0, 69, 0
2, 35598, Note_on_c, 0, 66, 93
2, 35604, Note_off_c, 0, 66, 0
2, 35604, Note_on_c, 0, 67, 93
2, 35610, Note_off_c, 0, 67, 0
2, 35610, Note_on_c, 0, 69, 93
2, 35616, Note_off_c, 0, 69, 0
2, 35616, Note_on_c, 0, 62, 93
2, 35664, Note_off_c, 0, 62, 0
2, 35664, Note_on_c, 0, 73, 93
2, 35712, Note_off_c, 0, 73, 0
2, 35712, Note_on_c, 0, 69, 93
2, 35760, Note_off_c, 0, 69, 0
2, 35904, Note_on_c, 0, 70, 93
2, 36096, Note_off_c, 0, 70, 0
2, 36096, End_track
3, 0, Start_track
3, 0, Title_t, "Track3"
3, 0, Program_c, 1, 40
3, 0, Control_c, 1, 7, 100
3, 0, Control_c, 1, 10, 59
3, 48, Note_on_c, 1, 74, 93
3, 96, Note_off_c, 1, 74, 0
3, 96, Note_on_c, 1, 74, 93
3, 144, Note_off_c, 1, 74, 0
3, 144, Note_on_c, 1, 74, 93
3, 192, Note_off_c, 1, 74, 0
3, 192, Note_on_c, 1, 74, 93
3, 240, Note_off_c, 1, 74, 0
3, 240, Note_on_c, 1, 72, 93
3, 264, Note_off_c, 1, 72, 0
3, 264, Note_on_c, 1, 70, 93
3, 288, Note_off_c, 1, 70, 0
3, 288, Note_on_c, 1, 72, 93
3, 336, Note_off_c, 1, 72, 0
3, 336, Note_on_c, 1, 69, 93
3, 384, Note_off_c, 1, 69, 0
3, 384, Note_on_c, 1, 70, 93
3, 432, Note_off_c, 1, 70, 0
3, 480, Note_on_c, 1, 75, 93
3, 528, Note_off_c, 1, 75, 0
3, 576, Note_on_c, 1, 69, 93
3, 624, Note_off_c, 1, 69, 0
3, 672, Note_on_c, 1, 74, 93
3, 720, Note_off_c, 1, 74, 0
3, 768, Note_on_c, 1, 74, 93
3, 816, Note_off_c, 1, 74, 0
3, 864, Note_on_c, 1, 72, 93
3, 912, Note_off_c, 1, 72, 0
3, 960, Note_on_c, 1, 70, 93
3, 1008, Note_off_c, 1, 70, 0
3, 1056, Note_on_c, 1, 69, 93
3, 1104, Note_off_c, 1, 69, 0
3, 1152, Note_on_c, 1, 67, 93
3, 1200, Note_off_c, 1, 67, 0
3, 1200, Note_on_c, 1, 55, 93
3, 1248, Note_off_c, 1, 55, 0
3, 1248, Note_on_c, 1, 60, 93
3, 1272, Note_off_c, 1, 60, 0
3, 1272, Note_on_c, 1, 70, 93
3, 1296, Note_off_c, 1, 70, 0
3, 1296, Note_on_c, 1, 69, 93
3, 1320, Note_off_c, 1, 69, 0
3, 1320, Note_on_c, 1, 70, 93
3, 1332, Note_off_c, 1, 70, 0
3, 1332, Note_on_c, 1, 72, 93
3, 1344, Note_off_c, 1, 72, 0
3, 1344, Note_on_c, 1, 66, 93
3, 1392, Note_off_c, 1, 66, 0
3, 1440, Note_on_c, 1, 67, 93
3, 1488, Note_off_c, 1, 67, 0
3, 1536, Note_on_c, 1, 64, 93
3, 1584, Note_off_c, 1, 64, 0
3, 1632, Note_on_c, 1, 66, 93
3, 1680, Note_off_c, 1, 66, 0
3, 1728, Note_on_c, 1, 67, 93
3, 1776, Note_off_c, 1, 67, 0
3, 1776, Note_on_c, 1, 65, 93
3, 1800, Note_off_c, 1, 65, 0
3, 1800, Note_on_c, 1, 63, 93
3, 1824, Note_off_c, 1, 63, 0
3, 1824, Note_on_c, 1, 74, 93
3, 1872, Note_off_c, 1, 74, 0
3, 1920, Note_on_c, 1, 72, 93
3, 1968, Note_off_c, 1, 72, 0
3, 2112, Note_on_c, 1, 72, 93
3, 2136, Note_off_c, 1, 72, 0
3, 2136, Note_on_c, 1, 75, 93
3, 2160, Note_off_c, 1, 75, 0
3, 2160, Note_on_c, 1, 74, 93
3, 2184, Note_off_c, 1, 74, 0
3, 2184, Note_on_c, 1, 72, 93
3, 2208, Note_off_c, 1, 72, 0
3, 2208, Note_on_c, 1, 70, 93
3, 2232, Note_off_c, 1, 70, 0
3, 2232, Note_on_c, 1, 79, 93
3, 2256, Note_off_c, 1, 79, 0
3, 2256, Note_on_c, 1, 69, 93
3, 2280, Note_off_c, 1, 69, 0
3, 2280, Note_on_c, 1, 67, 93
3, 2304, Note_off_c, 1, 67, 0
3, 2304, Note_on_c, 1, 62, 93
3, 2328, Note_off_c, 1, 62, 0
3, 2328, Note_on_c, 1, 69, 93
3, 2352, Note_off_c, 1, 69, 0
3, 2352, Note_on_c, 1, 73, 93
3, 2376, Note_off_c, 1, 73, 0
3, 2376, Note_on_c, 1, 76, 93
3, 2400, Note_off_c, 1, 76, 0
3, 2400, Note_on_c, 1, 77, 93
3, 2424, Note_off_c, 1, 77, 0
3, 2424, Note_on_c, 1, 81, 93
3, 2448, Note_off_c, 1, 81, 0
3, 2448, Note_on_c, 1, 74, 93
3, 2472, Note_off_c, 1, 74, 0
3, 2472, Note_on_c, 1, 72, 93
3, 2496, Note_off_c, 1, 72, 0
3, 2496, Note_on_c, 1, 71, 93
3, 2520, Note_off_c, 1, 71, 0
3, 2520, Note_on_c, 1, 74, 93
3, 2544, Note_off_c, 1, 74, 0
3, 2544, Note_on_c, 1, 77, 93
3, 2568, Note_off_c, 1, 77, 0
3, 2568, Note_on_c, 1, 80, 93
3, 2592, Note_off_c, 1, 80, 0
3, 2592, Note_on_c, 1, 79, 93
3, 2616, Note_off_c, 1, 79, 0
3, 2616, Note_on_c, 1, 77, 93
3, 2640, Note_off_c, 1, 77, 0
3, 2640, Note_on_c, 1, 75, 93
3, 2664, Note_off_c, 1, 75, 0
3, 2664, Note_on_c, 1, 74, 93
3, 2688, Note_off_c, 1, 74, 0
3, 2688, Note_on_c, 1, 75, 93
3, 2712, Note_off_c, 1, 75, 0
3, 2712, Note_on_c, 1, 67, 93
3, 2736, Note_off_c, 1, 67, 0
3, 2736, Note_on_c, 1, 72, 93
3, 2760, Note_off_c, 1, 72, 0
3, 2760, Note_on_c, 1, 74, 93
3, 2784, Note_off_c, 1, 74, 0
3, 2784, Note_on_c, 1, 75, 93
3, 2808, Note_off_c, 1, 75, 0
3, 2808, Note_on_c, 1, 79, 93
3, 2832, Note_off_c, 1, 79, 0
3, 2832, Note_on_c, 1, 72, 93
3, 2856, Note_off_c, 1, 72, 0
3, 2856, Note_on_c, 1, 70, 93
3, 2880, Note_off_c, 1, 70, 0
3, 2880, Note_on_c, 1, 69, 93
3, 2904, Note_off_c, 1, 69, 0
3, 2904, Note_on_c, 1, 72, 93
3, 2928, Note_off_c, 1, 72, 0
3, 2928, Note_on_c, 1, 75, 93
3, 2952, Note_off_c, 1, 75, 0
3, 2952, Note_on_c, 1, 79, 93
3, 2976, Note_off_c, 1, 79, 0
3, 2976, Note_on_c, 1, 77, 93
3, 3000, Note_off_c, 1, 77, 0
3, 3000, Note_on_c, 1, 75, 93
3, 3024, Note_off_c, 1, 75, 0
3, 3024, Note_on_c, 1, 74, 93
3, 3048, Note_off_c, 1, 74, 0
3, 3048, Note_on_c, 1, 72, 93
3, 3072, Note_off_c, 1, 72, 0
3, 3072, Note_on_c, 1, 74, 93
3, 3096, Note_off_c, 1, 74, 0
3, 3096, Note_on_c, 1, 69, 93
3, 3120, Note_off_c, 1, 69, 0
3, 3120, Note_on_c, 1, 70, 93
3, 3144, Note_off_c, 1, 70, 0
3, 3144, Note_on_c, 1, 66, 93
3, 3168, Note_off_c, 1, 66, 0
3, 3168, Note_on_c, 1, 67, 93
3, 3192, Note_off_c, 1, 67, 0
3, 3192, Note_on_c, 1, 70, 93
3, 3216, Note_off_c, 1, 70, 0
3, 3216, Note_on_c, 1, 74, 93
3, 3240, Note_off_c, 1, 74, 0
3, 3240, Note_on_c, 1, 65, 93
3, 3264, Note_off_c, 1, 65, 0
3, 3264, Note_on_c, 1, 64, 93
3, 3288, Note_off_c, 1, 64, 0
3, 3288, Note_on_c, 1, 67, 93
3, 3312, Note_off_c, 1, 67, 0
3, 3312, Note_on_c, 1, 70, 93
3, 3336, Note_off_c, 1, 70, 0
3, 3336, Note_on_c, 1, 74, 93
3, 3360, Note_off_c, 1, 74, 0
3, 3360, Note_on_c, 1, 72, 93
3, 3384, Note_off_c, 1, 72, 0
3, 3384, Note_on_c, 1, 69, 93
3, 3408, Note_off_c, 1, 69, 0
3, 3408, Note_on_c, 1, 70, 93
3, 3432, Note_off_c, 1, 70, 0
3, 3432, Note_on_c, 1, 67, 93
3, 3456, Note_off_c, 1, 67, 0
3, 3456, Note_on_c, 1, 66, 93
3, 3480, Note_off_c, 1, 66, 0
3, 3480, Note_on_c, 1, 69, 93
3, 3504, Note_off_c, 1, 69, 0
3, 3504, Note_on_c, 1, 72, 93
3, 3528, Note_off_c, 1, 72, 0
3, 3528, Note_on_c, 1, 75, 93
3, 3552, Note_off_c, 1, 75, 0
3, 3552, Note_on_c, 1, 74, 93
3, 3576, Note_off_c, 1, 74, 0
3, 3576, Note_on_c, 1, 72, 93
3, 3600, Note_off_c, 1, 72, 0
3, 3600, Note_on_c, 1, 70, 93
3, 3624, Note_off_c, 1, 70, 0
3, 3624, Note_on_c, 1, 69, 93
3, 3648, Note_off_c, 1, 69, 0
3, 3648, Note_on_c, 1, 70, 93
3, 3672, Note_off_c, 1, 70, 0
3, 3672, Note_on_c, 1, 67, 93
3, 3696, Note_off_c, 1, 67, 0
3, 3696, Note_on_c, 1, 74, 93
3, 3720, Note_off_c, 1, 74, 0
3, 3720, Note_on_c, 1, 65, 93
3, 3744, Note_off_c, 1, 65, 0
3, 3744, Note_on_c, 1, 63, 93
3, 3768, Note_off_c, 1, 63, 0
3, 3768, Note_on_c, 1, 74, 93
3, 3792, Note_off_c, 1, 74, 0
3, 3792, Note_on_c, 1, 79, 93
3, 3816, Note_off_c, 1, 79, 0
3, 3816, Note_on_c, 1, 72, 93
3, 3840, Note_off_c, 1, 72, 0
3, 3840, Note_on_c, 1, 78, 93
3, 3888, Note_off_c, 1, 78, 0
3, 3936, Note_on_c, 1, 74, 93
3, 3984, Note_off_c, 1, 74, 0
3, 3984, Note_on_c, 1, 74, 93
3, 4032, Note_off_c, 1, 74, 0
3, 4032, Note_on_c, 1, 72, 93
3, 4080, Note_off_c, 1, 72, 0
3, 4128, Note_on_c, 1, 72, 93
3, 4176, Note_off_c, 1, 72, 0
3, 4176, Note_on_c, 1, 72, 93
3, 4224, Note_off_c, 1, 72, 0
3, 4224, Note_on_c, 1, 70, 93
3, 4272, Note_off_c, 1, 70, 0
3, 4320, Note_on_c, 1, 70, 93
3, 4368, Note_off_c, 1, 70, 0
3, 4368, Note_on_c, 1, 71, 93
3, 4416, Note_off_c, 1, 71, 0
3, 4416, Note_on_c, 1, 67, 93
3, 4440, Note_off_c, 1, 67, 0
3, 4440, Note_on_c, 1, 65, 93
3, 4464, Note_off_c, 1, 65, 0
3, 4464, Note_on_c, 1, 65, 93
3, 4488, Note_off_c, 1, 65, 0
3, 4488, Note_on_c, 1, 63, 93
3, 4512, Note_off_c, 1, 63, 0
3, 4512, Note_on_c, 1, 63, 93
3, 4536, Note_off_c, 1, 63, 0
3, 4536, Note_on_c, 1, 62, 93
3, 4560, Note_off_c, 1, 62, 0
3, 4560, Note_on_c, 1, 62, 93
3, 4584, Note_off_c, 1, 62, 0
3, 4584, Note_on_c, 1, 60, 93
3, 4608, Note_off_c, 1, 60, 0
3, 4608, Note_on_c, 1, 60, 93
3, 4656, Note_off_c, 1, 60, 0
3, 4992, Note_on_c, 1, 55, 93
3, 5040, Note_off_c, 1, 55, 0
3, 5424, Note_on_c, 1, 79, 93
3, 5472, Note_off_c, 1, 79, 0
3, 5472, Note_on_c, 1, 79, 93
3, 5520, Note_off_c, 1, 79, 0
3, 5520, Note_on_c, 1, 79, 93
3, 5568, Note_off_c, 1, 79, 0
3, 5568, Note_on_c, 1, 79, 93
3, 5616, Note_off_c, 1, 79, 0
3, 5616, Note_on_c, 1, 77, 93
3, 5640, Note_off_c, 1, 77, 0
3, 5640, Note_on_c, 1, 75, 93
3, 5664, Note_off_c, 1, 75, 0
3, 5664, Note_on_c, 1, 77, 93
3, 5712, Note_off_c, 1, 77, 0
3, 5712, Note_on_c, 1, 74, 93
3, 5760, Note_off_c, 1, 74, 0
3, 5760, Note_on_c, 1, 75, 93
3, 5808, Note_off_c, 1, 75, 0
3, 5808, Note_on_c, 1, 75, 93
3, 5832, Note_off_c, 1, 75, 0
3, 5832, Note_on_c, 1, 74, 93
3, 5856, Note_off_c, 1, 74, 0
3, 5856, Note_on_c, 1, 75, 93
3, 5904, Note_off_c, 1, 75, 0
3, 5904, Note_on_c, 1, 77, 93
3, 5928, Note_off_c, 1, 77, 0
3, 5928, Note_on_c, 1, 75, 93
3, 5952, Note_off_c, 1, 75, 0
3, 5952, Note_on_c, 1, 74, 93
3, 6000, Note_off_c, 1, 74, 0
3, 6048, Note_on_c, 1, 79, 93
3, 6096, Note_off_c, 1, 79, 0
3, 6144, Note_on_c, 1, 79, 93
3, 6192, Note_off_c, 1, 79, 0
3, 6192, Note_on_c, 1, 77, 93
3, 6240, Note_off_c, 1, 77, 0
3, 6240, Note_on_c, 1, 77, 93
3, 6288, Note_off_c, 1, 77, 0
3, 6288, Note_on_c, 1, 77, 93
3, 6336, Note_off_c, 1, 77, 0
3, 6336, Note_on_c, 1, 77, 93
3, 6384, Note_off_c, 1, 77, 0
3, 6384, Note_on_c, 1, 75, 93
3, 6408, Note_off_c, 1, 75, 0
3, 6408, Note_on_c, 1, 74, 93
3, 6432, Note_off_c, 1, 74, 0
3, 6432, Note_on_c, 1, 75, 93
3, 6480, Note_off_c, 1, 75, 0
3, 6480, Note_on_c, 1, 72, 93
3, 6528, Note_off_c, 1, 72, 0
3, 6528, Note_on_c, 1, 74, 93
3, 6576, Note_off_c, 1, 74, 0
3, 6576, Note_on_c, 1, 74, 93
3, 6600, Note_off_c, 1, 74, 0
3, 6600, Note_on_c, 1, 72, 93
3, 6624, Note_off_c, 1, 72, 0
3, 6624, Note_on_c, 1, 74, 93
3, 6672, Note_off_c, 1, 74, 0
3, 6672, Note_on_c, 1, 75, 93
3, 6696, Note_off_c, 1, 75, 0
3, 6696, Note_on_c, 1, 74, 93
3, 6720, Note_off_c, 1, 74, 0
3, 6720, Note_on_c, 1, 72, 93
3, 6768, Note_off_c, 1, 72, 0
3, 6816, Note_on_c, 1, 77, 93
3, 6864, Note_off_c, 1, 77, 0
3, 6912, Note_on_c, 1, 77, 93
3, 6960, Note_off_c, 1, 77, 0
3, 6960, Note_on_c, 1, 75, 93
3, 6984, Note_off_c, 1, 75, 0
3, 6984, Note_on_c, 1, 74, 93
3, 7008, Note_off_c, 1, 74, 0
3, 7008, Note_on_c, 1, 75, 93
3, 7056, Note_off_c, 1, 75, 0
3, 7056, Note_on_c, 1, 77, 93
3, 7080, Note_off_c, 1, 77, 0
3, 7080, Note_on_c, 1, 75, 93
3, 7104, Note_off_c, 1, 75, 0
3, 7104, Note_on_c, 1, 74, 93
3, 7152, Note_off_c, 1, 74, 0
3, 7200, Note_on_c, 1, 79, 93
3, 7248, Note_off_c, 1, 79, 0
3, 7296, Note_on_c, 1, 79, 93
3, 7344, Note_off_c, 1, 79, 0
3, 7344, Note_on_c, 1, 77, 93
3, 7368, Note_off_c, 1, 77, 0
3, 7368, Note_on_c, 1, 76, 93
3, 7392, Note_off_c, 1, 76, 0
3, 7392, Note_on_c, 1, 77, 93
3, 7440, Note_off_c, 1, 77, 0
3, 7440, Note_on_c, 1, 79, 93
3, 7464, Note_off_c, 1, 79, 0
3, 7464, Note_on_c, 1, 77, 93
3, 7488, Note_off_c, 1, 77, 0
3, 7488, Note_on_c, 1, 76, 93
3, 7536, Note_off_c, 1, 76, 0
3, 7584, Note_on_c, 1, 76, 93
3, 7632, Note_off_c, 1, 76, 0
3, 7680, Note_on_c, 1, 74, 93
3, 7728, Note_off_c, 1, 74, 0
3, 7776, Note_on_c, 1, 73, 93
3, 7824, Note_off_c, 1, 73, 0
3, 7872, Note_on_c, 1, 74, 93
3, 7920, Note_off_c, 1, 74, 0
3, 7920, Note_on_c, 1, 74, 93
3, 7968, Note_off_c, 1, 74, 0
3, 7968, Note_on_c, 1, 74, 93
3, 8016, Note_off_c, 1, 74, 0
3, 8016, Note_on_c, 1, 74, 93
3, 8064, Note_off_c, 1, 74, 0
3, 8064, Note_on_c, 1, 74, 93
3, 8112, Note_off_c, 1, 74, 0
3, 8112, Note_on_c, 1, 74, 93
3, 8160, Note_off_c, 1, 74, 0
3, 8160, Note_on_c, 1, 74, 93
3, 8208, Note_off_c, 1, 74, 0
3, 8208, Note_on_c, 1, 73, 93
3, 8232, Note_off_c, 1, 73, 0
3, 8232, Note_on_c, 1, 71, 93
3, 8256, Note_off_c, 1, 71, 0
3, 8256, Note_on_c, 1, 73, 93
3, 8304, Note_off_c, 1, 73, 0
3, 8352, Note_on_c, 1, 74, 93
3, 8400, Note_off_c, 1, 74, 0
3, 8400, Note_on_c, 1, 69, 93
3, 8448, Note_off_c, 1, 69, 0
3, 8448, Note_on_c, 1, 70, 93
3, 8496, Note_off_c, 1, 70, 0
3, 9120, Note_on_c, 1, 62, 93
3, 9168, Note_off_c, 1, 62, 0
3, 9216, Note_on_c, 1, 64, 93
3, 9264, Note_off_c, 1, 64, 0
3, 9360, Note_on_c, 1, 66, 93
3, 9408, Note_off_c, 1, 66, 0
3, 9408, Note_on_c, 1, 67, 93
3, 9456, Note_off_c, 1, 67, 0
3, 9456, Note_on_c, 1, 67, 93
3, 9504, Note_off_c, 1, 67, 0
3, 9504, Note_on_c, 1, 67, 93
3, 9552, Note_off_c, 1, 67, 0
3, 9552, Note_on_c, 1, 67, 93
3, 9600, Note_off_c, 1, 67, 0
3, 9600, Note_on_c, 1, 67, 93
3, 9648, Note_off_c, 1, 67, 0
3, 9648, Note_on_c, 1, 65, 93
3, 9672, Note_off_c, 1, 65, 0
3, 9672, Note_on_c, 1, 63, 93
3, 9696, Note_off_c, 1, 63, 0
3, 9696, Note_on_c, 1, 65, 93
3, 9744, Note_off_c, 1, 65, 0
3, 9744, Note_on_c, 1, 62, 93
3, 9792, Note_off_c, 1, 62, 0
3, 9792, Note_on_c, 1, 63, 93
3, 9840, Note_off_c, 1, 63, 0
3, 9888, Note_on_c, 1, 64, 93
3, 9936, Note_off_c, 1, 64, 0
3, 9984, Note_on_c, 1, 66, 93
3, 10032, Note_off_c, 1, 66, 0
3, 10080, Note_on_c, 1, 67, 93
3, 10128, Note_off_c, 1, 67, 0
3, 10176, Note_on_c, 1, 67, 93
3, 10224, Note_off_c, 1, 67, 0
3, 10224, Note_on_c, 1, 65, 93
3, 10248, Note_off_c, 1, 65, 0
3, 10248, Note_on_c, 1, 64, 93
3, 10272, Note_off_c, 1, 64, 0
3, 10272, Note_on_c, 1, 65, 93
3, 10320, Note_off_c, 1, 65, 0
3, 10320, Note_on_c, 1, 67, 93
3, 10344, Note_off_c, 1, 67, 0
3, 10344, Note_on_c, 1, 65, 93
3, 10368, Note_off_c, 1, 65, 0
3, 10368, Note_on_c, 1, 64, 93
3, 10416, Note_off_c, 1, 64, 0
3, 10560, Note_on_c, 1, 64, 93
3, 10608, Note_off_c, 1, 64, 0
3, 10656, Note_on_c, 1, 74, 93
3, 10704, Note_off_c, 1, 74, 0
3, 10752, Note_on_c, 1, 74, 93
3, 10800, Note_off_c, 1, 74, 0
3, 10896, Note_on_c, 1, 74, 93
3, 10944, Note_off_c, 1, 74, 0
3, 10944, Note_on_c, 1, 73, 93
3, 10992, Note_off_c, 1, 73, 0
3, 11088, Note_on_c, 1, 74, 93
3, 11136, Note_off_c, 1, 74, 0
3, 11136, Note_on_c, 1, 74, 93
3, 11184, Note_off_c, 1, 74, 0
3, 11232, Note_on_c, 1, 74, 93
3, 11280, Note_off_c, 1, 74, 0
3, 11328, Note_on_c, 1, 74, 93
3, 11376, Note_off_c, 1, 74, 0
3, 11424, Note_on_c, 1, 73, 93
3, 11472, Note_off_c, 1, 73, 0
3, 11520, Note_on_c, 1, 72, 93
3, 11568, Note_off_c, 1, 72, 0
3, 11616, Note_on_c, 1, 71, 93
3, 11664, Note_off_c, 1, 71, 0
3, 11712, Note_on_c, 1, 70, 93
3, 11760, Note_off_c, 1, 70, 0
3, 11808, Note_on_c, 1, 69, 93
3, 11856, Note_off_c, 1, 69, 0
3, 12432, Note_on_c, 1, 79, 93
3, 12480, Note_off_c, 1, 79, 0
3, 12480, Note_on_c, 1, 77, 93
3, 12528, Note_off_c, 1, 77, 0
3, 12576, Note_on_c, 1, 78, 93
3, 12624, Note_off_c, 1, 78, 0
3, 12672, Note_on_c, 1, 79, 93
3, 12720, Note_off_c, 1, 79, 0
3, 12720, Note_on_c, 1, 77, 93
3, 12768, Note_off_c, 1, 77, 0
3, 12768, Note_on_c, 1, 77, 93
3, 12816, Note_off_c, 1, 77, 0
3, 12816, Note_on_c, 1, 76, 93
3, 12864, Note_off_c, 1, 76, 0
3, 12864, Note_on_c, 1, 76, 93
3, 12912, Note_off_c, 1, 76, 0
3, 12912, Note_on_c, 1, 77, 93
3, 12960, Note_off_c, 1, 77, 0
3, 12960, Note_on_c, 1, 77, 93
3, 13008, Note_off_c, 1, 77, 0
3, 13008, Note_on_c, 1, 73, 93
3, 13056, Note_off_c, 1, 73, 0
3, 13056, Note_on_c, 1, 73, 93
3, 13104, Note_off_c, 1, 73, 0
3, 13104, Note_on_c, 1, 69, 93
3, 13152, Note_off_c, 1, 69, 0
3, 13152, Note_on_c, 1, 74, 93
3, 13200, Note_off_c, 1, 74, 0
3, 13200, Note_on_c, 1, 67, 93
3, 13248, Note_off_c, 1, 67, 0
3, 13248, Note_on_c, 1, 69, 93
3, 13296, Note_off_c, 1, 69, 0
3, 13296, Note_on_c, 1, 67, 93
3, 13344, Note_off_c, 1, 67, 0
3, 13344, Note_on_c, 1, 69, 93
3, 13392, Note_off_c, 1, 69, 0
3, 13392, Note_on_c, 1, 65, 93
3, 13440, Note_off_c, 1, 65, 0
3, 13440, Note_on_c, 1, 67, 93
3, 13488, Note_off_c, 1, 67, 0
3, 13488, Note_on_c, 1, 65, 93
3, 13536, Note_off_c, 1, 65, 0
3, 13536, Note_on_c, 1, 67, 93
3, 13584, Note_off_c, 1, 67, 0
3, 13584, Note_on_c, 1, 64, 93
3, 13632, Note_off_c, 1, 64, 0
3, 13632, Note_on_c, 1, 65, 93
3, 13680, Note_off_c, 1, 65, 0
3, 13680, Note_on_c, 1, 64, 93
3, 13728, Note_off_c, 1, 64, 0
3, 13728, Note_on_c, 1, 65, 93
3, 13776, Note_off_c, 1, 65, 0
3, 13776, Note_on_c, 1, 62, 93
3, 13824, Note_off_c, 1, 62, 0
3, 13824, Note_on_c, 1, 64, 93
3, 14016, Note_off_c, 1, 64, 0
3, 14016, Note_on_c, 1, 69, 93
3, 14208, Note_off_c, 1, 69, 0
3, 14208, Note_on_c, 1, 77, 93
3, 14256, Note_off_c, 1, 77, 0
3, 14256, Note_on_c, 1, 76, 93
3, 14304, Note_off_c, 1, 76, 0
3, 14304, Note_on_c, 1, 77, 93
3, 14352, Note_off_c, 1, 77, 0
3, 14352, Note_on_c, 1, 79, 93
3, 14400, Note_off_c, 1, 79, 0
3, 14400, Note_on_c, 1, 81, 93
3, 14448, Note_off_c, 1, 81, 0
3, 14448, Note_on_c, 1, 82, 93
3, 14496, Note_off_c, 1, 82, 0
3, 14496, Note_on_c, 1, 81, 93
3, 14544, Note_off_c, 1, 81, 0
3, 14544, Note_on_c, 1, 79, 93
3, 14592, Note_off_c, 1, 79, 0
3, 14592, Note_on_c, 1, 77, 93
3, 14640, Note_off_c, 1, 77, 0
3, 14640, Note_on_c, 1, 76, 93
3, 14688, Note_off_c, 1, 76, 0
3, 14688, Note_on_c, 1, 77, 93
3, 14736, Note_off_c, 1, 77, 0
3, 14736, Note_on_c, 1, 79, 93
3, 14784, Note_off_c, 1, 79, 0
3, 14784, Note_on_c, 1, 81, 93
3, 14832, Note_off_c, 1, 81, 0
3, 14832, Note_on_c, 1, 79, 93
3, 14880, Note_off_c, 1, 79, 0
3, 14880, Note_on_c, 1, 81, 93
3, 14928, Note_off_c, 1, 81, 0
3, 14928, Note_on_c, 1, 83, 93
3, 14976, Note_off_c, 1, 83, 0
3, 14976, Note_on_c, 1, 85, 93
3, 15024, Note_off_c, 1, 85, 0
3, 15024, Note_on_c, 1, 83, 93
3, 15072, Note_off_c, 1, 83, 0
3, 15072, Note_on_c, 1, 85, 93
3, 15120, Note_off_c, 1, 85, 0
3, 15120, Note_on_c, 1, 86, 93
3, 15168, Note_off_c, 1, 86, 0
3, 15168, Note_on_c, 1, 88, 93
3, 15216, Note_off_c, 1, 88, 0
3, 15216, Note_on_c, 1, 89, 93
3, 15264, Note_off_c, 1, 89, 0
3, 15264, Note_on_c, 1, 88, 93
3, 15312, Note_off_c, 1, 88, 0
3, 15312, Note_on_c, 1, 86, 93
3, 15360, Note_off_c, 1, 86, 0
3, 15360, Note_on_c, 1, 85, 93
3, 15408, Note_off_c, 1, 85, 0
3, 15408, Note_on_c, 1, 83, 93
3, 15456, Note_off_c, 1, 83, 0
3, 15456, Note_on_c, 1, 85, 93
3, 15504, Note_off_c, 1, 85, 0
3, 15504, Note_on_c, 1, 86, 93
3, 15552, Note_off_c, 1, 86, 0
3, 15552, Note_on_c, 1, 88, 93
3, 15600, Note_off_c, 1, 88, 0
3, 15600, Note_on_c, 1, 86, 93
3, 15648, Note_off_c, 1, 86, 0
3, 15648, Note_on_c, 1, 88, 93
3, 15696, Note_off_c, 1, 88, 0
3, 15696, Note_on_c, 1, 85, 93
3, 15744, Note_off_c, 1, 85, 0
3, 15744, Note_on_c, 1, 62, 93
3, 15768, Note_off_c, 1, 62, 0
3, 15768, Note_on_c, 1, 74, 93
3, 15792, Note_off_c, 1, 74, 0
3, 15792, Note_on_c, 1, 77, 93
3, 15816, Note_off_c, 1, 77, 0
3, 15816, Note_on_c, 1, 81, 93
3, 15840, Note_off_c, 1, 81, 0
3, 15840, Note_on_c, 1, 86, 93
3, 15864, Note_off_c, 1, 86, 0
3, 15864, Note_on_c, 1, 81, 93
3, 15888, Note_off_c, 1, 81, 0
3, 15888, Note_on_c, 1, 77, 93
3, 15912, Note_off_c, 1, 77, 0
3, 15912, Note_on_c, 1, 74, 93
3, 15936, Note_off_c, 1, 74, 0
3, 15936, Note_on_c, 1, 69, 93
3, 15960, Note_off_c, 1, 69, 0
3, 15960, Note_on_c, 1, 86, 93
3, 15984, Note_off_c, 1, 86, 0
3, 15984, Note_on_c, 1, 84, 93
3, 16008, Note_off_c, 1, 84, 0
3, 16008, Note_on_c, 1, 82, 93
3, 16032, Note_off_c, 1, 82, 0
3, 16032, Note_on_c, 1, 84, 93
3, 16056, Note_off_c, 1, 84, 0
3, 16056, Note_on_c, 1, 81, 93
3, 16080, Note_off_c, 1, 81, 0
3, 16080, Note_on_c, 1, 78, 93
3, 16104, Note_off_c, 1, 78, 0
3, 16104, Note_on_c, 1, 74, 93
3, 16128, Note_off_c, 1, 74, 0
3, 16512, Note_on_c, 1, 60, 93
3, 16536, Note_off_c, 1, 60, 0
3, 16536, Note_on_c, 1, 72, 93
3, 16560, Note_off_c, 1, 72, 0
3, 16560, Note_on_c, 1, 75, 93
3, 16584, Note_off_c, 1, 75, 0
3, 16584, Note_on_c, 1, 79, 93
3, 16608, Note_off_c, 1, 79, 0
3, 16608, Note_on_c, 1, 84, 93
3, 16632, Note_off_c, 1, 84, 0
3, 16632, Note_on_c, 1, 79, 93
3, 16656, Note_off_c, 1, 79, 0
3, 16656, Note_on_c, 1, 75, 93
3, 16680, Note_off_c, 1, 75, 0
3, 16680, Note_on_c, 1, 72, 93
3, 16704, Note_off_c, 1, 72, 0
3, 16704, Note_on_c, 1, 67, 93
3, 16728, Note_off_c, 1, 67, 0
3, 16728, Note_on_c, 1, 84, 93
3, 16752, Note_off_c, 1, 84, 0
3, 16752, Note_on_c, 1, 82, 93
3, 16776, Note_off_c, 1, 82, 0
3, 16776, Note_on_c, 1, 81, 93
3, 16800, Note_off_c, 1, 81, 0
3, 16800, Note_on_c, 1, 82, 93
3, 16824, Note_off_c, 1, 82, 0
3, 16824, Note_on_c, 1, 79, 93
3, 16848, Note_off_c, 1, 79, 0
3, 16848, Note_on_c, 1, 76, 93
3, 16872, Note_off_c, 1, 76, 0
3, 16872, Note_on_c, 1, 72, 93
3, 16896, Note_off_c, 1, 72, 0
3, 17088, Note_on_c, 1, 63, 93
3, 17112, Note_off_c, 1, 63, 0
3, 17112, Note_on_c, 1, 70, 93
3, 17136, Note_off_c, 1, 70, 0
3, 17136, Note_on_c, 1, 75, 93
3, 17160, Note_off_c, 1, 75, 0
3, 17160, Note_on_c, 1, 77, 93
3, 17184, Note_off_c, 1, 77, 0
3, 17184, Note_on_c, 1, 79, 93
3, 17208, Note_off_c, 1, 79, 0
3, 17208, Note_on_c, 1, 75, 93
3, 17232, Note_off_c, 1, 75, 0
3, 17232, Note_on_c, 1, 72, 93
3, 17256, Note_off_c, 1, 72, 0
3, 17256, Note_on_c, 1, 69, 93
3, 17280, Note_off_c, 1, 69, 0
3, 17376, Note_on_c, 1, 75, 93
3, 17400, Note_off_c, 1, 75, 0
3, 17400, Note_on_c, 1, 72, 93
3, 17424, Note_off_c, 1, 72, 0
3, 17424, Note_on_c, 1, 68, 93
3, 17448, Note_off_c, 1, 68, 0
3, 17448, Note_on_c, 1, 65, 93
3, 17472, Note_off_c, 1, 65, 0
3, 17568, Note_on_c, 1, 72, 93
3, 17592, Note_off_c, 1, 72, 0
3, 17592, Note_on_c, 1, 68, 93
3, 17616, Note_off_c, 1, 68, 0
3, 17616, Note_on_c, 1, 65, 93
3, 17640, Note_off_c, 1, 65, 0
3, 17640, Note_on_c, 1, 62, 93
3, 17664, Note_off_c, 1, 62, 0
3, 17856, Note_on_c, 1, 55, 67
3, 17880, Note_off_c, 1, 55, 0
3, 17880, Note_on_c, 1, 62, 67
3, 17904, Note_off_c, 1, 62, 0
3, 17904, Note_on_c, 1, 65, 67
3, 17928, Note_off_c, 1, 65, 0
3, 17928, Note_on_c, 1, 71, 67
3, 17952, Note_off_c, 1, 71, 0
3, 17952, Note_on_c, 1, 74, 67
3, 17976, Note_off_c, 1, 74, 0
3, 17976, Note_on_c, 1, 71, 67
3, 18000, Note_off_c, 1, 71, 0
3, 18000, Note_on_c, 1, 65, 67
3, 18024, Note_off_c, 1, 65, 0
3, 18024, Note_on_c, 1, 62, 67
3, 18048, Note_off_c, 1, 62, 0
3, 18240, Note_on_c, 1, 55, 67
3, 18264, Note_off_c, 1, 55, 0
3, 18264, Note_on_c, 1, 60, 67
3, 18288, Note_off_c, 1, 60, 0
3, 18288, Note_on_c, 1, 63, 67
3, 18312, Note_off_c, 1, 63, 0
3, 18312, Note_on_c, 1, 67, 67
3, 18336, Note_off_c, 1, 67, 0
3, 18336, Note_on_c, 1, 72, 67
3, 18360, Note_off_c, 1, 72, 0
3, 18360, Note_on_c, 1, 67, 67
3, 18384, Note_off_c, 1, 67, 0
3, 18384, Note_on_c, 1, 63, 67
3, 18408, Note_off_c, 1, 63, 0
3, 18408, Note_on_c, 1, 60, 67
3, 18432, Note_off_c, 1, 60, 0
3, 18624, Note_on_c, 1, 56, 67
3, 18648, Note_off_c, 1, 56, 0
3, 18648, Note_on_c, 1, 60, 67
3, 18672, Note_off_c, 1, 60, 0
3, 18672, Note_on_c, 1, 63, 67
3, 18696, Note_off_c, 1, 63, 0
3, 18696, Note_on_c, 1, 67, 67
3, 18720, Note_off_c, 1, 67, 0
3, 18720, Note_on_c, 1, 72, 67
3, 18744, Note_off_c, 1, 72, 0
3, 18744, Note_on_c, 1, 67, 67
3, 18768, Note_off_c, 1, 67, 0
3, 18768, Note_on_c, 1, 63, 67
3, 18792, Note_off_c, 1, 63, 0
3, 18792, Note_on_c, 1, 60, 67
3, 18816, Note_off_c, 1, 60, 0
3, 19008, Note_on_c, 1, 57, 67
3, 19032, Note_off_c, 1, 57, 0
3, 19032, Note_on_c, 1, 62, 67
3, 19056, Note_off_c, 1, 62, 0
3, 19056, Note_on_c, 1, 66, 67
3, 19080, Note_off_c, 1, 66, 0
3, 19080, Note_on_c, 1, 69, 67
3, 19104, Note_off_c, 1, 69, 0
3, 19104, Note_on_c, 1, 72, 67
3, 19128, Note_off_c, 1, 72, 0
3, 19128, Note_on_c, 1, 69, 67
3, 19152, Note_off_c, 1, 69, 0
3, 19152, Note_on_c, 1, 66, 67
3, 19176, Note_off_c, 1, 66, 0
3, 19176, Note_on_c, 1, 62, 67
3, 19200, Note_off_c, 1, 62, 0
3, 19584, Note_on_c, 1, 62, 93
3, 19632, Note_off_c, 1, 62, 0
3, 19632, Note_on_c, 1, 67, 93
3, 19680, Note_off_c, 1, 67, 0
3, 19680, Note_on_c, 1, 67, 93
3, 19728, Note_off_c, 1, 67, 0
3, 19728, Note_on_c, 1, 67, 93
3, 19776, Note_off_c, 1, 67, 0
3, 19776, Note_on_c, 1, 67, 93
3, 19824, Note_off_c, 1, 67, 0
3, 19824, Note_on_c, 1, 65, 93
3, 19848, Note_off_c, 1, 65, 0
3, 19848, Note_on_c, 1, 63, 93
3, 19872, Note_off_c, 1, 63, 0
3, 19872, Note_on_c, 1, 65, 93
3, 19920, Note_off_c, 1, 65, 0
3, 19920, Note_on_c, 1, 62, 93
3, 19968, Note_off_c, 1, 62, 0
3, 19968, Note_on_c, 1, 63, 93
3, 19992, Note_off_c, 1, 63, 0
3, 19992, Note_on_c, 1, 74, 93
3, 20016, Note_off_c, 1, 74, 0
3, 20016, Note_on_c, 1, 79, 93
3, 20040, Note_off_c, 1, 79, 0
3, 20040, Note_on_c, 1, 71, 93
3, 20064, Note_off_c, 1, 71, 0
3, 20112, Note_on_c, 1, 63, 93
3, 20160, Note_off_c, 1, 63, 0
3, 20160, Note_on_c, 1, 62, 93
3, 20208, Note_off_c, 1, 62, 0
3, 20256, Note_on_c, 1, 67, 93
3, 20304, Note_off_c, 1, 67, 0
3, 20352, Note_on_c, 1, 60, 93
3, 20400, Note_off_c, 1, 60, 0
3, 20448, Note_on_c, 1, 56, 93
3, 20496, Note_off_c, 1, 56, 0
3, 20544, Note_on_c, 1, 57, 93
3, 20592, Note_off_c, 1, 57, 0
3, 20640, Note_on_c, 1, 55, 93
3, 20688, Note_off_c, 1, 55, 0
3, 20736, Note_on_c, 1, 60, 93
3, 20784, Note_off_c, 1, 60, 0
3, 21552, Note_on_c, 1, 77, 93
3, 21600, Note_off_c, 1, 77, 0
3, 21600, Note_on_c, 1, 77, 93
3, 21648, Note_off_c, 1, 77, 0
3, 21648, Note_on_c, 1, 77, 93
3, 21696, Note_off_c, 1, 77, 0
3, 21696, Note_on_c, 1, 77, 93
3, 21744, Note_off_c, 1, 77, 0
3, 21744, Note_on_c, 1, 75, 93
3, 21768, Note_off_c, 1, 75, 0
3, 21768, Note_on_c, 1, 74, 93
3, 21792, Note_off_c, 1, 74, 0
3, 21792, Note_on_c, 1, 75, 93
3, 21840, Note_off_c, 1, 75, 0
3, 21840, Note_on_c, 1, 72, 93
3, 21864, Note_off_c, 1, 72, 0
3, 21864, Note_on_c, 1, 74, 93
3, 21876, Note_off_c, 1, 74, 0
3, 21876, Note_on_c, 1, 75, 93
3, 21888, Note_off_c, 1, 75, 0
3, 21888, Note_on_c, 1, 74, 93
3, 21936, Note_off_c, 1, 74, 0
3, 21936, Note_on_c, 1, 82, 93
3, 21984, Note_off_c, 1, 82, 0
3, 21984, Note_on_c, 1, 82, 93
3, 22032, Note_off_c, 1, 82, 0
3, 22032, Note_on_c, 1, 82, 93
3, 22080, Note_off_c, 1, 82, 0
3, 22080, Note_on_c, 1, 82, 93
3, 22128, Note_off_c, 1, 82, 0
3, 22128, Note_on_c, 1, 81, 93
3, 22152, Note_off_c, 1, 81, 0
3, 22152, Note_on_c, 1, 79, 93
3, 22176, Note_off_c, 1, 79, 0
3, 22176, Note_on_c, 1, 81, 93
3, 22224, Note_off_c, 1, 81, 0
3, 22224, Note_on_c, 1, 83, 93
3, 22272, Note_off_c, 1, 83, 0
3, 22272, Note_on_c, 1, 84, 93
3, 22320, Note_off_c, 1, 84, 0
3, 22320, Note_on_c, 1, 84, 93
3, 22368, Note_off_c, 1, 84, 0
3, 22368, Note_on_c, 1, 84, 93
3, 22416, Note_off_c, 1, 84, 0
3, 22416, Note_on_c, 1, 84, 93
3, 22464, Note_off_c, 1, 84, 0
3, 22464, Note_on_c, 1, 84, 93
3, 22512, Note_off_c, 1, 84, 0
3, 22512, Note_on_c, 1, 82, 93
3, 22536, Note_off_c, 1, 82, 0
3, 22536, Note_on_c, 1, 81, 93
3, 22560, Note_off_c, 1, 81, 0
3, 22560, Note_on_c, 1, 82, 93
3, 22608, Note_off_c, 1, 82, 0
3, 22608, Note_on_c, 1, 84, 93
3, 22632, Note_off_c, 1, 84, 0
3, 22632, Note_on_c, 1, 79, 93
3, 22656, Note_off_c, 1, 79, 0
3, 22656, Note_on_c, 1, 81, 93
3, 22704, Note_off_c, 1, 81, 0
3, 22704, Note_on_c, 1, 82, 93
3, 22728, Note_off_c, 1, 82, 0
3, 22728, Note_on_c, 1, 77, 93
3, 22752, Note_off_c, 1, 77, 0
3, 22752, Note_on_c, 1, 79, 93
3, 22800, Note_off_c, 1, 79, 0
3, 22800, Note_on_c, 1, 81, 93
3, 22824, Note_off_c, 1, 81, 0
3, 22824, Note_on_c, 1, 79, 93
3, 22848, Note_off_c, 1, 79, 0
3, 22848, Note_on_c, 1, 77, 93
3, 22896, Note_off_c, 1, 77, 0
3, 22896, Note_on_c, 1, 79, 93
3, 22920, Note_off_c, 1, 79, 0
3, 22920, Note_on_c, 1, 74, 93
3, 22944, Note_off_c, 1, 74, 0
3, 22944, Note_on_c, 1, 75, 93
3, 22968, Note_off_c, 1, 75, 0
3, 22968, Note_on_c, 1, 72, 93
3, 22992, Note_off_c, 1, 72, 0
3, 22992, Note_on_c, 1, 69, 93
3, 23016, Note_off_c, 1, 69, 0
3, 23016, Note_on_c, 1, 65, 93
3, 23040, Note_off_c, 1, 65, 0
3, 23040, Note_on_c, 1, 58, 93
3, 23088, Note_off_c, 1, 58, 0
3, 23088, Note_on_c, 1, 58, 93
3, 23136, Note_off_c, 1, 58, 0
3, 23136, Note_on_c, 1, 58, 93
3, 23184, Note_off_c, 1, 58, 0
3, 23184, Note_on_c, 1, 57, 93
3, 23232, Note_off_c, 1, 57, 0
3, 23232, Note_on_c, 1, 55, 93
3, 23280, Note_off_c, 1, 55, 0
3, 23328, Note_on_c, 1, 57, 93
3, 23376, Note_off_c, 1, 57, 0
3, 23376, Note_on_c, 1, 58, 93
3, 23424, Note_off_c, 1, 58, 0
3, 23424, Note_on_c, 1, 60, 93
3, 23472, Note_off_c, 1, 60, 0
3, 23472, Note_on_c, 1, 62, 93
3, 23520, Note_off_c, 1, 62, 0
3, 23520, Note_on_c, 1, 62, 93
3, 23568, Note_off_c, 1, 62, 0
3, 23568, Note_on_c, 1, 62, 93
3, 23616, Note_off_c, 1, 62, 0
3, 23616, Note_on_c, 1, 62, 93
3, 23664, Note_off_c, 1, 62, 0
3, 23712, Note_on_c, 1, 65, 93
3, 23760, Note_off_c, 1, 65, 0
3, 23760, Note_on_c, 1, 65, 93
3, 23808, Note_off_c, 1, 65, 0
3, 24192, Note_on_c, 1, 58, 93
3, 24216, Note_off_c, 1, 58, 0
3, 24216, Note_on_c, 1, 74, 93
3, 24240, Note_off_c, 1, 74, 0
3, 24240, Note_on_c, 1, 72, 93
3, 24264, Note_off_c, 1, 72, 0
3, 24264, Note_on_c, 1, 74, 93
3, 24288, Note_off_c, 1, 74, 0
3, 24288, Note_on_c, 1, 70, 93
3, 24312, Note_off_c, 1, 70, 0
3, 24312, Note_on_c, 1, 74, 93
3, 24336, Note_off_c, 1, 74, 0
3, 24336, Note_on_c, 1, 69, 93
3, 24360, Note_off_c, 1, 69, 0
3, 24360, Note_on_c, 1, 74, 93
3, 24384, Note_off_c, 1, 74, 0
3, 24384, Note_on_c, 1, 67, 93
3, 24408, Note_off_c, 1, 67, 0
3, 24408, Note_on_c, 1, 74, 93
3, 24432, Note_off_c, 1, 74, 0
3, 24432, Note_on_c, 1, 65, 93
3, 24456, Note_off_c, 1, 65, 0
3, 24456, Note_on_c, 1, 74, 93
3, 24480, Note_off_c, 1, 74, 0
3, 24480, Note_on_c, 1, 63, 93
3, 24504, Note_off_c, 1, 63, 0
3, 24504, Note_on_c, 1, 74, 93
3, 24528, Note_off_c, 1, 74, 0
3, 24528, Note_on_c, 1, 62, 93
3, 24552, Note_off_c, 1, 62, 0
3, 24552, Note_on_c, 1, 74, 93
3, 24576, Note_off_c, 1, 74, 0
3, 24960, Note_on_c, 1, 62, 93
3, 24984, Note_off_c, 1, 62, 0
3, 24984, Note_on_c, 1, 72, 93
3, 25008, Note_off_c, 1, 72, 0
3, 25008, Note_on_c, 1, 81, 93
3, 25032, Note_off_c, 1, 81, 0
3, 25032, Note_on_c, 1, 72, 93
3, 25056, Note_off_c, 1, 72, 0
3, 25056, Note_on_c, 1, 70, 93
3, 25080, Note_off_c, 1, 70, 0
3, 25080, Note_on_c, 1, 69, 93
3, 25104, Note_off_c, 1, 69, 0
3, 25104, Note_on_c, 1, 70, 93
3, 25128, Note_off_c, 1, 70, 0
3, 25128, Note_on_c, 1, 67, 93
3, 25152, Note_off_c, 1, 67, 0
3, 25152, Note_on_c, 1, 69, 93
3, 25176, Note_off_c, 1, 69, 0
3, 25176, Note_on_c, 1, 62, 93
3, 25200, Note_off_c, 1, 62, 0
3, 25200, Note_on_c, 1, 77, 93
3, 25224, Note_off_c, 1, 77, 0
3, 25224, Note_on_c, 1, 68, 93
3, 25248, Note_off_c, 1, 68, 0
3, 25248, Note_on_c, 1, 67, 93
3, 25272, Note_off_c, 1, 67, 0
3, 25272, Note_on_c, 1, 65, 93
3, 25296, Note_off_c, 1, 65, 0
3, 25296, Note_on_c, 1, 67, 93
3, 25320, Note_off_c, 1, 67, 0
3, 25320, Note_on_c, 1, 63, 93
3, 25344, Note_off_c, 1, 63, 0
3, 26112, Note_on_c, 1, 62, 93
3, 26136, Note_off_c, 1, 62, 0
3, 26136, Note_on_c, 1, 72, 93
3, 26160, Note_off_c, 1, 72, 0
3, 26160, Note_on_c, 1, 78, 93
3, 26184, Note_off_c, 1, 78, 0
3, 26184, Note_on_c, 1, 72, 93
3, 26208, Note_off_c, 1, 72, 0
3, 26208, Note_on_c, 1, 78, 93
3, 26232, Note_off_c, 1, 78, 0
3, 26232, Note_on_c, 1, 72, 93
3, 26256, Note_off_c, 1, 72, 0
3, 26256, Note_on_c, 1, 81, 93
3, 26280, Note_off_c, 1, 81, 0
3, 26280, Note_on_c, 1, 72, 93
3, 26304, Note_off_c, 1, 72, 0
3, 26496, Note_on_c, 1, 62, 93
3, 26520, Note_off_c, 1, 62, 0
3, 26520, Note_on_c, 1, 70, 93
3, 26544, Note_off_c, 1, 70, 0
3, 26544, Note_on_c, 1, 74, 93
3, 26568, Note_off_c, 1, 74, 0
3, 26568, Note_on_c, 1, 70, 93
3, 26592, Note_off_c, 1, 70, 0
3, 26592, Note_on_c, 1, 74, 93
3, 26616, Note_off_c, 1, 74, 0
3, 26616, Note_on_c, 1, 70, 93
3, 26640, Note_off_c, 1, 70, 0
3, 26640, Note_on_c, 1, 79, 93
3, 26664, Note_off_c, 1, 79, 0
3, 26664, Note_on_c, 1, 70, 93
3, 26688, Note_off_c, 1, 70, 0
3, 26880, Note_on_c, 1, 62, 93
3, 26904, Note_off_c, 1, 62, 0
3, 26904, Note_on_c, 1, 69, 93
3, 26928, Note_off_c, 1, 69, 0
3, 26928, Note_on_c, 1, 78, 93
3, 26952, Note_off_c, 1, 78, 0
3, 26952, Note_on_c, 1, 74, 93
3, 26976, Note_off_c, 1, 74, 0
3, 26976, Note_on_c, 1, 78, 93
3, 27000, Note_off_c, 1, 78, 0
3, 27000, Note_on_c, 1, 74, 93
3, 27024, Note_off_c, 1, 74, 0
3, 27024, Note_on_c, 1, 84, 93
3, 27048, Note_off_c, 1, 84, 0
3, 27048, Note_on_c, 1, 74, 93
3, 27072, Note_off_c, 1, 74, 0
3, 27264, Note_on_c, 1, 62, 93
3, 27288, Note_off_c, 1, 62, 0
3, 27288, Note_on_c, 1, 74, 93
3, 27312, Note_off_c, 1, 74, 0
3, 27312, Note_on_c, 1, 79, 93
3, 27336, Note_off_c, 1, 79, 0
3, 27336, Note_on_c, 1, 74, 93
3, 27360, Note_off_c, 1, 74, 0
3, 27360, Note_on_c, 1, 79, 93
3, 27384, Note_off_c, 1, 79, 0
3, 27384, Note_on_c, 1, 74, 93
3, 27408, Note_off_c, 1, 74, 0
3, 27408, Note_on_c, 1, 82, 93
3, 27432, Note_off_c, 1, 82, 0
3, 27432, Note_on_c, 1, 74, 93
3, 27456, Note_off_c, 1, 74, 0
3, 27648, Note_on_c, 1, 62, 93
3, 27672, Note_off_c, 1, 62, 0
3, 27672, Note_on_c, 1, 73, 93
3, 27696, Note_off_c, 1, 73, 0
3, 27696, Note_on_c, 1, 76, 93
3, 27720, Note_off_c, 1, 76, 0
3, 27720, Note_on_c, 1, 73, 93
3, 27744, Note_off_c, 1, 73, 0
3, 27744, Note_on_c, 1, 76, 93
3, 27768, Note_off_c, 1, 76, 0
3, 27768, Note_on_c, 1, 73, 93
3, 27792, Note_off_c, 1, 73, 0
3, 27792, Note_on_c, 1, 82, 93
3, 27816, Note_off_c, 1, 82, 0
3, 27816, Note_on_c, 1, 73, 93
3, 27840, Note_off_c, 1, 73, 0
3, 28008, Note_on_c, 1, 79, 93
3, 28032, Note_off_c, 1, 79, 0
3, 28032, Note_on_c, 1, 79, 93
3, 28056, Note_off_c, 1, 79, 0
3, 28056, Note_on_c, 1, 78, 93
3, 28080, Note_off_c, 1, 78, 0
3, 28080, Note_on_c, 1, 76, 93
3, 28104, Note_off_c, 1, 76, 0
3, 28104, Note_on_c, 1, 74, 93
3, 28128, Note_off_c, 1, 74, 0
3, 28128, Note_on_c, 1, 86, 93
3, 28176, Note_off_c, 1, 86, 0
3, 28176, Note_on_c, 1, 86, 93
3, 28224, Note_off_c, 1, 86, 0
3, 28224, Note_on_c, 1, 86, 93
3, 28272, Note_off_c, 1, 86, 0
3, 28272, Note_on_c, 1, 84, 93
3, 28296, Note_off_c, 1, 84, 0
3, 28296, Note_on_c, 1, 82, 93
3, 28320, Note_off_c, 1, 82, 0
3, 28320, Note_on_c, 1, 84, 93
3, 28368, Note_off_c, 1, 84, 0
3, 28368, Note_on_c, 1, 84, 93
3, 28416, Note_off_c, 1, 84, 0
3, 28416, Note_on_c, 1, 84, 93
3, 28464, Note_off_c, 1, 84, 0
3, 28464, Note_on_c, 1, 82, 93
3, 28488, Note_off_c, 1, 82, 0
3, 28488, Note_on_c, 1, 81, 93
3, 28512, Note_off_c, 1, 81, 0
3, 28512, Note_on_c, 1, 82, 93
3, 28560, Note_off_c, 1, 82, 0
3, 28560, Note_on_c, 1, 82, 93
3, 28608, Note_off_c, 1, 82, 0
3, 28608, Note_on_c, 1, 82, 93
3, 28656, Note_off_c, 1, 82, 0
3, 28656, Note_on_c, 1, 81, 93
3, 28704, Note_off_c, 1, 81, 0
3, 28704, Note_on_c, 1, 81, 93
3, 28752, Note_off_c, 1, 81, 0
3, 28752, Note_on_c, 1, 79, 93
3, 28800, Note_off_c, 1, 79, 0
3, 28800, Note_on_c, 1, 78, 93
3, 28848, Note_off_c, 1, 78, 0
3, 28848, Note_on_c, 1, 79, 93
3, 28896, Note_off_c, 1, 79, 0
3, 28896, Note_on_c, 1, 79, 93
3, 28944, Note_off_c, 1, 79, 0
3, 28944, Note_on_c, 1, 76, 93
3, 28992, Note_off_c, 1, 76, 0
3, 28992, Note_on_c, 1, 76, 93
3, 29040, Note_off_c, 1, 76, 0
3, 29040, Note_on_c, 1, 77, 93
3, 29088, Note_off_c, 1, 77, 0
3, 29088, Note_on_c, 1, 77, 93
3, 29136, Note_off_c, 1, 77, 0
3, 29136, Note_on_c, 1, 74, 93
3, 29184, Note_off_c, 1, 74, 0
3, 29184, Note_on_c, 1, 74, 93
3, 29232, Note_off_c, 1, 74, 0
3, 29232, Note_on_c, 1, 75, 93
3, 29256, Note_off_c, 1, 75, 0
3, 29256, Note_on_c, 1, 74, 93
3, 29280, Note_off_c, 1, 74, 0
3, 29280, Note_on_c, 1, 75, 93
3, 29304, Note_off_c, 1, 75, 0
3, 29304, Note_on_c, 1, 79, 93
3, 29328, Note_off_c, 1, 79, 0
3, 29328, Note_on_c, 1, 82, 93
3, 29352, Note_off_c, 1, 82, 0
3, 29352, Note_on_c, 1, 74, 93
3, 29376, Note_off_c, 1, 74, 0
3, 29376, Note_on_c, 1, 73, 93
3, 29400, Note_off_c, 1, 73, 0
3, 29400, Note_on_c, 1, 76, 93
3, 29424, Note_off_c, 1, 76, 0
3, 29424, Note_on_c, 1, 81, 93
3, 29448, Note_off_c, 1, 81, 0
3, 29448, Note_on_c, 1, 73, 93
3, 29472, Note_off_c, 1, 73, 0
3, 29472, Note_on_c, 1, 74, 93
3, 29496, Note_off_c, 1, 74, 0
3, 29496, Note_on_c, 1, 77, 93
3, 29520, Note_off_c, 1, 77, 0
3, 29520, Note_on_c, 1, 81, 93
3, 29544, Note_off_c, 1, 81, 0
3, 29544, Note_on_c, 1, 72, 93
3, 29568, Note_off_c, 1, 72, 0
3, 29568, Note_on_c, 1, 71, 93
3, 29592, Note_off_c, 1, 71, 0
3, 29592, Note_on_c, 1, 80, 93
3, 29616, Note_off_c, 1, 80, 0
3, 29616, Note_on_c, 1, 79, 93
3, 29640, Note_off_c, 1, 79, 0
3, 29640, Note_on_c, 1, 77, 93
3, 29664, Note_off_c, 1, 77, 0
3, 29664, Note_on_c, 1, 79, 93
3, 29688, Note_off_c, 1, 79, 0
3, 29688, Note_on_c, 1, 74, 93
3, 29712, Note_off_c, 1, 74, 0
3, 29712, Note_on_c, 1, 75, 93
3, 29736, Note_off_c, 1, 75, 0
3, 29736, Note_on_c, 1, 71, 93
3, 29760, Note_off_c, 1, 71, 0
3, 29760, Note_on_c, 1, 72, 93
3, 29784, Note_off_c, 1, 72, 0
3, 29784, Note_on_c, 1, 80, 93
3, 29808, Note_off_c, 1, 80, 0
3, 29808, Note_on_c, 1, 79, 93
3, 29832, Note_off_c, 1, 79, 0
3, 29832, Note_on_c, 1, 77, 93
3, 29856, Note_off_c, 1, 77, 0
3, 29856, Note_on_c, 1, 79, 93
3, 29880, Note_off_c, 1, 79, 0
3, 29880, Note_on_c, 1, 74, 93
3, 29904, Note_off_c, 1, 74, 0
3, 29904, Note_on_c, 1, 75, 93
3, 29928, Note_off_c, 1, 75, 0
3, 29928, Note_on_c, 1, 72, 93
3, 29952, Note_off_c, 1, 72, 0
3, 29952, Note_on_c, 1, 66, 93
3, 29976, Note_off_c, 1, 66, 0
3, 29976, Note_on_c, 1, 69, 93
3, 30000, Note_off_c, 1, 69, 0
3, 30000, Note_on_c, 1, 72, 93
3, 30024, Note_off_c, 1, 72, 0
3, 30024, Note_on_c, 1, 75, 93
3, 30048, Note_off_c, 1, 75, 0
3, 30048, Note_on_c, 1, 74, 93
3, 30072, Note_off_c, 1, 74, 0
3, 30072, Note_on_c, 1, 72, 93
3, 30096, Note_off_c, 1, 72, 0
3, 30096, Note_on_c, 1, 81, 93
3, 30120, Note_off_c, 1, 81, 0
3, 30120, Note_on_c, 1, 72, 93
3, 30144, Note_off_c, 1, 72, 0
3, 30144, Note_on_c, 1, 74, 93
3, 30168, Note_off_c, 1, 74, 0
3, 30168, Note_on_c, 1, 75, 93
3, 30192, Note_off_c, 1, 75, 0
3, 30192, Note_on_c, 1, 69, 93
3, 30216, Note_off_c, 1, 69, 0
3, 30216, Note_on_c, 1, 70, 93
3, 30240, Note_off_c, 1, 70, 0
3, 30240, Note_on_c, 1, 72, 93
3, 30264, Note_off_c, 1, 72, 0
3, 30264, Note_on_c, 1, 66, 93
3, 30288, Note_off_c, 1, 66, 0
3, 30288, Note_on_c, 1, 67, 93
3, 30312, Note_off_c, 1, 67, 0
3, 30312, Note_on_c, 1, 69, 93
3, 30336, Note_off_c, 1, 69, 0
3, 30432, Note_on_c, 1, 65, 93
3, 30480, Note_off_c, 1, 65, 0
3, 30528, Note_on_c, 1, 63, 93
3, 30576, Note_off_c, 1, 63, 0
3, 30576, Note_on_c, 1, 63, 93
3, 30600, Note_off_c, 1, 63, 0
3, 30600, Note_on_c, 1, 62, 93
3, 30624, Note_off_c, 1, 62, 0
3, 30624, Note_on_c, 1, 63, 93
3, 30672, Note_off_c, 1, 63, 0
3, 30720, Note_on_c, 1, 66, 93
3, 30768, Note_off_c, 1, 66, 0
3, 30768, Note_on_c, 1, 69, 93
3, 30792, Note_off_c, 1, 69, 0
3, 30792, Note_on_c, 1, 67, 93
3, 30816, Note_off_c, 1, 67, 0
3, 30816, Note_on_c, 1, 69, 93
3, 30864, Note_off_c, 1, 69, 0
3, 30912, Note_on_c, 1, 69, 93
3, 30960, Note_off_c, 1, 69, 0
3, 30960, Note_on_c, 1, 67, 93
3, 30984, Note_off_c, 1, 67, 0
3, 30984, Note_on_c, 1, 66, 93
3, 31008, Note_off_c, 1, 66, 0
3, 31008, Note_on_c, 1, 67, 93
3, 31056, Note_off_c, 1, 67, 0
3, 31104, Note_on_c, 1, 73, 93
3, 31176, Note_off_c, 1, 73, 0
3, 31296, Note_on_c, 1, 72, 93
3, 31344, Note_off_c, 1, 72, 0
3, 31344, Note_on_c, 1, 70, 93
3, 31392, Note_off_c, 1, 70, 0
3, 31392, Note_on_c, 1, 70, 93
3, 31440, Note_off_c, 1, 70, 0
3, 31440, Note_on_c, 1, 70, 93
3, 31488, Note_off_c, 1, 70, 0
3, 31488, Note_on_c, 1, 69, 93
3, 31536, Note_off_c, 1, 69, 0
3, 31584, Note_on_c, 1, 69, 93
3, 31632, Note_off_c, 1, 69, 0
3, 31680, Note_on_c, 1, 74, 93
3, 31728, Note_off_c, 1, 74, 0
3, 32784, Note_on_c, 1, 64, 93
3, 32832, Note_off_c, 1, 64, 0
3, 33024, Note_on_c, 1, 55, 93
3, 33048, Note_off_c, 1, 55, 0
3, 33048, Note_on_c, 1, 67, 93
3, 33072, Note_off_c, 1, 67, 0
3, 33072, Note_on_c, 1, 70, 93
3, 33096, Note_off_c, 1, 70, 0
3, 33096, Note_on_c, 1, 74, 93
3, 33120, Note_off_c, 1, 74, 0
3, 33120, Note_on_c, 1, 79, 93
3, 33144, Note_off_c, 1, 79, 0
3, 33144, Note_on_c, 1, 74, 93
3, 33168, Note_off_c, 1, 74, 0
3, 33168, Note_on_c, 1, 70, 93
3, 33192, Note_off_c, 1, 70, 0
3, 33192, Note_on_c, 1, 67, 93
3, 33216, Note_off_c, 1, 67, 0
3, 33216, Note_on_c, 1, 69, 93
3, 33240, Note_off_c, 1, 69, 0
3, 33240, Note_on_c, 1, 79, 93
3, 33264, Note_off_c, 1, 79, 0
3, 33264, Note_on_c, 1, 77, 93
3, 33288, Note_off_c, 1, 77, 0
3, 33288, Note_on_c, 1, 75, 93
3, 33312, Note_off_c, 1, 75, 0
3, 33312, Note_on_c, 1, 77, 93
3, 33336, Note_off_c, 1, 77, 0
3, 33336, Note_on_c, 1, 74, 93
3, 33360, Note_off_c, 1, 74, 0
3, 33360, Note_on_c, 1, 71, 93
3, 33384, Note_off_c, 1, 71, 0
3, 33384, Note_on_c, 1, 67, 93
3, 33408, Note_off_c, 1, 67, 0
3, 33792, Note_on_c, 1, 55, 93
3, 33816, Note_off_c, 1, 55, 0
3, 33816, Note_on_c, 1, 63, 93
3, 33840, Note_off_c, 1, 63, 0
3, 33840, Note_on_c, 1, 67, 93
3, 33864, Note_off_c, 1, 67, 0
3, 33864, Note_on_c, 1, 71, 93
3, 33888, Note_off_c, 1, 71, 0
3, 33888, Note_on_c, 1, 72, 93
3, 33912, Note_off_c, 1, 72, 0
3, 33912, Note_on_c, 1, 75, 93
3, 33936, Note_off_c, 1, 75, 0
3, 33936, Note_on_c, 1, 68, 93
3, 33960, Note_off_c, 1, 68, 0
3, 33960, Note_on_c, 1, 67, 93
3, 33984, Note_off_c, 1, 67, 0
3, 34176, Note_on_c, 1, 58, 93
3, 34200, Note_off_c, 1, 58, 0
3, 34200, Note_on_c, 1, 62, 93
3, 34224, Note_off_c, 1, 62, 0
3, 34224, Note_on_c, 1, 67, 93
3, 34248, Note_off_c, 1, 67, 0
3, 34248, Note_on_c, 1, 70, 93
3, 34272, Note_off_c, 1, 70, 0
3, 34272, Note_on_c, 1, 74, 93
3, 34296, Note_off_c, 1, 74, 0
3, 34296, Note_on_c, 1, 78, 93
3, 34320, Note_off_c, 1, 78, 0
3, 34320, Note_on_c, 1, 79, 93
3, 34344, Note_off_c, 1, 79, 0
3, 34344, Note_on_c, 1, 82, 93
3, 34368, Note_off_c, 1, 82, 0
3, 34560, Note_on_c, 1, 62, 93
3, 34584, Note_off_c, 1, 62, 0
3, 34584, Note_on_c, 1, 84, 93
3, 34608, Note_off_c, 1, 84, 0
3, 34608, Note_on_c, 1, 82, 93
3, 34632, Note_off_c, 1, 82, 0
3, 34632, Note_on_c, 1, 74, 93
3, 34656, Note_off_c, 1, 74, 0
3, 34656, Note_on_c, 1, 73, 93
3, 34680, Note_off_c, 1, 73, 0
3, 34680, Note_on_c, 1, 82, 93
3, 34704, Note_off_c, 1, 82, 0
3, 34704, Note_on_c, 1, 81, 93
3, 34728, Note_off_c, 1, 81, 0
3, 34728, Note_on_c, 1, 72, 93
3, 34752, Note_off_c, 1, 72, 0
3, 34752, Note_on_c, 1, 71, 93
3, 34776, Note_off_c, 1, 71, 0
3, 34776, Note_on_c, 1, 81, 93
3, 34800, Note_off_c, 1, 81, 0
3, 34800, Note_on_c, 1, 79, 93
3, 34824, Note_off_c, 1, 79, 0
3, 34824, Note_on_c, 1, 70, 93
3, 34848, Note_off_c, 1, 70, 0
3, 34848, Note_on_c, 1, 69, 93
3, 34872, Note_off_c, 1, 69, 0
3, 34872, Note_on_c, 1, 79, 93
3, 34896, Note_off_c, 1, 79, 0
3, 34896, Note_on_c, 1, 77, 93
3, 34920, Note_off_c, 1, 77, 0
3, 34920, Note_on_c, 1, 68, 93
3, 34944, Note_off_c, 1, 68, 0
3, 34944, Note_on_c, 1, 67, 93
3, 34968, Note_off_c, 1, 67, 0
3, 34968, Note_on_c, 1, 77, 93
3, 34992, Note_off_c, 1, 77, 0
3, 34992, Note_on_c, 1, 75, 93
3, 35016, Note_off_c, 1, 75, 0
3, 35016, Note_on_c, 1, 67, 93
3, 35040, Note_off_c, 1, 67, 0
3, 35040, Note_on_c, 1, 66, 93
3, 35064, Note_off_c, 1, 66, 0
3, 35064, Note_on_c, 1, 75, 93
3, 35088, Note_off_c, 1, 75, 0
3, 35088, Note_on_c, 1, 74, 93
3, 35112, Note_off_c, 1, 74, 0
3, 35112, Note_on_c, 1, 65, 93
3, 35136, Note_off_c, 1, 65, 0
3, 35136, Note_on_c, 1, 64, 93
3, 35160, Note_off_c, 1, 64, 0
3, 35160, Note_on_c, 1, 74, 93
3, 35184, Note_off_c, 1, 74, 0
3, 35184, Note_on_c, 1, 72, 93
3, 35208, Note_off_c, 1, 72, 0
3, 35208, Note_on_c, 1, 71, 93
3, 35232, Note_off_c, 1, 71, 0
3, 35232, Note_on_c, 1, 72, 93
3, 35256, Note_off_c, 1, 72, 0
3, 35256, Note_on_c, 1, 63, 93
3, 35280, Note_off_c, 1, 63, 0
3, 35280, Note_on_c, 1, 62, 93
3, 35304, Note_off_c, 1, 62, 0
3, 35304, Note_on_c, 1, 60, 93
3, 35328, Note_off_c, 1, 60, 0
3, 35328, Note_on_c, 1, 62, 93
3, 35472, Note_off_c, 1, 62, 0
3, 35712, Note_on_c, 1, 62, 93
3, 35760, Note_off_c, 1, 62, 0
3, 35904, Note_on_c, 1, 62, 93
3, 36096, Note_off_c, 1, 62, 0
3, 36096, End_track
4, 0, Start_track
4, 0, Title_t, "Track4"
4, 0, Program_c, 2, 40
4, 0, Control_c, 2, 7, 100
4, 0, Control_c, 2, 10, 79
4, 432, Note_on_c, 2, 67, 93
4, 480, Note_off_c, 2, 67, 0
4, 480, Note_on_c, 2, 67, 93
4, 528, Note_off_c, 2, 67, 0
4, 528, Note_on_c, 2, 67, 93
4, 576, Note_off_c, 2, 67, 0
4, 576, Note_on_c, 2, 67, 93
4, 624, Note_off_c, 2, 67, 0
4, 624, Note_on_c, 2, 65, 93
4, 648, Note_off_c, 2, 65, 0
4, 648, Note_on_c, 2, 63, 93
4, 672, Note_off_c, 2, 63, 0
4, 672, Note_on_c, 2, 65, 93
4, 720, Note_off_c, 2, 65, 0
4, 720, Note_on_c, 2, 62, 93
4, 768, Note_off_c, 2, 62, 0
4, 768, Note_on_c, 2, 63, 93
4, 816, Note_off_c, 2, 63, 0
4, 864, Note_on_c, 2, 63, 93
4, 912, Note_off_c, 2, 63, 0
4, 960, Note_on_c, 2, 62, 93
4, 1008, Note_off_c, 2, 62, 0
4, 1056, Note_on_c, 2, 62, 93
4, 1104, Note_off_c, 2, 62, 0
4, 1344, Note_on_c, 2, 60, 93
4, 1392, Note_off_c, 2, 60, 0
4, 1440, Note_on_c, 2, 58, 93
4, 1488, Note_off_c, 2, 58, 0
4, 1536, Note_on_c, 2, 57, 93
4, 1584, Note_off_c, 2, 57, 0
4, 1632, Note_on_c, 2, 62, 93
4, 1680, Note_off_c, 2, 62, 0
4, 1728, Note_on_c, 2, 55, 93
4, 1776, Note_off_c, 2, 55, 0
4, 1824, Note_on_c, 2, 65, 93
4, 1872, Note_off_c, 2, 65, 0
4, 1872, Note_on_c, 2, 62, 93
4, 1920, Note_off_c, 2, 62, 0
4, 1920, Note_on_c, 2, 63, 93
4, 1968, Note_off_c, 2, 63, 0
4, 2112, Note_on_c, 2, 62, 93
4, 2136, Note_off_c, 2, 62, 0
4, 3840, Note_on_c, 2, 74, 93
4, 3888, Note_off_c, 2, 74, 0
4, 3888, Note_on_c, 2, 62, 93
4, 3936, Note_off_c, 2, 62, 0
4, 3936, Note_on_c, 2, 67, 93
4, 3984, Note_off_c, 2, 67, 0
4, 3984, Note_on_c, 2, 67, 93
4, 4032, Note_off_c, 2, 67, 0
4, 4032, Note_on_c, 2, 63, 93
4, 4080, Note_off_c, 2, 63, 0
4, 4128, Note_on_c, 2, 65, 93
4, 4176, Note_off_c, 2, 65, 0
4, 4176, Note_on_c, 2, 65, 93
4, 4224, Note_off_c, 2, 65, 0
4, 4224, Note_on_c, 2, 62, 93
4, 4272, Note_off_c, 2, 62, 0
4, 4320, Note_on_c, 2, 63, 93
4, 4368, Note_off_c, 2, 63, 0
4, 4368, Note_on_c, 2, 62, 93
4, 4416, Note_off_c, 2, 62, 0
4, 4416, Note_on_c, 2, 60, 93
4, 4464, Note_off_c, 2, 60, 0
4, 7536, Note_on_c, 2, 69, 93
4, 7584, Note_off_c, 2, 69, 0
4, 7584, Note_on_c, 2, 69, 93
4, 7632, Note_off_c, 2, 69, 0
4, 7632, Note_on_c, 2, 69, 93
4, 7680, Note_off_c, 2, 69, 0
4, 7680, Note_on_c, 2, 69, 93
4, 7728, Note_off_c, 2, 69, 0
4, 7728, Note_on_c, 2, 67, 93
4, 7752, Note_off_c, 2, 67, 0
4, 7752, Note_on_c, 2, 65, 93
4, 7776, Note_off_c, 2, 65, 0
4, 7776, Note_on_c, 2, 67, 93
4, 7824, Note_off_c, 2, 67, 0
4, 7824, Note_on_c, 2, 64, 93
4, 7872, Note_off_c, 2, 64, 0
4, 7872, Note_on_c, 2, 65, 93
4, 7920, Note_off_c, 2, 65, 0
4, 7920, Note_on_c, 2, 62, 93
4, 7968, Note_off_c, 2, 62, 0
4, 7968, Note_on_c, 2, 64, 93
4, 8016, Note_off_c, 2, 64, 0
4, 8016, Note_on_c, 2, 65, 93
4, 8064, Note_off_c, 2, 65, 0
4, 8064, Note_on_c, 2, 67, 93
4, 8112, Note_off_c, 2, 67, 0
4, 8112, Note_on_c, 2, 65, 93
4, 8160, Note_off_c, 2, 65, 0
4, 8160, Note_on_c, 2, 64, 93
4, 8208, Note_off_c, 2, 64, 0
4, 8256, Note_on_c, 2, 64, 93
4, 8304, Note_off_c, 2, 64, 0
4, 8352, Note_on_c, 2, 62, 93
4, 8400, Note_off_c, 2, 62, 0
4, 8400, Note_on_c, 2, 62, 93
4, 8448, Note_off_c, 2, 62, 0
4, 8448, Note_on_c, 2, 62, 93
4, 8496, Note_off_c, 2, 62, 0
4, 8592, Note_on_c, 2, 69, 93
4, 8640, Note_off_c, 2, 69, 0
4, 8640, Note_on_c, 2, 69, 93
4, 8688, Note_off_c, 2, 69, 0
4, 8688, Note_on_c, 2, 67, 93
4, 8712, Note_off_c, 2, 67, 0
4, 8712, Note_on_c, 2, 65, 93
4, 8736, Note_off_c, 2, 65, 0
4, 8736, Note_on_c, 2, 67, 93
4, 8784, Note_off_c, 2, 67, 0
4, 8784, Note_on_c, 2, 64, 93
4, 8832, Note_off_c, 2, 64, 0
4, 8832, Note_on_c, 2, 65, 93
4, 8856, Note_off_c, 2, 65, 0
4, 8856, Note_on_c, 2, 64, 93
4, 8880, Note_off_c, 2, 64, 0
4, 8880, Note_on_c, 2, 62, 93
4, 8904, Note_off_c, 2, 62, 0
4, 8904, Note_on_c, 2, 64, 93
4, 8928, Note_off_c, 2, 64, 0
4, 8928, Note_on_c, 2, 64, 93
4, 9000, Note_off_c, 2, 64, 0
4, 9000, Note_on_c, 2, 62, 93
4, 9024, Note_off_c, 2, 62, 0
4, 9024, Note_on_c, 2, 62, 93
4, 9072, Note_off_c, 2, 62, 0
4, 9072, Note_on_c, 2, 62, 93
4, 9120, Note_off_c, 2, 62, 0
4, 9120, Note_on_c, 2, 62, 93
4, 9168, Note_off_c, 2, 62, 0
4, 9168, Note_on_c, 2, 62, 93
4, 9216, Note_off_c, 2, 62, 0
4, 9216, Note_on_c, 2, 62, 93
4, 9264, Note_off_c, 2, 62, 0
4, 9264, Note_on_c, 2, 60, 93
4, 9288, Note_off_c, 2, 60, 0
4, 9288, Note_on_c, 2, 58, 93
4, 9312, Note_off_c, 2, 58, 0
4, 9312, Note_on_c, 2, 60, 93
4, 9360, Note_off_c, 2, 60, 0
4, 9360, Note_on_c, 2, 57, 93
4, 9408, Note_off_c, 2, 57, 0
4, 9408, Note_on_c, 2, 58, 93
4, 9456, Note_off_c, 2, 58, 0
4, 9504, Note_on_c, 2, 55, 93
4, 9552, Note_off_c, 2, 55, 0
4, 9600, Note_on_c, 2, 57, 93
4, 9648, Note_off_c, 2, 57, 0
4, 9744, Note_on_c, 2, 59, 93
4, 9792, Note_off_c, 2, 59, 0
4, 9792, Note_on_c, 2, 60, 93
4, 9840, Note_off_c, 2, 60, 0
4, 9888, Note_on_c, 2, 57, 93
4, 9936, Note_off_c, 2, 57, 0
4, 9984, Note_on_c, 2, 62, 93
4, 10032, Note_off_c, 2, 62, 0
4, 10176, Note_on_c, 2, 62, 93
4, 10224, Note_off_c, 2, 62, 0
4, 10368, Note_on_c, 2, 56, 93
4, 10416, Note_off_c, 2, 56, 0
4, 10560, Note_on_c, 2, 55, 93
4, 10608, Note_off_c, 2, 55, 0
4, 10656, Note_on_c, 2, 65, 93
4, 10704, Note_off_c, 2, 65, 0
4, 10752, Note_on_c, 2, 70, 93
4, 10800, Note_off_c, 2, 70, 0
4, 10896, Note_on_c, 2, 64, 93
4, 10944, Note_off_c, 2, 64, 0
4, 10944, Note_on_c, 2, 69, 93
4, 10992, Note_off_c, 2, 69, 0
4, 11088, Note_on_c, 2, 62, 93
4, 11136, Note_off_c, 2, 62, 0
4, 11136, Note_on_c, 2, 67, 93
4, 11184, Note_off_c, 2, 67, 0
4, 11232, Note_on_c, 2, 65, 93
4, 11280, Note_off_c, 2, 65, 0
4, 11328, Note_on_c, 2, 64, 93
4, 11376, Note_off_c, 2, 64, 0
4, 11424, Note_on_c, 2, 64, 93
4, 11472, Note_off_c, 2, 64, 0
4, 11712, Note_on_c, 2, 67, 93
4, 11760, Note_off_c, 2, 67, 0
4, 11808, Note_on_c, 2, 65, 93
4, 11856, Note_off_c, 2, 65, 0
4, 11904, Note_on_c, 2, 69, 93
4, 11952, Note_off_c, 2, 69, 0
4, 12000, Note_on_c, 2, 67, 93
4, 12048, Note_off_c, 2, 67, 0
4, 12096, Note_on_c, 2, 67, 93
4, 12144, Note_off_c, 2, 67, 0
4, 12240, Note_on_c, 2, 67, 93
4, 12288, Note_off_c, 2, 67, 0
4, 12288, Note_on_c, 2, 65, 93
4, 12336, Note_off_c, 2, 65, 0
4, 12432, Note_on_c, 2, 69, 93
4, 12480, Note_off_c, 2, 69, 0
4, 12480, Note_on_c, 2, 70, 93
4, 12528, Note_off_c, 2, 70, 0
4, 12576, Note_on_c, 2, 69, 93
4, 12624, Note_off_c, 2, 69, 0
4, 12672, Note_on_c, 2, 67, 93
4, 12720, Note_off_c, 2, 67, 0
4, 13200, Note_on_c, 2, 74, 93
4, 13248, Note_off_c, 2, 74, 0
4, 13248, Note_on_c, 2, 74, 93
4, 13440, Note_off_c, 2, 74, 0
4, 13440, Note_on_c, 2, 73, 93
4, 13632, Note_off_c, 2, 73, 0
4, 13632, Note_on_c, 2, 74, 93
4, 13824, Note_off_c, 2, 74, 0
4, 13824, Note_on_c, 2, 74, 93
4, 13872, Note_off_c, 2, 74, 0
4, 13872, Note_on_c, 2, 73, 93
4, 13920, Note_off_c, 2, 73, 0
4, 13920, Note_on_c, 2, 74, 93
4, 13968, Note_off_c, 2, 74, 0
4, 13968, Note_on_c, 2, 71, 93
4, 14016, Note_off_c, 2, 71, 0
4, 14016, Note_on_c, 2, 73, 93
4, 14208, Note_off_c, 2, 73, 0
4, 14208, Note_on_c, 2, 74, 93
4, 14256, Note_off_c, 2, 74, 0
4, 14256, Note_on_c, 2, 73, 93
4, 14304, Note_off_c, 2, 73, 0
4, 14304, Note_on_c, 2, 74, 93
4, 14352, Note_off_c, 2, 74, 0
4, 14352, Note_on_c, 2, 76, 93
4, 14400, Note_off_c, 2, 76, 0
4, 14400, Note_on_c, 2, 77, 93
4, 14448, Note_off_c, 2, 77, 0
4, 14448, Note_on_c, 2, 79, 93
4, 14496, Note_off_c, 2, 79, 0
4, 14496, Note_on_c, 2, 77, 93
4, 14544, Note_off_c, 2, 77, 0
4, 14544, Note_on_c, 2, 76, 93
4, 14592, Note_off_c, 2, 76, 0
4, 14592, Note_on_c, 2, 74, 93
4, 14640, Note_off_c, 2, 74, 0
4, 14640, Note_on_c, 2, 73, 93
4, 14688, Note_off_c, 2, 73, 0
4, 14688, Note_on_c, 2, 74, 93
4, 14736, Note_off_c, 2, 74, 0
4, 14736, Note_on_c, 2, 76, 93
4, 14784, Note_off_c, 2, 76, 0
4, 14784, Note_on_c, 2, 77, 93
4, 14832, Note_off_c, 2, 77, 0
4, 14832, Note_on_c, 2, 76, 93
4, 14880, Note_off_c, 2, 76, 0
4, 14880, Note_on_c, 2, 77, 93
4, 14928, Note_off_c, 2, 77, 0
4, 14928, Note_on_c, 2, 74, 93
4, 14976, Note_off_c, 2, 74, 0
4, 14976, Note_on_c, 2, 76, 93
4, 15024, Note_off_c, 2, 76, 0
4, 15024, Note_on_c, 2, 74, 93
4, 15072, Note_off_c, 2, 74, 0
4, 15072, Note_on_c, 2, 76, 93
4, 15120, Note_off_c, 2, 76, 0
4, 15120, Note_on_c, 2, 77, 93
4, 15168, Note_off_c, 2, 77, 0
4, 15168, Note_on_c, 2, 79, 93
4, 15216, Note_off_c, 2, 79, 0
4, 15216, Note_on_c, 2, 81, 93
4, 15264, Note_off_c, 2, 81, 0
4, 15264, Note_on_c, 2, 79, 93
4, 15312, Note_off_c, 2, 79, 0
4, 15312, Note_on_c, 2, 77, 93
4, 15360, Note_off_c, 2, 77, 0
4, 15360, Note_on_c, 2, 76, 93
4, 15408, Note_off_c, 2, 76, 0
4, 15408, Note_on_c, 2, 74, 93
4, 15456, Note_off_c, 2, 74, 0
4, 15456, Note_on_c, 2, 76, 93
4, 15504, Note_off_c, 2, 76, 0
4, 15504, Note_on_c, 2, 77, 93
4, 15552, Note_off_c, 2, 77, 0
4, 15552, Note_on_c, 2, 79, 93
4, 15600, Note_off_c, 2, 79, 0
4, 15600, Note_on_c, 2, 77, 93
4, 15648, Note_off_c, 2, 77, 0
4, 15648, Note_on_c, 2, 79, 93
4, 15696, Note_off_c, 2, 79, 0
4, 15696, Note_on_c, 2, 76, 93
4, 15744, Note_off_c, 2, 76, 0
4, 16128, Note_on_c, 2, 55, 93
4, 16152, Note_off_c, 2, 55, 0
4, 16152, Note_on_c, 2, 67, 93
4, 16176, Note_off_c, 2, 67, 0
4, 16176, Note_on_c, 2, 70, 93
4, 16200, Note_off_c, 2, 70, 0
4, 16200, Note_on_c, 2, 74, 93
4, 16224, Note_off_c, 2, 74, 0
4, 16224, Note_on_c, 2, 79, 93
4, 16248, Note_off_c, 2, 79, 0
4, 16248, Note_on_c, 2, 74, 93
4, 16272, Note_off_c, 2, 74, 0
4, 16272, Note_on_c, 2, 70, 93
4, 16296, Note_off_c, 2, 70, 0
4, 16296, Note_on_c, 2, 67, 93
4, 16320, Note_off_c, 2, 67, 0
4, 16320, Note_on_c, 2, 62, 93
4, 16344, Note_off_c, 2, 62, 0
4, 16344, Note_on_c, 2, 79, 93
4, 16368, Note_off_c, 2, 79, 0
4, 16368, Note_on_c, 2, 77, 93
4, 16392, Note_off_c, 2, 77, 0
4, 16392, Note_on_c, 2, 75, 93
4, 16416, Note_off_c, 2, 75, 0
4, 16416, Note_on_c, 2, 77, 93
4, 16440, Note_off_c, 2, 77, 0
4, 16440, Note_on_c, 2, 74, 93
4, 16464, Note_off_c, 2, 74, 0
4, 16464, Note_on_c, 2, 71, 93
4, 16488, Note_off_c, 2, 71, 0
4, 16488, Note_on_c, 2, 67, 93
4, 16512, Note_off_c, 2, 67, 0
4, 16896, Note_on_c, 2, 65, 93
4, 16920, Note_off_c, 2, 65, 0
4, 16920, Note_on_c, 2, 72, 93
4, 16944, Note_off_c, 2, 72, 0
4, 16944, Note_on_c, 2, 77, 93
4, 16968, Note_off_c, 2, 77, 0
4, 16968, Note_on_c, 2, 79, 93
4, 16992, Note_off_c, 2, 79, 0
4, 16992, Note_on_c, 2, 80, 93
4, 17016, Note_off_c, 2, 80, 0
4, 17016, Note_on_c, 2, 77, 93
4, 17040, Note_off_c, 2, 77, 0
4, 17040, Note_on_c, 2, 74, 93
4, 17064, Note_off_c, 2, 74, 0
4, 17064, Note_on_c, 2, 70, 93
4, 17088, Note_off_c, 2, 70, 0
4, 17280, Note_on_c, 2, 77, 93
4, 17304, Note_off_c, 2, 77, 0
4, 17304, Note_on_c, 2, 74, 93
4, 17328, Note_off_c, 2, 74, 0
4, 17328, Note_on_c, 2, 71, 93
4, 17352, Note_off_c, 2, 71, 0
4, 17352, Note_on_c, 2, 67, 93
4, 17376, Note_off_c, 2, 67, 0
4, 17472, Note_on_c, 2, 73, 93
4, 17496, Note_off_c, 2, 73, 0
4, 17496, Note_on_c, 2, 70, 93
4, 17520, Note_off_c, 2, 70, 0
4, 17520, Note_on_c, 2, 67, 93
4, 17544, Note_off_c, 2, 67, 0
4, 17544, Note_on_c, 2, 63, 93
4, 17568, Note_off_c, 2, 63, 0
4, 17664, Note_on_c, 2, 55, 93
4, 17688, Note_off_c, 2, 55, 0
4, 17688, Note_on_c, 2, 62, 93
4, 17712, Note_off_c, 2, 62, 0
4, 17712, Note_on_c, 2, 65, 93
4, 17736, Note_off_c, 2, 65, 0
4, 17736, Note_on_c, 2, 71, 93
4, 17760, Note_off_c, 2, 71, 0
4, 17760, Note_on_c, 2, 74, 93
4, 17784, Note_off_c, 2, 74, 0
4, 17784, Note_on_c, 2, 71, 93
4, 17808, Note_off_c, 2, 71, 0
4, 17808, Note_on_c, 2, 65, 93
4, 17832, Note_off_c, 2, 65, 0
4, 17832, Note_on_c, 2, 62, 93
4, 17856, Note_off_c, 2, 62, 0
4, 18048, Note_on_c, 2, 55, 93
4, 18072, Note_off_c, 2, 55, 0
4, 18072, Note_on_c, 2, 60, 93
4, 18096, Note_off_c, 2, 60, 0
4, 18096, Note_on_c, 2, 63, 93
4, 18120, Note_off_c, 2, 63, 0
4, 18120, Note_on_c, 2, 67, 93
4, 18144, Note_off_c, 2, 67, 0
4, 18144, Note_on_c, 2, 72, 93
4, 18168, Note_off_c, 2, 72, 0
4, 18168, Note_on_c, 2, 67, 93
4, 18192, Note_off_c, 2, 67, 0
4, 18192, Note_on_c, 2, 63, 93
4, 18216, Note_off_c, 2, 63, 0
4, 18216, Note_on_c, 2, 60, 93
4, 18240, Note_off_c, 2, 60, 0
4, 18432, Note_on_c, 2, 56, 93
4, 18456, Note_off_c, 2, 56, 0
4, 18456, Note_on_c, 2, 60, 93
4, 18480, Note_off_c, 2, 60, 0
4, 18480, Note_on_c, 2, 63, 93
4, 18504, Note_off_c, 2, 63, 0
4, 18504, Note_on_c, 2, 67, 93
4, 18528, Note_off_c, 2, 67, 0
4, 18528, Note_on_c, 2, 72, 93
4, 18552, Note_off_c, 2, 72, 0
4, 18552, Note_on_c, 2, 67, 93
4, 18576, Note_off_c, 2, 67, 0
4, 18576, Note_on_c, 2, 63, 93
4, 18600, Note_off_c, 2, 63, 0
4, 18600, Note_on_c, 2, 60, 93
4, 18624, Note_off_c, 2, 60, 0
4, 18816, Note_on_c, 2, 57, 93
4, 18840, Note_off_c, 2, 57, 0
4, 18840, Note_on_c, 2, 62, 93
4, 18864, Note_off_c, 2, 62, 0
4, 18864, Note_on_c, 2, 66, 93
4, 18888, Note_off_c, 2, 66, 0
4, 18888, Note_on_c, 2, 69, 93
4, 18912, Note_off_c, 2, 69, 0
4, 18912, Note_on_c, 2, 72, 93
4, 18936, Note_off_c, 2, 72, 0
4, 18936, Note_on_c, 2, 69, 93
4, 18960, Note_off_c, 2, 69, 0
4, 18960, Note_on_c, 2, 66, 93
4, 18984, Note_off_c, 2, 66, 0
4, 18984, Note_on_c, 2, 62, 93
4, 19008, Note_off_c, 2, 62, 0
4, 19200, Note_on_c, 2, 55, 93
4, 19224, Note_off_c, 2, 55, 0
4, 19224, Note_on_c, 2, 60, 93
4, 19248, Note_off_c, 2, 60, 0
4, 19248, Note_on_c, 2, 63, 93
4, 19272, Note_off_c, 2, 63, 0
4, 19272, Note_on_c, 2, 67, 93
4, 19296, Note_off_c, 2, 67, 0
4, 19296, Note_on_c, 2, 72, 93
4, 19320, Note_off_c, 2, 72, 0
4, 19320, Note_on_c, 2, 75, 93
4, 19344, Note_off_c, 2, 75, 0
4, 19344, Note_on_c, 2, 73, 93
4, 19368, Note_off_c, 2, 73, 0
4, 19368, Note_on_c, 2, 71, 93
4, 19392, Note_off_c, 2, 71, 0
4, 19392, Note_on_c, 2, 72, 93
4, 19416, Note_off_c, 2, 72, 0
4, 19416, Note_on_c, 2, 82, 93
4, 19440, Note_off_c, 2, 82, 0
4, 19440, Note_on_c, 2, 80, 93
4, 19464, Note_off_c, 2, 80, 0
4, 19464, Note_on_c, 2, 78, 93
4, 19488, Note_off_c, 2, 78, 0
4, 19488, Note_on_c, 2, 79, 93
4, 19512, Note_off_c, 2, 79, 0
4, 19512, Note_on_c, 2, 77, 93
4, 19536, Note_off_c, 2, 77, 0
4, 19536, Note_on_c, 2, 76, 93
4, 19560, Note_off_c, 2, 76, 0
4, 19560, Note_on_c, 2, 77, 93
4, 19584, Note_off_c, 2, 77, 0
4, 19584, Note_on_c, 2, 77, 93
4, 19632, Note_off_c, 2, 77, 0
4, 19680, Note_on_c, 2, 84, 93
4, 19728, Note_off_c, 2, 84, 0
4, 19776, Note_on_c, 2, 84, 93
4, 19824, Note_off_c, 2, 84, 0
4, 19872, Note_on_c, 2, 83, 93
4, 19920, Note_off_c, 2, 83, 0
4, 19920, Note_on_c, 2, 86, 93
4, 19968, Note_off_c, 2, 86, 0
4, 20112, Note_on_c, 2, 79, 93
4, 20160, Note_off_c, 2, 79, 0
4, 20160, Note_on_c, 2, 79, 93
4, 20208, Note_off_c, 2, 79, 0
4, 20208, Note_on_c, 2, 77, 93
4, 20232, Note_off_c, 2, 77, 0
4, 20232, Note_on_c, 2, 75, 93
4, 20256, Note_off_c, 2, 75, 0
4, 20256, Note_on_c, 2, 77, 93
4, 20304, Note_off_c, 2, 77, 0
4, 20304, Note_on_c, 2, 74, 93
4, 20352, Note_off_c, 2, 74, 0
4, 20352, Note_on_c, 2, 75, 93
4, 20400, Note_off_c, 2, 75, 0
4, 20400, Note_on_c, 2, 74, 93
4, 20424, Note_off_c, 2, 74, 0
4, 20424, Note_on_c, 2, 72, 93
4, 20448, Note_off_c, 2, 72, 0
4, 20448, Note_on_c, 2, 73, 93
4, 20496, Note_off_c, 2, 73, 0
4, 20496, Note_on_c, 2, 71, 93
4, 20544, Note_off_c, 2, 71, 0
4, 20544, Note_on_c, 2, 72, 93
4, 20616, Note_off_c, 2, 72, 0
4, 20616, Note_on_c, 2, 74, 93
4, 20640, Note_off_c, 2, 74, 0
4, 20640, Note_on_c, 2, 71, 93
4, 20712, Note_off_c, 2, 71, 0
4, 20712, Note_on_c, 2, 72, 93
4, 20736, Note_off_c, 2, 72, 0
4, 20736, Note_on_c, 2, 72, 93
4, 20784, Note_off_c, 2, 72, 0
4, 20784, Note_on_c, 2, 60, 93
4, 20832, Note_off_c, 2, 60, 0
4, 20832, Note_on_c, 2, 60, 93
4, 20880, Note_off_c, 2, 60, 0
4, 20880, Note_on_c, 2, 60, 93
4, 20928, Note_off_c, 2, 60, 0
4, 20928, Note_on_c, 2, 60, 93
4, 20976, Note_off_c, 2, 60, 0
4, 20976, Note_on_c, 2, 58, 93
4, 21000, Note_off_c, 2, 58, 0
4, 21000, Note_on_c, 2, 57, 93
4, 21024, Note_off_c, 2, 57, 0
4, 21024, Note_on_c, 2, 58, 93
4, 21072, Note_off_c, 2, 58, 0
4, 21072, Note_on_c, 2, 55, 93
4, 21120, Note_off_c, 2, 55, 0
4, 21120, Note_on_c, 2, 57, 93
4, 21168, Note_off_c, 2, 57, 0
4, 21216, Note_on_c, 2, 65, 93
4, 21264, Note_off_c, 2, 65, 0
4, 21264, Note_on_c, 2, 65, 93
4, 21312, Note_off_c, 2, 65, 0
4, 21312, Note_on_c, 2, 65, 93
4, 21360, Note_off_c, 2, 65, 0
4, 21360, Note_on_c, 2, 63, 93
4, 21384, Note_off_c, 2, 63, 0
4, 21384, Note_on_c, 2, 62, 93
4, 21408, Note_off_c, 2, 62, 0
4, 21408, Note_on_c, 2, 63, 93
4, 21456, Note_off_c, 2, 63, 0
4, 21456, Note_on_c, 2, 60, 93
4, 21504, Note_off_c, 2, 60, 0
4, 21504, Note_on_c, 2, 62, 93
4, 21552, Note_off_c, 2, 62, 0
4, 21600, Note_on_c, 2, 55, 93
4, 21648, Note_off_c, 2, 55, 0
4, 21696, Note_on_c, 2, 60, 93
4, 21744, Note_off_c, 2, 60, 0
4, 21840, Note_on_c, 2, 65, 93
4, 21888, Note_off_c, 2, 65, 0
4, 21936, Note_on_c, 2, 74, 93
4, 21984, Note_off_c, 2, 74, 0
4, 21984, Note_on_c, 2, 74, 93
4, 22032, Note_off_c, 2, 74, 0
4, 22032, Note_on_c, 2, 74, 93
4, 22080, Note_off_c, 2, 74, 0
4, 22080, Note_on_c, 2, 74, 93
4, 22128, Note_off_c, 2, 74, 0
4, 22128, Note_on_c, 2, 72, 93
4, 22152, Note_off_c, 2, 72, 0
4, 22152, Note_on_c, 2, 70, 93
4, 22176, Note_off_c, 2, 70, 0
4, 22176, Note_on_c, 2, 72, 93
4, 22224, Note_off_c, 2, 72, 0
4, 22224, Note_on_c, 2, 74, 93
4, 22272, Note_off_c, 2, 74, 0
4, 22272, Note_on_c, 2, 75, 93
4, 22320, Note_off_c, 2, 75, 0
4, 22320, Note_on_c, 2, 75, 93
4, 22368, Note_off_c, 2, 75, 0
4, 22368, Note_on_c, 2, 75, 93
4, 22416, Note_off_c, 2, 75, 0
4, 22416, Note_on_c, 2, 75, 93
4, 22464, Note_off_c, 2, 75, 0
4, 22464, Note_on_c, 2, 75, 93
4, 22512, Note_off_c, 2, 75, 0
4, 22512, Note_on_c, 2, 74, 93
4, 22536, Note_off_c, 2, 74, 0
4, 22536, Note_on_c, 2, 72, 93
4, 22560, Note_off_c, 2, 72, 0
4, 22560, Note_on_c, 2, 74, 93
4, 22608, Note_off_c, 2, 74, 0
4, 22608, Note_on_c, 2, 75, 93
4, 22656, Note_off_c, 2, 75, 0
4, 23088, Note_on_c, 2, 74, 93
4, 23136, Note_off_c, 2, 74, 0
4, 23136, Note_on_c, 2, 74, 93
4, 23184, Note_off_c, 2, 74, 0
4, 23184, Note_on_c, 2, 74, 93
4, 23232, Note_off_c, 2, 74, 0
4, 23232, Note_on_c, 2, 74, 93
4, 23280, Note_off_c, 2, 74, 0
4, 23280, Note_on_c, 2, 75, 93
4, 23304, Note_off_c, 2, 75, 0
4, 23304, Note_on_c, 2, 74, 93
4, 23328, Note_off_c, 2, 74, 0
4, 23328, Note_on_c, 2, 72, 93
4, 23376, Note_off_c, 2, 72, 0
4, 23376, Note_on_c, 2, 70, 93
4, 23424, Note_off_c, 2, 70, 0
4, 23424, Note_on_c, 2, 69, 93
4, 23472, Note_off_c, 2, 69, 0
4, 23472, Note_on_c, 2, 77, 93
4, 23520, Note_off_c, 2, 77, 0
4, 23520, Note_on_c, 2, 77, 93
4, 23568, Note_off_c, 2, 77, 0
4, 23568, Note_on_c, 2, 77, 93
4, 23616, Note_off_c, 2, 77, 0
4, 23616, Note_on_c, 2, 77, 93
4, 23664, Note_off_c, 2, 77, 0
4, 23664, Note_on_c, 2, 79, 93
4, 23688, Note_off_c, 2, 79, 0
4, 23688, Note_on_c, 2, 77, 93
4, 23712, Note_off_c, 2, 77, 0
4, 23712, Note_on_c, 2, 75, 93
4, 23760, Note_off_c, 2, 75, 0
4, 23760, Note_on_c, 2, 74, 93
4, 23808, Note_off_c, 2, 74, 0
4, 23808, Note_on_c, 2, 79, 93
4, 23856, Note_off_c, 2, 79, 0
4, 23856, Note_on_c, 2, 81, 93
4, 23880, Note_off_c, 2, 81, 0
4, 23880, Note_on_c, 2, 82, 93
4, 23904, Note_off_c, 2, 82, 0
4, 23904, Note_on_c, 2, 82, 93
4, 23928, Note_off_c, 2, 82, 0
4, 23928, Note_on_c, 2, 81, 93
4, 23952, Note_off_c, 2, 81, 0
4, 23952, Note_on_c, 2, 79, 93
4, 23976, Note_off_c, 2, 79, 0
4, 23976, Note_on_c, 2, 77, 93
4, 24000, Note_off_c, 2, 77, 0
4, 24000, Note_on_c, 2, 82, 93
4, 24048, Note_off_c, 2, 82, 0
4, 24048, Note_on_c, 2, 77, 93
4, 24096, Note_off_c, 2, 77, 0
4, 24096, Note_on_c, 2, 75, 93
4, 24120, Note_off_c, 2, 75, 0
4, 24120, Note_on_c, 2, 74, 93
4, 24144, Note_off_c, 2, 74, 0
4, 24144, Note_on_c, 2, 72, 93
4, 24168, Note_off_c, 2, 72, 0
4, 24168, Note_on_c, 2, 70, 93
4, 24192, Note_off_c, 2, 70, 0
4, 24576, Note_on_c, 2, 63, 93
4, 24600, Note_off_c, 2, 63, 0
4, 24600, Note_on_c, 2, 74, 93
4, 24624, Note_off_c, 2, 74, 0
4, 24624, Note_on_c, 2, 79, 93
4, 24648, Note_off_c, 2, 79, 0
4, 24648, Note_on_c, 2, 77, 93
4, 24672, Note_off_c, 2, 77, 0
4, 24672, Note_on_c, 2, 75, 93
4, 24696, Note_off_c, 2, 75, 0
4, 24696, Note_on_c, 2, 74, 93
4, 24720, Note_off_c, 2, 74, 0
4, 24720, Note_on_c, 2, 72, 93
4, 24744, Note_off_c, 2, 72, 0
4, 24744, Note_on_c, 2, 70, 93
4, 24768, Note_off_c, 2, 70, 0
4, 24768, Note_on_c, 2, 69, 93
4, 24792, Note_off_c, 2, 69, 0
4, 24792, Note_on_c, 2, 72, 93
4, 24816, Note_off_c, 2, 72, 0
4, 24816, Note_on_c, 2, 67, 93
4, 24840, Note_off_c, 2, 67, 0
4, 24840, Note_on_c, 2, 72, 93
4, 24864, Note_off_c, 2, 72, 0
4, 24864, Note_on_c, 2, 66, 93
4, 24888, Note_off_c, 2, 66, 0
4, 24888, Note_on_c, 2, 72, 93
4, 24912, Note_off_c, 2, 72, 0
4, 24912, Note_on_c, 2, 64, 93
4, 24936, Note_off_c, 2, 64, 0
4, 24936, Note_on_c, 2, 72, 93
4, 24960, Note_off_c, 2, 72, 0
4, 25344, Note_on_c, 2, 65, 93
4, 25368, Note_off_c, 2, 65, 0
4, 25368, Note_on_c, 2, 58, 93
4, 25392, Note_off_c, 2, 58, 0
4, 25392, Note_on_c, 2, 74, 93
4, 25416, Note_off_c, 2, 74, 0
4, 25416, Note_on_c, 2, 65, 93
4, 25440, Note_off_c, 2, 65, 0
4, 25440, Note_on_c, 2, 63, 93
4, 25464, Note_off_c, 2, 63, 0
4, 25464, Note_on_c, 2, 62, 93
4, 25488, Note_off_c, 2, 62, 0
4, 25488, Note_on_c, 2, 63, 93
4, 25512, Note_off_c, 2, 63, 0
4, 25512, Note_on_c, 2, 60, 93
4, 25536, Note_off_c, 2, 60, 0
4, 25536, Note_on_c, 2, 62, 93
4, 25560, Note_off_c, 2, 62, 0
4, 25560, Note_on_c, 2, 55, 93
4, 25584, Note_off_c, 2, 55, 0
4, 25584, Note_on_c, 2, 70, 93
4, 25608, Note_off_c, 2, 70, 0
4, 25608, Note_on_c, 2, 62, 93
4, 25632, Note_off_c, 2, 62, 0
4, 25632, Note_on_c, 2, 63, 93
4, 25656, Note_off_c, 2, 63, 0
4, 25656, Note_on_c, 2, 60, 93
4, 25680, Note_off_c, 2, 60, 0
4, 25680, Note_on_c, 2, 72, 93
4, 25704, Note_off_c, 2, 72, 0
4, 25704, Note_on_c, 2, 64, 93
4, 25728, Note_off_c, 2, 64, 0
4, 25728, Note_on_c, 2, 66, 93
4, 25752, Note_off_c, 2, 66, 0
4, 25752, Note_on_c, 2, 62, 93
4, 25776, Note_off_c, 2, 62, 0
4, 25776, Note_on_c, 2, 69, 93
4, 25800, Note_off_c, 2, 69, 0
4, 25800, Note_on_c, 2, 66, 93
4, 25824, Note_off_c, 2, 66, 0
4, 25824, Note_on_c, 2, 72, 93
4, 25848, Note_off_c, 2, 72, 0
4, 25848, Note_on_c, 2, 69, 93
4, 25872, Note_off_c, 2, 69, 0
4, 25872, Note_on_c, 2, 75, 93
4, 25896, Note_off_c, 2, 75, 0
4, 25896, Note_on_c, 2, 72, 93
4, 25920, Note_off_c, 2, 72, 0
4, 25920, Note_on_c, 2, 78, 93
4, 25944, Note_off_c, 2, 78, 0
4, 25944, Note_on_c, 2, 72, 93
4, 25968, Note_off_c, 2, 72, 0
4, 25968, Note_on_c, 2, 81, 93
4, 25992, Note_off_c, 2, 81, 0
4, 25992, Note_on_c, 2, 78, 93
4, 26016, Note_off_c, 2, 78, 0
4, 26016, Note_on_c, 2, 75, 93
4, 26040, Note_off_c, 2, 75, 0
4, 26040, Note_on_c, 2, 72, 93
4, 26064, Note_off_c, 2, 72, 0
4, 26064, Note_on_c, 2, 69, 93
4, 26088, Note_off_c, 2, 69, 0
4, 26088, Note_on_c, 2, 66, 93
4, 26112, Note_off_c, 2, 66, 0
4, 26304, Note_on_c, 2, 62, 67
4, 26328, Note_off_c, 2, 62, 0
4, 26328, Note_on_c, 2, 72, 67
4, 26352, Note_off_c, 2, 72, 0
4, 26352, Note_on_c, 2, 78, 67
4, 26376, Note_off_c, 2, 78, 0
4, 26376, Note_on_c, 2, 72, 67
4, 26400, Note_off_c, 2, 72, 0
4, 26400, Note_on_c, 2, 78, 67
4, 26424, Note_off_c, 2, 78, 0
4, 26424, Note_on_c, 2, 72, 67
4, 26448, Note_off_c, 2, 72, 0
4, 26448, Note_on_c, 2, 81, 67
4, 26472, Note_off_c, 2, 81, 0
4, 26472, Note_on_c, 2, 72, 67
4, 26496, Note_off_c, 2, 72, 0
4, 26688, Note_on_c, 2, 62, 67
4, 26712, Note_off_c, 2, 62, 0
4, 26712, Note_on_c, 2, 70, 67
4, 26736, Note_off_c, 2, 70, 0
4, 26736, Note_on_c, 2, 74, 67
4, 26760, Note_off_c, 2, 74, 0
4, 26760, Note_on_c, 2, 70, 67
4, 26784, Note_off_c, 2, 70, 0
4, 26784, Note_on_c, 2, 74, 67
4, 26808, Note_off_c, 2, 74, 0
4, 26808, Note_on_c, 2, 70, 67
4, 26832, Note_off_c, 2, 70, 0
4, 26832, Note_on_c, 2, 79, 67
4, 26856, Note_off_c, 2, 79, 0
4, 26856, Note_on_c, 2, 70, 67
4, 26880, Note_off_c, 2, 70, 0
4, 27072, Note_on_c, 2, 62, 67
4, 27096, Note_off_c, 2, 62, 0
4, 27096, Note_on_c, 2, 74, 67
4, 27120, Note_off_c, 2, 74, 0
4, 27120, Note_on_c, 2, 78, 67
4, 27144, Note_off_c, 2, 78, 0
4, 27144, Note_on_c, 2, 74, 67
4, 27168, Note_off_c, 2, 74, 0
4, 27168, Note_on_c, 2, 78, 67
4, 27192, Note_off_c, 2, 78, 0
4, 27192, Note_on_c, 2, 74, 67
4, 27216, Note_off_c, 2, 74, 0
4, 27216, Note_on_c, 2, 84, 67
4, 27240, Note_off_c, 2, 84, 0
4, 27240, Note_on_c, 2, 74, 67
4, 27264, Note_off_c, 2, 74, 0
4, 27456, Note_on_c, 2, 62, 67
4, 27480, Note_off_c, 2, 62, 0
4, 27480, Note_on_c, 2, 74, 67
4, 27504, Note_off_c, 2, 74, 0
4, 27504, Note_on_c, 2, 79, 67
4, 27528, Note_off_c, 2, 79, 0
4, 27528, Note_on_c, 2, 74, 67
4, 27552, Note_off_c, 2, 74, 0
4, 27552, Note_on_c, 2, 79, 67
4, 27576, Note_off_c, 2, 79, 0
4, 27576, Note_on_c, 2, 74, 67
4, 27600, Note_off_c, 2, 74, 0
4, 27600, Note_on_c, 2, 82, 67
4, 27624, Note_off_c, 2, 82, 0
4, 27624, Note_on_c, 2, 74, 67
4, 27648, Note_off_c, 2, 74, 0
4, 27840, Note_on_c, 2, 62, 67
4, 27864, Note_off_c, 2, 62, 0
4, 27864, Note_on_c, 2, 73, 67
4, 27888, Note_off_c, 2, 73, 0
4, 27888, Note_on_c, 2, 76, 67
4, 27912, Note_off_c, 2, 76, 0
4, 27912, Note_on_c, 2, 73, 67
4, 27936, Note_off_c, 2, 73, 0
4, 27936, Note_on_c, 2, 76, 67
4, 27960, Note_off_c, 2, 76, 0
4, 27960, Note_on_c, 2, 73, 67
4, 27984, Note_off_c, 2, 73, 0
4, 27984, Note_on_c, 2, 82, 67
4, 28008, Note_off_c, 2, 82, 0
4, 28176, Note_on_c, 2, 70, 93
4, 28224, Note_off_c, 2, 70, 0
4, 28224, Note_on_c, 2, 67, 93
4, 28272, Note_off_c, 2, 67, 0
4, 28368, Note_on_c, 2, 69, 93
4, 28416, Note_off_c, 2, 69, 0
4, 28416, Note_on_c, 2, 66, 93
4, 28464, Note_off_c, 2, 66, 0
4, 28560, Note_on_c, 2, 67, 93
4, 28608, Note_off_c, 2, 67, 0
4, 28608, Note_on_c, 2, 63, 93
4, 28656, Note_off_c, 2, 63, 0
4, 28704, Note_on_c, 2, 64, 93
4, 28752, Note_off_c, 2, 64, 0
4, 28800, Note_on_c, 2, 62, 93
4, 28848, Note_off_c, 2, 62, 0
4, 28992, Note_on_c, 2, 60, 93
4, 29040, Note_off_c, 2, 60, 0
4, 29184, Note_on_c, 2, 58, 93
4, 29232, Note_off_c, 2, 58, 0
4, 29376, Note_on_c, 2, 57, 93
4, 29400, Note_off_c, 2, 57, 0
4, 29568, Note_on_c, 2, 55, 93
4, 29592, Note_off_c, 2, 55, 0
4, 29760, Note_on_c, 2, 55, 93
4, 29784, Note_off_c, 2, 55, 0
4, 29952, Note_on_c, 2, 57, 93
4, 29976, Note_off_c, 2, 57, 0
4, 30336, Note_on_c, 2, 58, 93
4, 30384, Note_off_c, 2, 58, 0
4, 30432, Note_on_c, 2, 59, 93
4, 30480, Note_off_c, 2, 59, 0
4, 30528, Note_on_c, 2, 60, 93
4, 30576, Note_off_c, 2, 60, 0
4, 30720, Note_on_c, 2, 62, 93
4, 30768, Note_off_c, 2, 62, 0
4, 30912, Note_on_c, 2, 62, 93
4, 30960, Note_off_c, 2, 62, 0
4, 31104, Note_on_c, 2, 64, 93
4, 31152, Note_off_c, 2, 64, 0
4, 31296, Note_on_c, 2, 62, 93
4, 31344, Note_off_c, 2, 62, 0
4, 31344, Note_on_c, 2, 62, 93
4, 31392, Note_off_c, 2, 62, 0
4, 31392, Note_on_c, 2, 62, 93
4, 31440, Note_off_c, 2, 62, 0
4, 31440, Note_on_c, 2, 62, 93
4, 31488, Note_off_c, 2, 62, 0
4, 31488, Note_on_c, 2, 62, 93
4, 31536, Note_off_c, 2, 62, 0
4, 31536, Note_on_c, 2, 60, 93
4, 31560, Note_off_c, 2, 60, 0
4, 31560, Note_on_c, 2, 58, 93
4, 31584, Note_off_c, 2, 58, 0
4, 31584, Note_on_c, 2, 60, 93
4, 31632, Note_off_c, 2, 60, 0
4, 31632, Note_on_c, 2, 57, 93
4, 31680, Note_off_c, 2, 57, 0
4, 31680, Note_on_c, 2, 59, 93
4, 31728, Note_off_c, 2, 59, 0
4, 31728, Note_on_c, 2, 60, 93
4, 31752, Note_off_c, 2, 60, 0
4, 31752, Note_on_c, 2, 59, 93
4, 31776, Note_off_c, 2, 59, 0
4, 31776, Note_on_c, 2, 60, 93
4, 31824, Note_off_c, 2, 60, 0
4, 31824, Note_on_c, 2, 55, 93
4, 31872, Note_off_c, 2, 55, 0
4, 31872, Note_on_c, 2, 57, 93
4, 31920, Note_off_c, 2, 57, 0
4, 31920, Note_on_c, 2, 58, 93
4, 31944, Note_off_c, 2, 58, 0
4, 31944, Note_on_c, 2, 57, 93
4, 31968, Note_off_c, 2, 57, 0
4, 31968, Note_on_c, 2, 58, 93
4, 32016, Note_off_c, 2, 58, 0
4, 32016, Note_on_c, 2, 62, 93
4, 32064, Note_off_c, 2, 62, 0
4, 32064, Note_on_c, 2, 63, 93
4, 32112, Note_off_c, 2, 63, 0
4, 32208, Note_on_c, 2, 63, 93
4, 32256, Note_off_c, 2, 63, 0
4, 32256, Note_on_c, 2, 62, 93
4, 32304, Note_off_c, 2, 62, 0
4, 32400, Note_on_c, 2, 62, 93
4, 32448, Note_off_c, 2, 62, 0
4, 32448, Note_on_c, 2, 62, 93
4, 32496, Note_off_c, 2, 62, 0
4, 32592, Note_on_c, 2, 62, 93
4, 32640, Note_off_c, 2, 62, 0
4, 32640, Note_on_c, 2, 63, 93
4, 32688, Note_off_c, 2, 63, 0
4, 32688, Note_on_c, 2, 62, 93
4, 32736, Note_off_c, 2, 62, 0
4, 32736, Note_on_c, 2, 62, 93
4, 32784, Note_off_c, 2, 62, 0
4, 32784, Note_on_c, 2, 61, 93
4, 32832, Note_off_c, 2, 61, 0
4, 32832, Note_on_c, 2, 62, 93
4, 32880, Note_off_c, 2, 62, 0
4, 33408, Note_on_c, 2, 55, 93
4, 33432, Note_off_c, 2, 55, 0
4, 33432, Note_on_c, 2, 67, 93
4, 33456, Note_off_c, 2, 67, 0
4, 33456, Note_on_c, 2, 72, 93
4, 33480, Note_off_c, 2, 72, 0
4, 33480, Note_on_c, 2, 74, 93
4, 33504, Note_off_c, 2, 74, 0
4, 33504, Note_on_c, 2, 75, 93
4, 33528, Note_off_c, 2, 75, 0
4, 33528, Note_on_c, 2, 72, 93
4, 33552, Note_off_c, 2, 72, 0
4, 33552, Note_on_c, 2, 68, 93
4, 33576, Note_off_c, 2, 68, 0
4, 33576, Note_on_c, 2, 67, 93
4, 33600, Note_off_c, 2, 67, 0
4, 33600, Note_on_c, 2, 66, 93
4, 33624, Note_off_c, 2, 66, 0
4, 33624, Note_on_c, 2, 75, 93
4, 33648, Note_off_c, 2, 75, 0
4, 33648, Note_on_c, 2, 74, 93
4, 33672, Note_off_c, 2, 74, 0
4, 33672, Note_on_c, 2, 72, 93
4, 33696, Note_off_c, 2, 72, 0
4, 33696, Note_on_c, 2, 74, 93
4, 33720, Note_off_c, 2, 74, 0
4, 33720, Note_on_c, 2, 70, 93
4, 33744, Note_off_c, 2, 70, 0
4, 33744, Note_on_c, 2, 67, 93
4, 33768, Note_off_c, 2, 67, 0
4, 33768, Note_on_c, 2, 65, 93
4, 33792, Note_off_c, 2, 65, 0
4, 33984, Note_on_c, 2, 57, 93
4, 34008, Note_off_c, 2, 57, 0
4, 34008, Note_on_c, 2, 60, 93
4, 34032, Note_off_c, 2, 60, 0
4, 34032, Note_on_c, 2, 66, 93
4, 34056, Note_off_c, 2, 66, 0
4, 34056, Note_on_c, 2, 69, 93
4, 34080, Note_off_c, 2, 69, 0
4, 34080, Note_on_c, 2, 72, 93
4, 34104, Note_off_c, 2, 72, 0
4, 34104, Note_on_c, 2, 75, 93
4, 34128, Note_off_c, 2, 75, 0
4, 34128, Note_on_c, 2, 78, 93
4, 34152, Note_off_c, 2, 78, 0
4, 34152, Note_on_c, 2, 81, 93
4, 34176, Note_off_c, 2, 81, 0
4, 34368, Note_on_c, 2, 60, 93
4, 34392, Note_off_c, 2, 60, 0
4, 34392, Note_on_c, 2, 63, 93
4, 34416, Note_off_c, 2, 63, 0
4, 34416, Note_on_c, 2, 67, 93
4, 34440, Note_off_c, 2, 67, 0
4, 34440, Note_on_c, 2, 72, 93
4, 34464, Note_off_c, 2, 72, 0
4, 34464, Note_on_c, 2, 75, 93
4, 34488, Note_off_c, 2, 75, 0
4, 34488, Note_on_c, 2, 79, 93
4, 34512, Note_off_c, 2, 79, 0
4, 34512, Note_on_c, 2, 81, 93
4, 34536, Note_off_c, 2, 81, 0
4, 34536, Note_on_c, 2, 84, 93
4, 34560, Note_off_c, 2, 84, 0
4, 35328, Note_on_c, 2, 72, 93
4, 35472, Note_off_c, 2, 72, 0
4, 35664, Note_on_c, 2, 79, 93
4, 35712, Note_off_c, 2, 79, 0
4, 35712, Note_on_c, 2, 79, 93
4, 35748, Note_off_c, 2, 79, 0
4, 35748, Note_on_c, 2, 81, 93
4, 35760, Note_off_c, 2, 81, 0
4, 35760, Note_on_c, 2, 79, 93
4, 35772, Note_off_c, 2, 79, 0
4, 35772, Note_on_c, 2, 78, 93
4, 35784, Note_off_c, 2, 78, 0
4, 35784, Note_on_c, 2, 79, 93
4, 35790, Note_off_c, 2, 79, 0
4, 35790, Note_on_c, 2, 76, 93
4, 35796, Note_off_c, 2, 76, 0
4, 35796, Note_on_c, 2, 78, 93
4, 35808, Note_off_c, 2, 78, 0
4, 35808, Note_on_c, 2, 78, 93
4, 35880, Note_off_c, 2, 78, 0
4, 35880, Note_on_c, 2, 79, 93
4, 35904, Note_off_c, 2, 79, 0
4, 35904, Note_on_c, 2, 79, 93
4, 36096, Note_off_c, 2, 79, 0
4, 36096, End_track
5, 0, Start_track
5, 0, Title_t, "Track5"
5, 0, Program_c, 3, 40
5, 0, Control_c, 3, 7, 100
5, 0, Control_c, 3, 10, 49
5, 8256, Note_on_c, 3, 57, 93
5, 8304, Note_off_c, 3, 57, 0
5, 8448, Note_on_c, 3, 55, 93
5, 8496, Note_off_c, 3, 55, 0
5, 8592, Note_on_c, 3, 57, 93
5, 8640, Note_off_c, 3, 57, 0
5, 8640, Note_on_c, 3, 58, 93
5, 8688, Note_off_c, 3, 58, 0
5, 8784, Note_on_c, 3, 55, 93
5, 8832, Note_off_c, 3, 55, 0
5, 8832, Note_on_c, 3, 57, 93
5, 8880, Note_off_c, 3, 57, 0
5, 11424, Note_on_c, 3, 57, 93
5, 11472, Note_off_c, 3, 57, 0
5, 11520, Note_on_c, 3, 62, 93
5, 11568, Note_off_c, 3, 62, 0
5, 11616, Note_on_c, 3, 62, 93
5, 11664, Note_off_c, 3, 62, 0
5, 11712, Note_on_c, 3, 61, 93
5, 11760, Note_off_c, 3, 61, 0
5, 11808, Note_on_c, 3, 62, 93
5, 11856, Note_off_c, 3, 62, 0
5, 11904, Note_on_c, 3, 58, 93
5, 11952, Note_off_c, 3, 58, 0
5, 12000, Note_on_c, 3, 58, 93
5, 12048, Note_off_c, 3, 58, 0
5, 12096, Note_on_c, 3, 57, 93
5, 12144, Note_off_c, 3, 57, 0
5, 12240, Note_on_c, 3, 57, 93
5, 12288, Note_off_c, 3, 57, 0
5, 12288, Note_on_c, 3, 57, 93
5, 12336, Note_off_c, 3, 57, 0
5, 19584, Note_on_c, 3, 55, 93
5, 19632, Note_off_c, 3, 55, 0
5, 19776, Note_on_c, 3, 55, 93
5, 19824, Note_off_c, 3, 55, 0
5, 19968, Note_on_c, 3, 55, 93
5, 20016, Note_off_c, 3, 55, 0
5, 20160, Note_on_c, 3, 55, 93
5, 20208, Note_off_c, 3, 55, 0
5, 21600, Note_on_c, 3, 67, 93
5, 21648, Note_off_c, 3, 67, 0
5, 21696, Note_on_c, 3, 67, 93
5, 21744, Note_off_c, 3, 67, 0
5, 21936, Note_on_c, 3, 65, 93
5, 21984, Note_off_c, 3, 65, 0
5, 21984, Note_on_c, 3, 65, 93
5, 22032, Note_off_c, 3, 65, 0
5, 22032, Note_on_c, 3, 65, 93
5, 22080, Note_off_c, 3, 65, 0
5, 22080, Note_on_c, 3, 65, 93
5, 22128, Note_off_c, 3, 65, 0
5, 22320, Note_on_c, 3, 67, 93
5, 22368, Note_off_c, 3, 67, 0
5, 22368, Note_on_c, 3, 67, 93
5, 22416, Note_off_c, 3, 67, 0
5, 22416, Note_on_c, 3, 67, 93
5, 22464, Note_off_c, 3, 67, 0
5, 22464, Note_on_c, 3, 67, 93
5, 22512, Note_off_c, 3, 67, 0
5, 22656, Note_on_c, 3, 65, 93
5, 22704, Note_off_c, 3, 65, 0
5, 22752, Note_on_c, 3, 63, 93
5, 22800, Note_off_c, 3, 63, 0
5, 22848, Note_on_c, 3, 62, 93
5, 22896, Note_off_c, 3, 62, 0
5, 23616, Note_on_c, 3, 55, 93
5, 23664, Note_off_c, 3, 55, 0
5, 23712, Note_on_c, 3, 57, 93
5, 23760, Note_off_c, 3, 57, 0
5, 23760, Note_on_c, 3, 58, 93
5, 23808, Note_off_c, 3, 58, 0
5, 23808, Note_on_c, 3, 63, 93
5, 23856, Note_off_c, 3, 63, 0
5, 23904, Note_on_c, 3, 72, 93
5, 23952, Note_off_c, 3, 72, 0
5, 24048, Note_on_c, 3, 62, 93
5, 24096, Note_off_c, 3, 62, 0
5, 24096, Note_on_c, 3, 65, 93
5, 24144, Note_off_c, 3, 65, 0
5, 28176, Note_on_c, 3, 74, 93
5, 28224, Note_off_c, 3, 74, 0
5, 28224, Note_on_c, 3, 75, 93
5, 28272, Note_off_c, 3, 75, 0
5, 28368, Note_on_c, 3, 69, 93
5, 28416, Note_off_c, 3, 69, 0
5, 28416, Note_on_c, 3, 74, 93
5, 28464, Note_off_c, 3, 74, 0
5, 28560, Note_on_c, 3, 74, 93
5, 28608, Note_off_c, 3, 74, 0
5, 28608, Note_on_c, 3, 74, 93
5, 28656, Note_off_c, 3, 74, 0
5, 28704, Note_on_c, 3, 73, 93
5, 28752, Note_off_c, 3, 73, 0
5, 28800, Note_on_c, 3, 72, 93
5, 28848, Note_off_c, 3, 72, 0
5, 28896, Note_on_c, 3, 70, 93
5, 28944, Note_off_c, 3, 70, 0
5, 28992, Note_on_c, 3, 70, 93
5, 29040, Note_off_c, 3, 70, 0
5, 31584, Note_on_c, 3, 62, 93
5, 31632, Note_off_c, 3, 62, 0
5, 31680, Note_on_c, 3, 67, 93
5, 31728, Note_off_c, 3, 67, 0
5, 31776, Note_on_c, 3, 67, 93
5, 31824, Note_off_c, 3, 67, 0
5, 31872, Note_on_c, 3, 65, 93
5, 31920, Note_off_c, 3, 65, 0
5, 31968, Note_on_c, 3, 65, 93
5, 32016, Note_off_c, 3, 65, 0
5, 32016, Note_on_c, 3, 74, 93
5, 32064, Note_off_c, 3, 74, 0
5, 32064, Note_on_c, 3, 74, 93
5, 32112, Note_off_c, 3, 74, 0
5, 32112, Note_on_c, 3, 72, 93
5, 32136, Note_off_c, 3, 72, 0
5, 32136, Note_on_c, 3, 70, 93
5, 32160, Note_off_c, 3, 70, 0
5, 32160, Note_on_c, 3, 72, 93
5, 32208, Note_off_c, 3, 72, 0
5, 32208, Note_on_c, 3, 72, 93
5, 32256, Note_off_c, 3, 72, 0
5, 32256, Note_on_c, 3, 72, 93
5, 32304, Note_off_c, 3, 72, 0
5, 32304, Note_on_c, 3, 75, 93
5, 32328, Note_off_c, 3, 75, 0
5, 32328, Note_on_c, 3, 72, 93
5, 32352, Note_off_c, 3, 72, 0
5, 32352, Note_on_c, 3, 74, 93
5, 32400, Note_off_c, 3, 74, 0
5, 32400, Note_on_c, 3, 69, 93
5, 32448, Note_off_c, 3, 69, 0
5, 32448, Note_on_c, 3, 70, 93
5, 32496, Note_off_c, 3, 70, 0
5, 32496, Note_on_c, 3, 75, 93
5, 32520, Note_off_c, 3, 75, 0
5, 32520, Note_on_c, 3, 72, 93
5, 32544, Note_off_c, 3, 72, 0
5, 32544, Note_on_c, 3, 74, 93
5, 32592, Note_off_c, 3, 74, 0
5, 32592, Note_on_c, 3, 69, 93
5, 32640, Note_off_c, 3, 69, 0
5, 32640, Note_on_c, 3, 69, 93
5, 32688, Note_off_c, 3, 69, 0
5, 32688, Note_on_c, 3, 70, 93
5, 32736, Note_off_c, 3, 70, 0
5, 32736, Note_on_c, 3, 70, 93
5, 32784, Note_off_c, 3, 70, 0
5, 32784, Note_on_c, 3, 69, 93
5, 32832, Note_off_c, 3, 69, 0
5, 32832, Note_on_c, 3, 70, 93
5, 32904, Note_off_c, 3, 70, 0
5, 32904, Note_on_c, 3, 72, 93
5, 32928, Note_off_c, 3, 72, 0
5, 32928, Note_on_c, 3, 69, 93
5, 33000, Note_off_c, 3, 69, 0
5, 35904, Note_on_c, 3, 55, 93
5, 36096, Note_off_c, 3, 55, 0
5, 36096, End_track
6, 0, Start_track
6, 0, Title_t, "Track6"
6, 0, Program_c, 4, 40
6, 0, Control_c, 4, 7, 100
6, 0, Control_c, 4, 10, 64
6, 14208, Note_on_c, 4, 77, 76
6, 14232, Note_off_c, 4, 77, 0
6, 14232, Note_on_c, 4, 62, 76
6, 14256, Note_off_c, 4, 62, 0
6, 14256, Note_on_c, 4, 76, 76
6, 14280, Note_off_c, 4, 76, 0
6, 14280, Note_on_c, 4, 62, 76
6, 14304, Note_off_c, 4, 62, 0
6, 14304, Note_on_c, 4, 77, 76
6, 14328, Note_off_c, 4, 77, 0
6, 14328, Note_on_c, 4, 62, 76
6, 14352, Note_off_c, 4, 62, 0
6, 14352, Note_on_c, 4, 79, 76
6, 14376, Note_off_c, 4, 79, 0
6, 14376, Note_on_c, 4, 62, 76
6, 14400, Note_off_c, 4, 62, 0
6, 14400, Note_on_c, 4, 81, 76
6, 14424, Note_off_c, 4, 81, 0
6, 14424, Note_on_c, 4, 62, 76
6, 14448, Note_off_c, 4, 62, 0
6, 14448, Note_on_c, 4, 82, 76
6, 14472, Note_off_c, 4, 82, 0
6, 14472, Note_on_c, 4, 62, 76
6, 14496, Note_off_c, 4, 62, 0
6, 14496, Note_on_c, 4, 81, 76
6, 14520, Note_off_c, 4, 81, 0
6, 14520, Note_on_c, 4, 62, 76
6, 14544, Note_off_c, 4, 62, 0
6, 14544, Note_on_c, 4, 79, 76
6, 14568, Note_off_c, 4, 79, 0
6, 14568, Note_on_c, 4, 62, 76
6, 14592, Note_off_c, 4, 62, 0
6, 14592, Note_on_c, 4, 77, 76
6, 14616, Note_off_c, 4, 77, 0
6, 14616, Note_on_c, 4, 62, 76
6, 14640, Note_off_c, 4, 62, 0
6, 14640, Note_on_c, 4, 76, 76
6, 14664, Note_off_c, 4, 76, 0
6, 14664, Note_on_c, 4, 62, 76
6, 14688, Note_off_c, 4, 62, 0
6, 14688, Note_on_c, 4, 77, 76
6, 14712, Note_off_c, 4, 77, 0
6, 14712, Note_on_c, 4, 62, 76
6, 14736, Note_off_c, 4, 62, 0
6, 14736, Note_on_c, 4, 79, 76
6, 14760, Note_off_c, 4, 79, 0
6, 14760, Note_on_c, 4, 62, 76
6, 14784, Note_off_c, 4, 62, 0
6, 14784, Note_on_c, 4, 81, 76
6, 14808, Note_off_c, 4, 81, 0
6, 14808, Note_on_c, 4, 62, 76
6, 14832, Note_off_c, 4, 62, 0
6, 14832, Note_on_c, 4, 79, 76
6, 14856, Note_off_c, 4, 79, 0
6, 14856, Note_on_c, 4, 62, 76
6, 14880, Note_off_c, 4, 62, 0
6, 14880, Note_on_c, 4, 81, 76
6, 14904, Note_off_c, 4, 81, 0
6, 14904, Note_on_c, 4, 62, 76
6, 14928, Note_off_c, 4, 62, 0
6, 14928, Note_on_c, 4, 83, 76
6, 14952, Note_off_c, 4, 83, 0
6, 14952, Note_on_c, 4, 62, 76
6, 14976, Note_off_c, 4, 62, 0
6, 14976, Note_on_c, 4, 85, 76
6, 15000, Note_off_c, 4, 85, 0
6, 15000, Note_on_c, 4, 62, 76
6, 15024, Note_off_c, 4, 62, 0
6, 15024, Note_on_c, 4, 74, 76
6, 15048, Note_off_c, 4, 74, 0
6, 15048, Note_on_c, 4, 62, 76
6, 15072, Note_off_c, 4, 62, 0
6, 15072, Note_on_c, 4, 85, 76
6, 15096, Note_off_c, 4, 85, 0
6, 15096, Note_on_c, 4, 62, 76
6, 15120, Note_off_c, 4, 62, 0
6, 15120, Note_on_c, 4, 86, 76
6, 15144, Note_off_c, 4, 86, 0
6, 15144, Note_on_c, 4, 62, 76
6, 15168, Note_off_c, 4, 62, 0
6, 15168, Note_on_c, 4, 79, 76
6, 15192, Note_off_c, 4, 79, 0
6, 15192, Note_on_c, 4, 62, 76
6, 15216, Note_off_c, 4, 62, 0
6, 15216, Note_on_c, 4, 89, 76
6, 15240, Note_off_c, 4, 89, 0
6, 15240, Note_on_c, 4, 62, 76
6, 15264, Note_off_c, 4, 62, 0
6, 15264, Note_on_c, 4, 88, 76
6, 15288, Note_off_c, 4, 88, 0
6, 15288, Note_on_c, 4, 62, 76
6, 15312, Note_off_c, 4, 62, 0
6, 15312, Note_on_c, 4, 77, 76
6, 15336, Note_off_c, 4, 77, 0
6, 15336, Note_on_c, 4, 62, 76
6, 15360, Note_off_c, 4, 62, 0
6, 15360, Note_on_c, 4, 85, 76
6, 15384, Note_off_c, 4, 85, 0
6, 15384, Note_on_c, 4, 62, 76
6, 15408, Note_off_c, 4, 62, 0
6, 15408, Note_on_c, 4, 83, 76
6, 15432, Note_off_c, 4, 83, 0
6, 15432, Note_on_c, 4, 62, 76
6, 15456, Note_off_c, 4, 62, 0
6, 15456, Note_on_c, 4, 76, 76
6, 15480, Note_off_c, 4, 76, 0
6, 15480, Note_on_c, 4, 62, 76
6, 15504, Note_off_c, 4, 62, 0
6, 15504, Note_on_c, 4, 86, 76
6, 15528, Note_off_c, 4, 86, 0
6, 15528, Note_on_c, 4, 62, 76
6, 15552, Note_off_c, 4, 62, 0
6, 15552, Note_on_c, 4, 88, 76
6, 15576, Note_off_c, 4, 88, 0
6, 15576, Note_on_c, 4, 62, 76
6, 15600, Note_off_c, 4, 62, 0
6, 15600, Note_on_c, 4, 77, 76
6, 15624, Note_off_c, 4, 77, 0
6, 15624, Note_on_c, 4, 62, 76
6, 15648, Note_off_c, 4, 62, 0
6, 15648, Note_on_c, 4, 88, 76
6, 15672, Note_off_c, 4, 88, 0
6, 15672, Note_on_c, 4, 62, 76
6, 15696, Note_off_c, 4, 62, 0
6, 15696, Note_on_c, 4, 85, 76
6, 15720, Note_off_c, 4, 85, 0
6, 15720, Note_on_c, 4, 62, 76
6, 15744, Note_off_c, 4, 62, 0
6, 15744, End_track
0, 0, End_of_file
