0, 0, Header, 1, 5, 96
1, 0, Start_track
1, 0, Time_signature, 4, 2, 24, 8
1, 0, Title_t, "untitled"
1, 0, Title_t, "Track1"
1, 0, End_track
2, 0, Start_track
2, 0, Title_t, "Track2"
2, 0, Program_c, 0, 40
2, 0, Control_c, 0, 7, 100
2, 0, Control_c, 0, 10, 69
2, 0, Note_on_c, 0, 64, 93
2, 96, Note_off_c, 0, 64, 0
2, 144, Note_on_c, 0, 64, 93
2, 192, Note_off_c, 0, 64, 0
2, 192, Note_on_c, 0, 65, 93
2, 216, Note_off_c, 0, 65, 0
2, 216, Note_on_c, 0, 64, 93
2, 240, Note_off_c, 0, 64, 0
2, 240, Note_on_c, 0, 62, 93
2, 264, Note_off_c, 0, 62, 0
2, 264, Note_on_c, 0, 60, 93
2, 288, Note_off_c, 0, 60, 0
2, 288, Note_on_c, 0, 67, 93
2, 312, Note_off_c, 0, 67, 0
2, 312, Note_on_c, 0, 62, 93
2, 336, Note_off_c, 0, 62, 0
2, 336, Note_on_c, 0, 65, 93
2, 432, Note_off_c, 0, 65, 0
2, 432, Note_on_c, 0, 69, 93
2, 480, Note_off_c, 0, 69, 0
2, 480, Note_on_c, 0, 67, 93
2, 504, Note_off_c, 0, 67, 0
2, 504, Note_on_c, 0, 65, 93
2, 528, Note_off_c, 0, 65, 0
2, 528, Note_on_c, 0, 64, 93
2, 552, Note_off_c, 0, 64, 0
2, 552, Note_on_c, 0, 62, 93
2, 576, Note_off_c, 0, 62, 0
2, 576, Note_on_c, 0, 64, 93
2, 600, Note_off_c, 0, 64, 0
2, 600, Note_on_c, 0, 67, 93
2, 624, Note_off_c, 0, 67, 0
2, 624, Note_on_c, 0, 69, 93
2, 648, Note_off_c, 0, 69, 0
2, 648, Note_on_c, 0, 71, 93
2, 672, Note_off_c, 0, 71, 0
2, 672, Note_on_c, 0, 72, 93
2, 720, Note_off_c, 0, 72, 0
2, 1008, Note_on_c, 0, 76, 93
2, 1032, Note_off_c, 0, 76, 0
2, 1032, Note_on_c, 0, 74, 93
2, 1056, Note_off_c, 0, 74, 0
2, 1056, Note_on_c, 0, 76, 93
2, 1080, Note_off_c, 0, 76, 0
2, 1080, Note_on_c, 0, 74, 93
2, 1104, Note_off_c, 0, 74, 0
2, 1104, Note_on_c, 0, 72, 93
2, 1128, Note_off_c, 0, 72, 0
2, 1128, Note_on_c, 0, 71, 93
2, 1152, Note_off_c, 0, 71, 0
2, 1152, Note_on_c, 0, 69, 93
2, 1248, Note_off_c, 0, 69, 0
2, 1296, Note_on_c, 0, 74, 93
2, 1320, Note_off_c, 0, 74, 0
2, 1320, Note_on_c, 0, 76, 93
2, 1344, Note_off_c, 0, 76, 0
2, 1344, Note_on_c, 0, 74, 93
2, 1368, Note_off_c, 0, 74, 0
2, 1368, Note_on_c, 0, 72, 93
2, 1392, Note_off_c, 0, 72, 0
2, 1392, Note_on_c, 0, 71, 93
2, 1416, Note_off_c, 0, 71, 0
2, 1416, Note_on_c, 0, 69, 93
2, 1440, Note_off_c, 0, 69, 0
2, 1440, Note_on_c, 0, 71, 93
2, 1464, Note_off_c, 0, 71, 0
2, 1464, Note_on_c, 0, 74, 93
2, 1488, Note_off_c, 0, 74, 0
2, 1488, Note_on_c, 0, 76, 93
2, 1512, Note_off_c, 0, 76, 0
2, 1512, Note_on_c, 0, 77, 93
2, 1536, Note_off_c, 0, 77, 0
2, 1536, Note_on_c, 0, 79, 93
2, 1584, Note_off_c, 0, 79, 0
2, 1752, Note_on_c, 0, 72, 93
2, 1776, Note_off_c, 0, 72, 0
2, 1776, Note_on_c, 0, 74, 93
2, 1800, Note_off_c, 0, 74, 0
2, 1800, Note_on_c, 0, 69, 93
2, 1824, Note_off_c, 0, 69, 0
2, 1824, Note_on_c, 0, 71, 93
2, 1848, Note_off_c, 0, 71, 0
2, 1848, Note_on_c, 0, 72, 93
2, 1872, Note_off_c, 0, 72, 0
2, 1872, Note_on_c, 0, 74, 93
2, 1896, Note_off_c, 0, 74, 0
2, 1896, Note_on_c, 0, 76, 93
2, 1920, Note_off_c, 0, 76, 0
2, 1920, Note_on_c, 0, 77, 93
2, 1944, Note_off_c, 0, 77, 0
2, 1944, Note_on_c, 0, 81, 93
2, 1968, Note_off_c, 0, 81, 0
2, 1968, Note_on_c, 0, 79, 93
2, 1992, Note_off_c, 0, 79, 0
2, 1992, Note_on_c, 0, 77, 93
2, 2016, Note_off_c, 0, 77, 0
2, 2016, Note_on_c, 0, 76, 93
2, 2064, Note_off_c, 0, 76, 0
2, 2136, Note_on_c, 0, 74, 93
2, 2160, Note_off_c, 0, 74, 0
2, 2160, Note_on_c, 0, 72, 93
2, 2184, Note_off_c, 0, 72, 0
2, 2184, Note_on_c, 0, 71, 93
2, 2208, Note_off_c, 0, 71, 0
2, 2208, Note_on_c, 0, 69, 93
2, 2232, Note_off_c, 0, 69, 0
2, 2232, Note_on_c, 0, 67, 93
2, 2256, Note_off_c, 0, 67, 0
2, 2256, Note_on_c, 0, 66, 93
2, 2268, Note_off_c, 0, 66, 0
2, 2268, Note_on_c, 0, 67, 93
2, 2280, Note_off_c, 0, 67, 0
2, 2280, Note_on_c, 0, 64, 93
2, 2304, Note_off_c, 0, 64, 0
2, 2304, Note_on_c, 0, 66, 93
2, 2328, Note_off_c, 0, 66, 0
2, 2328, Note_on_c, 0, 62, 93
2, 2352, Note_off_c, 0, 62, 0
2, 2352, Note_on_c, 0, 64, 93
2, 2376, Note_off_c, 0, 64, 0
2, 2376, Note_on_c, 0, 66, 93
2, 2400, Note_off_c, 0, 66, 0
2, 2400, Note_on_c, 0, 67, 93
2, 2412, Note_off_c, 0, 67, 0
2, 2412, Note_on_c, 0, 71, 93
2, 2424, Note_off_c, 0, 71, 0
2, 2424, Note_on_c, 0, 69, 93
2, 2436, Note_off_c, 0, 69, 0
2, 2436, Note_on_c, 0, 72, 93
2, 2448, Note_off_c, 0, 72, 0
2, 2448, Note_on_c, 0, 71, 93
2, 2460, Note_off_c, 0, 71, 0
2, 2460, Note_on_c, 0, 74, 93
2, 2472, Note_off_c, 0, 74, 0
2, 2472, Note_on_c, 0, 72, 93
2, 2484, Note_off_c, 0, 72, 0
2, 2484, Note_on_c, 0, 76, 93
2, 2496, Note_off_c, 0, 76, 0
2, 2496, Note_on_c, 0, 74, 93
2, 2592, Note_off_c, 0, 74, 0
2, 2688, Note_on_c, 0, 71, 93
2, 2748, Note_off_c, 0, 71, 0
2, 2748, Note_on_c, 0, 72, 93
2, 2754, Note_off_c, 0, 72, 0
2, 2754, Note_on_c, 0, 71, 93
2, 2760, Note_off_c, 0, 71, 0
2, 2760, Note_on_c, 0, 69, 93
2, 2772, Note_off_c, 0, 69, 0
2, 2772, Note_on_c, 0, 71, 93
2, 2784, Note_off_c, 0, 71, 0
2, 2784, Note_on_c, 0, 72, 93
2, 2832, Note_off_c, 0, 72, 0
2, 2832, Note_on_c, 0, 69, 93
2, 2880, Note_off_c, 0, 69, 0
2, 2880, Note_on_c, 0, 67, 93
2, 2976, Note_off_c, 0, 67, 0
2, 3000, Note_on_c, 0, 67, 93
2, 3024, Note_off_c, 0, 67, 0
2, 3024, Note_on_c, 0, 65, 93
2, 3048, Note_off_c, 0, 65, 0
2, 3048, Note_on_c, 0, 64, 93
2, 3072, Note_off_c, 0, 64, 0
2, 3072, Note_on_c, 0, 62, 93
2, 3096, Note_off_c, 0, 62, 0
2, 3096, Note_on_c, 0, 69, 93
2, 3120, Note_off_c, 0, 69, 0
2, 3120, Note_on_c, 0, 67, 93
2, 3144, Note_off_c, 0, 67, 0
2, 3144, Note_on_c, 0, 65, 93
2, 3168, Note_off_c, 0, 65, 0
2, 3168, Note_on_c, 0, 64, 93
2, 3264, Note_off_c, 0, 64, 0
2, 3312, Note_on_c, 0, 64, 93
2, 3360, Note_off_c, 0, 64, 0
2, 3360, Note_on_c, 0, 65, 93
2, 3384, Note_off_c, 0, 65, 0
2, 3384, Note_on_c, 0, 64, 93
2, 3408, Note_off_c, 0, 64, 0
2, 3408, Note_on_c, 0, 62, 93
2, 3432, Note_off_c, 0, 62, 0
2, 3432, Note_on_c, 0, 60, 93
2, 3456, Note_off_c, 0, 60, 0
2, 3456, Note_on_c, 0, 67, 93
2, 3480, Note_off_c, 0, 67, 0
2, 3480, Note_on_c, 0, 62, 93
2, 3504, Note_off_c, 0, 62, 0
2, 3504, Note_on_c, 0, 65, 93
2, 3600, Note_off_c, 0, 65, 0
2, 3600, Note_on_c, 0, 69, 93
2, 3648, Note_off_c, 0, 69, 0
2, 3648, Note_on_c, 0, 67, 93
2, 3672, Note_off_c, 0, 67, 0
2, 3672, Note_on_c, 0, 65, 93
2, 3696, Note_off_c, 0, 65, 0
2, 3696, Note_on_c, 0, 64, 93
2, 3720, Note_off_c, 0, 64, 0
2, 3720, Note_on_c, 0, 62, 93
2, 3744, Note_off_c, 0, 62, 0
2, 3744, Note_on_c, 0, 64, 93
2, 3768, Note_off_c, 0, 64, 0
2, 3768, Note_on_c, 0, 67, 93
2, 3792, Note_off_c, 0, 67, 0
2, 3792, Note_on_c, 0, 69, 93
2, 3816, Note_off_c, 0, 69, 0
2, 3816, Note_on_c, 0, 71, 93
2, 3840, Note_off_c, 0, 71, 0
2, 3840, Note_on_c, 0, 72, 93
2, 3888, Note_off_c, 0, 72, 0
2, 4176, Note_on_c, 0, 76, 93
2, 4200, Note_off_c, 0, 76, 0
2, 4200, Note_on_c, 0, 74, 93
2, 4224, Note_off_c, 0, 74, 0
2, 4224, Note_on_c, 0, 76, 93
2, 4248, Note_off_c, 0, 76, 0
2, 4248, Note_on_c, 0, 74, 93
2, 4272, Note_off_c, 0, 74, 0
2, 4272, Note_on_c, 0, 72, 93
2, 4296, Note_off_c, 0, 72, 0
2, 4296, Note_on_c, 0, 71, 93
2, 4320, Note_off_c, 0, 71, 0
2, 4320, Note_on_c, 0, 69, 93
2, 4416, Note_off_c, 0, 69, 0
2, 4464, Note_on_c, 0, 74, 93
2, 4488, Note_off_c, 0, 74, 0
2, 4488, Note_on_c, 0, 76, 93
2, 4512, Note_off_c, 0, 76, 0
2, 4512, Note_on_c, 0, 74, 93
2, 4536, Note_off_c, 0, 74, 0
2, 4536, Note_on_c, 0, 72, 93
2, 4560, Note_off_c, 0, 72, 0
2, 4560, Note_on_c, 0, 71, 93
2, 4584, Note_off_c, 0, 71, 0
2, 4584, Note_on_c, 0, 69, 93
2, 4608, Note_off_c, 0, 69, 0
2, 4608, Note_on_c, 0, 71, 93
2, 4632, Note_off_c, 0, 71, 0
2, 4632, Note_on_c, 0, 74, 93
2, 4656, Note_off_c, 0, 74, 0
2, 4656, Note_on_c, 0, 76, 93
2, 4680, Note_off_c, 0, 76, 0
2, 4680, Note_on_c, 0, 77, 93
2, 4704, Note_off_c, 0, 77, 0
2, 4704, Note_on_c, 0, 79, 93
2, 4752, Note_off_c, 0, 79, 0
2, 4920, Note_on_c, 0, 72, 93
2, 4944, Note_off_c, 0, 72, 0
2, 4944, Note_on_c, 0, 74, 93
2, 4968, Note_off_c, 0, 74, 0
2, 4968, Note_on_c, 0, 69, 93
2, 4992, Note_off_c, 0, 69, 0
2, 4992, Note_on_c, 0, 71, 93
2, 5016, Note_off_c, 0, 71, 0
2, 5016, Note_on_c, 0, 72, 93
2, 5040, Note_off_c, 0, 72, 0
2, 5040, Note_on_c, 0, 74, 93
2, 5064, Note_off_c, 0, 74, 0
2, 5064, Note_on_c, 0, 76, 93
2, 5088, Note_off_c, 0, 76, 0
2, 5088, Note_on_c, 0, 77, 93
2, 5112, Note_off_c, 0, 77, 0
2, 5112, Note_on_c, 0, 81, 93
2, 5136, Note_off_c, 0, 81, 0
2, 5136, Note_on_c, 0, 79, 93
2, 5160, Note_off_c, 0, 79, 0
2, 5160, Note_on_c, 0, 77, 93
2, 5184, Note_off_c, 0, 77, 0
2, 5184, Note_on_c, 0, 76, 93
2, 5232, Note_off_c, 0, 76, 0
2, 5304, Note_on_c, 0, 74, 93
2, 5328, Note_off_c, 0, 74, 0
2, 5328, Note_on_c, 0, 72, 93
2, 5352, Note_off_c, 0, 72, 0
2, 5352, Note_on_c, 0, 71, 93
2, 5376, Note_off_c, 0, 71, 0
2, 5376, Note_on_c, 0, 69, 93
2, 5400, Note_off_c, 0, 69, 0
2, 5400, Note_on_c, 0, 67, 93
2, 5424, Note_off_c, 0, 67, 0
2, 5424, Note_on_c, 0, 66, 93
2, 5436, Note_off_c, 0, 66, 0
2, 5436, Note_on_c, 0, 67, 93
2, 5448, Note_off_c, 0, 67, 0
2, 5448, Note_on_c, 0, 64, 93
2, 5472, Note_off_c, 0, 64, 0
2, 5472, Note_on_c, 0, 66, 93
2, 5496, Note_off_c, 0, 66, 0
2, 5496, Note_on_c, 0, 62, 93
2, 5520, Note_off_c, 0, 62, 0
2, 5520, Note_on_c, 0, 64, 93
2, 5544, Note_off_c, 0, 64, 0
2, 5544, Note_on_c, 0, 66, 93
2, 5568, Note_off_c, 0, 66, 0
2, 5568, Note_on_c, 0, 67, 93
2, 5580, Note_off_c, 0, 67, 0
2, 5580, Note_on_c, 0, 71, 93
2, 5592, Note_off_c, 0, 71, 0
2, 5592, Note_on_c, 0, 69, 93
2, 5604, Note_off_c, 0, 69, 0
2, 5604, Note_on_c, 0, 72, 93
2, 5616, Note_off_c, 0, 72, 0
2, 5616, Note_on_c, 0, 71, 93
2, 5628, Note_off_c, 0, 71, 0
2, 5628, Note_on_c, 0, 74, 93
2, 5640, Note_off_c, 0, 74, 0
2, 5640, Note_on_c, 0, 72, 93
2, 5652, Note_off_c, 0, 72, 0
2, 5652, Note_on_c, 0, 76, 93
2, 5664, Note_off_c, 0, 76, 0
2, 5664, Note_on_c, 0, 74, 93
2, 5760, Note_off_c, 0, 74, 0
2, 5856, Note_on_c, 0, 71, 93
2, 5916, Note_off_c, 0, 71, 0
2, 5916, Note_on_c, 0, 72, 93
2, 5922, Note_off_c, 0, 72, 0
2, 5922, Note_on_c, 0, 71, 93
2, 5928, Note_off_c, 0, 71, 0
2, 5928, Note_on_c, 0, 69, 93
2, 5940, Note_off_c, 0, 69, 0
2, 5940, Note_on_c, 0, 71, 93
2, 5952, Note_off_c, 0, 71, 0
2, 5952, Note_on_c, 0, 72, 93
2, 6000, Note_off_c, 0, 72, 0
2, 6000, Note_on_c, 0, 69, 93
2, 6048, Note_off_c, 0, 69, 0
2, 6048, Note_on_c, 0, 67, 93
2, 6336, Note_off_c, 0, 67, 0
2, 6336, Note_on_c, 0, 74, 93
2, 6432, Note_off_c, 0, 74, 0
2, 6480, Note_on_c, 0, 74, 93
2, 6528, Note_off_c, 0, 74, 0
2, 6528, Note_on_c, 0, 76, 93
2, 6552, Note_off_c, 0, 76, 0
2, 6552, Note_on_c, 0, 74, 93
2, 6576, Note_off_c, 0, 74, 0
2, 6576, Note_on_c, 0, 72, 93
2, 6600, Note_off_c, 0, 72, 0
2, 6600, Note_on_c, 0, 71, 93
2, 6624, Note_off_c, 0, 71, 0
2, 6624, Note_on_c, 0, 76, 93
2, 6648, Note_off_c, 0, 76, 0
2, 6648, Note_on_c, 0, 71, 93
2, 6672, Note_off_c, 0, 71, 0
2, 6672, Note_on_c, 0, 74, 93
2, 6768, Note_off_c, 0, 74, 0
2, 6768, Note_on_c, 0, 77, 93
2, 6816, Note_off_c, 0, 77, 0
2, 6816, Note_on_c, 0, 76, 93
2, 6840, Note_off_c, 0, 76, 0
2, 6840, Note_on_c, 0, 74, 93
2, 6864, Note_off_c, 0, 74, 0
2, 6864, Note_on_c, 0, 72, 93
2, 6888, Note_off_c, 0, 72, 0
2, 6888, Note_on_c, 0, 71, 93
2, 6912, Note_off_c, 0, 71, 0
2, 6912, Note_on_c, 0, 72, 93
2, 6936, Note_off_c, 0, 72, 0
2, 6936, Note_on_c, 0, 74, 93
2, 6960, Note_off_c, 0, 74, 0
2, 6960, Note_on_c, 0, 76, 93
2, 7056, Note_off_c, 0, 76, 0
2, 7056, Note_on_c, 0, 76, 93
2, 7104, Note_off_c, 0, 76, 0
2, 7104, Note_on_c, 0, 74, 93
2, 7128, Note_off_c, 0, 74, 0
2, 7128, Note_on_c, 0, 72, 93
2, 7152, Note_off_c, 0, 72, 0
2, 7152, Note_on_c, 0, 71, 93
2, 7176, Note_off_c, 0, 71, 0
2, 7176, Note_on_c, 0, 69, 93
2, 7200, Note_off_c, 0, 69, 0
2, 7200, Note_on_c, 0, 81, 93
2, 7224, Note_off_c, 0, 81, 0
2, 7224, Note_on_c, 0, 78, 93
2, 7248, Note_off_c, 0, 78, 0
2, 7248, Note_on_c, 0, 80, 93
2, 7296, Note_off_c, 0, 80, 0
2, 7344, Note_on_c, 0, 80, 93
2, 7368, Note_off_c, 0, 80, 0
2, 7368, Note_on_c, 0, 83, 93
2, 7392, Note_off_c, 0, 83, 0
2, 7392, Note_on_c, 0, 83, 93
2, 7416, Note_off_c, 0, 83, 0
2, 7416, Note_on_c, 0, 80, 93
2, 7440, Note_off_c, 0, 80, 0
2, 7440, Note_on_c, 0, 80, 93
2, 7464, Note_off_c, 0, 80, 0
2, 7464, Note_on_c, 0, 76, 93
2, 7488, Note_off_c, 0, 76, 0
2, 7488, Note_on_c, 0, 81, 93
2, 7608, Note_off_c, 0, 81, 0
2, 7608, Note_on_c, 0, 83, 93
2, 7632, Note_off_c, 0, 83, 0
2, 7632, Note_on_c, 0, 81, 93
2, 7656, Note_off_c, 0, 81, 0
2, 7656, Note_on_c, 0, 79, 93
2, 7680, Note_off_c, 0, 79, 0
2, 7680, Note_on_c, 0, 78, 93
2, 7704, Note_off_c, 0, 78, 0
2, 7704, Note_on_c, 0, 76, 93
2, 7728, Note_off_c, 0, 76, 0
2, 7728, Note_on_c, 0, 75, 93
2, 7752, Note_off_c, 0, 75, 0
2, 7752, Note_on_c, 0, 76, 93
2, 7776, Note_off_c, 0, 76, 0
2, 7776, Note_on_c, 0, 81, 93
2, 7800, Note_off_c, 0, 81, 0
2, 7800, Note_on_c, 0, 83, 93
2, 7824, Note_off_c, 0, 83, 0
2, 7824, Note_on_c, 0, 84, 93
2, 7920, Note_off_c, 0, 84, 0
2, 7920, Note_on_c, 0, 84, 93
2, 7944, Note_off_c, 0, 84, 0
2, 7944, Note_on_c, 0, 83, 93
2, 7968, Note_off_c, 0, 83, 0
2, 7968, Note_on_c, 0, 81, 93
2, 7992, Note_off_c, 0, 81, 0
2, 7992, Note_on_c, 0, 79, 93
2, 8016, Note_off_c, 0, 79, 0
2, 8016, Note_on_c, 0, 81, 93
2, 8040, Note_off_c, 0, 81, 0
2, 8040, Note_on_c, 0, 78, 93
2, 8064, Note_off_c, 0, 78, 0
2, 8064, Note_on_c, 0, 79, 93
2, 8088, Note_off_c, 0, 79, 0
2, 8088, Note_on_c, 0, 76, 93
2, 8112, Note_off_c, 0, 76, 0
2, 8112, Note_on_c, 0, 75, 93
2, 8136, Note_off_c, 0, 75, 0
2, 8136, Note_on_c, 0, 76, 93
2, 8160, Note_off_c, 0, 76, 0
2, 8160, Note_on_c, 0, 83, 93
2, 8208, Note_off_c, 0, 83, 0
2, 8208, Note_on_c, 0, 81, 93
2, 8256, Note_off_c, 0, 81, 0
2, 8256, Note_on_c, 0, 81, 93
2, 8280, Note_off_c, 0, 81, 0
2, 8280, Note_on_c, 0, 79, 93
2, 8304, Note_off_c, 0, 79, 0
2, 8304, Note_on_c, 0, 81, 93
2, 8328, Note_off_c, 0, 81, 0
2, 8328, Note_on_c, 0, 78, 93
2, 8352, Note_off_c, 0, 78, 0
2, 8352, Note_on_c, 0, 78, 93
2, 8400, Note_off_c, 0, 78, 0
2, 8400, Note_on_c, 0, 76, 93
2, 8448, Note_off_c, 0, 76, 0
2, 8496, Note_on_c, 0, 76, 93
2, 8520, Note_off_c, 0, 76, 0
2, 8520, Note_on_c, 0, 77, 93
2, 8544, Note_off_c, 0, 77, 0
2, 8544, Note_on_c, 0, 79, 93
2, 8568, Note_off_c, 0, 79, 0
2, 8568, Note_on_c, 0, 81, 93
2, 8592, Note_off_c, 0, 81, 0
2, 8592, Note_on_c, 0, 82, 93
2, 8688, Note_off_c, 0, 82, 0
2, 8688, Note_on_c, 0, 81, 93
2, 8736, Note_off_c, 0, 81, 0
2, 8784, Note_on_c, 0, 79, 93
2, 8832, Note_off_c, 0, 79, 0
2, 8832, Note_on_c, 0, 79, 93
2, 8856, Note_off_c, 0, 79, 0
2, 8856, Note_on_c, 0, 77, 93
2, 8880, Note_off_c, 0, 77, 0
2, 8880, Note_on_c, 0, 79, 93
2, 8904, Note_off_c, 0, 79, 0
2, 8904, Note_on_c, 0, 76, 93
2, 8928, Note_off_c, 0, 76, 0
2, 8928, Note_on_c, 0, 76, 93
2, 8976, Note_off_c, 0, 76, 0
2, 8976, Note_on_c, 0, 77, 93
2, 9024, Note_off_c, 0, 77, 0
2, 9072, Note_on_c, 0, 74, 93
2, 9096, Note_off_c, 0, 74, 0
2, 9096, Note_on_c, 0, 76, 93
2, 9120, Note_off_c, 0, 76, 0
2, 9120, Note_on_c, 0, 77, 93
2, 9144, Note_off_c, 0, 77, 0
2, 9144, Note_on_c, 0, 79, 93
2, 9168, Note_off_c, 0, 79, 0
2, 9168, Note_on_c, 0, 81, 93
2, 9216, Note_off_c, 0, 81, 0
2, 9216, Note_on_c, 0, 71, 93
2, 9264, Note_off_c, 0, 71, 0
2, 9264, Note_on_c, 0, 72, 93
2, 9312, Note_off_c, 0, 72, 0
2, 9360, Note_on_c, 0, 72, 93
2, 9408, Note_off_c, 0, 72, 0
2, 9408, Note_on_c, 0, 76, 93
2, 9432, Note_off_c, 0, 76, 0
2, 9432, Note_on_c, 0, 74, 93
2, 9456, Note_off_c, 0, 74, 0
2, 9456, Note_on_c, 0, 76, 93
2, 9480, Note_off_c, 0, 76, 0
2, 9480, Note_on_c, 0, 72, 93
2, 9504, Note_off_c, 0, 72, 0
2, 9504, Note_on_c, 0, 71, 93
2, 9600, Note_off_c, 0, 71, 0
2, 9624, Note_on_c, 0, 71, 93
2, 9648, Note_off_c, 0, 71, 0
2, 9648, Note_on_c, 0, 72, 93
2, 9672, Note_off_c, 0, 72, 0
2, 9672, Note_on_c, 0, 71, 93
2, 9696, Note_off_c, 0, 71, 0
2, 9696, Note_on_c, 0, 69, 93
2, 9720, Note_off_c, 0, 69, 0
2, 9720, Note_on_c, 0, 67, 93
2, 9744, Note_off_c, 0, 67, 0
2, 9744, Note_on_c, 0, 65, 93
2, 9768, Note_off_c, 0, 65, 0
2, 9768, Note_on_c, 0, 64, 93
2, 9792, Note_off_c, 0, 64, 0
2, 9792, Note_on_c, 0, 65, 93
2, 9816, Note_off_c, 0, 65, 0
2, 9816, Note_on_c, 0, 75, 93
2, 9840, Note_off_c, 0, 75, 0
2, 9840, Note_on_c, 0, 74, 93
2, 9864, Note_off_c, 0, 74, 0
2, 9864, Note_on_c, 0, 72, 93
2, 9888, Note_off_c, 0, 72, 0
2, 9888, Note_on_c, 0, 71, 93
2, 9912, Note_off_c, 0, 71, 0
2, 9912, Note_on_c, 0, 72, 93
2, 9936, Note_off_c, 0, 72, 0
2, 9936, Note_on_c, 0, 80, 93
2, 9960, Note_off_c, 0, 80, 0
2, 9960, Note_on_c, 0, 79, 93
2, 9984, Note_off_c, 0, 79, 0
2, 9984, Note_on_c, 0, 78, 93
2, 10008, Note_off_c, 0, 78, 0
2, 10008, Note_on_c, 0, 72, 93
2, 10020, Note_off_c, 0, 72, 0
2, 10020, Note_on_c, 0, 71, 93
2, 10032, Note_off_c, 0, 71, 0
2, 10032, Note_on_c, 0, 72, 93
2, 10056, Note_off_c, 0, 72, 0
2, 10056, Note_on_c, 0, 78, 93
2, 10080, Note_off_c, 0, 78, 0
2, 10080, Note_on_c, 0, 79, 93
2, 10116, Note_off_c, 0, 79, 0
2, 10116, Note_on_c, 0, 81, 93
2, 10128, Note_off_c, 0, 81, 0
2, 10128, Note_on_c, 0, 79, 93
2, 10140, Note_off_c, 0, 79, 0
2, 10140, Note_on_c, 0, 77, 93
2, 10152, Note_off_c, 0, 77, 0
2, 10152, Note_on_c, 0, 76, 93
2, 10158, Note_off_c, 0, 76, 0
2, 10158, Note_on_c, 0, 77, 93
2, 10164, Note_off_c, 0, 77, 0
2, 10164, Note_on_c, 0, 79, 93
2, 10176, Note_off_c, 0, 79, 0
2, 10176, Note_on_c, 0, 72, 93
2, 10236, Note_off_c, 0, 72, 0
2, 10236, Note_on_c, 0, 71, 93
2, 10248, Note_off_c, 0, 71, 0
2, 10248, Note_on_c, 0, 69, 93
2, 10260, Note_off_c, 0, 69, 0
2, 10260, Note_on_c, 0, 71, 93
2, 10272, Note_off_c, 0, 71, 0
2, 10272, Note_on_c, 0, 71, 93
2, 10344, Note_off_c, 0, 71, 0
2, 10344, Note_on_c, 0, 69, 93
2, 10356, Note_off_c, 0, 69, 0
2, 10356, Note_on_c, 0, 71, 93
2, 10368, Note_off_c, 0, 71, 0
2, 10368, Note_on_c, 0, 72, 93
2, 10464, Note_off_c, 0, 72, 0
2, 10656, Note_on_c, 0, 71, 93
2, 10680, Note_off_c, 0, 71, 0
2, 10680, Note_on_c, 0, 72, 93
2, 10704, Note_off_c, 0, 72, 0
2, 10704, Note_on_c, 0, 74, 93
2, 10752, Note_off_c, 0, 74, 0
2, 10800, Note_on_c, 0, 74, 93
2, 10848, Note_off_c, 0, 74, 0
2, 10848, Note_on_c, 0, 76, 93
2, 10872, Note_off_c, 0, 76, 0
2, 10872, Note_on_c, 0, 74, 93
2, 10896, Note_off_c, 0, 74, 0
2, 10896, Note_on_c, 0, 72, 93
2, 10920, Note_off_c, 0, 72, 0
2, 10920, Note_on_c, 0, 71, 93
2, 10944, Note_off_c, 0, 71, 0
2, 10944, Note_on_c, 0, 76, 93
2, 10968, Note_off_c, 0, 76, 0
2, 10968, Note_on_c, 0, 71, 93
2, 10992, Note_off_c, 0, 71, 0
2, 10992, Note_on_c, 0, 74, 93
2, 11088, Note_off_c, 0, 74, 0
2, 11088, Note_on_c, 0, 77, 93
2, 11136, Note_off_c, 0, 77, 0
2, 11136, Note_on_c, 0, 76, 93
2, 11160, Note_off_c, 0, 76, 0
2, 11160, Note_on_c, 0, 74, 93
2, 11184, Note_off_c, 0, 74, 0
2, 11184, Note_on_c, 0, 72, 93
2, 11208, Note_off_c, 0, 72, 0
2, 11208, Note_on_c, 0, 71, 93
2, 11232, Note_off_c, 0, 71, 0
2, 11232, Note_on_c, 0, 72, 93
2, 11256, Note_off_c, 0, 72, 0
2, 11256, Note_on_c, 0, 74, 93
2, 11280, Note_off_c, 0, 74, 0
2, 11280, Note_on_c, 0, 76, 93
2, 11376, Note_off_c, 0, 76, 0
2, 11376, Note_on_c, 0, 76, 93
2, 11424, Note_off_c, 0, 76, 0
2, 11424, Note_on_c, 0, 74, 93
2, 11448, Note_off_c, 0, 74, 0
2, 11448, Note_on_c, 0, 72, 93
2, 11472, Note_off_c, 0, 72, 0
2, 11472, Note_on_c, 0, 71, 93
2, 11496, Note_off_c, 0, 71, 0
2, 11496, Note_on_c, 0, 69, 93
2, 11520, Note_off_c, 0, 69, 0
2, 11520, Note_on_c, 0, 81, 93
2, 11544, Note_off_c, 0, 81, 0
2, 11544, Note_on_c, 0, 78, 93
2, 11568, Note_off_c, 0, 78, 0
2, 11568, Note_on_c, 0, 80, 93
2, 11616, Note_off_c, 0, 80, 0
2, 11664, Note_on_c, 0, 80, 93
2, 11688, Note_off_c, 0, 80, 0
2, 11688, Note_on_c, 0, 83, 93
2, 11712, Note_off_c, 0, 83, 0
2, 11712, Note_on_c, 0, 83, 93
2, 11736, Note_off_c, 0, 83, 0
2, 11736, Note_on_c, 0, 80, 93
2, 11760, Note_off_c, 0, 80, 0
2, 11760, Note_on_c, 0, 80, 93
2, 11784, Note_off_c, 0, 80, 0
2, 11784, Note_on_c, 0, 76, 93
2, 11808, Note_off_c, 0, 76, 0
2, 11808, Note_on_c, 0, 81, 93
2, 11928, Note_off_c, 0, 81, 0
2, 11928, Note_on_c, 0, 83, 93
2, 11952, Note_off_c, 0, 83, 0
2, 11952, Note_on_c, 0, 81, 93
2, 11976, Note_off_c, 0, 81, 0
2, 11976, Note_on_c, 0, 79, 93
2, 12000, Note_off_c, 0, 79, 0
2, 12000, Note_on_c, 0, 78, 93
2, 12024, Note_off_c, 0, 78, 0
2, 12024, Note_on_c, 0, 76, 93
2, 12048, Note_off_c, 0, 76, 0
2, 12048, Note_on_c, 0, 75, 93
2, 12072, Note_off_c, 0, 75, 0
2, 12072, Note_on_c, 0, 76, 93
2, 12096, Note_off_c, 0, 76, 0
2, 12096, Note_on_c, 0, 81, 93
2, 12120, Note_off_c, 0, 81, 0
2, 12120, Note_on_c, 0, 83, 93
2, 12144, Note_off_c, 0, 83, 0
2, 12144, Note_on_c, 0, 84, 93
2, 12240, Note_off_c, 0, 84, 0
2, 12240, Note_on_c, 0, 84, 93
2, 12264, Note_off_c, 0, 84, 0
2, 12264, Note_on_c, 0, 83, 93
2, 12288, Note_off_c, 0, 83, 0
2, 12288, Note_on_c, 0, 81, 93
2, 12312, Note_off_c, 0, 81, 0
2, 12312, Note_on_c, 0, 79, 93
2, 12336, Note_off_c, 0, 79, 0
2, 12336, Note_on_c, 0, 81, 93
2, 12360, Note_off_c, 0, 81, 0
2, 12360, Note_on_c, 0, 78, 93
2, 12384, Note_off_c, 0, 78, 0
2, 12384, Note_on_c, 0, 79, 93
2, 12408, Note_off_c, 0, 79, 0
2, 12408, Note_on_c, 0, 76, 93
2, 12432, Note_off_c, 0, 76, 0
2, 12432, Note_on_c, 0, 75, 93
2, 12456, Note_off_c, 0, 75, 0
2, 12456, Note_on_c, 0, 76, 93
2, 12480, Note_off_c, 0, 76, 0
2, 12480, Note_on_c, 0, 83, 93
2, 12528, Note_off_c, 0, 83, 0
2, 12528, Note_on_c, 0, 81, 93
2, 12576, Note_off_c, 0, 81, 0
2, 12576, Note_on_c, 0, 81, 93
2, 12600, Note_off_c, 0, 81, 0
2, 12600, Note_on_c, 0, 79, 93
2, 12624, Note_off_c, 0, 79, 0
2, 12624, Note_on_c, 0, 81, 93
2, 12648, Note_off_c, 0, 81, 0
2, 12648, Note_on_c, 0, 78, 93
2, 12672, Note_off_c, 0, 78, 0
2, 12672, Note_on_c, 0, 78, 93
2, 12720, Note_off_c, 0, 78, 0
2, 12720, Note_on_c, 0, 76, 93
2, 12768, Note_off_c, 0, 76, 0
2, 12816, Note_on_c, 0, 76, 93
2, 12840, Note_off_c, 0, 76, 0
2, 12840, Note_on_c, 0, 77, 93
2, 12864, Note_off_c, 0, 77, 0
2, 12864, Note_on_c, 0, 79, 93
2, 12888, Note_off_c, 0, 79, 0
2, 12888, Note_on_c, 0, 81, 93
2, 12912, Note_off_c, 0, 81, 0
2, 12912, Note_on_c, 0, 82, 93
2, 13008, Note_off_c, 0, 82, 0
2, 13008, Note_on_c, 0, 81, 93
2, 13056, Note_off_c, 0, 81, 0
2, 13104, Note_on_c, 0, 79, 93
2, 13152, Note_off_c, 0, 79, 0
2, 13152, Note_on_c, 0, 79, 93
2, 13176, Note_off_c, 0, 79, 0
2, 13176, Note_on_c, 0, 77, 93
2, 13200, Note_off_c, 0, 77, 0
2, 13200, Note_on_c, 0, 79, 93
2, 13224, Note_off_c, 0, 79, 0
2, 13224, Note_on_c, 0, 76, 93
2, 13248, Note_off_c, 0, 76, 0
2, 13248, Note_on_c, 0, 76, 93
2, 13296, Note_off_c, 0, 76, 0
2, 13296, Note_on_c, 0, 77, 93
2, 13344, Note_off_c, 0, 77, 0
2, 13392, Note_on_c, 0, 74, 93
2, 13416, Note_off_c, 0, 74, 0
2, 13416, Note_on_c, 0, 76, 93
2, 13440, Note_off_c, 0, 76, 0
2, 13440, Note_on_c, 0, 77, 93
2, 13464, Note_off_c, 0, 77, 0
2, 13464, Note_on_c, 0, 79, 93
2, 13488, Note_off_c, 0, 79, 0
2, 13488, Note_on_c, 0, 81, 93
2, 13536, Note_off_c, 0, 81, 0
2, 13536, Note_on_c, 0, 71, 93
2, 13584, Note_off_c, 0, 71, 0
2, 13584, Note_on_c, 0, 72, 93
2, 13632, Note_off_c, 0, 72, 0
2, 13680, Note_on_c, 0, 72, 93
2, 13728, Note_off_c, 0, 72, 0
2, 13728, Note_on_c, 0, 76, 93
2, 13752, Note_off_c, 0, 76, 0
2, 13752, Note_on_c, 0, 74, 93
2, 13776, Note_off_c, 0, 74, 0
2, 13776, Note_on_c, 0, 76, 93
2, 13800, Note_off_c, 0, 76, 0
2, 13800, Note_on_c, 0, 72, 93
2, 13824, Note_off_c, 0, 72, 0
2, 13824, Note_on_c, 0, 71, 93
2, 13920, Note_off_c, 0, 71, 0
2, 13944, Note_on_c, 0, 71, 93
2, 13968, Note_off_c, 0, 71, 0
2, 13968, Note_on_c, 0, 72, 93
2, 13992, Note_off_c, 0, 72, 0
2, 13992, Note_on_c, 0, 71, 93
2, 14016, Note_off_c, 0, 71, 0
2, 14016, Note_on_c, 0, 69, 93
2, 14040, Note_off_c, 0, 69, 0
2, 14040, Note_on_c, 0, 67, 93
2, 14064, Note_off_c, 0, 67, 0
2, 14064, Note_on_c, 0, 65, 93
2, 14088, Note_off_c, 0, 65, 0
2, 14088, Note_on_c, 0, 64, 93
2, 14112, Note_off_c, 0, 64, 0
2, 14112, Note_on_c, 0, 65, 93
2, 14136, Note_off_c, 0, 65, 0
2, 14136, Note_on_c, 0, 75, 93
2, 14160, Note_off_c, 0, 75, 0
2, 14160, Note_on_c, 0, 74, 93
2, 14184, Note_off_c, 0, 74, 0
2, 14184, Note_on_c, 0, 72, 93
2, 14208, Note_off_c, 0, 72, 0
2, 14208, Note_on_c, 0, 71, 93
2, 14232, Note_off_c, 0, 71, 0
2, 14232, Note_on_c, 0, 72, 93
2, 14256, Note_off_c, 0, 72, 0
2, 14256, Note_on_c, 0, 80, 93
2, 14280, Note_off_c, 0, 80, 0
2, 14280, Note_on_c, 0, 79, 93
2, 14304, Note_off_c, 0, 79, 0
2, 14304, Note_on_c, 0, 78, 93
2, 14328, Note_off_c, 0, 78, 0
2, 14328, Note_on_c, 0, 72, 93
2, 14340, Note_off_c, 0, 72, 0
2, 14340, Note_on_c, 0, 71, 93
2, 14352, Note_off_c, 0, 71, 0
2, 14352, Note_on_c, 0, 72, 93
2, 14376, Note_off_c, 0, 72, 0
2, 14376, Note_on_c, 0, 78, 93
2, 14400, Note_off_c, 0, 78, 0
2, 14400, Note_on_c, 0, 79, 93
2, 14436, Note_off_c, 0, 79, 0
2, 14436, Note_on_c, 0, 81, 93
2, 14448, Note_off_c, 0, 81, 0
2, 14448, Note_on_c, 0, 79, 93
2, 14460, Note_off_c, 0, 79, 0
2, 14460, Note_on_c, 0, 77, 93
2, 14472, Note_off_c, 0, 77, 0
2, 14472, Note_on_c, 0, 76, 93
2, 14478, Note_off_c, 0, 76, 0
2, 14478, Note_on_c, 0, 77, 93
2, 14484, Note_off_c, 0, 77, 0
2, 14484, Note_on_c, 0, 79, 93
2, 14496, Note_off_c, 0, 79, 0
2, 14496, Note_on_c, 0, 72, 93
2, 14556, Note_off_c, 0, 72, 0
2, 14556, Note_on_c, 0, 71, 93
2, 14568, Note_off_c, 0, 71, 0
2, 14568, Note_on_c, 0, 69, 93
2, 14580, Note_off_c, 0, 69, 0
2, 14580, Note_on_c, 0, 71, 93
2, 14592, Note_off_c, 0, 71, 0
2, 14592, Note_on_c, 0, 71, 93
2, 14664, Note_off_c, 0, 71, 0
2, 14664, Note_on_c, 0, 69, 93
2, 14676, Note_off_c, 0, 69, 0
2, 14676, Note_on_c, 0, 71, 93
2, 14688, Note_off_c, 0, 71, 0
2, 14688, Note_on_c, 0, 72, 93
2, 14976, Note_off_c, 0, 72, 0
2, 14976, End_track
3, 0, Start_track
3, 0, Title_t, "Track3"
3, 0, Program_c, 1, 40
3, 0, Control_c, 1, 7, 100
3, 0, Control_c, 1, 10, 59
3, 696, Note_on_c, 1, 67, 93
3, 720, Note_off_c, 1, 67, 0
3, 720, Note_on_c, 1, 69, 93
3, 744, Note_off_c, 1, 69, 0
3, 744, Note_on_c, 1, 64, 93
3, 768, Note_off_c, 1, 64, 0
3, 768, Note_on_c, 1, 66, 93
3, 792, Note_off_c, 1, 66, 0
3, 792, Note_on_c, 1, 69, 93
3, 816, Note_off_c, 1, 69, 0
3, 816, Note_on_c, 1, 71, 93
3, 840, Note_off_c, 1, 71, 0
3, 840, Note_on_c, 1, 72, 93
3, 864, Note_off_c, 1, 72, 0
3, 864, Note_on_c, 1, 71, 93
3, 888, Note_off_c, 1, 71, 0
3, 888, Note_on_c, 1, 69, 93
3, 912, Note_off_c, 1, 69, 0
3, 912, Note_on_c, 1, 67, 93
3, 960, Note_off_c, 1, 67, 0
3, 1560, Note_on_c, 1, 74, 93
3, 1584, Note_off_c, 1, 74, 0
3, 1584, Note_on_c, 1, 76, 93
3, 1608, Note_off_c, 1, 76, 0
3, 1608, Note_on_c, 1, 71, 93
3, 1632, Note_off_c, 1, 71, 0
3, 1632, Note_on_c, 1, 72, 93
3, 1656, Note_off_c, 1, 72, 0
3, 1656, Note_on_c, 1, 76, 93
3, 1680, Note_off_c, 1, 76, 0
3, 1680, Note_on_c, 1, 81, 93
3, 1704, Note_off_c, 1, 81, 0
3, 1704, Note_on_c, 1, 79, 93
3, 1728, Note_off_c, 1, 79, 0
3, 1728, Note_on_c, 1, 77, 93
3, 1776, Note_off_c, 1, 77, 0
3, 1920, Note_on_c, 1, 71, 93
3, 1968, Note_off_c, 1, 71, 0
3, 1968, Note_on_c, 1, 71, 93
3, 2016, Note_off_c, 1, 71, 0
3, 2016, Note_on_c, 1, 72, 93
3, 2064, Note_off_c, 1, 72, 0
3, 2160, Note_on_c, 1, 64, 93
3, 2208, Note_off_c, 1, 64, 0
3, 2208, Note_on_c, 1, 64, 93
3, 2256, Note_off_c, 1, 64, 0
3, 2496, Note_on_c, 1, 67, 93
3, 2592, Note_off_c, 1, 67, 0
3, 3864, Note_on_c, 1, 67, 93
3, 3888, Note_off_c, 1, 67, 0
3, 3888, Note_on_c, 1, 69, 93
3, 3912, Note_off_c, 1, 69, 0
3, 3912, Note_on_c, 1, 64, 93
3, 3936, Note_off_c, 1, 64, 0
3, 3936, Note_on_c, 1, 66, 93
3, 3960, Note_off_c, 1, 66, 0
3, 3960, Note_on_c, 1, 69, 93
3, 3984, Note_off_c, 1, 69, 0
3, 3984, Note_on_c, 1, 71, 93
3, 4008, Note_off_c, 1, 71, 0
3, 4008, Note_on_c, 1, 72, 93
3, 4032, Note_off_c, 1, 72, 0
3, 4032, Note_on_c, 1, 71, 93
3, 4056, Note_off_c, 1, 71, 0
3, 4056, Note_on_c, 1, 69, 93
3, 4080, Note_off_c, 1, 69, 0
3, 4080, Note_on_c, 1, 67, 93
3, 4128, Note_off_c, 1, 67, 0
3, 4728, Note_on_c, 1, 74, 93
3, 4752, Note_off_c, 1, 74, 0
3, 4752, Note_on_c, 1, 76, 93
3, 4776, Note_off_c, 1, 76, 0
3, 4776, Note_on_c, 1, 71, 93
3, 4800, Note_off_c, 1, 71, 0
3, 4800, Note_on_c, 1, 72, 93
3, 4824, Note_off_c, 1, 72, 0
3, 4824, Note_on_c, 1, 76, 93
3, 4848, Note_off_c, 1, 76, 0
3, 4848, Note_on_c, 1, 81, 93
3, 4872, Note_off_c, 1, 81, 0
3, 4872, Note_on_c, 1, 79, 93
3, 4896, Note_off_c, 1, 79, 0
3, 4896, Note_on_c, 1, 77, 93
3, 4944, Note_off_c, 1, 77, 0
3, 5088, Note_on_c, 1, 71, 93
3, 5136, Note_off_c, 1, 71, 0
3, 5136, Note_on_c, 1, 71, 93
3, 5184, Note_off_c, 1, 71, 0
3, 5184, Note_on_c, 1, 72, 93
3, 5232, Note_off_c, 1, 72, 0
3, 5328, Note_on_c, 1, 64, 93
3, 5376, Note_off_c, 1, 64, 0
3, 5376, Note_on_c, 1, 64, 93
3, 5424, Note_off_c, 1, 64, 0
3, 5664, Note_on_c, 1, 67, 93
3, 5760, Note_off_c, 1, 67, 0
3, 6768, Note_on_c, 1, 74, 93
3, 6816, Note_off_c, 1, 74, 0
3, 6816, Note_on_c, 1, 71, 93
3, 6864, Note_off_c, 1, 71, 0
3, 7200, Note_on_c, 1, 71, 93
3, 7248, Note_off_c, 1, 71, 0
3, 7248, Note_on_c, 1, 71, 93
3, 7296, Note_off_c, 1, 71, 0
3, 7776, Note_on_c, 1, 66, 93
3, 7824, Note_off_c, 1, 66, 0
3, 7824, Note_on_c, 1, 66, 93
3, 7872, Note_off_c, 1, 66, 0
3, 8064, Note_on_c, 1, 71, 93
3, 8112, Note_off_c, 1, 71, 0
3, 8160, Note_on_c, 1, 76, 93
3, 8208, Note_off_c, 1, 76, 0
3, 9120, Note_on_c, 1, 69, 93
3, 9168, Note_off_c, 1, 69, 0
3, 9168, Note_on_c, 1, 71, 93
3, 9216, Note_off_c, 1, 71, 0
3, 9984, Note_on_c, 1, 72, 93
3, 10008, Note_off_c, 1, 72, 0
3, 10080, Note_on_c, 1, 72, 93
3, 10128, Note_off_c, 1, 72, 0
3, 10368, Note_on_c, 1, 64, 93
3, 10416, Note_off_c, 1, 64, 0
3, 10416, Note_on_c, 1, 64, 93
3, 10464, Note_off_c, 1, 64, 0
3, 10464, Note_on_c, 1, 64, 93
3, 10512, Note_off_c, 1, 64, 0
3, 10512, Note_on_c, 1, 64, 93
3, 10560, Note_off_c, 1, 64, 0
3, 10560, Note_on_c, 1, 66, 93
3, 10608, Note_off_c, 1, 66, 0
3, 10608, Note_on_c, 1, 66, 93
3, 10656, Note_off_c, 1, 66, 0
3, 10656, Note_on_c, 1, 67, 93
3, 10704, Note_off_c, 1, 67, 0
3, 10704, Note_on_c, 1, 67, 93
3, 10752, Note_off_c, 1, 67, 0
3, 10752, Note_on_c, 1, 67, 93
3, 10800, Note_off_c, 1, 67, 0
3, 10800, Note_on_c, 1, 67, 93
3, 10848, Note_off_c, 1, 67, 0
3, 10848, Note_on_c, 1, 67, 93
3, 10896, Note_off_c, 1, 67, 0
3, 10896, Note_on_c, 1, 67, 93
3, 10944, Note_off_c, 1, 67, 0
3, 11088, Note_on_c, 1, 74, 93
3, 11136, Note_off_c, 1, 74, 0
3, 11136, Note_on_c, 1, 71, 93
3, 11184, Note_off_c, 1, 71, 0
3, 11520, Note_on_c, 1, 71, 93
3, 11568, Note_off_c, 1, 71, 0
3, 11568, Note_on_c, 1, 71, 93
3, 11616, Note_off_c, 1, 71, 0
3, 12096, Note_on_c, 1, 66, 93
3, 12144, Note_off_c, 1, 66, 0
3, 12144, Note_on_c, 1, 66, 93
3, 12192, Note_off_c, 1, 66, 0
3, 12384, Note_on_c, 1, 71, 93
3, 12432, Note_off_c, 1, 71, 0
3, 12480, Note_on_c, 1, 76, 93
3, 12528, Note_off_c, 1, 76, 0
3, 13440, Note_on_c, 1, 69, 93
3, 13488, Note_off_c, 1, 69, 0
3, 13488, Note_on_c, 1, 71, 93
3, 13536, Note_off_c, 1, 71, 0
3, 14304, Note_on_c, 1, 72, 93
3, 14328, Note_off_c, 1, 72, 0
3, 14400, Note_on_c, 1, 72, 93
3, 14448, Note_off_c, 1, 72, 0
3, 14448, End_track
4, 0, Start_track
4, 0, Title_t, "Track4"
4, 0, Program_c, 2, 40
4, 0, Control_c, 2, 7, 100
4, 0, Control_c, 2, 10, 79
4, 0, Note_on_c, 2, 60, 93
4, 48, Note_off_c, 2, 60, 0
4, 48, Note_on_c, 2, 60, 93
4, 96, Note_off_c, 2, 60, 0
4, 96, Note_on_c, 2, 60, 93
4, 144, Note_off_c, 2, 60, 0
4, 144, Note_on_c, 2, 60, 93
4, 192, Note_off_c, 2, 60, 0
4, 192, Note_on_c, 2, 60, 93
4, 240, Note_off_c, 2, 60, 0
4, 240, Note_on_c, 2, 60, 93
4, 288, Note_off_c, 2, 60, 0
4, 288, Note_on_c, 2, 59, 93
4, 336, Note_off_c, 2, 59, 0
4, 336, Note_on_c, 2, 59, 93
4, 384, Note_off_c, 2, 59, 0
4, 384, Note_on_c, 2, 59, 93
4, 432, Note_off_c, 2, 59, 0
4, 432, Note_on_c, 2, 59, 93
4, 480, Note_off_c, 2, 59, 0
4, 480, Note_on_c, 2, 59, 93
4, 528, Note_off_c, 2, 59, 0
4, 528, Note_on_c, 2, 59, 93
4, 576, Note_off_c, 2, 59, 0
4, 576, Note_on_c, 2, 60, 93
4, 624, Note_off_c, 2, 60, 0
4, 624, Note_on_c, 2, 60, 93
4, 672, Note_off_c, 2, 60, 0
4, 672, Note_on_c, 2, 57, 93
4, 720, Note_off_c, 2, 57, 0
4, 720, Note_on_c, 2, 57, 93
4, 768, Note_off_c, 2, 57, 0
4, 768, Note_on_c, 2, 62, 93
4, 816, Note_off_c, 2, 62, 0
4, 816, Note_on_c, 2, 62, 93
4, 864, Note_off_c, 2, 62, 0
4, 864, Note_on_c, 2, 55, 93
4, 912, Note_off_c, 2, 55, 0
4, 912, Note_on_c, 2, 55, 93
4, 960, Note_off_c, 2, 55, 0
4, 960, Note_on_c, 2, 67, 93
4, 1008, Note_off_c, 2, 67, 0
4, 1008, Note_on_c, 2, 67, 93
4, 1056, Note_off_c, 2, 67, 0
4, 1056, Note_on_c, 2, 67, 93
4, 1104, Note_off_c, 2, 67, 0
4, 1104, Note_on_c, 2, 67, 93
4, 1152, Note_off_c, 2, 67, 0
4, 1152, Note_on_c, 2, 67, 93
4, 1200, Note_off_c, 2, 67, 0
4, 1200, Note_on_c, 2, 67, 93
4, 1248, Note_off_c, 2, 67, 0
4, 1248, Note_on_c, 2, 65, 93
4, 1296, Note_off_c, 2, 65, 0
4, 1296, Note_on_c, 2, 65, 93
4, 1344, Note_off_c, 2, 65, 0
4, 1344, Note_on_c, 2, 65, 93
4, 1392, Note_off_c, 2, 65, 0
4, 1392, Note_on_c, 2, 65, 93
4, 1440, Note_off_c, 2, 65, 0
4, 1440, Note_on_c, 2, 65, 93
4, 1488, Note_off_c, 2, 65, 0
4, 1488, Note_on_c, 2, 65, 93
4, 1536, Note_off_c, 2, 65, 0
4, 1536, Note_on_c, 2, 64, 93
4, 1584, Note_off_c, 2, 64, 0
4, 1584, Note_on_c, 2, 64, 93
4, 1632, Note_off_c, 2, 64, 0
4, 1632, Note_on_c, 2, 69, 93
4, 1680, Note_off_c, 2, 69, 0
4, 1680, Note_on_c, 2, 69, 93
4, 1728, Note_off_c, 2, 69, 0
4, 1728, Note_on_c, 2, 62, 93
4, 1776, Note_off_c, 2, 62, 0
4, 1776, Note_on_c, 2, 62, 93
4, 1824, Note_off_c, 2, 62, 0
4, 1824, Note_on_c, 2, 67, 93
4, 1872, Note_off_c, 2, 67, 0
4, 1872, Note_on_c, 2, 67, 93
4, 1920, Note_off_c, 2, 67, 0
4, 1920, Note_on_c, 2, 55, 93
4, 1968, Note_off_c, 2, 55, 0
4, 1968, Note_on_c, 2, 55, 93
4, 2016, Note_off_c, 2, 55, 0
4, 2016, Note_on_c, 2, 60, 93
4, 2064, Note_off_c, 2, 60, 0
4, 2064, Note_on_c, 2, 60, 93
4, 2112, Note_off_c, 2, 60, 0
4, 2112, Note_on_c, 2, 60, 93
4, 2160, Note_off_c, 2, 60, 0
4, 2160, Note_on_c, 2, 60, 93
4, 2208, Note_off_c, 2, 60, 0
4, 2208, Note_on_c, 2, 60, 93
4, 2256, Note_off_c, 2, 60, 0
4, 2256, Note_on_c, 2, 60, 93
4, 2304, Note_off_c, 2, 60, 0
4, 2304, Note_on_c, 2, 60, 93
4, 2352, Note_off_c, 2, 60, 0
4, 2496, Note_on_c, 2, 59, 93
4, 2592, Note_off_c, 2, 59, 0
4, 2592, Note_on_c, 2, 60, 93
4, 2616, Note_off_c, 2, 60, 0
4, 2616, Note_on_c, 2, 76, 93
4, 2628, Note_off_c, 2, 76, 0
4, 2628, Note_on_c, 2, 74, 93
4, 2640, Note_off_c, 2, 74, 0
4, 2640, Note_on_c, 2, 72, 93
4, 2652, Note_off_c, 2, 72, 0
4, 2652, Note_on_c, 2, 74, 93
4, 2664, Note_off_c, 2, 74, 0
4, 2664, Note_on_c, 2, 76, 93
4, 2688, Note_off_c, 2, 76, 0
4, 2688, Note_on_c, 2, 62, 93
4, 2880, Note_off_c, 2, 62, 0
4, 2880, Note_on_c, 2, 55, 93
4, 2928, Note_off_c, 2, 55, 0
4, 2928, Note_on_c, 2, 55, 93
4, 2976, Note_off_c, 2, 55, 0
4, 2976, Note_on_c, 2, 57, 93
4, 3024, Note_off_c, 2, 57, 0
4, 3024, Note_on_c, 2, 57, 93
4, 3072, Note_off_c, 2, 57, 0
4, 3072, Note_on_c, 2, 59, 93
4, 3120, Note_off_c, 2, 59, 0
4, 3120, Note_on_c, 2, 59, 93
4, 3168, Note_off_c, 2, 59, 0
4, 3168, Note_on_c, 2, 60, 93
4, 3216, Note_off_c, 2, 60, 0
4, 3216, Note_on_c, 2, 60, 93
4, 3264, Note_off_c, 2, 60, 0
4, 3264, Note_on_c, 2, 60, 93
4, 3312, Note_off_c, 2, 60, 0
4, 3312, Note_on_c, 2, 60, 93
4, 3360, Note_off_c, 2, 60, 0
4, 3360, Note_on_c, 2, 60, 93
4, 3408, Note_off_c, 2, 60, 0
4, 3408, Note_on_c, 2, 60, 93
4, 3456, Note_off_c, 2, 60, 0
4, 3456, Note_on_c, 2, 59, 93
4, 3504, Note_off_c, 2, 59, 0
4, 3504, Note_on_c, 2, 59, 93
4, 3552, Note_off_c, 2, 59, 0
4, 3552, Note_on_c, 2, 59, 93
4, 3600, Note_off_c, 2, 59, 0
4, 3600, Note_on_c, 2, 59, 93
4, 3648, Note_off_c, 2, 59, 0
4, 3648, Note_on_c, 2, 59, 93
4, 3696, Note_off_c, 2, 59, 0
4, 3696, Note_on_c, 2, 59, 93
4, 3744, Note_off_c, 2, 59, 0
4, 3744, Note_on_c, 2, 60, 93
4, 3792, Note_off_c, 2, 60, 0
4, 3792, Note_on_c, 2, 60, 93
4, 3840, Note_off_c, 2, 60, 0
4, 3840, Note_on_c, 2, 57, 93
4, 3888, Note_off_c, 2, 57, 0
4, 3888, Note_on_c, 2, 57, 93
4, 3936, Note_off_c, 2, 57, 0
4, 3936, Note_on_c, 2, 62, 93
4, 3984, Note_off_c, 2, 62, 0
4, 3984, Note_on_c, 2, 62, 93
4, 4032, Note_off_c, 2, 62, 0
4, 4032, Note_on_c, 2, 55, 93
4, 4080, Note_off_c, 2, 55, 0
4, 4080, Note_on_c, 2, 55, 93
4, 4128, Note_off_c, 2, 55, 0
4, 4128, Note_on_c, 2, 67, 93
4, 4176, Note_off_c, 2, 67, 0
4, 4176, Note_on_c, 2, 67, 93
4, 4224, Note_off_c, 2, 67, 0
4, 4224, Note_on_c, 2, 67, 93
4, 4272, Note_off_c, 2, 67, 0
4, 4272, Note_on_c, 2, 67, 93
4, 4320, Note_off_c, 2, 67, 0
4, 4320, Note_on_c, 2, 67, 93
4, 4368, Note_off_c, 2, 67, 0
4, 4368, Note_on_c, 2, 67, 93
4, 4416, Note_off_c, 2, 67, 0
4, 4416, Note_on_c, 2, 65, 93
4, 4464, Note_off_c, 2, 65, 0
4, 4464, Note_on_c, 2, 65, 93
4, 4512, Note_off_c, 2, 65, 0
4, 4512, Note_on_c, 2, 65, 93
4, 4560, Note_off_c, 2, 65, 0
4, 4560, Note_on_c, 2, 65, 93
4, 4608, Note_off_c, 2, 65, 0
4, 4608, Note_on_c, 2, 65, 93
4, 4656, Note_off_c, 2, 65, 0
4, 4656, Note_on_c, 2, 65, 93
4, 4704, Note_off_c, 2, 65, 0
4, 4704, Note_on_c, 2, 64, 93
4, 4752, Note_off_c, 2, 64, 0
4, 4752, Note_on_c, 2, 64, 93
4, 4800, Note_off_c, 2, 64, 0
4, 4800, Note_on_c, 2, 69, 93
4, 4848, Note_off_c, 2, 69, 0
4, 4848, Note_on_c, 2, 69, 93
4, 4896, Note_off_c, 2, 69, 0
4, 4896, Note_on_c, 2, 62, 93
4, 4944, Note_off_c, 2, 62, 0
4, 4944, Note_on_c, 2, 62, 93
4, 4992, Note_off_c, 2, 62, 0
4, 4992, Note_on_c, 2, 67, 93
4, 5040, Note_off_c, 2, 67, 0
4, 5040, Note_on_c, 2, 67, 93
4, 5088, Note_off_c, 2, 67, 0
4, 5088, Note_on_c, 2, 55, 93
4, 5136, Note_off_c, 2, 55, 0
4, 5136, Note_on_c, 2, 55, 93
4, 5184, Note_off_c, 2, 55, 0
4, 5184, Note_on_c, 2, 60, 93
4, 5232, Note_off_c, 2, 60, 0
4, 5232, Note_on_c, 2, 60, 93
4, 5280, Note_off_c, 2, 60, 0
4, 5280, Note_on_c, 2, 60, 93
4, 5328, Note_off_c, 2, 60, 0
4, 5328, Note_on_c, 2, 60, 93
4, 5376, Note_off_c, 2, 60, 0
4, 5376, Note_on_c, 2, 60, 93
4, 5424, Note_off_c, 2, 60, 0
4, 5424, Note_on_c, 2, 60, 93
4, 5472, Note_off_c, 2, 60, 0
4, 5472, Note_on_c, 2, 60, 93
4, 5520, Note_off_c, 2, 60, 0
4, 5664, Note_on_c, 2, 59, 93
4, 5760, Note_off_c, 2, 59, 0
4, 5760, Note_on_c, 2, 60, 93
4, 5784, Note_off_c, 2, 60, 0
4, 5784, Note_on_c, 2, 76, 93
4, 5796, Note_off_c, 2, 76, 0
4, 5796, Note_on_c, 2, 74, 93
4, 5808, Note_off_c, 2, 74, 0
4, 5808, Note_on_c, 2, 72, 93
4, 5820, Note_off_c, 2, 72, 0
4, 5820, Note_on_c, 2, 74, 93
4, 5832, Note_off_c, 2, 74, 0
4, 5832, Note_on_c, 2, 76, 93
4, 5856, Note_off_c, 2, 76, 0
4, 5856, Note_on_c, 2, 62, 93
4, 6048, Note_off_c, 2, 62, 0
4, 6048, Note_on_c, 2, 55, 93
4, 6336, Note_off_c, 2, 55, 0
4, 6336, Note_on_c, 2, 67, 93
4, 6384, Note_off_c, 2, 67, 0
4, 6384, Note_on_c, 2, 67, 93
4, 6432, Note_off_c, 2, 67, 0
4, 6432, Note_on_c, 2, 67, 93
4, 6480, Note_off_c, 2, 67, 0
4, 6480, Note_on_c, 2, 67, 93
4, 6528, Note_off_c, 2, 67, 0
4, 6528, Note_on_c, 2, 67, 93
4, 6576, Note_off_c, 2, 67, 0
4, 6576, Note_on_c, 2, 67, 93
4, 6624, Note_off_c, 2, 67, 0
4, 6624, Note_on_c, 2, 68, 93
4, 6672, Note_off_c, 2, 68, 0
4, 6672, Note_on_c, 2, 68, 93
4, 6720, Note_off_c, 2, 68, 0
4, 6720, Note_on_c, 2, 68, 93
4, 6768, Note_off_c, 2, 68, 0
4, 6768, Note_on_c, 2, 68, 93
4, 6816, Note_off_c, 2, 68, 0
4, 6816, Note_on_c, 2, 68, 93
4, 6864, Note_off_c, 2, 68, 0
4, 6864, Note_on_c, 2, 68, 93
4, 6912, Note_off_c, 2, 68, 0
4, 6912, Note_on_c, 2, 69, 93
4, 6960, Note_off_c, 2, 69, 0
4, 6960, Note_on_c, 2, 69, 93
4, 7008, Note_off_c, 2, 69, 0
4, 7008, Note_on_c, 2, 65, 93
4, 7056, Note_off_c, 2, 65, 0
4, 7056, Note_on_c, 2, 65, 93
4, 7104, Note_off_c, 2, 65, 0
4, 7104, Note_on_c, 2, 65, 93
4, 7152, Note_off_c, 2, 65, 0
4, 7152, Note_on_c, 2, 65, 93
4, 7200, Note_off_c, 2, 65, 0
4, 7200, Note_on_c, 2, 64, 93
4, 7248, Note_off_c, 2, 64, 0
4, 7248, Note_on_c, 2, 64, 93
4, 7296, Note_off_c, 2, 64, 0
4, 7296, Note_on_c, 2, 74, 93
4, 7344, Note_off_c, 2, 74, 0
4, 7344, Note_on_c, 2, 74, 93
4, 7392, Note_off_c, 2, 74, 0
4, 7392, Note_on_c, 2, 74, 93
4, 7440, Note_off_c, 2, 74, 0
4, 7440, Note_on_c, 2, 74, 93
4, 7488, Note_off_c, 2, 74, 0
4, 7488, Note_on_c, 2, 72, 93
4, 7536, Note_off_c, 2, 72, 0
4, 7536, Note_on_c, 2, 72, 93
4, 7584, Note_off_c, 2, 72, 0
4, 7584, Note_on_c, 2, 72, 93
4, 7632, Note_off_c, 2, 72, 0
4, 7632, Note_on_c, 2, 72, 93
4, 7680, Note_off_c, 2, 72, 0
4, 7680, Note_on_c, 2, 72, 93
4, 7728, Note_off_c, 2, 72, 0
4, 7728, Note_on_c, 2, 69, 93
4, 7776, Note_off_c, 2, 69, 0
4, 7776, Note_on_c, 2, 75, 93
4, 7824, Note_off_c, 2, 75, 0
4, 7824, Note_on_c, 2, 75, 93
4, 7872, Note_off_c, 2, 75, 0
4, 7872, Note_on_c, 2, 75, 93
4, 7920, Note_off_c, 2, 75, 0
4, 7920, Note_on_c, 2, 75, 93
4, 7968, Note_off_c, 2, 75, 0
4, 7968, Note_on_c, 2, 71, 93
4, 8016, Note_off_c, 2, 71, 0
4, 8016, Note_on_c, 2, 71, 93
4, 8064, Note_off_c, 2, 71, 0
4, 8064, Note_on_c, 2, 64, 93
4, 8112, Note_off_c, 2, 64, 0
4, 8112, Note_on_c, 2, 66, 93
4, 8160, Note_off_c, 2, 66, 0
4, 8160, Note_on_c, 2, 67, 93
4, 8208, Note_off_c, 2, 67, 0
4, 8208, Note_on_c, 2, 69, 93
4, 8256, Note_off_c, 2, 69, 0
4, 8256, Note_on_c, 2, 71, 93
4, 8304, Note_off_c, 2, 71, 0
4, 8304, Note_on_c, 2, 71, 93
4, 8352, Note_off_c, 2, 71, 0
4, 8352, Note_on_c, 2, 76, 93
4, 8400, Note_off_c, 2, 76, 0
4, 8400, Note_on_c, 2, 76, 93
4, 8448, Note_off_c, 2, 76, 0
4, 8448, Note_on_c, 2, 74, 93
4, 8496, Note_off_c, 2, 74, 0
4, 8496, Note_on_c, 2, 74, 93
4, 8544, Note_off_c, 2, 74, 0
4, 8544, Note_on_c, 2, 74, 93
4, 8592, Note_off_c, 2, 74, 0
4, 8592, Note_on_c, 2, 74, 93
4, 8640, Note_off_c, 2, 74, 0
4, 8640, Note_on_c, 2, 73, 93
4, 8688, Note_off_c, 2, 73, 0
4, 8688, Note_on_c, 2, 73, 93
4, 8736, Note_off_c, 2, 73, 0
4, 8736, Note_on_c, 2, 69, 93
4, 8784, Note_off_c, 2, 69, 0
4, 8784, Note_on_c, 2, 69, 93
4, 8832, Note_off_c, 2, 69, 0
4, 8832, Note_on_c, 2, 69, 93
4, 8880, Note_off_c, 2, 69, 0
4, 8880, Note_on_c, 2, 69, 93
4, 8928, Note_off_c, 2, 69, 0
4, 8928, Note_on_c, 2, 74, 93
4, 8976, Note_off_c, 2, 74, 0
4, 8976, Note_on_c, 2, 74, 93
4, 9024, Note_off_c, 2, 74, 0
4, 9024, Note_on_c, 2, 62, 93
4, 9072, Note_off_c, 2, 62, 0
4, 9072, Note_on_c, 2, 62, 93
4, 9120, Note_off_c, 2, 62, 0
4, 9120, Note_on_c, 2, 62, 93
4, 9168, Note_off_c, 2, 62, 0
4, 9168, Note_on_c, 2, 62, 93
4, 9216, Note_off_c, 2, 62, 0
4, 9216, Note_on_c, 2, 64, 93
4, 9264, Note_off_c, 2, 64, 0
4, 9264, Note_on_c, 2, 64, 93
4, 9312, Note_off_c, 2, 64, 0
4, 9312, Note_on_c, 2, 66, 93
4, 9360, Note_off_c, 2, 66, 0
4, 9360, Note_on_c, 2, 66, 93
4, 9408, Note_off_c, 2, 66, 0
4, 9408, Note_on_c, 2, 66, 93
4, 9456, Note_off_c, 2, 66, 0
4, 9456, Note_on_c, 2, 66, 93
4, 9504, Note_off_c, 2, 66, 0
4, 9504, Note_on_c, 2, 67, 93
4, 9552, Note_off_c, 2, 67, 0
4, 9552, Note_on_c, 2, 67, 93
4, 9600, Note_off_c, 2, 67, 0
4, 9600, Note_on_c, 2, 67, 93
4, 9648, Note_off_c, 2, 67, 0
4, 9648, Note_on_c, 2, 67, 93
4, 9696, Note_off_c, 2, 67, 0
4, 9696, Note_on_c, 2, 55, 93
4, 9744, Note_off_c, 2, 55, 0
4, 9744, Note_on_c, 2, 55, 93
4, 9792, Note_off_c, 2, 55, 0
4, 9792, Note_on_c, 2, 56, 93
4, 9816, Note_off_c, 2, 56, 0
4, 9984, Note_on_c, 2, 57, 93
4, 10008, Note_off_c, 2, 57, 0
4, 10080, Note_on_c, 2, 55, 93
4, 10128, Note_off_c, 2, 55, 0
4, 10176, Note_on_c, 2, 55, 93
4, 10272, Note_off_c, 2, 55, 0
4, 10368, Note_on_c, 2, 60, 93
4, 10416, Note_off_c, 2, 60, 0
4, 10416, Note_on_c, 2, 60, 93
4, 10464, Note_off_c, 2, 60, 0
4, 10464, Note_on_c, 2, 59, 93
4, 10512, Note_off_c, 2, 59, 0
4, 10512, Note_on_c, 2, 59, 93
4, 10560, Note_off_c, 2, 59, 0
4, 10560, Note_on_c, 2, 57, 93
4, 10608, Note_off_c, 2, 57, 0
4, 10608, Note_on_c, 2, 57, 93
4, 10656, Note_off_c, 2, 57, 0
4, 10656, Note_on_c, 2, 55, 93
4, 10704, Note_off_c, 2, 55, 0
4, 10704, Note_on_c, 2, 55, 93
4, 10752, Note_off_c, 2, 55, 0
4, 10944, Note_on_c, 2, 68, 93
4, 10992, Note_off_c, 2, 68, 0
4, 10992, Note_on_c, 2, 68, 93
4, 11040, Note_off_c, 2, 68, 0
4, 11040, Note_on_c, 2, 68, 93
4, 11088, Note_off_c, 2, 68, 0
4, 11088, Note_on_c, 2, 68, 93
4, 11136, Note_off_c, 2, 68, 0
4, 11136, Note_on_c, 2, 68, 93
4, 11184, Note_off_c, 2, 68, 0
4, 11184, Note_on_c, 2, 68, 93
4, 11232, Note_off_c, 2, 68, 0
4, 11232, Note_on_c, 2, 69, 93
4, 11280, Note_off_c, 2, 69, 0
4, 11280, Note_on_c, 2, 69, 93
4, 11328, Note_off_c, 2, 69, 0
4, 11328, Note_on_c, 2, 65, 93
4, 11376, Note_off_c, 2, 65, 0
4, 11376, Note_on_c, 2, 65, 93
4, 11424, Note_off_c, 2, 65, 0
4, 11424, Note_on_c, 2, 65, 93
4, 11472, Note_off_c, 2, 65, 0
4, 11472, Note_on_c, 2, 65, 93
4, 11520, Note_off_c, 2, 65, 0
4, 11520, Note_on_c, 2, 64, 93
4, 11568, Note_off_c, 2, 64, 0
4, 11568, Note_on_c, 2, 64, 93
4, 11616, Note_off_c, 2, 64, 0
4, 11616, Note_on_c, 2, 74, 93
4, 11664, Note_off_c, 2, 74, 0
4, 11664, Note_on_c, 2, 74, 93
4, 11712, Note_off_c, 2, 74, 0
4, 11712, Note_on_c, 2, 74, 93
4, 11760, Note_off_c, 2, 74, 0
4, 11760, Note_on_c, 2, 74, 93
4, 11808, Note_off_c, 2, 74, 0
4, 11808, Note_on_c, 2, 72, 93
4, 11856, Note_off_c, 2, 72, 0
4, 11856, Note_on_c, 2, 72, 93
4, 11904, Note_off_c, 2, 72, 0
4, 11904, Note_on_c, 2, 72, 93
4, 11952, Note_off_c, 2, 72, 0
4, 11952, Note_on_c, 2, 72, 93
4, 12000, Note_off_c, 2, 72, 0
4, 12000, Note_on_c, 2, 72, 93
4, 12048, Note_off_c, 2, 72, 0
4, 12048, Note_on_c, 2, 69, 93
4, 12096, Note_off_c, 2, 69, 0
4, 12096, Note_on_c, 2, 75, 93
4, 12144, Note_off_c, 2, 75, 0
4, 12144, Note_on_c, 2, 75, 93
4, 12192, Note_off_c, 2, 75, 0
4, 12192, Note_on_c, 2, 75, 93
4, 12240, Note_off_c, 2, 75, 0
4, 12240, Note_on_c, 2, 75, 93
4, 12288, Note_off_c, 2, 75, 0
4, 12288, Note_on_c, 2, 71, 93
4, 12336, Note_off_c, 2, 71, 0
4, 12336, Note_on_c, 2, 71, 93
4, 12384, Note_off_c, 2, 71, 0
4, 12384, Note_on_c, 2, 64, 93
4, 12432, Note_off_c, 2, 64, 0
4, 12432, Note_on_c, 2, 66, 93
4, 12480, Note_off_c, 2, 66, 0
4, 12480, Note_on_c, 2, 67, 93
4, 12528, Note_off_c, 2, 67, 0
4, 12528, Note_on_c, 2, 69, 93
4, 12576, Note_off_c, 2, 69, 0
4, 12576, Note_on_c, 2, 71, 93
4, 12624, Note_off_c, 2, 71, 0
4, 12624, Note_on_c, 2, 71, 93
4, 12672, Note_off_c, 2, 71, 0
4, 12672, Note_on_c, 2, 76, 93
4, 12720, Note_off_c, 2, 76, 0
4, 12720, Note_on_c, 2, 76, 93
4, 12768, Note_off_c, 2, 76, 0
4, 12768, Note_on_c, 2, 74, 93
4, 12816, Note_off_c, 2, 74, 0
4, 12816, Note_on_c, 2, 74, 93
4, 12864, Note_off_c, 2, 74, 0
4, 12864, Note_on_c, 2, 74, 93
4, 12912, Note_off_c, 2, 74, 0
4, 12912, Note_on_c, 2, 74, 93
4, 12960, Note_off_c, 2, 74, 0
4, 12960, Note_on_c, 2, 73, 93
4, 13008, Note_off_c, 2, 73, 0
4, 13008, Note_on_c, 2, 73, 93
4, 13056, Note_off_c, 2, 73, 0
4, 13056, Note_on_c, 2, 69, 93
4, 13104, Note_off_c, 2, 69, 0
4, 13104, Note_on_c, 2, 69, 93
4, 13152, Note_off_c, 2, 69, 0
4, 13152, Note_on_c, 2, 69, 93
4, 13200, Note_off_c, 2, 69, 0
4, 13200, Note_on_c, 2, 69, 93
4, 13248, Note_off_c, 2, 69, 0
4, 13248, Note_on_c, 2, 74, 93
4, 13296, Note_off_c, 2, 74, 0
4, 13296, Note_on_c, 2, 74, 93
4, 13344, Note_off_c, 2, 74, 0
4, 13344, Note_on_c, 2, 62, 93
4, 13392, Note_off_c, 2, 62, 0
4, 13392, Note_on_c, 2, 62, 93
4, 13440, Note_off_c, 2, 62, 0
4, 13440, Note_on_c, 2, 62, 93
4, 13488, Note_off_c, 2, 62, 0
4, 13488, Note_on_c, 2, 62, 93
4, 13536, Note_off_c, 2, 62, 0
4, 13536, Note_on_c, 2, 64, 93
4, 13584, Note_off_c, 2, 64, 0
4, 13584, Note_on_c, 2, 64, 93
4, 13632, Note_off_c, 2, 64, 0
4, 13632, Note_on_c, 2, 66, 93
4, 13680, Note_off_c, 2, 66, 0
4, 13680, Note_on_c, 2, 66, 93
4, 13728, Note_off_c, 2, 66, 0
4, 13728, Note_on_c, 2, 66, 93
4, 13776, Note_off_c, 2, 66, 0
4, 13776, Note_on_c, 2, 66, 93
4, 13824, Note_off_c, 2, 66, 0
4, 13824, Note_on_c, 2, 67, 93
4, 13872, Note_off_c, 2, 67, 0
4, 13872, Note_on_c, 2, 67, 93
4, 13920, Note_off_c, 2, 67, 0
4, 13920, Note_on_c, 2, 67, 93
4, 13968, Note_off_c, 2, 67, 0
4, 13968, Note_on_c, 2, 67, 93
4, 14016, Note_off_c, 2, 67, 0
4, 14016, Note_on_c, 2, 55, 93
4, 14064, Note_off_c, 2, 55, 0
4, 14064, Note_on_c, 2, 55, 93
4, 14112, Note_off_c, 2, 55, 0
4, 14112, Note_on_c, 2, 56, 93
4, 14136, Note_off_c, 2, 56, 0
4, 14304, Note_on_c, 2, 57, 93
4, 14328, Note_off_c, 2, 57, 0
4, 14400, Note_on_c, 2, 55, 93
4, 14448, Note_off_c, 2, 55, 0
4, 14496, Note_on_c, 2, 55, 93
4, 14592, Note_off_c, 2, 55, 0
4, 14688, Note_on_c, 2, 60, 93
4, 14976, Note_off_c, 2, 60, 0
4, 14976, End_track
5, 0, Start_track
5, 0, Title_t, "Track5"
5, 0, Program_c, 3, 40
5, 0, Control_c, 3, 7, 100
5, 0, Control_c, 3, 10, 49
5, 672, Note_on_c, 3, 67, 93
5, 696, Note_off_c, 3, 67, 0
5, 864, Note_on_c, 3, 62, 93
5, 912, Note_off_c, 3, 62, 0
5, 1536, Note_on_c, 3, 74, 93
5, 1560, Note_off_c, 3, 74, 0
5, 1728, Note_on_c, 3, 72, 93
5, 1752, Note_off_c, 3, 72, 0
5, 1920, Note_on_c, 3, 62, 93
5, 1968, Note_off_c, 3, 62, 0
5, 1968, Note_on_c, 3, 62, 93
5, 2016, Note_off_c, 3, 62, 0
5, 2016, Note_on_c, 3, 67, 93
5, 2064, Note_off_c, 3, 67, 0
5, 3840, Note_on_c, 3, 67, 93
5, 3864, Note_off_c, 3, 67, 0
5, 4032, Note_on_c, 3, 62, 93
5, 4080, Note_off_c, 3, 62, 0
5, 4704, Note_on_c, 3, 74, 93
5, 4728, Note_off_c, 3, 74, 0
5, 4896, Note_on_c, 3, 72, 93
5, 4920, Note_off_c, 3, 72, 0
5, 5088, Note_on_c, 3, 62, 93
5, 5136, Note_off_c, 3, 62, 0
5, 5136, Note_on_c, 3, 62, 93
5, 5184, Note_off_c, 3, 62, 0
5, 5184, Note_on_c, 3, 67, 93
5, 5232, Note_off_c, 3, 67, 0
5, 9984, Note_on_c, 3, 62, 93
5, 10008, Note_off_c, 3, 62, 0
5, 10080, Note_on_c, 3, 64, 93
5, 10128, Note_off_c, 3, 64, 0
5, 10176, Note_on_c, 3, 62, 93
5, 10272, Note_off_c, 3, 62, 0
5, 14304, Note_on_c, 3, 62, 93
5, 14328, Note_off_c, 3, 62, 0
5, 14400, Note_on_c, 3, 64, 93
5, 14448, Note_off_c, 3, 64, 0
5, 14496, Note_on_c, 3, 62, 93
5, 14592, Note_off_c, 3, 62, 0
5, 14688, Note_on_c, 3, 64, 93
5, 14976, Note_off_c, 3, 64, 0
5, 14976, End_track
0, 0, End_of_file
